%TF.GenerationSoftware,KiCad,Pcbnew,9.0.2*%
%TF.CreationDate,2025-06-09T15:32:08+03:00*%
%TF.ProjectId,PMCPU-LLU,504d4350-552d-44c4-9c55-2e6b69636164,rev?*%
%TF.SameCoordinates,Original*%
%TF.FileFunction,Copper,L2,Bot*%
%TF.FilePolarity,Positive*%
%FSLAX46Y46*%
G04 Gerber Fmt 4.6, Leading zero omitted, Abs format (unit mm)*
G04 Created by KiCad (PCBNEW 9.0.2) date 2025-06-09 15:32:08*
%MOMM*%
%LPD*%
G01*
G04 APERTURE LIST*
%TA.AperFunction,ComponentPad*%
%ADD10O,6.350000X6.350000*%
%TD*%
%TA.AperFunction,ComponentPad*%
%ADD11C,1.800000*%
%TD*%
%TA.AperFunction,ComponentPad*%
%ADD12C,1.700000*%
%TD*%
%TA.AperFunction,ComponentPad*%
%ADD13C,1.950000*%
%TD*%
%TA.AperFunction,ComponentPad*%
%ADD14R,1.350000X1.350000*%
%TD*%
%TA.AperFunction,ComponentPad*%
%ADD15C,1.350000*%
%TD*%
%TA.AperFunction,ComponentPad*%
%ADD16C,1.725000*%
%TD*%
%TA.AperFunction,ComponentPad*%
%ADD17C,2.000000*%
%TD*%
%TA.AperFunction,ComponentPad*%
%ADD18C,2.350000*%
%TD*%
%TA.AperFunction,SMDPad,CuDef*%
%ADD19R,1.803400X0.635000*%
%TD*%
%TA.AperFunction,SMDPad,CuDef*%
%ADD20R,2.997200X2.590800*%
%TD*%
%TA.AperFunction,ViaPad*%
%ADD21C,0.600000*%
%TD*%
%TA.AperFunction,ViaPad*%
%ADD22C,0.800000*%
%TD*%
%TA.AperFunction,ViaPad*%
%ADD23C,1.000000*%
%TD*%
%TA.AperFunction,Conductor*%
%ADD24C,0.200000*%
%TD*%
%TA.AperFunction,Conductor*%
%ADD25C,0.300000*%
%TD*%
%TA.AperFunction,Conductor*%
%ADD26C,1.000000*%
%TD*%
%TA.AperFunction,Conductor*%
%ADD27C,0.600000*%
%TD*%
G04 APERTURE END LIST*
D10*
%TO.P,PE1,1*%
%TO.N,PE*%
X22000000Y-46000000D03*
%TD*%
D11*
%TO.P,J1,1,1*%
%TO.N,/Vbat*%
X23750000Y-19000000D03*
%TO.P,J1,2,2*%
%TO.N,GND_BUS*%
X16000000Y-19000000D03*
%TD*%
D12*
%TO.P,U5,00,3V3*%
%TO.N,unconnected-(U5-3V3-Pad00)*%
X-3440000Y38770000D03*
%TO.P,U5,0A,RM_IO7*%
%TO.N,/SPI_MISO*%
X21960000Y38770000D03*
%TO.P,U5,0B,RM_IO8*%
%TO.N,/SPI_MOSI*%
X24500000Y38770000D03*
%TO.P,U5,0C,GND*%
%TO.N,GND_BUS*%
X27040000Y38770000D03*
%TO.P,U5,01,RM_IO0*%
%TO.N,unconnected-(U5-RM_IO0-Pad01)*%
X-900000Y38770000D03*
%TO.P,U5,1A,RM_IO11*%
%TO.N,unconnected-(U5-RM_IO11-Pad1A)*%
X21960000Y36230000D03*
%TO.P,U5,1B,RM_IO10*%
%TO.N,unconnected-(U5-RM_IO10-Pad1B)*%
X24500000Y36230000D03*
%TO.P,U5,1C,RM_IO9*%
%TO.N,unconnected-(U5-RM_IO9-Pad1C)*%
X27040000Y36230000D03*
%TO.P,U5,02,RM_IO1*%
%TO.N,unconnected-(U5-RM_IO1-Pad02)*%
X1640000Y38770000D03*
%TO.P,U5,2A,RM_IO30*%
%TO.N,/LED_0*%
X21960000Y-6230000D03*
%TO.P,U5,2B,RM_IO31*%
%TO.N,unconnected-(U5-RM_IO31-Pad2B)*%
X24500000Y-6230000D03*
%TO.P,U5,2C,GND*%
%TO.N,GND_BUS*%
X27040000Y-6230000D03*
%TO.P,U5,03,RM_IO2*%
%TO.N,/SPI_CS3*%
X4180000Y38770000D03*
%TO.P,U5,3A,RM_IO18*%
%TO.N,/I2C1_SCL*%
X21960000Y-8770000D03*
%TO.P,U5,3B,RM_IO20*%
%TO.N,/I2C1_SDA*%
X24500000Y-8770000D03*
%TO.P,U5,3C,GND*%
%TO.N,GND_BUS*%
X27040000Y-8770000D03*
%TO.P,U5,04,GND*%
X6720000Y38770000D03*
%TO.P,U5,05,RM_IO3*%
%TO.N,/SPI_CS2*%
X9260000Y38770000D03*
%TO.P,U5,06,RM_IO4*%
%TO.N,/SPI_CS1*%
X11800000Y38770000D03*
%TO.P,U5,07,RM_IO5*%
%TO.N,/SPI_CS0*%
X14340000Y38770000D03*
%TO.P,U5,08,3V3*%
%TO.N,unconnected-(U5-3V3-Pad08)*%
X16880000Y38770000D03*
%TO.P,U5,09,RM_IO6*%
%TO.N,/SPI_SCK*%
X19420000Y38770000D03*
%TO.P,U5,10,VSYS*%
%TO.N,+5V_CPU*%
X-3440000Y36230000D03*
%TO.P,U5,11,VSYS*%
X-900000Y36230000D03*
%TO.P,U5,12,GND*%
%TO.N,GND_BUS*%
X1640000Y36230000D03*
%TO.P,U5,13,RM_IO22*%
%TO.N,unconnected-(U5-RM_IO22-Pad13)*%
X4180000Y36230000D03*
%TO.P,U5,14,RM_IO23*%
%TO.N,unconnected-(U5-RM_IO23-Pad14)*%
X6720000Y36230000D03*
%TO.P,U5,15,RM_IO14*%
%TO.N,unconnected-(U5-RM_IO14-Pad15)*%
X9260000Y36230000D03*
%TO.P,U5,16,GND*%
%TO.N,GND_BUS*%
X11800000Y36230000D03*
%TO.P,U5,17,RM_IO13*%
%TO.N,unconnected-(U5-RM_IO13-Pad17)*%
X14340000Y36230000D03*
%TO.P,U5,18,RM_IO12*%
%TO.N,unconnected-(U5-RM_IO12-Pad18)*%
X16880000Y36230000D03*
%TO.P,U5,19,GND*%
%TO.N,GND_BUS*%
X19420000Y36230000D03*
%TO.P,U5,20,VSYS*%
%TO.N,unconnected-(U5-VSYS-Pad20)*%
X-3440000Y-6230000D03*
%TO.P,U5,21,GND*%
%TO.N,GND_BUS*%
X-900000Y-6230000D03*
%TO.P,U5,22,3V3*%
%TO.N,unconnected-(U5-3V3-Pad22)*%
X1640000Y-6230000D03*
%TO.P,U5,23,GND*%
%TO.N,GND_BUS*%
X4180000Y-6230000D03*
%TO.P,U5,24,RM_IO24*%
%TO.N,/I2C0_SCL*%
X6720000Y-6230000D03*
%TO.P,U5,25,RM_IO25*%
%TO.N,/I2C0_SDA*%
X9260000Y-6230000D03*
%TO.P,U5,26,RM_IO26*%
%TO.N,unconnected-(U5-RM_IO26-Pad26)*%
X11800000Y-6230000D03*
%TO.P,U5,27,RM_IO27*%
%TO.N,unconnected-(U5-RM_IO27-Pad27)*%
X14340000Y-6230000D03*
%TO.P,U5,28,RM_IO28*%
%TO.N,/LED_2*%
X16880000Y-6230000D03*
%TO.P,U5,29,RM_IO29*%
%TO.N,/LED_1*%
X19420000Y-6230000D03*
%TO.P,U5,30,1V8*%
%TO.N,unconnected-(U5-1V8-Pad30)*%
X-3440000Y-8770000D03*
%TO.P,U5,31,GND*%
%TO.N,GND_BUS*%
X-900000Y-8770000D03*
%TO.P,U5,32,ADC3*%
%TO.N,unconnected-(U5-ADC3-Pad32)*%
X1640000Y-8770000D03*
%TO.P,U5,33,ADC2*%
%TO.N,unconnected-(U5-ADC2-Pad33)*%
X4180000Y-8770000D03*
%TO.P,U5,34,GND*%
%TO.N,GND_BUS*%
X6720000Y-8770000D03*
%TO.P,U5,35,RM_IO16*%
%TO.N,/UART_TX*%
X9260000Y-8770000D03*
%TO.P,U5,36*%
%TO.N,/UART_RTS*%
X11800000Y-8770000D03*
%TO.P,U5,37*%
%TO.N,unconnected-(U5-Pad37)*%
X14340000Y-8770000D03*
%TO.P,U5,38,GND*%
%TO.N,GND_BUS*%
X16880000Y-8770000D03*
%TO.P,U5,39,RM_IO17*%
%TO.N,/UART_RX*%
X19420000Y-8770000D03*
%TD*%
D13*
%TO.P,J5,1,VIN*%
%TO.N,+24V_fuse*%
X-23460000Y-22000000D03*
%TO.P,J5,2,GND*%
%TO.N,GND_BUS*%
X-26000000Y-22000000D03*
%TO.P,J5,3,+VO*%
%TO.N,+3.3V_CPU*%
X-28540000Y-22000000D03*
%TD*%
D14*
%TO.P,J11,1,Pin_1*%
%TO.N,/UART_RX*%
X-6000000Y-28000000D03*
D15*
%TO.P,J11,2,Pin_2*%
%TO.N,/UART_RTS*%
X-8000000Y-28000000D03*
%TO.P,J11,3,Pin_3*%
%TO.N,/UART_TX*%
X-10000000Y-28000000D03*
%TD*%
D13*
%TO.P,J4,1,VIN*%
%TO.N,+24V_fuse*%
X-23460000Y-11235000D03*
%TO.P,J4,2,GND*%
%TO.N,GND_BUS*%
X-26000000Y-11235000D03*
%TO.P,J4,3,+VO*%
%TO.N,+5V_CPU*%
X-28540000Y-11235000D03*
%TD*%
D16*
%TO.P,U2,1*%
%TO.N,GND_BUS*%
X-37000000Y20000000D03*
%TD*%
D17*
%TO.P,J3,1,Pin_1*%
%TO.N,+24V_BUS*%
X-29000000Y-37000000D03*
%TO.P,J3,2,Pin_3*%
%TO.N,GND_BUS*%
X-25500000Y-37000000D03*
%TO.P,J3,3,3*%
%TO.N,/A*%
X-22000000Y-37000000D03*
%TO.P,J3,4,4*%
%TO.N,/B*%
X-18500000Y-37000000D03*
%TO.P,J3,5,Pin_9*%
%TO.N,PE*%
X-15000000Y-37000000D03*
%TO.P,J3,6,Pin_2*%
%TO.N,+24V_BUS*%
X-29000000Y-39500000D03*
%TO.P,J3,7,Pin_4*%
%TO.N,GND_BUS*%
X-25500000Y-39500000D03*
%TO.P,J3,8,Pin_6*%
%TO.N,/A*%
X-22000000Y-39500000D03*
%TO.P,J3,9,Pin_8*%
%TO.N,/B*%
X-18500000Y-39500000D03*
%TO.P,J3,10,Pin_10*%
%TO.N,PE*%
X-15000000Y-39500000D03*
%TD*%
D18*
%TO.P,U1,1,1*%
%TO.N,+24V_BUS*%
X-35500000Y-30000000D03*
%TO.P,U1,2,2*%
%TO.N,+24V_fuse*%
X-20500000Y-30000000D03*
%TD*%
D19*
%TO.P,J9,1,Pin_1*%
%TO.N,GND_BUS*%
X-33556000Y35499992D03*
%TO.P,J9,2,Pin_2*%
%TO.N,+5V_CPU*%
X-33556000Y34499994D03*
%TO.P,J9,3,Pin_3*%
%TO.N,+3.3V_CPU*%
X-33556000Y33499996D03*
%TO.P,J9,4,Pin_4*%
%TO.N,/SPI_MOSI*%
X-33556000Y32499998D03*
%TO.P,J9,5,Pin_5*%
%TO.N,/SPI_MISO*%
X-33556000Y31500000D03*
%TO.P,J9,6,Pin_6*%
%TO.N,/SPI_SCK*%
X-33556000Y30500000D03*
%TO.P,J9,7,Pin_7*%
%TO.N,/SPI_CS0*%
X-33556000Y29500000D03*
%TO.P,J9,8,Pin_8*%
%TO.N,/SPI_CS1*%
X-33556000Y28500000D03*
%TO.P,J9,9,Pin_9*%
%TO.N,/SPI_CS2*%
X-33556000Y27500002D03*
%TO.P,J9,10,Pin_10*%
%TO.N,/SPI_CS3*%
X-33556000Y26500004D03*
%TO.P,J9,11,Pin_11*%
%TO.N,Net-(J2-Pin_2)*%
X-33556000Y25500006D03*
%TO.P,J9,12,Pin_11*%
%TO.N,GND_BUS*%
X-33556000Y24500008D03*
D20*
%TO.P,J9,13,Pin_11*%
X-31385999Y37850003D03*
X-31385999Y22149997D03*
%TD*%
D19*
%TO.P,J8,1,Pin_1*%
%TO.N,GND_BUS*%
X-33556000Y15499992D03*
%TO.P,J8,2,Pin_2*%
%TO.N,+5V_CPU*%
X-33556000Y14499994D03*
%TO.P,J8,3,Pin_3*%
%TO.N,+3.3V_CPU*%
X-33556000Y13499996D03*
%TO.P,J8,4,Pin_4*%
%TO.N,Net-(J12-Pin_9)*%
X-33556000Y12499998D03*
%TO.P,J8,5,Pin_5*%
%TO.N,Net-(J12-Pin_8)*%
X-33556000Y11500000D03*
%TO.P,J8,6,Pin_6*%
%TO.N,Net-(J12-Pin_7)*%
X-33556000Y10500000D03*
%TO.P,J8,7,Pin_7*%
%TO.N,Net-(J12-Pin_6)*%
X-33556000Y9500000D03*
%TO.P,J8,8,Pin_8*%
%TO.N,Net-(J12-Pin_5)*%
X-33556000Y8500000D03*
%TO.P,J8,9,Pin_9*%
%TO.N,/I2C0_SDA*%
X-33556000Y7500002D03*
%TO.P,J8,10,Pin_10*%
%TO.N,/I2C0_SCL*%
X-33556000Y6500004D03*
%TO.P,J8,11,Pin_11*%
%TO.N,Net-(J12-Pin_2)*%
X-33556000Y5500006D03*
%TO.P,J8,12,Pin_11*%
%TO.N,GND_BUS*%
X-33556000Y4500008D03*
D20*
%TO.P,J8,13,Pin_11*%
X-31385999Y17850003D03*
X-31385999Y2149997D03*
%TD*%
D21*
%TO.N,/I2C0_SDA*%
X-32000000Y7500000D03*
%TO.N,/I2C0_SCL*%
X-32000000Y6500000D03*
%TO.N,+24V_fuse*%
X-21500000Y14500000D03*
X-23500000Y12500000D03*
%TO.N,+3.3V_CPU*%
X-6500000Y-20000000D03*
D22*
X-35500000Y13500000D03*
D21*
X-35500000Y33500000D03*
D22*
X-215000Y-27215000D03*
D21*
%TO.N,GND_BUS*%
X-29000000Y3000000D03*
X-34000000Y17000000D03*
X-34000000Y1000000D03*
X2500000Y-20500000D03*
X-12000000Y-46355000D03*
X-29000000Y17000000D03*
X-33000000Y40000000D03*
X2000000Y-21000000D03*
X1500000Y-21500000D03*
X-30000000Y0D03*
X-34000000Y23000000D03*
X-34000000Y3000000D03*
X-29000000Y21000000D03*
X-29000000Y1000000D03*
X-34000000Y19000000D03*
X-29000000Y23000000D03*
X-34000000Y37000000D03*
X2500000Y-21500000D03*
X-30000000Y20000000D03*
X-12000000Y-42500000D03*
X-29000000Y19000000D03*
X-33000000Y20000000D03*
X-34000000Y21000000D03*
X-33000000Y0D03*
X-29000000Y37000000D03*
X1500000Y-20500000D03*
X-34000000Y39000000D03*
X-29000000Y39000000D03*
X-30000000Y40000000D03*
D23*
%TO.N,+5V_CPU*%
X-36000000Y14500000D03*
X-39000000Y35500000D03*
X-39000000Y34500000D03*
D21*
%TO.N,/SPI_MISO*%
X-32000000Y31500000D03*
%TO.N,/SPI_CS2*%
X-32000000Y27500000D03*
%TO.N,/SPI_SCK*%
X-32000000Y30500000D03*
%TO.N,/SPI_CS0*%
X-32000000Y29500000D03*
%TO.N,/SPI_CS1*%
X-32000000Y28500000D03*
%TO.N,/SPI_CS3*%
X-32000000Y26500000D03*
%TO.N,/SPI_MOSI*%
X-32000000Y32500000D03*
%TO.N,Net-(J2-Pin_2)*%
X-32000000Y25500000D03*
%TO.N,Net-(J12-Pin_5)*%
X-32000000Y8500000D03*
%TO.N,Net-(J12-Pin_2)*%
X-32000000Y5500000D03*
%TO.N,Net-(J12-Pin_9)*%
X-32000000Y12500000D03*
%TO.N,Net-(J12-Pin_7)*%
X-32000000Y10500000D03*
%TO.N,Net-(J12-Pin_6)*%
X-32000000Y9500000D03*
%TO.N,Net-(J12-Pin_8)*%
X-32000000Y11500000D03*
%TD*%
D24*
%TO.N,GND_BUS*%
X-12000000Y-42500000D02*
X-12000000Y-46355000D01*
D25*
%TO.N,/I2C0_SDA*%
X-21500000Y2500000D02*
X530000Y2500000D01*
X530000Y2500000D02*
X9260000Y-6230000D01*
X-26500002Y7500002D02*
X-21500000Y2500000D01*
X-33556000Y7500002D02*
X-26500002Y7500002D01*
%TO.N,/I2C0_SCL*%
X-1510000Y2000000D02*
X6720000Y-6230000D01*
X-21999996Y2000000D02*
X-1510000Y2000000D01*
X-33556000Y6500004D02*
X-26500000Y6500004D01*
X-26500000Y6500004D02*
X-21999996Y2000000D01*
%TO.N,+24V_fuse*%
X-23500000Y12500000D02*
X-21500000Y14500000D01*
%TO.N,/UART_RTS*%
X11230000Y-8770000D02*
X-8000000Y-28000000D01*
X11800000Y-8770000D02*
X11230000Y-8770000D01*
D26*
%TO.N,+3.3V_CPU*%
X-38999000Y13500000D02*
X-38999000Y-11541000D01*
D27*
X-36000000Y33499996D02*
X-38498004Y33499996D01*
X-13500000Y-32000000D02*
X-22000000Y-32000000D01*
X-33556000Y33499996D02*
X-36000000Y33499996D01*
X-1500000Y-28000000D02*
X-5500000Y-32000000D01*
X-38498004Y33499996D02*
X-38999000Y32999000D01*
D25*
X-13500000Y-27000000D02*
X-13500000Y-32000000D01*
D27*
X-1000000Y-28000000D02*
X-1500000Y-28000000D01*
X-33556000Y13499996D02*
X-38998996Y13499996D01*
D26*
X-38999000Y32999000D02*
X-38999000Y13500000D01*
D27*
X-215000Y-27215000D02*
X-1000000Y-28000000D01*
X-38998996Y13499996D02*
X-38999000Y13500000D01*
D26*
X-38999000Y-11541000D02*
X-28540000Y-22000000D01*
D27*
X-22000000Y-32000000D02*
X-28540000Y-25460000D01*
X-28540000Y-25460000D02*
X-28540000Y-22000000D01*
X-5500000Y-32000000D02*
X-13500000Y-32000000D01*
D25*
X-6500000Y-20000000D02*
X-13500000Y-27000000D01*
%TO.N,GND_BUS*%
X5381000Y37431000D02*
X6720000Y38770000D01*
X2841000Y37431000D02*
X5381000Y37431000D01*
X10599000Y37431000D02*
X8059000Y37431000D01*
X11800000Y36230000D02*
X10599000Y37431000D01*
X20759000Y37569000D02*
X25839000Y37569000D01*
X1640000Y36230000D02*
X2841000Y37431000D01*
X25839000Y37569000D02*
X27040000Y38770000D01*
X13001000Y37431000D02*
X11800000Y36230000D01*
X18219000Y37431000D02*
X13001000Y37431000D01*
X8059000Y37431000D02*
X6720000Y38770000D01*
X19420000Y36230000D02*
X20759000Y37569000D01*
X19420000Y36230000D02*
X18219000Y37431000D01*
D26*
%TO.N,+5V_CPU*%
X-39000000Y35500000D02*
X-39000000Y34500000D01*
D27*
X-33556009Y34500000D02*
X-33556000Y34499991D01*
X-33556006Y34500000D02*
X-33556000Y34499994D01*
X-33556006Y14500000D02*
X-33556000Y14499994D01*
X-36000000Y34500000D02*
X-33556006Y34500000D01*
X-35000000Y14499994D02*
X-33556000Y14499994D01*
X-36000006Y14499994D02*
X-35000000Y14499994D01*
X-39000000Y34500000D02*
X-36000000Y34500000D01*
D24*
%TO.N,/SPI_MISO*%
X-33556003Y31500000D02*
X-33556000Y31499997D01*
D25*
X17980000Y42750000D02*
X21960000Y38770000D01*
X-26500000Y31500000D02*
X-15250000Y42750000D01*
X-15250000Y42750000D02*
X17980000Y42750000D01*
X-33556000Y31500000D02*
X-26500000Y31500000D01*
%TO.N,/SPI_CS2*%
X7280000Y40750000D02*
X9260000Y38770000D01*
X-26499998Y27500002D02*
X-13250000Y40750000D01*
X-33556000Y27500002D02*
X-26499998Y27500002D01*
X-13250000Y40750000D02*
X7280000Y40750000D01*
D24*
%TO.N,/SPI_SCK*%
X-33556001Y30500000D02*
X-33556000Y30499999D01*
D25*
X15940000Y42250000D02*
X19420000Y38770000D01*
X-26500000Y30500000D02*
X-14750000Y42250000D01*
X-14750000Y42250000D02*
X15940000Y42250000D01*
X-33556000Y30500000D02*
X-26500000Y30500000D01*
%TO.N,/SPI_CS0*%
X11360000Y41750000D02*
X14340000Y38770000D01*
X-14250000Y41750000D02*
X11360000Y41750000D01*
X-33556000Y29500000D02*
X-26500000Y29500000D01*
X-26500000Y29500000D02*
X-14250000Y41750000D01*
D24*
X-33556001Y29500000D02*
X-33556000Y29500001D01*
D25*
%TO.N,/SPI_CS1*%
X9320000Y41250000D02*
X11800000Y38770000D01*
X-26500000Y28500000D02*
X-13750000Y41250000D01*
X-31000000Y28500000D02*
X-26500000Y28500000D01*
X-33556000Y28500000D02*
X-31000000Y28500000D01*
X-13750000Y41250000D02*
X9320000Y41250000D01*
D24*
%TO.N,/SPI_CS3*%
X-33556007Y26500000D02*
X-33556000Y26500007D01*
D25*
X-12750000Y40250000D02*
X2700000Y40250000D01*
X-26499996Y26500004D02*
X-12750000Y40250000D01*
X-33556000Y26500004D02*
X-26499996Y26500004D01*
X2700000Y40250000D02*
X4180000Y38770000D01*
%TO.N,/SPI_MOSI*%
X-26500002Y32499998D02*
X-15750000Y43250000D01*
X20020000Y43250000D02*
X24500000Y38770000D01*
X-15750000Y43250000D02*
X20020000Y43250000D01*
X-33556000Y32499998D02*
X-26500002Y32499998D01*
D24*
%TO.N,Net-(J2-Pin_2)*%
X-33556000Y25500006D02*
X-33556006Y25500000D01*
D27*
X-33555994Y25500000D02*
X-33556000Y25500006D01*
X-32000000Y25500000D02*
X-33555994Y25500000D01*
%TO.N,Net-(J12-Pin_5)*%
X-32000000Y8500000D02*
X-33556000Y8500000D01*
%TO.N,Net-(J12-Pin_2)*%
X-33555994Y5500000D02*
X-33556000Y5500006D01*
X-32000000Y5500000D02*
X-33555994Y5500000D01*
%TO.N,Net-(J12-Pin_9)*%
X-33556000Y12499998D02*
X-32000002Y12499998D01*
X-32000002Y12499998D02*
X-32000000Y12500000D01*
%TO.N,Net-(J12-Pin_7)*%
X-32000000Y10500000D02*
X-33556000Y10500000D01*
%TO.N,Net-(J12-Pin_6)*%
X-32000000Y9500000D02*
X-33556000Y9500000D01*
%TO.N,Net-(J12-Pin_8)*%
X-32000000Y11500000D02*
X-33556000Y11500000D01*
%TD*%
%TA.AperFunction,Conductor*%
%TO.N,PE*%
G36*
X-29802824Y-35519685D02*
G01*
X-29757069Y-35572489D01*
X-29747125Y-35641647D01*
X-29776150Y-35705203D01*
X-29796976Y-35724316D01*
X-29977510Y-35855483D01*
X-29977512Y-35855485D01*
X-29977513Y-35855485D01*
X-30144515Y-36022487D01*
X-30144515Y-36022488D01*
X-30144517Y-36022490D01*
X-30204138Y-36104550D01*
X-30283343Y-36213566D01*
X-30390567Y-36424003D01*
X-30463554Y-36648631D01*
X-30500500Y-36881902D01*
X-30500500Y-37118097D01*
X-30463554Y-37351368D01*
X-30390567Y-37575996D01*
X-30283343Y-37786433D01*
X-30144517Y-37977510D01*
X-30144515Y-37977512D01*
X-29977510Y-38144517D01*
X-29970397Y-38149685D01*
X-29927734Y-38205017D01*
X-29921758Y-38274630D01*
X-29954366Y-38336424D01*
X-29970397Y-38350315D01*
X-29977510Y-38355482D01*
X-30144515Y-38522487D01*
X-30144515Y-38522488D01*
X-30144517Y-38522490D01*
X-30204138Y-38604550D01*
X-30283343Y-38713566D01*
X-30390567Y-38924003D01*
X-30463554Y-39148631D01*
X-30500500Y-39381902D01*
X-30500500Y-39618097D01*
X-30463554Y-39851368D01*
X-30390567Y-40075996D01*
X-30283343Y-40286433D01*
X-30144517Y-40477510D01*
X-29977510Y-40644517D01*
X-29786433Y-40783343D01*
X-29687009Y-40834002D01*
X-29575997Y-40890566D01*
X-29575995Y-40890566D01*
X-29575992Y-40890568D01*
X-29455588Y-40929689D01*
X-29351369Y-40963553D01*
X-29118097Y-41000500D01*
X-29118092Y-41000500D01*
X-28881903Y-41000500D01*
X-28648632Y-40963553D01*
X-28424008Y-40890568D01*
X-28213567Y-40783343D01*
X-28022490Y-40644517D01*
X-27855483Y-40477510D01*
X-27716657Y-40286433D01*
X-27609432Y-40075992D01*
X-27536447Y-39851368D01*
X-27499500Y-39618097D01*
X-27499500Y-39381902D01*
X-27536447Y-39148631D01*
X-27609434Y-38924003D01*
X-27716658Y-38713566D01*
X-27855483Y-38522490D01*
X-28022490Y-38355483D01*
X-28029599Y-38350318D01*
X-28072265Y-38294988D01*
X-28078244Y-38225375D01*
X-28045638Y-38163580D01*
X-28029599Y-38149682D01*
X-28029500Y-38149609D01*
X-28022490Y-38144517D01*
X-27855483Y-37977510D01*
X-27716657Y-37786433D01*
X-27609432Y-37575992D01*
X-27536447Y-37351368D01*
X-27499500Y-37118097D01*
X-27499500Y-36881902D01*
X-27536447Y-36648631D01*
X-27609434Y-36424003D01*
X-27716658Y-36213566D01*
X-27855483Y-36022490D01*
X-28022490Y-35855483D01*
X-28203024Y-35724317D01*
X-28245688Y-35668988D01*
X-28251667Y-35599374D01*
X-28219061Y-35537579D01*
X-28158222Y-35503222D01*
X-28130137Y-35500000D01*
X-26369863Y-35500000D01*
X-26302824Y-35519685D01*
X-26257069Y-35572489D01*
X-26247125Y-35641647D01*
X-26276150Y-35705203D01*
X-26296976Y-35724316D01*
X-26477510Y-35855483D01*
X-26477512Y-35855485D01*
X-26477513Y-35855485D01*
X-26644515Y-36022487D01*
X-26644515Y-36022488D01*
X-26644517Y-36022490D01*
X-26704138Y-36104550D01*
X-26783343Y-36213566D01*
X-26890567Y-36424003D01*
X-26963554Y-36648631D01*
X-27000500Y-36881902D01*
X-27000500Y-37118097D01*
X-26963554Y-37351368D01*
X-26890567Y-37575996D01*
X-26783343Y-37786433D01*
X-26644517Y-37977510D01*
X-26644515Y-37977512D01*
X-26477510Y-38144517D01*
X-26470397Y-38149685D01*
X-26427734Y-38205017D01*
X-26421758Y-38274630D01*
X-26454366Y-38336424D01*
X-26470397Y-38350315D01*
X-26477510Y-38355482D01*
X-26644515Y-38522487D01*
X-26644515Y-38522488D01*
X-26644517Y-38522490D01*
X-26704138Y-38604550D01*
X-26783343Y-38713566D01*
X-26890567Y-38924003D01*
X-26963554Y-39148631D01*
X-27000500Y-39381902D01*
X-27000500Y-39618097D01*
X-26963554Y-39851368D01*
X-26890567Y-40075996D01*
X-26783343Y-40286433D01*
X-26644517Y-40477510D01*
X-26477510Y-40644517D01*
X-26286433Y-40783343D01*
X-26187009Y-40834002D01*
X-26075997Y-40890566D01*
X-26075995Y-40890566D01*
X-26075992Y-40890568D01*
X-25955588Y-40929689D01*
X-25851369Y-40963553D01*
X-25618097Y-41000500D01*
X-25618092Y-41000500D01*
X-25381903Y-41000500D01*
X-25148632Y-40963553D01*
X-24924008Y-40890568D01*
X-24713567Y-40783343D01*
X-24522490Y-40644517D01*
X-24355483Y-40477510D01*
X-24216657Y-40286433D01*
X-24109432Y-40075992D01*
X-24036447Y-39851368D01*
X-23999500Y-39618097D01*
X-23999500Y-39381902D01*
X-24036447Y-39148631D01*
X-24109434Y-38924003D01*
X-24216658Y-38713566D01*
X-24355483Y-38522490D01*
X-24522490Y-38355483D01*
X-24529599Y-38350318D01*
X-24572265Y-38294988D01*
X-24578244Y-38225375D01*
X-24545638Y-38163580D01*
X-24529599Y-38149682D01*
X-24529500Y-38149609D01*
X-24522490Y-38144517D01*
X-24355483Y-37977510D01*
X-24216657Y-37786433D01*
X-24109432Y-37575992D01*
X-24036447Y-37351368D01*
X-23999500Y-37118097D01*
X-23999500Y-36881902D01*
X-24036447Y-36648631D01*
X-24109434Y-36424003D01*
X-24216658Y-36213566D01*
X-24355483Y-36022490D01*
X-24522490Y-35855483D01*
X-24703024Y-35724317D01*
X-24745688Y-35668988D01*
X-24751667Y-35599374D01*
X-24719061Y-35537579D01*
X-24658222Y-35503222D01*
X-24630137Y-35500000D01*
X-22869863Y-35500000D01*
X-22802824Y-35519685D01*
X-22757069Y-35572489D01*
X-22747125Y-35641647D01*
X-22776150Y-35705203D01*
X-22796976Y-35724316D01*
X-22977510Y-35855483D01*
X-22977512Y-35855485D01*
X-22977513Y-35855485D01*
X-23144515Y-36022487D01*
X-23144515Y-36022488D01*
X-23144517Y-36022490D01*
X-23204138Y-36104550D01*
X-23283343Y-36213566D01*
X-23390567Y-36424003D01*
X-23463554Y-36648631D01*
X-23500500Y-36881902D01*
X-23500500Y-37118097D01*
X-23463554Y-37351368D01*
X-23390567Y-37575996D01*
X-23283343Y-37786433D01*
X-23144517Y-37977510D01*
X-23144515Y-37977512D01*
X-22977510Y-38144517D01*
X-22970397Y-38149685D01*
X-22927734Y-38205017D01*
X-22921758Y-38274630D01*
X-22954366Y-38336424D01*
X-22970397Y-38350315D01*
X-22977510Y-38355482D01*
X-23144515Y-38522487D01*
X-23144515Y-38522488D01*
X-23144517Y-38522490D01*
X-23204138Y-38604550D01*
X-23283343Y-38713566D01*
X-23390567Y-38924003D01*
X-23463554Y-39148631D01*
X-23500500Y-39381902D01*
X-23500500Y-39618097D01*
X-23463554Y-39851368D01*
X-23390567Y-40075996D01*
X-23283343Y-40286433D01*
X-23144517Y-40477510D01*
X-22977510Y-40644517D01*
X-22786433Y-40783343D01*
X-22687009Y-40834002D01*
X-22575997Y-40890566D01*
X-22575995Y-40890566D01*
X-22575992Y-40890568D01*
X-22455588Y-40929689D01*
X-22351369Y-40963553D01*
X-22118097Y-41000500D01*
X-22118092Y-41000500D01*
X-21881903Y-41000500D01*
X-21648632Y-40963553D01*
X-21424008Y-40890568D01*
X-21213567Y-40783343D01*
X-21022490Y-40644517D01*
X-20855483Y-40477510D01*
X-20716657Y-40286433D01*
X-20609432Y-40075992D01*
X-20536447Y-39851368D01*
X-20499500Y-39618097D01*
X-20499500Y-39381902D01*
X-20536447Y-39148631D01*
X-20609434Y-38924003D01*
X-20716658Y-38713566D01*
X-20855483Y-38522490D01*
X-21022490Y-38355483D01*
X-21029599Y-38350318D01*
X-21072265Y-38294988D01*
X-21078244Y-38225375D01*
X-21045638Y-38163580D01*
X-21029599Y-38149682D01*
X-21029500Y-38149609D01*
X-21022490Y-38144517D01*
X-20855483Y-37977510D01*
X-20716657Y-37786433D01*
X-20609432Y-37575992D01*
X-20536447Y-37351368D01*
X-20499500Y-37118097D01*
X-20499500Y-36881902D01*
X-20536447Y-36648631D01*
X-20609434Y-36424003D01*
X-20716658Y-36213566D01*
X-20855483Y-36022490D01*
X-21022490Y-35855483D01*
X-21203024Y-35724317D01*
X-21245688Y-35668988D01*
X-21251667Y-35599374D01*
X-21219061Y-35537579D01*
X-21158222Y-35503222D01*
X-21130137Y-35500000D01*
X-19369863Y-35500000D01*
X-19302824Y-35519685D01*
X-19257069Y-35572489D01*
X-19247125Y-35641647D01*
X-19276150Y-35705203D01*
X-19296976Y-35724316D01*
X-19477510Y-35855483D01*
X-19477512Y-35855485D01*
X-19477513Y-35855485D01*
X-19644515Y-36022487D01*
X-19644515Y-36022488D01*
X-19644517Y-36022490D01*
X-19704138Y-36104550D01*
X-19783343Y-36213566D01*
X-19890567Y-36424003D01*
X-19963554Y-36648631D01*
X-20000500Y-36881902D01*
X-20000500Y-37118097D01*
X-19963554Y-37351368D01*
X-19890567Y-37575996D01*
X-19783343Y-37786433D01*
X-19644517Y-37977510D01*
X-19644515Y-37977512D01*
X-19477510Y-38144517D01*
X-19470397Y-38149685D01*
X-19427734Y-38205017D01*
X-19421758Y-38274630D01*
X-19454366Y-38336424D01*
X-19470397Y-38350315D01*
X-19477510Y-38355482D01*
X-19644515Y-38522487D01*
X-19644515Y-38522488D01*
X-19644517Y-38522490D01*
X-19704138Y-38604550D01*
X-19783343Y-38713566D01*
X-19890567Y-38924003D01*
X-19963554Y-39148631D01*
X-20000500Y-39381902D01*
X-20000500Y-39618097D01*
X-19963554Y-39851368D01*
X-19890567Y-40075996D01*
X-19783343Y-40286433D01*
X-19644517Y-40477510D01*
X-19477510Y-40644517D01*
X-19286433Y-40783343D01*
X-19187009Y-40834002D01*
X-19075997Y-40890566D01*
X-19075995Y-40890566D01*
X-19075992Y-40890568D01*
X-18955588Y-40929689D01*
X-18851369Y-40963553D01*
X-18618097Y-41000500D01*
X-18618092Y-41000500D01*
X-18381903Y-41000500D01*
X-18148632Y-40963553D01*
X-17924008Y-40890568D01*
X-17713567Y-40783343D01*
X-17522490Y-40644517D01*
X-17355483Y-40477510D01*
X-17216657Y-40286433D01*
X-17109432Y-40075992D01*
X-17036447Y-39851368D01*
X-16999500Y-39618097D01*
X-16999500Y-39381902D01*
X-17036447Y-39148631D01*
X-17109434Y-38924003D01*
X-17216658Y-38713566D01*
X-17355483Y-38522490D01*
X-17522490Y-38355483D01*
X-17529599Y-38350318D01*
X-17572265Y-38294988D01*
X-17578244Y-38225375D01*
X-17545638Y-38163580D01*
X-17529599Y-38149682D01*
X-17529500Y-38149609D01*
X-17522490Y-38144517D01*
X-17355483Y-37977510D01*
X-17216657Y-37786433D01*
X-17109432Y-37575992D01*
X-17036447Y-37351368D01*
X-16999500Y-37118097D01*
X-16999500Y-36881902D01*
X-17036447Y-36648631D01*
X-17109434Y-36424003D01*
X-17216658Y-36213566D01*
X-17355483Y-36022490D01*
X-17522490Y-35855483D01*
X-17703024Y-35724317D01*
X-17745688Y-35668988D01*
X-17751667Y-35599374D01*
X-17719061Y-35537579D01*
X-17658222Y-35503222D01*
X-17630137Y-35500000D01*
X-124000Y-35500000D01*
X-56961Y-35519685D01*
X-11206Y-35572489D01*
X0Y-35624000D01*
X0Y-42000000D01*
X39375500Y-42000000D01*
X39442539Y-42019685D01*
X39488294Y-42072489D01*
X39499500Y-42124000D01*
X39499500Y-44996249D01*
X39499274Y-45003736D01*
X39481728Y-45293794D01*
X39479923Y-45308659D01*
X39428219Y-45590798D01*
X39424635Y-45605336D01*
X39339306Y-45879167D01*
X39333997Y-45893168D01*
X39216275Y-46154736D01*
X39209316Y-46167995D01*
X39060928Y-46413459D01*
X39052422Y-46425782D01*
X38875526Y-46651573D01*
X38865596Y-46662781D01*
X38662781Y-46865596D01*
X38651573Y-46875526D01*
X38425782Y-47052422D01*
X38413459Y-47060928D01*
X38167995Y-47209316D01*
X38154736Y-47216275D01*
X37893168Y-47333997D01*
X37879167Y-47339306D01*
X37605336Y-47424635D01*
X37590798Y-47428219D01*
X37308659Y-47479923D01*
X37293794Y-47481728D01*
X37003736Y-47499274D01*
X36996249Y-47499500D01*
X27892682Y-47499500D01*
X27680235Y-47530044D01*
X27680225Y-47530047D01*
X27474284Y-47590517D01*
X27279061Y-47679672D01*
X27279048Y-47679679D01*
X27098485Y-47795720D01*
X26936275Y-47936275D01*
X26795720Y-48098485D01*
X26679679Y-48279048D01*
X26679672Y-48279061D01*
X26590517Y-48474284D01*
X26530047Y-48680225D01*
X26530044Y-48680235D01*
X26499500Y-48892682D01*
X26499500Y-48993038D01*
X26498720Y-49006922D01*
X26498720Y-49006923D01*
X26488540Y-49097264D01*
X26482362Y-49124333D01*
X26454648Y-49203537D01*
X26442600Y-49228555D01*
X26397957Y-49299604D01*
X26380644Y-49321313D01*
X26321313Y-49380644D01*
X26299604Y-49397957D01*
X26228555Y-49442600D01*
X26203537Y-49454648D01*
X26124333Y-49482362D01*
X26097264Y-49488540D01*
X26017075Y-49497576D01*
X26006921Y-49498720D01*
X25993038Y-49499500D01*
X18006962Y-49499500D01*
X17993078Y-49498720D01*
X17980553Y-49497308D01*
X17902735Y-49488540D01*
X17875666Y-49482362D01*
X17796462Y-49454648D01*
X17771444Y-49442600D01*
X17700395Y-49397957D01*
X17678686Y-49380644D01*
X17619355Y-49321313D01*
X17602042Y-49299604D01*
X17557399Y-49228555D01*
X17545351Y-49203537D01*
X17543861Y-49199280D01*
X17517636Y-49124331D01*
X17511459Y-49097263D01*
X17501280Y-49006922D01*
X17500500Y-48993038D01*
X17500500Y-48892683D01*
X17500500Y-48892682D01*
X17469954Y-48680231D01*
X17409484Y-48474290D01*
X17409483Y-48474288D01*
X17409482Y-48474284D01*
X17320327Y-48279061D01*
X17320320Y-48279048D01*
X17249102Y-48168231D01*
X17204281Y-48098487D01*
X17124227Y-48006100D01*
X17063724Y-47936275D01*
X16901514Y-47795720D01*
X16901513Y-47795719D01*
X16820979Y-47743963D01*
X16720951Y-47679679D01*
X16720938Y-47679672D01*
X16525715Y-47590517D01*
X16319774Y-47530047D01*
X16319764Y-47530044D01*
X16128754Y-47502582D01*
X16107318Y-47499500D01*
X16065892Y-47499500D01*
X-32601792Y-47499500D01*
X-32729088Y-47533608D01*
X-32843214Y-47599500D01*
X-32936400Y-47692685D01*
X-32967736Y-47746958D01*
X-32971126Y-47752489D01*
X-33165305Y-48051501D01*
X-33172934Y-48062002D01*
X-33395280Y-48336575D01*
X-33403965Y-48346220D01*
X-33653780Y-48596036D01*
X-33663425Y-48604721D01*
X-33937998Y-48827066D01*
X-33948499Y-48834695D01*
X-34244797Y-49027113D01*
X-34256037Y-49033603D01*
X-34570837Y-49194001D01*
X-34582694Y-49199280D01*
X-34912528Y-49325891D01*
X-34924872Y-49329902D01*
X-35266142Y-49421346D01*
X-35278839Y-49424044D01*
X-35627783Y-49479310D01*
X-35640690Y-49480667D01*
X-35993510Y-49499158D01*
X-36006490Y-49499158D01*
X-36359311Y-49480667D01*
X-36372218Y-49479310D01*
X-36721162Y-49424044D01*
X-36733859Y-49421346D01*
X-37075130Y-49329902D01*
X-37087474Y-49325891D01*
X-37417308Y-49199280D01*
X-37429165Y-49194001D01*
X-37559663Y-49127509D01*
X-37743971Y-49033599D01*
X-37755190Y-49027122D01*
X-38051508Y-48834691D01*
X-38062002Y-48827066D01*
X-38336576Y-48604721D01*
X-38346221Y-48596036D01*
X-38596037Y-48346220D01*
X-38604722Y-48336575D01*
X-38741044Y-48168231D01*
X-38827074Y-48061992D01*
X-38834689Y-48051511D01*
X-39027121Y-47755190D01*
X-39033597Y-47743976D01*
X-39194007Y-47429153D01*
X-39199276Y-47417317D01*
X-39325894Y-47087468D01*
X-39329903Y-47075129D01*
X-39332779Y-47064397D01*
X-39421349Y-46733852D01*
X-39424045Y-46721161D01*
X-39431098Y-46676632D01*
X-39469550Y-46433846D01*
X-39479311Y-46372217D01*
X-39480668Y-46359310D01*
X-39499330Y-46003222D01*
X-39499500Y-45996732D01*
X-39499500Y-45862332D01*
X-38100500Y-45862332D01*
X-38100500Y-46137667D01*
X-38100499Y-46137684D01*
X-38064562Y-46410655D01*
X-38064561Y-46410660D01*
X-38064560Y-46410666D01*
X-38041035Y-46498462D01*
X-37993296Y-46676630D01*
X-37887925Y-46931017D01*
X-37887920Y-46931028D01*
X-37817832Y-47052422D01*
X-37750249Y-47169479D01*
X-37750247Y-47169482D01*
X-37750246Y-47169483D01*
X-37582630Y-47387926D01*
X-37582624Y-47387933D01*
X-37387934Y-47582623D01*
X-37387928Y-47582628D01*
X-37169479Y-47750249D01*
X-37057294Y-47815019D01*
X-36931029Y-47887919D01*
X-36931024Y-47887921D01*
X-36931021Y-47887923D01*
X-36676632Y-47993295D01*
X-36410666Y-48064560D01*
X-36137674Y-48100500D01*
X-36137667Y-48100500D01*
X-35862333Y-48100500D01*
X-35862326Y-48100500D01*
X-35589334Y-48064560D01*
X-35323368Y-47993295D01*
X-35068979Y-47887923D01*
X-34830521Y-47750249D01*
X-34612072Y-47582628D01*
X-34417372Y-47387928D01*
X-34249751Y-47169479D01*
X-34112077Y-46931021D01*
X-34006705Y-46676632D01*
X-33935440Y-46410666D01*
X-33899500Y-46137674D01*
X-33899500Y-45862326D01*
X-33935440Y-45589334D01*
X-34006705Y-45323368D01*
X-34112077Y-45068979D01*
X-34112079Y-45068976D01*
X-34112081Y-45068971D01*
X-34189945Y-44934108D01*
X-34249751Y-44830521D01*
X-34417372Y-44612072D01*
X-34417377Y-44612066D01*
X-34612067Y-44417376D01*
X-34612074Y-44417370D01*
X-34830517Y-44249754D01*
X-34830518Y-44249753D01*
X-34830521Y-44249751D01*
X-34925593Y-44194861D01*
X-35068972Y-44112080D01*
X-35068983Y-44112075D01*
X-35323370Y-44006704D01*
X-35456351Y-43971072D01*
X-35589334Y-43935440D01*
X-35589340Y-43935439D01*
X-35589345Y-43935438D01*
X-35862316Y-43899501D01*
X-35862321Y-43899500D01*
X-35862326Y-43899500D01*
X-36137674Y-43899500D01*
X-36137680Y-43899500D01*
X-36137685Y-43899501D01*
X-36410656Y-43935438D01*
X-36410663Y-43935439D01*
X-36410666Y-43935440D01*
X-36466875Y-43950500D01*
X-36676631Y-44006704D01*
X-36931018Y-44112075D01*
X-36931029Y-44112080D01*
X-37169484Y-44249754D01*
X-37387927Y-44417370D01*
X-37387934Y-44417376D01*
X-37582624Y-44612066D01*
X-37582630Y-44612073D01*
X-37750246Y-44830516D01*
X-37887920Y-45068971D01*
X-37887925Y-45068982D01*
X-37993296Y-45323369D01*
X-38064559Y-45589331D01*
X-38064562Y-45589344D01*
X-38100499Y-45862315D01*
X-38100500Y-45862332D01*
X-39499500Y-45862332D01*
X-39499500Y-42421153D01*
X-12800500Y-42421153D01*
X-12800500Y-42578846D01*
X-12769739Y-42733489D01*
X-12769736Y-42733501D01*
X-12709398Y-42879172D01*
X-12709391Y-42879185D01*
X-12621398Y-43010874D01*
X-12600520Y-43077551D01*
X-12600500Y-43079765D01*
X-12600500Y-45775234D01*
X-12620185Y-45842273D01*
X-12621398Y-45844125D01*
X-12709391Y-45975814D01*
X-12709398Y-45975827D01*
X-12769736Y-46121498D01*
X-12769739Y-46121510D01*
X-12800500Y-46276153D01*
X-12800500Y-46433846D01*
X-12769739Y-46588489D01*
X-12769736Y-46588501D01*
X-12709398Y-46734172D01*
X-12709391Y-46734185D01*
X-12621790Y-46865288D01*
X-12621787Y-46865292D01*
X-12510293Y-46976786D01*
X-12510289Y-46976789D01*
X-12379186Y-47064390D01*
X-12379173Y-47064397D01*
X-12302607Y-47096111D01*
X-12233497Y-47124737D01*
X-12078847Y-47155499D01*
X-12078844Y-47155500D01*
X-12078842Y-47155500D01*
X-11921156Y-47155500D01*
X-11921155Y-47155499D01*
X-11766503Y-47124737D01*
X-11620821Y-47064394D01*
X-11489711Y-46976789D01*
X-11378211Y-46865289D01*
X-11290606Y-46734179D01*
X-11287875Y-46727587D01*
X-11276933Y-46701166D01*
X-11230263Y-46588497D01*
X-11199500Y-46433842D01*
X-11199500Y-46276158D01*
X-11199500Y-46276155D01*
X-11199501Y-46276153D01*
X-11223653Y-46154736D01*
X-11230263Y-46121503D01*
X-11230265Y-46121498D01*
X-11290603Y-45975827D01*
X-11290610Y-45975814D01*
X-11378602Y-45844125D01*
X-11399480Y-45777447D01*
X-11399500Y-45775234D01*
X-11399500Y-44874038D01*
X13399500Y-44874038D01*
X13399500Y-45125961D01*
X13438910Y-45374785D01*
X13516760Y-45614383D01*
X13631132Y-45838848D01*
X13779201Y-46042649D01*
X13779205Y-46042654D01*
X13957345Y-46220794D01*
X13957350Y-46220798D01*
X14135117Y-46349952D01*
X14161155Y-46368870D01*
X14288670Y-46433842D01*
X14385616Y-46483239D01*
X14385618Y-46483239D01*
X14385621Y-46483241D01*
X14625215Y-46561090D01*
X14874038Y-46600500D01*
X14874039Y-46600500D01*
X15125961Y-46600500D01*
X15125962Y-46600500D01*
X15374785Y-46561090D01*
X15614379Y-46483241D01*
X15838845Y-46368870D01*
X16042656Y-46220793D01*
X16220793Y-46042656D01*
X16368870Y-45838845D01*
X16483241Y-45614379D01*
X16561090Y-45374785D01*
X16600500Y-45125962D01*
X16600500Y-44874038D01*
X27399500Y-44874038D01*
X27399500Y-45125961D01*
X27438910Y-45374785D01*
X27516760Y-45614383D01*
X27631132Y-45838848D01*
X27779201Y-46042649D01*
X27779205Y-46042654D01*
X27957345Y-46220794D01*
X27957350Y-46220798D01*
X28135117Y-46349952D01*
X28161155Y-46368870D01*
X28288670Y-46433842D01*
X28385616Y-46483239D01*
X28385618Y-46483239D01*
X28385621Y-46483241D01*
X28625215Y-46561090D01*
X28874038Y-46600500D01*
X28874039Y-46600500D01*
X29125961Y-46600500D01*
X29125962Y-46600500D01*
X29374785Y-46561090D01*
X29614379Y-46483241D01*
X29838845Y-46368870D01*
X30042656Y-46220793D01*
X30220793Y-46042656D01*
X30368870Y-45838845D01*
X30483241Y-45614379D01*
X30561090Y-45374785D01*
X30600500Y-45125962D01*
X30600500Y-44874038D01*
X30561090Y-44625215D01*
X30483241Y-44385621D01*
X30483239Y-44385618D01*
X30483239Y-44385616D01*
X30414013Y-44249754D01*
X30368870Y-44161155D01*
X30256656Y-44006705D01*
X30220798Y-43957350D01*
X30220794Y-43957345D01*
X30042654Y-43779205D01*
X30042649Y-43779201D01*
X29838848Y-43631132D01*
X29838847Y-43631131D01*
X29838845Y-43631130D01*
X29768747Y-43595413D01*
X29614383Y-43516760D01*
X29374785Y-43438910D01*
X29125962Y-43399500D01*
X28874038Y-43399500D01*
X28749626Y-43419205D01*
X28625214Y-43438910D01*
X28385616Y-43516760D01*
X28161151Y-43631132D01*
X27957350Y-43779201D01*
X27957345Y-43779205D01*
X27779205Y-43957345D01*
X27779201Y-43957350D01*
X27631132Y-44161151D01*
X27516760Y-44385616D01*
X27438910Y-44625214D01*
X27399500Y-44874038D01*
X16600500Y-44874038D01*
X16561090Y-44625215D01*
X16483241Y-44385621D01*
X16483239Y-44385618D01*
X16483239Y-44385616D01*
X16414013Y-44249754D01*
X16368870Y-44161155D01*
X16256656Y-44006705D01*
X16220798Y-43957350D01*
X16220794Y-43957345D01*
X16042654Y-43779205D01*
X16042649Y-43779201D01*
X15838848Y-43631132D01*
X15838847Y-43631131D01*
X15838845Y-43631130D01*
X15768747Y-43595413D01*
X15614383Y-43516760D01*
X15374785Y-43438910D01*
X15125962Y-43399500D01*
X14874038Y-43399500D01*
X14749626Y-43419205D01*
X14625214Y-43438910D01*
X14385616Y-43516760D01*
X14161151Y-43631132D01*
X13957350Y-43779201D01*
X13957345Y-43779205D01*
X13779205Y-43957345D01*
X13779201Y-43957350D01*
X13631132Y-44161151D01*
X13516760Y-44385616D01*
X13438910Y-44625214D01*
X13399500Y-44874038D01*
X-11399500Y-44874038D01*
X-11399500Y-43079765D01*
X-11379815Y-43012726D01*
X-11378602Y-43010874D01*
X-11290610Y-42879185D01*
X-11290610Y-42879184D01*
X-11290606Y-42879179D01*
X-11230263Y-42733497D01*
X-11199500Y-42578842D01*
X-11199500Y-42421158D01*
X-11199500Y-42421155D01*
X-11199501Y-42421153D01*
X-11230262Y-42266510D01*
X-11230263Y-42266503D01*
X-11289289Y-42124000D01*
X-11290603Y-42120827D01*
X-11290610Y-42120814D01*
X-11378211Y-41989711D01*
X-11378214Y-41989707D01*
X-11489708Y-41878213D01*
X-11489712Y-41878210D01*
X-11620815Y-41790609D01*
X-11620828Y-41790602D01*
X-11766499Y-41730264D01*
X-11766511Y-41730261D01*
X-11921155Y-41699500D01*
X-11921158Y-41699500D01*
X-12078842Y-41699500D01*
X-12078845Y-41699500D01*
X-12233490Y-41730261D01*
X-12233502Y-41730264D01*
X-12379173Y-41790602D01*
X-12379186Y-41790609D01*
X-12510289Y-41878210D01*
X-12510293Y-41878213D01*
X-12621787Y-41989707D01*
X-12621790Y-41989711D01*
X-12709391Y-42120814D01*
X-12709398Y-42120827D01*
X-12769736Y-42266498D01*
X-12769739Y-42266510D01*
X-12800500Y-42421153D01*
X-39499500Y-42421153D01*
X-39499500Y-35624000D01*
X-39479815Y-35556961D01*
X-39427011Y-35511206D01*
X-39375500Y-35500000D01*
X-29869863Y-35500000D01*
X-29802824Y-35519685D01*
G37*
%TD.AperFunction*%
%TD*%
%TA.AperFunction,Conductor*%
%TO.N,GND_BUS*%
G36*
X-4528311Y39679538D02*
G01*
X-4473773Y39625000D01*
X-4453811Y39550500D01*
X-4473773Y39476000D01*
X-4482262Y39462928D01*
X-4505873Y39430431D01*
X-4509527Y39425401D01*
X-4598879Y39250037D01*
X-4598883Y39250028D01*
X-4598884Y39250025D01*
X-4659709Y39062826D01*
X-4690500Y38868417D01*
X-4690500Y38671583D01*
X-4659709Y38477174D01*
X-4598884Y38289975D01*
X-4598881Y38289970D01*
X-4598879Y38289964D01*
X-4528288Y38151422D01*
X-4509524Y38114595D01*
X-4393828Y37955354D01*
X-4254646Y37816172D01*
X-4095405Y37700476D01*
X-4056786Y37680799D01*
X-3962505Y37632760D01*
X-3905187Y37581151D01*
X-3881353Y37507798D01*
X-3897389Y37432356D01*
X-3948998Y37375038D01*
X-3962505Y37367240D01*
X-4095402Y37299526D01*
X-4095407Y37299523D01*
X-4254637Y37183835D01*
X-4254648Y37183826D01*
X-4393826Y37044648D01*
X-4393835Y37044637D01*
X-4509523Y36885407D01*
X-4509526Y36885402D01*
X-4598879Y36710037D01*
X-4598883Y36710028D01*
X-4598884Y36710025D01*
X-4659709Y36522826D01*
X-4690500Y36328417D01*
X-4690500Y36131583D01*
X-4659709Y35937174D01*
X-4598884Y35749975D01*
X-4598881Y35749970D01*
X-4598879Y35749964D01*
X-4528288Y35611422D01*
X-4509524Y35574595D01*
X-4393828Y35415354D01*
X-4254646Y35276172D01*
X-4095405Y35160476D01*
X-3943329Y35082990D01*
X-3886011Y35031382D01*
X-3862177Y34958029D01*
X-3878213Y34882586D01*
X-3929821Y34825268D01*
X-3958135Y34810913D01*
X-4028109Y34784375D01*
X-4028111Y34784374D01*
X-4295965Y34643794D01*
X-4544922Y34471952D01*
X-4771352Y34271352D01*
X-4971952Y34044922D01*
X-5143794Y33795965D01*
X-5284374Y33528111D01*
X-5284380Y33528099D01*
X-5391642Y33245271D01*
X-5391645Y33245262D01*
X-5464035Y32951561D01*
X-5464037Y32951554D01*
X-5464037Y32951551D01*
X-5500500Y32651252D01*
X-5500500Y32565892D01*
X-5500500Y6065892D01*
X-5500500Y6000000D01*
X-5500500Y5848748D01*
X-5482964Y5704330D01*
X-5464037Y5548447D01*
X-5464035Y5548440D01*
X-5391645Y5254739D01*
X-5391642Y5254730D01*
X-5284380Y4971902D01*
X-5284375Y4971892D01*
X-5284373Y4971887D01*
X-5235740Y4879225D01*
X-5184716Y4782006D01*
X-5143792Y4704033D01*
X-4971950Y4455076D01*
X-4771352Y4228648D01*
X-4544924Y4028050D01*
X-4295967Y3856208D01*
X-4028113Y3715627D01*
X-4028105Y3715624D01*
X-4028099Y3715621D01*
X-3782215Y3622370D01*
X-3745266Y3608357D01*
X-3451551Y3535963D01*
X-3151252Y3499500D01*
X-3065892Y3499500D01*
X37934108Y3499500D01*
X37994683Y3499500D01*
X38005312Y3499120D01*
X38030112Y3497347D01*
X38202774Y3484998D01*
X38223803Y3481975D01*
X38412054Y3441024D01*
X38432437Y3435038D01*
X38612933Y3367716D01*
X38632265Y3358888D01*
X38801340Y3266566D01*
X38819222Y3255074D01*
X38973431Y3139634D01*
X38989497Y3125713D01*
X39125712Y2989498D01*
X39139633Y2973432D01*
X39255073Y2819223D01*
X39266567Y2801338D01*
X39358886Y2632267D01*
X39367717Y2612930D01*
X39435034Y2432448D01*
X39441024Y2412049D01*
X39481972Y2223812D01*
X39484997Y2202770D01*
X39499120Y2005314D01*
X39499500Y1994684D01*
X39499500Y-7067058D01*
X39479538Y-7141558D01*
X39425000Y-7196096D01*
X39350500Y-7216058D01*
X39276000Y-7196096D01*
X39221462Y-7141558D01*
X39206577Y-7105621D01*
X39161159Y-6936116D01*
X39161159Y-6936115D01*
X39140152Y-6885401D01*
X39073344Y-6724112D01*
X38958611Y-6525388D01*
X38958608Y-6525384D01*
X38958608Y-6525383D01*
X38818918Y-6343338D01*
X38656661Y-6181081D01*
X38474615Y-6041391D01*
X38275892Y-5926658D01*
X38275890Y-5926657D01*
X38275888Y-5926656D01*
X38209786Y-5899275D01*
X38063884Y-5838840D01*
X37842231Y-5779450D01*
X37614737Y-5749500D01*
X37614734Y-5749500D01*
X37385266Y-5749500D01*
X37385262Y-5749500D01*
X37157770Y-5779450D01*
X37157767Y-5779450D01*
X36936116Y-5838840D01*
X36936115Y-5838840D01*
X36724107Y-5926658D01*
X36525384Y-6041391D01*
X36525383Y-6041391D01*
X36343338Y-6181081D01*
X36181081Y-6343338D01*
X36041391Y-6525383D01*
X36041391Y-6525384D01*
X35926658Y-6724107D01*
X35838840Y-6936115D01*
X35838840Y-6936116D01*
X35779450Y-7157767D01*
X35779450Y-7157770D01*
X35749500Y-7385262D01*
X35749500Y-7614737D01*
X35779450Y-7842229D01*
X35779450Y-7842232D01*
X35838840Y-8063883D01*
X35838840Y-8063884D01*
X35926658Y-8275892D01*
X36041391Y-8474615D01*
X36041391Y-8474616D01*
X36181081Y-8656661D01*
X36343339Y-8818919D01*
X36525388Y-8958611D01*
X36724112Y-9073344D01*
X36903062Y-9147467D01*
X36936115Y-9161159D01*
X37032095Y-9186876D01*
X37157762Y-9220548D01*
X37157766Y-9220548D01*
X37157768Y-9220549D01*
X37209716Y-9227388D01*
X37385263Y-9250499D01*
X37385264Y-9250500D01*
X37385266Y-9250500D01*
X37614736Y-9250500D01*
X37614736Y-9250499D01*
X37842230Y-9220549D01*
X37842232Y-9220549D01*
X37842233Y-9220548D01*
X37842238Y-9220548D01*
X38063883Y-9161159D01*
X38063884Y-9161159D01*
X38063885Y-9161158D01*
X38063887Y-9161158D01*
X38275888Y-9073344D01*
X38474612Y-8958611D01*
X38656661Y-8818919D01*
X38818919Y-8656661D01*
X38958611Y-8474612D01*
X39073344Y-8275888D01*
X39161158Y-8063887D01*
X39206578Y-7894376D01*
X39245140Y-7827583D01*
X39311935Y-7789018D01*
X39389063Y-7789018D01*
X39455858Y-7827581D01*
X39494423Y-7894376D01*
X39499500Y-7932941D01*
X39499500Y-39351000D01*
X39479538Y-39425500D01*
X39425000Y-39480038D01*
X39350500Y-39500000D01*
X2649000Y-39500000D01*
X2574500Y-39480038D01*
X2519962Y-39425500D01*
X2500000Y-39351000D01*
X2500000Y-33000000D01*
X-39350500Y-33000000D01*
X-39425000Y-32980038D01*
X-39479538Y-32925500D01*
X-39499500Y-32851000D01*
X-39499500Y-29876005D01*
X-37075500Y-29876005D01*
X-37075500Y-30123995D01*
X-37058840Y-30229185D01*
X-37036707Y-30368930D01*
X-36982225Y-30536607D01*
X-36960073Y-30604782D01*
X-36960070Y-30604787D01*
X-36960068Y-30604793D01*
X-36847491Y-30825738D01*
X-36847487Y-30825746D01*
X-36719103Y-31002450D01*
X-36701724Y-31026370D01*
X-36526370Y-31201724D01*
X-36526367Y-31201726D01*
X-36325747Y-31347486D01*
X-36325745Y-31347487D01*
X-36325742Y-31347489D01*
X-36104782Y-31460073D01*
X-35868931Y-31536706D01*
X-35623995Y-31575500D01*
X-35623991Y-31575500D01*
X-35376009Y-31575500D01*
X-35376005Y-31575500D01*
X-35131069Y-31536706D01*
X-34895218Y-31460073D01*
X-34674258Y-31347489D01*
X-34473630Y-31201724D01*
X-34298276Y-31026370D01*
X-34152511Y-30825742D01*
X-34039927Y-30604782D01*
X-33963294Y-30368931D01*
X-33924500Y-30123995D01*
X-33924500Y-29881983D01*
X-29800500Y-29881983D01*
X-29800500Y-30118016D01*
X-29769695Y-30352006D01*
X-29769694Y-30352012D01*
X-29769693Y-30352014D01*
X-29763030Y-30376882D01*
X-29708605Y-30579996D01*
X-29618281Y-30798056D01*
X-29515537Y-30976013D01*
X-29500273Y-31002450D01*
X-29356592Y-31189699D01*
X-29189699Y-31356592D01*
X-29002450Y-31500273D01*
X-28939346Y-31536706D01*
X-28798057Y-31618280D01*
X-28798054Y-31618281D01*
X-28798049Y-31618284D01*
X-28579993Y-31708606D01*
X-28352014Y-31769693D01*
X-28352008Y-31769693D01*
X-28352007Y-31769694D01*
X-28288397Y-31778068D01*
X-28118011Y-31800500D01*
X-27881989Y-31800500D01*
X-27647986Y-31769693D01*
X-27420007Y-31708606D01*
X-27201951Y-31618284D01*
X-26997550Y-31500273D01*
X-26810301Y-31356592D01*
X-26643408Y-31189699D01*
X-26499727Y-31002450D01*
X-26381716Y-30798049D01*
X-26291394Y-30579993D01*
X-26230307Y-30352014D01*
X-26199500Y-30118011D01*
X-26199500Y-29881989D01*
X-26230307Y-29647986D01*
X-26291394Y-29420007D01*
X-26381716Y-29201951D01*
X-26381719Y-29201946D01*
X-26381720Y-29201943D01*
X-26454723Y-29075499D01*
X-26499727Y-28997550D01*
X-26643408Y-28810301D01*
X-26810301Y-28643408D01*
X-26997550Y-28499727D01*
X-27023987Y-28484463D01*
X-27201944Y-28381719D01*
X-27420004Y-28291395D01*
X-27420006Y-28291394D01*
X-27420007Y-28291394D01*
X-27647986Y-28230307D01*
X-27647988Y-28230306D01*
X-27647994Y-28230305D01*
X-27881984Y-28199500D01*
X-27881989Y-28199500D01*
X-28118011Y-28199500D01*
X-28118017Y-28199500D01*
X-28352007Y-28230305D01*
X-28579997Y-28291395D01*
X-28798057Y-28381719D01*
X-29002449Y-28499726D01*
X-29002450Y-28499727D01*
X-29189699Y-28643408D01*
X-29189701Y-28643409D01*
X-29189705Y-28643413D01*
X-29356587Y-28810295D01*
X-29356591Y-28810299D01*
X-29356592Y-28810301D01*
X-29435657Y-28913341D01*
X-29500274Y-28997551D01*
X-29618281Y-29201943D01*
X-29708605Y-29420003D01*
X-29769695Y-29647993D01*
X-29800500Y-29881983D01*
X-33924500Y-29881983D01*
X-33924500Y-29876005D01*
X-33963294Y-29631069D01*
X-34039927Y-29395218D01*
X-34152511Y-29174258D01*
X-34152513Y-29174255D01*
X-34152514Y-29174253D01*
X-34298274Y-28973633D01*
X-34298276Y-28973630D01*
X-34473630Y-28798276D01*
X-34599922Y-28706519D01*
X-34674254Y-28652513D01*
X-34674262Y-28652509D01*
X-34895207Y-28539932D01*
X-34895213Y-28539930D01*
X-34895218Y-28539927D01*
X-35018943Y-28499726D01*
X-35131070Y-28463293D01*
X-35270815Y-28441160D01*
X-35376005Y-28424500D01*
X-35623995Y-28424500D01*
X-35718987Y-28439545D01*
X-35868931Y-28463293D01*
X-36104776Y-28539925D01*
X-36104782Y-28539927D01*
X-36104785Y-28539928D01*
X-36104794Y-28539932D01*
X-36325739Y-28652509D01*
X-36325747Y-28652513D01*
X-36526367Y-28798273D01*
X-36701727Y-28973633D01*
X-36847487Y-29174253D01*
X-36847491Y-29174261D01*
X-36960068Y-29395206D01*
X-36960075Y-29395224D01*
X-37036707Y-29631069D01*
X-37058381Y-29767917D01*
X-37075500Y-29876005D01*
X-39499500Y-29876005D01*
X-39499500Y-12673717D01*
X-39479538Y-12599217D01*
X-39425000Y-12544679D01*
X-39350500Y-12524717D01*
X-39276000Y-12544679D01*
X-39245141Y-12568358D01*
X-29959141Y-21854358D01*
X-29920577Y-21921153D01*
X-29915500Y-21959717D01*
X-29915500Y-22108254D01*
X-29902616Y-22189598D01*
X-29881629Y-22322103D01*
X-29814728Y-22528002D01*
X-29814724Y-22528014D01*
X-29790262Y-22576022D01*
X-29716433Y-22720919D01*
X-29589172Y-22896078D01*
X-29436078Y-23049172D01*
X-29301917Y-23146646D01*
X-29253382Y-23206582D01*
X-29240500Y-23267186D01*
X-29240500Y-25528997D01*
X-29213581Y-25664327D01*
X-29213580Y-25664329D01*
X-29160780Y-25791802D01*
X-29160777Y-25791808D01*
X-29160775Y-25791811D01*
X-29084114Y-25906543D01*
X-22446543Y-32544114D01*
X-22331811Y-32620775D01*
X-22331807Y-32620776D01*
X-22331803Y-32620779D01*
X-22229825Y-32663019D01*
X-22204328Y-32673580D01*
X-22068994Y-32700500D01*
X-22068993Y-32700500D01*
X-22068990Y-32700500D01*
X-5431010Y-32700500D01*
X-5431006Y-32700500D01*
X-5295672Y-32673580D01*
X-5208629Y-32637525D01*
X-5168198Y-32620779D01*
X-5168197Y-32620778D01*
X-5168189Y-32620775D01*
X-5053457Y-32544114D01*
X-1253484Y-28744141D01*
X-1186689Y-28705577D01*
X-1148125Y-28700500D01*
X-931010Y-28700500D01*
X-931006Y-28700500D01*
X-795672Y-28673580D01*
X-708629Y-28637525D01*
X-668198Y-28620779D01*
X-668197Y-28620778D01*
X-668189Y-28620775D01*
X-553457Y-28544114D01*
X-23929Y-28014584D01*
X24401Y-27982291D01*
X164179Y-27924394D01*
X295289Y-27836789D01*
X406789Y-27725289D01*
X494394Y-27594179D01*
X554737Y-27448497D01*
X585500Y-27293842D01*
X585500Y-27136158D01*
X554737Y-26981503D01*
X494394Y-26835821D01*
X406789Y-26704711D01*
X295289Y-26593211D01*
X164179Y-26505606D01*
X164178Y-26505605D01*
X164176Y-26505604D01*
X18498Y-26445263D01*
X18494Y-26445262D01*
X-136158Y-26414500D01*
X-293842Y-26414500D01*
X-448495Y-26445262D01*
X-448499Y-26445263D01*
X-594177Y-26505604D01*
X-725293Y-26593214D01*
X-836786Y-26704707D01*
X-924395Y-26835821D01*
X-982288Y-26975589D01*
X-1014587Y-27023927D01*
X-1246516Y-27255858D01*
X-1313310Y-27294423D01*
X-1351875Y-27299500D01*
X-1568993Y-27299500D01*
X-1677410Y-27321064D01*
X-1677409Y-27321065D01*
X-1704329Y-27326419D01*
X-1831809Y-27379223D01*
X-1946542Y-27455885D01*
X-1946547Y-27455889D01*
X-5746516Y-31255859D01*
X-5813311Y-31294423D01*
X-5851875Y-31299500D01*
X-12800500Y-31299500D01*
X-12875000Y-31279538D01*
X-12929538Y-31225000D01*
X-12949500Y-31150500D01*
X-12949500Y-27289742D01*
X-12929538Y-27215242D01*
X-12905863Y-27184387D01*
X-6451692Y-20730215D01*
X-6384899Y-20691653D01*
X-6375413Y-20689441D01*
X-6295672Y-20673580D01*
X-6168189Y-20620775D01*
X-6053458Y-20544114D01*
X-5955886Y-20446542D01*
X-5879225Y-20331811D01*
X-5826420Y-20204328D01*
X-5799500Y-20068993D01*
X-5799500Y-19931007D01*
X-5826420Y-19795672D01*
X-5879225Y-19668189D01*
X-5899544Y-19637780D01*
X-5955884Y-19553461D01*
X-5955886Y-19553458D01*
X-6053458Y-19455886D01*
X-6053462Y-19455883D01*
X-6168185Y-19379227D01*
X-6168191Y-19379224D01*
X-6295671Y-19326420D01*
X-6295675Y-19326419D01*
X-6431007Y-19299500D01*
X-6568993Y-19299500D01*
X-6704326Y-19326419D01*
X-6704330Y-19326420D01*
X-6831810Y-19379224D01*
X-6831816Y-19379227D01*
X-6946539Y-19455883D01*
X-6946546Y-19455889D01*
X-7044111Y-19553454D01*
X-7044117Y-19553461D01*
X-7120773Y-19668184D01*
X-7120776Y-19668190D01*
X-7173580Y-19795670D01*
X-7173583Y-19795679D01*
X-7189442Y-19875404D01*
X-7223556Y-19944578D01*
X-7230219Y-19951692D01*
X-13940511Y-26661985D01*
X-14001981Y-26768457D01*
X-14001982Y-26768459D01*
X-14012983Y-26787512D01*
X-14050500Y-26927524D01*
X-14050500Y-31150500D01*
X-14070462Y-31225000D01*
X-14125000Y-31279538D01*
X-14199500Y-31299500D01*
X-19211689Y-31299500D01*
X-19286189Y-31279538D01*
X-19340727Y-31225000D01*
X-19360689Y-31150500D01*
X-19340727Y-31076000D01*
X-19317052Y-31045145D01*
X-19298276Y-31026370D01*
X-19152511Y-30825742D01*
X-19039927Y-30604782D01*
X-18963294Y-30368931D01*
X-18924500Y-30123995D01*
X-18924500Y-29876005D01*
X-18963294Y-29631069D01*
X-19039927Y-29395218D01*
X-19152511Y-29174258D01*
X-19152513Y-29174255D01*
X-19152514Y-29174253D01*
X-19298274Y-28973633D01*
X-19298276Y-28973630D01*
X-19473630Y-28798276D01*
X-19599922Y-28706519D01*
X-19674254Y-28652513D01*
X-19674262Y-28652509D01*
X-19895207Y-28539932D01*
X-19895213Y-28539930D01*
X-19895218Y-28539927D01*
X-20018943Y-28499726D01*
X-20131070Y-28463293D01*
X-20270815Y-28441160D01*
X-20376005Y-28424500D01*
X-20623995Y-28424500D01*
X-20718987Y-28439545D01*
X-20868931Y-28463293D01*
X-21104776Y-28539925D01*
X-21104782Y-28539927D01*
X-21104785Y-28539928D01*
X-21104794Y-28539932D01*
X-21325739Y-28652509D01*
X-21325747Y-28652513D01*
X-21526367Y-28798273D01*
X-21701727Y-28973633D01*
X-21847487Y-29174253D01*
X-21847491Y-29174261D01*
X-21960068Y-29395206D01*
X-21960075Y-29395224D01*
X-22036707Y-29631069D01*
X-22058381Y-29767917D01*
X-22075500Y-29876005D01*
X-22075500Y-30123995D01*
X-22058840Y-30229185D01*
X-22036707Y-30368930D01*
X-21982225Y-30536607D01*
X-21960073Y-30604782D01*
X-21960070Y-30604787D01*
X-21960068Y-30604793D01*
X-21925413Y-30672808D01*
X-21909377Y-30748251D01*
X-21933212Y-30821604D01*
X-21990529Y-30873212D01*
X-22065972Y-30889248D01*
X-22139325Y-30865413D01*
X-22163532Y-30845811D01*
X-27795859Y-25213484D01*
X-27834423Y-25146689D01*
X-27839500Y-25108125D01*
X-27839500Y-23267186D01*
X-27831471Y-23237220D01*
X-27826618Y-23206582D01*
X-27821602Y-23200387D01*
X-27819538Y-23192686D01*
X-27778085Y-23146647D01*
X-27643922Y-23049172D01*
X-27490828Y-22896078D01*
X-27452036Y-22842685D01*
X-27392100Y-22794149D01*
X-27315921Y-22782083D01*
X-27244609Y-22809457D01*
X-27234517Y-22810251D01*
X-26621754Y-22197487D01*
X-26576022Y-22307890D01*
X-26504888Y-22414351D01*
X-26414351Y-22504888D01*
X-26307890Y-22576022D01*
X-26197489Y-22621752D01*
X-26810253Y-23234516D01*
X-26773070Y-23261531D01*
X-26773070Y-23261532D01*
X-26566210Y-23366933D01*
X-26566198Y-23366937D01*
X-26345397Y-23438680D01*
X-26116080Y-23475000D01*
X-25883920Y-23475000D01*
X-25654604Y-23438680D01*
X-25433803Y-23366937D01*
X-25433791Y-23366933D01*
X-25226935Y-23261533D01*
X-25189750Y-23234515D01*
X-25802512Y-22621752D01*
X-25692110Y-22576022D01*
X-25585649Y-22504888D01*
X-25495112Y-22414351D01*
X-25423978Y-22307890D01*
X-25378248Y-22197487D01*
X-24765484Y-22810251D01*
X-24747224Y-22808814D01*
X-24729110Y-22794147D01*
X-24652931Y-22782082D01*
X-24580926Y-22809723D01*
X-24547966Y-22842683D01*
X-24509172Y-22896078D01*
X-24356078Y-23049172D01*
X-24180919Y-23176433D01*
X-23988009Y-23274726D01*
X-23782103Y-23341628D01*
X-23782097Y-23341630D01*
X-23568254Y-23375500D01*
X-23568249Y-23375500D01*
X-23351751Y-23375500D01*
X-23351746Y-23375500D01*
X-23137903Y-23341630D01*
X-22931991Y-23274726D01*
X-22739081Y-23176433D01*
X-22563922Y-23049172D01*
X-22410828Y-22896078D01*
X-22283567Y-22720919D01*
X-22185274Y-22528009D01*
X-22118370Y-22322097D01*
X-22084500Y-22108254D01*
X-22084500Y-21891746D01*
X-22118370Y-21677903D01*
X-22185274Y-21471991D01*
X-22283567Y-21279081D01*
X-22410828Y-21103922D01*
X-22563922Y-20950828D01*
X-22739081Y-20823567D01*
X-22906100Y-20738466D01*
X-22931986Y-20725276D01*
X-22931990Y-20725274D01*
X-22931991Y-20725274D01*
X-23042281Y-20689439D01*
X-23137898Y-20658371D01*
X-23137897Y-20658371D01*
X-23137903Y-20658370D01*
X-23351746Y-20624500D01*
X-23568254Y-20624500D01*
X-23756292Y-20654282D01*
X-23782104Y-20658371D01*
X-23988003Y-20725272D01*
X-23988015Y-20725276D01*
X-24180921Y-20823568D01*
X-24356069Y-20950821D01*
X-24356080Y-20950830D01*
X-24509170Y-21103920D01*
X-24509175Y-21103926D01*
X-24547963Y-21157313D01*
X-24607904Y-21205851D01*
X-24684082Y-21217916D01*
X-24755394Y-21190541D01*
X-24765484Y-21189747D01*
X-25378248Y-21802510D01*
X-25423978Y-21692110D01*
X-25495112Y-21585649D01*
X-25585649Y-21495112D01*
X-25692110Y-21423978D01*
X-25802513Y-21378246D01*
X-25189749Y-20765483D01*
X-25226934Y-20738466D01*
X-25433791Y-20633066D01*
X-25433803Y-20633062D01*
X-25654604Y-20561319D01*
X-25883920Y-20525000D01*
X-26116080Y-20525000D01*
X-26345397Y-20561319D01*
X-26566198Y-20633062D01*
X-26566210Y-20633066D01*
X-26773068Y-20738467D01*
X-26810253Y-20765483D01*
X-26197489Y-21378247D01*
X-26307890Y-21423978D01*
X-26414351Y-21495112D01*
X-26504888Y-21585649D01*
X-26576022Y-21692110D01*
X-26621753Y-21802511D01*
X-27234517Y-21189747D01*
X-27252785Y-21191185D01*
X-27270894Y-21205850D01*
X-27347073Y-21217915D01*
X-27419077Y-21190273D01*
X-27452035Y-21157316D01*
X-27490828Y-21103922D01*
X-27643922Y-20950828D01*
X-27654955Y-20942812D01*
X-27654955Y-20942811D01*
X-27819080Y-20823568D01*
X-27819079Y-20823568D01*
X-27819081Y-20823567D01*
X-27986100Y-20738466D01*
X-28011986Y-20725276D01*
X-28011990Y-20725274D01*
X-28011991Y-20725274D01*
X-28122281Y-20689439D01*
X-28217898Y-20658371D01*
X-28217897Y-20658371D01*
X-28217903Y-20658370D01*
X-28431746Y-20624500D01*
X-28431751Y-20624500D01*
X-28580283Y-20624500D01*
X-28654783Y-20604538D01*
X-28685642Y-20580859D01*
X-38040249Y-11226251D01*
X-38054859Y-11211641D01*
X-38093423Y-11144846D01*
X-38095806Y-11126746D01*
X-29915500Y-11126746D01*
X-29915500Y-11343254D01*
X-29902616Y-11424598D01*
X-29881629Y-11557103D01*
X-29814728Y-11763002D01*
X-29814724Y-11763014D01*
X-29790262Y-11811022D01*
X-29716433Y-11955919D01*
X-29589172Y-12131078D01*
X-29436078Y-12284172D01*
X-29260919Y-12411433D01*
X-29068009Y-12509726D01*
X-28862103Y-12576628D01*
X-28862097Y-12576630D01*
X-28648254Y-12610500D01*
X-28648249Y-12610500D01*
X-28431751Y-12610500D01*
X-28431746Y-12610500D01*
X-28217903Y-12576630D01*
X-28011991Y-12509726D01*
X-27819081Y-12411433D01*
X-27643922Y-12284172D01*
X-27490828Y-12131078D01*
X-27452036Y-12077685D01*
X-27392100Y-12029149D01*
X-27315921Y-12017083D01*
X-27244609Y-12044457D01*
X-27234517Y-12045251D01*
X-26621754Y-11432487D01*
X-26576022Y-11542890D01*
X-26504888Y-11649351D01*
X-26414351Y-11739888D01*
X-26307890Y-11811022D01*
X-26197489Y-11856752D01*
X-26810253Y-12469516D01*
X-26773070Y-12496531D01*
X-26773070Y-12496532D01*
X-26566210Y-12601933D01*
X-26566198Y-12601937D01*
X-26345397Y-12673680D01*
X-26116080Y-12710000D01*
X-25883920Y-12710000D01*
X-25654604Y-12673680D01*
X-25433803Y-12601937D01*
X-25433791Y-12601933D01*
X-25226935Y-12496533D01*
X-25189750Y-12469515D01*
X-25802512Y-11856752D01*
X-25692110Y-11811022D01*
X-25585649Y-11739888D01*
X-25495112Y-11649351D01*
X-25423978Y-11542890D01*
X-25378248Y-11432487D01*
X-24765484Y-12045251D01*
X-24747224Y-12043814D01*
X-24729110Y-12029147D01*
X-24652931Y-12017082D01*
X-24580926Y-12044723D01*
X-24547966Y-12077683D01*
X-24509172Y-12131078D01*
X-24356078Y-12284172D01*
X-24180919Y-12411433D01*
X-23988009Y-12509726D01*
X-23782103Y-12576628D01*
X-23782097Y-12576630D01*
X-23568254Y-12610500D01*
X-23568249Y-12610500D01*
X-23351751Y-12610500D01*
X-23351746Y-12610500D01*
X-23137903Y-12576630D01*
X-22931991Y-12509726D01*
X-22739081Y-12411433D01*
X-22563922Y-12284172D01*
X-22410828Y-12131078D01*
X-22283567Y-11955919D01*
X-22185274Y-11763009D01*
X-22118370Y-11557097D01*
X-22084500Y-11343254D01*
X-22084500Y-11126746D01*
X-22118370Y-10912903D01*
X-22185274Y-10706991D01*
X-22283567Y-10514081D01*
X-22410828Y-10338922D01*
X-22563922Y-10185828D01*
X-22739081Y-10058567D01*
X-22853077Y-10000483D01*
X-22931986Y-9960276D01*
X-22931990Y-9960274D01*
X-22931991Y-9960274D01*
X-22994848Y-9939850D01*
X-23137898Y-9893371D01*
X-23137897Y-9893371D01*
X-23137903Y-9893370D01*
X-23351746Y-9859500D01*
X-23568254Y-9859500D01*
X-23756292Y-9889282D01*
X-23782104Y-9893371D01*
X-23988003Y-9960272D01*
X-23988015Y-9960276D01*
X-24180921Y-10058568D01*
X-24356069Y-10185821D01*
X-24356080Y-10185830D01*
X-24509170Y-10338920D01*
X-24509175Y-10338926D01*
X-24547963Y-10392313D01*
X-24607904Y-10440851D01*
X-24684082Y-10452916D01*
X-24755394Y-10425541D01*
X-24765484Y-10424747D01*
X-25378248Y-11037510D01*
X-25423978Y-10927110D01*
X-25495112Y-10820649D01*
X-25585649Y-10730112D01*
X-25692110Y-10658978D01*
X-25802513Y-10613246D01*
X-25189749Y-10000483D01*
X-25226934Y-9973466D01*
X-25433791Y-9868066D01*
X-25433803Y-9868062D01*
X-25654604Y-9796319D01*
X-25883920Y-9760000D01*
X-26116080Y-9760000D01*
X-26345397Y-9796319D01*
X-26566198Y-9868062D01*
X-26566210Y-9868066D01*
X-26773068Y-9973467D01*
X-26810253Y-10000483D01*
X-26197489Y-10613247D01*
X-26307890Y-10658978D01*
X-26414351Y-10730112D01*
X-26504888Y-10820649D01*
X-26576022Y-10927110D01*
X-26621753Y-11037511D01*
X-27234517Y-10424747D01*
X-27252785Y-10426185D01*
X-27270894Y-10440850D01*
X-27347073Y-10452915D01*
X-27419077Y-10425273D01*
X-27452035Y-10392316D01*
X-27490828Y-10338922D01*
X-27643922Y-10185828D01*
X-27654955Y-10177812D01*
X-27654955Y-10177811D01*
X-27819080Y-10058568D01*
X-27819079Y-10058568D01*
X-27819081Y-10058567D01*
X-27933077Y-10000483D01*
X-28011986Y-9960276D01*
X-28011990Y-9960274D01*
X-28011991Y-9960274D01*
X-28074848Y-9939850D01*
X-28217898Y-9893371D01*
X-28217897Y-9893371D01*
X-28217903Y-9893370D01*
X-28431746Y-9859500D01*
X-28648254Y-9859500D01*
X-28836292Y-9889282D01*
X-28862104Y-9893371D01*
X-29068003Y-9960272D01*
X-29068015Y-9960276D01*
X-29260921Y-10058568D01*
X-29436069Y-10185821D01*
X-29436071Y-10185823D01*
X-29436078Y-10185828D01*
X-29589172Y-10338922D01*
X-29589175Y-10338925D01*
X-29589179Y-10338931D01*
X-29716432Y-10514079D01*
X-29814724Y-10706985D01*
X-29814728Y-10706997D01*
X-29881629Y-10912896D01*
X-29881630Y-10912903D01*
X-29915500Y-11126746D01*
X-38095806Y-11126746D01*
X-38098500Y-11106282D01*
X-38098500Y-7385262D01*
X-9250500Y-7385262D01*
X-9250500Y-7614737D01*
X-9220550Y-7842229D01*
X-9220550Y-7842232D01*
X-9161160Y-8063883D01*
X-9161160Y-8063884D01*
X-9073342Y-8275892D01*
X-8958609Y-8474615D01*
X-8958609Y-8474616D01*
X-8818919Y-8656661D01*
X-8656661Y-8818919D01*
X-8474612Y-8958611D01*
X-8275888Y-9073344D01*
X-8096938Y-9147467D01*
X-8063885Y-9161159D01*
X-7967905Y-9186876D01*
X-7842238Y-9220548D01*
X-7842234Y-9220548D01*
X-7842232Y-9220549D01*
X-7790284Y-9227388D01*
X-7614737Y-9250499D01*
X-7614736Y-9250500D01*
X-7614734Y-9250500D01*
X-7385264Y-9250500D01*
X-7385264Y-9250499D01*
X-7157770Y-9220549D01*
X-7157768Y-9220549D01*
X-7157767Y-9220548D01*
X-7157762Y-9220548D01*
X-6936117Y-9161159D01*
X-6936116Y-9161159D01*
X-6936115Y-9161158D01*
X-6936113Y-9161158D01*
X-6724112Y-9073344D01*
X-6525388Y-8958611D01*
X-6343339Y-8818919D01*
X-6181081Y-8656661D01*
X-6041389Y-8474612D01*
X-5926656Y-8275888D01*
X-5838842Y-8063887D01*
X-5779452Y-7842238D01*
X-5749500Y-7614734D01*
X-5749500Y-7385266D01*
X-5779452Y-7157762D01*
X-5838842Y-6936113D01*
X-5926656Y-6724112D01*
X-6041389Y-6525388D01*
X-6041392Y-6525384D01*
X-6041392Y-6525383D01*
X-6181082Y-6343338D01*
X-6343339Y-6181081D01*
X-6525385Y-6041391D01*
X-6724108Y-5926658D01*
X-6724110Y-5926657D01*
X-6724112Y-5926656D01*
X-6790214Y-5899275D01*
X-6936116Y-5838840D01*
X-7157769Y-5779450D01*
X-7385263Y-5749500D01*
X-7385266Y-5749500D01*
X-7614734Y-5749500D01*
X-7614738Y-5749500D01*
X-7842230Y-5779450D01*
X-7842233Y-5779450D01*
X-8063884Y-5838840D01*
X-8063885Y-5838840D01*
X-8275893Y-5926658D01*
X-8474616Y-6041391D01*
X-8474617Y-6041391D01*
X-8656662Y-6181081D01*
X-8818919Y-6343338D01*
X-8958609Y-6525383D01*
X-8958609Y-6525384D01*
X-9073342Y-6724107D01*
X-9161160Y-6936115D01*
X-9161160Y-6936116D01*
X-9220550Y-7157767D01*
X-9220550Y-7157770D01*
X-9250500Y-7385262D01*
X-38098500Y-7385262D01*
X-38098500Y806775D01*
X-33384599Y806775D01*
X-33384598Y806755D01*
X-33378198Y747220D01*
X-33327954Y612513D01*
X-33327949Y612503D01*
X-33241790Y497410D01*
X-33241787Y497407D01*
X-33126694Y411248D01*
X-33126684Y411243D01*
X-32991976Y360999D01*
X-32991978Y360999D01*
X-32932442Y354599D01*
X-32932422Y354597D01*
X-31685999Y354597D01*
X-31085999Y354597D01*
X-29839576Y354597D01*
X-29839557Y354599D01*
X-29780022Y360999D01*
X-29645315Y411243D01*
X-29645305Y411248D01*
X-29530212Y497407D01*
X-29530209Y497410D01*
X-29444050Y612503D01*
X-29444045Y612513D01*
X-29393801Y747220D01*
X-29387401Y806755D01*
X-29387399Y806775D01*
X-29387399Y1849997D01*
X-31085999Y1849997D01*
X-31085999Y354597D01*
X-31685999Y354597D01*
X-31685999Y1849997D01*
X-33384599Y1849997D01*
X-33384599Y806775D01*
X-38098500Y806775D01*
X-38098500Y3449305D01*
X-33384599Y3449305D01*
X-33384599Y2449997D01*
X-31685999Y2449997D01*
X-31085999Y2449997D01*
X-29387399Y2449997D01*
X-29387399Y3493220D01*
X-29387401Y3493240D01*
X-29393801Y3552775D01*
X-29444045Y3687482D01*
X-29444050Y3687492D01*
X-29530209Y3802585D01*
X-29530212Y3802588D01*
X-29645305Y3888747D01*
X-29645315Y3888752D01*
X-29780023Y3938996D01*
X-29780021Y3938996D01*
X-29839557Y3945396D01*
X-29839576Y3945397D01*
X-31085999Y3945397D01*
X-31085999Y2449997D01*
X-31685999Y2449997D01*
X-31685999Y3945397D01*
X-32008772Y3945397D01*
X-32083272Y3965359D01*
X-32137810Y4019897D01*
X-32157772Y4094397D01*
X-32156918Y4110324D01*
X-32154302Y4134666D01*
X-32154300Y4134686D01*
X-32154300Y4200008D01*
X-33256000Y4200008D01*
X-33256000Y3676508D01*
X-33257945Y3669251D01*
X-33256724Y3661838D01*
X-33267820Y3632399D01*
X-33275962Y3602008D01*
X-33281275Y3596696D01*
X-33283924Y3589665D01*
X-33384599Y3449305D01*
X-38098500Y3449305D01*
X-38098500Y4134686D01*
X-34957700Y4134686D01*
X-34957699Y4134666D01*
X-34951299Y4075131D01*
X-34901055Y3940424D01*
X-34901050Y3940414D01*
X-34814891Y3825321D01*
X-34814888Y3825318D01*
X-34699795Y3739159D01*
X-34699785Y3739154D01*
X-34565077Y3688910D01*
X-34565079Y3688910D01*
X-34505543Y3682510D01*
X-34505523Y3682508D01*
X-33856000Y3682508D01*
X-33856000Y4200008D01*
X-34957700Y4200008D01*
X-34957700Y4134686D01*
X-38098500Y4134686D01*
X-38098500Y12650496D01*
X-38078538Y12724996D01*
X-38024000Y12779534D01*
X-37949500Y12799496D01*
X-35930279Y12799496D01*
X-35873260Y12788154D01*
X-35852449Y12779534D01*
X-35733497Y12730263D01*
X-35578842Y12699500D01*
X-35421158Y12699500D01*
X-35266503Y12730263D01*
X-35147551Y12779534D01*
X-35126740Y12788154D01*
X-35069721Y12799496D01*
X-35007200Y12799496D01*
X-34932700Y12779534D01*
X-34878162Y12724996D01*
X-34858200Y12650496D01*
X-34858200Y12150979D01*
X-34843347Y12057195D01*
X-34839724Y12046047D01*
X-34835685Y11969025D01*
X-34839722Y11953958D01*
X-34843346Y11942807D01*
X-34843346Y11942804D01*
X-34858200Y11849019D01*
X-34858200Y11849016D01*
X-34858200Y11849015D01*
X-34858200Y11150981D01*
X-34843347Y11057198D01*
X-34839723Y11046046D01*
X-34832430Y11000001D01*
X-34832430Y10999999D01*
X-34839722Y10953957D01*
X-34843346Y10942806D01*
X-34843346Y10942804D01*
X-34858200Y10849019D01*
X-34858200Y10849016D01*
X-34858200Y10849015D01*
X-34858200Y10150981D01*
X-34843347Y10057198D01*
X-34839723Y10046046D01*
X-34832430Y10000001D01*
X-34832430Y9999999D01*
X-34839722Y9953957D01*
X-34843346Y9942806D01*
X-34843346Y9942804D01*
X-34858200Y9849019D01*
X-34858200Y9849016D01*
X-34858200Y9849015D01*
X-34858200Y9150981D01*
X-34843347Y9057198D01*
X-34839723Y9046046D01*
X-34832430Y9000001D01*
X-34832430Y8999999D01*
X-34839722Y8953957D01*
X-34843346Y8942806D01*
X-34843346Y8942804D01*
X-34858200Y8849019D01*
X-34858200Y8849016D01*
X-34858200Y8849015D01*
X-34858200Y8150981D01*
X-34843347Y8057197D01*
X-34839724Y8046049D01*
X-34835685Y7969027D01*
X-34839722Y7953960D01*
X-34843346Y7942809D01*
X-34849712Y7902613D01*
X-34858200Y7849021D01*
X-34858200Y7849018D01*
X-34858200Y7849017D01*
X-34858200Y7150983D01*
X-34843347Y7057199D01*
X-34839724Y7046051D01*
X-34835685Y6969029D01*
X-34839722Y6953962D01*
X-34843346Y6942811D01*
X-34843346Y6942808D01*
X-34858200Y6849023D01*
X-34858200Y6849020D01*
X-34858200Y6849019D01*
X-34858200Y6150985D01*
X-34843347Y6057201D01*
X-34839724Y6046053D01*
X-34835685Y5969031D01*
X-34839722Y5953964D01*
X-34843346Y5942813D01*
X-34849198Y5905863D01*
X-34858200Y5849025D01*
X-34858200Y5849022D01*
X-34858200Y5849021D01*
X-34858200Y5166436D01*
X-34878162Y5091936D01*
X-34887916Y5077149D01*
X-34901049Y5059605D01*
X-34901055Y5059594D01*
X-34951299Y4924886D01*
X-34957699Y4865351D01*
X-34957700Y4865331D01*
X-34957700Y4800008D01*
X-34614606Y4800008D01*
X-34591298Y4798174D01*
X-34583006Y4796861D01*
X-34583004Y4796860D01*
X-34489219Y4782006D01*
X-32622782Y4782007D01*
X-32622781Y4782007D01*
X-32604161Y4784957D01*
X-32528996Y4796860D01*
X-32528995Y4796861D01*
X-32523911Y4797666D01*
X-32500603Y4799500D01*
X-31931007Y4799500D01*
X-31795672Y4826420D01*
X-31668189Y4879225D01*
X-31553458Y4955886D01*
X-31455886Y5053458D01*
X-31379225Y5168189D01*
X-31326420Y5295672D01*
X-31299500Y5431007D01*
X-31299500Y5568993D01*
X-31301201Y5577542D01*
X-31326420Y5704326D01*
X-31326421Y5704330D01*
X-31342639Y5743485D01*
X-31352706Y5819953D01*
X-31323190Y5891210D01*
X-31262000Y5938162D01*
X-31204981Y5949504D01*
X-26789743Y5949504D01*
X-26715243Y5929542D01*
X-26684384Y5905863D01*
X-24494147Y3715627D01*
X-22338010Y1559490D01*
X-22234104Y1499500D01*
X-22234105Y1499500D01*
X-22212485Y1487018D01*
X-22212481Y1487016D01*
X-22072471Y1449500D01*
X-22072470Y1449500D01*
X-21927522Y1449500D01*
X-1799743Y1449500D01*
X-1725243Y1429538D01*
X-1694384Y1405859D01*
X4337117Y-4625641D01*
X4375681Y-4692436D01*
X4375681Y-4769564D01*
X4337117Y-4836359D01*
X4270322Y-4874923D01*
X4231758Y-4880000D01*
X4073758Y-4880000D01*
X3863871Y-4913242D01*
X3661779Y-4978906D01*
X3472443Y-5075378D01*
X3459237Y-5084972D01*
X4106358Y-5732094D01*
X3987007Y-5764075D01*
X3872993Y-5829901D01*
X3779901Y-5922993D01*
X3714075Y-6037007D01*
X3682094Y-6156358D01*
X3034972Y-5509237D01*
X3025378Y-5522444D01*
X2986923Y-5597914D01*
X2935313Y-5655230D01*
X2861960Y-5679063D01*
X2786517Y-5663026D01*
X2729201Y-5611416D01*
X2721411Y-5597926D01*
X2709524Y-5574595D01*
X2593828Y-5415354D01*
X2454646Y-5276172D01*
X2295405Y-5160476D01*
X2285010Y-5155179D01*
X2120036Y-5071121D01*
X2120030Y-5071119D01*
X2120025Y-5071116D01*
X1932826Y-5010291D01*
X1738417Y-4979500D01*
X1541583Y-4979500D01*
X1347174Y-5010291D01*
X1159975Y-5071116D01*
X1159972Y-5071117D01*
X1159963Y-5071121D01*
X984598Y-5160474D01*
X984593Y-5160477D01*
X825363Y-5276165D01*
X825352Y-5276174D01*
X686174Y-5415352D01*
X686165Y-5415363D01*
X570477Y-5574593D01*
X570476Y-5574594D01*
X558594Y-5597914D01*
X506984Y-5655231D01*
X433630Y-5679063D01*
X358188Y-5663026D01*
X300871Y-5611416D01*
X293075Y-5597912D01*
X254624Y-5522448D01*
X245025Y-5509237D01*
X-402095Y-6156357D01*
X-434075Y-6037007D01*
X-499901Y-5922993D01*
X-592993Y-5829901D01*
X-707007Y-5764075D01*
X-826360Y-5732093D01*
X-179239Y-5084972D01*
X-192446Y-5075377D01*
X-381780Y-4978906D01*
X-583872Y-4913242D01*
X-793758Y-4880000D01*
X-1006242Y-4880000D01*
X-1216129Y-4913242D01*
X-1418221Y-4978906D01*
X-1607557Y-5075378D01*
X-1620763Y-5084972D01*
X-973642Y-5732094D01*
X-1092993Y-5764075D01*
X-1207007Y-5829901D01*
X-1300099Y-5922993D01*
X-1365925Y-6037007D01*
X-1397906Y-6156358D01*
X-2045028Y-5509237D01*
X-2054622Y-5522444D01*
X-2093077Y-5597914D01*
X-2144687Y-5655230D01*
X-2218040Y-5679063D01*
X-2293483Y-5663026D01*
X-2350799Y-5611416D01*
X-2358589Y-5597926D01*
X-2370476Y-5574595D01*
X-2486172Y-5415354D01*
X-2625354Y-5276172D01*
X-2784595Y-5160476D01*
X-2794990Y-5155179D01*
X-2959964Y-5071121D01*
X-2959970Y-5071119D01*
X-2959975Y-5071116D01*
X-3147174Y-5010291D01*
X-3341583Y-4979500D01*
X-3538417Y-4979500D01*
X-3732826Y-5010291D01*
X-3920025Y-5071116D01*
X-3920028Y-5071117D01*
X-3920037Y-5071121D01*
X-4095402Y-5160474D01*
X-4095407Y-5160477D01*
X-4254637Y-5276165D01*
X-4254648Y-5276174D01*
X-4393826Y-5415352D01*
X-4393835Y-5415363D01*
X-4509523Y-5574593D01*
X-4509526Y-5574598D01*
X-4598879Y-5749963D01*
X-4598883Y-5749972D01*
X-4598884Y-5749975D01*
X-4659709Y-5937174D01*
X-4690500Y-6131583D01*
X-4690500Y-6328417D01*
X-4659709Y-6522826D01*
X-4598884Y-6710025D01*
X-4598881Y-6710030D01*
X-4598879Y-6710036D01*
X-4528288Y-6848578D01*
X-4509524Y-6885405D01*
X-4393828Y-7044646D01*
X-4254646Y-7183828D01*
X-4095405Y-7299524D01*
X-4056786Y-7319201D01*
X-3962505Y-7367240D01*
X-3905187Y-7418849D01*
X-3881353Y-7492202D01*
X-3897389Y-7567644D01*
X-3948998Y-7624962D01*
X-3962505Y-7632760D01*
X-4095402Y-7700474D01*
X-4095407Y-7700477D01*
X-4254637Y-7816165D01*
X-4254648Y-7816174D01*
X-4393826Y-7955352D01*
X-4393835Y-7955363D01*
X-4509523Y-8114593D01*
X-4509526Y-8114598D01*
X-4598879Y-8289963D01*
X-4598883Y-8289972D01*
X-4598884Y-8289975D01*
X-4659709Y-8477174D01*
X-4690500Y-8671583D01*
X-4690500Y-8868417D01*
X-4659709Y-9062826D01*
X-4598884Y-9250025D01*
X-4598881Y-9250030D01*
X-4598879Y-9250036D01*
X-4528288Y-9388578D01*
X-4509524Y-9425405D01*
X-4393828Y-9584646D01*
X-4254646Y-9723828D01*
X-4095405Y-9839524D01*
X-3920025Y-9928884D01*
X-3732826Y-9989709D01*
X-3538417Y-10020500D01*
X-3538412Y-10020500D01*
X-3341588Y-10020500D01*
X-3341583Y-10020500D01*
X-3147174Y-9989709D01*
X-2959975Y-9928884D01*
X-2784595Y-9839524D01*
X-2625354Y-9723828D01*
X-2486172Y-9584646D01*
X-2370476Y-9425405D01*
X-2358596Y-9402088D01*
X-2306990Y-9344772D01*
X-2233637Y-9320936D01*
X-2158194Y-9336971D01*
X-2100876Y-9388578D01*
X-2093077Y-9402086D01*
X-2054624Y-9477552D01*
X-2045028Y-9490761D01*
X-1397907Y-8843640D01*
X-1365925Y-8962993D01*
X-1300099Y-9077007D01*
X-1207007Y-9170099D01*
X-1092993Y-9235925D01*
X-973642Y-9267905D01*
X-1620763Y-9915025D01*
X-1607552Y-9924624D01*
X-1418221Y-10021093D01*
X-1216129Y-10086757D01*
X-1006242Y-10120000D01*
X-793758Y-10120000D01*
X-583872Y-10086757D01*
X-381780Y-10021093D01*
X-192443Y-9924620D01*
X-179239Y-9915026D01*
X-179239Y-9915025D01*
X-826359Y-9267905D01*
X-707007Y-9235925D01*
X-592993Y-9170099D01*
X-499901Y-9077007D01*
X-434075Y-8962993D01*
X-402095Y-8843641D01*
X245025Y-9490761D01*
X245026Y-9490761D01*
X254620Y-9477558D01*
X293075Y-9402086D01*
X344684Y-9344769D01*
X418037Y-9320935D01*
X493480Y-9336971D01*
X550797Y-9388580D01*
X558591Y-9402080D01*
X570476Y-9425405D01*
X686172Y-9584646D01*
X825354Y-9723828D01*
X984595Y-9839524D01*
X1159975Y-9928884D01*
X1347174Y-9989709D01*
X1541583Y-10020500D01*
X1541588Y-10020500D01*
X1738412Y-10020500D01*
X1738417Y-10020500D01*
X1932826Y-9989709D01*
X2120025Y-9928884D01*
X2295405Y-9839524D01*
X2454646Y-9723828D01*
X2593828Y-9584646D01*
X2709524Y-9425405D01*
X2777240Y-9292503D01*
X2828848Y-9235186D01*
X2902201Y-9211352D01*
X2977644Y-9227388D01*
X3034962Y-9278996D01*
X3042759Y-9292503D01*
X3110476Y-9425405D01*
X3226172Y-9584646D01*
X3365354Y-9723828D01*
X3524595Y-9839524D01*
X3699975Y-9928884D01*
X3887174Y-9989709D01*
X4081583Y-10020500D01*
X4081588Y-10020500D01*
X4278412Y-10020500D01*
X4278417Y-10020500D01*
X4472826Y-9989709D01*
X4660025Y-9928884D01*
X4835405Y-9839524D01*
X4994646Y-9723828D01*
X5133828Y-9584646D01*
X5249524Y-9425405D01*
X5261404Y-9402088D01*
X5313010Y-9344772D01*
X5386363Y-9320936D01*
X5461806Y-9336971D01*
X5519124Y-9388578D01*
X5526923Y-9402086D01*
X5565376Y-9477552D01*
X5574972Y-9490761D01*
X6222093Y-8843640D01*
X6254075Y-8962993D01*
X6319901Y-9077007D01*
X6412993Y-9170099D01*
X6527007Y-9235925D01*
X6646358Y-9267905D01*
X5999237Y-9915025D01*
X6012448Y-9924624D01*
X6201779Y-10021093D01*
X6403871Y-10086757D01*
X6613758Y-10120000D01*
X6826242Y-10120000D01*
X7036128Y-10086757D01*
X7238220Y-10021093D01*
X7427557Y-9924620D01*
X7440761Y-9915026D01*
X7440761Y-9915025D01*
X6793641Y-9267905D01*
X6912993Y-9235925D01*
X7027007Y-9170099D01*
X7120099Y-9077007D01*
X7185925Y-8962993D01*
X7217905Y-8843641D01*
X7865025Y-9490761D01*
X7865026Y-9490761D01*
X7874620Y-9477558D01*
X7913075Y-9402086D01*
X7964684Y-9344769D01*
X8038037Y-9320935D01*
X8113480Y-9336971D01*
X8170797Y-9388580D01*
X8178591Y-9402080D01*
X8190476Y-9425405D01*
X8306172Y-9584646D01*
X8445354Y-9723828D01*
X8604595Y-9839524D01*
X8779975Y-9928884D01*
X8935632Y-9979460D01*
X9000317Y-10021466D01*
X9035333Y-10090188D01*
X9031296Y-10167210D01*
X8994948Y-10226526D01*
X-7678375Y-26899848D01*
X-7745170Y-26938412D01*
X-7807041Y-26941655D01*
X-7831174Y-26937833D01*
X-7915356Y-26924500D01*
X-8084644Y-26924500D01*
X-8251847Y-26950982D01*
X-8412852Y-27003295D01*
X-8563687Y-27080151D01*
X-8563688Y-27080151D01*
X-8700640Y-27179653D01*
X-8700643Y-27179655D01*
X-8820345Y-27299357D01*
X-8820347Y-27299360D01*
X-8879456Y-27380717D01*
X-8939396Y-27429255D01*
X-9015575Y-27441321D01*
X-9087580Y-27413681D01*
X-9120544Y-27380717D01*
X-9131536Y-27365589D01*
X-9179654Y-27299359D01*
X-9299359Y-27179654D01*
X-9436315Y-27080150D01*
X-9485324Y-27055179D01*
X-9587149Y-27003295D01*
X-9694486Y-26968419D01*
X-9748153Y-26950982D01*
X-9915356Y-26924500D01*
X-10084644Y-26924500D01*
X-10251847Y-26950982D01*
X-10412852Y-27003295D01*
X-10563687Y-27080151D01*
X-10563688Y-27080151D01*
X-10700640Y-27179653D01*
X-10700643Y-27179655D01*
X-10820345Y-27299357D01*
X-10820347Y-27299360D01*
X-10919849Y-27436312D01*
X-10919849Y-27436313D01*
X-10996705Y-27587148D01*
X-11041589Y-27725289D01*
X-11049018Y-27748153D01*
X-11075500Y-27915356D01*
X-11075500Y-28084644D01*
X-11049018Y-28251846D01*
X-10996705Y-28412851D01*
X-10919849Y-28563686D01*
X-10919849Y-28563687D01*
X-10879456Y-28619283D01*
X-10820346Y-28700641D01*
X-10700641Y-28820346D01*
X-10563685Y-28919850D01*
X-10465669Y-28969791D01*
X-10412852Y-28996704D01*
X-10412850Y-28996704D01*
X-10412849Y-28996705D01*
X-10251847Y-29049018D01*
X-10084644Y-29075500D01*
X-10084639Y-29075500D01*
X-9915361Y-29075500D01*
X-9915356Y-29075500D01*
X-9748153Y-29049018D01*
X-9587151Y-28996705D01*
X-9436315Y-28919850D01*
X-9299359Y-28820346D01*
X-9179654Y-28700641D01*
X-9144684Y-28652509D01*
X-9120544Y-28619283D01*
X-9060604Y-28570744D01*
X-8984426Y-28558678D01*
X-8912421Y-28586318D01*
X-8879456Y-28619283D01*
X-8820352Y-28700634D01*
X-8820347Y-28700640D01*
X-8820346Y-28700641D01*
X-8700641Y-28820346D01*
X-8563685Y-28919850D01*
X-8465669Y-28969791D01*
X-8412852Y-28996704D01*
X-8412850Y-28996704D01*
X-8412849Y-28996705D01*
X-8251847Y-29049018D01*
X-8084644Y-29075500D01*
X-8084639Y-29075500D01*
X-7915361Y-29075500D01*
X-7915356Y-29075500D01*
X-7748153Y-29049018D01*
X-7587151Y-28996705D01*
X-7436315Y-28919850D01*
X-7299359Y-28820346D01*
X-7279471Y-28800457D01*
X-7212679Y-28761894D01*
X-7135551Y-28761892D01*
X-7068755Y-28800455D01*
X-7041353Y-28838170D01*
X-7003051Y-28913341D01*
X-7003050Y-28913342D01*
X-6913342Y-29003050D01*
X-6800304Y-29060646D01*
X-6706519Y-29075500D01*
X-5293482Y-29075499D01*
X-5199696Y-29060646D01*
X-5086658Y-29003050D01*
X-4996950Y-28913342D01*
X-4939354Y-28800304D01*
X-4924500Y-28706519D01*
X-4924501Y-27293482D01*
X-4939354Y-27199696D01*
X-4996950Y-27086658D01*
X-5086658Y-26996950D01*
X-5128581Y-26975589D01*
X-5199695Y-26939354D01*
X-5215327Y-26936878D01*
X-5293481Y-26924500D01*
X-5293486Y-26924500D01*
X-5786258Y-26924500D01*
X-5860758Y-26904538D01*
X-5915296Y-26850000D01*
X-5935258Y-26775500D01*
X-5915296Y-26701000D01*
X-5891617Y-26670141D01*
X-3672936Y-24451460D01*
X18199500Y-24451460D01*
X18199500Y-24648539D01*
X18237948Y-24841834D01*
X18237949Y-24841836D01*
X18313367Y-25023912D01*
X18313368Y-25023915D01*
X18369636Y-25108125D01*
X18422861Y-25187782D01*
X18562218Y-25327139D01*
X18657802Y-25391006D01*
X18726084Y-25436631D01*
X18726085Y-25436631D01*
X18726086Y-25436632D01*
X18908165Y-25512051D01*
X19101459Y-25550500D01*
X19101460Y-25550500D01*
X19298540Y-25550500D01*
X19298541Y-25550500D01*
X19491835Y-25512051D01*
X19673914Y-25436632D01*
X19837782Y-25327139D01*
X19977139Y-25187782D01*
X20086632Y-25023914D01*
X20162051Y-24841835D01*
X20200500Y-24648541D01*
X20200500Y-24451459D01*
X20162051Y-24258165D01*
X20086632Y-24076086D01*
X19977139Y-23912218D01*
X19837782Y-23772861D01*
X19782911Y-23736197D01*
X19673915Y-23663368D01*
X19673912Y-23663367D01*
X19491836Y-23587949D01*
X19491834Y-23587948D01*
X19336989Y-23557147D01*
X19298541Y-23549500D01*
X19101459Y-23549500D01*
X19069389Y-23555878D01*
X18908165Y-23587948D01*
X18908163Y-23587949D01*
X18726087Y-23663367D01*
X18726084Y-23663368D01*
X18562219Y-23772860D01*
X18562214Y-23772864D01*
X18422864Y-23912214D01*
X18422860Y-23912219D01*
X18313368Y-24076084D01*
X18313367Y-24076087D01*
X18237949Y-24258163D01*
X18237948Y-24258165D01*
X18199500Y-24451460D01*
X-3672936Y-24451460D01*
X1877064Y-18901460D01*
X8599500Y-18901460D01*
X8599500Y-19098539D01*
X8637948Y-19291834D01*
X8637949Y-19291836D01*
X8713367Y-19473912D01*
X8713368Y-19473915D01*
X8786197Y-19582911D01*
X8822861Y-19637782D01*
X8962218Y-19777139D01*
X9067090Y-19847212D01*
X9126084Y-19886631D01*
X9126085Y-19886631D01*
X9126086Y-19886632D01*
X9308165Y-19962051D01*
X9501459Y-20000500D01*
X9501460Y-20000500D01*
X9698540Y-20000500D01*
X9698541Y-20000500D01*
X9891835Y-19962051D01*
X10073914Y-19886632D01*
X10237782Y-19777139D01*
X10377139Y-19637782D01*
X10486632Y-19473914D01*
X10562051Y-19291835D01*
X10600500Y-19098541D01*
X10600500Y-18901459D01*
X10598185Y-18889822D01*
X14600000Y-18889822D01*
X14600000Y-19110177D01*
X14634474Y-19327840D01*
X14702567Y-19537406D01*
X14702571Y-19537418D01*
X14802614Y-19733761D01*
X14819176Y-19756557D01*
X14819177Y-19756558D01*
X15502093Y-19073640D01*
X15534075Y-19192993D01*
X15599901Y-19307007D01*
X15692993Y-19400099D01*
X15807007Y-19465925D01*
X15926358Y-19497905D01*
X15243441Y-20180822D01*
X15266236Y-20197384D01*
X15266238Y-20197385D01*
X15462581Y-20297428D01*
X15462593Y-20297432D01*
X15672160Y-20365525D01*
X15672159Y-20365525D01*
X15889823Y-20400000D01*
X16110177Y-20400000D01*
X16327840Y-20365525D01*
X16537406Y-20297432D01*
X16537423Y-20297425D01*
X16733751Y-20197392D01*
X16733762Y-20197385D01*
X16756557Y-20180822D01*
X16756557Y-20180821D01*
X16073641Y-19497905D01*
X16192993Y-19465925D01*
X16307007Y-19400099D01*
X16400099Y-19307007D01*
X16465925Y-19192993D01*
X16497905Y-19073641D01*
X17180821Y-19756557D01*
X17180822Y-19756557D01*
X17197385Y-19733762D01*
X17197392Y-19733751D01*
X17297425Y-19537423D01*
X17297432Y-19537406D01*
X17365525Y-19327840D01*
X17400000Y-19110177D01*
X17400000Y-18897648D01*
X22449500Y-18897648D01*
X22449500Y-19102352D01*
X22479512Y-19291835D01*
X22481523Y-19304534D01*
X22544778Y-19499212D01*
X22544782Y-19499224D01*
X22637714Y-19681612D01*
X22758028Y-19847212D01*
X22758035Y-19847220D01*
X22902779Y-19991964D01*
X22902787Y-19991971D01*
X23008800Y-20068993D01*
X23068390Y-20112287D01*
X23250781Y-20205220D01*
X23445466Y-20268477D01*
X23647648Y-20300500D01*
X23647653Y-20300500D01*
X23852347Y-20300500D01*
X23852352Y-20300500D01*
X24054534Y-20268477D01*
X24249219Y-20205220D01*
X24431610Y-20112287D01*
X24597219Y-19991966D01*
X24741966Y-19847219D01*
X24862287Y-19681610D01*
X24955220Y-19499219D01*
X25018477Y-19304534D01*
X25050500Y-19102352D01*
X25050500Y-18897648D01*
X25018477Y-18695466D01*
X24955220Y-18500781D01*
X24862287Y-18318390D01*
X24862285Y-18318387D01*
X24741971Y-18152787D01*
X24741964Y-18152779D01*
X24597220Y-18008035D01*
X24597212Y-18008028D01*
X24431612Y-17887714D01*
X24249224Y-17794782D01*
X24249220Y-17794780D01*
X24249219Y-17794780D01*
X24054534Y-17731523D01*
X23852352Y-17699500D01*
X23647648Y-17699500D01*
X23479163Y-17726185D01*
X23445465Y-17731523D01*
X23250787Y-17794778D01*
X23250775Y-17794782D01*
X23068387Y-17887714D01*
X22902787Y-18008028D01*
X22902779Y-18008035D01*
X22758035Y-18152779D01*
X22758028Y-18152787D01*
X22637714Y-18318387D01*
X22544782Y-18500775D01*
X22544778Y-18500787D01*
X22482327Y-18692993D01*
X22481523Y-18695466D01*
X22449500Y-18897648D01*
X17400000Y-18897648D01*
X17400000Y-18889822D01*
X17365525Y-18672159D01*
X17297432Y-18462593D01*
X17297428Y-18462581D01*
X17197385Y-18266238D01*
X17197384Y-18266236D01*
X17180822Y-18243441D01*
X16497905Y-18926357D01*
X16465925Y-18807007D01*
X16400099Y-18692993D01*
X16307007Y-18599901D01*
X16192993Y-18534075D01*
X16073640Y-18502093D01*
X16756558Y-17819177D01*
X16756557Y-17819176D01*
X16733761Y-17802614D01*
X16537418Y-17702571D01*
X16537406Y-17702567D01*
X16327839Y-17634474D01*
X16327840Y-17634474D01*
X16110177Y-17600000D01*
X15889823Y-17600000D01*
X15672159Y-17634474D01*
X15462593Y-17702567D01*
X15462581Y-17702571D01*
X15266239Y-17802614D01*
X15266234Y-17802617D01*
X15243441Y-17819176D01*
X15926358Y-18502094D01*
X15807007Y-18534075D01*
X15692993Y-18599901D01*
X15599901Y-18692993D01*
X15534075Y-18807007D01*
X15502094Y-18926358D01*
X14819176Y-18243441D01*
X14802617Y-18266234D01*
X14802614Y-18266239D01*
X14702571Y-18462581D01*
X14702567Y-18462593D01*
X14634474Y-18672159D01*
X14600000Y-18889822D01*
X10598185Y-18889822D01*
X10562051Y-18708165D01*
X10486632Y-18526086D01*
X10377139Y-18362218D01*
X10237782Y-18222861D01*
X10132897Y-18152779D01*
X10073915Y-18113368D01*
X10073912Y-18113367D01*
X9891836Y-18037949D01*
X9891834Y-18037948D01*
X9822801Y-18024217D01*
X9698541Y-17999500D01*
X9501459Y-17999500D01*
X9469389Y-18005878D01*
X9308165Y-18037948D01*
X9308163Y-18037949D01*
X9126087Y-18113367D01*
X9126084Y-18113368D01*
X8962219Y-18222860D01*
X8962214Y-18222864D01*
X8822864Y-18362214D01*
X8822860Y-18362219D01*
X8713368Y-18526084D01*
X8713367Y-18526087D01*
X8637949Y-18708163D01*
X8637948Y-18708165D01*
X8599500Y-18901460D01*
X1877064Y-18901460D01*
X1989744Y-18788780D01*
X3178524Y-17600000D01*
X7427063Y-13351460D01*
X18199500Y-13351460D01*
X18199500Y-13548539D01*
X18237948Y-13741834D01*
X18237949Y-13741836D01*
X18313367Y-13923912D01*
X18313368Y-13923915D01*
X18386197Y-14032911D01*
X18422861Y-14087782D01*
X18562218Y-14227139D01*
X18671215Y-14299968D01*
X18726084Y-14336631D01*
X18726085Y-14336631D01*
X18726086Y-14336632D01*
X18908165Y-14412051D01*
X19101459Y-14450500D01*
X19101460Y-14450500D01*
X19298540Y-14450500D01*
X19298541Y-14450500D01*
X19491835Y-14412051D01*
X19673914Y-14336632D01*
X19837782Y-14227139D01*
X19977139Y-14087782D01*
X20086632Y-13923914D01*
X20162051Y-13741835D01*
X20200500Y-13548541D01*
X20200500Y-13351459D01*
X20162051Y-13158165D01*
X20086632Y-12976086D01*
X19977139Y-12812218D01*
X19837782Y-12672861D01*
X19727566Y-12599217D01*
X19673915Y-12563368D01*
X19673912Y-12563367D01*
X19491836Y-12487949D01*
X19491834Y-12487948D01*
X19336989Y-12457147D01*
X19298541Y-12449500D01*
X19101459Y-12449500D01*
X19069389Y-12455878D01*
X18908165Y-12487948D01*
X18908163Y-12487949D01*
X18726087Y-12563367D01*
X18726084Y-12563368D01*
X18562219Y-12672860D01*
X18562214Y-12672864D01*
X18422864Y-12812214D01*
X18422860Y-12812219D01*
X18313368Y-12976084D01*
X18313367Y-12976087D01*
X18237949Y-13158163D01*
X18237948Y-13158165D01*
X18199500Y-13351460D01*
X7427063Y-13351460D01*
X10935532Y-9842991D01*
X11002325Y-9804429D01*
X11079453Y-9804429D01*
X11128469Y-9827808D01*
X11144595Y-9839524D01*
X11319975Y-9928884D01*
X11507174Y-9989709D01*
X11701583Y-10020500D01*
X11701588Y-10020500D01*
X11898412Y-10020500D01*
X11898417Y-10020500D01*
X12092826Y-9989709D01*
X12280025Y-9928884D01*
X12455405Y-9839524D01*
X12614646Y-9723828D01*
X12753828Y-9584646D01*
X12869524Y-9425405D01*
X12937240Y-9292503D01*
X12988848Y-9235186D01*
X13062201Y-9211352D01*
X13137644Y-9227388D01*
X13194962Y-9278996D01*
X13202759Y-9292503D01*
X13270476Y-9425405D01*
X13386172Y-9584646D01*
X13525354Y-9723828D01*
X13684595Y-9839524D01*
X13859975Y-9928884D01*
X14047174Y-9989709D01*
X14241583Y-10020500D01*
X14241588Y-10020500D01*
X14438412Y-10020500D01*
X14438417Y-10020500D01*
X14632826Y-9989709D01*
X14820025Y-9928884D01*
X14995405Y-9839524D01*
X15154646Y-9723828D01*
X15293828Y-9584646D01*
X15409524Y-9425405D01*
X15421404Y-9402088D01*
X15473010Y-9344772D01*
X15546363Y-9320936D01*
X15621806Y-9336971D01*
X15679124Y-9388578D01*
X15686923Y-9402086D01*
X15725376Y-9477552D01*
X15734972Y-9490761D01*
X16382093Y-8843640D01*
X16414075Y-8962993D01*
X16479901Y-9077007D01*
X16572993Y-9170099D01*
X16687007Y-9235925D01*
X16806358Y-9267905D01*
X16159237Y-9915025D01*
X16172448Y-9924624D01*
X16361779Y-10021093D01*
X16563871Y-10086757D01*
X16773758Y-10120000D01*
X16986242Y-10120000D01*
X17196128Y-10086757D01*
X17398220Y-10021093D01*
X17587557Y-9924620D01*
X17600761Y-9915026D01*
X17600761Y-9915025D01*
X16953641Y-9267905D01*
X17072993Y-9235925D01*
X17187007Y-9170099D01*
X17280099Y-9077007D01*
X17345925Y-8962993D01*
X17377905Y-8843641D01*
X18025025Y-9490761D01*
X18025026Y-9490761D01*
X18034620Y-9477558D01*
X18073075Y-9402086D01*
X18124684Y-9344769D01*
X18198037Y-9320935D01*
X18273480Y-9336971D01*
X18330797Y-9388580D01*
X18338591Y-9402080D01*
X18350476Y-9425405D01*
X18466172Y-9584646D01*
X18605354Y-9723828D01*
X18764595Y-9839524D01*
X18939975Y-9928884D01*
X19127174Y-9989709D01*
X19321583Y-10020500D01*
X19321588Y-10020500D01*
X19518412Y-10020500D01*
X19518417Y-10020500D01*
X19712826Y-9989709D01*
X19900025Y-9928884D01*
X20075405Y-9839524D01*
X20234646Y-9723828D01*
X20373828Y-9584646D01*
X20489524Y-9425405D01*
X20557240Y-9292503D01*
X20608848Y-9235186D01*
X20682201Y-9211352D01*
X20757644Y-9227388D01*
X20814962Y-9278996D01*
X20822759Y-9292503D01*
X20890476Y-9425405D01*
X21006172Y-9584646D01*
X21145354Y-9723828D01*
X21304595Y-9839524D01*
X21479975Y-9928884D01*
X21667174Y-9989709D01*
X21861583Y-10020500D01*
X21861588Y-10020500D01*
X22058412Y-10020500D01*
X22058417Y-10020500D01*
X22252826Y-9989709D01*
X22440025Y-9928884D01*
X22615405Y-9839524D01*
X22774646Y-9723828D01*
X22913828Y-9584646D01*
X23029524Y-9425405D01*
X23097240Y-9292503D01*
X23148848Y-9235186D01*
X23222201Y-9211352D01*
X23297644Y-9227388D01*
X23354962Y-9278996D01*
X23362759Y-9292503D01*
X23430476Y-9425405D01*
X23546172Y-9584646D01*
X23685354Y-9723828D01*
X23844595Y-9839524D01*
X24019975Y-9928884D01*
X24207174Y-9989709D01*
X24401583Y-10020500D01*
X24401588Y-10020500D01*
X24598412Y-10020500D01*
X24598417Y-10020500D01*
X24792826Y-9989709D01*
X24980025Y-9928884D01*
X25155405Y-9839524D01*
X25314646Y-9723828D01*
X25453828Y-9584646D01*
X25569524Y-9425405D01*
X25581404Y-9402088D01*
X25633010Y-9344772D01*
X25706363Y-9320936D01*
X25781806Y-9336971D01*
X25839124Y-9388578D01*
X25846923Y-9402086D01*
X25885376Y-9477552D01*
X25894972Y-9490761D01*
X26542093Y-8843640D01*
X26574075Y-8962993D01*
X26639901Y-9077007D01*
X26732993Y-9170099D01*
X26847007Y-9235925D01*
X26966358Y-9267905D01*
X26319237Y-9915025D01*
X26332448Y-9924624D01*
X26521779Y-10021093D01*
X26723871Y-10086757D01*
X26933758Y-10120000D01*
X27146242Y-10120000D01*
X27356128Y-10086757D01*
X27558220Y-10021093D01*
X27747557Y-9924620D01*
X27760761Y-9915026D01*
X27760761Y-9915025D01*
X27113641Y-9267905D01*
X27232993Y-9235925D01*
X27347007Y-9170099D01*
X27440099Y-9077007D01*
X27505925Y-8962993D01*
X27537905Y-8843641D01*
X28185025Y-9490761D01*
X28185026Y-9490761D01*
X28194620Y-9477557D01*
X28291093Y-9288220D01*
X28356757Y-9086128D01*
X28390000Y-8876242D01*
X28390000Y-8663757D01*
X28356757Y-8453871D01*
X28291093Y-8251779D01*
X28194624Y-8062448D01*
X28185025Y-8049237D01*
X27537905Y-8696357D01*
X27505925Y-8577007D01*
X27440099Y-8462993D01*
X27347007Y-8369901D01*
X27232993Y-8304075D01*
X27113640Y-8272093D01*
X27760761Y-7624972D01*
X27754665Y-7620544D01*
X27706126Y-7560604D01*
X27694060Y-7484426D01*
X27721699Y-7412420D01*
X27754661Y-7379458D01*
X27760761Y-7375025D01*
X27113641Y-6727905D01*
X27232993Y-6695925D01*
X27347007Y-6630099D01*
X27440099Y-6537007D01*
X27505925Y-6422993D01*
X27537905Y-6303641D01*
X28185025Y-6950761D01*
X28185026Y-6950761D01*
X28194620Y-6937557D01*
X28291093Y-6748220D01*
X28356757Y-6546128D01*
X28390000Y-6336242D01*
X28390000Y-6123757D01*
X28356757Y-5913871D01*
X28291093Y-5711779D01*
X28194624Y-5522448D01*
X28185025Y-5509237D01*
X27537905Y-6156357D01*
X27505925Y-6037007D01*
X27440099Y-5922993D01*
X27347007Y-5829901D01*
X27232993Y-5764075D01*
X27113640Y-5732093D01*
X27760761Y-5084972D01*
X27747554Y-5075377D01*
X27558220Y-4978906D01*
X27356128Y-4913242D01*
X27146242Y-4880000D01*
X26933758Y-4880000D01*
X26723871Y-4913242D01*
X26521779Y-4978906D01*
X26332443Y-5075378D01*
X26319237Y-5084972D01*
X26966358Y-5732094D01*
X26847007Y-5764075D01*
X26732993Y-5829901D01*
X26639901Y-5922993D01*
X26574075Y-6037007D01*
X26542094Y-6156358D01*
X25894972Y-5509237D01*
X25885378Y-5522444D01*
X25846923Y-5597914D01*
X25795313Y-5655230D01*
X25721960Y-5679063D01*
X25646517Y-5663026D01*
X25589201Y-5611416D01*
X25581411Y-5597926D01*
X25569524Y-5574595D01*
X25453828Y-5415354D01*
X25314646Y-5276172D01*
X25155405Y-5160476D01*
X25145010Y-5155179D01*
X24980036Y-5071121D01*
X24980030Y-5071119D01*
X24980025Y-5071116D01*
X24792826Y-5010291D01*
X24598417Y-4979500D01*
X24401583Y-4979500D01*
X24207174Y-5010291D01*
X24019975Y-5071116D01*
X24019972Y-5071117D01*
X24019963Y-5071121D01*
X23844598Y-5160474D01*
X23844593Y-5160477D01*
X23685363Y-5276165D01*
X23685352Y-5276174D01*
X23546174Y-5415352D01*
X23546165Y-5415363D01*
X23430477Y-5574593D01*
X23430474Y-5574598D01*
X23362760Y-5707495D01*
X23311151Y-5764813D01*
X23237798Y-5788647D01*
X23162356Y-5772611D01*
X23105038Y-5721002D01*
X23097240Y-5707495D01*
X23048285Y-5611416D01*
X23029524Y-5574595D01*
X22913828Y-5415354D01*
X22774646Y-5276172D01*
X22615405Y-5160476D01*
X22605010Y-5155179D01*
X22440036Y-5071121D01*
X22440030Y-5071119D01*
X22440025Y-5071116D01*
X22252826Y-5010291D01*
X22058417Y-4979500D01*
X21861583Y-4979500D01*
X21667174Y-5010291D01*
X21479975Y-5071116D01*
X21479972Y-5071117D01*
X21479963Y-5071121D01*
X21304598Y-5160474D01*
X21304593Y-5160477D01*
X21145363Y-5276165D01*
X21145352Y-5276174D01*
X21006174Y-5415352D01*
X21006165Y-5415363D01*
X20890477Y-5574593D01*
X20890474Y-5574598D01*
X20822760Y-5707495D01*
X20771151Y-5764813D01*
X20697798Y-5788647D01*
X20622356Y-5772611D01*
X20565038Y-5721002D01*
X20557240Y-5707495D01*
X20508285Y-5611416D01*
X20489524Y-5574595D01*
X20373828Y-5415354D01*
X20234646Y-5276172D01*
X20075405Y-5160476D01*
X20065010Y-5155179D01*
X19900036Y-5071121D01*
X19900030Y-5071119D01*
X19900025Y-5071116D01*
X19712826Y-5010291D01*
X19518417Y-4979500D01*
X19321583Y-4979500D01*
X19127174Y-5010291D01*
X18939975Y-5071116D01*
X18939972Y-5071117D01*
X18939963Y-5071121D01*
X18764598Y-5160474D01*
X18764593Y-5160477D01*
X18605363Y-5276165D01*
X18605352Y-5276174D01*
X18466174Y-5415352D01*
X18466165Y-5415363D01*
X18350477Y-5574593D01*
X18350474Y-5574598D01*
X18282760Y-5707495D01*
X18231151Y-5764813D01*
X18157798Y-5788647D01*
X18082356Y-5772611D01*
X18025038Y-5721002D01*
X18017240Y-5707495D01*
X17968285Y-5611416D01*
X17949524Y-5574595D01*
X17833828Y-5415354D01*
X17694646Y-5276172D01*
X17535405Y-5160476D01*
X17525010Y-5155179D01*
X17360036Y-5071121D01*
X17360030Y-5071119D01*
X17360025Y-5071116D01*
X17172826Y-5010291D01*
X16978417Y-4979500D01*
X16781583Y-4979500D01*
X16587174Y-5010291D01*
X16399975Y-5071116D01*
X16399972Y-5071117D01*
X16399963Y-5071121D01*
X16224598Y-5160474D01*
X16224593Y-5160477D01*
X16065363Y-5276165D01*
X16065352Y-5276174D01*
X15926174Y-5415352D01*
X15926165Y-5415363D01*
X15810477Y-5574593D01*
X15810474Y-5574598D01*
X15742760Y-5707495D01*
X15691151Y-5764813D01*
X15617798Y-5788647D01*
X15542356Y-5772611D01*
X15485038Y-5721002D01*
X15477240Y-5707495D01*
X15428285Y-5611416D01*
X15409524Y-5574595D01*
X15293828Y-5415354D01*
X15154646Y-5276172D01*
X14995405Y-5160476D01*
X14985010Y-5155179D01*
X14820036Y-5071121D01*
X14820030Y-5071119D01*
X14820025Y-5071116D01*
X14632826Y-5010291D01*
X14438417Y-4979500D01*
X14241583Y-4979500D01*
X14047174Y-5010291D01*
X13859975Y-5071116D01*
X13859972Y-5071117D01*
X13859963Y-5071121D01*
X13684598Y-5160474D01*
X13684593Y-5160477D01*
X13525363Y-5276165D01*
X13525352Y-5276174D01*
X13386174Y-5415352D01*
X13386165Y-5415363D01*
X13270477Y-5574593D01*
X13270474Y-5574598D01*
X13202760Y-5707495D01*
X13151151Y-5764813D01*
X13077798Y-5788647D01*
X13002356Y-5772611D01*
X12945038Y-5721002D01*
X12937240Y-5707495D01*
X12888285Y-5611416D01*
X12869524Y-5574595D01*
X12753828Y-5415354D01*
X12614646Y-5276172D01*
X12455405Y-5160476D01*
X12445010Y-5155179D01*
X12280036Y-5071121D01*
X12280030Y-5071119D01*
X12280025Y-5071116D01*
X12092826Y-5010291D01*
X11898417Y-4979500D01*
X11701583Y-4979500D01*
X11507174Y-5010291D01*
X11319975Y-5071116D01*
X11319972Y-5071117D01*
X11319963Y-5071121D01*
X11144598Y-5160474D01*
X11144593Y-5160477D01*
X10985363Y-5276165D01*
X10985352Y-5276174D01*
X10846174Y-5415352D01*
X10846165Y-5415363D01*
X10730477Y-5574593D01*
X10730474Y-5574598D01*
X10662760Y-5707495D01*
X10611151Y-5764813D01*
X10537798Y-5788647D01*
X10462356Y-5772611D01*
X10405038Y-5721002D01*
X10397240Y-5707495D01*
X10348285Y-5611416D01*
X10329524Y-5574595D01*
X10213828Y-5415354D01*
X10074646Y-5276172D01*
X9915405Y-5160476D01*
X9905010Y-5155179D01*
X9740036Y-5071121D01*
X9740030Y-5071119D01*
X9740025Y-5071116D01*
X9552826Y-5010291D01*
X9358417Y-4979500D01*
X9161583Y-4979500D01*
X9057220Y-4996029D01*
X8967176Y-5010290D01*
X8942036Y-5018459D01*
X8865014Y-5022495D01*
X8796292Y-4987479D01*
X8790635Y-4982110D01*
X868015Y2940510D01*
X742485Y3012984D01*
X686023Y3028113D01*
X686021Y3028114D01*
X686019Y3028115D01*
X602477Y3050500D01*
X602475Y3050500D01*
X-21210258Y3050500D01*
X-21284758Y3070462D01*
X-21315617Y3094141D01*
X-26161987Y7940512D01*
X-26211377Y7969027D01*
X-26287517Y8012986D01*
X-26427527Y8050502D01*
X-31204979Y8050502D01*
X-31279479Y8070464D01*
X-31334017Y8125002D01*
X-31353979Y8199502D01*
X-31342638Y8256520D01*
X-31326420Y8295672D01*
X-31299500Y8431007D01*
X-31299500Y8568993D01*
X-31326420Y8704328D01*
X-31379225Y8831811D01*
X-31436294Y8917220D01*
X-31461086Y8990254D01*
X-31446040Y9065900D01*
X-31436293Y9082781D01*
X-31390723Y9150981D01*
X-31379225Y9168189D01*
X-31326420Y9295672D01*
X-31299500Y9431007D01*
X-31299500Y9568993D01*
X-31326420Y9704328D01*
X-31379225Y9831811D01*
X-31436294Y9917220D01*
X-31461086Y9990254D01*
X-31446040Y10065900D01*
X-31436293Y10082781D01*
X-31390723Y10150981D01*
X-31379225Y10168189D01*
X-31326420Y10295672D01*
X-31299500Y10431007D01*
X-31299500Y10568993D01*
X-31326420Y10704328D01*
X-31379225Y10831811D01*
X-31436294Y10917220D01*
X-31461086Y10990254D01*
X-31446040Y11065900D01*
X-31436293Y11082781D01*
X-31390723Y11150981D01*
X-31379225Y11168189D01*
X-31326420Y11295672D01*
X-31299500Y11431007D01*
X-31299500Y11568993D01*
X-31326420Y11704328D01*
X-31379225Y11831811D01*
X-31436294Y11917220D01*
X-31461086Y11990254D01*
X-31446040Y12065900D01*
X-31436300Y12082771D01*
X-31379225Y12168189D01*
X-31326420Y12295672D01*
X-31299500Y12431006D01*
X-31299500Y12568994D01*
X-24200500Y12568994D01*
X-24200500Y12431007D01*
X-24173581Y12295675D01*
X-24173580Y12295671D01*
X-24120776Y12168191D01*
X-24120773Y12168185D01*
X-24044117Y12053462D01*
X-24044114Y12053458D01*
X-23946542Y11955886D01*
X-23946539Y11955884D01*
X-23831816Y11879228D01*
X-23831814Y11879227D01*
X-23831811Y11879225D01*
X-23704328Y11826420D01*
X-23568993Y11799500D01*
X-23431007Y11799500D01*
X-23295672Y11826420D01*
X-23168189Y11879225D01*
X-23053458Y11955886D01*
X-22955886Y12053458D01*
X-22879225Y12168189D01*
X-22826420Y12295672D01*
X-22810561Y12375405D01*
X-22776449Y12444577D01*
X-22769798Y12451679D01*
X-21451692Y13769785D01*
X-21384899Y13808347D01*
X-21375413Y13810559D01*
X-21295672Y13826420D01*
X-21168189Y13879225D01*
X-21053458Y13955886D01*
X-20955886Y14053458D01*
X-20879225Y14168189D01*
X-20826420Y14295672D01*
X-20799500Y14431007D01*
X-20799500Y14568993D01*
X-20826420Y14704328D01*
X-20879225Y14831811D01*
X-20880398Y14833566D01*
X-20955884Y14946539D01*
X-20955886Y14946542D01*
X-21053458Y15044114D01*
X-21098233Y15074032D01*
X-21168185Y15120773D01*
X-21168191Y15120776D01*
X-21295671Y15173580D01*
X-21295675Y15173581D01*
X-21431007Y15200500D01*
X-21568993Y15200500D01*
X-21704326Y15173581D01*
X-21704330Y15173580D01*
X-21831810Y15120776D01*
X-21831816Y15120773D01*
X-21946539Y15044117D01*
X-21946546Y15044111D01*
X-22044111Y14946546D01*
X-22044117Y14946539D01*
X-22120773Y14831816D01*
X-22120776Y14831810D01*
X-22173580Y14704330D01*
X-22173583Y14704321D01*
X-22189442Y14624596D01*
X-22223556Y14555422D01*
X-22230219Y14548308D01*
X-23548308Y13230219D01*
X-23615103Y13191655D01*
X-23624596Y13189442D01*
X-23704321Y13173583D01*
X-23704330Y13173580D01*
X-23831810Y13120776D01*
X-23831816Y13120773D01*
X-23946539Y13044117D01*
X-23946546Y13044111D01*
X-24044111Y12946546D01*
X-24044117Y12946539D01*
X-24120773Y12831816D01*
X-24120776Y12831810D01*
X-24173580Y12704330D01*
X-24173581Y12704326D01*
X-24200500Y12568994D01*
X-31299500Y12568994D01*
X-31326420Y12704329D01*
X-31357571Y12779534D01*
X-31379223Y12831808D01*
X-31379228Y12831816D01*
X-31455886Y12946543D01*
X-31553457Y13044114D01*
X-31668189Y13120775D01*
X-31668188Y13120775D01*
X-31668193Y13120778D01*
X-31795670Y13173580D01*
X-31795674Y13173581D01*
X-31931006Y13200500D01*
X-32068994Y13200500D01*
X-32076333Y13200500D01*
X-32076373Y13200498D01*
X-32104800Y13200498D01*
X-32179300Y13220460D01*
X-32233838Y13274998D01*
X-32253800Y13349498D01*
X-32253801Y13849015D01*
X-32258586Y13879228D01*
X-32268654Y13942800D01*
X-32268656Y13942803D01*
X-32268656Y13942806D01*
X-32272279Y13953959D01*
X-32276313Y14030982D01*
X-32272276Y14046044D01*
X-32268655Y14057188D01*
X-32268655Y14057189D01*
X-32268654Y14057190D01*
X-32253800Y14150975D01*
X-32253801Y14833567D01*
X-32233839Y14908066D01*
X-32224079Y14922862D01*
X-32210947Y14940404D01*
X-32160702Y15075115D01*
X-32154302Y15134650D01*
X-32154300Y15134670D01*
X-32154300Y15199992D01*
X-32497394Y15199992D01*
X-32520702Y15201826D01*
X-32528995Y15203140D01*
X-32528996Y15203140D01*
X-32622781Y15217994D01*
X-32622786Y15217994D01*
X-34489219Y15217994D01*
X-34552075Y15208039D01*
X-34583004Y15203140D01*
X-34583006Y15203140D01*
X-34588127Y15202328D01*
X-34611435Y15200494D01*
X-35382307Y15200494D01*
X-35456807Y15220456D01*
X-35465087Y15225605D01*
X-35573452Y15298013D01*
X-35573454Y15298014D01*
X-35737333Y15365894D01*
X-35737337Y15365895D01*
X-35911309Y15400500D01*
X-36088691Y15400500D01*
X-36262664Y15365895D01*
X-36262668Y15365894D01*
X-36426547Y15298014D01*
X-36426549Y15298013D01*
X-36574032Y15199467D01*
X-36574037Y15199463D01*
X-36699463Y15074037D01*
X-36699467Y15074032D01*
X-36798013Y14926549D01*
X-36798014Y14926547D01*
X-36865894Y14762668D01*
X-36865895Y14762664D01*
X-36900500Y14588692D01*
X-36900500Y14411308D01*
X-36893987Y14378563D01*
X-36899032Y14301600D01*
X-36941882Y14237471D01*
X-37011057Y14203359D01*
X-37040124Y14200496D01*
X-37949500Y14200496D01*
X-38024000Y14220458D01*
X-38078538Y14274996D01*
X-38098500Y14349496D01*
X-38098500Y15865315D01*
X-34957700Y15865315D01*
X-34957700Y15799992D01*
X-33856000Y15799992D01*
X-33856000Y16317492D01*
X-34505523Y16317492D01*
X-34505543Y16317491D01*
X-34565078Y16311091D01*
X-34699785Y16260847D01*
X-34699795Y16260842D01*
X-34814888Y16174683D01*
X-34814891Y16174680D01*
X-34901050Y16059587D01*
X-34901055Y16059577D01*
X-34951299Y15924870D01*
X-34957699Y15865335D01*
X-34957700Y15865315D01*
X-38098500Y15865315D01*
X-38098500Y16506763D01*
X-33384599Y16506763D01*
X-33380914Y16472493D01*
X-33370674Y16463295D01*
X-33330500Y16452530D01*
X-33275962Y16397992D01*
X-33256000Y16323492D01*
X-33256000Y15799992D01*
X-32154300Y15799992D01*
X-32154300Y15865315D01*
X-32154302Y15865335D01*
X-32156918Y15889676D01*
X-32145034Y15965883D01*
X-32096638Y16025938D01*
X-32024699Y16053749D01*
X-32008772Y16054603D01*
X-31685999Y16054603D01*
X-31085999Y16054603D01*
X-29839576Y16054603D01*
X-29839557Y16054605D01*
X-29780022Y16061005D01*
X-29645315Y16111249D01*
X-29645305Y16111254D01*
X-29530212Y16197413D01*
X-29530209Y16197416D01*
X-29444050Y16312509D01*
X-29444045Y16312519D01*
X-29393801Y16447226D01*
X-29387401Y16506761D01*
X-29387399Y16506781D01*
X-29387399Y17550003D01*
X-31085999Y17550003D01*
X-31085999Y16054603D01*
X-31685999Y16054603D01*
X-31685999Y17550003D01*
X-33384599Y17550003D01*
X-33384599Y16506763D01*
X-38098500Y16506763D01*
X-38098500Y18821535D01*
X-38078538Y18896035D01*
X-38024000Y18950573D01*
X-37949500Y18970535D01*
X-37875000Y18950573D01*
X-37861920Y18942079D01*
X-37714108Y18834688D01*
X-37523018Y18737323D01*
X-37523015Y18737321D01*
X-37319053Y18671050D01*
X-37107226Y18637500D01*
X-36892774Y18637500D01*
X-36680948Y18671050D01*
X-36476986Y18737321D01*
X-36476983Y18737323D01*
X-36285895Y18834687D01*
X-36285887Y18834692D01*
X-36270290Y18846025D01*
X-36270289Y18846025D01*
X-36617490Y19193226D01*
X-33384599Y19193226D01*
X-33384599Y18150003D01*
X-31685999Y18150003D01*
X-31085999Y18150003D01*
X-29387399Y18150003D01*
X-29387399Y19193226D01*
X-29387401Y19193246D01*
X-29393801Y19252781D01*
X-29444045Y19387488D01*
X-29444050Y19387498D01*
X-29530209Y19502591D01*
X-29530212Y19502594D01*
X-29645305Y19588753D01*
X-29645315Y19588758D01*
X-29780023Y19639002D01*
X-29780021Y19639002D01*
X-29839557Y19645402D01*
X-29839576Y19645403D01*
X-31085999Y19645403D01*
X-31085999Y18150003D01*
X-31685999Y18150003D01*
X-31685999Y19645403D01*
X-32932422Y19645403D01*
X-32932442Y19645402D01*
X-32991977Y19639002D01*
X-33126684Y19588758D01*
X-33126694Y19588753D01*
X-33241787Y19502594D01*
X-33241790Y19502591D01*
X-33327949Y19387498D01*
X-33327954Y19387488D01*
X-33378198Y19252781D01*
X-33384598Y19193246D01*
X-33384599Y19193226D01*
X-36617490Y19193226D01*
X-36865121Y19440857D01*
X-36778058Y19464185D01*
X-36646942Y19539885D01*
X-36539885Y19646942D01*
X-36464185Y19778058D01*
X-36440857Y19865121D01*
X-35846026Y19270290D01*
X-35835476Y19284807D01*
X-35835475Y19284809D01*
X-35834694Y19285883D01*
X-35834687Y19285895D01*
X-35737323Y19476983D01*
X-35737321Y19476986D01*
X-35671050Y19680948D01*
X-35637500Y19892774D01*
X-35637500Y20107227D01*
X-35671050Y20319053D01*
X-35737321Y20523015D01*
X-35737323Y20523018D01*
X-35834688Y20714109D01*
X-35846025Y20729712D01*
X-35846026Y20729712D01*
X-36440858Y20134881D01*
X-36464185Y20221942D01*
X-36539885Y20353058D01*
X-36646942Y20460115D01*
X-36778058Y20535815D01*
X-36865123Y20559144D01*
X-36617492Y20806775D01*
X-33384599Y20806775D01*
X-33384598Y20806755D01*
X-33378198Y20747220D01*
X-33327954Y20612513D01*
X-33327949Y20612503D01*
X-33241790Y20497410D01*
X-33241787Y20497407D01*
X-33126694Y20411248D01*
X-33126684Y20411243D01*
X-32991976Y20360999D01*
X-32991978Y20360999D01*
X-32932442Y20354599D01*
X-32932422Y20354597D01*
X-31685999Y20354597D01*
X-31085999Y20354597D01*
X-29839576Y20354597D01*
X-29839557Y20354599D01*
X-29780022Y20360999D01*
X-29645315Y20411243D01*
X-29645305Y20411248D01*
X-29530212Y20497407D01*
X-29530209Y20497410D01*
X-29444050Y20612503D01*
X-29444045Y20612513D01*
X-29393801Y20747220D01*
X-29387401Y20806755D01*
X-29387399Y20806775D01*
X-29387399Y21849997D01*
X-31085999Y21849997D01*
X-31085999Y20354597D01*
X-31685999Y20354597D01*
X-31685999Y21849997D01*
X-33384599Y21849997D01*
X-33384599Y20806775D01*
X-36617492Y20806775D01*
X-36270290Y21153977D01*
X-36285891Y21165312D01*
X-36285893Y21165313D01*
X-36476983Y21262678D01*
X-36476986Y21262680D01*
X-36680948Y21328951D01*
X-36892774Y21362500D01*
X-37107226Y21362500D01*
X-37319053Y21328951D01*
X-37523015Y21262680D01*
X-37523018Y21262678D01*
X-37714108Y21165313D01*
X-37714115Y21165309D01*
X-37861921Y21057922D01*
X-37933926Y21030282D01*
X-38010104Y21042348D01*
X-38070044Y21090887D01*
X-38097684Y21162892D01*
X-38098500Y21178466D01*
X-38098500Y23449305D01*
X-33384599Y23449305D01*
X-33384599Y22449997D01*
X-31685999Y22449997D01*
X-31085999Y22449997D01*
X-29387399Y22449997D01*
X-29387399Y23493220D01*
X-29387401Y23493240D01*
X-29393801Y23552775D01*
X-29444045Y23687482D01*
X-29444050Y23687492D01*
X-29530209Y23802585D01*
X-29530212Y23802588D01*
X-29645305Y23888747D01*
X-29645315Y23888752D01*
X-29780023Y23938996D01*
X-29780021Y23938996D01*
X-29839557Y23945396D01*
X-29839576Y23945397D01*
X-31085999Y23945397D01*
X-31085999Y22449997D01*
X-31685999Y22449997D01*
X-31685999Y23945397D01*
X-32008772Y23945397D01*
X-32083272Y23965359D01*
X-32137810Y24019897D01*
X-32157772Y24094397D01*
X-32156918Y24110324D01*
X-32154302Y24134666D01*
X-32154300Y24134686D01*
X-32154300Y24200008D01*
X-33256000Y24200008D01*
X-33256000Y23676508D01*
X-33257945Y23669251D01*
X-33256724Y23661838D01*
X-33267820Y23632399D01*
X-33275962Y23602008D01*
X-33281275Y23596696D01*
X-33283924Y23589665D01*
X-33384599Y23449305D01*
X-38098500Y23449305D01*
X-38098500Y24134686D01*
X-34957700Y24134686D01*
X-34957699Y24134666D01*
X-34951299Y24075131D01*
X-34901055Y23940424D01*
X-34901050Y23940414D01*
X-34814891Y23825321D01*
X-34814888Y23825318D01*
X-34699795Y23739159D01*
X-34699785Y23739154D01*
X-34565077Y23688910D01*
X-34565079Y23688910D01*
X-34505543Y23682510D01*
X-34505523Y23682508D01*
X-33856000Y23682508D01*
X-33856000Y24200008D01*
X-34957700Y24200008D01*
X-34957700Y24134686D01*
X-38098500Y24134686D01*
X-38098500Y32650496D01*
X-38078538Y32724996D01*
X-38024000Y32779534D01*
X-37949500Y32799496D01*
X-36068993Y32799496D01*
X-35007200Y32799496D01*
X-34932700Y32779534D01*
X-34878162Y32724996D01*
X-34858200Y32650496D01*
X-34858200Y32150979D01*
X-34843347Y32057195D01*
X-34839724Y32046047D01*
X-34835685Y31969025D01*
X-34839722Y31953958D01*
X-34843346Y31942807D01*
X-34843346Y31942804D01*
X-34858200Y31849019D01*
X-34858200Y31849016D01*
X-34858200Y31849015D01*
X-34858200Y31150981D01*
X-34843347Y31057198D01*
X-34839723Y31046046D01*
X-34832430Y31000001D01*
X-34832430Y30999999D01*
X-34839722Y30953957D01*
X-34843346Y30942806D01*
X-34843346Y30942804D01*
X-34858200Y30849019D01*
X-34858200Y30849016D01*
X-34858200Y30849015D01*
X-34858200Y30150981D01*
X-34843347Y30057198D01*
X-34839723Y30046046D01*
X-34832430Y30000001D01*
X-34832430Y29999999D01*
X-34839722Y29953957D01*
X-34843346Y29942806D01*
X-34843346Y29942804D01*
X-34858200Y29849019D01*
X-34858200Y29849016D01*
X-34858200Y29849015D01*
X-34858200Y29150981D01*
X-34843347Y29057198D01*
X-34839723Y29046046D01*
X-34832430Y29000001D01*
X-34832430Y28999999D01*
X-34839722Y28953957D01*
X-34843346Y28942806D01*
X-34843346Y28942804D01*
X-34858200Y28849019D01*
X-34858200Y28849016D01*
X-34858200Y28849015D01*
X-34858200Y28150981D01*
X-34843347Y28057197D01*
X-34839724Y28046049D01*
X-34835685Y27969027D01*
X-34839722Y27953960D01*
X-34843346Y27942809D01*
X-34843346Y27942806D01*
X-34858200Y27849021D01*
X-34858200Y27849018D01*
X-34858200Y27849017D01*
X-34858200Y27150983D01*
X-34843347Y27057199D01*
X-34839724Y27046051D01*
X-34835685Y26969029D01*
X-34839722Y26953962D01*
X-34843346Y26942811D01*
X-34843346Y26942808D01*
X-34858200Y26849023D01*
X-34858200Y26849020D01*
X-34858200Y26849019D01*
X-34858200Y26150985D01*
X-34843347Y26057201D01*
X-34839724Y26046053D01*
X-34835685Y25969031D01*
X-34839722Y25953964D01*
X-34843346Y25942813D01*
X-34849712Y25902617D01*
X-34858200Y25849025D01*
X-34858200Y25849022D01*
X-34858200Y25849021D01*
X-34858200Y25166436D01*
X-34878162Y25091936D01*
X-34887916Y25077149D01*
X-34901049Y25059605D01*
X-34901055Y25059594D01*
X-34951299Y24924886D01*
X-34957699Y24865351D01*
X-34957700Y24865331D01*
X-34957700Y24800008D01*
X-34614606Y24800008D01*
X-34591298Y24798174D01*
X-34583006Y24796861D01*
X-34583004Y24796860D01*
X-34489219Y24782006D01*
X-32622782Y24782007D01*
X-32622781Y24782007D01*
X-32604161Y24784957D01*
X-32528996Y24796860D01*
X-32528995Y24796861D01*
X-32523911Y24797666D01*
X-32500603Y24799500D01*
X-31931007Y24799500D01*
X-31795672Y24826420D01*
X-31668189Y24879225D01*
X-31553458Y24955886D01*
X-31455886Y25053458D01*
X-31379225Y25168189D01*
X-31326420Y25295672D01*
X-31299500Y25431007D01*
X-31299500Y25568993D01*
X-31326420Y25704328D01*
X-31342639Y25743485D01*
X-31352706Y25819953D01*
X-31323190Y25891210D01*
X-31262000Y25938162D01*
X-31204981Y25949504D01*
X-26427521Y25949504D01*
X-26287511Y25987020D01*
X-26265895Y25999500D01*
X-26161981Y26059494D01*
X-14606737Y37614738D01*
X-9250500Y37614738D01*
X-9250500Y37385263D01*
X-9220550Y37157771D01*
X-9220550Y37157768D01*
X-9161160Y36936117D01*
X-9161160Y36936116D01*
X-9073342Y36724108D01*
X-8958609Y36525385D01*
X-8958609Y36525384D01*
X-8860856Y36397992D01*
X-8818919Y36343339D01*
X-8656661Y36181081D01*
X-8474612Y36041389D01*
X-8275888Y35926656D01*
X-8127798Y35865315D01*
X-8063885Y35838841D01*
X-7967905Y35813124D01*
X-7842238Y35779452D01*
X-7842234Y35779452D01*
X-7842232Y35779451D01*
X-7790284Y35772612D01*
X-7614737Y35749501D01*
X-7614736Y35749500D01*
X-7614734Y35749500D01*
X-7385264Y35749500D01*
X-7385264Y35749501D01*
X-7157770Y35779451D01*
X-7157768Y35779451D01*
X-7157767Y35779452D01*
X-7157762Y35779452D01*
X-6936117Y35838841D01*
X-6936116Y35838841D01*
X-6936115Y35838842D01*
X-6936113Y35838842D01*
X-6724112Y35926656D01*
X-6525388Y36041389D01*
X-6343339Y36181081D01*
X-6181081Y36343339D01*
X-6041389Y36525388D01*
X-5926656Y36724112D01*
X-5838842Y36936113D01*
X-5779452Y37157762D01*
X-5749500Y37385266D01*
X-5749500Y37614734D01*
X-5779452Y37842238D01*
X-5838842Y38063887D01*
X-5926656Y38275888D01*
X-6041389Y38474612D01*
X-6041392Y38474616D01*
X-6041392Y38474617D01*
X-6181082Y38656662D01*
X-6343339Y38818919D01*
X-6525385Y38958609D01*
X-6724108Y39073342D01*
X-6724110Y39073343D01*
X-6724112Y39073344D01*
X-6790214Y39100725D01*
X-6936116Y39161160D01*
X-7157769Y39220550D01*
X-7385263Y39250500D01*
X-7385266Y39250500D01*
X-7614734Y39250500D01*
X-7614738Y39250500D01*
X-7842230Y39220550D01*
X-7842233Y39220550D01*
X-8063884Y39161160D01*
X-8063885Y39161160D01*
X-8275893Y39073342D01*
X-8474616Y38958609D01*
X-8474617Y38958609D01*
X-8656662Y38818919D01*
X-8818919Y38656662D01*
X-8958609Y38474617D01*
X-8958609Y38474616D01*
X-9073342Y38275893D01*
X-9161160Y38063885D01*
X-9161160Y38063884D01*
X-9220550Y37842233D01*
X-9220550Y37842230D01*
X-9250500Y37614738D01*
X-14606737Y37614738D01*
X-12565616Y39655859D01*
X-12498821Y39694423D01*
X-12460257Y39699500D01*
X-4602811Y39699500D01*
X-4528311Y39679538D01*
G37*
%TD.AperFunction*%
%TA.AperFunction,Conductor*%
G36*
X-1365925Y-6422993D02*
G01*
X-1300099Y-6537007D01*
X-1207007Y-6630099D01*
X-1092993Y-6695925D01*
X-973642Y-6727905D01*
X-1620763Y-7375025D01*
X-1614666Y-7379455D01*
X-1566128Y-7439395D01*
X-1554062Y-7515574D01*
X-1563836Y-7555168D01*
X-1599954Y-7645781D01*
X-973642Y-8272094D01*
X-1092993Y-8304075D01*
X-1207007Y-8369901D01*
X-1300099Y-8462993D01*
X-1365925Y-8577007D01*
X-1397906Y-8696358D01*
X-2045028Y-8049237D01*
X-2054622Y-8062444D01*
X-2093077Y-8137914D01*
X-2144687Y-8195230D01*
X-2218040Y-8219063D01*
X-2293483Y-8203026D01*
X-2350799Y-8151416D01*
X-2358589Y-8137926D01*
X-2370476Y-8114595D01*
X-2486172Y-7955354D01*
X-2625354Y-7816172D01*
X-2784595Y-7700476D01*
X-2917497Y-7632759D01*
X-2974814Y-7581152D01*
X-2998648Y-7507799D01*
X-2982612Y-7432356D01*
X-2931004Y-7375038D01*
X-2917496Y-7367240D01*
X-2909198Y-7363012D01*
X-2784595Y-7299524D01*
X-2625354Y-7183828D01*
X-2486172Y-7044646D01*
X-2370476Y-6885405D01*
X-2358596Y-6862088D01*
X-2306990Y-6804772D01*
X-2233637Y-6780936D01*
X-2158194Y-6796971D01*
X-2100876Y-6848578D01*
X-2093077Y-6862086D01*
X-2054624Y-6937552D01*
X-2045028Y-6950761D01*
X-1397907Y-6303640D01*
X-1365925Y-6422993D01*
G37*
%TD.AperFunction*%
%TA.AperFunction,Conductor*%
G36*
X5325025Y-6950761D02*
G01*
X5325026Y-6950761D01*
X5334620Y-6937558D01*
X5373075Y-6862086D01*
X5424684Y-6804769D01*
X5498037Y-6780935D01*
X5573480Y-6796971D01*
X5630797Y-6848580D01*
X5638591Y-6862080D01*
X5650476Y-6885405D01*
X5766172Y-7044646D01*
X5905354Y-7183828D01*
X6064595Y-7299524D01*
X6087913Y-7311405D01*
X6145228Y-7363012D01*
X6169063Y-7436365D01*
X6153028Y-7511808D01*
X6101419Y-7569125D01*
X6087914Y-7576923D01*
X6012444Y-7615378D01*
X5999237Y-7624972D01*
X6646358Y-8272094D01*
X6527007Y-8304075D01*
X6412993Y-8369901D01*
X6319901Y-8462993D01*
X6254075Y-8577007D01*
X6222094Y-8696358D01*
X5574972Y-8049237D01*
X5565378Y-8062444D01*
X5526923Y-8137914D01*
X5475313Y-8195230D01*
X5401960Y-8219063D01*
X5326517Y-8203026D01*
X5269201Y-8151416D01*
X5261411Y-8137926D01*
X5249524Y-8114595D01*
X5133828Y-7955354D01*
X4994646Y-7816172D01*
X4835406Y-7700477D01*
X4835407Y-7700477D01*
X4834596Y-7700063D01*
X4812086Y-7688594D01*
X4754770Y-7636987D01*
X4730935Y-7563634D01*
X4746970Y-7488192D01*
X4798579Y-7430874D01*
X4812086Y-7423075D01*
X4887558Y-7384620D01*
X4900761Y-7375026D01*
X4900761Y-7375025D01*
X4253641Y-6727905D01*
X4372993Y-6695925D01*
X4487007Y-6630099D01*
X4580099Y-6537007D01*
X4645925Y-6422993D01*
X4677905Y-6303641D01*
X5325025Y-6950761D01*
G37*
%TD.AperFunction*%
%TA.AperFunction,Conductor*%
G36*
X15677644Y-6687388D02*
G01*
X15734962Y-6738996D01*
X15742759Y-6752503D01*
X15810476Y-6885405D01*
X15926172Y-7044646D01*
X16065354Y-7183828D01*
X16224595Y-7299524D01*
X16247913Y-7311405D01*
X16305228Y-7363012D01*
X16329063Y-7436365D01*
X16313028Y-7511808D01*
X16261419Y-7569125D01*
X16247914Y-7576923D01*
X16172444Y-7615378D01*
X16159237Y-7624972D01*
X16806358Y-8272094D01*
X16687007Y-8304075D01*
X16572993Y-8369901D01*
X16479901Y-8462993D01*
X16414075Y-8577007D01*
X16382094Y-8696358D01*
X15734972Y-8049237D01*
X15725378Y-8062444D01*
X15686923Y-8137914D01*
X15635313Y-8195230D01*
X15561960Y-8219063D01*
X15486517Y-8203026D01*
X15429201Y-8151416D01*
X15421411Y-8137926D01*
X15409524Y-8114595D01*
X15293828Y-7955354D01*
X15154646Y-7816172D01*
X14995405Y-7700476D01*
X14862503Y-7632759D01*
X14805186Y-7581152D01*
X14781352Y-7507799D01*
X14797388Y-7432356D01*
X14848996Y-7375038D01*
X14862504Y-7367240D01*
X14870802Y-7363012D01*
X14995405Y-7299524D01*
X15154646Y-7183828D01*
X15293828Y-7044646D01*
X15409524Y-6885405D01*
X15477240Y-6752503D01*
X15528848Y-6695186D01*
X15602201Y-6671352D01*
X15677644Y-6687388D01*
G37*
%TD.AperFunction*%
%TA.AperFunction,Conductor*%
G36*
X26574075Y-6422993D02*
G01*
X26639901Y-6537007D01*
X26732993Y-6630099D01*
X26847007Y-6695925D01*
X26966358Y-6727905D01*
X26319237Y-7375025D01*
X26325334Y-7379455D01*
X26373872Y-7439395D01*
X26385938Y-7515574D01*
X26376164Y-7555168D01*
X26340046Y-7645781D01*
X26966358Y-8272094D01*
X26847007Y-8304075D01*
X26732993Y-8369901D01*
X26639901Y-8462993D01*
X26574075Y-8577007D01*
X26542094Y-8696358D01*
X25894972Y-8049237D01*
X25885378Y-8062444D01*
X25846923Y-8137914D01*
X25795313Y-8195230D01*
X25721960Y-8219063D01*
X25646517Y-8203026D01*
X25589201Y-8151416D01*
X25581411Y-8137926D01*
X25569524Y-8114595D01*
X25453828Y-7955354D01*
X25314646Y-7816172D01*
X25155405Y-7700476D01*
X25022503Y-7632759D01*
X24965186Y-7581152D01*
X24941352Y-7507799D01*
X24957388Y-7432356D01*
X25008996Y-7375038D01*
X25022504Y-7367240D01*
X25030802Y-7363012D01*
X25155405Y-7299524D01*
X25314646Y-7183828D01*
X25453828Y-7044646D01*
X25569524Y-6885405D01*
X25581404Y-6862088D01*
X25633010Y-6804772D01*
X25706363Y-6780936D01*
X25781806Y-6796971D01*
X25839124Y-6848578D01*
X25846923Y-6862086D01*
X25885376Y-6937552D01*
X25894972Y-6950761D01*
X26542093Y-6303640D01*
X26574075Y-6422993D01*
G37*
%TD.AperFunction*%
%TA.AperFunction,Conductor*%
G36*
X245025Y-6950761D02*
G01*
X245026Y-6950761D01*
X254620Y-6937558D01*
X293075Y-6862086D01*
X344684Y-6804769D01*
X418037Y-6780935D01*
X493480Y-6796971D01*
X550797Y-6848580D01*
X558591Y-6862080D01*
X570476Y-6885405D01*
X686172Y-7044646D01*
X825354Y-7183828D01*
X984595Y-7299524D01*
X1023214Y-7319201D01*
X1117495Y-7367240D01*
X1174813Y-7418849D01*
X1198647Y-7492202D01*
X1182611Y-7567644D01*
X1131002Y-7624962D01*
X1117495Y-7632760D01*
X984598Y-7700474D01*
X984593Y-7700477D01*
X825363Y-7816165D01*
X825352Y-7816174D01*
X686174Y-7955352D01*
X686165Y-7955363D01*
X570477Y-8114593D01*
X570476Y-8114594D01*
X558594Y-8137914D01*
X506984Y-8195231D01*
X433630Y-8219063D01*
X358188Y-8203026D01*
X300871Y-8151416D01*
X293075Y-8137912D01*
X254624Y-8062448D01*
X245025Y-8049237D01*
X-402095Y-8696357D01*
X-434075Y-8577007D01*
X-499901Y-8462993D01*
X-592993Y-8369901D01*
X-707007Y-8304075D01*
X-826360Y-8272093D01*
X-179239Y-7624972D01*
X-185335Y-7620544D01*
X-233874Y-7560604D01*
X-245940Y-7484426D01*
X-218301Y-7412420D01*
X-185339Y-7379458D01*
X-179239Y-7375025D01*
X-826359Y-6727905D01*
X-707007Y-6695925D01*
X-592993Y-6630099D01*
X-499901Y-6537007D01*
X-434075Y-6422993D01*
X-402095Y-6303641D01*
X245025Y-6950761D01*
G37*
%TD.AperFunction*%
%TA.AperFunction,Conductor*%
G36*
X8057644Y-6687388D02*
G01*
X8114962Y-6738996D01*
X8122759Y-6752503D01*
X8190476Y-6885405D01*
X8306172Y-7044646D01*
X8445354Y-7183828D01*
X8604595Y-7299524D01*
X8643214Y-7319201D01*
X8737495Y-7367240D01*
X8794813Y-7418849D01*
X8818647Y-7492202D01*
X8802611Y-7567644D01*
X8751002Y-7624962D01*
X8737495Y-7632760D01*
X8604598Y-7700474D01*
X8604593Y-7700477D01*
X8445363Y-7816165D01*
X8445352Y-7816174D01*
X8306174Y-7955352D01*
X8306165Y-7955363D01*
X8190477Y-8114593D01*
X8190476Y-8114594D01*
X8178594Y-8137914D01*
X8126984Y-8195231D01*
X8053630Y-8219063D01*
X7978188Y-8203026D01*
X7920871Y-8151416D01*
X7913075Y-8137912D01*
X7874624Y-8062448D01*
X7865025Y-8049237D01*
X7217905Y-8696357D01*
X7185925Y-8577007D01*
X7120099Y-8462993D01*
X7027007Y-8369901D01*
X6912993Y-8304075D01*
X6793640Y-8272093D01*
X7440761Y-7624972D01*
X7427552Y-7615376D01*
X7352086Y-7576923D01*
X7294769Y-7525314D01*
X7270936Y-7451961D01*
X7286973Y-7376518D01*
X7338582Y-7319201D01*
X7352082Y-7311407D01*
X7375405Y-7299524D01*
X7534646Y-7183828D01*
X7673828Y-7044646D01*
X7789524Y-6885405D01*
X7857240Y-6752503D01*
X7908848Y-6695186D01*
X7982201Y-6671352D01*
X8057644Y-6687388D01*
G37*
%TD.AperFunction*%
%TA.AperFunction,Conductor*%
G36*
X18217644Y-6687388D02*
G01*
X18274962Y-6738996D01*
X18282759Y-6752503D01*
X18350476Y-6885405D01*
X18466172Y-7044646D01*
X18605354Y-7183828D01*
X18764595Y-7299524D01*
X18803214Y-7319201D01*
X18897495Y-7367240D01*
X18954813Y-7418849D01*
X18978647Y-7492202D01*
X18962611Y-7567644D01*
X18911002Y-7624962D01*
X18897495Y-7632760D01*
X18764598Y-7700474D01*
X18764593Y-7700477D01*
X18605363Y-7816165D01*
X18605352Y-7816174D01*
X18466174Y-7955352D01*
X18466165Y-7955363D01*
X18350477Y-8114593D01*
X18350476Y-8114594D01*
X18338594Y-8137914D01*
X18286984Y-8195231D01*
X18213630Y-8219063D01*
X18138188Y-8203026D01*
X18080871Y-8151416D01*
X18073075Y-8137912D01*
X18034624Y-8062448D01*
X18025025Y-8049237D01*
X17377905Y-8696357D01*
X17345925Y-8577007D01*
X17280099Y-8462993D01*
X17187007Y-8369901D01*
X17072993Y-8304075D01*
X16953640Y-8272093D01*
X17600761Y-7624972D01*
X17587552Y-7615376D01*
X17512086Y-7576923D01*
X17454769Y-7525314D01*
X17430936Y-7451961D01*
X17446973Y-7376518D01*
X17498582Y-7319201D01*
X17512082Y-7311407D01*
X17535405Y-7299524D01*
X17694646Y-7183828D01*
X17833828Y-7044646D01*
X17949524Y-6885405D01*
X18017240Y-6752503D01*
X18068848Y-6695186D01*
X18142201Y-6671352D01*
X18217644Y-6687388D01*
G37*
%TD.AperFunction*%
%TA.AperFunction,Conductor*%
G36*
X3714075Y-6422993D02*
G01*
X3779901Y-6537007D01*
X3872993Y-6630099D01*
X3987007Y-6695925D01*
X4106358Y-6727905D01*
X3459237Y-7375025D01*
X3472448Y-7384624D01*
X3547912Y-7423075D01*
X3605229Y-7474684D01*
X3629063Y-7548038D01*
X3613027Y-7623480D01*
X3561418Y-7680797D01*
X3547914Y-7688594D01*
X3524594Y-7700476D01*
X3524593Y-7700477D01*
X3365363Y-7816165D01*
X3365352Y-7816174D01*
X3226174Y-7955352D01*
X3226165Y-7955363D01*
X3110477Y-8114593D01*
X3110474Y-8114598D01*
X3042760Y-8247495D01*
X2991151Y-8304813D01*
X2917798Y-8328647D01*
X2842356Y-8312611D01*
X2785038Y-8261002D01*
X2777240Y-8247495D01*
X2728285Y-8151416D01*
X2709524Y-8114595D01*
X2593828Y-7955354D01*
X2454646Y-7816172D01*
X2295405Y-7700476D01*
X2162503Y-7632759D01*
X2105186Y-7581152D01*
X2081352Y-7507799D01*
X2097388Y-7432356D01*
X2148996Y-7375038D01*
X2162504Y-7367240D01*
X2170802Y-7363012D01*
X2295405Y-7299524D01*
X2454646Y-7183828D01*
X2593828Y-7044646D01*
X2709524Y-6885405D01*
X2721404Y-6862088D01*
X2773010Y-6804772D01*
X2846363Y-6780936D01*
X2921806Y-6796971D01*
X2979124Y-6848578D01*
X2986923Y-6862086D01*
X3025376Y-6937552D01*
X3034972Y-6950761D01*
X3682093Y-6303640D01*
X3714075Y-6422993D01*
G37*
%TD.AperFunction*%
%TA.AperFunction,Conductor*%
G36*
X26008315Y49498564D02*
G01*
X26094465Y49488856D01*
X26126993Y49481432D01*
X26200878Y49455579D01*
X26230939Y49441102D01*
X26297217Y49399457D01*
X26323304Y49378654D01*
X26378653Y49323305D01*
X26399456Y49297218D01*
X26441101Y49230940D01*
X26455578Y49200879D01*
X26481431Y49126994D01*
X26488855Y49094468D01*
X26498563Y49008318D01*
X26499500Y48991633D01*
X26499500Y48892685D01*
X26499501Y48892670D01*
X26530045Y48680234D01*
X26530046Y48680227D01*
X26590516Y48474290D01*
X26590516Y48474288D01*
X26679674Y48279060D01*
X26679681Y48279047D01*
X26795717Y48098490D01*
X26795725Y48098479D01*
X26936274Y47936278D01*
X26936277Y47936275D01*
X27098478Y47795726D01*
X27098483Y47795722D01*
X27098487Y47795719D01*
X27279050Y47679679D01*
X27474290Y47590516D01*
X27570781Y47562184D01*
X27680226Y47530047D01*
X27680229Y47530047D01*
X27680231Y47530046D01*
X27892682Y47499500D01*
X27934108Y47499500D01*
X36934108Y47499500D01*
X36995501Y47499500D01*
X37004496Y47499229D01*
X37292298Y47481820D01*
X37310134Y47479654D01*
X37589307Y47428494D01*
X37606772Y47424189D01*
X37877730Y47339755D01*
X37894546Y47333378D01*
X38153362Y47216894D01*
X38169291Y47208533D01*
X38233894Y47169479D01*
X38412163Y47061712D01*
X38426971Y47051491D01*
X38650377Y46876464D01*
X38663845Y46864533D01*
X38864532Y46663846D01*
X38876463Y46650378D01*
X39051490Y46426972D01*
X39061711Y46412164D01*
X39208531Y46169294D01*
X39216893Y46153363D01*
X39333375Y45894551D01*
X39339755Y45877727D01*
X39424187Y45606775D01*
X39428493Y45589305D01*
X39479651Y45310148D01*
X39481820Y45292286D01*
X39499228Y45004497D01*
X39499500Y44995501D01*
X39499500Y37932942D01*
X39479538Y37858442D01*
X39425000Y37803904D01*
X39350500Y37783942D01*
X39276000Y37803904D01*
X39221462Y37858442D01*
X39206577Y37894379D01*
X39161159Y38063884D01*
X39161159Y38063885D01*
X39140152Y38114599D01*
X39073344Y38275888D01*
X38958611Y38474612D01*
X38958608Y38474616D01*
X38958608Y38474617D01*
X38818918Y38656662D01*
X38656661Y38818919D01*
X38474615Y38958609D01*
X38275892Y39073342D01*
X38275890Y39073343D01*
X38275888Y39073344D01*
X38209786Y39100725D01*
X38063884Y39161160D01*
X37842231Y39220550D01*
X37614737Y39250500D01*
X37614734Y39250500D01*
X37385266Y39250500D01*
X37385262Y39250500D01*
X37157770Y39220550D01*
X37157767Y39220550D01*
X36936116Y39161160D01*
X36936115Y39161160D01*
X36724107Y39073342D01*
X36525384Y38958609D01*
X36525383Y38958609D01*
X36343338Y38818919D01*
X36181081Y38656662D01*
X36041391Y38474617D01*
X36041391Y38474616D01*
X35926658Y38275893D01*
X35838840Y38063885D01*
X35838840Y38063884D01*
X35779450Y37842233D01*
X35779450Y37842230D01*
X35749500Y37614738D01*
X35749500Y37385263D01*
X35779450Y37157771D01*
X35779450Y37157768D01*
X35838840Y36936117D01*
X35838840Y36936116D01*
X35926658Y36724108D01*
X36041391Y36525385D01*
X36041391Y36525384D01*
X36139144Y36397992D01*
X36181081Y36343339D01*
X36343339Y36181081D01*
X36525388Y36041389D01*
X36724112Y35926656D01*
X36872202Y35865315D01*
X36936115Y35838841D01*
X37032095Y35813124D01*
X37157762Y35779452D01*
X37157766Y35779452D01*
X37157768Y35779451D01*
X37209716Y35772612D01*
X37385263Y35749501D01*
X37385264Y35749500D01*
X37385266Y35749500D01*
X37614736Y35749500D01*
X37614736Y35749501D01*
X37842230Y35779451D01*
X37842232Y35779451D01*
X37842233Y35779452D01*
X37842238Y35779452D01*
X38063883Y35838841D01*
X38063884Y35838841D01*
X38063885Y35838842D01*
X38063887Y35838842D01*
X38275888Y35926656D01*
X38474612Y36041389D01*
X38656661Y36181081D01*
X38818919Y36343339D01*
X38958611Y36525388D01*
X39073344Y36724112D01*
X39161158Y36936113D01*
X39206578Y37105624D01*
X39245140Y37172417D01*
X39311935Y37210982D01*
X39389063Y37210982D01*
X39455858Y37172419D01*
X39494423Y37105624D01*
X39499500Y37067059D01*
X39499500Y36505317D01*
X39499120Y36494687D01*
X39484997Y36297231D01*
X39481972Y36276189D01*
X39441024Y36087952D01*
X39435034Y36067553D01*
X39367717Y35887071D01*
X39358886Y35867734D01*
X39266567Y35698663D01*
X39255073Y35680778D01*
X39139633Y35526569D01*
X39125712Y35510503D01*
X38989497Y35374288D01*
X38973431Y35360367D01*
X38819222Y35244927D01*
X38801337Y35233433D01*
X38632266Y35141114D01*
X38612929Y35132283D01*
X38432447Y35064966D01*
X38412048Y35058976D01*
X38223811Y35018028D01*
X38202769Y35015003D01*
X38005313Y35000880D01*
X37994683Y35000500D01*
X27933790Y35000500D01*
X27859290Y35020462D01*
X27804752Y35075000D01*
X27784790Y35149500D01*
X27804752Y35224000D01*
X27846207Y35270041D01*
X27854646Y35276172D01*
X27993828Y35415354D01*
X28109524Y35574595D01*
X28198884Y35749975D01*
X28259709Y35937174D01*
X28290500Y36131583D01*
X28290500Y36328417D01*
X28259709Y36522826D01*
X28198884Y36710025D01*
X28109524Y36885405D01*
X27993828Y37044646D01*
X27854646Y37183828D01*
X27695406Y37299523D01*
X27695407Y37299523D01*
X27694596Y37299937D01*
X27672086Y37311406D01*
X27614770Y37363013D01*
X27590935Y37436366D01*
X27606970Y37511808D01*
X27658579Y37569126D01*
X27672086Y37576925D01*
X27747558Y37615380D01*
X27760761Y37624974D01*
X27760761Y37624975D01*
X27113641Y38272095D01*
X27232993Y38304075D01*
X27347007Y38369901D01*
X27440099Y38462993D01*
X27505925Y38577007D01*
X27537905Y38696359D01*
X28185025Y38049239D01*
X28185026Y38049239D01*
X28194620Y38062443D01*
X28291093Y38251780D01*
X28356757Y38453872D01*
X28390000Y38663758D01*
X28390000Y38876243D01*
X28356757Y39086129D01*
X28291093Y39288221D01*
X28194624Y39477552D01*
X28185025Y39490763D01*
X27537905Y38843643D01*
X27505925Y38962993D01*
X27440099Y39077007D01*
X27347007Y39170099D01*
X27232993Y39235925D01*
X27113640Y39267907D01*
X27760761Y39915028D01*
X27747554Y39924623D01*
X27558220Y40021094D01*
X27356128Y40086758D01*
X27146242Y40120000D01*
X26933758Y40120000D01*
X26723871Y40086758D01*
X26521779Y40021094D01*
X26332443Y39924622D01*
X26319237Y39915028D01*
X26966358Y39267906D01*
X26847007Y39235925D01*
X26732993Y39170099D01*
X26639901Y39077007D01*
X26574075Y38962993D01*
X26542094Y38843642D01*
X25894972Y39490763D01*
X25885378Y39477556D01*
X25846923Y39402086D01*
X25795313Y39344770D01*
X25721960Y39320937D01*
X25646517Y39336974D01*
X25589201Y39388584D01*
X25581411Y39402074D01*
X25569524Y39425405D01*
X25453828Y39584646D01*
X25314646Y39723828D01*
X25155405Y39839524D01*
X25145010Y39844821D01*
X24980036Y39928879D01*
X24980030Y39928881D01*
X24980025Y39928884D01*
X24792826Y39989709D01*
X24598417Y40020500D01*
X24401583Y40020500D01*
X24297220Y40003971D01*
X24207176Y39989710D01*
X24182036Y39981541D01*
X24105014Y39977505D01*
X24036292Y40012521D01*
X24030635Y40017890D01*
X20358015Y43690510D01*
X20232485Y43762984D01*
X20092475Y43800500D01*
X16399268Y43800500D01*
X16324768Y43820462D01*
X16270230Y43875000D01*
X16250268Y43949500D01*
X16270230Y44024000D01*
X16278725Y44037080D01*
X16368863Y44161145D01*
X16368863Y44161147D01*
X16368870Y44161155D01*
X16483241Y44385621D01*
X16561090Y44625215D01*
X16600500Y44874038D01*
X16600500Y45125962D01*
X16561090Y45374785D01*
X16483241Y45614379D01*
X16368870Y45838845D01*
X16220793Y46042656D01*
X16125769Y46137680D01*
X19899500Y46137680D01*
X19899500Y45862321D01*
X19935437Y45589350D01*
X19935440Y45589333D01*
X20006703Y45323371D01*
X20006703Y45323370D01*
X20069417Y45171969D01*
X20112077Y45068979D01*
X20249751Y44830521D01*
X20417372Y44612072D01*
X20612072Y44417372D01*
X20830521Y44249751D01*
X21068979Y44112077D01*
X21212420Y44052662D01*
X21323369Y44006704D01*
X21478734Y43965075D01*
X21589334Y43935440D01*
X21862326Y43899500D01*
X22137674Y43899500D01*
X22410666Y43935440D01*
X22620423Y43991645D01*
X22676629Y44006704D01*
X22676630Y44006704D01*
X22709125Y44020165D01*
X22931021Y44112077D01*
X23169479Y44249751D01*
X23387928Y44417372D01*
X23582628Y44612072D01*
X23750249Y44830521D01*
X23887923Y45068979D01*
X23911526Y45125962D01*
X27399500Y45125962D01*
X27399500Y45078250D01*
X27399500Y44874038D01*
X27438910Y44625215D01*
X27516759Y44385621D01*
X27585988Y44249751D01*
X27631131Y44161154D01*
X27631131Y44161153D01*
X27666787Y44112077D01*
X27779207Y43957344D01*
X27957344Y43779207D01*
X28161155Y43631130D01*
X28385621Y43516759D01*
X28625215Y43438910D01*
X28874038Y43399500D01*
X28874043Y43399500D01*
X29125957Y43399500D01*
X29125962Y43399500D01*
X29374785Y43438910D01*
X29614379Y43516759D01*
X29838845Y43631130D01*
X30042656Y43779207D01*
X30220793Y43957344D01*
X30368870Y44161155D01*
X30483241Y44385621D01*
X30561090Y44625215D01*
X30600500Y44874038D01*
X30600500Y45125962D01*
X30561090Y45374785D01*
X30483241Y45614379D01*
X30368870Y45838845D01*
X30220793Y46042656D01*
X30042656Y46220793D01*
X29838845Y46368870D01*
X29614379Y46483241D01*
X29374785Y46561090D01*
X29125962Y46600500D01*
X28874038Y46600500D01*
X28666685Y46567659D01*
X28625214Y46561090D01*
X28432466Y46498462D01*
X28385621Y46483241D01*
X28385615Y46483239D01*
X28385615Y46483238D01*
X28161153Y46368869D01*
X28161152Y46368869D01*
X27957345Y46220794D01*
X27957342Y46220792D01*
X27779208Y46042658D01*
X27779206Y46042655D01*
X27631131Y45838848D01*
X27631131Y45838847D01*
X27516762Y45614385D01*
X27516757Y45614373D01*
X27438910Y45374786D01*
X27431028Y45325021D01*
X27399500Y45125962D01*
X23911526Y45125962D01*
X23993295Y45323368D01*
X24064560Y45589334D01*
X24100500Y45862326D01*
X24100500Y46137674D01*
X24064560Y46410666D01*
X24017046Y46587993D01*
X23993296Y46676630D01*
X23993296Y46676631D01*
X23915463Y46864533D01*
X23887923Y46931021D01*
X23750249Y47169479D01*
X23582628Y47387928D01*
X23387928Y47582628D01*
X23169479Y47750249D01*
X22931021Y47887923D01*
X22898527Y47901383D01*
X22676630Y47993297D01*
X22410667Y48064560D01*
X22410650Y48064563D01*
X22137679Y48100500D01*
X22137674Y48100500D01*
X21862326Y48100500D01*
X21862320Y48100500D01*
X21589349Y48064563D01*
X21589332Y48064560D01*
X21323370Y47993297D01*
X21323369Y47993297D01*
X21068976Y47887922D01*
X20830522Y47750250D01*
X20612070Y47582627D01*
X20417373Y47387930D01*
X20249750Y47169478D01*
X20112078Y46931024D01*
X20006703Y46676631D01*
X20006703Y46676630D01*
X19935440Y46410668D01*
X19935437Y46410651D01*
X19899500Y46137680D01*
X16125769Y46137680D01*
X16042656Y46220793D01*
X15838845Y46368870D01*
X15614379Y46483241D01*
X15374785Y46561090D01*
X15125962Y46600500D01*
X14874038Y46600500D01*
X14666685Y46567659D01*
X14625214Y46561090D01*
X14432466Y46498462D01*
X14385621Y46483241D01*
X14385615Y46483239D01*
X14385615Y46483238D01*
X14161153Y46368869D01*
X14161152Y46368869D01*
X13957345Y46220794D01*
X13957342Y46220792D01*
X13779208Y46042658D01*
X13779206Y46042655D01*
X13631131Y45838848D01*
X13631131Y45838847D01*
X13516762Y45614385D01*
X13516757Y45614373D01*
X13438910Y45374786D01*
X13431028Y45325021D01*
X13399500Y45125962D01*
X13399500Y45078250D01*
X13399500Y44874038D01*
X13438910Y44625215D01*
X13516759Y44385621D01*
X13631130Y44161155D01*
X13631131Y44161153D01*
X13631136Y44161145D01*
X13721275Y44037080D01*
X13748916Y43965075D01*
X13736850Y43888896D01*
X13688312Y43828957D01*
X13616307Y43801316D01*
X13600732Y43800500D01*
X-15822475Y43800500D01*
X-15962486Y43762984D01*
X-16088015Y43690510D01*
X-26684386Y33094139D01*
X-26751181Y33055575D01*
X-26789745Y33050498D01*
X-31517813Y33050498D01*
X-31592313Y33070460D01*
X-31600593Y33075609D01*
X-31668187Y33120775D01*
X-31668191Y33120776D01*
X-31795671Y33173580D01*
X-31795675Y33173581D01*
X-31931007Y33200500D01*
X-32068993Y33200500D01*
X-32068996Y33200500D01*
X-32075739Y33199159D01*
X-32152702Y33204207D01*
X-32216830Y33247060D01*
X-32250939Y33316235D01*
X-32253801Y33345297D01*
X-32253801Y33849015D01*
X-32256173Y33863993D01*
X-32268654Y33942800D01*
X-32268656Y33942803D01*
X-32268656Y33942806D01*
X-32272279Y33953959D01*
X-32276313Y34030982D01*
X-32272276Y34046044D01*
X-32268655Y34057188D01*
X-32268655Y34057189D01*
X-32268654Y34057190D01*
X-32253800Y34150975D01*
X-32253801Y34833567D01*
X-32233839Y34908066D01*
X-32224079Y34922862D01*
X-32210947Y34940404D01*
X-32160702Y35075115D01*
X-32154302Y35134650D01*
X-32154300Y35134670D01*
X-32154300Y35199992D01*
X-32497394Y35199992D01*
X-32520702Y35201826D01*
X-32528995Y35203140D01*
X-32528996Y35203140D01*
X-32622781Y35217994D01*
X-32622786Y35217994D01*
X-34489219Y35217994D01*
X-34551433Y35208141D01*
X-34583004Y35203140D01*
X-34583006Y35203140D01*
X-34588089Y35202334D01*
X-34611397Y35200500D01*
X-37950500Y35200500D01*
X-38025000Y35220462D01*
X-38079538Y35275000D01*
X-38099500Y35349500D01*
X-38099500Y35588692D01*
X-38114287Y35663029D01*
X-38134106Y35762666D01*
X-38176624Y35865315D01*
X-34957700Y35865315D01*
X-34957700Y35799992D01*
X-33856000Y35799992D01*
X-33856000Y36317492D01*
X-34505523Y36317492D01*
X-34505543Y36317491D01*
X-34565078Y36311091D01*
X-34699785Y36260847D01*
X-34699795Y36260842D01*
X-34814888Y36174683D01*
X-34814891Y36174680D01*
X-34901050Y36059587D01*
X-34901055Y36059577D01*
X-34951299Y35924870D01*
X-34957699Y35865335D01*
X-34957700Y35865315D01*
X-38176624Y35865315D01*
X-38201987Y35926547D01*
X-38202060Y35926656D01*
X-38300534Y36074032D01*
X-38300538Y36074037D01*
X-38425964Y36199463D01*
X-38425969Y36199467D01*
X-38573452Y36298013D01*
X-38573454Y36298014D01*
X-38737333Y36365894D01*
X-38737337Y36365895D01*
X-38911309Y36400500D01*
X-39088691Y36400500D01*
X-39262664Y36365895D01*
X-39262668Y36365894D01*
X-39293483Y36353130D01*
X-39369951Y36343064D01*
X-39441208Y36372581D01*
X-39488159Y36433772D01*
X-39499500Y36490789D01*
X-39499500Y36506763D01*
X-33384599Y36506763D01*
X-33380914Y36472493D01*
X-33370674Y36463295D01*
X-33330500Y36452530D01*
X-33275962Y36397992D01*
X-33256000Y36323492D01*
X-33256000Y35799992D01*
X-32154300Y35799992D01*
X-32154300Y35865315D01*
X-32154302Y35865335D01*
X-32156918Y35889676D01*
X-32145034Y35965883D01*
X-32096638Y36025938D01*
X-32024699Y36053749D01*
X-32008772Y36054603D01*
X-31685999Y36054603D01*
X-31085999Y36054603D01*
X-29839576Y36054603D01*
X-29839557Y36054605D01*
X-29780022Y36061005D01*
X-29645315Y36111249D01*
X-29645305Y36111254D01*
X-29530212Y36197413D01*
X-29530209Y36197416D01*
X-29444050Y36312509D01*
X-29444045Y36312519D01*
X-29393801Y36447226D01*
X-29387401Y36506761D01*
X-29387399Y36506781D01*
X-29387399Y37550003D01*
X-31085999Y37550003D01*
X-31085999Y36054603D01*
X-31685999Y36054603D01*
X-31685999Y37550003D01*
X-33384599Y37550003D01*
X-33384599Y36506763D01*
X-39499500Y36506763D01*
X-39499500Y39193226D01*
X-33384599Y39193226D01*
X-33384599Y38150003D01*
X-31685999Y38150003D01*
X-31085999Y38150003D01*
X-29387399Y38150003D01*
X-29387399Y39193226D01*
X-29387401Y39193246D01*
X-29393801Y39252781D01*
X-29444045Y39387488D01*
X-29444050Y39387498D01*
X-29530209Y39502591D01*
X-29530212Y39502594D01*
X-29645305Y39588753D01*
X-29645315Y39588758D01*
X-29780023Y39639002D01*
X-29780021Y39639002D01*
X-29839557Y39645402D01*
X-29839576Y39645403D01*
X-31085999Y39645403D01*
X-31085999Y38150003D01*
X-31685999Y38150003D01*
X-31685999Y39645403D01*
X-32932422Y39645403D01*
X-32932442Y39645402D01*
X-32991977Y39639002D01*
X-33126684Y39588758D01*
X-33126694Y39588753D01*
X-33241787Y39502594D01*
X-33241790Y39502591D01*
X-33327949Y39387498D01*
X-33327954Y39387488D01*
X-33378198Y39252781D01*
X-33384598Y39193246D01*
X-33384599Y39193226D01*
X-39499500Y39193226D01*
X-39499500Y45996333D01*
X-39499321Y46003644D01*
X-39497405Y46042655D01*
X-39492737Y46137680D01*
X-38100500Y46137680D01*
X-38100500Y45862321D01*
X-38064563Y45589350D01*
X-38064560Y45589333D01*
X-37993297Y45323371D01*
X-37993297Y45323370D01*
X-37930583Y45171969D01*
X-37887923Y45068979D01*
X-37750249Y44830521D01*
X-37582628Y44612072D01*
X-37387928Y44417372D01*
X-37169479Y44249751D01*
X-36931021Y44112077D01*
X-36787580Y44052662D01*
X-36676631Y44006704D01*
X-36521266Y43965075D01*
X-36410666Y43935440D01*
X-36137674Y43899500D01*
X-35862326Y43899500D01*
X-35589334Y43935440D01*
X-35379577Y43991645D01*
X-35323371Y44006704D01*
X-35323370Y44006704D01*
X-35290875Y44020165D01*
X-35068979Y44112077D01*
X-34830521Y44249751D01*
X-34612072Y44417372D01*
X-34417372Y44612072D01*
X-34249751Y44830521D01*
X-34112077Y45068979D01*
X-34006705Y45323368D01*
X-33935440Y45589334D01*
X-33899500Y45862326D01*
X-33899500Y46137674D01*
X-33935440Y46410666D01*
X-33982954Y46587993D01*
X-34006704Y46676630D01*
X-34006704Y46676631D01*
X-34084537Y46864533D01*
X-34112077Y46931021D01*
X-34249751Y47169479D01*
X-34417372Y47387928D01*
X-34612072Y47582628D01*
X-34830521Y47750249D01*
X-35068979Y47887923D01*
X-35101473Y47901383D01*
X-35323370Y47993297D01*
X-35589333Y48064560D01*
X-35589350Y48064563D01*
X-35862321Y48100500D01*
X-35862326Y48100500D01*
X-36137674Y48100500D01*
X-36137680Y48100500D01*
X-36410651Y48064563D01*
X-36410668Y48064560D01*
X-36676630Y47993297D01*
X-36676631Y47993297D01*
X-36931024Y47887922D01*
X-37169478Y47750250D01*
X-37387930Y47582627D01*
X-37582627Y47387930D01*
X-37750250Y47169478D01*
X-37887922Y46931024D01*
X-37993297Y46676631D01*
X-37993297Y46676630D01*
X-38064560Y46410668D01*
X-38064563Y46410651D01*
X-38100500Y46137680D01*
X-39492737Y46137680D01*
X-39483008Y46335713D01*
X-39481574Y46350260D01*
X-39478813Y46368869D01*
X-39433333Y46675477D01*
X-39430481Y46689814D01*
X-39424406Y46714068D01*
X-39350586Y47008773D01*
X-39346354Y47022727D01*
X-39235578Y47332321D01*
X-39229989Y47345814D01*
X-39089407Y47643049D01*
X-39082532Y47655912D01*
X-38913479Y47937962D01*
X-38905380Y47950081D01*
X-38709501Y48214193D01*
X-38700247Y48225469D01*
X-38479417Y48469118D01*
X-38469118Y48479417D01*
X-38225469Y48700247D01*
X-38214193Y48709501D01*
X-37950081Y48905380D01*
X-37937962Y48913479D01*
X-37655912Y49082532D01*
X-37643049Y49089407D01*
X-37345814Y49229989D01*
X-37332321Y49235578D01*
X-37022727Y49346354D01*
X-37008773Y49350586D01*
X-36689811Y49430482D01*
X-36675477Y49433333D01*
X-36350255Y49481575D01*
X-36335713Y49483008D01*
X-36007186Y49499148D01*
X-35992808Y49499157D01*
X-35674081Y49483958D01*
X-35659980Y49482610D01*
X-35344043Y49437137D01*
X-35330139Y49434454D01*
X-35019966Y49359125D01*
X-35006354Y49355123D01*
X-34846557Y49299755D01*
X-34704766Y49250624D01*
X-34691605Y49245350D01*
X-34401329Y49112625D01*
X-34388733Y49106124D01*
X-34112394Y48946376D01*
X-34100467Y48938701D01*
X-34053722Y48905367D01*
X-33840600Y48753393D01*
X-33829449Y48744611D01*
X-33588394Y48535417D01*
X-33578138Y48525623D01*
X-33358076Y48294433D01*
X-33348799Y48283707D01*
X-33151737Y48032628D01*
X-33143515Y48021057D01*
X-32969315Y47749367D01*
X-32965626Y47743300D01*
X-32934526Y47689293D01*
X-32934524Y47689291D01*
X-32841443Y47596004D01*
X-32727492Y47530046D01*
X-32727388Y47529986D01*
X-32600132Y47495737D01*
X-32468787Y47495592D01*
X-32468351Y47495591D01*
X-32468351Y47495592D01*
X-32468348Y47495591D01*
X-32468346Y47495592D01*
X-32458666Y47496855D01*
X-32458594Y47496298D01*
X-32434162Y47499500D01*
X16107315Y47499500D01*
X16107318Y47499500D01*
X16319769Y47530046D01*
X16319771Y47530047D01*
X16319773Y47530047D01*
X16350371Y47539032D01*
X16525710Y47590516D01*
X16720950Y47679679D01*
X16901513Y47795719D01*
X17063724Y47936276D01*
X17204281Y48098487D01*
X17320321Y48279050D01*
X17409484Y48474290D01*
X17469954Y48680231D01*
X17500500Y48892682D01*
X17500500Y48991633D01*
X17501437Y49008316D01*
X17505389Y49043391D01*
X17511144Y49094468D01*
X17518568Y49126994D01*
X17544421Y49200879D01*
X17558898Y49230940D01*
X17600543Y49297218D01*
X17621342Y49323301D01*
X17676699Y49378658D01*
X17702782Y49399457D01*
X17769060Y49441102D01*
X17799118Y49455578D01*
X17873008Y49481433D01*
X17905532Y49488856D01*
X17991684Y49498564D01*
X18008367Y49499500D01*
X18065892Y49499500D01*
X25934108Y49499500D01*
X25991633Y49499500D01*
X26008315Y49498564D01*
G37*
%TD.AperFunction*%
%TA.AperFunction,Conductor*%
G36*
X1174075Y36037007D02*
G01*
X1239901Y35922993D01*
X1332993Y35829901D01*
X1447007Y35764075D01*
X1566358Y35732095D01*
X878404Y35044141D01*
X811609Y35005577D01*
X773045Y35000500D01*
X-6210Y35000500D01*
X-80710Y35020462D01*
X-135248Y35075000D01*
X-155210Y35149500D01*
X-135248Y35224000D01*
X-93793Y35270041D01*
X-85354Y35276172D01*
X53828Y35415354D01*
X169524Y35574595D01*
X181404Y35597912D01*
X233010Y35655228D01*
X306363Y35679064D01*
X381806Y35663029D01*
X439124Y35611422D01*
X446923Y35597914D01*
X485376Y35522448D01*
X494972Y35509239D01*
X1142093Y36156360D01*
X1174075Y36037007D01*
G37*
%TD.AperFunction*%
%TA.AperFunction,Conductor*%
G36*
X2785025Y35509239D02*
G01*
X2785026Y35509239D01*
X2794620Y35522442D01*
X2833075Y35597914D01*
X2884684Y35655231D01*
X2958037Y35679065D01*
X3033480Y35663029D01*
X3090797Y35611420D01*
X3098591Y35597920D01*
X3110476Y35574595D01*
X3226172Y35415354D01*
X3365354Y35276172D01*
X3373792Y35270042D01*
X3422328Y35210104D01*
X3434394Y35133925D01*
X3406754Y35061920D01*
X3346814Y35013382D01*
X3286210Y35000500D01*
X2506954Y35000500D01*
X2432454Y35020462D01*
X2401595Y35044141D01*
X1713641Y35732095D01*
X1832993Y35764075D01*
X1947007Y35829901D01*
X2040099Y35922993D01*
X2105925Y36037007D01*
X2137905Y36156359D01*
X2785025Y35509239D01*
G37*
%TD.AperFunction*%
%TA.AperFunction,Conductor*%
G36*
X11334075Y36037007D02*
G01*
X11399901Y35922993D01*
X11492993Y35829901D01*
X11607007Y35764075D01*
X11726358Y35732095D01*
X11038404Y35044141D01*
X10971609Y35005577D01*
X10933045Y35000500D01*
X10153790Y35000500D01*
X10079290Y35020462D01*
X10024752Y35075000D01*
X10004790Y35149500D01*
X10024752Y35224000D01*
X10066207Y35270041D01*
X10074646Y35276172D01*
X10213828Y35415354D01*
X10329524Y35574595D01*
X10341404Y35597912D01*
X10393010Y35655228D01*
X10466363Y35679064D01*
X10541806Y35663029D01*
X10599124Y35611422D01*
X10606923Y35597914D01*
X10645376Y35522448D01*
X10654972Y35509239D01*
X11302093Y36156360D01*
X11334075Y36037007D01*
G37*
%TD.AperFunction*%
%TA.AperFunction,Conductor*%
G36*
X12945025Y35509239D02*
G01*
X12945026Y35509239D01*
X12954620Y35522442D01*
X12993075Y35597914D01*
X13044684Y35655231D01*
X13118037Y35679065D01*
X13193480Y35663029D01*
X13250797Y35611420D01*
X13258591Y35597920D01*
X13270476Y35574595D01*
X13386172Y35415354D01*
X13525354Y35276172D01*
X13533792Y35270042D01*
X13582328Y35210104D01*
X13594394Y35133925D01*
X13566754Y35061920D01*
X13506814Y35013382D01*
X13446210Y35000500D01*
X12666954Y35000500D01*
X12592454Y35020462D01*
X12561595Y35044141D01*
X11873641Y35732095D01*
X11992993Y35764075D01*
X12107007Y35829901D01*
X12200099Y35922993D01*
X12265925Y36037007D01*
X12297905Y36156359D01*
X12945025Y35509239D01*
G37*
%TD.AperFunction*%
%TA.AperFunction,Conductor*%
G36*
X18954075Y36037007D02*
G01*
X19019901Y35922993D01*
X19112993Y35829901D01*
X19227007Y35764075D01*
X19346358Y35732095D01*
X18658404Y35044141D01*
X18591609Y35005577D01*
X18553045Y35000500D01*
X17773790Y35000500D01*
X17699290Y35020462D01*
X17644752Y35075000D01*
X17624790Y35149500D01*
X17644752Y35224000D01*
X17686207Y35270041D01*
X17694646Y35276172D01*
X17833828Y35415354D01*
X17949524Y35574595D01*
X17961404Y35597912D01*
X18013010Y35655228D01*
X18086363Y35679064D01*
X18161806Y35663029D01*
X18219124Y35611422D01*
X18226923Y35597914D01*
X18265376Y35522448D01*
X18274972Y35509239D01*
X18922093Y36156360D01*
X18954075Y36037007D01*
G37*
%TD.AperFunction*%
%TA.AperFunction,Conductor*%
G36*
X20565025Y35509239D02*
G01*
X20565026Y35509239D01*
X20574620Y35522442D01*
X20613075Y35597914D01*
X20664684Y35655231D01*
X20738037Y35679065D01*
X20813480Y35663029D01*
X20870797Y35611420D01*
X20878591Y35597920D01*
X20890476Y35574595D01*
X21006172Y35415354D01*
X21145354Y35276172D01*
X21153792Y35270042D01*
X21202328Y35210104D01*
X21214394Y35133925D01*
X21186754Y35061920D01*
X21126814Y35013382D01*
X21066210Y35000500D01*
X20286954Y35000500D01*
X20212454Y35020462D01*
X20181595Y35044141D01*
X19493641Y35732095D01*
X19612993Y35764075D01*
X19727007Y35829901D01*
X19820099Y35922993D01*
X19885925Y36037007D01*
X19917905Y36156359D01*
X20565025Y35509239D01*
G37*
%TD.AperFunction*%
%TA.AperFunction,Conductor*%
G36*
X437644Y38312612D02*
G01*
X494962Y38261004D01*
X502759Y38247497D01*
X570476Y38114595D01*
X686172Y37955354D01*
X825354Y37816172D01*
X984595Y37700476D01*
X1007913Y37688595D01*
X1065228Y37636988D01*
X1089063Y37563635D01*
X1073028Y37488192D01*
X1021419Y37430875D01*
X1007914Y37423077D01*
X932444Y37384622D01*
X919237Y37375028D01*
X1566358Y36727906D01*
X1447007Y36695925D01*
X1332993Y36630099D01*
X1239901Y36537007D01*
X1174075Y36422993D01*
X1142094Y36303642D01*
X494972Y36950763D01*
X485378Y36937556D01*
X446923Y36862086D01*
X395313Y36804770D01*
X321960Y36780937D01*
X246517Y36796974D01*
X189201Y36848584D01*
X181411Y36862074D01*
X169524Y36885405D01*
X53828Y37044646D01*
X-85354Y37183828D01*
X-244595Y37299524D01*
X-377497Y37367241D01*
X-434814Y37418848D01*
X-458648Y37492201D01*
X-442612Y37567644D01*
X-391004Y37624962D01*
X-377496Y37632760D01*
X-369198Y37636988D01*
X-244595Y37700476D01*
X-85354Y37816172D01*
X53828Y37955354D01*
X169524Y38114595D01*
X237240Y38247497D01*
X288848Y38304814D01*
X362201Y38328648D01*
X437644Y38312612D01*
G37*
%TD.AperFunction*%
%TA.AperFunction,Conductor*%
G36*
X10597644Y38312612D02*
G01*
X10654962Y38261004D01*
X10662759Y38247497D01*
X10730476Y38114595D01*
X10846172Y37955354D01*
X10985354Y37816172D01*
X11144595Y37700476D01*
X11167913Y37688595D01*
X11225228Y37636988D01*
X11249063Y37563635D01*
X11233028Y37488192D01*
X11181419Y37430875D01*
X11167914Y37423077D01*
X11092444Y37384622D01*
X11079237Y37375028D01*
X11726358Y36727906D01*
X11607007Y36695925D01*
X11492993Y36630099D01*
X11399901Y36537007D01*
X11334075Y36422993D01*
X11302094Y36303642D01*
X10654972Y36950763D01*
X10645378Y36937556D01*
X10606923Y36862086D01*
X10555313Y36804770D01*
X10481960Y36780937D01*
X10406517Y36796974D01*
X10349201Y36848584D01*
X10341411Y36862074D01*
X10329524Y36885405D01*
X10213828Y37044646D01*
X10074646Y37183828D01*
X9915405Y37299524D01*
X9782503Y37367241D01*
X9725186Y37418848D01*
X9701352Y37492201D01*
X9717388Y37567644D01*
X9768996Y37624962D01*
X9782504Y37632760D01*
X9790802Y37636988D01*
X9915405Y37700476D01*
X10074646Y37816172D01*
X10213828Y37955354D01*
X10329524Y38114595D01*
X10397240Y38247497D01*
X10448848Y38304814D01*
X10522201Y38328648D01*
X10597644Y38312612D01*
G37*
%TD.AperFunction*%
%TA.AperFunction,Conductor*%
G36*
X18217644Y38312612D02*
G01*
X18274962Y38261004D01*
X18282759Y38247497D01*
X18350476Y38114595D01*
X18466172Y37955354D01*
X18605354Y37816172D01*
X18764595Y37700476D01*
X18787913Y37688595D01*
X18845228Y37636988D01*
X18869063Y37563635D01*
X18853028Y37488192D01*
X18801419Y37430875D01*
X18787914Y37423077D01*
X18712444Y37384622D01*
X18699237Y37375028D01*
X19346358Y36727906D01*
X19227007Y36695925D01*
X19112993Y36630099D01*
X19019901Y36537007D01*
X18954075Y36422993D01*
X18922094Y36303642D01*
X18274972Y36950763D01*
X18265378Y36937556D01*
X18226923Y36862086D01*
X18175313Y36804770D01*
X18101960Y36780937D01*
X18026517Y36796974D01*
X17969201Y36848584D01*
X17961411Y36862074D01*
X17949524Y36885405D01*
X17833828Y37044646D01*
X17694646Y37183828D01*
X17535405Y37299524D01*
X17402503Y37367241D01*
X17345186Y37418848D01*
X17321352Y37492201D01*
X17337388Y37567644D01*
X17388996Y37624962D01*
X17402504Y37632760D01*
X17410802Y37636988D01*
X17535405Y37700476D01*
X17694646Y37816172D01*
X17833828Y37955354D01*
X17949524Y38114595D01*
X18017240Y38247497D01*
X18068848Y38304814D01*
X18142201Y38328648D01*
X18217644Y38312612D01*
G37*
%TD.AperFunction*%
%TA.AperFunction,Conductor*%
G36*
X2947305Y38319061D02*
G01*
X2977644Y38312612D01*
X2983567Y38307279D01*
X2991152Y38304814D01*
X3011908Y38281761D01*
X3034962Y38261004D01*
X3042759Y38247497D01*
X3110476Y38114595D01*
X3226172Y37955354D01*
X3365354Y37816172D01*
X3524595Y37700476D01*
X3563214Y37680799D01*
X3657495Y37632760D01*
X3714813Y37581151D01*
X3738647Y37507798D01*
X3722611Y37432356D01*
X3671002Y37375038D01*
X3657495Y37367240D01*
X3524598Y37299526D01*
X3524593Y37299523D01*
X3365363Y37183835D01*
X3365352Y37183826D01*
X3226174Y37044648D01*
X3226165Y37044637D01*
X3110477Y36885407D01*
X3110476Y36885406D01*
X3098594Y36862086D01*
X3046984Y36804769D01*
X2973630Y36780937D01*
X2898188Y36796974D01*
X2840871Y36848584D01*
X2833075Y36862088D01*
X2794624Y36937552D01*
X2785025Y36950763D01*
X2137905Y36303643D01*
X2105925Y36422993D01*
X2040099Y36537007D01*
X1947007Y36630099D01*
X1832993Y36695925D01*
X1713640Y36727907D01*
X2360761Y37375028D01*
X2347552Y37384624D01*
X2272086Y37423077D01*
X2214769Y37474686D01*
X2190936Y37548039D01*
X2206973Y37623482D01*
X2258582Y37680799D01*
X2272082Y37688593D01*
X2295405Y37700476D01*
X2454646Y37816172D01*
X2593828Y37955354D01*
X2709524Y38114595D01*
X2777240Y38247497D01*
X2782573Y38253420D01*
X2785038Y38261004D01*
X2808091Y38281761D01*
X2828848Y38304814D01*
X2836432Y38307279D01*
X2842356Y38312612D01*
X2872694Y38319061D01*
X2902201Y38328648D01*
X2910000Y38326991D01*
X2917799Y38328648D01*
X2947305Y38319061D01*
G37*
%TD.AperFunction*%
%TA.AperFunction,Conductor*%
G36*
X13107305Y38319061D02*
G01*
X13137644Y38312612D01*
X13143567Y38307279D01*
X13151152Y38304814D01*
X13171908Y38281761D01*
X13194962Y38261004D01*
X13202759Y38247497D01*
X13270476Y38114595D01*
X13386172Y37955354D01*
X13525354Y37816172D01*
X13684595Y37700476D01*
X13723214Y37680799D01*
X13817495Y37632760D01*
X13874813Y37581151D01*
X13898647Y37507798D01*
X13882611Y37432356D01*
X13831002Y37375038D01*
X13817495Y37367240D01*
X13684598Y37299526D01*
X13684593Y37299523D01*
X13525363Y37183835D01*
X13525352Y37183826D01*
X13386174Y37044648D01*
X13386165Y37044637D01*
X13270477Y36885407D01*
X13270476Y36885406D01*
X13258594Y36862086D01*
X13206984Y36804769D01*
X13133630Y36780937D01*
X13058188Y36796974D01*
X13000871Y36848584D01*
X12993075Y36862088D01*
X12954624Y36937552D01*
X12945025Y36950763D01*
X12297905Y36303643D01*
X12265925Y36422993D01*
X12200099Y36537007D01*
X12107007Y36630099D01*
X11992993Y36695925D01*
X11873640Y36727907D01*
X12520761Y37375028D01*
X12507552Y37384624D01*
X12432086Y37423077D01*
X12374769Y37474686D01*
X12350936Y37548039D01*
X12366973Y37623482D01*
X12418582Y37680799D01*
X12432082Y37688593D01*
X12455405Y37700476D01*
X12614646Y37816172D01*
X12753828Y37955354D01*
X12869524Y38114595D01*
X12937240Y38247497D01*
X12942573Y38253420D01*
X12945038Y38261004D01*
X12968091Y38281761D01*
X12988848Y38304814D01*
X12996432Y38307279D01*
X13002356Y38312612D01*
X13032694Y38319061D01*
X13062201Y38328648D01*
X13070000Y38326991D01*
X13077799Y38328648D01*
X13107305Y38319061D01*
G37*
%TD.AperFunction*%
%TA.AperFunction,Conductor*%
G36*
X20727305Y38319061D02*
G01*
X20757644Y38312612D01*
X20763567Y38307279D01*
X20771152Y38304814D01*
X20791908Y38281761D01*
X20814962Y38261004D01*
X20822759Y38247497D01*
X20890476Y38114595D01*
X21006172Y37955354D01*
X21145354Y37816172D01*
X21304595Y37700476D01*
X21343214Y37680799D01*
X21437495Y37632760D01*
X21494813Y37581151D01*
X21518647Y37507798D01*
X21502611Y37432356D01*
X21451002Y37375038D01*
X21437495Y37367240D01*
X21304598Y37299526D01*
X21304593Y37299523D01*
X21145363Y37183835D01*
X21145352Y37183826D01*
X21006174Y37044648D01*
X21006165Y37044637D01*
X20890477Y36885407D01*
X20890476Y36885406D01*
X20878594Y36862086D01*
X20826984Y36804769D01*
X20753630Y36780937D01*
X20678188Y36796974D01*
X20620871Y36848584D01*
X20613075Y36862088D01*
X20574624Y36937552D01*
X20565025Y36950763D01*
X19917905Y36303643D01*
X19885925Y36422993D01*
X19820099Y36537007D01*
X19727007Y36630099D01*
X19612993Y36695925D01*
X19493640Y36727907D01*
X20140761Y37375028D01*
X20127552Y37384624D01*
X20052086Y37423077D01*
X19994769Y37474686D01*
X19970936Y37548039D01*
X19986973Y37623482D01*
X20038582Y37680799D01*
X20052082Y37688593D01*
X20075405Y37700476D01*
X20234646Y37816172D01*
X20373828Y37955354D01*
X20489524Y38114595D01*
X20557240Y38247497D01*
X20562573Y38253420D01*
X20565038Y38261004D01*
X20588091Y38281761D01*
X20608848Y38304814D01*
X20616432Y38307279D01*
X20622356Y38312612D01*
X20652694Y38319061D01*
X20682201Y38328648D01*
X20690000Y38326991D01*
X20697799Y38328648D01*
X20727305Y38319061D01*
G37*
%TD.AperFunction*%
%TA.AperFunction,Conductor*%
G36*
X6254075Y38577007D02*
G01*
X6319901Y38462993D01*
X6412993Y38369901D01*
X6527007Y38304075D01*
X6646358Y38272095D01*
X5999237Y37624975D01*
X6012448Y37615376D01*
X6087912Y37576925D01*
X6145229Y37525316D01*
X6169063Y37451962D01*
X6153027Y37376520D01*
X6101418Y37319203D01*
X6087914Y37311406D01*
X6064594Y37299524D01*
X6064593Y37299523D01*
X5905363Y37183835D01*
X5905352Y37183826D01*
X5766174Y37044648D01*
X5766165Y37044637D01*
X5650477Y36885407D01*
X5650474Y36885402D01*
X5582760Y36752505D01*
X5531151Y36695187D01*
X5457798Y36671353D01*
X5382356Y36687389D01*
X5325038Y36738998D01*
X5317240Y36752505D01*
X5268285Y36848584D01*
X5249524Y36885405D01*
X5133828Y37044646D01*
X4994646Y37183828D01*
X4835405Y37299524D01*
X4702503Y37367241D01*
X4645186Y37418848D01*
X4621352Y37492201D01*
X4637388Y37567644D01*
X4688996Y37624962D01*
X4702504Y37632760D01*
X4710802Y37636988D01*
X4835405Y37700476D01*
X4994646Y37816172D01*
X5133828Y37955354D01*
X5249524Y38114595D01*
X5261404Y38137912D01*
X5313010Y38195228D01*
X5386363Y38219064D01*
X5461806Y38203029D01*
X5519124Y38151422D01*
X5526923Y38137914D01*
X5565376Y38062448D01*
X5574972Y38049239D01*
X6222093Y38696360D01*
X6254075Y38577007D01*
G37*
%TD.AperFunction*%
%TA.AperFunction,Conductor*%
G36*
X7865025Y38049239D02*
G01*
X7865026Y38049239D01*
X7874620Y38062442D01*
X7913075Y38137914D01*
X7964684Y38195231D01*
X8038037Y38219065D01*
X8113480Y38203029D01*
X8170797Y38151420D01*
X8178591Y38137920D01*
X8190476Y38114595D01*
X8306172Y37955354D01*
X8445354Y37816172D01*
X8604595Y37700476D01*
X8643214Y37680799D01*
X8737495Y37632760D01*
X8794813Y37581151D01*
X8818647Y37507798D01*
X8802611Y37432356D01*
X8751002Y37375038D01*
X8737495Y37367240D01*
X8604598Y37299526D01*
X8604593Y37299523D01*
X8445363Y37183835D01*
X8445352Y37183826D01*
X8306174Y37044648D01*
X8306165Y37044637D01*
X8190477Y36885407D01*
X8190474Y36885402D01*
X8122760Y36752505D01*
X8071151Y36695187D01*
X7997798Y36671353D01*
X7922356Y36687389D01*
X7865038Y36738998D01*
X7857240Y36752505D01*
X7808285Y36848584D01*
X7789524Y36885405D01*
X7673828Y37044646D01*
X7534646Y37183828D01*
X7375406Y37299523D01*
X7375407Y37299523D01*
X7374596Y37299937D01*
X7352086Y37311406D01*
X7294770Y37363013D01*
X7270935Y37436366D01*
X7286970Y37511808D01*
X7338579Y37569126D01*
X7352086Y37576925D01*
X7427558Y37615380D01*
X7440761Y37624974D01*
X7440761Y37624975D01*
X6793641Y38272095D01*
X6912993Y38304075D01*
X7027007Y38369901D01*
X7120099Y38462993D01*
X7185925Y38577007D01*
X7217905Y38696359D01*
X7865025Y38049239D01*
G37*
%TD.AperFunction*%
%TA.AperFunction,Conductor*%
G36*
X15647305Y38319061D02*
G01*
X15677644Y38312612D01*
X15683567Y38307279D01*
X15691152Y38304814D01*
X15711908Y38281761D01*
X15734962Y38261004D01*
X15742759Y38247497D01*
X15810476Y38114595D01*
X15926172Y37955354D01*
X16065354Y37816172D01*
X16224595Y37700476D01*
X16263214Y37680799D01*
X16357495Y37632760D01*
X16414813Y37581151D01*
X16438647Y37507798D01*
X16422611Y37432356D01*
X16371002Y37375038D01*
X16357495Y37367240D01*
X16224598Y37299526D01*
X16224593Y37299523D01*
X16065363Y37183835D01*
X16065352Y37183826D01*
X15926174Y37044648D01*
X15926165Y37044637D01*
X15810477Y36885407D01*
X15810474Y36885402D01*
X15742760Y36752505D01*
X15691151Y36695187D01*
X15617798Y36671353D01*
X15542356Y36687389D01*
X15485038Y36738998D01*
X15477240Y36752505D01*
X15428285Y36848584D01*
X15409524Y36885405D01*
X15293828Y37044646D01*
X15154646Y37183828D01*
X14995405Y37299524D01*
X14862503Y37367241D01*
X14805186Y37418848D01*
X14781352Y37492201D01*
X14797388Y37567644D01*
X14848996Y37624962D01*
X14862504Y37632760D01*
X14870802Y37636988D01*
X14995405Y37700476D01*
X15154646Y37816172D01*
X15293828Y37955354D01*
X15409524Y38114595D01*
X15477240Y38247497D01*
X15482573Y38253420D01*
X15485038Y38261004D01*
X15508091Y38281761D01*
X15528848Y38304814D01*
X15536432Y38307279D01*
X15542356Y38312612D01*
X15572694Y38319061D01*
X15602201Y38328648D01*
X15610000Y38326991D01*
X15617799Y38328648D01*
X15647305Y38319061D01*
G37*
%TD.AperFunction*%
%TA.AperFunction,Conductor*%
G36*
X23297644Y38312612D02*
G01*
X23354962Y38261004D01*
X23362759Y38247497D01*
X23430476Y38114595D01*
X23546172Y37955354D01*
X23685354Y37816172D01*
X23844595Y37700476D01*
X23883214Y37680799D01*
X23977495Y37632760D01*
X24034813Y37581151D01*
X24058647Y37507798D01*
X24042611Y37432356D01*
X23991002Y37375038D01*
X23977495Y37367240D01*
X23844598Y37299526D01*
X23844593Y37299523D01*
X23685363Y37183835D01*
X23685352Y37183826D01*
X23546174Y37044648D01*
X23546165Y37044637D01*
X23430477Y36885407D01*
X23430474Y36885402D01*
X23362760Y36752505D01*
X23311151Y36695187D01*
X23237798Y36671353D01*
X23162356Y36687389D01*
X23105038Y36738998D01*
X23097240Y36752505D01*
X23048285Y36848584D01*
X23029524Y36885405D01*
X22913828Y37044646D01*
X22774646Y37183828D01*
X22615405Y37299524D01*
X22482503Y37367241D01*
X22425186Y37418848D01*
X22401352Y37492201D01*
X22417388Y37567644D01*
X22468996Y37624962D01*
X22482504Y37632760D01*
X22490802Y37636988D01*
X22615405Y37700476D01*
X22774646Y37816172D01*
X22913828Y37955354D01*
X23029524Y38114595D01*
X23097240Y38247497D01*
X23148848Y38304814D01*
X23222201Y38328648D01*
X23297644Y38312612D01*
G37*
%TD.AperFunction*%
%TA.AperFunction,Conductor*%
G36*
X26574075Y38577007D02*
G01*
X26639901Y38462993D01*
X26732993Y38369901D01*
X26847007Y38304075D01*
X26966358Y38272095D01*
X26319237Y37624975D01*
X26332448Y37615376D01*
X26407912Y37576925D01*
X26465229Y37525316D01*
X26489063Y37451962D01*
X26473027Y37376520D01*
X26421418Y37319203D01*
X26407914Y37311406D01*
X26384594Y37299524D01*
X26384593Y37299523D01*
X26225363Y37183835D01*
X26225352Y37183826D01*
X26086174Y37044648D01*
X26086165Y37044637D01*
X25970477Y36885407D01*
X25970474Y36885402D01*
X25902760Y36752505D01*
X25851151Y36695187D01*
X25777798Y36671353D01*
X25702356Y36687389D01*
X25645038Y36738998D01*
X25637240Y36752505D01*
X25588285Y36848584D01*
X25569524Y36885405D01*
X25453828Y37044646D01*
X25314646Y37183828D01*
X25155405Y37299524D01*
X25022503Y37367241D01*
X24965186Y37418848D01*
X24941352Y37492201D01*
X24957388Y37567644D01*
X25008996Y37624962D01*
X25022504Y37632760D01*
X25030802Y37636988D01*
X25155405Y37700476D01*
X25314646Y37816172D01*
X25453828Y37955354D01*
X25569524Y38114595D01*
X25581404Y38137912D01*
X25633010Y38195228D01*
X25706363Y38219064D01*
X25781806Y38203029D01*
X25839124Y38151422D01*
X25846923Y38137914D01*
X25885376Y38062448D01*
X25894972Y38049239D01*
X26542093Y38696360D01*
X26574075Y38577007D01*
G37*
%TD.AperFunction*%
%TA.AperFunction,Conductor*%
G36*
X6007190Y40179538D02*
G01*
X6061728Y40125000D01*
X6081690Y40050500D01*
X6061728Y39976000D01*
X6016262Y39929328D01*
X6017181Y39928063D01*
X5999237Y39915028D01*
X6646358Y39267906D01*
X6527007Y39235925D01*
X6412993Y39170099D01*
X6319901Y39077007D01*
X6254075Y38962993D01*
X6222094Y38843642D01*
X5574972Y39490763D01*
X5565378Y39477556D01*
X5526923Y39402086D01*
X5475313Y39344770D01*
X5401960Y39320937D01*
X5326517Y39336974D01*
X5269201Y39388584D01*
X5261411Y39402074D01*
X5249524Y39425405D01*
X5133828Y39584646D01*
X4994646Y39723828D01*
X4835405Y39839524D01*
X4816369Y39849223D01*
X4681897Y39917740D01*
X4624579Y39969349D01*
X4600745Y40042702D01*
X4616781Y40118144D01*
X4668390Y40175462D01*
X4741743Y40199296D01*
X4749541Y40199500D01*
X5932690Y40199500D01*
X6007190Y40179538D01*
G37*
%TD.AperFunction*%
%TD*%
M02*
