<?xml version="1.0" standalone="no"?>
 <!DOCTYPE svg PUBLIC "-//W3C//DTD SVG 1.1//EN" 
 "http://www.w3.org/Graphics/SVG/1.1/DTD/svg11.dtd"> 
<svg
  xmlns:svg="http://www.w3.org/2000/svg"
  xmlns="http://www.w3.org/2000/svg"
  xmlns:xlink="http://www.w3.org/1999/xlink"
  version="1.1"
  width="297.0022mm" height="210.0072mm" viewBox="0.0000 0.0000 297.0022 210.0072">
<title>SVG Image created as PMLED-18-PTH-drl_map.svg date 2025/12/05 20:43:44 </title>
  <desc>Image generated by PCBNEW </desc>
<g style="fill:#000000; fill-opacity:1.0000;stroke:#000000; stroke-opacity:1.0000;
stroke-linecap:round; stroke-linejoin:round;"
 transform="translate(0 0) scale(1 1)">
</g>
<g style="fill:none; 
stroke:#000000; stroke-width:0.2412; stroke-opacity:1; 
stroke-linecap:round; stroke-linejoin:round;">
<path d="M137.6509 11.1499 A3.6176 3.6176 0.0 0 0 141.2685 14.7675" />
<path d="M166.5865 117.2661
L166.5865 8.7382
" />
<path d="M137.6509 8.7382 A3.6176 3.6176 0.0 0 0 134.0333 5.1206" />
<path d="M134.0333 5.1206 A3.6176 3.6176 0.0 0 0 130.4157 8.7382" />
<path d="M141.2685 111.2368 A3.6176 3.6176 0.0 0 0 137.6509 114.8544" />
<path d="M155.7389 14.7675 A3.6176 3.6176 0.0 0 0 159.3565 11.1499" />
<path d="M162.9741 120.8786 A3.6124 3.6124 0.0 0 0 166.5865 117.2661" />
<path d="M134.0333 120.8837 A3.6176 3.6176 0.0 0 0 137.6509 117.2661" />
<path d="M159.3565 114.8544 A3.6176 3.6176 0.0 0 0 155.7389 111.2368" />
<path d="M137.6509 11.1499
L137.6509 8.7382
" />
<path d="M130.4157 8.7382
L130.4157 117.2661
" />
<path d="M130.4157 117.2661 A3.6176 3.6176 0.0 0 0 134.0333 120.8837" />
<path d="M159.3565 11.1499
L159.3565 8.7382
" />
<path d="M141.2685 111.2368
L155.7389 111.2368
" />
<path d="M137.6509 117.2661
L137.6509 114.8544
" />
<path d="M159.3565 117.2661
L159.3565 114.8544
" />
<path d="M166.5865 8.7382 A3.6124 3.6124 0.0 0 0 162.9741 5.1258" />
<path d="M162.9741 5.1206 A3.6176 3.6176 0.0 0 0 159.3565 8.7382" />
<path d="M141.2685 14.7675
L155.7389 14.7675
" />
<path d="M159.3565 117.2661 A3.6176 3.6176 0.0 0 0 162.9741 120.8837" />
</g>
<g style="fill:none; 
stroke:#000000; stroke-width:0.1206; stroke-opacity:1; 
stroke-linecap:round; stroke-linejoin:round;">
<path d="M139.8215 19.9527
L140.3038 20.4351
" />
<path d="M140.3038 19.9527
L139.8215 20.4351
" />
<path d="M139.8215 21.1586
L140.3038 21.6410
" />
<path d="M140.3038 21.1586
L139.8215 21.6410
" />
<path d="M139.8215 22.3645
L140.3038 22.8468
" />
<path d="M140.3038 22.3645
L139.8215 22.8468
" />
<path d="M139.8215 23.5703
L140.3038 24.0527
" />
<path d="M140.3038 23.5703
L139.8215 24.0527
" />
<path d="M139.8215 24.7762
L140.3038 25.2586
" />
<path d="M140.3038 24.7762
L139.8215 25.2586
" />
<path d="M139.8215 25.9821
L140.3038 26.4644
" />
<path d="M140.3038 25.9821
L139.8215 26.4644
" />
<path d="M139.8215 27.1879
L140.3038 27.6703
" />
<path d="M140.3038 27.1879
L139.8215 27.6703
" />
<path d="M139.8215 28.3938
L140.3038 28.8761
" />
<path d="M140.3038 28.3938
L139.8215 28.8761
" />
<path d="M139.8215 29.5997
L140.3038 30.0820
" />
<path d="M140.3038 29.5997
L139.8215 30.0820
" />
<path d="M139.8215 33.2173
L140.3038 33.6996
" />
<path d="M140.3038 33.2173
L139.8215 33.6996
" />
<path d="M139.8215 44.0701
L140.3038 44.5524
" />
<path d="M140.3038 44.0701
L139.8215 44.5524
" />
<path d="M139.8215 45.2759
L140.3038 45.7583
" />
<path d="M140.3038 45.2759
L139.8215 45.7583
" />
<path d="M139.8215 46.4818
L140.3038 46.9641
" />
<path d="M140.3038 46.4818
L139.8215 46.9641
" />
<path d="M139.8215 47.6877
L140.3038 48.1700
" />
<path d="M140.3038 47.6877
L139.8215 48.1700
" />
<path d="M139.8215 48.8935
L140.3038 49.3759
" />
<path d="M140.3038 48.8935
L139.8215 49.3759
" />
<path d="M139.8215 50.0994
L140.3038 50.5817
" />
<path d="M140.3038 50.0994
L139.8215 50.5817
" />
<path d="M139.8215 51.3053
L140.3038 51.7876
" />
<path d="M140.3038 51.3053
L139.8215 51.7876
" />
<path d="M139.8215 52.5111
L140.3038 52.9935
" />
<path d="M140.3038 52.5111
L139.8215 52.9935
" />
<path d="M139.8215 53.7170
L140.3038 54.1993
" />
<path d="M140.3038 53.7170
L139.8215 54.1993
" />
<path d="M139.8215 57.3346
L140.3038 57.8169
" />
<path d="M140.3038 57.3346
L139.8215 57.8169
" />
<path d="M139.8215 68.1874
L140.3038 68.6697
" />
<path d="M140.3038 68.1874
L139.8215 68.6697
" />
<path d="M139.8215 69.3932
L140.3038 69.8756
" />
<path d="M140.3038 69.3932
L139.8215 69.8756
" />
<path d="M139.8215 70.5991
L140.3038 71.0815
" />
<path d="M140.3038 70.5991
L139.8215 71.0815
" />
<path d="M139.8215 71.8050
L140.3038 72.2873
" />
<path d="M140.3038 71.8050
L139.8215 72.2873
" />
<path d="M139.8215 73.0108
L140.3038 73.4932
" />
<path d="M140.3038 73.0108
L139.8215 73.4932
" />
<path d="M139.8215 74.2167
L140.3038 74.6991
" />
<path d="M140.3038 74.2167
L139.8215 74.6991
" />
<path d="M139.8215 75.4226
L140.3038 75.9049
" />
<path d="M140.3038 75.4226
L139.8215 75.9049
" />
<path d="M139.8215 76.6284
L140.3038 77.1108
" />
<path d="M140.3038 76.6284
L139.8215 77.1108
" />
<path d="M139.8215 77.8343
L140.3038 78.3167
" />
<path d="M140.3038 77.8343
L139.8215 78.3167
" />
<path d="M139.8215 79.0402
L140.3038 79.5225
" />
<path d="M140.3038 79.0402
L139.8215 79.5225
" />
<path d="M139.8215 80.2460
L140.3038 80.7284
" />
<path d="M140.3038 80.2460
L139.8215 80.7284
" />
<path d="M139.8215 81.4519
L140.3038 81.9343
" />
<path d="M140.3038 81.4519
L139.8215 81.9343
" />
<path d="M139.8215 92.3047
L140.3038 92.7871
" />
<path d="M140.3038 92.3047
L139.8215 92.7871
" />
<path d="M139.8215 93.5106
L140.3038 93.9929
" />
<path d="M140.3038 93.5106
L139.8215 93.9929
" />
<path d="M139.8215 94.7164
L140.3038 95.1988
" />
<path d="M140.3038 94.7164
L139.8215 95.1988
" />
<path d="M139.8215 95.9223
L140.3038 96.4047
" />
<path d="M140.3038 95.9223
L139.8215 96.4047
" />
<path d="M139.8215 97.1282
L140.3038 97.6105
" />
<path d="M140.3038 97.1282
L139.8215 97.6105
" />
<path d="M139.8215 98.3340
L140.3038 98.8164
" />
<path d="M140.3038 98.3340
L139.8215 98.8164
" />
<path d="M139.8215 99.5399
L140.3038 100.0222
" />
<path d="M140.3038 99.5399
L139.8215 100.0222
" />
<path d="M139.8215 100.7458
L140.3038 101.2281
" />
<path d="M140.3038 100.7458
L139.8215 101.2281
" />
<path d="M139.8215 101.9516
L140.3038 102.4340
" />
<path d="M140.3038 101.9516
L139.8215 102.4340
" />
<path d="M139.8215 103.1575
L140.3038 103.6398
" />
<path d="M140.3038 103.1575
L139.8215 103.6398
" />
<path d="M139.8215 104.3634
L140.3038 104.8457
" />
<path d="M140.3038 104.3634
L139.8215 104.8457
" />
<path d="M139.8215 105.5692
L140.3038 106.0516
" />
<path d="M140.3038 105.5692
L139.8215 106.0516
" />
<path d="M145.8508 69.3932
L146.3331 69.8756
" />
<path d="M146.3331 69.3932
L145.8508 69.8756
" />
<path d="M145.8508 93.5106
L146.3331 93.9929
" />
<path d="M146.3331 93.5106
L145.8508 93.9929
" />
<path d="M147.0566 70.5991
L147.5390 71.0815
" />
<path d="M147.5390 70.5991
L147.0566 71.0815
" />
<path d="M147.0566 94.7164
L147.5390 95.1988
" />
<path d="M147.5390 94.7164
L147.0566 95.1988
" />
<path d="M148.2625 21.1586
L148.7449 21.6410
" />
<path d="M148.7449 21.1586
L148.2625 21.6410
" />
<path d="M148.2625 45.2759
L148.7449 45.7583
" />
<path d="M148.7449 45.2759
L148.2625 45.7583
" />
<path d="M148.2625 71.8050
L148.7449 72.2873
" />
<path d="M148.7449 71.8050
L148.2625 72.2873
" />
<path d="M148.2625 95.9223
L148.7449 96.4047
" />
<path d="M148.7449 95.9223
L148.2625 96.4047
" />
<path d="M149.4684 22.3645
L149.9507 22.8468
" />
<path d="M149.9507 22.3645
L149.4684 22.8468
" />
<path d="M149.4684 46.4818
L149.9507 46.9641
" />
<path d="M149.9507 46.4818
L149.4684 46.9641
" />
<path d="M149.4684 73.0108
L149.9507 73.4932
" />
<path d="M149.9507 73.0108
L149.4684 73.4932
" />
<path d="M149.4684 97.1282
L149.9507 97.6105
" />
<path d="M149.9507 97.1282
L149.4684 97.6105
" />
<path d="M150.6742 23.5703
L151.1566 24.0527
" />
<path d="M151.1566 23.5703
L150.6742 24.0527
" />
<path d="M150.6742 47.6877
L151.1566 48.1700
" />
<path d="M151.1566 47.6877
L150.6742 48.1700
" />
<path d="M150.6742 74.2167
L151.1566 74.6991
" />
<path d="M151.1566 74.2167
L150.6742 74.6991
" />
<path d="M150.6742 98.3340
L151.1566 98.8164
" />
<path d="M151.1566 98.3340
L150.6742 98.8164
" />
<path d="M151.8801 24.7762
L152.3625 25.2586
" />
<path d="M152.3625 24.7762
L151.8801 25.2586
" />
<path d="M151.8801 48.8935
L152.3625 49.3759
" />
<path d="M152.3625 48.8935
L151.8801 49.3759
" />
<path d="M151.8801 75.4226
L152.3625 75.9049
" />
<path d="M152.3625 75.4226
L151.8801 75.9049
" />
<path d="M151.8801 99.5399
L152.3625 100.0222
" />
<path d="M152.3625 99.5399
L151.8801 100.0222
" />
<path d="M153.0860 25.9821
L153.5683 26.4644
" />
<path d="M153.5683 25.9821
L153.0860 26.4644
" />
<path d="M153.0860 50.0994
L153.5683 50.5817
" />
<path d="M153.5683 50.0994
L153.0860 50.5817
" />
<path d="M153.0860 76.6284
L153.5683 77.1108
" />
<path d="M153.5683 76.6284
L153.0860 77.1108
" />
<path d="M153.0860 100.7458
L153.5683 101.2281
" />
<path d="M153.5683 100.7458
L153.0860 101.2281
" />
<path d="M154.2918 27.1879
L154.7742 27.6703
" />
<path d="M154.7742 27.1879
L154.2918 27.6703
" />
<path d="M154.2918 51.3053
L154.7742 51.7876
" />
<path d="M154.7742 51.3053
L154.2918 51.7876
" />
<path d="M154.2918 77.8343
L154.7742 78.3167
" />
<path d="M154.7742 77.8343
L154.2918 78.3167
" />
<path d="M154.2918 101.9516
L154.7742 102.4340
" />
<path d="M154.7742 101.9516
L154.2918 102.4340
" />
<path d="M155.4977 28.3938
L155.9801 28.8761
" />
<path d="M155.9801 28.3938
L155.4977 28.8761
" />
<path d="M155.4977 52.5111
L155.9801 52.9935
" />
<path d="M155.9801 52.5111
L155.4977 52.9935
" />
<path d="M155.4977 79.0402
L155.9801 79.5225
" />
<path d="M155.9801 79.0402
L155.4977 79.5225
" />
<path d="M155.4977 103.1575
L155.9801 103.6398
" />
<path d="M155.9801 103.1575
L155.4977 103.6398
" />
<path d="M156.7036 29.5997
L157.1859 30.0820
" />
<path d="M157.1859 29.5997
L156.7036 30.0820
" />
<path d="M156.7036 53.7170
L157.1859 54.1993
" />
<path d="M157.1859 53.7170
L156.7036 54.1993
" />
<path d="M156.7036 80.2460
L157.1859 80.7284
" />
<path d="M157.1859 80.2460
L156.7036 80.7284
" />
<path d="M156.7036 104.3634
L157.1859 104.8457
" />
<path d="M157.1859 104.3634
L156.7036 104.8457
" />
<path d="M160.3049 22.9786
L160.7872 23.4609
" />
<path d="M160.7872 22.9786
L160.3049 23.4609
" />
<path d="M160.3049 27.1991
L160.7872 27.6815
" />
<path d="M160.7872 27.1991
L160.3049 27.6815
" />
<path d="M160.3049 31.4197
L160.7872 31.9020
" />
<path d="M160.7872 31.4197
L160.3049 31.9020
" />
<path d="M160.3049 35.6402
L160.7872 36.1225
" />
<path d="M160.7872 35.6402
L160.3049 36.1225
" />
<path d="M160.3049 39.8607
L160.7872 40.3431
" />
<path d="M160.7872 39.8607
L160.3049 40.3431
" />
<path d="M160.3049 44.0813
L160.7872 44.5636
" />
<path d="M160.7872 44.0813
L160.3049 44.5636
" />
<path d="M160.3049 48.3018
L160.7872 48.7841
" />
<path d="M160.7872 48.3018
L160.3049 48.7841
" />
<path d="M160.3049 52.5223
L160.7872 53.0047
" />
<path d="M160.7872 52.5223
L160.3049 53.0047
" />
<path d="M160.3049 66.9927
L160.7872 67.4751
" />
<path d="M160.7872 66.9927
L160.3049 67.4751
" />
<path d="M160.3049 71.2132
L160.7872 71.6956
" />
<path d="M160.7872 71.2132
L160.3049 71.6956
" />
<path d="M160.3049 75.4338
L160.7872 75.9161
" />
<path d="M160.7872 75.4338
L160.3049 75.9161
" />
<path d="M160.3049 79.6543
L160.7872 80.1367
" />
<path d="M160.7872 79.6543
L160.3049 80.1367
" />
<path d="M160.3049 83.8748
L160.7872 84.3572
" />
<path d="M160.7872 83.8748
L160.3049 84.3572
" />
<path d="M160.3049 88.0954
L160.7872 88.5777
" />
<path d="M160.7872 88.0954
L160.3049 88.5777
" />
<path d="M160.3049 92.3159
L160.7872 92.7982
" />
<path d="M160.7872 92.3159
L160.3049 92.7982
" />
<path d="M160.3049 96.5364
L160.7872 97.0188
" />
<path d="M160.7872 96.5364
L160.3049 97.0188
" />
<path d="M160.3049 101.3599
L160.7872 101.8422
" />
<path d="M160.7872 101.3599
L160.3049 101.8422
" />
<path d="M160.3049 105.5804
L160.7872 106.0628
" />
<path d="M160.7872 105.5804
L160.3049 106.0628
" />
<circle cx="132.0436" cy="8.7382" r="0.2412" /> 
<circle cx="132.0436" cy="117.2661" r="0.2412" /> 
<circle cx="132.6264" cy="7.3313" r="0.2412" /> 
<circle cx="132.6264" cy="10.1451" r="0.2412" /> 
<circle cx="132.6264" cy="115.8592" r="0.2412" /> 
<circle cx="132.6264" cy="118.6730" r="0.2412" /> 
<circle cx="134.0333" cy="6.7485" r="0.2412" /> 
<circle cx="134.0333" cy="10.7279" r="0.2412" /> 
<circle cx="134.0333" cy="115.2765" r="0.2412" /> 
<circle cx="134.0333" cy="119.2558" r="0.2412" /> 
<circle cx="135.4402" cy="7.3313" r="0.2412" /> 
<circle cx="135.4402" cy="10.1451" r="0.2412" /> 
<circle cx="135.4402" cy="115.8592" r="0.2412" /> 
<circle cx="135.4402" cy="118.6730" r="0.2412" /> 
<circle cx="136.0230" cy="8.7382" r="0.2412" /> 
<circle cx="136.0230" cy="117.2661" r="0.2412" /> 
<circle cx="160.9844" cy="8.7382" r="0.2412" /> 
<circle cx="160.9844" cy="117.2661" r="0.2412" /> 
<circle cx="161.5672" cy="7.3313" r="0.2412" /> 
<circle cx="161.5672" cy="10.1451" r="0.2412" /> 
<circle cx="161.5672" cy="115.8592" r="0.2412" /> 
<circle cx="161.5672" cy="118.6730" r="0.2412" /> 
<circle cx="162.9741" cy="6.7485" r="0.2412" /> 
<circle cx="162.9741" cy="10.7279" r="0.2412" /> 
<circle cx="162.9741" cy="115.2765" r="0.2412" /> 
<circle cx="162.9741" cy="119.2558" r="0.2412" /> 
<circle cx="164.3810" cy="7.3313" r="0.2412" /> 
<circle cx="164.3810" cy="10.1451" r="0.2412" /> 
<circle cx="164.3810" cy="115.8592" r="0.2412" /> 
<circle cx="164.3810" cy="118.6730" r="0.2412" /> 
<circle cx="164.9638" cy="8.7382" r="0.2412" /> 
<circle cx="164.9638" cy="117.2661" r="0.2412" /> 
</g>
<g style="fill:none; 
stroke:#000000; stroke-width:0.2653; stroke-opacity:1; 
stroke-linecap:round; stroke-linejoin:round;">
<path d="M134.0333 7.4117
L134.0333 10.0646
" />
<path d="M132.7068 8.7382
L135.3597 8.7382
" />
<path d="M134.0333 115.9397
L134.0333 118.5926
" />
<path d="M132.7068 117.2661
L135.3597 117.2661
" />
<path d="M162.9741 7.4117
L162.9741 10.0646
" />
<path d="M161.6476 8.7382
L164.3005 8.7382
" />
<path d="M162.9741 115.9397
L162.9741 118.5926
" />
<path d="M161.6476 117.2661
L164.3005 117.2661
" />
</g>
<g style="fill:none; 
stroke:#000000; stroke-width:0.2000; stroke-opacity:1; 
stroke-linecap:round; stroke-linejoin:round;">
<text x="132.2951" y="124.2043"
textLength="14.8667" font-size="2.6667" lengthAdjust="spacingAndGlyphs"
text-anchor="start" opacity="0" stroke-opacity="0">Drill Map:</text>
<g class="stroked-text"><desc>Drill Map:</desc>
<path d="M132.9029 124.1192
L132.9029 122.1192
" />
<path d="M132.9029 122.1192
L133.3791 122.1192
" />
<path d="M133.3791 122.1192
L133.6648 122.2144
" />
<path d="M133.6648 122.2144
L133.8553 122.4049
" />
<path d="M133.8553 122.4049
L133.9505 122.5953
" />
<path d="M133.9505 122.5953
L134.0457 122.9763
" />
<path d="M134.0457 122.9763
L134.0457 123.2620
" />
<path d="M134.0457 123.2620
L133.9505 123.6430
" />
<path d="M133.9505 123.6430
L133.8553 123.8334
" />
<path d="M133.8553 123.8334
L133.6648 124.0239
" />
<path d="M133.6648 124.0239
L133.3791 124.1192
" />
<path d="M133.3791 124.1192
L132.9029 124.1192
" />
<path d="M134.9029 124.1192
L134.9029 122.7858
" />
<path d="M134.9029 123.1668
L134.9981 122.9763
" />
<path d="M134.9981 122.9763
L135.0934 122.8811
" />
<path d="M135.0934 122.8811
L135.2838 122.7858
" />
<path d="M135.2838 122.7858
L135.4743 122.7858
" />
<path d="M136.1410 124.1192
L136.1410 122.7858
" />
<path d="M136.1410 122.1192
L136.0457 122.2144
" />
<path d="M136.0457 122.2144
L136.1410 122.3096
" />
<path d="M136.1410 122.3096
L136.2362 122.2144
" />
<path d="M136.2362 122.2144
L136.1410 122.1192
" />
<path d="M136.1410 122.1192
L136.1410 122.3096
" />
<path d="M137.3791 124.1192
L137.1886 124.0239
" />
<path d="M137.1886 124.0239
L137.0934 123.8334
" />
<path d="M137.0934 123.8334
L137.0934 122.1192
" />
<path d="M138.4267 124.1192
L138.2362 124.0239
" />
<path d="M138.2362 124.0239
L138.1410 123.8334
" />
<path d="M138.1410 123.8334
L138.1410 122.1192
" />
<path d="M140.7124 124.1192
L140.7124 122.1192
" />
<path d="M140.7124 122.1192
L141.3791 123.5477
" />
<path d="M141.3791 123.5477
L142.0457 122.1192
" />
<path d="M142.0457 122.1192
L142.0457 124.1192
" />
<path d="M143.8553 124.1192
L143.8553 123.0715
" />
<path d="M143.8553 123.0715
L143.7600 122.8811
" />
<path d="M143.7600 122.8811
L143.5695 122.7858
" />
<path d="M143.5695 122.7858
L143.1886 122.7858
" />
<path d="M143.1886 122.7858
L142.9981 122.8811
" />
<path d="M143.8553 124.0239
L143.6648 124.1192
" />
<path d="M143.6648 124.1192
L143.1886 124.1192
" />
<path d="M143.1886 124.1192
L142.9981 124.0239
" />
<path d="M142.9981 124.0239
L142.9029 123.8334
" />
<path d="M142.9029 123.8334
L142.9029 123.6430
" />
<path d="M142.9029 123.6430
L142.9981 123.4525
" />
<path d="M142.9981 123.4525
L143.1886 123.3573
" />
<path d="M143.1886 123.3573
L143.6648 123.3573
" />
<path d="M143.6648 123.3573
L143.8553 123.2620
" />
<path d="M144.8076 122.7858
L144.8076 124.7858
" />
<path d="M144.8076 122.8811
L144.9981 122.7858
" />
<path d="M144.9981 122.7858
L145.3791 122.7858
" />
<path d="M145.3791 122.7858
L145.5695 122.8811
" />
<path d="M145.5695 122.8811
L145.6648 122.9763
" />
<path d="M145.6648 122.9763
L145.7600 123.1668
" />
<path d="M145.7600 123.1668
L145.7600 123.7382
" />
<path d="M145.7600 123.7382
L145.6648 123.9287
" />
<path d="M145.6648 123.9287
L145.5695 124.0239
" />
<path d="M145.5695 124.0239
L145.3791 124.1192
" />
<path d="M145.3791 124.1192
L144.9981 124.1192
" />
<path d="M144.9981 124.1192
L144.8076 124.0239
" />
<path d="M146.6172 123.9287
L146.7124 124.0239
" />
<path d="M146.7124 124.0239
L146.6172 124.1192
" />
<path d="M146.6172 124.1192
L146.5219 124.0239
" />
<path d="M146.5219 124.0239
L146.6172 123.9287
" />
<path d="M146.6172 123.9287
L146.6172 124.1192
" />
<path d="M146.6172 122.8811
L146.7124 122.9763
" />
<path d="M146.7124 122.9763
L146.6172 123.0715
" />
<path d="M146.6172 123.0715
L146.5219 122.9763
" />
<path d="M146.5219 122.9763
L146.6172 122.8811
" />
<path d="M146.6172 122.8811
L146.6172 123.0715
" />
</g></g>
<g style="fill:none; 
stroke:#000000; stroke-width:0.1206; stroke-opacity:1; 
stroke-linecap:round; stroke-linejoin:round;">
<path d="M129.8128 127.1631
L130.2951 127.6455
" />
<path d="M130.2951 127.1631
L129.8128 127.6455
" />
</g>
<g style="fill:none; 
stroke:#000000; stroke-width:0.2000; stroke-opacity:1; 
stroke-linecap:round; stroke-linejoin:round;">
<text x="132.2951" y="128.4043"
textLength="48.7714" font-size="2.6667" lengthAdjust="spacingAndGlyphs"
text-anchor="start" opacity="0" stroke-opacity="0">0.400mm / 0.0157" (98 holes)</text>
<g class="stroked-text"><desc>0.400mm / 0.0157" (98 holes)</desc>
<path d="M133.2838 126.3192
L133.4743 126.3192
" />
<path d="M133.4743 126.3192
L133.6648 126.4144
" />
<path d="M133.6648 126.4144
L133.7600 126.5096
" />
<path d="M133.7600 126.5096
L133.8553 126.7001
" />
<path d="M133.8553 126.7001
L133.9505 127.0811
" />
<path d="M133.9505 127.0811
L133.9505 127.5573
" />
<path d="M133.9505 127.5573
L133.8553 127.9382
" />
<path d="M133.8553 127.9382
L133.7600 128.1287
" />
<path d="M133.7600 128.1287
L133.6648 128.2239
" />
<path d="M133.6648 128.2239
L133.4743 128.3192
" />
<path d="M133.4743 128.3192
L133.2838 128.3192
" />
<path d="M133.2838 128.3192
L133.0934 128.2239
" />
<path d="M133.0934 128.2239
L132.9981 128.1287
" />
<path d="M132.9981 128.1287
L132.9029 127.9382
" />
<path d="M132.9029 127.9382
L132.8076 127.5573
" />
<path d="M132.8076 127.5573
L132.8076 127.0811
" />
<path d="M132.8076 127.0811
L132.9029 126.7001
" />
<path d="M132.9029 126.7001
L132.9981 126.5096
" />
<path d="M132.9981 126.5096
L133.0934 126.4144
" />
<path d="M133.0934 126.4144
L133.2838 126.3192
" />
<path d="M134.8076 128.1287
L134.9029 128.2239
" />
<path d="M134.9029 128.2239
L134.8076 128.3192
" />
<path d="M134.8076 128.3192
L134.7124 128.2239
" />
<path d="M134.7124 128.2239
L134.8076 128.1287
" />
<path d="M134.8076 128.1287
L134.8076 128.3192
" />
<path d="M136.6172 126.9858
L136.6172 128.3192
" />
<path d="M136.1410 126.2239
L135.6648 127.6525
" />
<path d="M135.6648 127.6525
L136.9029 127.6525
" />
<path d="M138.0457 126.3192
L138.2362 126.3192
" />
<path d="M138.2362 126.3192
L138.4267 126.4144
" />
<path d="M138.4267 126.4144
L138.5219 126.5096
" />
<path d="M138.5219 126.5096
L138.6172 126.7001
" />
<path d="M138.6172 126.7001
L138.7124 127.0811
" />
<path d="M138.7124 127.0811
L138.7124 127.5573
" />
<path d="M138.7124 127.5573
L138.6172 127.9382
" />
<path d="M138.6172 127.9382
L138.5219 128.1287
" />
<path d="M138.5219 128.1287
L138.4267 128.2239
" />
<path d="M138.4267 128.2239
L138.2362 128.3192
" />
<path d="M138.2362 128.3192
L138.0457 128.3192
" />
<path d="M138.0457 128.3192
L137.8553 128.2239
" />
<path d="M137.8553 128.2239
L137.7600 128.1287
" />
<path d="M137.7600 128.1287
L137.6648 127.9382
" />
<path d="M137.6648 127.9382
L137.5695 127.5573
" />
<path d="M137.5695 127.5573
L137.5695 127.0811
" />
<path d="M137.5695 127.0811
L137.6648 126.7001
" />
<path d="M137.6648 126.7001
L137.7600 126.5096
" />
<path d="M137.7600 126.5096
L137.8553 126.4144
" />
<path d="M137.8553 126.4144
L138.0457 126.3192
" />
<path d="M139.9505 126.3192
L140.1410 126.3192
" />
<path d="M140.1410 126.3192
L140.3315 126.4144
" />
<path d="M140.3315 126.4144
L140.4267 126.5096
" />
<path d="M140.4267 126.5096
L140.5219 126.7001
" />
<path d="M140.5219 126.7001
L140.6172 127.0811
" />
<path d="M140.6172 127.0811
L140.6172 127.5573
" />
<path d="M140.6172 127.5573
L140.5219 127.9382
" />
<path d="M140.5219 127.9382
L140.4267 128.1287
" />
<path d="M140.4267 128.1287
L140.3315 128.2239
" />
<path d="M140.3315 128.2239
L140.1410 128.3192
" />
<path d="M140.1410 128.3192
L139.9505 128.3192
" />
<path d="M139.9505 128.3192
L139.7600 128.2239
" />
<path d="M139.7600 128.2239
L139.6648 128.1287
" />
<path d="M139.6648 128.1287
L139.5695 127.9382
" />
<path d="M139.5695 127.9382
L139.4743 127.5573
" />
<path d="M139.4743 127.5573
L139.4743 127.0811
" />
<path d="M139.4743 127.0811
L139.5695 126.7001
" />
<path d="M139.5695 126.7001
L139.6648 126.5096
" />
<path d="M139.6648 126.5096
L139.7600 126.4144
" />
<path d="M139.7600 126.4144
L139.9505 126.3192
" />
<path d="M141.4743 128.3192
L141.4743 126.9858
" />
<path d="M141.4743 127.1763
L141.5695 127.0811
" />
<path d="M141.5695 127.0811
L141.7600 126.9858
" />
<path d="M141.7600 126.9858
L142.0457 126.9858
" />
<path d="M142.0457 126.9858
L142.2362 127.0811
" />
<path d="M142.2362 127.0811
L142.3315 127.2715
" />
<path d="M142.3315 127.2715
L142.3315 128.3192
" />
<path d="M142.3315 127.2715
L142.4267 127.0811
" />
<path d="M142.4267 127.0811
L142.6172 126.9858
" />
<path d="M142.6172 126.9858
L142.9029 126.9858
" />
<path d="M142.9029 126.9858
L143.0934 127.0811
" />
<path d="M143.0934 127.0811
L143.1886 127.2715
" />
<path d="M143.1886 127.2715
L143.1886 128.3192
" />
<path d="M144.1410 128.3192
L144.1410 126.9858
" />
<path d="M144.1410 127.1763
L144.2362 127.0811
" />
<path d="M144.2362 127.0811
L144.4267 126.9858
" />
<path d="M144.4267 126.9858
L144.7124 126.9858
" />
<path d="M144.7124 126.9858
L144.9029 127.0811
" />
<path d="M144.9029 127.0811
L144.9981 127.2715
" />
<path d="M144.9981 127.2715
L144.9981 128.3192
" />
<path d="M144.9981 127.2715
L145.0934 127.0811
" />
<path d="M145.0934 127.0811
L145.2838 126.9858
" />
<path d="M145.2838 126.9858
L145.5695 126.9858
" />
<path d="M145.5695 126.9858
L145.7600 127.0811
" />
<path d="M145.7600 127.0811
L145.8553 127.2715
" />
<path d="M145.8553 127.2715
L145.8553 128.3192
" />
<path d="M149.7600 126.2239
L148.0457 128.7953
" />
<path d="M152.3315 126.3192
L152.5219 126.3192
" />
<path d="M152.5219 126.3192
L152.7124 126.4144
" />
<path d="M152.7124 126.4144
L152.8076 126.5096
" />
<path d="M152.8076 126.5096
L152.9029 126.7001
" />
<path d="M152.9029 126.7001
L152.9981 127.0811
" />
<path d="M152.9981 127.0811
L152.9981 127.5573
" />
<path d="M152.9981 127.5573
L152.9029 127.9382
" />
<path d="M152.9029 127.9382
L152.8076 128.1287
" />
<path d="M152.8076 128.1287
L152.7124 128.2239
" />
<path d="M152.7124 128.2239
L152.5219 128.3192
" />
<path d="M152.5219 128.3192
L152.3315 128.3192
" />
<path d="M152.3315 128.3192
L152.1410 128.2239
" />
<path d="M152.1410 128.2239
L152.0457 128.1287
" />
<path d="M152.0457 128.1287
L151.9505 127.9382
" />
<path d="M151.9505 127.9382
L151.8553 127.5573
" />
<path d="M151.8553 127.5573
L151.8553 127.0811
" />
<path d="M151.8553 127.0811
L151.9505 126.7001
" />
<path d="M151.9505 126.7001
L152.0457 126.5096
" />
<path d="M152.0457 126.5096
L152.1410 126.4144
" />
<path d="M152.1410 126.4144
L152.3315 126.3192
" />
<path d="M153.8553 128.1287
L153.9505 128.2239
" />
<path d="M153.9505 128.2239
L153.8553 128.3192
" />
<path d="M153.8553 128.3192
L153.7600 128.2239
" />
<path d="M153.7600 128.2239
L153.8553 128.1287
" />
<path d="M153.8553 128.1287
L153.8553 128.3192
" />
<path d="M155.1886 126.3192
L155.3791 126.3192
" />
<path d="M155.3791 126.3192
L155.5695 126.4144
" />
<path d="M155.5695 126.4144
L155.6648 126.5096
" />
<path d="M155.6648 126.5096
L155.7600 126.7001
" />
<path d="M155.7600 126.7001
L155.8553 127.0811
" />
<path d="M155.8553 127.0811
L155.8553 127.5573
" />
<path d="M155.8553 127.5573
L155.7600 127.9382
" />
<path d="M155.7600 127.9382
L155.6648 128.1287
" />
<path d="M155.6648 128.1287
L155.5695 128.2239
" />
<path d="M155.5695 128.2239
L155.3791 128.3192
" />
<path d="M155.3791 128.3192
L155.1886 128.3192
" />
<path d="M155.1886 128.3192
L154.9981 128.2239
" />
<path d="M154.9981 128.2239
L154.9029 128.1287
" />
<path d="M154.9029 128.1287
L154.8076 127.9382
" />
<path d="M154.8076 127.9382
L154.7124 127.5573
" />
<path d="M154.7124 127.5573
L154.7124 127.0811
" />
<path d="M154.7124 127.0811
L154.8076 126.7001
" />
<path d="M154.8076 126.7001
L154.9029 126.5096
" />
<path d="M154.9029 126.5096
L154.9981 126.4144
" />
<path d="M154.9981 126.4144
L155.1886 126.3192
" />
<path d="M157.7600 128.3192
L156.6172 128.3192
" />
<path d="M157.1886 128.3192
L157.1886 126.3192
" />
<path d="M157.1886 126.3192
L156.9981 126.6049
" />
<path d="M156.9981 126.6049
L156.8076 126.7953
" />
<path d="M156.8076 126.7953
L156.6172 126.8906
" />
<path d="M159.5695 126.3192
L158.6172 126.3192
" />
<path d="M158.6172 126.3192
L158.5219 127.2715
" />
<path d="M158.5219 127.2715
L158.6172 127.1763
" />
<path d="M158.6172 127.1763
L158.8076 127.0811
" />
<path d="M158.8076 127.0811
L159.2838 127.0811
" />
<path d="M159.2838 127.0811
L159.4743 127.1763
" />
<path d="M159.4743 127.1763
L159.5695 127.2715
" />
<path d="M159.5695 127.2715
L159.6648 127.4620
" />
<path d="M159.6648 127.4620
L159.6648 127.9382
" />
<path d="M159.6648 127.9382
L159.5695 128.1287
" />
<path d="M159.5695 128.1287
L159.4743 128.2239
" />
<path d="M159.4743 128.2239
L159.2838 128.3192
" />
<path d="M159.2838 128.3192
L158.8076 128.3192
" />
<path d="M158.8076 128.3192
L158.6172 128.2239
" />
<path d="M158.6172 128.2239
L158.5219 128.1287
" />
<path d="M160.3315 126.3192
L161.6648 126.3192
" />
<path d="M161.6648 126.3192
L160.8076 128.3192
" />
<path d="M162.3315 126.3192
L162.3315 126.7001
" />
<path d="M163.0934 126.3192
L163.0934 126.7001
" />
<path d="M166.0457 129.0811
L165.9505 128.9858
" />
<path d="M165.9505 128.9858
L165.7600 128.7001
" />
<path d="M165.7600 128.7001
L165.6648 128.5096
" />
<path d="M165.6648 128.5096
L165.5695 128.2239
" />
<path d="M165.5695 128.2239
L165.4743 127.7477
" />
<path d="M165.4743 127.7477
L165.4743 127.3668
" />
<path d="M165.4743 127.3668
L165.5695 126.8906
" />
<path d="M165.5695 126.8906
L165.6648 126.6049
" />
<path d="M165.6648 126.6049
L165.7600 126.4144
" />
<path d="M165.7600 126.4144
L165.9505 126.1287
" />
<path d="M165.9505 126.1287
L166.0457 126.0334
" />
<path d="M166.9029 128.3192
L167.2838 128.3192
" />
<path d="M167.2838 128.3192
L167.4743 128.2239
" />
<path d="M167.4743 128.2239
L167.5695 128.1287
" />
<path d="M167.5695 128.1287
L167.7600 127.8430
" />
<path d="M167.7600 127.8430
L167.8553 127.4620
" />
<path d="M167.8553 127.4620
L167.8553 126.7001
" />
<path d="M167.8553 126.7001
L167.7600 126.5096
" />
<path d="M167.7600 126.5096
L167.6648 126.4144
" />
<path d="M167.6648 126.4144
L167.4743 126.3192
" />
<path d="M167.4743 126.3192
L167.0934 126.3192
" />
<path d="M167.0934 126.3192
L166.9029 126.4144
" />
<path d="M166.9029 126.4144
L166.8076 126.5096
" />
<path d="M166.8076 126.5096
L166.7124 126.7001
" />
<path d="M166.7124 126.7001
L166.7124 127.1763
" />
<path d="M166.7124 127.1763
L166.8076 127.3668
" />
<path d="M166.8076 127.3668
L166.9029 127.4620
" />
<path d="M166.9029 127.4620
L167.0934 127.5573
" />
<path d="M167.0934 127.5573
L167.4743 127.5573
" />
<path d="M167.4743 127.5573
L167.6648 127.4620
" />
<path d="M167.6648 127.4620
L167.7600 127.3668
" />
<path d="M167.7600 127.3668
L167.8553 127.1763
" />
<path d="M168.9981 127.1763
L168.8076 127.0811
" />
<path d="M168.8076 127.0811
L168.7124 126.9858
" />
<path d="M168.7124 126.9858
L168.6172 126.7953
" />
<path d="M168.6172 126.7953
L168.6172 126.7001
" />
<path d="M168.6172 126.7001
L168.7124 126.5096
" />
<path d="M168.7124 126.5096
L168.8076 126.4144
" />
<path d="M168.8076 126.4144
L168.9981 126.3192
" />
<path d="M168.9981 126.3192
L169.3791 126.3192
" />
<path d="M169.3791 126.3192
L169.5695 126.4144
" />
<path d="M169.5695 126.4144
L169.6648 126.5096
" />
<path d="M169.6648 126.5096
L169.7600 126.7001
" />
<path d="M169.7600 126.7001
L169.7600 126.7953
" />
<path d="M169.7600 126.7953
L169.6648 126.9858
" />
<path d="M169.6648 126.9858
L169.5695 127.0811
" />
<path d="M169.5695 127.0811
L169.3791 127.1763
" />
<path d="M169.3791 127.1763
L168.9981 127.1763
" />
<path d="M168.9981 127.1763
L168.8076 127.2715
" />
<path d="M168.8076 127.2715
L168.7124 127.3668
" />
<path d="M168.7124 127.3668
L168.6172 127.5573
" />
<path d="M168.6172 127.5573
L168.6172 127.9382
" />
<path d="M168.6172 127.9382
L168.7124 128.1287
" />
<path d="M168.7124 128.1287
L168.8076 128.2239
" />
<path d="M168.8076 128.2239
L168.9981 128.3192
" />
<path d="M168.9981 128.3192
L169.3791 128.3192
" />
<path d="M169.3791 128.3192
L169.5695 128.2239
" />
<path d="M169.5695 128.2239
L169.6648 128.1287
" />
<path d="M169.6648 128.1287
L169.7600 127.9382
" />
<path d="M169.7600 127.9382
L169.7600 127.5573
" />
<path d="M169.7600 127.5573
L169.6648 127.3668
" />
<path d="M169.6648 127.3668
L169.5695 127.2715
" />
<path d="M169.5695 127.2715
L169.3791 127.1763
" />
<path d="M172.1410 128.3192
L172.1410 126.3192
" />
<path d="M172.9981 128.3192
L172.9981 127.2715
" />
<path d="M172.9981 127.2715
L172.9029 127.0811
" />
<path d="M172.9029 127.0811
L172.7124 126.9858
" />
<path d="M172.7124 126.9858
L172.4267 126.9858
" />
<path d="M172.4267 126.9858
L172.2362 127.0811
" />
<path d="M172.2362 127.0811
L172.1410 127.1763
" />
<path d="M174.2362 128.3192
L174.0457 128.2239
" />
<path d="M174.0457 128.2239
L173.9505 128.1287
" />
<path d="M173.9505 128.1287
L173.8553 127.9382
" />
<path d="M173.8553 127.9382
L173.8553 127.3668
" />
<path d="M173.8553 127.3668
L173.9505 127.1763
" />
<path d="M173.9505 127.1763
L174.0457 127.0811
" />
<path d="M174.0457 127.0811
L174.2362 126.9858
" />
<path d="M174.2362 126.9858
L174.5219 126.9858
" />
<path d="M174.5219 126.9858
L174.7124 127.0811
" />
<path d="M174.7124 127.0811
L174.8076 127.1763
" />
<path d="M174.8076 127.1763
L174.9029 127.3668
" />
<path d="M174.9029 127.3668
L174.9029 127.9382
" />
<path d="M174.9029 127.9382
L174.8076 128.1287
" />
<path d="M174.8076 128.1287
L174.7124 128.2239
" />
<path d="M174.7124 128.2239
L174.5219 128.3192
" />
<path d="M174.5219 128.3192
L174.2362 128.3192
" />
<path d="M176.0457 128.3192
L175.8553 128.2239
" />
<path d="M175.8553 128.2239
L175.7600 128.0334
" />
<path d="M175.7600 128.0334
L175.7600 126.3192
" />
<path d="M177.5695 128.2239
L177.3791 128.3192
" />
<path d="M177.3791 128.3192
L176.9981 128.3192
" />
<path d="M176.9981 128.3192
L176.8076 128.2239
" />
<path d="M176.8076 128.2239
L176.7124 128.0334
" />
<path d="M176.7124 128.0334
L176.7124 127.2715
" />
<path d="M176.7124 127.2715
L176.8076 127.0811
" />
<path d="M176.8076 127.0811
L176.9981 126.9858
" />
<path d="M176.9981 126.9858
L177.3791 126.9858
" />
<path d="M177.3791 126.9858
L177.5695 127.0811
" />
<path d="M177.5695 127.0811
L177.6648 127.2715
" />
<path d="M177.6648 127.2715
L177.6648 127.4620
" />
<path d="M177.6648 127.4620
L176.7124 127.6525
" />
<path d="M178.4267 128.2239
L178.6172 128.3192
" />
<path d="M178.6172 128.3192
L178.9981 128.3192
" />
<path d="M178.9981 128.3192
L179.1886 128.2239
" />
<path d="M179.1886 128.2239
L179.2838 128.0334
" />
<path d="M179.2838 128.0334
L179.2838 127.9382
" />
<path d="M179.2838 127.9382
L179.1886 127.7477
" />
<path d="M179.1886 127.7477
L178.9981 127.6525
" />
<path d="M178.9981 127.6525
L178.7124 127.6525
" />
<path d="M178.7124 127.6525
L178.5219 127.5573
" />
<path d="M178.5219 127.5573
L178.4267 127.3668
" />
<path d="M178.4267 127.3668
L178.4267 127.2715
" />
<path d="M178.4267 127.2715
L178.5219 127.0811
" />
<path d="M178.5219 127.0811
L178.7124 126.9858
" />
<path d="M178.7124 126.9858
L178.9981 126.9858
" />
<path d="M178.9981 126.9858
L179.1886 127.0811
" />
<path d="M179.9505 129.0811
L180.0457 128.9858
" />
<path d="M180.0457 128.9858
L180.2362 128.7001
" />
<path d="M180.2362 128.7001
L180.3315 128.5096
" />
<path d="M180.3315 128.5096
L180.4267 128.2239
" />
<path d="M180.4267 128.2239
L180.5219 127.7477
" />
<path d="M180.5219 127.7477
L180.5219 127.3668
" />
<path d="M180.5219 127.3668
L180.4267 126.8906
" />
<path d="M180.4267 126.8906
L180.3315 126.6049
" />
<path d="M180.3315 126.6049
L180.2362 126.4144
" />
<path d="M180.2362 126.4144
L180.0457 126.1287
" />
<path d="M180.0457 126.1287
L179.9505 126.0334
" />
</g></g>
<g style="fill:none; 
stroke:#000000; stroke-width:0.1206; stroke-opacity:1; 
stroke-linecap:round; stroke-linejoin:round;">
<circle cx="130.0539" cy="130.0443" r="0.2412" /> 
</g>
<g style="fill:none; 
stroke:#000000; stroke-width:0.2000; stroke-opacity:1; 
stroke-linecap:round; stroke-linejoin:round;">
<text x="132.2951" y="131.0443"
textLength="48.7714" font-size="2.6667" lengthAdjust="spacingAndGlyphs"
text-anchor="start" opacity="0" stroke-opacity="0">0.400mm / 0.0157" (32 holes)</text>
<g class="stroked-text"><desc>0.400mm / 0.0157" (32 holes)</desc>
<path d="M133.2838 128.9592
L133.4743 128.9592
" />
<path d="M133.4743 128.9592
L133.6648 129.0544
" />
<path d="M133.6648 129.0544
L133.7600 129.1496
" />
<path d="M133.7600 129.1496
L133.8553 129.3401
" />
<path d="M133.8553 129.3401
L133.9505 129.7211
" />
<path d="M133.9505 129.7211
L133.9505 130.1973
" />
<path d="M133.9505 130.1973
L133.8553 130.5782
" />
<path d="M133.8553 130.5782
L133.7600 130.7687
" />
<path d="M133.7600 130.7687
L133.6648 130.8639
" />
<path d="M133.6648 130.8639
L133.4743 130.9592
" />
<path d="M133.4743 130.9592
L133.2838 130.9592
" />
<path d="M133.2838 130.9592
L133.0934 130.8639
" />
<path d="M133.0934 130.8639
L132.9981 130.7687
" />
<path d="M132.9981 130.7687
L132.9029 130.5782
" />
<path d="M132.9029 130.5782
L132.8076 130.1973
" />
<path d="M132.8076 130.1973
L132.8076 129.7211
" />
<path d="M132.8076 129.7211
L132.9029 129.3401
" />
<path d="M132.9029 129.3401
L132.9981 129.1496
" />
<path d="M132.9981 129.1496
L133.0934 129.0544
" />
<path d="M133.0934 129.0544
L133.2838 128.9592
" />
<path d="M134.8076 130.7687
L134.9029 130.8639
" />
<path d="M134.9029 130.8639
L134.8076 130.9592
" />
<path d="M134.8076 130.9592
L134.7124 130.8639
" />
<path d="M134.7124 130.8639
L134.8076 130.7687
" />
<path d="M134.8076 130.7687
L134.8076 130.9592
" />
<path d="M136.6172 129.6258
L136.6172 130.9592
" />
<path d="M136.1410 128.8639
L135.6648 130.2925
" />
<path d="M135.6648 130.2925
L136.9029 130.2925
" />
<path d="M138.0457 128.9592
L138.2362 128.9592
" />
<path d="M138.2362 128.9592
L138.4267 129.0544
" />
<path d="M138.4267 129.0544
L138.5219 129.1496
" />
<path d="M138.5219 129.1496
L138.6172 129.3401
" />
<path d="M138.6172 129.3401
L138.7124 129.7211
" />
<path d="M138.7124 129.7211
L138.7124 130.1973
" />
<path d="M138.7124 130.1973
L138.6172 130.5782
" />
<path d="M138.6172 130.5782
L138.5219 130.7687
" />
<path d="M138.5219 130.7687
L138.4267 130.8639
" />
<path d="M138.4267 130.8639
L138.2362 130.9592
" />
<path d="M138.2362 130.9592
L138.0457 130.9592
" />
<path d="M138.0457 130.9592
L137.8553 130.8639
" />
<path d="M137.8553 130.8639
L137.7600 130.7687
" />
<path d="M137.7600 130.7687
L137.6648 130.5782
" />
<path d="M137.6648 130.5782
L137.5695 130.1973
" />
<path d="M137.5695 130.1973
L137.5695 129.7211
" />
<path d="M137.5695 129.7211
L137.6648 129.3401
" />
<path d="M137.6648 129.3401
L137.7600 129.1496
" />
<path d="M137.7600 129.1496
L137.8553 129.0544
" />
<path d="M137.8553 129.0544
L138.0457 128.9592
" />
<path d="M139.9505 128.9592
L140.1410 128.9592
" />
<path d="M140.1410 128.9592
L140.3315 129.0544
" />
<path d="M140.3315 129.0544
L140.4267 129.1496
" />
<path d="M140.4267 129.1496
L140.5219 129.3401
" />
<path d="M140.5219 129.3401
L140.6172 129.7211
" />
<path d="M140.6172 129.7211
L140.6172 130.1973
" />
<path d="M140.6172 130.1973
L140.5219 130.5782
" />
<path d="M140.5219 130.5782
L140.4267 130.7687
" />
<path d="M140.4267 130.7687
L140.3315 130.8639
" />
<path d="M140.3315 130.8639
L140.1410 130.9592
" />
<path d="M140.1410 130.9592
L139.9505 130.9592
" />
<path d="M139.9505 130.9592
L139.7600 130.8639
" />
<path d="M139.7600 130.8639
L139.6648 130.7687
" />
<path d="M139.6648 130.7687
L139.5695 130.5782
" />
<path d="M139.5695 130.5782
L139.4743 130.1973
" />
<path d="M139.4743 130.1973
L139.4743 129.7211
" />
<path d="M139.4743 129.7211
L139.5695 129.3401
" />
<path d="M139.5695 129.3401
L139.6648 129.1496
" />
<path d="M139.6648 129.1496
L139.7600 129.0544
" />
<path d="M139.7600 129.0544
L139.9505 128.9592
" />
<path d="M141.4743 130.9592
L141.4743 129.6258
" />
<path d="M141.4743 129.8163
L141.5695 129.7211
" />
<path d="M141.5695 129.7211
L141.7600 129.6258
" />
<path d="M141.7600 129.6258
L142.0457 129.6258
" />
<path d="M142.0457 129.6258
L142.2362 129.7211
" />
<path d="M142.2362 129.7211
L142.3315 129.9115
" />
<path d="M142.3315 129.9115
L142.3315 130.9592
" />
<path d="M142.3315 129.9115
L142.4267 129.7211
" />
<path d="M142.4267 129.7211
L142.6172 129.6258
" />
<path d="M142.6172 129.6258
L142.9029 129.6258
" />
<path d="M142.9029 129.6258
L143.0934 129.7211
" />
<path d="M143.0934 129.7211
L143.1886 129.9115
" />
<path d="M143.1886 129.9115
L143.1886 130.9592
" />
<path d="M144.1410 130.9592
L144.1410 129.6258
" />
<path d="M144.1410 129.8163
L144.2362 129.7211
" />
<path d="M144.2362 129.7211
L144.4267 129.6258
" />
<path d="M144.4267 129.6258
L144.7124 129.6258
" />
<path d="M144.7124 129.6258
L144.9029 129.7211
" />
<path d="M144.9029 129.7211
L144.9981 129.9115
" />
<path d="M144.9981 129.9115
L144.9981 130.9592
" />
<path d="M144.9981 129.9115
L145.0934 129.7211
" />
<path d="M145.0934 129.7211
L145.2838 129.6258
" />
<path d="M145.2838 129.6258
L145.5695 129.6258
" />
<path d="M145.5695 129.6258
L145.7600 129.7211
" />
<path d="M145.7600 129.7211
L145.8553 129.9115
" />
<path d="M145.8553 129.9115
L145.8553 130.9592
" />
<path d="M149.7600 128.8639
L148.0457 131.4353
" />
<path d="M152.3315 128.9592
L152.5219 128.9592
" />
<path d="M152.5219 128.9592
L152.7124 129.0544
" />
<path d="M152.7124 129.0544
L152.8076 129.1496
" />
<path d="M152.8076 129.1496
L152.9029 129.3401
" />
<path d="M152.9029 129.3401
L152.9981 129.7211
" />
<path d="M152.9981 129.7211
L152.9981 130.1973
" />
<path d="M152.9981 130.1973
L152.9029 130.5782
" />
<path d="M152.9029 130.5782
L152.8076 130.7687
" />
<path d="M152.8076 130.7687
L152.7124 130.8639
" />
<path d="M152.7124 130.8639
L152.5219 130.9592
" />
<path d="M152.5219 130.9592
L152.3315 130.9592
" />
<path d="M152.3315 130.9592
L152.1410 130.8639
" />
<path d="M152.1410 130.8639
L152.0457 130.7687
" />
<path d="M152.0457 130.7687
L151.9505 130.5782
" />
<path d="M151.9505 130.5782
L151.8553 130.1973
" />
<path d="M151.8553 130.1973
L151.8553 129.7211
" />
<path d="M151.8553 129.7211
L151.9505 129.3401
" />
<path d="M151.9505 129.3401
L152.0457 129.1496
" />
<path d="M152.0457 129.1496
L152.1410 129.0544
" />
<path d="M152.1410 129.0544
L152.3315 128.9592
" />
<path d="M153.8553 130.7687
L153.9505 130.8639
" />
<path d="M153.9505 130.8639
L153.8553 130.9592
" />
<path d="M153.8553 130.9592
L153.7600 130.8639
" />
<path d="M153.7600 130.8639
L153.8553 130.7687
" />
<path d="M153.8553 130.7687
L153.8553 130.9592
" />
<path d="M155.1886 128.9592
L155.3791 128.9592
" />
<path d="M155.3791 128.9592
L155.5695 129.0544
" />
<path d="M155.5695 129.0544
L155.6648 129.1496
" />
<path d="M155.6648 129.1496
L155.7600 129.3401
" />
<path d="M155.7600 129.3401
L155.8553 129.7211
" />
<path d="M155.8553 129.7211
L155.8553 130.1973
" />
<path d="M155.8553 130.1973
L155.7600 130.5782
" />
<path d="M155.7600 130.5782
L155.6648 130.7687
" />
<path d="M155.6648 130.7687
L155.5695 130.8639
" />
<path d="M155.5695 130.8639
L155.3791 130.9592
" />
<path d="M155.3791 130.9592
L155.1886 130.9592
" />
<path d="M155.1886 130.9592
L154.9981 130.8639
" />
<path d="M154.9981 130.8639
L154.9029 130.7687
" />
<path d="M154.9029 130.7687
L154.8076 130.5782
" />
<path d="M154.8076 130.5782
L154.7124 130.1973
" />
<path d="M154.7124 130.1973
L154.7124 129.7211
" />
<path d="M154.7124 129.7211
L154.8076 129.3401
" />
<path d="M154.8076 129.3401
L154.9029 129.1496
" />
<path d="M154.9029 129.1496
L154.9981 129.0544
" />
<path d="M154.9981 129.0544
L155.1886 128.9592
" />
<path d="M157.7600 130.9592
L156.6172 130.9592
" />
<path d="M157.1886 130.9592
L157.1886 128.9592
" />
<path d="M157.1886 128.9592
L156.9981 129.2449
" />
<path d="M156.9981 129.2449
L156.8076 129.4353
" />
<path d="M156.8076 129.4353
L156.6172 129.5306
" />
<path d="M159.5695 128.9592
L158.6172 128.9592
" />
<path d="M158.6172 128.9592
L158.5219 129.9115
" />
<path d="M158.5219 129.9115
L158.6172 129.8163
" />
<path d="M158.6172 129.8163
L158.8076 129.7211
" />
<path d="M158.8076 129.7211
L159.2838 129.7211
" />
<path d="M159.2838 129.7211
L159.4743 129.8163
" />
<path d="M159.4743 129.8163
L159.5695 129.9115
" />
<path d="M159.5695 129.9115
L159.6648 130.1020
" />
<path d="M159.6648 130.1020
L159.6648 130.5782
" />
<path d="M159.6648 130.5782
L159.5695 130.7687
" />
<path d="M159.5695 130.7687
L159.4743 130.8639
" />
<path d="M159.4743 130.8639
L159.2838 130.9592
" />
<path d="M159.2838 130.9592
L158.8076 130.9592
" />
<path d="M158.8076 130.9592
L158.6172 130.8639
" />
<path d="M158.6172 130.8639
L158.5219 130.7687
" />
<path d="M160.3315 128.9592
L161.6648 128.9592
" />
<path d="M161.6648 128.9592
L160.8076 130.9592
" />
<path d="M162.3315 128.9592
L162.3315 129.3401
" />
<path d="M163.0934 128.9592
L163.0934 129.3401
" />
<path d="M166.0457 131.7211
L165.9505 131.6258
" />
<path d="M165.9505 131.6258
L165.7600 131.3401
" />
<path d="M165.7600 131.3401
L165.6648 131.1496
" />
<path d="M165.6648 131.1496
L165.5695 130.8639
" />
<path d="M165.5695 130.8639
L165.4743 130.3877
" />
<path d="M165.4743 130.3877
L165.4743 130.0068
" />
<path d="M165.4743 130.0068
L165.5695 129.5306
" />
<path d="M165.5695 129.5306
L165.6648 129.2449
" />
<path d="M165.6648 129.2449
L165.7600 129.0544
" />
<path d="M165.7600 129.0544
L165.9505 128.7687
" />
<path d="M165.9505 128.7687
L166.0457 128.6734
" />
<path d="M166.6172 128.9592
L167.8553 128.9592
" />
<path d="M167.8553 128.9592
L167.1886 129.7211
" />
<path d="M167.1886 129.7211
L167.4743 129.7211
" />
<path d="M167.4743 129.7211
L167.6648 129.8163
" />
<path d="M167.6648 129.8163
L167.7600 129.9115
" />
<path d="M167.7600 129.9115
L167.8553 130.1020
" />
<path d="M167.8553 130.1020
L167.8553 130.5782
" />
<path d="M167.8553 130.5782
L167.7600 130.7687
" />
<path d="M167.7600 130.7687
L167.6648 130.8639
" />
<path d="M167.6648 130.8639
L167.4743 130.9592
" />
<path d="M167.4743 130.9592
L166.9029 130.9592
" />
<path d="M166.9029 130.9592
L166.7124 130.8639
" />
<path d="M166.7124 130.8639
L166.6172 130.7687
" />
<path d="M168.6172 129.1496
L168.7124 129.0544
" />
<path d="M168.7124 129.0544
L168.9029 128.9592
" />
<path d="M168.9029 128.9592
L169.3791 128.9592
" />
<path d="M169.3791 128.9592
L169.5695 129.0544
" />
<path d="M169.5695 129.0544
L169.6648 129.1496
" />
<path d="M169.6648 129.1496
L169.7600 129.3401
" />
<path d="M169.7600 129.3401
L169.7600 129.5306
" />
<path d="M169.7600 129.5306
L169.6648 129.8163
" />
<path d="M169.6648 129.8163
L168.5219 130.9592
" />
<path d="M168.5219 130.9592
L169.7600 130.9592
" />
<path d="M172.1410 130.9592
L172.1410 128.9592
" />
<path d="M172.9981 130.9592
L172.9981 129.9115
" />
<path d="M172.9981 129.9115
L172.9029 129.7211
" />
<path d="M172.9029 129.7211
L172.7124 129.6258
" />
<path d="M172.7124 129.6258
L172.4267 129.6258
" />
<path d="M172.4267 129.6258
L172.2362 129.7211
" />
<path d="M172.2362 129.7211
L172.1410 129.8163
" />
<path d="M174.2362 130.9592
L174.0457 130.8639
" />
<path d="M174.0457 130.8639
L173.9505 130.7687
" />
<path d="M173.9505 130.7687
L173.8553 130.5782
" />
<path d="M173.8553 130.5782
L173.8553 130.0068
" />
<path d="M173.8553 130.0068
L173.9505 129.8163
" />
<path d="M173.9505 129.8163
L174.0457 129.7211
" />
<path d="M174.0457 129.7211
L174.2362 129.6258
" />
<path d="M174.2362 129.6258
L174.5219 129.6258
" />
<path d="M174.5219 129.6258
L174.7124 129.7211
" />
<path d="M174.7124 129.7211
L174.8076 129.8163
" />
<path d="M174.8076 129.8163
L174.9029 130.0068
" />
<path d="M174.9029 130.0068
L174.9029 130.5782
" />
<path d="M174.9029 130.5782
L174.8076 130.7687
" />
<path d="M174.8076 130.7687
L174.7124 130.8639
" />
<path d="M174.7124 130.8639
L174.5219 130.9592
" />
<path d="M174.5219 130.9592
L174.2362 130.9592
" />
<path d="M176.0457 130.9592
L175.8553 130.8639
" />
<path d="M175.8553 130.8639
L175.7600 130.6734
" />
<path d="M175.7600 130.6734
L175.7600 128.9592
" />
<path d="M177.5695 130.8639
L177.3791 130.9592
" />
<path d="M177.3791 130.9592
L176.9981 130.9592
" />
<path d="M176.9981 130.9592
L176.8076 130.8639
" />
<path d="M176.8076 130.8639
L176.7124 130.6734
" />
<path d="M176.7124 130.6734
L176.7124 129.9115
" />
<path d="M176.7124 129.9115
L176.8076 129.7211
" />
<path d="M176.8076 129.7211
L176.9981 129.6258
" />
<path d="M176.9981 129.6258
L177.3791 129.6258
" />
<path d="M177.3791 129.6258
L177.5695 129.7211
" />
<path d="M177.5695 129.7211
L177.6648 129.9115
" />
<path d="M177.6648 129.9115
L177.6648 130.1020
" />
<path d="M177.6648 130.1020
L176.7124 130.2925
" />
<path d="M178.4267 130.8639
L178.6172 130.9592
" />
<path d="M178.6172 130.9592
L178.9981 130.9592
" />
<path d="M178.9981 130.9592
L179.1886 130.8639
" />
<path d="M179.1886 130.8639
L179.2838 130.6734
" />
<path d="M179.2838 130.6734
L179.2838 130.5782
" />
<path d="M179.2838 130.5782
L179.1886 130.3877
" />
<path d="M179.1886 130.3877
L178.9981 130.2925
" />
<path d="M178.9981 130.2925
L178.7124 130.2925
" />
<path d="M178.7124 130.2925
L178.5219 130.1973
" />
<path d="M178.5219 130.1973
L178.4267 130.0068
" />
<path d="M178.4267 130.0068
L178.4267 129.9115
" />
<path d="M178.4267 129.9115
L178.5219 129.7211
" />
<path d="M178.5219 129.7211
L178.7124 129.6258
" />
<path d="M178.7124 129.6258
L178.9981 129.6258
" />
<path d="M178.9981 129.6258
L179.1886 129.7211
" />
<path d="M179.9505 131.7211
L180.0457 131.6258
" />
<path d="M180.0457 131.6258
L180.2362 131.3401
" />
<path d="M180.2362 131.3401
L180.3315 131.1496
" />
<path d="M180.3315 131.1496
L180.4267 130.8639
" />
<path d="M180.4267 130.8639
L180.5219 130.3877
" />
<path d="M180.5219 130.3877
L180.5219 130.0068
" />
<path d="M180.5219 130.0068
L180.4267 129.5306
" />
<path d="M180.4267 129.5306
L180.3315 129.2449
" />
<path d="M180.3315 129.2449
L180.2362 129.0544
" />
<path d="M180.2362 129.0544
L180.0457 128.7687
" />
<path d="M180.0457 128.7687
L179.9505 128.6734
" />
</g></g>
<g style="fill:none; 
stroke:#000000; stroke-width:0.2000; stroke-opacity:1; 
stroke-linecap:round; stroke-linejoin:round;">
<path d="M129.2951 131.6843
L129.2951 133.6843
" />
<path d="M128.2951 132.6843
L130.2951 132.6843
" />
</g>
<g style="fill:none; 
stroke:#000000; stroke-width:0.2000; stroke-opacity:1; 
stroke-linecap:round; stroke-linejoin:round;">
<text x="132.2951" y="133.6843"
textLength="46.8667" font-size="2.6667" lengthAdjust="spacingAndGlyphs"
text-anchor="start" opacity="0" stroke-opacity="0">2.200mm / 0.0866" (4 holes)</text>
<g class="stroked-text"><desc>2.200mm / 0.0866" (4 holes)</desc>
<path d="M132.8076 131.7896
L132.9029 131.6944
" />
<path d="M132.9029 131.6944
L133.0934 131.5992
" />
<path d="M133.0934 131.5992
L133.5695 131.5992
" />
<path d="M133.5695 131.5992
L133.7600 131.6944
" />
<path d="M133.7600 131.6944
L133.8553 131.7896
" />
<path d="M133.8553 131.7896
L133.9505 131.9801
" />
<path d="M133.9505 131.9801
L133.9505 132.1706
" />
<path d="M133.9505 132.1706
L133.8553 132.4563
" />
<path d="M133.8553 132.4563
L132.7124 133.5992
" />
<path d="M132.7124 133.5992
L133.9505 133.5992
" />
<path d="M134.8076 133.4087
L134.9029 133.5039
" />
<path d="M134.9029 133.5039
L134.8076 133.5992
" />
<path d="M134.8076 133.5992
L134.7124 133.5039
" />
<path d="M134.7124 133.5039
L134.8076 133.4087
" />
<path d="M134.8076 133.4087
L134.8076 133.5992
" />
<path d="M135.6648 131.7896
L135.7600 131.6944
" />
<path d="M135.7600 131.6944
L135.9505 131.5992
" />
<path d="M135.9505 131.5992
L136.4267 131.5992
" />
<path d="M136.4267 131.5992
L136.6172 131.6944
" />
<path d="M136.6172 131.6944
L136.7124 131.7896
" />
<path d="M136.7124 131.7896
L136.8076 131.9801
" />
<path d="M136.8076 131.9801
L136.8076 132.1706
" />
<path d="M136.8076 132.1706
L136.7124 132.4563
" />
<path d="M136.7124 132.4563
L135.5695 133.5992
" />
<path d="M135.5695 133.5992
L136.8076 133.5992
" />
<path d="M138.0457 131.5992
L138.2362 131.5992
" />
<path d="M138.2362 131.5992
L138.4267 131.6944
" />
<path d="M138.4267 131.6944
L138.5219 131.7896
" />
<path d="M138.5219 131.7896
L138.6172 131.9801
" />
<path d="M138.6172 131.9801
L138.7124 132.3611
" />
<path d="M138.7124 132.3611
L138.7124 132.8373
" />
<path d="M138.7124 132.8373
L138.6172 133.2182
" />
<path d="M138.6172 133.2182
L138.5219 133.4087
" />
<path d="M138.5219 133.4087
L138.4267 133.5039
" />
<path d="M138.4267 133.5039
L138.2362 133.5992
" />
<path d="M138.2362 133.5992
L138.0457 133.5992
" />
<path d="M138.0457 133.5992
L137.8553 133.5039
" />
<path d="M137.8553 133.5039
L137.7600 133.4087
" />
<path d="M137.7600 133.4087
L137.6648 133.2182
" />
<path d="M137.6648 133.2182
L137.5695 132.8373
" />
<path d="M137.5695 132.8373
L137.5695 132.3611
" />
<path d="M137.5695 132.3611
L137.6648 131.9801
" />
<path d="M137.6648 131.9801
L137.7600 131.7896
" />
<path d="M137.7600 131.7896
L137.8553 131.6944
" />
<path d="M137.8553 131.6944
L138.0457 131.5992
" />
<path d="M139.9505 131.5992
L140.1410 131.5992
" />
<path d="M140.1410 131.5992
L140.3315 131.6944
" />
<path d="M140.3315 131.6944
L140.4267 131.7896
" />
<path d="M140.4267 131.7896
L140.5219 131.9801
" />
<path d="M140.5219 131.9801
L140.6172 132.3611
" />
<path d="M140.6172 132.3611
L140.6172 132.8373
" />
<path d="M140.6172 132.8373
L140.5219 133.2182
" />
<path d="M140.5219 133.2182
L140.4267 133.4087
" />
<path d="M140.4267 133.4087
L140.3315 133.5039
" />
<path d="M140.3315 133.5039
L140.1410 133.5992
" />
<path d="M140.1410 133.5992
L139.9505 133.5992
" />
<path d="M139.9505 133.5992
L139.7600 133.5039
" />
<path d="M139.7600 133.5039
L139.6648 133.4087
" />
<path d="M139.6648 133.4087
L139.5695 133.2182
" />
<path d="M139.5695 133.2182
L139.4743 132.8373
" />
<path d="M139.4743 132.8373
L139.4743 132.3611
" />
<path d="M139.4743 132.3611
L139.5695 131.9801
" />
<path d="M139.5695 131.9801
L139.6648 131.7896
" />
<path d="M139.6648 131.7896
L139.7600 131.6944
" />
<path d="M139.7600 131.6944
L139.9505 131.5992
" />
<path d="M141.4743 133.5992
L141.4743 132.2658
" />
<path d="M141.4743 132.4563
L141.5695 132.3611
" />
<path d="M141.5695 132.3611
L141.7600 132.2658
" />
<path d="M141.7600 132.2658
L142.0457 132.2658
" />
<path d="M142.0457 132.2658
L142.2362 132.3611
" />
<path d="M142.2362 132.3611
L142.3315 132.5515
" />
<path d="M142.3315 132.5515
L142.3315 133.5992
" />
<path d="M142.3315 132.5515
L142.4267 132.3611
" />
<path d="M142.4267 132.3611
L142.6172 132.2658
" />
<path d="M142.6172 132.2658
L142.9029 132.2658
" />
<path d="M142.9029 132.2658
L143.0934 132.3611
" />
<path d="M143.0934 132.3611
L143.1886 132.5515
" />
<path d="M143.1886 132.5515
L143.1886 133.5992
" />
<path d="M144.1410 133.5992
L144.1410 132.2658
" />
<path d="M144.1410 132.4563
L144.2362 132.3611
" />
<path d="M144.2362 132.3611
L144.4267 132.2658
" />
<path d="M144.4267 132.2658
L144.7124 132.2658
" />
<path d="M144.7124 132.2658
L144.9029 132.3611
" />
<path d="M144.9029 132.3611
L144.9981 132.5515
" />
<path d="M144.9981 132.5515
L144.9981 133.5992
" />
<path d="M144.9981 132.5515
L145.0934 132.3611
" />
<path d="M145.0934 132.3611
L145.2838 132.2658
" />
<path d="M145.2838 132.2658
L145.5695 132.2658
" />
<path d="M145.5695 132.2658
L145.7600 132.3611
" />
<path d="M145.7600 132.3611
L145.8553 132.5515
" />
<path d="M145.8553 132.5515
L145.8553 133.5992
" />
<path d="M149.7600 131.5039
L148.0457 134.0753
" />
<path d="M152.3315 131.5992
L152.5219 131.5992
" />
<path d="M152.5219 131.5992
L152.7124 131.6944
" />
<path d="M152.7124 131.6944
L152.8076 131.7896
" />
<path d="M152.8076 131.7896
L152.9029 131.9801
" />
<path d="M152.9029 131.9801
L152.9981 132.3611
" />
<path d="M152.9981 132.3611
L152.9981 132.8373
" />
<path d="M152.9981 132.8373
L152.9029 133.2182
" />
<path d="M152.9029 133.2182
L152.8076 133.4087
" />
<path d="M152.8076 133.4087
L152.7124 133.5039
" />
<path d="M152.7124 133.5039
L152.5219 133.5992
" />
<path d="M152.5219 133.5992
L152.3315 133.5992
" />
<path d="M152.3315 133.5992
L152.1410 133.5039
" />
<path d="M152.1410 133.5039
L152.0457 133.4087
" />
<path d="M152.0457 133.4087
L151.9505 133.2182
" />
<path d="M151.9505 133.2182
L151.8553 132.8373
" />
<path d="M151.8553 132.8373
L151.8553 132.3611
" />
<path d="M151.8553 132.3611
L151.9505 131.9801
" />
<path d="M151.9505 131.9801
L152.0457 131.7896
" />
<path d="M152.0457 131.7896
L152.1410 131.6944
" />
<path d="M152.1410 131.6944
L152.3315 131.5992
" />
<path d="M153.8553 133.4087
L153.9505 133.5039
" />
<path d="M153.9505 133.5039
L153.8553 133.5992
" />
<path d="M153.8553 133.5992
L153.7600 133.5039
" />
<path d="M153.7600 133.5039
L153.8553 133.4087
" />
<path d="M153.8553 133.4087
L153.8553 133.5992
" />
<path d="M155.1886 131.5992
L155.3791 131.5992
" />
<path d="M155.3791 131.5992
L155.5695 131.6944
" />
<path d="M155.5695 131.6944
L155.6648 131.7896
" />
<path d="M155.6648 131.7896
L155.7600 131.9801
" />
<path d="M155.7600 131.9801
L155.8553 132.3611
" />
<path d="M155.8553 132.3611
L155.8553 132.8373
" />
<path d="M155.8553 132.8373
L155.7600 133.2182
" />
<path d="M155.7600 133.2182
L155.6648 133.4087
" />
<path d="M155.6648 133.4087
L155.5695 133.5039
" />
<path d="M155.5695 133.5039
L155.3791 133.5992
" />
<path d="M155.3791 133.5992
L155.1886 133.5992
" />
<path d="M155.1886 133.5992
L154.9981 133.5039
" />
<path d="M154.9981 133.5039
L154.9029 133.4087
" />
<path d="M154.9029 133.4087
L154.8076 133.2182
" />
<path d="M154.8076 133.2182
L154.7124 132.8373
" />
<path d="M154.7124 132.8373
L154.7124 132.3611
" />
<path d="M154.7124 132.3611
L154.8076 131.9801
" />
<path d="M154.8076 131.9801
L154.9029 131.7896
" />
<path d="M154.9029 131.7896
L154.9981 131.6944
" />
<path d="M154.9981 131.6944
L155.1886 131.5992
" />
<path d="M156.9981 132.4563
L156.8076 132.3611
" />
<path d="M156.8076 132.3611
L156.7124 132.2658
" />
<path d="M156.7124 132.2658
L156.6172 132.0753
" />
<path d="M156.6172 132.0753
L156.6172 131.9801
" />
<path d="M156.6172 131.9801
L156.7124 131.7896
" />
<path d="M156.7124 131.7896
L156.8076 131.6944
" />
<path d="M156.8076 131.6944
L156.9981 131.5992
" />
<path d="M156.9981 131.5992
L157.3791 131.5992
" />
<path d="M157.3791 131.5992
L157.5695 131.6944
" />
<path d="M157.5695 131.6944
L157.6648 131.7896
" />
<path d="M157.6648 131.7896
L157.7600 131.9801
" />
<path d="M157.7600 131.9801
L157.7600 132.0753
" />
<path d="M157.7600 132.0753
L157.6648 132.2658
" />
<path d="M157.6648 132.2658
L157.5695 132.3611
" />
<path d="M157.5695 132.3611
L157.3791 132.4563
" />
<path d="M157.3791 132.4563
L156.9981 132.4563
" />
<path d="M156.9981 132.4563
L156.8076 132.5515
" />
<path d="M156.8076 132.5515
L156.7124 132.6468
" />
<path d="M156.7124 132.6468
L156.6172 132.8373
" />
<path d="M156.6172 132.8373
L156.6172 133.2182
" />
<path d="M156.6172 133.2182
L156.7124 133.4087
" />
<path d="M156.7124 133.4087
L156.8076 133.5039
" />
<path d="M156.8076 133.5039
L156.9981 133.5992
" />
<path d="M156.9981 133.5992
L157.3791 133.5992
" />
<path d="M157.3791 133.5992
L157.5695 133.5039
" />
<path d="M157.5695 133.5039
L157.6648 133.4087
" />
<path d="M157.6648 133.4087
L157.7600 133.2182
" />
<path d="M157.7600 133.2182
L157.7600 132.8373
" />
<path d="M157.7600 132.8373
L157.6648 132.6468
" />
<path d="M157.6648 132.6468
L157.5695 132.5515
" />
<path d="M157.5695 132.5515
L157.3791 132.4563
" />
<path d="M159.4743 131.5992
L159.0934 131.5992
" />
<path d="M159.0934 131.5992
L158.9029 131.6944
" />
<path d="M158.9029 131.6944
L158.8076 131.7896
" />
<path d="M158.8076 131.7896
L158.6172 132.0753
" />
<path d="M158.6172 132.0753
L158.5219 132.4563
" />
<path d="M158.5219 132.4563
L158.5219 133.2182
" />
<path d="M158.5219 133.2182
L158.6172 133.4087
" />
<path d="M158.6172 133.4087
L158.7124 133.5039
" />
<path d="M158.7124 133.5039
L158.9029 133.5992
" />
<path d="M158.9029 133.5992
L159.2838 133.5992
" />
<path d="M159.2838 133.5992
L159.4743 133.5039
" />
<path d="M159.4743 133.5039
L159.5695 133.4087
" />
<path d="M159.5695 133.4087
L159.6648 133.2182
" />
<path d="M159.6648 133.2182
L159.6648 132.7420
" />
<path d="M159.6648 132.7420
L159.5695 132.5515
" />
<path d="M159.5695 132.5515
L159.4743 132.4563
" />
<path d="M159.4743 132.4563
L159.2838 132.3611
" />
<path d="M159.2838 132.3611
L158.9029 132.3611
" />
<path d="M158.9029 132.3611
L158.7124 132.4563
" />
<path d="M158.7124 132.4563
L158.6172 132.5515
" />
<path d="M158.6172 132.5515
L158.5219 132.7420
" />
<path d="M161.3791 131.5992
L160.9981 131.5992
" />
<path d="M160.9981 131.5992
L160.8076 131.6944
" />
<path d="M160.8076 131.6944
L160.7124 131.7896
" />
<path d="M160.7124 131.7896
L160.5219 132.0753
" />
<path d="M160.5219 132.0753
L160.4267 132.4563
" />
<path d="M160.4267 132.4563
L160.4267 133.2182
" />
<path d="M160.4267 133.2182
L160.5219 133.4087
" />
<path d="M160.5219 133.4087
L160.6172 133.5039
" />
<path d="M160.6172 133.5039
L160.8076 133.5992
" />
<path d="M160.8076 133.5992
L161.1886 133.5992
" />
<path d="M161.1886 133.5992
L161.3791 133.5039
" />
<path d="M161.3791 133.5039
L161.4743 133.4087
" />
<path d="M161.4743 133.4087
L161.5695 133.2182
" />
<path d="M161.5695 133.2182
L161.5695 132.7420
" />
<path d="M161.5695 132.7420
L161.4743 132.5515
" />
<path d="M161.4743 132.5515
L161.3791 132.4563
" />
<path d="M161.3791 132.4563
L161.1886 132.3611
" />
<path d="M161.1886 132.3611
L160.8076 132.3611
" />
<path d="M160.8076 132.3611
L160.6172 132.4563
" />
<path d="M160.6172 132.4563
L160.5219 132.5515
" />
<path d="M160.5219 132.5515
L160.4267 132.7420
" />
<path d="M162.3315 131.5992
L162.3315 131.9801
" />
<path d="M163.0934 131.5992
L163.0934 131.9801
" />
<path d="M166.0457 134.3611
L165.9505 134.2658
" />
<path d="M165.9505 134.2658
L165.7600 133.9801
" />
<path d="M165.7600 133.9801
L165.6648 133.7896
" />
<path d="M165.6648 133.7896
L165.5695 133.5039
" />
<path d="M165.5695 133.5039
L165.4743 133.0277
" />
<path d="M165.4743 133.0277
L165.4743 132.6468
" />
<path d="M165.4743 132.6468
L165.5695 132.1706
" />
<path d="M165.5695 132.1706
L165.6648 131.8849
" />
<path d="M165.6648 131.8849
L165.7600 131.6944
" />
<path d="M165.7600 131.6944
L165.9505 131.4087
" />
<path d="M165.9505 131.4087
L166.0457 131.3134
" />
<path d="M167.6648 132.2658
L167.6648 133.5992
" />
<path d="M167.1886 131.5039
L166.7124 132.9325
" />
<path d="M166.7124 132.9325
L167.9505 132.9325
" />
<path d="M170.2362 133.5992
L170.2362 131.5992
" />
<path d="M171.0934 133.5992
L171.0934 132.5515
" />
<path d="M171.0934 132.5515
L170.9981 132.3611
" />
<path d="M170.9981 132.3611
L170.8076 132.2658
" />
<path d="M170.8076 132.2658
L170.5219 132.2658
" />
<path d="M170.5219 132.2658
L170.3315 132.3611
" />
<path d="M170.3315 132.3611
L170.2362 132.4563
" />
<path d="M172.3315 133.5992
L172.1410 133.5039
" />
<path d="M172.1410 133.5039
L172.0457 133.4087
" />
<path d="M172.0457 133.4087
L171.9505 133.2182
" />
<path d="M171.9505 133.2182
L171.9505 132.6468
" />
<path d="M171.9505 132.6468
L172.0457 132.4563
" />
<path d="M172.0457 132.4563
L172.1410 132.3611
" />
<path d="M172.1410 132.3611
L172.3315 132.2658
" />
<path d="M172.3315 132.2658
L172.6172 132.2658
" />
<path d="M172.6172 132.2658
L172.8076 132.3611
" />
<path d="M172.8076 132.3611
L172.9029 132.4563
" />
<path d="M172.9029 132.4563
L172.9981 132.6468
" />
<path d="M172.9981 132.6468
L172.9981 133.2182
" />
<path d="M172.9981 133.2182
L172.9029 133.4087
" />
<path d="M172.9029 133.4087
L172.8076 133.5039
" />
<path d="M172.8076 133.5039
L172.6172 133.5992
" />
<path d="M172.6172 133.5992
L172.3315 133.5992
" />
<path d="M174.1410 133.5992
L173.9505 133.5039
" />
<path d="M173.9505 133.5039
L173.8553 133.3134
" />
<path d="M173.8553 133.3134
L173.8553 131.5992
" />
<path d="M175.6648 133.5039
L175.4743 133.5992
" />
<path d="M175.4743 133.5992
L175.0934 133.5992
" />
<path d="M175.0934 133.5992
L174.9029 133.5039
" />
<path d="M174.9029 133.5039
L174.8076 133.3134
" />
<path d="M174.8076 133.3134
L174.8076 132.5515
" />
<path d="M174.8076 132.5515
L174.9029 132.3611
" />
<path d="M174.9029 132.3611
L175.0934 132.2658
" />
<path d="M175.0934 132.2658
L175.4743 132.2658
" />
<path d="M175.4743 132.2658
L175.6648 132.3611
" />
<path d="M175.6648 132.3611
L175.7600 132.5515
" />
<path d="M175.7600 132.5515
L175.7600 132.7420
" />
<path d="M175.7600 132.7420
L174.8076 132.9325
" />
<path d="M176.5219 133.5039
L176.7124 133.5992
" />
<path d="M176.7124 133.5992
L177.0934 133.5992
" />
<path d="M177.0934 133.5992
L177.2838 133.5039
" />
<path d="M177.2838 133.5039
L177.3791 133.3134
" />
<path d="M177.3791 133.3134
L177.3791 133.2182
" />
<path d="M177.3791 133.2182
L177.2838 133.0277
" />
<path d="M177.2838 133.0277
L177.0934 132.9325
" />
<path d="M177.0934 132.9325
L176.8076 132.9325
" />
<path d="M176.8076 132.9325
L176.6172 132.8373
" />
<path d="M176.6172 132.8373
L176.5219 132.6468
" />
<path d="M176.5219 132.6468
L176.5219 132.5515
" />
<path d="M176.5219 132.5515
L176.6172 132.3611
" />
<path d="M176.6172 132.3611
L176.8076 132.2658
" />
<path d="M176.8076 132.2658
L177.0934 132.2658
" />
<path d="M177.0934 132.2658
L177.2838 132.3611
" />
<path d="M178.0457 134.3611
L178.1410 134.2658
" />
<path d="M178.1410 134.2658
L178.3315 133.9801
" />
<path d="M178.3315 133.9801
L178.4267 133.7896
" />
<path d="M178.4267 133.7896
L178.5219 133.5039
" />
<path d="M178.5219 133.5039
L178.6172 133.0277
" />
<path d="M178.6172 133.0277
L178.6172 132.6468
" />
<path d="M178.6172 132.6468
L178.5219 132.1706
" />
<path d="M178.5219 132.1706
L178.4267 131.8849
" />
<path d="M178.4267 131.8849
L178.3315 131.6944
" />
<path d="M178.3315 131.6944
L178.1410 131.4087
" />
<path d="M178.1410 131.4087
L178.0457 131.3134
" />
</g></g> 
</svg>
