<?xml version="1.0" standalone="no"?>
 <!DOCTYPE svg PUBLIC "-//W3C//DTD SVG 1.1//EN" 
 "http://www.w3.org/Graphics/SVG/1.1/DTD/svg11.dtd"> 
<svg
  xmlns:svg="http://www.w3.org/2000/svg"
  xmlns="http://www.w3.org/2000/svg"
  xmlns:xlink="http://www.w3.org/1999/xlink"
  version="1.1"
  width="148.0058mm" height="210.0072mm" viewBox="0.0000 0.0000 148.0058 210.0072">
<title>SVG Image created as PM-DI16-DC24sink-external_connection.svg date 2024/09/29 17:55:56 </title>
  <desc>Image generated by Eeschema-SVG </desc>
<g style="fill:#000000; fill-opacity:1.0000;stroke:#000000; stroke-opacity:1.0000;
stroke-linecap:round; stroke-linejoin:round;"
 transform="translate(0 0) scale(1 1)">
</g>
<g style="fill:none; 
stroke:#000000; stroke-width:0.1524; stroke-opacity:1; 
stroke-linecap:round; stroke-linejoin:round;">
<text x="34.2900" y="63.8850"
textLength="1.7756" font-size="1.6933" lengthAdjust="spacingAndGlyphs"
text-anchor="middle" opacity="0" stroke-opacity="0">-</text>
<g class="stroked-text"><desc>-</desc>
<path d="M33.8061 63.3457
L34.7738 63.3457
" />
</g></g>
<g style="fill:none; 
stroke:#000000; stroke-width:0.1524; stroke-opacity:1; 
stroke-linecap:round; stroke-linejoin:round;">
<text x="34.2900" y="60.3290"
textLength="1.7756" font-size="1.6933" lengthAdjust="spacingAndGlyphs"
text-anchor="middle" opacity="0" stroke-opacity="0">+</text>
<g class="stroked-text"><desc>+</desc>
<path d="M33.8061 59.7897
L34.7738 59.7897
" />
<path d="M34.2899 60.2735
L34.2899 59.3059
" />
</g></g>
<g style="fill:none; 
stroke:#000000; stroke-width:0.1524; stroke-opacity:1; 
stroke-linecap:round; stroke-linejoin:round;">
<text x="114.8080" y="39.7550"
textLength="19.1322" font-size="1.6933" lengthAdjust="spacingAndGlyphs"
text-anchor="end" opacity="0" stroke-opacity="0">PM-DI16-DC24sink</text>
<g class="stroked-text"><desc>PM-DI16-DC24sink</desc>
<path d="M96.0811 39.6995
L96.0811 38.4295
" />
<path d="M96.0811 38.4295
L96.5649 38.4295
" />
<path d="M96.5649 38.4295
L96.6859 38.4900
" />
<path d="M96.6859 38.4900
L96.7464 38.5505
" />
<path d="M96.7464 38.5505
L96.8068 38.6714
" />
<path d="M96.8068 38.6714
L96.8068 38.8529
" />
<path d="M96.8068 38.8529
L96.7464 38.9738
" />
<path d="M96.7464 38.9738
L96.6859 39.0343
" />
<path d="M96.6859 39.0343
L96.5649 39.0948
" />
<path d="M96.5649 39.0948
L96.0811 39.0948
" />
<path d="M97.3511 39.6995
L97.3511 38.4295
" />
<path d="M97.3511 38.4295
L97.7745 39.3367
" />
<path d="M97.7745 39.3367
L98.1978 38.4295
" />
<path d="M98.1978 38.4295
L98.1978 39.6995
" />
<path d="M98.8025 39.2157
L99.7702 39.2157
" />
<path d="M100.3749 39.6995
L100.3749 38.4295
" />
<path d="M100.3749 38.4295
L100.6773 38.4295
" />
<path d="M100.6773 38.4295
L100.8587 38.4900
" />
<path d="M100.8587 38.4900
L100.9797 38.6110
" />
<path d="M100.9797 38.6110
L101.0402 38.7319
" />
<path d="M101.0402 38.7319
L101.1006 38.9738
" />
<path d="M101.1006 38.9738
L101.1006 39.1552
" />
<path d="M101.1006 39.1552
L101.0402 39.3971
" />
<path d="M101.0402 39.3971
L100.9797 39.5181
" />
<path d="M100.9797 39.5181
L100.8587 39.6391
" />
<path d="M100.8587 39.6391
L100.6773 39.6995
" />
<path d="M100.6773 39.6995
L100.3749 39.6995
" />
<path d="M101.6449 39.6995
L101.6449 38.4295
" />
<path d="M102.9150 39.6995
L102.1893 39.6995
" />
<path d="M102.5521 39.6995
L102.5521 38.4295
" />
<path d="M102.5521 38.4295
L102.4312 38.6110
" />
<path d="M102.4312 38.6110
L102.3102 38.7319
" />
<path d="M102.3102 38.7319
L102.1893 38.7924
" />
<path d="M104.0035 38.4295
L103.7616 38.4295
" />
<path d="M103.7616 38.4295
L103.6407 38.4900
" />
<path d="M103.6407 38.4900
L103.5802 38.5505
" />
<path d="M103.5802 38.5505
L103.4592 38.7319
" />
<path d="M103.4592 38.7319
L103.3988 38.9738
" />
<path d="M103.3988 38.9738
L103.3988 39.4576
" />
<path d="M103.3988 39.4576
L103.4592 39.5786
" />
<path d="M103.4592 39.5786
L103.5197 39.6391
" />
<path d="M103.5197 39.6391
L103.6407 39.6995
" />
<path d="M103.6407 39.6995
L103.8826 39.6995
" />
<path d="M103.8826 39.6995
L104.0035 39.6391
" />
<path d="M104.0035 39.6391
L104.0640 39.5786
" />
<path d="M104.0640 39.5786
L104.1245 39.4576
" />
<path d="M104.1245 39.4576
L104.1245 39.1552
" />
<path d="M104.1245 39.1552
L104.0640 39.0343
" />
<path d="M104.0640 39.0343
L104.0035 38.9738
" />
<path d="M104.0035 38.9738
L103.8826 38.9133
" />
<path d="M103.8826 38.9133
L103.6407 38.9133
" />
<path d="M103.6407 38.9133
L103.5197 38.9738
" />
<path d="M103.5197 38.9738
L103.4592 39.0343
" />
<path d="M103.4592 39.0343
L103.3988 39.1552
" />
<path d="M104.6687 39.2157
L105.6364 39.2157
" />
<path d="M106.2411 39.6995
L106.2411 38.4295
" />
<path d="M106.2411 38.4295
L106.5435 38.4295
" />
<path d="M106.5435 38.4295
L106.7249 38.4900
" />
<path d="M106.7249 38.4900
L106.8459 38.6110
" />
<path d="M106.8459 38.6110
L106.9064 38.7319
" />
<path d="M106.9064 38.7319
L106.9668 38.9738
" />
<path d="M106.9668 38.9738
L106.9668 39.1552
" />
<path d="M106.9668 39.1552
L106.9064 39.3971
" />
<path d="M106.9064 39.3971
L106.8459 39.5181
" />
<path d="M106.8459 39.5181
L106.7249 39.6391
" />
<path d="M106.7249 39.6391
L106.5435 39.6995
" />
<path d="M106.5435 39.6995
L106.2411 39.6995
" />
<path d="M108.2368 39.5786
L108.1764 39.6391
" />
<path d="M108.1764 39.6391
L107.9949 39.6995
" />
<path d="M107.9949 39.6995
L107.8740 39.6995
" />
<path d="M107.8740 39.6995
L107.6926 39.6391
" />
<path d="M107.6926 39.6391
L107.5716 39.5181
" />
<path d="M107.5716 39.5181
L107.5111 39.3971
" />
<path d="M107.5111 39.3971
L107.4507 39.1552
" />
<path d="M107.4507 39.1552
L107.4507 38.9738
" />
<path d="M107.4507 38.9738
L107.5111 38.7319
" />
<path d="M107.5111 38.7319
L107.5716 38.6110
" />
<path d="M107.5716 38.6110
L107.6926 38.4900
" />
<path d="M107.6926 38.4900
L107.8740 38.4295
" />
<path d="M107.8740 38.4295
L107.9949 38.4295
" />
<path d="M107.9949 38.4295
L108.1764 38.4900
" />
<path d="M108.1764 38.4900
L108.2368 38.5505
" />
<path d="M108.7207 38.5505
L108.7811 38.4900
" />
<path d="M108.7811 38.4900
L108.9021 38.4295
" />
<path d="M108.9021 38.4295
L109.2045 38.4295
" />
<path d="M109.2045 38.4295
L109.3254 38.4900
" />
<path d="M109.3254 38.4900
L109.3859 38.5505
" />
<path d="M109.3859 38.5505
L109.4464 38.6714
" />
<path d="M109.4464 38.6714
L109.4464 38.7924
" />
<path d="M109.4464 38.7924
L109.3859 38.9738
" />
<path d="M109.3859 38.9738
L108.6602 39.6995
" />
<path d="M108.6602 39.6995
L109.4464 39.6995
" />
<path d="M110.5349 38.8529
L110.5349 39.6995
" />
<path d="M110.2325 38.3691
L109.9302 39.2762
" />
<path d="M109.9302 39.2762
L110.7163 39.2762
" />
<path d="M111.1397 39.6391
L111.2606 39.6995
" />
<path d="M111.2606 39.6995
L111.5025 39.6995
" />
<path d="M111.5025 39.6995
L111.6235 39.6391
" />
<path d="M111.6235 39.6391
L111.6839 39.5181
" />
<path d="M111.6839 39.5181
L111.6839 39.4576
" />
<path d="M111.6839 39.4576
L111.6235 39.3367
" />
<path d="M111.6235 39.3367
L111.5025 39.2762
" />
<path d="M111.5025 39.2762
L111.3211 39.2762
" />
<path d="M111.3211 39.2762
L111.2001 39.2157
" />
<path d="M111.2001 39.2157
L111.1397 39.0948
" />
<path d="M111.1397 39.0948
L111.1397 39.0343
" />
<path d="M111.1397 39.0343
L111.2001 38.9133
" />
<path d="M111.2001 38.9133
L111.3211 38.8529
" />
<path d="M111.3211 38.8529
L111.5025 38.8529
" />
<path d="M111.5025 38.8529
L111.6235 38.9133
" />
<path d="M112.2282 39.6995
L112.2282 38.8529
" />
<path d="M112.2282 38.4295
L112.1678 38.4900
" />
<path d="M112.1678 38.4900
L112.2282 38.5505
" />
<path d="M112.2282 38.5505
L112.2887 38.4900
" />
<path d="M112.2887 38.4900
L112.2282 38.4295
" />
<path d="M112.2282 38.4295
L112.2282 38.5505
" />
<path d="M112.8330 38.8529
L112.8330 39.6995
" />
<path d="M112.8330 38.9738
L112.8935 38.9133
" />
<path d="M112.8935 38.9133
L113.0145 38.8529
" />
<path d="M113.0145 38.8529
L113.1959 38.8529
" />
<path d="M113.1959 38.8529
L113.3168 38.9133
" />
<path d="M113.3168 38.9133
L113.3773 39.0343
" />
<path d="M113.3773 39.0343
L113.3773 39.6995
" />
<path d="M113.9820 39.6995
L113.9820 38.4295
" />
<path d="M114.1030 39.2157
L114.4658 39.6995
" />
<path d="M114.4658 38.8529
L113.9820 39.3367
" />
</g><rect x="66.040000" y="35.560000" width="5.080000" height="5.080000" rx="0.000000" />
<text x="68.5800" y="38.7350"
textLength="3.1665" font-size="1.6933" lengthAdjust="spacingAndGlyphs"
text-anchor="middle" opacity="0" stroke-opacity="0">a.0</text>
<g class="stroked-text"><desc>a.0</desc>
<path d="M67.9450 38.6795
L67.9450 38.0143
" />
<path d="M67.9450 38.0143
L67.8845 37.8933
" />
<path d="M67.8845 37.8933
L67.7636 37.8329
" />
<path d="M67.7636 37.8329
L67.5217 37.8329
" />
<path d="M67.5217 37.8329
L67.4007 37.8933
" />
<path d="M67.9450 38.6191
L67.8241 38.6795
" />
<path d="M67.8241 38.6795
L67.5217 38.6795
" />
<path d="M67.5217 38.6795
L67.4007 38.6191
" />
<path d="M67.4007 38.6191
L67.3403 38.4981
" />
<path d="M67.3403 38.4981
L67.3403 38.3771
" />
<path d="M67.3403 38.3771
L67.4007 38.2562
" />
<path d="M67.4007 38.2562
L67.5217 38.1957
" />
<path d="M67.5217 38.1957
L67.8241 38.1957
" />
<path d="M67.8241 38.1957
L67.9450 38.1352
" />
<path d="M68.5497 38.5586
L68.6102 38.6191
" />
<path d="M68.6102 38.6191
L68.5497 38.6795
" />
<path d="M68.5497 38.6795
L68.4893 38.6191
" />
<path d="M68.4893 38.6191
L68.5497 38.5586
" />
<path d="M68.5497 38.5586
L68.5497 38.6795
" />
<path d="M69.3964 37.4095
L69.5174 37.4095
" />
<path d="M69.5174 37.4095
L69.6383 37.4700
" />
<path d="M69.6383 37.4700
L69.6988 37.5305
" />
<path d="M69.6988 37.5305
L69.7593 37.6514
" />
<path d="M69.7593 37.6514
L69.8198 37.8933
" />
<path d="M69.8198 37.8933
L69.8198 38.1957
" />
<path d="M69.8198 38.1957
L69.7593 38.4376
" />
<path d="M69.7593 38.4376
L69.6988 38.5586
" />
<path d="M69.6988 38.5586
L69.6383 38.6191
" />
<path d="M69.6383 38.6191
L69.5174 38.6795
" />
<path d="M69.5174 38.6795
L69.3964 38.6795
" />
<path d="M69.3964 38.6795
L69.2755 38.6191
" />
<path d="M69.2755 38.6191
L69.2150 38.5586
" />
<path d="M69.2150 38.5586
L69.1545 38.4376
" />
<path d="M69.1545 38.4376
L69.0941 38.1957
" />
<path d="M69.0941 38.1957
L69.0941 37.8933
" />
<path d="M69.0941 37.8933
L69.1545 37.6514
" />
<path d="M69.1545 37.6514
L69.2150 37.5305
" />
<path d="M69.2150 37.5305
L69.2755 37.4700
" />
<path d="M69.2755 37.4700
L69.3964 37.4095
" />
</g><rect x="66.040000" y="121.920000" width="5.080000" height="5.080000" rx="0.000000" />
<text x="68.5800" y="125.0950"
textLength="2.6222" font-size="1.6933" lengthAdjust="spacingAndGlyphs"
text-anchor="middle" opacity="0" stroke-opacity="0">PE</text>
<g class="stroked-text"><desc>PE</desc>
<path d="M67.6728 125.0395
L67.6728 123.7695
" />
<path d="M67.6728 123.7695
L68.1566 123.7695
" />
<path d="M68.1566 123.7695
L68.2776 123.8300
" />
<path d="M68.2776 123.8300
L68.3381 123.8905
" />
<path d="M68.3381 123.8905
L68.3985 124.0114
" />
<path d="M68.3985 124.0114
L68.3985 124.1929
" />
<path d="M68.3985 124.1929
L68.3381 124.3138
" />
<path d="M68.3381 124.3138
L68.2776 124.3743
" />
<path d="M68.2776 124.3743
L68.1566 124.4348
" />
<path d="M68.1566 124.4348
L67.6728 124.4348
" />
<path d="M68.9428 124.3743
L69.3662 124.3743
" />
<path d="M69.5476 125.0395
L68.9428 125.0395
" />
<path d="M68.9428 125.0395
L68.9428 123.7695
" />
<path d="M68.9428 123.7695
L69.5476 123.7695
" />
</g><rect x="66.040000" y="40.640000" width="5.080000" height="5.080000" rx="0.000000" />
<text x="68.5800" y="43.8150"
textLength="3.1665" font-size="1.6933" lengthAdjust="spacingAndGlyphs"
text-anchor="middle" opacity="0" stroke-opacity="0">a.1</text>
<g class="stroked-text"><desc>a.1</desc>
<path d="M67.9450 43.7595
L67.9450 43.0943
" />
<path d="M67.9450 43.0943
L67.8845 42.9733
" />
<path d="M67.8845 42.9733
L67.7636 42.9129
" />
<path d="M67.7636 42.9129
L67.5217 42.9129
" />
<path d="M67.5217 42.9129
L67.4007 42.9733
" />
<path d="M67.9450 43.6991
L67.8241 43.7595
" />
<path d="M67.8241 43.7595
L67.5217 43.7595
" />
<path d="M67.5217 43.7595
L67.4007 43.6991
" />
<path d="M67.4007 43.6991
L67.3403 43.5781
" />
<path d="M67.3403 43.5781
L67.3403 43.4571
" />
<path d="M67.3403 43.4571
L67.4007 43.3362
" />
<path d="M67.4007 43.3362
L67.5217 43.2757
" />
<path d="M67.5217 43.2757
L67.8241 43.2757
" />
<path d="M67.8241 43.2757
L67.9450 43.2152
" />
<path d="M68.5497 43.6386
L68.6102 43.6991
" />
<path d="M68.6102 43.6991
L68.5497 43.7595
" />
<path d="M68.5497 43.7595
L68.4893 43.6991
" />
<path d="M68.4893 43.6991
L68.5497 43.6386
" />
<path d="M68.5497 43.6386
L68.5497 43.7595
" />
<path d="M69.8198 43.7595
L69.0941 43.7595
" />
<path d="M69.4569 43.7595
L69.4569 42.4895
" />
<path d="M69.4569 42.4895
L69.3360 42.6710
" />
<path d="M69.3360 42.6710
L69.2150 42.7919
" />
<path d="M69.2150 42.7919
L69.0941 42.8524
" />
</g><rect x="66.040000" y="45.720000" width="5.080000" height="5.080000" rx="0.000000" />
<text x="68.5800" y="48.8950"
textLength="3.1665" font-size="1.6933" lengthAdjust="spacingAndGlyphs"
text-anchor="middle" opacity="0" stroke-opacity="0">a.2</text>
<g class="stroked-text"><desc>a.2</desc>
<path d="M67.9450 48.8395
L67.9450 48.1743
" />
<path d="M67.9450 48.1743
L67.8845 48.0533
" />
<path d="M67.8845 48.0533
L67.7636 47.9929
" />
<path d="M67.7636 47.9929
L67.5217 47.9929
" />
<path d="M67.5217 47.9929
L67.4007 48.0533
" />
<path d="M67.9450 48.7791
L67.8241 48.8395
" />
<path d="M67.8241 48.8395
L67.5217 48.8395
" />
<path d="M67.5217 48.8395
L67.4007 48.7791
" />
<path d="M67.4007 48.7791
L67.3403 48.6581
" />
<path d="M67.3403 48.6581
L67.3403 48.5371
" />
<path d="M67.3403 48.5371
L67.4007 48.4162
" />
<path d="M67.4007 48.4162
L67.5217 48.3557
" />
<path d="M67.5217 48.3557
L67.8241 48.3557
" />
<path d="M67.8241 48.3557
L67.9450 48.2952
" />
<path d="M68.5497 48.7186
L68.6102 48.7791
" />
<path d="M68.6102 48.7791
L68.5497 48.8395
" />
<path d="M68.5497 48.8395
L68.4893 48.7791
" />
<path d="M68.4893 48.7791
L68.5497 48.7186
" />
<path d="M68.5497 48.7186
L68.5497 48.8395
" />
<path d="M69.0941 47.6905
L69.1545 47.6300
" />
<path d="M69.1545 47.6300
L69.2755 47.5695
" />
<path d="M69.2755 47.5695
L69.5779 47.5695
" />
<path d="M69.5779 47.5695
L69.6988 47.6300
" />
<path d="M69.6988 47.6300
L69.7593 47.6905
" />
<path d="M69.7593 47.6905
L69.8198 47.8114
" />
<path d="M69.8198 47.8114
L69.8198 47.9324
" />
<path d="M69.8198 47.9324
L69.7593 48.1138
" />
<path d="M69.7593 48.1138
L69.0336 48.8395
" />
<path d="M69.0336 48.8395
L69.8198 48.8395
" />
</g><rect x="66.040000" y="50.800000" width="5.080000" height="5.080000" rx="0.000000" />
<text x="68.5800" y="53.9750"
textLength="3.1665" font-size="1.6933" lengthAdjust="spacingAndGlyphs"
text-anchor="middle" opacity="0" stroke-opacity="0">a.3</text>
<g class="stroked-text"><desc>a.3</desc>
<path d="M67.9450 53.9195
L67.9450 53.2543
" />
<path d="M67.9450 53.2543
L67.8845 53.1333
" />
<path d="M67.8845 53.1333
L67.7636 53.0729
" />
<path d="M67.7636 53.0729
L67.5217 53.0729
" />
<path d="M67.5217 53.0729
L67.4007 53.1333
" />
<path d="M67.9450 53.8591
L67.8241 53.9195
" />
<path d="M67.8241 53.9195
L67.5217 53.9195
" />
<path d="M67.5217 53.9195
L67.4007 53.8591
" />
<path d="M67.4007 53.8591
L67.3403 53.7381
" />
<path d="M67.3403 53.7381
L67.3403 53.6171
" />
<path d="M67.3403 53.6171
L67.4007 53.4962
" />
<path d="M67.4007 53.4962
L67.5217 53.4357
" />
<path d="M67.5217 53.4357
L67.8241 53.4357
" />
<path d="M67.8241 53.4357
L67.9450 53.3752
" />
<path d="M68.5497 53.7986
L68.6102 53.8591
" />
<path d="M68.6102 53.8591
L68.5497 53.9195
" />
<path d="M68.5497 53.9195
L68.4893 53.8591
" />
<path d="M68.4893 53.8591
L68.5497 53.7986
" />
<path d="M68.5497 53.7986
L68.5497 53.9195
" />
<path d="M69.0336 52.6495
L69.8198 52.6495
" />
<path d="M69.8198 52.6495
L69.3964 53.1333
" />
<path d="M69.3964 53.1333
L69.5779 53.1333
" />
<path d="M69.5779 53.1333
L69.6988 53.1938
" />
<path d="M69.6988 53.1938
L69.7593 53.2543
" />
<path d="M69.7593 53.2543
L69.8198 53.3752
" />
<path d="M69.8198 53.3752
L69.8198 53.6776
" />
<path d="M69.8198 53.6776
L69.7593 53.7986
" />
<path d="M69.7593 53.7986
L69.6988 53.8591
" />
<path d="M69.6988 53.8591
L69.5779 53.9195
" />
<path d="M69.5779 53.9195
L69.2150 53.9195
" />
<path d="M69.2150 53.9195
L69.0941 53.8591
" />
<path d="M69.0941 53.8591
L69.0336 53.7986
" />
</g><rect x="66.040000" y="76.200000" width="5.080000" height="5.080000" rx="0.000000" />
<text x="68.5800" y="79.3750"
textLength="3.1665" font-size="1.6933" lengthAdjust="spacingAndGlyphs"
text-anchor="middle" opacity="0" stroke-opacity="0">b.0</text>
<g class="stroked-text"><desc>b.0</desc>
<path d="M67.4007 79.3195
L67.4007 78.0495
" />
<path d="M67.4007 78.5333
L67.5217 78.4729
" />
<path d="M67.5217 78.4729
L67.7636 78.4729
" />
<path d="M67.7636 78.4729
L67.8845 78.5333
" />
<path d="M67.8845 78.5333
L67.9450 78.5938
" />
<path d="M67.9450 78.5938
L68.0055 78.7148
" />
<path d="M68.0055 78.7148
L68.0055 79.0776
" />
<path d="M68.0055 79.0776
L67.9450 79.1986
" />
<path d="M67.9450 79.1986
L67.8845 79.2591
" />
<path d="M67.8845 79.2591
L67.7636 79.3195
" />
<path d="M67.7636 79.3195
L67.5217 79.3195
" />
<path d="M67.5217 79.3195
L67.4007 79.2591
" />
<path d="M68.5497 79.1986
L68.6102 79.2591
" />
<path d="M68.6102 79.2591
L68.5497 79.3195
" />
<path d="M68.5497 79.3195
L68.4893 79.2591
" />
<path d="M68.4893 79.2591
L68.5497 79.1986
" />
<path d="M68.5497 79.1986
L68.5497 79.3195
" />
<path d="M69.3964 78.0495
L69.5174 78.0495
" />
<path d="M69.5174 78.0495
L69.6383 78.1100
" />
<path d="M69.6383 78.1100
L69.6988 78.1705
" />
<path d="M69.6988 78.1705
L69.7593 78.2914
" />
<path d="M69.7593 78.2914
L69.8198 78.5333
" />
<path d="M69.8198 78.5333
L69.8198 78.8357
" />
<path d="M69.8198 78.8357
L69.7593 79.0776
" />
<path d="M69.7593 79.0776
L69.6988 79.1986
" />
<path d="M69.6988 79.1986
L69.6383 79.2591
" />
<path d="M69.6383 79.2591
L69.5174 79.3195
" />
<path d="M69.5174 79.3195
L69.3964 79.3195
" />
<path d="M69.3964 79.3195
L69.2755 79.2591
" />
<path d="M69.2755 79.2591
L69.2150 79.1986
" />
<path d="M69.2150 79.1986
L69.1545 79.0776
" />
<path d="M69.1545 79.0776
L69.0941 78.8357
" />
<path d="M69.0941 78.8357
L69.0941 78.5333
" />
<path d="M69.0941 78.5333
L69.1545 78.2914
" />
<path d="M69.1545 78.2914
L69.2150 78.1705
" />
<path d="M69.2150 78.1705
L69.2755 78.1100
" />
<path d="M69.2755 78.1100
L69.3964 78.0495
" />
</g><rect x="66.040000" y="116.840000" width="5.080000" height="5.080000" rx="0.000000" />
<text x="68.5800" y="120.0150"
textLength="2.5013" font-size="1.6933" lengthAdjust="spacingAndGlyphs"
text-anchor="middle" opacity="0" stroke-opacity="0">0V</text>
<g class="stroked-text"><desc>0V</desc>
<path d="M67.9752 118.6895
L68.0962 118.6895
" />
<path d="M68.0962 118.6895
L68.2171 118.7500
" />
<path d="M68.2171 118.7500
L68.2776 118.8105
" />
<path d="M68.2776 118.8105
L68.3381 118.9314
" />
<path d="M68.3381 118.9314
L68.3986 119.1733
" />
<path d="M68.3986 119.1733
L68.3986 119.4757
" />
<path d="M68.3986 119.4757
L68.3381 119.7176
" />
<path d="M68.3381 119.7176
L68.2776 119.8386
" />
<path d="M68.2776 119.8386
L68.2171 119.8991
" />
<path d="M68.2171 119.8991
L68.0962 119.9595
" />
<path d="M68.0962 119.9595
L67.9752 119.9595
" />
<path d="M67.9752 119.9595
L67.8543 119.8991
" />
<path d="M67.8543 119.8991
L67.7938 119.8386
" />
<path d="M67.7938 119.8386
L67.7333 119.7176
" />
<path d="M67.7333 119.7176
L67.6729 119.4757
" />
<path d="M67.6729 119.4757
L67.6729 119.1733
" />
<path d="M67.6729 119.1733
L67.7333 118.9314
" />
<path d="M67.7333 118.9314
L67.7938 118.8105
" />
<path d="M67.7938 118.8105
L67.8543 118.7500
" />
<path d="M67.8543 118.7500
L67.9752 118.6895
" />
<path d="M68.7614 118.6895
L69.1847 119.9595
" />
<path d="M69.1847 119.9595
L69.6081 118.6895
" />
</g><rect x="66.040000" y="60.960000" width="5.080000" height="5.080000" rx="0.000000" />
<text x="68.5800" y="64.1350"
textLength="3.1665" font-size="1.6933" lengthAdjust="spacingAndGlyphs"
text-anchor="middle" opacity="0" stroke-opacity="0">a.5</text>
<g class="stroked-text"><desc>a.5</desc>
<path d="M67.9450 64.0795
L67.9450 63.4143
" />
<path d="M67.9450 63.4143
L67.8845 63.2933
" />
<path d="M67.8845 63.2933
L67.7636 63.2329
" />
<path d="M67.7636 63.2329
L67.5217 63.2329
" />
<path d="M67.5217 63.2329
L67.4007 63.2933
" />
<path d="M67.9450 64.0191
L67.8241 64.0795
" />
<path d="M67.8241 64.0795
L67.5217 64.0795
" />
<path d="M67.5217 64.0795
L67.4007 64.0191
" />
<path d="M67.4007 64.0191
L67.3403 63.8981
" />
<path d="M67.3403 63.8981
L67.3403 63.7771
" />
<path d="M67.3403 63.7771
L67.4007 63.6562
" />
<path d="M67.4007 63.6562
L67.5217 63.5957
" />
<path d="M67.5217 63.5957
L67.8241 63.5957
" />
<path d="M67.8241 63.5957
L67.9450 63.5352
" />
<path d="M68.5497 63.9586
L68.6102 64.0191
" />
<path d="M68.6102 64.0191
L68.5497 64.0795
" />
<path d="M68.5497 64.0795
L68.4893 64.0191
" />
<path d="M68.4893 64.0191
L68.5497 63.9586
" />
<path d="M68.5497 63.9586
L68.5497 64.0795
" />
<path d="M69.7593 62.8095
L69.1545 62.8095
" />
<path d="M69.1545 62.8095
L69.0941 63.4143
" />
<path d="M69.0941 63.4143
L69.1545 63.3538
" />
<path d="M69.1545 63.3538
L69.2755 63.2933
" />
<path d="M69.2755 63.2933
L69.5779 63.2933
" />
<path d="M69.5779 63.2933
L69.6988 63.3538
" />
<path d="M69.6988 63.3538
L69.7593 63.4143
" />
<path d="M69.7593 63.4143
L69.8198 63.5352
" />
<path d="M69.8198 63.5352
L69.8198 63.8376
" />
<path d="M69.8198 63.8376
L69.7593 63.9586
" />
<path d="M69.7593 63.9586
L69.6988 64.0191
" />
<path d="M69.6988 64.0191
L69.5779 64.0795
" />
<path d="M69.5779 64.0795
L69.2755 64.0795
" />
<path d="M69.2755 64.0795
L69.1545 64.0191
" />
<path d="M69.1545 64.0191
L69.0941 63.9586
" />
</g><rect x="106.680000" y="121.920000" width="10.160000" height="5.080000" rx="0.000000" />
<text x="111.7600" y="125.0950"
textLength="3.6503" font-size="1.6933" lengthAdjust="spacingAndGlyphs"
text-anchor="middle" opacity="0" stroke-opacity="0">Bus</text>
<g class="stroked-text"><desc>Bus</desc>
<path d="M110.7622 124.3743
L110.9436 124.4348
" />
<path d="M110.9436 124.4348
L111.0041 124.4952
" />
<path d="M111.0041 124.4952
L111.0645 124.6162
" />
<path d="M111.0645 124.6162
L111.0645 124.7976
" />
<path d="M111.0645 124.7976
L111.0041 124.9186
" />
<path d="M111.0041 124.9186
L110.9436 124.9791
" />
<path d="M110.9436 124.9791
L110.8226 125.0395
" />
<path d="M110.8226 125.0395
L110.3388 125.0395
" />
<path d="M110.3388 125.0395
L110.3388 123.7695
" />
<path d="M110.3388 123.7695
L110.7622 123.7695
" />
<path d="M110.7622 123.7695
L110.8831 123.8300
" />
<path d="M110.8831 123.8300
L110.9436 123.8905
" />
<path d="M110.9436 123.8905
L111.0041 124.0114
" />
<path d="M111.0041 124.0114
L111.0041 124.1324
" />
<path d="M111.0041 124.1324
L110.9436 124.2533
" />
<path d="M110.9436 124.2533
L110.8831 124.3138
" />
<path d="M110.8831 124.3138
L110.7622 124.3743
" />
<path d="M110.7622 124.3743
L110.3388 124.3743
" />
<path d="M112.1531 124.1929
L112.1531 125.0395
" />
<path d="M111.6088 124.1929
L111.6088 124.8581
" />
<path d="M111.6088 124.8581
L111.6693 124.9791
" />
<path d="M111.6693 124.9791
L111.7903 125.0395
" />
<path d="M111.7903 125.0395
L111.9717 125.0395
" />
<path d="M111.9717 125.0395
L112.0926 124.9791
" />
<path d="M112.0926 124.9791
L112.1531 124.9186
" />
<path d="M112.6974 124.9791
L112.8183 125.0395
" />
<path d="M112.8183 125.0395
L113.0602 125.0395
" />
<path d="M113.0602 125.0395
L113.1812 124.9791
" />
<path d="M113.1812 124.9791
L113.2416 124.8581
" />
<path d="M113.2416 124.8581
L113.2416 124.7976
" />
<path d="M113.2416 124.7976
L113.1812 124.6767
" />
<path d="M113.1812 124.6767
L113.0602 124.6162
" />
<path d="M113.0602 124.6162
L112.8788 124.6162
" />
<path d="M112.8788 124.6162
L112.7578 124.5557
" />
<path d="M112.7578 124.5557
L112.6974 124.4348
" />
<path d="M112.6974 124.4348
L112.6974 124.3743
" />
<path d="M112.6974 124.3743
L112.7578 124.2533
" />
<path d="M112.7578 124.2533
L112.8788 124.1929
" />
<path d="M112.8788 124.1929
L113.0602 124.1929
" />
<path d="M113.0602 124.1929
L113.1812 124.2533
" />
</g><rect x="66.040000" y="55.880000" width="5.080000" height="5.080000" rx="0.000000" />
<text x="68.5800" y="59.0550"
textLength="3.1665" font-size="1.6933" lengthAdjust="spacingAndGlyphs"
text-anchor="middle" opacity="0" stroke-opacity="0">a.4</text>
<g class="stroked-text"><desc>a.4</desc>
<path d="M67.9450 58.9995
L67.9450 58.3343
" />
<path d="M67.9450 58.3343
L67.8845 58.2133
" />
<path d="M67.8845 58.2133
L67.7636 58.1529
" />
<path d="M67.7636 58.1529
L67.5217 58.1529
" />
<path d="M67.5217 58.1529
L67.4007 58.2133
" />
<path d="M67.9450 58.9391
L67.8241 58.9995
" />
<path d="M67.8241 58.9995
L67.5217 58.9995
" />
<path d="M67.5217 58.9995
L67.4007 58.9391
" />
<path d="M67.4007 58.9391
L67.3403 58.8181
" />
<path d="M67.3403 58.8181
L67.3403 58.6971
" />
<path d="M67.3403 58.6971
L67.4007 58.5762
" />
<path d="M67.4007 58.5762
L67.5217 58.5157
" />
<path d="M67.5217 58.5157
L67.8241 58.5157
" />
<path d="M67.8241 58.5157
L67.9450 58.4552
" />
<path d="M68.5497 58.8786
L68.6102 58.9391
" />
<path d="M68.6102 58.9391
L68.5497 58.9995
" />
<path d="M68.5497 58.9995
L68.4893 58.9391
" />
<path d="M68.4893 58.9391
L68.5497 58.8786
" />
<path d="M68.5497 58.8786
L68.5497 58.9995
" />
<path d="M69.6988 58.1529
L69.6988 58.9995
" />
<path d="M69.3964 57.6691
L69.0941 58.5762
" />
<path d="M69.0941 58.5762
L69.8802 58.5762
" />
</g><rect x="66.040000" y="81.280000" width="5.080000" height="5.080000" rx="0.000000" />
<text x="68.5800" y="84.4550"
textLength="3.1665" font-size="1.6933" lengthAdjust="spacingAndGlyphs"
text-anchor="middle" opacity="0" stroke-opacity="0">b.1</text>
<g class="stroked-text"><desc>b.1</desc>
<path d="M67.4007 84.3995
L67.4007 83.1295
" />
<path d="M67.4007 83.6133
L67.5217 83.5529
" />
<path d="M67.5217 83.5529
L67.7636 83.5529
" />
<path d="M67.7636 83.5529
L67.8845 83.6133
" />
<path d="M67.8845 83.6133
L67.9450 83.6738
" />
<path d="M67.9450 83.6738
L68.0055 83.7948
" />
<path d="M68.0055 83.7948
L68.0055 84.1576
" />
<path d="M68.0055 84.1576
L67.9450 84.2786
" />
<path d="M67.9450 84.2786
L67.8845 84.3391
" />
<path d="M67.8845 84.3391
L67.7636 84.3995
" />
<path d="M67.7636 84.3995
L67.5217 84.3995
" />
<path d="M67.5217 84.3995
L67.4007 84.3391
" />
<path d="M68.5497 84.2786
L68.6102 84.3391
" />
<path d="M68.6102 84.3391
L68.5497 84.3995
" />
<path d="M68.5497 84.3995
L68.4893 84.3391
" />
<path d="M68.4893 84.3391
L68.5497 84.2786
" />
<path d="M68.5497 84.2786
L68.5497 84.3995
" />
<path d="M69.8198 84.3995
L69.0941 84.3995
" />
<path d="M69.4569 84.3995
L69.4569 83.1295
" />
<path d="M69.4569 83.1295
L69.3360 83.3110
" />
<path d="M69.3360 83.3110
L69.2150 83.4319
" />
<path d="M69.2150 83.4319
L69.0941 83.4924
" />
</g><rect x="66.040000" y="96.520000" width="5.080000" height="5.080000" rx="0.000000" />
<text x="68.5800" y="99.6950"
textLength="3.1665" font-size="1.6933" lengthAdjust="spacingAndGlyphs"
text-anchor="middle" opacity="0" stroke-opacity="0">b.4</text>
<g class="stroked-text"><desc>b.4</desc>
<path d="M67.4007 99.6395
L67.4007 98.3695
" />
<path d="M67.4007 98.8533
L67.5217 98.7929
" />
<path d="M67.5217 98.7929
L67.7636 98.7929
" />
<path d="M67.7636 98.7929
L67.8845 98.8533
" />
<path d="M67.8845 98.8533
L67.9450 98.9138
" />
<path d="M67.9450 98.9138
L68.0055 99.0348
" />
<path d="M68.0055 99.0348
L68.0055 99.3976
" />
<path d="M68.0055 99.3976
L67.9450 99.5186
" />
<path d="M67.9450 99.5186
L67.8845 99.5791
" />
<path d="M67.8845 99.5791
L67.7636 99.6395
" />
<path d="M67.7636 99.6395
L67.5217 99.6395
" />
<path d="M67.5217 99.6395
L67.4007 99.5791
" />
<path d="M68.5497 99.5186
L68.6102 99.5791
" />
<path d="M68.6102 99.5791
L68.5497 99.6395
" />
<path d="M68.5497 99.6395
L68.4893 99.5791
" />
<path d="M68.4893 99.5791
L68.5497 99.5186
" />
<path d="M68.5497 99.5186
L68.5497 99.6395
" />
<path d="M69.6988 98.7929
L69.6988 99.6395
" />
<path d="M69.3964 98.3091
L69.0941 99.2162
" />
<path d="M69.0941 99.2162
L69.8802 99.2162
" />
</g><rect x="66.040000" y="91.440000" width="5.080000" height="5.080000" rx="0.000000" />
<text x="68.5800" y="94.6150"
textLength="3.1665" font-size="1.6933" lengthAdjust="spacingAndGlyphs"
text-anchor="middle" opacity="0" stroke-opacity="0">b.3</text>
<g class="stroked-text"><desc>b.3</desc>
<path d="M67.4007 94.5595
L67.4007 93.2895
" />
<path d="M67.4007 93.7733
L67.5217 93.7129
" />
<path d="M67.5217 93.7129
L67.7636 93.7129
" />
<path d="M67.7636 93.7129
L67.8845 93.7733
" />
<path d="M67.8845 93.7733
L67.9450 93.8338
" />
<path d="M67.9450 93.8338
L68.0055 93.9548
" />
<path d="M68.0055 93.9548
L68.0055 94.3176
" />
<path d="M68.0055 94.3176
L67.9450 94.4386
" />
<path d="M67.9450 94.4386
L67.8845 94.4991
" />
<path d="M67.8845 94.4991
L67.7636 94.5595
" />
<path d="M67.7636 94.5595
L67.5217 94.5595
" />
<path d="M67.5217 94.5595
L67.4007 94.4991
" />
<path d="M68.5497 94.4386
L68.6102 94.4991
" />
<path d="M68.6102 94.4991
L68.5497 94.5595
" />
<path d="M68.5497 94.5595
L68.4893 94.4991
" />
<path d="M68.4893 94.4991
L68.5497 94.4386
" />
<path d="M68.5497 94.4386
L68.5497 94.5595
" />
<path d="M69.0336 93.2895
L69.8198 93.2895
" />
<path d="M69.8198 93.2895
L69.3964 93.7733
" />
<path d="M69.3964 93.7733
L69.5779 93.7733
" />
<path d="M69.5779 93.7733
L69.6988 93.8338
" />
<path d="M69.6988 93.8338
L69.7593 93.8943
" />
<path d="M69.7593 93.8943
L69.8198 94.0152
" />
<path d="M69.8198 94.0152
L69.8198 94.3176
" />
<path d="M69.8198 94.3176
L69.7593 94.4386
" />
<path d="M69.7593 94.4386
L69.6988 94.4991
" />
<path d="M69.6988 94.4991
L69.5779 94.5595
" />
<path d="M69.5779 94.5595
L69.2150 94.5595
" />
<path d="M69.2150 94.5595
L69.0941 94.4991
" />
<path d="M69.0941 94.4991
L69.0336 94.4386
" />
</g><rect x="66.040000" y="101.600000" width="5.080000" height="5.080000" rx="0.000000" />
<text x="68.5800" y="104.7750"
textLength="3.1665" font-size="1.6933" lengthAdjust="spacingAndGlyphs"
text-anchor="middle" opacity="0" stroke-opacity="0">b.5</text>
<g class="stroked-text"><desc>b.5</desc>
<path d="M67.4007 104.7195
L67.4007 103.4495
" />
<path d="M67.4007 103.9333
L67.5217 103.8729
" />
<path d="M67.5217 103.8729
L67.7636 103.8729
" />
<path d="M67.7636 103.8729
L67.8845 103.9333
" />
<path d="M67.8845 103.9333
L67.9450 103.9938
" />
<path d="M67.9450 103.9938
L68.0055 104.1148
" />
<path d="M68.0055 104.1148
L68.0055 104.4776
" />
<path d="M68.0055 104.4776
L67.9450 104.5986
" />
<path d="M67.9450 104.5986
L67.8845 104.6591
" />
<path d="M67.8845 104.6591
L67.7636 104.7195
" />
<path d="M67.7636 104.7195
L67.5217 104.7195
" />
<path d="M67.5217 104.7195
L67.4007 104.6591
" />
<path d="M68.5497 104.5986
L68.6102 104.6591
" />
<path d="M68.6102 104.6591
L68.5497 104.7195
" />
<path d="M68.5497 104.7195
L68.4893 104.6591
" />
<path d="M68.4893 104.6591
L68.5497 104.5986
" />
<path d="M68.5497 104.5986
L68.5497 104.7195
" />
<path d="M69.7593 103.4495
L69.1545 103.4495
" />
<path d="M69.1545 103.4495
L69.0941 104.0543
" />
<path d="M69.0941 104.0543
L69.1545 103.9938
" />
<path d="M69.1545 103.9938
L69.2755 103.9333
" />
<path d="M69.2755 103.9333
L69.5779 103.9333
" />
<path d="M69.5779 103.9333
L69.6988 103.9938
" />
<path d="M69.6988 103.9938
L69.7593 104.0543
" />
<path d="M69.7593 104.0543
L69.8198 104.1752
" />
<path d="M69.8198 104.1752
L69.8198 104.4776
" />
<path d="M69.8198 104.4776
L69.7593 104.5986
" />
<path d="M69.7593 104.5986
L69.6988 104.6591
" />
<path d="M69.6988 104.6591
L69.5779 104.7195
" />
<path d="M69.5779 104.7195
L69.2755 104.7195
" />
<path d="M69.2755 104.7195
L69.1545 104.6591
" />
<path d="M69.1545 104.6591
L69.0941 104.5986
" />
</g><rect x="66.040000" y="86.360000" width="5.080000" height="5.080000" rx="0.000000" />
<text x="68.5800" y="89.5350"
textLength="3.1665" font-size="1.6933" lengthAdjust="spacingAndGlyphs"
text-anchor="middle" opacity="0" stroke-opacity="0">b.2</text>
<g class="stroked-text"><desc>b.2</desc>
<path d="M67.4007 89.4795
L67.4007 88.2095
" />
<path d="M67.4007 88.6933
L67.5217 88.6329
" />
<path d="M67.5217 88.6329
L67.7636 88.6329
" />
<path d="M67.7636 88.6329
L67.8845 88.6933
" />
<path d="M67.8845 88.6933
L67.9450 88.7538
" />
<path d="M67.9450 88.7538
L68.0055 88.8748
" />
<path d="M68.0055 88.8748
L68.0055 89.2376
" />
<path d="M68.0055 89.2376
L67.9450 89.3586
" />
<path d="M67.9450 89.3586
L67.8845 89.4191
" />
<path d="M67.8845 89.4191
L67.7636 89.4795
" />
<path d="M67.7636 89.4795
L67.5217 89.4795
" />
<path d="M67.5217 89.4795
L67.4007 89.4191
" />
<path d="M68.5497 89.3586
L68.6102 89.4191
" />
<path d="M68.6102 89.4191
L68.5497 89.4795
" />
<path d="M68.5497 89.4795
L68.4893 89.4191
" />
<path d="M68.4893 89.4191
L68.5497 89.3586
" />
<path d="M68.5497 89.3586
L68.5497 89.4795
" />
<path d="M69.0941 88.3305
L69.1545 88.2700
" />
<path d="M69.1545 88.2700
L69.2755 88.2095
" />
<path d="M69.2755 88.2095
L69.5779 88.2095
" />
<path d="M69.5779 88.2095
L69.6988 88.2700
" />
<path d="M69.6988 88.2700
L69.7593 88.3305
" />
<path d="M69.7593 88.3305
L69.8198 88.4514
" />
<path d="M69.8198 88.4514
L69.8198 88.5724
" />
<path d="M69.8198 88.5724
L69.7593 88.7538
" />
<path d="M69.7593 88.7538
L69.0336 89.4795
" />
<path d="M69.0336 89.4795
L69.8198 89.4795
" />
</g><rect x="106.680000" y="137.160000" width="10.160000" height="25.400000" rx="0.000000" />
<g transform="rotate(-90.000000 110.7377 149.8600)">
<text x="110.7377" y="150.4950"
textLength="17.0758" font-size="1.6933" lengthAdjust="spacingAndGlyphs"
text-anchor="middle" opacity="0" stroke-opacity="0">Внутренняя шина</text>
</g>
<g class="stroked-text"><desc>Внутренняя шина</desc>
<path d="M110.6520 157.5705
L110.7125 157.3891
" />
<path d="M110.7125 157.3891
L110.7729 157.3286
" />
<path d="M110.7729 157.3286
L110.8939 157.2682
" />
<path d="M110.8939 157.2682
L111.0753 157.2682
" />
<path d="M111.0753 157.2682
L111.1963 157.3286
" />
<path d="M111.1963 157.3286
L111.2568 157.3891
" />
<path d="M111.2568 157.3891
L111.3172 157.5101
" />
<path d="M111.3172 157.5101
L111.3172 157.9939
" />
<path d="M111.3172 157.9939
L110.0472 157.9939
" />
<path d="M110.0472 157.9939
L110.0472 157.5705
" />
<path d="M110.0472 157.5705
L110.1077 157.4496
" />
<path d="M110.1077 157.4496
L110.1682 157.3891
" />
<path d="M110.1682 157.3891
L110.2891 157.3286
" />
<path d="M110.2891 157.3286
L110.4101 157.3286
" />
<path d="M110.4101 157.3286
L110.5310 157.3891
" />
<path d="M110.5310 157.3891
L110.5915 157.4496
" />
<path d="M110.5915 157.4496
L110.6520 157.5705
" />
<path d="M110.6520 157.5705
L110.6520 157.9939
" />
<path d="M110.8939 156.7239
L110.8939 156.1796
" />
<path d="M110.4706 156.7239
L111.3172 156.7239
" />
<path d="M110.4706 156.1796
L111.3172 156.1796
" />
<path d="M110.4706 155.6958
L111.3172 155.3934
" />
<path d="M110.4706 155.0911
L111.3172 155.3934
" />
<path d="M111.3172 155.3934
L111.6196 155.5144
" />
<path d="M111.6196 155.5144
L111.6801 155.5749
" />
<path d="M111.6801 155.5749
L111.7406 155.6958
" />
<path d="M110.4706 154.7887
L110.4706 154.1839
" />
<path d="M110.4706 154.4863
L111.3172 154.4863
" />
<path d="M110.4706 153.7606
L111.7406 153.7606
" />
<path d="M110.5310 153.7606
L110.4706 153.6396
" />
<path d="M110.4706 153.6396
L110.4706 153.3977
" />
<path d="M110.4706 153.3977
L110.5310 153.2768
" />
<path d="M110.5310 153.2768
L110.5915 153.2163
" />
<path d="M110.5915 153.2163
L110.7125 153.1558
" />
<path d="M110.7125 153.1558
L111.0753 153.1558
" />
<path d="M111.0753 153.1558
L111.1963 153.2163
" />
<path d="M111.1963 153.2163
L111.2568 153.2768
" />
<path d="M111.2568 153.2768
L111.3172 153.3977
" />
<path d="M111.3172 153.3977
L111.3172 153.6396
" />
<path d="M111.3172 153.6396
L111.2568 153.7606
" />
<path d="M111.2568 152.1278
L111.3172 152.2487
" />
<path d="M111.3172 152.2487
L111.3172 152.4906
" />
<path d="M111.3172 152.4906
L111.2568 152.6116
" />
<path d="M111.2568 152.6116
L111.1358 152.6720
" />
<path d="M111.1358 152.6720
L110.6520 152.6720
" />
<path d="M110.6520 152.6720
L110.5310 152.6116
" />
<path d="M110.5310 152.6116
L110.4706 152.4906
" />
<path d="M110.4706 152.4906
L110.4706 152.2487
" />
<path d="M110.4706 152.2487
L110.5310 152.1278
" />
<path d="M110.5310 152.1278
L110.6520 152.0673
" />
<path d="M110.6520 152.0673
L110.7729 152.0673
" />
<path d="M110.7729 152.0673
L110.8939 152.6720
" />
<path d="M110.8939 151.5230
L110.8939 150.9787
" />
<path d="M110.4706 151.5230
L111.3172 151.5230
" />
<path d="M110.4706 150.9787
L111.3172 150.9787
" />
<path d="M110.8939 150.3740
L110.8939 149.8297
" />
<path d="M110.4706 150.3740
L111.3172 150.3740
" />
<path d="M110.4706 149.8297
L111.3172 149.8297
" />
<path d="M110.9544 148.9831
L111.3172 149.2854
" />
<path d="M111.3172 148.7412
L110.4706 148.7412
" />
<path d="M110.4706 148.7412
L110.4706 149.1040
" />
<path d="M110.4706 149.1040
L110.5310 149.2250
" />
<path d="M110.5310 149.2250
L110.6520 149.2854
" />
<path d="M110.6520 149.2854
L110.7729 149.2854
" />
<path d="M110.7729 149.2854
L110.8939 149.2250
" />
<path d="M110.8939 149.2250
L110.9544 149.1040
" />
<path d="M110.9544 149.1040
L110.9544 148.7412
" />
<path d="M110.9544 147.8945
L111.3172 148.1968
" />
<path d="M111.3172 147.6526
L110.4706 147.6526
" />
<path d="M110.4706 147.6526
L110.4706 148.0154
" />
<path d="M110.4706 148.0154
L110.5310 148.1364
" />
<path d="M110.5310 148.1364
L110.6520 148.1968
" />
<path d="M110.6520 148.1968
L110.7729 148.1968
" />
<path d="M110.7729 148.1968
L110.8939 148.1364
" />
<path d="M110.8939 148.1364
L110.9544 148.0154
" />
<path d="M110.9544 148.0154
L110.9544 147.6526
" />
<path d="M110.4706 145.6568
L111.3172 145.6568
" />
<path d="M110.4706 146.0802
L111.3172 146.0802
" />
<path d="M111.3172 146.0802
L111.3172 145.2335
" />
<path d="M111.3172 145.2335
L110.4706 145.2335
" />
<path d="M110.4706 144.6288
L111.3172 144.6288
" />
<path d="M111.3172 144.6288
L110.4706 144.0240
" />
<path d="M110.4706 144.0240
L111.3172 144.0240
" />
<path d="M110.8939 143.4193
L110.8939 142.8750
" />
<path d="M110.4706 143.4193
L111.3172 143.4193
" />
<path d="M110.4706 142.8750
L111.3172 142.8750
" />
<path d="M111.3172 141.7260
L110.6520 141.7260
" />
<path d="M110.6520 141.7260
L110.5310 141.7865
" />
<path d="M110.5310 141.7865
L110.4706 141.9074
" />
<path d="M110.4706 141.9074
L110.4706 142.1493
" />
<path d="M110.4706 142.1493
L110.5310 142.2703
" />
<path d="M111.2568 141.7260
L111.3172 141.8469
" />
<path d="M111.3172 141.8469
L111.3172 142.1493
" />
<path d="M111.3172 142.1493
L111.2568 142.2703
" />
<path d="M111.2568 142.2703
L111.1358 142.3307
" />
<path d="M111.1358 142.3307
L111.0148 142.3307
" />
<path d="M111.0148 142.3307
L110.8939 142.2703
" />
<path d="M110.8939 142.2703
L110.8334 142.1493
" />
<path d="M110.8334 142.1493
L110.8334 141.8469
" />
<path d="M110.8334 141.8469
L110.7729 141.7260
" />
</g><g transform="rotate(-90.000000 112.7823 149.8600)">
<text x="112.7823" y="150.4950"
textLength="16.4712" font-size="1.6933" lengthAdjust="spacingAndGlyphs"
text-anchor="middle" opacity="0" stroke-opacity="0">между модулями</text>
</g>
<g class="stroked-text"><desc>между модулями</desc>
<path d="M113.3618 157.6916
L112.5152 157.6916
" />
<path d="M112.5152 157.6916
L113.1804 157.3287
" />
<path d="M113.1804 157.3287
L112.5152 156.9659
" />
<path d="M112.5152 156.9659
L113.3618 156.9659
" />
<path d="M113.3014 155.8773
L113.3618 155.9982
" />
<path d="M113.3618 155.9982
L113.3618 156.2401
" />
<path d="M113.3618 156.2401
L113.3014 156.3611
" />
<path d="M113.3014 156.3611
L113.1804 156.4215
" />
<path d="M113.1804 156.4215
L112.6966 156.4215
" />
<path d="M112.6966 156.4215
L112.5756 156.3611
" />
<path d="M112.5756 156.3611
L112.5152 156.2401
" />
<path d="M112.5152 156.2401
L112.5152 155.9982
" />
<path d="M112.5152 155.9982
L112.5756 155.8773
" />
<path d="M112.5756 155.8773
L112.6966 155.8168
" />
<path d="M112.6966 155.8168
L112.8175 155.8168
" />
<path d="M112.8175 155.8168
L112.9385 156.4215
" />
<path d="M112.9385 154.9096
L113.3618 155.3329
" />
<path d="M112.9990 154.8491
L112.5152 155.3329
" />
<path d="M112.5152 154.8491
L113.3618 154.8491
" />
<path d="M113.3618 154.3653
L112.9385 154.7887
" />
<path d="M112.5152 154.3653
L112.9990 154.8491
" />
<path d="M112.6361 153.2163
L112.5756 153.2768
" />
<path d="M112.5756 153.2768
L112.5152 153.3977
" />
<path d="M112.5152 153.3977
L112.5152 153.6396
" />
<path d="M112.5152 153.6396
L112.5756 153.7606
" />
<path d="M112.5756 153.7606
L112.6361 153.8211
" />
<path d="M112.6361 153.8211
L112.7571 153.8815
" />
<path d="M112.7571 153.8815
L113.1199 153.8815
" />
<path d="M113.1199 153.8815
L113.2409 153.8211
" />
<path d="M113.2409 153.8211
L113.3014 153.7606
" />
<path d="M113.3014 153.7606
L113.3618 153.6396
" />
<path d="M113.3618 153.6396
L113.3618 153.4582
" />
<path d="M113.3618 153.4582
L113.3014 153.3373
" />
<path d="M113.3014 153.3373
L113.2409 153.2768
" />
<path d="M113.2409 153.2768
L113.1199 153.2163
" />
<path d="M113.1199 153.2163
L112.3337 153.2163
" />
<path d="M112.3337 153.2163
L112.2128 153.2768
" />
<path d="M112.2128 153.2768
L112.1523 153.3373
" />
<path d="M112.1523 153.3373
L112.0918 153.4582
" />
<path d="M112.0918 153.4582
L112.0918 153.7001
" />
<path d="M112.0918 153.7001
L112.1523 153.8211
" />
<path d="M112.5152 152.7930
L113.3618 152.4906
" />
<path d="M112.5152 152.1883
L113.3618 152.4906
" />
<path d="M113.3618 152.4906
L113.6642 152.6116
" />
<path d="M113.6642 152.6116
L113.7247 152.6721
" />
<path d="M113.7247 152.6721
L113.7852 152.7930
" />
<path d="M113.3618 150.7369
L112.5152 150.7369
" />
<path d="M112.5152 150.7369
L113.1804 150.3740
" />
<path d="M113.1804 150.3740
L112.5152 150.0112
" />
<path d="M112.5152 150.0112
L113.3618 150.0112
" />
<path d="M113.3618 149.2249
L113.3014 149.3459
" />
<path d="M113.3014 149.3459
L113.2409 149.4064
" />
<path d="M113.2409 149.4064
L113.1199 149.4668
" />
<path d="M113.1199 149.4668
L112.7571 149.4668
" />
<path d="M112.7571 149.4668
L112.6361 149.4064
" />
<path d="M112.6361 149.4064
L112.5756 149.3459
" />
<path d="M112.5756 149.3459
L112.5152 149.2249
" />
<path d="M112.5152 149.2249
L112.5152 149.0435
" />
<path d="M112.5152 149.0435
L112.5756 148.9226
" />
<path d="M112.5756 148.9226
L112.6361 148.8621
" />
<path d="M112.6361 148.8621
L112.7571 148.8016
" />
<path d="M112.7571 148.8016
L113.1199 148.8016
" />
<path d="M113.1199 148.8016
L113.2409 148.8621
" />
<path d="M113.2409 148.8621
L113.3014 148.9226
" />
<path d="M113.3014 148.9226
L113.3618 149.0435
" />
<path d="M113.3618 149.0435
L113.3618 149.2249
" />
<path d="M112.6361 147.6526
L112.5756 147.7131
" />
<path d="M112.5756 147.7131
L112.5152 147.8340
" />
<path d="M112.5152 147.8340
L112.5152 148.0759
" />
<path d="M112.5152 148.0759
L112.5756 148.1969
" />
<path d="M112.5756 148.1969
L112.6361 148.2574
" />
<path d="M112.6361 148.2574
L112.7571 148.3178
" />
<path d="M112.7571 148.3178
L113.1199 148.3178
" />
<path d="M113.1199 148.3178
L113.2409 148.2574
" />
<path d="M113.2409 148.2574
L113.3014 148.1969
" />
<path d="M113.3014 148.1969
L113.3618 148.0759
" />
<path d="M113.3618 148.0759
L113.3618 147.8945
" />
<path d="M113.3618 147.8945
L113.3014 147.7736
" />
<path d="M113.3014 147.7736
L113.2409 147.7131
" />
<path d="M113.2409 147.7131
L113.1199 147.6526
" />
<path d="M113.1199 147.6526
L112.3337 147.6526
" />
<path d="M112.3337 147.6526
L112.2128 147.7131
" />
<path d="M112.2128 147.7131
L112.1523 147.7736
" />
<path d="M112.1523 147.7736
L112.0918 147.8945
" />
<path d="M112.0918 147.8945
L112.0918 148.1364
" />
<path d="M112.0918 148.1364
L112.1523 148.2574
" />
<path d="M112.5152 147.2293
L113.3618 146.9269
" />
<path d="M112.5152 146.6246
L113.3618 146.9269
" />
<path d="M113.3618 146.9269
L113.6642 147.0479
" />
<path d="M113.6642 147.0479
L113.7247 147.1084
" />
<path d="M113.7247 147.1084
L113.7852 147.2293
" />
<path d="M113.3618 145.6570
L112.5152 145.6570
" />
<path d="M112.5152 145.6570
L112.5152 145.8384
" />
<path d="M112.5152 145.8384
L112.5756 145.9593
" />
<path d="M112.5756 145.9593
L112.6966 146.0198
" />
<path d="M112.6966 146.0198
L113.1804 146.0803
" />
<path d="M113.1804 146.0803
L113.3014 146.1408
" />
<path d="M113.3014 146.1408
L113.3618 146.2617
" />
<path d="M112.9990 144.8103
L113.3618 145.1126
" />
<path d="M113.3618 144.5684
L112.5152 144.5684
" />
<path d="M112.5152 144.5684
L112.5152 144.9312
" />
<path d="M112.5152 144.9312
L112.5756 145.0522
" />
<path d="M112.5756 145.0522
L112.6966 145.1126
" />
<path d="M112.6966 145.1126
L112.8175 145.1126
" />
<path d="M112.8175 145.1126
L112.9385 145.0522
" />
<path d="M112.9385 145.0522
L112.9990 144.9312
" />
<path d="M112.9990 144.9312
L112.9990 144.5684
" />
<path d="M113.3618 143.9636
L112.5152 143.9636
" />
<path d="M112.5152 143.9636
L113.1804 143.6007
" />
<path d="M113.1804 143.6007
L112.5152 143.2379
" />
<path d="M112.5152 143.2379
L113.3618 143.2379
" />
<path d="M112.5152 142.6331
L113.3618 142.6331
" />
<path d="M113.3618 142.6331
L112.5152 142.0283
" />
<path d="M112.5152 142.0283
L113.3618 142.0283
" />
</g><rect x="66.040000" y="106.680000" width="5.080000" height="5.080000" rx="0.000000" />
<text x="68.5800" y="109.8550"
textLength="3.1665" font-size="1.6933" lengthAdjust="spacingAndGlyphs"
text-anchor="middle" opacity="0" stroke-opacity="0">b.6</text>
<g class="stroked-text"><desc>b.6</desc>
<path d="M67.4007 109.7995
L67.4007 108.5295
" />
<path d="M67.4007 109.0133
L67.5217 108.9529
" />
<path d="M67.5217 108.9529
L67.7636 108.9529
" />
<path d="M67.7636 108.9529
L67.8845 109.0133
" />
<path d="M67.8845 109.0133
L67.9450 109.0738
" />
<path d="M67.9450 109.0738
L68.0055 109.1948
" />
<path d="M68.0055 109.1948
L68.0055 109.5576
" />
<path d="M68.0055 109.5576
L67.9450 109.6786
" />
<path d="M67.9450 109.6786
L67.8845 109.7391
" />
<path d="M67.8845 109.7391
L67.7636 109.7995
" />
<path d="M67.7636 109.7995
L67.5217 109.7995
" />
<path d="M67.5217 109.7995
L67.4007 109.7391
" />
<path d="M68.5497 109.6786
L68.6102 109.7391
" />
<path d="M68.6102 109.7391
L68.5497 109.7995
" />
<path d="M68.5497 109.7995
L68.4893 109.7391
" />
<path d="M68.4893 109.7391
L68.5497 109.6786
" />
<path d="M68.5497 109.6786
L68.5497 109.7995
" />
<path d="M69.6988 108.5295
L69.4569 108.5295
" />
<path d="M69.4569 108.5295
L69.3360 108.5900
" />
<path d="M69.3360 108.5900
L69.2755 108.6505
" />
<path d="M69.2755 108.6505
L69.1545 108.8319
" />
<path d="M69.1545 108.8319
L69.0941 109.0738
" />
<path d="M69.0941 109.0738
L69.0941 109.5576
" />
<path d="M69.0941 109.5576
L69.1545 109.6786
" />
<path d="M69.1545 109.6786
L69.2150 109.7391
" />
<path d="M69.2150 109.7391
L69.3360 109.7995
" />
<path d="M69.3360 109.7995
L69.5779 109.7995
" />
<path d="M69.5779 109.7995
L69.6988 109.7391
" />
<path d="M69.6988 109.7391
L69.7593 109.6786
" />
<path d="M69.7593 109.6786
L69.8198 109.5576
" />
<path d="M69.8198 109.5576
L69.8198 109.2552
" />
<path d="M69.8198 109.2552
L69.7593 109.1343
" />
<path d="M69.7593 109.1343
L69.6988 109.0738
" />
<path d="M69.6988 109.0738
L69.5779 109.0133
" />
<path d="M69.5779 109.0133
L69.3360 109.0133
" />
<path d="M69.3360 109.0133
L69.2150 109.0738
" />
<path d="M69.2150 109.0738
L69.1545 109.1343
" />
<path d="M69.1545 109.1343
L69.0941 109.2552
" />
</g><rect x="66.040000" y="111.760000" width="5.080000" height="5.080000" rx="0.000000" />
<text x="68.5800" y="114.9350"
textLength="3.1665" font-size="1.6933" lengthAdjust="spacingAndGlyphs"
text-anchor="middle" opacity="0" stroke-opacity="0">b.7</text>
<g class="stroked-text"><desc>b.7</desc>
<path d="M67.4007 114.8795
L67.4007 113.6095
" />
<path d="M67.4007 114.0933
L67.5217 114.0329
" />
<path d="M67.5217 114.0329
L67.7636 114.0329
" />
<path d="M67.7636 114.0329
L67.8845 114.0933
" />
<path d="M67.8845 114.0933
L67.9450 114.1538
" />
<path d="M67.9450 114.1538
L68.0055 114.2748
" />
<path d="M68.0055 114.2748
L68.0055 114.6376
" />
<path d="M68.0055 114.6376
L67.9450 114.7586
" />
<path d="M67.9450 114.7586
L67.8845 114.8191
" />
<path d="M67.8845 114.8191
L67.7636 114.8795
" />
<path d="M67.7636 114.8795
L67.5217 114.8795
" />
<path d="M67.5217 114.8795
L67.4007 114.8191
" />
<path d="M68.5497 114.7586
L68.6102 114.8191
" />
<path d="M68.6102 114.8191
L68.5497 114.8795
" />
<path d="M68.5497 114.8795
L68.4893 114.8191
" />
<path d="M68.4893 114.8191
L68.5497 114.7586
" />
<path d="M68.5497 114.7586
L68.5497 114.8795
" />
<path d="M69.0336 113.6095
L69.8802 113.6095
" />
<path d="M69.8802 113.6095
L69.3360 114.8795
" />
</g><rect x="66.040000" y="66.040000" width="5.080000" height="5.080000" rx="0.000000" />
<text x="68.5800" y="69.2150"
textLength="3.1665" font-size="1.6933" lengthAdjust="spacingAndGlyphs"
text-anchor="middle" opacity="0" stroke-opacity="0">a.6</text>
<g class="stroked-text"><desc>a.6</desc>
<path d="M67.9450 69.1595
L67.9450 68.4943
" />
<path d="M67.9450 68.4943
L67.8845 68.3733
" />
<path d="M67.8845 68.3733
L67.7636 68.3129
" />
<path d="M67.7636 68.3129
L67.5217 68.3129
" />
<path d="M67.5217 68.3129
L67.4007 68.3733
" />
<path d="M67.9450 69.0991
L67.8241 69.1595
" />
<path d="M67.8241 69.1595
L67.5217 69.1595
" />
<path d="M67.5217 69.1595
L67.4007 69.0991
" />
<path d="M67.4007 69.0991
L67.3403 68.9781
" />
<path d="M67.3403 68.9781
L67.3403 68.8571
" />
<path d="M67.3403 68.8571
L67.4007 68.7362
" />
<path d="M67.4007 68.7362
L67.5217 68.6757
" />
<path d="M67.5217 68.6757
L67.8241 68.6757
" />
<path d="M67.8241 68.6757
L67.9450 68.6152
" />
<path d="M68.5497 69.0386
L68.6102 69.0991
" />
<path d="M68.6102 69.0991
L68.5497 69.1595
" />
<path d="M68.5497 69.1595
L68.4893 69.0991
" />
<path d="M68.4893 69.0991
L68.5497 69.0386
" />
<path d="M68.5497 69.0386
L68.5497 69.1595
" />
<path d="M69.6988 67.8895
L69.4569 67.8895
" />
<path d="M69.4569 67.8895
L69.3360 67.9500
" />
<path d="M69.3360 67.9500
L69.2755 68.0105
" />
<path d="M69.2755 68.0105
L69.1545 68.1919
" />
<path d="M69.1545 68.1919
L69.0941 68.4338
" />
<path d="M69.0941 68.4338
L69.0941 68.9176
" />
<path d="M69.0941 68.9176
L69.1545 69.0386
" />
<path d="M69.1545 69.0386
L69.2150 69.0991
" />
<path d="M69.2150 69.0991
L69.3360 69.1595
" />
<path d="M69.3360 69.1595
L69.5779 69.1595
" />
<path d="M69.5779 69.1595
L69.6988 69.0991
" />
<path d="M69.6988 69.0991
L69.7593 69.0386
" />
<path d="M69.7593 69.0386
L69.8198 68.9176
" />
<path d="M69.8198 68.9176
L69.8198 68.6152
" />
<path d="M69.8198 68.6152
L69.7593 68.4943
" />
<path d="M69.7593 68.4943
L69.6988 68.4338
" />
<path d="M69.6988 68.4338
L69.5779 68.3733
" />
<path d="M69.5779 68.3733
L69.3360 68.3733
" />
<path d="M69.3360 68.3733
L69.2150 68.4338
" />
<path d="M69.2150 68.4338
L69.1545 68.4943
" />
<path d="M69.1545 68.4943
L69.0941 68.6152
" />
</g><rect x="66.040000" y="71.120000" width="5.080000" height="5.080000" rx="0.000000" />
<text x="68.5800" y="74.2950"
textLength="3.1665" font-size="1.6933" lengthAdjust="spacingAndGlyphs"
text-anchor="middle" opacity="0" stroke-opacity="0">a.7</text>
<g class="stroked-text"><desc>a.7</desc>
<path d="M67.9450 74.2395
L67.9450 73.5743
" />
<path d="M67.9450 73.5743
L67.8845 73.4533
" />
<path d="M67.8845 73.4533
L67.7636 73.3929
" />
<path d="M67.7636 73.3929
L67.5217 73.3929
" />
<path d="M67.5217 73.3929
L67.4007 73.4533
" />
<path d="M67.9450 74.1791
L67.8241 74.2395
" />
<path d="M67.8241 74.2395
L67.5217 74.2395
" />
<path d="M67.5217 74.2395
L67.4007 74.1791
" />
<path d="M67.4007 74.1791
L67.3403 74.0581
" />
<path d="M67.3403 74.0581
L67.3403 73.9371
" />
<path d="M67.3403 73.9371
L67.4007 73.8162
" />
<path d="M67.4007 73.8162
L67.5217 73.7557
" />
<path d="M67.5217 73.7557
L67.8241 73.7557
" />
<path d="M67.8241 73.7557
L67.9450 73.6952
" />
<path d="M68.5497 74.1186
L68.6102 74.1791
" />
<path d="M68.6102 74.1791
L68.5497 74.2395
" />
<path d="M68.5497 74.2395
L68.4893 74.1791
" />
<path d="M68.4893 74.1791
L68.5497 74.1186
" />
<path d="M68.5497 74.1186
L68.5497 74.2395
" />
<path d="M69.0336 72.9695
L69.8802 72.9695
" />
<path d="M69.8802 72.9695
L69.3360 74.2395
" />
</g></g>
<g style="fill:none; 
stroke:#000000; stroke-width:0.5000; stroke-opacity:1; 
stroke-linecap:round; stroke-linejoin:round;">
<rect x="66.040000" y="35.560000" width="50.800000" height="91.440000" rx="0.000000" />
</g>
<g style="fill:none; 
stroke:#000000; stroke-width:0.1524; stroke-opacity:1; 
stroke-linecap:round; stroke-linejoin:round;">
<path d="M66.0400 119.3800
L33.0200 119.3800
" />
<path d="M109.2200 127.0000
L109.2200 137.1600
" />
<path d="M31.7500 62.2300
L34.2900 62.2300
" />
<path d="M30.4800 60.9600
L35.5600 60.9600
" />
<path d="M50.8000 35.5600
L45.7200 38.1000
" />
<path d="M45.7200 43.1800
L33.0200 43.1800
" />
<path d="M33.0200 60.9600
L33.0200 38.1000
" />
<path d="M33.0200 38.1000
L45.7200 38.1000
" />
<path d="M50.8000 40.6400
L45.7200 43.1800
" />
<path d="M114.3000 127.0000
L114.3000 137.1600
" />
<path d="M50.8000 38.1000
L66.0400 38.1000
" />
<path d="M50.8000 43.1800
L66.0400 43.1800
" />
<path d="M33.0200 62.2300
L33.0200 119.3800
" />
</g> 
</svg>
