<?xml version="1.0" standalone="no"?>
 <!DOCTYPE svg PUBLIC "-//W3C//DTD SVG 1.1//EN" 
 "http://www.w3.org/Graphics/SVG/1.1/DTD/svg11.dtd"> 
<svg
  xmlns:svg="http://www.w3.org/2000/svg"
  xmlns="http://www.w3.org/2000/svg"
  xmlns:xlink="http://www.w3.org/1999/xlink"
  version="1.1"
  width="297.0022mm" height="210.0072mm" viewBox="0.0000 0.0000 297.0022 210.0072">
<title>SVG Image created as PMCNV-DQ16src-NPTH-drl_map.svg date 2025/09/01 09:15:08 </title>
  <desc>Image generated by PCBNEW </desc>
<g style="fill:#000000; fill-opacity:1.0000;stroke:#000000; stroke-opacity:1.0000;
stroke-linecap:round; stroke-linejoin:round;"
 transform="translate(0 0) scale(1 1)">
</g>
<g style="fill:none; 
stroke:#000000; stroke-width:0.2315; stroke-opacity:1; 
stroke-linecap:round; stroke-linejoin:round;">
<path d="M167.0247 118.5731
L110.8334 118.5731
" />
<path d="M168.1825 119.7308 A1.1577 1.1577 0.0 0 0 169.3402 120.8885" />
<path d="M106.8229 5.1158 A4.6309 4.6309 0.0 0 0 102.1920 9.7467" />
<path d="M110.8359 7.4357 A4.6309 4.6309 0.0 0 0 106.8229 5.1158" />
<path d="M191.3370 7.4312
L180.9175 7.4312
" />
<path d="M168.1825 119.7308 A1.1577 1.1577 0.0 0 0 167.0247 118.5731" />
<path d="M180.9175 118.5731
L191.3370 118.5731
" />
<path d="M179.7597 6.2735 A1.1577 1.1577 0.0 0 0 178.6020 5.1158" />
<path d="M169.3402 120.8885
L178.6020 120.8885
" />
<path d="M169.3402 5.1158 A1.1577 1.1577 0.0 0 0 168.1825 6.2735" />
<path d="M180.9175 118.5731 A1.1577 1.1577 0.0 0 0 179.7597 119.7308" />
<path d="M191.3370 118.5731 A3.4732 3.4732 0.0 0 0 194.8102 115.0999" />
<path d="M194.8102 10.9044
L194.8102 115.0999
" />
<path d="M102.1920 9.7467
L102.1920 116.2576
" />
<path d="M179.7597 6.2735 A1.1577 1.1577 0.0 0 0 180.9175 7.4312" />
<path d="M194.8102 10.9044 A3.4732 3.4732 0.0 0 0 191.3370 7.4312" />
<path d="M178.6020 5.1158
L169.3402 5.1158
" />
<path d="M110.8437 7.4312
L167.0247 7.4312
" />
<path d="M102.1920 116.2576 A4.6309 4.6309 0.0 0 0 110.8334 118.5731" />
<path d="M178.6020 120.8885 A1.1577 1.1577 0.0 0 0 179.7597 119.7308" />
<path d="M167.0247 7.4312 A1.1577 1.1577 0.0 0 0 168.1825 6.2735" />
</g>
<g style="fill:none; 
stroke:#000000; stroke-width:0.0579; stroke-opacity:1; 
stroke-linecap:round; stroke-linejoin:round;">
<circle cx="106.8229" cy="116.2576" r="1.8524" /> 
<circle cx="154.1971" cy="21.8334" r="1.5050" /> 
<circle cx="105.7505" cy="17.8508" r="1.2735" /> 
<circle cx="105.7505" cy="108.1535" r="1.2735" /> 
<circle cx="138.1669" cy="10.9044" r="1.2735" /> 
<circle cx="138.1669" cy="115.0999" r="1.2735" /> 
<circle cx="154.1971" cy="104.1710" r="1.5050" /> 
<circle cx="173.9711" cy="9.7467" r="1.8524" /> 
<circle cx="165.8670" cy="10.9044" r="1.2735" /> 
<circle cx="165.8670" cy="115.0999" r="1.2735" /> 
<circle cx="182.0752" cy="10.9044" r="1.2735" /> 
<circle cx="182.0752" cy="115.0999" r="1.2735" /> 
<circle cx="106.8229" cy="9.7467" r="1.8524" /> 
</g>
<g style="fill:none; 
stroke:#000000; stroke-width:0.2000; stroke-opacity:1; 
stroke-linecap:round; stroke-linejoin:round;">
<text x="104.0762" y="124.2043"
textLength="14.8667" font-size="2.6667" lengthAdjust="spacingAndGlyphs"
text-anchor="start" opacity="0" stroke-opacity="0">Drill Map:</text>
<g class="stroked-text"><desc>Drill Map:</desc>
<path d="M104.6840 124.1192
L104.6840 122.1192
" />
<path d="M104.6840 122.1192
L105.1602 122.1192
" />
<path d="M105.1602 122.1192
L105.4459 122.2144
" />
<path d="M105.4459 122.2144
L105.6364 122.4049
" />
<path d="M105.6364 122.4049
L105.7316 122.5953
" />
<path d="M105.7316 122.5953
L105.8268 122.9763
" />
<path d="M105.8268 122.9763
L105.8268 123.2620
" />
<path d="M105.8268 123.2620
L105.7316 123.6430
" />
<path d="M105.7316 123.6430
L105.6364 123.8334
" />
<path d="M105.6364 123.8334
L105.4459 124.0239
" />
<path d="M105.4459 124.0239
L105.1602 124.1192
" />
<path d="M105.1602 124.1192
L104.6840 124.1192
" />
<path d="M106.6840 124.1192
L106.6840 122.7858
" />
<path d="M106.6840 123.1668
L106.7792 122.9763
" />
<path d="M106.7792 122.9763
L106.8745 122.8811
" />
<path d="M106.8745 122.8811
L107.0649 122.7858
" />
<path d="M107.0649 122.7858
L107.2554 122.7858
" />
<path d="M107.9221 124.1192
L107.9221 122.7858
" />
<path d="M107.9221 122.1192
L107.8268 122.2144
" />
<path d="M107.8268 122.2144
L107.9221 122.3096
" />
<path d="M107.9221 122.3096
L108.0173 122.2144
" />
<path d="M108.0173 122.2144
L107.9221 122.1192
" />
<path d="M107.9221 122.1192
L107.9221 122.3096
" />
<path d="M109.1602 124.1192
L108.9697 124.0239
" />
<path d="M108.9697 124.0239
L108.8745 123.8334
" />
<path d="M108.8745 123.8334
L108.8745 122.1192
" />
<path d="M110.2078 124.1192
L110.0173 124.0239
" />
<path d="M110.0173 124.0239
L109.9221 123.8334
" />
<path d="M109.9221 123.8334
L109.9221 122.1192
" />
<path d="M112.4935 124.1192
L112.4935 122.1192
" />
<path d="M112.4935 122.1192
L113.1602 123.5477
" />
<path d="M113.1602 123.5477
L113.8268 122.1192
" />
<path d="M113.8268 122.1192
L113.8268 124.1192
" />
<path d="M115.6364 124.1192
L115.6364 123.0715
" />
<path d="M115.6364 123.0715
L115.5411 122.8811
" />
<path d="M115.5411 122.8811
L115.3507 122.7858
" />
<path d="M115.3507 122.7858
L114.9697 122.7858
" />
<path d="M114.9697 122.7858
L114.7792 122.8811
" />
<path d="M115.6364 124.0239
L115.4459 124.1192
" />
<path d="M115.4459 124.1192
L114.9697 124.1192
" />
<path d="M114.9697 124.1192
L114.7792 124.0239
" />
<path d="M114.7792 124.0239
L114.6840 123.8334
" />
<path d="M114.6840 123.8334
L114.6840 123.6430
" />
<path d="M114.6840 123.6430
L114.7792 123.4525
" />
<path d="M114.7792 123.4525
L114.9697 123.3573
" />
<path d="M114.9697 123.3573
L115.4459 123.3573
" />
<path d="M115.4459 123.3573
L115.6364 123.2620
" />
<path d="M116.5887 122.7858
L116.5887 124.7858
" />
<path d="M116.5887 122.8811
L116.7792 122.7858
" />
<path d="M116.7792 122.7858
L117.1602 122.7858
" />
<path d="M117.1602 122.7858
L117.3507 122.8811
" />
<path d="M117.3507 122.8811
L117.4459 122.9763
" />
<path d="M117.4459 122.9763
L117.5411 123.1668
" />
<path d="M117.5411 123.1668
L117.5411 123.7382
" />
<path d="M117.5411 123.7382
L117.4459 123.9287
" />
<path d="M117.4459 123.9287
L117.3507 124.0239
" />
<path d="M117.3507 124.0239
L117.1602 124.1192
" />
<path d="M117.1602 124.1192
L116.7792 124.1192
" />
<path d="M116.7792 124.1192
L116.5887 124.0239
" />
<path d="M118.3983 123.9287
L118.4935 124.0239
" />
<path d="M118.4935 124.0239
L118.3983 124.1192
" />
<path d="M118.3983 124.1192
L118.3030 124.0239
" />
<path d="M118.3030 124.0239
L118.3983 123.9287
" />
<path d="M118.3983 123.9287
L118.3983 124.1192
" />
<path d="M118.3983 122.8811
L118.4935 122.9763
" />
<path d="M118.4935 122.9763
L118.3983 123.0715
" />
<path d="M118.3983 123.0715
L118.3030 122.9763
" />
<path d="M118.3030 122.9763
L118.3983 122.8811
" />
<path d="M118.3983 122.8811
L118.3983 123.0715
" />
</g></g> 
</svg>
