<?xml version="1.0" standalone="no"?>
 <!DOCTYPE svg PUBLIC "-//W3C//DTD SVG 1.1//EN" 
 "http://www.w3.org/Graphics/SVG/1.1/DTD/svg11.dtd"> 
<svg
  xmlns:svg="http://www.w3.org/2000/svg"
  xmlns="http://www.w3.org/2000/svg"
  xmlns:xlink="http://www.w3.org/1999/xlink"
  version="1.1"
  width="148.0058mm" height="210.0072mm" viewBox="0.0000 0.0000 148.0058 210.0072">
<title>SVG Image created as main-User_2.svg date 2025/03/09 15:22:03 </title>
  <desc>Image generated by PCBNEW </desc>
<g style="fill:#000000; fill-opacity:1.0000;stroke:#000000; stroke-opacity:1.0000;
stroke-linecap:round; stroke-linejoin:round;"
 transform="translate(0 0) scale(1 1)">
</g>
<g style="fill:none; 
stroke:#000000; stroke-width:0.1500; stroke-opacity:1; 
stroke-linecap:round; stroke-linejoin:round;">
<g transform="rotate(-90.000000 17.8500 98.0000)">
<text x="17.8500" y="98.5000"
textLength="7.0119" font-size="1.3333" lengthAdjust="spacingAndGlyphs"
text-anchor="middle" opacity="0" stroke-opacity="0">96,0 mm</text>
</g>
<g class="stroked-text"><desc>96,0 mm</desc>
<path d="M18.3048 101.0952
L18.3048 100.9048
" />
<path d="M18.3048 100.9048
L18.2572 100.8095
" />
<path d="M18.2572 100.8095
L18.2096 100.7619
" />
<path d="M18.2096 100.7619
L18.0667 100.6667
" />
<path d="M18.0667 100.6667
L17.8762 100.6190
" />
<path d="M17.8762 100.6190
L17.4953 100.6190
" />
<path d="M17.4953 100.6190
L17.4001 100.6667
" />
<path d="M17.4001 100.6667
L17.3524 100.7143
" />
<path d="M17.3524 100.7143
L17.3048 100.8095
" />
<path d="M17.3048 100.8095
L17.3048 101.0000
" />
<path d="M17.3048 101.0000
L17.3524 101.0952
" />
<path d="M17.3524 101.0952
L17.4001 101.1429
" />
<path d="M17.4001 101.1429
L17.4953 101.1905
" />
<path d="M17.4953 101.1905
L17.7334 101.1905
" />
<path d="M17.7334 101.1905
L17.8286 101.1429
" />
<path d="M17.8286 101.1429
L17.8762 101.0952
" />
<path d="M17.8762 101.0952
L17.9239 101.0000
" />
<path d="M17.9239 101.0000
L17.9239 100.8095
" />
<path d="M17.9239 100.8095
L17.8762 100.7143
" />
<path d="M17.8762 100.7143
L17.8286 100.6667
" />
<path d="M17.8286 100.6667
L17.7334 100.6190
" />
<path d="M17.3048 99.7619
L17.3048 99.9524
" />
<path d="M17.3048 99.9524
L17.3524 100.0476
" />
<path d="M17.3524 100.0476
L17.4001 100.0952
" />
<path d="M17.4001 100.0952
L17.5429 100.1905
" />
<path d="M17.5429 100.1905
L17.7334 100.2381
" />
<path d="M17.7334 100.2381
L18.1143 100.2381
" />
<path d="M18.1143 100.2381
L18.2096 100.1905
" />
<path d="M18.2096 100.1905
L18.2572 100.1429
" />
<path d="M18.2572 100.1429
L18.3048 100.0476
" />
<path d="M18.3048 100.0476
L18.3048 99.8571
" />
<path d="M18.3048 99.8571
L18.2572 99.7619
" />
<path d="M18.2572 99.7619
L18.2096 99.7143
" />
<path d="M18.2096 99.7143
L18.1143 99.6667
" />
<path d="M18.1143 99.6667
L17.8762 99.6667
" />
<path d="M17.8762 99.6667
L17.7810 99.7143
" />
<path d="M17.7810 99.7143
L17.7334 99.7619
" />
<path d="M17.7334 99.7619
L17.6858 99.8571
" />
<path d="M17.6858 99.8571
L17.6858 100.0476
" />
<path d="M17.6858 100.0476
L17.7334 100.1429
" />
<path d="M17.7334 100.1429
L17.7810 100.1905
" />
<path d="M17.7810 100.1905
L17.8762 100.2381
" />
<path d="M18.2572 99.1905
L18.3048 99.1905
" />
<path d="M18.3048 99.1905
L18.4001 99.2381
" />
<path d="M18.4001 99.2381
L18.4477 99.2857
" />
<path d="M17.3048 98.5714
L17.3048 98.4762
" />
<path d="M17.3048 98.4762
L17.3524 98.3810
" />
<path d="M17.3524 98.3810
L17.4001 98.3333
" />
<path d="M17.4001 98.3333
L17.4953 98.2857
" />
<path d="M17.4953 98.2857
L17.6858 98.2381
" />
<path d="M17.6858 98.2381
L17.9239 98.2381
" />
<path d="M17.9239 98.2381
L18.1143 98.2857
" />
<path d="M18.1143 98.2857
L18.2096 98.3333
" />
<path d="M18.2096 98.3333
L18.2572 98.3810
" />
<path d="M18.2572 98.3810
L18.3048 98.4762
" />
<path d="M18.3048 98.4762
L18.3048 98.5714
" />
<path d="M18.3048 98.5714
L18.2572 98.6667
" />
<path d="M18.2572 98.6667
L18.2096 98.7143
" />
<path d="M18.2096 98.7143
L18.1143 98.7619
" />
<path d="M18.1143 98.7619
L17.9239 98.8095
" />
<path d="M17.9239 98.8095
L17.6858 98.8095
" />
<path d="M17.6858 98.8095
L17.4953 98.7619
" />
<path d="M17.4953 98.7619
L17.4001 98.7143
" />
<path d="M17.4001 98.7143
L17.3524 98.6667
" />
<path d="M17.3524 98.6667
L17.3048 98.5714
" />
<path d="M18.3048 97.0476
L17.6382 97.0476
" />
<path d="M17.7334 97.0476
L17.6858 97.0000
" />
<path d="M17.6858 97.0000
L17.6382 96.9048
" />
<path d="M17.6382 96.9048
L17.6382 96.7619
" />
<path d="M17.6382 96.7619
L17.6858 96.6667
" />
<path d="M17.6858 96.6667
L17.7810 96.6190
" />
<path d="M17.7810 96.6190
L18.3048 96.6190
" />
<path d="M17.7810 96.6190
L17.6858 96.5714
" />
<path d="M17.6858 96.5714
L17.6382 96.4762
" />
<path d="M17.6382 96.4762
L17.6382 96.3333
" />
<path d="M17.6382 96.3333
L17.6858 96.2381
" />
<path d="M17.6858 96.2381
L17.7810 96.1905
" />
<path d="M17.7810 96.1905
L18.3048 96.1905
" />
<path d="M18.3048 95.7143
L17.6382 95.7143
" />
<path d="M17.7334 95.7143
L17.6858 95.6667
" />
<path d="M17.6858 95.6667
L17.6382 95.5714
" />
<path d="M17.6382 95.5714
L17.6382 95.4286
" />
<path d="M17.6382 95.4286
L17.6858 95.3333
" />
<path d="M17.6858 95.3333
L17.7810 95.2857
" />
<path d="M17.7810 95.2857
L18.3048 95.2857
" />
<path d="M17.7810 95.2857
L17.6858 95.2381
" />
<path d="M17.6858 95.2381
L17.6382 95.1429
" />
<path d="M17.6382 95.1429
L17.6382 95.0000
" />
<path d="M17.6382 95.0000
L17.6858 94.9048
" />
<path d="M17.6858 94.9048
L17.7810 94.8571
" />
<path d="M17.7810 94.8571
L18.3048 94.8571
" />
</g></g>
<g style="fill:none; 
stroke:#000000; stroke-width:0.1000; stroke-opacity:1; 
stroke-linecap:round; stroke-linejoin:round;">
<path d="M28.5000 50.0000
L18.4136 50.0000
" />
<path d="M18.4136 146.0000
L28.5000 146.0000
" />
<path d="M19.0000 50.0000
L19.0000 146.0000
" />
<path d="M19.0000 50.0000
L19.0000 146.0000
" />
<path d="M19.0000 50.0000
L19.5864 51.1265
" />
<path d="M19.0000 50.0000
L18.4136 51.1265
" />
<path d="M19.0000 146.0000
L18.4136 144.8735
" />
<path d="M19.0000 146.0000
L19.5864 144.8735
" />
<path d="M19.0000 50.0000
L19.0000 146.0000
" />
<path d="M19.0000 50.0000
L19.0000 146.0000
" />
<path d="M19.0000 50.0000
L19.5864 51.1265
" />
<path d="M19.0000 50.0000
L18.4136 51.1265
" />
<path d="M19.0000 146.0000
L18.4136 144.8735
" />
<path d="M19.0000 146.0000
L19.5864 144.8735
" />
</g>
<g style="fill:none; 
stroke:#000000; stroke-width:0.1500; stroke-opacity:1; 
stroke-linecap:round; stroke-linejoin:round;">
<g transform="rotate(-90.000000 21.8500 52.0000)">
<text x="21.8500" y="52.5000"
textLength="6.0595" font-size="1.3333" lengthAdjust="spacingAndGlyphs"
text-anchor="middle" opacity="0" stroke-opacity="0">4,0 mm</text>
</g>
<g class="stroked-text"><desc>4,0 mm</desc>
<path d="M21.6382 54.2381
L22.3048 54.2381
" />
<path d="M21.2572 54.4762
L21.9715 54.7143
" />
<path d="M21.9715 54.7143
L21.9715 54.0952
" />
<path d="M22.2572 53.6667
L22.3048 53.6667
" />
<path d="M22.3048 53.6667
L22.4001 53.7143
" />
<path d="M22.4001 53.7143
L22.4477 53.7619
" />
<path d="M21.3048 53.0476
L21.3048 52.9524
" />
<path d="M21.3048 52.9524
L21.3524 52.8571
" />
<path d="M21.3524 52.8571
L21.4001 52.8095
" />
<path d="M21.4001 52.8095
L21.4953 52.7619
" />
<path d="M21.4953 52.7619
L21.6858 52.7143
" />
<path d="M21.6858 52.7143
L21.9239 52.7143
" />
<path d="M21.9239 52.7143
L22.1143 52.7619
" />
<path d="M22.1143 52.7619
L22.2096 52.8095
" />
<path d="M22.2096 52.8095
L22.2572 52.8571
" />
<path d="M22.2572 52.8571
L22.3048 52.9524
" />
<path d="M22.3048 52.9524
L22.3048 53.0476
" />
<path d="M22.3048 53.0476
L22.2572 53.1429
" />
<path d="M22.2572 53.1429
L22.2096 53.1905
" />
<path d="M22.2096 53.1905
L22.1143 53.2381
" />
<path d="M22.1143 53.2381
L21.9239 53.2857
" />
<path d="M21.9239 53.2857
L21.6858 53.2857
" />
<path d="M21.6858 53.2857
L21.4953 53.2381
" />
<path d="M21.4953 53.2381
L21.4001 53.1905
" />
<path d="M21.4001 53.1905
L21.3524 53.1429
" />
<path d="M21.3524 53.1429
L21.3048 53.0476
" />
<path d="M22.3048 51.5238
L21.6382 51.5238
" />
<path d="M21.7334 51.5238
L21.6858 51.4762
" />
<path d="M21.6858 51.4762
L21.6382 51.3810
" />
<path d="M21.6382 51.3810
L21.6382 51.2381
" />
<path d="M21.6382 51.2381
L21.6858 51.1429
" />
<path d="M21.6858 51.1429
L21.7810 51.0952
" />
<path d="M21.7810 51.0952
L22.3048 51.0952
" />
<path d="M21.7810 51.0952
L21.6858 51.0476
" />
<path d="M21.6858 51.0476
L21.6382 50.9524
" />
<path d="M21.6382 50.9524
L21.6382 50.8095
" />
<path d="M21.6382 50.8095
L21.6858 50.7143
" />
<path d="M21.6858 50.7143
L21.7810 50.6667
" />
<path d="M21.7810 50.6667
L22.3048 50.6667
" />
<path d="M22.3048 50.1905
L21.6382 50.1905
" />
<path d="M21.7334 50.1905
L21.6858 50.1429
" />
<path d="M21.6858 50.1429
L21.6382 50.0476
" />
<path d="M21.6382 50.0476
L21.6382 49.9048
" />
<path d="M21.6382 49.9048
L21.6858 49.8095
" />
<path d="M21.6858 49.8095
L21.7810 49.7619
" />
<path d="M21.7810 49.7619
L22.3048 49.7619
" />
<path d="M21.7810 49.7619
L21.6858 49.7143
" />
<path d="M21.6858 49.7143
L21.6382 49.6190
" />
<path d="M21.6382 49.6190
L21.6382 49.4762
" />
<path d="M21.6382 49.4762
L21.6858 49.3810
" />
<path d="M21.6858 49.3810
L21.7810 49.3333
" />
<path d="M21.7810 49.3333
L22.3048 49.3333
" />
</g></g>
<g style="fill:none; 
stroke:#000000; stroke-width:0.1000; stroke-opacity:1; 
stroke-linecap:round; stroke-linejoin:round;">
<path d="M28.5000 50.0000
L22.4136 50.0000
" />
<path d="M22.4136 54.0000
L28.5000 54.0000
" />
<path d="M23.0000 50.0000
L23.0000 54.0000
" />
<path d="M23.0000 50.0000
L23.0000 54.0000
" />
<path d="M23.0000 50.0000
L23.5864 51.1265
" />
<path d="M23.0000 50.0000
L22.4136 51.1265
" />
<path d="M23.0000 54.0000
L22.4136 52.8735
" />
<path d="M23.0000 54.0000
L23.5864 52.8735
" />
<path d="M23.0000 50.0000
L23.0000 54.0000
" />
<path d="M23.0000 50.0000
L23.0000 54.0000
" />
<path d="M23.0000 50.0000
L23.5864 51.1265
" />
<path d="M23.0000 50.0000
L22.4136 51.1265
" />
<path d="M23.0000 54.0000
L22.4136 52.8735
" />
<path d="M23.0000 54.0000
L23.5864 52.8735
" />
</g>
<g style="fill:none; 
stroke:#000000; stroke-width:0.1500; stroke-opacity:1; 
stroke-linecap:round; stroke-linejoin:round;">
<text x="56.0000" y="42.3500"
textLength="7.0119" font-size="1.3333" lengthAdjust="spacingAndGlyphs"
text-anchor="middle" opacity="0" stroke-opacity="0">62,0 mm</text>
<g class="stroked-text"><desc>62,0 mm</desc>
<path d="M53.2857 41.3048
L53.0952 41.3048
" />
<path d="M53.0952 41.3048
L53.0000 41.3524
" />
<path d="M53.0000 41.3524
L52.9524 41.4001
" />
<path d="M52.9524 41.4001
L52.8571 41.5429
" />
<path d="M52.8571 41.5429
L52.8095 41.7334
" />
<path d="M52.8095 41.7334
L52.8095 42.1143
" />
<path d="M52.8095 42.1143
L52.8571 42.2096
" />
<path d="M52.8571 42.2096
L52.9048 42.2572
" />
<path d="M52.9048 42.2572
L53.0000 42.3048
" />
<path d="M53.0000 42.3048
L53.1905 42.3048
" />
<path d="M53.1905 42.3048
L53.2857 42.2572
" />
<path d="M53.2857 42.2572
L53.3333 42.2096
" />
<path d="M53.3333 42.2096
L53.3810 42.1143
" />
<path d="M53.3810 42.1143
L53.3810 41.8762
" />
<path d="M53.3810 41.8762
L53.3333 41.7810
" />
<path d="M53.3333 41.7810
L53.2857 41.7334
" />
<path d="M53.2857 41.7334
L53.1905 41.6858
" />
<path d="M53.1905 41.6858
L53.0000 41.6858
" />
<path d="M53.0000 41.6858
L52.9048 41.7334
" />
<path d="M52.9048 41.7334
L52.8571 41.7810
" />
<path d="M52.8571 41.7810
L52.8095 41.8762
" />
<path d="M53.7619 41.4001
L53.8095 41.3524
" />
<path d="M53.8095 41.3524
L53.9048 41.3048
" />
<path d="M53.9048 41.3048
L54.1429 41.3048
" />
<path d="M54.1429 41.3048
L54.2381 41.3524
" />
<path d="M54.2381 41.3524
L54.2857 41.4001
" />
<path d="M54.2857 41.4001
L54.3333 41.4953
" />
<path d="M54.3333 41.4953
L54.3333 41.5905
" />
<path d="M54.3333 41.5905
L54.2857 41.7334
" />
<path d="M54.2857 41.7334
L53.7143 42.3048
" />
<path d="M53.7143 42.3048
L54.3333 42.3048
" />
<path d="M54.8095 42.2572
L54.8095 42.3048
" />
<path d="M54.8095 42.3048
L54.7619 42.4001
" />
<path d="M54.7619 42.4001
L54.7143 42.4477
" />
<path d="M55.4286 41.3048
L55.5238 41.3048
" />
<path d="M55.5238 41.3048
L55.6190 41.3524
" />
<path d="M55.6190 41.3524
L55.6667 41.4001
" />
<path d="M55.6667 41.4001
L55.7143 41.4953
" />
<path d="M55.7143 41.4953
L55.7619 41.6858
" />
<path d="M55.7619 41.6858
L55.7619 41.9239
" />
<path d="M55.7619 41.9239
L55.7143 42.1143
" />
<path d="M55.7143 42.1143
L55.6667 42.2096
" />
<path d="M55.6667 42.2096
L55.6190 42.2572
" />
<path d="M55.6190 42.2572
L55.5238 42.3048
" />
<path d="M55.5238 42.3048
L55.4286 42.3048
" />
<path d="M55.4286 42.3048
L55.3333 42.2572
" />
<path d="M55.3333 42.2572
L55.2857 42.2096
" />
<path d="M55.2857 42.2096
L55.2381 42.1143
" />
<path d="M55.2381 42.1143
L55.1905 41.9239
" />
<path d="M55.1905 41.9239
L55.1905 41.6858
" />
<path d="M55.1905 41.6858
L55.2381 41.4953
" />
<path d="M55.2381 41.4953
L55.2857 41.4001
" />
<path d="M55.2857 41.4001
L55.3333 41.3524
" />
<path d="M55.3333 41.3524
L55.4286 41.3048
" />
<path d="M56.9524 42.3048
L56.9524 41.6382
" />
<path d="M56.9524 41.7334
L57.0000 41.6858
" />
<path d="M57.0000 41.6858
L57.0952 41.6382
" />
<path d="M57.0952 41.6382
L57.2381 41.6382
" />
<path d="M57.2381 41.6382
L57.3333 41.6858
" />
<path d="M57.3333 41.6858
L57.3810 41.7810
" />
<path d="M57.3810 41.7810
L57.3810 42.3048
" />
<path d="M57.3810 41.7810
L57.4286 41.6858
" />
<path d="M57.4286 41.6858
L57.5238 41.6382
" />
<path d="M57.5238 41.6382
L57.6667 41.6382
" />
<path d="M57.6667 41.6382
L57.7619 41.6858
" />
<path d="M57.7619 41.6858
L57.8095 41.7810
" />
<path d="M57.8095 41.7810
L57.8095 42.3048
" />
<path d="M58.2857 42.3048
L58.2857 41.6382
" />
<path d="M58.2857 41.7334
L58.3333 41.6858
" />
<path d="M58.3333 41.6858
L58.4286 41.6382
" />
<path d="M58.4286 41.6382
L58.5714 41.6382
" />
<path d="M58.5714 41.6382
L58.6667 41.6858
" />
<path d="M58.6667 41.6858
L58.7143 41.7810
" />
<path d="M58.7143 41.7810
L58.7143 42.3048
" />
<path d="M58.7143 41.7810
L58.7619 41.6858
" />
<path d="M58.7619 41.6858
L58.8571 41.6382
" />
<path d="M58.8571 41.6382
L59.0000 41.6382
" />
<path d="M59.0000 41.6382
L59.0952 41.6858
" />
<path d="M59.0952 41.6858
L59.1429 41.7810
" />
<path d="M59.1429 41.7810
L59.1429 42.3048
" />
</g></g>
<g style="fill:none; 
stroke:#000000; stroke-width:0.1000; stroke-opacity:1; 
stroke-linecap:round; stroke-linejoin:round;">
<path d="M25.0000 54.5000
L25.0000 42.4136
" />
<path d="M87.0000 42.4136
L87.0000 54.5000
" />
<path d="M25.0000 43.0000
L87.0000 43.0000
" />
<path d="M25.0000 43.0000
L87.0000 43.0000
" />
<path d="M25.0000 43.0000
L26.1265 42.4136
" />
<path d="M25.0000 43.0000
L26.1265 43.5864
" />
<path d="M87.0000 43.0000
L85.8735 43.5864
" />
<path d="M87.0000 43.0000
L85.8735 42.4136
" />
<path d="M25.0000 43.0000
L87.0000 43.0000
" />
<path d="M25.0000 43.0000
L87.0000 43.0000
" />
<path d="M25.0000 43.0000
L26.1265 42.4136
" />
<path d="M25.0000 43.0000
L26.1265 43.5864
" />
<path d="M87.0000 43.0000
L85.8735 43.5864
" />
<path d="M87.0000 43.0000
L85.8735 42.4136
" />
</g>
<g style="fill:none; 
stroke:#000000; stroke-width:0.1500; stroke-opacity:1; 
stroke-linecap:round; stroke-linejoin:round;">
<text x="27.0000" y="47.3500"
textLength="6.0595" font-size="1.3333" lengthAdjust="spacingAndGlyphs"
text-anchor="middle" opacity="0" stroke-opacity="0">4,0 mm</text>
<g class="stroked-text"><desc>4,0 mm</desc>
<path d="M24.7619 46.6382
L24.7619 47.3048
" />
<path d="M24.5238 46.2572
L24.2857 46.9715
" />
<path d="M24.2857 46.9715
L24.9048 46.9715
" />
<path d="M25.3333 47.2572
L25.3333 47.3048
" />
<path d="M25.3333 47.3048
L25.2857 47.4001
" />
<path d="M25.2857 47.4001
L25.2381 47.4477
" />
<path d="M25.9524 46.3048
L26.0476 46.3048
" />
<path d="M26.0476 46.3048
L26.1429 46.3524
" />
<path d="M26.1429 46.3524
L26.1905 46.4001
" />
<path d="M26.1905 46.4001
L26.2381 46.4953
" />
<path d="M26.2381 46.4953
L26.2857 46.6858
" />
<path d="M26.2857 46.6858
L26.2857 46.9239
" />
<path d="M26.2857 46.9239
L26.2381 47.1143
" />
<path d="M26.2381 47.1143
L26.1905 47.2096
" />
<path d="M26.1905 47.2096
L26.1429 47.2572
" />
<path d="M26.1429 47.2572
L26.0476 47.3048
" />
<path d="M26.0476 47.3048
L25.9524 47.3048
" />
<path d="M25.9524 47.3048
L25.8571 47.2572
" />
<path d="M25.8571 47.2572
L25.8095 47.2096
" />
<path d="M25.8095 47.2096
L25.7619 47.1143
" />
<path d="M25.7619 47.1143
L25.7143 46.9239
" />
<path d="M25.7143 46.9239
L25.7143 46.6858
" />
<path d="M25.7143 46.6858
L25.7619 46.4953
" />
<path d="M25.7619 46.4953
L25.8095 46.4001
" />
<path d="M25.8095 46.4001
L25.8571 46.3524
" />
<path d="M25.8571 46.3524
L25.9524 46.3048
" />
<path d="M27.4762 47.3048
L27.4762 46.6382
" />
<path d="M27.4762 46.7334
L27.5238 46.6858
" />
<path d="M27.5238 46.6858
L27.6190 46.6382
" />
<path d="M27.6190 46.6382
L27.7619 46.6382
" />
<path d="M27.7619 46.6382
L27.8571 46.6858
" />
<path d="M27.8571 46.6858
L27.9048 46.7810
" />
<path d="M27.9048 46.7810
L27.9048 47.3048
" />
<path d="M27.9048 46.7810
L27.9524 46.6858
" />
<path d="M27.9524 46.6858
L28.0476 46.6382
" />
<path d="M28.0476 46.6382
L28.1905 46.6382
" />
<path d="M28.1905 46.6382
L28.2857 46.6858
" />
<path d="M28.2857 46.6858
L28.3333 46.7810
" />
<path d="M28.3333 46.7810
L28.3333 47.3048
" />
<path d="M28.8095 47.3048
L28.8095 46.6382
" />
<path d="M28.8095 46.7334
L28.8571 46.6858
" />
<path d="M28.8571 46.6858
L28.9524 46.6382
" />
<path d="M28.9524 46.6382
L29.0952 46.6382
" />
<path d="M29.0952 46.6382
L29.1905 46.6858
" />
<path d="M29.1905 46.6858
L29.2381 46.7810
" />
<path d="M29.2381 46.7810
L29.2381 47.3048
" />
<path d="M29.2381 46.7810
L29.2857 46.6858
" />
<path d="M29.2857 46.6858
L29.3810 46.6382
" />
<path d="M29.3810 46.6382
L29.5238 46.6382
" />
<path d="M29.5238 46.6382
L29.6190 46.6858
" />
<path d="M29.6190 46.6858
L29.6667 46.7810
" />
<path d="M29.6667 46.7810
L29.6667 47.3048
" />
</g></g>
<g style="fill:none; 
stroke:#000000; stroke-width:0.1000; stroke-opacity:1; 
stroke-linecap:round; stroke-linejoin:round;">
<path d="M25.0000 54.5000
L25.0000 47.4136
" />
<path d="M29.0000 47.4136
L29.0000 54.5000
" />
<path d="M25.0000 48.0000
L29.0000 48.0000
" />
<path d="M25.0000 48.0000
L29.0000 48.0000
" />
<path d="M25.0000 48.0000
L26.1265 47.4136
" />
<path d="M25.0000 48.0000
L26.1265 48.5864
" />
<path d="M29.0000 48.0000
L27.8735 48.5864
" />
<path d="M29.0000 48.0000
L27.8735 47.4136
" />
<path d="M25.0000 48.0000
L29.0000 48.0000
" />
<path d="M25.0000 48.0000
L29.0000 48.0000
" />
<path d="M25.0000 48.0000
L26.1265 47.4136
" />
<path d="M25.0000 48.0000
L26.1265 48.5864
" />
<path d="M29.0000 48.0000
L27.8735 48.5864
" />
<path d="M29.0000 48.0000
L27.8735 47.4136
" />
</g>
<g style="fill:none; 
stroke:#000000; stroke-width:0.1500; stroke-opacity:1; 
stroke-linecap:round; stroke-linejoin:round;">
<text x="65.0000" y="38.3500"
textLength="7.0119" font-size="1.3333" lengthAdjust="spacingAndGlyphs"
text-anchor="middle" opacity="0" stroke-opacity="0">80,0 mm</text>
<g class="stroked-text"><desc>80,0 mm</desc>
<path d="M62.0000 37.7334
L61.9048 37.6858
" />
<path d="M61.9048 37.6858
L61.8571 37.6382
" />
<path d="M61.8571 37.6382
L61.8095 37.5429
" />
<path d="M61.8095 37.5429
L61.8095 37.4953
" />
<path d="M61.8095 37.4953
L61.8571 37.4001
" />
<path d="M61.8571 37.4001
L61.9048 37.3524
" />
<path d="M61.9048 37.3524
L62.0000 37.3048
" />
<path d="M62.0000 37.3048
L62.1905 37.3048
" />
<path d="M62.1905 37.3048
L62.2857 37.3524
" />
<path d="M62.2857 37.3524
L62.3333 37.4001
" />
<path d="M62.3333 37.4001
L62.3810 37.4953
" />
<path d="M62.3810 37.4953
L62.3810 37.5429
" />
<path d="M62.3810 37.5429
L62.3333 37.6382
" />
<path d="M62.3333 37.6382
L62.2857 37.6858
" />
<path d="M62.2857 37.6858
L62.1905 37.7334
" />
<path d="M62.1905 37.7334
L62.0000 37.7334
" />
<path d="M62.0000 37.7334
L61.9048 37.7810
" />
<path d="M61.9048 37.7810
L61.8571 37.8286
" />
<path d="M61.8571 37.8286
L61.8095 37.9239
" />
<path d="M61.8095 37.9239
L61.8095 38.1143
" />
<path d="M61.8095 38.1143
L61.8571 38.2096
" />
<path d="M61.8571 38.2096
L61.9048 38.2572
" />
<path d="M61.9048 38.2572
L62.0000 38.3048
" />
<path d="M62.0000 38.3048
L62.1905 38.3048
" />
<path d="M62.1905 38.3048
L62.2857 38.2572
" />
<path d="M62.2857 38.2572
L62.3333 38.2096
" />
<path d="M62.3333 38.2096
L62.3810 38.1143
" />
<path d="M62.3810 38.1143
L62.3810 37.9239
" />
<path d="M62.3810 37.9239
L62.3333 37.8286
" />
<path d="M62.3333 37.8286
L62.2857 37.7810
" />
<path d="M62.2857 37.7810
L62.1905 37.7334
" />
<path d="M63.0000 37.3048
L63.0952 37.3048
" />
<path d="M63.0952 37.3048
L63.1905 37.3524
" />
<path d="M63.1905 37.3524
L63.2381 37.4001
" />
<path d="M63.2381 37.4001
L63.2857 37.4953
" />
<path d="M63.2857 37.4953
L63.3333 37.6858
" />
<path d="M63.3333 37.6858
L63.3333 37.9239
" />
<path d="M63.3333 37.9239
L63.2857 38.1143
" />
<path d="M63.2857 38.1143
L63.2381 38.2096
" />
<path d="M63.2381 38.2096
L63.1905 38.2572
" />
<path d="M63.1905 38.2572
L63.0952 38.3048
" />
<path d="M63.0952 38.3048
L63.0000 38.3048
" />
<path d="M63.0000 38.3048
L62.9048 38.2572
" />
<path d="M62.9048 38.2572
L62.8571 38.2096
" />
<path d="M62.8571 38.2096
L62.8095 38.1143
" />
<path d="M62.8095 38.1143
L62.7619 37.9239
" />
<path d="M62.7619 37.9239
L62.7619 37.6858
" />
<path d="M62.7619 37.6858
L62.8095 37.4953
" />
<path d="M62.8095 37.4953
L62.8571 37.4001
" />
<path d="M62.8571 37.4001
L62.9048 37.3524
" />
<path d="M62.9048 37.3524
L63.0000 37.3048
" />
<path d="M63.8095 38.2572
L63.8095 38.3048
" />
<path d="M63.8095 38.3048
L63.7619 38.4001
" />
<path d="M63.7619 38.4001
L63.7143 38.4477
" />
<path d="M64.4286 37.3048
L64.5238 37.3048
" />
<path d="M64.5238 37.3048
L64.6190 37.3524
" />
<path d="M64.6190 37.3524
L64.6667 37.4001
" />
<path d="M64.6667 37.4001
L64.7143 37.4953
" />
<path d="M64.7143 37.4953
L64.7619 37.6858
" />
<path d="M64.7619 37.6858
L64.7619 37.9239
" />
<path d="M64.7619 37.9239
L64.7143 38.1143
" />
<path d="M64.7143 38.1143
L64.6667 38.2096
" />
<path d="M64.6667 38.2096
L64.6190 38.2572
" />
<path d="M64.6190 38.2572
L64.5238 38.3048
" />
<path d="M64.5238 38.3048
L64.4286 38.3048
" />
<path d="M64.4286 38.3048
L64.3333 38.2572
" />
<path d="M64.3333 38.2572
L64.2857 38.2096
" />
<path d="M64.2857 38.2096
L64.2381 38.1143
" />
<path d="M64.2381 38.1143
L64.1905 37.9239
" />
<path d="M64.1905 37.9239
L64.1905 37.6858
" />
<path d="M64.1905 37.6858
L64.2381 37.4953
" />
<path d="M64.2381 37.4953
L64.2857 37.4001
" />
<path d="M64.2857 37.4001
L64.3333 37.3524
" />
<path d="M64.3333 37.3524
L64.4286 37.3048
" />
<path d="M65.9524 38.3048
L65.9524 37.6382
" />
<path d="M65.9524 37.7334
L66.0000 37.6858
" />
<path d="M66.0000 37.6858
L66.0952 37.6382
" />
<path d="M66.0952 37.6382
L66.2381 37.6382
" />
<path d="M66.2381 37.6382
L66.3333 37.6858
" />
<path d="M66.3333 37.6858
L66.3810 37.7810
" />
<path d="M66.3810 37.7810
L66.3810 38.3048
" />
<path d="M66.3810 37.7810
L66.4286 37.6858
" />
<path d="M66.4286 37.6858
L66.5238 37.6382
" />
<path d="M66.5238 37.6382
L66.6667 37.6382
" />
<path d="M66.6667 37.6382
L66.7619 37.6858
" />
<path d="M66.7619 37.6858
L66.8095 37.7810
" />
<path d="M66.8095 37.7810
L66.8095 38.3048
" />
<path d="M67.2857 38.3048
L67.2857 37.6382
" />
<path d="M67.2857 37.7334
L67.3333 37.6858
" />
<path d="M67.3333 37.6858
L67.4286 37.6382
" />
<path d="M67.4286 37.6382
L67.5714 37.6382
" />
<path d="M67.5714 37.6382
L67.6667 37.6858
" />
<path d="M67.6667 37.6858
L67.7143 37.7810
" />
<path d="M67.7143 37.7810
L67.7143 38.3048
" />
<path d="M67.7143 37.7810
L67.7619 37.6858
" />
<path d="M67.7619 37.6858
L67.8571 37.6382
" />
<path d="M67.8571 37.6382
L68.0000 37.6382
" />
<path d="M68.0000 37.6382
L68.0952 37.6858
" />
<path d="M68.0952 37.6858
L68.1429 37.7810
" />
<path d="M68.1429 37.7810
L68.1429 38.3048
" />
</g></g>
<g style="fill:none; 
stroke:#000000; stroke-width:0.1000; stroke-opacity:1; 
stroke-linecap:round; stroke-linejoin:round;">
<path d="M25.0000 54.5000
L25.0000 38.4136
" />
<path d="M105.0000 38.4136
L105.0000 57.5000
" />
<path d="M25.0000 39.0000
L105.0000 39.0000
" />
<path d="M25.0000 39.0000
L105.0000 39.0000
" />
<path d="M25.0000 39.0000
L26.1265 38.4136
" />
<path d="M25.0000 39.0000
L26.1265 39.5864
" />
<path d="M105.0000 39.0000
L103.8735 39.5864
" />
<path d="M105.0000 39.0000
L103.8735 38.4136
" />
<path d="M25.0000 39.0000
L105.0000 39.0000
" />
<path d="M25.0000 39.0000
L105.0000 39.0000
" />
<path d="M25.0000 39.0000
L26.1265 38.4136
" />
<path d="M25.0000 39.0000
L26.1265 39.5864
" />
<path d="M105.0000 39.0000
L103.8735 39.5864
" />
<path d="M105.0000 39.0000
L103.8735 38.4136
" />
</g>
<g style="fill:none; 
stroke:#000000; stroke-width:0.1500; stroke-opacity:1; 
stroke-linecap:round; stroke-linejoin:round;">
<g transform="rotate(-90.000000 111.8500 100.0000)">
<text x="111.8500" y="100.5000"
textLength="7.9643" font-size="1.3333" lengthAdjust="spacingAndGlyphs"
text-anchor="middle" opacity="0" stroke-opacity="0">100,0 mm</text>
</g>
<g class="stroked-text"><desc>100,0 mm</desc>
<path d="M112.3048 103.0952
L112.3048 103.6667
" />
<path d="M112.3048 103.3810
L111.3048 103.3810
" />
<path d="M111.3048 103.3810
L111.4477 103.4762
" />
<path d="M111.4477 103.4762
L111.5429 103.5714
" />
<path d="M111.5429 103.5714
L111.5905 103.6667
" />
<path d="M111.3048 102.4762
L111.3048 102.3810
" />
<path d="M111.3048 102.3810
L111.3524 102.2857
" />
<path d="M111.3524 102.2857
L111.4001 102.2381
" />
<path d="M111.4001 102.2381
L111.4953 102.1905
" />
<path d="M111.4953 102.1905
L111.6858 102.1429
" />
<path d="M111.6858 102.1429
L111.9239 102.1429
" />
<path d="M111.9239 102.1429
L112.1143 102.1905
" />
<path d="M112.1143 102.1905
L112.2096 102.2381
" />
<path d="M112.2096 102.2381
L112.2572 102.2857
" />
<path d="M112.2572 102.2857
L112.3048 102.3810
" />
<path d="M112.3048 102.3810
L112.3048 102.4762
" />
<path d="M112.3048 102.4762
L112.2572 102.5714
" />
<path d="M112.2572 102.5714
L112.2096 102.6190
" />
<path d="M112.2096 102.6190
L112.1143 102.6667
" />
<path d="M112.1143 102.6667
L111.9239 102.7143
" />
<path d="M111.9239 102.7143
L111.6858 102.7143
" />
<path d="M111.6858 102.7143
L111.4953 102.6667
" />
<path d="M111.4953 102.6667
L111.4001 102.6190
" />
<path d="M111.4001 102.6190
L111.3524 102.5714
" />
<path d="M111.3524 102.5714
L111.3048 102.4762
" />
<path d="M111.3048 101.5238
L111.3048 101.4286
" />
<path d="M111.3048 101.4286
L111.3524 101.3333
" />
<path d="M111.3524 101.3333
L111.4001 101.2857
" />
<path d="M111.4001 101.2857
L111.4953 101.2381
" />
<path d="M111.4953 101.2381
L111.6858 101.1905
" />
<path d="M111.6858 101.1905
L111.9239 101.1905
" />
<path d="M111.9239 101.1905
L112.1143 101.2381
" />
<path d="M112.1143 101.2381
L112.2096 101.2857
" />
<path d="M112.2096 101.2857
L112.2572 101.3333
" />
<path d="M112.2572 101.3333
L112.3048 101.4286
" />
<path d="M112.3048 101.4286
L112.3048 101.5238
" />
<path d="M112.3048 101.5238
L112.2572 101.6190
" />
<path d="M112.2572 101.6190
L112.2096 101.6667
" />
<path d="M112.2096 101.6667
L112.1143 101.7143
" />
<path d="M112.1143 101.7143
L111.9239 101.7619
" />
<path d="M111.9239 101.7619
L111.6858 101.7619
" />
<path d="M111.6858 101.7619
L111.4953 101.7143
" />
<path d="M111.4953 101.7143
L111.4001 101.6667
" />
<path d="M111.4001 101.6667
L111.3524 101.6190
" />
<path d="M111.3524 101.6190
L111.3048 101.5238
" />
<path d="M112.2572 100.7143
L112.3048 100.7143
" />
<path d="M112.3048 100.7143
L112.4001 100.7619
" />
<path d="M112.4001 100.7619
L112.4477 100.8095
" />
<path d="M111.3048 100.0952
L111.3048 100.0000
" />
<path d="M111.3048 100.0000
L111.3524 99.9048
" />
<path d="M111.3524 99.9048
L111.4001 99.8571
" />
<path d="M111.4001 99.8571
L111.4953 99.8095
" />
<path d="M111.4953 99.8095
L111.6858 99.7619
" />
<path d="M111.6858 99.7619
L111.9239 99.7619
" />
<path d="M111.9239 99.7619
L112.1143 99.8095
" />
<path d="M112.1143 99.8095
L112.2096 99.8571
" />
<path d="M112.2096 99.8571
L112.2572 99.9048
" />
<path d="M112.2572 99.9048
L112.3048 100.0000
" />
<path d="M112.3048 100.0000
L112.3048 100.0952
" />
<path d="M112.3048 100.0952
L112.2572 100.1905
" />
<path d="M112.2572 100.1905
L112.2096 100.2381
" />
<path d="M112.2096 100.2381
L112.1143 100.2857
" />
<path d="M112.1143 100.2857
L111.9239 100.3333
" />
<path d="M111.9239 100.3333
L111.6858 100.3333
" />
<path d="M111.6858 100.3333
L111.4953 100.2857
" />
<path d="M111.4953 100.2857
L111.4001 100.2381
" />
<path d="M111.4001 100.2381
L111.3524 100.1905
" />
<path d="M111.3524 100.1905
L111.3048 100.0952
" />
<path d="M112.3048 98.5714
L111.6382 98.5714
" />
<path d="M111.7334 98.5714
L111.6858 98.5238
" />
<path d="M111.6858 98.5238
L111.6382 98.4286
" />
<path d="M111.6382 98.4286
L111.6382 98.2857
" />
<path d="M111.6382 98.2857
L111.6858 98.1905
" />
<path d="M111.6858 98.1905
L111.7810 98.1429
" />
<path d="M111.7810 98.1429
L112.3048 98.1429
" />
<path d="M111.7810 98.1429
L111.6858 98.0952
" />
<path d="M111.6858 98.0952
L111.6382 98.0000
" />
<path d="M111.6382 98.0000
L111.6382 97.8571
" />
<path d="M111.6382 97.8571
L111.6858 97.7619
" />
<path d="M111.6858 97.7619
L111.7810 97.7143
" />
<path d="M111.7810 97.7143
L112.3048 97.7143
" />
<path d="M112.3048 97.2381
L111.6382 97.2381
" />
<path d="M111.7334 97.2381
L111.6858 97.1905
" />
<path d="M111.6858 97.1905
L111.6382 97.0952
" />
<path d="M111.6382 97.0952
L111.6382 96.9524
" />
<path d="M111.6382 96.9524
L111.6858 96.8571
" />
<path d="M111.6858 96.8571
L111.7810 96.8095
" />
<path d="M111.7810 96.8095
L112.3048 96.8095
" />
<path d="M111.7810 96.8095
L111.6858 96.7619
" />
<path d="M111.6858 96.7619
L111.6382 96.6667
" />
<path d="M111.6382 96.6667
L111.6382 96.5238
" />
<path d="M111.6382 96.5238
L111.6858 96.4286
" />
<path d="M111.6858 96.4286
L111.7810 96.3810
" />
<path d="M111.7810 96.3810
L112.3048 96.3810
" />
</g></g>
<g style="fill:none; 
stroke:#000000; stroke-width:0.1000; stroke-opacity:1; 
stroke-linecap:round; stroke-linejoin:round;">
<path d="M87.5000 50.0000
L113.5864 50.0000
" />
<path d="M113.5864 150.0000
L87.5000 150.0000
" />
<path d="M113.0000 50.0000
L113.0000 150.0000
" />
<path d="M113.0000 50.0000
L113.0000 150.0000
" />
<path d="M113.0000 50.0000
L113.5864 51.1265
" />
<path d="M113.0000 50.0000
L112.4136 51.1265
" />
<path d="M113.0000 150.0000
L112.4136 148.8735
" />
<path d="M113.0000 150.0000
L113.5864 148.8735
" />
<path d="M113.0000 50.0000
L113.0000 150.0000
" />
<path d="M113.0000 50.0000
L113.0000 150.0000
" />
<path d="M113.0000 50.0000
L113.5864 51.1265
" />
<path d="M113.0000 50.0000
L112.4136 51.1265
" />
<path d="M113.0000 150.0000
L112.4136 148.8735
" />
<path d="M113.0000 150.0000
L113.5864 148.8735
" />
</g>
<g style="fill:none; 
stroke:#000000; stroke-width:0.1500; stroke-opacity:1; 
stroke-linecap:round; stroke-linejoin:round;">
<g transform="rotate(-90.000000 107.8500 100.0000)">
<text x="107.8500" y="100.5000"
textLength="7.0119" font-size="1.3333" lengthAdjust="spacingAndGlyphs"
text-anchor="middle" opacity="0" stroke-opacity="0">96,0 mm</text>
</g>
<g class="stroked-text"><desc>96,0 mm</desc>
<path d="M108.3048 103.0952
L108.3048 102.9048
" />
<path d="M108.3048 102.9048
L108.2572 102.8095
" />
<path d="M108.2572 102.8095
L108.2096 102.7619
" />
<path d="M108.2096 102.7619
L108.0667 102.6667
" />
<path d="M108.0667 102.6667
L107.8762 102.6190
" />
<path d="M107.8762 102.6190
L107.4953 102.6190
" />
<path d="M107.4953 102.6190
L107.4001 102.6667
" />
<path d="M107.4001 102.6667
L107.3524 102.7143
" />
<path d="M107.3524 102.7143
L107.3048 102.8095
" />
<path d="M107.3048 102.8095
L107.3048 103.0000
" />
<path d="M107.3048 103.0000
L107.3524 103.0952
" />
<path d="M107.3524 103.0952
L107.4001 103.1429
" />
<path d="M107.4001 103.1429
L107.4953 103.1905
" />
<path d="M107.4953 103.1905
L107.7334 103.1905
" />
<path d="M107.7334 103.1905
L107.8286 103.1429
" />
<path d="M107.8286 103.1429
L107.8762 103.0952
" />
<path d="M107.8762 103.0952
L107.9239 103.0000
" />
<path d="M107.9239 103.0000
L107.9239 102.8095
" />
<path d="M107.9239 102.8095
L107.8762 102.7143
" />
<path d="M107.8762 102.7143
L107.8286 102.6667
" />
<path d="M107.8286 102.6667
L107.7334 102.6190
" />
<path d="M107.3048 101.7619
L107.3048 101.9524
" />
<path d="M107.3048 101.9524
L107.3524 102.0476
" />
<path d="M107.3524 102.0476
L107.4001 102.0952
" />
<path d="M107.4001 102.0952
L107.5429 102.1905
" />
<path d="M107.5429 102.1905
L107.7334 102.2381
" />
<path d="M107.7334 102.2381
L108.1143 102.2381
" />
<path d="M108.1143 102.2381
L108.2096 102.1905
" />
<path d="M108.2096 102.1905
L108.2572 102.1429
" />
<path d="M108.2572 102.1429
L108.3048 102.0476
" />
<path d="M108.3048 102.0476
L108.3048 101.8571
" />
<path d="M108.3048 101.8571
L108.2572 101.7619
" />
<path d="M108.2572 101.7619
L108.2096 101.7143
" />
<path d="M108.2096 101.7143
L108.1143 101.6667
" />
<path d="M108.1143 101.6667
L107.8762 101.6667
" />
<path d="M107.8762 101.6667
L107.7810 101.7143
" />
<path d="M107.7810 101.7143
L107.7334 101.7619
" />
<path d="M107.7334 101.7619
L107.6858 101.8571
" />
<path d="M107.6858 101.8571
L107.6858 102.0476
" />
<path d="M107.6858 102.0476
L107.7334 102.1429
" />
<path d="M107.7334 102.1429
L107.7810 102.1905
" />
<path d="M107.7810 102.1905
L107.8762 102.2381
" />
<path d="M108.2572 101.1905
L108.3048 101.1905
" />
<path d="M108.3048 101.1905
L108.4001 101.2381
" />
<path d="M108.4001 101.2381
L108.4477 101.2857
" />
<path d="M107.3048 100.5714
L107.3048 100.4762
" />
<path d="M107.3048 100.4762
L107.3524 100.3810
" />
<path d="M107.3524 100.3810
L107.4001 100.3333
" />
<path d="M107.4001 100.3333
L107.4953 100.2857
" />
<path d="M107.4953 100.2857
L107.6858 100.2381
" />
<path d="M107.6858 100.2381
L107.9239 100.2381
" />
<path d="M107.9239 100.2381
L108.1143 100.2857
" />
<path d="M108.1143 100.2857
L108.2096 100.3333
" />
<path d="M108.2096 100.3333
L108.2572 100.3810
" />
<path d="M108.2572 100.3810
L108.3048 100.4762
" />
<path d="M108.3048 100.4762
L108.3048 100.5714
" />
<path d="M108.3048 100.5714
L108.2572 100.6667
" />
<path d="M108.2572 100.6667
L108.2096 100.7143
" />
<path d="M108.2096 100.7143
L108.1143 100.7619
" />
<path d="M108.1143 100.7619
L107.9239 100.8095
" />
<path d="M107.9239 100.8095
L107.6858 100.8095
" />
<path d="M107.6858 100.8095
L107.4953 100.7619
" />
<path d="M107.4953 100.7619
L107.4001 100.7143
" />
<path d="M107.4001 100.7143
L107.3524 100.6667
" />
<path d="M107.3524 100.6667
L107.3048 100.5714
" />
<path d="M108.3048 99.0476
L107.6382 99.0476
" />
<path d="M107.7334 99.0476
L107.6858 99.0000
" />
<path d="M107.6858 99.0000
L107.6382 98.9048
" />
<path d="M107.6382 98.9048
L107.6382 98.7619
" />
<path d="M107.6382 98.7619
L107.6858 98.6667
" />
<path d="M107.6858 98.6667
L107.7810 98.6190
" />
<path d="M107.7810 98.6190
L108.3048 98.6190
" />
<path d="M107.7810 98.6190
L107.6858 98.5714
" />
<path d="M107.6858 98.5714
L107.6382 98.4762
" />
<path d="M107.6382 98.4762
L107.6382 98.3333
" />
<path d="M107.6382 98.3333
L107.6858 98.2381
" />
<path d="M107.6858 98.2381
L107.7810 98.1905
" />
<path d="M107.7810 98.1905
L108.3048 98.1905
" />
<path d="M108.3048 97.7143
L107.6382 97.7143
" />
<path d="M107.7334 97.7143
L107.6858 97.6667
" />
<path d="M107.6858 97.6667
L107.6382 97.5714
" />
<path d="M107.6382 97.5714
L107.6382 97.4286
" />
<path d="M107.6382 97.4286
L107.6858 97.3333
" />
<path d="M107.6858 97.3333
L107.7810 97.2857
" />
<path d="M107.7810 97.2857
L108.3048 97.2857
" />
<path d="M107.7810 97.2857
L107.6858 97.2381
" />
<path d="M107.6858 97.2381
L107.6382 97.1429
" />
<path d="M107.6382 97.1429
L107.6382 97.0000
" />
<path d="M107.6382 97.0000
L107.6858 96.9048
" />
<path d="M107.6858 96.9048
L107.7810 96.8571
" />
<path d="M107.7810 96.8571
L108.3048 96.8571
" />
</g></g>
<g style="fill:none; 
stroke:#000000; stroke-width:0.1000; stroke-opacity:1; 
stroke-linecap:round; stroke-linejoin:round;">
<path d="M102.5000 148.0000
L109.5864 148.0000
" />
<path d="M109.5864 52.0000
L102.5000 52.0000
" />
<path d="M109.0000 148.0000
L109.0000 52.0000
" />
<path d="M109.0000 148.0000
L109.0000 52.0000
" />
<path d="M109.0000 148.0000
L108.4136 146.8735
" />
<path d="M109.0000 148.0000
L109.5864 146.8735
" />
<path d="M109.0000 52.0000
L109.5864 53.1265
" />
<path d="M109.0000 52.0000
L108.4136 53.1265
" />
<path d="M109.0000 148.0000
L109.0000 52.0000
" />
<path d="M109.0000 148.0000
L109.0000 52.0000
" />
<path d="M109.0000 148.0000
L108.4136 146.8735
" />
<path d="M109.0000 148.0000
L109.5864 146.8735
" />
<path d="M109.0000 52.0000
L109.5864 53.1265
" />
<path d="M109.0000 52.0000
L108.4136 53.1265
" />
</g>
<g style="fill:none; 
stroke:#000000; stroke-width:0.2000; stroke-opacity:1; 
stroke-linecap:round; stroke-linejoin:round;">
<path d="M92.0000 51.0000 A1.0000 1.0000 0.0 0 0 91.0000 50.0000" />
<path d="M35.1000 51.0000 A1.0000 1.0000 0.0 0 0 34.1000 50.0000" />
<path d="M29.0000 150.0000
L34.1000 150.0000
" />
<path d="M81.0000 52.0000 A1.0000 1.0000 0.0 0 0 82.0000 51.0000" />
<path d="M25.0000 146.0000 A4.0000 4.0000 0.0 0 0 29.0000 150.0000" />
<path d="M34.1000 150.0000 A1.0000 1.0000 0.0 0 0 35.1000 149.0000" />
<path d="M83.0000 50.0000 A1.0000 1.0000 0.0 0 0 82.0000 51.0000" />
<path d="M36.1000 52.0000
L81.0000 52.0000
" />
<path d="M91.0000 150.0000 A1.0000 1.0000 0.0 0 0 92.0000 149.0000" />
<path d="M29.0000 50.0000 A4.0000 4.0000 0.0 0 0 25.0000 54.0000" />
<path d="M35.1000 51.0000 A1.0000 1.0000 0.0 0 0 36.1000 52.0000" />
<path d="M81.0000 148.0000
L36.1000 148.0000
" />
<path d="M93.0000 148.0000
L102.0000 148.0000
" />
<path d="M102.0000 148.0000 A3.0000 3.0000 0.0 0 0 105.0000 145.0000" />
<path d="M82.0000 149.0000 A1.0000 1.0000 0.0 0 0 83.0000 150.0000" />
<path d="M92.0000 51.0000 A1.0000 1.0000 0.0 0 0 93.0000 52.0000" />
<path d="M105.0000 55.0000
L105.0000 145.0000
" />
<path d="M29.0000 50.0000
L34.1000 50.0000
" />
<path d="M93.0000 148.0000 A1.0000 1.0000 0.0 0 0 92.0000 149.0000" />
<path d="M102.0000 52.0000
L93.0000 52.0000
" />
<path d="M25.0000 54.0000
L25.0000 146.0000
" />
<path d="M36.1000 148.0000 A1.0000 1.0000 0.0 0 0 35.1000 149.0000" />
<path d="M91.0000 50.0000
L83.0000 50.0000
" />
<path d="M105.0000 55.0000 A3.0000 3.0000 0.0 0 0 102.0000 52.0000" />
<path d="M83.0000 150.0000
L91.0000 150.0000
" />
<path d="M82.0000 149.0000 A1.0000 1.0000 0.0 0 0 81.0000 148.0000" />
</g>
<g style="fill:none; 
stroke:#000000; stroke-width:0.0500; stroke-opacity:1; 
stroke-linecap:round; stroke-linejoin:round;">
<circle cx="87.0000" cy="146.0000" r="1.6000" /> 
<circle cx="29.0000" cy="146.0000" r="1.6000" /> 
<circle cx="29.0000" cy="54.0000" r="1.6000" /> 
<circle cx="87.0000" cy="54.0000" r="1.6000" /> 
<circle cx="56.0000" cy="145.0000" r="1.1000" /> 
<circle cx="56.0000" cy="55.0000" r="1.1000" /> 
<circle cx="28.0000" cy="139.0000" r="1.1000" /> 
<circle cx="28.0000" cy="61.0000" r="1.1000" /> 
</g> 
</svg>
