M48
; DRILL file {KiCad 8.0.6-8.0.6-0~ubuntu24.04.1} date 2024-12-11T16:34:02+0300
; FORMAT={-:-/ absolute / inch / decimal}
; #@! TF.CreationDate,2024-12-11T16:34:02+03:00
; #@! TF.GenerationSoftware,Kicad,Pcbnew,8.0.6-8.0.6-0~ubuntu24.04.1
; #@! TF.FileFunction,Plated,1,2,PTH
FMAT,2
INCH
; #@! TA.AperFunction,Plated,PTH,ViaDrill
T1C0.0118
; #@! TA.AperFunction,Plated,PTH,ComponentDrill
T2C0.0433
; #@! TA.AperFunction,Plated,PTH,ComponentDrill
T3C0.0669
; #@! TA.AperFunction,Plated,PTH,ComponentDrill
T4C0.1260
%
G90
G05
T1
X-1.6123Y1.0023
X-1.5996Y1.0637
X-1.564Y-0.8692
X-1.5182Y1.0023
X-1.4309Y-0.8519
X-1.4Y0.9
X-1.4Y0.0
X-1.4Y-0.1
X-1.3316Y-0.6369
X-1.3Y0.0
X-1.3Y-0.1
X-0.7527Y0.8685
X-0.5211Y-0.6369
X-0.0798Y-0.982
X-0.0579Y-0.2895
X0.2817Y0.9765
X0.425Y-0.775
X0.5139Y-0.6369
X0.6696Y-0.8722
X0.723Y-0.7905
X0.7248Y-1.0961
X0.7633Y-0.95
X0.8858Y-0.8791
X0.8858Y-1.0961
X0.8859Y-0.9858
X0.887Y-0.82
X1.11Y-1.03
T2
X0.5717Y1.485
X0.5717Y1.3
X0.5717Y1.085
X0.5717Y0.9
X0.5717Y0.685
X0.5717Y0.5
X0.5717Y0.285
X0.5717Y0.1
X1.0244Y1.3
X1.0244Y0.9
X1.0244Y0.5
X1.0244Y0.1
X1.3Y1.3
X1.3Y0.9
X1.3Y0.5
X1.3Y0.1
T3
X1.75Y1.7
X1.75Y1.5
X1.75Y1.3
X1.75Y1.1
X1.75Y0.9
X1.75Y0.7
X1.75Y0.5
X1.75Y0.3
X1.75Y0.1
X1.75Y-0.1
X1.75Y-0.3
X1.75Y-0.5
X1.75Y-0.7
X1.75Y-0.9
X1.75Y-1.1
X1.75Y-1.3
X1.75Y-1.5
X1.75Y-1.7
T4
X1.2598Y-1.811
M30
