%TF.GenerationSoftware,KiCad,Pcbnew,8.0.6-8.0.6-0~ubuntu24.04.1*%
%TF.CreationDate,2024-12-11T16:34:02+03:00*%
%TF.ProjectId,PM-Neopixel4,504d2d4e-656f-4706-9978-656c342e6b69,rev?*%
%TF.SameCoordinates,Original*%
%TF.FileFunction,Copper,L2,Bot*%
%TF.FilePolarity,Positive*%
%FSLAX46Y46*%
G04 Gerber Fmt 4.6, Leading zero omitted, Abs format (unit mm)*
G04 Created by KiCad (PCBNEW 8.0.6-8.0.6-0~ubuntu24.04.1) date 2024-12-11 16:34:02*
%MOMM*%
%LPD*%
G01*
G04 APERTURE LIST*
G04 Aperture macros list*
%AMFreePoly0*
4,1,6,1.000000,0.000000,0.500000,-0.750000,-0.500000,-0.750000,-0.500000,0.750000,0.500000,0.750000,1.000000,0.000000,1.000000,0.000000,$1*%
%AMFreePoly1*
4,1,6,0.500000,-0.750000,-0.650000,-0.750000,-0.150000,0.000000,-0.650000,0.750000,0.500000,0.750000,0.500000,-0.750000,0.500000,-0.750000,$1*%
G04 Aperture macros list end*
%TA.AperFunction,ComponentPad*%
%ADD10C,1.608000*%
%TD*%
%TA.AperFunction,ComponentPad*%
%ADD11R,3.500000X3.500000*%
%TD*%
%TA.AperFunction,ComponentPad*%
%ADD12C,3.500000*%
%TD*%
%TA.AperFunction,ComponentPad*%
%ADD13O,6.350000X6.350000*%
%TD*%
%TA.AperFunction,SMDPad,CuDef*%
%ADD14FreePoly0,0.000000*%
%TD*%
%TA.AperFunction,SMDPad,CuDef*%
%ADD15FreePoly1,0.000000*%
%TD*%
%TA.AperFunction,ViaPad*%
%ADD16C,0.600000*%
%TD*%
%TA.AperFunction,Conductor*%
%ADD17C,0.200000*%
%TD*%
%TA.AperFunction,Conductor*%
%ADD18C,1.000000*%
%TD*%
G04 APERTURE END LIST*
D10*
%TO.P,K0,1,1*%
%TO.N,/K0*%
X14520000Y33020000D03*
%TO.P,K0,2,2*%
%TO.N,Net-(J2-Pin_17)*%
X26020000Y33020000D03*
%TO.P,K0,3,3*%
%TO.N,Net-(J2-Pin_18)*%
X33020000Y33020000D03*
%TO.P,K0,4,4*%
%TO.N,+5V*%
X14520000Y37720000D03*
%TD*%
%TO.P,K2,1,1*%
%TO.N,/K2*%
X14520000Y12700000D03*
%TO.P,K2,2,2*%
%TO.N,Net-(J2-Pin_9)*%
X26020000Y12700000D03*
%TO.P,K2,3,3*%
%TO.N,Net-(J2-Pin_10)*%
X33020000Y12700000D03*
%TO.P,K2,4,4*%
%TO.N,+5V*%
X14520000Y17400000D03*
%TD*%
D11*
%TO.P,J2,1,Pin_1*%
%TO.N,/PE*%
X44450000Y-43180000D03*
D12*
%TO.P,J2,2,Pin_2*%
%TO.N,GND_ISO*%
X44450000Y-38100000D03*
%TO.P,J2,3,Pin_3*%
X44450000Y-33020000D03*
%TO.P,J2,4,Pin_4*%
%TO.N,/3.DI*%
X44450000Y-27940000D03*
%TO.P,J2,5,Pin_5*%
%TO.N,Net-(J2-Pin_5)*%
X44450000Y-22860000D03*
%TO.P,J2,6,Pin_6*%
%TO.N,Net-(J2-Pin_6)*%
X44450000Y-17780000D03*
%TO.P,J2,7,Pin_7*%
%TO.N,GND_ISO*%
X44450000Y-12700000D03*
%TO.P,J2,8,Pin_8*%
%TO.N,/2.DI*%
X44450000Y-7620000D03*
%TO.P,J2,9,Pin_9*%
%TO.N,Net-(J2-Pin_9)*%
X44450000Y-2540000D03*
%TO.P,J2,10,Pin_10*%
%TO.N,Net-(J2-Pin_10)*%
X44450000Y2540000D03*
%TO.P,J2,11,Pin_11*%
%TO.N,GND_ISO*%
X44450000Y7620000D03*
%TO.P,J2,12,Pin_12*%
%TO.N,/1.DI*%
X44450000Y12700000D03*
%TO.P,J2,13,Pin_13*%
%TO.N,Net-(J2-Pin_13)*%
X44450000Y17780000D03*
%TO.P,J2,14,Pin_14*%
%TO.N,Net-(J2-Pin_14)*%
X44450000Y22860000D03*
%TO.P,J2,15,Pin_15*%
%TO.N,GND_ISO*%
X44450000Y27940000D03*
%TO.P,J2,16,Pin_16*%
%TO.N,/0.DI*%
X44450000Y33020000D03*
%TO.P,J2,17,Pin_17*%
%TO.N,Net-(J2-Pin_17)*%
X44450000Y38100000D03*
%TO.P,J2,18,Pin_18*%
%TO.N,Net-(J2-Pin_18)*%
X44450000Y43180000D03*
%TD*%
D10*
%TO.P,K1,1,1*%
%TO.N,/K1*%
X14520000Y22860000D03*
%TO.P,K1,2,2*%
%TO.N,Net-(J2-Pin_13)*%
X26020000Y22860000D03*
%TO.P,K1,3,3*%
%TO.N,Net-(J2-Pin_14)*%
X33020000Y22860000D03*
%TO.P,K1,4,4*%
%TO.N,+5V*%
X14520000Y27560000D03*
%TD*%
D13*
%TO.P,PE1,1*%
%TO.N,/PE*%
X32000000Y-46000000D03*
%TD*%
D10*
%TO.P,K3,1,1*%
%TO.N,/K3*%
X14520000Y2540000D03*
%TO.P,K3,2,2*%
%TO.N,Net-(J2-Pin_5)*%
X26020000Y2540000D03*
%TO.P,K3,3,3*%
%TO.N,Net-(J2-Pin_6)*%
X33020000Y2540000D03*
%TO.P,K3,4,4*%
%TO.N,+5V*%
X14520000Y7240000D03*
%TD*%
D14*
%TO.P,JP3,1,A*%
%TO.N,Net-(JP3-A)*%
X19595000Y-25400000D03*
D15*
%TO.P,JP3,2,B*%
%TO.N,Net-(JP3-B)*%
X21045000Y-25400000D03*
%TD*%
D14*
%TO.P,JP1,1,A*%
%TO.N,Net-(JP1-A)*%
X19580000Y-20320000D03*
D15*
%TO.P,JP1,2,B*%
%TO.N,Net-(JP1-B)*%
X21030000Y-20320000D03*
%TD*%
D14*
%TO.P,JP2,1,A*%
%TO.N,Net-(JP2-A)*%
X19595000Y-22860000D03*
D15*
%TO.P,JP2,2,B*%
%TO.N,Net-(JP2-B)*%
X21045000Y-22860000D03*
%TD*%
D14*
%TO.P,JP4,1,A*%
%TO.N,Net-(JP4-A)*%
X19595000Y-27940000D03*
D15*
%TO.P,JP4,2,B*%
%TO.N,Net-(JP4-B)*%
X21045000Y-27940000D03*
%TD*%
D16*
%TO.N,GND*%
X-35560000Y-2540000D03*
X-33020000Y0D03*
X-35560000Y22860000D03*
X10795000Y-19685000D03*
X-33020000Y-2540000D03*
X-35560000Y0D03*
%TO.N,+3.3V*%
X-19117400Y22059400D03*
X-13235000Y-16176200D03*
%TO.N,+5V*%
X13052100Y-16176200D03*
%TO.N,/K3*%
X7154900Y24802100D03*
%TO.N,GND_ISO*%
X28194000Y-26162000D03*
%TO.N,/subplates/2.DI*%
X-36343900Y-21637900D03*
X-40951300Y25459500D03*
%TO.N,/subplates/1.DI*%
X-40628600Y27019000D03*
X-39724600Y-22077400D03*
%TO.N,/subplates/0.DI*%
X-33823400Y-16176200D03*
X-38561300Y25458300D03*
%TO.N,/subplates/3.DI*%
X-2026900Y-24944000D03*
X-1470200Y-7352600D03*
%TO.N,Net-(JP1-B)*%
X22530000Y-20829000D03*
%TO.N,Net-(JP1-A)*%
X18363800Y-20079000D03*
%TO.N,Net-(JP2-B)*%
X22500000Y-22329100D03*
%TO.N,Net-(JP2-A)*%
X17009000Y-22154300D03*
%TO.N,Net-(JP3-B)*%
X22501300Y-25038900D03*
%TO.N,Net-(JP3-A)*%
X19387400Y-24130000D03*
%TO.N,Net-(JP4-B)*%
X22500000Y-27840200D03*
%TO.N,Net-(JP4-A)*%
X18408800Y-27840200D03*
%TD*%
D17*
%TO.N,+3.3V*%
X-13235000Y16177000D02*
X-13235000Y-16176200D01*
X-19117400Y22059400D02*
X-13235000Y16177000D01*
%TO.N,+5V*%
X13414300Y18505700D02*
X13414300Y26454300D01*
X15640700Y28680700D02*
X15640700Y36599300D01*
X15640700Y6119300D02*
X15640700Y-13587600D01*
X15640700Y-13587600D02*
X13052100Y-16176200D01*
X14520000Y7240000D02*
X13354000Y8406000D01*
X13354000Y16234000D02*
X14520000Y17400000D01*
X14520000Y7240000D02*
X15640700Y6119300D01*
X13414300Y26454300D02*
X14520000Y27560000D01*
X14520000Y27560000D02*
X15640700Y28680700D01*
X13354000Y8406000D02*
X13354000Y16234000D01*
X14520000Y17400000D02*
X13414300Y18505700D01*
X15640700Y36599300D02*
X14520000Y37720000D01*
D18*
%TO.N,Net-(J2-Pin_18)*%
X33020000Y33020000D02*
X43180000Y43180000D01*
X43180000Y43180000D02*
X44450000Y43180000D01*
%TO.N,Net-(J2-Pin_13)*%
X26020000Y22860000D02*
X31100000Y17780000D01*
X31100000Y17780000D02*
X44450000Y17780000D01*
%TO.N,Net-(J2-Pin_9)*%
X29210000Y12700000D02*
X44450000Y-2540000D01*
X26020000Y12700000D02*
X29210000Y12700000D01*
%TO.N,Net-(J2-Pin_17)*%
X27824000Y31216000D02*
X37566000Y31216000D01*
X37566000Y31216000D02*
X44450000Y38100000D01*
X26020000Y33020000D02*
X27824000Y31216000D01*
%TO.N,Net-(J2-Pin_10)*%
X43180000Y2540000D02*
X44450000Y2540000D01*
X33020000Y12700000D02*
X43180000Y2540000D01*
%TO.N,Net-(J2-Pin_6)*%
X33020000Y-6350000D02*
X44450000Y-17780000D01*
X33020000Y2540000D02*
X33020000Y-6350000D01*
%TO.N,Net-(J2-Pin_14)*%
X33020000Y22860000D02*
X44450000Y22860000D01*
%TO.N,Net-(J2-Pin_5)*%
X26020000Y2540000D02*
X26020000Y-4430000D01*
X26020000Y-4430000D02*
X44450000Y-22860000D01*
D17*
%TO.N,/K3*%
X14520000Y2540000D02*
X7154900Y9905100D01*
X7154900Y9905100D02*
X7154900Y24802100D01*
%TO.N,/subplates/2.DI*%
X-36343900Y-21637900D02*
X-40951300Y-17030500D01*
X-40951300Y-17030500D02*
X-40951300Y25459500D01*
%TO.N,/subplates/1.DI*%
X-41589100Y-20212900D02*
X-41589100Y26058500D01*
X-39724600Y-22077400D02*
X-41589100Y-20212900D01*
X-41589100Y26058500D02*
X-40628600Y27019000D01*
%TO.N,/subplates/0.DI*%
X-33823400Y-16176200D02*
X-38561300Y-11438300D01*
X-38561300Y-11438300D02*
X-38561300Y25458300D01*
%TO.N,/subplates/3.DI*%
X-1470200Y-7352600D02*
X-1470200Y-24387300D01*
X-1470200Y-24387300D02*
X-2026900Y-24944000D01*
%TO.N,Net-(JP1-B)*%
X21030000Y-20320000D02*
X21831700Y-20320000D01*
X22340700Y-20829000D02*
X21831700Y-20320000D01*
X22530000Y-20829000D02*
X22340700Y-20829000D01*
%TO.N,Net-(JP1-A)*%
X19339000Y-20079000D02*
X19580000Y-20320000D01*
X18363800Y-20079000D02*
X19339000Y-20079000D01*
%TO.N,Net-(JP2-B)*%
X22302600Y-22329100D02*
X21771700Y-22860000D01*
X20970000Y-22860000D02*
X21771700Y-22860000D01*
X22500000Y-22329100D02*
X22302600Y-22329100D01*
%TO.N,Net-(JP2-A)*%
X17714700Y-22860000D02*
X17009000Y-22154300D01*
X19670000Y-22860000D02*
X17714700Y-22860000D01*
%TO.N,Net-(JP3-B)*%
X22132800Y-25038900D02*
X22501300Y-25038900D01*
X20970000Y-25400000D02*
X21771700Y-25400000D01*
X21771700Y-25400000D02*
X22132800Y-25038900D01*
%TO.N,Net-(JP3-A)*%
X19605700Y-24348300D02*
X19670000Y-24348300D01*
X19387400Y-24130000D02*
X19605700Y-24348300D01*
X19670000Y-25400000D02*
X19670000Y-24348300D01*
%TO.N,Net-(JP4-B)*%
X20970000Y-27940000D02*
X21771700Y-27940000D01*
X21871500Y-27840200D02*
X21771700Y-27940000D01*
X22500000Y-27840200D02*
X21871500Y-27840200D01*
%TO.N,Net-(JP4-A)*%
X19670000Y-27940000D02*
X18868300Y-27940000D01*
X18408800Y-27840200D02*
X18768500Y-27840200D01*
X18768500Y-27840200D02*
X18868300Y-27940000D01*
%TD*%
%TA.AperFunction,Conductor*%
%TO.N,GND*%
G36*
X-40893078Y49398720D02*
G01*
X-40802734Y49388541D01*
X-40775669Y49382364D01*
X-40696460Y49354648D01*
X-40671447Y49342602D01*
X-40600394Y49297957D01*
X-40578687Y49280645D01*
X-40519356Y49221314D01*
X-40502043Y49199605D01*
X-40457400Y49128556D01*
X-40445352Y49103538D01*
X-40417638Y49024334D01*
X-40411460Y48997265D01*
X-40401280Y48906924D01*
X-40400500Y48893039D01*
X-40400500Y48792683D01*
X-40369956Y48580236D01*
X-40369953Y48580226D01*
X-40309483Y48374285D01*
X-40220328Y48179062D01*
X-40220321Y48179049D01*
X-40104280Y47998486D01*
X-39963725Y47836276D01*
X-39839723Y47728828D01*
X-39801513Y47695719D01*
X-39672469Y47612789D01*
X-39620952Y47579680D01*
X-39620939Y47579673D01*
X-39425716Y47490518D01*
X-39425712Y47490517D01*
X-39425710Y47490516D01*
X-39219769Y47430046D01*
X-39219768Y47430046D01*
X-39219765Y47430045D01*
X-39156416Y47420938D01*
X-39007318Y47399500D01*
X-39007317Y47399500D01*
X18926000Y47399500D01*
X18993039Y47379815D01*
X19038794Y47327011D01*
X19050000Y47275500D01*
X19050000Y-18964505D01*
X19030315Y-19031544D01*
X18977511Y-19077299D01*
X18960936Y-19083482D01*
X18870005Y-19110182D01*
X18748969Y-19187967D01*
X18748969Y-19187968D01*
X18685964Y-19260678D01*
X18627185Y-19298452D01*
X18557316Y-19298451D01*
X18551304Y-19296518D01*
X18543056Y-19293632D01*
X18543046Y-19293630D01*
X18363804Y-19273435D01*
X18363796Y-19273435D01*
X18184550Y-19293630D01*
X18184545Y-19293631D01*
X18014276Y-19353211D01*
X17861537Y-19449184D01*
X17733984Y-19576737D01*
X17638011Y-19729476D01*
X17578431Y-19899745D01*
X17578430Y-19899750D01*
X17558235Y-20078996D01*
X17558235Y-20079003D01*
X17578430Y-20258249D01*
X17578431Y-20258254D01*
X17638011Y-20428523D01*
X17733984Y-20581262D01*
X17861538Y-20708816D01*
X18014278Y-20804789D01*
X18184545Y-20864368D01*
X18184550Y-20864369D01*
X18363796Y-20884565D01*
X18363800Y-20884565D01*
X18363804Y-20884565D01*
X18436617Y-20876361D01*
X18505438Y-20888415D01*
X18556818Y-20935765D01*
X18574500Y-20999581D01*
X18574500Y-21070002D01*
X18579644Y-21141940D01*
X18620182Y-21279994D01*
X18697967Y-21401030D01*
X18697971Y-21401034D01*
X18813408Y-21501062D01*
X18811990Y-21502697D01*
X18849829Y-21546366D01*
X18859773Y-21615524D01*
X18830749Y-21679080D01*
X18804075Y-21702193D01*
X18763970Y-21727967D01*
X18763965Y-21727971D01*
X18669750Y-21836700D01*
X18669744Y-21836709D01*
X18609976Y-21967580D01*
X18609975Y-21967585D01*
X18589500Y-22109999D01*
X18589500Y-22135500D01*
X18569815Y-22202539D01*
X18517011Y-22248294D01*
X18465500Y-22259500D01*
X18014799Y-22259500D01*
X17947760Y-22239815D01*
X17927118Y-22223182D01*
X17839700Y-22135765D01*
X17806215Y-22074442D01*
X17804162Y-22061983D01*
X17794368Y-21975045D01*
X17734789Y-21804778D01*
X17638816Y-21652038D01*
X17511262Y-21524484D01*
X17464743Y-21495254D01*
X17358523Y-21428511D01*
X17188254Y-21368931D01*
X17188249Y-21368930D01*
X17009004Y-21348735D01*
X17008996Y-21348735D01*
X16829750Y-21368930D01*
X16829745Y-21368931D01*
X16659476Y-21428511D01*
X16506737Y-21524484D01*
X16379184Y-21652037D01*
X16283211Y-21804776D01*
X16223631Y-21975045D01*
X16223630Y-21975050D01*
X16203435Y-22154296D01*
X16203435Y-22154303D01*
X16223630Y-22333549D01*
X16223631Y-22333554D01*
X16283211Y-22503823D01*
X16330825Y-22579599D01*
X16379184Y-22656562D01*
X16506738Y-22784116D01*
X16659478Y-22880089D01*
X16829745Y-22939668D01*
X16916669Y-22949461D01*
X16981080Y-22976526D01*
X16990464Y-22984999D01*
X17345984Y-23340520D01*
X17345986Y-23340521D01*
X17345990Y-23340524D01*
X17482909Y-23419573D01*
X17482916Y-23419577D01*
X17635643Y-23460501D01*
X17635645Y-23460501D01*
X17801354Y-23460501D01*
X17801370Y-23460500D01*
X18465500Y-23460500D01*
X18532539Y-23480185D01*
X18578294Y-23532989D01*
X18589500Y-23584500D01*
X18589500Y-23610002D01*
X18594645Y-23681941D01*
X18629698Y-23801319D01*
X18629698Y-23871188D01*
X18627763Y-23877208D01*
X18602031Y-23950747D01*
X18581835Y-24129996D01*
X18581835Y-24130003D01*
X18602031Y-24309252D01*
X18628294Y-24384308D01*
X18631855Y-24454086D01*
X18624047Y-24476772D01*
X18609975Y-24507584D01*
X18589500Y-24649999D01*
X18589500Y-26150002D01*
X18594644Y-26221940D01*
X18635182Y-26359994D01*
X18712967Y-26481030D01*
X18712968Y-26481031D01*
X18712969Y-26481032D01*
X18821706Y-26575254D01*
X18821708Y-26575254D01*
X18826134Y-26579090D01*
X18863908Y-26637869D01*
X18863908Y-26707738D01*
X18826133Y-26766516D01*
X18811972Y-26777118D01*
X18763967Y-26807969D01*
X18763965Y-26807971D01*
X18669750Y-26916700D01*
X18669745Y-26916708D01*
X18643099Y-26975053D01*
X18597343Y-27027856D01*
X18530303Y-27047540D01*
X18516422Y-27046760D01*
X18408804Y-27034635D01*
X18408796Y-27034635D01*
X18229550Y-27054830D01*
X18229545Y-27054831D01*
X18059276Y-27114411D01*
X17906537Y-27210384D01*
X17778984Y-27337937D01*
X17683011Y-27490676D01*
X17623431Y-27660945D01*
X17623430Y-27660950D01*
X17603235Y-27840196D01*
X17603235Y-27840203D01*
X17623430Y-28019449D01*
X17623431Y-28019454D01*
X17683011Y-28189723D01*
X17778984Y-28342462D01*
X17906538Y-28470016D01*
X18059278Y-28565989D01*
X18228099Y-28625062D01*
X18229545Y-28625568D01*
X18229550Y-28625569D01*
X18408796Y-28645765D01*
X18408800Y-28645765D01*
X18408801Y-28645765D01*
X18416740Y-28644870D01*
X18456563Y-28640383D01*
X18525384Y-28652437D01*
X18576764Y-28699785D01*
X18594131Y-28754756D01*
X18594644Y-28761940D01*
X18635182Y-28899994D01*
X18712967Y-29021030D01*
X18712969Y-29021032D01*
X18821706Y-29115254D01*
X18880289Y-29142008D01*
X18952583Y-29175024D01*
X18960931Y-29177475D01*
X19019711Y-29215247D01*
X19048737Y-29278802D01*
X19050000Y-29296453D01*
X19050000Y-47275500D01*
X19030315Y-47342539D01*
X18977511Y-47388294D01*
X18926000Y-47399500D01*
X-39007318Y-47399500D01*
X-39219765Y-47430044D01*
X-39219775Y-47430047D01*
X-39425716Y-47490517D01*
X-39620939Y-47579672D01*
X-39620952Y-47579679D01*
X-39801515Y-47695720D01*
X-39963725Y-47836275D01*
X-40104280Y-47998485D01*
X-40220321Y-48179048D01*
X-40220328Y-48179061D01*
X-40309483Y-48374284D01*
X-40369953Y-48580225D01*
X-40369956Y-48580235D01*
X-40400500Y-48792682D01*
X-40400500Y-48893038D01*
X-40401280Y-48906923D01*
X-40411460Y-48997264D01*
X-40417638Y-49024333D01*
X-40445352Y-49103537D01*
X-40457400Y-49128555D01*
X-40502043Y-49199604D01*
X-40519356Y-49221313D01*
X-40578687Y-49280644D01*
X-40600396Y-49297957D01*
X-40671445Y-49342600D01*
X-40696463Y-49354648D01*
X-40775667Y-49382362D01*
X-40802736Y-49388540D01*
X-40882925Y-49397576D01*
X-40893079Y-49398720D01*
X-40906962Y-49399500D01*
X-48893038Y-49399500D01*
X-48906922Y-49398720D01*
X-48919447Y-49397308D01*
X-48997265Y-49388540D01*
X-49024334Y-49382362D01*
X-49103538Y-49354648D01*
X-49128556Y-49342600D01*
X-49199605Y-49297957D01*
X-49221314Y-49280644D01*
X-49280645Y-49221313D01*
X-49297958Y-49199604D01*
X-49342601Y-49128555D01*
X-49354649Y-49103537D01*
X-49382363Y-49024333D01*
X-49388541Y-48997263D01*
X-49398720Y-48906922D01*
X-49399500Y-48893038D01*
X-49399500Y-46000000D01*
X-48105408Y-46000000D01*
X-48085799Y-46286680D01*
X-48085799Y-46286684D01*
X-48085798Y-46286686D01*
X-48064016Y-46391509D01*
X-48027334Y-46568034D01*
X-48027333Y-46568037D01*
X-47931106Y-46838793D01*
X-47931107Y-46838793D01*
X-47798902Y-47093935D01*
X-47633188Y-47328700D01*
X-47548077Y-47419831D01*
X-47437053Y-47538708D01*
X-47214147Y-47720055D01*
X-47023031Y-47836276D01*
X-46968618Y-47869365D01*
X-46781763Y-47950526D01*
X-46705058Y-47983844D01*
X-46428358Y-48061371D01*
X-46196890Y-48093186D01*
X-46143679Y-48100500D01*
X-46143678Y-48100500D01*
X-45856321Y-48100500D01*
X-45803110Y-48093186D01*
X-45571642Y-48061371D01*
X-45294942Y-47983844D01*
X-45181985Y-47934779D01*
X-45031383Y-47869365D01*
X-45031380Y-47869363D01*
X-45031375Y-47869361D01*
X-44785853Y-47720055D01*
X-44562947Y-47538708D01*
X-44366811Y-47328698D01*
X-44201099Y-47093936D01*
X-44068896Y-46838797D01*
X-43972666Y-46568032D01*
X-43914202Y-46286686D01*
X-43894592Y-46000000D01*
X-43914202Y-45713314D01*
X-43972666Y-45431968D01*
X-44068895Y-45161206D01*
X-44068894Y-45161206D01*
X-44152425Y-45000000D01*
X-12605449Y-45000000D01*
X-12585683Y-45251151D01*
X-12526874Y-45496110D01*
X-12430467Y-45728859D01*
X-12298840Y-45943653D01*
X-12298839Y-45943656D01*
X-12298836Y-45943659D01*
X-12135224Y-46135224D01*
X-11986934Y-46261875D01*
X-11943657Y-46298838D01*
X-11943654Y-46298839D01*
X-11728860Y-46430466D01*
X-11496111Y-46526873D01*
X-11251148Y-46585683D01*
X-11000000Y-46605449D01*
X-10748852Y-46585683D01*
X-10503889Y-46526873D01*
X-10271141Y-46430466D01*
X-10056341Y-46298836D01*
X-9864776Y-46135224D01*
X-9701164Y-45943659D01*
X-9569534Y-45728859D01*
X-9473127Y-45496111D01*
X-9414317Y-45251148D01*
X-9394551Y-45000000D01*
X-9414317Y-44748852D01*
X-9473127Y-44503889D01*
X-9565887Y-44279945D01*
X-9569534Y-44271140D01*
X-9701161Y-44056346D01*
X-9701162Y-44056343D01*
X-9801700Y-43938629D01*
X-9864776Y-43864776D01*
X-9991429Y-43756604D01*
X-10056344Y-43701161D01*
X-10056347Y-43701160D01*
X-10271141Y-43569533D01*
X-10503890Y-43473126D01*
X-10748849Y-43414317D01*
X-11000000Y-43394551D01*
X-11251152Y-43414317D01*
X-11496111Y-43473126D01*
X-11728860Y-43569533D01*
X-11943654Y-43701160D01*
X-11943657Y-43701161D01*
X-12135224Y-43864776D01*
X-12298839Y-44056343D01*
X-12298840Y-44056346D01*
X-12430467Y-44271140D01*
X-12526874Y-44503889D01*
X-12585683Y-44748848D01*
X-12605449Y-45000000D01*
X-44152425Y-45000000D01*
X-44201099Y-44906064D01*
X-44366813Y-44671299D01*
X-44455734Y-44576089D01*
X-44562947Y-44461292D01*
X-44785853Y-44279945D01*
X-44785854Y-44279944D01*
X-45031383Y-44130634D01*
X-45294937Y-44016158D01*
X-45294939Y-44016157D01*
X-45294942Y-44016156D01*
X-45424422Y-43979877D01*
X-45571636Y-43938630D01*
X-45571641Y-43938629D01*
X-45571642Y-43938629D01*
X-45713982Y-43919064D01*
X-45856321Y-43899500D01*
X-45856322Y-43899500D01*
X-46143678Y-43899500D01*
X-46143679Y-43899500D01*
X-46428358Y-43938629D01*
X-46428365Y-43938630D01*
X-46636139Y-43996845D01*
X-46705058Y-44016156D01*
X-46705061Y-44016156D01*
X-46705064Y-44016158D01*
X-46705065Y-44016158D01*
X-46968618Y-44130634D01*
X-47214147Y-44279944D01*
X-47437050Y-44461289D01*
X-47633188Y-44671299D01*
X-47798902Y-44906064D01*
X-47931106Y-45161206D01*
X-48027333Y-45431962D01*
X-48027334Y-45431965D01*
X-48085799Y-45713319D01*
X-48105408Y-46000000D01*
X-49399500Y-46000000D01*
X-49399500Y-39000000D01*
X-48605449Y-39000000D01*
X-48585683Y-39251151D01*
X-48526874Y-39496110D01*
X-48430467Y-39728859D01*
X-48298840Y-39943653D01*
X-48298839Y-39943656D01*
X-48298836Y-39943659D01*
X-48135224Y-40135224D01*
X-47986934Y-40261875D01*
X-47943657Y-40298838D01*
X-47943654Y-40298839D01*
X-47728860Y-40430466D01*
X-47496111Y-40526873D01*
X-47251148Y-40585683D01*
X-47000000Y-40605449D01*
X-46748852Y-40585683D01*
X-46503889Y-40526873D01*
X-46271141Y-40430466D01*
X-46056341Y-40298836D01*
X-45864776Y-40135224D01*
X-45701164Y-39943659D01*
X-45569534Y-39728859D01*
X-45473127Y-39496111D01*
X-45414317Y-39251148D01*
X-45394551Y-39000000D01*
X-45414317Y-38748852D01*
X-45473127Y-38503889D01*
X-45569534Y-38271141D01*
X-45569534Y-38271140D01*
X-45701161Y-38056346D01*
X-45701162Y-38056343D01*
X-45738125Y-38013066D01*
X-45864776Y-37864776D01*
X-45991429Y-37756604D01*
X-46056344Y-37701161D01*
X-46056347Y-37701160D01*
X-46271141Y-37569533D01*
X-46503890Y-37473126D01*
X-46748849Y-37414317D01*
X-47000000Y-37394551D01*
X-47251152Y-37414317D01*
X-47496111Y-37473126D01*
X-47728860Y-37569533D01*
X-47943654Y-37701160D01*
X-47943657Y-37701161D01*
X-48135224Y-37864776D01*
X-48298839Y-38056343D01*
X-48298840Y-38056346D01*
X-48430467Y-38271140D01*
X-48526874Y-38503889D01*
X-48585683Y-38748848D01*
X-48605449Y-39000000D01*
X-49399500Y-39000000D01*
X-49399500Y-24943996D01*
X-2832465Y-24943996D01*
X-2832465Y-24944003D01*
X-2812270Y-25123249D01*
X-2812269Y-25123254D01*
X-2752689Y-25293523D01*
X-2691122Y-25391506D01*
X-2656716Y-25446262D01*
X-2529162Y-25573816D01*
X-2376422Y-25669789D01*
X-2206155Y-25729368D01*
X-2206150Y-25729369D01*
X-2026904Y-25749565D01*
X-2026900Y-25749565D01*
X-2026896Y-25749565D01*
X-1847651Y-25729369D01*
X-1847648Y-25729368D01*
X-1847645Y-25729368D01*
X-1677378Y-25669789D01*
X-1524638Y-25573816D01*
X-1397084Y-25446262D01*
X-1301111Y-25293522D01*
X-1241532Y-25123255D01*
X-1231739Y-25036329D01*
X-1204674Y-24971919D01*
X-1196212Y-24962545D01*
X-989680Y-24756016D01*
X-910623Y-24619084D01*
X-869699Y-24466357D01*
X-869699Y-24308242D01*
X-869699Y-24300647D01*
X-869700Y-24300629D01*
X-869700Y-7935012D01*
X-850015Y-7867973D01*
X-842645Y-7857697D01*
X-840390Y-7854867D01*
X-840384Y-7854862D01*
X-744411Y-7702122D01*
X-684832Y-7531855D01*
X-664635Y-7352600D01*
X-684832Y-7173345D01*
X-744411Y-7003078D01*
X-840384Y-6850338D01*
X-967938Y-6722784D01*
X-1120677Y-6626811D01*
X-1290946Y-6567231D01*
X-1290951Y-6567230D01*
X-1470196Y-6547035D01*
X-1470204Y-6547035D01*
X-1649450Y-6567230D01*
X-1649455Y-6567231D01*
X-1819724Y-6626811D01*
X-1972463Y-6722784D01*
X-2100016Y-6850337D01*
X-2195989Y-7003076D01*
X-2255569Y-7173345D01*
X-2255570Y-7173350D01*
X-2275765Y-7352596D01*
X-2275765Y-7352603D01*
X-2255570Y-7531849D01*
X-2255569Y-7531854D01*
X-2195989Y-7702123D01*
X-2100015Y-7854863D01*
X-2097755Y-7857697D01*
X-2096866Y-7859875D01*
X-2096311Y-7860758D01*
X-2096466Y-7860855D01*
X-2071345Y-7922383D01*
X-2070700Y-7935012D01*
X-2070700Y-24032556D01*
X-2090385Y-24099595D01*
X-2143189Y-24145350D01*
X-2180815Y-24155776D01*
X-2206150Y-24158630D01*
X-2376422Y-24218210D01*
X-2529163Y-24314184D01*
X-2656716Y-24441737D01*
X-2752689Y-24594476D01*
X-2812269Y-24764745D01*
X-2812270Y-24764750D01*
X-2832465Y-24943996D01*
X-49399500Y-24943996D01*
X-49399500Y-20291954D01*
X-42189602Y-20291954D01*
X-42148677Y-20444685D01*
X-42119742Y-20494800D01*
X-42119741Y-20494804D01*
X-42119740Y-20494804D01*
X-42069621Y-20581614D01*
X-42069619Y-20581617D01*
X-41950751Y-20700485D01*
X-41950745Y-20700490D01*
X-40555302Y-22095933D01*
X-40521817Y-22157256D01*
X-40519763Y-22169730D01*
X-40509970Y-22256649D01*
X-40450390Y-22426921D01*
X-40402069Y-22503823D01*
X-40354416Y-22579662D01*
X-40226862Y-22707216D01*
X-40223300Y-22709454D01*
X-40104477Y-22784116D01*
X-40074122Y-22803189D01*
X-39936040Y-22851506D01*
X-39903855Y-22862768D01*
X-39903850Y-22862769D01*
X-39724604Y-22882965D01*
X-39724600Y-22882965D01*
X-39724596Y-22882965D01*
X-39545351Y-22862769D01*
X-39545348Y-22862768D01*
X-39545345Y-22862768D01*
X-39375078Y-22803189D01*
X-39222338Y-22707216D01*
X-39094784Y-22579662D01*
X-38998811Y-22426922D01*
X-38939232Y-22256655D01*
X-38938290Y-22248294D01*
X-38919035Y-22077403D01*
X-38919035Y-22077396D01*
X-38939231Y-21898150D01*
X-38939232Y-21898145D01*
X-38960729Y-21836709D01*
X-38998811Y-21727878D01*
X-39094784Y-21575138D01*
X-39222338Y-21447584D01*
X-39296428Y-21401030D01*
X-39375079Y-21351610D01*
X-39545351Y-21292030D01*
X-39632270Y-21282237D01*
X-39696684Y-21255170D01*
X-39706067Y-21246698D01*
X-40952281Y-20000484D01*
X-40985766Y-19939161D01*
X-40988600Y-19912803D01*
X-40988600Y-18141797D01*
X-40968915Y-18074758D01*
X-40916111Y-18029003D01*
X-40846953Y-18019059D01*
X-40783397Y-18048084D01*
X-40776919Y-18054116D01*
X-37174602Y-21656434D01*
X-37141117Y-21717757D01*
X-37139063Y-21730231D01*
X-37129270Y-21817149D01*
X-37069690Y-21987421D01*
X-37015011Y-22074442D01*
X-36973716Y-22140162D01*
X-36846162Y-22267716D01*
X-36755820Y-22324482D01*
X-36741390Y-22333549D01*
X-36693422Y-22363689D01*
X-36523155Y-22423268D01*
X-36523150Y-22423269D01*
X-36343904Y-22443465D01*
X-36343900Y-22443465D01*
X-36343896Y-22443465D01*
X-36164651Y-22423269D01*
X-36164648Y-22423268D01*
X-36164645Y-22423268D01*
X-35994378Y-22363689D01*
X-35841638Y-22267716D01*
X-35714084Y-22140162D01*
X-35618111Y-21987422D01*
X-35558532Y-21817155D01*
X-35548473Y-21727878D01*
X-35538335Y-21637903D01*
X-35538335Y-21637896D01*
X-35558531Y-21458650D01*
X-35558532Y-21458645D01*
X-35596991Y-21348735D01*
X-35618111Y-21288378D01*
X-35621970Y-21282237D01*
X-35657318Y-21225980D01*
X-35714084Y-21135638D01*
X-35841638Y-21008084D01*
X-35855170Y-20999581D01*
X-35994379Y-20912110D01*
X-36142051Y-20860438D01*
X-36164645Y-20852532D01*
X-36164646Y-20852531D01*
X-36164651Y-20852530D01*
X-36251569Y-20842737D01*
X-36315983Y-20815670D01*
X-36325366Y-20807198D01*
X-40314481Y-16818083D01*
X-40347966Y-16756760D01*
X-40350800Y-16730402D01*
X-40350800Y24877088D01*
X-40331115Y24944127D01*
X-40323745Y24954403D01*
X-40321490Y24957233D01*
X-40321484Y24957238D01*
X-40225511Y25109978D01*
X-40165932Y25280245D01*
X-40165931Y25280251D01*
X-40145869Y25458304D01*
X-39366865Y25458304D01*
X-39366865Y25458297D01*
X-39346670Y25279051D01*
X-39346669Y25279046D01*
X-39287089Y25108777D01*
X-39226785Y25012804D01*
X-39207021Y24981350D01*
X-39191115Y24956037D01*
X-39188855Y24953203D01*
X-39187966Y24951025D01*
X-39187411Y24950142D01*
X-39187566Y24950045D01*
X-39162445Y24888517D01*
X-39161800Y24875888D01*
X-39161800Y-11351630D01*
X-39161801Y-11351648D01*
X-39161801Y-11517354D01*
X-39161802Y-11517354D01*
X-39120877Y-11670085D01*
X-39091942Y-11720200D01*
X-39091941Y-11720204D01*
X-39091940Y-11720204D01*
X-39041821Y-11807014D01*
X-39041819Y-11807017D01*
X-38922951Y-11925885D01*
X-38922945Y-11925890D01*
X-34654102Y-16194733D01*
X-34620617Y-16256056D01*
X-34618563Y-16268530D01*
X-34608770Y-16355449D01*
X-34549190Y-16525721D01*
X-34453216Y-16678462D01*
X-34325662Y-16806016D01*
X-34172922Y-16901989D01*
X-34002655Y-16961568D01*
X-34002650Y-16961569D01*
X-33823404Y-16981765D01*
X-33823400Y-16981765D01*
X-33823396Y-16981765D01*
X-33644151Y-16961569D01*
X-33644148Y-16961568D01*
X-33644145Y-16961568D01*
X-33473878Y-16901989D01*
X-33321138Y-16806016D01*
X-33193584Y-16678462D01*
X-33097611Y-16525722D01*
X-33038032Y-16355455D01*
X-33028238Y-16268530D01*
X-33017835Y-16176203D01*
X-33017835Y-16176196D01*
X-33038031Y-15996950D01*
X-33038032Y-15996945D01*
X-33097612Y-15826676D01*
X-33193585Y-15673937D01*
X-33321138Y-15546384D01*
X-33473879Y-15450410D01*
X-33644151Y-15390830D01*
X-33731070Y-15381037D01*
X-33795484Y-15353970D01*
X-33804867Y-15345498D01*
X-37924481Y-11225884D01*
X-37957966Y-11164561D01*
X-37960800Y-11138203D01*
X-37960800Y22059404D01*
X-19922965Y22059404D01*
X-19922965Y22059397D01*
X-19902770Y21880151D01*
X-19902769Y21880146D01*
X-19843189Y21709877D01*
X-19777911Y21605988D01*
X-19747216Y21557138D01*
X-19619662Y21429584D01*
X-19466922Y21333611D01*
X-19296655Y21274032D01*
X-19209731Y21264239D01*
X-19145320Y21237174D01*
X-19135935Y21228700D01*
X-13871819Y15964584D01*
X-13838334Y15903261D01*
X-13835500Y15876903D01*
X-13835500Y-15593787D01*
X-13855185Y-15660826D01*
X-13862550Y-15671096D01*
X-13864814Y-15673934D01*
X-13960789Y-15826676D01*
X-14020369Y-15996945D01*
X-14020370Y-15996950D01*
X-14040565Y-16176196D01*
X-14040565Y-16176203D01*
X-14020370Y-16355449D01*
X-14020369Y-16355454D01*
X-13960789Y-16525723D01*
X-13864816Y-16678462D01*
X-13737262Y-16806016D01*
X-13584522Y-16901989D01*
X-13414255Y-16961568D01*
X-13414250Y-16961569D01*
X-13235004Y-16981765D01*
X-13235000Y-16981765D01*
X-13234996Y-16981765D01*
X-13055751Y-16961569D01*
X-13055748Y-16961568D01*
X-13055745Y-16961568D01*
X-12885478Y-16901989D01*
X-12732738Y-16806016D01*
X-12605184Y-16678462D01*
X-12509211Y-16525722D01*
X-12449632Y-16355455D01*
X-12439838Y-16268530D01*
X-12429435Y-16176203D01*
X-12429435Y-16176196D01*
X-12449631Y-15996950D01*
X-12449632Y-15996945D01*
X-12509212Y-15826676D01*
X-12605187Y-15673934D01*
X-12607450Y-15671096D01*
X-12608341Y-15668915D01*
X-12608889Y-15668042D01*
X-12608736Y-15667945D01*
X-12633856Y-15606409D01*
X-12634500Y-15593787D01*
X-12634500Y16087941D01*
X-12634499Y16087954D01*
X-12634499Y16256055D01*
X-12634499Y16256057D01*
X-12675423Y16408785D01*
X-12708332Y16465785D01*
X-12708332Y16465786D01*
X-12754476Y16545710D01*
X-12754479Y16545714D01*
X-12754480Y16545716D01*
X-12866284Y16657520D01*
X-12866285Y16657521D01*
X-12870615Y16661851D01*
X-12870626Y16661861D01*
X-18286700Y22077935D01*
X-18320185Y22139258D01*
X-18322237Y22151714D01*
X-18332032Y22238655D01*
X-18391611Y22408922D01*
X-18487584Y22561662D01*
X-18615138Y22689216D01*
X-18767877Y22785189D01*
X-18938146Y22844769D01*
X-18938151Y22844770D01*
X-19117396Y22864965D01*
X-19117404Y22864965D01*
X-19296650Y22844770D01*
X-19296655Y22844769D01*
X-19466924Y22785189D01*
X-19619663Y22689216D01*
X-19747216Y22561663D01*
X-19843189Y22408924D01*
X-19902769Y22238655D01*
X-19902770Y22238650D01*
X-19922965Y22059404D01*
X-37960800Y22059404D01*
X-37960800Y24802104D01*
X6349335Y24802104D01*
X6349335Y24802097D01*
X6369530Y24622851D01*
X6369531Y24622846D01*
X6429111Y24452577D01*
X6525085Y24299837D01*
X6527345Y24297003D01*
X6528234Y24294825D01*
X6528789Y24293942D01*
X6528634Y24293845D01*
X6553755Y24232317D01*
X6554400Y24219688D01*
X6554400Y9991770D01*
X6554399Y9991752D01*
X6554399Y9826046D01*
X6554398Y9826046D01*
X6595323Y9673315D01*
X6624258Y9623200D01*
X6624259Y9623196D01*
X6624260Y9623196D01*
X6674379Y9536386D01*
X6674381Y9536383D01*
X6793249Y9417515D01*
X6793255Y9417510D01*
X13224792Y2985973D01*
X13258277Y2924650D01*
X13256886Y2866200D01*
X13230413Y2767398D01*
X13230410Y2767384D01*
X13210517Y2540002D01*
X13210517Y2539999D01*
X13230410Y2312617D01*
X13230412Y2312606D01*
X13289485Y2092138D01*
X13289487Y2092134D01*
X13289488Y2092130D01*
X13337721Y1988694D01*
X13385953Y1885259D01*
X13385955Y1885255D01*
X13516872Y1698288D01*
X13516881Y1698278D01*
X13678277Y1536882D01*
X13678287Y1536873D01*
X13865254Y1405956D01*
X13865258Y1405954D01*
X14072130Y1309488D01*
X14292611Y1250411D01*
X14455031Y1236201D01*
X14519998Y1230517D01*
X14520000Y1230517D01*
X14520002Y1230517D01*
X14576847Y1235491D01*
X14747389Y1250411D01*
X14884107Y1287044D01*
X14953957Y1285381D01*
X15011819Y1246218D01*
X15039323Y1181990D01*
X15040200Y1167269D01*
X15040200Y-13287502D01*
X15020515Y-13354541D01*
X15003881Y-13375183D01*
X13033565Y-15345498D01*
X12972242Y-15378983D01*
X12959768Y-15381037D01*
X12872850Y-15390830D01*
X12702578Y-15450410D01*
X12549837Y-15546384D01*
X12422284Y-15673937D01*
X12326311Y-15826676D01*
X12266731Y-15996945D01*
X12266730Y-15996950D01*
X12246535Y-16176196D01*
X12246535Y-16176203D01*
X12266730Y-16355449D01*
X12266731Y-16355454D01*
X12326311Y-16525723D01*
X12422284Y-16678462D01*
X12549838Y-16806016D01*
X12702578Y-16901989D01*
X12872845Y-16961568D01*
X12872850Y-16961569D01*
X13052096Y-16981765D01*
X13052100Y-16981765D01*
X13052104Y-16981765D01*
X13231349Y-16961569D01*
X13231352Y-16961568D01*
X13231355Y-16961568D01*
X13401622Y-16901989D01*
X13554362Y-16806016D01*
X13681916Y-16678462D01*
X13777889Y-16525722D01*
X13837468Y-16355455D01*
X13847261Y-16268529D01*
X13874326Y-16204118D01*
X13882790Y-16194743D01*
X16009413Y-14068121D01*
X16009416Y-14068120D01*
X16121220Y-13956316D01*
X16171339Y-13869504D01*
X16200277Y-13819385D01*
X16241200Y-13666658D01*
X16241200Y-13508543D01*
X16241200Y6198357D01*
X16200277Y6351084D01*
X16200277Y6351085D01*
X16158166Y6424023D01*
X16121220Y6488016D01*
X16009416Y6599820D01*
X16009415Y6599821D01*
X16005085Y6604151D01*
X16005074Y6604161D01*
X15815207Y6794028D01*
X15781722Y6855351D01*
X15783113Y6913803D01*
X15809589Y7012611D01*
X15829483Y7240000D01*
X15809589Y7467389D01*
X15750512Y7687870D01*
X15654046Y7894741D01*
X15654044Y7894745D01*
X15523121Y8081720D01*
X15361722Y8243119D01*
X15361712Y8243128D01*
X15174745Y8374045D01*
X15174741Y8374047D01*
X15071306Y8422279D01*
X14967870Y8470512D01*
X14967866Y8470513D01*
X14967862Y8470515D01*
X14747394Y8529588D01*
X14747390Y8529589D01*
X14747389Y8529589D01*
X14747388Y8529590D01*
X14747383Y8529590D01*
X14520002Y8549483D01*
X14519998Y8549483D01*
X14292616Y8529590D01*
X14292602Y8529587D01*
X14193800Y8503114D01*
X14123950Y8504777D01*
X14074027Y8535208D01*
X13990819Y8618416D01*
X13957334Y8679739D01*
X13954500Y8706097D01*
X13954500Y11339407D01*
X13974185Y11406446D01*
X14026989Y11452201D01*
X14096147Y11462145D01*
X14110592Y11459183D01*
X14292611Y11410411D01*
X14455031Y11396201D01*
X14519998Y11390517D01*
X14520000Y11390517D01*
X14520002Y11390517D01*
X14576847Y11395491D01*
X14747389Y11410411D01*
X14967870Y11469488D01*
X15174742Y11565954D01*
X15361719Y11696878D01*
X15523122Y11858281D01*
X15654046Y12045258D01*
X15750512Y12252130D01*
X15809589Y12472611D01*
X15829483Y12700000D01*
X15809589Y12927389D01*
X15750512Y13147870D01*
X15654046Y13354741D01*
X15654044Y13354745D01*
X15523121Y13541720D01*
X15361722Y13703119D01*
X15361712Y13703128D01*
X15174745Y13834045D01*
X15174741Y13834047D01*
X15071306Y13882279D01*
X14967870Y13930512D01*
X14967866Y13930513D01*
X14967862Y13930515D01*
X14747394Y13989588D01*
X14747390Y13989589D01*
X14747389Y13989589D01*
X14747388Y13989590D01*
X14747383Y13989590D01*
X14520002Y14009483D01*
X14519998Y14009483D01*
X14292616Y13989590D01*
X14292605Y13989588D01*
X14110593Y13940819D01*
X14040743Y13942482D01*
X13982880Y13981645D01*
X13955377Y14045874D01*
X13954500Y14060594D01*
X13954500Y15933904D01*
X13974185Y16000943D01*
X13990815Y16021581D01*
X14074027Y16104794D01*
X14135350Y16138278D01*
X14193801Y16136887D01*
X14292611Y16110411D01*
X14455031Y16096201D01*
X14519998Y16090517D01*
X14520000Y16090517D01*
X14520002Y16090517D01*
X14576847Y16095491D01*
X14747389Y16110411D01*
X14967870Y16169488D01*
X15174742Y16265954D01*
X15242012Y16313057D01*
X15361712Y16396873D01*
X15361712Y16396874D01*
X15361719Y16396878D01*
X15523122Y16558281D01*
X15554236Y16602716D01*
X15654044Y16745255D01*
X15654046Y16745259D01*
X15750512Y16952130D01*
X15809589Y17172611D01*
X15829483Y17400000D01*
X15809589Y17627389D01*
X15750512Y17847870D01*
X15654046Y18054741D01*
X15654044Y18054745D01*
X15523121Y18241720D01*
X15361722Y18403119D01*
X15361712Y18403128D01*
X15174745Y18534045D01*
X15174741Y18534047D01*
X15049666Y18592370D01*
X14967870Y18630512D01*
X14967866Y18630513D01*
X14967862Y18630515D01*
X14747394Y18689588D01*
X14747390Y18689589D01*
X14747389Y18689589D01*
X14747388Y18689590D01*
X14747383Y18689590D01*
X14520002Y18709483D01*
X14519998Y18709483D01*
X14292616Y18689590D01*
X14292602Y18689587D01*
X14193800Y18663114D01*
X14123950Y18664777D01*
X14074027Y18695208D01*
X14051119Y18718116D01*
X14017634Y18779439D01*
X14014800Y18805797D01*
X14014800Y21483250D01*
X14034485Y21550289D01*
X14087289Y21596044D01*
X14156447Y21605988D01*
X14170890Y21603026D01*
X14292611Y21570411D01*
X14444322Y21557138D01*
X14519998Y21550517D01*
X14520000Y21550517D01*
X14520002Y21550517D01*
X14595678Y21557138D01*
X14747389Y21570411D01*
X14967870Y21629488D01*
X15174742Y21725954D01*
X15361719Y21856878D01*
X15523122Y22018281D01*
X15654046Y22205258D01*
X15750512Y22412130D01*
X15809589Y22632611D01*
X15828150Y22844768D01*
X15829483Y22859999D01*
X15829483Y22860002D01*
X15809589Y23087384D01*
X15809589Y23087389D01*
X15750512Y23307870D01*
X15654046Y23514741D01*
X15654044Y23514745D01*
X15523121Y23701720D01*
X15361722Y23863119D01*
X15361712Y23863128D01*
X15174745Y23994045D01*
X15174741Y23994047D01*
X15025199Y24063779D01*
X14967870Y24090512D01*
X14967866Y24090513D01*
X14967862Y24090515D01*
X14747394Y24149588D01*
X14747390Y24149589D01*
X14747389Y24149589D01*
X14747388Y24149590D01*
X14747383Y24149590D01*
X14520002Y24169483D01*
X14519998Y24169483D01*
X14292616Y24149590D01*
X14292602Y24149587D01*
X14170892Y24116976D01*
X14101043Y24118639D01*
X14043180Y24157802D01*
X14015677Y24222031D01*
X14014800Y24236751D01*
X14014800Y26154203D01*
X14034485Y26221242D01*
X14051119Y26241884D01*
X14074028Y26264793D01*
X14135351Y26298278D01*
X14193801Y26296888D01*
X14292611Y26270411D01*
X14455031Y26256201D01*
X14519998Y26250517D01*
X14520000Y26250517D01*
X14520002Y26250517D01*
X14576847Y26255491D01*
X14747389Y26270411D01*
X14967870Y26329488D01*
X15174742Y26425954D01*
X15336216Y26539020D01*
X15361712Y26556873D01*
X15361712Y26556874D01*
X15361719Y26556878D01*
X15523122Y26718281D01*
X15654046Y26905258D01*
X15750512Y27112130D01*
X15809589Y27332611D01*
X15829483Y27560000D01*
X15809589Y27787389D01*
X15783113Y27886200D01*
X15784776Y27956050D01*
X15815205Y28005972D01*
X15999206Y28189972D01*
X15999211Y28189976D01*
X16009414Y28200180D01*
X16009416Y28200180D01*
X16121220Y28311984D01*
X16173028Y28401719D01*
X16200277Y28448915D01*
X16241200Y28601643D01*
X16241200Y28759757D01*
X16241200Y36678357D01*
X16200277Y36831084D01*
X16200277Y36831085D01*
X16158166Y36904023D01*
X16121220Y36968016D01*
X16009416Y37079820D01*
X16009415Y37079821D01*
X16005085Y37084151D01*
X16005074Y37084161D01*
X15815207Y37274028D01*
X15781722Y37335351D01*
X15783113Y37393803D01*
X15809589Y37492611D01*
X15829483Y37720000D01*
X15809589Y37947389D01*
X15750512Y38167870D01*
X15654046Y38374741D01*
X15654044Y38374745D01*
X15523121Y38561720D01*
X15361722Y38723119D01*
X15361712Y38723128D01*
X15174745Y38854045D01*
X15174741Y38854047D01*
X15071306Y38902279D01*
X14967870Y38950512D01*
X14967866Y38950513D01*
X14967862Y38950515D01*
X14747394Y39009588D01*
X14747390Y39009589D01*
X14747389Y39009589D01*
X14747388Y39009590D01*
X14747383Y39009590D01*
X14520002Y39029483D01*
X14519998Y39029483D01*
X14292616Y39009590D01*
X14292605Y39009588D01*
X14072137Y38950515D01*
X14072128Y38950511D01*
X13865259Y38854047D01*
X13865255Y38854045D01*
X13678280Y38723122D01*
X13516878Y38561720D01*
X13385955Y38374745D01*
X13385953Y38374741D01*
X13289489Y38167872D01*
X13289485Y38167863D01*
X13230412Y37947395D01*
X13230410Y37947384D01*
X13210517Y37720002D01*
X13210517Y37719999D01*
X13230410Y37492617D01*
X13230412Y37492606D01*
X13289485Y37272138D01*
X13289487Y37272134D01*
X13289488Y37272130D01*
X13337721Y37168694D01*
X13385953Y37065259D01*
X13385955Y37065255D01*
X13516872Y36878288D01*
X13516881Y36878278D01*
X13678277Y36716882D01*
X13678287Y36716873D01*
X13865254Y36585956D01*
X13865258Y36585954D01*
X14072130Y36489488D01*
X14292611Y36430411D01*
X14455031Y36416201D01*
X14519998Y36410517D01*
X14520000Y36410517D01*
X14520002Y36410517D01*
X14576847Y36415491D01*
X14747389Y36430411D01*
X14846198Y36456887D01*
X14916047Y36455224D01*
X14965972Y36424793D01*
X15003881Y36386884D01*
X15037366Y36325561D01*
X15040200Y36299203D01*
X15040200Y34392732D01*
X15020515Y34325693D01*
X14967711Y34279938D01*
X14898553Y34269994D01*
X14884108Y34272957D01*
X14747397Y34309587D01*
X14747394Y34309588D01*
X14747389Y34309589D01*
X14747386Y34309590D01*
X14747383Y34309590D01*
X14520002Y34329483D01*
X14519998Y34329483D01*
X14292616Y34309590D01*
X14292605Y34309588D01*
X14072137Y34250515D01*
X14072128Y34250511D01*
X13865259Y34154047D01*
X13865255Y34154045D01*
X13678280Y34023122D01*
X13516878Y33861720D01*
X13385955Y33674745D01*
X13385953Y33674741D01*
X13289489Y33467872D01*
X13289485Y33467863D01*
X13230412Y33247395D01*
X13230410Y33247384D01*
X13210517Y33020002D01*
X13210517Y33019999D01*
X13230410Y32792617D01*
X13230412Y32792606D01*
X13289485Y32572138D01*
X13289487Y32572134D01*
X13289488Y32572130D01*
X13337721Y32468694D01*
X13385953Y32365259D01*
X13385955Y32365255D01*
X13516872Y32178288D01*
X13516881Y32178278D01*
X13678277Y32016882D01*
X13678287Y32016873D01*
X13865254Y31885956D01*
X13865258Y31885954D01*
X14072130Y31789488D01*
X14292611Y31730411D01*
X14455031Y31716201D01*
X14519998Y31710517D01*
X14520000Y31710517D01*
X14520002Y31710517D01*
X14576847Y31715491D01*
X14747389Y31730411D01*
X14884107Y31767044D01*
X14953957Y31765381D01*
X15011819Y31726218D01*
X15039323Y31661990D01*
X15040200Y31647269D01*
X15040200Y28980799D01*
X15020515Y28913760D01*
X15003881Y28893118D01*
X14965971Y28855208D01*
X14904648Y28821723D01*
X14846197Y28823114D01*
X14747394Y28849588D01*
X14747390Y28849589D01*
X14747389Y28849589D01*
X14747388Y28849590D01*
X14747383Y28849590D01*
X14520002Y28869483D01*
X14519998Y28869483D01*
X14292616Y28849590D01*
X14292605Y28849588D01*
X14072137Y28790515D01*
X14072128Y28790511D01*
X13865259Y28694047D01*
X13865255Y28694045D01*
X13678280Y28563122D01*
X13516878Y28401720D01*
X13385955Y28214745D01*
X13385953Y28214741D01*
X13289489Y28007872D01*
X13289485Y28007863D01*
X13230412Y27787395D01*
X13230410Y27787384D01*
X13210517Y27560002D01*
X13210517Y27559999D01*
X13230410Y27332617D01*
X13230412Y27332606D01*
X13256886Y27233803D01*
X13255223Y27163953D01*
X13224792Y27114029D01*
X13045586Y26934822D01*
X12933781Y26823018D01*
X12933777Y26823013D01*
X12888174Y26744024D01*
X12888174Y26744023D01*
X12854723Y26686086D01*
X12854723Y26686085D01*
X12813799Y26533357D01*
X12813799Y26533355D01*
X12813799Y26365254D01*
X12813800Y26365241D01*
X12813800Y18592370D01*
X12813799Y18592352D01*
X12813799Y18426646D01*
X12813798Y18426646D01*
X12820102Y18403119D01*
X12854723Y18273915D01*
X12854724Y18273913D01*
X12854723Y18273913D01*
X12873309Y18241723D01*
X12873311Y18241721D01*
X12873312Y18241719D01*
X12913624Y18171896D01*
X12933779Y18136985D01*
X13052649Y18018115D01*
X13052655Y18018110D01*
X13224792Y17845973D01*
X13258277Y17784650D01*
X13256886Y17726200D01*
X13230413Y17627398D01*
X13230410Y17627384D01*
X13210517Y17400002D01*
X13210517Y17399999D01*
X13230410Y17172617D01*
X13230412Y17172606D01*
X13256886Y17073803D01*
X13255223Y17003953D01*
X13224792Y16954029D01*
X12985286Y16714522D01*
X12873481Y16602718D01*
X12873479Y16602715D01*
X12823361Y16515906D01*
X12823359Y16515904D01*
X12794425Y16465791D01*
X12794424Y16465790D01*
X12779150Y16408787D01*
X12753499Y16313057D01*
X12753499Y16313055D01*
X12753499Y16144954D01*
X12753500Y16144941D01*
X12753500Y8492670D01*
X12753499Y8492652D01*
X12753499Y8326946D01*
X12753498Y8326946D01*
X12794423Y8174215D01*
X12823358Y8124100D01*
X12823359Y8124096D01*
X12823360Y8124096D01*
X12873479Y8037286D01*
X12873481Y8037283D01*
X12992349Y7918415D01*
X12992355Y7918410D01*
X13224792Y7685973D01*
X13258277Y7624650D01*
X13256886Y7566200D01*
X13230413Y7467398D01*
X13230410Y7467384D01*
X13210517Y7240002D01*
X13210517Y7239999D01*
X13230410Y7012617D01*
X13230412Y7012606D01*
X13289485Y6792138D01*
X13289487Y6792134D01*
X13289488Y6792130D01*
X13337721Y6688694D01*
X13385953Y6585259D01*
X13385955Y6585255D01*
X13516872Y6398288D01*
X13516881Y6398278D01*
X13678277Y6236882D01*
X13678287Y6236873D01*
X13865254Y6105956D01*
X13865258Y6105954D01*
X14072130Y6009488D01*
X14292611Y5950411D01*
X14455031Y5936201D01*
X14519998Y5930517D01*
X14520000Y5930517D01*
X14520002Y5930517D01*
X14576847Y5935491D01*
X14747389Y5950411D01*
X14846198Y5976887D01*
X14916047Y5975224D01*
X14965972Y5944793D01*
X15003881Y5906884D01*
X15037366Y5845561D01*
X15040200Y5819203D01*
X15040200Y3912732D01*
X15020515Y3845693D01*
X14967711Y3799938D01*
X14898553Y3789994D01*
X14884108Y3792957D01*
X14747397Y3829587D01*
X14747394Y3829588D01*
X14747389Y3829589D01*
X14747386Y3829590D01*
X14747383Y3829590D01*
X14520002Y3849483D01*
X14519998Y3849483D01*
X14292616Y3829590D01*
X14292602Y3829587D01*
X14193800Y3803114D01*
X14123950Y3804777D01*
X14074027Y3835208D01*
X7791719Y10117516D01*
X7758234Y10178839D01*
X7755400Y10205197D01*
X7755400Y24219688D01*
X7775085Y24286727D01*
X7782455Y24297003D01*
X7784710Y24299833D01*
X7784716Y24299838D01*
X7880689Y24452578D01*
X7940268Y24622845D01*
X7960465Y24802100D01*
X7952151Y24875888D01*
X7940269Y24981350D01*
X7940268Y24981355D01*
X7880688Y25151624D01*
X7841482Y25214020D01*
X7784716Y25304362D01*
X7657162Y25431916D01*
X7613267Y25459497D01*
X7504423Y25527889D01*
X7334154Y25587469D01*
X7334149Y25587470D01*
X7154904Y25607665D01*
X7154896Y25607665D01*
X6975650Y25587470D01*
X6975645Y25587469D01*
X6805376Y25527889D01*
X6652637Y25431916D01*
X6525084Y25304363D01*
X6429111Y25151624D01*
X6369531Y24981355D01*
X6369530Y24981350D01*
X6349335Y24802104D01*
X-37960800Y24802104D01*
X-37960800Y24875888D01*
X-37941115Y24942927D01*
X-37933745Y24953203D01*
X-37931490Y24956033D01*
X-37931484Y24956038D01*
X-37835511Y25108778D01*
X-37775932Y25279045D01*
X-37775931Y25279051D01*
X-37755735Y25458297D01*
X-37755735Y25458304D01*
X-37775931Y25637550D01*
X-37775932Y25637555D01*
X-37835512Y25807824D01*
X-37931485Y25960563D01*
X-38059038Y26088116D01*
X-38211777Y26184089D01*
X-38382046Y26243669D01*
X-38382051Y26243670D01*
X-38561296Y26263865D01*
X-38561304Y26263865D01*
X-38740550Y26243670D01*
X-38740555Y26243669D01*
X-38910824Y26184089D01*
X-39063563Y26088116D01*
X-39191116Y25960563D01*
X-39287089Y25807824D01*
X-39346669Y25637555D01*
X-39346670Y25637550D01*
X-39366865Y25458304D01*
X-40145869Y25458304D01*
X-40145735Y25459497D01*
X-40145735Y25459504D01*
X-40165931Y25638750D01*
X-40165932Y25638755D01*
X-40225512Y25809024D01*
X-40321485Y25961763D01*
X-40416481Y26056759D01*
X-40449966Y26118082D01*
X-40444982Y26187774D01*
X-40403110Y26243707D01*
X-40369754Y26261482D01*
X-40344231Y26270413D01*
X-40279078Y26293211D01*
X-40126338Y26389184D01*
X-39998784Y26516738D01*
X-39902811Y26669478D01*
X-39843232Y26839745D01*
X-39835851Y26905255D01*
X-39823035Y27018997D01*
X-39823035Y27019004D01*
X-39843231Y27198250D01*
X-39843232Y27198255D01*
X-39855671Y27233803D01*
X-39902811Y27368522D01*
X-39998784Y27521262D01*
X-40126338Y27648816D01*
X-40279077Y27744789D01*
X-40449346Y27804369D01*
X-40449351Y27804370D01*
X-40628596Y27824565D01*
X-40628604Y27824565D01*
X-40807850Y27804370D01*
X-40807855Y27804369D01*
X-40978124Y27744789D01*
X-41130863Y27648816D01*
X-41258416Y27521263D01*
X-41354390Y27368522D01*
X-41413970Y27198250D01*
X-41423763Y27111332D01*
X-41450830Y27046918D01*
X-41459302Y27037535D01*
X-41957814Y26539022D01*
X-42069619Y26427218D01*
X-42069621Y26427216D01*
X-42090712Y26390685D01*
X-42099626Y26375243D01*
X-42148677Y26290285D01*
X-42189601Y26137557D01*
X-42189601Y26137555D01*
X-42189601Y25969454D01*
X-42189600Y25969441D01*
X-42189600Y-20126230D01*
X-42189601Y-20126248D01*
X-42189601Y-20291954D01*
X-42189602Y-20291954D01*
X-49399500Y-20291954D01*
X-49399500Y39000000D01*
X-48605449Y39000000D01*
X-48585683Y38748849D01*
X-48526874Y38503890D01*
X-48430467Y38271141D01*
X-48298840Y38056347D01*
X-48298839Y38056344D01*
X-48298836Y38056341D01*
X-48135224Y37864776D01*
X-47986934Y37738125D01*
X-47943657Y37701162D01*
X-47943654Y37701161D01*
X-47728860Y37569534D01*
X-47543138Y37492606D01*
X-47496111Y37473127D01*
X-47251148Y37414317D01*
X-47000000Y37394551D01*
X-46748852Y37414317D01*
X-46503889Y37473127D01*
X-46271141Y37569534D01*
X-46056341Y37701164D01*
X-45864776Y37864776D01*
X-45701164Y38056341D01*
X-45569534Y38271141D01*
X-45473127Y38503889D01*
X-45414317Y38748852D01*
X-45394551Y39000000D01*
X-45414317Y39251148D01*
X-45473127Y39496111D01*
X-45569534Y39728859D01*
X-45569534Y39728860D01*
X-45701161Y39943654D01*
X-45701162Y39943657D01*
X-45738125Y39986934D01*
X-45864776Y40135224D01*
X-45991429Y40243396D01*
X-46056344Y40298839D01*
X-46056347Y40298840D01*
X-46271141Y40430467D01*
X-46503890Y40526874D01*
X-46748849Y40585683D01*
X-47000000Y40605449D01*
X-47251152Y40585683D01*
X-47496111Y40526874D01*
X-47728860Y40430467D01*
X-47943654Y40298840D01*
X-47943657Y40298839D01*
X-48135224Y40135224D01*
X-48298839Y39943657D01*
X-48298840Y39943654D01*
X-48430467Y39728860D01*
X-48526874Y39496111D01*
X-48585683Y39251152D01*
X-48605449Y39000000D01*
X-49399500Y39000000D01*
X-49399500Y46000000D01*
X-48105408Y46000000D01*
X-48085799Y45713320D01*
X-48027334Y45431966D01*
X-48027333Y45431963D01*
X-47931106Y45161207D01*
X-47931107Y45161207D01*
X-47798902Y44906065D01*
X-47633188Y44671300D01*
X-47548077Y44580169D01*
X-47437053Y44461292D01*
X-47214147Y44279945D01*
X-47199670Y44271141D01*
X-46968618Y44130635D01*
X-46781763Y44049474D01*
X-46705058Y44016156D01*
X-46428358Y43938629D01*
X-46178080Y43904229D01*
X-46143679Y43899500D01*
X-46143678Y43899500D01*
X-45856321Y43899500D01*
X-45825630Y43903719D01*
X-45571642Y43938629D01*
X-45294942Y44016156D01*
X-45181985Y44065221D01*
X-45031383Y44130635D01*
X-45031380Y44130637D01*
X-45031375Y44130639D01*
X-44785853Y44279945D01*
X-44562947Y44461292D01*
X-44366811Y44671302D01*
X-44201099Y44906064D01*
X-44152425Y45000000D01*
X-12605449Y45000000D01*
X-12585683Y44748849D01*
X-12526874Y44503890D01*
X-12430467Y44271141D01*
X-12298840Y44056347D01*
X-12298839Y44056344D01*
X-12298836Y44056341D01*
X-12135224Y43864776D01*
X-11986934Y43738125D01*
X-11943657Y43701162D01*
X-11943654Y43701161D01*
X-11728860Y43569534D01*
X-11496111Y43473127D01*
X-11251148Y43414317D01*
X-11000000Y43394551D01*
X-10748852Y43414317D01*
X-10503889Y43473127D01*
X-10271141Y43569534D01*
X-10056341Y43701164D01*
X-9864776Y43864776D01*
X-9701164Y44056341D01*
X-9569534Y44271141D01*
X-9473127Y44503889D01*
X-9414317Y44748852D01*
X-9394551Y45000000D01*
X-9414317Y45251148D01*
X-9473127Y45496111D01*
X-9563095Y45713314D01*
X-9569534Y45728860D01*
X-9701161Y45943654D01*
X-9701162Y45943657D01*
X-9749284Y46000000D01*
X-9864776Y46135224D01*
X-10042115Y46286686D01*
X-10056344Y46298839D01*
X-10056347Y46298840D01*
X-10271141Y46430467D01*
X-10503890Y46526874D01*
X-10748849Y46585683D01*
X-11000000Y46605449D01*
X-11251152Y46585683D01*
X-11496111Y46526874D01*
X-11728860Y46430467D01*
X-11943654Y46298840D01*
X-11943657Y46298839D01*
X-12135224Y46135224D01*
X-12298839Y45943657D01*
X-12298840Y45943654D01*
X-12430467Y45728860D01*
X-12526874Y45496111D01*
X-12585683Y45251152D01*
X-12605449Y45000000D01*
X-44152425Y45000000D01*
X-44068896Y45161203D01*
X-43972666Y45431968D01*
X-43914202Y45713314D01*
X-43894592Y46000000D01*
X-43914202Y46286686D01*
X-43972666Y46568032D01*
X-44068895Y46838794D01*
X-44068894Y46838794D01*
X-44201099Y47093936D01*
X-44366813Y47328701D01*
X-44461464Y47430046D01*
X-44562947Y47538708D01*
X-44755942Y47695721D01*
X-44785854Y47720056D01*
X-45031383Y47869366D01*
X-45294937Y47983842D01*
X-45294939Y47983843D01*
X-45294942Y47983844D01*
X-45424422Y48020123D01*
X-45571636Y48061370D01*
X-45571641Y48061371D01*
X-45571642Y48061371D01*
X-45713982Y48080936D01*
X-45856321Y48100500D01*
X-45856322Y48100500D01*
X-46143678Y48100500D01*
X-46143679Y48100500D01*
X-46428358Y48061371D01*
X-46428365Y48061370D01*
X-46636139Y48003155D01*
X-46705058Y47983844D01*
X-46705061Y47983844D01*
X-46705064Y47983842D01*
X-46705065Y47983842D01*
X-46968618Y47869366D01*
X-47214147Y47720056D01*
X-47437050Y47538711D01*
X-47633188Y47328701D01*
X-47798902Y47093936D01*
X-47931106Y46838794D01*
X-48027333Y46568038D01*
X-48027334Y46568035D01*
X-48085799Y46286681D01*
X-48105408Y46000000D01*
X-49399500Y46000000D01*
X-49399500Y48893039D01*
X-49398720Y48906923D01*
X-49398720Y48906924D01*
X-49388541Y48997269D01*
X-49382365Y49024330D01*
X-49354647Y49103544D01*
X-49342604Y49128550D01*
X-49297954Y49199611D01*
X-49280649Y49221310D01*
X-49221310Y49280649D01*
X-49199611Y49297954D01*
X-49128550Y49342604D01*
X-49103544Y49354647D01*
X-49024330Y49382365D01*
X-48997267Y49388541D01*
X-48934581Y49395604D01*
X-48906921Y49398720D01*
X-48893038Y49399500D01*
X-48834108Y49399500D01*
X-40965892Y49399500D01*
X-40906962Y49399500D01*
X-40893078Y49398720D01*
G37*
%TD.AperFunction*%
%TD*%
%TA.AperFunction,Conductor*%
%TO.N,/PE*%
G36*
X42143039Y-41294685D02*
G01*
X42188794Y-41347489D01*
X42200000Y-41399000D01*
X42200000Y-42930000D01*
X43633520Y-42930000D01*
X43632665Y-42932064D01*
X43600000Y-43096282D01*
X43600000Y-43263718D01*
X43632665Y-43427936D01*
X43633520Y-43430000D01*
X42200000Y-43430000D01*
X42200000Y-44977844D01*
X42206401Y-45037372D01*
X42206403Y-45037379D01*
X42256645Y-45172086D01*
X42256649Y-45172093D01*
X42342809Y-45287187D01*
X42342812Y-45287190D01*
X42457906Y-45373350D01*
X42457913Y-45373354D01*
X42592620Y-45423596D01*
X42592627Y-45423598D01*
X42652155Y-45429999D01*
X42652172Y-45430000D01*
X44200000Y-45430000D01*
X44200000Y-43996480D01*
X44202064Y-43997335D01*
X44366282Y-44030000D01*
X44533718Y-44030000D01*
X44697936Y-43997335D01*
X44700000Y-43996480D01*
X44700000Y-45430000D01*
X46247828Y-45430000D01*
X46247844Y-45429999D01*
X46307372Y-45423598D01*
X46307379Y-45423596D01*
X46442086Y-45373354D01*
X46442093Y-45373350D01*
X46557187Y-45287190D01*
X46557190Y-45287187D01*
X46643350Y-45172093D01*
X46643354Y-45172086D01*
X46693596Y-45037379D01*
X46693598Y-45037372D01*
X46699999Y-44977844D01*
X46700000Y-44977827D01*
X46700000Y-43430000D01*
X45266480Y-43430000D01*
X45267335Y-43427936D01*
X45300000Y-43263718D01*
X45300000Y-43096282D01*
X45267335Y-42932064D01*
X45266480Y-42930000D01*
X46700000Y-42930000D01*
X46700000Y-41399000D01*
X46719685Y-41331961D01*
X46772489Y-41286206D01*
X46824000Y-41275000D01*
X49275500Y-41275000D01*
X49342539Y-41294685D01*
X49388294Y-41347489D01*
X49399500Y-41399000D01*
X49399500Y-44996249D01*
X49399274Y-45003736D01*
X49382457Y-45281741D01*
X49380652Y-45296605D01*
X49331126Y-45566862D01*
X49327542Y-45581402D01*
X49245803Y-45843709D01*
X49240494Y-45857709D01*
X49127729Y-46108264D01*
X49120770Y-46121523D01*
X48978630Y-46356652D01*
X48970124Y-46368975D01*
X48800675Y-46585261D01*
X48790745Y-46596469D01*
X48596469Y-46790745D01*
X48585261Y-46800675D01*
X48368975Y-46970124D01*
X48356652Y-46978630D01*
X48121523Y-47120770D01*
X48108264Y-47127729D01*
X47857709Y-47240494D01*
X47843709Y-47245803D01*
X47581402Y-47327542D01*
X47566862Y-47331126D01*
X47296605Y-47380652D01*
X47281741Y-47382457D01*
X47003736Y-47399274D01*
X46996249Y-47399500D01*
X37892682Y-47399500D01*
X37680235Y-47430044D01*
X37680225Y-47430047D01*
X37474284Y-47490517D01*
X37279061Y-47579672D01*
X37279048Y-47579679D01*
X37098485Y-47695720D01*
X36936275Y-47836275D01*
X36795720Y-47998485D01*
X36679679Y-48179048D01*
X36679672Y-48179061D01*
X36590517Y-48374284D01*
X36530047Y-48580225D01*
X36530044Y-48580235D01*
X36499500Y-48792682D01*
X36499500Y-48893038D01*
X36498720Y-48906923D01*
X36488540Y-48997264D01*
X36482362Y-49024333D01*
X36454648Y-49103537D01*
X36442600Y-49128555D01*
X36397957Y-49199604D01*
X36380644Y-49221313D01*
X36321313Y-49280644D01*
X36299604Y-49297957D01*
X36228555Y-49342600D01*
X36203537Y-49354648D01*
X36124333Y-49382362D01*
X36097264Y-49388540D01*
X36017075Y-49397576D01*
X36006921Y-49398720D01*
X35993038Y-49399500D01*
X33931435Y-49399500D01*
X33864396Y-49379815D01*
X33818641Y-49327011D01*
X33808697Y-49257853D01*
X33837722Y-49194297D01*
X33863900Y-49171505D01*
X34163068Y-48977222D01*
X34163070Y-48977220D01*
X34462424Y-48734808D01*
X34462432Y-48734801D01*
X34734801Y-48462432D01*
X34734808Y-48462424D01*
X34977220Y-48163070D01*
X34977222Y-48163068D01*
X35187008Y-47840026D01*
X35361885Y-47496811D01*
X35499927Y-47137200D01*
X35599624Y-46765125D01*
X35599625Y-46765118D01*
X35659882Y-46384670D01*
X35666940Y-46250000D01*
X33580348Y-46250000D01*
X33600000Y-46125923D01*
X33600000Y-45874077D01*
X33580348Y-45750000D01*
X35666941Y-45750000D01*
X35666940Y-45749999D01*
X35659882Y-45615329D01*
X35599625Y-45234881D01*
X35599624Y-45234874D01*
X35536690Y-45000000D01*
X37394551Y-45000000D01*
X37414317Y-45251151D01*
X37473126Y-45496110D01*
X37569533Y-45728859D01*
X37701160Y-45943653D01*
X37701161Y-45943656D01*
X37701164Y-45943659D01*
X37864776Y-46135224D01*
X38013066Y-46261875D01*
X38056343Y-46298838D01*
X38056346Y-46298839D01*
X38271140Y-46430466D01*
X38503889Y-46526873D01*
X38748852Y-46585683D01*
X39000000Y-46605449D01*
X39251148Y-46585683D01*
X39496111Y-46526873D01*
X39728859Y-46430466D01*
X39943659Y-46298836D01*
X40135224Y-46135224D01*
X40298836Y-45943659D01*
X40430466Y-45728859D01*
X40526873Y-45496111D01*
X40585683Y-45251148D01*
X40605449Y-45000000D01*
X40585683Y-44748852D01*
X40526873Y-44503889D01*
X40430466Y-44271141D01*
X40430466Y-44271140D01*
X40298839Y-44056346D01*
X40298838Y-44056343D01*
X40248440Y-43997335D01*
X40135224Y-43864776D01*
X39967872Y-43721844D01*
X39943656Y-43701161D01*
X39943653Y-43701160D01*
X39728859Y-43569533D01*
X39496110Y-43473126D01*
X39251151Y-43414317D01*
X39000000Y-43394551D01*
X38748848Y-43414317D01*
X38503889Y-43473126D01*
X38271140Y-43569533D01*
X38056346Y-43701160D01*
X38056343Y-43701161D01*
X37864776Y-43864776D01*
X37701161Y-44056343D01*
X37701160Y-44056346D01*
X37569533Y-44271140D01*
X37473126Y-44503889D01*
X37414317Y-44748848D01*
X37394551Y-45000000D01*
X35536690Y-45000000D01*
X35499927Y-44862799D01*
X35361885Y-44503188D01*
X35187008Y-44159974D01*
X34977218Y-43836926D01*
X34734808Y-43537575D01*
X34734801Y-43537567D01*
X34462432Y-43265198D01*
X34462424Y-43265191D01*
X34163070Y-43022779D01*
X34163068Y-43022777D01*
X33840026Y-42812991D01*
X33496811Y-42638114D01*
X33137200Y-42500072D01*
X32765125Y-42400375D01*
X32765118Y-42400374D01*
X32384670Y-42340117D01*
X32250000Y-42333059D01*
X32250000Y-44419651D01*
X32125923Y-44400000D01*
X31874077Y-44400000D01*
X31750000Y-44419651D01*
X31750000Y-42333059D01*
X31749999Y-42333059D01*
X31615329Y-42340117D01*
X31234881Y-42400374D01*
X31234874Y-42400375D01*
X30862799Y-42500072D01*
X30503188Y-42638114D01*
X30159974Y-42812991D01*
X29836926Y-43022781D01*
X29537575Y-43265191D01*
X29537567Y-43265198D01*
X29265198Y-43537567D01*
X29265191Y-43537575D01*
X29022781Y-43836926D01*
X28812991Y-44159974D01*
X28638114Y-44503188D01*
X28500072Y-44862799D01*
X28400375Y-45234874D01*
X28400374Y-45234881D01*
X28340117Y-45615329D01*
X28333059Y-45749999D01*
X28333059Y-45750000D01*
X30419652Y-45750000D01*
X30400000Y-45874077D01*
X30400000Y-46125923D01*
X30419652Y-46250000D01*
X28333059Y-46250000D01*
X28340117Y-46384670D01*
X28400374Y-46765118D01*
X28400375Y-46765125D01*
X28500072Y-47137200D01*
X28638114Y-47496811D01*
X28812991Y-47840026D01*
X29022777Y-48163068D01*
X29022779Y-48163070D01*
X29265191Y-48462424D01*
X29265198Y-48462432D01*
X29537567Y-48734801D01*
X29537575Y-48734808D01*
X29836929Y-48977220D01*
X29836931Y-48977222D01*
X30136100Y-49171505D01*
X30181603Y-49224526D01*
X30191217Y-49293731D01*
X30161890Y-49357148D01*
X30102933Y-49394642D01*
X30068565Y-49399500D01*
X28006962Y-49399500D01*
X27993078Y-49398720D01*
X27980553Y-49397308D01*
X27902735Y-49388540D01*
X27875666Y-49382362D01*
X27796462Y-49354648D01*
X27771444Y-49342600D01*
X27700395Y-49297957D01*
X27678686Y-49280644D01*
X27619355Y-49221313D01*
X27602042Y-49199604D01*
X27598707Y-49194297D01*
X27557398Y-49128553D01*
X27545351Y-49103537D01*
X27517637Y-49024333D01*
X27511459Y-48997263D01*
X27501280Y-48906922D01*
X27500500Y-48893038D01*
X27500500Y-48792683D01*
X27500500Y-48792682D01*
X27469954Y-48580231D01*
X27409484Y-48374290D01*
X27409483Y-48374288D01*
X27409482Y-48374284D01*
X27320327Y-48179061D01*
X27320320Y-48179048D01*
X27227120Y-48034026D01*
X27204281Y-47998487D01*
X27171172Y-47960277D01*
X27063724Y-47836275D01*
X26901514Y-47695720D01*
X26901513Y-47695719D01*
X26824634Y-47646312D01*
X26720951Y-47579679D01*
X26720938Y-47579672D01*
X26525715Y-47490517D01*
X26319774Y-47430047D01*
X26319764Y-47430044D01*
X26128754Y-47402582D01*
X26107318Y-47399500D01*
X26065892Y-47399500D01*
X21714000Y-47399500D01*
X21646961Y-47379815D01*
X21601206Y-47327011D01*
X21590000Y-47275500D01*
X21590000Y-45000000D01*
X23394551Y-45000000D01*
X23414317Y-45251151D01*
X23473126Y-45496110D01*
X23569533Y-45728859D01*
X23701160Y-45943653D01*
X23701161Y-45943656D01*
X23701164Y-45943659D01*
X23864776Y-46135224D01*
X24013066Y-46261875D01*
X24056343Y-46298838D01*
X24056346Y-46298839D01*
X24271140Y-46430466D01*
X24503889Y-46526873D01*
X24748852Y-46585683D01*
X25000000Y-46605449D01*
X25251148Y-46585683D01*
X25496111Y-46526873D01*
X25728859Y-46430466D01*
X25943659Y-46298836D01*
X26135224Y-46135224D01*
X26298836Y-45943659D01*
X26430466Y-45728859D01*
X26526873Y-45496111D01*
X26585683Y-45251148D01*
X26605449Y-45000000D01*
X26585683Y-44748852D01*
X26526873Y-44503889D01*
X26430466Y-44271141D01*
X26430466Y-44271140D01*
X26298839Y-44056346D01*
X26298838Y-44056343D01*
X26248440Y-43997335D01*
X26135224Y-43864776D01*
X25967872Y-43721844D01*
X25943656Y-43701161D01*
X25943653Y-43701160D01*
X25728859Y-43569533D01*
X25496110Y-43473126D01*
X25251151Y-43414317D01*
X25000000Y-43394551D01*
X24748848Y-43414317D01*
X24503889Y-43473126D01*
X24271140Y-43569533D01*
X24056346Y-43701160D01*
X24056343Y-43701161D01*
X23864776Y-43864776D01*
X23701161Y-44056343D01*
X23701160Y-44056346D01*
X23569533Y-44271140D01*
X23473126Y-44503889D01*
X23414317Y-44748848D01*
X23394551Y-45000000D01*
X21590000Y-45000000D01*
X21590000Y-41399000D01*
X21609685Y-41331961D01*
X21662489Y-41286206D01*
X21714000Y-41275000D01*
X42076000Y-41275000D01*
X42143039Y-41294685D01*
G37*
%TD.AperFunction*%
%TD*%
%TA.AperFunction,Conductor*%
%TO.N,GND_ISO*%
G36*
X36006922Y49398720D02*
G01*
X36097266Y49388541D01*
X36124331Y49382364D01*
X36203540Y49354648D01*
X36228553Y49342602D01*
X36299606Y49297957D01*
X36321313Y49280645D01*
X36380644Y49221314D01*
X36397957Y49199605D01*
X36442600Y49128556D01*
X36454648Y49103538D01*
X36482362Y49024334D01*
X36488540Y48997265D01*
X36498720Y48906924D01*
X36499500Y48893039D01*
X36499500Y48792683D01*
X36530044Y48580236D01*
X36530047Y48580226D01*
X36590517Y48374285D01*
X36679672Y48179062D01*
X36679679Y48179049D01*
X36795720Y47998486D01*
X36936275Y47836276D01*
X37060277Y47728828D01*
X37098487Y47695719D01*
X37227531Y47612789D01*
X37279048Y47579680D01*
X37279061Y47579673D01*
X37474284Y47490518D01*
X37474288Y47490517D01*
X37474290Y47490516D01*
X37680231Y47430046D01*
X37680232Y47430046D01*
X37680235Y47430045D01*
X37743584Y47420938D01*
X37892682Y47399500D01*
X37934108Y47399500D01*
X46934108Y47399500D01*
X46996249Y47399500D01*
X47003736Y47399274D01*
X47281742Y47382458D01*
X47296605Y47380653D01*
X47371845Y47366865D01*
X47566866Y47331126D01*
X47581395Y47327545D01*
X47843713Y47245803D01*
X47857709Y47240495D01*
X48108264Y47127730D01*
X48121522Y47120772D01*
X48356658Y46978627D01*
X48368969Y46970129D01*
X48536603Y46838797D01*
X48585261Y46800676D01*
X48596469Y46790746D01*
X48790745Y46596470D01*
X48800675Y46585262D01*
X48814174Y46568032D01*
X48948023Y46397185D01*
X48970124Y46368976D01*
X48978630Y46356653D01*
X49120770Y46121524D01*
X49127729Y46108265D01*
X49240494Y45857710D01*
X49245803Y45843710D01*
X49327542Y45581403D01*
X49331126Y45566863D01*
X49380652Y45296606D01*
X49382457Y45281742D01*
X49399274Y45003737D01*
X49399500Y44996250D01*
X49399500Y-39881000D01*
X49379815Y-39948039D01*
X49327011Y-39993794D01*
X49275500Y-40005000D01*
X21714000Y-40005000D01*
X21646961Y-39985315D01*
X21601206Y-39932511D01*
X21590000Y-39881000D01*
X21590000Y-29291090D01*
X21609685Y-29224051D01*
X21662489Y-29178296D01*
X21679060Y-29172114D01*
X21754992Y-29149819D01*
X21876032Y-29072031D01*
X21970254Y-28963294D01*
X22030024Y-28832416D01*
X22050500Y-28690000D01*
X22050500Y-28689994D01*
X22050817Y-28687790D01*
X22079841Y-28624234D01*
X22138619Y-28586459D01*
X22208489Y-28586459D01*
X22214510Y-28588395D01*
X22320737Y-28625566D01*
X22320743Y-28625567D01*
X22320745Y-28625568D01*
X22320746Y-28625568D01*
X22320750Y-28625569D01*
X22499996Y-28645765D01*
X22500000Y-28645765D01*
X22500004Y-28645765D01*
X22679249Y-28625569D01*
X22679252Y-28625568D01*
X22679255Y-28625568D01*
X22849522Y-28565989D01*
X23002262Y-28470016D01*
X23129816Y-28342462D01*
X23225789Y-28189722D01*
X23285368Y-28019455D01*
X23294320Y-27940007D01*
X23294322Y-27939992D01*
X42194671Y-27939992D01*
X42194671Y-27940007D01*
X42213964Y-28234363D01*
X42213965Y-28234373D01*
X42213966Y-28234380D01*
X42260836Y-28470016D01*
X42271518Y-28523716D01*
X42271521Y-28523730D01*
X42366349Y-28803080D01*
X42496825Y-29067660D01*
X42496829Y-29067667D01*
X42660725Y-29312955D01*
X42855241Y-29534758D01*
X43077043Y-29729273D01*
X43322335Y-29893172D01*
X43586923Y-30023652D01*
X43866278Y-30118481D01*
X44155620Y-30176034D01*
X44183888Y-30177886D01*
X44449993Y-30195329D01*
X44450000Y-30195329D01*
X44450007Y-30195329D01*
X44685675Y-30179881D01*
X44744380Y-30176034D01*
X45033722Y-30118481D01*
X45313077Y-30023652D01*
X45577665Y-29893172D01*
X45822957Y-29729273D01*
X46044758Y-29534758D01*
X46239273Y-29312957D01*
X46403172Y-29067665D01*
X46533652Y-28803077D01*
X46628481Y-28523722D01*
X46686034Y-28234380D01*
X46700121Y-28019455D01*
X46705329Y-27940007D01*
X46705329Y-27939992D01*
X46686035Y-27645636D01*
X46686034Y-27645620D01*
X46628481Y-27356278D01*
X46533652Y-27076923D01*
X46403172Y-26812336D01*
X46371373Y-26764746D01*
X46348042Y-26729829D01*
X46239273Y-26567043D01*
X46163843Y-26481032D01*
X46044758Y-26345241D01*
X45822955Y-26150725D01*
X45577667Y-25986829D01*
X45577660Y-25986825D01*
X45313080Y-25856349D01*
X45033730Y-25761521D01*
X45033724Y-25761519D01*
X45033722Y-25761519D01*
X44744380Y-25703966D01*
X44744373Y-25703965D01*
X44744363Y-25703964D01*
X44450007Y-25684671D01*
X44449993Y-25684671D01*
X44155636Y-25703964D01*
X44155624Y-25703965D01*
X44155620Y-25703966D01*
X44155612Y-25703967D01*
X44155609Y-25703968D01*
X43866283Y-25761518D01*
X43866269Y-25761521D01*
X43586919Y-25856349D01*
X43322334Y-25986828D01*
X43077041Y-26150728D01*
X42855241Y-26345241D01*
X42660728Y-26567041D01*
X42496828Y-26812334D01*
X42366349Y-27076919D01*
X42271521Y-27356269D01*
X42271518Y-27356283D01*
X42213968Y-27645609D01*
X42213964Y-27645636D01*
X42194671Y-27939992D01*
X23294322Y-27939992D01*
X23305565Y-27840203D01*
X23305565Y-27840196D01*
X23285369Y-27660950D01*
X23285368Y-27660945D01*
X23225788Y-27490676D01*
X23141334Y-27356269D01*
X23129816Y-27337938D01*
X23002262Y-27210384D01*
X22950373Y-27177780D01*
X22849523Y-27114411D01*
X22679254Y-27054831D01*
X22679249Y-27054830D01*
X22500004Y-27034635D01*
X22499996Y-27034635D01*
X22320750Y-27054830D01*
X22320742Y-27054832D01*
X22177344Y-27105009D01*
X22107565Y-27108570D01*
X22046938Y-27073841D01*
X22017414Y-27022903D01*
X22004819Y-26980008D01*
X21927031Y-26858968D01*
X21818294Y-26764746D01*
X21818292Y-26764745D01*
X21813865Y-26760909D01*
X21776091Y-26702130D01*
X21776091Y-26632261D01*
X21813866Y-26573483D01*
X21828021Y-26562885D01*
X21876032Y-26532031D01*
X21970254Y-26423294D01*
X22030024Y-26292416D01*
X22050500Y-26150000D01*
X22050500Y-26004023D01*
X22070185Y-25936984D01*
X22112500Y-25896636D01*
X22140416Y-25880520D01*
X22174073Y-25846862D01*
X22235394Y-25813377D01*
X22302709Y-25817502D01*
X22322048Y-25824269D01*
X22501296Y-25844465D01*
X22501300Y-25844465D01*
X22501304Y-25844465D01*
X22680549Y-25824269D01*
X22680552Y-25824268D01*
X22680555Y-25824268D01*
X22850822Y-25764689D01*
X23003562Y-25668716D01*
X23131116Y-25541162D01*
X23227089Y-25388422D01*
X23286668Y-25218155D01*
X23298254Y-25115329D01*
X23306865Y-25038903D01*
X23306865Y-25038896D01*
X23286669Y-24859650D01*
X23286668Y-24859645D01*
X23227088Y-24689376D01*
X23131115Y-24536637D01*
X23003562Y-24409084D01*
X22850823Y-24313111D01*
X22680554Y-24253531D01*
X22680549Y-24253530D01*
X22501304Y-24233335D01*
X22501296Y-24233335D01*
X22322050Y-24253530D01*
X22322045Y-24253531D01*
X22151776Y-24313111D01*
X22092927Y-24350089D01*
X22025690Y-24369089D01*
X21958855Y-24348721D01*
X21934558Y-24324177D01*
X21932837Y-24325669D01*
X21927029Y-24318966D01*
X21898312Y-24294082D01*
X21818294Y-24224746D01*
X21818292Y-24224745D01*
X21813865Y-24220909D01*
X21776091Y-24162131D01*
X21776091Y-24092261D01*
X21813865Y-24033483D01*
X21828021Y-24022885D01*
X21876032Y-23992031D01*
X21970254Y-23883294D01*
X22030024Y-23752416D01*
X22050500Y-23610000D01*
X22050500Y-23464023D01*
X22070185Y-23396984D01*
X22112500Y-23356636D01*
X22140416Y-23340520D01*
X22252220Y-23228716D01*
X22252220Y-23228714D01*
X22262428Y-23218507D01*
X22262430Y-23218504D01*
X22319613Y-23161320D01*
X22380934Y-23127837D01*
X22421174Y-23125783D01*
X22480480Y-23132465D01*
X22499999Y-23134665D01*
X22500000Y-23134665D01*
X22500003Y-23134665D01*
X22679249Y-23114469D01*
X22679252Y-23114468D01*
X22679255Y-23114468D01*
X22849522Y-23054889D01*
X23002262Y-22958916D01*
X23129816Y-22831362D01*
X23225789Y-22678622D01*
X23285368Y-22508355D01*
X23305565Y-22329100D01*
X23299614Y-22276286D01*
X23285369Y-22149850D01*
X23285368Y-22149845D01*
X23225788Y-21979576D01*
X23129815Y-21826837D01*
X23002262Y-21699284D01*
X22993007Y-21693469D01*
X22946716Y-21641134D01*
X22936068Y-21572081D01*
X22964443Y-21508232D01*
X22993004Y-21483483D01*
X23032262Y-21458816D01*
X23159816Y-21331262D01*
X23255789Y-21178522D01*
X23315368Y-21008255D01*
X23326796Y-20906828D01*
X23335565Y-20829003D01*
X23335565Y-20828996D01*
X23315369Y-20649750D01*
X23315368Y-20649745D01*
X23306348Y-20623968D01*
X23255789Y-20479478D01*
X23159816Y-20326738D01*
X23032262Y-20199184D01*
X22879523Y-20103211D01*
X22709254Y-20043631D01*
X22709249Y-20043630D01*
X22530004Y-20023435D01*
X22529996Y-20023435D01*
X22458455Y-20031495D01*
X22389634Y-20019440D01*
X22356892Y-19995956D01*
X22200417Y-19839481D01*
X22200416Y-19839480D01*
X22113604Y-19789360D01*
X22113604Y-19789359D01*
X22113601Y-19789358D01*
X22097495Y-19780059D01*
X22049283Y-19729492D01*
X22035500Y-19672675D01*
X22035500Y-19570000D01*
X22030355Y-19498060D01*
X21989819Y-19360008D01*
X21912031Y-19238968D01*
X21803294Y-19144746D01*
X21672416Y-19084976D01*
X21672412Y-19084975D01*
X21664349Y-19081293D01*
X21665695Y-19078345D01*
X21620253Y-19049114D01*
X21591255Y-18985546D01*
X21590000Y-18967951D01*
X21590000Y2540002D01*
X24710517Y2540002D01*
X24710517Y2539999D01*
X24730410Y2312617D01*
X24730412Y2312606D01*
X24789485Y2092138D01*
X24789487Y2092134D01*
X24789488Y2092130D01*
X24795448Y2079349D01*
X24885953Y1885259D01*
X24885955Y1885255D01*
X24997074Y1726564D01*
X25019402Y1660358D01*
X25019500Y1655440D01*
X25019500Y-4528541D01*
X25019500Y-4528543D01*
X25019499Y-4528543D01*
X25057947Y-4721829D01*
X25057950Y-4721839D01*
X25133364Y-4903907D01*
X25133371Y-4903920D01*
X25242860Y-5067781D01*
X25242863Y-5067785D01*
X25386537Y-5211459D01*
X25386559Y-5211479D01*
X42262571Y-22087491D01*
X42296056Y-22148814D01*
X42292310Y-22215029D01*
X42271520Y-22276274D01*
X42271517Y-22276286D01*
X42213968Y-22565609D01*
X42213964Y-22565636D01*
X42194671Y-22859992D01*
X42194671Y-22860007D01*
X42213964Y-23154363D01*
X42213965Y-23154373D01*
X42213966Y-23154380D01*
X42262222Y-23396984D01*
X42271518Y-23443716D01*
X42271521Y-23443730D01*
X42366349Y-23723080D01*
X42496825Y-23987660D01*
X42496829Y-23987667D01*
X42660725Y-24232955D01*
X42855241Y-24454758D01*
X43077043Y-24649273D01*
X43322335Y-24813172D01*
X43586923Y-24943652D01*
X43866278Y-25038481D01*
X44155620Y-25096034D01*
X44183888Y-25097886D01*
X44449993Y-25115329D01*
X44450000Y-25115329D01*
X44450007Y-25115329D01*
X44685675Y-25099881D01*
X44744380Y-25096034D01*
X45033722Y-25038481D01*
X45313077Y-24943652D01*
X45577665Y-24813172D01*
X45822957Y-24649273D01*
X46044758Y-24454758D01*
X46239273Y-24232957D01*
X46403172Y-23987665D01*
X46533652Y-23723077D01*
X46628481Y-23443722D01*
X46686034Y-23154380D01*
X46705329Y-22860000D01*
X46705329Y-22859992D01*
X46686035Y-22565636D01*
X46686034Y-22565620D01*
X46628481Y-22276278D01*
X46533652Y-21996923D01*
X46403172Y-21732336D01*
X46381087Y-21699284D01*
X46342233Y-21641134D01*
X46239273Y-21487043D01*
X46133429Y-21366351D01*
X46044758Y-21265241D01*
X45822955Y-21070725D01*
X45577667Y-20906829D01*
X45577660Y-20906825D01*
X45313080Y-20776349D01*
X45033730Y-20681521D01*
X45033724Y-20681519D01*
X45033722Y-20681519D01*
X44744380Y-20623966D01*
X44744373Y-20623965D01*
X44744363Y-20623964D01*
X44450007Y-20604671D01*
X44449993Y-20604671D01*
X44155636Y-20623964D01*
X44155624Y-20623965D01*
X44155620Y-20623966D01*
X44155612Y-20623967D01*
X44155609Y-20623968D01*
X43866286Y-20681517D01*
X43866274Y-20681520D01*
X43805029Y-20702310D01*
X43735220Y-20705218D01*
X43677491Y-20672571D01*
X27056819Y-4051899D01*
X27023334Y-3990576D01*
X27020500Y-3964218D01*
X27020500Y1655440D01*
X27040185Y1722479D01*
X27042926Y1726564D01*
X27154044Y1885255D01*
X27154046Y1885259D01*
X27187159Y1956270D01*
X27250512Y2092130D01*
X27309589Y2312611D01*
X27329483Y2540000D01*
X27329483Y2540002D01*
X31710517Y2540002D01*
X31710517Y2539999D01*
X31730410Y2312617D01*
X31730412Y2312606D01*
X31789485Y2092138D01*
X31789487Y2092134D01*
X31789488Y2092130D01*
X31795448Y2079349D01*
X31885953Y1885259D01*
X31885955Y1885255D01*
X31997074Y1726564D01*
X32019402Y1660358D01*
X32019500Y1655440D01*
X32019500Y-6448544D01*
X32038724Y-6545188D01*
X32047617Y-6589896D01*
X32057947Y-6641829D01*
X32057949Y-6641837D01*
X32133364Y-6823907D01*
X32133371Y-6823920D01*
X32242860Y-6987781D01*
X32242863Y-6987785D01*
X32386537Y-7131459D01*
X32386559Y-7131479D01*
X42262571Y-17007491D01*
X42296056Y-17068814D01*
X42292310Y-17135029D01*
X42271520Y-17196274D01*
X42271517Y-17196286D01*
X42213968Y-17485609D01*
X42213964Y-17485636D01*
X42194671Y-17779992D01*
X42194671Y-17780007D01*
X42213964Y-18074363D01*
X42213965Y-18074373D01*
X42213966Y-18074380D01*
X42213968Y-18074390D01*
X42271518Y-18363716D01*
X42271521Y-18363730D01*
X42366349Y-18643080D01*
X42496825Y-18907660D01*
X42496829Y-18907667D01*
X42660725Y-19152955D01*
X42855241Y-19374758D01*
X43077044Y-19569274D01*
X43078131Y-19570000D01*
X43322335Y-19733172D01*
X43586923Y-19863652D01*
X43866278Y-19958481D01*
X44155620Y-20016034D01*
X44183888Y-20017886D01*
X44449993Y-20035329D01*
X44450000Y-20035329D01*
X44450007Y-20035329D01*
X44692415Y-20019440D01*
X44744380Y-20016034D01*
X45033722Y-19958481D01*
X45313077Y-19863652D01*
X45577665Y-19733172D01*
X45822957Y-19569273D01*
X46044758Y-19374758D01*
X46239273Y-19152957D01*
X46403172Y-18907665D01*
X46533652Y-18643077D01*
X46628481Y-18363722D01*
X46686034Y-18074380D01*
X46705329Y-17780000D01*
X46705329Y-17779992D01*
X46686035Y-17485636D01*
X46686034Y-17485620D01*
X46628481Y-17196278D01*
X46533652Y-16916923D01*
X46403172Y-16652336D01*
X46239273Y-16407043D01*
X46196655Y-16358447D01*
X46044758Y-16185241D01*
X45822955Y-15990725D01*
X45577667Y-15826829D01*
X45577660Y-15826825D01*
X45313080Y-15696349D01*
X45033730Y-15601521D01*
X45033724Y-15601519D01*
X45033722Y-15601519D01*
X44744380Y-15543966D01*
X44744373Y-15543965D01*
X44744363Y-15543964D01*
X44450007Y-15524671D01*
X44449993Y-15524671D01*
X44155636Y-15543964D01*
X44155624Y-15543965D01*
X44155620Y-15543966D01*
X44155612Y-15543967D01*
X44155609Y-15543968D01*
X43866286Y-15601517D01*
X43866274Y-15601520D01*
X43805029Y-15622310D01*
X43735220Y-15625218D01*
X43677491Y-15592571D01*
X35704912Y-7619992D01*
X42194671Y-7619992D01*
X42194671Y-7620007D01*
X42213964Y-7914363D01*
X42213965Y-7914373D01*
X42213966Y-7914380D01*
X42213968Y-7914390D01*
X42271518Y-8203716D01*
X42271521Y-8203730D01*
X42366349Y-8483080D01*
X42496825Y-8747660D01*
X42496829Y-8747667D01*
X42660725Y-8992955D01*
X42855241Y-9214758D01*
X43077043Y-9409273D01*
X43322335Y-9573172D01*
X43586923Y-9703652D01*
X43866278Y-9798481D01*
X44155620Y-9856034D01*
X44183888Y-9857886D01*
X44449993Y-9875329D01*
X44450000Y-9875329D01*
X44450007Y-9875329D01*
X44685675Y-9859881D01*
X44744380Y-9856034D01*
X45033722Y-9798481D01*
X45313077Y-9703652D01*
X45577665Y-9573172D01*
X45822957Y-9409273D01*
X46044758Y-9214758D01*
X46239273Y-8992957D01*
X46403172Y-8747665D01*
X46533652Y-8483077D01*
X46628481Y-8203722D01*
X46686034Y-7914380D01*
X46705329Y-7620000D01*
X46705329Y-7619992D01*
X46686035Y-7325636D01*
X46686034Y-7325620D01*
X46628481Y-7036278D01*
X46533652Y-6756923D01*
X46403172Y-6492336D01*
X46239273Y-6247043D01*
X46196655Y-6198447D01*
X46044758Y-6025241D01*
X45822955Y-5830725D01*
X45577667Y-5666829D01*
X45577660Y-5666825D01*
X45313080Y-5536349D01*
X45033730Y-5441521D01*
X45033724Y-5441519D01*
X45033722Y-5441519D01*
X44744380Y-5383966D01*
X44744373Y-5383965D01*
X44744363Y-5383964D01*
X44450007Y-5364671D01*
X44449993Y-5364671D01*
X44155636Y-5383964D01*
X44155624Y-5383965D01*
X44155620Y-5383966D01*
X44155612Y-5383967D01*
X44155609Y-5383968D01*
X43866283Y-5441518D01*
X43866269Y-5441521D01*
X43586919Y-5536349D01*
X43322334Y-5666828D01*
X43077041Y-5830728D01*
X42855241Y-6025241D01*
X42660728Y-6247041D01*
X42496828Y-6492334D01*
X42366349Y-6756919D01*
X42271521Y-7036269D01*
X42271518Y-7036283D01*
X42213968Y-7325609D01*
X42213964Y-7325636D01*
X42194671Y-7619992D01*
X35704912Y-7619992D01*
X34056819Y-5971899D01*
X34023334Y-5910576D01*
X34020500Y-5884218D01*
X34020500Y1655440D01*
X34040185Y1722479D01*
X34042926Y1726564D01*
X34154044Y1885255D01*
X34154046Y1885259D01*
X34187159Y1956270D01*
X34250512Y2092130D01*
X34309589Y2312611D01*
X34329483Y2540000D01*
X34309589Y2767389D01*
X34250512Y2987870D01*
X34154046Y3194741D01*
X34154044Y3194745D01*
X34023121Y3381720D01*
X33861722Y3543119D01*
X33861712Y3543128D01*
X33674745Y3674045D01*
X33674741Y3674047D01*
X33571306Y3722279D01*
X33467870Y3770512D01*
X33467866Y3770513D01*
X33467862Y3770515D01*
X33247394Y3829588D01*
X33247390Y3829589D01*
X33247389Y3829589D01*
X33247388Y3829590D01*
X33247383Y3829590D01*
X33020002Y3849483D01*
X33019998Y3849483D01*
X32792616Y3829590D01*
X32792605Y3829588D01*
X32572137Y3770515D01*
X32572128Y3770511D01*
X32365259Y3674047D01*
X32365255Y3674045D01*
X32178280Y3543122D01*
X32016878Y3381720D01*
X31885955Y3194745D01*
X31885953Y3194741D01*
X31789489Y2987872D01*
X31789485Y2987863D01*
X31730412Y2767395D01*
X31730410Y2767384D01*
X31710517Y2540002D01*
X27329483Y2540002D01*
X27309589Y2767389D01*
X27250512Y2987870D01*
X27154046Y3194741D01*
X27154044Y3194745D01*
X27023121Y3381720D01*
X26861722Y3543119D01*
X26861712Y3543128D01*
X26674745Y3674045D01*
X26674741Y3674047D01*
X26571306Y3722279D01*
X26467870Y3770512D01*
X26467866Y3770513D01*
X26467862Y3770515D01*
X26247394Y3829588D01*
X26247390Y3829589D01*
X26247389Y3829589D01*
X26247388Y3829590D01*
X26247383Y3829590D01*
X26020002Y3849483D01*
X26019998Y3849483D01*
X25792616Y3829590D01*
X25792605Y3829588D01*
X25572137Y3770515D01*
X25572128Y3770511D01*
X25365259Y3674047D01*
X25365255Y3674045D01*
X25178280Y3543122D01*
X25016878Y3381720D01*
X24885955Y3194745D01*
X24885953Y3194741D01*
X24789489Y2987872D01*
X24789485Y2987863D01*
X24730412Y2767395D01*
X24730410Y2767384D01*
X24710517Y2540002D01*
X21590000Y2540002D01*
X21590000Y12700002D01*
X24710517Y12700002D01*
X24710517Y12699999D01*
X24730410Y12472617D01*
X24730412Y12472606D01*
X24789485Y12252138D01*
X24789487Y12252134D01*
X24789488Y12252130D01*
X24837721Y12148694D01*
X24885953Y12045259D01*
X24885955Y12045255D01*
X25016872Y11858288D01*
X25016881Y11858278D01*
X25178277Y11696882D01*
X25178287Y11696873D01*
X25365254Y11565956D01*
X25365258Y11565954D01*
X25572130Y11469488D01*
X25792611Y11410411D01*
X25955031Y11396201D01*
X26019998Y11390517D01*
X26020000Y11390517D01*
X26020002Y11390517D01*
X26076847Y11395491D01*
X26247389Y11410411D01*
X26467870Y11469488D01*
X26674742Y11565954D01*
X26833438Y11677076D01*
X26899643Y11699402D01*
X26904561Y11699500D01*
X28744218Y11699500D01*
X28811257Y11679815D01*
X28831899Y11663181D01*
X42262571Y-1767492D01*
X42296056Y-1828815D01*
X42292309Y-1895031D01*
X42271523Y-1956264D01*
X42271518Y-1956283D01*
X42213968Y-2245609D01*
X42213964Y-2245636D01*
X42194671Y-2539992D01*
X42194671Y-2540007D01*
X42213964Y-2834363D01*
X42213965Y-2834373D01*
X42213966Y-2834380D01*
X42213968Y-2834390D01*
X42271518Y-3123716D01*
X42271521Y-3123730D01*
X42366349Y-3403080D01*
X42496825Y-3667660D01*
X42496829Y-3667667D01*
X42660725Y-3912955D01*
X42855241Y-4134758D01*
X43077043Y-4329273D01*
X43322335Y-4493172D01*
X43586923Y-4623652D01*
X43866278Y-4718481D01*
X44155620Y-4776034D01*
X44183888Y-4777886D01*
X44449993Y-4795329D01*
X44450000Y-4795329D01*
X44450007Y-4795329D01*
X44685675Y-4779881D01*
X44744380Y-4776034D01*
X45033722Y-4718481D01*
X45313077Y-4623652D01*
X45577665Y-4493172D01*
X45822957Y-4329273D01*
X46044758Y-4134758D01*
X46239273Y-3912957D01*
X46403172Y-3667665D01*
X46533652Y-3403077D01*
X46628481Y-3123722D01*
X46686034Y-2834380D01*
X46705329Y-2540000D01*
X46705329Y-2539992D01*
X46686035Y-2245636D01*
X46686034Y-2245620D01*
X46628481Y-1956278D01*
X46533652Y-1676923D01*
X46403172Y-1412336D01*
X46239273Y-1167043D01*
X46196655Y-1118447D01*
X46044758Y-945241D01*
X45822955Y-750725D01*
X45577667Y-586829D01*
X45577660Y-586825D01*
X45313080Y-456349D01*
X45033730Y-361521D01*
X45033724Y-361519D01*
X45033722Y-361519D01*
X44744380Y-303966D01*
X44744373Y-303965D01*
X44744363Y-303964D01*
X44450007Y-284671D01*
X44449993Y-284671D01*
X44155636Y-303964D01*
X44155624Y-303965D01*
X44155620Y-303966D01*
X44155612Y-303967D01*
X44155609Y-303968D01*
X43911263Y-352571D01*
X43866278Y-361519D01*
X43866273Y-361520D01*
X43866264Y-361523D01*
X43805031Y-382309D01*
X43735222Y-385219D01*
X43677492Y-352571D01*
X30624918Y12700002D01*
X31710517Y12700002D01*
X31710517Y12699999D01*
X31730410Y12472617D01*
X31730412Y12472606D01*
X31789485Y12252138D01*
X31789487Y12252134D01*
X31789488Y12252130D01*
X31837721Y12148694D01*
X31885953Y12045259D01*
X31885955Y12045255D01*
X32016872Y11858288D01*
X32016881Y11858278D01*
X32178277Y11696882D01*
X32178287Y11696873D01*
X32365254Y11565956D01*
X32365258Y11565954D01*
X32572130Y11469488D01*
X32792611Y11410411D01*
X32859494Y11404560D01*
X32924562Y11379108D01*
X32936367Y11368713D01*
X42225731Y2079349D01*
X42259216Y2018026D01*
X42259667Y2015860D01*
X42271518Y1956283D01*
X42271521Y1956271D01*
X42366349Y1676920D01*
X42496825Y1412340D01*
X42496829Y1412333D01*
X42660725Y1167045D01*
X42855241Y945242D01*
X43077043Y750727D01*
X43322335Y586828D01*
X43586923Y456348D01*
X43866278Y361519D01*
X44155620Y303966D01*
X44183888Y302114D01*
X44449993Y284671D01*
X44450000Y284671D01*
X44450007Y284671D01*
X44685675Y300119D01*
X44744380Y303966D01*
X45033722Y361519D01*
X45313077Y456348D01*
X45577665Y586828D01*
X45822957Y750727D01*
X46044758Y945242D01*
X46239273Y1167043D01*
X46403172Y1412335D01*
X46533652Y1676923D01*
X46628481Y1956278D01*
X46686034Y2245620D01*
X46705329Y2540000D01*
X46705329Y2540002D01*
X46705329Y2540008D01*
X46686035Y2834364D01*
X46686034Y2834380D01*
X46628481Y3123722D01*
X46533652Y3403077D01*
X46403172Y3667664D01*
X46398908Y3674045D01*
X46294978Y3829588D01*
X46239273Y3912957D01*
X46196655Y3961553D01*
X46044758Y4134759D01*
X45822955Y4329275D01*
X45577667Y4493171D01*
X45577660Y4493175D01*
X45313080Y4623651D01*
X45033730Y4718479D01*
X45033724Y4718481D01*
X45033722Y4718481D01*
X44744380Y4776034D01*
X44744373Y4776035D01*
X44744363Y4776036D01*
X44450007Y4795329D01*
X44449993Y4795329D01*
X44155636Y4776036D01*
X44155624Y4776035D01*
X44155620Y4776034D01*
X44155612Y4776033D01*
X44155609Y4776032D01*
X43866283Y4718482D01*
X43866269Y4718479D01*
X43586919Y4623651D01*
X43322334Y4493172D01*
X43077041Y4329272D01*
X43019768Y4279045D01*
X42956386Y4249642D01*
X42887169Y4259174D01*
X42850328Y4284592D01*
X34434912Y12700008D01*
X42194671Y12700008D01*
X42194671Y12699993D01*
X42213964Y12405637D01*
X42213965Y12405627D01*
X42213966Y12405620D01*
X42213968Y12405610D01*
X42271518Y12116284D01*
X42271521Y12116270D01*
X42366349Y11836920D01*
X42496825Y11572340D01*
X42496829Y11572333D01*
X42660725Y11327045D01*
X42855241Y11105242D01*
X43077043Y10910727D01*
X43322335Y10746828D01*
X43586923Y10616348D01*
X43866278Y10521519D01*
X44155620Y10463966D01*
X44183888Y10462114D01*
X44449993Y10444671D01*
X44450000Y10444671D01*
X44450007Y10444671D01*
X44685675Y10460119D01*
X44744380Y10463966D01*
X45033722Y10521519D01*
X45313077Y10616348D01*
X45577665Y10746828D01*
X45822957Y10910727D01*
X46044758Y11105242D01*
X46239273Y11327043D01*
X46403172Y11572335D01*
X46533652Y11836923D01*
X46628481Y12116278D01*
X46686034Y12405620D01*
X46705329Y12700000D01*
X46705329Y12700002D01*
X46705329Y12700008D01*
X46686035Y12994364D01*
X46686034Y12994380D01*
X46628481Y13283722D01*
X46533652Y13563077D01*
X46403172Y13827664D01*
X46398908Y13834045D01*
X46294978Y13989588D01*
X46239273Y14072957D01*
X46196655Y14121553D01*
X46044758Y14294759D01*
X45822955Y14489275D01*
X45577667Y14653171D01*
X45577660Y14653175D01*
X45313080Y14783651D01*
X45033730Y14878479D01*
X45033724Y14878481D01*
X45033722Y14878481D01*
X44744380Y14936034D01*
X44744373Y14936035D01*
X44744363Y14936036D01*
X44450007Y14955329D01*
X44449993Y14955329D01*
X44155636Y14936036D01*
X44155624Y14936035D01*
X44155620Y14936034D01*
X44155612Y14936033D01*
X44155609Y14936032D01*
X43866283Y14878482D01*
X43866269Y14878479D01*
X43586919Y14783651D01*
X43322334Y14653172D01*
X43077041Y14489272D01*
X42855241Y14294759D01*
X42660728Y14072959D01*
X42496828Y13827666D01*
X42366349Y13563081D01*
X42271521Y13283731D01*
X42271518Y13283717D01*
X42213968Y12994391D01*
X42213964Y12994364D01*
X42194671Y12700008D01*
X34434912Y12700008D01*
X34351287Y12783633D01*
X34317802Y12844956D01*
X34315440Y12860507D01*
X34309589Y12927384D01*
X34309589Y12927389D01*
X34250512Y13147870D01*
X34154046Y13354741D01*
X34154044Y13354745D01*
X34023121Y13541720D01*
X33861722Y13703119D01*
X33861712Y13703128D01*
X33674745Y13834045D01*
X33674741Y13834047D01*
X33571306Y13882279D01*
X33467870Y13930512D01*
X33467866Y13930513D01*
X33467862Y13930515D01*
X33247394Y13989588D01*
X33247390Y13989589D01*
X33247389Y13989589D01*
X33247388Y13989590D01*
X33247383Y13989590D01*
X33020002Y14009483D01*
X33019998Y14009483D01*
X32792616Y13989590D01*
X32792605Y13989588D01*
X32572137Y13930515D01*
X32572128Y13930511D01*
X32365259Y13834047D01*
X32365255Y13834045D01*
X32178280Y13703122D01*
X32016878Y13541720D01*
X31885955Y13354745D01*
X31885953Y13354741D01*
X31789489Y13147872D01*
X31789485Y13147863D01*
X31730412Y12927395D01*
X31730410Y12927384D01*
X31710517Y12700002D01*
X30624918Y12700002D01*
X29994209Y13330711D01*
X29994206Y13330715D01*
X29994206Y13330714D01*
X29987139Y13337781D01*
X29987139Y13337782D01*
X29847782Y13477139D01*
X29847781Y13477140D01*
X29847780Y13477141D01*
X29683920Y13586629D01*
X29683911Y13586634D01*
X29611315Y13616704D01*
X29555165Y13639962D01*
X29501836Y13662051D01*
X29501832Y13662052D01*
X29501828Y13662054D01*
X29405188Y13681276D01*
X29308544Y13700500D01*
X29308541Y13700500D01*
X26904561Y13700500D01*
X26837522Y13720185D01*
X26833452Y13722915D01*
X26674742Y13834046D01*
X26674741Y13834047D01*
X26674739Y13834048D01*
X26565162Y13885144D01*
X26467870Y13930512D01*
X26467866Y13930513D01*
X26467862Y13930515D01*
X26247394Y13989588D01*
X26247390Y13989589D01*
X26247389Y13989589D01*
X26247388Y13989590D01*
X26247383Y13989590D01*
X26020002Y14009483D01*
X26019998Y14009483D01*
X25792616Y13989590D01*
X25792605Y13989588D01*
X25572137Y13930515D01*
X25572128Y13930511D01*
X25365259Y13834047D01*
X25365255Y13834045D01*
X25178280Y13703122D01*
X25016878Y13541720D01*
X24885955Y13354745D01*
X24885953Y13354741D01*
X24789489Y13147872D01*
X24789485Y13147863D01*
X24730412Y12927395D01*
X24730410Y12927384D01*
X24710517Y12700002D01*
X21590000Y12700002D01*
X21590000Y22860002D01*
X24710517Y22860002D01*
X24710517Y22859999D01*
X24730410Y22632617D01*
X24730412Y22632606D01*
X24789485Y22412138D01*
X24789487Y22412134D01*
X24789488Y22412130D01*
X24837721Y22308694D01*
X24885953Y22205259D01*
X24885955Y22205255D01*
X25016872Y22018288D01*
X25016881Y22018278D01*
X25178277Y21856882D01*
X25178287Y21856873D01*
X25365254Y21725956D01*
X25365258Y21725954D01*
X25572130Y21629488D01*
X25792611Y21570411D01*
X25859494Y21564560D01*
X25924562Y21539108D01*
X25936367Y21528713D01*
X30319735Y17145345D01*
X30319764Y17145314D01*
X30462214Y17002864D01*
X30462218Y17002861D01*
X30626079Y16893372D01*
X30626092Y16893365D01*
X30754833Y16840039D01*
X30797744Y16822265D01*
X30808164Y16817949D01*
X30904812Y16798725D01*
X30953135Y16789113D01*
X31001458Y16779500D01*
X31001459Y16779500D01*
X31001460Y16779500D01*
X31198540Y16779500D01*
X42357009Y16779500D01*
X42424048Y16759815D01*
X42468222Y16710343D01*
X42496827Y16652336D01*
X42660728Y16407042D01*
X42855241Y16185242D01*
X43077043Y15990727D01*
X43322335Y15826828D01*
X43586923Y15696348D01*
X43866278Y15601519D01*
X44155620Y15543966D01*
X44183888Y15542114D01*
X44449993Y15524671D01*
X44450000Y15524671D01*
X44450007Y15524671D01*
X44685675Y15540119D01*
X44744380Y15543966D01*
X45033722Y15601519D01*
X45313077Y15696348D01*
X45577665Y15826828D01*
X45822957Y15990727D01*
X46044758Y16185242D01*
X46239273Y16407043D01*
X46403172Y16652335D01*
X46533652Y16916923D01*
X46628481Y17196278D01*
X46686034Y17485620D01*
X46705329Y17780000D01*
X46705329Y17780008D01*
X46686035Y18074364D01*
X46686034Y18074380D01*
X46628481Y18363722D01*
X46533652Y18643077D01*
X46403172Y18907664D01*
X46239273Y19152957D01*
X46196655Y19201553D01*
X46044758Y19374759D01*
X45822955Y19569275D01*
X45577667Y19733171D01*
X45577660Y19733175D01*
X45313080Y19863651D01*
X45033730Y19958479D01*
X45033724Y19958481D01*
X45033722Y19958481D01*
X44744380Y20016034D01*
X44744373Y20016035D01*
X44744363Y20016036D01*
X44450007Y20035329D01*
X44449993Y20035329D01*
X44155636Y20016036D01*
X44155624Y20016035D01*
X44155620Y20016034D01*
X44155612Y20016033D01*
X44155609Y20016032D01*
X43866283Y19958482D01*
X43866269Y19958479D01*
X43586919Y19863651D01*
X43322334Y19733172D01*
X43077041Y19569272D01*
X42855241Y19374759D01*
X42660728Y19152959D01*
X42496830Y18907669D01*
X42496829Y18907666D01*
X42496828Y18907664D01*
X42468221Y18849656D01*
X42420917Y18798237D01*
X42357010Y18780500D01*
X31565782Y18780500D01*
X31498743Y18800185D01*
X31478101Y18816819D01*
X27434918Y22860002D01*
X31710517Y22860002D01*
X31710517Y22859999D01*
X31730410Y22632617D01*
X31730412Y22632606D01*
X31789485Y22412138D01*
X31789487Y22412134D01*
X31789488Y22412130D01*
X31837721Y22308694D01*
X31885953Y22205259D01*
X31885955Y22205255D01*
X32016872Y22018288D01*
X32016881Y22018278D01*
X32178277Y21856882D01*
X32178287Y21856873D01*
X32365254Y21725956D01*
X32365258Y21725954D01*
X32572130Y21629488D01*
X32792611Y21570411D01*
X32955031Y21556201D01*
X33019998Y21550517D01*
X33020000Y21550517D01*
X33020002Y21550517D01*
X33076847Y21555491D01*
X33247389Y21570411D01*
X33467870Y21629488D01*
X33674742Y21725954D01*
X33833438Y21837076D01*
X33899643Y21859402D01*
X33904561Y21859500D01*
X42357009Y21859500D01*
X42424048Y21839815D01*
X42468222Y21790343D01*
X42496827Y21732336D01*
X42501092Y21725953D01*
X42611560Y21560626D01*
X42660728Y21487042D01*
X42855241Y21265242D01*
X43077043Y21070727D01*
X43322335Y20906828D01*
X43586923Y20776348D01*
X43866278Y20681519D01*
X44155620Y20623966D01*
X44183888Y20622114D01*
X44449993Y20604671D01*
X44450000Y20604671D01*
X44450007Y20604671D01*
X44685675Y20620119D01*
X44744380Y20623966D01*
X45033722Y20681519D01*
X45313077Y20776348D01*
X45577665Y20906828D01*
X45822957Y21070727D01*
X46044758Y21265242D01*
X46239273Y21487043D01*
X46403172Y21732335D01*
X46533652Y21996923D01*
X46628481Y22276278D01*
X46686034Y22565620D01*
X46705329Y22860000D01*
X46705329Y22860002D01*
X46705329Y22860008D01*
X46686035Y23154364D01*
X46686034Y23154380D01*
X46628481Y23443722D01*
X46533652Y23723077D01*
X46403172Y23987664D01*
X46398908Y23994045D01*
X46294978Y24149588D01*
X46239273Y24232957D01*
X46196655Y24281553D01*
X46044758Y24454759D01*
X45822955Y24649275D01*
X45577667Y24813171D01*
X45577660Y24813175D01*
X45313080Y24943651D01*
X45033730Y25038479D01*
X45033724Y25038481D01*
X45033722Y25038481D01*
X44744380Y25096034D01*
X44744373Y25096035D01*
X44744363Y25096036D01*
X44450007Y25115329D01*
X44449993Y25115329D01*
X44155636Y25096036D01*
X44155624Y25096035D01*
X44155620Y25096034D01*
X44155612Y25096033D01*
X44155609Y25096032D01*
X43866283Y25038482D01*
X43866269Y25038479D01*
X43586919Y24943651D01*
X43322334Y24813172D01*
X43077041Y24649272D01*
X42855241Y24454759D01*
X42660728Y24232959D01*
X42496830Y23987669D01*
X42496829Y23987666D01*
X42496828Y23987664D01*
X42468221Y23929656D01*
X42420917Y23878237D01*
X42357010Y23860500D01*
X33904561Y23860500D01*
X33837522Y23880185D01*
X33833452Y23882915D01*
X33674742Y23994046D01*
X33674741Y23994047D01*
X33674739Y23994048D01*
X33565162Y24045144D01*
X33467870Y24090512D01*
X33467866Y24090513D01*
X33467862Y24090515D01*
X33247394Y24149588D01*
X33247390Y24149589D01*
X33247389Y24149589D01*
X33247388Y24149590D01*
X33247383Y24149590D01*
X33020002Y24169483D01*
X33019998Y24169483D01*
X32792616Y24149590D01*
X32792605Y24149588D01*
X32572137Y24090515D01*
X32572128Y24090511D01*
X32365259Y23994047D01*
X32365255Y23994045D01*
X32178280Y23863122D01*
X32016878Y23701720D01*
X31885955Y23514745D01*
X31885953Y23514741D01*
X31789489Y23307872D01*
X31789485Y23307863D01*
X31730412Y23087395D01*
X31730410Y23087384D01*
X31710517Y22860002D01*
X27434918Y22860002D01*
X27351287Y22943633D01*
X27317802Y23004956D01*
X27315440Y23020507D01*
X27309589Y23087384D01*
X27309589Y23087389D01*
X27250512Y23307870D01*
X27154046Y23514741D01*
X27154044Y23514745D01*
X27023121Y23701720D01*
X26861722Y23863119D01*
X26861712Y23863128D01*
X26674745Y23994045D01*
X26674741Y23994047D01*
X26571306Y24042279D01*
X26467870Y24090512D01*
X26467866Y24090513D01*
X26467862Y24090515D01*
X26247394Y24149588D01*
X26247390Y24149589D01*
X26247389Y24149589D01*
X26247388Y24149590D01*
X26247383Y24149590D01*
X26020002Y24169483D01*
X26019998Y24169483D01*
X25792616Y24149590D01*
X25792605Y24149588D01*
X25572137Y24090515D01*
X25572128Y24090511D01*
X25365259Y23994047D01*
X25365255Y23994045D01*
X25178280Y23863122D01*
X25016878Y23701720D01*
X24885955Y23514745D01*
X24885953Y23514741D01*
X24789489Y23307872D01*
X24789485Y23307863D01*
X24730412Y23087395D01*
X24730410Y23087384D01*
X24710517Y22860002D01*
X21590000Y22860002D01*
X21590000Y33020002D01*
X24710517Y33020002D01*
X24710517Y33019999D01*
X24730410Y32792617D01*
X24730412Y32792606D01*
X24789485Y32572138D01*
X24789487Y32572134D01*
X24789488Y32572130D01*
X24837721Y32468694D01*
X24885953Y32365259D01*
X24885955Y32365255D01*
X25016872Y32178288D01*
X25016881Y32178278D01*
X25178277Y32016882D01*
X25178287Y32016873D01*
X25365254Y31885956D01*
X25365258Y31885954D01*
X25572130Y31789488D01*
X25792611Y31730411D01*
X25859492Y31724561D01*
X25924559Y31699110D01*
X25936365Y31688715D01*
X27046860Y30578219D01*
X27046861Y30578218D01*
X27186218Y30438861D01*
X27186219Y30438860D01*
X27350079Y30329372D01*
X27350092Y30329365D01*
X27478833Y30276039D01*
X27521744Y30258265D01*
X27532164Y30253949D01*
X27628812Y30234725D01*
X27677135Y30225113D01*
X27725458Y30215500D01*
X27725459Y30215500D01*
X37664542Y30215500D01*
X37683870Y30219345D01*
X37761188Y30234725D01*
X37857836Y30253949D01*
X37911165Y30276039D01*
X38039914Y30329368D01*
X38203782Y30438861D01*
X38343139Y30578218D01*
X38343140Y30578221D01*
X38350206Y30585286D01*
X38350209Y30585290D01*
X40784927Y33020008D01*
X42194671Y33020008D01*
X42194671Y33019993D01*
X42213964Y32725637D01*
X42213965Y32725627D01*
X42213966Y32725620D01*
X42213968Y32725610D01*
X42271518Y32436284D01*
X42271521Y32436270D01*
X42366349Y32156920D01*
X42496825Y31892340D01*
X42496829Y31892333D01*
X42660725Y31647045D01*
X42855241Y31425242D01*
X43077043Y31230727D01*
X43322335Y31066828D01*
X43586923Y30936348D01*
X43866278Y30841519D01*
X44155620Y30783966D01*
X44183888Y30782114D01*
X44449993Y30764671D01*
X44450000Y30764671D01*
X44450007Y30764671D01*
X44685675Y30780119D01*
X44744380Y30783966D01*
X45033722Y30841519D01*
X45313077Y30936348D01*
X45577665Y31066828D01*
X45822957Y31230727D01*
X46044758Y31425242D01*
X46239273Y31647043D01*
X46403172Y31892335D01*
X46533652Y32156923D01*
X46628481Y32436278D01*
X46686034Y32725620D01*
X46699074Y32924563D01*
X46705329Y33019993D01*
X46705329Y33020008D01*
X46686035Y33314364D01*
X46686034Y33314380D01*
X46628481Y33603722D01*
X46533652Y33883077D01*
X46403172Y34147664D01*
X46398908Y34154045D01*
X46294978Y34309588D01*
X46239273Y34392957D01*
X46196655Y34441553D01*
X46044758Y34614759D01*
X45822955Y34809275D01*
X45577667Y34973171D01*
X45577660Y34973175D01*
X45313080Y35103651D01*
X45033730Y35198479D01*
X45033724Y35198481D01*
X45033722Y35198481D01*
X44744380Y35256034D01*
X44744373Y35256035D01*
X44744363Y35256036D01*
X44450007Y35275329D01*
X44449993Y35275329D01*
X44155636Y35256036D01*
X44155624Y35256035D01*
X44155620Y35256034D01*
X44155612Y35256033D01*
X44155609Y35256032D01*
X43866283Y35198482D01*
X43866269Y35198479D01*
X43586919Y35103651D01*
X43322334Y34973172D01*
X43077041Y34809272D01*
X42855241Y34614759D01*
X42660728Y34392959D01*
X42496828Y34147666D01*
X42366349Y33883081D01*
X42271521Y33603731D01*
X42271518Y33603717D01*
X42213968Y33314391D01*
X42213964Y33314364D01*
X42194671Y33020008D01*
X40784927Y33020008D01*
X43677492Y35912574D01*
X43738813Y35946057D01*
X43805030Y35942310D01*
X43835605Y35931931D01*
X43866278Y35921519D01*
X44155620Y35863966D01*
X44183888Y35862114D01*
X44449993Y35844671D01*
X44450000Y35844671D01*
X44450007Y35844671D01*
X44685675Y35860119D01*
X44744380Y35863966D01*
X45033722Y35921519D01*
X45313077Y36016348D01*
X45577665Y36146828D01*
X45822957Y36310727D01*
X46044758Y36505242D01*
X46239273Y36727043D01*
X46403172Y36972335D01*
X46533652Y37236923D01*
X46628481Y37516278D01*
X46686034Y37805620D01*
X46705329Y38100000D01*
X46705329Y38100008D01*
X46686035Y38394364D01*
X46686034Y38394380D01*
X46628481Y38683722D01*
X46533652Y38963077D01*
X46403172Y39227664D01*
X46239273Y39472957D01*
X46196655Y39521553D01*
X46044758Y39694759D01*
X45822955Y39889275D01*
X45577667Y40053171D01*
X45577660Y40053175D01*
X45313080Y40183651D01*
X45033730Y40278479D01*
X45033724Y40278481D01*
X45033722Y40278481D01*
X44744380Y40336034D01*
X44744373Y40336035D01*
X44744363Y40336036D01*
X44450007Y40355329D01*
X44449993Y40355329D01*
X44155636Y40336036D01*
X44155624Y40336035D01*
X44155620Y40336034D01*
X44155612Y40336033D01*
X44155609Y40336032D01*
X43866283Y40278482D01*
X43866269Y40278479D01*
X43586919Y40183651D01*
X43322334Y40053172D01*
X43077041Y39889272D01*
X42855241Y39694759D01*
X42660728Y39472959D01*
X42496828Y39227666D01*
X42366349Y38963081D01*
X42271521Y38683731D01*
X42271518Y38683717D01*
X42213968Y38394391D01*
X42213964Y38394364D01*
X42194671Y38100008D01*
X42194671Y38099993D01*
X42213964Y37805637D01*
X42213965Y37805627D01*
X42213966Y37805620D01*
X42213968Y37805610D01*
X42271518Y37516284D01*
X42271521Y37516270D01*
X42292309Y37455033D01*
X42295219Y37385224D01*
X42262571Y37327493D01*
X37187899Y32252819D01*
X37126576Y32219334D01*
X37100218Y32216500D01*
X34279320Y32216500D01*
X34212281Y32236185D01*
X34166526Y32288989D01*
X34156582Y32358147D01*
X34166938Y32392905D01*
X34187166Y32436284D01*
X34250512Y32572130D01*
X34309589Y32792611D01*
X34315440Y32859496D01*
X34340892Y32924563D01*
X34351279Y32936361D01*
X42850330Y41435412D01*
X42911651Y41468895D01*
X42981343Y41463911D01*
X43019765Y41440959D01*
X43077043Y41390727D01*
X43077055Y41390718D01*
X43322332Y41226830D01*
X43322335Y41226828D01*
X43586923Y41096348D01*
X43866278Y41001519D01*
X44155620Y40943966D01*
X44183888Y40942114D01*
X44449993Y40924671D01*
X44450000Y40924671D01*
X44450007Y40924671D01*
X44685675Y40940119D01*
X44744380Y40943966D01*
X45033722Y41001519D01*
X45313077Y41096348D01*
X45577665Y41226828D01*
X45822957Y41390727D01*
X46044758Y41585242D01*
X46239273Y41807043D01*
X46403172Y42052335D01*
X46533652Y42316923D01*
X46628481Y42596278D01*
X46686034Y42885620D01*
X46705329Y43180000D01*
X46705329Y43180008D01*
X46686035Y43474364D01*
X46686034Y43474380D01*
X46628481Y43763722D01*
X46533652Y44043077D01*
X46403172Y44307664D01*
X46239273Y44552957D01*
X46135487Y44671302D01*
X46044758Y44774759D01*
X45822955Y44969275D01*
X45577667Y45133171D01*
X45577660Y45133175D01*
X45313080Y45263651D01*
X45033730Y45358479D01*
X45033724Y45358481D01*
X45033722Y45358481D01*
X44744380Y45416034D01*
X44744373Y45416035D01*
X44744363Y45416036D01*
X44450007Y45435329D01*
X44449993Y45435329D01*
X44155636Y45416036D01*
X44155624Y45416035D01*
X44155620Y45416034D01*
X44155612Y45416033D01*
X44155609Y45416032D01*
X43866283Y45358482D01*
X43866269Y45358479D01*
X43586919Y45263651D01*
X43322334Y45133172D01*
X43077041Y44969272D01*
X42855241Y44774759D01*
X42660728Y44552959D01*
X42496828Y44307666D01*
X42366349Y44043081D01*
X42271521Y43763730D01*
X42271518Y43763720D01*
X42259667Y43704141D01*
X42227281Y43642230D01*
X42225731Y43640653D01*
X32936367Y34351289D01*
X32875044Y34317804D01*
X32859496Y34315442D01*
X32792614Y34309590D01*
X32792605Y34309588D01*
X32572137Y34250515D01*
X32572128Y34250511D01*
X32365259Y34154047D01*
X32365255Y34154045D01*
X32178280Y34023122D01*
X32016878Y33861720D01*
X31885955Y33674745D01*
X31885953Y33674741D01*
X31789489Y33467872D01*
X31789485Y33467863D01*
X31730412Y33247395D01*
X31730410Y33247384D01*
X31710517Y33020002D01*
X31710517Y33019999D01*
X31730410Y32792617D01*
X31730412Y32792606D01*
X31789485Y32572138D01*
X31789487Y32572134D01*
X31789488Y32572130D01*
X31852834Y32436284D01*
X31873062Y32392905D01*
X31883554Y32323827D01*
X31855034Y32260043D01*
X31796558Y32221804D01*
X31760680Y32216500D01*
X28289783Y32216500D01*
X28222744Y32236185D01*
X28202102Y32252819D01*
X27351286Y33103634D01*
X27317801Y33164957D01*
X27315440Y33180501D01*
X27309589Y33247389D01*
X27250512Y33467870D01*
X27154046Y33674741D01*
X27154044Y33674745D01*
X27023121Y33861720D01*
X26861722Y34023119D01*
X26861712Y34023128D01*
X26674745Y34154045D01*
X26674741Y34154047D01*
X26571306Y34202279D01*
X26467870Y34250512D01*
X26467866Y34250513D01*
X26467862Y34250515D01*
X26247394Y34309588D01*
X26247390Y34309589D01*
X26247389Y34309589D01*
X26247388Y34309590D01*
X26247383Y34309590D01*
X26020002Y34329483D01*
X26019998Y34329483D01*
X25792616Y34309590D01*
X25792605Y34309588D01*
X25572137Y34250515D01*
X25572128Y34250511D01*
X25365259Y34154047D01*
X25365255Y34154045D01*
X25178280Y34023122D01*
X25016878Y33861720D01*
X24885955Y33674745D01*
X24885953Y33674741D01*
X24789489Y33467872D01*
X24789485Y33467863D01*
X24730412Y33247395D01*
X24730410Y33247384D01*
X24710517Y33020002D01*
X21590000Y33020002D01*
X21590000Y45000000D01*
X23394551Y45000000D01*
X23414317Y44748849D01*
X23473126Y44503890D01*
X23569533Y44271141D01*
X23701160Y44056347D01*
X23701161Y44056344D01*
X23735483Y44016159D01*
X23864776Y43864776D01*
X23983101Y43763717D01*
X24056343Y43701162D01*
X24056346Y43701161D01*
X24271140Y43569534D01*
X24500837Y43474391D01*
X24503889Y43473127D01*
X24748852Y43414317D01*
X25000000Y43394551D01*
X25251148Y43414317D01*
X25496111Y43473127D01*
X25728859Y43569534D01*
X25943659Y43701164D01*
X26135224Y43864776D01*
X26298836Y44056341D01*
X26430466Y44271141D01*
X26526873Y44503889D01*
X26585683Y44748852D01*
X26605449Y45000000D01*
X26585683Y45251148D01*
X26526873Y45496111D01*
X26436905Y45713314D01*
X26430466Y45728860D01*
X26298839Y45943654D01*
X26298838Y45943657D01*
X26250716Y46000000D01*
X29894592Y46000000D01*
X29914201Y45713320D01*
X29972666Y45431966D01*
X29972667Y45431963D01*
X30068894Y45161207D01*
X30068893Y45161207D01*
X30201098Y44906065D01*
X30366812Y44671300D01*
X30451923Y44580169D01*
X30562947Y44461292D01*
X30785853Y44279945D01*
X30800330Y44271141D01*
X31031382Y44130635D01*
X31218237Y44049474D01*
X31294942Y44016156D01*
X31571642Y43938629D01*
X31821920Y43904229D01*
X31856321Y43899500D01*
X31856322Y43899500D01*
X32143679Y43899500D01*
X32174370Y43903719D01*
X32428358Y43938629D01*
X32705058Y44016156D01*
X32818015Y44065221D01*
X32968617Y44130635D01*
X32968620Y44130637D01*
X32968625Y44130639D01*
X33214147Y44279945D01*
X33437053Y44461292D01*
X33633189Y44671302D01*
X33798901Y44906064D01*
X33847575Y45000000D01*
X37394551Y45000000D01*
X37414317Y44748849D01*
X37473126Y44503890D01*
X37569533Y44271141D01*
X37701160Y44056347D01*
X37701161Y44056344D01*
X37735483Y44016159D01*
X37864776Y43864776D01*
X37983101Y43763717D01*
X38056343Y43701162D01*
X38056346Y43701161D01*
X38271140Y43569534D01*
X38500837Y43474391D01*
X38503889Y43473127D01*
X38748852Y43414317D01*
X39000000Y43394551D01*
X39251148Y43414317D01*
X39496111Y43473127D01*
X39728859Y43569534D01*
X39943659Y43701164D01*
X40135224Y43864776D01*
X40298836Y44056341D01*
X40430466Y44271141D01*
X40526873Y44503889D01*
X40585683Y44748852D01*
X40605449Y45000000D01*
X40585683Y45251148D01*
X40526873Y45496111D01*
X40436905Y45713314D01*
X40430466Y45728860D01*
X40298839Y45943654D01*
X40298838Y45943657D01*
X40250716Y46000000D01*
X40135224Y46135224D01*
X39957885Y46286686D01*
X39943656Y46298839D01*
X39943653Y46298840D01*
X39728859Y46430467D01*
X39496110Y46526874D01*
X39251151Y46585683D01*
X39000000Y46605449D01*
X38748848Y46585683D01*
X38503889Y46526874D01*
X38271140Y46430467D01*
X38056346Y46298840D01*
X38056343Y46298839D01*
X37864776Y46135224D01*
X37701161Y45943657D01*
X37701160Y45943654D01*
X37569533Y45728860D01*
X37473126Y45496111D01*
X37414317Y45251152D01*
X37394551Y45000000D01*
X33847575Y45000000D01*
X33931104Y45161203D01*
X34027334Y45431968D01*
X34085798Y45713314D01*
X34105408Y46000000D01*
X34085798Y46286686D01*
X34027334Y46568032D01*
X34021210Y46585262D01*
X33931105Y46838794D01*
X33931106Y46838794D01*
X33798901Y47093936D01*
X33633187Y47328701D01*
X33538536Y47430046D01*
X33437053Y47538708D01*
X33244058Y47695721D01*
X33214146Y47720056D01*
X32968617Y47869366D01*
X32705063Y47983842D01*
X32705061Y47983843D01*
X32705058Y47983844D01*
X32575578Y48020123D01*
X32428364Y48061370D01*
X32428359Y48061371D01*
X32428358Y48061371D01*
X32286018Y48080936D01*
X32143679Y48100500D01*
X32143678Y48100500D01*
X31856322Y48100500D01*
X31856321Y48100500D01*
X31571642Y48061371D01*
X31571635Y48061370D01*
X31363861Y48003155D01*
X31294942Y47983844D01*
X31294939Y47983844D01*
X31294936Y47983842D01*
X31294935Y47983842D01*
X31031382Y47869366D01*
X30785853Y47720056D01*
X30562950Y47538711D01*
X30366812Y47328701D01*
X30201098Y47093936D01*
X30068894Y46838794D01*
X29972667Y46568038D01*
X29972666Y46568035D01*
X29914201Y46286681D01*
X29894592Y46000000D01*
X26250716Y46000000D01*
X26135224Y46135224D01*
X25957885Y46286686D01*
X25943656Y46298839D01*
X25943653Y46298840D01*
X25728859Y46430467D01*
X25496110Y46526874D01*
X25251151Y46585683D01*
X25000000Y46605449D01*
X24748848Y46585683D01*
X24503889Y46526874D01*
X24271140Y46430467D01*
X24056346Y46298840D01*
X24056343Y46298839D01*
X23864776Y46135224D01*
X23701161Y45943657D01*
X23701160Y45943654D01*
X23569533Y45728860D01*
X23473126Y45496111D01*
X23414317Y45251152D01*
X23394551Y45000000D01*
X21590000Y45000000D01*
X21590000Y47275500D01*
X21609685Y47342539D01*
X21662489Y47388294D01*
X21714000Y47399500D01*
X26107317Y47399500D01*
X26107318Y47399500D01*
X26277851Y47424020D01*
X26319764Y47430045D01*
X26319765Y47430046D01*
X26319769Y47430046D01*
X26525710Y47490516D01*
X26525713Y47490518D01*
X26525715Y47490518D01*
X26720938Y47579673D01*
X26720944Y47579677D01*
X26720950Y47579679D01*
X26901513Y47695719D01*
X27063724Y47836276D01*
X27204281Y47998487D01*
X27320321Y48179050D01*
X27320323Y48179056D01*
X27320327Y48179062D01*
X27409482Y48374285D01*
X27409482Y48374287D01*
X27409484Y48374290D01*
X27469954Y48580231D01*
X27500500Y48792682D01*
X27500500Y48893039D01*
X27501280Y48906923D01*
X27501280Y48906924D01*
X27511459Y48997269D01*
X27517635Y49024330D01*
X27545353Y49103544D01*
X27557396Y49128550D01*
X27602046Y49199611D01*
X27619351Y49221310D01*
X27678690Y49280649D01*
X27700389Y49297954D01*
X27771450Y49342604D01*
X27796456Y49354647D01*
X27875670Y49382365D01*
X27902733Y49388541D01*
X27965419Y49395604D01*
X27993079Y49398720D01*
X28006962Y49399500D01*
X28065892Y49399500D01*
X35934108Y49399500D01*
X35993038Y49399500D01*
X36006922Y49398720D01*
G37*
%TD.AperFunction*%
%TD*%
M02*
