%TF.GenerationSoftware,KiCad,Pcbnew,8.0.6-8.0.6-0~ubuntu24.04.1*%
%TF.CreationDate,2024-12-11T16:34:02+03:00*%
%TF.ProjectId,PM-Neopixel4,504d2d4e-656f-4706-9978-656c342e6b69,rev?*%
%TF.SameCoordinates,Original*%
%TF.FileFunction,Copper,L1,Top*%
%TF.FilePolarity,Positive*%
%FSLAX46Y46*%
G04 Gerber Fmt 4.6, Leading zero omitted, Abs format (unit mm)*
G04 Created by KiCad (PCBNEW 8.0.6-8.0.6-0~ubuntu24.04.1) date 2024-12-11 16:34:02*
%MOMM*%
%LPD*%
G01*
G04 APERTURE LIST*
G04 Aperture macros list*
%AMRoundRect*
0 Rectangle with rounded corners*
0 $1 Rounding radius*
0 $2 $3 $4 $5 $6 $7 $8 $9 X,Y pos of 4 corners*
0 Add a 4 corners polygon primitive as box body*
4,1,4,$2,$3,$4,$5,$6,$7,$8,$9,$2,$3,0*
0 Add four circle primitives for the rounded corners*
1,1,$1+$1,$2,$3*
1,1,$1+$1,$4,$5*
1,1,$1+$1,$6,$7*
1,1,$1+$1,$8,$9*
0 Add four rect primitives between the rounded corners*
20,1,$1+$1,$2,$3,$4,$5,0*
20,1,$1+$1,$4,$5,$6,$7,0*
20,1,$1+$1,$6,$7,$8,$9,0*
20,1,$1+$1,$8,$9,$2,$3,0*%
G04 Aperture macros list end*
%TA.AperFunction,SMDPad,CuDef*%
%ADD10RoundRect,0.250000X0.650000X-0.412500X0.650000X0.412500X-0.650000X0.412500X-0.650000X-0.412500X0*%
%TD*%
%TA.AperFunction,ComponentPad*%
%ADD11C,1.608000*%
%TD*%
%TA.AperFunction,SMDPad,CuDef*%
%ADD12RoundRect,0.150000X-0.875000X-0.150000X0.875000X-0.150000X0.875000X0.150000X-0.875000X0.150000X0*%
%TD*%
%TA.AperFunction,SMDPad,CuDef*%
%ADD13RoundRect,0.150000X-0.800000X-0.150000X0.800000X-0.150000X0.800000X0.150000X-0.800000X0.150000X0*%
%TD*%
%TA.AperFunction,SMDPad,CuDef*%
%ADD14R,2.474067X0.622132*%
%TD*%
%TA.AperFunction,SMDPad,CuDef*%
%ADD15R,1.803400X0.635000*%
%TD*%
%TA.AperFunction,SMDPad,CuDef*%
%ADD16R,2.997200X2.590800*%
%TD*%
%TA.AperFunction,SMDPad,CuDef*%
%ADD17R,1.854200X0.482600*%
%TD*%
%TA.AperFunction,SMDPad,CuDef*%
%ADD18RoundRect,0.250000X-0.400000X-0.625000X0.400000X-0.625000X0.400000X0.625000X-0.400000X0.625000X0*%
%TD*%
%TA.AperFunction,SMDPad,CuDef*%
%ADD19R,0.533400X1.524000*%
%TD*%
%TA.AperFunction,ComponentPad*%
%ADD20R,3.500000X3.500000*%
%TD*%
%TA.AperFunction,ComponentPad*%
%ADD21C,3.500000*%
%TD*%
%TA.AperFunction,ComponentPad*%
%ADD22O,6.350000X6.350000*%
%TD*%
%TA.AperFunction,ViaPad*%
%ADD23C,0.600000*%
%TD*%
%TA.AperFunction,Conductor*%
%ADD24C,0.200000*%
%TD*%
G04 APERTURE END LIST*
D10*
%TO.P,C2,1*%
%TO.N,+5V*%
X5080000Y-16802500D03*
%TO.P,C2,2*%
%TO.N,GND*%
X5080000Y-13677500D03*
%TD*%
%TO.P,C6,1*%
%TO.N,+5V_ISO*%
X25400000Y-15532500D03*
%TO.P,C6,2*%
%TO.N,GND_ISO*%
X25400000Y-12407500D03*
%TD*%
D11*
%TO.P,K0,1,1*%
%TO.N,/K0*%
X14520000Y33020000D03*
%TO.P,K0,2,2*%
%TO.N,Net-(J2-Pin_17)*%
X26020000Y33020000D03*
%TO.P,K0,3,3*%
%TO.N,Net-(J2-Pin_18)*%
X33020000Y33020000D03*
%TO.P,K0,4,4*%
%TO.N,+5V*%
X14520000Y37720000D03*
%TD*%
D12*
%TO.P,U4,1,GPB0*%
%TO.N,unconnected-(U4-GPB0-Pad1)*%
X-24970000Y33655000D03*
%TO.P,U4,2,GPB1*%
%TO.N,unconnected-(U4-GPB1-Pad2)*%
X-24970000Y32385000D03*
%TO.P,U4,3,GPB2*%
%TO.N,unconnected-(U4-GPB2-Pad3)*%
X-24970000Y31115000D03*
%TO.P,U4,4,GPB3*%
%TO.N,unconnected-(U4-GPB3-Pad4)*%
X-24970000Y29845000D03*
%TO.P,U4,5,GPB4*%
%TO.N,unconnected-(U4-GPB4-Pad5)*%
X-24970000Y28575000D03*
%TO.P,U4,6,GPB5*%
%TO.N,unconnected-(U4-GPB5-Pad6)*%
X-24970000Y27305000D03*
%TO.P,U4,7,GPB6*%
%TO.N,unconnected-(U4-GPB6-Pad7)*%
X-24970000Y26035000D03*
%TO.P,U4,8,GPB7*%
%TO.N,unconnected-(U4-GPB7-Pad8)*%
X-24970000Y24765000D03*
%TO.P,U4,9,VDD*%
%TO.N,+3.3V*%
X-24970000Y23495000D03*
%TO.P,U4,10,VSS*%
%TO.N,GND*%
X-24970000Y22225000D03*
%TO.P,U4,11,~{CS}*%
%TO.N,/CS*%
X-24970000Y20955000D03*
%TO.P,U4,12,SCK*%
%TO.N,/SCK*%
X-24970000Y19685000D03*
%TO.P,U4,13,SI*%
%TO.N,/MOSI*%
X-24970000Y18415000D03*
%TO.P,U4,14,SO*%
%TO.N,/MISO*%
X-24970000Y17145000D03*
%TO.P,U4,15,A0*%
%TO.N,GND*%
X-15670000Y17145000D03*
%TO.P,U4,16,A1*%
X-15670000Y18415000D03*
%TO.P,U4,17,A2*%
X-15670000Y19685000D03*
%TO.P,U4,18,~{RESET}*%
%TO.N,+3.3V*%
X-15670000Y20955000D03*
%TO.P,U4,19,INTB*%
%TO.N,unconnected-(U4-INTB-Pad19)*%
X-15670000Y22225000D03*
%TO.P,U4,20,INTA*%
%TO.N,unconnected-(U4-INTA-Pad20)*%
X-15670000Y23495000D03*
%TO.P,U4,21,GPA0*%
%TO.N,/K3_exp*%
X-15670000Y24765000D03*
%TO.P,U4,22,GPA1*%
%TO.N,/K2_exp*%
X-15670000Y26035000D03*
%TO.P,U4,23,GPA2*%
%TO.N,/K1_exp*%
X-15670000Y27305000D03*
%TO.P,U4,24,GPA3*%
%TO.N,/K0_exp*%
X-15670000Y28575000D03*
%TO.P,U4,25,GPA4*%
%TO.N,unconnected-(U4-GPA4-Pad25)*%
X-15670000Y29845000D03*
%TO.P,U4,26,GPA5*%
%TO.N,unconnected-(U4-GPA5-Pad26)*%
X-15670000Y31115000D03*
%TO.P,U4,27,GPA6*%
%TO.N,unconnected-(U4-GPA6-Pad27)*%
X-15670000Y32385000D03*
%TO.P,U4,28,GPA7*%
%TO.N,unconnected-(U4-GPA7-Pad28)*%
X-15670000Y33655000D03*
%TD*%
D11*
%TO.P,K2,1,1*%
%TO.N,/K2*%
X14520000Y12700000D03*
%TO.P,K2,2,2*%
%TO.N,Net-(J2-Pin_9)*%
X26020000Y12700000D03*
%TO.P,K2,3,3*%
%TO.N,Net-(J2-Pin_10)*%
X33020000Y12700000D03*
%TO.P,K2,4,4*%
%TO.N,+5V*%
X14520000Y17400000D03*
%TD*%
D13*
%TO.P,U3,1,I1*%
%TO.N,/K0_exp*%
X-7265000Y30480000D03*
%TO.P,U3,2,I2*%
%TO.N,/K1_exp*%
X-7265000Y29210000D03*
%TO.P,U3,3,I3*%
%TO.N,/K2_exp*%
X-7265000Y27940000D03*
%TO.P,U3,4,I4*%
%TO.N,/K3_exp*%
X-7265000Y26670000D03*
%TO.P,U3,5,I5*%
%TO.N,unconnected-(U3-I5-Pad5)*%
X-7265000Y25400000D03*
%TO.P,U3,6,I6*%
%TO.N,unconnected-(U3-I6-Pad6)*%
X-7265000Y24130000D03*
%TO.P,U3,7,I7*%
%TO.N,unconnected-(U3-I7-Pad7)*%
X-7265000Y22860000D03*
%TO.P,U3,8,I8*%
%TO.N,unconnected-(U3-I8-Pad8)*%
X-7265000Y21590000D03*
%TO.P,U3,9,GND*%
%TO.N,GND*%
X-7265000Y20320000D03*
%TO.P,U3,10,COM*%
%TO.N,+5V*%
X2185000Y20320000D03*
%TO.P,U3,11,O8*%
%TO.N,unconnected-(U3-O8-Pad11)*%
X2185000Y21590000D03*
%TO.P,U3,12,O7*%
%TO.N,unconnected-(U3-O7-Pad12)*%
X2185000Y22860000D03*
%TO.P,U3,13,O6*%
%TO.N,unconnected-(U3-O6-Pad13)*%
X2185000Y24130000D03*
%TO.P,U3,14,O5*%
%TO.N,unconnected-(U3-O5-Pad14)*%
X2185000Y25400000D03*
%TO.P,U3,15,O4*%
%TO.N,/K3*%
X2185000Y26670000D03*
%TO.P,U3,16,O3*%
%TO.N,/K2*%
X2185000Y27940000D03*
%TO.P,U3,17,O2*%
%TO.N,/K1*%
X2185000Y29210000D03*
%TO.P,U3,18,O1*%
%TO.N,/K0*%
X2185000Y30480000D03*
%TD*%
D10*
%TO.P,C1,1*%
%TO.N,+3.3V*%
X0Y-16802500D03*
%TO.P,C1,2*%
%TO.N,GND*%
X0Y-13677500D03*
%TD*%
%TO.P,C4,1*%
%TO.N,+5V*%
X17780000Y-15532500D03*
%TO.P,C4,2*%
%TO.N,GND*%
X17780000Y-12407500D03*
%TD*%
D14*
%TO.P,U6,1,VCCA*%
%TO.N,+3.3V*%
X123934Y-19050000D03*
%TO.P,U6,2,A1*%
%TO.N,/subplates/0.DI*%
X123934Y-20320000D03*
%TO.P,U6,3,A2*%
%TO.N,/subplates/1.DI*%
X123934Y-21590000D03*
%TO.P,U6,4,A3*%
%TO.N,/subplates/2.DI*%
X123934Y-22860000D03*
%TO.P,U6,5,A4*%
%TO.N,/subplates/3.DI*%
X123934Y-24130000D03*
%TO.P,U6,6,NC*%
%TO.N,unconnected-(U6-NC-Pad6)*%
X123934Y-25400000D03*
%TO.P,U6,7,GND*%
%TO.N,GND*%
X123934Y-26670000D03*
%TO.P,U6,8,OE*%
%TO.N,Net-(U6-OE)*%
X4956066Y-26670000D03*
%TO.P,U6,9,NC*%
%TO.N,unconnected-(U6-NC-Pad9)*%
X4956066Y-25400000D03*
%TO.P,U6,10,B4*%
%TO.N,Net-(JP4-A)*%
X4956066Y-24130000D03*
%TO.P,U6,11,B3*%
%TO.N,Net-(JP3-A)*%
X4956066Y-22860000D03*
%TO.P,U6,12,B2*%
%TO.N,Net-(JP2-A)*%
X4956066Y-21590000D03*
%TO.P,U6,13,B1*%
%TO.N,Net-(JP1-A)*%
X4956066Y-20320000D03*
%TO.P,U6,14,VCCB*%
%TO.N,+5V*%
X4956066Y-19050000D03*
%TD*%
D15*
%TO.P,J1,1,Pin_1*%
%TO.N,GND*%
X-42556000Y25500009D03*
%TO.P,J1,2,Pin_2*%
%TO.N,/subplates/2.DI*%
X-42556000Y26500007D03*
%TO.P,J1,3,Pin_3*%
%TO.N,/subplates/1.DI*%
X-42556000Y27500005D03*
%TO.P,J1,4,Pin_4*%
%TO.N,/subplates/0.DI*%
X-42556000Y28500003D03*
%TO.P,J1,5,Pin_5*%
%TO.N,/CS*%
X-42556000Y29500001D03*
%TO.P,J1,6,Pin_6*%
%TO.N,/SCK*%
X-42556000Y30499999D03*
%TO.P,J1,7,Pin_7*%
%TO.N,/MISO*%
X-42556000Y31499997D03*
%TO.P,J1,8,Pin_8*%
%TO.N,/MOSI*%
X-42556000Y32499995D03*
%TO.P,J1,9,Pin_9*%
%TO.N,+3.3V*%
X-42556000Y33499993D03*
%TO.P,J1,10,Pin_10*%
%TO.N,+5V*%
X-42556000Y34499991D03*
D16*
%TO.P,J1,11,Pin_11*%
%TO.N,GND*%
X-40385999Y23149998D03*
X-40385999Y36850002D03*
%TD*%
D17*
%TO.P,U5,1,VDD*%
%TO.N,+5V*%
X15443200Y-18415000D03*
%TO.P,U5,2,GNDA*%
%TO.N,GND*%
X15443200Y-19685000D03*
%TO.P,U5,3,VI1*%
%TO.N,Net-(JP1-A)*%
X15443200Y-20955000D03*
%TO.P,U5,4,VI2*%
%TO.N,Net-(JP2-A)*%
X15443200Y-22225000D03*
%TO.P,U5,5,VI3*%
%TO.N,Net-(JP3-A)*%
X15443200Y-23495000D03*
%TO.P,U5,6,VI4*%
%TO.N,Net-(JP4-A)*%
X15443200Y-24765000D03*
%TO.P,U5,7,VDDL*%
%TO.N,+5V*%
X15443200Y-26035000D03*
%TO.P,U5,8,GNDA*%
%TO.N,GND*%
X15443200Y-27305000D03*
%TO.P,U5,9,GNDB*%
%TO.N,GND_ISO*%
X25196800Y-27305000D03*
%TO.P,U5,10,SEL*%
%TO.N,+5V_ISO*%
X25196800Y-26035000D03*
%TO.P,U5,11,VO4*%
%TO.N,Net-(JP4-B)*%
X25196800Y-24765000D03*
%TO.P,U5,12,VO3*%
%TO.N,Net-(JP3-B)*%
X25196800Y-23495000D03*
%TO.P,U5,13,VO2*%
%TO.N,Net-(JP2-B)*%
X25196800Y-22225000D03*
%TO.P,U5,14,VO1*%
%TO.N,Net-(JP1-B)*%
X25196800Y-20955000D03*
%TO.P,U5,15,GNDB*%
%TO.N,GND_ISO*%
X25196800Y-19685000D03*
%TO.P,U5,16,VISO*%
%TO.N,+5V_ISO*%
X25196800Y-18415000D03*
%TD*%
D18*
%TO.P,R1,1*%
%TO.N,+3.3V*%
X990000Y-30480000D03*
%TO.P,R1,2*%
%TO.N,Net-(U6-OE)*%
X4090000Y-30480000D03*
%TD*%
D19*
%TO.P,D0,1*%
%TO.N,+5V*%
X10160000Y36703000D03*
%TO.P,D0,2*%
%TO.N,/K0*%
X10160000Y34417000D03*
%TD*%
D20*
%TO.P,J2,1,Pin_1*%
%TO.N,/PE*%
X44450000Y-43180000D03*
D21*
%TO.P,J2,2,Pin_2*%
%TO.N,GND_ISO*%
X44450000Y-38100000D03*
%TO.P,J2,3,Pin_3*%
X44450000Y-33020000D03*
%TO.P,J2,4,Pin_4*%
%TO.N,/3.DI*%
X44450000Y-27940000D03*
%TO.P,J2,5,Pin_5*%
%TO.N,Net-(J2-Pin_5)*%
X44450000Y-22860000D03*
%TO.P,J2,6,Pin_6*%
%TO.N,Net-(J2-Pin_6)*%
X44450000Y-17780000D03*
%TO.P,J2,7,Pin_7*%
%TO.N,GND_ISO*%
X44450000Y-12700000D03*
%TO.P,J2,8,Pin_8*%
%TO.N,/2.DI*%
X44450000Y-7620000D03*
%TO.P,J2,9,Pin_9*%
%TO.N,Net-(J2-Pin_9)*%
X44450000Y-2540000D03*
%TO.P,J2,10,Pin_10*%
%TO.N,Net-(J2-Pin_10)*%
X44450000Y2540000D03*
%TO.P,J2,11,Pin_11*%
%TO.N,GND_ISO*%
X44450000Y7620000D03*
%TO.P,J2,12,Pin_12*%
%TO.N,/1.DI*%
X44450000Y12700000D03*
%TO.P,J2,13,Pin_13*%
%TO.N,Net-(J2-Pin_13)*%
X44450000Y17780000D03*
%TO.P,J2,14,Pin_14*%
%TO.N,Net-(J2-Pin_14)*%
X44450000Y22860000D03*
%TO.P,J2,15,Pin_15*%
%TO.N,GND_ISO*%
X44450000Y27940000D03*
%TO.P,J2,16,Pin_16*%
%TO.N,/0.DI*%
X44450000Y33020000D03*
%TO.P,J2,17,Pin_17*%
%TO.N,Net-(J2-Pin_17)*%
X44450000Y38100000D03*
%TO.P,J2,18,Pin_18*%
%TO.N,Net-(J2-Pin_18)*%
X44450000Y43180000D03*
%TD*%
D19*
%TO.P,D3,1*%
%TO.N,+5V*%
X10160000Y6223000D03*
%TO.P,D3,2*%
%TO.N,/K3*%
X10160000Y3937000D03*
%TD*%
%TO.P,D2,1*%
%TO.N,+5V*%
X10160000Y16383000D03*
%TO.P,D2,2*%
%TO.N,/K2*%
X10160000Y14097000D03*
%TD*%
D11*
%TO.P,K1,1,1*%
%TO.N,/K1*%
X14520000Y22860000D03*
%TO.P,K1,2,2*%
%TO.N,Net-(J2-Pin_13)*%
X26020000Y22860000D03*
%TO.P,K1,3,3*%
%TO.N,Net-(J2-Pin_14)*%
X33020000Y22860000D03*
%TO.P,K1,4,4*%
%TO.N,+5V*%
X14520000Y27560000D03*
%TD*%
D18*
%TO.P,R2,1*%
%TO.N,Net-(JP1-B)*%
X31470000Y-17780000D03*
%TO.P,R2,2*%
%TO.N,/0.DI*%
X34570000Y-17780000D03*
%TD*%
D10*
%TO.P,C5,1*%
%TO.N,+5V_ISO*%
X22860000Y-15532500D03*
%TO.P,C5,2*%
%TO.N,GND_ISO*%
X22860000Y-12407500D03*
%TD*%
%TO.P,C3,1*%
%TO.N,+5V*%
X15240000Y-15532500D03*
%TO.P,C3,2*%
%TO.N,GND*%
X15240000Y-12407500D03*
%TD*%
D15*
%TO.P,J3,1,Pin_1*%
%TO.N,GND*%
X-42556000Y5500009D03*
%TO.P,J3,2,Pin_2*%
%TO.N,unconnected-(J3-Pin_2-Pad2)*%
X-42556000Y6500007D03*
%TO.P,J3,3,Pin_3*%
%TO.N,unconnected-(J3-Pin_3-Pad3)*%
X-42556000Y7500005D03*
%TO.P,J3,4,Pin_4*%
%TO.N,/subplates/3.DI*%
X-42556000Y8500003D03*
%TO.P,J3,5,Pin_5*%
%TO.N,unconnected-(J3-Pin_5-Pad5)*%
X-42556000Y9500001D03*
%TO.P,J3,6,Pin_6*%
%TO.N,unconnected-(J3-Pin_6-Pad6)*%
X-42556000Y10499999D03*
%TO.P,J3,7,Pin_7*%
%TO.N,unconnected-(J3-Pin_7-Pad7)*%
X-42556000Y11499997D03*
%TO.P,J3,8,Pin_8*%
%TO.N,unconnected-(J3-Pin_8-Pad8)*%
X-42556000Y12499995D03*
%TO.P,J3,9,Pin_9*%
%TO.N,unconnected-(J3-Pin_9-Pad9)*%
X-42556000Y13499993D03*
%TO.P,J3,10,Pin_10*%
%TO.N,unconnected-(J3-Pin_10-Pad10)*%
X-42556000Y14499991D03*
D16*
%TO.P,J3,11,Pin_11*%
%TO.N,GND*%
X-40385999Y3149998D03*
X-40385999Y16850002D03*
%TD*%
D19*
%TO.P,D1,1*%
%TO.N,+5V*%
X10160000Y26543000D03*
%TO.P,D1,2*%
%TO.N,/K1*%
X10160000Y24257000D03*
%TD*%
D18*
%TO.P,R4,1*%
%TO.N,Net-(JP3-B)*%
X31470000Y-22860000D03*
%TO.P,R4,2*%
%TO.N,/2.DI*%
X34570000Y-22860000D03*
%TD*%
D22*
%TO.P,PE1,1*%
%TO.N,/PE*%
X32000000Y-46000000D03*
%TD*%
D18*
%TO.P,R5,1*%
%TO.N,Net-(JP4-B)*%
X31470000Y-25400000D03*
%TO.P,R5,2*%
%TO.N,/3.DI*%
X34570000Y-25400000D03*
%TD*%
D11*
%TO.P,K3,1,1*%
%TO.N,/K3*%
X14520000Y2540000D03*
%TO.P,K3,2,2*%
%TO.N,Net-(J2-Pin_5)*%
X26020000Y2540000D03*
%TO.P,K3,3,3*%
%TO.N,Net-(J2-Pin_6)*%
X33020000Y2540000D03*
%TO.P,K3,4,4*%
%TO.N,+5V*%
X14520000Y7240000D03*
%TD*%
D18*
%TO.P,R3,1*%
%TO.N,Net-(JP2-B)*%
X31470000Y-20320000D03*
%TO.P,R3,2*%
%TO.N,/1.DI*%
X34570000Y-20320000D03*
%TD*%
D23*
%TO.N,GND*%
X-35560000Y-2540000D03*
X-33020000Y0D03*
X-35560000Y22860000D03*
X10795000Y-19685000D03*
X-33020000Y-2540000D03*
X-35560000Y0D03*
%TO.N,+3.3V*%
X-19117400Y22059400D03*
X-13235000Y-16176200D03*
%TO.N,+5V*%
X13052100Y-16176200D03*
%TO.N,/K3*%
X7154900Y24802100D03*
%TO.N,GND_ISO*%
X28194000Y-26162000D03*
%TO.N,/subplates/2.DI*%
X-36343900Y-21637900D03*
X-40951300Y25459500D03*
%TO.N,/subplates/1.DI*%
X-40628600Y27019000D03*
X-39724600Y-22077400D03*
%TO.N,/subplates/0.DI*%
X-33823400Y-16176200D03*
X-38561300Y25458300D03*
%TO.N,/subplates/3.DI*%
X-2026900Y-24944000D03*
X-1470200Y-7352600D03*
%TO.N,Net-(JP1-B)*%
X22530000Y-20829000D03*
%TO.N,Net-(JP1-A)*%
X18363800Y-20079000D03*
%TO.N,Net-(JP2-B)*%
X22500000Y-22329100D03*
%TO.N,Net-(JP2-A)*%
X17009000Y-22154300D03*
%TO.N,Net-(JP3-B)*%
X22501300Y-25038900D03*
%TO.N,Net-(JP3-A)*%
X19387400Y-24130000D03*
%TO.N,Net-(JP4-B)*%
X22500000Y-27840200D03*
%TO.N,Net-(JP4-A)*%
X18408800Y-27840200D03*
%TD*%
D24*
%TO.N,/MOSI*%
X-44159400Y32040600D02*
X-43700005Y32499995D01*
X-41129000Y19285000D02*
X-44159400Y22315400D01*
X-24970000Y18415000D02*
X-25994999Y18415000D01*
X-26864999Y19285000D02*
X-41129000Y19285000D01*
X-25994999Y18415000D02*
X-26864999Y19285000D01*
X-44159400Y22315400D02*
X-44159400Y32040600D01*
X-43700005Y32499995D02*
X-42556000Y32499995D01*
%TO.N,/CS*%
X-35212100Y29500000D02*
X-26667100Y20955000D01*
X-42556000Y29500000D02*
X-35212100Y29500000D01*
X-26667100Y20955000D02*
X-24970000Y20955000D01*
%TO.N,/MISO*%
X-23641200Y21313300D02*
X-23917900Y21590000D01*
X-24568200Y17145000D02*
X-23641200Y18072000D01*
X-24970000Y17145000D02*
X-24568200Y17145000D01*
X-23917900Y21590000D02*
X-26126700Y21590000D01*
X-36036700Y31500000D02*
X-42556000Y31500000D01*
X-23641200Y18072000D02*
X-23641200Y21313300D01*
X-26126700Y21590000D02*
X-36036700Y31500000D01*
%TO.N,/SCK*%
X-42556000Y30500000D02*
X-43759400Y30500000D01*
X-40149400Y19685000D02*
X-43759400Y23295000D01*
X-43759400Y23295000D02*
X-43759400Y30500000D01*
X-24970000Y19685000D02*
X-40149400Y19685000D01*
%TO.N,+3.3V*%
X-27256700Y23495000D02*
X-24970000Y23495000D01*
X1662600Y-19050000D02*
X-1414800Y-19050000D01*
X-1993500Y-18217300D02*
X-1414800Y-18217300D01*
X-42556000Y33500000D02*
X-37261700Y33500000D01*
X-15670000Y20955000D02*
X-18013000Y20955000D01*
X1662600Y-29807400D02*
X1662600Y-19050000D01*
X-1414800Y-19050000D02*
X-1414800Y-18217300D01*
X-20553000Y23495000D02*
X-24970000Y23495000D01*
X-37261700Y33500000D02*
X-27256700Y23495000D01*
X-13235000Y-16176200D02*
X-4034600Y-16176200D01*
X-4034600Y-16176200D02*
X-1993500Y-18217300D01*
X-18013000Y20955000D02*
X-19117400Y22059400D01*
X-19117400Y22059400D02*
X-20553000Y23495000D01*
X990000Y-30480000D02*
X1662600Y-29807400D01*
X-1414800Y-18217300D02*
X0Y-16802500D01*
%TO.N,+5V*%
X3417400Y-19050000D02*
X3417400Y-24645700D01*
X5725500Y-19050000D02*
X4956100Y-19050000D01*
X13503000Y36703000D02*
X14520000Y37720000D01*
X10160000Y16383000D02*
X9591600Y16383000D01*
X7595700Y-26035000D02*
X15443200Y-26035000D01*
X13052100Y-16176200D02*
X14214400Y-16176200D01*
X6303500Y-24742800D02*
X7595700Y-26035000D01*
X5654600Y20320000D02*
X9591600Y16383000D01*
X10160000Y16383000D02*
X13503000Y16383000D01*
X4956100Y-19050000D02*
X3417400Y-19050000D01*
X15443200Y-18415000D02*
X14315300Y-18415000D01*
X15240000Y-15532500D02*
X17780000Y-15532500D01*
X7388600Y34500000D02*
X9591600Y36703000D01*
X3417400Y-24645700D02*
X3514500Y-24742800D01*
X2185000Y20320000D02*
X5654600Y20320000D01*
X10160000Y36703000D02*
X9591600Y36703000D01*
X14315300Y-18415000D02*
X14214400Y-18415000D01*
X6494800Y-18415000D02*
X6494800Y-18217300D01*
X10160000Y36703000D02*
X13503000Y36703000D01*
X13503000Y16383000D02*
X14520000Y17400000D01*
X14214400Y-16176200D02*
X14858100Y-15532500D01*
X14214400Y-18415000D02*
X6494800Y-18415000D01*
X13503000Y26543000D02*
X14520000Y27560000D01*
X6494800Y-19050000D02*
X6494800Y-18415000D01*
X6494800Y-18217300D02*
X5080000Y-16802500D01*
X13503000Y6223000D02*
X14520000Y7240000D01*
X14214400Y-18415000D02*
X14214400Y-16176200D01*
X14858100Y-15532500D02*
X15240000Y-15532500D01*
X-42556000Y34500000D02*
X7388600Y34500000D01*
X5725500Y-19050000D02*
X6494800Y-19050000D01*
X10160000Y6223000D02*
X13503000Y6223000D01*
X10160000Y26543000D02*
X13503000Y26543000D01*
X3514500Y-24742800D02*
X6303500Y-24742800D01*
%TO.N,/K0*%
X11980000Y30480000D02*
X14520000Y33020000D01*
X10160000Y34417000D02*
X13123000Y34417000D01*
X2185000Y30480000D02*
X11980000Y30480000D01*
X13123000Y34417000D02*
X14520000Y33020000D01*
%TO.N,/K1*%
X4638600Y29210000D02*
X9591600Y24257000D01*
X10160000Y24257000D02*
X13123000Y24257000D01*
X10160000Y24257000D02*
X9591600Y24257000D01*
X13123000Y24257000D02*
X14520000Y22860000D01*
X2185000Y29210000D02*
X4638600Y29210000D01*
%TO.N,/K2*%
X13123000Y14097000D02*
X14520000Y12700000D01*
X885700Y20021400D02*
X885700Y27021100D01*
X10160000Y14097000D02*
X6810100Y14097000D01*
X6810100Y14097000D02*
X885700Y20021400D01*
X885700Y27021100D02*
X1804600Y27940000D01*
X1804600Y27940000D02*
X2185000Y27940000D01*
X10160000Y14097000D02*
X13123000Y14097000D01*
%TO.N,/K3*%
X10160000Y3937000D02*
X13123000Y3937000D01*
X7154900Y24802100D02*
X5287000Y26670000D01*
X5287000Y26670000D02*
X2185000Y26670000D01*
X13123000Y3937000D02*
X14520000Y2540000D01*
%TO.N,/K0_exp*%
X-13736200Y28575000D02*
X-15670000Y28575000D01*
X-7265000Y30480000D02*
X-11831200Y30480000D01*
X-11831200Y30480000D02*
X-13736200Y28575000D01*
%TO.N,/K1_exp*%
X-13299400Y27305000D02*
X-15670000Y27305000D01*
X-7265000Y29210000D02*
X-11394400Y29210000D01*
X-11394400Y29210000D02*
X-13299400Y27305000D01*
%TO.N,/K3_exp*%
X-10678800Y24765000D02*
X-15670000Y24765000D01*
X-7265000Y26670000D02*
X-8773800Y26670000D01*
X-8773800Y26670000D02*
X-10678800Y24765000D01*
%TO.N,/K2_exp*%
X-12425900Y26035000D02*
X-15670000Y26035000D01*
X-7265000Y27940000D02*
X-10520900Y27940000D01*
X-10520900Y27940000D02*
X-12425900Y26035000D01*
%TO.N,+5V_ISO*%
X25196800Y-18415000D02*
X26425600Y-18415000D01*
X25196800Y-18415000D02*
X23968000Y-18415000D01*
X26425600Y-16558100D02*
X25400000Y-15532500D01*
X22617700Y-26035000D02*
X25196800Y-26035000D01*
X23968000Y-18415000D02*
X21894400Y-20488600D01*
X22860000Y-15532500D02*
X25400000Y-15532500D01*
X21894400Y-25311700D02*
X22617700Y-26035000D01*
X21894400Y-20488600D02*
X21894400Y-25311700D01*
X26425600Y-18415000D02*
X26425600Y-16558100D01*
%TO.N,/2.DI*%
X40532000Y-16898000D02*
X40532000Y-11538000D01*
X40532000Y-11538000D02*
X44450000Y-7620000D01*
X34570000Y-22860000D02*
X40532000Y-16898000D01*
%TO.N,/1.DI*%
X40132000Y-14758000D02*
X40132000Y8382000D01*
X34570000Y-20320000D02*
X40132000Y-14758000D01*
X40132000Y8382000D02*
X44450000Y12700000D01*
%TO.N,/0.DI*%
X39732000Y28302000D02*
X44450000Y33020000D01*
X39732000Y-12618000D02*
X39732000Y28302000D01*
X34570000Y-17780000D02*
X39732000Y-12618000D01*
%TO.N,/3.DI*%
X41910000Y-25400000D02*
X44450000Y-27940000D01*
X34570000Y-25400000D02*
X41910000Y-25400000D01*
%TO.N,/subplates/2.DI*%
X-41352600Y25860800D02*
X-40951300Y25459500D01*
X-41352600Y26500000D02*
X-41352600Y25860800D01*
X-42556000Y26500000D02*
X-41352600Y26500000D01*
X-36343900Y-21637900D02*
X-35121800Y-22860000D01*
X-35121800Y-22860000D02*
X123900Y-22860000D01*
%TO.N,/subplates/1.DI*%
X-40871600Y27019000D02*
X-41352600Y27500000D01*
X-1414800Y-21590000D02*
X-1989900Y-21014900D01*
X123900Y-21590000D02*
X-1414800Y-21590000D01*
X-40628600Y27019000D02*
X-40871600Y27019000D01*
X-38662100Y-21014900D02*
X-39724600Y-22077400D01*
X-1989900Y-21014900D02*
X-38662100Y-21014900D01*
X-42556000Y27500000D02*
X-41352600Y27500000D01*
%TO.N,/subplates/0.DI*%
X123900Y-20320000D02*
X-29679600Y-20320000D01*
X-38561300Y25458300D02*
X-38561300Y25802600D01*
X-38561300Y25802600D02*
X-41258700Y28500000D01*
X-42556000Y28500000D02*
X-41352600Y28500000D01*
X-29679600Y-20320000D02*
X-33823400Y-16176200D01*
X-41258700Y28500000D02*
X-41352600Y28500000D01*
%TO.N,/subplates/3.DI*%
X-42556000Y8500000D02*
X-17322800Y8500000D01*
X-2026900Y-24944000D02*
X-1212900Y-24130000D01*
X-17322800Y8500000D02*
X-1470200Y-7352600D01*
X-1212900Y-24130000D02*
X123900Y-24130000D01*
%TO.N,Net-(U6-OE)*%
X3417400Y-29807400D02*
X4090000Y-30480000D01*
X4956100Y-26670000D02*
X3417400Y-26670000D01*
X3417400Y-26670000D02*
X3417400Y-29807400D01*
%TO.N,Net-(JP1-B)*%
X31470000Y-17780000D02*
X28295000Y-20955000D01*
X28295000Y-20955000D02*
X25196800Y-20955000D01*
X22656000Y-20955000D02*
X22530000Y-20829000D01*
X25196800Y-20955000D02*
X22656000Y-20955000D01*
%TO.N,Net-(JP1-A)*%
X6494800Y-20320000D02*
X7129800Y-20955000D01*
X17487800Y-20955000D02*
X18363800Y-20079000D01*
X15443200Y-20955000D02*
X17487800Y-20955000D01*
X4956100Y-20320000D02*
X6494800Y-20320000D01*
X7129800Y-20955000D02*
X15443200Y-20955000D01*
%TO.N,Net-(JP2-B)*%
X25196800Y-22225000D02*
X22604100Y-22225000D01*
X29565000Y-22225000D02*
X25196800Y-22225000D01*
X22604100Y-22225000D02*
X22500000Y-22329100D01*
X31470000Y-20320000D02*
X29565000Y-22225000D01*
%TO.N,Net-(JP2-A)*%
X17009000Y-22154300D02*
X16742700Y-22154300D01*
X15443200Y-22225000D02*
X16672000Y-22225000D01*
X4956100Y-21590000D02*
X6494800Y-21590000D01*
X6494800Y-21590000D02*
X7129800Y-22225000D01*
X16742700Y-22154300D02*
X16672000Y-22225000D01*
X7129800Y-22225000D02*
X15443200Y-22225000D01*
%TO.N,Net-(JP3-B)*%
X31470000Y-22860000D02*
X30835000Y-23495000D01*
X24045200Y-23495000D02*
X22501300Y-25038900D01*
X30835000Y-23495000D02*
X25196800Y-23495000D01*
X25196800Y-23495000D02*
X24045200Y-23495000D01*
%TO.N,Net-(JP3-A)*%
X16672000Y-23495000D02*
X17307000Y-24130000D01*
X4956100Y-22860000D02*
X6494800Y-22860000D01*
X17307000Y-24130000D02*
X19387400Y-24130000D01*
X7129800Y-23495000D02*
X6494800Y-22860000D01*
X15443200Y-23495000D02*
X16672000Y-23495000D01*
X15443200Y-23495000D02*
X7129800Y-23495000D01*
%TO.N,Net-(JP4-B)*%
X29022000Y-27848000D02*
X22507800Y-27848000D01*
X31470000Y-25400000D02*
X30835000Y-24765000D01*
X31470000Y-25400000D02*
X29022000Y-27848000D01*
X30835000Y-24765000D02*
X25196800Y-24765000D01*
X22507800Y-27848000D02*
X22500000Y-27840200D01*
%TO.N,Net-(JP4-A)*%
X7129800Y-24765000D02*
X15443200Y-24765000D01*
X6494800Y-24130000D02*
X7129800Y-24765000D01*
X18408800Y-26282800D02*
X18408800Y-27840200D01*
X15443200Y-24765000D02*
X16891000Y-24765000D01*
X16891000Y-24765000D02*
X18408800Y-26282800D01*
X4956100Y-24130000D02*
X6494800Y-24130000D01*
%TD*%
%TA.AperFunction,Conductor*%
%TO.N,GND*%
G36*
X-35445158Y28879815D02*
G01*
X-35424516Y28863181D01*
X-27151961Y20590626D01*
X-27151951Y20590615D01*
X-27147621Y20586285D01*
X-27147620Y20586284D01*
X-27058516Y20497180D01*
X-27025032Y20435859D01*
X-27030016Y20366167D01*
X-27071887Y20310233D01*
X-27137351Y20285816D01*
X-27146198Y20285500D01*
X-39849303Y20285500D01*
X-39916342Y20305185D01*
X-39936984Y20321819D01*
X-43122581Y23507416D01*
X-43156066Y23568739D01*
X-43158900Y23595097D01*
X-43158900Y25558008D01*
X-43139215Y25625047D01*
X-43086411Y25670802D01*
X-43034900Y25682008D01*
X-42014364Y25682008D01*
X-41947325Y25662323D01*
X-41906978Y25620010D01*
X-41883707Y25579704D01*
X-41883242Y25578900D01*
X-41883241Y25578896D01*
X-41883240Y25578896D01*
X-41871181Y25558008D01*
X-41833121Y25492086D01*
X-41833119Y25492083D01*
X-41782002Y25440966D01*
X-41748517Y25379643D01*
X-41746463Y25367169D01*
X-41736670Y25280251D01*
X-41677090Y25109979D01*
X-41650007Y25066877D01*
X-41581116Y24957238D01*
X-41453562Y24829684D01*
X-41386651Y24787641D01*
X-41306883Y24737519D01*
X-41300822Y24733711D01*
X-41173894Y24689297D01*
X-41130555Y24674132D01*
X-41130550Y24674131D01*
X-40951304Y24653935D01*
X-40951300Y24653935D01*
X-40951296Y24653935D01*
X-40772051Y24674131D01*
X-40772048Y24674132D01*
X-40772045Y24674132D01*
X-40601778Y24733711D01*
X-40449038Y24829684D01*
X-40321484Y24957238D01*
X-40225511Y25109978D01*
X-40165932Y25280245D01*
X-40161111Y25323031D01*
X-40145735Y25459497D01*
X-40145735Y25459504D01*
X-40165931Y25638750D01*
X-40165932Y25638755D01*
X-40170766Y25652569D01*
X-40225511Y25809022D01*
X-40226376Y25810398D01*
X-40302340Y25931294D01*
X-40321484Y25961762D01*
X-40416481Y26056759D01*
X-40449966Y26118082D01*
X-40444982Y26187774D01*
X-40403110Y26243707D01*
X-40369754Y26261482D01*
X-40344231Y26270413D01*
X-40279078Y26293211D01*
X-40130711Y26386437D01*
X-40063476Y26405436D01*
X-39996640Y26385068D01*
X-39977059Y26369123D01*
X-39375536Y25767600D01*
X-39342051Y25706277D01*
X-39345835Y25644508D01*
X-39345119Y25644344D01*
X-39346111Y25639998D01*
X-39346174Y25638969D01*
X-39346669Y25637557D01*
X-39346669Y25637554D01*
X-39366865Y25458304D01*
X-39366865Y25458297D01*
X-39346670Y25279051D01*
X-39346669Y25279046D01*
X-39287089Y25108777D01*
X-39206604Y24980687D01*
X-39191116Y24956038D01*
X-39063562Y24828484D01*
X-39055574Y24823465D01*
X-38912734Y24733712D01*
X-38910822Y24732511D01*
X-38845829Y24709769D01*
X-38740555Y24672932D01*
X-38740550Y24672931D01*
X-38561304Y24652735D01*
X-38561300Y24652735D01*
X-38561296Y24652735D01*
X-38382051Y24672931D01*
X-38382048Y24672932D01*
X-38382045Y24672932D01*
X-38211778Y24732511D01*
X-38059038Y24828484D01*
X-37931484Y24956038D01*
X-37835511Y25108778D01*
X-37775932Y25279045D01*
X-37775931Y25279051D01*
X-37755735Y25458297D01*
X-37755735Y25458304D01*
X-37775931Y25637550D01*
X-37775932Y25637555D01*
X-37799979Y25706277D01*
X-37835511Y25807822D01*
X-37837130Y25810398D01*
X-37913094Y25931294D01*
X-37931484Y25960562D01*
X-37985285Y26014363D01*
X-38004990Y26040042D01*
X-38080780Y26171316D01*
X-40597285Y28687820D01*
X-40630769Y28749142D01*
X-40625785Y28818834D01*
X-40583913Y28874767D01*
X-40518449Y28899184D01*
X-40509603Y28899500D01*
X-35512197Y28899500D01*
X-35445158Y28879815D01*
G37*
%TD.AperFunction*%
%TA.AperFunction,Conductor*%
G36*
X-40893078Y49398720D02*
G01*
X-40802734Y49388541D01*
X-40775669Y49382364D01*
X-40696460Y49354648D01*
X-40671447Y49342602D01*
X-40600394Y49297957D01*
X-40578687Y49280645D01*
X-40519356Y49221314D01*
X-40502043Y49199605D01*
X-40457400Y49128556D01*
X-40445352Y49103538D01*
X-40417638Y49024334D01*
X-40411460Y48997265D01*
X-40401280Y48906924D01*
X-40400500Y48893039D01*
X-40400500Y48792683D01*
X-40369956Y48580236D01*
X-40369953Y48580226D01*
X-40309483Y48374285D01*
X-40220328Y48179062D01*
X-40220321Y48179049D01*
X-40104280Y47998486D01*
X-39963725Y47836276D01*
X-39839723Y47728828D01*
X-39801513Y47695719D01*
X-39672469Y47612789D01*
X-39620952Y47579680D01*
X-39620939Y47579673D01*
X-39425716Y47490518D01*
X-39425712Y47490517D01*
X-39425710Y47490516D01*
X-39219769Y47430046D01*
X-39219768Y47430046D01*
X-39219765Y47430045D01*
X-39156416Y47420938D01*
X-39007318Y47399500D01*
X-39007317Y47399500D01*
X18926000Y47399500D01*
X18993039Y47379815D01*
X19038794Y47327011D01*
X19050000Y47275500D01*
X19050000Y-14398463D01*
X19030315Y-14465502D01*
X18977511Y-14511257D01*
X18908353Y-14521201D01*
X18860904Y-14504002D01*
X18749340Y-14435189D01*
X18749335Y-14435187D01*
X18749334Y-14435186D01*
X18582797Y-14380001D01*
X18582795Y-14380000D01*
X18480010Y-14369500D01*
X17079998Y-14369500D01*
X17079981Y-14369501D01*
X16977203Y-14380000D01*
X16977200Y-14380001D01*
X16810668Y-14435185D01*
X16810663Y-14435187D01*
X16661342Y-14527289D01*
X16597681Y-14590951D01*
X16536358Y-14624436D01*
X16466666Y-14619452D01*
X16422319Y-14590951D01*
X16358657Y-14527289D01*
X16358656Y-14527288D01*
X16209334Y-14435186D01*
X16042797Y-14380001D01*
X16042795Y-14380000D01*
X15940010Y-14369500D01*
X14539998Y-14369500D01*
X14539981Y-14369501D01*
X14437203Y-14380000D01*
X14437200Y-14380001D01*
X14270668Y-14435185D01*
X14270663Y-14435187D01*
X14121342Y-14527289D01*
X13997289Y-14651342D01*
X13905187Y-14800663D01*
X13905186Y-14800666D01*
X13850001Y-14967203D01*
X13850001Y-14967204D01*
X13850000Y-14967204D01*
X13839500Y-15069983D01*
X13839500Y-15069996D01*
X13839501Y-15451700D01*
X13819817Y-15518739D01*
X13767013Y-15564494D01*
X13715501Y-15575700D01*
X13634512Y-15575700D01*
X13567473Y-15556015D01*
X13557197Y-15548645D01*
X13554363Y-15546385D01*
X13554362Y-15546384D01*
X13497596Y-15510715D01*
X13401623Y-15450411D01*
X13231354Y-15390831D01*
X13231349Y-15390830D01*
X13052104Y-15370635D01*
X13052096Y-15370635D01*
X12872850Y-15390830D01*
X12872845Y-15390831D01*
X12702576Y-15450411D01*
X12549837Y-15546384D01*
X12422284Y-15673937D01*
X12326311Y-15826676D01*
X12266731Y-15996945D01*
X12266730Y-15996950D01*
X12246535Y-16176196D01*
X12246535Y-16176203D01*
X12266730Y-16355449D01*
X12266731Y-16355454D01*
X12326311Y-16525723D01*
X12350035Y-16563479D01*
X12422284Y-16678462D01*
X12549838Y-16806016D01*
X12702578Y-16901989D01*
X12818658Y-16942607D01*
X12872845Y-16961568D01*
X12872850Y-16961569D01*
X13052096Y-16981765D01*
X13052100Y-16981765D01*
X13052104Y-16981765D01*
X13231349Y-16961569D01*
X13231352Y-16961568D01*
X13231355Y-16961568D01*
X13401622Y-16901989D01*
X13423927Y-16887974D01*
X13491163Y-16868973D01*
X13557999Y-16889340D01*
X13603213Y-16942607D01*
X13613900Y-16992967D01*
X13613900Y-17690500D01*
X13594215Y-17757539D01*
X13541411Y-17803294D01*
X13489900Y-17814500D01*
X6992598Y-17814500D01*
X6925559Y-17794815D01*
X6904916Y-17778180D01*
X6859197Y-17732460D01*
X6859174Y-17732439D01*
X6513938Y-17387203D01*
X6480453Y-17325880D01*
X6478261Y-17286921D01*
X6480500Y-17265009D01*
X6480499Y-16339992D01*
X6472770Y-16264334D01*
X6469999Y-16237203D01*
X6469998Y-16237200D01*
X6414814Y-16070666D01*
X6322712Y-15921344D01*
X6198656Y-15797288D01*
X6049334Y-15705186D01*
X5882797Y-15650001D01*
X5882795Y-15650000D01*
X5780010Y-15639500D01*
X4379998Y-15639500D01*
X4379981Y-15639501D01*
X4277203Y-15650000D01*
X4277200Y-15650001D01*
X4110668Y-15705185D01*
X4110663Y-15705187D01*
X3961342Y-15797289D01*
X3837289Y-15921342D01*
X3745187Y-16070663D01*
X3745185Y-16070668D01*
X3726524Y-16126984D01*
X3690001Y-16237203D01*
X3690001Y-16237204D01*
X3690000Y-16237204D01*
X3679500Y-16339983D01*
X3679500Y-17265001D01*
X3679501Y-17265019D01*
X3690000Y-17367796D01*
X3690001Y-17367799D01*
X3745185Y-17534331D01*
X3745186Y-17534334D01*
X3837288Y-17683656D01*
X3961344Y-17807712D01*
X4110666Y-17899814D01*
X4277203Y-17954999D01*
X4379991Y-17965500D01*
X5342402Y-17965499D01*
X5409441Y-17985183D01*
X5430083Y-18001818D01*
X5455018Y-18026753D01*
X5488503Y-18088076D01*
X5483519Y-18157768D01*
X5441647Y-18213701D01*
X5376183Y-18238118D01*
X5367337Y-18238434D01*
X3671161Y-18238434D01*
X3671155Y-18238435D01*
X3611548Y-18244842D01*
X3476703Y-18295136D01*
X3476696Y-18295140D01*
X3361489Y-18381385D01*
X3361481Y-18381392D01*
X3329227Y-18424478D01*
X3273293Y-18466348D01*
X3262058Y-18469939D01*
X3185618Y-18490422D01*
X3185609Y-18490426D01*
X3048690Y-18569475D01*
X3048682Y-18569481D01*
X2936881Y-18681282D01*
X2936875Y-18681290D01*
X2857826Y-18818209D01*
X2857823Y-18818216D01*
X2816900Y-18970943D01*
X2816900Y-24559030D01*
X2816899Y-24559048D01*
X2816899Y-24724754D01*
X2816898Y-24724754D01*
X2857823Y-24877487D01*
X2857824Y-24877488D01*
X2879695Y-24915369D01*
X2936875Y-25014409D01*
X2936879Y-25014414D01*
X2936880Y-25014416D01*
X3033980Y-25111516D01*
X3145784Y-25223320D01*
X3156529Y-25229524D01*
X3204746Y-25280088D01*
X3218532Y-25336912D01*
X3218532Y-25758936D01*
X3218533Y-25758942D01*
X3224941Y-25818550D01*
X3272670Y-25946521D01*
X3277654Y-26016212D01*
X3244168Y-26077535D01*
X3193020Y-26107066D01*
X3193123Y-26107314D01*
X3191246Y-26108091D01*
X3188590Y-26109625D01*
X3185624Y-26110419D01*
X3185609Y-26110426D01*
X3048690Y-26189475D01*
X3048682Y-26189481D01*
X2936881Y-26301282D01*
X2936875Y-26301290D01*
X2857826Y-26438209D01*
X2857823Y-26438216D01*
X2816900Y-26590943D01*
X2816900Y-29720730D01*
X2816899Y-29720748D01*
X2816899Y-29886454D01*
X2816898Y-29886454D01*
X2857823Y-30039185D01*
X2886758Y-30089300D01*
X2886759Y-30089303D01*
X2922887Y-30151879D01*
X2939500Y-30213879D01*
X2939500Y-31155001D01*
X2939501Y-31155019D01*
X2950000Y-31257796D01*
X2950001Y-31257799D01*
X3005185Y-31424331D01*
X3005186Y-31424334D01*
X3097288Y-31573656D01*
X3221344Y-31697712D01*
X3370666Y-31789814D01*
X3537203Y-31844999D01*
X3639991Y-31855500D01*
X4540008Y-31855499D01*
X4540016Y-31855498D01*
X4540019Y-31855498D01*
X4596302Y-31849748D01*
X4642797Y-31844999D01*
X4809334Y-31789814D01*
X4958656Y-31697712D01*
X5082712Y-31573656D01*
X5174814Y-31424334D01*
X5229999Y-31257797D01*
X5240500Y-31155009D01*
X5240499Y-29804992D01*
X5229999Y-29702203D01*
X5174814Y-29535666D01*
X5082712Y-29386344D01*
X4958656Y-29262288D01*
X4809334Y-29170186D01*
X4642797Y-29115001D01*
X4642795Y-29115000D01*
X4540016Y-29104500D01*
X4540009Y-29104500D01*
X4141900Y-29104500D01*
X4074861Y-29084815D01*
X4029106Y-29032011D01*
X4017900Y-28980500D01*
X4017900Y-27605565D01*
X4037585Y-27538526D01*
X4090389Y-27492771D01*
X4141900Y-27481565D01*
X6240971Y-27481565D01*
X6240972Y-27481565D01*
X6300583Y-27475157D01*
X6435431Y-27424862D01*
X6550646Y-27338612D01*
X6636896Y-27223397D01*
X6687191Y-27088549D01*
X6693600Y-27028939D01*
X6693599Y-26311062D01*
X6691549Y-26291993D01*
X6703953Y-26223234D01*
X6751562Y-26172096D01*
X6819261Y-26154815D01*
X6885556Y-26176878D01*
X6902519Y-26191055D01*
X7226984Y-26515520D01*
X7226986Y-26515521D01*
X7226990Y-26515524D01*
X7343685Y-26582897D01*
X7363916Y-26594577D01*
X7516643Y-26635501D01*
X7516645Y-26635501D01*
X7682354Y-26635501D01*
X7682370Y-26635500D01*
X14119491Y-26635500D01*
X14186530Y-26655185D01*
X14193802Y-26660233D01*
X14273768Y-26720095D01*
X14273771Y-26720097D01*
X14408617Y-26770391D01*
X14408616Y-26770391D01*
X14415544Y-26771135D01*
X14468227Y-26776800D01*
X16418172Y-26776799D01*
X16477783Y-26770391D01*
X16612631Y-26720096D01*
X16727846Y-26633846D01*
X16814096Y-26518631D01*
X16864391Y-26383783D01*
X16870800Y-26324173D01*
X16870799Y-25893395D01*
X16890483Y-25826357D01*
X16943287Y-25780602D01*
X17012446Y-25770658D01*
X17076002Y-25799683D01*
X17082480Y-25805715D01*
X17771981Y-26495216D01*
X17805466Y-26556539D01*
X17808300Y-26582897D01*
X17808300Y-27257787D01*
X17788615Y-27324826D01*
X17781250Y-27335096D01*
X17778986Y-27337934D01*
X17683011Y-27490676D01*
X17623431Y-27660945D01*
X17623430Y-27660950D01*
X17603235Y-27840196D01*
X17603235Y-27840203D01*
X17623430Y-28019449D01*
X17623431Y-28019454D01*
X17683011Y-28189723D01*
X17778984Y-28342462D01*
X17906538Y-28470016D01*
X17996880Y-28526782D01*
X18044521Y-28556717D01*
X18059278Y-28565989D01*
X18176698Y-28607076D01*
X18229545Y-28625568D01*
X18229550Y-28625569D01*
X18408796Y-28645765D01*
X18408800Y-28645765D01*
X18408804Y-28645765D01*
X18588049Y-28625569D01*
X18588052Y-28625568D01*
X18588055Y-28625568D01*
X18758322Y-28565989D01*
X18773079Y-28556717D01*
X18795353Y-28542720D01*
X18860028Y-28502082D01*
X18927264Y-28483082D01*
X18994099Y-28503449D01*
X19039314Y-28556717D01*
X19050000Y-28607076D01*
X19050000Y-47275500D01*
X19030315Y-47342539D01*
X18977511Y-47388294D01*
X18926000Y-47399500D01*
X-39007318Y-47399500D01*
X-39219765Y-47430044D01*
X-39219775Y-47430047D01*
X-39425716Y-47490517D01*
X-39620939Y-47579672D01*
X-39620952Y-47579679D01*
X-39801515Y-47695720D01*
X-39963725Y-47836275D01*
X-40104280Y-47998485D01*
X-40220321Y-48179048D01*
X-40220328Y-48179061D01*
X-40309483Y-48374284D01*
X-40369953Y-48580225D01*
X-40369956Y-48580235D01*
X-40400500Y-48792682D01*
X-40400500Y-48893038D01*
X-40401280Y-48906923D01*
X-40411460Y-48997264D01*
X-40417638Y-49024333D01*
X-40445352Y-49103537D01*
X-40457400Y-49128555D01*
X-40502043Y-49199604D01*
X-40519356Y-49221313D01*
X-40578687Y-49280644D01*
X-40600396Y-49297957D01*
X-40671445Y-49342600D01*
X-40696463Y-49354648D01*
X-40775667Y-49382362D01*
X-40802736Y-49388540D01*
X-40882925Y-49397576D01*
X-40893079Y-49398720D01*
X-40906962Y-49399500D01*
X-48893038Y-49399500D01*
X-48906922Y-49398720D01*
X-48919447Y-49397308D01*
X-48997265Y-49388540D01*
X-49024334Y-49382362D01*
X-49103538Y-49354648D01*
X-49128556Y-49342600D01*
X-49199605Y-49297957D01*
X-49221314Y-49280644D01*
X-49280645Y-49221313D01*
X-49297958Y-49199604D01*
X-49342601Y-49128555D01*
X-49354649Y-49103537D01*
X-49382363Y-49024333D01*
X-49388541Y-48997263D01*
X-49398720Y-48906922D01*
X-49399500Y-48893038D01*
X-49399500Y-46000000D01*
X-48105408Y-46000000D01*
X-48085799Y-46286680D01*
X-48085799Y-46286684D01*
X-48085798Y-46286686D01*
X-48064016Y-46391509D01*
X-48027334Y-46568034D01*
X-48027333Y-46568037D01*
X-47931106Y-46838793D01*
X-47931107Y-46838793D01*
X-47798902Y-47093935D01*
X-47633188Y-47328700D01*
X-47548077Y-47419831D01*
X-47437053Y-47538708D01*
X-47214147Y-47720055D01*
X-47023031Y-47836276D01*
X-46968618Y-47869365D01*
X-46781763Y-47950526D01*
X-46705058Y-47983844D01*
X-46428358Y-48061371D01*
X-46196890Y-48093186D01*
X-46143679Y-48100500D01*
X-46143678Y-48100500D01*
X-45856321Y-48100500D01*
X-45803110Y-48093186D01*
X-45571642Y-48061371D01*
X-45294942Y-47983844D01*
X-45181985Y-47934779D01*
X-45031383Y-47869365D01*
X-45031380Y-47869363D01*
X-45031375Y-47869361D01*
X-44785853Y-47720055D01*
X-44562947Y-47538708D01*
X-44366811Y-47328698D01*
X-44201099Y-47093936D01*
X-44068896Y-46838797D01*
X-43972666Y-46568032D01*
X-43914202Y-46286686D01*
X-43894592Y-46000000D01*
X-43914202Y-45713314D01*
X-43972666Y-45431968D01*
X-44068895Y-45161206D01*
X-44068894Y-45161206D01*
X-44152425Y-45000000D01*
X-12605449Y-45000000D01*
X-12585683Y-45251151D01*
X-12526874Y-45496110D01*
X-12430467Y-45728859D01*
X-12298840Y-45943653D01*
X-12298839Y-45943656D01*
X-12298836Y-45943659D01*
X-12135224Y-46135224D01*
X-11986934Y-46261875D01*
X-11943657Y-46298838D01*
X-11943654Y-46298839D01*
X-11728860Y-46430466D01*
X-11496111Y-46526873D01*
X-11251148Y-46585683D01*
X-11000000Y-46605449D01*
X-10748852Y-46585683D01*
X-10503889Y-46526873D01*
X-10271141Y-46430466D01*
X-10056341Y-46298836D01*
X-9864776Y-46135224D01*
X-9701164Y-45943659D01*
X-9569534Y-45728859D01*
X-9473127Y-45496111D01*
X-9414317Y-45251148D01*
X-9394551Y-45000000D01*
X-9414317Y-44748852D01*
X-9473127Y-44503889D01*
X-9565887Y-44279945D01*
X-9569534Y-44271140D01*
X-9701161Y-44056346D01*
X-9701162Y-44056343D01*
X-9801700Y-43938629D01*
X-9864776Y-43864776D01*
X-9991429Y-43756604D01*
X-10056344Y-43701161D01*
X-10056347Y-43701160D01*
X-10271141Y-43569533D01*
X-10503890Y-43473126D01*
X-10748849Y-43414317D01*
X-11000000Y-43394551D01*
X-11251152Y-43414317D01*
X-11496111Y-43473126D01*
X-11728860Y-43569533D01*
X-11943654Y-43701160D01*
X-11943657Y-43701161D01*
X-12135224Y-43864776D01*
X-12298839Y-44056343D01*
X-12298840Y-44056346D01*
X-12430467Y-44271140D01*
X-12526874Y-44503889D01*
X-12585683Y-44748848D01*
X-12605449Y-45000000D01*
X-44152425Y-45000000D01*
X-44201099Y-44906064D01*
X-44366813Y-44671299D01*
X-44455734Y-44576089D01*
X-44562947Y-44461292D01*
X-44785853Y-44279945D01*
X-44785854Y-44279944D01*
X-45031383Y-44130634D01*
X-45294937Y-44016158D01*
X-45294939Y-44016157D01*
X-45294942Y-44016156D01*
X-45424422Y-43979877D01*
X-45571636Y-43938630D01*
X-45571641Y-43938629D01*
X-45571642Y-43938629D01*
X-45713982Y-43919064D01*
X-45856321Y-43899500D01*
X-45856322Y-43899500D01*
X-46143678Y-43899500D01*
X-46143679Y-43899500D01*
X-46428358Y-43938629D01*
X-46428365Y-43938630D01*
X-46636139Y-43996845D01*
X-46705058Y-44016156D01*
X-46705061Y-44016156D01*
X-46705064Y-44016158D01*
X-46705065Y-44016158D01*
X-46968618Y-44130634D01*
X-47214147Y-44279944D01*
X-47437050Y-44461289D01*
X-47633188Y-44671299D01*
X-47798902Y-44906064D01*
X-47931106Y-45161206D01*
X-48027333Y-45431962D01*
X-48027334Y-45431965D01*
X-48085799Y-45713319D01*
X-48105408Y-46000000D01*
X-49399500Y-46000000D01*
X-49399500Y-39000000D01*
X-48605449Y-39000000D01*
X-48585683Y-39251151D01*
X-48526874Y-39496110D01*
X-48430467Y-39728859D01*
X-48298840Y-39943653D01*
X-48298839Y-39943656D01*
X-48298836Y-39943659D01*
X-48135224Y-40135224D01*
X-47986934Y-40261875D01*
X-47943657Y-40298838D01*
X-47943654Y-40298839D01*
X-47728860Y-40430466D01*
X-47496111Y-40526873D01*
X-47251148Y-40585683D01*
X-47000000Y-40605449D01*
X-46748852Y-40585683D01*
X-46503889Y-40526873D01*
X-46271141Y-40430466D01*
X-46056341Y-40298836D01*
X-45864776Y-40135224D01*
X-45701164Y-39943659D01*
X-45569534Y-39728859D01*
X-45473127Y-39496111D01*
X-45414317Y-39251148D01*
X-45394551Y-39000000D01*
X-45414317Y-38748852D01*
X-45473127Y-38503889D01*
X-45569534Y-38271141D01*
X-45569534Y-38271140D01*
X-45701161Y-38056346D01*
X-45701162Y-38056343D01*
X-45738125Y-38013066D01*
X-45864776Y-37864776D01*
X-45991429Y-37756604D01*
X-46056344Y-37701161D01*
X-46056347Y-37701160D01*
X-46271141Y-37569533D01*
X-46503890Y-37473126D01*
X-46748849Y-37414317D01*
X-47000000Y-37394551D01*
X-47251152Y-37414317D01*
X-47496111Y-37473126D01*
X-47728860Y-37569533D01*
X-47943654Y-37701160D01*
X-47943657Y-37701161D01*
X-48135224Y-37864776D01*
X-48298839Y-38056343D01*
X-48298840Y-38056346D01*
X-48430467Y-38271140D01*
X-48526874Y-38503889D01*
X-48585683Y-38748848D01*
X-48605449Y-39000000D01*
X-49399500Y-39000000D01*
X-49399500Y-22077396D01*
X-40530165Y-22077396D01*
X-40530165Y-22077403D01*
X-40509970Y-22256649D01*
X-40509969Y-22256654D01*
X-40450389Y-22426923D01*
X-40402069Y-22503823D01*
X-40354416Y-22579662D01*
X-40226862Y-22707216D01*
X-40136520Y-22763982D01*
X-40104477Y-22784116D01*
X-40074122Y-22803189D01*
X-39911765Y-22860000D01*
X-39903855Y-22862768D01*
X-39903850Y-22862769D01*
X-39724604Y-22882965D01*
X-39724600Y-22882965D01*
X-39724596Y-22882965D01*
X-39545351Y-22862769D01*
X-39545348Y-22862768D01*
X-39545345Y-22862768D01*
X-39375078Y-22803189D01*
X-39222338Y-22707216D01*
X-39094784Y-22579662D01*
X-38998811Y-22426922D01*
X-38939232Y-22256655D01*
X-38929439Y-22169729D01*
X-38902374Y-22105318D01*
X-38893910Y-22095943D01*
X-38449684Y-21651719D01*
X-38388361Y-21618234D01*
X-38362003Y-21615400D01*
X-37262814Y-21615400D01*
X-37195775Y-21635085D01*
X-37150020Y-21687889D01*
X-37139594Y-21725516D01*
X-37129270Y-21817150D01*
X-37129269Y-21817154D01*
X-37069689Y-21987423D01*
X-37031740Y-22047818D01*
X-36973716Y-22140162D01*
X-36846162Y-22267716D01*
X-36693422Y-22363689D01*
X-36523155Y-22423268D01*
X-36436231Y-22433061D01*
X-36371820Y-22460126D01*
X-36362435Y-22468600D01*
X-35606661Y-23224374D01*
X-35606651Y-23224385D01*
X-35602321Y-23228715D01*
X-35602320Y-23228716D01*
X-35490516Y-23340520D01*
X-35490514Y-23340521D01*
X-35490510Y-23340524D01*
X-35395978Y-23395101D01*
X-35353584Y-23419577D01*
X-35241781Y-23449534D01*
X-35200858Y-23460500D01*
X-35200857Y-23460500D01*
X-1692186Y-23460500D01*
X-1625147Y-23480185D01*
X-1579392Y-23532989D01*
X-1569448Y-23602147D01*
X-1576162Y-23628253D01*
X-1576274Y-23628550D01*
X-1604616Y-23672477D01*
X-1693420Y-23761283D01*
X-1693422Y-23761286D01*
X-2045435Y-24113298D01*
X-2106758Y-24146783D01*
X-2119232Y-24148837D01*
X-2206150Y-24158630D01*
X-2376422Y-24218210D01*
X-2529163Y-24314184D01*
X-2656716Y-24441737D01*
X-2752689Y-24594476D01*
X-2812269Y-24764745D01*
X-2812270Y-24764750D01*
X-2832465Y-24943996D01*
X-2832465Y-24944003D01*
X-2812270Y-25123249D01*
X-2812269Y-25123254D01*
X-2752689Y-25293523D01*
X-2664107Y-25434500D01*
X-2656716Y-25446262D01*
X-2529162Y-25573816D01*
X-2376422Y-25669789D01*
X-2281113Y-25703139D01*
X-2206155Y-25729368D01*
X-2206150Y-25729369D01*
X-2026904Y-25749565D01*
X-2026900Y-25749565D01*
X-2026896Y-25749565D01*
X-1847651Y-25729369D01*
X-1847648Y-25729368D01*
X-1847645Y-25729368D01*
X-1847644Y-25729367D01*
X-1847641Y-25729367D01*
X-1772687Y-25703139D01*
X-1702908Y-25699576D01*
X-1642280Y-25734305D01*
X-1610053Y-25796298D01*
X-1608442Y-25806923D01*
X-1607193Y-25818546D01*
X-1556898Y-25953394D01*
X-1556894Y-25953401D01*
X-1470648Y-26068610D01*
X-1470645Y-26068613D01*
X-1355436Y-26154859D01*
X-1355429Y-26154863D01*
X-1220583Y-26205157D01*
X-1220584Y-26205157D01*
X-1213656Y-26205901D01*
X-1160973Y-26211566D01*
X938100Y-26211565D01*
X1005139Y-26231250D01*
X1050894Y-26284053D01*
X1062100Y-26335565D01*
X1062100Y-28980500D01*
X1042415Y-29047539D01*
X989611Y-29093294D01*
X938100Y-29104500D01*
X539998Y-29104500D01*
X539980Y-29104501D01*
X437203Y-29115000D01*
X437200Y-29115001D01*
X270668Y-29170185D01*
X270663Y-29170187D01*
X121342Y-29262289D01*
X-2711Y-29386342D01*
X-94813Y-29535663D01*
X-94814Y-29535666D01*
X-149999Y-29702203D01*
X-149999Y-29702204D01*
X-150000Y-29702204D01*
X-160500Y-29804983D01*
X-160500Y-31155001D01*
X-160499Y-31155018D01*
X-150000Y-31257796D01*
X-149999Y-31257799D01*
X-94815Y-31424331D01*
X-94814Y-31424334D01*
X-2712Y-31573656D01*
X121344Y-31697712D01*
X270666Y-31789814D01*
X437203Y-31844999D01*
X539991Y-31855500D01*
X1440008Y-31855499D01*
X1440016Y-31855498D01*
X1440019Y-31855498D01*
X1496302Y-31849748D01*
X1542797Y-31844999D01*
X1709334Y-31789814D01*
X1858656Y-31697712D01*
X1982712Y-31573656D01*
X2074814Y-31424334D01*
X2129999Y-31257797D01*
X2140500Y-31155009D01*
X2140499Y-30213878D01*
X2157110Y-30151883D01*
X2193239Y-30089304D01*
X2222177Y-30039185D01*
X2263101Y-29886457D01*
X2263101Y-29728343D01*
X2263101Y-29720748D01*
X2263100Y-29720730D01*
X2263100Y-18970945D01*
X2263100Y-18970943D01*
X2222177Y-18818216D01*
X2190752Y-18763786D01*
X2143124Y-18681290D01*
X2143118Y-18681282D01*
X2031317Y-18569481D01*
X2031309Y-18569475D01*
X1894390Y-18490426D01*
X1894386Y-18490424D01*
X1894384Y-18490423D01*
X1894382Y-18490422D01*
X1894379Y-18490421D01*
X1817941Y-18469939D01*
X1758281Y-18433574D01*
X1750769Y-18424476D01*
X1718514Y-18381388D01*
X1603299Y-18295138D01*
X1603297Y-18295137D01*
X1603296Y-18295136D01*
X1468450Y-18244842D01*
X1468451Y-18244842D01*
X1408851Y-18238435D01*
X1408849Y-18238434D01*
X1408841Y-18238434D01*
X1408833Y-18238434D01*
X-287338Y-18238434D01*
X-354377Y-18218749D01*
X-400132Y-18165945D01*
X-410076Y-18096787D01*
X-381051Y-18033231D01*
X-375019Y-18026753D01*
X-350084Y-18001818D01*
X-288761Y-17968333D01*
X-262403Y-17965499D01*
X700002Y-17965499D01*
X700008Y-17965499D01*
X802797Y-17954999D01*
X969334Y-17899814D01*
X1118656Y-17807712D01*
X1242712Y-17683656D01*
X1334814Y-17534334D01*
X1389999Y-17367797D01*
X1400500Y-17265009D01*
X1400499Y-16339992D01*
X1392770Y-16264334D01*
X1389999Y-16237203D01*
X1389998Y-16237200D01*
X1334814Y-16070666D01*
X1242712Y-15921344D01*
X1118656Y-15797288D01*
X969334Y-15705186D01*
X802797Y-15650001D01*
X802795Y-15650000D01*
X700010Y-15639500D01*
X-700002Y-15639500D01*
X-700019Y-15639501D01*
X-802797Y-15650000D01*
X-802800Y-15650001D01*
X-969332Y-15705185D01*
X-969337Y-15705187D01*
X-1118658Y-15797289D01*
X-1242711Y-15921342D01*
X-1334813Y-16070663D01*
X-1334815Y-16070668D01*
X-1353476Y-16126984D01*
X-1389999Y-16237203D01*
X-1389999Y-16237204D01*
X-1390000Y-16237204D01*
X-1400500Y-16339983D01*
X-1400500Y-17265001D01*
X-1400499Y-17265019D01*
X-1398261Y-17286920D01*
X-1411031Y-17355613D01*
X-1433938Y-17387202D01*
X-1616470Y-17569733D01*
X-1677793Y-17603218D01*
X-1747485Y-17598234D01*
X-1791832Y-17569733D01*
X-3547010Y-15814555D01*
X-3547012Y-15814552D01*
X-3665883Y-15695681D01*
X-3665884Y-15695680D01*
X-3763190Y-15639501D01*
X-3763191Y-15639500D01*
X-3802817Y-15616622D01*
X-3858719Y-15601643D01*
X-3955543Y-15575699D01*
X-4113657Y-15575699D01*
X-4121253Y-15575699D01*
X-4121269Y-15575700D01*
X-12652588Y-15575700D01*
X-12719627Y-15556015D01*
X-12729903Y-15548645D01*
X-12732737Y-15546385D01*
X-12732738Y-15546384D01*
X-12789504Y-15510715D01*
X-12885477Y-15450411D01*
X-13055746Y-15390831D01*
X-13055751Y-15390830D01*
X-13234996Y-15370635D01*
X-13235004Y-15370635D01*
X-13414250Y-15390830D01*
X-13414255Y-15390831D01*
X-13584524Y-15450411D01*
X-13737263Y-15546384D01*
X-13864816Y-15673937D01*
X-13960789Y-15826676D01*
X-14020369Y-15996945D01*
X-14020370Y-15996950D01*
X-14040565Y-16176196D01*
X-14040565Y-16176203D01*
X-14020370Y-16355449D01*
X-14020369Y-16355454D01*
X-13960789Y-16525723D01*
X-13937065Y-16563479D01*
X-13864816Y-16678462D01*
X-13737262Y-16806016D01*
X-13584522Y-16901989D01*
X-13468442Y-16942607D01*
X-13414255Y-16961568D01*
X-13414250Y-16961569D01*
X-13235004Y-16981765D01*
X-13235000Y-16981765D01*
X-13234996Y-16981765D01*
X-13055751Y-16961569D01*
X-13055748Y-16961568D01*
X-13055745Y-16961568D01*
X-12885478Y-16901989D01*
X-12732738Y-16806016D01*
X-12732733Y-16806010D01*
X-12729903Y-16803755D01*
X-12727725Y-16802865D01*
X-12726842Y-16802311D01*
X-12726745Y-16802465D01*
X-12665217Y-16777345D01*
X-12652588Y-16776700D01*
X-4334697Y-16776700D01*
X-4267658Y-16796385D01*
X-4247016Y-16813019D01*
X-2478361Y-18581674D01*
X-2478351Y-18581685D01*
X-2474021Y-18586015D01*
X-2474020Y-18586016D01*
X-2362216Y-18697820D01*
X-2275405Y-18747939D01*
X-2275403Y-18747941D01*
X-2225287Y-18776876D01*
X-2225285Y-18776877D01*
X-2107205Y-18808516D01*
X-2047547Y-18844880D01*
X-2017017Y-18907726D01*
X-2015300Y-18928290D01*
X-2015300Y-19129057D01*
X-2007866Y-19156799D01*
X-1974377Y-19281783D01*
X-1974374Y-19281790D01*
X-1895325Y-19418709D01*
X-1895319Y-19418717D01*
X-1806217Y-19507819D01*
X-1772732Y-19569142D01*
X-1777716Y-19638834D01*
X-1819588Y-19694767D01*
X-1885052Y-19719184D01*
X-1893898Y-19719500D01*
X-29379503Y-19719500D01*
X-29446542Y-19699815D01*
X-29467184Y-19683181D01*
X-32992700Y-16157665D01*
X-33026185Y-16096342D01*
X-33028237Y-16083886D01*
X-33038032Y-15996945D01*
X-33097611Y-15826678D01*
X-33193584Y-15673938D01*
X-33321138Y-15546384D01*
X-33473877Y-15450411D01*
X-33644146Y-15390831D01*
X-33644151Y-15390830D01*
X-33823396Y-15370635D01*
X-33823404Y-15370635D01*
X-34002650Y-15390830D01*
X-34002655Y-15390831D01*
X-34172924Y-15450411D01*
X-34325663Y-15546384D01*
X-34453216Y-15673937D01*
X-34549189Y-15826676D01*
X-34608769Y-15996945D01*
X-34608770Y-15996950D01*
X-34628965Y-16176196D01*
X-34628965Y-16176203D01*
X-34608770Y-16355449D01*
X-34608769Y-16355454D01*
X-34549189Y-16525723D01*
X-34525465Y-16563479D01*
X-34453216Y-16678462D01*
X-34325662Y-16806016D01*
X-34172922Y-16901989D01*
X-34002655Y-16961568D01*
X-33915731Y-16971361D01*
X-33851320Y-16998426D01*
X-33841935Y-17006900D01*
X-30646116Y-20202719D01*
X-30612631Y-20264042D01*
X-30617615Y-20333734D01*
X-30659487Y-20389667D01*
X-30724951Y-20414084D01*
X-30733797Y-20414400D01*
X-38575431Y-20414400D01*
X-38575447Y-20414399D01*
X-38583043Y-20414399D01*
X-38741157Y-20414399D01*
X-38848513Y-20443165D01*
X-38893890Y-20455324D01*
X-38893891Y-20455325D01*
X-38944004Y-20484259D01*
X-38944005Y-20484260D01*
X-38987411Y-20509320D01*
X-39030815Y-20534379D01*
X-39030818Y-20534381D01*
X-39142622Y-20646186D01*
X-39743135Y-21246698D01*
X-39804458Y-21280183D01*
X-39816932Y-21282237D01*
X-39903850Y-21292030D01*
X-40074122Y-21351610D01*
X-40226863Y-21447584D01*
X-40354416Y-21575137D01*
X-40450389Y-21727876D01*
X-40509969Y-21898145D01*
X-40509970Y-21898150D01*
X-40530165Y-22077396D01*
X-49399500Y-22077396D01*
X-49399500Y14865364D01*
X-43958200Y14865364D01*
X-43958200Y14865357D01*
X-43958200Y14865356D01*
X-43958200Y14134621D01*
X-43958199Y14134615D01*
X-43951792Y14075009D01*
X-43939974Y14043323D01*
X-43934991Y13973631D01*
X-43939974Y13956661D01*
X-43949727Y13930511D01*
X-43951791Y13924976D01*
X-43958200Y13865366D01*
X-43958200Y13865359D01*
X-43958200Y13865358D01*
X-43958200Y13134623D01*
X-43958199Y13134617D01*
X-43951792Y13075011D01*
X-43939974Y13043325D01*
X-43934991Y12973633D01*
X-43939974Y12956663D01*
X-43950890Y12927395D01*
X-43951791Y12924978D01*
X-43958200Y12865368D01*
X-43958200Y12865361D01*
X-43958200Y12865360D01*
X-43958200Y12134625D01*
X-43958199Y12134619D01*
X-43951792Y12075013D01*
X-43939974Y12043327D01*
X-43934991Y11973635D01*
X-43939974Y11956665D01*
X-43939975Y11956661D01*
X-43951791Y11924980D01*
X-43958200Y11865370D01*
X-43958200Y11865363D01*
X-43958200Y11865362D01*
X-43958200Y11134627D01*
X-43958199Y11134621D01*
X-43951792Y11075015D01*
X-43939974Y11043329D01*
X-43934991Y10973637D01*
X-43939974Y10956667D01*
X-43939975Y10956663D01*
X-43951791Y10924982D01*
X-43958200Y10865372D01*
X-43958200Y10865365D01*
X-43958200Y10865364D01*
X-43958200Y10134629D01*
X-43958199Y10134623D01*
X-43951792Y10075017D01*
X-43939974Y10043331D01*
X-43934991Y9973639D01*
X-43939974Y9956669D01*
X-43939975Y9956665D01*
X-43951791Y9924984D01*
X-43958200Y9865374D01*
X-43958200Y9865367D01*
X-43958200Y9865366D01*
X-43958200Y9134631D01*
X-43958199Y9134625D01*
X-43951792Y9075019D01*
X-43939974Y9043333D01*
X-43934991Y8973641D01*
X-43939974Y8956671D01*
X-43951790Y8924990D01*
X-43951791Y8924986D01*
X-43958200Y8865376D01*
X-43958200Y8865369D01*
X-43958200Y8865368D01*
X-43958200Y8134633D01*
X-43958199Y8134627D01*
X-43951792Y8075021D01*
X-43939974Y8043335D01*
X-43934991Y7973643D01*
X-43939974Y7956673D01*
X-43951790Y7924992D01*
X-43951791Y7924988D01*
X-43958200Y7865378D01*
X-43958200Y7865371D01*
X-43958200Y7865370D01*
X-43958200Y7134635D01*
X-43958199Y7134629D01*
X-43951792Y7075023D01*
X-43939974Y7043337D01*
X-43934991Y6973645D01*
X-43939974Y6956675D01*
X-43951790Y6924994D01*
X-43951791Y6924990D01*
X-43958200Y6865380D01*
X-43958200Y6865373D01*
X-43958200Y6865372D01*
X-43958200Y6134637D01*
X-43958199Y6134631D01*
X-43951792Y6075024D01*
X-43901498Y5940179D01*
X-43901494Y5940172D01*
X-43815248Y5824963D01*
X-43815245Y5824960D01*
X-43700036Y5738714D01*
X-43700029Y5738710D01*
X-43565183Y5688416D01*
X-43565184Y5688416D01*
X-43558256Y5687672D01*
X-43505573Y5682007D01*
X-41606428Y5682008D01*
X-41546817Y5688416D01*
X-41411969Y5738711D01*
X-41296754Y5824961D01*
X-41210504Y5940176D01*
X-41160209Y6075024D01*
X-41153800Y6134634D01*
X-41153801Y6865379D01*
X-41160209Y6924990D01*
X-41172027Y6956673D01*
X-41177012Y7026362D01*
X-41172031Y7043329D01*
X-41160209Y7075022D01*
X-41153800Y7134632D01*
X-41153801Y7775501D01*
X-41134117Y7842539D01*
X-41081313Y7888294D01*
X-41029801Y7899500D01*
X-17622897Y7899500D01*
X-17555858Y7879815D01*
X-17535216Y7863181D01*
X-2300902Y-7371133D01*
X-2267417Y-7432456D01*
X-2265363Y-7444930D01*
X-2255570Y-7531849D01*
X-2195990Y-7702121D01*
X-2100016Y-7854862D01*
X-1972462Y-7982416D01*
X-1819722Y-8078389D01*
X-1649455Y-8137968D01*
X-1649450Y-8137969D01*
X-1470204Y-8158165D01*
X-1470200Y-8158165D01*
X-1470196Y-8158165D01*
X-1290951Y-8137969D01*
X-1290948Y-8137968D01*
X-1290945Y-8137968D01*
X-1120678Y-8078389D01*
X-967938Y-7982416D01*
X-840384Y-7854862D01*
X-744411Y-7702122D01*
X-684832Y-7531855D01*
X-675038Y-7444930D01*
X-664635Y-7352603D01*
X-664635Y-7352596D01*
X-684831Y-7173350D01*
X-684832Y-7173345D01*
X-744412Y-7003076D01*
X-840385Y-6850337D01*
X-967938Y-6722784D01*
X-1120679Y-6626810D01*
X-1290951Y-6567230D01*
X-1377870Y-6557437D01*
X-1442284Y-6530370D01*
X-1451667Y-6521898D01*
X-15006430Y7032865D01*
X9392800Y7032865D01*
X9392800Y5413130D01*
X9392801Y5413124D01*
X9399208Y5353517D01*
X9449502Y5218672D01*
X9449504Y5218669D01*
X9497682Y5154311D01*
X9522099Y5088846D01*
X9507247Y5020573D01*
X9497682Y5005689D01*
X9449504Y4941332D01*
X9449502Y4941329D01*
X9399208Y4806483D01*
X9392801Y4746884D01*
X9392801Y4746877D01*
X9392800Y4746865D01*
X9392800Y3127130D01*
X9392801Y3127124D01*
X9399208Y3067517D01*
X9449502Y2932672D01*
X9449506Y2932665D01*
X9535752Y2817456D01*
X9535755Y2817453D01*
X9650964Y2731207D01*
X9650971Y2731203D01*
X9695918Y2714439D01*
X9785817Y2680909D01*
X9845427Y2674500D01*
X10474572Y2674501D01*
X10534183Y2680909D01*
X10669031Y2731204D01*
X10784246Y2817454D01*
X10870496Y2932669D01*
X10920791Y3067517D01*
X10927200Y3127127D01*
X10927200Y3212500D01*
X10946885Y3279539D01*
X10999689Y3325294D01*
X11051200Y3336500D01*
X12822903Y3336500D01*
X12889942Y3316815D01*
X12910584Y3300181D01*
X13224792Y2985973D01*
X13258277Y2924650D01*
X13256886Y2866200D01*
X13230413Y2767398D01*
X13230410Y2767384D01*
X13210517Y2540002D01*
X13210517Y2539999D01*
X13230410Y2312617D01*
X13230412Y2312606D01*
X13289485Y2092138D01*
X13289487Y2092134D01*
X13289488Y2092130D01*
X13337721Y1988694D01*
X13385953Y1885259D01*
X13385955Y1885255D01*
X13516872Y1698288D01*
X13516881Y1698278D01*
X13678277Y1536882D01*
X13678287Y1536873D01*
X13865254Y1405956D01*
X13865258Y1405954D01*
X14072130Y1309488D01*
X14292611Y1250411D01*
X14455031Y1236201D01*
X14519998Y1230517D01*
X14520000Y1230517D01*
X14520002Y1230517D01*
X14576847Y1235491D01*
X14747389Y1250411D01*
X14967870Y1309488D01*
X15174742Y1405954D01*
X15361719Y1536878D01*
X15523122Y1698281D01*
X15654046Y1885258D01*
X15750512Y2092130D01*
X15809589Y2312611D01*
X15829483Y2540000D01*
X15809589Y2767389D01*
X15750512Y2987870D01*
X15654046Y3194741D01*
X15654044Y3194745D01*
X15523121Y3381720D01*
X15361722Y3543119D01*
X15361712Y3543128D01*
X15174745Y3674045D01*
X15174741Y3674047D01*
X15071306Y3722279D01*
X14967870Y3770512D01*
X14967866Y3770513D01*
X14967862Y3770515D01*
X14747394Y3829588D01*
X14747390Y3829589D01*
X14747389Y3829589D01*
X14747388Y3829590D01*
X14747383Y3829590D01*
X14520002Y3849483D01*
X14519998Y3849483D01*
X14292616Y3829590D01*
X14292602Y3829587D01*
X14193800Y3803114D01*
X14123950Y3804777D01*
X14074027Y3835208D01*
X13610590Y4298645D01*
X13610588Y4298648D01*
X13491717Y4417519D01*
X13491716Y4417520D01*
X13404904Y4467640D01*
X13404904Y4467641D01*
X13404900Y4467642D01*
X13354785Y4496577D01*
X13202057Y4537501D01*
X13043943Y4537501D01*
X13036347Y4537501D01*
X13036331Y4537500D01*
X11051199Y4537500D01*
X10984160Y4557185D01*
X10938405Y4609989D01*
X10927199Y4661500D01*
X10927199Y4746871D01*
X10927198Y4746877D01*
X10927197Y4746884D01*
X10920791Y4806483D01*
X10870496Y4941331D01*
X10822317Y5005689D01*
X10797900Y5071153D01*
X10812751Y5139426D01*
X10822316Y5154309D01*
X10870496Y5218669D01*
X10920791Y5353517D01*
X10927200Y5413127D01*
X10927200Y5498500D01*
X10946885Y5565539D01*
X10999689Y5611294D01*
X11051200Y5622500D01*
X13416331Y5622500D01*
X13416347Y5622499D01*
X13423943Y5622499D01*
X13582054Y5622499D01*
X13582057Y5622499D01*
X13734785Y5663423D01*
X13784904Y5692361D01*
X13871716Y5742480D01*
X13983520Y5854284D01*
X13983520Y5854286D01*
X13993728Y5864493D01*
X13993730Y5864496D01*
X14074028Y5944795D01*
X14135349Y5978278D01*
X14193800Y5976887D01*
X14238129Y5965010D01*
X14292611Y5950411D01*
X14455031Y5936201D01*
X14519998Y5930517D01*
X14520000Y5930517D01*
X14520002Y5930517D01*
X14576847Y5935491D01*
X14747389Y5950411D01*
X14967870Y6009488D01*
X15174742Y6105954D01*
X15361719Y6236878D01*
X15523122Y6398281D01*
X15654046Y6585258D01*
X15750512Y6792130D01*
X15809589Y7012611D01*
X15829483Y7240000D01*
X15809589Y7467389D01*
X15750512Y7687870D01*
X15654046Y7894741D01*
X15654044Y7894745D01*
X15549999Y8043335D01*
X15523122Y8081719D01*
X15361719Y8243122D01*
X15361717Y8243124D01*
X15361712Y8243128D01*
X15174745Y8374045D01*
X15174741Y8374047D01*
X15071306Y8422279D01*
X14967870Y8470512D01*
X14967866Y8470513D01*
X14967862Y8470515D01*
X14747394Y8529588D01*
X14747390Y8529589D01*
X14747389Y8529589D01*
X14747388Y8529590D01*
X14747383Y8529590D01*
X14520002Y8549483D01*
X14519998Y8549483D01*
X14292616Y8529590D01*
X14292605Y8529588D01*
X14072137Y8470515D01*
X14072128Y8470511D01*
X13865259Y8374047D01*
X13865255Y8374045D01*
X13678280Y8243122D01*
X13516878Y8081720D01*
X13385955Y7894745D01*
X13385953Y7894741D01*
X13289489Y7687872D01*
X13289485Y7687863D01*
X13230412Y7467395D01*
X13230410Y7467384D01*
X13210517Y7240002D01*
X13210517Y7239999D01*
X13230410Y7012617D01*
X13230412Y7012606D01*
X13239258Y6979593D01*
X13237595Y6909743D01*
X13198432Y6851881D01*
X13134203Y6824377D01*
X13119483Y6823500D01*
X11051199Y6823500D01*
X10984160Y6843185D01*
X10938405Y6895989D01*
X10927199Y6947500D01*
X10927199Y7032871D01*
X10927198Y7032877D01*
X10927197Y7032884D01*
X10920791Y7092483D01*
X10905070Y7134632D01*
X10870497Y7227329D01*
X10870493Y7227336D01*
X10784247Y7342545D01*
X10784244Y7342548D01*
X10669035Y7428794D01*
X10669028Y7428798D01*
X10534186Y7479090D01*
X10534185Y7479091D01*
X10534183Y7479091D01*
X10474573Y7485500D01*
X10474563Y7485500D01*
X9845429Y7485500D01*
X9845423Y7485499D01*
X9785816Y7479092D01*
X9650971Y7428798D01*
X9650964Y7428794D01*
X9535755Y7342548D01*
X9535752Y7342545D01*
X9449506Y7227336D01*
X9449502Y7227329D01*
X9399208Y7092483D01*
X9393925Y7043337D01*
X9392801Y7032877D01*
X9392800Y7032865D01*
X-15006430Y7032865D01*
X-16835210Y8861645D01*
X-16835212Y8861648D01*
X-16954083Y8980519D01*
X-16954084Y8980520D01*
X-17040896Y9030640D01*
X-17040896Y9030641D01*
X-17040900Y9030642D01*
X-17091015Y9059577D01*
X-17243743Y9100501D01*
X-17401857Y9100501D01*
X-17409453Y9100501D01*
X-17409469Y9100500D01*
X-41029800Y9100500D01*
X-41096839Y9120185D01*
X-41142594Y9172989D01*
X-41153800Y9224500D01*
X-41153801Y9865372D01*
X-41153802Y9865378D01*
X-41160209Y9924985D01*
X-41172026Y9956665D01*
X-41177012Y10026356D01*
X-41172031Y10043323D01*
X-41160209Y10075016D01*
X-41153800Y10134626D01*
X-41153801Y10865371D01*
X-41160209Y10924982D01*
X-41172027Y10956665D01*
X-41177012Y11026354D01*
X-41172031Y11043321D01*
X-41160209Y11075014D01*
X-41153800Y11134624D01*
X-41153801Y11865369D01*
X-41160209Y11924980D01*
X-41172027Y11956663D01*
X-41177012Y12026352D01*
X-41172031Y12043319D01*
X-41160209Y12075012D01*
X-41153800Y12134622D01*
X-41153801Y12865367D01*
X-41160209Y12924978D01*
X-41161111Y12927395D01*
X-41172026Y12956659D01*
X-41177012Y13026350D01*
X-41172031Y13043317D01*
X-41160209Y13075010D01*
X-41153800Y13134620D01*
X-41153801Y13865365D01*
X-41160209Y13924976D01*
X-41172027Y13956659D01*
X-41177012Y14026348D01*
X-41172031Y14043315D01*
X-41160209Y14075008D01*
X-41153800Y14134618D01*
X-41153801Y14865363D01*
X-41160209Y14924974D01*
X-41210504Y15059822D01*
X-41210505Y15059823D01*
X-41210507Y15059827D01*
X-41296753Y15175036D01*
X-41296756Y15175039D01*
X-41411965Y15261285D01*
X-41411972Y15261289D01*
X-41546818Y15311583D01*
X-41546817Y15311583D01*
X-41606417Y15317990D01*
X-41606419Y15317991D01*
X-41606427Y15317991D01*
X-41606436Y15317991D01*
X-43505571Y15317991D01*
X-43505577Y15317990D01*
X-43565184Y15311583D01*
X-43700029Y15261289D01*
X-43700036Y15261285D01*
X-43815245Y15175039D01*
X-43815248Y15175036D01*
X-43901494Y15059827D01*
X-43901498Y15059820D01*
X-43951790Y14924978D01*
X-43951791Y14924974D01*
X-43958200Y14865364D01*
X-49399500Y14865364D01*
X-49399500Y22236346D01*
X-44759902Y22236346D01*
X-44718977Y22083615D01*
X-44705054Y22059500D01*
X-44639923Y21946688D01*
X-44639919Y21946683D01*
X-44521051Y21827815D01*
X-44521046Y21827811D01*
X-41497716Y18804480D01*
X-41497714Y18804479D01*
X-41497710Y18804476D01*
X-41360791Y18725427D01*
X-41360784Y18725423D01*
X-41208057Y18684499D01*
X-41208055Y18684499D01*
X-41042346Y18684499D01*
X-41042330Y18684500D01*
X-27165096Y18684500D01*
X-27098057Y18664815D01*
X-27077415Y18648181D01*
X-26473317Y18044082D01*
X-26450954Y18011176D01*
X-26450715Y18011316D01*
X-26448478Y18007533D01*
X-26447196Y18005647D01*
X-26446743Y18004599D01*
X-26363084Y17863139D01*
X-26358298Y17856969D01*
X-26360744Y17855073D01*
X-26334143Y17806358D01*
X-26339127Y17736666D01*
X-26359931Y17704297D01*
X-26358298Y17703031D01*
X-26363083Y17696863D01*
X-26446745Y17555397D01*
X-26446746Y17555394D01*
X-26492598Y17397574D01*
X-26492599Y17397568D01*
X-26495500Y17360702D01*
X-26495500Y16929299D01*
X-26492599Y16892433D01*
X-26492598Y16892427D01*
X-26446746Y16734607D01*
X-26446745Y16734604D01*
X-26363083Y16593138D01*
X-26363077Y16593130D01*
X-26246871Y16476924D01*
X-26246867Y16476921D01*
X-26246865Y16476919D01*
X-26105398Y16393256D01*
X-26063776Y16381164D01*
X-25947574Y16347403D01*
X-25947571Y16347403D01*
X-25947569Y16347402D01*
X-25910694Y16344500D01*
X-25910686Y16344500D01*
X-24029314Y16344500D01*
X-24029306Y16344500D01*
X-23992431Y16347402D01*
X-23992429Y16347403D01*
X-23992427Y16347403D01*
X-23950809Y16359495D01*
X-23834602Y16393256D01*
X-23693135Y16476919D01*
X-23576919Y16593135D01*
X-23493256Y16734602D01*
X-23447402Y16892431D01*
X-23444500Y16929306D01*
X-23444500Y17360694D01*
X-23444501Y17360704D01*
X-23444593Y17363052D01*
X-23427553Y17430812D01*
X-23408373Y17455594D01*
X-23282694Y17581272D01*
X-23282689Y17581276D01*
X-23272486Y17591480D01*
X-23272484Y17591480D01*
X-23160680Y17703284D01*
X-23097289Y17813081D01*
X-23081623Y17840215D01*
X-23040699Y17992943D01*
X-23040699Y18151057D01*
X-23040699Y18158652D01*
X-23040700Y18158670D01*
X-23040700Y21224241D01*
X-23040699Y21224254D01*
X-23040699Y21392355D01*
X-23040699Y21392357D01*
X-23081623Y21545085D01*
X-23127687Y21624870D01*
X-23160680Y21682016D01*
X-23272484Y21793820D01*
X-23272485Y21793821D01*
X-23276815Y21798151D01*
X-23276826Y21798161D01*
X-23430310Y21951645D01*
X-23430312Y21951648D01*
X-23549183Y22070519D01*
X-23549191Y22070525D01*
X-23672757Y22141865D01*
X-23672760Y22141866D01*
X-23686115Y22149577D01*
X-23694165Y22151734D01*
X-23838843Y22190501D01*
X-23996957Y22190501D01*
X-24004553Y22190501D01*
X-24004569Y22190500D01*
X-25826603Y22190500D01*
X-25893642Y22210185D01*
X-25914284Y22226819D01*
X-26222444Y22534979D01*
X-26255929Y22596302D01*
X-26250945Y22665994D01*
X-26209073Y22721927D01*
X-26143609Y22746344D01*
X-26100168Y22741736D01*
X-25947574Y22697403D01*
X-25947571Y22697403D01*
X-25947569Y22697402D01*
X-25910694Y22694500D01*
X-25910686Y22694500D01*
X-24029314Y22694500D01*
X-24029306Y22694500D01*
X-23992431Y22697402D01*
X-23992429Y22697403D01*
X-23992427Y22697403D01*
X-23950809Y22709495D01*
X-23834602Y22743256D01*
X-23693135Y22826919D01*
X-23661874Y22858180D01*
X-23600552Y22891666D01*
X-23574192Y22894500D01*
X-20853097Y22894500D01*
X-20786058Y22874815D01*
X-20765416Y22858181D01*
X-19948102Y22040867D01*
X-19914617Y21979544D01*
X-19912563Y21967070D01*
X-19902770Y21880151D01*
X-19843190Y21709879D01*
X-19792678Y21629490D01*
X-19747216Y21557138D01*
X-19619662Y21429584D01*
X-19466922Y21333611D01*
X-19296655Y21274032D01*
X-19209731Y21264239D01*
X-19145320Y21237174D01*
X-19135935Y21228700D01*
X-18497861Y20590626D01*
X-18497851Y20590615D01*
X-18493521Y20586285D01*
X-18493520Y20586284D01*
X-18381716Y20474480D01*
X-18381714Y20474479D01*
X-18381710Y20474476D01*
X-18314822Y20435859D01*
X-18244784Y20395423D01*
X-18132981Y20365466D01*
X-18092058Y20354500D01*
X-18092057Y20354500D01*
X-17065808Y20354500D01*
X-16998769Y20334815D01*
X-16978126Y20318180D01*
X-16946871Y20286924D01*
X-16946867Y20286921D01*
X-16946865Y20286919D01*
X-16805398Y20203256D01*
X-16763776Y20191164D01*
X-16647574Y20157403D01*
X-16647571Y20157403D01*
X-16647569Y20157402D01*
X-16610694Y20154500D01*
X-16610686Y20154500D01*
X-14729314Y20154500D01*
X-14729306Y20154500D01*
X-14692431Y20157402D01*
X-14692429Y20157403D01*
X-14692427Y20157403D01*
X-14650809Y20169495D01*
X-14534602Y20203256D01*
X-14393135Y20286919D01*
X-14276919Y20403135D01*
X-14193256Y20544602D01*
X-14147402Y20702431D01*
X-14144500Y20739306D01*
X-14144500Y21170694D01*
X-14147402Y21207569D01*
X-14152246Y21224241D01*
X-14193255Y21365394D01*
X-14193256Y21365397D01*
X-14193256Y21365398D01*
X-14276919Y21506865D01*
X-14276922Y21506868D01*
X-14281702Y21513031D01*
X-14279250Y21514934D01*
X-14305845Y21563579D01*
X-14300896Y21633274D01*
X-14280060Y21665696D01*
X-14281702Y21666969D01*
X-14276925Y21673130D01*
X-14276919Y21673135D01*
X-14193256Y21814602D01*
X-14159495Y21930809D01*
X-14147403Y21972427D01*
X-14147402Y21972433D01*
X-14146842Y21979544D01*
X-14144500Y22009306D01*
X-14144500Y22440694D01*
X-14147402Y22477569D01*
X-14171834Y22561662D01*
X-14193255Y22635394D01*
X-14193256Y22635397D01*
X-14193256Y22635398D01*
X-14276919Y22776865D01*
X-14276922Y22776868D01*
X-14281702Y22783031D01*
X-14279250Y22784934D01*
X-14305845Y22833579D01*
X-14300896Y22903274D01*
X-14280060Y22935696D01*
X-14281702Y22936969D01*
X-14276925Y22943130D01*
X-14276919Y22943135D01*
X-14193256Y23084602D01*
X-14147402Y23242431D01*
X-14144500Y23279306D01*
X-14144500Y23710694D01*
X-14147402Y23747569D01*
X-14155802Y23776480D01*
X-14193255Y23905394D01*
X-14193256Y23905397D01*
X-14193256Y23905398D01*
X-14202129Y23920402D01*
X-14235825Y23977380D01*
X-14253008Y24045104D01*
X-14230848Y24111366D01*
X-14176381Y24155129D01*
X-14129093Y24164500D01*
X-10765469Y24164500D01*
X-10765453Y24164499D01*
X-10757857Y24164499D01*
X-10599746Y24164499D01*
X-10599743Y24164499D01*
X-10447015Y24205423D01*
X-10396896Y24234361D01*
X-10310084Y24284480D01*
X-10198280Y24396284D01*
X-10198280Y24396286D01*
X-10188072Y24406493D01*
X-10188070Y24406496D01*
X-8927181Y25667385D01*
X-8865858Y25700870D01*
X-8796166Y25695886D01*
X-8740233Y25654014D01*
X-8715816Y25588550D01*
X-8715500Y25579704D01*
X-8715500Y25184299D01*
X-8712599Y25147433D01*
X-8712598Y25147427D01*
X-8666746Y24989607D01*
X-8666745Y24989604D01*
X-8666744Y24989602D01*
X-8661476Y24980694D01*
X-8583083Y24848138D01*
X-8578298Y24841969D01*
X-8580744Y24840073D01*
X-8554143Y24791358D01*
X-8559127Y24721666D01*
X-8579931Y24689297D01*
X-8578298Y24688031D01*
X-8583083Y24681863D01*
X-8666745Y24540397D01*
X-8666746Y24540394D01*
X-8712598Y24382574D01*
X-8712599Y24382568D01*
X-8715500Y24345702D01*
X-8715500Y23914299D01*
X-8712599Y23877433D01*
X-8712598Y23877427D01*
X-8666746Y23719607D01*
X-8666745Y23719604D01*
X-8666744Y23719602D01*
X-8661476Y23710694D01*
X-8583083Y23578138D01*
X-8578298Y23571969D01*
X-8580744Y23570073D01*
X-8554143Y23521358D01*
X-8559127Y23451666D01*
X-8579931Y23419297D01*
X-8578298Y23418031D01*
X-8583083Y23411863D01*
X-8666745Y23270397D01*
X-8666746Y23270394D01*
X-8712598Y23112574D01*
X-8712599Y23112568D01*
X-8715500Y23075702D01*
X-8715500Y22644299D01*
X-8712599Y22607433D01*
X-8712598Y22607427D01*
X-8666746Y22449607D01*
X-8666745Y22449604D01*
X-8666744Y22449602D01*
X-8661476Y22440694D01*
X-8583083Y22308138D01*
X-8578298Y22301969D01*
X-8580744Y22300073D01*
X-8554143Y22251358D01*
X-8559127Y22181666D01*
X-8579931Y22149297D01*
X-8578298Y22148031D01*
X-8583081Y22141865D01*
X-8666745Y22000397D01*
X-8666746Y22000394D01*
X-8712598Y21842574D01*
X-8712599Y21842568D01*
X-8715500Y21805702D01*
X-8715500Y21374299D01*
X-8712599Y21337433D01*
X-8712598Y21337427D01*
X-8666746Y21179607D01*
X-8666745Y21179604D01*
X-8666744Y21179602D01*
X-8661476Y21170694D01*
X-8583083Y21038138D01*
X-8583077Y21038130D01*
X-8466871Y20921924D01*
X-8466867Y20921921D01*
X-8466865Y20921919D01*
X-8325398Y20838256D01*
X-8283776Y20826164D01*
X-8167574Y20792403D01*
X-8167571Y20792403D01*
X-8167569Y20792402D01*
X-8130694Y20789500D01*
X-8130686Y20789500D01*
X-6399314Y20789500D01*
X-6399306Y20789500D01*
X-6362431Y20792402D01*
X-6362429Y20792403D01*
X-6362427Y20792403D01*
X-6320809Y20804495D01*
X-6204602Y20838256D01*
X-6063135Y20921919D01*
X-5946919Y21038135D01*
X-5863256Y21179602D01*
X-5817402Y21337431D01*
X-5814500Y21374306D01*
X-5814500Y21805694D01*
X-5817402Y21842569D01*
X-5821558Y21856873D01*
X-5863255Y22000394D01*
X-5863256Y22000397D01*
X-5863256Y22000398D01*
X-5946919Y22141865D01*
X-5946920Y22141866D01*
X-5951702Y22148031D01*
X-5949250Y22149934D01*
X-5975845Y22198579D01*
X-5970896Y22268274D01*
X-5950060Y22300696D01*
X-5951702Y22301969D01*
X-5946925Y22308130D01*
X-5946919Y22308135D01*
X-5863256Y22449602D01*
X-5817402Y22607431D01*
X-5814500Y22644306D01*
X-5814500Y23075694D01*
X-5817402Y23112569D01*
X-5824632Y23137453D01*
X-5855131Y23242433D01*
X-5863256Y23270398D01*
X-5946919Y23411865D01*
X-5946922Y23411868D01*
X-5951702Y23418031D01*
X-5949250Y23419934D01*
X-5975845Y23468579D01*
X-5970896Y23538274D01*
X-5950060Y23570696D01*
X-5951702Y23571969D01*
X-5946925Y23578130D01*
X-5946919Y23578135D01*
X-5863256Y23719602D01*
X-5817402Y23877431D01*
X-5814500Y23914306D01*
X-5814500Y24345694D01*
X-5817402Y24382569D01*
X-5821387Y24396284D01*
X-5863255Y24540394D01*
X-5863256Y24540397D01*
X-5863256Y24540398D01*
X-5946919Y24681865D01*
X-5946922Y24681868D01*
X-5951702Y24688031D01*
X-5949250Y24689934D01*
X-5975845Y24738579D01*
X-5970896Y24808274D01*
X-5950060Y24840696D01*
X-5951702Y24841969D01*
X-5946925Y24848130D01*
X-5946919Y24848135D01*
X-5863256Y24989602D01*
X-5817402Y25147431D01*
X-5814500Y25184306D01*
X-5814500Y25615694D01*
X-5817402Y25652569D01*
X-5817822Y25654014D01*
X-5863255Y25810394D01*
X-5863256Y25810397D01*
X-5863256Y25810398D01*
X-5946919Y25951865D01*
X-5946922Y25951868D01*
X-5951702Y25958031D01*
X-5949250Y25959934D01*
X-5975845Y26008579D01*
X-5970896Y26078274D01*
X-5950060Y26110696D01*
X-5951702Y26111969D01*
X-5946925Y26118130D01*
X-5946919Y26118135D01*
X-5863256Y26259602D01*
X-5817402Y26417431D01*
X-5814500Y26454306D01*
X-5814500Y26885694D01*
X-5817402Y26922569D01*
X-5820154Y26932041D01*
X-5863255Y27080394D01*
X-5863256Y27080397D01*
X-5863256Y27080398D01*
X-5946919Y27221865D01*
X-5946922Y27221868D01*
X-5951702Y27228031D01*
X-5949250Y27229934D01*
X-5975845Y27278579D01*
X-5970896Y27348274D01*
X-5950060Y27380696D01*
X-5951702Y27381969D01*
X-5946925Y27388130D01*
X-5946919Y27388135D01*
X-5863256Y27529602D01*
X-5824631Y27662548D01*
X-5817403Y27687427D01*
X-5817402Y27687433D01*
X-5816141Y27703459D01*
X-5814500Y27724306D01*
X-5814500Y28155694D01*
X-5817402Y28192569D01*
X-5821387Y28206284D01*
X-5863255Y28350394D01*
X-5863256Y28350397D01*
X-5863256Y28350398D01*
X-5946919Y28491865D01*
X-5946922Y28491868D01*
X-5951702Y28498031D01*
X-5949250Y28499934D01*
X-5975845Y28548579D01*
X-5970896Y28618274D01*
X-5950060Y28650696D01*
X-5951702Y28651969D01*
X-5946925Y28658130D01*
X-5946919Y28658135D01*
X-5863256Y28799602D01*
X-5817402Y28957431D01*
X-5814500Y28994306D01*
X-5814500Y29425694D01*
X-5817402Y29462569D01*
X-5863256Y29620398D01*
X-5946919Y29761865D01*
X-5946922Y29761868D01*
X-5951702Y29768031D01*
X-5949250Y29769934D01*
X-5975845Y29818579D01*
X-5970896Y29888274D01*
X-5950060Y29920696D01*
X-5951702Y29921969D01*
X-5946925Y29928130D01*
X-5946919Y29928135D01*
X-5863256Y30069602D01*
X-5829495Y30185809D01*
X-5817403Y30227427D01*
X-5817402Y30227433D01*
X-5814500Y30264306D01*
X-5814500Y30695694D01*
X-5817402Y30732569D01*
X-5829875Y30775500D01*
X-5863255Y30890394D01*
X-5863256Y30890397D01*
X-5863256Y30890398D01*
X-5946919Y31031865D01*
X-5946921Y31031867D01*
X-5946924Y31031871D01*
X-6063130Y31148077D01*
X-6063138Y31148083D01*
X-6204604Y31231745D01*
X-6204607Y31231746D01*
X-6362427Y31277598D01*
X-6362433Y31277599D01*
X-6399299Y31280500D01*
X-6399306Y31280500D01*
X-8130694Y31280500D01*
X-8130702Y31280500D01*
X-8167568Y31277599D01*
X-8167574Y31277598D01*
X-8325394Y31231746D01*
X-8325397Y31231745D01*
X-8466863Y31148083D01*
X-8466871Y31148077D01*
X-8498126Y31116820D01*
X-8559448Y31083334D01*
X-8585808Y31080500D01*
X-11744531Y31080500D01*
X-11744547Y31080501D01*
X-11752143Y31080501D01*
X-11910257Y31080501D01*
X-12017613Y31051735D01*
X-12062990Y31039576D01*
X-12062991Y31039575D01*
X-12113104Y31010641D01*
X-12113105Y31010640D01*
X-12156511Y30985580D01*
X-12199915Y30960521D01*
X-12199918Y30960519D01*
X-12311722Y30848714D01*
X-13948616Y29211819D01*
X-14009939Y29178334D01*
X-14036297Y29175500D01*
X-14129093Y29175500D01*
X-14196132Y29195185D01*
X-14241887Y29247989D01*
X-14251831Y29317147D01*
X-14235825Y29362620D01*
X-14214027Y29399482D01*
X-14193256Y29434602D01*
X-14147402Y29592431D01*
X-14144500Y29629306D01*
X-14144500Y30060694D01*
X-14147402Y30097569D01*
X-14148254Y30100500D01*
X-14193255Y30255394D01*
X-14193256Y30255397D01*
X-14193256Y30255398D01*
X-14276919Y30396865D01*
X-14276922Y30396868D01*
X-14281702Y30403031D01*
X-14279250Y30404934D01*
X-14305845Y30453579D01*
X-14300896Y30523274D01*
X-14280060Y30555696D01*
X-14281702Y30556969D01*
X-14276925Y30563130D01*
X-14276919Y30563135D01*
X-14193256Y30704602D01*
X-14147402Y30862431D01*
X-14144500Y30899306D01*
X-14144500Y31330694D01*
X-14147402Y31367569D01*
X-14193256Y31525398D01*
X-14276919Y31666865D01*
X-14276922Y31666868D01*
X-14281702Y31673031D01*
X-14279250Y31674934D01*
X-14305845Y31723579D01*
X-14300896Y31793274D01*
X-14280060Y31825696D01*
X-14281702Y31826969D01*
X-14276925Y31833130D01*
X-14276919Y31833135D01*
X-14193256Y31974602D01*
X-14147402Y32132431D01*
X-14144500Y32169306D01*
X-14144500Y32600694D01*
X-14147402Y32637569D01*
X-14163740Y32693803D01*
X-14193255Y32795394D01*
X-14193256Y32795397D01*
X-14193256Y32795398D01*
X-14276919Y32936865D01*
X-14276922Y32936868D01*
X-14281702Y32943031D01*
X-14279250Y32944934D01*
X-14305845Y32993579D01*
X-14300896Y33063274D01*
X-14280060Y33095696D01*
X-14281702Y33096969D01*
X-14276925Y33103130D01*
X-14276919Y33103135D01*
X-14193256Y33244602D01*
X-14147402Y33402431D01*
X-14144500Y33439306D01*
X-14144500Y33775500D01*
X-14124815Y33842539D01*
X-14072011Y33888294D01*
X-14020500Y33899500D01*
X7301931Y33899500D01*
X7301947Y33899499D01*
X7309543Y33899499D01*
X7467654Y33899499D01*
X7467657Y33899499D01*
X7620385Y33940423D01*
X7689833Y33980519D01*
X7757316Y34019480D01*
X7869120Y34131284D01*
X7869120Y34131286D01*
X7879324Y34141489D01*
X7879328Y34141494D01*
X9219149Y35481316D01*
X9280470Y35514799D01*
X9350162Y35509815D01*
X9406095Y35467943D01*
X9430512Y35402479D01*
X9423010Y35350301D01*
X9399209Y35286486D01*
X9399208Y35286484D01*
X9392801Y35226884D01*
X9392801Y35226877D01*
X9392800Y35226865D01*
X9392800Y33607130D01*
X9392801Y33607124D01*
X9399208Y33547517D01*
X9449502Y33412672D01*
X9449506Y33412665D01*
X9535752Y33297456D01*
X9535755Y33297453D01*
X9650964Y33211207D01*
X9650971Y33211203D01*
X9695918Y33194439D01*
X9785817Y33160909D01*
X9845427Y33154500D01*
X10474572Y33154501D01*
X10534183Y33160909D01*
X10669031Y33211204D01*
X10784246Y33297454D01*
X10870496Y33412669D01*
X10920791Y33547517D01*
X10927200Y33607127D01*
X10927200Y33692500D01*
X10946885Y33759539D01*
X10999689Y33805294D01*
X11051200Y33816500D01*
X12822903Y33816500D01*
X12889942Y33796815D01*
X12910584Y33780181D01*
X13224792Y33465973D01*
X13258277Y33404650D01*
X13256886Y33346200D01*
X13230413Y33247398D01*
X13230410Y33247384D01*
X13210517Y33020002D01*
X13210517Y33019999D01*
X13230410Y32792617D01*
X13230412Y32792606D01*
X13256886Y32693803D01*
X13255223Y32623953D01*
X13224792Y32574029D01*
X11767584Y31116819D01*
X11706261Y31083334D01*
X11679903Y31080500D01*
X3505808Y31080500D01*
X3438769Y31100185D01*
X3418126Y31116820D01*
X3386870Y31148077D01*
X3386862Y31148083D01*
X3245396Y31231745D01*
X3245393Y31231746D01*
X3087573Y31277598D01*
X3087567Y31277599D01*
X3050701Y31280500D01*
X3050694Y31280500D01*
X1319306Y31280500D01*
X1319298Y31280500D01*
X1282432Y31277599D01*
X1282426Y31277598D01*
X1124606Y31231746D01*
X1124603Y31231745D01*
X983137Y31148083D01*
X983129Y31148077D01*
X866923Y31031871D01*
X866917Y31031863D01*
X783255Y30890397D01*
X783254Y30890394D01*
X737402Y30732574D01*
X737401Y30732568D01*
X734500Y30695702D01*
X734500Y30264299D01*
X737401Y30227433D01*
X737402Y30227427D01*
X783254Y30069607D01*
X783255Y30069604D01*
X783256Y30069602D01*
X788524Y30060694D01*
X866917Y29928138D01*
X871702Y29921969D01*
X869256Y29920073D01*
X895857Y29871358D01*
X890873Y29801666D01*
X870069Y29769297D01*
X871702Y29768031D01*
X866917Y29761863D01*
X783255Y29620397D01*
X783254Y29620394D01*
X737402Y29462574D01*
X737401Y29462568D01*
X734500Y29425702D01*
X734500Y28994299D01*
X737401Y28957433D01*
X737402Y28957427D01*
X783254Y28799607D01*
X783255Y28799604D01*
X783256Y28799602D01*
X813098Y28749142D01*
X866917Y28658138D01*
X871702Y28651969D01*
X869256Y28650073D01*
X895857Y28601358D01*
X890873Y28531666D01*
X870069Y28499297D01*
X871702Y28498031D01*
X866917Y28491863D01*
X783255Y28350397D01*
X783254Y28350394D01*
X737402Y28192574D01*
X737401Y28192568D01*
X734500Y28155702D01*
X734500Y27770498D01*
X714815Y27703459D01*
X698181Y27682817D01*
X405181Y27389818D01*
X405179Y27389816D01*
X381196Y27348274D01*
X363721Y27318006D01*
X326123Y27252885D01*
X285199Y27100157D01*
X285199Y27100155D01*
X285199Y26932054D01*
X285200Y26932041D01*
X285200Y20108070D01*
X285199Y20108052D01*
X285199Y19942346D01*
X285198Y19942346D01*
X326123Y19789615D01*
X340035Y19765519D01*
X405177Y19652688D01*
X405181Y19652683D01*
X524049Y19533815D01*
X524055Y19533810D01*
X6325239Y13732626D01*
X6325249Y13732615D01*
X6329579Y13728285D01*
X6329580Y13728284D01*
X6441384Y13616480D01*
X6528195Y13566361D01*
X6528197Y13566359D01*
X6566251Y13544389D01*
X6578315Y13537423D01*
X6731043Y13496499D01*
X6731046Y13496499D01*
X6896753Y13496499D01*
X6896769Y13496500D01*
X9268801Y13496500D01*
X9335840Y13476815D01*
X9381595Y13424011D01*
X9392801Y13372500D01*
X9392801Y13287124D01*
X9399208Y13227517D01*
X9449502Y13092672D01*
X9449506Y13092665D01*
X9535752Y12977456D01*
X9535755Y12977453D01*
X9650964Y12891207D01*
X9650971Y12891203D01*
X9695918Y12874439D01*
X9785817Y12840909D01*
X9845427Y12834500D01*
X10474572Y12834501D01*
X10534183Y12840909D01*
X10669031Y12891204D01*
X10784246Y12977454D01*
X10870496Y13092669D01*
X10920791Y13227517D01*
X10927200Y13287127D01*
X10927200Y13372500D01*
X10946885Y13439539D01*
X10999689Y13485294D01*
X11051200Y13496500D01*
X12822903Y13496500D01*
X12889942Y13476815D01*
X12910584Y13460181D01*
X13224792Y13145973D01*
X13258277Y13084650D01*
X13256886Y13026200D01*
X13230413Y12927398D01*
X13230410Y12927384D01*
X13210517Y12700002D01*
X13210517Y12699999D01*
X13230410Y12472617D01*
X13230412Y12472606D01*
X13289485Y12252138D01*
X13289487Y12252134D01*
X13289488Y12252130D01*
X13337721Y12148694D01*
X13385953Y12045259D01*
X13385955Y12045255D01*
X13516872Y11858288D01*
X13516881Y11858278D01*
X13678277Y11696882D01*
X13678287Y11696873D01*
X13865254Y11565956D01*
X13865258Y11565954D01*
X14072130Y11469488D01*
X14292611Y11410411D01*
X14455031Y11396201D01*
X14519998Y11390517D01*
X14520000Y11390517D01*
X14520002Y11390517D01*
X14576847Y11395491D01*
X14747389Y11410411D01*
X14967870Y11469488D01*
X15174742Y11565954D01*
X15361719Y11696878D01*
X15523122Y11858281D01*
X15528080Y11865362D01*
X15654044Y12045255D01*
X15654046Y12045259D01*
X15750512Y12252130D01*
X15809589Y12472611D01*
X15829483Y12700000D01*
X15809589Y12927389D01*
X15754062Y13134621D01*
X15750514Y13147863D01*
X15750513Y13147864D01*
X15750512Y13147870D01*
X15654046Y13354741D01*
X15654044Y13354745D01*
X15558781Y13490792D01*
X15523122Y13541719D01*
X15361719Y13703122D01*
X15361717Y13703124D01*
X15361712Y13703128D01*
X15174745Y13834045D01*
X15174741Y13834047D01*
X15071306Y13882279D01*
X14967870Y13930512D01*
X14967866Y13930513D01*
X14967862Y13930515D01*
X14747394Y13989588D01*
X14747390Y13989589D01*
X14747389Y13989589D01*
X14747388Y13989590D01*
X14747383Y13989590D01*
X14520002Y14009483D01*
X14519998Y14009483D01*
X14292616Y13989590D01*
X14292602Y13989587D01*
X14193800Y13963114D01*
X14123950Y13964777D01*
X14074027Y13995208D01*
X13610590Y14458645D01*
X13610588Y14458648D01*
X13491717Y14577519D01*
X13491716Y14577520D01*
X13404904Y14627640D01*
X13404904Y14627641D01*
X13404900Y14627642D01*
X13354785Y14656577D01*
X13202057Y14697501D01*
X13043943Y14697501D01*
X13036347Y14697501D01*
X13036331Y14697500D01*
X11051199Y14697500D01*
X10984160Y14717185D01*
X10938405Y14769989D01*
X10927199Y14821500D01*
X10927199Y14906871D01*
X10927198Y14906877D01*
X10927197Y14906884D01*
X10920791Y14966483D01*
X10870496Y15101331D01*
X10822317Y15165689D01*
X10797900Y15231153D01*
X10812751Y15299426D01*
X10822316Y15314309D01*
X10870496Y15378669D01*
X10920791Y15513517D01*
X10927200Y15573127D01*
X10927200Y15658500D01*
X10946885Y15725539D01*
X10999689Y15771294D01*
X11051200Y15782500D01*
X13416331Y15782500D01*
X13416347Y15782499D01*
X13423943Y15782499D01*
X13582054Y15782499D01*
X13582057Y15782499D01*
X13734785Y15823423D01*
X13784904Y15852361D01*
X13871716Y15902480D01*
X13983520Y16014284D01*
X13983520Y16014286D01*
X13993728Y16024493D01*
X13993730Y16024496D01*
X14074028Y16104795D01*
X14135349Y16138278D01*
X14193800Y16136887D01*
X14238129Y16125010D01*
X14292611Y16110411D01*
X14455031Y16096201D01*
X14519998Y16090517D01*
X14520000Y16090517D01*
X14520002Y16090517D01*
X14576847Y16095491D01*
X14747389Y16110411D01*
X14967870Y16169488D01*
X15174742Y16265954D01*
X15361719Y16396878D01*
X15523122Y16558281D01*
X15654046Y16745258D01*
X15750512Y16952130D01*
X15809589Y17172611D01*
X15829483Y17400000D01*
X15824882Y17452584D01*
X15813623Y17581276D01*
X15809589Y17627389D01*
X15750512Y17847870D01*
X15654046Y18054741D01*
X15654044Y18054745D01*
X15523121Y18241720D01*
X15361722Y18403119D01*
X15361712Y18403128D01*
X15174745Y18534045D01*
X15174741Y18534047D01*
X15071306Y18582279D01*
X14967870Y18630512D01*
X14967866Y18630513D01*
X14967862Y18630515D01*
X14747394Y18689588D01*
X14747390Y18689589D01*
X14747389Y18689589D01*
X14747388Y18689590D01*
X14747383Y18689590D01*
X14520002Y18709483D01*
X14519998Y18709483D01*
X14292616Y18689590D01*
X14292605Y18689588D01*
X14072137Y18630515D01*
X14072128Y18630511D01*
X13865259Y18534047D01*
X13865255Y18534045D01*
X13678280Y18403122D01*
X13516878Y18241720D01*
X13385955Y18054745D01*
X13385953Y18054741D01*
X13289489Y17847872D01*
X13289485Y17847863D01*
X13230412Y17627395D01*
X13230410Y17627384D01*
X13210517Y17400002D01*
X13210517Y17399999D01*
X13230410Y17172617D01*
X13230412Y17172606D01*
X13239258Y17139593D01*
X13237595Y17069743D01*
X13198432Y17011881D01*
X13134203Y16984377D01*
X13119483Y16983500D01*
X11051199Y16983500D01*
X10984160Y17003185D01*
X10938405Y17055989D01*
X10927199Y17107500D01*
X10927199Y17192871D01*
X10927198Y17192877D01*
X10920791Y17252484D01*
X10870497Y17387329D01*
X10870493Y17387336D01*
X10784247Y17502545D01*
X10784244Y17502548D01*
X10669035Y17588794D01*
X10669028Y17588798D01*
X10534186Y17639090D01*
X10534185Y17639091D01*
X10534183Y17639091D01*
X10474573Y17645500D01*
X10474563Y17645500D01*
X9845429Y17645500D01*
X9845423Y17645499D01*
X9785816Y17639092D01*
X9650971Y17588798D01*
X9650964Y17588794D01*
X9535755Y17502548D01*
X9535753Y17502546D01*
X9529696Y17494454D01*
X9473761Y17452584D01*
X9404070Y17447602D01*
X9342750Y17481086D01*
X6142190Y20681645D01*
X6142188Y20681648D01*
X6023317Y20800519D01*
X6023309Y20800525D01*
X5899743Y20871865D01*
X5899740Y20871866D01*
X5886385Y20879577D01*
X5733657Y20920501D01*
X5575543Y20920501D01*
X5567947Y20920501D01*
X5567931Y20920500D01*
X3650907Y20920500D01*
X3583868Y20940185D01*
X3538113Y20992989D01*
X3528169Y21062147D01*
X3544175Y21107620D01*
X3565973Y21144482D01*
X3586744Y21179602D01*
X3632598Y21337431D01*
X3635500Y21374306D01*
X3635500Y21805694D01*
X3632598Y21842569D01*
X3628442Y21856873D01*
X3586745Y22000394D01*
X3586744Y22000397D01*
X3586744Y22000398D01*
X3503081Y22141865D01*
X3503080Y22141866D01*
X3498298Y22148031D01*
X3500750Y22149934D01*
X3474155Y22198579D01*
X3479104Y22268274D01*
X3499940Y22300696D01*
X3498298Y22301969D01*
X3503075Y22308130D01*
X3503081Y22308135D01*
X3586744Y22449602D01*
X3632598Y22607431D01*
X3635500Y22644306D01*
X3635500Y23075694D01*
X3632598Y23112569D01*
X3625368Y23137453D01*
X3594869Y23242433D01*
X3586744Y23270398D01*
X3503081Y23411865D01*
X3503078Y23411868D01*
X3498298Y23418031D01*
X3500750Y23419934D01*
X3474155Y23468579D01*
X3479104Y23538274D01*
X3499940Y23570696D01*
X3498298Y23571969D01*
X3503075Y23578130D01*
X3503081Y23578135D01*
X3586744Y23719602D01*
X3632598Y23877431D01*
X3635500Y23914306D01*
X3635500Y24345694D01*
X3632598Y24382569D01*
X3628613Y24396284D01*
X3586745Y24540394D01*
X3586744Y24540397D01*
X3586744Y24540398D01*
X3503081Y24681865D01*
X3503078Y24681868D01*
X3498298Y24688031D01*
X3500750Y24689934D01*
X3474155Y24738579D01*
X3479104Y24808274D01*
X3499940Y24840696D01*
X3498298Y24841969D01*
X3503075Y24848130D01*
X3503081Y24848135D01*
X3586744Y24989602D01*
X3632598Y25147431D01*
X3635500Y25184306D01*
X3635500Y25615694D01*
X3632598Y25652569D01*
X3632178Y25654014D01*
X3586745Y25810394D01*
X3586744Y25810397D01*
X3586744Y25810398D01*
X3577871Y25825402D01*
X3544175Y25882380D01*
X3526992Y25950104D01*
X3549152Y26016366D01*
X3603619Y26060129D01*
X3650907Y26069500D01*
X4986903Y26069500D01*
X5053942Y26049815D01*
X5074583Y26033182D01*
X5705945Y25401819D01*
X6324198Y24783566D01*
X6357683Y24722243D01*
X6359737Y24709769D01*
X6369530Y24622851D01*
X6429110Y24452579D01*
X6473101Y24382568D01*
X6525084Y24299838D01*
X6652638Y24172284D01*
X6805378Y24076311D01*
X6975645Y24016732D01*
X6975650Y24016731D01*
X7154896Y23996535D01*
X7154900Y23996535D01*
X7154904Y23996535D01*
X7334149Y24016731D01*
X7334152Y24016732D01*
X7334155Y24016732D01*
X7504422Y24076311D01*
X7657162Y24172284D01*
X7784716Y24299838D01*
X7880689Y24452578D01*
X7940268Y24622845D01*
X7940592Y24625714D01*
X7952759Y24733711D01*
X7955614Y24759052D01*
X7982680Y24823465D01*
X8040274Y24863020D01*
X8110111Y24865159D01*
X8166515Y24832849D01*
X9222884Y23776480D01*
X9222886Y23776479D01*
X9222890Y23776476D01*
X9330799Y23714175D01*
X9379015Y23663609D01*
X9392800Y23606789D01*
X9392800Y23447131D01*
X9392801Y23447124D01*
X9399208Y23387517D01*
X9449502Y23252672D01*
X9449506Y23252665D01*
X9535752Y23137456D01*
X9535755Y23137453D01*
X9650964Y23051207D01*
X9650971Y23051203D01*
X9695918Y23034439D01*
X9785817Y23000909D01*
X9845427Y22994500D01*
X10474572Y22994501D01*
X10534183Y23000909D01*
X10669031Y23051204D01*
X10784246Y23137454D01*
X10870496Y23252669D01*
X10920791Y23387517D01*
X10927200Y23447127D01*
X10927200Y23532500D01*
X10946885Y23599539D01*
X10999689Y23645294D01*
X11051200Y23656500D01*
X12822903Y23656500D01*
X12889942Y23636815D01*
X12910584Y23620181D01*
X13224792Y23305973D01*
X13258277Y23244650D01*
X13256886Y23186200D01*
X13230413Y23087398D01*
X13230410Y23087384D01*
X13210517Y22860002D01*
X13210517Y22859999D01*
X13230410Y22632617D01*
X13230412Y22632606D01*
X13289485Y22412138D01*
X13289487Y22412134D01*
X13289488Y22412130D01*
X13297729Y22394457D01*
X13385953Y22205259D01*
X13385955Y22205255D01*
X13516872Y22018288D01*
X13516881Y22018278D01*
X13678277Y21856882D01*
X13678287Y21856873D01*
X13865254Y21725956D01*
X13865258Y21725954D01*
X14072130Y21629488D01*
X14072136Y21629487D01*
X14072137Y21629486D01*
X14125207Y21615267D01*
X14292611Y21570411D01*
X14444322Y21557138D01*
X14519998Y21550517D01*
X14520000Y21550517D01*
X14520002Y21550517D01*
X14595678Y21557138D01*
X14747389Y21570411D01*
X14967870Y21629488D01*
X15174742Y21725954D01*
X15288612Y21805687D01*
X15361712Y21856873D01*
X15361712Y21856874D01*
X15361719Y21856878D01*
X15523122Y22018281D01*
X15654046Y22205258D01*
X15750512Y22412130D01*
X15809589Y22632611D01*
X15829483Y22860000D01*
X15826849Y22890102D01*
X15817716Y22994500D01*
X15809589Y23087389D01*
X15760553Y23270397D01*
X15750514Y23307863D01*
X15750513Y23307864D01*
X15750512Y23307870D01*
X15654046Y23514741D01*
X15654044Y23514745D01*
X15549807Y23663609D01*
X15523122Y23701719D01*
X15361719Y23863122D01*
X15361717Y23863124D01*
X15361712Y23863128D01*
X15174745Y23994045D01*
X15174741Y23994047D01*
X15044933Y24054577D01*
X14967870Y24090512D01*
X14967866Y24090513D01*
X14967862Y24090515D01*
X14747394Y24149588D01*
X14747390Y24149589D01*
X14747389Y24149589D01*
X14747388Y24149590D01*
X14747383Y24149590D01*
X14520002Y24169483D01*
X14519998Y24169483D01*
X14292616Y24149590D01*
X14292602Y24149587D01*
X14193800Y24123114D01*
X14123950Y24124777D01*
X14074027Y24155208D01*
X13610590Y24618645D01*
X13610588Y24618648D01*
X13491717Y24737519D01*
X13491716Y24737520D01*
X13404904Y24787640D01*
X13404904Y24787641D01*
X13404900Y24787642D01*
X13354785Y24816577D01*
X13202057Y24857501D01*
X13043943Y24857501D01*
X13036347Y24857501D01*
X13036331Y24857500D01*
X11051199Y24857500D01*
X10984160Y24877185D01*
X10938405Y24929989D01*
X10927199Y24981500D01*
X10927199Y25066871D01*
X10927198Y25066877D01*
X10923536Y25100942D01*
X10920791Y25126483D01*
X10912979Y25147427D01*
X10870497Y25261329D01*
X10870495Y25261332D01*
X10857235Y25279045D01*
X10822317Y25325689D01*
X10797900Y25391153D01*
X10812751Y25459426D01*
X10822318Y25474312D01*
X10825595Y25478689D01*
X10870496Y25538669D01*
X10920791Y25673517D01*
X10927200Y25733127D01*
X10927200Y25818500D01*
X10946885Y25885539D01*
X10999689Y25931294D01*
X11051200Y25942500D01*
X13416331Y25942500D01*
X13416347Y25942499D01*
X13423943Y25942499D01*
X13582054Y25942499D01*
X13582057Y25942499D01*
X13734785Y25983423D01*
X13797237Y26019480D01*
X13871716Y26062480D01*
X13983520Y26174284D01*
X13983520Y26174286D01*
X13993724Y26184489D01*
X13993728Y26184494D01*
X14074028Y26264795D01*
X14135349Y26298278D01*
X14193800Y26296887D01*
X14228558Y26287574D01*
X14292611Y26270411D01*
X14455031Y26256201D01*
X14519998Y26250517D01*
X14520000Y26250517D01*
X14520002Y26250517D01*
X14576847Y26255491D01*
X14747389Y26270411D01*
X14967870Y26329488D01*
X15174742Y26425954D01*
X15215223Y26454299D01*
X15361712Y26556873D01*
X15361712Y26556874D01*
X15361719Y26556878D01*
X15523122Y26718281D01*
X15654046Y26905258D01*
X15750512Y27112130D01*
X15809589Y27332611D01*
X15829483Y27560000D01*
X15809589Y27787389D01*
X15750512Y28007870D01*
X15654046Y28214741D01*
X15654044Y28214745D01*
X15523121Y28401720D01*
X15361722Y28563119D01*
X15361712Y28563128D01*
X15174745Y28694045D01*
X15174741Y28694047D01*
X15056588Y28749142D01*
X14967870Y28790512D01*
X14967866Y28790513D01*
X14967862Y28790515D01*
X14747394Y28849588D01*
X14747390Y28849589D01*
X14747389Y28849589D01*
X14747388Y28849590D01*
X14747383Y28849590D01*
X14520002Y28869483D01*
X14519998Y28869483D01*
X14292616Y28849590D01*
X14292605Y28849588D01*
X14072137Y28790515D01*
X14072128Y28790511D01*
X13865259Y28694047D01*
X13865255Y28694045D01*
X13678280Y28563122D01*
X13516878Y28401720D01*
X13385955Y28214745D01*
X13385953Y28214741D01*
X13289489Y28007872D01*
X13289485Y28007863D01*
X13230412Y27787395D01*
X13230410Y27787384D01*
X13210517Y27560002D01*
X13210517Y27559999D01*
X13230410Y27332617D01*
X13230412Y27332606D01*
X13239258Y27299593D01*
X13237595Y27229743D01*
X13198432Y27171881D01*
X13134203Y27144377D01*
X13119483Y27143500D01*
X11051199Y27143500D01*
X10984160Y27163185D01*
X10938405Y27215989D01*
X10927199Y27267500D01*
X10927199Y27352871D01*
X10927198Y27352877D01*
X10927197Y27352884D01*
X10920791Y27412483D01*
X10887544Y27501622D01*
X10870497Y27547329D01*
X10870493Y27547336D01*
X10784247Y27662545D01*
X10784244Y27662548D01*
X10669035Y27748794D01*
X10669028Y27748798D01*
X10534186Y27799090D01*
X10534185Y27799091D01*
X10534183Y27799091D01*
X10474573Y27805500D01*
X10474563Y27805500D01*
X9845429Y27805500D01*
X9845423Y27805499D01*
X9785816Y27799092D01*
X9650971Y27748798D01*
X9650964Y27748794D01*
X9535755Y27662548D01*
X9535752Y27662545D01*
X9449506Y27547336D01*
X9449502Y27547329D01*
X9399208Y27412483D01*
X9396591Y27388135D01*
X9392801Y27352877D01*
X9392800Y27352865D01*
X9392800Y25733130D01*
X9392801Y25733124D01*
X9399209Y25673516D01*
X9423009Y25609703D01*
X9427993Y25540012D01*
X9394507Y25478689D01*
X9333184Y25445205D01*
X9263492Y25450190D01*
X9219146Y25478690D01*
X5126190Y29571645D01*
X5126188Y29571648D01*
X5030017Y29667819D01*
X4996532Y29729142D01*
X5001516Y29798834D01*
X5043388Y29854767D01*
X5108852Y29879184D01*
X5117698Y29879500D01*
X11893331Y29879500D01*
X11893347Y29879499D01*
X11900943Y29879499D01*
X12059054Y29879499D01*
X12059057Y29879499D01*
X12211785Y29920423D01*
X12261904Y29949361D01*
X12348716Y29999480D01*
X12460520Y30111284D01*
X12460520Y30111286D01*
X12470728Y30121493D01*
X12470730Y30121496D01*
X14074028Y31724795D01*
X14135349Y31758278D01*
X14193800Y31756887D01*
X14238129Y31745010D01*
X14292611Y31730411D01*
X14455031Y31716201D01*
X14519998Y31710517D01*
X14520000Y31710517D01*
X14520002Y31710517D01*
X14576847Y31715491D01*
X14747389Y31730411D01*
X14967870Y31789488D01*
X15174742Y31885954D01*
X15361719Y32016878D01*
X15523122Y32178281D01*
X15555485Y32224500D01*
X15654044Y32365255D01*
X15654046Y32365259D01*
X15750512Y32572130D01*
X15809589Y32792611D01*
X15829483Y33020000D01*
X15809589Y33247389D01*
X15764585Y33415350D01*
X15750514Y33467863D01*
X15750513Y33467864D01*
X15750512Y33467870D01*
X15654046Y33674741D01*
X15654044Y33674745D01*
X15554785Y33816500D01*
X15523122Y33861719D01*
X15361719Y34023122D01*
X15361717Y34023124D01*
X15361712Y34023128D01*
X15174745Y34154045D01*
X15174741Y34154047D01*
X15071306Y34202279D01*
X14967870Y34250512D01*
X14967866Y34250513D01*
X14967862Y34250515D01*
X14747394Y34309588D01*
X14747390Y34309589D01*
X14747389Y34309589D01*
X14747388Y34309590D01*
X14747383Y34309590D01*
X14520002Y34329483D01*
X14519998Y34329483D01*
X14292616Y34309590D01*
X14292602Y34309587D01*
X14193800Y34283114D01*
X14123950Y34284777D01*
X14074027Y34315208D01*
X13610590Y34778645D01*
X13610588Y34778648D01*
X13491717Y34897519D01*
X13491716Y34897520D01*
X13404904Y34947640D01*
X13404904Y34947641D01*
X13404900Y34947642D01*
X13354785Y34976577D01*
X13202057Y35017501D01*
X13043943Y35017501D01*
X13036347Y35017501D01*
X13036331Y35017500D01*
X11051199Y35017500D01*
X10984160Y35037185D01*
X10938405Y35089989D01*
X10927199Y35141500D01*
X10927199Y35226871D01*
X10927198Y35226877D01*
X10927197Y35226884D01*
X10920791Y35286483D01*
X10911429Y35311583D01*
X10870497Y35421329D01*
X10870495Y35421332D01*
X10835602Y35467943D01*
X10822317Y35485689D01*
X10797900Y35551153D01*
X10812751Y35619426D01*
X10822318Y35634312D01*
X10870496Y35698669D01*
X10920791Y35833517D01*
X10927200Y35893127D01*
X10927200Y35978500D01*
X10946885Y36045539D01*
X10999689Y36091294D01*
X11051200Y36102500D01*
X13416331Y36102500D01*
X13416347Y36102499D01*
X13423943Y36102499D01*
X13582054Y36102499D01*
X13582057Y36102499D01*
X13734785Y36143423D01*
X13784904Y36172361D01*
X13871716Y36222480D01*
X13983520Y36334284D01*
X13983520Y36334286D01*
X13993728Y36344493D01*
X13993730Y36344496D01*
X14074028Y36424795D01*
X14135349Y36458278D01*
X14193800Y36456887D01*
X14238129Y36445010D01*
X14292611Y36430411D01*
X14455031Y36416201D01*
X14519998Y36410517D01*
X14520000Y36410517D01*
X14520002Y36410517D01*
X14576847Y36415491D01*
X14747389Y36430411D01*
X14967870Y36489488D01*
X15174742Y36585954D01*
X15361719Y36716878D01*
X15523122Y36878281D01*
X15654046Y37065258D01*
X15750512Y37272130D01*
X15809589Y37492611D01*
X15829483Y37720000D01*
X15809589Y37947389D01*
X15750512Y38167870D01*
X15654046Y38374741D01*
X15654044Y38374745D01*
X15523121Y38561720D01*
X15361722Y38723119D01*
X15361712Y38723128D01*
X15174745Y38854045D01*
X15174741Y38854047D01*
X15071306Y38902279D01*
X14967870Y38950512D01*
X14967866Y38950513D01*
X14967862Y38950515D01*
X14747394Y39009588D01*
X14747390Y39009589D01*
X14747389Y39009589D01*
X14747388Y39009590D01*
X14747383Y39009590D01*
X14520002Y39029483D01*
X14519998Y39029483D01*
X14292616Y39009590D01*
X14292605Y39009588D01*
X14072137Y38950515D01*
X14072128Y38950511D01*
X13865259Y38854047D01*
X13865255Y38854045D01*
X13678280Y38723122D01*
X13516878Y38561720D01*
X13385955Y38374745D01*
X13385953Y38374741D01*
X13289489Y38167872D01*
X13289485Y38167863D01*
X13230412Y37947395D01*
X13230410Y37947384D01*
X13210517Y37720002D01*
X13210517Y37719999D01*
X13230410Y37492617D01*
X13230412Y37492606D01*
X13239258Y37459593D01*
X13237595Y37389743D01*
X13198432Y37331881D01*
X13134203Y37304377D01*
X13119483Y37303500D01*
X11051199Y37303500D01*
X10984160Y37323185D01*
X10938405Y37375989D01*
X10927199Y37427500D01*
X10927199Y37512871D01*
X10927198Y37512877D01*
X10927197Y37512884D01*
X10920791Y37572483D01*
X10872797Y37701161D01*
X10870497Y37707329D01*
X10870493Y37707336D01*
X10784247Y37822545D01*
X10784244Y37822548D01*
X10669035Y37908794D01*
X10669028Y37908798D01*
X10534186Y37959090D01*
X10534185Y37959091D01*
X10534183Y37959091D01*
X10474573Y37965500D01*
X10474563Y37965500D01*
X9845429Y37965500D01*
X9845423Y37965499D01*
X9785816Y37959092D01*
X9650971Y37908798D01*
X9650964Y37908794D01*
X9535755Y37822548D01*
X9535752Y37822545D01*
X9449506Y37707336D01*
X9449502Y37707329D01*
X9399208Y37572483D01*
X9392801Y37512884D01*
X9392801Y37512877D01*
X9392800Y37512865D01*
X9392800Y37353213D01*
X9373115Y37286174D01*
X9330800Y37245826D01*
X9222887Y37183523D01*
X9222882Y37183519D01*
X9111080Y37071716D01*
X9111078Y37071714D01*
X8130659Y36091294D01*
X7176184Y35136819D01*
X7114861Y35103334D01*
X7088503Y35100500D01*
X-41178886Y35100500D01*
X-41245925Y35120185D01*
X-41278152Y35150188D01*
X-41296754Y35175037D01*
X-41296757Y35175039D01*
X-41411969Y35261287D01*
X-41411971Y35261288D01*
X-41411972Y35261289D01*
X-41546818Y35311583D01*
X-41546817Y35311583D01*
X-41606417Y35317990D01*
X-41606419Y35317991D01*
X-41606427Y35317991D01*
X-41606436Y35317991D01*
X-43505571Y35317991D01*
X-43505577Y35317990D01*
X-43565184Y35311583D01*
X-43700029Y35261289D01*
X-43700036Y35261285D01*
X-43815245Y35175039D01*
X-43815248Y35175036D01*
X-43901494Y35059827D01*
X-43901498Y35059820D01*
X-43951790Y34924978D01*
X-43951791Y34924974D01*
X-43958200Y34865364D01*
X-43958200Y34865357D01*
X-43958200Y34865356D01*
X-43958200Y34134621D01*
X-43958199Y34134615D01*
X-43951792Y34075009D01*
X-43939974Y34043323D01*
X-43934991Y33973631D01*
X-43939974Y33956661D01*
X-43946030Y33940423D01*
X-43951791Y33924976D01*
X-43958200Y33865366D01*
X-43958200Y33865359D01*
X-43958200Y33865358D01*
X-43958200Y33134623D01*
X-43958199Y33134612D01*
X-43957689Y33129872D01*
X-43970097Y33061113D01*
X-44017709Y33009977D01*
X-44018943Y33009255D01*
X-44068721Y32980515D01*
X-44068724Y32980513D01*
X-44535183Y32514054D01*
X-44535186Y32514052D01*
X-44535185Y32514051D01*
X-44639922Y32409314D01*
X-44690039Y32322506D01*
X-44690041Y32322504D01*
X-44718975Y32272391D01*
X-44718976Y32272390D01*
X-44718977Y32272385D01*
X-44759901Y32119657D01*
X-44759901Y32119655D01*
X-44759901Y31951554D01*
X-44759900Y31951541D01*
X-44759900Y22402070D01*
X-44759901Y22402052D01*
X-44759901Y22236346D01*
X-44759902Y22236346D01*
X-49399500Y22236346D01*
X-49399500Y39000000D01*
X-48605449Y39000000D01*
X-48585683Y38748849D01*
X-48526874Y38503890D01*
X-48430467Y38271141D01*
X-48298840Y38056347D01*
X-48298839Y38056344D01*
X-48298836Y38056341D01*
X-48135224Y37864776D01*
X-47986934Y37738125D01*
X-47943657Y37701162D01*
X-47943654Y37701161D01*
X-47728860Y37569534D01*
X-47543164Y37492617D01*
X-47496111Y37473127D01*
X-47251148Y37414317D01*
X-47000000Y37394551D01*
X-46748852Y37414317D01*
X-46503889Y37473127D01*
X-46271141Y37569534D01*
X-46056341Y37701164D01*
X-45864776Y37864776D01*
X-45701164Y38056341D01*
X-45569534Y38271141D01*
X-45473127Y38503889D01*
X-45414317Y38748852D01*
X-45394551Y39000000D01*
X-45414317Y39251148D01*
X-45473127Y39496111D01*
X-45569534Y39728859D01*
X-45569534Y39728860D01*
X-45701161Y39943654D01*
X-45701162Y39943657D01*
X-45738125Y39986934D01*
X-45864776Y40135224D01*
X-45991429Y40243396D01*
X-46056344Y40298839D01*
X-46056347Y40298840D01*
X-46271141Y40430467D01*
X-46503890Y40526874D01*
X-46748849Y40585683D01*
X-47000000Y40605449D01*
X-47251152Y40585683D01*
X-47496111Y40526874D01*
X-47728860Y40430467D01*
X-47943654Y40298840D01*
X-47943657Y40298839D01*
X-48135224Y40135224D01*
X-48298839Y39943657D01*
X-48298840Y39943654D01*
X-48430467Y39728860D01*
X-48526874Y39496111D01*
X-48585683Y39251152D01*
X-48605449Y39000000D01*
X-49399500Y39000000D01*
X-49399500Y46000000D01*
X-48105408Y46000000D01*
X-48085799Y45713320D01*
X-48027334Y45431966D01*
X-48027333Y45431963D01*
X-47931106Y45161207D01*
X-47931107Y45161207D01*
X-47798902Y44906065D01*
X-47633188Y44671300D01*
X-47548077Y44580169D01*
X-47437053Y44461292D01*
X-47214147Y44279945D01*
X-47199670Y44271141D01*
X-46968618Y44130635D01*
X-46781763Y44049474D01*
X-46705058Y44016156D01*
X-46428358Y43938629D01*
X-46178080Y43904229D01*
X-46143679Y43899500D01*
X-46143678Y43899500D01*
X-45856321Y43899500D01*
X-45825630Y43903719D01*
X-45571642Y43938629D01*
X-45294942Y44016156D01*
X-45181985Y44065221D01*
X-45031383Y44130635D01*
X-45031380Y44130637D01*
X-45031375Y44130639D01*
X-44785853Y44279945D01*
X-44562947Y44461292D01*
X-44366811Y44671302D01*
X-44201099Y44906064D01*
X-44152425Y45000000D01*
X-12605449Y45000000D01*
X-12585683Y44748849D01*
X-12526874Y44503890D01*
X-12430467Y44271141D01*
X-12298840Y44056347D01*
X-12298839Y44056344D01*
X-12298836Y44056341D01*
X-12135224Y43864776D01*
X-11986934Y43738125D01*
X-11943657Y43701162D01*
X-11943654Y43701161D01*
X-11728860Y43569534D01*
X-11496111Y43473127D01*
X-11251148Y43414317D01*
X-11000000Y43394551D01*
X-10748852Y43414317D01*
X-10503889Y43473127D01*
X-10271141Y43569534D01*
X-10056341Y43701164D01*
X-9864776Y43864776D01*
X-9701164Y44056341D01*
X-9569534Y44271141D01*
X-9473127Y44503889D01*
X-9414317Y44748852D01*
X-9394551Y45000000D01*
X-9414317Y45251148D01*
X-9473127Y45496111D01*
X-9563095Y45713314D01*
X-9569534Y45728860D01*
X-9701161Y45943654D01*
X-9701162Y45943657D01*
X-9749284Y46000000D01*
X-9864776Y46135224D01*
X-10042115Y46286686D01*
X-10056344Y46298839D01*
X-10056347Y46298840D01*
X-10271141Y46430467D01*
X-10503890Y46526874D01*
X-10748849Y46585683D01*
X-11000000Y46605449D01*
X-11251152Y46585683D01*
X-11496111Y46526874D01*
X-11728860Y46430467D01*
X-11943654Y46298840D01*
X-11943657Y46298839D01*
X-12135224Y46135224D01*
X-12298839Y45943657D01*
X-12298840Y45943654D01*
X-12430467Y45728860D01*
X-12526874Y45496111D01*
X-12585683Y45251152D01*
X-12605449Y45000000D01*
X-44152425Y45000000D01*
X-44068896Y45161203D01*
X-43972666Y45431968D01*
X-43914202Y45713314D01*
X-43894592Y46000000D01*
X-43914202Y46286686D01*
X-43972666Y46568032D01*
X-44068895Y46838794D01*
X-44068894Y46838794D01*
X-44201099Y47093936D01*
X-44366813Y47328701D01*
X-44461464Y47430046D01*
X-44562947Y47538708D01*
X-44755942Y47695721D01*
X-44785854Y47720056D01*
X-45031383Y47869366D01*
X-45294937Y47983842D01*
X-45294939Y47983843D01*
X-45294942Y47983844D01*
X-45424422Y48020123D01*
X-45571636Y48061370D01*
X-45571641Y48061371D01*
X-45571642Y48061371D01*
X-45713982Y48080936D01*
X-45856321Y48100500D01*
X-45856322Y48100500D01*
X-46143678Y48100500D01*
X-46143679Y48100500D01*
X-46428358Y48061371D01*
X-46428365Y48061370D01*
X-46636139Y48003155D01*
X-46705058Y47983844D01*
X-46705061Y47983844D01*
X-46705064Y47983842D01*
X-46705065Y47983842D01*
X-46968618Y47869366D01*
X-47214147Y47720056D01*
X-47437050Y47538711D01*
X-47633188Y47328701D01*
X-47798902Y47093936D01*
X-47931106Y46838794D01*
X-48027333Y46568038D01*
X-48027334Y46568035D01*
X-48085799Y46286681D01*
X-48105408Y46000000D01*
X-49399500Y46000000D01*
X-49399500Y48893039D01*
X-49398720Y48906923D01*
X-49398720Y48906924D01*
X-49388541Y48997269D01*
X-49382365Y49024330D01*
X-49354647Y49103544D01*
X-49342604Y49128550D01*
X-49297954Y49199611D01*
X-49280649Y49221310D01*
X-49221310Y49280649D01*
X-49199611Y49297954D01*
X-49128550Y49342604D01*
X-49103544Y49354647D01*
X-49024330Y49382365D01*
X-48997267Y49388541D01*
X-48934581Y49395604D01*
X-48906921Y49398720D01*
X-48893038Y49399500D01*
X-48834108Y49399500D01*
X-40965892Y49399500D01*
X-40906962Y49399500D01*
X-40893078Y49398720D01*
G37*
%TD.AperFunction*%
%TA.AperFunction,Conductor*%
G36*
X16553334Y-16445548D02*
G01*
X16597681Y-16474049D01*
X16661344Y-16537712D01*
X16810666Y-16629814D01*
X16977203Y-16684999D01*
X17079991Y-16695500D01*
X18480008Y-16695499D01*
X18582797Y-16684999D01*
X18749334Y-16629814D01*
X18860906Y-16560996D01*
X18928295Y-16542557D01*
X18994959Y-16563479D01*
X19039729Y-16617121D01*
X19050000Y-16666536D01*
X19050000Y-19340398D01*
X19030315Y-19407437D01*
X18977511Y-19453192D01*
X18908353Y-19463136D01*
X18860028Y-19445392D01*
X18713323Y-19353211D01*
X18543054Y-19293631D01*
X18543049Y-19293630D01*
X18363804Y-19273435D01*
X18363796Y-19273435D01*
X18184550Y-19293630D01*
X18184545Y-19293631D01*
X18014276Y-19353211D01*
X17861537Y-19449184D01*
X17733984Y-19576737D01*
X17638010Y-19729478D01*
X17578430Y-19899750D01*
X17568637Y-19986668D01*
X17541570Y-20051082D01*
X17533098Y-20060465D01*
X17275382Y-20318182D01*
X17214062Y-20351666D01*
X17187703Y-20354500D01*
X16766909Y-20354500D01*
X16699870Y-20334815D01*
X16692598Y-20329767D01*
X16612631Y-20269904D01*
X16612628Y-20269902D01*
X16477782Y-20219608D01*
X16477783Y-20219608D01*
X16418183Y-20213201D01*
X16418181Y-20213200D01*
X16418173Y-20213200D01*
X16418164Y-20213200D01*
X14468229Y-20213200D01*
X14468223Y-20213201D01*
X14408616Y-20219608D01*
X14273771Y-20269902D01*
X14273768Y-20269904D01*
X14193802Y-20329767D01*
X14128337Y-20354184D01*
X14119491Y-20354500D01*
X7429898Y-20354500D01*
X7362859Y-20334815D01*
X7342217Y-20318181D01*
X6982390Y-19958355D01*
X6982388Y-19958352D01*
X6863515Y-19839479D01*
X6823151Y-19816176D01*
X6781947Y-19792387D01*
X6733732Y-19741821D01*
X6720508Y-19673214D01*
X6746476Y-19608349D01*
X6781944Y-19577614D01*
X6863516Y-19530520D01*
X6975320Y-19418716D01*
X7054377Y-19281784D01*
X7095300Y-19129057D01*
X7095300Y-19129048D01*
X7096056Y-19123313D01*
X7124324Y-19059417D01*
X7182648Y-19020947D01*
X7218995Y-19015500D01*
X14119491Y-19015500D01*
X14186530Y-19035185D01*
X14193802Y-19040233D01*
X14273768Y-19100095D01*
X14273771Y-19100097D01*
X14408617Y-19150391D01*
X14408616Y-19150391D01*
X14415544Y-19151135D01*
X14468227Y-19156800D01*
X16418172Y-19156799D01*
X16477783Y-19150391D01*
X16612631Y-19100096D01*
X16727846Y-19013846D01*
X16814096Y-18898631D01*
X16864391Y-18763783D01*
X16870800Y-18704173D01*
X16870799Y-18125828D01*
X16864391Y-18066217D01*
X16834167Y-17985183D01*
X16814097Y-17931371D01*
X16814093Y-17931364D01*
X16727847Y-17816155D01*
X16727844Y-17816152D01*
X16612635Y-17729906D01*
X16612628Y-17729902D01*
X16477782Y-17679608D01*
X16477783Y-17679608D01*
X16418183Y-17673201D01*
X16418181Y-17673200D01*
X16418173Y-17673200D01*
X16418165Y-17673200D01*
X14938900Y-17673200D01*
X14871861Y-17653515D01*
X14826106Y-17600711D01*
X14814900Y-17549200D01*
X14814900Y-16819499D01*
X14834585Y-16752460D01*
X14887389Y-16706705D01*
X14938900Y-16695499D01*
X15940002Y-16695499D01*
X15940008Y-16695499D01*
X16042797Y-16684999D01*
X16209334Y-16629814D01*
X16358656Y-16537712D01*
X16422319Y-16474049D01*
X16483642Y-16440564D01*
X16553334Y-16445548D01*
G37*
%TD.AperFunction*%
%TD*%
%TA.AperFunction,Conductor*%
%TO.N,/PE*%
G36*
X42143039Y-41294685D02*
G01*
X42188794Y-41347489D01*
X42200000Y-41399000D01*
X42200000Y-42930000D01*
X43633520Y-42930000D01*
X43632665Y-42932064D01*
X43600000Y-43096282D01*
X43600000Y-43263718D01*
X43632665Y-43427936D01*
X43633520Y-43430000D01*
X42200000Y-43430000D01*
X42200000Y-44977844D01*
X42206401Y-45037372D01*
X42206403Y-45037379D01*
X42256645Y-45172086D01*
X42256649Y-45172093D01*
X42342809Y-45287187D01*
X42342812Y-45287190D01*
X42457906Y-45373350D01*
X42457913Y-45373354D01*
X42592620Y-45423596D01*
X42592627Y-45423598D01*
X42652155Y-45429999D01*
X42652172Y-45430000D01*
X44200000Y-45430000D01*
X44200000Y-43996480D01*
X44202064Y-43997335D01*
X44366282Y-44030000D01*
X44533718Y-44030000D01*
X44697936Y-43997335D01*
X44700000Y-43996480D01*
X44700000Y-45430000D01*
X46247828Y-45430000D01*
X46247844Y-45429999D01*
X46307372Y-45423598D01*
X46307379Y-45423596D01*
X46442086Y-45373354D01*
X46442093Y-45373350D01*
X46557187Y-45287190D01*
X46557190Y-45287187D01*
X46643350Y-45172093D01*
X46643354Y-45172086D01*
X46693596Y-45037379D01*
X46693598Y-45037372D01*
X46699999Y-44977844D01*
X46700000Y-44977827D01*
X46700000Y-43430000D01*
X45266480Y-43430000D01*
X45267335Y-43427936D01*
X45300000Y-43263718D01*
X45300000Y-43096282D01*
X45267335Y-42932064D01*
X45266480Y-42930000D01*
X46700000Y-42930000D01*
X46700000Y-41399000D01*
X46719685Y-41331961D01*
X46772489Y-41286206D01*
X46824000Y-41275000D01*
X49275500Y-41275000D01*
X49342539Y-41294685D01*
X49388294Y-41347489D01*
X49399500Y-41399000D01*
X49399500Y-44996249D01*
X49399274Y-45003736D01*
X49382457Y-45281741D01*
X49380652Y-45296605D01*
X49331126Y-45566862D01*
X49327542Y-45581402D01*
X49245803Y-45843709D01*
X49240494Y-45857709D01*
X49127729Y-46108264D01*
X49120770Y-46121523D01*
X48978630Y-46356652D01*
X48970124Y-46368975D01*
X48800675Y-46585261D01*
X48790745Y-46596469D01*
X48596469Y-46790745D01*
X48585261Y-46800675D01*
X48368975Y-46970124D01*
X48356652Y-46978630D01*
X48121523Y-47120770D01*
X48108264Y-47127729D01*
X47857709Y-47240494D01*
X47843709Y-47245803D01*
X47581402Y-47327542D01*
X47566862Y-47331126D01*
X47296605Y-47380652D01*
X47281741Y-47382457D01*
X47003736Y-47399274D01*
X46996249Y-47399500D01*
X37892682Y-47399500D01*
X37680235Y-47430044D01*
X37680225Y-47430047D01*
X37474284Y-47490517D01*
X37279061Y-47579672D01*
X37279048Y-47579679D01*
X37098485Y-47695720D01*
X36936275Y-47836275D01*
X36795720Y-47998485D01*
X36679679Y-48179048D01*
X36679672Y-48179061D01*
X36590517Y-48374284D01*
X36530047Y-48580225D01*
X36530044Y-48580235D01*
X36499500Y-48792682D01*
X36499500Y-48893038D01*
X36498720Y-48906923D01*
X36488540Y-48997264D01*
X36482362Y-49024333D01*
X36454648Y-49103537D01*
X36442600Y-49128555D01*
X36397957Y-49199604D01*
X36380644Y-49221313D01*
X36321313Y-49280644D01*
X36299604Y-49297957D01*
X36228555Y-49342600D01*
X36203537Y-49354648D01*
X36124333Y-49382362D01*
X36097264Y-49388540D01*
X36017075Y-49397576D01*
X36006921Y-49398720D01*
X35993038Y-49399500D01*
X33931435Y-49399500D01*
X33864396Y-49379815D01*
X33818641Y-49327011D01*
X33808697Y-49257853D01*
X33837722Y-49194297D01*
X33863900Y-49171505D01*
X34163068Y-48977222D01*
X34163070Y-48977220D01*
X34462424Y-48734808D01*
X34462432Y-48734801D01*
X34734801Y-48462432D01*
X34734808Y-48462424D01*
X34977220Y-48163070D01*
X34977222Y-48163068D01*
X35187008Y-47840026D01*
X35361885Y-47496811D01*
X35499927Y-47137200D01*
X35599624Y-46765125D01*
X35599625Y-46765118D01*
X35659882Y-46384670D01*
X35666940Y-46250000D01*
X33580348Y-46250000D01*
X33600000Y-46125923D01*
X33600000Y-45874077D01*
X33580348Y-45750000D01*
X35666941Y-45750000D01*
X35666940Y-45749999D01*
X35659882Y-45615329D01*
X35599625Y-45234881D01*
X35599624Y-45234874D01*
X35536690Y-45000000D01*
X37394551Y-45000000D01*
X37414317Y-45251151D01*
X37473126Y-45496110D01*
X37569533Y-45728859D01*
X37701160Y-45943653D01*
X37701161Y-45943656D01*
X37701164Y-45943659D01*
X37864776Y-46135224D01*
X38013066Y-46261875D01*
X38056343Y-46298838D01*
X38056346Y-46298839D01*
X38271140Y-46430466D01*
X38503889Y-46526873D01*
X38748852Y-46585683D01*
X39000000Y-46605449D01*
X39251148Y-46585683D01*
X39496111Y-46526873D01*
X39728859Y-46430466D01*
X39943659Y-46298836D01*
X40135224Y-46135224D01*
X40298836Y-45943659D01*
X40430466Y-45728859D01*
X40526873Y-45496111D01*
X40585683Y-45251148D01*
X40605449Y-45000000D01*
X40585683Y-44748852D01*
X40526873Y-44503889D01*
X40430466Y-44271141D01*
X40430466Y-44271140D01*
X40298839Y-44056346D01*
X40298838Y-44056343D01*
X40248440Y-43997335D01*
X40135224Y-43864776D01*
X39967872Y-43721844D01*
X39943656Y-43701161D01*
X39943653Y-43701160D01*
X39728859Y-43569533D01*
X39496110Y-43473126D01*
X39251151Y-43414317D01*
X39000000Y-43394551D01*
X38748848Y-43414317D01*
X38503889Y-43473126D01*
X38271140Y-43569533D01*
X38056346Y-43701160D01*
X38056343Y-43701161D01*
X37864776Y-43864776D01*
X37701161Y-44056343D01*
X37701160Y-44056346D01*
X37569533Y-44271140D01*
X37473126Y-44503889D01*
X37414317Y-44748848D01*
X37394551Y-45000000D01*
X35536690Y-45000000D01*
X35499927Y-44862799D01*
X35361885Y-44503188D01*
X35187008Y-44159974D01*
X34977218Y-43836926D01*
X34734808Y-43537575D01*
X34734801Y-43537567D01*
X34462432Y-43265198D01*
X34462424Y-43265191D01*
X34163070Y-43022779D01*
X34163068Y-43022777D01*
X33840026Y-42812991D01*
X33496811Y-42638114D01*
X33137200Y-42500072D01*
X32765125Y-42400375D01*
X32765118Y-42400374D01*
X32384670Y-42340117D01*
X32250000Y-42333059D01*
X32250000Y-44419651D01*
X32125923Y-44400000D01*
X31874077Y-44400000D01*
X31750000Y-44419651D01*
X31750000Y-42333059D01*
X31749999Y-42333059D01*
X31615329Y-42340117D01*
X31234881Y-42400374D01*
X31234874Y-42400375D01*
X30862799Y-42500072D01*
X30503188Y-42638114D01*
X30159974Y-42812991D01*
X29836926Y-43022781D01*
X29537575Y-43265191D01*
X29537567Y-43265198D01*
X29265198Y-43537567D01*
X29265191Y-43537575D01*
X29022781Y-43836926D01*
X28812991Y-44159974D01*
X28638114Y-44503188D01*
X28500072Y-44862799D01*
X28400375Y-45234874D01*
X28400374Y-45234881D01*
X28340117Y-45615329D01*
X28333059Y-45749999D01*
X28333059Y-45750000D01*
X30419652Y-45750000D01*
X30400000Y-45874077D01*
X30400000Y-46125923D01*
X30419652Y-46250000D01*
X28333059Y-46250000D01*
X28340117Y-46384670D01*
X28400374Y-46765118D01*
X28400375Y-46765125D01*
X28500072Y-47137200D01*
X28638114Y-47496811D01*
X28812991Y-47840026D01*
X29022777Y-48163068D01*
X29022779Y-48163070D01*
X29265191Y-48462424D01*
X29265198Y-48462432D01*
X29537567Y-48734801D01*
X29537575Y-48734808D01*
X29836929Y-48977220D01*
X29836931Y-48977222D01*
X30136100Y-49171505D01*
X30181603Y-49224526D01*
X30191217Y-49293731D01*
X30161890Y-49357148D01*
X30102933Y-49394642D01*
X30068565Y-49399500D01*
X28006962Y-49399500D01*
X27993078Y-49398720D01*
X27980553Y-49397308D01*
X27902735Y-49388540D01*
X27875666Y-49382362D01*
X27796462Y-49354648D01*
X27771444Y-49342600D01*
X27700395Y-49297957D01*
X27678686Y-49280644D01*
X27619355Y-49221313D01*
X27602042Y-49199604D01*
X27598707Y-49194297D01*
X27557398Y-49128553D01*
X27545351Y-49103537D01*
X27517637Y-49024333D01*
X27511459Y-48997263D01*
X27501280Y-48906922D01*
X27500500Y-48893038D01*
X27500500Y-48792683D01*
X27500500Y-48792682D01*
X27469954Y-48580231D01*
X27409484Y-48374290D01*
X27409483Y-48374288D01*
X27409482Y-48374284D01*
X27320327Y-48179061D01*
X27320320Y-48179048D01*
X27227120Y-48034026D01*
X27204281Y-47998487D01*
X27171172Y-47960277D01*
X27063724Y-47836275D01*
X26901514Y-47695720D01*
X26901513Y-47695719D01*
X26824634Y-47646312D01*
X26720951Y-47579679D01*
X26720938Y-47579672D01*
X26525715Y-47490517D01*
X26319774Y-47430047D01*
X26319764Y-47430044D01*
X26128754Y-47402582D01*
X26107318Y-47399500D01*
X26065892Y-47399500D01*
X21714000Y-47399500D01*
X21646961Y-47379815D01*
X21601206Y-47327011D01*
X21590000Y-47275500D01*
X21590000Y-45000000D01*
X23394551Y-45000000D01*
X23414317Y-45251151D01*
X23473126Y-45496110D01*
X23569533Y-45728859D01*
X23701160Y-45943653D01*
X23701161Y-45943656D01*
X23701164Y-45943659D01*
X23864776Y-46135224D01*
X24013066Y-46261875D01*
X24056343Y-46298838D01*
X24056346Y-46298839D01*
X24271140Y-46430466D01*
X24503889Y-46526873D01*
X24748852Y-46585683D01*
X25000000Y-46605449D01*
X25251148Y-46585683D01*
X25496111Y-46526873D01*
X25728859Y-46430466D01*
X25943659Y-46298836D01*
X26135224Y-46135224D01*
X26298836Y-45943659D01*
X26430466Y-45728859D01*
X26526873Y-45496111D01*
X26585683Y-45251148D01*
X26605449Y-45000000D01*
X26585683Y-44748852D01*
X26526873Y-44503889D01*
X26430466Y-44271141D01*
X26430466Y-44271140D01*
X26298839Y-44056346D01*
X26298838Y-44056343D01*
X26248440Y-43997335D01*
X26135224Y-43864776D01*
X25967872Y-43721844D01*
X25943656Y-43701161D01*
X25943653Y-43701160D01*
X25728859Y-43569533D01*
X25496110Y-43473126D01*
X25251151Y-43414317D01*
X25000000Y-43394551D01*
X24748848Y-43414317D01*
X24503889Y-43473126D01*
X24271140Y-43569533D01*
X24056346Y-43701160D01*
X24056343Y-43701161D01*
X23864776Y-43864776D01*
X23701161Y-44056343D01*
X23701160Y-44056346D01*
X23569533Y-44271140D01*
X23473126Y-44503889D01*
X23414317Y-44748848D01*
X23394551Y-45000000D01*
X21590000Y-45000000D01*
X21590000Y-41399000D01*
X21609685Y-41331961D01*
X21662489Y-41286206D01*
X21714000Y-41275000D01*
X42076000Y-41275000D01*
X42143039Y-41294685D01*
G37*
%TD.AperFunction*%
%TD*%
%TA.AperFunction,Conductor*%
%TO.N,GND_ISO*%
G36*
X36006922Y49398720D02*
G01*
X36097266Y49388541D01*
X36124331Y49382364D01*
X36203540Y49354648D01*
X36228553Y49342602D01*
X36299606Y49297957D01*
X36321313Y49280645D01*
X36380644Y49221314D01*
X36397957Y49199605D01*
X36442600Y49128556D01*
X36454648Y49103538D01*
X36482362Y49024334D01*
X36488540Y48997265D01*
X36498720Y48906924D01*
X36499500Y48893039D01*
X36499500Y48792683D01*
X36530044Y48580236D01*
X36530047Y48580226D01*
X36590517Y48374285D01*
X36679672Y48179062D01*
X36679679Y48179049D01*
X36795720Y47998486D01*
X36936275Y47836276D01*
X37060277Y47728828D01*
X37098487Y47695719D01*
X37227531Y47612789D01*
X37279048Y47579680D01*
X37279061Y47579673D01*
X37474284Y47490518D01*
X37474288Y47490517D01*
X37474290Y47490516D01*
X37680231Y47430046D01*
X37680232Y47430046D01*
X37680235Y47430045D01*
X37743584Y47420938D01*
X37892682Y47399500D01*
X37934108Y47399500D01*
X46934108Y47399500D01*
X46996249Y47399500D01*
X47003736Y47399274D01*
X47281742Y47382458D01*
X47296605Y47380653D01*
X47371845Y47366865D01*
X47566866Y47331126D01*
X47581395Y47327545D01*
X47843713Y47245803D01*
X47857709Y47240495D01*
X48108264Y47127730D01*
X48121522Y47120772D01*
X48356658Y46978627D01*
X48368969Y46970129D01*
X48536603Y46838797D01*
X48585261Y46800676D01*
X48596469Y46790746D01*
X48790745Y46596470D01*
X48800675Y46585262D01*
X48814174Y46568032D01*
X48948023Y46397185D01*
X48970124Y46368976D01*
X48978630Y46356653D01*
X49120770Y46121524D01*
X49127729Y46108265D01*
X49240494Y45857710D01*
X49245803Y45843710D01*
X49327542Y45581403D01*
X49331126Y45566863D01*
X49380652Y45296606D01*
X49382457Y45281742D01*
X49399274Y45003737D01*
X49399500Y44996250D01*
X49399500Y-39881000D01*
X49379815Y-39948039D01*
X49327011Y-39993794D01*
X49275500Y-40005000D01*
X21714000Y-40005000D01*
X21646961Y-39985315D01*
X21601206Y-39932511D01*
X21590000Y-39881000D01*
X21590000Y-28326965D01*
X21609685Y-28259926D01*
X21662489Y-28214171D01*
X21731647Y-28204227D01*
X21795203Y-28233252D01*
X21818992Y-28260991D01*
X21870184Y-28342462D01*
X21997738Y-28470016D01*
X22150478Y-28565989D01*
X22320745Y-28625568D01*
X22320750Y-28625569D01*
X22499996Y-28645765D01*
X22500000Y-28645765D01*
X22500004Y-28645765D01*
X22679249Y-28625569D01*
X22679252Y-28625568D01*
X22679255Y-28625568D01*
X22849522Y-28565989D01*
X23002262Y-28470016D01*
X23002263Y-28470014D01*
X23006256Y-28467506D01*
X23072228Y-28448500D01*
X28935331Y-28448500D01*
X28935347Y-28448501D01*
X28942943Y-28448501D01*
X29101054Y-28448501D01*
X29101057Y-28448501D01*
X29253785Y-28407577D01*
X29303904Y-28378639D01*
X29390716Y-28328520D01*
X29502520Y-28216716D01*
X29502520Y-28216714D01*
X29512728Y-28206507D01*
X29512730Y-28206504D01*
X30909138Y-26810095D01*
X30970459Y-26776612D01*
X31009421Y-26774420D01*
X31019991Y-26775500D01*
X31920008Y-26775499D01*
X31920016Y-26775498D01*
X31920019Y-26775498D01*
X31976302Y-26769748D01*
X32022797Y-26764999D01*
X32189334Y-26709814D01*
X32338656Y-26617712D01*
X32462712Y-26493656D01*
X32554814Y-26344334D01*
X32609999Y-26177797D01*
X32620500Y-26075009D01*
X32620499Y-24724992D01*
X32609999Y-24622203D01*
X32554814Y-24455666D01*
X32462712Y-24306344D01*
X32374049Y-24217681D01*
X32340564Y-24156358D01*
X32345548Y-24086666D01*
X32374049Y-24042319D01*
X32403484Y-24012884D01*
X32462712Y-23953656D01*
X32554814Y-23804334D01*
X32609999Y-23637797D01*
X32620500Y-23535009D01*
X32620499Y-22184992D01*
X32609999Y-22082203D01*
X32554814Y-21915666D01*
X32462712Y-21766344D01*
X32374049Y-21677681D01*
X32340564Y-21616358D01*
X32345548Y-21546666D01*
X32374049Y-21502319D01*
X32393515Y-21482853D01*
X32462712Y-21413656D01*
X32554814Y-21264334D01*
X32609999Y-21097797D01*
X32620500Y-20995009D01*
X32620499Y-19644992D01*
X32609999Y-19542203D01*
X32554814Y-19375666D01*
X32462712Y-19226344D01*
X32374049Y-19137681D01*
X32340564Y-19076358D01*
X32345548Y-19006666D01*
X32374049Y-18962319D01*
X32462712Y-18873656D01*
X32554814Y-18724334D01*
X32609999Y-18557797D01*
X32620500Y-18455009D01*
X32620499Y-17104992D01*
X32620498Y-17104983D01*
X33419500Y-17104983D01*
X33419500Y-18455001D01*
X33419501Y-18455018D01*
X33430000Y-18557796D01*
X33430001Y-18557799D01*
X33485185Y-18724331D01*
X33485187Y-18724336D01*
X33577289Y-18873657D01*
X33665951Y-18962319D01*
X33699436Y-19023642D01*
X33694452Y-19093334D01*
X33665951Y-19137681D01*
X33577289Y-19226342D01*
X33485187Y-19375663D01*
X33485186Y-19375666D01*
X33430001Y-19542203D01*
X33430001Y-19542204D01*
X33430000Y-19542204D01*
X33419500Y-19644983D01*
X33419500Y-20995001D01*
X33419501Y-20995018D01*
X33430000Y-21097796D01*
X33430001Y-21097799D01*
X33485185Y-21264331D01*
X33485187Y-21264336D01*
X33577289Y-21413657D01*
X33665951Y-21502319D01*
X33699436Y-21563642D01*
X33694452Y-21633334D01*
X33665951Y-21677681D01*
X33577289Y-21766342D01*
X33485187Y-21915663D01*
X33485186Y-21915666D01*
X33430001Y-22082203D01*
X33430001Y-22082204D01*
X33430000Y-22082204D01*
X33419500Y-22184983D01*
X33419500Y-23535001D01*
X33419501Y-23535018D01*
X33430000Y-23637796D01*
X33430001Y-23637799D01*
X33485185Y-23804331D01*
X33485187Y-23804336D01*
X33577289Y-23953657D01*
X33665951Y-24042319D01*
X33699436Y-24103642D01*
X33694452Y-24173334D01*
X33665951Y-24217681D01*
X33577289Y-24306342D01*
X33485187Y-24455663D01*
X33485186Y-24455666D01*
X33430001Y-24622203D01*
X33430001Y-24622204D01*
X33430000Y-24622204D01*
X33419500Y-24724983D01*
X33419500Y-26075001D01*
X33419501Y-26075018D01*
X33430000Y-26177796D01*
X33430001Y-26177799D01*
X33478502Y-26324164D01*
X33485186Y-26344334D01*
X33577288Y-26493656D01*
X33701344Y-26617712D01*
X33850666Y-26709814D01*
X34017203Y-26764999D01*
X34119991Y-26775500D01*
X35020008Y-26775499D01*
X35020016Y-26775498D01*
X35020019Y-26775498D01*
X35076302Y-26769748D01*
X35122797Y-26764999D01*
X35289334Y-26709814D01*
X35438656Y-26617712D01*
X35562712Y-26493656D01*
X35654814Y-26344334D01*
X35709999Y-26177797D01*
X35712765Y-26150725D01*
X35716732Y-26111897D01*
X35743129Y-26047205D01*
X35800310Y-26007054D01*
X35840090Y-26000500D01*
X41609903Y-26000500D01*
X41676942Y-26020185D01*
X41697584Y-26036819D01*
X42426159Y-26765394D01*
X42459644Y-26826717D01*
X42454660Y-26896409D01*
X42449690Y-26907918D01*
X42366351Y-27076914D01*
X42366350Y-27076917D01*
X42271521Y-27356269D01*
X42271518Y-27356283D01*
X42213968Y-27645609D01*
X42213964Y-27645636D01*
X42194671Y-27939992D01*
X42194671Y-27940007D01*
X42213964Y-28234363D01*
X42213965Y-28234373D01*
X42213966Y-28234380D01*
X42260836Y-28470016D01*
X42271518Y-28523716D01*
X42271521Y-28523730D01*
X42366349Y-28803080D01*
X42496825Y-29067660D01*
X42496829Y-29067667D01*
X42660725Y-29312955D01*
X42855241Y-29534758D01*
X43077043Y-29729273D01*
X43322335Y-29893172D01*
X43586923Y-30023652D01*
X43866278Y-30118481D01*
X44155620Y-30176034D01*
X44183888Y-30177886D01*
X44449993Y-30195329D01*
X44450000Y-30195329D01*
X44450007Y-30195329D01*
X44685675Y-30179881D01*
X44744380Y-30176034D01*
X45033722Y-30118481D01*
X45313077Y-30023652D01*
X45577665Y-29893172D01*
X45822957Y-29729273D01*
X46044758Y-29534758D01*
X46239273Y-29312957D01*
X46403172Y-29067665D01*
X46533652Y-28803077D01*
X46628481Y-28523722D01*
X46686034Y-28234380D01*
X46705329Y-27940000D01*
X46705329Y-27939992D01*
X46686035Y-27645636D01*
X46686034Y-27645620D01*
X46628481Y-27356278D01*
X46533652Y-27076923D01*
X46403172Y-26812336D01*
X46379426Y-26776798D01*
X46285014Y-26635500D01*
X46239273Y-26567043D01*
X46174914Y-26493656D01*
X46044758Y-26345241D01*
X45822955Y-26150725D01*
X45577667Y-25986829D01*
X45577660Y-25986825D01*
X45313080Y-25856349D01*
X45033730Y-25761521D01*
X45033724Y-25761519D01*
X45033722Y-25761519D01*
X44744380Y-25703966D01*
X44744373Y-25703965D01*
X44744363Y-25703964D01*
X44450007Y-25684671D01*
X44449993Y-25684671D01*
X44155636Y-25703964D01*
X44155624Y-25703965D01*
X44155620Y-25703966D01*
X44155612Y-25703967D01*
X44155609Y-25703968D01*
X43866283Y-25761518D01*
X43866269Y-25761521D01*
X43586917Y-25856350D01*
X43586914Y-25856351D01*
X43417918Y-25939690D01*
X43349086Y-25951686D01*
X43284695Y-25924565D01*
X43275394Y-25916159D01*
X42397590Y-25038355D01*
X42397588Y-25038352D01*
X42278717Y-24919481D01*
X42278709Y-24919475D01*
X42175079Y-24859645D01*
X42175078Y-24859644D01*
X42175078Y-24859645D01*
X42141785Y-24840423D01*
X42110029Y-24831914D01*
X41989057Y-24799499D01*
X41830943Y-24799499D01*
X41823347Y-24799499D01*
X41823331Y-24799500D01*
X35840089Y-24799500D01*
X35773050Y-24779815D01*
X35727295Y-24727011D01*
X35716731Y-24688102D01*
X35712764Y-24649273D01*
X35709999Y-24622203D01*
X35654814Y-24455666D01*
X35562712Y-24306344D01*
X35474049Y-24217681D01*
X35440564Y-24156358D01*
X35445548Y-24086666D01*
X35474049Y-24042319D01*
X35503484Y-24012884D01*
X35562712Y-23953656D01*
X35654814Y-23804334D01*
X35709999Y-23637797D01*
X35720500Y-23535009D01*
X35720499Y-22859992D01*
X42194671Y-22859992D01*
X42194671Y-22860007D01*
X42213964Y-23154363D01*
X42213965Y-23154373D01*
X42213966Y-23154380D01*
X42232200Y-23246052D01*
X42271518Y-23443716D01*
X42271521Y-23443730D01*
X42366349Y-23723080D01*
X42496825Y-23987660D01*
X42496829Y-23987667D01*
X42660725Y-24232955D01*
X42855241Y-24454758D01*
X43077044Y-24649274D01*
X43190348Y-24724981D01*
X43322335Y-24813172D01*
X43586923Y-24943652D01*
X43866278Y-25038481D01*
X44155620Y-25096034D01*
X44183888Y-25097886D01*
X44449993Y-25115329D01*
X44450000Y-25115329D01*
X44450007Y-25115329D01*
X44685675Y-25099881D01*
X44744380Y-25096034D01*
X45033722Y-25038481D01*
X45313077Y-24943652D01*
X45577665Y-24813172D01*
X45822957Y-24649273D01*
X46044758Y-24454758D01*
X46239273Y-24232957D01*
X46403172Y-23987665D01*
X46533652Y-23723077D01*
X46628481Y-23443722D01*
X46686034Y-23154380D01*
X46698846Y-22958915D01*
X46705329Y-22860007D01*
X46705329Y-22859992D01*
X46686035Y-22565636D01*
X46686034Y-22565620D01*
X46628481Y-22276278D01*
X46533652Y-21996923D01*
X46403172Y-21732336D01*
X46239273Y-21487043D01*
X46096036Y-21323713D01*
X46044758Y-21265241D01*
X45822955Y-21070725D01*
X45577667Y-20906829D01*
X45577660Y-20906825D01*
X45313080Y-20776349D01*
X45033730Y-20681521D01*
X45033724Y-20681519D01*
X45033722Y-20681519D01*
X44744380Y-20623966D01*
X44744373Y-20623965D01*
X44744363Y-20623964D01*
X44450007Y-20604671D01*
X44449993Y-20604671D01*
X44155636Y-20623964D01*
X44155624Y-20623965D01*
X44155620Y-20623966D01*
X44155612Y-20623967D01*
X44155609Y-20623968D01*
X43866283Y-20681518D01*
X43866269Y-20681521D01*
X43586919Y-20776349D01*
X43322334Y-20906828D01*
X43077041Y-21070728D01*
X42855241Y-21265241D01*
X42660728Y-21487041D01*
X42496828Y-21732334D01*
X42366349Y-21996919D01*
X42271521Y-22276269D01*
X42271518Y-22276283D01*
X42213968Y-22565609D01*
X42213964Y-22565636D01*
X42194671Y-22859992D01*
X35720499Y-22859992D01*
X35720499Y-22610095D01*
X35740183Y-22543057D01*
X35756813Y-22522420D01*
X40499242Y-17779992D01*
X42194671Y-17779992D01*
X42194671Y-17780007D01*
X42213964Y-18074363D01*
X42213965Y-18074373D01*
X42213966Y-18074380D01*
X42213968Y-18074390D01*
X42271518Y-18363716D01*
X42271521Y-18363730D01*
X42366349Y-18643080D01*
X42496825Y-18907660D01*
X42496829Y-18907667D01*
X42660725Y-19152955D01*
X42855241Y-19374758D01*
X43046177Y-19542204D01*
X43077043Y-19569273D01*
X43322335Y-19733172D01*
X43586923Y-19863652D01*
X43866278Y-19958481D01*
X44155620Y-20016034D01*
X44183888Y-20017886D01*
X44449993Y-20035329D01*
X44450000Y-20035329D01*
X44450007Y-20035329D01*
X44703171Y-20018735D01*
X44744380Y-20016034D01*
X45033722Y-19958481D01*
X45313077Y-19863652D01*
X45577665Y-19733172D01*
X45822957Y-19569273D01*
X46044758Y-19374758D01*
X46239273Y-19152957D01*
X46403172Y-18907665D01*
X46533652Y-18643077D01*
X46628481Y-18363722D01*
X46686034Y-18074380D01*
X46698489Y-17884359D01*
X46705329Y-17780007D01*
X46705329Y-17779992D01*
X46686035Y-17485636D01*
X46686034Y-17485620D01*
X46628481Y-17196278D01*
X46533652Y-16916923D01*
X46403172Y-16652336D01*
X46388123Y-16629814D01*
X46326583Y-16537712D01*
X46239273Y-16407043D01*
X46168471Y-16326309D01*
X46044758Y-16185241D01*
X45822955Y-15990725D01*
X45577667Y-15826829D01*
X45577660Y-15826825D01*
X45313080Y-15696349D01*
X45033730Y-15601521D01*
X45033724Y-15601519D01*
X45033722Y-15601519D01*
X44744380Y-15543966D01*
X44744373Y-15543965D01*
X44744363Y-15543964D01*
X44450007Y-15524671D01*
X44449993Y-15524671D01*
X44155636Y-15543964D01*
X44155624Y-15543965D01*
X44155620Y-15543966D01*
X44155612Y-15543967D01*
X44155609Y-15543968D01*
X43866283Y-15601518D01*
X43866269Y-15601521D01*
X43586919Y-15696349D01*
X43322334Y-15826828D01*
X43077041Y-15990728D01*
X42855241Y-16185241D01*
X42660728Y-16407041D01*
X42496828Y-16652334D01*
X42366349Y-16916919D01*
X42271521Y-17196269D01*
X42271518Y-17196283D01*
X42213968Y-17485609D01*
X42213964Y-17485636D01*
X42194671Y-17779992D01*
X40499242Y-17779992D01*
X40890506Y-17388728D01*
X40890511Y-17388724D01*
X40900714Y-17378520D01*
X40900716Y-17378520D01*
X41012520Y-17266716D01*
X41074940Y-17158600D01*
X41091577Y-17129785D01*
X41132500Y-16977058D01*
X41132500Y-16818943D01*
X41132500Y-11838096D01*
X41152185Y-11771057D01*
X41168814Y-11750420D01*
X43275396Y-9643837D01*
X43336717Y-9610354D01*
X43406409Y-9615338D01*
X43417914Y-9620305D01*
X43586923Y-9703652D01*
X43866278Y-9798481D01*
X44155620Y-9856034D01*
X44183888Y-9857886D01*
X44449993Y-9875329D01*
X44450000Y-9875329D01*
X44450007Y-9875329D01*
X44685675Y-9859881D01*
X44744380Y-9856034D01*
X45033722Y-9798481D01*
X45313077Y-9703652D01*
X45577665Y-9573172D01*
X45822957Y-9409273D01*
X46044758Y-9214758D01*
X46239273Y-8992957D01*
X46403172Y-8747665D01*
X46533652Y-8483077D01*
X46628481Y-8203722D01*
X46686034Y-7914380D01*
X46705329Y-7620000D01*
X46705329Y-7619992D01*
X46686035Y-7325636D01*
X46686034Y-7325620D01*
X46628481Y-7036278D01*
X46533652Y-6756923D01*
X46403172Y-6492336D01*
X46239273Y-6247043D01*
X46196655Y-6198447D01*
X46044758Y-6025241D01*
X45822955Y-5830725D01*
X45577667Y-5666829D01*
X45577660Y-5666825D01*
X45313080Y-5536349D01*
X45033730Y-5441521D01*
X45033724Y-5441519D01*
X45033722Y-5441519D01*
X44744380Y-5383966D01*
X44744373Y-5383965D01*
X44744363Y-5383964D01*
X44450007Y-5364671D01*
X44449993Y-5364671D01*
X44155636Y-5383964D01*
X44155624Y-5383965D01*
X44155620Y-5383966D01*
X44155612Y-5383967D01*
X44155609Y-5383968D01*
X43866283Y-5441518D01*
X43866269Y-5441521D01*
X43586919Y-5536349D01*
X43322334Y-5666828D01*
X43077041Y-5830728D01*
X42855241Y-6025241D01*
X42660728Y-6247041D01*
X42496828Y-6492334D01*
X42366349Y-6756919D01*
X42271521Y-7036269D01*
X42271518Y-7036283D01*
X42213968Y-7325609D01*
X42213964Y-7325636D01*
X42194671Y-7619992D01*
X42194671Y-7620007D01*
X42213964Y-7914363D01*
X42213965Y-7914373D01*
X42213966Y-7914380D01*
X42213968Y-7914390D01*
X42271518Y-8203716D01*
X42271521Y-8203730D01*
X42366349Y-8483080D01*
X42449690Y-8652079D01*
X42461686Y-8720911D01*
X42434565Y-8785302D01*
X42426159Y-8794604D01*
X40944181Y-10276583D01*
X40882858Y-10310068D01*
X40813166Y-10305084D01*
X40757233Y-10263212D01*
X40732816Y-10197748D01*
X40732500Y-10188902D01*
X40732500Y-2539992D01*
X42194671Y-2539992D01*
X42194671Y-2540007D01*
X42213964Y-2834363D01*
X42213965Y-2834373D01*
X42213966Y-2834380D01*
X42213968Y-2834390D01*
X42271518Y-3123716D01*
X42271521Y-3123730D01*
X42366349Y-3403080D01*
X42496825Y-3667660D01*
X42496829Y-3667667D01*
X42660725Y-3912955D01*
X42855241Y-4134758D01*
X43077043Y-4329273D01*
X43322335Y-4493172D01*
X43586923Y-4623652D01*
X43866278Y-4718481D01*
X44155620Y-4776034D01*
X44183888Y-4777886D01*
X44449993Y-4795329D01*
X44450000Y-4795329D01*
X44450007Y-4795329D01*
X44685675Y-4779881D01*
X44744380Y-4776034D01*
X45033722Y-4718481D01*
X45313077Y-4623652D01*
X45577665Y-4493172D01*
X45822957Y-4329273D01*
X46044758Y-4134758D01*
X46239273Y-3912957D01*
X46403172Y-3667665D01*
X46533652Y-3403077D01*
X46628481Y-3123722D01*
X46686034Y-2834380D01*
X46705329Y-2540000D01*
X46705329Y-2539992D01*
X46686035Y-2245636D01*
X46686034Y-2245620D01*
X46628481Y-1956278D01*
X46533652Y-1676923D01*
X46403172Y-1412336D01*
X46239273Y-1167043D01*
X46196655Y-1118447D01*
X46044758Y-945241D01*
X45822955Y-750725D01*
X45577667Y-586829D01*
X45577660Y-586825D01*
X45313080Y-456349D01*
X45033730Y-361521D01*
X45033724Y-361519D01*
X45033722Y-361519D01*
X44744380Y-303966D01*
X44744373Y-303965D01*
X44744363Y-303964D01*
X44450007Y-284671D01*
X44449993Y-284671D01*
X44155636Y-303964D01*
X44155624Y-303965D01*
X44155620Y-303966D01*
X44155612Y-303967D01*
X44155609Y-303968D01*
X43866283Y-361518D01*
X43866269Y-361521D01*
X43586919Y-456349D01*
X43322334Y-586828D01*
X43077041Y-750728D01*
X42855241Y-945241D01*
X42660728Y-1167041D01*
X42496828Y-1412334D01*
X42366349Y-1676919D01*
X42271521Y-1956269D01*
X42271518Y-1956283D01*
X42213968Y-2245609D01*
X42213964Y-2245636D01*
X42194671Y-2539992D01*
X40732500Y-2539992D01*
X40732500Y2540008D01*
X42194671Y2540008D01*
X42194671Y2539993D01*
X42213964Y2245637D01*
X42213965Y2245627D01*
X42213966Y2245620D01*
X42213968Y2245610D01*
X42271518Y1956284D01*
X42271521Y1956270D01*
X42366349Y1676920D01*
X42496825Y1412340D01*
X42496829Y1412333D01*
X42660725Y1167045D01*
X42855241Y945242D01*
X43077043Y750727D01*
X43322335Y586828D01*
X43586923Y456348D01*
X43866278Y361519D01*
X44155620Y303966D01*
X44183888Y302114D01*
X44449993Y284671D01*
X44450000Y284671D01*
X44450007Y284671D01*
X44685675Y300119D01*
X44744380Y303966D01*
X45033722Y361519D01*
X45313077Y456348D01*
X45577665Y586828D01*
X45822957Y750727D01*
X46044758Y945242D01*
X46239273Y1167043D01*
X46403172Y1412335D01*
X46533652Y1676923D01*
X46628481Y1956278D01*
X46686034Y2245620D01*
X46705329Y2540000D01*
X46705329Y2540002D01*
X46705329Y2540008D01*
X46686035Y2834364D01*
X46686034Y2834380D01*
X46628481Y3123722D01*
X46533652Y3403077D01*
X46403172Y3667664D01*
X46398908Y3674045D01*
X46294978Y3829588D01*
X46239273Y3912957D01*
X46196655Y3961553D01*
X46044758Y4134759D01*
X45822955Y4329275D01*
X45577667Y4493171D01*
X45577660Y4493175D01*
X45313080Y4623651D01*
X45033730Y4718479D01*
X45033724Y4718481D01*
X45033722Y4718481D01*
X44744380Y4776034D01*
X44744373Y4776035D01*
X44744363Y4776036D01*
X44450007Y4795329D01*
X44449993Y4795329D01*
X44155636Y4776036D01*
X44155624Y4776035D01*
X44155620Y4776034D01*
X44155612Y4776033D01*
X44155609Y4776032D01*
X43866283Y4718482D01*
X43866269Y4718479D01*
X43586919Y4623651D01*
X43322334Y4493172D01*
X43077041Y4329272D01*
X42855241Y4134759D01*
X42660728Y3912959D01*
X42496828Y3667666D01*
X42366349Y3403081D01*
X42271521Y3123731D01*
X42271518Y3123717D01*
X42213968Y2834391D01*
X42213964Y2834364D01*
X42194671Y2540008D01*
X40732500Y2540008D01*
X40732500Y8081904D01*
X40752185Y8148943D01*
X40768814Y8169580D01*
X43275396Y10676163D01*
X43336717Y10709646D01*
X43406409Y10704662D01*
X43417914Y10699695D01*
X43586923Y10616348D01*
X43866278Y10521519D01*
X44155620Y10463966D01*
X44183888Y10462114D01*
X44449993Y10444671D01*
X44450000Y10444671D01*
X44450007Y10444671D01*
X44685675Y10460119D01*
X44744380Y10463966D01*
X45033722Y10521519D01*
X45313077Y10616348D01*
X45577665Y10746828D01*
X45822957Y10910727D01*
X46044758Y11105242D01*
X46239273Y11327043D01*
X46403172Y11572335D01*
X46533652Y11836923D01*
X46628481Y12116278D01*
X46686034Y12405620D01*
X46705329Y12700000D01*
X46705329Y12700002D01*
X46705329Y12700008D01*
X46686035Y12994364D01*
X46686034Y12994380D01*
X46628481Y13283722D01*
X46533652Y13563077D01*
X46403172Y13827664D01*
X46398908Y13834045D01*
X46294978Y13989588D01*
X46239273Y14072957D01*
X46196655Y14121553D01*
X46044758Y14294759D01*
X45822955Y14489275D01*
X45577667Y14653171D01*
X45577660Y14653175D01*
X45313080Y14783651D01*
X45033730Y14878479D01*
X45033724Y14878481D01*
X45033722Y14878481D01*
X44744380Y14936034D01*
X44744373Y14936035D01*
X44744363Y14936036D01*
X44450007Y14955329D01*
X44449993Y14955329D01*
X44155636Y14936036D01*
X44155624Y14936035D01*
X44155620Y14936034D01*
X44155612Y14936033D01*
X44155609Y14936032D01*
X43866283Y14878482D01*
X43866269Y14878479D01*
X43586919Y14783651D01*
X43322334Y14653172D01*
X43077041Y14489272D01*
X42855241Y14294759D01*
X42660728Y14072959D01*
X42496828Y13827666D01*
X42366349Y13563081D01*
X42271521Y13283731D01*
X42271518Y13283717D01*
X42213968Y12994391D01*
X42213964Y12994364D01*
X42194671Y12700008D01*
X42194671Y12699993D01*
X42213964Y12405637D01*
X42213965Y12405627D01*
X42213966Y12405620D01*
X42213968Y12405610D01*
X42271518Y12116284D01*
X42271521Y12116270D01*
X42366349Y11836920D01*
X42449690Y11667921D01*
X42461686Y11599089D01*
X42434565Y11534698D01*
X42426159Y11525396D01*
X40544181Y9643417D01*
X40482858Y9609932D01*
X40413166Y9614916D01*
X40357233Y9656788D01*
X40332816Y9722252D01*
X40332500Y9731098D01*
X40332500Y17780008D01*
X42194671Y17780008D01*
X42194671Y17779993D01*
X42213964Y17485637D01*
X42213965Y17485627D01*
X42213966Y17485620D01*
X42213968Y17485610D01*
X42271518Y17196284D01*
X42271521Y17196270D01*
X42366349Y16916920D01*
X42496825Y16652340D01*
X42496829Y16652333D01*
X42660725Y16407045D01*
X42855241Y16185242D01*
X43077043Y15990727D01*
X43322335Y15826828D01*
X43586923Y15696348D01*
X43866278Y15601519D01*
X44155620Y15543966D01*
X44183888Y15542114D01*
X44449993Y15524671D01*
X44450000Y15524671D01*
X44450007Y15524671D01*
X44685675Y15540119D01*
X44744380Y15543966D01*
X45033722Y15601519D01*
X45313077Y15696348D01*
X45577665Y15826828D01*
X45822957Y15990727D01*
X46044758Y16185242D01*
X46239273Y16407043D01*
X46403172Y16652335D01*
X46533652Y16916923D01*
X46628481Y17196278D01*
X46686034Y17485620D01*
X46705329Y17780000D01*
X46705329Y17780008D01*
X46686035Y18074364D01*
X46686034Y18074380D01*
X46628481Y18363722D01*
X46533652Y18643077D01*
X46403172Y18907664D01*
X46239273Y19152957D01*
X46196655Y19201553D01*
X46044758Y19374759D01*
X45822955Y19569275D01*
X45577667Y19733171D01*
X45577660Y19733175D01*
X45313080Y19863651D01*
X45033730Y19958479D01*
X45033724Y19958481D01*
X45033722Y19958481D01*
X44744380Y20016034D01*
X44744373Y20016035D01*
X44744363Y20016036D01*
X44450007Y20035329D01*
X44449993Y20035329D01*
X44155636Y20016036D01*
X44155624Y20016035D01*
X44155620Y20016034D01*
X44155612Y20016033D01*
X44155609Y20016032D01*
X43866283Y19958482D01*
X43866269Y19958479D01*
X43586919Y19863651D01*
X43322334Y19733172D01*
X43077041Y19569272D01*
X42855241Y19374759D01*
X42660728Y19152959D01*
X42496828Y18907666D01*
X42366349Y18643081D01*
X42271521Y18363731D01*
X42271518Y18363717D01*
X42213968Y18074391D01*
X42213964Y18074364D01*
X42194671Y17780008D01*
X40332500Y17780008D01*
X40332500Y22860008D01*
X42194671Y22860008D01*
X42194671Y22859993D01*
X42213964Y22565637D01*
X42213965Y22565627D01*
X42213966Y22565620D01*
X42213968Y22565610D01*
X42271518Y22276284D01*
X42271521Y22276270D01*
X42366349Y21996920D01*
X42496825Y21732340D01*
X42496829Y21732333D01*
X42660725Y21487045D01*
X42855241Y21265242D01*
X43077043Y21070727D01*
X43322335Y20906828D01*
X43586923Y20776348D01*
X43866278Y20681519D01*
X44155620Y20623966D01*
X44183888Y20622114D01*
X44449993Y20604671D01*
X44450000Y20604671D01*
X44450007Y20604671D01*
X44685675Y20620119D01*
X44744380Y20623966D01*
X45033722Y20681519D01*
X45313077Y20776348D01*
X45577665Y20906828D01*
X45822957Y21070727D01*
X46044758Y21265242D01*
X46239273Y21487043D01*
X46403172Y21732335D01*
X46533652Y21996923D01*
X46628481Y22276278D01*
X46686034Y22565620D01*
X46705329Y22860000D01*
X46705329Y22860002D01*
X46705329Y22860008D01*
X46686035Y23154364D01*
X46686034Y23154380D01*
X46628481Y23443722D01*
X46533652Y23723077D01*
X46403172Y23987664D01*
X46398908Y23994045D01*
X46294978Y24149588D01*
X46239273Y24232957D01*
X46196655Y24281553D01*
X46044758Y24454759D01*
X45822955Y24649275D01*
X45577667Y24813171D01*
X45577660Y24813175D01*
X45313080Y24943651D01*
X45033730Y25038479D01*
X45033724Y25038481D01*
X45033722Y25038481D01*
X44744380Y25096034D01*
X44744373Y25096035D01*
X44744363Y25096036D01*
X44450007Y25115329D01*
X44449993Y25115329D01*
X44155636Y25096036D01*
X44155624Y25096035D01*
X44155620Y25096034D01*
X44155612Y25096033D01*
X44155609Y25096032D01*
X43866283Y25038482D01*
X43866269Y25038479D01*
X43586919Y24943651D01*
X43322334Y24813172D01*
X43077041Y24649272D01*
X42855241Y24454759D01*
X42660728Y24232959D01*
X42496828Y23987666D01*
X42366349Y23723081D01*
X42271521Y23443731D01*
X42271518Y23443717D01*
X42213968Y23154391D01*
X42213964Y23154364D01*
X42194671Y22860008D01*
X40332500Y22860008D01*
X40332500Y28001904D01*
X40352185Y28068943D01*
X40368814Y28089580D01*
X43275396Y30996163D01*
X43336717Y31029646D01*
X43406409Y31024662D01*
X43417914Y31019695D01*
X43586923Y30936348D01*
X43866278Y30841519D01*
X44155620Y30783966D01*
X44183888Y30782114D01*
X44449993Y30764671D01*
X44450000Y30764671D01*
X44450007Y30764671D01*
X44685675Y30780119D01*
X44744380Y30783966D01*
X45033722Y30841519D01*
X45313077Y30936348D01*
X45577665Y31066828D01*
X45822957Y31230727D01*
X46044758Y31425242D01*
X46239273Y31647043D01*
X46403172Y31892335D01*
X46533652Y32156923D01*
X46628481Y32436278D01*
X46686034Y32725620D01*
X46705329Y33020000D01*
X46705329Y33020002D01*
X46705329Y33020008D01*
X46686035Y33314364D01*
X46686034Y33314380D01*
X46628481Y33603722D01*
X46533652Y33883077D01*
X46403172Y34147664D01*
X46398908Y34154045D01*
X46294978Y34309588D01*
X46239273Y34392957D01*
X46196655Y34441553D01*
X46044758Y34614759D01*
X45822955Y34809275D01*
X45577667Y34973171D01*
X45577660Y34973175D01*
X45313080Y35103651D01*
X45033730Y35198479D01*
X45033724Y35198481D01*
X45033722Y35198481D01*
X44744380Y35256034D01*
X44744373Y35256035D01*
X44744363Y35256036D01*
X44450007Y35275329D01*
X44449993Y35275329D01*
X44155636Y35256036D01*
X44155624Y35256035D01*
X44155620Y35256034D01*
X44155612Y35256033D01*
X44155609Y35256032D01*
X43866283Y35198482D01*
X43866269Y35198479D01*
X43586919Y35103651D01*
X43322334Y34973172D01*
X43077041Y34809272D01*
X42855241Y34614759D01*
X42660728Y34392959D01*
X42496828Y34147666D01*
X42366349Y33883081D01*
X42271521Y33603731D01*
X42271518Y33603717D01*
X42213968Y33314391D01*
X42213964Y33314364D01*
X42194671Y33020008D01*
X42194671Y33019993D01*
X42213964Y32725637D01*
X42213965Y32725627D01*
X42213966Y32725620D01*
X42213968Y32725610D01*
X42271518Y32436284D01*
X42271521Y32436270D01*
X42366349Y32156920D01*
X42449690Y31987921D01*
X42461686Y31919089D01*
X42434565Y31854698D01*
X42426159Y31845396D01*
X39363286Y28782522D01*
X39251481Y28670718D01*
X39251479Y28670715D01*
X39201361Y28583906D01*
X39201359Y28583904D01*
X39172425Y28533791D01*
X39172424Y28533790D01*
X39172423Y28533785D01*
X39131499Y28381057D01*
X39131499Y28381055D01*
X39131499Y28212954D01*
X39131500Y28212941D01*
X39131500Y-12317902D01*
X39111815Y-12384941D01*
X39095181Y-12405583D01*
X35130861Y-16369902D01*
X35069538Y-16403387D01*
X35030582Y-16405579D01*
X35020028Y-16404501D01*
X35020012Y-16404500D01*
X35020009Y-16404500D01*
X35020003Y-16404500D01*
X34119998Y-16404500D01*
X34119980Y-16404501D01*
X34017203Y-16415000D01*
X34017200Y-16415001D01*
X33850668Y-16470185D01*
X33850663Y-16470187D01*
X33701342Y-16562289D01*
X33577289Y-16686342D01*
X33485187Y-16835663D01*
X33485186Y-16835666D01*
X33430001Y-17002203D01*
X33430001Y-17002204D01*
X33430000Y-17002204D01*
X33419500Y-17104983D01*
X32620498Y-17104983D01*
X32609999Y-17002203D01*
X32554814Y-16835666D01*
X32462712Y-16686344D01*
X32338656Y-16562288D01*
X32189334Y-16470186D01*
X32022797Y-16415001D01*
X32022795Y-16415000D01*
X31920010Y-16404500D01*
X31019998Y-16404500D01*
X31019980Y-16404501D01*
X30917203Y-16415000D01*
X30917200Y-16415001D01*
X30750668Y-16470185D01*
X30750663Y-16470187D01*
X30601342Y-16562289D01*
X30477289Y-16686342D01*
X30385187Y-16835663D01*
X30385186Y-16835666D01*
X30330001Y-17002203D01*
X30330001Y-17002204D01*
X30330000Y-17002204D01*
X30319500Y-17104983D01*
X30319500Y-18029902D01*
X30299815Y-18096941D01*
X30283181Y-18117583D01*
X28082584Y-20318181D01*
X28021261Y-20351666D01*
X27994903Y-20354500D01*
X26520509Y-20354500D01*
X26453470Y-20334815D01*
X26446198Y-20329767D01*
X26366231Y-20269904D01*
X26366228Y-20269902D01*
X26231382Y-20219608D01*
X26231383Y-20219608D01*
X26171783Y-20213201D01*
X26171781Y-20213200D01*
X26171773Y-20213200D01*
X26171764Y-20213200D01*
X24221829Y-20213200D01*
X24221823Y-20213201D01*
X24162216Y-20219608D01*
X24027371Y-20269902D01*
X24027368Y-20269904D01*
X23947402Y-20329767D01*
X23881937Y-20354184D01*
X23873091Y-20354500D01*
X23238940Y-20354500D01*
X23171901Y-20334815D01*
X23151259Y-20318181D01*
X23120337Y-20287259D01*
X23086852Y-20225936D01*
X23091836Y-20156244D01*
X23120337Y-20111897D01*
X23578986Y-19653248D01*
X24048309Y-19183924D01*
X24109630Y-19150441D01*
X24154366Y-19150843D01*
X24154504Y-19149562D01*
X24171087Y-19151344D01*
X24221827Y-19156800D01*
X26171772Y-19156799D01*
X26231383Y-19150391D01*
X26366231Y-19100096D01*
X26447847Y-19038997D01*
X26497159Y-19018917D01*
X26496807Y-19017603D01*
X26504655Y-19015500D01*
X26504657Y-19015500D01*
X26657384Y-18974577D01*
X26794316Y-18895520D01*
X26906120Y-18783716D01*
X26985177Y-18646784D01*
X27026100Y-18494057D01*
X27026100Y-16479043D01*
X27021735Y-16462754D01*
X27012825Y-16429500D01*
X26985177Y-16326316D01*
X26949392Y-16264334D01*
X26906124Y-16189390D01*
X26906118Y-16189382D01*
X26833938Y-16117202D01*
X26800453Y-16055879D01*
X26798261Y-16016921D01*
X26800500Y-15995009D01*
X26800499Y-15069992D01*
X26789999Y-14967203D01*
X26734814Y-14800666D01*
X26642712Y-14651344D01*
X26518656Y-14527288D01*
X26369334Y-14435186D01*
X26202797Y-14380001D01*
X26202795Y-14380000D01*
X26100010Y-14369500D01*
X24699998Y-14369500D01*
X24699981Y-14369501D01*
X24597203Y-14380000D01*
X24597200Y-14380001D01*
X24430668Y-14435185D01*
X24430663Y-14435187D01*
X24281342Y-14527289D01*
X24217681Y-14590951D01*
X24156358Y-14624436D01*
X24086666Y-14619452D01*
X24042319Y-14590951D01*
X23978657Y-14527289D01*
X23978656Y-14527288D01*
X23829334Y-14435186D01*
X23662797Y-14380001D01*
X23662795Y-14380000D01*
X23560010Y-14369500D01*
X22159998Y-14369500D01*
X22159981Y-14369501D01*
X22057203Y-14380000D01*
X22057200Y-14380001D01*
X21890668Y-14435185D01*
X21890659Y-14435189D01*
X21779096Y-14504002D01*
X21711704Y-14522442D01*
X21645040Y-14501519D01*
X21600271Y-14447877D01*
X21590000Y-14398463D01*
X21590000Y2540002D01*
X24710517Y2540002D01*
X24710517Y2539999D01*
X24730410Y2312617D01*
X24730412Y2312606D01*
X24789485Y2092138D01*
X24789487Y2092134D01*
X24789488Y2092130D01*
X24837721Y1988694D01*
X24885953Y1885259D01*
X24885955Y1885255D01*
X25016872Y1698288D01*
X25016881Y1698278D01*
X25178277Y1536882D01*
X25178287Y1536873D01*
X25365254Y1405956D01*
X25365258Y1405954D01*
X25572130Y1309488D01*
X25792611Y1250411D01*
X25955031Y1236201D01*
X26019998Y1230517D01*
X26020000Y1230517D01*
X26020002Y1230517D01*
X26076847Y1235491D01*
X26247389Y1250411D01*
X26467870Y1309488D01*
X26674742Y1405954D01*
X26861719Y1536878D01*
X27023122Y1698281D01*
X27154046Y1885258D01*
X27250512Y2092130D01*
X27309589Y2312611D01*
X27329483Y2540000D01*
X27329483Y2540002D01*
X31710517Y2540002D01*
X31710517Y2539999D01*
X31730410Y2312617D01*
X31730412Y2312606D01*
X31789485Y2092138D01*
X31789487Y2092134D01*
X31789488Y2092130D01*
X31837721Y1988694D01*
X31885953Y1885259D01*
X31885955Y1885255D01*
X32016872Y1698288D01*
X32016881Y1698278D01*
X32178277Y1536882D01*
X32178287Y1536873D01*
X32365254Y1405956D01*
X32365258Y1405954D01*
X32572130Y1309488D01*
X32792611Y1250411D01*
X32955031Y1236201D01*
X33019998Y1230517D01*
X33020000Y1230517D01*
X33020002Y1230517D01*
X33076847Y1235491D01*
X33247389Y1250411D01*
X33467870Y1309488D01*
X33674742Y1405954D01*
X33861719Y1536878D01*
X34023122Y1698281D01*
X34154046Y1885258D01*
X34250512Y2092130D01*
X34309589Y2312611D01*
X34329483Y2540000D01*
X34309589Y2767389D01*
X34250512Y2987870D01*
X34154046Y3194741D01*
X34154044Y3194745D01*
X34023121Y3381720D01*
X33861722Y3543119D01*
X33861712Y3543128D01*
X33674745Y3674045D01*
X33674741Y3674047D01*
X33571306Y3722279D01*
X33467870Y3770512D01*
X33467866Y3770513D01*
X33467862Y3770515D01*
X33247394Y3829588D01*
X33247390Y3829589D01*
X33247389Y3829589D01*
X33247388Y3829590D01*
X33247383Y3829590D01*
X33020002Y3849483D01*
X33019998Y3849483D01*
X32792616Y3829590D01*
X32792605Y3829588D01*
X32572137Y3770515D01*
X32572128Y3770511D01*
X32365259Y3674047D01*
X32365255Y3674045D01*
X32178280Y3543122D01*
X32016878Y3381720D01*
X31885955Y3194745D01*
X31885953Y3194741D01*
X31789489Y2987872D01*
X31789485Y2987863D01*
X31730412Y2767395D01*
X31730410Y2767384D01*
X31710517Y2540002D01*
X27329483Y2540002D01*
X27309589Y2767389D01*
X27250512Y2987870D01*
X27154046Y3194741D01*
X27154044Y3194745D01*
X27023121Y3381720D01*
X26861722Y3543119D01*
X26861712Y3543128D01*
X26674745Y3674045D01*
X26674741Y3674047D01*
X26571306Y3722279D01*
X26467870Y3770512D01*
X26467866Y3770513D01*
X26467862Y3770515D01*
X26247394Y3829588D01*
X26247390Y3829589D01*
X26247389Y3829589D01*
X26247388Y3829590D01*
X26247383Y3829590D01*
X26020002Y3849483D01*
X26019998Y3849483D01*
X25792616Y3829590D01*
X25792605Y3829588D01*
X25572137Y3770515D01*
X25572128Y3770511D01*
X25365259Y3674047D01*
X25365255Y3674045D01*
X25178280Y3543122D01*
X25016878Y3381720D01*
X24885955Y3194745D01*
X24885953Y3194741D01*
X24789489Y2987872D01*
X24789485Y2987863D01*
X24730412Y2767395D01*
X24730410Y2767384D01*
X24710517Y2540002D01*
X21590000Y2540002D01*
X21590000Y12700002D01*
X24710517Y12700002D01*
X24710517Y12699999D01*
X24730410Y12472617D01*
X24730412Y12472606D01*
X24789485Y12252138D01*
X24789487Y12252134D01*
X24789488Y12252130D01*
X24837721Y12148694D01*
X24885953Y12045259D01*
X24885955Y12045255D01*
X25016872Y11858288D01*
X25016881Y11858278D01*
X25178277Y11696882D01*
X25178287Y11696873D01*
X25365254Y11565956D01*
X25365258Y11565954D01*
X25572130Y11469488D01*
X25792611Y11410411D01*
X25955031Y11396201D01*
X26019998Y11390517D01*
X26020000Y11390517D01*
X26020002Y11390517D01*
X26076847Y11395491D01*
X26247389Y11410411D01*
X26467870Y11469488D01*
X26674742Y11565954D01*
X26861719Y11696878D01*
X27023122Y11858281D01*
X27154046Y12045258D01*
X27250512Y12252130D01*
X27309589Y12472611D01*
X27329483Y12700000D01*
X27329483Y12700002D01*
X31710517Y12700002D01*
X31710517Y12699999D01*
X31730410Y12472617D01*
X31730412Y12472606D01*
X31789485Y12252138D01*
X31789487Y12252134D01*
X31789488Y12252130D01*
X31837721Y12148694D01*
X31885953Y12045259D01*
X31885955Y12045255D01*
X32016872Y11858288D01*
X32016881Y11858278D01*
X32178277Y11696882D01*
X32178287Y11696873D01*
X32365254Y11565956D01*
X32365258Y11565954D01*
X32572130Y11469488D01*
X32792611Y11410411D01*
X32955031Y11396201D01*
X33019998Y11390517D01*
X33020000Y11390517D01*
X33020002Y11390517D01*
X33076847Y11395491D01*
X33247389Y11410411D01*
X33467870Y11469488D01*
X33674742Y11565954D01*
X33861719Y11696878D01*
X34023122Y11858281D01*
X34154046Y12045258D01*
X34250512Y12252130D01*
X34309589Y12472611D01*
X34329483Y12700000D01*
X34309589Y12927389D01*
X34250512Y13147870D01*
X34154046Y13354741D01*
X34154044Y13354745D01*
X34023121Y13541720D01*
X33861722Y13703119D01*
X33861712Y13703128D01*
X33674745Y13834045D01*
X33674741Y13834047D01*
X33571306Y13882279D01*
X33467870Y13930512D01*
X33467866Y13930513D01*
X33467862Y13930515D01*
X33247394Y13989588D01*
X33247390Y13989589D01*
X33247389Y13989589D01*
X33247388Y13989590D01*
X33247383Y13989590D01*
X33020002Y14009483D01*
X33019998Y14009483D01*
X32792616Y13989590D01*
X32792605Y13989588D01*
X32572137Y13930515D01*
X32572128Y13930511D01*
X32365259Y13834047D01*
X32365255Y13834045D01*
X32178280Y13703122D01*
X32016878Y13541720D01*
X31885955Y13354745D01*
X31885953Y13354741D01*
X31789489Y13147872D01*
X31789485Y13147863D01*
X31730412Y12927395D01*
X31730410Y12927384D01*
X31710517Y12700002D01*
X27329483Y12700002D01*
X27309589Y12927389D01*
X27250512Y13147870D01*
X27154046Y13354741D01*
X27154044Y13354745D01*
X27023121Y13541720D01*
X26861722Y13703119D01*
X26861712Y13703128D01*
X26674745Y13834045D01*
X26674741Y13834047D01*
X26571306Y13882279D01*
X26467870Y13930512D01*
X26467866Y13930513D01*
X26467862Y13930515D01*
X26247394Y13989588D01*
X26247390Y13989589D01*
X26247389Y13989589D01*
X26247388Y13989590D01*
X26247383Y13989590D01*
X26020002Y14009483D01*
X26019998Y14009483D01*
X25792616Y13989590D01*
X25792605Y13989588D01*
X25572137Y13930515D01*
X25572128Y13930511D01*
X25365259Y13834047D01*
X25365255Y13834045D01*
X25178280Y13703122D01*
X25016878Y13541720D01*
X24885955Y13354745D01*
X24885953Y13354741D01*
X24789489Y13147872D01*
X24789485Y13147863D01*
X24730412Y12927395D01*
X24730410Y12927384D01*
X24710517Y12700002D01*
X21590000Y12700002D01*
X21590000Y22860002D01*
X24710517Y22860002D01*
X24710517Y22859999D01*
X24730410Y22632617D01*
X24730412Y22632606D01*
X24789485Y22412138D01*
X24789487Y22412134D01*
X24789488Y22412130D01*
X24837721Y22308694D01*
X24885953Y22205259D01*
X24885955Y22205255D01*
X25016872Y22018288D01*
X25016881Y22018278D01*
X25178277Y21856882D01*
X25178287Y21856873D01*
X25365254Y21725956D01*
X25365258Y21725954D01*
X25572130Y21629488D01*
X25792611Y21570411D01*
X25955031Y21556201D01*
X26019998Y21550517D01*
X26020000Y21550517D01*
X26020002Y21550517D01*
X26076847Y21555491D01*
X26247389Y21570411D01*
X26467870Y21629488D01*
X26674742Y21725954D01*
X26861719Y21856878D01*
X27023122Y22018281D01*
X27154046Y22205258D01*
X27250512Y22412130D01*
X27309589Y22632611D01*
X27329483Y22860000D01*
X27329483Y22860002D01*
X31710517Y22860002D01*
X31710517Y22859999D01*
X31730410Y22632617D01*
X31730412Y22632606D01*
X31789485Y22412138D01*
X31789487Y22412134D01*
X31789488Y22412130D01*
X31837721Y22308694D01*
X31885953Y22205259D01*
X31885955Y22205255D01*
X32016872Y22018288D01*
X32016881Y22018278D01*
X32178277Y21856882D01*
X32178287Y21856873D01*
X32365254Y21725956D01*
X32365258Y21725954D01*
X32572130Y21629488D01*
X32792611Y21570411D01*
X32955031Y21556201D01*
X33019998Y21550517D01*
X33020000Y21550517D01*
X33020002Y21550517D01*
X33076847Y21555491D01*
X33247389Y21570411D01*
X33467870Y21629488D01*
X33674742Y21725954D01*
X33861719Y21856878D01*
X34023122Y22018281D01*
X34154046Y22205258D01*
X34250512Y22412130D01*
X34309589Y22632611D01*
X34329483Y22860000D01*
X34309589Y23087389D01*
X34250512Y23307870D01*
X34154046Y23514741D01*
X34154044Y23514745D01*
X34023121Y23701720D01*
X33861722Y23863119D01*
X33861712Y23863128D01*
X33674745Y23994045D01*
X33674741Y23994047D01*
X33571306Y24042279D01*
X33467870Y24090512D01*
X33467866Y24090513D01*
X33467862Y24090515D01*
X33247394Y24149588D01*
X33247390Y24149589D01*
X33247389Y24149589D01*
X33247388Y24149590D01*
X33247383Y24149590D01*
X33020002Y24169483D01*
X33019998Y24169483D01*
X32792616Y24149590D01*
X32792605Y24149588D01*
X32572137Y24090515D01*
X32572128Y24090511D01*
X32365259Y23994047D01*
X32365255Y23994045D01*
X32178280Y23863122D01*
X32016878Y23701720D01*
X31885955Y23514745D01*
X31885953Y23514741D01*
X31789489Y23307872D01*
X31789485Y23307863D01*
X31730412Y23087395D01*
X31730410Y23087384D01*
X31710517Y22860002D01*
X27329483Y22860002D01*
X27309589Y23087389D01*
X27250512Y23307870D01*
X27154046Y23514741D01*
X27154044Y23514745D01*
X27023121Y23701720D01*
X26861722Y23863119D01*
X26861712Y23863128D01*
X26674745Y23994045D01*
X26674741Y23994047D01*
X26571306Y24042279D01*
X26467870Y24090512D01*
X26467866Y24090513D01*
X26467862Y24090515D01*
X26247394Y24149588D01*
X26247390Y24149589D01*
X26247389Y24149589D01*
X26247388Y24149590D01*
X26247383Y24149590D01*
X26020002Y24169483D01*
X26019998Y24169483D01*
X25792616Y24149590D01*
X25792605Y24149588D01*
X25572137Y24090515D01*
X25572128Y24090511D01*
X25365259Y23994047D01*
X25365255Y23994045D01*
X25178280Y23863122D01*
X25016878Y23701720D01*
X24885955Y23514745D01*
X24885953Y23514741D01*
X24789489Y23307872D01*
X24789485Y23307863D01*
X24730412Y23087395D01*
X24730410Y23087384D01*
X24710517Y22860002D01*
X21590000Y22860002D01*
X21590000Y33020002D01*
X24710517Y33020002D01*
X24710517Y33019999D01*
X24730410Y32792617D01*
X24730412Y32792606D01*
X24789485Y32572138D01*
X24789487Y32572134D01*
X24789488Y32572130D01*
X24837721Y32468694D01*
X24885953Y32365259D01*
X24885955Y32365255D01*
X25016872Y32178288D01*
X25016881Y32178278D01*
X25178277Y32016882D01*
X25178287Y32016873D01*
X25365254Y31885956D01*
X25365258Y31885954D01*
X25572130Y31789488D01*
X25792611Y31730411D01*
X25955031Y31716201D01*
X26019998Y31710517D01*
X26020000Y31710517D01*
X26020002Y31710517D01*
X26076847Y31715491D01*
X26247389Y31730411D01*
X26467870Y31789488D01*
X26674742Y31885954D01*
X26861719Y32016878D01*
X27023122Y32178281D01*
X27154046Y32365258D01*
X27250512Y32572130D01*
X27309589Y32792611D01*
X27329483Y33020000D01*
X27329483Y33020002D01*
X31710517Y33020002D01*
X31710517Y33019999D01*
X31730410Y32792617D01*
X31730412Y32792606D01*
X31789485Y32572138D01*
X31789487Y32572134D01*
X31789488Y32572130D01*
X31837721Y32468694D01*
X31885953Y32365259D01*
X31885955Y32365255D01*
X32016872Y32178288D01*
X32016881Y32178278D01*
X32178277Y32016882D01*
X32178287Y32016873D01*
X32365254Y31885956D01*
X32365258Y31885954D01*
X32572130Y31789488D01*
X32792611Y31730411D01*
X32955031Y31716201D01*
X33019998Y31710517D01*
X33020000Y31710517D01*
X33020002Y31710517D01*
X33076847Y31715491D01*
X33247389Y31730411D01*
X33467870Y31789488D01*
X33674742Y31885954D01*
X33861719Y32016878D01*
X34023122Y32178281D01*
X34154046Y32365258D01*
X34250512Y32572130D01*
X34309589Y32792611D01*
X34329483Y33020000D01*
X34309589Y33247389D01*
X34250512Y33467870D01*
X34154046Y33674741D01*
X34154044Y33674745D01*
X34023121Y33861720D01*
X33861722Y34023119D01*
X33861712Y34023128D01*
X33674745Y34154045D01*
X33674741Y34154047D01*
X33571306Y34202279D01*
X33467870Y34250512D01*
X33467866Y34250513D01*
X33467862Y34250515D01*
X33247394Y34309588D01*
X33247390Y34309589D01*
X33247389Y34309589D01*
X33247388Y34309590D01*
X33247383Y34309590D01*
X33020002Y34329483D01*
X33019998Y34329483D01*
X32792616Y34309590D01*
X32792605Y34309588D01*
X32572137Y34250515D01*
X32572128Y34250511D01*
X32365259Y34154047D01*
X32365255Y34154045D01*
X32178280Y34023122D01*
X32016878Y33861720D01*
X31885955Y33674745D01*
X31885953Y33674741D01*
X31789489Y33467872D01*
X31789485Y33467863D01*
X31730412Y33247395D01*
X31730410Y33247384D01*
X31710517Y33020002D01*
X27329483Y33020002D01*
X27309589Y33247389D01*
X27250512Y33467870D01*
X27154046Y33674741D01*
X27154044Y33674745D01*
X27023121Y33861720D01*
X26861722Y34023119D01*
X26861712Y34023128D01*
X26674745Y34154045D01*
X26674741Y34154047D01*
X26571306Y34202279D01*
X26467870Y34250512D01*
X26467866Y34250513D01*
X26467862Y34250515D01*
X26247394Y34309588D01*
X26247390Y34309589D01*
X26247389Y34309589D01*
X26247388Y34309590D01*
X26247383Y34309590D01*
X26020002Y34329483D01*
X26019998Y34329483D01*
X25792616Y34309590D01*
X25792605Y34309588D01*
X25572137Y34250515D01*
X25572128Y34250511D01*
X25365259Y34154047D01*
X25365255Y34154045D01*
X25178280Y34023122D01*
X25016878Y33861720D01*
X24885955Y33674745D01*
X24885953Y33674741D01*
X24789489Y33467872D01*
X24789485Y33467863D01*
X24730412Y33247395D01*
X24730410Y33247384D01*
X24710517Y33020002D01*
X21590000Y33020002D01*
X21590000Y38100008D01*
X42194671Y38100008D01*
X42194671Y38099993D01*
X42213964Y37805637D01*
X42213965Y37805627D01*
X42213966Y37805620D01*
X42213968Y37805610D01*
X42271518Y37516284D01*
X42271521Y37516270D01*
X42366349Y37236920D01*
X42496825Y36972340D01*
X42496829Y36972333D01*
X42660725Y36727045D01*
X42855241Y36505242D01*
X43077043Y36310727D01*
X43322335Y36146828D01*
X43586923Y36016348D01*
X43866278Y35921519D01*
X44155620Y35863966D01*
X44183888Y35862114D01*
X44449993Y35844671D01*
X44450000Y35844671D01*
X44450007Y35844671D01*
X44685675Y35860119D01*
X44744380Y35863966D01*
X45033722Y35921519D01*
X45313077Y36016348D01*
X45577665Y36146828D01*
X45822957Y36310727D01*
X46044758Y36505242D01*
X46239273Y36727043D01*
X46403172Y36972335D01*
X46533652Y37236923D01*
X46628481Y37516278D01*
X46686034Y37805620D01*
X46705329Y38100000D01*
X46705329Y38100008D01*
X46686035Y38394364D01*
X46686034Y38394380D01*
X46628481Y38683722D01*
X46533652Y38963077D01*
X46403172Y39227664D01*
X46239273Y39472957D01*
X46196655Y39521553D01*
X46044758Y39694759D01*
X45822955Y39889275D01*
X45577667Y40053171D01*
X45577660Y40053175D01*
X45313080Y40183651D01*
X45033730Y40278479D01*
X45033724Y40278481D01*
X45033722Y40278481D01*
X44744380Y40336034D01*
X44744373Y40336035D01*
X44744363Y40336036D01*
X44450007Y40355329D01*
X44449993Y40355329D01*
X44155636Y40336036D01*
X44155624Y40336035D01*
X44155620Y40336034D01*
X44155612Y40336033D01*
X44155609Y40336032D01*
X43866283Y40278482D01*
X43866269Y40278479D01*
X43586919Y40183651D01*
X43322334Y40053172D01*
X43077041Y39889272D01*
X42855241Y39694759D01*
X42660728Y39472959D01*
X42496828Y39227666D01*
X42366349Y38963081D01*
X42271521Y38683731D01*
X42271518Y38683717D01*
X42213968Y38394391D01*
X42213964Y38394364D01*
X42194671Y38100008D01*
X21590000Y38100008D01*
X21590000Y43180008D01*
X42194671Y43180008D01*
X42194671Y43179993D01*
X42213964Y42885637D01*
X42213965Y42885627D01*
X42213966Y42885620D01*
X42213968Y42885610D01*
X42271518Y42596284D01*
X42271521Y42596270D01*
X42366349Y42316920D01*
X42496825Y42052340D01*
X42496829Y42052333D01*
X42660725Y41807045D01*
X42855241Y41585242D01*
X43077043Y41390727D01*
X43322335Y41226828D01*
X43586923Y41096348D01*
X43866278Y41001519D01*
X44155620Y40943966D01*
X44183888Y40942114D01*
X44449993Y40924671D01*
X44450000Y40924671D01*
X44450007Y40924671D01*
X44685675Y40940119D01*
X44744380Y40943966D01*
X45033722Y41001519D01*
X45313077Y41096348D01*
X45577665Y41226828D01*
X45822957Y41390727D01*
X46044758Y41585242D01*
X46239273Y41807043D01*
X46403172Y42052335D01*
X46533652Y42316923D01*
X46628481Y42596278D01*
X46686034Y42885620D01*
X46705329Y43180000D01*
X46705329Y43180008D01*
X46686035Y43474364D01*
X46686034Y43474380D01*
X46628481Y43763722D01*
X46533652Y44043077D01*
X46403172Y44307664D01*
X46239273Y44552957D01*
X46135487Y44671302D01*
X46044758Y44774759D01*
X45822955Y44969275D01*
X45577667Y45133171D01*
X45577660Y45133175D01*
X45313080Y45263651D01*
X45033730Y45358479D01*
X45033724Y45358481D01*
X45033722Y45358481D01*
X44744380Y45416034D01*
X44744373Y45416035D01*
X44744363Y45416036D01*
X44450007Y45435329D01*
X44449993Y45435329D01*
X44155636Y45416036D01*
X44155624Y45416035D01*
X44155620Y45416034D01*
X44155612Y45416033D01*
X44155609Y45416032D01*
X43866283Y45358482D01*
X43866269Y45358479D01*
X43586919Y45263651D01*
X43322334Y45133172D01*
X43077041Y44969272D01*
X42855241Y44774759D01*
X42660728Y44552959D01*
X42496828Y44307666D01*
X42366349Y44043081D01*
X42271521Y43763731D01*
X42271518Y43763717D01*
X42213968Y43474391D01*
X42213964Y43474364D01*
X42194671Y43180008D01*
X21590000Y43180008D01*
X21590000Y45000000D01*
X23394551Y45000000D01*
X23414317Y44748849D01*
X23473126Y44503890D01*
X23569533Y44271141D01*
X23701160Y44056347D01*
X23701161Y44056344D01*
X23735483Y44016159D01*
X23864776Y43864776D01*
X23983095Y43763722D01*
X24056343Y43701162D01*
X24056346Y43701161D01*
X24271140Y43569534D01*
X24500837Y43474391D01*
X24503889Y43473127D01*
X24748852Y43414317D01*
X25000000Y43394551D01*
X25251148Y43414317D01*
X25496111Y43473127D01*
X25728859Y43569534D01*
X25943659Y43701164D01*
X26135224Y43864776D01*
X26298836Y44056341D01*
X26430466Y44271141D01*
X26526873Y44503889D01*
X26585683Y44748852D01*
X26605449Y45000000D01*
X26585683Y45251148D01*
X26526873Y45496111D01*
X26436905Y45713314D01*
X26430466Y45728860D01*
X26298839Y45943654D01*
X26298838Y45943657D01*
X26250716Y46000000D01*
X29894592Y46000000D01*
X29914201Y45713320D01*
X29972666Y45431966D01*
X29972667Y45431963D01*
X30068894Y45161207D01*
X30068893Y45161207D01*
X30201098Y44906065D01*
X30366812Y44671300D01*
X30451923Y44580169D01*
X30562947Y44461292D01*
X30785853Y44279945D01*
X30800330Y44271141D01*
X31031382Y44130635D01*
X31218237Y44049474D01*
X31294942Y44016156D01*
X31571642Y43938629D01*
X31821920Y43904229D01*
X31856321Y43899500D01*
X31856322Y43899500D01*
X32143679Y43899500D01*
X32174370Y43903719D01*
X32428358Y43938629D01*
X32705058Y44016156D01*
X32818015Y44065221D01*
X32968617Y44130635D01*
X32968620Y44130637D01*
X32968625Y44130639D01*
X33214147Y44279945D01*
X33437053Y44461292D01*
X33633189Y44671302D01*
X33798901Y44906064D01*
X33847575Y45000000D01*
X37394551Y45000000D01*
X37414317Y44748849D01*
X37473126Y44503890D01*
X37569533Y44271141D01*
X37701160Y44056347D01*
X37701161Y44056344D01*
X37735483Y44016159D01*
X37864776Y43864776D01*
X37983095Y43763722D01*
X38056343Y43701162D01*
X38056346Y43701161D01*
X38271140Y43569534D01*
X38500837Y43474391D01*
X38503889Y43473127D01*
X38748852Y43414317D01*
X39000000Y43394551D01*
X39251148Y43414317D01*
X39496111Y43473127D01*
X39728859Y43569534D01*
X39943659Y43701164D01*
X40135224Y43864776D01*
X40298836Y44056341D01*
X40430466Y44271141D01*
X40526873Y44503889D01*
X40585683Y44748852D01*
X40605449Y45000000D01*
X40585683Y45251148D01*
X40526873Y45496111D01*
X40436905Y45713314D01*
X40430466Y45728860D01*
X40298839Y45943654D01*
X40298838Y45943657D01*
X40250716Y46000000D01*
X40135224Y46135224D01*
X39957885Y46286686D01*
X39943656Y46298839D01*
X39943653Y46298840D01*
X39728859Y46430467D01*
X39496110Y46526874D01*
X39251151Y46585683D01*
X39000000Y46605449D01*
X38748848Y46585683D01*
X38503889Y46526874D01*
X38271140Y46430467D01*
X38056346Y46298840D01*
X38056343Y46298839D01*
X37864776Y46135224D01*
X37701161Y45943657D01*
X37701160Y45943654D01*
X37569533Y45728860D01*
X37473126Y45496111D01*
X37414317Y45251152D01*
X37394551Y45000000D01*
X33847575Y45000000D01*
X33931104Y45161203D01*
X34027334Y45431968D01*
X34085798Y45713314D01*
X34105408Y46000000D01*
X34085798Y46286686D01*
X34027334Y46568032D01*
X34021210Y46585262D01*
X33931105Y46838794D01*
X33931106Y46838794D01*
X33798901Y47093936D01*
X33633187Y47328701D01*
X33538536Y47430046D01*
X33437053Y47538708D01*
X33244058Y47695721D01*
X33214146Y47720056D01*
X32968617Y47869366D01*
X32705063Y47983842D01*
X32705061Y47983843D01*
X32705058Y47983844D01*
X32575578Y48020123D01*
X32428364Y48061370D01*
X32428359Y48061371D01*
X32428358Y48061371D01*
X32286018Y48080936D01*
X32143679Y48100500D01*
X32143678Y48100500D01*
X31856322Y48100500D01*
X31856321Y48100500D01*
X31571642Y48061371D01*
X31571635Y48061370D01*
X31363861Y48003155D01*
X31294942Y47983844D01*
X31294939Y47983844D01*
X31294936Y47983842D01*
X31294935Y47983842D01*
X31031382Y47869366D01*
X30785853Y47720056D01*
X30562950Y47538711D01*
X30366812Y47328701D01*
X30201098Y47093936D01*
X30068894Y46838794D01*
X29972667Y46568038D01*
X29972666Y46568035D01*
X29914201Y46286681D01*
X29894592Y46000000D01*
X26250716Y46000000D01*
X26135224Y46135224D01*
X25957885Y46286686D01*
X25943656Y46298839D01*
X25943653Y46298840D01*
X25728859Y46430467D01*
X25496110Y46526874D01*
X25251151Y46585683D01*
X25000000Y46605449D01*
X24748848Y46585683D01*
X24503889Y46526874D01*
X24271140Y46430467D01*
X24056346Y46298840D01*
X24056343Y46298839D01*
X23864776Y46135224D01*
X23701161Y45943657D01*
X23701160Y45943654D01*
X23569533Y45728860D01*
X23473126Y45496111D01*
X23414317Y45251152D01*
X23394551Y45000000D01*
X21590000Y45000000D01*
X21590000Y47275500D01*
X21609685Y47342539D01*
X21662489Y47388294D01*
X21714000Y47399500D01*
X26107317Y47399500D01*
X26107318Y47399500D01*
X26277851Y47424020D01*
X26319764Y47430045D01*
X26319765Y47430046D01*
X26319769Y47430046D01*
X26525710Y47490516D01*
X26525713Y47490518D01*
X26525715Y47490518D01*
X26720938Y47579673D01*
X26720944Y47579677D01*
X26720950Y47579679D01*
X26901513Y47695719D01*
X27063724Y47836276D01*
X27204281Y47998487D01*
X27320321Y48179050D01*
X27320323Y48179056D01*
X27320327Y48179062D01*
X27409482Y48374285D01*
X27409482Y48374287D01*
X27409484Y48374290D01*
X27469954Y48580231D01*
X27500500Y48792682D01*
X27500500Y48893039D01*
X27501280Y48906923D01*
X27501280Y48906924D01*
X27511459Y48997269D01*
X27517635Y49024330D01*
X27545353Y49103544D01*
X27557396Y49128550D01*
X27602046Y49199611D01*
X27619351Y49221310D01*
X27678690Y49280649D01*
X27700389Y49297954D01*
X27771450Y49342604D01*
X27796456Y49354647D01*
X27875670Y49382365D01*
X27902733Y49388541D01*
X27965419Y49395604D01*
X27993079Y49398720D01*
X28006962Y49399500D01*
X28065892Y49399500D01*
X35934108Y49399500D01*
X35993038Y49399500D01*
X36006922Y49398720D01*
G37*
%TD.AperFunction*%
%TA.AperFunction,Conductor*%
G36*
X30262539Y-25385185D02*
G01*
X30308294Y-25437989D01*
X30319500Y-25489500D01*
X30319500Y-25649901D01*
X30299815Y-25716940D01*
X30283181Y-25737582D01*
X28809584Y-27211181D01*
X28748261Y-27244666D01*
X28721903Y-27247500D01*
X23090740Y-27247500D01*
X23023701Y-27227815D01*
X23003059Y-27211181D01*
X23002262Y-27210384D01*
X22849523Y-27114411D01*
X22679254Y-27054831D01*
X22679249Y-27054830D01*
X22500004Y-27034635D01*
X22499996Y-27034635D01*
X22320750Y-27054830D01*
X22320745Y-27054831D01*
X22150476Y-27114411D01*
X21997737Y-27210384D01*
X21870184Y-27337937D01*
X21870179Y-27337943D01*
X21818993Y-27419406D01*
X21766659Y-27465697D01*
X21697605Y-27476345D01*
X21633757Y-27447970D01*
X21595385Y-27389580D01*
X21590000Y-27353434D01*
X21590000Y-26155897D01*
X21609685Y-26088858D01*
X21662489Y-26043103D01*
X21731647Y-26033159D01*
X21795203Y-26062184D01*
X21801675Y-26068210D01*
X22248984Y-26515520D01*
X22248986Y-26515521D01*
X22248990Y-26515524D01*
X22338225Y-26567043D01*
X22385916Y-26594577D01*
X22538643Y-26635501D01*
X22538645Y-26635501D01*
X22704354Y-26635501D01*
X22704370Y-26635500D01*
X23873091Y-26635500D01*
X23940130Y-26655185D01*
X23947402Y-26660233D01*
X24013631Y-26709812D01*
X24027368Y-26720095D01*
X24027371Y-26720097D01*
X24162217Y-26770391D01*
X24162216Y-26770391D01*
X24169144Y-26771135D01*
X24221827Y-26776800D01*
X26171772Y-26776799D01*
X26231383Y-26770391D01*
X26366231Y-26720096D01*
X26481446Y-26633846D01*
X26567696Y-26518631D01*
X26617991Y-26383783D01*
X26624400Y-26324173D01*
X26624399Y-25745828D01*
X26617991Y-25686217D01*
X26617414Y-25684671D01*
X26567695Y-25551366D01*
X26566364Y-25548928D01*
X26565773Y-25546212D01*
X26564597Y-25543059D01*
X26565050Y-25542889D01*
X26551511Y-25480656D01*
X26575927Y-25415191D01*
X26631860Y-25373319D01*
X26675195Y-25365500D01*
X30195500Y-25365500D01*
X30262539Y-25385185D01*
G37*
%TD.AperFunction*%
%TD*%
M02*
