%TF.GenerationSoftware,KiCad,Pcbnew,9.0.0*%
%TF.CreationDate,2025-03-09T10:46:22+03:00*%
%TF.ProjectId,PM_CNV-RQ8,504d5f43-4e56-42d5-9251-382e6b696361,rev?*%
%TF.SameCoordinates,Original*%
%TF.FileFunction,Legend,Top*%
%TF.FilePolarity,Positive*%
%FSLAX46Y46*%
G04 Gerber Fmt 4.6, Leading zero omitted, Abs format (unit mm)*
G04 Created by KiCad (PCBNEW 9.0.0) date 2025-03-09 10:46:22*
%MOMM*%
%LPD*%
G01*
G04 APERTURE LIST*
%ADD10C,0.200000*%
%ADD11C,0.150000*%
%ADD12C,0.100000*%
%ADD13C,0.152400*%
%ADD14C,0.000000*%
%ADD15C,0.120000*%
G04 APERTURE END LIST*
D10*
G36*
X21702668Y-41582024D02*
G01*
X21727337Y-41606692D01*
X21757142Y-41666302D01*
X21757142Y-41761945D01*
X21727337Y-41821554D01*
X21702668Y-41846222D01*
X21643059Y-41876028D01*
X21385714Y-41876028D01*
X21385714Y-41552219D01*
X21643059Y-41552219D01*
X21702668Y-41582024D01*
G37*
G36*
X22971094Y-42663330D02*
G01*
X21074603Y-42663330D01*
X21074603Y-41452219D01*
X21185714Y-41452219D01*
X21185714Y-42452219D01*
X21187635Y-42471728D01*
X21202567Y-42507776D01*
X21230157Y-42535366D01*
X21266205Y-42550298D01*
X21305223Y-42550298D01*
X21341271Y-42535366D01*
X21368861Y-42507776D01*
X21383793Y-42471728D01*
X21385714Y-42452219D01*
X21385714Y-42076028D01*
X21666666Y-42076028D01*
X21686175Y-42074107D01*
X21689495Y-42072731D01*
X21693079Y-42072477D01*
X21711387Y-42065471D01*
X21806625Y-42017852D01*
X21815021Y-42012566D01*
X21817461Y-42011556D01*
X21820207Y-42009302D01*
X21823215Y-42007409D01*
X21824944Y-42005414D01*
X21832615Y-41999120D01*
X21880233Y-41951501D01*
X21886525Y-41943834D01*
X21888523Y-41942102D01*
X21890416Y-41939093D01*
X21892670Y-41936348D01*
X21893680Y-41933907D01*
X21898966Y-41925511D01*
X21946585Y-41830274D01*
X21953591Y-41811965D01*
X21953845Y-41808381D01*
X21955221Y-41805061D01*
X21957142Y-41785552D01*
X21957142Y-41642695D01*
X21955221Y-41623186D01*
X21953845Y-41619865D01*
X21953591Y-41616282D01*
X21946585Y-41597973D01*
X21898966Y-41502736D01*
X21893680Y-41494339D01*
X21892670Y-41491899D01*
X21890416Y-41489153D01*
X21888523Y-41486145D01*
X21886525Y-41484412D01*
X21880233Y-41476746D01*
X21855707Y-41452219D01*
X22185714Y-41452219D01*
X22185714Y-42452219D01*
X22187635Y-42471728D01*
X22202567Y-42507776D01*
X22230157Y-42535366D01*
X22266205Y-42550298D01*
X22285714Y-42552219D01*
X22761904Y-42552219D01*
X22781413Y-42550298D01*
X22817461Y-42535366D01*
X22845051Y-42507776D01*
X22859983Y-42471728D01*
X22859983Y-42432710D01*
X22845051Y-42396662D01*
X22817461Y-42369072D01*
X22781413Y-42354140D01*
X22761904Y-42352219D01*
X22385714Y-42352219D01*
X22385714Y-42028409D01*
X22619047Y-42028409D01*
X22638556Y-42026488D01*
X22674604Y-42011556D01*
X22702194Y-41983966D01*
X22717126Y-41947918D01*
X22717126Y-41908900D01*
X22702194Y-41872852D01*
X22674604Y-41845262D01*
X22638556Y-41830330D01*
X22619047Y-41828409D01*
X22385714Y-41828409D01*
X22385714Y-41552219D01*
X22761904Y-41552219D01*
X22781413Y-41550298D01*
X22817461Y-41535366D01*
X22845051Y-41507776D01*
X22859983Y-41471728D01*
X22859983Y-41432710D01*
X22845051Y-41396662D01*
X22817461Y-41369072D01*
X22781413Y-41354140D01*
X22761904Y-41352219D01*
X22285714Y-41352219D01*
X22266205Y-41354140D01*
X22230157Y-41369072D01*
X22202567Y-41396662D01*
X22187635Y-41432710D01*
X22185714Y-41452219D01*
X21855707Y-41452219D01*
X21832615Y-41429127D01*
X21824944Y-41422832D01*
X21823215Y-41420838D01*
X21820207Y-41418944D01*
X21817461Y-41416691D01*
X21815021Y-41415680D01*
X21806625Y-41410395D01*
X21711387Y-41362776D01*
X21693079Y-41355770D01*
X21689495Y-41355515D01*
X21686175Y-41354140D01*
X21666666Y-41352219D01*
X21285714Y-41352219D01*
X21266205Y-41354140D01*
X21230157Y-41369072D01*
X21202567Y-41396662D01*
X21187635Y-41432710D01*
X21185714Y-41452219D01*
X21074603Y-41452219D01*
X21074603Y-41241108D01*
X22971094Y-41241108D01*
X22971094Y-42663330D01*
G37*
D11*
X-16545181Y29666667D02*
X-15830896Y29666667D01*
X-15830896Y29666667D02*
X-15688039Y29619048D01*
X-15688039Y29619048D02*
X-15592800Y29523810D01*
X-15592800Y29523810D02*
X-15545181Y29380953D01*
X-15545181Y29380953D02*
X-15545181Y29285715D01*
X-16545181Y30571429D02*
X-16545181Y30380953D01*
X-16545181Y30380953D02*
X-16497562Y30285715D01*
X-16497562Y30285715D02*
X-16449943Y30238096D01*
X-16449943Y30238096D02*
X-16307086Y30142858D01*
X-16307086Y30142858D02*
X-16116610Y30095239D01*
X-16116610Y30095239D02*
X-15735658Y30095239D01*
X-15735658Y30095239D02*
X-15640420Y30142858D01*
X-15640420Y30142858D02*
X-15592800Y30190477D01*
X-15592800Y30190477D02*
X-15545181Y30285715D01*
X-15545181Y30285715D02*
X-15545181Y30476191D01*
X-15545181Y30476191D02*
X-15592800Y30571429D01*
X-15592800Y30571429D02*
X-15640420Y30619048D01*
X-15640420Y30619048D02*
X-15735658Y30666667D01*
X-15735658Y30666667D02*
X-15973753Y30666667D01*
X-15973753Y30666667D02*
X-16068991Y30619048D01*
X-16068991Y30619048D02*
X-16116610Y30571429D01*
X-16116610Y30571429D02*
X-16164229Y30476191D01*
X-16164229Y30476191D02*
X-16164229Y30285715D01*
X-16164229Y30285715D02*
X-16116610Y30190477D01*
X-16116610Y30190477D02*
X-16068991Y30142858D01*
X-16068991Y30142858D02*
X-15973753Y30095239D01*
X11104819Y-8028094D02*
X10104819Y-8028094D01*
X11104819Y-7456666D02*
X10533390Y-7885237D01*
X10104819Y-7456666D02*
X10676247Y-8028094D01*
X10438152Y-6599523D02*
X11104819Y-6599523D01*
X10057200Y-6837618D02*
X10771485Y-7075713D01*
X10771485Y-7075713D02*
X10771485Y-6456666D01*
X-16834820Y-22238095D02*
X-17644343Y-22238095D01*
X-17644343Y-22238095D02*
X-17739581Y-22285714D01*
X-17739581Y-22285714D02*
X-17787200Y-22333333D01*
X-17787200Y-22333333D02*
X-17834820Y-22428571D01*
X-17834820Y-22428571D02*
X-17834820Y-22619047D01*
X-17834820Y-22619047D02*
X-17787200Y-22714285D01*
X-17787200Y-22714285D02*
X-17739581Y-22761904D01*
X-17739581Y-22761904D02*
X-17644343Y-22809523D01*
X-17644343Y-22809523D02*
X-16834820Y-22809523D01*
X-16930058Y-23238095D02*
X-16882439Y-23285714D01*
X-16882439Y-23285714D02*
X-16834820Y-23380952D01*
X-16834820Y-23380952D02*
X-16834820Y-23619047D01*
X-16834820Y-23619047D02*
X-16882439Y-23714285D01*
X-16882439Y-23714285D02*
X-16930058Y-23761904D01*
X-16930058Y-23761904D02*
X-17025296Y-23809523D01*
X-17025296Y-23809523D02*
X-17120534Y-23809523D01*
X-17120534Y-23809523D02*
X-17263391Y-23761904D01*
X-17263391Y-23761904D02*
X-17834820Y-23190476D01*
X-17834820Y-23190476D02*
X-17834820Y-23809523D01*
X-17781020Y-17895201D02*
X-18019115Y-17895201D01*
X-17923877Y-17657106D02*
X-18019115Y-17895201D01*
X-18019115Y-17895201D02*
X-17923877Y-18133296D01*
X-18209591Y-17752344D02*
X-18019115Y-17895201D01*
X-18019115Y-17895201D02*
X-18209591Y-18038058D01*
X-30809524Y20045181D02*
X-30809524Y19330896D01*
X-30809524Y19330896D02*
X-30857143Y19188039D01*
X-30857143Y19188039D02*
X-30952381Y19092800D01*
X-30952381Y19092800D02*
X-31095238Y19045181D01*
X-31095238Y19045181D02*
X-31190476Y19045181D01*
X-29809524Y19045181D02*
X-30380952Y19045181D01*
X-30095238Y19045181D02*
X-30095238Y20045181D01*
X-30095238Y20045181D02*
X-30190476Y19902324D01*
X-30190476Y19902324D02*
X-30285714Y19807086D01*
X-30285714Y19807086D02*
X-30380952Y19759467D01*
X-29238095Y19616610D02*
X-29333333Y19664229D01*
X-29333333Y19664229D02*
X-29380952Y19711848D01*
X-29380952Y19711848D02*
X-29428571Y19807086D01*
X-29428571Y19807086D02*
X-29428571Y19854705D01*
X-29428571Y19854705D02*
X-29380952Y19949943D01*
X-29380952Y19949943D02*
X-29333333Y19997562D01*
X-29333333Y19997562D02*
X-29238095Y20045181D01*
X-29238095Y20045181D02*
X-29047619Y20045181D01*
X-29047619Y20045181D02*
X-28952381Y19997562D01*
X-28952381Y19997562D02*
X-28904762Y19949943D01*
X-28904762Y19949943D02*
X-28857143Y19854705D01*
X-28857143Y19854705D02*
X-28857143Y19807086D01*
X-28857143Y19807086D02*
X-28904762Y19711848D01*
X-28904762Y19711848D02*
X-28952381Y19664229D01*
X-28952381Y19664229D02*
X-29047619Y19616610D01*
X-29047619Y19616610D02*
X-29238095Y19616610D01*
X-29238095Y19616610D02*
X-29333333Y19568991D01*
X-29333333Y19568991D02*
X-29380952Y19521372D01*
X-29380952Y19521372D02*
X-29428571Y19426134D01*
X-29428571Y19426134D02*
X-29428571Y19235658D01*
X-29428571Y19235658D02*
X-29380952Y19140420D01*
X-29380952Y19140420D02*
X-29333333Y19092800D01*
X-29333333Y19092800D02*
X-29238095Y19045181D01*
X-29238095Y19045181D02*
X-29047619Y19045181D01*
X-29047619Y19045181D02*
X-28952381Y19092800D01*
X-28952381Y19092800D02*
X-28904762Y19140420D01*
X-28904762Y19140420D02*
X-28857143Y19235658D01*
X-28857143Y19235658D02*
X-28857143Y19426134D01*
X-28857143Y19426134D02*
X-28904762Y19521372D01*
X-28904762Y19521372D02*
X-28952381Y19568991D01*
X-28952381Y19568991D02*
X-29047619Y19616610D01*
X11104819Y-15648094D02*
X10104819Y-15648094D01*
X11104819Y-15076666D02*
X10533390Y-15505237D01*
X10104819Y-15076666D02*
X10676247Y-15648094D01*
X10104819Y-14171904D02*
X10104819Y-14648094D01*
X10104819Y-14648094D02*
X10581009Y-14695713D01*
X10581009Y-14695713D02*
X10533390Y-14648094D01*
X10533390Y-14648094D02*
X10485771Y-14552856D01*
X10485771Y-14552856D02*
X10485771Y-14314761D01*
X10485771Y-14314761D02*
X10533390Y-14219523D01*
X10533390Y-14219523D02*
X10581009Y-14171904D01*
X10581009Y-14171904D02*
X10676247Y-14124285D01*
X10676247Y-14124285D02*
X10914342Y-14124285D01*
X10914342Y-14124285D02*
X11009580Y-14171904D01*
X11009580Y-14171904D02*
X11057200Y-14219523D01*
X11057200Y-14219523D02*
X11104819Y-14314761D01*
X11104819Y-14314761D02*
X11104819Y-14552856D01*
X11104819Y-14552856D02*
X11057200Y-14648094D01*
X11057200Y-14648094D02*
X11009580Y-14695713D01*
X-37333334Y36605181D02*
X-37333334Y35890896D01*
X-37333334Y35890896D02*
X-37380953Y35748039D01*
X-37380953Y35748039D02*
X-37476191Y35652800D01*
X-37476191Y35652800D02*
X-37619048Y35605181D01*
X-37619048Y35605181D02*
X-37714286Y35605181D01*
X-36333334Y35605181D02*
X-36904762Y35605181D01*
X-36619048Y35605181D02*
X-36619048Y36605181D01*
X-36619048Y36605181D02*
X-36714286Y36462324D01*
X-36714286Y36462324D02*
X-36809524Y36367086D01*
X-36809524Y36367086D02*
X-36904762Y36319467D01*
X11104819Y-23268094D02*
X10104819Y-23268094D01*
X11104819Y-22696666D02*
X10533390Y-23125237D01*
X10104819Y-22696666D02*
X10676247Y-23268094D01*
X10104819Y-21839523D02*
X10104819Y-22029999D01*
X10104819Y-22029999D02*
X10152438Y-22125237D01*
X10152438Y-22125237D02*
X10200057Y-22172856D01*
X10200057Y-22172856D02*
X10342914Y-22268094D01*
X10342914Y-22268094D02*
X10533390Y-22315713D01*
X10533390Y-22315713D02*
X10914342Y-22315713D01*
X10914342Y-22315713D02*
X11009580Y-22268094D01*
X11009580Y-22268094D02*
X11057200Y-22220475D01*
X11057200Y-22220475D02*
X11104819Y-22125237D01*
X11104819Y-22125237D02*
X11104819Y-21934761D01*
X11104819Y-21934761D02*
X11057200Y-21839523D01*
X11057200Y-21839523D02*
X11009580Y-21791904D01*
X11009580Y-21791904D02*
X10914342Y-21744285D01*
X10914342Y-21744285D02*
X10676247Y-21744285D01*
X10676247Y-21744285D02*
X10581009Y-21791904D01*
X10581009Y-21791904D02*
X10533390Y-21839523D01*
X10533390Y-21839523D02*
X10485771Y-21934761D01*
X10485771Y-21934761D02*
X10485771Y-22125237D01*
X10485771Y-22125237D02*
X10533390Y-22220475D01*
X10533390Y-22220475D02*
X10581009Y-22268094D01*
X10581009Y-22268094D02*
X10676247Y-22315713D01*
X11104819Y-38508094D02*
X10104819Y-38508094D01*
X11104819Y-37936666D02*
X10533390Y-38365237D01*
X10104819Y-37936666D02*
X10676247Y-38508094D01*
X10533390Y-37365237D02*
X10485771Y-37460475D01*
X10485771Y-37460475D02*
X10438152Y-37508094D01*
X10438152Y-37508094D02*
X10342914Y-37555713D01*
X10342914Y-37555713D02*
X10295295Y-37555713D01*
X10295295Y-37555713D02*
X10200057Y-37508094D01*
X10200057Y-37508094D02*
X10152438Y-37460475D01*
X10152438Y-37460475D02*
X10104819Y-37365237D01*
X10104819Y-37365237D02*
X10104819Y-37174761D01*
X10104819Y-37174761D02*
X10152438Y-37079523D01*
X10152438Y-37079523D02*
X10200057Y-37031904D01*
X10200057Y-37031904D02*
X10295295Y-36984285D01*
X10295295Y-36984285D02*
X10342914Y-36984285D01*
X10342914Y-36984285D02*
X10438152Y-37031904D01*
X10438152Y-37031904D02*
X10485771Y-37079523D01*
X10485771Y-37079523D02*
X10533390Y-37174761D01*
X10533390Y-37174761D02*
X10533390Y-37365237D01*
X10533390Y-37365237D02*
X10581009Y-37460475D01*
X10581009Y-37460475D02*
X10628628Y-37508094D01*
X10628628Y-37508094D02*
X10723866Y-37555713D01*
X10723866Y-37555713D02*
X10914342Y-37555713D01*
X10914342Y-37555713D02*
X11009580Y-37508094D01*
X11009580Y-37508094D02*
X11057200Y-37460475D01*
X11057200Y-37460475D02*
X11104819Y-37365237D01*
X11104819Y-37365237D02*
X11104819Y-37174761D01*
X11104819Y-37174761D02*
X11057200Y-37079523D01*
X11057200Y-37079523D02*
X11009580Y-37031904D01*
X11009580Y-37031904D02*
X10914342Y-36984285D01*
X10914342Y-36984285D02*
X10723866Y-36984285D01*
X10723866Y-36984285D02*
X10628628Y-37031904D01*
X10628628Y-37031904D02*
X10581009Y-37079523D01*
X10581009Y-37079523D02*
X10533390Y-37174761D01*
X11104819Y14831906D02*
X10104819Y14831906D01*
X11104819Y15403334D02*
X10533390Y14974763D01*
X10104819Y15403334D02*
X10676247Y14831906D01*
X11104819Y16355715D02*
X11104819Y15784287D01*
X11104819Y16070001D02*
X10104819Y16070001D01*
X10104819Y16070001D02*
X10247676Y15974763D01*
X10247676Y15974763D02*
X10342914Y15879525D01*
X10342914Y15879525D02*
X10390533Y15784287D01*
D12*
X32457419Y-9083333D02*
X33171704Y-9083333D01*
X33171704Y-9083333D02*
X33314561Y-9130952D01*
X33314561Y-9130952D02*
X33409800Y-9226190D01*
X33409800Y-9226190D02*
X33457419Y-9369047D01*
X33457419Y-9369047D02*
X33457419Y-9464285D01*
X32885990Y-8464285D02*
X32838371Y-8559523D01*
X32838371Y-8559523D02*
X32790752Y-8607142D01*
X32790752Y-8607142D02*
X32695514Y-8654761D01*
X32695514Y-8654761D02*
X32647895Y-8654761D01*
X32647895Y-8654761D02*
X32552657Y-8607142D01*
X32552657Y-8607142D02*
X32505038Y-8559523D01*
X32505038Y-8559523D02*
X32457419Y-8464285D01*
X32457419Y-8464285D02*
X32457419Y-8273809D01*
X32457419Y-8273809D02*
X32505038Y-8178571D01*
X32505038Y-8178571D02*
X32552657Y-8130952D01*
X32552657Y-8130952D02*
X32647895Y-8083333D01*
X32647895Y-8083333D02*
X32695514Y-8083333D01*
X32695514Y-8083333D02*
X32790752Y-8130952D01*
X32790752Y-8130952D02*
X32838371Y-8178571D01*
X32838371Y-8178571D02*
X32885990Y-8273809D01*
X32885990Y-8273809D02*
X32885990Y-8464285D01*
X32885990Y-8464285D02*
X32933609Y-8559523D01*
X32933609Y-8559523D02*
X32981228Y-8607142D01*
X32981228Y-8607142D02*
X33076466Y-8654761D01*
X33076466Y-8654761D02*
X33266942Y-8654761D01*
X33266942Y-8654761D02*
X33362180Y-8607142D01*
X33362180Y-8607142D02*
X33409800Y-8559523D01*
X33409800Y-8559523D02*
X33457419Y-8464285D01*
X33457419Y-8464285D02*
X33457419Y-8273809D01*
X33457419Y-8273809D02*
X33409800Y-8178571D01*
X33409800Y-8178571D02*
X33362180Y-8130952D01*
X33362180Y-8130952D02*
X33266942Y-8083333D01*
X33266942Y-8083333D02*
X33076466Y-8083333D01*
X33076466Y-8083333D02*
X32981228Y-8130952D01*
X32981228Y-8130952D02*
X32933609Y-8178571D01*
X32933609Y-8178571D02*
X32885990Y-8273809D01*
D11*
X11104819Y-30888094D02*
X10104819Y-30888094D01*
X11104819Y-30316666D02*
X10533390Y-30745237D01*
X10104819Y-30316666D02*
X10676247Y-30888094D01*
X10104819Y-29983332D02*
X10104819Y-29316666D01*
X10104819Y-29316666D02*
X11104819Y-29745237D01*
X-37809524Y16605181D02*
X-37809524Y15890896D01*
X-37809524Y15890896D02*
X-37857143Y15748039D01*
X-37857143Y15748039D02*
X-37952381Y15652800D01*
X-37952381Y15652800D02*
X-38095238Y15605181D01*
X-38095238Y15605181D02*
X-38190476Y15605181D01*
X-37380952Y16509943D02*
X-37333333Y16557562D01*
X-37333333Y16557562D02*
X-37238095Y16605181D01*
X-37238095Y16605181D02*
X-37000000Y16605181D01*
X-37000000Y16605181D02*
X-36904762Y16557562D01*
X-36904762Y16557562D02*
X-36857143Y16509943D01*
X-36857143Y16509943D02*
X-36809524Y16414705D01*
X-36809524Y16414705D02*
X-36809524Y16319467D01*
X-36809524Y16319467D02*
X-36857143Y16176610D01*
X-36857143Y16176610D02*
X-37428571Y15605181D01*
X-37428571Y15605181D02*
X-36809524Y15605181D01*
X-36190476Y16605181D02*
X-36095238Y16605181D01*
X-36095238Y16605181D02*
X-36000000Y16557562D01*
X-36000000Y16557562D02*
X-35952381Y16509943D01*
X-35952381Y16509943D02*
X-35904762Y16414705D01*
X-35904762Y16414705D02*
X-35857143Y16224229D01*
X-35857143Y16224229D02*
X-35857143Y15986134D01*
X-35857143Y15986134D02*
X-35904762Y15795658D01*
X-35904762Y15795658D02*
X-35952381Y15700420D01*
X-35952381Y15700420D02*
X-36000000Y15652800D01*
X-36000000Y15652800D02*
X-36095238Y15605181D01*
X-36095238Y15605181D02*
X-36190476Y15605181D01*
X-36190476Y15605181D02*
X-36285714Y15652800D01*
X-36285714Y15652800D02*
X-36333333Y15700420D01*
X-36333333Y15700420D02*
X-36380952Y15795658D01*
X-36380952Y15795658D02*
X-36428571Y15986134D01*
X-36428571Y15986134D02*
X-36428571Y16224229D01*
X-36428571Y16224229D02*
X-36380952Y16414705D01*
X-36380952Y16414705D02*
X-36333333Y16509943D01*
X-36333333Y16509943D02*
X-36285714Y16557562D01*
X-36285714Y16557562D02*
X-36190476Y16605181D01*
X-23370420Y-1166666D02*
X-23322800Y-1214285D01*
X-23322800Y-1214285D02*
X-23275181Y-1357142D01*
X-23275181Y-1357142D02*
X-23275181Y-1452380D01*
X-23275181Y-1452380D02*
X-23322800Y-1595237D01*
X-23322800Y-1595237D02*
X-23418039Y-1690475D01*
X-23418039Y-1690475D02*
X-23513277Y-1738094D01*
X-23513277Y-1738094D02*
X-23703753Y-1785713D01*
X-23703753Y-1785713D02*
X-23846610Y-1785713D01*
X-23846610Y-1785713D02*
X-24037086Y-1738094D01*
X-24037086Y-1738094D02*
X-24132324Y-1690475D01*
X-24132324Y-1690475D02*
X-24227562Y-1595237D01*
X-24227562Y-1595237D02*
X-24275181Y-1452380D01*
X-24275181Y-1452380D02*
X-24275181Y-1357142D01*
X-24275181Y-1357142D02*
X-24227562Y-1214285D01*
X-24227562Y-1214285D02*
X-24179943Y-1166666D01*
X-24179943Y-785713D02*
X-24227562Y-738094D01*
X-24227562Y-738094D02*
X-24275181Y-642856D01*
X-24275181Y-642856D02*
X-24275181Y-404761D01*
X-24275181Y-404761D02*
X-24227562Y-309523D01*
X-24227562Y-309523D02*
X-24179943Y-261904D01*
X-24179943Y-261904D02*
X-24084705Y-214285D01*
X-24084705Y-214285D02*
X-23989467Y-214285D01*
X-23989467Y-214285D02*
X-23846610Y-261904D01*
X-23846610Y-261904D02*
X-23275181Y-833332D01*
X-23275181Y-833332D02*
X-23275181Y-214285D01*
X11104819Y-408094D02*
X10104819Y-408094D01*
X11104819Y163334D02*
X10533390Y-265237D01*
X10104819Y163334D02*
X10676247Y-408094D01*
X10104819Y496668D02*
X10104819Y1115715D01*
X10104819Y1115715D02*
X10485771Y782382D01*
X10485771Y782382D02*
X10485771Y925239D01*
X10485771Y925239D02*
X10533390Y1020477D01*
X10533390Y1020477D02*
X10581009Y1068096D01*
X10581009Y1068096D02*
X10676247Y1115715D01*
X10676247Y1115715D02*
X10914342Y1115715D01*
X10914342Y1115715D02*
X11009580Y1068096D01*
X11009580Y1068096D02*
X11057200Y1020477D01*
X11057200Y1020477D02*
X11104819Y925239D01*
X11104819Y925239D02*
X11104819Y639525D01*
X11104819Y639525D02*
X11057200Y544287D01*
X11057200Y544287D02*
X11009580Y496668D01*
X-17104820Y-7238095D02*
X-17914343Y-7238095D01*
X-17914343Y-7238095D02*
X-18009581Y-7285714D01*
X-18009581Y-7285714D02*
X-18057200Y-7333333D01*
X-18057200Y-7333333D02*
X-18104820Y-7428571D01*
X-18104820Y-7428571D02*
X-18104820Y-7619047D01*
X-18104820Y-7619047D02*
X-18057200Y-7714285D01*
X-18057200Y-7714285D02*
X-18009581Y-7761904D01*
X-18009581Y-7761904D02*
X-17914343Y-7809523D01*
X-17914343Y-7809523D02*
X-17104820Y-7809523D01*
X-18104820Y-8809523D02*
X-18104820Y-8238095D01*
X-18104820Y-8523809D02*
X-17104820Y-8523809D01*
X-17104820Y-8523809D02*
X-17247677Y-8428571D01*
X-17247677Y-8428571D02*
X-17342915Y-8333333D01*
X-17342915Y-8333333D02*
X-17390534Y-8238095D01*
X-17655020Y-4118199D02*
X-17893115Y-4118199D01*
X-17797877Y-3880104D02*
X-17893115Y-4118199D01*
X-17893115Y-4118199D02*
X-17797877Y-4356294D01*
X-18083591Y-3975342D02*
X-17893115Y-4118199D01*
X-17893115Y-4118199D02*
X-18083591Y-4261056D01*
X-18745381Y-4118198D02*
X-18507286Y-4118198D01*
X-18602524Y-4356293D02*
X-18507286Y-4118198D01*
X-18507286Y-4118198D02*
X-18602524Y-3880103D01*
X-18316810Y-4261055D02*
X-18507286Y-4118198D01*
X-18507286Y-4118198D02*
X-18316810Y-3975341D01*
X11104819Y7211906D02*
X10104819Y7211906D01*
X11104819Y7783334D02*
X10533390Y7354763D01*
X10104819Y7783334D02*
X10676247Y7211906D01*
X10200057Y8164287D02*
X10152438Y8211906D01*
X10152438Y8211906D02*
X10104819Y8307144D01*
X10104819Y8307144D02*
X10104819Y8545239D01*
X10104819Y8545239D02*
X10152438Y8640477D01*
X10152438Y8640477D02*
X10200057Y8688096D01*
X10200057Y8688096D02*
X10295295Y8735715D01*
X10295295Y8735715D02*
X10390533Y8735715D01*
X10390533Y8735715D02*
X10533390Y8688096D01*
X10533390Y8688096D02*
X11104819Y8116668D01*
X11104819Y8116668D02*
X11104819Y8735715D01*
X2913333Y44640420D02*
X2865714Y44592800D01*
X2865714Y44592800D02*
X2722857Y44545181D01*
X2722857Y44545181D02*
X2627619Y44545181D01*
X2627619Y44545181D02*
X2484762Y44592800D01*
X2484762Y44592800D02*
X2389524Y44688039D01*
X2389524Y44688039D02*
X2341905Y44783277D01*
X2341905Y44783277D02*
X2294286Y44973753D01*
X2294286Y44973753D02*
X2294286Y45116610D01*
X2294286Y45116610D02*
X2341905Y45307086D01*
X2341905Y45307086D02*
X2389524Y45402324D01*
X2389524Y45402324D02*
X2484762Y45497562D01*
X2484762Y45497562D02*
X2627619Y45545181D01*
X2627619Y45545181D02*
X2722857Y45545181D01*
X2722857Y45545181D02*
X2865714Y45497562D01*
X2865714Y45497562D02*
X2913333Y45449943D01*
X3865714Y44545181D02*
X3294286Y44545181D01*
X3580000Y44545181D02*
X3580000Y45545181D01*
X3580000Y45545181D02*
X3484762Y45402324D01*
X3484762Y45402324D02*
X3389524Y45307086D01*
X3389524Y45307086D02*
X3294286Y45259467D01*
D12*
X32457419Y26916667D02*
X33171704Y26916667D01*
X33171704Y26916667D02*
X33314561Y26869048D01*
X33314561Y26869048D02*
X33409800Y26773810D01*
X33409800Y26773810D02*
X33457419Y26630953D01*
X33457419Y26630953D02*
X33457419Y26535715D01*
X32457419Y27297620D02*
X32457419Y27964286D01*
X32457419Y27964286D02*
X33457419Y27535715D01*
D11*
X-30333334Y40045181D02*
X-30333334Y39330896D01*
X-30333334Y39330896D02*
X-30380953Y39188039D01*
X-30380953Y39188039D02*
X-30476191Y39092800D01*
X-30476191Y39092800D02*
X-30619048Y39045181D01*
X-30619048Y39045181D02*
X-30714286Y39045181D01*
X-29952381Y40045181D02*
X-29333334Y40045181D01*
X-29333334Y40045181D02*
X-29666667Y39664229D01*
X-29666667Y39664229D02*
X-29523810Y39664229D01*
X-29523810Y39664229D02*
X-29428572Y39616610D01*
X-29428572Y39616610D02*
X-29380953Y39568991D01*
X-29380953Y39568991D02*
X-29333334Y39473753D01*
X-29333334Y39473753D02*
X-29333334Y39235658D01*
X-29333334Y39235658D02*
X-29380953Y39140420D01*
X-29380953Y39140420D02*
X-29428572Y39092800D01*
X-29428572Y39092800D02*
X-29523810Y39045181D01*
X-29523810Y39045181D02*
X-29809524Y39045181D01*
X-29809524Y39045181D02*
X-29904762Y39092800D01*
X-29904762Y39092800D02*
X-29952381Y39140420D01*
D13*
%TO.C,J6*%
X-12781300Y21376700D02*
X-7218700Y21376700D01*
X-7218700Y38623300D02*
X-12781300Y38623300D01*
X-7218700Y21376700D02*
X-7218700Y38623300D01*
%TO.C,K4*%
X-11337000Y-4183000D02*
X-11337000Y-11437000D01*
X-11337000Y-4183000D02*
X-8370000Y-4183000D01*
X-11337000Y-11437000D02*
X-8370000Y-11437000D01*
X-750000Y-11437000D02*
X9317000Y-11437000D01*
X9317000Y-4183000D02*
X-750000Y-4183000D01*
X9317000Y-9586600D02*
X9317000Y-4183000D01*
X9317000Y-11437000D02*
X9317000Y-10733400D01*
%TO.C,U2*%
X-31626999Y-19372999D02*
X-31626999Y-26627001D01*
X-31626999Y-26627001D02*
X-18373001Y-26627001D01*
X-18373001Y-19372999D02*
X-31626999Y-19372999D01*
X-18373001Y-26627001D02*
X-18373001Y-19372999D01*
D14*
G36*
X-29889500Y-29216800D02*
G01*
X-30270500Y-29216800D01*
X-30270500Y-28962800D01*
X-29889500Y-28962800D01*
X-29889500Y-29216800D01*
G37*
D13*
%TO.C,J18*%
X-32781300Y1376700D02*
X-27218700Y1376700D01*
X-27218700Y18623300D02*
X-32781300Y18623300D01*
X-27218700Y1376700D02*
X-27218700Y18623300D01*
%TO.C,K5*%
X-11337000Y-11803000D02*
X-11337000Y-19057000D01*
X-11337000Y-11803000D02*
X-8370000Y-11803000D01*
X-11337000Y-19057000D02*
X-8370000Y-19057000D01*
X-750000Y-19057000D02*
X9317000Y-19057000D01*
X9317000Y-11803000D02*
X-750000Y-11803000D01*
X9317000Y-17206600D02*
X9317000Y-11803000D01*
X9317000Y-19057000D02*
X9317000Y-18353400D01*
D15*
%TO.C,J1*%
X-37695000Y35185000D02*
X-37000000Y35185000D01*
X-37695000Y34500000D02*
X-37695000Y35185000D01*
X-37695000Y33815000D02*
X-37695000Y24940000D01*
X-37695000Y33815000D02*
X-37608276Y33815000D01*
X-37695000Y24940000D02*
X-37394493Y24940000D01*
X-36605507Y24940000D02*
X-36305000Y24940000D01*
X-36391724Y33815000D02*
X-36305000Y33815000D01*
X-36305000Y33815000D02*
X-36305000Y24940000D01*
D13*
%TO.C,K6*%
X-11337000Y-19423000D02*
X-11337000Y-26677000D01*
X-11337000Y-19423000D02*
X-8370000Y-19423000D01*
X-11337000Y-26677000D02*
X-8370000Y-26677000D01*
X-750000Y-26677000D02*
X9317000Y-26677000D01*
X9317000Y-19423000D02*
X-750000Y-19423000D01*
X9317000Y-24826600D02*
X9317000Y-19423000D01*
X9317000Y-26677000D02*
X9317000Y-25973400D01*
%TO.C,K8*%
X-11337000Y-34663000D02*
X-11337000Y-41917000D01*
X-11337000Y-34663000D02*
X-8370000Y-34663000D01*
X-11337000Y-41917000D02*
X-8370000Y-41917000D01*
X-750000Y-41917000D02*
X9317000Y-41917000D01*
X9317000Y-34663000D02*
X-750000Y-34663000D01*
X9317000Y-40066600D02*
X9317000Y-34663000D01*
X9317000Y-41917000D02*
X9317000Y-41213400D01*
%TO.C,K1*%
X-11337000Y18677000D02*
X-11337000Y11423000D01*
X-11337000Y18677000D02*
X-8370000Y18677000D01*
X-11337000Y11423000D02*
X-8370000Y11423000D01*
X-750000Y11423000D02*
X9317000Y11423000D01*
X9317000Y18677000D02*
X-750000Y18677000D01*
X9317000Y13273400D02*
X9317000Y18677000D01*
X9317000Y11423000D02*
X9317000Y12126600D01*
D12*
%TO.C,J8*%
X33800000Y9150000D02*
X38400000Y9150000D01*
X33800000Y-26650000D02*
X33800000Y9150000D01*
X38400000Y-26650000D02*
X33800000Y-26650000D01*
D13*
%TO.C,K7*%
X-11337000Y-27043000D02*
X-11337000Y-34297000D01*
X-11337000Y-27043000D02*
X-8370000Y-27043000D01*
X-11337000Y-34297000D02*
X-8370000Y-34297000D01*
X-750000Y-34297000D02*
X9317000Y-34297000D01*
X9317000Y-27043000D02*
X-750000Y-27043000D01*
X9317000Y-32446600D02*
X9317000Y-27043000D01*
X9317000Y-34297000D02*
X9317000Y-33593400D01*
D15*
%TO.C,J20*%
X-37695000Y15185000D02*
X-37000000Y15185000D01*
X-37695000Y14500000D02*
X-37695000Y15185000D01*
X-37695000Y13815000D02*
X-37695000Y4940000D01*
X-37695000Y13815000D02*
X-37608276Y13815000D01*
X-37695000Y4940000D02*
X-37394493Y4940000D01*
X-36605507Y4940000D02*
X-36305000Y4940000D01*
X-36391724Y13815000D02*
X-36305000Y13815000D01*
X-36305000Y13815000D02*
X-36305000Y4940000D01*
%TO.C,C2*%
X-25510000Y-1140580D02*
X-25510000Y-859420D01*
X-24490000Y-1140580D02*
X-24490000Y-859420D01*
D13*
%TO.C,K3*%
X-11337000Y3437000D02*
X-11337000Y-3817000D01*
X-11337000Y3437000D02*
X-8370000Y3437000D01*
X-11337000Y-3817000D02*
X-8370000Y-3817000D01*
X-750000Y-3817000D02*
X9317000Y-3817000D01*
X9317000Y3437000D02*
X-750000Y3437000D01*
X9317000Y-1966600D02*
X9317000Y3437000D01*
X9317000Y-3817000D02*
X9317000Y-3113400D01*
%TO.C,U1*%
X-29377000Y-5073001D02*
X-29377000Y-10926999D01*
X-29377000Y-10926999D02*
X-28773640Y-10926999D01*
X-28773638Y-5073001D02*
X-29377000Y-5073001D01*
X-19226360Y-10926999D02*
X-18623000Y-10926999D01*
X-18623000Y-5073001D02*
X-19226360Y-5073001D01*
X-18623000Y-10926999D02*
X-18623000Y-5073001D01*
D14*
G36*
X-25434498Y-3290398D02*
G01*
X-25815498Y-3290398D01*
X-25815498Y-3036398D01*
X-25434498Y-3036398D01*
X-25434498Y-3290398D01*
G37*
G36*
X-24784499Y-12963602D02*
G01*
X-25165499Y-12963602D01*
X-25165499Y-12709602D01*
X-24784499Y-12709602D01*
X-24784499Y-12963602D01*
G37*
D13*
%TO.C,K2*%
X-11337000Y11057000D02*
X-11337000Y3803000D01*
X-11337000Y11057000D02*
X-8370000Y11057000D01*
X-11337000Y3803000D02*
X-8370000Y3803000D01*
X-750000Y3803000D02*
X9317000Y3803000D01*
X9317000Y11057000D02*
X-750000Y11057000D01*
X9317000Y5653400D02*
X9317000Y11057000D01*
X9317000Y3803000D02*
X9317000Y4506600D01*
D15*
%TO.C,C1*%
X-838748Y46710000D02*
X-3161252Y46710000D01*
X-838748Y43290000D02*
X-3161252Y43290000D01*
D12*
%TO.C,J7*%
X33800000Y45150000D02*
X38400000Y45150000D01*
X33800000Y9350000D02*
X33800000Y45150000D01*
X38400000Y9350000D02*
X33800000Y9350000D01*
D13*
%TO.C,J3*%
X-32781300Y21376700D02*
X-27218700Y21376700D01*
X-27218700Y38623300D02*
X-32781300Y38623300D01*
X-27218700Y21376700D02*
X-27218700Y38623300D01*
%TD*%
M02*
