<?xml version="1.0" standalone="no"?>
 <!DOCTYPE svg PUBLIC "-//W3C//DTD SVG 1.1//EN" 
 "http://www.w3.org/Graphics/SVG/1.1/DTD/svg11.dtd"> 
<svg
  xmlns:svg="http://www.w3.org/2000/svg"
  xmlns="http://www.w3.org/2000/svg"
  xmlns:xlink="http://www.w3.org/1999/xlink"
  version="1.1"
  width="297.0022mm" height="210.0072mm" viewBox="0.0000 0.0000 297.0022 210.0072">
<title>SVG Image created as PMCNV-RQ8-PTH-drl_map.svg date 2025/10/31 12:59:57 </title>
  <desc>Image generated by PCBNEW </desc>
<g style="fill:#000000; fill-opacity:1.0000;stroke:#000000; stroke-opacity:1.0000;
stroke-linecap:round; stroke-linejoin:round;"
 transform="translate(0 0) scale(1 1)">
</g>
<g style="fill:none; 
stroke:#000000; stroke-width:0.2315; stroke-opacity:1; 
stroke-linecap:round; stroke-linejoin:round;">
<path d="M169.3402 120.8885
L178.6020 120.8885
" />
<path d="M191.3370 118.5731 A3.4732 3.4732 0.0 0 0 194.8102 115.0999" />
<path d="M179.7597 6.2735 A1.1577 1.1577 0.0 0 0 180.9175 7.4312" />
<path d="M191.3370 7.4312
L180.9175 7.4312
" />
<path d="M102.1920 116.2576 A4.6309 4.6309 0.0 0 0 110.8334 118.5731" />
<path d="M110.8437 7.4312
L167.0247 7.4312
" />
</g>
<g style="fill:none; 
stroke:#000000; stroke-width:0.0579; stroke-opacity:1; 
stroke-linecap:round; stroke-linejoin:round;">
<path d="M145.0279 112.7845
L145.0279 39.8476
" />
</g>
<g style="fill:none; 
stroke:#000000; stroke-width:0.2315; stroke-opacity:1; 
stroke-linecap:round; stroke-linejoin:round;">
<path d="M194.8102 10.9044 A3.4732 3.4732 0.0 0 0 191.3370 7.4312" />
</g>
<g style="fill:none; 
stroke:#000000; stroke-width:0.0579; stroke-opacity:1; 
stroke-linecap:round; stroke-linejoin:round;">
<path d="M145.0279 39.8476 A1.7366 1.7366 0.0 0 0 141.5547 39.8476" />
</g>
<g style="fill:none; 
stroke:#000000; stroke-width:0.2315; stroke-opacity:1; 
stroke-linecap:round; stroke-linejoin:round;">
<path d="M194.8102 10.9044
L194.8102 115.0999
" />
</g>
<g style="fill:none; 
stroke:#000000; stroke-width:0.0579; stroke-opacity:1; 
stroke-linecap:round; stroke-linejoin:round;">
<path d="M141.5547 112.7845 A1.7366 1.7366 0.0 0 0 145.0279 112.7845" />
</g>
<g style="fill:none; 
stroke:#000000; stroke-width:0.2315; stroke-opacity:1; 
stroke-linecap:round; stroke-linejoin:round;">
<path d="M168.1825 119.7308 A1.1577 1.1577 0.0 0 0 167.0247 118.5731" />
<path d="M179.7597 6.2735 A1.1577 1.1577 0.0 0 0 178.6020 5.1158" />
<path d="M180.9175 118.5731
L191.3370 118.5731
" />
<path d="M178.6020 120.8885 A1.1577 1.1577 0.0 0 0 179.7597 119.7308" />
<path d="M180.9175 118.5731 A1.1577 1.1577 0.0 0 0 179.7597 119.7308" />
<path d="M110.8359 7.4357 A4.6309 4.6309 0.0 0 0 106.8229 5.1158" />
<path d="M167.0247 118.5731
L110.8334 118.5731
" />
<path d="M102.1920 9.7467
L102.1920 116.2576
" />
<path d="M168.1825 119.7308 A1.1577 1.1577 0.0 0 0 169.3402 120.8885" />
<path d="M106.8229 5.1158 A4.6309 4.6309 0.0 0 0 102.1920 9.7467" />
<path d="M167.0247 7.4312 A1.1577 1.1577 0.0 0 0 168.1825 6.2735" />
</g>
<g style="fill:none; 
stroke:#000000; stroke-width:0.0579; stroke-opacity:1; 
stroke-linecap:round; stroke-linejoin:round;">
<path d="M141.5547 39.8476
L141.5547 112.7845
" />
</g>
<g style="fill:none; 
stroke:#000000; stroke-width:0.2315; stroke-opacity:1; 
stroke-linecap:round; stroke-linejoin:round;">
<path d="M169.3402 5.1158 A1.1577 1.1577 0.0 0 0 168.1825 6.2735" />
<path d="M178.6020 5.1158
L169.3402 5.1158
" />
</g>
<g style="fill:none; 
stroke:#000000; stroke-width:0.0579; stroke-opacity:1; 
stroke-linecap:round; stroke-linejoin:round;">
<circle cx="105.6652" cy="17.8508" r="1.2735" /> 
<circle cx="105.6652" cy="108.1535" r="1.2735" /> 
<circle cx="138.0816" cy="10.9044" r="1.2735" /> 
<circle cx="138.0816" cy="115.0999" r="1.2735" /> 
<circle cx="165.8670" cy="10.9044" r="1.2735" /> 
<circle cx="165.8670" cy="115.0999" r="1.2735" /> 
<circle cx="182.0752" cy="10.9044" r="1.2735" /> 
<circle cx="182.0752" cy="115.0999" r="1.2735" /> 
<circle cx="106.8229" cy="9.7467" r="1.8524" /> 
<circle cx="173.9711" cy="9.7467" r="1.8524" /> 
<circle cx="106.8229" cy="116.2576" r="1.8524" /> 
</g>
<g style="fill:none; 
stroke:#000000; stroke-width:0.1158; stroke-opacity:1; 
stroke-linecap:round; stroke-linejoin:round;">
<path d="M103.6970 13.5672
L104.1601 14.0303
" />
<path d="M104.1601 13.5672
L103.6970 14.0303
" />
<path d="M103.6970 100.9756
L104.1601 101.4387
" />
<path d="M104.1601 100.9756
L103.6970 101.4387
" />
<path d="M103.6970 103.2911
L104.1601 103.7542
" />
<path d="M104.1601 103.2911
L103.6970 103.7542
" />
<path d="M104.8548 102.1334
L105.3179 102.5964
" />
<path d="M105.3179 102.1334
L104.8548 102.5964
" />
<path d="M105.4336 13.5672
L105.8967 14.0303
" />
<path d="M105.8967 13.5672
L105.4336 14.0303
" />
<path d="M106.0125 100.9756
L106.4756 101.4387
" />
<path d="M106.4756 100.9756
L106.0125 101.4387
" />
<path d="M106.0125 103.2911
L106.4756 103.7542
" />
<path d="M106.4756 103.2911
L106.0125 103.7542
" />
<path d="M106.5914 56.4031
L107.0544 56.8662
" />
<path d="M107.0544 56.4031
L106.5914 56.8662
" />
<path d="M107.7491 28.6176
L108.2122 29.0807
" />
<path d="M108.2122 28.6176
L107.7491 29.0807
" />
<path d="M107.7491 29.7754
L108.2122 30.2385
" />
<path d="M108.2122 29.7754
L107.7491 30.2385
" />
<path d="M107.7491 30.9331
L108.2122 31.3962
" />
<path d="M108.2122 30.9331
L107.7491 31.3962
" />
<path d="M107.7491 32.0908
L108.2122 32.5539
" />
<path d="M108.2122 32.0908
L107.7491 32.5539
" />
<path d="M107.7491 33.2486
L108.2122 33.7116
" />
<path d="M108.2122 33.2486
L107.7491 33.7116
" />
<path d="M107.7491 34.4063
L108.2122 34.8694
" />
<path d="M108.2122 34.4063
L107.7491 34.8694
" />
<path d="M107.7491 35.5640
L108.2122 36.0271
" />
<path d="M108.2122 35.5640
L107.7491 36.0271
" />
<path d="M107.7491 36.7217
L108.2122 37.1848
" />
<path d="M108.2122 36.7217
L107.7491 37.1848
" />
<path d="M107.7491 37.8795
L108.2122 38.3426
" />
<path d="M108.2122 37.8795
L107.7491 38.3426
" />
<path d="M107.7491 39.0372
L108.2122 39.5003
" />
<path d="M108.2122 39.0372
L107.7491 39.5003
" />
<path d="M107.7491 40.1949
L108.2122 40.6580
" />
<path d="M108.2122 40.1949
L107.7491 40.6580
" />
<path d="M107.7491 41.3527
L108.2122 41.8157
" />
<path d="M108.2122 41.3527
L107.7491 41.8157
" />
<path d="M107.7491 42.5104
L108.2122 42.9735
" />
<path d="M108.2122 42.5104
L107.7491 42.9735
" />
<path d="M107.7491 43.6681
L108.2122 44.1312
" />
<path d="M108.2122 43.6681
L107.7491 44.1312
" />
<path d="M107.7491 44.8258
L108.2122 45.2889
" />
<path d="M108.2122 44.8258
L107.7491 45.2889
" />
<path d="M107.7491 45.9836
L108.2122 46.4467
" />
<path d="M108.2122 45.9836
L107.7491 46.4467
" />
<path d="M107.7491 47.1413
L108.2122 47.6044
" />
<path d="M108.2122 47.1413
L107.7491 47.6044
" />
<path d="M107.7491 48.2990
L108.2122 48.7621
" />
<path d="M108.2122 48.2990
L107.7491 48.7621
" />
<path d="M107.7491 49.4567
L108.2122 49.9198
" />
<path d="M108.2122 49.4567
L107.7491 49.9198
" />
<path d="M107.7491 50.6145
L108.2122 51.0776
" />
<path d="M108.2122 50.6145
L107.7491 51.0776
" />
<path d="M107.7491 56.4031
L108.2122 56.8662
" />
<path d="M108.2122 56.4031
L107.7491 56.8662
" />
<path d="M108.9068 30.9331
L109.3699 31.3962
" />
<path d="M109.3699 30.9331
L108.9068 31.3962
" />
<path d="M108.9068 32.0908
L109.3699 32.5539
" />
<path d="M109.3699 32.0908
L108.9068 32.5539
" />
<path d="M108.9068 33.2486
L109.3699 33.7116
" />
<path d="M109.3699 33.2486
L108.9068 33.7116
" />
<path d="M108.9068 34.4063
L109.3699 34.8694
" />
<path d="M109.3699 34.4063
L108.9068 34.8694
" />
<path d="M108.9068 56.4031
L109.3699 56.8662
" />
<path d="M109.3699 56.4031
L108.9068 56.8662
" />
<path d="M110.0645 30.9331
L110.5276 31.3962
" />
<path d="M110.5276 30.9331
L110.0645 31.3962
" />
<path d="M110.0645 32.0908
L110.5276 32.5539
" />
<path d="M110.5276 32.0908
L110.0645 32.5539
" />
<path d="M110.0645 33.2486
L110.5276 33.7116
" />
<path d="M110.5276 33.2486
L110.0645 33.7116
" />
<path d="M110.0645 34.4063
L110.5276 34.8694
" />
<path d="M110.5276 34.4063
L110.0645 34.8694
" />
<path d="M110.0645 56.4031
L110.5276 56.8662
" />
<path d="M110.5276 56.4031
L110.0645 56.8662
" />
<path d="M111.2223 23.9867
L111.6854 24.4498
" />
<path d="M111.6854 23.9867
L111.2223 24.4498
" />
<path d="M111.2223 25.1445
L111.6854 25.6076
" />
<path d="M111.6854 25.1445
L111.2223 25.6076
" />
<path d="M111.2223 26.3022
L111.6854 26.7653
" />
<path d="M111.6854 26.3022
L111.2223 26.7653
" />
<path d="M111.2223 27.4599
L111.6854 27.9230
" />
<path d="M111.6854 27.4599
L111.2223 27.9230
" />
<path d="M115.8532 45.9836
L116.3163 46.4467
" />
<path d="M116.3163 45.9836
L115.8532 46.4467
" />
<path d="M115.8532 51.7722
L116.3163 52.2353
" />
<path d="M116.3163 51.7722
L115.8532 52.2353
" />
<path d="M118.1686 57.5608
L118.6317 58.0239
" />
<path d="M118.6317 57.5608
L118.1686 58.0239
" />
<path d="M119.0659 68.8776
L119.5290 69.3407
" />
<path d="M119.5290 68.8776
L119.0659 69.3407
" />
<path d="M119.0659 51.1933
L119.5290 51.6564
" />
<path d="M119.5290 51.1933
L119.0659 51.6564
" />
<path d="M119.9342 70.8747
L120.3973 71.3378
" />
<path d="M120.3973 70.8747
L119.9342 71.3378
" />
<path d="M120.1947 74.9268
L120.6577 75.3898
" />
<path d="M120.6577 74.9268
L120.1947 75.3898
" />
<path d="M120.4841 48.2990
L120.9472 48.7621
" />
<path d="M120.9472 48.2990
L120.4841 48.7621
" />
<path d="M121.6418 34.9851
L122.1049 35.4482
" />
<path d="M122.1049 34.9851
L121.6418 35.4482
" />
<path d="M122.7995 66.2438
L123.2626 66.7069
" />
<path d="M123.2626 66.2438
L122.7995 66.7069
" />
<path d="M124.5361 19.9347
L124.9992 20.3978
" />
<path d="M124.9992 19.9347
L124.5361 20.3978
" />
<path d="M126.8516 17.0404
L127.3147 17.5035
" />
<path d="M127.3147 17.0404
L126.8516 17.5035
" />
<path d="M134.3768 21.6713
L134.8399 22.1344
" />
<path d="M134.8399 21.6713
L134.3768 22.1344
" />
<path d="M134.3768 33.2486
L134.8399 33.7116
" />
<path d="M134.8399 33.2486
L134.3768 33.7116
" />
<path d="M135.5345 21.6713
L135.9976 22.1344
" />
<path d="M135.9976 21.6713
L135.5345 22.1344
" />
<path d="M136.6923 21.6713
L137.1554 22.1344
" />
<path d="M137.1554 21.6713
L136.6923 22.1344
" />
<circle cx="151.9743" cy="19.0085" r="0.5789" /> 
<circle cx="151.9743" cy="24.8898" r="0.5789" /> 
<circle cx="151.9743" cy="30.7710" r="0.5789" /> 
<circle cx="151.9743" cy="33.7116" r="0.5789" /> 
</g>
<g style="fill:none; 
stroke:#000000; stroke-width:0.1274; stroke-opacity:1; 
stroke-linecap:round; stroke-linejoin:round;">
<path d="M136.7386 42.2209
L136.7386 43.4944
" />
<path d="M136.1018 42.8577
L137.3753 42.8577
" />
<path d="M136.7386 47.6623
L136.7386 48.9358
" />
<path d="M136.1018 48.2990
L137.3753 48.2990
" />
<path d="M136.7386 51.0428
L136.7386 52.3163
" />
<path d="M136.1018 51.6796
L137.3753 51.6796
" />
<path d="M136.7386 56.4842
L136.7386 57.7577
" />
<path d="M136.1018 57.1209
L137.3753 57.1209
" />
<path d="M136.7386 59.8647
L136.7386 61.1382
" />
<path d="M136.1018 60.5015
L137.3753 60.5015
" />
<path d="M136.7386 65.3060
L136.7386 66.5795
" />
<path d="M136.1018 65.9428
L137.3753 65.9428
" />
<path d="M136.7386 68.6866
L136.7386 69.9601
" />
<path d="M136.1018 69.3234
L137.3753 69.3234
" />
<path d="M136.7386 74.1279
L136.7386 75.4014
" />
<path d="M136.1018 74.7647
L137.3753 74.7647
" />
<path d="M136.7386 77.5085
L136.7386 78.7820
" />
<path d="M136.1018 78.1452
L137.3753 78.1452
" />
<path d="M136.7386 82.9498
L136.7386 84.2233
" />
<path d="M136.1018 83.5866
L137.3753 83.5866
" />
<path d="M136.7386 86.3304
L136.7386 87.6039
" />
<path d="M136.1018 86.9671
L137.3753 86.9671
" />
<path d="M136.7386 91.7717
L136.7386 93.0452
" />
<path d="M136.1018 92.4084
L137.3753 92.4084
" />
<path d="M136.7386 95.1523
L136.7386 96.4258
" />
<path d="M136.1018 95.7890
L137.3753 95.7890
" />
<path d="M136.7386 100.5936
L136.7386 101.8671
" />
<path d="M136.1018 101.2303
L137.3753 101.2303
" />
<path d="M136.7386 103.9741
L136.7386 105.2476
" />
<path d="M136.1018 104.6109
L137.3753 104.6109
" />
<path d="M136.7386 109.4155
L136.7386 110.6890
" />
<path d="M136.1018 110.0522
L137.3753 110.0522
" />
<path d="M150.0525 47.6623
L150.0525 48.9358
" />
<path d="M149.4157 48.2990
L150.6892 48.2990
" />
<path d="M150.0525 56.4842
L150.0525 57.7577
" />
<path d="M149.4157 57.1209
L150.6892 57.1209
" />
<path d="M150.0525 65.3060
L150.0525 66.5795
" />
<path d="M149.4157 65.9428
L150.6892 65.9428
" />
<path d="M150.0525 74.1279
L150.0525 75.4014
" />
<path d="M149.4157 74.7647
L150.6892 74.7647
" />
<path d="M150.0525 82.9498
L150.0525 84.2233
" />
<path d="M149.4157 83.5866
L150.6892 83.5866
" />
<path d="M150.0525 91.7717
L150.0525 93.0452
" />
<path d="M149.4157 92.4084
L150.6892 92.4084
" />
<path d="M150.0525 100.5936
L150.0525 101.8671
" />
<path d="M149.4157 101.2303
L150.6892 101.2303
" />
<path d="M150.0525 109.4155
L150.0525 110.6890
" />
<path d="M149.4157 110.0522
L150.6892 110.0522
" />
<path d="M158.1565 47.6623
L158.1565 48.9358
" />
<path d="M157.5198 48.2990
L158.7933 48.2990
" />
<path d="M158.1565 56.4842
L158.1565 57.7577
" />
<path d="M157.5198 57.1209
L158.7933 57.1209
" />
<path d="M158.1565 65.3060
L158.1565 66.5795
" />
<path d="M157.5198 65.9428
L158.7933 65.9428
" />
<path d="M158.1565 74.1279
L158.1565 75.4014
" />
<path d="M157.5198 74.7647
L158.7933 74.7647
" />
<path d="M158.1565 82.9498
L158.1565 84.2233
" />
<path d="M157.5198 83.5866
L158.7933 83.5866
" />
<path d="M158.1565 91.7717
L158.1565 93.0452
" />
<path d="M157.5198 92.4084
L158.7933 92.4084
" />
<path d="M158.1565 100.5936
L158.1565 101.8671
" />
<path d="M157.5198 101.2303
L158.7933 101.2303
" />
<path d="M158.1565 109.4155
L158.1565 110.6890
" />
<path d="M157.5198 110.0522
L158.7933 110.0522
" />
<path style="fill:none; 
stroke:#000000; stroke-width:0.1621; stroke-opacity:1; 
stroke-linecap:round; stroke-linejoin:round;fill:none"
d="M 189.5946,13.7929
189.5946,12.6468
188.4485,12.6468
188.4485,13.7929
Z" /> 
<path style="fill:none; 
stroke:#000000; stroke-width:0.1621; stroke-opacity:1; 
stroke-linecap:round; stroke-linejoin:round;fill:none"
d="M 189.5946,17.8450
189.5946,16.6989
188.4485,16.6989
188.4485,17.8450
Z" /> 
<path style="fill:none; 
stroke:#000000; stroke-width:0.1621; stroke-opacity:1; 
stroke-linecap:round; stroke-linejoin:round;fill:none"
d="M 189.5946,21.8970
189.5946,20.7509
188.4485,20.7509
188.4485,21.8970
Z" /> 
<path style="fill:none; 
stroke:#000000; stroke-width:0.1621; stroke-opacity:1; 
stroke-linecap:round; stroke-linejoin:round;fill:none"
d="M 189.5946,25.9491
189.5946,24.8030
188.4485,24.8030
188.4485,25.9491
Z" /> 
<path style="fill:none; 
stroke:#000000; stroke-width:0.1621; stroke-opacity:1; 
stroke-linecap:round; stroke-linejoin:round;fill:none"
d="M 189.5946,30.0011
189.5946,28.8550
188.4485,28.8550
188.4485,30.0011
Z" /> 
<path style="fill:none; 
stroke:#000000; stroke-width:0.1621; stroke-opacity:1; 
stroke-linecap:round; stroke-linejoin:round;fill:none"
d="M 189.5946,35.2109
189.5946,34.0648
188.4485,34.0648
188.4485,35.2109
Z" /> 
<path style="fill:none; 
stroke:#000000; stroke-width:0.1621; stroke-opacity:1; 
stroke-linecap:round; stroke-linejoin:round;fill:none"
d="M 189.5946,39.2629
189.5946,38.1168
188.4485,38.1168
188.4485,39.2629
Z" /> 
<path style="fill:none; 
stroke:#000000; stroke-width:0.1621; stroke-opacity:1; 
stroke-linecap:round; stroke-linejoin:round;fill:none"
d="M 189.5946,43.3150
189.5946,42.1689
188.4485,42.1689
188.4485,43.3150
Z" /> 
<path style="fill:none; 
stroke:#000000; stroke-width:0.1621; stroke-opacity:1; 
stroke-linecap:round; stroke-linejoin:round;fill:none"
d="M 189.5946,47.3670
189.5946,46.2209
188.4485,46.2209
188.4485,47.3670
Z" /> 
<path style="fill:none; 
stroke:#000000; stroke-width:0.1621; stroke-opacity:1; 
stroke-linecap:round; stroke-linejoin:round;fill:none"
d="M 189.5946,51.4191
189.5946,50.2730
188.4485,50.2730
188.4485,51.4191
Z" /> 
<path style="fill:none; 
stroke:#000000; stroke-width:0.1621; stroke-opacity:1; 
stroke-linecap:round; stroke-linejoin:round;fill:none"
d="M 189.5946,55.4711
189.5946,54.3250
188.4485,54.3250
188.4485,55.4711
Z" /> 
<path style="fill:none; 
stroke:#000000; stroke-width:0.1621; stroke-opacity:1; 
stroke-linecap:round; stroke-linejoin:round;fill:none"
d="M 189.5946,59.5232
189.5946,58.3771
188.4485,58.3771
188.4485,59.5232
Z" /> 
<path style="fill:none; 
stroke:#000000; stroke-width:0.1621; stroke-opacity:1; 
stroke-linecap:round; stroke-linejoin:round;fill:none"
d="M 189.5946,63.5752
189.5946,62.4291
188.4485,62.4291
188.4485,63.5752
Z" /> 
<path style="fill:none; 
stroke:#000000; stroke-width:0.1621; stroke-opacity:1; 
stroke-linecap:round; stroke-linejoin:round;fill:none"
d="M 189.5946,67.6273
189.5946,66.4812
188.4485,66.4812
188.4485,67.6273
Z" /> 
<path style="fill:none; 
stroke:#000000; stroke-width:0.1621; stroke-opacity:1; 
stroke-linecap:round; stroke-linejoin:round;fill:none"
d="M 189.5946,71.6793
189.5946,70.5332
188.4485,70.5332
188.4485,71.6793
Z" /> 
<path style="fill:none; 
stroke:#000000; stroke-width:0.1621; stroke-opacity:1; 
stroke-linecap:round; stroke-linejoin:round;fill:none"
d="M 189.5946,76.8891
189.5946,75.7430
188.4485,75.7430
188.4485,76.8891
Z" /> 
<path style="fill:none; 
stroke:#000000; stroke-width:0.1621; stroke-opacity:1; 
stroke-linecap:round; stroke-linejoin:round;fill:none"
d="M 189.5946,80.9411
189.5946,79.7950
188.4485,79.7950
188.4485,80.9411
Z" /> 
<path style="fill:none; 
stroke:#000000; stroke-width:0.1621; stroke-opacity:1; 
stroke-linecap:round; stroke-linejoin:round;fill:none"
d="M 189.5946,84.9932
189.5946,83.8471
188.4485,83.8471
188.4485,84.9932
Z" /> 
<path style="fill:none; 
stroke:#000000; stroke-width:0.1621; stroke-opacity:1; 
stroke-linecap:round; stroke-linejoin:round;fill:none"
d="M 189.5946,89.0452
189.5946,87.8991
188.4485,87.8991
188.4485,89.0452
Z" /> 
<path style="fill:none; 
stroke:#000000; stroke-width:0.1621; stroke-opacity:1; 
stroke-linecap:round; stroke-linejoin:round;fill:none"
d="M 189.5946,93.0973
189.5946,91.9512
188.4485,91.9512
188.4485,93.0973
Z" /> 
<path style="fill:none; 
stroke:#000000; stroke-width:0.1621; stroke-opacity:1; 
stroke-linecap:round; stroke-linejoin:round;fill:none"
d="M 189.5946,97.1493
189.5946,96.0032
188.4485,96.0032
188.4485,97.1493
Z" /> 
<path style="fill:none; 
stroke:#000000; stroke-width:0.1621; stroke-opacity:1; 
stroke-linecap:round; stroke-linejoin:round;fill:none"
d="M 189.5946,101.2014
189.5946,100.0553
188.4485,100.0553
188.4485,101.2014
Z" /> 
<path style="fill:none; 
stroke:#000000; stroke-width:0.1621; stroke-opacity:1; 
stroke-linecap:round; stroke-linejoin:round;fill:none"
d="M 189.5946,105.2534
189.5946,104.1073
188.4485,104.1073
188.4485,105.2534
Z" /> 
<path style="fill:none; 
stroke:#000000; stroke-width:0.1621; stroke-opacity:1; 
stroke-linecap:round; stroke-linejoin:round;fill:none"
d="M 189.5946,109.3055
189.5946,108.1594
188.4485,108.1594
188.4485,109.3055
Z" /> 
<path style="fill:none; 
stroke:#000000; stroke-width:0.1621; stroke-opacity:1; 
stroke-linecap:round; stroke-linejoin:round;fill:none"
d="M 189.5946,113.3575
189.5946,112.2114
188.4485,112.2114
188.4485,113.3575
Z" /> 
<path style="fill:none; 
stroke:#000000; stroke-width:0.3705; stroke-opacity:1; 
stroke-linecap:round; stroke-linejoin:round;fill:none"
d="M 173.9711,118.1100
175.8235,116.2576
173.9711,114.4053
172.1187,116.2576
Z" /> 
</g>
<g style="fill:none; 
stroke:#000000; stroke-width:0.2000; stroke-opacity:1; 
stroke-linecap:round; stroke-linejoin:round;">
<text x="104.0762" y="124.2043"
textLength="14.8667" font-size="2.6667" lengthAdjust="spacingAndGlyphs"
text-anchor="start" opacity="0" stroke-opacity="0">Drill Map:</text>
<g class="stroked-text"><desc>Drill Map:</desc>
<path d="M104.6840 124.1192
L104.6840 122.1192
" />
<path d="M104.6840 122.1192
L105.1602 122.1192
" />
<path d="M105.1602 122.1192
L105.4459 122.2144
" />
<path d="M105.4459 122.2144
L105.6364 122.4049
" />
<path d="M105.6364 122.4049
L105.7316 122.5953
" />
<path d="M105.7316 122.5953
L105.8268 122.9763
" />
<path d="M105.8268 122.9763
L105.8268 123.2620
" />
<path d="M105.8268 123.2620
L105.7316 123.6430
" />
<path d="M105.7316 123.6430
L105.6364 123.8334
" />
<path d="M105.6364 123.8334
L105.4459 124.0239
" />
<path d="M105.4459 124.0239
L105.1602 124.1192
" />
<path d="M105.1602 124.1192
L104.6840 124.1192
" />
<path d="M106.6840 124.1192
L106.6840 122.7858
" />
<path d="M106.6840 123.1668
L106.7792 122.9763
" />
<path d="M106.7792 122.9763
L106.8745 122.8811
" />
<path d="M106.8745 122.8811
L107.0649 122.7858
" />
<path d="M107.0649 122.7858
L107.2554 122.7858
" />
<path d="M107.9221 124.1192
L107.9221 122.7858
" />
<path d="M107.9221 122.1192
L107.8268 122.2144
" />
<path d="M107.8268 122.2144
L107.9221 122.3096
" />
<path d="M107.9221 122.3096
L108.0173 122.2144
" />
<path d="M108.0173 122.2144
L107.9221 122.1192
" />
<path d="M107.9221 122.1192
L107.9221 122.3096
" />
<path d="M109.1602 124.1192
L108.9697 124.0239
" />
<path d="M108.9697 124.0239
L108.8745 123.8334
" />
<path d="M108.8745 123.8334
L108.8745 122.1192
" />
<path d="M110.2078 124.1192
L110.0173 124.0239
" />
<path d="M110.0173 124.0239
L109.9221 123.8334
" />
<path d="M109.9221 123.8334
L109.9221 122.1192
" />
<path d="M112.4935 124.1192
L112.4935 122.1192
" />
<path d="M112.4935 122.1192
L113.1602 123.5477
" />
<path d="M113.1602 123.5477
L113.8268 122.1192
" />
<path d="M113.8268 122.1192
L113.8268 124.1192
" />
<path d="M115.6364 124.1192
L115.6364 123.0715
" />
<path d="M115.6364 123.0715
L115.5411 122.8811
" />
<path d="M115.5411 122.8811
L115.3507 122.7858
" />
<path d="M115.3507 122.7858
L114.9697 122.7858
" />
<path d="M114.9697 122.7858
L114.7792 122.8811
" />
<path d="M115.6364 124.0239
L115.4459 124.1192
" />
<path d="M115.4459 124.1192
L114.9697 124.1192
" />
<path d="M114.9697 124.1192
L114.7792 124.0239
" />
<path d="M114.7792 124.0239
L114.6840 123.8334
" />
<path d="M114.6840 123.8334
L114.6840 123.6430
" />
<path d="M114.6840 123.6430
L114.7792 123.4525
" />
<path d="M114.7792 123.4525
L114.9697 123.3573
" />
<path d="M114.9697 123.3573
L115.4459 123.3573
" />
<path d="M115.4459 123.3573
L115.6364 123.2620
" />
<path d="M116.5887 122.7858
L116.5887 124.7858
" />
<path d="M116.5887 122.8811
L116.7792 122.7858
" />
<path d="M116.7792 122.7858
L117.1602 122.7858
" />
<path d="M117.1602 122.7858
L117.3507 122.8811
" />
<path d="M117.3507 122.8811
L117.4459 122.9763
" />
<path d="M117.4459 122.9763
L117.5411 123.1668
" />
<path d="M117.5411 123.1668
L117.5411 123.7382
" />
<path d="M117.5411 123.7382
L117.4459 123.9287
" />
<path d="M117.4459 123.9287
L117.3507 124.0239
" />
<path d="M117.3507 124.0239
L117.1602 124.1192
" />
<path d="M117.1602 124.1192
L116.7792 124.1192
" />
<path d="M116.7792 124.1192
L116.5887 124.0239
" />
<path d="M118.3983 123.9287
L118.4935 124.0239
" />
<path d="M118.4935 124.0239
L118.3983 124.1192
" />
<path d="M118.3983 124.1192
L118.3030 124.0239
" />
<path d="M118.3030 124.0239
L118.3983 123.9287
" />
<path d="M118.3983 123.9287
L118.3983 124.1192
" />
<path d="M118.3983 122.8811
L118.4935 122.9763
" />
<path d="M118.4935 122.9763
L118.3983 123.0715
" />
<path d="M118.3983 123.0715
L118.3030 122.9763
" />
<path d="M118.3030 122.9763
L118.3983 122.8811
" />
<path d="M118.3983 122.8811
L118.3983 123.0715
" />
</g></g>
<g style="fill:none; 
stroke:#000000; stroke-width:0.1158; stroke-opacity:1; 
stroke-linecap:round; stroke-linejoin:round;">
<path d="M101.6131 127.1728
L102.0762 127.6359
" />
<path d="M102.0762 127.1728
L101.6131 127.6359
" />
</g>
<g style="fill:none; 
stroke:#000000; stroke-width:0.2000; stroke-opacity:1; 
stroke-linecap:round; stroke-linejoin:round;">
<text x="104.0762" y="128.4043"
textLength="48.7714" font-size="2.6667" lengthAdjust="spacingAndGlyphs"
text-anchor="start" opacity="0" stroke-opacity="0">0.400mm / 0.0157" (59 holes)</text>
<g class="stroked-text"><desc>0.400mm / 0.0157" (59 holes)</desc>
<path d="M105.0649 126.3192
L105.2554 126.3192
" />
<path d="M105.2554 126.3192
L105.4459 126.4144
" />
<path d="M105.4459 126.4144
L105.5411 126.5096
" />
<path d="M105.5411 126.5096
L105.6364 126.7001
" />
<path d="M105.6364 126.7001
L105.7316 127.0811
" />
<path d="M105.7316 127.0811
L105.7316 127.5573
" />
<path d="M105.7316 127.5573
L105.6364 127.9382
" />
<path d="M105.6364 127.9382
L105.5411 128.1287
" />
<path d="M105.5411 128.1287
L105.4459 128.2239
" />
<path d="M105.4459 128.2239
L105.2554 128.3192
" />
<path d="M105.2554 128.3192
L105.0649 128.3192
" />
<path d="M105.0649 128.3192
L104.8745 128.2239
" />
<path d="M104.8745 128.2239
L104.7792 128.1287
" />
<path d="M104.7792 128.1287
L104.6840 127.9382
" />
<path d="M104.6840 127.9382
L104.5887 127.5573
" />
<path d="M104.5887 127.5573
L104.5887 127.0811
" />
<path d="M104.5887 127.0811
L104.6840 126.7001
" />
<path d="M104.6840 126.7001
L104.7792 126.5096
" />
<path d="M104.7792 126.5096
L104.8745 126.4144
" />
<path d="M104.8745 126.4144
L105.0649 126.3192
" />
<path d="M106.5887 128.1287
L106.6840 128.2239
" />
<path d="M106.6840 128.2239
L106.5887 128.3192
" />
<path d="M106.5887 128.3192
L106.4935 128.2239
" />
<path d="M106.4935 128.2239
L106.5887 128.1287
" />
<path d="M106.5887 128.1287
L106.5887 128.3192
" />
<path d="M108.3983 126.9858
L108.3983 128.3192
" />
<path d="M107.9221 126.2239
L107.4459 127.6525
" />
<path d="M107.4459 127.6525
L108.6840 127.6525
" />
<path d="M109.8268 126.3192
L110.0173 126.3192
" />
<path d="M110.0173 126.3192
L110.2078 126.4144
" />
<path d="M110.2078 126.4144
L110.3030 126.5096
" />
<path d="M110.3030 126.5096
L110.3983 126.7001
" />
<path d="M110.3983 126.7001
L110.4935 127.0811
" />
<path d="M110.4935 127.0811
L110.4935 127.5573
" />
<path d="M110.4935 127.5573
L110.3983 127.9382
" />
<path d="M110.3983 127.9382
L110.3030 128.1287
" />
<path d="M110.3030 128.1287
L110.2078 128.2239
" />
<path d="M110.2078 128.2239
L110.0173 128.3192
" />
<path d="M110.0173 128.3192
L109.8268 128.3192
" />
<path d="M109.8268 128.3192
L109.6364 128.2239
" />
<path d="M109.6364 128.2239
L109.5411 128.1287
" />
<path d="M109.5411 128.1287
L109.4459 127.9382
" />
<path d="M109.4459 127.9382
L109.3507 127.5573
" />
<path d="M109.3507 127.5573
L109.3507 127.0811
" />
<path d="M109.3507 127.0811
L109.4459 126.7001
" />
<path d="M109.4459 126.7001
L109.5411 126.5096
" />
<path d="M109.5411 126.5096
L109.6364 126.4144
" />
<path d="M109.6364 126.4144
L109.8268 126.3192
" />
<path d="M111.7316 126.3192
L111.9221 126.3192
" />
<path d="M111.9221 126.3192
L112.1126 126.4144
" />
<path d="M112.1126 126.4144
L112.2078 126.5096
" />
<path d="M112.2078 126.5096
L112.3030 126.7001
" />
<path d="M112.3030 126.7001
L112.3983 127.0811
" />
<path d="M112.3983 127.0811
L112.3983 127.5573
" />
<path d="M112.3983 127.5573
L112.3030 127.9382
" />
<path d="M112.3030 127.9382
L112.2078 128.1287
" />
<path d="M112.2078 128.1287
L112.1126 128.2239
" />
<path d="M112.1126 128.2239
L111.9221 128.3192
" />
<path d="M111.9221 128.3192
L111.7316 128.3192
" />
<path d="M111.7316 128.3192
L111.5411 128.2239
" />
<path d="M111.5411 128.2239
L111.4459 128.1287
" />
<path d="M111.4459 128.1287
L111.3507 127.9382
" />
<path d="M111.3507 127.9382
L111.2554 127.5573
" />
<path d="M111.2554 127.5573
L111.2554 127.0811
" />
<path d="M111.2554 127.0811
L111.3507 126.7001
" />
<path d="M111.3507 126.7001
L111.4459 126.5096
" />
<path d="M111.4459 126.5096
L111.5411 126.4144
" />
<path d="M111.5411 126.4144
L111.7316 126.3192
" />
<path d="M113.2554 128.3192
L113.2554 126.9858
" />
<path d="M113.2554 127.1763
L113.3507 127.0811
" />
<path d="M113.3507 127.0811
L113.5411 126.9858
" />
<path d="M113.5411 126.9858
L113.8268 126.9858
" />
<path d="M113.8268 126.9858
L114.0173 127.0811
" />
<path d="M114.0173 127.0811
L114.1126 127.2715
" />
<path d="M114.1126 127.2715
L114.1126 128.3192
" />
<path d="M114.1126 127.2715
L114.2078 127.0811
" />
<path d="M114.2078 127.0811
L114.3983 126.9858
" />
<path d="M114.3983 126.9858
L114.6840 126.9858
" />
<path d="M114.6840 126.9858
L114.8745 127.0811
" />
<path d="M114.8745 127.0811
L114.9697 127.2715
" />
<path d="M114.9697 127.2715
L114.9697 128.3192
" />
<path d="M115.9221 128.3192
L115.9221 126.9858
" />
<path d="M115.9221 127.1763
L116.0173 127.0811
" />
<path d="M116.0173 127.0811
L116.2078 126.9858
" />
<path d="M116.2078 126.9858
L116.4935 126.9858
" />
<path d="M116.4935 126.9858
L116.6840 127.0811
" />
<path d="M116.6840 127.0811
L116.7792 127.2715
" />
<path d="M116.7792 127.2715
L116.7792 128.3192
" />
<path d="M116.7792 127.2715
L116.8745 127.0811
" />
<path d="M116.8745 127.0811
L117.0649 126.9858
" />
<path d="M117.0649 126.9858
L117.3507 126.9858
" />
<path d="M117.3507 126.9858
L117.5411 127.0811
" />
<path d="M117.5411 127.0811
L117.6364 127.2715
" />
<path d="M117.6364 127.2715
L117.6364 128.3192
" />
<path d="M121.5411 126.2239
L119.8268 128.7953
" />
<path d="M124.1126 126.3192
L124.3030 126.3192
" />
<path d="M124.3030 126.3192
L124.4935 126.4144
" />
<path d="M124.4935 126.4144
L124.5887 126.5096
" />
<path d="M124.5887 126.5096
L124.6840 126.7001
" />
<path d="M124.6840 126.7001
L124.7792 127.0811
" />
<path d="M124.7792 127.0811
L124.7792 127.5573
" />
<path d="M124.7792 127.5573
L124.6840 127.9382
" />
<path d="M124.6840 127.9382
L124.5887 128.1287
" />
<path d="M124.5887 128.1287
L124.4935 128.2239
" />
<path d="M124.4935 128.2239
L124.3030 128.3192
" />
<path d="M124.3030 128.3192
L124.1126 128.3192
" />
<path d="M124.1126 128.3192
L123.9221 128.2239
" />
<path d="M123.9221 128.2239
L123.8268 128.1287
" />
<path d="M123.8268 128.1287
L123.7316 127.9382
" />
<path d="M123.7316 127.9382
L123.6364 127.5573
" />
<path d="M123.6364 127.5573
L123.6364 127.0811
" />
<path d="M123.6364 127.0811
L123.7316 126.7001
" />
<path d="M123.7316 126.7001
L123.8268 126.5096
" />
<path d="M123.8268 126.5096
L123.9221 126.4144
" />
<path d="M123.9221 126.4144
L124.1126 126.3192
" />
<path d="M125.6364 128.1287
L125.7316 128.2239
" />
<path d="M125.7316 128.2239
L125.6364 128.3192
" />
<path d="M125.6364 128.3192
L125.5411 128.2239
" />
<path d="M125.5411 128.2239
L125.6364 128.1287
" />
<path d="M125.6364 128.1287
L125.6364 128.3192
" />
<path d="M126.9697 126.3192
L127.1602 126.3192
" />
<path d="M127.1602 126.3192
L127.3507 126.4144
" />
<path d="M127.3507 126.4144
L127.4459 126.5096
" />
<path d="M127.4459 126.5096
L127.5411 126.7001
" />
<path d="M127.5411 126.7001
L127.6364 127.0811
" />
<path d="M127.6364 127.0811
L127.6364 127.5573
" />
<path d="M127.6364 127.5573
L127.5411 127.9382
" />
<path d="M127.5411 127.9382
L127.4459 128.1287
" />
<path d="M127.4459 128.1287
L127.3507 128.2239
" />
<path d="M127.3507 128.2239
L127.1602 128.3192
" />
<path d="M127.1602 128.3192
L126.9697 128.3192
" />
<path d="M126.9697 128.3192
L126.7792 128.2239
" />
<path d="M126.7792 128.2239
L126.6840 128.1287
" />
<path d="M126.6840 128.1287
L126.5887 127.9382
" />
<path d="M126.5887 127.9382
L126.4935 127.5573
" />
<path d="M126.4935 127.5573
L126.4935 127.0811
" />
<path d="M126.4935 127.0811
L126.5887 126.7001
" />
<path d="M126.5887 126.7001
L126.6840 126.5096
" />
<path d="M126.6840 126.5096
L126.7792 126.4144
" />
<path d="M126.7792 126.4144
L126.9697 126.3192
" />
<path d="M129.5411 128.3192
L128.3983 128.3192
" />
<path d="M128.9697 128.3192
L128.9697 126.3192
" />
<path d="M128.9697 126.3192
L128.7792 126.6049
" />
<path d="M128.7792 126.6049
L128.5887 126.7953
" />
<path d="M128.5887 126.7953
L128.3983 126.8906
" />
<path d="M131.3507 126.3192
L130.3983 126.3192
" />
<path d="M130.3983 126.3192
L130.3030 127.2715
" />
<path d="M130.3030 127.2715
L130.3983 127.1763
" />
<path d="M130.3983 127.1763
L130.5888 127.0811
" />
<path d="M130.5888 127.0811
L131.0649 127.0811
" />
<path d="M131.0649 127.0811
L131.2554 127.1763
" />
<path d="M131.2554 127.1763
L131.3507 127.2715
" />
<path d="M131.3507 127.2715
L131.4459 127.4620
" />
<path d="M131.4459 127.4620
L131.4459 127.9382
" />
<path d="M131.4459 127.9382
L131.3507 128.1287
" />
<path d="M131.3507 128.1287
L131.2554 128.2239
" />
<path d="M131.2554 128.2239
L131.0649 128.3192
" />
<path d="M131.0649 128.3192
L130.5888 128.3192
" />
<path d="M130.5888 128.3192
L130.3983 128.2239
" />
<path d="M130.3983 128.2239
L130.3030 128.1287
" />
<path d="M132.1126 126.3192
L133.4459 126.3192
" />
<path d="M133.4459 126.3192
L132.5888 128.3192
" />
<path d="M134.1126 126.3192
L134.1126 126.7001
" />
<path d="M134.8745 126.3192
L134.8745 126.7001
" />
<path d="M137.8268 129.0811
L137.7316 128.9858
" />
<path d="M137.7316 128.9858
L137.5411 128.7001
" />
<path d="M137.5411 128.7001
L137.4459 128.5096
" />
<path d="M137.4459 128.5096
L137.3507 128.2239
" />
<path d="M137.3507 128.2239
L137.2554 127.7477
" />
<path d="M137.2554 127.7477
L137.2554 127.3668
" />
<path d="M137.2554 127.3668
L137.3507 126.8906
" />
<path d="M137.3507 126.8906
L137.4459 126.6049
" />
<path d="M137.4459 126.6049
L137.5411 126.4144
" />
<path d="M137.5411 126.4144
L137.7316 126.1287
" />
<path d="M137.7316 126.1287
L137.8268 126.0334
" />
<path d="M139.5411 126.3192
L138.5887 126.3192
" />
<path d="M138.5887 126.3192
L138.4935 127.2715
" />
<path d="M138.4935 127.2715
L138.5887 127.1763
" />
<path d="M138.5887 127.1763
L138.7792 127.0811
" />
<path d="M138.7792 127.0811
L139.2554 127.0811
" />
<path d="M139.2554 127.0811
L139.4459 127.1763
" />
<path d="M139.4459 127.1763
L139.5411 127.2715
" />
<path d="M139.5411 127.2715
L139.6364 127.4620
" />
<path d="M139.6364 127.4620
L139.6364 127.9382
" />
<path d="M139.6364 127.9382
L139.5411 128.1287
" />
<path d="M139.5411 128.1287
L139.4459 128.2239
" />
<path d="M139.4459 128.2239
L139.2554 128.3192
" />
<path d="M139.2554 128.3192
L138.7792 128.3192
" />
<path d="M138.7792 128.3192
L138.5887 128.2239
" />
<path d="M138.5887 128.2239
L138.4935 128.1287
" />
<path d="M140.5887 128.3192
L140.9697 128.3192
" />
<path d="M140.9697 128.3192
L141.1602 128.2239
" />
<path d="M141.1602 128.2239
L141.2554 128.1287
" />
<path d="M141.2554 128.1287
L141.4459 127.8430
" />
<path d="M141.4459 127.8430
L141.5411 127.4620
" />
<path d="M141.5411 127.4620
L141.5411 126.7001
" />
<path d="M141.5411 126.7001
L141.4459 126.5096
" />
<path d="M141.4459 126.5096
L141.3507 126.4144
" />
<path d="M141.3507 126.4144
L141.1602 126.3192
" />
<path d="M141.1602 126.3192
L140.7792 126.3192
" />
<path d="M140.7792 126.3192
L140.5887 126.4144
" />
<path d="M140.5887 126.4144
L140.4935 126.5096
" />
<path d="M140.4935 126.5096
L140.3983 126.7001
" />
<path d="M140.3983 126.7001
L140.3983 127.1763
" />
<path d="M140.3983 127.1763
L140.4935 127.3668
" />
<path d="M140.4935 127.3668
L140.5887 127.4620
" />
<path d="M140.5887 127.4620
L140.7792 127.5573
" />
<path d="M140.7792 127.5573
L141.1602 127.5573
" />
<path d="M141.1602 127.5573
L141.3507 127.4620
" />
<path d="M141.3507 127.4620
L141.4459 127.3668
" />
<path d="M141.4459 127.3668
L141.5411 127.1763
" />
<path d="M143.9221 128.3192
L143.9221 126.3192
" />
<path d="M144.7792 128.3192
L144.7792 127.2715
" />
<path d="M144.7792 127.2715
L144.6840 127.0811
" />
<path d="M144.6840 127.0811
L144.4935 126.9858
" />
<path d="M144.4935 126.9858
L144.2078 126.9858
" />
<path d="M144.2078 126.9858
L144.0173 127.0811
" />
<path d="M144.0173 127.0811
L143.9221 127.1763
" />
<path d="M146.0173 128.3192
L145.8268 128.2239
" />
<path d="M145.8268 128.2239
L145.7316 128.1287
" />
<path d="M145.7316 128.1287
L145.6364 127.9382
" />
<path d="M145.6364 127.9382
L145.6364 127.3668
" />
<path d="M145.6364 127.3668
L145.7316 127.1763
" />
<path d="M145.7316 127.1763
L145.8268 127.0811
" />
<path d="M145.8268 127.0811
L146.0173 126.9858
" />
<path d="M146.0173 126.9858
L146.3030 126.9858
" />
<path d="M146.3030 126.9858
L146.4935 127.0811
" />
<path d="M146.4935 127.0811
L146.5888 127.1763
" />
<path d="M146.5888 127.1763
L146.6840 127.3668
" />
<path d="M146.6840 127.3668
L146.6840 127.9382
" />
<path d="M146.6840 127.9382
L146.5888 128.1287
" />
<path d="M146.5888 128.1287
L146.4935 128.2239
" />
<path d="M146.4935 128.2239
L146.3030 128.3192
" />
<path d="M146.3030 128.3192
L146.0173 128.3192
" />
<path d="M147.8268 128.3192
L147.6364 128.2239
" />
<path d="M147.6364 128.2239
L147.5411 128.0334
" />
<path d="M147.5411 128.0334
L147.5411 126.3192
" />
<path d="M149.3507 128.2239
L149.1602 128.3192
" />
<path d="M149.1602 128.3192
L148.7792 128.3192
" />
<path d="M148.7792 128.3192
L148.5887 128.2239
" />
<path d="M148.5887 128.2239
L148.4935 128.0334
" />
<path d="M148.4935 128.0334
L148.4935 127.2715
" />
<path d="M148.4935 127.2715
L148.5887 127.0811
" />
<path d="M148.5887 127.0811
L148.7792 126.9858
" />
<path d="M148.7792 126.9858
L149.1602 126.9858
" />
<path d="M149.1602 126.9858
L149.3507 127.0811
" />
<path d="M149.3507 127.0811
L149.4459 127.2715
" />
<path d="M149.4459 127.2715
L149.4459 127.4620
" />
<path d="M149.4459 127.4620
L148.4935 127.6525
" />
<path d="M150.2078 128.2239
L150.3983 128.3192
" />
<path d="M150.3983 128.3192
L150.7792 128.3192
" />
<path d="M150.7792 128.3192
L150.9697 128.2239
" />
<path d="M150.9697 128.2239
L151.0649 128.0334
" />
<path d="M151.0649 128.0334
L151.0649 127.9382
" />
<path d="M151.0649 127.9382
L150.9697 127.7477
" />
<path d="M150.9697 127.7477
L150.7792 127.6525
" />
<path d="M150.7792 127.6525
L150.4935 127.6525
" />
<path d="M150.4935 127.6525
L150.3030 127.5573
" />
<path d="M150.3030 127.5573
L150.2078 127.3668
" />
<path d="M150.2078 127.3668
L150.2078 127.2715
" />
<path d="M150.2078 127.2715
L150.3030 127.0811
" />
<path d="M150.3030 127.0811
L150.4935 126.9858
" />
<path d="M150.4935 126.9858
L150.7792 126.9858
" />
<path d="M150.7792 126.9858
L150.9697 127.0811
" />
<path d="M151.7316 129.0811
L151.8268 128.9858
" />
<path d="M151.8268 128.9858
L152.0173 128.7001
" />
<path d="M152.0173 128.7001
L152.1126 128.5096
" />
<path d="M152.1126 128.5096
L152.2078 128.2239
" />
<path d="M152.2078 128.2239
L152.3030 127.7477
" />
<path d="M152.3030 127.7477
L152.3030 127.3668
" />
<path d="M152.3030 127.3668
L152.2078 126.8906
" />
<path d="M152.2078 126.8906
L152.1126 126.6049
" />
<path d="M152.1126 126.6049
L152.0173 126.4144
" />
<path d="M152.0173 126.4144
L151.8268 126.1287
" />
<path d="M151.8268 126.1287
L151.7316 126.0334
" />
</g></g>
<g style="fill:none; 
stroke:#000000; stroke-width:0.1158; stroke-opacity:1; 
stroke-linecap:round; stroke-linejoin:round;">
<circle cx="101.4974" cy="130.0443" r="0.5789" /> 
</g>
<g style="fill:none; 
stroke:#000000; stroke-width:0.2000; stroke-opacity:1; 
stroke-linecap:round; stroke-linejoin:round;">
<text x="104.0762" y="131.0443"
textLength="46.8667" font-size="2.6667" lengthAdjust="spacingAndGlyphs"
text-anchor="start" opacity="0" stroke-opacity="0">1.000mm / 0.0394" (4 holes)</text>
<g class="stroked-text"><desc>1.000mm / 0.0394" (4 holes)</desc>
<path d="M105.7316 130.9592
L104.5887 130.9592
" />
<path d="M105.1602 130.9592
L105.1602 128.9592
" />
<path d="M105.1602 128.9592
L104.9697 129.2449
" />
<path d="M104.9697 129.2449
L104.7792 129.4353
" />
<path d="M104.7792 129.4353
L104.5887 129.5306
" />
<path d="M106.5887 130.7687
L106.6840 130.8639
" />
<path d="M106.6840 130.8639
L106.5887 130.9592
" />
<path d="M106.5887 130.9592
L106.4935 130.8639
" />
<path d="M106.4935 130.8639
L106.5887 130.7687
" />
<path d="M106.5887 130.7687
L106.5887 130.9592
" />
<path d="M107.9221 128.9592
L108.1126 128.9592
" />
<path d="M108.1126 128.9592
L108.3030 129.0544
" />
<path d="M108.3030 129.0544
L108.3983 129.1496
" />
<path d="M108.3983 129.1496
L108.4935 129.3401
" />
<path d="M108.4935 129.3401
L108.5887 129.7211
" />
<path d="M108.5887 129.7211
L108.5887 130.1973
" />
<path d="M108.5887 130.1973
L108.4935 130.5782
" />
<path d="M108.4935 130.5782
L108.3983 130.7687
" />
<path d="M108.3983 130.7687
L108.3030 130.8639
" />
<path d="M108.3030 130.8639
L108.1126 130.9592
" />
<path d="M108.1126 130.9592
L107.9221 130.9592
" />
<path d="M107.9221 130.9592
L107.7316 130.8639
" />
<path d="M107.7316 130.8639
L107.6364 130.7687
" />
<path d="M107.6364 130.7687
L107.5411 130.5782
" />
<path d="M107.5411 130.5782
L107.4459 130.1973
" />
<path d="M107.4459 130.1973
L107.4459 129.7211
" />
<path d="M107.4459 129.7211
L107.5411 129.3401
" />
<path d="M107.5411 129.3401
L107.6364 129.1496
" />
<path d="M107.6364 129.1496
L107.7316 129.0544
" />
<path d="M107.7316 129.0544
L107.9221 128.9592
" />
<path d="M109.8268 128.9592
L110.0173 128.9592
" />
<path d="M110.0173 128.9592
L110.2078 129.0544
" />
<path d="M110.2078 129.0544
L110.3030 129.1496
" />
<path d="M110.3030 129.1496
L110.3983 129.3401
" />
<path d="M110.3983 129.3401
L110.4935 129.7211
" />
<path d="M110.4935 129.7211
L110.4935 130.1973
" />
<path d="M110.4935 130.1973
L110.3983 130.5782
" />
<path d="M110.3983 130.5782
L110.3030 130.7687
" />
<path d="M110.3030 130.7687
L110.2078 130.8639
" />
<path d="M110.2078 130.8639
L110.0173 130.9592
" />
<path d="M110.0173 130.9592
L109.8268 130.9592
" />
<path d="M109.8268 130.9592
L109.6364 130.8639
" />
<path d="M109.6364 130.8639
L109.5411 130.7687
" />
<path d="M109.5411 130.7687
L109.4459 130.5782
" />
<path d="M109.4459 130.5782
L109.3507 130.1973
" />
<path d="M109.3507 130.1973
L109.3507 129.7211
" />
<path d="M109.3507 129.7211
L109.4459 129.3401
" />
<path d="M109.4459 129.3401
L109.5411 129.1496
" />
<path d="M109.5411 129.1496
L109.6364 129.0544
" />
<path d="M109.6364 129.0544
L109.8268 128.9592
" />
<path d="M111.7316 128.9592
L111.9221 128.9592
" />
<path d="M111.9221 128.9592
L112.1126 129.0544
" />
<path d="M112.1126 129.0544
L112.2078 129.1496
" />
<path d="M112.2078 129.1496
L112.3030 129.3401
" />
<path d="M112.3030 129.3401
L112.3983 129.7211
" />
<path d="M112.3983 129.7211
L112.3983 130.1973
" />
<path d="M112.3983 130.1973
L112.3030 130.5782
" />
<path d="M112.3030 130.5782
L112.2078 130.7687
" />
<path d="M112.2078 130.7687
L112.1126 130.8639
" />
<path d="M112.1126 130.8639
L111.9221 130.9592
" />
<path d="M111.9221 130.9592
L111.7316 130.9592
" />
<path d="M111.7316 130.9592
L111.5411 130.8639
" />
<path d="M111.5411 130.8639
L111.4459 130.7687
" />
<path d="M111.4459 130.7687
L111.3507 130.5782
" />
<path d="M111.3507 130.5782
L111.2554 130.1973
" />
<path d="M111.2554 130.1973
L111.2554 129.7211
" />
<path d="M111.2554 129.7211
L111.3507 129.3401
" />
<path d="M111.3507 129.3401
L111.4459 129.1496
" />
<path d="M111.4459 129.1496
L111.5411 129.0544
" />
<path d="M111.5411 129.0544
L111.7316 128.9592
" />
<path d="M113.2554 130.9592
L113.2554 129.6258
" />
<path d="M113.2554 129.8163
L113.3507 129.7211
" />
<path d="M113.3507 129.7211
L113.5411 129.6258
" />
<path d="M113.5411 129.6258
L113.8268 129.6258
" />
<path d="M113.8268 129.6258
L114.0173 129.7211
" />
<path d="M114.0173 129.7211
L114.1126 129.9115
" />
<path d="M114.1126 129.9115
L114.1126 130.9592
" />
<path d="M114.1126 129.9115
L114.2078 129.7211
" />
<path d="M114.2078 129.7211
L114.3983 129.6258
" />
<path d="M114.3983 129.6258
L114.6840 129.6258
" />
<path d="M114.6840 129.6258
L114.8745 129.7211
" />
<path d="M114.8745 129.7211
L114.9697 129.9115
" />
<path d="M114.9697 129.9115
L114.9697 130.9592
" />
<path d="M115.9221 130.9592
L115.9221 129.6258
" />
<path d="M115.9221 129.8163
L116.0173 129.7211
" />
<path d="M116.0173 129.7211
L116.2078 129.6258
" />
<path d="M116.2078 129.6258
L116.4935 129.6258
" />
<path d="M116.4935 129.6258
L116.6840 129.7211
" />
<path d="M116.6840 129.7211
L116.7792 129.9115
" />
<path d="M116.7792 129.9115
L116.7792 130.9592
" />
<path d="M116.7792 129.9115
L116.8745 129.7211
" />
<path d="M116.8745 129.7211
L117.0649 129.6258
" />
<path d="M117.0649 129.6258
L117.3507 129.6258
" />
<path d="M117.3507 129.6258
L117.5411 129.7211
" />
<path d="M117.5411 129.7211
L117.6364 129.9115
" />
<path d="M117.6364 129.9115
L117.6364 130.9592
" />
<path d="M121.5411 128.8639
L119.8268 131.4353
" />
<path d="M124.1126 128.9592
L124.3030 128.9592
" />
<path d="M124.3030 128.9592
L124.4935 129.0544
" />
<path d="M124.4935 129.0544
L124.5887 129.1496
" />
<path d="M124.5887 129.1496
L124.6840 129.3401
" />
<path d="M124.6840 129.3401
L124.7792 129.7211
" />
<path d="M124.7792 129.7211
L124.7792 130.1973
" />
<path d="M124.7792 130.1973
L124.6840 130.5782
" />
<path d="M124.6840 130.5782
L124.5887 130.7687
" />
<path d="M124.5887 130.7687
L124.4935 130.8639
" />
<path d="M124.4935 130.8639
L124.3030 130.9592
" />
<path d="M124.3030 130.9592
L124.1126 130.9592
" />
<path d="M124.1126 130.9592
L123.9221 130.8639
" />
<path d="M123.9221 130.8639
L123.8268 130.7687
" />
<path d="M123.8268 130.7687
L123.7316 130.5782
" />
<path d="M123.7316 130.5782
L123.6364 130.1973
" />
<path d="M123.6364 130.1973
L123.6364 129.7211
" />
<path d="M123.6364 129.7211
L123.7316 129.3401
" />
<path d="M123.7316 129.3401
L123.8268 129.1496
" />
<path d="M123.8268 129.1496
L123.9221 129.0544
" />
<path d="M123.9221 129.0544
L124.1126 128.9592
" />
<path d="M125.6364 130.7687
L125.7316 130.8639
" />
<path d="M125.7316 130.8639
L125.6364 130.9592
" />
<path d="M125.6364 130.9592
L125.5411 130.8639
" />
<path d="M125.5411 130.8639
L125.6364 130.7687
" />
<path d="M125.6364 130.7687
L125.6364 130.9592
" />
<path d="M126.9697 128.9592
L127.1602 128.9592
" />
<path d="M127.1602 128.9592
L127.3507 129.0544
" />
<path d="M127.3507 129.0544
L127.4459 129.1496
" />
<path d="M127.4459 129.1496
L127.5411 129.3401
" />
<path d="M127.5411 129.3401
L127.6364 129.7211
" />
<path d="M127.6364 129.7211
L127.6364 130.1973
" />
<path d="M127.6364 130.1973
L127.5411 130.5782
" />
<path d="M127.5411 130.5782
L127.4459 130.7687
" />
<path d="M127.4459 130.7687
L127.3507 130.8639
" />
<path d="M127.3507 130.8639
L127.1602 130.9592
" />
<path d="M127.1602 130.9592
L126.9697 130.9592
" />
<path d="M126.9697 130.9592
L126.7792 130.8639
" />
<path d="M126.7792 130.8639
L126.6840 130.7687
" />
<path d="M126.6840 130.7687
L126.5887 130.5782
" />
<path d="M126.5887 130.5782
L126.4935 130.1973
" />
<path d="M126.4935 130.1973
L126.4935 129.7211
" />
<path d="M126.4935 129.7211
L126.5887 129.3401
" />
<path d="M126.5887 129.3401
L126.6840 129.1496
" />
<path d="M126.6840 129.1496
L126.7792 129.0544
" />
<path d="M126.7792 129.0544
L126.9697 128.9592
" />
<path d="M128.3030 128.9592
L129.5411 128.9592
" />
<path d="M129.5411 128.9592
L128.8745 129.7211
" />
<path d="M128.8745 129.7211
L129.1602 129.7211
" />
<path d="M129.1602 129.7211
L129.3507 129.8163
" />
<path d="M129.3507 129.8163
L129.4459 129.9115
" />
<path d="M129.4459 129.9115
L129.5411 130.1020
" />
<path d="M129.5411 130.1020
L129.5411 130.5782
" />
<path d="M129.5411 130.5782
L129.4459 130.7687
" />
<path d="M129.4459 130.7687
L129.3507 130.8639
" />
<path d="M129.3507 130.8639
L129.1602 130.9592
" />
<path d="M129.1602 130.9592
L128.5887 130.9592
" />
<path d="M128.5887 130.9592
L128.3983 130.8639
" />
<path d="M128.3983 130.8639
L128.3030 130.7687
" />
<path d="M130.4935 130.9592
L130.8745 130.9592
" />
<path d="M130.8745 130.9592
L131.0649 130.8639
" />
<path d="M131.0649 130.8639
L131.1602 130.7687
" />
<path d="M131.1602 130.7687
L131.3507 130.4830
" />
<path d="M131.3507 130.4830
L131.4459 130.1020
" />
<path d="M131.4459 130.1020
L131.4459 129.3401
" />
<path d="M131.4459 129.3401
L131.3507 129.1496
" />
<path d="M131.3507 129.1496
L131.2554 129.0544
" />
<path d="M131.2554 129.0544
L131.0649 128.9592
" />
<path d="M131.0649 128.9592
L130.6840 128.9592
" />
<path d="M130.6840 128.9592
L130.4935 129.0544
" />
<path d="M130.4935 129.0544
L130.3983 129.1496
" />
<path d="M130.3983 129.1496
L130.3030 129.3401
" />
<path d="M130.3030 129.3401
L130.3030 129.8163
" />
<path d="M130.3030 129.8163
L130.3983 130.0068
" />
<path d="M130.3983 130.0068
L130.4935 130.1020
" />
<path d="M130.4935 130.1020
L130.6840 130.1973
" />
<path d="M130.6840 130.1973
L131.0649 130.1973
" />
<path d="M131.0649 130.1973
L131.2554 130.1020
" />
<path d="M131.2554 130.1020
L131.3507 130.0068
" />
<path d="M131.3507 130.0068
L131.4459 129.8163
" />
<path d="M133.1602 129.6258
L133.1602 130.9592
" />
<path d="M132.6840 128.8639
L132.2078 130.2925
" />
<path d="M132.2078 130.2925
L133.4459 130.2925
" />
<path d="M134.1126 128.9592
L134.1126 129.3401
" />
<path d="M134.8745 128.9592
L134.8745 129.3401
" />
<path d="M137.8268 131.7211
L137.7316 131.6258
" />
<path d="M137.7316 131.6258
L137.5411 131.3401
" />
<path d="M137.5411 131.3401
L137.4459 131.1496
" />
<path d="M137.4459 131.1496
L137.3507 130.8639
" />
<path d="M137.3507 130.8639
L137.2554 130.3877
" />
<path d="M137.2554 130.3877
L137.2554 130.0068
" />
<path d="M137.2554 130.0068
L137.3507 129.5306
" />
<path d="M137.3507 129.5306
L137.4459 129.2449
" />
<path d="M137.4459 129.2449
L137.5411 129.0544
" />
<path d="M137.5411 129.0544
L137.7316 128.7687
" />
<path d="M137.7316 128.7687
L137.8268 128.6734
" />
<path d="M139.4459 129.6258
L139.4459 130.9592
" />
<path d="M138.9697 128.8639
L138.4935 130.2925
" />
<path d="M138.4935 130.2925
L139.7316 130.2925
" />
<path d="M142.0173 130.9592
L142.0173 128.9592
" />
<path d="M142.8745 130.9592
L142.8745 129.9115
" />
<path d="M142.8745 129.9115
L142.7792 129.7211
" />
<path d="M142.7792 129.7211
L142.5887 129.6258
" />
<path d="M142.5887 129.6258
L142.3030 129.6258
" />
<path d="M142.3030 129.6258
L142.1126 129.7211
" />
<path d="M142.1126 129.7211
L142.0173 129.8163
" />
<path d="M144.1126 130.9592
L143.9221 130.8639
" />
<path d="M143.9221 130.8639
L143.8268 130.7687
" />
<path d="M143.8268 130.7687
L143.7316 130.5782
" />
<path d="M143.7316 130.5782
L143.7316 130.0068
" />
<path d="M143.7316 130.0068
L143.8268 129.8163
" />
<path d="M143.8268 129.8163
L143.9221 129.7211
" />
<path d="M143.9221 129.7211
L144.1126 129.6258
" />
<path d="M144.1126 129.6258
L144.3983 129.6258
" />
<path d="M144.3983 129.6258
L144.5887 129.7211
" />
<path d="M144.5887 129.7211
L144.6840 129.8163
" />
<path d="M144.6840 129.8163
L144.7792 130.0068
" />
<path d="M144.7792 130.0068
L144.7792 130.5782
" />
<path d="M144.7792 130.5782
L144.6840 130.7687
" />
<path d="M144.6840 130.7687
L144.5887 130.8639
" />
<path d="M144.5887 130.8639
L144.3983 130.9592
" />
<path d="M144.3983 130.9592
L144.1126 130.9592
" />
<path d="M145.9221 130.9592
L145.7316 130.8639
" />
<path d="M145.7316 130.8639
L145.6364 130.6734
" />
<path d="M145.6364 130.6734
L145.6364 128.9592
" />
<path d="M147.4459 130.8639
L147.2554 130.9592
" />
<path d="M147.2554 130.9592
L146.8745 130.9592
" />
<path d="M146.8745 130.9592
L146.6840 130.8639
" />
<path d="M146.6840 130.8639
L146.5887 130.6734
" />
<path d="M146.5887 130.6734
L146.5887 129.9115
" />
<path d="M146.5887 129.9115
L146.6840 129.7211
" />
<path d="M146.6840 129.7211
L146.8745 129.6258
" />
<path d="M146.8745 129.6258
L147.2554 129.6258
" />
<path d="M147.2554 129.6258
L147.4459 129.7211
" />
<path d="M147.4459 129.7211
L147.5411 129.9115
" />
<path d="M147.5411 129.9115
L147.5411 130.1020
" />
<path d="M147.5411 130.1020
L146.5887 130.2925
" />
<path d="M148.3030 130.8639
L148.4935 130.9592
" />
<path d="M148.4935 130.9592
L148.8745 130.9592
" />
<path d="M148.8745 130.9592
L149.0649 130.8639
" />
<path d="M149.0649 130.8639
L149.1602 130.6734
" />
<path d="M149.1602 130.6734
L149.1602 130.5782
" />
<path d="M149.1602 130.5782
L149.0649 130.3877
" />
<path d="M149.0649 130.3877
L148.8745 130.2925
" />
<path d="M148.8745 130.2925
L148.5887 130.2925
" />
<path d="M148.5887 130.2925
L148.3983 130.1973
" />
<path d="M148.3983 130.1973
L148.3030 130.0068
" />
<path d="M148.3030 130.0068
L148.3030 129.9115
" />
<path d="M148.3030 129.9115
L148.3983 129.7211
" />
<path d="M148.3983 129.7211
L148.5887 129.6258
" />
<path d="M148.5887 129.6258
L148.8745 129.6258
" />
<path d="M148.8745 129.6258
L149.0649 129.7211
" />
<path d="M149.8268 131.7211
L149.9221 131.6258
" />
<path d="M149.9221 131.6258
L150.1126 131.3401
" />
<path d="M150.1126 131.3401
L150.2078 131.1496
" />
<path d="M150.2078 131.1496
L150.3030 130.8639
" />
<path d="M150.3030 130.8639
L150.3983 130.3877
" />
<path d="M150.3983 130.3877
L150.3983 130.0068
" />
<path d="M150.3983 130.0068
L150.3030 129.5306
" />
<path d="M150.3030 129.5306
L150.2078 129.2449
" />
<path d="M150.2078 129.2449
L150.1126 129.0544
" />
<path d="M150.1126 129.0544
L149.9221 128.7687
" />
<path d="M149.9221 128.7687
L149.8268 128.6734
" />
</g></g>
<g style="fill:none; 
stroke:#000000; stroke-width:0.1274; stroke-opacity:1; 
stroke-linecap:round; stroke-linejoin:round;">
<path d="M101.4395 132.0476
L101.4395 133.3211
" />
<path d="M100.8027 132.6843
L102.0762 132.6843
" />
</g>
<g style="fill:none; 
stroke:#000000; stroke-width:0.2000; stroke-opacity:1; 
stroke-linecap:round; stroke-linejoin:round;">
<text x="104.0762" y="133.6843"
textLength="48.7714" font-size="2.6667" lengthAdjust="spacingAndGlyphs"
text-anchor="start" opacity="0" stroke-opacity="0">1.100mm / 0.0433" (32 holes)</text>
<g class="stroked-text"><desc>1.100mm / 0.0433" (32 holes)</desc>
<path d="M105.7316 133.5992
L104.5887 133.5992
" />
<path d="M105.1602 133.5992
L105.1602 131.5992
" />
<path d="M105.1602 131.5992
L104.9697 131.8849
" />
<path d="M104.9697 131.8849
L104.7792 132.0753
" />
<path d="M104.7792 132.0753
L104.5887 132.1706
" />
<path d="M106.5887 133.4087
L106.6840 133.5039
" />
<path d="M106.6840 133.5039
L106.5887 133.5992
" />
<path d="M106.5887 133.5992
L106.4935 133.5039
" />
<path d="M106.4935 133.5039
L106.5887 133.4087
" />
<path d="M106.5887 133.4087
L106.5887 133.5992
" />
<path d="M108.5887 133.5992
L107.4459 133.5992
" />
<path d="M108.0173 133.5992
L108.0173 131.5992
" />
<path d="M108.0173 131.5992
L107.8268 131.8849
" />
<path d="M107.8268 131.8849
L107.6364 132.0753
" />
<path d="M107.6364 132.0753
L107.4459 132.1706
" />
<path d="M109.8268 131.5992
L110.0173 131.5992
" />
<path d="M110.0173 131.5992
L110.2078 131.6944
" />
<path d="M110.2078 131.6944
L110.3030 131.7896
" />
<path d="M110.3030 131.7896
L110.3983 131.9801
" />
<path d="M110.3983 131.9801
L110.4935 132.3611
" />
<path d="M110.4935 132.3611
L110.4935 132.8373
" />
<path d="M110.4935 132.8373
L110.3983 133.2182
" />
<path d="M110.3983 133.2182
L110.3030 133.4087
" />
<path d="M110.3030 133.4087
L110.2078 133.5039
" />
<path d="M110.2078 133.5039
L110.0173 133.5992
" />
<path d="M110.0173 133.5992
L109.8268 133.5992
" />
<path d="M109.8268 133.5992
L109.6364 133.5039
" />
<path d="M109.6364 133.5039
L109.5411 133.4087
" />
<path d="M109.5411 133.4087
L109.4459 133.2182
" />
<path d="M109.4459 133.2182
L109.3507 132.8373
" />
<path d="M109.3507 132.8373
L109.3507 132.3611
" />
<path d="M109.3507 132.3611
L109.4459 131.9801
" />
<path d="M109.4459 131.9801
L109.5411 131.7896
" />
<path d="M109.5411 131.7896
L109.6364 131.6944
" />
<path d="M109.6364 131.6944
L109.8268 131.5992
" />
<path d="M111.7316 131.5992
L111.9221 131.5992
" />
<path d="M111.9221 131.5992
L112.1126 131.6944
" />
<path d="M112.1126 131.6944
L112.2078 131.7896
" />
<path d="M112.2078 131.7896
L112.3030 131.9801
" />
<path d="M112.3030 131.9801
L112.3983 132.3611
" />
<path d="M112.3983 132.3611
L112.3983 132.8373
" />
<path d="M112.3983 132.8373
L112.3030 133.2182
" />
<path d="M112.3030 133.2182
L112.2078 133.4087
" />
<path d="M112.2078 133.4087
L112.1126 133.5039
" />
<path d="M112.1126 133.5039
L111.9221 133.5992
" />
<path d="M111.9221 133.5992
L111.7316 133.5992
" />
<path d="M111.7316 133.5992
L111.5411 133.5039
" />
<path d="M111.5411 133.5039
L111.4459 133.4087
" />
<path d="M111.4459 133.4087
L111.3507 133.2182
" />
<path d="M111.3507 133.2182
L111.2554 132.8373
" />
<path d="M111.2554 132.8373
L111.2554 132.3611
" />
<path d="M111.2554 132.3611
L111.3507 131.9801
" />
<path d="M111.3507 131.9801
L111.4459 131.7896
" />
<path d="M111.4459 131.7896
L111.5411 131.6944
" />
<path d="M111.5411 131.6944
L111.7316 131.5992
" />
<path d="M113.2554 133.5992
L113.2554 132.2658
" />
<path d="M113.2554 132.4563
L113.3507 132.3611
" />
<path d="M113.3507 132.3611
L113.5411 132.2658
" />
<path d="M113.5411 132.2658
L113.8268 132.2658
" />
<path d="M113.8268 132.2658
L114.0173 132.3611
" />
<path d="M114.0173 132.3611
L114.1126 132.5515
" />
<path d="M114.1126 132.5515
L114.1126 133.5992
" />
<path d="M114.1126 132.5515
L114.2078 132.3611
" />
<path d="M114.2078 132.3611
L114.3983 132.2658
" />
<path d="M114.3983 132.2658
L114.6840 132.2658
" />
<path d="M114.6840 132.2658
L114.8745 132.3611
" />
<path d="M114.8745 132.3611
L114.9697 132.5515
" />
<path d="M114.9697 132.5515
L114.9697 133.5992
" />
<path d="M115.9221 133.5992
L115.9221 132.2658
" />
<path d="M115.9221 132.4563
L116.0173 132.3611
" />
<path d="M116.0173 132.3611
L116.2078 132.2658
" />
<path d="M116.2078 132.2658
L116.4935 132.2658
" />
<path d="M116.4935 132.2658
L116.6840 132.3611
" />
<path d="M116.6840 132.3611
L116.7792 132.5515
" />
<path d="M116.7792 132.5515
L116.7792 133.5992
" />
<path d="M116.7792 132.5515
L116.8745 132.3611
" />
<path d="M116.8745 132.3611
L117.0649 132.2658
" />
<path d="M117.0649 132.2658
L117.3507 132.2658
" />
<path d="M117.3507 132.2658
L117.5411 132.3611
" />
<path d="M117.5411 132.3611
L117.6364 132.5515
" />
<path d="M117.6364 132.5515
L117.6364 133.5992
" />
<path d="M121.5411 131.5039
L119.8268 134.0753
" />
<path d="M124.1126 131.5992
L124.3030 131.5992
" />
<path d="M124.3030 131.5992
L124.4935 131.6944
" />
<path d="M124.4935 131.6944
L124.5887 131.7896
" />
<path d="M124.5887 131.7896
L124.6840 131.9801
" />
<path d="M124.6840 131.9801
L124.7792 132.3611
" />
<path d="M124.7792 132.3611
L124.7792 132.8373
" />
<path d="M124.7792 132.8373
L124.6840 133.2182
" />
<path d="M124.6840 133.2182
L124.5887 133.4087
" />
<path d="M124.5887 133.4087
L124.4935 133.5039
" />
<path d="M124.4935 133.5039
L124.3030 133.5992
" />
<path d="M124.3030 133.5992
L124.1126 133.5992
" />
<path d="M124.1126 133.5992
L123.9221 133.5039
" />
<path d="M123.9221 133.5039
L123.8268 133.4087
" />
<path d="M123.8268 133.4087
L123.7316 133.2182
" />
<path d="M123.7316 133.2182
L123.6364 132.8373
" />
<path d="M123.6364 132.8373
L123.6364 132.3611
" />
<path d="M123.6364 132.3611
L123.7316 131.9801
" />
<path d="M123.7316 131.9801
L123.8268 131.7896
" />
<path d="M123.8268 131.7896
L123.9221 131.6944
" />
<path d="M123.9221 131.6944
L124.1126 131.5992
" />
<path d="M125.6364 133.4087
L125.7316 133.5039
" />
<path d="M125.7316 133.5039
L125.6364 133.5992
" />
<path d="M125.6364 133.5992
L125.5411 133.5039
" />
<path d="M125.5411 133.5039
L125.6364 133.4087
" />
<path d="M125.6364 133.4087
L125.6364 133.5992
" />
<path d="M126.9697 131.5992
L127.1602 131.5992
" />
<path d="M127.1602 131.5992
L127.3507 131.6944
" />
<path d="M127.3507 131.6944
L127.4459 131.7896
" />
<path d="M127.4459 131.7896
L127.5411 131.9801
" />
<path d="M127.5411 131.9801
L127.6364 132.3611
" />
<path d="M127.6364 132.3611
L127.6364 132.8373
" />
<path d="M127.6364 132.8373
L127.5411 133.2182
" />
<path d="M127.5411 133.2182
L127.4459 133.4087
" />
<path d="M127.4459 133.4087
L127.3507 133.5039
" />
<path d="M127.3507 133.5039
L127.1602 133.5992
" />
<path d="M127.1602 133.5992
L126.9697 133.5992
" />
<path d="M126.9697 133.5992
L126.7792 133.5039
" />
<path d="M126.7792 133.5039
L126.6840 133.4087
" />
<path d="M126.6840 133.4087
L126.5887 133.2182
" />
<path d="M126.5887 133.2182
L126.4935 132.8373
" />
<path d="M126.4935 132.8373
L126.4935 132.3611
" />
<path d="M126.4935 132.3611
L126.5887 131.9801
" />
<path d="M126.5887 131.9801
L126.6840 131.7896
" />
<path d="M126.6840 131.7896
L126.7792 131.6944
" />
<path d="M126.7792 131.6944
L126.9697 131.5992
" />
<path d="M129.3507 132.2658
L129.3507 133.5992
" />
<path d="M128.8745 131.5039
L128.3983 132.9325
" />
<path d="M128.3983 132.9325
L129.6364 132.9325
" />
<path d="M130.2078 131.5992
L131.4459 131.5992
" />
<path d="M131.4459 131.5992
L130.7792 132.3611
" />
<path d="M130.7792 132.3611
L131.0649 132.3611
" />
<path d="M131.0649 132.3611
L131.2554 132.4563
" />
<path d="M131.2554 132.4563
L131.3507 132.5515
" />
<path d="M131.3507 132.5515
L131.4459 132.7420
" />
<path d="M131.4459 132.7420
L131.4459 133.2182
" />
<path d="M131.4459 133.2182
L131.3507 133.4087
" />
<path d="M131.3507 133.4087
L131.2554 133.5039
" />
<path d="M131.2554 133.5039
L131.0649 133.5992
" />
<path d="M131.0649 133.5992
L130.4935 133.5992
" />
<path d="M130.4935 133.5992
L130.3030 133.5039
" />
<path d="M130.3030 133.5039
L130.2078 133.4087
" />
<path d="M132.1126 131.5992
L133.3507 131.5992
" />
<path d="M133.3507 131.5992
L132.6840 132.3611
" />
<path d="M132.6840 132.3611
L132.9697 132.3611
" />
<path d="M132.9697 132.3611
L133.1602 132.4563
" />
<path d="M133.1602 132.4563
L133.2554 132.5515
" />
<path d="M133.2554 132.5515
L133.3507 132.7420
" />
<path d="M133.3507 132.7420
L133.3507 133.2182
" />
<path d="M133.3507 133.2182
L133.2554 133.4087
" />
<path d="M133.2554 133.4087
L133.1602 133.5039
" />
<path d="M133.1602 133.5039
L132.9697 133.5992
" />
<path d="M132.9697 133.5992
L132.3983 133.5992
" />
<path d="M132.3983 133.5992
L132.2078 133.5039
" />
<path d="M132.2078 133.5039
L132.1126 133.4087
" />
<path d="M134.1126 131.5992
L134.1126 131.9801
" />
<path d="M134.8745 131.5992
L134.8745 131.9801
" />
<path d="M137.8268 134.3611
L137.7316 134.2658
" />
<path d="M137.7316 134.2658
L137.5411 133.9801
" />
<path d="M137.5411 133.9801
L137.4459 133.7896
" />
<path d="M137.4459 133.7896
L137.3507 133.5039
" />
<path d="M137.3507 133.5039
L137.2554 133.0277
" />
<path d="M137.2554 133.0277
L137.2554 132.6468
" />
<path d="M137.2554 132.6468
L137.3507 132.1706
" />
<path d="M137.3507 132.1706
L137.4459 131.8849
" />
<path d="M137.4459 131.8849
L137.5411 131.6944
" />
<path d="M137.5411 131.6944
L137.7316 131.4087
" />
<path d="M137.7316 131.4087
L137.8268 131.3134
" />
<path d="M138.3983 131.5992
L139.6364 131.5992
" />
<path d="M139.6364 131.5992
L138.9697 132.3611
" />
<path d="M138.9697 132.3611
L139.2554 132.3611
" />
<path d="M139.2554 132.3611
L139.4459 132.4563
" />
<path d="M139.4459 132.4563
L139.5411 132.5515
" />
<path d="M139.5411 132.5515
L139.6364 132.7420
" />
<path d="M139.6364 132.7420
L139.6364 133.2182
" />
<path d="M139.6364 133.2182
L139.5411 133.4087
" />
<path d="M139.5411 133.4087
L139.4459 133.5039
" />
<path d="M139.4459 133.5039
L139.2554 133.5992
" />
<path d="M139.2554 133.5992
L138.6840 133.5992
" />
<path d="M138.6840 133.5992
L138.4935 133.5039
" />
<path d="M138.4935 133.5039
L138.3983 133.4087
" />
<path d="M140.3983 131.7896
L140.4935 131.6944
" />
<path d="M140.4935 131.6944
L140.6840 131.5992
" />
<path d="M140.6840 131.5992
L141.1602 131.5992
" />
<path d="M141.1602 131.5992
L141.3507 131.6944
" />
<path d="M141.3507 131.6944
L141.4459 131.7896
" />
<path d="M141.4459 131.7896
L141.5411 131.9801
" />
<path d="M141.5411 131.9801
L141.5411 132.1706
" />
<path d="M141.5411 132.1706
L141.4459 132.4563
" />
<path d="M141.4459 132.4563
L140.3030 133.5992
" />
<path d="M140.3030 133.5992
L141.5411 133.5992
" />
<path d="M143.9221 133.5992
L143.9221 131.5992
" />
<path d="M144.7792 133.5992
L144.7792 132.5515
" />
<path d="M144.7792 132.5515
L144.6840 132.3611
" />
<path d="M144.6840 132.3611
L144.4935 132.2658
" />
<path d="M144.4935 132.2658
L144.2078 132.2658
" />
<path d="M144.2078 132.2658
L144.0173 132.3611
" />
<path d="M144.0173 132.3611
L143.9221 132.4563
" />
<path d="M146.0173 133.5992
L145.8268 133.5039
" />
<path d="M145.8268 133.5039
L145.7316 133.4087
" />
<path d="M145.7316 133.4087
L145.6364 133.2182
" />
<path d="M145.6364 133.2182
L145.6364 132.6468
" />
<path d="M145.6364 132.6468
L145.7316 132.4563
" />
<path d="M145.7316 132.4563
L145.8268 132.3611
" />
<path d="M145.8268 132.3611
L146.0173 132.2658
" />
<path d="M146.0173 132.2658
L146.3030 132.2658
" />
<path d="M146.3030 132.2658
L146.4935 132.3611
" />
<path d="M146.4935 132.3611
L146.5888 132.4563
" />
<path d="M146.5888 132.4563
L146.6840 132.6468
" />
<path d="M146.6840 132.6468
L146.6840 133.2182
" />
<path d="M146.6840 133.2182
L146.5888 133.4087
" />
<path d="M146.5888 133.4087
L146.4935 133.5039
" />
<path d="M146.4935 133.5039
L146.3030 133.5992
" />
<path d="M146.3030 133.5992
L146.0173 133.5992
" />
<path d="M147.8268 133.5992
L147.6364 133.5039
" />
<path d="M147.6364 133.5039
L147.5411 133.3134
" />
<path d="M147.5411 133.3134
L147.5411 131.5992
" />
<path d="M149.3507 133.5039
L149.1602 133.5992
" />
<path d="M149.1602 133.5992
L148.7792 133.5992
" />
<path d="M148.7792 133.5992
L148.5887 133.5039
" />
<path d="M148.5887 133.5039
L148.4935 133.3134
" />
<path d="M148.4935 133.3134
L148.4935 132.5515
" />
<path d="M148.4935 132.5515
L148.5887 132.3611
" />
<path d="M148.5887 132.3611
L148.7792 132.2658
" />
<path d="M148.7792 132.2658
L149.1602 132.2658
" />
<path d="M149.1602 132.2658
L149.3507 132.3611
" />
<path d="M149.3507 132.3611
L149.4459 132.5515
" />
<path d="M149.4459 132.5515
L149.4459 132.7420
" />
<path d="M149.4459 132.7420
L148.4935 132.9325
" />
<path d="M150.2078 133.5039
L150.3983 133.5992
" />
<path d="M150.3983 133.5992
L150.7792 133.5992
" />
<path d="M150.7792 133.5992
L150.9697 133.5039
" />
<path d="M150.9697 133.5039
L151.0649 133.3134
" />
<path d="M151.0649 133.3134
L151.0649 133.2182
" />
<path d="M151.0649 133.2182
L150.9697 133.0277
" />
<path d="M150.9697 133.0277
L150.7792 132.9325
" />
<path d="M150.7792 132.9325
L150.4935 132.9325
" />
<path d="M150.4935 132.9325
L150.3030 132.8373
" />
<path d="M150.3030 132.8373
L150.2078 132.6468
" />
<path d="M150.2078 132.6468
L150.2078 132.5515
" />
<path d="M150.2078 132.5515
L150.3030 132.3611
" />
<path d="M150.3030 132.3611
L150.4935 132.2658
" />
<path d="M150.4935 132.2658
L150.7792 132.2658
" />
<path d="M150.7792 132.2658
L150.9697 132.3611
" />
<path d="M151.7316 134.3611
L151.8268 134.2658
" />
<path d="M151.8268 134.2658
L152.0173 133.9801
" />
<path d="M152.0173 133.9801
L152.1126 133.7896
" />
<path d="M152.1126 133.7896
L152.2078 133.5039
" />
<path d="M152.2078 133.5039
L152.3030 133.0277
" />
<path d="M152.3030 133.0277
L152.3030 132.6468
" />
<path d="M152.3030 132.6468
L152.2078 132.1706
" />
<path d="M152.2078 132.1706
L152.1126 131.8849
" />
<path d="M152.1126 131.8849
L152.0173 131.6944
" />
<path d="M152.0173 131.6944
L151.8268 131.4087
" />
<path d="M151.8268 131.4087
L151.7316 131.3134
" />
</g><path style="fill:none; 
stroke:#000000; stroke-width:0.1621; stroke-opacity:1; 
stroke-linecap:round; stroke-linejoin:round;fill:none"
d="M 101.8389,135.8974
101.8389,134.7513
100.6928,134.7513
100.6928,135.8974
Z" /> 
</g>
<g style="fill:none; 
stroke:#000000; stroke-width:0.2000; stroke-opacity:1; 
stroke-linecap:round; stroke-linejoin:round;">
<text x="104.0762" y="136.3243"
textLength="48.7714" font-size="2.6667" lengthAdjust="spacingAndGlyphs"
text-anchor="start" opacity="0" stroke-opacity="0">1.400mm / 0.0551" (25 holes)</text>
<g class="stroked-text"><desc>1.400mm / 0.0551" (25 holes)</desc>
<path d="M105.7316 136.2392
L104.5887 136.2392
" />
<path d="M105.1602 136.2392
L105.1602 134.2392
" />
<path d="M105.1602 134.2392
L104.9697 134.5249
" />
<path d="M104.9697 134.5249
L104.7792 134.7153
" />
<path d="M104.7792 134.7153
L104.5887 134.8106
" />
<path d="M106.5887 136.0487
L106.6840 136.1439
" />
<path d="M106.6840 136.1439
L106.5887 136.2392
" />
<path d="M106.5887 136.2392
L106.4935 136.1439
" />
<path d="M106.4935 136.1439
L106.5887 136.0487
" />
<path d="M106.5887 136.0487
L106.5887 136.2392
" />
<path d="M108.3983 134.9058
L108.3983 136.2392
" />
<path d="M107.9221 134.1439
L107.4459 135.5725
" />
<path d="M107.4459 135.5725
L108.6840 135.5725
" />
<path d="M109.8268 134.2392
L110.0173 134.2392
" />
<path d="M110.0173 134.2392
L110.2078 134.3344
" />
<path d="M110.2078 134.3344
L110.3030 134.4296
" />
<path d="M110.3030 134.4296
L110.3983 134.6201
" />
<path d="M110.3983 134.6201
L110.4935 135.0011
" />
<path d="M110.4935 135.0011
L110.4935 135.4773
" />
<path d="M110.4935 135.4773
L110.3983 135.8582
" />
<path d="M110.3983 135.8582
L110.3030 136.0487
" />
<path d="M110.3030 136.0487
L110.2078 136.1439
" />
<path d="M110.2078 136.1439
L110.0173 136.2392
" />
<path d="M110.0173 136.2392
L109.8268 136.2392
" />
<path d="M109.8268 136.2392
L109.6364 136.1439
" />
<path d="M109.6364 136.1439
L109.5411 136.0487
" />
<path d="M109.5411 136.0487
L109.4459 135.8582
" />
<path d="M109.4459 135.8582
L109.3507 135.4773
" />
<path d="M109.3507 135.4773
L109.3507 135.0011
" />
<path d="M109.3507 135.0011
L109.4459 134.6201
" />
<path d="M109.4459 134.6201
L109.5411 134.4296
" />
<path d="M109.5411 134.4296
L109.6364 134.3344
" />
<path d="M109.6364 134.3344
L109.8268 134.2392
" />
<path d="M111.7316 134.2392
L111.9221 134.2392
" />
<path d="M111.9221 134.2392
L112.1126 134.3344
" />
<path d="M112.1126 134.3344
L112.2078 134.4296
" />
<path d="M112.2078 134.4296
L112.3030 134.6201
" />
<path d="M112.3030 134.6201
L112.3983 135.0011
" />
<path d="M112.3983 135.0011
L112.3983 135.4773
" />
<path d="M112.3983 135.4773
L112.3030 135.8582
" />
<path d="M112.3030 135.8582
L112.2078 136.0487
" />
<path d="M112.2078 136.0487
L112.1126 136.1439
" />
<path d="M112.1126 136.1439
L111.9221 136.2392
" />
<path d="M111.9221 136.2392
L111.7316 136.2392
" />
<path d="M111.7316 136.2392
L111.5411 136.1439
" />
<path d="M111.5411 136.1439
L111.4459 136.0487
" />
<path d="M111.4459 136.0487
L111.3507 135.8582
" />
<path d="M111.3507 135.8582
L111.2554 135.4773
" />
<path d="M111.2554 135.4773
L111.2554 135.0011
" />
<path d="M111.2554 135.0011
L111.3507 134.6201
" />
<path d="M111.3507 134.6201
L111.4459 134.4296
" />
<path d="M111.4459 134.4296
L111.5411 134.3344
" />
<path d="M111.5411 134.3344
L111.7316 134.2392
" />
<path d="M113.2554 136.2392
L113.2554 134.9058
" />
<path d="M113.2554 135.0963
L113.3507 135.0011
" />
<path d="M113.3507 135.0011
L113.5411 134.9058
" />
<path d="M113.5411 134.9058
L113.8268 134.9058
" />
<path d="M113.8268 134.9058
L114.0173 135.0011
" />
<path d="M114.0173 135.0011
L114.1126 135.1915
" />
<path d="M114.1126 135.1915
L114.1126 136.2392
" />
<path d="M114.1126 135.1915
L114.2078 135.0011
" />
<path d="M114.2078 135.0011
L114.3983 134.9058
" />
<path d="M114.3983 134.9058
L114.6840 134.9058
" />
<path d="M114.6840 134.9058
L114.8745 135.0011
" />
<path d="M114.8745 135.0011
L114.9697 135.1915
" />
<path d="M114.9697 135.1915
L114.9697 136.2392
" />
<path d="M115.9221 136.2392
L115.9221 134.9058
" />
<path d="M115.9221 135.0963
L116.0173 135.0011
" />
<path d="M116.0173 135.0011
L116.2078 134.9058
" />
<path d="M116.2078 134.9058
L116.4935 134.9058
" />
<path d="M116.4935 134.9058
L116.6840 135.0011
" />
<path d="M116.6840 135.0011
L116.7792 135.1915
" />
<path d="M116.7792 135.1915
L116.7792 136.2392
" />
<path d="M116.7792 135.1915
L116.8745 135.0011
" />
<path d="M116.8745 135.0011
L117.0649 134.9058
" />
<path d="M117.0649 134.9058
L117.3507 134.9058
" />
<path d="M117.3507 134.9058
L117.5411 135.0011
" />
<path d="M117.5411 135.0011
L117.6364 135.1915
" />
<path d="M117.6364 135.1915
L117.6364 136.2392
" />
<path d="M121.5411 134.1439
L119.8268 136.7153
" />
<path d="M124.1126 134.2392
L124.3030 134.2392
" />
<path d="M124.3030 134.2392
L124.4935 134.3344
" />
<path d="M124.4935 134.3344
L124.5887 134.4296
" />
<path d="M124.5887 134.4296
L124.6840 134.6201
" />
<path d="M124.6840 134.6201
L124.7792 135.0011
" />
<path d="M124.7792 135.0011
L124.7792 135.4773
" />
<path d="M124.7792 135.4773
L124.6840 135.8582
" />
<path d="M124.6840 135.8582
L124.5887 136.0487
" />
<path d="M124.5887 136.0487
L124.4935 136.1439
" />
<path d="M124.4935 136.1439
L124.3030 136.2392
" />
<path d="M124.3030 136.2392
L124.1126 136.2392
" />
<path d="M124.1126 136.2392
L123.9221 136.1439
" />
<path d="M123.9221 136.1439
L123.8268 136.0487
" />
<path d="M123.8268 136.0487
L123.7316 135.8582
" />
<path d="M123.7316 135.8582
L123.6364 135.4773
" />
<path d="M123.6364 135.4773
L123.6364 135.0011
" />
<path d="M123.6364 135.0011
L123.7316 134.6201
" />
<path d="M123.7316 134.6201
L123.8268 134.4296
" />
<path d="M123.8268 134.4296
L123.9221 134.3344
" />
<path d="M123.9221 134.3344
L124.1126 134.2392
" />
<path d="M125.6364 136.0487
L125.7316 136.1439
" />
<path d="M125.7316 136.1439
L125.6364 136.2392
" />
<path d="M125.6364 136.2392
L125.5411 136.1439
" />
<path d="M125.5411 136.1439
L125.6364 136.0487
" />
<path d="M125.6364 136.0487
L125.6364 136.2392
" />
<path d="M126.9697 134.2392
L127.1602 134.2392
" />
<path d="M127.1602 134.2392
L127.3507 134.3344
" />
<path d="M127.3507 134.3344
L127.4459 134.4296
" />
<path d="M127.4459 134.4296
L127.5411 134.6201
" />
<path d="M127.5411 134.6201
L127.6364 135.0011
" />
<path d="M127.6364 135.0011
L127.6364 135.4773
" />
<path d="M127.6364 135.4773
L127.5411 135.8582
" />
<path d="M127.5411 135.8582
L127.4459 136.0487
" />
<path d="M127.4459 136.0487
L127.3507 136.1439
" />
<path d="M127.3507 136.1439
L127.1602 136.2392
" />
<path d="M127.1602 136.2392
L126.9697 136.2392
" />
<path d="M126.9697 136.2392
L126.7792 136.1439
" />
<path d="M126.7792 136.1439
L126.6840 136.0487
" />
<path d="M126.6840 136.0487
L126.5887 135.8582
" />
<path d="M126.5887 135.8582
L126.4935 135.4773
" />
<path d="M126.4935 135.4773
L126.4935 135.0011
" />
<path d="M126.4935 135.0011
L126.5887 134.6201
" />
<path d="M126.5887 134.6201
L126.6840 134.4296
" />
<path d="M126.6840 134.4296
L126.7792 134.3344
" />
<path d="M126.7792 134.3344
L126.9697 134.2392
" />
<path d="M129.4459 134.2392
L128.4935 134.2392
" />
<path d="M128.4935 134.2392
L128.3983 135.1915
" />
<path d="M128.3983 135.1915
L128.4935 135.0963
" />
<path d="M128.4935 135.0963
L128.6840 135.0011
" />
<path d="M128.6840 135.0011
L129.1602 135.0011
" />
<path d="M129.1602 135.0011
L129.3507 135.0963
" />
<path d="M129.3507 135.0963
L129.4459 135.1915
" />
<path d="M129.4459 135.1915
L129.5411 135.3820
" />
<path d="M129.5411 135.3820
L129.5411 135.8582
" />
<path d="M129.5411 135.8582
L129.4459 136.0487
" />
<path d="M129.4459 136.0487
L129.3507 136.1439
" />
<path d="M129.3507 136.1439
L129.1602 136.2392
" />
<path d="M129.1602 136.2392
L128.6840 136.2392
" />
<path d="M128.6840 136.2392
L128.4935 136.1439
" />
<path d="M128.4935 136.1439
L128.3983 136.0487
" />
<path d="M131.3507 134.2392
L130.3983 134.2392
" />
<path d="M130.3983 134.2392
L130.3030 135.1915
" />
<path d="M130.3030 135.1915
L130.3983 135.0963
" />
<path d="M130.3983 135.0963
L130.5888 135.0011
" />
<path d="M130.5888 135.0011
L131.0649 135.0011
" />
<path d="M131.0649 135.0011
L131.2554 135.0963
" />
<path d="M131.2554 135.0963
L131.3507 135.1915
" />
<path d="M131.3507 135.1915
L131.4459 135.3820
" />
<path d="M131.4459 135.3820
L131.4459 135.8582
" />
<path d="M131.4459 135.8582
L131.3507 136.0487
" />
<path d="M131.3507 136.0487
L131.2554 136.1439
" />
<path d="M131.2554 136.1439
L131.0649 136.2392
" />
<path d="M131.0649 136.2392
L130.5888 136.2392
" />
<path d="M130.5888 136.2392
L130.3983 136.1439
" />
<path d="M130.3983 136.1439
L130.3030 136.0487
" />
<path d="M133.3507 136.2392
L132.2078 136.2392
" />
<path d="M132.7792 136.2392
L132.7792 134.2392
" />
<path d="M132.7792 134.2392
L132.5888 134.5249
" />
<path d="M132.5888 134.5249
L132.3983 134.7153
" />
<path d="M132.3983 134.7153
L132.2078 134.8106
" />
<path d="M134.1126 134.2392
L134.1126 134.6201
" />
<path d="M134.8745 134.2392
L134.8745 134.6201
" />
<path d="M137.8268 137.0011
L137.7316 136.9058
" />
<path d="M137.7316 136.9058
L137.5411 136.6201
" />
<path d="M137.5411 136.6201
L137.4459 136.4296
" />
<path d="M137.4459 136.4296
L137.3507 136.1439
" />
<path d="M137.3507 136.1439
L137.2554 135.6677
" />
<path d="M137.2554 135.6677
L137.2554 135.2868
" />
<path d="M137.2554 135.2868
L137.3507 134.8106
" />
<path d="M137.3507 134.8106
L137.4459 134.5249
" />
<path d="M137.4459 134.5249
L137.5411 134.3344
" />
<path d="M137.5411 134.3344
L137.7316 134.0487
" />
<path d="M137.7316 134.0487
L137.8268 133.9534
" />
<path d="M138.4935 134.4296
L138.5887 134.3344
" />
<path d="M138.5887 134.3344
L138.7792 134.2392
" />
<path d="M138.7792 134.2392
L139.2554 134.2392
" />
<path d="M139.2554 134.2392
L139.4459 134.3344
" />
<path d="M139.4459 134.3344
L139.5411 134.4296
" />
<path d="M139.5411 134.4296
L139.6364 134.6201
" />
<path d="M139.6364 134.6201
L139.6364 134.8106
" />
<path d="M139.6364 134.8106
L139.5411 135.0963
" />
<path d="M139.5411 135.0963
L138.3983 136.2392
" />
<path d="M138.3983 136.2392
L139.6364 136.2392
" />
<path d="M141.4459 134.2392
L140.4935 134.2392
" />
<path d="M140.4935 134.2392
L140.3983 135.1915
" />
<path d="M140.3983 135.1915
L140.4935 135.0963
" />
<path d="M140.4935 135.0963
L140.6840 135.0011
" />
<path d="M140.6840 135.0011
L141.1602 135.0011
" />
<path d="M141.1602 135.0011
L141.3507 135.0963
" />
<path d="M141.3507 135.0963
L141.4459 135.1915
" />
<path d="M141.4459 135.1915
L141.5411 135.3820
" />
<path d="M141.5411 135.3820
L141.5411 135.8582
" />
<path d="M141.5411 135.8582
L141.4459 136.0487
" />
<path d="M141.4459 136.0487
L141.3507 136.1439
" />
<path d="M141.3507 136.1439
L141.1602 136.2392
" />
<path d="M141.1602 136.2392
L140.6840 136.2392
" />
<path d="M140.6840 136.2392
L140.4935 136.1439
" />
<path d="M140.4935 136.1439
L140.3983 136.0487
" />
<path d="M143.9221 136.2392
L143.9221 134.2392
" />
<path d="M144.7792 136.2392
L144.7792 135.1915
" />
<path d="M144.7792 135.1915
L144.6840 135.0011
" />
<path d="M144.6840 135.0011
L144.4935 134.9058
" />
<path d="M144.4935 134.9058
L144.2078 134.9058
" />
<path d="M144.2078 134.9058
L144.0173 135.0011
" />
<path d="M144.0173 135.0011
L143.9221 135.0963
" />
<path d="M146.0173 136.2392
L145.8268 136.1439
" />
<path d="M145.8268 136.1439
L145.7316 136.0487
" />
<path d="M145.7316 136.0487
L145.6364 135.8582
" />
<path d="M145.6364 135.8582
L145.6364 135.2868
" />
<path d="M145.6364 135.2868
L145.7316 135.0963
" />
<path d="M145.7316 135.0963
L145.8268 135.0011
" />
<path d="M145.8268 135.0011
L146.0173 134.9058
" />
<path d="M146.0173 134.9058
L146.3030 134.9058
" />
<path d="M146.3030 134.9058
L146.4935 135.0011
" />
<path d="M146.4935 135.0011
L146.5888 135.0963
" />
<path d="M146.5888 135.0963
L146.6840 135.2868
" />
<path d="M146.6840 135.2868
L146.6840 135.8582
" />
<path d="M146.6840 135.8582
L146.5888 136.0487
" />
<path d="M146.5888 136.0487
L146.4935 136.1439
" />
<path d="M146.4935 136.1439
L146.3030 136.2392
" />
<path d="M146.3030 136.2392
L146.0173 136.2392
" />
<path d="M147.8268 136.2392
L147.6364 136.1439
" />
<path d="M147.6364 136.1439
L147.5411 135.9534
" />
<path d="M147.5411 135.9534
L147.5411 134.2392
" />
<path d="M149.3507 136.1439
L149.1602 136.2392
" />
<path d="M149.1602 136.2392
L148.7792 136.2392
" />
<path d="M148.7792 136.2392
L148.5887 136.1439
" />
<path d="M148.5887 136.1439
L148.4935 135.9534
" />
<path d="M148.4935 135.9534
L148.4935 135.1915
" />
<path d="M148.4935 135.1915
L148.5887 135.0011
" />
<path d="M148.5887 135.0011
L148.7792 134.9058
" />
<path d="M148.7792 134.9058
L149.1602 134.9058
" />
<path d="M149.1602 134.9058
L149.3507 135.0011
" />
<path d="M149.3507 135.0011
L149.4459 135.1915
" />
<path d="M149.4459 135.1915
L149.4459 135.3820
" />
<path d="M149.4459 135.3820
L148.4935 135.5725
" />
<path d="M150.2078 136.1439
L150.3983 136.2392
" />
<path d="M150.3983 136.2392
L150.7792 136.2392
" />
<path d="M150.7792 136.2392
L150.9697 136.1439
" />
<path d="M150.9697 136.1439
L151.0649 135.9534
" />
<path d="M151.0649 135.9534
L151.0649 135.8582
" />
<path d="M151.0649 135.8582
L150.9697 135.6677
" />
<path d="M150.9697 135.6677
L150.7792 135.5725
" />
<path d="M150.7792 135.5725
L150.4935 135.5725
" />
<path d="M150.4935 135.5725
L150.3030 135.4773
" />
<path d="M150.3030 135.4773
L150.2078 135.2868
" />
<path d="M150.2078 135.2868
L150.2078 135.1915
" />
<path d="M150.2078 135.1915
L150.3030 135.0011
" />
<path d="M150.3030 135.0011
L150.4935 134.9058
" />
<path d="M150.4935 134.9058
L150.7792 134.9058
" />
<path d="M150.7792 134.9058
L150.9697 135.0011
" />
<path d="M151.7316 137.0011
L151.8268 136.9058
" />
<path d="M151.8268 136.9058
L152.0173 136.6201
" />
<path d="M152.0173 136.6201
L152.1126 136.4296
" />
<path d="M152.1126 136.4296
L152.2078 136.1439
" />
<path d="M152.2078 136.1439
L152.3030 135.6677
" />
<path d="M152.3030 135.6677
L152.3030 135.2868
" />
<path d="M152.3030 135.2868
L152.2078 134.8106
" />
<path d="M152.2078 134.8106
L152.1126 134.5249
" />
<path d="M152.1126 134.5249
L152.0173 134.3344
" />
<path d="M152.0173 134.3344
L151.8268 134.0487
" />
<path d="M151.8268 134.0487
L151.7316 133.9534
" />
</g><path style="fill:none; 
stroke:#000000; stroke-width:0.2000; stroke-opacity:1; 
stroke-linecap:round; stroke-linejoin:round;fill:none"
d="M 101.0762,139.1451
102.0762,138.1451
101.0762,137.1451
100.0762,138.1451
Z" /> 
</g>
<g style="fill:none; 
stroke:#000000; stroke-width:0.2000; stroke-opacity:1; 
stroke-linecap:round; stroke-linejoin:round;">
<text x="104.0762" y="139.1451"
textLength="45.2476" font-size="2.6667" lengthAdjust="spacingAndGlyphs"
text-anchor="start" opacity="0" stroke-opacity="0">3.200mm / 0.1260" (1 hole)</text>
<g class="stroked-text"><desc>3.200mm / 0.1260" (1 hole)</desc>
<path d="M104.4935 137.0600
L105.7316 137.0600
" />
<path d="M105.7316 137.0600
L105.0649 137.8219
" />
<path d="M105.0649 137.8219
L105.3507 137.8219
" />
<path d="M105.3507 137.8219
L105.5411 137.9171
" />
<path d="M105.5411 137.9171
L105.6364 138.0124
" />
<path d="M105.6364 138.0124
L105.7316 138.2028
" />
<path d="M105.7316 138.2028
L105.7316 138.6790
" />
<path d="M105.7316 138.6790
L105.6364 138.8695
" />
<path d="M105.6364 138.8695
L105.5411 138.9647
" />
<path d="M105.5411 138.9647
L105.3507 139.0600
" />
<path d="M105.3507 139.0600
L104.7792 139.0600
" />
<path d="M104.7792 139.0600
L104.5887 138.9647
" />
<path d="M104.5887 138.9647
L104.4935 138.8695
" />
<path d="M106.5887 138.8695
L106.6840 138.9647
" />
<path d="M106.6840 138.9647
L106.5887 139.0600
" />
<path d="M106.5887 139.0600
L106.4935 138.9647
" />
<path d="M106.4935 138.9647
L106.5887 138.8695
" />
<path d="M106.5887 138.8695
L106.5887 139.0600
" />
<path d="M107.4459 137.2505
L107.5411 137.1552
" />
<path d="M107.5411 137.1552
L107.7316 137.0600
" />
<path d="M107.7316 137.0600
L108.2078 137.0600
" />
<path d="M108.2078 137.0600
L108.3983 137.1552
" />
<path d="M108.3983 137.1552
L108.4935 137.2505
" />
<path d="M108.4935 137.2505
L108.5887 137.4409
" />
<path d="M108.5887 137.4409
L108.5887 137.6314
" />
<path d="M108.5887 137.6314
L108.4935 137.9171
" />
<path d="M108.4935 137.9171
L107.3507 139.0600
" />
<path d="M107.3507 139.0600
L108.5887 139.0600
" />
<path d="M109.8268 137.0600
L110.0173 137.0600
" />
<path d="M110.0173 137.0600
L110.2078 137.1552
" />
<path d="M110.2078 137.1552
L110.3030 137.2505
" />
<path d="M110.3030 137.2505
L110.3983 137.4409
" />
<path d="M110.3983 137.4409
L110.4935 137.8219
" />
<path d="M110.4935 137.8219
L110.4935 138.2981
" />
<path d="M110.4935 138.2981
L110.3983 138.6790
" />
<path d="M110.3983 138.6790
L110.3030 138.8695
" />
<path d="M110.3030 138.8695
L110.2078 138.9647
" />
<path d="M110.2078 138.9647
L110.0173 139.0600
" />
<path d="M110.0173 139.0600
L109.8268 139.0600
" />
<path d="M109.8268 139.0600
L109.6364 138.9647
" />
<path d="M109.6364 138.9647
L109.5411 138.8695
" />
<path d="M109.5411 138.8695
L109.4459 138.6790
" />
<path d="M109.4459 138.6790
L109.3507 138.2981
" />
<path d="M109.3507 138.2981
L109.3507 137.8219
" />
<path d="M109.3507 137.8219
L109.4459 137.4409
" />
<path d="M109.4459 137.4409
L109.5411 137.2505
" />
<path d="M109.5411 137.2505
L109.6364 137.1552
" />
<path d="M109.6364 137.1552
L109.8268 137.0600
" />
<path d="M111.7316 137.0600
L111.9221 137.0600
" />
<path d="M111.9221 137.0600
L112.1126 137.1552
" />
<path d="M112.1126 137.1552
L112.2078 137.2505
" />
<path d="M112.2078 137.2505
L112.3030 137.4409
" />
<path d="M112.3030 137.4409
L112.3983 137.8219
" />
<path d="M112.3983 137.8219
L112.3983 138.2981
" />
<path d="M112.3983 138.2981
L112.3030 138.6790
" />
<path d="M112.3030 138.6790
L112.2078 138.8695
" />
<path d="M112.2078 138.8695
L112.1126 138.9647
" />
<path d="M112.1126 138.9647
L111.9221 139.0600
" />
<path d="M111.9221 139.0600
L111.7316 139.0600
" />
<path d="M111.7316 139.0600
L111.5411 138.9647
" />
<path d="M111.5411 138.9647
L111.4459 138.8695
" />
<path d="M111.4459 138.8695
L111.3507 138.6790
" />
<path d="M111.3507 138.6790
L111.2554 138.2981
" />
<path d="M111.2554 138.2981
L111.2554 137.8219
" />
<path d="M111.2554 137.8219
L111.3507 137.4409
" />
<path d="M111.3507 137.4409
L111.4459 137.2505
" />
<path d="M111.4459 137.2505
L111.5411 137.1552
" />
<path d="M111.5411 137.1552
L111.7316 137.0600
" />
<path d="M113.2554 139.0600
L113.2554 137.7266
" />
<path d="M113.2554 137.9171
L113.3507 137.8219
" />
<path d="M113.3507 137.8219
L113.5411 137.7266
" />
<path d="M113.5411 137.7266
L113.8268 137.7266
" />
<path d="M113.8268 137.7266
L114.0173 137.8219
" />
<path d="M114.0173 137.8219
L114.1126 138.0124
" />
<path d="M114.1126 138.0124
L114.1126 139.0600
" />
<path d="M114.1126 138.0124
L114.2078 137.8219
" />
<path d="M114.2078 137.8219
L114.3983 137.7266
" />
<path d="M114.3983 137.7266
L114.6840 137.7266
" />
<path d="M114.6840 137.7266
L114.8745 137.8219
" />
<path d="M114.8745 137.8219
L114.9697 138.0124
" />
<path d="M114.9697 138.0124
L114.9697 139.0600
" />
<path d="M115.9221 139.0600
L115.9221 137.7266
" />
<path d="M115.9221 137.9171
L116.0173 137.8219
" />
<path d="M116.0173 137.8219
L116.2078 137.7266
" />
<path d="M116.2078 137.7266
L116.4935 137.7266
" />
<path d="M116.4935 137.7266
L116.6840 137.8219
" />
<path d="M116.6840 137.8219
L116.7792 138.0124
" />
<path d="M116.7792 138.0124
L116.7792 139.0600
" />
<path d="M116.7792 138.0124
L116.8745 137.8219
" />
<path d="M116.8745 137.8219
L117.0649 137.7266
" />
<path d="M117.0649 137.7266
L117.3507 137.7266
" />
<path d="M117.3507 137.7266
L117.5411 137.8219
" />
<path d="M117.5411 137.8219
L117.6364 138.0124
" />
<path d="M117.6364 138.0124
L117.6364 139.0600
" />
<path d="M121.5411 136.9647
L119.8268 139.5362
" />
<path d="M124.1126 137.0600
L124.3030 137.0600
" />
<path d="M124.3030 137.0600
L124.4935 137.1552
" />
<path d="M124.4935 137.1552
L124.5887 137.2505
" />
<path d="M124.5887 137.2505
L124.6840 137.4409
" />
<path d="M124.6840 137.4409
L124.7792 137.8219
" />
<path d="M124.7792 137.8219
L124.7792 138.2981
" />
<path d="M124.7792 138.2981
L124.6840 138.6790
" />
<path d="M124.6840 138.6790
L124.5887 138.8695
" />
<path d="M124.5887 138.8695
L124.4935 138.9647
" />
<path d="M124.4935 138.9647
L124.3030 139.0600
" />
<path d="M124.3030 139.0600
L124.1126 139.0600
" />
<path d="M124.1126 139.0600
L123.9221 138.9647
" />
<path d="M123.9221 138.9647
L123.8268 138.8695
" />
<path d="M123.8268 138.8695
L123.7316 138.6790
" />
<path d="M123.7316 138.6790
L123.6364 138.2981
" />
<path d="M123.6364 138.2981
L123.6364 137.8219
" />
<path d="M123.6364 137.8219
L123.7316 137.4409
" />
<path d="M123.7316 137.4409
L123.8268 137.2505
" />
<path d="M123.8268 137.2505
L123.9221 137.1552
" />
<path d="M123.9221 137.1552
L124.1126 137.0600
" />
<path d="M125.6364 138.8695
L125.7316 138.9647
" />
<path d="M125.7316 138.9647
L125.6364 139.0600
" />
<path d="M125.6364 139.0600
L125.5411 138.9647
" />
<path d="M125.5411 138.9647
L125.6364 138.8695
" />
<path d="M125.6364 138.8695
L125.6364 139.0600
" />
<path d="M127.6364 139.0600
L126.4935 139.0600
" />
<path d="M127.0649 139.0600
L127.0649 137.0600
" />
<path d="M127.0649 137.0600
L126.8745 137.3457
" />
<path d="M126.8745 137.3457
L126.6840 137.5362
" />
<path d="M126.6840 137.5362
L126.4935 137.6314
" />
<path d="M128.3983 137.2505
L128.4935 137.1552
" />
<path d="M128.4935 137.1552
L128.6840 137.0600
" />
<path d="M128.6840 137.0600
L129.1602 137.0600
" />
<path d="M129.1602 137.0600
L129.3507 137.1552
" />
<path d="M129.3507 137.1552
L129.4459 137.2505
" />
<path d="M129.4459 137.2505
L129.5411 137.4409
" />
<path d="M129.5411 137.4409
L129.5411 137.6314
" />
<path d="M129.5411 137.6314
L129.4459 137.9171
" />
<path d="M129.4459 137.9171
L128.3030 139.0600
" />
<path d="M128.3030 139.0600
L129.5411 139.0600
" />
<path d="M131.2554 137.0600
L130.8745 137.0600
" />
<path d="M130.8745 137.0600
L130.6840 137.1552
" />
<path d="M130.6840 137.1552
L130.5888 137.2505
" />
<path d="M130.5888 137.2505
L130.3983 137.5362
" />
<path d="M130.3983 137.5362
L130.3030 137.9171
" />
<path d="M130.3030 137.9171
L130.3030 138.6790
" />
<path d="M130.3030 138.6790
L130.3983 138.8695
" />
<path d="M130.3983 138.8695
L130.4935 138.9647
" />
<path d="M130.4935 138.9647
L130.6840 139.0600
" />
<path d="M130.6840 139.0600
L131.0649 139.0600
" />
<path d="M131.0649 139.0600
L131.2554 138.9647
" />
<path d="M131.2554 138.9647
L131.3507 138.8695
" />
<path d="M131.3507 138.8695
L131.4459 138.6790
" />
<path d="M131.4459 138.6790
L131.4459 138.2028
" />
<path d="M131.4459 138.2028
L131.3507 138.0124
" />
<path d="M131.3507 138.0124
L131.2554 137.9171
" />
<path d="M131.2554 137.9171
L131.0649 137.8219
" />
<path d="M131.0649 137.8219
L130.6840 137.8219
" />
<path d="M130.6840 137.8219
L130.4935 137.9171
" />
<path d="M130.4935 137.9171
L130.3983 138.0124
" />
<path d="M130.3983 138.0124
L130.3030 138.2028
" />
<path d="M132.6840 137.0600
L132.8745 137.0600
" />
<path d="M132.8745 137.0600
L133.0649 137.1552
" />
<path d="M133.0649 137.1552
L133.1602 137.2505
" />
<path d="M133.1602 137.2505
L133.2554 137.4409
" />
<path d="M133.2554 137.4409
L133.3507 137.8219
" />
<path d="M133.3507 137.8219
L133.3507 138.2981
" />
<path d="M133.3507 138.2981
L133.2554 138.6790
" />
<path d="M133.2554 138.6790
L133.1602 138.8695
" />
<path d="M133.1602 138.8695
L133.0649 138.9647
" />
<path d="M133.0649 138.9647
L132.8745 139.0600
" />
<path d="M132.8745 139.0600
L132.6840 139.0600
" />
<path d="M132.6840 139.0600
L132.4935 138.9647
" />
<path d="M132.4935 138.9647
L132.3983 138.8695
" />
<path d="M132.3983 138.8695
L132.3030 138.6790
" />
<path d="M132.3030 138.6790
L132.2078 138.2981
" />
<path d="M132.2078 138.2981
L132.2078 137.8219
" />
<path d="M132.2078 137.8219
L132.3030 137.4409
" />
<path d="M132.3030 137.4409
L132.3983 137.2505
" />
<path d="M132.3983 137.2505
L132.4935 137.1552
" />
<path d="M132.4935 137.1552
L132.6840 137.0600
" />
<path d="M134.1126 137.0600
L134.1126 137.4409
" />
<path d="M134.8745 137.0600
L134.8745 137.4409
" />
<path d="M137.8268 139.8219
L137.7316 139.7266
" />
<path d="M137.7316 139.7266
L137.5411 139.4409
" />
<path d="M137.5411 139.4409
L137.4459 139.2505
" />
<path d="M137.4459 139.2505
L137.3507 138.9647
" />
<path d="M137.3507 138.9647
L137.2554 138.4885
" />
<path d="M137.2554 138.4885
L137.2554 138.1076
" />
<path d="M137.2554 138.1076
L137.3507 137.6314
" />
<path d="M137.3507 137.6314
L137.4459 137.3457
" />
<path d="M137.4459 137.3457
L137.5411 137.1552
" />
<path d="M137.5411 137.1552
L137.7316 136.8695
" />
<path d="M137.7316 136.8695
L137.8268 136.7743
" />
<path d="M139.6364 139.0600
L138.4935 139.0600
" />
<path d="M139.0649 139.0600
L139.0649 137.0600
" />
<path d="M139.0649 137.0600
L138.8745 137.3457
" />
<path d="M138.8745 137.3457
L138.6840 137.5362
" />
<path d="M138.6840 137.5362
L138.4935 137.6314
" />
<path d="M142.0173 139.0600
L142.0173 137.0600
" />
<path d="M142.8745 139.0600
L142.8745 138.0124
" />
<path d="M142.8745 138.0124
L142.7792 137.8219
" />
<path d="M142.7792 137.8219
L142.5887 137.7266
" />
<path d="M142.5887 137.7266
L142.3030 137.7266
" />
<path d="M142.3030 137.7266
L142.1126 137.8219
" />
<path d="M142.1126 137.8219
L142.0173 137.9171
" />
<path d="M144.1126 139.0600
L143.9221 138.9647
" />
<path d="M143.9221 138.9647
L143.8268 138.8695
" />
<path d="M143.8268 138.8695
L143.7316 138.6790
" />
<path d="M143.7316 138.6790
L143.7316 138.1076
" />
<path d="M143.7316 138.1076
L143.8268 137.9171
" />
<path d="M143.8268 137.9171
L143.9221 137.8219
" />
<path d="M143.9221 137.8219
L144.1126 137.7266
" />
<path d="M144.1126 137.7266
L144.3983 137.7266
" />
<path d="M144.3983 137.7266
L144.5887 137.8219
" />
<path d="M144.5887 137.8219
L144.6840 137.9171
" />
<path d="M144.6840 137.9171
L144.7792 138.1076
" />
<path d="M144.7792 138.1076
L144.7792 138.6790
" />
<path d="M144.7792 138.6790
L144.6840 138.8695
" />
<path d="M144.6840 138.8695
L144.5887 138.9647
" />
<path d="M144.5887 138.9647
L144.3983 139.0600
" />
<path d="M144.3983 139.0600
L144.1126 139.0600
" />
<path d="M145.9221 139.0600
L145.7316 138.9647
" />
<path d="M145.7316 138.9647
L145.6364 138.7743
" />
<path d="M145.6364 138.7743
L145.6364 137.0600
" />
<path d="M147.4459 138.9647
L147.2554 139.0600
" />
<path d="M147.2554 139.0600
L146.8745 139.0600
" />
<path d="M146.8745 139.0600
L146.6840 138.9647
" />
<path d="M146.6840 138.9647
L146.5887 138.7743
" />
<path d="M146.5887 138.7743
L146.5887 138.0124
" />
<path d="M146.5887 138.0124
L146.6840 137.8219
" />
<path d="M146.6840 137.8219
L146.8745 137.7266
" />
<path d="M146.8745 137.7266
L147.2554 137.7266
" />
<path d="M147.2554 137.7266
L147.4459 137.8219
" />
<path d="M147.4459 137.8219
L147.5411 138.0124
" />
<path d="M147.5411 138.0124
L147.5411 138.2028
" />
<path d="M147.5411 138.2028
L146.5887 138.3933
" />
<path d="M148.2078 139.8219
L148.3030 139.7266
" />
<path d="M148.3030 139.7266
L148.4935 139.4409
" />
<path d="M148.4935 139.4409
L148.5887 139.2505
" />
<path d="M148.5887 139.2505
L148.6840 138.9647
" />
<path d="M148.6840 138.9647
L148.7792 138.4885
" />
<path d="M148.7792 138.4885
L148.7792 138.1076
" />
<path d="M148.7792 138.1076
L148.6840 137.6314
" />
<path d="M148.6840 137.6314
L148.5887 137.3457
" />
<path d="M148.5887 137.3457
L148.4935 137.1552
" />
<path d="M148.4935 137.1552
L148.3030 136.8695
" />
<path d="M148.3030 136.8695
L148.2078 136.7743
" />
</g></g> 
</svg>
