%TF.GenerationSoftware,KiCad,Pcbnew,8.0.4-8.0.4-0~ubuntu22.04.1*%
%TF.CreationDate,2024-08-07T21:55:50+03:00*%
%TF.ProjectId,PM-RQ8,504d2d52-5138-42e6-9b69-6361645f7063,rev?*%
%TF.SameCoordinates,Original*%
%TF.FileFunction,Copper,L2,Bot*%
%TF.FilePolarity,Positive*%
%FSLAX46Y46*%
G04 Gerber Fmt 4.6, Leading zero omitted, Abs format (unit mm)*
G04 Created by KiCad (PCBNEW 8.0.4-8.0.4-0~ubuntu22.04.1) date 2024-08-07 21:55:50*
%MOMM*%
%LPD*%
G01*
G04 APERTURE LIST*
%TA.AperFunction,ComponentPad*%
%ADD10C,1.608000*%
%TD*%
%TA.AperFunction,ComponentPad*%
%ADD11R,3.500000X3.500000*%
%TD*%
%TA.AperFunction,ComponentPad*%
%ADD12C,3.500000*%
%TD*%
%TA.AperFunction,ComponentPad*%
%ADD13O,6.350000X6.350000*%
%TD*%
%TA.AperFunction,ComponentPad*%
%ADD14R,1.700000X1.700000*%
%TD*%
%TA.AperFunction,ComponentPad*%
%ADD15O,1.700000X1.700000*%
%TD*%
%TA.AperFunction,ViaPad*%
%ADD16C,0.600000*%
%TD*%
%TA.AperFunction,ViaPad*%
%ADD17C,1.200000*%
%TD*%
%TA.AperFunction,Conductor*%
%ADD18C,0.200000*%
%TD*%
%TA.AperFunction,Conductor*%
%ADD19C,1.000000*%
%TD*%
%TA.AperFunction,Conductor*%
%ADD20C,0.400000*%
%TD*%
G04 APERTURE END LIST*
D10*
%TO.P,K4,1,1*%
%TO.N,/K4*%
X43180000Y-30860000D03*
%TO.P,K4,2,2*%
%TO.N,Net-(J10-Pin_8)*%
X31680000Y-30860000D03*
%TO.P,K4,3,3*%
%TO.N,Net-(J10-Pin_7)*%
X24680000Y-30860000D03*
%TO.P,K4,4,4*%
%TO.N,+5V*%
X43180000Y-35560000D03*
%TD*%
%TO.P,K5,1,1*%
%TO.N,/K5*%
X43180000Y-63500000D03*
%TO.P,K5,2,2*%
%TO.N,Net-(J10-Pin_12)*%
X31680000Y-63500000D03*
%TO.P,K5,3,3*%
%TO.N,Net-(J10-Pin_11)*%
X24680000Y-63500000D03*
%TO.P,K5,4,4*%
%TO.N,+5V*%
X43180000Y-68200000D03*
%TD*%
D11*
%TO.P,J10,1,Pin_1*%
%TO.N,Net-(J10-Pin_1)*%
X5080000Y-6350000D03*
D12*
%TO.P,J10,2,Pin_2*%
%TO.N,Net-(J10-Pin_2)*%
X5080000Y-11430000D03*
%TO.P,J10,3,Pin_3*%
%TO.N,Net-(J10-Pin_3)*%
X5080000Y-16510000D03*
%TO.P,J10,4,Pin_4*%
%TO.N,Net-(J10-Pin_4)*%
X5080000Y-21590000D03*
%TO.P,J10,5,Pin_5*%
%TO.N,Net-(J10-Pin_5)*%
X5080000Y-26670000D03*
%TO.P,J10,6,Pin_6*%
%TO.N,Net-(J10-Pin_6)*%
X5080000Y-31750000D03*
%TO.P,J10,7,Pin_7*%
%TO.N,Net-(J10-Pin_7)*%
X5080000Y-36830000D03*
%TO.P,J10,8,Pin_8*%
%TO.N,Net-(J10-Pin_8)*%
X5080000Y-41910000D03*
%TO.P,J10,9,Pin_9*%
%TO.N,PE*%
X5080000Y-46990000D03*
%TO.P,J10,10,Pin_10*%
X5080000Y-52070000D03*
%TO.P,J10,11,Pin_11*%
%TO.N,Net-(J10-Pin_11)*%
X5080000Y-57150000D03*
%TO.P,J10,12,Pin_12*%
%TO.N,Net-(J10-Pin_12)*%
X5080000Y-62230000D03*
%TO.P,J10,13,Pin_13*%
%TO.N,Net-(J10-Pin_13)*%
X5080000Y-67310000D03*
%TO.P,J10,14,Pin_14*%
%TO.N,Net-(J10-Pin_14)*%
X5080000Y-72390000D03*
%TO.P,J10,15,Pin_15*%
%TO.N,Net-(J10-Pin_15)*%
X5080000Y-77470000D03*
%TO.P,J10,16,Pin_16*%
%TO.N,Net-(J10-Pin_16)*%
X5080000Y-82550000D03*
%TO.P,J10,17,Pin_17*%
%TO.N,Net-(J10-Pin_17)*%
X5080000Y-87630000D03*
%TO.P,J10,18,Pin_18*%
%TO.N,Net-(J10-Pin_18)*%
X5080000Y-92710000D03*
%TD*%
D10*
%TO.P,K6,1,1*%
%TO.N,/K6*%
X43180000Y-71120000D03*
%TO.P,K6,2,2*%
%TO.N,Net-(J10-Pin_14)*%
X31680000Y-71120000D03*
%TO.P,K6,3,3*%
%TO.N,Net-(J10-Pin_13)*%
X24680000Y-71120000D03*
%TO.P,K6,4,4*%
%TO.N,+5V*%
X43180000Y-75820000D03*
%TD*%
%TO.P,K8,1,1*%
%TO.N,/K8*%
X43180000Y-86360000D03*
%TO.P,K8,2,2*%
%TO.N,Net-(J10-Pin_18)*%
X31680000Y-86360000D03*
%TO.P,K8,3,3*%
%TO.N,Net-(J10-Pin_17)*%
X24680000Y-86360000D03*
%TO.P,K8,4,4*%
%TO.N,+5V*%
X43180000Y-91060000D03*
%TD*%
%TO.P,K1,1,1*%
%TO.N,/K1*%
X43180000Y-8000000D03*
%TO.P,K1,2,2*%
%TO.N,Net-(J10-Pin_2)*%
X31680000Y-8000000D03*
%TO.P,K1,3,3*%
%TO.N,Net-(J10-Pin_1)*%
X24680000Y-8000000D03*
%TO.P,K1,4,4*%
%TO.N,+5V*%
X43180000Y-12700000D03*
%TD*%
%TO.P,K7,1,1*%
%TO.N,/K7*%
X43180000Y-78740000D03*
%TO.P,K7,2,2*%
%TO.N,Net-(J10-Pin_16)*%
X31680000Y-78740000D03*
%TO.P,K7,3,3*%
%TO.N,Net-(J10-Pin_15)*%
X24680000Y-78740000D03*
%TO.P,K7,4,4*%
%TO.N,+5V*%
X43180000Y-83440000D03*
%TD*%
D13*
%TO.P,PE1,1*%
%TO.N,PE*%
X19050000Y-95250000D03*
%TD*%
D14*
%TO.P,J1,1,1*%
%TO.N,+3.3V*%
X15240000Y-45720000D03*
D15*
%TO.P,J1,2,2*%
X17780000Y-45720000D03*
%TO.P,J1,3,3*%
%TO.N,/MOSI*%
X15240000Y-48260000D03*
%TO.P,J1,4,4*%
%TO.N,/SCK*%
X17780000Y-48260000D03*
%TO.P,J1,5,5*%
%TO.N,/MISO*%
X15240000Y-50800000D03*
%TO.P,J1,6,6*%
%TO.N,/CS2*%
X17780000Y-50800000D03*
%TO.P,J1,7,7*%
%TO.N,GND*%
X15240000Y-53340000D03*
%TO.P,J1,8,8*%
X17780000Y-53340000D03*
%TD*%
D10*
%TO.P,K3,1,1*%
%TO.N,/K3*%
X43180000Y-23240000D03*
%TO.P,K3,2,2*%
%TO.N,Net-(J10-Pin_6)*%
X31680000Y-23240000D03*
%TO.P,K3,3,3*%
%TO.N,Net-(J10-Pin_5)*%
X24680000Y-23240000D03*
%TO.P,K3,4,4*%
%TO.N,+5V*%
X43180000Y-27940000D03*
%TD*%
%TO.P,K2,1,1*%
%TO.N,/K2*%
X43180000Y-15620000D03*
%TO.P,K2,2,2*%
%TO.N,Net-(J10-Pin_4)*%
X31680000Y-15620000D03*
%TO.P,K2,3,3*%
%TO.N,Net-(J10-Pin_3)*%
X24680000Y-15620000D03*
%TO.P,K2,4,4*%
%TO.N,+5V*%
X43180000Y-20320000D03*
%TD*%
D14*
%TO.P,J2,1,Pin_1*%
%TO.N,/SDA*%
X95250000Y-44450000D03*
D15*
%TO.P,J2,2,Pin_2*%
%TO.N,/SCL*%
X95250000Y-46990000D03*
%TO.P,J2,3,Pin_3*%
%TO.N,+5V*%
X95250000Y-49530000D03*
%TO.P,J2,4,Pin_4*%
%TO.N,+3.3V*%
X95250000Y-52070000D03*
%TO.P,J2,5,Pin_5*%
%TO.N,GND*%
X95250000Y-54610000D03*
%TD*%
%TO.P,PM1,1,NC*%
%TO.N,unconnected-(PM1-NC-Pad1)*%
X95250000Y-10160000D03*
%TO.P,PM1,2,GPIO2*%
%TO.N,/MOSI*%
X95250000Y-12700000D03*
%TO.P,PM1,3,GPIO3*%
%TO.N,/MISO*%
X95250000Y-15240000D03*
%TO.P,PM1,4,GPIO9*%
%TO.N,/SCK*%
X95250000Y-17780000D03*
%TO.P,PM1,5,GPIO8*%
%TO.N,/CS1*%
X95250000Y-20320000D03*
%TO.P,PM1,6,GPIO7*%
%TO.N,/CS2*%
X95250000Y-22860000D03*
%TO.P,PM1,7,GPIO6*%
%TO.N,unconnected-(PM1-GPIO6-Pad7)*%
X95250000Y-25400000D03*
%TO.P,PM1,8,GPIO5*%
%TO.N,unconnected-(PM1-GPIO5-Pad8)*%
X95250000Y-27940000D03*
%TO.P,PM1,9,GPIO4*%
%TO.N,unconnected-(PM1-GPIO4-Pad9)*%
X95250000Y-30480000D03*
%TO.P,PM1,10,+3.3V*%
%TO.N,+3.3V*%
X95250000Y-33020000D03*
%TO.P,PM1,11,GND*%
%TO.N,GND*%
X95250000Y-35560000D03*
%TO.P,PM1,12,SDA*%
%TO.N,/SDA*%
X95250000Y-38100000D03*
%TO.P,PM1,13,SCL*%
%TO.N,/SCL*%
X95250000Y-40640000D03*
%TO.P,PM1,14,GND*%
%TO.N,GND*%
X68580000Y-2540000D03*
%TD*%
D16*
%TO.N,GND*%
X71120000Y-27940000D03*
X68580000Y-30480000D03*
X71120000Y-43180000D03*
X71120000Y-60960000D03*
X71120000Y-63500000D03*
X68580000Y-27940000D03*
X68580000Y-63500000D03*
X81280000Y-50800000D03*
X45720000Y-53340000D03*
X71120000Y-30480000D03*
X68580000Y-60960000D03*
X78740000Y-50800000D03*
X45720000Y-55880000D03*
%TO.N,/K7*%
X54946000Y-53993000D03*
%TO.N,/K3*%
X53889200Y-48021100D03*
%TO.N,/K8*%
X55073900Y-56827000D03*
%TO.N,/K4*%
X50168200Y-47244100D03*
%TO.N,/K1*%
X57215000Y-39310200D03*
%TO.N,/K2*%
X56040000Y-43261300D03*
D17*
%TO.N,+3.3V*%
X57290500Y-55744000D03*
X53717400Y-50888000D03*
D16*
%TO.N,/MOSI*%
X54669700Y-50092000D03*
X81203000Y-44933000D03*
%TO.N,/MISO*%
X79817000Y-45293600D03*
X19905600Y-46001600D03*
%TO.N,/SCK*%
X19740200Y-44714400D03*
%TD*%
D18*
%TO.N,/SCL*%
X95250000Y-40640000D02*
X96402000Y-41792000D01*
X96402000Y-41792000D02*
X96402000Y-45838000D01*
X96402000Y-45838000D02*
X95250000Y-46990000D01*
%TO.N,/SDA*%
X95250000Y-44450000D02*
X94098000Y-43298000D01*
X94098000Y-43298000D02*
X94098000Y-39252000D01*
X94098000Y-39252000D02*
X95250000Y-38100000D01*
%TO.N,/MOSI*%
X95250000Y-12700000D02*
X81203000Y-26747000D01*
X81203000Y-26747000D02*
X81203000Y-44687100D01*
%TO.N,/MISO*%
X95250000Y-15240000D02*
X96407000Y-16397000D01*
X94847000Y-24130000D02*
X84257000Y-34720100D01*
X81464000Y-45534800D02*
X80058000Y-45534800D01*
X96407000Y-16397000D02*
X96407000Y-23359900D01*
X84257000Y-42741900D02*
X81464000Y-45534800D01*
X96407000Y-23359900D02*
X95637000Y-24130000D01*
X95637000Y-24130000D02*
X94847000Y-24130000D01*
X84257000Y-34720100D02*
X84257000Y-42741900D01*
X80058000Y-45534800D02*
X79817000Y-45293600D01*
D19*
%TO.N,Net-(J10-Pin_7)*%
X6536000Y-35374000D02*
X5080000Y-36830000D01*
X20166000Y-35374000D02*
X6536000Y-35374000D01*
X24680000Y-30860000D02*
X20166000Y-35374000D01*
%TO.N,Net-(J10-Pin_16)*%
X31680000Y-78740000D02*
X27870000Y-82550000D01*
X27870000Y-82550000D02*
X5080000Y-82550000D01*
%TO.N,Net-(J10-Pin_5)*%
X21250000Y-26670000D02*
X5080000Y-26670000D01*
X24680000Y-23240000D02*
X21250000Y-26670000D01*
D18*
%TO.N,/K7*%
X44995800Y-63943000D02*
X44995800Y-76924000D01*
X44995800Y-76924000D02*
X43180000Y-78740000D01*
X54946000Y-53993000D02*
X44995800Y-63943000D01*
%TO.N,/K3*%
X43180000Y-23240000D02*
X53889200Y-33949200D01*
X53889200Y-33949200D02*
X53889200Y-48021100D01*
%TO.N,/K8*%
X55073900Y-56827000D02*
X55073900Y-74466000D01*
X55073900Y-74466000D02*
X43180000Y-86360000D01*
%TO.N,/K4*%
X43180000Y-30860000D02*
X50168200Y-37848200D01*
X50168200Y-37848200D02*
X50168200Y-47244100D01*
%TO.N,/K1*%
X57215000Y-22035000D02*
X43180000Y-8000000D01*
X57215000Y-39310200D02*
X57215000Y-22035000D01*
%TO.N,/K2*%
X56040000Y-28480000D02*
X56040000Y-43261300D01*
X43180000Y-15620000D02*
X56040000Y-28480000D01*
D19*
%TO.N,Net-(J10-Pin_4)*%
X31680000Y-15620000D02*
X29748758Y-15620000D01*
X23778758Y-21590000D02*
X5080000Y-21590000D01*
X29748758Y-15620000D02*
X23778758Y-21590000D01*
%TO.N,Net-(J10-Pin_6)*%
X21238758Y-31750000D02*
X5080000Y-31750000D01*
X29748758Y-23240000D02*
X21238758Y-31750000D01*
X31680000Y-23240000D02*
X29748758Y-23240000D01*
%TO.N,Net-(J10-Pin_14)*%
X5614000Y-72924000D02*
X5080000Y-72390000D01*
X31680000Y-71120000D02*
X29876000Y-72924000D01*
X29876000Y-72924000D02*
X5614000Y-72924000D01*
%TO.N,Net-(J10-Pin_8)*%
X25666000Y-36874000D02*
X8925088Y-36874000D01*
X31680000Y-30860000D02*
X25666000Y-36874000D01*
X8925088Y-36874000D02*
X5080000Y-40719088D01*
X5080000Y-40719088D02*
X5080000Y-41910000D01*
%TO.N,Net-(J10-Pin_15)*%
X23410000Y-77470000D02*
X5080000Y-77470000D01*
X24680000Y-78740000D02*
X23410000Y-77470000D01*
%TO.N,Net-(J10-Pin_13)*%
X24680000Y-71120000D02*
X20870000Y-67310000D01*
X20870000Y-67310000D02*
X5080000Y-67310000D01*
%TO.N,Net-(J10-Pin_12)*%
X31680000Y-63500000D02*
X29876000Y-65304000D01*
X8154000Y-65304000D02*
X5080000Y-62230000D01*
X29876000Y-65304000D02*
X8154000Y-65304000D01*
%TO.N,Net-(J10-Pin_2)*%
X28250000Y-11430000D02*
X5080000Y-11430000D01*
X31680000Y-8000000D02*
X28250000Y-11430000D01*
%TO.N,Net-(J10-Pin_3)*%
X23790000Y-16510000D02*
X5080000Y-16510000D01*
X24680000Y-15620000D02*
X23790000Y-16510000D01*
%TO.N,Net-(J10-Pin_1)*%
X24680000Y-8000000D02*
X24048831Y-8631169D01*
X7361169Y-8631169D02*
X5080000Y-6350000D01*
X24048831Y-8631169D02*
X7361169Y-8631169D01*
%TO.N,Net-(J10-Pin_11)*%
X11430000Y-63500000D02*
X5080000Y-57150000D01*
X24680000Y-63500000D02*
X11430000Y-63500000D01*
D20*
%TO.N,+5V*%
X41974300Y-36765700D02*
X43180000Y-35560000D01*
X41943500Y-13936500D02*
X41943500Y-19083500D01*
X41974300Y-84646000D02*
X41974300Y-89854000D01*
X41972700Y-29147300D02*
X41972700Y-34352700D01*
X43180000Y-12700000D02*
X41943500Y-13936500D01*
X43180000Y-68200000D02*
X41943500Y-69436000D01*
X43180000Y-68200000D02*
X41974300Y-66994000D01*
X43180000Y-75820000D02*
X41943500Y-77056000D01*
X41943500Y-74584000D02*
X43180000Y-75820000D01*
X41943500Y-26703500D02*
X43180000Y-27940000D01*
X41974300Y-66994000D02*
X41974300Y-36765700D01*
X43180000Y-20320000D02*
X41943500Y-21556500D01*
X41943500Y-82204000D02*
X43180000Y-83440000D01*
X43180000Y-83440000D02*
X41974300Y-84646000D01*
X41943500Y-69436000D02*
X41943500Y-74584000D01*
X41972700Y-34352700D02*
X43180000Y-35560000D01*
X41943500Y-19083500D02*
X43180000Y-20320000D01*
X43180000Y-27940000D02*
X41972700Y-29147300D01*
X41943500Y-77056000D02*
X41943500Y-82204000D01*
X41974300Y-89854000D02*
X43180000Y-91060000D01*
X41943500Y-21556500D02*
X41943500Y-26703500D01*
%TO.N,+3.3V*%
X57290500Y-54461000D02*
X53717400Y-50888000D01*
X57290500Y-55744000D02*
X57290500Y-54461000D01*
D18*
%TO.N,/MOSI*%
X81203000Y-44687100D02*
X60074300Y-44687100D01*
X81203000Y-44687100D02*
X81203000Y-44933000D01*
X60074300Y-44687100D02*
X54669700Y-50092000D01*
%TO.N,/MISO*%
X19905600Y-47770600D02*
X18146200Y-49530000D01*
X16510000Y-49530000D02*
X15240000Y-50800000D01*
X19905600Y-46001600D02*
X19905600Y-47770600D01*
X18146200Y-49530000D02*
X16510000Y-49530000D01*
%TO.N,/SCK*%
X18930000Y-47110000D02*
X17780000Y-48260000D01*
X19740200Y-44714400D02*
X18930000Y-45524600D01*
X18930000Y-45524600D02*
X18930000Y-47110000D01*
D19*
%TO.N,Net-(J10-Pin_17)*%
X23410000Y-87630000D02*
X5080000Y-87630000D01*
X24680000Y-86360000D02*
X23410000Y-87630000D01*
%TO.N,Net-(J10-Pin_18)*%
X28910000Y-89130000D02*
X8660000Y-89130000D01*
X8660000Y-89130000D02*
X5080000Y-92710000D01*
X31680000Y-86360000D02*
X28910000Y-89130000D01*
%TD*%
%TA.AperFunction,Conductor*%
%TO.N,PE*%
G36*
X6353243Y-500669D02*
G01*
X6689450Y-518290D01*
X6702358Y-519647D01*
X7031677Y-571806D01*
X7044342Y-574497D01*
X7366422Y-660798D01*
X7378749Y-664803D01*
X7690038Y-784296D01*
X7701873Y-789565D01*
X7998976Y-940947D01*
X8010191Y-947423D01*
X8289832Y-1129023D01*
X8300313Y-1136638D01*
X8559441Y-1346475D01*
X8569086Y-1355160D01*
X8804839Y-1590913D01*
X8813524Y-1600558D01*
X9023359Y-1859683D01*
X9030978Y-1870171D01*
X9212573Y-2149802D01*
X9219055Y-2161029D01*
X9348834Y-2415733D01*
X9370429Y-2458115D01*
X9375708Y-2469972D01*
X9495193Y-2781241D01*
X9499204Y-2793586D01*
X9585498Y-3115642D01*
X9588196Y-3128337D01*
X9640352Y-3457641D01*
X9641709Y-3470549D01*
X9659330Y-3806756D01*
X9659500Y-3813246D01*
X9659500Y-5239342D01*
X9692812Y-5556295D01*
X9692813Y-5556296D01*
X9759070Y-5868014D01*
X9759071Y-5868015D01*
X9759072Y-5868019D01*
X9857553Y-6171113D01*
X9924540Y-6321569D01*
X9987178Y-6462257D01*
X9987181Y-6462262D01*
X10146520Y-6738246D01*
X10146520Y-6738247D01*
X10333851Y-6996083D01*
X10429267Y-7102052D01*
X10547091Y-7232909D01*
X10676945Y-7349830D01*
X10748789Y-7414519D01*
X10785438Y-7474006D01*
X10784107Y-7543863D01*
X10745221Y-7601911D01*
X10681124Y-7629721D01*
X10665817Y-7630669D01*
X7826951Y-7630669D01*
X7759912Y-7610984D01*
X7739270Y-7594350D01*
X7366818Y-7221898D01*
X7333333Y-7160575D01*
X7330499Y-7134217D01*
X7330499Y-4552129D01*
X7330498Y-4552123D01*
X7330497Y-4552116D01*
X7324091Y-4492517D01*
X7273796Y-4357669D01*
X7273795Y-4357668D01*
X7273793Y-4357664D01*
X7187547Y-4242455D01*
X7187544Y-4242452D01*
X7072335Y-4156206D01*
X7072328Y-4156202D01*
X6937482Y-4105908D01*
X6937483Y-4105908D01*
X6877883Y-4099501D01*
X6877881Y-4099500D01*
X6877873Y-4099500D01*
X6877864Y-4099500D01*
X3282129Y-4099500D01*
X3282123Y-4099501D01*
X3222516Y-4105908D01*
X3087671Y-4156202D01*
X3087664Y-4156206D01*
X2972455Y-4242452D01*
X2972452Y-4242455D01*
X2886206Y-4357664D01*
X2886202Y-4357671D01*
X2835908Y-4492517D01*
X2829501Y-4552116D01*
X2829501Y-4552123D01*
X2829500Y-4552135D01*
X2829500Y-8147870D01*
X2829501Y-8147876D01*
X2835908Y-8207483D01*
X2886202Y-8342328D01*
X2886206Y-8342335D01*
X2972452Y-8457544D01*
X2972455Y-8457547D01*
X3087664Y-8543793D01*
X3087671Y-8543797D01*
X3222517Y-8594091D01*
X3222516Y-8594091D01*
X3229444Y-8594835D01*
X3282127Y-8600500D01*
X5864217Y-8600499D01*
X5931256Y-8620184D01*
X5951898Y-8636818D01*
X6580904Y-9265824D01*
X6580933Y-9265855D01*
X6723383Y-9408305D01*
X6723387Y-9408308D01*
X6887248Y-9517797D01*
X6887261Y-9517804D01*
X7016002Y-9571130D01*
X7058913Y-9588904D01*
X7069333Y-9593220D01*
X7165981Y-9612444D01*
X7214304Y-9622056D01*
X7262627Y-9631669D01*
X7262628Y-9631669D01*
X24147373Y-9631669D01*
X24166701Y-9627824D01*
X24244019Y-9612444D01*
X24340667Y-9593220D01*
X24393996Y-9571130D01*
X24522745Y-9517801D01*
X24686613Y-9408308D01*
X24763635Y-9331284D01*
X24824956Y-9297801D01*
X24840500Y-9295440D01*
X24907389Y-9289589D01*
X25127870Y-9230512D01*
X25334742Y-9134046D01*
X25521719Y-9003122D01*
X25683122Y-8841719D01*
X25814046Y-8654742D01*
X25910512Y-8447870D01*
X25969589Y-8227389D01*
X25989483Y-8000000D01*
X25969589Y-7772611D01*
X25910512Y-7552130D01*
X25814046Y-7345259D01*
X25814044Y-7345255D01*
X25683121Y-7158280D01*
X25521722Y-6996881D01*
X25521712Y-6996872D01*
X25334745Y-6865955D01*
X25334741Y-6865953D01*
X25231306Y-6817721D01*
X25127870Y-6769488D01*
X25127866Y-6769487D01*
X25127862Y-6769485D01*
X24907394Y-6710412D01*
X24907390Y-6710411D01*
X24907389Y-6710411D01*
X24907388Y-6710410D01*
X24907383Y-6710410D01*
X24680002Y-6690517D01*
X24679998Y-6690517D01*
X24452616Y-6710410D01*
X24452605Y-6710412D01*
X24232137Y-6769485D01*
X24232128Y-6769489D01*
X24025259Y-6865953D01*
X24025255Y-6865955D01*
X23838280Y-6996878D01*
X23676878Y-7158280D01*
X23545955Y-7345255D01*
X23545953Y-7345259D01*
X23447200Y-7557037D01*
X23445373Y-7556185D01*
X23409146Y-7605363D01*
X23343871Y-7630282D01*
X23334076Y-7630669D01*
X14734183Y-7630669D01*
X14667144Y-7610984D01*
X14621389Y-7558180D01*
X14611445Y-7489022D01*
X14640470Y-7425466D01*
X14651211Y-7414519D01*
X14696690Y-7373568D01*
X14852909Y-7232909D01*
X15065432Y-6996878D01*
X15066148Y-6996083D01*
X15066148Y-6996081D01*
X15066155Y-6996075D01*
X15253478Y-6738248D01*
X15412824Y-6462253D01*
X15542447Y-6171113D01*
X15640928Y-5868019D01*
X15707188Y-5556292D01*
X15740500Y-5239346D01*
X15740500Y-5080000D01*
X15740500Y-5014108D01*
X15740500Y-3813246D01*
X15740670Y-3806756D01*
X15743953Y-3744108D01*
X15746856Y-3688711D01*
X17199500Y-3688711D01*
X17199500Y-3931288D01*
X17231161Y-4171785D01*
X17293947Y-4406104D01*
X17386773Y-4630205D01*
X17386776Y-4630212D01*
X17508064Y-4840289D01*
X17508066Y-4840292D01*
X17508067Y-4840293D01*
X17655733Y-5032736D01*
X17655739Y-5032743D01*
X17827256Y-5204260D01*
X17827263Y-5204266D01*
X17917082Y-5273186D01*
X18019711Y-5351936D01*
X18229788Y-5473224D01*
X18453900Y-5566054D01*
X18688211Y-5628838D01*
X18868586Y-5652584D01*
X18928711Y-5660500D01*
X18928712Y-5660500D01*
X19171289Y-5660500D01*
X19219388Y-5654167D01*
X19411789Y-5628838D01*
X19646100Y-5566054D01*
X19870212Y-5473224D01*
X20080289Y-5351936D01*
X20272738Y-5204265D01*
X20444265Y-5032738D01*
X20591936Y-4840289D01*
X20713224Y-4630212D01*
X20806054Y-4406100D01*
X20868838Y-4171789D01*
X20900500Y-3931288D01*
X20900500Y-3688712D01*
X20868838Y-3448211D01*
X20806054Y-3213900D01*
X20713224Y-2989788D01*
X20591936Y-2779711D01*
X20444265Y-2587262D01*
X20444260Y-2587256D01*
X20272743Y-2415739D01*
X20272736Y-2415733D01*
X20080293Y-2268067D01*
X20080292Y-2268066D01*
X20080289Y-2268064D01*
X19894909Y-2161035D01*
X19870214Y-2146777D01*
X19870205Y-2146773D01*
X19646104Y-2053947D01*
X19411785Y-1991161D01*
X19171289Y-1959500D01*
X19171288Y-1959500D01*
X18928712Y-1959500D01*
X18928711Y-1959500D01*
X18688214Y-1991161D01*
X18453895Y-2053947D01*
X18229794Y-2146773D01*
X18229785Y-2146777D01*
X18019706Y-2268067D01*
X17827263Y-2415733D01*
X17827256Y-2415739D01*
X17655739Y-2587256D01*
X17655733Y-2587263D01*
X17508067Y-2779706D01*
X17386777Y-2989785D01*
X17386773Y-2989794D01*
X17293947Y-3213895D01*
X17231161Y-3448214D01*
X17199500Y-3688711D01*
X15746856Y-3688711D01*
X15758290Y-3470547D01*
X15759647Y-3457641D01*
X15761141Y-3448211D01*
X15811806Y-3128318D01*
X15814496Y-3115661D01*
X15900799Y-2793571D01*
X15904801Y-2781256D01*
X16024298Y-2469954D01*
X16029561Y-2458133D01*
X16180951Y-2161014D01*
X16187417Y-2149816D01*
X16369029Y-1870158D01*
X16376631Y-1859695D01*
X16586483Y-1600548D01*
X16595150Y-1590923D01*
X16830923Y-1355150D01*
X16840548Y-1346483D01*
X17099695Y-1136631D01*
X17110158Y-1129029D01*
X17389816Y-947417D01*
X17401014Y-940951D01*
X17698133Y-789561D01*
X17709954Y-784298D01*
X18021256Y-664801D01*
X18033571Y-660799D01*
X18355661Y-574496D01*
X18368318Y-571806D01*
X18697643Y-519646D01*
X18710547Y-518290D01*
X19046756Y-500669D01*
X19053246Y-500500D01*
X36706000Y-500500D01*
X36773039Y-520185D01*
X36818794Y-572989D01*
X36830000Y-624500D01*
X36830000Y-4956000D01*
X36810315Y-5023039D01*
X36757511Y-5068794D01*
X36706000Y-5080000D01*
X35560000Y-5080000D01*
X35560000Y-37976000D01*
X35540315Y-38043039D01*
X35487511Y-38088794D01*
X35436000Y-38100000D01*
X25889864Y-38100000D01*
X25822825Y-38080315D01*
X25777070Y-38027511D01*
X25767126Y-37958353D01*
X25796151Y-37894797D01*
X25854929Y-37857023D01*
X25865659Y-37854385D01*
X25957836Y-37836051D01*
X26011165Y-37813961D01*
X26139914Y-37760632D01*
X26303782Y-37651139D01*
X26443139Y-37511782D01*
X26443139Y-37511780D01*
X26453347Y-37501573D01*
X26453349Y-37501570D01*
X31763634Y-32191284D01*
X31824955Y-32157801D01*
X31840496Y-32155440D01*
X31907389Y-32149589D01*
X32127870Y-32090512D01*
X32334742Y-31994046D01*
X32521719Y-31863122D01*
X32683122Y-31701719D01*
X32814046Y-31514742D01*
X32910512Y-31307870D01*
X32969589Y-31087389D01*
X32989483Y-30860000D01*
X32969589Y-30632611D01*
X32910512Y-30412130D01*
X32814046Y-30205259D01*
X32814044Y-30205255D01*
X32683121Y-30018280D01*
X32521722Y-29856881D01*
X32521712Y-29856872D01*
X32334745Y-29725955D01*
X32334741Y-29725953D01*
X32231306Y-29677721D01*
X32127870Y-29629488D01*
X32127866Y-29629487D01*
X32127862Y-29629485D01*
X31907394Y-29570412D01*
X31907390Y-29570411D01*
X31907389Y-29570411D01*
X31907388Y-29570410D01*
X31907383Y-29570410D01*
X31680002Y-29550517D01*
X31679998Y-29550517D01*
X31452616Y-29570410D01*
X31452605Y-29570412D01*
X31232137Y-29629485D01*
X31232128Y-29629489D01*
X31025259Y-29725953D01*
X31025255Y-29725955D01*
X30838280Y-29856878D01*
X30676878Y-30018280D01*
X30545955Y-30205255D01*
X30545953Y-30205259D01*
X30449489Y-30412128D01*
X30449485Y-30412137D01*
X30390412Y-30632605D01*
X30390410Y-30632614D01*
X30384559Y-30699494D01*
X30359106Y-30764562D01*
X30348712Y-30776366D01*
X25287899Y-35837181D01*
X25226576Y-35870666D01*
X25200218Y-35873500D01*
X21380782Y-35873500D01*
X21313743Y-35853815D01*
X21267988Y-35801011D01*
X21258044Y-35731853D01*
X21287069Y-35668297D01*
X21293101Y-35661819D01*
X22078092Y-34876828D01*
X24763633Y-32191285D01*
X24824954Y-32157802D01*
X24840498Y-32155441D01*
X24907389Y-32149589D01*
X25127870Y-32090512D01*
X25334742Y-31994046D01*
X25521719Y-31863122D01*
X25683122Y-31701719D01*
X25814046Y-31514742D01*
X25910512Y-31307870D01*
X25969589Y-31087389D01*
X25989483Y-30860000D01*
X25969589Y-30632611D01*
X25910512Y-30412130D01*
X25814046Y-30205259D01*
X25814044Y-30205255D01*
X25683121Y-30018280D01*
X25521722Y-29856881D01*
X25521712Y-29856872D01*
X25334745Y-29725955D01*
X25334741Y-29725953D01*
X25231306Y-29677721D01*
X25127870Y-29629488D01*
X25127866Y-29629487D01*
X25127862Y-29629485D01*
X25056386Y-29610334D01*
X24996725Y-29573969D01*
X24966196Y-29511123D01*
X24974490Y-29441747D01*
X25000795Y-29402881D01*
X30126860Y-24276819D01*
X30188183Y-24243334D01*
X30214541Y-24240500D01*
X30795439Y-24240500D01*
X30862478Y-24260185D01*
X30866547Y-24262914D01*
X31025258Y-24374046D01*
X31232130Y-24470512D01*
X31452611Y-24529589D01*
X31615031Y-24543799D01*
X31679998Y-24549483D01*
X31680000Y-24549483D01*
X31680002Y-24549483D01*
X31736847Y-24544509D01*
X31907389Y-24529589D01*
X32127870Y-24470512D01*
X32334742Y-24374046D01*
X32521719Y-24243122D01*
X32683122Y-24081719D01*
X32814046Y-23894742D01*
X32910512Y-23687870D01*
X32969589Y-23467389D01*
X32989483Y-23240000D01*
X32969589Y-23012611D01*
X32910512Y-22792130D01*
X32814046Y-22585259D01*
X32814044Y-22585255D01*
X32683121Y-22398280D01*
X32521722Y-22236881D01*
X32521712Y-22236872D01*
X32334745Y-22105955D01*
X32334741Y-22105953D01*
X32231306Y-22057721D01*
X32127870Y-22009488D01*
X32127866Y-22009487D01*
X32127862Y-22009485D01*
X31907394Y-21950412D01*
X31907390Y-21950411D01*
X31907389Y-21950411D01*
X31907388Y-21950410D01*
X31907383Y-21950410D01*
X31680002Y-21930517D01*
X31679998Y-21930517D01*
X31452616Y-21950410D01*
X31452605Y-21950412D01*
X31232137Y-22009485D01*
X31232128Y-22009489D01*
X31025261Y-22105952D01*
X30967919Y-22146103D01*
X30866561Y-22217075D01*
X30800358Y-22239402D01*
X30795440Y-22239500D01*
X29650214Y-22239500D01*
X29456929Y-22277947D01*
X29456921Y-22277949D01*
X29408959Y-22297816D01*
X29408958Y-22297816D01*
X29274850Y-22353364D01*
X29274838Y-22353371D01*
X29207627Y-22398281D01*
X29207626Y-22398281D01*
X29110980Y-22462857D01*
X29110972Y-22462863D01*
X20860657Y-30713181D01*
X20799334Y-30746666D01*
X20772976Y-30749500D01*
X7172990Y-30749500D01*
X7105951Y-30729815D01*
X7061778Y-30680344D01*
X7033172Y-30622336D01*
X6869273Y-30377043D01*
X6826655Y-30328447D01*
X6674758Y-30155241D01*
X6452955Y-29960725D01*
X6207667Y-29796829D01*
X6207660Y-29796825D01*
X5943080Y-29666349D01*
X5663730Y-29571521D01*
X5663724Y-29571519D01*
X5663722Y-29571519D01*
X5374380Y-29513966D01*
X5374373Y-29513965D01*
X5374363Y-29513964D01*
X5080007Y-29494671D01*
X5079993Y-29494671D01*
X4785636Y-29513964D01*
X4785624Y-29513965D01*
X4785620Y-29513966D01*
X4785612Y-29513967D01*
X4785609Y-29513968D01*
X4496283Y-29571518D01*
X4496269Y-29571521D01*
X4216919Y-29666349D01*
X3952334Y-29796828D01*
X3707041Y-29960728D01*
X3485241Y-30155241D01*
X3290728Y-30377041D01*
X3126828Y-30622334D01*
X2996349Y-30886919D01*
X2901521Y-31166269D01*
X2901518Y-31166283D01*
X2843968Y-31455609D01*
X2843964Y-31455636D01*
X2824671Y-31749992D01*
X2824671Y-31750007D01*
X2843964Y-32044363D01*
X2843965Y-32044373D01*
X2843966Y-32044380D01*
X2866839Y-32159374D01*
X2901518Y-32333716D01*
X2901521Y-32333730D01*
X2996349Y-32613080D01*
X3126825Y-32877660D01*
X3126829Y-32877667D01*
X3290725Y-33122955D01*
X3485241Y-33344758D01*
X3707043Y-33539273D01*
X3952335Y-33703172D01*
X4216923Y-33833652D01*
X4496278Y-33928481D01*
X4785620Y-33986034D01*
X4813888Y-33987886D01*
X5079993Y-34005329D01*
X5080000Y-34005329D01*
X5080007Y-34005329D01*
X5315675Y-33989881D01*
X5374380Y-33986034D01*
X5663722Y-33928481D01*
X5943077Y-33833652D01*
X6207665Y-33703172D01*
X6452957Y-33539273D01*
X6674758Y-33344758D01*
X6869273Y-33122957D01*
X7033172Y-32877665D01*
X7061778Y-32819655D01*
X7109084Y-32768237D01*
X7172991Y-32750500D01*
X21075217Y-32750500D01*
X21142256Y-32770185D01*
X21188011Y-32822989D01*
X21197955Y-32892147D01*
X21168930Y-32955703D01*
X21162898Y-32962181D01*
X19787899Y-34337181D01*
X19726576Y-34370666D01*
X19700218Y-34373500D01*
X6437455Y-34373500D01*
X6340812Y-34392724D01*
X6244167Y-34411947D01*
X6244161Y-34411949D01*
X6190834Y-34434037D01*
X6190834Y-34434038D01*
X6145315Y-34452892D01*
X6062089Y-34487366D01*
X6062079Y-34487371D01*
X5898221Y-34596858D01*
X5898215Y-34596862D01*
X5852504Y-34642573D01*
X5791181Y-34676057D01*
X5724966Y-34672309D01*
X5710527Y-34667407D01*
X5663730Y-34651521D01*
X5663724Y-34651519D01*
X5663722Y-34651519D01*
X5374380Y-34593966D01*
X5374373Y-34593965D01*
X5374363Y-34593964D01*
X5080007Y-34574671D01*
X5079993Y-34574671D01*
X4785636Y-34593964D01*
X4785624Y-34593965D01*
X4785620Y-34593966D01*
X4785612Y-34593967D01*
X4785609Y-34593968D01*
X4496283Y-34651518D01*
X4496269Y-34651521D01*
X4216919Y-34746349D01*
X3952334Y-34876828D01*
X3707041Y-35040728D01*
X3485241Y-35235241D01*
X3290728Y-35457041D01*
X3126828Y-35702334D01*
X2996349Y-35966919D01*
X2901521Y-36246269D01*
X2901518Y-36246283D01*
X2843968Y-36535609D01*
X2843964Y-36535636D01*
X2824671Y-36829992D01*
X2824671Y-36830007D01*
X2843964Y-37124363D01*
X2843965Y-37124373D01*
X2843966Y-37124380D01*
X2843968Y-37124390D01*
X2901518Y-37413716D01*
X2901521Y-37413730D01*
X2996349Y-37693080D01*
X3126825Y-37957660D01*
X3126829Y-37957667D01*
X3290725Y-38202955D01*
X3485241Y-38424758D01*
X3707044Y-38619274D01*
X3858251Y-38720307D01*
X3952335Y-38783172D01*
X4216923Y-38913652D01*
X4496278Y-39008481D01*
X4785620Y-39066034D01*
X5012292Y-39080891D01*
X5077897Y-39104917D01*
X5120101Y-39160601D01*
X5125500Y-39230262D01*
X5092380Y-39291783D01*
X5091860Y-39292306D01*
X4718072Y-39666094D01*
X4656749Y-39699579D01*
X4654582Y-39700030D01*
X4496285Y-39731517D01*
X4496270Y-39731521D01*
X4216919Y-39826349D01*
X3952334Y-39956828D01*
X3707041Y-40120728D01*
X3485241Y-40315241D01*
X3290728Y-40537041D01*
X3126828Y-40782334D01*
X2996349Y-41046919D01*
X2901521Y-41326269D01*
X2901518Y-41326283D01*
X2843968Y-41615609D01*
X2843964Y-41615636D01*
X2824671Y-41909992D01*
X2824671Y-41910007D01*
X2843964Y-42204363D01*
X2843965Y-42204373D01*
X2843966Y-42204380D01*
X2843968Y-42204390D01*
X2901518Y-42493716D01*
X2901521Y-42493730D01*
X2996349Y-42773080D01*
X3126825Y-43037660D01*
X3126829Y-43037667D01*
X3290725Y-43282955D01*
X3485241Y-43504758D01*
X3707043Y-43699273D01*
X3952335Y-43863172D01*
X4216923Y-43993652D01*
X4496278Y-44088481D01*
X4785620Y-44146034D01*
X4813888Y-44147886D01*
X5079993Y-44165329D01*
X5080000Y-44165329D01*
X5080007Y-44165329D01*
X5315675Y-44149881D01*
X5374380Y-44146034D01*
X5663722Y-44088481D01*
X5943077Y-43993652D01*
X6207665Y-43863172D01*
X6452957Y-43699273D01*
X6674758Y-43504758D01*
X6869273Y-43282957D01*
X7033172Y-43037665D01*
X7163652Y-42773077D01*
X7258481Y-42493722D01*
X7316034Y-42204380D01*
X7335329Y-41910000D01*
X7335329Y-41909992D01*
X7316035Y-41615636D01*
X7316034Y-41615620D01*
X7258481Y-41326278D01*
X7163652Y-41046923D01*
X7033172Y-40782336D01*
X6938066Y-40640000D01*
X6869274Y-40537044D01*
X6867833Y-40535401D01*
X6855996Y-40521904D01*
X6826594Y-40458526D01*
X6836124Y-40389309D01*
X6861540Y-40352467D01*
X9303190Y-37910819D01*
X9364513Y-37877334D01*
X9390871Y-37874500D01*
X10086138Y-37874500D01*
X10153177Y-37894185D01*
X10198932Y-37946989D01*
X10208876Y-38016147D01*
X10179851Y-38079703D01*
X10173819Y-38086181D01*
X10160000Y-38100000D01*
X10160000Y-60515718D01*
X10140315Y-60582757D01*
X10087511Y-60628512D01*
X10018353Y-60638456D01*
X9954797Y-60609431D01*
X9948319Y-60603399D01*
X7267428Y-57922508D01*
X7233943Y-57861185D01*
X7237689Y-57794969D01*
X7258481Y-57733722D01*
X7316034Y-57444380D01*
X7331010Y-57215892D01*
X7335329Y-57150007D01*
X7335329Y-57149992D01*
X7316035Y-56855636D01*
X7316034Y-56855620D01*
X7258481Y-56566278D01*
X7163652Y-56286923D01*
X7033172Y-56022336D01*
X6869273Y-55777043D01*
X6826655Y-55728447D01*
X6674758Y-55555241D01*
X6452955Y-55360725D01*
X6207667Y-55196829D01*
X6207660Y-55196825D01*
X5943080Y-55066349D01*
X5663730Y-54971521D01*
X5663724Y-54971519D01*
X5663722Y-54971519D01*
X5374380Y-54913966D01*
X5374373Y-54913965D01*
X5374363Y-54913964D01*
X5080007Y-54894671D01*
X5079993Y-54894671D01*
X4785636Y-54913964D01*
X4785624Y-54913965D01*
X4785620Y-54913966D01*
X4785612Y-54913967D01*
X4785609Y-54913968D01*
X4496283Y-54971518D01*
X4496269Y-54971521D01*
X4216919Y-55066349D01*
X3952334Y-55196828D01*
X3707041Y-55360728D01*
X3485241Y-55555241D01*
X3290728Y-55777041D01*
X3126828Y-56022334D01*
X2996349Y-56286919D01*
X2901521Y-56566269D01*
X2901518Y-56566283D01*
X2843968Y-56855609D01*
X2843964Y-56855636D01*
X2824671Y-57149992D01*
X2824671Y-57150007D01*
X2843964Y-57444363D01*
X2843965Y-57444373D01*
X2843966Y-57444380D01*
X2901517Y-57733714D01*
X2901518Y-57733716D01*
X2901521Y-57733730D01*
X2996349Y-58013080D01*
X3126825Y-58277660D01*
X3126829Y-58277667D01*
X3290725Y-58522955D01*
X3485241Y-58744758D01*
X3707044Y-58939274D01*
X3858251Y-59040307D01*
X3952335Y-59103172D01*
X4216923Y-59233652D01*
X4496278Y-59328481D01*
X4785620Y-59386034D01*
X4813888Y-59387886D01*
X5079993Y-59405329D01*
X5080000Y-59405329D01*
X5080007Y-59405329D01*
X5315675Y-59389881D01*
X5374380Y-59386034D01*
X5663722Y-59328481D01*
X5724968Y-59307689D01*
X5794776Y-59304780D01*
X5852508Y-59337428D01*
X10606899Y-64091819D01*
X10640384Y-64153142D01*
X10635400Y-64222834D01*
X10593528Y-64278767D01*
X10528064Y-64303184D01*
X10519218Y-64303500D01*
X8619783Y-64303500D01*
X8552744Y-64283815D01*
X8532102Y-64267181D01*
X7267428Y-63002508D01*
X7233943Y-62941185D01*
X7237689Y-62874969D01*
X7258481Y-62813722D01*
X7316034Y-62524380D01*
X7335329Y-62230000D01*
X7335329Y-62229992D01*
X7316035Y-61935636D01*
X7316034Y-61935620D01*
X7258481Y-61646278D01*
X7163652Y-61366923D01*
X7033172Y-61102336D01*
X7020920Y-61084000D01*
X6951219Y-60979685D01*
X6869273Y-60857043D01*
X6677577Y-60638456D01*
X6674758Y-60635241D01*
X6452955Y-60440725D01*
X6207667Y-60276829D01*
X6207660Y-60276825D01*
X5943080Y-60146349D01*
X5663730Y-60051521D01*
X5663724Y-60051519D01*
X5663722Y-60051519D01*
X5374380Y-59993966D01*
X5374373Y-59993965D01*
X5374363Y-59993964D01*
X5080007Y-59974671D01*
X5079993Y-59974671D01*
X4785636Y-59993964D01*
X4785624Y-59993965D01*
X4785620Y-59993966D01*
X4785612Y-59993967D01*
X4785609Y-59993968D01*
X4496283Y-60051518D01*
X4496269Y-60051521D01*
X4216919Y-60146349D01*
X3952334Y-60276828D01*
X3707041Y-60440728D01*
X3485241Y-60635241D01*
X3290728Y-60857041D01*
X3126828Y-61102334D01*
X2996349Y-61366919D01*
X2901521Y-61646269D01*
X2901518Y-61646283D01*
X2843968Y-61935609D01*
X2843964Y-61935636D01*
X2824671Y-62229992D01*
X2824671Y-62230007D01*
X2843964Y-62524363D01*
X2843965Y-62524373D01*
X2843966Y-62524380D01*
X2901517Y-62813714D01*
X2901518Y-62813716D01*
X2901521Y-62813730D01*
X2996349Y-63093080D01*
X3126825Y-63357660D01*
X3126829Y-63357667D01*
X3290725Y-63602955D01*
X3485241Y-63824758D01*
X3707044Y-64019274D01*
X3909791Y-64154745D01*
X3952335Y-64183172D01*
X4216923Y-64313652D01*
X4496278Y-64408481D01*
X4785620Y-64466034D01*
X4813888Y-64467886D01*
X5079993Y-64485329D01*
X5080000Y-64485329D01*
X5080007Y-64485329D01*
X5315675Y-64469881D01*
X5374380Y-64466034D01*
X5663722Y-64408481D01*
X5724968Y-64387689D01*
X5794776Y-64384780D01*
X5852507Y-64417427D01*
X7376860Y-65941781D01*
X7376861Y-65941782D01*
X7516218Y-66081139D01*
X7516219Y-66081140D01*
X7518100Y-66082397D01*
X7518863Y-66083310D01*
X7520926Y-66085003D01*
X7520604Y-66085394D01*
X7562906Y-66136008D01*
X7571615Y-66205333D01*
X7541461Y-66268361D01*
X7482019Y-66305081D01*
X7449211Y-66309500D01*
X7172990Y-66309500D01*
X7105951Y-66289815D01*
X7061778Y-66240344D01*
X7033172Y-66182336D01*
X6869273Y-65937043D01*
X6826655Y-65888447D01*
X6674758Y-65715241D01*
X6452955Y-65520725D01*
X6207667Y-65356829D01*
X6207660Y-65356825D01*
X5943080Y-65226349D01*
X5663730Y-65131521D01*
X5663724Y-65131519D01*
X5663722Y-65131519D01*
X5374380Y-65073966D01*
X5374373Y-65073965D01*
X5374363Y-65073964D01*
X5080007Y-65054671D01*
X5079993Y-65054671D01*
X4785636Y-65073964D01*
X4785624Y-65073965D01*
X4785620Y-65073966D01*
X4785612Y-65073967D01*
X4785609Y-65073968D01*
X4496283Y-65131518D01*
X4496269Y-65131521D01*
X4216919Y-65226349D01*
X3952334Y-65356828D01*
X3707041Y-65520728D01*
X3485241Y-65715241D01*
X3290728Y-65937041D01*
X3126828Y-66182334D01*
X2996349Y-66446919D01*
X2901521Y-66726269D01*
X2901518Y-66726283D01*
X2843968Y-67015609D01*
X2843964Y-67015636D01*
X2824671Y-67309992D01*
X2824671Y-67310007D01*
X2843964Y-67604363D01*
X2843965Y-67604373D01*
X2843966Y-67604380D01*
X2843968Y-67604390D01*
X2901518Y-67893716D01*
X2901521Y-67893730D01*
X2996349Y-68173080D01*
X3126825Y-68437660D01*
X3126829Y-68437667D01*
X3290725Y-68682955D01*
X3485241Y-68904758D01*
X3707043Y-69099273D01*
X3952335Y-69263172D01*
X4216923Y-69393652D01*
X4496278Y-69488481D01*
X4785620Y-69546034D01*
X4813888Y-69547886D01*
X5079993Y-69565329D01*
X5080000Y-69565329D01*
X5080007Y-69565329D01*
X5315675Y-69549881D01*
X5374380Y-69546034D01*
X5663722Y-69488481D01*
X5943077Y-69393652D01*
X6207665Y-69263172D01*
X6452957Y-69099273D01*
X6674758Y-68904758D01*
X6869273Y-68682957D01*
X7033172Y-68437665D01*
X7061778Y-68379655D01*
X7109084Y-68328237D01*
X7172991Y-68310500D01*
X20404218Y-68310500D01*
X20471257Y-68330185D01*
X20491899Y-68346819D01*
X23348712Y-71203632D01*
X23382197Y-71264955D01*
X23384559Y-71280505D01*
X23390410Y-71347384D01*
X23390412Y-71347394D01*
X23449485Y-71567862D01*
X23449487Y-71567866D01*
X23449488Y-71567870D01*
X23533062Y-71747095D01*
X23543554Y-71816173D01*
X23515034Y-71879957D01*
X23456558Y-71918196D01*
X23420680Y-71923500D01*
X7383562Y-71923500D01*
X7316523Y-71903815D01*
X7270768Y-71851011D01*
X7261945Y-71823693D01*
X7258481Y-71806280D01*
X7258481Y-71806278D01*
X7163652Y-71526923D01*
X7033172Y-71262336D01*
X6869273Y-71017043D01*
X6760153Y-70892616D01*
X6674758Y-70795241D01*
X6452955Y-70600725D01*
X6207667Y-70436829D01*
X6207660Y-70436825D01*
X5943080Y-70306349D01*
X5663730Y-70211521D01*
X5663724Y-70211519D01*
X5663722Y-70211519D01*
X5374380Y-70153966D01*
X5374373Y-70153965D01*
X5374363Y-70153964D01*
X5080007Y-70134671D01*
X5079993Y-70134671D01*
X4785636Y-70153964D01*
X4785624Y-70153965D01*
X4785620Y-70153966D01*
X4785612Y-70153967D01*
X4785609Y-70153968D01*
X4496283Y-70211518D01*
X4496269Y-70211521D01*
X4216919Y-70306349D01*
X3952334Y-70436828D01*
X3707041Y-70600728D01*
X3485241Y-70795241D01*
X3290728Y-71017041D01*
X3126828Y-71262334D01*
X2996349Y-71526919D01*
X2901521Y-71806269D01*
X2901518Y-71806283D01*
X2843968Y-72095609D01*
X2843964Y-72095636D01*
X2824671Y-72389992D01*
X2824671Y-72390007D01*
X2843964Y-72684363D01*
X2843965Y-72684373D01*
X2843966Y-72684380D01*
X2843968Y-72684390D01*
X2901518Y-72973716D01*
X2901521Y-72973730D01*
X2996349Y-73253080D01*
X3126825Y-73517660D01*
X3126829Y-73517667D01*
X3290725Y-73762955D01*
X3485241Y-73984758D01*
X3707043Y-74179273D01*
X3952335Y-74343172D01*
X4216923Y-74473652D01*
X4496278Y-74568481D01*
X4785620Y-74626034D01*
X4813888Y-74627886D01*
X5079993Y-74645329D01*
X5080000Y-74645329D01*
X5080007Y-74645329D01*
X5315675Y-74629881D01*
X5374380Y-74626034D01*
X5663722Y-74568481D01*
X5943077Y-74473652D01*
X6207665Y-74343172D01*
X6452957Y-74179273D01*
X6674758Y-73984758D01*
X6690559Y-73966741D01*
X6749561Y-73929317D01*
X6783787Y-73924500D01*
X29974542Y-73924500D01*
X29993870Y-73920655D01*
X30071188Y-73905275D01*
X30167836Y-73886051D01*
X30221165Y-73863961D01*
X30349914Y-73810632D01*
X30513782Y-73701139D01*
X30653139Y-73561782D01*
X30653139Y-73561780D01*
X30663347Y-73551573D01*
X30663349Y-73551570D01*
X31763634Y-72451284D01*
X31824955Y-72417801D01*
X31840496Y-72415440D01*
X31907389Y-72409589D01*
X32127870Y-72350512D01*
X32334742Y-72254046D01*
X32521719Y-72123122D01*
X32683122Y-71961719D01*
X32683127Y-71961712D01*
X32814044Y-71774745D01*
X32814046Y-71774741D01*
X32910512Y-71567870D01*
X32969589Y-71347389D01*
X32989483Y-71120000D01*
X32969589Y-70892611D01*
X32910512Y-70672130D01*
X32814046Y-70465259D01*
X32814044Y-70465255D01*
X32718781Y-70329208D01*
X32683122Y-70278281D01*
X32521719Y-70116878D01*
X32521717Y-70116876D01*
X32521712Y-70116872D01*
X32334745Y-69985955D01*
X32334741Y-69985953D01*
X32231306Y-69937721D01*
X32127870Y-69889488D01*
X32127866Y-69889487D01*
X32127862Y-69889485D01*
X31907394Y-69830412D01*
X31907390Y-69830411D01*
X31907389Y-69830411D01*
X31907388Y-69830410D01*
X31907383Y-69830410D01*
X31680002Y-69810517D01*
X31679998Y-69810517D01*
X31452616Y-69830410D01*
X31452605Y-69830412D01*
X31232137Y-69889485D01*
X31232128Y-69889489D01*
X31025259Y-69985953D01*
X31025255Y-69985955D01*
X30838280Y-70116878D01*
X30676878Y-70278280D01*
X30545955Y-70465255D01*
X30545953Y-70465259D01*
X30449489Y-70672128D01*
X30449485Y-70672137D01*
X30390412Y-70892605D01*
X30390410Y-70892614D01*
X30384559Y-70959494D01*
X30359106Y-71024562D01*
X30348712Y-71036366D01*
X29497899Y-71887181D01*
X29436576Y-71920666D01*
X29410218Y-71923500D01*
X25939320Y-71923500D01*
X25872281Y-71903815D01*
X25826526Y-71851011D01*
X25816582Y-71781853D01*
X25826938Y-71747095D01*
X25910512Y-71567870D01*
X25969589Y-71347389D01*
X25989483Y-71120000D01*
X25969589Y-70892611D01*
X25910512Y-70672130D01*
X25814046Y-70465259D01*
X25814044Y-70465255D01*
X25718781Y-70329208D01*
X25683122Y-70278281D01*
X25521719Y-70116878D01*
X25521717Y-70116876D01*
X25521712Y-70116872D01*
X25334745Y-69985955D01*
X25334741Y-69985953D01*
X25231306Y-69937721D01*
X25127870Y-69889488D01*
X25127866Y-69889487D01*
X25127862Y-69889485D01*
X24907394Y-69830412D01*
X24907384Y-69830410D01*
X24840505Y-69824559D01*
X24775436Y-69799106D01*
X24763632Y-69788712D01*
X21654209Y-66679289D01*
X21654206Y-66679285D01*
X21654206Y-66679286D01*
X21647139Y-66672219D01*
X21647139Y-66672218D01*
X21507782Y-66532861D01*
X21507781Y-66532860D01*
X21507780Y-66532859D01*
X21505900Y-66531603D01*
X21505136Y-66530689D01*
X21503074Y-66528997D01*
X21503395Y-66528605D01*
X21461094Y-66477992D01*
X21452385Y-66408667D01*
X21482539Y-66345639D01*
X21541981Y-66308919D01*
X21574789Y-66304500D01*
X29974542Y-66304500D01*
X29993870Y-66300655D01*
X30071188Y-66285275D01*
X30167836Y-66266051D01*
X30221165Y-66243961D01*
X30349914Y-66190632D01*
X30513782Y-66081139D01*
X30653139Y-65941782D01*
X30653139Y-65941780D01*
X30663347Y-65931573D01*
X30663349Y-65931570D01*
X31763634Y-64831284D01*
X31824955Y-64797801D01*
X31840496Y-64795440D01*
X31907389Y-64789589D01*
X32127870Y-64730512D01*
X32334742Y-64634046D01*
X32521719Y-64503122D01*
X32683122Y-64341719D01*
X32702776Y-64313650D01*
X32814044Y-64154745D01*
X32814046Y-64154741D01*
X32814792Y-64153142D01*
X32910512Y-63947870D01*
X32969589Y-63727389D01*
X32989483Y-63500000D01*
X32969589Y-63272611D01*
X32910512Y-63052130D01*
X32814046Y-62845259D01*
X32814044Y-62845255D01*
X32683121Y-62658280D01*
X32521722Y-62496881D01*
X32521712Y-62496872D01*
X32334745Y-62365955D01*
X32334741Y-62365953D01*
X32231306Y-62317721D01*
X32127870Y-62269488D01*
X32127866Y-62269487D01*
X32127862Y-62269485D01*
X31907394Y-62210412D01*
X31907390Y-62210411D01*
X31907389Y-62210411D01*
X31907388Y-62210410D01*
X31907383Y-62210410D01*
X31680002Y-62190517D01*
X31679998Y-62190517D01*
X31452616Y-62210410D01*
X31452605Y-62210412D01*
X31232137Y-62269485D01*
X31232128Y-62269489D01*
X31025259Y-62365953D01*
X31025255Y-62365955D01*
X30838280Y-62496878D01*
X30676878Y-62658280D01*
X30545955Y-62845255D01*
X30545953Y-62845259D01*
X30449489Y-63052128D01*
X30449485Y-63052137D01*
X30390412Y-63272605D01*
X30390410Y-63272614D01*
X30384559Y-63339494D01*
X30359106Y-63404562D01*
X30348712Y-63416366D01*
X29497899Y-64267181D01*
X29436576Y-64300666D01*
X29410218Y-64303500D01*
X25939320Y-64303500D01*
X25872281Y-64283815D01*
X25826526Y-64231011D01*
X25816582Y-64161853D01*
X25826938Y-64127095D01*
X25843387Y-64091819D01*
X25910512Y-63947870D01*
X25969589Y-63727389D01*
X25989483Y-63500000D01*
X25969589Y-63272611D01*
X25910512Y-63052130D01*
X25814046Y-62845259D01*
X25814044Y-62845255D01*
X25683121Y-62658280D01*
X25521722Y-62496881D01*
X25521712Y-62496872D01*
X25334745Y-62365955D01*
X25334741Y-62365953D01*
X25231306Y-62317721D01*
X25127870Y-62269488D01*
X25127866Y-62269487D01*
X25127862Y-62269485D01*
X24907394Y-62210412D01*
X24907390Y-62210411D01*
X24907389Y-62210411D01*
X24907388Y-62210410D01*
X24907383Y-62210410D01*
X24680002Y-62190517D01*
X24679998Y-62190517D01*
X24452616Y-62210410D01*
X24452605Y-62210412D01*
X24232137Y-62269485D01*
X24232128Y-62269489D01*
X24025261Y-62365952D01*
X23967919Y-62406103D01*
X23866561Y-62477075D01*
X23800358Y-62499402D01*
X23795440Y-62499500D01*
X11895782Y-62499500D01*
X11828743Y-62479815D01*
X11808101Y-62463181D01*
X10516601Y-61171681D01*
X10483116Y-61110358D01*
X10488100Y-61040666D01*
X10529972Y-60984733D01*
X10595436Y-60960316D01*
X10604282Y-60960000D01*
X35436000Y-60960000D01*
X35503039Y-60979685D01*
X35548794Y-61032489D01*
X35560000Y-61084000D01*
X35560000Y-93980000D01*
X36706000Y-93980000D01*
X36773039Y-93999685D01*
X36818794Y-94052489D01*
X36830000Y-94104000D01*
X36830000Y-98435500D01*
X36810315Y-98502539D01*
X36757511Y-98548294D01*
X36706000Y-98559500D01*
X3813246Y-98559500D01*
X3806756Y-98559330D01*
X3470549Y-98541709D01*
X3457641Y-98540352D01*
X3128337Y-98488196D01*
X3115642Y-98485498D01*
X2793586Y-98399204D01*
X2781241Y-98395193D01*
X2469972Y-98275708D01*
X2458115Y-98270429D01*
X2161029Y-98119055D01*
X2149802Y-98112573D01*
X1870171Y-97930978D01*
X1859683Y-97923359D01*
X1600558Y-97713524D01*
X1590913Y-97704839D01*
X1355160Y-97469086D01*
X1346475Y-97459441D01*
X1257648Y-97349749D01*
X1136638Y-97200313D01*
X1129023Y-97189832D01*
X947423Y-96910191D01*
X940947Y-96898976D01*
X789565Y-96601873D01*
X784296Y-96590038D01*
X664803Y-96278749D01*
X660798Y-96266422D01*
X574497Y-95944342D01*
X571806Y-95931677D01*
X519647Y-95602358D01*
X518290Y-95589450D01*
X500670Y-95253243D01*
X500500Y-95246753D01*
X500500Y-87629992D01*
X2824671Y-87629992D01*
X2824671Y-87630007D01*
X2843964Y-87924363D01*
X2843965Y-87924373D01*
X2843966Y-87924380D01*
X2884766Y-88129500D01*
X2901518Y-88213716D01*
X2901521Y-88213730D01*
X2996349Y-88493080D01*
X3126825Y-88757660D01*
X3126829Y-88757667D01*
X3290725Y-89002955D01*
X3485241Y-89224758D01*
X3707043Y-89419273D01*
X3952335Y-89583172D01*
X4216923Y-89713652D01*
X4496278Y-89808481D01*
X4785620Y-89866034D01*
X4813888Y-89867886D01*
X5079993Y-89885329D01*
X5080000Y-89885329D01*
X5080007Y-89885329D01*
X5315675Y-89869881D01*
X5374380Y-89866034D01*
X5663722Y-89808481D01*
X5943077Y-89713652D01*
X6207665Y-89583172D01*
X6452957Y-89419273D01*
X6674758Y-89224758D01*
X6869273Y-89002957D01*
X7033172Y-88757665D01*
X7061778Y-88699655D01*
X7109084Y-88648237D01*
X7172991Y-88630500D01*
X7445217Y-88630500D01*
X7512256Y-88650185D01*
X7558011Y-88702989D01*
X7567955Y-88772147D01*
X7538930Y-88835703D01*
X7532898Y-88842181D01*
X5852507Y-90522571D01*
X5791184Y-90556056D01*
X5724967Y-90552309D01*
X5663730Y-90531521D01*
X5663724Y-90531519D01*
X5663722Y-90531519D01*
X5374380Y-90473966D01*
X5374373Y-90473965D01*
X5374363Y-90473964D01*
X5080007Y-90454671D01*
X5079993Y-90454671D01*
X4785636Y-90473964D01*
X4785624Y-90473965D01*
X4785620Y-90473966D01*
X4785612Y-90473967D01*
X4785609Y-90473968D01*
X4496283Y-90531518D01*
X4496269Y-90531521D01*
X4216919Y-90626349D01*
X3952334Y-90756828D01*
X3707041Y-90920728D01*
X3485241Y-91115241D01*
X3290728Y-91337041D01*
X3126828Y-91582334D01*
X2996349Y-91846919D01*
X2901521Y-92126269D01*
X2901518Y-92126283D01*
X2843968Y-92415609D01*
X2843964Y-92415636D01*
X2824671Y-92709992D01*
X2824671Y-92710007D01*
X2843964Y-93004363D01*
X2843965Y-93004373D01*
X2843966Y-93004380D01*
X2843968Y-93004390D01*
X2901518Y-93293716D01*
X2901521Y-93293730D01*
X2996349Y-93573080D01*
X3126825Y-93837660D01*
X3126829Y-93837667D01*
X3290725Y-94082955D01*
X3485241Y-94304758D01*
X3707043Y-94499273D01*
X3952335Y-94663172D01*
X4216923Y-94793652D01*
X4496278Y-94888481D01*
X4785620Y-94946034D01*
X4813888Y-94947886D01*
X5079993Y-94965329D01*
X5080000Y-94965329D01*
X5080007Y-94965329D01*
X5315675Y-94949881D01*
X5374380Y-94946034D01*
X5663722Y-94888481D01*
X5943077Y-94793652D01*
X6207665Y-94663172D01*
X6452957Y-94499273D01*
X6674758Y-94304758D01*
X6869273Y-94082957D01*
X7033172Y-93837665D01*
X7163652Y-93573077D01*
X7258481Y-93293722D01*
X7316034Y-93004380D01*
X7335329Y-92710000D01*
X7335329Y-92709992D01*
X7316035Y-92415636D01*
X7316034Y-92415620D01*
X7258481Y-92126278D01*
X7237690Y-92065030D01*
X7234780Y-91995221D01*
X7267426Y-91937492D01*
X9038102Y-90166819D01*
X9099425Y-90133334D01*
X9125783Y-90130500D01*
X29008542Y-90130500D01*
X29027870Y-90126655D01*
X29105188Y-90111275D01*
X29201836Y-90092051D01*
X29255165Y-90069961D01*
X29383914Y-90016632D01*
X29547782Y-89907139D01*
X29687139Y-89767782D01*
X29687139Y-89767780D01*
X29697347Y-89757573D01*
X29697349Y-89757570D01*
X31763634Y-87691284D01*
X31824955Y-87657801D01*
X31840496Y-87655440D01*
X31907389Y-87649589D01*
X32127870Y-87590512D01*
X32334742Y-87494046D01*
X32521719Y-87363122D01*
X32683122Y-87201719D01*
X32814046Y-87014742D01*
X32910512Y-86807870D01*
X32969589Y-86587389D01*
X32989483Y-86360000D01*
X32969589Y-86132611D01*
X32910512Y-85912130D01*
X32814046Y-85705259D01*
X32814044Y-85705255D01*
X32718781Y-85569208D01*
X32683122Y-85518281D01*
X32521719Y-85356878D01*
X32521717Y-85356876D01*
X32521712Y-85356872D01*
X32334745Y-85225955D01*
X32334741Y-85225953D01*
X32231306Y-85177721D01*
X32127870Y-85129488D01*
X32127866Y-85129487D01*
X32127862Y-85129485D01*
X31907394Y-85070412D01*
X31907390Y-85070411D01*
X31907389Y-85070411D01*
X31907388Y-85070410D01*
X31907383Y-85070410D01*
X31680002Y-85050517D01*
X31679998Y-85050517D01*
X31452616Y-85070410D01*
X31452605Y-85070412D01*
X31232137Y-85129485D01*
X31232128Y-85129489D01*
X31025259Y-85225953D01*
X31025255Y-85225955D01*
X30838280Y-85356878D01*
X30676878Y-85518280D01*
X30545955Y-85705255D01*
X30545953Y-85705259D01*
X30449489Y-85912128D01*
X30449485Y-85912137D01*
X30390412Y-86132605D01*
X30390410Y-86132614D01*
X30384559Y-86199494D01*
X30359106Y-86264562D01*
X30348712Y-86276366D01*
X28531899Y-88093181D01*
X28470576Y-88126666D01*
X28444218Y-88129500D01*
X24624782Y-88129500D01*
X24557743Y-88109815D01*
X24511988Y-88057011D01*
X24502044Y-87987853D01*
X24531069Y-87924297D01*
X24537092Y-87917826D01*
X24763634Y-87691284D01*
X24824953Y-87657802D01*
X24840498Y-87655441D01*
X24907389Y-87649589D01*
X25127870Y-87590512D01*
X25334742Y-87494046D01*
X25521719Y-87363122D01*
X25683122Y-87201719D01*
X25814046Y-87014742D01*
X25910512Y-86807870D01*
X25969589Y-86587389D01*
X25989483Y-86360000D01*
X25969589Y-86132611D01*
X25910512Y-85912130D01*
X25814046Y-85705259D01*
X25814044Y-85705255D01*
X25718781Y-85569208D01*
X25683122Y-85518281D01*
X25521719Y-85356878D01*
X25521717Y-85356876D01*
X25521712Y-85356872D01*
X25334745Y-85225955D01*
X25334741Y-85225953D01*
X25231306Y-85177721D01*
X25127870Y-85129488D01*
X25127866Y-85129487D01*
X25127862Y-85129485D01*
X24907394Y-85070412D01*
X24907390Y-85070411D01*
X24907389Y-85070411D01*
X24907388Y-85070410D01*
X24907383Y-85070410D01*
X24680002Y-85050517D01*
X24679998Y-85050517D01*
X24452616Y-85070410D01*
X24452605Y-85070412D01*
X24232137Y-85129485D01*
X24232128Y-85129489D01*
X24025259Y-85225953D01*
X24025255Y-85225955D01*
X23838280Y-85356878D01*
X23676878Y-85518280D01*
X23545955Y-85705255D01*
X23545953Y-85705259D01*
X23449489Y-85912128D01*
X23449485Y-85912137D01*
X23390412Y-86132605D01*
X23390410Y-86132614D01*
X23384558Y-86199496D01*
X23359104Y-86264564D01*
X23348713Y-86276366D01*
X23031897Y-86593182D01*
X22970576Y-86626666D01*
X22944218Y-86629500D01*
X7172990Y-86629500D01*
X7105951Y-86609815D01*
X7061778Y-86560344D01*
X7033172Y-86502336D01*
X6869273Y-86257043D01*
X6760153Y-86132616D01*
X6674758Y-86035241D01*
X6452955Y-85840725D01*
X6207667Y-85676829D01*
X6207660Y-85676825D01*
X5943080Y-85546349D01*
X5663730Y-85451521D01*
X5663724Y-85451519D01*
X5663722Y-85451519D01*
X5374380Y-85393966D01*
X5374373Y-85393965D01*
X5374363Y-85393964D01*
X5080007Y-85374671D01*
X5079993Y-85374671D01*
X4785636Y-85393964D01*
X4785624Y-85393965D01*
X4785620Y-85393966D01*
X4785612Y-85393967D01*
X4785609Y-85393968D01*
X4496283Y-85451518D01*
X4496269Y-85451521D01*
X4216919Y-85546349D01*
X3952334Y-85676828D01*
X3707041Y-85840728D01*
X3485241Y-86035241D01*
X3290728Y-86257041D01*
X3126828Y-86502334D01*
X2996349Y-86766919D01*
X2901521Y-87046269D01*
X2901518Y-87046283D01*
X2843968Y-87335609D01*
X2843964Y-87335636D01*
X2824671Y-87629992D01*
X500500Y-87629992D01*
X500500Y-82549992D01*
X2824671Y-82549992D01*
X2824671Y-82550007D01*
X2843964Y-82844363D01*
X2843965Y-82844373D01*
X2843966Y-82844380D01*
X2843968Y-82844390D01*
X2901518Y-83133716D01*
X2901521Y-83133730D01*
X2996349Y-83413080D01*
X3126825Y-83677660D01*
X3126829Y-83677667D01*
X3290725Y-83922955D01*
X3485241Y-84144758D01*
X3707043Y-84339273D01*
X3952335Y-84503172D01*
X4216923Y-84633652D01*
X4496278Y-84728481D01*
X4785620Y-84786034D01*
X4813888Y-84787886D01*
X5079993Y-84805329D01*
X5080000Y-84805329D01*
X5080007Y-84805329D01*
X5315675Y-84789881D01*
X5374380Y-84786034D01*
X5663722Y-84728481D01*
X5943077Y-84633652D01*
X6207665Y-84503172D01*
X6452957Y-84339273D01*
X6674758Y-84144758D01*
X6869273Y-83922957D01*
X7033172Y-83677665D01*
X7061778Y-83619655D01*
X7109084Y-83568237D01*
X7172991Y-83550500D01*
X27968542Y-83550500D01*
X27987870Y-83546655D01*
X28065188Y-83531275D01*
X28161836Y-83512051D01*
X28215165Y-83489961D01*
X28343914Y-83436632D01*
X28507782Y-83327139D01*
X28647139Y-83187782D01*
X28647139Y-83187780D01*
X28657347Y-83177573D01*
X28657349Y-83177570D01*
X31763634Y-80071284D01*
X31824955Y-80037801D01*
X31840496Y-80035440D01*
X31907389Y-80029589D01*
X32127870Y-79970512D01*
X32334742Y-79874046D01*
X32521719Y-79743122D01*
X32683122Y-79581719D01*
X32814046Y-79394742D01*
X32910512Y-79187870D01*
X32969589Y-78967389D01*
X32989483Y-78740000D01*
X32969589Y-78512611D01*
X32910512Y-78292130D01*
X32814046Y-78085259D01*
X32814044Y-78085255D01*
X32683121Y-77898280D01*
X32521722Y-77736881D01*
X32521712Y-77736872D01*
X32334745Y-77605955D01*
X32334741Y-77605953D01*
X32231306Y-77557721D01*
X32127870Y-77509488D01*
X32127866Y-77509487D01*
X32127862Y-77509485D01*
X31907394Y-77450412D01*
X31907390Y-77450411D01*
X31907389Y-77450411D01*
X31907388Y-77450410D01*
X31907383Y-77450410D01*
X31680002Y-77430517D01*
X31679998Y-77430517D01*
X31452616Y-77450410D01*
X31452605Y-77450412D01*
X31232137Y-77509485D01*
X31232128Y-77509489D01*
X31025259Y-77605953D01*
X31025255Y-77605955D01*
X30838280Y-77736878D01*
X30676878Y-77898280D01*
X30545955Y-78085255D01*
X30545953Y-78085259D01*
X30449489Y-78292128D01*
X30449485Y-78292137D01*
X30390412Y-78512605D01*
X30390410Y-78512614D01*
X30384559Y-78579494D01*
X30359106Y-78644562D01*
X30348712Y-78656366D01*
X27491899Y-81513181D01*
X27430576Y-81546666D01*
X27404218Y-81549500D01*
X7172990Y-81549500D01*
X7105951Y-81529815D01*
X7061778Y-81480344D01*
X7033172Y-81422336D01*
X6869273Y-81177043D01*
X6826655Y-81128447D01*
X6674758Y-80955241D01*
X6452955Y-80760725D01*
X6207667Y-80596829D01*
X6207660Y-80596825D01*
X5943080Y-80466349D01*
X5663730Y-80371521D01*
X5663724Y-80371519D01*
X5663722Y-80371519D01*
X5374380Y-80313966D01*
X5374373Y-80313965D01*
X5374363Y-80313964D01*
X5080007Y-80294671D01*
X5079993Y-80294671D01*
X4785636Y-80313964D01*
X4785624Y-80313965D01*
X4785620Y-80313966D01*
X4785612Y-80313967D01*
X4785609Y-80313968D01*
X4496283Y-80371518D01*
X4496269Y-80371521D01*
X4216919Y-80466349D01*
X3952334Y-80596828D01*
X3707041Y-80760728D01*
X3485241Y-80955241D01*
X3290728Y-81177041D01*
X3126828Y-81422334D01*
X2996349Y-81686919D01*
X2901521Y-81966269D01*
X2901518Y-81966283D01*
X2843968Y-82255609D01*
X2843964Y-82255636D01*
X2824671Y-82549992D01*
X500500Y-82549992D01*
X500500Y-77469992D01*
X2824671Y-77469992D01*
X2824671Y-77470007D01*
X2843964Y-77764363D01*
X2843965Y-77764373D01*
X2843966Y-77764380D01*
X2843968Y-77764390D01*
X2901518Y-78053716D01*
X2901521Y-78053730D01*
X2996349Y-78333080D01*
X3126825Y-78597660D01*
X3126829Y-78597667D01*
X3290725Y-78842955D01*
X3485241Y-79064758D01*
X3707044Y-79259274D01*
X3909791Y-79394745D01*
X3952335Y-79423172D01*
X4216923Y-79553652D01*
X4496278Y-79648481D01*
X4785620Y-79706034D01*
X4813888Y-79707886D01*
X5079993Y-79725329D01*
X5080000Y-79725329D01*
X5080007Y-79725329D01*
X5315675Y-79709881D01*
X5374380Y-79706034D01*
X5663722Y-79648481D01*
X5943077Y-79553652D01*
X6207665Y-79423172D01*
X6452957Y-79259273D01*
X6674758Y-79064758D01*
X6869273Y-78842957D01*
X7033172Y-78597665D01*
X7061778Y-78539655D01*
X7109084Y-78488237D01*
X7172991Y-78470500D01*
X22944218Y-78470500D01*
X23011257Y-78490185D01*
X23031899Y-78506819D01*
X23348711Y-78823631D01*
X23382196Y-78884954D01*
X23384558Y-78900502D01*
X23390410Y-78967385D01*
X23390412Y-78967394D01*
X23449485Y-79187862D01*
X23449487Y-79187866D01*
X23449488Y-79187870D01*
X23482784Y-79259273D01*
X23545953Y-79394741D01*
X23545955Y-79394745D01*
X23676872Y-79581712D01*
X23676881Y-79581722D01*
X23838277Y-79743118D01*
X23838287Y-79743127D01*
X24025254Y-79874044D01*
X24025258Y-79874046D01*
X24232130Y-79970512D01*
X24452611Y-80029589D01*
X24615031Y-80043799D01*
X24679998Y-80049483D01*
X24680000Y-80049483D01*
X24680002Y-80049483D01*
X24736847Y-80044509D01*
X24907389Y-80029589D01*
X25127870Y-79970512D01*
X25334742Y-79874046D01*
X25521719Y-79743122D01*
X25683122Y-79581719D01*
X25814046Y-79394742D01*
X25910512Y-79187870D01*
X25969589Y-78967389D01*
X25989483Y-78740000D01*
X25969589Y-78512611D01*
X25910512Y-78292130D01*
X25814046Y-78085259D01*
X25814044Y-78085255D01*
X25683121Y-77898280D01*
X25521722Y-77736881D01*
X25521712Y-77736872D01*
X25334745Y-77605955D01*
X25334741Y-77605953D01*
X25231306Y-77557721D01*
X25127870Y-77509488D01*
X25127866Y-77509487D01*
X25127862Y-77509485D01*
X24907394Y-77450412D01*
X24907385Y-77450410D01*
X24840502Y-77444558D01*
X24775434Y-77419104D01*
X24763631Y-77408711D01*
X24191479Y-76836559D01*
X24191459Y-76836537D01*
X24047785Y-76692863D01*
X24047781Y-76692860D01*
X23883920Y-76583371D01*
X23883911Y-76583366D01*
X23811315Y-76553296D01*
X23755165Y-76530038D01*
X23701836Y-76507949D01*
X23701832Y-76507948D01*
X23701828Y-76507946D01*
X23605188Y-76488724D01*
X23508544Y-76469500D01*
X23508541Y-76469500D01*
X7172990Y-76469500D01*
X7105951Y-76449815D01*
X7061778Y-76400344D01*
X7033172Y-76342336D01*
X6869273Y-76097043D01*
X6826655Y-76048447D01*
X6674758Y-75875241D01*
X6452955Y-75680725D01*
X6207667Y-75516829D01*
X6207660Y-75516825D01*
X5943080Y-75386349D01*
X5663730Y-75291521D01*
X5663724Y-75291519D01*
X5663722Y-75291519D01*
X5374380Y-75233966D01*
X5374373Y-75233965D01*
X5374363Y-75233964D01*
X5080007Y-75214671D01*
X5079993Y-75214671D01*
X4785636Y-75233964D01*
X4785624Y-75233965D01*
X4785620Y-75233966D01*
X4785612Y-75233967D01*
X4785609Y-75233968D01*
X4496283Y-75291518D01*
X4496269Y-75291521D01*
X4216919Y-75386349D01*
X3952334Y-75516828D01*
X3707041Y-75680728D01*
X3485241Y-75875241D01*
X3290728Y-76097041D01*
X3126828Y-76342334D01*
X2996349Y-76606919D01*
X2901521Y-76886269D01*
X2901518Y-76886283D01*
X2843968Y-77175609D01*
X2843964Y-77175636D01*
X2824671Y-77469992D01*
X500500Y-77469992D01*
X500500Y-21589992D01*
X2824671Y-21589992D01*
X2824671Y-21590007D01*
X2843964Y-21884363D01*
X2843965Y-21884373D01*
X2843966Y-21884380D01*
X2888039Y-22105955D01*
X2901518Y-22173716D01*
X2901521Y-22173730D01*
X2996349Y-22453080D01*
X3126825Y-22717660D01*
X3126829Y-22717667D01*
X3290725Y-22962955D01*
X3485241Y-23184758D01*
X3548234Y-23240001D01*
X3707043Y-23379273D01*
X3952335Y-23543172D01*
X4216923Y-23673652D01*
X4496278Y-23768481D01*
X4785620Y-23826034D01*
X4813888Y-23827886D01*
X5079993Y-23845329D01*
X5080000Y-23845329D01*
X5080007Y-23845329D01*
X5315675Y-23829881D01*
X5374380Y-23826034D01*
X5663722Y-23768481D01*
X5943077Y-23673652D01*
X6207665Y-23543172D01*
X6452957Y-23379273D01*
X6674758Y-23184758D01*
X6869273Y-22962957D01*
X7033172Y-22717665D01*
X7061778Y-22659655D01*
X7109084Y-22608237D01*
X7172991Y-22590500D01*
X23348869Y-22590500D01*
X23415908Y-22610185D01*
X23461663Y-22662989D01*
X23471607Y-22732147D01*
X23461251Y-22766905D01*
X23449488Y-22792128D01*
X23449485Y-22792137D01*
X23390412Y-23012605D01*
X23390410Y-23012614D01*
X23384559Y-23079494D01*
X23359106Y-23144562D01*
X23348712Y-23156366D01*
X20871899Y-25633181D01*
X20810576Y-25666666D01*
X20784218Y-25669500D01*
X7172990Y-25669500D01*
X7105951Y-25649815D01*
X7061778Y-25600344D01*
X7033172Y-25542336D01*
X6869273Y-25297043D01*
X6826655Y-25248447D01*
X6674758Y-25075241D01*
X6452955Y-24880725D01*
X6207667Y-24716829D01*
X6207660Y-24716825D01*
X5943080Y-24586349D01*
X5663730Y-24491521D01*
X5663724Y-24491519D01*
X5663722Y-24491519D01*
X5374380Y-24433966D01*
X5374373Y-24433965D01*
X5374363Y-24433964D01*
X5080007Y-24414671D01*
X5079993Y-24414671D01*
X4785636Y-24433964D01*
X4785624Y-24433965D01*
X4785620Y-24433966D01*
X4785612Y-24433967D01*
X4785609Y-24433968D01*
X4496283Y-24491518D01*
X4496269Y-24491521D01*
X4216919Y-24586349D01*
X3952334Y-24716828D01*
X3707041Y-24880728D01*
X3485241Y-25075241D01*
X3290728Y-25297041D01*
X3126828Y-25542334D01*
X2996349Y-25806919D01*
X2901521Y-26086269D01*
X2901518Y-26086283D01*
X2843968Y-26375609D01*
X2843964Y-26375636D01*
X2824671Y-26669992D01*
X2824671Y-26670007D01*
X2843964Y-26964363D01*
X2843965Y-26964373D01*
X2843966Y-26964380D01*
X2843968Y-26964390D01*
X2901518Y-27253716D01*
X2901521Y-27253730D01*
X2996349Y-27533080D01*
X3126825Y-27797660D01*
X3126829Y-27797667D01*
X3290725Y-28042955D01*
X3485241Y-28264758D01*
X3707043Y-28459273D01*
X3952335Y-28623172D01*
X4216923Y-28753652D01*
X4496278Y-28848481D01*
X4785620Y-28906034D01*
X4813888Y-28907886D01*
X5079993Y-28925329D01*
X5080000Y-28925329D01*
X5080007Y-28925329D01*
X5315675Y-28909881D01*
X5374380Y-28906034D01*
X5663722Y-28848481D01*
X5943077Y-28753652D01*
X6207665Y-28623172D01*
X6452957Y-28459273D01*
X6674758Y-28264758D01*
X6869273Y-28042957D01*
X7033172Y-27797665D01*
X7061778Y-27739655D01*
X7109084Y-27688237D01*
X7172991Y-27670500D01*
X21348542Y-27670500D01*
X21367870Y-27666655D01*
X21445188Y-27651275D01*
X21541836Y-27632051D01*
X21595165Y-27609961D01*
X21723914Y-27556632D01*
X21887782Y-27447139D01*
X22027139Y-27307782D01*
X22027139Y-27307780D01*
X22037347Y-27297573D01*
X22037349Y-27297570D01*
X24763634Y-24571284D01*
X24824955Y-24537801D01*
X24840496Y-24535440D01*
X24907389Y-24529589D01*
X25127870Y-24470512D01*
X25334742Y-24374046D01*
X25521719Y-24243122D01*
X25683122Y-24081719D01*
X25814046Y-23894742D01*
X25910512Y-23687870D01*
X25969589Y-23467389D01*
X25989483Y-23240000D01*
X25969589Y-23012611D01*
X25910512Y-22792130D01*
X25814046Y-22585259D01*
X25814044Y-22585255D01*
X25683121Y-22398280D01*
X25521722Y-22236881D01*
X25521712Y-22236872D01*
X25334745Y-22105955D01*
X25334741Y-22105953D01*
X25231306Y-22057721D01*
X25127870Y-22009488D01*
X25127866Y-22009487D01*
X25127862Y-22009485D01*
X25056386Y-21990334D01*
X24996725Y-21953969D01*
X24966196Y-21891123D01*
X24974490Y-21821747D01*
X25000795Y-21782881D01*
X30126859Y-16656819D01*
X30188182Y-16623334D01*
X30214540Y-16620500D01*
X30795439Y-16620500D01*
X30862478Y-16640185D01*
X30866547Y-16642914D01*
X31025258Y-16754046D01*
X31232130Y-16850512D01*
X31452611Y-16909589D01*
X31615031Y-16923799D01*
X31679998Y-16929483D01*
X31680000Y-16929483D01*
X31680002Y-16929483D01*
X31736847Y-16924509D01*
X31907389Y-16909589D01*
X32127870Y-16850512D01*
X32334742Y-16754046D01*
X32521719Y-16623122D01*
X32683122Y-16461719D01*
X32814046Y-16274742D01*
X32910512Y-16067870D01*
X32969589Y-15847389D01*
X32989483Y-15620000D01*
X32969589Y-15392611D01*
X32910512Y-15172130D01*
X32814046Y-14965259D01*
X32814044Y-14965255D01*
X32683121Y-14778280D01*
X32521722Y-14616881D01*
X32521712Y-14616872D01*
X32334745Y-14485955D01*
X32334741Y-14485953D01*
X32231306Y-14437721D01*
X32127870Y-14389488D01*
X32127866Y-14389487D01*
X32127862Y-14389485D01*
X31907394Y-14330412D01*
X31907390Y-14330411D01*
X31907389Y-14330411D01*
X31907388Y-14330410D01*
X31907383Y-14330410D01*
X31680002Y-14310517D01*
X31679998Y-14310517D01*
X31452616Y-14330410D01*
X31452605Y-14330412D01*
X31232137Y-14389485D01*
X31232128Y-14389489D01*
X31025261Y-14485952D01*
X30967919Y-14526103D01*
X30866561Y-14597075D01*
X30800358Y-14619402D01*
X30795440Y-14619500D01*
X29650213Y-14619500D01*
X29553570Y-14638724D01*
X29456925Y-14657947D01*
X29456919Y-14657949D01*
X29403592Y-14680037D01*
X29403592Y-14680038D01*
X29358073Y-14698892D01*
X29274847Y-14733366D01*
X29274837Y-14733371D01*
X29110977Y-14842859D01*
X29041298Y-14912538D01*
X28971619Y-14982218D01*
X28971616Y-14982221D01*
X23400657Y-20553181D01*
X23339334Y-20586666D01*
X23312976Y-20589500D01*
X7172990Y-20589500D01*
X7105951Y-20569815D01*
X7061778Y-20520344D01*
X7033172Y-20462336D01*
X6869273Y-20217043D01*
X6826655Y-20168447D01*
X6674758Y-19995241D01*
X6452955Y-19800725D01*
X6207667Y-19636829D01*
X6207660Y-19636825D01*
X5943080Y-19506349D01*
X5663730Y-19411521D01*
X5663724Y-19411519D01*
X5663722Y-19411519D01*
X5374380Y-19353966D01*
X5374373Y-19353965D01*
X5374363Y-19353964D01*
X5080007Y-19334671D01*
X5079993Y-19334671D01*
X4785636Y-19353964D01*
X4785624Y-19353965D01*
X4785620Y-19353966D01*
X4785612Y-19353967D01*
X4785609Y-19353968D01*
X4496283Y-19411518D01*
X4496269Y-19411521D01*
X4216919Y-19506349D01*
X3952334Y-19636828D01*
X3707041Y-19800728D01*
X3485241Y-19995241D01*
X3290728Y-20217041D01*
X3126828Y-20462334D01*
X2996349Y-20726919D01*
X2901521Y-21006269D01*
X2901518Y-21006283D01*
X2843968Y-21295609D01*
X2843964Y-21295636D01*
X2824671Y-21589992D01*
X500500Y-21589992D01*
X500500Y-16509992D01*
X2824671Y-16509992D01*
X2824671Y-16510007D01*
X2843964Y-16804363D01*
X2843965Y-16804373D01*
X2843966Y-16804380D01*
X2866839Y-16919374D01*
X2901518Y-17093716D01*
X2901521Y-17093730D01*
X2996349Y-17373080D01*
X3126825Y-17637660D01*
X3126829Y-17637667D01*
X3290725Y-17882955D01*
X3485241Y-18104758D01*
X3707043Y-18299273D01*
X3952335Y-18463172D01*
X4216923Y-18593652D01*
X4496278Y-18688481D01*
X4785620Y-18746034D01*
X4813888Y-18747886D01*
X5079993Y-18765329D01*
X5080000Y-18765329D01*
X5080007Y-18765329D01*
X5315675Y-18749881D01*
X5374380Y-18746034D01*
X5663722Y-18688481D01*
X5943077Y-18593652D01*
X6207665Y-18463172D01*
X6452957Y-18299273D01*
X6674758Y-18104758D01*
X6869273Y-17882957D01*
X7033172Y-17637665D01*
X7061778Y-17579655D01*
X7109084Y-17528237D01*
X7172991Y-17510500D01*
X23888542Y-17510500D01*
X23907870Y-17506655D01*
X23985188Y-17491275D01*
X24081836Y-17472051D01*
X24135165Y-17449961D01*
X24263914Y-17396632D01*
X24427782Y-17287139D01*
X24567139Y-17147782D01*
X24567140Y-17147779D01*
X24574206Y-17140714D01*
X24574209Y-17140710D01*
X24763633Y-16951285D01*
X24824954Y-16917802D01*
X24840498Y-16915441D01*
X24907389Y-16909589D01*
X25127870Y-16850512D01*
X25334742Y-16754046D01*
X25521719Y-16623122D01*
X25683122Y-16461719D01*
X25814046Y-16274742D01*
X25910512Y-16067870D01*
X25969589Y-15847389D01*
X25989483Y-15620000D01*
X25969589Y-15392611D01*
X25910512Y-15172130D01*
X25814046Y-14965259D01*
X25814044Y-14965255D01*
X25683121Y-14778280D01*
X25521722Y-14616881D01*
X25521712Y-14616872D01*
X25334745Y-14485955D01*
X25334741Y-14485953D01*
X25231306Y-14437721D01*
X25127870Y-14389488D01*
X25127866Y-14389487D01*
X25127862Y-14389485D01*
X24907394Y-14330412D01*
X24907390Y-14330411D01*
X24907389Y-14330411D01*
X24907388Y-14330410D01*
X24907383Y-14330410D01*
X24680002Y-14310517D01*
X24679998Y-14310517D01*
X24452616Y-14330410D01*
X24452605Y-14330412D01*
X24232137Y-14389485D01*
X24232128Y-14389489D01*
X24025259Y-14485953D01*
X24025255Y-14485955D01*
X23838280Y-14616878D01*
X23676878Y-14778280D01*
X23545955Y-14965255D01*
X23545953Y-14965259D01*
X23449489Y-15172128D01*
X23449485Y-15172137D01*
X23390412Y-15392605D01*
X23390410Y-15392617D01*
X23390088Y-15396304D01*
X23389491Y-15397828D01*
X23389472Y-15397940D01*
X23389449Y-15397936D01*
X23364638Y-15461373D01*
X23308048Y-15502353D01*
X23266560Y-15509500D01*
X7172990Y-15509500D01*
X7105951Y-15489815D01*
X7061778Y-15440344D01*
X7033172Y-15382336D01*
X6869273Y-15137043D01*
X6826655Y-15088447D01*
X6674758Y-14915241D01*
X6452955Y-14720725D01*
X6207667Y-14556829D01*
X6207660Y-14556825D01*
X5943080Y-14426349D01*
X5663730Y-14331521D01*
X5663724Y-14331519D01*
X5663722Y-14331519D01*
X5374380Y-14273966D01*
X5374373Y-14273965D01*
X5374363Y-14273964D01*
X5080007Y-14254671D01*
X5079993Y-14254671D01*
X4785636Y-14273964D01*
X4785624Y-14273965D01*
X4785620Y-14273966D01*
X4785612Y-14273967D01*
X4785609Y-14273968D01*
X4496283Y-14331518D01*
X4496269Y-14331521D01*
X4216919Y-14426349D01*
X3952334Y-14556828D01*
X3707041Y-14720728D01*
X3485241Y-14915241D01*
X3290728Y-15137041D01*
X3126828Y-15382334D01*
X2996349Y-15646919D01*
X2901521Y-15926269D01*
X2901518Y-15926283D01*
X2843968Y-16215609D01*
X2843964Y-16215636D01*
X2824671Y-16509992D01*
X500500Y-16509992D01*
X500500Y-11429992D01*
X2824671Y-11429992D01*
X2824671Y-11430007D01*
X2843964Y-11724363D01*
X2843965Y-11724373D01*
X2843966Y-11724380D01*
X2843968Y-11724390D01*
X2901518Y-12013716D01*
X2901521Y-12013730D01*
X2996349Y-12293080D01*
X3126825Y-12557660D01*
X3126829Y-12557667D01*
X3290725Y-12802955D01*
X3485241Y-13024758D01*
X3707043Y-13219273D01*
X3952335Y-13383172D01*
X4216923Y-13513652D01*
X4496278Y-13608481D01*
X4785620Y-13666034D01*
X4813888Y-13667886D01*
X5079993Y-13685329D01*
X5080000Y-13685329D01*
X5080007Y-13685329D01*
X5315675Y-13669881D01*
X5374380Y-13666034D01*
X5663722Y-13608481D01*
X5943077Y-13513652D01*
X6207665Y-13383172D01*
X6452957Y-13219273D01*
X6674758Y-13024758D01*
X6869273Y-12802957D01*
X7033172Y-12557665D01*
X7061778Y-12499655D01*
X7109084Y-12448237D01*
X7172991Y-12430500D01*
X28348542Y-12430500D01*
X28367870Y-12426655D01*
X28445188Y-12411275D01*
X28541836Y-12392051D01*
X28595165Y-12369961D01*
X28723914Y-12316632D01*
X28887782Y-12207139D01*
X29027139Y-12067782D01*
X29027139Y-12067780D01*
X29037347Y-12057573D01*
X29037349Y-12057570D01*
X31763634Y-9331284D01*
X31824955Y-9297801D01*
X31840496Y-9295440D01*
X31907389Y-9289589D01*
X32127870Y-9230512D01*
X32334742Y-9134046D01*
X32521719Y-9003122D01*
X32683122Y-8841719D01*
X32814046Y-8654742D01*
X32910512Y-8447870D01*
X32969589Y-8227389D01*
X32989483Y-8000000D01*
X32969589Y-7772611D01*
X32910512Y-7552130D01*
X32814046Y-7345259D01*
X32814044Y-7345255D01*
X32683121Y-7158280D01*
X32521722Y-6996881D01*
X32521712Y-6996872D01*
X32334745Y-6865955D01*
X32334741Y-6865953D01*
X32231306Y-6817721D01*
X32127870Y-6769488D01*
X32127866Y-6769487D01*
X32127862Y-6769485D01*
X31907394Y-6710412D01*
X31907390Y-6710411D01*
X31907389Y-6710411D01*
X31907388Y-6710410D01*
X31907383Y-6710410D01*
X31680002Y-6690517D01*
X31679998Y-6690517D01*
X31452616Y-6710410D01*
X31452605Y-6710412D01*
X31232137Y-6769485D01*
X31232128Y-6769489D01*
X31025259Y-6865953D01*
X31025255Y-6865955D01*
X30838280Y-6996878D01*
X30676878Y-7158280D01*
X30545955Y-7345255D01*
X30545953Y-7345259D01*
X30449489Y-7552128D01*
X30449485Y-7552137D01*
X30390412Y-7772605D01*
X30390410Y-7772614D01*
X30384559Y-7839494D01*
X30359106Y-7904562D01*
X30348712Y-7916366D01*
X27871899Y-10393181D01*
X27810576Y-10426666D01*
X27784218Y-10429500D01*
X7172990Y-10429500D01*
X7105951Y-10409815D01*
X7061778Y-10360344D01*
X7033172Y-10302336D01*
X6869273Y-10057043D01*
X6826655Y-10008447D01*
X6674758Y-9835241D01*
X6452955Y-9640725D01*
X6207667Y-9476829D01*
X6207660Y-9476825D01*
X5943080Y-9346349D01*
X5663730Y-9251521D01*
X5663724Y-9251519D01*
X5663722Y-9251519D01*
X5374380Y-9193966D01*
X5374373Y-9193965D01*
X5374363Y-9193964D01*
X5080007Y-9174671D01*
X5079993Y-9174671D01*
X4785636Y-9193964D01*
X4785624Y-9193965D01*
X4785620Y-9193966D01*
X4785612Y-9193967D01*
X4785609Y-9193968D01*
X4496283Y-9251518D01*
X4496269Y-9251521D01*
X4216919Y-9346349D01*
X3952334Y-9476828D01*
X3707041Y-9640728D01*
X3485241Y-9835241D01*
X3290728Y-10057041D01*
X3126828Y-10302334D01*
X2996349Y-10566919D01*
X2901521Y-10846269D01*
X2901518Y-10846283D01*
X2843968Y-11135609D01*
X2843964Y-11135636D01*
X2824671Y-11429992D01*
X500500Y-11429992D01*
X500500Y-3813246D01*
X500670Y-3806756D01*
X503953Y-3744108D01*
X518290Y-3470547D01*
X519647Y-3457641D01*
X521141Y-3448211D01*
X571806Y-3128318D01*
X574496Y-3115661D01*
X660799Y-2793571D01*
X664801Y-2781256D01*
X784298Y-2469954D01*
X789561Y-2458133D01*
X940951Y-2161014D01*
X947417Y-2149816D01*
X1129029Y-1870158D01*
X1136631Y-1859695D01*
X1346483Y-1600548D01*
X1355150Y-1590923D01*
X1590923Y-1355150D01*
X1600548Y-1346483D01*
X1859695Y-1136631D01*
X1870158Y-1129029D01*
X2149816Y-947417D01*
X2161014Y-940951D01*
X2458133Y-789561D01*
X2469954Y-784298D01*
X2781256Y-664801D01*
X2793571Y-660799D01*
X3115661Y-574496D01*
X3128318Y-571806D01*
X3457643Y-519646D01*
X3470547Y-518290D01*
X3806756Y-500669D01*
X3813246Y-500500D01*
X3875892Y-500500D01*
X6284108Y-500500D01*
X6346754Y-500500D01*
X6353243Y-500669D01*
G37*
%TD.AperFunction*%
%TD*%
%TA.AperFunction,Conductor*%
%TO.N,GND*%
G36*
X74933243Y-500669D02*
G01*
X75269450Y-518290D01*
X75282358Y-519647D01*
X75611677Y-571806D01*
X75624342Y-574497D01*
X75946422Y-660798D01*
X75958749Y-664803D01*
X76270038Y-784296D01*
X76281873Y-789565D01*
X76578976Y-940947D01*
X76590191Y-947423D01*
X76869832Y-1129023D01*
X76880313Y-1136638D01*
X77139441Y-1346475D01*
X77149086Y-1355160D01*
X77384839Y-1590913D01*
X77393524Y-1600558D01*
X77603359Y-1859683D01*
X77610978Y-1870171D01*
X77792573Y-2149802D01*
X77799055Y-2161029D01*
X77928834Y-2415733D01*
X77950429Y-2458115D01*
X77955708Y-2469972D01*
X78075193Y-2781241D01*
X78079204Y-2793586D01*
X78165498Y-3115642D01*
X78168196Y-3128337D01*
X78220352Y-3457641D01*
X78221709Y-3470549D01*
X78239330Y-3806756D01*
X78239500Y-3813246D01*
X78239500Y-10286627D01*
X78275541Y-10537303D01*
X78275543Y-10537313D01*
X78346894Y-10780312D01*
X78452093Y-11010666D01*
X78452106Y-11010689D01*
X78589016Y-11223725D01*
X78589020Y-11223731D01*
X78754868Y-11415131D01*
X78946268Y-11580979D01*
X78946274Y-11580983D01*
X79159310Y-11717893D01*
X79159333Y-11717906D01*
X79389687Y-11823105D01*
X79389691Y-11823106D01*
X79389693Y-11823107D01*
X79632692Y-11894458D01*
X79883371Y-11930500D01*
X79883374Y-11930500D01*
X90296626Y-11930500D01*
X90296629Y-11930500D01*
X90547308Y-11894458D01*
X90790307Y-11823107D01*
X90790310Y-11823105D01*
X90790312Y-11823105D01*
X91020666Y-11717906D01*
X91020670Y-11717903D01*
X91020678Y-11717900D01*
X91233732Y-11580979D01*
X91425131Y-11415131D01*
X91590979Y-11223732D01*
X91727900Y-11010678D01*
X91727903Y-11010670D01*
X91727906Y-11010666D01*
X91833105Y-10780312D01*
X91833105Y-10780310D01*
X91833107Y-10780307D01*
X91904458Y-10537308D01*
X91940500Y-10286629D01*
X91940500Y-10160000D01*
X91940500Y-10094108D01*
X91940500Y-3813246D01*
X91940670Y-3806756D01*
X91943953Y-3744108D01*
X91946856Y-3688711D01*
X93399500Y-3688711D01*
X93399500Y-3931288D01*
X93431161Y-4171785D01*
X93493947Y-4406104D01*
X93586773Y-4630205D01*
X93586776Y-4630212D01*
X93708064Y-4840289D01*
X93708066Y-4840292D01*
X93708067Y-4840293D01*
X93855733Y-5032736D01*
X93855739Y-5032743D01*
X94027256Y-5204260D01*
X94027263Y-5204266D01*
X94134131Y-5286268D01*
X94219711Y-5351936D01*
X94429788Y-5473224D01*
X94653900Y-5566054D01*
X94888211Y-5628838D01*
X95068586Y-5652584D01*
X95128711Y-5660500D01*
X95128712Y-5660500D01*
X95371289Y-5660500D01*
X95419388Y-5654167D01*
X95611789Y-5628838D01*
X95846100Y-5566054D01*
X96070212Y-5473224D01*
X96280289Y-5351936D01*
X96472738Y-5204265D01*
X96644265Y-5032738D01*
X96791936Y-4840289D01*
X96913224Y-4630212D01*
X97006054Y-4406100D01*
X97068838Y-4171789D01*
X97100500Y-3931288D01*
X97100500Y-3688712D01*
X97068838Y-3448211D01*
X97006054Y-3213900D01*
X96913224Y-2989788D01*
X96791936Y-2779711D01*
X96644265Y-2587262D01*
X96644260Y-2587256D01*
X96472743Y-2415739D01*
X96472736Y-2415733D01*
X96280293Y-2268067D01*
X96280292Y-2268066D01*
X96280289Y-2268064D01*
X96094909Y-2161035D01*
X96070214Y-2146777D01*
X96070205Y-2146773D01*
X95846104Y-2053947D01*
X95611785Y-1991161D01*
X95371289Y-1959500D01*
X95371288Y-1959500D01*
X95128712Y-1959500D01*
X95128711Y-1959500D01*
X94888214Y-1991161D01*
X94653895Y-2053947D01*
X94429794Y-2146773D01*
X94429785Y-2146777D01*
X94219706Y-2268067D01*
X94027263Y-2415733D01*
X94027256Y-2415739D01*
X93855739Y-2587256D01*
X93855733Y-2587263D01*
X93708067Y-2779706D01*
X93586777Y-2989785D01*
X93586773Y-2989794D01*
X93493947Y-3213895D01*
X93431161Y-3448214D01*
X93399500Y-3688711D01*
X91946856Y-3688711D01*
X91958290Y-3470547D01*
X91959647Y-3457641D01*
X91961141Y-3448211D01*
X92011806Y-3128318D01*
X92014496Y-3115661D01*
X92100799Y-2793571D01*
X92104801Y-2781256D01*
X92224298Y-2469954D01*
X92229561Y-2458133D01*
X92380951Y-2161014D01*
X92387417Y-2149816D01*
X92569029Y-1870158D01*
X92576631Y-1859695D01*
X92786483Y-1600548D01*
X92795150Y-1590923D01*
X93030923Y-1355150D01*
X93040548Y-1346483D01*
X93299695Y-1136631D01*
X93310158Y-1129029D01*
X93589816Y-947417D01*
X93601014Y-940951D01*
X93898133Y-789561D01*
X93909954Y-784298D01*
X94221256Y-664801D01*
X94233571Y-660799D01*
X94555661Y-574496D01*
X94568318Y-571806D01*
X94897643Y-519646D01*
X94910547Y-518290D01*
X95243512Y-500840D01*
X95256488Y-500840D01*
X95589450Y-518290D01*
X95602358Y-519647D01*
X95931677Y-571806D01*
X95944342Y-574497D01*
X96266422Y-660798D01*
X96278749Y-664803D01*
X96590038Y-784296D01*
X96601873Y-789565D01*
X96898976Y-940947D01*
X96910191Y-947423D01*
X97189832Y-1129023D01*
X97200313Y-1136638D01*
X97459441Y-1346475D01*
X97469086Y-1355160D01*
X97704839Y-1590913D01*
X97713524Y-1600558D01*
X97923359Y-1859683D01*
X97930978Y-1870171D01*
X98112573Y-2149802D01*
X98119055Y-2161029D01*
X98248834Y-2415733D01*
X98270429Y-2458115D01*
X98275708Y-2469972D01*
X98395193Y-2781241D01*
X98399204Y-2793586D01*
X98485498Y-3115642D01*
X98488196Y-3128337D01*
X98540352Y-3457641D01*
X98541709Y-3470549D01*
X98559330Y-3806756D01*
X98559500Y-3813246D01*
X98559500Y-95246753D01*
X98559330Y-95253243D01*
X98541709Y-95589450D01*
X98540352Y-95602358D01*
X98488196Y-95931662D01*
X98485498Y-95944357D01*
X98399204Y-96266413D01*
X98395193Y-96278758D01*
X98275708Y-96590027D01*
X98270429Y-96601884D01*
X98119059Y-96898964D01*
X98112569Y-96910204D01*
X97930983Y-97189822D01*
X97923354Y-97200323D01*
X97713524Y-97459441D01*
X97704839Y-97469086D01*
X97469086Y-97704839D01*
X97459441Y-97713524D01*
X97200323Y-97923354D01*
X97189822Y-97930983D01*
X96910204Y-98112569D01*
X96898964Y-98119059D01*
X96601884Y-98270429D01*
X96590027Y-98275708D01*
X96278758Y-98395193D01*
X96266413Y-98399204D01*
X95944357Y-98485498D01*
X95931662Y-98488196D01*
X95602358Y-98540352D01*
X95589450Y-98541709D01*
X95253244Y-98559330D01*
X95246754Y-98559500D01*
X39494000Y-98559500D01*
X39426961Y-98539815D01*
X39381206Y-98487011D01*
X39370000Y-98435500D01*
X39370000Y-95128711D01*
X93399500Y-95128711D01*
X93399500Y-95371288D01*
X93431161Y-95611785D01*
X93493947Y-95846104D01*
X93534645Y-95944357D01*
X93586776Y-96070212D01*
X93708064Y-96280289D01*
X93708066Y-96280292D01*
X93708067Y-96280293D01*
X93855733Y-96472736D01*
X93855739Y-96472743D01*
X94027256Y-96644260D01*
X94027262Y-96644265D01*
X94219711Y-96791936D01*
X94429788Y-96913224D01*
X94653900Y-97006054D01*
X94888211Y-97068838D01*
X95068586Y-97092584D01*
X95128711Y-97100500D01*
X95128712Y-97100500D01*
X95371289Y-97100500D01*
X95419388Y-97094167D01*
X95611789Y-97068838D01*
X95846100Y-97006054D01*
X96070212Y-96913224D01*
X96280289Y-96791936D01*
X96472738Y-96644265D01*
X96644265Y-96472738D01*
X96791936Y-96280289D01*
X96913224Y-96070212D01*
X97006054Y-95846100D01*
X97068838Y-95611789D01*
X97100500Y-95371288D01*
X97100500Y-95128712D01*
X97068838Y-94888211D01*
X97006054Y-94653900D01*
X96913224Y-94429788D01*
X96791936Y-94219711D01*
X96703148Y-94104000D01*
X96644266Y-94027263D01*
X96644260Y-94027256D01*
X96472743Y-93855739D01*
X96472736Y-93855733D01*
X96280293Y-93708067D01*
X96280292Y-93708066D01*
X96280289Y-93708064D01*
X96070212Y-93586776D01*
X96007206Y-93560678D01*
X95846104Y-93493947D01*
X95611785Y-93431161D01*
X95371289Y-93399500D01*
X95371288Y-93399500D01*
X95128712Y-93399500D01*
X95128711Y-93399500D01*
X94888214Y-93431161D01*
X94653895Y-93493947D01*
X94429794Y-93586773D01*
X94429785Y-93586777D01*
X94219706Y-93708067D01*
X94027263Y-93855733D01*
X94027256Y-93855739D01*
X93855739Y-94027256D01*
X93855733Y-94027263D01*
X93708067Y-94219706D01*
X93586777Y-94429785D01*
X93586773Y-94429794D01*
X93493947Y-94653895D01*
X93431161Y-94888214D01*
X93399500Y-95128711D01*
X39370000Y-95128711D01*
X39370000Y-94104000D01*
X39389685Y-94036961D01*
X39442489Y-93991206D01*
X39494000Y-93980000D01*
X40640000Y-93980000D01*
X40640000Y-69510805D01*
X41242985Y-69510805D01*
X41243000Y-69511108D01*
X41243000Y-74508973D01*
X41242985Y-74509281D01*
X41242986Y-74515147D01*
X41242986Y-74515148D01*
X41242989Y-74529087D01*
X41243000Y-74584141D01*
X41243000Y-74653067D01*
X41256726Y-74722001D01*
X41256730Y-74722023D01*
X41269918Y-74788324D01*
X41269921Y-74788332D01*
X41269961Y-74788466D01*
X41297187Y-74854158D01*
X41297182Y-74854159D01*
X41297196Y-74854178D01*
X41322742Y-74915852D01*
X41322775Y-74915912D01*
X41361538Y-74973900D01*
X41361552Y-74973920D01*
X41399385Y-75030541D01*
X41399422Y-75030586D01*
X41399478Y-75030654D01*
X41448979Y-75080136D01*
X41448997Y-75080153D01*
X41501071Y-75132228D01*
X41501305Y-75132441D01*
X41855423Y-75486414D01*
X41888921Y-75547730D01*
X41889707Y-75587116D01*
X41890883Y-75587219D01*
X41870517Y-75819999D01*
X41870517Y-75820001D01*
X41890883Y-76052783D01*
X41888923Y-76052954D01*
X41882117Y-76113824D01*
X41855423Y-76153584D01*
X41708456Y-76300492D01*
X41520148Y-76488724D01*
X41501043Y-76507821D01*
X41500807Y-76508036D01*
X41448979Y-76559864D01*
X41399448Y-76609374D01*
X41399408Y-76609424D01*
X41361550Y-76666081D01*
X41361538Y-76666099D01*
X41322753Y-76724120D01*
X41297196Y-76785820D01*
X41297187Y-76785841D01*
X41269953Y-76851553D01*
X41269924Y-76851648D01*
X41256730Y-76917977D01*
X41256726Y-76917998D01*
X41243000Y-76986936D01*
X41243000Y-77055883D01*
X41242985Y-77130805D01*
X41243000Y-77131108D01*
X41243000Y-82128973D01*
X41242985Y-82129281D01*
X41242986Y-82135147D01*
X41242986Y-82135148D01*
X41242989Y-82149087D01*
X41243000Y-82204141D01*
X41243000Y-82273067D01*
X41256726Y-82342001D01*
X41256730Y-82342023D01*
X41269918Y-82408324D01*
X41269921Y-82408332D01*
X41269961Y-82408466D01*
X41297187Y-82474158D01*
X41297182Y-82474159D01*
X41297196Y-82474178D01*
X41322742Y-82535852D01*
X41322775Y-82535912D01*
X41361538Y-82593900D01*
X41361552Y-82593920D01*
X41399385Y-82650541D01*
X41399422Y-82650586D01*
X41399478Y-82650654D01*
X41448979Y-82700136D01*
X41448997Y-82700153D01*
X41501071Y-82752228D01*
X41501305Y-82752441D01*
X41855423Y-83106414D01*
X41888921Y-83167730D01*
X41889707Y-83207116D01*
X41890883Y-83207219D01*
X41890411Y-83212609D01*
X41890411Y-83212611D01*
X41870517Y-83440000D01*
X41890410Y-83667383D01*
X41890883Y-83672781D01*
X41889050Y-83672941D01*
X41882214Y-83734250D01*
X41855533Y-83774015D01*
X41478261Y-84151382D01*
X41430155Y-84199488D01*
X41392430Y-84255964D01*
X41392421Y-84255976D01*
X41353503Y-84314220D01*
X41327484Y-84377055D01*
X41327480Y-84377065D01*
X41300704Y-84441709D01*
X41287716Y-84507042D01*
X41287714Y-84507053D01*
X41273799Y-84577012D01*
X41273791Y-84577087D01*
X41273800Y-84642027D01*
X41273800Y-89857987D01*
X41273791Y-89922913D01*
X41273798Y-89922986D01*
X41287714Y-89992946D01*
X41287713Y-89992946D01*
X41287716Y-89992957D01*
X41300697Y-90058254D01*
X41300715Y-90058314D01*
X41300719Y-90058324D01*
X41300720Y-90058328D01*
X41327475Y-90122922D01*
X41327477Y-90122934D01*
X41327480Y-90122934D01*
X41353497Y-90185765D01*
X41353504Y-90185780D01*
X41353525Y-90185811D01*
X41392211Y-90243709D01*
X41392220Y-90243722D01*
X41430127Y-90300470D01*
X41430187Y-90300543D01*
X41478262Y-90348618D01*
X41855533Y-90725983D01*
X41889010Y-90787310D01*
X41889800Y-90827124D01*
X41890883Y-90827219D01*
X41870517Y-91059999D01*
X41870517Y-91060001D01*
X41890410Y-91287383D01*
X41890412Y-91287394D01*
X41949485Y-91507862D01*
X41949487Y-91507866D01*
X41949488Y-91507870D01*
X41978206Y-91569456D01*
X42045953Y-91714741D01*
X42045955Y-91714745D01*
X42176872Y-91901712D01*
X42176881Y-91901722D01*
X42338277Y-92063118D01*
X42338287Y-92063127D01*
X42525254Y-92194044D01*
X42525258Y-92194046D01*
X42732130Y-92290512D01*
X42952611Y-92349589D01*
X43115031Y-92363799D01*
X43179998Y-92369483D01*
X43180000Y-92369483D01*
X43180002Y-92369483D01*
X43236847Y-92364509D01*
X43407389Y-92349589D01*
X43627870Y-92290512D01*
X43834742Y-92194046D01*
X44021719Y-92063122D01*
X44183122Y-91901719D01*
X44192969Y-91887656D01*
X44314044Y-91714745D01*
X44314046Y-91714741D01*
X44344289Y-91649885D01*
X44410512Y-91507870D01*
X44469589Y-91287389D01*
X44489483Y-91060000D01*
X44469589Y-90832611D01*
X44410512Y-90612130D01*
X44314046Y-90405259D01*
X44314044Y-90405255D01*
X44183121Y-90218280D01*
X44021722Y-90056881D01*
X44021712Y-90056872D01*
X43834745Y-89925955D01*
X43834741Y-89925953D01*
X43688952Y-89857971D01*
X43627870Y-89829488D01*
X43627866Y-89829487D01*
X43627862Y-89829485D01*
X43407394Y-89770412D01*
X43407390Y-89770411D01*
X43407389Y-89770411D01*
X43407388Y-89770410D01*
X43407383Y-89770410D01*
X43180002Y-89750517D01*
X43179999Y-89750517D01*
X43121419Y-89755642D01*
X42952611Y-89770411D01*
X42952609Y-89770411D01*
X42947219Y-89770883D01*
X42947050Y-89768953D01*
X42886078Y-89762143D01*
X42846312Y-89735449D01*
X42711108Y-89600211D01*
X42677630Y-89538884D01*
X42674800Y-89512541D01*
X42674800Y-87736750D01*
X42694485Y-87669711D01*
X42747289Y-87623956D01*
X42816447Y-87614012D01*
X42830890Y-87616974D01*
X42952611Y-87649589D01*
X43115031Y-87663799D01*
X43179998Y-87669483D01*
X43180000Y-87669483D01*
X43180002Y-87669483D01*
X43236847Y-87664509D01*
X43407389Y-87649589D01*
X43627870Y-87590512D01*
X43834742Y-87494046D01*
X44021719Y-87363122D01*
X44183122Y-87201719D01*
X44314046Y-87014742D01*
X44410512Y-86807870D01*
X44469589Y-86587389D01*
X44489483Y-86360000D01*
X44469589Y-86132611D01*
X44443111Y-86033793D01*
X44444774Y-85963947D01*
X44475201Y-85914026D01*
X55473325Y-74915811D01*
X55554420Y-74834716D01*
X55633477Y-74697784D01*
X55671151Y-74557182D01*
X55672175Y-74554483D01*
X55674400Y-74545056D01*
X55674401Y-74545055D01*
X55674400Y-74386940D01*
X55674400Y-57409412D01*
X55694085Y-57342373D01*
X55701455Y-57332097D01*
X55703710Y-57329267D01*
X55703716Y-57329262D01*
X55799689Y-57176522D01*
X55859268Y-57006255D01*
X55860083Y-56999021D01*
X55879465Y-56827003D01*
X55879465Y-56826996D01*
X55859269Y-56647750D01*
X55859268Y-56647745D01*
X55799688Y-56477476D01*
X55703715Y-56324737D01*
X55576162Y-56197184D01*
X55423423Y-56101211D01*
X55253154Y-56041631D01*
X55253149Y-56041630D01*
X55073904Y-56021435D01*
X55073896Y-56021435D01*
X54894650Y-56041630D01*
X54894645Y-56041631D01*
X54724376Y-56101211D01*
X54571637Y-56197184D01*
X54444084Y-56324737D01*
X54348111Y-56477476D01*
X54288531Y-56647745D01*
X54288530Y-56647750D01*
X54268335Y-56826996D01*
X54268335Y-56827003D01*
X54288530Y-57006249D01*
X54288531Y-57006254D01*
X54348111Y-57176523D01*
X54444085Y-57329263D01*
X54446345Y-57332097D01*
X54447234Y-57334275D01*
X54447789Y-57335158D01*
X54447634Y-57335255D01*
X54472755Y-57396783D01*
X54473400Y-57409412D01*
X54473400Y-74165902D01*
X54453715Y-74232941D01*
X54437082Y-74253583D01*
X44564953Y-84125794D01*
X44503630Y-84159279D01*
X44433938Y-84154295D01*
X44378004Y-84112424D01*
X44353587Y-84046960D01*
X44364889Y-83985708D01*
X44410512Y-83887870D01*
X44469589Y-83667389D01*
X44489483Y-83440000D01*
X44489188Y-83436632D01*
X44469589Y-83212616D01*
X44469589Y-83212611D01*
X44410512Y-82992130D01*
X44314046Y-82785259D01*
X44314044Y-82785255D01*
X44183121Y-82598280D01*
X44021722Y-82436881D01*
X44021712Y-82436872D01*
X43834745Y-82305955D01*
X43834741Y-82305953D01*
X43731306Y-82257721D01*
X43627870Y-82209488D01*
X43627866Y-82209487D01*
X43627862Y-82209485D01*
X43407394Y-82150412D01*
X43407390Y-82150411D01*
X43407389Y-82150411D01*
X43407388Y-82150410D01*
X43407383Y-82150410D01*
X43180002Y-82130517D01*
X43179999Y-82130517D01*
X43121419Y-82135642D01*
X42952611Y-82150411D01*
X42952609Y-82150411D01*
X42947219Y-82150883D01*
X42947061Y-82149087D01*
X42885617Y-82142223D01*
X42845881Y-82115559D01*
X42680337Y-81950082D01*
X42646839Y-81888766D01*
X42644000Y-81862383D01*
X42644000Y-80108497D01*
X42663685Y-80041458D01*
X42716489Y-79995703D01*
X42785647Y-79985759D01*
X42800086Y-79988720D01*
X42952611Y-80029589D01*
X43115031Y-80043799D01*
X43179998Y-80049483D01*
X43180000Y-80049483D01*
X43180002Y-80049483D01*
X43236847Y-80044509D01*
X43407389Y-80029589D01*
X43627870Y-79970512D01*
X43834742Y-79874046D01*
X44021719Y-79743122D01*
X44183122Y-79581719D01*
X44314046Y-79394742D01*
X44410512Y-79187870D01*
X44469589Y-78967389D01*
X44489483Y-78740000D01*
X44469589Y-78512611D01*
X44443092Y-78413723D01*
X44444755Y-78343876D01*
X44475178Y-78293959D01*
X45412688Y-77356346D01*
X45412691Y-77356345D01*
X45474100Y-77294936D01*
X45476275Y-77292871D01*
X45476300Y-77292839D01*
X45477398Y-77290855D01*
X45510211Y-77234013D01*
X45553441Y-77159135D01*
X45555366Y-77156036D01*
X45555388Y-77155984D01*
X45556050Y-77153285D01*
X45576898Y-77075466D01*
X45596300Y-77003057D01*
X45596300Y-77003054D01*
X45596301Y-77003051D01*
X45596304Y-77003030D01*
X45596303Y-77003028D01*
X45596305Y-77003025D01*
X45596300Y-76915183D01*
X45596300Y-64243100D01*
X45615985Y-64176061D01*
X45632616Y-64155421D01*
X54964527Y-54823698D01*
X55025847Y-54790216D01*
X55038299Y-54788164D01*
X55125255Y-54778368D01*
X55295522Y-54718789D01*
X55448262Y-54622816D01*
X55575816Y-54495262D01*
X55671789Y-54342522D01*
X55731368Y-54172255D01*
X55731368Y-54172253D01*
X55732917Y-54165468D01*
X55735366Y-54166027D01*
X55757922Y-54112336D01*
X55815513Y-54072775D01*
X55885349Y-54070631D01*
X55941761Y-54102941D01*
X56553681Y-54714844D01*
X56587166Y-54776164D01*
X56590000Y-54802524D01*
X56590000Y-54838680D01*
X56570315Y-54905719D01*
X56549539Y-54930317D01*
X56473735Y-54999421D01*
X56350827Y-55162178D01*
X56259922Y-55344739D01*
X56259917Y-55344752D01*
X56204102Y-55540917D01*
X56185285Y-55743999D01*
X56185285Y-55744000D01*
X56204102Y-55947082D01*
X56259917Y-56143247D01*
X56259922Y-56143260D01*
X56350827Y-56325821D01*
X56473737Y-56488581D01*
X56624458Y-56625980D01*
X56624460Y-56625982D01*
X56723641Y-56687392D01*
X56797863Y-56733348D01*
X56988044Y-56807024D01*
X57188524Y-56844500D01*
X57188526Y-56844500D01*
X57392474Y-56844500D01*
X57392476Y-56844500D01*
X57592956Y-56807024D01*
X57783137Y-56733348D01*
X57956541Y-56625981D01*
X58107264Y-56488579D01*
X58230173Y-56325821D01*
X58321082Y-56143250D01*
X58376897Y-55947083D01*
X58395715Y-55744000D01*
X58376897Y-55540917D01*
X58321082Y-55344750D01*
X58230173Y-55162179D01*
X58107264Y-54999421D01*
X58031461Y-54930317D01*
X57995180Y-54870605D01*
X57991000Y-54838680D01*
X57991000Y-54529989D01*
X57991001Y-54529984D01*
X57991000Y-54427530D01*
X57991000Y-54392007D01*
X57991000Y-54392001D01*
X57977684Y-54325065D01*
X57977684Y-54325062D01*
X57964079Y-54256668D01*
X57929114Y-54172257D01*
X57929114Y-54172256D01*
X57912946Y-54133223D01*
X57911771Y-54130076D01*
X57911451Y-54129450D01*
X57864688Y-54059467D01*
X57834614Y-54014458D01*
X57834612Y-54014456D01*
X57834608Y-54014450D01*
X57763332Y-53943176D01*
X57737042Y-53916886D01*
X57737041Y-53916885D01*
X57732710Y-53912554D01*
X57732701Y-53912546D01*
X54876261Y-51056186D01*
X54842775Y-50994864D01*
X54847759Y-50925172D01*
X54889629Y-50869238D01*
X54922983Y-50851464D01*
X55005759Y-50822500D01*
X55019220Y-50817790D01*
X55019222Y-50817789D01*
X55171962Y-50721816D01*
X55299516Y-50594262D01*
X55395489Y-50441522D01*
X55455068Y-50271255D01*
X55464864Y-50184303D01*
X55491929Y-50119893D01*
X55500387Y-50110523D01*
X60286726Y-45323920D01*
X60348049Y-45290435D01*
X60374410Y-45287600D01*
X78899945Y-45287600D01*
X78966984Y-45307285D01*
X79012739Y-45360089D01*
X79023165Y-45397716D01*
X79031630Y-45472850D01*
X79031631Y-45472854D01*
X79091211Y-45643123D01*
X79159214Y-45751348D01*
X79187184Y-45795862D01*
X79314738Y-45923416D01*
X79386358Y-45968418D01*
X79463952Y-46017174D01*
X79467478Y-46019389D01*
X79611513Y-46069789D01*
X79637745Y-46078968D01*
X79637750Y-46078969D01*
X79816997Y-46099165D01*
X79823967Y-46099165D01*
X79823967Y-46100489D01*
X79858726Y-46103087D01*
X79901051Y-46114428D01*
X79901084Y-46114436D01*
X79901102Y-46114442D01*
X79926015Y-46121128D01*
X79978694Y-46135268D01*
X79978704Y-46135268D01*
X79978942Y-46135300D01*
X79978943Y-46135300D01*
X80056534Y-46135300D01*
X80056563Y-46135300D01*
X80136808Y-46135333D01*
X80136812Y-46135331D01*
X80144632Y-46135335D01*
X80145181Y-46135300D01*
X81437637Y-46135300D01*
X81543047Y-46135302D01*
X81543050Y-46135300D01*
X81543055Y-46135301D01*
X81543101Y-46135295D01*
X81543906Y-46135072D01*
X81588800Y-46123042D01*
X81588803Y-46123042D01*
X81637938Y-46109876D01*
X81694942Y-46094604D01*
X81695781Y-46094386D01*
X81696504Y-46093961D01*
X81777667Y-46047101D01*
X81829532Y-46017158D01*
X81832534Y-46015543D01*
X81833939Y-46014096D01*
X81925493Y-45922543D01*
X84471072Y-43377054D01*
X93497498Y-43377054D01*
X93514513Y-43440555D01*
X93538423Y-43529785D01*
X93559230Y-43565823D01*
X93617479Y-43666714D01*
X93617481Y-43666717D01*
X93736349Y-43785585D01*
X93736355Y-43785590D01*
X93863181Y-43912416D01*
X93896666Y-43973739D01*
X93899500Y-44000097D01*
X93899500Y-45347870D01*
X93899501Y-45347876D01*
X93905908Y-45407483D01*
X93956202Y-45542328D01*
X93956206Y-45542335D01*
X94042452Y-45657544D01*
X94042455Y-45657547D01*
X94157664Y-45743793D01*
X94157671Y-45743797D01*
X94289081Y-45792810D01*
X94345015Y-45834681D01*
X94369432Y-45900145D01*
X94354580Y-45968418D01*
X94333430Y-45996673D01*
X94211503Y-46118600D01*
X94075965Y-46312169D01*
X94075964Y-46312171D01*
X93976098Y-46526335D01*
X93976094Y-46526344D01*
X93914938Y-46754586D01*
X93914936Y-46754596D01*
X93894341Y-46989999D01*
X93894341Y-46990000D01*
X93914936Y-47225403D01*
X93914938Y-47225413D01*
X93976094Y-47453655D01*
X93976096Y-47453659D01*
X93976097Y-47453663D01*
X94041283Y-47593454D01*
X94075965Y-47667830D01*
X94075967Y-47667834D01*
X94211501Y-47861395D01*
X94211506Y-47861402D01*
X94378597Y-48028493D01*
X94378603Y-48028498D01*
X94564158Y-48158425D01*
X94607783Y-48213002D01*
X94614977Y-48282500D01*
X94583454Y-48344855D01*
X94564158Y-48361575D01*
X94378597Y-48491505D01*
X94211505Y-48658597D01*
X94075965Y-48852169D01*
X94075964Y-48852171D01*
X93976098Y-49066335D01*
X93976094Y-49066344D01*
X93914938Y-49294586D01*
X93914936Y-49294596D01*
X93894341Y-49529999D01*
X93894341Y-49530000D01*
X93914936Y-49765403D01*
X93914938Y-49765413D01*
X93976094Y-49993655D01*
X93976096Y-49993659D01*
X93976097Y-49993663D01*
X94044891Y-50141191D01*
X94075965Y-50207830D01*
X94075967Y-50207834D01*
X94211501Y-50401395D01*
X94211506Y-50401402D01*
X94378597Y-50568493D01*
X94378603Y-50568498D01*
X94564158Y-50698425D01*
X94607783Y-50753002D01*
X94614977Y-50822500D01*
X94583454Y-50884855D01*
X94564158Y-50901575D01*
X94378597Y-51031505D01*
X94211505Y-51198597D01*
X94075965Y-51392169D01*
X94075964Y-51392171D01*
X93976098Y-51606335D01*
X93976094Y-51606344D01*
X93914938Y-51834586D01*
X93914936Y-51834596D01*
X93894341Y-52069999D01*
X93894341Y-52070000D01*
X93914936Y-52305403D01*
X93914938Y-52305413D01*
X93976094Y-52533655D01*
X93976096Y-52533659D01*
X93976097Y-52533663D01*
X94075965Y-52747830D01*
X94075967Y-52747834D01*
X94184281Y-52902521D01*
X94211505Y-52941401D01*
X94378599Y-53108495D01*
X94475384Y-53176265D01*
X94572165Y-53244032D01*
X94572167Y-53244033D01*
X94572170Y-53244035D01*
X94786337Y-53343903D01*
X95014592Y-53405063D01*
X95202918Y-53421539D01*
X95249999Y-53425659D01*
X95250000Y-53425659D01*
X95250001Y-53425659D01*
X95289234Y-53422226D01*
X95485408Y-53405063D01*
X95713663Y-53343903D01*
X95927830Y-53244035D01*
X96121401Y-53108495D01*
X96288495Y-52941401D01*
X96424035Y-52747830D01*
X96523903Y-52533663D01*
X96585063Y-52305408D01*
X96605659Y-52070000D01*
X96585063Y-51834592D01*
X96530935Y-51632581D01*
X96523905Y-51606344D01*
X96523904Y-51606343D01*
X96523903Y-51606337D01*
X96424035Y-51392171D01*
X96339914Y-51272032D01*
X96288494Y-51198597D01*
X96121402Y-51031506D01*
X96121396Y-51031501D01*
X95935842Y-50901575D01*
X95892217Y-50846998D01*
X95885023Y-50777500D01*
X95916546Y-50715145D01*
X95935842Y-50698425D01*
X95958026Y-50682891D01*
X96121401Y-50568495D01*
X96288495Y-50401401D01*
X96424035Y-50207830D01*
X96523903Y-49993663D01*
X96585063Y-49765408D01*
X96605659Y-49530000D01*
X96585063Y-49294592D01*
X96523903Y-49066337D01*
X96424035Y-48852171D01*
X96392035Y-48806469D01*
X96288494Y-48658597D01*
X96121402Y-48491506D01*
X96121396Y-48491501D01*
X95935842Y-48361575D01*
X95892217Y-48306998D01*
X95885023Y-48237500D01*
X95916546Y-48175145D01*
X95935842Y-48158425D01*
X96091167Y-48049665D01*
X96121401Y-48028495D01*
X96288495Y-47861401D01*
X96424035Y-47667830D01*
X96523903Y-47453663D01*
X96585063Y-47225408D01*
X96605659Y-46990000D01*
X96585063Y-46754592D01*
X96550671Y-46626239D01*
X96552334Y-46556393D01*
X96582763Y-46506470D01*
X96760506Y-46328728D01*
X96760511Y-46328724D01*
X96770714Y-46318520D01*
X96770716Y-46318520D01*
X96882520Y-46206716D01*
X96933394Y-46118599D01*
X96935803Y-46114428D01*
X96961574Y-46069790D01*
X96961575Y-46069789D01*
X96961575Y-46069787D01*
X96961577Y-46069785D01*
X97002501Y-45917057D01*
X97002501Y-45758943D01*
X97002501Y-45751348D01*
X97002500Y-45751330D01*
X97002500Y-41881059D01*
X97002501Y-41881046D01*
X97002501Y-41712945D01*
X97002501Y-41712943D01*
X96961577Y-41560215D01*
X96949201Y-41538780D01*
X96932296Y-41509499D01*
X96932296Y-41509498D01*
X96882524Y-41423290D01*
X96882521Y-41423286D01*
X96882520Y-41423284D01*
X96770716Y-41311480D01*
X96770715Y-41311479D01*
X96766385Y-41307149D01*
X96766374Y-41307139D01*
X96582766Y-41123531D01*
X96549281Y-41062208D01*
X96550672Y-41003757D01*
X96569236Y-40934475D01*
X96585063Y-40875408D01*
X96605659Y-40640000D01*
X96585063Y-40404592D01*
X96523903Y-40176337D01*
X96424035Y-39962171D01*
X96408522Y-39940015D01*
X96288494Y-39768597D01*
X96121402Y-39601506D01*
X96121396Y-39601501D01*
X95935842Y-39471575D01*
X95892217Y-39416998D01*
X95885023Y-39347500D01*
X95916546Y-39285145D01*
X95935842Y-39268425D01*
X96072204Y-39172943D01*
X96121401Y-39138495D01*
X96288495Y-38971401D01*
X96424035Y-38777830D01*
X96523903Y-38563663D01*
X96585063Y-38335408D01*
X96605659Y-38100000D01*
X96585063Y-37864592D01*
X96523903Y-37636337D01*
X96424035Y-37422171D01*
X96385881Y-37367680D01*
X96288494Y-37228597D01*
X96121402Y-37061506D01*
X96121395Y-37061501D01*
X95927834Y-36925967D01*
X95927830Y-36925965D01*
X95806704Y-36869483D01*
X95713663Y-36826097D01*
X95713659Y-36826096D01*
X95713655Y-36826094D01*
X95485413Y-36764938D01*
X95485403Y-36764936D01*
X95250001Y-36744341D01*
X95249999Y-36744341D01*
X95014596Y-36764936D01*
X95014586Y-36764938D01*
X94786344Y-36826094D01*
X94786335Y-36826098D01*
X94572171Y-36925964D01*
X94572169Y-36925965D01*
X94378597Y-37061505D01*
X94211505Y-37228597D01*
X94075965Y-37422169D01*
X94075964Y-37422171D01*
X93976098Y-37636335D01*
X93976094Y-37636344D01*
X93914938Y-37864586D01*
X93914936Y-37864596D01*
X93894341Y-38099999D01*
X93894341Y-38100000D01*
X93914936Y-38335403D01*
X93914938Y-38335413D01*
X93949327Y-38463756D01*
X93947664Y-38533606D01*
X93917233Y-38583530D01*
X93729286Y-38771478D01*
X93617481Y-38883282D01*
X93617480Y-38883284D01*
X93572797Y-38960678D01*
X93538423Y-39020215D01*
X93497499Y-39172943D01*
X93497499Y-39172945D01*
X93497499Y-39341046D01*
X93497500Y-39341059D01*
X93497500Y-43211330D01*
X93497499Y-43211348D01*
X93497499Y-43377054D01*
X93497498Y-43377054D01*
X84471072Y-43377054D01*
X84618644Y-43229487D01*
X84618663Y-43229472D01*
X84625714Y-43222421D01*
X84625716Y-43222420D01*
X84709582Y-43138553D01*
X84733568Y-43114567D01*
X84737134Y-43111312D01*
X84738525Y-43108985D01*
X84742614Y-43102369D01*
X84743790Y-43099755D01*
X84743938Y-43099500D01*
X84755303Y-43079815D01*
X84777297Y-43041721D01*
X84814600Y-42977112D01*
X84816419Y-42974182D01*
X84816510Y-42973969D01*
X84816826Y-42972753D01*
X84833164Y-42911780D01*
X84833165Y-42911778D01*
X84856548Y-42824514D01*
X84857442Y-42821536D01*
X84857500Y-42821148D01*
X84857500Y-42759039D01*
X84857500Y-42745926D01*
X84857502Y-42662853D01*
X84857500Y-42662848D01*
X84857501Y-42655268D01*
X84857500Y-42655234D01*
X84857500Y-35020195D01*
X84877185Y-34953156D01*
X84893815Y-34932517D01*
X93846579Y-25979668D01*
X93907900Y-25946185D01*
X93977592Y-25951169D01*
X94033526Y-25993040D01*
X94046641Y-26014945D01*
X94075965Y-26077830D01*
X94075966Y-26077832D01*
X94075967Y-26077833D01*
X94075967Y-26077834D01*
X94211501Y-26271395D01*
X94211506Y-26271402D01*
X94378597Y-26438493D01*
X94378603Y-26438498D01*
X94564158Y-26568425D01*
X94607783Y-26623002D01*
X94614977Y-26692500D01*
X94583454Y-26754855D01*
X94564158Y-26771575D01*
X94378597Y-26901505D01*
X94211505Y-27068597D01*
X94075965Y-27262169D01*
X94075964Y-27262171D01*
X93976098Y-27476335D01*
X93976094Y-27476344D01*
X93914938Y-27704586D01*
X93914936Y-27704596D01*
X93894341Y-27939999D01*
X93894341Y-27940000D01*
X93914936Y-28175403D01*
X93914938Y-28175413D01*
X93976094Y-28403655D01*
X93976096Y-28403659D01*
X93976097Y-28403663D01*
X94065198Y-28594741D01*
X94075965Y-28617830D01*
X94075967Y-28617834D01*
X94211501Y-28811395D01*
X94211506Y-28811402D01*
X94378597Y-28978493D01*
X94378603Y-28978498D01*
X94564158Y-29108425D01*
X94607783Y-29163002D01*
X94614977Y-29232500D01*
X94583454Y-29294855D01*
X94564158Y-29311575D01*
X94378597Y-29441505D01*
X94211505Y-29608597D01*
X94075965Y-29802169D01*
X94075964Y-29802171D01*
X93976098Y-30016335D01*
X93976094Y-30016344D01*
X93914938Y-30244586D01*
X93914936Y-30244596D01*
X93894341Y-30479999D01*
X93894341Y-30480000D01*
X93914936Y-30715403D01*
X93914938Y-30715413D01*
X93976094Y-30943655D01*
X93976096Y-30943659D01*
X93976097Y-30943663D01*
X94043115Y-31087383D01*
X94075965Y-31157830D01*
X94075967Y-31157834D01*
X94211501Y-31351395D01*
X94211506Y-31351402D01*
X94378597Y-31518493D01*
X94378603Y-31518498D01*
X94564158Y-31648425D01*
X94607783Y-31703002D01*
X94614977Y-31772500D01*
X94583454Y-31834855D01*
X94564158Y-31851575D01*
X94378597Y-31981505D01*
X94211505Y-32148597D01*
X94075965Y-32342169D01*
X94075964Y-32342171D01*
X93976098Y-32556335D01*
X93976094Y-32556344D01*
X93914938Y-32784586D01*
X93914936Y-32784596D01*
X93894341Y-33019999D01*
X93894341Y-33020000D01*
X93914936Y-33255403D01*
X93914938Y-33255413D01*
X93976094Y-33483655D01*
X93976096Y-33483659D01*
X93976097Y-33483663D01*
X94054687Y-33652199D01*
X94075965Y-33697830D01*
X94075967Y-33697834D01*
X94184281Y-33852521D01*
X94211505Y-33891401D01*
X94378599Y-34058495D01*
X94436249Y-34098862D01*
X94572165Y-34194032D01*
X94572167Y-34194033D01*
X94572170Y-34194035D01*
X94786337Y-34293903D01*
X95014592Y-34355063D01*
X95202918Y-34371539D01*
X95249999Y-34375659D01*
X95250000Y-34375659D01*
X95250001Y-34375659D01*
X95289234Y-34372226D01*
X95485408Y-34355063D01*
X95713663Y-34293903D01*
X95927830Y-34194035D01*
X96121401Y-34058495D01*
X96288495Y-33891401D01*
X96424035Y-33697830D01*
X96523903Y-33483663D01*
X96585063Y-33255408D01*
X96605659Y-33020000D01*
X96585063Y-32784592D01*
X96523903Y-32556337D01*
X96424035Y-32342171D01*
X96349919Y-32236321D01*
X96288494Y-32148597D01*
X96121402Y-31981506D01*
X96121396Y-31981501D01*
X95935842Y-31851575D01*
X95892217Y-31796998D01*
X95885023Y-31727500D01*
X95916546Y-31665145D01*
X95935842Y-31648425D01*
X95958026Y-31632891D01*
X96121401Y-31518495D01*
X96288495Y-31351401D01*
X96424035Y-31157830D01*
X96523903Y-30943663D01*
X96585063Y-30715408D01*
X96605659Y-30480000D01*
X96585063Y-30244592D01*
X96523903Y-30016337D01*
X96424035Y-29802171D01*
X96370669Y-29725955D01*
X96288494Y-29608597D01*
X96121402Y-29441506D01*
X96121396Y-29441501D01*
X95935842Y-29311575D01*
X95892217Y-29256998D01*
X95885023Y-29187500D01*
X95916546Y-29125145D01*
X95935842Y-29108425D01*
X95978856Y-29078306D01*
X96121401Y-28978495D01*
X96288495Y-28811401D01*
X96424035Y-28617830D01*
X96523903Y-28403663D01*
X96585063Y-28175408D01*
X96605659Y-27940000D01*
X96585063Y-27704592D01*
X96523903Y-27476337D01*
X96424035Y-27262171D01*
X96345523Y-27150043D01*
X96288494Y-27068597D01*
X96121402Y-26901506D01*
X96121396Y-26901501D01*
X95935842Y-26771575D01*
X95892217Y-26716998D01*
X95885023Y-26647500D01*
X95916546Y-26585145D01*
X95935842Y-26568425D01*
X95958026Y-26552891D01*
X96121401Y-26438495D01*
X96288495Y-26271401D01*
X96424035Y-26077830D01*
X96523903Y-25863663D01*
X96585063Y-25635408D01*
X96605659Y-25400000D01*
X96585063Y-25164592D01*
X96523903Y-24936337D01*
X96424035Y-24722171D01*
X96289189Y-24529589D01*
X96288494Y-24528597D01*
X96275733Y-24515836D01*
X96242248Y-24454513D01*
X96247232Y-24384821D01*
X96275725Y-24340480D01*
X96825656Y-23790478D01*
X96825662Y-23790474D01*
X96885891Y-23730245D01*
X96887562Y-23728638D01*
X96887564Y-23728635D01*
X96888651Y-23726665D01*
X96924591Y-23664406D01*
X96966577Y-23591684D01*
X96966578Y-23591681D01*
X96966587Y-23591660D01*
X96966588Y-23591653D01*
X96966592Y-23591648D01*
X96988934Y-23508242D01*
X96988934Y-23508241D01*
X96988935Y-23508241D01*
X96988935Y-23508237D01*
X97007500Y-23438957D01*
X97007500Y-23438952D01*
X97007502Y-23438945D01*
X97007506Y-23438918D01*
X97007500Y-23352674D01*
X97007500Y-16317945D01*
X97007500Y-16317943D01*
X96980765Y-16218165D01*
X96966577Y-16165215D01*
X96925411Y-16093914D01*
X96906465Y-16061099D01*
X96887521Y-16028285D01*
X96771385Y-15912149D01*
X96771374Y-15912139D01*
X96582766Y-15723531D01*
X96549281Y-15662208D01*
X96550672Y-15603757D01*
X96551863Y-15599309D01*
X96585063Y-15475408D01*
X96605659Y-15240000D01*
X96585063Y-15004592D01*
X96523903Y-14776337D01*
X96424035Y-14562171D01*
X96370669Y-14485955D01*
X96288494Y-14368597D01*
X96121402Y-14201506D01*
X96121396Y-14201501D01*
X95935842Y-14071575D01*
X95892217Y-14016998D01*
X95885023Y-13947500D01*
X95916546Y-13885145D01*
X95935842Y-13868425D01*
X95984943Y-13834044D01*
X96121401Y-13738495D01*
X96288495Y-13571401D01*
X96424035Y-13377830D01*
X96523903Y-13163663D01*
X96585063Y-12935408D01*
X96605659Y-12700000D01*
X96585063Y-12464592D01*
X96523903Y-12236337D01*
X96424035Y-12022171D01*
X96334609Y-11894456D01*
X96288494Y-11828597D01*
X96121402Y-11661506D01*
X96121396Y-11661501D01*
X95935842Y-11531575D01*
X95892217Y-11476998D01*
X95885023Y-11407500D01*
X95916546Y-11345145D01*
X95935842Y-11328425D01*
X95958026Y-11312891D01*
X96121401Y-11198495D01*
X96288495Y-11031401D01*
X96424035Y-10837830D01*
X96523903Y-10623663D01*
X96585063Y-10395408D01*
X96605659Y-10160000D01*
X96585063Y-9924592D01*
X96523903Y-9696337D01*
X96424035Y-9482171D01*
X96289189Y-9289589D01*
X96288494Y-9288597D01*
X96121402Y-9121506D01*
X96121395Y-9121501D01*
X95927834Y-8985967D01*
X95927830Y-8985965D01*
X95927828Y-8985964D01*
X95713663Y-8886097D01*
X95713659Y-8886096D01*
X95713655Y-8886094D01*
X95485413Y-8824938D01*
X95485403Y-8824936D01*
X95250001Y-8804341D01*
X95249999Y-8804341D01*
X95014596Y-8824936D01*
X95014586Y-8824938D01*
X94786344Y-8886094D01*
X94786335Y-8886098D01*
X94572171Y-8985964D01*
X94572169Y-8985965D01*
X94378597Y-9121505D01*
X94211505Y-9288597D01*
X94075965Y-9482169D01*
X94075964Y-9482171D01*
X93976098Y-9696335D01*
X93976094Y-9696344D01*
X93914938Y-9924586D01*
X93914936Y-9924596D01*
X93894341Y-10159999D01*
X93894341Y-10160000D01*
X93914936Y-10395403D01*
X93914938Y-10395413D01*
X93976094Y-10623655D01*
X93976096Y-10623659D01*
X93976097Y-10623663D01*
X94049142Y-10780307D01*
X94075965Y-10837830D01*
X94075967Y-10837834D01*
X94211501Y-11031395D01*
X94211506Y-11031402D01*
X94378597Y-11198493D01*
X94378603Y-11198498D01*
X94564158Y-11328425D01*
X94607783Y-11383002D01*
X94614977Y-11452500D01*
X94583454Y-11514855D01*
X94564158Y-11531575D01*
X94378597Y-11661505D01*
X94211505Y-11828597D01*
X94075965Y-12022169D01*
X94075964Y-12022171D01*
X93976098Y-12236335D01*
X93976094Y-12236344D01*
X93914938Y-12464586D01*
X93914936Y-12464596D01*
X93894341Y-12699999D01*
X93894341Y-12700000D01*
X93914936Y-12935403D01*
X93914938Y-12935413D01*
X93949327Y-13063756D01*
X93947664Y-13133606D01*
X93917233Y-13183530D01*
X80834286Y-26266478D01*
X80722481Y-26378282D01*
X80722479Y-26378285D01*
X80702239Y-26413343D01*
X80687718Y-26438495D01*
X80672361Y-26465094D01*
X80672359Y-26465096D01*
X80643425Y-26515209D01*
X80643424Y-26515210D01*
X80643423Y-26515215D01*
X80602499Y-26667943D01*
X80602499Y-26667945D01*
X80602499Y-26836046D01*
X80602500Y-26836059D01*
X80602500Y-43962600D01*
X80582815Y-44029639D01*
X80530011Y-44075394D01*
X80478500Y-44086600D01*
X60161627Y-44086600D01*
X60161582Y-44086597D01*
X60153341Y-44086597D01*
X60034755Y-44086600D01*
X59995243Y-44086600D01*
X59995239Y-44086600D01*
X59995226Y-44086601D01*
X59995222Y-44086601D01*
X59995221Y-44086602D01*
X59908603Y-44109814D01*
X59908601Y-44109814D01*
X59842510Y-44127523D01*
X59800142Y-44151986D01*
X59789442Y-44158165D01*
X59705581Y-44206582D01*
X59705577Y-44206585D01*
X59705571Y-44206590D01*
X59705571Y-44206591D01*
X59678283Y-44233881D01*
X59633875Y-44278289D01*
X59589467Y-44322696D01*
X59589437Y-44322729D01*
X54651140Y-49261299D01*
X54589817Y-49294785D01*
X54577340Y-49296840D01*
X54490450Y-49306630D01*
X54320178Y-49366210D01*
X54167437Y-49462184D01*
X54039884Y-49589737D01*
X54039882Y-49589740D01*
X53950376Y-49732186D01*
X53898041Y-49778477D01*
X53828988Y-49789124D01*
X53822607Y-49788103D01*
X53819384Y-49787500D01*
X53819376Y-49787500D01*
X53615424Y-49787500D01*
X53414944Y-49824976D01*
X53414941Y-49824976D01*
X53414941Y-49824977D01*
X53224764Y-49898651D01*
X53224757Y-49898655D01*
X53051360Y-50006017D01*
X53051358Y-50006019D01*
X52900637Y-50143418D01*
X52777727Y-50306178D01*
X52686822Y-50488739D01*
X52686817Y-50488752D01*
X52631002Y-50684917D01*
X52612185Y-50887999D01*
X52612185Y-50888000D01*
X52631002Y-51091082D01*
X52686817Y-51287247D01*
X52686822Y-51287260D01*
X52777727Y-51469821D01*
X52900637Y-51632581D01*
X53051358Y-51769980D01*
X53051360Y-51769982D01*
X53150541Y-51831392D01*
X53224763Y-51877348D01*
X53414944Y-51951024D01*
X53615424Y-51988500D01*
X53615426Y-51988500D01*
X53775900Y-51988500D01*
X53842939Y-52008185D01*
X53863575Y-52024813D01*
X54836028Y-52997239D01*
X54869513Y-53058559D01*
X54864529Y-53128251D01*
X54822659Y-53184185D01*
X54773027Y-53203871D01*
X54773532Y-53206083D01*
X54766745Y-53207631D01*
X54596476Y-53267211D01*
X54443737Y-53363184D01*
X54316184Y-53490737D01*
X54220210Y-53643478D01*
X54160630Y-53813750D01*
X54150838Y-53900659D01*
X54123771Y-53965073D01*
X54115298Y-53974457D01*
X44685566Y-63403998D01*
X44624243Y-63437482D01*
X44554551Y-63432497D01*
X44498618Y-63390625D01*
X44474358Y-63327123D01*
X44469589Y-63272616D01*
X44469589Y-63272611D01*
X44410512Y-63052130D01*
X44314046Y-62845259D01*
X44314044Y-62845255D01*
X44183121Y-62658280D01*
X44021722Y-62496881D01*
X44021712Y-62496872D01*
X43834745Y-62365955D01*
X43834741Y-62365953D01*
X43685199Y-62296221D01*
X43627870Y-62269488D01*
X43627866Y-62269487D01*
X43627862Y-62269485D01*
X43407394Y-62210412D01*
X43407390Y-62210411D01*
X43407389Y-62210411D01*
X43407388Y-62210410D01*
X43407383Y-62210410D01*
X43180002Y-62190517D01*
X43179998Y-62190517D01*
X42952616Y-62210410D01*
X42952602Y-62210413D01*
X42830892Y-62243024D01*
X42761043Y-62241361D01*
X42703180Y-62202198D01*
X42675677Y-62137969D01*
X42674800Y-62123249D01*
X42674800Y-37107218D01*
X42694485Y-37040179D01*
X42711110Y-37019546D01*
X42846150Y-36884505D01*
X42907469Y-36851023D01*
X42947118Y-36850242D01*
X42947217Y-36849117D01*
X42952610Y-36849588D01*
X42952611Y-36849589D01*
X42969002Y-36851023D01*
X43179998Y-36869483D01*
X43180000Y-36869483D01*
X43180002Y-36869483D01*
X43236847Y-36864509D01*
X43407389Y-36849589D01*
X43627870Y-36790512D01*
X43834742Y-36694046D01*
X44021719Y-36563122D01*
X44183122Y-36401719D01*
X44183127Y-36401712D01*
X44314044Y-36214745D01*
X44314046Y-36214741D01*
X44410512Y-36007870D01*
X44469589Y-35787389D01*
X44489483Y-35560000D01*
X44469589Y-35332611D01*
X44410512Y-35112130D01*
X44314046Y-34905259D01*
X44314044Y-34905255D01*
X44218781Y-34769208D01*
X44183122Y-34718281D01*
X44021719Y-34556878D01*
X44021717Y-34556876D01*
X44021712Y-34556872D01*
X43834743Y-34425954D01*
X43722254Y-34373500D01*
X43627870Y-34329488D01*
X43627866Y-34329487D01*
X43627862Y-34329485D01*
X43407394Y-34270412D01*
X43407390Y-34270411D01*
X43407389Y-34270411D01*
X43407388Y-34270410D01*
X43407383Y-34270410D01*
X43180002Y-34250517D01*
X43179999Y-34250517D01*
X43121419Y-34255642D01*
X42952611Y-34270411D01*
X42952609Y-34270411D01*
X42947219Y-34270883D01*
X42947054Y-34269002D01*
X42885910Y-34262177D01*
X42846148Y-34235491D01*
X42709519Y-34098862D01*
X42676034Y-34037539D01*
X42673200Y-34011181D01*
X42673200Y-32236321D01*
X42692885Y-32169282D01*
X42745689Y-32123527D01*
X42814847Y-32113583D01*
X42829282Y-32116543D01*
X42952611Y-32149589D01*
X43115031Y-32163799D01*
X43179998Y-32169483D01*
X43180000Y-32169483D01*
X43180002Y-32169483D01*
X43236847Y-32164509D01*
X43407389Y-32149589D01*
X43506198Y-32123113D01*
X43576047Y-32124776D01*
X43625972Y-32155207D01*
X49531381Y-38060616D01*
X49564866Y-38121939D01*
X49567700Y-38148297D01*
X49567700Y-46661687D01*
X49548015Y-46728726D01*
X49540650Y-46738996D01*
X49538386Y-46741834D01*
X49442411Y-46894576D01*
X49382831Y-47064845D01*
X49382830Y-47064850D01*
X49362635Y-47244096D01*
X49362635Y-47244103D01*
X49382830Y-47423349D01*
X49382831Y-47423354D01*
X49442411Y-47593623D01*
X49491394Y-47671578D01*
X49538384Y-47746362D01*
X49665938Y-47873916D01*
X49818678Y-47969889D01*
X49911561Y-48002390D01*
X49988945Y-48029468D01*
X49988950Y-48029469D01*
X50168196Y-48049665D01*
X50168200Y-48049665D01*
X50168204Y-48049665D01*
X50347449Y-48029469D01*
X50347452Y-48029468D01*
X50347455Y-48029468D01*
X50517722Y-47969889D01*
X50670462Y-47873916D01*
X50798016Y-47746362D01*
X50893989Y-47593622D01*
X50953568Y-47423355D01*
X50957484Y-47388599D01*
X50973765Y-47244103D01*
X50973765Y-47244096D01*
X50953569Y-47064850D01*
X50953568Y-47064845D01*
X50952856Y-47062810D01*
X50893989Y-46894578D01*
X50798016Y-46741838D01*
X50798014Y-46741836D01*
X50798013Y-46741834D01*
X50795750Y-46738996D01*
X50794859Y-46736815D01*
X50794311Y-46735942D01*
X50794464Y-46735845D01*
X50769344Y-46674309D01*
X50768700Y-46661687D01*
X50768700Y-37769141D01*
X50766421Y-37760635D01*
X50766421Y-37760636D01*
X50766420Y-37760632D01*
X50727777Y-37616415D01*
X50683903Y-37540423D01*
X50648720Y-37479484D01*
X50536916Y-37367680D01*
X50536915Y-37367679D01*
X50532585Y-37363349D01*
X50532574Y-37363339D01*
X44475207Y-31305972D01*
X44441722Y-31244649D01*
X44443113Y-31186197D01*
X44450714Y-31157830D01*
X44469589Y-31087389D01*
X44489483Y-30860000D01*
X44469589Y-30632611D01*
X44410512Y-30412130D01*
X44314046Y-30205259D01*
X44314044Y-30205255D01*
X44183121Y-30018280D01*
X44021722Y-29856881D01*
X44021712Y-29856872D01*
X43834745Y-29725955D01*
X43834741Y-29725953D01*
X43731306Y-29677721D01*
X43627870Y-29629488D01*
X43627866Y-29629487D01*
X43627862Y-29629485D01*
X43407394Y-29570412D01*
X43407390Y-29570411D01*
X43407389Y-29570411D01*
X43407388Y-29570410D01*
X43407383Y-29570410D01*
X43180002Y-29550517D01*
X43179998Y-29550517D01*
X42952616Y-29570410D01*
X42952602Y-29570413D01*
X42836313Y-29601571D01*
X42766463Y-29599908D01*
X42708601Y-29560744D01*
X42681098Y-29496515D01*
X42692685Y-29427613D01*
X42716535Y-29394121D01*
X42846149Y-29264506D01*
X42907470Y-29231023D01*
X42947118Y-29230242D01*
X42947217Y-29229117D01*
X42952610Y-29229588D01*
X42952611Y-29229589D01*
X42969002Y-29231023D01*
X43179998Y-29249483D01*
X43180000Y-29249483D01*
X43180002Y-29249483D01*
X43236847Y-29244509D01*
X43407389Y-29229589D01*
X43627870Y-29170512D01*
X43834742Y-29074046D01*
X43971205Y-28978493D01*
X44021712Y-28943127D01*
X44021712Y-28943126D01*
X44021719Y-28943122D01*
X44183122Y-28781719D01*
X44297877Y-28617834D01*
X44314044Y-28594745D01*
X44314046Y-28594741D01*
X44410512Y-28387870D01*
X44469589Y-28167389D01*
X44489483Y-27940000D01*
X44469589Y-27712611D01*
X44410512Y-27492130D01*
X44314046Y-27285259D01*
X44314044Y-27285255D01*
X44183121Y-27098280D01*
X44021722Y-26936881D01*
X44021712Y-26936872D01*
X43834745Y-26805955D01*
X43834741Y-26805953D01*
X43725160Y-26754855D01*
X43627870Y-26709488D01*
X43627866Y-26709487D01*
X43627862Y-26709485D01*
X43407394Y-26650412D01*
X43407390Y-26650411D01*
X43407389Y-26650411D01*
X43407388Y-26650410D01*
X43407383Y-26650410D01*
X43180002Y-26630517D01*
X43179999Y-26630517D01*
X43121419Y-26635642D01*
X42952611Y-26650411D01*
X42952609Y-26650411D01*
X42947219Y-26650883D01*
X42947054Y-26649002D01*
X42885910Y-26642177D01*
X42846148Y-26615491D01*
X42680319Y-26449662D01*
X42646834Y-26388339D01*
X42644000Y-26361981D01*
X42644000Y-24608497D01*
X42663685Y-24541458D01*
X42716489Y-24495703D01*
X42785647Y-24485759D01*
X42800086Y-24488720D01*
X42952611Y-24529589D01*
X43115031Y-24543799D01*
X43179998Y-24549483D01*
X43180000Y-24549483D01*
X43180002Y-24549483D01*
X43236847Y-24544509D01*
X43407389Y-24529589D01*
X43506198Y-24503113D01*
X43576047Y-24504776D01*
X43625972Y-24535207D01*
X53252381Y-34161616D01*
X53285866Y-34222939D01*
X53288700Y-34249297D01*
X53288700Y-47438687D01*
X53269015Y-47505726D01*
X53261650Y-47515996D01*
X53259386Y-47518834D01*
X53163411Y-47671576D01*
X53103831Y-47841845D01*
X53103830Y-47841850D01*
X53083635Y-48021096D01*
X53083635Y-48021103D01*
X53103830Y-48200349D01*
X53103831Y-48200354D01*
X53163411Y-48370623D01*
X53241816Y-48495403D01*
X53259384Y-48523362D01*
X53386938Y-48650916D01*
X53477280Y-48707682D01*
X53502715Y-48723664D01*
X53539678Y-48746889D01*
X53709945Y-48806468D01*
X53709950Y-48806469D01*
X53889196Y-48826665D01*
X53889200Y-48826665D01*
X53889204Y-48826665D01*
X54068449Y-48806469D01*
X54068452Y-48806468D01*
X54068455Y-48806468D01*
X54238722Y-48746889D01*
X54391462Y-48650916D01*
X54519016Y-48523362D01*
X54614989Y-48370622D01*
X54674568Y-48200355D01*
X54674569Y-48200349D01*
X54694765Y-48021103D01*
X54694765Y-48021096D01*
X54674569Y-47841850D01*
X54674568Y-47841845D01*
X54614989Y-47671578D01*
X54612636Y-47667834D01*
X54581187Y-47617783D01*
X54519016Y-47518838D01*
X54519014Y-47518836D01*
X54519013Y-47518834D01*
X54516750Y-47515996D01*
X54515859Y-47513815D01*
X54515311Y-47512942D01*
X54515464Y-47512845D01*
X54490344Y-47451309D01*
X54489700Y-47438687D01*
X54489700Y-34038259D01*
X54489701Y-34038246D01*
X54489701Y-33870145D01*
X54489701Y-33870143D01*
X54448777Y-33717415D01*
X54411125Y-33652200D01*
X54369720Y-33580484D01*
X54257916Y-33468680D01*
X54257915Y-33468679D01*
X54253585Y-33464349D01*
X54253574Y-33464339D01*
X44475207Y-23685972D01*
X44441722Y-23624649D01*
X44443113Y-23566197D01*
X44458642Y-23508242D01*
X44469589Y-23467389D01*
X44489483Y-23240000D01*
X44469589Y-23012611D01*
X44410512Y-22792130D01*
X44314046Y-22585259D01*
X44314044Y-22585255D01*
X44183121Y-22398280D01*
X44021722Y-22236881D01*
X44021712Y-22236872D01*
X43834745Y-22105955D01*
X43834741Y-22105953D01*
X43731306Y-22057721D01*
X43627870Y-22009488D01*
X43627866Y-22009487D01*
X43627862Y-22009485D01*
X43407394Y-21950412D01*
X43407390Y-21950411D01*
X43407389Y-21950411D01*
X43407388Y-21950410D01*
X43407383Y-21950410D01*
X43180002Y-21930517D01*
X43179998Y-21930517D01*
X42952616Y-21950410D01*
X42952602Y-21950413D01*
X42836313Y-21981571D01*
X42766463Y-21979908D01*
X42708601Y-21940744D01*
X42681098Y-21876515D01*
X42692685Y-21807613D01*
X42716535Y-21774120D01*
X42846149Y-21644506D01*
X42907470Y-21611023D01*
X42947118Y-21610242D01*
X42947217Y-21609117D01*
X42952610Y-21609588D01*
X42952611Y-21609589D01*
X42969002Y-21611023D01*
X43179998Y-21629483D01*
X43180000Y-21629483D01*
X43180002Y-21629483D01*
X43236847Y-21624509D01*
X43407389Y-21609589D01*
X43627870Y-21550512D01*
X43834742Y-21454046D01*
X43971205Y-21358493D01*
X44021712Y-21323127D01*
X44021712Y-21323126D01*
X44021719Y-21323122D01*
X44183122Y-21161719D01*
X44297877Y-20997834D01*
X44314044Y-20974745D01*
X44314046Y-20974741D01*
X44324549Y-20952218D01*
X44410512Y-20767870D01*
X44469589Y-20547389D01*
X44489483Y-20320000D01*
X44469589Y-20092611D01*
X44410512Y-19872130D01*
X44314046Y-19665259D01*
X44314044Y-19665255D01*
X44183121Y-19478280D01*
X44021722Y-19316881D01*
X44021712Y-19316872D01*
X43834745Y-19185955D01*
X43834741Y-19185953D01*
X43725160Y-19134855D01*
X43627870Y-19089488D01*
X43627866Y-19089487D01*
X43627862Y-19089485D01*
X43407394Y-19030412D01*
X43407390Y-19030411D01*
X43407389Y-19030411D01*
X43407388Y-19030410D01*
X43407383Y-19030410D01*
X43180002Y-19010517D01*
X43179999Y-19010517D01*
X43121419Y-19015642D01*
X42952611Y-19030411D01*
X42952609Y-19030411D01*
X42947219Y-19030883D01*
X42947054Y-19029002D01*
X42885910Y-19022177D01*
X42846148Y-18995491D01*
X42680319Y-18829662D01*
X42646834Y-18768339D01*
X42644000Y-18741981D01*
X42644000Y-16988497D01*
X42663685Y-16921458D01*
X42716489Y-16875703D01*
X42785647Y-16865759D01*
X42800086Y-16868720D01*
X42952611Y-16909589D01*
X43115031Y-16923799D01*
X43179998Y-16929483D01*
X43180000Y-16929483D01*
X43180002Y-16929483D01*
X43236847Y-16924509D01*
X43407389Y-16909589D01*
X43506198Y-16883113D01*
X43576047Y-16884776D01*
X43625972Y-16915207D01*
X55403181Y-28692416D01*
X55436666Y-28753739D01*
X55439500Y-28780097D01*
X55439500Y-42678887D01*
X55419815Y-42745926D01*
X55412450Y-42756196D01*
X55410186Y-42759034D01*
X55314211Y-42911776D01*
X55254631Y-43082045D01*
X55254630Y-43082050D01*
X55234435Y-43261296D01*
X55234435Y-43261303D01*
X55254630Y-43440549D01*
X55254631Y-43440554D01*
X55314211Y-43610823D01*
X55349332Y-43666717D01*
X55410184Y-43763562D01*
X55537738Y-43891116D01*
X55598081Y-43929032D01*
X55669231Y-43973739D01*
X55690478Y-43987089D01*
X55694828Y-43988611D01*
X55860745Y-44046668D01*
X55860750Y-44046669D01*
X56039996Y-44066865D01*
X56040000Y-44066865D01*
X56040004Y-44066865D01*
X56219249Y-44046669D01*
X56219252Y-44046668D01*
X56219255Y-44046668D01*
X56389522Y-43987089D01*
X56542262Y-43891116D01*
X56669816Y-43763562D01*
X56765789Y-43610822D01*
X56825368Y-43440555D01*
X56825369Y-43440549D01*
X56845565Y-43261303D01*
X56845565Y-43261296D01*
X56825369Y-43082050D01*
X56825368Y-43082045D01*
X56787625Y-42974182D01*
X56765789Y-42911778D01*
X56669816Y-42759038D01*
X56669814Y-42759036D01*
X56669813Y-42759034D01*
X56667550Y-42756196D01*
X56666659Y-42754015D01*
X56666111Y-42753142D01*
X56666264Y-42753045D01*
X56641144Y-42691509D01*
X56640500Y-42678887D01*
X56640500Y-40118987D01*
X56660185Y-40051948D01*
X56712989Y-40006193D01*
X56782147Y-39996249D01*
X56830473Y-40013994D01*
X56865475Y-40035988D01*
X57035745Y-40095568D01*
X57035750Y-40095569D01*
X57214996Y-40115765D01*
X57215000Y-40115765D01*
X57215004Y-40115765D01*
X57394249Y-40095569D01*
X57394252Y-40095568D01*
X57394255Y-40095568D01*
X57564522Y-40035989D01*
X57717262Y-39940016D01*
X57844816Y-39812462D01*
X57940789Y-39659722D01*
X58000368Y-39489455D01*
X58012152Y-39384869D01*
X58020565Y-39310203D01*
X58020565Y-39310196D01*
X58000369Y-39130950D01*
X58000368Y-39130945D01*
X57940788Y-38960676D01*
X57874207Y-38854714D01*
X57844816Y-38807938D01*
X57844814Y-38807936D01*
X57844813Y-38807934D01*
X57842550Y-38805096D01*
X57841659Y-38802915D01*
X57841111Y-38802042D01*
X57841264Y-38801945D01*
X57816144Y-38740409D01*
X57815500Y-38727787D01*
X57815500Y-21955945D01*
X57815500Y-21955943D01*
X57774577Y-21803216D01*
X57706883Y-21685965D01*
X57695524Y-21666290D01*
X57695521Y-21666286D01*
X57695520Y-21666284D01*
X57583716Y-21554480D01*
X57583715Y-21554479D01*
X57579385Y-21550149D01*
X57579374Y-21550139D01*
X44475207Y-8445972D01*
X44441722Y-8384649D01*
X44443113Y-8326197D01*
X44469589Y-8227389D01*
X44489483Y-8000000D01*
X44488904Y-7993387D01*
X44469589Y-7772616D01*
X44469589Y-7772611D01*
X44410512Y-7552130D01*
X44314046Y-7345259D01*
X44314044Y-7345255D01*
X44183121Y-7158280D01*
X44021722Y-6996881D01*
X44021712Y-6996872D01*
X43834745Y-6865955D01*
X43834741Y-6865953D01*
X43731306Y-6817721D01*
X43627870Y-6769488D01*
X43627866Y-6769487D01*
X43627862Y-6769485D01*
X43407394Y-6710412D01*
X43407390Y-6710411D01*
X43407389Y-6710411D01*
X43407388Y-6710410D01*
X43407383Y-6710410D01*
X43180002Y-6690517D01*
X43179998Y-6690517D01*
X42952616Y-6710410D01*
X42952605Y-6710412D01*
X42732137Y-6769485D01*
X42732128Y-6769489D01*
X42525259Y-6865953D01*
X42525255Y-6865955D01*
X42338280Y-6996878D01*
X42176878Y-7158280D01*
X42045955Y-7345255D01*
X42045953Y-7345259D01*
X41949489Y-7552128D01*
X41949485Y-7552137D01*
X41890412Y-7772605D01*
X41890410Y-7772616D01*
X41870517Y-7999998D01*
X41870517Y-8000001D01*
X41890410Y-8227383D01*
X41890412Y-8227394D01*
X41949485Y-8447862D01*
X41949487Y-8447866D01*
X41949488Y-8447870D01*
X41989011Y-8532628D01*
X42045953Y-8654741D01*
X42045955Y-8654745D01*
X42176872Y-8841712D01*
X42176881Y-8841722D01*
X42338277Y-9003118D01*
X42338287Y-9003127D01*
X42525254Y-9134044D01*
X42525258Y-9134046D01*
X42732130Y-9230512D01*
X42952611Y-9289589D01*
X43115031Y-9303799D01*
X43179998Y-9309483D01*
X43180000Y-9309483D01*
X43180002Y-9309483D01*
X43236847Y-9304509D01*
X43407389Y-9289589D01*
X43506198Y-9263113D01*
X43576047Y-9264776D01*
X43625972Y-9295207D01*
X56578181Y-22247416D01*
X56611666Y-22308739D01*
X56614500Y-22335097D01*
X56614500Y-27905903D01*
X56594815Y-27972942D01*
X56542011Y-28018697D01*
X56472853Y-28028641D01*
X56409297Y-27999616D01*
X56402819Y-27993584D01*
X44475207Y-16065972D01*
X44441722Y-16004649D01*
X44443113Y-15946197D01*
X44451076Y-15916480D01*
X44469589Y-15847389D01*
X44489483Y-15620000D01*
X44469589Y-15392611D01*
X44410512Y-15172130D01*
X44314046Y-14965259D01*
X44314044Y-14965255D01*
X44183121Y-14778280D01*
X44021722Y-14616881D01*
X44021712Y-14616872D01*
X43834745Y-14485955D01*
X43834741Y-14485953D01*
X43731306Y-14437721D01*
X43627870Y-14389488D01*
X43627866Y-14389487D01*
X43627862Y-14389485D01*
X43407394Y-14330412D01*
X43407390Y-14330411D01*
X43407389Y-14330411D01*
X43407388Y-14330410D01*
X43407383Y-14330410D01*
X43180002Y-14310517D01*
X43179998Y-14310517D01*
X42952616Y-14330410D01*
X42952602Y-14330413D01*
X42836313Y-14361571D01*
X42766463Y-14359908D01*
X42708601Y-14320744D01*
X42681098Y-14256515D01*
X42692685Y-14187613D01*
X42716535Y-14154120D01*
X42846149Y-14024506D01*
X42907470Y-13991023D01*
X42947118Y-13990242D01*
X42947217Y-13989117D01*
X42952610Y-13989588D01*
X42952611Y-13989589D01*
X42969002Y-13991023D01*
X43179998Y-14009483D01*
X43180000Y-14009483D01*
X43180002Y-14009483D01*
X43236847Y-14004509D01*
X43407389Y-13989589D01*
X43627870Y-13930512D01*
X43834742Y-13834046D01*
X43971205Y-13738493D01*
X44021712Y-13703127D01*
X44021712Y-13703126D01*
X44021719Y-13703122D01*
X44183122Y-13541719D01*
X44297877Y-13377834D01*
X44314044Y-13354745D01*
X44314046Y-13354741D01*
X44410512Y-13147870D01*
X44469589Y-12927389D01*
X44489483Y-12700000D01*
X44469589Y-12472611D01*
X44410512Y-12252130D01*
X44314046Y-12045259D01*
X44314044Y-12045255D01*
X44215075Y-11903914D01*
X44183122Y-11858281D01*
X44021719Y-11696878D01*
X44021717Y-11696876D01*
X44021712Y-11696872D01*
X43834745Y-11565955D01*
X43834741Y-11565953D01*
X43725160Y-11514855D01*
X43627870Y-11469488D01*
X43627866Y-11469487D01*
X43627862Y-11469485D01*
X43407394Y-11410412D01*
X43407390Y-11410411D01*
X43407389Y-11410411D01*
X43407388Y-11410410D01*
X43407383Y-11410410D01*
X43180002Y-11390517D01*
X43179998Y-11390517D01*
X42952616Y-11410410D01*
X42952605Y-11410412D01*
X42732137Y-11469485D01*
X42732128Y-11469489D01*
X42525259Y-11565953D01*
X42525255Y-11565955D01*
X42338280Y-11696878D01*
X42176878Y-11858280D01*
X42045955Y-12045255D01*
X42045953Y-12045259D01*
X41949489Y-12252128D01*
X41949485Y-12252137D01*
X41890412Y-12472605D01*
X41890410Y-12472616D01*
X41870517Y-12699998D01*
X41870517Y-12700000D01*
X41890410Y-12927383D01*
X41890883Y-12932781D01*
X41888999Y-12932945D01*
X41882183Y-12994073D01*
X41855491Y-13033850D01*
X41399388Y-13489953D01*
X41399384Y-13489958D01*
X41371698Y-13531394D01*
X41364800Y-13541719D01*
X41344971Y-13571395D01*
X41322723Y-13604691D01*
X41269921Y-13732167D01*
X41269918Y-13732177D01*
X41243000Y-13867504D01*
X41243000Y-13867507D01*
X41243000Y-19014506D01*
X41243000Y-19152494D01*
X41243000Y-19152496D01*
X41242999Y-19152496D01*
X41269918Y-19287822D01*
X41269921Y-19287832D01*
X41322722Y-19415307D01*
X41399387Y-19530045D01*
X41399388Y-19530046D01*
X41855491Y-19986148D01*
X41888976Y-20047471D01*
X41889764Y-20087121D01*
X41890883Y-20087219D01*
X41890411Y-20092609D01*
X41890411Y-20092611D01*
X41870517Y-20320000D01*
X41890410Y-20547383D01*
X41890883Y-20552781D01*
X41888999Y-20552945D01*
X41882183Y-20614073D01*
X41855491Y-20653850D01*
X41399387Y-21109954D01*
X41322722Y-21224692D01*
X41269921Y-21352167D01*
X41269918Y-21352179D01*
X41245404Y-21475416D01*
X41245405Y-21475417D01*
X41245404Y-21475423D01*
X41243000Y-21487507D01*
X41243000Y-26634506D01*
X41243000Y-26772494D01*
X41243000Y-26772496D01*
X41242999Y-26772496D01*
X41269918Y-26907822D01*
X41269921Y-26907832D01*
X41322722Y-27035307D01*
X41399387Y-27150045D01*
X41399388Y-27150046D01*
X41855491Y-27606148D01*
X41888976Y-27667471D01*
X41889764Y-27707121D01*
X41890883Y-27707219D01*
X41890411Y-27712609D01*
X41890411Y-27712611D01*
X41870517Y-27940000D01*
X41890410Y-28167383D01*
X41890883Y-28172781D01*
X41888999Y-28172945D01*
X41882183Y-28234073D01*
X41855491Y-28273850D01*
X41428587Y-28700754D01*
X41351922Y-28815492D01*
X41299121Y-28942967D01*
X41299118Y-28942979D01*
X41273050Y-29074034D01*
X41273048Y-29074046D01*
X41272200Y-29078307D01*
X41272200Y-34283706D01*
X41272200Y-34421694D01*
X41272200Y-34421696D01*
X41272199Y-34421696D01*
X41299118Y-34557022D01*
X41299121Y-34557032D01*
X41351922Y-34684507D01*
X41428587Y-34799245D01*
X41428588Y-34799246D01*
X41855491Y-35226148D01*
X41888976Y-35287471D01*
X41889764Y-35327121D01*
X41890883Y-35327219D01*
X41890411Y-35332609D01*
X41890411Y-35332611D01*
X41870517Y-35560000D01*
X41890410Y-35787383D01*
X41890883Y-35792781D01*
X41888999Y-35792945D01*
X41882183Y-35854073D01*
X41855491Y-35893850D01*
X41430185Y-36319156D01*
X41375019Y-36401720D01*
X41353530Y-36433880D01*
X41353523Y-36433892D01*
X41300720Y-36561371D01*
X41300718Y-36561377D01*
X41273800Y-36696704D01*
X41273800Y-66997987D01*
X41273791Y-67062913D01*
X41273798Y-67062986D01*
X41287714Y-67132946D01*
X41287713Y-67132946D01*
X41287716Y-67132957D01*
X41300697Y-67198254D01*
X41300715Y-67198314D01*
X41300719Y-67198324D01*
X41300720Y-67198328D01*
X41327475Y-67262922D01*
X41327477Y-67262934D01*
X41327480Y-67262934D01*
X41353497Y-67325765D01*
X41353504Y-67325780D01*
X41353525Y-67325811D01*
X41392211Y-67383709D01*
X41392220Y-67383722D01*
X41430127Y-67440470D01*
X41430187Y-67440543D01*
X41478262Y-67488618D01*
X41855533Y-67865983D01*
X41889010Y-67927310D01*
X41889800Y-67967124D01*
X41890883Y-67967219D01*
X41870517Y-68199999D01*
X41870517Y-68200001D01*
X41890883Y-68432783D01*
X41888923Y-68432954D01*
X41882117Y-68493824D01*
X41855423Y-68533584D01*
X41501043Y-68887821D01*
X41500807Y-68888036D01*
X41448979Y-68939864D01*
X41399448Y-68989374D01*
X41399408Y-68989424D01*
X41361550Y-69046081D01*
X41361538Y-69046099D01*
X41322753Y-69104120D01*
X41297196Y-69165820D01*
X41297187Y-69165841D01*
X41269953Y-69231553D01*
X41269924Y-69231648D01*
X41256730Y-69297977D01*
X41256726Y-69297998D01*
X41243000Y-69366936D01*
X41243000Y-69435883D01*
X41242985Y-69510805D01*
X40640000Y-69510805D01*
X40640000Y-55880000D01*
X12824000Y-55880000D01*
X12756961Y-55860315D01*
X12711206Y-55807511D01*
X12700000Y-55756000D01*
X12700000Y-48259999D01*
X13884341Y-48259999D01*
X13884341Y-48260000D01*
X13904936Y-48495403D01*
X13904938Y-48495413D01*
X13966094Y-48723655D01*
X13966096Y-48723659D01*
X13966097Y-48723663D01*
X14062081Y-48929500D01*
X14065965Y-48937830D01*
X14065967Y-48937834D01*
X14201501Y-49131395D01*
X14201506Y-49131402D01*
X14368597Y-49298493D01*
X14368603Y-49298498D01*
X14554158Y-49428425D01*
X14597783Y-49483002D01*
X14604977Y-49552500D01*
X14573454Y-49614855D01*
X14554158Y-49631575D01*
X14368597Y-49761505D01*
X14201505Y-49928597D01*
X14065965Y-50122169D01*
X14065964Y-50122171D01*
X13966098Y-50336335D01*
X13966094Y-50336344D01*
X13904938Y-50564586D01*
X13904936Y-50564596D01*
X13884341Y-50799999D01*
X13884341Y-50800000D01*
X13904936Y-51035403D01*
X13904938Y-51035413D01*
X13966094Y-51263655D01*
X13966096Y-51263659D01*
X13966097Y-51263663D01*
X14046004Y-51435023D01*
X14065965Y-51477830D01*
X14065967Y-51477834D01*
X14174281Y-51632521D01*
X14201505Y-51671401D01*
X14368599Y-51838495D01*
X14424081Y-51877344D01*
X14562165Y-51974032D01*
X14562167Y-51974033D01*
X14562170Y-51974035D01*
X14776337Y-52073903D01*
X15004592Y-52135063D01*
X15192918Y-52151539D01*
X15239999Y-52155659D01*
X15240000Y-52155659D01*
X15240001Y-52155659D01*
X15279234Y-52152226D01*
X15475408Y-52135063D01*
X15703663Y-52073903D01*
X15917830Y-51974035D01*
X16111401Y-51838495D01*
X16278495Y-51671401D01*
X16408425Y-51485842D01*
X16463002Y-51442217D01*
X16532500Y-51435023D01*
X16594855Y-51466546D01*
X16611575Y-51485842D01*
X16741500Y-51671395D01*
X16741505Y-51671401D01*
X16908599Y-51838495D01*
X16964081Y-51877344D01*
X17102165Y-51974032D01*
X17102167Y-51974033D01*
X17102170Y-51974035D01*
X17316337Y-52073903D01*
X17544592Y-52135063D01*
X17732918Y-52151539D01*
X17779999Y-52155659D01*
X17780000Y-52155659D01*
X17780001Y-52155659D01*
X17819234Y-52152226D01*
X18015408Y-52135063D01*
X18243663Y-52073903D01*
X18457830Y-51974035D01*
X18651401Y-51838495D01*
X18818495Y-51671401D01*
X18954035Y-51477830D01*
X19053903Y-51263663D01*
X19115063Y-51035408D01*
X19135659Y-50800000D01*
X19133690Y-50777500D01*
X19128819Y-50721816D01*
X19115063Y-50564592D01*
X19053903Y-50336337D01*
X18954035Y-50122171D01*
X18872704Y-50006017D01*
X18818494Y-49928597D01*
X18795346Y-49905449D01*
X18761861Y-49844126D01*
X18766845Y-49774434D01*
X18795344Y-49730089D01*
X20264106Y-48261328D01*
X20264111Y-48261324D01*
X20274314Y-48251120D01*
X20274316Y-48251120D01*
X20386120Y-48139316D01*
X20465177Y-48002384D01*
X20506100Y-47849657D01*
X20506100Y-46584012D01*
X20525785Y-46516973D01*
X20533155Y-46506697D01*
X20535410Y-46503867D01*
X20535416Y-46503862D01*
X20631389Y-46351122D01*
X20690968Y-46180855D01*
X20690968Y-46180852D01*
X20690970Y-46180845D01*
X20711165Y-46001603D01*
X20711165Y-46001596D01*
X20690969Y-45822350D01*
X20690968Y-45822345D01*
X20663483Y-45743797D01*
X20631389Y-45652078D01*
X20535416Y-45499338D01*
X20407862Y-45371784D01*
X20407860Y-45371782D01*
X20404348Y-45368981D01*
X20364211Y-45311790D01*
X20361366Y-45241978D01*
X20376673Y-45206067D01*
X20458816Y-45075337D01*
X20465989Y-45063922D01*
X20525568Y-44893655D01*
X20532523Y-44831930D01*
X20545765Y-44714403D01*
X20545765Y-44714396D01*
X20525569Y-44535150D01*
X20525568Y-44535145D01*
X20494408Y-44446094D01*
X20465989Y-44364878D01*
X20370016Y-44212138D01*
X20242462Y-44084584D01*
X20227836Y-44075394D01*
X20089723Y-43988611D01*
X19919454Y-43929031D01*
X19919449Y-43929030D01*
X19740204Y-43908835D01*
X19740196Y-43908835D01*
X19560950Y-43929030D01*
X19560945Y-43929031D01*
X19390676Y-43988611D01*
X19237937Y-44084584D01*
X19110384Y-44212137D01*
X19014410Y-44364878D01*
X18954830Y-44535150D01*
X18945037Y-44622068D01*
X18917970Y-44686482D01*
X18909500Y-44695864D01*
X18875310Y-44730053D01*
X18813990Y-44763538D01*
X18744298Y-44758554D01*
X18699949Y-44730053D01*
X18651402Y-44681506D01*
X18651395Y-44681501D01*
X18457834Y-44545967D01*
X18457830Y-44545965D01*
X18434637Y-44535150D01*
X18243663Y-44446097D01*
X18243659Y-44446096D01*
X18243655Y-44446094D01*
X18015413Y-44384938D01*
X18015403Y-44384936D01*
X17780001Y-44364341D01*
X17779999Y-44364341D01*
X17544596Y-44384936D01*
X17544586Y-44384938D01*
X17316344Y-44446094D01*
X17316335Y-44446098D01*
X17102171Y-44545964D01*
X17102169Y-44545965D01*
X16908600Y-44681503D01*
X16786673Y-44803430D01*
X16725350Y-44836914D01*
X16655658Y-44831930D01*
X16599725Y-44790058D01*
X16582810Y-44759081D01*
X16533797Y-44627671D01*
X16533793Y-44627664D01*
X16447547Y-44512455D01*
X16447544Y-44512452D01*
X16332335Y-44426206D01*
X16332328Y-44426202D01*
X16197482Y-44375908D01*
X16197483Y-44375908D01*
X16137883Y-44369501D01*
X16137881Y-44369500D01*
X16137873Y-44369500D01*
X16137864Y-44369500D01*
X14342129Y-44369500D01*
X14342123Y-44369501D01*
X14282516Y-44375908D01*
X14147671Y-44426202D01*
X14147664Y-44426206D01*
X14032455Y-44512452D01*
X14032452Y-44512455D01*
X13946206Y-44627664D01*
X13946202Y-44627671D01*
X13895908Y-44762517D01*
X13889501Y-44822116D01*
X13889500Y-44822135D01*
X13889500Y-46617870D01*
X13889501Y-46617876D01*
X13895908Y-46677483D01*
X13946202Y-46812328D01*
X13946206Y-46812335D01*
X14032452Y-46927544D01*
X14032455Y-46927547D01*
X14147664Y-47013793D01*
X14147671Y-47013797D01*
X14279081Y-47062810D01*
X14335015Y-47104681D01*
X14359432Y-47170145D01*
X14344580Y-47238418D01*
X14323430Y-47266673D01*
X14201503Y-47388600D01*
X14065965Y-47582169D01*
X14065964Y-47582171D01*
X13966098Y-47796335D01*
X13966094Y-47796344D01*
X13904938Y-48024586D01*
X13904936Y-48024596D01*
X13884341Y-48259999D01*
X12700000Y-48259999D01*
X12700000Y-43304000D01*
X12719685Y-43236961D01*
X12772489Y-43191206D01*
X12824000Y-43180000D01*
X40640000Y-43180000D01*
X40640000Y-5080000D01*
X39494000Y-5080000D01*
X39426961Y-5060315D01*
X39381206Y-5007511D01*
X39370000Y-4956000D01*
X39370000Y-624500D01*
X39389685Y-557461D01*
X39442489Y-511706D01*
X39494000Y-500500D01*
X74864108Y-500500D01*
X74926754Y-500500D01*
X74933243Y-500669D01*
G37*
%TD.AperFunction*%
%TD*%
M02*
