<?xml version="1.0" standalone="no"?>
 <!DOCTYPE svg PUBLIC "-//W3C//DTD SVG 1.1//EN" 
 "http://www.w3.org/Graphics/SVG/1.1/DTD/svg11.dtd"> 
<svg
  xmlns:svg="http://www.w3.org/2000/svg"
  xmlns="http://www.w3.org/2000/svg"
  xmlns:xlink="http://www.w3.org/1999/xlink"
  version="1.1"
  width="297.0022mm" height="210.0072mm" viewBox="0.0000 0.0000 297.0022 210.0072">
<title>SVG Image created as PMLED-10-PTH-drl_map.svg date 2025/12/07 14:11:10 </title>
  <desc>Image generated by PCBNEW </desc>
<g style="fill:#000000; fill-opacity:1.0000;stroke:#000000; stroke-opacity:1.0000;
stroke-linecap:round; stroke-linejoin:round;"
 transform="translate(0 0) scale(1 1)">
</g>
<g style="fill:none; 
stroke:#000000; stroke-width:0.2412; stroke-opacity:1; 
stroke-linecap:round; stroke-linejoin:round;">
<path d="M166.5839 117.2661
L166.5839 8.7382
" />
<path d="M160.5598 5.1206
L162.9715 5.1206
" />
<path d="M159.3539 114.8544 A3.6176 3.6176 0.0 0 0 155.7363 111.2368" />
<path d="M131.6190 5.1206 A1.2059 1.2059 0.0 0 0 130.4131 6.3265" />
<path d="M137.6483 117.2661
L137.6483 114.8544
" />
<path d="M130.4131 119.6779 A1.2059 1.2059 0.0 0 0 131.6190 120.8837" />
<path d="M131.6190 120.8837
L134.0307 120.8837
" />
<path d="M130.4131 6.3265
L130.4131 119.6779
" />
<path d="M159.3539 11.1499
L159.3539 6.3265
" />
<path d="M166.5891 8.7382 A3.6176 3.6176 0.0 0 0 162.9715 5.1206" />
<path d="M137.6483 11.1499
L137.6483 8.7382
" />
<path d="M159.3539 119.6779
L159.3539 114.8544
" />
<path d="M137.6483 8.7382 A3.6176 3.6176 0.0 0 0 134.0307 5.1206" />
<path d="M137.6483 11.1499 A3.6176 3.6176 0.0 0 0 141.2659 14.7675" />
<path d="M141.2659 111.2405
L155.7363 111.2368
" />
<path d="M141.2659 14.7675
L155.7363 14.7675
" />
<path d="M162.9715 120.8837 A3.6176 3.6176 0.0 0 0 166.5891 117.2661" />
<path d="M159.3539 119.6779 A1.2059 1.2059 0.0 0 0 160.5598 120.8837" />
<path d="M134.0307 120.8837 A3.6176 3.6176 0.0 0 0 137.6483 117.2661" />
<path d="M155.7363 14.7675 A3.6176 3.6176 0.0 0 0 159.3539 11.1499" />
<path d="M141.2659 111.2368 A3.6176 3.6176 0.0 0 0 137.6483 114.8544" />
<path d="M160.5598 5.1206 A1.2059 1.2059 0.0 0 0 159.3539 6.3265" />
<path d="M131.6190 5.1206
L134.0307 5.1206
" />
<path d="M160.5598 120.8837
L162.9715 120.8837
" />
</g>
<g style="fill:none; 
stroke:#000000; stroke-width:0.1206; stroke-opacity:1; 
stroke-linecap:round; stroke-linejoin:round;">
<path d="M139.8189 19.9527
L140.3012 20.4351
" />
<path d="M140.3012 19.9527
L139.8189 20.4351
" />
<path d="M139.8189 21.1586
L140.3012 21.6410
" />
<path d="M140.3012 21.1586
L139.8189 21.6410
" />
<path d="M139.8189 22.3645
L140.3012 22.8468
" />
<path d="M140.3012 22.3645
L139.8189 22.8468
" />
<path d="M139.8189 23.5703
L140.3012 24.0527
" />
<path d="M140.3012 23.5703
L139.8189 24.0527
" />
<path d="M139.8189 24.7762
L140.3012 25.2586
" />
<path d="M140.3012 24.7762
L139.8189 25.2586
" />
<path d="M139.8189 25.9821
L140.3012 26.4644
" />
<path d="M140.3012 25.9821
L139.8189 26.4644
" />
<path d="M139.8189 27.1879
L140.3012 27.6703
" />
<path d="M140.3012 27.1879
L139.8189 27.6703
" />
<path d="M139.8189 28.3938
L140.3012 28.8761
" />
<path d="M140.3012 28.3938
L139.8189 28.8761
" />
<path d="M139.8189 29.5997
L140.3012 30.0820
" />
<path d="M140.3012 29.5997
L139.8189 30.0820
" />
<path d="M139.8189 30.8055
L140.3012 31.2879
" />
<path d="M140.3012 30.8055
L139.8189 31.2879
" />
<path d="M139.8189 32.0114
L140.3012 32.4937
" />
<path d="M140.3012 32.0114
L139.8189 32.4937
" />
<path d="M139.8189 33.2173
L140.3012 33.6996
" />
<path d="M140.3012 33.2173
L139.8189 33.6996
" />
<path d="M139.8189 44.0701
L140.3012 44.5524
" />
<path d="M140.3012 44.0701
L139.8189 44.5524
" />
<path d="M139.8189 45.2759
L140.3012 45.7583
" />
<path d="M140.3012 45.2759
L139.8189 45.7583
" />
<path d="M139.8189 46.4818
L140.3012 46.9641
" />
<path d="M140.3012 46.4818
L139.8189 46.9641
" />
<path d="M139.8189 47.6877
L140.3012 48.1700
" />
<path d="M140.3012 47.6877
L139.8189 48.1700
" />
<path d="M139.8189 48.8935
L140.3012 49.3759
" />
<path d="M140.3012 48.8935
L139.8189 49.3759
" />
<path d="M139.8189 50.0994
L140.3012 50.5817
" />
<path d="M140.3012 50.0994
L139.8189 50.5817
" />
<path d="M139.8189 51.3053
L140.3012 51.7876
" />
<path d="M140.3012 51.3053
L139.8189 51.7876
" />
<path d="M139.8189 52.5111
L140.3012 52.9935
" />
<path d="M140.3012 52.5111
L139.8189 52.9935
" />
<path d="M139.8189 53.7170
L140.3012 54.1993
" />
<path d="M140.3012 53.7170
L139.8189 54.1993
" />
<path d="M139.8189 54.9229
L140.3012 55.4052
" />
<path d="M140.3012 54.9229
L139.8189 55.4052
" />
<path d="M139.8189 56.1287
L140.3012 56.6111
" />
<path d="M140.3012 56.1287
L139.8189 56.6111
" />
<path d="M139.8189 57.3346
L140.3012 57.8169
" />
<path d="M140.3012 57.3346
L139.8189 57.8169
" />
<path d="M139.8189 68.1874
L140.3012 68.6697
" />
<path d="M140.3012 68.1874
L139.8189 68.6697
" />
<path d="M139.8189 69.3932
L140.3012 69.8756
" />
<path d="M140.3012 69.3932
L139.8189 69.8756
" />
<path d="M139.8189 70.5991
L140.3012 71.0815
" />
<path d="M140.3012 70.5991
L139.8189 71.0815
" />
<path d="M139.8189 71.8050
L140.3012 72.2873
" />
<path d="M140.3012 71.8050
L139.8189 72.2873
" />
<path d="M139.8189 73.0108
L140.3012 73.4932
" />
<path d="M140.3012 73.0108
L139.8189 73.4932
" />
<path d="M139.8189 74.2167
L140.3012 74.6991
" />
<path d="M140.3012 74.2167
L139.8189 74.6991
" />
<path d="M139.8189 75.4226
L140.3012 75.9049
" />
<path d="M140.3012 75.4226
L139.8189 75.9049
" />
<path d="M139.8189 76.6284
L140.3012 77.1108
" />
<path d="M140.3012 76.6284
L139.8189 77.1108
" />
<path d="M139.8189 77.8343
L140.3012 78.3167
" />
<path d="M140.3012 77.8343
L139.8189 78.3167
" />
<path d="M139.8189 79.0402
L140.3012 79.5225
" />
<path d="M140.3012 79.0402
L139.8189 79.5225
" />
<path d="M139.8189 80.2460
L140.3012 80.7284
" />
<path d="M140.3012 80.2460
L139.8189 80.7284
" />
<path d="M139.8189 81.4519
L140.3012 81.9343
" />
<path d="M140.3012 81.4519
L139.8189 81.9343
" />
<path d="M139.8189 92.3047
L140.3012 92.7871
" />
<path d="M140.3012 92.3047
L139.8189 92.7871
" />
<path d="M139.8189 93.5106
L140.3012 93.9929
" />
<path d="M140.3012 93.5106
L139.8189 93.9929
" />
<path d="M139.8189 94.7164
L140.3012 95.1988
" />
<path d="M140.3012 94.7164
L139.8189 95.1988
" />
<path d="M139.8189 95.9223
L140.3012 96.4047
" />
<path d="M140.3012 95.9223
L139.8189 96.4047
" />
<path d="M139.8189 97.1282
L140.3012 97.6105
" />
<path d="M140.3012 97.1282
L139.8189 97.6105
" />
<path d="M139.8189 98.3340
L140.3012 98.8164
" />
<path d="M140.3012 98.3340
L139.8189 98.8164
" />
<path d="M139.8189 99.5399
L140.3012 100.0222
" />
<path d="M140.3012 99.5399
L139.8189 100.0222
" />
<path d="M139.8189 100.7458
L140.3012 101.2281
" />
<path d="M140.3012 100.7458
L139.8189 101.2281
" />
<path d="M139.8189 101.9516
L140.3012 102.4340
" />
<path d="M140.3012 101.9516
L139.8189 102.4340
" />
<path d="M139.8189 103.1575
L140.3012 103.6398
" />
<path d="M140.3012 103.1575
L139.8189 103.6398
" />
<path d="M139.8189 104.3634
L140.3012 104.8457
" />
<path d="M140.3012 104.3634
L139.8189 104.8457
" />
<path d="M139.8189 105.5692
L140.3012 106.0516
" />
<path d="M140.3012 105.5692
L139.8189 106.0516
" />
<path d="M145.8482 21.1586
L146.3305 21.6410
" />
<path d="M146.3305 21.1586
L145.8482 21.6410
" />
<path d="M145.8482 45.2759
L146.3305 45.7583
" />
<path d="M146.3305 45.2759
L145.8482 45.7583
" />
<path d="M145.8482 65.1727
L146.3305 65.6551
" />
<path d="M146.3305 65.1727
L145.8482 65.6551
" />
<path d="M145.8482 90.4959
L146.3305 90.9783
" />
<path d="M146.3305 90.4959
L145.8482 90.9783
" />
<path d="M147.0541 21.1586
L147.5364 21.6410
" />
<path d="M147.5364 21.1586
L147.0541 21.6410
" />
<path d="M147.0541 45.2759
L147.5364 45.7583
" />
<path d="M147.5364 45.2759
L147.0541 45.7583
" />
<path d="M147.0541 65.1727
L147.5364 65.6551
" />
<path d="M147.5364 65.1727
L147.0541 65.6551
" />
<path d="M147.0541 90.4959
L147.5364 90.9783
" />
<path d="M147.5364 90.4959
L147.0541 90.9783
" />
<path d="M148.2599 21.1586
L148.7423 21.6410
" />
<path d="M148.7423 21.1586
L148.2599 21.6410
" />
<path d="M148.2599 45.2759
L148.7423 45.7583
" />
<path d="M148.7423 45.2759
L148.2599 45.7583
" />
<path d="M148.2599 65.1727
L148.7423 65.6551
" />
<path d="M148.7423 65.1727
L148.2599 65.6551
" />
<path d="M148.2599 90.4959
L148.7423 90.9783
" />
<path d="M148.7423 90.4959
L148.2599 90.9783
" />
<path d="M149.4658 21.1586
L149.9481 21.6410
" />
<path d="M149.9481 21.1586
L149.4658 21.6410
" />
<path d="M149.4658 45.2759
L149.9481 45.7583
" />
<path d="M149.9481 45.2759
L149.4658 45.7583
" />
<path d="M149.4658 65.1727
L149.9481 65.6551
" />
<path d="M149.9481 65.1727
L149.4658 65.6551
" />
<path d="M149.4658 90.4959
L149.9481 90.9783
" />
<path d="M149.9481 90.4959
L149.4658 90.9783
" />
<path d="M150.6717 21.1586
L151.1540 21.6410
" />
<path d="M151.1540 21.1586
L150.6717 21.6410
" />
<path d="M150.6717 45.2759
L151.1540 45.7583
" />
<path d="M151.1540 45.2759
L150.6717 45.7583
" />
<path d="M150.6717 65.1727
L151.1540 65.6551
" />
<path d="M151.1540 65.1727
L150.6717 65.6551
" />
<path d="M150.6717 90.4959
L151.1540 90.9783
" />
<path d="M151.1540 90.4959
L150.6717 90.9783
" />
<path d="M151.8775 21.1586
L152.3599 21.6410
" />
<path d="M152.3599 21.1586
L151.8775 21.6410
" />
<path d="M151.8775 45.2759
L152.3599 45.7583
" />
<path d="M152.3599 45.2759
L151.8775 45.7583
" />
<path d="M151.8775 65.1727
L152.3599 65.6551
" />
<path d="M152.3599 65.1727
L151.8775 65.6551
" />
<path d="M151.8775 90.4959
L152.3599 90.9783
" />
<path d="M152.3599 90.4959
L151.8775 90.9783
" />
<path d="M153.0834 21.1586
L153.5657 21.6410
" />
<path d="M153.5657 21.1586
L153.0834 21.6410
" />
<path d="M153.0834 45.2759
L153.5657 45.7583
" />
<path d="M153.5657 45.2759
L153.0834 45.7583
" />
<path d="M153.0834 65.1727
L153.5657 65.6551
" />
<path d="M153.5657 65.1727
L153.0834 65.6551
" />
<path d="M153.0834 90.4959
L153.5657 90.9783
" />
<path d="M153.5657 90.4959
L153.0834 90.9783
" />
<path d="M154.2893 21.1586
L154.7716 21.6410
" />
<path d="M154.7716 21.1586
L154.2893 21.6410
" />
<path d="M154.2893 45.2759
L154.7716 45.7583
" />
<path d="M154.7716 45.2759
L154.2893 45.7583
" />
<path d="M154.2893 65.1727
L154.7716 65.6551
" />
<path d="M154.7716 65.1727
L154.2893 65.6551
" />
<path d="M154.2893 90.4959
L154.7716 90.9783
" />
<path d="M154.7716 90.4959
L154.2893 90.9783
" />
<path d="M155.4951 21.1586
L155.9775 21.6410
" />
<path d="M155.9775 21.1586
L155.4951 21.6410
" />
<path d="M155.4951 45.2759
L155.9775 45.7583
" />
<path d="M155.9775 45.2759
L155.4951 45.7583
" />
<path d="M155.4951 65.1727
L155.9775 65.6551
" />
<path d="M155.9775 65.1727
L155.4951 65.6551
" />
<path d="M155.4951 90.4959
L155.9775 90.9783
" />
<path d="M155.9775 90.4959
L155.4951 90.9783
" />
<path d="M156.7010 21.1586
L157.1833 21.6410
" />
<path d="M157.1833 21.1586
L156.7010 21.6410
" />
<path d="M156.7010 45.2759
L157.1833 45.7583
" />
<path d="M157.1833 45.2759
L156.7010 45.7583
" />
<path d="M156.7010 65.1727
L157.1833 65.6551
" />
<path d="M157.1833 65.1727
L156.7010 65.6551
" />
<path d="M156.7010 90.4959
L157.1833 90.9783
" />
<path d="M157.1833 90.4959
L156.7010 90.9783
" />
<path d="M159.1127 32.6143
L159.5951 33.0967
" />
<path d="M159.5951 32.6143
L159.1127 33.0967
" />
<path d="M159.1127 41.0554
L159.5951 41.5377
" />
<path d="M159.5951 41.0554
L159.1127 41.5377
" />
<path d="M159.1127 49.4965
L159.5951 49.9788
" />
<path d="M159.5951 49.4965
L159.1127 49.9788
" />
<path d="M159.1127 57.9375
L159.5951 58.4199
" />
<path d="M159.5951 57.9375
L159.1127 58.4199
" />
<path d="M159.1127 68.1874
L159.5951 68.6697
" />
<path d="M159.5951 68.1874
L159.1127 68.6697
" />
<path d="M159.1127 76.6284
L159.5951 77.1108
" />
<path d="M159.5951 76.6284
L159.1127 77.1108
" />
<path d="M159.1127 85.0695
L159.5951 85.5519
" />
<path d="M159.5951 85.0695
L159.1127 85.5519
" />
<path d="M159.1127 93.5106
L159.5951 93.9929
" />
<path d="M159.5951 93.5106
L159.1127 93.9929
" />
<path d="M159.1127 101.3487
L159.5951 101.8310
" />
<path d="M159.5951 101.3487
L159.1127 101.8310
" />
<path d="M159.1127 106.1722
L159.5951 106.6545
" />
<path d="M159.5951 106.1722
L159.1127 106.6545
" />
</g>
<g style="fill:none; 
stroke:#000000; stroke-width:0.2653; stroke-opacity:1; 
stroke-linecap:round; stroke-linejoin:round;">
<circle cx="134.0307" cy="8.7382" r="1.3265" /> 
<circle cx="134.0307" cy="117.2661" r="1.3265" /> 
<circle cx="162.9715" cy="8.7382" r="1.3265" /> 
<circle cx="162.9715" cy="117.2661" r="1.3265" /> 
</g>
<g style="fill:none; 
stroke:#000000; stroke-width:0.2000; stroke-opacity:1; 
stroke-linecap:round; stroke-linejoin:round;">
<text x="132.2925" y="124.2043"
textLength="14.8667" font-size="2.6667" lengthAdjust="spacingAndGlyphs"
text-anchor="start" opacity="0" stroke-opacity="0">Drill Map:</text>
<g class="stroked-text"><desc>Drill Map:</desc>
<path d="M132.9003 124.1192
L132.9003 122.1192
" />
<path d="M132.9003 122.1192
L133.3765 122.1192
" />
<path d="M133.3765 122.1192
L133.6622 122.2144
" />
<path d="M133.6622 122.2144
L133.8527 122.4049
" />
<path d="M133.8527 122.4049
L133.9479 122.5953
" />
<path d="M133.9479 122.5953
L134.0431 122.9763
" />
<path d="M134.0431 122.9763
L134.0431 123.2620
" />
<path d="M134.0431 123.2620
L133.9479 123.6430
" />
<path d="M133.9479 123.6430
L133.8527 123.8334
" />
<path d="M133.8527 123.8334
L133.6622 124.0239
" />
<path d="M133.6622 124.0239
L133.3765 124.1192
" />
<path d="M133.3765 124.1192
L132.9003 124.1192
" />
<path d="M134.9003 124.1192
L134.9003 122.7858
" />
<path d="M134.9003 123.1668
L134.9955 122.9763
" />
<path d="M134.9955 122.9763
L135.0908 122.8811
" />
<path d="M135.0908 122.8811
L135.2812 122.7858
" />
<path d="M135.2812 122.7858
L135.4717 122.7858
" />
<path d="M136.1384 124.1192
L136.1384 122.7858
" />
<path d="M136.1384 122.1192
L136.0431 122.2144
" />
<path d="M136.0431 122.2144
L136.1384 122.3096
" />
<path d="M136.1384 122.3096
L136.2336 122.2144
" />
<path d="M136.2336 122.2144
L136.1384 122.1192
" />
<path d="M136.1384 122.1192
L136.1384 122.3096
" />
<path d="M137.3765 124.1192
L137.1860 124.0239
" />
<path d="M137.1860 124.0239
L137.0908 123.8334
" />
<path d="M137.0908 123.8334
L137.0908 122.1192
" />
<path d="M138.4241 124.1192
L138.2336 124.0239
" />
<path d="M138.2336 124.0239
L138.1384 123.8334
" />
<path d="M138.1384 123.8334
L138.1384 122.1192
" />
<path d="M140.7098 124.1192
L140.7098 122.1192
" />
<path d="M140.7098 122.1192
L141.3765 123.5477
" />
<path d="M141.3765 123.5477
L142.0431 122.1192
" />
<path d="M142.0431 122.1192
L142.0431 124.1192
" />
<path d="M143.8527 124.1192
L143.8527 123.0715
" />
<path d="M143.8527 123.0715
L143.7574 122.8811
" />
<path d="M143.7574 122.8811
L143.5670 122.7858
" />
<path d="M143.5670 122.7858
L143.1860 122.7858
" />
<path d="M143.1860 122.7858
L142.9955 122.8811
" />
<path d="M143.8527 124.0239
L143.6622 124.1192
" />
<path d="M143.6622 124.1192
L143.1860 124.1192
" />
<path d="M143.1860 124.1192
L142.9955 124.0239
" />
<path d="M142.9955 124.0239
L142.9003 123.8334
" />
<path d="M142.9003 123.8334
L142.9003 123.6430
" />
<path d="M142.9003 123.6430
L142.9955 123.4525
" />
<path d="M142.9955 123.4525
L143.1860 123.3573
" />
<path d="M143.1860 123.3573
L143.6622 123.3573
" />
<path d="M143.6622 123.3573
L143.8527 123.2620
" />
<path d="M144.8051 122.7858
L144.8051 124.7858
" />
<path d="M144.8051 122.8811
L144.9955 122.7858
" />
<path d="M144.9955 122.7858
L145.3765 122.7858
" />
<path d="M145.3765 122.7858
L145.5670 122.8811
" />
<path d="M145.5670 122.8811
L145.6622 122.9763
" />
<path d="M145.6622 122.9763
L145.7574 123.1668
" />
<path d="M145.7574 123.1668
L145.7574 123.7382
" />
<path d="M145.7574 123.7382
L145.6622 123.9287
" />
<path d="M145.6622 123.9287
L145.5670 124.0239
" />
<path d="M145.5670 124.0239
L145.3765 124.1192
" />
<path d="M145.3765 124.1192
L144.9955 124.1192
" />
<path d="M144.9955 124.1192
L144.8051 124.0239
" />
<path d="M146.6146 123.9287
L146.7098 124.0239
" />
<path d="M146.7098 124.0239
L146.6146 124.1192
" />
<path d="M146.6146 124.1192
L146.5193 124.0239
" />
<path d="M146.5193 124.0239
L146.6146 123.9287
" />
<path d="M146.6146 123.9287
L146.6146 124.1192
" />
<path d="M146.6146 122.8811
L146.7098 122.9763
" />
<path d="M146.7098 122.9763
L146.6146 123.0715
" />
<path d="M146.6146 123.0715
L146.5193 122.9763
" />
<path d="M146.5193 122.9763
L146.6146 122.8811
" />
<path d="M146.6146 122.8811
L146.6146 123.0715
" />
</g></g>
<g style="fill:none; 
stroke:#000000; stroke-width:0.1206; stroke-opacity:1; 
stroke-linecap:round; stroke-linejoin:round;">
<path d="M129.8102 127.1631
L130.2925 127.6455
" />
<path d="M130.2925 127.1631
L129.8102 127.6455
" />
</g>
<g style="fill:none; 
stroke:#000000; stroke-width:0.2000; stroke-opacity:1; 
stroke-linecap:round; stroke-linejoin:round;">
<text x="132.2925" y="128.4043"
textLength="48.7714" font-size="2.6667" lengthAdjust="spacingAndGlyphs"
text-anchor="start" opacity="0" stroke-opacity="0">0.400mm / 0.0157" (98 holes)</text>
<g class="stroked-text"><desc>0.400mm / 0.0157" (98 holes)</desc>
<path d="M133.2812 126.3192
L133.4717 126.3192
" />
<path d="M133.4717 126.3192
L133.6622 126.4144
" />
<path d="M133.6622 126.4144
L133.7574 126.5096
" />
<path d="M133.7574 126.5096
L133.8527 126.7001
" />
<path d="M133.8527 126.7001
L133.9479 127.0811
" />
<path d="M133.9479 127.0811
L133.9479 127.5573
" />
<path d="M133.9479 127.5573
L133.8527 127.9382
" />
<path d="M133.8527 127.9382
L133.7574 128.1287
" />
<path d="M133.7574 128.1287
L133.6622 128.2239
" />
<path d="M133.6622 128.2239
L133.4717 128.3192
" />
<path d="M133.4717 128.3192
L133.2812 128.3192
" />
<path d="M133.2812 128.3192
L133.0908 128.2239
" />
<path d="M133.0908 128.2239
L132.9955 128.1287
" />
<path d="M132.9955 128.1287
L132.9003 127.9382
" />
<path d="M132.9003 127.9382
L132.8051 127.5573
" />
<path d="M132.8051 127.5573
L132.8051 127.0811
" />
<path d="M132.8051 127.0811
L132.9003 126.7001
" />
<path d="M132.9003 126.7001
L132.9955 126.5096
" />
<path d="M132.9955 126.5096
L133.0908 126.4144
" />
<path d="M133.0908 126.4144
L133.2812 126.3192
" />
<path d="M134.8051 128.1287
L134.9003 128.2239
" />
<path d="M134.9003 128.2239
L134.8051 128.3192
" />
<path d="M134.8051 128.3192
L134.7098 128.2239
" />
<path d="M134.7098 128.2239
L134.8051 128.1287
" />
<path d="M134.8051 128.1287
L134.8051 128.3192
" />
<path d="M136.6146 126.9858
L136.6146 128.3192
" />
<path d="M136.1384 126.2239
L135.6622 127.6525
" />
<path d="M135.6622 127.6525
L136.9003 127.6525
" />
<path d="M138.0431 126.3192
L138.2336 126.3192
" />
<path d="M138.2336 126.3192
L138.4241 126.4144
" />
<path d="M138.4241 126.4144
L138.5193 126.5096
" />
<path d="M138.5193 126.5096
L138.6146 126.7001
" />
<path d="M138.6146 126.7001
L138.7098 127.0811
" />
<path d="M138.7098 127.0811
L138.7098 127.5573
" />
<path d="M138.7098 127.5573
L138.6146 127.9382
" />
<path d="M138.6146 127.9382
L138.5193 128.1287
" />
<path d="M138.5193 128.1287
L138.4241 128.2239
" />
<path d="M138.4241 128.2239
L138.2336 128.3192
" />
<path d="M138.2336 128.3192
L138.0431 128.3192
" />
<path d="M138.0431 128.3192
L137.8527 128.2239
" />
<path d="M137.8527 128.2239
L137.7574 128.1287
" />
<path d="M137.7574 128.1287
L137.6622 127.9382
" />
<path d="M137.6622 127.9382
L137.5670 127.5573
" />
<path d="M137.5670 127.5573
L137.5670 127.0811
" />
<path d="M137.5670 127.0811
L137.6622 126.7001
" />
<path d="M137.6622 126.7001
L137.7574 126.5096
" />
<path d="M137.7574 126.5096
L137.8527 126.4144
" />
<path d="M137.8527 126.4144
L138.0431 126.3192
" />
<path d="M139.9479 126.3192
L140.1384 126.3192
" />
<path d="M140.1384 126.3192
L140.3289 126.4144
" />
<path d="M140.3289 126.4144
L140.4241 126.5096
" />
<path d="M140.4241 126.5096
L140.5193 126.7001
" />
<path d="M140.5193 126.7001
L140.6146 127.0811
" />
<path d="M140.6146 127.0811
L140.6146 127.5573
" />
<path d="M140.6146 127.5573
L140.5193 127.9382
" />
<path d="M140.5193 127.9382
L140.4241 128.1287
" />
<path d="M140.4241 128.1287
L140.3289 128.2239
" />
<path d="M140.3289 128.2239
L140.1384 128.3192
" />
<path d="M140.1384 128.3192
L139.9479 128.3192
" />
<path d="M139.9479 128.3192
L139.7574 128.2239
" />
<path d="M139.7574 128.2239
L139.6622 128.1287
" />
<path d="M139.6622 128.1287
L139.5670 127.9382
" />
<path d="M139.5670 127.9382
L139.4717 127.5573
" />
<path d="M139.4717 127.5573
L139.4717 127.0811
" />
<path d="M139.4717 127.0811
L139.5670 126.7001
" />
<path d="M139.5670 126.7001
L139.6622 126.5096
" />
<path d="M139.6622 126.5096
L139.7574 126.4144
" />
<path d="M139.7574 126.4144
L139.9479 126.3192
" />
<path d="M141.4717 128.3192
L141.4717 126.9858
" />
<path d="M141.4717 127.1763
L141.5670 127.0811
" />
<path d="M141.5670 127.0811
L141.7574 126.9858
" />
<path d="M141.7574 126.9858
L142.0431 126.9858
" />
<path d="M142.0431 126.9858
L142.2336 127.0811
" />
<path d="M142.2336 127.0811
L142.3289 127.2715
" />
<path d="M142.3289 127.2715
L142.3289 128.3192
" />
<path d="M142.3289 127.2715
L142.4241 127.0811
" />
<path d="M142.4241 127.0811
L142.6146 126.9858
" />
<path d="M142.6146 126.9858
L142.9003 126.9858
" />
<path d="M142.9003 126.9858
L143.0908 127.0811
" />
<path d="M143.0908 127.0811
L143.1860 127.2715
" />
<path d="M143.1860 127.2715
L143.1860 128.3192
" />
<path d="M144.1384 128.3192
L144.1384 126.9858
" />
<path d="M144.1384 127.1763
L144.2336 127.0811
" />
<path d="M144.2336 127.0811
L144.4241 126.9858
" />
<path d="M144.4241 126.9858
L144.7098 126.9858
" />
<path d="M144.7098 126.9858
L144.9003 127.0811
" />
<path d="M144.9003 127.0811
L144.9955 127.2715
" />
<path d="M144.9955 127.2715
L144.9955 128.3192
" />
<path d="M144.9955 127.2715
L145.0908 127.0811
" />
<path d="M145.0908 127.0811
L145.2812 126.9858
" />
<path d="M145.2812 126.9858
L145.5670 126.9858
" />
<path d="M145.5670 126.9858
L145.7574 127.0811
" />
<path d="M145.7574 127.0811
L145.8527 127.2715
" />
<path d="M145.8527 127.2715
L145.8527 128.3192
" />
<path d="M149.7574 126.2239
L148.0431 128.7953
" />
<path d="M152.3289 126.3192
L152.5193 126.3192
" />
<path d="M152.5193 126.3192
L152.7098 126.4144
" />
<path d="M152.7098 126.4144
L152.8051 126.5096
" />
<path d="M152.8051 126.5096
L152.9003 126.7001
" />
<path d="M152.9003 126.7001
L152.9955 127.0811
" />
<path d="M152.9955 127.0811
L152.9955 127.5573
" />
<path d="M152.9955 127.5573
L152.9003 127.9382
" />
<path d="M152.9003 127.9382
L152.8051 128.1287
" />
<path d="M152.8051 128.1287
L152.7098 128.2239
" />
<path d="M152.7098 128.2239
L152.5193 128.3192
" />
<path d="M152.5193 128.3192
L152.3289 128.3192
" />
<path d="M152.3289 128.3192
L152.1384 128.2239
" />
<path d="M152.1384 128.2239
L152.0431 128.1287
" />
<path d="M152.0431 128.1287
L151.9479 127.9382
" />
<path d="M151.9479 127.9382
L151.8527 127.5573
" />
<path d="M151.8527 127.5573
L151.8527 127.0811
" />
<path d="M151.8527 127.0811
L151.9479 126.7001
" />
<path d="M151.9479 126.7001
L152.0431 126.5096
" />
<path d="M152.0431 126.5096
L152.1384 126.4144
" />
<path d="M152.1384 126.4144
L152.3289 126.3192
" />
<path d="M153.8527 128.1287
L153.9479 128.2239
" />
<path d="M153.9479 128.2239
L153.8527 128.3192
" />
<path d="M153.8527 128.3192
L153.7574 128.2239
" />
<path d="M153.7574 128.2239
L153.8527 128.1287
" />
<path d="M153.8527 128.1287
L153.8527 128.3192
" />
<path d="M155.1860 126.3192
L155.3765 126.3192
" />
<path d="M155.3765 126.3192
L155.5670 126.4144
" />
<path d="M155.5670 126.4144
L155.6622 126.5096
" />
<path d="M155.6622 126.5096
L155.7574 126.7001
" />
<path d="M155.7574 126.7001
L155.8527 127.0811
" />
<path d="M155.8527 127.0811
L155.8527 127.5573
" />
<path d="M155.8527 127.5573
L155.7574 127.9382
" />
<path d="M155.7574 127.9382
L155.6622 128.1287
" />
<path d="M155.6622 128.1287
L155.5670 128.2239
" />
<path d="M155.5670 128.2239
L155.3765 128.3192
" />
<path d="M155.3765 128.3192
L155.1860 128.3192
" />
<path d="M155.1860 128.3192
L154.9955 128.2239
" />
<path d="M154.9955 128.2239
L154.9003 128.1287
" />
<path d="M154.9003 128.1287
L154.8051 127.9382
" />
<path d="M154.8051 127.9382
L154.7098 127.5573
" />
<path d="M154.7098 127.5573
L154.7098 127.0811
" />
<path d="M154.7098 127.0811
L154.8051 126.7001
" />
<path d="M154.8051 126.7001
L154.9003 126.5096
" />
<path d="M154.9003 126.5096
L154.9955 126.4144
" />
<path d="M154.9955 126.4144
L155.1860 126.3192
" />
<path d="M157.7574 128.3192
L156.6146 128.3192
" />
<path d="M157.1860 128.3192
L157.1860 126.3192
" />
<path d="M157.1860 126.3192
L156.9955 126.6049
" />
<path d="M156.9955 126.6049
L156.8051 126.7953
" />
<path d="M156.8051 126.7953
L156.6146 126.8906
" />
<path d="M159.5670 126.3192
L158.6146 126.3192
" />
<path d="M158.6146 126.3192
L158.5193 127.2715
" />
<path d="M158.5193 127.2715
L158.6146 127.1763
" />
<path d="M158.6146 127.1763
L158.8051 127.0811
" />
<path d="M158.8051 127.0811
L159.2812 127.0811
" />
<path d="M159.2812 127.0811
L159.4717 127.1763
" />
<path d="M159.4717 127.1763
L159.5670 127.2715
" />
<path d="M159.5670 127.2715
L159.6622 127.4620
" />
<path d="M159.6622 127.4620
L159.6622 127.9382
" />
<path d="M159.6622 127.9382
L159.5670 128.1287
" />
<path d="M159.5670 128.1287
L159.4717 128.2239
" />
<path d="M159.4717 128.2239
L159.2812 128.3192
" />
<path d="M159.2812 128.3192
L158.8051 128.3192
" />
<path d="M158.8051 128.3192
L158.6146 128.2239
" />
<path d="M158.6146 128.2239
L158.5193 128.1287
" />
<path d="M160.3289 126.3192
L161.6622 126.3192
" />
<path d="M161.6622 126.3192
L160.8051 128.3192
" />
<path d="M162.3289 126.3192
L162.3289 126.7001
" />
<path d="M163.0908 126.3192
L163.0908 126.7001
" />
<path d="M166.0431 129.0811
L165.9479 128.9858
" />
<path d="M165.9479 128.9858
L165.7574 128.7001
" />
<path d="M165.7574 128.7001
L165.6622 128.5096
" />
<path d="M165.6622 128.5096
L165.5670 128.2239
" />
<path d="M165.5670 128.2239
L165.4717 127.7477
" />
<path d="M165.4717 127.7477
L165.4717 127.3668
" />
<path d="M165.4717 127.3668
L165.5670 126.8906
" />
<path d="M165.5670 126.8906
L165.6622 126.6049
" />
<path d="M165.6622 126.6049
L165.7574 126.4144
" />
<path d="M165.7574 126.4144
L165.9479 126.1287
" />
<path d="M165.9479 126.1287
L166.0431 126.0334
" />
<path d="M166.9003 128.3192
L167.2812 128.3192
" />
<path d="M167.2812 128.3192
L167.4717 128.2239
" />
<path d="M167.4717 128.2239
L167.5670 128.1287
" />
<path d="M167.5670 128.1287
L167.7574 127.8430
" />
<path d="M167.7574 127.8430
L167.8527 127.4620
" />
<path d="M167.8527 127.4620
L167.8527 126.7001
" />
<path d="M167.8527 126.7001
L167.7574 126.5096
" />
<path d="M167.7574 126.5096
L167.6622 126.4144
" />
<path d="M167.6622 126.4144
L167.4717 126.3192
" />
<path d="M167.4717 126.3192
L167.0908 126.3192
" />
<path d="M167.0908 126.3192
L166.9003 126.4144
" />
<path d="M166.9003 126.4144
L166.8051 126.5096
" />
<path d="M166.8051 126.5096
L166.7098 126.7001
" />
<path d="M166.7098 126.7001
L166.7098 127.1763
" />
<path d="M166.7098 127.1763
L166.8051 127.3668
" />
<path d="M166.8051 127.3668
L166.9003 127.4620
" />
<path d="M166.9003 127.4620
L167.0908 127.5573
" />
<path d="M167.0908 127.5573
L167.4717 127.5573
" />
<path d="M167.4717 127.5573
L167.6622 127.4620
" />
<path d="M167.6622 127.4620
L167.7574 127.3668
" />
<path d="M167.7574 127.3668
L167.8527 127.1763
" />
<path d="M168.9955 127.1763
L168.8051 127.0811
" />
<path d="M168.8051 127.0811
L168.7098 126.9858
" />
<path d="M168.7098 126.9858
L168.6146 126.7953
" />
<path d="M168.6146 126.7953
L168.6146 126.7001
" />
<path d="M168.6146 126.7001
L168.7098 126.5096
" />
<path d="M168.7098 126.5096
L168.8051 126.4144
" />
<path d="M168.8051 126.4144
L168.9955 126.3192
" />
<path d="M168.9955 126.3192
L169.3765 126.3192
" />
<path d="M169.3765 126.3192
L169.5670 126.4144
" />
<path d="M169.5670 126.4144
L169.6622 126.5096
" />
<path d="M169.6622 126.5096
L169.7574 126.7001
" />
<path d="M169.7574 126.7001
L169.7574 126.7953
" />
<path d="M169.7574 126.7953
L169.6622 126.9858
" />
<path d="M169.6622 126.9858
L169.5670 127.0811
" />
<path d="M169.5670 127.0811
L169.3765 127.1763
" />
<path d="M169.3765 127.1763
L168.9955 127.1763
" />
<path d="M168.9955 127.1763
L168.8051 127.2715
" />
<path d="M168.8051 127.2715
L168.7098 127.3668
" />
<path d="M168.7098 127.3668
L168.6146 127.5573
" />
<path d="M168.6146 127.5573
L168.6146 127.9382
" />
<path d="M168.6146 127.9382
L168.7098 128.1287
" />
<path d="M168.7098 128.1287
L168.8051 128.2239
" />
<path d="M168.8051 128.2239
L168.9955 128.3192
" />
<path d="M168.9955 128.3192
L169.3765 128.3192
" />
<path d="M169.3765 128.3192
L169.5670 128.2239
" />
<path d="M169.5670 128.2239
L169.6622 128.1287
" />
<path d="M169.6622 128.1287
L169.7574 127.9382
" />
<path d="M169.7574 127.9382
L169.7574 127.5573
" />
<path d="M169.7574 127.5573
L169.6622 127.3668
" />
<path d="M169.6622 127.3668
L169.5670 127.2715
" />
<path d="M169.5670 127.2715
L169.3765 127.1763
" />
<path d="M172.1384 128.3192
L172.1384 126.3192
" />
<path d="M172.9955 128.3192
L172.9955 127.2715
" />
<path d="M172.9955 127.2715
L172.9003 127.0811
" />
<path d="M172.9003 127.0811
L172.7098 126.9858
" />
<path d="M172.7098 126.9858
L172.4241 126.9858
" />
<path d="M172.4241 126.9858
L172.2336 127.0811
" />
<path d="M172.2336 127.0811
L172.1384 127.1763
" />
<path d="M174.2336 128.3192
L174.0431 128.2239
" />
<path d="M174.0431 128.2239
L173.9479 128.1287
" />
<path d="M173.9479 128.1287
L173.8527 127.9382
" />
<path d="M173.8527 127.9382
L173.8527 127.3668
" />
<path d="M173.8527 127.3668
L173.9479 127.1763
" />
<path d="M173.9479 127.1763
L174.0431 127.0811
" />
<path d="M174.0431 127.0811
L174.2336 126.9858
" />
<path d="M174.2336 126.9858
L174.5193 126.9858
" />
<path d="M174.5193 126.9858
L174.7098 127.0811
" />
<path d="M174.7098 127.0811
L174.8051 127.1763
" />
<path d="M174.8051 127.1763
L174.9003 127.3668
" />
<path d="M174.9003 127.3668
L174.9003 127.9382
" />
<path d="M174.9003 127.9382
L174.8051 128.1287
" />
<path d="M174.8051 128.1287
L174.7098 128.2239
" />
<path d="M174.7098 128.2239
L174.5193 128.3192
" />
<path d="M174.5193 128.3192
L174.2336 128.3192
" />
<path d="M176.0431 128.3192
L175.8527 128.2239
" />
<path d="M175.8527 128.2239
L175.7574 128.0334
" />
<path d="M175.7574 128.0334
L175.7574 126.3192
" />
<path d="M177.5670 128.2239
L177.3765 128.3192
" />
<path d="M177.3765 128.3192
L176.9955 128.3192
" />
<path d="M176.9955 128.3192
L176.8051 128.2239
" />
<path d="M176.8051 128.2239
L176.7098 128.0334
" />
<path d="M176.7098 128.0334
L176.7098 127.2715
" />
<path d="M176.7098 127.2715
L176.8051 127.0811
" />
<path d="M176.8051 127.0811
L176.9955 126.9858
" />
<path d="M176.9955 126.9858
L177.3765 126.9858
" />
<path d="M177.3765 126.9858
L177.5670 127.0811
" />
<path d="M177.5670 127.0811
L177.6622 127.2715
" />
<path d="M177.6622 127.2715
L177.6622 127.4620
" />
<path d="M177.6622 127.4620
L176.7098 127.6525
" />
<path d="M178.4241 128.2239
L178.6146 128.3192
" />
<path d="M178.6146 128.3192
L178.9955 128.3192
" />
<path d="M178.9955 128.3192
L179.1860 128.2239
" />
<path d="M179.1860 128.2239
L179.2812 128.0334
" />
<path d="M179.2812 128.0334
L179.2812 127.9382
" />
<path d="M179.2812 127.9382
L179.1860 127.7477
" />
<path d="M179.1860 127.7477
L178.9955 127.6525
" />
<path d="M178.9955 127.6525
L178.7098 127.6525
" />
<path d="M178.7098 127.6525
L178.5193 127.5573
" />
<path d="M178.5193 127.5573
L178.4241 127.3668
" />
<path d="M178.4241 127.3668
L178.4241 127.2715
" />
<path d="M178.4241 127.2715
L178.5193 127.0811
" />
<path d="M178.5193 127.0811
L178.7098 126.9858
" />
<path d="M178.7098 126.9858
L178.9955 126.9858
" />
<path d="M178.9955 126.9858
L179.1860 127.0811
" />
<path d="M179.9479 129.0811
L180.0431 128.9858
" />
<path d="M180.0431 128.9858
L180.2336 128.7001
" />
<path d="M180.2336 128.7001
L180.3289 128.5096
" />
<path d="M180.3289 128.5096
L180.4241 128.2239
" />
<path d="M180.4241 128.2239
L180.5193 127.7477
" />
<path d="M180.5193 127.7477
L180.5193 127.3668
" />
<path d="M180.5193 127.3668
L180.4241 126.8906
" />
<path d="M180.4241 126.8906
L180.3289 126.6049
" />
<path d="M180.3289 126.6049
L180.2336 126.4144
" />
<path d="M180.2336 126.4144
L180.0431 126.1287
" />
<path d="M180.0431 126.1287
L179.9479 126.0334
" />
</g></g>
<g style="fill:none; 
stroke:#000000; stroke-width:0.2000; stroke-opacity:1; 
stroke-linecap:round; stroke-linejoin:round;">
<circle cx="129.2925" cy="130.0443" r="1.0000" /> 
</g>
<g style="fill:none; 
stroke:#000000; stroke-width:0.2000; stroke-opacity:1; 
stroke-linecap:round; stroke-linejoin:round;">
<text x="132.2925" y="131.0443"
textLength="46.8667" font-size="2.6667" lengthAdjust="spacingAndGlyphs"
text-anchor="start" opacity="0" stroke-opacity="0">2.200mm / 0.0866" (4 holes)</text>
<g class="stroked-text"><desc>2.200mm / 0.0866" (4 holes)</desc>
<path d="M132.8051 129.1496
L132.9003 129.0544
" />
<path d="M132.9003 129.0544
L133.0908 128.9592
" />
<path d="M133.0908 128.9592
L133.5670 128.9592
" />
<path d="M133.5670 128.9592
L133.7574 129.0544
" />
<path d="M133.7574 129.0544
L133.8527 129.1496
" />
<path d="M133.8527 129.1496
L133.9479 129.3401
" />
<path d="M133.9479 129.3401
L133.9479 129.5306
" />
<path d="M133.9479 129.5306
L133.8527 129.8163
" />
<path d="M133.8527 129.8163
L132.7098 130.9592
" />
<path d="M132.7098 130.9592
L133.9479 130.9592
" />
<path d="M134.8051 130.7687
L134.9003 130.8639
" />
<path d="M134.9003 130.8639
L134.8051 130.9592
" />
<path d="M134.8051 130.9592
L134.7098 130.8639
" />
<path d="M134.7098 130.8639
L134.8051 130.7687
" />
<path d="M134.8051 130.7687
L134.8051 130.9592
" />
<path d="M135.6622 129.1496
L135.7574 129.0544
" />
<path d="M135.7574 129.0544
L135.9479 128.9592
" />
<path d="M135.9479 128.9592
L136.4241 128.9592
" />
<path d="M136.4241 128.9592
L136.6146 129.0544
" />
<path d="M136.6146 129.0544
L136.7098 129.1496
" />
<path d="M136.7098 129.1496
L136.8051 129.3401
" />
<path d="M136.8051 129.3401
L136.8051 129.5306
" />
<path d="M136.8051 129.5306
L136.7098 129.8163
" />
<path d="M136.7098 129.8163
L135.5670 130.9592
" />
<path d="M135.5670 130.9592
L136.8051 130.9592
" />
<path d="M138.0431 128.9592
L138.2336 128.9592
" />
<path d="M138.2336 128.9592
L138.4241 129.0544
" />
<path d="M138.4241 129.0544
L138.5193 129.1496
" />
<path d="M138.5193 129.1496
L138.6146 129.3401
" />
<path d="M138.6146 129.3401
L138.7098 129.7211
" />
<path d="M138.7098 129.7211
L138.7098 130.1973
" />
<path d="M138.7098 130.1973
L138.6146 130.5782
" />
<path d="M138.6146 130.5782
L138.5193 130.7687
" />
<path d="M138.5193 130.7687
L138.4241 130.8639
" />
<path d="M138.4241 130.8639
L138.2336 130.9592
" />
<path d="M138.2336 130.9592
L138.0431 130.9592
" />
<path d="M138.0431 130.9592
L137.8527 130.8639
" />
<path d="M137.8527 130.8639
L137.7574 130.7687
" />
<path d="M137.7574 130.7687
L137.6622 130.5782
" />
<path d="M137.6622 130.5782
L137.5670 130.1973
" />
<path d="M137.5670 130.1973
L137.5670 129.7211
" />
<path d="M137.5670 129.7211
L137.6622 129.3401
" />
<path d="M137.6622 129.3401
L137.7574 129.1496
" />
<path d="M137.7574 129.1496
L137.8527 129.0544
" />
<path d="M137.8527 129.0544
L138.0431 128.9592
" />
<path d="M139.9479 128.9592
L140.1384 128.9592
" />
<path d="M140.1384 128.9592
L140.3289 129.0544
" />
<path d="M140.3289 129.0544
L140.4241 129.1496
" />
<path d="M140.4241 129.1496
L140.5193 129.3401
" />
<path d="M140.5193 129.3401
L140.6146 129.7211
" />
<path d="M140.6146 129.7211
L140.6146 130.1973
" />
<path d="M140.6146 130.1973
L140.5193 130.5782
" />
<path d="M140.5193 130.5782
L140.4241 130.7687
" />
<path d="M140.4241 130.7687
L140.3289 130.8639
" />
<path d="M140.3289 130.8639
L140.1384 130.9592
" />
<path d="M140.1384 130.9592
L139.9479 130.9592
" />
<path d="M139.9479 130.9592
L139.7574 130.8639
" />
<path d="M139.7574 130.8639
L139.6622 130.7687
" />
<path d="M139.6622 130.7687
L139.5670 130.5782
" />
<path d="M139.5670 130.5782
L139.4717 130.1973
" />
<path d="M139.4717 130.1973
L139.4717 129.7211
" />
<path d="M139.4717 129.7211
L139.5670 129.3401
" />
<path d="M139.5670 129.3401
L139.6622 129.1496
" />
<path d="M139.6622 129.1496
L139.7574 129.0544
" />
<path d="M139.7574 129.0544
L139.9479 128.9592
" />
<path d="M141.4717 130.9592
L141.4717 129.6258
" />
<path d="M141.4717 129.8163
L141.5670 129.7211
" />
<path d="M141.5670 129.7211
L141.7574 129.6258
" />
<path d="M141.7574 129.6258
L142.0431 129.6258
" />
<path d="M142.0431 129.6258
L142.2336 129.7211
" />
<path d="M142.2336 129.7211
L142.3289 129.9115
" />
<path d="M142.3289 129.9115
L142.3289 130.9592
" />
<path d="M142.3289 129.9115
L142.4241 129.7211
" />
<path d="M142.4241 129.7211
L142.6146 129.6258
" />
<path d="M142.6146 129.6258
L142.9003 129.6258
" />
<path d="M142.9003 129.6258
L143.0908 129.7211
" />
<path d="M143.0908 129.7211
L143.1860 129.9115
" />
<path d="M143.1860 129.9115
L143.1860 130.9592
" />
<path d="M144.1384 130.9592
L144.1384 129.6258
" />
<path d="M144.1384 129.8163
L144.2336 129.7211
" />
<path d="M144.2336 129.7211
L144.4241 129.6258
" />
<path d="M144.4241 129.6258
L144.7098 129.6258
" />
<path d="M144.7098 129.6258
L144.9003 129.7211
" />
<path d="M144.9003 129.7211
L144.9955 129.9115
" />
<path d="M144.9955 129.9115
L144.9955 130.9592
" />
<path d="M144.9955 129.9115
L145.0908 129.7211
" />
<path d="M145.0908 129.7211
L145.2812 129.6258
" />
<path d="M145.2812 129.6258
L145.5670 129.6258
" />
<path d="M145.5670 129.6258
L145.7574 129.7211
" />
<path d="M145.7574 129.7211
L145.8527 129.9115
" />
<path d="M145.8527 129.9115
L145.8527 130.9592
" />
<path d="M149.7574 128.8639
L148.0431 131.4353
" />
<path d="M152.3289 128.9592
L152.5193 128.9592
" />
<path d="M152.5193 128.9592
L152.7098 129.0544
" />
<path d="M152.7098 129.0544
L152.8051 129.1496
" />
<path d="M152.8051 129.1496
L152.9003 129.3401
" />
<path d="M152.9003 129.3401
L152.9955 129.7211
" />
<path d="M152.9955 129.7211
L152.9955 130.1973
" />
<path d="M152.9955 130.1973
L152.9003 130.5782
" />
<path d="M152.9003 130.5782
L152.8051 130.7687
" />
<path d="M152.8051 130.7687
L152.7098 130.8639
" />
<path d="M152.7098 130.8639
L152.5193 130.9592
" />
<path d="M152.5193 130.9592
L152.3289 130.9592
" />
<path d="M152.3289 130.9592
L152.1384 130.8639
" />
<path d="M152.1384 130.8639
L152.0431 130.7687
" />
<path d="M152.0431 130.7687
L151.9479 130.5782
" />
<path d="M151.9479 130.5782
L151.8527 130.1973
" />
<path d="M151.8527 130.1973
L151.8527 129.7211
" />
<path d="M151.8527 129.7211
L151.9479 129.3401
" />
<path d="M151.9479 129.3401
L152.0431 129.1496
" />
<path d="M152.0431 129.1496
L152.1384 129.0544
" />
<path d="M152.1384 129.0544
L152.3289 128.9592
" />
<path d="M153.8527 130.7687
L153.9479 130.8639
" />
<path d="M153.9479 130.8639
L153.8527 130.9592
" />
<path d="M153.8527 130.9592
L153.7574 130.8639
" />
<path d="M153.7574 130.8639
L153.8527 130.7687
" />
<path d="M153.8527 130.7687
L153.8527 130.9592
" />
<path d="M155.1860 128.9592
L155.3765 128.9592
" />
<path d="M155.3765 128.9592
L155.5670 129.0544
" />
<path d="M155.5670 129.0544
L155.6622 129.1496
" />
<path d="M155.6622 129.1496
L155.7574 129.3401
" />
<path d="M155.7574 129.3401
L155.8527 129.7211
" />
<path d="M155.8527 129.7211
L155.8527 130.1973
" />
<path d="M155.8527 130.1973
L155.7574 130.5782
" />
<path d="M155.7574 130.5782
L155.6622 130.7687
" />
<path d="M155.6622 130.7687
L155.5670 130.8639
" />
<path d="M155.5670 130.8639
L155.3765 130.9592
" />
<path d="M155.3765 130.9592
L155.1860 130.9592
" />
<path d="M155.1860 130.9592
L154.9955 130.8639
" />
<path d="M154.9955 130.8639
L154.9003 130.7687
" />
<path d="M154.9003 130.7687
L154.8051 130.5782
" />
<path d="M154.8051 130.5782
L154.7098 130.1973
" />
<path d="M154.7098 130.1973
L154.7098 129.7211
" />
<path d="M154.7098 129.7211
L154.8051 129.3401
" />
<path d="M154.8051 129.3401
L154.9003 129.1496
" />
<path d="M154.9003 129.1496
L154.9955 129.0544
" />
<path d="M154.9955 129.0544
L155.1860 128.9592
" />
<path d="M156.9955 129.8163
L156.8051 129.7211
" />
<path d="M156.8051 129.7211
L156.7098 129.6258
" />
<path d="M156.7098 129.6258
L156.6146 129.4353
" />
<path d="M156.6146 129.4353
L156.6146 129.3401
" />
<path d="M156.6146 129.3401
L156.7098 129.1496
" />
<path d="M156.7098 129.1496
L156.8051 129.0544
" />
<path d="M156.8051 129.0544
L156.9955 128.9592
" />
<path d="M156.9955 128.9592
L157.3765 128.9592
" />
<path d="M157.3765 128.9592
L157.5670 129.0544
" />
<path d="M157.5670 129.0544
L157.6622 129.1496
" />
<path d="M157.6622 129.1496
L157.7574 129.3401
" />
<path d="M157.7574 129.3401
L157.7574 129.4353
" />
<path d="M157.7574 129.4353
L157.6622 129.6258
" />
<path d="M157.6622 129.6258
L157.5670 129.7211
" />
<path d="M157.5670 129.7211
L157.3765 129.8163
" />
<path d="M157.3765 129.8163
L156.9955 129.8163
" />
<path d="M156.9955 129.8163
L156.8051 129.9115
" />
<path d="M156.8051 129.9115
L156.7098 130.0068
" />
<path d="M156.7098 130.0068
L156.6146 130.1973
" />
<path d="M156.6146 130.1973
L156.6146 130.5782
" />
<path d="M156.6146 130.5782
L156.7098 130.7687
" />
<path d="M156.7098 130.7687
L156.8051 130.8639
" />
<path d="M156.8051 130.8639
L156.9955 130.9592
" />
<path d="M156.9955 130.9592
L157.3765 130.9592
" />
<path d="M157.3765 130.9592
L157.5670 130.8639
" />
<path d="M157.5670 130.8639
L157.6622 130.7687
" />
<path d="M157.6622 130.7687
L157.7574 130.5782
" />
<path d="M157.7574 130.5782
L157.7574 130.1973
" />
<path d="M157.7574 130.1973
L157.6622 130.0068
" />
<path d="M157.6622 130.0068
L157.5670 129.9115
" />
<path d="M157.5670 129.9115
L157.3765 129.8163
" />
<path d="M159.4717 128.9592
L159.0908 128.9592
" />
<path d="M159.0908 128.9592
L158.9003 129.0544
" />
<path d="M158.9003 129.0544
L158.8051 129.1496
" />
<path d="M158.8051 129.1496
L158.6146 129.4353
" />
<path d="M158.6146 129.4353
L158.5193 129.8163
" />
<path d="M158.5193 129.8163
L158.5193 130.5782
" />
<path d="M158.5193 130.5782
L158.6146 130.7687
" />
<path d="M158.6146 130.7687
L158.7098 130.8639
" />
<path d="M158.7098 130.8639
L158.9003 130.9592
" />
<path d="M158.9003 130.9592
L159.2812 130.9592
" />
<path d="M159.2812 130.9592
L159.4717 130.8639
" />
<path d="M159.4717 130.8639
L159.5670 130.7687
" />
<path d="M159.5670 130.7687
L159.6622 130.5782
" />
<path d="M159.6622 130.5782
L159.6622 130.1020
" />
<path d="M159.6622 130.1020
L159.5670 129.9115
" />
<path d="M159.5670 129.9115
L159.4717 129.8163
" />
<path d="M159.4717 129.8163
L159.2812 129.7211
" />
<path d="M159.2812 129.7211
L158.9003 129.7211
" />
<path d="M158.9003 129.7211
L158.7098 129.8163
" />
<path d="M158.7098 129.8163
L158.6146 129.9115
" />
<path d="M158.6146 129.9115
L158.5193 130.1020
" />
<path d="M161.3765 128.9592
L160.9955 128.9592
" />
<path d="M160.9955 128.9592
L160.8051 129.0544
" />
<path d="M160.8051 129.0544
L160.7098 129.1496
" />
<path d="M160.7098 129.1496
L160.5193 129.4353
" />
<path d="M160.5193 129.4353
L160.4241 129.8163
" />
<path d="M160.4241 129.8163
L160.4241 130.5782
" />
<path d="M160.4241 130.5782
L160.5193 130.7687
" />
<path d="M160.5193 130.7687
L160.6146 130.8639
" />
<path d="M160.6146 130.8639
L160.8051 130.9592
" />
<path d="M160.8051 130.9592
L161.1860 130.9592
" />
<path d="M161.1860 130.9592
L161.3765 130.8639
" />
<path d="M161.3765 130.8639
L161.4717 130.7687
" />
<path d="M161.4717 130.7687
L161.5670 130.5782
" />
<path d="M161.5670 130.5782
L161.5670 130.1020
" />
<path d="M161.5670 130.1020
L161.4717 129.9115
" />
<path d="M161.4717 129.9115
L161.3765 129.8163
" />
<path d="M161.3765 129.8163
L161.1860 129.7211
" />
<path d="M161.1860 129.7211
L160.8051 129.7211
" />
<path d="M160.8051 129.7211
L160.6146 129.8163
" />
<path d="M160.6146 129.8163
L160.5193 129.9115
" />
<path d="M160.5193 129.9115
L160.4241 130.1020
" />
<path d="M162.3289 128.9592
L162.3289 129.3401
" />
<path d="M163.0908 128.9592
L163.0908 129.3401
" />
<path d="M166.0431 131.7211
L165.9479 131.6258
" />
<path d="M165.9479 131.6258
L165.7574 131.3401
" />
<path d="M165.7574 131.3401
L165.6622 131.1496
" />
<path d="M165.6622 131.1496
L165.5670 130.8639
" />
<path d="M165.5670 130.8639
L165.4717 130.3877
" />
<path d="M165.4717 130.3877
L165.4717 130.0068
" />
<path d="M165.4717 130.0068
L165.5670 129.5306
" />
<path d="M165.5670 129.5306
L165.6622 129.2449
" />
<path d="M165.6622 129.2449
L165.7574 129.0544
" />
<path d="M165.7574 129.0544
L165.9479 128.7687
" />
<path d="M165.9479 128.7687
L166.0431 128.6734
" />
<path d="M167.6622 129.6258
L167.6622 130.9592
" />
<path d="M167.1860 128.8639
L166.7098 130.2925
" />
<path d="M166.7098 130.2925
L167.9479 130.2925
" />
<path d="M170.2336 130.9592
L170.2336 128.9592
" />
<path d="M171.0908 130.9592
L171.0908 129.9115
" />
<path d="M171.0908 129.9115
L170.9955 129.7211
" />
<path d="M170.9955 129.7211
L170.8051 129.6258
" />
<path d="M170.8051 129.6258
L170.5193 129.6258
" />
<path d="M170.5193 129.6258
L170.3289 129.7211
" />
<path d="M170.3289 129.7211
L170.2336 129.8163
" />
<path d="M172.3289 130.9592
L172.1384 130.8639
" />
<path d="M172.1384 130.8639
L172.0431 130.7687
" />
<path d="M172.0431 130.7687
L171.9479 130.5782
" />
<path d="M171.9479 130.5782
L171.9479 130.0068
" />
<path d="M171.9479 130.0068
L172.0431 129.8163
" />
<path d="M172.0431 129.8163
L172.1384 129.7211
" />
<path d="M172.1384 129.7211
L172.3289 129.6258
" />
<path d="M172.3289 129.6258
L172.6146 129.6258
" />
<path d="M172.6146 129.6258
L172.8051 129.7211
" />
<path d="M172.8051 129.7211
L172.9003 129.8163
" />
<path d="M172.9003 129.8163
L172.9955 130.0068
" />
<path d="M172.9955 130.0068
L172.9955 130.5782
" />
<path d="M172.9955 130.5782
L172.9003 130.7687
" />
<path d="M172.9003 130.7687
L172.8051 130.8639
" />
<path d="M172.8051 130.8639
L172.6146 130.9592
" />
<path d="M172.6146 130.9592
L172.3289 130.9592
" />
<path d="M174.1384 130.9592
L173.9479 130.8639
" />
<path d="M173.9479 130.8639
L173.8527 130.6734
" />
<path d="M173.8527 130.6734
L173.8527 128.9592
" />
<path d="M175.6622 130.8639
L175.4717 130.9592
" />
<path d="M175.4717 130.9592
L175.0908 130.9592
" />
<path d="M175.0908 130.9592
L174.9003 130.8639
" />
<path d="M174.9003 130.8639
L174.8051 130.6734
" />
<path d="M174.8051 130.6734
L174.8051 129.9115
" />
<path d="M174.8051 129.9115
L174.9003 129.7211
" />
<path d="M174.9003 129.7211
L175.0908 129.6258
" />
<path d="M175.0908 129.6258
L175.4717 129.6258
" />
<path d="M175.4717 129.6258
L175.6622 129.7211
" />
<path d="M175.6622 129.7211
L175.7574 129.9115
" />
<path d="M175.7574 129.9115
L175.7574 130.1020
" />
<path d="M175.7574 130.1020
L174.8051 130.2925
" />
<path d="M176.5193 130.8639
L176.7098 130.9592
" />
<path d="M176.7098 130.9592
L177.0908 130.9592
" />
<path d="M177.0908 130.9592
L177.2812 130.8639
" />
<path d="M177.2812 130.8639
L177.3765 130.6734
" />
<path d="M177.3765 130.6734
L177.3765 130.5782
" />
<path d="M177.3765 130.5782
L177.2812 130.3877
" />
<path d="M177.2812 130.3877
L177.0908 130.2925
" />
<path d="M177.0908 130.2925
L176.8051 130.2925
" />
<path d="M176.8051 130.2925
L176.6146 130.1973
" />
<path d="M176.6146 130.1973
L176.5193 130.0068
" />
<path d="M176.5193 130.0068
L176.5193 129.9115
" />
<path d="M176.5193 129.9115
L176.6146 129.7211
" />
<path d="M176.6146 129.7211
L176.8051 129.6258
" />
<path d="M176.8051 129.6258
L177.0908 129.6258
" />
<path d="M177.0908 129.6258
L177.2812 129.7211
" />
<path d="M178.0431 131.7211
L178.1384 131.6258
" />
<path d="M178.1384 131.6258
L178.3289 131.3401
" />
<path d="M178.3289 131.3401
L178.4241 131.1496
" />
<path d="M178.4241 131.1496
L178.5193 130.8639
" />
<path d="M178.5193 130.8639
L178.6146 130.3877
" />
<path d="M178.6146 130.3877
L178.6146 130.0068
" />
<path d="M178.6146 130.0068
L178.5193 129.5306
" />
<path d="M178.5193 129.5306
L178.4241 129.2449
" />
<path d="M178.4241 129.2449
L178.3289 129.0544
" />
<path d="M178.3289 129.0544
L178.1384 128.7687
" />
<path d="M178.1384 128.7687
L178.0431 128.6734
" />
</g></g> 
</svg>
