<?xml version="1.0" standalone="no"?>
 <!DOCTYPE svg PUBLIC "-//W3C//DTD SVG 1.1//EN" 
 "http://www.w3.org/Graphics/SVG/1.1/DTD/svg11.dtd"> 
<svg
  xmlns:svg="http://www.w3.org/2000/svg"
  xmlns="http://www.w3.org/2000/svg"
  xmlns:xlink="http://www.w3.org/1999/xlink"
  version="1.1"
  width="297.0022mm" height="210.0072mm" viewBox="0.0000 0.0000 297.0022 210.0072">
<title>SVG Image created as PMLED-10-NPTH-drl_map.svg date 2025/12/11 14:01:36 </title>
  <desc>Image generated by PCBNEW </desc>
<g style="fill:#000000; fill-opacity:1.0000;stroke:#000000; stroke-opacity:1.0000;
stroke-linecap:round; stroke-linejoin:round;"
 transform="translate(0 0) scale(1 1)">
</g>
<g style="fill:none; 
stroke:#000000; stroke-width:0.2412; stroke-opacity:1; 
stroke-linecap:round; stroke-linejoin:round;">
<path d="M166.5839 117.2661
L166.5839 8.7382
" />
<path d="M160.5598 5.1206
L162.9715 5.1206
" />
<path d="M159.3539 114.8544 A3.6176 3.6176 0.0 0 0 155.7363 111.2368" />
<path d="M131.6190 5.1206 A1.2059 1.2059 0.0 0 0 130.4131 6.3265" />
<path d="M137.6483 117.2661
L137.6483 114.8544
" />
<path d="M130.4131 119.6779 A1.2059 1.2059 0.0 0 0 131.6190 120.8837" />
<path d="M131.6190 120.8837
L134.0307 120.8837
" />
<path d="M130.4131 6.3265
L130.4131 119.6779
" />
<path d="M159.3539 11.1499
L159.3539 6.3265
" />
<path d="M166.5891 8.7382 A3.6176 3.6176 0.0 0 0 162.9715 5.1206" />
<path d="M137.6483 11.1499
L137.6483 8.7382
" />
<path d="M159.3539 119.6779
L159.3539 114.8544
" />
<path d="M137.6483 8.7382 A3.6176 3.6176 0.0 0 0 134.0307 5.1206" />
<path d="M137.6483 11.1499 A3.6176 3.6176 0.0 0 0 141.2659 14.7675" />
<path d="M141.2659 111.2405
L155.7363 111.2368
" />
<path d="M141.2659 14.7675
L155.7363 14.7675
" />
<path d="M162.9715 120.8837 A3.6176 3.6176 0.0 0 0 166.5891 117.2661" />
<path d="M159.3539 119.6779 A1.2059 1.2059 0.0 0 0 160.5598 120.8837" />
<path d="M134.0307 120.8837 A3.6176 3.6176 0.0 0 0 137.6483 117.2661" />
<path d="M155.7363 14.7675 A3.6176 3.6176 0.0 0 0 159.3539 11.1499" />
<path d="M141.2659 111.2368 A3.6176 3.6176 0.0 0 0 137.6483 114.8544" />
<path d="M160.5598 5.1206 A1.2059 1.2059 0.0 0 0 159.3539 6.3265" />
<path d="M131.6190 5.1206
L134.0307 5.1206
" />
<path d="M160.5598 120.8837
L162.9715 120.8837
" />
</g>
<g style="fill:none; 
stroke:#000000; stroke-width:0.2000; stroke-opacity:1; 
stroke-linecap:round; stroke-linejoin:round;">
<text x="132.2925" y="124.2043"
textLength="14.8667" font-size="2.6667" lengthAdjust="spacingAndGlyphs"
text-anchor="start" opacity="0" stroke-opacity="0">Drill Map:</text>
<g class="stroked-text"><desc>Drill Map:</desc>
<path d="M132.9003 124.1192
L132.9003 122.1192
" />
<path d="M132.9003 122.1192
L133.3765 122.1192
" />
<path d="M133.3765 122.1192
L133.6622 122.2144
" />
<path d="M133.6622 122.2144
L133.8527 122.4049
" />
<path d="M133.8527 122.4049
L133.9479 122.5953
" />
<path d="M133.9479 122.5953
L134.0431 122.9763
" />
<path d="M134.0431 122.9763
L134.0431 123.2620
" />
<path d="M134.0431 123.2620
L133.9479 123.6430
" />
<path d="M133.9479 123.6430
L133.8527 123.8334
" />
<path d="M133.8527 123.8334
L133.6622 124.0239
" />
<path d="M133.6622 124.0239
L133.3765 124.1192
" />
<path d="M133.3765 124.1192
L132.9003 124.1192
" />
<path d="M134.9003 124.1192
L134.9003 122.7858
" />
<path d="M134.9003 123.1668
L134.9955 122.9763
" />
<path d="M134.9955 122.9763
L135.0908 122.8811
" />
<path d="M135.0908 122.8811
L135.2812 122.7858
" />
<path d="M135.2812 122.7858
L135.4717 122.7858
" />
<path d="M136.1384 124.1192
L136.1384 122.7858
" />
<path d="M136.1384 122.1192
L136.0431 122.2144
" />
<path d="M136.0431 122.2144
L136.1384 122.3096
" />
<path d="M136.1384 122.3096
L136.2336 122.2144
" />
<path d="M136.2336 122.2144
L136.1384 122.1192
" />
<path d="M136.1384 122.1192
L136.1384 122.3096
" />
<path d="M137.3765 124.1192
L137.1860 124.0239
" />
<path d="M137.1860 124.0239
L137.0908 123.8334
" />
<path d="M137.0908 123.8334
L137.0908 122.1192
" />
<path d="M138.4241 124.1192
L138.2336 124.0239
" />
<path d="M138.2336 124.0239
L138.1384 123.8334
" />
<path d="M138.1384 123.8334
L138.1384 122.1192
" />
<path d="M140.7098 124.1192
L140.7098 122.1192
" />
<path d="M140.7098 122.1192
L141.3765 123.5477
" />
<path d="M141.3765 123.5477
L142.0431 122.1192
" />
<path d="M142.0431 122.1192
L142.0431 124.1192
" />
<path d="M143.8527 124.1192
L143.8527 123.0715
" />
<path d="M143.8527 123.0715
L143.7574 122.8811
" />
<path d="M143.7574 122.8811
L143.5670 122.7858
" />
<path d="M143.5670 122.7858
L143.1860 122.7858
" />
<path d="M143.1860 122.7858
L142.9955 122.8811
" />
<path d="M143.8527 124.0239
L143.6622 124.1192
" />
<path d="M143.6622 124.1192
L143.1860 124.1192
" />
<path d="M143.1860 124.1192
L142.9955 124.0239
" />
<path d="M142.9955 124.0239
L142.9003 123.8334
" />
<path d="M142.9003 123.8334
L142.9003 123.6430
" />
<path d="M142.9003 123.6430
L142.9955 123.4525
" />
<path d="M142.9955 123.4525
L143.1860 123.3573
" />
<path d="M143.1860 123.3573
L143.6622 123.3573
" />
<path d="M143.6622 123.3573
L143.8527 123.2620
" />
<path d="M144.8051 122.7858
L144.8051 124.7858
" />
<path d="M144.8051 122.8811
L144.9955 122.7858
" />
<path d="M144.9955 122.7858
L145.3765 122.7858
" />
<path d="M145.3765 122.7858
L145.5670 122.8811
" />
<path d="M145.5670 122.8811
L145.6622 122.9763
" />
<path d="M145.6622 122.9763
L145.7574 123.1668
" />
<path d="M145.7574 123.1668
L145.7574 123.7382
" />
<path d="M145.7574 123.7382
L145.6622 123.9287
" />
<path d="M145.6622 123.9287
L145.5670 124.0239
" />
<path d="M145.5670 124.0239
L145.3765 124.1192
" />
<path d="M145.3765 124.1192
L144.9955 124.1192
" />
<path d="M144.9955 124.1192
L144.8051 124.0239
" />
<path d="M146.6146 123.9287
L146.7098 124.0239
" />
<path d="M146.7098 124.0239
L146.6146 124.1192
" />
<path d="M146.6146 124.1192
L146.5193 124.0239
" />
<path d="M146.5193 124.0239
L146.6146 123.9287
" />
<path d="M146.6146 123.9287
L146.6146 124.1192
" />
<path d="M146.6146 122.8811
L146.7098 122.9763
" />
<path d="M146.7098 122.9763
L146.6146 123.0715
" />
<path d="M146.6146 123.0715
L146.5193 122.9763
" />
<path d="M146.5193 122.9763
L146.6146 122.8811
" />
<path d="M146.6146 122.8811
L146.6146 123.0715
" />
</g></g> 
</svg>
