M48
; DRILL file {KiCad 9.0.6} date 2025-12-07T14:11:10+0300
; FORMAT={-:-/ absolute / metric / decimal}
; #@! TF.CreationDate,2025-12-07T14:11:10+03:00
; #@! TF.GenerationSoftware,Kicad,Pcbnew,9.0.6
; #@! TF.FileFunction,Plated,1,2,PTH
FMAT,2
METRIC
; #@! TA.AperFunction,Plated,PTH,ViaDrill
T1C0.400
; #@! TA.AperFunction,Plated,PTH,ComponentDrill
T2C2.200
%
G90
G05
T1
X-7.0Y35.5
X-7.0Y34.5
X-7.0Y33.5
X-7.0Y32.5
X-7.0Y31.5
X-7.0Y30.5
X-7.0Y29.5
X-7.0Y28.5
X-7.0Y27.5
X-7.0Y26.5
X-7.0Y25.5
X-7.0Y24.5
X-7.0Y15.5
X-7.0Y14.5
X-7.0Y13.5
X-7.0Y12.5
X-7.0Y11.5
X-7.0Y10.5
X-7.0Y9.5
X-7.0Y8.5
X-7.0Y7.5
X-7.0Y6.5
X-7.0Y5.5
X-7.0Y4.5
X-7.0Y-4.5
X-7.0Y-5.5
X-7.0Y-6.5
X-7.0Y-7.5
X-7.0Y-8.5
X-7.0Y-9.5
X-7.0Y-10.5
X-7.0Y-11.5
X-7.0Y-12.5
X-7.0Y-13.5
X-7.0Y-14.5
X-7.0Y-15.5
X-7.0Y-24.5
X-7.0Y-25.5
X-7.0Y-26.5
X-7.0Y-27.5
X-7.0Y-28.5
X-7.0Y-29.5
X-7.0Y-30.5
X-7.0Y-31.5
X-7.0Y-32.5
X-7.0Y-33.5
X-7.0Y-34.5
X-7.0Y-35.5
X-2.0Y34.5
X-2.0Y14.5
X-2.0Y-2.0
X-2.0Y-23.0
X-1.0Y34.5
X-1.0Y14.5
X-1.0Y-2.0
X-1.0Y-23.0
X0.0Y34.5
X0.0Y14.5
X0.0Y-2.0
X0.0Y-23.0
X1.0Y34.5
X1.0Y14.5
X1.0Y-2.0
X1.0Y-23.0
X2.0Y34.5
X2.0Y14.5
X2.0Y-2.0
X2.0Y-23.0
X3.0Y34.5
X3.0Y14.5
X3.0Y-2.0
X3.0Y-23.0
X4.0Y34.5
X4.0Y14.5
X4.0Y-2.0
X4.0Y-23.0
X5.0Y34.5
X5.0Y14.5
X5.0Y-2.0
X5.0Y-23.0
X6.0Y34.5
X6.0Y14.5
X6.0Y-2.0
X6.0Y-23.0
X7.0Y34.5
X7.0Y14.5
X7.0Y-2.0
X7.0Y-23.0
X9.0Y25.0
X9.0Y18.0
X9.0Y11.0
X9.0Y4.0
X9.0Y-4.5
X9.0Y-11.5
X9.0Y-18.5
X9.0Y-25.5
X9.0Y-32.0
X9.0Y-36.0
T2
X-12.0Y45.0
X-12.0Y-45.0
X12.0Y45.0
X12.0Y-45.0
M30
