%TF.GenerationSoftware,KiCad,Pcbnew,10.0.3*%
%TF.CreationDate,2026-06-07T17:17:47+03:00*%
%TF.ProjectId,PMCPU-ESP32C3,504d4350-552d-4455-9350-333243332e6b,rev?*%
%TF.SameCoordinates,Original*%
%TF.FileFunction,Paste,Top*%
%TF.FilePolarity,Positive*%
%FSLAX46Y46*%
G04 Gerber Fmt 4.6, Leading zero omitted, Abs format (unit mm)*
G04 Created by KiCad (PCBNEW 10.0.3) date 2026-06-07 17:17:47*
%MOMM*%
%LPD*%
G01*
G04 APERTURE LIST*
G04 Aperture macros list*
%AMRoundRect*
0 Rectangle with rounded corners*
0 $1 Rounding radius*
0 $2 $3 $4 $5 $6 $7 $8 $9 X,Y pos of 4 corners*
0 Add a 4 corners polygon primitive as box body*
4,1,4,$2,$3,$4,$5,$6,$7,$8,$9,$2,$3,0*
0 Add four circle primitives for the rounded corners*
1,1,$1+$1,$2,$3*
1,1,$1+$1,$4,$5*
1,1,$1+$1,$6,$7*
1,1,$1+$1,$8,$9*
0 Add four rect primitives between the rounded corners*
20,1,$1+$1,$2,$3,$4,$5,0*
20,1,$1+$1,$4,$5,$6,$7,0*
20,1,$1+$1,$6,$7,$8,$9,0*
20,1,$1+$1,$8,$9,$2,$3,0*%
G04 Aperture macros list end*
%ADD10RoundRect,0.225000X0.225000X0.250000X-0.225000X0.250000X-0.225000X-0.250000X0.225000X-0.250000X0*%
%ADD11RoundRect,0.250000X-0.325000X-0.650000X0.325000X-0.650000X0.325000X0.650000X-0.325000X0.650000X0*%
%ADD12RoundRect,0.250000X-0.650000X0.325000X-0.650000X-0.325000X0.650000X-0.325000X0.650000X0.325000X0*%
%ADD13R,0.889000X1.498600*%
%ADD14R,0.711200X0.711200*%
%ADD15RoundRect,0.120650X-0.654050X-0.120650X0.654050X-0.120650X0.654050X0.120650X-0.654050X0.120650X0*%
%ADD16R,1.181100X0.558800*%
%ADD17RoundRect,0.200000X-0.275000X0.200000X-0.275000X-0.200000X0.275000X-0.200000X0.275000X0.200000X0*%
%ADD18R,1.320800X0.558800*%
%ADD19RoundRect,0.200000X0.200000X0.275000X-0.200000X0.275000X-0.200000X-0.275000X0.200000X-0.275000X0*%
%ADD20RoundRect,0.250000X0.325000X0.650000X-0.325000X0.650000X-0.325000X-0.650000X0.325000X-0.650000X0*%
%ADD21RoundRect,0.100000X-0.775000X-0.150000X0.775000X-0.150000X0.775000X0.150000X-0.775000X0.150000X0*%
%ADD22RoundRect,0.112500X-0.787500X-0.887500X0.787500X-0.887500X0.787500X0.887500X-0.787500X0.887500X0*%
%ADD23RoundRect,0.225000X-0.225000X-0.250000X0.225000X-0.250000X0.225000X0.250000X-0.225000X0.250000X0*%
%ADD24RoundRect,0.225000X0.250000X-0.225000X0.250000X0.225000X-0.250000X0.225000X-0.250000X-0.225000X0*%
%ADD25R,1.701800X0.558800*%
%ADD26RoundRect,0.225000X-0.250000X0.225000X-0.250000X-0.225000X0.250000X-0.225000X0.250000X0.225000X0*%
%ADD27R,0.406400X1.350000*%
%ADD28R,2.108200X1.600200*%
%ADD29R,1.244600X1.346200*%
%ADD30RoundRect,0.100000X-0.700000X-0.900000X0.700000X-0.900000X0.700000X0.900000X-0.700000X0.900000X0*%
G04 APERTURE END LIST*
D10*
%TO.C,C7*%
X4775000Y-27000000D03*
X3225000Y-27000000D03*
%TD*%
D11*
%TO.C,C18*%
X20525000Y-30000000D03*
X23475000Y-30000000D03*
%TD*%
D12*
%TO.C,C10*%
X17000000Y11475000D03*
X17000000Y8525000D03*
%TD*%
D13*
%TO.C,U4*%
X16099998Y5610000D03*
X14599999Y5610000D03*
X13099999Y5610000D03*
X11600000Y5610000D03*
X10100000Y5610000D03*
X8600000Y5610000D03*
X7099998Y5610000D03*
X5599999Y5610000D03*
X4099999Y5610000D03*
X4100002Y-11890000D03*
X5600001Y-11890000D03*
X7100001Y-11890000D03*
X8600000Y-11890000D03*
X10100000Y-11890000D03*
X11600000Y-11890000D03*
X13100002Y-11890000D03*
X14600001Y-11890000D03*
X16100001Y-11890000D03*
D14*
X11000000Y-3000000D03*
X9900000Y-3000000D03*
X8800000Y-3000000D03*
X11000000Y-4100000D03*
X9900000Y-4100000D03*
X8800000Y-4100000D03*
X11000000Y-5200000D03*
X9900000Y-5200000D03*
X8800000Y-5200000D03*
%TD*%
D15*
%TO.C,U6*%
X8174000Y-28055000D03*
X8174000Y-29325000D03*
X8174000Y-30595000D03*
X8174000Y-31865000D03*
X8174000Y-33135000D03*
X8174000Y-34405000D03*
X8174000Y-35675000D03*
X8174000Y-36945000D03*
X17826000Y-36945000D03*
X17826000Y-35675000D03*
X17826000Y-34405000D03*
X17826000Y-33135000D03*
X17826000Y-31865000D03*
X17826000Y-30595000D03*
X17826000Y-29325000D03*
X17826000Y-28055000D03*
%TD*%
D16*
%TO.C,U8*%
X-19533150Y-8950001D03*
X-19533150Y-8000000D03*
X-19533150Y-7049999D03*
X-22466850Y-7049999D03*
X-22466850Y-8000000D03*
X-22466850Y-8950001D03*
%TD*%
D17*
%TO.C,R8*%
X13000000Y14825000D03*
X13000000Y13175000D03*
%TD*%
D18*
%TO.C,CR1*%
X-22193800Y-2049999D03*
X-22193800Y-3000000D03*
X-22193800Y-3950001D03*
X-19806200Y-3950001D03*
X-19806200Y-2049999D03*
%TD*%
D16*
%TO.C,U5*%
X-19533150Y-13950001D03*
X-19533150Y-13000000D03*
X-19533150Y-12049999D03*
X-22466850Y-12049999D03*
X-22466850Y-13000000D03*
X-22466850Y-13950001D03*
%TD*%
D19*
%TO.C,R1*%
X-20175000Y1000000D03*
X-21825000Y1000000D03*
%TD*%
D20*
%TO.C,C8*%
X5475000Y-30000000D03*
X2525000Y-30000000D03*
%TD*%
D21*
%TO.C,JM1*%
X-31875000Y24511188D03*
X-28125000Y23511188D03*
X-31875000Y22511188D03*
X-28125000Y21511188D03*
X-31875000Y20511188D03*
X-28125000Y19511188D03*
X-31875000Y18511188D03*
X-28125000Y17511188D03*
X-31875000Y16511188D03*
X-28125000Y15511188D03*
X-31875000Y14511188D03*
X-28125000Y13511188D03*
X-31875000Y12511188D03*
X-28125000Y11511188D03*
X-31875000Y10511188D03*
X-28125000Y9511188D03*
X-31875000Y8511188D03*
X-28125000Y7511188D03*
X-31875000Y6511188D03*
X-28125000Y5511188D03*
D22*
X-30000000Y26911188D03*
X-30000000Y3111188D03*
%TD*%
D23*
%TO.C,C16*%
X-22775000Y12000000D03*
X-21225000Y12000000D03*
%TD*%
D17*
%TO.C,R7*%
X11000000Y14825000D03*
X11000000Y13175000D03*
%TD*%
D24*
%TO.C,C11*%
X14000000Y9225000D03*
X14000000Y10775000D03*
%TD*%
D23*
%TO.C,C19*%
X-10775000Y12000000D03*
X-9225000Y12000000D03*
%TD*%
D25*
%TO.C,U7*%
X-10615200Y14095000D03*
X-10615200Y15365000D03*
X-10615200Y16635000D03*
X-10615200Y17905000D03*
X-21384800Y17905000D03*
X-21384800Y16635000D03*
X-21384800Y15365000D03*
X-21384800Y14095000D03*
%TD*%
D26*
%TO.C,C9*%
X1000000Y4775000D03*
X1000000Y3225000D03*
%TD*%
D23*
%TO.C,C17*%
X21225000Y-27000000D03*
X22775000Y-27000000D03*
%TD*%
D27*
%TO.C,J1*%
X-299972Y-45077042D03*
X350014Y-45077042D03*
X1000000Y-45077042D03*
X1649986Y-45077042D03*
D28*
X-2099999Y-45202150D03*
D27*
X2299972Y-45077042D03*
D28*
X4099999Y-45202150D03*
%TD*%
D17*
%TO.C,R5*%
X-11175000Y4825000D03*
X-11175000Y3175000D03*
%TD*%
D29*
%TO.C,SW1*%
X-7000000Y6286000D03*
X-7000000Y1714000D03*
%TD*%
%TO.C,SW2*%
X-2000000Y1714000D03*
X-2000000Y6286000D03*
%TD*%
D21*
%TO.C,J5*%
X-31875000Y-4500000D03*
X-28125000Y-5500000D03*
X-31875000Y-6500000D03*
X-28125000Y-7500000D03*
X-31875000Y-8500000D03*
X-28125000Y-9500000D03*
X-31875000Y-10500000D03*
X-28125000Y-11500000D03*
X-31875000Y-12500000D03*
X-28125000Y-13500000D03*
X-31875000Y-14500000D03*
X-28125000Y-15500000D03*
D30*
X-30000000Y-2100000D03*
X-30000000Y-17900000D03*
%TD*%
M02*
