%TF.GenerationSoftware,KiCad,Pcbnew,9.0.6*%
%TF.CreationDate,2025-12-05T19:32:35+03:00*%
%TF.ProjectId,PMLED-10,504d4c45-442d-4313-902e-6b696361645f,rev?*%
%TF.SameCoordinates,PX3ec0740PY6021600*%
%TF.FileFunction,Legend,Top*%
%TF.FilePolarity,Positive*%
%FSLAX46Y46*%
G04 Gerber Fmt 4.6, Leading zero omitted, Abs format (unit mm)*
G04 Created by KiCad (PCBNEW 9.0.6) date 2025-12-05 19:32:35*
%MOMM*%
%LPD*%
G01*
G04 APERTURE LIST*
%ADD10C,0.150000*%
%ADD11C,0.100000*%
%ADD12C,0.120000*%
%ADD13C,0.152400*%
G04 APERTURE END LIST*
D10*
X13454819Y17511906D02*
X12454819Y17511906D01*
X12454819Y17511906D02*
X12454819Y17750001D01*
X12454819Y17750001D02*
X12502438Y17892858D01*
X12502438Y17892858D02*
X12597676Y17988096D01*
X12597676Y17988096D02*
X12692914Y18035715D01*
X12692914Y18035715D02*
X12883390Y18083334D01*
X12883390Y18083334D02*
X13026247Y18083334D01*
X13026247Y18083334D02*
X13216723Y18035715D01*
X13216723Y18035715D02*
X13311961Y17988096D01*
X13311961Y17988096D02*
X13407200Y17892858D01*
X13407200Y17892858D02*
X13454819Y17750001D01*
X13454819Y17750001D02*
X13454819Y17511906D01*
X12550057Y18464287D02*
X12502438Y18511906D01*
X12502438Y18511906D02*
X12454819Y18607144D01*
X12454819Y18607144D02*
X12454819Y18845239D01*
X12454819Y18845239D02*
X12502438Y18940477D01*
X12502438Y18940477D02*
X12550057Y18988096D01*
X12550057Y18988096D02*
X12645295Y19035715D01*
X12645295Y19035715D02*
X12740533Y19035715D01*
X12740533Y19035715D02*
X12883390Y18988096D01*
X12883390Y18988096D02*
X13454819Y18416668D01*
X13454819Y18416668D02*
X13454819Y19035715D01*
X9833333Y12975181D02*
X9500000Y13451372D01*
X9261905Y12975181D02*
X9261905Y13975181D01*
X9261905Y13975181D02*
X9642857Y13975181D01*
X9642857Y13975181D02*
X9738095Y13927562D01*
X9738095Y13927562D02*
X9785714Y13879943D01*
X9785714Y13879943D02*
X9833333Y13784705D01*
X9833333Y13784705D02*
X9833333Y13641848D01*
X9833333Y13641848D02*
X9785714Y13546610D01*
X9785714Y13546610D02*
X9738095Y13498991D01*
X9738095Y13498991D02*
X9642857Y13451372D01*
X9642857Y13451372D02*
X9261905Y13451372D01*
X10166667Y13975181D02*
X10785714Y13975181D01*
X10785714Y13975181D02*
X10452381Y13594229D01*
X10452381Y13594229D02*
X10595238Y13594229D01*
X10595238Y13594229D02*
X10690476Y13546610D01*
X10690476Y13546610D02*
X10738095Y13498991D01*
X10738095Y13498991D02*
X10785714Y13403753D01*
X10785714Y13403753D02*
X10785714Y13165658D01*
X10785714Y13165658D02*
X10738095Y13070420D01*
X10738095Y13070420D02*
X10690476Y13022800D01*
X10690476Y13022800D02*
X10595238Y12975181D01*
X10595238Y12975181D02*
X10309524Y12975181D01*
X10309524Y12975181D02*
X10214286Y13022800D01*
X10214286Y13022800D02*
X10166667Y13070420D01*
X9833333Y5975181D02*
X9500000Y6451372D01*
X9261905Y5975181D02*
X9261905Y6975181D01*
X9261905Y6975181D02*
X9642857Y6975181D01*
X9642857Y6975181D02*
X9738095Y6927562D01*
X9738095Y6927562D02*
X9785714Y6879943D01*
X9785714Y6879943D02*
X9833333Y6784705D01*
X9833333Y6784705D02*
X9833333Y6641848D01*
X9833333Y6641848D02*
X9785714Y6546610D01*
X9785714Y6546610D02*
X9738095Y6498991D01*
X9738095Y6498991D02*
X9642857Y6451372D01*
X9642857Y6451372D02*
X9261905Y6451372D01*
X10690476Y6641848D02*
X10690476Y5975181D01*
X10452381Y7022800D02*
X10214286Y6308515D01*
X10214286Y6308515D02*
X10833333Y6308515D01*
X13454819Y24511906D02*
X12454819Y24511906D01*
X12454819Y24511906D02*
X12454819Y24750001D01*
X12454819Y24750001D02*
X12502438Y24892858D01*
X12502438Y24892858D02*
X12597676Y24988096D01*
X12597676Y24988096D02*
X12692914Y25035715D01*
X12692914Y25035715D02*
X12883390Y25083334D01*
X12883390Y25083334D02*
X13026247Y25083334D01*
X13026247Y25083334D02*
X13216723Y25035715D01*
X13216723Y25035715D02*
X13311961Y24988096D01*
X13311961Y24988096D02*
X13407200Y24892858D01*
X13407200Y24892858D02*
X13454819Y24750001D01*
X13454819Y24750001D02*
X13454819Y24511906D01*
X13454819Y26035715D02*
X13454819Y25464287D01*
X13454819Y25750001D02*
X12454819Y25750001D01*
X12454819Y25750001D02*
X12597676Y25654763D01*
X12597676Y25654763D02*
X12692914Y25559525D01*
X12692914Y25559525D02*
X12740533Y25464287D01*
X13454819Y3511906D02*
X12454819Y3511906D01*
X12454819Y3511906D02*
X12454819Y3750001D01*
X12454819Y3750001D02*
X12502438Y3892858D01*
X12502438Y3892858D02*
X12597676Y3988096D01*
X12597676Y3988096D02*
X12692914Y4035715D01*
X12692914Y4035715D02*
X12883390Y4083334D01*
X12883390Y4083334D02*
X13026247Y4083334D01*
X13026247Y4083334D02*
X13216723Y4035715D01*
X13216723Y4035715D02*
X13311961Y3988096D01*
X13311961Y3988096D02*
X13407200Y3892858D01*
X13407200Y3892858D02*
X13454819Y3750001D01*
X13454819Y3750001D02*
X13454819Y3511906D01*
X12788152Y4940477D02*
X13454819Y4940477D01*
X12407200Y4702382D02*
X13121485Y4464287D01*
X13121485Y4464287D02*
X13121485Y5083334D01*
X13454819Y10511906D02*
X12454819Y10511906D01*
X12454819Y10511906D02*
X12454819Y10750001D01*
X12454819Y10750001D02*
X12502438Y10892858D01*
X12502438Y10892858D02*
X12597676Y10988096D01*
X12597676Y10988096D02*
X12692914Y11035715D01*
X12692914Y11035715D02*
X12883390Y11083334D01*
X12883390Y11083334D02*
X13026247Y11083334D01*
X13026247Y11083334D02*
X13216723Y11035715D01*
X13216723Y11035715D02*
X13311961Y10988096D01*
X13311961Y10988096D02*
X13407200Y10892858D01*
X13407200Y10892858D02*
X13454819Y10750001D01*
X13454819Y10750001D02*
X13454819Y10511906D01*
X12454819Y11416668D02*
X12454819Y12035715D01*
X12454819Y12035715D02*
X12835771Y11702382D01*
X12835771Y11702382D02*
X12835771Y11845239D01*
X12835771Y11845239D02*
X12883390Y11940477D01*
X12883390Y11940477D02*
X12931009Y11988096D01*
X12931009Y11988096D02*
X13026247Y12035715D01*
X13026247Y12035715D02*
X13264342Y12035715D01*
X13264342Y12035715D02*
X13359580Y11988096D01*
X13359580Y11988096D02*
X13407200Y11940477D01*
X13407200Y11940477D02*
X13454819Y11845239D01*
X13454819Y11845239D02*
X13454819Y11559525D01*
X13454819Y11559525D02*
X13407200Y11464287D01*
X13407200Y11464287D02*
X13359580Y11416668D01*
X9833333Y26975181D02*
X9500000Y27451372D01*
X9261905Y26975181D02*
X9261905Y27975181D01*
X9261905Y27975181D02*
X9642857Y27975181D01*
X9642857Y27975181D02*
X9738095Y27927562D01*
X9738095Y27927562D02*
X9785714Y27879943D01*
X9785714Y27879943D02*
X9833333Y27784705D01*
X9833333Y27784705D02*
X9833333Y27641848D01*
X9833333Y27641848D02*
X9785714Y27546610D01*
X9785714Y27546610D02*
X9738095Y27498991D01*
X9738095Y27498991D02*
X9642857Y27451372D01*
X9642857Y27451372D02*
X9261905Y27451372D01*
X10785714Y26975181D02*
X10214286Y26975181D01*
X10500000Y26975181D02*
X10500000Y27975181D01*
X10500000Y27975181D02*
X10404762Y27832324D01*
X10404762Y27832324D02*
X10309524Y27737086D01*
X10309524Y27737086D02*
X10214286Y27689467D01*
X9833333Y19975181D02*
X9500000Y20451372D01*
X9261905Y19975181D02*
X9261905Y20975181D01*
X9261905Y20975181D02*
X9642857Y20975181D01*
X9642857Y20975181D02*
X9738095Y20927562D01*
X9738095Y20927562D02*
X9785714Y20879943D01*
X9785714Y20879943D02*
X9833333Y20784705D01*
X9833333Y20784705D02*
X9833333Y20641848D01*
X9833333Y20641848D02*
X9785714Y20546610D01*
X9785714Y20546610D02*
X9738095Y20498991D01*
X9738095Y20498991D02*
X9642857Y20451372D01*
X9642857Y20451372D02*
X9261905Y20451372D01*
X10214286Y20879943D02*
X10261905Y20927562D01*
X10261905Y20927562D02*
X10357143Y20975181D01*
X10357143Y20975181D02*
X10595238Y20975181D01*
X10595238Y20975181D02*
X10690476Y20927562D01*
X10690476Y20927562D02*
X10738095Y20879943D01*
X10738095Y20879943D02*
X10785714Y20784705D01*
X10785714Y20784705D02*
X10785714Y20689467D01*
X10785714Y20689467D02*
X10738095Y20546610D01*
X10738095Y20546610D02*
X10166667Y19975181D01*
X10166667Y19975181D02*
X10785714Y19975181D01*
X9833333Y-2524819D02*
X9500000Y-2048628D01*
X9261905Y-2524819D02*
X9261905Y-1524819D01*
X9261905Y-1524819D02*
X9642857Y-1524819D01*
X9642857Y-1524819D02*
X9738095Y-1572438D01*
X9738095Y-1572438D02*
X9785714Y-1620057D01*
X9785714Y-1620057D02*
X9833333Y-1715295D01*
X9833333Y-1715295D02*
X9833333Y-1858152D01*
X9833333Y-1858152D02*
X9785714Y-1953390D01*
X9785714Y-1953390D02*
X9738095Y-2001009D01*
X9738095Y-2001009D02*
X9642857Y-2048628D01*
X9642857Y-2048628D02*
X9261905Y-2048628D01*
X10738095Y-1524819D02*
X10261905Y-1524819D01*
X10261905Y-1524819D02*
X10214286Y-2001009D01*
X10214286Y-2001009D02*
X10261905Y-1953390D01*
X10261905Y-1953390D02*
X10357143Y-1905771D01*
X10357143Y-1905771D02*
X10595238Y-1905771D01*
X10595238Y-1905771D02*
X10690476Y-1953390D01*
X10690476Y-1953390D02*
X10738095Y-2001009D01*
X10738095Y-2001009D02*
X10785714Y-2096247D01*
X10785714Y-2096247D02*
X10785714Y-2334342D01*
X10785714Y-2334342D02*
X10738095Y-2429580D01*
X10738095Y-2429580D02*
X10690476Y-2477200D01*
X10690476Y-2477200D02*
X10595238Y-2524819D01*
X10595238Y-2524819D02*
X10357143Y-2524819D01*
X10357143Y-2524819D02*
X10261905Y-2477200D01*
X10261905Y-2477200D02*
X10214286Y-2429580D01*
X9357142Y-34024819D02*
X9023809Y-33548628D01*
X8785714Y-34024819D02*
X8785714Y-33024819D01*
X8785714Y-33024819D02*
X9166666Y-33024819D01*
X9166666Y-33024819D02*
X9261904Y-33072438D01*
X9261904Y-33072438D02*
X9309523Y-33120057D01*
X9309523Y-33120057D02*
X9357142Y-33215295D01*
X9357142Y-33215295D02*
X9357142Y-33358152D01*
X9357142Y-33358152D02*
X9309523Y-33453390D01*
X9309523Y-33453390D02*
X9261904Y-33501009D01*
X9261904Y-33501009D02*
X9166666Y-33548628D01*
X9166666Y-33548628D02*
X8785714Y-33548628D01*
X10309523Y-34024819D02*
X9738095Y-34024819D01*
X10023809Y-34024819D02*
X10023809Y-33024819D01*
X10023809Y-33024819D02*
X9928571Y-33167676D01*
X9928571Y-33167676D02*
X9833333Y-33262914D01*
X9833333Y-33262914D02*
X9738095Y-33310533D01*
X10928571Y-33024819D02*
X11023809Y-33024819D01*
X11023809Y-33024819D02*
X11119047Y-33072438D01*
X11119047Y-33072438D02*
X11166666Y-33120057D01*
X11166666Y-33120057D02*
X11214285Y-33215295D01*
X11214285Y-33215295D02*
X11261904Y-33405771D01*
X11261904Y-33405771D02*
X11261904Y-33643866D01*
X11261904Y-33643866D02*
X11214285Y-33834342D01*
X11214285Y-33834342D02*
X11166666Y-33929580D01*
X11166666Y-33929580D02*
X11119047Y-33977200D01*
X11119047Y-33977200D02*
X11023809Y-34024819D01*
X11023809Y-34024819D02*
X10928571Y-34024819D01*
X10928571Y-34024819D02*
X10833333Y-33977200D01*
X10833333Y-33977200D02*
X10785714Y-33929580D01*
X10785714Y-33929580D02*
X10738095Y-33834342D01*
X10738095Y-33834342D02*
X10690476Y-33643866D01*
X10690476Y-33643866D02*
X10690476Y-33405771D01*
X10690476Y-33405771D02*
X10738095Y-33215295D01*
X10738095Y-33215295D02*
X10785714Y-33120057D01*
X10785714Y-33120057D02*
X10833333Y-33072438D01*
X10833333Y-33072438D02*
X10928571Y-33024819D01*
X9833333Y-30024819D02*
X9500000Y-29548628D01*
X9261905Y-30024819D02*
X9261905Y-29024819D01*
X9261905Y-29024819D02*
X9642857Y-29024819D01*
X9642857Y-29024819D02*
X9738095Y-29072438D01*
X9738095Y-29072438D02*
X9785714Y-29120057D01*
X9785714Y-29120057D02*
X9833333Y-29215295D01*
X9833333Y-29215295D02*
X9833333Y-29358152D01*
X9833333Y-29358152D02*
X9785714Y-29453390D01*
X9785714Y-29453390D02*
X9738095Y-29501009D01*
X9738095Y-29501009D02*
X9642857Y-29548628D01*
X9642857Y-29548628D02*
X9261905Y-29548628D01*
X10309524Y-30024819D02*
X10500000Y-30024819D01*
X10500000Y-30024819D02*
X10595238Y-29977200D01*
X10595238Y-29977200D02*
X10642857Y-29929580D01*
X10642857Y-29929580D02*
X10738095Y-29786723D01*
X10738095Y-29786723D02*
X10785714Y-29596247D01*
X10785714Y-29596247D02*
X10785714Y-29215295D01*
X10785714Y-29215295D02*
X10738095Y-29120057D01*
X10738095Y-29120057D02*
X10690476Y-29072438D01*
X10690476Y-29072438D02*
X10595238Y-29024819D01*
X10595238Y-29024819D02*
X10404762Y-29024819D01*
X10404762Y-29024819D02*
X10309524Y-29072438D01*
X10309524Y-29072438D02*
X10261905Y-29120057D01*
X10261905Y-29120057D02*
X10214286Y-29215295D01*
X10214286Y-29215295D02*
X10214286Y-29453390D01*
X10214286Y-29453390D02*
X10261905Y-29548628D01*
X10261905Y-29548628D02*
X10309524Y-29596247D01*
X10309524Y-29596247D02*
X10404762Y-29643866D01*
X10404762Y-29643866D02*
X10595238Y-29643866D01*
X10595238Y-29643866D02*
X10690476Y-29596247D01*
X10690476Y-29596247D02*
X10738095Y-29548628D01*
X10738095Y-29548628D02*
X10785714Y-29453390D01*
X-1454820Y30333334D02*
X-2169105Y30333334D01*
X-2169105Y30333334D02*
X-2311962Y30380953D01*
X-2311962Y30380953D02*
X-2407200Y30476191D01*
X-2407200Y30476191D02*
X-2454820Y30619048D01*
X-2454820Y30619048D02*
X-2454820Y30714286D01*
X-2454820Y29333334D02*
X-2454820Y29904762D01*
X-2454820Y29619048D02*
X-1454820Y29619048D01*
X-1454820Y29619048D02*
X-1597677Y29714286D01*
X-1597677Y29714286D02*
X-1692915Y29809524D01*
X-1692915Y29809524D02*
X-1740534Y29904762D01*
X13454819Y-25988094D02*
X12454819Y-25988094D01*
X12454819Y-25988094D02*
X12454819Y-25749999D01*
X12454819Y-25749999D02*
X12502438Y-25607142D01*
X12502438Y-25607142D02*
X12597676Y-25511904D01*
X12597676Y-25511904D02*
X12692914Y-25464285D01*
X12692914Y-25464285D02*
X12883390Y-25416666D01*
X12883390Y-25416666D02*
X13026247Y-25416666D01*
X13026247Y-25416666D02*
X13216723Y-25464285D01*
X13216723Y-25464285D02*
X13311961Y-25511904D01*
X13311961Y-25511904D02*
X13407200Y-25607142D01*
X13407200Y-25607142D02*
X13454819Y-25749999D01*
X13454819Y-25749999D02*
X13454819Y-25988094D01*
X12883390Y-24845237D02*
X12835771Y-24940475D01*
X12835771Y-24940475D02*
X12788152Y-24988094D01*
X12788152Y-24988094D02*
X12692914Y-25035713D01*
X12692914Y-25035713D02*
X12645295Y-25035713D01*
X12645295Y-25035713D02*
X12550057Y-24988094D01*
X12550057Y-24988094D02*
X12502438Y-24940475D01*
X12502438Y-24940475D02*
X12454819Y-24845237D01*
X12454819Y-24845237D02*
X12454819Y-24654761D01*
X12454819Y-24654761D02*
X12502438Y-24559523D01*
X12502438Y-24559523D02*
X12550057Y-24511904D01*
X12550057Y-24511904D02*
X12645295Y-24464285D01*
X12645295Y-24464285D02*
X12692914Y-24464285D01*
X12692914Y-24464285D02*
X12788152Y-24511904D01*
X12788152Y-24511904D02*
X12835771Y-24559523D01*
X12835771Y-24559523D02*
X12883390Y-24654761D01*
X12883390Y-24654761D02*
X12883390Y-24845237D01*
X12883390Y-24845237D02*
X12931009Y-24940475D01*
X12931009Y-24940475D02*
X12978628Y-24988094D01*
X12978628Y-24988094D02*
X13073866Y-25035713D01*
X13073866Y-25035713D02*
X13264342Y-25035713D01*
X13264342Y-25035713D02*
X13359580Y-24988094D01*
X13359580Y-24988094D02*
X13407200Y-24940475D01*
X13407200Y-24940475D02*
X13454819Y-24845237D01*
X13454819Y-24845237D02*
X13454819Y-24654761D01*
X13454819Y-24654761D02*
X13407200Y-24559523D01*
X13407200Y-24559523D02*
X13359580Y-24511904D01*
X13359580Y-24511904D02*
X13264342Y-24464285D01*
X13264342Y-24464285D02*
X13073866Y-24464285D01*
X13073866Y-24464285D02*
X12978628Y-24511904D01*
X12978628Y-24511904D02*
X12931009Y-24559523D01*
X12931009Y-24559523D02*
X12883390Y-24654761D01*
X9833333Y-16524819D02*
X9500000Y-16048628D01*
X9261905Y-16524819D02*
X9261905Y-15524819D01*
X9261905Y-15524819D02*
X9642857Y-15524819D01*
X9642857Y-15524819D02*
X9738095Y-15572438D01*
X9738095Y-15572438D02*
X9785714Y-15620057D01*
X9785714Y-15620057D02*
X9833333Y-15715295D01*
X9833333Y-15715295D02*
X9833333Y-15858152D01*
X9833333Y-15858152D02*
X9785714Y-15953390D01*
X9785714Y-15953390D02*
X9738095Y-16001009D01*
X9738095Y-16001009D02*
X9642857Y-16048628D01*
X9642857Y-16048628D02*
X9261905Y-16048628D01*
X10166667Y-15524819D02*
X10833333Y-15524819D01*
X10833333Y-15524819D02*
X10404762Y-16524819D01*
X13454819Y-18988094D02*
X12454819Y-18988094D01*
X12454819Y-18988094D02*
X12454819Y-18749999D01*
X12454819Y-18749999D02*
X12502438Y-18607142D01*
X12502438Y-18607142D02*
X12597676Y-18511904D01*
X12597676Y-18511904D02*
X12692914Y-18464285D01*
X12692914Y-18464285D02*
X12883390Y-18416666D01*
X12883390Y-18416666D02*
X13026247Y-18416666D01*
X13026247Y-18416666D02*
X13216723Y-18464285D01*
X13216723Y-18464285D02*
X13311961Y-18511904D01*
X13311961Y-18511904D02*
X13407200Y-18607142D01*
X13407200Y-18607142D02*
X13454819Y-18749999D01*
X13454819Y-18749999D02*
X13454819Y-18988094D01*
X12454819Y-18083332D02*
X12454819Y-17416666D01*
X12454819Y-17416666D02*
X13454819Y-17845237D01*
X13454819Y-32553094D02*
X12454819Y-32553094D01*
X12454819Y-32553094D02*
X12454819Y-32314999D01*
X12454819Y-32314999D02*
X12502438Y-32172142D01*
X12502438Y-32172142D02*
X12597676Y-32076904D01*
X12597676Y-32076904D02*
X12692914Y-32029285D01*
X12692914Y-32029285D02*
X12883390Y-31981666D01*
X12883390Y-31981666D02*
X13026247Y-31981666D01*
X13026247Y-31981666D02*
X13216723Y-32029285D01*
X13216723Y-32029285D02*
X13311961Y-32076904D01*
X13311961Y-32076904D02*
X13407200Y-32172142D01*
X13407200Y-32172142D02*
X13454819Y-32314999D01*
X13454819Y-32314999D02*
X13454819Y-32553094D01*
X13454819Y-31505475D02*
X13454819Y-31314999D01*
X13454819Y-31314999D02*
X13407200Y-31219761D01*
X13407200Y-31219761D02*
X13359580Y-31172142D01*
X13359580Y-31172142D02*
X13216723Y-31076904D01*
X13216723Y-31076904D02*
X13026247Y-31029285D01*
X13026247Y-31029285D02*
X12645295Y-31029285D01*
X12645295Y-31029285D02*
X12550057Y-31076904D01*
X12550057Y-31076904D02*
X12502438Y-31124523D01*
X12502438Y-31124523D02*
X12454819Y-31219761D01*
X12454819Y-31219761D02*
X12454819Y-31410237D01*
X12454819Y-31410237D02*
X12502438Y-31505475D01*
X12502438Y-31505475D02*
X12550057Y-31553094D01*
X12550057Y-31553094D02*
X12645295Y-31600713D01*
X12645295Y-31600713D02*
X12883390Y-31600713D01*
X12883390Y-31600713D02*
X12978628Y-31553094D01*
X12978628Y-31553094D02*
X13026247Y-31505475D01*
X13026247Y-31505475D02*
X13073866Y-31410237D01*
X13073866Y-31410237D02*
X13073866Y-31219761D01*
X13073866Y-31219761D02*
X13026247Y-31124523D01*
X13026247Y-31124523D02*
X12978628Y-31076904D01*
X12978628Y-31076904D02*
X12883390Y-31029285D01*
X9833333Y-23524819D02*
X9500000Y-23048628D01*
X9261905Y-23524819D02*
X9261905Y-22524819D01*
X9261905Y-22524819D02*
X9642857Y-22524819D01*
X9642857Y-22524819D02*
X9738095Y-22572438D01*
X9738095Y-22572438D02*
X9785714Y-22620057D01*
X9785714Y-22620057D02*
X9833333Y-22715295D01*
X9833333Y-22715295D02*
X9833333Y-22858152D01*
X9833333Y-22858152D02*
X9785714Y-22953390D01*
X9785714Y-22953390D02*
X9738095Y-23001009D01*
X9738095Y-23001009D02*
X9642857Y-23048628D01*
X9642857Y-23048628D02*
X9261905Y-23048628D01*
X10404762Y-22953390D02*
X10309524Y-22905771D01*
X10309524Y-22905771D02*
X10261905Y-22858152D01*
X10261905Y-22858152D02*
X10214286Y-22762914D01*
X10214286Y-22762914D02*
X10214286Y-22715295D01*
X10214286Y-22715295D02*
X10261905Y-22620057D01*
X10261905Y-22620057D02*
X10309524Y-22572438D01*
X10309524Y-22572438D02*
X10404762Y-22524819D01*
X10404762Y-22524819D02*
X10595238Y-22524819D01*
X10595238Y-22524819D02*
X10690476Y-22572438D01*
X10690476Y-22572438D02*
X10738095Y-22620057D01*
X10738095Y-22620057D02*
X10785714Y-22715295D01*
X10785714Y-22715295D02*
X10785714Y-22762914D01*
X10785714Y-22762914D02*
X10738095Y-22858152D01*
X10738095Y-22858152D02*
X10690476Y-22905771D01*
X10690476Y-22905771D02*
X10595238Y-22953390D01*
X10595238Y-22953390D02*
X10404762Y-22953390D01*
X10404762Y-22953390D02*
X10309524Y-23001009D01*
X10309524Y-23001009D02*
X10261905Y-23048628D01*
X10261905Y-23048628D02*
X10214286Y-23143866D01*
X10214286Y-23143866D02*
X10214286Y-23334342D01*
X10214286Y-23334342D02*
X10261905Y-23429580D01*
X10261905Y-23429580D02*
X10309524Y-23477200D01*
X10309524Y-23477200D02*
X10404762Y-23524819D01*
X10404762Y-23524819D02*
X10595238Y-23524819D01*
X10595238Y-23524819D02*
X10690476Y-23477200D01*
X10690476Y-23477200D02*
X10738095Y-23429580D01*
X10738095Y-23429580D02*
X10785714Y-23334342D01*
X10785714Y-23334342D02*
X10785714Y-23143866D01*
X10785714Y-23143866D02*
X10738095Y-23048628D01*
X10738095Y-23048628D02*
X10690476Y-23001009D01*
X10690476Y-23001009D02*
X10595238Y-22953390D01*
X13454819Y-37029285D02*
X12454819Y-37029285D01*
X12454819Y-37029285D02*
X12454819Y-36791190D01*
X12454819Y-36791190D02*
X12502438Y-36648333D01*
X12502438Y-36648333D02*
X12597676Y-36553095D01*
X12597676Y-36553095D02*
X12692914Y-36505476D01*
X12692914Y-36505476D02*
X12883390Y-36457857D01*
X12883390Y-36457857D02*
X13026247Y-36457857D01*
X13026247Y-36457857D02*
X13216723Y-36505476D01*
X13216723Y-36505476D02*
X13311961Y-36553095D01*
X13311961Y-36553095D02*
X13407200Y-36648333D01*
X13407200Y-36648333D02*
X13454819Y-36791190D01*
X13454819Y-36791190D02*
X13454819Y-37029285D01*
X13454819Y-35505476D02*
X13454819Y-36076904D01*
X13454819Y-35791190D02*
X12454819Y-35791190D01*
X12454819Y-35791190D02*
X12597676Y-35886428D01*
X12597676Y-35886428D02*
X12692914Y-35981666D01*
X12692914Y-35981666D02*
X12740533Y-36076904D01*
X12454819Y-34886428D02*
X12454819Y-34791190D01*
X12454819Y-34791190D02*
X12502438Y-34695952D01*
X12502438Y-34695952D02*
X12550057Y-34648333D01*
X12550057Y-34648333D02*
X12645295Y-34600714D01*
X12645295Y-34600714D02*
X12835771Y-34553095D01*
X12835771Y-34553095D02*
X13073866Y-34553095D01*
X13073866Y-34553095D02*
X13264342Y-34600714D01*
X13264342Y-34600714D02*
X13359580Y-34648333D01*
X13359580Y-34648333D02*
X13407200Y-34695952D01*
X13407200Y-34695952D02*
X13454819Y-34791190D01*
X13454819Y-34791190D02*
X13454819Y-34886428D01*
X13454819Y-34886428D02*
X13407200Y-34981666D01*
X13407200Y-34981666D02*
X13359580Y-35029285D01*
X13359580Y-35029285D02*
X13264342Y-35076904D01*
X13264342Y-35076904D02*
X13073866Y-35124523D01*
X13073866Y-35124523D02*
X12835771Y-35124523D01*
X12835771Y-35124523D02*
X12645295Y-35076904D01*
X12645295Y-35076904D02*
X12550057Y-35029285D01*
X12550057Y-35029285D02*
X12502438Y-34981666D01*
X12502438Y-34981666D02*
X12454819Y-34886428D01*
X9833333Y-9524819D02*
X9500000Y-9048628D01*
X9261905Y-9524819D02*
X9261905Y-8524819D01*
X9261905Y-8524819D02*
X9642857Y-8524819D01*
X9642857Y-8524819D02*
X9738095Y-8572438D01*
X9738095Y-8572438D02*
X9785714Y-8620057D01*
X9785714Y-8620057D02*
X9833333Y-8715295D01*
X9833333Y-8715295D02*
X9833333Y-8858152D01*
X9833333Y-8858152D02*
X9785714Y-8953390D01*
X9785714Y-8953390D02*
X9738095Y-9001009D01*
X9738095Y-9001009D02*
X9642857Y-9048628D01*
X9642857Y-9048628D02*
X9261905Y-9048628D01*
X10690476Y-8524819D02*
X10500000Y-8524819D01*
X10500000Y-8524819D02*
X10404762Y-8572438D01*
X10404762Y-8572438D02*
X10357143Y-8620057D01*
X10357143Y-8620057D02*
X10261905Y-8762914D01*
X10261905Y-8762914D02*
X10214286Y-8953390D01*
X10214286Y-8953390D02*
X10214286Y-9334342D01*
X10214286Y-9334342D02*
X10261905Y-9429580D01*
X10261905Y-9429580D02*
X10309524Y-9477200D01*
X10309524Y-9477200D02*
X10404762Y-9524819D01*
X10404762Y-9524819D02*
X10595238Y-9524819D01*
X10595238Y-9524819D02*
X10690476Y-9477200D01*
X10690476Y-9477200D02*
X10738095Y-9429580D01*
X10738095Y-9429580D02*
X10785714Y-9334342D01*
X10785714Y-9334342D02*
X10785714Y-9096247D01*
X10785714Y-9096247D02*
X10738095Y-9001009D01*
X10738095Y-9001009D02*
X10690476Y-8953390D01*
X10690476Y-8953390D02*
X10595238Y-8905771D01*
X10595238Y-8905771D02*
X10404762Y-8905771D01*
X10404762Y-8905771D02*
X10309524Y-8953390D01*
X10309524Y-8953390D02*
X10261905Y-9001009D01*
X10261905Y-9001009D02*
X10214286Y-9096247D01*
X-1356520Y-9666666D02*
X-2070805Y-9666666D01*
X-2070805Y-9666666D02*
X-2213662Y-9619047D01*
X-2213662Y-9619047D02*
X-2308900Y-9523809D01*
X-2308900Y-9523809D02*
X-2356520Y-9380952D01*
X-2356520Y-9380952D02*
X-2356520Y-9285714D01*
X-1356520Y-10047619D02*
X-1356520Y-10666666D01*
X-1356520Y-10666666D02*
X-1737472Y-10333333D01*
X-1737472Y-10333333D02*
X-1737472Y-10476190D01*
X-1737472Y-10476190D02*
X-1785091Y-10571428D01*
X-1785091Y-10571428D02*
X-1832710Y-10619047D01*
X-1832710Y-10619047D02*
X-1927948Y-10666666D01*
X-1927948Y-10666666D02*
X-2166043Y-10666666D01*
X-2166043Y-10666666D02*
X-2261281Y-10619047D01*
X-2261281Y-10619047D02*
X-2308900Y-10571428D01*
X-2308900Y-10571428D02*
X-2356520Y-10476190D01*
X-2356520Y-10476190D02*
X-2356520Y-10190476D01*
X-2356520Y-10190476D02*
X-2308900Y-10095238D01*
X-2308900Y-10095238D02*
X-2261281Y-10047619D01*
X-1454820Y10333334D02*
X-2169105Y10333334D01*
X-2169105Y10333334D02*
X-2311962Y10380953D01*
X-2311962Y10380953D02*
X-2407200Y10476191D01*
X-2407200Y10476191D02*
X-2454820Y10619048D01*
X-2454820Y10619048D02*
X-2454820Y10714286D01*
X-1550058Y9904762D02*
X-1502439Y9857143D01*
X-1502439Y9857143D02*
X-1454820Y9761905D01*
X-1454820Y9761905D02*
X-1454820Y9523810D01*
X-1454820Y9523810D02*
X-1502439Y9428572D01*
X-1502439Y9428572D02*
X-1550058Y9380953D01*
X-1550058Y9380953D02*
X-1645296Y9333334D01*
X-1645296Y9333334D02*
X-1740534Y9333334D01*
X-1740534Y9333334D02*
X-1883391Y9380953D01*
X-1883391Y9380953D02*
X-2454820Y9952381D01*
X-2454820Y9952381D02*
X-2454820Y9333334D01*
X13454819Y-11988094D02*
X12454819Y-11988094D01*
X12454819Y-11988094D02*
X12454819Y-11749999D01*
X12454819Y-11749999D02*
X12502438Y-11607142D01*
X12502438Y-11607142D02*
X12597676Y-11511904D01*
X12597676Y-11511904D02*
X12692914Y-11464285D01*
X12692914Y-11464285D02*
X12883390Y-11416666D01*
X12883390Y-11416666D02*
X13026247Y-11416666D01*
X13026247Y-11416666D02*
X13216723Y-11464285D01*
X13216723Y-11464285D02*
X13311961Y-11511904D01*
X13311961Y-11511904D02*
X13407200Y-11607142D01*
X13407200Y-11607142D02*
X13454819Y-11749999D01*
X13454819Y-11749999D02*
X13454819Y-11988094D01*
X12454819Y-10559523D02*
X12454819Y-10749999D01*
X12454819Y-10749999D02*
X12502438Y-10845237D01*
X12502438Y-10845237D02*
X12550057Y-10892856D01*
X12550057Y-10892856D02*
X12692914Y-10988094D01*
X12692914Y-10988094D02*
X12883390Y-11035713D01*
X12883390Y-11035713D02*
X13264342Y-11035713D01*
X13264342Y-11035713D02*
X13359580Y-10988094D01*
X13359580Y-10988094D02*
X13407200Y-10940475D01*
X13407200Y-10940475D02*
X13454819Y-10845237D01*
X13454819Y-10845237D02*
X13454819Y-10654761D01*
X13454819Y-10654761D02*
X13407200Y-10559523D01*
X13407200Y-10559523D02*
X13359580Y-10511904D01*
X13359580Y-10511904D02*
X13264342Y-10464285D01*
X13264342Y-10464285D02*
X13026247Y-10464285D01*
X13026247Y-10464285D02*
X12931009Y-10511904D01*
X12931009Y-10511904D02*
X12883390Y-10559523D01*
X12883390Y-10559523D02*
X12835771Y-10654761D01*
X12835771Y-10654761D02*
X12835771Y-10845237D01*
X12835771Y-10845237D02*
X12883390Y-10940475D01*
X12883390Y-10940475D02*
X12931009Y-10988094D01*
X12931009Y-10988094D02*
X13026247Y-11035713D01*
X-1454820Y-29666666D02*
X-2169105Y-29666666D01*
X-2169105Y-29666666D02*
X-2311962Y-29619047D01*
X-2311962Y-29619047D02*
X-2407200Y-29523809D01*
X-2407200Y-29523809D02*
X-2454820Y-29380952D01*
X-2454820Y-29380952D02*
X-2454820Y-29285714D01*
X-1788153Y-30571428D02*
X-2454820Y-30571428D01*
X-1407200Y-30333333D02*
X-2121486Y-30095238D01*
X-2121486Y-30095238D02*
X-2121486Y-30714285D01*
X13454819Y-4988094D02*
X12454819Y-4988094D01*
X12454819Y-4988094D02*
X12454819Y-4749999D01*
X12454819Y-4749999D02*
X12502438Y-4607142D01*
X12502438Y-4607142D02*
X12597676Y-4511904D01*
X12597676Y-4511904D02*
X12692914Y-4464285D01*
X12692914Y-4464285D02*
X12883390Y-4416666D01*
X12883390Y-4416666D02*
X13026247Y-4416666D01*
X13026247Y-4416666D02*
X13216723Y-4464285D01*
X13216723Y-4464285D02*
X13311961Y-4511904D01*
X13311961Y-4511904D02*
X13407200Y-4607142D01*
X13407200Y-4607142D02*
X13454819Y-4749999D01*
X13454819Y-4749999D02*
X13454819Y-4988094D01*
X12454819Y-3511904D02*
X12454819Y-3988094D01*
X12454819Y-3988094D02*
X12931009Y-4035713D01*
X12931009Y-4035713D02*
X12883390Y-3988094D01*
X12883390Y-3988094D02*
X12835771Y-3892856D01*
X12835771Y-3892856D02*
X12835771Y-3654761D01*
X12835771Y-3654761D02*
X12883390Y-3559523D01*
X12883390Y-3559523D02*
X12931009Y-3511904D01*
X12931009Y-3511904D02*
X13026247Y-3464285D01*
X13026247Y-3464285D02*
X13264342Y-3464285D01*
X13264342Y-3464285D02*
X13359580Y-3511904D01*
X13359580Y-3511904D02*
X13407200Y-3559523D01*
X13407200Y-3559523D02*
X13454819Y-3654761D01*
X13454819Y-3654761D02*
X13454819Y-3892856D01*
X13454819Y-3892856D02*
X13407200Y-3988094D01*
X13407200Y-3988094D02*
X13359580Y-4035713D01*
%TO.C,D2*%
D11*
X13700000Y16624600D02*
X14300000Y16624600D01*
X14300000Y16850000D01*
X13700000Y16850000D01*
X13700000Y16624600D01*
G36*
X13700000Y16624600D02*
G01*
X14300000Y16624600D01*
X14300000Y16850000D01*
X13700000Y16850000D01*
X13700000Y16624600D01*
G37*
D12*
%TO.C,R3*%
X9762742Y11477500D02*
X10237258Y11477500D01*
X9762742Y12522500D02*
X10237258Y12522500D01*
%TO.C,R4*%
X9762742Y4477500D02*
X10237258Y4477500D01*
X9762742Y5522500D02*
X10237258Y5522500D01*
%TO.C,D1*%
D11*
X13700000Y23624600D02*
X14300000Y23624600D01*
X14300000Y23850000D01*
X13700000Y23850000D01*
X13700000Y23624600D01*
G36*
X13700000Y23624600D02*
G01*
X14300000Y23624600D01*
X14300000Y23850000D01*
X13700000Y23850000D01*
X13700000Y23624600D01*
G37*
%TO.C,D4*%
X13700000Y2624600D02*
X14300000Y2624600D01*
X14300000Y2850000D01*
X13700000Y2850000D01*
X13700000Y2624600D01*
G36*
X13700000Y2624600D02*
G01*
X14300000Y2624600D01*
X14300000Y2850000D01*
X13700000Y2850000D01*
X13700000Y2624600D01*
G37*
%TO.C,D3*%
X13700000Y9624600D02*
X14300000Y9624600D01*
X14300000Y9850000D01*
X13700000Y9850000D01*
X13700000Y9624600D01*
G36*
X13700000Y9624600D02*
G01*
X14300000Y9624600D01*
X14300000Y9850000D01*
X13700000Y9850000D01*
X13700000Y9624600D01*
G37*
D12*
%TO.C,R1*%
X9762742Y25477500D02*
X10237258Y25477500D01*
X9762742Y26522500D02*
X10237258Y26522500D01*
%TO.C,R2*%
X9762742Y18477500D02*
X10237258Y18477500D01*
X9762742Y19522500D02*
X10237258Y19522500D01*
%TO.C,R5*%
X9762742Y-2977500D02*
X10237258Y-2977500D01*
X9762742Y-4022500D02*
X10237258Y-4022500D01*
%TO.C,R10*%
X9762742Y-34477500D02*
X10237258Y-34477500D01*
X9762742Y-35522500D02*
X10237258Y-35522500D01*
%TO.C,R9*%
X9762742Y-30477500D02*
X10237258Y-30477500D01*
X9762742Y-31522500D02*
X10237258Y-31522500D01*
D13*
%TO.C,J1*%
X-10781300Y39623301D02*
X-10781300Y20376699D01*
X-10781300Y20376699D02*
X-5218700Y20376699D01*
X-5218700Y39623301D02*
X-10781300Y39623301D01*
%TO.C,D8*%
D11*
X13700000Y-26875400D02*
X14300000Y-26875400D01*
X14300000Y-26650000D01*
X13700000Y-26650000D01*
X13700000Y-26875400D01*
G36*
X13700000Y-26875400D02*
G01*
X14300000Y-26875400D01*
X14300000Y-26650000D01*
X13700000Y-26650000D01*
X13700000Y-26875400D01*
G37*
D12*
%TO.C,R7*%
X9762742Y-16977500D02*
X10237258Y-16977500D01*
X9762742Y-18022500D02*
X10237258Y-18022500D01*
%TO.C,D7*%
D11*
X13700000Y-19875400D02*
X14300000Y-19875400D01*
X14300000Y-19650000D01*
X13700000Y-19650000D01*
X13700000Y-19875400D01*
G36*
X13700000Y-19875400D02*
G01*
X14300000Y-19875400D01*
X14300000Y-19650000D01*
X13700000Y-19650000D01*
X13700000Y-19875400D01*
G37*
%TO.C,D9*%
X13700000Y-33440400D02*
X14300000Y-33440400D01*
X14300000Y-33215000D01*
X13700000Y-33215000D01*
X13700000Y-33440400D01*
G36*
X13700000Y-33440400D02*
G01*
X14300000Y-33440400D01*
X14300000Y-33215000D01*
X13700000Y-33215000D01*
X13700000Y-33440400D01*
G37*
D12*
%TO.C,R8*%
X9762742Y-23977500D02*
X10237258Y-23977500D01*
X9762742Y-25022500D02*
X10237258Y-25022500D01*
%TO.C,D10*%
D11*
X13700000Y-37440400D02*
X14300000Y-37440400D01*
X14300000Y-37215000D01*
X13700000Y-37215000D01*
X13700000Y-37440400D01*
G36*
X13700000Y-37440400D02*
G01*
X14300000Y-37440400D01*
X14300000Y-37215000D01*
X13700000Y-37215000D01*
X13700000Y-37440400D01*
G37*
D12*
%TO.C,R6*%
X9762742Y-9977500D02*
X10237258Y-9977500D01*
X9762742Y-11022500D02*
X10237258Y-11022500D01*
D13*
%TO.C,J3*%
X-10683000Y-376699D02*
X-10683000Y-19623301D01*
X-10683000Y-19623301D02*
X-5120400Y-19623301D01*
X-5120400Y-376699D02*
X-10683000Y-376699D01*
%TO.C,J2*%
X-10781300Y19623301D02*
X-10781300Y376699D01*
X-10781300Y376699D02*
X-5218700Y376699D01*
X-5218700Y19623301D02*
X-10781300Y19623301D01*
%TO.C,D6*%
D11*
X13700000Y-12875400D02*
X14300000Y-12875400D01*
X14300000Y-12650000D01*
X13700000Y-12650000D01*
X13700000Y-12875400D01*
G36*
X13700000Y-12875400D02*
G01*
X14300000Y-12875400D01*
X14300000Y-12650000D01*
X13700000Y-12650000D01*
X13700000Y-12875400D01*
G37*
D13*
%TO.C,J4*%
X-10781300Y-20376699D02*
X-10781300Y-39623301D01*
X-10781300Y-39623301D02*
X-5218700Y-39623301D01*
X-5218700Y-20376699D02*
X-10781300Y-20376699D01*
%TO.C,D5*%
D11*
X13700000Y-5875400D02*
X14300000Y-5875400D01*
X14300000Y-5650000D01*
X13700000Y-5650000D01*
X13700000Y-5875400D01*
G36*
X13700000Y-5875400D02*
G01*
X14300000Y-5875400D01*
X14300000Y-5650000D01*
X13700000Y-5650000D01*
X13700000Y-5875400D01*
G37*
%TD*%
M02*
