%TF.GenerationSoftware,KiCad,Pcbnew,9.0.2*%
%TF.CreationDate,2025-06-10T08:24:41+03:00*%
%TF.ProjectId,PMMCU-ESP32C3,504d4d43-552d-4455-9350-333243332e6b,rev?*%
%TF.SameCoordinates,Original*%
%TF.FileFunction,Copper,L2,Bot*%
%TF.FilePolarity,Positive*%
%FSLAX46Y46*%
G04 Gerber Fmt 4.6, Leading zero omitted, Abs format (unit mm)*
G04 Created by KiCad (PCBNEW 9.0.2) date 2025-06-10 08:24:41*
%MOMM*%
%LPD*%
G01*
G04 APERTURE LIST*
%TA.AperFunction,ComponentPad*%
%ADD10R,1.500000X1.500000*%
%TD*%
%TA.AperFunction,ComponentPad*%
%ADD11C,1.500000*%
%TD*%
%TA.AperFunction,ComponentPad*%
%ADD12O,1.000000X1.700000*%
%TD*%
%TA.AperFunction,ComponentPad*%
%ADD13C,2.000000*%
%TD*%
%TA.AperFunction,ComponentPad*%
%ADD14C,1.725000*%
%TD*%
%TA.AperFunction,ComponentPad*%
%ADD15C,1.700000*%
%TD*%
%TA.AperFunction,ComponentPad*%
%ADD16R,1.350000X1.350000*%
%TD*%
%TA.AperFunction,ComponentPad*%
%ADD17C,1.350000*%
%TD*%
%TA.AperFunction,ViaPad*%
%ADD18C,0.800000*%
%TD*%
%TA.AperFunction,ViaPad*%
%ADD19C,1.000000*%
%TD*%
%TA.AperFunction,Conductor*%
%ADD20C,0.600000*%
%TD*%
%TA.AperFunction,Conductor*%
%ADD21C,0.300000*%
%TD*%
%TA.AperFunction,Conductor*%
%ADD22C,0.200000*%
%TD*%
G04 APERTURE END LIST*
D10*
%TO.P,SW4,1*%
%TO.N,Net-(RN3B-R2.1)*%
X15240000Y36830000D03*
D11*
%TO.P,SW4,2*%
%TO.N,Net-(RN3C-R3.1)*%
X12700000Y36830000D03*
%TO.P,SW4,3*%
%TO.N,Net-(RN3D-R4.1)*%
X10160000Y36830000D03*
%TO.P,SW4,4*%
%TO.N,GND_MCU*%
X10160000Y39370000D03*
%TO.P,SW4,5*%
X12700000Y39370000D03*
%TO.P,SW4,6*%
X15240000Y39370000D03*
%TD*%
D12*
%TO.P,J1,5,GND*%
%TO.N,GND_MCU*%
X26955029Y45202208D03*
X21305027Y45202208D03*
%TD*%
D13*
%TO.P,J6,1,Pin_1*%
%TO.N,+24V_BUS*%
X11000000Y-37000000D03*
%TO.P,J6,2,Pin_3*%
%TO.N,GND_BUS*%
X14500000Y-37000000D03*
%TO.P,J6,3,3*%
%TO.N,/A*%
X18000000Y-37000000D03*
%TO.P,J6,4,4*%
%TO.N,/B*%
X21500000Y-37000000D03*
%TO.P,J6,5,Pin_9*%
%TO.N,PE*%
X25000000Y-37000000D03*
%TO.P,J6,6,Pin_2*%
%TO.N,+24V_BUS*%
X11000000Y-39500000D03*
%TO.P,J6,7,Pin_4*%
%TO.N,GND_BUS*%
X14500000Y-39500000D03*
%TO.P,J6,8,Pin_6*%
%TO.N,/A*%
X18000000Y-39500000D03*
%TO.P,J6,9,Pin_8*%
%TO.N,/B*%
X21500000Y-39500000D03*
%TO.P,J6,10,Pin_10*%
%TO.N,PE*%
X25000000Y-39500000D03*
%TD*%
D14*
%TO.P,U4,1*%
%TO.N,GND_BUS*%
X29000000Y-36000000D03*
%TD*%
D15*
%TO.P,PS1,1,Vin*%
%TO.N,+24V_BUS*%
X7416800Y-29210000D03*
%TO.P,PS1,2,GND*%
%TO.N,GND_BUS*%
X9956800Y-29210000D03*
%TO.P,PS1,4,0V*%
%TO.N,GND_MCU*%
X15036800Y-29210000D03*
%TO.P,PS1,6,+V*%
%TO.N,+5V_MCU*%
X20116800Y-29210000D03*
%TD*%
D16*
%TO.P,J7,1,Pin_1*%
%TO.N,/UART_RTS*%
X6000000Y-10000000D03*
D17*
%TO.P,J7,2,Pin_2*%
%TO.N,/UART_RX*%
X4000000Y-10000000D03*
%TO.P,J7,3,Pin_3*%
%TO.N,/UART_TX*%
X2000000Y-10000000D03*
%TD*%
D14*
%TO.P,U3,1*%
%TO.N,GND_MCU*%
X29000000Y-29000000D03*
%TD*%
D18*
%TO.N,GND_MCU*%
X26100000Y35500000D03*
X5000000Y2500000D03*
X13590000Y20937600D03*
X26000000Y-4500000D03*
X800000Y-12800000D03*
X2540000Y-4812000D03*
X24496900Y22604900D03*
X26000000Y15500000D03*
X14690000Y16810300D03*
X15010000Y-24830000D03*
X2540000Y4812400D03*
X19400000Y10600000D03*
X9525000Y-11355000D03*
X20750000Y41242100D03*
X12490000Y16810200D03*
X24500300Y2927300D03*
X27250000Y41250000D03*
X13500000Y-11300000D03*
X24511900Y-17152000D03*
%TO.N,+3.3V_MCU*%
X28588000Y33388000D03*
X11700000Y32900000D03*
D19*
X29000000Y13499993D03*
D18*
X20447000Y-18415000D03*
X26000000Y33499996D03*
%TO.N,/MOSI_SDA*%
X26000000Y7500003D03*
X20000000Y7500002D03*
%TO.N,/CS0*%
X10250000Y28750000D03*
X26000000Y29500000D03*
%TO.N,/SCK_SCL*%
X26000000Y6500000D03*
X20750000Y6750000D03*
%TO.N,/MISO*%
X20000000Y30500000D03*
X26000000Y31500000D03*
%TO.N,/CS1*%
X26750000Y28500000D03*
X12000000Y28750000D03*
%TO.N,/UART_TX*%
X13589000Y-12954000D03*
%TO.N,/CS2*%
X16500000Y12000000D03*
X26000000Y27500000D03*
X13000000Y7000000D03*
%TO.N,/CS3*%
X14500000Y6500000D03*
X26750000Y26500000D03*
X18000000Y11000000D03*
%TO.N,GND_BUS*%
X1905000Y-24000000D03*
%TO.N,Net-(R5-Pad1)*%
X2439100Y-3098000D03*
X14100000Y1750000D03*
%TO.N,/LED1*%
X26000000Y-8500000D03*
X6154999Y27904999D03*
%TO.N,/LED2*%
X26000000Y-9500000D03*
X5250000Y29000000D03*
X11750000Y10500000D03*
%TO.N,/LED0*%
X7000000Y28750000D03*
X26000000Y-7499997D03*
%TD*%
D20*
%TO.N,+3.3V_MCU*%
X30200000Y13262000D02*
X30200000Y31776000D01*
D21*
X29037993Y13462000D02*
X29238000Y13462000D01*
X26000000Y33499996D02*
X25999996Y33500000D01*
D20*
X30000000Y13462000D02*
X30200000Y13262000D01*
X30200000Y-17044000D02*
X30200000Y13262000D01*
X20447000Y-18415000D02*
X28829000Y-18415000D01*
X30200000Y31776000D02*
X28588000Y33388000D01*
D21*
X25999996Y33500000D02*
X14500000Y33500000D01*
D20*
X29037993Y13462000D02*
X30000000Y13462000D01*
X28588000Y33388000D02*
X28575000Y33401000D01*
X28829000Y-18415000D02*
X30200000Y-17044000D01*
D21*
X14500000Y33500000D02*
X13900000Y32900000D01*
D20*
X29000000Y13499993D02*
X29037993Y13462000D01*
D21*
X13900000Y32900000D02*
X11700000Y32900000D01*
%TO.N,/MOSI_SDA*%
X26000000Y7500003D02*
X22499999Y7500003D01*
X22499998Y7500002D02*
X20000000Y7500002D01*
X22499999Y7500003D02*
X22499998Y7500002D01*
%TO.N,/CS0*%
X10250000Y28750000D02*
X11000000Y29500000D01*
X11000000Y29500000D02*
X26000000Y29500000D01*
%TO.N,/SCK_SCL*%
X22250000Y6750000D02*
X20750000Y6750000D01*
X22500000Y6500000D02*
X22250000Y6750000D01*
X26000000Y6500000D02*
X22500000Y6500000D01*
%TO.N,/MISO*%
X23000000Y31500000D02*
X22000000Y30500000D01*
X22000000Y30500000D02*
X20000000Y30500000D01*
X26000000Y31500000D02*
X23000000Y31500000D01*
%TO.N,/CS1*%
X12000000Y28750000D02*
X12251000Y28750000D01*
X12501000Y28500000D02*
X26750000Y28500000D01*
X12251000Y28750000D02*
X12501000Y28500000D01*
%TO.N,/UART_TX*%
X4954000Y-12954000D02*
X13589000Y-12954000D01*
X2000000Y-10000000D02*
X4954000Y-12954000D01*
%TO.N,/CS2*%
X16500000Y12000000D02*
X16500000Y18000000D01*
X16000000Y10000000D02*
X13000000Y7000000D01*
X16500000Y18000000D02*
X26000000Y27500000D01*
X16500000Y12000000D02*
X16000000Y11500000D01*
X16000000Y11500000D02*
X16000000Y10000000D01*
%TO.N,/CS3*%
X18000000Y18791480D02*
X18000000Y11000000D01*
X25708520Y26500000D02*
X18000000Y18791480D01*
X14500000Y7500000D02*
X14500000Y6500000D01*
X18000000Y11000000D02*
X14500000Y7500000D01*
X26750000Y26500000D02*
X25708520Y26500000D01*
D20*
%TO.N,GND_BUS*%
X26956000Y-33956000D02*
X17544000Y-33956000D01*
D21*
X3623000Y-25718000D02*
X6464800Y-25718000D01*
X6464800Y-25718000D02*
X9956800Y-29210000D01*
D22*
X14500000Y-37000000D02*
X14280900Y-37000000D01*
D21*
X1905000Y-24000000D02*
X3623000Y-25718000D01*
D20*
X17544000Y-33956000D02*
X14500000Y-37000000D01*
X14350736Y-37000000D02*
X9956800Y-32606064D01*
X9956800Y-32606064D02*
X9956800Y-29210000D01*
X14500000Y-37000000D02*
X14350736Y-37000000D01*
X29000000Y-36000000D02*
X26956000Y-33956000D01*
%TO.N,+24V_BUS*%
X7416800Y-33416800D02*
X7416800Y-29210000D01*
X11000000Y-37000000D02*
X7416800Y-33416800D01*
D21*
%TO.N,Net-(R5-Pad1)*%
X8902000Y-3098000D02*
X2439100Y-3098000D01*
X14100000Y1750000D02*
X13750000Y1750000D01*
X13750000Y1750000D02*
X8902000Y-3098000D01*
D22*
%TO.N,Net-(RN3D-R4.1)*%
X10270000Y36830000D02*
X10160000Y36830000D01*
D21*
%TO.N,/LED1*%
X11249000Y8207521D02*
X12501000Y9459520D01*
X11249000Y6542483D02*
X11249000Y8207521D01*
X6250000Y17062075D02*
X6250000Y27809998D01*
X26000000Y-8500000D02*
X25937928Y-8500000D01*
X12501000Y9459520D02*
X12501000Y10811075D01*
X23618964Y-6181036D02*
X23618964Y-5827481D01*
X6250000Y27809998D02*
X6154999Y27904999D01*
X12501000Y10811075D02*
X6250000Y17062075D01*
X23618964Y-5827481D02*
X11249000Y6542483D01*
X25937928Y-8500000D02*
X23618964Y-6181036D01*
%TO.N,/LED2*%
X11750000Y10853555D02*
X11750000Y10500000D01*
X11750000Y9417041D02*
X11750000Y10500000D01*
X10748000Y6334963D02*
X10748000Y8415043D01*
X10748000Y8415043D02*
X11750000Y9417041D01*
X5749000Y16854555D02*
X11750000Y10853555D01*
X5749000Y27248923D02*
X5749000Y16854555D01*
X23117964Y-6035001D02*
X10748000Y6334963D01*
X5250000Y29000000D02*
X5250000Y27747923D01*
X23117964Y-6680039D02*
X23117964Y-6035001D01*
X5250000Y27747923D02*
X5749000Y27248923D01*
X26000000Y-9500000D02*
X25937925Y-9500000D01*
X25937925Y-9500000D02*
X23117964Y-6680039D01*
%TO.N,/LED0*%
X13042480Y9292480D02*
X13042480Y10978115D01*
X11750000Y8000000D02*
X13042480Y9292480D01*
X11750000Y6750003D02*
X11750000Y8000000D01*
X13042480Y10978115D02*
X6751000Y17269595D01*
X6905999Y27593924D02*
X6905999Y28655999D01*
X26000000Y-7499997D02*
X11750000Y6750003D01*
X6905999Y28655999D02*
X7000000Y28750000D01*
X6751000Y27438925D02*
X6905999Y27593924D01*
X6751000Y17269595D02*
X6751000Y27438925D01*
%TD*%
%TA.AperFunction,Conductor*%
%TO.N,PE*%
G36*
X11443039Y-21019685D02*
G01*
X11488794Y-21072489D01*
X11500000Y-21124000D01*
X11500000Y-33142088D01*
X11480315Y-33209127D01*
X11427511Y-33254882D01*
X11358353Y-33264826D01*
X11294797Y-33235801D01*
X11288319Y-33229769D01*
X10493619Y-32435069D01*
X10460134Y-32373746D01*
X10457300Y-32347388D01*
X10457300Y-30205281D01*
X10476985Y-30138242D01*
X10512410Y-30102178D01*
X10626455Y-30025977D01*
X10772777Y-29879655D01*
X10887741Y-29707598D01*
X10966930Y-29516420D01*
X11007300Y-29313465D01*
X11007300Y-29106535D01*
X10966930Y-28903580D01*
X10887741Y-28712402D01*
X10772777Y-28540345D01*
X10772775Y-28540342D01*
X10626457Y-28394024D01*
X10519228Y-28322377D01*
X10454398Y-28279059D01*
X10263220Y-28199870D01*
X10263212Y-28199868D01*
X10060269Y-28159500D01*
X10060265Y-28159500D01*
X9853335Y-28159500D01*
X9853330Y-28159500D01*
X9650387Y-28199868D01*
X9650375Y-28199871D01*
X9579828Y-28229093D01*
X9510359Y-28236562D01*
X9447880Y-28205287D01*
X9444695Y-28202213D01*
X6680013Y-25437531D01*
X6680008Y-25437527D01*
X6600090Y-25391387D01*
X6600089Y-25391386D01*
X6600088Y-25391386D01*
X6510944Y-25367500D01*
X6510943Y-25367500D01*
X3819544Y-25367500D01*
X3752505Y-25347815D01*
X3731863Y-25331181D01*
X2541819Y-24141137D01*
X2508334Y-24079814D01*
X2505500Y-24053456D01*
X2505500Y-23920945D01*
X2505500Y-23920943D01*
X2464577Y-23768216D01*
X2464573Y-23768209D01*
X2385524Y-23631290D01*
X2385518Y-23631282D01*
X2273717Y-23519481D01*
X2273709Y-23519475D01*
X2136790Y-23440426D01*
X2136786Y-23440424D01*
X2136784Y-23440423D01*
X1984057Y-23399500D01*
X1825943Y-23399500D01*
X1673216Y-23440423D01*
X1673209Y-23440426D01*
X1536290Y-23519475D01*
X1536282Y-23519481D01*
X1424481Y-23631282D01*
X1424475Y-23631290D01*
X1345426Y-23768209D01*
X1345423Y-23768216D01*
X1304500Y-23920943D01*
X1304500Y-24079057D01*
X1321135Y-24141137D01*
X1345423Y-24231783D01*
X1345426Y-24231790D01*
X1424475Y-24368709D01*
X1424479Y-24368714D01*
X1424480Y-24368716D01*
X1536284Y-24480520D01*
X1536286Y-24480521D01*
X1536290Y-24480524D01*
X1673209Y-24559573D01*
X1673216Y-24559577D01*
X1825943Y-24600500D01*
X1825945Y-24600500D01*
X1958456Y-24600500D01*
X2025495Y-24620185D01*
X2046137Y-24636819D01*
X3407788Y-25998470D01*
X3487712Y-26044614D01*
X3576856Y-26068500D01*
X6268256Y-26068500D01*
X6335295Y-26088185D01*
X6355937Y-26104819D01*
X8949013Y-28697895D01*
X8982498Y-28759218D01*
X8977514Y-28828910D01*
X8975893Y-28833028D01*
X8946671Y-28903575D01*
X8946668Y-28903587D01*
X8906300Y-29106530D01*
X8906300Y-29313469D01*
X8946668Y-29516412D01*
X8946670Y-29516420D01*
X9025858Y-29707596D01*
X9140824Y-29879657D01*
X9287140Y-30025973D01*
X9287143Y-30025975D01*
X9287145Y-30025977D01*
X9342555Y-30063000D01*
X9401190Y-30102178D01*
X9445996Y-30155791D01*
X9456300Y-30205281D01*
X9456300Y-32671955D01*
X9490408Y-32799251D01*
X9523354Y-32856314D01*
X9556300Y-32913378D01*
X9556302Y-32913380D01*
X13288861Y-36645939D01*
X13322346Y-36707262D01*
X13323653Y-36753018D01*
X13299500Y-36905513D01*
X13299500Y-37094486D01*
X13329059Y-37281118D01*
X13387454Y-37460836D01*
X13468722Y-37620332D01*
X13473240Y-37629199D01*
X13584310Y-37782073D01*
X13717927Y-37915690D01*
X13870801Y-38026760D01*
X13950347Y-38067290D01*
X14039163Y-38112545D01*
X14039165Y-38112545D01*
X14039168Y-38112547D01*
X14099251Y-38132069D01*
X14156926Y-38171507D01*
X14184124Y-38235866D01*
X14172209Y-38304712D01*
X14124965Y-38356188D01*
X14099253Y-38367930D01*
X14080756Y-38373939D01*
X14039163Y-38387454D01*
X13870800Y-38473240D01*
X13783579Y-38536610D01*
X13717927Y-38584310D01*
X13717925Y-38584312D01*
X13717924Y-38584312D01*
X13584312Y-38717924D01*
X13584312Y-38717925D01*
X13584310Y-38717927D01*
X13547990Y-38767917D01*
X13473240Y-38870800D01*
X13387454Y-39039163D01*
X13329059Y-39218881D01*
X13299500Y-39405513D01*
X13299500Y-39594486D01*
X13329059Y-39781118D01*
X13387454Y-39960836D01*
X13446033Y-40075802D01*
X13473240Y-40129199D01*
X13584310Y-40282073D01*
X13717927Y-40415690D01*
X13870801Y-40526760D01*
X13950347Y-40567290D01*
X14039163Y-40612545D01*
X14039165Y-40612545D01*
X14039168Y-40612547D01*
X14135497Y-40643846D01*
X14218881Y-40670940D01*
X14405514Y-40700500D01*
X14405519Y-40700500D01*
X14594486Y-40700500D01*
X14781118Y-40670940D01*
X14960832Y-40612547D01*
X15129199Y-40526760D01*
X15282073Y-40415690D01*
X15415690Y-40282073D01*
X15526760Y-40129199D01*
X15612547Y-39960832D01*
X15670940Y-39781118D01*
X15682981Y-39705096D01*
X15700500Y-39594486D01*
X15700500Y-39405513D01*
X15670940Y-39218881D01*
X15612545Y-39039163D01*
X15567290Y-38950347D01*
X15526760Y-38870801D01*
X15415690Y-38717927D01*
X15282073Y-38584310D01*
X15129199Y-38473240D01*
X15107912Y-38462394D01*
X14960834Y-38387454D01*
X14960833Y-38387453D01*
X14960832Y-38387453D01*
X14900748Y-38367930D01*
X14843073Y-38328493D01*
X14815875Y-38264135D01*
X14827790Y-38195288D01*
X14875034Y-38143813D01*
X14900746Y-38132069D01*
X14960832Y-38112547D01*
X15129199Y-38026760D01*
X15282073Y-37915690D01*
X15415690Y-37782073D01*
X15526760Y-37629199D01*
X15612547Y-37460832D01*
X15670940Y-37281118D01*
X15700500Y-37094486D01*
X15700500Y-36905513D01*
X16799500Y-36905513D01*
X16799500Y-37094486D01*
X16829059Y-37281118D01*
X16887454Y-37460836D01*
X16968722Y-37620332D01*
X16973240Y-37629199D01*
X17084310Y-37782073D01*
X17217927Y-37915690D01*
X17370801Y-38026760D01*
X17450347Y-38067290D01*
X17539163Y-38112545D01*
X17539165Y-38112545D01*
X17539168Y-38112547D01*
X17599251Y-38132069D01*
X17656926Y-38171507D01*
X17684124Y-38235866D01*
X17672209Y-38304712D01*
X17624965Y-38356188D01*
X17599253Y-38367930D01*
X17580756Y-38373939D01*
X17539163Y-38387454D01*
X17370800Y-38473240D01*
X17283579Y-38536610D01*
X17217927Y-38584310D01*
X17217925Y-38584312D01*
X17217924Y-38584312D01*
X17084312Y-38717924D01*
X17084312Y-38717925D01*
X17084310Y-38717927D01*
X17047990Y-38767917D01*
X16973240Y-38870800D01*
X16887454Y-39039163D01*
X16829059Y-39218881D01*
X16799500Y-39405513D01*
X16799500Y-39594486D01*
X16829059Y-39781118D01*
X16887454Y-39960836D01*
X16946033Y-40075802D01*
X16973240Y-40129199D01*
X17084310Y-40282073D01*
X17217927Y-40415690D01*
X17370801Y-40526760D01*
X17450347Y-40567290D01*
X17539163Y-40612545D01*
X17539165Y-40612545D01*
X17539168Y-40612547D01*
X17635497Y-40643846D01*
X17718881Y-40670940D01*
X17905514Y-40700500D01*
X17905519Y-40700500D01*
X18094486Y-40700500D01*
X18281118Y-40670940D01*
X18460832Y-40612547D01*
X18629199Y-40526760D01*
X18782073Y-40415690D01*
X18915690Y-40282073D01*
X19026760Y-40129199D01*
X19112547Y-39960832D01*
X19170940Y-39781118D01*
X19182981Y-39705096D01*
X19200500Y-39594486D01*
X19200500Y-39405513D01*
X19170940Y-39218881D01*
X19112545Y-39039163D01*
X19067290Y-38950347D01*
X19026760Y-38870801D01*
X18915690Y-38717927D01*
X18782073Y-38584310D01*
X18629199Y-38473240D01*
X18607912Y-38462394D01*
X18460834Y-38387454D01*
X18460833Y-38387453D01*
X18460832Y-38387453D01*
X18400748Y-38367930D01*
X18343073Y-38328493D01*
X18315875Y-38264135D01*
X18327790Y-38195288D01*
X18375034Y-38143813D01*
X18400746Y-38132069D01*
X18460832Y-38112547D01*
X18629199Y-38026760D01*
X18782073Y-37915690D01*
X18915690Y-37782073D01*
X19026760Y-37629199D01*
X19112547Y-37460832D01*
X19170940Y-37281118D01*
X19200500Y-37094486D01*
X19200500Y-36905513D01*
X20299500Y-36905513D01*
X20299500Y-37094486D01*
X20329059Y-37281118D01*
X20387454Y-37460836D01*
X20468722Y-37620332D01*
X20473240Y-37629199D01*
X20584310Y-37782073D01*
X20717927Y-37915690D01*
X20870801Y-38026760D01*
X20950347Y-38067290D01*
X21039163Y-38112545D01*
X21039165Y-38112545D01*
X21039168Y-38112547D01*
X21099251Y-38132069D01*
X21156926Y-38171507D01*
X21184124Y-38235866D01*
X21172209Y-38304712D01*
X21124965Y-38356188D01*
X21099253Y-38367930D01*
X21080756Y-38373939D01*
X21039163Y-38387454D01*
X20870800Y-38473240D01*
X20783579Y-38536610D01*
X20717927Y-38584310D01*
X20717925Y-38584312D01*
X20717924Y-38584312D01*
X20584312Y-38717924D01*
X20584312Y-38717925D01*
X20584310Y-38717927D01*
X20547990Y-38767917D01*
X20473240Y-38870800D01*
X20387454Y-39039163D01*
X20329059Y-39218881D01*
X20299500Y-39405513D01*
X20299500Y-39594486D01*
X20329059Y-39781118D01*
X20387454Y-39960836D01*
X20446033Y-40075802D01*
X20473240Y-40129199D01*
X20584310Y-40282073D01*
X20717927Y-40415690D01*
X20870801Y-40526760D01*
X20950347Y-40567290D01*
X21039163Y-40612545D01*
X21039165Y-40612545D01*
X21039168Y-40612547D01*
X21135497Y-40643846D01*
X21218881Y-40670940D01*
X21405514Y-40700500D01*
X21405519Y-40700500D01*
X21594486Y-40700500D01*
X21781118Y-40670940D01*
X21960832Y-40612547D01*
X22129199Y-40526760D01*
X22282073Y-40415690D01*
X22415690Y-40282073D01*
X22526760Y-40129199D01*
X22612547Y-39960832D01*
X22670940Y-39781118D01*
X22682981Y-39705096D01*
X22700500Y-39594486D01*
X22700500Y-39405514D01*
X22699068Y-39396474D01*
X22699068Y-39396473D01*
X22670940Y-39218881D01*
X22612545Y-39039163D01*
X22567290Y-38950347D01*
X22526760Y-38870801D01*
X22415690Y-38717927D01*
X22282073Y-38584310D01*
X22129199Y-38473240D01*
X22107912Y-38462394D01*
X21960834Y-38387454D01*
X21960833Y-38387453D01*
X21960832Y-38387453D01*
X21900748Y-38367930D01*
X21878314Y-38352590D01*
X21854078Y-38340293D01*
X21849897Y-38333159D01*
X21843073Y-38328493D01*
X21832493Y-38303459D01*
X21818753Y-38280011D01*
X21819093Y-38271750D01*
X21815875Y-38264135D01*
X21820509Y-38237354D01*
X21821628Y-38210200D01*
X21826380Y-38203434D01*
X21827790Y-38195288D01*
X21846166Y-38175266D01*
X21861788Y-38153026D01*
X21871249Y-38147936D01*
X21875034Y-38143813D01*
X21892239Y-38135182D01*
X21896431Y-38133472D01*
X21960832Y-38112547D01*
X22129199Y-38026760D01*
X22282073Y-37915690D01*
X22415690Y-37782073D01*
X22526760Y-37629199D01*
X22612547Y-37460832D01*
X22670940Y-37281118D01*
X22700500Y-37094486D01*
X22700500Y-36905514D01*
X22699068Y-36896474D01*
X22699068Y-36896473D01*
X22696767Y-36881947D01*
X23500000Y-36881947D01*
X23500000Y-37118052D01*
X23536934Y-37351247D01*
X23609897Y-37575802D01*
X23717081Y-37786163D01*
X23717089Y-37786176D01*
X23747584Y-37828149D01*
X23747586Y-37828150D01*
X24339979Y-37235756D01*
X24379668Y-37331574D01*
X24456274Y-37446224D01*
X24553776Y-37543726D01*
X24668426Y-37620332D01*
X24764243Y-37660020D01*
X24174264Y-38250000D01*
X24764243Y-38839979D01*
X24668426Y-38879668D01*
X24553776Y-38956274D01*
X24456274Y-39053776D01*
X24379668Y-39168426D01*
X24339979Y-39264242D01*
X23747585Y-38671848D01*
X23747584Y-38671849D01*
X23717087Y-38713824D01*
X23609897Y-38924197D01*
X23536934Y-39148752D01*
X23500000Y-39381947D01*
X23500000Y-39618052D01*
X23536934Y-39851247D01*
X23609897Y-40075802D01*
X23717081Y-40286163D01*
X23717089Y-40286176D01*
X23747584Y-40328149D01*
X23747586Y-40328150D01*
X24339979Y-39735756D01*
X24379668Y-39831574D01*
X24456274Y-39946224D01*
X24553776Y-40043726D01*
X24668426Y-40120332D01*
X24764243Y-40160020D01*
X24171849Y-40752413D01*
X24213828Y-40782914D01*
X24424197Y-40890102D01*
X24648752Y-40963065D01*
X24648751Y-40963065D01*
X24881948Y-41000000D01*
X25118052Y-41000000D01*
X25351247Y-40963065D01*
X25575802Y-40890102D01*
X25786171Y-40782914D01*
X25828149Y-40752413D01*
X25235756Y-40160020D01*
X25331574Y-40120332D01*
X25446224Y-40043726D01*
X25543726Y-39946224D01*
X25620332Y-39831574D01*
X25660020Y-39735756D01*
X26252413Y-40328149D01*
X26282914Y-40286171D01*
X26390102Y-40075802D01*
X26463065Y-39851247D01*
X26500000Y-39618052D01*
X26500000Y-39381947D01*
X26463065Y-39148752D01*
X26390102Y-38924197D01*
X26282914Y-38713828D01*
X26252413Y-38671849D01*
X25660020Y-39264242D01*
X25620332Y-39168426D01*
X25543726Y-39053776D01*
X25446224Y-38956274D01*
X25331574Y-38879668D01*
X25235756Y-38839979D01*
X25825736Y-38250000D01*
X25235756Y-37660020D01*
X25331574Y-37620332D01*
X25446224Y-37543726D01*
X25543726Y-37446224D01*
X25620332Y-37331574D01*
X25660020Y-37235756D01*
X26252413Y-37828149D01*
X26282914Y-37786171D01*
X26390102Y-37575802D01*
X26463065Y-37351247D01*
X26500000Y-37118052D01*
X26500000Y-36881947D01*
X26463065Y-36648752D01*
X26390102Y-36424197D01*
X26282914Y-36213828D01*
X26252413Y-36171849D01*
X25660020Y-36764242D01*
X25620332Y-36668426D01*
X25543726Y-36553776D01*
X25446224Y-36456274D01*
X25331574Y-36379668D01*
X25235757Y-36339979D01*
X25828150Y-35747586D01*
X25828149Y-35747584D01*
X25786176Y-35717089D01*
X25786163Y-35717081D01*
X25575802Y-35609897D01*
X25351247Y-35536934D01*
X25351248Y-35536934D01*
X25118052Y-35500000D01*
X24881948Y-35500000D01*
X24648752Y-35536934D01*
X24424197Y-35609897D01*
X24213824Y-35717087D01*
X24171849Y-35747584D01*
X24171848Y-35747585D01*
X24764243Y-36339979D01*
X24668426Y-36379668D01*
X24553776Y-36456274D01*
X24456274Y-36553776D01*
X24379668Y-36668426D01*
X24339979Y-36764242D01*
X23747585Y-36171848D01*
X23747584Y-36171849D01*
X23717087Y-36213824D01*
X23609897Y-36424197D01*
X23536934Y-36648752D01*
X23500000Y-36881947D01*
X22696767Y-36881947D01*
X22670940Y-36718881D01*
X22627093Y-36583936D01*
X22612547Y-36539168D01*
X22612545Y-36539165D01*
X22612545Y-36539163D01*
X22567290Y-36450347D01*
X22526760Y-36370801D01*
X22415690Y-36217927D01*
X22282073Y-36084310D01*
X22129199Y-35973240D01*
X21995918Y-35905330D01*
X21960836Y-35887454D01*
X21781118Y-35829059D01*
X21594486Y-35799500D01*
X21594481Y-35799500D01*
X21405519Y-35799500D01*
X21405514Y-35799500D01*
X21218881Y-35829059D01*
X21039163Y-35887454D01*
X20870800Y-35973240D01*
X20783579Y-36036610D01*
X20717927Y-36084310D01*
X20717925Y-36084312D01*
X20717924Y-36084312D01*
X20584312Y-36217924D01*
X20584312Y-36217925D01*
X20584310Y-36217927D01*
X20536610Y-36283579D01*
X20473240Y-36370800D01*
X20387454Y-36539163D01*
X20329059Y-36718881D01*
X20299500Y-36905513D01*
X19200500Y-36905513D01*
X19170940Y-36718881D01*
X19127093Y-36583936D01*
X19112547Y-36539168D01*
X19112545Y-36539165D01*
X19112545Y-36539163D01*
X19067290Y-36450347D01*
X19026760Y-36370801D01*
X18915690Y-36217927D01*
X18782073Y-36084310D01*
X18629199Y-35973240D01*
X18460836Y-35887454D01*
X18281118Y-35829059D01*
X18094486Y-35799500D01*
X18094481Y-35799500D01*
X17905519Y-35799500D01*
X17905514Y-35799500D01*
X17718881Y-35829059D01*
X17539163Y-35887454D01*
X17370800Y-35973240D01*
X17283579Y-36036610D01*
X17217927Y-36084310D01*
X17217925Y-36084312D01*
X17217924Y-36084312D01*
X17084312Y-36217924D01*
X17084312Y-36217925D01*
X17084310Y-36217927D01*
X17036610Y-36283579D01*
X16973240Y-36370800D01*
X16887454Y-36539163D01*
X16829059Y-36718881D01*
X16799500Y-36905513D01*
X15700500Y-36905513D01*
X15683125Y-36795818D01*
X15670940Y-36718882D01*
X15649784Y-36653774D01*
X15647790Y-36583936D01*
X15680033Y-36527779D01*
X17714995Y-34492819D01*
X17776318Y-34459334D01*
X17802676Y-34456500D01*
X26697324Y-34456500D01*
X26764363Y-34476185D01*
X26785005Y-34492819D01*
X27931692Y-35639506D01*
X27965177Y-35700829D01*
X27965628Y-35751378D01*
X27937000Y-35895299D01*
X27937000Y-35895304D01*
X27937000Y-36104696D01*
X27937000Y-36104698D01*
X27936999Y-36104698D01*
X27977849Y-36310060D01*
X27977851Y-36310066D01*
X28057982Y-36503521D01*
X28174310Y-36677618D01*
X28174316Y-36677626D01*
X28322373Y-36825683D01*
X28322381Y-36825689D01*
X28496478Y-36942017D01*
X28553140Y-36965487D01*
X28689934Y-37022149D01*
X28689938Y-37022149D01*
X28689939Y-37022150D01*
X28895301Y-37063000D01*
X28895304Y-37063000D01*
X29104698Y-37063000D01*
X29242863Y-37035516D01*
X29310066Y-37022149D01*
X29503519Y-36942018D01*
X29503519Y-36942017D01*
X29503521Y-36942017D01*
X29593422Y-36881947D01*
X29677623Y-36825686D01*
X29825686Y-36677623D01*
X29918202Y-36539163D01*
X29942017Y-36503521D01*
X29942018Y-36503519D01*
X30022149Y-36310066D01*
X30041293Y-36213824D01*
X30063000Y-36104698D01*
X30063000Y-35895301D01*
X30022150Y-35689939D01*
X30022149Y-35689938D01*
X30022149Y-35689934D01*
X29942018Y-35496481D01*
X29942017Y-35496478D01*
X29825689Y-35322381D01*
X29825683Y-35322373D01*
X29677626Y-35174316D01*
X29677618Y-35174310D01*
X29503521Y-35057982D01*
X29310066Y-34977851D01*
X29310060Y-34977849D01*
X29104698Y-34937000D01*
X29104696Y-34937000D01*
X28895304Y-34937000D01*
X28895301Y-34937000D01*
X28751378Y-34965628D01*
X28681787Y-34959401D01*
X28639506Y-34931692D01*
X27419495Y-33711681D01*
X27386010Y-33650358D01*
X27390994Y-33580666D01*
X27432866Y-33524733D01*
X27498330Y-33500316D01*
X27507176Y-33500000D01*
X30575500Y-33500000D01*
X30642539Y-33519685D01*
X30688294Y-33572489D01*
X30699500Y-33624000D01*
X30699500Y-42047598D01*
X30701970Y-42055198D01*
X30711777Y-42085381D01*
X30719979Y-42115989D01*
X30723965Y-42122894D01*
X30727987Y-42135273D01*
X30727988Y-42135275D01*
X30728912Y-42138119D01*
X30728914Y-42138123D01*
X30728915Y-42138125D01*
X30747634Y-42163889D01*
X30759540Y-42184511D01*
X30770789Y-42195760D01*
X30776519Y-42203647D01*
X30776522Y-42203650D01*
X30784866Y-42215134D01*
X30784867Y-42215134D01*
X30784868Y-42215136D01*
X30796344Y-42223474D01*
X30796343Y-42223474D01*
X30804241Y-42229212D01*
X30815489Y-42240460D01*
X30836102Y-42252360D01*
X30841365Y-42256184D01*
X30861871Y-42271083D01*
X30861877Y-42271086D01*
X30864712Y-42272007D01*
X30864711Y-42272007D01*
X30877104Y-42276033D01*
X30884011Y-42280021D01*
X30914612Y-42288220D01*
X30917701Y-42289224D01*
X30917704Y-42289225D01*
X30952400Y-42300499D01*
X30952403Y-42300499D01*
X30952405Y-42300500D01*
X30996396Y-42300500D01*
X31003605Y-42300709D01*
X31306184Y-42318333D01*
X31320504Y-42320006D01*
X31615441Y-42372011D01*
X31629450Y-42375331D01*
X31817098Y-42431510D01*
X31916365Y-42461229D01*
X31929915Y-42466161D01*
X32014134Y-42502489D01*
X32204911Y-42584782D01*
X32217783Y-42591247D01*
X32470809Y-42737332D01*
X32477143Y-42740989D01*
X32489190Y-42748913D01*
X32729412Y-42927751D01*
X32740459Y-42937020D01*
X32958291Y-43142534D01*
X32968186Y-43153022D01*
X33160686Y-43382433D01*
X33169297Y-43394000D01*
X33333866Y-43644215D01*
X33341075Y-43656700D01*
X33408280Y-43790516D01*
X33475483Y-43924330D01*
X33481194Y-43937570D01*
X33583622Y-44218987D01*
X33587758Y-44232802D01*
X33656823Y-44524209D01*
X33659327Y-44538409D01*
X33694095Y-44835867D01*
X33694933Y-44850263D01*
X33694933Y-45149736D01*
X33694095Y-45164132D01*
X33659327Y-45461590D01*
X33656823Y-45475790D01*
X33587758Y-45767197D01*
X33583622Y-45781012D01*
X33481194Y-46062429D01*
X33475483Y-46075669D01*
X33341077Y-46343296D01*
X33333866Y-46355784D01*
X33169297Y-46605999D01*
X33160686Y-46617566D01*
X32968186Y-46846977D01*
X32958291Y-46857465D01*
X32740459Y-47062979D01*
X32729412Y-47072248D01*
X32489190Y-47251086D01*
X32477143Y-47259010D01*
X32217790Y-47408748D01*
X32204904Y-47415220D01*
X31929915Y-47533838D01*
X31916365Y-47538770D01*
X31629461Y-47624665D01*
X31615429Y-47627990D01*
X31320505Y-47679992D01*
X31306183Y-47681666D01*
X31003606Y-47699290D01*
X30996396Y-47699500D01*
X8424500Y-47699500D01*
X8357461Y-47679815D01*
X8311706Y-47627011D01*
X8300500Y-47575500D01*
X8300500Y-45801178D01*
X8298631Y-45781012D01*
X8263810Y-45405224D01*
X8190742Y-45014346D01*
X8155300Y-44889778D01*
X29599500Y-44889778D01*
X29599500Y-44921635D01*
X29599500Y-45110222D01*
X29606903Y-45156962D01*
X29633985Y-45327952D01*
X29702103Y-45537603D01*
X29702104Y-45537606D01*
X29743079Y-45618022D01*
X29787446Y-45705096D01*
X29802187Y-45734025D01*
X29931752Y-45912358D01*
X29931756Y-45912363D01*
X30087636Y-46068243D01*
X30087641Y-46068247D01*
X30097857Y-46075669D01*
X30265978Y-46197815D01*
X30394375Y-46263237D01*
X30462393Y-46297895D01*
X30462396Y-46297896D01*
X30567221Y-46331955D01*
X30672049Y-46366015D01*
X30889778Y-46400500D01*
X30889779Y-46400500D01*
X31110221Y-46400500D01*
X31110222Y-46400500D01*
X31327951Y-46366015D01*
X31537606Y-46297895D01*
X31734022Y-46197815D01*
X31912365Y-46068242D01*
X32068242Y-45912365D01*
X32197815Y-45734022D01*
X32297895Y-45537606D01*
X32366015Y-45327951D01*
X32400500Y-45110222D01*
X32400500Y-44889778D01*
X32366015Y-44672049D01*
X32317980Y-44524209D01*
X32297896Y-44462396D01*
X32297895Y-44462393D01*
X32263237Y-44394375D01*
X32197815Y-44265978D01*
X32153040Y-44204350D01*
X32068247Y-44087641D01*
X32068243Y-44087636D01*
X31912363Y-43931756D01*
X31912358Y-43931752D01*
X31734025Y-43802187D01*
X31734024Y-43802186D01*
X31734022Y-43802185D01*
X31671096Y-43770122D01*
X31537606Y-43702104D01*
X31537603Y-43702103D01*
X31327952Y-43633985D01*
X31219086Y-43616742D01*
X31110222Y-43599500D01*
X30889778Y-43599500D01*
X30817201Y-43610995D01*
X30672047Y-43633985D01*
X30462396Y-43702103D01*
X30462393Y-43702104D01*
X30265974Y-43802187D01*
X30087641Y-43931752D01*
X30087636Y-43931756D01*
X29931756Y-44087636D01*
X29931752Y-44087641D01*
X29802187Y-44265974D01*
X29702104Y-44462393D01*
X29702103Y-44462396D01*
X29633985Y-44672047D01*
X29633985Y-44672049D01*
X29599500Y-44889778D01*
X8155300Y-44889778D01*
X8081921Y-44631878D01*
X7938274Y-44261082D01*
X7761027Y-43905122D01*
X7551692Y-43567035D01*
X7312055Y-43249704D01*
X7312052Y-43249700D01*
X7044161Y-42955838D01*
X6750299Y-42687947D01*
X6750290Y-42687940D01*
X6456606Y-42466161D01*
X6432965Y-42448308D01*
X6094878Y-42238973D01*
X5738918Y-42061726D01*
X5368122Y-41918079D01*
X5368120Y-41918078D01*
X5368119Y-41918078D01*
X4985661Y-41809260D01*
X4985661Y-41809259D01*
X4594767Y-41736188D01*
X4275044Y-41706562D01*
X4198824Y-41699500D01*
X4198821Y-41699500D01*
X3003481Y-41699500D01*
X2996528Y-41699305D01*
X2704703Y-41682916D01*
X2690885Y-41681359D01*
X2406172Y-41632984D01*
X2392615Y-41629890D01*
X2115100Y-41549939D01*
X2101975Y-41545346D01*
X1835165Y-41434830D01*
X1822637Y-41428797D01*
X1569874Y-41289100D01*
X1558100Y-41281702D01*
X1322569Y-41114584D01*
X1311697Y-41105914D01*
X1096357Y-40913475D01*
X1086524Y-40903642D01*
X894085Y-40688302D01*
X885415Y-40677430D01*
X718297Y-40441899D01*
X710899Y-40430125D01*
X675466Y-40366014D01*
X571198Y-40177355D01*
X565172Y-40164841D01*
X454653Y-39898024D01*
X450060Y-39884899D01*
X370109Y-39607384D01*
X367015Y-39593827D01*
X335020Y-39405519D01*
X318638Y-39309103D01*
X317084Y-39295306D01*
X300695Y-39003472D01*
X300500Y-38996519D01*
X300500Y-38889778D01*
X1599500Y-38889778D01*
X1599500Y-39110221D01*
X1633985Y-39327952D01*
X1702103Y-39537603D01*
X1702104Y-39537606D01*
X1770122Y-39671096D01*
X1787446Y-39705096D01*
X1802187Y-39734025D01*
X1931752Y-39912358D01*
X1931756Y-39912363D01*
X2087636Y-40068243D01*
X2087641Y-40068247D01*
X2220583Y-40164834D01*
X2265978Y-40197815D01*
X2394375Y-40263237D01*
X2462393Y-40297895D01*
X2462396Y-40297896D01*
X2555508Y-40328149D01*
X2672049Y-40366015D01*
X2889778Y-40400500D01*
X2889779Y-40400500D01*
X3110221Y-40400500D01*
X3110222Y-40400500D01*
X3327951Y-40366015D01*
X3537606Y-40297895D01*
X3734022Y-40197815D01*
X3912365Y-40068242D01*
X4068242Y-39912365D01*
X4197815Y-39734022D01*
X4297895Y-39537606D01*
X4366015Y-39327951D01*
X4400500Y-39110222D01*
X4400500Y-38889778D01*
X4366015Y-38672049D01*
X4331955Y-38567221D01*
X4297896Y-38462396D01*
X4297895Y-38462393D01*
X4259710Y-38387453D01*
X4197815Y-38265978D01*
X4177019Y-38237354D01*
X4068247Y-38087641D01*
X4068243Y-38087636D01*
X3912363Y-37931756D01*
X3912358Y-37931752D01*
X3734025Y-37802187D01*
X3734024Y-37802186D01*
X3734022Y-37802185D01*
X3671096Y-37770122D01*
X3537606Y-37702104D01*
X3537603Y-37702103D01*
X3327952Y-37633985D01*
X3219086Y-37616742D01*
X3110222Y-37599500D01*
X2889778Y-37599500D01*
X2817201Y-37610995D01*
X2672047Y-37633985D01*
X2462396Y-37702103D01*
X2462393Y-37702104D01*
X2265974Y-37802187D01*
X2087641Y-37931752D01*
X2087636Y-37931756D01*
X1931756Y-38087636D01*
X1931752Y-38087641D01*
X1802187Y-38265974D01*
X1702104Y-38462393D01*
X1702103Y-38462396D01*
X1633985Y-38672047D01*
X1599500Y-38889778D01*
X300500Y-38889778D01*
X300500Y-29106530D01*
X6366300Y-29106530D01*
X6366300Y-29313469D01*
X6406668Y-29516412D01*
X6406670Y-29516420D01*
X6485858Y-29707596D01*
X6600824Y-29879657D01*
X6747140Y-30025973D01*
X6747143Y-30025975D01*
X6747145Y-30025977D01*
X6802555Y-30063000D01*
X6861190Y-30102178D01*
X6905996Y-30155791D01*
X6916300Y-30205281D01*
X6916300Y-33482691D01*
X6950408Y-33609987D01*
X6973717Y-33650358D01*
X7016300Y-33724114D01*
X7016302Y-33724116D01*
X9819963Y-36527777D01*
X9853448Y-36589100D01*
X9850213Y-36653775D01*
X9829060Y-36718878D01*
X9799500Y-36905513D01*
X9799500Y-37094486D01*
X9829059Y-37281118D01*
X9887454Y-37460836D01*
X9968722Y-37620332D01*
X9973240Y-37629199D01*
X10084310Y-37782073D01*
X10217927Y-37915690D01*
X10370801Y-38026760D01*
X10450347Y-38067290D01*
X10539163Y-38112545D01*
X10539165Y-38112545D01*
X10539168Y-38112547D01*
X10599251Y-38132069D01*
X10656926Y-38171507D01*
X10684124Y-38235866D01*
X10672209Y-38304712D01*
X10624965Y-38356188D01*
X10599253Y-38367930D01*
X10580756Y-38373939D01*
X10539163Y-38387454D01*
X10370800Y-38473240D01*
X10283579Y-38536610D01*
X10217927Y-38584310D01*
X10217925Y-38584312D01*
X10217924Y-38584312D01*
X10084312Y-38717924D01*
X10084312Y-38717925D01*
X10084310Y-38717927D01*
X10047990Y-38767917D01*
X9973240Y-38870800D01*
X9887454Y-39039163D01*
X9829059Y-39218881D01*
X9799500Y-39405513D01*
X9799500Y-39594486D01*
X9829059Y-39781118D01*
X9887454Y-39960836D01*
X9946033Y-40075802D01*
X9973240Y-40129199D01*
X10084310Y-40282073D01*
X10217927Y-40415690D01*
X10370801Y-40526760D01*
X10450347Y-40567290D01*
X10539163Y-40612545D01*
X10539165Y-40612545D01*
X10539168Y-40612547D01*
X10635497Y-40643846D01*
X10718881Y-40670940D01*
X10905514Y-40700500D01*
X10905519Y-40700500D01*
X11094486Y-40700500D01*
X11281118Y-40670940D01*
X11460832Y-40612547D01*
X11629199Y-40526760D01*
X11782073Y-40415690D01*
X11915690Y-40282073D01*
X12026760Y-40129199D01*
X12112547Y-39960832D01*
X12170940Y-39781118D01*
X12182981Y-39705096D01*
X12200500Y-39594486D01*
X12200500Y-39405513D01*
X12170940Y-39218881D01*
X12112545Y-39039163D01*
X12067290Y-38950347D01*
X12026760Y-38870801D01*
X11915690Y-38717927D01*
X11782073Y-38584310D01*
X11629199Y-38473240D01*
X11607912Y-38462394D01*
X11460834Y-38387454D01*
X11460833Y-38387453D01*
X11460832Y-38387453D01*
X11400748Y-38367930D01*
X11343073Y-38328493D01*
X11315875Y-38264135D01*
X11327790Y-38195288D01*
X11375034Y-38143813D01*
X11400746Y-38132069D01*
X11460832Y-38112547D01*
X11629199Y-38026760D01*
X11782073Y-37915690D01*
X11915690Y-37782073D01*
X12026760Y-37629199D01*
X12112547Y-37460832D01*
X12170940Y-37281118D01*
X12200500Y-37094486D01*
X12200500Y-36905513D01*
X12170940Y-36718881D01*
X12127093Y-36583936D01*
X12112547Y-36539168D01*
X12112545Y-36539165D01*
X12112545Y-36539163D01*
X12067290Y-36450347D01*
X12026760Y-36370801D01*
X11915690Y-36217927D01*
X11782073Y-36084310D01*
X11629199Y-35973240D01*
X11460836Y-35887454D01*
X11281118Y-35829059D01*
X11094486Y-35799500D01*
X11094481Y-35799500D01*
X10905519Y-35799500D01*
X10905514Y-35799500D01*
X10718878Y-35829060D01*
X10653775Y-35850213D01*
X10583934Y-35852208D01*
X10527777Y-35819963D01*
X7953619Y-33245805D01*
X7920134Y-33184482D01*
X7917300Y-33158124D01*
X7917300Y-30205281D01*
X7936985Y-30138242D01*
X7972410Y-30102178D01*
X8086455Y-30025977D01*
X8232777Y-29879655D01*
X8347741Y-29707598D01*
X8426930Y-29516420D01*
X8467300Y-29313465D01*
X8467300Y-29106535D01*
X8426930Y-28903580D01*
X8347741Y-28712402D01*
X8232777Y-28540345D01*
X8232775Y-28540342D01*
X8086457Y-28394024D01*
X7979228Y-28322377D01*
X7914398Y-28279059D01*
X7723220Y-28199870D01*
X7723212Y-28199868D01*
X7520269Y-28159500D01*
X7520265Y-28159500D01*
X7313335Y-28159500D01*
X7313330Y-28159500D01*
X7110387Y-28199868D01*
X7110379Y-28199870D01*
X6919203Y-28279058D01*
X6747142Y-28394024D01*
X6600824Y-28540342D01*
X6485858Y-28712403D01*
X6406670Y-28903579D01*
X6406668Y-28903587D01*
X6366300Y-29106530D01*
X300500Y-29106530D01*
X300500Y-21124000D01*
X320185Y-21056961D01*
X372989Y-21011206D01*
X424500Y-21000000D01*
X11376000Y-21000000D01*
X11443039Y-21019685D01*
G37*
%TD.AperFunction*%
%TD*%
%TA.AperFunction,Conductor*%
%TO.N,GND_MCU*%
G36*
X12234075Y39177007D02*
G01*
X12299901Y39062993D01*
X12392993Y38969901D01*
X12507007Y38904075D01*
X12626358Y38872095D01*
X12051687Y38297424D01*
X12221764Y38210766D01*
X12272560Y38162792D01*
X12289355Y38094971D01*
X12266818Y38028836D01*
X12221764Y37989796D01*
X12044594Y37899524D01*
X11953741Y37833515D01*
X11885354Y37783828D01*
X11885352Y37783826D01*
X11885351Y37783826D01*
X11746174Y37644649D01*
X11746174Y37644648D01*
X11746172Y37644646D01*
X11696485Y37576259D01*
X11630476Y37485406D01*
X11540485Y37308787D01*
X11492511Y37257991D01*
X11424690Y37241196D01*
X11358555Y37263733D01*
X11319515Y37308787D01*
X11251879Y37441530D01*
X11229524Y37485405D01*
X11113828Y37644646D01*
X10974646Y37783828D01*
X10815405Y37899524D01*
X10640025Y37988884D01*
X10640024Y37988885D01*
X10638235Y37989796D01*
X10587439Y38037770D01*
X10570644Y38105591D01*
X10593181Y38171726D01*
X10638235Y38210766D01*
X10808311Y38297425D01*
X10233642Y38872095D01*
X10352993Y38904075D01*
X10467007Y38969901D01*
X10560099Y39062993D01*
X10625925Y39177007D01*
X10657905Y39296359D01*
X11232575Y38721689D01*
X11319515Y38892317D01*
X11367489Y38943113D01*
X11435310Y38959908D01*
X11501445Y38937371D01*
X11540485Y38892316D01*
X11627422Y38721688D01*
X12202094Y39296359D01*
X12234075Y39177007D01*
G37*
%TD.AperFunction*%
%TA.AperFunction,Conductor*%
G36*
X14774075Y39177007D02*
G01*
X14839901Y39062993D01*
X14932993Y38969901D01*
X15047007Y38904075D01*
X15166358Y38872095D01*
X14591686Y38297424D01*
X14594478Y38279800D01*
X14608017Y38267014D01*
X14624814Y38199194D01*
X14602279Y38133058D01*
X14547566Y38089605D01*
X14500930Y38080500D01*
X14442130Y38080500D01*
X14442123Y38080499D01*
X14382516Y38074092D01*
X14247671Y38023798D01*
X14247664Y38023794D01*
X14132455Y37937548D01*
X14132452Y37937545D01*
X14046206Y37822336D01*
X14046202Y37822329D01*
X13995908Y37687483D01*
X13991303Y37644646D01*
X13989501Y37627877D01*
X13989500Y37627865D01*
X13989500Y37564268D01*
X13969815Y37497229D01*
X13917011Y37451474D01*
X13847853Y37441530D01*
X13784297Y37470555D01*
X13765182Y37491382D01*
X13708413Y37569517D01*
X13653828Y37644646D01*
X13514646Y37783828D01*
X13355405Y37899524D01*
X13180025Y37988884D01*
X13180024Y37988885D01*
X13178235Y37989796D01*
X13127439Y38037770D01*
X13110644Y38105591D01*
X13133181Y38171726D01*
X13178235Y38210766D01*
X13348311Y38297425D01*
X12773642Y38872095D01*
X12892993Y38904075D01*
X13007007Y38969901D01*
X13100099Y39062993D01*
X13165925Y39177007D01*
X13197905Y39296359D01*
X13772575Y38721689D01*
X13859515Y38892317D01*
X13907489Y38943113D01*
X13975310Y38959908D01*
X14041445Y38937371D01*
X14080485Y38892316D01*
X14167422Y38721688D01*
X14167423Y38721688D01*
X14742094Y39296359D01*
X14774075Y39177007D01*
G37*
%TD.AperFunction*%
%TA.AperFunction,Conductor*%
G36*
X31003605Y47699291D02*
G01*
X31306184Y47681667D01*
X31320504Y47679994D01*
X31615441Y47627989D01*
X31629450Y47624669D01*
X31817098Y47568490D01*
X31916365Y47538771D01*
X31929915Y47533839D01*
X32014134Y47497511D01*
X32204911Y47415218D01*
X32217783Y47408753D01*
X32477143Y47259011D01*
X32489190Y47251087D01*
X32729412Y47072249D01*
X32740459Y47062980D01*
X32958291Y46857466D01*
X32968186Y46846978D01*
X33160686Y46617567D01*
X33169297Y46606000D01*
X33333866Y46355785D01*
X33341075Y46343300D01*
X33408280Y46209484D01*
X33475483Y46075670D01*
X33481194Y46062430D01*
X33583622Y45781013D01*
X33587758Y45767198D01*
X33656823Y45475791D01*
X33659327Y45461591D01*
X33694095Y45164133D01*
X33694933Y45149737D01*
X33694933Y44850264D01*
X33694095Y44835868D01*
X33659327Y44538410D01*
X33656823Y44524210D01*
X33587758Y44232803D01*
X33583622Y44218988D01*
X33481194Y43937571D01*
X33475483Y43924331D01*
X33341077Y43656704D01*
X33333866Y43644216D01*
X33169297Y43394001D01*
X33160686Y43382434D01*
X32968186Y43153023D01*
X32958291Y43142535D01*
X32740459Y42937021D01*
X32729412Y42927752D01*
X32489190Y42748914D01*
X32477143Y42740990D01*
X32217790Y42591252D01*
X32204904Y42584780D01*
X31929915Y42466162D01*
X31916365Y42461230D01*
X31629461Y42375335D01*
X31615429Y42372010D01*
X31320505Y42320008D01*
X31306183Y42318334D01*
X31009118Y42301032D01*
X31009107Y42301031D01*
X31000000Y42300500D01*
X30952405Y42300500D01*
X30914618Y42288223D01*
X30904613Y42285542D01*
X30904607Y42285541D01*
X30884007Y42280021D01*
X30876510Y42276915D01*
X30876390Y42277204D01*
X30864727Y42272013D01*
X30861880Y42271088D01*
X30861873Y42271085D01*
X30841364Y42256184D01*
X30836105Y42252364D01*
X30815489Y42240460D01*
X30804238Y42229211D01*
X30796347Y42223477D01*
X30796346Y42223476D01*
X30784866Y42215134D01*
X30770791Y42195763D01*
X30759540Y42184511D01*
X30747641Y42163903D01*
X30743816Y42158638D01*
X30743816Y42158636D01*
X30728915Y42138127D01*
X30728912Y42138120D01*
X30727991Y42135289D01*
X30727992Y42135288D01*
X30723966Y42122897D01*
X30719979Y42115989D01*
X30711781Y42085398D01*
X30710775Y42082301D01*
X30699501Y42047601D01*
X30699500Y42047592D01*
X30699500Y32707940D01*
X30679815Y32640901D01*
X30627011Y32595146D01*
X30557853Y32585202D01*
X30494297Y32614227D01*
X30487819Y32620259D01*
X29468847Y33639231D01*
X29441967Y33679460D01*
X29434282Y33698013D01*
X29386013Y33814547D01*
X29386011Y33814549D01*
X29386011Y33814551D01*
X29287464Y33962035D01*
X29287461Y33962039D01*
X29162038Y34087462D01*
X29162034Y34087465D01*
X29014553Y34186010D01*
X29014540Y34186017D01*
X28850667Y34253894D01*
X28850658Y34253897D01*
X28676694Y34288500D01*
X28676691Y34288500D01*
X28499309Y34288500D01*
X28499306Y34288500D01*
X28325341Y34253897D01*
X28325332Y34253894D01*
X28161459Y34186017D01*
X28161446Y34186010D01*
X28013965Y34087465D01*
X28013961Y34087462D01*
X27888538Y33962039D01*
X27888535Y33962035D01*
X27789990Y33814554D01*
X27789983Y33814541D01*
X27722106Y33650668D01*
X27722103Y33650659D01*
X27687500Y33476696D01*
X27687500Y33299305D01*
X27722103Y33125342D01*
X27722106Y33125333D01*
X27789983Y32961460D01*
X27789990Y32961447D01*
X27888535Y32813966D01*
X27888538Y32813962D01*
X28013961Y32688539D01*
X28013965Y32688536D01*
X28161449Y32589989D01*
X28161451Y32589989D01*
X28161453Y32589987D01*
X28279114Y32541251D01*
X28296540Y32534033D01*
X28336769Y32507153D01*
X29363181Y31480741D01*
X29396666Y31419418D01*
X29399500Y31393060D01*
X29399500Y14591723D01*
X29379815Y14524684D01*
X29327011Y14478929D01*
X29257853Y14468985D01*
X29251309Y14470106D01*
X29098544Y14500493D01*
X29098541Y14500493D01*
X28901459Y14500493D01*
X28901457Y14500493D01*
X28708170Y14462046D01*
X28708160Y14462043D01*
X28526092Y14386629D01*
X28526079Y14386622D01*
X28362218Y14277133D01*
X28362214Y14277130D01*
X28222863Y14137779D01*
X28222860Y14137775D01*
X28113371Y13973914D01*
X28113364Y13973901D01*
X28037950Y13791833D01*
X28037947Y13791823D01*
X27999500Y13598537D01*
X27999500Y13598534D01*
X27999500Y13401452D01*
X27999500Y13401450D01*
X27999499Y13401450D01*
X28037947Y13208164D01*
X28037950Y13208154D01*
X28113364Y13026086D01*
X28113371Y13026073D01*
X28222860Y12862212D01*
X28222863Y12862208D01*
X28362214Y12722857D01*
X28362218Y12722854D01*
X28526079Y12613365D01*
X28526092Y12613358D01*
X28708160Y12537944D01*
X28708165Y12537942D01*
X28708169Y12537942D01*
X28708170Y12537941D01*
X28901456Y12499493D01*
X28901459Y12499493D01*
X29098543Y12499493D01*
X29173564Y12514417D01*
X29251309Y12529881D01*
X29320900Y12523654D01*
X29376077Y12480792D01*
X29399322Y12414902D01*
X29399500Y12408264D01*
X29399500Y-16661060D01*
X29379815Y-16728099D01*
X29363181Y-16748741D01*
X28533741Y-17578181D01*
X28472418Y-17611666D01*
X28446060Y-17614500D01*
X20892207Y-17614500D01*
X20844755Y-17605061D01*
X20709667Y-17549106D01*
X20709658Y-17549103D01*
X20535694Y-17514500D01*
X20535691Y-17514500D01*
X20358309Y-17514500D01*
X20358306Y-17514500D01*
X20184341Y-17549103D01*
X20184332Y-17549106D01*
X20020459Y-17616983D01*
X20020446Y-17616990D01*
X19872965Y-17715535D01*
X19872961Y-17715538D01*
X19747538Y-17840961D01*
X19747535Y-17840965D01*
X19648990Y-17988446D01*
X19648983Y-17988459D01*
X19581106Y-18152332D01*
X19581103Y-18152341D01*
X19546500Y-18326304D01*
X19546500Y-18503695D01*
X19581103Y-18677658D01*
X19581106Y-18677667D01*
X19648983Y-18841540D01*
X19648990Y-18841553D01*
X19747535Y-18989034D01*
X19747538Y-18989038D01*
X19872961Y-19114461D01*
X19872965Y-19114464D01*
X20020446Y-19213009D01*
X20020459Y-19213016D01*
X20143363Y-19263923D01*
X20184334Y-19280894D01*
X20184336Y-19280894D01*
X20184341Y-19280896D01*
X20358304Y-19315499D01*
X20358307Y-19315500D01*
X20358309Y-19315500D01*
X20535693Y-19315500D01*
X20535694Y-19315499D01*
X20593682Y-19303964D01*
X20709658Y-19280896D01*
X20709661Y-19280894D01*
X20709666Y-19280894D01*
X20844755Y-19224939D01*
X20892207Y-19215500D01*
X28907844Y-19215500D01*
X28907845Y-19215499D01*
X29062497Y-19184737D01*
X29208179Y-19124394D01*
X29339289Y-19036789D01*
X30487819Y-17888259D01*
X30549142Y-17854774D01*
X30618834Y-17859758D01*
X30674767Y-17901630D01*
X30699184Y-17967094D01*
X30699500Y-17975940D01*
X30699500Y-30876000D01*
X30679815Y-30943039D01*
X30627011Y-30988794D01*
X30575500Y-31000000D01*
X14124000Y-31000000D01*
X14056961Y-30980315D01*
X14011206Y-30927511D01*
X14000000Y-30876000D01*
X14000000Y-30368776D01*
X14019685Y-30301737D01*
X14072489Y-30255982D01*
X14141647Y-30246038D01*
X14196885Y-30268458D01*
X14329242Y-30364620D01*
X14518582Y-30461095D01*
X14720670Y-30526757D01*
X14930554Y-30560000D01*
X15143046Y-30560000D01*
X15352927Y-30526757D01*
X15352930Y-30526757D01*
X15555017Y-30461095D01*
X15744356Y-30364620D01*
X15744363Y-30364617D01*
X15757561Y-30355026D01*
X15757562Y-30355025D01*
X15110442Y-29707905D01*
X15229793Y-29675925D01*
X15343807Y-29610099D01*
X15436899Y-29517007D01*
X15502725Y-29402993D01*
X15534705Y-29283641D01*
X16181825Y-29930762D01*
X16181826Y-29930761D01*
X16191417Y-29917563D01*
X16191420Y-29917556D01*
X16287895Y-29728217D01*
X16353557Y-29526130D01*
X16353557Y-29526127D01*
X16386800Y-29316246D01*
X16386800Y-29103753D01*
X16386794Y-29103713D01*
X18766300Y-29103713D01*
X18766300Y-29316287D01*
X18769177Y-29334449D01*
X18799535Y-29526127D01*
X18799554Y-29526243D01*
X18860595Y-29714108D01*
X18865244Y-29728414D01*
X18961751Y-29917820D01*
X19086690Y-30089786D01*
X19237013Y-30240109D01*
X19408979Y-30365048D01*
X19408981Y-30365049D01*
X19408984Y-30365051D01*
X19598388Y-30461557D01*
X19800557Y-30527246D01*
X20010513Y-30560500D01*
X20010514Y-30560500D01*
X20223086Y-30560500D01*
X20223087Y-30560500D01*
X20433043Y-30527246D01*
X20635212Y-30461557D01*
X20824616Y-30365051D01*
X20957566Y-30268458D01*
X20996586Y-30240109D01*
X20996588Y-30240106D01*
X20996592Y-30240104D01*
X21146904Y-30089792D01*
X21271851Y-29917816D01*
X21368357Y-29728412D01*
X21434046Y-29526243D01*
X21467300Y-29316287D01*
X21467300Y-29103713D01*
X21434046Y-28893757D01*
X21433723Y-28892763D01*
X27637500Y-28892763D01*
X27637500Y-29107236D01*
X27671048Y-29319049D01*
X27737323Y-29523020D01*
X27834686Y-29714106D01*
X27846024Y-29729710D01*
X27846025Y-29729711D01*
X28440856Y-29134879D01*
X28464185Y-29221942D01*
X28539885Y-29353058D01*
X28646942Y-29460115D01*
X28778058Y-29535815D01*
X28865120Y-29559143D01*
X28270287Y-30153975D01*
X28285887Y-30165310D01*
X28285891Y-30165312D01*
X28476979Y-30262676D01*
X28680950Y-30328951D01*
X28892764Y-30362500D01*
X29107236Y-30362500D01*
X29319049Y-30328951D01*
X29523020Y-30262676D01*
X29714108Y-30165312D01*
X29729710Y-30153974D01*
X29134879Y-29559143D01*
X29221942Y-29535815D01*
X29353058Y-29460115D01*
X29460115Y-29353058D01*
X29535815Y-29221942D01*
X29559143Y-29134879D01*
X30153974Y-29729711D01*
X30165312Y-29714108D01*
X30262676Y-29523020D01*
X30328951Y-29319049D01*
X30362500Y-29107236D01*
X30362500Y-28892763D01*
X30328951Y-28680950D01*
X30262676Y-28476979D01*
X30165312Y-28285891D01*
X30165310Y-28285887D01*
X30153975Y-28270288D01*
X30153975Y-28270287D01*
X29559142Y-28865119D01*
X29535815Y-28778058D01*
X29460115Y-28646942D01*
X29353058Y-28539885D01*
X29221942Y-28464185D01*
X29134879Y-28440857D01*
X29729711Y-27846025D01*
X29729710Y-27846024D01*
X29714106Y-27834686D01*
X29523020Y-27737323D01*
X29319049Y-27671048D01*
X29107236Y-27637500D01*
X28892764Y-27637500D01*
X28680950Y-27671048D01*
X28476979Y-27737323D01*
X28285890Y-27834688D01*
X28270288Y-27846023D01*
X28270288Y-27846024D01*
X28865120Y-28440856D01*
X28778058Y-28464185D01*
X28646942Y-28539885D01*
X28539885Y-28646942D01*
X28464185Y-28778058D01*
X28440856Y-28865120D01*
X27846024Y-28270288D01*
X27846023Y-28270288D01*
X27834688Y-28285890D01*
X27737323Y-28476979D01*
X27671048Y-28680950D01*
X27637500Y-28892763D01*
X21433723Y-28892763D01*
X21368357Y-28691588D01*
X21271851Y-28502184D01*
X21271849Y-28502181D01*
X21271848Y-28502179D01*
X21146909Y-28330213D01*
X20996586Y-28179890D01*
X20824620Y-28054951D01*
X20724167Y-28003768D01*
X20635214Y-27958444D01*
X20635213Y-27958443D01*
X20635212Y-27958443D01*
X20433043Y-27892754D01*
X20433041Y-27892753D01*
X20433040Y-27892753D01*
X20271757Y-27867208D01*
X20223087Y-27859500D01*
X20010513Y-27859500D01*
X19961842Y-27867208D01*
X19800560Y-27892753D01*
X19598385Y-27958444D01*
X19408979Y-28054951D01*
X19237013Y-28179890D01*
X19086690Y-28330213D01*
X18961751Y-28502179D01*
X18865244Y-28691585D01*
X18799553Y-28893760D01*
X18780033Y-29017007D01*
X18766300Y-29103713D01*
X16386794Y-29103713D01*
X16353557Y-28893872D01*
X16353557Y-28893869D01*
X16287895Y-28691782D01*
X16191426Y-28502453D01*
X16191418Y-28502440D01*
X16181825Y-28489237D01*
X16181825Y-28489236D01*
X15534705Y-29136357D01*
X15502725Y-29017007D01*
X15436899Y-28902993D01*
X15343807Y-28809901D01*
X15229793Y-28744075D01*
X15110440Y-28712093D01*
X15757561Y-28064973D01*
X15744350Y-28055375D01*
X15555017Y-27958904D01*
X15352929Y-27893242D01*
X15143046Y-27860000D01*
X14930554Y-27860000D01*
X14720672Y-27893242D01*
X14720669Y-27893242D01*
X14518582Y-27958904D01*
X14329246Y-28055376D01*
X14196885Y-28151542D01*
X14131078Y-28175021D01*
X14063024Y-28159195D01*
X14014330Y-28109089D01*
X14000000Y-28051223D01*
X14000000Y-14500000D01*
X424500Y-14500000D01*
X357461Y-14480315D01*
X311706Y-14427511D01*
X300500Y-14376000D01*
X300500Y-9907486D01*
X824500Y-9907486D01*
X824500Y-10092513D01*
X853445Y-10275265D01*
X910619Y-10451232D01*
X910620Y-10451235D01*
X994622Y-10616096D01*
X1103379Y-10765787D01*
X1234213Y-10896621D01*
X1383904Y-11005378D01*
X1437224Y-11032546D01*
X1548764Y-11089379D01*
X1548767Y-11089380D01*
X1636750Y-11117967D01*
X1724736Y-11146555D01*
X1907486Y-11175500D01*
X1907487Y-11175500D01*
X2092513Y-11175500D01*
X2092514Y-11175500D01*
X2170858Y-11163091D01*
X2240151Y-11172045D01*
X2277937Y-11197883D01*
X4539325Y-13459272D01*
X4539332Y-13459278D01*
X4597451Y-13498111D01*
X4597453Y-13498112D01*
X4597456Y-13498114D01*
X4645873Y-13530465D01*
X4764256Y-13579501D01*
X4764260Y-13579501D01*
X4764261Y-13579502D01*
X4889928Y-13604500D01*
X4889931Y-13604500D01*
X12914638Y-13604500D01*
X12981677Y-13624185D01*
X13002319Y-13640819D01*
X13014961Y-13653461D01*
X13014965Y-13653464D01*
X13162446Y-13752009D01*
X13162459Y-13752016D01*
X13285363Y-13802923D01*
X13326334Y-13819894D01*
X13326336Y-13819894D01*
X13326341Y-13819896D01*
X13500304Y-13854499D01*
X13500307Y-13854500D01*
X13500309Y-13854500D01*
X13677693Y-13854500D01*
X13677694Y-13854499D01*
X13735682Y-13842964D01*
X13851658Y-13819896D01*
X13851661Y-13819894D01*
X13851666Y-13819894D01*
X14015547Y-13752013D01*
X14163035Y-13653464D01*
X14288464Y-13528035D01*
X14387013Y-13380547D01*
X14454894Y-13216666D01*
X14489500Y-13042691D01*
X14489500Y-12865309D01*
X14489500Y-12865306D01*
X14489499Y-12865304D01*
X14454896Y-12691341D01*
X14454893Y-12691332D01*
X14387016Y-12527459D01*
X14387009Y-12527446D01*
X14288464Y-12379965D01*
X14288461Y-12379961D01*
X14163038Y-12254538D01*
X14163034Y-12254535D01*
X14015553Y-12155990D01*
X14015540Y-12155983D01*
X13851667Y-12088106D01*
X13851658Y-12088103D01*
X13677694Y-12053500D01*
X13677691Y-12053500D01*
X13500309Y-12053500D01*
X13500306Y-12053500D01*
X13326341Y-12088103D01*
X13326332Y-12088106D01*
X13162459Y-12155983D01*
X13162446Y-12155990D01*
X13014965Y-12254535D01*
X13014961Y-12254538D01*
X13002319Y-12267181D01*
X12940996Y-12300666D01*
X12914638Y-12303500D01*
X5274808Y-12303500D01*
X5207769Y-12283815D01*
X5187127Y-12267181D01*
X4260780Y-11340834D01*
X4227295Y-11279511D01*
X4232279Y-11209819D01*
X4274151Y-11153886D01*
X4310144Y-11135222D01*
X4451229Y-11089381D01*
X4451235Y-11089379D01*
X4616096Y-11005378D01*
X4731608Y-10921453D01*
X4797412Y-10897974D01*
X4865466Y-10913799D01*
X4903758Y-10947460D01*
X4967455Y-11032547D01*
X5082664Y-11118793D01*
X5082671Y-11118797D01*
X5217517Y-11169091D01*
X5217516Y-11169091D01*
X5224444Y-11169835D01*
X5277127Y-11175500D01*
X6722872Y-11175499D01*
X6782483Y-11169091D01*
X6917331Y-11118796D01*
X7032546Y-11032546D01*
X7118796Y-10917331D01*
X7169091Y-10782483D01*
X7175500Y-10722873D01*
X7175499Y-9277128D01*
X7169091Y-9217517D01*
X7155775Y-9181816D01*
X7118797Y-9082671D01*
X7118793Y-9082664D01*
X7032547Y-8967455D01*
X7032544Y-8967452D01*
X6917335Y-8881206D01*
X6917328Y-8881202D01*
X6782482Y-8830908D01*
X6782483Y-8830908D01*
X6722883Y-8824501D01*
X6722881Y-8824500D01*
X6722873Y-8824500D01*
X6722864Y-8824500D01*
X5277129Y-8824500D01*
X5277123Y-8824501D01*
X5217516Y-8830908D01*
X5082671Y-8881202D01*
X5082664Y-8881206D01*
X4967455Y-8967452D01*
X4903758Y-9052539D01*
X4847823Y-9094410D01*
X4778132Y-9099393D01*
X4731607Y-9078545D01*
X4616099Y-8994624D01*
X4616098Y-8994623D01*
X4616096Y-8994622D01*
X4562772Y-8967452D01*
X4451235Y-8910620D01*
X4451232Y-8910619D01*
X4275265Y-8853445D01*
X4132972Y-8830908D01*
X4092514Y-8824500D01*
X3907486Y-8824500D01*
X3867028Y-8830908D01*
X3724734Y-8853445D01*
X3548767Y-8910619D01*
X3548764Y-8910620D01*
X3383903Y-8994622D01*
X3373450Y-9002217D01*
X3234213Y-9103379D01*
X3234211Y-9103381D01*
X3234210Y-9103381D01*
X3103381Y-9234210D01*
X3103379Y-9234213D01*
X3101107Y-9237341D01*
X3100314Y-9238432D01*
X3044981Y-9281094D01*
X2975367Y-9287069D01*
X2913574Y-9254459D01*
X2899686Y-9238432D01*
X2896621Y-9234213D01*
X2765787Y-9103379D01*
X2616096Y-8994622D01*
X2562778Y-8967455D01*
X2451235Y-8910620D01*
X2451232Y-8910619D01*
X2275265Y-8853445D01*
X2132972Y-8830908D01*
X2092514Y-8824500D01*
X1907486Y-8824500D01*
X1867028Y-8830908D01*
X1724734Y-8853445D01*
X1548767Y-8910619D01*
X1548764Y-8910620D01*
X1383903Y-8994622D01*
X1373450Y-9002217D01*
X1234213Y-9103379D01*
X1234211Y-9103381D01*
X1234210Y-9103381D01*
X1103381Y-9234210D01*
X1103381Y-9234211D01*
X1103379Y-9234213D01*
X1072199Y-9277129D01*
X994622Y-9383903D01*
X910620Y-9548764D01*
X910619Y-9548767D01*
X853445Y-9724734D01*
X824500Y-9907486D01*
X300500Y-9907486D01*
X300500Y-3009304D01*
X1538600Y-3009304D01*
X1538600Y-3186695D01*
X1573203Y-3360658D01*
X1573206Y-3360667D01*
X1641083Y-3524540D01*
X1641090Y-3524553D01*
X1739635Y-3672034D01*
X1739638Y-3672038D01*
X1865061Y-3797461D01*
X1865065Y-3797464D01*
X2012546Y-3896009D01*
X2012559Y-3896016D01*
X2135463Y-3946923D01*
X2176434Y-3963894D01*
X2176436Y-3963894D01*
X2176441Y-3963896D01*
X2350404Y-3998499D01*
X2350407Y-3998500D01*
X2350409Y-3998500D01*
X2527793Y-3998500D01*
X2527794Y-3998499D01*
X2585782Y-3986964D01*
X2701758Y-3963896D01*
X2701761Y-3963894D01*
X2701766Y-3963894D01*
X2865647Y-3896013D01*
X3013135Y-3797464D01*
X3013138Y-3797461D01*
X3025781Y-3784819D01*
X3087104Y-3751334D01*
X3113462Y-3748500D01*
X8966071Y-3748500D01*
X9050615Y-3731682D01*
X9091744Y-3723501D01*
X9210127Y-3674465D01*
X9258544Y-3642114D01*
X9258544Y-3642113D01*
X9258546Y-3642113D01*
X9287606Y-3622695D01*
X9316669Y-3603277D01*
X13762708Y842764D01*
X13824029Y876247D01*
X13874576Y876698D01*
X13939429Y863798D01*
X14011306Y849500D01*
X14011309Y849500D01*
X14188693Y849500D01*
X14188694Y849501D01*
X14246682Y861036D01*
X14362658Y884104D01*
X14362661Y884106D01*
X14362666Y884106D01*
X14526547Y951987D01*
X14674035Y1050536D01*
X14674038Y1050539D01*
X14803772Y1180272D01*
X14805309Y1178735D01*
X14854929Y1212560D01*
X14924773Y1214456D01*
X14980761Y1182256D01*
X22431145Y-6268128D01*
X22464630Y-6329451D01*
X22467464Y-6355809D01*
X22467464Y-6744108D01*
X22483837Y-6826417D01*
X22492463Y-6869783D01*
X22515731Y-6925958D01*
X22541499Y-6988166D01*
X22598483Y-7073450D01*
X22612690Y-7094712D01*
X22612691Y-7094713D01*
X25071121Y-9553142D01*
X25104606Y-9614465D01*
X25105057Y-9616631D01*
X25134104Y-9762659D01*
X25134106Y-9762667D01*
X25201983Y-9926540D01*
X25201990Y-9926553D01*
X25300535Y-10074034D01*
X25300538Y-10074038D01*
X25425961Y-10199461D01*
X25425965Y-10199464D01*
X25573446Y-10298009D01*
X25573459Y-10298016D01*
X25696363Y-10348923D01*
X25737334Y-10365894D01*
X25737336Y-10365894D01*
X25737341Y-10365896D01*
X25911304Y-10400499D01*
X25911307Y-10400500D01*
X25911309Y-10400500D01*
X26088693Y-10400500D01*
X26088694Y-10400499D01*
X26146682Y-10388964D01*
X26262658Y-10365896D01*
X26262661Y-10365894D01*
X26262666Y-10365894D01*
X26426547Y-10298013D01*
X26574035Y-10199464D01*
X26699464Y-10074035D01*
X26798013Y-9926547D01*
X26865894Y-9762666D01*
X26865894Y-9762661D01*
X26865896Y-9762658D01*
X26900499Y-9588695D01*
X26900500Y-9588693D01*
X26900500Y-9411306D01*
X26900499Y-9411304D01*
X26865896Y-9237341D01*
X26865893Y-9237332D01*
X26798015Y-9073457D01*
X26798014Y-9073455D01*
X26798013Y-9073453D01*
X26794965Y-9068892D01*
X26774086Y-9002217D01*
X26792569Y-8934837D01*
X26794948Y-8931132D01*
X26798013Y-8926547D01*
X26865894Y-8762666D01*
X26900500Y-8588691D01*
X26900500Y-8411309D01*
X26900500Y-8411306D01*
X26900499Y-8411304D01*
X26865896Y-8237341D01*
X26865893Y-8237332D01*
X26798016Y-8073459D01*
X26798014Y-8073456D01*
X26798013Y-8073453D01*
X26794962Y-8068887D01*
X26774085Y-8002212D01*
X26792569Y-7934832D01*
X26794952Y-7931123D01*
X26798013Y-7926544D01*
X26865894Y-7762663D01*
X26900500Y-7588688D01*
X26900500Y-7411306D01*
X26900500Y-7411303D01*
X26900499Y-7411301D01*
X26865896Y-7237338D01*
X26865893Y-7237329D01*
X26798016Y-7073456D01*
X26798009Y-7073443D01*
X26699464Y-6925962D01*
X26699461Y-6925958D01*
X26574038Y-6800535D01*
X26574034Y-6800532D01*
X26426553Y-6701987D01*
X26426540Y-6701980D01*
X26262667Y-6634103D01*
X26262658Y-6634100D01*
X26088694Y-6599497D01*
X26088691Y-6599497D01*
X26070808Y-6599497D01*
X26003769Y-6579812D01*
X25983127Y-6563178D01*
X13892363Y5527586D01*
X13858878Y5588909D01*
X13863862Y5658601D01*
X13905734Y5714534D01*
X13971198Y5738951D01*
X14039471Y5724099D01*
X14048935Y5718369D01*
X14054675Y5714534D01*
X14073453Y5701987D01*
X14073455Y5701986D01*
X14073459Y5701984D01*
X14178197Y5658601D01*
X14237334Y5634106D01*
X14237336Y5634106D01*
X14237341Y5634104D01*
X14411304Y5599501D01*
X14411307Y5599500D01*
X14411309Y5599500D01*
X14588693Y5599500D01*
X14588694Y5599501D01*
X14646682Y5611036D01*
X14762658Y5634104D01*
X14762661Y5634106D01*
X14762666Y5634106D01*
X14926547Y5701987D01*
X15074035Y5800536D01*
X15199464Y5925965D01*
X15298013Y6073453D01*
X15365894Y6237334D01*
X15386347Y6340155D01*
X15400499Y6411305D01*
X15400500Y6411307D01*
X15400500Y6588694D01*
X15400499Y6588696D01*
X15365896Y6762659D01*
X15365893Y6762668D01*
X15298016Y6926541D01*
X15298009Y6926554D01*
X15199464Y7074035D01*
X15199461Y7074039D01*
X15186819Y7086681D01*
X15172115Y7113609D01*
X15155523Y7139427D01*
X15154631Y7145628D01*
X15153334Y7148004D01*
X15150500Y7174362D01*
X15150500Y7179192D01*
X15170185Y7246231D01*
X15186819Y7266873D01*
X15508644Y7588698D01*
X19099500Y7588698D01*
X19099500Y7411307D01*
X19134103Y7237344D01*
X19134106Y7237335D01*
X19201983Y7073462D01*
X19201990Y7073449D01*
X19300535Y6925968D01*
X19300538Y6925964D01*
X19425961Y6800541D01*
X19425965Y6800538D01*
X19573446Y6701993D01*
X19573459Y6701986D01*
X19650106Y6670239D01*
X19737334Y6634108D01*
X19778493Y6625921D01*
X19840403Y6593537D01*
X19874977Y6532821D01*
X19875918Y6528495D01*
X19884104Y6487342D01*
X19884107Y6487330D01*
X19951983Y6323460D01*
X19951990Y6323447D01*
X20050535Y6175966D01*
X20050538Y6175962D01*
X20175961Y6050539D01*
X20175965Y6050536D01*
X20323446Y5951991D01*
X20323459Y5951984D01*
X20446363Y5901077D01*
X20487334Y5884106D01*
X20487336Y5884106D01*
X20487341Y5884104D01*
X20661304Y5849501D01*
X20661307Y5849500D01*
X20661309Y5849500D01*
X20838693Y5849500D01*
X20838694Y5849501D01*
X20896682Y5861036D01*
X21012658Y5884104D01*
X21012661Y5884106D01*
X21012666Y5884106D01*
X21176547Y5951987D01*
X21324035Y6050536D01*
X21324038Y6050539D01*
X21336681Y6063181D01*
X21398004Y6096666D01*
X21424362Y6099500D01*
X21929192Y6099500D01*
X21996231Y6079815D01*
X22016868Y6063186D01*
X22085330Y5994724D01*
X22188236Y5925965D01*
X22191871Y5923536D01*
X22191872Y5923536D01*
X22191873Y5923535D01*
X22310256Y5874499D01*
X22310260Y5874499D01*
X22310261Y5874498D01*
X22435928Y5849500D01*
X22435931Y5849500D01*
X25325638Y5849500D01*
X25392677Y5829815D01*
X25413319Y5813181D01*
X25425961Y5800539D01*
X25425965Y5800536D01*
X25573446Y5701991D01*
X25573459Y5701984D01*
X25678197Y5658601D01*
X25737334Y5634106D01*
X25737336Y5634106D01*
X25737341Y5634104D01*
X25911304Y5599501D01*
X25911307Y5599500D01*
X25911309Y5599500D01*
X26088693Y5599500D01*
X26088694Y5599501D01*
X26146682Y5611036D01*
X26262658Y5634104D01*
X26262661Y5634106D01*
X26262666Y5634106D01*
X26426547Y5701987D01*
X26574035Y5800536D01*
X26699464Y5925965D01*
X26798013Y6073453D01*
X26865894Y6237334D01*
X26886347Y6340155D01*
X26900499Y6411305D01*
X26900500Y6411307D01*
X26900500Y6588694D01*
X26900499Y6588696D01*
X26865896Y6762659D01*
X26865893Y6762668D01*
X26798016Y6926541D01*
X26798014Y6926544D01*
X26798013Y6926547D01*
X26794962Y6931113D01*
X26774085Y6997788D01*
X26792569Y7065168D01*
X26794952Y7068877D01*
X26798013Y7073456D01*
X26865894Y7237337D01*
X26865894Y7237342D01*
X26865896Y7237345D01*
X26900499Y7411308D01*
X26900500Y7411310D01*
X26900500Y7588697D01*
X26900499Y7588699D01*
X26865896Y7762662D01*
X26865893Y7762670D01*
X26848923Y7803640D01*
X26798016Y7926544D01*
X26798009Y7926557D01*
X26699464Y8074038D01*
X26699461Y8074042D01*
X26574038Y8199465D01*
X26574034Y8199468D01*
X26426553Y8298013D01*
X26426540Y8298020D01*
X26262667Y8365897D01*
X26262658Y8365900D01*
X26088694Y8400503D01*
X26088691Y8400503D01*
X25911309Y8400503D01*
X25911306Y8400503D01*
X25737341Y8365900D01*
X25737332Y8365897D01*
X25573459Y8298020D01*
X25573446Y8298013D01*
X25425965Y8199468D01*
X25425961Y8199465D01*
X25413319Y8186822D01*
X25351996Y8153337D01*
X25325638Y8150503D01*
X22429816Y8150503D01*
X22429796Y8150502D01*
X20674362Y8150502D01*
X20607323Y8170187D01*
X20586681Y8186821D01*
X20574038Y8199464D01*
X20574034Y8199467D01*
X20426553Y8298012D01*
X20426540Y8298019D01*
X20262667Y8365896D01*
X20262658Y8365899D01*
X20088694Y8400502D01*
X20088691Y8400502D01*
X19911309Y8400502D01*
X19911306Y8400502D01*
X19737341Y8365899D01*
X19737332Y8365896D01*
X19573459Y8298019D01*
X19573446Y8298012D01*
X19425965Y8199467D01*
X19425961Y8199464D01*
X19300538Y8074041D01*
X19300535Y8074037D01*
X19201990Y7926556D01*
X19201983Y7926543D01*
X19134106Y7762670D01*
X19134103Y7762661D01*
X19099500Y7588698D01*
X15508644Y7588698D01*
X17983127Y10063181D01*
X18044450Y10096666D01*
X18070808Y10099500D01*
X18088693Y10099500D01*
X18088694Y10099501D01*
X18146682Y10111036D01*
X18262658Y10134104D01*
X18262661Y10134106D01*
X18262666Y10134106D01*
X18426547Y10201987D01*
X18574035Y10300536D01*
X18699464Y10425965D01*
X18798013Y10573453D01*
X18865894Y10737334D01*
X18900500Y10911309D01*
X18900500Y11088691D01*
X18900500Y11088694D01*
X18900499Y11088696D01*
X18865896Y11262659D01*
X18865893Y11262668D01*
X18798016Y11426541D01*
X18798009Y11426554D01*
X18699464Y11574035D01*
X18699461Y11574039D01*
X18686819Y11586681D01*
X18653334Y11648004D01*
X18650500Y11674362D01*
X18650500Y18470672D01*
X18670185Y18537711D01*
X18686819Y18558353D01*
X25941647Y25813181D01*
X25968574Y25827885D01*
X25994393Y25844477D01*
X26000593Y25845369D01*
X26002970Y25846666D01*
X26029328Y25849500D01*
X26075638Y25849500D01*
X26142677Y25829815D01*
X26163319Y25813181D01*
X26175961Y25800539D01*
X26175965Y25800536D01*
X26323446Y25701991D01*
X26323459Y25701984D01*
X26446363Y25651077D01*
X26487334Y25634106D01*
X26487336Y25634106D01*
X26487341Y25634104D01*
X26661304Y25599501D01*
X26661307Y25599500D01*
X26661309Y25599500D01*
X26838693Y25599500D01*
X26838694Y25599501D01*
X26896682Y25611036D01*
X27012658Y25634104D01*
X27012661Y25634106D01*
X27012666Y25634106D01*
X27176547Y25701987D01*
X27324035Y25800536D01*
X27449464Y25925965D01*
X27548013Y26073453D01*
X27615894Y26237334D01*
X27650500Y26411309D01*
X27650500Y26588691D01*
X27650500Y26588694D01*
X27650499Y26588696D01*
X27615896Y26762659D01*
X27615893Y26762668D01*
X27548016Y26926541D01*
X27548009Y26926554D01*
X27449464Y27074035D01*
X27449461Y27074039D01*
X27324038Y27199462D01*
X27324034Y27199465D01*
X27176553Y27298010D01*
X27176540Y27298017D01*
X27012667Y27365894D01*
X27012664Y27365895D01*
X27000305Y27368353D01*
X26972171Y27383071D01*
X26943297Y27396257D01*
X26941439Y27399148D01*
X26938395Y27400740D01*
X26922687Y27428327D01*
X26905523Y27455035D01*
X26904862Y27459633D01*
X26903823Y27461457D01*
X26900500Y27489970D01*
X26900500Y27510031D01*
X26920185Y27577070D01*
X26972989Y27622825D01*
X27000304Y27631648D01*
X27012666Y27634106D01*
X27176547Y27701987D01*
X27324035Y27800536D01*
X27449464Y27925965D01*
X27548013Y28073453D01*
X27615894Y28237334D01*
X27650500Y28411309D01*
X27650500Y28588691D01*
X27650500Y28588694D01*
X27650499Y28588696D01*
X27615896Y28762659D01*
X27615893Y28762668D01*
X27548016Y28926541D01*
X27548009Y28926554D01*
X27449464Y29074035D01*
X27449461Y29074039D01*
X27324038Y29199462D01*
X27324034Y29199465D01*
X27176553Y29298010D01*
X27176540Y29298017D01*
X27012667Y29365894D01*
X27012664Y29365895D01*
X27000305Y29368353D01*
X26938395Y29400740D01*
X26903823Y29461457D01*
X26900500Y29489970D01*
X26900500Y29588694D01*
X26900499Y29588696D01*
X26865896Y29762659D01*
X26865893Y29762668D01*
X26798016Y29926541D01*
X26798009Y29926554D01*
X26699464Y30074035D01*
X26699461Y30074039D01*
X26574038Y30199462D01*
X26574034Y30199465D01*
X26426553Y30298010D01*
X26426540Y30298017D01*
X26262667Y30365894D01*
X26262658Y30365897D01*
X26199882Y30378383D01*
X26137971Y30410768D01*
X26103397Y30471483D01*
X26107136Y30541253D01*
X26148003Y30597925D01*
X26199882Y30621617D01*
X26262658Y30634104D01*
X26262661Y30634106D01*
X26262666Y30634106D01*
X26426547Y30701987D01*
X26574035Y30800536D01*
X26699464Y30925965D01*
X26798013Y31073453D01*
X26865894Y31237334D01*
X26900500Y31411309D01*
X26900500Y31588691D01*
X26900500Y31588694D01*
X26900499Y31588696D01*
X26865896Y31762659D01*
X26865893Y31762668D01*
X26798016Y31926541D01*
X26798009Y31926554D01*
X26699464Y32074035D01*
X26699461Y32074039D01*
X26574038Y32199462D01*
X26574034Y32199465D01*
X26426553Y32298010D01*
X26426540Y32298017D01*
X26262667Y32365894D01*
X26262658Y32365897D01*
X26199892Y32378381D01*
X26137981Y32410766D01*
X26103407Y32471481D01*
X26107146Y32541251D01*
X26148013Y32597923D01*
X26199892Y32621615D01*
X26262658Y32634100D01*
X26262661Y32634102D01*
X26262666Y32634102D01*
X26426547Y32701983D01*
X26574035Y32800532D01*
X26699464Y32925961D01*
X26798013Y33073449D01*
X26865894Y33237330D01*
X26878223Y33299309D01*
X26900499Y33411301D01*
X26900500Y33411303D01*
X26900500Y33588690D01*
X26900499Y33588692D01*
X26865896Y33762655D01*
X26865893Y33762664D01*
X26798016Y33926537D01*
X26798009Y33926550D01*
X26699464Y34074031D01*
X26699461Y34074035D01*
X26574038Y34199458D01*
X26574034Y34199461D01*
X26426553Y34298006D01*
X26426540Y34298013D01*
X26262667Y34365890D01*
X26262658Y34365893D01*
X26088694Y34400496D01*
X26088691Y34400496D01*
X25911309Y34400496D01*
X25911306Y34400496D01*
X25737341Y34365893D01*
X25737332Y34365890D01*
X25573459Y34298013D01*
X25573446Y34298006D01*
X25425965Y34199461D01*
X25425961Y34199458D01*
X25413323Y34186819D01*
X25352000Y34153334D01*
X25325642Y34150500D01*
X14435929Y34150500D01*
X14310261Y34125503D01*
X14310255Y34125501D01*
X14191875Y34076467D01*
X14191866Y34076462D01*
X14085331Y34005277D01*
X14085327Y34005274D01*
X13666873Y33586819D01*
X13605550Y33553334D01*
X13579192Y33550500D01*
X12374362Y33550500D01*
X12307323Y33570185D01*
X12286681Y33586819D01*
X12274038Y33599462D01*
X12274034Y33599465D01*
X12126553Y33698010D01*
X12126540Y33698017D01*
X11962667Y33765894D01*
X11962658Y33765897D01*
X11788694Y33800500D01*
X11788691Y33800500D01*
X11611309Y33800500D01*
X11611306Y33800500D01*
X11437341Y33765897D01*
X11437332Y33765894D01*
X11273459Y33698017D01*
X11273446Y33698010D01*
X11125965Y33599465D01*
X11125961Y33599462D01*
X11000538Y33474039D01*
X11000535Y33474035D01*
X10901990Y33326554D01*
X10901983Y33326541D01*
X10834106Y33162668D01*
X10834103Y33162659D01*
X10799500Y32988696D01*
X10799500Y32811305D01*
X10834103Y32637342D01*
X10834106Y32637333D01*
X10901983Y32473460D01*
X10901990Y32473447D01*
X11000535Y32325966D01*
X11000538Y32325962D01*
X11125961Y32200539D01*
X11125965Y32200536D01*
X11273446Y32101991D01*
X11273459Y32101984D01*
X11396363Y32051077D01*
X11437334Y32034106D01*
X11437336Y32034106D01*
X11437341Y32034104D01*
X11611304Y31999501D01*
X11611307Y31999500D01*
X11611309Y31999500D01*
X11788693Y31999500D01*
X11788694Y31999501D01*
X11846682Y32011036D01*
X11962658Y32034104D01*
X11962661Y32034106D01*
X11962666Y32034106D01*
X12126547Y32101987D01*
X12274035Y32200536D01*
X12274038Y32200539D01*
X12286681Y32213181D01*
X12348004Y32246666D01*
X12374362Y32249500D01*
X13964071Y32249500D01*
X14048615Y32266318D01*
X14089744Y32274499D01*
X14208127Y32323535D01*
X14256544Y32355886D01*
X14256544Y32355887D01*
X14256546Y32355887D01*
X14290211Y32378381D01*
X14314669Y32394723D01*
X14733126Y32813182D01*
X14794449Y32846666D01*
X14820807Y32849500D01*
X25325634Y32849500D01*
X25392673Y32829815D01*
X25413315Y32813181D01*
X25425961Y32800535D01*
X25425965Y32800532D01*
X25573446Y32701987D01*
X25573459Y32701980D01*
X25696363Y32651073D01*
X25737334Y32634102D01*
X25737337Y32634102D01*
X25737342Y32634100D01*
X25800107Y32621615D01*
X25862018Y32589230D01*
X25896593Y32528514D01*
X25892853Y32458745D01*
X25851986Y32402073D01*
X25800107Y32378381D01*
X25737342Y32365897D01*
X25737332Y32365894D01*
X25573459Y32298017D01*
X25573446Y32298010D01*
X25425965Y32199465D01*
X25425961Y32199462D01*
X25413319Y32186819D01*
X25351996Y32153334D01*
X25325638Y32150500D01*
X22935929Y32150500D01*
X22810261Y32125503D01*
X22810251Y32125500D01*
X22761220Y32105190D01*
X22691881Y32076470D01*
X22691863Y32076460D01*
X22585332Y32005279D01*
X22585325Y32005273D01*
X21766873Y31186819D01*
X21705550Y31153334D01*
X21679192Y31150500D01*
X20674362Y31150500D01*
X20607323Y31170185D01*
X20586681Y31186819D01*
X20574038Y31199462D01*
X20574034Y31199465D01*
X20426553Y31298010D01*
X20426540Y31298017D01*
X20262667Y31365894D01*
X20262658Y31365897D01*
X20088694Y31400500D01*
X20088691Y31400500D01*
X19911309Y31400500D01*
X19911306Y31400500D01*
X19737341Y31365897D01*
X19737332Y31365894D01*
X19573459Y31298017D01*
X19573446Y31298010D01*
X19425965Y31199465D01*
X19425961Y31199462D01*
X19300538Y31074039D01*
X19300535Y31074035D01*
X19201990Y30926554D01*
X19201983Y30926541D01*
X19134106Y30762668D01*
X19134103Y30762659D01*
X19099500Y30588696D01*
X19099500Y30588691D01*
X19099500Y30411309D01*
X19099500Y30411307D01*
X19099499Y30411307D01*
X19121901Y30298692D01*
X19115674Y30229100D01*
X19072811Y30173923D01*
X19006922Y30150678D01*
X19000284Y30150500D01*
X10935929Y30150500D01*
X10810261Y30125503D01*
X10810255Y30125501D01*
X10691875Y30076467D01*
X10691866Y30076462D01*
X10585331Y30005277D01*
X10585327Y30005274D01*
X10266874Y29686819D01*
X10205551Y29653334D01*
X10179193Y29650500D01*
X10161306Y29650500D01*
X9987341Y29615897D01*
X9987332Y29615894D01*
X9823459Y29548017D01*
X9823446Y29548010D01*
X9675965Y29449465D01*
X9675961Y29449462D01*
X9550538Y29324039D01*
X9550535Y29324035D01*
X9451990Y29176554D01*
X9451983Y29176541D01*
X9384106Y29012668D01*
X9384103Y29012659D01*
X9349500Y28838696D01*
X9349500Y28661305D01*
X9384103Y28487342D01*
X9384106Y28487333D01*
X9451983Y28323460D01*
X9451990Y28323447D01*
X9550535Y28175966D01*
X9550538Y28175962D01*
X9675961Y28050539D01*
X9675965Y28050536D01*
X9823446Y27951991D01*
X9823459Y27951984D01*
X9946363Y27901077D01*
X9987334Y27884106D01*
X9987336Y27884106D01*
X9987341Y27884104D01*
X10161304Y27849501D01*
X10161307Y27849500D01*
X10161309Y27849500D01*
X10338693Y27849500D01*
X10338694Y27849501D01*
X10396682Y27861036D01*
X10512658Y27884104D01*
X10512661Y27884106D01*
X10512666Y27884106D01*
X10676547Y27951987D01*
X10824035Y28050536D01*
X10949464Y28175965D01*
X11021898Y28284369D01*
X11075510Y28329174D01*
X11144835Y28337881D01*
X11207863Y28307726D01*
X11228102Y28284369D01*
X11300535Y28175966D01*
X11300538Y28175962D01*
X11425961Y28050539D01*
X11425965Y28050536D01*
X11573446Y27951991D01*
X11573459Y27951984D01*
X11696363Y27901077D01*
X11737334Y27884106D01*
X11737336Y27884106D01*
X11737341Y27884104D01*
X11911304Y27849501D01*
X11911307Y27849500D01*
X11911309Y27849500D01*
X12088693Y27849500D01*
X12088694Y27849501D01*
X12126098Y27856941D01*
X12242932Y27880180D01*
X12304933Y27874633D01*
X12305429Y27876267D01*
X12311251Y27874501D01*
X12311256Y27874499D01*
X12311260Y27874499D01*
X12311261Y27874498D01*
X12436928Y27849500D01*
X12436931Y27849500D01*
X25000284Y27849500D01*
X25018323Y27844203D01*
X25037126Y27843901D01*
X25051156Y27834562D01*
X25067323Y27829815D01*
X25079634Y27815607D01*
X25095289Y27805187D01*
X25102043Y27789746D01*
X25113078Y27777011D01*
X25115753Y27758402D01*
X25123290Y27741173D01*
X25122303Y27712852D01*
X25123022Y27707853D01*
X25122723Y27705883D01*
X25122358Y27703607D01*
X25099500Y27588691D01*
X25099500Y27560936D01*
X25097939Y27551192D01*
X25086988Y27528199D01*
X25079815Y27503770D01*
X25068906Y27490234D01*
X25067896Y27488111D01*
X25066497Y27487244D01*
X25063181Y27483128D01*
X15994727Y18414675D01*
X15994726Y18414674D01*
X15923534Y18308126D01*
X15874499Y18189745D01*
X15874497Y18189739D01*
X15849500Y18064072D01*
X15849500Y12674362D01*
X15829815Y12607323D01*
X15813181Y12586681D01*
X15800538Y12574039D01*
X15800535Y12574035D01*
X15701990Y12426554D01*
X15701983Y12426541D01*
X15634106Y12262668D01*
X15634103Y12262659D01*
X15599500Y12088696D01*
X15599500Y12070809D01*
X15579815Y12003770D01*
X15563181Y11983128D01*
X15494727Y11914675D01*
X15494724Y11914672D01*
X15424955Y11810253D01*
X15423535Y11808129D01*
X15423532Y11808123D01*
X15374500Y11689749D01*
X15374497Y11689739D01*
X15349500Y11564072D01*
X15349500Y10320808D01*
X15329815Y10253769D01*
X15313181Y10233127D01*
X13016873Y7936819D01*
X12995640Y7925225D01*
X12976823Y7910013D01*
X12962567Y7907166D01*
X12955550Y7903334D01*
X12942638Y7901231D01*
X12935937Y7900500D01*
X12911309Y7900500D01*
X12881403Y7894552D01*
X12875982Y7893960D01*
X12846725Y7899192D01*
X12817132Y7901841D01*
X12812713Y7905274D01*
X12807204Y7906259D01*
X12785425Y7926473D01*
X12761956Y7944705D01*
X12760094Y7949984D01*
X12755993Y7953790D01*
X12748598Y7982574D01*
X12738714Y8010596D01*
X12740000Y8016041D01*
X12738608Y8021462D01*
X12747950Y8049679D01*
X12754784Y8078592D01*
X12759626Y8084942D01*
X12760570Y8087791D01*
X12763776Y8090383D01*
X12774851Y8104906D01*
X13547757Y8877811D01*
X13618945Y8984353D01*
X13667981Y9102737D01*
X13692980Y9228411D01*
X13692980Y9356549D01*
X13692980Y11042184D01*
X13692980Y11042187D01*
X13667982Y11167854D01*
X13667981Y11167855D01*
X13667981Y11167859D01*
X13618945Y11286242D01*
X13604323Y11308126D01*
X13547756Y11392785D01*
X13547753Y11392789D01*
X7437819Y17502723D01*
X7404334Y17564046D01*
X7401500Y17590404D01*
X7401500Y27127010D01*
X7405988Y27143184D01*
X7405535Y27158384D01*
X7417745Y27185552D01*
X7419233Y27190911D01*
X7420751Y27193437D01*
X7482464Y27285797D01*
X7492595Y27310256D01*
X7531500Y27404180D01*
X7548023Y27487244D01*
X7556499Y27529853D01*
X7556499Y27981637D01*
X7576184Y28048676D01*
X7592818Y28069318D01*
X7699461Y28175962D01*
X7699464Y28175965D01*
X7798013Y28323453D01*
X7798919Y28325639D01*
X7834403Y28411307D01*
X7865894Y28487334D01*
X7900500Y28661309D01*
X7900500Y28838691D01*
X7900500Y28838694D01*
X7900499Y28838696D01*
X7865896Y29012659D01*
X7865893Y29012668D01*
X7798016Y29176541D01*
X7798009Y29176554D01*
X7699464Y29324035D01*
X7699461Y29324039D01*
X7574038Y29449462D01*
X7574034Y29449465D01*
X7426553Y29548010D01*
X7426540Y29548017D01*
X7262667Y29615894D01*
X7262658Y29615897D01*
X7088694Y29650500D01*
X7088691Y29650500D01*
X6911309Y29650500D01*
X6911306Y29650500D01*
X6737341Y29615897D01*
X6737332Y29615894D01*
X6573459Y29548017D01*
X6573446Y29548010D01*
X6425965Y29449465D01*
X6425961Y29449462D01*
X6300538Y29324039D01*
X6300532Y29324031D01*
X6299737Y29322841D01*
X6299160Y29322360D01*
X6296672Y29319327D01*
X6296096Y29319800D01*
X6246119Y29278043D01*
X6176792Y29269345D01*
X6113769Y29299509D01*
X6082083Y29344294D01*
X6048016Y29426542D01*
X6048009Y29426554D01*
X5949464Y29574035D01*
X5949461Y29574039D01*
X5824038Y29699462D01*
X5824034Y29699465D01*
X5676553Y29798010D01*
X5676540Y29798017D01*
X5512667Y29865894D01*
X5512658Y29865897D01*
X5338694Y29900500D01*
X5338691Y29900500D01*
X5161309Y29900500D01*
X5161306Y29900500D01*
X4987341Y29865897D01*
X4987332Y29865894D01*
X4823459Y29798017D01*
X4823446Y29798010D01*
X4675965Y29699465D01*
X4675961Y29699462D01*
X4550538Y29574039D01*
X4550535Y29574035D01*
X4451990Y29426554D01*
X4451983Y29426541D01*
X4384106Y29262668D01*
X4384103Y29262659D01*
X4349500Y29088696D01*
X4349500Y28911305D01*
X4384103Y28737342D01*
X4384106Y28737333D01*
X4451983Y28573460D01*
X4451990Y28573447D01*
X4550534Y28425967D01*
X4550535Y28425966D01*
X4550536Y28425965D01*
X4563180Y28413321D01*
X4596665Y28352001D01*
X4599500Y28325639D01*
X4599500Y27683852D01*
X4611640Y27622825D01*
X4622348Y27568993D01*
X4624499Y27558179D01*
X4673535Y27439796D01*
X4722914Y27365894D01*
X4744726Y27333250D01*
X4744727Y27333249D01*
X5062181Y27015796D01*
X5095666Y26954473D01*
X5098500Y26928115D01*
X5098500Y16790486D01*
X5117866Y16693130D01*
X5123499Y16664811D01*
X5172534Y16546430D01*
X5243726Y16439882D01*
X5243727Y16439881D01*
X10843350Y10840259D01*
X10876835Y10778936D01*
X10877286Y10728387D01*
X10849500Y10588696D01*
X10849500Y10411305D01*
X10884103Y10237342D01*
X10884106Y10237333D01*
X10951983Y10073460D01*
X10951990Y10073447D01*
X11050534Y9925967D01*
X11050535Y9925966D01*
X11050536Y9925965D01*
X11063180Y9913321D01*
X11077886Y9886390D01*
X11094477Y9860574D01*
X11095368Y9854376D01*
X11096665Y9852001D01*
X11099500Y9825639D01*
X11099500Y9737851D01*
X11079815Y9670812D01*
X11063181Y9650170D01*
X10242728Y8829719D01*
X10242722Y8829712D01*
X10171535Y8723173D01*
X10122499Y8604788D01*
X10122497Y8604782D01*
X10097500Y8479115D01*
X10097500Y6270892D01*
X10104176Y6237333D01*
X10117930Y6168189D01*
X10122499Y6145219D01*
X10152225Y6073453D01*
X10171535Y6026836D01*
X10242723Y5920294D01*
X10242726Y5920290D01*
X10242727Y5920289D01*
X13532255Y2630762D01*
X13535593Y2624649D01*
X13541309Y2620660D01*
X13552123Y2594376D01*
X13565740Y2569439D01*
X13565242Y2562490D01*
X13567894Y2556046D01*
X13562783Y2528095D01*
X13560756Y2499747D01*
X13556278Y2492518D01*
X13555327Y2487315D01*
X13545283Y2474766D01*
X13535130Y2458372D01*
X13528184Y2450947D01*
X13525965Y2449464D01*
X13400536Y2324035D01*
X13378207Y2290620D01*
X13371284Y2283218D01*
X13363305Y2278510D01*
X13349624Y2264828D01*
X13335332Y2255278D01*
X13335327Y2255274D01*
X8668873Y-2411181D01*
X8607550Y-2444666D01*
X8581192Y-2447500D01*
X3113462Y-2447500D01*
X3046423Y-2427815D01*
X3025781Y-2411181D01*
X3013138Y-2398538D01*
X3013134Y-2398535D01*
X2865653Y-2299990D01*
X2865640Y-2299983D01*
X2701767Y-2232106D01*
X2701758Y-2232103D01*
X2527794Y-2197500D01*
X2527791Y-2197500D01*
X2350409Y-2197500D01*
X2350406Y-2197500D01*
X2176441Y-2232103D01*
X2176432Y-2232106D01*
X2012559Y-2299983D01*
X2012546Y-2299990D01*
X1865065Y-2398535D01*
X1865061Y-2398538D01*
X1739638Y-2523961D01*
X1739635Y-2523965D01*
X1641090Y-2671446D01*
X1641083Y-2671459D01*
X1573206Y-2835332D01*
X1573203Y-2835341D01*
X1538600Y-3009304D01*
X300500Y-3009304D01*
X300500Y36928423D01*
X8909500Y36928423D01*
X8909500Y36731578D01*
X8940290Y36537174D01*
X9001117Y36349971D01*
X9071781Y36211286D01*
X9090476Y36174595D01*
X9206172Y36015354D01*
X9345354Y35876172D01*
X9504595Y35760476D01*
X9579214Y35722456D01*
X9679970Y35671118D01*
X9679972Y35671118D01*
X9679975Y35671116D01*
X9780317Y35638513D01*
X9867173Y35610291D01*
X10061578Y35579500D01*
X10061583Y35579500D01*
X10258422Y35579500D01*
X10452826Y35610291D01*
X10532574Y35636203D01*
X10640025Y35671116D01*
X10815405Y35760476D01*
X10974646Y35876172D01*
X11113828Y36015354D01*
X11229524Y36174595D01*
X11318884Y36349975D01*
X11319515Y36351213D01*
X11367489Y36402010D01*
X11435310Y36418805D01*
X11501445Y36396268D01*
X11540485Y36351213D01*
X11630474Y36174597D01*
X11634817Y36168620D01*
X11746172Y36015354D01*
X11885354Y35876172D01*
X12044595Y35760476D01*
X12119214Y35722456D01*
X12219970Y35671118D01*
X12219972Y35671118D01*
X12219975Y35671116D01*
X12320317Y35638513D01*
X12407173Y35610291D01*
X12601578Y35579500D01*
X12601583Y35579500D01*
X12798422Y35579500D01*
X12992826Y35610291D01*
X13072574Y35636203D01*
X13180025Y35671116D01*
X13355405Y35760476D01*
X13514646Y35876172D01*
X13653828Y36015354D01*
X13765184Y36168622D01*
X13820512Y36211286D01*
X13890125Y36217265D01*
X13951920Y36184659D01*
X13986277Y36123821D01*
X13989500Y36095737D01*
X13989500Y36032131D01*
X13989501Y36032124D01*
X13995908Y35972517D01*
X14046202Y35837672D01*
X14046206Y35837665D01*
X14132452Y35722456D01*
X14132455Y35722453D01*
X14247664Y35636207D01*
X14247671Y35636203D01*
X14382517Y35585909D01*
X14382516Y35585909D01*
X14389444Y35585165D01*
X14442127Y35579500D01*
X16037872Y35579501D01*
X16097483Y35585909D01*
X16232331Y35636204D01*
X16347546Y35722454D01*
X16433796Y35837669D01*
X16484091Y35972517D01*
X16490500Y36032127D01*
X16490499Y37627872D01*
X16484091Y37687483D01*
X16478637Y37702105D01*
X16433797Y37822329D01*
X16433793Y37822336D01*
X16347547Y37937545D01*
X16347544Y37937548D01*
X16232335Y38023794D01*
X16232328Y38023798D01*
X16097482Y38074092D01*
X16097483Y38074092D01*
X16037883Y38080499D01*
X16037881Y38080500D01*
X16037873Y38080500D01*
X16037865Y38080500D01*
X15979071Y38080500D01*
X15912032Y38100185D01*
X15866277Y38152989D01*
X15856333Y38222147D01*
X15885358Y38285703D01*
X15886611Y38286684D01*
X15888312Y38297424D01*
X15313642Y38872095D01*
X15432993Y38904075D01*
X15547007Y38969901D01*
X15640099Y39062993D01*
X15705925Y39177007D01*
X15737905Y39296359D01*
X16312575Y38721689D01*
X16398418Y38890165D01*
X16459221Y39077295D01*
X16490000Y39271618D01*
X16490000Y39468383D01*
X16459221Y39662706D01*
X16398417Y39849839D01*
X16312576Y40018313D01*
X16312576Y40018314D01*
X15737905Y39443643D01*
X15705925Y39562993D01*
X15640099Y39677007D01*
X15547007Y39770099D01*
X15432993Y39835925D01*
X15313642Y39867906D01*
X15888312Y40442577D01*
X15888312Y40442578D01*
X15719840Y40528417D01*
X15719830Y40528421D01*
X15532705Y40589222D01*
X15338382Y40620000D01*
X15141618Y40620000D01*
X14947294Y40589222D01*
X14760169Y40528421D01*
X14760159Y40528417D01*
X14591686Y40442578D01*
X15166358Y39867906D01*
X15047007Y39835925D01*
X14932993Y39770099D01*
X14839901Y39677007D01*
X14774075Y39562993D01*
X14742094Y39443642D01*
X14167422Y40018314D01*
X14080485Y39847685D01*
X14032511Y39796889D01*
X13964690Y39780093D01*
X13898555Y39802630D01*
X13859515Y39847685D01*
X13772576Y40018314D01*
X13197905Y39443643D01*
X13165925Y39562993D01*
X13100099Y39677007D01*
X13007007Y39770099D01*
X12892993Y39835925D01*
X12773642Y39867906D01*
X13348312Y40442577D01*
X13348312Y40442578D01*
X13179840Y40528417D01*
X13179830Y40528421D01*
X12992705Y40589222D01*
X12798382Y40620000D01*
X12601618Y40620000D01*
X12407294Y40589222D01*
X12220169Y40528421D01*
X12220159Y40528417D01*
X12051686Y40442578D01*
X12626358Y39867906D01*
X12507007Y39835925D01*
X12392993Y39770099D01*
X12299901Y39677007D01*
X12234075Y39562993D01*
X12202094Y39443642D01*
X11627422Y40018314D01*
X11540485Y39847685D01*
X11492511Y39796889D01*
X11424690Y39780093D01*
X11358555Y39802630D01*
X11319515Y39847685D01*
X11232576Y40018314D01*
X10657905Y39443643D01*
X10625925Y39562993D01*
X10560099Y39677007D01*
X10467007Y39770099D01*
X10352993Y39835925D01*
X10233642Y39867906D01*
X10808312Y40442577D01*
X10808312Y40442578D01*
X10639840Y40528417D01*
X10639830Y40528421D01*
X10452705Y40589222D01*
X10258382Y40620000D01*
X10061618Y40620000D01*
X9867294Y40589222D01*
X9680169Y40528421D01*
X9680159Y40528417D01*
X9511686Y40442578D01*
X10086358Y39867906D01*
X9967007Y39835925D01*
X9852993Y39770099D01*
X9759901Y39677007D01*
X9694075Y39562993D01*
X9662094Y39443642D01*
X9087422Y40018314D01*
X9001583Y39849841D01*
X9001579Y39849831D01*
X8940778Y39662706D01*
X8910000Y39468383D01*
X8910000Y39271618D01*
X8940778Y39077295D01*
X9001579Y38890170D01*
X9001583Y38890160D01*
X9087422Y38721688D01*
X9087423Y38721688D01*
X9662094Y39296359D01*
X9694075Y39177007D01*
X9759901Y39062993D01*
X9852993Y38969901D01*
X9967007Y38904075D01*
X10086358Y38872095D01*
X9511687Y38297424D01*
X9681764Y38210766D01*
X9732560Y38162792D01*
X9749355Y38094971D01*
X9726818Y38028836D01*
X9681764Y37989796D01*
X9504594Y37899524D01*
X9413741Y37833515D01*
X9345354Y37783828D01*
X9345352Y37783826D01*
X9345351Y37783826D01*
X9206174Y37644649D01*
X9206174Y37644648D01*
X9206172Y37644646D01*
X9156485Y37576259D01*
X9090476Y37485406D01*
X9001117Y37310030D01*
X8940290Y37122827D01*
X8909500Y36928423D01*
X300500Y36928423D01*
X300500Y38996520D01*
X300695Y39003473D01*
X306690Y39110222D01*
X1599500Y39110222D01*
X1599500Y38889779D01*
X1633985Y38672048D01*
X1702103Y38462397D01*
X1702104Y38462394D01*
X1743079Y38381978D01*
X1801657Y38267014D01*
X1802187Y38265975D01*
X1931752Y38087642D01*
X1931756Y38087637D01*
X2087636Y37931757D01*
X2087641Y37931753D01*
X2238242Y37822336D01*
X2265978Y37802185D01*
X2394375Y37736763D01*
X2462393Y37702105D01*
X2462396Y37702104D01*
X2567221Y37668045D01*
X2672049Y37633985D01*
X2889778Y37599500D01*
X2889779Y37599500D01*
X3110221Y37599500D01*
X3110222Y37599500D01*
X3327951Y37633985D01*
X3537606Y37702105D01*
X3734022Y37802185D01*
X3912365Y37931758D01*
X4068242Y38087635D01*
X4197815Y38265978D01*
X4297895Y38462394D01*
X4366015Y38672049D01*
X4400500Y38889778D01*
X4400500Y39110222D01*
X4366015Y39327951D01*
X4307775Y39507197D01*
X4297896Y39537604D01*
X4297895Y39537607D01*
X4262340Y39607385D01*
X4197815Y39734022D01*
X4123779Y39835925D01*
X4068247Y39912359D01*
X4068243Y39912364D01*
X3912363Y40068244D01*
X3912358Y40068248D01*
X3734021Y40197816D01*
X3734020Y40197817D01*
X3554896Y40289087D01*
X3554893Y40289087D01*
X3537606Y40297895D01*
X3537603Y40297897D01*
X3327952Y40366015D01*
X3219086Y40383258D01*
X3110222Y40400500D01*
X2889778Y40400500D01*
X2817201Y40389005D01*
X2672047Y40366015D01*
X2462396Y40297897D01*
X2462393Y40297896D01*
X2265974Y40197813D01*
X2087641Y40068248D01*
X2087636Y40068244D01*
X1931756Y39912364D01*
X1931752Y39912359D01*
X1802187Y39734026D01*
X1702104Y39537607D01*
X1702103Y39537604D01*
X1633985Y39327953D01*
X1599500Y39110222D01*
X306690Y39110222D01*
X307354Y39122047D01*
X307354Y39122048D01*
X310214Y39172972D01*
X317084Y39295307D01*
X318638Y39309102D01*
X367015Y39593833D01*
X370109Y39607385D01*
X373174Y39618022D01*
X450061Y39884904D01*
X454653Y39898025D01*
X565175Y40164849D01*
X571195Y40177349D01*
X710902Y40430132D01*
X718297Y40441900D01*
X885422Y40677441D01*
X894077Y40688295D01*
X1086534Y40903654D01*
X1096346Y40913466D01*
X1311705Y41105923D01*
X1322559Y41114578D01*
X1558105Y41281707D01*
X1569868Y41289098D01*
X1822651Y41428805D01*
X1835151Y41434825D01*
X2101979Y41545349D01*
X2115096Y41549939D01*
X2392621Y41629893D01*
X2406167Y41632985D01*
X2690898Y41681362D01*
X2704691Y41682916D01*
X2996528Y41699305D01*
X3003481Y41699500D01*
X4198821Y41699500D01*
X4198824Y41699500D01*
X4446709Y41722470D01*
X4594767Y41736189D01*
X4594768Y41736189D01*
X4594770Y41736190D01*
X4594776Y41736190D01*
X4985654Y41809258D01*
X5368122Y41918079D01*
X5738918Y42061726D01*
X6094878Y42238973D01*
X6432965Y42448308D01*
X6750296Y42687945D01*
X6998432Y42914151D01*
X21659528Y42914151D01*
X21659528Y42790265D01*
X21691592Y42670602D01*
X21753534Y42563314D01*
X21841134Y42475714D01*
X21948422Y42413772D01*
X22068085Y42381708D01*
X22068088Y42381708D01*
X22191968Y42381708D01*
X22191971Y42381708D01*
X22311634Y42413772D01*
X22418922Y42475714D01*
X22506522Y42563314D01*
X22568464Y42670602D01*
X22600528Y42790265D01*
X22600528Y42914151D01*
X25659528Y42914151D01*
X25659528Y42790265D01*
X25691592Y42670602D01*
X25753534Y42563314D01*
X25841134Y42475714D01*
X25948422Y42413772D01*
X26068085Y42381708D01*
X26068088Y42381708D01*
X26191968Y42381708D01*
X26191971Y42381708D01*
X26311634Y42413772D01*
X26418922Y42475714D01*
X26506522Y42563314D01*
X26568464Y42670602D01*
X26600528Y42790265D01*
X26600528Y42914151D01*
X26568464Y43033814D01*
X26506522Y43141102D01*
X26418922Y43228702D01*
X26311634Y43290644D01*
X26311635Y43290644D01*
X26281718Y43298660D01*
X26191971Y43322708D01*
X26068085Y43322708D01*
X25978337Y43298660D01*
X25948421Y43290644D01*
X25841135Y43228703D01*
X25841132Y43228701D01*
X25753535Y43141104D01*
X25753533Y43141101D01*
X25691592Y43033815D01*
X25691592Y43033814D01*
X25659528Y42914151D01*
X22600528Y42914151D01*
X22568464Y43033814D01*
X22506522Y43141102D01*
X22418922Y43228702D01*
X22311634Y43290644D01*
X22311635Y43290644D01*
X22281718Y43298660D01*
X22191971Y43322708D01*
X22068085Y43322708D01*
X21978337Y43298660D01*
X21948421Y43290644D01*
X21841135Y43228703D01*
X21841132Y43228701D01*
X21753535Y43141104D01*
X21753533Y43141101D01*
X21691592Y43033815D01*
X21691592Y43033814D01*
X21659528Y42914151D01*
X6998432Y42914151D01*
X7044161Y42955839D01*
X7089722Y43005816D01*
X7312052Y43249701D01*
X7312055Y43249704D01*
X7551692Y43567035D01*
X7761027Y43905122D01*
X7938274Y44261082D01*
X8081921Y44631878D01*
X8116586Y44753713D01*
X20305027Y44753713D01*
X20343454Y44560527D01*
X20343457Y44560515D01*
X20418834Y44378537D01*
X20418841Y44378524D01*
X20528275Y44214746D01*
X20528278Y44214742D01*
X20667560Y44075460D01*
X20667564Y44075457D01*
X20831345Y43966021D01*
X20831348Y43966020D01*
X21005026Y43894080D01*
X21005027Y43894080D01*
X21605027Y43894080D01*
X21778705Y43966020D01*
X21778708Y43966021D01*
X21942489Y44075457D01*
X21942493Y44075460D01*
X22081775Y44214742D01*
X22081778Y44214746D01*
X22191212Y44378524D01*
X22191219Y44378537D01*
X22266596Y44560515D01*
X22266599Y44560527D01*
X22305026Y44753713D01*
X25955029Y44753713D01*
X25993456Y44560527D01*
X25993459Y44560515D01*
X26068836Y44378537D01*
X26068843Y44378524D01*
X26178277Y44214746D01*
X26178280Y44214742D01*
X26317562Y44075460D01*
X26317566Y44075457D01*
X26481347Y43966021D01*
X26481350Y43966020D01*
X26655028Y43894080D01*
X26655029Y43894080D01*
X27255029Y43894080D01*
X27428707Y43966020D01*
X27428710Y43966021D01*
X27592491Y44075457D01*
X27592495Y44075460D01*
X27731777Y44214742D01*
X27731780Y44214746D01*
X27841214Y44378524D01*
X27841221Y44378537D01*
X27916598Y44560515D01*
X27916601Y44560527D01*
X27955028Y44753713D01*
X27955029Y44753716D01*
X27955029Y44902208D01*
X27255029Y44902208D01*
X27255029Y43894080D01*
X26655029Y43894080D01*
X26655029Y44902208D01*
X25955029Y44902208D01*
X25955029Y44753713D01*
X22305026Y44753713D01*
X22305027Y44753716D01*
X22305027Y44902208D01*
X21605027Y44902208D01*
X21605027Y43894080D01*
X21005027Y43894080D01*
X21005027Y44902208D01*
X20305027Y44902208D01*
X20305027Y44753713D01*
X8116586Y44753713D01*
X8190742Y45014346D01*
X8263810Y45405224D01*
X8286557Y45650704D01*
X20305027Y45650704D01*
X20305027Y45502208D01*
X21005027Y45502208D01*
X21005027Y45601936D01*
X21055027Y45601936D01*
X21055027Y44802480D01*
X21093087Y44710594D01*
X21163413Y44640268D01*
X21255299Y44602208D01*
X21354755Y44602208D01*
X21446641Y44640268D01*
X21516967Y44710594D01*
X21555027Y44802480D01*
X21555027Y45502208D01*
X21605027Y45502208D01*
X22305027Y45502208D01*
X22305027Y45650700D01*
X22305026Y45650704D01*
X25955029Y45650704D01*
X25955029Y45502208D01*
X26655029Y45502208D01*
X26655029Y45601936D01*
X26705029Y45601936D01*
X26705029Y44802480D01*
X26743089Y44710594D01*
X26813415Y44640268D01*
X26905301Y44602208D01*
X27004757Y44602208D01*
X27096643Y44640268D01*
X27166969Y44710594D01*
X27205029Y44802480D01*
X27205029Y45110222D01*
X29599500Y45110222D01*
X29599500Y45078365D01*
X29599500Y44889778D01*
X29606903Y44843038D01*
X29633985Y44672048D01*
X29702103Y44462397D01*
X29702104Y44462394D01*
X29744839Y44378524D01*
X29787446Y44294904D01*
X29802187Y44265975D01*
X29931752Y44087642D01*
X29931756Y44087637D01*
X30087636Y43931757D01*
X30087641Y43931753D01*
X30243192Y43818740D01*
X30265978Y43802185D01*
X30394375Y43736763D01*
X30462393Y43702105D01*
X30462396Y43702104D01*
X30567221Y43668045D01*
X30672049Y43633985D01*
X30889778Y43599500D01*
X30889779Y43599500D01*
X31110221Y43599500D01*
X31110222Y43599500D01*
X31327951Y43633985D01*
X31537606Y43702105D01*
X31734022Y43802185D01*
X31912365Y43931758D01*
X32068242Y44087635D01*
X32197815Y44265978D01*
X32297895Y44462394D01*
X32366015Y44672049D01*
X32400500Y44889778D01*
X32400500Y45110222D01*
X32366015Y45327951D01*
X32317980Y45475791D01*
X32297896Y45537604D01*
X32297895Y45537607D01*
X32263237Y45605625D01*
X32197815Y45734022D01*
X32117983Y45843902D01*
X32068247Y45912359D01*
X32068243Y45912364D01*
X31912363Y46068244D01*
X31912358Y46068248D01*
X31734025Y46197813D01*
X31734024Y46197814D01*
X31734022Y46197815D01*
X31671096Y46229878D01*
X31537606Y46297896D01*
X31537603Y46297897D01*
X31327952Y46366015D01*
X31219086Y46383258D01*
X31110222Y46400500D01*
X30889778Y46400500D01*
X30817201Y46389005D01*
X30672047Y46366015D01*
X30462396Y46297897D01*
X30462393Y46297896D01*
X30265974Y46197813D01*
X30087641Y46068248D01*
X30087636Y46068244D01*
X29931756Y45912364D01*
X29931752Y45912359D01*
X29802187Y45734026D01*
X29702104Y45537607D01*
X29702103Y45537604D01*
X29633985Y45327953D01*
X29599500Y45110222D01*
X27205029Y45110222D01*
X27205029Y45502208D01*
X27255029Y45502208D01*
X27955029Y45502208D01*
X27955029Y45650700D01*
X27955028Y45650704D01*
X27916601Y45843890D01*
X27916598Y45843902D01*
X27841221Y46025880D01*
X27841214Y46025893D01*
X27731780Y46189671D01*
X27731777Y46189675D01*
X27592495Y46328957D01*
X27592491Y46328960D01*
X27428713Y46438394D01*
X27428704Y46438399D01*
X27255029Y46510337D01*
X27255029Y45502208D01*
X27205029Y45502208D01*
X27205029Y45601936D01*
X27166969Y45693822D01*
X27096643Y45764148D01*
X27004757Y45802208D01*
X26905301Y45802208D01*
X26813415Y45764148D01*
X26743089Y45693822D01*
X26705029Y45601936D01*
X26655029Y45601936D01*
X26655029Y46510337D01*
X26655028Y46510337D01*
X26481353Y46438399D01*
X26481344Y46438394D01*
X26317566Y46328960D01*
X26317562Y46328957D01*
X26178280Y46189675D01*
X26178277Y46189671D01*
X26068843Y46025893D01*
X26068836Y46025880D01*
X25993459Y45843902D01*
X25993456Y45843890D01*
X25955029Y45650704D01*
X22305026Y45650704D01*
X22266599Y45843890D01*
X22266596Y45843902D01*
X22191219Y46025880D01*
X22191212Y46025893D01*
X22081778Y46189671D01*
X22081775Y46189675D01*
X21942493Y46328957D01*
X21942489Y46328960D01*
X21778711Y46438394D01*
X21778702Y46438399D01*
X21605027Y46510337D01*
X21605027Y45502208D01*
X21555027Y45502208D01*
X21555027Y45601936D01*
X21516967Y45693822D01*
X21446641Y45764148D01*
X21354755Y45802208D01*
X21255299Y45802208D01*
X21163413Y45764148D01*
X21093087Y45693822D01*
X21055027Y45601936D01*
X21005027Y45601936D01*
X21005027Y46510337D01*
X21005026Y46510337D01*
X20831351Y46438399D01*
X20831342Y46438394D01*
X20667564Y46328960D01*
X20667560Y46328957D01*
X20528278Y46189675D01*
X20528275Y46189671D01*
X20418841Y46025893D01*
X20418834Y46025880D01*
X20343457Y45843902D01*
X20343454Y45843890D01*
X20305027Y45650704D01*
X8286557Y45650704D01*
X8300500Y45801176D01*
X8300500Y46000000D01*
X8300500Y46047595D01*
X8300500Y47575500D01*
X8320185Y47642539D01*
X8372989Y47688294D01*
X8424500Y47699500D01*
X30952405Y47699500D01*
X30996396Y47699500D01*
X31003605Y47699291D01*
G37*
%TD.AperFunction*%
%TD*%
M02*
