<?xml version="1.0" standalone="no"?>
 <!DOCTYPE svg PUBLIC "-//W3C//DTD SVG 1.1//EN" 
 "http://www.w3.org/Graphics/SVG/1.1/DTD/svg11.dtd"> 
<svg
  xmlns:svg="http://www.w3.org/2000/svg"
  xmlns="http://www.w3.org/2000/svg"
  xmlns:xlink="http://www.w3.org/1999/xlink"
  version="1.1"
  width="297.0022mm" height="210.0072mm" viewBox="0.0000 0.0000 297.0022 210.0072">
<title>SVG Image created as PMMCU-ESP32C3-NPTH-drl_map.svg date 2025/06/10 08:24:41 </title>
  <desc>Image generated by PCBNEW </desc>
<g style="fill:#000000; fill-opacity:1.0000;stroke:#000000; stroke-opacity:1.0000;
stroke-linecap:round; stroke-linejoin:round;"
 transform="translate(0 0) scale(1 1)">
</g>
<g style="fill:none; 
stroke:#000000; stroke-width:0.2412; stroke-opacity:1; 
stroke-linecap:round; stroke-linejoin:round;">
<path d="M128.0014 110.0309 A3.6176 3.6176 0.0 0 0 131.6190 113.6485" />
<path d="M132.8248 12.3558 A4.8235 4.8235 0.0 0 0 137.6483 7.5323" />
<path d="M137.6483 120.8837
L137.6483 118.4720
" />
<path d="M132.8248 12.3558
L131.6190 12.3558
" />
<path d="M132.8248 113.6485
L131.6190 113.6485
" />
<path d="M131.6190 12.3558 A3.6176 3.6176 0.0 0 0 128.0014 15.9734" />
<path d="M137.6483 118.4720 A4.8235 4.8235 0.0 0 0 132.8248 113.6485" />
<path d="M137.6483 5.1206
L137.6483 7.5323
" />
<path d="M165.3832 113.6485
L165.3832 12.3558
" />
<path d="M165.3832 120.8837 A3.6176 3.6176 0.0 0 0 165.3832 113.6485" />
<path d="M128.0014 15.9734
L128.0014 110.0309
" />
<path d="M165.3832 5.1206
L137.6483 5.1206
" />
<path d="M165.3832 120.8837
L137.6483 120.8837
" />
<path d="M165.3832 12.3558 A3.6176 3.6176 0.0 0 0 165.3832 5.1206" />
</g>
<g style="fill:none; 
stroke:#000000; stroke-width:0.1206; stroke-opacity:1; 
stroke-linecap:round; stroke-linejoin:round;">
<circle cx="154.6872" cy="11.3281" r="0.2050" /> 
<circle cx="159.5107" cy="11.3281" r="0.2050" /> 
</g>
<g style="fill:none; 
stroke:#000000; stroke-width:0.0603; stroke-opacity:1; 
stroke-linecap:round; stroke-linejoin:round;">
<circle cx="131.6190" cy="110.0309" r="1.3265" /> 
<circle cx="165.3832" cy="117.2661" r="1.3265" /> 
<circle cx="165.3832" cy="8.7382" r="1.3265" /> 
<circle cx="131.6190" cy="15.9734" r="1.3265" /> 
</g>
<g style="fill:none; 
stroke:#000000; stroke-width:0.2000; stroke-opacity:1; 
stroke-linecap:round; stroke-linejoin:round;">
<text x="129.8808" y="124.2043"
textLength="14.8667" font-size="2.6667" lengthAdjust="spacingAndGlyphs"
text-anchor="start" opacity="0" stroke-opacity="0">Drill Map:</text>
<g class="stroked-text"><desc>Drill Map:</desc>
<path d="M130.4886 124.1192
L130.4886 122.1192
" />
<path d="M130.4886 122.1192
L130.9647 122.1192
" />
<path d="M130.9647 122.1192
L131.2505 122.2144
" />
<path d="M131.2505 122.2144
L131.4409 122.4049
" />
<path d="M131.4409 122.4049
L131.5362 122.5953
" />
<path d="M131.5362 122.5953
L131.6314 122.9763
" />
<path d="M131.6314 122.9763
L131.6314 123.2620
" />
<path d="M131.6314 123.2620
L131.5362 123.6430
" />
<path d="M131.5362 123.6430
L131.4409 123.8334
" />
<path d="M131.4409 123.8334
L131.2505 124.0239
" />
<path d="M131.2505 124.0239
L130.9647 124.1192
" />
<path d="M130.9647 124.1192
L130.4886 124.1192
" />
<path d="M132.4886 124.1192
L132.4886 122.7858
" />
<path d="M132.4886 123.1668
L132.5838 122.9763
" />
<path d="M132.5838 122.9763
L132.6790 122.8811
" />
<path d="M132.6790 122.8811
L132.8695 122.7858
" />
<path d="M132.8695 122.7858
L133.0600 122.7858
" />
<path d="M133.7267 124.1192
L133.7267 122.7858
" />
<path d="M133.7267 122.1192
L133.6314 122.2144
" />
<path d="M133.6314 122.2144
L133.7267 122.3096
" />
<path d="M133.7267 122.3096
L133.8219 122.2144
" />
<path d="M133.8219 122.2144
L133.7267 122.1192
" />
<path d="M133.7267 122.1192
L133.7267 122.3096
" />
<path d="M134.9647 124.1192
L134.7743 124.0239
" />
<path d="M134.7743 124.0239
L134.6790 123.8334
" />
<path d="M134.6790 123.8334
L134.6790 122.1192
" />
<path d="M136.0124 124.1192
L135.8219 124.0239
" />
<path d="M135.8219 124.0239
L135.7267 123.8334
" />
<path d="M135.7267 123.8334
L135.7267 122.1192
" />
<path d="M138.2981 124.1192
L138.2981 122.1192
" />
<path d="M138.2981 122.1192
L138.9647 123.5477
" />
<path d="M138.9647 123.5477
L139.6314 122.1192
" />
<path d="M139.6314 122.1192
L139.6314 124.1192
" />
<path d="M141.4409 124.1192
L141.4409 123.0715
" />
<path d="M141.4409 123.0715
L141.3457 122.8811
" />
<path d="M141.3457 122.8811
L141.1552 122.7858
" />
<path d="M141.1552 122.7858
L140.7743 122.7858
" />
<path d="M140.7743 122.7858
L140.5838 122.8811
" />
<path d="M141.4409 124.0239
L141.2505 124.1192
" />
<path d="M141.2505 124.1192
L140.7743 124.1192
" />
<path d="M140.7743 124.1192
L140.5838 124.0239
" />
<path d="M140.5838 124.0239
L140.4886 123.8334
" />
<path d="M140.4886 123.8334
L140.4886 123.6430
" />
<path d="M140.4886 123.6430
L140.5838 123.4525
" />
<path d="M140.5838 123.4525
L140.7743 123.3573
" />
<path d="M140.7743 123.3573
L141.2505 123.3573
" />
<path d="M141.2505 123.3573
L141.4409 123.2620
" />
<path d="M142.3933 122.7858
L142.3933 124.7858
" />
<path d="M142.3933 122.8811
L142.5838 122.7858
" />
<path d="M142.5838 122.7858
L142.9647 122.7858
" />
<path d="M142.9647 122.7858
L143.1552 122.8811
" />
<path d="M143.1552 122.8811
L143.2505 122.9763
" />
<path d="M143.2505 122.9763
L143.3457 123.1668
" />
<path d="M143.3457 123.1668
L143.3457 123.7382
" />
<path d="M143.3457 123.7382
L143.2505 123.9287
" />
<path d="M143.2505 123.9287
L143.1552 124.0239
" />
<path d="M143.1552 124.0239
L142.9647 124.1192
" />
<path d="M142.9647 124.1192
L142.5838 124.1192
" />
<path d="M142.5838 124.1192
L142.3933 124.0239
" />
<path d="M144.2028 123.9287
L144.2981 124.0239
" />
<path d="M144.2981 124.0239
L144.2028 124.1192
" />
<path d="M144.2028 124.1192
L144.1076 124.0239
" />
<path d="M144.1076 124.0239
L144.2028 123.9287
" />
<path d="M144.2028 123.9287
L144.2028 124.1192
" />
<path d="M144.2028 122.8811
L144.2981 122.9763
" />
<path d="M144.2981 122.9763
L144.2028 123.0715
" />
<path d="M144.2028 123.0715
L144.1076 122.9763
" />
<path d="M144.1076 122.9763
L144.2028 122.8811
" />
<path d="M144.2028 122.8811
L144.2028 123.0715
" />
</g></g> 
</svg>
