<?xml version="1.0" standalone="no"?>
 <!DOCTYPE svg PUBLIC "-//W3C//DTD SVG 1.1//EN" 
 "http://www.w3.org/Graphics/SVG/1.1/DTD/svg11.dtd"> 
<svg
  xmlns:svg="http://www.w3.org/2000/svg"
  xmlns="http://www.w3.org/2000/svg"
  xmlns:xlink="http://www.w3.org/1999/xlink"
  version="1.1"
  width="148.0058mm" height="210.0072mm" viewBox="0.0000 0.0000 148.0058 210.0072">
<title>SVG Image created as PM-CPU-RP-User_Comments.svg date 2024/07/11 20:35:31 </title>
  <desc>Image generated by PCBNEW </desc>
<g style="fill:#000000; fill-opacity:1.0000;stroke:#000000; stroke-opacity:1.0000;
stroke-linecap:round; stroke-linejoin:round;"
 transform="translate(0 0) scale(1 1)">
</g>
<g style="fill:none; 
stroke:#000000; stroke-width:0.1500; stroke-opacity:1; 
stroke-linecap:round; stroke-linejoin:round;">
<path d="M28.0058 166.0072
L136.0058 166.0072
L136.0058 198.0072
L28.0058 198.0072
L28.0058 166.0072
" />
</g>
<g style="fill:none; 
stroke:#000000; stroke-width:0.1500; stroke-opacity:1; 
stroke-linecap:round; stroke-linejoin:round;">
<path d="M10.0000 10.0000
L138.0058 10.0000
L138.0058 200.0072
L10.0000 200.0072
L10.0000 10.0000
" />
</g>
<g style="fill:none; 
stroke:#000000; stroke-width:0.1500; stroke-opacity:1; 
stroke-linecap:round; stroke-linejoin:round;">
<path d="M12.0000 12.0000
L136.0058 12.0000
L136.0058 198.0072
L12.0000 198.0072
L12.0000 12.0000
" />
</g>
<g style="fill:none; 
stroke:#000000; stroke-width:0.1500; stroke-opacity:1; 
stroke-linecap:round; stroke-linejoin:round;">
<path d="M60.0000 12.0000
L60.0000 10.0000
" />
</g>
<g style="fill:none; 
stroke:#000000; stroke-width:0.1500; stroke-opacity:1; 
stroke-linecap:round; stroke-linejoin:round;">
<path d="M110.0000 12.0000
L110.0000 10.0000
" />
</g>
<g style="fill:none; 
stroke:#000000; stroke-width:0.1500; stroke-opacity:1; 
stroke-linecap:round; stroke-linejoin:round;">
<text x="35.0000" y="11.6500"
textLength="1.4281" font-size="1.7333" lengthAdjust="spacingAndGlyphs"
text-anchor="start" opacity="0">1</text>
<g class="stroked-text"><desc>1</desc>
<path d="M36.0892 11.5936
L35.3463 11.5936
" />
<path d="M35.7177 11.5936
L35.7177 10.2936
" />
<path d="M35.7177 10.2936
L35.5939 10.4793
" />
<path d="M35.5939 10.4793
L35.4701 10.6031
" />
<path d="M35.4701 10.6031
L35.3463 10.6650
" />
</g></g>
<g style="fill:none; 
stroke:#000000; stroke-width:0.1500; stroke-opacity:1; 
stroke-linecap:round; stroke-linejoin:round;">
<text x="85.0000" y="11.6500"
textLength="1.4281" font-size="1.7333" lengthAdjust="spacingAndGlyphs"
text-anchor="start" opacity="0">2</text>
<g class="stroked-text"><desc>2</desc>
<path d="M85.3463 10.4174
L85.4082 10.3555
" />
<path d="M85.4082 10.3555
L85.5320 10.2936
" />
<path d="M85.5320 10.2936
L85.8415 10.2936
" />
<path d="M85.8415 10.2936
L85.9654 10.3555
" />
<path d="M85.9654 10.3555
L86.0273 10.4174
" />
<path d="M86.0273 10.4174
L86.0892 10.5412
" />
<path d="M86.0892 10.5412
L86.0892 10.6650
" />
<path d="M86.0892 10.6650
L86.0273 10.8507
" />
<path d="M86.0273 10.8507
L85.2844 11.5936
" />
<path d="M85.2844 11.5936
L86.0892 11.5936
" />
</g></g>
<g style="fill:none; 
stroke:#000000; stroke-width:0.1500; stroke-opacity:1; 
stroke-linecap:round; stroke-linejoin:round;">
<text x="135.0000" y="11.6500"
textLength="1.4281" font-size="1.7333" lengthAdjust="spacingAndGlyphs"
text-anchor="start" opacity="0">3</text>
<g class="stroked-text"><desc>3</desc>
<path d="M135.2844 10.2936
L136.0892 10.2936
" />
<path d="M136.0892 10.2936
L135.6558 10.7888
" />
<path d="M135.6558 10.7888
L135.8415 10.7888
" />
<path d="M135.8415 10.7888
L135.9654 10.8507
" />
<path d="M135.9654 10.8507
L136.0273 10.9127
" />
<path d="M136.0273 10.9127
L136.0892 11.0365
" />
<path d="M136.0892 11.0365
L136.0892 11.3460
" />
<path d="M136.0892 11.3460
L136.0273 11.4698
" />
<path d="M136.0273 11.4698
L135.9654 11.5317
" />
<path d="M135.9654 11.5317
L135.8415 11.5936
" />
<path d="M135.8415 11.5936
L135.4701 11.5936
" />
<path d="M135.4701 11.5936
L135.3463 11.5317
" />
<path d="M135.3463 11.5317
L135.2844 11.4698
" />
</g></g>
<g style="fill:none; 
stroke:#000000; stroke-width:0.1500; stroke-opacity:1; 
stroke-linecap:round; stroke-linejoin:round;">
<path d="M60.0000 198.0072
L60.0000 200.0072
" />
</g>
<g style="fill:none; 
stroke:#000000; stroke-width:0.1500; stroke-opacity:1; 
stroke-linecap:round; stroke-linejoin:round;">
<path d="M110.0000 198.0072
L110.0000 200.0072
" />
</g>
<g style="fill:none; 
stroke:#000000; stroke-width:0.1500; stroke-opacity:1; 
stroke-linecap:round; stroke-linejoin:round;">
<text x="35.0000" y="199.6572"
textLength="1.4281" font-size="1.7333" lengthAdjust="spacingAndGlyphs"
text-anchor="start" opacity="0">1</text>
<g class="stroked-text"><desc>1</desc>
<path d="M36.0892 199.6008
L35.3463 199.6008
" />
<path d="M35.7177 199.6008
L35.7177 198.3008
" />
<path d="M35.7177 198.3008
L35.5939 198.4865
" />
<path d="M35.5939 198.4865
L35.4701 198.6103
" />
<path d="M35.4701 198.6103
L35.3463 198.6722
" />
</g></g>
<g style="fill:none; 
stroke:#000000; stroke-width:0.1500; stroke-opacity:1; 
stroke-linecap:round; stroke-linejoin:round;">
<text x="85.0000" y="199.6572"
textLength="1.4281" font-size="1.7333" lengthAdjust="spacingAndGlyphs"
text-anchor="start" opacity="0">2</text>
<g class="stroked-text"><desc>2</desc>
<path d="M85.3463 198.4246
L85.4082 198.3627
" />
<path d="M85.4082 198.3627
L85.5320 198.3008
" />
<path d="M85.5320 198.3008
L85.8415 198.3008
" />
<path d="M85.8415 198.3008
L85.9654 198.3627
" />
<path d="M85.9654 198.3627
L86.0273 198.4246
" />
<path d="M86.0273 198.4246
L86.0892 198.5484
" />
<path d="M86.0892 198.5484
L86.0892 198.6722
" />
<path d="M86.0892 198.6722
L86.0273 198.8579
" />
<path d="M86.0273 198.8579
L85.2844 199.6008
" />
<path d="M85.2844 199.6008
L86.0892 199.6008
" />
</g></g>
<g style="fill:none; 
stroke:#000000; stroke-width:0.1500; stroke-opacity:1; 
stroke-linecap:round; stroke-linejoin:round;">
<text x="135.0000" y="199.6572"
textLength="1.4281" font-size="1.7333" lengthAdjust="spacingAndGlyphs"
text-anchor="start" opacity="0">3</text>
<g class="stroked-text"><desc>3</desc>
<path d="M135.2844 198.3008
L136.0892 198.3008
" />
<path d="M136.0892 198.3008
L135.6558 198.7960
" />
<path d="M135.6558 198.7960
L135.8415 198.7960
" />
<path d="M135.8415 198.7960
L135.9654 198.8579
" />
<path d="M135.9654 198.8579
L136.0273 198.9199
" />
<path d="M136.0273 198.9199
L136.0892 199.0437
" />
<path d="M136.0892 199.0437
L136.0892 199.3532
" />
<path d="M136.0892 199.3532
L136.0273 199.4770
" />
<path d="M136.0273 199.4770
L135.9654 199.5389
" />
<path d="M135.9654 199.5389
L135.8415 199.6008
" />
<path d="M135.8415 199.6008
L135.4701 199.6008
" />
<path d="M135.4701 199.6008
L135.3463 199.5389
" />
<path d="M135.3463 199.5389
L135.2844 199.4770
" />
</g></g>
<g style="fill:none; 
stroke:#000000; stroke-width:0.1500; stroke-opacity:1; 
stroke-linecap:round; stroke-linejoin:round;">
<path d="M10.0000 60.0000
L12.0000 60.0000
" />
</g>
<g style="fill:none; 
stroke:#000000; stroke-width:0.1500; stroke-opacity:1; 
stroke-linecap:round; stroke-linejoin:round;">
<path d="M10.0000 110.0000
L12.0000 110.0000
" />
</g>
<g style="fill:none; 
stroke:#000000; stroke-width:0.1500; stroke-opacity:1; 
stroke-linecap:round; stroke-linejoin:round;">
<path d="M10.0000 160.0000
L12.0000 160.0000
" />
</g>
<g style="fill:none; 
stroke:#000000; stroke-width:0.1500; stroke-opacity:1; 
stroke-linecap:round; stroke-linejoin:round;">
<text x="11.0000" y="35.6500"
textLength="1.3043" font-size="1.7333" lengthAdjust="spacingAndGlyphs"
text-anchor="middle" opacity="0">A</text>
<g class="stroked-text"><desc>A</desc>
<path d="M10.6905 35.2222
L11.3095 35.2222
" />
<path d="M10.5667 35.5936
L11.0000 34.2936
" />
<path d="M11.0000 34.2936
L11.4333 35.5936
" />
</g></g>
<g style="fill:none; 
stroke:#000000; stroke-width:0.1500; stroke-opacity:1; 
stroke-linecap:round; stroke-linejoin:round;">
<text x="11.0000" y="85.6500"
textLength="1.4900" font-size="1.7333" lengthAdjust="spacingAndGlyphs"
text-anchor="middle" opacity="0">B</text>
<g class="stroked-text"><desc>B</desc>
<path d="M11.0929 84.9127
L11.2786 84.9746
" />
<path d="M11.2786 84.9746
L11.3405 85.0365
" />
<path d="M11.3405 85.0365
L11.4024 85.1603
" />
<path d="M11.4024 85.1603
L11.4024 85.3460
" />
<path d="M11.4024 85.3460
L11.3405 85.4698
" />
<path d="M11.3405 85.4698
L11.2786 85.5317
" />
<path d="M11.2786 85.5317
L11.1548 85.5936
" />
<path d="M11.1548 85.5936
L10.6595 85.5936
" />
<path d="M10.6595 85.5936
L10.6595 84.2936
" />
<path d="M10.6595 84.2936
L11.0929 84.2936
" />
<path d="M11.0929 84.2936
L11.2167 84.3555
" />
<path d="M11.2167 84.3555
L11.2786 84.4174
" />
<path d="M11.2786 84.4174
L11.3405 84.5412
" />
<path d="M11.3405 84.5412
L11.3405 84.6650
" />
<path d="M11.3405 84.6650
L11.2786 84.7888
" />
<path d="M11.2786 84.7888
L11.2167 84.8507
" />
<path d="M11.2167 84.8507
L11.0929 84.9127
" />
<path d="M11.0929 84.9127
L10.6595 84.9127
" />
</g></g>
<g style="fill:none; 
stroke:#000000; stroke-width:0.1500; stroke-opacity:1; 
stroke-linecap:round; stroke-linejoin:round;">
<text x="11.0000" y="135.6500"
textLength="1.4900" font-size="1.7333" lengthAdjust="spacingAndGlyphs"
text-anchor="middle" opacity="0">C</text>
<g class="stroked-text"><desc>C</desc>
<path d="M11.4024 135.4698
L11.3405 135.5317
" />
<path d="M11.3405 135.5317
L11.1548 135.5936
" />
<path d="M11.1548 135.5936
L11.0310 135.5936
" />
<path d="M11.0310 135.5936
L10.8452 135.5317
" />
<path d="M10.8452 135.5317
L10.7214 135.4079
" />
<path d="M10.7214 135.4079
L10.6595 135.2841
" />
<path d="M10.6595 135.2841
L10.5976 135.0365
" />
<path d="M10.5976 135.0365
L10.5976 134.8507
" />
<path d="M10.5976 134.8507
L10.6595 134.6031
" />
<path d="M10.6595 134.6031
L10.7214 134.4793
" />
<path d="M10.7214 134.4793
L10.8452 134.3555
" />
<path d="M10.8452 134.3555
L11.0310 134.2936
" />
<path d="M11.0310 134.2936
L11.1548 134.2936
" />
<path d="M11.1548 134.2936
L11.3405 134.3555
" />
<path d="M11.3405 134.3555
L11.4024 134.4174
" />
</g></g>
<g style="fill:none; 
stroke:#000000; stroke-width:0.1500; stroke-opacity:1; 
stroke-linecap:round; stroke-linejoin:round;">
<text x="11.0000" y="185.6500"
textLength="1.4900" font-size="1.7333" lengthAdjust="spacingAndGlyphs"
text-anchor="middle" opacity="0">D</text>
<g class="stroked-text"><desc>D</desc>
<path d="M10.6595 185.5936
L10.6595 184.2936
" />
<path d="M10.6595 184.2936
L10.9690 184.2936
" />
<path d="M10.9690 184.2936
L11.1548 184.3555
" />
<path d="M11.1548 184.3555
L11.2786 184.4793
" />
<path d="M11.2786 184.4793
L11.3405 184.6031
" />
<path d="M11.3405 184.6031
L11.4024 184.8507
" />
<path d="M11.4024 184.8507
L11.4024 185.0365
" />
<path d="M11.4024 185.0365
L11.3405 185.2841
" />
<path d="M11.3405 185.2841
L11.2786 185.4079
" />
<path d="M11.2786 185.4079
L11.1548 185.5317
" />
<path d="M11.1548 185.5317
L10.9690 185.5936
" />
<path d="M10.9690 185.5936
L10.6595 185.5936
" />
</g></g>
<g style="fill:none; 
stroke:#000000; stroke-width:0.1500; stroke-opacity:1; 
stroke-linecap:round; stroke-linejoin:round;">
<path d="M138.0058 60.0000
L136.0058 60.0000
" />
</g>
<g style="fill:none; 
stroke:#000000; stroke-width:0.1500; stroke-opacity:1; 
stroke-linecap:round; stroke-linejoin:round;">
<path d="M138.0058 110.0000
L136.0058 110.0000
" />
</g>
<g style="fill:none; 
stroke:#000000; stroke-width:0.1500; stroke-opacity:1; 
stroke-linecap:round; stroke-linejoin:round;">
<path d="M138.0058 160.0000
L136.0058 160.0000
" />
</g>
<g style="fill:none; 
stroke:#000000; stroke-width:0.1500; stroke-opacity:1; 
stroke-linecap:round; stroke-linejoin:round;">
<text x="137.0058" y="35.6500"
textLength="1.3043" font-size="1.7333" lengthAdjust="spacingAndGlyphs"
text-anchor="middle" opacity="0">A</text>
<g class="stroked-text"><desc>A</desc>
<path d="M136.6963 35.2222
L137.3153 35.2222
" />
<path d="M136.5725 35.5936
L137.0058 34.2936
" />
<path d="M137.0058 34.2936
L137.4391 35.5936
" />
</g></g>
<g style="fill:none; 
stroke:#000000; stroke-width:0.1500; stroke-opacity:1; 
stroke-linecap:round; stroke-linejoin:round;">
<text x="137.0058" y="85.6500"
textLength="1.4900" font-size="1.7333" lengthAdjust="spacingAndGlyphs"
text-anchor="middle" opacity="0">B</text>
<g class="stroked-text"><desc>B</desc>
<path d="M137.0987 84.9127
L137.2844 84.9746
" />
<path d="M137.2844 84.9746
L137.3463 85.0365
" />
<path d="M137.3463 85.0365
L137.4082 85.1603
" />
<path d="M137.4082 85.1603
L137.4082 85.3460
" />
<path d="M137.4082 85.3460
L137.3463 85.4698
" />
<path d="M137.3463 85.4698
L137.2844 85.5317
" />
<path d="M137.2844 85.5317
L137.1606 85.5936
" />
<path d="M137.1606 85.5936
L136.6653 85.5936
" />
<path d="M136.6653 85.5936
L136.6653 84.2936
" />
<path d="M136.6653 84.2936
L137.0987 84.2936
" />
<path d="M137.0987 84.2936
L137.2225 84.3555
" />
<path d="M137.2225 84.3555
L137.2844 84.4174
" />
<path d="M137.2844 84.4174
L137.3463 84.5412
" />
<path d="M137.3463 84.5412
L137.3463 84.6650
" />
<path d="M137.3463 84.6650
L137.2844 84.7888
" />
<path d="M137.2844 84.7888
L137.2225 84.8507
" />
<path d="M137.2225 84.8507
L137.0987 84.9127
" />
<path d="M137.0987 84.9127
L136.6653 84.9127
" />
</g></g>
<g style="fill:none; 
stroke:#000000; stroke-width:0.1500; stroke-opacity:1; 
stroke-linecap:round; stroke-linejoin:round;">
<text x="137.0058" y="135.6500"
textLength="1.4900" font-size="1.7333" lengthAdjust="spacingAndGlyphs"
text-anchor="middle" opacity="0">C</text>
<g class="stroked-text"><desc>C</desc>
<path d="M137.4082 135.4698
L137.3463 135.5317
" />
<path d="M137.3463 135.5317
L137.1606 135.5936
" />
<path d="M137.1606 135.5936
L137.0368 135.5936
" />
<path d="M137.0368 135.5936
L136.8510 135.5317
" />
<path d="M136.8510 135.5317
L136.7272 135.4079
" />
<path d="M136.7272 135.4079
L136.6653 135.2841
" />
<path d="M136.6653 135.2841
L136.6034 135.0365
" />
<path d="M136.6034 135.0365
L136.6034 134.8507
" />
<path d="M136.6034 134.8507
L136.6653 134.6031
" />
<path d="M136.6653 134.6031
L136.7272 134.4793
" />
<path d="M136.7272 134.4793
L136.8510 134.3555
" />
<path d="M136.8510 134.3555
L137.0368 134.2936
" />
<path d="M137.0368 134.2936
L137.1606 134.2936
" />
<path d="M137.1606 134.2936
L137.3463 134.3555
" />
<path d="M137.3463 134.3555
L137.4082 134.4174
" />
</g></g>
<g style="fill:none; 
stroke:#000000; stroke-width:0.1500; stroke-opacity:1; 
stroke-linecap:round; stroke-linejoin:round;">
<text x="137.0058" y="185.6500"
textLength="1.4900" font-size="1.7333" lengthAdjust="spacingAndGlyphs"
text-anchor="middle" opacity="0">D</text>
<g class="stroked-text"><desc>D</desc>
<path d="M136.6653 185.5936
L136.6653 184.2936
" />
<path d="M136.6653 184.2936
L136.9748 184.2936
" />
<path d="M136.9748 184.2936
L137.1606 184.3555
" />
<path d="M137.1606 184.3555
L137.2844 184.4793
" />
<path d="M137.2844 184.4793
L137.3463 184.6031
" />
<path d="M137.3463 184.6031
L137.4082 184.8507
" />
<path d="M137.4082 184.8507
L137.4082 185.0365
" />
<path d="M137.4082 185.0365
L137.3463 185.2841
" />
<path d="M137.3463 185.2841
L137.2844 185.4079
" />
<path d="M137.2844 185.4079
L137.1606 185.5317
" />
<path d="M137.1606 185.5317
L136.9748 185.5936
" />
<path d="M136.9748 185.5936
L136.6653 185.5936
" />
</g></g>
<g style="fill:none; 
stroke:#000000; stroke-width:0.1500; stroke-opacity:1; 
stroke-linecap:round; stroke-linejoin:round;">
<text x="51.0058" y="193.8572"
textLength="7.0071" font-size="2.0000" lengthAdjust="spacingAndGlyphs"
text-anchor="start" opacity="0">Date: </text>
<g class="stroked-text"><desc>Date: </desc>
<path d="M51.4616 193.7933
L51.4616 192.2933
" />
<path d="M51.4616 192.2933
L51.8188 192.2933
" />
<path d="M51.8188 192.2933
L52.0331 192.3648
" />
<path d="M52.0331 192.3648
L52.1759 192.5076
" />
<path d="M52.1759 192.5076
L52.2473 192.6505
" />
<path d="M52.2473 192.6505
L52.3188 192.9362
" />
<path d="M52.3188 192.9362
L52.3188 193.1505
" />
<path d="M52.3188 193.1505
L52.2473 193.4362
" />
<path d="M52.2473 193.4362
L52.1759 193.5790
" />
<path d="M52.1759 193.5790
L52.0331 193.7219
" />
<path d="M52.0331 193.7219
L51.8188 193.7933
" />
<path d="M51.8188 193.7933
L51.4616 193.7933
" />
<path d="M53.6045 193.7933
L53.6045 193.0076
" />
<path d="M53.6045 193.0076
L53.5331 192.8648
" />
<path d="M53.5331 192.8648
L53.3902 192.7933
" />
<path d="M53.3902 192.7933
L53.1045 192.7933
" />
<path d="M53.1045 192.7933
L52.9616 192.8648
" />
<path d="M53.6045 193.7219
L53.4616 193.7933
" />
<path d="M53.4616 193.7933
L53.1045 193.7933
" />
<path d="M53.1045 193.7933
L52.9616 193.7219
" />
<path d="M52.9616 193.7219
L52.8902 193.5790
" />
<path d="M52.8902 193.5790
L52.8902 193.4362
" />
<path d="M52.8902 193.4362
L52.9616 193.2933
" />
<path d="M52.9616 193.2933
L53.1045 193.2219
" />
<path d="M53.1045 193.2219
L53.4616 193.2219
" />
<path d="M53.4616 193.2219
L53.6045 193.1505
" />
<path d="M54.1045 192.7933
L54.6759 192.7933
" />
<path d="M54.3188 192.2933
L54.3188 193.5790
" />
<path d="M54.3188 193.5790
L54.3902 193.7219
" />
<path d="M54.3902 193.7219
L54.5331 193.7933
" />
<path d="M54.5331 193.7933
L54.6759 193.7933
" />
<path d="M55.7473 193.7219
L55.6045 193.7933
" />
<path d="M55.6045 193.7933
L55.3188 193.7933
" />
<path d="M55.3188 193.7933
L55.1759 193.7219
" />
<path d="M55.1759 193.7219
L55.1045 193.5790
" />
<path d="M55.1045 193.5790
L55.1045 193.0076
" />
<path d="M55.1045 193.0076
L55.1759 192.8648
" />
<path d="M55.1759 192.8648
L55.3188 192.7933
" />
<path d="M55.3188 192.7933
L55.6045 192.7933
" />
<path d="M55.6045 192.7933
L55.7473 192.8648
" />
<path d="M55.7473 192.8648
L55.8188 193.0076
" />
<path d="M55.8188 193.0076
L55.8188 193.1505
" />
<path d="M55.8188 193.1505
L55.1045 193.2933
" />
<path d="M56.4616 193.6505
L56.5331 193.7219
" />
<path d="M56.5331 193.7219
L56.4616 193.7933
" />
<path d="M56.4616 193.7933
L56.3902 193.7219
" />
<path d="M56.3902 193.7219
L56.4616 193.6505
" />
<path d="M56.4616 193.6505
L56.4616 193.7933
" />
<path d="M56.4616 192.8648
L56.5331 192.9362
" />
<path d="M56.5331 192.9362
L56.4616 193.0076
" />
<path d="M56.4616 193.0076
L56.3902 192.9362
" />
<path d="M56.3902 192.9362
L56.4616 192.8648
" />
<path d="M56.4616 192.8648
L56.4616 193.0076
" />
</g></g>
<g style="fill:none; 
stroke:#000000; stroke-width:0.1500; stroke-opacity:1; 
stroke-linecap:round; stroke-linejoin:round;">
<path d="M28.0058 194.5072
L136.0058 194.5072
" />
</g>
<g style="fill:none; 
stroke:#000000; stroke-width:0.1500; stroke-opacity:1; 
stroke-linecap:round; stroke-linejoin:round;">
<text x="29.0058" y="196.6572"
textLength="20.8643" font-size="2.0000" lengthAdjust="spacingAndGlyphs"
text-anchor="start" opacity="0">KiCad E.D.A. 8.0.3</text>
<g class="stroked-text"><desc>KiCad E.D.A. 8.0.3</desc>
<path d="M29.4616 196.5933
L29.4616 195.0933
" />
<path d="M30.3188 196.5933
L29.6759 195.7362
" />
<path d="M30.3188 195.0933
L29.4616 195.9505
" />
<path d="M30.9616 196.5933
L30.9616 195.5933
" />
<path d="M30.9616 195.0933
L30.8902 195.1648
" />
<path d="M30.8902 195.1648
L30.9616 195.2362
" />
<path d="M30.9616 195.2362
L31.0331 195.1648
" />
<path d="M31.0331 195.1648
L30.9616 195.0933
" />
<path d="M30.9616 195.0933
L30.9616 195.2362
" />
<path d="M32.5331 196.4505
L32.4616 196.5219
" />
<path d="M32.4616 196.5219
L32.2473 196.5933
" />
<path d="M32.2473 196.5933
L32.1045 196.5933
" />
<path d="M32.1045 196.5933
L31.8902 196.5219
" />
<path d="M31.8902 196.5219
L31.7473 196.3790
" />
<path d="M31.7473 196.3790
L31.6759 196.2362
" />
<path d="M31.6759 196.2362
L31.6045 195.9505
" />
<path d="M31.6045 195.9505
L31.6045 195.7362
" />
<path d="M31.6045 195.7362
L31.6759 195.4505
" />
<path d="M31.6759 195.4505
L31.7473 195.3076
" />
<path d="M31.7473 195.3076
L31.8902 195.1648
" />
<path d="M31.8902 195.1648
L32.1045 195.0933
" />
<path d="M32.1045 195.0933
L32.2473 195.0933
" />
<path d="M32.2473 195.0933
L32.4616 195.1648
" />
<path d="M32.4616 195.1648
L32.5331 195.2362
" />
<path d="M33.8188 196.5933
L33.8188 195.8076
" />
<path d="M33.8188 195.8076
L33.7473 195.6648
" />
<path d="M33.7473 195.6648
L33.6045 195.5933
" />
<path d="M33.6045 195.5933
L33.3188 195.5933
" />
<path d="M33.3188 195.5933
L33.1759 195.6648
" />
<path d="M33.8188 196.5219
L33.6759 196.5933
" />
<path d="M33.6759 196.5933
L33.3188 196.5933
" />
<path d="M33.3188 196.5933
L33.1759 196.5219
" />
<path d="M33.1759 196.5219
L33.1045 196.3790
" />
<path d="M33.1045 196.3790
L33.1045 196.2362
" />
<path d="M33.1045 196.2362
L33.1759 196.0933
" />
<path d="M33.1759 196.0933
L33.3188 196.0219
" />
<path d="M33.3188 196.0219
L33.6759 196.0219
" />
<path d="M33.6759 196.0219
L33.8188 195.9505
" />
<path d="M35.1759 196.5933
L35.1759 195.0933
" />
<path d="M35.1759 196.5219
L35.0331 196.5933
" />
<path d="M35.0331 196.5933
L34.7473 196.5933
" />
<path d="M34.7473 196.5933
L34.6045 196.5219
" />
<path d="M34.6045 196.5219
L34.5331 196.4505
" />
<path d="M34.5331 196.4505
L34.4616 196.3076
" />
<path d="M34.4616 196.3076
L34.4616 195.8790
" />
<path d="M34.4616 195.8790
L34.5331 195.7362
" />
<path d="M34.5331 195.7362
L34.6045 195.6648
" />
<path d="M34.6045 195.6648
L34.7473 195.5933
" />
<path d="M34.7473 195.5933
L35.0331 195.5933
" />
<path d="M35.0331 195.5933
L35.1759 195.6648
" />
<path d="M37.0331 195.8076
L37.5331 195.8076
" />
<path d="M37.7473 196.5933
L37.0331 196.5933
" />
<path d="M37.0331 196.5933
L37.0331 195.0933
" />
<path d="M37.0331 195.0933
L37.7473 195.0933
" />
<path d="M38.3902 196.4505
L38.4616 196.5219
" />
<path d="M38.4616 196.5219
L38.3902 196.5933
" />
<path d="M38.3902 196.5933
L38.3188 196.5219
" />
<path d="M38.3188 196.5219
L38.3902 196.4505
" />
<path d="M38.3902 196.4505
L38.3902 196.5933
" />
<path d="M39.1045 196.5933
L39.1045 195.0933
" />
<path d="M39.1045 195.0933
L39.4616 195.0933
" />
<path d="M39.4616 195.0933
L39.6759 195.1648
" />
<path d="M39.6759 195.1648
L39.8188 195.3076
" />
<path d="M39.8188 195.3076
L39.8902 195.4505
" />
<path d="M39.8902 195.4505
L39.9616 195.7362
" />
<path d="M39.9616 195.7362
L39.9616 195.9505
" />
<path d="M39.9616 195.9505
L39.8902 196.2362
" />
<path d="M39.8902 196.2362
L39.8188 196.3790
" />
<path d="M39.8188 196.3790
L39.6759 196.5219
" />
<path d="M39.6759 196.5219
L39.4616 196.5933
" />
<path d="M39.4616 196.5933
L39.1045 196.5933
" />
<path d="M40.6045 196.4505
L40.6759 196.5219
" />
<path d="M40.6759 196.5219
L40.6045 196.5933
" />
<path d="M40.6045 196.5933
L40.5331 196.5219
" />
<path d="M40.5331 196.5219
L40.6045 196.4505
" />
<path d="M40.6045 196.4505
L40.6045 196.5933
" />
<path d="M41.2473 196.1648
L41.9616 196.1648
" />
<path d="M41.1045 196.5933
L41.6045 195.0933
" />
<path d="M41.6045 195.0933
L42.1045 196.5933
" />
<path d="M42.6045 196.4505
L42.6759 196.5219
" />
<path d="M42.6759 196.5219
L42.6045 196.5933
" />
<path d="M42.6045 196.5933
L42.5331 196.5219
" />
<path d="M42.5331 196.5219
L42.6045 196.4505
" />
<path d="M42.6045 196.4505
L42.6045 196.5933
" />
<path d="M44.6759 195.7362
L44.5331 195.6648
" />
<path d="M44.5331 195.6648
L44.4616 195.5933
" />
<path d="M44.4616 195.5933
L44.3902 195.4505
" />
<path d="M44.3902 195.4505
L44.3902 195.3790
" />
<path d="M44.3902 195.3790
L44.4616 195.2362
" />
<path d="M44.4616 195.2362
L44.5331 195.1648
" />
<path d="M44.5331 195.1648
L44.6759 195.0933
" />
<path d="M44.6759 195.0933
L44.9616 195.0933
" />
<path d="M44.9616 195.0933
L45.1045 195.1648
" />
<path d="M45.1045 195.1648
L45.1759 195.2362
" />
<path d="M45.1759 195.2362
L45.2473 195.3790
" />
<path d="M45.2473 195.3790
L45.2473 195.4505
" />
<path d="M45.2473 195.4505
L45.1759 195.5933
" />
<path d="M45.1759 195.5933
L45.1045 195.6648
" />
<path d="M45.1045 195.6648
L44.9616 195.7362
" />
<path d="M44.9616 195.7362
L44.6759 195.7362
" />
<path d="M44.6759 195.7362
L44.5331 195.8076
" />
<path d="M44.5331 195.8076
L44.4616 195.8790
" />
<path d="M44.4616 195.8790
L44.3902 196.0219
" />
<path d="M44.3902 196.0219
L44.3902 196.3076
" />
<path d="M44.3902 196.3076
L44.4616 196.4505
" />
<path d="M44.4616 196.4505
L44.5331 196.5219
" />
<path d="M44.5331 196.5219
L44.6759 196.5933
" />
<path d="M44.6759 196.5933
L44.9616 196.5933
" />
<path d="M44.9616 196.5933
L45.1045 196.5219
" />
<path d="M45.1045 196.5219
L45.1759 196.4505
" />
<path d="M45.1759 196.4505
L45.2473 196.3076
" />
<path d="M45.2473 196.3076
L45.2473 196.0219
" />
<path d="M45.2473 196.0219
L45.1759 195.8790
" />
<path d="M45.1759 195.8790
L45.1045 195.8076
" />
<path d="M45.1045 195.8076
L44.9616 195.7362
" />
<path d="M45.8902 196.4505
L45.9616 196.5219
" />
<path d="M45.9616 196.5219
L45.8902 196.5933
" />
<path d="M45.8902 196.5933
L45.8188 196.5219
" />
<path d="M45.8188 196.5219
L45.8902 196.4505
" />
<path d="M45.8902 196.4505
L45.8902 196.5933
" />
<path d="M46.8902 195.0933
L47.0331 195.0933
" />
<path d="M47.0331 195.0933
L47.1759 195.1648
" />
<path d="M47.1759 195.1648
L47.2473 195.2362
" />
<path d="M47.2473 195.2362
L47.3188 195.3790
" />
<path d="M47.3188 195.3790
L47.3902 195.6648
" />
<path d="M47.3902 195.6648
L47.3902 196.0219
" />
<path d="M47.3902 196.0219
L47.3188 196.3076
" />
<path d="M47.3188 196.3076
L47.2473 196.4505
" />
<path d="M47.2473 196.4505
L47.1759 196.5219
" />
<path d="M47.1759 196.5219
L47.0331 196.5933
" />
<path d="M47.0331 196.5933
L46.8902 196.5933
" />
<path d="M46.8902 196.5933
L46.7473 196.5219
" />
<path d="M46.7473 196.5219
L46.6759 196.4505
" />
<path d="M46.6759 196.4505
L46.6045 196.3076
" />
<path d="M46.6045 196.3076
L46.5331 196.0219
" />
<path d="M46.5331 196.0219
L46.5331 195.6648
" />
<path d="M46.5331 195.6648
L46.6045 195.3790
" />
<path d="M46.6045 195.3790
L46.6759 195.2362
" />
<path d="M46.6759 195.2362
L46.7473 195.1648
" />
<path d="M46.7473 195.1648
L46.8902 195.0933
" />
<path d="M48.0331 196.4505
L48.1045 196.5219
" />
<path d="M48.1045 196.5219
L48.0331 196.5933
" />
<path d="M48.0331 196.5933
L47.9616 196.5219
" />
<path d="M47.9616 196.5219
L48.0331 196.4505
" />
<path d="M48.0331 196.4505
L48.0331 196.5933
" />
<path d="M48.6045 195.0933
L49.5331 195.0933
" />
<path d="M49.5331 195.0933
L49.0331 195.6648
" />
<path d="M49.0331 195.6648
L49.2473 195.6648
" />
<path d="M49.2473 195.6648
L49.3902 195.7362
" />
<path d="M49.3902 195.7362
L49.4616 195.8076
" />
<path d="M49.4616 195.8076
L49.5331 195.9505
" />
<path d="M49.5331 195.9505
L49.5331 196.3076
" />
<path d="M49.5331 196.3076
L49.4616 196.4505
" />
<path d="M49.4616 196.4505
L49.3902 196.5219
" />
<path d="M49.3902 196.5219
L49.2473 196.5933
" />
<path d="M49.2473 196.5933
L48.8188 196.5933
" />
<path d="M48.8188 196.5933
L48.6759 196.5219
" />
<path d="M48.6759 196.5219
L48.6045 196.4505
" />
</g></g>
<g style="fill:none; 
stroke:#000000; stroke-width:0.1500; stroke-opacity:1; 
stroke-linecap:round; stroke-linejoin:round;">
<path d="M28.0058 191.5072
L136.0058 191.5072
" />
</g>
<g style="fill:none; 
stroke:#000000; stroke-width:0.3000; stroke-opacity:1; 
stroke-linecap:round; stroke-linejoin:round;">
<text x="114.0058" y="193.8572"
textLength="6.3857" font-size="2.0000" lengthAdjust="spacingAndGlyphs"
text-anchor="start" opacity="0">Rev: </text>
<g class="stroked-text"><desc>Rev: </desc>
<path d="M115.4175 193.7855
L114.9175 193.0712
" />
<path d="M114.5603 193.7855
L114.5603 192.2855
" />
<path d="M114.5603 192.2855
L115.1317 192.2855
" />
<path d="M115.1317 192.2855
L115.2746 192.3570
" />
<path d="M115.2746 192.3570
L115.3460 192.4284
" />
<path d="M115.3460 192.4284
L115.4175 192.5712
" />
<path d="M115.4175 192.5712
L115.4175 192.7855
" />
<path d="M115.4175 192.7855
L115.3460 192.9284
" />
<path d="M115.3460 192.9284
L115.2746 192.9998
" />
<path d="M115.2746 192.9998
L115.1317 193.0712
" />
<path d="M115.1317 193.0712
L114.5603 193.0712
" />
<path d="M116.6317 193.7141
L116.4889 193.7855
" />
<path d="M116.4889 193.7855
L116.2032 193.7855
" />
<path d="M116.2032 193.7855
L116.0603 193.7141
" />
<path d="M116.0603 193.7141
L115.9889 193.5712
" />
<path d="M115.9889 193.5712
L115.9889 192.9998
" />
<path d="M115.9889 192.9998
L116.0603 192.8570
" />
<path d="M116.0603 192.8570
L116.2032 192.7855
" />
<path d="M116.2032 192.7855
L116.4889 192.7855
" />
<path d="M116.4889 192.7855
L116.6317 192.8570
" />
<path d="M116.6317 192.8570
L116.7032 192.9998
" />
<path d="M116.7032 192.9998
L116.7032 193.1427
" />
<path d="M116.7032 193.1427
L115.9889 193.2855
" />
<path d="M117.2032 192.7855
L117.5603 193.7855
" />
<path d="M117.5603 193.7855
L117.9175 192.7855
" />
<path d="M118.4889 193.6427
L118.5603 193.7141
" />
<path d="M118.5603 193.7141
L118.4889 193.7855
" />
<path d="M118.4889 193.7855
L118.4175 193.7141
" />
<path d="M118.4175 193.7141
L118.4889 193.6427
" />
<path d="M118.4889 193.6427
L118.4889 193.7855
" />
<path d="M118.4889 192.8570
L118.5603 192.9284
" />
<path d="M118.5603 192.9284
L118.4889 192.9998
" />
<path d="M118.4889 192.9998
L118.4175 192.9284
" />
<path d="M118.4175 192.9284
L118.4889 192.8570
" />
<path d="M118.4889 192.8570
L118.4889 192.9998
" />
</g></g>
<g style="fill:none; 
stroke:#000000; stroke-width:0.1500; stroke-opacity:1; 
stroke-linecap:round; stroke-linejoin:round;">
<text x="29.0058" y="193.8572"
textLength="9.3643" font-size="2.0000" lengthAdjust="spacingAndGlyphs"
text-anchor="start" opacity="0">Size: A5</text>
<g class="stroked-text"><desc>Size: A5</desc>
<path d="M29.3902 193.7219
L29.6045 193.7933
" />
<path d="M29.6045 193.7933
L29.9616 193.7933
" />
<path d="M29.9616 193.7933
L30.1045 193.7219
" />
<path d="M30.1045 193.7219
L30.1759 193.6505
" />
<path d="M30.1759 193.6505
L30.2473 193.5076
" />
<path d="M30.2473 193.5076
L30.2473 193.3648
" />
<path d="M30.2473 193.3648
L30.1759 193.2219
" />
<path d="M30.1759 193.2219
L30.1045 193.1505
" />
<path d="M30.1045 193.1505
L29.9616 193.0790
" />
<path d="M29.9616 193.0790
L29.6759 193.0076
" />
<path d="M29.6759 193.0076
L29.5331 192.9362
" />
<path d="M29.5331 192.9362
L29.4616 192.8648
" />
<path d="M29.4616 192.8648
L29.3902 192.7219
" />
<path d="M29.3902 192.7219
L29.3902 192.5790
" />
<path d="M29.3902 192.5790
L29.4616 192.4362
" />
<path d="M29.4616 192.4362
L29.5331 192.3648
" />
<path d="M29.5331 192.3648
L29.6759 192.2933
" />
<path d="M29.6759 192.2933
L30.0331 192.2933
" />
<path d="M30.0331 192.2933
L30.2473 192.3648
" />
<path d="M30.8902 193.7933
L30.8902 192.7933
" />
<path d="M30.8902 192.2933
L30.8188 192.3648
" />
<path d="M30.8188 192.3648
L30.8902 192.4362
" />
<path d="M30.8902 192.4362
L30.9616 192.3648
" />
<path d="M30.9616 192.3648
L30.8902 192.2933
" />
<path d="M30.8902 192.2933
L30.8902 192.4362
" />
<path d="M31.4616 192.7933
L32.2473 192.7933
" />
<path d="M32.2473 192.7933
L31.4616 193.7933
" />
<path d="M31.4616 193.7933
L32.2473 193.7933
" />
<path d="M33.3902 193.7219
L33.2473 193.7933
" />
<path d="M33.2473 193.7933
L32.9616 193.7933
" />
<path d="M32.9616 193.7933
L32.8188 193.7219
" />
<path d="M32.8188 193.7219
L32.7473 193.5790
" />
<path d="M32.7473 193.5790
L32.7473 193.0076
" />
<path d="M32.7473 193.0076
L32.8188 192.8648
" />
<path d="M32.8188 192.8648
L32.9616 192.7933
" />
<path d="M32.9616 192.7933
L33.2473 192.7933
" />
<path d="M33.2473 192.7933
L33.3902 192.8648
" />
<path d="M33.3902 192.8648
L33.4616 193.0076
" />
<path d="M33.4616 193.0076
L33.4616 193.1505
" />
<path d="M33.4616 193.1505
L32.7473 193.2933
" />
<path d="M34.1045 193.6505
L34.1759 193.7219
" />
<path d="M34.1759 193.7219
L34.1045 193.7933
" />
<path d="M34.1045 193.7933
L34.0331 193.7219
" />
<path d="M34.0331 193.7219
L34.1045 193.6505
" />
<path d="M34.1045 193.6505
L34.1045 193.7933
" />
<path d="M34.1045 192.8648
L34.1759 192.9362
" />
<path d="M34.1759 192.9362
L34.1045 193.0076
" />
<path d="M34.1045 193.0076
L34.0331 192.9362
" />
<path d="M34.0331 192.9362
L34.1045 192.8648
" />
<path d="M34.1045 192.8648
L34.1045 193.0076
" />
<path d="M35.8902 193.3648
L36.6045 193.3648
" />
<path d="M35.7473 193.7933
L36.2473 192.2933
" />
<path d="M36.2473 192.2933
L36.7473 193.7933
" />
<path d="M37.9616 192.2933
L37.2473 192.2933
" />
<path d="M37.2473 192.2933
L37.1759 193.0076
" />
<path d="M37.1759 193.0076
L37.2473 192.9362
" />
<path d="M37.2473 192.9362
L37.3902 192.8648
" />
<path d="M37.3902 192.8648
L37.7473 192.8648
" />
<path d="M37.7473 192.8648
L37.8902 192.9362
" />
<path d="M37.8902 192.9362
L37.9616 193.0076
" />
<path d="M37.9616 193.0076
L38.0331 193.1505
" />
<path d="M38.0331 193.1505
L38.0331 193.5076
" />
<path d="M38.0331 193.5076
L37.9616 193.6505
" />
<path d="M37.9616 193.6505
L37.8902 193.7219
" />
<path d="M37.8902 193.7219
L37.7473 193.7933
" />
<path d="M37.7473 193.7933
L37.3902 193.7933
" />
<path d="M37.3902 193.7933
L37.2473 193.7219
" />
<path d="M37.2473 193.7219
L37.1759 193.6505
" />
</g></g>
<g style="fill:none; 
stroke:#000000; stroke-width:0.1500; stroke-opacity:1; 
stroke-linecap:round; stroke-linejoin:round;">
<text x="114.0058" y="196.6572"
textLength="8.5071" font-size="2.0000" lengthAdjust="spacingAndGlyphs"
text-anchor="start" opacity="0">Id: 1/1</text>
<g class="stroked-text"><desc>Id: 1/1</desc>
<path d="M114.4616 196.5933
L114.4616 195.0933
" />
<path d="M115.8188 196.5933
L115.8188 195.0933
" />
<path d="M115.8188 196.5219
L115.6759 196.5933
" />
<path d="M115.6759 196.5933
L115.3902 196.5933
" />
<path d="M115.3902 196.5933
L115.2473 196.5219
" />
<path d="M115.2473 196.5219
L115.1759 196.4505
" />
<path d="M115.1759 196.4505
L115.1045 196.3076
" />
<path d="M115.1045 196.3076
L115.1045 195.8790
" />
<path d="M115.1045 195.8790
L115.1759 195.7362
" />
<path d="M115.1759 195.7362
L115.2473 195.6648
" />
<path d="M115.2473 195.6648
L115.3902 195.5933
" />
<path d="M115.3902 195.5933
L115.6759 195.5933
" />
<path d="M115.6759 195.5933
L115.8188 195.6648
" />
<path d="M116.5331 196.4505
L116.6045 196.5219
" />
<path d="M116.6045 196.5219
L116.5331 196.5933
" />
<path d="M116.5331 196.5933
L116.4616 196.5219
" />
<path d="M116.4616 196.5219
L116.5331 196.4505
" />
<path d="M116.5331 196.4505
L116.5331 196.5933
" />
<path d="M116.5331 195.6648
L116.6045 195.7362
" />
<path d="M116.6045 195.7362
L116.5331 195.8076
" />
<path d="M116.5331 195.8076
L116.4616 195.7362
" />
<path d="M116.4616 195.7362
L116.5331 195.6648
" />
<path d="M116.5331 195.6648
L116.5331 195.8076
" />
<path d="M119.1759 196.5933
L118.3188 196.5933
" />
<path d="M118.7473 196.5933
L118.7473 195.0933
" />
<path d="M118.7473 195.0933
L118.6045 195.3076
" />
<path d="M118.6045 195.3076
L118.4616 195.4505
" />
<path d="M118.4616 195.4505
L118.3188 195.5219
" />
<path d="M120.8902 195.0219
L119.6045 196.9505
" />
<path d="M122.1759 196.5933
L121.3188 196.5933
" />
<path d="M121.7473 196.5933
L121.7473 195.0933
" />
<path d="M121.7473 195.0933
L121.6045 195.3076
" />
<path d="M121.6045 195.3076
L121.4616 195.4505
" />
<path d="M121.4616 195.4505
L121.3188 195.5219
" />
</g></g>
<g style="fill:none; 
stroke:#000000; stroke-width:0.1500; stroke-opacity:1; 
stroke-linecap:round; stroke-linejoin:round;">
<path d="M28.0058 187.5072
L136.0058 187.5072
" />
</g>
<g style="fill:none; 
stroke:#000000; stroke-width:0.4000; stroke-opacity:1; 
stroke-linecap:round; stroke-linejoin:round;">
<text x="29.0058" y="190.3072"
textLength="9.6571" font-size="2.6667" lengthAdjust="spacingAndGlyphs"
text-anchor="start" opacity="0">Title: </text>
<g class="stroked-text"><desc>Title: </desc>
<path d="M29.6975 188.2116
L30.8404 188.2116
" />
<path d="M30.0190 190.2116
L30.2690 188.2116
" />
<path d="M31.2571 190.2116
L31.4237 188.8783
" />
<path d="M31.5071 188.2116
L31.3999 188.3069
" />
<path d="M31.3999 188.3069
L31.4832 188.4021
" />
<path d="M31.4832 188.4021
L31.5904 188.3069
" />
<path d="M31.5904 188.3069
L31.5071 188.2116
" />
<path d="M31.5071 188.2116
L31.4832 188.4021
" />
<path d="M32.0904 188.8783
L32.8523 188.8783
" />
<path d="M32.4594 188.2116
L32.2451 189.9259
" />
<path d="M32.2451 189.9259
L32.3166 190.1164
" />
<path d="M32.3166 190.1164
L32.4951 190.2116
" />
<path d="M32.4951 190.2116
L32.6856 190.2116
" />
<path d="M33.6380 190.2116
L33.4594 190.1164
" />
<path d="M33.4594 190.1164
L33.3880 189.9259
" />
<path d="M33.3880 189.9259
L33.6023 188.2116
" />
<path d="M35.1737 190.1164
L34.9713 190.2116
" />
<path d="M34.9713 190.2116
L34.5904 190.2116
" />
<path d="M34.5904 190.2116
L34.4118 190.1164
" />
<path d="M34.4118 190.1164
L34.3404 189.9259
" />
<path d="M34.3404 189.9259
L34.4356 189.1640
" />
<path d="M34.4356 189.1640
L34.5547 188.9735
" />
<path d="M34.5547 188.9735
L34.7571 188.8783
" />
<path d="M34.7571 188.8783
L35.1380 188.8783
" />
<path d="M35.1380 188.8783
L35.3166 188.9735
" />
<path d="M35.3166 188.9735
L35.3880 189.1640
" />
<path d="M35.3880 189.1640
L35.3642 189.3545
" />
<path d="M35.3642 189.3545
L34.3880 189.5450
" />
<path d="M36.1380 190.0212
L36.2213 190.1164
" />
<path d="M36.2213 190.1164
L36.1142 190.2116
" />
<path d="M36.1142 190.2116
L36.0309 190.1164
" />
<path d="M36.0309 190.1164
L36.1380 190.0212
" />
<path d="M36.1380 190.0212
L36.1142 190.2116
" />
<path d="M36.2690 188.9735
L36.3523 189.0688
" />
<path d="M36.3523 189.0688
L36.2451 189.1640
" />
<path d="M36.2451 189.1640
L36.1618 189.0688
" />
<path d="M36.1618 189.0688
L36.2690 188.9735
" />
<path d="M36.2690 188.9735
L36.2451 189.1640
" />
</g></g>
<g style="fill:none; 
stroke:#000000; stroke-width:0.1500; stroke-opacity:1; 
stroke-linecap:round; stroke-linejoin:round;">
<text x="29.0058" y="186.4572"
textLength="32.3643" font-size="2.0000" lengthAdjust="spacingAndGlyphs"
text-anchor="start" opacity="0">File: PM-CPU-RP.kicad_pcb</text>
<g class="stroked-text"><desc>File: PM-CPU-RP.kicad_pcb</desc>
<path d="M29.9616 185.6076
L29.4616 185.6076
" />
<path d="M29.4616 186.3933
L29.4616 184.8933
" />
<path d="M29.4616 184.8933
L30.1759 184.8933
" />
<path d="M30.7473 186.3933
L30.7473 185.3933
" />
<path d="M30.7473 184.8933
L30.6759 184.9648
" />
<path d="M30.6759 184.9648
L30.7473 185.0362
" />
<path d="M30.7473 185.0362
L30.8188 184.9648
" />
<path d="M30.8188 184.9648
L30.7473 184.8933
" />
<path d="M30.7473 184.8933
L30.7473 185.0362
" />
<path d="M31.6759 186.3933
L31.5331 186.3219
" />
<path d="M31.5331 186.3219
L31.4616 186.1790
" />
<path d="M31.4616 186.1790
L31.4616 184.8933
" />
<path d="M32.8188 186.3219
L32.6759 186.3933
" />
<path d="M32.6759 186.3933
L32.3902 186.3933
" />
<path d="M32.3902 186.3933
L32.2473 186.3219
" />
<path d="M32.2473 186.3219
L32.1759 186.1790
" />
<path d="M32.1759 186.1790
L32.1759 185.6076
" />
<path d="M32.1759 185.6076
L32.2473 185.4648
" />
<path d="M32.2473 185.4648
L32.3902 185.3933
" />
<path d="M32.3902 185.3933
L32.6759 185.3933
" />
<path d="M32.6759 185.3933
L32.8188 185.4648
" />
<path d="M32.8188 185.4648
L32.8902 185.6076
" />
<path d="M32.8902 185.6076
L32.8902 185.7505
" />
<path d="M32.8902 185.7505
L32.1759 185.8933
" />
<path d="M33.5331 186.2505
L33.6045 186.3219
" />
<path d="M33.6045 186.3219
L33.5331 186.3933
" />
<path d="M33.5331 186.3933
L33.4616 186.3219
" />
<path d="M33.4616 186.3219
L33.5331 186.2505
" />
<path d="M33.5331 186.2505
L33.5331 186.3933
" />
<path d="M33.5331 185.4648
L33.6045 185.5362
" />
<path d="M33.6045 185.5362
L33.5331 185.6076
" />
<path d="M33.5331 185.6076
L33.4616 185.5362
" />
<path d="M33.4616 185.5362
L33.5331 185.4648
" />
<path d="M33.5331 185.4648
L33.5331 185.6076
" />
<path d="M35.3902 186.3933
L35.3902 184.8933
" />
<path d="M35.3902 184.8933
L35.9616 184.8933
" />
<path d="M35.9616 184.8933
L36.1045 184.9648
" />
<path d="M36.1045 184.9648
L36.1759 185.0362
" />
<path d="M36.1759 185.0362
L36.2473 185.1790
" />
<path d="M36.2473 185.1790
L36.2473 185.3933
" />
<path d="M36.2473 185.3933
L36.1759 185.5362
" />
<path d="M36.1759 185.5362
L36.1045 185.6076
" />
<path d="M36.1045 185.6076
L35.9616 185.6790
" />
<path d="M35.9616 185.6790
L35.3902 185.6790
" />
<path d="M36.8902 186.3933
L36.8902 184.8933
" />
<path d="M36.8902 184.8933
L37.3902 185.9648
" />
<path d="M37.3902 185.9648
L37.8902 184.8933
" />
<path d="M37.8902 184.8933
L37.8902 186.3933
" />
<path d="M38.6045 185.8219
L39.7473 185.8219
" />
<path d="M41.3188 186.2505
L41.2473 186.3219
" />
<path d="M41.2473 186.3219
L41.0331 186.3933
" />
<path d="M41.0331 186.3933
L40.8902 186.3933
" />
<path d="M40.8902 186.3933
L40.6759 186.3219
" />
<path d="M40.6759 186.3219
L40.5331 186.1790
" />
<path d="M40.5331 186.1790
L40.4616 186.0362
" />
<path d="M40.4616 186.0362
L40.3902 185.7505
" />
<path d="M40.3902 185.7505
L40.3902 185.5362
" />
<path d="M40.3902 185.5362
L40.4616 185.2505
" />
<path d="M40.4616 185.2505
L40.5331 185.1076
" />
<path d="M40.5331 185.1076
L40.6759 184.9648
" />
<path d="M40.6759 184.9648
L40.8902 184.8933
" />
<path d="M40.8902 184.8933
L41.0331 184.8933
" />
<path d="M41.0331 184.8933
L41.2473 184.9648
" />
<path d="M41.2473 184.9648
L41.3188 185.0362
" />
<path d="M41.9616 186.3933
L41.9616 184.8933
" />
<path d="M41.9616 184.8933
L42.5331 184.8933
" />
<path d="M42.5331 184.8933
L42.6759 184.9648
" />
<path d="M42.6759 184.9648
L42.7473 185.0362
" />
<path d="M42.7473 185.0362
L42.8188 185.1790
" />
<path d="M42.8188 185.1790
L42.8188 185.3933
" />
<path d="M42.8188 185.3933
L42.7473 185.5362
" />
<path d="M42.7473 185.5362
L42.6759 185.6076
" />
<path d="M42.6759 185.6076
L42.5331 185.6790
" />
<path d="M42.5331 185.6790
L41.9616 185.6790
" />
<path d="M43.4616 184.8933
L43.4616 186.1076
" />
<path d="M43.4616 186.1076
L43.5331 186.2505
" />
<path d="M43.5331 186.2505
L43.6045 186.3219
" />
<path d="M43.6045 186.3219
L43.7473 186.3933
" />
<path d="M43.7473 186.3933
L44.0331 186.3933
" />
<path d="M44.0331 186.3933
L44.1759 186.3219
" />
<path d="M44.1759 186.3219
L44.2473 186.2505
" />
<path d="M44.2473 186.2505
L44.3188 186.1076
" />
<path d="M44.3188 186.1076
L44.3188 184.8933
" />
<path d="M45.0331 185.8219
L46.1759 185.8219
" />
<path d="M47.7473 186.3933
L47.2473 185.6790
" />
<path d="M46.8902 186.3933
L46.8902 184.8933
" />
<path d="M46.8902 184.8933
L47.4616 184.8933
" />
<path d="M47.4616 184.8933
L47.6045 184.9648
" />
<path d="M47.6045 184.9648
L47.6759 185.0362
" />
<path d="M47.6759 185.0362
L47.7473 185.1790
" />
<path d="M47.7473 185.1790
L47.7473 185.3933
" />
<path d="M47.7473 185.3933
L47.6759 185.5362
" />
<path d="M47.6759 185.5362
L47.6045 185.6076
" />
<path d="M47.6045 185.6076
L47.4616 185.6790
" />
<path d="M47.4616 185.6790
L46.8902 185.6790
" />
<path d="M48.3902 186.3933
L48.3902 184.8933
" />
<path d="M48.3902 184.8933
L48.9616 184.8933
" />
<path d="M48.9616 184.8933
L49.1045 184.9648
" />
<path d="M49.1045 184.9648
L49.1759 185.0362
" />
<path d="M49.1759 185.0362
L49.2473 185.1790
" />
<path d="M49.2473 185.1790
L49.2473 185.3933
" />
<path d="M49.2473 185.3933
L49.1759 185.5362
" />
<path d="M49.1759 185.5362
L49.1045 185.6076
" />
<path d="M49.1045 185.6076
L48.9616 185.6790
" />
<path d="M48.9616 185.6790
L48.3902 185.6790
" />
<path d="M49.8902 186.2505
L49.9616 186.3219
" />
<path d="M49.9616 186.3219
L49.8902 186.3933
" />
<path d="M49.8902 186.3933
L49.8188 186.3219
" />
<path d="M49.8188 186.3219
L49.8902 186.2505
" />
<path d="M49.8902 186.2505
L49.8902 186.3933
" />
<path d="M50.6045 186.3933
L50.6045 184.8933
" />
<path d="M50.7473 185.8219
L51.1759 186.3933
" />
<path d="M51.1759 185.3933
L50.6045 185.9648
" />
<path d="M51.8188 186.3933
L51.8188 185.3933
" />
<path d="M51.8188 184.8933
L51.7473 184.9648
" />
<path d="M51.7473 184.9648
L51.8188 185.0362
" />
<path d="M51.8188 185.0362
L51.8902 184.9648
" />
<path d="M51.8902 184.9648
L51.8188 184.8933
" />
<path d="M51.8188 184.8933
L51.8188 185.0362
" />
<path d="M53.1759 186.3219
L53.0331 186.3933
" />
<path d="M53.0331 186.3933
L52.7473 186.3933
" />
<path d="M52.7473 186.3933
L52.6045 186.3219
" />
<path d="M52.6045 186.3219
L52.5331 186.2505
" />
<path d="M52.5331 186.2505
L52.4616 186.1076
" />
<path d="M52.4616 186.1076
L52.4616 185.6790
" />
<path d="M52.4616 185.6790
L52.5331 185.5362
" />
<path d="M52.5331 185.5362
L52.6045 185.4648
" />
<path d="M52.6045 185.4648
L52.7473 185.3933
" />
<path d="M52.7473 185.3933
L53.0331 185.3933
" />
<path d="M53.0331 185.3933
L53.1759 185.4648
" />
<path d="M54.4616 186.3933
L54.4616 185.6076
" />
<path d="M54.4616 185.6076
L54.3902 185.4648
" />
<path d="M54.3902 185.4648
L54.2473 185.3933
" />
<path d="M54.2473 185.3933
L53.9616 185.3933
" />
<path d="M53.9616 185.3933
L53.8188 185.4648
" />
<path d="M54.4616 186.3219
L54.3188 186.3933
" />
<path d="M54.3188 186.3933
L53.9616 186.3933
" />
<path d="M53.9616 186.3933
L53.8188 186.3219
" />
<path d="M53.8188 186.3219
L53.7473 186.1790
" />
<path d="M53.7473 186.1790
L53.7473 186.0362
" />
<path d="M53.7473 186.0362
L53.8188 185.8933
" />
<path d="M53.8188 185.8933
L53.9616 185.8219
" />
<path d="M53.9616 185.8219
L54.3188 185.8219
" />
<path d="M54.3188 185.8219
L54.4616 185.7505
" />
<path d="M55.8188 186.3933
L55.8188 184.8933
" />
<path d="M55.8188 186.3219
L55.6759 186.3933
" />
<path d="M55.6759 186.3933
L55.3902 186.3933
" />
<path d="M55.3902 186.3933
L55.2473 186.3219
" />
<path d="M55.2473 186.3219
L55.1759 186.2505
" />
<path d="M55.1759 186.2505
L55.1045 186.1076
" />
<path d="M55.1045 186.1076
L55.1045 185.6790
" />
<path d="M55.1045 185.6790
L55.1759 185.5362
" />
<path d="M55.1759 185.5362
L55.2473 185.4648
" />
<path d="M55.2473 185.4648
L55.3902 185.3933
" />
<path d="M55.3902 185.3933
L55.6759 185.3933
" />
<path d="M55.6759 185.3933
L55.8188 185.4648
" />
<path d="M56.1759 186.5362
L57.3188 186.5362
" />
<path d="M57.6759 185.3933
L57.6759 186.8933
" />
<path d="M57.6759 185.4648
L57.8188 185.3933
" />
<path d="M57.8188 185.3933
L58.1045 185.3933
" />
<path d="M58.1045 185.3933
L58.2473 185.4648
" />
<path d="M58.2473 185.4648
L58.3188 185.5362
" />
<path d="M58.3188 185.5362
L58.3902 185.6790
" />
<path d="M58.3902 185.6790
L58.3902 186.1076
" />
<path d="M58.3902 186.1076
L58.3188 186.2505
" />
<path d="M58.3188 186.2505
L58.2473 186.3219
" />
<path d="M58.2473 186.3219
L58.1045 186.3933
" />
<path d="M58.1045 186.3933
L57.8188 186.3933
" />
<path d="M57.8188 186.3933
L57.6759 186.3219
" />
<path d="M59.6759 186.3219
L59.5331 186.3933
" />
<path d="M59.5331 186.3933
L59.2473 186.3933
" />
<path d="M59.2473 186.3933
L59.1045 186.3219
" />
<path d="M59.1045 186.3219
L59.0331 186.2505
" />
<path d="M59.0331 186.2505
L58.9616 186.1076
" />
<path d="M58.9616 186.1076
L58.9616 185.6790
" />
<path d="M58.9616 185.6790
L59.0331 185.5362
" />
<path d="M59.0331 185.5362
L59.1045 185.4648
" />
<path d="M59.1045 185.4648
L59.2473 185.3933
" />
<path d="M59.2473 185.3933
L59.5331 185.3933
" />
<path d="M59.5331 185.3933
L59.6759 185.4648
" />
<path d="M60.3188 186.3933
L60.3188 184.8933
" />
<path d="M60.3188 185.4648
L60.4616 185.3933
" />
<path d="M60.4616 185.3933
L60.7473 185.3933
" />
<path d="M60.7473 185.3933
L60.8902 185.4648
" />
<path d="M60.8902 185.4648
L60.9616 185.5362
" />
<path d="M60.9616 185.5362
L61.0331 185.6790
" />
<path d="M61.0331 185.6790
L61.0331 186.1076
" />
<path d="M61.0331 186.1076
L60.9616 186.2505
" />
<path d="M60.9616 186.2505
L60.8902 186.3219
" />
<path d="M60.8902 186.3219
L60.7473 186.3933
" />
<path d="M60.7473 186.3933
L60.4616 186.3933
" />
<path d="M60.4616 186.3933
L60.3188 186.3219
" />
</g></g>
<g style="fill:none; 
stroke:#000000; stroke-width:0.1500; stroke-opacity:1; 
stroke-linecap:round; stroke-linejoin:round;">
<path d="M28.0058 181.5072
L136.0058 181.5072
" />
</g>
<g style="fill:none; 
stroke:#000000; stroke-width:0.1500; stroke-opacity:1; 
stroke-linecap:round; stroke-linejoin:round;">
<text x="29.0058" y="183.7572"
textLength="8.2214" font-size="2.0000" lengthAdjust="spacingAndGlyphs"
text-anchor="start" opacity="0">Sheet: </text>
<g class="stroked-text"><desc>Sheet: </desc>
<path d="M29.3902 183.6219
L29.6045 183.6933
" />
<path d="M29.6045 183.6933
L29.9616 183.6933
" />
<path d="M29.9616 183.6933
L30.1045 183.6219
" />
<path d="M30.1045 183.6219
L30.1759 183.5505
" />
<path d="M30.1759 183.5505
L30.2473 183.4076
" />
<path d="M30.2473 183.4076
L30.2473 183.2648
" />
<path d="M30.2473 183.2648
L30.1759 183.1219
" />
<path d="M30.1759 183.1219
L30.1045 183.0505
" />
<path d="M30.1045 183.0505
L29.9616 182.9790
" />
<path d="M29.9616 182.9790
L29.6759 182.9076
" />
<path d="M29.6759 182.9076
L29.5331 182.8362
" />
<path d="M29.5331 182.8362
L29.4616 182.7648
" />
<path d="M29.4616 182.7648
L29.3902 182.6219
" />
<path d="M29.3902 182.6219
L29.3902 182.4790
" />
<path d="M29.3902 182.4790
L29.4616 182.3362
" />
<path d="M29.4616 182.3362
L29.5331 182.2648
" />
<path d="M29.5331 182.2648
L29.6759 182.1933
" />
<path d="M29.6759 182.1933
L30.0331 182.1933
" />
<path d="M30.0331 182.1933
L30.2473 182.2648
" />
<path d="M30.8902 183.6933
L30.8902 182.1933
" />
<path d="M31.5331 183.6933
L31.5331 182.9076
" />
<path d="M31.5331 182.9076
L31.4616 182.7648
" />
<path d="M31.4616 182.7648
L31.3188 182.6933
" />
<path d="M31.3188 182.6933
L31.1045 182.6933
" />
<path d="M31.1045 182.6933
L30.9616 182.7648
" />
<path d="M30.9616 182.7648
L30.8902 182.8362
" />
<path d="M32.8188 183.6219
L32.6759 183.6933
" />
<path d="M32.6759 183.6933
L32.3902 183.6933
" />
<path d="M32.3902 183.6933
L32.2473 183.6219
" />
<path d="M32.2473 183.6219
L32.1759 183.4790
" />
<path d="M32.1759 183.4790
L32.1759 182.9076
" />
<path d="M32.1759 182.9076
L32.2473 182.7648
" />
<path d="M32.2473 182.7648
L32.3902 182.6933
" />
<path d="M32.3902 182.6933
L32.6759 182.6933
" />
<path d="M32.6759 182.6933
L32.8188 182.7648
" />
<path d="M32.8188 182.7648
L32.8902 182.9076
" />
<path d="M32.8902 182.9076
L32.8902 183.0505
" />
<path d="M32.8902 183.0505
L32.1759 183.1933
" />
<path d="M34.1045 183.6219
L33.9616 183.6933
" />
<path d="M33.9616 183.6933
L33.6759 183.6933
" />
<path d="M33.6759 183.6933
L33.5331 183.6219
" />
<path d="M33.5331 183.6219
L33.4616 183.4790
" />
<path d="M33.4616 183.4790
L33.4616 182.9076
" />
<path d="M33.4616 182.9076
L33.5331 182.7648
" />
<path d="M33.5331 182.7648
L33.6759 182.6933
" />
<path d="M33.6759 182.6933
L33.9616 182.6933
" />
<path d="M33.9616 182.6933
L34.1045 182.7648
" />
<path d="M34.1045 182.7648
L34.1759 182.9076
" />
<path d="M34.1759 182.9076
L34.1759 183.0505
" />
<path d="M34.1759 183.0505
L33.4616 183.1933
" />
<path d="M34.6045 182.6933
L35.1759 182.6933
" />
<path d="M34.8188 182.1933
L34.8188 183.4790
" />
<path d="M34.8188 183.4790
L34.8902 183.6219
" />
<path d="M34.8902 183.6219
L35.0331 183.6933
" />
<path d="M35.0331 183.6933
L35.1759 183.6933
" />
<path d="M35.6759 183.5505
L35.7473 183.6219
" />
<path d="M35.7473 183.6219
L35.6759 183.6933
" />
<path d="M35.6759 183.6933
L35.6045 183.6219
" />
<path d="M35.6045 183.6219
L35.6759 183.5505
" />
<path d="M35.6759 183.5505
L35.6759 183.6933
" />
<path d="M35.6759 182.7648
L35.7473 182.8362
" />
<path d="M35.7473 182.8362
L35.6759 182.9076
" />
<path d="M35.6759 182.9076
L35.6045 182.8362
" />
<path d="M35.6045 182.8362
L35.6759 182.7648
" />
<path d="M35.6759 182.7648
L35.6759 182.9076
" />
</g></g>
<g style="fill:none; 
stroke:#000000; stroke-width:0.3000; stroke-opacity:1; 
stroke-linecap:round; stroke-linejoin:round;">
<text x="29.0058" y="180.7572"
textLength="0.9000" font-size="2.0000" lengthAdjust="spacingAndGlyphs"
text-anchor="start" opacity="0"></text>
<g class="stroked-text"><desc></desc>
</g></g>
<g style="fill:none; 
stroke:#000000; stroke-width:0.1500; stroke-opacity:1; 
stroke-linecap:round; stroke-linejoin:round;">
<text x="29.0058" y="177.7572"
textLength="0.4500" font-size="2.0000" lengthAdjust="spacingAndGlyphs"
text-anchor="start" opacity="0"></text>
<g class="stroked-text"><desc></desc>
</g></g>
<g style="fill:none; 
stroke:#000000; stroke-width:0.1500; stroke-opacity:1; 
stroke-linecap:round; stroke-linejoin:round;">
<text x="29.0058" y="174.7572"
textLength="0.4500" font-size="2.0000" lengthAdjust="spacingAndGlyphs"
text-anchor="start" opacity="0"></text>
<g class="stroked-text"><desc></desc>
</g></g>
<g style="fill:none; 
stroke:#000000; stroke-width:0.1500; stroke-opacity:1; 
stroke-linecap:round; stroke-linejoin:round;">
<text x="29.0058" y="171.7572"
textLength="0.4500" font-size="2.0000" lengthAdjust="spacingAndGlyphs"
text-anchor="start" opacity="0"></text>
<g class="stroked-text"><desc></desc>
</g></g>
<g style="fill:none; 
stroke:#000000; stroke-width:0.1500; stroke-opacity:1; 
stroke-linecap:round; stroke-linejoin:round;">
<text x="29.0058" y="168.7572"
textLength="0.4500" font-size="2.0000" lengthAdjust="spacingAndGlyphs"
text-anchor="start" opacity="0"></text>
<g class="stroked-text"><desc></desc>
</g></g>
<g style="fill:none; 
stroke:#000000; stroke-width:0.1500; stroke-opacity:1; 
stroke-linecap:round; stroke-linejoin:round;">
<path d="M48.0058 191.5072
L48.0058 194.5072
" />
</g>
<g style="fill:none; 
stroke:#000000; stroke-width:0.1500; stroke-opacity:1; 
stroke-linecap:round; stroke-linejoin:round;">
<path d="M112.0058 191.5072
L112.0058 198.0072
" />
<g transform="rotate(-90.000000 128.3900 52.7050)">
<text x="128.3900" y="53.2050"
textLength="8.9167" font-size="1.3333" lengthAdjust="spacingAndGlyphs"
text-anchor="middle" opacity="0">3,8100 mm</text>
</g>
<g class="stroked-text"><desc>3,8100 mm</desc>
<path d="M127.8448 56.8955
L127.8448 56.2764
" />
<path d="M127.8448 56.2764
L128.2258 56.6098
" />
<path d="M128.2258 56.6098
L128.2258 56.4669
" />
<path d="M128.2258 56.4669
L128.2734 56.3717
" />
<path d="M128.2734 56.3717
L128.3210 56.3240
" />
<path d="M128.3210 56.3240
L128.4162 56.2764
" />
<path d="M128.4162 56.2764
L128.6543 56.2764
" />
<path d="M128.6543 56.2764
L128.7496 56.3240
" />
<path d="M128.7496 56.3240
L128.7972 56.3717
" />
<path d="M128.7972 56.3717
L128.8448 56.4669
" />
<path d="M128.8448 56.4669
L128.8448 56.7526
" />
<path d="M128.8448 56.7526
L128.7972 56.8479
" />
<path d="M128.7972 56.8479
L128.7496 56.8955
" />
<path d="M128.7972 55.8002
L128.8448 55.8002
" />
<path d="M128.8448 55.8002
L128.9401 55.8479
" />
<path d="M128.9401 55.8479
L128.9877 55.8955
" />
<path d="M128.2734 55.2288
L128.2258 55.3240
" />
<path d="M128.2258 55.3240
L128.1782 55.3717
" />
<path d="M128.1782 55.3717
L128.0829 55.4193
" />
<path d="M128.0829 55.4193
L128.0353 55.4193
" />
<path d="M128.0353 55.4193
L127.9401 55.3717
" />
<path d="M127.9401 55.3717
L127.8924 55.3240
" />
<path d="M127.8924 55.3240
L127.8448 55.2288
" />
<path d="M127.8448 55.2288
L127.8448 55.0383
" />
<path d="M127.8448 55.0383
L127.8924 54.9431
" />
<path d="M127.8924 54.9431
L127.9401 54.8955
" />
<path d="M127.9401 54.8955
L128.0353 54.8479
" />
<path d="M128.0353 54.8479
L128.0829 54.8479
" />
<path d="M128.0829 54.8479
L128.1782 54.8955
" />
<path d="M128.1782 54.8955
L128.2258 54.9431
" />
<path d="M128.2258 54.9431
L128.2734 55.0383
" />
<path d="M128.2734 55.0383
L128.2734 55.2288
" />
<path d="M128.2734 55.2288
L128.3210 55.3240
" />
<path d="M128.3210 55.3240
L128.3686 55.3717
" />
<path d="M128.3686 55.3717
L128.4639 55.4193
" />
<path d="M128.4639 55.4193
L128.6543 55.4193
" />
<path d="M128.6543 55.4193
L128.7496 55.3717
" />
<path d="M128.7496 55.3717
L128.7972 55.3240
" />
<path d="M128.7972 55.3240
L128.8448 55.2288
" />
<path d="M128.8448 55.2288
L128.8448 55.0383
" />
<path d="M128.8448 55.0383
L128.7972 54.9431
" />
<path d="M128.7972 54.9431
L128.7496 54.8955
" />
<path d="M128.7496 54.8955
L128.6543 54.8479
" />
<path d="M128.6543 54.8479
L128.4639 54.8479
" />
<path d="M128.4639 54.8479
L128.3686 54.8955
" />
<path d="M128.3686 54.8955
L128.3210 54.9431
" />
<path d="M128.3210 54.9431
L128.2734 55.0383
" />
<path d="M128.8448 53.8955
L128.8448 54.4669
" />
<path d="M128.8448 54.1812
L127.8448 54.1812
" />
<path d="M127.8448 54.1812
L127.9877 54.2764
" />
<path d="M127.9877 54.2764
L128.0829 54.3717
" />
<path d="M128.0829 54.3717
L128.1305 54.4669
" />
<path d="M127.8448 53.2764
L127.8448 53.1812
" />
<path d="M127.8448 53.1812
L127.8924 53.0860
" />
<path d="M127.8924 53.0860
L127.9401 53.0383
" />
<path d="M127.9401 53.0383
L128.0353 52.9907
" />
<path d="M128.0353 52.9907
L128.2258 52.9431
" />
<path d="M128.2258 52.9431
L128.4639 52.9431
" />
<path d="M128.4639 52.9431
L128.6543 52.9907
" />
<path d="M128.6543 52.9907
L128.7496 53.0383
" />
<path d="M128.7496 53.0383
L128.7972 53.0860
" />
<path d="M128.7972 53.0860
L128.8448 53.1812
" />
<path d="M128.8448 53.1812
L128.8448 53.2764
" />
<path d="M128.8448 53.2764
L128.7972 53.3717
" />
<path d="M128.7972 53.3717
L128.7496 53.4193
" />
<path d="M128.7496 53.4193
L128.6543 53.4669
" />
<path d="M128.6543 53.4669
L128.4639 53.5145
" />
<path d="M128.4639 53.5145
L128.2258 53.5145
" />
<path d="M128.2258 53.5145
L128.0353 53.4669
" />
<path d="M128.0353 53.4669
L127.9401 53.4193
" />
<path d="M127.9401 53.4193
L127.8924 53.3717
" />
<path d="M127.8924 53.3717
L127.8448 53.2764
" />
<path d="M127.8448 52.3240
L127.8448 52.2288
" />
<path d="M127.8448 52.2288
L127.8924 52.1336
" />
<path d="M127.8924 52.1336
L127.9401 52.0860
" />
<path d="M127.9401 52.0860
L128.0353 52.0383
" />
<path d="M128.0353 52.0383
L128.2258 51.9907
" />
<path d="M128.2258 51.9907
L128.4639 51.9907
" />
<path d="M128.4639 51.9907
L128.6543 52.0383
" />
<path d="M128.6543 52.0383
L128.7496 52.0860
" />
<path d="M128.7496 52.0860
L128.7972 52.1336
" />
<path d="M128.7972 52.1336
L128.8448 52.2288
" />
<path d="M128.8448 52.2288
L128.8448 52.3240
" />
<path d="M128.8448 52.3240
L128.7972 52.4193
" />
<path d="M128.7972 52.4193
L128.7496 52.4669
" />
<path d="M128.7496 52.4669
L128.6543 52.5145
" />
<path d="M128.6543 52.5145
L128.4639 52.5621
" />
<path d="M128.4639 52.5621
L128.2258 52.5621
" />
<path d="M128.2258 52.5621
L128.0353 52.5145
" />
<path d="M128.0353 52.5145
L127.9401 52.4669
" />
<path d="M127.9401 52.4669
L127.8924 52.4193
" />
<path d="M127.8924 52.4193
L127.8448 52.3240
" />
<path d="M128.8448 50.8002
L128.1782 50.8002
" />
<path d="M128.2734 50.8002
L128.2258 50.7526
" />
<path d="M128.2258 50.7526
L128.1782 50.6574
" />
<path d="M128.1782 50.6574
L128.1782 50.5145
" />
<path d="M128.1782 50.5145
L128.2258 50.4193
" />
<path d="M128.2258 50.4193
L128.3210 50.3717
" />
<path d="M128.3210 50.3717
L128.8448 50.3717
" />
<path d="M128.3210 50.3717
L128.2258 50.3240
" />
<path d="M128.2258 50.3240
L128.1782 50.2288
" />
<path d="M128.1782 50.2288
L128.1782 50.0860
" />
<path d="M128.1782 50.0860
L128.2258 49.9907
" />
<path d="M128.2258 49.9907
L128.3210 49.9431
" />
<path d="M128.3210 49.9431
L128.8448 49.9431
" />
<path d="M128.8448 49.4669
L128.1782 49.4669
" />
<path d="M128.2734 49.4669
L128.2258 49.4193
" />
<path d="M128.2258 49.4193
L128.1782 49.3240
" />
<path d="M128.1782 49.3240
L128.1782 49.1812
" />
<path d="M128.1782 49.1812
L128.2258 49.0860
" />
<path d="M128.2258 49.0860
L128.3210 49.0383
" />
<path d="M128.3210 49.0383
L128.8448 49.0383
" />
<path d="M128.3210 49.0383
L128.2258 48.9907
" />
<path d="M128.2258 48.9907
L128.1782 48.8955
" />
<path d="M128.1782 48.8955
L128.1782 48.7526
" />
<path d="M128.1782 48.7526
L128.2258 48.6574
" />
<path d="M128.2258 48.6574
L128.3210 48.6098
" />
<path d="M128.3210 48.6098
L128.8448 48.6098
" />
</g></g>
<g style="fill:none; 
stroke:#000000; stroke-width:0.1000; stroke-opacity:1; 
stroke-linecap:round; stroke-linejoin:round;">
<path d="M121.1500 54.6100
L130.1264 54.6100
" />
<path d="M130.1264 50.8000
L124.9600 50.8000
" />
<path d="M129.5400 54.6100
L129.5400 50.8000
" />
<path d="M129.5400 54.6100
L129.5400 50.8000
" />
<path d="M129.5400 54.6100
L128.9536 53.4835
" />
<path d="M129.5400 54.6100
L130.1264 53.4835
" />
<path d="M129.5400 50.8000
L130.1264 51.9265
" />
<path d="M129.5400 50.8000
L128.9536 51.9265
" />
</g>
<g style="fill:none; 
stroke:#000000; stroke-width:0.1500; stroke-opacity:1; 
stroke-linecap:round; stroke-linejoin:round;">
<g transform="rotate(-90.000000 128.3900 147.9550)">
<text x="128.3900" y="148.4550"
textLength="8.9167" font-size="1.3333" lengthAdjust="spacingAndGlyphs"
text-anchor="middle" opacity="0">3,8100 mm</text>
</g>
<g class="stroked-text"><desc>3,8100 mm</desc>
<path d="M127.8448 152.1455
L127.8448 151.5264
" />
<path d="M127.8448 151.5264
L128.2258 151.8598
" />
<path d="M128.2258 151.8598
L128.2258 151.7169
" />
<path d="M128.2258 151.7169
L128.2734 151.6217
" />
<path d="M128.2734 151.6217
L128.3210 151.5740
" />
<path d="M128.3210 151.5740
L128.4162 151.5264
" />
<path d="M128.4162 151.5264
L128.6543 151.5264
" />
<path d="M128.6543 151.5264
L128.7496 151.5740
" />
<path d="M128.7496 151.5740
L128.7972 151.6217
" />
<path d="M128.7972 151.6217
L128.8448 151.7169
" />
<path d="M128.8448 151.7169
L128.8448 152.0026
" />
<path d="M128.8448 152.0026
L128.7972 152.0979
" />
<path d="M128.7972 152.0979
L128.7496 152.1455
" />
<path d="M128.7972 151.0502
L128.8448 151.0502
" />
<path d="M128.8448 151.0502
L128.9401 151.0979
" />
<path d="M128.9401 151.0979
L128.9877 151.1455
" />
<path d="M128.2734 150.4788
L128.2258 150.5740
" />
<path d="M128.2258 150.5740
L128.1782 150.6217
" />
<path d="M128.1782 150.6217
L128.0829 150.6693
" />
<path d="M128.0829 150.6693
L128.0353 150.6693
" />
<path d="M128.0353 150.6693
L127.9401 150.6217
" />
<path d="M127.9401 150.6217
L127.8924 150.5740
" />
<path d="M127.8924 150.5740
L127.8448 150.4788
" />
<path d="M127.8448 150.4788
L127.8448 150.2883
" />
<path d="M127.8448 150.2883
L127.8924 150.1931
" />
<path d="M127.8924 150.1931
L127.9401 150.1455
" />
<path d="M127.9401 150.1455
L128.0353 150.0979
" />
<path d="M128.0353 150.0979
L128.0829 150.0979
" />
<path d="M128.0829 150.0979
L128.1782 150.1455
" />
<path d="M128.1782 150.1455
L128.2258 150.1931
" />
<path d="M128.2258 150.1931
L128.2734 150.2883
" />
<path d="M128.2734 150.2883
L128.2734 150.4788
" />
<path d="M128.2734 150.4788
L128.3210 150.5740
" />
<path d="M128.3210 150.5740
L128.3686 150.6217
" />
<path d="M128.3686 150.6217
L128.4639 150.6693
" />
<path d="M128.4639 150.6693
L128.6543 150.6693
" />
<path d="M128.6543 150.6693
L128.7496 150.6217
" />
<path d="M128.7496 150.6217
L128.7972 150.5740
" />
<path d="M128.7972 150.5740
L128.8448 150.4788
" />
<path d="M128.8448 150.4788
L128.8448 150.2883
" />
<path d="M128.8448 150.2883
L128.7972 150.1931
" />
<path d="M128.7972 150.1931
L128.7496 150.1455
" />
<path d="M128.7496 150.1455
L128.6543 150.0979
" />
<path d="M128.6543 150.0979
L128.4639 150.0979
" />
<path d="M128.4639 150.0979
L128.3686 150.1455
" />
<path d="M128.3686 150.1455
L128.3210 150.1931
" />
<path d="M128.3210 150.1931
L128.2734 150.2883
" />
<path d="M128.8448 149.1455
L128.8448 149.7169
" />
<path d="M128.8448 149.4312
L127.8448 149.4312
" />
<path d="M127.8448 149.4312
L127.9877 149.5264
" />
<path d="M127.9877 149.5264
L128.0829 149.6217
" />
<path d="M128.0829 149.6217
L128.1305 149.7169
" />
<path d="M127.8448 148.5264
L127.8448 148.4312
" />
<path d="M127.8448 148.4312
L127.8924 148.3360
" />
<path d="M127.8924 148.3360
L127.9401 148.2883
" />
<path d="M127.9401 148.2883
L128.0353 148.2407
" />
<path d="M128.0353 148.2407
L128.2258 148.1931
" />
<path d="M128.2258 148.1931
L128.4639 148.1931
" />
<path d="M128.4639 148.1931
L128.6543 148.2407
" />
<path d="M128.6543 148.2407
L128.7496 148.2883
" />
<path d="M128.7496 148.2883
L128.7972 148.3360
" />
<path d="M128.7972 148.3360
L128.8448 148.4312
" />
<path d="M128.8448 148.4312
L128.8448 148.5264
" />
<path d="M128.8448 148.5264
L128.7972 148.6217
" />
<path d="M128.7972 148.6217
L128.7496 148.6693
" />
<path d="M128.7496 148.6693
L128.6543 148.7169
" />
<path d="M128.6543 148.7169
L128.4639 148.7645
" />
<path d="M128.4639 148.7645
L128.2258 148.7645
" />
<path d="M128.2258 148.7645
L128.0353 148.7169
" />
<path d="M128.0353 148.7169
L127.9401 148.6693
" />
<path d="M127.9401 148.6693
L127.8924 148.6217
" />
<path d="M127.8924 148.6217
L127.8448 148.5264
" />
<path d="M127.8448 147.5740
L127.8448 147.4788
" />
<path d="M127.8448 147.4788
L127.8924 147.3836
" />
<path d="M127.8924 147.3836
L127.9401 147.3360
" />
<path d="M127.9401 147.3360
L128.0353 147.2883
" />
<path d="M128.0353 147.2883
L128.2258 147.2407
" />
<path d="M128.2258 147.2407
L128.4639 147.2407
" />
<path d="M128.4639 147.2407
L128.6543 147.2883
" />
<path d="M128.6543 147.2883
L128.7496 147.3360
" />
<path d="M128.7496 147.3360
L128.7972 147.3836
" />
<path d="M128.7972 147.3836
L128.8448 147.4788
" />
<path d="M128.8448 147.4788
L128.8448 147.5740
" />
<path d="M128.8448 147.5740
L128.7972 147.6693
" />
<path d="M128.7972 147.6693
L128.7496 147.7169
" />
<path d="M128.7496 147.7169
L128.6543 147.7645
" />
<path d="M128.6543 147.7645
L128.4639 147.8121
" />
<path d="M128.4639 147.8121
L128.2258 147.8121
" />
<path d="M128.2258 147.8121
L128.0353 147.7645
" />
<path d="M128.0353 147.7645
L127.9401 147.7169
" />
<path d="M127.9401 147.7169
L127.8924 147.6693
" />
<path d="M127.8924 147.6693
L127.8448 147.5740
" />
<path d="M128.8448 146.0502
L128.1782 146.0502
" />
<path d="M128.2734 146.0502
L128.2258 146.0026
" />
<path d="M128.2258 146.0026
L128.1782 145.9074
" />
<path d="M128.1782 145.9074
L128.1782 145.7645
" />
<path d="M128.1782 145.7645
L128.2258 145.6693
" />
<path d="M128.2258 145.6693
L128.3210 145.6217
" />
<path d="M128.3210 145.6217
L128.8448 145.6217
" />
<path d="M128.3210 145.6217
L128.2258 145.5740
" />
<path d="M128.2258 145.5740
L128.1782 145.4788
" />
<path d="M128.1782 145.4788
L128.1782 145.3360
" />
<path d="M128.1782 145.3360
L128.2258 145.2407
" />
<path d="M128.2258 145.2407
L128.3210 145.1931
" />
<path d="M128.3210 145.1931
L128.8448 145.1931
" />
<path d="M128.8448 144.7169
L128.1782 144.7169
" />
<path d="M128.2734 144.7169
L128.2258 144.6693
" />
<path d="M128.2258 144.6693
L128.1782 144.5740
" />
<path d="M128.1782 144.5740
L128.1782 144.4312
" />
<path d="M128.1782 144.4312
L128.2258 144.3360
" />
<path d="M128.2258 144.3360
L128.3210 144.2883
" />
<path d="M128.3210 144.2883
L128.8448 144.2883
" />
<path d="M128.3210 144.2883
L128.2258 144.2407
" />
<path d="M128.2258 144.2407
L128.1782 144.1455
" />
<path d="M128.1782 144.1455
L128.1782 144.0026
" />
<path d="M128.1782 144.0026
L128.2258 143.9074
" />
<path d="M128.2258 143.9074
L128.3210 143.8598
" />
<path d="M128.3210 143.8598
L128.8448 143.8598
" />
</g></g>
<g style="fill:none; 
stroke:#000000; stroke-width:0.1000; stroke-opacity:1; 
stroke-linecap:round; stroke-linejoin:round;">
<path d="M121.1500 146.0500
L130.1264 146.0500
" />
<path d="M130.1264 149.8600
L124.9600 149.8600
" />
<path d="M129.5400 146.0500
L129.5400 149.8600
" />
<path d="M129.5400 146.0500
L129.5400 149.8600
" />
<path d="M129.5400 146.0500
L130.1264 147.1765
" />
<path d="M129.5400 146.0500
L128.9536 147.1765
" />
<path d="M129.5400 149.8600
L128.9536 148.7335
" />
<path d="M129.5400 149.8600
L130.1264 148.7335
" />
</g>
<g style="fill:none; 
stroke:#000000; stroke-width:0.1500; stroke-opacity:1; 
stroke-linecap:round; stroke-linejoin:round;">
<g transform="rotate(-90.000000 130.9300 100.3300)">
<text x="130.9300" y="100.8300"
textLength="9.8690" font-size="1.3333" lengthAdjust="spacingAndGlyphs"
text-anchor="middle" opacity="0">99,0600 mm</text>
</g>
<g class="stroked-text"><desc>99,0600 mm</desc>
<path d="M131.3848 104.8538
L131.3848 104.6633
" />
<path d="M131.3848 104.6633
L131.3372 104.5681
" />
<path d="M131.3372 104.5681
L131.2896 104.5205
" />
<path d="M131.2896 104.5205
L131.1467 104.4252
" />
<path d="M131.1467 104.4252
L130.9562 104.3776
" />
<path d="M130.9562 104.3776
L130.5753 104.3776
" />
<path d="M130.5753 104.3776
L130.4801 104.4252
" />
<path d="M130.4801 104.4252
L130.4324 104.4729
" />
<path d="M130.4324 104.4729
L130.3848 104.5681
" />
<path d="M130.3848 104.5681
L130.3848 104.7586
" />
<path d="M130.3848 104.7586
L130.4324 104.8538
" />
<path d="M130.4324 104.8538
L130.4801 104.9014
" />
<path d="M130.4801 104.9014
L130.5753 104.9490
" />
<path d="M130.5753 104.9490
L130.8134 104.9490
" />
<path d="M130.8134 104.9490
L130.9086 104.9014
" />
<path d="M130.9086 104.9014
L130.9562 104.8538
" />
<path d="M130.9562 104.8538
L131.0039 104.7586
" />
<path d="M131.0039 104.7586
L131.0039 104.5681
" />
<path d="M131.0039 104.5681
L130.9562 104.4729
" />
<path d="M130.9562 104.4729
L130.9086 104.4252
" />
<path d="M130.9086 104.4252
L130.8134 104.3776
" />
<path d="M131.3848 103.9014
L131.3848 103.7110
" />
<path d="M131.3848 103.7110
L131.3372 103.6157
" />
<path d="M131.3372 103.6157
L131.2896 103.5681
" />
<path d="M131.2896 103.5681
L131.1467 103.4729
" />
<path d="M131.1467 103.4729
L130.9562 103.4252
" />
<path d="M130.9562 103.4252
L130.5753 103.4252
" />
<path d="M130.5753 103.4252
L130.4801 103.4729
" />
<path d="M130.4801 103.4729
L130.4324 103.5205
" />
<path d="M130.4324 103.5205
L130.3848 103.6157
" />
<path d="M130.3848 103.6157
L130.3848 103.8062
" />
<path d="M130.3848 103.8062
L130.4324 103.9014
" />
<path d="M130.4324 103.9014
L130.4801 103.9490
" />
<path d="M130.4801 103.9490
L130.5753 103.9967
" />
<path d="M130.5753 103.9967
L130.8134 103.9967
" />
<path d="M130.8134 103.9967
L130.9086 103.9490
" />
<path d="M130.9086 103.9490
L130.9562 103.9014
" />
<path d="M130.9562 103.9014
L131.0039 103.8062
" />
<path d="M131.0039 103.8062
L131.0039 103.6157
" />
<path d="M131.0039 103.6157
L130.9562 103.5205
" />
<path d="M130.9562 103.5205
L130.9086 103.4729
" />
<path d="M130.9086 103.4729
L130.8134 103.4252
" />
<path d="M131.3372 102.9490
L131.3848 102.9490
" />
<path d="M131.3848 102.9490
L131.4801 102.9967
" />
<path d="M131.4801 102.9967
L131.5277 103.0443
" />
<path d="M130.3848 102.3300
L130.3848 102.2348
" />
<path d="M130.3848 102.2348
L130.4324 102.1395
" />
<path d="M130.4324 102.1395
L130.4801 102.0919
" />
<path d="M130.4801 102.0919
L130.5753 102.0443
" />
<path d="M130.5753 102.0443
L130.7658 101.9967
" />
<path d="M130.7658 101.9967
L131.0039 101.9967
" />
<path d="M131.0039 101.9967
L131.1943 102.0443
" />
<path d="M131.1943 102.0443
L131.2896 102.0919
" />
<path d="M131.2896 102.0919
L131.3372 102.1395
" />
<path d="M131.3372 102.1395
L131.3848 102.2348
" />
<path d="M131.3848 102.2348
L131.3848 102.3300
" />
<path d="M131.3848 102.3300
L131.3372 102.4252
" />
<path d="M131.3372 102.4252
L131.2896 102.4729
" />
<path d="M131.2896 102.4729
L131.1943 102.5205
" />
<path d="M131.1943 102.5205
L131.0039 102.5681
" />
<path d="M131.0039 102.5681
L130.7658 102.5681
" />
<path d="M130.7658 102.5681
L130.5753 102.5205
" />
<path d="M130.5753 102.5205
L130.4801 102.4729
" />
<path d="M130.4801 102.4729
L130.4324 102.4252
" />
<path d="M130.4324 102.4252
L130.3848 102.3300
" />
<path d="M130.3848 101.1395
L130.3848 101.3300
" />
<path d="M130.3848 101.3300
L130.4324 101.4252
" />
<path d="M130.4324 101.4252
L130.4801 101.4729
" />
<path d="M130.4801 101.4729
L130.6229 101.5681
" />
<path d="M130.6229 101.5681
L130.8134 101.6157
" />
<path d="M130.8134 101.6157
L131.1943 101.6157
" />
<path d="M131.1943 101.6157
L131.2896 101.5681
" />
<path d="M131.2896 101.5681
L131.3372 101.5205
" />
<path d="M131.3372 101.5205
L131.3848 101.4252
" />
<path d="M131.3848 101.4252
L131.3848 101.2348
" />
<path d="M131.3848 101.2348
L131.3372 101.1395
" />
<path d="M131.3372 101.1395
L131.2896 101.0919
" />
<path d="M131.2896 101.0919
L131.1943 101.0443
" />
<path d="M131.1943 101.0443
L130.9562 101.0443
" />
<path d="M130.9562 101.0443
L130.8610 101.0919
" />
<path d="M130.8610 101.0919
L130.8134 101.1395
" />
<path d="M130.8134 101.1395
L130.7658 101.2348
" />
<path d="M130.7658 101.2348
L130.7658 101.4252
" />
<path d="M130.7658 101.4252
L130.8134 101.5205
" />
<path d="M130.8134 101.5205
L130.8610 101.5681
" />
<path d="M130.8610 101.5681
L130.9562 101.6157
" />
<path d="M130.3848 100.4252
L130.3848 100.3300
" />
<path d="M130.3848 100.3300
L130.4324 100.2348
" />
<path d="M130.4324 100.2348
L130.4801 100.1871
" />
<path d="M130.4801 100.1871
L130.5753 100.1395
" />
<path d="M130.5753 100.1395
L130.7658 100.0919
" />
<path d="M130.7658 100.0919
L131.0039 100.0919
" />
<path d="M131.0039 100.0919
L131.1943 100.1395
" />
<path d="M131.1943 100.1395
L131.2896 100.1871
" />
<path d="M131.2896 100.1871
L131.3372 100.2348
" />
<path d="M131.3372 100.2348
L131.3848 100.3300
" />
<path d="M131.3848 100.3300
L131.3848 100.4252
" />
<path d="M131.3848 100.4252
L131.3372 100.5205
" />
<path d="M131.3372 100.5205
L131.2896 100.5681
" />
<path d="M131.2896 100.5681
L131.1943 100.6157
" />
<path d="M131.1943 100.6157
L131.0039 100.6633
" />
<path d="M131.0039 100.6633
L130.7658 100.6633
" />
<path d="M130.7658 100.6633
L130.5753 100.6157
" />
<path d="M130.5753 100.6157
L130.4801 100.5681
" />
<path d="M130.4801 100.5681
L130.4324 100.5205
" />
<path d="M130.4324 100.5205
L130.3848 100.4252
" />
<path d="M130.3848 99.4729
L130.3848 99.3776
" />
<path d="M130.3848 99.3776
L130.4324 99.2824
" />
<path d="M130.4324 99.2824
L130.4801 99.2348
" />
<path d="M130.4801 99.2348
L130.5753 99.1871
" />
<path d="M130.5753 99.1871
L130.7658 99.1395
" />
<path d="M130.7658 99.1395
L131.0039 99.1395
" />
<path d="M131.0039 99.1395
L131.1943 99.1871
" />
<path d="M131.1943 99.1871
L131.2896 99.2348
" />
<path d="M131.2896 99.2348
L131.3372 99.2824
" />
<path d="M131.3372 99.2824
L131.3848 99.3776
" />
<path d="M131.3848 99.3776
L131.3848 99.4729
" />
<path d="M131.3848 99.4729
L131.3372 99.5681
" />
<path d="M131.3372 99.5681
L131.2896 99.6157
" />
<path d="M131.2896 99.6157
L131.1943 99.6633
" />
<path d="M131.1943 99.6633
L131.0039 99.7110
" />
<path d="M131.0039 99.7110
L130.7658 99.7110
" />
<path d="M130.7658 99.7110
L130.5753 99.6633
" />
<path d="M130.5753 99.6633
L130.4801 99.6157
" />
<path d="M130.4801 99.6157
L130.4324 99.5681
" />
<path d="M130.4324 99.5681
L130.3848 99.4729
" />
<path d="M131.3848 97.9490
L130.7182 97.9490
" />
<path d="M130.8134 97.9490
L130.7658 97.9014
" />
<path d="M130.7658 97.9014
L130.7182 97.8062
" />
<path d="M130.7182 97.8062
L130.7182 97.6633
" />
<path d="M130.7182 97.6633
L130.7658 97.5681
" />
<path d="M130.7658 97.5681
L130.8610 97.5205
" />
<path d="M130.8610 97.5205
L131.3848 97.5205
" />
<path d="M130.8610 97.5205
L130.7658 97.4729
" />
<path d="M130.7658 97.4729
L130.7182 97.3776
" />
<path d="M130.7182 97.3776
L130.7182 97.2348
" />
<path d="M130.7182 97.2348
L130.7658 97.1395
" />
<path d="M130.7658 97.1395
L130.8610 97.0919
" />
<path d="M130.8610 97.0919
L131.3848 97.0919
" />
<path d="M131.3848 96.6157
L130.7182 96.6157
" />
<path d="M130.8134 96.6157
L130.7658 96.5681
" />
<path d="M130.7658 96.5681
L130.7182 96.4729
" />
<path d="M130.7182 96.4729
L130.7182 96.3300
" />
<path d="M130.7182 96.3300
L130.7658 96.2348
" />
<path d="M130.7658 96.2348
L130.8610 96.1871
" />
<path d="M130.8610 96.1871
L131.3848 96.1871
" />
<path d="M130.8610 96.1871
L130.7658 96.1395
" />
<path d="M130.7658 96.1395
L130.7182 96.0443
" />
<path d="M130.7182 96.0443
L130.7182 95.9014
" />
<path d="M130.7182 95.9014
L130.7658 95.8062
" />
<path d="M130.7658 95.8062
L130.8610 95.7586
" />
<path d="M130.8610 95.7586
L131.3848 95.7586
" />
</g></g>
<g style="fill:none; 
stroke:#000000; stroke-width:0.1000; stroke-opacity:1; 
stroke-linecap:round; stroke-linejoin:round;">
<path d="M124.9600 50.8000
L132.6664 50.8000
" />
<path d="M132.6664 149.8600
L124.9600 149.8600
" />
<path d="M132.0800 50.8000
L132.0800 149.8600
" />
<path d="M132.0800 50.8000
L132.0800 149.8600
" />
<path d="M132.0800 50.8000
L132.6664 51.9265
" />
<path d="M132.0800 50.8000
L131.4936 51.9265
" />
<path d="M132.0800 149.8600
L131.4936 148.7335
" />
<path d="M132.0800 149.8600
L132.6664 148.7335
" />
</g>
<g style="fill:none; 
stroke:#000000; stroke-width:0.1500; stroke-opacity:1; 
stroke-linecap:round; stroke-linejoin:round;">
<text x="122.5550" y="45.0700"
textLength="8.9167" font-size="1.3333" lengthAdjust="spacingAndGlyphs"
text-anchor="middle" opacity="0">3,8100 mm</text>
<g class="stroked-text"><desc>3,8100 mm</desc>
<path d="M118.3645 44.0248
L118.9836 44.0248
" />
<path d="M118.9836 44.0248
L118.6502 44.4058
" />
<path d="M118.6502 44.4058
L118.7931 44.4058
" />
<path d="M118.7931 44.4058
L118.8883 44.4534
" />
<path d="M118.8883 44.4534
L118.9360 44.5010
" />
<path d="M118.9360 44.5010
L118.9836 44.5962
" />
<path d="M118.9836 44.5962
L118.9836 44.8343
" />
<path d="M118.9836 44.8343
L118.9360 44.9296
" />
<path d="M118.9360 44.9296
L118.8883 44.9772
" />
<path d="M118.8883 44.9772
L118.7931 45.0248
" />
<path d="M118.7931 45.0248
L118.5074 45.0248
" />
<path d="M118.5074 45.0248
L118.4121 44.9772
" />
<path d="M118.4121 44.9772
L118.3645 44.9296
" />
<path d="M119.4598 44.9772
L119.4598 45.0248
" />
<path d="M119.4598 45.0248
L119.4121 45.1201
" />
<path d="M119.4121 45.1201
L119.3645 45.1677
" />
<path d="M120.0312 44.4534
L119.9360 44.4058
" />
<path d="M119.9360 44.4058
L119.8883 44.3582
" />
<path d="M119.8883 44.3582
L119.8407 44.2629
" />
<path d="M119.8407 44.2629
L119.8407 44.2153
" />
<path d="M119.8407 44.2153
L119.8883 44.1201
" />
<path d="M119.8883 44.1201
L119.9360 44.0724
" />
<path d="M119.9360 44.0724
L120.0312 44.0248
" />
<path d="M120.0312 44.0248
L120.2217 44.0248
" />
<path d="M120.2217 44.0248
L120.3169 44.0724
" />
<path d="M120.3169 44.0724
L120.3645 44.1201
" />
<path d="M120.3645 44.1201
L120.4121 44.2153
" />
<path d="M120.4121 44.2153
L120.4121 44.2629
" />
<path d="M120.4121 44.2629
L120.3645 44.3582
" />
<path d="M120.3645 44.3582
L120.3169 44.4058
" />
<path d="M120.3169 44.4058
L120.2217 44.4534
" />
<path d="M120.2217 44.4534
L120.0312 44.4534
" />
<path d="M120.0312 44.4534
L119.9360 44.5010
" />
<path d="M119.9360 44.5010
L119.8883 44.5486
" />
<path d="M119.8883 44.5486
L119.8407 44.6439
" />
<path d="M119.8407 44.6439
L119.8407 44.8343
" />
<path d="M119.8407 44.8343
L119.8883 44.9296
" />
<path d="M119.8883 44.9296
L119.9360 44.9772
" />
<path d="M119.9360 44.9772
L120.0312 45.0248
" />
<path d="M120.0312 45.0248
L120.2217 45.0248
" />
<path d="M120.2217 45.0248
L120.3169 44.9772
" />
<path d="M120.3169 44.9772
L120.3645 44.9296
" />
<path d="M120.3645 44.9296
L120.4121 44.8343
" />
<path d="M120.4121 44.8343
L120.4121 44.6439
" />
<path d="M120.4121 44.6439
L120.3645 44.5486
" />
<path d="M120.3645 44.5486
L120.3169 44.5010
" />
<path d="M120.3169 44.5010
L120.2217 44.4534
" />
<path d="M121.3645 45.0248
L120.7931 45.0248
" />
<path d="M121.0788 45.0248
L121.0788 44.0248
" />
<path d="M121.0788 44.0248
L120.9836 44.1677
" />
<path d="M120.9836 44.1677
L120.8883 44.2629
" />
<path d="M120.8883 44.2629
L120.7931 44.3105
" />
<path d="M121.9836 44.0248
L122.0788 44.0248
" />
<path d="M122.0788 44.0248
L122.1740 44.0724
" />
<path d="M122.1740 44.0724
L122.2217 44.1201
" />
<path d="M122.2217 44.1201
L122.2693 44.2153
" />
<path d="M122.2693 44.2153
L122.3169 44.4058
" />
<path d="M122.3169 44.4058
L122.3169 44.6439
" />
<path d="M122.3169 44.6439
L122.2693 44.8343
" />
<path d="M122.2693 44.8343
L122.2217 44.9296
" />
<path d="M122.2217 44.9296
L122.1740 44.9772
" />
<path d="M122.1740 44.9772
L122.0788 45.0248
" />
<path d="M122.0788 45.0248
L121.9836 45.0248
" />
<path d="M121.9836 45.0248
L121.8883 44.9772
" />
<path d="M121.8883 44.9772
L121.8407 44.9296
" />
<path d="M121.8407 44.9296
L121.7931 44.8343
" />
<path d="M121.7931 44.8343
L121.7455 44.6439
" />
<path d="M121.7455 44.6439
L121.7455 44.4058
" />
<path d="M121.7455 44.4058
L121.7931 44.2153
" />
<path d="M121.7931 44.2153
L121.8407 44.1201
" />
<path d="M121.8407 44.1201
L121.8883 44.0724
" />
<path d="M121.8883 44.0724
L121.9836 44.0248
" />
<path d="M122.9360 44.0248
L123.0312 44.0248
" />
<path d="M123.0312 44.0248
L123.1264 44.0724
" />
<path d="M123.1264 44.0724
L123.1740 44.1201
" />
<path d="M123.1740 44.1201
L123.2217 44.2153
" />
<path d="M123.2217 44.2153
L123.2693 44.4058
" />
<path d="M123.2693 44.4058
L123.2693 44.6439
" />
<path d="M123.2693 44.6439
L123.2217 44.8343
" />
<path d="M123.2217 44.8343
L123.1740 44.9296
" />
<path d="M123.1740 44.9296
L123.1264 44.9772
" />
<path d="M123.1264 44.9772
L123.0312 45.0248
" />
<path d="M123.0312 45.0248
L122.9360 45.0248
" />
<path d="M122.9360 45.0248
L122.8407 44.9772
" />
<path d="M122.8407 44.9772
L122.7931 44.9296
" />
<path d="M122.7931 44.9296
L122.7455 44.8343
" />
<path d="M122.7455 44.8343
L122.6979 44.6439
" />
<path d="M122.6979 44.6439
L122.6979 44.4058
" />
<path d="M122.6979 44.4058
L122.7455 44.2153
" />
<path d="M122.7455 44.2153
L122.7931 44.1201
" />
<path d="M122.7931 44.1201
L122.8407 44.0724
" />
<path d="M122.8407 44.0724
L122.9360 44.0248
" />
<path d="M124.4598 45.0248
L124.4598 44.3582
" />
<path d="M124.4598 44.4534
L124.5074 44.4058
" />
<path d="M124.5074 44.4058
L124.6026 44.3582
" />
<path d="M124.6026 44.3582
L124.7455 44.3582
" />
<path d="M124.7455 44.3582
L124.8407 44.4058
" />
<path d="M124.8407 44.4058
L124.8883 44.5010
" />
<path d="M124.8883 44.5010
L124.8883 45.0248
" />
<path d="M124.8883 44.5010
L124.9360 44.4058
" />
<path d="M124.9360 44.4058
L125.0312 44.3582
" />
<path d="M125.0312 44.3582
L125.1740 44.3582
" />
<path d="M125.1740 44.3582
L125.2693 44.4058
" />
<path d="M125.2693 44.4058
L125.3169 44.5010
" />
<path d="M125.3169 44.5010
L125.3169 45.0248
" />
<path d="M125.7931 45.0248
L125.7931 44.3582
" />
<path d="M125.7931 44.4534
L125.8407 44.4058
" />
<path d="M125.8407 44.4058
L125.9360 44.3582
" />
<path d="M125.9360 44.3582
L126.0788 44.3582
" />
<path d="M126.0788 44.3582
L126.1740 44.4058
" />
<path d="M126.1740 44.4058
L126.2217 44.5010
" />
<path d="M126.2217 44.5010
L126.2217 45.0248
" />
<path d="M126.2217 44.5010
L126.2693 44.4058
" />
<path d="M126.2693 44.4058
L126.3645 44.3582
" />
<path d="M126.3645 44.3582
L126.5074 44.3582
" />
<path d="M126.5074 44.3582
L126.6026 44.4058
" />
<path d="M126.6026 44.4058
L126.6502 44.5010
" />
<path d="M126.6502 44.5010
L126.6502 45.0248
" />
</g></g>
<g style="fill:none; 
stroke:#000000; stroke-width:0.1000; stroke-opacity:1; 
stroke-linecap:round; stroke-linejoin:round;">
<path d="M120.6500 54.1100
L120.6500 45.1336
" />
<path d="M124.4600 45.1336
L124.4600 50.3000
" />
<path d="M120.6500 45.7200
L124.4600 45.7200
" />
<path d="M120.6500 45.7200
L124.4600 45.7200
" />
<path d="M120.6500 45.7200
L121.7765 45.1336
" />
<path d="M120.6500 45.7200
L121.7765 46.3064
" />
<path d="M124.4600 45.7200
L123.3335 46.3064
" />
<path d="M124.4600 45.7200
L123.3335 45.1336
" />
</g>
<g style="fill:none; 
stroke:#000000; stroke-width:0.1500; stroke-opacity:1; 
stroke-linecap:round; stroke-linejoin:round;">
<text x="43.1800" y="45.0700"
textLength="9.8690" font-size="1.3333" lengthAdjust="spacingAndGlyphs"
text-anchor="middle" opacity="0">35,5600 mm</text>
<g class="stroked-text"><desc>35,5600 mm</desc>
<path d="M38.5133 44.0248
L39.1324 44.0248
" />
<path d="M39.1324 44.0248
L38.7990 44.4058
" />
<path d="M38.7990 44.4058
L38.9419 44.4058
" />
<path d="M38.9419 44.4058
L39.0371 44.4534
" />
<path d="M39.0371 44.4534
L39.0848 44.5010
" />
<path d="M39.0848 44.5010
L39.1324 44.5962
" />
<path d="M39.1324 44.5962
L39.1324 44.8343
" />
<path d="M39.1324 44.8343
L39.0848 44.9296
" />
<path d="M39.0848 44.9296
L39.0371 44.9772
" />
<path d="M39.0371 44.9772
L38.9419 45.0248
" />
<path d="M38.9419 45.0248
L38.6562 45.0248
" />
<path d="M38.6562 45.0248
L38.5610 44.9772
" />
<path d="M38.5610 44.9772
L38.5133 44.9296
" />
<path d="M40.0371 44.0248
L39.5610 44.0248
" />
<path d="M39.5610 44.0248
L39.5133 44.5010
" />
<path d="M39.5133 44.5010
L39.5610 44.4534
" />
<path d="M39.5610 44.4534
L39.6562 44.4058
" />
<path d="M39.6562 44.4058
L39.8943 44.4058
" />
<path d="M39.8943 44.4058
L39.9895 44.4534
" />
<path d="M39.9895 44.4534
L40.0371 44.5010
" />
<path d="M40.0371 44.5010
L40.0848 44.5962
" />
<path d="M40.0848 44.5962
L40.0848 44.8343
" />
<path d="M40.0848 44.8343
L40.0371 44.9296
" />
<path d="M40.0371 44.9296
L39.9895 44.9772
" />
<path d="M39.9895 44.9772
L39.8943 45.0248
" />
<path d="M39.8943 45.0248
L39.6562 45.0248
" />
<path d="M39.6562 45.0248
L39.5610 44.9772
" />
<path d="M39.5610 44.9772
L39.5133 44.9296
" />
<path d="M40.5610 44.9772
L40.5610 45.0248
" />
<path d="M40.5610 45.0248
L40.5133 45.1201
" />
<path d="M40.5133 45.1201
L40.4657 45.1677
" />
<path d="M41.4657 44.0248
L40.9895 44.0248
" />
<path d="M40.9895 44.0248
L40.9419 44.5010
" />
<path d="M40.9419 44.5010
L40.9895 44.4534
" />
<path d="M40.9895 44.4534
L41.0848 44.4058
" />
<path d="M41.0848 44.4058
L41.3229 44.4058
" />
<path d="M41.3229 44.4058
L41.4181 44.4534
" />
<path d="M41.4181 44.4534
L41.4657 44.5010
" />
<path d="M41.4657 44.5010
L41.5133 44.5962
" />
<path d="M41.5133 44.5962
L41.5133 44.8343
" />
<path d="M41.5133 44.8343
L41.4657 44.9296
" />
<path d="M41.4657 44.9296
L41.4181 44.9772
" />
<path d="M41.4181 44.9772
L41.3229 45.0248
" />
<path d="M41.3229 45.0248
L41.0848 45.0248
" />
<path d="M41.0848 45.0248
L40.9895 44.9772
" />
<path d="M40.9895 44.9772
L40.9419 44.9296
" />
<path d="M42.3705 44.0248
L42.1800 44.0248
" />
<path d="M42.1800 44.0248
L42.0848 44.0724
" />
<path d="M42.0848 44.0724
L42.0371 44.1201
" />
<path d="M42.0371 44.1201
L41.9419 44.2629
" />
<path d="M41.9419 44.2629
L41.8943 44.4534
" />
<path d="M41.8943 44.4534
L41.8943 44.8343
" />
<path d="M41.8943 44.8343
L41.9419 44.9296
" />
<path d="M41.9419 44.9296
L41.9895 44.9772
" />
<path d="M41.9895 44.9772
L42.0848 45.0248
" />
<path d="M42.0848 45.0248
L42.2752 45.0248
" />
<path d="M42.2752 45.0248
L42.3705 44.9772
" />
<path d="M42.3705 44.9772
L42.4181 44.9296
" />
<path d="M42.4181 44.9296
L42.4657 44.8343
" />
<path d="M42.4657 44.8343
L42.4657 44.5962
" />
<path d="M42.4657 44.5962
L42.4181 44.5010
" />
<path d="M42.4181 44.5010
L42.3705 44.4534
" />
<path d="M42.3705 44.4534
L42.2752 44.4058
" />
<path d="M42.2752 44.4058
L42.0848 44.4058
" />
<path d="M42.0848 44.4058
L41.9895 44.4534
" />
<path d="M41.9895 44.4534
L41.9419 44.5010
" />
<path d="M41.9419 44.5010
L41.8943 44.5962
" />
<path d="M43.0848 44.0248
L43.1800 44.0248
" />
<path d="M43.1800 44.0248
L43.2752 44.0724
" />
<path d="M43.2752 44.0724
L43.3229 44.1201
" />
<path d="M43.3229 44.1201
L43.3705 44.2153
" />
<path d="M43.3705 44.2153
L43.4181 44.4058
" />
<path d="M43.4181 44.4058
L43.4181 44.6439
" />
<path d="M43.4181 44.6439
L43.3705 44.8343
" />
<path d="M43.3705 44.8343
L43.3229 44.9296
" />
<path d="M43.3229 44.9296
L43.2752 44.9772
" />
<path d="M43.2752 44.9772
L43.1800 45.0248
" />
<path d="M43.1800 45.0248
L43.0848 45.0248
" />
<path d="M43.0848 45.0248
L42.9895 44.9772
" />
<path d="M42.9895 44.9772
L42.9419 44.9296
" />
<path d="M42.9419 44.9296
L42.8943 44.8343
" />
<path d="M42.8943 44.8343
L42.8467 44.6439
" />
<path d="M42.8467 44.6439
L42.8467 44.4058
" />
<path d="M42.8467 44.4058
L42.8943 44.2153
" />
<path d="M42.8943 44.2153
L42.9419 44.1201
" />
<path d="M42.9419 44.1201
L42.9895 44.0724
" />
<path d="M42.9895 44.0724
L43.0848 44.0248
" />
<path d="M44.0371 44.0248
L44.1324 44.0248
" />
<path d="M44.1324 44.0248
L44.2276 44.0724
" />
<path d="M44.2276 44.0724
L44.2752 44.1201
" />
<path d="M44.2752 44.1201
L44.3229 44.2153
" />
<path d="M44.3229 44.2153
L44.3705 44.4058
" />
<path d="M44.3705 44.4058
L44.3705 44.6439
" />
<path d="M44.3705 44.6439
L44.3229 44.8343
" />
<path d="M44.3229 44.8343
L44.2752 44.9296
" />
<path d="M44.2752 44.9296
L44.2276 44.9772
" />
<path d="M44.2276 44.9772
L44.1324 45.0248
" />
<path d="M44.1324 45.0248
L44.0371 45.0248
" />
<path d="M44.0371 45.0248
L43.9419 44.9772
" />
<path d="M43.9419 44.9772
L43.8943 44.9296
" />
<path d="M43.8943 44.9296
L43.8467 44.8343
" />
<path d="M43.8467 44.8343
L43.7990 44.6439
" />
<path d="M43.7990 44.6439
L43.7990 44.4058
" />
<path d="M43.7990 44.4058
L43.8467 44.2153
" />
<path d="M43.8467 44.2153
L43.8943 44.1201
" />
<path d="M43.8943 44.1201
L43.9419 44.0724
" />
<path d="M43.9419 44.0724
L44.0371 44.0248
" />
<path d="M45.5610 45.0248
L45.5610 44.3582
" />
<path d="M45.5610 44.4534
L45.6086 44.4058
" />
<path d="M45.6086 44.4058
L45.7038 44.3582
" />
<path d="M45.7038 44.3582
L45.8467 44.3582
" />
<path d="M45.8467 44.3582
L45.9419 44.4058
" />
<path d="M45.9419 44.4058
L45.9895 44.5010
" />
<path d="M45.9895 44.5010
L45.9895 45.0248
" />
<path d="M45.9895 44.5010
L46.0371 44.4058
" />
<path d="M46.0371 44.4058
L46.1324 44.3582
" />
<path d="M46.1324 44.3582
L46.2752 44.3582
" />
<path d="M46.2752 44.3582
L46.3705 44.4058
" />
<path d="M46.3705 44.4058
L46.4181 44.5010
" />
<path d="M46.4181 44.5010
L46.4181 45.0248
" />
<path d="M46.8943 45.0248
L46.8943 44.3582
" />
<path d="M46.8943 44.4534
L46.9419 44.4058
" />
<path d="M46.9419 44.4058
L47.0371 44.3582
" />
<path d="M47.0371 44.3582
L47.1800 44.3582
" />
<path d="M47.1800 44.3582
L47.2752 44.4058
" />
<path d="M47.2752 44.4058
L47.3229 44.5010
" />
<path d="M47.3229 44.5010
L47.3229 45.0248
" />
<path d="M47.3229 44.5010
L47.3705 44.4058
" />
<path d="M47.3705 44.4058
L47.4657 44.3582
" />
<path d="M47.4657 44.3582
L47.6086 44.3582
" />
<path d="M47.6086 44.3582
L47.7038 44.4058
" />
<path d="M47.7038 44.4058
L47.7514 44.5010
" />
<path d="M47.7514 44.5010
L47.7514 45.0248
" />
</g></g>
<g style="fill:none; 
stroke:#000000; stroke-width:0.1000; stroke-opacity:1; 
stroke-linecap:round; stroke-linejoin:round;">
<path d="M25.4000 50.3000
L25.4000 45.1336
" />
<path d="M60.9600 45.1336
L60.9600 54.1100
" />
<path d="M25.4000 45.7200
L60.9600 45.7200
" />
<path d="M25.4000 45.7200
L60.9600 45.7200
" />
<path d="M25.4000 45.7200
L26.5265 45.1336
" />
<path d="M25.4000 45.7200
L26.5265 46.3064
" />
<path d="M60.9600 45.7200
L59.8335 46.3064
" />
<path d="M60.9600 45.7200
L59.8335 45.1336
" />
</g>
<g style="fill:none; 
stroke:#000000; stroke-width:0.1500; stroke-opacity:1; 
stroke-linecap:round; stroke-linejoin:round;">
<text x="74.9300" y="39.9900"
textLength="9.8690" font-size="1.3333" lengthAdjust="spacingAndGlyphs"
text-anchor="middle" opacity="0">99,0600 mm</text>
<g class="stroked-text"><desc>99,0600 mm</desc>
<path d="M70.4062 39.9448
L70.5967 39.9448
" />
<path d="M70.5967 39.9448
L70.6919 39.8972
" />
<path d="M70.6919 39.8972
L70.7395 39.8496
" />
<path d="M70.7395 39.8496
L70.8348 39.7067
" />
<path d="M70.8348 39.7067
L70.8824 39.5162
" />
<path d="M70.8824 39.5162
L70.8824 39.1353
" />
<path d="M70.8824 39.1353
L70.8348 39.0401
" />
<path d="M70.8348 39.0401
L70.7871 38.9924
" />
<path d="M70.7871 38.9924
L70.6919 38.9448
" />
<path d="M70.6919 38.9448
L70.5014 38.9448
" />
<path d="M70.5014 38.9448
L70.4062 38.9924
" />
<path d="M70.4062 38.9924
L70.3586 39.0401
" />
<path d="M70.3586 39.0401
L70.3110 39.1353
" />
<path d="M70.3110 39.1353
L70.3110 39.3734
" />
<path d="M70.3110 39.3734
L70.3586 39.4686
" />
<path d="M70.3586 39.4686
L70.4062 39.5162
" />
<path d="M70.4062 39.5162
L70.5014 39.5639
" />
<path d="M70.5014 39.5639
L70.6919 39.5639
" />
<path d="M70.6919 39.5639
L70.7871 39.5162
" />
<path d="M70.7871 39.5162
L70.8348 39.4686
" />
<path d="M70.8348 39.4686
L70.8824 39.3734
" />
<path d="M71.3586 39.9448
L71.5490 39.9448
" />
<path d="M71.5490 39.9448
L71.6443 39.8972
" />
<path d="M71.6443 39.8972
L71.6919 39.8496
" />
<path d="M71.6919 39.8496
L71.7871 39.7067
" />
<path d="M71.7871 39.7067
L71.8348 39.5162
" />
<path d="M71.8348 39.5162
L71.8348 39.1353
" />
<path d="M71.8348 39.1353
L71.7871 39.0401
" />
<path d="M71.7871 39.0401
L71.7395 38.9924
" />
<path d="M71.7395 38.9924
L71.6443 38.9448
" />
<path d="M71.6443 38.9448
L71.4538 38.9448
" />
<path d="M71.4538 38.9448
L71.3586 38.9924
" />
<path d="M71.3586 38.9924
L71.3110 39.0401
" />
<path d="M71.3110 39.0401
L71.2633 39.1353
" />
<path d="M71.2633 39.1353
L71.2633 39.3734
" />
<path d="M71.2633 39.3734
L71.3110 39.4686
" />
<path d="M71.3110 39.4686
L71.3586 39.5162
" />
<path d="M71.3586 39.5162
L71.4538 39.5639
" />
<path d="M71.4538 39.5639
L71.6443 39.5639
" />
<path d="M71.6443 39.5639
L71.7395 39.5162
" />
<path d="M71.7395 39.5162
L71.7871 39.4686
" />
<path d="M71.7871 39.4686
L71.8348 39.3734
" />
<path d="M72.3110 39.8972
L72.3110 39.9448
" />
<path d="M72.3110 39.9448
L72.2633 40.0401
" />
<path d="M72.2633 40.0401
L72.2157 40.0877
" />
<path d="M72.9300 38.9448
L73.0252 38.9448
" />
<path d="M73.0252 38.9448
L73.1205 38.9924
" />
<path d="M73.1205 38.9924
L73.1681 39.0401
" />
<path d="M73.1681 39.0401
L73.2157 39.1353
" />
<path d="M73.2157 39.1353
L73.2633 39.3258
" />
<path d="M73.2633 39.3258
L73.2633 39.5639
" />
<path d="M73.2633 39.5639
L73.2157 39.7543
" />
<path d="M73.2157 39.7543
L73.1681 39.8496
" />
<path d="M73.1681 39.8496
L73.1205 39.8972
" />
<path d="M73.1205 39.8972
L73.0252 39.9448
" />
<path d="M73.0252 39.9448
L72.9300 39.9448
" />
<path d="M72.9300 39.9448
L72.8348 39.8972
" />
<path d="M72.8348 39.8972
L72.7871 39.8496
" />
<path d="M72.7871 39.8496
L72.7395 39.7543
" />
<path d="M72.7395 39.7543
L72.6919 39.5639
" />
<path d="M72.6919 39.5639
L72.6919 39.3258
" />
<path d="M72.6919 39.3258
L72.7395 39.1353
" />
<path d="M72.7395 39.1353
L72.7871 39.0401
" />
<path d="M72.7871 39.0401
L72.8348 38.9924
" />
<path d="M72.8348 38.9924
L72.9300 38.9448
" />
<path d="M74.1205 38.9448
L73.9300 38.9448
" />
<path d="M73.9300 38.9448
L73.8348 38.9924
" />
<path d="M73.8348 38.9924
L73.7871 39.0401
" />
<path d="M73.7871 39.0401
L73.6919 39.1829
" />
<path d="M73.6919 39.1829
L73.6443 39.3734
" />
<path d="M73.6443 39.3734
L73.6443 39.7543
" />
<path d="M73.6443 39.7543
L73.6919 39.8496
" />
<path d="M73.6919 39.8496
L73.7395 39.8972
" />
<path d="M73.7395 39.8972
L73.8348 39.9448
" />
<path d="M73.8348 39.9448
L74.0252 39.9448
" />
<path d="M74.0252 39.9448
L74.1205 39.8972
" />
<path d="M74.1205 39.8972
L74.1681 39.8496
" />
<path d="M74.1681 39.8496
L74.2157 39.7543
" />
<path d="M74.2157 39.7543
L74.2157 39.5162
" />
<path d="M74.2157 39.5162
L74.1681 39.4210
" />
<path d="M74.1681 39.4210
L74.1205 39.3734
" />
<path d="M74.1205 39.3734
L74.0252 39.3258
" />
<path d="M74.0252 39.3258
L73.8348 39.3258
" />
<path d="M73.8348 39.3258
L73.7395 39.3734
" />
<path d="M73.7395 39.3734
L73.6919 39.4210
" />
<path d="M73.6919 39.4210
L73.6443 39.5162
" />
<path d="M74.8348 38.9448
L74.9300 38.9448
" />
<path d="M74.9300 38.9448
L75.0252 38.9924
" />
<path d="M75.0252 38.9924
L75.0729 39.0401
" />
<path d="M75.0729 39.0401
L75.1205 39.1353
" />
<path d="M75.1205 39.1353
L75.1681 39.3258
" />
<path d="M75.1681 39.3258
L75.1681 39.5639
" />
<path d="M75.1681 39.5639
L75.1205 39.7543
" />
<path d="M75.1205 39.7543
L75.0729 39.8496
" />
<path d="M75.0729 39.8496
L75.0252 39.8972
" />
<path d="M75.0252 39.8972
L74.9300 39.9448
" />
<path d="M74.9300 39.9448
L74.8348 39.9448
" />
<path d="M74.8348 39.9448
L74.7395 39.8972
" />
<path d="M74.7395 39.8972
L74.6919 39.8496
" />
<path d="M74.6919 39.8496
L74.6443 39.7543
" />
<path d="M74.6443 39.7543
L74.5967 39.5639
" />
<path d="M74.5967 39.5639
L74.5967 39.3258
" />
<path d="M74.5967 39.3258
L74.6443 39.1353
" />
<path d="M74.6443 39.1353
L74.6919 39.0401
" />
<path d="M74.6919 39.0401
L74.7395 38.9924
" />
<path d="M74.7395 38.9924
L74.8348 38.9448
" />
<path d="M75.7871 38.9448
L75.8824 38.9448
" />
<path d="M75.8824 38.9448
L75.9776 38.9924
" />
<path d="M75.9776 38.9924
L76.0252 39.0401
" />
<path d="M76.0252 39.0401
L76.0729 39.1353
" />
<path d="M76.0729 39.1353
L76.1205 39.3258
" />
<path d="M76.1205 39.3258
L76.1205 39.5639
" />
<path d="M76.1205 39.5639
L76.0729 39.7543
" />
<path d="M76.0729 39.7543
L76.0252 39.8496
" />
<path d="M76.0252 39.8496
L75.9776 39.8972
" />
<path d="M75.9776 39.8972
L75.8824 39.9448
" />
<path d="M75.8824 39.9448
L75.7871 39.9448
" />
<path d="M75.7871 39.9448
L75.6919 39.8972
" />
<path d="M75.6919 39.8972
L75.6443 39.8496
" />
<path d="M75.6443 39.8496
L75.5967 39.7543
" />
<path d="M75.5967 39.7543
L75.5490 39.5639
" />
<path d="M75.5490 39.5639
L75.5490 39.3258
" />
<path d="M75.5490 39.3258
L75.5967 39.1353
" />
<path d="M75.5967 39.1353
L75.6443 39.0401
" />
<path d="M75.6443 39.0401
L75.6919 38.9924
" />
<path d="M75.6919 38.9924
L75.7871 38.9448
" />
<path d="M77.3110 39.9448
L77.3110 39.2782
" />
<path d="M77.3110 39.3734
L77.3586 39.3258
" />
<path d="M77.3586 39.3258
L77.4538 39.2782
" />
<path d="M77.4538 39.2782
L77.5967 39.2782
" />
<path d="M77.5967 39.2782
L77.6919 39.3258
" />
<path d="M77.6919 39.3258
L77.7395 39.4210
" />
<path d="M77.7395 39.4210
L77.7395 39.9448
" />
<path d="M77.7395 39.4210
L77.7871 39.3258
" />
<path d="M77.7871 39.3258
L77.8824 39.2782
" />
<path d="M77.8824 39.2782
L78.0252 39.2782
" />
<path d="M78.0252 39.2782
L78.1205 39.3258
" />
<path d="M78.1205 39.3258
L78.1681 39.4210
" />
<path d="M78.1681 39.4210
L78.1681 39.9448
" />
<path d="M78.6443 39.9448
L78.6443 39.2782
" />
<path d="M78.6443 39.3734
L78.6919 39.3258
" />
<path d="M78.6919 39.3258
L78.7871 39.2782
" />
<path d="M78.7871 39.2782
L78.9300 39.2782
" />
<path d="M78.9300 39.2782
L79.0252 39.3258
" />
<path d="M79.0252 39.3258
L79.0729 39.4210
" />
<path d="M79.0729 39.4210
L79.0729 39.9448
" />
<path d="M79.0729 39.4210
L79.1205 39.3258
" />
<path d="M79.1205 39.3258
L79.2157 39.2782
" />
<path d="M79.2157 39.2782
L79.3586 39.2782
" />
<path d="M79.3586 39.2782
L79.4538 39.3258
" />
<path d="M79.4538 39.3258
L79.5014 39.4210
" />
<path d="M79.5014 39.4210
L79.5014 39.9448
" />
</g></g>
<g style="fill:none; 
stroke:#000000; stroke-width:0.1000; stroke-opacity:1; 
stroke-linecap:round; stroke-linejoin:round;">
<path d="M25.4000 50.3000
L25.4000 40.0536
" />
<path d="M124.4600 40.0536
L124.4600 50.3000
" />
<path d="M25.4000 40.6400
L124.4600 40.6400
" />
<path d="M25.4000 40.6400
L124.4600 40.6400
" />
<path d="M25.4000 40.6400
L26.5265 40.0536
" />
<path d="M25.4000 40.6400
L26.5265 41.2264
" />
<path d="M124.4600 40.6400
L123.3335 41.2264
" />
<path d="M124.4600 40.6400
L123.3335 40.0536
" />
</g>
<g style="fill:none; 
stroke:#000000; stroke-width:0.1500; stroke-opacity:1; 
stroke-linecap:round; stroke-linejoin:round;">
<circle cx="60.9600" cy="54.6100" r="3.2000" /> 
<circle cx="120.6500" cy="146.0500" r="3.2000" /> 
<circle cx="120.6500" cy="54.6100" r="3.2000" /> 
</g>
<g style="fill:none; 
stroke:#000000; stroke-width:0.0500; stroke-opacity:1; 
stroke-linecap:round; stroke-linejoin:round;">
<path d="M40.6400 121.9200
L40.6400 78.7400
" />
<path d="M66.0400 124.4600 A2.5400 2.5400 0.0 0 0 68.5800 121.9200" />
<path d="M68.5800 78.7400
L68.5800 121.9200
" />
<path d="M27.9400 50.8000 A2.5400 2.5400 0.0 0 0 25.4000 53.3400" />
<path d="M81.2800 132.0800
L81.2800 147.3200
" />
<path d="M66.0400 124.4600
L43.1800 124.4600
" />
<path d="M68.5800 78.7400 A2.5400 2.5400 0.0 0 0 66.0400 76.2000" />
<path d="M81.2800 147.3200 A2.5400 2.5400 0.0 0 0 83.8200 149.8600" />
<path d="M25.4000 127.0000 A2.5400 2.5400 0.0 0 0 27.9400 129.5400" />
<path d="M40.6400 121.9200 A2.5400 2.5400 0.0 0 0 43.1800 124.4600" />
<path d="M43.1800 76.2000 A2.5400 2.5400 0.0 0 0 40.6400 78.7400" />
<path d="M27.9400 129.5400
L78.7400 129.5400
" />
<path d="M121.9200 50.8000
L27.9400 50.8000
" />
<path d="M124.4600 53.3400 A2.5400 2.5400 0.0 0 0 121.9200 50.8000" />
<path d="M25.4000 53.3400
L25.4000 127.0000
" />
<path d="M121.9200 149.8600 A2.5400 2.5400 0.0 0 0 124.4600 147.3200" />
<path d="M83.8200 149.8600
L121.9200 149.8600
" />
<path d="M81.2800 132.0800 A2.5400 2.5400 0.0 0 0 78.7400 129.5400" />
<path d="M124.4600 147.3200
L124.4600 53.3400
" />
<path d="M43.1800 76.2000
L66.0400 76.2000
" />
</g> 
</svg>
