%TF.GenerationSoftware,KiCad,Pcbnew,10.0.3*%
%TF.CreationDate,2026-06-11T21:10:32+03:00*%
%TF.ProjectId,PMPS-20W,504d5053-2d32-4305-972e-6b696361645f,rev?*%
%TF.SameCoordinates,Original*%
%TF.FileFunction,Paste,Top*%
%TF.FilePolarity,Positive*%
%FSLAX46Y46*%
G04 Gerber Fmt 4.6, Leading zero omitted, Abs format (unit mm)*
G04 Created by KiCad (PCBNEW 10.0.3) date 2026-06-11 21:10:32*
%MOMM*%
%LPD*%
G01*
G04 APERTURE LIST*
G04 Aperture macros list*
%AMRoundRect*
0 Rectangle with rounded corners*
0 $1 Rounding radius*
0 $2 $3 $4 $5 $6 $7 $8 $9 X,Y pos of 4 corners*
0 Add a 4 corners polygon primitive as box body*
4,1,4,$2,$3,$4,$5,$6,$7,$8,$9,$2,$3,0*
0 Add four circle primitives for the rounded corners*
1,1,$1+$1,$2,$3*
1,1,$1+$1,$4,$5*
1,1,$1+$1,$6,$7*
1,1,$1+$1,$8,$9*
0 Add four rect primitives between the rounded corners*
20,1,$1+$1,$2,$3,$4,$5,0*
20,1,$1+$1,$4,$5,$6,$7,0*
20,1,$1+$1,$6,$7,$8,$9,0*
20,1,$1+$1,$8,$9,$2,$3,0*%
G04 Aperture macros list end*
%ADD10RoundRect,0.250000X-0.325000X-1.100000X0.325000X-1.100000X0.325000X1.100000X-0.325000X1.100000X0*%
%ADD11RoundRect,0.250000X-0.650000X-2.450000X0.650000X-2.450000X0.650000X2.450000X-0.650000X2.450000X0*%
%ADD12RoundRect,0.100000X-0.775000X-0.150000X0.775000X-0.150000X0.775000X0.150000X-0.775000X0.150000X0*%
%ADD13RoundRect,0.112500X-0.787500X-0.887500X0.787500X-0.887500X0.787500X0.887500X-0.787500X0.887500X0*%
%ADD14RoundRect,0.100000X-0.700000X-0.900000X0.700000X-0.900000X0.700000X0.900000X-0.700000X0.900000X0*%
%ADD15RoundRect,0.249999X1.450001X-0.450001X1.450001X0.450001X-1.450001X0.450001X-1.450001X-0.450001X0*%
G04 APERTURE END LIST*
D10*
%TO.C,C7*%
X7525000Y40000000D03*
X10475000Y40000000D03*
%TD*%
D11*
%TO.C,C5*%
X6450000Y34000000D03*
X11550000Y34000000D03*
%TD*%
%TO.C,C3*%
X6450000Y6000000D03*
X11550000Y6000000D03*
%TD*%
D10*
%TO.C,C4*%
X7525000Y25761828D03*
X10475000Y25761828D03*
%TD*%
D12*
%TO.C,J12*%
X-31875000Y24500000D03*
X-28125000Y23500000D03*
X-31875000Y22500000D03*
X-28125000Y21500000D03*
X-31875000Y20500000D03*
X-28125000Y19500000D03*
X-31875000Y18500000D03*
X-28125000Y17500000D03*
X-31875000Y16500000D03*
X-28125000Y15500000D03*
X-31875000Y14500000D03*
X-28125000Y13500000D03*
X-31875000Y12500000D03*
X-28125000Y11500000D03*
X-31875000Y10500000D03*
X-28125000Y9500000D03*
X-31875000Y8500000D03*
X-28125000Y7500000D03*
X-31875000Y6500000D03*
X-28125000Y5500000D03*
D13*
X-30000000Y26900000D03*
X-30000000Y3100000D03*
%TD*%
D12*
%TO.C,J11*%
X-31875000Y-4500000D03*
X-28125000Y-5500000D03*
X-31875000Y-6500000D03*
X-28125000Y-7500000D03*
X-31875000Y-8500000D03*
X-28125000Y-9500000D03*
X-31875000Y-10500000D03*
X-28125000Y-11500000D03*
X-31875000Y-12500000D03*
X-28125000Y-13500000D03*
X-31875000Y-14500000D03*
X-28125000Y-15500000D03*
D14*
X-30000000Y-2100000D03*
X-30000000Y-17900000D03*
%TD*%
D10*
%TO.C,C6*%
X7525000Y12000000D03*
X10475000Y12000000D03*
%TD*%
D11*
%TO.C,C2*%
X6450000Y20000000D03*
X11550000Y20000000D03*
%TD*%
D15*
%TO.C,C8*%
X16000000Y-29050000D03*
X16000000Y-24950000D03*
%TD*%
M02*
