%TF.GenerationSoftware,KiCad,Pcbnew,9.0.0*%
%TF.CreationDate,2025-03-09T10:12:05+03:00*%
%TF.ProjectId,PM_LED-10,504d5f4c-4544-42d3-9130-2e6b69636164,rev?*%
%TF.SameCoordinates,PX3ec0740PY6021600*%
%TF.FileFunction,Soldermask,Top*%
%TF.FilePolarity,Negative*%
%FSLAX46Y46*%
G04 Gerber Fmt 4.6, Leading zero omitted, Abs format (unit mm)*
G04 Created by KiCad (PCBNEW 9.0.0) date 2025-03-09 10:12:05*
%MOMM*%
%LPD*%
G01*
G04 APERTURE LIST*
G04 Aperture macros list*
%AMRoundRect*
0 Rectangle with rounded corners*
0 $1 Rounding radius*
0 $2 $3 $4 $5 $6 $7 $8 $9 X,Y pos of 4 corners*
0 Add a 4 corners polygon primitive as box body*
4,1,4,$2,$3,$4,$5,$6,$7,$8,$9,$2,$3,0*
0 Add four circle primitives for the rounded corners*
1,1,$1+$1,$2,$3*
1,1,$1+$1,$4,$5*
1,1,$1+$1,$6,$7*
1,1,$1+$1,$8,$9*
0 Add four rect primitives between the rounded corners*
20,1,$1+$1,$2,$3,$4,$5,0*
20,1,$1+$1,$4,$5,$6,$7,0*
20,1,$1+$1,$6,$7,$8,$9,0*
20,1,$1+$1,$8,$9,$2,$3,0*%
G04 Aperture macros list end*
%ADD10RoundRect,0.200000X-0.200000X-0.275000X0.200000X-0.275000X0.200000X0.275000X-0.200000X0.275000X0*%
%ADD11R,0.480000X0.770000*%
%ADD12R,1.803400X0.635000*%
%ADD13R,2.997200X2.590800*%
G04 APERTURE END LIST*
D10*
%TO.C,R5*%
X8175000Y-1000000D03*
X9825000Y-1000000D03*
%TD*%
%TO.C,R10*%
X8175000Y-40250000D03*
X9825000Y-40250000D03*
%TD*%
D11*
%TO.C,D2*%
X14000000Y26435000D03*
X14000000Y28065000D03*
%TD*%
%TO.C,D3*%
X14000000Y19435000D03*
X14000000Y21065000D03*
%TD*%
D10*
%TO.C,R9*%
X8175000Y-37250000D03*
X9825000Y-37250000D03*
%TD*%
%TO.C,R3*%
X8175000Y21000000D03*
X9825000Y21000000D03*
%TD*%
%TO.C,R4*%
X8175000Y14000000D03*
X9825000Y14000000D03*
%TD*%
D12*
%TO.C,J1*%
X-8444000Y35499992D03*
X-8444000Y34499994D03*
X-8444000Y33499996D03*
X-8444000Y32499998D03*
X-8444000Y31500000D03*
X-8444000Y30500000D03*
X-8444000Y29500000D03*
X-8444000Y28500000D03*
X-8444000Y27500002D03*
X-8444000Y26500004D03*
X-8444000Y25500006D03*
X-8444000Y24500008D03*
D13*
X-10614001Y37850003D03*
X-10614001Y22149997D03*
%TD*%
D11*
%TO.C,D8*%
X14000000Y-23565000D03*
X14000000Y-21935000D03*
%TD*%
D10*
%TO.C,R7*%
X8175000Y-15000000D03*
X9825000Y-15000000D03*
%TD*%
D11*
%TO.C,D7*%
X14000000Y-16565000D03*
X14000000Y-14935000D03*
%TD*%
%TO.C,D9*%
X14000000Y-38815000D03*
X14000000Y-37185000D03*
%TD*%
%TO.C,D1*%
X14000000Y33435000D03*
X14000000Y35065000D03*
%TD*%
%TO.C,D4*%
X14000000Y12435000D03*
X14000000Y14065000D03*
%TD*%
D10*
%TO.C,R8*%
X8175000Y-22000000D03*
X9825000Y-22000000D03*
%TD*%
D11*
%TO.C,D10*%
X14000000Y-42315000D03*
X14000000Y-40685000D03*
%TD*%
D10*
%TO.C,R6*%
X8175000Y-8000000D03*
X9825000Y-8000000D03*
%TD*%
D12*
%TO.C,J3*%
X-8444000Y-4500008D03*
X-8444000Y-5500006D03*
X-8444000Y-6500004D03*
X-8444000Y-7500002D03*
X-8444000Y-8500000D03*
X-8444000Y-9500000D03*
X-8444000Y-10500000D03*
X-8444000Y-11500000D03*
X-8444000Y-12499998D03*
X-8444000Y-13499996D03*
X-8444000Y-14499994D03*
X-8444000Y-15499992D03*
D13*
X-10614001Y-2149997D03*
X-10614001Y-17850003D03*
%TD*%
D10*
%TO.C,R1*%
X8175000Y35000000D03*
X9825000Y35000000D03*
%TD*%
%TO.C,R2*%
X8175000Y28000000D03*
X9825000Y28000000D03*
%TD*%
D12*
%TO.C,J2*%
X-8444000Y15499992D03*
X-8444000Y14499994D03*
X-8444000Y13499996D03*
X-8444000Y12499998D03*
X-8444000Y11500000D03*
X-8444000Y10500000D03*
X-8444000Y9500000D03*
X-8444000Y8500000D03*
X-8444000Y7500002D03*
X-8444000Y6500004D03*
X-8444000Y5500006D03*
X-8444000Y4500008D03*
D13*
X-10614001Y17850003D03*
X-10614001Y2149997D03*
%TD*%
D11*
%TO.C,D6*%
X14000000Y-9565000D03*
X14000000Y-7935000D03*
%TD*%
D12*
%TO.C,J4*%
X-8444000Y-24500008D03*
X-8444000Y-25500006D03*
X-8444000Y-26500004D03*
X-8444000Y-27500002D03*
X-8444000Y-28500000D03*
X-8444000Y-29500000D03*
X-8444000Y-30500000D03*
X-8444000Y-31500000D03*
X-8444000Y-32499998D03*
X-8444000Y-33499996D03*
X-8444000Y-34499994D03*
X-8444000Y-35499992D03*
D13*
X-10614001Y-22149997D03*
X-10614001Y-37850003D03*
%TD*%
D11*
%TO.C,D5*%
X14000000Y-2565000D03*
X14000000Y-935000D03*
%TD*%
M02*
