%TF.GenerationSoftware,KiCad,Pcbnew,9.0.6*%
%TF.CreationDate,2025-12-05T20:43:44+03:00*%
%TF.ProjectId,PMLED-18,504d4c45-442d-4313-982e-6b696361645f,rev?*%
%TF.SameCoordinates,Original*%
%TF.FileFunction,Copper,L1,Top*%
%TF.FilePolarity,Positive*%
%FSLAX46Y46*%
G04 Gerber Fmt 4.6, Leading zero omitted, Abs format (unit mm)*
G04 Created by KiCad (PCBNEW 9.0.6) date 2025-12-05 20:43:44*
%MOMM*%
%LPD*%
G01*
G04 APERTURE LIST*
G04 Aperture macros list*
%AMRoundRect*
0 Rectangle with rounded corners*
0 $1 Rounding radius*
0 $2 $3 $4 $5 $6 $7 $8 $9 X,Y pos of 4 corners*
0 Add a 4 corners polygon primitive as box body*
4,1,4,$2,$3,$4,$5,$6,$7,$8,$9,$2,$3,0*
0 Add four circle primitives for the rounded corners*
1,1,$1+$1,$2,$3*
1,1,$1+$1,$4,$5*
1,1,$1+$1,$6,$7*
1,1,$1+$1,$8,$9*
0 Add four rect primitives between the rounded corners*
20,1,$1+$1,$2,$3,$4,$5,0*
20,1,$1+$1,$4,$5,$6,$7,0*
20,1,$1+$1,$6,$7,$8,$9,0*
20,1,$1+$1,$8,$9,$2,$3,0*%
G04 Aperture macros list end*
%TA.AperFunction,SMDPad,CuDef*%
%ADD10R,2.997200X2.590800*%
%TD*%
%TA.AperFunction,SMDPad,CuDef*%
%ADD11R,1.803400X0.635000*%
%TD*%
%TA.AperFunction,SMDPad,CuDef*%
%ADD12RoundRect,0.200000X-0.200000X-0.275000X0.200000X-0.275000X0.200000X0.275000X-0.200000X0.275000X0*%
%TD*%
%TA.AperFunction,SMDPad,CuDef*%
%ADD13R,0.480000X0.770000*%
%TD*%
%TA.AperFunction,ComponentPad*%
%ADD14C,0.700000*%
%TD*%
%TA.AperFunction,ComponentPad*%
%ADD15C,4.400000*%
%TD*%
%TA.AperFunction,ViaPad*%
%ADD16C,0.800000*%
%TD*%
%TA.AperFunction,Conductor*%
%ADD17C,0.400000*%
%TD*%
%TA.AperFunction,Conductor*%
%ADD18C,0.300000*%
%TD*%
G04 APERTURE END LIST*
D10*
%TO.P,J1,13,Pin_11*%
%TO.N,GND*%
X-6614001Y22149997D03*
X-6614001Y37850003D03*
D11*
%TO.P,J1,12,Pin_11*%
X-4444000Y24500008D03*
%TO.P,J1,11,Pin_11*%
%TO.N,unconnected-(J1-Pin_11-Pad11)*%
X-4444000Y25500006D03*
%TO.P,J1,10,Pin_10*%
%TO.N,unconnected-(J1-Pin_10-Pad10)*%
X-4444000Y26500004D03*
%TO.P,J1,9,Pin_9*%
%TO.N,/LEDa.7*%
X-4444000Y27500002D03*
%TO.P,J1,8,Pin_8*%
%TO.N,/LEDa.6*%
X-4444000Y28500000D03*
%TO.P,J1,7,Pin_7*%
%TO.N,/LEDa.5*%
X-4444000Y29500000D03*
%TO.P,J1,6,Pin_6*%
%TO.N,/LEDa.4*%
X-4444000Y30500000D03*
%TO.P,J1,5,Pin_5*%
%TO.N,/LEDa.3*%
X-4444000Y31500000D03*
%TO.P,J1,4,Pin_4*%
%TO.N,/LEDa.2*%
X-4444000Y32499998D03*
%TO.P,J1,3,Pin_3*%
%TO.N,/LEDa.1*%
X-4444000Y33499996D03*
%TO.P,J1,2,Pin_2*%
%TO.N,/LEDa.0*%
X-4444000Y34499994D03*
%TO.P,J1,1,Pin_1*%
%TO.N,GND*%
X-4444000Y35499992D03*
%TD*%
D12*
%TO.P,R17,2*%
%TO.N,Net-(D17-A)*%
X10825000Y-31250000D03*
%TO.P,R17,1*%
%TO.N,/LEDc.0*%
X9175000Y-31250000D03*
%TD*%
%TO.P,R18,2*%
%TO.N,Net-(D18-A)*%
X10825000Y-34750000D03*
%TO.P,R18,1*%
%TO.N,/LEDc.1*%
X9175000Y-34750000D03*
%TD*%
D13*
%TO.P,D5,1,K*%
%TO.N,GND*%
X14000000Y18185000D03*
%TO.P,D5,2,A*%
%TO.N,Net-(D5-A)*%
X14000000Y19815000D03*
%TD*%
%TO.P,D6,1,K*%
%TO.N,GND*%
X14000000Y14685000D03*
%TO.P,D6,2,A*%
%TO.N,Net-(D6-A)*%
X14000000Y16315000D03*
%TD*%
D12*
%TO.P,R2,1*%
%TO.N,/LEDa.1*%
X9175000Y30250000D03*
%TO.P,R2,2*%
%TO.N,Net-(D2-A)*%
X10825000Y30250000D03*
%TD*%
%TO.P,R1,1*%
%TO.N,/LEDa.0*%
X9175000Y33750000D03*
%TO.P,R1,2*%
%TO.N,Net-(D1-A)*%
X10825000Y33750000D03*
%TD*%
%TO.P,R8,1*%
%TO.N,/LEDa.7*%
X9175000Y9250000D03*
%TO.P,R8,2*%
%TO.N,Net-(D8-A)*%
X10825000Y9250000D03*
%TD*%
D13*
%TO.P,D4,1,K*%
%TO.N,GND*%
X14000000Y21685000D03*
%TO.P,D4,2,A*%
%TO.N,Net-(D4-A)*%
X14000000Y23315000D03*
%TD*%
%TO.P,D1,1,K*%
%TO.N,GND*%
X14000000Y32185000D03*
%TO.P,D1,2,A*%
%TO.N,Net-(D1-A)*%
X14000000Y33815000D03*
%TD*%
%TO.P,D7,1,K*%
%TO.N,GND*%
X14000000Y11185000D03*
%TO.P,D7,2,A*%
%TO.N,Net-(D7-A)*%
X14000000Y12815000D03*
%TD*%
D12*
%TO.P,R7,1*%
%TO.N,/LEDa.6*%
X9175000Y12750000D03*
%TO.P,R7,2*%
%TO.N,Net-(D7-A)*%
X10825000Y12750000D03*
%TD*%
%TO.P,R6,1*%
%TO.N,/LEDa.5*%
X9175000Y16250000D03*
%TO.P,R6,2*%
%TO.N,Net-(D6-A)*%
X10825000Y16250000D03*
%TD*%
%TO.P,R4,1*%
%TO.N,/LEDa.3*%
X9175000Y23250000D03*
%TO.P,R4,2*%
%TO.N,Net-(D4-A)*%
X10825000Y23250000D03*
%TD*%
D13*
%TO.P,D3,1,K*%
%TO.N,GND*%
X14000000Y25185000D03*
%TO.P,D3,2,A*%
%TO.N,Net-(D3-A)*%
X14000000Y26815000D03*
%TD*%
%TO.P,D2,1,K*%
%TO.N,GND*%
X14000000Y28685000D03*
%TO.P,D2,2,A*%
%TO.N,Net-(D2-A)*%
X14000000Y30315000D03*
%TD*%
D12*
%TO.P,R3,1*%
%TO.N,/LEDa.2*%
X9175000Y26750000D03*
%TO.P,R3,2*%
%TO.N,Net-(D3-A)*%
X10825000Y26750000D03*
%TD*%
D13*
%TO.P,D8,1,K*%
%TO.N,GND*%
X14000000Y7685000D03*
%TO.P,D8,2,A*%
%TO.N,Net-(D8-A)*%
X14000000Y9315000D03*
%TD*%
D12*
%TO.P,R5,1*%
%TO.N,/LEDa.4*%
X9175000Y19750000D03*
%TO.P,R5,2*%
%TO.N,Net-(D5-A)*%
X10825000Y19750000D03*
%TD*%
D13*
%TO.P,D12,1,K*%
%TO.N,GND*%
X14000000Y-14815000D03*
%TO.P,D12,2,A*%
%TO.N,Net-(D12-A)*%
X14000000Y-13185000D03*
%TD*%
D12*
%TO.P,R10,1*%
%TO.N,/LEDb.1*%
X9175000Y-6250000D03*
%TO.P,R10,2*%
%TO.N,Net-(D10-A)*%
X10825000Y-6250000D03*
%TD*%
%TO.P,R9,1*%
%TO.N,/LEDb.0*%
X9175000Y-2750000D03*
%TO.P,R9,2*%
%TO.N,Net-(D9-A)*%
X10825000Y-2750000D03*
%TD*%
%TO.P,R12,1*%
%TO.N,/LEDb.3*%
X9175000Y-13250000D03*
%TO.P,R12,2*%
%TO.N,Net-(D12-A)*%
X10825000Y-13250000D03*
%TD*%
D13*
%TO.P,D10,1,K*%
%TO.N,GND*%
X14000000Y-7815000D03*
%TO.P,D10,2,A*%
%TO.N,Net-(D10-A)*%
X14000000Y-6185000D03*
%TD*%
D12*
%TO.P,R14,1*%
%TO.N,/LEDb.5*%
X9175000Y-20250000D03*
%TO.P,R14,2*%
%TO.N,Net-(D14-A)*%
X10825000Y-20250000D03*
%TD*%
D13*
%TO.P,D17,1,K*%
%TO.N,GND*%
X14000000Y-32815000D03*
%TO.P,D17,2,A*%
%TO.N,Net-(D17-A)*%
X14000000Y-31185000D03*
%TD*%
%TO.P,D9,1,K*%
%TO.N,GND*%
X14000000Y-4315000D03*
%TO.P,D9,2,A*%
%TO.N,Net-(D9-A)*%
X14000000Y-2685000D03*
%TD*%
D14*
%TO.P,H5,1,1*%
%TO.N,PE*%
X-13650000Y-45000000D03*
X-13166726Y-43833274D03*
X-13166726Y-46166726D03*
X-12000000Y-43350000D03*
D15*
X-12000000Y-45000000D03*
D14*
X-12000000Y-46650000D03*
X-10833274Y-43833274D03*
X-10833274Y-46166726D03*
X-10350000Y-45000000D03*
%TD*%
D12*
%TO.P,R15,1*%
%TO.N,/LEDb.6*%
X9175000Y-23750000D03*
%TO.P,R15,2*%
%TO.N,Net-(D15-A)*%
X10825000Y-23750000D03*
%TD*%
%TO.P,R16,1*%
%TO.N,/LEDb.7*%
X9175000Y-27250000D03*
%TO.P,R16,2*%
%TO.N,Net-(D16-A)*%
X10825000Y-27250000D03*
%TD*%
D13*
%TO.P,D11,1,K*%
%TO.N,GND*%
X14000000Y-11315000D03*
%TO.P,D11,2,A*%
%TO.N,Net-(D11-A)*%
X14000000Y-9685000D03*
%TD*%
%TO.P,D16,1,K*%
%TO.N,GND*%
X14000000Y-28815000D03*
%TO.P,D16,2,A*%
%TO.N,Net-(D16-A)*%
X14000000Y-27185000D03*
%TD*%
D12*
%TO.P,R11,1*%
%TO.N,/LEDb.2*%
X9175000Y-9750000D03*
%TO.P,R11,2*%
%TO.N,Net-(D11-A)*%
X10825000Y-9750000D03*
%TD*%
D14*
%TO.P,H1,1,1*%
%TO.N,PE*%
X-13650000Y45000000D03*
X-13166726Y46166726D03*
X-13166726Y43833274D03*
X-12000000Y46650000D03*
D15*
X-12000000Y45000000D03*
D14*
X-12000000Y43350000D03*
X-10833274Y46166726D03*
X-10833274Y43833274D03*
X-10350000Y45000000D03*
%TD*%
D12*
%TO.P,R13,1*%
%TO.N,/LEDb.4*%
X9175000Y-16750000D03*
%TO.P,R13,2*%
%TO.N,Net-(D13-A)*%
X10825000Y-16750000D03*
%TD*%
D13*
%TO.P,D15,1,K*%
%TO.N,GND*%
X14000000Y-25315000D03*
%TO.P,D15,2,A*%
%TO.N,Net-(D15-A)*%
X14000000Y-23685000D03*
%TD*%
D11*
%TO.P,J3,1,Pin_1*%
%TO.N,GND*%
X-4444000Y-4500008D03*
%TO.P,J3,2,Pin_2*%
%TO.N,/LEDb.0*%
X-4444000Y-5500006D03*
%TO.P,J3,3,Pin_3*%
%TO.N,/LEDb.1*%
X-4444000Y-6500004D03*
%TO.P,J3,4,Pin_4*%
%TO.N,/LEDb.2*%
X-4444000Y-7500002D03*
%TO.P,J3,5,Pin_5*%
%TO.N,/LEDb.3*%
X-4444000Y-8500000D03*
%TO.P,J3,6,Pin_6*%
%TO.N,/LEDb.4*%
X-4444000Y-9500000D03*
%TO.P,J3,7,Pin_7*%
%TO.N,/LEDb.5*%
X-4444000Y-10500000D03*
%TO.P,J3,8,Pin_8*%
%TO.N,/LEDb.6*%
X-4444000Y-11500000D03*
%TO.P,J3,9,Pin_9*%
%TO.N,/LEDb.7*%
X-4444000Y-12499998D03*
%TO.P,J3,10,Pin_10*%
%TO.N,/LEDc.0*%
X-4444000Y-13499996D03*
%TO.P,J3,11,Pin_11*%
%TO.N,/LEDc.1*%
X-4444000Y-14499994D03*
%TO.P,J3,12,Pin_11*%
%TO.N,GND*%
X-4444000Y-15499992D03*
D10*
%TO.P,J3,13,Pin_11*%
X-6614001Y-2149997D03*
X-6614001Y-17850003D03*
%TD*%
D14*
%TO.P,H3,1,1*%
%TO.N,PE*%
X10350000Y-45000000D03*
X10833274Y-43833274D03*
X10833274Y-46166726D03*
X12000000Y-43350000D03*
D15*
X12000000Y-45000000D03*
D14*
X12000000Y-46650000D03*
X13166726Y-43833274D03*
X13166726Y-46166726D03*
X13650000Y-45000000D03*
%TD*%
D13*
%TO.P,D18,1,K*%
%TO.N,GND*%
X14000000Y-36315000D03*
%TO.P,D18,2,A*%
%TO.N,Net-(D18-A)*%
X14000000Y-34685000D03*
%TD*%
D14*
%TO.P,H2,1,1*%
%TO.N,PE*%
X10350000Y45000000D03*
X10833274Y46166726D03*
X10833274Y43833274D03*
X12000000Y46650000D03*
D15*
X12000000Y45000000D03*
D14*
X12000000Y43350000D03*
X13166726Y46166726D03*
X13166726Y43833274D03*
X13650000Y45000000D03*
%TD*%
D11*
%TO.P,J2,1,Pin_1*%
%TO.N,GND*%
X-4444000Y15499992D03*
%TO.P,J2,2,Pin_2*%
%TO.N,/LEDa.0*%
X-4444000Y14499994D03*
%TO.P,J2,3,Pin_3*%
%TO.N,/LEDa.1*%
X-4444000Y13499996D03*
%TO.P,J2,4,Pin_4*%
%TO.N,/LEDa.2*%
X-4444000Y12499998D03*
%TO.P,J2,5,Pin_5*%
%TO.N,/LEDa.3*%
X-4444000Y11500000D03*
%TO.P,J2,6,Pin_6*%
%TO.N,/LEDa.4*%
X-4444000Y10500000D03*
%TO.P,J2,7,Pin_7*%
%TO.N,/LEDa.5*%
X-4444000Y9500000D03*
%TO.P,J2,8,Pin_8*%
%TO.N,/LEDa.6*%
X-4444000Y8500000D03*
%TO.P,J2,9,Pin_9*%
%TO.N,/LEDa.7*%
X-4444000Y7500002D03*
%TO.P,J2,10,Pin_10*%
%TO.N,unconnected-(J2-Pin_10-Pad10)*%
X-4444000Y6500004D03*
%TO.P,J2,11,Pin_11*%
%TO.N,unconnected-(J2-Pin_11-Pad11)*%
X-4444000Y5500006D03*
%TO.P,J2,12,Pin_11*%
%TO.N,GND*%
X-4444000Y4500008D03*
D10*
%TO.P,J2,13,Pin_11*%
X-6614001Y17850003D03*
X-6614001Y2149997D03*
%TD*%
D13*
%TO.P,D14,1,K*%
%TO.N,GND*%
X14000000Y-21815000D03*
%TO.P,D14,2,A*%
%TO.N,Net-(D14-A)*%
X14000000Y-20185000D03*
%TD*%
D11*
%TO.P,J4,1,Pin_1*%
%TO.N,GND*%
X-4444000Y-24500008D03*
%TO.P,J4,2,Pin_2*%
%TO.N,/LEDb.0*%
X-4444000Y-25500006D03*
%TO.P,J4,3,Pin_3*%
%TO.N,/LEDb.1*%
X-4444000Y-26500004D03*
%TO.P,J4,4,Pin_4*%
%TO.N,/LEDb.2*%
X-4444000Y-27500002D03*
%TO.P,J4,5,Pin_5*%
%TO.N,/LEDb.3*%
X-4444000Y-28500000D03*
%TO.P,J4,6,Pin_6*%
%TO.N,/LEDb.4*%
X-4444000Y-29500000D03*
%TO.P,J4,7,Pin_7*%
%TO.N,/LEDb.5*%
X-4444000Y-30500000D03*
%TO.P,J4,8,Pin_8*%
%TO.N,/LEDb.6*%
X-4444000Y-31500000D03*
%TO.P,J4,9,Pin_9*%
%TO.N,/LEDb.7*%
X-4444000Y-32499998D03*
%TO.P,J4,10,Pin_10*%
%TO.N,/LEDc.0*%
X-4444000Y-33499996D03*
%TO.P,J4,11,Pin_11*%
%TO.N,/LEDc.1*%
X-4444000Y-34499994D03*
%TO.P,J4,12,Pin_11*%
%TO.N,GND*%
X-4444000Y-35499992D03*
D10*
%TO.P,J4,13,Pin_11*%
X-6614001Y-22149997D03*
X-6614001Y-37850003D03*
%TD*%
D13*
%TO.P,D13,1,K*%
%TO.N,GND*%
X14000000Y-18315000D03*
%TO.P,D13,2,A*%
%TO.N,Net-(D13-A)*%
X14000000Y-16685000D03*
%TD*%
D16*
%TO.N,/LEDc.0*%
X9986504Y-32009286D03*
%TO.N,/LEDc.1*%
X9986504Y-35509286D03*
%TO.N,/LEDa.6*%
X9986504Y11990714D03*
%TO.N,/LEDa.1*%
X9986504Y29490714D03*
%TO.N,/LEDa.0*%
X9986504Y32990714D03*
%TO.N,/LEDa.5*%
X9986504Y15490714D03*
%TO.N,/LEDa.7*%
X9986504Y8490714D03*
%TO.N,/LEDa.4*%
X9986504Y18990714D03*
%TO.N,/LEDa.3*%
X9986504Y22490714D03*
%TO.N,/LEDa.2*%
X9986504Y25990714D03*
%TO.N,GND*%
X-7000000Y-24500000D03*
X-7000000Y-4500000D03*
X-7000000Y15500000D03*
X-7000000Y-15500000D03*
X-7000000Y35500000D03*
X-7000000Y24500000D03*
X-7000000Y-35500000D03*
X-7000000Y4500000D03*
%TO.N,/LEDa.2*%
X-7000000Y32500000D03*
X2000000Y32500000D03*
X-7000000Y12500000D03*
X2000000Y12500000D03*
%TO.N,/LEDa.3*%
X-7000000Y11500000D03*
X-7000000Y31500000D03*
X3000000Y31500000D03*
X3000000Y11500000D03*
%TO.N,/LEDa.4*%
X-7000000Y30500000D03*
X-7000000Y10500000D03*
X4000000Y10500000D03*
X4000000Y30500000D03*
%TO.N,/LEDa.7*%
X-7000000Y27500000D03*
X7000000Y7500000D03*
X7000000Y27500000D03*
X-7000000Y7500000D03*
%TO.N,/LEDa.5*%
X5000000Y29500000D03*
X5000000Y9500000D03*
X-7000000Y9500000D03*
X-7000000Y29500000D03*
%TO.N,/LEDa.0*%
X0Y14500000D03*
X-7000000Y14500000D03*
X-7000000Y34500000D03*
X0Y34500000D03*
%TO.N,/LEDa.1*%
X1000000Y13500000D03*
X-7000000Y13500000D03*
X1000000Y33500000D03*
X-7000000Y33500000D03*
%TO.N,/LEDa.6*%
X6000000Y28500000D03*
X-7000000Y8500000D03*
X-7000000Y28500000D03*
X6000000Y8500000D03*
%TO.N,/LEDb.6*%
X4000000Y-31500000D03*
X4000000Y-11500000D03*
X-7000000Y-31500000D03*
X-7000000Y-11500000D03*
X9986504Y-24509286D03*
%TO.N,/LEDc.0*%
X6000000Y-33500000D03*
X6000000Y-13500000D03*
X-7000000Y-33500000D03*
X-7000000Y-13500000D03*
%TO.N,/LEDb.0*%
X-7000000Y-5500000D03*
X-2000000Y-5500000D03*
X-7000000Y-25500000D03*
X9986504Y-3509286D03*
X-2000000Y-25500000D03*
%TO.N,/LEDb.2*%
X-7000000Y-27500000D03*
X0Y-7500000D03*
X-7000000Y-7500000D03*
X0Y-27500000D03*
X9986504Y-10509286D03*
%TO.N,/LEDb.5*%
X-7000000Y-30500000D03*
X3000000Y-10500000D03*
X3000000Y-30500000D03*
X9986504Y-21009286D03*
X-7000000Y-10500000D03*
%TO.N,/LEDb.1*%
X-1000000Y-6500000D03*
X-7000000Y-6500000D03*
X-7000000Y-26500000D03*
X-1000000Y-26500000D03*
X9986504Y-7009286D03*
%TO.N,/LEDc.1*%
X-7000000Y-14500000D03*
X-7000000Y-34500000D03*
X7000000Y-34500000D03*
X7000000Y-14500000D03*
%TO.N,/LEDb.4*%
X-7000000Y-29500000D03*
X2000000Y-9500000D03*
X-7000000Y-9500000D03*
X9986504Y-17509286D03*
X2000000Y-29500000D03*
%TO.N,/LEDb.7*%
X5000000Y-32500000D03*
X9986504Y-28009286D03*
X-7000000Y-32500000D03*
X-7000000Y-12500000D03*
X5000000Y-12500000D03*
%TO.N,/LEDb.3*%
X-7000000Y-28500000D03*
X9986504Y-14009286D03*
X-7000000Y-8500000D03*
X1000000Y-8500000D03*
X1000000Y-28500000D03*
%TD*%
D17*
%TO.N,/LEDc.1*%
X9175000Y-34750000D02*
X9227218Y-34750000D01*
X9227218Y-34750000D02*
X9986504Y-35509286D01*
%TO.N,/LEDc.0*%
X9175000Y-31250000D02*
X9227218Y-31250000D01*
X9227218Y-31250000D02*
X9986504Y-32009286D01*
%TO.N,Net-(D18-A)*%
X10825000Y-34750000D02*
X13935000Y-34750000D01*
%TO.N,Net-(D17-A)*%
X10825000Y-31250000D02*
X13935000Y-31250000D01*
%TO.N,Net-(D16-A)*%
X10825000Y-27250000D02*
X13935000Y-27250000D01*
%TO.N,Net-(D15-A)*%
X10825000Y-23750000D02*
X13935000Y-23750000D01*
%TO.N,Net-(D14-A)*%
X10825000Y-20250000D02*
X13935000Y-20250000D01*
%TO.N,Net-(D13-A)*%
X10825000Y-16750000D02*
X13935000Y-16750000D01*
%TO.N,Net-(D12-A)*%
X10825000Y-13250000D02*
X13935000Y-13250000D01*
%TO.N,/LEDb.3*%
X9175000Y-13250000D02*
X9227218Y-13250000D01*
X9227218Y-13250000D02*
X9986504Y-14009286D01*
%TO.N,/LEDb.0*%
X9175000Y-2750000D02*
X9227218Y-2750000D01*
X9227218Y-2750000D02*
X9986504Y-3509286D01*
%TO.N,/LEDb.1*%
X9175000Y-6250000D02*
X9227218Y-6250000D01*
X9227218Y-6250000D02*
X9986504Y-7009286D01*
%TO.N,/LEDb.2*%
X9175000Y-9750000D02*
X9227218Y-9750000D01*
X9227218Y-9750000D02*
X9986504Y-10509286D01*
%TO.N,Net-(D11-A)*%
X10825000Y-9750000D02*
X13935000Y-9750000D01*
%TO.N,Net-(D10-A)*%
X10825000Y-6250000D02*
X13935000Y-6250000D01*
%TO.N,Net-(D9-A)*%
X10825000Y-2750000D02*
X13935000Y-2750000D01*
%TO.N,/LEDb.7*%
X9986504Y-28009286D02*
X9227218Y-27250000D01*
X9227218Y-27250000D02*
X9175000Y-27250000D01*
%TO.N,/LEDb.6*%
X9986504Y-24509286D02*
X9227218Y-23750000D01*
X9227218Y-23750000D02*
X9175000Y-23750000D01*
%TO.N,/LEDb.5*%
X9986504Y-21009286D02*
X9227218Y-20250000D01*
X9227218Y-20250000D02*
X9175000Y-20250000D01*
%TO.N,/LEDb.4*%
X9986504Y-17509286D02*
X9227218Y-16750000D01*
X9227218Y-16750000D02*
X9175000Y-16750000D01*
%TO.N,/LEDa.7*%
X9227218Y9250000D02*
X9175000Y9250000D01*
X9986504Y8490714D02*
X9227218Y9250000D01*
%TO.N,/LEDa.0*%
X9986504Y32990714D02*
X9227218Y33750000D01*
X9227218Y33750000D02*
X9175000Y33750000D01*
%TO.N,/LEDa.1*%
X9227218Y30250000D02*
X9175000Y30250000D01*
X9986504Y29490714D02*
X9227218Y30250000D01*
%TO.N,/LEDa.2*%
X9986504Y25990714D02*
X9227218Y26750000D01*
X9227218Y26750000D02*
X9175000Y26750000D01*
%TO.N,/LEDa.3*%
X9227218Y23250000D02*
X9175000Y23250000D01*
X9986504Y22490714D02*
X9227218Y23250000D01*
%TO.N,/LEDa.4*%
X9986504Y18990714D02*
X9227218Y19750000D01*
X9227218Y19750000D02*
X9175000Y19750000D01*
%TO.N,/LEDa.5*%
X9986504Y15490714D02*
X9227218Y16250000D01*
X9227218Y16250000D02*
X9175000Y16250000D01*
%TO.N,/LEDa.6*%
X9986504Y11990714D02*
X9227218Y12750000D01*
X9227218Y12750000D02*
X9175000Y12750000D01*
%TO.N,Net-(D8-A)*%
X10825000Y9250000D02*
X13935000Y9250000D01*
%TO.N,Net-(D7-A)*%
X10825000Y12750000D02*
X13935000Y12750000D01*
%TO.N,Net-(D6-A)*%
X10825000Y16250000D02*
X13935000Y16250000D01*
%TO.N,Net-(D5-A)*%
X10825000Y19750000D02*
X13935000Y19750000D01*
%TO.N,Net-(D4-A)*%
X10825000Y23250000D02*
X13935000Y23250000D01*
%TO.N,Net-(D3-A)*%
X10825000Y26750000D02*
X13935000Y26750000D01*
%TO.N,Net-(D2-A)*%
X10825000Y30250000D02*
X13935000Y30250000D01*
%TO.N,Net-(D1-A)*%
X10825000Y33750000D02*
X13935000Y33750000D01*
D18*
%TO.N,Net-(D8-A)*%
X13935000Y9250000D02*
X14000000Y9315000D01*
%TO.N,Net-(D7-A)*%
X13935000Y12750000D02*
X14000000Y12815000D01*
%TO.N,Net-(D6-A)*%
X13935000Y16250000D02*
X14000000Y16315000D01*
%TO.N,Net-(D5-A)*%
X13935000Y19750000D02*
X14000000Y19815000D01*
%TO.N,Net-(D4-A)*%
X13935000Y23250000D02*
X14000000Y23315000D01*
%TO.N,Net-(D3-A)*%
X13935000Y26750000D02*
X14000000Y26815000D01*
%TO.N,Net-(D2-A)*%
X13935000Y30250000D02*
X14000000Y30315000D01*
%TO.N,Net-(D1-A)*%
X13935000Y33750000D02*
X14000000Y33815000D01*
%TO.N,GND*%
X13935000Y32000000D02*
X14000000Y32065000D01*
%TO.N,Net-(D9-A)*%
X13935000Y-2750000D02*
X14000000Y-2685000D01*
%TO.N,Net-(D10-A)*%
X13935000Y-6250000D02*
X14000000Y-6185000D01*
%TO.N,Net-(D11-A)*%
X13935000Y-9750000D02*
X14000000Y-9685000D01*
%TO.N,Net-(D12-A)*%
X13935000Y-13250000D02*
X14000000Y-13185000D01*
%TO.N,Net-(D13-A)*%
X13935000Y-16750000D02*
X14000000Y-16685000D01*
%TO.N,Net-(D14-A)*%
X13935000Y-20250000D02*
X14000000Y-20185000D01*
%TO.N,Net-(D15-A)*%
X13935000Y-23750000D02*
X14000000Y-23685000D01*
%TO.N,Net-(D16-A)*%
X13935000Y-27250000D02*
X14000000Y-27185000D01*
%TO.N,Net-(D17-A)*%
X13935000Y-31250000D02*
X14000000Y-31185000D01*
%TO.N,Net-(D18-A)*%
X13935000Y-34750000D02*
X14000000Y-34685000D01*
D17*
%TO.N,/LEDa.2*%
X2000000Y32500000D02*
X2000000Y12500000D01*
X-7000000Y32500000D02*
X-4444006Y32500000D01*
X-7000000Y12500000D02*
X-4444006Y12500000D01*
%TO.N,/LEDa.3*%
X3000000Y31500000D02*
X3000000Y11500000D01*
X-7000000Y11500000D02*
X-4444006Y11500000D01*
X-7000000Y31500000D02*
X-4444006Y31500000D01*
%TO.N,/LEDa.4*%
X4000000Y30500000D02*
X4000000Y10500000D01*
X-7000000Y30500000D02*
X-4444006Y30500000D01*
X-7000000Y10500000D02*
X-4444006Y10500000D01*
%TO.N,/LEDa.7*%
X-7000000Y27500000D02*
X-4444006Y27500000D01*
X7000000Y27500000D02*
X7000000Y7500000D01*
X-7000000Y7500000D02*
X-4444006Y7500000D01*
%TO.N,/LEDa.5*%
X-7000000Y9500000D02*
X-4444006Y9500000D01*
X-7000000Y29500000D02*
X-4444006Y29500000D01*
X5000000Y29500000D02*
X5000000Y9500000D01*
%TO.N,/LEDa.0*%
X-7000000Y14500000D02*
X-4444006Y14500000D01*
X-4444006Y34500000D02*
X-4444000Y34499994D01*
X0Y34500000D02*
X0Y14500000D01*
X-7000000Y34500000D02*
X-4444006Y34500000D01*
%TO.N,/LEDa.1*%
X1000000Y33500000D02*
X1000000Y13500000D01*
X-7000000Y13500000D02*
X-4444006Y13500000D01*
X-7000000Y33500000D02*
X-4444006Y33500000D01*
%TO.N,/LEDa.6*%
X-7000000Y8500000D02*
X-4444006Y8500000D01*
X-7000000Y28500000D02*
X-4444006Y28500000D01*
X6000000Y28500000D02*
X6000000Y8500000D01*
%TO.N,/LEDb.6*%
X4000000Y-11500000D02*
X4000000Y-31500000D01*
X-7000000Y-31500000D02*
X-4444006Y-31500000D01*
X-7000000Y-11500000D02*
X-4444006Y-11500000D01*
%TO.N,/LEDc.0*%
X6000000Y-13500000D02*
X6000000Y-33500000D01*
X-7000000Y-33500000D02*
X-4444006Y-33500000D01*
X-7000000Y-13500000D02*
X-4444006Y-13500000D01*
%TO.N,/LEDb.0*%
X-2000000Y-5500000D02*
X-2000000Y-25500000D01*
X-7000000Y-5500000D02*
X-4444006Y-5500000D01*
X-7000000Y-25500000D02*
X-4444006Y-25500000D01*
%TO.N,/LEDb.2*%
X0Y-7500000D02*
X0Y-27500000D01*
X-7000000Y-27500000D02*
X-4444006Y-27500000D01*
X-7000000Y-7500000D02*
X-4444006Y-7500000D01*
%TO.N,/LEDb.5*%
X-7000000Y-10500000D02*
X-4444006Y-10500000D01*
X-7000000Y-30500000D02*
X-4444006Y-30500000D01*
X3000000Y-10500000D02*
X3000000Y-30500000D01*
%TO.N,/LEDb.1*%
X-7000000Y-26500000D02*
X-4444006Y-26500000D01*
X-7000000Y-6500000D02*
X-4444006Y-6500000D01*
X-1000000Y-6500000D02*
X-1000000Y-26500000D01*
%TO.N,/LEDc.1*%
X7000000Y-14500000D02*
X7000000Y-34500000D01*
X-7000000Y-14500000D02*
X-4444006Y-14500000D01*
X-7000000Y-34500000D02*
X-4444006Y-34500000D01*
%TO.N,/LEDb.4*%
X-7000000Y-9500000D02*
X-4444006Y-9500000D01*
X2000000Y-9500000D02*
X2000000Y-29500000D01*
X-7000000Y-29500000D02*
X-4444006Y-29500000D01*
%TO.N,/LEDb.7*%
X-7000000Y-32500000D02*
X-4444006Y-32500000D01*
X5000000Y-12500000D02*
X5000000Y-32500000D01*
X-7000000Y-12500000D02*
X-4444006Y-12500000D01*
%TO.N,/LEDb.3*%
X-7000000Y-28500000D02*
X-4444006Y-28500000D01*
X-7000000Y-8500000D02*
X-4444006Y-8500000D01*
X1000000Y-8500000D02*
X1000000Y-28500000D01*
%TD*%
%TA.AperFunction,Conductor*%
%TO.N,GND*%
G36*
X-6370962Y37830318D02*
G01*
X-6325207Y37777514D01*
X-6314001Y37726003D01*
X-6314001Y36054603D01*
X-5963396Y36054603D01*
X-5896357Y36034918D01*
X-5850602Y35982114D01*
X-5840107Y35917347D01*
X-5845700Y35865337D01*
X-5845700Y35799992D01*
X-4744000Y35799992D01*
X-4144000Y35799992D01*
X-3042300Y35799992D01*
X-3042300Y35865320D01*
X-3042301Y35865337D01*
X-3048702Y35924865D01*
X-3048704Y35924872D01*
X-3098946Y36059579D01*
X-3098950Y36059586D01*
X-3185110Y36174680D01*
X-3185113Y36174683D01*
X-3300207Y36260843D01*
X-3300214Y36260847D01*
X-3434921Y36311089D01*
X-3434928Y36311091D01*
X-3494456Y36317492D01*
X-4144000Y36317492D01*
X-4144000Y35799992D01*
X-4744000Y35799992D01*
X-4744000Y36323492D01*
X-4724315Y36390531D01*
X-4672868Y36435657D01*
X-4620388Y36460394D01*
X-4615403Y36506765D01*
X-4615401Y36506784D01*
X-4615401Y37370500D01*
X-4595716Y37437539D01*
X-4542912Y37483294D01*
X-4491401Y37494500D01*
X14371208Y37494500D01*
X14438247Y37474815D01*
X14484002Y37422011D01*
X14495208Y37370500D01*
X14495208Y34815900D01*
X14475523Y34748861D01*
X14422719Y34703106D01*
X14355210Y34693400D01*
X14355196Y34693261D01*
X14354654Y34693320D01*
X14353561Y34693162D01*
X14350213Y34693797D01*
X14347484Y34694091D01*
X14347483Y34694091D01*
X14287873Y34700500D01*
X14287863Y34700500D01*
X13712129Y34700500D01*
X13712123Y34700499D01*
X13652516Y34694092D01*
X13517671Y34643798D01*
X13517664Y34643794D01*
X13402457Y34557549D01*
X13402451Y34557543D01*
X13359515Y34500188D01*
X13303581Y34458318D01*
X13260249Y34450500D01*
X11641520Y34450500D01*
X11574481Y34470185D01*
X11553839Y34486819D01*
X11460188Y34580470D01*
X11371379Y34634157D01*
X11314606Y34668478D01*
X11152196Y34719086D01*
X11152194Y34719087D01*
X11152192Y34719087D01*
X11102778Y34723577D01*
X11081616Y34725500D01*
X10568384Y34725500D01*
X10549145Y34723752D01*
X10497807Y34719087D01*
X10335393Y34668478D01*
X10189811Y34580470D01*
X10189810Y34580469D01*
X10087681Y34478339D01*
X10026358Y34444854D01*
X9956666Y34449838D01*
X9912319Y34478339D01*
X9810188Y34580470D01*
X9721379Y34634157D01*
X9664606Y34668478D01*
X9502196Y34719086D01*
X9502194Y34719087D01*
X9502192Y34719087D01*
X9452778Y34723577D01*
X9431616Y34725500D01*
X8918384Y34725500D01*
X8899145Y34723752D01*
X8847807Y34719087D01*
X8685393Y34668478D01*
X8539811Y34580470D01*
X8419530Y34460189D01*
X8331522Y34314607D01*
X8280913Y34152193D01*
X8274500Y34081614D01*
X8274500Y33418387D01*
X8280913Y33347808D01*
X8280913Y33347806D01*
X8280914Y33347804D01*
X8331522Y33185394D01*
X8415386Y33046666D01*
X8419530Y33039812D01*
X8539811Y32919531D01*
X8539813Y32919530D01*
X8539815Y32919528D01*
X8685394Y32831522D01*
X8847804Y32780914D01*
X8918384Y32774500D01*
X9018515Y32774500D01*
X9085554Y32754815D01*
X9131309Y32702011D01*
X9133076Y32697952D01*
X9188487Y32564174D01*
X9188494Y32564161D01*
X9287039Y32416680D01*
X9287042Y32416676D01*
X9412465Y32291253D01*
X9412469Y32291250D01*
X9559950Y32192705D01*
X9559963Y32192698D01*
X9682867Y32141791D01*
X9723838Y32124820D01*
X9723840Y32124820D01*
X9723845Y32124818D01*
X9897808Y32090215D01*
X9897811Y32090214D01*
X9897813Y32090214D01*
X10075197Y32090214D01*
X10075198Y32090215D01*
X10133186Y32101750D01*
X10249162Y32124818D01*
X10249165Y32124820D01*
X10249170Y32124820D01*
X10413051Y32192701D01*
X10560539Y32291250D01*
X10685968Y32416679D01*
X10784517Y32564167D01*
X10839932Y32697952D01*
X10883772Y32752356D01*
X10950066Y32774421D01*
X10954493Y32774500D01*
X11081613Y32774500D01*
X11081616Y32774500D01*
X11152196Y32780914D01*
X11314606Y32831522D01*
X11460185Y32919528D01*
X11497319Y32956662D01*
X11553839Y33013181D01*
X11615162Y33046666D01*
X11641520Y33049500D01*
X13246651Y33049500D01*
X13313690Y33029815D01*
X13359445Y32977011D01*
X13369389Y32907853D01*
X13345917Y32851188D01*
X13316647Y32812090D01*
X13316645Y32812087D01*
X13266403Y32677380D01*
X13266401Y32677373D01*
X13260000Y32617845D01*
X13260000Y32425000D01*
X13876000Y32425000D01*
X13884685Y32422450D01*
X13893647Y32423738D01*
X13917687Y32412760D01*
X13943039Y32405315D01*
X13948966Y32398475D01*
X13957203Y32394713D01*
X13971492Y32372479D01*
X13988794Y32352511D01*
X13991081Y32341997D01*
X13994977Y32335935D01*
X14000000Y32301000D01*
X14000000Y32069000D01*
X13980315Y32001961D01*
X13927511Y31956206D01*
X13876000Y31945000D01*
X13260000Y31945000D01*
X13260000Y31752156D01*
X13266401Y31692628D01*
X13266403Y31692621D01*
X13316645Y31557914D01*
X13316649Y31557907D01*
X13402809Y31442813D01*
X13402812Y31442810D01*
X13525011Y31351331D01*
X13523365Y31349134D01*
X13562782Y31309724D01*
X13577640Y31241453D01*
X13553229Y31175986D01*
X13523766Y31150452D01*
X13524769Y31149112D01*
X13402457Y31057549D01*
X13402451Y31057543D01*
X13359515Y31000188D01*
X13303581Y30958318D01*
X13260249Y30950500D01*
X11641520Y30950500D01*
X11574481Y30970185D01*
X11553839Y30986819D01*
X11460188Y31080470D01*
X11371379Y31134157D01*
X11314606Y31168478D01*
X11152196Y31219086D01*
X11152194Y31219087D01*
X11152192Y31219087D01*
X11102778Y31223577D01*
X11081616Y31225500D01*
X10568384Y31225500D01*
X10549145Y31223752D01*
X10497807Y31219087D01*
X10335393Y31168478D01*
X10189811Y31080470D01*
X10189810Y31080469D01*
X10087681Y30978339D01*
X10026358Y30944854D01*
X9956666Y30949838D01*
X9912319Y30978339D01*
X9810188Y31080470D01*
X9721379Y31134157D01*
X9664606Y31168478D01*
X9502196Y31219086D01*
X9502194Y31219087D01*
X9502192Y31219087D01*
X9452778Y31223577D01*
X9431616Y31225500D01*
X8918384Y31225500D01*
X8899145Y31223752D01*
X8847807Y31219087D01*
X8685393Y31168478D01*
X8539811Y31080470D01*
X8419530Y30960189D01*
X8331522Y30814607D01*
X8280913Y30652193D01*
X8274500Y30581614D01*
X8274500Y29918387D01*
X8280913Y29847808D01*
X8280913Y29847806D01*
X8280914Y29847804D01*
X8331522Y29685394D01*
X8415386Y29546666D01*
X8419530Y29539812D01*
X8539811Y29419531D01*
X8539813Y29419530D01*
X8539815Y29419528D01*
X8685394Y29331522D01*
X8847804Y29280914D01*
X8918384Y29274500D01*
X9018515Y29274500D01*
X9085554Y29254815D01*
X9131309Y29202011D01*
X9133076Y29197952D01*
X9188487Y29064174D01*
X9188494Y29064161D01*
X9287039Y28916680D01*
X9287042Y28916676D01*
X9412465Y28791253D01*
X9412469Y28791250D01*
X9559950Y28692705D01*
X9559963Y28692698D01*
X9682867Y28641791D01*
X9723838Y28624820D01*
X9723840Y28624820D01*
X9723845Y28624818D01*
X9897808Y28590215D01*
X9897811Y28590214D01*
X9897813Y28590214D01*
X10075197Y28590214D01*
X10075198Y28590215D01*
X10133186Y28601750D01*
X10249162Y28624818D01*
X10249165Y28624820D01*
X10249170Y28624820D01*
X10413051Y28692701D01*
X10560539Y28791250D01*
X10685968Y28916679D01*
X10784517Y29064167D01*
X10788605Y29074035D01*
X10839932Y29197952D01*
X10883772Y29252356D01*
X10950066Y29274421D01*
X10954493Y29274500D01*
X11081613Y29274500D01*
X11081616Y29274500D01*
X11152196Y29280914D01*
X11314606Y29331522D01*
X11460185Y29419528D01*
X11476566Y29435909D01*
X11553839Y29513181D01*
X11615162Y29546666D01*
X11641520Y29549500D01*
X13246651Y29549500D01*
X13313690Y29529815D01*
X13359445Y29477011D01*
X13369389Y29407853D01*
X13345917Y29351188D01*
X13316647Y29312090D01*
X13316645Y29312087D01*
X13266403Y29177380D01*
X13266401Y29177373D01*
X13260000Y29117845D01*
X13260000Y28925000D01*
X13876000Y28925000D01*
X13884685Y28922450D01*
X13893647Y28923738D01*
X13917687Y28912760D01*
X13943039Y28905315D01*
X13948966Y28898475D01*
X13957203Y28894713D01*
X13971492Y28872479D01*
X13988794Y28852511D01*
X13991081Y28841997D01*
X13994977Y28835935D01*
X14000000Y28801000D01*
X14000000Y28569000D01*
X13980315Y28501961D01*
X13927511Y28456206D01*
X13876000Y28445000D01*
X13260000Y28445000D01*
X13260000Y28252156D01*
X13266401Y28192628D01*
X13266403Y28192621D01*
X13316645Y28057914D01*
X13316649Y28057907D01*
X13402809Y27942813D01*
X13402812Y27942810D01*
X13525011Y27851331D01*
X13523365Y27849134D01*
X13562782Y27809724D01*
X13577640Y27741453D01*
X13553229Y27675986D01*
X13523766Y27650452D01*
X13524769Y27649112D01*
X13402457Y27557549D01*
X13402451Y27557543D01*
X13359515Y27500188D01*
X13303581Y27458318D01*
X13260249Y27450500D01*
X11641520Y27450500D01*
X11574481Y27470185D01*
X11553839Y27486819D01*
X11460188Y27580470D01*
X11371379Y27634157D01*
X11314606Y27668478D01*
X11152196Y27719086D01*
X11152194Y27719087D01*
X11152192Y27719087D01*
X11102778Y27723577D01*
X11081616Y27725500D01*
X10568384Y27725500D01*
X10549145Y27723752D01*
X10497807Y27719087D01*
X10335393Y27668478D01*
X10189811Y27580470D01*
X10189810Y27580469D01*
X10087681Y27478339D01*
X10026358Y27444854D01*
X9956666Y27449838D01*
X9912319Y27478339D01*
X9810188Y27580470D01*
X9721379Y27634157D01*
X9664606Y27668478D01*
X9502196Y27719086D01*
X9502194Y27719087D01*
X9502192Y27719087D01*
X9452778Y27723577D01*
X9431616Y27725500D01*
X8918384Y27725500D01*
X8899145Y27723752D01*
X8847807Y27719087D01*
X8685393Y27668478D01*
X8539811Y27580470D01*
X8419530Y27460189D01*
X8331522Y27314607D01*
X8280913Y27152193D01*
X8274500Y27081614D01*
X8274500Y26418387D01*
X8280913Y26347808D01*
X8280913Y26347806D01*
X8280914Y26347804D01*
X8331522Y26185394D01*
X8417399Y26043336D01*
X8419530Y26039812D01*
X8539811Y25919531D01*
X8539813Y25919530D01*
X8539815Y25919528D01*
X8685394Y25831522D01*
X8847804Y25780914D01*
X8918384Y25774500D01*
X9018515Y25774500D01*
X9085554Y25754815D01*
X9131309Y25702011D01*
X9133076Y25697952D01*
X9188487Y25564174D01*
X9188494Y25564161D01*
X9287039Y25416680D01*
X9287042Y25416676D01*
X9412465Y25291253D01*
X9412469Y25291250D01*
X9559950Y25192705D01*
X9559963Y25192698D01*
X9682867Y25141791D01*
X9723838Y25124820D01*
X9723840Y25124820D01*
X9723845Y25124818D01*
X9897808Y25090215D01*
X9897811Y25090214D01*
X9897813Y25090214D01*
X10075197Y25090214D01*
X10075198Y25090215D01*
X10133186Y25101750D01*
X10249162Y25124818D01*
X10249165Y25124820D01*
X10249170Y25124820D01*
X10413051Y25192701D01*
X10560539Y25291250D01*
X10685968Y25416679D01*
X10784517Y25564167D01*
X10839932Y25697952D01*
X10883772Y25752356D01*
X10950066Y25774421D01*
X10954493Y25774500D01*
X11081613Y25774500D01*
X11081616Y25774500D01*
X11152196Y25780914D01*
X11314606Y25831522D01*
X11460185Y25919528D01*
X11497331Y25956674D01*
X11553839Y26013181D01*
X11615162Y26046666D01*
X11641520Y26049500D01*
X13246651Y26049500D01*
X13313690Y26029815D01*
X13359445Y25977011D01*
X13369389Y25907853D01*
X13345917Y25851188D01*
X13316647Y25812090D01*
X13316645Y25812087D01*
X13266403Y25677380D01*
X13266401Y25677373D01*
X13260000Y25617845D01*
X13260000Y25425000D01*
X13876000Y25425000D01*
X13884685Y25422450D01*
X13893647Y25423738D01*
X13917687Y25412760D01*
X13943039Y25405315D01*
X13948966Y25398475D01*
X13957203Y25394713D01*
X13971492Y25372479D01*
X13988794Y25352511D01*
X13991081Y25341997D01*
X13994977Y25335935D01*
X14000000Y25301000D01*
X14000000Y25069000D01*
X13980315Y25001961D01*
X13927511Y24956206D01*
X13876000Y24945000D01*
X13260000Y24945000D01*
X13260000Y24752156D01*
X13266401Y24692628D01*
X13266403Y24692621D01*
X13316645Y24557914D01*
X13316649Y24557907D01*
X13402809Y24442813D01*
X13402812Y24442810D01*
X13525011Y24351331D01*
X13523365Y24349134D01*
X13562782Y24309724D01*
X13577640Y24241453D01*
X13553229Y24175986D01*
X13523766Y24150452D01*
X13524769Y24149112D01*
X13402457Y24057549D01*
X13402451Y24057543D01*
X13359515Y24000188D01*
X13303581Y23958318D01*
X13260249Y23950500D01*
X11641520Y23950500D01*
X11574481Y23970185D01*
X11553839Y23986819D01*
X11460188Y24080470D01*
X11371379Y24134157D01*
X11314606Y24168478D01*
X11152196Y24219086D01*
X11152194Y24219087D01*
X11152192Y24219087D01*
X11102778Y24223577D01*
X11081616Y24225500D01*
X10568384Y24225500D01*
X10549145Y24223752D01*
X10497807Y24219087D01*
X10335393Y24168478D01*
X10189811Y24080470D01*
X10189810Y24080469D01*
X10087681Y23978339D01*
X10026358Y23944854D01*
X9956666Y23949838D01*
X9912319Y23978339D01*
X9810188Y24080470D01*
X9721379Y24134157D01*
X9664606Y24168478D01*
X9502196Y24219086D01*
X9502194Y24219087D01*
X9502192Y24219087D01*
X9452778Y24223577D01*
X9431616Y24225500D01*
X8918384Y24225500D01*
X8899145Y24223752D01*
X8847807Y24219087D01*
X8685393Y24168478D01*
X8539811Y24080470D01*
X8419530Y23960189D01*
X8331522Y23814607D01*
X8280913Y23652193D01*
X8274500Y23581614D01*
X8274500Y22918387D01*
X8280913Y22847808D01*
X8280913Y22847806D01*
X8280914Y22847804D01*
X8331522Y22685394D01*
X8415386Y22546666D01*
X8419530Y22539812D01*
X8539811Y22419531D01*
X8539813Y22419530D01*
X8539815Y22419528D01*
X8685394Y22331522D01*
X8847804Y22280914D01*
X8918384Y22274500D01*
X9018515Y22274500D01*
X9085554Y22254815D01*
X9131309Y22202011D01*
X9133076Y22197952D01*
X9188487Y22064174D01*
X9188494Y22064161D01*
X9287039Y21916680D01*
X9287042Y21916676D01*
X9412465Y21791253D01*
X9412469Y21791250D01*
X9559950Y21692705D01*
X9559963Y21692698D01*
X9682867Y21641791D01*
X9723838Y21624820D01*
X9723840Y21624820D01*
X9723845Y21624818D01*
X9897808Y21590215D01*
X9897811Y21590214D01*
X9897813Y21590214D01*
X10075197Y21590214D01*
X10075198Y21590215D01*
X10133186Y21601750D01*
X10249162Y21624818D01*
X10249165Y21624820D01*
X10249170Y21624820D01*
X10413051Y21692701D01*
X10560539Y21791250D01*
X10685968Y21916679D01*
X10784517Y22064167D01*
X10839932Y22197952D01*
X10883772Y22252356D01*
X10950066Y22274421D01*
X10954493Y22274500D01*
X11081613Y22274500D01*
X11081616Y22274500D01*
X11152196Y22280914D01*
X11314606Y22331522D01*
X11460185Y22419528D01*
X11490654Y22449997D01*
X11553839Y22513181D01*
X11615162Y22546666D01*
X11641520Y22549500D01*
X13246651Y22549500D01*
X13313690Y22529815D01*
X13359445Y22477011D01*
X13369389Y22407853D01*
X13345917Y22351188D01*
X13316647Y22312090D01*
X13316645Y22312087D01*
X13266403Y22177380D01*
X13266401Y22177373D01*
X13260000Y22117845D01*
X13260000Y21925000D01*
X13876000Y21925000D01*
X13884685Y21922450D01*
X13893647Y21923738D01*
X13917687Y21912760D01*
X13943039Y21905315D01*
X13948966Y21898475D01*
X13957203Y21894713D01*
X13971492Y21872479D01*
X13988794Y21852511D01*
X13991081Y21841997D01*
X13994977Y21835935D01*
X14000000Y21801000D01*
X14000000Y21569000D01*
X13980315Y21501961D01*
X13927511Y21456206D01*
X13876000Y21445000D01*
X13260000Y21445000D01*
X13260000Y21252156D01*
X13266401Y21192628D01*
X13266403Y21192621D01*
X13316645Y21057914D01*
X13316649Y21057907D01*
X13402809Y20942813D01*
X13402812Y20942810D01*
X13525011Y20851331D01*
X13523365Y20849134D01*
X13562782Y20809724D01*
X13577640Y20741453D01*
X13553229Y20675986D01*
X13523766Y20650452D01*
X13524769Y20649112D01*
X13402457Y20557549D01*
X13402451Y20557543D01*
X13359515Y20500188D01*
X13303581Y20458318D01*
X13260249Y20450500D01*
X11641520Y20450500D01*
X11574481Y20470185D01*
X11553839Y20486819D01*
X11460188Y20580470D01*
X11371379Y20634157D01*
X11314606Y20668478D01*
X11152196Y20719086D01*
X11152194Y20719087D01*
X11152192Y20719087D01*
X11102778Y20723577D01*
X11081616Y20725500D01*
X10568384Y20725500D01*
X10549145Y20723752D01*
X10497807Y20719087D01*
X10335393Y20668478D01*
X10189811Y20580470D01*
X10189810Y20580469D01*
X10087681Y20478339D01*
X10026358Y20444854D01*
X9956666Y20449838D01*
X9912319Y20478339D01*
X9810188Y20580470D01*
X9721379Y20634157D01*
X9664606Y20668478D01*
X9502196Y20719086D01*
X9502194Y20719087D01*
X9502192Y20719087D01*
X9452778Y20723577D01*
X9431616Y20725500D01*
X8918384Y20725500D01*
X8899145Y20723752D01*
X8847807Y20719087D01*
X8685393Y20668478D01*
X8539811Y20580470D01*
X8419530Y20460189D01*
X8331522Y20314607D01*
X8280913Y20152193D01*
X8274500Y20081614D01*
X8274500Y19418387D01*
X8280913Y19347808D01*
X8280913Y19347806D01*
X8280914Y19347804D01*
X8331522Y19185394D01*
X8415386Y19046666D01*
X8419530Y19039812D01*
X8539811Y18919531D01*
X8539813Y18919530D01*
X8539815Y18919528D01*
X8685394Y18831522D01*
X8847804Y18780914D01*
X8918384Y18774500D01*
X9018515Y18774500D01*
X9085554Y18754815D01*
X9131309Y18702011D01*
X9133076Y18697952D01*
X9188487Y18564174D01*
X9188494Y18564161D01*
X9287039Y18416680D01*
X9287042Y18416676D01*
X9412465Y18291253D01*
X9412469Y18291250D01*
X9559950Y18192705D01*
X9559963Y18192698D01*
X9663040Y18150003D01*
X9723838Y18124820D01*
X9723840Y18124820D01*
X9723845Y18124818D01*
X9897808Y18090215D01*
X9897811Y18090214D01*
X9897813Y18090214D01*
X10075197Y18090214D01*
X10075198Y18090215D01*
X10133186Y18101750D01*
X10249162Y18124818D01*
X10249165Y18124820D01*
X10249170Y18124820D01*
X10413051Y18192701D01*
X10560539Y18291250D01*
X10685968Y18416679D01*
X10784517Y18564167D01*
X10839932Y18697952D01*
X10883772Y18752356D01*
X10950066Y18774421D01*
X10954493Y18774500D01*
X11081613Y18774500D01*
X11081616Y18774500D01*
X11152196Y18780914D01*
X11314606Y18831522D01*
X11460185Y18919528D01*
X11476566Y18935909D01*
X11553839Y19013181D01*
X11615162Y19046666D01*
X11641520Y19049500D01*
X13246651Y19049500D01*
X13313690Y19029815D01*
X13359445Y18977011D01*
X13369389Y18907853D01*
X13345917Y18851188D01*
X13316647Y18812090D01*
X13316645Y18812087D01*
X13266403Y18677380D01*
X13266401Y18677373D01*
X13260000Y18617845D01*
X13260000Y18425000D01*
X13876000Y18425000D01*
X13884685Y18422450D01*
X13893647Y18423738D01*
X13917687Y18412760D01*
X13943039Y18405315D01*
X13948966Y18398475D01*
X13957203Y18394713D01*
X13971492Y18372479D01*
X13988794Y18352511D01*
X13991081Y18341997D01*
X13994977Y18335935D01*
X14000000Y18301000D01*
X14000000Y18069000D01*
X13980315Y18001961D01*
X13927511Y17956206D01*
X13876000Y17945000D01*
X13260000Y17945000D01*
X13260000Y17752156D01*
X13266401Y17692628D01*
X13266403Y17692621D01*
X13316645Y17557914D01*
X13316649Y17557907D01*
X13402809Y17442813D01*
X13402812Y17442810D01*
X13525011Y17351331D01*
X13523365Y17349134D01*
X13562782Y17309724D01*
X13577640Y17241453D01*
X13553229Y17175986D01*
X13523766Y17150452D01*
X13524769Y17149112D01*
X13402457Y17057549D01*
X13402451Y17057543D01*
X13359515Y17000188D01*
X13303581Y16958318D01*
X13260249Y16950500D01*
X11641520Y16950500D01*
X11574481Y16970185D01*
X11553839Y16986819D01*
X11460188Y17080470D01*
X11371379Y17134157D01*
X11314606Y17168478D01*
X11152196Y17219086D01*
X11152194Y17219087D01*
X11152192Y17219087D01*
X11102778Y17223577D01*
X11081616Y17225500D01*
X10568384Y17225500D01*
X10549145Y17223752D01*
X10497807Y17219087D01*
X10335393Y17168478D01*
X10189811Y17080470D01*
X10189810Y17080469D01*
X10087681Y16978339D01*
X10026358Y16944854D01*
X9956666Y16949838D01*
X9912319Y16978339D01*
X9810188Y17080470D01*
X9721379Y17134157D01*
X9664606Y17168478D01*
X9502196Y17219086D01*
X9502194Y17219087D01*
X9502192Y17219087D01*
X9452778Y17223577D01*
X9431616Y17225500D01*
X8918384Y17225500D01*
X8899145Y17223752D01*
X8847807Y17219087D01*
X8685393Y17168478D01*
X8539811Y17080470D01*
X8419530Y16960189D01*
X8331522Y16814607D01*
X8280913Y16652193D01*
X8274500Y16581614D01*
X8274500Y15918387D01*
X8280913Y15847808D01*
X8280913Y15847806D01*
X8280914Y15847804D01*
X8331522Y15685394D01*
X8415386Y15546666D01*
X8419530Y15539812D01*
X8539811Y15419531D01*
X8539813Y15419530D01*
X8539815Y15419528D01*
X8685394Y15331522D01*
X8847804Y15280914D01*
X8918384Y15274500D01*
X9018515Y15274500D01*
X9085554Y15254815D01*
X9131309Y15202011D01*
X9133076Y15197952D01*
X9188487Y15064174D01*
X9188494Y15064161D01*
X9287039Y14916680D01*
X9287042Y14916676D01*
X9412465Y14791253D01*
X9412469Y14791250D01*
X9559950Y14692705D01*
X9559963Y14692698D01*
X9682867Y14641791D01*
X9723838Y14624820D01*
X9723840Y14624820D01*
X9723845Y14624818D01*
X9897808Y14590215D01*
X9897811Y14590214D01*
X9897813Y14590214D01*
X10075197Y14590214D01*
X10075198Y14590215D01*
X10133186Y14601750D01*
X10249162Y14624818D01*
X10249165Y14624820D01*
X10249170Y14624820D01*
X10413051Y14692701D01*
X10560539Y14791250D01*
X10685968Y14916679D01*
X10784517Y15064167D01*
X10788605Y15074035D01*
X10839932Y15197952D01*
X10883772Y15252356D01*
X10950066Y15274421D01*
X10954493Y15274500D01*
X11081613Y15274500D01*
X11081616Y15274500D01*
X11152196Y15280914D01*
X11314606Y15331522D01*
X11460185Y15419528D01*
X11476566Y15435909D01*
X11553839Y15513181D01*
X11615162Y15546666D01*
X11641520Y15549500D01*
X13246651Y15549500D01*
X13313690Y15529815D01*
X13359445Y15477011D01*
X13369389Y15407853D01*
X13345917Y15351188D01*
X13316647Y15312090D01*
X13316645Y15312087D01*
X13266403Y15177380D01*
X13266401Y15177373D01*
X13260000Y15117845D01*
X13260000Y14925000D01*
X13876000Y14925000D01*
X13884685Y14922450D01*
X13893647Y14923738D01*
X13917687Y14912760D01*
X13943039Y14905315D01*
X13948966Y14898475D01*
X13957203Y14894713D01*
X13971492Y14872479D01*
X13988794Y14852511D01*
X13991081Y14841997D01*
X13994977Y14835935D01*
X14000000Y14801000D01*
X14000000Y14569000D01*
X13980315Y14501961D01*
X13927511Y14456206D01*
X13876000Y14445000D01*
X13260000Y14445000D01*
X13260000Y14252156D01*
X13266401Y14192628D01*
X13266403Y14192621D01*
X13316645Y14057914D01*
X13316649Y14057907D01*
X13402809Y13942813D01*
X13402812Y13942810D01*
X13525011Y13851331D01*
X13523365Y13849134D01*
X13562782Y13809724D01*
X13577640Y13741453D01*
X13553229Y13675986D01*
X13523766Y13650452D01*
X13524769Y13649112D01*
X13402457Y13557549D01*
X13402451Y13557543D01*
X13359515Y13500188D01*
X13303581Y13458318D01*
X13260249Y13450500D01*
X11641520Y13450500D01*
X11574481Y13470185D01*
X11553839Y13486819D01*
X11460188Y13580470D01*
X11371379Y13634157D01*
X11314606Y13668478D01*
X11152196Y13719086D01*
X11152194Y13719087D01*
X11152192Y13719087D01*
X11102778Y13723577D01*
X11081616Y13725500D01*
X10568384Y13725500D01*
X10549145Y13723752D01*
X10497807Y13719087D01*
X10335393Y13668478D01*
X10189811Y13580470D01*
X10189810Y13580469D01*
X10087681Y13478339D01*
X10026358Y13444854D01*
X9956666Y13449838D01*
X9912319Y13478339D01*
X9810188Y13580470D01*
X9721379Y13634157D01*
X9664606Y13668478D01*
X9502196Y13719086D01*
X9502194Y13719087D01*
X9502192Y13719087D01*
X9452778Y13723577D01*
X9431616Y13725500D01*
X8918384Y13725500D01*
X8899145Y13723752D01*
X8847807Y13719087D01*
X8685393Y13668478D01*
X8539811Y13580470D01*
X8419530Y13460189D01*
X8331522Y13314607D01*
X8280913Y13152193D01*
X8274500Y13081614D01*
X8274500Y12418387D01*
X8280913Y12347808D01*
X8280913Y12347806D01*
X8280914Y12347804D01*
X8331522Y12185394D01*
X8417399Y12043336D01*
X8419530Y12039812D01*
X8539811Y11919531D01*
X8539813Y11919530D01*
X8539815Y11919528D01*
X8685394Y11831522D01*
X8847804Y11780914D01*
X8918384Y11774500D01*
X9018515Y11774500D01*
X9085554Y11754815D01*
X9131309Y11702011D01*
X9133076Y11697952D01*
X9188487Y11564174D01*
X9188494Y11564161D01*
X9287039Y11416680D01*
X9287042Y11416676D01*
X9412465Y11291253D01*
X9412469Y11291250D01*
X9559950Y11192705D01*
X9559963Y11192698D01*
X9682867Y11141791D01*
X9723838Y11124820D01*
X9723840Y11124820D01*
X9723845Y11124818D01*
X9897808Y11090215D01*
X9897811Y11090214D01*
X9897813Y11090214D01*
X10075197Y11090214D01*
X10075198Y11090215D01*
X10133186Y11101750D01*
X10249162Y11124818D01*
X10249165Y11124820D01*
X10249170Y11124820D01*
X10413051Y11192701D01*
X10560539Y11291250D01*
X10685968Y11416679D01*
X10784517Y11564167D01*
X10839932Y11697952D01*
X10883772Y11752356D01*
X10950066Y11774421D01*
X10954493Y11774500D01*
X11081613Y11774500D01*
X11081616Y11774500D01*
X11152196Y11780914D01*
X11314606Y11831522D01*
X11460185Y11919528D01*
X11497321Y11956664D01*
X11553839Y12013181D01*
X11615162Y12046666D01*
X11641520Y12049500D01*
X13246651Y12049500D01*
X13313690Y12029815D01*
X13359445Y11977011D01*
X13369389Y11907853D01*
X13345917Y11851188D01*
X13316647Y11812090D01*
X13316645Y11812087D01*
X13266403Y11677380D01*
X13266401Y11677373D01*
X13260000Y11617845D01*
X13260000Y11425000D01*
X13876000Y11425000D01*
X13884685Y11422450D01*
X13893647Y11423738D01*
X13917687Y11412760D01*
X13943039Y11405315D01*
X13948966Y11398475D01*
X13957203Y11394713D01*
X13971492Y11372479D01*
X13988794Y11352511D01*
X13991081Y11341997D01*
X13994977Y11335935D01*
X14000000Y11301000D01*
X14000000Y11069000D01*
X13980315Y11001961D01*
X13927511Y10956206D01*
X13876000Y10945000D01*
X13260000Y10945000D01*
X13260000Y10752156D01*
X13266401Y10692628D01*
X13266403Y10692621D01*
X13316645Y10557914D01*
X13316649Y10557907D01*
X13402809Y10442813D01*
X13402812Y10442810D01*
X13525011Y10351331D01*
X13523365Y10349134D01*
X13562782Y10309724D01*
X13577640Y10241453D01*
X13553229Y10175986D01*
X13523766Y10150452D01*
X13524769Y10149112D01*
X13402457Y10057549D01*
X13402451Y10057543D01*
X13359515Y10000188D01*
X13303581Y9958318D01*
X13260249Y9950500D01*
X11641520Y9950500D01*
X11574481Y9970185D01*
X11553839Y9986819D01*
X11460188Y10080470D01*
X11371379Y10134157D01*
X11314606Y10168478D01*
X11152196Y10219086D01*
X11152194Y10219087D01*
X11152192Y10219087D01*
X11102778Y10223577D01*
X11081616Y10225500D01*
X10568384Y10225500D01*
X10549145Y10223752D01*
X10497807Y10219087D01*
X10335393Y10168478D01*
X10189811Y10080470D01*
X10189810Y10080469D01*
X10087681Y9978339D01*
X10026358Y9944854D01*
X9956666Y9949838D01*
X9912319Y9978339D01*
X9810188Y10080470D01*
X9721379Y10134157D01*
X9664606Y10168478D01*
X9502196Y10219086D01*
X9502194Y10219087D01*
X9502192Y10219087D01*
X9452778Y10223577D01*
X9431616Y10225500D01*
X8918384Y10225500D01*
X8899145Y10223752D01*
X8847807Y10219087D01*
X8685393Y10168478D01*
X8539811Y10080470D01*
X8419530Y9960189D01*
X8331522Y9814607D01*
X8280913Y9652193D01*
X8274500Y9581614D01*
X8274500Y8918387D01*
X8280913Y8847808D01*
X8280913Y8847806D01*
X8280914Y8847804D01*
X8331522Y8685394D01*
X8415386Y8546666D01*
X8419530Y8539812D01*
X8539811Y8419531D01*
X8539813Y8419530D01*
X8539815Y8419528D01*
X8685394Y8331522D01*
X8847804Y8280914D01*
X8918384Y8274500D01*
X9018515Y8274500D01*
X9085554Y8254815D01*
X9131309Y8202011D01*
X9133076Y8197952D01*
X9188487Y8064174D01*
X9188494Y8064161D01*
X9287039Y7916680D01*
X9287042Y7916676D01*
X9412465Y7791253D01*
X9412469Y7791250D01*
X9559950Y7692705D01*
X9559963Y7692698D01*
X9626073Y7665315D01*
X9723838Y7624820D01*
X9723840Y7624820D01*
X9723845Y7624818D01*
X9897808Y7590215D01*
X9897811Y7590214D01*
X9897813Y7590214D01*
X10075197Y7590214D01*
X10075198Y7590215D01*
X10135372Y7602184D01*
X10214781Y7617979D01*
X10249161Y7624818D01*
X10249163Y7624819D01*
X10249170Y7624820D01*
X10413051Y7692701D01*
X10560539Y7791250D01*
X10685968Y7916679D01*
X10784517Y8064167D01*
X10839932Y8197952D01*
X10883772Y8252356D01*
X10950066Y8274421D01*
X10954493Y8274500D01*
X11081613Y8274500D01*
X11081616Y8274500D01*
X11152196Y8280914D01*
X11314606Y8331522D01*
X11460185Y8419528D01*
X11476566Y8435909D01*
X11553839Y8513181D01*
X11615162Y8546666D01*
X11641520Y8549500D01*
X13246651Y8549500D01*
X13313690Y8529815D01*
X13359445Y8477011D01*
X13369389Y8407853D01*
X13345917Y8351188D01*
X13316647Y8312090D01*
X13316645Y8312087D01*
X13266403Y8177380D01*
X13266401Y8177373D01*
X13260000Y8117845D01*
X13260000Y7925000D01*
X13876000Y7925000D01*
X13943039Y7905315D01*
X13988794Y7852511D01*
X14000000Y7801000D01*
X14000000Y7685000D01*
X14116000Y7685000D01*
X14183039Y7665315D01*
X14228794Y7612511D01*
X14240000Y7561000D01*
X14240000Y6800000D01*
X14287828Y6800000D01*
X14287844Y6800001D01*
X14355087Y6807231D01*
X14355368Y6804617D01*
X14412462Y6801555D01*
X14469133Y6760689D01*
X14494715Y6695671D01*
X14495208Y6684619D01*
X14495208Y-1684100D01*
X14475523Y-1751139D01*
X14422719Y-1796894D01*
X14355210Y-1806600D01*
X14355196Y-1806739D01*
X14354654Y-1806680D01*
X14353561Y-1806838D01*
X14350213Y-1806203D01*
X14347484Y-1805909D01*
X14347483Y-1805909D01*
X14287873Y-1799500D01*
X14287863Y-1799500D01*
X13712129Y-1799500D01*
X13712123Y-1799501D01*
X13652516Y-1805908D01*
X13517671Y-1856202D01*
X13517664Y-1856206D01*
X13402457Y-1942451D01*
X13402451Y-1942457D01*
X13359515Y-1999812D01*
X13303581Y-2041682D01*
X13260249Y-2049500D01*
X11641520Y-2049500D01*
X11574481Y-2029815D01*
X11553839Y-2013181D01*
X11460188Y-1919530D01*
X11371379Y-1865843D01*
X11314606Y-1831522D01*
X11152196Y-1780914D01*
X11152194Y-1780913D01*
X11152192Y-1780913D01*
X11102778Y-1776423D01*
X11081616Y-1774500D01*
X10568384Y-1774500D01*
X10549145Y-1776248D01*
X10497807Y-1780913D01*
X10335393Y-1831522D01*
X10189811Y-1919530D01*
X10189810Y-1919531D01*
X10087681Y-2021661D01*
X10026358Y-2055146D01*
X9956666Y-2050162D01*
X9912319Y-2021661D01*
X9810188Y-1919530D01*
X9721379Y-1865843D01*
X9664606Y-1831522D01*
X9502196Y-1780914D01*
X9502194Y-1780913D01*
X9502192Y-1780913D01*
X9452778Y-1776423D01*
X9431616Y-1774500D01*
X8918384Y-1774500D01*
X8899145Y-1776248D01*
X8847807Y-1780913D01*
X8685393Y-1831522D01*
X8539811Y-1919530D01*
X8419530Y-2039811D01*
X8331522Y-2185393D01*
X8280913Y-2347807D01*
X8274500Y-2418386D01*
X8274500Y-3081613D01*
X8280913Y-3152192D01*
X8280913Y-3152194D01*
X8280914Y-3152196D01*
X8331522Y-3314606D01*
X8415386Y-3453334D01*
X8419530Y-3460188D01*
X8539811Y-3580469D01*
X8539813Y-3580470D01*
X8539815Y-3580472D01*
X8685394Y-3668478D01*
X8847804Y-3719086D01*
X8918384Y-3725500D01*
X9018515Y-3725500D01*
X9085554Y-3745185D01*
X9131309Y-3797989D01*
X9133076Y-3802048D01*
X9188487Y-3935826D01*
X9188494Y-3935839D01*
X9287039Y-4083320D01*
X9287042Y-4083324D01*
X9412465Y-4208747D01*
X9412469Y-4208750D01*
X9559950Y-4307295D01*
X9559963Y-4307302D01*
X9682867Y-4358209D01*
X9723838Y-4375180D01*
X9723840Y-4375180D01*
X9723845Y-4375182D01*
X9897808Y-4409785D01*
X9897811Y-4409786D01*
X9897813Y-4409786D01*
X10075197Y-4409786D01*
X10075198Y-4409785D01*
X10133186Y-4398250D01*
X10249162Y-4375182D01*
X10249165Y-4375180D01*
X10249170Y-4375180D01*
X10413051Y-4307299D01*
X10560539Y-4208750D01*
X10685968Y-4083321D01*
X10784517Y-3935833D01*
X10804021Y-3888747D01*
X10839932Y-3802048D01*
X10883772Y-3747644D01*
X10950066Y-3725579D01*
X10954493Y-3725500D01*
X11081613Y-3725500D01*
X11081616Y-3725500D01*
X11152196Y-3719086D01*
X11314606Y-3668478D01*
X11460185Y-3580472D01*
X11501051Y-3539606D01*
X11553839Y-3486819D01*
X11615162Y-3453334D01*
X11641520Y-3450500D01*
X13246651Y-3450500D01*
X13313690Y-3470185D01*
X13359445Y-3522989D01*
X13369389Y-3592147D01*
X13345917Y-3648812D01*
X13316647Y-3687910D01*
X13316645Y-3687913D01*
X13266403Y-3822620D01*
X13266401Y-3822627D01*
X13260000Y-3882155D01*
X13260000Y-4075000D01*
X13876000Y-4075000D01*
X13884685Y-4077550D01*
X13893647Y-4076262D01*
X13917687Y-4087240D01*
X13943039Y-4094685D01*
X13948966Y-4101525D01*
X13957203Y-4105287D01*
X13971492Y-4127521D01*
X13988794Y-4147489D01*
X13991081Y-4158003D01*
X13994977Y-4164065D01*
X14000000Y-4199000D01*
X14000000Y-4431000D01*
X13980315Y-4498039D01*
X13927511Y-4543794D01*
X13876000Y-4555000D01*
X13260000Y-4555000D01*
X13260000Y-4747844D01*
X13266401Y-4807372D01*
X13266403Y-4807379D01*
X13316645Y-4942086D01*
X13316649Y-4942093D01*
X13402809Y-5057187D01*
X13402812Y-5057190D01*
X13525011Y-5148669D01*
X13523365Y-5150866D01*
X13562782Y-5190276D01*
X13577640Y-5258547D01*
X13553229Y-5324014D01*
X13523766Y-5349548D01*
X13524769Y-5350888D01*
X13402457Y-5442451D01*
X13402451Y-5442457D01*
X13359515Y-5499812D01*
X13303581Y-5541682D01*
X13260249Y-5549500D01*
X11641520Y-5549500D01*
X11574481Y-5529815D01*
X11553839Y-5513181D01*
X11460188Y-5419530D01*
X11371379Y-5365843D01*
X11314606Y-5331522D01*
X11152196Y-5280914D01*
X11152194Y-5280913D01*
X11152192Y-5280913D01*
X11102778Y-5276423D01*
X11081616Y-5274500D01*
X10568384Y-5274500D01*
X10549145Y-5276248D01*
X10497807Y-5280913D01*
X10335393Y-5331522D01*
X10189811Y-5419530D01*
X10189810Y-5419531D01*
X10087681Y-5521661D01*
X10026358Y-5555146D01*
X9956666Y-5550162D01*
X9912319Y-5521661D01*
X9810188Y-5419530D01*
X9721379Y-5365843D01*
X9664606Y-5331522D01*
X9502196Y-5280914D01*
X9502194Y-5280913D01*
X9502192Y-5280913D01*
X9452778Y-5276423D01*
X9431616Y-5274500D01*
X8918384Y-5274500D01*
X8899145Y-5276248D01*
X8847807Y-5280913D01*
X8685393Y-5331522D01*
X8539811Y-5419530D01*
X8419530Y-5539811D01*
X8331522Y-5685393D01*
X8280913Y-5847807D01*
X8274500Y-5918386D01*
X8274500Y-6581613D01*
X8280913Y-6652192D01*
X8280913Y-6652194D01*
X8280914Y-6652196D01*
X8331522Y-6814606D01*
X8415386Y-6953334D01*
X8419530Y-6960188D01*
X8539811Y-7080469D01*
X8539813Y-7080470D01*
X8539815Y-7080472D01*
X8685394Y-7168478D01*
X8847804Y-7219086D01*
X8918384Y-7225500D01*
X9018515Y-7225500D01*
X9085554Y-7245185D01*
X9131309Y-7297989D01*
X9133076Y-7302048D01*
X9188487Y-7435826D01*
X9188494Y-7435839D01*
X9287039Y-7583320D01*
X9287042Y-7583324D01*
X9412465Y-7708747D01*
X9412469Y-7708750D01*
X9559950Y-7807295D01*
X9559963Y-7807302D01*
X9682867Y-7858209D01*
X9723838Y-7875180D01*
X9723840Y-7875180D01*
X9723845Y-7875182D01*
X9897808Y-7909785D01*
X9897811Y-7909786D01*
X9897813Y-7909786D01*
X10075197Y-7909786D01*
X10075198Y-7909785D01*
X10133186Y-7898250D01*
X10249162Y-7875182D01*
X10249165Y-7875180D01*
X10249170Y-7875180D01*
X10413051Y-7807299D01*
X10560539Y-7708750D01*
X10685968Y-7583321D01*
X10784517Y-7435833D01*
X10839932Y-7302048D01*
X10883772Y-7247644D01*
X10950066Y-7225579D01*
X10954493Y-7225500D01*
X11081613Y-7225500D01*
X11081616Y-7225500D01*
X11152196Y-7219086D01*
X11314606Y-7168478D01*
X11460185Y-7080472D01*
X11497319Y-7043338D01*
X11553839Y-6986819D01*
X11615162Y-6953334D01*
X11641520Y-6950500D01*
X13246651Y-6950500D01*
X13313690Y-6970185D01*
X13359445Y-7022989D01*
X13369389Y-7092147D01*
X13345917Y-7148812D01*
X13316647Y-7187910D01*
X13316645Y-7187913D01*
X13266403Y-7322620D01*
X13266401Y-7322627D01*
X13260000Y-7382155D01*
X13260000Y-7575000D01*
X13876000Y-7575000D01*
X13884685Y-7577550D01*
X13893647Y-7576262D01*
X13917687Y-7587240D01*
X13943039Y-7594685D01*
X13948966Y-7601525D01*
X13957203Y-7605287D01*
X13971492Y-7627521D01*
X13988794Y-7647489D01*
X13991081Y-7658003D01*
X13994977Y-7664065D01*
X14000000Y-7699000D01*
X14000000Y-7931000D01*
X13980315Y-7998039D01*
X13927511Y-8043794D01*
X13876000Y-8055000D01*
X13260000Y-8055000D01*
X13260000Y-8247844D01*
X13266401Y-8307372D01*
X13266403Y-8307379D01*
X13316645Y-8442086D01*
X13316649Y-8442093D01*
X13402809Y-8557187D01*
X13402812Y-8557190D01*
X13525011Y-8648669D01*
X13523365Y-8650866D01*
X13562782Y-8690276D01*
X13577640Y-8758547D01*
X13553229Y-8824014D01*
X13523766Y-8849548D01*
X13524769Y-8850888D01*
X13402457Y-8942451D01*
X13402451Y-8942457D01*
X13359515Y-8999812D01*
X13303581Y-9041682D01*
X13260249Y-9049500D01*
X11641520Y-9049500D01*
X11574481Y-9029815D01*
X11553839Y-9013181D01*
X11460188Y-8919530D01*
X11371379Y-8865843D01*
X11314606Y-8831522D01*
X11152196Y-8780914D01*
X11152194Y-8780913D01*
X11152192Y-8780913D01*
X11102778Y-8776423D01*
X11081616Y-8774500D01*
X10568384Y-8774500D01*
X10549145Y-8776248D01*
X10497807Y-8780913D01*
X10335393Y-8831522D01*
X10189811Y-8919530D01*
X10189810Y-8919531D01*
X10087681Y-9021661D01*
X10026358Y-9055146D01*
X9956666Y-9050162D01*
X9912319Y-9021661D01*
X9810188Y-8919530D01*
X9721379Y-8865843D01*
X9664606Y-8831522D01*
X9502196Y-8780914D01*
X9502194Y-8780913D01*
X9502192Y-8780913D01*
X9452778Y-8776423D01*
X9431616Y-8774500D01*
X8918384Y-8774500D01*
X8899145Y-8776248D01*
X8847807Y-8780913D01*
X8685393Y-8831522D01*
X8539811Y-8919530D01*
X8419530Y-9039811D01*
X8331522Y-9185393D01*
X8280913Y-9347807D01*
X8274500Y-9418386D01*
X8274500Y-10081613D01*
X8280913Y-10152192D01*
X8280913Y-10152194D01*
X8280914Y-10152196D01*
X8331522Y-10314606D01*
X8415386Y-10453334D01*
X8419530Y-10460188D01*
X8539811Y-10580469D01*
X8539813Y-10580470D01*
X8539815Y-10580472D01*
X8685394Y-10668478D01*
X8847804Y-10719086D01*
X8918384Y-10725500D01*
X9018515Y-10725500D01*
X9085554Y-10745185D01*
X9131309Y-10797989D01*
X9133076Y-10802048D01*
X9188487Y-10935826D01*
X9188494Y-10935839D01*
X9287039Y-11083320D01*
X9287042Y-11083324D01*
X9412465Y-11208747D01*
X9412469Y-11208750D01*
X9559950Y-11307295D01*
X9559963Y-11307302D01*
X9682867Y-11358209D01*
X9723838Y-11375180D01*
X9723840Y-11375180D01*
X9723845Y-11375182D01*
X9897808Y-11409785D01*
X9897811Y-11409786D01*
X9897813Y-11409786D01*
X10075197Y-11409786D01*
X10075198Y-11409785D01*
X10133186Y-11398250D01*
X10249162Y-11375182D01*
X10249165Y-11375180D01*
X10249170Y-11375180D01*
X10413051Y-11307299D01*
X10560539Y-11208750D01*
X10685968Y-11083321D01*
X10784517Y-10935833D01*
X10788605Y-10925965D01*
X10839932Y-10802048D01*
X10883772Y-10747644D01*
X10950066Y-10725579D01*
X10954493Y-10725500D01*
X11081613Y-10725500D01*
X11081616Y-10725500D01*
X11152196Y-10719086D01*
X11314606Y-10668478D01*
X11460185Y-10580472D01*
X11476566Y-10564091D01*
X11553839Y-10486819D01*
X11615162Y-10453334D01*
X11641520Y-10450500D01*
X13246651Y-10450500D01*
X13313690Y-10470185D01*
X13359445Y-10522989D01*
X13369389Y-10592147D01*
X13345917Y-10648812D01*
X13316647Y-10687910D01*
X13316645Y-10687913D01*
X13266403Y-10822620D01*
X13266401Y-10822627D01*
X13260000Y-10882155D01*
X13260000Y-11075000D01*
X13876000Y-11075000D01*
X13884685Y-11077550D01*
X13893647Y-11076262D01*
X13917687Y-11087240D01*
X13943039Y-11094685D01*
X13948966Y-11101525D01*
X13957203Y-11105287D01*
X13971492Y-11127521D01*
X13988794Y-11147489D01*
X13991081Y-11158003D01*
X13994977Y-11164065D01*
X14000000Y-11199000D01*
X14000000Y-11431000D01*
X13980315Y-11498039D01*
X13927511Y-11543794D01*
X13876000Y-11555000D01*
X13260000Y-11555000D01*
X13260000Y-11747844D01*
X13266401Y-11807372D01*
X13266403Y-11807379D01*
X13316645Y-11942086D01*
X13316649Y-11942093D01*
X13402809Y-12057187D01*
X13402812Y-12057190D01*
X13525011Y-12148669D01*
X13523365Y-12150866D01*
X13562782Y-12190276D01*
X13577640Y-12258547D01*
X13553229Y-12324014D01*
X13523766Y-12349548D01*
X13524769Y-12350888D01*
X13402457Y-12442451D01*
X13402451Y-12442457D01*
X13359515Y-12499812D01*
X13303581Y-12541682D01*
X13260249Y-12549500D01*
X11641520Y-12549500D01*
X11574481Y-12529815D01*
X11553839Y-12513181D01*
X11460188Y-12419530D01*
X11371379Y-12365843D01*
X11314606Y-12331522D01*
X11152196Y-12280914D01*
X11152194Y-12280913D01*
X11152192Y-12280913D01*
X11102778Y-12276423D01*
X11081616Y-12274500D01*
X10568384Y-12274500D01*
X10549145Y-12276248D01*
X10497807Y-12280913D01*
X10335393Y-12331522D01*
X10189811Y-12419530D01*
X10189810Y-12419531D01*
X10087681Y-12521661D01*
X10026358Y-12555146D01*
X9956666Y-12550162D01*
X9912319Y-12521661D01*
X9810188Y-12419530D01*
X9721379Y-12365843D01*
X9664606Y-12331522D01*
X9502196Y-12280914D01*
X9502194Y-12280913D01*
X9502192Y-12280913D01*
X9452778Y-12276423D01*
X9431616Y-12274500D01*
X8918384Y-12274500D01*
X8899145Y-12276248D01*
X8847807Y-12280913D01*
X8685393Y-12331522D01*
X8539811Y-12419530D01*
X8419530Y-12539811D01*
X8331522Y-12685393D01*
X8280913Y-12847807D01*
X8274500Y-12918386D01*
X8274500Y-13581613D01*
X8280913Y-13652192D01*
X8280913Y-13652194D01*
X8280914Y-13652196D01*
X8331522Y-13814606D01*
X8415386Y-13953334D01*
X8419530Y-13960188D01*
X8539811Y-14080469D01*
X8539813Y-14080470D01*
X8539815Y-14080472D01*
X8685394Y-14168478D01*
X8847804Y-14219086D01*
X8918384Y-14225500D01*
X9018515Y-14225500D01*
X9085554Y-14245185D01*
X9131309Y-14297989D01*
X9133076Y-14302048D01*
X9188487Y-14435826D01*
X9188494Y-14435839D01*
X9287039Y-14583320D01*
X9287042Y-14583324D01*
X9412465Y-14708747D01*
X9412469Y-14708750D01*
X9559950Y-14807295D01*
X9559963Y-14807302D01*
X9682867Y-14858209D01*
X9723838Y-14875180D01*
X9723840Y-14875180D01*
X9723845Y-14875182D01*
X9897808Y-14909785D01*
X9897811Y-14909786D01*
X9897813Y-14909786D01*
X10075197Y-14909786D01*
X10075198Y-14909785D01*
X10133186Y-14898250D01*
X10249162Y-14875182D01*
X10249165Y-14875180D01*
X10249170Y-14875180D01*
X10413051Y-14807299D01*
X10560539Y-14708750D01*
X10685968Y-14583321D01*
X10784517Y-14435833D01*
X10839932Y-14302048D01*
X10883772Y-14247644D01*
X10950066Y-14225579D01*
X10954493Y-14225500D01*
X11081613Y-14225500D01*
X11081616Y-14225500D01*
X11152196Y-14219086D01*
X11314606Y-14168478D01*
X11460185Y-14080472D01*
X11497327Y-14043330D01*
X11553839Y-13986819D01*
X11615162Y-13953334D01*
X11641520Y-13950500D01*
X13246651Y-13950500D01*
X13313690Y-13970185D01*
X13359445Y-14022989D01*
X13369389Y-14092147D01*
X13345917Y-14148812D01*
X13316647Y-14187910D01*
X13316645Y-14187913D01*
X13266403Y-14322620D01*
X13266401Y-14322627D01*
X13260000Y-14382155D01*
X13260000Y-14575000D01*
X13876000Y-14575000D01*
X13884685Y-14577550D01*
X13893647Y-14576262D01*
X13917687Y-14587240D01*
X13943039Y-14594685D01*
X13948966Y-14601525D01*
X13957203Y-14605287D01*
X13971492Y-14627521D01*
X13988794Y-14647489D01*
X13991081Y-14658003D01*
X13994977Y-14664065D01*
X14000000Y-14699000D01*
X14000000Y-14931000D01*
X13980315Y-14998039D01*
X13927511Y-15043794D01*
X13876000Y-15055000D01*
X13260000Y-15055000D01*
X13260000Y-15247844D01*
X13266401Y-15307372D01*
X13266403Y-15307379D01*
X13316645Y-15442086D01*
X13316649Y-15442093D01*
X13402809Y-15557187D01*
X13402812Y-15557190D01*
X13525011Y-15648669D01*
X13523365Y-15650866D01*
X13562782Y-15690276D01*
X13577640Y-15758547D01*
X13553229Y-15824014D01*
X13523766Y-15849548D01*
X13524769Y-15850888D01*
X13402457Y-15942451D01*
X13402451Y-15942457D01*
X13359515Y-15999812D01*
X13303581Y-16041682D01*
X13260249Y-16049500D01*
X11641520Y-16049500D01*
X11574481Y-16029815D01*
X11553839Y-16013181D01*
X11460188Y-15919530D01*
X11371379Y-15865843D01*
X11314606Y-15831522D01*
X11152196Y-15780914D01*
X11152194Y-15780913D01*
X11152192Y-15780913D01*
X11102778Y-15776423D01*
X11081616Y-15774500D01*
X10568384Y-15774500D01*
X10549145Y-15776248D01*
X10497807Y-15780913D01*
X10335393Y-15831522D01*
X10189811Y-15919530D01*
X10189810Y-15919531D01*
X10087681Y-16021661D01*
X10026358Y-16055146D01*
X9956666Y-16050162D01*
X9912319Y-16021661D01*
X9810188Y-15919530D01*
X9721379Y-15865843D01*
X9664606Y-15831522D01*
X9502196Y-15780914D01*
X9502194Y-15780913D01*
X9502192Y-15780913D01*
X9452778Y-15776423D01*
X9431616Y-15774500D01*
X8918384Y-15774500D01*
X8899145Y-15776248D01*
X8847807Y-15780913D01*
X8685393Y-15831522D01*
X8539811Y-15919530D01*
X8419530Y-16039811D01*
X8331522Y-16185393D01*
X8280913Y-16347807D01*
X8274500Y-16418386D01*
X8274500Y-17081613D01*
X8280913Y-17152192D01*
X8280913Y-17152194D01*
X8280914Y-17152196D01*
X8331522Y-17314606D01*
X8415386Y-17453334D01*
X8419530Y-17460188D01*
X8539811Y-17580469D01*
X8539813Y-17580470D01*
X8539815Y-17580472D01*
X8685394Y-17668478D01*
X8847804Y-17719086D01*
X8918384Y-17725500D01*
X9018515Y-17725500D01*
X9085554Y-17745185D01*
X9131309Y-17797989D01*
X9133076Y-17802048D01*
X9188487Y-17935826D01*
X9188494Y-17935839D01*
X9287039Y-18083320D01*
X9287042Y-18083324D01*
X9412465Y-18208747D01*
X9412469Y-18208750D01*
X9559950Y-18307295D01*
X9559963Y-18307302D01*
X9682867Y-18358209D01*
X9723838Y-18375180D01*
X9723840Y-18375180D01*
X9723845Y-18375182D01*
X9897808Y-18409785D01*
X9897811Y-18409786D01*
X9897813Y-18409786D01*
X10075197Y-18409786D01*
X10075198Y-18409785D01*
X10133186Y-18398250D01*
X10249162Y-18375182D01*
X10249165Y-18375180D01*
X10249170Y-18375180D01*
X10413051Y-18307299D01*
X10560539Y-18208750D01*
X10685968Y-18083321D01*
X10784517Y-17935833D01*
X10839932Y-17802048D01*
X10883772Y-17747644D01*
X10950066Y-17725579D01*
X10954493Y-17725500D01*
X11081613Y-17725500D01*
X11081616Y-17725500D01*
X11152196Y-17719086D01*
X11314606Y-17668478D01*
X11460185Y-17580472D01*
X11490654Y-17550003D01*
X11553839Y-17486819D01*
X11615162Y-17453334D01*
X11641520Y-17450500D01*
X13246651Y-17450500D01*
X13313690Y-17470185D01*
X13359445Y-17522989D01*
X13369389Y-17592147D01*
X13345917Y-17648812D01*
X13316647Y-17687910D01*
X13316645Y-17687913D01*
X13266403Y-17822620D01*
X13266401Y-17822627D01*
X13260000Y-17882155D01*
X13260000Y-18075000D01*
X13876000Y-18075000D01*
X13884685Y-18077550D01*
X13893647Y-18076262D01*
X13917687Y-18087240D01*
X13943039Y-18094685D01*
X13948966Y-18101525D01*
X13957203Y-18105287D01*
X13971492Y-18127521D01*
X13988794Y-18147489D01*
X13991081Y-18158003D01*
X13994977Y-18164065D01*
X14000000Y-18199000D01*
X14000000Y-18431000D01*
X13980315Y-18498039D01*
X13927511Y-18543794D01*
X13876000Y-18555000D01*
X13260000Y-18555000D01*
X13260000Y-18747844D01*
X13266401Y-18807372D01*
X13266403Y-18807379D01*
X13316645Y-18942086D01*
X13316649Y-18942093D01*
X13402809Y-19057187D01*
X13402812Y-19057190D01*
X13525011Y-19148669D01*
X13523365Y-19150866D01*
X13562782Y-19190276D01*
X13577640Y-19258547D01*
X13553229Y-19324014D01*
X13523766Y-19349548D01*
X13524769Y-19350888D01*
X13402457Y-19442451D01*
X13402451Y-19442457D01*
X13359515Y-19499812D01*
X13303581Y-19541682D01*
X13260249Y-19549500D01*
X11641520Y-19549500D01*
X11574481Y-19529815D01*
X11553839Y-19513181D01*
X11460188Y-19419530D01*
X11371379Y-19365843D01*
X11314606Y-19331522D01*
X11152196Y-19280914D01*
X11152194Y-19280913D01*
X11152192Y-19280913D01*
X11102778Y-19276423D01*
X11081616Y-19274500D01*
X10568384Y-19274500D01*
X10549145Y-19276248D01*
X10497807Y-19280913D01*
X10335393Y-19331522D01*
X10189811Y-19419530D01*
X10189810Y-19419531D01*
X10087681Y-19521661D01*
X10026358Y-19555146D01*
X9956666Y-19550162D01*
X9912319Y-19521661D01*
X9810188Y-19419530D01*
X9721379Y-19365843D01*
X9664606Y-19331522D01*
X9502196Y-19280914D01*
X9502194Y-19280913D01*
X9502192Y-19280913D01*
X9452778Y-19276423D01*
X9431616Y-19274500D01*
X8918384Y-19274500D01*
X8899145Y-19276248D01*
X8847807Y-19280913D01*
X8685393Y-19331522D01*
X8539811Y-19419530D01*
X8419530Y-19539811D01*
X8331522Y-19685393D01*
X8280913Y-19847807D01*
X8274500Y-19918386D01*
X8274500Y-20581613D01*
X8280913Y-20652192D01*
X8280913Y-20652194D01*
X8280914Y-20652196D01*
X8331522Y-20814606D01*
X8415386Y-20953334D01*
X8419530Y-20960188D01*
X8539811Y-21080469D01*
X8539813Y-21080470D01*
X8539815Y-21080472D01*
X8685394Y-21168478D01*
X8847804Y-21219086D01*
X8918384Y-21225500D01*
X9018515Y-21225500D01*
X9085554Y-21245185D01*
X9131309Y-21297989D01*
X9133076Y-21302048D01*
X9188487Y-21435826D01*
X9188494Y-21435839D01*
X9287039Y-21583320D01*
X9287042Y-21583324D01*
X9412465Y-21708747D01*
X9412469Y-21708750D01*
X9559950Y-21807295D01*
X9559963Y-21807302D01*
X9663040Y-21849997D01*
X9723838Y-21875180D01*
X9723840Y-21875180D01*
X9723845Y-21875182D01*
X9897808Y-21909785D01*
X9897811Y-21909786D01*
X9897813Y-21909786D01*
X10075197Y-21909786D01*
X10075198Y-21909785D01*
X10133186Y-21898250D01*
X10249162Y-21875182D01*
X10249165Y-21875180D01*
X10249170Y-21875180D01*
X10413051Y-21807299D01*
X10560539Y-21708750D01*
X10685968Y-21583321D01*
X10784517Y-21435833D01*
X10839932Y-21302048D01*
X10883772Y-21247644D01*
X10950066Y-21225579D01*
X10954493Y-21225500D01*
X11081613Y-21225500D01*
X11081616Y-21225500D01*
X11152196Y-21219086D01*
X11314606Y-21168478D01*
X11460185Y-21080472D01*
X11476566Y-21064091D01*
X11553839Y-20986819D01*
X11615162Y-20953334D01*
X11641520Y-20950500D01*
X13246651Y-20950500D01*
X13313690Y-20970185D01*
X13359445Y-21022989D01*
X13369389Y-21092147D01*
X13345917Y-21148812D01*
X13316647Y-21187910D01*
X13316645Y-21187913D01*
X13266403Y-21322620D01*
X13266401Y-21322627D01*
X13260000Y-21382155D01*
X13260000Y-21575000D01*
X13876000Y-21575000D01*
X13884685Y-21577550D01*
X13893647Y-21576262D01*
X13917687Y-21587240D01*
X13943039Y-21594685D01*
X13948966Y-21601525D01*
X13957203Y-21605287D01*
X13971492Y-21627521D01*
X13988794Y-21647489D01*
X13991081Y-21658003D01*
X13994977Y-21664065D01*
X14000000Y-21699000D01*
X14000000Y-21931000D01*
X13980315Y-21998039D01*
X13927511Y-22043794D01*
X13876000Y-22055000D01*
X13260000Y-22055000D01*
X13260000Y-22247844D01*
X13266401Y-22307372D01*
X13266403Y-22307379D01*
X13316645Y-22442086D01*
X13316649Y-22442093D01*
X13402809Y-22557187D01*
X13402812Y-22557190D01*
X13525011Y-22648669D01*
X13523365Y-22650866D01*
X13562782Y-22690276D01*
X13577640Y-22758547D01*
X13553229Y-22824014D01*
X13523766Y-22849548D01*
X13524769Y-22850888D01*
X13402457Y-22942451D01*
X13402451Y-22942457D01*
X13359515Y-22999812D01*
X13303581Y-23041682D01*
X13260249Y-23049500D01*
X11641520Y-23049500D01*
X11574481Y-23029815D01*
X11553839Y-23013181D01*
X11460188Y-22919530D01*
X11371379Y-22865843D01*
X11314606Y-22831522D01*
X11152196Y-22780914D01*
X11152194Y-22780913D01*
X11152192Y-22780913D01*
X11102778Y-22776423D01*
X11081616Y-22774500D01*
X10568384Y-22774500D01*
X10549145Y-22776248D01*
X10497807Y-22780913D01*
X10335393Y-22831522D01*
X10189811Y-22919530D01*
X10189810Y-22919531D01*
X10087681Y-23021661D01*
X10026358Y-23055146D01*
X9956666Y-23050162D01*
X9912319Y-23021661D01*
X9810188Y-22919530D01*
X9721379Y-22865843D01*
X9664606Y-22831522D01*
X9502196Y-22780914D01*
X9502194Y-22780913D01*
X9502192Y-22780913D01*
X9452778Y-22776423D01*
X9431616Y-22774500D01*
X8918384Y-22774500D01*
X8899145Y-22776248D01*
X8847807Y-22780913D01*
X8685393Y-22831522D01*
X8539811Y-22919530D01*
X8419530Y-23039811D01*
X8331522Y-23185393D01*
X8280913Y-23347807D01*
X8274500Y-23418386D01*
X8274500Y-24081613D01*
X8280913Y-24152192D01*
X8280913Y-24152194D01*
X8280914Y-24152196D01*
X8331522Y-24314606D01*
X8415386Y-24453334D01*
X8419530Y-24460188D01*
X8539811Y-24580469D01*
X8539813Y-24580470D01*
X8539815Y-24580472D01*
X8685394Y-24668478D01*
X8847804Y-24719086D01*
X8918384Y-24725500D01*
X9018515Y-24725500D01*
X9085554Y-24745185D01*
X9131309Y-24797989D01*
X9133076Y-24802048D01*
X9188487Y-24935826D01*
X9188494Y-24935839D01*
X9287039Y-25083320D01*
X9287042Y-25083324D01*
X9412465Y-25208747D01*
X9412469Y-25208750D01*
X9559950Y-25307295D01*
X9559963Y-25307302D01*
X9682867Y-25358209D01*
X9723838Y-25375180D01*
X9723840Y-25375180D01*
X9723845Y-25375182D01*
X9897808Y-25409785D01*
X9897811Y-25409786D01*
X9897813Y-25409786D01*
X10075197Y-25409786D01*
X10075198Y-25409785D01*
X10133186Y-25398250D01*
X10249162Y-25375182D01*
X10249165Y-25375180D01*
X10249170Y-25375180D01*
X10413051Y-25307299D01*
X10560539Y-25208750D01*
X10685968Y-25083321D01*
X10784517Y-24935833D01*
X10788605Y-24925965D01*
X10839932Y-24802048D01*
X10883772Y-24747644D01*
X10950066Y-24725579D01*
X10954493Y-24725500D01*
X11081613Y-24725500D01*
X11081616Y-24725500D01*
X11152196Y-24719086D01*
X11314606Y-24668478D01*
X11460185Y-24580472D01*
X11476566Y-24564091D01*
X11553839Y-24486819D01*
X11615162Y-24453334D01*
X11641520Y-24450500D01*
X13246651Y-24450500D01*
X13313690Y-24470185D01*
X13359445Y-24522989D01*
X13369389Y-24592147D01*
X13345917Y-24648812D01*
X13316647Y-24687910D01*
X13316645Y-24687913D01*
X13266403Y-24822620D01*
X13266401Y-24822627D01*
X13260000Y-24882155D01*
X13260000Y-25075000D01*
X13876000Y-25075000D01*
X13884685Y-25077550D01*
X13893647Y-25076262D01*
X13917687Y-25087240D01*
X13943039Y-25094685D01*
X13948966Y-25101525D01*
X13957203Y-25105287D01*
X13971492Y-25127521D01*
X13988794Y-25147489D01*
X13991081Y-25158003D01*
X13994977Y-25164065D01*
X14000000Y-25199000D01*
X14000000Y-25431000D01*
X13980315Y-25498039D01*
X13927511Y-25543794D01*
X13876000Y-25555000D01*
X13260000Y-25555000D01*
X13260000Y-25747844D01*
X13266401Y-25807372D01*
X13266403Y-25807379D01*
X13316645Y-25942086D01*
X13316649Y-25942093D01*
X13402809Y-26057187D01*
X13402812Y-26057190D01*
X13525011Y-26148669D01*
X13523365Y-26150866D01*
X13562782Y-26190276D01*
X13577640Y-26258547D01*
X13553229Y-26324014D01*
X13523766Y-26349548D01*
X13524769Y-26350888D01*
X13402457Y-26442451D01*
X13402451Y-26442457D01*
X13359515Y-26499812D01*
X13303581Y-26541682D01*
X13260249Y-26549500D01*
X11641520Y-26549500D01*
X11574481Y-26529815D01*
X11553839Y-26513181D01*
X11460188Y-26419530D01*
X11371379Y-26365843D01*
X11314606Y-26331522D01*
X11152196Y-26280914D01*
X11152194Y-26280913D01*
X11152192Y-26280913D01*
X11102778Y-26276423D01*
X11081616Y-26274500D01*
X10568384Y-26274500D01*
X10549145Y-26276248D01*
X10497807Y-26280913D01*
X10335393Y-26331522D01*
X10189811Y-26419530D01*
X10189810Y-26419531D01*
X10087681Y-26521661D01*
X10026358Y-26555146D01*
X9956666Y-26550162D01*
X9912319Y-26521661D01*
X9810188Y-26419530D01*
X9721379Y-26365843D01*
X9664606Y-26331522D01*
X9502196Y-26280914D01*
X9502194Y-26280913D01*
X9502192Y-26280913D01*
X9452778Y-26276423D01*
X9431616Y-26274500D01*
X8918384Y-26274500D01*
X8899145Y-26276248D01*
X8847807Y-26280913D01*
X8685393Y-26331522D01*
X8539811Y-26419530D01*
X8419530Y-26539811D01*
X8331522Y-26685393D01*
X8280913Y-26847807D01*
X8274500Y-26918386D01*
X8274500Y-27581613D01*
X8280913Y-27652192D01*
X8280913Y-27652194D01*
X8280914Y-27652196D01*
X8331522Y-27814606D01*
X8417399Y-27956664D01*
X8419530Y-27960188D01*
X8539811Y-28080469D01*
X8539813Y-28080470D01*
X8539815Y-28080472D01*
X8685394Y-28168478D01*
X8847804Y-28219086D01*
X8918384Y-28225500D01*
X9018515Y-28225500D01*
X9085554Y-28245185D01*
X9131309Y-28297989D01*
X9133076Y-28302048D01*
X9188487Y-28435826D01*
X9188494Y-28435839D01*
X9287039Y-28583320D01*
X9287042Y-28583324D01*
X9412465Y-28708747D01*
X9412469Y-28708750D01*
X9559950Y-28807295D01*
X9559963Y-28807302D01*
X9626073Y-28834685D01*
X9723838Y-28875180D01*
X9723840Y-28875180D01*
X9723845Y-28875182D01*
X9897808Y-28909785D01*
X9897811Y-28909786D01*
X9897813Y-28909786D01*
X10075197Y-28909786D01*
X10075198Y-28909785D01*
X10112567Y-28902352D01*
X10214781Y-28882021D01*
X10249161Y-28875182D01*
X10249163Y-28875181D01*
X10249170Y-28875180D01*
X10413051Y-28807299D01*
X10560539Y-28708750D01*
X10685968Y-28583321D01*
X10784517Y-28435833D01*
X10839932Y-28302048D01*
X10883772Y-28247644D01*
X10950066Y-28225579D01*
X10954493Y-28225500D01*
X11081613Y-28225500D01*
X11081616Y-28225500D01*
X11152196Y-28219086D01*
X11314606Y-28168478D01*
X11460185Y-28080472D01*
X11497321Y-28043336D01*
X11553839Y-27986819D01*
X11615162Y-27953334D01*
X11641520Y-27950500D01*
X13246651Y-27950500D01*
X13313690Y-27970185D01*
X13359445Y-28022989D01*
X13369389Y-28092147D01*
X13345917Y-28148812D01*
X13316647Y-28187910D01*
X13316645Y-28187913D01*
X13266403Y-28322620D01*
X13266401Y-28322627D01*
X13260000Y-28382155D01*
X13260000Y-28575000D01*
X13876000Y-28575000D01*
X13943039Y-28594685D01*
X13988794Y-28647489D01*
X14000000Y-28699000D01*
X14000000Y-28815000D01*
X14116000Y-28815000D01*
X14183039Y-28834685D01*
X14228794Y-28887489D01*
X14240000Y-28939000D01*
X14240000Y-29700000D01*
X14287828Y-29700000D01*
X14287844Y-29699999D01*
X14355087Y-29692769D01*
X14355368Y-29695383D01*
X14412462Y-29698445D01*
X14469133Y-29739311D01*
X14494715Y-29804329D01*
X14495208Y-29815381D01*
X14495208Y-30184100D01*
X14475523Y-30251139D01*
X14422719Y-30296894D01*
X14355210Y-30306600D01*
X14355196Y-30306739D01*
X14354654Y-30306680D01*
X14353561Y-30306838D01*
X14350213Y-30306203D01*
X14347484Y-30305909D01*
X14347483Y-30305909D01*
X14287873Y-30299500D01*
X14287863Y-30299500D01*
X13712129Y-30299500D01*
X13712123Y-30299501D01*
X13652516Y-30305908D01*
X13517671Y-30356202D01*
X13517664Y-30356206D01*
X13402457Y-30442451D01*
X13402451Y-30442457D01*
X13359515Y-30499812D01*
X13303581Y-30541682D01*
X13260249Y-30549500D01*
X11641520Y-30549500D01*
X11574481Y-30529815D01*
X11553839Y-30513181D01*
X11460188Y-30419530D01*
X11371379Y-30365843D01*
X11314606Y-30331522D01*
X11152196Y-30280914D01*
X11152194Y-30280913D01*
X11152192Y-30280913D01*
X11102778Y-30276423D01*
X11081616Y-30274500D01*
X10568384Y-30274500D01*
X10549145Y-30276248D01*
X10497807Y-30280913D01*
X10335393Y-30331522D01*
X10189811Y-30419530D01*
X10189810Y-30419531D01*
X10087681Y-30521661D01*
X10026358Y-30555146D01*
X9956666Y-30550162D01*
X9912319Y-30521661D01*
X9810188Y-30419530D01*
X9721379Y-30365843D01*
X9664606Y-30331522D01*
X9502196Y-30280914D01*
X9502194Y-30280913D01*
X9502192Y-30280913D01*
X9452778Y-30276423D01*
X9431616Y-30274500D01*
X8918384Y-30274500D01*
X8899145Y-30276248D01*
X8847807Y-30280913D01*
X8685393Y-30331522D01*
X8539811Y-30419530D01*
X8419530Y-30539811D01*
X8331522Y-30685393D01*
X8280913Y-30847807D01*
X8274500Y-30918386D01*
X8274500Y-31581613D01*
X8280913Y-31652192D01*
X8280913Y-31652194D01*
X8280914Y-31652196D01*
X8331522Y-31814606D01*
X8415386Y-31953334D01*
X8419530Y-31960188D01*
X8539811Y-32080469D01*
X8539813Y-32080470D01*
X8539815Y-32080472D01*
X8685394Y-32168478D01*
X8847804Y-32219086D01*
X8918384Y-32225500D01*
X9018515Y-32225500D01*
X9085554Y-32245185D01*
X9131309Y-32297989D01*
X9133076Y-32302048D01*
X9188487Y-32435826D01*
X9188494Y-32435839D01*
X9287039Y-32583320D01*
X9287042Y-32583324D01*
X9412465Y-32708747D01*
X9412469Y-32708750D01*
X9559950Y-32807295D01*
X9559963Y-32807302D01*
X9682867Y-32858209D01*
X9723838Y-32875180D01*
X9723840Y-32875180D01*
X9723845Y-32875182D01*
X9897808Y-32909785D01*
X9897811Y-32909786D01*
X9897813Y-32909786D01*
X10075197Y-32909786D01*
X10075198Y-32909785D01*
X10133186Y-32898250D01*
X10249162Y-32875182D01*
X10249165Y-32875180D01*
X10249170Y-32875180D01*
X10413051Y-32807299D01*
X10560539Y-32708750D01*
X10685968Y-32583321D01*
X10784517Y-32435833D01*
X10839932Y-32302048D01*
X10883772Y-32247644D01*
X10950066Y-32225579D01*
X10954493Y-32225500D01*
X11081613Y-32225500D01*
X11081616Y-32225500D01*
X11152196Y-32219086D01*
X11314606Y-32168478D01*
X11460185Y-32080472D01*
X11497323Y-32043334D01*
X11553839Y-31986819D01*
X11615162Y-31953334D01*
X11641520Y-31950500D01*
X13246651Y-31950500D01*
X13313690Y-31970185D01*
X13359445Y-32022989D01*
X13369389Y-32092147D01*
X13345917Y-32148812D01*
X13316647Y-32187910D01*
X13316645Y-32187913D01*
X13266403Y-32322620D01*
X13266401Y-32322627D01*
X13260000Y-32382155D01*
X13260000Y-32575000D01*
X13876000Y-32575000D01*
X13884685Y-32577550D01*
X13893647Y-32576262D01*
X13917687Y-32587240D01*
X13943039Y-32594685D01*
X13948966Y-32601525D01*
X13957203Y-32605287D01*
X13971492Y-32627521D01*
X13988794Y-32647489D01*
X13991081Y-32658003D01*
X13994977Y-32664065D01*
X14000000Y-32699000D01*
X14000000Y-32931000D01*
X13980315Y-32998039D01*
X13927511Y-33043794D01*
X13876000Y-33055000D01*
X13260000Y-33055000D01*
X13260000Y-33247844D01*
X13266401Y-33307372D01*
X13266403Y-33307379D01*
X13316645Y-33442086D01*
X13316649Y-33442093D01*
X13402809Y-33557187D01*
X13402812Y-33557190D01*
X13525011Y-33648669D01*
X13523365Y-33650866D01*
X13562782Y-33690276D01*
X13577640Y-33758547D01*
X13553229Y-33824014D01*
X13523766Y-33849548D01*
X13524769Y-33850888D01*
X13402457Y-33942451D01*
X13402451Y-33942457D01*
X13359515Y-33999812D01*
X13303581Y-34041682D01*
X13260249Y-34049500D01*
X11641520Y-34049500D01*
X11574481Y-34029815D01*
X11553839Y-34013181D01*
X11460188Y-33919530D01*
X11414833Y-33892112D01*
X11314606Y-33831522D01*
X11152196Y-33780914D01*
X11152194Y-33780913D01*
X11152192Y-33780913D01*
X11102778Y-33776423D01*
X11081616Y-33774500D01*
X10568384Y-33774500D01*
X10549145Y-33776248D01*
X10497807Y-33780913D01*
X10335393Y-33831522D01*
X10189811Y-33919530D01*
X10189810Y-33919531D01*
X10087681Y-34021661D01*
X10026358Y-34055146D01*
X9956666Y-34050162D01*
X9912319Y-34021661D01*
X9810188Y-33919530D01*
X9764833Y-33892112D01*
X9664606Y-33831522D01*
X9502196Y-33780914D01*
X9502194Y-33780913D01*
X9502192Y-33780913D01*
X9452778Y-33776423D01*
X9431616Y-33774500D01*
X8918384Y-33774500D01*
X8899145Y-33776248D01*
X8847807Y-33780913D01*
X8685393Y-33831522D01*
X8539811Y-33919530D01*
X8419530Y-34039811D01*
X8331522Y-34185393D01*
X8280913Y-34347807D01*
X8274500Y-34418386D01*
X8274500Y-35081613D01*
X8280913Y-35152192D01*
X8280913Y-35152194D01*
X8280914Y-35152196D01*
X8331522Y-35314606D01*
X8415386Y-35453334D01*
X8419530Y-35460188D01*
X8539811Y-35580469D01*
X8539813Y-35580470D01*
X8539815Y-35580472D01*
X8685394Y-35668478D01*
X8847804Y-35719086D01*
X8918384Y-35725500D01*
X9018515Y-35725500D01*
X9085554Y-35745185D01*
X9131309Y-35797989D01*
X9133076Y-35802048D01*
X9188487Y-35935826D01*
X9188494Y-35935839D01*
X9287039Y-36083320D01*
X9287042Y-36083324D01*
X9412465Y-36208747D01*
X9412469Y-36208750D01*
X9559950Y-36307295D01*
X9559963Y-36307302D01*
X9626073Y-36334685D01*
X9723838Y-36375180D01*
X9723840Y-36375180D01*
X9723845Y-36375182D01*
X9897808Y-36409785D01*
X9897811Y-36409786D01*
X9897813Y-36409786D01*
X10075197Y-36409786D01*
X10075198Y-36409785D01*
X10112567Y-36402352D01*
X10214781Y-36382021D01*
X10249161Y-36375182D01*
X10249163Y-36375181D01*
X10249170Y-36375180D01*
X10403899Y-36311090D01*
X10413044Y-36307302D01*
X10413044Y-36307301D01*
X10413051Y-36307299D01*
X10560539Y-36208750D01*
X10685968Y-36083321D01*
X10784517Y-35935833D01*
X10789061Y-35924864D01*
X10839932Y-35802048D01*
X10883772Y-35747644D01*
X10950066Y-35725579D01*
X10954493Y-35725500D01*
X11081613Y-35725500D01*
X11081616Y-35725500D01*
X11152196Y-35719086D01*
X11314606Y-35668478D01*
X11460185Y-35580472D01*
X11476566Y-35564091D01*
X11553839Y-35486819D01*
X11615162Y-35453334D01*
X11641520Y-35450500D01*
X13246651Y-35450500D01*
X13313690Y-35470185D01*
X13359445Y-35522989D01*
X13369389Y-35592147D01*
X13345917Y-35648812D01*
X13316647Y-35687910D01*
X13316645Y-35687913D01*
X13266403Y-35822620D01*
X13266401Y-35822627D01*
X13260000Y-35882155D01*
X13260000Y-36075000D01*
X13876000Y-36075000D01*
X13943039Y-36094685D01*
X13988794Y-36147489D01*
X14000000Y-36199000D01*
X14000000Y-36315000D01*
X14116000Y-36315000D01*
X14183039Y-36334685D01*
X14228794Y-36387489D01*
X14240000Y-36439000D01*
X14240000Y-37200000D01*
X14287828Y-37200000D01*
X14287844Y-37199999D01*
X14355087Y-37192769D01*
X14355368Y-37195383D01*
X14412462Y-37198445D01*
X14469133Y-37239311D01*
X14494715Y-37304329D01*
X14495208Y-37315381D01*
X14495208Y-37370500D01*
X14475523Y-37437539D01*
X14422719Y-37483294D01*
X14371208Y-37494500D01*
X-4491401Y-37494500D01*
X-4558440Y-37474815D01*
X-4604195Y-37422011D01*
X-4615401Y-37370500D01*
X-4615401Y-36747844D01*
X13260000Y-36747844D01*
X13266401Y-36807372D01*
X13266403Y-36807379D01*
X13316645Y-36942086D01*
X13316649Y-36942093D01*
X13402809Y-37057187D01*
X13402812Y-37057190D01*
X13517906Y-37143350D01*
X13517913Y-37143354D01*
X13652620Y-37193596D01*
X13652627Y-37193598D01*
X13712155Y-37199999D01*
X13712172Y-37200000D01*
X13760000Y-37200000D01*
X13760000Y-36555000D01*
X13260000Y-36555000D01*
X13260000Y-36747844D01*
X-4615401Y-36747844D01*
X-4615401Y-36506783D01*
X-4615403Y-36506764D01*
X-4621775Y-36447492D01*
X-4622638Y-36446717D01*
X-4687039Y-36427807D01*
X-4732794Y-36375003D01*
X-4744000Y-36323492D01*
X-4744000Y-36317492D01*
X-4144000Y-36317492D01*
X-3494472Y-36317492D01*
X-3494456Y-36317491D01*
X-3434928Y-36311090D01*
X-3434921Y-36311088D01*
X-3300214Y-36260846D01*
X-3300207Y-36260842D01*
X-3185113Y-36174682D01*
X-3185110Y-36174679D01*
X-3098950Y-36059585D01*
X-3098946Y-36059578D01*
X-3048704Y-35924871D01*
X-3048702Y-35924864D01*
X-3042301Y-35865336D01*
X-3042300Y-35865319D01*
X-3042300Y-35799992D01*
X-4144000Y-35799992D01*
X-4144000Y-36317492D01*
X-4744000Y-36317492D01*
X-4744000Y-35799992D01*
X-5845700Y-35799992D01*
X-5845700Y-35865336D01*
X-5840107Y-35917347D01*
X-5852512Y-35986107D01*
X-5900122Y-36037244D01*
X-5963396Y-36054603D01*
X-6314001Y-36054603D01*
X-6314001Y-37726003D01*
X-6333686Y-37793042D01*
X-6386490Y-37838797D01*
X-6438001Y-37850003D01*
X-6790001Y-37850003D01*
X-6857040Y-37830318D01*
X-6902795Y-37777514D01*
X-6914001Y-37726003D01*
X-6914001Y-36054603D01*
X-8160446Y-36054603D01*
X-8219974Y-36061004D01*
X-8219981Y-36061006D01*
X-8354688Y-36111248D01*
X-8354695Y-36111252D01*
X-8469789Y-36197412D01*
X-8469792Y-36197415D01*
X-8555952Y-36312509D01*
X-8555956Y-36312516D01*
X-8606198Y-36447223D01*
X-8606200Y-36447230D01*
X-8612601Y-36506758D01*
X-8612601Y-37370500D01*
X-8632286Y-37437539D01*
X-8685090Y-37483294D01*
X-8736601Y-37494500D01*
X-11370500Y-37494500D01*
X-11437539Y-37474815D01*
X-11483294Y-37422011D01*
X-11494500Y-37370500D01*
X-11494500Y-23493241D01*
X-8612601Y-23493241D01*
X-8606200Y-23552769D01*
X-8606198Y-23552776D01*
X-8555956Y-23687483D01*
X-8555952Y-23687490D01*
X-8469792Y-23802584D01*
X-8469789Y-23802587D01*
X-8354695Y-23888747D01*
X-8354688Y-23888751D01*
X-8219981Y-23938993D01*
X-8219974Y-23938995D01*
X-8160446Y-23945396D01*
X-8160429Y-23945397D01*
X-6914001Y-23945397D01*
X-6314001Y-23945397D01*
X-5963396Y-23945397D01*
X-5896357Y-23965082D01*
X-5850602Y-24017886D01*
X-5840107Y-24082653D01*
X-5845700Y-24134663D01*
X-5845700Y-24200008D01*
X-4744000Y-24200008D01*
X-4144000Y-24200008D01*
X-3042300Y-24200008D01*
X-3042300Y-24134680D01*
X-3042301Y-24134663D01*
X-3048702Y-24075135D01*
X-3048704Y-24075128D01*
X-3098946Y-23940421D01*
X-3098950Y-23940414D01*
X-3185110Y-23825320D01*
X-3185113Y-23825317D01*
X-3300207Y-23739157D01*
X-3300214Y-23739153D01*
X-3434921Y-23688911D01*
X-3434928Y-23688909D01*
X-3494456Y-23682508D01*
X-4144000Y-23682508D01*
X-4144000Y-24200008D01*
X-4744000Y-24200008D01*
X-4744000Y-23676508D01*
X-4724315Y-23609469D01*
X-4672868Y-23564343D01*
X-4620388Y-23539606D01*
X-4615403Y-23493235D01*
X-4615401Y-23493216D01*
X-4615401Y-22449997D01*
X-6314001Y-22449997D01*
X-6314001Y-23945397D01*
X-6914001Y-23945397D01*
X-6914001Y-22449997D01*
X-8612601Y-22449997D01*
X-8612601Y-23493241D01*
X-11494500Y-23493241D01*
X-11494500Y-20806752D01*
X-8612601Y-20806752D01*
X-8612601Y-21849997D01*
X-6914001Y-21849997D01*
X-6314001Y-21849997D01*
X-4615401Y-21849997D01*
X-4615401Y-20806769D01*
X-4615402Y-20806752D01*
X-4621803Y-20747224D01*
X-4621805Y-20747217D01*
X-4672047Y-20612510D01*
X-4672051Y-20612503D01*
X-4758211Y-20497409D01*
X-4758214Y-20497406D01*
X-4873308Y-20411246D01*
X-4873315Y-20411242D01*
X-5008022Y-20361000D01*
X-5008029Y-20360998D01*
X-5067557Y-20354597D01*
X-6314001Y-20354597D01*
X-6314001Y-21849997D01*
X-6914001Y-21849997D01*
X-6914001Y-20354597D01*
X-8160446Y-20354597D01*
X-8219974Y-20360998D01*
X-8219981Y-20361000D01*
X-8354688Y-20411242D01*
X-8354695Y-20411246D01*
X-8469789Y-20497406D01*
X-8469792Y-20497409D01*
X-8555952Y-20612503D01*
X-8555956Y-20612510D01*
X-8606198Y-20747217D01*
X-8606200Y-20747224D01*
X-8612601Y-20806752D01*
X-11494500Y-20806752D01*
X-11494500Y-19193247D01*
X-8612601Y-19193247D01*
X-8606200Y-19252775D01*
X-8606198Y-19252782D01*
X-8555956Y-19387489D01*
X-8555952Y-19387496D01*
X-8469792Y-19502590D01*
X-8469789Y-19502593D01*
X-8354695Y-19588753D01*
X-8354688Y-19588757D01*
X-8219981Y-19638999D01*
X-8219974Y-19639001D01*
X-8160446Y-19645402D01*
X-8160429Y-19645403D01*
X-6914001Y-19645403D01*
X-6314001Y-19645403D01*
X-5067573Y-19645403D01*
X-5067557Y-19645402D01*
X-5008029Y-19639001D01*
X-5008022Y-19638999D01*
X-4873315Y-19588757D01*
X-4873308Y-19588753D01*
X-4758214Y-19502593D01*
X-4758211Y-19502590D01*
X-4672051Y-19387496D01*
X-4672047Y-19387489D01*
X-4621805Y-19252782D01*
X-4621803Y-19252775D01*
X-4615402Y-19193247D01*
X-4615401Y-19193230D01*
X-4615401Y-18150003D01*
X-6314001Y-18150003D01*
X-6314001Y-19645403D01*
X-6914001Y-19645403D01*
X-6914001Y-18150003D01*
X-8612601Y-18150003D01*
X-8612601Y-19193247D01*
X-11494500Y-19193247D01*
X-11494500Y-16506758D01*
X-8612601Y-16506758D01*
X-8612601Y-17550003D01*
X-6914001Y-17550003D01*
X-6914001Y-16054603D01*
X-6314001Y-16054603D01*
X-6314001Y-17550003D01*
X-4615401Y-17550003D01*
X-4615401Y-16506783D01*
X-4615403Y-16506764D01*
X-4621775Y-16447492D01*
X-4622638Y-16446717D01*
X-4687039Y-16427807D01*
X-4732794Y-16375003D01*
X-4744000Y-16323492D01*
X-4744000Y-16317492D01*
X-4144000Y-16317492D01*
X-3494472Y-16317492D01*
X-3494456Y-16317491D01*
X-3434928Y-16311090D01*
X-3434921Y-16311088D01*
X-3300214Y-16260846D01*
X-3300207Y-16260842D01*
X-3185113Y-16174682D01*
X-3185110Y-16174679D01*
X-3098950Y-16059585D01*
X-3098946Y-16059578D01*
X-3048704Y-15924871D01*
X-3048702Y-15924864D01*
X-3042301Y-15865336D01*
X-3042300Y-15865319D01*
X-3042300Y-15799992D01*
X-4144000Y-15799992D01*
X-4144000Y-16317492D01*
X-4744000Y-16317492D01*
X-4744000Y-15799992D01*
X-5845700Y-15799992D01*
X-5845700Y-15865336D01*
X-5840107Y-15917347D01*
X-5852512Y-15986107D01*
X-5900122Y-16037244D01*
X-5963396Y-16054603D01*
X-6314001Y-16054603D01*
X-6914001Y-16054603D01*
X-8160446Y-16054603D01*
X-8219974Y-16061004D01*
X-8219981Y-16061006D01*
X-8354688Y-16111248D01*
X-8354695Y-16111252D01*
X-8469789Y-16197412D01*
X-8469792Y-16197415D01*
X-8555952Y-16312509D01*
X-8555956Y-16312516D01*
X-8606198Y-16447223D01*
X-8606200Y-16447230D01*
X-8612601Y-16506758D01*
X-11494500Y-16506758D01*
X-11494500Y-5411304D01*
X-7900500Y-5411304D01*
X-7900500Y-5588695D01*
X-7865897Y-5762658D01*
X-7865894Y-5762667D01*
X-7798017Y-5926540D01*
X-7798010Y-5926553D01*
X-7794963Y-5931113D01*
X-7774088Y-5997792D01*
X-7792575Y-6065171D01*
X-7794963Y-6068887D01*
X-7798010Y-6073446D01*
X-7798017Y-6073459D01*
X-7865894Y-6237332D01*
X-7865897Y-6237341D01*
X-7900500Y-6411304D01*
X-7900500Y-6588695D01*
X-7865897Y-6762658D01*
X-7865894Y-6762667D01*
X-7798017Y-6926540D01*
X-7798010Y-6926553D01*
X-7794963Y-6931113D01*
X-7774088Y-6997792D01*
X-7792575Y-7065171D01*
X-7794963Y-7068887D01*
X-7798010Y-7073446D01*
X-7798017Y-7073459D01*
X-7865894Y-7237332D01*
X-7865897Y-7237341D01*
X-7900500Y-7411304D01*
X-7900500Y-7588695D01*
X-7865897Y-7762658D01*
X-7865894Y-7762667D01*
X-7798017Y-7926540D01*
X-7798010Y-7926553D01*
X-7794963Y-7931113D01*
X-7774088Y-7997792D01*
X-7792575Y-8065171D01*
X-7794963Y-8068887D01*
X-7798010Y-8073446D01*
X-7798017Y-8073459D01*
X-7865894Y-8237332D01*
X-7865897Y-8237341D01*
X-7900500Y-8411304D01*
X-7900500Y-8588695D01*
X-7865897Y-8762658D01*
X-7865894Y-8762667D01*
X-7798017Y-8926540D01*
X-7798010Y-8926553D01*
X-7794963Y-8931113D01*
X-7774088Y-8997792D01*
X-7792575Y-9065171D01*
X-7794963Y-9068887D01*
X-7798010Y-9073446D01*
X-7798017Y-9073459D01*
X-7865894Y-9237332D01*
X-7865897Y-9237341D01*
X-7900500Y-9411304D01*
X-7900500Y-9588695D01*
X-7865897Y-9762658D01*
X-7865894Y-9762667D01*
X-7798017Y-9926540D01*
X-7798010Y-9926553D01*
X-7794963Y-9931113D01*
X-7774088Y-9997792D01*
X-7792575Y-10065171D01*
X-7794963Y-10068887D01*
X-7798010Y-10073446D01*
X-7798017Y-10073459D01*
X-7865894Y-10237332D01*
X-7865897Y-10237341D01*
X-7900500Y-10411304D01*
X-7900500Y-10588695D01*
X-7865897Y-10762658D01*
X-7865894Y-10762667D01*
X-7798017Y-10926540D01*
X-7798010Y-10926553D01*
X-7794963Y-10931113D01*
X-7774088Y-10997792D01*
X-7792575Y-11065171D01*
X-7794963Y-11068887D01*
X-7798010Y-11073446D01*
X-7798017Y-11073459D01*
X-7865894Y-11237332D01*
X-7865897Y-11237341D01*
X-7900500Y-11411304D01*
X-7900500Y-11588695D01*
X-7865897Y-11762658D01*
X-7865894Y-11762667D01*
X-7798017Y-11926540D01*
X-7798010Y-11926553D01*
X-7794963Y-11931113D01*
X-7774088Y-11997792D01*
X-7792575Y-12065171D01*
X-7794963Y-12068887D01*
X-7798010Y-12073446D01*
X-7798017Y-12073459D01*
X-7865894Y-12237332D01*
X-7865897Y-12237341D01*
X-7900500Y-12411304D01*
X-7900500Y-12588695D01*
X-7865897Y-12762658D01*
X-7865894Y-12762667D01*
X-7798017Y-12926540D01*
X-7798010Y-12926553D01*
X-7794963Y-12931113D01*
X-7774088Y-12997792D01*
X-7792575Y-13065171D01*
X-7794963Y-13068887D01*
X-7798010Y-13073446D01*
X-7798017Y-13073459D01*
X-7865894Y-13237332D01*
X-7865897Y-13237341D01*
X-7900500Y-13411304D01*
X-7900500Y-13588695D01*
X-7865897Y-13762658D01*
X-7865894Y-13762667D01*
X-7798017Y-13926540D01*
X-7798010Y-13926553D01*
X-7794963Y-13931113D01*
X-7774088Y-13997792D01*
X-7792575Y-14065171D01*
X-7794963Y-14068887D01*
X-7798010Y-14073446D01*
X-7798017Y-14073459D01*
X-7865894Y-14237332D01*
X-7865897Y-14237341D01*
X-7900500Y-14411304D01*
X-7900500Y-14588695D01*
X-7865897Y-14762658D01*
X-7865894Y-14762667D01*
X-7798017Y-14926540D01*
X-7798010Y-14926553D01*
X-7699465Y-15074034D01*
X-7699462Y-15074038D01*
X-7574039Y-15199461D01*
X-7574035Y-15199464D01*
X-7426554Y-15298009D01*
X-7426541Y-15298016D01*
X-7303637Y-15348923D01*
X-7262666Y-15365894D01*
X-7262664Y-15365894D01*
X-7262659Y-15365896D01*
X-7088696Y-15400499D01*
X-7088693Y-15400500D01*
X-7088691Y-15400500D01*
X-6911307Y-15400500D01*
X-6911306Y-15400499D01*
X-6853318Y-15388964D01*
X-6737342Y-15365896D01*
X-6737339Y-15365894D01*
X-6737334Y-15365894D01*
X-6573453Y-15298013D01*
X-6458791Y-15221397D01*
X-6392114Y-15200520D01*
X-6389900Y-15200500D01*
X-5710508Y-15200500D01*
X-5643469Y-15220185D01*
X-5636197Y-15225233D01*
X-5605993Y-15247844D01*
X-5588032Y-15261289D01*
X-5588029Y-15261291D01*
X-5453183Y-15311585D01*
X-5453184Y-15311585D01*
X-5446256Y-15312329D01*
X-5393573Y-15317994D01*
X-3494428Y-15317993D01*
X-3434817Y-15311585D01*
X-3299969Y-15261290D01*
X-3251125Y-15224725D01*
X-3185663Y-15200308D01*
X-3176815Y-15199992D01*
X-3042300Y-15199992D01*
X-3042300Y-15134664D01*
X-3042301Y-15134647D01*
X-3048702Y-15075119D01*
X-3048704Y-15075111D01*
X-3060292Y-15044042D01*
X-3065277Y-14974350D01*
X-3060298Y-14957386D01*
X-3048209Y-14924977D01*
X-3041800Y-14865367D01*
X-3041801Y-14134622D01*
X-3048209Y-14075011D01*
X-3048793Y-14073446D01*
X-3060026Y-14043330D01*
X-3065012Y-13973639D01*
X-3060031Y-13956672D01*
X-3048209Y-13924979D01*
X-3041800Y-13865369D01*
X-3041801Y-13134624D01*
X-3048209Y-13075013D01*
X-3048789Y-13073459D01*
X-3060026Y-13043332D01*
X-3065012Y-12973641D01*
X-3060031Y-12956674D01*
X-3048209Y-12924981D01*
X-3041800Y-12865371D01*
X-3041801Y-12134626D01*
X-3048209Y-12075015D01*
X-3048792Y-12073453D01*
X-3053943Y-12059644D01*
X-3060027Y-12043332D01*
X-3065012Y-11973643D01*
X-3060031Y-11956676D01*
X-3048209Y-11924983D01*
X-3041800Y-11865373D01*
X-3041801Y-11134628D01*
X-3048209Y-11075017D01*
X-3051881Y-11065171D01*
X-3060026Y-11043333D01*
X-3065011Y-10973642D01*
X-3060029Y-10956670D01*
X-3048209Y-10924983D01*
X-3041800Y-10865373D01*
X-3041801Y-10134628D01*
X-3048209Y-10075017D01*
X-3051881Y-10065171D01*
X-3060026Y-10043333D01*
X-3065011Y-9973642D01*
X-3060029Y-9956670D01*
X-3048209Y-9924983D01*
X-3041800Y-9865373D01*
X-3041801Y-9134628D01*
X-3048209Y-9075017D01*
X-3051881Y-9065171D01*
X-3060026Y-9043333D01*
X-3065011Y-8973642D01*
X-3060029Y-8956670D01*
X-3048209Y-8924983D01*
X-3041800Y-8865373D01*
X-3041801Y-8134628D01*
X-3048209Y-8075017D01*
X-3060027Y-8043334D01*
X-3065012Y-7973645D01*
X-3060031Y-7956678D01*
X-3048209Y-7924985D01*
X-3041800Y-7865375D01*
X-3041801Y-7134630D01*
X-3048209Y-7075019D01*
X-3048796Y-7073446D01*
X-3060026Y-7043338D01*
X-3065012Y-6973647D01*
X-3060031Y-6956680D01*
X-3048209Y-6924987D01*
X-3041800Y-6865377D01*
X-3041801Y-6134632D01*
X-3048209Y-6075021D01*
X-3048792Y-6073459D01*
X-3060026Y-6043340D01*
X-3061721Y-6019648D01*
X-3067801Y-5996689D01*
X-3064558Y-5979995D01*
X-3065012Y-5973649D01*
X-3061846Y-5961901D01*
X-3061004Y-5959291D01*
X-3048209Y-5924989D01*
X-3047352Y-5917012D01*
X-3043429Y-5904865D01*
X-3030665Y-5886123D01*
X-3021989Y-5865173D01*
X-3011373Y-5857800D01*
X-3004097Y-5847118D01*
X-2983227Y-5838252D01*
X-2964601Y-5825318D01*
X-2951685Y-5824855D01*
X-2939788Y-5819802D01*
X-2917438Y-5823628D01*
X-2894776Y-5822816D01*
X-2883660Y-5829410D01*
X-2870920Y-5831591D01*
X-2854186Y-5846893D01*
X-2834683Y-5858462D01*
X-2824915Y-5873660D01*
X-2819358Y-5878741D01*
X-2817754Y-5884801D01*
X-2810867Y-5895515D01*
X-2798015Y-5926544D01*
X-2721398Y-6041208D01*
X-2700520Y-6107885D01*
X-2700500Y-6110099D01*
X-2700500Y-24889899D01*
X-2709893Y-24921887D01*
X-2718425Y-24954118D01*
X-2720156Y-24956837D01*
X-2720185Y-24956938D01*
X-2720326Y-24957104D01*
X-2721398Y-24958790D01*
X-2798012Y-25073449D01*
X-2798013Y-25073451D01*
X-2810869Y-25104488D01*
X-2854711Y-25158891D01*
X-2921006Y-25180954D01*
X-2988705Y-25163673D01*
X-3036314Y-25112535D01*
X-3045192Y-25082282D01*
X-3046424Y-25082574D01*
X-3048209Y-25075022D01*
X-3060292Y-25042626D01*
X-3061757Y-25022151D01*
X-3068066Y-25002616D01*
X-3064199Y-24988007D01*
X-3065277Y-24972935D01*
X-3060293Y-24955958D01*
X-3048702Y-24924880D01*
X-3042301Y-24865352D01*
X-3042300Y-24865335D01*
X-3042300Y-24800008D01*
X-3176815Y-24800008D01*
X-3243854Y-24780323D01*
X-3251112Y-24775284D01*
X-3299969Y-24738710D01*
X-3299972Y-24738708D01*
X-3434818Y-24688414D01*
X-3434817Y-24688414D01*
X-3494417Y-24682007D01*
X-3494419Y-24682006D01*
X-3494427Y-24682006D01*
X-3494435Y-24682006D01*
X-5393571Y-24682006D01*
X-5393577Y-24682007D01*
X-5453184Y-24688414D01*
X-5588029Y-24738708D01*
X-5588032Y-24738710D01*
X-5636197Y-24774767D01*
X-5701661Y-24799184D01*
X-5710508Y-24799500D01*
X-6389900Y-24799500D01*
X-6456939Y-24779815D01*
X-6458791Y-24778602D01*
X-6573451Y-24701988D01*
X-6573453Y-24701987D01*
X-6737333Y-24634106D01*
X-6737342Y-24634103D01*
X-6911306Y-24599500D01*
X-6911309Y-24599500D01*
X-7088691Y-24599500D01*
X-7088694Y-24599500D01*
X-7262659Y-24634103D01*
X-7262668Y-24634106D01*
X-7426541Y-24701983D01*
X-7426554Y-24701990D01*
X-7574035Y-24800535D01*
X-7574039Y-24800538D01*
X-7699462Y-24925961D01*
X-7699465Y-24925965D01*
X-7798010Y-25073446D01*
X-7798017Y-25073459D01*
X-7865894Y-25237332D01*
X-7865897Y-25237341D01*
X-7900500Y-25411304D01*
X-7900500Y-25588695D01*
X-7865897Y-25762658D01*
X-7865894Y-25762667D01*
X-7798017Y-25926540D01*
X-7798010Y-25926553D01*
X-7794963Y-25931113D01*
X-7774088Y-25997792D01*
X-7792575Y-26065171D01*
X-7794963Y-26068887D01*
X-7798010Y-26073446D01*
X-7798017Y-26073459D01*
X-7865894Y-26237332D01*
X-7865897Y-26237341D01*
X-7900500Y-26411304D01*
X-7900500Y-26588695D01*
X-7865897Y-26762658D01*
X-7865894Y-26762667D01*
X-7798017Y-26926540D01*
X-7798010Y-26926553D01*
X-7794963Y-26931113D01*
X-7774088Y-26997792D01*
X-7792575Y-27065171D01*
X-7794963Y-27068887D01*
X-7798010Y-27073446D01*
X-7798017Y-27073459D01*
X-7865894Y-27237332D01*
X-7865897Y-27237341D01*
X-7900500Y-27411304D01*
X-7900500Y-27588695D01*
X-7865897Y-27762658D01*
X-7865894Y-27762667D01*
X-7798017Y-27926540D01*
X-7798010Y-27926553D01*
X-7794963Y-27931113D01*
X-7774088Y-27997792D01*
X-7792575Y-28065171D01*
X-7794963Y-28068887D01*
X-7798010Y-28073446D01*
X-7798017Y-28073459D01*
X-7865894Y-28237332D01*
X-7865897Y-28237341D01*
X-7900500Y-28411304D01*
X-7900500Y-28588695D01*
X-7865897Y-28762658D01*
X-7865894Y-28762667D01*
X-7798017Y-28926540D01*
X-7798010Y-28926553D01*
X-7794963Y-28931113D01*
X-7774088Y-28997792D01*
X-7792575Y-29065171D01*
X-7794963Y-29068887D01*
X-7798010Y-29073446D01*
X-7798017Y-29073459D01*
X-7865894Y-29237332D01*
X-7865897Y-29237341D01*
X-7900500Y-29411304D01*
X-7900500Y-29588695D01*
X-7865897Y-29762658D01*
X-7865894Y-29762667D01*
X-7798017Y-29926540D01*
X-7798010Y-29926553D01*
X-7794963Y-29931113D01*
X-7774088Y-29997792D01*
X-7792575Y-30065171D01*
X-7794963Y-30068887D01*
X-7798010Y-30073446D01*
X-7798017Y-30073459D01*
X-7865894Y-30237332D01*
X-7865897Y-30237341D01*
X-7900500Y-30411304D01*
X-7900500Y-30588695D01*
X-7865897Y-30762658D01*
X-7865894Y-30762667D01*
X-7798017Y-30926540D01*
X-7798010Y-30926553D01*
X-7794963Y-30931113D01*
X-7774088Y-30997792D01*
X-7792575Y-31065171D01*
X-7794963Y-31068887D01*
X-7798010Y-31073446D01*
X-7798017Y-31073459D01*
X-7865894Y-31237332D01*
X-7865897Y-31237341D01*
X-7900500Y-31411304D01*
X-7900500Y-31588695D01*
X-7865897Y-31762658D01*
X-7865894Y-31762667D01*
X-7798017Y-31926540D01*
X-7798010Y-31926553D01*
X-7794963Y-31931113D01*
X-7774088Y-31997792D01*
X-7792575Y-32065171D01*
X-7794963Y-32068887D01*
X-7798010Y-32073446D01*
X-7798017Y-32073459D01*
X-7865894Y-32237332D01*
X-7865897Y-32237341D01*
X-7900500Y-32411304D01*
X-7900500Y-32588695D01*
X-7865897Y-32762658D01*
X-7865894Y-32762667D01*
X-7798017Y-32926540D01*
X-7798010Y-32926553D01*
X-7794963Y-32931113D01*
X-7774088Y-32997792D01*
X-7792575Y-33065171D01*
X-7794963Y-33068887D01*
X-7798010Y-33073446D01*
X-7798017Y-33073459D01*
X-7865894Y-33237332D01*
X-7865897Y-33237341D01*
X-7900500Y-33411304D01*
X-7900500Y-33588695D01*
X-7865897Y-33762658D01*
X-7865894Y-33762667D01*
X-7798017Y-33926540D01*
X-7798010Y-33926553D01*
X-7794963Y-33931113D01*
X-7774088Y-33997792D01*
X-7792575Y-34065171D01*
X-7794963Y-34068887D01*
X-7798010Y-34073446D01*
X-7798017Y-34073459D01*
X-7865894Y-34237332D01*
X-7865897Y-34237341D01*
X-7900500Y-34411304D01*
X-7900500Y-34588695D01*
X-7865897Y-34762658D01*
X-7865894Y-34762667D01*
X-7798017Y-34926540D01*
X-7798010Y-34926553D01*
X-7699465Y-35074034D01*
X-7699462Y-35074038D01*
X-7574039Y-35199461D01*
X-7574035Y-35199464D01*
X-7426554Y-35298009D01*
X-7426541Y-35298016D01*
X-7303637Y-35348923D01*
X-7262666Y-35365894D01*
X-7262664Y-35365894D01*
X-7262659Y-35365896D01*
X-7088696Y-35400499D01*
X-7088693Y-35400500D01*
X-7088691Y-35400500D01*
X-6911307Y-35400500D01*
X-6911306Y-35400499D01*
X-6853318Y-35388964D01*
X-6737342Y-35365896D01*
X-6737339Y-35365894D01*
X-6737334Y-35365894D01*
X-6573453Y-35298013D01*
X-6458791Y-35221397D01*
X-6392114Y-35200520D01*
X-6389900Y-35200500D01*
X-5710508Y-35200500D01*
X-5643469Y-35220185D01*
X-5636197Y-35225233D01*
X-5588032Y-35261289D01*
X-5588029Y-35261291D01*
X-5453183Y-35311585D01*
X-5453184Y-35311585D01*
X-5446256Y-35312329D01*
X-5393573Y-35317994D01*
X-3494428Y-35317993D01*
X-3434817Y-35311585D01*
X-3299969Y-35261290D01*
X-3251125Y-35224725D01*
X-3185663Y-35200308D01*
X-3176815Y-35199992D01*
X-3042300Y-35199992D01*
X-3042300Y-35134664D01*
X-3042301Y-35134647D01*
X-3048702Y-35075119D01*
X-3048704Y-35075111D01*
X-3060292Y-35044042D01*
X-3065277Y-34974350D01*
X-3060298Y-34957386D01*
X-3048209Y-34924977D01*
X-3041800Y-34865367D01*
X-3041801Y-34134622D01*
X-3048209Y-34075011D01*
X-3048792Y-34073449D01*
X-3055618Y-34055146D01*
X-3060027Y-34043328D01*
X-3065012Y-33973639D01*
X-3060031Y-33956672D01*
X-3048209Y-33924979D01*
X-3041800Y-33865369D01*
X-3041801Y-33134624D01*
X-3048209Y-33075013D01*
X-3048573Y-33074038D01*
X-3055674Y-33055000D01*
X-3060027Y-33043330D01*
X-3065012Y-32973641D01*
X-3060031Y-32956674D01*
X-3048209Y-32924981D01*
X-3041800Y-32865371D01*
X-3041801Y-32134626D01*
X-3048209Y-32075015D01*
X-3048575Y-32074035D01*
X-3060026Y-32043334D01*
X-3065012Y-31973643D01*
X-3060031Y-31956676D01*
X-3048209Y-31924983D01*
X-3041800Y-31865373D01*
X-3041801Y-31134628D01*
X-3048209Y-31075017D01*
X-3051881Y-31065171D01*
X-3060026Y-31043333D01*
X-3065011Y-30973642D01*
X-3060029Y-30956670D01*
X-3048209Y-30924983D01*
X-3041800Y-30865373D01*
X-3041801Y-30134628D01*
X-3048209Y-30075017D01*
X-3051881Y-30065171D01*
X-3060026Y-30043333D01*
X-3065011Y-29973642D01*
X-3060029Y-29956670D01*
X-3048209Y-29924983D01*
X-3041800Y-29865373D01*
X-3041801Y-29134628D01*
X-3048209Y-29075017D01*
X-3055675Y-29055000D01*
X-3060026Y-29043333D01*
X-3065011Y-28973642D01*
X-3060029Y-28956670D01*
X-3048209Y-28924983D01*
X-3041800Y-28865373D01*
X-3041801Y-28134628D01*
X-3048209Y-28075017D01*
X-3048576Y-28074034D01*
X-3060026Y-28043336D01*
X-3065012Y-27973645D01*
X-3060031Y-27956678D01*
X-3048209Y-27924985D01*
X-3041800Y-27865375D01*
X-3041801Y-27134630D01*
X-3048209Y-27075019D01*
X-3048796Y-27073446D01*
X-3060026Y-27043338D01*
X-3065012Y-26973647D01*
X-3060031Y-26956680D01*
X-3048209Y-26924987D01*
X-3041800Y-26865377D01*
X-3041801Y-26134632D01*
X-3048209Y-26075021D01*
X-3048576Y-26074038D01*
X-3060026Y-26043340D01*
X-3061721Y-26019648D01*
X-3067801Y-25996689D01*
X-3064558Y-25979995D01*
X-3065012Y-25973649D01*
X-3061846Y-25961901D01*
X-3061004Y-25959291D01*
X-3048209Y-25924989D01*
X-3047352Y-25917012D01*
X-3043429Y-25904865D01*
X-3030665Y-25886123D01*
X-3021989Y-25865173D01*
X-3011373Y-25857800D01*
X-3004097Y-25847118D01*
X-2983227Y-25838252D01*
X-2964601Y-25825318D01*
X-2951685Y-25824855D01*
X-2939788Y-25819802D01*
X-2917438Y-25823628D01*
X-2894776Y-25822816D01*
X-2883660Y-25829410D01*
X-2870920Y-25831591D01*
X-2854186Y-25846893D01*
X-2834683Y-25858462D01*
X-2824915Y-25873660D01*
X-2819358Y-25878741D01*
X-2817754Y-25884801D01*
X-2810867Y-25895515D01*
X-2798015Y-25926544D01*
X-2798010Y-25926553D01*
X-2699465Y-26074034D01*
X-2699462Y-26074038D01*
X-2574039Y-26199461D01*
X-2574035Y-26199464D01*
X-2426554Y-26298009D01*
X-2426541Y-26298016D01*
X-2303637Y-26348923D01*
X-2262666Y-26365894D01*
X-2262664Y-26365894D01*
X-2262659Y-26365896D01*
X-2088696Y-26400499D01*
X-2088693Y-26400500D01*
X-2024500Y-26400500D01*
X-1957461Y-26420185D01*
X-1911706Y-26472989D01*
X-1900500Y-26524500D01*
X-1900500Y-26588695D01*
X-1865897Y-26762658D01*
X-1865894Y-26762667D01*
X-1798017Y-26926540D01*
X-1798010Y-26926553D01*
X-1699465Y-27074034D01*
X-1699462Y-27074038D01*
X-1574039Y-27199461D01*
X-1574035Y-27199464D01*
X-1426554Y-27298009D01*
X-1426541Y-27298016D01*
X-1303637Y-27348923D01*
X-1262666Y-27365894D01*
X-1262664Y-27365894D01*
X-1262659Y-27365896D01*
X-1088696Y-27400499D01*
X-1088693Y-27400500D01*
X-1024500Y-27400500D01*
X-957461Y-27420185D01*
X-911706Y-27472989D01*
X-900500Y-27524500D01*
X-900500Y-27588695D01*
X-865897Y-27762658D01*
X-865894Y-27762667D01*
X-798017Y-27926540D01*
X-798010Y-27926553D01*
X-699465Y-28074034D01*
X-699462Y-28074038D01*
X-574039Y-28199461D01*
X-574035Y-28199464D01*
X-426554Y-28298009D01*
X-426541Y-28298016D01*
X-303637Y-28348923D01*
X-262666Y-28365894D01*
X-262664Y-28365894D01*
X-262659Y-28365896D01*
X-88696Y-28400499D01*
X-88693Y-28400500D01*
X-24500Y-28400500D01*
X42539Y-28420185D01*
X88294Y-28472989D01*
X99500Y-28524500D01*
X99500Y-28588695D01*
X134103Y-28762658D01*
X134106Y-28762667D01*
X201983Y-28926540D01*
X201990Y-28926553D01*
X300535Y-29074034D01*
X300538Y-29074038D01*
X425961Y-29199461D01*
X425965Y-29199464D01*
X573446Y-29298009D01*
X573459Y-29298016D01*
X696363Y-29348923D01*
X737334Y-29365894D01*
X737336Y-29365894D01*
X737341Y-29365896D01*
X911304Y-29400499D01*
X911307Y-29400500D01*
X975500Y-29400500D01*
X1042539Y-29420185D01*
X1088294Y-29472989D01*
X1099500Y-29524500D01*
X1099500Y-29588695D01*
X1134103Y-29762658D01*
X1134106Y-29762667D01*
X1201983Y-29926540D01*
X1201990Y-29926553D01*
X1300535Y-30074034D01*
X1300538Y-30074038D01*
X1425961Y-30199461D01*
X1425965Y-30199464D01*
X1573446Y-30298009D01*
X1573459Y-30298016D01*
X1696363Y-30348923D01*
X1737334Y-30365894D01*
X1737336Y-30365894D01*
X1737341Y-30365896D01*
X1911304Y-30400499D01*
X1911307Y-30400500D01*
X1975500Y-30400500D01*
X2042539Y-30420185D01*
X2088294Y-30472989D01*
X2099500Y-30524500D01*
X2099500Y-30588695D01*
X2134103Y-30762658D01*
X2134106Y-30762667D01*
X2201983Y-30926540D01*
X2201990Y-30926553D01*
X2300535Y-31074034D01*
X2300538Y-31074038D01*
X2425961Y-31199461D01*
X2425965Y-31199464D01*
X2573446Y-31298009D01*
X2573459Y-31298016D01*
X2696363Y-31348923D01*
X2737334Y-31365894D01*
X2737336Y-31365894D01*
X2737341Y-31365896D01*
X2911304Y-31400499D01*
X2911307Y-31400500D01*
X2975500Y-31400500D01*
X3042539Y-31420185D01*
X3088294Y-31472989D01*
X3099500Y-31524500D01*
X3099500Y-31588695D01*
X3134103Y-31762658D01*
X3134106Y-31762667D01*
X3201983Y-31926540D01*
X3201990Y-31926553D01*
X3300535Y-32074034D01*
X3300538Y-32074038D01*
X3425961Y-32199461D01*
X3425965Y-32199464D01*
X3573446Y-32298009D01*
X3573459Y-32298016D01*
X3696363Y-32348923D01*
X3737334Y-32365894D01*
X3737336Y-32365894D01*
X3737341Y-32365896D01*
X3911304Y-32400499D01*
X3911307Y-32400500D01*
X3975500Y-32400500D01*
X4042539Y-32420185D01*
X4088294Y-32472989D01*
X4099500Y-32524500D01*
X4099500Y-32588695D01*
X4134103Y-32762658D01*
X4134106Y-32762667D01*
X4201983Y-32926540D01*
X4201990Y-32926553D01*
X4300535Y-33074034D01*
X4300538Y-33074038D01*
X4425961Y-33199461D01*
X4425965Y-33199464D01*
X4573446Y-33298009D01*
X4573459Y-33298016D01*
X4696363Y-33348923D01*
X4737334Y-33365894D01*
X4737336Y-33365894D01*
X4737341Y-33365896D01*
X4911304Y-33400499D01*
X4911307Y-33400500D01*
X4975500Y-33400500D01*
X5042539Y-33420185D01*
X5088294Y-33472989D01*
X5099500Y-33524500D01*
X5099500Y-33588695D01*
X5134103Y-33762658D01*
X5134106Y-33762667D01*
X5201983Y-33926540D01*
X5201990Y-33926553D01*
X5300535Y-34074034D01*
X5300538Y-34074038D01*
X5425961Y-34199461D01*
X5425965Y-34199464D01*
X5573446Y-34298009D01*
X5573459Y-34298016D01*
X5693660Y-34347804D01*
X5737334Y-34365894D01*
X5737336Y-34365894D01*
X5737341Y-34365896D01*
X5911304Y-34400499D01*
X5911307Y-34400500D01*
X5975500Y-34400500D01*
X6042539Y-34420185D01*
X6088294Y-34472989D01*
X6099500Y-34524500D01*
X6099500Y-34588695D01*
X6134103Y-34762658D01*
X6134106Y-34762667D01*
X6201983Y-34926540D01*
X6201990Y-34926553D01*
X6300535Y-35074034D01*
X6300538Y-35074038D01*
X6425961Y-35199461D01*
X6425965Y-35199464D01*
X6573446Y-35298009D01*
X6573459Y-35298016D01*
X6696363Y-35348923D01*
X6737334Y-35365894D01*
X6737336Y-35365894D01*
X6737341Y-35365896D01*
X6911304Y-35400499D01*
X6911307Y-35400500D01*
X6911309Y-35400500D01*
X7088693Y-35400500D01*
X7088694Y-35400499D01*
X7146682Y-35388964D01*
X7262658Y-35365896D01*
X7262661Y-35365894D01*
X7262666Y-35365894D01*
X7426547Y-35298013D01*
X7574035Y-35199464D01*
X7699464Y-35074035D01*
X7798013Y-34926547D01*
X7865894Y-34762666D01*
X7900500Y-34588691D01*
X7900500Y-34411309D01*
X7900500Y-34411306D01*
X7900499Y-34411304D01*
X7865896Y-34237341D01*
X7865893Y-34237332D01*
X7850208Y-34199464D01*
X7798013Y-34073453D01*
X7798011Y-34073451D01*
X7798011Y-34073449D01*
X7721398Y-33958790D01*
X7700520Y-33892112D01*
X7700500Y-33889899D01*
X7700500Y-29247844D01*
X13260000Y-29247844D01*
X13266401Y-29307372D01*
X13266403Y-29307379D01*
X13316645Y-29442086D01*
X13316649Y-29442093D01*
X13402809Y-29557187D01*
X13402812Y-29557190D01*
X13517906Y-29643350D01*
X13517913Y-29643354D01*
X13652620Y-29693596D01*
X13652627Y-29693598D01*
X13712155Y-29699999D01*
X13712172Y-29700000D01*
X13760000Y-29700000D01*
X13760000Y-29055000D01*
X13260000Y-29055000D01*
X13260000Y-29247844D01*
X7700500Y-29247844D01*
X7700500Y-15110099D01*
X7720185Y-15043060D01*
X7721398Y-15041208D01*
X7798013Y-14926547D01*
X7865894Y-14762666D01*
X7900500Y-14588691D01*
X7900500Y-14411309D01*
X7900500Y-14411306D01*
X7900499Y-14411304D01*
X7865896Y-14237341D01*
X7865893Y-14237332D01*
X7858335Y-14219086D01*
X7837373Y-14168477D01*
X7798016Y-14073459D01*
X7798009Y-14073446D01*
X7699464Y-13925965D01*
X7699461Y-13925961D01*
X7574038Y-13800538D01*
X7574034Y-13800535D01*
X7426553Y-13701990D01*
X7426540Y-13701983D01*
X7262667Y-13634106D01*
X7262658Y-13634103D01*
X7088694Y-13599500D01*
X7088691Y-13599500D01*
X7024500Y-13599500D01*
X6957461Y-13579815D01*
X6911706Y-13527011D01*
X6900500Y-13475500D01*
X6900500Y-13411306D01*
X6900499Y-13411304D01*
X6865896Y-13237341D01*
X6865893Y-13237332D01*
X6798016Y-13073459D01*
X6798009Y-13073446D01*
X6699464Y-12925965D01*
X6699461Y-12925961D01*
X6574038Y-12800538D01*
X6574034Y-12800535D01*
X6426553Y-12701990D01*
X6426540Y-12701983D01*
X6262667Y-12634106D01*
X6262658Y-12634103D01*
X6088694Y-12599500D01*
X6088691Y-12599500D01*
X6024500Y-12599500D01*
X5957461Y-12579815D01*
X5911706Y-12527011D01*
X5900500Y-12475500D01*
X5900500Y-12411306D01*
X5900499Y-12411304D01*
X5865896Y-12237341D01*
X5865893Y-12237332D01*
X5798016Y-12073459D01*
X5798009Y-12073446D01*
X5699464Y-11925965D01*
X5699461Y-11925961D01*
X5574038Y-11800538D01*
X5574034Y-11800535D01*
X5426553Y-11701990D01*
X5426540Y-11701983D01*
X5262667Y-11634106D01*
X5262658Y-11634103D01*
X5088694Y-11599500D01*
X5088691Y-11599500D01*
X5024500Y-11599500D01*
X4957461Y-11579815D01*
X4911706Y-11527011D01*
X4900500Y-11475500D01*
X4900500Y-11411306D01*
X4900499Y-11411304D01*
X4865896Y-11237341D01*
X4865893Y-11237332D01*
X4798016Y-11073459D01*
X4798009Y-11073446D01*
X4699464Y-10925965D01*
X4699461Y-10925961D01*
X4574038Y-10800538D01*
X4574034Y-10800535D01*
X4426553Y-10701990D01*
X4426540Y-10701983D01*
X4262667Y-10634106D01*
X4262658Y-10634103D01*
X4088694Y-10599500D01*
X4088691Y-10599500D01*
X4024500Y-10599500D01*
X3957461Y-10579815D01*
X3911706Y-10527011D01*
X3900500Y-10475500D01*
X3900500Y-10411306D01*
X3900499Y-10411304D01*
X3865896Y-10237341D01*
X3865893Y-10237332D01*
X3798016Y-10073459D01*
X3798009Y-10073446D01*
X3699464Y-9925965D01*
X3699461Y-9925961D01*
X3574038Y-9800538D01*
X3574034Y-9800535D01*
X3426553Y-9701990D01*
X3426540Y-9701983D01*
X3262667Y-9634106D01*
X3262658Y-9634103D01*
X3088694Y-9599500D01*
X3088691Y-9599500D01*
X3024500Y-9599500D01*
X2957461Y-9579815D01*
X2911706Y-9527011D01*
X2900500Y-9475500D01*
X2900500Y-9411306D01*
X2900499Y-9411304D01*
X2865896Y-9237341D01*
X2865893Y-9237332D01*
X2798016Y-9073459D01*
X2798009Y-9073446D01*
X2699464Y-8925965D01*
X2699461Y-8925961D01*
X2574038Y-8800538D01*
X2574034Y-8800535D01*
X2426553Y-8701990D01*
X2426540Y-8701983D01*
X2262667Y-8634106D01*
X2262658Y-8634103D01*
X2088694Y-8599500D01*
X2088691Y-8599500D01*
X2024500Y-8599500D01*
X1957461Y-8579815D01*
X1911706Y-8527011D01*
X1900500Y-8475500D01*
X1900500Y-8411306D01*
X1900499Y-8411304D01*
X1865896Y-8237341D01*
X1865893Y-8237332D01*
X1798016Y-8073459D01*
X1798009Y-8073446D01*
X1699464Y-7925965D01*
X1699461Y-7925961D01*
X1574038Y-7800538D01*
X1574034Y-7800535D01*
X1426553Y-7701990D01*
X1426540Y-7701983D01*
X1262667Y-7634106D01*
X1262658Y-7634103D01*
X1088694Y-7599500D01*
X1088691Y-7599500D01*
X1024500Y-7599500D01*
X957461Y-7579815D01*
X911706Y-7527011D01*
X900500Y-7475500D01*
X900500Y-7411306D01*
X900499Y-7411304D01*
X865896Y-7237341D01*
X865893Y-7237332D01*
X858335Y-7219086D01*
X837373Y-7168477D01*
X798016Y-7073459D01*
X798009Y-7073446D01*
X699464Y-6925965D01*
X699461Y-6925961D01*
X574038Y-6800538D01*
X574034Y-6800535D01*
X426553Y-6701990D01*
X426540Y-6701983D01*
X262667Y-6634106D01*
X262658Y-6634103D01*
X88694Y-6599500D01*
X88691Y-6599500D01*
X24500Y-6599500D01*
X-42539Y-6579815D01*
X-88294Y-6527011D01*
X-99500Y-6475500D01*
X-99500Y-6411306D01*
X-99501Y-6411304D01*
X-134104Y-6237341D01*
X-134107Y-6237332D01*
X-201984Y-6073459D01*
X-201991Y-6073446D01*
X-300536Y-5925965D01*
X-300539Y-5925961D01*
X-425962Y-5800538D01*
X-425966Y-5800535D01*
X-573447Y-5701990D01*
X-573460Y-5701983D01*
X-737333Y-5634106D01*
X-737342Y-5634103D01*
X-911306Y-5599500D01*
X-911309Y-5599500D01*
X-975500Y-5599500D01*
X-1042539Y-5579815D01*
X-1088294Y-5527011D01*
X-1099500Y-5475500D01*
X-1099500Y-5411306D01*
X-1099501Y-5411304D01*
X-1134104Y-5237341D01*
X-1134107Y-5237332D01*
X-1201984Y-5073459D01*
X-1201991Y-5073446D01*
X-1300536Y-4925965D01*
X-1300539Y-4925961D01*
X-1425962Y-4800538D01*
X-1425966Y-4800535D01*
X-1573447Y-4701990D01*
X-1573460Y-4701983D01*
X-1737333Y-4634106D01*
X-1737342Y-4634103D01*
X-1911306Y-4599500D01*
X-1911309Y-4599500D01*
X-2088691Y-4599500D01*
X-2088694Y-4599500D01*
X-2262659Y-4634103D01*
X-2262668Y-4634106D01*
X-2426541Y-4701983D01*
X-2426554Y-4701990D01*
X-2574035Y-4800535D01*
X-2574039Y-4800538D01*
X-2699462Y-4925961D01*
X-2699465Y-4925965D01*
X-2798010Y-5073446D01*
X-2798016Y-5073458D01*
X-2810869Y-5104487D01*
X-2854711Y-5158890D01*
X-2921006Y-5180953D01*
X-2988705Y-5163672D01*
X-3036314Y-5112534D01*
X-3043407Y-5095204D01*
X-3047350Y-5083019D01*
X-3048209Y-5075023D01*
X-3061248Y-5040065D01*
X-3062089Y-5037464D01*
X-3062972Y-5005159D01*
X-3065277Y-4972935D01*
X-3063975Y-4968496D01*
X-3063998Y-4967621D01*
X-3063452Y-4966717D01*
X-3060293Y-4955958D01*
X-3048702Y-4924880D01*
X-3042301Y-4865352D01*
X-3042300Y-4865335D01*
X-3042300Y-4800008D01*
X-3176815Y-4800008D01*
X-3243854Y-4780323D01*
X-3251112Y-4775284D01*
X-3299969Y-4738710D01*
X-3299972Y-4738708D01*
X-3434818Y-4688414D01*
X-3434817Y-4688414D01*
X-3494417Y-4682007D01*
X-3494419Y-4682006D01*
X-3494427Y-4682006D01*
X-3494435Y-4682006D01*
X-5393571Y-4682006D01*
X-5393577Y-4682007D01*
X-5453184Y-4688414D01*
X-5588029Y-4738708D01*
X-5588032Y-4738710D01*
X-5636197Y-4774767D01*
X-5701661Y-4799184D01*
X-5710508Y-4799500D01*
X-6389900Y-4799500D01*
X-6456939Y-4779815D01*
X-6458791Y-4778602D01*
X-6573451Y-4701988D01*
X-6573453Y-4701987D01*
X-6737333Y-4634106D01*
X-6737342Y-4634103D01*
X-6911306Y-4599500D01*
X-6911309Y-4599500D01*
X-7088691Y-4599500D01*
X-7088694Y-4599500D01*
X-7262659Y-4634103D01*
X-7262668Y-4634106D01*
X-7426541Y-4701983D01*
X-7426554Y-4701990D01*
X-7574035Y-4800535D01*
X-7574039Y-4800538D01*
X-7699462Y-4925961D01*
X-7699465Y-4925965D01*
X-7798010Y-5073446D01*
X-7798017Y-5073459D01*
X-7865894Y-5237332D01*
X-7865897Y-5237341D01*
X-7900500Y-5411304D01*
X-11494500Y-5411304D01*
X-11494500Y-3493241D01*
X-8612601Y-3493241D01*
X-8606200Y-3552769D01*
X-8606198Y-3552776D01*
X-8555956Y-3687483D01*
X-8555952Y-3687490D01*
X-8469792Y-3802584D01*
X-8469789Y-3802587D01*
X-8354695Y-3888747D01*
X-8354688Y-3888751D01*
X-8219981Y-3938993D01*
X-8219974Y-3938995D01*
X-8160446Y-3945396D01*
X-8160429Y-3945397D01*
X-6914001Y-3945397D01*
X-6314001Y-3945397D01*
X-5963396Y-3945397D01*
X-5896357Y-3965082D01*
X-5850602Y-4017886D01*
X-5840107Y-4082653D01*
X-5845700Y-4134663D01*
X-5845700Y-4200008D01*
X-4744000Y-4200008D01*
X-4144000Y-4200008D01*
X-3042300Y-4200008D01*
X-3042300Y-4134680D01*
X-3042301Y-4134663D01*
X-3048702Y-4075135D01*
X-3048704Y-4075128D01*
X-3098946Y-3940421D01*
X-3098950Y-3940414D01*
X-3185110Y-3825320D01*
X-3185113Y-3825317D01*
X-3300207Y-3739157D01*
X-3300214Y-3739153D01*
X-3434921Y-3688911D01*
X-3434928Y-3688909D01*
X-3494456Y-3682508D01*
X-4144000Y-3682508D01*
X-4144000Y-4200008D01*
X-4744000Y-4200008D01*
X-4744000Y-3676508D01*
X-4724315Y-3609469D01*
X-4672868Y-3564343D01*
X-4620388Y-3539606D01*
X-4615403Y-3493235D01*
X-4615401Y-3493216D01*
X-4615401Y-2449997D01*
X-6314001Y-2449997D01*
X-6314001Y-3945397D01*
X-6914001Y-3945397D01*
X-6914001Y-2449997D01*
X-8612601Y-2449997D01*
X-8612601Y-3493241D01*
X-11494500Y-3493241D01*
X-11494500Y-806752D01*
X-8612601Y-806752D01*
X-8612601Y-1849997D01*
X-6914001Y-1849997D01*
X-6314001Y-1849997D01*
X-4615401Y-1849997D01*
X-4615401Y-806769D01*
X-4615402Y-806752D01*
X-4621803Y-747224D01*
X-4621805Y-747217D01*
X-4672047Y-612510D01*
X-4672051Y-612503D01*
X-4758211Y-497409D01*
X-4758214Y-497406D01*
X-4873308Y-411246D01*
X-4873315Y-411242D01*
X-5008022Y-361000D01*
X-5008029Y-360998D01*
X-5067557Y-354597D01*
X-6314001Y-354597D01*
X-6314001Y-1849997D01*
X-6914001Y-1849997D01*
X-6914001Y-354597D01*
X-8160446Y-354597D01*
X-8219974Y-360998D01*
X-8219981Y-361000D01*
X-8354688Y-411242D01*
X-8354695Y-411246D01*
X-8469789Y-497406D01*
X-8469792Y-497409D01*
X-8555952Y-612503D01*
X-8555956Y-612510D01*
X-8606198Y-747217D01*
X-8606200Y-747224D01*
X-8612601Y-806752D01*
X-11494500Y-806752D01*
X-11494500Y806753D01*
X-8612601Y806753D01*
X-8606200Y747225D01*
X-8606198Y747218D01*
X-8555956Y612511D01*
X-8555952Y612504D01*
X-8469792Y497410D01*
X-8469789Y497407D01*
X-8354695Y411247D01*
X-8354688Y411243D01*
X-8219981Y361001D01*
X-8219974Y360999D01*
X-8160446Y354598D01*
X-8160429Y354597D01*
X-6914001Y354597D01*
X-6314001Y354597D01*
X-5067573Y354597D01*
X-5067557Y354598D01*
X-5008029Y360999D01*
X-5008022Y361001D01*
X-4873315Y411243D01*
X-4873308Y411247D01*
X-4758214Y497407D01*
X-4758211Y497410D01*
X-4672051Y612504D01*
X-4672047Y612511D01*
X-4621805Y747218D01*
X-4621803Y747225D01*
X-4615402Y806753D01*
X-4615401Y806770D01*
X-4615401Y1849997D01*
X-6314001Y1849997D01*
X-6314001Y354597D01*
X-6914001Y354597D01*
X-6914001Y1849997D01*
X-8612601Y1849997D01*
X-8612601Y806753D01*
X-11494500Y806753D01*
X-11494500Y3493242D01*
X-8612601Y3493242D01*
X-8612601Y2449997D01*
X-6914001Y2449997D01*
X-6914001Y3945397D01*
X-6314001Y3945397D01*
X-6314001Y2449997D01*
X-4615401Y2449997D01*
X-4615401Y3493217D01*
X-4615403Y3493236D01*
X-4621775Y3552508D01*
X-4622638Y3553283D01*
X-4687039Y3572193D01*
X-4732794Y3624997D01*
X-4744000Y3676508D01*
X-4744000Y3682508D01*
X-4144000Y3682508D01*
X-3494472Y3682508D01*
X-3494456Y3682509D01*
X-3434928Y3688910D01*
X-3434921Y3688912D01*
X-3300214Y3739154D01*
X-3300207Y3739158D01*
X-3185113Y3825318D01*
X-3185110Y3825321D01*
X-3098950Y3940415D01*
X-3098946Y3940422D01*
X-3048704Y4075129D01*
X-3048702Y4075136D01*
X-3042301Y4134664D01*
X-3042300Y4134681D01*
X-3042300Y4200008D01*
X-4144000Y4200008D01*
X-4144000Y3682508D01*
X-4744000Y3682508D01*
X-4744000Y4200008D01*
X-5845700Y4200008D01*
X-5845700Y4134664D01*
X-5840107Y4082653D01*
X-5852512Y4013893D01*
X-5900122Y3962756D01*
X-5963396Y3945397D01*
X-6314001Y3945397D01*
X-6914001Y3945397D01*
X-8160446Y3945397D01*
X-8219974Y3938996D01*
X-8219981Y3938994D01*
X-8354688Y3888752D01*
X-8354695Y3888748D01*
X-8469789Y3802588D01*
X-8469792Y3802585D01*
X-8555952Y3687491D01*
X-8555956Y3687484D01*
X-8606198Y3552777D01*
X-8606200Y3552770D01*
X-8612601Y3493242D01*
X-11494500Y3493242D01*
X-11494500Y14588696D01*
X-7900500Y14588696D01*
X-7900500Y14411305D01*
X-7865897Y14237342D01*
X-7865894Y14237333D01*
X-7798017Y14073460D01*
X-7798010Y14073447D01*
X-7794963Y14068887D01*
X-7774088Y14002208D01*
X-7792575Y13934829D01*
X-7794963Y13931113D01*
X-7798010Y13926554D01*
X-7798017Y13926541D01*
X-7865894Y13762668D01*
X-7865897Y13762659D01*
X-7900500Y13588696D01*
X-7900500Y13411305D01*
X-7865897Y13237342D01*
X-7865894Y13237333D01*
X-7798017Y13073460D01*
X-7798010Y13073447D01*
X-7794963Y13068887D01*
X-7774088Y13002208D01*
X-7792575Y12934829D01*
X-7794963Y12931113D01*
X-7798010Y12926554D01*
X-7798017Y12926541D01*
X-7865894Y12762668D01*
X-7865897Y12762659D01*
X-7900500Y12588696D01*
X-7900500Y12411305D01*
X-7865897Y12237342D01*
X-7865894Y12237333D01*
X-7798017Y12073460D01*
X-7798010Y12073447D01*
X-7794963Y12068887D01*
X-7774088Y12002208D01*
X-7792575Y11934829D01*
X-7794963Y11931113D01*
X-7798010Y11926554D01*
X-7798017Y11926541D01*
X-7865894Y11762668D01*
X-7865897Y11762659D01*
X-7900500Y11588696D01*
X-7900500Y11411305D01*
X-7865897Y11237342D01*
X-7865894Y11237333D01*
X-7798017Y11073460D01*
X-7798010Y11073447D01*
X-7794963Y11068887D01*
X-7774088Y11002208D01*
X-7792575Y10934829D01*
X-7794963Y10931113D01*
X-7798010Y10926554D01*
X-7798017Y10926541D01*
X-7865894Y10762668D01*
X-7865897Y10762659D01*
X-7900500Y10588696D01*
X-7900500Y10411305D01*
X-7865897Y10237342D01*
X-7865894Y10237333D01*
X-7798017Y10073460D01*
X-7798010Y10073447D01*
X-7794963Y10068887D01*
X-7774088Y10002208D01*
X-7792575Y9934829D01*
X-7794963Y9931113D01*
X-7798010Y9926554D01*
X-7798017Y9926541D01*
X-7865894Y9762668D01*
X-7865897Y9762659D01*
X-7900500Y9588696D01*
X-7900500Y9411305D01*
X-7865897Y9237342D01*
X-7865894Y9237333D01*
X-7798017Y9073460D01*
X-7798010Y9073447D01*
X-7794963Y9068887D01*
X-7774088Y9002208D01*
X-7792575Y8934829D01*
X-7794963Y8931113D01*
X-7798010Y8926554D01*
X-7798017Y8926541D01*
X-7865894Y8762668D01*
X-7865897Y8762659D01*
X-7900500Y8588696D01*
X-7900500Y8411305D01*
X-7865897Y8237342D01*
X-7865894Y8237333D01*
X-7798017Y8073460D01*
X-7798010Y8073447D01*
X-7794963Y8068887D01*
X-7774088Y8002208D01*
X-7792575Y7934829D01*
X-7794963Y7931113D01*
X-7798010Y7926554D01*
X-7798017Y7926541D01*
X-7865894Y7762668D01*
X-7865897Y7762659D01*
X-7900500Y7588696D01*
X-7900500Y7411305D01*
X-7865897Y7237342D01*
X-7865894Y7237333D01*
X-7798017Y7073460D01*
X-7798010Y7073447D01*
X-7699465Y6925966D01*
X-7699462Y6925962D01*
X-7574039Y6800539D01*
X-7574035Y6800536D01*
X-7426554Y6701991D01*
X-7426541Y6701984D01*
X-7303637Y6651077D01*
X-7262666Y6634106D01*
X-7262664Y6634106D01*
X-7262659Y6634104D01*
X-7088696Y6599501D01*
X-7088693Y6599500D01*
X-7088691Y6599500D01*
X-6911307Y6599500D01*
X-6911306Y6599501D01*
X-6853318Y6611036D01*
X-6737342Y6634104D01*
X-6737339Y6634106D01*
X-6737334Y6634106D01*
X-6573453Y6701987D01*
X-6458791Y6778603D01*
X-6392114Y6799480D01*
X-6389900Y6799500D01*
X-5970200Y6799500D01*
X-5903161Y6779815D01*
X-5857406Y6727011D01*
X-5846200Y6675500D01*
X-5846200Y6134634D01*
X-5846199Y6134628D01*
X-5839792Y6075022D01*
X-5827974Y6043336D01*
X-5822991Y5973644D01*
X-5827974Y5956674D01*
X-5827975Y5956670D01*
X-5839791Y5924989D01*
X-5846200Y5865379D01*
X-5846200Y5865372D01*
X-5846200Y5865371D01*
X-5846200Y5134636D01*
X-5846199Y5134630D01*
X-5839792Y5075023D01*
X-5827708Y5042625D01*
X-5822724Y4972933D01*
X-5827707Y4955962D01*
X-5839299Y4924883D01*
X-5845700Y4865353D01*
X-5845700Y4800008D01*
X-5711185Y4800008D01*
X-5644146Y4780323D01*
X-5636889Y4775285D01*
X-5588032Y4738711D01*
X-5588029Y4738709D01*
X-5453183Y4688415D01*
X-5453184Y4688415D01*
X-5446256Y4687671D01*
X-5393573Y4682006D01*
X-3494428Y4682007D01*
X-3434817Y4688415D01*
X-3299969Y4738710D01*
X-3251125Y4775275D01*
X-3185663Y4799692D01*
X-3176815Y4800008D01*
X-3042300Y4800008D01*
X-3042300Y4865336D01*
X-3042301Y4865353D01*
X-3048702Y4924881D01*
X-3048704Y4924889D01*
X-3060292Y4955958D01*
X-3065277Y5025650D01*
X-3060298Y5042614D01*
X-3048209Y5075023D01*
X-3041800Y5134633D01*
X-3041801Y5865378D01*
X-3048209Y5924989D01*
X-3060027Y5956672D01*
X-3065012Y6026361D01*
X-3060031Y6043328D01*
X-3048209Y6075021D01*
X-3041800Y6134631D01*
X-3041801Y6865376D01*
X-3048209Y6924987D01*
X-3048573Y6925962D01*
X-3060026Y6956668D01*
X-3065012Y7026359D01*
X-3060031Y7043326D01*
X-3048209Y7075019D01*
X-3041800Y7134629D01*
X-3041801Y7865374D01*
X-3048209Y7924985D01*
X-3048215Y7925000D01*
X-3060026Y7956666D01*
X-3065012Y8026357D01*
X-3060031Y8043324D01*
X-3048209Y8075017D01*
X-3041800Y8134627D01*
X-3041801Y8865372D01*
X-3048209Y8924983D01*
X-3051881Y8934829D01*
X-3060026Y8956667D01*
X-3065011Y9026358D01*
X-3060029Y9043330D01*
X-3048209Y9075017D01*
X-3041800Y9134627D01*
X-3041801Y9865372D01*
X-3048209Y9924983D01*
X-3051881Y9934829D01*
X-3060026Y9956667D01*
X-3065011Y10026358D01*
X-3060029Y10043330D01*
X-3048209Y10075017D01*
X-3041800Y10134627D01*
X-3041801Y10865372D01*
X-3048209Y10924983D01*
X-3055675Y10945000D01*
X-3060026Y10956667D01*
X-3065011Y11026358D01*
X-3060029Y11043330D01*
X-3048209Y11075017D01*
X-3041800Y11134627D01*
X-3041801Y11865372D01*
X-3048209Y11924983D01*
X-3048576Y11925966D01*
X-3060026Y11956664D01*
X-3065012Y12026355D01*
X-3060031Y12043322D01*
X-3048209Y12075015D01*
X-3041800Y12134625D01*
X-3041801Y12865370D01*
X-3048209Y12924981D01*
X-3048796Y12926554D01*
X-3060026Y12956662D01*
X-3065012Y13026353D01*
X-3060031Y13043320D01*
X-3048209Y13075013D01*
X-3041800Y13134623D01*
X-3041801Y13865368D01*
X-3048209Y13924979D01*
X-3048576Y13925962D01*
X-3060026Y13956660D01*
X-3065012Y14026351D01*
X-3060031Y14043318D01*
X-3048209Y14075011D01*
X-3041800Y14134621D01*
X-3041801Y14865366D01*
X-3048209Y14924977D01*
X-3048210Y14924980D01*
X-3060292Y14957374D01*
X-3065277Y15027065D01*
X-3060293Y15044042D01*
X-3048702Y15075120D01*
X-3042301Y15134648D01*
X-3042300Y15134665D01*
X-3042300Y15199992D01*
X-3176815Y15199992D01*
X-3243854Y15219677D01*
X-3251112Y15224716D01*
X-3299969Y15261290D01*
X-3299972Y15261292D01*
X-3434818Y15311586D01*
X-3434817Y15311586D01*
X-3494417Y15317993D01*
X-3494419Y15317994D01*
X-3494427Y15317994D01*
X-3494435Y15317994D01*
X-5393571Y15317994D01*
X-5393577Y15317993D01*
X-5453184Y15311586D01*
X-5588029Y15261292D01*
X-5588032Y15261290D01*
X-5636197Y15225233D01*
X-5701661Y15200816D01*
X-5710508Y15200500D01*
X-6389900Y15200500D01*
X-6456939Y15220185D01*
X-6458791Y15221398D01*
X-6573451Y15298012D01*
X-6573453Y15298013D01*
X-6737333Y15365894D01*
X-6737342Y15365897D01*
X-6911306Y15400500D01*
X-6911309Y15400500D01*
X-7088691Y15400500D01*
X-7088694Y15400500D01*
X-7262659Y15365897D01*
X-7262668Y15365894D01*
X-7426541Y15298017D01*
X-7426554Y15298010D01*
X-7574035Y15199465D01*
X-7574039Y15199462D01*
X-7699462Y15074039D01*
X-7699465Y15074035D01*
X-7798010Y14926554D01*
X-7798017Y14926541D01*
X-7865894Y14762668D01*
X-7865897Y14762659D01*
X-7900500Y14588696D01*
X-11494500Y14588696D01*
X-11494500Y16506759D01*
X-8612601Y16506759D01*
X-8606200Y16447231D01*
X-8606198Y16447224D01*
X-8555956Y16312517D01*
X-8555952Y16312510D01*
X-8469792Y16197416D01*
X-8469789Y16197413D01*
X-8354695Y16111253D01*
X-8354688Y16111249D01*
X-8219981Y16061007D01*
X-8219974Y16061005D01*
X-8160446Y16054604D01*
X-8160429Y16054603D01*
X-6914001Y16054603D01*
X-6314001Y16054603D01*
X-5963396Y16054603D01*
X-5896357Y16034918D01*
X-5850602Y15982114D01*
X-5840107Y15917347D01*
X-5845700Y15865337D01*
X-5845700Y15799992D01*
X-4744000Y15799992D01*
X-4144000Y15799992D01*
X-3042300Y15799992D01*
X-3042300Y15865320D01*
X-3042301Y15865337D01*
X-3048702Y15924865D01*
X-3048704Y15924872D01*
X-3098946Y16059579D01*
X-3098950Y16059586D01*
X-3185110Y16174680D01*
X-3185113Y16174683D01*
X-3300207Y16260843D01*
X-3300214Y16260847D01*
X-3434921Y16311089D01*
X-3434928Y16311091D01*
X-3494456Y16317492D01*
X-4144000Y16317492D01*
X-4144000Y15799992D01*
X-4744000Y15799992D01*
X-4744000Y16323492D01*
X-4724315Y16390531D01*
X-4672868Y16435657D01*
X-4620388Y16460394D01*
X-4615403Y16506765D01*
X-4615401Y16506784D01*
X-4615401Y17550003D01*
X-6314001Y17550003D01*
X-6314001Y16054603D01*
X-6914001Y16054603D01*
X-6914001Y17550003D01*
X-8612601Y17550003D01*
X-8612601Y16506759D01*
X-11494500Y16506759D01*
X-11494500Y19193248D01*
X-8612601Y19193248D01*
X-8612601Y18150003D01*
X-6914001Y18150003D01*
X-6314001Y18150003D01*
X-4615401Y18150003D01*
X-4615401Y19193231D01*
X-4615402Y19193248D01*
X-4621803Y19252776D01*
X-4621805Y19252783D01*
X-4672047Y19387490D01*
X-4672051Y19387497D01*
X-4758211Y19502591D01*
X-4758214Y19502594D01*
X-4873308Y19588754D01*
X-4873315Y19588758D01*
X-5008022Y19639000D01*
X-5008029Y19639002D01*
X-5067557Y19645403D01*
X-6314001Y19645403D01*
X-6314001Y18150003D01*
X-6914001Y18150003D01*
X-6914001Y19645403D01*
X-8160446Y19645403D01*
X-8219974Y19639002D01*
X-8219981Y19639000D01*
X-8354688Y19588758D01*
X-8354695Y19588754D01*
X-8469789Y19502594D01*
X-8469792Y19502591D01*
X-8555952Y19387497D01*
X-8555956Y19387490D01*
X-8606198Y19252783D01*
X-8606200Y19252776D01*
X-8612601Y19193248D01*
X-11494500Y19193248D01*
X-11494500Y20806753D01*
X-8612601Y20806753D01*
X-8606200Y20747225D01*
X-8606198Y20747218D01*
X-8555956Y20612511D01*
X-8555952Y20612504D01*
X-8469792Y20497410D01*
X-8469789Y20497407D01*
X-8354695Y20411247D01*
X-8354688Y20411243D01*
X-8219981Y20361001D01*
X-8219974Y20360999D01*
X-8160446Y20354598D01*
X-8160429Y20354597D01*
X-6914001Y20354597D01*
X-6314001Y20354597D01*
X-5067573Y20354597D01*
X-5067557Y20354598D01*
X-5008029Y20360999D01*
X-5008022Y20361001D01*
X-4873315Y20411243D01*
X-4873308Y20411247D01*
X-4758214Y20497407D01*
X-4758211Y20497410D01*
X-4672051Y20612504D01*
X-4672047Y20612511D01*
X-4621805Y20747218D01*
X-4621803Y20747225D01*
X-4615402Y20806753D01*
X-4615401Y20806770D01*
X-4615401Y21849997D01*
X-6314001Y21849997D01*
X-6314001Y20354597D01*
X-6914001Y20354597D01*
X-6914001Y21849997D01*
X-8612601Y21849997D01*
X-8612601Y20806753D01*
X-11494500Y20806753D01*
X-11494500Y23493242D01*
X-8612601Y23493242D01*
X-8612601Y22449997D01*
X-6914001Y22449997D01*
X-6914001Y23945397D01*
X-6314001Y23945397D01*
X-6314001Y22449997D01*
X-4615401Y22449997D01*
X-4615401Y23493217D01*
X-4615403Y23493236D01*
X-4621775Y23552508D01*
X-4622638Y23553283D01*
X-4687039Y23572193D01*
X-4732794Y23624997D01*
X-4744000Y23676508D01*
X-4744000Y23682508D01*
X-4144000Y23682508D01*
X-3494472Y23682508D01*
X-3494456Y23682509D01*
X-3434928Y23688910D01*
X-3434921Y23688912D01*
X-3300214Y23739154D01*
X-3300207Y23739158D01*
X-3185113Y23825318D01*
X-3185110Y23825321D01*
X-3098950Y23940415D01*
X-3098946Y23940422D01*
X-3048704Y24075129D01*
X-3048702Y24075136D01*
X-3042301Y24134664D01*
X-3042300Y24134681D01*
X-3042300Y24200008D01*
X-4144000Y24200008D01*
X-4144000Y23682508D01*
X-4744000Y23682508D01*
X-4744000Y24200008D01*
X-5845700Y24200008D01*
X-5845700Y24134664D01*
X-5840107Y24082653D01*
X-5852512Y24013893D01*
X-5900122Y23962756D01*
X-5963396Y23945397D01*
X-6314001Y23945397D01*
X-6914001Y23945397D01*
X-8160446Y23945397D01*
X-8219974Y23938996D01*
X-8219981Y23938994D01*
X-8354688Y23888752D01*
X-8354695Y23888748D01*
X-8469789Y23802588D01*
X-8469792Y23802585D01*
X-8555952Y23687491D01*
X-8555956Y23687484D01*
X-8606198Y23552777D01*
X-8606200Y23552770D01*
X-8612601Y23493242D01*
X-11494500Y23493242D01*
X-11494500Y34588696D01*
X-7900500Y34588696D01*
X-7900500Y34411305D01*
X-7865897Y34237342D01*
X-7865894Y34237333D01*
X-7798017Y34073460D01*
X-7798010Y34073447D01*
X-7794963Y34068887D01*
X-7774088Y34002208D01*
X-7792575Y33934829D01*
X-7794963Y33931113D01*
X-7798010Y33926554D01*
X-7798017Y33926541D01*
X-7865894Y33762668D01*
X-7865897Y33762659D01*
X-7900500Y33588696D01*
X-7900500Y33411305D01*
X-7865897Y33237342D01*
X-7865894Y33237333D01*
X-7798017Y33073460D01*
X-7798010Y33073447D01*
X-7794963Y33068887D01*
X-7774088Y33002208D01*
X-7792575Y32934829D01*
X-7794963Y32931113D01*
X-7798010Y32926554D01*
X-7798017Y32926541D01*
X-7865894Y32762668D01*
X-7865897Y32762659D01*
X-7900500Y32588696D01*
X-7900500Y32411305D01*
X-7865897Y32237342D01*
X-7865894Y32237333D01*
X-7798017Y32073460D01*
X-7798010Y32073447D01*
X-7794963Y32068887D01*
X-7774088Y32002208D01*
X-7792575Y31934829D01*
X-7794963Y31931113D01*
X-7798010Y31926554D01*
X-7798017Y31926541D01*
X-7865894Y31762668D01*
X-7865897Y31762659D01*
X-7900500Y31588696D01*
X-7900500Y31411305D01*
X-7865897Y31237342D01*
X-7865894Y31237333D01*
X-7798017Y31073460D01*
X-7798010Y31073447D01*
X-7794963Y31068887D01*
X-7774088Y31002208D01*
X-7792575Y30934829D01*
X-7794963Y30931113D01*
X-7798010Y30926554D01*
X-7798017Y30926541D01*
X-7865894Y30762668D01*
X-7865897Y30762659D01*
X-7900500Y30588696D01*
X-7900500Y30411305D01*
X-7865897Y30237342D01*
X-7865894Y30237333D01*
X-7798017Y30073460D01*
X-7798010Y30073447D01*
X-7794963Y30068887D01*
X-7774088Y30002208D01*
X-7792575Y29934829D01*
X-7794963Y29931113D01*
X-7798010Y29926554D01*
X-7798017Y29926541D01*
X-7865894Y29762668D01*
X-7865897Y29762659D01*
X-7900500Y29588696D01*
X-7900500Y29411305D01*
X-7865897Y29237342D01*
X-7865894Y29237333D01*
X-7798017Y29073460D01*
X-7798010Y29073447D01*
X-7794963Y29068887D01*
X-7774088Y29002208D01*
X-7792575Y28934829D01*
X-7794963Y28931113D01*
X-7798010Y28926554D01*
X-7798017Y28926541D01*
X-7865894Y28762668D01*
X-7865897Y28762659D01*
X-7900500Y28588696D01*
X-7900500Y28411305D01*
X-7865897Y28237342D01*
X-7865894Y28237333D01*
X-7798017Y28073460D01*
X-7798010Y28073447D01*
X-7794963Y28068887D01*
X-7774088Y28002208D01*
X-7792575Y27934829D01*
X-7794963Y27931113D01*
X-7798010Y27926554D01*
X-7798017Y27926541D01*
X-7865894Y27762668D01*
X-7865897Y27762659D01*
X-7900500Y27588696D01*
X-7900500Y27411305D01*
X-7865897Y27237342D01*
X-7865894Y27237333D01*
X-7798017Y27073460D01*
X-7798010Y27073447D01*
X-7699465Y26925966D01*
X-7699462Y26925962D01*
X-7574039Y26800539D01*
X-7574035Y26800536D01*
X-7426554Y26701991D01*
X-7426541Y26701984D01*
X-7303637Y26651077D01*
X-7262666Y26634106D01*
X-7262664Y26634106D01*
X-7262659Y26634104D01*
X-7088696Y26599501D01*
X-7088693Y26599500D01*
X-7088691Y26599500D01*
X-6911307Y26599500D01*
X-6911306Y26599501D01*
X-6853318Y26611036D01*
X-6737342Y26634104D01*
X-6737339Y26634106D01*
X-6737334Y26634106D01*
X-6573453Y26701987D01*
X-6458791Y26778603D01*
X-6392114Y26799480D01*
X-6389900Y26799500D01*
X-5970200Y26799500D01*
X-5903161Y26779815D01*
X-5857406Y26727011D01*
X-5846200Y26675500D01*
X-5846200Y26134634D01*
X-5846199Y26134628D01*
X-5839792Y26075022D01*
X-5827974Y26043336D01*
X-5822991Y25973644D01*
X-5827974Y25956674D01*
X-5838109Y25929500D01*
X-5839791Y25924989D01*
X-5846200Y25865379D01*
X-5846200Y25865372D01*
X-5846200Y25865371D01*
X-5846200Y25134636D01*
X-5846199Y25134630D01*
X-5839792Y25075023D01*
X-5827708Y25042625D01*
X-5822724Y24972933D01*
X-5827707Y24955962D01*
X-5839299Y24924883D01*
X-5845700Y24865353D01*
X-5845700Y24800008D01*
X-5711185Y24800008D01*
X-5644146Y24780323D01*
X-5636889Y24775285D01*
X-5588032Y24738711D01*
X-5588029Y24738709D01*
X-5453183Y24688415D01*
X-5453184Y24688415D01*
X-5446256Y24687671D01*
X-5393573Y24682006D01*
X-3494428Y24682007D01*
X-3434817Y24688415D01*
X-3299969Y24738710D01*
X-3251125Y24775275D01*
X-3185663Y24799692D01*
X-3176815Y24800008D01*
X-3042300Y24800008D01*
X-3042300Y24865336D01*
X-3042301Y24865353D01*
X-3048702Y24924881D01*
X-3048704Y24924889D01*
X-3060292Y24955958D01*
X-3065277Y25025650D01*
X-3060298Y25042614D01*
X-3048209Y25075023D01*
X-3041800Y25134633D01*
X-3041801Y25865378D01*
X-3048209Y25924989D01*
X-3049892Y25929500D01*
X-3060026Y25956670D01*
X-3065012Y26026361D01*
X-3060031Y26043328D01*
X-3048209Y26075021D01*
X-3041800Y26134631D01*
X-3041801Y26865376D01*
X-3048209Y26924987D01*
X-3048573Y26925962D01*
X-3060026Y26956668D01*
X-3065012Y27026359D01*
X-3060031Y27043326D01*
X-3048209Y27075019D01*
X-3041800Y27134629D01*
X-3041801Y27865374D01*
X-3048209Y27924985D01*
X-3048792Y27926547D01*
X-3053943Y27940356D01*
X-3060027Y27956668D01*
X-3065012Y28026357D01*
X-3060031Y28043324D01*
X-3048209Y28075017D01*
X-3041800Y28134627D01*
X-3041801Y28865372D01*
X-3048209Y28924983D01*
X-3051881Y28934829D01*
X-3060026Y28956667D01*
X-3065011Y29026358D01*
X-3060029Y29043330D01*
X-3048209Y29075017D01*
X-3041800Y29134627D01*
X-3041801Y29865372D01*
X-3048209Y29924983D01*
X-3051881Y29934829D01*
X-3060026Y29956667D01*
X-3065011Y30026358D01*
X-3060029Y30043330D01*
X-3048209Y30075017D01*
X-3041800Y30134627D01*
X-3041801Y30865372D01*
X-3048209Y30924983D01*
X-3051881Y30934829D01*
X-3060026Y30956667D01*
X-3065011Y31026358D01*
X-3060029Y31043330D01*
X-3048209Y31075017D01*
X-3041800Y31134627D01*
X-3041801Y31865372D01*
X-3048209Y31924983D01*
X-3060027Y31956666D01*
X-3065012Y32026355D01*
X-3060031Y32043322D01*
X-3048209Y32075015D01*
X-3041800Y32134625D01*
X-3041801Y32865370D01*
X-3048209Y32924981D01*
X-3048796Y32926554D01*
X-3060026Y32956662D01*
X-3065012Y33026353D01*
X-3060031Y33043320D01*
X-3048209Y33075013D01*
X-3041800Y33134623D01*
X-3041801Y33865368D01*
X-3048209Y33924979D01*
X-3048792Y33926541D01*
X-3060026Y33956660D01*
X-3065012Y34026351D01*
X-3060031Y34043318D01*
X-3048209Y34075011D01*
X-3041800Y34134621D01*
X-3041801Y34588696D01*
X-900500Y34588696D01*
X-900500Y34411305D01*
X-865897Y34237342D01*
X-865894Y34237333D01*
X-798016Y34073458D01*
X-798015Y34073457D01*
X-798013Y34073453D01*
X-748929Y33999995D01*
X-721398Y33958792D01*
X-700520Y33892115D01*
X-700500Y33889901D01*
X-700500Y15110101D01*
X-720185Y15043062D01*
X-721398Y15041210D01*
X-798012Y14926551D01*
X-798013Y14926548D01*
X-865894Y14762668D01*
X-865897Y14762659D01*
X-900500Y14588696D01*
X-900500Y14411305D01*
X-865897Y14237342D01*
X-865894Y14237333D01*
X-798017Y14073460D01*
X-798010Y14073447D01*
X-699465Y13925966D01*
X-699462Y13925962D01*
X-574039Y13800539D01*
X-574035Y13800536D01*
X-426554Y13701991D01*
X-426541Y13701984D01*
X-303637Y13651077D01*
X-262666Y13634106D01*
X-262664Y13634106D01*
X-262659Y13634104D01*
X-88696Y13599501D01*
X-88693Y13599500D01*
X-24500Y13599500D01*
X42539Y13579815D01*
X88294Y13527011D01*
X99500Y13475500D01*
X99500Y13411305D01*
X134103Y13237342D01*
X134106Y13237333D01*
X201983Y13073460D01*
X201990Y13073447D01*
X300535Y12925966D01*
X300538Y12925962D01*
X425961Y12800539D01*
X425965Y12800536D01*
X573446Y12701991D01*
X573459Y12701984D01*
X696363Y12651077D01*
X737334Y12634106D01*
X737336Y12634106D01*
X737341Y12634104D01*
X911304Y12599501D01*
X911307Y12599500D01*
X975500Y12599500D01*
X1042539Y12579815D01*
X1088294Y12527011D01*
X1099500Y12475500D01*
X1099500Y12411305D01*
X1134103Y12237342D01*
X1134106Y12237333D01*
X1201983Y12073460D01*
X1201990Y12073447D01*
X1300535Y11925966D01*
X1300538Y11925962D01*
X1425961Y11800539D01*
X1425965Y11800536D01*
X1573446Y11701991D01*
X1573459Y11701984D01*
X1696363Y11651077D01*
X1737334Y11634106D01*
X1737336Y11634106D01*
X1737341Y11634104D01*
X1911304Y11599501D01*
X1911307Y11599500D01*
X1975500Y11599500D01*
X2042539Y11579815D01*
X2088294Y11527011D01*
X2099500Y11475500D01*
X2099500Y11411305D01*
X2134103Y11237342D01*
X2134106Y11237333D01*
X2201983Y11073460D01*
X2201990Y11073447D01*
X2300535Y10925966D01*
X2300538Y10925962D01*
X2425961Y10800539D01*
X2425965Y10800536D01*
X2573446Y10701991D01*
X2573459Y10701984D01*
X2696363Y10651077D01*
X2737334Y10634106D01*
X2737336Y10634106D01*
X2737341Y10634104D01*
X2911304Y10599501D01*
X2911307Y10599500D01*
X2975500Y10599500D01*
X3042539Y10579815D01*
X3088294Y10527011D01*
X3099500Y10475500D01*
X3099500Y10411305D01*
X3134103Y10237342D01*
X3134106Y10237333D01*
X3201983Y10073460D01*
X3201990Y10073447D01*
X3300535Y9925966D01*
X3300538Y9925962D01*
X3425961Y9800539D01*
X3425965Y9800536D01*
X3573446Y9701991D01*
X3573459Y9701984D01*
X3693660Y9652196D01*
X3737334Y9634106D01*
X3737336Y9634106D01*
X3737341Y9634104D01*
X3911304Y9599501D01*
X3911307Y9599500D01*
X3975500Y9599500D01*
X4042539Y9579815D01*
X4088294Y9527011D01*
X4099500Y9475500D01*
X4099500Y9411305D01*
X4134103Y9237342D01*
X4134106Y9237333D01*
X4201983Y9073460D01*
X4201990Y9073447D01*
X4300535Y8925966D01*
X4300538Y8925962D01*
X4425961Y8800539D01*
X4425965Y8800536D01*
X4573446Y8701991D01*
X4573459Y8701984D01*
X4613512Y8685394D01*
X4737334Y8634106D01*
X4737336Y8634106D01*
X4737341Y8634104D01*
X4911304Y8599501D01*
X4911307Y8599500D01*
X4975500Y8599500D01*
X5042539Y8579815D01*
X5088294Y8527011D01*
X5099500Y8475500D01*
X5099500Y8411305D01*
X5134103Y8237342D01*
X5134106Y8237333D01*
X5201983Y8073460D01*
X5201990Y8073447D01*
X5300535Y7925966D01*
X5300538Y7925962D01*
X5425961Y7800539D01*
X5425965Y7800536D01*
X5573446Y7701991D01*
X5573459Y7701984D01*
X5661988Y7665315D01*
X5737334Y7634106D01*
X5737336Y7634106D01*
X5737341Y7634104D01*
X5911304Y7599501D01*
X5911307Y7599500D01*
X5975500Y7599500D01*
X6042539Y7579815D01*
X6088294Y7527011D01*
X6099500Y7475500D01*
X6099500Y7411305D01*
X6134103Y7237342D01*
X6134106Y7237333D01*
X6201983Y7073460D01*
X6201990Y7073447D01*
X6300535Y6925966D01*
X6300538Y6925962D01*
X6425961Y6800539D01*
X6425965Y6800536D01*
X6573446Y6701991D01*
X6573459Y6701984D01*
X6696363Y6651077D01*
X6737334Y6634106D01*
X6737336Y6634106D01*
X6737341Y6634104D01*
X6911304Y6599501D01*
X6911307Y6599500D01*
X6911309Y6599500D01*
X7088693Y6599500D01*
X7088694Y6599501D01*
X7146682Y6611036D01*
X7262658Y6634104D01*
X7262661Y6634106D01*
X7262666Y6634106D01*
X7426547Y6701987D01*
X7574035Y6800536D01*
X7699464Y6925965D01*
X7798013Y7073453D01*
X7865894Y7237334D01*
X7868843Y7252156D01*
X13260000Y7252156D01*
X13266401Y7192628D01*
X13266403Y7192621D01*
X13316645Y7057914D01*
X13316649Y7057907D01*
X13402809Y6942813D01*
X13402812Y6942810D01*
X13517906Y6856650D01*
X13517913Y6856646D01*
X13652620Y6806404D01*
X13652627Y6806402D01*
X13712155Y6800001D01*
X13712172Y6800000D01*
X13760000Y6800000D01*
X13760000Y7445000D01*
X13260000Y7445000D01*
X13260000Y7252156D01*
X7868843Y7252156D01*
X7900499Y7411305D01*
X7900500Y7411307D01*
X7900500Y7588694D01*
X7900499Y7588696D01*
X7865896Y7762659D01*
X7865893Y7762668D01*
X7850208Y7800536D01*
X7798013Y7926547D01*
X7798011Y7926549D01*
X7798011Y7926551D01*
X7721398Y8041210D01*
X7700520Y8107888D01*
X7700500Y8110101D01*
X7700500Y26889901D01*
X7720185Y26956940D01*
X7721398Y26958792D01*
X7798013Y27073453D01*
X7865894Y27237334D01*
X7881265Y27314606D01*
X7900499Y27411305D01*
X7900500Y27411307D01*
X7900500Y27588694D01*
X7900499Y27588696D01*
X7865896Y27762659D01*
X7865893Y27762668D01*
X7798016Y27926541D01*
X7798009Y27926554D01*
X7699464Y28074035D01*
X7699461Y28074039D01*
X7574038Y28199462D01*
X7574034Y28199465D01*
X7426553Y28298010D01*
X7426540Y28298017D01*
X7262667Y28365894D01*
X7262658Y28365897D01*
X7088694Y28400500D01*
X7088691Y28400500D01*
X7024500Y28400500D01*
X6957461Y28420185D01*
X6911706Y28472989D01*
X6900500Y28524500D01*
X6900500Y28588694D01*
X6900499Y28588696D01*
X6865896Y28762659D01*
X6865893Y28762668D01*
X6798016Y28926541D01*
X6798009Y28926554D01*
X6699464Y29074035D01*
X6699461Y29074039D01*
X6574038Y29199462D01*
X6574034Y29199465D01*
X6426553Y29298010D01*
X6426540Y29298017D01*
X6262667Y29365894D01*
X6262658Y29365897D01*
X6088694Y29400500D01*
X6088691Y29400500D01*
X6024500Y29400500D01*
X5957461Y29420185D01*
X5911706Y29472989D01*
X5900500Y29524500D01*
X5900500Y29588694D01*
X5900499Y29588696D01*
X5865896Y29762659D01*
X5865893Y29762668D01*
X5798016Y29926541D01*
X5798009Y29926554D01*
X5699464Y30074035D01*
X5699461Y30074039D01*
X5574038Y30199462D01*
X5574034Y30199465D01*
X5426553Y30298010D01*
X5426540Y30298017D01*
X5262667Y30365894D01*
X5262658Y30365897D01*
X5088694Y30400500D01*
X5088691Y30400500D01*
X5024500Y30400500D01*
X4957461Y30420185D01*
X4911706Y30472989D01*
X4900500Y30524500D01*
X4900500Y30588694D01*
X4900499Y30588696D01*
X4865896Y30762659D01*
X4865893Y30762668D01*
X4798016Y30926541D01*
X4798009Y30926554D01*
X4699464Y31074035D01*
X4699461Y31074039D01*
X4574038Y31199462D01*
X4574034Y31199465D01*
X4426553Y31298010D01*
X4426540Y31298017D01*
X4262667Y31365894D01*
X4262658Y31365897D01*
X4088694Y31400500D01*
X4088691Y31400500D01*
X4024500Y31400500D01*
X3957461Y31420185D01*
X3911706Y31472989D01*
X3900500Y31524500D01*
X3900500Y31588694D01*
X3900499Y31588696D01*
X3865896Y31762659D01*
X3865893Y31762668D01*
X3798016Y31926541D01*
X3798009Y31926554D01*
X3699464Y32074035D01*
X3699461Y32074039D01*
X3574038Y32199462D01*
X3574034Y32199465D01*
X3426553Y32298010D01*
X3426540Y32298017D01*
X3262667Y32365894D01*
X3262658Y32365897D01*
X3088694Y32400500D01*
X3088691Y32400500D01*
X3024500Y32400500D01*
X2957461Y32420185D01*
X2911706Y32472989D01*
X2900500Y32524500D01*
X2900500Y32588694D01*
X2900499Y32588696D01*
X2865896Y32762659D01*
X2865893Y32762668D01*
X2858335Y32780914D01*
X2837373Y32831523D01*
X2798016Y32926541D01*
X2798009Y32926554D01*
X2699464Y33074035D01*
X2699461Y33074039D01*
X2574038Y33199462D01*
X2574034Y33199465D01*
X2426553Y33298010D01*
X2426540Y33298017D01*
X2262667Y33365894D01*
X2262658Y33365897D01*
X2088694Y33400500D01*
X2088691Y33400500D01*
X2024500Y33400500D01*
X1957461Y33420185D01*
X1911706Y33472989D01*
X1900500Y33524500D01*
X1900500Y33588694D01*
X1900499Y33588696D01*
X1865896Y33762659D01*
X1865893Y33762668D01*
X1798016Y33926541D01*
X1798009Y33926554D01*
X1699464Y34074035D01*
X1699461Y34074039D01*
X1574038Y34199462D01*
X1574034Y34199465D01*
X1426553Y34298010D01*
X1426540Y34298017D01*
X1262667Y34365894D01*
X1262658Y34365897D01*
X1088694Y34400500D01*
X1088691Y34400500D01*
X1024500Y34400500D01*
X957461Y34420185D01*
X911706Y34472989D01*
X900500Y34524500D01*
X900500Y34588694D01*
X900499Y34588696D01*
X865896Y34762659D01*
X865893Y34762668D01*
X798016Y34926541D01*
X798009Y34926554D01*
X699464Y35074035D01*
X699461Y35074039D01*
X574038Y35199462D01*
X574034Y35199465D01*
X426553Y35298010D01*
X426540Y35298017D01*
X262667Y35365894D01*
X262658Y35365897D01*
X88694Y35400500D01*
X88691Y35400500D01*
X-88691Y35400500D01*
X-88694Y35400500D01*
X-262659Y35365897D01*
X-262668Y35365894D01*
X-426541Y35298017D01*
X-426554Y35298010D01*
X-574035Y35199465D01*
X-574039Y35199462D01*
X-699462Y35074039D01*
X-699465Y35074035D01*
X-798010Y34926554D01*
X-798017Y34926541D01*
X-865894Y34762668D01*
X-865897Y34762659D01*
X-900500Y34588696D01*
X-3041801Y34588696D01*
X-3041801Y34865366D01*
X-3048209Y34924977D01*
X-3048792Y34926541D01*
X-3060292Y34957374D01*
X-3065277Y35027065D01*
X-3060293Y35044042D01*
X-3048702Y35075120D01*
X-3042301Y35134648D01*
X-3042300Y35134665D01*
X-3042300Y35199992D01*
X-3176815Y35199992D01*
X-3243854Y35219677D01*
X-3251112Y35224716D01*
X-3299969Y35261290D01*
X-3299972Y35261292D01*
X-3434818Y35311586D01*
X-3434817Y35311586D01*
X-3494417Y35317993D01*
X-3494419Y35317994D01*
X-3494427Y35317994D01*
X-3494435Y35317994D01*
X-5393571Y35317994D01*
X-5393577Y35317993D01*
X-5453184Y35311586D01*
X-5588029Y35261292D01*
X-5588032Y35261290D01*
X-5636197Y35225233D01*
X-5701661Y35200816D01*
X-5710508Y35200500D01*
X-6389900Y35200500D01*
X-6456939Y35220185D01*
X-6458791Y35221398D01*
X-6573451Y35298012D01*
X-6573453Y35298013D01*
X-6737333Y35365894D01*
X-6737342Y35365897D01*
X-6911306Y35400500D01*
X-6911309Y35400500D01*
X-7088691Y35400500D01*
X-7088694Y35400500D01*
X-7262659Y35365897D01*
X-7262668Y35365894D01*
X-7426541Y35298017D01*
X-7426554Y35298010D01*
X-7574035Y35199465D01*
X-7574039Y35199462D01*
X-7699462Y35074039D01*
X-7699465Y35074035D01*
X-7798010Y34926554D01*
X-7798017Y34926541D01*
X-7865894Y34762668D01*
X-7865897Y34762659D01*
X-7900500Y34588696D01*
X-11494500Y34588696D01*
X-11494500Y37370500D01*
X-11474815Y37437539D01*
X-11422011Y37483294D01*
X-11370500Y37494500D01*
X-8736601Y37494500D01*
X-8669562Y37474815D01*
X-8623807Y37422011D01*
X-8612601Y37370500D01*
X-8612601Y36506759D01*
X-8606200Y36447231D01*
X-8606198Y36447224D01*
X-8555956Y36312517D01*
X-8555952Y36312510D01*
X-8469792Y36197416D01*
X-8469789Y36197413D01*
X-8354695Y36111253D01*
X-8354688Y36111249D01*
X-8219981Y36061007D01*
X-8219974Y36061005D01*
X-8160446Y36054604D01*
X-8160429Y36054603D01*
X-6914001Y36054603D01*
X-6914001Y37726003D01*
X-6894316Y37793042D01*
X-6841512Y37838797D01*
X-6790001Y37850003D01*
X-6438001Y37850003D01*
X-6370962Y37830318D01*
G37*
%TD.AperFunction*%
%TD*%
%TA.AperFunction,Conductor*%
%TO.N,PE*%
G36*
X-11706204Y47481729D02*
G01*
X-11691343Y47479925D01*
X-11409202Y47428220D01*
X-11394665Y47424637D01*
X-11120828Y47339305D01*
X-11106837Y47334000D01*
X-10845257Y47216273D01*
X-10832011Y47209320D01*
X-10586535Y47060925D01*
X-10574224Y47052427D01*
X-10569710Y47048891D01*
X-10348427Y46875527D01*
X-10337219Y46865597D01*
X-10134404Y46662782D01*
X-10124475Y46651575D01*
X-10003079Y46496624D01*
X-9947578Y46425783D01*
X-9939072Y46413460D01*
X-9790684Y46167996D01*
X-9783725Y46154737D01*
X-9666003Y45893169D01*
X-9660694Y45879168D01*
X-9575365Y45605337D01*
X-9571781Y45590799D01*
X-9520077Y45308660D01*
X-9518272Y45293795D01*
X-9500727Y45003754D01*
X-9500501Y44996267D01*
X-9500501Y42828034D01*
X-9466791Y42485750D01*
X-9399693Y42148427D01*
X-9299851Y41819293D01*
X-9168231Y41501535D01*
X-9168229Y41501530D01*
X-9006108Y41198224D01*
X-9006097Y41198206D01*
X-8815026Y40912248D01*
X-8815016Y40912234D01*
X-8596824Y40646367D01*
X-8353634Y40403177D01*
X-8353629Y40403173D01*
X-8353628Y40403172D01*
X-8087761Y40184980D01*
X-7801788Y39993899D01*
X-7801779Y39993894D01*
X-7801777Y39993893D01*
X-7498471Y39831772D01*
X-7498469Y39831772D01*
X-7498463Y39831768D01*
X-7384260Y39784464D01*
X-7329856Y39740623D01*
X-7307791Y39674329D01*
X-7325070Y39606630D01*
X-7376207Y39559019D01*
X-7431712Y39545903D01*
X-8144119Y39545903D01*
X-8224260Y39533210D01*
X-8237905Y39531049D01*
X-8350943Y39473453D01*
X-8350944Y39473452D01*
X-8350949Y39473449D01*
X-8440647Y39383751D01*
X-8440650Y39383746D01*
X-8498249Y39270705D01*
X-8513101Y39176928D01*
X-8513101Y38124000D01*
X-8532786Y38056961D01*
X-8585590Y38011206D01*
X-8637101Y38000000D01*
X-12000000Y38000000D01*
X-12000000Y-38000000D01*
X-8637100Y-38000000D01*
X-8570061Y-38019685D01*
X-8524306Y-38072489D01*
X-8513101Y-38123998D01*
X-8513100Y-39176921D01*
X-8498247Y-39270707D01*
X-8440651Y-39383745D01*
X-8440649Y-39383747D01*
X-8440647Y-39383750D01*
X-8350949Y-39473448D01*
X-8350947Y-39473449D01*
X-8350943Y-39473453D01*
X-8237905Y-39531049D01*
X-8237903Y-39531050D01*
X-8144126Y-39545902D01*
X-8144120Y-39545903D01*
X-7431708Y-39545902D01*
X-7364670Y-39565586D01*
X-7318915Y-39618390D01*
X-7308971Y-39687549D01*
X-7337996Y-39751105D01*
X-7384256Y-39784463D01*
X-7498465Y-39831770D01*
X-7498470Y-39831772D01*
X-7801776Y-39993893D01*
X-7801794Y-39993904D01*
X-8087752Y-40184975D01*
X-8087766Y-40184985D01*
X-8353633Y-40403176D01*
X-8596824Y-40646367D01*
X-8815015Y-40912234D01*
X-8815025Y-40912248D01*
X-9006096Y-41198206D01*
X-9006107Y-41198224D01*
X-9168228Y-41501530D01*
X-9168230Y-41501535D01*
X-9299850Y-41819293D01*
X-9399692Y-42148427D01*
X-9466790Y-42485750D01*
X-9500500Y-42828034D01*
X-9500500Y-42934107D01*
X-9500501Y-44996265D01*
X-9500727Y-45003752D01*
X-9518272Y-45293794D01*
X-9520077Y-45308659D01*
X-9571781Y-45590798D01*
X-9575365Y-45605336D01*
X-9660694Y-45879167D01*
X-9666003Y-45893168D01*
X-9783725Y-46154736D01*
X-9790684Y-46167995D01*
X-9939072Y-46413459D01*
X-9947578Y-46425782D01*
X-10124474Y-46651573D01*
X-10134404Y-46662781D01*
X-10337219Y-46865596D01*
X-10348427Y-46875526D01*
X-10574218Y-47052422D01*
X-10586541Y-47060928D01*
X-10832005Y-47209316D01*
X-10845264Y-47216275D01*
X-11106832Y-47333997D01*
X-11120833Y-47339306D01*
X-11394664Y-47424635D01*
X-11409202Y-47428219D01*
X-11691341Y-47479923D01*
X-11706206Y-47481728D01*
X-11992513Y-47499047D01*
X-12007487Y-47499047D01*
X-12293795Y-47481728D01*
X-12308660Y-47479923D01*
X-12590799Y-47428219D01*
X-12605337Y-47424635D01*
X-12879168Y-47339306D01*
X-12893169Y-47333997D01*
X-13154737Y-47216275D01*
X-13167996Y-47209316D01*
X-13174284Y-47205515D01*
X-13413463Y-47060926D01*
X-13425781Y-47052423D01*
X-13651574Y-46875526D01*
X-13662782Y-46865596D01*
X-13865597Y-46662781D01*
X-13875527Y-46651573D01*
X-13995481Y-46498463D01*
X-14052427Y-46425776D01*
X-14060925Y-46413465D01*
X-14209321Y-46167988D01*
X-14216273Y-46154743D01*
X-14334000Y-45893163D01*
X-14339307Y-45879167D01*
X-14347904Y-45851579D01*
X-14424637Y-45605335D01*
X-14428220Y-45590798D01*
X-14479924Y-45308659D01*
X-14481729Y-45293794D01*
X-14499274Y-45003736D01*
X-14499500Y-44996249D01*
X-14499500Y44996251D01*
X-14499274Y45003738D01*
X-14481729Y45293795D01*
X-14479924Y45308660D01*
X-14428220Y45590799D01*
X-14424636Y45605337D01*
X-14339304Y45879178D01*
X-14334002Y45893159D01*
X-14216269Y46154751D01*
X-14209324Y46167984D01*
X-14060920Y46413474D01*
X-14052433Y46425770D01*
X-13875520Y46651583D01*
X-13865605Y46662774D01*
X-13662774Y46865605D01*
X-13651583Y46875520D01*
X-13425770Y47052433D01*
X-13413474Y47060920D01*
X-13167984Y47209324D01*
X-13154751Y47216269D01*
X-12893159Y47334002D01*
X-12879178Y47339304D01*
X-12605332Y47424638D01*
X-12590803Y47428220D01*
X-12308656Y47479925D01*
X-12293799Y47481729D01*
X-12007473Y47499048D01*
X-11992527Y47499048D01*
X-11706204Y47481729D01*
G37*
%TD.AperFunction*%
%TA.AperFunction,Conductor*%
G36*
X14438247Y-38019685D02*
G01*
X14484002Y-38072489D01*
X14495208Y-38124000D01*
X14495208Y-44996249D01*
X14494982Y-45003736D01*
X14477467Y-45293277D01*
X14475662Y-45308142D01*
X14424052Y-45589770D01*
X14420468Y-45604308D01*
X14335293Y-45877645D01*
X14329983Y-45891646D01*
X14212473Y-46152741D01*
X14205515Y-46165999D01*
X14057396Y-46411020D01*
X14048890Y-46423344D01*
X13872313Y-46648727D01*
X13862383Y-46659935D01*
X13659935Y-46862383D01*
X13648727Y-46872313D01*
X13423344Y-47048890D01*
X13411020Y-47057396D01*
X13165999Y-47205515D01*
X13152741Y-47212473D01*
X12891646Y-47329983D01*
X12877645Y-47335293D01*
X12604308Y-47420468D01*
X12589770Y-47424052D01*
X12308142Y-47475662D01*
X12293277Y-47477467D01*
X12003736Y-47494982D01*
X11996249Y-47495208D01*
X11932788Y-47495208D01*
X11925303Y-47494982D01*
X11905411Y-47493778D01*
X11706204Y-47481729D01*
X11691339Y-47479924D01*
X11409201Y-47428220D01*
X11394663Y-47424636D01*
X11120824Y-47339305D01*
X11106826Y-47333996D01*
X10954095Y-47265257D01*
X10845268Y-47216278D01*
X10832011Y-47209320D01*
X10586540Y-47060929D01*
X10574216Y-47052423D01*
X10569706Y-47048890D01*
X10348425Y-46875526D01*
X10337217Y-46865596D01*
X10134403Y-46662782D01*
X10124473Y-46651574D01*
X10122243Y-46648727D01*
X9947572Y-46425777D01*
X9939070Y-46413459D01*
X9790679Y-46167988D01*
X9783721Y-46154731D01*
X9665999Y-45893164D01*
X9660697Y-45879183D01*
X9575362Y-45605335D01*
X9571779Y-45590798D01*
X9520075Y-45308660D01*
X9518270Y-45293795D01*
X9500725Y-45003737D01*
X9500499Y-44996250D01*
X9500499Y-44934108D01*
X9500500Y-42934108D01*
X9500500Y-42828034D01*
X9466789Y-42485750D01*
X9399691Y-42148427D01*
X9399690Y-42148426D01*
X9399690Y-42148422D01*
X9299850Y-41819295D01*
X9168231Y-41501538D01*
X9006100Y-41198213D01*
X8815019Y-40912240D01*
X8596828Y-40646373D01*
X8596827Y-40646372D01*
X8596823Y-40646367D01*
X8353632Y-40403176D01*
X8087765Y-40184985D01*
X8087764Y-40184984D01*
X8087760Y-40184981D01*
X7801787Y-39993900D01*
X7801782Y-39993897D01*
X7801775Y-39993893D01*
X7498469Y-39831772D01*
X7498464Y-39831770D01*
X7180706Y-39700150D01*
X6851572Y-39600308D01*
X6514248Y-39533210D01*
X6514249Y-39533210D01*
X6256456Y-39507821D01*
X6171969Y-39499500D01*
X6171966Y-39499500D01*
X-4643982Y-39499500D01*
X-4711021Y-39479815D01*
X-4756776Y-39427011D01*
X-4766720Y-39357853D01*
X-4754466Y-39319204D01*
X-4729755Y-39270707D01*
X-4729755Y-39270705D01*
X-4729754Y-39270704D01*
X-4714901Y-39176927D01*
X-4714901Y-38124000D01*
X-4695216Y-38056961D01*
X-4642412Y-38011206D01*
X-4590901Y-38000000D01*
X14371208Y-38000000D01*
X14438247Y-38019685D01*
G37*
%TD.AperFunction*%
%TA.AperFunction,Conductor*%
G36*
X12003736Y47494982D02*
G01*
X12293278Y47477468D01*
X12308141Y47475664D01*
X12589770Y47424053D01*
X12604307Y47420470D01*
X12877650Y47335292D01*
X12891646Y47329984D01*
X13152741Y47212474D01*
X13165999Y47205516D01*
X13411020Y47057397D01*
X13423338Y47048895D01*
X13644626Y46875527D01*
X13648727Y46872314D01*
X13659935Y46862384D01*
X13862383Y46659936D01*
X13872313Y46648728D01*
X13990038Y46498463D01*
X14048890Y46423345D01*
X14057396Y46411021D01*
X14205515Y46166000D01*
X14212473Y46152742D01*
X14329983Y45891647D01*
X14335293Y45877646D01*
X14420468Y45604309D01*
X14424052Y45589771D01*
X14475662Y45308143D01*
X14477467Y45293278D01*
X14494982Y45003738D01*
X14495208Y44996251D01*
X14495208Y38124000D01*
X14475523Y38056961D01*
X14422719Y38011206D01*
X14371208Y38000000D01*
X-4590902Y38000000D01*
X-4657941Y38019685D01*
X-4703696Y38072489D01*
X-4714902Y38124000D01*
X-4714902Y39176921D01*
X-4714903Y39176928D01*
X-4729755Y39270707D01*
X-4754466Y39319205D01*
X-4767362Y39387874D01*
X-4741085Y39452614D01*
X-4683979Y39492871D01*
X-4643981Y39499499D01*
X6171967Y39499499D01*
X6171970Y39499499D01*
X6514251Y39533210D01*
X6851579Y39600309D01*
X7180706Y39700149D01*
X7498463Y39831768D01*
X7801788Y39993899D01*
X8087761Y40184980D01*
X8353628Y40403172D01*
X8596828Y40646372D01*
X8815020Y40912239D01*
X9006101Y41198212D01*
X9168232Y41501537D01*
X9299851Y41819294D01*
X9399691Y42148421D01*
X9466790Y42485749D01*
X9500501Y42828030D01*
X9500501Y42999999D01*
X9500501Y43065891D01*
X9500501Y43080320D01*
X9500499Y43080338D01*
X9500499Y44996252D01*
X9500725Y45003739D01*
X9518270Y45293796D01*
X9520075Y45308661D01*
X9571779Y45590799D01*
X9575363Y45605337D01*
X9660698Y45879189D01*
X9666001Y45893169D01*
X9783726Y46154743D01*
X9790679Y46167989D01*
X9937596Y46411021D01*
X9939074Y46413467D01*
X9947566Y46425771D01*
X10124480Y46651584D01*
X10134395Y46662775D01*
X10337225Y46865605D01*
X10348416Y46875520D01*
X10574229Y47052434D01*
X10586539Y47060929D01*
X10765380Y47169042D01*
X10832011Y47209321D01*
X10845257Y47216274D01*
X11106841Y47334004D01*
X11120811Y47339302D01*
X11394667Y47424639D01*
X11409197Y47428221D01*
X11691343Y47479926D01*
X11706201Y47481730D01*
X11925286Y47494983D01*
X11932773Y47495208D01*
X11934108Y47495208D01*
X11996249Y47495208D01*
X12003736Y47494982D01*
G37*
%TD.AperFunction*%
%TD*%
M02*
