%TF.GenerationSoftware,KiCad,Pcbnew,9.0.6*%
%TF.CreationDate,2025-12-11T14:37:30+03:00*%
%TF.ProjectId,PMLED-18,504d4c45-442d-4313-982e-6b696361645f,rev?*%
%TF.SameCoordinates,Original*%
%TF.FileFunction,Legend,Top*%
%TF.FilePolarity,Positive*%
%FSLAX46Y46*%
G04 Gerber Fmt 4.6, Leading zero omitted, Abs format (unit mm)*
G04 Created by KiCad (PCBNEW 9.0.6) date 2025-12-11 14:37:30*
%MOMM*%
%LPD*%
G01*
G04 APERTURE LIST*
%ADD10C,0.100000*%
%ADD11C,0.160000*%
G04 APERTURE END LIST*
D10*
X-1250000Y-11500000D02*
X7750000Y-11500000D01*
X7750000Y-14500000D01*
X-1250000Y-14500000D01*
X-1250000Y-11500000D01*
G36*
X-1250000Y-11500000D02*
G01*
X7750000Y-11500000D01*
X7750000Y-14500000D01*
X-1250000Y-14500000D01*
X-1250000Y-11500000D01*
G37*
X-1250000Y25000000D02*
X7750000Y25000000D01*
X7750000Y22000000D01*
X-1250000Y22000000D01*
X-1250000Y25000000D01*
G36*
X-1250000Y25000000D02*
G01*
X7750000Y25000000D01*
X7750000Y22000000D01*
X-1250000Y22000000D01*
X-1250000Y25000000D01*
G37*
X-1250000Y28500000D02*
X7750000Y28500000D01*
X7750000Y25500000D01*
X-1250000Y25500000D01*
X-1250000Y28500000D01*
G36*
X-1250000Y28500000D02*
G01*
X7750000Y28500000D01*
X7750000Y25500000D01*
X-1250000Y25500000D01*
X-1250000Y28500000D01*
G37*
X-1250000Y18000000D02*
X7750000Y18000000D01*
X7750000Y15000000D01*
X-1250000Y15000000D01*
X-1250000Y18000000D01*
G36*
X-1250000Y18000000D02*
G01*
X7750000Y18000000D01*
X7750000Y15000000D01*
X-1250000Y15000000D01*
X-1250000Y18000000D01*
G37*
X-1250000Y14500000D02*
X7750000Y14500000D01*
X7750000Y11500000D01*
X-1250000Y11500000D01*
X-1250000Y14500000D01*
G36*
X-1250000Y14500000D02*
G01*
X7750000Y14500000D01*
X7750000Y11500000D01*
X-1250000Y11500000D01*
X-1250000Y14500000D01*
G37*
X-1250000Y-32500000D02*
X7750000Y-32500000D01*
X7750000Y-35500000D01*
X-1250000Y-35500000D01*
X-1250000Y-32500000D01*
G36*
X-1250000Y-32500000D02*
G01*
X7750000Y-32500000D01*
X7750000Y-35500000D01*
X-1250000Y-35500000D01*
X-1250000Y-32500000D01*
G37*
X-1250000Y21500000D02*
X7750000Y21500000D01*
X7750000Y18500000D01*
X-1250000Y18500000D01*
X-1250000Y21500000D01*
G36*
X-1250000Y21500000D02*
G01*
X7750000Y21500000D01*
X7750000Y18500000D01*
X-1250000Y18500000D01*
X-1250000Y21500000D01*
G37*
X-1250000Y-25500000D02*
X7750000Y-25500000D01*
X7750000Y-28500000D01*
X-1250000Y-28500000D01*
X-1250000Y-25500000D01*
G36*
X-1250000Y-25500000D02*
G01*
X7750000Y-25500000D01*
X7750000Y-28500000D01*
X-1250000Y-28500000D01*
X-1250000Y-25500000D01*
G37*
X-1250000Y-22000000D02*
X7750000Y-22000000D01*
X7750000Y-25000000D01*
X-1250000Y-25000000D01*
X-1250000Y-22000000D01*
G36*
X-1250000Y-22000000D02*
G01*
X7750000Y-22000000D01*
X7750000Y-25000000D01*
X-1250000Y-25000000D01*
X-1250000Y-22000000D01*
G37*
X-1250000Y-15000000D02*
X7750000Y-15000000D01*
X7750000Y-18000000D01*
X-1250000Y-18000000D01*
X-1250000Y-15000000D01*
G36*
X-1250000Y-15000000D02*
G01*
X7750000Y-15000000D01*
X7750000Y-18000000D01*
X-1250000Y-18000000D01*
X-1250000Y-15000000D01*
G37*
X-1250000Y11000000D02*
X7750000Y11000000D01*
X7750000Y8000000D01*
X-1250000Y8000000D01*
X-1250000Y11000000D01*
G36*
X-1250000Y11000000D02*
G01*
X7750000Y11000000D01*
X7750000Y8000000D01*
X-1250000Y8000000D01*
X-1250000Y11000000D01*
G37*
X-1250000Y-1000000D02*
X7750000Y-1000000D01*
X7750000Y-4000000D01*
X-1250000Y-4000000D01*
X-1250000Y-1000000D01*
G36*
X-1250000Y-1000000D02*
G01*
X7750000Y-1000000D01*
X7750000Y-4000000D01*
X-1250000Y-4000000D01*
X-1250000Y-1000000D01*
G37*
X-1250000Y39500000D02*
X8000000Y39500000D01*
X8000000Y36500000D01*
X-1250000Y36500000D01*
X-1250000Y39500000D01*
G36*
X-1250000Y39500000D02*
G01*
X8000000Y39500000D01*
X8000000Y36500000D01*
X-1250000Y36500000D01*
X-1250000Y39500000D01*
G37*
X-1250000Y-4500000D02*
X7750000Y-4500000D01*
X7750000Y-7500000D01*
X-1250000Y-7500000D01*
X-1250000Y-4500000D01*
G36*
X-1250000Y-4500000D02*
G01*
X7750000Y-4500000D01*
X7750000Y-7500000D01*
X-1250000Y-7500000D01*
X-1250000Y-4500000D01*
G37*
X-1250000Y-29000000D02*
X7750000Y-29000000D01*
X7750000Y-32000000D01*
X-1250000Y-32000000D01*
X-1250000Y-29000000D01*
G36*
X-1250000Y-29000000D02*
G01*
X7750000Y-29000000D01*
X7750000Y-32000000D01*
X-1250000Y-32000000D01*
X-1250000Y-29000000D01*
G37*
X-1250000Y7500000D02*
X7750000Y7500000D01*
X7750000Y4500000D01*
X-1250000Y4500000D01*
X-1250000Y7500000D01*
G36*
X-1250000Y7500000D02*
G01*
X7750000Y7500000D01*
X7750000Y4500000D01*
X-1250000Y4500000D01*
X-1250000Y7500000D01*
G37*
X-1250000Y-18500000D02*
X7750000Y-18500000D01*
X7750000Y-21500000D01*
X-1250000Y-21500000D01*
X-1250000Y-18500000D01*
G36*
X-1250000Y-18500000D02*
G01*
X7750000Y-18500000D01*
X7750000Y-21500000D01*
X-1250000Y-21500000D01*
X-1250000Y-18500000D01*
G37*
X-1250000Y4000000D02*
X7750000Y4000000D01*
X7750000Y1000000D01*
X-1250000Y1000000D01*
X-1250000Y4000000D01*
G36*
X-1250000Y4000000D02*
G01*
X7750000Y4000000D01*
X7750000Y1000000D01*
X-1250000Y1000000D01*
X-1250000Y4000000D01*
G37*
X-1250000Y-8000000D02*
X7750000Y-8000000D01*
X7750000Y-11000000D01*
X-1250000Y-11000000D01*
X-1250000Y-8000000D01*
G36*
X-1250000Y-8000000D02*
G01*
X7750000Y-8000000D01*
X7750000Y-11000000D01*
X-1250000Y-11000000D01*
X-1250000Y-8000000D01*
G37*
D11*
X9357142Y-33954299D02*
X9023809Y-33478108D01*
X8785714Y-33954299D02*
X8785714Y-32954299D01*
X8785714Y-32954299D02*
X9166666Y-32954299D01*
X9166666Y-32954299D02*
X9261904Y-33001918D01*
X9261904Y-33001918D02*
X9309523Y-33049537D01*
X9309523Y-33049537D02*
X9357142Y-33144775D01*
X9357142Y-33144775D02*
X9357142Y-33287632D01*
X9357142Y-33287632D02*
X9309523Y-33382870D01*
X9309523Y-33382870D02*
X9261904Y-33430489D01*
X9261904Y-33430489D02*
X9166666Y-33478108D01*
X9166666Y-33478108D02*
X8785714Y-33478108D01*
X10309523Y-33954299D02*
X9738095Y-33954299D01*
X10023809Y-33954299D02*
X10023809Y-32954299D01*
X10023809Y-32954299D02*
X9928571Y-33097156D01*
X9928571Y-33097156D02*
X9833333Y-33192394D01*
X9833333Y-33192394D02*
X9738095Y-33240013D01*
X10880952Y-33382870D02*
X10785714Y-33335251D01*
X10785714Y-33335251D02*
X10738095Y-33287632D01*
X10738095Y-33287632D02*
X10690476Y-33192394D01*
X10690476Y-33192394D02*
X10690476Y-33144775D01*
X10690476Y-33144775D02*
X10738095Y-33049537D01*
X10738095Y-33049537D02*
X10785714Y-33001918D01*
X10785714Y-33001918D02*
X10880952Y-32954299D01*
X10880952Y-32954299D02*
X11071428Y-32954299D01*
X11071428Y-32954299D02*
X11166666Y-33001918D01*
X11166666Y-33001918D02*
X11214285Y-33049537D01*
X11214285Y-33049537D02*
X11261904Y-33144775D01*
X11261904Y-33144775D02*
X11261904Y-33192394D01*
X11261904Y-33192394D02*
X11214285Y-33287632D01*
X11214285Y-33287632D02*
X11166666Y-33335251D01*
X11166666Y-33335251D02*
X11071428Y-33382870D01*
X11071428Y-33382870D02*
X10880952Y-33382870D01*
X10880952Y-33382870D02*
X10785714Y-33430489D01*
X10785714Y-33430489D02*
X10738095Y-33478108D01*
X10738095Y-33478108D02*
X10690476Y-33573346D01*
X10690476Y-33573346D02*
X10690476Y-33763822D01*
X10690476Y-33763822D02*
X10738095Y-33859060D01*
X10738095Y-33859060D02*
X10785714Y-33906680D01*
X10785714Y-33906680D02*
X10880952Y-33954299D01*
X10880952Y-33954299D02*
X11071428Y-33954299D01*
X11071428Y-33954299D02*
X11166666Y-33906680D01*
X11166666Y-33906680D02*
X11214285Y-33859060D01*
X11214285Y-33859060D02*
X11261904Y-33763822D01*
X11261904Y-33763822D02*
X11261904Y-33573346D01*
X11261904Y-33573346D02*
X11214285Y-33478108D01*
X11214285Y-33478108D02*
X11166666Y-33430489D01*
X11166666Y-33430489D02*
X11071428Y-33382870D01*
X9357142Y-30454299D02*
X9023809Y-29978108D01*
X8785714Y-30454299D02*
X8785714Y-29454299D01*
X8785714Y-29454299D02*
X9166666Y-29454299D01*
X9166666Y-29454299D02*
X9261904Y-29501918D01*
X9261904Y-29501918D02*
X9309523Y-29549537D01*
X9309523Y-29549537D02*
X9357142Y-29644775D01*
X9357142Y-29644775D02*
X9357142Y-29787632D01*
X9357142Y-29787632D02*
X9309523Y-29882870D01*
X9309523Y-29882870D02*
X9261904Y-29930489D01*
X9261904Y-29930489D02*
X9166666Y-29978108D01*
X9166666Y-29978108D02*
X8785714Y-29978108D01*
X10309523Y-30454299D02*
X9738095Y-30454299D01*
X10023809Y-30454299D02*
X10023809Y-29454299D01*
X10023809Y-29454299D02*
X9928571Y-29597156D01*
X9928571Y-29597156D02*
X9833333Y-29692394D01*
X9833333Y-29692394D02*
X9738095Y-29740013D01*
X10642857Y-29454299D02*
X11309523Y-29454299D01*
X11309523Y-29454299D02*
X10880952Y-30454299D01*
X9357142Y-25454299D02*
X9023809Y-24978108D01*
X8785714Y-25454299D02*
X8785714Y-24454299D01*
X8785714Y-24454299D02*
X9166666Y-24454299D01*
X9166666Y-24454299D02*
X9261904Y-24501918D01*
X9261904Y-24501918D02*
X9309523Y-24549537D01*
X9309523Y-24549537D02*
X9357142Y-24644775D01*
X9357142Y-24644775D02*
X9357142Y-24787632D01*
X9357142Y-24787632D02*
X9309523Y-24882870D01*
X9309523Y-24882870D02*
X9261904Y-24930489D01*
X9261904Y-24930489D02*
X9166666Y-24978108D01*
X9166666Y-24978108D02*
X8785714Y-24978108D01*
X10309523Y-25454299D02*
X9738095Y-25454299D01*
X10023809Y-25454299D02*
X10023809Y-24454299D01*
X10023809Y-24454299D02*
X9928571Y-24597156D01*
X9928571Y-24597156D02*
X9833333Y-24692394D01*
X9833333Y-24692394D02*
X9738095Y-24740013D01*
X11166666Y-24454299D02*
X10976190Y-24454299D01*
X10976190Y-24454299D02*
X10880952Y-24501918D01*
X10880952Y-24501918D02*
X10833333Y-24549537D01*
X10833333Y-24549537D02*
X10738095Y-24692394D01*
X10738095Y-24692394D02*
X10690476Y-24882870D01*
X10690476Y-24882870D02*
X10690476Y-25263822D01*
X10690476Y-25263822D02*
X10738095Y-25359060D01*
X10738095Y-25359060D02*
X10785714Y-25406680D01*
X10785714Y-25406680D02*
X10880952Y-25454299D01*
X10880952Y-25454299D02*
X11071428Y-25454299D01*
X11071428Y-25454299D02*
X11166666Y-25406680D01*
X11166666Y-25406680D02*
X11214285Y-25359060D01*
X11214285Y-25359060D02*
X11261904Y-25263822D01*
X11261904Y-25263822D02*
X11261904Y-25025727D01*
X11261904Y-25025727D02*
X11214285Y-24930489D01*
X11214285Y-24930489D02*
X11166666Y-24882870D01*
X11166666Y-24882870D02*
X11071428Y-24835251D01*
X11071428Y-24835251D02*
X10880952Y-24835251D01*
X10880952Y-24835251D02*
X10785714Y-24882870D01*
X10785714Y-24882870D02*
X10738095Y-24930489D01*
X10738095Y-24930489D02*
X10690476Y-25025727D01*
X9357142Y-21954299D02*
X9023809Y-21478108D01*
X8785714Y-21954299D02*
X8785714Y-20954299D01*
X8785714Y-20954299D02*
X9166666Y-20954299D01*
X9166666Y-20954299D02*
X9261904Y-21001918D01*
X9261904Y-21001918D02*
X9309523Y-21049537D01*
X9309523Y-21049537D02*
X9357142Y-21144775D01*
X9357142Y-21144775D02*
X9357142Y-21287632D01*
X9357142Y-21287632D02*
X9309523Y-21382870D01*
X9309523Y-21382870D02*
X9261904Y-21430489D01*
X9261904Y-21430489D02*
X9166666Y-21478108D01*
X9166666Y-21478108D02*
X8785714Y-21478108D01*
X10309523Y-21954299D02*
X9738095Y-21954299D01*
X10023809Y-21954299D02*
X10023809Y-20954299D01*
X10023809Y-20954299D02*
X9928571Y-21097156D01*
X9928571Y-21097156D02*
X9833333Y-21192394D01*
X9833333Y-21192394D02*
X9738095Y-21240013D01*
X11214285Y-20954299D02*
X10738095Y-20954299D01*
X10738095Y-20954299D02*
X10690476Y-21430489D01*
X10690476Y-21430489D02*
X10738095Y-21382870D01*
X10738095Y-21382870D02*
X10833333Y-21335251D01*
X10833333Y-21335251D02*
X11071428Y-21335251D01*
X11071428Y-21335251D02*
X11166666Y-21382870D01*
X11166666Y-21382870D02*
X11214285Y-21430489D01*
X11214285Y-21430489D02*
X11261904Y-21525727D01*
X11261904Y-21525727D02*
X11261904Y-21763822D01*
X11261904Y-21763822D02*
X11214285Y-21859060D01*
X11214285Y-21859060D02*
X11166666Y-21906680D01*
X11166666Y-21906680D02*
X11071428Y-21954299D01*
X11071428Y-21954299D02*
X10833333Y-21954299D01*
X10833333Y-21954299D02*
X10738095Y-21906680D01*
X10738095Y-21906680D02*
X10690476Y-21859060D01*
X9357142Y-18454299D02*
X9023809Y-17978108D01*
X8785714Y-18454299D02*
X8785714Y-17454299D01*
X8785714Y-17454299D02*
X9166666Y-17454299D01*
X9166666Y-17454299D02*
X9261904Y-17501918D01*
X9261904Y-17501918D02*
X9309523Y-17549537D01*
X9309523Y-17549537D02*
X9357142Y-17644775D01*
X9357142Y-17644775D02*
X9357142Y-17787632D01*
X9357142Y-17787632D02*
X9309523Y-17882870D01*
X9309523Y-17882870D02*
X9261904Y-17930489D01*
X9261904Y-17930489D02*
X9166666Y-17978108D01*
X9166666Y-17978108D02*
X8785714Y-17978108D01*
X10309523Y-18454299D02*
X9738095Y-18454299D01*
X10023809Y-18454299D02*
X10023809Y-17454299D01*
X10023809Y-17454299D02*
X9928571Y-17597156D01*
X9928571Y-17597156D02*
X9833333Y-17692394D01*
X9833333Y-17692394D02*
X9738095Y-17740013D01*
X11166666Y-17787632D02*
X11166666Y-18454299D01*
X10928571Y-17406680D02*
X10690476Y-18120965D01*
X10690476Y-18120965D02*
X11309523Y-18120965D01*
X9357142Y-14954299D02*
X9023809Y-14478108D01*
X8785714Y-14954299D02*
X8785714Y-13954299D01*
X8785714Y-13954299D02*
X9166666Y-13954299D01*
X9166666Y-13954299D02*
X9261904Y-14001918D01*
X9261904Y-14001918D02*
X9309523Y-14049537D01*
X9309523Y-14049537D02*
X9357142Y-14144775D01*
X9357142Y-14144775D02*
X9357142Y-14287632D01*
X9357142Y-14287632D02*
X9309523Y-14382870D01*
X9309523Y-14382870D02*
X9261904Y-14430489D01*
X9261904Y-14430489D02*
X9166666Y-14478108D01*
X9166666Y-14478108D02*
X8785714Y-14478108D01*
X10309523Y-14954299D02*
X9738095Y-14954299D01*
X10023809Y-14954299D02*
X10023809Y-13954299D01*
X10023809Y-13954299D02*
X9928571Y-14097156D01*
X9928571Y-14097156D02*
X9833333Y-14192394D01*
X9833333Y-14192394D02*
X9738095Y-14240013D01*
X10642857Y-13954299D02*
X11261904Y-13954299D01*
X11261904Y-13954299D02*
X10928571Y-14335251D01*
X10928571Y-14335251D02*
X11071428Y-14335251D01*
X11071428Y-14335251D02*
X11166666Y-14382870D01*
X11166666Y-14382870D02*
X11214285Y-14430489D01*
X11214285Y-14430489D02*
X11261904Y-14525727D01*
X11261904Y-14525727D02*
X11261904Y-14763822D01*
X11261904Y-14763822D02*
X11214285Y-14859060D01*
X11214285Y-14859060D02*
X11166666Y-14906680D01*
X11166666Y-14906680D02*
X11071428Y-14954299D01*
X11071428Y-14954299D02*
X10785714Y-14954299D01*
X10785714Y-14954299D02*
X10690476Y-14906680D01*
X10690476Y-14906680D02*
X10642857Y-14859060D01*
X9357142Y-11454299D02*
X9023809Y-10978108D01*
X8785714Y-11454299D02*
X8785714Y-10454299D01*
X8785714Y-10454299D02*
X9166666Y-10454299D01*
X9166666Y-10454299D02*
X9261904Y-10501918D01*
X9261904Y-10501918D02*
X9309523Y-10549537D01*
X9309523Y-10549537D02*
X9357142Y-10644775D01*
X9357142Y-10644775D02*
X9357142Y-10787632D01*
X9357142Y-10787632D02*
X9309523Y-10882870D01*
X9309523Y-10882870D02*
X9261904Y-10930489D01*
X9261904Y-10930489D02*
X9166666Y-10978108D01*
X9166666Y-10978108D02*
X8785714Y-10978108D01*
X10309523Y-11454299D02*
X9738095Y-11454299D01*
X10023809Y-11454299D02*
X10023809Y-10454299D01*
X10023809Y-10454299D02*
X9928571Y-10597156D01*
X9928571Y-10597156D02*
X9833333Y-10692394D01*
X9833333Y-10692394D02*
X9738095Y-10740013D01*
X10690476Y-10549537D02*
X10738095Y-10501918D01*
X10738095Y-10501918D02*
X10833333Y-10454299D01*
X10833333Y-10454299D02*
X11071428Y-10454299D01*
X11071428Y-10454299D02*
X11166666Y-10501918D01*
X11166666Y-10501918D02*
X11214285Y-10549537D01*
X11214285Y-10549537D02*
X11261904Y-10644775D01*
X11261904Y-10644775D02*
X11261904Y-10740013D01*
X11261904Y-10740013D02*
X11214285Y-10882870D01*
X11214285Y-10882870D02*
X10642857Y-11454299D01*
X10642857Y-11454299D02*
X11261904Y-11454299D01*
X9357142Y-7954299D02*
X9023809Y-7478108D01*
X8785714Y-7954299D02*
X8785714Y-6954299D01*
X8785714Y-6954299D02*
X9166666Y-6954299D01*
X9166666Y-6954299D02*
X9261904Y-7001918D01*
X9261904Y-7001918D02*
X9309523Y-7049537D01*
X9309523Y-7049537D02*
X9357142Y-7144775D01*
X9357142Y-7144775D02*
X9357142Y-7287632D01*
X9357142Y-7287632D02*
X9309523Y-7382870D01*
X9309523Y-7382870D02*
X9261904Y-7430489D01*
X9261904Y-7430489D02*
X9166666Y-7478108D01*
X9166666Y-7478108D02*
X8785714Y-7478108D01*
X10309523Y-7954299D02*
X9738095Y-7954299D01*
X10023809Y-7954299D02*
X10023809Y-6954299D01*
X10023809Y-6954299D02*
X9928571Y-7097156D01*
X9928571Y-7097156D02*
X9833333Y-7192394D01*
X9833333Y-7192394D02*
X9738095Y-7240013D01*
X11261904Y-7954299D02*
X10690476Y-7954299D01*
X10976190Y-7954299D02*
X10976190Y-6954299D01*
X10976190Y-6954299D02*
X10880952Y-7097156D01*
X10880952Y-7097156D02*
X10785714Y-7192394D01*
X10785714Y-7192394D02*
X10690476Y-7240013D01*
X9357142Y-4454299D02*
X9023809Y-3978108D01*
X8785714Y-4454299D02*
X8785714Y-3454299D01*
X8785714Y-3454299D02*
X9166666Y-3454299D01*
X9166666Y-3454299D02*
X9261904Y-3501918D01*
X9261904Y-3501918D02*
X9309523Y-3549537D01*
X9309523Y-3549537D02*
X9357142Y-3644775D01*
X9357142Y-3644775D02*
X9357142Y-3787632D01*
X9357142Y-3787632D02*
X9309523Y-3882870D01*
X9309523Y-3882870D02*
X9261904Y-3930489D01*
X9261904Y-3930489D02*
X9166666Y-3978108D01*
X9166666Y-3978108D02*
X8785714Y-3978108D01*
X10309523Y-4454299D02*
X9738095Y-4454299D01*
X10023809Y-4454299D02*
X10023809Y-3454299D01*
X10023809Y-3454299D02*
X9928571Y-3597156D01*
X9928571Y-3597156D02*
X9833333Y-3692394D01*
X9833333Y-3692394D02*
X9738095Y-3740013D01*
X10928571Y-3454299D02*
X11023809Y-3454299D01*
X11023809Y-3454299D02*
X11119047Y-3501918D01*
X11119047Y-3501918D02*
X11166666Y-3549537D01*
X11166666Y-3549537D02*
X11214285Y-3644775D01*
X11214285Y-3644775D02*
X11261904Y-3835251D01*
X11261904Y-3835251D02*
X11261904Y-4073346D01*
X11261904Y-4073346D02*
X11214285Y-4263822D01*
X11214285Y-4263822D02*
X11166666Y-4359060D01*
X11166666Y-4359060D02*
X11119047Y-4406680D01*
X11119047Y-4406680D02*
X11023809Y-4454299D01*
X11023809Y-4454299D02*
X10928571Y-4454299D01*
X10928571Y-4454299D02*
X10833333Y-4406680D01*
X10833333Y-4406680D02*
X10785714Y-4359060D01*
X10785714Y-4359060D02*
X10738095Y-4263822D01*
X10738095Y-4263822D02*
X10690476Y-4073346D01*
X10690476Y-4073346D02*
X10690476Y-3835251D01*
X10690476Y-3835251D02*
X10738095Y-3644775D01*
X10738095Y-3644775D02*
X10785714Y-3549537D01*
X10785714Y-3549537D02*
X10833333Y-3501918D01*
X10833333Y-3501918D02*
X10928571Y-3454299D01*
X9833333Y-954299D02*
X9500000Y-478108D01*
X9261905Y-954299D02*
X9261905Y45701D01*
X9261905Y45701D02*
X9642857Y45701D01*
X9642857Y45701D02*
X9738095Y-1918D01*
X9738095Y-1918D02*
X9785714Y-49537D01*
X9785714Y-49537D02*
X9833333Y-144775D01*
X9833333Y-144775D02*
X9833333Y-287632D01*
X9833333Y-287632D02*
X9785714Y-382870D01*
X9785714Y-382870D02*
X9738095Y-430489D01*
X9738095Y-430489D02*
X9642857Y-478108D01*
X9642857Y-478108D02*
X9261905Y-478108D01*
X10309524Y-954299D02*
X10500000Y-954299D01*
X10500000Y-954299D02*
X10595238Y-906680D01*
X10595238Y-906680D02*
X10642857Y-859060D01*
X10642857Y-859060D02*
X10738095Y-716203D01*
X10738095Y-716203D02*
X10785714Y-525727D01*
X10785714Y-525727D02*
X10785714Y-144775D01*
X10785714Y-144775D02*
X10738095Y-49537D01*
X10738095Y-49537D02*
X10690476Y-1918D01*
X10690476Y-1918D02*
X10595238Y45701D01*
X10595238Y45701D02*
X10404762Y45701D01*
X10404762Y45701D02*
X10309524Y-1918D01*
X10309524Y-1918D02*
X10261905Y-49537D01*
X10261905Y-49537D02*
X10214286Y-144775D01*
X10214286Y-144775D02*
X10214286Y-382870D01*
X10214286Y-382870D02*
X10261905Y-478108D01*
X10261905Y-478108D02*
X10309524Y-525727D01*
X10309524Y-525727D02*
X10404762Y-573346D01*
X10404762Y-573346D02*
X10595238Y-573346D01*
X10595238Y-573346D02*
X10690476Y-525727D01*
X10690476Y-525727D02*
X10738095Y-478108D01*
X10738095Y-478108D02*
X10785714Y-382870D01*
X9833333Y4045701D02*
X9500000Y4521892D01*
X9261905Y4045701D02*
X9261905Y5045701D01*
X9261905Y5045701D02*
X9642857Y5045701D01*
X9642857Y5045701D02*
X9738095Y4998082D01*
X9738095Y4998082D02*
X9785714Y4950463D01*
X9785714Y4950463D02*
X9833333Y4855225D01*
X9833333Y4855225D02*
X9833333Y4712368D01*
X9833333Y4712368D02*
X9785714Y4617130D01*
X9785714Y4617130D02*
X9738095Y4569511D01*
X9738095Y4569511D02*
X9642857Y4521892D01*
X9642857Y4521892D02*
X9261905Y4521892D01*
X10404762Y4617130D02*
X10309524Y4664749D01*
X10309524Y4664749D02*
X10261905Y4712368D01*
X10261905Y4712368D02*
X10214286Y4807606D01*
X10214286Y4807606D02*
X10214286Y4855225D01*
X10214286Y4855225D02*
X10261905Y4950463D01*
X10261905Y4950463D02*
X10309524Y4998082D01*
X10309524Y4998082D02*
X10404762Y5045701D01*
X10404762Y5045701D02*
X10595238Y5045701D01*
X10595238Y5045701D02*
X10690476Y4998082D01*
X10690476Y4998082D02*
X10738095Y4950463D01*
X10738095Y4950463D02*
X10785714Y4855225D01*
X10785714Y4855225D02*
X10785714Y4807606D01*
X10785714Y4807606D02*
X10738095Y4712368D01*
X10738095Y4712368D02*
X10690476Y4664749D01*
X10690476Y4664749D02*
X10595238Y4617130D01*
X10595238Y4617130D02*
X10404762Y4617130D01*
X10404762Y4617130D02*
X10309524Y4569511D01*
X10309524Y4569511D02*
X10261905Y4521892D01*
X10261905Y4521892D02*
X10214286Y4426654D01*
X10214286Y4426654D02*
X10214286Y4236178D01*
X10214286Y4236178D02*
X10261905Y4140940D01*
X10261905Y4140940D02*
X10309524Y4093320D01*
X10309524Y4093320D02*
X10404762Y4045701D01*
X10404762Y4045701D02*
X10595238Y4045701D01*
X10595238Y4045701D02*
X10690476Y4093320D01*
X10690476Y4093320D02*
X10738095Y4140940D01*
X10738095Y4140940D02*
X10785714Y4236178D01*
X10785714Y4236178D02*
X10785714Y4426654D01*
X10785714Y4426654D02*
X10738095Y4521892D01*
X10738095Y4521892D02*
X10690476Y4569511D01*
X10690476Y4569511D02*
X10595238Y4617130D01*
X9833333Y7545701D02*
X9500000Y8021892D01*
X9261905Y7545701D02*
X9261905Y8545701D01*
X9261905Y8545701D02*
X9642857Y8545701D01*
X9642857Y8545701D02*
X9738095Y8498082D01*
X9738095Y8498082D02*
X9785714Y8450463D01*
X9785714Y8450463D02*
X9833333Y8355225D01*
X9833333Y8355225D02*
X9833333Y8212368D01*
X9833333Y8212368D02*
X9785714Y8117130D01*
X9785714Y8117130D02*
X9738095Y8069511D01*
X9738095Y8069511D02*
X9642857Y8021892D01*
X9642857Y8021892D02*
X9261905Y8021892D01*
X10166667Y8545701D02*
X10833333Y8545701D01*
X10833333Y8545701D02*
X10404762Y7545701D01*
X9833333Y11045701D02*
X9500000Y11521892D01*
X9261905Y11045701D02*
X9261905Y12045701D01*
X9261905Y12045701D02*
X9642857Y12045701D01*
X9642857Y12045701D02*
X9738095Y11998082D01*
X9738095Y11998082D02*
X9785714Y11950463D01*
X9785714Y11950463D02*
X9833333Y11855225D01*
X9833333Y11855225D02*
X9833333Y11712368D01*
X9833333Y11712368D02*
X9785714Y11617130D01*
X9785714Y11617130D02*
X9738095Y11569511D01*
X9738095Y11569511D02*
X9642857Y11521892D01*
X9642857Y11521892D02*
X9261905Y11521892D01*
X10690476Y12045701D02*
X10500000Y12045701D01*
X10500000Y12045701D02*
X10404762Y11998082D01*
X10404762Y11998082D02*
X10357143Y11950463D01*
X10357143Y11950463D02*
X10261905Y11807606D01*
X10261905Y11807606D02*
X10214286Y11617130D01*
X10214286Y11617130D02*
X10214286Y11236178D01*
X10214286Y11236178D02*
X10261905Y11140940D01*
X10261905Y11140940D02*
X10309524Y11093320D01*
X10309524Y11093320D02*
X10404762Y11045701D01*
X10404762Y11045701D02*
X10595238Y11045701D01*
X10595238Y11045701D02*
X10690476Y11093320D01*
X10690476Y11093320D02*
X10738095Y11140940D01*
X10738095Y11140940D02*
X10785714Y11236178D01*
X10785714Y11236178D02*
X10785714Y11474273D01*
X10785714Y11474273D02*
X10738095Y11569511D01*
X10738095Y11569511D02*
X10690476Y11617130D01*
X10690476Y11617130D02*
X10595238Y11664749D01*
X10595238Y11664749D02*
X10404762Y11664749D01*
X10404762Y11664749D02*
X10309524Y11617130D01*
X10309524Y11617130D02*
X10261905Y11569511D01*
X10261905Y11569511D02*
X10214286Y11474273D01*
X9833333Y14545701D02*
X9500000Y15021892D01*
X9261905Y14545701D02*
X9261905Y15545701D01*
X9261905Y15545701D02*
X9642857Y15545701D01*
X9642857Y15545701D02*
X9738095Y15498082D01*
X9738095Y15498082D02*
X9785714Y15450463D01*
X9785714Y15450463D02*
X9833333Y15355225D01*
X9833333Y15355225D02*
X9833333Y15212368D01*
X9833333Y15212368D02*
X9785714Y15117130D01*
X9785714Y15117130D02*
X9738095Y15069511D01*
X9738095Y15069511D02*
X9642857Y15021892D01*
X9642857Y15021892D02*
X9261905Y15021892D01*
X10738095Y15545701D02*
X10261905Y15545701D01*
X10261905Y15545701D02*
X10214286Y15069511D01*
X10214286Y15069511D02*
X10261905Y15117130D01*
X10261905Y15117130D02*
X10357143Y15164749D01*
X10357143Y15164749D02*
X10595238Y15164749D01*
X10595238Y15164749D02*
X10690476Y15117130D01*
X10690476Y15117130D02*
X10738095Y15069511D01*
X10738095Y15069511D02*
X10785714Y14974273D01*
X10785714Y14974273D02*
X10785714Y14736178D01*
X10785714Y14736178D02*
X10738095Y14640940D01*
X10738095Y14640940D02*
X10690476Y14593320D01*
X10690476Y14593320D02*
X10595238Y14545701D01*
X10595238Y14545701D02*
X10357143Y14545701D01*
X10357143Y14545701D02*
X10261905Y14593320D01*
X10261905Y14593320D02*
X10214286Y14640940D01*
X9833333Y18045701D02*
X9500000Y18521892D01*
X9261905Y18045701D02*
X9261905Y19045701D01*
X9261905Y19045701D02*
X9642857Y19045701D01*
X9642857Y19045701D02*
X9738095Y18998082D01*
X9738095Y18998082D02*
X9785714Y18950463D01*
X9785714Y18950463D02*
X9833333Y18855225D01*
X9833333Y18855225D02*
X9833333Y18712368D01*
X9833333Y18712368D02*
X9785714Y18617130D01*
X9785714Y18617130D02*
X9738095Y18569511D01*
X9738095Y18569511D02*
X9642857Y18521892D01*
X9642857Y18521892D02*
X9261905Y18521892D01*
X10690476Y18712368D02*
X10690476Y18045701D01*
X10452381Y19093320D02*
X10214286Y18379035D01*
X10214286Y18379035D02*
X10833333Y18379035D01*
X9833333Y21545701D02*
X9500000Y22021892D01*
X9261905Y21545701D02*
X9261905Y22545701D01*
X9261905Y22545701D02*
X9642857Y22545701D01*
X9642857Y22545701D02*
X9738095Y22498082D01*
X9738095Y22498082D02*
X9785714Y22450463D01*
X9785714Y22450463D02*
X9833333Y22355225D01*
X9833333Y22355225D02*
X9833333Y22212368D01*
X9833333Y22212368D02*
X9785714Y22117130D01*
X9785714Y22117130D02*
X9738095Y22069511D01*
X9738095Y22069511D02*
X9642857Y22021892D01*
X9642857Y22021892D02*
X9261905Y22021892D01*
X10166667Y22545701D02*
X10785714Y22545701D01*
X10785714Y22545701D02*
X10452381Y22164749D01*
X10452381Y22164749D02*
X10595238Y22164749D01*
X10595238Y22164749D02*
X10690476Y22117130D01*
X10690476Y22117130D02*
X10738095Y22069511D01*
X10738095Y22069511D02*
X10785714Y21974273D01*
X10785714Y21974273D02*
X10785714Y21736178D01*
X10785714Y21736178D02*
X10738095Y21640940D01*
X10738095Y21640940D02*
X10690476Y21593320D01*
X10690476Y21593320D02*
X10595238Y21545701D01*
X10595238Y21545701D02*
X10309524Y21545701D01*
X10309524Y21545701D02*
X10214286Y21593320D01*
X10214286Y21593320D02*
X10166667Y21640940D01*
X9833333Y25045701D02*
X9500000Y25521892D01*
X9261905Y25045701D02*
X9261905Y26045701D01*
X9261905Y26045701D02*
X9642857Y26045701D01*
X9642857Y26045701D02*
X9738095Y25998082D01*
X9738095Y25998082D02*
X9785714Y25950463D01*
X9785714Y25950463D02*
X9833333Y25855225D01*
X9833333Y25855225D02*
X9833333Y25712368D01*
X9833333Y25712368D02*
X9785714Y25617130D01*
X9785714Y25617130D02*
X9738095Y25569511D01*
X9738095Y25569511D02*
X9642857Y25521892D01*
X9642857Y25521892D02*
X9261905Y25521892D01*
X10214286Y25950463D02*
X10261905Y25998082D01*
X10261905Y25998082D02*
X10357143Y26045701D01*
X10357143Y26045701D02*
X10595238Y26045701D01*
X10595238Y26045701D02*
X10690476Y25998082D01*
X10690476Y25998082D02*
X10738095Y25950463D01*
X10738095Y25950463D02*
X10785714Y25855225D01*
X10785714Y25855225D02*
X10785714Y25759987D01*
X10785714Y25759987D02*
X10738095Y25617130D01*
X10738095Y25617130D02*
X10166667Y25045701D01*
X10166667Y25045701D02*
X10785714Y25045701D01*
X9833333Y28545701D02*
X9500000Y29021892D01*
X9261905Y28545701D02*
X9261905Y29545701D01*
X9261905Y29545701D02*
X9642857Y29545701D01*
X9642857Y29545701D02*
X9738095Y29498082D01*
X9738095Y29498082D02*
X9785714Y29450463D01*
X9785714Y29450463D02*
X9833333Y29355225D01*
X9833333Y29355225D02*
X9833333Y29212368D01*
X9833333Y29212368D02*
X9785714Y29117130D01*
X9785714Y29117130D02*
X9738095Y29069511D01*
X9738095Y29069511D02*
X9642857Y29021892D01*
X9642857Y29021892D02*
X9261905Y29021892D01*
X10785714Y28545701D02*
X10214286Y28545701D01*
X10500000Y28545701D02*
X10500000Y29545701D01*
X10500000Y29545701D02*
X10404762Y29402844D01*
X10404762Y29402844D02*
X10309524Y29307606D01*
X10309524Y29307606D02*
X10214286Y29259987D01*
X13204299Y-14214285D02*
X12204299Y-14214285D01*
X12204299Y-14214285D02*
X12204299Y-13976190D01*
X12204299Y-13976190D02*
X12251918Y-13833333D01*
X12251918Y-13833333D02*
X12347156Y-13738095D01*
X12347156Y-13738095D02*
X12442394Y-13690476D01*
X12442394Y-13690476D02*
X12632870Y-13642857D01*
X12632870Y-13642857D02*
X12775727Y-13642857D01*
X12775727Y-13642857D02*
X12966203Y-13690476D01*
X12966203Y-13690476D02*
X13061441Y-13738095D01*
X13061441Y-13738095D02*
X13156680Y-13833333D01*
X13156680Y-13833333D02*
X13204299Y-13976190D01*
X13204299Y-13976190D02*
X13204299Y-14214285D01*
X13204299Y-12690476D02*
X13204299Y-13261904D01*
X13204299Y-12976190D02*
X12204299Y-12976190D01*
X12204299Y-12976190D02*
X12347156Y-13071428D01*
X12347156Y-13071428D02*
X12442394Y-13166666D01*
X12442394Y-13166666D02*
X12490013Y-13261904D01*
X12299537Y-12309523D02*
X12251918Y-12261904D01*
X12251918Y-12261904D02*
X12204299Y-12166666D01*
X12204299Y-12166666D02*
X12204299Y-11928571D01*
X12204299Y-11928571D02*
X12251918Y-11833333D01*
X12251918Y-11833333D02*
X12299537Y-11785714D01*
X12299537Y-11785714D02*
X12394775Y-11738095D01*
X12394775Y-11738095D02*
X12490013Y-11738095D01*
X12490013Y-11738095D02*
X12632870Y-11785714D01*
X12632870Y-11785714D02*
X13204299Y-12357142D01*
X13204299Y-12357142D02*
X13204299Y-11738095D01*
X13204299Y22761906D02*
X12204299Y22761906D01*
X12204299Y22761906D02*
X12204299Y23000001D01*
X12204299Y23000001D02*
X12251918Y23142858D01*
X12251918Y23142858D02*
X12347156Y23238096D01*
X12347156Y23238096D02*
X12442394Y23285715D01*
X12442394Y23285715D02*
X12632870Y23333334D01*
X12632870Y23333334D02*
X12775727Y23333334D01*
X12775727Y23333334D02*
X12966203Y23285715D01*
X12966203Y23285715D02*
X13061441Y23238096D01*
X13061441Y23238096D02*
X13156680Y23142858D01*
X13156680Y23142858D02*
X13204299Y23000001D01*
X13204299Y23000001D02*
X13204299Y22761906D01*
X12299537Y23714287D02*
X12251918Y23761906D01*
X12251918Y23761906D02*
X12204299Y23857144D01*
X12204299Y23857144D02*
X12204299Y24095239D01*
X12204299Y24095239D02*
X12251918Y24190477D01*
X12251918Y24190477D02*
X12299537Y24238096D01*
X12299537Y24238096D02*
X12394775Y24285715D01*
X12394775Y24285715D02*
X12490013Y24285715D01*
X12490013Y24285715D02*
X12632870Y24238096D01*
X12632870Y24238096D02*
X13204299Y23666668D01*
X13204299Y23666668D02*
X13204299Y24285715D01*
X13204299Y19261906D02*
X12204299Y19261906D01*
X12204299Y19261906D02*
X12204299Y19500001D01*
X12204299Y19500001D02*
X12251918Y19642858D01*
X12251918Y19642858D02*
X12347156Y19738096D01*
X12347156Y19738096D02*
X12442394Y19785715D01*
X12442394Y19785715D02*
X12632870Y19833334D01*
X12632870Y19833334D02*
X12775727Y19833334D01*
X12775727Y19833334D02*
X12966203Y19785715D01*
X12966203Y19785715D02*
X13061441Y19738096D01*
X13061441Y19738096D02*
X13156680Y19642858D01*
X13156680Y19642858D02*
X13204299Y19500001D01*
X13204299Y19500001D02*
X13204299Y19261906D01*
X12204299Y20166668D02*
X12204299Y20785715D01*
X12204299Y20785715D02*
X12585251Y20452382D01*
X12585251Y20452382D02*
X12585251Y20595239D01*
X12585251Y20595239D02*
X12632870Y20690477D01*
X12632870Y20690477D02*
X12680489Y20738096D01*
X12680489Y20738096D02*
X12775727Y20785715D01*
X12775727Y20785715D02*
X13013822Y20785715D01*
X13013822Y20785715D02*
X13109060Y20738096D01*
X13109060Y20738096D02*
X13156680Y20690477D01*
X13156680Y20690477D02*
X13204299Y20595239D01*
X13204299Y20595239D02*
X13204299Y20309525D01*
X13204299Y20309525D02*
X13156680Y20214287D01*
X13156680Y20214287D02*
X13109060Y20166668D01*
X13204299Y-7214285D02*
X12204299Y-7214285D01*
X12204299Y-7214285D02*
X12204299Y-6976190D01*
X12204299Y-6976190D02*
X12251918Y-6833333D01*
X12251918Y-6833333D02*
X12347156Y-6738095D01*
X12347156Y-6738095D02*
X12442394Y-6690476D01*
X12442394Y-6690476D02*
X12632870Y-6642857D01*
X12632870Y-6642857D02*
X12775727Y-6642857D01*
X12775727Y-6642857D02*
X12966203Y-6690476D01*
X12966203Y-6690476D02*
X13061441Y-6738095D01*
X13061441Y-6738095D02*
X13156680Y-6833333D01*
X13156680Y-6833333D02*
X13204299Y-6976190D01*
X13204299Y-6976190D02*
X13204299Y-7214285D01*
X13204299Y-5690476D02*
X13204299Y-6261904D01*
X13204299Y-5976190D02*
X12204299Y-5976190D01*
X12204299Y-5976190D02*
X12347156Y-6071428D01*
X12347156Y-6071428D02*
X12442394Y-6166666D01*
X12442394Y-6166666D02*
X12490013Y-6261904D01*
X12204299Y-5071428D02*
X12204299Y-4976190D01*
X12204299Y-4976190D02*
X12251918Y-4880952D01*
X12251918Y-4880952D02*
X12299537Y-4833333D01*
X12299537Y-4833333D02*
X12394775Y-4785714D01*
X12394775Y-4785714D02*
X12585251Y-4738095D01*
X12585251Y-4738095D02*
X12823346Y-4738095D01*
X12823346Y-4738095D02*
X13013822Y-4785714D01*
X13013822Y-4785714D02*
X13109060Y-4833333D01*
X13109060Y-4833333D02*
X13156680Y-4880952D01*
X13156680Y-4880952D02*
X13204299Y-4976190D01*
X13204299Y-4976190D02*
X13204299Y-5071428D01*
X13204299Y-5071428D02*
X13156680Y-5166666D01*
X13156680Y-5166666D02*
X13109060Y-5214285D01*
X13109060Y-5214285D02*
X13013822Y-5261904D01*
X13013822Y-5261904D02*
X12823346Y-5309523D01*
X12823346Y-5309523D02*
X12585251Y-5309523D01*
X12585251Y-5309523D02*
X12394775Y-5261904D01*
X12394775Y-5261904D02*
X12299537Y-5214285D01*
X12299537Y-5214285D02*
X12251918Y-5166666D01*
X12251918Y-5166666D02*
X12204299Y-5071428D01*
X13204299Y1761906D02*
X12204299Y1761906D01*
X12204299Y1761906D02*
X12204299Y2000001D01*
X12204299Y2000001D02*
X12251918Y2142858D01*
X12251918Y2142858D02*
X12347156Y2238096D01*
X12347156Y2238096D02*
X12442394Y2285715D01*
X12442394Y2285715D02*
X12632870Y2333334D01*
X12632870Y2333334D02*
X12775727Y2333334D01*
X12775727Y2333334D02*
X12966203Y2285715D01*
X12966203Y2285715D02*
X13061441Y2238096D01*
X13061441Y2238096D02*
X13156680Y2142858D01*
X13156680Y2142858D02*
X13204299Y2000001D01*
X13204299Y2000001D02*
X13204299Y1761906D01*
X12632870Y2904763D02*
X12585251Y2809525D01*
X12585251Y2809525D02*
X12537632Y2761906D01*
X12537632Y2761906D02*
X12442394Y2714287D01*
X12442394Y2714287D02*
X12394775Y2714287D01*
X12394775Y2714287D02*
X12299537Y2761906D01*
X12299537Y2761906D02*
X12251918Y2809525D01*
X12251918Y2809525D02*
X12204299Y2904763D01*
X12204299Y2904763D02*
X12204299Y3095239D01*
X12204299Y3095239D02*
X12251918Y3190477D01*
X12251918Y3190477D02*
X12299537Y3238096D01*
X12299537Y3238096D02*
X12394775Y3285715D01*
X12394775Y3285715D02*
X12442394Y3285715D01*
X12442394Y3285715D02*
X12537632Y3238096D01*
X12537632Y3238096D02*
X12585251Y3190477D01*
X12585251Y3190477D02*
X12632870Y3095239D01*
X12632870Y3095239D02*
X12632870Y2904763D01*
X12632870Y2904763D02*
X12680489Y2809525D01*
X12680489Y2809525D02*
X12728108Y2761906D01*
X12728108Y2761906D02*
X12823346Y2714287D01*
X12823346Y2714287D02*
X13013822Y2714287D01*
X13013822Y2714287D02*
X13109060Y2761906D01*
X13109060Y2761906D02*
X13156680Y2809525D01*
X13156680Y2809525D02*
X13204299Y2904763D01*
X13204299Y2904763D02*
X13204299Y3095239D01*
X13204299Y3095239D02*
X13156680Y3190477D01*
X13156680Y3190477D02*
X13109060Y3238096D01*
X13109060Y3238096D02*
X13013822Y3285715D01*
X13013822Y3285715D02*
X12823346Y3285715D01*
X12823346Y3285715D02*
X12728108Y3238096D01*
X12728108Y3238096D02*
X12680489Y3190477D01*
X12680489Y3190477D02*
X12632870Y3095239D01*
X13204299Y-33214285D02*
X12204299Y-33214285D01*
X12204299Y-33214285D02*
X12204299Y-32976190D01*
X12204299Y-32976190D02*
X12251918Y-32833333D01*
X12251918Y-32833333D02*
X12347156Y-32738095D01*
X12347156Y-32738095D02*
X12442394Y-32690476D01*
X12442394Y-32690476D02*
X12632870Y-32642857D01*
X12632870Y-32642857D02*
X12775727Y-32642857D01*
X12775727Y-32642857D02*
X12966203Y-32690476D01*
X12966203Y-32690476D02*
X13061441Y-32738095D01*
X13061441Y-32738095D02*
X13156680Y-32833333D01*
X13156680Y-32833333D02*
X13204299Y-32976190D01*
X13204299Y-32976190D02*
X13204299Y-33214285D01*
X13204299Y-31690476D02*
X13204299Y-32261904D01*
X13204299Y-31976190D02*
X12204299Y-31976190D01*
X12204299Y-31976190D02*
X12347156Y-32071428D01*
X12347156Y-32071428D02*
X12442394Y-32166666D01*
X12442394Y-32166666D02*
X12490013Y-32261904D01*
X12204299Y-31357142D02*
X12204299Y-30690476D01*
X12204299Y-30690476D02*
X13204299Y-31119047D01*
X13204299Y-3238094D02*
X12204299Y-3238094D01*
X12204299Y-3238094D02*
X12204299Y-2999999D01*
X12204299Y-2999999D02*
X12251918Y-2857142D01*
X12251918Y-2857142D02*
X12347156Y-2761904D01*
X12347156Y-2761904D02*
X12442394Y-2714285D01*
X12442394Y-2714285D02*
X12632870Y-2666666D01*
X12632870Y-2666666D02*
X12775727Y-2666666D01*
X12775727Y-2666666D02*
X12966203Y-2714285D01*
X12966203Y-2714285D02*
X13061441Y-2761904D01*
X13061441Y-2761904D02*
X13156680Y-2857142D01*
X13156680Y-2857142D02*
X13204299Y-2999999D01*
X13204299Y-2999999D02*
X13204299Y-3238094D01*
X13204299Y-2190475D02*
X13204299Y-1999999D01*
X13204299Y-1999999D02*
X13156680Y-1904761D01*
X13156680Y-1904761D02*
X13109060Y-1857142D01*
X13109060Y-1857142D02*
X12966203Y-1761904D01*
X12966203Y-1761904D02*
X12775727Y-1714285D01*
X12775727Y-1714285D02*
X12394775Y-1714285D01*
X12394775Y-1714285D02*
X12299537Y-1761904D01*
X12299537Y-1761904D02*
X12251918Y-1809523D01*
X12251918Y-1809523D02*
X12204299Y-1904761D01*
X12204299Y-1904761D02*
X12204299Y-2095237D01*
X12204299Y-2095237D02*
X12251918Y-2190475D01*
X12251918Y-2190475D02*
X12299537Y-2238094D01*
X12299537Y-2238094D02*
X12394775Y-2285713D01*
X12394775Y-2285713D02*
X12632870Y-2285713D01*
X12632870Y-2285713D02*
X12728108Y-2238094D01*
X12728108Y-2238094D02*
X12775727Y-2190475D01*
X12775727Y-2190475D02*
X12823346Y-2095237D01*
X12823346Y-2095237D02*
X12823346Y-1904761D01*
X12823346Y-1904761D02*
X12775727Y-1809523D01*
X12775727Y-1809523D02*
X12728108Y-1761904D01*
X12728108Y-1761904D02*
X12632870Y-1714285D01*
X13204299Y-10714285D02*
X12204299Y-10714285D01*
X12204299Y-10714285D02*
X12204299Y-10476190D01*
X12204299Y-10476190D02*
X12251918Y-10333333D01*
X12251918Y-10333333D02*
X12347156Y-10238095D01*
X12347156Y-10238095D02*
X12442394Y-10190476D01*
X12442394Y-10190476D02*
X12632870Y-10142857D01*
X12632870Y-10142857D02*
X12775727Y-10142857D01*
X12775727Y-10142857D02*
X12966203Y-10190476D01*
X12966203Y-10190476D02*
X13061441Y-10238095D01*
X13061441Y-10238095D02*
X13156680Y-10333333D01*
X13156680Y-10333333D02*
X13204299Y-10476190D01*
X13204299Y-10476190D02*
X13204299Y-10714285D01*
X13204299Y-9190476D02*
X13204299Y-9761904D01*
X13204299Y-9476190D02*
X12204299Y-9476190D01*
X12204299Y-9476190D02*
X12347156Y-9571428D01*
X12347156Y-9571428D02*
X12442394Y-9666666D01*
X12442394Y-9666666D02*
X12490013Y-9761904D01*
X13204299Y-8238095D02*
X13204299Y-8809523D01*
X13204299Y-8523809D02*
X12204299Y-8523809D01*
X12204299Y-8523809D02*
X12347156Y-8619047D01*
X12347156Y-8619047D02*
X12442394Y-8714285D01*
X12442394Y-8714285D02*
X12490013Y-8809523D01*
X13204299Y5261906D02*
X12204299Y5261906D01*
X12204299Y5261906D02*
X12204299Y5500001D01*
X12204299Y5500001D02*
X12251918Y5642858D01*
X12251918Y5642858D02*
X12347156Y5738096D01*
X12347156Y5738096D02*
X12442394Y5785715D01*
X12442394Y5785715D02*
X12632870Y5833334D01*
X12632870Y5833334D02*
X12775727Y5833334D01*
X12775727Y5833334D02*
X12966203Y5785715D01*
X12966203Y5785715D02*
X13061441Y5738096D01*
X13061441Y5738096D02*
X13156680Y5642858D01*
X13156680Y5642858D02*
X13204299Y5500001D01*
X13204299Y5500001D02*
X13204299Y5261906D01*
X12204299Y6166668D02*
X12204299Y6833334D01*
X12204299Y6833334D02*
X13204299Y6404763D01*
X13204299Y26261906D02*
X12204299Y26261906D01*
X12204299Y26261906D02*
X12204299Y26500001D01*
X12204299Y26500001D02*
X12251918Y26642858D01*
X12251918Y26642858D02*
X12347156Y26738096D01*
X12347156Y26738096D02*
X12442394Y26785715D01*
X12442394Y26785715D02*
X12632870Y26833334D01*
X12632870Y26833334D02*
X12775727Y26833334D01*
X12775727Y26833334D02*
X12966203Y26785715D01*
X12966203Y26785715D02*
X13061441Y26738096D01*
X13061441Y26738096D02*
X13156680Y26642858D01*
X13156680Y26642858D02*
X13204299Y26500001D01*
X13204299Y26500001D02*
X13204299Y26261906D01*
X13204299Y27785715D02*
X13204299Y27214287D01*
X13204299Y27500001D02*
X12204299Y27500001D01*
X12204299Y27500001D02*
X12347156Y27404763D01*
X12347156Y27404763D02*
X12442394Y27309525D01*
X12442394Y27309525D02*
X12490013Y27214287D01*
X13204299Y15761906D02*
X12204299Y15761906D01*
X12204299Y15761906D02*
X12204299Y16000001D01*
X12204299Y16000001D02*
X12251918Y16142858D01*
X12251918Y16142858D02*
X12347156Y16238096D01*
X12347156Y16238096D02*
X12442394Y16285715D01*
X12442394Y16285715D02*
X12632870Y16333334D01*
X12632870Y16333334D02*
X12775727Y16333334D01*
X12775727Y16333334D02*
X12966203Y16285715D01*
X12966203Y16285715D02*
X13061441Y16238096D01*
X13061441Y16238096D02*
X13156680Y16142858D01*
X13156680Y16142858D02*
X13204299Y16000001D01*
X13204299Y16000001D02*
X13204299Y15761906D01*
X12537632Y17190477D02*
X13204299Y17190477D01*
X12156680Y16952382D02*
X12870965Y16714287D01*
X12870965Y16714287D02*
X12870965Y17333334D01*
X13204299Y-28214285D02*
X12204299Y-28214285D01*
X12204299Y-28214285D02*
X12204299Y-27976190D01*
X12204299Y-27976190D02*
X12251918Y-27833333D01*
X12251918Y-27833333D02*
X12347156Y-27738095D01*
X12347156Y-27738095D02*
X12442394Y-27690476D01*
X12442394Y-27690476D02*
X12632870Y-27642857D01*
X12632870Y-27642857D02*
X12775727Y-27642857D01*
X12775727Y-27642857D02*
X12966203Y-27690476D01*
X12966203Y-27690476D02*
X13061441Y-27738095D01*
X13061441Y-27738095D02*
X13156680Y-27833333D01*
X13156680Y-27833333D02*
X13204299Y-27976190D01*
X13204299Y-27976190D02*
X13204299Y-28214285D01*
X13204299Y-26690476D02*
X13204299Y-27261904D01*
X13204299Y-26976190D02*
X12204299Y-26976190D01*
X12204299Y-26976190D02*
X12347156Y-27071428D01*
X12347156Y-27071428D02*
X12442394Y-27166666D01*
X12442394Y-27166666D02*
X12490013Y-27261904D01*
X12204299Y-25833333D02*
X12204299Y-26023809D01*
X12204299Y-26023809D02*
X12251918Y-26119047D01*
X12251918Y-26119047D02*
X12299537Y-26166666D01*
X12299537Y-26166666D02*
X12442394Y-26261904D01*
X12442394Y-26261904D02*
X12632870Y-26309523D01*
X12632870Y-26309523D02*
X13013822Y-26309523D01*
X13013822Y-26309523D02*
X13109060Y-26261904D01*
X13109060Y-26261904D02*
X13156680Y-26214285D01*
X13156680Y-26214285D02*
X13204299Y-26119047D01*
X13204299Y-26119047D02*
X13204299Y-25928571D01*
X13204299Y-25928571D02*
X13156680Y-25833333D01*
X13156680Y-25833333D02*
X13109060Y-25785714D01*
X13109060Y-25785714D02*
X13013822Y-25738095D01*
X13013822Y-25738095D02*
X12775727Y-25738095D01*
X12775727Y-25738095D02*
X12680489Y-25785714D01*
X12680489Y-25785714D02*
X12632870Y-25833333D01*
X12632870Y-25833333D02*
X12585251Y-25928571D01*
X12585251Y-25928571D02*
X12585251Y-26119047D01*
X12585251Y-26119047D02*
X12632870Y-26214285D01*
X12632870Y-26214285D02*
X12680489Y-26261904D01*
X12680489Y-26261904D02*
X12775727Y-26309523D01*
X13204299Y-24714285D02*
X12204299Y-24714285D01*
X12204299Y-24714285D02*
X12204299Y-24476190D01*
X12204299Y-24476190D02*
X12251918Y-24333333D01*
X12251918Y-24333333D02*
X12347156Y-24238095D01*
X12347156Y-24238095D02*
X12442394Y-24190476D01*
X12442394Y-24190476D02*
X12632870Y-24142857D01*
X12632870Y-24142857D02*
X12775727Y-24142857D01*
X12775727Y-24142857D02*
X12966203Y-24190476D01*
X12966203Y-24190476D02*
X13061441Y-24238095D01*
X13061441Y-24238095D02*
X13156680Y-24333333D01*
X13156680Y-24333333D02*
X13204299Y-24476190D01*
X13204299Y-24476190D02*
X13204299Y-24714285D01*
X13204299Y-23190476D02*
X13204299Y-23761904D01*
X13204299Y-23476190D02*
X12204299Y-23476190D01*
X12204299Y-23476190D02*
X12347156Y-23571428D01*
X12347156Y-23571428D02*
X12442394Y-23666666D01*
X12442394Y-23666666D02*
X12490013Y-23761904D01*
X12204299Y-22285714D02*
X12204299Y-22761904D01*
X12204299Y-22761904D02*
X12680489Y-22809523D01*
X12680489Y-22809523D02*
X12632870Y-22761904D01*
X12632870Y-22761904D02*
X12585251Y-22666666D01*
X12585251Y-22666666D02*
X12585251Y-22428571D01*
X12585251Y-22428571D02*
X12632870Y-22333333D01*
X12632870Y-22333333D02*
X12680489Y-22285714D01*
X12680489Y-22285714D02*
X12775727Y-22238095D01*
X12775727Y-22238095D02*
X13013822Y-22238095D01*
X13013822Y-22238095D02*
X13109060Y-22285714D01*
X13109060Y-22285714D02*
X13156680Y-22333333D01*
X13156680Y-22333333D02*
X13204299Y-22428571D01*
X13204299Y-22428571D02*
X13204299Y-22666666D01*
X13204299Y-22666666D02*
X13156680Y-22761904D01*
X13156680Y-22761904D02*
X13109060Y-22809523D01*
X13204299Y-36714285D02*
X12204299Y-36714285D01*
X12204299Y-36714285D02*
X12204299Y-36476190D01*
X12204299Y-36476190D02*
X12251918Y-36333333D01*
X12251918Y-36333333D02*
X12347156Y-36238095D01*
X12347156Y-36238095D02*
X12442394Y-36190476D01*
X12442394Y-36190476D02*
X12632870Y-36142857D01*
X12632870Y-36142857D02*
X12775727Y-36142857D01*
X12775727Y-36142857D02*
X12966203Y-36190476D01*
X12966203Y-36190476D02*
X13061441Y-36238095D01*
X13061441Y-36238095D02*
X13156680Y-36333333D01*
X13156680Y-36333333D02*
X13204299Y-36476190D01*
X13204299Y-36476190D02*
X13204299Y-36714285D01*
X13204299Y-35190476D02*
X13204299Y-35761904D01*
X13204299Y-35476190D02*
X12204299Y-35476190D01*
X12204299Y-35476190D02*
X12347156Y-35571428D01*
X12347156Y-35571428D02*
X12442394Y-35666666D01*
X12442394Y-35666666D02*
X12490013Y-35761904D01*
X12632870Y-34619047D02*
X12585251Y-34714285D01*
X12585251Y-34714285D02*
X12537632Y-34761904D01*
X12537632Y-34761904D02*
X12442394Y-34809523D01*
X12442394Y-34809523D02*
X12394775Y-34809523D01*
X12394775Y-34809523D02*
X12299537Y-34761904D01*
X12299537Y-34761904D02*
X12251918Y-34714285D01*
X12251918Y-34714285D02*
X12204299Y-34619047D01*
X12204299Y-34619047D02*
X12204299Y-34428571D01*
X12204299Y-34428571D02*
X12251918Y-34333333D01*
X12251918Y-34333333D02*
X12299537Y-34285714D01*
X12299537Y-34285714D02*
X12394775Y-34238095D01*
X12394775Y-34238095D02*
X12442394Y-34238095D01*
X12442394Y-34238095D02*
X12537632Y-34285714D01*
X12537632Y-34285714D02*
X12585251Y-34333333D01*
X12585251Y-34333333D02*
X12632870Y-34428571D01*
X12632870Y-34428571D02*
X12632870Y-34619047D01*
X12632870Y-34619047D02*
X12680489Y-34714285D01*
X12680489Y-34714285D02*
X12728108Y-34761904D01*
X12728108Y-34761904D02*
X12823346Y-34809523D01*
X12823346Y-34809523D02*
X13013822Y-34809523D01*
X13013822Y-34809523D02*
X13109060Y-34761904D01*
X13109060Y-34761904D02*
X13156680Y-34714285D01*
X13156680Y-34714285D02*
X13204299Y-34619047D01*
X13204299Y-34619047D02*
X13204299Y-34428571D01*
X13204299Y-34428571D02*
X13156680Y-34333333D01*
X13156680Y-34333333D02*
X13109060Y-34285714D01*
X13109060Y-34285714D02*
X13013822Y-34238095D01*
X13013822Y-34238095D02*
X12823346Y-34238095D01*
X12823346Y-34238095D02*
X12728108Y-34285714D01*
X12728108Y-34285714D02*
X12680489Y-34333333D01*
X12680489Y-34333333D02*
X12632870Y-34428571D01*
X13204299Y-21214285D02*
X12204299Y-21214285D01*
X12204299Y-21214285D02*
X12204299Y-20976190D01*
X12204299Y-20976190D02*
X12251918Y-20833333D01*
X12251918Y-20833333D02*
X12347156Y-20738095D01*
X12347156Y-20738095D02*
X12442394Y-20690476D01*
X12442394Y-20690476D02*
X12632870Y-20642857D01*
X12632870Y-20642857D02*
X12775727Y-20642857D01*
X12775727Y-20642857D02*
X12966203Y-20690476D01*
X12966203Y-20690476D02*
X13061441Y-20738095D01*
X13061441Y-20738095D02*
X13156680Y-20833333D01*
X13156680Y-20833333D02*
X13204299Y-20976190D01*
X13204299Y-20976190D02*
X13204299Y-21214285D01*
X13204299Y-19690476D02*
X13204299Y-20261904D01*
X13204299Y-19976190D02*
X12204299Y-19976190D01*
X12204299Y-19976190D02*
X12347156Y-20071428D01*
X12347156Y-20071428D02*
X12442394Y-20166666D01*
X12442394Y-20166666D02*
X12490013Y-20261904D01*
X12537632Y-18833333D02*
X13204299Y-18833333D01*
X12156680Y-19071428D02*
X12870965Y-19309523D01*
X12870965Y-19309523D02*
X12870965Y-18690476D01*
X13204299Y8761906D02*
X12204299Y8761906D01*
X12204299Y8761906D02*
X12204299Y9000001D01*
X12204299Y9000001D02*
X12251918Y9142858D01*
X12251918Y9142858D02*
X12347156Y9238096D01*
X12347156Y9238096D02*
X12442394Y9285715D01*
X12442394Y9285715D02*
X12632870Y9333334D01*
X12632870Y9333334D02*
X12775727Y9333334D01*
X12775727Y9333334D02*
X12966203Y9285715D01*
X12966203Y9285715D02*
X13061441Y9238096D01*
X13061441Y9238096D02*
X13156680Y9142858D01*
X13156680Y9142858D02*
X13204299Y9000001D01*
X13204299Y9000001D02*
X13204299Y8761906D01*
X12204299Y10190477D02*
X12204299Y10000001D01*
X12204299Y10000001D02*
X12251918Y9904763D01*
X12251918Y9904763D02*
X12299537Y9857144D01*
X12299537Y9857144D02*
X12442394Y9761906D01*
X12442394Y9761906D02*
X12632870Y9714287D01*
X12632870Y9714287D02*
X13013822Y9714287D01*
X13013822Y9714287D02*
X13109060Y9761906D01*
X13109060Y9761906D02*
X13156680Y9809525D01*
X13156680Y9809525D02*
X13204299Y9904763D01*
X13204299Y9904763D02*
X13204299Y10095239D01*
X13204299Y10095239D02*
X13156680Y10190477D01*
X13156680Y10190477D02*
X13109060Y10238096D01*
X13109060Y10238096D02*
X13013822Y10285715D01*
X13013822Y10285715D02*
X12775727Y10285715D01*
X12775727Y10285715D02*
X12680489Y10238096D01*
X12680489Y10238096D02*
X12632870Y10190477D01*
X12632870Y10190477D02*
X12585251Y10095239D01*
X12585251Y10095239D02*
X12585251Y9904763D01*
X12585251Y9904763D02*
X12632870Y9809525D01*
X12632870Y9809525D02*
X12680489Y9761906D01*
X12680489Y9761906D02*
X12775727Y9714287D01*
X13204299Y-17714285D02*
X12204299Y-17714285D01*
X12204299Y-17714285D02*
X12204299Y-17476190D01*
X12204299Y-17476190D02*
X12251918Y-17333333D01*
X12251918Y-17333333D02*
X12347156Y-17238095D01*
X12347156Y-17238095D02*
X12442394Y-17190476D01*
X12442394Y-17190476D02*
X12632870Y-17142857D01*
X12632870Y-17142857D02*
X12775727Y-17142857D01*
X12775727Y-17142857D02*
X12966203Y-17190476D01*
X12966203Y-17190476D02*
X13061441Y-17238095D01*
X13061441Y-17238095D02*
X13156680Y-17333333D01*
X13156680Y-17333333D02*
X13204299Y-17476190D01*
X13204299Y-17476190D02*
X13204299Y-17714285D01*
X13204299Y-16190476D02*
X13204299Y-16761904D01*
X13204299Y-16476190D02*
X12204299Y-16476190D01*
X12204299Y-16476190D02*
X12347156Y-16571428D01*
X12347156Y-16571428D02*
X12442394Y-16666666D01*
X12442394Y-16666666D02*
X12490013Y-16761904D01*
X12204299Y-15857142D02*
X12204299Y-15238095D01*
X12204299Y-15238095D02*
X12585251Y-15571428D01*
X12585251Y-15571428D02*
X12585251Y-15428571D01*
X12585251Y-15428571D02*
X12632870Y-15333333D01*
X12632870Y-15333333D02*
X12680489Y-15285714D01*
X12680489Y-15285714D02*
X12775727Y-15238095D01*
X12775727Y-15238095D02*
X13013822Y-15238095D01*
X13013822Y-15238095D02*
X13109060Y-15285714D01*
X13109060Y-15285714D02*
X13156680Y-15333333D01*
X13156680Y-15333333D02*
X13204299Y-15428571D01*
X13204299Y-15428571D02*
X13204299Y-15714285D01*
X13204299Y-15714285D02*
X13156680Y-15809523D01*
X13156680Y-15809523D02*
X13109060Y-15857142D01*
X13204299Y12261906D02*
X12204299Y12261906D01*
X12204299Y12261906D02*
X12204299Y12500001D01*
X12204299Y12500001D02*
X12251918Y12642858D01*
X12251918Y12642858D02*
X12347156Y12738096D01*
X12347156Y12738096D02*
X12442394Y12785715D01*
X12442394Y12785715D02*
X12632870Y12833334D01*
X12632870Y12833334D02*
X12775727Y12833334D01*
X12775727Y12833334D02*
X12966203Y12785715D01*
X12966203Y12785715D02*
X13061441Y12738096D01*
X13061441Y12738096D02*
X13156680Y12642858D01*
X13156680Y12642858D02*
X13204299Y12500001D01*
X13204299Y12500001D02*
X13204299Y12261906D01*
X12204299Y13738096D02*
X12204299Y13261906D01*
X12204299Y13261906D02*
X12680489Y13214287D01*
X12680489Y13214287D02*
X12632870Y13261906D01*
X12632870Y13261906D02*
X12585251Y13357144D01*
X12585251Y13357144D02*
X12585251Y13595239D01*
X12585251Y13595239D02*
X12632870Y13690477D01*
X12632870Y13690477D02*
X12680489Y13738096D01*
X12680489Y13738096D02*
X12775727Y13785715D01*
X12775727Y13785715D02*
X13013822Y13785715D01*
X13013822Y13785715D02*
X13109060Y13738096D01*
X13109060Y13738096D02*
X13156680Y13690477D01*
X13156680Y13690477D02*
X13204299Y13595239D01*
X13204299Y13595239D02*
X13204299Y13357144D01*
X13204299Y13357144D02*
X13156680Y13261906D01*
X13156680Y13261906D02*
X13109060Y13214287D01*
X-1454300Y30333334D02*
X-2168585Y30333334D01*
X-2168585Y30333334D02*
X-2311442Y30380953D01*
X-2311442Y30380953D02*
X-2406680Y30476191D01*
X-2406680Y30476191D02*
X-2454300Y30619048D01*
X-2454300Y30619048D02*
X-2454300Y30714286D01*
X-2454300Y29333334D02*
X-2454300Y29904762D01*
X-2454300Y29619048D02*
X-1454300Y29619048D01*
X-1454300Y29619048D02*
X-1597157Y29714286D01*
X-1597157Y29714286D02*
X-1692395Y29809524D01*
X-1692395Y29809524D02*
X-1740014Y29904762D01*
X-1454300Y-9666666D02*
X-2168585Y-9666666D01*
X-2168585Y-9666666D02*
X-2311442Y-9619047D01*
X-2311442Y-9619047D02*
X-2406680Y-9523809D01*
X-2406680Y-9523809D02*
X-2454300Y-9380952D01*
X-2454300Y-9380952D02*
X-2454300Y-9285714D01*
X-1454300Y-10047619D02*
X-1454300Y-10666666D01*
X-1454300Y-10666666D02*
X-1835252Y-10333333D01*
X-1835252Y-10333333D02*
X-1835252Y-10476190D01*
X-1835252Y-10476190D02*
X-1882871Y-10571428D01*
X-1882871Y-10571428D02*
X-1930490Y-10619047D01*
X-1930490Y-10619047D02*
X-2025728Y-10666666D01*
X-2025728Y-10666666D02*
X-2263823Y-10666666D01*
X-2263823Y-10666666D02*
X-2359061Y-10619047D01*
X-2359061Y-10619047D02*
X-2406680Y-10571428D01*
X-2406680Y-10571428D02*
X-2454300Y-10476190D01*
X-2454300Y-10476190D02*
X-2454300Y-10190476D01*
X-2454300Y-10190476D02*
X-2406680Y-10095238D01*
X-2406680Y-10095238D02*
X-2359061Y-10047619D01*
X-1454300Y10333334D02*
X-2168585Y10333334D01*
X-2168585Y10333334D02*
X-2311442Y10380953D01*
X-2311442Y10380953D02*
X-2406680Y10476191D01*
X-2406680Y10476191D02*
X-2454300Y10619048D01*
X-2454300Y10619048D02*
X-2454300Y10714286D01*
X-1549538Y9904762D02*
X-1501919Y9857143D01*
X-1501919Y9857143D02*
X-1454300Y9761905D01*
X-1454300Y9761905D02*
X-1454300Y9523810D01*
X-1454300Y9523810D02*
X-1501919Y9428572D01*
X-1501919Y9428572D02*
X-1549538Y9380953D01*
X-1549538Y9380953D02*
X-1644776Y9333334D01*
X-1644776Y9333334D02*
X-1740014Y9333334D01*
X-1740014Y9333334D02*
X-1882871Y9380953D01*
X-1882871Y9380953D02*
X-2454300Y9952381D01*
X-2454300Y9952381D02*
X-2454300Y9333334D01*
X-1454300Y-29666666D02*
X-2168585Y-29666666D01*
X-2168585Y-29666666D02*
X-2311442Y-29619047D01*
X-2311442Y-29619047D02*
X-2406680Y-29523809D01*
X-2406680Y-29523809D02*
X-2454300Y-29380952D01*
X-2454300Y-29380952D02*
X-2454300Y-29285714D01*
X-1787633Y-30571428D02*
X-2454300Y-30571428D01*
X-1406680Y-30333333D02*
X-2120966Y-30095238D01*
X-2120966Y-30095238D02*
X-2120966Y-30714285D01*
%TO.C,R18*%
X9762742Y-34227500D02*
X10237258Y-34227500D01*
X9762742Y-35272500D02*
X10237258Y-35272500D01*
%TO.C,R17*%
X9762742Y-30727500D02*
X10237258Y-30727500D01*
X9762742Y-31772500D02*
X10237258Y-31772500D01*
%TO.C,R16*%
X9762742Y-25727500D02*
X10237258Y-25727500D01*
X9762742Y-26772500D02*
X10237258Y-26772500D01*
%TO.C,R15*%
X9762742Y-22227500D02*
X10237258Y-22227500D01*
X9762742Y-23272500D02*
X10237258Y-23272500D01*
%TO.C,R14*%
X9762742Y-18727500D02*
X10237258Y-18727500D01*
X9762742Y-19772500D02*
X10237258Y-19772500D01*
%TO.C,R13*%
X9762742Y-15227500D02*
X10237258Y-15227500D01*
X9762742Y-16272500D02*
X10237258Y-16272500D01*
%TO.C,R12*%
X9762742Y-11727500D02*
X10237258Y-11727500D01*
X9762742Y-12772500D02*
X10237258Y-12772500D01*
%TO.C,R11*%
X9762742Y-8227500D02*
X10237258Y-8227500D01*
X9762742Y-9272500D02*
X10237258Y-9272500D01*
%TO.C,R10*%
X9762742Y-4727500D02*
X10237258Y-4727500D01*
X9762742Y-5772500D02*
X10237258Y-5772500D01*
%TO.C,R9*%
X9762742Y-1227500D02*
X10237258Y-1227500D01*
X9762742Y-2272500D02*
X10237258Y-2272500D01*
%TO.C,R8*%
X9762742Y3772500D02*
X10237258Y3772500D01*
X9762742Y2727500D02*
X10237258Y2727500D01*
%TO.C,R7*%
X9762742Y7272500D02*
X10237258Y7272500D01*
X9762742Y6227500D02*
X10237258Y6227500D01*
%TO.C,R6*%
X9762742Y10772500D02*
X10237258Y10772500D01*
X9762742Y9727500D02*
X10237258Y9727500D01*
%TO.C,R5*%
X9762742Y14272500D02*
X10237258Y14272500D01*
X9762742Y13227500D02*
X10237258Y13227500D01*
%TO.C,R4*%
X9762742Y17772500D02*
X10237258Y17772500D01*
X9762742Y16727500D02*
X10237258Y16727500D01*
%TO.C,R3*%
X9762742Y21272500D02*
X10237258Y21272500D01*
X9762742Y20227500D02*
X10237258Y20227500D01*
%TO.C,R2*%
X9762742Y24772500D02*
X10237258Y24772500D01*
X9762742Y23727500D02*
X10237258Y23727500D01*
%TO.C,R1*%
X9762742Y28272500D02*
X10237258Y28272500D01*
X9762742Y27227500D02*
X10237258Y27227500D01*
%TO.C,D12*%
D10*
X13700000Y-14662700D02*
X14300000Y-14662700D01*
X14300000Y-14437300D01*
X13700000Y-14437300D01*
X13700000Y-14662700D01*
G36*
X13700000Y-14662700D02*
G01*
X14300000Y-14662700D01*
X14300000Y-14437300D01*
X13700000Y-14437300D01*
X13700000Y-14662700D01*
G37*
%TO.C,D2*%
X13700000Y21837300D02*
X14300000Y21837300D01*
X14300000Y22062700D01*
X13700000Y22062700D01*
X13700000Y21837300D01*
G36*
X13700000Y21837300D02*
G01*
X14300000Y21837300D01*
X14300000Y22062700D01*
X13700000Y22062700D01*
X13700000Y21837300D01*
G37*
%TO.C,D3*%
X13700000Y18337300D02*
X14300000Y18337300D01*
X14300000Y18562700D01*
X13700000Y18562700D01*
X13700000Y18337300D01*
G36*
X13700000Y18337300D02*
G01*
X14300000Y18337300D01*
X14300000Y18562700D01*
X13700000Y18562700D01*
X13700000Y18337300D01*
G37*
%TO.C,D10*%
X13700000Y-7662700D02*
X14300000Y-7662700D01*
X14300000Y-7437300D01*
X13700000Y-7437300D01*
X13700000Y-7662700D01*
G36*
X13700000Y-7662700D02*
G01*
X14300000Y-7662700D01*
X14300000Y-7437300D01*
X13700000Y-7437300D01*
X13700000Y-7662700D01*
G37*
%TO.C,D8*%
X13700000Y837300D02*
X14300000Y837300D01*
X14300000Y1062700D01*
X13700000Y1062700D01*
X13700000Y837300D01*
G36*
X13700000Y837300D02*
G01*
X14300000Y837300D01*
X14300000Y1062700D01*
X13700000Y1062700D01*
X13700000Y837300D01*
G37*
%TO.C,D17*%
X13700000Y-33662700D02*
X14300000Y-33662700D01*
X14300000Y-33437300D01*
X13700000Y-33437300D01*
X13700000Y-33662700D01*
G36*
X13700000Y-33662700D02*
G01*
X14300000Y-33662700D01*
X14300000Y-33437300D01*
X13700000Y-33437300D01*
X13700000Y-33662700D01*
G37*
%TO.C,D9*%
X13700000Y-4162700D02*
X14300000Y-4162700D01*
X14300000Y-3937300D01*
X13700000Y-3937300D01*
X13700000Y-4162700D01*
G36*
X13700000Y-4162700D02*
G01*
X14300000Y-4162700D01*
X14300000Y-3937300D01*
X13700000Y-3937300D01*
X13700000Y-4162700D01*
G37*
%TO.C,D11*%
X13700000Y-11162700D02*
X14300000Y-11162700D01*
X14300000Y-10937300D01*
X13700000Y-10937300D01*
X13700000Y-11162700D01*
G36*
X13700000Y-11162700D02*
G01*
X14300000Y-11162700D01*
X14300000Y-10937300D01*
X13700000Y-10937300D01*
X13700000Y-11162700D01*
G37*
%TO.C,D7*%
X13700000Y4337300D02*
X14300000Y4337300D01*
X14300000Y4562700D01*
X13700000Y4562700D01*
X13700000Y4337300D01*
G36*
X13700000Y4337300D02*
G01*
X14300000Y4337300D01*
X14300000Y4562700D01*
X13700000Y4562700D01*
X13700000Y4337300D01*
G37*
%TO.C,D1*%
X13700000Y25337300D02*
X14300000Y25337300D01*
X14300000Y25562700D01*
X13700000Y25562700D01*
X13700000Y25337300D01*
G36*
X13700000Y25337300D02*
G01*
X14300000Y25337300D01*
X14300000Y25562700D01*
X13700000Y25562700D01*
X13700000Y25337300D01*
G37*
%TO.C,D4*%
X13700000Y14837300D02*
X14300000Y14837300D01*
X14300000Y15062700D01*
X13700000Y15062700D01*
X13700000Y14837300D01*
G36*
X13700000Y14837300D02*
G01*
X14300000Y14837300D01*
X14300000Y15062700D01*
X13700000Y15062700D01*
X13700000Y14837300D01*
G37*
%TO.C,D16*%
X13700000Y-28662700D02*
X14300000Y-28662700D01*
X14300000Y-28437300D01*
X13700000Y-28437300D01*
X13700000Y-28662700D01*
G36*
X13700000Y-28662700D02*
G01*
X14300000Y-28662700D01*
X14300000Y-28437300D01*
X13700000Y-28437300D01*
X13700000Y-28662700D01*
G37*
%TO.C,D15*%
X13700000Y-25162700D02*
X14300000Y-25162700D01*
X14300000Y-24937300D01*
X13700000Y-24937300D01*
X13700000Y-25162700D01*
G36*
X13700000Y-25162700D02*
G01*
X14300000Y-25162700D01*
X14300000Y-24937300D01*
X13700000Y-24937300D01*
X13700000Y-25162700D01*
G37*
%TO.C,D18*%
X13700000Y-37162700D02*
X14300000Y-37162700D01*
X14300000Y-36937300D01*
X13700000Y-36937300D01*
X13700000Y-37162700D01*
G36*
X13700000Y-37162700D02*
G01*
X14300000Y-37162700D01*
X14300000Y-36937300D01*
X13700000Y-36937300D01*
X13700000Y-37162700D01*
G37*
%TO.C,D14*%
X13700000Y-21662700D02*
X14300000Y-21662700D01*
X14300000Y-21437300D01*
X13700000Y-21437300D01*
X13700000Y-21662700D01*
G36*
X13700000Y-21662700D02*
G01*
X14300000Y-21662700D01*
X14300000Y-21437300D01*
X13700000Y-21437300D01*
X13700000Y-21662700D01*
G37*
%TO.C,D6*%
X13700000Y7837300D02*
X14300000Y7837300D01*
X14300000Y8062700D01*
X13700000Y8062700D01*
X13700000Y7837300D01*
G36*
X13700000Y7837300D02*
G01*
X14300000Y7837300D01*
X14300000Y8062700D01*
X13700000Y8062700D01*
X13700000Y7837300D01*
G37*
%TO.C,D13*%
X13700000Y-18162700D02*
X14300000Y-18162700D01*
X14300000Y-17937300D01*
X13700000Y-17937300D01*
X13700000Y-18162700D01*
G36*
X13700000Y-18162700D02*
G01*
X14300000Y-18162700D01*
X14300000Y-17937300D01*
X13700000Y-17937300D01*
X13700000Y-18162700D01*
G37*
%TO.C,D5*%
X13700000Y11337300D02*
X14300000Y11337300D01*
X14300000Y11562700D01*
X13700000Y11562700D01*
X13700000Y11337300D01*
G36*
X13700000Y11337300D02*
G01*
X14300000Y11337300D01*
X14300000Y11562700D01*
X13700000Y11562700D01*
X13700000Y11337300D01*
G37*
D11*
%TO.C,J1*%
X-5218700Y39623301D02*
X-10781300Y39623301D01*
X-10781300Y39623301D02*
X-10781300Y20376699D01*
X-10781300Y20376699D02*
X-5218700Y20376699D01*
%TO.C,J3*%
X-5218700Y-376699D02*
X-10781300Y-376699D01*
X-10781300Y-376699D02*
X-10781300Y-19623301D01*
X-10781300Y-19623301D02*
X-5218700Y-19623301D01*
%TO.C,J2*%
X-5218700Y19623301D02*
X-10781300Y19623301D01*
X-10781300Y19623301D02*
X-10781300Y376699D01*
X-10781300Y376699D02*
X-5218700Y376699D01*
%TO.C,J4*%
X-5218700Y-20376699D02*
X-10781300Y-20376699D01*
X-10781300Y-20376699D02*
X-10781300Y-39623301D01*
X-10781300Y-39623301D02*
X-5218700Y-39623301D01*
%TD*%
M02*
