M48
; DRILL file {KiCad 9.0.6} date 2025-12-07T15:18:36+0300
; FORMAT={-:-/ absolute / metric / decimal}
; #@! TF.CreationDate,2025-12-07T15:18:36+03:00
; #@! TF.GenerationSoftware,Kicad,Pcbnew,9.0.6
; #@! TF.FileFunction,Plated,1,2,PTH
FMAT,2
METRIC
; #@! TA.AperFunction,Plated,PTH,ViaDrill
T1C0.400
; #@! TA.AperFunction,Plated,PTH,ComponentDrill
T2C0.600
; #@! TA.AperFunction,Plated,PTH,ComponentDrill
T3C1.000
; #@! TA.AperFunction,Plated,PTH,ComponentDrill
T4C1.400
; #@! TA.AperFunction,Plated,PTH,ComponentDrill
T5C2.200
; #@! TA.AperFunction,Plated,PTH,ComponentDrill
T6C4.300
%
G90
G05
T1
X-38.5Y-29.0
X-38.5Y-30.5
X-38.5Y-32.0
X-38.0Y-7.5
X-35.0Y29.5
X-35.0Y28.5
X-35.0Y27.5
X-35.0Y26.5
X-35.0Y25.5
X-35.0Y24.5
X-35.0Y23.5
X-35.0Y22.5
X-35.0Y21.5
X-35.0Y20.5
X-35.0Y19.5
X-35.0Y18.5
X-35.0Y17.5
X-35.0Y16.5
X-35.0Y15.5
X-35.0Y14.5
X-35.0Y13.5
X-35.0Y12.5
X-35.0Y11.5
X-35.0Y10.5
X-35.0Y-8.5
X-35.0Y-9.5
X-35.0Y-10.5
X-34.5Y-29.0
X-34.0Y27.5
X-34.0Y26.5
X-34.0Y25.5
X-34.0Y24.5
X-34.0Y-24.0
X-33.0Y27.5
X-33.0Y26.5
X-33.0Y25.5
X-33.0Y24.5
X-31.066Y-28.066
X-31.0Y-34.0
X-26.0Y-21.0
X-26.0Y-23.0
X-26.0Y-28.0
X-25.0Y-22.0
X-25.0Y-37.5
X-24.0Y-21.0
X-24.0Y-23.0
X-24.0Y-36.5
X-23.0Y-37.5
X-19.0Y16.0
X-18.0Y-4.0
X-17.0Y39.0
X-10.0Y33.0
X-8.46Y35.46
X-5.5Y30.5
X-2.0Y-28.0
X2.0Y-25.5
X2.0Y-27.0
X2.0Y-33.5
X11.0Y-16.0
X11.0Y-19.5
X11.0Y-26.5
X11.0Y-28.0
X11.0Y-31.5
X11.0Y-33.0
X11.5Y-18.0
X12.0Y-15.0
X14.886Y-29.886
X16.0Y-37.0
X20.0Y-29.5
X20.0Y-37.5
X20.5Y-19.0
X20.5Y-26.0
X25.0Y-20.0
X25.0Y-31.5
T2
X-38.225Y45.0
X-38.225Y-45.0
X-37.28Y47.28
X-37.28Y42.72
X-37.28Y-42.72
X-37.28Y-47.28
X-35.0Y48.225
X-35.0Y41.775
X-35.0Y-41.775
X-35.0Y-48.225
X-32.72Y47.28
X-32.72Y42.72
X-32.72Y-42.72
X-32.72Y-47.28
X-31.775Y45.0
X-31.775Y-45.0
X18.775Y45.0
X18.775Y-45.0
X19.72Y47.28
X19.72Y42.72
X19.72Y-42.72
X19.72Y-47.28
X22.0Y48.225
X22.0Y41.775
X22.0Y-41.775
X22.0Y-48.225
X24.28Y47.28
X24.28Y42.72
X24.28Y-42.72
X24.28Y-47.28
X25.225Y45.0
X25.225Y-45.0
T3
X-24.0Y-32.25
X-24.0Y-40.0
X-3.44Y34.77
X-3.44Y32.23
X-3.44Y-10.23
X-3.44Y-12.77
X-0.9Y34.77
X-0.9Y32.23
X-0.9Y-10.23
X-0.9Y-12.77
X1.64Y34.77
X1.64Y32.23
X1.64Y-10.23
X1.64Y-12.77
X4.18Y34.77
X4.18Y32.23
X4.18Y-10.23
X4.18Y-12.77
X6.72Y34.77
X6.72Y32.23
X6.72Y-10.23
X6.72Y-12.77
X9.26Y34.77
X9.26Y32.23
X9.26Y-10.23
X9.26Y-12.77
X11.8Y34.77
X11.8Y32.23
X11.8Y-10.23
X11.8Y-12.77
X14.34Y34.77
X14.34Y32.23
X14.34Y-10.23
X14.34Y-12.77
X16.88Y34.77
X16.88Y32.23
X16.88Y-10.23
X16.88Y-12.77
X19.42Y34.77
X19.42Y32.23
X19.42Y-10.23
X19.42Y-12.77
X21.96Y34.77
X21.96Y32.23
X21.96Y-10.23
X21.96Y-12.77
X24.5Y34.77
X24.5Y32.23
X24.5Y-10.23
X24.5Y-12.77
X27.04Y34.77
X27.04Y32.23
X27.04Y-10.23
X27.04Y-12.77
T4
X-13.0Y-40.0
X-9.5Y-40.0
X-6.0Y-40.0
X-2.5Y-40.0
X1.0Y-40.0
X32.0Y-26.0
X32.0Y-29.5
X32.0Y-33.0
X32.0Y-36.5
X32.0Y-40.0
T5
X13.0Y45.0
X13.0Y-45.0
X37.0Y45.0
X37.0Y-45.0
T6
X-35.0Y45.0
X-35.0Y-45.0
X22.0Y45.0
X22.0Y-45.0
M30
