<?xml version="1.0" standalone="no"?>
 <!DOCTYPE svg PUBLIC "-//W3C//DTD SVG 1.1//EN" 
 "http://www.w3.org/Graphics/SVG/1.1/DTD/svg11.dtd"> 
<svg
  xmlns:svg="http://www.w3.org/2000/svg"
  xmlns="http://www.w3.org/2000/svg"
  xmlns:xlink="http://www.w3.org/1999/xlink"
  xmlns:inkscape="http://www.inkscape.org/namespaces/inkscape"
  version="1.1"
  width="297.0022mm" height="210.0072mm" viewBox="0.0000 0.0000 297.0022 210.0072">
<title>SVG Image created as PMCNV-DQx16-NPTH-drl_map.svg date 2026-05-15T11:39:30 </title>
  <desc>Image generated by PCBNEW </desc>
<g style="fill:#000000; fill-opacity:1.0000;stroke:#000000; stroke-opacity:1.0000;
stroke-linecap:round; stroke-linejoin:round;"
 transform="translate(0 0) scale(1 1)">
</g>
<g style="fill:none; 
stroke:#000000; stroke-width:0.0579; stroke-opacity:1; 
stroke-linecap:round; stroke-linejoin:round;">
<circle cx="107.4018" cy="10.9044" r="2.4891" /> 
</g>
<g style="fill:none; 
stroke:#000000; stroke-width:0.2315; stroke-opacity:1; 
stroke-linecap:round; stroke-linejoin:round;">
<path d="M107.4018 6.2735 A4.6309 4.6309 0.0 0 0 107.4018 15.5353" />
<path d="M107.4018 15.5353
L110.8749 15.5353
" />
</g>
<g style="fill:none; 
stroke:#000000; stroke-width:0.0579; stroke-opacity:1; 
stroke-linecap:round; stroke-linejoin:round;">
<circle cx="107.4018" cy="115.0999" r="2.4891" /> 
</g>
<g style="fill:none; 
stroke:#000000; stroke-width:0.2315; stroke-opacity:1; 
stroke-linecap:round; stroke-linejoin:round;">
<path d="M107.4018 110.4690 A4.6309 4.6309 0.0 0 0 107.4018 119.7308" />
<path d="M107.4018 119.7308
L110.8749 119.7308
" />
<path d="M110.8749 6.2735
L107.4018 6.2735
" />
<path d="M110.8749 6.2735
L110.8749 9.7467
" />
<path d="M110.8749 12.0621
L113.1904 12.0621
" />
<path d="M110.8749 15.5353
L110.8749 12.0621
" />
<path d="M110.8749 110.4690
L107.4018 110.4690
" />
<path d="M110.8749 110.4690
L110.8749 113.9422
" />
<path d="M110.8749 116.2576
L113.1904 116.2576
" />
<path d="M110.8749 119.7308
L110.8749 116.2576
" />
<path d="M113.1904 8.5890
L113.1904 9.7467
" />
<path d="M116.6636 5.1158 A3.4732 3.4732 0.0 0 0 113.1904 8.5890" />
<path d="M113.1904 9.7467
L110.8749 9.7467
" />
<path d="M113.1904 113.9422
L110.8749 113.9422
" />
<path d="M113.1904 113.9422
L113.1904 12.0621
" />
<path d="M113.1904 117.4154
L113.1904 116.2576
" />
<path d="M116.6636 5.1158
L190.7582 5.1158
" />
<path d="M113.1904 117.4154 A3.4732 3.4732 0.0 0 0 116.6636 120.8885" />
<path d="M116.6636 120.8885
L190.7582 120.8885
" />
<path d="M194.2313 8.5890 A3.4732 3.4732 0.0 0 0 190.7582 5.1158" />
<path d="M194.2313 8.5890
L194.2313 117.4154
" />
<path d="M190.7582 120.8885 A3.4732 3.4732 0.0 0 0 194.2313 117.4154" />
</g>
<g style="fill:none; 
stroke:#000000; stroke-width:0.0579; stroke-opacity:1; 
stroke-linecap:round; stroke-linejoin:round;">
<circle cx="153.7109" cy="97.7340" r="1.5050" /> 
</g>
<g style="fill:none; 
stroke:#000000; stroke-width:0.2000; stroke-opacity:1; 
stroke-linecap:round; stroke-linejoin:round;">
<text x="104.6551" y="124.2043"
textLength="14.8667" font-size="2.6667" lengthAdjust="spacingAndGlyphs"
text-anchor="start" opacity="0" stroke-opacity="0">Drill Map:</text>
<g class="stroked-text"><desc>Drill Map:</desc>
<path d="M105.2628 124.1192
L105.2628 122.1192
" />
<path d="M105.2628 122.1192
L105.7390 122.1192
" />
<path d="M105.7390 122.1192
L106.0248 122.2144
" />
<path d="M106.0248 122.2144
L106.2152 122.4049
" />
<path d="M106.2152 122.4049
L106.3105 122.5953
" />
<path d="M106.3105 122.5953
L106.4057 122.9763
" />
<path d="M106.4057 122.9763
L106.4057 123.2620
" />
<path d="M106.4057 123.2620
L106.3105 123.6430
" />
<path d="M106.3105 123.6430
L106.2152 123.8334
" />
<path d="M106.2152 123.8334
L106.0248 124.0239
" />
<path d="M106.0248 124.0239
L105.7390 124.1192
" />
<path d="M105.7390 124.1192
L105.2628 124.1192
" />
<path d="M107.2628 124.1192
L107.2628 122.7858
" />
<path d="M107.2628 123.1668
L107.3581 122.9763
" />
<path d="M107.3581 122.9763
L107.4533 122.8811
" />
<path d="M107.4533 122.8811
L107.6438 122.7858
" />
<path d="M107.6438 122.7858
L107.8343 122.7858
" />
<path d="M108.5009 124.1192
L108.5009 122.7858
" />
<path d="M108.5009 122.1192
L108.4057 122.2144
" />
<path d="M108.4057 122.2144
L108.5009 122.3096
" />
<path d="M108.5009 122.3096
L108.5962 122.2144
" />
<path d="M108.5962 122.2144
L108.5009 122.1192
" />
<path d="M108.5009 122.1192
L108.5009 122.3096
" />
<path d="M109.7390 124.1192
L109.5486 124.0239
" />
<path d="M109.5486 124.0239
L109.4533 123.8334
" />
<path d="M109.4533 123.8334
L109.4533 122.1192
" />
<path d="M110.7867 124.1192
L110.5962 124.0239
" />
<path d="M110.5962 124.0239
L110.5009 123.8334
" />
<path d="M110.5009 123.8334
L110.5009 122.1192
" />
<path d="M113.0724 124.1192
L113.0724 122.1192
" />
<path d="M113.0724 122.1192
L113.7390 123.5477
" />
<path d="M113.7390 123.5477
L114.4057 122.1192
" />
<path d="M114.4057 122.1192
L114.4057 124.1192
" />
<path d="M116.2152 124.1192
L116.2152 123.0715
" />
<path d="M116.2152 123.0715
L116.1200 122.8811
" />
<path d="M116.1200 122.8811
L115.9295 122.7858
" />
<path d="M115.9295 122.7858
L115.5486 122.7858
" />
<path d="M115.5486 122.7858
L115.3581 122.8811
" />
<path d="M116.2152 124.0239
L116.0248 124.1192
" />
<path d="M116.0248 124.1192
L115.5486 124.1192
" />
<path d="M115.5486 124.1192
L115.3581 124.0239
" />
<path d="M115.3581 124.0239
L115.2628 123.8334
" />
<path d="M115.2628 123.8334
L115.2628 123.6430
" />
<path d="M115.2628 123.6430
L115.3581 123.4525
" />
<path d="M115.3581 123.4525
L115.5486 123.3573
" />
<path d="M115.5486 123.3573
L116.0248 123.3573
" />
<path d="M116.0248 123.3573
L116.2152 123.2620
" />
<path d="M117.1676 122.7858
L117.1676 124.7858
" />
<path d="M117.1676 122.8811
L117.3581 122.7858
" />
<path d="M117.3581 122.7858
L117.7390 122.7858
" />
<path d="M117.7390 122.7858
L117.9295 122.8811
" />
<path d="M117.9295 122.8811
L118.0248 122.9763
" />
<path d="M118.0248 122.9763
L118.1200 123.1668
" />
<path d="M118.1200 123.1668
L118.1200 123.7382
" />
<path d="M118.1200 123.7382
L118.0248 123.9287
" />
<path d="M118.0248 123.9287
L117.9295 124.0239
" />
<path d="M117.9295 124.0239
L117.7390 124.1192
" />
<path d="M117.7390 124.1192
L117.3581 124.1192
" />
<path d="M117.3581 124.1192
L117.1676 124.0239
" />
<path d="M118.9771 123.9287
L119.0724 124.0239
" />
<path d="M119.0724 124.0239
L118.9771 124.1192
" />
<path d="M118.9771 124.1192
L118.8819 124.0239
" />
<path d="M118.8819 124.0239
L118.9771 123.9287
" />
<path d="M118.9771 123.9287
L118.9771 124.1192
" />
<path d="M118.9771 122.8811
L119.0724 122.9763
" />
<path d="M119.0724 122.9763
L118.9771 123.0715
" />
<path d="M118.9771 123.0715
L118.8819 122.9763
" />
<path d="M118.8819 122.9763
L118.9771 122.8811
" />
<path d="M118.9771 122.8811
L118.9771 123.0715
" />
</g></g> 
</svg>
