%TF.GenerationSoftware,KiCad,Pcbnew,9.0.6*%
%TF.CreationDate,2025-12-01T14:10:10+03:00*%
%TF.ProjectId,PMPS-20W,504d5053-2d32-4305-972e-6b696361645f,rev?*%
%TF.SameCoordinates,Original*%
%TF.FileFunction,Soldermask,Bot*%
%TF.FilePolarity,Negative*%
%FSLAX46Y46*%
G04 Gerber Fmt 4.6, Leading zero omitted, Abs format (unit mm)*
G04 Created by KiCad (PCBNEW 9.0.6) date 2025-12-01 14:10:10*
%MOMM*%
%LPD*%
G01*
G04 APERTURE LIST*
G04 Aperture macros list*
%AMFreePoly0*
4,1,23,0.500000,-0.750000,0.000000,-0.750000,0.000000,-0.745722,-0.065263,-0.745722,-0.191342,-0.711940,-0.304381,-0.646677,-0.396677,-0.554381,-0.461940,-0.441342,-0.495722,-0.315263,-0.495722,-0.250000,-0.500000,-0.250000,-0.500000,0.250000,-0.495722,0.250000,-0.495722,0.315263,-0.461940,0.441342,-0.396677,0.554381,-0.304381,0.646677,-0.191342,0.711940,-0.065263,0.745722,0.000000,0.745722,
0.000000,0.750000,0.500000,0.750000,0.500000,-0.750000,0.500000,-0.750000,$1*%
%AMFreePoly1*
4,1,23,0.000000,0.745722,0.065263,0.745722,0.191342,0.711940,0.304381,0.646677,0.396677,0.554381,0.461940,0.441342,0.495722,0.315263,0.495722,0.250000,0.500000,0.250000,0.500000,-0.250000,0.495722,-0.250000,0.495722,-0.315263,0.461940,-0.441342,0.396677,-0.554381,0.304381,-0.646677,0.191342,-0.711940,0.065263,-0.745722,0.000000,-0.745722,0.000000,-0.750000,-0.500000,-0.750000,
-0.500000,0.750000,0.000000,0.750000,0.000000,0.745722,0.000000,0.745722,$1*%
G04 Aperture macros list end*
%ADD10C,0.700000*%
%ADD11C,4.400000*%
%ADD12C,2.200000*%
%ADD13C,0.900000*%
%ADD14C,8.600000*%
%ADD15C,1.950000*%
%ADD16C,1.803400*%
%ADD17C,2.350000*%
%ADD18FreePoly0,180.000000*%
%ADD19FreePoly1,180.000000*%
%ADD20R,1.800000X0.600000*%
%ADD21R,3.000000X2.600000*%
G04 APERTURE END LIST*
D10*
%TO.C,SP1*%
X11350000Y45000000D03*
X11350000Y-45000000D03*
X11833274Y46166726D03*
X11833274Y43833274D03*
X11833274Y-43833274D03*
X11833274Y-46166726D03*
X13000000Y46650000D03*
D11*
X13000000Y45000000D03*
D10*
X13000000Y43350000D03*
X13000000Y-43350000D03*
D11*
X13000000Y-45000000D03*
D10*
X13000000Y-46650000D03*
X14166726Y46166726D03*
X14166726Y43833274D03*
X14166726Y-43833274D03*
X14166726Y-46166726D03*
X14650000Y45000000D03*
X14650000Y-45000000D03*
X35350000Y45000000D03*
X35350000Y-45000000D03*
X35833274Y46166726D03*
X35833274Y43833274D03*
X35833274Y-43833274D03*
X35833274Y-46166726D03*
X37000000Y46650000D03*
D11*
X37000000Y45000000D03*
D10*
X37000000Y43350000D03*
X37000000Y-43350000D03*
D11*
X37000000Y-45000000D03*
D10*
X37000000Y-46650000D03*
X38166726Y46166726D03*
X38166726Y43833274D03*
X38166726Y-43833274D03*
X38166726Y-46166726D03*
X38650000Y45000000D03*
X38650000Y-45000000D03*
%TD*%
D12*
%TO.C,J7*%
X32000000Y-14000000D03*
X32000000Y-10500000D03*
X32000000Y-7000000D03*
X32000000Y-3500000D03*
X32000000Y0D03*
%TD*%
D13*
%TO.C,H4*%
X18775000Y45000000D03*
X19719581Y47280419D03*
X19719581Y42719581D03*
X22000000Y48225000D03*
D14*
X22000000Y45000000D03*
D13*
X22000000Y41775000D03*
X24280419Y47280419D03*
X24280419Y42719581D03*
X25225000Y45000000D03*
%TD*%
%TO.C,H3*%
X18775000Y-45000000D03*
X19719581Y-42719581D03*
X19719581Y-47280419D03*
X22000000Y-41775000D03*
D14*
X22000000Y-45000000D03*
D13*
X22000000Y-48225000D03*
X24280419Y-42719581D03*
X24280419Y-47280419D03*
X25225000Y-45000000D03*
%TD*%
%TO.C,H2*%
X-38225000Y45000000D03*
X-37280419Y47280419D03*
X-37280419Y42719581D03*
X-35000000Y48225000D03*
D14*
X-35000000Y45000000D03*
D13*
X-35000000Y41775000D03*
X-32719581Y47280419D03*
X-32719581Y42719581D03*
X-31775000Y45000000D03*
%TD*%
%TO.C,H1*%
X-38225000Y-45000000D03*
X-37280419Y-42719581D03*
X-37280419Y-47280419D03*
X-35000000Y-41775000D03*
D14*
X-35000000Y-45000000D03*
D13*
X-35000000Y-48225000D03*
X-32719581Y-42719581D03*
X-32719581Y-47280419D03*
X-31775000Y-45000000D03*
%TD*%
D15*
%TO.C,J3*%
X-36000000Y-18540000D03*
X-36000000Y-16000000D03*
X-36000000Y-13460000D03*
%TD*%
D16*
%TO.C,U1*%
X5799999Y11500006D03*
X-2200000Y11500006D03*
X-15000000Y-33500006D03*
X5799999Y-33500006D03*
%TD*%
D12*
%TO.C,J10*%
X32000000Y-39500000D03*
X32000000Y-36000000D03*
X32000000Y-32500000D03*
%TD*%
D17*
%TO.C,U4*%
X2500000Y-43000000D03*
X-12500000Y-43000000D03*
%TD*%
D15*
%TO.C,J2*%
X-36000000Y-27460000D03*
X-36000000Y-30000000D03*
X-36000000Y-32540000D03*
%TD*%
D17*
%TO.C,U2*%
X2500000Y21000000D03*
X-12500000Y21000000D03*
%TD*%
D15*
%TO.C,J4*%
X-36000000Y-4540000D03*
X-36000000Y-2000000D03*
X-36000000Y540000D03*
%TD*%
D12*
%TO.C,J6*%
X32000000Y11500000D03*
X32000000Y15000000D03*
X32000000Y18500000D03*
X32000000Y22000000D03*
X32000000Y25500000D03*
%TD*%
D18*
%TO.C,JP2*%
X-23350000Y27500000D03*
D19*
X-24650000Y27500000D03*
%TD*%
D20*
%TO.C,JM2*%
X-36546000Y29500000D03*
X-36546000Y28500000D03*
X-36546000Y27500000D03*
X-36546000Y26500000D03*
X-36546000Y25500000D03*
X-36546000Y24500000D03*
X-36546000Y23500000D03*
X-36546000Y22500000D03*
X-36546000Y21500000D03*
X-36546000Y20500000D03*
X-36546000Y19500000D03*
X-36546000Y18500000D03*
X-36546000Y17500000D03*
X-36546000Y16500000D03*
X-36546000Y15500000D03*
X-36546000Y14500000D03*
X-36546000Y13500000D03*
X-36546000Y12500000D03*
X-36546000Y11500000D03*
X-36546000Y10500000D03*
D21*
X-34375000Y31850000D03*
X-34375000Y8150000D03*
%TD*%
D18*
%TO.C,JP4*%
X-23350000Y24500000D03*
D19*
X-24650000Y24500000D03*
%TD*%
M02*
