%TF.GenerationSoftware,KiCad,Pcbnew,9.0.6*%
%TF.CreationDate,2025-12-07T12:12:16+03:00*%
%TF.ProjectId,PMPS-20W,504d5053-2d32-4305-972e-6b696361645f,rev?*%
%TF.SameCoordinates,Original*%
%TF.FileFunction,Copper,L1,Top*%
%TF.FilePolarity,Positive*%
%FSLAX46Y46*%
G04 Gerber Fmt 4.6, Leading zero omitted, Abs format (unit mm)*
G04 Created by KiCad (PCBNEW 9.0.6) date 2025-12-07 12:12:16*
%MOMM*%
%LPD*%
G01*
G04 APERTURE LIST*
G04 Aperture macros list*
%AMRoundRect*
0 Rectangle with rounded corners*
0 $1 Rounding radius*
0 $2 $3 $4 $5 $6 $7 $8 $9 X,Y pos of 4 corners*
0 Add a 4 corners polygon primitive as box body*
4,1,4,$2,$3,$4,$5,$6,$7,$8,$9,$2,$3,0*
0 Add four circle primitives for the rounded corners*
1,1,$1+$1,$2,$3*
1,1,$1+$1,$4,$5*
1,1,$1+$1,$6,$7*
1,1,$1+$1,$8,$9*
0 Add four rect primitives between the rounded corners*
20,1,$1+$1,$2,$3,$4,$5,0*
20,1,$1+$1,$4,$5,$6,$7,0*
20,1,$1+$1,$6,$7,$8,$9,0*
20,1,$1+$1,$8,$9,$2,$3,0*%
%AMFreePoly0*
4,1,23,0.500000,-0.750000,0.000000,-0.750000,0.000000,-0.745722,-0.065263,-0.745722,-0.191342,-0.711940,-0.304381,-0.646677,-0.396677,-0.554381,-0.461940,-0.441342,-0.495722,-0.315263,-0.495722,-0.250000,-0.500000,-0.250000,-0.500000,0.250000,-0.495722,0.250000,-0.495722,0.315263,-0.461940,0.441342,-0.396677,0.554381,-0.304381,0.646677,-0.191342,0.711940,-0.065263,0.745722,0.000000,0.745722,
0.000000,0.750000,0.500000,0.750000,0.500000,-0.750000,0.500000,-0.750000,$1*%
%AMFreePoly1*
4,1,23,0.000000,0.745722,0.065263,0.745722,0.191342,0.711940,0.304381,0.646677,0.396677,0.554381,0.461940,0.441342,0.495722,0.315263,0.495722,0.250000,0.500000,0.250000,0.500000,-0.250000,0.495722,-0.250000,0.495722,-0.315263,0.461940,-0.441342,0.396677,-0.554381,0.304381,-0.646677,0.191342,-0.711940,0.065263,-0.745722,0.000000,-0.745722,0.000000,-0.750000,-0.500000,-0.750000,
-0.500000,0.750000,0.000000,0.750000,0.000000,0.745722,0.000000,0.745722,$1*%
G04 Aperture macros list end*
%TA.AperFunction,SMDPad,CuDef*%
%ADD10R,1.800000X0.600000*%
%TD*%
%TA.AperFunction,SMDPad,CuDef*%
%ADD11R,3.000000X2.600000*%
%TD*%
%TA.AperFunction,ComponentPad*%
%ADD12C,1.950000*%
%TD*%
%TA.AperFunction,ComponentPad*%
%ADD13C,2.200000*%
%TD*%
%TA.AperFunction,ComponentPad*%
%ADD14C,4.400000*%
%TD*%
%TA.AperFunction,ComponentPad*%
%ADD15C,1.200000*%
%TD*%
%TA.AperFunction,ComponentPad*%
%ADD16C,8.600000*%
%TD*%
%TA.AperFunction,SMDPad,CuDef*%
%ADD17RoundRect,0.250000X-0.325000X-0.650000X0.325000X-0.650000X0.325000X0.650000X-0.325000X0.650000X0*%
%TD*%
%TA.AperFunction,SMDPad,CuDef*%
%ADD18FreePoly0,0.000000*%
%TD*%
%TA.AperFunction,SMDPad,CuDef*%
%ADD19FreePoly1,0.000000*%
%TD*%
%TA.AperFunction,SMDPad,CuDef*%
%ADD20RoundRect,0.250000X-0.650000X-2.450000X0.650000X-2.450000X0.650000X2.450000X-0.650000X2.450000X0*%
%TD*%
%TA.AperFunction,ComponentPad*%
%ADD21C,1.803400*%
%TD*%
%TA.AperFunction,SMDPad,CuDef*%
%ADD22RoundRect,0.250000X1.450000X-0.537500X1.450000X0.537500X-1.450000X0.537500X-1.450000X-0.537500X0*%
%TD*%
%TA.AperFunction,ComponentPad*%
%ADD23C,2.350000*%
%TD*%
%TA.AperFunction,SMDPad,CuDef*%
%ADD24R,1.803400X0.635000*%
%TD*%
%TA.AperFunction,SMDPad,CuDef*%
%ADD25R,2.997200X2.590800*%
%TD*%
%TA.AperFunction,ViaPad*%
%ADD26C,1.000000*%
%TD*%
%TA.AperFunction,ViaPad*%
%ADD27C,0.800000*%
%TD*%
%TA.AperFunction,Conductor*%
%ADD28C,0.600000*%
%TD*%
%TA.AperFunction,Conductor*%
%ADD29C,1.000000*%
%TD*%
%TA.AperFunction,Conductor*%
%ADD30C,2.000000*%
%TD*%
G04 APERTURE END LIST*
D10*
%TO.P,JM1,1,Pin_1*%
%TO.N,GND_MCU*%
X-36546000Y10500000D03*
%TO.P,JM1,2,Pin_2*%
X-36546000Y11500000D03*
%TO.P,JM1,3,Pin_3*%
%TO.N,/SCL_IB*%
X-36546000Y12500000D03*
%TO.P,JM1,4,Pin_4*%
%TO.N,/SDA_IB*%
X-36546000Y13500000D03*
%TO.P,JM1,5,Pin_5*%
%TO.N,Net-(JM1-Pin_5)*%
X-36546000Y14500000D03*
%TO.P,JM1,6,Pin_6*%
%TO.N,/RST_IB*%
X-36546000Y15500000D03*
%TO.P,JM1,7,Pin_7*%
%TO.N,/CS3_IB*%
X-36546000Y16500000D03*
%TO.P,JM1,8,Pin_8*%
%TO.N,/CS2_IB*%
X-36546000Y17500000D03*
%TO.P,JM1,9,Pin_9*%
%TO.N,/CS1_IB*%
X-36546000Y18500000D03*
%TO.P,JM1,10,Pin_10*%
%TO.N,/CS0_IB*%
X-36546000Y19500000D03*
%TO.P,JM1,11,Pin_11*%
%TO.N,/SCK_IB*%
X-36546000Y20500000D03*
%TO.P,JM1,12,Pin_11*%
%TO.N,/MISO_IB*%
X-36546000Y21500000D03*
%TO.P,JM1,13,Pin_11*%
%TO.N,/MOSI_IB*%
X-36546000Y22500000D03*
%TO.P,JM1,14,Pin_11*%
%TO.N,GND_MCU*%
X-36546000Y23500000D03*
%TO.P,JM1,15,Pin_11*%
%TO.N,+3V3-IB-front*%
X-36546000Y24500000D03*
%TO.P,JM1,16,Pin_11*%
X-36546000Y25500000D03*
%TO.P,JM1,17,Pin_11*%
%TO.N,+5V-IB-front*%
X-36546000Y26500000D03*
%TO.P,JM1,18,Pin_11*%
X-36546000Y27500000D03*
%TO.P,JM1,19,Pin_11*%
%TO.N,GND_MCU*%
X-36546000Y28500000D03*
%TO.P,JM1,20,Pin_11*%
X-36546000Y29500000D03*
D11*
%TO.P,JM1,MP1,Pin_11*%
X-34375000Y8150000D03*
%TO.P,JM1,MP2,Pin_11*%
X-34375000Y31850000D03*
%TD*%
D12*
%TO.P,J3,1,VIN*%
%TO.N,+24V*%
X-36000000Y-18540000D03*
%TO.P,J3,2,GND*%
%TO.N,GND_MCU*%
X-36000000Y-16000000D03*
%TO.P,J3,3,+VO*%
%TO.N,+3V3*%
X-36000000Y-13460000D03*
%TD*%
%TO.P,J2,1,VIN*%
%TO.N,+24V*%
X-36000000Y-32540000D03*
%TO.P,J2,2,GND*%
%TO.N,GND_MCU*%
X-36000000Y-30000000D03*
%TO.P,J2,3,+VO*%
%TO.N,+5V(2)*%
X-36000000Y-27460000D03*
%TD*%
%TO.P,J4,1,VIN*%
%TO.N,+24V*%
X-36000000Y-4540000D03*
%TO.P,J4,2,GND*%
%TO.N,GND_MCU*%
X-36000000Y-2000000D03*
%TO.P,J4,3,+VO*%
%TO.N,+5V*%
X-36000000Y540000D03*
%TD*%
D13*
%TO.P,J6,1,Pin_1*%
%TO.N,GND_MCU*%
X32000000Y11500000D03*
%TO.P,J6,2,Pin_2*%
%TO.N,+3V3*%
X32000000Y15000000D03*
%TO.P,J6,3,Pin_3*%
%TO.N,+5V(2)*%
X32000000Y18500000D03*
%TO.P,J6,4,Pin_4*%
%TO.N,+5V*%
X32000000Y22000000D03*
%TO.P,J6,5,Pin_5*%
%TO.N,+24V*%
X32000000Y25500000D03*
%TD*%
%TO.P,J7,1,Pin_1*%
%TO.N,+24V*%
X32000000Y-14000000D03*
%TO.P,J7,2,Pin_2*%
%TO.N,GND_MCU*%
X32000000Y-10500000D03*
%TO.P,J7,3,Pin_3*%
%TO.N,/CANL_EB*%
X32000000Y-7000000D03*
%TO.P,J7,4,Pin_4*%
%TO.N,/CANH_EB*%
X32000000Y-3500000D03*
%TO.P,J7,5,Pin_5*%
%TO.N,PE*%
X32000000Y0D03*
%TD*%
%TO.P,J10,1,Pin_1*%
%TO.N,PE*%
X32000000Y-39500000D03*
%TO.P,J10,2,Pin_2*%
%TO.N,N*%
X32000000Y-36000000D03*
%TO.P,J10,3,Pin_3*%
%TO.N,230V*%
X32000000Y-32500000D03*
%TD*%
D14*
%TO.P,SP1,PE,PE*%
%TO.N,PE*%
X13000000Y45000000D03*
X13000000Y-45000000D03*
X37000000Y45000000D03*
X37000000Y-45000000D03*
%TD*%
D15*
%TO.P,H4,1,1*%
%TO.N,PE*%
X18775000Y45000000D03*
X19719581Y47280419D03*
X19719581Y42719581D03*
X22000000Y48225000D03*
D16*
X22000000Y45000000D03*
D15*
X22000000Y41775000D03*
X24280419Y47280419D03*
X24280419Y42719581D03*
X25225000Y45000000D03*
%TD*%
%TO.P,H3,1,1*%
%TO.N,PE*%
X18775000Y-45000000D03*
X19719581Y-42719581D03*
X19719581Y-47280419D03*
X22000000Y-41775000D03*
D16*
X22000000Y-45000000D03*
D15*
X22000000Y-48225000D03*
X24280419Y-42719581D03*
X24280419Y-47280419D03*
X25225000Y-45000000D03*
%TD*%
%TO.P,H2,1,1*%
%TO.N,PE*%
X-38225000Y45000000D03*
X-37280419Y47280419D03*
X-37280419Y42719581D03*
X-35000000Y48225000D03*
D16*
X-35000000Y45000000D03*
D15*
X-35000000Y41775000D03*
X-32719581Y47280419D03*
X-32719581Y42719581D03*
X-31775000Y45000000D03*
%TD*%
%TO.P,H1,1,1*%
%TO.N,PE*%
X-38225000Y-45000000D03*
X-37280419Y-42719581D03*
X-37280419Y-47280419D03*
X-35000000Y-41775000D03*
D16*
X-35000000Y-45000000D03*
D15*
X-35000000Y-48225000D03*
X-32719581Y-42719581D03*
X-32719581Y-47280419D03*
X-31775000Y-45000000D03*
%TD*%
D17*
%TO.P,C7,1*%
%TO.N,+5V(2)*%
X-25475000Y-27000000D03*
%TO.P,C7,2*%
%TO.N,GND_MCU*%
X-22525000Y-27000000D03*
%TD*%
D18*
%TO.P,JP3,1,A*%
%TO.N,+3V3-IB-front*%
X-24650000Y24500000D03*
D19*
%TO.P,JP3,2,B*%
%TO.N,+3V3*%
X-23350000Y24500000D03*
%TD*%
D20*
%TO.P,C5,1*%
%TO.N,+24V*%
X-26550000Y-34000000D03*
%TO.P,C5,2*%
%TO.N,GND_MCU*%
X-21450000Y-34000000D03*
%TD*%
D18*
%TO.P,JP1,1,A*%
%TO.N,+5V-IB-front*%
X-24650000Y27500000D03*
D19*
%TO.P,JP1,2,B*%
%TO.N,+5V*%
X-23350000Y27500000D03*
%TD*%
D21*
%TO.P,U1,1,V-*%
%TO.N,GND_MCU*%
X5799999Y11500006D03*
%TO.P,U1,2,V+*%
%TO.N,Net-(U1-V+)*%
X-2200000Y11500006D03*
%TO.P,U1,3,AC/L*%
%TO.N,Net-(U1-AC{slash}L)*%
X-15000000Y-33500006D03*
%TO.P,U1,4,AC/N*%
%TO.N,N*%
X5799999Y-33500006D03*
%TD*%
D20*
%TO.P,C3,1*%
%TO.N,+24V*%
X-26550000Y-20000000D03*
%TO.P,C3,2*%
%TO.N,GND_MCU*%
X-21450000Y-20000000D03*
%TD*%
D17*
%TO.P,C4,1*%
%TO.N,+5V*%
X-25475000Y1000000D03*
%TO.P,C4,2*%
%TO.N,GND_MCU*%
X-22525000Y1000000D03*
%TD*%
D22*
%TO.P,C1,1*%
%TO.N,PE*%
X21000000Y-31137500D03*
%TO.P,C1,2*%
%TO.N,GND_MCU*%
X21000000Y-26862500D03*
%TD*%
D23*
%TO.P,U4,1,1*%
%TO.N,230V*%
X2500000Y-43000000D03*
%TO.P,U4,2,2*%
%TO.N,Net-(U1-AC{slash}L)*%
X-12500000Y-43000000D03*
%TD*%
D24*
%TO.P,J11,1,Pin_1*%
%TO.N,GND_MCU*%
X16556000Y35499992D03*
%TO.P,J11,2,Pin_2*%
%TO.N,+24V*%
X16556000Y34499994D03*
%TO.P,J11,3,Pin_3*%
%TO.N,+5V*%
X16556000Y33499996D03*
%TO.P,J11,4,Pin_4*%
%TO.N,+3V3*%
X16556000Y32499998D03*
%TO.P,J11,5,Pin_5*%
%TO.N,unconnected-(J11-Pin_5-Pad5)*%
X16556000Y31500000D03*
%TO.P,J11,6,Pin_6*%
%TO.N,unconnected-(J11-Pin_6-Pad6)*%
X16556000Y30500000D03*
%TO.P,J11,7,Pin_7*%
%TO.N,unconnected-(J11-Pin_7-Pad7)*%
X16556000Y29500000D03*
%TO.P,J11,8,Pin_8*%
%TO.N,unconnected-(J11-Pin_8-Pad8)*%
X16556000Y28500000D03*
%TO.P,J11,9,Pin_9*%
%TO.N,unconnected-(J11-Pin_9-Pad9)*%
X16556000Y27500002D03*
%TO.P,J11,10,Pin_10*%
%TO.N,unconnected-(J11-Pin_10-Pad10)*%
X16556000Y26500004D03*
%TO.P,J11,11,Pin_11*%
%TO.N,unconnected-(J11-Pin_11-Pad11)*%
X16556000Y25500006D03*
%TO.P,J11,12,Pin_11*%
%TO.N,GND_MCU*%
X16556000Y24500008D03*
D25*
%TO.P,J11,13,Pin_11*%
X14385999Y37850003D03*
X14385999Y22149997D03*
%TD*%
D17*
%TO.P,C6,1*%
%TO.N,+3V3*%
X-25475000Y-13000000D03*
%TO.P,C6,2*%
%TO.N,GND_MCU*%
X-22525000Y-13000000D03*
%TD*%
D23*
%TO.P,U2,1,1*%
%TO.N,Net-(U1-V+)*%
X2500000Y21000000D03*
%TO.P,U2,2,2*%
%TO.N,+24V*%
X-12500000Y21000000D03*
%TD*%
D20*
%TO.P,C2,1*%
%TO.N,+24V*%
X-26550000Y-6000000D03*
%TO.P,C2,2*%
%TO.N,GND_MCU*%
X-21450000Y-6000000D03*
%TD*%
D26*
%TO.N,+3V3*%
X-24000000Y20500000D03*
X-22500000Y20500000D03*
X-22500000Y19000000D03*
X-24000000Y19000000D03*
%TO.N,+5V*%
X-22000000Y26000000D03*
X-22000000Y27500000D03*
D27*
X28000000Y30500000D03*
D26*
X-20500000Y26000000D03*
X-20500000Y27500000D03*
D27*
%TO.N,+24V*%
X26000000Y34499996D03*
%TO.N,+3V3*%
X25000000Y20500000D03*
%TO.N,GND_MCU*%
X15000000Y11000000D03*
X-22000000Y-38000000D03*
X-22000000Y-40000000D03*
X13000000Y11000000D03*
X-20000000Y-38000000D03*
X15000000Y13000000D03*
X14000000Y12000000D03*
X-20000000Y-40000000D03*
X-21000000Y-39000000D03*
X13000000Y13000000D03*
%TO.N,/CS0_IB*%
X-35000000Y19500000D03*
%TO.N,/MOSI_IB*%
X-35000000Y22500000D03*
%TO.N,/SCK_IB*%
X-35000000Y20500000D03*
%TO.N,/CS1_IB*%
X-35000000Y18500000D03*
%TO.N,/MISO_IB*%
X-35000000Y21500000D03*
%TO.N,/CS3_IB*%
X-35000000Y16500000D03*
%TO.N,/CS2_IB*%
X-35000000Y17500000D03*
D26*
%TO.N,+5V(2)*%
X-26000000Y-25000000D03*
X28000000Y13000000D03*
D27*
%TO.N,Net-(JM1-Pin_5)*%
X-35000000Y14500000D03*
%TO.N,/RST_IB*%
X-35000000Y15500000D03*
%TO.N,/SCL_IB*%
X-35000000Y12500000D03*
%TO.N,/SDA_IB*%
X-35000000Y13500000D03*
%TD*%
D28*
%TO.N,+3V3*%
X25000000Y20500000D02*
X25000000Y31999996D01*
X25000000Y31999996D02*
X24499998Y32499998D01*
X24499998Y32499998D02*
X16556000Y32499998D01*
%TO.N,+5V*%
X16556000Y33499996D02*
X25000000Y33499996D01*
X27999996Y30500000D02*
X28000000Y30500000D01*
X25000000Y33499996D02*
X27999996Y30500000D01*
%TO.N,+24V*%
X26000000Y34499996D02*
X25999998Y34499994D01*
X25999998Y34499994D02*
X16556000Y34499994D01*
D29*
%TO.N,+5V(2)*%
X-26000000Y-25000000D02*
X-26000000Y-25950000D01*
X-26000000Y-25950000D02*
X-25475000Y-26475000D01*
X-25475000Y-26475000D02*
X-25475000Y-27000000D01*
%TO.N,+3V3*%
X-23344000Y21156000D02*
X-23344000Y24500000D01*
%TO.N,Net-(U1-V+)*%
X2500000Y16200006D02*
X-2200000Y11500006D01*
X2500000Y21000000D02*
X2500000Y16200006D01*
%TO.N,+5V*%
X-20500000Y26000000D02*
X-20500000Y27500000D01*
X-36000000Y540000D02*
X-25935000Y540000D01*
X-25475000Y6025000D02*
X-20500000Y11000000D01*
X-20500000Y11000000D02*
X-20500000Y26000000D01*
X-25935000Y540000D02*
X-25475000Y1000000D01*
X-20500000Y26000000D02*
X-22000000Y26000000D01*
X-25475000Y1000000D02*
X-25475000Y6025000D01*
X-22000000Y27500000D02*
X-20500000Y27500000D01*
X-22000000Y27500000D02*
X-23344000Y27500000D01*
X-22000000Y27500000D02*
X-22000000Y26000000D01*
D30*
%TO.N,PE*%
X32000000Y0D02*
X37000000Y0D01*
D29*
%TO.N,N*%
X32000000Y-36000000D02*
X8000000Y-36000000D01*
X8000000Y-36000000D02*
X5799999Y-33799999D01*
%TO.N,+24V*%
X-26550000Y-20000000D02*
X-28010000Y-18540000D01*
X-26550000Y-6000000D02*
X-28010000Y-4540000D01*
X-28010000Y-4540000D02*
X-36000000Y-4540000D01*
X32000000Y-13188420D02*
X22000000Y-3188420D01*
X22000000Y-3188420D02*
X22000000Y6000000D01*
X-26550000Y-34000000D02*
X-28010000Y-32540000D01*
X-18000000Y2550000D02*
X-18000000Y-11450000D01*
X-28010000Y-32540000D02*
X-36000000Y-32540000D01*
X32000000Y-14000000D02*
X32000000Y-13188420D01*
X26000000Y10000000D02*
X22000000Y6000000D01*
X-12500000Y21000000D02*
X-12500000Y8050000D01*
X-12500000Y8050000D02*
X-18000000Y2550000D01*
X-26550000Y-34000000D02*
X-18000000Y-25450000D01*
X-26550000Y-6000000D02*
X-18000000Y2550000D01*
X-36301000Y-32841000D02*
X-36000000Y-32540000D01*
X-26550000Y-20000000D02*
X-18000000Y-11450000D01*
X22000000Y6000000D02*
X-10450000Y6000000D01*
X-10450000Y6000000D02*
X-12500000Y8050000D01*
X-28010000Y-18540000D02*
X-36000000Y-18540000D01*
X32000000Y25500000D02*
X26000000Y19500000D01*
X26000000Y19500000D02*
X26000000Y10000000D01*
X-18000000Y-11450000D02*
X-18000000Y-25450000D01*
%TO.N,+3V3*%
X-24000000Y19000000D02*
X-22500000Y19000000D01*
X-23344000Y21156000D02*
X-24000000Y20500000D01*
X-22500000Y20500000D02*
X-22500000Y19000000D01*
X-24000000Y19000000D02*
X-24000000Y20500000D01*
X-36000000Y-13460000D02*
X-25935000Y-13460000D01*
X-22500000Y20656000D02*
X-23344000Y21500000D01*
X-22500000Y20500000D02*
X-22500000Y20656000D01*
X-23344000Y21500000D02*
X-23344000Y21156000D01*
X-25935000Y-13460000D02*
X-25475000Y-13000000D01*
D28*
%TO.N,/CS0_IB*%
X-36546000Y19500000D02*
X-35000000Y19500000D01*
%TO.N,+3V3-IB-front*%
X-36546000Y24500000D02*
X-34500000Y24500000D01*
X-36546000Y25500000D02*
X-34500000Y25500000D01*
D29*
X-34000000Y25000000D02*
X-25150000Y25000000D01*
D28*
X-34500000Y25500000D02*
X-34000000Y25000000D01*
X-34500000Y24500000D02*
X-34000000Y25000000D01*
D29*
X-25150000Y25000000D02*
X-24656000Y24506000D01*
X-24656000Y24506000D02*
X-24656000Y24500000D01*
%TO.N,+5V-IB-front*%
X-24656000Y27494000D02*
X-24656000Y27500000D01*
X-34000000Y27000000D02*
X-25150000Y27000000D01*
D28*
X-36546000Y27500000D02*
X-34500000Y27500000D01*
X-34500000Y26500000D02*
X-34000000Y27000000D01*
X-34500000Y27500000D02*
X-34000000Y27000000D01*
D29*
X-25150000Y27000000D02*
X-24656000Y27494000D01*
D28*
X-36546000Y26500000D02*
X-34500000Y26500000D01*
%TO.N,/MOSI_IB*%
X-36546000Y22500000D02*
X-35000000Y22500000D01*
%TO.N,/SCK_IB*%
X-36546000Y20500000D02*
X-35000000Y20500000D01*
%TO.N,/CS1_IB*%
X-36546000Y18500000D02*
X-35000000Y18500000D01*
%TO.N,/MISO_IB*%
X-36546000Y21500000D02*
X-35000000Y21500000D01*
%TO.N,/CS3_IB*%
X-36546000Y16500000D02*
X-35000000Y16500000D01*
%TO.N,/CS2_IB*%
X-36546000Y17500000D02*
X-35000000Y17500000D01*
D29*
%TO.N,+5V(2)*%
X28000000Y14500000D02*
X32000000Y18500000D01*
X28000000Y13000000D02*
X28000000Y14500000D01*
X-25475000Y-27000000D02*
X-25935000Y-27460000D01*
X-25935000Y-27460000D02*
X-36000000Y-27460000D01*
D28*
%TO.N,Net-(JM1-Pin_5)*%
X-36546000Y14500000D02*
X-35000000Y14500000D01*
%TO.N,/RST_IB*%
X-36546000Y15500000D02*
X-35000000Y15500000D01*
%TO.N,/SCL_IB*%
X-36546000Y12500000D02*
X-35000000Y12500000D01*
%TO.N,/SDA_IB*%
X-36546000Y13500000D02*
X-35000000Y13500000D01*
%TD*%
%TA.AperFunction,Conductor*%
%TO.N,PE*%
G36*
X-34997392Y49499390D02*
G01*
X-34626351Y49483742D01*
X-34615970Y49482865D01*
X-34250158Y49436360D01*
X-34239861Y49434607D01*
X-33879278Y49357468D01*
X-33869191Y49354862D01*
X-33516349Y49247627D01*
X-33506516Y49244179D01*
X-33163985Y49107627D01*
X-33154469Y49103361D01*
X-32829071Y48940661D01*
X-32824645Y48938448D01*
X-32815503Y48933385D01*
X-32500744Y48741293D01*
X-32492083Y48735493D01*
X-32416647Y48680231D01*
X-32194614Y48517578D01*
X-32186452Y48511053D01*
X-31908394Y48268871D01*
X-31900814Y48261686D01*
X-31644125Y47996941D01*
X-31637190Y47989157D01*
X-31420879Y47724733D01*
X-31418975Y47722346D01*
X-31413733Y47715606D01*
X-31400500Y47692686D01*
X-31379833Y47672019D01*
X-31375094Y47665926D01*
X-31374946Y47665549D01*
X-31373774Y47664198D01*
X-31360865Y47646986D01*
X-31332663Y47624849D01*
X-31307314Y47599500D01*
X-31281061Y47584343D01*
X-31274126Y47578900D01*
X-31257207Y47565619D01*
X-31257204Y47565618D01*
X-31257202Y47565616D01*
X-31231072Y47554455D01*
X-31217803Y47547821D01*
X-31193186Y47533608D01*
X-31172410Y47528042D01*
X-31172409Y47528041D01*
X-31163894Y47525760D01*
X-31136011Y47513849D01*
X-31100524Y47508780D01*
X-31065892Y47499500D01*
X-31044382Y47499500D01*
X-31026847Y47498254D01*
X-31023805Y47497820D01*
X-31005552Y47495212D01*
X-30977347Y47498611D01*
X-30962516Y47499500D01*
X16107317Y47499500D01*
X16107318Y47499500D01*
X16277851Y47524020D01*
X16319764Y47530045D01*
X16319765Y47530046D01*
X16319769Y47530046D01*
X16525710Y47590516D01*
X16525713Y47590518D01*
X16525715Y47590518D01*
X16720938Y47679673D01*
X16720944Y47679677D01*
X16720950Y47679679D01*
X16901513Y47795719D01*
X17063724Y47936276D01*
X17204281Y48098487D01*
X17320321Y48279050D01*
X17320323Y48279056D01*
X17320327Y48279062D01*
X17409482Y48474285D01*
X17409482Y48474287D01*
X17409484Y48474290D01*
X17469954Y48680231D01*
X17500500Y48892682D01*
X17500500Y48993039D01*
X17501280Y49006923D01*
X17501280Y49006924D01*
X17511460Y49097271D01*
X17517635Y49124330D01*
X17545353Y49203544D01*
X17557396Y49228550D01*
X17602046Y49299611D01*
X17619351Y49321310D01*
X17678690Y49380649D01*
X17700389Y49397954D01*
X17771450Y49442604D01*
X17796456Y49454647D01*
X17875670Y49482365D01*
X17902733Y49488541D01*
X17965419Y49495604D01*
X17993079Y49498720D01*
X18006962Y49499500D01*
X18065892Y49499500D01*
X25934108Y49499500D01*
X25993038Y49499500D01*
X26006922Y49498720D01*
X26097266Y49488541D01*
X26124331Y49482364D01*
X26203540Y49454648D01*
X26228553Y49442602D01*
X26299606Y49397957D01*
X26321313Y49380645D01*
X26380644Y49321314D01*
X26397957Y49299605D01*
X26442600Y49228556D01*
X26454648Y49203538D01*
X26482362Y49124334D01*
X26488540Y49097265D01*
X26498720Y49006924D01*
X26499500Y48993039D01*
X26499500Y48892683D01*
X26530044Y48680236D01*
X26530047Y48680226D01*
X26590517Y48474285D01*
X26679672Y48279062D01*
X26679679Y48279049D01*
X26795720Y48098486D01*
X26936275Y47936276D01*
X27060277Y47828828D01*
X27098487Y47795719D01*
X27221070Y47716940D01*
X27279048Y47679680D01*
X27279061Y47679673D01*
X27474284Y47590518D01*
X27474288Y47590517D01*
X27474290Y47590516D01*
X27680231Y47530046D01*
X27680232Y47530046D01*
X27680235Y47530045D01*
X27743584Y47520938D01*
X27892682Y47499500D01*
X27934108Y47499500D01*
X36934108Y47499500D01*
X36996249Y47499500D01*
X37003736Y47499274D01*
X37020599Y47498254D01*
X37293796Y47481729D01*
X37308659Y47479924D01*
X37590798Y47428220D01*
X37605335Y47424637D01*
X37879172Y47339305D01*
X37893163Y47334000D01*
X38154743Y47216273D01*
X38167989Y47209320D01*
X38413465Y47060925D01*
X38425776Y47052427D01*
X38651573Y46875527D01*
X38662781Y46865597D01*
X38865596Y46662782D01*
X38875526Y46651574D01*
X38995481Y46498462D01*
X39052422Y46425783D01*
X39060928Y46413460D01*
X39209316Y46167996D01*
X39216275Y46154737D01*
X39333997Y45893169D01*
X39339306Y45879168D01*
X39424635Y45605337D01*
X39428219Y45590799D01*
X39479923Y45308660D01*
X39481728Y45293795D01*
X39499274Y45003737D01*
X39499500Y44996250D01*
X39499500Y-44996249D01*
X39499274Y-45003736D01*
X39481728Y-45293794D01*
X39479923Y-45308659D01*
X39428219Y-45590798D01*
X39424635Y-45605336D01*
X39339306Y-45879167D01*
X39333997Y-45893168D01*
X39216275Y-46154736D01*
X39209316Y-46167995D01*
X39060928Y-46413459D01*
X39052422Y-46425782D01*
X38875526Y-46651573D01*
X38865596Y-46662781D01*
X38662781Y-46865596D01*
X38651573Y-46875526D01*
X38425782Y-47052422D01*
X38413459Y-47060928D01*
X38167995Y-47209316D01*
X38154736Y-47216275D01*
X37893168Y-47333997D01*
X37879167Y-47339306D01*
X37605336Y-47424635D01*
X37590798Y-47428219D01*
X37308659Y-47479923D01*
X37293794Y-47481728D01*
X37003736Y-47499274D01*
X36996249Y-47499500D01*
X27892682Y-47499500D01*
X27680235Y-47530044D01*
X27680225Y-47530047D01*
X27474284Y-47590517D01*
X27279061Y-47679672D01*
X27279048Y-47679679D01*
X27098485Y-47795720D01*
X26936275Y-47936275D01*
X26795720Y-48098485D01*
X26679679Y-48279048D01*
X26679672Y-48279061D01*
X26590517Y-48474284D01*
X26530047Y-48680225D01*
X26530044Y-48680235D01*
X26499500Y-48892682D01*
X26499500Y-48993038D01*
X26498720Y-49006922D01*
X26498720Y-49006923D01*
X26488540Y-49097264D01*
X26482362Y-49124333D01*
X26454648Y-49203537D01*
X26442600Y-49228555D01*
X26397957Y-49299604D01*
X26380644Y-49321313D01*
X26321313Y-49380644D01*
X26299604Y-49397957D01*
X26228555Y-49442600D01*
X26203537Y-49454648D01*
X26124333Y-49482362D01*
X26097264Y-49488540D01*
X26017075Y-49497576D01*
X26006921Y-49498720D01*
X25993038Y-49499500D01*
X18006962Y-49499500D01*
X17993078Y-49498720D01*
X17980553Y-49497308D01*
X17902735Y-49488540D01*
X17875666Y-49482362D01*
X17796462Y-49454648D01*
X17771444Y-49442600D01*
X17700395Y-49397957D01*
X17678686Y-49380644D01*
X17619355Y-49321313D01*
X17602042Y-49299604D01*
X17569385Y-49247631D01*
X17557398Y-49228553D01*
X17545351Y-49203537D01*
X17517637Y-49124333D01*
X17511459Y-49097263D01*
X17501280Y-49006922D01*
X17500500Y-48993038D01*
X17500500Y-48892683D01*
X17500500Y-48892682D01*
X17469954Y-48680231D01*
X17409484Y-48474290D01*
X17409483Y-48474288D01*
X17409482Y-48474284D01*
X17320327Y-48279061D01*
X17320320Y-48279048D01*
X17249102Y-48168231D01*
X17204281Y-48098487D01*
X17124227Y-48006100D01*
X17063724Y-47936275D01*
X16901514Y-47795720D01*
X16901513Y-47795719D01*
X16791053Y-47724731D01*
X16720951Y-47679679D01*
X16720938Y-47679672D01*
X16525715Y-47590517D01*
X16319774Y-47530047D01*
X16319764Y-47530044D01*
X16128754Y-47502582D01*
X16107318Y-47499500D01*
X16107317Y-47499500D01*
X-30969960Y-47499500D01*
X-31005552Y-47495212D01*
X-31035568Y-47499500D01*
X-31065892Y-47499500D01*
X-31065896Y-47499500D01*
X-31093335Y-47506852D01*
X-31107882Y-47509829D01*
X-31136006Y-47513848D01*
X-31136009Y-47513848D01*
X-31136011Y-47513849D01*
X-31136013Y-47513849D01*
X-31136014Y-47513850D01*
X-31155803Y-47522302D01*
X-31163898Y-47525759D01*
X-31193186Y-47533608D01*
X-31224235Y-47551533D01*
X-31231082Y-47554458D01*
X-31231083Y-47554458D01*
X-31257198Y-47565613D01*
X-31257204Y-47565616D01*
X-31274122Y-47578897D01*
X-31288681Y-47588741D01*
X-31307313Y-47599498D01*
X-31307316Y-47599501D01*
X-31327407Y-47619590D01*
X-31338516Y-47629441D01*
X-31360864Y-47646983D01*
X-31360865Y-47646985D01*
X-31373778Y-47664202D01*
X-31375095Y-47665926D01*
X-31379834Y-47672018D01*
X-31400500Y-47692686D01*
X-31413733Y-47715605D01*
X-31418974Y-47722344D01*
X-31419481Y-47722709D01*
X-31420878Y-47724731D01*
X-31637190Y-47989156D01*
X-31644136Y-47996951D01*
X-31653005Y-48006100D01*
X-31900810Y-48261681D01*
X-31908394Y-48268870D01*
X-32186452Y-48511052D01*
X-32194614Y-48517577D01*
X-32492072Y-48735484D01*
X-32500755Y-48741299D01*
X-32815504Y-48933384D01*
X-32824645Y-48938447D01*
X-33154459Y-49103355D01*
X-33163995Y-49107630D01*
X-33506502Y-49244173D01*
X-33516364Y-49247631D01*
X-33869176Y-49354857D01*
X-33879293Y-49357471D01*
X-34239858Y-49434605D01*
X-34250160Y-49436359D01*
X-34615954Y-49482862D01*
X-34626367Y-49483742D01*
X-34997392Y-49499390D01*
X-35002617Y-49499500D01*
X-38993038Y-49499500D01*
X-39006922Y-49498720D01*
X-39019447Y-49497308D01*
X-39097265Y-49488540D01*
X-39124334Y-49482362D01*
X-39203538Y-49454648D01*
X-39228556Y-49442600D01*
X-39299605Y-49397957D01*
X-39321314Y-49380644D01*
X-39380645Y-49321313D01*
X-39397958Y-49299604D01*
X-39430615Y-49247631D01*
X-39442602Y-49228553D01*
X-39454649Y-49203537D01*
X-39482363Y-49124333D01*
X-39488541Y-49097263D01*
X-39498720Y-49006922D01*
X-39499500Y-48993038D01*
X-39499500Y-35124000D01*
X-39479815Y-35056961D01*
X-39427011Y-35011206D01*
X-39375500Y-35000000D01*
X-35124000Y-35000000D01*
X-35056961Y-35019685D01*
X-35011206Y-35072489D01*
X-35000000Y-35124000D01*
X-35000000Y-43000000D01*
X-16000000Y-43000000D01*
X-16000000Y-42890188D01*
X-14175500Y-42890188D01*
X-14175500Y-43109811D01*
X-14175499Y-43109828D01*
X-14146833Y-43327573D01*
X-14089986Y-43539729D01*
X-14005937Y-43742641D01*
X-14005935Y-43742645D01*
X-13896116Y-43932855D01*
X-13896111Y-43932861D01*
X-13896110Y-43932863D01*
X-13762412Y-44107102D01*
X-13762406Y-44107109D01*
X-13607110Y-44262405D01*
X-13607104Y-44262410D01*
X-13432855Y-44396116D01*
X-13242645Y-44505935D01*
X-13141186Y-44547960D01*
X-13039730Y-44589985D01*
X-13039729Y-44589985D01*
X-13039727Y-44589986D01*
X-12827575Y-44646832D01*
X-12609818Y-44675500D01*
X-12609811Y-44675500D01*
X-12390189Y-44675500D01*
X-12390182Y-44675500D01*
X-12172425Y-44646832D01*
X-11960273Y-44589986D01*
X-11757355Y-44505935D01*
X-11567145Y-44396116D01*
X-11392896Y-44262410D01*
X-11237590Y-44107104D01*
X-11103884Y-43932855D01*
X-10994065Y-43742645D01*
X-10910014Y-43539727D01*
X-10853168Y-43327575D01*
X-10824500Y-43109818D01*
X-10824500Y-42890182D01*
X-10825578Y-42881995D01*
X-6800500Y-42881995D01*
X-6800500Y-43118004D01*
X-6800499Y-43118020D01*
X-6769694Y-43352010D01*
X-6708606Y-43579993D01*
X-6618286Y-43798045D01*
X-6618281Y-43798056D01*
X-6547323Y-43920957D01*
X-6500273Y-44002450D01*
X-6500271Y-44002453D01*
X-6500270Y-44002454D01*
X-6356594Y-44189697D01*
X-6356588Y-44189704D01*
X-6189705Y-44356587D01*
X-6189698Y-44356593D01*
X-6138192Y-44396115D01*
X-6002450Y-44500273D01*
X-5871082Y-44576118D01*
X-5798057Y-44618280D01*
X-5798052Y-44618282D01*
X-5798049Y-44618284D01*
X-5579993Y-44708606D01*
X-5352014Y-44769693D01*
X-5118011Y-44800500D01*
X-5118004Y-44800500D01*
X-4881996Y-44800500D01*
X-4881989Y-44800500D01*
X-4647986Y-44769693D01*
X-4420007Y-44708606D01*
X-4201951Y-44618284D01*
X-3997550Y-44500273D01*
X-3810301Y-44356592D01*
X-3643408Y-44189699D01*
X-3499727Y-44002450D01*
X-3381716Y-43798049D01*
X-3291394Y-43579993D01*
X-3230307Y-43352014D01*
X-3199500Y-43118011D01*
X-3199500Y-42890188D01*
X824500Y-42890188D01*
X824500Y-43109811D01*
X824501Y-43109828D01*
X853167Y-43327573D01*
X910014Y-43539729D01*
X994063Y-43742641D01*
X994065Y-43742645D01*
X1103884Y-43932855D01*
X1103889Y-43932861D01*
X1103890Y-43932863D01*
X1237588Y-44107102D01*
X1237594Y-44107109D01*
X1392890Y-44262405D01*
X1392896Y-44262410D01*
X1567145Y-44396116D01*
X1757355Y-44505935D01*
X1858814Y-44547960D01*
X1960270Y-44589985D01*
X1960271Y-44589985D01*
X1960273Y-44589986D01*
X2172425Y-44646832D01*
X2390182Y-44675500D01*
X2390189Y-44675500D01*
X2609811Y-44675500D01*
X2609818Y-44675500D01*
X2827575Y-44646832D01*
X3039727Y-44589986D01*
X3242645Y-44505935D01*
X3432855Y-44396116D01*
X3607104Y-44262410D01*
X3762410Y-44107104D01*
X3896116Y-43932855D01*
X4005935Y-43742645D01*
X4089986Y-43539727D01*
X4146832Y-43327575D01*
X4175500Y-43109818D01*
X4175500Y-42890182D01*
X4146832Y-42672425D01*
X4089986Y-42460273D01*
X4005935Y-42257355D01*
X3896116Y-42067145D01*
X3762410Y-41892896D01*
X3762405Y-41892890D01*
X3607109Y-41737594D01*
X3607102Y-41737588D01*
X3432863Y-41603890D01*
X3432861Y-41603889D01*
X3432855Y-41603884D01*
X3242645Y-41494065D01*
X3242641Y-41494063D01*
X3039729Y-41410014D01*
X2827573Y-41353167D01*
X2609828Y-41324501D01*
X2609823Y-41324500D01*
X2609818Y-41324500D01*
X2390182Y-41324500D01*
X2390176Y-41324500D01*
X2390171Y-41324501D01*
X2172426Y-41353167D01*
X1960270Y-41410014D01*
X1757358Y-41494063D01*
X1757354Y-41494065D01*
X1567145Y-41603884D01*
X1567136Y-41603890D01*
X1392897Y-41737588D01*
X1392890Y-41737594D01*
X1237594Y-41892890D01*
X1237588Y-41892897D01*
X1103890Y-42067136D01*
X1103884Y-42067145D01*
X994065Y-42257354D01*
X994063Y-42257358D01*
X910014Y-42460270D01*
X853167Y-42672426D01*
X824501Y-42890171D01*
X824500Y-42890188D01*
X-3199500Y-42890188D01*
X-3199500Y-42881989D01*
X-3230307Y-42647986D01*
X-3291394Y-42420007D01*
X-3381716Y-42201951D01*
X-3381718Y-42201948D01*
X-3381720Y-42201943D01*
X-3423882Y-42128918D01*
X-3499727Y-41997550D01*
X-3643408Y-41810301D01*
X-3643413Y-41810295D01*
X-3810296Y-41643412D01*
X-3810303Y-41643406D01*
X-3997546Y-41499730D01*
X-3997547Y-41499729D01*
X-3997550Y-41499727D01*
X-4086082Y-41448613D01*
X-4201944Y-41381719D01*
X-4201955Y-41381714D01*
X-4420007Y-41291394D01*
X-4647990Y-41230306D01*
X-4881980Y-41199501D01*
X-4881983Y-41199500D01*
X-4881989Y-41199500D01*
X-5118011Y-41199500D01*
X-5118017Y-41199500D01*
X-5118021Y-41199501D01*
X-5352011Y-41230306D01*
X-5579994Y-41291394D01*
X-5798046Y-41381714D01*
X-5798057Y-41381719D01*
X-6002455Y-41499730D01*
X-6189698Y-41643406D01*
X-6189705Y-41643412D01*
X-6356588Y-41810295D01*
X-6356594Y-41810302D01*
X-6500270Y-41997545D01*
X-6618281Y-42201943D01*
X-6618286Y-42201954D01*
X-6708606Y-42420006D01*
X-6769694Y-42647989D01*
X-6800499Y-42881979D01*
X-6800500Y-42881995D01*
X-10825578Y-42881995D01*
X-10853168Y-42672425D01*
X-10910014Y-42460273D01*
X-10994065Y-42257355D01*
X-11103884Y-42067145D01*
X-11237590Y-41892896D01*
X-11237595Y-41892890D01*
X-11392891Y-41737594D01*
X-11392898Y-41737588D01*
X-11567137Y-41603890D01*
X-11567139Y-41603889D01*
X-11567145Y-41603884D01*
X-11757355Y-41494065D01*
X-11757359Y-41494063D01*
X-11960271Y-41410014D01*
X-12172427Y-41353167D01*
X-12390172Y-41324501D01*
X-12390177Y-41324500D01*
X-12390182Y-41324500D01*
X-12609818Y-41324500D01*
X-12609824Y-41324500D01*
X-12609829Y-41324501D01*
X-12827574Y-41353167D01*
X-13039730Y-41410014D01*
X-13242642Y-41494063D01*
X-13242646Y-41494065D01*
X-13432855Y-41603884D01*
X-13432864Y-41603890D01*
X-13607103Y-41737588D01*
X-13607110Y-41737594D01*
X-13762406Y-41892890D01*
X-13762412Y-41892897D01*
X-13896110Y-42067136D01*
X-13896116Y-42067145D01*
X-14005935Y-42257354D01*
X-14005937Y-42257358D01*
X-14089986Y-42460270D01*
X-14146833Y-42672426D01*
X-14175499Y-42890171D01*
X-14175500Y-42890188D01*
X-16000000Y-42890188D01*
X-16000000Y-39374071D01*
X30400000Y-39374071D01*
X30400000Y-39625928D01*
X30439397Y-39874669D01*
X30517219Y-40114184D01*
X30631557Y-40338583D01*
X30705748Y-40440697D01*
X30705748Y-40440698D01*
X31360690Y-39785756D01*
X31379668Y-39831574D01*
X31456274Y-39946224D01*
X31553776Y-40043726D01*
X31668426Y-40120332D01*
X31714242Y-40139309D01*
X31059300Y-40794250D01*
X31161416Y-40868442D01*
X31385815Y-40982780D01*
X31625330Y-41060602D01*
X31874072Y-41100000D01*
X32125928Y-41100000D01*
X32374669Y-41060602D01*
X32614184Y-40982780D01*
X32838575Y-40868446D01*
X32838581Y-40868442D01*
X32940697Y-40794250D01*
X32940698Y-40794250D01*
X32285757Y-40139309D01*
X32331574Y-40120332D01*
X32446224Y-40043726D01*
X32543726Y-39946224D01*
X32620332Y-39831574D01*
X32639309Y-39785757D01*
X33294250Y-40440698D01*
X33294250Y-40440697D01*
X33368442Y-40338581D01*
X33368446Y-40338575D01*
X33482780Y-40114184D01*
X33560602Y-39874669D01*
X33600000Y-39625928D01*
X33600000Y-39374071D01*
X33560602Y-39125330D01*
X33482780Y-38885815D01*
X33368442Y-38661416D01*
X33294250Y-38559301D01*
X33294250Y-38559300D01*
X32639309Y-39214241D01*
X32620332Y-39168426D01*
X32543726Y-39053776D01*
X32446224Y-38956274D01*
X32331574Y-38879668D01*
X32285755Y-38860689D01*
X32940698Y-38205748D01*
X32838583Y-38131557D01*
X32614184Y-38017219D01*
X32374669Y-37939397D01*
X32125928Y-37900000D01*
X31874072Y-37900000D01*
X31625330Y-37939397D01*
X31385815Y-38017219D01*
X31161413Y-38131559D01*
X31059301Y-38205747D01*
X31059300Y-38205748D01*
X31714242Y-38860690D01*
X31668426Y-38879668D01*
X31553776Y-38956274D01*
X31456274Y-39053776D01*
X31379668Y-39168426D01*
X31360690Y-39214242D01*
X30705748Y-38559300D01*
X30705747Y-38559301D01*
X30631559Y-38661413D01*
X30517219Y-38885815D01*
X30439397Y-39125330D01*
X30400000Y-39374071D01*
X-16000000Y-39374071D01*
X-16000000Y-34750041D01*
X-15980315Y-34683002D01*
X-15927511Y-34637247D01*
X-15858353Y-34627303D01*
X-15803114Y-34649724D01*
X-15734918Y-34699272D01*
X-15734916Y-34699273D01*
X-15734913Y-34699275D01*
X-15642432Y-34746396D01*
X-15538259Y-34799476D01*
X-15538256Y-34799477D01*
X-15433304Y-34833577D01*
X-15328349Y-34867679D01*
X-15110356Y-34902206D01*
X-15110355Y-34902206D01*
X-14889645Y-34902206D01*
X-14889644Y-34902206D01*
X-14671651Y-34867679D01*
X-14461742Y-34799476D01*
X-14265087Y-34699275D01*
X-14086528Y-34569544D01*
X-13930462Y-34413478D01*
X-13800731Y-34234919D01*
X-13700530Y-34038264D01*
X-13632327Y-33828355D01*
X-13597800Y-33610362D01*
X-13597800Y-33389650D01*
X4397799Y-33389650D01*
X4397799Y-33610361D01*
X4432326Y-33828356D01*
X4500527Y-34038261D01*
X4500528Y-34038264D01*
X4600730Y-34234919D01*
X4730461Y-34413478D01*
X4886527Y-34569544D01*
X5065086Y-34699275D01*
X5161539Y-34748420D01*
X5261740Y-34799476D01*
X5261746Y-34799478D01*
X5415353Y-34849387D01*
X5464716Y-34879636D01*
X7222860Y-36637781D01*
X7222861Y-36637782D01*
X7362218Y-36777139D01*
X7362219Y-36777140D01*
X7526079Y-36886628D01*
X7526092Y-36886635D01*
X7654833Y-36939961D01*
X7697744Y-36957735D01*
X7708164Y-36962051D01*
X7804812Y-36981275D01*
X7853135Y-36990887D01*
X7901458Y-37000500D01*
X7901459Y-37000500D01*
X7901460Y-37000500D01*
X8098540Y-37000500D01*
X30686038Y-37000500D01*
X30753077Y-37020185D01*
X30775349Y-37039623D01*
X30775762Y-37039211D01*
X30957345Y-37220794D01*
X30957350Y-37220798D01*
X31135117Y-37349952D01*
X31161155Y-37368870D01*
X31304184Y-37441747D01*
X31385616Y-37483239D01*
X31385618Y-37483239D01*
X31385621Y-37483241D01*
X31625215Y-37561090D01*
X31874038Y-37600500D01*
X31874039Y-37600500D01*
X32125961Y-37600500D01*
X32125962Y-37600500D01*
X32374785Y-37561090D01*
X32614379Y-37483241D01*
X32838845Y-37368870D01*
X33042656Y-37220793D01*
X33220793Y-37042656D01*
X33368870Y-36838845D01*
X33483241Y-36614379D01*
X33561090Y-36374785D01*
X33600500Y-36125962D01*
X33600500Y-35874038D01*
X33561090Y-35625215D01*
X33483241Y-35385621D01*
X33483239Y-35385618D01*
X33483239Y-35385616D01*
X33441747Y-35304184D01*
X33368870Y-35161155D01*
X33293169Y-35056961D01*
X33220798Y-34957350D01*
X33220794Y-34957345D01*
X33042654Y-34779205D01*
X33042649Y-34779201D01*
X32838848Y-34631132D01*
X32838847Y-34631131D01*
X32838845Y-34631130D01*
X32717970Y-34569541D01*
X32614383Y-34516760D01*
X32374785Y-34438910D01*
X32125962Y-34399500D01*
X31874038Y-34399500D01*
X31749626Y-34419205D01*
X31625214Y-34438910D01*
X31385616Y-34516760D01*
X31161151Y-34631132D01*
X30957350Y-34779201D01*
X30957345Y-34779205D01*
X30775762Y-34960789D01*
X30774687Y-34959714D01*
X30721820Y-34994225D01*
X30686038Y-34999500D01*
X8465783Y-34999500D01*
X8398744Y-34979815D01*
X8378102Y-34963181D01*
X7222684Y-33807763D01*
X7189199Y-33746440D01*
X7187892Y-33700689D01*
X7202199Y-33610362D01*
X7202199Y-33389650D01*
X7167672Y-33171657D01*
X7099469Y-32961748D01*
X7099469Y-32961747D01*
X6999267Y-32765092D01*
X6869537Y-32586534D01*
X6713471Y-32430468D01*
X6534912Y-32300737D01*
X6469318Y-32267315D01*
X6338257Y-32200535D01*
X6338254Y-32200534D01*
X6128349Y-32132333D01*
X6019351Y-32115069D01*
X5910355Y-32097806D01*
X5689643Y-32097806D01*
X5616978Y-32109315D01*
X5471648Y-32132333D01*
X5261743Y-32200534D01*
X5261740Y-32200535D01*
X5065085Y-32300737D01*
X4996885Y-32350288D01*
X4886527Y-32430468D01*
X4886525Y-32430470D01*
X4886524Y-32430470D01*
X4730463Y-32586531D01*
X4730463Y-32586532D01*
X4730461Y-32586534D01*
X4701816Y-32625961D01*
X4600730Y-32765092D01*
X4500528Y-32961747D01*
X4500527Y-32961750D01*
X4432326Y-33171655D01*
X4397799Y-33389650D01*
X-13597800Y-33389650D01*
X-13632327Y-33171657D01*
X-13700530Y-32961748D01*
X-13700530Y-32961747D01*
X-13800732Y-32765092D01*
X-13930462Y-32586534D01*
X-14086528Y-32430468D01*
X-14265087Y-32300737D01*
X-14330681Y-32267315D01*
X-14461742Y-32200535D01*
X-14461745Y-32200534D01*
X-14671650Y-32132333D01*
X-14780648Y-32115069D01*
X-14889644Y-32097806D01*
X-15110356Y-32097806D01*
X-15183021Y-32109315D01*
X-15328351Y-32132333D01*
X-15538256Y-32200534D01*
X-15538259Y-32200535D01*
X-15734917Y-32300739D01*
X-15803115Y-32350288D01*
X-15868921Y-32373768D01*
X-15936975Y-32357943D01*
X-15985670Y-32307837D01*
X-16000000Y-32249970D01*
X-16000000Y-31724986D01*
X18800001Y-31724986D01*
X18810494Y-31827697D01*
X18865641Y-31994119D01*
X18865643Y-31994124D01*
X18957684Y-32143345D01*
X19081654Y-32267315D01*
X19230875Y-32359356D01*
X19230880Y-32359358D01*
X19397302Y-32414505D01*
X19397309Y-32414506D01*
X19500019Y-32424999D01*
X20749999Y-32424999D01*
X21250000Y-32424999D01*
X22499972Y-32424999D01*
X22499986Y-32424998D01*
X22602697Y-32414505D01*
X22724818Y-32374038D01*
X30399500Y-32374038D01*
X30399500Y-32625961D01*
X30438910Y-32874785D01*
X30516760Y-33114383D01*
X30631132Y-33338848D01*
X30779201Y-33542649D01*
X30779205Y-33542654D01*
X30957345Y-33720794D01*
X30957350Y-33720798D01*
X31015558Y-33763088D01*
X31161155Y-33868870D01*
X31304184Y-33941747D01*
X31385616Y-33983239D01*
X31385618Y-33983239D01*
X31385621Y-33983241D01*
X31625215Y-34061090D01*
X31874038Y-34100500D01*
X31874039Y-34100500D01*
X32125961Y-34100500D01*
X32125962Y-34100500D01*
X32374785Y-34061090D01*
X32614379Y-33983241D01*
X32838845Y-33868870D01*
X33042656Y-33720793D01*
X33220793Y-33542656D01*
X33368870Y-33338845D01*
X33483241Y-33114379D01*
X33561090Y-32874785D01*
X33600500Y-32625962D01*
X33600500Y-32374038D01*
X33561090Y-32125215D01*
X33483241Y-31885621D01*
X33483239Y-31885618D01*
X33483239Y-31885616D01*
X33401393Y-31724986D01*
X33368870Y-31661155D01*
X33349952Y-31635117D01*
X33220798Y-31457350D01*
X33220794Y-31457345D01*
X33042654Y-31279205D01*
X33042649Y-31279201D01*
X32838848Y-31131132D01*
X32838847Y-31131131D01*
X32838845Y-31131130D01*
X32768747Y-31095413D01*
X32614383Y-31016760D01*
X32374785Y-30938910D01*
X32125962Y-30899500D01*
X31874038Y-30899500D01*
X31749626Y-30919205D01*
X31625214Y-30938910D01*
X31385616Y-31016760D01*
X31161151Y-31131132D01*
X30957350Y-31279201D01*
X30957345Y-31279205D01*
X30779205Y-31457345D01*
X30779201Y-31457350D01*
X30631132Y-31661151D01*
X30516760Y-31885616D01*
X30438910Y-32125214D01*
X30399500Y-32374038D01*
X22724818Y-32374038D01*
X22769119Y-32359358D01*
X22769124Y-32359356D01*
X22918344Y-32267316D01*
X23042315Y-32143345D01*
X23134356Y-31994124D01*
X23134358Y-31994119D01*
X23189505Y-31827697D01*
X23189506Y-31827690D01*
X23199999Y-31724986D01*
X23200000Y-31724973D01*
X23200000Y-31387500D01*
X21250000Y-31387500D01*
X21250000Y-32424999D01*
X20749999Y-32424999D01*
X20750000Y-32424998D01*
X20750000Y-31387500D01*
X18800001Y-31387500D01*
X18800001Y-31724986D01*
X-16000000Y-31724986D01*
X-16000000Y-30124000D01*
X-15980315Y-30056961D01*
X-15927511Y-30011206D01*
X-15876000Y-30000000D01*
X18816715Y-30000000D01*
X18883754Y-30019685D01*
X18929509Y-30072489D01*
X18939453Y-30141647D01*
X18922253Y-30189097D01*
X18865646Y-30280869D01*
X18865641Y-30280880D01*
X18810494Y-30447302D01*
X18810493Y-30447309D01*
X18800000Y-30550013D01*
X18800000Y-30887500D01*
X23199999Y-30887500D01*
X23199999Y-30550028D01*
X23199998Y-30550013D01*
X23189505Y-30447302D01*
X23134358Y-30280880D01*
X23134353Y-30280869D01*
X23077747Y-30189097D01*
X23059306Y-30121705D01*
X23080228Y-30055041D01*
X23133870Y-30010272D01*
X23183285Y-30000000D01*
X35000000Y-30000000D01*
X35000000Y41000000D01*
X-35000000Y41000000D01*
X-35000000Y35124000D01*
X-35019685Y35056961D01*
X-35072489Y35011206D01*
X-35124000Y35000000D01*
X-39375500Y35000000D01*
X-39442539Y35019685D01*
X-39488294Y35072489D01*
X-39499500Y35124000D01*
X-39499500Y48993039D01*
X-39498720Y49006923D01*
X-39498720Y49006924D01*
X-39488540Y49097271D01*
X-39482365Y49124330D01*
X-39454647Y49203544D01*
X-39442604Y49228550D01*
X-39397954Y49299611D01*
X-39380649Y49321310D01*
X-39321310Y49380649D01*
X-39299611Y49397954D01*
X-39228550Y49442604D01*
X-39203544Y49454647D01*
X-39124330Y49482365D01*
X-39097267Y49488541D01*
X-39034581Y49495604D01*
X-39006921Y49498720D01*
X-38993038Y49499500D01*
X-38934108Y49499500D01*
X-35065892Y49499500D01*
X-35002617Y49499500D01*
X-34997392Y49499390D01*
G37*
%TD.AperFunction*%
%TD*%
%TA.AperFunction,Conductor*%
%TO.N,GND_MCU*%
G36*
X-12456667Y6858742D02*
G01*
X-12412320Y6830241D01*
X-10960293Y5378214D01*
X-10960289Y5378211D01*
X-10829186Y5290610D01*
X-10829173Y5290603D01*
X-10683502Y5230265D01*
X-10683497Y5230263D01*
X-10528847Y5199501D01*
X-10528844Y5199500D01*
X-10528842Y5199500D01*
X-10371157Y5199500D01*
X21075500Y5199500D01*
X21142539Y5179815D01*
X21188294Y5127011D01*
X21199500Y5075500D01*
X21199500Y-3267266D01*
X21230261Y-3421909D01*
X21230264Y-3421921D01*
X21290602Y-3567592D01*
X21290609Y-3567605D01*
X21378210Y-3698708D01*
X21378213Y-3698712D01*
X30787597Y-13108095D01*
X30821082Y-13169418D01*
X30816098Y-13239110D01*
X30804116Y-13261453D01*
X30804728Y-13261829D01*
X30802184Y-13265979D01*
X30702104Y-13462393D01*
X30702103Y-13462396D01*
X30633985Y-13672047D01*
X30599500Y-13889778D01*
X30599500Y-14110221D01*
X30633985Y-14327952D01*
X30702103Y-14537603D01*
X30702104Y-14537606D01*
X30755322Y-14642050D01*
X30786935Y-14704093D01*
X30802187Y-14734025D01*
X30931752Y-14912358D01*
X30931756Y-14912363D01*
X31087636Y-15068243D01*
X31087641Y-15068247D01*
X31164568Y-15124137D01*
X31265978Y-15197815D01*
X31364343Y-15247935D01*
X31462393Y-15297895D01*
X31462396Y-15297896D01*
X31567221Y-15331955D01*
X31672049Y-15366015D01*
X31889778Y-15400500D01*
X31889779Y-15400500D01*
X32110221Y-15400500D01*
X32110222Y-15400500D01*
X32327951Y-15366015D01*
X32537606Y-15297895D01*
X32734022Y-15197815D01*
X32771231Y-15170780D01*
X32803115Y-15147617D01*
X32868921Y-15124137D01*
X32936975Y-15139963D01*
X32985670Y-15190069D01*
X33000000Y-15247935D01*
X33000000Y-27876000D01*
X32980315Y-27943039D01*
X32927511Y-27988794D01*
X32876000Y-28000000D01*
X-18000000Y-28000000D01*
X-18000000Y-40876000D01*
X-18019685Y-40943039D01*
X-18072489Y-40988794D01*
X-18124000Y-41000000D01*
X-32876000Y-41000000D01*
X-32943039Y-40980315D01*
X-32988794Y-40927511D01*
X-33000000Y-40876000D01*
X-33000000Y-33464500D01*
X-32980315Y-33397461D01*
X-32927511Y-33351706D01*
X-32876000Y-33340500D01*
X-28392940Y-33340500D01*
X-28325901Y-33360185D01*
X-28305259Y-33376819D01*
X-27786819Y-33895259D01*
X-27753334Y-33956582D01*
X-27750500Y-33982940D01*
X-27750500Y-36493102D01*
X-27748436Y-36510289D01*
X-27739878Y-36581561D01*
X-27684361Y-36722343D01*
X-27592923Y-36842922D01*
X-27472344Y-36934360D01*
X-27472343Y-36934360D01*
X-27472342Y-36934361D01*
X-27331564Y-36989877D01*
X-27243102Y-37000500D01*
X-27243097Y-37000500D01*
X-25856903Y-37000500D01*
X-25856898Y-37000500D01*
X-25768436Y-36989877D01*
X-25627658Y-36934361D01*
X-25507078Y-36842922D01*
X-25415639Y-36722342D01*
X-25360123Y-36581564D01*
X-25349500Y-36493102D01*
X-25349500Y-33982940D01*
X-25329815Y-33915901D01*
X-25313181Y-33895259D01*
X-17378214Y-25960292D01*
X-17378211Y-25960289D01*
X-17290606Y-25829179D01*
X-17230263Y-25683497D01*
X-17199500Y-25528842D01*
X-17199500Y-25371158D01*
X-17199500Y-11371158D01*
X-17199500Y2167060D01*
X-17179815Y2234099D01*
X-17163181Y2254741D01*
X-16246133Y3171789D01*
X-12587680Y6830243D01*
X-12526359Y6863726D01*
X-12456667Y6858742D01*
G37*
%TD.AperFunction*%
%TA.AperFunction,Conductor*%
G36*
X32943039Y38980315D02*
G01*
X32988794Y38927511D01*
X33000000Y38876000D01*
X33000000Y26747936D01*
X32980315Y26680897D01*
X32927511Y26635142D01*
X32858353Y26625198D01*
X32803116Y26647617D01*
X32734024Y26697814D01*
X32537606Y26797896D01*
X32537603Y26797897D01*
X32327952Y26866015D01*
X32219086Y26883258D01*
X32110222Y26900500D01*
X31889778Y26900500D01*
X31817201Y26889005D01*
X31672047Y26866015D01*
X31462396Y26797897D01*
X31462393Y26797896D01*
X31265974Y26697813D01*
X31087641Y26568248D01*
X31087636Y26568244D01*
X30931756Y26412364D01*
X30931752Y26412359D01*
X30802187Y26234026D01*
X30702104Y26037607D01*
X30702103Y26037604D01*
X30633985Y25827953D01*
X30599500Y25610222D01*
X30599500Y25389773D01*
X30611246Y25315613D01*
X30602292Y25246320D01*
X30576454Y25208534D01*
X25903763Y20535843D01*
X25842440Y20502358D01*
X25772748Y20507342D01*
X25716815Y20549214D01*
X25694465Y20599333D01*
X25673581Y20704321D01*
X25673581Y20704323D01*
X25673580Y20704328D01*
X25673578Y20704333D01*
X25620776Y20831810D01*
X25617905Y20837181D01*
X25619205Y20837877D01*
X25600520Y20897562D01*
X25600500Y20899770D01*
X25600500Y31750899D01*
X25620185Y31817938D01*
X25672989Y31863693D01*
X25742147Y31873637D01*
X25805703Y31844612D01*
X25812181Y31838580D01*
X27292702Y30358059D01*
X27323734Y30301229D01*
X27324650Y30301506D01*
X27325984Y30297107D01*
X27326187Y30296736D01*
X27326383Y30295792D01*
X27326420Y30295670D01*
X27379221Y30168196D01*
X27379228Y30168183D01*
X27455885Y30053459D01*
X27455888Y30053455D01*
X27553454Y29955889D01*
X27553458Y29955886D01*
X27668182Y29879229D01*
X27668195Y29879222D01*
X27795667Y29826422D01*
X27795672Y29826420D01*
X27795676Y29826420D01*
X27795677Y29826419D01*
X27931004Y29799500D01*
X27931007Y29799500D01*
X28068995Y29799500D01*
X28160041Y29817611D01*
X28204328Y29826420D01*
X28331811Y29879225D01*
X28446542Y29955886D01*
X28544114Y30053458D01*
X28620775Y30168189D01*
X28673580Y30295672D01*
X28700500Y30431007D01*
X28700500Y30568993D01*
X28700500Y30568996D01*
X28673581Y30704323D01*
X28673580Y30704324D01*
X28673580Y30704328D01*
X28673578Y30704333D01*
X28620778Y30831805D01*
X28620771Y30831818D01*
X28544114Y30946542D01*
X28544111Y30946546D01*
X28446545Y31044112D01*
X28446541Y31044115D01*
X28331817Y31120772D01*
X28331804Y31120779D01*
X28204330Y31173580D01*
X28198494Y31175350D01*
X28198921Y31176760D01*
X28143497Y31205761D01*
X28141931Y31207300D01*
X25744110Y33605121D01*
X25710625Y33666444D01*
X25715609Y33736136D01*
X25757481Y33792069D01*
X25822945Y33816486D01*
X25855983Y33814419D01*
X25931004Y33799496D01*
X25931007Y33799496D01*
X26068995Y33799496D01*
X26160041Y33817607D01*
X26204328Y33826416D01*
X26331811Y33879221D01*
X26446542Y33955882D01*
X26544114Y34053454D01*
X26620775Y34168185D01*
X26673580Y34295668D01*
X26700500Y34431003D01*
X26700500Y34568989D01*
X26700500Y34568992D01*
X26673581Y34704319D01*
X26673580Y34704320D01*
X26673580Y34704324D01*
X26673578Y34704329D01*
X26620778Y34831801D01*
X26620771Y34831814D01*
X26544114Y34946538D01*
X26544111Y34946542D01*
X26446545Y35044108D01*
X26446541Y35044111D01*
X26331817Y35120768D01*
X26331804Y35120775D01*
X26204332Y35173575D01*
X26204322Y35173578D01*
X26068995Y35200496D01*
X26068993Y35200496D01*
X25931007Y35200496D01*
X25931005Y35200496D01*
X25795677Y35173578D01*
X25795667Y35173575D01*
X25668190Y35120773D01*
X25662819Y35117901D01*
X25662124Y35119201D01*
X25602435Y35100514D01*
X25600227Y35100494D01*
X17586881Y35100494D01*
X17536795Y35111059D01*
X17527691Y35115079D01*
X17502565Y35117994D01*
X15609443Y35117994D01*
X15609417Y35117992D01*
X15584312Y35115081D01*
X15584308Y35115079D01*
X15481535Y35069701D01*
X15402094Y34990260D01*
X15356715Y34887488D01*
X15356715Y34887486D01*
X15353800Y34862363D01*
X15353800Y34137638D01*
X15353802Y34137612D01*
X15356713Y34112508D01*
X15356714Y34112504D01*
X15356715Y34112503D01*
X15384277Y34050081D01*
X15393348Y33980804D01*
X15384277Y33949911D01*
X15356715Y33887490D01*
X15356715Y33887488D01*
X15353800Y33862365D01*
X15353800Y33137640D01*
X15353802Y33137614D01*
X15356713Y33112510D01*
X15356714Y33112506D01*
X15356715Y33112505D01*
X15384277Y33050083D01*
X15393348Y32980806D01*
X15384277Y32949913D01*
X15356715Y32887492D01*
X15356715Y32887490D01*
X15353800Y32862367D01*
X15353800Y32137642D01*
X15353802Y32137616D01*
X15356713Y32112511D01*
X15356715Y32112507D01*
X15402093Y32009734D01*
X15426971Y31984856D01*
X15460456Y31923533D01*
X15460908Y31872986D01*
X15453800Y31837249D01*
X15453800Y31162748D01*
X15465431Y31104271D01*
X15489072Y31068890D01*
X15509949Y31002212D01*
X15491464Y30934832D01*
X15489072Y30931110D01*
X15465432Y30895730D01*
X15465431Y30895730D01*
X15453800Y30837253D01*
X15453800Y30162748D01*
X15465431Y30104271D01*
X15489072Y30068890D01*
X15509949Y30002212D01*
X15491464Y29934832D01*
X15489072Y29931110D01*
X15465432Y29895730D01*
X15465431Y29895730D01*
X15453800Y29837253D01*
X15453800Y29162748D01*
X15465431Y29104271D01*
X15489072Y29068890D01*
X15509949Y29002212D01*
X15491464Y28934832D01*
X15489072Y28931110D01*
X15465432Y28895730D01*
X15465431Y28895730D01*
X15453800Y28837253D01*
X15453800Y28162748D01*
X15465431Y28104271D01*
X15465432Y28104270D01*
X15489071Y28068892D01*
X15509949Y28002215D01*
X15491465Y27934834D01*
X15489071Y27931110D01*
X15465432Y27895733D01*
X15465431Y27895732D01*
X15453800Y27837255D01*
X15453800Y27162750D01*
X15465431Y27104273D01*
X15465432Y27104272D01*
X15489071Y27068894D01*
X15509949Y27002217D01*
X15491465Y26934836D01*
X15489071Y26931112D01*
X15465432Y26895735D01*
X15465431Y26895734D01*
X15453800Y26837257D01*
X15453800Y26162752D01*
X15465431Y26104275D01*
X15465432Y26104274D01*
X15489071Y26068896D01*
X15509949Y26002219D01*
X15491465Y25934838D01*
X15489071Y25931114D01*
X15465432Y25895737D01*
X15465431Y25895736D01*
X15453800Y25837259D01*
X15453800Y25162754D01*
X15465431Y25104277D01*
X15465432Y25104276D01*
X15509747Y25037954D01*
X15576069Y24993639D01*
X15576070Y24993638D01*
X15634547Y24982007D01*
X15634550Y24982006D01*
X15634552Y24982006D01*
X17477450Y24982006D01*
X17477451Y24982007D01*
X17492268Y24984954D01*
X17535929Y24993638D01*
X17535929Y24993639D01*
X17535931Y24993639D01*
X17602252Y25037954D01*
X17646567Y25104275D01*
X17646567Y25104277D01*
X17646568Y25104277D01*
X17658199Y25162754D01*
X17658200Y25162756D01*
X17658200Y25837257D01*
X17658199Y25837259D01*
X17646568Y25895735D01*
X17635792Y25911862D01*
X17622928Y25931115D01*
X17602050Y25997790D01*
X17620533Y26065170D01*
X17622928Y26068896D01*
X17646567Y26104273D01*
X17650048Y26121770D01*
X17658199Y26162752D01*
X17658200Y26162754D01*
X17658200Y26837255D01*
X17658199Y26837257D01*
X17646568Y26895733D01*
X17622930Y26931109D01*
X17622928Y26931113D01*
X17602050Y26997788D01*
X17620533Y27065168D01*
X17622928Y27068894D01*
X17646567Y27104271D01*
X17658200Y27162754D01*
X17658200Y27837250D01*
X17658200Y27837253D01*
X17658199Y27837255D01*
X17646568Y27895731D01*
X17643383Y27900498D01*
X17622928Y27931111D01*
X17602050Y27997786D01*
X17620533Y28065166D01*
X17622928Y28068892D01*
X17646567Y28104269D01*
X17658200Y28162752D01*
X17658200Y28837248D01*
X17658200Y28837251D01*
X17658199Y28837253D01*
X17646568Y28895730D01*
X17646567Y28895731D01*
X17622928Y28931109D01*
X17602050Y28997786D01*
X17620534Y29065166D01*
X17622928Y29068891D01*
X17628588Y29077363D01*
X17646567Y29104269D01*
X17646567Y29104271D01*
X17646568Y29104271D01*
X17658199Y29162748D01*
X17658200Y29162750D01*
X17658200Y29837251D01*
X17658199Y29837253D01*
X17646568Y29895730D01*
X17646567Y29895731D01*
X17622928Y29931109D01*
X17602050Y29997786D01*
X17620534Y30065166D01*
X17622928Y30068891D01*
X17628588Y30077363D01*
X17646567Y30104269D01*
X17646567Y30104271D01*
X17646568Y30104271D01*
X17658199Y30162748D01*
X17658200Y30162750D01*
X17658200Y30837251D01*
X17658199Y30837253D01*
X17646568Y30895730D01*
X17646567Y30895731D01*
X17622928Y30931109D01*
X17602050Y30997786D01*
X17620534Y31065166D01*
X17622928Y31068891D01*
X17628588Y31077363D01*
X17646567Y31104269D01*
X17646567Y31104271D01*
X17646568Y31104271D01*
X17658199Y31162748D01*
X17658200Y31162750D01*
X17658200Y31775498D01*
X17677885Y31842537D01*
X17730689Y31888292D01*
X17782200Y31899498D01*
X24199901Y31899498D01*
X24229341Y31890854D01*
X24259328Y31884330D01*
X24264343Y31880576D01*
X24266940Y31879813D01*
X24287582Y31863179D01*
X24363181Y31787580D01*
X24396666Y31726257D01*
X24399500Y31699899D01*
X24399500Y20899770D01*
X24381253Y20837631D01*
X24382095Y20837181D01*
X24379935Y20833141D01*
X24379815Y20832731D01*
X24379278Y20831913D01*
X24379223Y20831810D01*
X24326421Y20704333D01*
X24326418Y20704323D01*
X24299500Y20568996D01*
X24299500Y20568993D01*
X24299500Y20431007D01*
X24299500Y20431005D01*
X24299499Y20431005D01*
X24326418Y20295678D01*
X24326421Y20295668D01*
X24379221Y20168196D01*
X24379228Y20168183D01*
X24455885Y20053459D01*
X24455888Y20053455D01*
X24553454Y19955889D01*
X24553458Y19955886D01*
X24668182Y19879229D01*
X24668195Y19879222D01*
X24795667Y19826422D01*
X24795672Y19826420D01*
X24795676Y19826420D01*
X24795677Y19826419D01*
X24931004Y19799500D01*
X24931007Y19799500D01*
X25068995Y19799500D01*
X25075058Y19800097D01*
X25075183Y19798821D01*
X25138145Y19793190D01*
X25193325Y19750331D01*
X25216575Y19684443D01*
X25214371Y19653607D01*
X25199500Y19578842D01*
X25199500Y10382940D01*
X25179815Y10315901D01*
X25163181Y10295259D01*
X21704741Y6836819D01*
X21643418Y6803334D01*
X21617060Y6800500D01*
X-10067060Y6800500D01*
X-10134099Y6820185D01*
X-10154741Y6836819D01*
X-11663181Y8345259D01*
X-11696666Y8406582D01*
X-11699500Y8432940D01*
X-11699500Y11586751D01*
X-3302200Y11586751D01*
X-3302200Y11413261D01*
X-3289263Y11331578D01*
X-3275060Y11241906D01*
X-3221451Y11076911D01*
X-3221450Y11076908D01*
X-3142686Y10922327D01*
X-3040711Y10781971D01*
X-2918035Y10659295D01*
X-2777679Y10557320D01*
X-2701862Y10518690D01*
X-2623099Y10478557D01*
X-2623096Y10478556D01*
X-2540599Y10451752D01*
X-2458099Y10424946D01*
X-2286745Y10397806D01*
X-2286744Y10397806D01*
X-2113256Y10397806D01*
X-2113255Y10397806D01*
X-1941901Y10424946D01*
X-1776902Y10478557D01*
X-1622321Y10557320D01*
X-1481965Y10659295D01*
X-1359289Y10781971D01*
X-1257314Y10922327D01*
X-1178551Y11076908D01*
X-1124940Y11241907D01*
X-1097800Y11413261D01*
X-1097800Y11560188D01*
X-1078115Y11627227D01*
X-1061481Y11647869D01*
X3044111Y15753460D01*
X3044112Y15753461D01*
X3044112Y15753462D01*
X3044114Y15753463D01*
X3120775Y15868195D01*
X3120989Y15868710D01*
X3167301Y15980520D01*
X3173580Y15995678D01*
X3188014Y16068242D01*
X3200500Y16131010D01*
X3200500Y19745551D01*
X3220185Y19812590D01*
X3251611Y19845867D01*
X3396078Y19950828D01*
X3549172Y20103922D01*
X3676433Y20279081D01*
X3774726Y20471991D01*
X3841630Y20677903D01*
X3875500Y20891746D01*
X3875500Y21108254D01*
X3841630Y21322097D01*
X3796044Y21462397D01*
X3774727Y21528007D01*
X3774726Y21528010D01*
X3701334Y21672048D01*
X3676433Y21720919D01*
X3549172Y21896078D01*
X3396078Y22049172D01*
X3220919Y22176433D01*
X3194883Y22189699D01*
X3028009Y22274727D01*
X3028006Y22274728D01*
X2822098Y22341630D01*
X2715175Y22358565D01*
X2608254Y22375500D01*
X2391746Y22375500D01*
X2340606Y22367400D01*
X2177901Y22341630D01*
X1971993Y22274728D01*
X1971990Y22274727D01*
X1779080Y22176433D01*
X1703844Y22121770D01*
X1603922Y22049172D01*
X1603920Y22049170D01*
X1603919Y22049170D01*
X1450830Y21896081D01*
X1450830Y21896080D01*
X1450828Y21896078D01*
X1403966Y21831578D01*
X1323567Y21720920D01*
X1225273Y21528010D01*
X1225272Y21528007D01*
X1158370Y21322099D01*
X1124500Y21108254D01*
X1124500Y20891746D01*
X1126641Y20878231D01*
X1158370Y20677902D01*
X1225272Y20471994D01*
X1225273Y20471991D01*
X1251284Y20420943D01*
X1323567Y20279081D01*
X1450828Y20103922D01*
X1603922Y19950828D01*
X1748387Y19845868D01*
X1791051Y19790539D01*
X1799500Y19745551D01*
X1799500Y16541526D01*
X1779815Y16474487D01*
X1763181Y16453845D01*
X-2052139Y12638525D01*
X-2113462Y12605040D01*
X-2139820Y12602206D01*
X-2286745Y12602206D01*
X-2308148Y12598816D01*
X-2458101Y12575066D01*
X-2623096Y12521457D01*
X-2623099Y12521456D01*
X-2777680Y12442692D01*
X-2807614Y12420943D01*
X-2918035Y12340717D01*
X-2918037Y12340715D01*
X-2918038Y12340715D01*
X-3040709Y12218044D01*
X-3040709Y12218043D01*
X-3040711Y12218041D01*
X-3068166Y12180252D01*
X-3142686Y12077686D01*
X-3221450Y11923105D01*
X-3221451Y11923102D01*
X-3275060Y11758107D01*
X-3275060Y11758105D01*
X-3302200Y11586751D01*
X-11699500Y11586751D01*
X-11699500Y19694598D01*
X-11679815Y19761637D01*
X-11648384Y19794917D01*
X-11644283Y19797896D01*
X-11550525Y19866015D01*
X-11538780Y19874548D01*
X-11538780Y19874549D01*
X-11538776Y19874551D01*
X-11374551Y20038776D01*
X-11238039Y20226669D01*
X-11132600Y20433604D01*
X-11060831Y20654486D01*
X-11036211Y20809931D01*
X-11024500Y20883871D01*
X-11024500Y21116128D01*
X-11024501Y21116132D01*
X-11024798Y21118005D01*
X-6800500Y21118005D01*
X-6800500Y20881996D01*
X-6800499Y20881980D01*
X-6769694Y20647990D01*
X-6708606Y20420007D01*
X-6618286Y20201955D01*
X-6618281Y20201944D01*
X-6561686Y20103920D01*
X-6500273Y19997550D01*
X-6500271Y19997547D01*
X-6500270Y19997546D01*
X-6356594Y19810303D01*
X-6356588Y19810296D01*
X-6189705Y19643413D01*
X-6189699Y19643408D01*
X-6002450Y19499727D01*
X-5871082Y19423882D01*
X-5798057Y19381720D01*
X-5798052Y19381718D01*
X-5798049Y19381716D01*
X-5579993Y19291394D01*
X-5352014Y19230307D01*
X-5118011Y19199500D01*
X-5118004Y19199500D01*
X-4881996Y19199500D01*
X-4881989Y19199500D01*
X-4647986Y19230307D01*
X-4420007Y19291394D01*
X-4201951Y19381716D01*
X-3997550Y19499727D01*
X-3810301Y19643408D01*
X-3643408Y19810301D01*
X-3499727Y19997550D01*
X-3381716Y20201951D01*
X-3291394Y20420007D01*
X-3230307Y20647986D01*
X-3199500Y20881989D01*
X-3199500Y21118011D01*
X-3230307Y21352014D01*
X-3291394Y21579993D01*
X-3381716Y21798049D01*
X-3381718Y21798052D01*
X-3381720Y21798057D01*
X-3434676Y21889778D01*
X-3499727Y22002450D01*
X-3582423Y22110222D01*
X-3643407Y22189698D01*
X-3643413Y22189705D01*
X-3810296Y22356588D01*
X-3810303Y22356594D01*
X-3997546Y22500270D01*
X-3997547Y22500271D01*
X-3997550Y22500273D01*
X-4134004Y22579055D01*
X-4201944Y22618281D01*
X-4201955Y22618286D01*
X-4420007Y22708606D01*
X-4506534Y22731791D01*
X-4647986Y22769693D01*
X-4647987Y22769694D01*
X-4647990Y22769694D01*
X-4881980Y22800499D01*
X-4881983Y22800500D01*
X-4881989Y22800500D01*
X-5118011Y22800500D01*
X-5118017Y22800500D01*
X-5118021Y22800499D01*
X-5352011Y22769694D01*
X-5579994Y22708606D01*
X-5798046Y22618286D01*
X-5798057Y22618281D01*
X-6002455Y22500270D01*
X-6189698Y22356594D01*
X-6189705Y22356588D01*
X-6356588Y22189705D01*
X-6356594Y22189698D01*
X-6500270Y22002455D01*
X-6500273Y22002451D01*
X-6500273Y22002450D01*
X-6507986Y21989091D01*
X-6618281Y21798057D01*
X-6618286Y21798046D01*
X-6708606Y21579994D01*
X-6769694Y21352011D01*
X-6800499Y21118021D01*
X-6800500Y21118005D01*
X-11024798Y21118005D01*
X-11048588Y21268210D01*
X-11060831Y21345514D01*
X-11132600Y21566396D01*
X-11132602Y21566399D01*
X-11132602Y21566401D01*
X-11188224Y21675564D01*
X-11238039Y21773331D01*
X-11374551Y21961224D01*
X-11538776Y22125449D01*
X-11726669Y22261961D01*
X-11738947Y22268217D01*
X-11933600Y22367399D01*
X-12154486Y22439169D01*
X-12383871Y22475500D01*
X-12383876Y22475500D01*
X-12616124Y22475500D01*
X-12616129Y22475500D01*
X-12845515Y22439169D01*
X-13066401Y22367399D01*
X-13273332Y22261961D01*
X-13461227Y22125447D01*
X-13625447Y21961227D01*
X-13761961Y21773332D01*
X-13867399Y21566401D01*
X-13939169Y21345515D01*
X-13975500Y21116130D01*
X-13975500Y20883871D01*
X-13939169Y20654486D01*
X-13867399Y20433600D01*
X-13783127Y20268210D01*
X-13761961Y20226669D01*
X-13625449Y20038776D01*
X-13625447Y20038774D01*
X-13461221Y19874548D01*
X-13385794Y19819748D01*
X-13355717Y19797896D01*
X-13351616Y19794917D01*
X-13308949Y19739587D01*
X-13300500Y19694598D01*
X-13300500Y8432940D01*
X-13320185Y8365901D01*
X-13336819Y8345259D01*
X-18510289Y3171789D01*
X-25153350Y-3471271D01*
X-25214673Y-3504756D01*
X-25284365Y-3499772D01*
X-25340298Y-3457900D01*
X-25355851Y-3425297D01*
X-25357207Y-3425832D01*
X-25360123Y-3418438D01*
X-25360123Y-3418436D01*
X-25415639Y-3277658D01*
X-25415640Y-3277657D01*
X-25415640Y-3277656D01*
X-25507078Y-3157077D01*
X-25627657Y-3065639D01*
X-25768439Y-3010122D01*
X-25814074Y-3004642D01*
X-25856898Y-2999500D01*
X-27243102Y-2999500D01*
X-27282147Y-3004188D01*
X-27331562Y-3010122D01*
X-27472344Y-3065639D01*
X-27592923Y-3157077D01*
X-27684361Y-3277656D01*
X-27739878Y-3418438D01*
X-27743559Y-3449095D01*
X-27750500Y-3506898D01*
X-27750500Y-3506903D01*
X-27750500Y-3624340D01*
X-27770185Y-3691379D01*
X-27822989Y-3737134D01*
X-27892147Y-3747078D01*
X-27898690Y-3745958D01*
X-27931158Y-3739500D01*
X-34945309Y-3739500D01*
X-35012348Y-3719815D01*
X-35032990Y-3703181D01*
X-35169066Y-3567105D01*
X-35169068Y-3567103D01*
X-35331492Y-3449095D01*
X-35378198Y-3425297D01*
X-35510374Y-3357949D01*
X-35701320Y-3295907D01*
X-35816540Y-3277658D01*
X-35899616Y-3264500D01*
X-36100384Y-3264500D01*
X-36183448Y-3277656D01*
X-36298681Y-3295907D01*
X-36489627Y-3357949D01*
X-36668509Y-3449095D01*
X-36699031Y-3471271D01*
X-36830932Y-3567103D01*
X-36830934Y-3567105D01*
X-36830935Y-3567105D01*
X-36972895Y-3709065D01*
X-36972895Y-3709066D01*
X-36972897Y-3709068D01*
X-36980705Y-3719815D01*
X-37090905Y-3871491D01*
X-37182051Y-4050373D01*
X-37244093Y-4241319D01*
X-37275500Y-4439616D01*
X-37275500Y-4640383D01*
X-37244093Y-4838680D01*
X-37182051Y-5029626D01*
X-37090905Y-5208508D01*
X-36972897Y-5370932D01*
X-36830932Y-5512897D01*
X-36668508Y-5630905D01*
X-36583993Y-5673967D01*
X-36489627Y-5722050D01*
X-36489625Y-5722050D01*
X-36489622Y-5722052D01*
X-36298680Y-5784093D01*
X-36100384Y-5815500D01*
X-36100383Y-5815500D01*
X-35899617Y-5815500D01*
X-35899616Y-5815500D01*
X-35701320Y-5784093D01*
X-35510378Y-5722052D01*
X-35331492Y-5630905D01*
X-35169068Y-5512897D01*
X-35032990Y-5376819D01*
X-34971667Y-5343334D01*
X-34945309Y-5340500D01*
X-28392940Y-5340500D01*
X-28325901Y-5360185D01*
X-28305259Y-5376819D01*
X-27786819Y-5895259D01*
X-27753334Y-5956582D01*
X-27750500Y-5982940D01*
X-27750500Y-8493102D01*
X-27744874Y-8539954D01*
X-27739878Y-8581561D01*
X-27684361Y-8722343D01*
X-27592923Y-8842922D01*
X-27472344Y-8934360D01*
X-27472343Y-8934360D01*
X-27472342Y-8934361D01*
X-27331564Y-8989877D01*
X-27243102Y-9000500D01*
X-27243097Y-9000500D01*
X-25856903Y-9000500D01*
X-25856898Y-9000500D01*
X-25768436Y-8989877D01*
X-25627658Y-8934361D01*
X-25507078Y-8842922D01*
X-25415639Y-8722342D01*
X-25360123Y-8581564D01*
X-25349500Y-8493102D01*
X-25349500Y-5982940D01*
X-25329815Y-5915901D01*
X-25313181Y-5895259D01*
X-19012181Y405741D01*
X-18950858Y439226D01*
X-18881166Y434242D01*
X-18825233Y392370D01*
X-18800816Y326906D01*
X-18800500Y318060D01*
X-18800500Y-11067060D01*
X-18820185Y-11134099D01*
X-18836819Y-11154741D01*
X-25153350Y-17471271D01*
X-25214673Y-17504756D01*
X-25284365Y-17499772D01*
X-25340298Y-17457900D01*
X-25355851Y-17425297D01*
X-25357207Y-17425832D01*
X-25360123Y-17418438D01*
X-25360123Y-17418436D01*
X-25415639Y-17277658D01*
X-25415640Y-17277657D01*
X-25415640Y-17277656D01*
X-25507078Y-17157077D01*
X-25627657Y-17065639D01*
X-25768439Y-17010122D01*
X-25814074Y-17004642D01*
X-25856898Y-16999500D01*
X-27243102Y-16999500D01*
X-27282147Y-17004188D01*
X-27331562Y-17010122D01*
X-27472344Y-17065639D01*
X-27592923Y-17157077D01*
X-27684361Y-17277656D01*
X-27739878Y-17418438D01*
X-27743559Y-17449095D01*
X-27750500Y-17506898D01*
X-27750500Y-17506903D01*
X-27750500Y-17624340D01*
X-27770185Y-17691379D01*
X-27822989Y-17737134D01*
X-27892147Y-17747078D01*
X-27898690Y-17745958D01*
X-27931158Y-17739500D01*
X-34945309Y-17739500D01*
X-35012348Y-17719815D01*
X-35032990Y-17703181D01*
X-35169066Y-17567105D01*
X-35169068Y-17567103D01*
X-35331492Y-17449095D01*
X-35378198Y-17425297D01*
X-35510374Y-17357949D01*
X-35701320Y-17295907D01*
X-35816540Y-17277658D01*
X-35899616Y-17264500D01*
X-36100384Y-17264500D01*
X-36183448Y-17277656D01*
X-36298681Y-17295907D01*
X-36489627Y-17357949D01*
X-36668509Y-17449095D01*
X-36699031Y-17471271D01*
X-36830932Y-17567103D01*
X-36830934Y-17567105D01*
X-36830935Y-17567105D01*
X-36972895Y-17709065D01*
X-36972895Y-17709066D01*
X-36972897Y-17709068D01*
X-36980705Y-17719815D01*
X-37090905Y-17871491D01*
X-37182051Y-18050373D01*
X-37244093Y-18241319D01*
X-37275500Y-18439616D01*
X-37275500Y-18640383D01*
X-37244093Y-18838680D01*
X-37182051Y-19029626D01*
X-37090905Y-19208508D01*
X-36972897Y-19370932D01*
X-36830932Y-19512897D01*
X-36668508Y-19630905D01*
X-36583993Y-19673967D01*
X-36489627Y-19722050D01*
X-36489625Y-19722050D01*
X-36489622Y-19722052D01*
X-36298680Y-19784093D01*
X-36100384Y-19815500D01*
X-36100383Y-19815500D01*
X-35899617Y-19815500D01*
X-35899616Y-19815500D01*
X-35701320Y-19784093D01*
X-35510378Y-19722052D01*
X-35331492Y-19630905D01*
X-35169068Y-19512897D01*
X-35032990Y-19376819D01*
X-34971667Y-19343334D01*
X-34945309Y-19340500D01*
X-28392940Y-19340500D01*
X-28325901Y-19360185D01*
X-28305259Y-19376819D01*
X-27786819Y-19895259D01*
X-27753334Y-19956582D01*
X-27750500Y-19982940D01*
X-27750500Y-22493102D01*
X-27744874Y-22539954D01*
X-27739878Y-22581561D01*
X-27684361Y-22722343D01*
X-27592923Y-22842922D01*
X-27472344Y-22934360D01*
X-27472343Y-22934360D01*
X-27472342Y-22934361D01*
X-27331564Y-22989877D01*
X-27243102Y-23000500D01*
X-27243097Y-23000500D01*
X-25856903Y-23000500D01*
X-25856898Y-23000500D01*
X-25768436Y-22989877D01*
X-25627658Y-22934361D01*
X-25507078Y-22842922D01*
X-25415639Y-22722342D01*
X-25360123Y-22581564D01*
X-25349500Y-22493102D01*
X-25349500Y-19982940D01*
X-25329815Y-19915901D01*
X-25313181Y-19895259D01*
X-19012181Y-13594259D01*
X-18950858Y-13560774D01*
X-18881166Y-13565758D01*
X-18825233Y-13607630D01*
X-18800816Y-13673094D01*
X-18800500Y-13681940D01*
X-18800500Y-25067060D01*
X-18820185Y-25134099D01*
X-18836819Y-25154741D01*
X-25153350Y-31471271D01*
X-25214673Y-31504756D01*
X-25284365Y-31499772D01*
X-25340298Y-31457900D01*
X-25355851Y-31425297D01*
X-25357207Y-31425832D01*
X-25360123Y-31418438D01*
X-25360123Y-31418436D01*
X-25415639Y-31277658D01*
X-25415640Y-31277657D01*
X-25415640Y-31277656D01*
X-25507078Y-31157077D01*
X-25627657Y-31065639D01*
X-25768439Y-31010122D01*
X-25814074Y-31004642D01*
X-25856898Y-30999500D01*
X-27243102Y-30999500D01*
X-27282147Y-31004188D01*
X-27331562Y-31010122D01*
X-27472344Y-31065639D01*
X-27592923Y-31157077D01*
X-27684361Y-31277656D01*
X-27739878Y-31418438D01*
X-27741477Y-31431758D01*
X-27750500Y-31506898D01*
X-27750500Y-31506903D01*
X-27750500Y-31624340D01*
X-27770185Y-31691379D01*
X-27822989Y-31737134D01*
X-27892147Y-31747078D01*
X-27898690Y-31745958D01*
X-27931158Y-31739500D01*
X-34945309Y-31739500D01*
X-35012348Y-31719815D01*
X-35032990Y-31703181D01*
X-35169066Y-31567105D01*
X-35169068Y-31567103D01*
X-35331492Y-31449095D01*
X-35510374Y-31357949D01*
X-35701320Y-31295907D01*
X-35816540Y-31277658D01*
X-35899616Y-31264500D01*
X-36100384Y-31264500D01*
X-36183448Y-31277656D01*
X-36298681Y-31295907D01*
X-36489627Y-31357949D01*
X-36668509Y-31449095D01*
X-36699031Y-31471271D01*
X-36830932Y-31567103D01*
X-36830934Y-31567105D01*
X-36830935Y-31567105D01*
X-36972895Y-31709065D01*
X-36972895Y-31709066D01*
X-36972897Y-31709068D01*
X-37017358Y-31770263D01*
X-37090905Y-31871491D01*
X-37182051Y-32050373D01*
X-37244093Y-32241319D01*
X-37275500Y-32439616D01*
X-37275500Y-32640383D01*
X-37244093Y-32838681D01*
X-37242954Y-32843427D01*
X-37244245Y-32843736D01*
X-37242423Y-32907526D01*
X-37278505Y-32967358D01*
X-37341207Y-32998184D01*
X-37362349Y-33000000D01*
X-39375500Y-33000000D01*
X-39442539Y-32980315D01*
X-39488294Y-32927511D01*
X-39499500Y-32876000D01*
X-39499500Y-27359616D01*
X-37275500Y-27359616D01*
X-37275500Y-27560384D01*
X-37244093Y-27758680D01*
X-37182051Y-27949626D01*
X-37090905Y-28128508D01*
X-36972897Y-28290932D01*
X-36830932Y-28432897D01*
X-36668508Y-28550905D01*
X-36583993Y-28593967D01*
X-36489627Y-28642050D01*
X-36489625Y-28642050D01*
X-36489622Y-28642052D01*
X-36298680Y-28704093D01*
X-36100384Y-28735500D01*
X-36100383Y-28735500D01*
X-35899617Y-28735500D01*
X-35899616Y-28735500D01*
X-35701320Y-28704093D01*
X-35510378Y-28642052D01*
X-35331492Y-28550905D01*
X-35169068Y-28432897D01*
X-35032990Y-28296819D01*
X-34971667Y-28263334D01*
X-34945309Y-28260500D01*
X-25856156Y-28260500D01*
X-25856155Y-28260499D01*
X-25779848Y-28245320D01*
X-25701512Y-28229739D01*
X-25701510Y-28229738D01*
X-25701503Y-28229737D01*
X-25653706Y-28209938D01*
X-25606254Y-28200500D01*
X-25106903Y-28200500D01*
X-25106898Y-28200500D01*
X-25018436Y-28189877D01*
X-24877658Y-28134361D01*
X-24757078Y-28042922D01*
X-24665639Y-27922342D01*
X-24610123Y-27781564D01*
X-24599500Y-27693102D01*
X-24599500Y-26306898D01*
X-24610123Y-26218436D01*
X-24665639Y-26077658D01*
X-24665640Y-26077657D01*
X-24665640Y-26077656D01*
X-24757078Y-25957077D01*
X-24877659Y-25865638D01*
X-24976905Y-25826500D01*
X-24984868Y-25821277D01*
X-24990841Y-25819978D01*
X-25019095Y-25798827D01*
X-25163181Y-25654741D01*
X-25196666Y-25593418D01*
X-25199500Y-25567060D01*
X-25199500Y-24921155D01*
X-25199501Y-24921153D01*
X-25230262Y-24766510D01*
X-25230263Y-24766503D01*
X-25230265Y-24766498D01*
X-25290603Y-24620827D01*
X-25290610Y-24620814D01*
X-25378211Y-24489711D01*
X-25378214Y-24489707D01*
X-25489708Y-24378213D01*
X-25489712Y-24378210D01*
X-25620815Y-24290609D01*
X-25620828Y-24290602D01*
X-25766499Y-24230264D01*
X-25766511Y-24230261D01*
X-25921155Y-24199500D01*
X-25921158Y-24199500D01*
X-26078842Y-24199500D01*
X-26078845Y-24199500D01*
X-26233490Y-24230261D01*
X-26233502Y-24230264D01*
X-26379173Y-24290602D01*
X-26379186Y-24290609D01*
X-26510289Y-24378210D01*
X-26510293Y-24378213D01*
X-26621787Y-24489707D01*
X-26621790Y-24489711D01*
X-26709391Y-24620814D01*
X-26709398Y-24620827D01*
X-26769736Y-24766498D01*
X-26769739Y-24766510D01*
X-26800500Y-24921153D01*
X-26800500Y-26028846D01*
X-26769739Y-26183489D01*
X-26769736Y-26183501D01*
X-26709398Y-26329172D01*
X-26709391Y-26329185D01*
X-26618405Y-26465354D01*
X-26620432Y-26466708D01*
X-26597311Y-26521142D01*
X-26609101Y-26590010D01*
X-26656252Y-26641571D01*
X-26720477Y-26659500D01*
X-34945309Y-26659500D01*
X-35012348Y-26639815D01*
X-35032990Y-26623181D01*
X-35169066Y-26487105D01*
X-35169068Y-26487103D01*
X-35331492Y-26369095D01*
X-35510374Y-26277949D01*
X-35701320Y-26215907D01*
X-35899616Y-26184500D01*
X-36100384Y-26184500D01*
X-36199532Y-26200203D01*
X-36298681Y-26215907D01*
X-36489627Y-26277949D01*
X-36668509Y-26369095D01*
X-36761178Y-26436423D01*
X-36830932Y-26487103D01*
X-36830934Y-26487105D01*
X-36830935Y-26487105D01*
X-36972895Y-26629065D01*
X-36972895Y-26629066D01*
X-36972897Y-26629068D01*
X-36980705Y-26639815D01*
X-37090905Y-26791491D01*
X-37182051Y-26970373D01*
X-37244093Y-27161319D01*
X-37244093Y-27161320D01*
X-37275500Y-27359616D01*
X-39499500Y-27359616D01*
X-39499500Y-13359616D01*
X-37275500Y-13359616D01*
X-37275500Y-13560384D01*
X-37244093Y-13758680D01*
X-37182051Y-13949626D01*
X-37100223Y-14110221D01*
X-37090905Y-14128508D01*
X-36972897Y-14290932D01*
X-36830932Y-14432897D01*
X-36668508Y-14550905D01*
X-36583993Y-14593967D01*
X-36489627Y-14642050D01*
X-36489625Y-14642050D01*
X-36489622Y-14642052D01*
X-36298680Y-14704093D01*
X-36100384Y-14735500D01*
X-36100383Y-14735500D01*
X-35899617Y-14735500D01*
X-35899616Y-14735500D01*
X-35701320Y-14704093D01*
X-35510378Y-14642052D01*
X-35331492Y-14550905D01*
X-35169068Y-14432897D01*
X-35032990Y-14296819D01*
X-34971667Y-14263334D01*
X-34945309Y-14260500D01*
X-25856156Y-14260500D01*
X-25856155Y-14260499D01*
X-25779848Y-14245320D01*
X-25701512Y-14229739D01*
X-25701510Y-14229738D01*
X-25701503Y-14229737D01*
X-25653706Y-14209938D01*
X-25606254Y-14200500D01*
X-25106903Y-14200500D01*
X-25106898Y-14200500D01*
X-25018436Y-14189877D01*
X-24877658Y-14134361D01*
X-24757078Y-14042922D01*
X-24665639Y-13922342D01*
X-24610123Y-13781564D01*
X-24599500Y-13693102D01*
X-24599500Y-12306898D01*
X-24610123Y-12218436D01*
X-24665639Y-12077658D01*
X-24665640Y-12077657D01*
X-24665640Y-12077656D01*
X-24757078Y-11957077D01*
X-24877657Y-11865639D01*
X-25018439Y-11810122D01*
X-25064074Y-11804642D01*
X-25106898Y-11799500D01*
X-25843102Y-11799500D01*
X-25882147Y-11804188D01*
X-25931562Y-11810122D01*
X-26072344Y-11865639D01*
X-26192923Y-11957077D01*
X-26284361Y-12077656D01*
X-26339878Y-12218438D01*
X-26345812Y-12267853D01*
X-26350500Y-12306898D01*
X-26350500Y-12306903D01*
X-26350500Y-12535500D01*
X-26370185Y-12602539D01*
X-26422989Y-12648294D01*
X-26474500Y-12659500D01*
X-34945309Y-12659500D01*
X-35012348Y-12639815D01*
X-35032990Y-12623181D01*
X-35169066Y-12487105D01*
X-35169068Y-12487103D01*
X-35331492Y-12369095D01*
X-35510374Y-12277949D01*
X-35701320Y-12215907D01*
X-35899616Y-12184500D01*
X-36100384Y-12184500D01*
X-36199532Y-12200203D01*
X-36298681Y-12215907D01*
X-36489627Y-12277949D01*
X-36668509Y-12369095D01*
X-36761178Y-12436423D01*
X-36830932Y-12487103D01*
X-36830934Y-12487105D01*
X-36830935Y-12487105D01*
X-36972895Y-12629065D01*
X-36972895Y-12629066D01*
X-36972897Y-12629068D01*
X-36995007Y-12659500D01*
X-37090905Y-12791491D01*
X-37182051Y-12970373D01*
X-37244093Y-13161319D01*
X-37244093Y-13161320D01*
X-37275500Y-13359616D01*
X-39499500Y-13359616D01*
X-39499500Y22819753D01*
X-37646500Y22819753D01*
X-37646500Y22180248D01*
X-37634869Y22121771D01*
X-37634868Y22121770D01*
X-37599535Y22068891D01*
X-37578657Y22002214D01*
X-37597141Y21934834D01*
X-37599535Y21931109D01*
X-37634868Y21878231D01*
X-37634869Y21878230D01*
X-37646500Y21819753D01*
X-37646500Y21180248D01*
X-37634869Y21121771D01*
X-37634868Y21121770D01*
X-37599535Y21068891D01*
X-37578657Y21002214D01*
X-37597141Y20934834D01*
X-37599535Y20931109D01*
X-37634868Y20878231D01*
X-37634869Y20878230D01*
X-37646500Y20819753D01*
X-37646500Y20180248D01*
X-37634869Y20121771D01*
X-37634868Y20121770D01*
X-37599535Y20068891D01*
X-37578657Y20002214D01*
X-37597141Y19934834D01*
X-37599535Y19931109D01*
X-37634868Y19878231D01*
X-37634869Y19878230D01*
X-37646500Y19819753D01*
X-37646500Y19180248D01*
X-37634869Y19121771D01*
X-37634868Y19121770D01*
X-37599535Y19068891D01*
X-37578657Y19002214D01*
X-37597141Y18934834D01*
X-37599535Y18931109D01*
X-37634868Y18878231D01*
X-37634869Y18878230D01*
X-37646500Y18819753D01*
X-37646500Y18180248D01*
X-37634869Y18121771D01*
X-37634868Y18121770D01*
X-37599535Y18068891D01*
X-37578657Y18002214D01*
X-37597141Y17934834D01*
X-37599535Y17931109D01*
X-37634868Y17878231D01*
X-37634869Y17878230D01*
X-37646500Y17819753D01*
X-37646500Y17180248D01*
X-37634869Y17121771D01*
X-37634868Y17121770D01*
X-37599535Y17068891D01*
X-37578657Y17002214D01*
X-37597141Y16934834D01*
X-37599535Y16931109D01*
X-37634868Y16878231D01*
X-37634869Y16878230D01*
X-37646500Y16819753D01*
X-37646500Y16180248D01*
X-37634869Y16121771D01*
X-37634868Y16121770D01*
X-37599535Y16068891D01*
X-37578657Y16002214D01*
X-37597141Y15934834D01*
X-37599535Y15931109D01*
X-37634868Y15878231D01*
X-37634869Y15878230D01*
X-37646500Y15819753D01*
X-37646500Y15180248D01*
X-37634869Y15121771D01*
X-37634868Y15121770D01*
X-37599535Y15068891D01*
X-37578657Y15002214D01*
X-37597141Y14934834D01*
X-37599535Y14931109D01*
X-37634868Y14878231D01*
X-37634869Y14878230D01*
X-37646500Y14819753D01*
X-37646500Y14180248D01*
X-37634869Y14121771D01*
X-37634868Y14121770D01*
X-37599535Y14068891D01*
X-37578657Y14002214D01*
X-37597141Y13934834D01*
X-37599535Y13931109D01*
X-37634868Y13878231D01*
X-37634869Y13878230D01*
X-37646500Y13819753D01*
X-37646500Y13180248D01*
X-37634869Y13121771D01*
X-37634868Y13121770D01*
X-37599535Y13068891D01*
X-37578657Y13002214D01*
X-37597141Y12934834D01*
X-37599535Y12931109D01*
X-37634868Y12878231D01*
X-37634869Y12878230D01*
X-37646500Y12819753D01*
X-37646500Y12180248D01*
X-37634869Y12121771D01*
X-37634868Y12121770D01*
X-37590553Y12055448D01*
X-37524231Y12011133D01*
X-37524230Y12011132D01*
X-37465753Y11999501D01*
X-37465750Y11999500D01*
X-37465748Y11999500D01*
X-36611892Y11999500D01*
X-35367334Y11999500D01*
X-35305335Y11982888D01*
X-35231784Y11940423D01*
X-35079057Y11899500D01*
X-35079055Y11899500D01*
X-34920945Y11899500D01*
X-34920943Y11899500D01*
X-34768216Y11940423D01*
X-34631284Y12019480D01*
X-34519480Y12131284D01*
X-34440423Y12268216D01*
X-34399500Y12420943D01*
X-34399500Y12579057D01*
X-34440423Y12731784D01*
X-34440427Y12731791D01*
X-34519476Y12868710D01*
X-34519482Y12868718D01*
X-34563083Y12912319D01*
X-34596568Y12973642D01*
X-34591584Y13043334D01*
X-34563083Y13087681D01*
X-34519480Y13131284D01*
X-34440423Y13268216D01*
X-34399500Y13420943D01*
X-34399500Y13579057D01*
X-34440423Y13731784D01*
X-34452132Y13752065D01*
X-34519476Y13868710D01*
X-34519482Y13868718D01*
X-34563083Y13912319D01*
X-34596568Y13973642D01*
X-34591584Y14043334D01*
X-34563083Y14087681D01*
X-34519480Y14131284D01*
X-34440423Y14268216D01*
X-34399500Y14420943D01*
X-34399500Y14579057D01*
X-34440423Y14731784D01*
X-34441415Y14733502D01*
X-34519476Y14868710D01*
X-34519482Y14868718D01*
X-34563083Y14912319D01*
X-34596568Y14973642D01*
X-34591584Y15043334D01*
X-34563083Y15087681D01*
X-34519480Y15131284D01*
X-34440423Y15268216D01*
X-34399500Y15420943D01*
X-34399500Y15579057D01*
X-34440423Y15731784D01*
X-34441717Y15734026D01*
X-34519476Y15868710D01*
X-34519482Y15868718D01*
X-34563083Y15912319D01*
X-34596568Y15973642D01*
X-34591584Y16043334D01*
X-34563083Y16087681D01*
X-34519480Y16131284D01*
X-34440423Y16268216D01*
X-34399500Y16420943D01*
X-34399500Y16579057D01*
X-34440423Y16731784D01*
X-34440427Y16731791D01*
X-34519476Y16868710D01*
X-34519482Y16868718D01*
X-34563083Y16912319D01*
X-34596568Y16973642D01*
X-34591584Y17043334D01*
X-34563083Y17087681D01*
X-34551264Y17099500D01*
X-34519480Y17131284D01*
X-34440423Y17268216D01*
X-34399500Y17420943D01*
X-34399500Y17579057D01*
X-34440423Y17731784D01*
X-34460165Y17765978D01*
X-34519476Y17868710D01*
X-34519482Y17868718D01*
X-34563083Y17912319D01*
X-34596568Y17973642D01*
X-34591584Y18043334D01*
X-34563083Y18087681D01*
X-34519480Y18131284D01*
X-34440423Y18268216D01*
X-34399500Y18420943D01*
X-34399500Y18579057D01*
X-34440423Y18731784D01*
X-34440427Y18731791D01*
X-34519476Y18868710D01*
X-34519482Y18868718D01*
X-34563083Y18912319D01*
X-34596568Y18973642D01*
X-34591584Y19043334D01*
X-34563083Y19087681D01*
X-34519480Y19131284D01*
X-34440423Y19268216D01*
X-34399500Y19420943D01*
X-34399500Y19579057D01*
X-34440423Y19731784D01*
X-34475875Y19793190D01*
X-34519476Y19868710D01*
X-34519482Y19868718D01*
X-34563083Y19912319D01*
X-34596568Y19973642D01*
X-34591584Y20043334D01*
X-34563083Y20087681D01*
X-34546842Y20103922D01*
X-34519480Y20131284D01*
X-34440423Y20268216D01*
X-34399500Y20420943D01*
X-34399500Y20579057D01*
X-34440423Y20731784D01*
X-34441415Y20733502D01*
X-34519476Y20868710D01*
X-34519482Y20868718D01*
X-34563083Y20912319D01*
X-34596568Y20973642D01*
X-34591584Y21043334D01*
X-34563083Y21087681D01*
X-34542510Y21108254D01*
X-34519480Y21131284D01*
X-34440423Y21268216D01*
X-34399500Y21420943D01*
X-34399500Y21579057D01*
X-34440423Y21731784D01*
X-34464410Y21773331D01*
X-34519476Y21868710D01*
X-34519482Y21868718D01*
X-34563083Y21912319D01*
X-34596568Y21973642D01*
X-34591584Y22043334D01*
X-34563083Y22087681D01*
X-34519480Y22131284D01*
X-34440423Y22268216D01*
X-34399500Y22420943D01*
X-34399500Y22579057D01*
X-34440423Y22731784D01*
X-34441717Y22734026D01*
X-34519476Y22868710D01*
X-34519482Y22868718D01*
X-34631283Y22980519D01*
X-34631291Y22980525D01*
X-34768210Y23059574D01*
X-34768214Y23059576D01*
X-34768216Y23059577D01*
X-34920943Y23100500D01*
X-35079057Y23100500D01*
X-35231784Y23059577D01*
X-35231787Y23059576D01*
X-35305334Y23017113D01*
X-35367334Y23000500D01*
X-37465753Y23000500D01*
X-37524230Y22988869D01*
X-37524231Y22988868D01*
X-37590553Y22944553D01*
X-37634868Y22878231D01*
X-37634869Y22878230D01*
X-37646500Y22819753D01*
X-39499500Y22819753D01*
X-39499500Y27819753D01*
X-37646500Y27819753D01*
X-37646500Y27180248D01*
X-37634869Y27121771D01*
X-37634868Y27121770D01*
X-37599535Y27068891D01*
X-37578657Y27002214D01*
X-37597141Y26934834D01*
X-37599535Y26931109D01*
X-37634868Y26878231D01*
X-37634869Y26878230D01*
X-37646500Y26819753D01*
X-37646500Y26180248D01*
X-37634869Y26121771D01*
X-37634868Y26121770D01*
X-37599535Y26068891D01*
X-37578657Y26002214D01*
X-37597141Y25934834D01*
X-37599535Y25931109D01*
X-37634868Y25878231D01*
X-37634869Y25878230D01*
X-37646500Y25819753D01*
X-37646500Y25180248D01*
X-37634869Y25121771D01*
X-37634868Y25121770D01*
X-37599535Y25068891D01*
X-37578657Y25002214D01*
X-37597141Y24934834D01*
X-37599535Y24931109D01*
X-37634868Y24878231D01*
X-37634869Y24878230D01*
X-37646500Y24819753D01*
X-37646500Y24180248D01*
X-37634869Y24121771D01*
X-37634868Y24121770D01*
X-37590553Y24055448D01*
X-37524231Y24011133D01*
X-37524230Y24011132D01*
X-37465753Y23999501D01*
X-37465750Y23999500D01*
X-37465748Y23999500D01*
X-34434110Y23999500D01*
X-34434108Y23999500D01*
X-34306814Y24033608D01*
X-34192686Y24099500D01*
X-34029005Y24263181D01*
X-33967682Y24296666D01*
X-33941324Y24299500D01*
X-25491520Y24299500D01*
X-25462083Y24290857D01*
X-25432097Y24284334D01*
X-25427080Y24280578D01*
X-25424481Y24279815D01*
X-25403842Y24263184D01*
X-25389917Y24249260D01*
X-25356430Y24187938D01*
X-25354656Y24177763D01*
X-25348497Y24130986D01*
X-25314422Y24003819D01*
X-25314420Y24003812D01*
X-25293899Y23954269D01*
X-25293892Y23954255D01*
X-25228066Y23840241D01*
X-25195410Y23797684D01*
X-25195409Y23797683D01*
X-25102317Y23704591D01*
X-25059757Y23671933D01*
X-24945743Y23606107D01*
X-24945738Y23606105D01*
X-24945732Y23606102D01*
X-24896189Y23585581D01*
X-24896187Y23585581D01*
X-24896181Y23585578D01*
X-24769014Y23551503D01*
X-24715826Y23544500D01*
X-24715820Y23544500D01*
X-24268500Y23544500D01*
X-24201461Y23524815D01*
X-24155706Y23472011D01*
X-24144500Y23420500D01*
X-24144500Y21538940D01*
X-24164185Y21471901D01*
X-24180819Y21451259D01*
X-24510289Y21121789D01*
X-24544397Y21087681D01*
X-24621791Y21010288D01*
X-24709391Y20879186D01*
X-24709398Y20879173D01*
X-24769736Y20733502D01*
X-24769739Y20733490D01*
X-24800500Y20578847D01*
X-24800500Y18921154D01*
X-24769739Y18766511D01*
X-24769736Y18766499D01*
X-24709398Y18620828D01*
X-24709391Y18620815D01*
X-24621790Y18489712D01*
X-24621787Y18489708D01*
X-24510293Y18378214D01*
X-24510289Y18378211D01*
X-24379186Y18290610D01*
X-24379173Y18290603D01*
X-24233502Y18230265D01*
X-24233497Y18230263D01*
X-24078847Y18199501D01*
X-24078844Y18199500D01*
X-24078842Y18199500D01*
X-22421156Y18199500D01*
X-22421155Y18199501D01*
X-22266503Y18230263D01*
X-22120821Y18290606D01*
X-21989711Y18378211D01*
X-21878211Y18489711D01*
X-21790606Y18620821D01*
X-21730263Y18766503D01*
X-21699500Y18921158D01*
X-21699500Y20578842D01*
X-21699500Y20734842D01*
X-21720023Y20838015D01*
X-21730263Y20889497D01*
X-21740974Y20915356D01*
X-21753067Y20944552D01*
X-21790603Y21035173D01*
X-21790610Y21035186D01*
X-21878210Y21166288D01*
X-21892174Y21180252D01*
X-21989711Y21277789D01*
X-22507181Y21795259D01*
X-22540666Y21856582D01*
X-22543500Y21882940D01*
X-22543500Y24578842D01*
X-22543903Y24582934D01*
X-22544500Y24595087D01*
X-22544500Y24815820D01*
X-22544501Y24815834D01*
X-22554910Y24894894D01*
X-22554910Y24894897D01*
X-22588985Y25022064D01*
X-22611119Y25075500D01*
X-22619500Y25095735D01*
X-22619508Y25095751D01*
X-22687360Y25213273D01*
X-22685749Y25214204D01*
X-22704394Y25273677D01*
X-22685933Y25341064D01*
X-22633971Y25387772D01*
X-22565004Y25398973D01*
X-22511524Y25379036D01*
X-22379186Y25290610D01*
X-22379173Y25290603D01*
X-22233502Y25230265D01*
X-22233497Y25230263D01*
X-22078847Y25199501D01*
X-22078844Y25199500D01*
X-22078842Y25199500D01*
X-21921158Y25199500D01*
X-21424500Y25199500D01*
X-21357461Y25179815D01*
X-21311706Y25127011D01*
X-21300500Y25075500D01*
X-21300500Y11382940D01*
X-21320185Y11315901D01*
X-21336819Y11295259D01*
X-25985289Y6646789D01*
X-26041040Y6591038D01*
X-26096791Y6535288D01*
X-26184391Y6404186D01*
X-26184398Y6404173D01*
X-26244736Y6258502D01*
X-26244739Y6258490D01*
X-26275500Y6103847D01*
X-26275500Y1968380D01*
X-26284145Y1922890D01*
X-26339878Y1781562D01*
X-26345812Y1732147D01*
X-26350500Y1693102D01*
X-26350500Y1693097D01*
X-26350500Y1464500D01*
X-26370185Y1397461D01*
X-26422989Y1351706D01*
X-26474500Y1340500D01*
X-34945309Y1340500D01*
X-35012348Y1360185D01*
X-35032990Y1376819D01*
X-35169066Y1512895D01*
X-35169068Y1512897D01*
X-35331492Y1630905D01*
X-35510374Y1722051D01*
X-35701320Y1784093D01*
X-35899616Y1815500D01*
X-36100384Y1815500D01*
X-36199532Y1799797D01*
X-36298681Y1784093D01*
X-36489627Y1722051D01*
X-36668509Y1630905D01*
X-36761178Y1563577D01*
X-36830932Y1512897D01*
X-36830934Y1512895D01*
X-36830935Y1512895D01*
X-36972895Y1370935D01*
X-36972895Y1370934D01*
X-36972897Y1370932D01*
X-36995007Y1340500D01*
X-37090905Y1208509D01*
X-37182051Y1029627D01*
X-37219071Y915690D01*
X-37244093Y838680D01*
X-37275500Y640384D01*
X-37275500Y439616D01*
X-37254105Y304535D01*
X-37244093Y241320D01*
X-37182051Y50374D01*
X-37108243Y-94481D01*
X-37090905Y-128508D01*
X-36972897Y-290932D01*
X-36830932Y-432897D01*
X-36668508Y-550905D01*
X-36583993Y-593967D01*
X-36489627Y-642050D01*
X-36489625Y-642050D01*
X-36489622Y-642052D01*
X-36298680Y-704093D01*
X-36100384Y-735500D01*
X-36100383Y-735500D01*
X-35899617Y-735500D01*
X-35899616Y-735500D01*
X-35701320Y-704093D01*
X-35510378Y-642052D01*
X-35331492Y-550905D01*
X-35169068Y-432897D01*
X-35032990Y-296819D01*
X-34971667Y-263334D01*
X-34945309Y-260500D01*
X-25856156Y-260500D01*
X-25856155Y-260499D01*
X-25779848Y-245320D01*
X-25701512Y-229739D01*
X-25701510Y-229738D01*
X-25701503Y-229737D01*
X-25653706Y-209938D01*
X-25606254Y-200500D01*
X-25106903Y-200500D01*
X-25106898Y-200500D01*
X-25018436Y-189877D01*
X-24877658Y-134361D01*
X-24757078Y-42922D01*
X-24665639Y77658D01*
X-24610123Y218436D01*
X-24599500Y306898D01*
X-24599500Y1693102D01*
X-24610123Y1781564D01*
X-24665639Y1922342D01*
X-24665855Y1922890D01*
X-24674500Y1968380D01*
X-24674500Y5642060D01*
X-24654815Y5709099D01*
X-24638181Y5729741D01*
X-19878212Y10489710D01*
X-19878210Y10489713D01*
X-19833035Y10557321D01*
X-19790606Y10620821D01*
X-19730263Y10766503D01*
X-19730263Y10766506D01*
X-19730261Y10766510D01*
X-19723500Y10800499D01*
X-19699501Y10921154D01*
X-19699500Y10921156D01*
X-19699500Y27578845D01*
X-19699501Y27578847D01*
X-19730263Y27733497D01*
X-19737408Y27750747D01*
X-19790603Y27879173D01*
X-19790610Y27879186D01*
X-19878211Y28010289D01*
X-19878214Y28010293D01*
X-19989708Y28121787D01*
X-19989712Y28121790D01*
X-20120815Y28209391D01*
X-20120828Y28209398D01*
X-20266499Y28269736D01*
X-20266511Y28269739D01*
X-20421155Y28300500D01*
X-20421158Y28300500D01*
X-21921158Y28300500D01*
X-22709989Y28300500D01*
X-22777028Y28320185D01*
X-22797670Y28336819D01*
X-22826963Y28366112D01*
X-22826972Y28366120D01*
X-22890233Y28414663D01*
X-22890251Y28414675D01*
X-23004250Y28480493D01*
X-23004266Y28480501D01*
X-23077933Y28511014D01*
X-23077935Y28511015D01*
X-23077936Y28511015D01*
X-23205103Y28545090D01*
X-23205104Y28545091D01*
X-23205107Y28545091D01*
X-23284167Y28555500D01*
X-23284174Y28555500D01*
X-23850000Y28555500D01*
X-23852870Y28555368D01*
X-23878184Y28554198D01*
X-23878193Y28554196D01*
X-23986170Y28523474D01*
X-23986178Y28523470D01*
X-24047263Y28477341D01*
X-24112624Y28452650D01*
X-24143056Y28454918D01*
X-24143078Y28454720D01*
X-24148295Y28455308D01*
X-24149574Y28455403D01*
X-24149997Y28455500D01*
X-24150000Y28455500D01*
X-24715826Y28455500D01*
X-24715833Y28455500D01*
X-24769008Y28448498D01*
X-24769014Y28448497D01*
X-24896189Y28414420D01*
X-24945732Y28393899D01*
X-24945746Y28393892D01*
X-25059760Y28328066D01*
X-25102317Y28295410D01*
X-25195410Y28202317D01*
X-25228066Y28159760D01*
X-25293892Y28045746D01*
X-25293899Y28045732D01*
X-25314420Y27996189D01*
X-25348497Y27869014D01*
X-25348498Y27869010D01*
X-25354656Y27822237D01*
X-25363904Y27801335D01*
X-25368761Y27779002D01*
X-25381042Y27762596D01*
X-25382924Y27758341D01*
X-25389911Y27750747D01*
X-25403835Y27736822D01*
X-25465157Y27703335D01*
X-25491519Y27700500D01*
X-33941324Y27700500D01*
X-34008363Y27720185D01*
X-34029005Y27736819D01*
X-34192684Y27900498D01*
X-34192686Y27900500D01*
X-34299300Y27962054D01*
X-34306813Y27966392D01*
X-34390693Y27988867D01*
X-34434108Y28000500D01*
X-35626252Y28000500D01*
X-37465748Y28000500D01*
X-37465753Y28000500D01*
X-37524230Y27988869D01*
X-37524231Y27988868D01*
X-37590553Y27944553D01*
X-37634868Y27878231D01*
X-37634869Y27878230D01*
X-37646500Y27819753D01*
X-39499500Y27819753D01*
X-39499500Y32876000D01*
X-39479815Y32943039D01*
X-39427011Y32988794D01*
X-39375500Y33000000D01*
X-33000000Y33000000D01*
X-33000000Y38876000D01*
X-32980315Y38943039D01*
X-32927511Y38988794D01*
X-32876000Y39000000D01*
X32876000Y39000000D01*
X32943039Y38980315D01*
G37*
%TD.AperFunction*%
%TA.AperFunction,Conductor*%
G36*
X32936975Y24360037D02*
G01*
X32985670Y24309931D01*
X33000000Y24252065D01*
X33000000Y23247936D01*
X32980315Y23180897D01*
X32927511Y23135142D01*
X32858353Y23125198D01*
X32803116Y23147617D01*
X32734024Y23197814D01*
X32537606Y23297896D01*
X32537603Y23297897D01*
X32327952Y23366015D01*
X32219086Y23383258D01*
X32110222Y23400500D01*
X31889778Y23400500D01*
X31817201Y23389005D01*
X31672047Y23366015D01*
X31462396Y23297897D01*
X31462393Y23297896D01*
X31265974Y23197813D01*
X31087641Y23068248D01*
X31087636Y23068244D01*
X30931756Y22912364D01*
X30931752Y22912359D01*
X30802187Y22734026D01*
X30702104Y22537607D01*
X30702103Y22537604D01*
X30633985Y22327953D01*
X30633985Y22327951D01*
X30599500Y22110222D01*
X30599500Y21889778D01*
X30614029Y21798046D01*
X30633985Y21672048D01*
X30702103Y21462397D01*
X30702104Y21462394D01*
X30761658Y21345515D01*
X30801044Y21268217D01*
X30802187Y21265975D01*
X30931752Y21087642D01*
X30931756Y21087637D01*
X31087636Y20931757D01*
X31087641Y20931753D01*
X31183436Y20862155D01*
X31265978Y20802185D01*
X31364343Y20752065D01*
X31462393Y20702105D01*
X31462396Y20702104D01*
X31536881Y20677903D01*
X31672049Y20633985D01*
X31889778Y20599500D01*
X31889779Y20599500D01*
X32110221Y20599500D01*
X32110222Y20599500D01*
X32327951Y20633985D01*
X32537606Y20702105D01*
X32734022Y20802185D01*
X32783338Y20838015D01*
X32803115Y20852383D01*
X32868921Y20875863D01*
X32936975Y20860037D01*
X32985670Y20809931D01*
X33000000Y20752065D01*
X33000000Y19747936D01*
X32980315Y19680897D01*
X32927511Y19635142D01*
X32858353Y19625198D01*
X32803116Y19647617D01*
X32734024Y19697814D01*
X32537606Y19797896D01*
X32537603Y19797897D01*
X32327952Y19866015D01*
X32219086Y19883258D01*
X32110222Y19900500D01*
X31889778Y19900500D01*
X31817201Y19889005D01*
X31672047Y19866015D01*
X31462396Y19797897D01*
X31462393Y19797896D01*
X31265974Y19697813D01*
X31087641Y19568248D01*
X31087636Y19568244D01*
X30931756Y19412364D01*
X30931752Y19412359D01*
X30802187Y19234026D01*
X30702104Y19037607D01*
X30702103Y19037604D01*
X30633985Y18827953D01*
X30599500Y18610222D01*
X30599500Y18389773D01*
X30611246Y18315613D01*
X30602292Y18246320D01*
X30576454Y18208534D01*
X28246153Y15878231D01*
X27489711Y15121789D01*
X27455603Y15087681D01*
X27378209Y15010288D01*
X27290609Y14879186D01*
X27290602Y14879173D01*
X27230264Y14733502D01*
X27230261Y14733490D01*
X27199500Y14578847D01*
X27199500Y12921154D01*
X27230261Y12766511D01*
X27230264Y12766499D01*
X27290602Y12620828D01*
X27290609Y12620815D01*
X27378210Y12489712D01*
X27378213Y12489708D01*
X27489707Y12378214D01*
X27489711Y12378211D01*
X27620814Y12290610D01*
X27620827Y12290603D01*
X27766498Y12230265D01*
X27766503Y12230263D01*
X27921153Y12199501D01*
X27921156Y12199500D01*
X27921158Y12199500D01*
X28078844Y12199500D01*
X28078845Y12199501D01*
X28233497Y12230263D01*
X28379179Y12290606D01*
X28510289Y12378211D01*
X28621789Y12489711D01*
X28709394Y12620821D01*
X28769737Y12766503D01*
X28800500Y12921158D01*
X28800500Y13078842D01*
X28800500Y14117061D01*
X28820185Y14184100D01*
X28836814Y14204737D01*
X31708534Y17076458D01*
X31769855Y17109941D01*
X31815606Y17111248D01*
X31889778Y17099500D01*
X31889780Y17099500D01*
X32110221Y17099500D01*
X32110222Y17099500D01*
X32327951Y17133985D01*
X32537606Y17202105D01*
X32734022Y17302185D01*
X32771231Y17329220D01*
X32803115Y17352383D01*
X32868921Y17375863D01*
X32936975Y17360037D01*
X32985670Y17309931D01*
X33000000Y17252065D01*
X33000000Y16247936D01*
X32980315Y16180897D01*
X32927511Y16135142D01*
X32858353Y16125198D01*
X32803116Y16147617D01*
X32734024Y16197814D01*
X32537606Y16297896D01*
X32537603Y16297897D01*
X32327952Y16366015D01*
X32219086Y16383258D01*
X32110222Y16400500D01*
X31889778Y16400500D01*
X31817201Y16389005D01*
X31672047Y16366015D01*
X31462396Y16297897D01*
X31462393Y16297896D01*
X31265974Y16197813D01*
X31087641Y16068248D01*
X31087636Y16068244D01*
X30931756Y15912364D01*
X30931752Y15912359D01*
X30802187Y15734026D01*
X30702104Y15537607D01*
X30702103Y15537604D01*
X30633985Y15327953D01*
X30599500Y15110222D01*
X30599500Y14889779D01*
X30633985Y14672048D01*
X30702103Y14462397D01*
X30702104Y14462394D01*
X30770122Y14328904D01*
X30801044Y14268217D01*
X30802187Y14265975D01*
X30931752Y14087642D01*
X30931756Y14087637D01*
X31087636Y13931757D01*
X31087641Y13931753D01*
X31186351Y13860037D01*
X31265978Y13802185D01*
X31364343Y13752065D01*
X31462393Y13702105D01*
X31462396Y13702104D01*
X31567221Y13668045D01*
X31672049Y13633985D01*
X31889778Y13599500D01*
X31889779Y13599500D01*
X32110221Y13599500D01*
X32110222Y13599500D01*
X32327951Y13633985D01*
X32537606Y13702105D01*
X32734022Y13802185D01*
X32771231Y13829220D01*
X32803115Y13852383D01*
X32868921Y13875863D01*
X32936975Y13860037D01*
X32985670Y13809931D01*
X33000000Y13752065D01*
X33000000Y1324500D01*
X32980315Y1257461D01*
X32927511Y1211706D01*
X32876000Y1200500D01*
X32533386Y1200500D01*
X32495068Y1206569D01*
X32304536Y1268477D01*
X32169746Y1289826D01*
X32102352Y1300500D01*
X31897648Y1300500D01*
X31873329Y1296649D01*
X31695465Y1268478D01*
X31500776Y1205219D01*
X31318386Y1112285D01*
X31152786Y991972D01*
X31008028Y847214D01*
X30887715Y681614D01*
X30794781Y499224D01*
X30731522Y304535D01*
X30699500Y102352D01*
X30699500Y-102351D01*
X30731522Y-304534D01*
X30794781Y-499223D01*
X30887715Y-681613D01*
X31008028Y-847213D01*
X31152786Y-991971D01*
X31307749Y-1104556D01*
X31318390Y-1112287D01*
X31433503Y-1170940D01*
X31500776Y-1205218D01*
X31500778Y-1205218D01*
X31500781Y-1205220D01*
X31546839Y-1220185D01*
X31695465Y-1268477D01*
X31796557Y-1284488D01*
X31897648Y-1300500D01*
X31897649Y-1300500D01*
X32102351Y-1300500D01*
X32102352Y-1300500D01*
X32304534Y-1268477D01*
X32304537Y-1268476D01*
X32304538Y-1268476D01*
X32495068Y-1206569D01*
X32533386Y-1200500D01*
X32876000Y-1200500D01*
X32943039Y-1220185D01*
X32988794Y-1272989D01*
X33000000Y-1324500D01*
X33000000Y-2375671D01*
X32980315Y-2442710D01*
X32927511Y-2488465D01*
X32858353Y-2498409D01*
X32803116Y-2475990D01*
X32681612Y-2387714D01*
X32499223Y-2294781D01*
X32304534Y-2231522D01*
X32129995Y-2203878D01*
X32102352Y-2199500D01*
X31897648Y-2199500D01*
X31873329Y-2203351D01*
X31695465Y-2231522D01*
X31500776Y-2294781D01*
X31318386Y-2387715D01*
X31152786Y-2508028D01*
X31008028Y-2652786D01*
X30887715Y-2818386D01*
X30794781Y-3000776D01*
X30731522Y-3195465D01*
X30699500Y-3397648D01*
X30699500Y-3602351D01*
X30731522Y-3804534D01*
X30794781Y-3999223D01*
X30887715Y-4181613D01*
X31008028Y-4347213D01*
X31152786Y-4491971D01*
X31307749Y-4604556D01*
X31318390Y-4612287D01*
X31434607Y-4671503D01*
X31500776Y-4705218D01*
X31500778Y-4705218D01*
X31500781Y-4705220D01*
X31605137Y-4739127D01*
X31695465Y-4768477D01*
X31796557Y-4784488D01*
X31897648Y-4800500D01*
X31897649Y-4800500D01*
X32102351Y-4800500D01*
X32102352Y-4800500D01*
X32304534Y-4768477D01*
X32499219Y-4705220D01*
X32681610Y-4612287D01*
X32744683Y-4566462D01*
X32803115Y-4524010D01*
X32868922Y-4500530D01*
X32936975Y-4516356D01*
X32985670Y-4566462D01*
X33000000Y-4624328D01*
X33000000Y-5875671D01*
X32980315Y-5942710D01*
X32927511Y-5988465D01*
X32858353Y-5998409D01*
X32803116Y-5975990D01*
X32681612Y-5887714D01*
X32499223Y-5794781D01*
X32304534Y-5731522D01*
X32129995Y-5703878D01*
X32102352Y-5699500D01*
X31897648Y-5699500D01*
X31873329Y-5703351D01*
X31695465Y-5731522D01*
X31500776Y-5794781D01*
X31318386Y-5887715D01*
X31152786Y-6008028D01*
X31008028Y-6152786D01*
X30887715Y-6318386D01*
X30794781Y-6500776D01*
X30731522Y-6695465D01*
X30699500Y-6897648D01*
X30699500Y-7102351D01*
X30731522Y-7304534D01*
X30794781Y-7499223D01*
X30887715Y-7681613D01*
X31008028Y-7847213D01*
X31152786Y-7991971D01*
X31307749Y-8104556D01*
X31318390Y-8112287D01*
X31434607Y-8171503D01*
X31500776Y-8205218D01*
X31500778Y-8205218D01*
X31500781Y-8205220D01*
X31605137Y-8239127D01*
X31695465Y-8268477D01*
X31796557Y-8284488D01*
X31897648Y-8300500D01*
X31897649Y-8300500D01*
X32102351Y-8300500D01*
X32102352Y-8300500D01*
X32304534Y-8268477D01*
X32499219Y-8205220D01*
X32681610Y-8112287D01*
X32744683Y-8066462D01*
X32803115Y-8024010D01*
X32868922Y-8000530D01*
X32936975Y-8016356D01*
X32985670Y-8066462D01*
X33000000Y-8124328D01*
X33000000Y-12752064D01*
X32997062Y-12762068D01*
X32998318Y-12772421D01*
X32987386Y-12795021D01*
X32980315Y-12819103D01*
X32972435Y-12825930D01*
X32967894Y-12835320D01*
X32946477Y-12848423D01*
X32927511Y-12864858D01*
X32917191Y-12866341D01*
X32908295Y-12871785D01*
X32883198Y-12871229D01*
X32858353Y-12874802D01*
X32847012Y-12870428D01*
X32838442Y-12870239D01*
X32812441Y-12857096D01*
X32806670Y-12854871D01*
X32804838Y-12853635D01*
X32734022Y-12802185D01*
X32711611Y-12790766D01*
X32705327Y-12786528D01*
X32693060Y-12771722D01*
X32671555Y-12752612D01*
X32621789Y-12678131D01*
X32621787Y-12678128D01*
X22836819Y-2893160D01*
X22803334Y-2831837D01*
X22800500Y-2805479D01*
X22800500Y5617060D01*
X22820185Y5684099D01*
X22836819Y5704741D01*
X26621786Y9489708D01*
X26621789Y9489711D01*
X26709394Y9620821D01*
X26769737Y9766503D01*
X26800500Y9921158D01*
X26800500Y19117061D01*
X26820185Y19184100D01*
X26836814Y19204737D01*
X31708534Y24076458D01*
X31769855Y24109941D01*
X31815606Y24111248D01*
X31889778Y24099500D01*
X31889780Y24099500D01*
X32110221Y24099500D01*
X32110222Y24099500D01*
X32327951Y24133985D01*
X32537606Y24202105D01*
X32734022Y24302185D01*
X32771231Y24329220D01*
X32803115Y24352383D01*
X32868921Y24375863D01*
X32936975Y24360037D01*
G37*
%TD.AperFunction*%
%TD*%
M02*
