<?xml version="1.0" standalone="no"?>
 <!DOCTYPE svg PUBLIC "-//W3C//DTD SVG 1.1//EN" 
 "http://www.w3.org/Graphics/SVG/1.1/DTD/svg11.dtd"> 
<svg
  xmlns:svg="http://www.w3.org/2000/svg"
  xmlns="http://www.w3.org/2000/svg"
  xmlns:xlink="http://www.w3.org/1999/xlink"
  version="1.1"
  width="297.0022mm" height="210.0072mm" viewBox="0.0000 0.0000 297.0022 210.0072">
<title>SVG Image created as PMCNV-DQx16-NPTH-drl_map.svg date 2026/04/14 21:09:19 </title>
  <desc>Image generated by PCBNEW </desc>
<g style="fill:#000000; fill-opacity:1.0000;stroke:#000000; stroke-opacity:1.0000;
stroke-linecap:round; stroke-linejoin:round;"
 transform="translate(0 0) scale(1 1)">
</g>
<g style="fill:none; 
stroke:#000000; stroke-width:0.2315; stroke-opacity:1; 
stroke-linecap:round; stroke-linejoin:round;">
<path d="M105.6652 5.1158
L191.3370 5.1158
" />
<path d="M105.6652 120.8885
L191.3370 120.8885
" />
<path d="M102.1920 117.4154 A3.4732 3.4732 0.0 0 0 105.6652 120.8885" />
<path d="M194.8102 8.5890
L194.8102 117.4154
" />
<path d="M191.3370 120.8885 A3.4732 3.4732 0.0 0 0 194.8102 117.4154" />
<path d="M102.1920 117.4154
L102.1920 8.5890
" />
<path d="M105.6652 5.1158 A3.4732 3.4732 0.0 0 0 102.1920 8.5890" />
<path d="M194.8102 8.5890 A3.4732 3.4732 0.0 0 0 191.3370 5.1158" />
</g>
<g style="fill:none; 
stroke:#000000; stroke-width:0.0579; stroke-opacity:1; 
stroke-linecap:round; stroke-linejoin:round;">
<circle cx="154.2897" cy="97.7340" r="1.5050" /> 
</g>
<g style="fill:none; 
stroke:#000000; stroke-width:0.2000; stroke-opacity:1; 
stroke-linecap:round; stroke-linejoin:round;">
<text x="104.0762" y="124.2043"
textLength="14.8667" font-size="2.6667" lengthAdjust="spacingAndGlyphs"
text-anchor="start" opacity="0" stroke-opacity="0">Drill Map:</text>
<g class="stroked-text"><desc>Drill Map:</desc>
<path d="M104.6840 124.1192
L104.6840 122.1192
" />
<path d="M104.6840 122.1192
L105.1602 122.1192
" />
<path d="M105.1602 122.1192
L105.4459 122.2144
" />
<path d="M105.4459 122.2144
L105.6364 122.4049
" />
<path d="M105.6364 122.4049
L105.7316 122.5953
" />
<path d="M105.7316 122.5953
L105.8268 122.9763
" />
<path d="M105.8268 122.9763
L105.8268 123.2620
" />
<path d="M105.8268 123.2620
L105.7316 123.6430
" />
<path d="M105.7316 123.6430
L105.6364 123.8334
" />
<path d="M105.6364 123.8334
L105.4459 124.0239
" />
<path d="M105.4459 124.0239
L105.1602 124.1192
" />
<path d="M105.1602 124.1192
L104.6840 124.1192
" />
<path d="M106.6840 124.1192
L106.6840 122.7858
" />
<path d="M106.6840 123.1668
L106.7792 122.9763
" />
<path d="M106.7792 122.9763
L106.8745 122.8811
" />
<path d="M106.8745 122.8811
L107.0649 122.7858
" />
<path d="M107.0649 122.7858
L107.2554 122.7858
" />
<path d="M107.9221 124.1192
L107.9221 122.7858
" />
<path d="M107.9221 122.1192
L107.8268 122.2144
" />
<path d="M107.8268 122.2144
L107.9221 122.3096
" />
<path d="M107.9221 122.3096
L108.0173 122.2144
" />
<path d="M108.0173 122.2144
L107.9221 122.1192
" />
<path d="M107.9221 122.1192
L107.9221 122.3096
" />
<path d="M109.1602 124.1192
L108.9697 124.0239
" />
<path d="M108.9697 124.0239
L108.8745 123.8334
" />
<path d="M108.8745 123.8334
L108.8745 122.1192
" />
<path d="M110.2078 124.1192
L110.0173 124.0239
" />
<path d="M110.0173 124.0239
L109.9221 123.8334
" />
<path d="M109.9221 123.8334
L109.9221 122.1192
" />
<path d="M112.4935 124.1192
L112.4935 122.1192
" />
<path d="M112.4935 122.1192
L113.1602 123.5477
" />
<path d="M113.1602 123.5477
L113.8268 122.1192
" />
<path d="M113.8268 122.1192
L113.8268 124.1192
" />
<path d="M115.6364 124.1192
L115.6364 123.0715
" />
<path d="M115.6364 123.0715
L115.5411 122.8811
" />
<path d="M115.5411 122.8811
L115.3507 122.7858
" />
<path d="M115.3507 122.7858
L114.9697 122.7858
" />
<path d="M114.9697 122.7858
L114.7792 122.8811
" />
<path d="M115.6364 124.0239
L115.4459 124.1192
" />
<path d="M115.4459 124.1192
L114.9697 124.1192
" />
<path d="M114.9697 124.1192
L114.7792 124.0239
" />
<path d="M114.7792 124.0239
L114.6840 123.8334
" />
<path d="M114.6840 123.8334
L114.6840 123.6430
" />
<path d="M114.6840 123.6430
L114.7792 123.4525
" />
<path d="M114.7792 123.4525
L114.9697 123.3573
" />
<path d="M114.9697 123.3573
L115.4459 123.3573
" />
<path d="M115.4459 123.3573
L115.6364 123.2620
" />
<path d="M116.5887 122.7858
L116.5887 124.7858
" />
<path d="M116.5887 122.8811
L116.7792 122.7858
" />
<path d="M116.7792 122.7858
L117.1602 122.7858
" />
<path d="M117.1602 122.7858
L117.3507 122.8811
" />
<path d="M117.3507 122.8811
L117.4459 122.9763
" />
<path d="M117.4459 122.9763
L117.5411 123.1668
" />
<path d="M117.5411 123.1668
L117.5411 123.7382
" />
<path d="M117.5411 123.7382
L117.4459 123.9287
" />
<path d="M117.4459 123.9287
L117.3507 124.0239
" />
<path d="M117.3507 124.0239
L117.1602 124.1192
" />
<path d="M117.1602 124.1192
L116.7792 124.1192
" />
<path d="M116.7792 124.1192
L116.5887 124.0239
" />
<path d="M118.3983 123.9287
L118.4935 124.0239
" />
<path d="M118.4935 124.0239
L118.3983 124.1192
" />
<path d="M118.3983 124.1192
L118.3030 124.0239
" />
<path d="M118.3030 124.0239
L118.3983 123.9287
" />
<path d="M118.3983 123.9287
L118.3983 124.1192
" />
<path d="M118.3983 122.8811
L118.4935 122.9763
" />
<path d="M118.4935 122.9763
L118.3983 123.0715
" />
<path d="M118.3983 123.0715
L118.3030 122.9763
" />
<path d="M118.3030 122.9763
L118.3983 122.8811
" />
<path d="M118.3983 122.8811
L118.3983 123.0715
" />
</g></g> 
</svg>
