%TF.GenerationSoftware,KiCad,Pcbnew,9.0.0*%
%TF.CreationDate,2025-03-09T13:03:08+03:00*%
%TF.ProjectId,PM_DBG-FFC,504d5f44-4247-42d4-9646-432e6b696361,rev?*%
%TF.SameCoordinates,Original*%
%TF.FileFunction,Copper,L1,Top*%
%TF.FilePolarity,Positive*%
%FSLAX46Y46*%
G04 Gerber Fmt 4.6, Leading zero omitted, Abs format (unit mm)*
G04 Created by KiCad (PCBNEW 9.0.0) date 2025-03-09 13:03:08*
%MOMM*%
%LPD*%
G01*
G04 APERTURE LIST*
%TA.AperFunction,SMDPad,CuDef*%
%ADD10R,2.510000X1.000000*%
%TD*%
%TA.AperFunction,SMDPad,CuDef*%
%ADD11R,1.803400X0.635000*%
%TD*%
%TA.AperFunction,SMDPad,CuDef*%
%ADD12R,2.997200X2.590800*%
%TD*%
%TA.AperFunction,Conductor*%
%ADD13C,0.600000*%
%TD*%
G04 APERTURE END LIST*
D10*
%TO.P,J3,1,Pin_1*%
%TO.N,/L01*%
X-1655000Y16510000D03*
%TO.P,J3,2,Pin_2*%
%TO.N,/L02_in*%
X1655000Y13970000D03*
%TO.P,J3,3,Pin_3*%
%TO.N,/L02_out*%
X-1655000Y11430000D03*
%TO.P,J3,4,Pin_4*%
%TO.N,/L03_in*%
X1655000Y8890000D03*
%TO.P,J3,5,Pin_5*%
%TO.N,/L03_out*%
X-1655000Y6350000D03*
%TO.P,J3,6,Pin_6*%
%TO.N,/L04*%
X1655000Y3810000D03*
%TO.P,J3,7,Pin_7*%
%TO.N,/L05*%
X-1655000Y1270000D03*
%TO.P,J3,8,Pin_8*%
%TO.N,/L06*%
X1655000Y-1270000D03*
%TO.P,J3,9,Pin_9*%
%TO.N,/L07*%
X-1655000Y-3810000D03*
%TO.P,J3,10,Pin_10*%
%TO.N,/L08*%
X1655000Y-6350000D03*
%TO.P,J3,11,Pin_11*%
%TO.N,/L09*%
X-1655000Y-8890000D03*
%TO.P,J3,12,Pin_12*%
%TO.N,/L10*%
X1655000Y-11430000D03*
%TO.P,J3,13,Pin_13*%
%TO.N,/L11*%
X-1655000Y-13970000D03*
%TO.P,J3,14,Pin_14*%
%TO.N,/L12*%
X1655000Y-16510000D03*
%TD*%
D11*
%TO.P,J1,1,Pin_1*%
%TO.N,/L01*%
X-10444000Y5499992D03*
%TO.P,J1,2,Pin_2*%
%TO.N,/L02_in*%
X-10444000Y4499994D03*
%TO.P,J1,3,Pin_3*%
%TO.N,/L03_in*%
X-10444000Y3499996D03*
%TO.P,J1,4,Pin_4*%
%TO.N,/L04*%
X-10444000Y2499998D03*
%TO.P,J1,5,Pin_5*%
%TO.N,/L05*%
X-10444000Y1500000D03*
%TO.P,J1,6,Pin_6*%
%TO.N,/L06*%
X-10444000Y500000D03*
%TO.P,J1,7,Pin_7*%
%TO.N,/L07*%
X-10444000Y-500000D03*
%TO.P,J1,8,Pin_8*%
%TO.N,/L08*%
X-10444000Y-1500000D03*
%TO.P,J1,9,Pin_9*%
%TO.N,/L09*%
X-10444000Y-2499998D03*
%TO.P,J1,10,Pin_10*%
%TO.N,/L10*%
X-10444000Y-3499996D03*
%TO.P,J1,11,Pin_11*%
%TO.N,/L11*%
X-10444000Y-4499994D03*
%TO.P,J1,12,Pin_11*%
%TO.N,/L12*%
X-10444000Y-5499992D03*
D12*
%TO.P,J1,13,Pin_11*%
%TO.N,unconnected-(J1-Pin_11-Pad13)_1*%
X-12614001Y7850003D03*
%TO.N,unconnected-(J1-Pin_11-Pad13)*%
X-12614001Y-7850003D03*
%TD*%
D11*
%TO.P,J2,1,Pin_1*%
%TO.N,/L12*%
X10444000Y-5499992D03*
%TO.P,J2,2,Pin_2*%
%TO.N,/L11*%
X10444000Y-4499994D03*
%TO.P,J2,3,Pin_3*%
%TO.N,/L10*%
X10444000Y-3499996D03*
%TO.P,J2,4,Pin_4*%
%TO.N,/L09*%
X10444000Y-2499998D03*
%TO.P,J2,5,Pin_5*%
%TO.N,/L08*%
X10444000Y-1500000D03*
%TO.P,J2,6,Pin_6*%
%TO.N,/L07*%
X10444000Y-500000D03*
%TO.P,J2,7,Pin_7*%
%TO.N,/L06*%
X10444000Y500000D03*
%TO.P,J2,8,Pin_8*%
%TO.N,/L05*%
X10444000Y1500000D03*
%TO.P,J2,9,Pin_9*%
%TO.N,/L04*%
X10444000Y2499998D03*
%TO.P,J2,10,Pin_10*%
%TO.N,/L03_out*%
X10444000Y3499996D03*
%TO.P,J2,11,Pin_11*%
%TO.N,/L02_out*%
X10444000Y4499994D03*
%TO.P,J2,12,Pin_11*%
%TO.N,/L01*%
X10444000Y5499992D03*
D12*
%TO.P,J2,13,Pin_11*%
%TO.N,unconnected-(J2-Pin_11-Pad13)_1*%
X12614001Y-7850003D03*
%TO.N,unconnected-(J2-Pin_11-Pad13)*%
X12614001Y7850003D03*
%TD*%
D13*
%TO.N,/L09*%
X1810000Y-8890000D02*
X8200002Y-2499998D01*
X-10444000Y-2499998D02*
X-8045002Y-2499998D01*
X8200002Y-2499998D02*
X10444000Y-2499998D01*
X-8045002Y-2499998D02*
X-1655000Y-8890000D01*
X-1655000Y-8890000D02*
X1810000Y-8890000D01*
%TO.N,/L06*%
X-3411000Y469000D02*
X-1672000Y-1270000D01*
X3425000Y500000D02*
X10444000Y500000D01*
X-10444000Y500000D02*
X-10413000Y469000D01*
X-10413000Y469000D02*
X-3411000Y469000D01*
X1655000Y-1270000D02*
X3425000Y500000D01*
X-1672000Y-1270000D02*
X1655000Y-1270000D01*
%TO.N,/L05*%
X-1655000Y1270000D02*
X-1425000Y1500000D01*
X-9500000Y1500000D02*
X-9270000Y1270000D01*
X-1425000Y1500000D02*
X10444000Y1500000D01*
X-10444000Y1500000D02*
X-9500000Y1500000D01*
X-9270000Y1270000D02*
X-1655000Y1270000D01*
%TO.N,/L08*%
X-10444000Y-1500000D02*
X-6722000Y-1500000D01*
X1950000Y-6350000D02*
X6800000Y-1500000D01*
X-1872000Y-6350000D02*
X1655000Y-6350000D01*
X1655000Y-6350000D02*
X1950000Y-6350000D01*
X-6722000Y-1500000D02*
X-1872000Y-6350000D01*
X6800000Y-1500000D02*
X10444000Y-1500000D01*
%TO.N,/L01*%
X1872000Y16510000D02*
X-1655000Y16510000D01*
X-10444000Y7721000D02*
X-1655000Y16510000D01*
X10444000Y5499992D02*
X10444000Y7938000D01*
X-10444000Y5499992D02*
X-10444000Y7721000D01*
X10444000Y7938000D02*
X1872000Y16510000D01*
%TO.N,/L03_in*%
X-7262004Y3499996D02*
X-1872000Y8890000D01*
X-10444000Y3499996D02*
X-7262004Y3499996D01*
X-1872000Y8890000D02*
X1655000Y8890000D01*
%TO.N,/L07*%
X2090000Y-3810000D02*
X5400000Y-500000D01*
X5400000Y-500000D02*
X10444000Y-500000D01*
X-1655000Y-3810000D02*
X2090000Y-3810000D01*
X-2790000Y-3810000D02*
X-1655000Y-3810000D01*
X-6100000Y-500000D02*
X-2790000Y-3810000D01*
X-10444000Y-500000D02*
X-6100000Y-500000D01*
%TO.N,/L10*%
X1655000Y-11430000D02*
X1655000Y-10330000D01*
X-3411000Y-9989000D02*
X-1970000Y-11430000D01*
X-3411000Y-9089000D02*
X-3411000Y-9989000D01*
X1655000Y-10330000D02*
X8485004Y-3499996D01*
X-10444000Y-3499996D02*
X-9000004Y-3499996D01*
X8485004Y-3499996D02*
X10444000Y-3499996D01*
X-9000004Y-3499996D02*
X-3411000Y-9089000D01*
X-1970000Y-11430000D02*
X1655000Y-11430000D01*
%TO.N,/L11*%
X9041300Y-4958700D02*
X9041300Y-6800700D01*
X1872000Y-13970000D02*
X-1655000Y-13970000D01*
X9500006Y-4499994D02*
X9041300Y-4958700D01*
X-9041300Y-4681492D02*
X-9041300Y-5858700D01*
X10444000Y-4499994D02*
X9500006Y-4499994D01*
X9041300Y-6800700D02*
X1872000Y-13970000D01*
X-1655000Y-13245000D02*
X-1655000Y-13970000D01*
X-9222798Y-4499994D02*
X-9041300Y-4681492D01*
X-9041300Y-5858700D02*
X-1655000Y-13245000D01*
X-10444000Y-4499994D02*
X-9222798Y-4499994D01*
%TO.N,/L02_in*%
X-3411000Y10429000D02*
X-3411000Y12431000D01*
X-9340006Y4499994D02*
X-3411000Y10429000D01*
X-3411000Y12431000D02*
X-1872000Y13970000D01*
X-10444000Y4499994D02*
X-9340006Y4499994D01*
X-1872000Y13970000D02*
X1655000Y13970000D01*
%TO.N,/L04*%
X1655000Y3810000D02*
X2965002Y2499998D01*
X-10444000Y2499998D02*
X344998Y2499998D01*
X344998Y2499998D02*
X1655000Y3810000D01*
X2965002Y2499998D02*
X10444000Y2499998D01*
%TO.N,/L12*%
X-10444000Y-5499992D02*
X-10444000Y-7938000D01*
X-10444000Y-7938000D02*
X-1872000Y-16510000D01*
X10444000Y-7721000D02*
X10444000Y-5499992D01*
X1655000Y-16510000D02*
X10444000Y-7721000D01*
X-1872000Y-16510000D02*
X1655000Y-16510000D01*
%TO.N,/L03_out*%
X6240006Y6350000D02*
X9090010Y3499996D01*
X-1655000Y6350000D02*
X6240006Y6350000D01*
X9090010Y3499996D02*
X10444000Y3499996D01*
%TO.N,/L02_out*%
X2292792Y11430000D02*
X9222798Y4499994D01*
X9222798Y4499994D02*
X10444000Y4499994D01*
X-1655000Y11430000D02*
X2292792Y11430000D01*
%TD*%
M02*
