%TF.GenerationSoftware,KiCad,Pcbnew,9.0.3*%
%TF.CreationDate,2025-07-19T20:22:36+03:00*%
%TF.ProjectId,PMCNV-AI4T,504d434e-562d-4414-9934-542e6b696361,rev?*%
%TF.SameCoordinates,Original*%
%TF.FileFunction,Copper,L2,Bot*%
%TF.FilePolarity,Positive*%
%FSLAX46Y46*%
G04 Gerber Fmt 4.6, Leading zero omitted, Abs format (unit mm)*
G04 Created by KiCad (PCBNEW 9.0.3) date 2025-07-19 20:22:36*
%MOMM*%
%LPD*%
G01*
G04 APERTURE LIST*
G04 Aperture macros list*
%AMFreePoly0*
4,1,23,0.500000,-0.750000,0.000000,-0.750000,0.000000,-0.745722,-0.065263,-0.745722,-0.191342,-0.711940,-0.304381,-0.646677,-0.396677,-0.554381,-0.461940,-0.441342,-0.495722,-0.315263,-0.495722,-0.250000,-0.500000,-0.250000,-0.500000,0.250000,-0.495722,0.250000,-0.495722,0.315263,-0.461940,0.441342,-0.396677,0.554381,-0.304381,0.646677,-0.191342,0.711940,-0.065263,0.745722,0.000000,0.745722,
0.000000,0.750000,0.500000,0.750000,0.500000,-0.750000,0.500000,-0.750000,$1*%
%AMFreePoly1*
4,1,23,0.000000,0.745722,0.065263,0.745722,0.191342,0.711940,0.304381,0.646677,0.396677,0.554381,0.461940,0.441342,0.495722,0.315263,0.495722,0.250000,0.500000,0.250000,0.500000,-0.250000,0.495722,-0.250000,0.495722,-0.315263,0.461940,-0.441342,0.396677,-0.554381,0.304381,-0.646677,0.191342,-0.711940,0.065263,-0.745722,0.000000,-0.745722,0.000000,-0.750000,-0.500000,-0.750000,
-0.500000,0.750000,0.000000,0.750000,0.000000,0.745722,0.000000,0.745722,$1*%
G04 Aperture macros list end*
%TA.AperFunction,ComponentPad*%
%ADD10C,1.725000*%
%TD*%
%TA.AperFunction,ComponentPad*%
%ADD11C,1.700000*%
%TD*%
%TA.AperFunction,ComponentPad*%
%ADD12C,2.200000*%
%TD*%
%TA.AperFunction,SMDPad,CuDef*%
%ADD13FreePoly0,0.000000*%
%TD*%
%TA.AperFunction,SMDPad,CuDef*%
%ADD14FreePoly1,0.000000*%
%TD*%
%TA.AperFunction,SMDPad,CuDef*%
%ADD15R,1.800000X0.600000*%
%TD*%
%TA.AperFunction,SMDPad,CuDef*%
%ADD16R,3.000000X2.600000*%
%TD*%
%TA.AperFunction,ViaPad*%
%ADD17C,0.800000*%
%TD*%
%TA.AperFunction,Conductor*%
%ADD18C,0.300000*%
%TD*%
%TA.AperFunction,Conductor*%
%ADD19C,0.600000*%
%TD*%
G04 APERTURE END LIST*
D10*
%TO.P,U4,1*%
%TO.N,GND_MCU*%
X-23000000Y7000000D03*
%TD*%
D11*
%TO.P,PS1,1,Vin*%
%TO.N,+5V_MCU*%
X625000Y45615000D03*
%TO.P,PS1,2,GND*%
%TO.N,GND_MCU*%
X625000Y43075000D03*
%TO.P,PS1,4,0V*%
%TO.N,GND_CNV*%
X625000Y37995000D03*
%TO.P,PS1,6,+V*%
%TO.N,+5V_CNV*%
X625000Y32915000D03*
%TD*%
D12*
%TO.P,J1,1,Pin_1*%
%TO.N,unconnected-(J1-Pin_1-Pad1)*%
X35000000Y6250000D03*
%TO.P,J1,2,Pin_2*%
%TO.N,unconnected-(J1-Pin_2-Pad2)*%
X35000000Y9750000D03*
%TO.P,J1,3,Pin_3*%
%TO.N,/CHCOM*%
X35000000Y13250000D03*
%TO.P,J1,4,Pin_4*%
%TO.N,/CH3*%
X35000000Y16750000D03*
%TO.P,J1,5,Pin_5*%
%TO.N,/CHCOM*%
X35000000Y20250000D03*
%TO.P,J1,6,Pin_6*%
%TO.N,/CH2*%
X35000000Y23750000D03*
%TO.P,J1,7,Pin_7*%
%TO.N,/CHCOM*%
X35000000Y27250000D03*
%TO.P,J1,8,Pin_8*%
%TO.N,/CH1*%
X35000000Y30750000D03*
%TO.P,J1,9,Pin_9*%
%TO.N,/CHCOM*%
X35000000Y34250000D03*
%TO.P,J1,10,Pin_10*%
%TO.N,/CH0*%
X35000000Y37750000D03*
%TD*%
D10*
%TO.P,U5,1*%
%TO.N,GND_CNV*%
X-16000000Y-3000000D03*
%TD*%
D13*
%TO.P,JP6,1,A*%
%TO.N,/CS1_MCU*%
X-23150000Y22500000D03*
D14*
%TO.P,JP6,2,B*%
%TO.N,/CS_T_MCU*%
X-21850000Y22500000D03*
%TD*%
D13*
%TO.P,JP8,1,A*%
%TO.N,/CS3_MCU*%
X-23150000Y16500000D03*
D14*
%TO.P,JP8,2,B*%
%TO.N,/CS_T_MCU*%
X-21850000Y16500000D03*
%TD*%
D15*
%TO.P,JM2,1,Pin_1*%
%TO.N,GND_MCU*%
X-36546000Y29500000D03*
%TO.P,JM2,2,Pin_2*%
X-36546000Y28500000D03*
%TO.P,JM2,3,Pin_3*%
%TO.N,+5V_MCU*%
X-36546000Y27500000D03*
%TO.P,JM2,4,Pin_4*%
X-36546000Y26500000D03*
%TO.P,JM2,5,Pin_5*%
%TO.N,+3.3V_MCU*%
X-36546000Y25500000D03*
%TO.P,JM2,6,Pin_6*%
X-36546000Y24500000D03*
%TO.P,JM2,7,Pin_7*%
%TO.N,GND_MCU*%
X-36546000Y23500000D03*
%TO.P,JM2,8,Pin_8*%
%TO.N,/MOSI_MCU*%
X-36546000Y22500000D03*
%TO.P,JM2,9,Pin_9*%
%TO.N,/MISO_MCU*%
X-36546000Y21500000D03*
%TO.P,JM2,10,Pin_10*%
%TO.N,/SCK_MCU*%
X-36546000Y20500000D03*
%TO.P,JM2,11,Pin_11*%
%TO.N,/CS0_MCU*%
X-36546000Y19500000D03*
%TO.P,JM2,12,Pin_11*%
%TO.N,/CS1_MCU*%
X-36546000Y18500000D03*
%TO.P,JM2,13,Pin_11*%
%TO.N,/CS2_MCU*%
X-36546000Y17500000D03*
%TO.P,JM2,14,Pin_11*%
%TO.N,/CS3_MCU*%
X-36546000Y16500000D03*
%TO.P,JM2,15,Pin_11*%
%TO.N,GND_MCU*%
X-36546000Y15500000D03*
%TO.P,JM2,16,Pin_11*%
X-36546000Y14500000D03*
%TO.P,JM2,17,Pin_11*%
%TO.N,/SDA_MCU*%
X-36546000Y13500000D03*
%TO.P,JM2,18,Pin_11*%
%TO.N,/SCL_MCU*%
X-36546000Y12500000D03*
%TO.P,JM2,19,Pin_11*%
%TO.N,GND_MCU*%
X-36546000Y11500000D03*
%TO.P,JM2,20,Pin_11*%
X-36546000Y10500000D03*
D16*
%TO.P,JM2,MP1,Pin_11*%
X-34375000Y31850000D03*
%TO.P,JM2,MP2,Pin_11*%
X-34375000Y8150000D03*
%TD*%
D13*
%TO.P,JP5,1,A*%
%TO.N,/CS0_MCU*%
X-23150000Y25500000D03*
D14*
%TO.P,JP5,2,B*%
%TO.N,/CS_T_MCU*%
X-21850000Y25500000D03*
%TD*%
D13*
%TO.P,JP1,1,A*%
%TO.N,/CS0_MCU*%
X-28150000Y25500000D03*
D14*
%TO.P,JP1,2,B*%
%TO.N,/CS_AD_MCU*%
X-26850000Y25500000D03*
%TD*%
D13*
%TO.P,JP7,1,A*%
%TO.N,/CS2_MCU*%
X-23150000Y19500000D03*
D14*
%TO.P,JP7,2,B*%
%TO.N,/CS_T_MCU*%
X-21850000Y19500000D03*
%TD*%
D13*
%TO.P,JP3,1,A*%
%TO.N,/CS2_MCU*%
X-28150000Y19500000D03*
D14*
%TO.P,JP3,2,B*%
%TO.N,/CS_AD_MCU*%
X-26850000Y19500000D03*
%TD*%
D13*
%TO.P,JP2,1,A*%
%TO.N,/CS1_MCU*%
X-28150000Y22500000D03*
D14*
%TO.P,JP2,2,B*%
%TO.N,/CS_AD_MCU*%
X-26850000Y22500000D03*
%TD*%
D13*
%TO.P,JP4,1,A*%
%TO.N,/CS3_MCU*%
X-28150000Y16500000D03*
D14*
%TO.P,JP4,2,B*%
%TO.N,/CS_AD_MCU*%
X-26850000Y16500000D03*
%TD*%
D17*
%TO.N,+4V096_CNV*%
X1000000Y-11500000D03*
X5500000Y4500000D03*
%TO.N,+5V_MCU*%
X-35000000Y26500000D03*
X-34000000Y27500000D03*
X-33000000Y26500000D03*
X-34000000Y26500000D03*
X-33000000Y27500000D03*
X-35000000Y27500000D03*
%TO.N,GND_MCU*%
X-24000000Y27500000D03*
X-35000000Y29500000D03*
X-35000000Y23500000D03*
X-35000000Y15500000D03*
X-32000000Y31000000D03*
X-32000000Y9000000D03*
X-36500000Y7500000D03*
X-35000000Y10500000D03*
X-35000000Y28500000D03*
X-35000000Y11500000D03*
X-32000000Y7500000D03*
X-36500000Y31000000D03*
X-36500000Y9000000D03*
X-25000000Y27500000D03*
X-36500000Y33000000D03*
X-26000000Y27500000D03*
X-35000000Y14500000D03*
X-32000000Y33000000D03*
%TO.N,GND_CNV*%
X4000000Y-1000000D03*
X4000000Y1000000D03*
X-13000000Y11000000D03*
X2000000Y-1000000D03*
X2000000Y1000000D03*
X-11000000Y11000000D03*
X-12000000Y12000000D03*
X3000000Y0D03*
X4500000Y5500000D03*
X3500000Y4500000D03*
X-12000000Y10000000D03*
%TO.N,+3.3V_MCU*%
X-35000000Y24500000D03*
X-34000000Y25500000D03*
X-33000000Y24500000D03*
X-34000000Y24500000D03*
X-35000000Y25500000D03*
X-33000000Y25500000D03*
%TO.N,/CS_AD_CNV*%
X-7000000Y17635000D03*
X2000000Y-5500000D03*
%TO.N,/CS_T_CNV*%
X-7000000Y16365000D03*
X33500000Y42500000D03*
%TO.N,/CS_T_MCU*%
X-22081031Y17918969D03*
%TO.N,/MISO_CNV*%
X-7500000Y14000000D03*
X33500000Y41500000D03*
%TO.N,/MOSI_MCU*%
X-35000000Y22500000D03*
%TO.N,/SCK_CNV*%
X-7500000Y19000000D03*
X33500000Y43500000D03*
X500000Y-5500000D03*
%TO.N,/MISO_MCU*%
X-35000000Y21500000D03*
%TO.N,/SCK_MCU*%
X-35000000Y20500000D03*
%TO.N,/CS_AD_MCU*%
X-26850000Y18000000D03*
X-32500000Y19500000D03*
%TO.N,+5V_CNV_FLT*%
X-3500000Y-14000000D03*
X8500000Y15000000D03*
X23000000Y-14000000D03*
X23000000Y18000000D03*
X4174000Y12500000D03*
X23000000Y-20000000D03*
X-3500000Y-24000000D03*
X23000000Y-4000000D03*
X11000000Y-25000000D03*
X23000000Y34000000D03*
X23000000Y28000000D03*
X23000000Y2000000D03*
X23000000Y12000000D03*
X23000000Y-30000000D03*
%TO.N,/CS1_MCU*%
X-35000000Y18500000D03*
%TO.N,/SDA_MCU*%
X-35000000Y13500000D03*
%TO.N,/CS0_MCU*%
X-35000000Y19500000D03*
%TO.N,/CS3_MCU*%
X-35000000Y16500000D03*
%TO.N,/CS2_MCU*%
X-35000000Y17500000D03*
%TO.N,/SCL_MCU*%
X-35000000Y12500000D03*
%TD*%
D18*
%TO.N,+4V096_CNV*%
X5500000Y-7000000D02*
X1000000Y-11500000D01*
X5500000Y4500000D02*
X5500000Y-7000000D01*
D19*
%TO.N,+5V_MCU*%
X-33000000Y27500000D02*
X-36546000Y27500000D01*
X-33000000Y26500000D02*
X-33000000Y27500000D01*
X-33000000Y26500000D02*
X-36546000Y26500000D01*
X-35000000Y26500000D02*
X-35000000Y27500000D01*
X-34000000Y26500000D02*
X-34000000Y27500000D01*
%TO.N,GND_MCU*%
X-35000000Y15500000D02*
X-36546000Y15500000D01*
X-35000000Y10500000D02*
X-36546000Y10500000D01*
X-35000000Y29500000D02*
X-36546000Y29500000D01*
X-35000000Y28500000D02*
X-36546000Y28500000D01*
X-35000000Y11500000D02*
X-36546000Y11500000D01*
X-35000000Y23500000D02*
X-36546000Y23500000D01*
X-36546000Y14500000D02*
X-35000000Y14500000D01*
%TO.N,+3.3V_MCU*%
X-34000000Y25500000D02*
X-34000000Y24500000D01*
X-35000000Y25500000D02*
X-35000000Y24500000D01*
X-33000000Y24500000D02*
X-36546000Y24500000D01*
X-33000000Y25500000D02*
X-36546000Y25500000D01*
X-33000000Y25500000D02*
X-33000000Y24500000D01*
D18*
%TO.N,/CS_AD_CNV*%
X-9000000Y15635000D02*
X-9000000Y4708520D01*
X811075Y-4749000D02*
X1562075Y-5500000D01*
X-7000000Y17635000D02*
X-9000000Y15635000D01*
X457520Y-4749000D02*
X811075Y-4749000D01*
X1562075Y-5500000D02*
X2000000Y-5500000D01*
X-9000000Y4708520D02*
X457520Y-4749000D01*
%TO.N,/CS_T_CNV*%
X-7000000Y16365000D02*
X-6926480Y16365000D01*
X-6926480Y16365000D02*
X19208520Y42500000D01*
X19208520Y42500000D02*
X33500000Y42500000D01*
%TO.N,/CS_T_MCU*%
X-22081031Y17918969D02*
X-22081031Y16731031D01*
X-21850000Y18150000D02*
X-22081031Y17918969D01*
X-21850000Y22500000D02*
X-21850000Y19500000D01*
X-21850000Y25500000D02*
X-21850000Y22500000D01*
X-21850000Y19500000D02*
X-21850000Y18150000D01*
X-22081031Y16731031D02*
X-21850000Y16500000D01*
%TO.N,/MISO_CNV*%
X-7500000Y14000000D02*
X-6249000Y15251000D01*
X18917040Y41500000D02*
X33500000Y41500000D01*
X-6249000Y16333960D02*
X18917040Y41500000D01*
X-6249000Y15251000D02*
X-6249000Y16333960D01*
D19*
%TO.N,/MOSI_MCU*%
X-35000000Y22500000D02*
X-36546000Y22500000D01*
D18*
%TO.N,/SCK_CNV*%
X29725288Y43249000D02*
X29976288Y43500000D01*
X19249000Y43249000D02*
X29725288Y43249000D01*
X-7500000Y19000000D02*
X-9500000Y17000000D01*
X-9500000Y4500000D02*
X500000Y-5500000D01*
X-9500000Y17000000D02*
X-9500000Y4500000D01*
X-5000000Y19000000D02*
X19249000Y43249000D01*
X29976288Y43500000D02*
X33500000Y43500000D01*
X-7500000Y19000000D02*
X-5000000Y19000000D01*
D19*
%TO.N,/MISO_MCU*%
X-35000000Y21500000D02*
X-36546000Y21500000D01*
%TO.N,/SCK_MCU*%
X-35000000Y20500000D02*
X-36546000Y20500000D01*
D18*
%TO.N,/CS_AD_MCU*%
X-26850000Y19500000D02*
X-26850000Y18000000D01*
X-32500000Y20000000D02*
X-32500000Y19500000D01*
X-26850000Y24000000D02*
X-28500000Y24000000D01*
X-26850000Y18000000D02*
X-26850000Y16500000D01*
X-26850000Y25500000D02*
X-26850000Y22500000D01*
X-26850000Y22500000D02*
X-26850000Y24000000D01*
X-28500000Y24000000D02*
X-32500000Y20000000D01*
%TO.N,+5V_CNV_FLT*%
X20000000Y15000000D02*
X23000000Y12000000D01*
X23000000Y-4000000D02*
X23000000Y-14000000D01*
X8500000Y15000000D02*
X20000000Y15000000D01*
X23000000Y-14000000D02*
X23000000Y-20000000D01*
X23000000Y-20000000D02*
X23000000Y-30000000D01*
X23000000Y12000000D02*
X23000000Y2000000D01*
X18000000Y-25000000D02*
X11000000Y-25000000D01*
X23000000Y-30000000D02*
X18000000Y-25000000D01*
X6251000Y10423000D02*
X6251000Y-7311075D01*
X23000000Y18000000D02*
X23000000Y28000000D01*
X23000000Y18000000D02*
X23000000Y12000000D01*
X4174000Y12500000D02*
X6251000Y10423000D01*
X23000000Y28000000D02*
X23000000Y34000000D01*
X23000000Y2000000D02*
X23000000Y-4000000D01*
X-437925Y-14000000D02*
X-3500000Y-14000000D01*
X6251000Y-7311075D02*
X-437925Y-14000000D01*
X-3500000Y-14000000D02*
X-3500000Y-24000000D01*
D19*
%TO.N,/CS1_MCU*%
X-35000000Y18500000D02*
X-36546000Y18500000D01*
D18*
X-28150000Y22046538D02*
X-27354462Y21251000D01*
X-24399000Y21251000D02*
X-23150000Y22500000D01*
X-28150000Y22500000D02*
X-28150000Y22046538D01*
X-28150000Y22500000D02*
X-32150000Y18500000D01*
X-32150000Y18500000D02*
X-35000000Y18500000D01*
X-27354462Y21251000D02*
X-24399000Y21251000D01*
D19*
%TO.N,/SDA_MCU*%
X-36546000Y13500000D02*
X-35000000Y13500000D01*
D18*
%TO.N,/CS0_MCU*%
X-34150000Y19500000D02*
X-35000000Y19500000D01*
X-24256000Y26606000D02*
X-23150000Y25500000D01*
X-28150000Y25500000D02*
X-34150000Y19500000D01*
X-27497462Y26606000D02*
X-24256000Y26606000D01*
X-28150000Y25953462D02*
X-27497462Y26606000D01*
X-28150000Y25500000D02*
X-28150000Y25953462D01*
D19*
X-35000000Y19500000D02*
X-36546000Y19500000D01*
%TO.N,/CS3_MCU*%
X-35000000Y16500000D02*
X-36546000Y16500000D01*
D18*
X-27497462Y15394000D02*
X-24256000Y15394000D01*
X-28150000Y16500000D02*
X-28150000Y16046538D01*
X-28150000Y16500000D02*
X-35000000Y16500000D01*
X-28150000Y16046538D02*
X-27497462Y15394000D01*
X-24256000Y15394000D02*
X-23150000Y16500000D01*
%TO.N,/CS2_MCU*%
X-28150000Y19500000D02*
X-30150000Y17500000D01*
X-30150000Y17500000D02*
X-35000000Y17500000D01*
X-27353462Y20750000D02*
X-24400000Y20750000D01*
X-28150000Y19953462D02*
X-27353462Y20750000D01*
X-24400000Y20750000D02*
X-23150000Y19500000D01*
D19*
X-35000000Y17500000D02*
X-36546000Y17500000D01*
D18*
X-28150000Y19500000D02*
X-28150000Y19953462D01*
D19*
%TO.N,/SCL_MCU*%
X-36546000Y12500000D02*
X-35000000Y12500000D01*
%TD*%
%TA.AperFunction,Conductor*%
%TO.N,GND_CNV*%
G36*
X26006922Y49498720D02*
G01*
X26097266Y49488541D01*
X26124331Y49482364D01*
X26203540Y49454648D01*
X26228553Y49442602D01*
X26299606Y49397957D01*
X26321313Y49380645D01*
X26380644Y49321314D01*
X26397957Y49299605D01*
X26442600Y49228556D01*
X26454648Y49203538D01*
X26482362Y49124334D01*
X26488540Y49097265D01*
X26498720Y49006924D01*
X26499500Y48993039D01*
X26499500Y48892683D01*
X26530044Y48680236D01*
X26530047Y48680226D01*
X26590517Y48474285D01*
X26679672Y48279062D01*
X26679679Y48279049D01*
X26750898Y48168231D01*
X26794425Y48100500D01*
X26795720Y48098486D01*
X26936275Y47936276D01*
X27060277Y47828828D01*
X27098487Y47795719D01*
X27227531Y47712789D01*
X27279048Y47679680D01*
X27279061Y47679673D01*
X27474284Y47590518D01*
X27474288Y47590517D01*
X27474290Y47590516D01*
X27680231Y47530046D01*
X27680232Y47530046D01*
X27680235Y47530045D01*
X27743584Y47520938D01*
X27892682Y47499500D01*
X27934108Y47499500D01*
X36934108Y47499500D01*
X36996249Y47499500D01*
X37003736Y47499274D01*
X37293796Y47481729D01*
X37308659Y47479924D01*
X37590798Y47428220D01*
X37605335Y47424637D01*
X37879172Y47339305D01*
X37893163Y47334000D01*
X38154743Y47216273D01*
X38167989Y47209320D01*
X38413465Y47060925D01*
X38425776Y47052427D01*
X38472520Y47015806D01*
X38651573Y46875527D01*
X38662781Y46865597D01*
X38865596Y46662782D01*
X38875526Y46651574D01*
X39007406Y46483241D01*
X39052422Y46425783D01*
X39060926Y46413463D01*
X39177398Y46220795D01*
X39209316Y46167996D01*
X39216275Y46154737D01*
X39333997Y45893169D01*
X39339306Y45879168D01*
X39424635Y45605337D01*
X39428219Y45590799D01*
X39479923Y45308660D01*
X39481728Y45293795D01*
X39499274Y45003737D01*
X39499500Y44996250D01*
X39499500Y-44996249D01*
X39499274Y-45003736D01*
X39481728Y-45293794D01*
X39479923Y-45308659D01*
X39428219Y-45590798D01*
X39424635Y-45605336D01*
X39339306Y-45879167D01*
X39333997Y-45893168D01*
X39216275Y-46154736D01*
X39209316Y-46167995D01*
X39060928Y-46413459D01*
X39052422Y-46425782D01*
X38875526Y-46651573D01*
X38865596Y-46662781D01*
X38662781Y-46865596D01*
X38651573Y-46875526D01*
X38425782Y-47052422D01*
X38413459Y-47060928D01*
X38167995Y-47209316D01*
X38154736Y-47216275D01*
X37893168Y-47333997D01*
X37879167Y-47339306D01*
X37605336Y-47424635D01*
X37590798Y-47428219D01*
X37308659Y-47479923D01*
X37293794Y-47481728D01*
X37003736Y-47499274D01*
X36996249Y-47499500D01*
X27892682Y-47499500D01*
X27680235Y-47530044D01*
X27680225Y-47530047D01*
X27474284Y-47590517D01*
X27279061Y-47679672D01*
X27279048Y-47679679D01*
X27098485Y-47795720D01*
X26936275Y-47936275D01*
X26795720Y-48098485D01*
X26679679Y-48279048D01*
X26679672Y-48279061D01*
X26590517Y-48474284D01*
X26530047Y-48680225D01*
X26530044Y-48680235D01*
X26499500Y-48892682D01*
X26499500Y-48993038D01*
X26498720Y-49006922D01*
X26498720Y-49006923D01*
X26488540Y-49097264D01*
X26482362Y-49124333D01*
X26454648Y-49203537D01*
X26442600Y-49228555D01*
X26397957Y-49299604D01*
X26380644Y-49321313D01*
X26321313Y-49380644D01*
X26299604Y-49397957D01*
X26228555Y-49442600D01*
X26203537Y-49454648D01*
X26124333Y-49482362D01*
X26097264Y-49488540D01*
X26017075Y-49497576D01*
X26006921Y-49498720D01*
X25993038Y-49499500D01*
X18006962Y-49499500D01*
X17993078Y-49498720D01*
X17980553Y-49497308D01*
X17902735Y-49488540D01*
X17875666Y-49482362D01*
X17796462Y-49454648D01*
X17771444Y-49442600D01*
X17700395Y-49397957D01*
X17678686Y-49380644D01*
X17619355Y-49321313D01*
X17602042Y-49299604D01*
X17557399Y-49228555D01*
X17545351Y-49203537D01*
X17543861Y-49199280D01*
X17517636Y-49124331D01*
X17511459Y-49097263D01*
X17501280Y-49006922D01*
X17500500Y-48993038D01*
X17500500Y-48892683D01*
X17500500Y-48892682D01*
X17469954Y-48680231D01*
X17409484Y-48474290D01*
X17409483Y-48474288D01*
X17409482Y-48474284D01*
X17320327Y-48279061D01*
X17320320Y-48279048D01*
X17249102Y-48168231D01*
X17204281Y-48098487D01*
X17124227Y-48006100D01*
X17063724Y-47936275D01*
X16901514Y-47795720D01*
X16901513Y-47795719D01*
X16829982Y-47749749D01*
X16720951Y-47679679D01*
X16720938Y-47679672D01*
X16525715Y-47590517D01*
X16319774Y-47530047D01*
X16319764Y-47530044D01*
X16128754Y-47502582D01*
X16107318Y-47499500D01*
X16065892Y-47499500D01*
X-32470007Y-47499500D01*
X-32601791Y-47499500D01*
X-32729087Y-47533608D01*
X-32843213Y-47599500D01*
X-32843216Y-47599502D01*
X-32936397Y-47692683D01*
X-32936399Y-47692686D01*
X-32967723Y-47746941D01*
X-32971115Y-47752475D01*
X-33165305Y-48051500D01*
X-33172934Y-48062001D01*
X-33395280Y-48336575D01*
X-33403965Y-48346220D01*
X-33653780Y-48596036D01*
X-33663425Y-48604721D01*
X-33937998Y-48827066D01*
X-33948499Y-48834695D01*
X-34244797Y-49027113D01*
X-34256037Y-49033603D01*
X-34570837Y-49194001D01*
X-34582694Y-49199280D01*
X-34912528Y-49325891D01*
X-34924872Y-49329902D01*
X-35266142Y-49421346D01*
X-35278839Y-49424044D01*
X-35627783Y-49479310D01*
X-35640690Y-49480667D01*
X-35993510Y-49499158D01*
X-36006490Y-49499158D01*
X-36359311Y-49480667D01*
X-36372218Y-49479310D01*
X-36721162Y-49424044D01*
X-36733859Y-49421346D01*
X-37075130Y-49329902D01*
X-37087474Y-49325891D01*
X-37417308Y-49199280D01*
X-37429165Y-49194001D01*
X-37559663Y-49127509D01*
X-37743971Y-49033599D01*
X-37755190Y-49027122D01*
X-38051508Y-48834691D01*
X-38062002Y-48827066D01*
X-38336576Y-48604721D01*
X-38346221Y-48596036D01*
X-38596037Y-48346220D01*
X-38604722Y-48336575D01*
X-38741044Y-48168231D01*
X-38827074Y-48061992D01*
X-38834689Y-48051511D01*
X-39027121Y-47755190D01*
X-39033597Y-47743976D01*
X-39194007Y-47429153D01*
X-39199276Y-47417317D01*
X-39325894Y-47087468D01*
X-39329903Y-47075129D01*
X-39334748Y-47057048D01*
X-39421349Y-46733852D01*
X-39424045Y-46721161D01*
X-39431098Y-46676632D01*
X-39471623Y-46420760D01*
X-39479311Y-46372217D01*
X-39480668Y-46359310D01*
X-39499330Y-46003222D01*
X-39499500Y-45996732D01*
X-39499500Y-45862332D01*
X-38100500Y-45862332D01*
X-38100500Y-46137667D01*
X-38100499Y-46137684D01*
X-38064562Y-46410655D01*
X-38064561Y-46410660D01*
X-38064560Y-46410666D01*
X-38041035Y-46498462D01*
X-37993296Y-46676630D01*
X-37887925Y-46931017D01*
X-37887920Y-46931028D01*
X-37817832Y-47052422D01*
X-37750249Y-47169479D01*
X-37750247Y-47169482D01*
X-37750246Y-47169483D01*
X-37582630Y-47387926D01*
X-37582624Y-47387933D01*
X-37387934Y-47582623D01*
X-37387927Y-47582629D01*
X-37261457Y-47679672D01*
X-37169479Y-47750249D01*
X-37057294Y-47815019D01*
X-36931029Y-47887919D01*
X-36931024Y-47887921D01*
X-36931021Y-47887923D01*
X-36676632Y-47993295D01*
X-36410666Y-48064560D01*
X-36137674Y-48100500D01*
X-36137667Y-48100500D01*
X-35862333Y-48100500D01*
X-35862326Y-48100500D01*
X-35589334Y-48064560D01*
X-35323368Y-47993295D01*
X-35068979Y-47887923D01*
X-34830521Y-47750249D01*
X-34612072Y-47582628D01*
X-34417372Y-47387928D01*
X-34249751Y-47169479D01*
X-34112077Y-46931021D01*
X-34006705Y-46676632D01*
X-33935440Y-46410666D01*
X-33899500Y-46137674D01*
X-33899500Y-45862326D01*
X-33935440Y-45589334D01*
X-34006705Y-45323368D01*
X-34112077Y-45068979D01*
X-34224626Y-44874038D01*
X-10600500Y-44874038D01*
X-10600500Y-45125961D01*
X-10561090Y-45374785D01*
X-10483240Y-45614383D01*
X-10368868Y-45838848D01*
X-10220799Y-46042649D01*
X-10220795Y-46042654D01*
X-10042655Y-46220794D01*
X-10042650Y-46220798D01*
X-9864883Y-46349952D01*
X-9838845Y-46368870D01*
X-9695816Y-46441747D01*
X-9614384Y-46483239D01*
X-9614382Y-46483239D01*
X-9614379Y-46483241D01*
X-9374785Y-46561090D01*
X-9125962Y-46600500D01*
X-9125961Y-46600500D01*
X-8874039Y-46600500D01*
X-8874038Y-46600500D01*
X-8625215Y-46561090D01*
X-8385621Y-46483241D01*
X-8161155Y-46368870D01*
X-7957344Y-46220793D01*
X-7779207Y-46042656D01*
X-7631130Y-45838845D01*
X-7516759Y-45614379D01*
X-7438910Y-45374785D01*
X-7399500Y-45125962D01*
X-7399500Y-44874038D01*
X13399500Y-44874038D01*
X13399500Y-45125961D01*
X13438910Y-45374785D01*
X13516760Y-45614383D01*
X13631132Y-45838848D01*
X13779201Y-46042649D01*
X13779205Y-46042654D01*
X13957345Y-46220794D01*
X13957350Y-46220798D01*
X14135117Y-46349952D01*
X14161155Y-46368870D01*
X14304184Y-46441747D01*
X14385616Y-46483239D01*
X14385618Y-46483239D01*
X14385621Y-46483241D01*
X14625215Y-46561090D01*
X14874038Y-46600500D01*
X14874039Y-46600500D01*
X15125961Y-46600500D01*
X15125962Y-46600500D01*
X15374785Y-46561090D01*
X15614379Y-46483241D01*
X15838845Y-46368870D01*
X16042656Y-46220793D01*
X16220793Y-46042656D01*
X16351806Y-45862332D01*
X19899500Y-45862332D01*
X19899500Y-46137667D01*
X19899501Y-46137684D01*
X19935438Y-46410655D01*
X19935439Y-46410660D01*
X19935440Y-46410666D01*
X19958965Y-46498462D01*
X20006704Y-46676630D01*
X20112075Y-46931017D01*
X20112080Y-46931028D01*
X20182168Y-47052422D01*
X20249751Y-47169479D01*
X20249753Y-47169482D01*
X20249754Y-47169483D01*
X20417370Y-47387926D01*
X20417376Y-47387933D01*
X20612066Y-47582623D01*
X20612073Y-47582629D01*
X20738543Y-47679672D01*
X20830521Y-47750249D01*
X20942706Y-47815019D01*
X21068971Y-47887919D01*
X21068976Y-47887921D01*
X21068979Y-47887923D01*
X21323368Y-47993295D01*
X21589334Y-48064560D01*
X21862326Y-48100500D01*
X21862333Y-48100500D01*
X22137667Y-48100500D01*
X22137674Y-48100500D01*
X22410666Y-48064560D01*
X22676632Y-47993295D01*
X22931021Y-47887923D01*
X23169479Y-47750249D01*
X23387928Y-47582628D01*
X23582628Y-47387928D01*
X23750249Y-47169479D01*
X23887923Y-46931021D01*
X23993295Y-46676632D01*
X24064560Y-46410666D01*
X24100500Y-46137674D01*
X24100500Y-45862326D01*
X24064560Y-45589334D01*
X23993295Y-45323368D01*
X23887923Y-45068979D01*
X23775374Y-44874038D01*
X27399500Y-44874038D01*
X27399500Y-45125961D01*
X27438910Y-45374785D01*
X27516760Y-45614383D01*
X27631132Y-45838848D01*
X27779201Y-46042649D01*
X27779205Y-46042654D01*
X27957345Y-46220794D01*
X27957350Y-46220798D01*
X28135117Y-46349952D01*
X28161155Y-46368870D01*
X28304184Y-46441747D01*
X28385616Y-46483239D01*
X28385618Y-46483239D01*
X28385621Y-46483241D01*
X28625215Y-46561090D01*
X28874038Y-46600500D01*
X28874039Y-46600500D01*
X29125961Y-46600500D01*
X29125962Y-46600500D01*
X29374785Y-46561090D01*
X29614379Y-46483241D01*
X29838845Y-46368870D01*
X30042656Y-46220793D01*
X30220793Y-46042656D01*
X30368870Y-45838845D01*
X30483241Y-45614379D01*
X30561090Y-45374785D01*
X30600500Y-45125962D01*
X30600500Y-44874038D01*
X30561090Y-44625215D01*
X30483241Y-44385621D01*
X30483239Y-44385618D01*
X30483239Y-44385616D01*
X30414013Y-44249754D01*
X30368870Y-44161155D01*
X30256656Y-44006705D01*
X30220798Y-43957350D01*
X30220794Y-43957345D01*
X30042654Y-43779205D01*
X30042649Y-43779201D01*
X29838848Y-43631132D01*
X29838847Y-43631131D01*
X29838845Y-43631130D01*
X29768747Y-43595413D01*
X29614383Y-43516760D01*
X29374785Y-43438910D01*
X29125962Y-43399500D01*
X28874038Y-43399500D01*
X28749626Y-43419205D01*
X28625214Y-43438910D01*
X28385616Y-43516760D01*
X28161151Y-43631132D01*
X27957350Y-43779201D01*
X27957345Y-43779205D01*
X27779205Y-43957345D01*
X27779201Y-43957350D01*
X27631132Y-44161151D01*
X27516760Y-44385616D01*
X27438910Y-44625214D01*
X27399500Y-44874038D01*
X23775374Y-44874038D01*
X23750249Y-44830521D01*
X23582628Y-44612072D01*
X23582623Y-44612066D01*
X23387933Y-44417376D01*
X23387926Y-44417370D01*
X23169483Y-44249754D01*
X23169482Y-44249753D01*
X23169479Y-44249751D01*
X23074407Y-44194861D01*
X22931028Y-44112080D01*
X22931017Y-44112075D01*
X22676630Y-44006704D01*
X22543649Y-43971072D01*
X22410666Y-43935440D01*
X22410660Y-43935439D01*
X22410655Y-43935438D01*
X22137684Y-43899501D01*
X22137679Y-43899500D01*
X22137674Y-43899500D01*
X21862326Y-43899500D01*
X21862320Y-43899500D01*
X21862315Y-43899501D01*
X21589344Y-43935438D01*
X21589337Y-43935439D01*
X21589334Y-43935440D01*
X21533125Y-43950500D01*
X21323369Y-44006704D01*
X21068982Y-44112075D01*
X21068971Y-44112080D01*
X20830516Y-44249754D01*
X20612073Y-44417370D01*
X20612066Y-44417376D01*
X20417376Y-44612066D01*
X20417370Y-44612073D01*
X20249754Y-44830516D01*
X20112080Y-45068971D01*
X20112075Y-45068982D01*
X20006704Y-45323369D01*
X19935441Y-45589331D01*
X19935438Y-45589344D01*
X19899501Y-45862315D01*
X19899500Y-45862332D01*
X16351806Y-45862332D01*
X16368870Y-45838845D01*
X16376114Y-45824626D01*
X16387659Y-45801971D01*
X16430503Y-45717882D01*
X16483241Y-45614379D01*
X16561090Y-45374785D01*
X16600500Y-45125962D01*
X16600500Y-44874038D01*
X16561090Y-44625215D01*
X16483241Y-44385621D01*
X16483239Y-44385618D01*
X16483239Y-44385616D01*
X16414013Y-44249754D01*
X16368870Y-44161155D01*
X16256656Y-44006705D01*
X16220798Y-43957350D01*
X16220794Y-43957345D01*
X16042654Y-43779205D01*
X16042649Y-43779201D01*
X15838848Y-43631132D01*
X15838847Y-43631131D01*
X15838845Y-43631130D01*
X15768747Y-43595413D01*
X15614383Y-43516760D01*
X15374785Y-43438910D01*
X15125962Y-43399500D01*
X14874038Y-43399500D01*
X14749626Y-43419205D01*
X14625214Y-43438910D01*
X14385616Y-43516760D01*
X14161151Y-43631132D01*
X13957350Y-43779201D01*
X13957345Y-43779205D01*
X13779205Y-43957345D01*
X13779201Y-43957350D01*
X13631132Y-44161151D01*
X13516760Y-44385616D01*
X13438910Y-44625214D01*
X13399500Y-44874038D01*
X-7399500Y-44874038D01*
X-7438910Y-44625215D01*
X-7516759Y-44385621D01*
X-7516761Y-44385618D01*
X-7516761Y-44385616D01*
X-7585987Y-44249754D01*
X-7631130Y-44161155D01*
X-7743344Y-44006705D01*
X-7779202Y-43957350D01*
X-7779206Y-43957345D01*
X-7957346Y-43779205D01*
X-7957351Y-43779201D01*
X-8161152Y-43631132D01*
X-8161153Y-43631131D01*
X-8161155Y-43631130D01*
X-8231253Y-43595413D01*
X-8385617Y-43516760D01*
X-8625215Y-43438910D01*
X-8874038Y-43399500D01*
X-9125962Y-43399500D01*
X-9250374Y-43419205D01*
X-9374786Y-43438910D01*
X-9614384Y-43516760D01*
X-9838849Y-43631132D01*
X-10042650Y-43779201D01*
X-10042655Y-43779205D01*
X-10220795Y-43957345D01*
X-10220799Y-43957350D01*
X-10368868Y-44161151D01*
X-10483240Y-44385616D01*
X-10561090Y-44625214D01*
X-10600500Y-44874038D01*
X-34224626Y-44874038D01*
X-34249751Y-44830521D01*
X-34417372Y-44612072D01*
X-34417377Y-44612066D01*
X-34612067Y-44417376D01*
X-34612074Y-44417370D01*
X-34830517Y-44249754D01*
X-34830518Y-44249753D01*
X-34830521Y-44249751D01*
X-34925593Y-44194861D01*
X-35068972Y-44112080D01*
X-35068983Y-44112075D01*
X-35323370Y-44006704D01*
X-35456351Y-43971072D01*
X-35589334Y-43935440D01*
X-35589340Y-43935439D01*
X-35589345Y-43935438D01*
X-35862316Y-43899501D01*
X-35862321Y-43899500D01*
X-35862326Y-43899500D01*
X-36137674Y-43899500D01*
X-36137680Y-43899500D01*
X-36137685Y-43899501D01*
X-36410656Y-43935438D01*
X-36410663Y-43935439D01*
X-36410666Y-43935440D01*
X-36466875Y-43950500D01*
X-36676631Y-44006704D01*
X-36931018Y-44112075D01*
X-36931029Y-44112080D01*
X-37169484Y-44249754D01*
X-37387927Y-44417370D01*
X-37387934Y-44417376D01*
X-37582624Y-44612066D01*
X-37582630Y-44612073D01*
X-37750246Y-44830516D01*
X-37887920Y-45068971D01*
X-37887925Y-45068982D01*
X-37993296Y-45323369D01*
X-38064559Y-45589331D01*
X-38064562Y-45589344D01*
X-38100499Y-45862315D01*
X-38100500Y-45862332D01*
X-39499500Y-45862332D01*
X-39499500Y-38874038D01*
X-38600500Y-38874038D01*
X-38600500Y-39125961D01*
X-38561090Y-39374785D01*
X-38483240Y-39614383D01*
X-38368868Y-39838848D01*
X-38220799Y-40042649D01*
X-38220795Y-40042654D01*
X-38042655Y-40220794D01*
X-38042650Y-40220798D01*
X-37864883Y-40349952D01*
X-37838845Y-40368870D01*
X-37695816Y-40441747D01*
X-37614384Y-40483239D01*
X-37614382Y-40483239D01*
X-37614379Y-40483241D01*
X-37374785Y-40561090D01*
X-37125962Y-40600500D01*
X-37125961Y-40600500D01*
X-36874039Y-40600500D01*
X-36874038Y-40600500D01*
X-36625215Y-40561090D01*
X-36385621Y-40483241D01*
X-36161155Y-40368870D01*
X-35957344Y-40220793D01*
X-35779207Y-40042656D01*
X-35631130Y-39838845D01*
X-35516759Y-39614379D01*
X-35438910Y-39374785D01*
X-35399500Y-39125962D01*
X-35399500Y-38874038D01*
X-35438910Y-38625215D01*
X-35516759Y-38385621D01*
X-35516761Y-38385618D01*
X-35516761Y-38385616D01*
X-35558253Y-38304184D01*
X-35631130Y-38161155D01*
X-35650048Y-38135117D01*
X-35779202Y-37957350D01*
X-35779206Y-37957345D01*
X-35957346Y-37779205D01*
X-35957351Y-37779201D01*
X-36161152Y-37631132D01*
X-36161153Y-37631131D01*
X-36161155Y-37631130D01*
X-36231253Y-37595413D01*
X-36385617Y-37516760D01*
X-36625215Y-37438910D01*
X-36874038Y-37399500D01*
X-37125962Y-37399500D01*
X-37250374Y-37419205D01*
X-37374786Y-37438910D01*
X-37614384Y-37516760D01*
X-37838849Y-37631132D01*
X-38042650Y-37779201D01*
X-38042655Y-37779205D01*
X-38220795Y-37957345D01*
X-38220799Y-37957350D01*
X-38368868Y-38161151D01*
X-38483240Y-38385616D01*
X-38561090Y-38625214D01*
X-38600500Y-38874038D01*
X-39499500Y-38874038D01*
X-39499500Y-14068995D01*
X-4200501Y-14068995D01*
X-4173582Y-14204322D01*
X-4173579Y-14204332D01*
X-4120779Y-14331804D01*
X-4120772Y-14331817D01*
X-4044116Y-14446540D01*
X-4044115Y-14446541D01*
X-4044114Y-14446542D01*
X-3986818Y-14503838D01*
X-3953334Y-14565159D01*
X-3950500Y-14591518D01*
X-3950500Y-23408481D01*
X-3970185Y-23475520D01*
X-3986819Y-23496162D01*
X-4044112Y-23553454D01*
X-4044115Y-23553458D01*
X-4120772Y-23668182D01*
X-4120779Y-23668195D01*
X-4173579Y-23795667D01*
X-4173582Y-23795677D01*
X-4200500Y-23931004D01*
X-4200500Y-23931007D01*
X-4200500Y-24068993D01*
X-4200500Y-24068995D01*
X-4200501Y-24068995D01*
X-4173582Y-24204322D01*
X-4173579Y-24204332D01*
X-4120779Y-24331804D01*
X-4120772Y-24331817D01*
X-4044115Y-24446541D01*
X-4044112Y-24446545D01*
X-3946546Y-24544111D01*
X-3946542Y-24544114D01*
X-3831818Y-24620771D01*
X-3831805Y-24620778D01*
X-3717360Y-24668182D01*
X-3704328Y-24673580D01*
X-3704324Y-24673580D01*
X-3704323Y-24673581D01*
X-3568996Y-24700500D01*
X-3568993Y-24700500D01*
X-3431005Y-24700500D01*
X-3339959Y-24682389D01*
X-3295672Y-24673580D01*
X-3168189Y-24620775D01*
X-3053458Y-24544114D01*
X-2955886Y-24446542D01*
X-2879225Y-24331811D01*
X-2826420Y-24204328D01*
X-2799500Y-24068993D01*
X-2799500Y-23931007D01*
X-2799500Y-23931004D01*
X-2826419Y-23795677D01*
X-2826420Y-23795676D01*
X-2826420Y-23795672D01*
X-2826422Y-23795667D01*
X-2879222Y-23668195D01*
X-2879229Y-23668182D01*
X-2955886Y-23553458D01*
X-2955889Y-23553454D01*
X-3013181Y-23496162D01*
X-3046666Y-23434839D01*
X-3049500Y-23408481D01*
X-3049500Y-14591518D01*
X-3040856Y-14562077D01*
X-3034332Y-14532091D01*
X-3030578Y-14527075D01*
X-3029815Y-14524479D01*
X-3013181Y-14503837D01*
X-2996163Y-14486819D01*
X-2934840Y-14453334D01*
X-2908482Y-14450500D01*
X-378617Y-14450500D01*
X-378616Y-14450500D01*
X-288252Y-14426286D01*
X-264038Y-14419799D01*
X-161311Y-14360489D01*
X6611489Y-7587689D01*
X6670798Y-7484962D01*
X6670799Y-7484961D01*
X6701500Y-7370384D01*
X6701500Y10482309D01*
X6670799Y10596886D01*
X6611490Y10699614D01*
X4910819Y12400285D01*
X4877334Y12461608D01*
X4874500Y12487966D01*
X4874500Y12568996D01*
X4847581Y12704323D01*
X4847580Y12704324D01*
X4847580Y12704328D01*
X4844238Y12712397D01*
X4794778Y12831805D01*
X4794771Y12831818D01*
X4718114Y12946542D01*
X4718111Y12946546D01*
X4620545Y13044112D01*
X4620541Y13044115D01*
X4505817Y13120772D01*
X4505804Y13120779D01*
X4378332Y13173579D01*
X4378322Y13173582D01*
X4242995Y13200500D01*
X4242993Y13200500D01*
X4105007Y13200500D01*
X4105005Y13200500D01*
X3969677Y13173582D01*
X3969667Y13173579D01*
X3842195Y13120779D01*
X3842182Y13120772D01*
X3727458Y13044115D01*
X3727454Y13044112D01*
X3629888Y12946546D01*
X3629885Y12946542D01*
X3553228Y12831818D01*
X3553221Y12831805D01*
X3500421Y12704333D01*
X3500418Y12704323D01*
X3473500Y12568996D01*
X3473500Y12568993D01*
X3473500Y12431007D01*
X3473500Y12431005D01*
X3473499Y12431005D01*
X3500418Y12295678D01*
X3500421Y12295668D01*
X3553221Y12168196D01*
X3553228Y12168183D01*
X3629885Y12053459D01*
X3629888Y12053455D01*
X3727454Y11955889D01*
X3727458Y11955886D01*
X3842182Y11879229D01*
X3842195Y11879222D01*
X3956657Y11831811D01*
X3969672Y11826420D01*
X3969676Y11826420D01*
X3969677Y11826419D01*
X4105004Y11799500D01*
X4105007Y11799500D01*
X4186035Y11799500D01*
X4253074Y11779815D01*
X4273716Y11763181D01*
X5764181Y10272716D01*
X5797666Y10211393D01*
X5800500Y10185035D01*
X5800500Y5305545D01*
X5780815Y5238506D01*
X5728011Y5192751D01*
X5658853Y5182807D01*
X5652309Y5183928D01*
X5568996Y5200500D01*
X5568993Y5200500D01*
X5431007Y5200500D01*
X5431005Y5200500D01*
X5295677Y5173582D01*
X5295667Y5173579D01*
X5168195Y5120779D01*
X5168182Y5120772D01*
X5053458Y5044115D01*
X5053454Y5044112D01*
X4955888Y4946546D01*
X4955885Y4946542D01*
X4879228Y4831818D01*
X4879221Y4831805D01*
X4826421Y4704333D01*
X4826418Y4704323D01*
X4799500Y4568996D01*
X4799500Y4568993D01*
X4799500Y4431007D01*
X4799500Y4431005D01*
X4799499Y4431005D01*
X4826418Y4295678D01*
X4826421Y4295668D01*
X4879221Y4168196D01*
X4879228Y4168183D01*
X4955884Y4053460D01*
X4955885Y4053459D01*
X4955886Y4053458D01*
X5013182Y3996162D01*
X5046666Y3934841D01*
X5049500Y3908482D01*
X5049500Y-6762035D01*
X5029815Y-6829074D01*
X5013181Y-6849716D01*
X1099716Y-10763181D01*
X1038393Y-10796666D01*
X1012035Y-10799500D01*
X931005Y-10799500D01*
X795677Y-10826418D01*
X795667Y-10826421D01*
X668195Y-10879221D01*
X668182Y-10879228D01*
X553458Y-10955885D01*
X553454Y-10955888D01*
X455888Y-11053454D01*
X455885Y-11053458D01*
X379228Y-11168182D01*
X379221Y-11168195D01*
X326421Y-11295667D01*
X326418Y-11295677D01*
X299500Y-11431004D01*
X299500Y-11431007D01*
X299500Y-11568993D01*
X299500Y-11568995D01*
X299499Y-11568995D01*
X326418Y-11704322D01*
X326421Y-11704332D01*
X379221Y-11831804D01*
X379228Y-11831817D01*
X455885Y-11946541D01*
X455888Y-11946545D01*
X553455Y-12044112D01*
X553458Y-12044114D01*
X624089Y-12091308D01*
X668894Y-12144920D01*
X677601Y-12214244D01*
X647447Y-12277272D01*
X642879Y-12282091D01*
X-588209Y-13513181D01*
X-649532Y-13546666D01*
X-675890Y-13549500D01*
X-2908482Y-13549500D01*
X-2975521Y-13529815D01*
X-2996159Y-13513185D01*
X-3053458Y-13455886D01*
X-3053459Y-13455885D01*
X-3053460Y-13455884D01*
X-3168183Y-13379228D01*
X-3168196Y-13379221D01*
X-3295668Y-13326421D01*
X-3295678Y-13326418D01*
X-3431005Y-13299500D01*
X-3431007Y-13299500D01*
X-3568993Y-13299500D01*
X-3568995Y-13299500D01*
X-3704323Y-13326418D01*
X-3704333Y-13326421D01*
X-3831805Y-13379221D01*
X-3831818Y-13379228D01*
X-3946542Y-13455885D01*
X-3946546Y-13455888D01*
X-4044112Y-13553454D01*
X-4044115Y-13553458D01*
X-4120772Y-13668182D01*
X-4120779Y-13668195D01*
X-4173579Y-13795667D01*
X-4173582Y-13795677D01*
X-4200500Y-13931004D01*
X-4200500Y-13931007D01*
X-4200500Y-14068993D01*
X-4200500Y-14068995D01*
X-4200501Y-14068995D01*
X-39499500Y-14068995D01*
X-39499500Y-2892763D01*
X-17362500Y-2892763D01*
X-17362500Y-3107236D01*
X-17328952Y-3319049D01*
X-17262677Y-3523020D01*
X-17165312Y-3714110D01*
X-17124222Y-3770665D01*
X-17124221Y-3770666D01*
X-16544201Y-3190646D01*
X-16535815Y-3221942D01*
X-16460115Y-3353058D01*
X-16353058Y-3460115D01*
X-16221942Y-3535815D01*
X-16190648Y-3544200D01*
X-16770668Y-4124219D01*
X-16714107Y-4165313D01*
X-16523021Y-4262676D01*
X-16319050Y-4328951D01*
X-16107236Y-4362500D01*
X-15892764Y-4362500D01*
X-15680951Y-4328951D01*
X-15476980Y-4262676D01*
X-15285895Y-4165314D01*
X-15229335Y-4124219D01*
X-15229334Y-4124219D01*
X-15809354Y-3544200D01*
X-15778058Y-3535815D01*
X-15646942Y-3460115D01*
X-15539885Y-3353058D01*
X-15464185Y-3221942D01*
X-15455800Y-3190647D01*
X-14875781Y-3770666D01*
X-14875781Y-3770665D01*
X-14834686Y-3714105D01*
X-14737324Y-3523020D01*
X-14671049Y-3319049D01*
X-14637500Y-3107236D01*
X-14637500Y-2892763D01*
X-14671049Y-2680950D01*
X-14737324Y-2476979D01*
X-14834687Y-2285893D01*
X-14875781Y-2229333D01*
X-14875781Y-2229332D01*
X-15455800Y-2809352D01*
X-15464185Y-2778058D01*
X-15539885Y-2646942D01*
X-15646942Y-2539885D01*
X-15778058Y-2464185D01*
X-15809354Y-2455799D01*
X-15229334Y-1875779D01*
X-15229335Y-1875778D01*
X-15285890Y-1834688D01*
X-15476980Y-1737323D01*
X-15680951Y-1671048D01*
X-15892764Y-1637500D01*
X-16107236Y-1637500D01*
X-16319050Y-1671048D01*
X-16523021Y-1737323D01*
X-16714108Y-1834687D01*
X-16770667Y-1875778D01*
X-16770667Y-1875779D01*
X-16190647Y-2455799D01*
X-16221942Y-2464185D01*
X-16353058Y-2539885D01*
X-16460115Y-2646942D01*
X-16535815Y-2778058D01*
X-16544201Y-2809353D01*
X-17124221Y-2229333D01*
X-17124222Y-2229333D01*
X-17165313Y-2285892D01*
X-17262677Y-2476979D01*
X-17328952Y-2680950D01*
X-17362500Y-2892763D01*
X-39499500Y-2892763D01*
X-39499500Y876000D01*
X-39479815Y943039D01*
X-39427011Y988794D01*
X-39375500Y1000000D01*
X-17000000Y1000000D01*
X-17000000Y17059309D01*
X-9950500Y17059309D01*
X-9950500Y4440691D01*
X-9944013Y4416479D01*
X-9926288Y4350328D01*
X-9919800Y4326115D01*
X-9919800Y4326114D01*
X-9894733Y4282697D01*
X-9860489Y4223386D01*
X-9860487Y4223384D01*
X-236819Y-5400284D01*
X-203334Y-5461607D01*
X-200500Y-5487965D01*
X-200500Y-5568993D01*
X-200500Y-5568995D01*
X-200501Y-5568995D01*
X-173582Y-5704322D01*
X-173579Y-5704332D01*
X-120779Y-5831804D01*
X-120772Y-5831817D01*
X-44115Y-5946541D01*
X-44112Y-5946545D01*
X53454Y-6044111D01*
X53458Y-6044114D01*
X168182Y-6120771D01*
X168195Y-6120778D01*
X295667Y-6173578D01*
X295672Y-6173580D01*
X295676Y-6173580D01*
X295677Y-6173581D01*
X431004Y-6200500D01*
X431007Y-6200500D01*
X568995Y-6200500D01*
X660041Y-6182389D01*
X704328Y-6173580D01*
X831811Y-6120775D01*
X946542Y-6044114D01*
X1044114Y-5946542D01*
X1061984Y-5919798D01*
X1091309Y-5875910D01*
X1144921Y-5831105D01*
X1214246Y-5822398D01*
X1261892Y-5840771D01*
X1272852Y-5847880D01*
X1285461Y-5860489D01*
X1344771Y-5894731D01*
X1347569Y-5896346D01*
X1347573Y-5896349D01*
X1388185Y-5919797D01*
X1388186Y-5919797D01*
X1388189Y-5919799D01*
X1412041Y-5926190D01*
X1467625Y-5958281D01*
X1553455Y-6044111D01*
X1553459Y-6044115D01*
X1668182Y-6120771D01*
X1668195Y-6120778D01*
X1795667Y-6173578D01*
X1795672Y-6173580D01*
X1795676Y-6173580D01*
X1795677Y-6173581D01*
X1931004Y-6200500D01*
X1931007Y-6200500D01*
X2068995Y-6200500D01*
X2160041Y-6182389D01*
X2204328Y-6173580D01*
X2331811Y-6120775D01*
X2446542Y-6044114D01*
X2544114Y-5946542D01*
X2620775Y-5831811D01*
X2621068Y-5831105D01*
X2673578Y-5704332D01*
X2673580Y-5704328D01*
X2700500Y-5568993D01*
X2700500Y-5431007D01*
X2700500Y-5431004D01*
X2673581Y-5295677D01*
X2673580Y-5295676D01*
X2673580Y-5295672D01*
X2673578Y-5295667D01*
X2620778Y-5168195D01*
X2620771Y-5168182D01*
X2544114Y-5053458D01*
X2544111Y-5053454D01*
X2446545Y-4955888D01*
X2446541Y-4955885D01*
X2331817Y-4879228D01*
X2331804Y-4879221D01*
X2204332Y-4826421D01*
X2204322Y-4826418D01*
X2068995Y-4799500D01*
X2068993Y-4799500D01*
X1931007Y-4799500D01*
X1931005Y-4799500D01*
X1795677Y-4826418D01*
X1795672Y-4826420D01*
X1681245Y-4873816D01*
X1611776Y-4881284D01*
X1549297Y-4850008D01*
X1546113Y-4846935D01*
X1087691Y-4388513D01*
X1087689Y-4388511D01*
X1036325Y-4358856D01*
X984963Y-4329201D01*
X972855Y-4325957D01*
X960748Y-4322713D01*
X960745Y-4322712D01*
X922553Y-4312478D01*
X870384Y-4298500D01*
X870383Y-4298500D01*
X695485Y-4298500D01*
X628446Y-4278815D01*
X607804Y-4262181D01*
X-8513181Y4858804D01*
X-8546666Y4920127D01*
X-8549500Y4946485D01*
X-8549500Y15397035D01*
X-8529815Y15464074D01*
X-8513181Y15484716D01*
X-8207654Y15790243D01*
X-7852733Y16145165D01*
X-7791412Y16178648D01*
X-7721721Y16173664D01*
X-7665787Y16131793D01*
X-7650493Y16104934D01*
X-7620779Y16033196D01*
X-7620772Y16033183D01*
X-7544115Y15918459D01*
X-7544112Y15918455D01*
X-7446546Y15820889D01*
X-7446542Y15820886D01*
X-7331818Y15744229D01*
X-7331805Y15744222D01*
X-7235491Y15704328D01*
X-7204328Y15691420D01*
X-7204324Y15691420D01*
X-7204323Y15691419D01*
X-7068996Y15664500D01*
X-7068993Y15664500D01*
X-6931006Y15664500D01*
X-6912470Y15668188D01*
X-6847691Y15681073D01*
X-6826709Y15679196D01*
X-6805853Y15682194D01*
X-6792605Y15676144D01*
X-6778101Y15674846D01*
X-6761464Y15661922D01*
X-6742297Y15653169D01*
X-6734424Y15640918D01*
X-6722923Y15631984D01*
X-6715914Y15612116D01*
X-6704523Y15594391D01*
X-6700989Y15569809D01*
X-6699678Y15566094D01*
X-6699500Y15559456D01*
X-6699500Y15488965D01*
X-6719185Y15421926D01*
X-6735819Y15401284D01*
X-7400284Y14736819D01*
X-7461607Y14703334D01*
X-7487965Y14700500D01*
X-7568995Y14700500D01*
X-7704323Y14673582D01*
X-7704333Y14673579D01*
X-7831805Y14620779D01*
X-7831818Y14620772D01*
X-7946542Y14544115D01*
X-7946546Y14544112D01*
X-8044112Y14446546D01*
X-8044115Y14446542D01*
X-8120772Y14331818D01*
X-8120779Y14331805D01*
X-8173579Y14204333D01*
X-8173582Y14204323D01*
X-8200500Y14068996D01*
X-8200500Y14068993D01*
X-8200500Y13931007D01*
X-8200500Y13931005D01*
X-8200501Y13931005D01*
X-8173582Y13795678D01*
X-8173579Y13795668D01*
X-8120779Y13668196D01*
X-8120772Y13668183D01*
X-8044115Y13553459D01*
X-8044112Y13553455D01*
X-7946546Y13455889D01*
X-7946542Y13455886D01*
X-7831818Y13379229D01*
X-7831805Y13379222D01*
X-7785934Y13360222D01*
X-7704328Y13326420D01*
X-7704324Y13326420D01*
X-7704323Y13326419D01*
X-7568996Y13299500D01*
X-7568993Y13299500D01*
X-7431005Y13299500D01*
X-7339959Y13317611D01*
X-7295672Y13326420D01*
X-7168189Y13379225D01*
X-7053458Y13455886D01*
X-6955886Y13553458D01*
X-6879225Y13668189D01*
X-6826420Y13795672D01*
X-6799500Y13931007D01*
X-6799500Y14012035D01*
X-6779815Y14079074D01*
X-6763181Y14099716D01*
X-6333082Y14529815D01*
X-5931892Y14931005D01*
X7799499Y14931005D01*
X7826418Y14795678D01*
X7826421Y14795668D01*
X7879221Y14668196D01*
X7879228Y14668183D01*
X7955885Y14553459D01*
X7955888Y14553455D01*
X8053454Y14455889D01*
X8053458Y14455886D01*
X8168182Y14379229D01*
X8168195Y14379222D01*
X8282640Y14331818D01*
X8295672Y14326420D01*
X8295676Y14326420D01*
X8295677Y14326419D01*
X8431004Y14299500D01*
X8431007Y14299500D01*
X8568995Y14299500D01*
X8663245Y14318248D01*
X8704328Y14326420D01*
X8831811Y14379225D01*
X8946542Y14455886D01*
X9003838Y14513183D01*
X9065159Y14546666D01*
X9091518Y14549500D01*
X19762035Y14549500D01*
X19829074Y14529815D01*
X19849716Y14513181D01*
X22263181Y12099716D01*
X22296666Y12038393D01*
X22299500Y12012035D01*
X22299500Y11931007D01*
X22299500Y11931005D01*
X22299499Y11931005D01*
X22326418Y11795678D01*
X22326421Y11795668D01*
X22379221Y11668196D01*
X22379228Y11668183D01*
X22455884Y11553460D01*
X22455885Y11553459D01*
X22455886Y11553458D01*
X22513182Y11496162D01*
X22546666Y11434841D01*
X22549500Y11408482D01*
X22549500Y2591519D01*
X22529815Y2524480D01*
X22513181Y2503838D01*
X22455888Y2446546D01*
X22455885Y2446542D01*
X22379228Y2331818D01*
X22379221Y2331805D01*
X22326421Y2204333D01*
X22326418Y2204323D01*
X22299500Y2068996D01*
X22299500Y2068993D01*
X22299500Y1931007D01*
X22299500Y1931005D01*
X22299499Y1931005D01*
X22326418Y1795678D01*
X22326421Y1795668D01*
X22379221Y1668196D01*
X22379228Y1668183D01*
X22455884Y1553460D01*
X22455885Y1553459D01*
X22455886Y1553458D01*
X22513182Y1496162D01*
X22546666Y1434841D01*
X22549500Y1408482D01*
X22549500Y-3408481D01*
X22529815Y-3475520D01*
X22513181Y-3496162D01*
X22455888Y-3553454D01*
X22455885Y-3553458D01*
X22379228Y-3668182D01*
X22379221Y-3668195D01*
X22326421Y-3795667D01*
X22326418Y-3795677D01*
X22299500Y-3931004D01*
X22299500Y-3931007D01*
X22299500Y-4068993D01*
X22299500Y-4068995D01*
X22299499Y-4068995D01*
X22326418Y-4204322D01*
X22326421Y-4204332D01*
X22379221Y-4331804D01*
X22379228Y-4331817D01*
X22455884Y-4446540D01*
X22455885Y-4446541D01*
X22455886Y-4446542D01*
X22513182Y-4503838D01*
X22546666Y-4565159D01*
X22549500Y-4591518D01*
X22549500Y-13408481D01*
X22529815Y-13475520D01*
X22513181Y-13496162D01*
X22455888Y-13553454D01*
X22455885Y-13553458D01*
X22379228Y-13668182D01*
X22379221Y-13668195D01*
X22326421Y-13795667D01*
X22326418Y-13795677D01*
X22299500Y-13931004D01*
X22299500Y-13931007D01*
X22299500Y-14068993D01*
X22299500Y-14068995D01*
X22299499Y-14068995D01*
X22326418Y-14204322D01*
X22326421Y-14204332D01*
X22379221Y-14331804D01*
X22379228Y-14331817D01*
X22455884Y-14446540D01*
X22455885Y-14446541D01*
X22455886Y-14446542D01*
X22513182Y-14503838D01*
X22546666Y-14565159D01*
X22549500Y-14591518D01*
X22549500Y-19408481D01*
X22529815Y-19475520D01*
X22513181Y-19496162D01*
X22455888Y-19553454D01*
X22455885Y-19553458D01*
X22379228Y-19668182D01*
X22379221Y-19668195D01*
X22326421Y-19795667D01*
X22326418Y-19795677D01*
X22299500Y-19931004D01*
X22299500Y-19931007D01*
X22299500Y-20068993D01*
X22299500Y-20068995D01*
X22299499Y-20068995D01*
X22326418Y-20204322D01*
X22326421Y-20204332D01*
X22379221Y-20331804D01*
X22379228Y-20331817D01*
X22455884Y-20446540D01*
X22455885Y-20446541D01*
X22455886Y-20446542D01*
X22513182Y-20503838D01*
X22546666Y-20565159D01*
X22549500Y-20591518D01*
X22549500Y-28613034D01*
X22529815Y-28680073D01*
X22477011Y-28725828D01*
X22407853Y-28735772D01*
X22344297Y-28706747D01*
X22337819Y-28700715D01*
X18276616Y-24639513D01*
X18276614Y-24639511D01*
X18225250Y-24609856D01*
X18173888Y-24580201D01*
X18161780Y-24576957D01*
X18149673Y-24573713D01*
X18149670Y-24573712D01*
X18074080Y-24553458D01*
X18059309Y-24549500D01*
X18059308Y-24549500D01*
X11591518Y-24549500D01*
X11524479Y-24529815D01*
X11503841Y-24513185D01*
X11446542Y-24455886D01*
X11446541Y-24455885D01*
X11446540Y-24455884D01*
X11331817Y-24379228D01*
X11331804Y-24379221D01*
X11204332Y-24326421D01*
X11204322Y-24326418D01*
X11068995Y-24299500D01*
X11068993Y-24299500D01*
X10931007Y-24299500D01*
X10931005Y-24299500D01*
X10795677Y-24326418D01*
X10795667Y-24326421D01*
X10668195Y-24379221D01*
X10668182Y-24379228D01*
X10553458Y-24455885D01*
X10553454Y-24455888D01*
X10455888Y-24553454D01*
X10455885Y-24553458D01*
X10379228Y-24668182D01*
X10379221Y-24668195D01*
X10326421Y-24795667D01*
X10326418Y-24795677D01*
X10299500Y-24931004D01*
X10299500Y-24931007D01*
X10299500Y-25068993D01*
X10299500Y-25068995D01*
X10299499Y-25068995D01*
X10326418Y-25204322D01*
X10326421Y-25204332D01*
X10379221Y-25331804D01*
X10379228Y-25331817D01*
X10455885Y-25446541D01*
X10455888Y-25446545D01*
X10553454Y-25544111D01*
X10553458Y-25544114D01*
X10668182Y-25620771D01*
X10668195Y-25620778D01*
X10795667Y-25673578D01*
X10795672Y-25673580D01*
X10795676Y-25673580D01*
X10795677Y-25673581D01*
X10931004Y-25700500D01*
X10931007Y-25700500D01*
X11068995Y-25700500D01*
X11160041Y-25682389D01*
X11204328Y-25673580D01*
X11331811Y-25620775D01*
X11446542Y-25544114D01*
X11503838Y-25486817D01*
X11565159Y-25453334D01*
X11591518Y-25450500D01*
X17762035Y-25450500D01*
X17829074Y-25470185D01*
X17849716Y-25486819D01*
X22263181Y-29900284D01*
X22296666Y-29961607D01*
X22299500Y-29987965D01*
X22299500Y-30068993D01*
X22299500Y-30068995D01*
X22299499Y-30068995D01*
X22326418Y-30204322D01*
X22326421Y-30204332D01*
X22379221Y-30331804D01*
X22379228Y-30331817D01*
X22455885Y-30446541D01*
X22455888Y-30446545D01*
X22553454Y-30544111D01*
X22553458Y-30544114D01*
X22668182Y-30620771D01*
X22668195Y-30620778D01*
X22795667Y-30673578D01*
X22795672Y-30673580D01*
X22795676Y-30673580D01*
X22795677Y-30673581D01*
X22931004Y-30700500D01*
X22931007Y-30700500D01*
X23068995Y-30700500D01*
X23160041Y-30682389D01*
X23204328Y-30673580D01*
X23331811Y-30620775D01*
X23446542Y-30544114D01*
X23544114Y-30446542D01*
X23620775Y-30331811D01*
X23673580Y-30204328D01*
X23700500Y-30068993D01*
X23700500Y-29931007D01*
X23700500Y-29931004D01*
X23673581Y-29795677D01*
X23673580Y-29795676D01*
X23673580Y-29795672D01*
X23673578Y-29795667D01*
X23620778Y-29668195D01*
X23620771Y-29668182D01*
X23544114Y-29553458D01*
X23544111Y-29553454D01*
X23486819Y-29496162D01*
X23453334Y-29434839D01*
X23450500Y-29408481D01*
X23450500Y-20591518D01*
X23470185Y-20524479D01*
X23486814Y-20503841D01*
X23544114Y-20446542D01*
X23620775Y-20331811D01*
X23673580Y-20204328D01*
X23700500Y-20068993D01*
X23700500Y-19931007D01*
X23700500Y-19931004D01*
X23673581Y-19795677D01*
X23673580Y-19795676D01*
X23673580Y-19795672D01*
X23673578Y-19795667D01*
X23620778Y-19668195D01*
X23620771Y-19668182D01*
X23544114Y-19553458D01*
X23544111Y-19553454D01*
X23486819Y-19496162D01*
X23453334Y-19434839D01*
X23450500Y-19408481D01*
X23450500Y-14591518D01*
X23470185Y-14524479D01*
X23486814Y-14503841D01*
X23544114Y-14446542D01*
X23620775Y-14331811D01*
X23673580Y-14204328D01*
X23700500Y-14068993D01*
X23700500Y-13931007D01*
X23700500Y-13931004D01*
X23673581Y-13795677D01*
X23673580Y-13795676D01*
X23673580Y-13795672D01*
X23673578Y-13795667D01*
X23620778Y-13668195D01*
X23620771Y-13668182D01*
X23544114Y-13553458D01*
X23544111Y-13553454D01*
X23486819Y-13496162D01*
X23453334Y-13434839D01*
X23450500Y-13408481D01*
X23450500Y-4591518D01*
X23470185Y-4524479D01*
X23486814Y-4503841D01*
X23544114Y-4446542D01*
X23620775Y-4331811D01*
X23673580Y-4204328D01*
X23700500Y-4068993D01*
X23700500Y-3931007D01*
X23700500Y-3931004D01*
X23673581Y-3795677D01*
X23673580Y-3795676D01*
X23673580Y-3795672D01*
X23639794Y-3714105D01*
X23620778Y-3668195D01*
X23620771Y-3668182D01*
X23544114Y-3553458D01*
X23544111Y-3553454D01*
X23486819Y-3496162D01*
X23453334Y-3434839D01*
X23450500Y-3408481D01*
X23450500Y1408482D01*
X23470185Y1475521D01*
X23486814Y1496159D01*
X23544114Y1553458D01*
X23620775Y1668189D01*
X23673580Y1795672D01*
X23700500Y1931007D01*
X23700500Y2068993D01*
X23700500Y2068996D01*
X23673581Y2204323D01*
X23673580Y2204324D01*
X23673580Y2204328D01*
X23673578Y2204333D01*
X23620778Y2331805D01*
X23620771Y2331818D01*
X23544114Y2446542D01*
X23544111Y2446546D01*
X23486819Y2503838D01*
X23453334Y2565161D01*
X23450500Y2591519D01*
X23450500Y6360222D01*
X33599500Y6360222D01*
X33599500Y6139779D01*
X33633985Y5922048D01*
X33702103Y5712397D01*
X33702104Y5712394D01*
X33802187Y5515975D01*
X33931752Y5337642D01*
X33931756Y5337637D01*
X34087636Y5181757D01*
X34087641Y5181753D01*
X34243192Y5068740D01*
X34265978Y5052185D01*
X34394375Y4986763D01*
X34462393Y4952105D01*
X34462396Y4952104D01*
X34560814Y4920127D01*
X34672049Y4883985D01*
X34889778Y4849500D01*
X34889779Y4849500D01*
X35110221Y4849500D01*
X35110222Y4849500D01*
X35327951Y4883985D01*
X35537606Y4952105D01*
X35734022Y5052185D01*
X35912365Y5181758D01*
X36068242Y5337635D01*
X36197815Y5515978D01*
X36297895Y5712394D01*
X36366015Y5922049D01*
X36400500Y6139778D01*
X36400500Y6360222D01*
X36366015Y6577951D01*
X36317371Y6727664D01*
X36297896Y6787604D01*
X36297895Y6787607D01*
X36263237Y6855625D01*
X36197815Y6984022D01*
X36147367Y7053458D01*
X36068247Y7162359D01*
X36068243Y7162364D01*
X35912363Y7318244D01*
X35912358Y7318248D01*
X35734025Y7447813D01*
X35734024Y7447814D01*
X35734022Y7447815D01*
X35671096Y7479878D01*
X35537606Y7547896D01*
X35537603Y7547897D01*
X35327952Y7616015D01*
X35219086Y7633258D01*
X35110222Y7650500D01*
X34889778Y7650500D01*
X34817201Y7639005D01*
X34672047Y7616015D01*
X34462396Y7547897D01*
X34462393Y7547896D01*
X34265974Y7447813D01*
X34087641Y7318248D01*
X34087636Y7318244D01*
X33931756Y7162364D01*
X33931752Y7162359D01*
X33802187Y6984026D01*
X33702104Y6787607D01*
X33702103Y6787604D01*
X33633985Y6577953D01*
X33599500Y6360222D01*
X23450500Y6360222D01*
X23450500Y9860222D01*
X33599500Y9860222D01*
X33599500Y9639779D01*
X33633985Y9422048D01*
X33702103Y9212397D01*
X33702104Y9212394D01*
X33802187Y9015975D01*
X33931752Y8837642D01*
X33931756Y8837637D01*
X34087636Y8681757D01*
X34087641Y8681753D01*
X34201632Y8598935D01*
X34265978Y8552185D01*
X34394375Y8486763D01*
X34462393Y8452105D01*
X34462396Y8452104D01*
X34567221Y8418045D01*
X34672049Y8383985D01*
X34889778Y8349500D01*
X34889779Y8349500D01*
X35110221Y8349500D01*
X35110222Y8349500D01*
X35327951Y8383985D01*
X35537606Y8452105D01*
X35734022Y8552185D01*
X35912365Y8681758D01*
X36068242Y8837635D01*
X36197815Y9015978D01*
X36297895Y9212394D01*
X36366015Y9422049D01*
X36400500Y9639778D01*
X36400500Y9860222D01*
X36366015Y10077951D01*
X36297895Y10287606D01*
X36297895Y10287607D01*
X36263237Y10355625D01*
X36197815Y10484022D01*
X36181260Y10506808D01*
X36068247Y10662359D01*
X36068243Y10662364D01*
X35912363Y10818244D01*
X35912358Y10818248D01*
X35734025Y10947813D01*
X35734024Y10947814D01*
X35734022Y10947815D01*
X35671096Y10979878D01*
X35537606Y11047896D01*
X35537603Y11047897D01*
X35327952Y11116015D01*
X35219086Y11133258D01*
X35110222Y11150500D01*
X34889778Y11150500D01*
X34817201Y11139005D01*
X34672047Y11116015D01*
X34462396Y11047897D01*
X34462393Y11047896D01*
X34265974Y10947813D01*
X34087641Y10818248D01*
X34087636Y10818244D01*
X33931756Y10662364D01*
X33931752Y10662359D01*
X33802187Y10484026D01*
X33702104Y10287607D01*
X33702103Y10287604D01*
X33633985Y10077953D01*
X33599500Y9860222D01*
X23450500Y9860222D01*
X23450500Y11408482D01*
X23470185Y11475521D01*
X23486814Y11496159D01*
X23544114Y11553458D01*
X23620775Y11668189D01*
X23673580Y11795672D01*
X23700500Y11931007D01*
X23700500Y12068993D01*
X23700500Y12068996D01*
X23673581Y12204323D01*
X23673580Y12204324D01*
X23673580Y12204328D01*
X23635746Y12295668D01*
X23620778Y12331805D01*
X23620771Y12331818D01*
X23544114Y12446542D01*
X23544111Y12446546D01*
X23486819Y12503838D01*
X23453334Y12565161D01*
X23450500Y12591519D01*
X23450500Y13360222D01*
X33599500Y13360222D01*
X33599500Y13139779D01*
X33633985Y12922048D01*
X33702103Y12712397D01*
X33702104Y12712394D01*
X33802187Y12515975D01*
X33931752Y12337642D01*
X33931756Y12337637D01*
X34087636Y12181757D01*
X34087641Y12181753D01*
X34200557Y12099716D01*
X34265978Y12052185D01*
X34368396Y12000000D01*
X34462393Y11952105D01*
X34462396Y11952104D01*
X34479515Y11946542D01*
X34672049Y11883985D01*
X34889778Y11849500D01*
X34889779Y11849500D01*
X35110221Y11849500D01*
X35110222Y11849500D01*
X35327951Y11883985D01*
X35537606Y11952105D01*
X35734022Y12052185D01*
X35912365Y12181758D01*
X36068242Y12337635D01*
X36197815Y12515978D01*
X36297895Y12712394D01*
X36366015Y12922049D01*
X36400500Y13139778D01*
X36400500Y13360222D01*
X36366015Y13577951D01*
X36297895Y13787606D01*
X36297895Y13787607D01*
X36255917Y13869991D01*
X36197815Y13984022D01*
X36181260Y14006808D01*
X36068247Y14162359D01*
X36068243Y14162364D01*
X35912363Y14318244D01*
X35912358Y14318248D01*
X35734025Y14447813D01*
X35734024Y14447814D01*
X35734022Y14447815D01*
X35671096Y14479878D01*
X35537606Y14547896D01*
X35537603Y14547897D01*
X35327952Y14616015D01*
X35219086Y14633258D01*
X35110222Y14650500D01*
X34889778Y14650500D01*
X34817201Y14639005D01*
X34672047Y14616015D01*
X34462396Y14547897D01*
X34462393Y14547896D01*
X34265974Y14447813D01*
X34087641Y14318248D01*
X34087636Y14318244D01*
X33931756Y14162364D01*
X33931752Y14162359D01*
X33802187Y13984026D01*
X33702104Y13787607D01*
X33702103Y13787604D01*
X33633985Y13577953D01*
X33599500Y13360222D01*
X23450500Y13360222D01*
X23450500Y16860222D01*
X33599500Y16860222D01*
X33599500Y16639779D01*
X33633985Y16422048D01*
X33702103Y16212397D01*
X33702104Y16212394D01*
X33756773Y16105103D01*
X33796449Y16027235D01*
X33802187Y16015975D01*
X33931752Y15837642D01*
X33931756Y15837637D01*
X34087636Y15681757D01*
X34087641Y15681753D01*
X34242844Y15568993D01*
X34265978Y15552185D01*
X34390014Y15488985D01*
X34462393Y15452105D01*
X34462396Y15452104D01*
X34527328Y15431007D01*
X34672049Y15383985D01*
X34889778Y15349500D01*
X34889779Y15349500D01*
X35110221Y15349500D01*
X35110222Y15349500D01*
X35327951Y15383985D01*
X35537606Y15452105D01*
X35734022Y15552185D01*
X35912365Y15681758D01*
X36068242Y15837635D01*
X36197815Y16015978D01*
X36297895Y16212394D01*
X36366015Y16422049D01*
X36400500Y16639778D01*
X36400500Y16860222D01*
X36366015Y17077951D01*
X36302632Y17273028D01*
X36297896Y17287604D01*
X36297895Y17287607D01*
X36233152Y17414670D01*
X36197815Y17484022D01*
X36178204Y17511015D01*
X36068247Y17662359D01*
X36068243Y17662364D01*
X35912363Y17818244D01*
X35912358Y17818248D01*
X35734025Y17947813D01*
X35734024Y17947814D01*
X35734022Y17947815D01*
X35655230Y17987962D01*
X35537606Y18047896D01*
X35537603Y18047897D01*
X35327952Y18116015D01*
X35219086Y18133258D01*
X35110222Y18150500D01*
X34889778Y18150500D01*
X34820396Y18139511D01*
X34672047Y18116015D01*
X34462396Y18047897D01*
X34462393Y18047896D01*
X34265974Y17947813D01*
X34087641Y17818248D01*
X34087636Y17818244D01*
X33931756Y17662364D01*
X33931752Y17662359D01*
X33802187Y17484026D01*
X33702104Y17287607D01*
X33702103Y17287604D01*
X33633985Y17077953D01*
X33599500Y16860222D01*
X23450500Y16860222D01*
X23450500Y17408482D01*
X23470185Y17475521D01*
X23486814Y17496159D01*
X23544114Y17553458D01*
X23620775Y17668189D01*
X23673580Y17795672D01*
X23688363Y17869991D01*
X23700500Y17931005D01*
X23700500Y18068996D01*
X23673581Y18204323D01*
X23673580Y18204324D01*
X23673580Y18204328D01*
X23654339Y18250780D01*
X23620778Y18331805D01*
X23620771Y18331818D01*
X23544114Y18446542D01*
X23544111Y18446546D01*
X23486819Y18503838D01*
X23453334Y18565161D01*
X23450500Y18591519D01*
X23450500Y20360222D01*
X33599500Y20360222D01*
X33599500Y20139778D01*
X33611577Y20063528D01*
X33633985Y19922048D01*
X33702103Y19712397D01*
X33702104Y19712394D01*
X33748789Y19620772D01*
X33787848Y19544115D01*
X33802187Y19515975D01*
X33931752Y19337642D01*
X33931756Y19337637D01*
X34087636Y19181757D01*
X34087641Y19181753D01*
X34193142Y19105103D01*
X34265978Y19052185D01*
X34368396Y19000000D01*
X34462393Y18952105D01*
X34462396Y18952104D01*
X34567221Y18918045D01*
X34672049Y18883985D01*
X34889778Y18849500D01*
X34889779Y18849500D01*
X35110221Y18849500D01*
X35110222Y18849500D01*
X35327951Y18883985D01*
X35537606Y18952105D01*
X35734022Y19052185D01*
X35912365Y19181758D01*
X36068242Y19337635D01*
X36197815Y19515978D01*
X36297895Y19712394D01*
X36366015Y19922049D01*
X36400500Y20139778D01*
X36400500Y20360222D01*
X36366015Y20577951D01*
X36297895Y20787606D01*
X36297895Y20787607D01*
X36216912Y20946542D01*
X36197815Y20984022D01*
X36091750Y21130009D01*
X36068247Y21162359D01*
X36068243Y21162364D01*
X35912363Y21318244D01*
X35912358Y21318248D01*
X35734025Y21447813D01*
X35734024Y21447814D01*
X35734022Y21447815D01*
X35671096Y21479878D01*
X35537606Y21547896D01*
X35537603Y21547897D01*
X35327952Y21616015D01*
X35215156Y21633880D01*
X35110222Y21650500D01*
X34889778Y21650500D01*
X34817201Y21639005D01*
X34672047Y21616015D01*
X34462396Y21547897D01*
X34462393Y21547896D01*
X34265974Y21447813D01*
X34087641Y21318248D01*
X34087636Y21318244D01*
X33931756Y21162364D01*
X33931752Y21162359D01*
X33802187Y20984026D01*
X33702104Y20787607D01*
X33702103Y20787604D01*
X33633985Y20577953D01*
X33610711Y20431007D01*
X33599500Y20360222D01*
X23450500Y20360222D01*
X23450500Y23860222D01*
X33599500Y23860222D01*
X33599500Y23639779D01*
X33633985Y23422048D01*
X33702103Y23212397D01*
X33702104Y23212394D01*
X33761542Y23095743D01*
X33796449Y23027235D01*
X33802187Y23015975D01*
X33931752Y22837642D01*
X33931756Y22837637D01*
X34087636Y22681757D01*
X34087641Y22681753D01*
X34242844Y22568993D01*
X34265978Y22552185D01*
X34394375Y22486763D01*
X34462393Y22452105D01*
X34462396Y22452104D01*
X34527328Y22431007D01*
X34672049Y22383985D01*
X34889778Y22349500D01*
X34889779Y22349500D01*
X35110221Y22349500D01*
X35110222Y22349500D01*
X35327951Y22383985D01*
X35537606Y22452105D01*
X35734022Y22552185D01*
X35912365Y22681758D01*
X36068242Y22837635D01*
X36197815Y23015978D01*
X36297895Y23212394D01*
X36366015Y23422049D01*
X36400500Y23639778D01*
X36400500Y23860222D01*
X36366015Y24077951D01*
X36297895Y24287606D01*
X36297895Y24287607D01*
X36263237Y24355625D01*
X36197815Y24484022D01*
X36172036Y24519504D01*
X36068247Y24662359D01*
X36068243Y24662364D01*
X35912363Y24818244D01*
X35912358Y24818248D01*
X35734025Y24947813D01*
X35734024Y24947814D01*
X35734022Y24947815D01*
X35671096Y24979878D01*
X35537606Y25047896D01*
X35537603Y25047897D01*
X35327952Y25116015D01*
X35190116Y25137846D01*
X35110222Y25150500D01*
X34889778Y25150500D01*
X34817201Y25139005D01*
X34672047Y25116015D01*
X34462396Y25047897D01*
X34462393Y25047896D01*
X34265974Y24947813D01*
X34087641Y24818248D01*
X34087636Y24818244D01*
X33931756Y24662364D01*
X33931752Y24662359D01*
X33802187Y24484026D01*
X33702104Y24287607D01*
X33702103Y24287604D01*
X33633985Y24077953D01*
X33599500Y23860222D01*
X23450500Y23860222D01*
X23450500Y27360222D01*
X33599500Y27360222D01*
X33599500Y27139779D01*
X33633985Y26922048D01*
X33702103Y26712397D01*
X33702104Y26712394D01*
X33802187Y26515975D01*
X33931752Y26337642D01*
X33931756Y26337637D01*
X34087636Y26181757D01*
X34087641Y26181753D01*
X34206025Y26095743D01*
X34265978Y26052185D01*
X34368396Y26000000D01*
X34462393Y25952105D01*
X34462396Y25952104D01*
X34479515Y25946542D01*
X34672049Y25883985D01*
X34889778Y25849500D01*
X34889779Y25849500D01*
X35110221Y25849500D01*
X35110222Y25849500D01*
X35327951Y25883985D01*
X35537606Y25952105D01*
X35734022Y26052185D01*
X35912365Y26181758D01*
X36068242Y26337635D01*
X36197815Y26515978D01*
X36297895Y26712394D01*
X36366015Y26922049D01*
X36400500Y27139778D01*
X36400500Y27360222D01*
X36366015Y27577951D01*
X36297895Y27787606D01*
X36297895Y27787607D01*
X36255917Y27869991D01*
X36197815Y27984022D01*
X36154156Y28044114D01*
X36068247Y28162359D01*
X36068243Y28162364D01*
X35912363Y28318244D01*
X35912358Y28318248D01*
X35734025Y28447813D01*
X35734024Y28447814D01*
X35734022Y28447815D01*
X35671096Y28479878D01*
X35537606Y28547896D01*
X35537603Y28547897D01*
X35327952Y28616015D01*
X35219086Y28633258D01*
X35110222Y28650500D01*
X34889778Y28650500D01*
X34817201Y28639005D01*
X34672047Y28616015D01*
X34462396Y28547897D01*
X34462393Y28547896D01*
X34265974Y28447813D01*
X34087641Y28318248D01*
X34087636Y28318244D01*
X33931756Y28162364D01*
X33931752Y28162359D01*
X33802187Y27984026D01*
X33702104Y27787607D01*
X33702103Y27787604D01*
X33633985Y27577953D01*
X33599500Y27360222D01*
X23450500Y27360222D01*
X23450500Y27408482D01*
X23470185Y27475521D01*
X23486814Y27496159D01*
X23544114Y27553458D01*
X23620775Y27668189D01*
X23673580Y27795672D01*
X23700500Y27931007D01*
X23700500Y28068993D01*
X23700500Y28068996D01*
X23673581Y28204323D01*
X23673580Y28204324D01*
X23673580Y28204328D01*
X23673578Y28204333D01*
X23620778Y28331805D01*
X23620771Y28331818D01*
X23544114Y28446542D01*
X23544111Y28446546D01*
X23486819Y28503838D01*
X23453334Y28565161D01*
X23450500Y28591519D01*
X23450500Y30860222D01*
X33599500Y30860222D01*
X33599500Y30639779D01*
X33633985Y30422048D01*
X33702103Y30212397D01*
X33702104Y30212394D01*
X33802187Y30015975D01*
X33931752Y29837642D01*
X33931756Y29837637D01*
X34087636Y29681757D01*
X34087641Y29681753D01*
X34242844Y29568993D01*
X34265978Y29552185D01*
X34394375Y29486763D01*
X34462393Y29452105D01*
X34462396Y29452104D01*
X34527328Y29431007D01*
X34672049Y29383985D01*
X34889778Y29349500D01*
X34889779Y29349500D01*
X35110221Y29349500D01*
X35110222Y29349500D01*
X35327951Y29383985D01*
X35537606Y29452105D01*
X35734022Y29552185D01*
X35912365Y29681758D01*
X36068242Y29837635D01*
X36197815Y30015978D01*
X36297895Y30212394D01*
X36366015Y30422049D01*
X36400500Y30639778D01*
X36400500Y30860222D01*
X36366015Y31077951D01*
X36297895Y31287606D01*
X36297895Y31287607D01*
X36263237Y31355625D01*
X36197815Y31484022D01*
X36098459Y31620775D01*
X36068247Y31662359D01*
X36068243Y31662364D01*
X35912363Y31818244D01*
X35912358Y31818248D01*
X35734025Y31947813D01*
X35734024Y31947814D01*
X35734022Y31947815D01*
X35671096Y31979878D01*
X35537606Y32047896D01*
X35537603Y32047897D01*
X35327952Y32116015D01*
X35219086Y32133258D01*
X35110222Y32150500D01*
X34889778Y32150500D01*
X34817201Y32139005D01*
X34672047Y32116015D01*
X34462396Y32047897D01*
X34462393Y32047896D01*
X34265974Y31947813D01*
X34087641Y31818248D01*
X34087636Y31818244D01*
X33931756Y31662364D01*
X33931752Y31662359D01*
X33802187Y31484026D01*
X33702104Y31287607D01*
X33702103Y31287604D01*
X33633985Y31077953D01*
X33599500Y30860222D01*
X23450500Y30860222D01*
X23450500Y33408482D01*
X23470185Y33475521D01*
X23486814Y33496159D01*
X23544114Y33553458D01*
X23620775Y33668189D01*
X23620776Y33668193D01*
X23620779Y33668197D01*
X23672289Y33792555D01*
X23673580Y33795672D01*
X23700500Y33931007D01*
X23700500Y34068993D01*
X23700500Y34068996D01*
X23673581Y34204323D01*
X23673580Y34204324D01*
X23673580Y34204328D01*
X23673578Y34204333D01*
X23626645Y34317642D01*
X23620777Y34331806D01*
X23620771Y34331818D01*
X23601792Y34360222D01*
X33599500Y34360222D01*
X33599500Y34139779D01*
X33633985Y33922048D01*
X33702103Y33712397D01*
X33702104Y33712394D01*
X33802187Y33515975D01*
X33931752Y33337642D01*
X33931756Y33337637D01*
X34087636Y33181757D01*
X34087641Y33181753D01*
X34242844Y33068993D01*
X34265978Y33052185D01*
X34394375Y32986763D01*
X34462393Y32952105D01*
X34462396Y32952104D01*
X34527328Y32931007D01*
X34672049Y32883985D01*
X34889778Y32849500D01*
X34889779Y32849500D01*
X35110221Y32849500D01*
X35110222Y32849500D01*
X35327951Y32883985D01*
X35537606Y32952105D01*
X35734022Y33052185D01*
X35912365Y33181758D01*
X36068242Y33337635D01*
X36197815Y33515978D01*
X36297895Y33712394D01*
X36366015Y33922049D01*
X36400500Y34139778D01*
X36400500Y34360222D01*
X36366015Y34577951D01*
X36297895Y34787606D01*
X36297895Y34787607D01*
X36263237Y34855625D01*
X36197815Y34984022D01*
X36181260Y35006808D01*
X36068247Y35162359D01*
X36068243Y35162364D01*
X35912363Y35318244D01*
X35912358Y35318248D01*
X35734025Y35447813D01*
X35734024Y35447814D01*
X35734022Y35447815D01*
X35671096Y35479878D01*
X35537606Y35547896D01*
X35537603Y35547897D01*
X35327952Y35616015D01*
X35219086Y35633258D01*
X35110222Y35650500D01*
X34889778Y35650500D01*
X34817201Y35639005D01*
X34672047Y35616015D01*
X34462396Y35547897D01*
X34462393Y35547896D01*
X34265974Y35447813D01*
X34087641Y35318248D01*
X34087636Y35318244D01*
X33931756Y35162364D01*
X33931752Y35162359D01*
X33802187Y34984026D01*
X33702104Y34787607D01*
X33702103Y34787604D01*
X33633985Y34577953D01*
X33599500Y34360222D01*
X23601792Y34360222D01*
X23544114Y34446542D01*
X23544111Y34446546D01*
X23446545Y34544112D01*
X23446541Y34544115D01*
X23331817Y34620772D01*
X23331804Y34620779D01*
X23204332Y34673579D01*
X23204322Y34673582D01*
X23068995Y34700500D01*
X23068993Y34700500D01*
X22931007Y34700500D01*
X22931005Y34700500D01*
X22795677Y34673582D01*
X22795667Y34673579D01*
X22668195Y34620779D01*
X22668182Y34620772D01*
X22553458Y34544115D01*
X22553454Y34544112D01*
X22455888Y34446546D01*
X22455885Y34446542D01*
X22379228Y34331818D01*
X22379221Y34331805D01*
X22326421Y34204333D01*
X22326418Y34204323D01*
X22299500Y34068996D01*
X22299500Y34068993D01*
X22299500Y33931007D01*
X22299500Y33931005D01*
X22299499Y33931005D01*
X22326418Y33795678D01*
X22326421Y33795668D01*
X22379221Y33668197D01*
X22379228Y33668183D01*
X22455884Y33553460D01*
X22455885Y33553459D01*
X22455886Y33553458D01*
X22513182Y33496162D01*
X22546666Y33434841D01*
X22549500Y33408482D01*
X22549500Y28591519D01*
X22529815Y28524480D01*
X22513181Y28503838D01*
X22455888Y28446546D01*
X22455885Y28446542D01*
X22379228Y28331818D01*
X22379221Y28331805D01*
X22326421Y28204333D01*
X22326418Y28204323D01*
X22299500Y28068996D01*
X22299500Y28068993D01*
X22299500Y27931007D01*
X22299500Y27931005D01*
X22299499Y27931005D01*
X22326418Y27795678D01*
X22326421Y27795668D01*
X22379221Y27668196D01*
X22379228Y27668183D01*
X22455884Y27553460D01*
X22455885Y27553459D01*
X22455886Y27553458D01*
X22513182Y27496162D01*
X22546666Y27434841D01*
X22549500Y27408482D01*
X22549500Y18591519D01*
X22529815Y18524480D01*
X22513181Y18503838D01*
X22455888Y18446546D01*
X22455885Y18446542D01*
X22379228Y18331818D01*
X22379221Y18331805D01*
X22326421Y18204333D01*
X22326418Y18204323D01*
X22299500Y18068996D01*
X22299500Y18068993D01*
X22299500Y17931007D01*
X22299500Y17931005D01*
X22299499Y17931005D01*
X22326418Y17795678D01*
X22326421Y17795668D01*
X22379221Y17668196D01*
X22379228Y17668183D01*
X22455884Y17553460D01*
X22455885Y17553459D01*
X22455886Y17553458D01*
X22513182Y17496162D01*
X22546666Y17434841D01*
X22549500Y17408482D01*
X22549500Y13386966D01*
X22529815Y13319927D01*
X22477011Y13274172D01*
X22407853Y13264228D01*
X22344297Y13293253D01*
X22337819Y13299285D01*
X20276616Y15360487D01*
X20276614Y15360489D01*
X20173887Y15419799D01*
X20132057Y15431007D01*
X20132054Y15431008D01*
X20067157Y15448397D01*
X20059309Y15450500D01*
X20059308Y15450500D01*
X9091518Y15450500D01*
X9024479Y15470185D01*
X9003841Y15486815D01*
X8946542Y15544114D01*
X8946541Y15544115D01*
X8946540Y15544116D01*
X8831817Y15620772D01*
X8831804Y15620779D01*
X8704332Y15673579D01*
X8704322Y15673582D01*
X8568995Y15700500D01*
X8568993Y15700500D01*
X8431007Y15700500D01*
X8431005Y15700500D01*
X8295677Y15673582D01*
X8295667Y15673579D01*
X8168195Y15620779D01*
X8168182Y15620772D01*
X8053458Y15544115D01*
X8053454Y15544112D01*
X7955888Y15446546D01*
X7955885Y15446542D01*
X7879228Y15331818D01*
X7879221Y15331805D01*
X7826421Y15204333D01*
X7826418Y15204323D01*
X7799500Y15068996D01*
X7799500Y15068993D01*
X7799500Y14931007D01*
X7799500Y14931005D01*
X7799499Y14931005D01*
X-5931892Y14931005D01*
X-5888511Y14974386D01*
X-5829201Y15077113D01*
X-5814686Y15131284D01*
X-5798500Y15191691D01*
X-5798500Y16095995D01*
X-5778815Y16163034D01*
X-5762181Y16183676D01*
X15914365Y37860222D01*
X33599500Y37860222D01*
X33599500Y37639779D01*
X33633985Y37422048D01*
X33702103Y37212397D01*
X33702104Y37212394D01*
X33802187Y37015975D01*
X33931752Y36837642D01*
X33931756Y36837637D01*
X34087636Y36681757D01*
X34087641Y36681753D01*
X34138228Y36645000D01*
X34265978Y36552185D01*
X34394375Y36486763D01*
X34462393Y36452105D01*
X34462396Y36452104D01*
X34567221Y36418045D01*
X34672049Y36383985D01*
X34889778Y36349500D01*
X34889779Y36349500D01*
X35110221Y36349500D01*
X35110222Y36349500D01*
X35327951Y36383985D01*
X35537606Y36452105D01*
X35734022Y36552185D01*
X35912365Y36681758D01*
X36068242Y36837635D01*
X36197815Y37015978D01*
X36297895Y37212394D01*
X36366015Y37422049D01*
X36400500Y37639778D01*
X36400500Y37860222D01*
X36366015Y38077951D01*
X36297895Y38287606D01*
X36297895Y38287607D01*
X36243124Y38395099D01*
X36197815Y38484022D01*
X36088089Y38635048D01*
X36068247Y38662359D01*
X36068243Y38662364D01*
X35912363Y38818244D01*
X35912358Y38818248D01*
X35734025Y38947813D01*
X35734024Y38947814D01*
X35734022Y38947815D01*
X35653597Y38988794D01*
X35537606Y39047896D01*
X35537603Y39047897D01*
X35327952Y39116015D01*
X35219086Y39133258D01*
X35110222Y39150500D01*
X34889778Y39150500D01*
X34817201Y39139005D01*
X34672047Y39116015D01*
X34462396Y39047897D01*
X34462393Y39047896D01*
X34265974Y38947813D01*
X34087641Y38818248D01*
X34087636Y38818244D01*
X33931756Y38662364D01*
X33931752Y38662359D01*
X33802187Y38484026D01*
X33702104Y38287607D01*
X33702103Y38287604D01*
X33633985Y38077953D01*
X33599500Y37860222D01*
X15914365Y37860222D01*
X19067324Y41013181D01*
X19128647Y41046666D01*
X19155005Y41049500D01*
X32908482Y41049500D01*
X32975521Y41029815D01*
X32996158Y41013186D01*
X33053455Y40955889D01*
X33053459Y40955885D01*
X33168182Y40879229D01*
X33168195Y40879222D01*
X33295667Y40826422D01*
X33295672Y40826420D01*
X33295676Y40826420D01*
X33295677Y40826419D01*
X33431004Y40799500D01*
X33431007Y40799500D01*
X33568995Y40799500D01*
X33660041Y40817611D01*
X33704328Y40826420D01*
X33831811Y40879225D01*
X33946542Y40955886D01*
X34044114Y41053458D01*
X34120775Y41168189D01*
X34173580Y41295672D01*
X34200500Y41431007D01*
X34200500Y41568993D01*
X34200500Y41568996D01*
X34173581Y41704323D01*
X34173580Y41704324D01*
X34173580Y41704328D01*
X34173578Y41704333D01*
X34120778Y41831805D01*
X34120776Y41831809D01*
X34120775Y41831811D01*
X34054425Y41931110D01*
X34033548Y41997786D01*
X34052032Y42065166D01*
X34054426Y42068891D01*
X34069201Y42091004D01*
X34120775Y42168189D01*
X34173580Y42295672D01*
X34200500Y42431007D01*
X34200500Y42568993D01*
X34200500Y42568996D01*
X34173581Y42704323D01*
X34173580Y42704324D01*
X34173580Y42704328D01*
X34131636Y42805591D01*
X34120778Y42831805D01*
X34120776Y42831809D01*
X34120775Y42831811D01*
X34054425Y42931110D01*
X34033548Y42997786D01*
X34052032Y43065166D01*
X34054426Y43068891D01*
X34120775Y43168189D01*
X34173580Y43295672D01*
X34200500Y43431007D01*
X34200500Y43568993D01*
X34200500Y43568996D01*
X34173581Y43704323D01*
X34173580Y43704324D01*
X34173580Y43704328D01*
X34144436Y43774688D01*
X34120778Y43831805D01*
X34120771Y43831818D01*
X34044114Y43946542D01*
X34044111Y43946546D01*
X33946545Y44044112D01*
X33946541Y44044115D01*
X33831817Y44120772D01*
X33831804Y44120779D01*
X33704332Y44173579D01*
X33704322Y44173582D01*
X33568995Y44200500D01*
X33568993Y44200500D01*
X33431007Y44200500D01*
X33431005Y44200500D01*
X33295677Y44173582D01*
X33295667Y44173579D01*
X33168195Y44120779D01*
X33168182Y44120772D01*
X33053459Y44044116D01*
X33032333Y44022989D01*
X32996161Y43986818D01*
X32934841Y43953334D01*
X32908482Y43950500D01*
X30459184Y43950500D01*
X30392145Y43970185D01*
X30346390Y44022989D01*
X30336446Y44092147D01*
X30358866Y44147386D01*
X30368870Y44161155D01*
X30483241Y44385621D01*
X30561090Y44625215D01*
X30600500Y44874038D01*
X30600500Y45125962D01*
X30561090Y45374785D01*
X30483241Y45614379D01*
X30483239Y45614382D01*
X30483239Y45614384D01*
X30436789Y45705546D01*
X30368870Y45838845D01*
X30334367Y45886335D01*
X30220798Y46042650D01*
X30220794Y46042655D01*
X30042654Y46220795D01*
X30042649Y46220799D01*
X29838848Y46368868D01*
X29838847Y46368869D01*
X29838845Y46368870D01*
X29727147Y46425783D01*
X29614383Y46483240D01*
X29374785Y46561090D01*
X29290200Y46574487D01*
X29125962Y46600500D01*
X28874038Y46600500D01*
X28749626Y46580795D01*
X28625214Y46561090D01*
X28385616Y46483240D01*
X28161151Y46368868D01*
X27957350Y46220799D01*
X27957345Y46220795D01*
X27779205Y46042655D01*
X27779201Y46042650D01*
X27631132Y45838849D01*
X27516760Y45614384D01*
X27438910Y45374786D01*
X27430766Y45323368D01*
X27399500Y45125962D01*
X27399500Y45078250D01*
X27399500Y44874038D01*
X27406393Y44830517D01*
X27438910Y44625215D01*
X27516760Y44385617D01*
X27585986Y44249755D01*
X27624799Y44173580D01*
X27631132Y44161152D01*
X27779201Y43957351D01*
X27779205Y43957346D01*
X27825370Y43911181D01*
X27858855Y43849858D01*
X27853871Y43780166D01*
X27811999Y43724233D01*
X27746535Y43699816D01*
X27737689Y43699500D01*
X22471998Y43699500D01*
X22404959Y43719185D01*
X22359204Y43771989D01*
X22349260Y43841147D01*
X22378285Y43904703D01*
X22437063Y43942477D01*
X22439868Y43943265D01*
X22676632Y44006705D01*
X22931021Y44112077D01*
X23169479Y44249751D01*
X23387928Y44417372D01*
X23582628Y44612072D01*
X23750249Y44830521D01*
X23887923Y45068979D01*
X23993295Y45323368D01*
X24064560Y45589334D01*
X24100500Y45862326D01*
X24100500Y46137674D01*
X24064560Y46410666D01*
X23993295Y46676632D01*
X23887923Y46931021D01*
X23887921Y46931024D01*
X23887919Y46931029D01*
X23812920Y47060929D01*
X23750249Y47169479D01*
X23608948Y47353627D01*
X23582629Y47387927D01*
X23582623Y47387934D01*
X23387933Y47582624D01*
X23387926Y47582630D01*
X23169483Y47750246D01*
X23169482Y47750247D01*
X23169479Y47750249D01*
X23057294Y47815019D01*
X22931028Y47887920D01*
X22931017Y47887925D01*
X22676630Y47993296D01*
X22543649Y48028928D01*
X22410666Y48064560D01*
X22410660Y48064561D01*
X22410655Y48064562D01*
X22137684Y48100499D01*
X22137679Y48100500D01*
X22137674Y48100500D01*
X21862326Y48100500D01*
X21862320Y48100500D01*
X21862315Y48100499D01*
X21589344Y48064562D01*
X21589337Y48064561D01*
X21589334Y48064560D01*
X21560948Y48056954D01*
X21323369Y47993296D01*
X21068982Y47887925D01*
X21068971Y47887920D01*
X20830516Y47750246D01*
X20612073Y47582630D01*
X20612066Y47582624D01*
X20417376Y47387934D01*
X20417370Y47387927D01*
X20249754Y47169484D01*
X20112080Y46931029D01*
X20112075Y46931018D01*
X20006704Y46676631D01*
X19935441Y46410669D01*
X19935438Y46410656D01*
X19899501Y46137685D01*
X19899500Y46137668D01*
X19899500Y45862333D01*
X19899501Y45862316D01*
X19935438Y45589345D01*
X19935439Y45589340D01*
X19935440Y45589334D01*
X19955559Y45514250D01*
X20006704Y45323370D01*
X20112075Y45068983D01*
X20112080Y45068972D01*
X20191809Y44930879D01*
X20249751Y44830521D01*
X20249753Y44830518D01*
X20249754Y44830517D01*
X20417370Y44612074D01*
X20417376Y44612067D01*
X20612066Y44417377D01*
X20612072Y44417372D01*
X20830521Y44249751D01*
X20962453Y44173580D01*
X21068971Y44112081D01*
X21068976Y44112079D01*
X21068979Y44112077D01*
X21323368Y44006705D01*
X21560096Y43943275D01*
X21619756Y43906910D01*
X21650285Y43844063D01*
X21641990Y43774688D01*
X21597505Y43720810D01*
X21530953Y43699535D01*
X21528002Y43699500D01*
X19189691Y43699500D01*
X19109429Y43677994D01*
X19109428Y43677995D01*
X19075115Y43668800D01*
X19075106Y43668797D01*
X18972392Y43609495D01*
X18972384Y43609489D01*
X-5150284Y19486819D01*
X-5211607Y19453334D01*
X-5237965Y19450500D01*
X-6908482Y19450500D01*
X-6975521Y19470185D01*
X-6996159Y19486815D01*
X-7053458Y19544114D01*
X-7053459Y19544115D01*
X-7053460Y19544116D01*
X-7168183Y19620772D01*
X-7168196Y19620779D01*
X-7295668Y19673579D01*
X-7295678Y19673582D01*
X-7431005Y19700500D01*
X-7431007Y19700500D01*
X-7568993Y19700500D01*
X-7568995Y19700500D01*
X-7704323Y19673582D01*
X-7704333Y19673579D01*
X-7831805Y19620779D01*
X-7831818Y19620772D01*
X-7946542Y19544115D01*
X-7946546Y19544112D01*
X-8044112Y19446546D01*
X-8044115Y19446542D01*
X-8120772Y19331818D01*
X-8120779Y19331805D01*
X-8173579Y19204333D01*
X-8173582Y19204323D01*
X-8200500Y19068996D01*
X-8200500Y18987965D01*
X-8220185Y18920926D01*
X-8236819Y18900284D01*
X-9860487Y17276617D01*
X-9860491Y17276611D01*
X-9919799Y17173888D01*
X-9919800Y17173883D01*
X-9944902Y17080201D01*
X-9950500Y17059309D01*
X-17000000Y17059309D01*
X-17000000Y33005552D01*
X-525500Y33005552D01*
X-525500Y32824449D01*
X-497171Y32645590D01*
X-441213Y32473364D01*
X-441212Y32473361D01*
X-358994Y32312003D01*
X-252559Y32165506D01*
X-252555Y32165501D01*
X-124500Y32037446D01*
X-124495Y32037442D01*
X-1130Y31947813D01*
X22006Y31931004D01*
X127484Y31877260D01*
X183360Y31848789D01*
X183363Y31848788D01*
X269476Y31820809D01*
X355591Y31792829D01*
X438429Y31779709D01*
X534449Y31764500D01*
X534454Y31764500D01*
X715551Y31764500D01*
X802259Y31778235D01*
X894409Y31792829D01*
X1066639Y31848789D01*
X1227994Y31931004D01*
X1374501Y32037447D01*
X1502553Y32165499D01*
X1608996Y32312006D01*
X1691211Y32473361D01*
X1747171Y32645591D01*
X1761765Y32737741D01*
X1775500Y32824449D01*
X1775500Y33005552D01*
X1759019Y33109603D01*
X1747171Y33184409D01*
X1697385Y33337637D01*
X1691212Y33356637D01*
X1691211Y33356640D01*
X1644871Y33447585D01*
X1608996Y33517994D01*
X1534322Y33620775D01*
X1502558Y33664495D01*
X1502554Y33664500D01*
X1374499Y33792555D01*
X1374494Y33792559D01*
X1227997Y33898994D01*
X1227996Y33898995D01*
X1227994Y33898996D01*
X1165169Y33931007D01*
X1066639Y33981212D01*
X1066636Y33981213D01*
X894410Y34037171D01*
X715551Y34065500D01*
X715546Y34065500D01*
X534454Y34065500D01*
X534449Y34065500D01*
X355589Y34037171D01*
X183363Y33981213D01*
X183360Y33981212D01*
X22002Y33898994D01*
X-124495Y33792559D01*
X-124500Y33792555D01*
X-252555Y33664500D01*
X-252559Y33664495D01*
X-358994Y33517998D01*
X-441212Y33356640D01*
X-441213Y33356637D01*
X-497171Y33184411D01*
X-525500Y33005552D01*
X-17000000Y33005552D01*
X-17000000Y38876000D01*
X-16980315Y38943039D01*
X-16927511Y38988794D01*
X-16876000Y39000000D01*
X-556880Y39000000D01*
X-489841Y38980315D01*
X-444086Y38927511D01*
X-434142Y38858353D01*
X-456562Y38803115D01*
X-529621Y38702558D01*
X-626096Y38513218D01*
X-691758Y38311131D01*
X-691758Y38311128D01*
X-725000Y38101247D01*
X-725000Y37888754D01*
X-691758Y37678873D01*
X-691758Y37678870D01*
X-626096Y37476783D01*
X-529625Y37287450D01*
X-490272Y37233284D01*
X142036Y37865593D01*
X159075Y37802007D01*
X224901Y37687993D01*
X317993Y37594901D01*
X432007Y37529075D01*
X495590Y37512038D01*
X-136718Y36879731D01*
X-136718Y36879730D01*
X-82551Y36840376D01*
X106782Y36743905D01*
X308870Y36678243D01*
X518754Y36645000D01*
X731246Y36645000D01*
X941127Y36678243D01*
X941130Y36678243D01*
X1143217Y36743905D01*
X1332554Y36840378D01*
X1386716Y36879730D01*
X1386717Y36879730D01*
X754408Y37512038D01*
X817993Y37529075D01*
X932007Y37594901D01*
X1025099Y37687993D01*
X1090925Y37802007D01*
X1107962Y37865591D01*
X1740270Y37233283D01*
X1740270Y37233284D01*
X1779622Y37287446D01*
X1876095Y37476783D01*
X1941757Y37678870D01*
X1941757Y37678873D01*
X1975000Y37888754D01*
X1975000Y38101247D01*
X1941757Y38311128D01*
X1941757Y38311131D01*
X1876095Y38513218D01*
X1779620Y38702558D01*
X1706562Y38803115D01*
X1683082Y38868921D01*
X1698908Y38936975D01*
X1749013Y38985670D01*
X1806880Y39000000D01*
X9000000Y39000000D01*
X9000000Y45125962D01*
X13399500Y45125962D01*
X13399500Y45078250D01*
X13399500Y44874038D01*
X13406393Y44830517D01*
X13438910Y44625215D01*
X13516760Y44385617D01*
X13585986Y44249755D01*
X13624799Y44173580D01*
X13631132Y44161152D01*
X13779201Y43957351D01*
X13779205Y43957346D01*
X13957345Y43779206D01*
X13957350Y43779202D01*
X14109308Y43668799D01*
X14161155Y43631130D01*
X14283100Y43568996D01*
X14385616Y43516761D01*
X14385618Y43516761D01*
X14385621Y43516759D01*
X14625215Y43438910D01*
X14874038Y43399500D01*
X14874039Y43399500D01*
X15125961Y43399500D01*
X15125962Y43399500D01*
X15374785Y43438910D01*
X15614379Y43516759D01*
X15838845Y43631130D01*
X16042656Y43779207D01*
X16220793Y43957344D01*
X16368870Y44161155D01*
X16483241Y44385621D01*
X16561090Y44625215D01*
X16600500Y44874038D01*
X16600500Y45125962D01*
X16561090Y45374785D01*
X16483241Y45614379D01*
X16483239Y45614382D01*
X16483239Y45614384D01*
X16436789Y45705546D01*
X16368870Y45838845D01*
X16334367Y45886335D01*
X16220798Y46042650D01*
X16220794Y46042655D01*
X16042654Y46220795D01*
X16042649Y46220799D01*
X15838848Y46368868D01*
X15838847Y46368869D01*
X15838845Y46368870D01*
X15727147Y46425783D01*
X15614383Y46483240D01*
X15374785Y46561090D01*
X15290200Y46574487D01*
X15125962Y46600500D01*
X14874038Y46600500D01*
X14749626Y46580795D01*
X14625214Y46561090D01*
X14385616Y46483240D01*
X14161151Y46368868D01*
X13957350Y46220799D01*
X13957345Y46220795D01*
X13779205Y46042655D01*
X13779201Y46042650D01*
X13631132Y45838849D01*
X13516760Y45614384D01*
X13438910Y45374786D01*
X13430766Y45323368D01*
X13399500Y45125962D01*
X9000000Y45125962D01*
X9000000Y47375500D01*
X9019685Y47442539D01*
X9072489Y47488294D01*
X9124000Y47499500D01*
X16107317Y47499500D01*
X16107318Y47499500D01*
X16277851Y47524020D01*
X16319764Y47530045D01*
X16319765Y47530046D01*
X16319769Y47530046D01*
X16525710Y47590516D01*
X16525713Y47590518D01*
X16525715Y47590518D01*
X16720938Y47679673D01*
X16720944Y47679677D01*
X16720950Y47679679D01*
X16901513Y47795719D01*
X17063724Y47936276D01*
X17204281Y48098487D01*
X17320321Y48279050D01*
X17320323Y48279056D01*
X17320327Y48279062D01*
X17409482Y48474285D01*
X17409482Y48474287D01*
X17409484Y48474290D01*
X17469954Y48680231D01*
X17500500Y48892682D01*
X17500500Y48993039D01*
X17501280Y49006923D01*
X17503954Y49030655D01*
X17511460Y49097271D01*
X17517635Y49124330D01*
X17545353Y49203544D01*
X17557396Y49228550D01*
X17602046Y49299611D01*
X17619351Y49321310D01*
X17678690Y49380649D01*
X17700389Y49397954D01*
X17771450Y49442604D01*
X17796456Y49454647D01*
X17875670Y49482365D01*
X17902733Y49488541D01*
X17965419Y49495604D01*
X17993079Y49498720D01*
X18006962Y49499500D01*
X18065892Y49499500D01*
X25934108Y49499500D01*
X25993038Y49499500D01*
X26006922Y49498720D01*
G37*
%TD.AperFunction*%
%TD*%
%TA.AperFunction,Conductor*%
%TO.N,GND_MCU*%
G36*
X-35640690Y49480668D02*
G01*
X-35627783Y49479311D01*
X-35473686Y49454905D01*
X-35278835Y49424045D01*
X-35266148Y49421349D01*
X-34924867Y49329902D01*
X-34912533Y49325894D01*
X-34582683Y49199276D01*
X-34570847Y49194007D01*
X-34256024Y49033597D01*
X-34244810Y49027121D01*
X-33948489Y48834689D01*
X-33938008Y48827074D01*
X-33663425Y48604722D01*
X-33653780Y48596037D01*
X-33403965Y48346221D01*
X-33395280Y48336576D01*
X-33172934Y48062002D01*
X-33165305Y48051501D01*
X-32971115Y47752476D01*
X-32967727Y47746948D01*
X-32936399Y47692686D01*
X-32843213Y47599500D01*
X-32729085Y47533608D01*
X-32601791Y47499500D01*
X-32601789Y47499500D01*
X5876000Y47499500D01*
X5943039Y47479815D01*
X5988794Y47427011D01*
X6000000Y47375500D01*
X6000000Y42124000D01*
X5980315Y42056961D01*
X5927511Y42011206D01*
X5876000Y42000000D01*
X1275737Y42000000D01*
X698642Y42577095D01*
X817993Y42609075D01*
X932007Y42674901D01*
X1025099Y42767993D01*
X1090925Y42882007D01*
X1122905Y43001359D01*
X1697575Y42426689D01*
X1783418Y42595165D01*
X1844221Y42782295D01*
X1875000Y42976618D01*
X1875000Y43173383D01*
X1844221Y43367706D01*
X1783417Y43554839D01*
X1697576Y43723313D01*
X1697576Y43723314D01*
X1122905Y43148643D01*
X1090925Y43267993D01*
X1025099Y43382007D01*
X932007Y43475099D01*
X817993Y43540925D01*
X698642Y43572906D01*
X1273312Y44147577D01*
X1273312Y44147578D01*
X1213370Y44178119D01*
X1162574Y44226093D01*
X1145779Y44293914D01*
X1168316Y44360049D01*
X1213371Y44399089D01*
X1332816Y44459949D01*
X1421505Y44524385D01*
X1504786Y44584891D01*
X1504788Y44584894D01*
X1504792Y44584896D01*
X1655104Y44735208D01*
X1655106Y44735212D01*
X1655109Y44735214D01*
X1780048Y44907180D01*
X1780047Y44907180D01*
X1780051Y44907184D01*
X1876557Y45096588D01*
X1942246Y45298757D01*
X1975500Y45508713D01*
X1975500Y45721287D01*
X1942246Y45931243D01*
X1876557Y46133412D01*
X1780051Y46322816D01*
X1780049Y46322819D01*
X1780048Y46322821D01*
X1655109Y46494787D01*
X1504786Y46645110D01*
X1332820Y46770049D01*
X1143414Y46866556D01*
X1143413Y46866557D01*
X1143412Y46866557D01*
X941243Y46932246D01*
X941241Y46932247D01*
X941240Y46932247D01*
X779957Y46957792D01*
X731287Y46965500D01*
X518713Y46965500D01*
X470042Y46957792D01*
X308760Y46932247D01*
X106585Y46866556D01*
X-82821Y46770049D01*
X-254787Y46645110D01*
X-405110Y46494787D01*
X-530049Y46322821D01*
X-626556Y46133415D01*
X-626557Y46133413D01*
X-626557Y46133412D01*
X-659402Y46032328D01*
X-692247Y45931240D01*
X-725500Y45721287D01*
X-725500Y45508714D01*
X-696145Y45323370D01*
X-692246Y45298757D01*
X-653103Y45178287D01*
X-626556Y45096586D01*
X-530049Y44907180D01*
X-405110Y44735214D01*
X-254787Y44584891D01*
X-82821Y44459952D01*
X-82819Y44459951D01*
X-82816Y44459949D01*
X36629Y44399089D01*
X87425Y44351115D01*
X104220Y44283294D01*
X81683Y44217159D01*
X36629Y44178119D01*
X-23314Y44147578D01*
X551358Y43572906D01*
X432007Y43540925D01*
X317993Y43475099D01*
X224901Y43382007D01*
X159075Y43267993D01*
X127094Y43148642D01*
X-447578Y43723314D01*
X-533417Y43554841D01*
X-533421Y43554831D01*
X-594222Y43367706D01*
X-625000Y43173383D01*
X-625000Y42976618D01*
X-594222Y42782295D01*
X-533421Y42595170D01*
X-533417Y42595160D01*
X-447578Y42426688D01*
X-447577Y42426688D01*
X127094Y43001359D01*
X159075Y42882007D01*
X224901Y42767993D01*
X317993Y42674901D01*
X432007Y42609075D01*
X551358Y42577095D01*
X-25738Y42000000D01*
X-21000000Y42000000D01*
X-21000000Y26616610D01*
X-21019685Y26549571D01*
X-21072489Y26503816D01*
X-21141647Y26493872D01*
X-21199487Y26518235D01*
X-21290233Y26587868D01*
X-21290251Y26587880D01*
X-21404249Y26653697D01*
X-21404250Y26653698D01*
X-21526171Y26704200D01*
X-21632745Y26732757D01*
X-21653338Y26738275D01*
X-21653339Y26738276D01*
X-21653342Y26738276D01*
X-21784167Y26755500D01*
X-21784174Y26755500D01*
X-22350000Y26755500D01*
X-22350003Y26755500D01*
X-22421939Y26750356D01*
X-22421944Y26750355D01*
X-22459265Y26739397D01*
X-22511842Y26735637D01*
X-22649999Y26755500D01*
X-22650000Y26755500D01*
X-23215826Y26755500D01*
X-23215834Y26755500D01*
X-23338140Y26739397D01*
X-23346662Y26738275D01*
X-23373470Y26731092D01*
X-23443320Y26732757D01*
X-23493241Y26763187D01*
X-23841326Y27111273D01*
X-23841327Y27111274D01*
X-23902473Y27152130D01*
X-23947873Y27182465D01*
X-24066256Y27231501D01*
X-24066262Y27231503D01*
X-24191929Y27256500D01*
X-24191931Y27256500D01*
X-27561531Y27256500D01*
X-27561533Y27256500D01*
X-27687201Y27231503D01*
X-27687207Y27231501D01*
X-27805588Y27182466D01*
X-27912131Y27111277D01*
X-28246042Y26777367D01*
X-28307365Y26743883D01*
X-28317535Y26742110D01*
X-28346658Y26738276D01*
X-28346662Y26738275D01*
X-28473830Y26704200D01*
X-28595751Y26653698D01*
X-28595752Y26653697D01*
X-28709750Y26587880D01*
X-28709768Y26587868D01*
X-28814445Y26507545D01*
X-28814455Y26507536D01*
X-28907536Y26414455D01*
X-28907545Y26414445D01*
X-28987868Y26309768D01*
X-28987880Y26309750D01*
X-29053697Y26195752D01*
X-29053698Y26195751D01*
X-29104200Y26073830D01*
X-29138276Y25946659D01*
X-29155500Y25815834D01*
X-29155500Y25465808D01*
X-29175185Y25398769D01*
X-29191819Y25378127D01*
X-33915843Y20654104D01*
X-33977166Y20620619D01*
X-34046858Y20625603D01*
X-34102791Y20667475D01*
X-34125141Y20717592D01*
X-34134106Y20762666D01*
X-34169396Y20847865D01*
X-34201985Y20926543D01*
X-34201986Y20926545D01*
X-34201987Y20926547D01*
X-34205035Y20931108D01*
X-34225914Y20997783D01*
X-34207431Y21065163D01*
X-34205052Y21068868D01*
X-34201987Y21073453D01*
X-34134106Y21237334D01*
X-34133133Y21242222D01*
X-34099501Y21411305D01*
X-34099500Y21411307D01*
X-34099500Y21588694D01*
X-34099501Y21588696D01*
X-34134104Y21762659D01*
X-34134107Y21762668D01*
X-34201985Y21926543D01*
X-34201986Y21926545D01*
X-34201987Y21926547D01*
X-34205035Y21931108D01*
X-34225914Y21997783D01*
X-34207431Y22065163D01*
X-34205052Y22068868D01*
X-34201987Y22073453D01*
X-34134106Y22237334D01*
X-34099500Y22411309D01*
X-34099500Y22588691D01*
X-34099500Y22588694D01*
X-34099501Y22588696D01*
X-34134104Y22762659D01*
X-34134107Y22762668D01*
X-34201984Y22926541D01*
X-34201991Y22926554D01*
X-34300536Y23074035D01*
X-34300539Y23074039D01*
X-34425962Y23199462D01*
X-34425966Y23199465D01*
X-34573447Y23298010D01*
X-34573460Y23298017D01*
X-34737333Y23365894D01*
X-34737342Y23365897D01*
X-34800118Y23378383D01*
X-34802726Y23379747D01*
X-34805665Y23379619D01*
X-34833490Y23395840D01*
X-34862029Y23410768D01*
X-34863486Y23413326D01*
X-34866027Y23414807D01*
X-34880664Y23443492D01*
X-34896603Y23471483D01*
X-34896446Y23474422D01*
X-34897783Y23477043D01*
X-34894588Y23509093D01*
X-34892864Y23541253D01*
X-34891143Y23543640D01*
X-34890851Y23546568D01*
X-34870829Y23571811D01*
X-34851997Y23597925D01*
X-34848707Y23599701D01*
X-34847431Y23601308D01*
X-34839088Y23604890D01*
X-34815992Y23617349D01*
X-34808198Y23620011D01*
X-34737334Y23634106D01*
X-34598592Y23691575D01*
X-34594858Y23692849D01*
X-34586378Y23693218D01*
X-34554793Y23699500D01*
X-34445207Y23699500D01*
X-34397755Y23690061D01*
X-34386212Y23685280D01*
X-34262666Y23634106D01*
X-34262664Y23634106D01*
X-34262659Y23634104D01*
X-34088696Y23599501D01*
X-34088693Y23599500D01*
X-34088691Y23599500D01*
X-33911307Y23599500D01*
X-33911306Y23599501D01*
X-33853318Y23611036D01*
X-33737342Y23634104D01*
X-33737339Y23634106D01*
X-33737334Y23634106D01*
X-33602245Y23690061D01*
X-33594069Y23691688D01*
X-33589728Y23694477D01*
X-33554793Y23699500D01*
X-33445207Y23699500D01*
X-33397755Y23690061D01*
X-33386212Y23685280D01*
X-33262666Y23634106D01*
X-33262664Y23634106D01*
X-33262659Y23634104D01*
X-33088696Y23599501D01*
X-33088693Y23599500D01*
X-33088691Y23599500D01*
X-32911307Y23599500D01*
X-32911306Y23599501D01*
X-32853318Y23611036D01*
X-32737342Y23634104D01*
X-32737339Y23634106D01*
X-32737334Y23634106D01*
X-32585611Y23696951D01*
X-32573460Y23701984D01*
X-32573460Y23701985D01*
X-32573453Y23701987D01*
X-32425965Y23800536D01*
X-32300536Y23925965D01*
X-32201987Y24073453D01*
X-32194090Y24092517D01*
X-32192042Y24097465D01*
X-32134106Y24237334D01*
X-32132680Y24244500D01*
X-32099501Y24411305D01*
X-32099500Y24411307D01*
X-32099500Y24588694D01*
X-32099501Y24588696D01*
X-32134104Y24762659D01*
X-32134107Y24762668D01*
X-32151331Y24804250D01*
X-32190061Y24897755D01*
X-32191688Y24905932D01*
X-32194477Y24910272D01*
X-32199500Y24945207D01*
X-32199500Y25054793D01*
X-32190061Y25102245D01*
X-32156128Y25184167D01*
X-32134106Y25237334D01*
X-32099500Y25411309D01*
X-32099500Y25588691D01*
X-32099500Y25588694D01*
X-32099501Y25588696D01*
X-32134104Y25762659D01*
X-32134107Y25762668D01*
X-32201985Y25926543D01*
X-32201986Y25926545D01*
X-32201987Y25926547D01*
X-32205035Y25931108D01*
X-32225914Y25997783D01*
X-32207431Y26065163D01*
X-32205052Y26068868D01*
X-32201987Y26073453D01*
X-32134106Y26237334D01*
X-32099500Y26411309D01*
X-32099500Y26588691D01*
X-32099500Y26588694D01*
X-32099501Y26588696D01*
X-32134104Y26762659D01*
X-32134107Y26762668D01*
X-32169400Y26847873D01*
X-32190061Y26897755D01*
X-32191688Y26905932D01*
X-32194477Y26910272D01*
X-32199500Y26945207D01*
X-32199500Y27054793D01*
X-32190061Y27102245D01*
X-32136522Y27231501D01*
X-32134106Y27237334D01*
X-32099500Y27411309D01*
X-32099500Y27588691D01*
X-32099500Y27588694D01*
X-32099501Y27588696D01*
X-32134104Y27762659D01*
X-32134107Y27762668D01*
X-32201984Y27926541D01*
X-32201991Y27926554D01*
X-32300536Y28074035D01*
X-32300539Y28074039D01*
X-32425962Y28199462D01*
X-32425966Y28199465D01*
X-32573447Y28298010D01*
X-32573460Y28298017D01*
X-32737333Y28365894D01*
X-32737342Y28365897D01*
X-32911306Y28400500D01*
X-32911309Y28400500D01*
X-33088691Y28400500D01*
X-33088694Y28400500D01*
X-33262659Y28365897D01*
X-33262668Y28365894D01*
X-33397755Y28309939D01*
X-33405932Y28308313D01*
X-33410272Y28305523D01*
X-33445207Y28300500D01*
X-33554793Y28300500D01*
X-33602245Y28309939D01*
X-33737333Y28365894D01*
X-33737342Y28365897D01*
X-33911306Y28400500D01*
X-33911309Y28400500D01*
X-34088691Y28400500D01*
X-34088694Y28400500D01*
X-34262659Y28365897D01*
X-34262668Y28365894D01*
X-34397755Y28309939D01*
X-34405932Y28308313D01*
X-34410272Y28305523D01*
X-34445207Y28300500D01*
X-34554793Y28300500D01*
X-34602245Y28309939D01*
X-34737333Y28365894D01*
X-34737342Y28365897D01*
X-34911306Y28400500D01*
X-34911309Y28400500D01*
X-35088691Y28400500D01*
X-35088694Y28400500D01*
X-35262659Y28365897D01*
X-35262668Y28365894D01*
X-35397755Y28309939D01*
X-35445207Y28300500D01*
X-37493871Y28300500D01*
X-37493877Y28300499D01*
X-37553484Y28294092D01*
X-37688329Y28243798D01*
X-37688332Y28243796D01*
X-37713796Y28224733D01*
X-37779261Y28200316D01*
X-37788107Y28200000D01*
X-37845999Y28200000D01*
X-37845999Y28168519D01*
X-37845348Y28164406D01*
X-37854308Y28095114D01*
X-37868554Y28070709D01*
X-37889795Y28042334D01*
X-37889798Y28042329D01*
X-37932981Y27926547D01*
X-37940091Y27907483D01*
X-37946500Y27847873D01*
X-37946500Y27847866D01*
X-37946500Y27847865D01*
X-37946500Y27152130D01*
X-37946499Y27152124D01*
X-37940092Y27092518D01*
X-37921747Y27043334D01*
X-37916763Y26973642D01*
X-37921747Y26956669D01*
X-37940090Y26907489D01*
X-37940091Y26907485D01*
X-37940091Y26907483D01*
X-37946500Y26847873D01*
X-37946500Y26847866D01*
X-37946500Y26847865D01*
X-37946500Y26152130D01*
X-37946499Y26152124D01*
X-37940092Y26092518D01*
X-37921747Y26043334D01*
X-37916763Y25973642D01*
X-37921747Y25956669D01*
X-37940090Y25907489D01*
X-37940091Y25907485D01*
X-37940091Y25907483D01*
X-37946500Y25847873D01*
X-37946500Y25847866D01*
X-37946500Y25847865D01*
X-37946500Y25152130D01*
X-37946499Y25152124D01*
X-37940092Y25092518D01*
X-37921747Y25043334D01*
X-37916763Y24973642D01*
X-37921747Y24956669D01*
X-37940090Y24907489D01*
X-37940091Y24907485D01*
X-37940091Y24907483D01*
X-37946500Y24847873D01*
X-37946500Y24847866D01*
X-37946500Y24847865D01*
X-37946500Y24152130D01*
X-37946499Y24152124D01*
X-37940092Y24092517D01*
X-37889798Y23957672D01*
X-37889797Y23957670D01*
X-37868556Y23929295D01*
X-37844140Y23863830D01*
X-37845349Y23835601D01*
X-37846000Y23831491D01*
X-37846000Y23800000D01*
X-37788107Y23800000D01*
X-37721068Y23780315D01*
X-37713796Y23775267D01*
X-37688332Y23756205D01*
X-37688329Y23756203D01*
X-37553483Y23705909D01*
X-37553484Y23705909D01*
X-37546556Y23705165D01*
X-37493873Y23699500D01*
X-36670000Y23699501D01*
X-36661314Y23696951D01*
X-36652353Y23698239D01*
X-36628317Y23687262D01*
X-36602961Y23679817D01*
X-36597033Y23672975D01*
X-36588797Y23669214D01*
X-36574511Y23646983D01*
X-36557206Y23627013D01*
X-36554919Y23616498D01*
X-36551023Y23610436D01*
X-36546000Y23575501D01*
X-36546000Y23424500D01*
X-36565685Y23357461D01*
X-36618489Y23311706D01*
X-36670000Y23300500D01*
X-37493871Y23300500D01*
X-37493877Y23300499D01*
X-37553484Y23294092D01*
X-37688329Y23243798D01*
X-37688332Y23243796D01*
X-37713796Y23224733D01*
X-37779261Y23200316D01*
X-37788107Y23200000D01*
X-37845999Y23200000D01*
X-37845999Y23168519D01*
X-37845348Y23164406D01*
X-37854308Y23095114D01*
X-37868554Y23070709D01*
X-37889795Y23042334D01*
X-37889798Y23042329D01*
X-37932981Y22926547D01*
X-37940091Y22907483D01*
X-37946500Y22847873D01*
X-37946500Y22847866D01*
X-37946500Y22847865D01*
X-37946500Y22152130D01*
X-37946499Y22152124D01*
X-37940092Y22092518D01*
X-37921747Y22043334D01*
X-37916763Y21973642D01*
X-37921747Y21956669D01*
X-37940090Y21907489D01*
X-37940091Y21907485D01*
X-37940091Y21907483D01*
X-37946500Y21847873D01*
X-37946500Y21847866D01*
X-37946500Y21847865D01*
X-37946500Y21152130D01*
X-37946499Y21152124D01*
X-37940092Y21092518D01*
X-37929889Y21065163D01*
X-37921748Y21043335D01*
X-37921747Y21043334D01*
X-37916763Y20973642D01*
X-37921747Y20956669D01*
X-37940090Y20907489D01*
X-37940091Y20907485D01*
X-37940091Y20907483D01*
X-37946500Y20847873D01*
X-37946500Y20847866D01*
X-37946500Y20847865D01*
X-37946500Y20152130D01*
X-37946499Y20152124D01*
X-37940092Y20092518D01*
X-37921747Y20043334D01*
X-37916763Y19973642D01*
X-37921747Y19956669D01*
X-37940090Y19907489D01*
X-37940091Y19907485D01*
X-37940091Y19907483D01*
X-37946500Y19847873D01*
X-37946500Y19847866D01*
X-37946500Y19847865D01*
X-37946500Y19152130D01*
X-37946499Y19152124D01*
X-37940092Y19092518D01*
X-37921747Y19043334D01*
X-37916763Y18973642D01*
X-37921747Y18956669D01*
X-37940090Y18907489D01*
X-37940091Y18907485D01*
X-37940091Y18907483D01*
X-37946500Y18847873D01*
X-37946500Y18847866D01*
X-37946500Y18847865D01*
X-37946500Y18152130D01*
X-37946499Y18152124D01*
X-37940092Y18092518D01*
X-37921747Y18043334D01*
X-37916763Y17973642D01*
X-37921747Y17956669D01*
X-37940090Y17907489D01*
X-37940091Y17907485D01*
X-37940091Y17907483D01*
X-37946500Y17847873D01*
X-37946500Y17847866D01*
X-37946500Y17847865D01*
X-37946500Y17152130D01*
X-37946499Y17152124D01*
X-37940092Y17092518D01*
X-37921747Y17043334D01*
X-37916763Y16973642D01*
X-37921747Y16956669D01*
X-37940090Y16907489D01*
X-37940091Y16907485D01*
X-37940091Y16907483D01*
X-37946500Y16847873D01*
X-37946500Y16847866D01*
X-37946500Y16847865D01*
X-37946500Y16152130D01*
X-37946499Y16152124D01*
X-37940092Y16092517D01*
X-37889798Y15957672D01*
X-37889797Y15957670D01*
X-37868556Y15929295D01*
X-37844140Y15863830D01*
X-37845349Y15835601D01*
X-37846000Y15831491D01*
X-37846000Y15800000D01*
X-37788107Y15800000D01*
X-37721068Y15780315D01*
X-37713796Y15775267D01*
X-37688332Y15756205D01*
X-37688329Y15756203D01*
X-37553483Y15705909D01*
X-37553484Y15705909D01*
X-37546556Y15705165D01*
X-37493873Y15699500D01*
X-36634845Y15699501D01*
X-36634831Y15699500D01*
X-36624842Y15699500D01*
X-35445207Y15699500D01*
X-35397755Y15690061D01*
X-35262666Y15634106D01*
X-35262664Y15634106D01*
X-35262659Y15634104D01*
X-35088696Y15599501D01*
X-35088693Y15599500D01*
X-35088691Y15599500D01*
X-34911307Y15599500D01*
X-34911306Y15599501D01*
X-34853318Y15611036D01*
X-34737342Y15634104D01*
X-34737339Y15634106D01*
X-34737334Y15634106D01*
X-34573453Y15701987D01*
X-34425965Y15800536D01*
X-34422244Y15804257D01*
X-34413319Y15813181D01*
X-34351996Y15846666D01*
X-34325638Y15849500D01*
X-29151413Y15849500D01*
X-29084374Y15829815D01*
X-29044027Y15787501D01*
X-28987875Y15690243D01*
X-28987872Y15690239D01*
X-28987868Y15690233D01*
X-28918245Y15599500D01*
X-28907541Y15585551D01*
X-28814449Y15492459D01*
X-28814445Y15492456D01*
X-28709768Y15412133D01*
X-28709764Y15412131D01*
X-28709757Y15412125D01*
X-28709750Y15412121D01*
X-28595752Y15346304D01*
X-28595751Y15346303D01*
X-28595748Y15346302D01*
X-28595743Y15346299D01*
X-28473829Y15295800D01*
X-28346662Y15261725D01*
X-28317536Y15257891D01*
X-28253644Y15229628D01*
X-28246042Y15222634D01*
X-27912137Y14888728D01*
X-27912136Y14888727D01*
X-27912133Y14888725D01*
X-27912131Y14888723D01*
X-27805589Y14817535D01*
X-27687206Y14768499D01*
X-27687202Y14768499D01*
X-27687201Y14768498D01*
X-27561534Y14743500D01*
X-27561531Y14743500D01*
X-24191929Y14743500D01*
X-24107385Y14760318D01*
X-24066256Y14768499D01*
X-23947873Y14817535D01*
X-23841331Y14888723D01*
X-23493241Y15236815D01*
X-23431918Y15270299D01*
X-23373469Y15268909D01*
X-23346662Y15261725D01*
X-23215826Y15244500D01*
X-23215819Y15244500D01*
X-22650000Y15244500D01*
X-22578060Y15249645D01*
X-22540741Y15260604D01*
X-22488159Y15264364D01*
X-22350000Y15244500D01*
X-22349997Y15244500D01*
X-21784181Y15244500D01*
X-21784174Y15244500D01*
X-21653338Y15261725D01*
X-21526171Y15295800D01*
X-21404257Y15346299D01*
X-21290243Y15412125D01*
X-21199485Y15481768D01*
X-21134319Y15506961D01*
X-21065874Y15492923D01*
X-21015883Y15444110D01*
X-21000000Y15383391D01*
X-21000000Y5124000D01*
X-21019685Y5056961D01*
X-21072489Y5011206D01*
X-21124000Y5000000D01*
X-39375500Y5000000D01*
X-39442539Y5019685D01*
X-39488294Y5072489D01*
X-39499500Y5124000D01*
X-39499500Y6818521D01*
X-36274999Y6818521D01*
X-36260165Y6724851D01*
X-36260163Y6724845D01*
X-36202644Y6611959D01*
X-36202637Y6611950D01*
X-36113051Y6522364D01*
X-36113047Y6522361D01*
X-36000145Y6464834D01*
X-35906486Y6450001D01*
X-34675001Y6450001D01*
X-34075000Y6450001D01*
X-32843521Y6450001D01*
X-32749851Y6464836D01*
X-32749845Y6464838D01*
X-32636959Y6522357D01*
X-32636950Y6522364D01*
X-32547364Y6611950D01*
X-32547361Y6611954D01*
X-32489834Y6724856D01*
X-32475000Y6818514D01*
X-32475000Y7099361D01*
X-24262500Y7099361D01*
X-24262500Y6900640D01*
X-24231413Y6704363D01*
X-24170007Y6515371D01*
X-24081871Y6342396D01*
X-23559144Y6865122D01*
X-23535815Y6778058D01*
X-23460115Y6646942D01*
X-23353058Y6539885D01*
X-23221942Y6464185D01*
X-23134880Y6440857D01*
X-23657607Y5918132D01*
X-23484624Y5829992D01*
X-23295638Y5768588D01*
X-23099360Y5737500D01*
X-22900640Y5737500D01*
X-22704363Y5768588D01*
X-22515370Y5829995D01*
X-22515363Y5829998D01*
X-22342395Y5918132D01*
X-22865121Y6440858D01*
X-22778058Y6464185D01*
X-22646942Y6539885D01*
X-22539885Y6646942D01*
X-22464185Y6778058D01*
X-22440858Y6865121D01*
X-21918132Y6342395D01*
X-21829998Y6515363D01*
X-21829995Y6515370D01*
X-21768588Y6704363D01*
X-21737500Y6900640D01*
X-21737500Y7099361D01*
X-21768588Y7295638D01*
X-21829992Y7484624D01*
X-21918132Y7657607D01*
X-22440858Y7134881D01*
X-22464185Y7221942D01*
X-22539885Y7353058D01*
X-22646942Y7460115D01*
X-22778058Y7535815D01*
X-22865121Y7559144D01*
X-22342395Y8081870D01*
X-22515371Y8170007D01*
X-22704363Y8231413D01*
X-22900640Y8262500D01*
X-23099360Y8262500D01*
X-23295638Y8231413D01*
X-23484630Y8170007D01*
X-23484633Y8170006D01*
X-23657606Y8081870D01*
X-23134880Y7559144D01*
X-23221942Y7535815D01*
X-23353058Y7460115D01*
X-23460115Y7353058D01*
X-23535815Y7221942D01*
X-23559144Y7134880D01*
X-24081870Y7657606D01*
X-24170006Y7484633D01*
X-24170007Y7484630D01*
X-24231413Y7295638D01*
X-24262500Y7099361D01*
X-32475000Y7099361D01*
X-32475000Y7850000D01*
X-34075000Y7850000D01*
X-34075000Y6450001D01*
X-34675001Y6450001D01*
X-34675000Y6450002D01*
X-34675000Y7850000D01*
X-36274999Y7850000D01*
X-36274999Y6818521D01*
X-39499500Y6818521D01*
X-39499500Y9467849D01*
X-36275000Y9467849D01*
X-36275000Y8450000D01*
X-34675000Y8450000D01*
X-34075000Y8450000D01*
X-32475001Y8450000D01*
X-32475001Y9481480D01*
X-32489836Y9575150D01*
X-32489838Y9575156D01*
X-32547357Y9688042D01*
X-32547364Y9688051D01*
X-32636950Y9777637D01*
X-32636954Y9777640D01*
X-32749856Y9835167D01*
X-32843514Y9850000D01*
X-34075000Y9850000D01*
X-34075000Y8450000D01*
X-34675000Y8450000D01*
X-34675000Y9850000D01*
X-35173054Y9850000D01*
X-35240093Y9869685D01*
X-35285848Y9922489D01*
X-35295792Y9991647D01*
X-35283539Y10030295D01*
X-35260834Y10074856D01*
X-35246000Y10168514D01*
X-35246000Y10200000D01*
X-36246000Y10200000D01*
X-36246000Y9800001D01*
X-36243191Y9797192D01*
X-36236422Y9784795D01*
X-36225845Y9775430D01*
X-36220009Y9754738D01*
X-36209706Y9735869D01*
X-36210714Y9721780D01*
X-36206879Y9708184D01*
X-36212276Y9673305D01*
X-36275000Y9467849D01*
X-39499500Y9467849D01*
X-39499500Y10168521D01*
X-37845999Y10168521D01*
X-37831165Y10074851D01*
X-37831163Y10074845D01*
X-37773644Y9961959D01*
X-37773637Y9961950D01*
X-37684051Y9872364D01*
X-37684047Y9872361D01*
X-37571145Y9814834D01*
X-37477486Y9800001D01*
X-36846001Y9800001D01*
X-36846000Y9800002D01*
X-36846000Y10200000D01*
X-37845999Y10200000D01*
X-37845999Y10168521D01*
X-39499500Y10168521D01*
X-39499500Y10822216D01*
X-37846000Y10822216D01*
X-37846000Y10800000D01*
X-36846000Y10800000D01*
X-36246000Y10800000D01*
X-35246001Y10800000D01*
X-35246001Y10831480D01*
X-35260836Y10925148D01*
X-35260836Y10925150D01*
X-35270290Y10943704D01*
X-35283187Y11012373D01*
X-35270290Y11056296D01*
X-35260835Y11074853D01*
X-35260834Y11074855D01*
X-35246000Y11168514D01*
X-35246000Y11200000D01*
X-36246000Y11200000D01*
X-36246000Y10800000D01*
X-36846000Y10800000D01*
X-36846000Y11200000D01*
X-37845999Y11200000D01*
X-37845999Y11168521D01*
X-37831165Y11074851D01*
X-37831165Y11074850D01*
X-37821710Y11056295D01*
X-37817006Y11031247D01*
X-37808408Y11007258D01*
X-37809678Y10992223D01*
X-37808814Y10987625D01*
X-37810571Y10981643D01*
X-37811377Y10972089D01*
X-37846000Y10822216D01*
X-39499500Y10822216D01*
X-39499500Y13847873D01*
X-37946500Y13847873D01*
X-37946500Y13847866D01*
X-37946500Y13847865D01*
X-37946500Y13152130D01*
X-37946499Y13152124D01*
X-37940092Y13092518D01*
X-37921747Y13043334D01*
X-37916763Y12973642D01*
X-37921747Y12956669D01*
X-37940090Y12907489D01*
X-37940091Y12907485D01*
X-37940091Y12907483D01*
X-37946500Y12847873D01*
X-37946500Y12847866D01*
X-37946500Y12847865D01*
X-37946500Y12152130D01*
X-37946499Y12152124D01*
X-37940092Y12092517D01*
X-37889798Y11957672D01*
X-37889797Y11957670D01*
X-37868556Y11929295D01*
X-37844140Y11863830D01*
X-37845349Y11835601D01*
X-37846000Y11831491D01*
X-37846000Y11800000D01*
X-37788107Y11800000D01*
X-37721068Y11780315D01*
X-37713796Y11775267D01*
X-37688332Y11756205D01*
X-37688329Y11756203D01*
X-37553483Y11705909D01*
X-37553484Y11705909D01*
X-37546556Y11705165D01*
X-37493873Y11699500D01*
X-36634845Y11699501D01*
X-36634831Y11699500D01*
X-36624842Y11699500D01*
X-35445207Y11699500D01*
X-35397755Y11690061D01*
X-35262666Y11634106D01*
X-35262664Y11634106D01*
X-35262659Y11634104D01*
X-35088696Y11599501D01*
X-35088693Y11599500D01*
X-35088691Y11599500D01*
X-34911307Y11599500D01*
X-34911306Y11599501D01*
X-34853318Y11611036D01*
X-34737342Y11634104D01*
X-34737339Y11634106D01*
X-34737334Y11634106D01*
X-34573453Y11701987D01*
X-34425965Y11800536D01*
X-34300536Y11925965D01*
X-34201987Y12073453D01*
X-34194090Y12092517D01*
X-34169399Y12152128D01*
X-34134106Y12237334D01*
X-34099500Y12411309D01*
X-34099500Y12588691D01*
X-34099500Y12588694D01*
X-34099501Y12588696D01*
X-34134104Y12762659D01*
X-34134107Y12762668D01*
X-34201985Y12926543D01*
X-34201986Y12926545D01*
X-34201987Y12926547D01*
X-34205035Y12931108D01*
X-34225914Y12997783D01*
X-34207431Y13065163D01*
X-34205052Y13068868D01*
X-34201987Y13073453D01*
X-34134106Y13237334D01*
X-34099500Y13411309D01*
X-34099500Y13588691D01*
X-34099500Y13588694D01*
X-34099501Y13588696D01*
X-34134104Y13762659D01*
X-34134107Y13762668D01*
X-34201984Y13926541D01*
X-34201991Y13926554D01*
X-34300536Y14074035D01*
X-34300539Y14074039D01*
X-34425962Y14199462D01*
X-34425966Y14199465D01*
X-34573447Y14298010D01*
X-34573460Y14298017D01*
X-34737333Y14365894D01*
X-34737342Y14365897D01*
X-34911306Y14400500D01*
X-34911309Y14400500D01*
X-35088691Y14400500D01*
X-35088694Y14400500D01*
X-35262659Y14365897D01*
X-35262668Y14365894D01*
X-35397755Y14309939D01*
X-35445207Y14300500D01*
X-37493871Y14300500D01*
X-37493877Y14300499D01*
X-37553484Y14294092D01*
X-37688329Y14243798D01*
X-37688332Y14243796D01*
X-37713796Y14224733D01*
X-37779261Y14200316D01*
X-37788107Y14200000D01*
X-37845999Y14200000D01*
X-37845999Y14168519D01*
X-37845348Y14164406D01*
X-37854308Y14095114D01*
X-37868554Y14070709D01*
X-37889795Y14042334D01*
X-37889798Y14042329D01*
X-37940090Y13907487D01*
X-37940091Y13907483D01*
X-37946500Y13847873D01*
X-39499500Y13847873D01*
X-39499500Y14822216D01*
X-37846000Y14822216D01*
X-37846000Y14800000D01*
X-36846000Y14800000D01*
X-36246000Y14800000D01*
X-35246001Y14800000D01*
X-35246001Y14831480D01*
X-35260836Y14925148D01*
X-35260836Y14925150D01*
X-35270290Y14943704D01*
X-35283187Y15012373D01*
X-35270290Y15056296D01*
X-35260835Y15074853D01*
X-35260834Y15074855D01*
X-35246000Y15168514D01*
X-35246000Y15200000D01*
X-36246000Y15200000D01*
X-36246000Y14800000D01*
X-36846000Y14800000D01*
X-36846000Y15200000D01*
X-37845999Y15200000D01*
X-37845999Y15168521D01*
X-37831165Y15074851D01*
X-37831165Y15074850D01*
X-37821710Y15056295D01*
X-37817006Y15031247D01*
X-37808408Y15007258D01*
X-37809678Y14992223D01*
X-37808814Y14987625D01*
X-37810571Y14981643D01*
X-37811377Y14972089D01*
X-37846000Y14822216D01*
X-39499500Y14822216D01*
X-39499500Y28822216D01*
X-37846000Y28822216D01*
X-37846000Y28800000D01*
X-36846000Y28800000D01*
X-36246000Y28800000D01*
X-35246001Y28800000D01*
X-35246001Y28831480D01*
X-35260836Y28925148D01*
X-35260836Y28925150D01*
X-35270290Y28943704D01*
X-35283187Y29012373D01*
X-35270290Y29056296D01*
X-35260835Y29074853D01*
X-35260834Y29074855D01*
X-35246000Y29168514D01*
X-35246000Y29200000D01*
X-36246000Y29200000D01*
X-36246000Y28800000D01*
X-36846000Y28800000D01*
X-36846000Y29200000D01*
X-37845999Y29200000D01*
X-37845999Y29168521D01*
X-37831165Y29074851D01*
X-37831165Y29074850D01*
X-37821710Y29056295D01*
X-37817006Y29031247D01*
X-37808408Y29007258D01*
X-37809678Y28992223D01*
X-37808814Y28987625D01*
X-37810571Y28981643D01*
X-37811377Y28972089D01*
X-37846000Y28822216D01*
X-39499500Y28822216D01*
X-39499500Y29831487D01*
X-37846000Y29831487D01*
X-37846000Y29800000D01*
X-36846000Y29800000D01*
X-36846000Y30200000D01*
X-37477480Y30200000D01*
X-37571150Y30185165D01*
X-37571156Y30185163D01*
X-37684042Y30127644D01*
X-37684051Y30127637D01*
X-37773637Y30038051D01*
X-37773640Y30038047D01*
X-37831167Y29925145D01*
X-37846000Y29831487D01*
X-39499500Y29831487D01*
X-39499500Y30518521D01*
X-36274999Y30518521D01*
X-36260165Y30424851D01*
X-36220388Y30346785D01*
X-36207492Y30278116D01*
X-36233768Y30213375D01*
X-36243191Y30202810D01*
X-36246000Y30200001D01*
X-36246000Y29800000D01*
X-35246001Y29800000D01*
X-35246001Y29831480D01*
X-35260836Y29925150D01*
X-35260837Y29925152D01*
X-35283538Y29969705D01*
X-35296435Y30038374D01*
X-35270159Y30103115D01*
X-35213053Y30143372D01*
X-35173054Y30150001D01*
X-34675000Y30150001D01*
X-34075000Y30150001D01*
X-32843521Y30150001D01*
X-32749851Y30164836D01*
X-32749845Y30164838D01*
X-32636959Y30222357D01*
X-32636950Y30222364D01*
X-32547364Y30311950D01*
X-32547361Y30311954D01*
X-32489834Y30424856D01*
X-32475000Y30518514D01*
X-32475000Y31550000D01*
X-34075000Y31550000D01*
X-34075000Y30150001D01*
X-34675000Y30150001D01*
X-34675000Y31550000D01*
X-36274999Y31550000D01*
X-36274999Y30518521D01*
X-39499500Y30518521D01*
X-39499500Y33181487D01*
X-36275000Y33181487D01*
X-36275000Y32150000D01*
X-34675000Y32150000D01*
X-34075000Y32150000D01*
X-32475001Y32150000D01*
X-32475001Y33181480D01*
X-32489836Y33275150D01*
X-32489838Y33275156D01*
X-32547357Y33388042D01*
X-32547364Y33388051D01*
X-32636950Y33477637D01*
X-32636954Y33477640D01*
X-32749856Y33535167D01*
X-32843514Y33550000D01*
X-34075000Y33550000D01*
X-34075000Y32150000D01*
X-34675000Y32150000D01*
X-34675000Y33550000D01*
X-35906480Y33550000D01*
X-36000150Y33535165D01*
X-36000156Y33535163D01*
X-36113042Y33477644D01*
X-36113051Y33477637D01*
X-36202637Y33388051D01*
X-36202640Y33388047D01*
X-36260167Y33275145D01*
X-36275000Y33181487D01*
X-39499500Y33181487D01*
X-39499500Y39125962D01*
X-38600500Y39125962D01*
X-38600500Y38874039D01*
X-38561090Y38625215D01*
X-38483240Y38385617D01*
X-38368868Y38161152D01*
X-38220799Y37957351D01*
X-38220795Y37957346D01*
X-38042655Y37779206D01*
X-38042650Y37779202D01*
X-37904398Y37678757D01*
X-37838845Y37631130D01*
X-37695816Y37558253D01*
X-37614384Y37516761D01*
X-37614382Y37516761D01*
X-37614379Y37516759D01*
X-37374785Y37438910D01*
X-37125962Y37399500D01*
X-37125961Y37399500D01*
X-36874039Y37399500D01*
X-36874038Y37399500D01*
X-36625215Y37438910D01*
X-36385621Y37516759D01*
X-36161155Y37631130D01*
X-35957344Y37779207D01*
X-35779207Y37957344D01*
X-35631130Y38161155D01*
X-35516759Y38385621D01*
X-35438910Y38625215D01*
X-35399500Y38874038D01*
X-35399500Y39125962D01*
X-35438910Y39374785D01*
X-35516759Y39614379D01*
X-35516761Y39614382D01*
X-35516761Y39614384D01*
X-35558253Y39695816D01*
X-35631130Y39838845D01*
X-35650048Y39864883D01*
X-35779202Y40042650D01*
X-35779206Y40042655D01*
X-35957346Y40220795D01*
X-35957351Y40220799D01*
X-36161152Y40368868D01*
X-36161153Y40368869D01*
X-36161155Y40368870D01*
X-36231253Y40404587D01*
X-36385617Y40483240D01*
X-36625215Y40561090D01*
X-36874038Y40600500D01*
X-37125962Y40600500D01*
X-37250374Y40580795D01*
X-37374786Y40561090D01*
X-37614384Y40483240D01*
X-37838849Y40368868D01*
X-38042650Y40220799D01*
X-38042655Y40220795D01*
X-38220795Y40042655D01*
X-38220799Y40042650D01*
X-38368868Y39838849D01*
X-38483240Y39614384D01*
X-38561090Y39374786D01*
X-38600500Y39125962D01*
X-39499500Y39125962D01*
X-39499500Y45924108D01*
X-39499500Y45934106D01*
X-39499499Y45934108D01*
X-39499499Y45996757D01*
X-39499329Y46003244D01*
X-39497264Y46042655D01*
X-39492284Y46137668D01*
X-38100500Y46137668D01*
X-38100500Y45862333D01*
X-38100499Y45862316D01*
X-38064562Y45589345D01*
X-38064561Y45589340D01*
X-38064560Y45589334D01*
X-38064559Y45589332D01*
X-37993296Y45323370D01*
X-37887925Y45068983D01*
X-37887920Y45068972D01*
X-37808191Y44930879D01*
X-37750249Y44830521D01*
X-37750247Y44830518D01*
X-37750246Y44830517D01*
X-37582630Y44612074D01*
X-37582624Y44612067D01*
X-37387934Y44417377D01*
X-37387928Y44417372D01*
X-37169479Y44249751D01*
X-37045409Y44178119D01*
X-36931029Y44112081D01*
X-36931024Y44112079D01*
X-36931021Y44112077D01*
X-36676632Y44006705D01*
X-36410666Y43935440D01*
X-36137674Y43899500D01*
X-36137667Y43899500D01*
X-35862333Y43899500D01*
X-35862326Y43899500D01*
X-35589334Y43935440D01*
X-35323368Y44006705D01*
X-35068979Y44112077D01*
X-34830521Y44249751D01*
X-34612072Y44417372D01*
X-34417372Y44612072D01*
X-34249751Y44830521D01*
X-34112077Y45068979D01*
X-34088474Y45125962D01*
X-10600500Y45125962D01*
X-10600500Y45078250D01*
X-10600500Y44874038D01*
X-10593607Y44830517D01*
X-10561090Y44625215D01*
X-10483240Y44385617D01*
X-10438471Y44297754D01*
X-10377514Y44178119D01*
X-10368868Y44161152D01*
X-10220799Y43957351D01*
X-10220795Y43957346D01*
X-10042655Y43779206D01*
X-10042650Y43779202D01*
X-9883633Y43663670D01*
X-9838845Y43631130D01*
X-9695816Y43558253D01*
X-9614384Y43516761D01*
X-9614382Y43516761D01*
X-9614379Y43516759D01*
X-9374785Y43438910D01*
X-9125962Y43399500D01*
X-9125961Y43399500D01*
X-8874039Y43399500D01*
X-8874038Y43399500D01*
X-8625215Y43438910D01*
X-8385621Y43516759D01*
X-8161155Y43631130D01*
X-7957344Y43779207D01*
X-7779207Y43957344D01*
X-7631130Y44161155D01*
X-7516759Y44385621D01*
X-7438910Y44625215D01*
X-7399500Y44874038D01*
X-7399500Y45125962D01*
X-7438910Y45374785D01*
X-7516759Y45614379D01*
X-7516761Y45614382D01*
X-7516761Y45614384D01*
X-7545030Y45669864D01*
X-7631130Y45838845D01*
X-7693077Y45924108D01*
X-7779202Y46042650D01*
X-7779206Y46042655D01*
X-7957346Y46220795D01*
X-7957351Y46220799D01*
X-8161152Y46368868D01*
X-8161153Y46368869D01*
X-8161155Y46368870D01*
X-8262995Y46420760D01*
X-8385617Y46483240D01*
X-8625215Y46561090D01*
X-8709800Y46574487D01*
X-8874038Y46600500D01*
X-9125962Y46600500D01*
X-9250374Y46580795D01*
X-9374786Y46561090D01*
X-9614384Y46483240D01*
X-9838849Y46368868D01*
X-10042650Y46220799D01*
X-10042655Y46220795D01*
X-10220795Y46042655D01*
X-10220799Y46042650D01*
X-10368868Y45838849D01*
X-10483240Y45614384D01*
X-10561090Y45374786D01*
X-10594486Y45163934D01*
X-10600500Y45125962D01*
X-34088474Y45125962D01*
X-34006705Y45323368D01*
X-33935440Y45589334D01*
X-33899500Y45862326D01*
X-33899500Y46137674D01*
X-33935440Y46410666D01*
X-34006705Y46676632D01*
X-34112077Y46931021D01*
X-34112079Y46931024D01*
X-34112081Y46931029D01*
X-34161268Y47016222D01*
X-34249751Y47169479D01*
X-34318901Y47259597D01*
X-34417371Y47387927D01*
X-34417377Y47387934D01*
X-34612067Y47582624D01*
X-34612074Y47582630D01*
X-34830517Y47750246D01*
X-34830518Y47750247D01*
X-34830521Y47750249D01*
X-34928494Y47806814D01*
X-35068972Y47887920D01*
X-35068983Y47887925D01*
X-35323370Y47993296D01*
X-35456351Y48028928D01*
X-35589334Y48064560D01*
X-35589340Y48064561D01*
X-35589345Y48064562D01*
X-35862316Y48100499D01*
X-35862321Y48100500D01*
X-35862326Y48100500D01*
X-36137674Y48100500D01*
X-36137680Y48100500D01*
X-36137685Y48100499D01*
X-36410656Y48064562D01*
X-36410663Y48064561D01*
X-36410666Y48064560D01*
X-36439052Y48056954D01*
X-36676631Y47993296D01*
X-36931018Y47887925D01*
X-36931029Y47887920D01*
X-37169484Y47750246D01*
X-37387927Y47582630D01*
X-37387934Y47582624D01*
X-37582624Y47387934D01*
X-37582630Y47387927D01*
X-37750246Y47169484D01*
X-37887920Y46931029D01*
X-37887925Y46931018D01*
X-37993296Y46676631D01*
X-38064559Y46410669D01*
X-38064562Y46410656D01*
X-38100499Y46137685D01*
X-38100500Y46137668D01*
X-39492284Y46137668D01*
X-39480668Y46359313D01*
X-39479311Y46372218D01*
X-39447275Y46574487D01*
X-39424044Y46721170D01*
X-39421350Y46733849D01*
X-39329900Y47075141D01*
X-39325896Y47087463D01*
X-39199274Y47417325D01*
X-39194010Y47429147D01*
X-39033593Y47743985D01*
X-39027127Y47755183D01*
X-38834683Y48051521D01*
X-38827081Y48061984D01*
X-38604714Y48336586D01*
X-38596047Y48346211D01*
X-38346211Y48596047D01*
X-38336586Y48604714D01*
X-38061993Y48827074D01*
X-38051521Y48834683D01*
X-37755176Y49027132D01*
X-37743986Y49033593D01*
X-37429148Y49194010D01*
X-37417326Y49199274D01*
X-37087463Y49325896D01*
X-37075141Y49329900D01*
X-36733849Y49421350D01*
X-36721170Y49424044D01*
X-36372218Y49479311D01*
X-36359313Y49480668D01*
X-36006487Y49499159D01*
X-35993513Y49499159D01*
X-35640690Y49480668D01*
G37*
%TD.AperFunction*%
%TD*%
M02*
