<?xml version="1.0" standalone="no"?>
 <!DOCTYPE svg PUBLIC "-//W3C//DTD SVG 1.1//EN" 
 "http://www.w3.org/Graphics/SVG/1.1/DTD/svg11.dtd"> 
<svg
  xmlns:svg="http://www.w3.org/2000/svg"
  xmlns="http://www.w3.org/2000/svg"
  xmlns:xlink="http://www.w3.org/1999/xlink"
  version="1.1"
  width="297.0022mm" height="210.0072mm" viewBox="0.0000 0.0000 297.0022 210.0072">
<title>SVG Image created as PMCNV-AI4T-PTH-drl_map.svg date 2025/07/19 20:22:36 </title>
  <desc>Image generated by PCBNEW </desc>
<g style="fill:#000000; fill-opacity:1.0000;stroke:#000000; stroke-opacity:1.0000;
stroke-linecap:round; stroke-linejoin:round;"
 transform="translate(0 0) scale(1 1)">
</g>
<g style="fill:none; 
stroke:#000000; stroke-width:0.2315; stroke-opacity:1; 
stroke-linecap:round; stroke-linejoin:round;">
<path d="M194.8102 10.9044 A3.4732 3.4732 0.0 0 0 191.3370 7.4312" />
<path d="M110.8334 7.4312 A4.6309 4.6309 0.0 0 0 102.1920 9.7467" />
<path d="M178.6020 120.8885 A1.1577 1.1577 0.0 0 0 179.7597 119.7308" />
<path d="M110.8334 7.4312
L167.0247 7.4312
" />
<path d="M194.8102 10.9044
L194.8102 115.0999
" />
<path d="M168.1825 119.7308 A1.1577 1.1577 0.0 0 0 169.3402 120.8885" />
<path d="M168.1825 119.7308 A1.1577 1.1577 0.0 0 0 167.0247 118.5731" />
<path d="M180.9175 118.5731
L191.3370 118.5731
" />
<path d="M180.9175 7.4312
L191.3370 7.4312
" />
<path d="M180.9175 118.5731 A1.1577 1.1577 0.0 0 0 179.7597 119.7308" />
<path d="M169.3402 5.1158 A1.1577 1.1577 0.0 0 0 168.1825 6.2735" />
<path d="M178.6020 5.1158
L169.3402 5.1158
" />
<path d="M102.1920 116.2576 A4.6309 4.6309 0.0 0 0 110.8334 118.5731" />
<path d="M167.0247 7.4312 A1.1577 1.1577 0.0 0 0 168.1825 6.2735" />
<path d="M169.3402 120.8885
L178.6020 120.8885
" />
<path d="M167.0247 118.5731
L110.8334 118.5731
" />
<path d="M179.7597 6.2735 A1.1577 1.1577 0.0 0 0 180.9175 7.4312" />
<path d="M179.7597 6.2735 A1.1577 1.1577 0.0 0 0 178.6020 5.1158" />
<path d="M191.3370 118.5731 A3.4732 3.4732 0.0 0 0 194.8102 115.0999" />
<path d="M102.1920 116.2576
L102.1920 9.7467
" />
</g>
<g style="fill:none; 
stroke:#000000; stroke-width:0.0579; stroke-opacity:1; 
stroke-linecap:round; stroke-linejoin:round;">
<circle cx="105.6652" cy="17.8508" r="1.2735" /> 
<circle cx="105.6652" cy="108.1535" r="1.2735" /> 
<circle cx="138.0816" cy="10.9044" r="1.2735" /> 
<circle cx="138.0816" cy="115.0999" r="1.2735" /> 
<circle cx="173.9711" cy="116.2576" r="1.8524" /> 
<circle cx="165.8670" cy="10.9044" r="1.2735" /> 
<circle cx="165.8670" cy="115.0999" r="1.2735" /> 
<circle cx="182.0752" cy="10.9044" r="1.2735" /> 
<circle cx="182.0752" cy="115.0999" r="1.2735" /> 
<circle cx="173.9711" cy="9.7467" r="1.8524" /> 
<circle cx="106.8229" cy="9.7467" r="1.8524" /> 
<circle cx="106.8229" cy="116.2576" r="1.8524" /> 
</g>
<g style="fill:none; 
stroke:#000000; stroke-width:0.1158; stroke-opacity:1; 
stroke-linecap:round; stroke-linejoin:round;">
<path d="M106.0125 24.5656
L106.4756 25.0287
" />
<path d="M106.4756 24.5656
L106.0125 25.0287
" />
<path d="M106.0125 26.8811
L106.4756 27.3441
" />
<path d="M106.4756 26.8811
L106.0125 27.3441
" />
<path d="M106.0125 52.3511
L106.4756 52.8142
" />
<path d="M106.4756 52.3511
L106.0125 52.8142
" />
<path d="M106.0125 54.0877
L106.4756 54.5507
" />
<path d="M106.4756 54.0877
L106.0125 54.5507
" />
<path d="M107.7491 28.6176
L108.2122 29.0807
" />
<path d="M108.2122 28.6176
L107.7491 29.0807
" />
<path d="M107.7491 29.7754
L108.2122 30.2385
" />
<path d="M108.2122 29.7754
L107.7491 30.2385
" />
<path d="M107.7491 30.9331
L108.2122 31.3962
" />
<path d="M108.2122 30.9331
L107.7491 31.3962
" />
<path d="M107.7491 32.0908
L108.2122 32.5539
" />
<path d="M108.2122 32.0908
L107.7491 32.5539
" />
<path d="M107.7491 33.2486
L108.2122 33.7116
" />
<path d="M108.2122 33.2486
L107.7491 33.7116
" />
<path d="M107.7491 34.4063
L108.2122 34.8694
" />
<path d="M108.2122 34.4063
L107.7491 34.8694
" />
<path d="M107.7491 35.5640
L108.2122 36.0271
" />
<path d="M108.2122 35.5640
L107.7491 36.0271
" />
<path d="M107.7491 36.7217
L108.2122 37.1848
" />
<path d="M108.2122 36.7217
L107.7491 37.1848
" />
<path d="M107.7491 37.8795
L108.2122 38.3426
" />
<path d="M108.2122 37.8795
L107.7491 38.3426
" />
<path d="M107.7491 39.0372
L108.2122 39.5003
" />
<path d="M108.2122 39.0372
L107.7491 39.5003
" />
<path d="M107.7491 40.1949
L108.2122 40.6580
" />
<path d="M108.2122 40.1949
L107.7491 40.6580
" />
<path d="M107.7491 41.3527
L108.2122 41.8157
" />
<path d="M108.2122 41.3527
L107.7491 41.8157
" />
<path d="M107.7491 42.5104
L108.2122 42.9735
" />
<path d="M108.2122 42.5104
L107.7491 42.9735
" />
<path d="M107.7491 43.6681
L108.2122 44.1312
" />
<path d="M108.2122 43.6681
L107.7491 44.1312
" />
<path d="M107.7491 44.8258
L108.2122 45.2889
" />
<path d="M108.2122 44.8258
L107.7491 45.2889
" />
<path d="M107.7491 45.9836
L108.2122 46.4467
" />
<path d="M108.2122 45.9836
L107.7491 46.4467
" />
<path d="M107.7491 47.1413
L108.2122 47.6044
" />
<path d="M108.2122 47.1413
L107.7491 47.6044
" />
<path d="M107.7491 48.2990
L108.2122 48.7621
" />
<path d="M108.2122 48.2990
L107.7491 48.7621
" />
<path d="M107.7491 49.4567
L108.2122 49.9198
" />
<path d="M108.2122 49.4567
L107.7491 49.9198
" />
<path d="M107.7491 50.6145
L108.2122 51.0776
" />
<path d="M108.2122 50.6145
L107.7491 51.0776
" />
<path d="M108.9068 30.9331
L109.3699 31.3962
" />
<path d="M109.3699 30.9331
L108.9068 31.3962
" />
<path d="M108.9068 32.0908
L109.3699 32.5539
" />
<path d="M109.3699 32.0908
L108.9068 32.5539
" />
<path d="M108.9068 33.2486
L109.3699 33.7116
" />
<path d="M109.3699 33.2486
L108.9068 33.7116
" />
<path d="M108.9068 34.4063
L109.3699 34.8694
" />
<path d="M109.3699 34.4063
L108.9068 34.8694
" />
<path d="M110.0645 30.9331
L110.5276 31.3962
" />
<path d="M110.5276 30.9331
L110.0645 31.3962
" />
<path d="M110.0645 32.0908
L110.5276 32.5539
" />
<path d="M110.5276 32.0908
L110.0645 32.5539
" />
<path d="M110.0645 33.2486
L110.5276 33.7116
" />
<path d="M110.5276 33.2486
L110.0645 33.7116
" />
<path d="M110.0645 34.4063
L110.5276 34.8694
" />
<path d="M110.5276 34.4063
L110.0645 34.8694
" />
<path d="M110.6434 40.1949
L111.1065 40.6580
" />
<path d="M111.1065 40.1949
L110.6434 40.6580
" />
<path d="M111.2223 24.5656
L111.6854 25.0287
" />
<path d="M111.6854 24.5656
L111.2223 25.0287
" />
<path d="M111.2223 26.8811
L111.6854 27.3441
" />
<path d="M111.6854 26.8811
L111.2223 27.3441
" />
<path d="M111.2223 52.3511
L111.6854 52.8142
" />
<path d="M111.6854 52.3511
L111.2223 52.8142
" />
<path d="M111.2223 54.0877
L111.6854 54.5507
" />
<path d="M111.6854 54.0877
L111.2223 54.5507
" />
<path d="M117.1846 41.9315
L117.6477 42.3946
" />
<path d="M117.6477 41.9315
L117.1846 42.3946
" />
<path d="M118.1686 30.9331
L118.6317 31.3962
" />
<path d="M118.6317 30.9331
L118.1686 31.3962
" />
<path d="M119.3264 30.9331
L119.7895 31.3962
" />
<path d="M119.7895 30.9331
L119.3264 31.3962
" />
<path d="M120.4841 30.9331
L120.9472 31.3962
" />
<path d="M120.9472 30.9331
L120.4841 31.3962
" />
<path d="M122.7057 42.0253
L123.1688 42.4884
" />
<path d="M123.1688 42.0253
L122.7057 42.4884
" />
<path d="M133.2191 50.0356
L133.6822 50.4987
" />
<path d="M133.6822 50.0356
L133.2191 50.4987
" />
<path d="M134.3768 48.8779
L134.8399 49.3410
" />
<path d="M134.8399 48.8779
L134.3768 49.3410
" />
<path d="M134.3768 51.1933
L134.8399 51.6564
" />
<path d="M134.8399 51.1933
L134.3768 51.6564
" />
<path d="M135.5345 50.0356
L135.9976 50.4987
" />
<path d="M135.9976 50.0356
L135.5345 50.4987
" />
<path d="M139.5866 40.7738
L140.0497 41.2369
" />
<path d="M140.0497 40.7738
L139.5866 41.2369
" />
<path d="M139.5866 46.5624
L140.0497 47.0255
" />
<path d="M140.0497 46.5624
L139.5866 47.0255
" />
<path d="M140.1655 42.3541
L140.6286 42.8172
" />
<path d="M140.6286 42.3541
L140.1655 42.8172
" />
<path d="M140.1655 43.8244
L140.6286 44.2875
" />
<path d="M140.6286 43.8244
L140.1655 44.2875
" />
<path d="M144.2175 78.9788
L144.6806 79.4419
" />
<path d="M144.6806 78.9788
L144.2175 79.4419
" />
<path d="M144.2175 90.5561
L144.6806 91.0192
" />
<path d="M144.6806 90.5561
L144.2175 91.0192
" />
<path d="M148.8484 69.1381
L149.3115 69.6012
" />
<path d="M149.3115 69.1381
L148.8484 69.6012
" />
<path d="M149.4273 76.0845
L149.8904 76.5476
" />
<path d="M149.8904 76.0845
L149.4273 76.5476
" />
<path d="M150.5850 61.6129
L151.0481 62.0760
" />
<path d="M151.0481 61.6129
L150.5850 62.0760
" />
<path d="M150.5850 63.9283
L151.0481 64.3914
" />
<path d="M151.0481 63.9283
L150.5850 64.3914
" />
<path d="M150.5850 69.1381
L151.0481 69.6012
" />
<path d="M151.0481 69.1381
L150.5850 69.6012
" />
<path d="M151.7427 62.7706
L152.2058 63.2337
" />
<path d="M152.2058 62.7706
L151.7427 63.2337
" />
<path d="M152.3216 57.5608
L152.7847 58.0239
" />
<path d="M152.7847 57.5608
L152.3216 58.0239
" />
<path d="M152.9005 61.6129
L153.3636 62.0760
" />
<path d="M153.3636 61.6129
L152.9005 62.0760
" />
<path d="M152.9005 63.9283
L153.3636 64.3914
" />
<path d="M153.3636 63.9283
L152.9005 64.3914
" />
<path d="M153.1019 48.2990
L153.5650 48.7621
" />
<path d="M153.5650 48.2990
L153.1019 48.7621
" />
<path d="M153.4793 56.4031
L153.9424 56.8662
" />
<path d="M153.9424 56.4031
L153.4793 56.8662
" />
<path d="M154.6371 57.5608
L155.1001 58.0239
" />
<path d="M155.1001 57.5608
L154.6371 58.0239
" />
<path d="M158.1102 45.4047
L158.5733 45.8678
" />
<path d="M158.5733 45.4047
L158.1102 45.8678
" />
<path d="M161.0046 91.7138
L161.4677 92.1769
" />
<path d="M161.4677 91.7138
L161.0046 92.1769
" />
<path d="M174.8973 23.4079
L175.3604 23.8710
" />
<path d="M175.3604 23.4079
L174.8973 23.8710
" />
<path d="M174.8973 30.3542
L175.3604 30.8173
" />
<path d="M175.3604 30.3542
L174.8973 30.8173
" />
<path d="M174.8973 41.9315
L175.3604 42.3946
" />
<path d="M175.3604 41.9315
L174.8973 42.3946
" />
<path d="M174.8973 48.8779
L175.3604 49.3410
" />
<path d="M175.3604 48.8779
L174.8973 49.3410
" />
<path d="M174.8973 60.4552
L175.3604 60.9183
" />
<path d="M175.3604 60.4552
L174.8973 60.9183
" />
<path d="M174.8973 67.4015
L175.3604 67.8646
" />
<path d="M175.3604 67.4015
L174.8973 67.8646
" />
<path d="M174.8973 78.9788
L175.3604 79.4419
" />
<path d="M175.3604 78.9788
L174.8973 79.4419
" />
<path d="M174.8973 85.9252
L175.3604 86.3883
" />
<path d="M175.3604 85.9252
L174.8973 86.3883
" />
<path d="M174.8973 97.5024
L175.3604 97.9655
" />
<path d="M175.3604 97.5024
L174.8973 97.9655
" />
<path d="M187.0534 12.4095
L187.5165 12.8725
" />
<path d="M187.5165 12.4095
L187.0534 12.8725
" />
<path d="M187.0534 13.5672
L187.5165 14.0303
" />
<path d="M187.5165 13.5672
L187.0534 14.0303
" />
<path d="M187.0534 14.7249
L187.5165 15.1880
" />
<path d="M187.5165 14.7249
L187.0534 15.1880
" />
<circle cx="149.2247" cy="10.1924" r="0.5789" /> 
<circle cx="149.2247" cy="13.1330" r="0.5789" /> 
<circle cx="149.2247" cy="19.0143" r="0.5789" /> 
<circle cx="149.2247" cy="24.8956" r="0.5789" /> 
</g>
<g style="fill:none; 
stroke:#000000; stroke-width:0.1331; stroke-opacity:1; 
stroke-linecap:round; stroke-linejoin:round;">
<path d="M121.8734 54.2324
L121.8734 55.5638
" />
<path d="M121.2077 54.8981
L122.5391 54.8981
" />
<path d="M129.9775 65.8097
L129.9775 67.1410
" />
<path d="M129.3118 66.4753
L130.6431 66.4753
" />
<path style="fill:none; 
stroke:#000000; stroke-width:0.1621; stroke-opacity:1; 
stroke-linecap:round; stroke-linejoin:round;fill:none"
d="M 189.5946,19.8710
189.5946,18.7249
188.4485,18.7249
188.4485,19.8710
Z" /> 
<path style="fill:none; 
stroke:#000000; stroke-width:0.1621; stroke-opacity:1; 
stroke-linecap:round; stroke-linejoin:round;fill:none"
d="M 189.5946,23.9230
189.5946,22.7769
188.4485,22.7769
188.4485,23.9230
Z" /> 
<path style="fill:none; 
stroke:#000000; stroke-width:0.1621; stroke-opacity:1; 
stroke-linecap:round; stroke-linejoin:round;fill:none"
d="M 189.5946,27.9751
189.5946,26.8290
188.4485,26.8290
188.4485,27.9751
Z" /> 
<path style="fill:none; 
stroke:#000000; stroke-width:0.1621; stroke-opacity:1; 
stroke-linecap:round; stroke-linejoin:round;fill:none"
d="M 189.5946,32.0271
189.5946,30.8810
188.4485,30.8810
188.4485,32.0271
Z" /> 
<path style="fill:none; 
stroke:#000000; stroke-width:0.1621; stroke-opacity:1; 
stroke-linecap:round; stroke-linejoin:round;fill:none"
d="M 189.5946,36.0792
189.5946,34.9331
188.4485,34.9331
188.4485,36.0792
Z" /> 
<path style="fill:none; 
stroke:#000000; stroke-width:0.1621; stroke-opacity:1; 
stroke-linecap:round; stroke-linejoin:round;fill:none"
d="M 189.5946,40.1312
189.5946,38.9851
188.4485,38.9851
188.4485,40.1312
Z" /> 
<path style="fill:none; 
stroke:#000000; stroke-width:0.1621; stroke-opacity:1; 
stroke-linecap:round; stroke-linejoin:round;fill:none"
d="M 189.5946,44.1833
189.5946,43.0372
188.4485,43.0372
188.4485,44.1833
Z" /> 
<path style="fill:none; 
stroke:#000000; stroke-width:0.1621; stroke-opacity:1; 
stroke-linecap:round; stroke-linejoin:round;fill:none"
d="M 189.5946,48.2353
189.5946,47.0892
188.4485,47.0892
188.4485,48.2353
Z" /> 
<path style="fill:none; 
stroke:#000000; stroke-width:0.1621; stroke-opacity:1; 
stroke-linecap:round; stroke-linejoin:round;fill:none"
d="M 189.5946,52.2874
189.5946,51.1413
188.4485,51.1413
188.4485,52.2874
Z" /> 
<path style="fill:none; 
stroke:#000000; stroke-width:0.1621; stroke-opacity:1; 
stroke-linecap:round; stroke-linejoin:round;fill:none"
d="M 189.5946,56.3394
189.5946,55.1933
188.4485,55.1933
188.4485,56.3394
Z" /> 
</g>
<g style="fill:none; 
stroke:#000000; stroke-width:0.2000; stroke-opacity:1; 
stroke-linecap:round; stroke-linejoin:round;">
<text x="104.0762" y="124.2043"
textLength="14.8667" font-size="2.6667" lengthAdjust="spacingAndGlyphs"
text-anchor="start" opacity="0" stroke-opacity="0">Drill Map:</text>
<g class="stroked-text"><desc>Drill Map:</desc>
<path d="M104.6840 124.1192
L104.6840 122.1192
" />
<path d="M104.6840 122.1192
L105.1602 122.1192
" />
<path d="M105.1602 122.1192
L105.4459 122.2144
" />
<path d="M105.4459 122.2144
L105.6364 122.4049
" />
<path d="M105.6364 122.4049
L105.7316 122.5953
" />
<path d="M105.7316 122.5953
L105.8268 122.9763
" />
<path d="M105.8268 122.9763
L105.8268 123.2620
" />
<path d="M105.8268 123.2620
L105.7316 123.6430
" />
<path d="M105.7316 123.6430
L105.6364 123.8334
" />
<path d="M105.6364 123.8334
L105.4459 124.0239
" />
<path d="M105.4459 124.0239
L105.1602 124.1192
" />
<path d="M105.1602 124.1192
L104.6840 124.1192
" />
<path d="M106.6840 124.1192
L106.6840 122.7858
" />
<path d="M106.6840 123.1668
L106.7792 122.9763
" />
<path d="M106.7792 122.9763
L106.8745 122.8811
" />
<path d="M106.8745 122.8811
L107.0649 122.7858
" />
<path d="M107.0649 122.7858
L107.2554 122.7858
" />
<path d="M107.9221 124.1192
L107.9221 122.7858
" />
<path d="M107.9221 122.1192
L107.8268 122.2144
" />
<path d="M107.8268 122.2144
L107.9221 122.3096
" />
<path d="M107.9221 122.3096
L108.0173 122.2144
" />
<path d="M108.0173 122.2144
L107.9221 122.1192
" />
<path d="M107.9221 122.1192
L107.9221 122.3096
" />
<path d="M109.1602 124.1192
L108.9697 124.0239
" />
<path d="M108.9697 124.0239
L108.8745 123.8334
" />
<path d="M108.8745 123.8334
L108.8745 122.1192
" />
<path d="M110.2078 124.1192
L110.0173 124.0239
" />
<path d="M110.0173 124.0239
L109.9221 123.8334
" />
<path d="M109.9221 123.8334
L109.9221 122.1192
" />
<path d="M112.4935 124.1192
L112.4935 122.1192
" />
<path d="M112.4935 122.1192
L113.1602 123.5477
" />
<path d="M113.1602 123.5477
L113.8268 122.1192
" />
<path d="M113.8268 122.1192
L113.8268 124.1192
" />
<path d="M115.6364 124.1192
L115.6364 123.0715
" />
<path d="M115.6364 123.0715
L115.5411 122.8811
" />
<path d="M115.5411 122.8811
L115.3507 122.7858
" />
<path d="M115.3507 122.7858
L114.9697 122.7858
" />
<path d="M114.9697 122.7858
L114.7792 122.8811
" />
<path d="M115.6364 124.0239
L115.4459 124.1192
" />
<path d="M115.4459 124.1192
L114.9697 124.1192
" />
<path d="M114.9697 124.1192
L114.7792 124.0239
" />
<path d="M114.7792 124.0239
L114.6840 123.8334
" />
<path d="M114.6840 123.8334
L114.6840 123.6430
" />
<path d="M114.6840 123.6430
L114.7792 123.4525
" />
<path d="M114.7792 123.4525
L114.9697 123.3573
" />
<path d="M114.9697 123.3573
L115.4459 123.3573
" />
<path d="M115.4459 123.3573
L115.6364 123.2620
" />
<path d="M116.5887 122.7858
L116.5887 124.7858
" />
<path d="M116.5887 122.8811
L116.7792 122.7858
" />
<path d="M116.7792 122.7858
L117.1602 122.7858
" />
<path d="M117.1602 122.7858
L117.3507 122.8811
" />
<path d="M117.3507 122.8811
L117.4459 122.9763
" />
<path d="M117.4459 122.9763
L117.5411 123.1668
" />
<path d="M117.5411 123.1668
L117.5411 123.7382
" />
<path d="M117.5411 123.7382
L117.4459 123.9287
" />
<path d="M117.4459 123.9287
L117.3507 124.0239
" />
<path d="M117.3507 124.0239
L117.1602 124.1192
" />
<path d="M117.1602 124.1192
L116.7792 124.1192
" />
<path d="M116.7792 124.1192
L116.5887 124.0239
" />
<path d="M118.3983 123.9287
L118.4935 124.0239
" />
<path d="M118.4935 124.0239
L118.3983 124.1192
" />
<path d="M118.3983 124.1192
L118.3030 124.0239
" />
<path d="M118.3030 124.0239
L118.3983 123.9287
" />
<path d="M118.3983 123.9287
L118.3983 124.1192
" />
<path d="M118.3983 122.8811
L118.4935 122.9763
" />
<path d="M118.4935 122.9763
L118.3983 123.0715
" />
<path d="M118.3983 123.0715
L118.3030 122.9763
" />
<path d="M118.3030 122.9763
L118.3983 122.8811
" />
<path d="M118.3983 122.8811
L118.3983 123.0715
" />
</g></g>
<g style="fill:none; 
stroke:#000000; stroke-width:0.1158; stroke-opacity:1; 
stroke-linecap:round; stroke-linejoin:round;">
<path d="M101.6131 127.1728
L102.0762 127.6359
" />
<path d="M102.0762 127.1728
L101.6131 127.6359
" />
</g>
<g style="fill:none; 
stroke:#000000; stroke-width:0.2000; stroke-opacity:1; 
stroke-linecap:round; stroke-linejoin:round;">
<text x="104.0762" y="128.4043"
textLength="48.7714" font-size="2.6667" lengthAdjust="spacingAndGlyphs"
text-anchor="start" opacity="0" stroke-opacity="0">0.400mm / 0.0157" (78 holes)</text>
<g class="stroked-text"><desc>0.400mm / 0.0157" (78 holes)</desc>
<path d="M105.0649 126.3192
L105.2554 126.3192
" />
<path d="M105.2554 126.3192
L105.4459 126.4144
" />
<path d="M105.4459 126.4144
L105.5411 126.5096
" />
<path d="M105.5411 126.5096
L105.6364 126.7001
" />
<path d="M105.6364 126.7001
L105.7316 127.0811
" />
<path d="M105.7316 127.0811
L105.7316 127.5573
" />
<path d="M105.7316 127.5573
L105.6364 127.9382
" />
<path d="M105.6364 127.9382
L105.5411 128.1287
" />
<path d="M105.5411 128.1287
L105.4459 128.2239
" />
<path d="M105.4459 128.2239
L105.2554 128.3192
" />
<path d="M105.2554 128.3192
L105.0649 128.3192
" />
<path d="M105.0649 128.3192
L104.8745 128.2239
" />
<path d="M104.8745 128.2239
L104.7792 128.1287
" />
<path d="M104.7792 128.1287
L104.6840 127.9382
" />
<path d="M104.6840 127.9382
L104.5887 127.5573
" />
<path d="M104.5887 127.5573
L104.5887 127.0811
" />
<path d="M104.5887 127.0811
L104.6840 126.7001
" />
<path d="M104.6840 126.7001
L104.7792 126.5096
" />
<path d="M104.7792 126.5096
L104.8745 126.4144
" />
<path d="M104.8745 126.4144
L105.0649 126.3192
" />
<path d="M106.5887 128.1287
L106.6840 128.2239
" />
<path d="M106.6840 128.2239
L106.5887 128.3192
" />
<path d="M106.5887 128.3192
L106.4935 128.2239
" />
<path d="M106.4935 128.2239
L106.5887 128.1287
" />
<path d="M106.5887 128.1287
L106.5887 128.3192
" />
<path d="M108.3983 126.9858
L108.3983 128.3192
" />
<path d="M107.9221 126.2239
L107.4459 127.6525
" />
<path d="M107.4459 127.6525
L108.6840 127.6525
" />
<path d="M109.8268 126.3192
L110.0173 126.3192
" />
<path d="M110.0173 126.3192
L110.2078 126.4144
" />
<path d="M110.2078 126.4144
L110.3030 126.5096
" />
<path d="M110.3030 126.5096
L110.3983 126.7001
" />
<path d="M110.3983 126.7001
L110.4935 127.0811
" />
<path d="M110.4935 127.0811
L110.4935 127.5573
" />
<path d="M110.4935 127.5573
L110.3983 127.9382
" />
<path d="M110.3983 127.9382
L110.3030 128.1287
" />
<path d="M110.3030 128.1287
L110.2078 128.2239
" />
<path d="M110.2078 128.2239
L110.0173 128.3192
" />
<path d="M110.0173 128.3192
L109.8268 128.3192
" />
<path d="M109.8268 128.3192
L109.6364 128.2239
" />
<path d="M109.6364 128.2239
L109.5411 128.1287
" />
<path d="M109.5411 128.1287
L109.4459 127.9382
" />
<path d="M109.4459 127.9382
L109.3507 127.5573
" />
<path d="M109.3507 127.5573
L109.3507 127.0811
" />
<path d="M109.3507 127.0811
L109.4459 126.7001
" />
<path d="M109.4459 126.7001
L109.5411 126.5096
" />
<path d="M109.5411 126.5096
L109.6364 126.4144
" />
<path d="M109.6364 126.4144
L109.8268 126.3192
" />
<path d="M111.7316 126.3192
L111.9221 126.3192
" />
<path d="M111.9221 126.3192
L112.1126 126.4144
" />
<path d="M112.1126 126.4144
L112.2078 126.5096
" />
<path d="M112.2078 126.5096
L112.3030 126.7001
" />
<path d="M112.3030 126.7001
L112.3983 127.0811
" />
<path d="M112.3983 127.0811
L112.3983 127.5573
" />
<path d="M112.3983 127.5573
L112.3030 127.9382
" />
<path d="M112.3030 127.9382
L112.2078 128.1287
" />
<path d="M112.2078 128.1287
L112.1126 128.2239
" />
<path d="M112.1126 128.2239
L111.9221 128.3192
" />
<path d="M111.9221 128.3192
L111.7316 128.3192
" />
<path d="M111.7316 128.3192
L111.5411 128.2239
" />
<path d="M111.5411 128.2239
L111.4459 128.1287
" />
<path d="M111.4459 128.1287
L111.3507 127.9382
" />
<path d="M111.3507 127.9382
L111.2554 127.5573
" />
<path d="M111.2554 127.5573
L111.2554 127.0811
" />
<path d="M111.2554 127.0811
L111.3507 126.7001
" />
<path d="M111.3507 126.7001
L111.4459 126.5096
" />
<path d="M111.4459 126.5096
L111.5411 126.4144
" />
<path d="M111.5411 126.4144
L111.7316 126.3192
" />
<path d="M113.2554 128.3192
L113.2554 126.9858
" />
<path d="M113.2554 127.1763
L113.3507 127.0811
" />
<path d="M113.3507 127.0811
L113.5411 126.9858
" />
<path d="M113.5411 126.9858
L113.8268 126.9858
" />
<path d="M113.8268 126.9858
L114.0173 127.0811
" />
<path d="M114.0173 127.0811
L114.1126 127.2715
" />
<path d="M114.1126 127.2715
L114.1126 128.3192
" />
<path d="M114.1126 127.2715
L114.2078 127.0811
" />
<path d="M114.2078 127.0811
L114.3983 126.9858
" />
<path d="M114.3983 126.9858
L114.6840 126.9858
" />
<path d="M114.6840 126.9858
L114.8745 127.0811
" />
<path d="M114.8745 127.0811
L114.9697 127.2715
" />
<path d="M114.9697 127.2715
L114.9697 128.3192
" />
<path d="M115.9221 128.3192
L115.9221 126.9858
" />
<path d="M115.9221 127.1763
L116.0173 127.0811
" />
<path d="M116.0173 127.0811
L116.2078 126.9858
" />
<path d="M116.2078 126.9858
L116.4935 126.9858
" />
<path d="M116.4935 126.9858
L116.6840 127.0811
" />
<path d="M116.6840 127.0811
L116.7792 127.2715
" />
<path d="M116.7792 127.2715
L116.7792 128.3192
" />
<path d="M116.7792 127.2715
L116.8745 127.0811
" />
<path d="M116.8745 127.0811
L117.0649 126.9858
" />
<path d="M117.0649 126.9858
L117.3507 126.9858
" />
<path d="M117.3507 126.9858
L117.5411 127.0811
" />
<path d="M117.5411 127.0811
L117.6364 127.2715
" />
<path d="M117.6364 127.2715
L117.6364 128.3192
" />
<path d="M121.5411 126.2239
L119.8268 128.7953
" />
<path d="M124.1126 126.3192
L124.3030 126.3192
" />
<path d="M124.3030 126.3192
L124.4935 126.4144
" />
<path d="M124.4935 126.4144
L124.5887 126.5096
" />
<path d="M124.5887 126.5096
L124.6840 126.7001
" />
<path d="M124.6840 126.7001
L124.7792 127.0811
" />
<path d="M124.7792 127.0811
L124.7792 127.5573
" />
<path d="M124.7792 127.5573
L124.6840 127.9382
" />
<path d="M124.6840 127.9382
L124.5887 128.1287
" />
<path d="M124.5887 128.1287
L124.4935 128.2239
" />
<path d="M124.4935 128.2239
L124.3030 128.3192
" />
<path d="M124.3030 128.3192
L124.1126 128.3192
" />
<path d="M124.1126 128.3192
L123.9221 128.2239
" />
<path d="M123.9221 128.2239
L123.8268 128.1287
" />
<path d="M123.8268 128.1287
L123.7316 127.9382
" />
<path d="M123.7316 127.9382
L123.6364 127.5573
" />
<path d="M123.6364 127.5573
L123.6364 127.0811
" />
<path d="M123.6364 127.0811
L123.7316 126.7001
" />
<path d="M123.7316 126.7001
L123.8268 126.5096
" />
<path d="M123.8268 126.5096
L123.9221 126.4144
" />
<path d="M123.9221 126.4144
L124.1126 126.3192
" />
<path d="M125.6364 128.1287
L125.7316 128.2239
" />
<path d="M125.7316 128.2239
L125.6364 128.3192
" />
<path d="M125.6364 128.3192
L125.5411 128.2239
" />
<path d="M125.5411 128.2239
L125.6364 128.1287
" />
<path d="M125.6364 128.1287
L125.6364 128.3192
" />
<path d="M126.9697 126.3192
L127.1602 126.3192
" />
<path d="M127.1602 126.3192
L127.3507 126.4144
" />
<path d="M127.3507 126.4144
L127.4459 126.5096
" />
<path d="M127.4459 126.5096
L127.5411 126.7001
" />
<path d="M127.5411 126.7001
L127.6364 127.0811
" />
<path d="M127.6364 127.0811
L127.6364 127.5573
" />
<path d="M127.6364 127.5573
L127.5411 127.9382
" />
<path d="M127.5411 127.9382
L127.4459 128.1287
" />
<path d="M127.4459 128.1287
L127.3507 128.2239
" />
<path d="M127.3507 128.2239
L127.1602 128.3192
" />
<path d="M127.1602 128.3192
L126.9697 128.3192
" />
<path d="M126.9697 128.3192
L126.7792 128.2239
" />
<path d="M126.7792 128.2239
L126.6840 128.1287
" />
<path d="M126.6840 128.1287
L126.5887 127.9382
" />
<path d="M126.5887 127.9382
L126.4935 127.5573
" />
<path d="M126.4935 127.5573
L126.4935 127.0811
" />
<path d="M126.4935 127.0811
L126.5887 126.7001
" />
<path d="M126.5887 126.7001
L126.6840 126.5096
" />
<path d="M126.6840 126.5096
L126.7792 126.4144
" />
<path d="M126.7792 126.4144
L126.9697 126.3192
" />
<path d="M129.5411 128.3192
L128.3983 128.3192
" />
<path d="M128.9697 128.3192
L128.9697 126.3192
" />
<path d="M128.9697 126.3192
L128.7792 126.6049
" />
<path d="M128.7792 126.6049
L128.5887 126.7953
" />
<path d="M128.5887 126.7953
L128.3983 126.8906
" />
<path d="M131.3507 126.3192
L130.3983 126.3192
" />
<path d="M130.3983 126.3192
L130.3030 127.2715
" />
<path d="M130.3030 127.2715
L130.3983 127.1763
" />
<path d="M130.3983 127.1763
L130.5888 127.0811
" />
<path d="M130.5888 127.0811
L131.0649 127.0811
" />
<path d="M131.0649 127.0811
L131.2554 127.1763
" />
<path d="M131.2554 127.1763
L131.3507 127.2715
" />
<path d="M131.3507 127.2715
L131.4459 127.4620
" />
<path d="M131.4459 127.4620
L131.4459 127.9382
" />
<path d="M131.4459 127.9382
L131.3507 128.1287
" />
<path d="M131.3507 128.1287
L131.2554 128.2239
" />
<path d="M131.2554 128.2239
L131.0649 128.3192
" />
<path d="M131.0649 128.3192
L130.5888 128.3192
" />
<path d="M130.5888 128.3192
L130.3983 128.2239
" />
<path d="M130.3983 128.2239
L130.3030 128.1287
" />
<path d="M132.1126 126.3192
L133.4459 126.3192
" />
<path d="M133.4459 126.3192
L132.5888 128.3192
" />
<path d="M134.1126 126.3192
L134.1126 126.7001
" />
<path d="M134.8745 126.3192
L134.8745 126.7001
" />
<path d="M137.8268 129.0811
L137.7316 128.9858
" />
<path d="M137.7316 128.9858
L137.5411 128.7001
" />
<path d="M137.5411 128.7001
L137.4459 128.5096
" />
<path d="M137.4459 128.5096
L137.3507 128.2239
" />
<path d="M137.3507 128.2239
L137.2554 127.7477
" />
<path d="M137.2554 127.7477
L137.2554 127.3668
" />
<path d="M137.2554 127.3668
L137.3507 126.8906
" />
<path d="M137.3507 126.8906
L137.4459 126.6049
" />
<path d="M137.4459 126.6049
L137.5411 126.4144
" />
<path d="M137.5411 126.4144
L137.7316 126.1287
" />
<path d="M137.7316 126.1287
L137.8268 126.0334
" />
<path d="M138.3983 126.3192
L139.7316 126.3192
" />
<path d="M139.7316 126.3192
L138.8745 128.3192
" />
<path d="M140.7792 127.1763
L140.5887 127.0811
" />
<path d="M140.5887 127.0811
L140.4935 126.9858
" />
<path d="M140.4935 126.9858
L140.3983 126.7953
" />
<path d="M140.3983 126.7953
L140.3983 126.7001
" />
<path d="M140.3983 126.7001
L140.4935 126.5096
" />
<path d="M140.4935 126.5096
L140.5887 126.4144
" />
<path d="M140.5887 126.4144
L140.7792 126.3192
" />
<path d="M140.7792 126.3192
L141.1602 126.3192
" />
<path d="M141.1602 126.3192
L141.3507 126.4144
" />
<path d="M141.3507 126.4144
L141.4459 126.5096
" />
<path d="M141.4459 126.5096
L141.5411 126.7001
" />
<path d="M141.5411 126.7001
L141.5411 126.7953
" />
<path d="M141.5411 126.7953
L141.4459 126.9858
" />
<path d="M141.4459 126.9858
L141.3507 127.0811
" />
<path d="M141.3507 127.0811
L141.1602 127.1763
" />
<path d="M141.1602 127.1763
L140.7792 127.1763
" />
<path d="M140.7792 127.1763
L140.5887 127.2715
" />
<path d="M140.5887 127.2715
L140.4935 127.3668
" />
<path d="M140.4935 127.3668
L140.3983 127.5573
" />
<path d="M140.3983 127.5573
L140.3983 127.9382
" />
<path d="M140.3983 127.9382
L140.4935 128.1287
" />
<path d="M140.4935 128.1287
L140.5887 128.2239
" />
<path d="M140.5887 128.2239
L140.7792 128.3192
" />
<path d="M140.7792 128.3192
L141.1602 128.3192
" />
<path d="M141.1602 128.3192
L141.3507 128.2239
" />
<path d="M141.3507 128.2239
L141.4459 128.1287
" />
<path d="M141.4459 128.1287
L141.5411 127.9382
" />
<path d="M141.5411 127.9382
L141.5411 127.5573
" />
<path d="M141.5411 127.5573
L141.4459 127.3668
" />
<path d="M141.4459 127.3668
L141.3507 127.2715
" />
<path d="M141.3507 127.2715
L141.1602 127.1763
" />
<path d="M143.9221 128.3192
L143.9221 126.3192
" />
<path d="M144.7792 128.3192
L144.7792 127.2715
" />
<path d="M144.7792 127.2715
L144.6840 127.0811
" />
<path d="M144.6840 127.0811
L144.4935 126.9858
" />
<path d="M144.4935 126.9858
L144.2078 126.9858
" />
<path d="M144.2078 126.9858
L144.0173 127.0811
" />
<path d="M144.0173 127.0811
L143.9221 127.1763
" />
<path d="M146.0173 128.3192
L145.8268 128.2239
" />
<path d="M145.8268 128.2239
L145.7316 128.1287
" />
<path d="M145.7316 128.1287
L145.6364 127.9382
" />
<path d="M145.6364 127.9382
L145.6364 127.3668
" />
<path d="M145.6364 127.3668
L145.7316 127.1763
" />
<path d="M145.7316 127.1763
L145.8268 127.0811
" />
<path d="M145.8268 127.0811
L146.0173 126.9858
" />
<path d="M146.0173 126.9858
L146.3030 126.9858
" />
<path d="M146.3030 126.9858
L146.4935 127.0811
" />
<path d="M146.4935 127.0811
L146.5888 127.1763
" />
<path d="M146.5888 127.1763
L146.6840 127.3668
" />
<path d="M146.6840 127.3668
L146.6840 127.9382
" />
<path d="M146.6840 127.9382
L146.5888 128.1287
" />
<path d="M146.5888 128.1287
L146.4935 128.2239
" />
<path d="M146.4935 128.2239
L146.3030 128.3192
" />
<path d="M146.3030 128.3192
L146.0173 128.3192
" />
<path d="M147.8268 128.3192
L147.6364 128.2239
" />
<path d="M147.6364 128.2239
L147.5411 128.0334
" />
<path d="M147.5411 128.0334
L147.5411 126.3192
" />
<path d="M149.3507 128.2239
L149.1602 128.3192
" />
<path d="M149.1602 128.3192
L148.7792 128.3192
" />
<path d="M148.7792 128.3192
L148.5887 128.2239
" />
<path d="M148.5887 128.2239
L148.4935 128.0334
" />
<path d="M148.4935 128.0334
L148.4935 127.2715
" />
<path d="M148.4935 127.2715
L148.5887 127.0811
" />
<path d="M148.5887 127.0811
L148.7792 126.9858
" />
<path d="M148.7792 126.9858
L149.1602 126.9858
" />
<path d="M149.1602 126.9858
L149.3507 127.0811
" />
<path d="M149.3507 127.0811
L149.4459 127.2715
" />
<path d="M149.4459 127.2715
L149.4459 127.4620
" />
<path d="M149.4459 127.4620
L148.4935 127.6525
" />
<path d="M150.2078 128.2239
L150.3983 128.3192
" />
<path d="M150.3983 128.3192
L150.7792 128.3192
" />
<path d="M150.7792 128.3192
L150.9697 128.2239
" />
<path d="M150.9697 128.2239
L151.0649 128.0334
" />
<path d="M151.0649 128.0334
L151.0649 127.9382
" />
<path d="M151.0649 127.9382
L150.9697 127.7477
" />
<path d="M150.9697 127.7477
L150.7792 127.6525
" />
<path d="M150.7792 127.6525
L150.4935 127.6525
" />
<path d="M150.4935 127.6525
L150.3030 127.5573
" />
<path d="M150.3030 127.5573
L150.2078 127.3668
" />
<path d="M150.2078 127.3668
L150.2078 127.2715
" />
<path d="M150.2078 127.2715
L150.3030 127.0811
" />
<path d="M150.3030 127.0811
L150.4935 126.9858
" />
<path d="M150.4935 126.9858
L150.7792 126.9858
" />
<path d="M150.7792 126.9858
L150.9697 127.0811
" />
<path d="M151.7316 129.0811
L151.8268 128.9858
" />
<path d="M151.8268 128.9858
L152.0173 128.7001
" />
<path d="M152.0173 128.7001
L152.1126 128.5096
" />
<path d="M152.1126 128.5096
L152.2078 128.2239
" />
<path d="M152.2078 128.2239
L152.3030 127.7477
" />
<path d="M152.3030 127.7477
L152.3030 127.3668
" />
<path d="M152.3030 127.3668
L152.2078 126.8906
" />
<path d="M152.2078 126.8906
L152.1126 126.6049
" />
<path d="M152.1126 126.6049
L152.0173 126.4144
" />
<path d="M152.0173 126.4144
L151.8268 126.1287
" />
<path d="M151.8268 126.1287
L151.7316 126.0334
" />
</g></g>
<g style="fill:none; 
stroke:#000000; stroke-width:0.1158; stroke-opacity:1; 
stroke-linecap:round; stroke-linejoin:round;">
<circle cx="101.4974" cy="130.0443" r="0.5789" /> 
</g>
<g style="fill:none; 
stroke:#000000; stroke-width:0.2000; stroke-opacity:1; 
stroke-linecap:round; stroke-linejoin:round;">
<text x="104.0762" y="131.0443"
textLength="46.8667" font-size="2.6667" lengthAdjust="spacingAndGlyphs"
text-anchor="start" opacity="0" stroke-opacity="0">1.000mm / 0.0394" (4 holes)</text>
<g class="stroked-text"><desc>1.000mm / 0.0394" (4 holes)</desc>
<path d="M105.7316 130.9592
L104.5887 130.9592
" />
<path d="M105.1602 130.9592
L105.1602 128.9592
" />
<path d="M105.1602 128.9592
L104.9697 129.2449
" />
<path d="M104.9697 129.2449
L104.7792 129.4353
" />
<path d="M104.7792 129.4353
L104.5887 129.5306
" />
<path d="M106.5887 130.7687
L106.6840 130.8639
" />
<path d="M106.6840 130.8639
L106.5887 130.9592
" />
<path d="M106.5887 130.9592
L106.4935 130.8639
" />
<path d="M106.4935 130.8639
L106.5887 130.7687
" />
<path d="M106.5887 130.7687
L106.5887 130.9592
" />
<path d="M107.9221 128.9592
L108.1126 128.9592
" />
<path d="M108.1126 128.9592
L108.3030 129.0544
" />
<path d="M108.3030 129.0544
L108.3983 129.1496
" />
<path d="M108.3983 129.1496
L108.4935 129.3401
" />
<path d="M108.4935 129.3401
L108.5887 129.7211
" />
<path d="M108.5887 129.7211
L108.5887 130.1973
" />
<path d="M108.5887 130.1973
L108.4935 130.5782
" />
<path d="M108.4935 130.5782
L108.3983 130.7687
" />
<path d="M108.3983 130.7687
L108.3030 130.8639
" />
<path d="M108.3030 130.8639
L108.1126 130.9592
" />
<path d="M108.1126 130.9592
L107.9221 130.9592
" />
<path d="M107.9221 130.9592
L107.7316 130.8639
" />
<path d="M107.7316 130.8639
L107.6364 130.7687
" />
<path d="M107.6364 130.7687
L107.5411 130.5782
" />
<path d="M107.5411 130.5782
L107.4459 130.1973
" />
<path d="M107.4459 130.1973
L107.4459 129.7211
" />
<path d="M107.4459 129.7211
L107.5411 129.3401
" />
<path d="M107.5411 129.3401
L107.6364 129.1496
" />
<path d="M107.6364 129.1496
L107.7316 129.0544
" />
<path d="M107.7316 129.0544
L107.9221 128.9592
" />
<path d="M109.8268 128.9592
L110.0173 128.9592
" />
<path d="M110.0173 128.9592
L110.2078 129.0544
" />
<path d="M110.2078 129.0544
L110.3030 129.1496
" />
<path d="M110.3030 129.1496
L110.3983 129.3401
" />
<path d="M110.3983 129.3401
L110.4935 129.7211
" />
<path d="M110.4935 129.7211
L110.4935 130.1973
" />
<path d="M110.4935 130.1973
L110.3983 130.5782
" />
<path d="M110.3983 130.5782
L110.3030 130.7687
" />
<path d="M110.3030 130.7687
L110.2078 130.8639
" />
<path d="M110.2078 130.8639
L110.0173 130.9592
" />
<path d="M110.0173 130.9592
L109.8268 130.9592
" />
<path d="M109.8268 130.9592
L109.6364 130.8639
" />
<path d="M109.6364 130.8639
L109.5411 130.7687
" />
<path d="M109.5411 130.7687
L109.4459 130.5782
" />
<path d="M109.4459 130.5782
L109.3507 130.1973
" />
<path d="M109.3507 130.1973
L109.3507 129.7211
" />
<path d="M109.3507 129.7211
L109.4459 129.3401
" />
<path d="M109.4459 129.3401
L109.5411 129.1496
" />
<path d="M109.5411 129.1496
L109.6364 129.0544
" />
<path d="M109.6364 129.0544
L109.8268 128.9592
" />
<path d="M111.7316 128.9592
L111.9221 128.9592
" />
<path d="M111.9221 128.9592
L112.1126 129.0544
" />
<path d="M112.1126 129.0544
L112.2078 129.1496
" />
<path d="M112.2078 129.1496
L112.3030 129.3401
" />
<path d="M112.3030 129.3401
L112.3983 129.7211
" />
<path d="M112.3983 129.7211
L112.3983 130.1973
" />
<path d="M112.3983 130.1973
L112.3030 130.5782
" />
<path d="M112.3030 130.5782
L112.2078 130.7687
" />
<path d="M112.2078 130.7687
L112.1126 130.8639
" />
<path d="M112.1126 130.8639
L111.9221 130.9592
" />
<path d="M111.9221 130.9592
L111.7316 130.9592
" />
<path d="M111.7316 130.9592
L111.5411 130.8639
" />
<path d="M111.5411 130.8639
L111.4459 130.7687
" />
<path d="M111.4459 130.7687
L111.3507 130.5782
" />
<path d="M111.3507 130.5782
L111.2554 130.1973
" />
<path d="M111.2554 130.1973
L111.2554 129.7211
" />
<path d="M111.2554 129.7211
L111.3507 129.3401
" />
<path d="M111.3507 129.3401
L111.4459 129.1496
" />
<path d="M111.4459 129.1496
L111.5411 129.0544
" />
<path d="M111.5411 129.0544
L111.7316 128.9592
" />
<path d="M113.2554 130.9592
L113.2554 129.6258
" />
<path d="M113.2554 129.8163
L113.3507 129.7211
" />
<path d="M113.3507 129.7211
L113.5411 129.6258
" />
<path d="M113.5411 129.6258
L113.8268 129.6258
" />
<path d="M113.8268 129.6258
L114.0173 129.7211
" />
<path d="M114.0173 129.7211
L114.1126 129.9115
" />
<path d="M114.1126 129.9115
L114.1126 130.9592
" />
<path d="M114.1126 129.9115
L114.2078 129.7211
" />
<path d="M114.2078 129.7211
L114.3983 129.6258
" />
<path d="M114.3983 129.6258
L114.6840 129.6258
" />
<path d="M114.6840 129.6258
L114.8745 129.7211
" />
<path d="M114.8745 129.7211
L114.9697 129.9115
" />
<path d="M114.9697 129.9115
L114.9697 130.9592
" />
<path d="M115.9221 130.9592
L115.9221 129.6258
" />
<path d="M115.9221 129.8163
L116.0173 129.7211
" />
<path d="M116.0173 129.7211
L116.2078 129.6258
" />
<path d="M116.2078 129.6258
L116.4935 129.6258
" />
<path d="M116.4935 129.6258
L116.6840 129.7211
" />
<path d="M116.6840 129.7211
L116.7792 129.9115
" />
<path d="M116.7792 129.9115
L116.7792 130.9592
" />
<path d="M116.7792 129.9115
L116.8745 129.7211
" />
<path d="M116.8745 129.7211
L117.0649 129.6258
" />
<path d="M117.0649 129.6258
L117.3507 129.6258
" />
<path d="M117.3507 129.6258
L117.5411 129.7211
" />
<path d="M117.5411 129.7211
L117.6364 129.9115
" />
<path d="M117.6364 129.9115
L117.6364 130.9592
" />
<path d="M121.5411 128.8639
L119.8268 131.4353
" />
<path d="M124.1126 128.9592
L124.3030 128.9592
" />
<path d="M124.3030 128.9592
L124.4935 129.0544
" />
<path d="M124.4935 129.0544
L124.5887 129.1496
" />
<path d="M124.5887 129.1496
L124.6840 129.3401
" />
<path d="M124.6840 129.3401
L124.7792 129.7211
" />
<path d="M124.7792 129.7211
L124.7792 130.1973
" />
<path d="M124.7792 130.1973
L124.6840 130.5782
" />
<path d="M124.6840 130.5782
L124.5887 130.7687
" />
<path d="M124.5887 130.7687
L124.4935 130.8639
" />
<path d="M124.4935 130.8639
L124.3030 130.9592
" />
<path d="M124.3030 130.9592
L124.1126 130.9592
" />
<path d="M124.1126 130.9592
L123.9221 130.8639
" />
<path d="M123.9221 130.8639
L123.8268 130.7687
" />
<path d="M123.8268 130.7687
L123.7316 130.5782
" />
<path d="M123.7316 130.5782
L123.6364 130.1973
" />
<path d="M123.6364 130.1973
L123.6364 129.7211
" />
<path d="M123.6364 129.7211
L123.7316 129.3401
" />
<path d="M123.7316 129.3401
L123.8268 129.1496
" />
<path d="M123.8268 129.1496
L123.9221 129.0544
" />
<path d="M123.9221 129.0544
L124.1126 128.9592
" />
<path d="M125.6364 130.7687
L125.7316 130.8639
" />
<path d="M125.7316 130.8639
L125.6364 130.9592
" />
<path d="M125.6364 130.9592
L125.5411 130.8639
" />
<path d="M125.5411 130.8639
L125.6364 130.7687
" />
<path d="M125.6364 130.7687
L125.6364 130.9592
" />
<path d="M126.9697 128.9592
L127.1602 128.9592
" />
<path d="M127.1602 128.9592
L127.3507 129.0544
" />
<path d="M127.3507 129.0544
L127.4459 129.1496
" />
<path d="M127.4459 129.1496
L127.5411 129.3401
" />
<path d="M127.5411 129.3401
L127.6364 129.7211
" />
<path d="M127.6364 129.7211
L127.6364 130.1973
" />
<path d="M127.6364 130.1973
L127.5411 130.5782
" />
<path d="M127.5411 130.5782
L127.4459 130.7687
" />
<path d="M127.4459 130.7687
L127.3507 130.8639
" />
<path d="M127.3507 130.8639
L127.1602 130.9592
" />
<path d="M127.1602 130.9592
L126.9697 130.9592
" />
<path d="M126.9697 130.9592
L126.7792 130.8639
" />
<path d="M126.7792 130.8639
L126.6840 130.7687
" />
<path d="M126.6840 130.7687
L126.5887 130.5782
" />
<path d="M126.5887 130.5782
L126.4935 130.1973
" />
<path d="M126.4935 130.1973
L126.4935 129.7211
" />
<path d="M126.4935 129.7211
L126.5887 129.3401
" />
<path d="M126.5887 129.3401
L126.6840 129.1496
" />
<path d="M126.6840 129.1496
L126.7792 129.0544
" />
<path d="M126.7792 129.0544
L126.9697 128.9592
" />
<path d="M128.3030 128.9592
L129.5411 128.9592
" />
<path d="M129.5411 128.9592
L128.8745 129.7211
" />
<path d="M128.8745 129.7211
L129.1602 129.7211
" />
<path d="M129.1602 129.7211
L129.3507 129.8163
" />
<path d="M129.3507 129.8163
L129.4459 129.9115
" />
<path d="M129.4459 129.9115
L129.5411 130.1020
" />
<path d="M129.5411 130.1020
L129.5411 130.5782
" />
<path d="M129.5411 130.5782
L129.4459 130.7687
" />
<path d="M129.4459 130.7687
L129.3507 130.8639
" />
<path d="M129.3507 130.8639
L129.1602 130.9592
" />
<path d="M129.1602 130.9592
L128.5887 130.9592
" />
<path d="M128.5887 130.9592
L128.3983 130.8639
" />
<path d="M128.3983 130.8639
L128.3030 130.7687
" />
<path d="M130.4935 130.9592
L130.8745 130.9592
" />
<path d="M130.8745 130.9592
L131.0649 130.8639
" />
<path d="M131.0649 130.8639
L131.1602 130.7687
" />
<path d="M131.1602 130.7687
L131.3507 130.4830
" />
<path d="M131.3507 130.4830
L131.4459 130.1020
" />
<path d="M131.4459 130.1020
L131.4459 129.3401
" />
<path d="M131.4459 129.3401
L131.3507 129.1496
" />
<path d="M131.3507 129.1496
L131.2554 129.0544
" />
<path d="M131.2554 129.0544
L131.0649 128.9592
" />
<path d="M131.0649 128.9592
L130.6840 128.9592
" />
<path d="M130.6840 128.9592
L130.4935 129.0544
" />
<path d="M130.4935 129.0544
L130.3983 129.1496
" />
<path d="M130.3983 129.1496
L130.3030 129.3401
" />
<path d="M130.3030 129.3401
L130.3030 129.8163
" />
<path d="M130.3030 129.8163
L130.3983 130.0068
" />
<path d="M130.3983 130.0068
L130.4935 130.1020
" />
<path d="M130.4935 130.1020
L130.6840 130.1973
" />
<path d="M130.6840 130.1973
L131.0649 130.1973
" />
<path d="M131.0649 130.1973
L131.2554 130.1020
" />
<path d="M131.2554 130.1020
L131.3507 130.0068
" />
<path d="M131.3507 130.0068
L131.4459 129.8163
" />
<path d="M133.1602 129.6258
L133.1602 130.9592
" />
<path d="M132.6840 128.8639
L132.2078 130.2925
" />
<path d="M132.2078 130.2925
L133.4459 130.2925
" />
<path d="M134.1126 128.9592
L134.1126 129.3401
" />
<path d="M134.8745 128.9592
L134.8745 129.3401
" />
<path d="M137.8268 131.7211
L137.7316 131.6258
" />
<path d="M137.7316 131.6258
L137.5411 131.3401
" />
<path d="M137.5411 131.3401
L137.4459 131.1496
" />
<path d="M137.4459 131.1496
L137.3507 130.8639
" />
<path d="M137.3507 130.8639
L137.2554 130.3877
" />
<path d="M137.2554 130.3877
L137.2554 130.0068
" />
<path d="M137.2554 130.0068
L137.3507 129.5306
" />
<path d="M137.3507 129.5306
L137.4459 129.2449
" />
<path d="M137.4459 129.2449
L137.5411 129.0544
" />
<path d="M137.5411 129.0544
L137.7316 128.7687
" />
<path d="M137.7316 128.7687
L137.8268 128.6734
" />
<path d="M139.4459 129.6258
L139.4459 130.9592
" />
<path d="M138.9697 128.8639
L138.4935 130.2925
" />
<path d="M138.4935 130.2925
L139.7316 130.2925
" />
<path d="M142.0173 130.9592
L142.0173 128.9592
" />
<path d="M142.8745 130.9592
L142.8745 129.9115
" />
<path d="M142.8745 129.9115
L142.7792 129.7211
" />
<path d="M142.7792 129.7211
L142.5887 129.6258
" />
<path d="M142.5887 129.6258
L142.3030 129.6258
" />
<path d="M142.3030 129.6258
L142.1126 129.7211
" />
<path d="M142.1126 129.7211
L142.0173 129.8163
" />
<path d="M144.1126 130.9592
L143.9221 130.8639
" />
<path d="M143.9221 130.8639
L143.8268 130.7687
" />
<path d="M143.8268 130.7687
L143.7316 130.5782
" />
<path d="M143.7316 130.5782
L143.7316 130.0068
" />
<path d="M143.7316 130.0068
L143.8268 129.8163
" />
<path d="M143.8268 129.8163
L143.9221 129.7211
" />
<path d="M143.9221 129.7211
L144.1126 129.6258
" />
<path d="M144.1126 129.6258
L144.3983 129.6258
" />
<path d="M144.3983 129.6258
L144.5887 129.7211
" />
<path d="M144.5887 129.7211
L144.6840 129.8163
" />
<path d="M144.6840 129.8163
L144.7792 130.0068
" />
<path d="M144.7792 130.0068
L144.7792 130.5782
" />
<path d="M144.7792 130.5782
L144.6840 130.7687
" />
<path d="M144.6840 130.7687
L144.5887 130.8639
" />
<path d="M144.5887 130.8639
L144.3983 130.9592
" />
<path d="M144.3983 130.9592
L144.1126 130.9592
" />
<path d="M145.9221 130.9592
L145.7316 130.8639
" />
<path d="M145.7316 130.8639
L145.6364 130.6734
" />
<path d="M145.6364 130.6734
L145.6364 128.9592
" />
<path d="M147.4459 130.8639
L147.2554 130.9592
" />
<path d="M147.2554 130.9592
L146.8745 130.9592
" />
<path d="M146.8745 130.9592
L146.6840 130.8639
" />
<path d="M146.6840 130.8639
L146.5887 130.6734
" />
<path d="M146.5887 130.6734
L146.5887 129.9115
" />
<path d="M146.5887 129.9115
L146.6840 129.7211
" />
<path d="M146.6840 129.7211
L146.8745 129.6258
" />
<path d="M146.8745 129.6258
L147.2554 129.6258
" />
<path d="M147.2554 129.6258
L147.4459 129.7211
" />
<path d="M147.4459 129.7211
L147.5411 129.9115
" />
<path d="M147.5411 129.9115
L147.5411 130.1020
" />
<path d="M147.5411 130.1020
L146.5887 130.2925
" />
<path d="M148.3030 130.8639
L148.4935 130.9592
" />
<path d="M148.4935 130.9592
L148.8745 130.9592
" />
<path d="M148.8745 130.9592
L149.0649 130.8639
" />
<path d="M149.0649 130.8639
L149.1602 130.6734
" />
<path d="M149.1602 130.6734
L149.1602 130.5782
" />
<path d="M149.1602 130.5782
L149.0649 130.3877
" />
<path d="M149.0649 130.3877
L148.8745 130.2925
" />
<path d="M148.8745 130.2925
L148.5887 130.2925
" />
<path d="M148.5887 130.2925
L148.3983 130.1973
" />
<path d="M148.3983 130.1973
L148.3030 130.0068
" />
<path d="M148.3030 130.0068
L148.3030 129.9115
" />
<path d="M148.3030 129.9115
L148.3983 129.7211
" />
<path d="M148.3983 129.7211
L148.5887 129.6258
" />
<path d="M148.5887 129.6258
L148.8745 129.6258
" />
<path d="M148.8745 129.6258
L149.0649 129.7211
" />
<path d="M149.8268 131.7211
L149.9221 131.6258
" />
<path d="M149.9221 131.6258
L150.1126 131.3401
" />
<path d="M150.1126 131.3401
L150.2078 131.1496
" />
<path d="M150.2078 131.1496
L150.3030 130.8639
" />
<path d="M150.3030 130.8639
L150.3983 130.3877
" />
<path d="M150.3983 130.3877
L150.3983 130.0068
" />
<path d="M150.3983 130.0068
L150.3030 129.5306
" />
<path d="M150.3030 129.5306
L150.2078 129.2449
" />
<path d="M150.2078 129.2449
L150.1126 129.0544
" />
<path d="M150.1126 129.0544
L149.9221 128.7687
" />
<path d="M149.9221 128.7687
L149.8268 128.6734
" />
</g></g>
<g style="fill:none; 
stroke:#000000; stroke-width:0.1331; stroke-opacity:1; 
stroke-linecap:round; stroke-linejoin:round;">
<path d="M101.4105 132.0186
L101.4105 133.3500
" />
<path d="M100.7448 132.6843
L102.0762 132.6843
" />
</g>
<g style="fill:none; 
stroke:#000000; stroke-width:0.2000; stroke-opacity:1; 
stroke-linecap:round; stroke-linejoin:round;">
<text x="104.0762" y="133.6843"
textLength="46.8667" font-size="2.6667" lengthAdjust="spacingAndGlyphs"
text-anchor="start" opacity="0" stroke-opacity="0">1.150mm / 0.0453" (2 holes)</text>
<g class="stroked-text"><desc>1.150mm / 0.0453" (2 holes)</desc>
<path d="M105.7316 133.5992
L104.5887 133.5992
" />
<path d="M105.1602 133.5992
L105.1602 131.5992
" />
<path d="M105.1602 131.5992
L104.9697 131.8849
" />
<path d="M104.9697 131.8849
L104.7792 132.0753
" />
<path d="M104.7792 132.0753
L104.5887 132.1706
" />
<path d="M106.5887 133.4087
L106.6840 133.5039
" />
<path d="M106.6840 133.5039
L106.5887 133.5992
" />
<path d="M106.5887 133.5992
L106.4935 133.5039
" />
<path d="M106.4935 133.5039
L106.5887 133.4087
" />
<path d="M106.5887 133.4087
L106.5887 133.5992
" />
<path d="M108.5887 133.5992
L107.4459 133.5992
" />
<path d="M108.0173 133.5992
L108.0173 131.5992
" />
<path d="M108.0173 131.5992
L107.8268 131.8849
" />
<path d="M107.8268 131.8849
L107.6364 132.0753
" />
<path d="M107.6364 132.0753
L107.4459 132.1706
" />
<path d="M110.3983 131.5992
L109.4459 131.5992
" />
<path d="M109.4459 131.5992
L109.3507 132.5515
" />
<path d="M109.3507 132.5515
L109.4459 132.4563
" />
<path d="M109.4459 132.4563
L109.6364 132.3611
" />
<path d="M109.6364 132.3611
L110.1126 132.3611
" />
<path d="M110.1126 132.3611
L110.3030 132.4563
" />
<path d="M110.3030 132.4563
L110.3983 132.5515
" />
<path d="M110.3983 132.5515
L110.4935 132.7420
" />
<path d="M110.4935 132.7420
L110.4935 133.2182
" />
<path d="M110.4935 133.2182
L110.3983 133.4087
" />
<path d="M110.3983 133.4087
L110.3030 133.5039
" />
<path d="M110.3030 133.5039
L110.1126 133.5992
" />
<path d="M110.1126 133.5992
L109.6364 133.5992
" />
<path d="M109.6364 133.5992
L109.4459 133.5039
" />
<path d="M109.4459 133.5039
L109.3507 133.4087
" />
<path d="M111.7316 131.5992
L111.9221 131.5992
" />
<path d="M111.9221 131.5992
L112.1126 131.6944
" />
<path d="M112.1126 131.6944
L112.2078 131.7896
" />
<path d="M112.2078 131.7896
L112.3030 131.9801
" />
<path d="M112.3030 131.9801
L112.3983 132.3611
" />
<path d="M112.3983 132.3611
L112.3983 132.8373
" />
<path d="M112.3983 132.8373
L112.3030 133.2182
" />
<path d="M112.3030 133.2182
L112.2078 133.4087
" />
<path d="M112.2078 133.4087
L112.1126 133.5039
" />
<path d="M112.1126 133.5039
L111.9221 133.5992
" />
<path d="M111.9221 133.5992
L111.7316 133.5992
" />
<path d="M111.7316 133.5992
L111.5411 133.5039
" />
<path d="M111.5411 133.5039
L111.4459 133.4087
" />
<path d="M111.4459 133.4087
L111.3507 133.2182
" />
<path d="M111.3507 133.2182
L111.2554 132.8373
" />
<path d="M111.2554 132.8373
L111.2554 132.3611
" />
<path d="M111.2554 132.3611
L111.3507 131.9801
" />
<path d="M111.3507 131.9801
L111.4459 131.7896
" />
<path d="M111.4459 131.7896
L111.5411 131.6944
" />
<path d="M111.5411 131.6944
L111.7316 131.5992
" />
<path d="M113.2554 133.5992
L113.2554 132.2658
" />
<path d="M113.2554 132.4563
L113.3507 132.3611
" />
<path d="M113.3507 132.3611
L113.5411 132.2658
" />
<path d="M113.5411 132.2658
L113.8268 132.2658
" />
<path d="M113.8268 132.2658
L114.0173 132.3611
" />
<path d="M114.0173 132.3611
L114.1126 132.5515
" />
<path d="M114.1126 132.5515
L114.1126 133.5992
" />
<path d="M114.1126 132.5515
L114.2078 132.3611
" />
<path d="M114.2078 132.3611
L114.3983 132.2658
" />
<path d="M114.3983 132.2658
L114.6840 132.2658
" />
<path d="M114.6840 132.2658
L114.8745 132.3611
" />
<path d="M114.8745 132.3611
L114.9697 132.5515
" />
<path d="M114.9697 132.5515
L114.9697 133.5992
" />
<path d="M115.9221 133.5992
L115.9221 132.2658
" />
<path d="M115.9221 132.4563
L116.0173 132.3611
" />
<path d="M116.0173 132.3611
L116.2078 132.2658
" />
<path d="M116.2078 132.2658
L116.4935 132.2658
" />
<path d="M116.4935 132.2658
L116.6840 132.3611
" />
<path d="M116.6840 132.3611
L116.7792 132.5515
" />
<path d="M116.7792 132.5515
L116.7792 133.5992
" />
<path d="M116.7792 132.5515
L116.8745 132.3611
" />
<path d="M116.8745 132.3611
L117.0649 132.2658
" />
<path d="M117.0649 132.2658
L117.3507 132.2658
" />
<path d="M117.3507 132.2658
L117.5411 132.3611
" />
<path d="M117.5411 132.3611
L117.6364 132.5515
" />
<path d="M117.6364 132.5515
L117.6364 133.5992
" />
<path d="M121.5411 131.5039
L119.8268 134.0753
" />
<path d="M124.1126 131.5992
L124.3030 131.5992
" />
<path d="M124.3030 131.5992
L124.4935 131.6944
" />
<path d="M124.4935 131.6944
L124.5887 131.7896
" />
<path d="M124.5887 131.7896
L124.6840 131.9801
" />
<path d="M124.6840 131.9801
L124.7792 132.3611
" />
<path d="M124.7792 132.3611
L124.7792 132.8373
" />
<path d="M124.7792 132.8373
L124.6840 133.2182
" />
<path d="M124.6840 133.2182
L124.5887 133.4087
" />
<path d="M124.5887 133.4087
L124.4935 133.5039
" />
<path d="M124.4935 133.5039
L124.3030 133.5992
" />
<path d="M124.3030 133.5992
L124.1126 133.5992
" />
<path d="M124.1126 133.5992
L123.9221 133.5039
" />
<path d="M123.9221 133.5039
L123.8268 133.4087
" />
<path d="M123.8268 133.4087
L123.7316 133.2182
" />
<path d="M123.7316 133.2182
L123.6364 132.8373
" />
<path d="M123.6364 132.8373
L123.6364 132.3611
" />
<path d="M123.6364 132.3611
L123.7316 131.9801
" />
<path d="M123.7316 131.9801
L123.8268 131.7896
" />
<path d="M123.8268 131.7896
L123.9221 131.6944
" />
<path d="M123.9221 131.6944
L124.1126 131.5992
" />
<path d="M125.6364 133.4087
L125.7316 133.5039
" />
<path d="M125.7316 133.5039
L125.6364 133.5992
" />
<path d="M125.6364 133.5992
L125.5411 133.5039
" />
<path d="M125.5411 133.5039
L125.6364 133.4087
" />
<path d="M125.6364 133.4087
L125.6364 133.5992
" />
<path d="M126.9697 131.5992
L127.1602 131.5992
" />
<path d="M127.1602 131.5992
L127.3507 131.6944
" />
<path d="M127.3507 131.6944
L127.4459 131.7896
" />
<path d="M127.4459 131.7896
L127.5411 131.9801
" />
<path d="M127.5411 131.9801
L127.6364 132.3611
" />
<path d="M127.6364 132.3611
L127.6364 132.8373
" />
<path d="M127.6364 132.8373
L127.5411 133.2182
" />
<path d="M127.5411 133.2182
L127.4459 133.4087
" />
<path d="M127.4459 133.4087
L127.3507 133.5039
" />
<path d="M127.3507 133.5039
L127.1602 133.5992
" />
<path d="M127.1602 133.5992
L126.9697 133.5992
" />
<path d="M126.9697 133.5992
L126.7792 133.5039
" />
<path d="M126.7792 133.5039
L126.6840 133.4087
" />
<path d="M126.6840 133.4087
L126.5887 133.2182
" />
<path d="M126.5887 133.2182
L126.4935 132.8373
" />
<path d="M126.4935 132.8373
L126.4935 132.3611
" />
<path d="M126.4935 132.3611
L126.5887 131.9801
" />
<path d="M126.5887 131.9801
L126.6840 131.7896
" />
<path d="M126.6840 131.7896
L126.7792 131.6944
" />
<path d="M126.7792 131.6944
L126.9697 131.5992
" />
<path d="M129.3507 132.2658
L129.3507 133.5992
" />
<path d="M128.8745 131.5039
L128.3983 132.9325
" />
<path d="M128.3983 132.9325
L129.6364 132.9325
" />
<path d="M131.3507 131.5992
L130.3983 131.5992
" />
<path d="M130.3983 131.5992
L130.3030 132.5515
" />
<path d="M130.3030 132.5515
L130.3983 132.4563
" />
<path d="M130.3983 132.4563
L130.5888 132.3611
" />
<path d="M130.5888 132.3611
L131.0649 132.3611
" />
<path d="M131.0649 132.3611
L131.2554 132.4563
" />
<path d="M131.2554 132.4563
L131.3507 132.5515
" />
<path d="M131.3507 132.5515
L131.4459 132.7420
" />
<path d="M131.4459 132.7420
L131.4459 133.2182
" />
<path d="M131.4459 133.2182
L131.3507 133.4087
" />
<path d="M131.3507 133.4087
L131.2554 133.5039
" />
<path d="M131.2554 133.5039
L131.0649 133.5992
" />
<path d="M131.0649 133.5992
L130.5888 133.5992
" />
<path d="M130.5888 133.5992
L130.3983 133.5039
" />
<path d="M130.3983 133.5039
L130.3030 133.4087
" />
<path d="M132.1126 131.5992
L133.3507 131.5992
" />
<path d="M133.3507 131.5992
L132.6840 132.3611
" />
<path d="M132.6840 132.3611
L132.9697 132.3611
" />
<path d="M132.9697 132.3611
L133.1602 132.4563
" />
<path d="M133.1602 132.4563
L133.2554 132.5515
" />
<path d="M133.2554 132.5515
L133.3507 132.7420
" />
<path d="M133.3507 132.7420
L133.3507 133.2182
" />
<path d="M133.3507 133.2182
L133.2554 133.4087
" />
<path d="M133.2554 133.4087
L133.1602 133.5039
" />
<path d="M133.1602 133.5039
L132.9697 133.5992
" />
<path d="M132.9697 133.5992
L132.3983 133.5992
" />
<path d="M132.3983 133.5992
L132.2078 133.5039
" />
<path d="M132.2078 133.5039
L132.1126 133.4087
" />
<path d="M134.1126 131.5992
L134.1126 131.9801
" />
<path d="M134.8745 131.5992
L134.8745 131.9801
" />
<path d="M137.8268 134.3611
L137.7316 134.2658
" />
<path d="M137.7316 134.2658
L137.5411 133.9801
" />
<path d="M137.5411 133.9801
L137.4459 133.7896
" />
<path d="M137.4459 133.7896
L137.3507 133.5039
" />
<path d="M137.3507 133.5039
L137.2554 133.0277
" />
<path d="M137.2554 133.0277
L137.2554 132.6468
" />
<path d="M137.2554 132.6468
L137.3507 132.1706
" />
<path d="M137.3507 132.1706
L137.4459 131.8849
" />
<path d="M137.4459 131.8849
L137.5411 131.6944
" />
<path d="M137.5411 131.6944
L137.7316 131.4087
" />
<path d="M137.7316 131.4087
L137.8268 131.3134
" />
<path d="M138.4935 131.7896
L138.5887 131.6944
" />
<path d="M138.5887 131.6944
L138.7792 131.5992
" />
<path d="M138.7792 131.5992
L139.2554 131.5992
" />
<path d="M139.2554 131.5992
L139.4459 131.6944
" />
<path d="M139.4459 131.6944
L139.5411 131.7896
" />
<path d="M139.5411 131.7896
L139.6364 131.9801
" />
<path d="M139.6364 131.9801
L139.6364 132.1706
" />
<path d="M139.6364 132.1706
L139.5411 132.4563
" />
<path d="M139.5411 132.4563
L138.3983 133.5992
" />
<path d="M138.3983 133.5992
L139.6364 133.5992
" />
<path d="M142.0173 133.5992
L142.0173 131.5992
" />
<path d="M142.8745 133.5992
L142.8745 132.5515
" />
<path d="M142.8745 132.5515
L142.7792 132.3611
" />
<path d="M142.7792 132.3611
L142.5887 132.2658
" />
<path d="M142.5887 132.2658
L142.3030 132.2658
" />
<path d="M142.3030 132.2658
L142.1126 132.3611
" />
<path d="M142.1126 132.3611
L142.0173 132.4563
" />
<path d="M144.1126 133.5992
L143.9221 133.5039
" />
<path d="M143.9221 133.5039
L143.8268 133.4087
" />
<path d="M143.8268 133.4087
L143.7316 133.2182
" />
<path d="M143.7316 133.2182
L143.7316 132.6468
" />
<path d="M143.7316 132.6468
L143.8268 132.4563
" />
<path d="M143.8268 132.4563
L143.9221 132.3611
" />
<path d="M143.9221 132.3611
L144.1126 132.2658
" />
<path d="M144.1126 132.2658
L144.3983 132.2658
" />
<path d="M144.3983 132.2658
L144.5887 132.3611
" />
<path d="M144.5887 132.3611
L144.6840 132.4563
" />
<path d="M144.6840 132.4563
L144.7792 132.6468
" />
<path d="M144.7792 132.6468
L144.7792 133.2182
" />
<path d="M144.7792 133.2182
L144.6840 133.4087
" />
<path d="M144.6840 133.4087
L144.5887 133.5039
" />
<path d="M144.5887 133.5039
L144.3983 133.5992
" />
<path d="M144.3983 133.5992
L144.1126 133.5992
" />
<path d="M145.9221 133.5992
L145.7316 133.5039
" />
<path d="M145.7316 133.5039
L145.6364 133.3134
" />
<path d="M145.6364 133.3134
L145.6364 131.5992
" />
<path d="M147.4459 133.5039
L147.2554 133.5992
" />
<path d="M147.2554 133.5992
L146.8745 133.5992
" />
<path d="M146.8745 133.5992
L146.6840 133.5039
" />
<path d="M146.6840 133.5039
L146.5887 133.3134
" />
<path d="M146.5887 133.3134
L146.5887 132.5515
" />
<path d="M146.5887 132.5515
L146.6840 132.3611
" />
<path d="M146.6840 132.3611
L146.8745 132.2658
" />
<path d="M146.8745 132.2658
L147.2554 132.2658
" />
<path d="M147.2554 132.2658
L147.4459 132.3611
" />
<path d="M147.4459 132.3611
L147.5411 132.5515
" />
<path d="M147.5411 132.5515
L147.5411 132.7420
" />
<path d="M147.5411 132.7420
L146.5887 132.9325
" />
<path d="M148.3030 133.5039
L148.4935 133.5992
" />
<path d="M148.4935 133.5992
L148.8745 133.5992
" />
<path d="M148.8745 133.5992
L149.0649 133.5039
" />
<path d="M149.0649 133.5039
L149.1602 133.3134
" />
<path d="M149.1602 133.3134
L149.1602 133.2182
" />
<path d="M149.1602 133.2182
L149.0649 133.0277
" />
<path d="M149.0649 133.0277
L148.8745 132.9325
" />
<path d="M148.8745 132.9325
L148.5887 132.9325
" />
<path d="M148.5887 132.9325
L148.3983 132.8373
" />
<path d="M148.3983 132.8373
L148.3030 132.6468
" />
<path d="M148.3030 132.6468
L148.3030 132.5515
" />
<path d="M148.3030 132.5515
L148.3983 132.3611
" />
<path d="M148.3983 132.3611
L148.5887 132.2658
" />
<path d="M148.5887 132.2658
L148.8745 132.2658
" />
<path d="M148.8745 132.2658
L149.0649 132.3611
" />
<path d="M149.8268 134.3611
L149.9221 134.2658
" />
<path d="M149.9221 134.2658
L150.1126 133.9801
" />
<path d="M150.1126 133.9801
L150.2078 133.7896
" />
<path d="M150.2078 133.7896
L150.3030 133.5039
" />
<path d="M150.3030 133.5039
L150.3983 133.0277
" />
<path d="M150.3983 133.0277
L150.3983 132.6468
" />
<path d="M150.3983 132.6468
L150.3030 132.1706
" />
<path d="M150.3030 132.1706
L150.2078 131.8849
" />
<path d="M150.2078 131.8849
L150.1126 131.6944
" />
<path d="M150.1126 131.6944
L149.9221 131.4087
" />
<path d="M149.9221 131.4087
L149.8268 131.3134
" />
</g><path style="fill:none; 
stroke:#000000; stroke-width:0.1621; stroke-opacity:1; 
stroke-linecap:round; stroke-linejoin:round;fill:none"
d="M 101.8389,135.8974
101.8389,134.7513
100.6928,134.7513
100.6928,135.8974
Z" /> 
</g>
<g style="fill:none; 
stroke:#000000; stroke-width:0.2000; stroke-opacity:1; 
stroke-linecap:round; stroke-linejoin:round;">
<text x="104.0762" y="136.3243"
textLength="48.7714" font-size="2.6667" lengthAdjust="spacingAndGlyphs"
text-anchor="start" opacity="0" stroke-opacity="0">1.400mm / 0.0551" (10 holes)</text>
<g class="stroked-text"><desc>1.400mm / 0.0551" (10 holes)</desc>
<path d="M105.7316 136.2392
L104.5887 136.2392
" />
<path d="M105.1602 136.2392
L105.1602 134.2392
" />
<path d="M105.1602 134.2392
L104.9697 134.5249
" />
<path d="M104.9697 134.5249
L104.7792 134.7153
" />
<path d="M104.7792 134.7153
L104.5887 134.8106
" />
<path d="M106.5887 136.0487
L106.6840 136.1439
" />
<path d="M106.6840 136.1439
L106.5887 136.2392
" />
<path d="M106.5887 136.2392
L106.4935 136.1439
" />
<path d="M106.4935 136.1439
L106.5887 136.0487
" />
<path d="M106.5887 136.0487
L106.5887 136.2392
" />
<path d="M108.3983 134.9058
L108.3983 136.2392
" />
<path d="M107.9221 134.1439
L107.4459 135.5725
" />
<path d="M107.4459 135.5725
L108.6840 135.5725
" />
<path d="M109.8268 134.2392
L110.0173 134.2392
" />
<path d="M110.0173 134.2392
L110.2078 134.3344
" />
<path d="M110.2078 134.3344
L110.3030 134.4296
" />
<path d="M110.3030 134.4296
L110.3983 134.6201
" />
<path d="M110.3983 134.6201
L110.4935 135.0011
" />
<path d="M110.4935 135.0011
L110.4935 135.4773
" />
<path d="M110.4935 135.4773
L110.3983 135.8582
" />
<path d="M110.3983 135.8582
L110.3030 136.0487
" />
<path d="M110.3030 136.0487
L110.2078 136.1439
" />
<path d="M110.2078 136.1439
L110.0173 136.2392
" />
<path d="M110.0173 136.2392
L109.8268 136.2392
" />
<path d="M109.8268 136.2392
L109.6364 136.1439
" />
<path d="M109.6364 136.1439
L109.5411 136.0487
" />
<path d="M109.5411 136.0487
L109.4459 135.8582
" />
<path d="M109.4459 135.8582
L109.3507 135.4773
" />
<path d="M109.3507 135.4773
L109.3507 135.0011
" />
<path d="M109.3507 135.0011
L109.4459 134.6201
" />
<path d="M109.4459 134.6201
L109.5411 134.4296
" />
<path d="M109.5411 134.4296
L109.6364 134.3344
" />
<path d="M109.6364 134.3344
L109.8268 134.2392
" />
<path d="M111.7316 134.2392
L111.9221 134.2392
" />
<path d="M111.9221 134.2392
L112.1126 134.3344
" />
<path d="M112.1126 134.3344
L112.2078 134.4296
" />
<path d="M112.2078 134.4296
L112.3030 134.6201
" />
<path d="M112.3030 134.6201
L112.3983 135.0011
" />
<path d="M112.3983 135.0011
L112.3983 135.4773
" />
<path d="M112.3983 135.4773
L112.3030 135.8582
" />
<path d="M112.3030 135.8582
L112.2078 136.0487
" />
<path d="M112.2078 136.0487
L112.1126 136.1439
" />
<path d="M112.1126 136.1439
L111.9221 136.2392
" />
<path d="M111.9221 136.2392
L111.7316 136.2392
" />
<path d="M111.7316 136.2392
L111.5411 136.1439
" />
<path d="M111.5411 136.1439
L111.4459 136.0487
" />
<path d="M111.4459 136.0487
L111.3507 135.8582
" />
<path d="M111.3507 135.8582
L111.2554 135.4773
" />
<path d="M111.2554 135.4773
L111.2554 135.0011
" />
<path d="M111.2554 135.0011
L111.3507 134.6201
" />
<path d="M111.3507 134.6201
L111.4459 134.4296
" />
<path d="M111.4459 134.4296
L111.5411 134.3344
" />
<path d="M111.5411 134.3344
L111.7316 134.2392
" />
<path d="M113.2554 136.2392
L113.2554 134.9058
" />
<path d="M113.2554 135.0963
L113.3507 135.0011
" />
<path d="M113.3507 135.0011
L113.5411 134.9058
" />
<path d="M113.5411 134.9058
L113.8268 134.9058
" />
<path d="M113.8268 134.9058
L114.0173 135.0011
" />
<path d="M114.0173 135.0011
L114.1126 135.1915
" />
<path d="M114.1126 135.1915
L114.1126 136.2392
" />
<path d="M114.1126 135.1915
L114.2078 135.0011
" />
<path d="M114.2078 135.0011
L114.3983 134.9058
" />
<path d="M114.3983 134.9058
L114.6840 134.9058
" />
<path d="M114.6840 134.9058
L114.8745 135.0011
" />
<path d="M114.8745 135.0011
L114.9697 135.1915
" />
<path d="M114.9697 135.1915
L114.9697 136.2392
" />
<path d="M115.9221 136.2392
L115.9221 134.9058
" />
<path d="M115.9221 135.0963
L116.0173 135.0011
" />
<path d="M116.0173 135.0011
L116.2078 134.9058
" />
<path d="M116.2078 134.9058
L116.4935 134.9058
" />
<path d="M116.4935 134.9058
L116.6840 135.0011
" />
<path d="M116.6840 135.0011
L116.7792 135.1915
" />
<path d="M116.7792 135.1915
L116.7792 136.2392
" />
<path d="M116.7792 135.1915
L116.8745 135.0011
" />
<path d="M116.8745 135.0011
L117.0649 134.9058
" />
<path d="M117.0649 134.9058
L117.3507 134.9058
" />
<path d="M117.3507 134.9058
L117.5411 135.0011
" />
<path d="M117.5411 135.0011
L117.6364 135.1915
" />
<path d="M117.6364 135.1915
L117.6364 136.2392
" />
<path d="M121.5411 134.1439
L119.8268 136.7153
" />
<path d="M124.1126 134.2392
L124.3030 134.2392
" />
<path d="M124.3030 134.2392
L124.4935 134.3344
" />
<path d="M124.4935 134.3344
L124.5887 134.4296
" />
<path d="M124.5887 134.4296
L124.6840 134.6201
" />
<path d="M124.6840 134.6201
L124.7792 135.0011
" />
<path d="M124.7792 135.0011
L124.7792 135.4773
" />
<path d="M124.7792 135.4773
L124.6840 135.8582
" />
<path d="M124.6840 135.8582
L124.5887 136.0487
" />
<path d="M124.5887 136.0487
L124.4935 136.1439
" />
<path d="M124.4935 136.1439
L124.3030 136.2392
" />
<path d="M124.3030 136.2392
L124.1126 136.2392
" />
<path d="M124.1126 136.2392
L123.9221 136.1439
" />
<path d="M123.9221 136.1439
L123.8268 136.0487
" />
<path d="M123.8268 136.0487
L123.7316 135.8582
" />
<path d="M123.7316 135.8582
L123.6364 135.4773
" />
<path d="M123.6364 135.4773
L123.6364 135.0011
" />
<path d="M123.6364 135.0011
L123.7316 134.6201
" />
<path d="M123.7316 134.6201
L123.8268 134.4296
" />
<path d="M123.8268 134.4296
L123.9221 134.3344
" />
<path d="M123.9221 134.3344
L124.1126 134.2392
" />
<path d="M125.6364 136.0487
L125.7316 136.1439
" />
<path d="M125.7316 136.1439
L125.6364 136.2392
" />
<path d="M125.6364 136.2392
L125.5411 136.1439
" />
<path d="M125.5411 136.1439
L125.6364 136.0487
" />
<path d="M125.6364 136.0487
L125.6364 136.2392
" />
<path d="M126.9697 134.2392
L127.1602 134.2392
" />
<path d="M127.1602 134.2392
L127.3507 134.3344
" />
<path d="M127.3507 134.3344
L127.4459 134.4296
" />
<path d="M127.4459 134.4296
L127.5411 134.6201
" />
<path d="M127.5411 134.6201
L127.6364 135.0011
" />
<path d="M127.6364 135.0011
L127.6364 135.4773
" />
<path d="M127.6364 135.4773
L127.5411 135.8582
" />
<path d="M127.5411 135.8582
L127.4459 136.0487
" />
<path d="M127.4459 136.0487
L127.3507 136.1439
" />
<path d="M127.3507 136.1439
L127.1602 136.2392
" />
<path d="M127.1602 136.2392
L126.9697 136.2392
" />
<path d="M126.9697 136.2392
L126.7792 136.1439
" />
<path d="M126.7792 136.1439
L126.6840 136.0487
" />
<path d="M126.6840 136.0487
L126.5887 135.8582
" />
<path d="M126.5887 135.8582
L126.4935 135.4773
" />
<path d="M126.4935 135.4773
L126.4935 135.0011
" />
<path d="M126.4935 135.0011
L126.5887 134.6201
" />
<path d="M126.5887 134.6201
L126.6840 134.4296
" />
<path d="M126.6840 134.4296
L126.7792 134.3344
" />
<path d="M126.7792 134.3344
L126.9697 134.2392
" />
<path d="M129.4459 134.2392
L128.4935 134.2392
" />
<path d="M128.4935 134.2392
L128.3983 135.1915
" />
<path d="M128.3983 135.1915
L128.4935 135.0963
" />
<path d="M128.4935 135.0963
L128.6840 135.0011
" />
<path d="M128.6840 135.0011
L129.1602 135.0011
" />
<path d="M129.1602 135.0011
L129.3507 135.0963
" />
<path d="M129.3507 135.0963
L129.4459 135.1915
" />
<path d="M129.4459 135.1915
L129.5411 135.3820
" />
<path d="M129.5411 135.3820
L129.5411 135.8582
" />
<path d="M129.5411 135.8582
L129.4459 136.0487
" />
<path d="M129.4459 136.0487
L129.3507 136.1439
" />
<path d="M129.3507 136.1439
L129.1602 136.2392
" />
<path d="M129.1602 136.2392
L128.6840 136.2392
" />
<path d="M128.6840 136.2392
L128.4935 136.1439
" />
<path d="M128.4935 136.1439
L128.3983 136.0487
" />
<path d="M131.3507 134.2392
L130.3983 134.2392
" />
<path d="M130.3983 134.2392
L130.3030 135.1915
" />
<path d="M130.3030 135.1915
L130.3983 135.0963
" />
<path d="M130.3983 135.0963
L130.5888 135.0011
" />
<path d="M130.5888 135.0011
L131.0649 135.0011
" />
<path d="M131.0649 135.0011
L131.2554 135.0963
" />
<path d="M131.2554 135.0963
L131.3507 135.1915
" />
<path d="M131.3507 135.1915
L131.4459 135.3820
" />
<path d="M131.4459 135.3820
L131.4459 135.8582
" />
<path d="M131.4459 135.8582
L131.3507 136.0487
" />
<path d="M131.3507 136.0487
L131.2554 136.1439
" />
<path d="M131.2554 136.1439
L131.0649 136.2392
" />
<path d="M131.0649 136.2392
L130.5888 136.2392
" />
<path d="M130.5888 136.2392
L130.3983 136.1439
" />
<path d="M130.3983 136.1439
L130.3030 136.0487
" />
<path d="M133.3507 136.2392
L132.2078 136.2392
" />
<path d="M132.7792 136.2392
L132.7792 134.2392
" />
<path d="M132.7792 134.2392
L132.5888 134.5249
" />
<path d="M132.5888 134.5249
L132.3983 134.7153
" />
<path d="M132.3983 134.7153
L132.2078 134.8106
" />
<path d="M134.1126 134.2392
L134.1126 134.6201
" />
<path d="M134.8745 134.2392
L134.8745 134.6201
" />
<path d="M137.8268 137.0011
L137.7316 136.9058
" />
<path d="M137.7316 136.9058
L137.5411 136.6201
" />
<path d="M137.5411 136.6201
L137.4459 136.4296
" />
<path d="M137.4459 136.4296
L137.3507 136.1439
" />
<path d="M137.3507 136.1439
L137.2554 135.6677
" />
<path d="M137.2554 135.6677
L137.2554 135.2868
" />
<path d="M137.2554 135.2868
L137.3507 134.8106
" />
<path d="M137.3507 134.8106
L137.4459 134.5249
" />
<path d="M137.4459 134.5249
L137.5411 134.3344
" />
<path d="M137.5411 134.3344
L137.7316 134.0487
" />
<path d="M137.7316 134.0487
L137.8268 133.9534
" />
<path d="M139.6364 136.2392
L138.4935 136.2392
" />
<path d="M139.0649 136.2392
L139.0649 134.2392
" />
<path d="M139.0649 134.2392
L138.8745 134.5249
" />
<path d="M138.8745 134.5249
L138.6840 134.7153
" />
<path d="M138.6840 134.7153
L138.4935 134.8106
" />
<path d="M140.8745 134.2392
L141.0649 134.2392
" />
<path d="M141.0649 134.2392
L141.2554 134.3344
" />
<path d="M141.2554 134.3344
L141.3507 134.4296
" />
<path d="M141.3507 134.4296
L141.4459 134.6201
" />
<path d="M141.4459 134.6201
L141.5411 135.0011
" />
<path d="M141.5411 135.0011
L141.5411 135.4773
" />
<path d="M141.5411 135.4773
L141.4459 135.8582
" />
<path d="M141.4459 135.8582
L141.3507 136.0487
" />
<path d="M141.3507 136.0487
L141.2554 136.1439
" />
<path d="M141.2554 136.1439
L141.0649 136.2392
" />
<path d="M141.0649 136.2392
L140.8745 136.2392
" />
<path d="M140.8745 136.2392
L140.6840 136.1439
" />
<path d="M140.6840 136.1439
L140.5887 136.0487
" />
<path d="M140.5887 136.0487
L140.4935 135.8582
" />
<path d="M140.4935 135.8582
L140.3983 135.4773
" />
<path d="M140.3983 135.4773
L140.3983 135.0011
" />
<path d="M140.3983 135.0011
L140.4935 134.6201
" />
<path d="M140.4935 134.6201
L140.5887 134.4296
" />
<path d="M140.5887 134.4296
L140.6840 134.3344
" />
<path d="M140.6840 134.3344
L140.8745 134.2392
" />
<path d="M143.9221 136.2392
L143.9221 134.2392
" />
<path d="M144.7792 136.2392
L144.7792 135.1915
" />
<path d="M144.7792 135.1915
L144.6840 135.0011
" />
<path d="M144.6840 135.0011
L144.4935 134.9058
" />
<path d="M144.4935 134.9058
L144.2078 134.9058
" />
<path d="M144.2078 134.9058
L144.0173 135.0011
" />
<path d="M144.0173 135.0011
L143.9221 135.0963
" />
<path d="M146.0173 136.2392
L145.8268 136.1439
" />
<path d="M145.8268 136.1439
L145.7316 136.0487
" />
<path d="M145.7316 136.0487
L145.6364 135.8582
" />
<path d="M145.6364 135.8582
L145.6364 135.2868
" />
<path d="M145.6364 135.2868
L145.7316 135.0963
" />
<path d="M145.7316 135.0963
L145.8268 135.0011
" />
<path d="M145.8268 135.0011
L146.0173 134.9058
" />
<path d="M146.0173 134.9058
L146.3030 134.9058
" />
<path d="M146.3030 134.9058
L146.4935 135.0011
" />
<path d="M146.4935 135.0011
L146.5888 135.0963
" />
<path d="M146.5888 135.0963
L146.6840 135.2868
" />
<path d="M146.6840 135.2868
L146.6840 135.8582
" />
<path d="M146.6840 135.8582
L146.5888 136.0487
" />
<path d="M146.5888 136.0487
L146.4935 136.1439
" />
<path d="M146.4935 136.1439
L146.3030 136.2392
" />
<path d="M146.3030 136.2392
L146.0173 136.2392
" />
<path d="M147.8268 136.2392
L147.6364 136.1439
" />
<path d="M147.6364 136.1439
L147.5411 135.9534
" />
<path d="M147.5411 135.9534
L147.5411 134.2392
" />
<path d="M149.3507 136.1439
L149.1602 136.2392
" />
<path d="M149.1602 136.2392
L148.7792 136.2392
" />
<path d="M148.7792 136.2392
L148.5887 136.1439
" />
<path d="M148.5887 136.1439
L148.4935 135.9534
" />
<path d="M148.4935 135.9534
L148.4935 135.1915
" />
<path d="M148.4935 135.1915
L148.5887 135.0011
" />
<path d="M148.5887 135.0011
L148.7792 134.9058
" />
<path d="M148.7792 134.9058
L149.1602 134.9058
" />
<path d="M149.1602 134.9058
L149.3507 135.0011
" />
<path d="M149.3507 135.0011
L149.4459 135.1915
" />
<path d="M149.4459 135.1915
L149.4459 135.3820
" />
<path d="M149.4459 135.3820
L148.4935 135.5725
" />
<path d="M150.2078 136.1439
L150.3983 136.2392
" />
<path d="M150.3983 136.2392
L150.7792 136.2392
" />
<path d="M150.7792 136.2392
L150.9697 136.1439
" />
<path d="M150.9697 136.1439
L151.0649 135.9534
" />
<path d="M151.0649 135.9534
L151.0649 135.8582
" />
<path d="M151.0649 135.8582
L150.9697 135.6677
" />
<path d="M150.9697 135.6677
L150.7792 135.5725
" />
<path d="M150.7792 135.5725
L150.4935 135.5725
" />
<path d="M150.4935 135.5725
L150.3030 135.4773
" />
<path d="M150.3030 135.4773
L150.2078 135.2868
" />
<path d="M150.2078 135.2868
L150.2078 135.1915
" />
<path d="M150.2078 135.1915
L150.3030 135.0011
" />
<path d="M150.3030 135.0011
L150.4935 134.9058
" />
<path d="M150.4935 134.9058
L150.7792 134.9058
" />
<path d="M150.7792 134.9058
L150.9697 135.0011
" />
<path d="M151.7316 137.0011
L151.8268 136.9058
" />
<path d="M151.8268 136.9058
L152.0173 136.6201
" />
<path d="M152.0173 136.6201
L152.1126 136.4296
" />
<path d="M152.1126 136.4296
L152.2078 136.1439
" />
<path d="M152.2078 136.1439
L152.3030 135.6677
" />
<path d="M152.3030 135.6677
L152.3030 135.2868
" />
<path d="M152.3030 135.2868
L152.2078 134.8106
" />
<path d="M152.2078 134.8106
L152.1126 134.5249
" />
<path d="M152.1126 134.5249
L152.0173 134.3344
" />
<path d="M152.0173 134.3344
L151.8268 134.0487
" />
<path d="M151.8268 134.0487
L151.7316 133.9534
" />
</g></g> 
</svg>
