M48
; DRILL file KiCad 10.0.3 date 2026-06-11T21:10:33
; FORMAT={-:-/ absolute / metric / decimal}
; #@! TF.CreationDate,2026-06-11T21:10:33+03:00
; #@! TF.GenerationSoftware,Kicad,Pcbnew,10.0.3
; #@! TF.FileFunction,Plated,1,2,PTH
FMAT,2
METRIC
; #@! TA.AperFunction,Plated,PTH,ViaDrill
T1C0.400
; #@! TA.AperFunction,Plated,PTH,ComponentDrill
T2C0.600
; #@! TA.AperFunction,Plated,PTH,ComponentDrill
T3C1.295
; #@! TA.AperFunction,Plated,PTH,ComponentDrill
T4C1.300
; #@! TA.AperFunction,Plated,PTH,ComponentDrill
T5C1.400
; #@! TA.AperFunction,Plated,PTH,ComponentDrill
T6C1.550
; #@! TA.AperFunction,Plated,PTH,ComponentDrill
T7C2.200
; #@! TA.AperFunction,Plated,PTH,ComponentDrill
T8C4.300
%
G90
G05
T1
X-30.0Y21.5
X-30.0Y15.5
X-30.0Y14.5
X-30.0Y13.5
X-30.0Y12.5
X-30.0Y11.5
X-30.0Y10.5
X-30.0Y9.5
X-30.0Y8.5
X-30.0Y7.5
X-30.0Y6.5
X-30.0Y5.5
X16.0Y36.0
X16.0Y34.0
X16.0Y22.0
X16.0Y20.0
X16.0Y8.0
X16.0Y6.0
X17.0Y35.0
X17.0Y21.0
X17.0Y7.0
X18.0Y36.0
X18.0Y34.0
X18.0Y22.0
X18.0Y20.0
X18.0Y8.0
X18.0Y6.0
X22.0Y14.9
T2
X-33.225Y45.0
X-33.225Y-45.0
X-32.28Y47.28
X-32.28Y42.72
X-32.28Y-42.72
X-32.28Y-47.28
X-30.0Y48.225
X-30.0Y41.775
X-30.0Y-41.775
X-30.0Y-48.225
X-27.72Y47.28
X-27.72Y42.72
X-27.72Y-42.72
X-27.72Y-47.28
X-26.775Y45.0
X-26.775Y-45.0
X13.775Y45.0
X13.775Y-45.0
X14.72Y47.28
X14.72Y42.72
X14.72Y-42.72
X14.72Y-47.28
X17.0Y48.225
X17.0Y41.775
X17.0Y-41.775
X17.0Y-48.225
X19.28Y47.28
X19.28Y42.72
X19.28Y-42.72
X19.28Y-47.28
X20.225Y45.0
X20.225Y-45.0
T3
X-20.398Y-45.5
X-10.348Y-39.0
X-7.598Y-0.5
X0.402Y-0.5
X0.402Y-39.0
X0.402Y-45.5
T4
X-3.0Y41.08
X-3.0Y38.54
X-3.0Y36.0
X-3.0Y27.08
X-3.0Y24.54
X-3.0Y22.0
X-3.0Y13.08
X-3.0Y10.54
X-3.0Y8.0
T5
X30.0Y25.5
X30.0Y22.0
X30.0Y18.5
X30.0Y15.0
X30.0Y11.5
X30.0Y7.0
X30.0Y3.5
X30.0Y0.0
X30.0Y-3.5
X30.0Y-7.0
X30.0Y-32.5
X30.0Y-36.0
X30.0Y-39.5
T6
X8.5Y-14.0
X8.5Y-34.0
X23.5Y-14.0
X23.5Y-34.0
T7
X8.0Y47.0
X8.0Y-47.0
X32.0Y47.0
X32.0Y-47.0
T8
X-30.0Y45.0
X-30.0Y-45.0
X17.0Y45.0
X17.0Y-45.0
M30
