<?xml version="1.0" standalone="no"?>
 <!DOCTYPE svg PUBLIC "-//W3C//DTD SVG 1.1//EN" 
 "http://www.w3.org/Graphics/SVG/1.1/DTD/svg11.dtd"> 
<svg
  xmlns:svg="http://www.w3.org/2000/svg"
  xmlns="http://www.w3.org/2000/svg"
  xmlns:xlink="http://www.w3.org/1999/xlink"
  xmlns:inkscape="http://www.inkscape.org/namespaces/inkscape"
  version="1.1"
  width="297.0022mm" height="210.0072mm" viewBox="0.0000 0.0000 297.0022 210.0072">
<title>SVG Image created as PMPS-20W-NPTH-drl_map.svg date 2026-06-11T21:10:33 </title>
  <desc>Image generated by PCBNEW </desc>
<g style="fill:#000000; fill-opacity:1.0000;stroke:#000000; stroke-opacity:1.0000;
stroke-linecap:round; stroke-linejoin:round;"
 transform="translate(0 0) scale(1 1)">
</g>
<g style="fill:none; 
stroke:#000000; stroke-width:0.2315; stroke-opacity:1; 
stroke-linecap:round; stroke-linejoin:round;">
<path d="M111.4538 5.1158 A3.4732 3.4732 0.0 0 0 107.9806 8.5890" />
<path d="M107.9806 117.4154
L107.9806 8.5890
" />
<path d="M111.4538 5.1158
L185.5484 5.1158
" />
<path d="M107.9806 117.4154 A3.4732 3.4732 0.0 0 0 111.4538 120.8885" />
<path d="M111.4538 120.8885
L185.5484 120.8885
" />
<path d="M189.0216 8.5890 A3.4732 3.4732 0.0 0 0 185.5484 5.1158" />
<path d="M189.0216 8.5890
L189.0216 117.4154
" />
<path d="M185.5484 120.8885 A3.4732 3.4732 0.0 0 0 189.0216 117.4154" />
</g>
<g style="fill:none; 
stroke:#000000; stroke-width:0.0579; stroke-opacity:1; 
stroke-linecap:round; stroke-linejoin:round;">
<circle cx="167.0247" cy="102.3649" r="1.5050" /> 
<circle cx="167.0247" cy="79.2103" r="1.5050" /> 
</g>
<g style="fill:none; 
stroke:#000000; stroke-width:0.2000; stroke-opacity:1; 
stroke-linecap:round; stroke-linejoin:round;">
<text x="109.8649" y="124.2043"
textLength="14.8667" font-size="2.6667" lengthAdjust="spacingAndGlyphs"
text-anchor="start" opacity="0" stroke-opacity="0">Drill Map:</text>
<g class="stroked-text"><desc>Drill Map:</desc>
<path d="M110.4726 124.1192
L110.4726 122.1192
" />
<path d="M110.4726 122.1192
L110.9488 122.1192
" />
<path d="M110.9488 122.1192
L111.2345 122.2144
" />
<path d="M111.2345 122.2144
L111.4250 122.4049
" />
<path d="M111.4250 122.4049
L111.5202 122.5953
" />
<path d="M111.5202 122.5953
L111.6155 122.9763
" />
<path d="M111.6155 122.9763
L111.6155 123.2620
" />
<path d="M111.6155 123.2620
L111.5202 123.6430
" />
<path d="M111.5202 123.6430
L111.4250 123.8334
" />
<path d="M111.4250 123.8334
L111.2345 124.0239
" />
<path d="M111.2345 124.0239
L110.9488 124.1192
" />
<path d="M110.9488 124.1192
L110.4726 124.1192
" />
<path d="M112.4726 124.1192
L112.4726 122.7858
" />
<path d="M112.4726 123.1668
L112.5679 122.9763
" />
<path d="M112.5679 122.9763
L112.6631 122.8811
" />
<path d="M112.6631 122.8811
L112.8536 122.7858
" />
<path d="M112.8536 122.7858
L113.0441 122.7858
" />
<path d="M113.7107 124.1192
L113.7107 122.7858
" />
<path d="M113.7107 122.1192
L113.6155 122.2144
" />
<path d="M113.6155 122.2144
L113.7107 122.3096
" />
<path d="M113.7107 122.3096
L113.8060 122.2144
" />
<path d="M113.8060 122.2144
L113.7107 122.1192
" />
<path d="M113.7107 122.1192
L113.7107 122.3096
" />
<path d="M114.9488 124.1192
L114.7583 124.0239
" />
<path d="M114.7583 124.0239
L114.6631 123.8334
" />
<path d="M114.6631 123.8334
L114.6631 122.1192
" />
<path d="M115.9964 124.1192
L115.8060 124.0239
" />
<path d="M115.8060 124.0239
L115.7107 123.8334
" />
<path d="M115.7107 123.8334
L115.7107 122.1192
" />
<path d="M118.2821 124.1192
L118.2821 122.1192
" />
<path d="M118.2821 122.1192
L118.9488 123.5477
" />
<path d="M118.9488 123.5477
L119.6155 122.1192
" />
<path d="M119.6155 122.1192
L119.6155 124.1192
" />
<path d="M121.4250 124.1192
L121.4250 123.0715
" />
<path d="M121.4250 123.0715
L121.3298 122.8811
" />
<path d="M121.3298 122.8811
L121.1393 122.7858
" />
<path d="M121.1393 122.7858
L120.7583 122.7858
" />
<path d="M120.7583 122.7858
L120.5679 122.8811
" />
<path d="M121.4250 124.0239
L121.2345 124.1192
" />
<path d="M121.2345 124.1192
L120.7583 124.1192
" />
<path d="M120.7583 124.1192
L120.5679 124.0239
" />
<path d="M120.5679 124.0239
L120.4726 123.8334
" />
<path d="M120.4726 123.8334
L120.4726 123.6430
" />
<path d="M120.4726 123.6430
L120.5679 123.4525
" />
<path d="M120.5679 123.4525
L120.7583 123.3573
" />
<path d="M120.7583 123.3573
L121.2345 123.3573
" />
<path d="M121.2345 123.3573
L121.4250 123.2620
" />
<path d="M122.3774 122.7858
L122.3774 124.7858
" />
<path d="M122.3774 122.8811
L122.5679 122.7858
" />
<path d="M122.5679 122.7858
L122.9488 122.7858
" />
<path d="M122.9488 122.7858
L123.1393 122.8811
" />
<path d="M123.1393 122.8811
L123.2345 122.9763
" />
<path d="M123.2345 122.9763
L123.3298 123.1668
" />
<path d="M123.3298 123.1668
L123.3298 123.7382
" />
<path d="M123.3298 123.7382
L123.2345 123.9287
" />
<path d="M123.2345 123.9287
L123.1393 124.0239
" />
<path d="M123.1393 124.0239
L122.9488 124.1192
" />
<path d="M122.9488 124.1192
L122.5679 124.1192
" />
<path d="M122.5679 124.1192
L122.3774 124.0239
" />
<path d="M124.1869 123.9287
L124.2821 124.0239
" />
<path d="M124.2821 124.0239
L124.1869 124.1192
" />
<path d="M124.1869 124.1192
L124.0917 124.0239
" />
<path d="M124.0917 124.0239
L124.1869 123.9287
" />
<path d="M124.1869 123.9287
L124.1869 124.1192
" />
<path d="M124.1869 122.8811
L124.2821 122.9763
" />
<path d="M124.2821 122.9763
L124.1869 123.0715
" />
<path d="M124.1869 123.0715
L124.0917 122.9763
" />
<path d="M124.0917 122.9763
L124.1869 122.8811
" />
<path d="M124.1869 122.8811
L124.1869 123.0715
" />
</g></g> 
</svg>
