%TF.GenerationSoftware,KiCad,Pcbnew,9.0.0*%
%TF.CreationDate,2025-03-09T10:14:36+03:00*%
%TF.ProjectId,PM_LED-18,504d5f4c-4544-42d3-9138-2e6b69636164,rev?*%
%TF.SameCoordinates,Original*%
%TF.FileFunction,Plated,1,2,PTH,Drill*%
%TF.FilePolarity,Positive*%
%FSLAX46Y46*%
G04 Gerber Fmt 4.6, Leading zero omitted, Abs format (unit mm)*
G04 Created by KiCad (PCBNEW 9.0.0) date 2025-03-09 10:14:36*
%MOMM*%
%LPD*%
G01*
G04 APERTURE LIST*
%TA.AperFunction,ViaDrill*%
%ADD10C,0.400000*%
%TD*%
G04 APERTURE END LIST*
D10*
X-11000000Y35500000D03*
X-11000000Y34500000D03*
X-11000000Y33500000D03*
X-11000000Y32500000D03*
X-11000000Y31500000D03*
X-11000000Y30500000D03*
X-11000000Y29500000D03*
X-11000000Y28500000D03*
X-11000000Y27500000D03*
X-11000000Y24500000D03*
X-11000000Y15500000D03*
X-11000000Y14500000D03*
X-11000000Y13500000D03*
X-11000000Y12500000D03*
X-11000000Y11500000D03*
X-11000000Y10500000D03*
X-11000000Y9500000D03*
X-11000000Y8500000D03*
X-11000000Y7500000D03*
X-11000000Y4500000D03*
X-11000000Y-4500000D03*
X-11000000Y-5500000D03*
X-11000000Y-6500000D03*
X-11000000Y-7500000D03*
X-11000000Y-8500000D03*
X-11000000Y-9500000D03*
X-11000000Y-10500000D03*
X-11000000Y-11500000D03*
X-11000000Y-12500000D03*
X-11000000Y-13500000D03*
X-11000000Y-14500000D03*
X-11000000Y-15500000D03*
X-11000000Y-24500000D03*
X-11000000Y-25500000D03*
X-11000000Y-26500000D03*
X-11000000Y-27500000D03*
X-11000000Y-28500000D03*
X-11000000Y-29500000D03*
X-11000000Y-30500000D03*
X-11000000Y-31500000D03*
X-11000000Y-32500000D03*
X-11000000Y-33500000D03*
X-11000000Y-34500000D03*
X-11000000Y-35500000D03*
X-6000000Y34500000D03*
X-6000000Y14500000D03*
X-6000000Y-5500000D03*
X-6000000Y-25500000D03*
X-5000000Y33500000D03*
X-5000000Y13500000D03*
X-5000000Y-6500000D03*
X-5000000Y-26500000D03*
X-4000000Y32500000D03*
X-4000000Y12500000D03*
X-4000000Y-7500000D03*
X-4000000Y-27500000D03*
X-3000000Y31500000D03*
X-3000000Y11500000D03*
X-3000000Y-8500000D03*
X-3000000Y-28500000D03*
X-2000000Y30500000D03*
X-2000000Y10500000D03*
X-2000000Y-9500000D03*
X-2000000Y-29500000D03*
X-1000000Y29500000D03*
X-1000000Y9500000D03*
X-1000000Y-10500000D03*
X-1000000Y-30500000D03*
X0Y28500000D03*
X0Y8500000D03*
X0Y-11500000D03*
X0Y-31500000D03*
X1000000Y27500000D03*
X1000000Y7500000D03*
X1000000Y-12500000D03*
X1000000Y-32500000D03*
X2000000Y-13500000D03*
X2000000Y-33500000D03*
X3000000Y-14500000D03*
X3000000Y-34500000D03*
X6500000Y36750000D03*
X6500000Y33250000D03*
X6500000Y29750000D03*
X6500000Y26250000D03*
X6500000Y22750000D03*
X6500000Y19250000D03*
X6500000Y15750000D03*
X6500000Y12250000D03*
X6500000Y750000D03*
X6500000Y-2750000D03*
X6500000Y-6250000D03*
X6500000Y-9750000D03*
X6500000Y-13250000D03*
X6500000Y-16750000D03*
X6500000Y-20250000D03*
X6500000Y-23750000D03*
X6500000Y-37250000D03*
X6500000Y-40750000D03*
M02*
