%TF.GenerationSoftware,KiCad,Pcbnew,8.0.6-8.0.6-0~ubuntu24.04.1*%
%TF.CreationDate,2024-10-27T19:43:51+03:00*%
%TF.ProjectId,PM-Keybard,504d2d4b-6579-4626-9172-642e6b696361,rev?*%
%TF.SameCoordinates,Original*%
%TF.FileFunction,Copper,L2,Bot*%
%TF.FilePolarity,Positive*%
%FSLAX46Y46*%
G04 Gerber Fmt 4.6, Leading zero omitted, Abs format (unit mm)*
G04 Created by KiCad (PCBNEW 8.0.6-8.0.6-0~ubuntu24.04.1) date 2024-10-27 19:43:51*
%MOMM*%
%LPD*%
G01*
G04 APERTURE LIST*
G04 Aperture macros list*
%AMRoundRect*
0 Rectangle with rounded corners*
0 $1 Rounding radius*
0 $2 $3 $4 $5 $6 $7 $8 $9 X,Y pos of 4 corners*
0 Add a 4 corners polygon primitive as box body*
4,1,4,$2,$3,$4,$5,$6,$7,$8,$9,$2,$3,0*
0 Add four circle primitives for the rounded corners*
1,1,$1+$1,$2,$3*
1,1,$1+$1,$4,$5*
1,1,$1+$1,$6,$7*
1,1,$1+$1,$8,$9*
0 Add four rect primitives between the rounded corners*
20,1,$1+$1,$2,$3,$4,$5,0*
20,1,$1+$1,$4,$5,$6,$7,0*
20,1,$1+$1,$6,$7,$8,$9,0*
20,1,$1+$1,$8,$9,$2,$3,0*%
G04 Aperture macros list end*
%TA.AperFunction,ComponentPad*%
%ADD10O,6.350000X6.350000*%
%TD*%
%TA.AperFunction,SMDPad,CuDef*%
%ADD11RoundRect,0.150000X-0.875000X-0.150000X0.875000X-0.150000X0.875000X0.150000X-0.875000X0.150000X0*%
%TD*%
%TA.AperFunction,SMDPad,CuDef*%
%ADD12R,1.803400X0.635000*%
%TD*%
%TA.AperFunction,SMDPad,CuDef*%
%ADD13R,2.997200X2.590800*%
%TD*%
%TA.AperFunction,ViaPad*%
%ADD14C,0.600000*%
%TD*%
%TA.AperFunction,Conductor*%
%ADD15C,0.200000*%
%TD*%
G04 APERTURE END LIST*
D10*
%TO.P,PE1,1*%
%TO.N,unconnected-(PE1-Pad1)*%
X32000000Y-46000000D03*
%TD*%
D11*
%TO.P,U1,1,GPB0*%
%TO.N,/C0*%
X35350000Y-8255000D03*
%TO.P,U1,2,GPB1*%
%TO.N,/C1*%
X35350000Y-6985000D03*
%TO.P,U1,3,GPB2*%
%TO.N,/C2*%
X35350000Y-5715000D03*
%TO.P,U1,4,GPB3*%
%TO.N,/C3*%
X35350000Y-4445000D03*
%TO.P,U1,5,GPB4*%
%TO.N,/C4*%
X35350000Y-3175000D03*
%TO.P,U1,6,GPB5*%
%TO.N,/C5*%
X35350000Y-1905000D03*
%TO.P,U1,7,GPB6*%
%TO.N,/C6*%
X35350000Y-635000D03*
%TO.P,U1,8,GPB7*%
%TO.N,/C7*%
X35350000Y635000D03*
%TO.P,U1,9,VDD*%
%TO.N,+3.3V*%
X35350000Y1905000D03*
%TO.P,U1,10,VSS*%
%TO.N,GND*%
X35350000Y3175000D03*
%TO.P,U1,11,~{CS}*%
%TO.N,/CS*%
X35350000Y4445000D03*
%TO.P,U1,12,SCK*%
%TO.N,/SCK*%
X35350000Y5715000D03*
%TO.P,U1,13,SI*%
%TO.N,/MOSI*%
X35350000Y6985000D03*
%TO.P,U1,14,SO*%
%TO.N,/MISO*%
X35350000Y8255000D03*
%TO.P,U1,15,A0*%
%TO.N,GND*%
X44650000Y8255000D03*
%TO.P,U1,16,A1*%
X44650000Y6985000D03*
%TO.P,U1,17,A2*%
X44650000Y5715000D03*
%TO.P,U1,18,~{RESET}*%
%TO.N,+3.3V*%
X44650000Y4445000D03*
%TO.P,U1,19,INTB*%
%TO.N,unconnected-(U1-INTB-Pad19)*%
X44650000Y3175000D03*
%TO.P,U1,20,INTA*%
%TO.N,unconnected-(U1-INTA-Pad20)*%
X44650000Y1905000D03*
%TO.P,U1,21,GPA0*%
%TO.N,/R0*%
X44650000Y635000D03*
%TO.P,U1,22,GPA1*%
%TO.N,/R1*%
X44650000Y-635000D03*
%TO.P,U1,23,GPA2*%
%TO.N,/R2*%
X44650000Y-1905000D03*
%TO.P,U1,24,GPA3*%
%TO.N,/R3*%
X44650000Y-3175000D03*
%TO.P,U1,25,GPA4*%
%TO.N,/R4*%
X44650000Y-4445000D03*
%TO.P,U1,26,GPA5*%
%TO.N,/R5*%
X44650000Y-5715000D03*
%TO.P,U1,27,GPA6*%
%TO.N,/R6*%
X44650000Y-6985000D03*
%TO.P,U1,28,GPA7*%
%TO.N,/R7*%
X44650000Y-8255000D03*
%TD*%
D12*
%TO.P,J1,1,Pin_1*%
%TO.N,GND*%
X13556000Y20500009D03*
%TO.P,J1,2,Pin_2*%
%TO.N,unconnected-(J1-Pin_2-Pad2)*%
X13556000Y21500007D03*
%TO.P,J1,3,Pin_3*%
%TO.N,unconnected-(J1-Pin_3-Pad3)*%
X13556000Y22500005D03*
%TO.P,J1,4,Pin_4*%
%TO.N,unconnected-(J1-Pin_4-Pad4)*%
X13556000Y23500003D03*
%TO.P,J1,5,Pin_5*%
%TO.N,/CS*%
X13556000Y24500001D03*
%TO.P,J1,6,Pin_6*%
%TO.N,/SCK*%
X13556000Y25499999D03*
%TO.P,J1,7,Pin_7*%
%TO.N,/MISO*%
X13556000Y26499997D03*
%TO.P,J1,8,Pin_8*%
%TO.N,/MOSI*%
X13556000Y27499995D03*
%TO.P,J1,9,Pin_9*%
%TO.N,+3.3V*%
X13556000Y28499993D03*
%TO.P,J1,10,Pin_10*%
%TO.N,unconnected-(J1-Pin_10-Pad10)*%
X13556000Y29499991D03*
D13*
%TO.P,J1,11*%
%TO.N,N/C*%
X11385999Y18149998D03*
%TO.P,J1,12*%
X11385999Y31850002D03*
%TD*%
D14*
%TO.N,/R0*%
X46383700Y33824200D03*
%TO.N,/C0*%
X34168900Y-9034800D03*
%TO.N,/R1*%
X3900000Y28400000D03*
X36198900Y25160200D03*
X-9500000Y27600000D03*
%TO.N,/R2*%
X-8050400Y16229500D03*
X42400800Y-94500D03*
X-18177100Y15988900D03*
%TO.N,/R3*%
X-22058600Y14040800D03*
X42266000Y-1800200D03*
X-18000200Y7757800D03*
%TO.N,/R4*%
X-28289800Y-4008800D03*
X43095500Y-3807700D03*
X-18171900Y-2231300D03*
%TO.N,/R5*%
X41862500Y-8655200D03*
%TO.N,/R6*%
X43019500Y-9289200D03*
%TO.N,/R7*%
X44650000Y-30882200D03*
%TO.N,/C1*%
X-22058600Y-15951400D03*
X33422500Y-7959400D03*
X-22058600Y-4891800D03*
%TO.N,/C2*%
X-4411400Y-16192300D03*
X-4411400Y-7959400D03*
X25264800Y-7959400D03*
%TO.N,/C3*%
X-3000600Y-7216300D03*
X-2000000Y2226200D03*
X-1471800Y-15599800D03*
X34017000Y-6350000D03*
%TO.N,/C4*%
X33022600Y-5624300D03*
X6693800Y13624400D03*
X1471000Y-15601400D03*
X1471000Y-4894800D03*
%TO.N,/C5*%
X23897900Y-6241900D03*
X30458600Y-6253100D03*
X23897900Y-17956200D03*
X33310900Y-451600D03*
X19356700Y13439000D03*
%TO.N,/C6*%
X28509300Y-15963800D03*
X33339000Y902700D03*
X26988000Y-6875000D03*
%TO.N,/C7*%
X37389800Y1160000D03*
%TD*%
D15*
%TO.N,/R0*%
X44650000Y635000D02*
X45632300Y635000D01*
X46383700Y1386400D02*
X46383700Y33824200D01*
X45632300Y635000D02*
X46383700Y1386400D01*
%TO.N,/C0*%
X34570200Y-9034800D02*
X34168900Y-9034800D01*
X35350000Y-8255000D02*
X34570200Y-9034800D01*
%TO.N,/R1*%
X43584800Y1237300D02*
X45666600Y1237300D01*
X3057700Y27557700D02*
X3900000Y28400000D01*
X45666600Y1237300D02*
X45982000Y1552700D01*
X-9457700Y27557700D02*
X3057700Y27557700D01*
X-9500000Y27600000D02*
X-9457700Y27557700D01*
X44253400Y-635000D02*
X43251400Y367000D01*
X45982000Y15377100D02*
X36198900Y25160200D01*
X43251400Y903900D02*
X43584800Y1237300D01*
X43251400Y367000D02*
X43251400Y903900D01*
X45982000Y1552700D02*
X45982000Y15377100D01*
X44650000Y-635000D02*
X44253400Y-635000D01*
%TO.N,/R2*%
X44650000Y-1905000D02*
X44211300Y-1905000D01*
X44211300Y-1905000D02*
X42400800Y-94500D01*
X-8050400Y16229500D02*
X-8291000Y15988900D01*
X-8291000Y15988900D02*
X-18177100Y15988900D01*
%TO.N,/R3*%
X42266000Y-1800200D02*
X43640800Y-3175000D01*
X43640800Y-3175000D02*
X44650000Y-3175000D01*
X-22058600Y14040800D02*
X-22058600Y11816200D01*
X-22058600Y11816200D02*
X-18000200Y7757800D01*
%TO.N,/R4*%
X44650000Y-4445000D02*
X43732800Y-4445000D01*
X43732800Y-4445000D02*
X43095500Y-3807700D01*
X-18171900Y-2231300D02*
X-19949400Y-4008800D01*
X-19949400Y-4008800D02*
X-28289800Y-4008800D01*
%TO.N,/R5*%
X44650000Y-5715000D02*
X44129300Y-5715000D01*
X41862500Y-7981800D02*
X41862500Y-8655200D01*
X44129300Y-5715000D02*
X41862500Y-7981800D01*
%TO.N,/R6*%
X43019500Y-8205100D02*
X43019500Y-9289200D01*
X44650000Y-6985000D02*
X44239600Y-6985000D01*
X44239600Y-6985000D02*
X43019500Y-8205100D01*
%TO.N,/R7*%
X44650000Y-8255000D02*
X44650000Y-30882200D01*
%TO.N,/C1*%
X-22058600Y-15951400D02*
X-22058600Y-4891800D01*
X34396900Y-6985000D02*
X33422500Y-7959400D01*
X35350000Y-6985000D02*
X34396900Y-6985000D01*
%TO.N,/C2*%
X35350000Y-5715000D02*
X33792100Y-5715000D01*
X33792100Y-5715000D02*
X31547700Y-7959400D01*
X31547700Y-7959400D02*
X25264800Y-7959400D01*
X-4411400Y-16192300D02*
X-4411400Y-7959400D01*
%TO.N,+3.3V*%
X38902500Y1905000D02*
X35350000Y1905000D01*
X13556000Y28500000D02*
X12352600Y28500000D01*
X12584300Y19747100D02*
X12352600Y19978800D01*
X44650000Y4445000D02*
X41442500Y4445000D01*
X14206400Y19747100D02*
X12584300Y19747100D01*
X12352600Y19978800D02*
X12352600Y28500000D01*
X35350000Y1905000D02*
X32048500Y1905000D01*
X41442500Y4445000D02*
X38902500Y1905000D01*
X32048500Y1905000D02*
X14206400Y19747100D01*
%TO.N,GND*%
X13556000Y20500000D02*
X14759400Y20500000D01*
X35350000Y3175000D02*
X32084400Y3175000D01*
X38546400Y3175000D02*
X35350000Y3175000D01*
X44650000Y6985000D02*
X44650000Y8255000D01*
X41086400Y5715000D02*
X38546400Y3175000D01*
X44650000Y5715000D02*
X41086400Y5715000D01*
X32084400Y3175000D02*
X14759400Y20500000D01*
X44650000Y5715000D02*
X44650000Y6985000D01*
%TO.N,/SCK*%
X13556000Y25500000D02*
X14759400Y25500000D01*
X14759400Y25500000D02*
X34544400Y5715000D01*
X34544400Y5715000D02*
X35350000Y5715000D01*
%TO.N,/CS*%
X13556000Y24500000D02*
X14759400Y24500000D01*
X14759400Y24500000D02*
X34814400Y4445000D01*
X34814400Y4445000D02*
X35350000Y4445000D01*
%TO.N,/MOSI*%
X35808600Y6985000D02*
X36696100Y7872500D01*
X35350000Y6985000D02*
X35808600Y6985000D01*
X17793600Y27500000D02*
X13556000Y27500000D01*
X36696100Y8597500D02*
X17793600Y27500000D01*
X36696100Y7872500D02*
X36696100Y8597500D01*
%TO.N,/C3*%
X-2000000Y2226200D02*
X-2000000Y-6215700D01*
X-2000000Y-6215700D02*
X-3000600Y-7216300D01*
X36429800Y-6350000D02*
X34017000Y-6350000D01*
X-1471800Y-8745100D02*
X-1471800Y-15599800D01*
X35350000Y-4445000D02*
X35801100Y-4445000D01*
X36695300Y-5339200D02*
X36695300Y-6084500D01*
X35801100Y-4445000D02*
X36695300Y-5339200D01*
X-3000600Y-7216300D02*
X-1471800Y-8745100D01*
X36695300Y-6084500D02*
X36429800Y-6350000D01*
%TO.N,/MISO*%
X17105000Y26500000D02*
X35350000Y8255000D01*
X13556000Y26500000D02*
X17105000Y26500000D01*
%TO.N,/C4*%
X6693800Y328000D02*
X6693800Y13624400D01*
X33022600Y-5066000D02*
X33022600Y-5624300D01*
X34913600Y-3175000D02*
X33022600Y-5066000D01*
X1471000Y-4894800D02*
X6693800Y328000D01*
X35350000Y-3175000D02*
X34913600Y-3175000D01*
X1471000Y-4894800D02*
X1471000Y-15601400D01*
%TO.N,/C5*%
X35350000Y-1905000D02*
X34764300Y-1905000D01*
X34764300Y-1905000D02*
X33310900Y-451600D01*
X23897900Y-6241900D02*
X23897900Y-17956200D01*
X30458600Y-3303900D02*
X30458600Y-6253100D01*
X19356700Y-1700700D02*
X19356700Y13439000D01*
X33310900Y-451600D02*
X30458600Y-3303900D01*
X23897900Y-6241900D02*
X19356700Y-1700700D01*
%TO.N,/C6*%
X34876700Y-635000D02*
X33339000Y902700D01*
X35350000Y-635000D02*
X34876700Y-635000D01*
X25453200Y-6875000D02*
X24660100Y-7668100D01*
X24660100Y-7668100D02*
X24660100Y-12114600D01*
X24660100Y-12114600D02*
X28509300Y-15963800D01*
X26988000Y-5448300D02*
X26988000Y-6875000D01*
X33339000Y902700D02*
X26988000Y-5448300D01*
X26988000Y-6875000D02*
X25453200Y-6875000D01*
%TO.N,/C7*%
X35350000Y635000D02*
X36864800Y635000D01*
X36864800Y635000D02*
X37389800Y1160000D01*
%TD*%
M02*
