M48
; DRILL file {KiCad 9.0.2} date 2025-06-28T19:08:47+0300
; FORMAT={-:-/ absolute / metric / decimal}
; #@! TF.CreationDate,2025-06-28T19:08:47+03:00
; #@! TF.GenerationSoftware,Kicad,Pcbnew,9.0.2
; #@! TF.FileFunction,Plated,1,2,PTH
FMAT,2
METRIC
; #@! TA.AperFunction,Plated,PTH,ViaDrill
T1C0.300
; #@! TA.AperFunction,Plated,PTH,ViaDrill
T2C0.400
; #@! TA.AperFunction,Plated,PTH,ComponentDrill
T3C1.400
; #@! TA.AperFunction,Plated,PTH,ComponentDrill
T4C3.200
%
G90
G05
T1
X-34.0Y38.5
X-33.0Y40.0
X-31.5Y40.0
X-30.0Y40.0
X-29.6Y-4.0
X-29.6Y-6.4
X-28.0Y9.0
X-25.0Y14.0
X-24.5Y7.5
X-3.6Y3.2
X-3.6Y1.5
X-2.539Y6.461
X-2.25Y-2.0
X-1.25Y-2.0
X-0.5Y6.5
X-0.25Y-2.016
X0.5Y6.25
X2.193Y34.443
X2.2Y16.25
X2.2Y-12.35
X2.2Y-32.5
X2.85Y33.5
X2.85Y15.6
X2.85Y-11.7
X2.85Y-31.5
X3.5Y32.5
X3.5Y16.25
X3.5Y-12.35
X3.5Y-30.5
X4.1Y-29.5
X4.15Y31.5
X4.15Y15.6
X4.15Y-11.7
X4.8Y30.5
X4.8Y16.25
X4.8Y-12.35
X4.8Y-28.5
X5.4Y-27.375
X5.45Y29.5
X5.45Y15.6
X5.45Y-11.7
X6.1Y28.5
X6.1Y16.25
X6.1Y-12.35
X6.1Y-26.5
X6.7Y-25.425
X6.75Y27.5
X6.75Y15.6
X6.75Y-11.7
X10.787Y-14.922
X10.95Y20.7
T2
X-35.0Y29.5
X-35.0Y28.5
X-35.0Y27.5
X-35.0Y26.5
X-35.0Y25.5
X-35.0Y24.5
X-35.0Y23.5
X-35.0Y22.5
X-35.0Y21.5
X-35.0Y20.5
X-35.0Y19.5
X-35.0Y18.5
X-35.0Y17.5
X-35.0Y16.5
X-35.0Y15.5
X-35.0Y14.5
X-35.0Y13.5
X-35.0Y12.5
X-35.0Y11.5
X-35.0Y10.5
X-34.0Y27.5
X-34.0Y26.5
X-34.0Y25.5
X-34.0Y24.5
X-33.0Y27.5
X-33.0Y26.5
X-33.0Y25.5
X-33.0Y24.5
X-13.0Y-34.25
X-11.851Y30.883
X1.11Y-7.353
X8.374Y-15.399
X8.714Y20.572
T3
X35.0Y43.0
X35.0Y39.5
X35.0Y36.0
X35.0Y32.5
X35.0Y29.0
X35.0Y25.5
X35.0Y22.0
X35.0Y18.5
X35.0Y15.0
X35.0Y11.5
X35.0Y7.0
X35.0Y3.5
X35.0Y0.0
X35.0Y-3.5
X35.0Y-7.0
X35.0Y-10.5
X35.0Y-14.0
X35.0Y-17.5
X35.0Y-21.0
X35.0Y-24.5
X35.0Y-29.0
X35.0Y-32.5
X35.0Y-36.0
X35.0Y-39.5
X35.0Y-43.0
T4
X22.0Y-46.0
M30
