%TF.GenerationSoftware,KiCad,Pcbnew,10.0.3*%
%TF.CreationDate,2026-06-11T18:22:21+03:00*%
%TF.ProjectId,PMCNV-RQx8,504d434e-562d-4525-9178-382e6b696361,rev?*%
%TF.SameCoordinates,Original*%
%TF.FileFunction,Soldermask,Bot*%
%TF.FilePolarity,Negative*%
%FSLAX46Y46*%
G04 Gerber Fmt 4.6, Leading zero omitted, Abs format (unit mm)*
G04 Created by KiCad (PCBNEW 10.0.3) date 2026-06-11 18:22:21*
%MOMM*%
%LPD*%
G01*
G04 APERTURE LIST*
G04 Aperture macros list*
%AMRoundRect*
0 Rectangle with rounded corners*
0 $1 Rounding radius*
0 $2 $3 $4 $5 $6 $7 $8 $9 X,Y pos of 4 corners*
0 Add a 4 corners polygon primitive as box body*
4,1,4,$2,$3,$4,$5,$6,$7,$8,$9,$2,$3,0*
0 Add four circle primitives for the rounded corners*
1,1,$1+$1,$2,$3*
1,1,$1+$1,$4,$5*
1,1,$1+$1,$6,$7*
1,1,$1+$1,$8,$9*
0 Add four rect primitives between the rounded corners*
20,1,$1+$1,$2,$3,$4,$5,0*
20,1,$1+$1,$4,$5,$6,$7,0*
20,1,$1+$1,$6,$7,$8,$9,0*
20,1,$1+$1,$8,$9,$2,$3,0*%
G04 Aperture macros list end*
%ADD10C,1.500000*%
%ADD11C,1.812000*%
%ADD12C,2.220000*%
%ADD13C,8.620000*%
%ADD14C,4.420000*%
%ADD15RoundRect,0.250000X0.650000X-0.325000X0.650000X0.325000X-0.650000X0.325000X-0.650000X-0.325000X0*%
%ADD16RoundRect,0.250000X1.100000X-0.325000X1.100000X0.325000X-1.100000X0.325000X-1.100000X-0.325000X0*%
%ADD17R,1.800000X0.600000*%
%ADD18R,3.000000X2.600000*%
G04 APERTURE END LIST*
%TO.C,JP6*%
G36*
X-18800000Y-29250000D02*
G01*
X-15200000Y-29250000D01*
X-15200000Y-30750000D01*
X-18800000Y-30750000D01*
X-18800000Y-29250000D01*
G37*
%TO.C,JP5*%
G36*
X-18800000Y-26750000D02*
G01*
X-15200000Y-26750000D01*
X-15200000Y-28250000D01*
X-18800000Y-28250000D01*
X-18800000Y-26750000D01*
G37*
%TO.C,JP7*%
G36*
X-18800000Y-31750000D02*
G01*
X-15200000Y-31750000D01*
X-15200000Y-33250000D01*
X-18800000Y-33250000D01*
X-18800000Y-31750000D01*
G37*
%TD*%
D10*
%TO.C,J12*%
X-4760000Y-40375000D03*
X-2220000Y-40375000D03*
X320000Y-40375000D03*
%TD*%
D11*
%TO.C,K4*%
X-15000000Y13800000D03*
X-3500000Y13800000D03*
X3500000Y13800000D03*
X-15000000Y18500000D03*
%TD*%
D12*
%TO.C,J4*%
X30000000Y-27000000D03*
X30000000Y-23500000D03*
X30000000Y-20000000D03*
X30000000Y-16500000D03*
X30000000Y-13000000D03*
X30000000Y-9500000D03*
X30000000Y-6000000D03*
X30000000Y-2500000D03*
%TD*%
D11*
%TO.C,K5*%
X-15000000Y6300000D03*
X-3500000Y6300000D03*
X3500000Y6300000D03*
X-15000000Y11000000D03*
%TD*%
%TO.C,K6*%
X-15000000Y-1200000D03*
X-3500000Y-1200000D03*
X3500000Y-1200000D03*
X-15000000Y3500000D03*
%TD*%
%TO.C,K8*%
X-15000000Y-16200000D03*
X-3500000Y-16200000D03*
X3500000Y-16200000D03*
X-15000000Y-11500000D03*
%TD*%
%TO.C,K1*%
X-15000000Y36300000D03*
X-3500000Y36300000D03*
X3500000Y36300000D03*
X-15000000Y41000000D03*
%TD*%
D13*
%TO.C,H2*%
X17000000Y45000000D03*
%TD*%
%TO.C,H3*%
X17000000Y-45000000D03*
%TD*%
D11*
%TO.C,K7*%
X-15000000Y-8700000D03*
X-3500000Y-8700000D03*
X3500000Y-8700000D03*
X-15000000Y-4000000D03*
%TD*%
%TO.C,K3*%
X-15000000Y21300000D03*
X-3500000Y21300000D03*
X3500000Y21300000D03*
X-15000000Y26000000D03*
%TD*%
%TO.C,K2*%
X-15000000Y28800000D03*
X-3500000Y28800000D03*
X3500000Y28800000D03*
X-15000000Y33500000D03*
%TD*%
D13*
%TO.C,H1*%
X-30000000Y45000000D03*
%TD*%
%TO.C,H4*%
X-30000000Y-45000000D03*
%TD*%
D12*
%TO.C,J2*%
X30000000Y2500000D03*
X30000000Y6000000D03*
X30000000Y9500000D03*
X30000000Y13000000D03*
X30000000Y16500000D03*
X30000000Y20000000D03*
X30000000Y23500000D03*
X30000000Y27000000D03*
%TD*%
D14*
%TO.C,SP3*%
X8000000Y47000000D03*
X8000000Y-47000000D03*
X32000000Y47000000D03*
X32000000Y-47000000D03*
%TD*%
D15*
%TO.C,C1*%
X0Y-35475000D03*
X0Y-32525000D03*
%TD*%
D16*
%TO.C,C4*%
X-5000000Y-35475000D03*
X-5000000Y-32525000D03*
%TD*%
D17*
%TO.C,J8*%
X-31546000Y24500000D03*
X-31546000Y23500000D03*
X-31546000Y22500000D03*
X-31546000Y21500000D03*
X-31546000Y20500000D03*
X-31546000Y19500000D03*
X-31546000Y18500000D03*
X-31546000Y17500000D03*
X-31546000Y16500000D03*
X-31546000Y15500000D03*
X-31546000Y14500000D03*
X-31546000Y13500000D03*
X-31546000Y12500000D03*
X-31546000Y11500000D03*
X-31546000Y10500000D03*
X-31546000Y9500000D03*
X-31546000Y8500000D03*
X-31546000Y7500000D03*
X-31546000Y6500000D03*
X-31546000Y5500000D03*
D18*
X-29375000Y26850000D03*
X-29375000Y3150000D03*
%TD*%
M02*
