%TF.GenerationSoftware,KiCad,Pcbnew,9.0.6*%
%TF.CreationDate,2025-12-01T21:17:04+03:00*%
%TF.ProjectId,PMCNV-DIx16,504d434e-562d-4444-9978-31362e6b6963,rev?*%
%TF.SameCoordinates,Original*%
%TF.FileFunction,Copper,L1,Top*%
%TF.FilePolarity,Positive*%
%FSLAX46Y46*%
G04 Gerber Fmt 4.6, Leading zero omitted, Abs format (unit mm)*
G04 Created by KiCad (PCBNEW 9.0.6) date 2025-12-01 21:17:04*
%MOMM*%
%LPD*%
G01*
G04 APERTURE LIST*
G04 Aperture macros list*
%AMRoundRect*
0 Rectangle with rounded corners*
0 $1 Rounding radius*
0 $2 $3 $4 $5 $6 $7 $8 $9 X,Y pos of 4 corners*
0 Add a 4 corners polygon primitive as box body*
4,1,4,$2,$3,$4,$5,$6,$7,$8,$9,$2,$3,0*
0 Add four circle primitives for the rounded corners*
1,1,$1+$1,$2,$3*
1,1,$1+$1,$4,$5*
1,1,$1+$1,$6,$7*
1,1,$1+$1,$8,$9*
0 Add four rect primitives between the rounded corners*
20,1,$1+$1,$2,$3,$4,$5,0*
20,1,$1+$1,$4,$5,$6,$7,0*
20,1,$1+$1,$6,$7,$8,$9,0*
20,1,$1+$1,$8,$9,$2,$3,0*%
%AMFreePoly0*
4,1,23,0.550000,-0.750000,0.000000,-0.750000,0.000000,-0.745722,-0.065263,-0.745722,-0.191342,-0.711940,-0.304381,-0.646677,-0.396677,-0.554381,-0.461940,-0.441342,-0.495722,-0.315263,-0.495722,-0.250000,-0.500000,-0.250000,-0.500000,0.250000,-0.495722,0.250000,-0.495722,0.315263,-0.461940,0.441342,-0.396677,0.554381,-0.304381,0.646677,-0.191342,0.711940,-0.065263,0.745722,0.000000,0.745722,
0.000000,0.750000,0.550000,0.750000,0.550000,-0.750000,0.550000,-0.750000,$1*%
%AMFreePoly1*
4,1,23,0.000000,0.745722,0.065263,0.745722,0.191342,0.711940,0.304381,0.646677,0.396677,0.554381,0.461940,0.441342,0.495722,0.315263,0.495722,0.250000,0.500000,0.250000,0.500000,-0.250000,0.495722,-0.250000,0.495722,-0.315263,0.461940,-0.441342,0.396677,-0.554381,0.304381,-0.646677,0.191342,-0.711940,0.065263,-0.745722,0.000000,-0.745722,0.000000,-0.750000,-0.550000,-0.750000,
-0.550000,0.750000,0.000000,0.750000,0.000000,0.745722,0.000000,0.745722,$1*%
G04 Aperture macros list end*
%TA.AperFunction,ComponentPad*%
%ADD10C,2.200000*%
%TD*%
%TA.AperFunction,ComponentPad*%
%ADD11C,0.700000*%
%TD*%
%TA.AperFunction,ComponentPad*%
%ADD12C,4.400000*%
%TD*%
%TA.AperFunction,ComponentPad*%
%ADD13C,0.900000*%
%TD*%
%TA.AperFunction,ComponentPad*%
%ADD14C,8.600000*%
%TD*%
%TA.AperFunction,SMDPad,CuDef*%
%ADD15RoundRect,0.200000X-0.200000X-0.275000X0.200000X-0.275000X0.200000X0.275000X-0.200000X0.275000X0*%
%TD*%
%TA.AperFunction,SMDPad,CuDef*%
%ADD16R,1.181100X0.558800*%
%TD*%
%TA.AperFunction,SMDPad,CuDef*%
%ADD17R,1.200000X0.400000*%
%TD*%
%TA.AperFunction,SMDPad,CuDef*%
%ADD18RoundRect,0.225000X0.225000X0.250000X-0.225000X0.250000X-0.225000X-0.250000X0.225000X-0.250000X0*%
%TD*%
%TA.AperFunction,SMDPad,CuDef*%
%ADD19R,0.431800X1.655601*%
%TD*%
%TA.AperFunction,SMDPad,CuDef*%
%ADD20R,1.803400X0.635000*%
%TD*%
%TA.AperFunction,SMDPad,CuDef*%
%ADD21R,2.997200X2.590800*%
%TD*%
%TA.AperFunction,SMDPad,CuDef*%
%ADD22R,1.800000X0.600000*%
%TD*%
%TA.AperFunction,SMDPad,CuDef*%
%ADD23R,3.000000X2.600000*%
%TD*%
%TA.AperFunction,SMDPad,CuDef*%
%ADD24FreePoly0,90.000000*%
%TD*%
%TA.AperFunction,SMDPad,CuDef*%
%ADD25R,1.500000X1.000000*%
%TD*%
%TA.AperFunction,SMDPad,CuDef*%
%ADD26FreePoly1,90.000000*%
%TD*%
%TA.AperFunction,ViaPad*%
%ADD27C,0.600000*%
%TD*%
%TA.AperFunction,ViaPad*%
%ADD28C,0.800000*%
%TD*%
%TA.AperFunction,Conductor*%
%ADD29C,0.600000*%
%TD*%
%TA.AperFunction,Conductor*%
%ADD30C,0.400000*%
%TD*%
%TA.AperFunction,Conductor*%
%ADD31C,1.000000*%
%TD*%
%TA.AperFunction,Conductor*%
%ADD32C,0.300000*%
%TD*%
%TA.AperFunction,Conductor*%
%ADD33C,0.200000*%
%TD*%
G04 APERTURE END LIST*
D10*
%TO.P,J6,1,Pin_1*%
%TO.N,PE*%
X32000000Y-40000000D03*
%TO.P,J6,2,Pin_2*%
%TO.N,GND_CNV*%
X32000000Y-36500000D03*
%TO.P,J6,3,Pin_3*%
%TO.N,L+_CNV*%
X32000000Y-33000000D03*
%TD*%
D11*
%TO.P,SP1,PE,PE*%
%TO.N,PE*%
X11350000Y45000000D03*
X11350000Y-45000000D03*
X11833274Y46166726D03*
X11833274Y43833274D03*
X11833274Y-43833274D03*
X11833274Y-46166726D03*
X13000000Y46650000D03*
D12*
X13000000Y45000000D03*
D11*
X13000000Y43350000D03*
X13000000Y-43350000D03*
D12*
X13000000Y-45000000D03*
D11*
X13000000Y-46650000D03*
X14166726Y46166726D03*
X14166726Y43833274D03*
X14166726Y-43833274D03*
X14166726Y-46166726D03*
X14650000Y45000000D03*
X14650000Y-45000000D03*
X35350000Y45000000D03*
X35350000Y-45000000D03*
X35833274Y46166726D03*
X35833274Y43833274D03*
X35833274Y-43833274D03*
X35833274Y-46166726D03*
X37000000Y46650000D03*
D12*
X37000000Y45000000D03*
D11*
X37000000Y43350000D03*
X37000000Y-43350000D03*
D12*
X37000000Y-45000000D03*
D11*
X37000000Y-46650000D03*
X38166726Y46166726D03*
X38166726Y43833274D03*
X38166726Y-43833274D03*
X38166726Y-46166726D03*
X38650000Y45000000D03*
X38650000Y-45000000D03*
%TD*%
%TO.P,U2,PE,PE*%
%TO.N,PE*%
X-38650000Y37000000D03*
X-38650000Y-37000000D03*
X-38166726Y38166726D03*
X-38166726Y35833274D03*
X-38166726Y-35833274D03*
X-38166726Y-38166726D03*
X-37000000Y38650000D03*
D12*
X-37000000Y37000000D03*
D11*
X-37000000Y35350000D03*
X-37000000Y-35350000D03*
D12*
X-37000000Y-37000000D03*
D11*
X-37000000Y-38650000D03*
X-35833274Y38166726D03*
X-35833274Y35833274D03*
X-35833274Y-35833274D03*
X-35833274Y-38166726D03*
X-35350000Y37000000D03*
X-35350000Y-37000000D03*
X-10650000Y45000000D03*
X-10650000Y-45000000D03*
X-10166726Y46166726D03*
X-10166726Y43833274D03*
X-10166726Y-43833274D03*
X-10166726Y-46166726D03*
X-9000000Y46650000D03*
D12*
X-9000000Y45000000D03*
D11*
X-9000000Y43350000D03*
X-9000000Y-43350000D03*
D12*
X-9000000Y-45000000D03*
D11*
X-9000000Y-46650000D03*
X-7833274Y46166726D03*
X-7833274Y43833274D03*
X-7833274Y-43833274D03*
X-7833274Y-46166726D03*
X-7350000Y45000000D03*
X-7350000Y-45000000D03*
%TD*%
D13*
%TO.P,H4,1,1*%
%TO.N,PE*%
X-38225000Y-45000000D03*
X-37280419Y-42719581D03*
X-37280419Y-47280419D03*
X-35000000Y-41775000D03*
D14*
X-35000000Y-45000000D03*
D13*
X-35000000Y-48225000D03*
X-32719581Y-42719581D03*
X-32719581Y-47280419D03*
X-31775000Y-45000000D03*
%TD*%
%TO.P,H3,1,1*%
%TO.N,PE*%
X18775000Y-45000000D03*
X19719581Y-42719581D03*
X19719581Y-47280419D03*
X22000000Y-41775000D03*
D14*
X22000000Y-45000000D03*
D13*
X22000000Y-48225000D03*
X24280419Y-42719581D03*
X24280419Y-47280419D03*
X25225000Y-45000000D03*
%TD*%
%TO.P,H2,1,1*%
%TO.N,PE*%
X18494581Y44719581D03*
X19439162Y47000000D03*
X19439162Y42439162D03*
X21719581Y47944581D03*
D14*
X21719581Y44719581D03*
D13*
X21719581Y41494581D03*
X24000000Y47000000D03*
X24000000Y42439162D03*
X24944581Y44719581D03*
%TD*%
%TO.P,H1,1,1*%
%TO.N,PE*%
X-38225000Y45000000D03*
X-37280419Y47280419D03*
X-37280419Y42719581D03*
X-35000000Y48225000D03*
D14*
X-35000000Y45000000D03*
D13*
X-35000000Y41775000D03*
X-32719581Y47280419D03*
X-32719581Y42719581D03*
X-31775000Y45000000D03*
%TD*%
D15*
%TO.P,R31,1*%
%TO.N,/b.6_div*%
X25675000Y-21000000D03*
%TO.P,R31,2*%
%TO.N,/b.6_in*%
X27325000Y-21000000D03*
%TD*%
D16*
%TO.P,U4,1,1A*%
%TO.N,/CS_MCU*%
X-17466850Y-33049999D03*
%TO.P,U4,2,GND*%
%TO.N,GND_MCU*%
X-17466850Y-34000000D03*
%TO.P,U4,3,2A*%
%TO.N,unconnected-(U4-2A-Pad3)*%
X-17466850Y-34950001D03*
%TO.P,U4,4,2Y*%
%TO.N,unconnected-(U4-2Y-Pad4)*%
X-14533150Y-34950001D03*
%TO.P,U4,5,VCC*%
%TO.N,+3.3V_MCU*%
X-14533150Y-34000000D03*
%TO.P,U4,6,1Y*%
%TO.N,/CS_LED*%
X-14533150Y-33049999D03*
%TD*%
D15*
%TO.P,R16,1*%
%TO.N,/a.7_div*%
X25675000Y11500000D03*
%TO.P,R16,2*%
%TO.N,/a.7_in*%
X27325000Y11500000D03*
%TD*%
%TO.P,R13,1*%
%TO.N,/COM_CNV*%
X21175000Y15000000D03*
%TO.P,R13,2*%
%TO.N,/a.6_div*%
X22825000Y15000000D03*
%TD*%
%TO.P,R18,1*%
%TO.N,/COM_CNV*%
X21175000Y-3500000D03*
%TO.P,R18,2*%
%TO.N,/b.1_div*%
X22825000Y-3500000D03*
%TD*%
%TO.P,R28,1*%
%TO.N,/b.3_div*%
X25675000Y-10500000D03*
%TO.P,R28,2*%
%TO.N,/b.3_in*%
X27325000Y-10500000D03*
%TD*%
D17*
%TO.P,U5,1,A1*%
%TO.N,/a.7_div*%
X15200000Y17550000D03*
%TO.P,U5,2,A2*%
%TO.N,/a.6_div*%
X15200000Y18185000D03*
%TO.P,U5,3,A3*%
%TO.N,/a.5_div*%
X15200000Y18820000D03*
%TO.P,U5,4,A4*%
%TO.N,/a.4_div*%
X15200000Y19455000D03*
%TO.P,U5,5,COM*%
%TO.N,/COM_CNV*%
X15200000Y20090000D03*
%TO.P,U5,6,COM*%
X15200000Y20725000D03*
%TO.P,U5,7,A5*%
%TO.N,/a.3_div*%
X15200000Y21360000D03*
%TO.P,U5,8,A6*%
%TO.N,/a.2_div*%
X15200000Y21995000D03*
%TO.P,U5,9,A7*%
%TO.N,/a.1_div*%
X15200000Y22630000D03*
%TO.P,U5,10,A8*%
%TO.N,/a.0_div*%
X15200000Y23265000D03*
%TO.P,U5,11,B8*%
%TO.N,/a.0*%
X10000000Y23265000D03*
%TO.P,U5,12,B7*%
%TO.N,/a.1*%
X10000000Y22630000D03*
%TO.P,U5,13,B6*%
%TO.N,/a.2*%
X10000000Y21995000D03*
%TO.P,U5,14,B5*%
%TO.N,/a.3*%
X10000000Y21360000D03*
%TO.P,U5,15,GND*%
%TO.N,GND_MCU*%
X10000000Y20725000D03*
%TO.P,U5,16,VDD*%
%TO.N,+3.3V_MCU*%
X10000000Y20090000D03*
%TO.P,U5,17,B4*%
%TO.N,/a.4*%
X10000000Y19455000D03*
%TO.P,U5,18,B3*%
%TO.N,/a.5*%
X10000000Y18820000D03*
%TO.P,U5,19,B2*%
%TO.N,/a.6*%
X10000000Y18185000D03*
%TO.P,U5,20,B1*%
%TO.N,/a.7*%
X10000000Y17550000D03*
%TD*%
D15*
%TO.P,R4,1*%
%TO.N,/a.1_div*%
X25675000Y32500000D03*
%TO.P,R4,2*%
%TO.N,/a.1_in*%
X27325000Y32500000D03*
%TD*%
%TO.P,R24,1*%
%TO.N,/COM_CNV*%
X21175000Y-24500000D03*
%TO.P,R24,2*%
%TO.N,/b.7_div*%
X22825000Y-24500000D03*
%TD*%
%TO.P,R23,1*%
%TO.N,/COM_CNV*%
X21175000Y-21000000D03*
%TO.P,R23,2*%
%TO.N,/b.6_div*%
X22825000Y-21000000D03*
%TD*%
%TO.P,R11,1*%
%TO.N,/COM_CNV*%
X21175000Y18500000D03*
%TO.P,R11,2*%
%TO.N,/a.5_div*%
X22825000Y18500000D03*
%TD*%
%TO.P,R2,1*%
%TO.N,/a.0_div*%
X25675000Y36000000D03*
%TO.P,R2,2*%
%TO.N,/a.0_in*%
X27325000Y36000000D03*
%TD*%
D18*
%TO.P,C1,1*%
%TO.N,+3.3V_MCU*%
X1275000Y7000000D03*
%TO.P,C1,2*%
%TO.N,GND_MCU*%
X-275000Y7000000D03*
%TD*%
D15*
%TO.P,R20,1*%
%TO.N,/COM_CNV*%
X21175000Y-10500000D03*
%TO.P,R20,2*%
%TO.N,/b.3_div*%
X22825000Y-10500000D03*
%TD*%
D19*
%TO.P,U1,1,GPB0*%
%TO.N,/a.7*%
X6745000Y3627801D03*
%TO.P,U1,2,GPB1*%
%TO.N,/a.6*%
X6094999Y3627801D03*
%TO.P,U1,3,GPB2*%
%TO.N,/a.5*%
X5445000Y3627801D03*
%TO.P,U1,4,GPB3*%
%TO.N,/a.4*%
X4794999Y3627801D03*
%TO.P,U1,5,GPB4*%
%TO.N,/a.3*%
X4145001Y3627801D03*
%TO.P,U1,6,GPB5*%
%TO.N,/a.2*%
X3494999Y3627801D03*
%TO.P,U1,7,GPB6*%
%TO.N,/a.1*%
X2845001Y3627801D03*
%TO.P,U1,8,GPB7*%
%TO.N,/a.0*%
X2195002Y3627801D03*
%TO.P,U1,9,VDD*%
%TO.N,+3.3V_MCU*%
X1545001Y3627801D03*
%TO.P,U1,10,VSS*%
%TO.N,GND_MCU*%
X895002Y3627801D03*
%TO.P,U1,11,~{CS}*%
%TO.N,/CS_MCU*%
X245001Y3627801D03*
%TO.P,U1,12,SCK*%
%TO.N,Net-(JP9-C)*%
X-404998Y3627801D03*
%TO.P,U1,13,SI*%
%TO.N,Net-(JP8-C)*%
X-1054999Y3627801D03*
%TO.P,U1,14,SO*%
%TO.N,/MISO_MCU*%
X-1704998Y3627801D03*
%TO.P,U1,15,A0*%
%TO.N,/A0*%
X-1705000Y-3627801D03*
%TO.P,U1,16,A1*%
%TO.N,/A1*%
X-1054999Y-3627801D03*
%TO.P,U1,17,A2*%
%TO.N,/A2*%
X-405000Y-3627801D03*
%TO.P,U1,18,~{RESET}*%
%TO.N,/RST*%
X245001Y-3627801D03*
%TO.P,U1,19,INTB*%
%TO.N,unconnected-(U1-INTB-Pad19)*%
X894999Y-3627801D03*
%TO.P,U1,20,INTA*%
%TO.N,unconnected-(U1-INTA-Pad20)*%
X1545001Y-3627801D03*
%TO.P,U1,21,GPA0*%
%TO.N,/b.7*%
X2194999Y-3627801D03*
%TO.P,U1,22,GPA1*%
%TO.N,/b.6*%
X2845001Y-3627801D03*
%TO.P,U1,23,GPA2*%
%TO.N,/b.5*%
X3494999Y-3627801D03*
%TO.P,U1,24,GPA3*%
%TO.N,/b.4*%
X4145001Y-3627801D03*
%TO.P,U1,25,GPA4*%
%TO.N,/b.3*%
X4794999Y-3627801D03*
%TO.P,U1,26,GPA5*%
%TO.N,/b.2*%
X5445000Y-3627801D03*
%TO.P,U1,27,GPA6*%
%TO.N,/b.1*%
X6094999Y-3627801D03*
%TO.P,U1,28,GPA7*%
%TO.N,/b.0*%
X6745000Y-3627801D03*
%TD*%
D15*
%TO.P,R5,1*%
%TO.N,/COM_CNV*%
X21175000Y29000000D03*
%TO.P,R5,2*%
%TO.N,/a.2_div*%
X22825000Y29000000D03*
%TD*%
D20*
%TO.P,J12,1,Pin_1*%
%TO.N,GND_MCU*%
X-8556000Y24500008D03*
%TO.P,J12,2,Pin_2*%
%TO.N,unconnected-(J12-Pin_2-Pad2)*%
X-8556000Y25500006D03*
%TO.P,J12,3,Pin_3*%
%TO.N,unconnected-(J12-Pin_3-Pad3)*%
X-8556000Y26500004D03*
%TO.P,J12,4,Pin_4*%
%TO.N,/a.7*%
X-8556000Y27500002D03*
%TO.P,J12,5,Pin_5*%
%TO.N,/a.6*%
X-8556000Y28500000D03*
%TO.P,J12,6,Pin_6*%
%TO.N,/a.5*%
X-8556000Y29500000D03*
%TO.P,J12,7,Pin_7*%
%TO.N,/a.4*%
X-8556000Y30500000D03*
%TO.P,J12,8,Pin_8*%
%TO.N,/a.3*%
X-8556000Y31500000D03*
%TO.P,J12,9,Pin_9*%
%TO.N,/a.2*%
X-8556000Y32499998D03*
%TO.P,J12,10,Pin_10*%
%TO.N,/a.1*%
X-8556000Y33499996D03*
%TO.P,J12,11,Pin_11*%
%TO.N,/a.0*%
X-8556000Y34499994D03*
%TO.P,J12,12,Pin_11*%
%TO.N,GND_MCU*%
X-8556000Y35499992D03*
D21*
%TO.P,J12,13,Pin_11*%
X-6385999Y22149997D03*
X-6385999Y37850003D03*
%TD*%
D15*
%TO.P,R3,1*%
%TO.N,/COM_CNV*%
X21175000Y32500000D03*
%TO.P,R3,2*%
%TO.N,/a.1_div*%
X22825000Y32500000D03*
%TD*%
%TO.P,R26,1*%
%TO.N,/b.1_div*%
X25675000Y-3500000D03*
%TO.P,R26,2*%
%TO.N,/b.1_in*%
X27325000Y-3500000D03*
%TD*%
%TO.P,R7,1*%
%TO.N,/COM_CNV*%
X21175000Y25500000D03*
%TO.P,R7,2*%
%TO.N,/a.3_div*%
X22825000Y25500000D03*
%TD*%
%TO.P,R17,1*%
%TO.N,/COM_CNV*%
X21175000Y0D03*
%TO.P,R17,2*%
%TO.N,/b.0_div*%
X22825000Y0D03*
%TD*%
%TO.P,R32,1*%
%TO.N,/b.7_div*%
X25675000Y-24500000D03*
%TO.P,R32,2*%
%TO.N,/b.7_in*%
X27325000Y-24500000D03*
%TD*%
D22*
%TO.P,JM1,1,Pin_1*%
%TO.N,GND_MCU*%
X-36546000Y10500000D03*
%TO.P,JM1,2,Pin_2*%
X-36546000Y11500000D03*
%TO.P,JM1,3,Pin_3*%
%TO.N,/SCL_MCU*%
X-36546000Y12500000D03*
%TO.P,JM1,4,Pin_4*%
%TO.N,/SDA_MCU*%
X-36546000Y13500000D03*
%TO.P,JM1,5,Pin_5*%
%TO.N,Net-(JM1-Pin_5)*%
X-36546000Y14500000D03*
%TO.P,JM1,6,Pin_6*%
%TO.N,/RST*%
X-36546000Y15500000D03*
%TO.P,JM1,7,Pin_7*%
%TO.N,/CS3_MCU*%
X-36546000Y16500000D03*
%TO.P,JM1,8,Pin_8*%
%TO.N,/CS2_MCU*%
X-36546000Y17500000D03*
%TO.P,JM1,9,Pin_9*%
%TO.N,/CS1_MCU*%
X-36546000Y18500000D03*
%TO.P,JM1,10,Pin_10*%
%TO.N,/CS0_MCU*%
X-36546000Y19500000D03*
%TO.P,JM1,11,Pin_11*%
%TO.N,/SCK_MCU*%
X-36546000Y20500000D03*
%TO.P,JM1,12,Pin_11*%
%TO.N,/MISO_MCU*%
X-36546000Y21500000D03*
%TO.P,JM1,13,Pin_11*%
%TO.N,/MOSI_MCU*%
X-36546000Y22500000D03*
%TO.P,JM1,14,Pin_11*%
%TO.N,GND_MCU*%
X-36546000Y23500000D03*
%TO.P,JM1,15,Pin_11*%
%TO.N,+3.3V_MCU*%
X-36546000Y24500000D03*
%TO.P,JM1,16,Pin_11*%
X-36546000Y25500000D03*
%TO.P,JM1,17,Pin_11*%
%TO.N,+5V_MCU*%
X-36546000Y26500000D03*
%TO.P,JM1,18,Pin_11*%
X-36546000Y27500000D03*
%TO.P,JM1,19,Pin_11*%
%TO.N,GND_MCU*%
X-36546000Y28500000D03*
%TO.P,JM1,20,Pin_11*%
X-36546000Y29500000D03*
D23*
%TO.P,JM1,MP1,Pin_11*%
X-34375000Y8150000D03*
%TO.P,JM1,MP2,Pin_11*%
X-34375000Y31850000D03*
%TD*%
D15*
%TO.P,R8,1*%
%TO.N,/a.3_div*%
X25675000Y25500000D03*
%TO.P,R8,2*%
%TO.N,/a.3_in*%
X27325000Y25500000D03*
%TD*%
%TO.P,R30,1*%
%TO.N,/b.5_div*%
X25675000Y-17500000D03*
%TO.P,R30,2*%
%TO.N,/b.5_in*%
X27325000Y-17500000D03*
%TD*%
%TO.P,R6,1*%
%TO.N,/a.2_div*%
X25675000Y29000000D03*
%TO.P,R6,2*%
%TO.N,/a.2_in*%
X27325000Y29000000D03*
%TD*%
%TO.P,R1,1*%
%TO.N,/COM_CNV*%
X21175000Y36000000D03*
%TO.P,R1,2*%
%TO.N,/a.0_div*%
X22825000Y36000000D03*
%TD*%
%TO.P,R22,1*%
%TO.N,/COM_CNV*%
X21175000Y-17500000D03*
%TO.P,R22,2*%
%TO.N,/b.5_div*%
X22825000Y-17500000D03*
%TD*%
D20*
%TO.P,J2,1,Pin_1*%
%TO.N,GND_MCU*%
X-8556000Y-35499992D03*
%TO.P,J2,2,Pin_2*%
%TO.N,/MISO_MCU*%
X-8556000Y-34499994D03*
%TO.P,J2,3,Pin_3*%
%TO.N,/CS_LED*%
X-8556000Y-33499996D03*
%TO.P,J2,4,Pin_4*%
%TO.N,/b.7*%
X-8556000Y-32499998D03*
%TO.P,J2,5,Pin_5*%
%TO.N,/b.6*%
X-8556000Y-31500000D03*
%TO.P,J2,6,Pin_6*%
%TO.N,/b.5*%
X-8556000Y-30500000D03*
%TO.P,J2,7,Pin_7*%
%TO.N,/b.4*%
X-8556000Y-29500000D03*
%TO.P,J2,8,Pin_8*%
%TO.N,/b.3*%
X-8556000Y-28500000D03*
%TO.P,J2,9,Pin_9*%
%TO.N,/b.2*%
X-8556000Y-27500002D03*
%TO.P,J2,10,Pin_10*%
%TO.N,/b.1*%
X-8556000Y-26500004D03*
%TO.P,J2,11,Pin_11*%
%TO.N,/b.0*%
X-8556000Y-25500006D03*
%TO.P,J2,12,Pin_11*%
%TO.N,GND_MCU*%
X-8556000Y-24500008D03*
D21*
%TO.P,J2,13,Pin_11*%
X-6385999Y-37850003D03*
X-6385999Y-22149997D03*
%TD*%
D15*
%TO.P,R10,1*%
%TO.N,/a.4_div*%
X25675000Y22000000D03*
%TO.P,R10,2*%
%TO.N,/a.4_in*%
X27325000Y22000000D03*
%TD*%
%TO.P,R14,1*%
%TO.N,/a.6_div*%
X25675000Y15000000D03*
%TO.P,R14,2*%
%TO.N,/a.6_in*%
X27325000Y15000000D03*
%TD*%
D17*
%TO.P,U3,1,A1*%
%TO.N,/b.7_div*%
X15140000Y-18097500D03*
%TO.P,U3,2,A2*%
%TO.N,/b.6_div*%
X15140000Y-17462500D03*
%TO.P,U3,3,A3*%
%TO.N,/b.5_div*%
X15140000Y-16827500D03*
%TO.P,U3,4,A4*%
%TO.N,/b.4_div*%
X15140000Y-16192500D03*
%TO.P,U3,5,COM*%
%TO.N,/COM_CNV*%
X15140000Y-15557500D03*
%TO.P,U3,6,COM*%
X15140000Y-14922500D03*
%TO.P,U3,7,A5*%
%TO.N,/b.3_div*%
X15140000Y-14287500D03*
%TO.P,U3,8,A6*%
%TO.N,/b.2_div*%
X15140000Y-13652500D03*
%TO.P,U3,9,A7*%
%TO.N,/b.1_div*%
X15140000Y-13017500D03*
%TO.P,U3,10,A8*%
%TO.N,/b.0_div*%
X15140000Y-12382500D03*
%TO.P,U3,11,B8*%
%TO.N,/b.0*%
X9940000Y-12382500D03*
%TO.P,U3,12,B7*%
%TO.N,/b.1*%
X9940000Y-13017500D03*
%TO.P,U3,13,B6*%
%TO.N,/b.2*%
X9940000Y-13652500D03*
%TO.P,U3,14,B5*%
%TO.N,/b.3*%
X9940000Y-14287500D03*
%TO.P,U3,15,GND*%
%TO.N,GND_MCU*%
X9940000Y-14922500D03*
%TO.P,U3,16,VDD*%
%TO.N,+3.3V_MCU*%
X9940000Y-15557500D03*
%TO.P,U3,17,B4*%
%TO.N,/b.4*%
X9940000Y-16192500D03*
%TO.P,U3,18,B3*%
%TO.N,/b.5*%
X9940000Y-16827500D03*
%TO.P,U3,19,B2*%
%TO.N,/b.6*%
X9940000Y-17462500D03*
%TO.P,U3,20,B1*%
%TO.N,/b.7*%
X9940000Y-18097500D03*
%TD*%
D24*
%TO.P,JP10,1,A*%
%TO.N,GND_CNV*%
X24000000Y-35550000D03*
D25*
%TO.P,JP10,2,C*%
%TO.N,/COM_CNV*%
X24000000Y-34250000D03*
D26*
%TO.P,JP10,3,B*%
%TO.N,L+_CNV*%
X24000000Y-32950000D03*
%TD*%
D15*
%TO.P,R12,1*%
%TO.N,/a.5_div*%
X25675000Y18500000D03*
%TO.P,R12,2*%
%TO.N,/a.5_in*%
X27325000Y18500000D03*
%TD*%
%TO.P,R9,1*%
%TO.N,/COM_CNV*%
X21175000Y22000000D03*
%TO.P,R9,2*%
%TO.N,/a.4_div*%
X22825000Y22000000D03*
%TD*%
%TO.P,R19,1*%
%TO.N,/COM_CNV*%
X21175000Y-7000000D03*
%TO.P,R19,2*%
%TO.N,/b.2_div*%
X22825000Y-7000000D03*
%TD*%
D10*
%TO.P,J4,1,Pin_1*%
%TO.N,/b.7_in*%
X32000000Y-28000000D03*
%TO.P,J4,2,Pin_2*%
%TO.N,/b.6_in*%
X32000000Y-24500000D03*
%TO.P,J4,3,Pin_3*%
%TO.N,/b.5_in*%
X32000000Y-21000000D03*
%TO.P,J4,4,Pin_4*%
%TO.N,/b.4_in*%
X32000000Y-17500000D03*
%TO.P,J4,5,Pin_5*%
%TO.N,/b.3_in*%
X32000000Y-14000000D03*
%TO.P,J4,6,Pin_6*%
%TO.N,/b.2_in*%
X32000000Y-10500000D03*
%TO.P,J4,7,Pin_7*%
%TO.N,/b.1_in*%
X32000000Y-7000000D03*
%TO.P,J4,8,Pin_8*%
%TO.N,/b.0_in*%
X32000000Y-3500000D03*
%TO.P,J4,9,Pin_9*%
%TO.N,/COM_CNV*%
X32000000Y0D03*
%TO.P,J4,10,Pin_10*%
X32000000Y3500000D03*
%TD*%
D15*
%TO.P,R27,1*%
%TO.N,/b.2_div*%
X25675000Y-7000000D03*
%TO.P,R27,2*%
%TO.N,/b.2_in*%
X27325000Y-7000000D03*
%TD*%
%TO.P,R25,1*%
%TO.N,/b.0_div*%
X25675000Y0D03*
%TO.P,R25,2*%
%TO.N,/b.0_in*%
X27325000Y0D03*
%TD*%
%TO.P,R21,1*%
%TO.N,/COM_CNV*%
X21175000Y-14000000D03*
%TO.P,R21,2*%
%TO.N,/b.4_div*%
X22825000Y-14000000D03*
%TD*%
D10*
%TO.P,J3,1,Pin_1*%
%TO.N,/a.7_in*%
X32000000Y8500000D03*
%TO.P,J3,2,Pin_2*%
%TO.N,/a.6_in*%
X32000000Y12000000D03*
%TO.P,J3,3,Pin_3*%
%TO.N,/a.5_in*%
X32000000Y15500000D03*
%TO.P,J3,4,Pin_4*%
%TO.N,/a.4_in*%
X32000000Y19000000D03*
%TO.P,J3,5,Pin_5*%
%TO.N,/a.3_in*%
X32000000Y22500000D03*
%TO.P,J3,6,Pin_6*%
%TO.N,/a.2_in*%
X32000000Y26000000D03*
%TO.P,J3,7,Pin_7*%
%TO.N,/a.1_in*%
X32000000Y29500000D03*
%TO.P,J3,8,Pin_8*%
%TO.N,/a.0_in*%
X32000000Y33000000D03*
%TO.P,J3,9,Pin_9*%
%TO.N,/COM_CNV*%
X32000000Y36500000D03*
%TO.P,J3,10,Pin_10*%
X32000000Y40000000D03*
%TD*%
D15*
%TO.P,R29,1*%
%TO.N,/b.4_div*%
X25675000Y-14000000D03*
%TO.P,R29,2*%
%TO.N,/b.4_in*%
X27325000Y-14000000D03*
%TD*%
%TO.P,R15,1*%
%TO.N,/COM_CNV*%
X21175000Y11500000D03*
%TO.P,R15,2*%
%TO.N,/a.7_div*%
X22825000Y11500000D03*
%TD*%
D27*
%TO.N,/COM_CNV*%
X24250000Y30750000D03*
X24250000Y23750000D03*
X24250000Y16750000D03*
X16000000Y-31000000D03*
X16000000Y-33000000D03*
X18000000Y-33000000D03*
X18000000Y-31000000D03*
X17000000Y-32000000D03*
X20250000Y-20250000D03*
X24250000Y-19250000D03*
X20250000Y-14000000D03*
X24250000Y-12250000D03*
X24250000Y-5250000D03*
X20250000Y-7000000D03*
X20000000Y16750000D03*
X20000000Y22000000D03*
X20000000Y29000000D03*
%TO.N,/CS_MCU*%
X-2000000Y6500000D03*
D28*
%TO.N,GND_MCU*%
X4000000Y-1000000D03*
D27*
X-31500000Y38500000D03*
D28*
X5000000Y0D03*
D27*
X-31500000Y40000000D03*
D28*
X-35000000Y23500000D03*
X-35000000Y6000000D03*
X-35000000Y10500000D03*
D27*
X-30000000Y40000000D03*
X10950000Y20700000D03*
X-29600000Y-4000000D03*
D28*
X-32000000Y33000000D03*
X6000000Y1000000D03*
X-3000000Y-23000000D03*
D27*
X-29600000Y-6400000D03*
X10786526Y-14922499D03*
D28*
X6000000Y-1000000D03*
X-3000000Y-22000000D03*
X-33000000Y6000000D03*
X-3000000Y-21000000D03*
X4000000Y1000000D03*
X-32000000Y31000000D03*
X-34000000Y6000000D03*
X-36000000Y6000000D03*
X-35000000Y11500000D03*
X-32000000Y32000000D03*
X-35000000Y29500000D03*
D27*
X-30000000Y38500000D03*
D28*
X-35000000Y28500000D03*
%TO.N,/SCK_MCU*%
X-35000000Y20500000D03*
D27*
X-28000000Y9000000D03*
D28*
%TO.N,/CS3_MCU*%
X-35000000Y16500000D03*
D27*
%TO.N,/a.1*%
X2850000Y33499996D03*
X2850000Y15600000D03*
%TO.N,/a.3*%
X4150000Y31500000D03*
X4150000Y15600000D03*
%TO.N,/a.6*%
X6100000Y28500000D03*
X6100000Y16250000D03*
%TO.N,/a.5*%
X5450000Y15600000D03*
X5450000Y29500000D03*
%TO.N,/a.2*%
X3500000Y16250000D03*
X3500000Y32500000D03*
%TO.N,/a.4*%
X4800000Y30500000D03*
X4800000Y16250000D03*
%TO.N,/a.7*%
X6750000Y15600000D03*
X6750000Y27500000D03*
%TO.N,/b.3*%
X4800000Y-28500000D03*
X4800000Y-12350000D03*
%TO.N,/b.6*%
X2850000Y-11700000D03*
X2850000Y-31500000D03*
%TO.N,/b.4*%
X4150000Y-11700000D03*
X4100000Y-29500000D03*
%TO.N,/b.2*%
X5400000Y-27375000D03*
X5450000Y-11700000D03*
%TO.N,/b.5*%
X3500000Y-12350000D03*
X3500000Y-30500000D03*
%TO.N,/b.7*%
X2200000Y-32500000D03*
X2200000Y-12350000D03*
%TO.N,/a.0*%
X2192525Y34442525D03*
X2200000Y16250000D03*
%TO.N,/b.1*%
X6100000Y-12350000D03*
X6100000Y-26500000D03*
%TO.N,/b.0*%
X6700000Y-25425000D03*
X6750000Y-11700000D03*
D28*
%TO.N,/MISO_MCU*%
X-35000000Y21500000D03*
D27*
X-3600000Y1500000D03*
X-3600000Y3200000D03*
D28*
%TO.N,/CS0_MCU*%
X-35000000Y19500000D03*
%TO.N,/CS1_MCU*%
X-35000000Y18500000D03*
%TO.N,/CS2_MCU*%
X-35000000Y17500000D03*
%TO.N,+3.3V_MCU*%
X-35000000Y25500000D03*
X-34000000Y24500000D03*
X8374000Y-15398800D03*
X-33000000Y24500000D03*
X8714355Y20572500D03*
X-34000000Y25500000D03*
X-13000000Y-34249996D03*
X-35000000Y24500000D03*
X-11851500Y30883000D03*
X-33000000Y25500000D03*
D27*
%TO.N,/MOSI_MCU*%
X-25000000Y14000000D03*
D28*
X-35000000Y22500000D03*
%TO.N,+5V_MCU*%
X-35000000Y26500000D03*
X-35000000Y27500000D03*
X-33000000Y27500000D03*
X-33000000Y26500000D03*
X-34000000Y26500000D03*
X-34000000Y27500000D03*
%TO.N,/SDA_MCU*%
X-35000000Y13500000D03*
%TO.N,/SCL_MCU*%
X-35000000Y12500000D03*
D27*
%TO.N,Net-(JP8-C)*%
X-3500000Y5500000D03*
%TO.N,Net-(JP9-C)*%
X-24500000Y7500000D03*
%TO.N,/A0*%
X-2250000Y-2000000D03*
%TO.N,/A1*%
X-1250000Y-2000000D03*
%TO.N,/A2*%
X-250000Y-2016377D03*
D28*
%TO.N,/RST*%
X-35000000Y15500000D03*
D27*
X500000Y-1500000D03*
D28*
%TO.N,Net-(JM1-Pin_5)*%
X-35000000Y14500000D03*
%TD*%
D29*
%TO.N,GND_CNV*%
X24000000Y-35550000D02*
X31050000Y-35550000D01*
X31050000Y-35550000D02*
X32000000Y-36500000D01*
%TO.N,L+_CNV*%
X24000000Y-32950000D02*
X31950000Y-32950000D01*
X31950000Y-32950000D02*
X32000000Y-33000000D01*
D30*
%TO.N,/a.7_in*%
X27325000Y11500000D02*
X29000000Y11500000D01*
X29000000Y11500000D02*
X32000000Y8500000D01*
%TO.N,/a.6_in*%
X27325000Y15000000D02*
X29000000Y15000000D01*
X29000000Y15000000D02*
X32000000Y12000000D01*
%TO.N,/a.5_in*%
X27325000Y18500000D02*
X29000000Y18500000D01*
X29000000Y18500000D02*
X32000000Y15500000D01*
%TO.N,/a.4_in*%
X27325000Y22000000D02*
X29000000Y22000000D01*
X29000000Y22000000D02*
X32000000Y19000000D01*
%TO.N,/a.3_in*%
X27325000Y25500000D02*
X29000000Y25500000D01*
X29000000Y25500000D02*
X32000000Y22500000D01*
%TO.N,/a.2_in*%
X27325000Y29000000D02*
X29000000Y29000000D01*
X29000000Y29000000D02*
X32000000Y26000000D01*
%TO.N,/a.1_in*%
X27325000Y32500000D02*
X29000000Y32500000D01*
X29000000Y32500000D02*
X32000000Y29500000D01*
%TO.N,/a.0_in*%
X27325000Y36000000D02*
X29000000Y36000000D01*
X29000000Y36000000D02*
X32000000Y33000000D01*
%TO.N,/b.0_in*%
X32000000Y-3500000D02*
X28500000Y0D01*
X28500000Y0D02*
X27325000Y0D01*
%TO.N,/b.1_in*%
X32000000Y-7000000D02*
X28500000Y-3500000D01*
X28500000Y-3500000D02*
X27325000Y-3500000D01*
%TO.N,/b.3_in*%
X32000000Y-14000000D02*
X28500000Y-10500000D01*
X28500000Y-10500000D02*
X27325000Y-10500000D01*
%TO.N,/b.2_in*%
X32000000Y-10500000D02*
X28500000Y-7000000D01*
X28500000Y-7000000D02*
X27325000Y-7000000D01*
%TO.N,/b.4_in*%
X32000000Y-17500000D02*
X28500000Y-14000000D01*
X28500000Y-14000000D02*
X27325000Y-14000000D01*
%TO.N,/b.5_in*%
X32000000Y-21000000D02*
X28500000Y-17500000D01*
X28500000Y-17500000D02*
X27325000Y-17500000D01*
%TO.N,/b.6_in*%
X32000000Y-24500000D02*
X28500000Y-21000000D01*
X28500000Y-21000000D02*
X27325000Y-21000000D01*
%TO.N,/b.7_in*%
X32000000Y-28000000D02*
X30825000Y-28000000D01*
X30825000Y-28000000D02*
X27325000Y-24500000D01*
D31*
%TO.N,PE*%
X32000000Y-40000000D02*
X37000000Y-40000000D01*
D32*
%TO.N,/CS_MCU*%
X250001Y2370655D02*
X250001Y4521502D01*
X149000Y2269654D02*
X250001Y2370655D01*
X-17466850Y-16216850D02*
X149000Y1399000D01*
X-17466850Y-33049999D02*
X-17466850Y-16216850D01*
X-2000000Y6500000D02*
X-1500000Y6000000D01*
X149000Y1399000D02*
X149000Y2269654D01*
X-1000000Y6000000D02*
X245001Y4754999D01*
X-1500000Y6000000D02*
X-1000000Y6000000D01*
X245001Y4754999D02*
X245001Y3627801D01*
D30*
%TO.N,GND_MCU*%
X10786525Y-14922500D02*
X10786526Y-14922499D01*
X11000000Y20637501D02*
X10912501Y20725000D01*
X10925000Y20725000D02*
X10950000Y20700000D01*
X10000000Y20725000D02*
X10925000Y20725000D01*
X9940000Y-14922500D02*
X10786525Y-14922500D01*
D32*
%TO.N,/SCK_MCU*%
X-35000000Y20500000D02*
X-28000000Y13500000D01*
D29*
X-36546000Y20500000D02*
X-35000000Y20500000D01*
D32*
X-28000000Y13500000D02*
X-28000000Y9000000D01*
D29*
%TO.N,/CS3_MCU*%
X-36546000Y16500000D02*
X-35000000Y16500000D01*
D32*
%TO.N,/a.1*%
X2850001Y3627801D02*
X2850001Y15599999D01*
X7630000Y22630000D02*
X10000000Y22630000D01*
X2850001Y15599999D02*
X2850000Y15600000D01*
X2850000Y17850000D02*
X7630000Y22630000D01*
X2850000Y33499996D02*
X-8556000Y33499996D01*
X2850000Y15600000D02*
X2850000Y17850000D01*
%TO.N,/a.3*%
X7860000Y21360000D02*
X10000000Y21360000D01*
X4150000Y31500000D02*
X-8556000Y31500000D01*
X4150000Y15600000D02*
X4150001Y15599999D01*
X4150000Y15600000D02*
X4150000Y17650000D01*
X4150000Y17650000D02*
X7860000Y21360000D01*
X4150001Y15599999D02*
X4150001Y3627801D01*
%TO.N,/a.6*%
X6099999Y16249999D02*
X6099999Y3627801D01*
X10000000Y18185000D02*
X8035000Y18185000D01*
X8035000Y18185000D02*
X6100000Y16250000D01*
X6100000Y16250000D02*
X6099999Y16249999D01*
X6100000Y28500000D02*
X-8556000Y28500000D01*
%TO.N,/a.5*%
X5450000Y29500000D02*
X-8556000Y29500000D01*
X5450000Y16700000D02*
X7570000Y18820000D01*
X7570000Y18820000D02*
X10000000Y18820000D01*
X5450000Y15600000D02*
X5450000Y3627801D01*
X5450000Y15600000D02*
X5450000Y16700000D01*
%TO.N,/a.2*%
X3500000Y16250000D02*
X3500000Y15600000D01*
X3499999Y15599999D02*
X3499999Y3627801D01*
X3500000Y15600000D02*
X3499999Y15599999D01*
X3500000Y32500000D02*
X2200000Y32500000D01*
X7786480Y21995000D02*
X10000000Y21995000D01*
X3500000Y17708520D02*
X7786480Y21995000D01*
X2200000Y32500000D02*
X2199998Y32499998D01*
X3500000Y16250000D02*
X3500000Y17708520D01*
X2199998Y32499998D02*
X-8556000Y32499998D01*
%TO.N,/a.4*%
X4800000Y15600000D02*
X4799999Y15599999D01*
X4800000Y16758520D02*
X7496480Y19455000D01*
X4800000Y30500000D02*
X-8556000Y30500000D01*
X4800000Y16250000D02*
X4800000Y15600000D01*
X4799999Y15599999D02*
X4799999Y3627801D01*
X9912500Y19367500D02*
X10000000Y19455000D01*
X7496480Y19455000D02*
X10000000Y19455000D01*
X4800000Y16250000D02*
X4800000Y16758520D01*
%TO.N,/a.7*%
X6549998Y27500002D02*
X-8556000Y27500002D01*
X6750000Y27500000D02*
X6550000Y27500000D01*
X6750000Y16191480D02*
X8108520Y17550000D01*
X6750000Y15600000D02*
X6750000Y3627801D01*
X6550000Y27500000D02*
X6549998Y27500002D01*
X6750000Y15600000D02*
X6750000Y16191480D01*
X8108520Y17550000D02*
X10000000Y17550000D01*
D30*
%TO.N,/a.0_div*%
X22825000Y36000000D02*
X25675000Y36000000D01*
X21950000Y35125000D02*
X21622402Y35125000D01*
X15140000Y28642598D02*
X15140000Y23325000D01*
X15140000Y23325000D02*
X15200000Y23265000D01*
X22825000Y36000000D02*
X21950000Y35125000D01*
X21622402Y35125000D02*
X15140000Y28642598D01*
%TO.N,/a.1_div*%
X18128000Y30782070D02*
X18128000Y24565500D01*
X22825000Y32500000D02*
X25675000Y32500000D01*
X22825000Y32500000D02*
X21950000Y33375000D01*
X20720930Y33375000D02*
X18128000Y30782070D01*
X21950000Y33375000D02*
X20720930Y33375000D01*
X16192500Y22630000D02*
X15200000Y22630000D01*
X18128000Y24565500D02*
X16192500Y22630000D01*
%TO.N,/a.3_div*%
X22825000Y25500000D02*
X25675000Y25500000D01*
X17136000Y21360000D02*
X15200000Y21360000D01*
X21950000Y26375000D02*
X20720930Y26375000D01*
X20720930Y26375000D02*
X20375000Y26029070D01*
X22825000Y25500000D02*
X21950000Y26375000D01*
X20375000Y26029070D02*
X20375000Y24599000D01*
X20375000Y24599000D02*
X17136000Y21360000D01*
%TO.N,/a.2_div*%
X19775000Y25015000D02*
X16755000Y21995000D01*
X22825000Y29000000D02*
X21950000Y28125000D01*
X16755000Y21995000D02*
X15200000Y21995000D01*
X21622402Y28125000D02*
X19775000Y26277598D01*
X19775000Y26277598D02*
X19775000Y25015000D01*
X21950000Y28125000D02*
X21622402Y28125000D01*
X22825000Y29000000D02*
X25675000Y29000000D01*
%TO.N,/a.7_div*%
X22825000Y11500000D02*
X21950000Y12375000D01*
X21950000Y12375000D02*
X21552722Y12375000D01*
X21552722Y12375000D02*
X16377722Y17550000D01*
X16377722Y17550000D02*
X15200000Y17550000D01*
X22825000Y11500000D02*
X25675000Y11500000D01*
%TO.N,/a.6_div*%
X22825000Y15000000D02*
X21950000Y14125000D01*
X20651250Y14125000D02*
X16591250Y18185000D01*
X22825000Y15000000D02*
X25675000Y15000000D01*
X21950000Y14125000D02*
X20651250Y14125000D01*
X16591250Y18185000D02*
X15200000Y18185000D01*
%TO.N,/a.4_div*%
X22825000Y22000000D02*
X25675000Y22000000D01*
X22825000Y22000000D02*
X22825000Y22320930D01*
X21332070Y20828000D02*
X20500528Y20828000D01*
X20500528Y20828000D02*
X19127528Y19455000D01*
X19127528Y19455000D02*
X15227500Y19455000D01*
X22825000Y22320930D02*
X21332070Y20828000D01*
%TO.N,/a.5_div*%
X19896056Y19375000D02*
X19341056Y18820000D01*
X22825000Y18500000D02*
X25675000Y18500000D01*
X19341056Y18820000D02*
X15227500Y18820000D01*
X21950000Y19375000D02*
X19896056Y19375000D01*
X22825000Y18500000D02*
X21950000Y19375000D01*
D32*
%TO.N,/b.3*%
X4799999Y-3627801D02*
X4799999Y-12349999D01*
X4800000Y-12350000D02*
X4800000Y-13057785D01*
X4800000Y-28500000D02*
X-8556000Y-28500000D01*
X9939500Y-14288000D02*
X9940000Y-14287500D01*
X6029715Y-14287500D02*
X9940000Y-14287500D01*
X4799999Y-12349999D02*
X4800000Y-12350000D01*
X4800000Y-13057785D02*
X6029715Y-14287500D01*
%TO.N,/b.6*%
X2850000Y-31500000D02*
X-8556000Y-31500000D01*
X2850000Y-13350000D02*
X6962500Y-17462500D01*
X6962500Y-17462500D02*
X9940000Y-17462500D01*
X2850000Y-11050000D02*
X2850001Y-11049999D01*
X9939500Y-17462000D02*
X9940000Y-17462500D01*
X2850001Y-11049999D02*
X2850001Y-3627801D01*
X2850000Y-11700000D02*
X2850000Y-11050000D01*
X2850000Y-11700000D02*
X2850000Y-13350000D01*
%TO.N,/b.4*%
X9939500Y-16192000D02*
X9940000Y-16192500D01*
X7192500Y-16192500D02*
X9940000Y-16192500D01*
X4150000Y-11700000D02*
X4150000Y-11050000D01*
X4150000Y-11700000D02*
X4150000Y-13150000D01*
X4100000Y-29500000D02*
X-8556000Y-29500000D01*
X4150000Y-13150000D02*
X7192500Y-16192500D01*
X4150000Y-11050000D02*
X4150001Y-11049999D01*
X4150001Y-11049999D02*
X4150001Y-3627801D01*
%TO.N,/b.2*%
X5450000Y-11700000D02*
X5450000Y-3627801D01*
X6103235Y-13652500D02*
X9940000Y-13652500D01*
X5375000Y-27375000D02*
X5249998Y-27500002D01*
X5249998Y-27500002D02*
X-8556000Y-27500002D01*
X5450000Y-12999265D02*
X6103235Y-13652500D01*
X5400000Y-27375000D02*
X5375000Y-27375000D01*
X9939500Y-13652000D02*
X9940000Y-13652500D01*
X5450000Y-11700000D02*
X5450000Y-12999265D01*
%TO.N,/b.5*%
X3500000Y-30500000D02*
X-8556000Y-30500000D01*
X7118980Y-16827500D02*
X9940000Y-16827500D01*
X3500000Y-12350000D02*
X3500000Y-13208520D01*
X3500000Y-13208520D02*
X7118980Y-16827500D01*
X3499999Y-12349999D02*
X3500000Y-12350000D01*
X9939500Y-16828000D02*
X9940000Y-16827500D01*
X3499999Y-3627801D02*
X3499999Y-12349999D01*
%TO.N,/b.7*%
X2199999Y-12349999D02*
X2200000Y-12350000D01*
X2199998Y-32499998D02*
X-8556000Y-32499998D01*
X2199999Y-3627801D02*
X2199999Y-12349999D01*
X6888980Y-18097500D02*
X9940000Y-18097500D01*
X2200000Y-13408520D02*
X6888980Y-18097500D01*
X2200000Y-12350000D02*
X2200000Y-13408520D01*
X9939500Y-18098000D02*
X9940000Y-18097500D01*
X2200000Y-32500000D02*
X2199998Y-32499998D01*
D30*
%TO.N,/b.2_div*%
X21950000Y-7875000D02*
X21622402Y-7875000D01*
X22825000Y-7000000D02*
X21950000Y-7875000D01*
X19775000Y-9722402D02*
X19775000Y-10504528D01*
X16627028Y-13652500D02*
X15140000Y-13652500D01*
X19775000Y-10504528D02*
X16627028Y-13652500D01*
X21622402Y-7875000D02*
X19775000Y-9722402D01*
X22825000Y-7000000D02*
X25675000Y-7000000D01*
%TO.N,/b.3_div*%
X20375000Y-10753056D02*
X16840556Y-14287500D01*
X20720930Y-9625000D02*
X20375000Y-9970930D01*
X20375000Y-9970930D02*
X20375000Y-10753056D01*
X22825000Y-10500000D02*
X21950000Y-9625000D01*
X22825000Y-10500000D02*
X25675000Y-10500000D01*
X16840556Y-14287500D02*
X15140000Y-14287500D01*
X21950000Y-9625000D02*
X20720930Y-9625000D01*
%TO.N,/b.0_div*%
X21950000Y-875000D02*
X21571000Y-875000D01*
X15140000Y-7306000D02*
X15140000Y-12382500D01*
X21571000Y-875000D02*
X15140000Y-7306000D01*
X22825000Y0D02*
X25675000Y0D01*
X22825000Y0D02*
X21950000Y-875000D01*
%TO.N,/b.1_div*%
X22825000Y-3500000D02*
X25675000Y-3500000D01*
X16413500Y-13017500D02*
X15140000Y-13017500D01*
X22825000Y-3500000D02*
X21950000Y-2625000D01*
X19144000Y-10287000D02*
X16413500Y-13017500D01*
X21950000Y-2625000D02*
X20720930Y-2625000D01*
X19144000Y-4201930D02*
X19144000Y-10287000D01*
X20720930Y-2625000D02*
X19144000Y-4201930D01*
%TO.N,/b.5_div*%
X22825000Y-17500000D02*
X25675000Y-17500000D01*
X16743000Y-16625000D02*
X16540500Y-16827500D01*
X22825000Y-17500000D02*
X21950000Y-16625000D01*
X21950000Y-16625000D02*
X16743000Y-16625000D01*
X16540500Y-16827500D02*
X15140000Y-16827500D01*
%TO.N,/b.6_div*%
X20289500Y-21875000D02*
X15877000Y-17462500D01*
X22825000Y-21000000D02*
X25675000Y-21000000D01*
X15877000Y-17462500D02*
X15140000Y-17462500D01*
X21950000Y-21875000D02*
X20289500Y-21875000D01*
X22825000Y-21000000D02*
X21950000Y-21875000D01*
%TO.N,/b.7_div*%
X22825000Y-24500000D02*
X21950000Y-23625000D01*
X22825000Y-24500000D02*
X25675000Y-24500000D01*
X20667500Y-23625000D02*
X15140000Y-18097500D01*
X21950000Y-23625000D02*
X20667500Y-23625000D01*
%TO.N,/b.4_div*%
X22825000Y-14000000D02*
X25675000Y-14000000D01*
X16105000Y-16192500D02*
X15140000Y-16192500D01*
X20668000Y-15748000D02*
X16549500Y-15748000D01*
X21176000Y-15240000D02*
X20668000Y-15748000D01*
X22825000Y-14000000D02*
X21585000Y-15240000D01*
X16549500Y-15748000D02*
X16105000Y-16192500D01*
X21585000Y-15240000D02*
X21176000Y-15240000D01*
D32*
%TO.N,/a.0*%
X10000000Y23265000D02*
X7556480Y23265000D01*
X2200000Y17908520D02*
X2200000Y16250000D01*
X2200002Y16249998D02*
X2200002Y3627801D01*
X2192525Y34442525D02*
X2135056Y34499994D01*
X2200000Y16250000D02*
X2200002Y16249998D01*
X2135056Y34499994D02*
X-8556000Y34499994D01*
X7556480Y23265000D02*
X2200000Y17908520D01*
%TO.N,/b.1*%
X9939500Y-13018000D02*
X9940000Y-13017500D01*
X6099999Y-12349999D02*
X6100000Y-12350000D01*
X6099999Y-3627801D02*
X6099999Y-12349999D01*
X5950004Y-26500004D02*
X-8556000Y-26500004D01*
X6100000Y-26500000D02*
X5950008Y-26500000D01*
X6767500Y-13017500D02*
X9940000Y-13017500D01*
X5950008Y-26500000D02*
X5950004Y-26500004D01*
X6100000Y-12350000D02*
X6767500Y-13017500D01*
%TO.N,/b.0*%
X6750000Y-11700000D02*
X6750000Y-3627801D01*
X6700000Y-25425000D02*
X6675000Y-25425000D01*
X6675000Y-25425000D02*
X6599994Y-25500006D01*
X6599994Y-25500006D02*
X-8556000Y-25500006D01*
X6750000Y-11700000D02*
X7432500Y-12382500D01*
X7432500Y-12382500D02*
X9940000Y-12382500D01*
X9939500Y-12382000D02*
X9940000Y-12382500D01*
D31*
%TO.N,PE*%
X22000000Y-46000000D02*
X25175000Y-42825000D01*
D32*
%TO.N,/MISO_MCU*%
X-24106000Y10606000D02*
X-35000000Y21500000D01*
D29*
X-36546000Y21500000D02*
X-35000000Y21500000D01*
D32*
X-9477202Y-34499994D02*
X-8556000Y-34499994D01*
X-3600000Y1400000D02*
X-20000000Y-15000000D01*
X-20000000Y-15000000D02*
X-20000000Y-33988801D01*
X-11145700Y-36168492D02*
X-9477202Y-34499994D01*
X-20000000Y-33988801D02*
X-17820309Y-36168492D01*
X-17820309Y-36168492D02*
X-11145700Y-36168492D01*
X-1699998Y3627801D02*
X-3172199Y3627801D01*
X-3600000Y1500000D02*
X-3600000Y1400000D01*
X-3172199Y3627801D02*
X-3400000Y3400000D01*
X-3400000Y3400000D02*
X-12210144Y3400000D01*
X-19416144Y10606000D02*
X-24106000Y10606000D01*
X-12210144Y3400000D02*
X-19416144Y10606000D01*
X-3400000Y3400000D02*
X-3600000Y3200000D01*
D29*
%TO.N,/CS0_MCU*%
X-36546000Y19500000D02*
X-35000000Y19500000D01*
%TO.N,/CS1_MCU*%
X-36546000Y18500000D02*
X-35000000Y18500000D01*
%TO.N,/CS2_MCU*%
X-36546000Y17500000D02*
X-35000000Y17500000D01*
%TO.N,+3.3V_MCU*%
X-35000000Y25500000D02*
X-35000000Y24500000D01*
D30*
X8714355Y20572500D02*
X9196855Y20090000D01*
X-11851500Y23340401D02*
X-11851500Y30883000D01*
D32*
X-13249996Y-34000000D02*
X-13000000Y-34249996D01*
D29*
X-33000000Y25500000D02*
X-33000000Y24500000D01*
D30*
X8532700Y-15557500D02*
X8374000Y-15398800D01*
D29*
X-35000000Y25500000D02*
X-34000000Y25500000D01*
D30*
X1550001Y9938900D02*
X-11851500Y23340401D01*
D29*
X-34000000Y24500000D02*
X-33000000Y24500000D01*
X-35000000Y24500000D02*
X-34000000Y24500000D01*
X-36546000Y25500000D02*
X-35000000Y25500000D01*
X-36546000Y24500000D02*
X-35000000Y24500000D01*
D32*
X-14533150Y-34000000D02*
X-13249996Y-34000000D01*
D30*
X9940000Y-15557500D02*
X8532700Y-15557500D01*
D29*
X-34000000Y25500000D02*
X-33000000Y25500000D01*
D30*
X1550001Y3627801D02*
X1550001Y9938900D01*
X9196855Y20090000D02*
X10000000Y20090000D01*
D29*
X-34000000Y25500000D02*
X-34000000Y24500000D01*
D32*
%TO.N,/MOSI_MCU*%
X-26500000Y14000000D02*
X-25000000Y14000000D01*
D29*
X-36546000Y22500000D02*
X-35000000Y22500000D01*
D32*
X-35000000Y22500000D02*
X-26500000Y14000000D01*
D30*
%TO.N,/COM_CNV*%
X15140000Y-14922500D02*
X20252500Y-14922500D01*
X15200000Y20725000D02*
X19547586Y20725000D01*
X20252500Y-14922500D02*
X21175000Y-14000000D01*
X19547586Y20725000D02*
X20822586Y22000000D01*
X20822586Y22000000D02*
X21175000Y22000000D01*
D29*
%TO.N,+5V_MCU*%
X-34000000Y27500000D02*
X-33000000Y27500000D01*
X-36546000Y26500000D02*
X-35000000Y26500000D01*
X-35000000Y26500000D02*
X-34000000Y26500000D01*
X-36546000Y27500000D02*
X-35000000Y27500000D01*
X-34000000Y26500000D02*
X-33000000Y26500000D01*
X-35000000Y27500000D02*
X-34000000Y27500000D01*
%TO.N,/SDA_MCU*%
X-36546000Y13500000D02*
X-35000000Y13500000D01*
%TO.N,/SCL_MCU*%
X-36546000Y12500000D02*
X-35000000Y12500000D01*
D32*
%TO.N,Net-(JP8-C)*%
X-1577026Y5500000D02*
X-1049999Y4972973D01*
X-3500000Y5500000D02*
X-1577026Y5500000D01*
X-1049999Y4972973D02*
X-1049999Y3627801D01*
%TO.N,Net-(JP9-C)*%
X-19567248Y8500000D02*
X-20000000Y8500000D01*
X-488099Y2449001D02*
X-13516249Y2449001D01*
X-404998Y3627801D02*
X-404998Y2532102D01*
X-404998Y2532102D02*
X-488099Y2449001D01*
X-20000000Y8500000D02*
X-23500000Y8500000D01*
X-13516249Y2449001D02*
X-19567248Y8500000D01*
X-23500000Y8500000D02*
X-24500000Y7500000D01*
D33*
%TO.N,unconnected-(U4-2A-Pad3)*%
X-17886799Y-34950001D02*
X-17466850Y-34950001D01*
D32*
%TO.N,/CS_LED*%
X-14533150Y-33049999D02*
X-13742600Y-33049999D01*
X-13292603Y-33499996D02*
X-8556000Y-33499996D01*
X-13742600Y-33049999D02*
X-13292603Y-33499996D01*
%TO.N,/A0*%
X-1705000Y-3627801D02*
X-1705000Y-2545000D01*
X-1750000Y-3582801D02*
X-1705000Y-3627801D01*
X-1705000Y-2545000D02*
X-2250000Y-2000000D01*
%TO.N,/A1*%
X-1054999Y-2195001D02*
X-1054999Y-3627801D01*
X-1000000Y-3572802D02*
X-1054999Y-3627801D01*
X-1250000Y-2000000D02*
X-1054999Y-2195001D01*
%TO.N,/A2*%
X-250000Y-2016377D02*
X-300999Y-2067376D01*
X-321899Y-3544700D02*
X-405000Y-3627801D01*
X-300999Y-2562900D02*
X-405000Y-2666901D01*
X-405000Y-2666901D02*
X-405000Y-3627801D01*
X-300999Y-2067376D02*
X-300999Y-2562900D01*
%TO.N,/RST*%
X498398Y-1501602D02*
X498398Y-2501602D01*
X498398Y-2501602D02*
X245001Y-2754999D01*
X245001Y-2754999D02*
X245001Y-3627801D01*
D29*
X-35000000Y15500000D02*
X-36546000Y15500000D01*
D32*
X500000Y-1500000D02*
X498398Y-1501602D01*
D29*
%TO.N,Net-(JM1-Pin_5)*%
X-36546000Y14500000D02*
X-35000000Y14500000D01*
%TD*%
%TA.AperFunction,Conductor*%
%TO.N,GND_MCU*%
G36*
X11443039Y40980315D02*
G01*
X11488794Y40927511D01*
X11500000Y40876000D01*
X11500000Y-40876000D01*
X11480315Y-40943039D01*
X11427511Y-40988794D01*
X11376000Y-41000000D01*
X-32693978Y-41000000D01*
X-32755978Y-40983387D01*
X-32873696Y-40915422D01*
X-32873712Y-40915414D01*
X-32928405Y-40889910D01*
X-32980844Y-40843738D01*
X-33000000Y-40777528D01*
X-33000000Y-39193247D01*
X-8384599Y-39193247D01*
X-8378198Y-39252775D01*
X-8378196Y-39252782D01*
X-8327954Y-39387489D01*
X-8327950Y-39387496D01*
X-8241790Y-39502590D01*
X-8241787Y-39502593D01*
X-8126693Y-39588753D01*
X-8126686Y-39588757D01*
X-7991979Y-39638999D01*
X-7991972Y-39639001D01*
X-7932444Y-39645402D01*
X-7932427Y-39645403D01*
X-6635999Y-39645403D01*
X-6135999Y-39645403D01*
X-4839571Y-39645403D01*
X-4839555Y-39645402D01*
X-4780027Y-39639001D01*
X-4780020Y-39638999D01*
X-4645313Y-39588757D01*
X-4645306Y-39588753D01*
X-4530212Y-39502593D01*
X-4530209Y-39502590D01*
X-4444049Y-39387496D01*
X-4444045Y-39387489D01*
X-4393803Y-39252782D01*
X-4393801Y-39252775D01*
X-4387400Y-39193247D01*
X-4387399Y-39193230D01*
X-4387399Y-38100003D01*
X-6135999Y-38100003D01*
X-6135999Y-39645403D01*
X-6635999Y-39645403D01*
X-6635999Y-38100003D01*
X-8384599Y-38100003D01*
X-8384599Y-39193247D01*
X-33000000Y-39193247D01*
X-33000000Y-33000000D01*
X-39375500Y-33000000D01*
X-39442539Y-32980315D01*
X-39488294Y-32927511D01*
X-39499500Y-32876000D01*
X-39499500Y6802156D01*
X-36375000Y6802156D01*
X-36368599Y6742628D01*
X-36368597Y6742621D01*
X-36318355Y6607914D01*
X-36318351Y6607907D01*
X-36232191Y6492813D01*
X-36232188Y6492810D01*
X-36117094Y6406650D01*
X-36117087Y6406646D01*
X-35982380Y6356404D01*
X-35982373Y6356402D01*
X-35922845Y6350001D01*
X-35922828Y6350000D01*
X-34625000Y6350000D01*
X-34125000Y6350000D01*
X-32827172Y6350000D01*
X-32827156Y6350001D01*
X-32767628Y6356402D01*
X-32767621Y6356404D01*
X-32632914Y6406646D01*
X-32632907Y6406650D01*
X-32517813Y6492810D01*
X-32517810Y6492813D01*
X-32431650Y6607907D01*
X-32431646Y6607914D01*
X-32381404Y6742621D01*
X-32381402Y6742628D01*
X-32375001Y6802156D01*
X-32375000Y6802173D01*
X-32375000Y7900000D01*
X-34125000Y7900000D01*
X-34125000Y6350000D01*
X-34625000Y6350000D01*
X-34625000Y7900000D01*
X-36375000Y7900000D01*
X-36375000Y6802156D01*
X-39499500Y6802156D01*
X-39499500Y9475248D01*
X-36375000Y9475248D01*
X-36375000Y8400000D01*
X-34625000Y8400000D01*
X-34125000Y8400000D01*
X-32375000Y8400000D01*
X-32375000Y9497828D01*
X-32375001Y9497845D01*
X-32381402Y9557373D01*
X-32381404Y9557380D01*
X-32431646Y9692087D01*
X-32431650Y9692094D01*
X-32517810Y9807188D01*
X-32517813Y9807191D01*
X-32632907Y9893351D01*
X-32632914Y9893355D01*
X-32767621Y9943597D01*
X-32767628Y9943599D01*
X-32827156Y9950000D01*
X-34125000Y9950000D01*
X-34125000Y8400000D01*
X-34625000Y8400000D01*
X-34625000Y9950000D01*
X-35029690Y9950000D01*
X-35096729Y9969685D01*
X-35142484Y10022489D01*
X-35152979Y10087256D01*
X-35146001Y10152156D01*
X-35146000Y10152173D01*
X-35146000Y10250000D01*
X-36296000Y10250000D01*
X-36296000Y9682001D01*
X-36298260Y9674307D01*
X-36296987Y9666389D01*
X-36306368Y9632364D01*
X-36375000Y9475248D01*
X-39499500Y9475248D01*
X-39499500Y10152156D01*
X-37946000Y10152156D01*
X-37939599Y10092628D01*
X-37939597Y10092621D01*
X-37889355Y9957914D01*
X-37889351Y9957907D01*
X-37803191Y9842813D01*
X-37803188Y9842810D01*
X-37688094Y9756650D01*
X-37688087Y9756646D01*
X-37553380Y9706404D01*
X-37553373Y9706402D01*
X-37493845Y9700001D01*
X-37493828Y9700000D01*
X-36796000Y9700000D01*
X-36796000Y10250000D01*
X-37946000Y10250000D01*
X-37946000Y10152156D01*
X-39499500Y10152156D01*
X-39499500Y11152156D01*
X-37946000Y11152156D01*
X-37939599Y11092628D01*
X-37939597Y11092620D01*
X-37921214Y11043333D01*
X-37916230Y10973641D01*
X-37921214Y10956667D01*
X-37939597Y10907381D01*
X-37939599Y10907373D01*
X-37946000Y10847845D01*
X-37946000Y10750000D01*
X-36796000Y10750000D01*
X-36296000Y10750000D01*
X-35146000Y10750000D01*
X-35146000Y10847828D01*
X-35146001Y10847845D01*
X-35152403Y10907378D01*
X-35152403Y10907379D01*
X-35170786Y10956665D01*
X-35175772Y11026356D01*
X-35170786Y11043335D01*
X-35152403Y11092622D01*
X-35152403Y11092623D01*
X-35146001Y11152156D01*
X-35146000Y11152173D01*
X-35146000Y11250000D01*
X-36296000Y11250000D01*
X-36296000Y10750000D01*
X-36796000Y10750000D01*
X-36796000Y11250000D01*
X-37946000Y11250000D01*
X-37946000Y11152156D01*
X-39499500Y11152156D01*
X-39499500Y23250000D01*
X-37946000Y23250000D01*
X-37946000Y23152156D01*
X-37939599Y23092628D01*
X-37939597Y23092621D01*
X-37889355Y22957914D01*
X-37889353Y22957912D01*
X-37803191Y22842814D01*
X-37803189Y22842812D01*
X-37796191Y22837573D01*
X-37754319Y22781641D01*
X-37746500Y22738305D01*
X-37746500Y22155144D01*
X-37746498Y22155118D01*
X-37743587Y22130013D01*
X-37743586Y22130012D01*
X-37743586Y22130010D01*
X-37743585Y22130009D01*
X-37708296Y22050087D01*
X-37699224Y21980809D01*
X-37708295Y21949915D01*
X-37743585Y21869991D01*
X-37746500Y21844869D01*
X-37746500Y21155144D01*
X-37746498Y21155118D01*
X-37743587Y21130013D01*
X-37743586Y21130012D01*
X-37743586Y21130010D01*
X-37743585Y21130009D01*
X-37708296Y21050087D01*
X-37699224Y20980809D01*
X-37708295Y20949915D01*
X-37743585Y20869991D01*
X-37746500Y20844869D01*
X-37746500Y20155144D01*
X-37746498Y20155118D01*
X-37743587Y20130013D01*
X-37743586Y20130012D01*
X-37743586Y20130010D01*
X-37743585Y20130009D01*
X-37708296Y20050087D01*
X-37699224Y19980809D01*
X-37708295Y19949917D01*
X-37727767Y19905816D01*
X-37743585Y19869991D01*
X-37746500Y19844869D01*
X-37746500Y19155144D01*
X-37746498Y19155118D01*
X-37743587Y19130013D01*
X-37743586Y19130012D01*
X-37743586Y19130010D01*
X-37743585Y19130009D01*
X-37708296Y19050087D01*
X-37699224Y18980809D01*
X-37708295Y18949917D01*
X-37716598Y18931110D01*
X-37743585Y18869991D01*
X-37746500Y18844869D01*
X-37746500Y18155144D01*
X-37746498Y18155118D01*
X-37743587Y18130013D01*
X-37743586Y18130012D01*
X-37743586Y18130010D01*
X-37743585Y18130009D01*
X-37708296Y18050087D01*
X-37699224Y17980809D01*
X-37708295Y17949917D01*
X-37727680Y17906012D01*
X-37743585Y17869991D01*
X-37746500Y17844869D01*
X-37746500Y17155144D01*
X-37746498Y17155118D01*
X-37743587Y17130013D01*
X-37743586Y17130012D01*
X-37743586Y17130010D01*
X-37743585Y17130009D01*
X-37708296Y17050087D01*
X-37699224Y16980809D01*
X-37708295Y16949917D01*
X-37716599Y16931109D01*
X-37743585Y16869991D01*
X-37746500Y16844869D01*
X-37746500Y16155144D01*
X-37746498Y16155118D01*
X-37743587Y16130013D01*
X-37743586Y16130012D01*
X-37743586Y16130010D01*
X-37743585Y16130009D01*
X-37708296Y16050087D01*
X-37699224Y15980809D01*
X-37708295Y15949917D01*
X-37738596Y15881290D01*
X-37743585Y15869991D01*
X-37746500Y15844869D01*
X-37746500Y15155144D01*
X-37746498Y15155118D01*
X-37743587Y15130013D01*
X-37743586Y15130012D01*
X-37743586Y15130010D01*
X-37743585Y15130009D01*
X-37708296Y15050087D01*
X-37699224Y14980809D01*
X-37708295Y14949917D01*
X-37716599Y14931109D01*
X-37743585Y14869991D01*
X-37746500Y14844869D01*
X-37746500Y14155144D01*
X-37746498Y14155118D01*
X-37743587Y14130013D01*
X-37743586Y14130012D01*
X-37743586Y14130010D01*
X-37743585Y14130009D01*
X-37708296Y14050087D01*
X-37699224Y13980809D01*
X-37708295Y13949917D01*
X-37743585Y13869991D01*
X-37746500Y13844869D01*
X-37746500Y13155144D01*
X-37746498Y13155118D01*
X-37743587Y13130013D01*
X-37743586Y13130012D01*
X-37743586Y13130010D01*
X-37743585Y13130009D01*
X-37708296Y13050087D01*
X-37699224Y12980809D01*
X-37708295Y12949917D01*
X-37716599Y12931109D01*
X-37743585Y12869991D01*
X-37746500Y12844869D01*
X-37746500Y12261697D01*
X-37766185Y12194658D01*
X-37796185Y12162434D01*
X-37803182Y12157196D01*
X-37803192Y12157186D01*
X-37889351Y12042094D01*
X-37889355Y12042087D01*
X-37939597Y11907380D01*
X-37939599Y11907373D01*
X-37946000Y11847845D01*
X-37946000Y11750000D01*
X-35146000Y11750000D01*
X-35132819Y11763181D01*
X-35071496Y11796666D01*
X-35045138Y11799500D01*
X-34931005Y11799500D01*
X-34839959Y11817611D01*
X-34795672Y11826420D01*
X-34668189Y11879225D01*
X-34553458Y11955886D01*
X-34455886Y12053458D01*
X-34379225Y12168189D01*
X-34326420Y12295672D01*
X-34299500Y12431007D01*
X-34299500Y12568993D01*
X-34299500Y12568996D01*
X-34326419Y12704323D01*
X-34326420Y12704324D01*
X-34326420Y12704328D01*
X-34326422Y12704333D01*
X-34379222Y12831805D01*
X-34379224Y12831809D01*
X-34379225Y12831811D01*
X-34445575Y12931110D01*
X-34466452Y12997786D01*
X-34447968Y13065166D01*
X-34445574Y13068891D01*
X-34416078Y13113035D01*
X-34379225Y13168189D01*
X-34326420Y13295672D01*
X-34305767Y13399501D01*
X-34299500Y13431005D01*
X-34299500Y13568996D01*
X-34326419Y13704323D01*
X-34326420Y13704324D01*
X-34326420Y13704328D01*
X-34326422Y13704333D01*
X-34379222Y13831805D01*
X-34379224Y13831809D01*
X-34379225Y13831811D01*
X-34445575Y13931110D01*
X-34466452Y13997786D01*
X-34447968Y14065166D01*
X-34445574Y14068891D01*
X-34438781Y14079057D01*
X-34379225Y14168189D01*
X-34326420Y14295672D01*
X-34311892Y14368710D01*
X-34299500Y14431005D01*
X-34299500Y14568996D01*
X-34326419Y14704323D01*
X-34326420Y14704324D01*
X-34326420Y14704328D01*
X-34326422Y14704333D01*
X-34379222Y14831805D01*
X-34379224Y14831809D01*
X-34379225Y14831811D01*
X-34445575Y14931110D01*
X-34466452Y14997786D01*
X-34447968Y15065166D01*
X-34445574Y15068891D01*
X-34379225Y15168189D01*
X-34326420Y15295672D01*
X-34299500Y15431007D01*
X-34299500Y15568993D01*
X-34299500Y15568996D01*
X-34326419Y15704323D01*
X-34326420Y15704324D01*
X-34326420Y15704328D01*
X-34366076Y15800067D01*
X-34379222Y15831805D01*
X-34379224Y15831809D01*
X-34379225Y15831811D01*
X-34445575Y15931110D01*
X-34466452Y15997786D01*
X-34447968Y16065166D01*
X-34445574Y16068891D01*
X-34439518Y16077954D01*
X-34379225Y16168189D01*
X-34326420Y16295672D01*
X-34299500Y16431007D01*
X-34299500Y16568993D01*
X-34299500Y16568996D01*
X-34326419Y16704323D01*
X-34326420Y16704324D01*
X-34326420Y16704328D01*
X-34326422Y16704333D01*
X-34379222Y16831805D01*
X-34379224Y16831809D01*
X-34379225Y16831811D01*
X-34445575Y16931110D01*
X-34466452Y16997786D01*
X-34447968Y17065166D01*
X-34445574Y17068891D01*
X-34425122Y17099500D01*
X-34379225Y17168189D01*
X-34326420Y17295672D01*
X-34299500Y17431007D01*
X-34299500Y17568993D01*
X-34299500Y17568996D01*
X-34326419Y17704323D01*
X-34326420Y17704324D01*
X-34326420Y17704328D01*
X-34363929Y17794883D01*
X-34379222Y17831805D01*
X-34379224Y17831809D01*
X-34379225Y17831811D01*
X-34445575Y17931110D01*
X-34466452Y17997786D01*
X-34447968Y18065166D01*
X-34445574Y18068891D01*
X-34436542Y18082408D01*
X-34379225Y18168189D01*
X-34326420Y18295672D01*
X-34317611Y18339959D01*
X-34299500Y18431005D01*
X-34299500Y18568996D01*
X-34326419Y18704323D01*
X-34326420Y18704324D01*
X-34326420Y18704328D01*
X-34326422Y18704333D01*
X-34379222Y18831805D01*
X-34379229Y18831818D01*
X-34445574Y18931110D01*
X-34451549Y18950190D01*
X-34462054Y18967198D01*
X-34461775Y18982850D01*
X-34466452Y18997788D01*
X-34461164Y19017067D01*
X-34460806Y19037056D01*
X-34448789Y19062174D01*
X-34447967Y19065168D01*
X-34445599Y19068854D01*
X-34433553Y19086883D01*
X-34379941Y19131685D01*
X-34310616Y19140391D01*
X-34247589Y19110235D01*
X-34242772Y19105669D01*
X-28486819Y13349716D01*
X-28453334Y13288393D01*
X-28450500Y13262035D01*
X-28450500Y9449931D01*
X-28470185Y9382892D01*
X-28476125Y9374443D01*
X-28480525Y9368710D01*
X-28559574Y9231791D01*
X-28559577Y9231784D01*
X-28600500Y9079057D01*
X-28600500Y8920943D01*
X-28584301Y8860490D01*
X-28559577Y8768217D01*
X-28559574Y8768210D01*
X-28480525Y8631291D01*
X-28480521Y8631286D01*
X-28480520Y8631284D01*
X-28368716Y8519480D01*
X-28368714Y8519479D01*
X-28368710Y8519476D01*
X-28231791Y8440427D01*
X-28231784Y8440423D01*
X-28079057Y8399500D01*
X-28079055Y8399500D01*
X-27920945Y8399500D01*
X-27920943Y8399500D01*
X-27768216Y8440423D01*
X-27631284Y8519480D01*
X-27519480Y8631284D01*
X-27440423Y8768216D01*
X-27399500Y8920943D01*
X-27399500Y9079057D01*
X-27440423Y9231784D01*
X-27440427Y9231791D01*
X-27519476Y9368710D01*
X-27519479Y9368713D01*
X-27519480Y9368716D01*
X-27519483Y9368719D01*
X-27523875Y9374443D01*
X-27549070Y9439612D01*
X-27549500Y9449931D01*
X-27549500Y13113035D01*
X-27529815Y13180074D01*
X-27477011Y13225829D01*
X-27407853Y13235773D01*
X-27344297Y13206748D01*
X-27337819Y13200716D01*
X-24382613Y10245510D01*
X-24382611Y10245509D01*
X-24382607Y10245506D01*
X-24279893Y10186205D01*
X-24279886Y10186201D01*
X-24165309Y10155500D01*
X-19654109Y10155500D01*
X-19587070Y10135815D01*
X-19566428Y10119181D01*
X-12558429Y3111182D01*
X-12524944Y3049859D01*
X-12529928Y2980167D01*
X-12571800Y2924234D01*
X-12637264Y2899817D01*
X-12646110Y2899501D01*
X-13278283Y2899501D01*
X-13345322Y2919186D01*
X-13365964Y2935820D01*
X-19290632Y8860487D01*
X-19290634Y8860489D01*
X-19341998Y8890144D01*
X-19393360Y8919799D01*
X-19405468Y8923043D01*
X-19417575Y8926287D01*
X-19417578Y8926288D01*
X-19455770Y8936522D01*
X-19507939Y8950500D01*
X-19940691Y8950500D01*
X-23559309Y8950500D01*
X-23628056Y8932080D01*
X-23673888Y8919799D01*
X-23673893Y8919796D01*
X-23776607Y8860495D01*
X-23776615Y8860489D01*
X-24500403Y8136701D01*
X-24561726Y8103216D01*
X-24571893Y8101444D01*
X-24579051Y8100502D01*
X-24731784Y8059577D01*
X-24731791Y8059574D01*
X-24868710Y7980525D01*
X-24868718Y7980519D01*
X-24980519Y7868718D01*
X-24980525Y7868710D01*
X-25059574Y7731791D01*
X-25059577Y7731784D01*
X-25100500Y7579057D01*
X-25100500Y7420943D01*
X-25065720Y7291144D01*
X-25059577Y7268217D01*
X-25059574Y7268210D01*
X-24980525Y7131291D01*
X-24980521Y7131286D01*
X-24980520Y7131284D01*
X-24868716Y7019480D01*
X-24868714Y7019479D01*
X-24868710Y7019476D01*
X-24801235Y6980520D01*
X-24731784Y6940423D01*
X-24579057Y6899500D01*
X-24579055Y6899500D01*
X-24420945Y6899500D01*
X-24420943Y6899500D01*
X-24268216Y6940423D01*
X-24131284Y7019480D01*
X-24019480Y7131284D01*
X-23940423Y7268216D01*
X-23899500Y7420943D01*
X-23899500Y7420956D01*
X-23898559Y7428099D01*
X-23870293Y7491997D01*
X-23863312Y7499586D01*
X-23349716Y8013181D01*
X-23288393Y8046666D01*
X-23262035Y8049500D01*
X-20059309Y8049500D01*
X-19805213Y8049500D01*
X-19738174Y8029815D01*
X-19717533Y8013182D01*
X-13792863Y2088511D01*
X-13690136Y2029202D01*
X-13665928Y2022717D01*
X-13665925Y2022715D01*
X-13665924Y2022715D01*
X-13635802Y2014644D01*
X-13575558Y1998501D01*
X-4220363Y1998501D01*
X-4153324Y1978816D01*
X-4107569Y1926012D01*
X-4097625Y1856854D01*
X-4112975Y1812502D01*
X-4159577Y1731785D01*
X-4159577Y1731784D01*
X-4200500Y1579057D01*
X-4200500Y1487965D01*
X-4220185Y1420926D01*
X-4236819Y1400284D01*
X-20360487Y-14723383D01*
X-20360491Y-14723389D01*
X-20419799Y-14826112D01*
X-20419800Y-14826117D01*
X-20427455Y-14854686D01*
X-20450500Y-14940691D01*
X-20450500Y-34048110D01*
X-20433246Y-34112503D01*
X-20419799Y-34162688D01*
X-20360489Y-34265415D01*
X-18096923Y-36528982D01*
X-18007705Y-36580491D01*
X-18007706Y-36580491D01*
X-18007703Y-36580492D01*
X-17994195Y-36588291D01*
X-17879618Y-36618992D01*
X-17879615Y-36618992D01*
X-11086392Y-36618992D01*
X-11086391Y-36618992D01*
X-10996027Y-36594778D01*
X-10971813Y-36588291D01*
X-10870617Y-36529865D01*
X-8384599Y-36529865D01*
X-8384599Y-37600003D01*
X-6635999Y-37600003D01*
X-6135999Y-37600003D01*
X-4387399Y-37600003D01*
X-4387399Y-36506775D01*
X-4387400Y-36506758D01*
X-4393801Y-36447230D01*
X-4393803Y-36447223D01*
X-4444045Y-36312516D01*
X-4444049Y-36312509D01*
X-4530209Y-36197415D01*
X-4530212Y-36197412D01*
X-4645306Y-36111252D01*
X-4645313Y-36111248D01*
X-4780020Y-36061006D01*
X-4780027Y-36061004D01*
X-4839555Y-36054603D01*
X-6135999Y-36054603D01*
X-6135999Y-37600003D01*
X-6635999Y-37600003D01*
X-6635999Y-36054603D01*
X-7036604Y-36054603D01*
X-7103643Y-36034918D01*
X-7149398Y-35982114D01*
X-7159893Y-35917347D01*
X-7154301Y-35865336D01*
X-7154300Y-35865319D01*
X-7154300Y-35749992D01*
X-8306000Y-35749992D01*
X-8306000Y-36327319D01*
X-8308399Y-36335486D01*
X-8307114Y-36343901D01*
X-8316763Y-36377850D01*
X-8384599Y-36529865D01*
X-10870617Y-36529865D01*
X-10869086Y-36528981D01*
X-10165011Y-35824905D01*
X-10103691Y-35791422D01*
X-10034000Y-35796406D01*
X-9978066Y-35838277D01*
X-9954044Y-35899331D01*
X-9951299Y-35924865D01*
X-9951297Y-35924871D01*
X-9901055Y-36059578D01*
X-9901051Y-36059585D01*
X-9814891Y-36174679D01*
X-9814888Y-36174682D01*
X-9699794Y-36260842D01*
X-9699787Y-36260846D01*
X-9565080Y-36311088D01*
X-9565073Y-36311090D01*
X-9505545Y-36317491D01*
X-9505528Y-36317492D01*
X-8806000Y-36317492D01*
X-8806000Y-35623992D01*
X-8786315Y-35556953D01*
X-8733511Y-35511198D01*
X-8682000Y-35499992D01*
X-8556000Y-35499992D01*
X-8556000Y-35373992D01*
X-8536315Y-35306953D01*
X-8483511Y-35261198D01*
X-8432000Y-35249992D01*
X-7154300Y-35249992D01*
X-7154300Y-35134664D01*
X-7154301Y-35134647D01*
X-7160702Y-35075119D01*
X-7160704Y-35075112D01*
X-7210946Y-34940405D01*
X-7210948Y-34940403D01*
X-7297110Y-34825305D01*
X-7297115Y-34825299D01*
X-7304115Y-34820059D01*
X-7345984Y-34764124D01*
X-7353801Y-34720799D01*
X-7353801Y-34137630D01*
X-7353803Y-34137611D01*
X-7356714Y-34112506D01*
X-7356715Y-34112503D01*
X-7365705Y-34092143D01*
X-7384278Y-34050080D01*
X-7393349Y-33980803D01*
X-7384279Y-33949911D01*
X-7356715Y-33887487D01*
X-7353800Y-33862361D01*
X-7353801Y-33137632D01*
X-7356715Y-33112505D01*
X-7356716Y-33112502D01*
X-7358199Y-33107051D01*
X-7356804Y-33037195D01*
X-7317864Y-32979183D01*
X-7253742Y-32951432D01*
X-7238548Y-32950498D01*
X1750067Y-32950498D01*
X1817106Y-32970183D01*
X1825557Y-32976125D01*
X1831289Y-32980524D01*
X1949137Y-33048562D01*
X1968216Y-33059577D01*
X2120943Y-33100500D01*
X2120945Y-33100500D01*
X2279055Y-33100500D01*
X2279057Y-33100500D01*
X2431784Y-33059577D01*
X2568716Y-32980520D01*
X2680520Y-32868716D01*
X2759577Y-32731784D01*
X2800500Y-32579057D01*
X2800500Y-32420943D01*
X2759577Y-32268216D01*
X2759576Y-32268214D01*
X2757473Y-32260365D01*
X2759809Y-32259739D01*
X2753658Y-32202472D01*
X2784939Y-32139996D01*
X2845031Y-32104349D01*
X2875686Y-32100500D01*
X2929055Y-32100500D01*
X2929057Y-32100500D01*
X3081784Y-32059577D01*
X3218716Y-31980520D01*
X3330520Y-31868716D01*
X3409577Y-31731784D01*
X3450500Y-31579057D01*
X3450500Y-31420943D01*
X3409577Y-31268216D01*
X3409576Y-31268214D01*
X3407473Y-31260365D01*
X3409809Y-31259739D01*
X3403658Y-31202472D01*
X3434939Y-31139996D01*
X3495031Y-31104349D01*
X3525686Y-31100500D01*
X3579055Y-31100500D01*
X3579057Y-31100500D01*
X3731784Y-31059577D01*
X3868716Y-30980520D01*
X3980520Y-30868716D01*
X4059577Y-30731784D01*
X4100500Y-30579057D01*
X4100500Y-30420943D01*
X4059577Y-30268216D01*
X4059576Y-30268214D01*
X4057473Y-30260365D01*
X4059809Y-30259739D01*
X4053658Y-30202472D01*
X4084939Y-30139996D01*
X4145031Y-30104349D01*
X4175686Y-30100500D01*
X4179055Y-30100500D01*
X4179057Y-30100500D01*
X4331784Y-30059577D01*
X4468716Y-29980520D01*
X4580520Y-29868716D01*
X4659577Y-29731784D01*
X4700500Y-29579057D01*
X4700500Y-29420943D01*
X4659577Y-29268216D01*
X4659576Y-29268214D01*
X4657473Y-29260365D01*
X4659809Y-29259739D01*
X4653658Y-29202472D01*
X4684939Y-29139996D01*
X4745031Y-29104349D01*
X4775686Y-29100500D01*
X4879055Y-29100500D01*
X4879057Y-29100500D01*
X5031784Y-29059577D01*
X5168716Y-28980520D01*
X5280520Y-28868716D01*
X5359577Y-28731784D01*
X5400500Y-28579057D01*
X5400500Y-28420943D01*
X5359577Y-28268216D01*
X5297964Y-28161499D01*
X5281492Y-28093599D01*
X5304345Y-28027573D01*
X5359266Y-27984382D01*
X5405352Y-27975500D01*
X5479055Y-27975500D01*
X5479057Y-27975500D01*
X5631784Y-27934577D01*
X5768716Y-27855520D01*
X5880520Y-27743716D01*
X5959577Y-27606784D01*
X6000500Y-27454057D01*
X6000500Y-27295943D01*
X5989956Y-27256592D01*
X5991619Y-27186743D01*
X6030782Y-27128881D01*
X6095010Y-27101377D01*
X6109731Y-27100500D01*
X6179055Y-27100500D01*
X6179057Y-27100500D01*
X6331784Y-27059577D01*
X6468716Y-26980520D01*
X6580520Y-26868716D01*
X6659577Y-26731784D01*
X6700500Y-26579057D01*
X6700500Y-26420943D01*
X6659577Y-26268216D01*
X6626831Y-26211499D01*
X6610359Y-26143600D01*
X6633212Y-26077573D01*
X6688133Y-26034382D01*
X6734219Y-26025500D01*
X6779055Y-26025500D01*
X6779057Y-26025500D01*
X6931784Y-25984577D01*
X7068716Y-25905520D01*
X7180520Y-25793716D01*
X7259577Y-25656784D01*
X7300500Y-25504057D01*
X7300500Y-25345943D01*
X7259577Y-25193216D01*
X7248885Y-25174696D01*
X7180524Y-25056290D01*
X7180518Y-25056282D01*
X7068717Y-24944481D01*
X7068709Y-24944475D01*
X6931790Y-24865426D01*
X6931786Y-24865424D01*
X6931784Y-24865423D01*
X6779057Y-24824500D01*
X6620943Y-24824500D01*
X6468216Y-24865423D01*
X6468209Y-24865426D01*
X6331290Y-24944475D01*
X6331282Y-24944481D01*
X6262577Y-25013187D01*
X6201254Y-25046672D01*
X6174896Y-25049506D01*
X-7036054Y-25049506D01*
X-7103093Y-25029821D01*
X-7148848Y-24977017D01*
X-7159343Y-24912251D01*
X-7154302Y-24865354D01*
X-7154300Y-24865335D01*
X-7154300Y-24750008D01*
X-9957700Y-24750008D01*
X-9957700Y-24865352D01*
X-9951299Y-24924880D01*
X-9951297Y-24924887D01*
X-9901055Y-25059594D01*
X-9901053Y-25059596D01*
X-9814891Y-25174694D01*
X-9814889Y-25174696D01*
X-9807891Y-25179935D01*
X-9766019Y-25235867D01*
X-9758200Y-25279203D01*
X-9758200Y-25862362D01*
X-9758198Y-25862388D01*
X-9755287Y-25887492D01*
X-9755286Y-25887496D01*
X-9755285Y-25887497D01*
X-9727723Y-25949919D01*
X-9718652Y-26019196D01*
X-9727723Y-26050089D01*
X-9755285Y-26112510D01*
X-9755285Y-26112512D01*
X-9758200Y-26137635D01*
X-9758200Y-26862360D01*
X-9758198Y-26862386D01*
X-9755287Y-26887490D01*
X-9755286Y-26887494D01*
X-9755285Y-26887495D01*
X-9727723Y-26949917D01*
X-9718652Y-27019194D01*
X-9727723Y-27050087D01*
X-9755285Y-27112508D01*
X-9755285Y-27112510D01*
X-9758200Y-27137633D01*
X-9758200Y-27862358D01*
X-9758198Y-27862384D01*
X-9755287Y-27887488D01*
X-9755286Y-27887492D01*
X-9755285Y-27887493D01*
X-9727723Y-27949915D01*
X-9718652Y-28019192D01*
X-9727723Y-28050085D01*
X-9755285Y-28112506D01*
X-9755285Y-28112508D01*
X-9758200Y-28137631D01*
X-9758200Y-28862356D01*
X-9758198Y-28862382D01*
X-9755287Y-28887487D01*
X-9755286Y-28887488D01*
X-9755286Y-28887490D01*
X-9755285Y-28887491D01*
X-9727723Y-28949913D01*
X-9718651Y-29019191D01*
X-9727722Y-29050083D01*
X-9751682Y-29104349D01*
X-9755285Y-29112509D01*
X-9758200Y-29137631D01*
X-9758200Y-29862356D01*
X-9758198Y-29862382D01*
X-9755287Y-29887487D01*
X-9755286Y-29887488D01*
X-9755286Y-29887490D01*
X-9755285Y-29887491D01*
X-9727723Y-29949913D01*
X-9718651Y-30019191D01*
X-9727722Y-30050083D01*
X-9751682Y-30104349D01*
X-9755285Y-30112509D01*
X-9758200Y-30137631D01*
X-9758200Y-30862356D01*
X-9758198Y-30862382D01*
X-9755287Y-30887487D01*
X-9755286Y-30887488D01*
X-9755286Y-30887490D01*
X-9755285Y-30887491D01*
X-9727723Y-30949913D01*
X-9718651Y-31019191D01*
X-9727722Y-31050083D01*
X-9751682Y-31104349D01*
X-9755285Y-31112509D01*
X-9758200Y-31137631D01*
X-9758200Y-31862356D01*
X-9758198Y-31862382D01*
X-9755287Y-31887486D01*
X-9755286Y-31887490D01*
X-9755285Y-31887491D01*
X-9727723Y-31949913D01*
X-9718652Y-32019190D01*
X-9727723Y-32050083D01*
X-9755285Y-32112504D01*
X-9755285Y-32112506D01*
X-9758200Y-32137629D01*
X-9758200Y-32862354D01*
X-9758198Y-32862380D01*
X-9755287Y-32887483D01*
X-9753801Y-32892943D01*
X-9755196Y-32962799D01*
X-9794136Y-33020811D01*
X-9858258Y-33048562D01*
X-9873452Y-33049496D01*
X-13054638Y-33049496D01*
X-13121677Y-33029811D01*
X-13142319Y-33013177D01*
X-13465984Y-32689512D01*
X-13465986Y-32689510D01*
X-13517350Y-32659855D01*
X-13568712Y-32630200D01*
X-13580820Y-32626956D01*
X-13592927Y-32623712D01*
X-13658628Y-32606107D01*
X-13658645Y-32606097D01*
X-13714214Y-32574014D01*
X-13769835Y-32518393D01*
X-13872608Y-32473014D01*
X-13897735Y-32470099D01*
X-15168557Y-32470099D01*
X-15168583Y-32470101D01*
X-15193688Y-32473012D01*
X-15193692Y-32473014D01*
X-15296465Y-32518392D01*
X-15375906Y-32597833D01*
X-15421285Y-32700605D01*
X-15421285Y-32700607D01*
X-15424200Y-32725730D01*
X-15424200Y-33374255D01*
X-15424198Y-33374281D01*
X-15421287Y-33399386D01*
X-15421285Y-33399390D01*
X-15387939Y-33474912D01*
X-15378867Y-33544190D01*
X-15387938Y-33575083D01*
X-15421285Y-33650606D01*
X-15421285Y-33650608D01*
X-15424200Y-33675731D01*
X-15424200Y-34324256D01*
X-15424198Y-34324282D01*
X-15421287Y-34349387D01*
X-15421285Y-34349391D01*
X-15387939Y-34424913D01*
X-15378867Y-34494191D01*
X-15387938Y-34525084D01*
X-15421285Y-34600607D01*
X-15421285Y-34600609D01*
X-15424200Y-34625732D01*
X-15424200Y-35274257D01*
X-15424198Y-35274283D01*
X-15421287Y-35299388D01*
X-15421285Y-35299392D01*
X-15375907Y-35402165D01*
X-15296466Y-35481606D01*
X-15286986Y-35488100D01*
X-15288059Y-35489665D01*
X-15245464Y-35525644D01*
X-15224937Y-35592430D01*
X-15243775Y-35659712D01*
X-15295999Y-35706129D01*
X-15348927Y-35717992D01*
X-16651073Y-35717992D01*
X-16718112Y-35698307D01*
X-16763867Y-35645503D01*
X-16773811Y-35576345D01*
X-16744786Y-35512789D01*
X-16712462Y-35488907D01*
X-16713014Y-35488100D01*
X-16703540Y-35481608D01*
X-16703535Y-35481607D01*
X-16624094Y-35402166D01*
X-16578715Y-35299392D01*
X-16575800Y-35274266D01*
X-16575801Y-34741095D01*
X-16556117Y-34674057D01*
X-16526111Y-34641828D01*
X-16519110Y-34636586D01*
X-16432948Y-34521488D01*
X-16432946Y-34521486D01*
X-16382704Y-34386779D01*
X-16382702Y-34386772D01*
X-16376301Y-34327244D01*
X-16376300Y-34327227D01*
X-16376300Y-34250000D01*
X-18557400Y-34250000D01*
X-18557400Y-34327244D01*
X-18550999Y-34386772D01*
X-18550997Y-34386779D01*
X-18503979Y-34512841D01*
X-18498995Y-34582533D01*
X-18532480Y-34643856D01*
X-18593803Y-34677340D01*
X-18663495Y-34672356D01*
X-18707842Y-34643855D01*
X-19513181Y-33838516D01*
X-19546666Y-33777193D01*
X-19549500Y-33750835D01*
X-19549500Y-15237964D01*
X-19529815Y-15170925D01*
X-19513186Y-15150288D01*
X-3465828Y897071D01*
X-3410243Y929163D01*
X-3368216Y940423D01*
X-3231284Y1019480D01*
X-3119480Y1131284D01*
X-3040423Y1268216D01*
X-2999500Y1420943D01*
X-2999500Y1579057D01*
X-3040423Y1731784D01*
X-3087025Y1812502D01*
X-3103497Y1880402D01*
X-3080644Y1946429D01*
X-3025722Y1989619D01*
X-2979637Y1998501D01*
X-425500Y1998501D01*
X-416815Y1995951D01*
X-407853Y1997239D01*
X-383813Y1986261D01*
X-358461Y1978816D01*
X-352534Y1971976D01*
X-344297Y1968214D01*
X-330008Y1945980D01*
X-312706Y1926012D01*
X-310419Y1915498D01*
X-306523Y1909436D01*
X-301500Y1874501D01*
X-301500Y1636965D01*
X-321185Y1569926D01*
X-337819Y1549284D01*
X-17827337Y-15940233D01*
X-17827341Y-15940239D01*
X-17886649Y-16042962D01*
X-17886650Y-16042967D01*
X-17917350Y-16157541D01*
X-17917350Y-32346099D01*
X-17937035Y-32413138D01*
X-17989839Y-32458893D01*
X-18041348Y-32470099D01*
X-18102257Y-32470099D01*
X-18102282Y-32470101D01*
X-18127389Y-32473013D01*
X-18127392Y-32473014D01*
X-18230165Y-32518392D01*
X-18309606Y-32597833D01*
X-18354985Y-32700605D01*
X-18354985Y-32700607D01*
X-18357900Y-32725730D01*
X-18357900Y-33258903D01*
X-18377585Y-33325942D01*
X-18407585Y-33358166D01*
X-18414582Y-33363404D01*
X-18414592Y-33363414D01*
X-18500751Y-33478506D01*
X-18500755Y-33478513D01*
X-18550997Y-33613220D01*
X-18550999Y-33613227D01*
X-18557400Y-33672755D01*
X-18557400Y-33750000D01*
X-16376300Y-33750000D01*
X-16376300Y-33672772D01*
X-16376301Y-33672755D01*
X-16382702Y-33613227D01*
X-16382704Y-33613220D01*
X-16432946Y-33478513D01*
X-16432948Y-33478511D01*
X-16519110Y-33363413D01*
X-16519115Y-33363407D01*
X-16526115Y-33358167D01*
X-16567984Y-33302232D01*
X-16575801Y-33258907D01*
X-16575801Y-32725735D01*
X-16575803Y-32725716D01*
X-16578714Y-32700611D01*
X-16578715Y-32700609D01*
X-16578715Y-32700608D01*
X-16624094Y-32597834D01*
X-16703535Y-32518393D01*
X-16703537Y-32518392D01*
X-16806308Y-32473014D01*
X-16831432Y-32470099D01*
X-16831435Y-32470099D01*
X-16892350Y-32470099D01*
X-16959389Y-32450414D01*
X-17005144Y-32397610D01*
X-17016350Y-32346099D01*
X-17016350Y-24134663D01*
X-9957700Y-24134663D01*
X-9957700Y-24250008D01*
X-8806000Y-24250008D01*
X-8806000Y-23682508D01*
X-9505545Y-23682508D01*
X-9565073Y-23688909D01*
X-9565080Y-23688911D01*
X-9699787Y-23739153D01*
X-9699794Y-23739157D01*
X-9814888Y-23825317D01*
X-9814891Y-23825320D01*
X-9901051Y-23940414D01*
X-9901055Y-23940421D01*
X-9951297Y-24075128D01*
X-9951299Y-24075135D01*
X-9957700Y-24134663D01*
X-17016350Y-24134663D01*
X-17016350Y-23493216D01*
X-8384599Y-23493216D01*
X-8384598Y-23493235D01*
X-8378226Y-23552507D01*
X-8347139Y-23580430D01*
X-8310419Y-23639873D01*
X-8306000Y-23672680D01*
X-8306000Y-24250008D01*
X-7154300Y-24250008D01*
X-7154300Y-24134680D01*
X-7154301Y-24134663D01*
X-7159893Y-24082653D01*
X-7147488Y-24013893D01*
X-7099878Y-23962756D01*
X-7036604Y-23945397D01*
X-6635999Y-23945397D01*
X-6135999Y-23945397D01*
X-4839571Y-23945397D01*
X-4839555Y-23945396D01*
X-4780027Y-23938995D01*
X-4780020Y-23938993D01*
X-4645313Y-23888751D01*
X-4645306Y-23888747D01*
X-4530212Y-23802587D01*
X-4530209Y-23802584D01*
X-4444049Y-23687490D01*
X-4444045Y-23687483D01*
X-4393803Y-23552776D01*
X-4393801Y-23552769D01*
X-4387400Y-23493241D01*
X-4387399Y-23493224D01*
X-4387399Y-22399997D01*
X-6135999Y-22399997D01*
X-6135999Y-23945397D01*
X-6635999Y-23945397D01*
X-6635999Y-22399997D01*
X-8384599Y-22399997D01*
X-8384599Y-23493216D01*
X-17016350Y-23493216D01*
X-17016350Y-20806752D01*
X-8384599Y-20806752D01*
X-8384599Y-21899997D01*
X-6635999Y-21899997D01*
X-6135999Y-21899997D01*
X-4387399Y-21899997D01*
X-4387399Y-20806769D01*
X-4387400Y-20806752D01*
X-4393801Y-20747224D01*
X-4393803Y-20747217D01*
X-4444045Y-20612510D01*
X-4444049Y-20612503D01*
X-4530209Y-20497409D01*
X-4530212Y-20497406D01*
X-4645306Y-20411246D01*
X-4645313Y-20411242D01*
X-4780020Y-20361000D01*
X-4780027Y-20360998D01*
X-4839555Y-20354597D01*
X-6135999Y-20354597D01*
X-6135999Y-21899997D01*
X-6635999Y-21899997D01*
X-6635999Y-20354597D01*
X-7932444Y-20354597D01*
X-7991972Y-20360998D01*
X-7991979Y-20361000D01*
X-8126686Y-20411242D01*
X-8126693Y-20411246D01*
X-8241787Y-20497406D01*
X-8241790Y-20497409D01*
X-8327950Y-20612503D01*
X-8327954Y-20612510D01*
X-8378196Y-20747217D01*
X-8378198Y-20747224D01*
X-8384599Y-20806752D01*
X-17016350Y-20806752D01*
X-17016350Y-16454814D01*
X-16996665Y-16387775D01*
X-16980036Y-16367138D01*
X-2936694Y-2323795D01*
X-2875373Y-2290312D01*
X-2805681Y-2295296D01*
X-2749748Y-2337168D01*
X-2741629Y-2349476D01*
X-2730523Y-2368712D01*
X-2730521Y-2368715D01*
X-2730520Y-2368716D01*
X-2618716Y-2480520D01*
X-2618714Y-2480521D01*
X-2618710Y-2480524D01*
X-2502193Y-2547794D01*
X-2481784Y-2559577D01*
X-2329057Y-2600500D01*
X-2329055Y-2600500D01*
X-2326413Y-2600848D01*
X-2324349Y-2601761D01*
X-2321207Y-2602603D01*
X-2321339Y-2603092D01*
X-2262516Y-2629113D01*
X-2224044Y-2687437D01*
X-2219422Y-2738073D01*
X-2221399Y-2755118D01*
X-2221400Y-2755137D01*
X-2221400Y-4500458D01*
X-2221398Y-4500484D01*
X-2218487Y-4525589D01*
X-2218485Y-4525593D01*
X-2173107Y-4628366D01*
X-2173106Y-4628367D01*
X-2093665Y-4707808D01*
X-1990891Y-4753187D01*
X-1965765Y-4756102D01*
X-1444236Y-4756101D01*
X-1444221Y-4756099D01*
X-1444218Y-4756099D01*
X-1437343Y-4755301D01*
X-1419109Y-4753187D01*
X-1419106Y-4753185D01*
X-1412554Y-4751404D01*
X-1347447Y-4751403D01*
X-1340895Y-4753185D01*
X-1340890Y-4753187D01*
X-1315764Y-4756102D01*
X-794235Y-4756101D01*
X-794220Y-4756099D01*
X-794217Y-4756099D01*
X-769112Y-4753188D01*
X-762550Y-4751403D01*
X-697439Y-4751405D01*
X-690897Y-4753184D01*
X-690891Y-4753187D01*
X-665765Y-4756102D01*
X-144236Y-4756101D01*
X-144221Y-4756099D01*
X-144218Y-4756099D01*
X-137343Y-4755301D01*
X-119109Y-4753187D01*
X-119106Y-4753185D01*
X-112554Y-4751404D01*
X-47447Y-4751403D01*
X-40895Y-4753185D01*
X-40890Y-4753187D01*
X-15764Y-4756102D01*
X505765Y-4756101D01*
X505780Y-4756099D01*
X505783Y-4756099D01*
X530888Y-4753188D01*
X537441Y-4751405D01*
X602554Y-4751404D01*
X609105Y-4753186D01*
X609108Y-4753187D01*
X634234Y-4756102D01*
X1155763Y-4756101D01*
X1155778Y-4756099D01*
X1155781Y-4756099D01*
X1180885Y-4753188D01*
X1180887Y-4753187D01*
X1180890Y-4753187D01*
X1180892Y-4753186D01*
X1187438Y-4751405D01*
X1252557Y-4751404D01*
X1259107Y-4753186D01*
X1259110Y-4753187D01*
X1284236Y-4756102D01*
X1625499Y-4756101D01*
X1692538Y-4775785D01*
X1738293Y-4828589D01*
X1749499Y-4880101D01*
X1749499Y-11900070D01*
X1729814Y-11967109D01*
X1723875Y-11975557D01*
X1719474Y-11981291D01*
X1640426Y-12118209D01*
X1640423Y-12118216D01*
X1599500Y-12270943D01*
X1599500Y-12429056D01*
X1640423Y-12581783D01*
X1640426Y-12581790D01*
X1719473Y-12718706D01*
X1719477Y-12718712D01*
X1719480Y-12718716D01*
X1719482Y-12718718D01*
X1723872Y-12724438D01*
X1749069Y-12789606D01*
X1749500Y-12799930D01*
X1749500Y-13467831D01*
X1764520Y-13523882D01*
X1764521Y-13523887D01*
X1780199Y-13582404D01*
X1780201Y-13582407D01*
X1839511Y-13685134D01*
X6612366Y-18457989D01*
X6715093Y-18517299D01*
X6739301Y-18523784D01*
X6739304Y-18523786D01*
X6739305Y-18523786D01*
X6769427Y-18531857D01*
X6829671Y-18548000D01*
X9137215Y-18548000D01*
X9187300Y-18558565D01*
X9270009Y-18595085D01*
X9295135Y-18598000D01*
X10584864Y-18597999D01*
X10584879Y-18597997D01*
X10584882Y-18597997D01*
X10609987Y-18595086D01*
X10609988Y-18595085D01*
X10609991Y-18595085D01*
X10712765Y-18549706D01*
X10792206Y-18470265D01*
X10837585Y-18367491D01*
X10840500Y-18342365D01*
X10840499Y-17852636D01*
X10837585Y-17827509D01*
X10837584Y-17827506D01*
X10835136Y-17818508D01*
X10837136Y-17817963D01*
X10829651Y-17760810D01*
X10835310Y-17741535D01*
X10835137Y-17741488D01*
X10837584Y-17732493D01*
X10837583Y-17732493D01*
X10837585Y-17732491D01*
X10840500Y-17707365D01*
X10840499Y-17217636D01*
X10837585Y-17192509D01*
X10837584Y-17192506D01*
X10835136Y-17183508D01*
X10837136Y-17182963D01*
X10829651Y-17125810D01*
X10835310Y-17106535D01*
X10835137Y-17106488D01*
X10837584Y-17097493D01*
X10837583Y-17097493D01*
X10837585Y-17097491D01*
X10840500Y-17072365D01*
X10840499Y-16582636D01*
X10837585Y-16557509D01*
X10837584Y-16557506D01*
X10835136Y-16548508D01*
X10837136Y-16547963D01*
X10829651Y-16490810D01*
X10835310Y-16471535D01*
X10835137Y-16471488D01*
X10837584Y-16462493D01*
X10837583Y-16462493D01*
X10837585Y-16462491D01*
X10840500Y-16437365D01*
X10840499Y-15947636D01*
X10839641Y-15940236D01*
X10837586Y-15922514D01*
X10835136Y-15913508D01*
X10837136Y-15912963D01*
X10829651Y-15855810D01*
X10835310Y-15836535D01*
X10835137Y-15836488D01*
X10837584Y-15827493D01*
X10837583Y-15827493D01*
X10837585Y-15827491D01*
X10840500Y-15802365D01*
X10840499Y-15584195D01*
X10860183Y-15517157D01*
X10890194Y-15484925D01*
X10897188Y-15479689D01*
X10983352Y-15364588D01*
X10983354Y-15364586D01*
X11033596Y-15229879D01*
X11033598Y-15229872D01*
X11039999Y-15170344D01*
X11040000Y-15170327D01*
X11040000Y-15122500D01*
X10776280Y-15122500D01*
X10767594Y-15119949D01*
X10758633Y-15121238D01*
X10724209Y-15107818D01*
X10723275Y-15109935D01*
X10712765Y-15105294D01*
X10626026Y-15066995D01*
X10609992Y-15059915D01*
X10584868Y-15057000D01*
X10584865Y-15057000D01*
X10064000Y-15057000D01*
X10055314Y-15054449D01*
X10046353Y-15055738D01*
X10022312Y-15044759D01*
X9996961Y-15037315D01*
X9991033Y-15030474D01*
X9982797Y-15026713D01*
X9968507Y-15004478D01*
X9951206Y-14984511D01*
X9948918Y-14973996D01*
X9945023Y-14967935D01*
X9940000Y-14933000D01*
X9940000Y-14911999D01*
X9959685Y-14844960D01*
X10012489Y-14799205D01*
X10063998Y-14787999D01*
X10584864Y-14787999D01*
X10584879Y-14787997D01*
X10584882Y-14787997D01*
X10609987Y-14785086D01*
X10609988Y-14785085D01*
X10609991Y-14785085D01*
X10712765Y-14739706D01*
X10712766Y-14739704D01*
X10723122Y-14735132D01*
X10724769Y-14733706D01*
X10749180Y-14730196D01*
X10772631Y-14722554D01*
X10776280Y-14722500D01*
X11040000Y-14722500D01*
X11040000Y-14674672D01*
X11039999Y-14674655D01*
X11033598Y-14615127D01*
X11033596Y-14615120D01*
X10983354Y-14480413D01*
X10983352Y-14480411D01*
X10897190Y-14365313D01*
X10897185Y-14365307D01*
X10890185Y-14360067D01*
X10848316Y-14304132D01*
X10840499Y-14260803D01*
X10840499Y-14042643D01*
X10840499Y-14042636D01*
X10837585Y-14017509D01*
X10837584Y-14017506D01*
X10835136Y-14008508D01*
X10837136Y-14007963D01*
X10829651Y-13950810D01*
X10835310Y-13931535D01*
X10835137Y-13931488D01*
X10837584Y-13922493D01*
X10837583Y-13922493D01*
X10837585Y-13922491D01*
X10840500Y-13897365D01*
X10840499Y-13407636D01*
X10837585Y-13382509D01*
X10837584Y-13382506D01*
X10835136Y-13373508D01*
X10837136Y-13372963D01*
X10829651Y-13315810D01*
X10835310Y-13296535D01*
X10835137Y-13296488D01*
X10837584Y-13287493D01*
X10837583Y-13287493D01*
X10837585Y-13287491D01*
X10840500Y-13262365D01*
X10840499Y-12772636D01*
X10840497Y-12772617D01*
X10837586Y-12747514D01*
X10835136Y-12738508D01*
X10837136Y-12737963D01*
X10829651Y-12680810D01*
X10835310Y-12661535D01*
X10835137Y-12661488D01*
X10837584Y-12652493D01*
X10837583Y-12652493D01*
X10837585Y-12652491D01*
X10840500Y-12627365D01*
X10840499Y-12137636D01*
X10838247Y-12118216D01*
X10837586Y-12112512D01*
X10837585Y-12112510D01*
X10837585Y-12112509D01*
X10792206Y-12009735D01*
X10712765Y-11930294D01*
X10692699Y-11921434D01*
X10609992Y-11884915D01*
X10584865Y-11882000D01*
X9295143Y-11882000D01*
X9295117Y-11882002D01*
X9270012Y-11884913D01*
X9270008Y-11884914D01*
X9187301Y-11921434D01*
X9137215Y-11932000D01*
X7670466Y-11932000D01*
X7603427Y-11912315D01*
X7582785Y-11895681D01*
X7386700Y-11699596D01*
X7353215Y-11638273D01*
X7351442Y-11628100D01*
X7350500Y-11620944D01*
X7350500Y-11620943D01*
X7309577Y-11468216D01*
X7309573Y-11468209D01*
X7230524Y-11331290D01*
X7230521Y-11331287D01*
X7230520Y-11331284D01*
X7230517Y-11331281D01*
X7226125Y-11325557D01*
X7200930Y-11260388D01*
X7200500Y-11250069D01*
X7200500Y-4683073D01*
X7211066Y-4632986D01*
X7213105Y-4628367D01*
X7213106Y-4628367D01*
X7258485Y-4525593D01*
X7261400Y-4500467D01*
X7261399Y-2755136D01*
X7261397Y-2755117D01*
X7258486Y-2730012D01*
X7258485Y-2730010D01*
X7258485Y-2730009D01*
X7213106Y-2627235D01*
X7133665Y-2547794D01*
X7030892Y-2502415D01*
X7005765Y-2499500D01*
X6484243Y-2499500D01*
X6484219Y-2499502D01*
X6459106Y-2502414D01*
X6452539Y-2504201D01*
X6387448Y-2504199D01*
X6380891Y-2502415D01*
X6355764Y-2499500D01*
X5834242Y-2499500D01*
X5834216Y-2499502D01*
X5809110Y-2502414D01*
X5802549Y-2504199D01*
X5737452Y-2504199D01*
X5730896Y-2502415D01*
X5705765Y-2499500D01*
X5184243Y-2499500D01*
X5184219Y-2499502D01*
X5159106Y-2502414D01*
X5152539Y-2504201D01*
X5087448Y-2504199D01*
X5080891Y-2502415D01*
X5055764Y-2499500D01*
X4534242Y-2499500D01*
X4534218Y-2499502D01*
X4509104Y-2502414D01*
X4502541Y-2504200D01*
X4437446Y-2504198D01*
X4430893Y-2502415D01*
X4405766Y-2499500D01*
X3884244Y-2499500D01*
X3884220Y-2499502D01*
X3859111Y-2502414D01*
X3852547Y-2504200D01*
X3787446Y-2504199D01*
X3780891Y-2502415D01*
X3780890Y-2502415D01*
X3755764Y-2499500D01*
X3234242Y-2499500D01*
X3234218Y-2499502D01*
X3209104Y-2502414D01*
X3202541Y-2504200D01*
X3137446Y-2504198D01*
X3130893Y-2502415D01*
X3105766Y-2499500D01*
X2584244Y-2499500D01*
X2584220Y-2499502D01*
X2559111Y-2502414D01*
X2552547Y-2504200D01*
X2487446Y-2504199D01*
X2480891Y-2502415D01*
X2480890Y-2502415D01*
X2455764Y-2499500D01*
X1934242Y-2499500D01*
X1934218Y-2499502D01*
X1909104Y-2502414D01*
X1902541Y-2504200D01*
X1837446Y-2504198D01*
X1830893Y-2502415D01*
X1805766Y-2499500D01*
X1284244Y-2499500D01*
X1284220Y-2499502D01*
X1259111Y-2502414D01*
X1252547Y-2504200D01*
X1212386Y-2508314D01*
X1191315Y-2507017D01*
X1180890Y-2502415D01*
X1155764Y-2499500D01*
X1069089Y-2499500D01*
X1065285Y-2499266D01*
X1035866Y-2488626D01*
X1005859Y-2479815D01*
X1003282Y-2476841D01*
X999581Y-2475503D01*
X980580Y-2450642D01*
X960104Y-2427011D01*
X959142Y-2422592D01*
X957154Y-2419990D01*
X956300Y-2409529D01*
X948898Y-2375500D01*
X948898Y-1951700D01*
X968583Y-1884661D01*
X975984Y-1875476D01*
X975574Y-1875161D01*
X980514Y-1868721D01*
X980520Y-1868716D01*
X1059577Y-1731784D01*
X1100500Y-1579057D01*
X1100500Y-1420943D01*
X1059577Y-1268216D01*
X1059573Y-1268209D01*
X980524Y-1131290D01*
X980518Y-1131282D01*
X868717Y-1019481D01*
X868709Y-1019475D01*
X731790Y-940426D01*
X731786Y-940424D01*
X731784Y-940423D01*
X579057Y-899500D01*
X420943Y-899500D01*
X268216Y-940423D01*
X268209Y-940426D01*
X131290Y-1019475D01*
X131282Y-1019481D01*
X19481Y-1131282D01*
X19475Y-1131290D01*
X-59574Y-1268209D01*
X-59577Y-1268214D01*
X-74516Y-1323971D01*
X-110881Y-1383631D01*
X-173728Y-1414160D01*
X-194291Y-1415877D01*
X-329057Y-1415877D01*
X-481784Y-1456800D01*
X-481791Y-1456803D01*
X-618710Y-1535852D01*
X-618718Y-1535858D01*
X-654132Y-1571272D01*
X-715455Y-1604757D01*
X-785147Y-1599771D01*
X-829493Y-1571271D01*
X-881283Y-1519481D01*
X-881291Y-1519475D01*
X-1018210Y-1440426D01*
X-1018214Y-1440424D01*
X-1018216Y-1440423D01*
X-1170943Y-1399500D01*
X-1329057Y-1399500D01*
X-1481784Y-1440423D01*
X-1481791Y-1440426D01*
X-1618710Y-1519475D01*
X-1618718Y-1519481D01*
X-1662319Y-1563083D01*
X-1665495Y-1564816D01*
X-1667405Y-1567890D01*
X-1695929Y-1581435D01*
X-1723642Y-1596568D01*
X-1727252Y-1596309D01*
X-1730520Y-1597862D01*
X-1761835Y-1593836D01*
X-1793334Y-1591584D01*
X-1797285Y-1589279D01*
X-1799819Y-1588954D01*
X-1811344Y-1581079D01*
X-1829793Y-1570318D01*
X-1833892Y-1566872D01*
X-1881284Y-1519480D01*
X-1909963Y-1502922D01*
X-1918315Y-1495901D01*
X-1931854Y-1475512D01*
X-1948738Y-1457803D01*
X-1950835Y-1446926D01*
X-1956964Y-1437695D01*
X-1957330Y-1413221D01*
X-1961960Y-1389196D01*
X-1957843Y-1378911D01*
X-1958008Y-1367833D01*
X-1945087Y-1347049D01*
X-1935991Y-1324332D01*
X-1926212Y-1313313D01*
X509489Y1122386D01*
X568799Y1225113D01*
X580348Y1268216D01*
X599500Y1339691D01*
X599500Y2041781D01*
X616114Y2103782D01*
X669797Y2196763D01*
X669798Y2196764D01*
X669798Y2196766D01*
X669800Y2196768D01*
X685534Y2255489D01*
X700501Y2311346D01*
X700501Y2572529D01*
X706270Y2592180D01*
X707168Y2612641D01*
X711067Y2622616D01*
X713106Y2627235D01*
X713107Y2627235D01*
X758486Y2730009D01*
X761401Y2755135D01*
X761400Y4500466D01*
X761398Y4500485D01*
X758487Y4525590D01*
X758486Y4525592D01*
X758486Y4525593D01*
X713107Y4628367D01*
X713106Y4628368D01*
X708466Y4638878D01*
X711403Y4640176D01*
X710333Y4643463D01*
X699156Y4662583D01*
X696180Y4686915D01*
X695554Y4688837D01*
X695820Y4689855D01*
X695501Y4692467D01*
X695501Y4814306D01*
X695500Y4814310D01*
X683327Y4859744D01*
X679102Y4891836D01*
X679102Y4955602D01*
X661699Y4973005D01*
X653927Y4975287D01*
X613579Y5017602D01*
X605490Y5031613D01*
X-176217Y5813320D01*
X-209702Y5874643D01*
X-204718Y5944335D01*
X-162846Y6000268D01*
X-97382Y6024685D01*
X-88536Y6025001D01*
X-1692Y6025001D01*
X-1678Y6025002D01*
X97607Y6035145D01*
X258481Y6088453D01*
X258492Y6088458D01*
X402728Y6177425D01*
X402732Y6177428D01*
X522573Y6297269D01*
X532081Y6312683D01*
X584029Y6359408D01*
X652991Y6370631D01*
X712544Y6346392D01*
X790025Y6287636D01*
X924410Y6234641D01*
X940284Y6232735D01*
X1004498Y6205198D01*
X1043632Y6147316D01*
X1049501Y6109619D01*
X1049501Y4592483D01*
X1043353Y4563339D01*
X1042898Y4552560D01*
X1040301Y4548872D01*
X1038936Y4542398D01*
X1031516Y4525595D01*
X1031516Y4525594D01*
X1031516Y4525593D01*
X1028601Y4500467D01*
X1028601Y3850500D01*
X1028602Y3627801D01*
X1028602Y2755144D01*
X1028603Y2755118D01*
X1031514Y2730013D01*
X1031516Y2730009D01*
X1076894Y2627236D01*
X1083389Y2617755D01*
X1081666Y2616575D01*
X1090539Y2600325D01*
X1107295Y2571556D01*
X1107217Y2569783D01*
X1108068Y2568224D01*
X1110902Y2541866D01*
X1110902Y2300000D01*
X1158730Y2300000D01*
X1158746Y2300001D01*
X1218274Y2306402D01*
X1218281Y2306404D01*
X1352988Y2356646D01*
X1352990Y2356648D01*
X1468090Y2442811D01*
X1473331Y2449811D01*
X1529265Y2491683D01*
X1572596Y2499501D01*
X1805765Y2499501D01*
X1805780Y2499503D01*
X1805783Y2499503D01*
X1812658Y2500301D01*
X1830892Y2502415D01*
X1830895Y2502417D01*
X1837447Y2504198D01*
X1902554Y2504199D01*
X1909106Y2502417D01*
X1909111Y2502415D01*
X1934237Y2499500D01*
X2455766Y2499501D01*
X2455781Y2499503D01*
X2455784Y2499503D01*
X2480889Y2502414D01*
X2487451Y2504199D01*
X2552562Y2504197D01*
X2559104Y2502418D01*
X2559110Y2502415D01*
X2584236Y2499500D01*
X3105765Y2499501D01*
X3105780Y2499503D01*
X3105783Y2499503D01*
X3130888Y2502414D01*
X3137441Y2504197D01*
X3202554Y2504198D01*
X3209105Y2502416D01*
X3209108Y2502415D01*
X3234234Y2499500D01*
X3755763Y2499501D01*
X3755778Y2499503D01*
X3755781Y2499503D01*
X3780885Y2502414D01*
X3780887Y2502415D01*
X3780890Y2502415D01*
X3780892Y2502416D01*
X3787438Y2504197D01*
X3852557Y2504198D01*
X3859107Y2502416D01*
X3859110Y2502415D01*
X3884236Y2499500D01*
X4405765Y2499501D01*
X4405780Y2499503D01*
X4405783Y2499503D01*
X4430888Y2502414D01*
X4437441Y2504197D01*
X4502554Y2504198D01*
X4509105Y2502416D01*
X4509108Y2502415D01*
X4534234Y2499500D01*
X5055763Y2499501D01*
X5055778Y2499503D01*
X5055781Y2499503D01*
X5062656Y2500301D01*
X5080890Y2502415D01*
X5080893Y2502417D01*
X5087445Y2504198D01*
X5152552Y2504199D01*
X5159104Y2502417D01*
X5159109Y2502415D01*
X5184235Y2499500D01*
X5705764Y2499501D01*
X5705779Y2499503D01*
X5705782Y2499503D01*
X5730887Y2502414D01*
X5737449Y2504199D01*
X5802560Y2504197D01*
X5809102Y2502418D01*
X5809108Y2502415D01*
X5834234Y2499500D01*
X6355763Y2499501D01*
X6355778Y2499503D01*
X6355781Y2499503D01*
X6362656Y2500301D01*
X6380890Y2502415D01*
X6380893Y2502417D01*
X6387445Y2504198D01*
X6452552Y2504199D01*
X6459104Y2502417D01*
X6459109Y2502415D01*
X6484235Y2499500D01*
X7005764Y2499501D01*
X7005779Y2499503D01*
X7005782Y2499503D01*
X7030887Y2502414D01*
X7030888Y2502415D01*
X7030891Y2502415D01*
X7133665Y2547794D01*
X7213106Y2627235D01*
X7258485Y2730009D01*
X7261400Y2755135D01*
X7261399Y4500466D01*
X7261397Y4500485D01*
X7258486Y4525589D01*
X7258485Y4525591D01*
X7258485Y4525593D01*
X7213106Y4628367D01*
X7213104Y4628369D01*
X7211065Y4632988D01*
X7200500Y4683074D01*
X7200500Y15150070D01*
X7220185Y15217109D01*
X7226128Y15225562D01*
X7230512Y15231277D01*
X7230520Y15231284D01*
X7309577Y15368216D01*
X7350500Y15520943D01*
X7350500Y15679057D01*
X7309577Y15831784D01*
X7253869Y15928274D01*
X7237397Y15996174D01*
X7260250Y16062201D01*
X7273570Y16077948D01*
X8258804Y17063181D01*
X8320127Y17096666D01*
X8346485Y17099500D01*
X9197215Y17099500D01*
X9247300Y17088935D01*
X9330009Y17052415D01*
X9355135Y17049500D01*
X10644864Y17049501D01*
X10644879Y17049503D01*
X10644882Y17049503D01*
X10669987Y17052414D01*
X10669988Y17052415D01*
X10669991Y17052415D01*
X10772765Y17097794D01*
X10852206Y17177235D01*
X10897585Y17280009D01*
X10900500Y17305135D01*
X10900499Y17794864D01*
X10897585Y17819991D01*
X10897584Y17819994D01*
X10895136Y17828992D01*
X10897136Y17829537D01*
X10889651Y17886690D01*
X10895310Y17905965D01*
X10895137Y17906012D01*
X10897584Y17915007D01*
X10897583Y17915007D01*
X10897585Y17915009D01*
X10900500Y17940135D01*
X10900499Y18429864D01*
X10900367Y18431005D01*
X10897586Y18454986D01*
X10895136Y18463992D01*
X10897136Y18464537D01*
X10889651Y18521690D01*
X10895310Y18540965D01*
X10895137Y18541012D01*
X10897584Y18550007D01*
X10897583Y18550007D01*
X10897585Y18550009D01*
X10900500Y18575135D01*
X10900499Y19064864D01*
X10897585Y19089991D01*
X10897584Y19089994D01*
X10895136Y19098992D01*
X10897136Y19099537D01*
X10889651Y19156690D01*
X10895310Y19175965D01*
X10895137Y19176012D01*
X10897584Y19185007D01*
X10897583Y19185007D01*
X10897585Y19185009D01*
X10900500Y19210135D01*
X10900499Y19699864D01*
X10897585Y19724991D01*
X10897584Y19724994D01*
X10895136Y19733992D01*
X10897136Y19734537D01*
X10889651Y19791690D01*
X10895310Y19810965D01*
X10895137Y19811012D01*
X10897584Y19820007D01*
X10897583Y19820007D01*
X10897585Y19820009D01*
X10900500Y19845135D01*
X10900499Y20063305D01*
X10920183Y20130343D01*
X10950194Y20162575D01*
X10957188Y20167811D01*
X11043352Y20282912D01*
X11043354Y20282914D01*
X11093596Y20417621D01*
X11093598Y20417628D01*
X11099999Y20477156D01*
X11100000Y20477173D01*
X11100000Y20525000D01*
X10836280Y20525000D01*
X10827594Y20527551D01*
X10818633Y20526262D01*
X10784209Y20539682D01*
X10783275Y20537565D01*
X10772765Y20542206D01*
X10693081Y20577390D01*
X10669992Y20587585D01*
X10644868Y20590500D01*
X10644865Y20590500D01*
X10124000Y20590500D01*
X10115314Y20593051D01*
X10106353Y20591762D01*
X10082312Y20602741D01*
X10056961Y20610185D01*
X10051033Y20617026D01*
X10042797Y20620787D01*
X10028507Y20643022D01*
X10011206Y20662989D01*
X10008918Y20673504D01*
X10005023Y20679565D01*
X10000000Y20714500D01*
X10000000Y20735501D01*
X10019685Y20802540D01*
X10072489Y20848295D01*
X10123998Y20859501D01*
X10644864Y20859501D01*
X10644879Y20859503D01*
X10644882Y20859503D01*
X10669987Y20862414D01*
X10669988Y20862415D01*
X10669991Y20862415D01*
X10772765Y20907794D01*
X10772766Y20907796D01*
X10783122Y20912368D01*
X10784769Y20913794D01*
X10809180Y20917304D01*
X10832631Y20924946D01*
X10836280Y20925000D01*
X11100000Y20925000D01*
X11100000Y20972828D01*
X11099999Y20972845D01*
X11093598Y21032373D01*
X11093596Y21032380D01*
X11043354Y21167087D01*
X11043352Y21167089D01*
X10957190Y21282187D01*
X10957185Y21282193D01*
X10950185Y21287433D01*
X10908316Y21343368D01*
X10900499Y21386697D01*
X10900499Y21604857D01*
X10900499Y21604864D01*
X10897585Y21629991D01*
X10897584Y21629994D01*
X10895136Y21638992D01*
X10897136Y21639537D01*
X10889651Y21696690D01*
X10895310Y21715965D01*
X10895137Y21716012D01*
X10897584Y21725007D01*
X10897583Y21725007D01*
X10897585Y21725009D01*
X10900500Y21750135D01*
X10900499Y22239864D01*
X10897585Y22264991D01*
X10897584Y22264994D01*
X10895136Y22273992D01*
X10897136Y22274537D01*
X10889651Y22331690D01*
X10895310Y22350965D01*
X10895137Y22351012D01*
X10897584Y22360007D01*
X10897583Y22360007D01*
X10897585Y22360009D01*
X10900500Y22385135D01*
X10900499Y22874864D01*
X10897585Y22899991D01*
X10897584Y22899994D01*
X10895136Y22908992D01*
X10897136Y22909537D01*
X10889651Y22966690D01*
X10895310Y22985965D01*
X10895137Y22986012D01*
X10897584Y22995007D01*
X10897583Y22995007D01*
X10897585Y22995009D01*
X10900500Y23020135D01*
X10900499Y23509864D01*
X10900497Y23509883D01*
X10897586Y23534988D01*
X10897585Y23534990D01*
X10897585Y23534991D01*
X10852206Y23637765D01*
X10772765Y23717206D01*
X10752699Y23726066D01*
X10669992Y23762585D01*
X10644865Y23765500D01*
X9355143Y23765500D01*
X9355117Y23765498D01*
X9330012Y23762587D01*
X9330008Y23762586D01*
X9247301Y23726066D01*
X9197215Y23715500D01*
X7497171Y23715500D01*
X7406805Y23691287D01*
X7406804Y23691288D01*
X7382595Y23684800D01*
X7382586Y23684796D01*
X7279872Y23625495D01*
X7279864Y23625489D01*
X1839513Y18185137D01*
X1839509Y18185131D01*
X1780201Y18082408D01*
X1780200Y18082403D01*
X1749500Y17967829D01*
X1749500Y16699931D01*
X1729815Y16632892D01*
X1723875Y16624443D01*
X1719475Y16618710D01*
X1640426Y16481791D01*
X1640423Y16481784D01*
X1599500Y16329057D01*
X1599500Y16170943D01*
X1638007Y16027235D01*
X1640423Y16018217D01*
X1640426Y16018210D01*
X1719475Y15881290D01*
X1723875Y15875557D01*
X1749072Y15810389D01*
X1749502Y15800067D01*
X1749502Y10746575D01*
X1729817Y10679536D01*
X1677013Y10633781D01*
X1607855Y10623837D01*
X1544299Y10652862D01*
X1537821Y10658894D01*
X-7946201Y20142916D01*
X-7979686Y20204239D01*
X-7974702Y20273931D01*
X-7932830Y20329864D01*
X-7867366Y20354281D01*
X-7858520Y20354597D01*
X-6635999Y20354597D01*
X-6135999Y20354597D01*
X-4839571Y20354597D01*
X-4839555Y20354598D01*
X-4780027Y20360999D01*
X-4780020Y20361001D01*
X-4645313Y20411243D01*
X-4645306Y20411247D01*
X-4530212Y20497407D01*
X-4530209Y20497410D01*
X-4444049Y20612504D01*
X-4444045Y20612511D01*
X-4393803Y20747218D01*
X-4393801Y20747225D01*
X-4387400Y20806753D01*
X-4387399Y20806770D01*
X-4387399Y21899997D01*
X-6135999Y21899997D01*
X-6135999Y20354597D01*
X-6635999Y20354597D01*
X-6635999Y21899997D01*
X-8384599Y21899997D01*
X-8384599Y20880676D01*
X-8404284Y20813637D01*
X-8457088Y20767882D01*
X-8526246Y20757938D01*
X-8589802Y20786963D01*
X-8596280Y20792995D01*
X-11273420Y23470135D01*
X-8384599Y23470135D01*
X-8384599Y22399997D01*
X-6635999Y22399997D01*
X-6135999Y22399997D01*
X-4387399Y22399997D01*
X-4387399Y23493225D01*
X-4387400Y23493242D01*
X-4393801Y23552770D01*
X-4393803Y23552777D01*
X-4444045Y23687484D01*
X-4444049Y23687491D01*
X-4530209Y23802585D01*
X-4530212Y23802588D01*
X-4645306Y23888748D01*
X-4645313Y23888752D01*
X-4780020Y23938994D01*
X-4780027Y23938996D01*
X-4839555Y23945397D01*
X-6135999Y23945397D01*
X-6135999Y22399997D01*
X-6635999Y22399997D01*
X-6635999Y23945397D01*
X-7036604Y23945397D01*
X-7103643Y23965082D01*
X-7149398Y24017886D01*
X-7159893Y24082653D01*
X-7154301Y24134664D01*
X-7154300Y24134681D01*
X-7154300Y24250008D01*
X-8306000Y24250008D01*
X-8306000Y23672681D01*
X-8308399Y23664514D01*
X-8307114Y23656099D01*
X-8316763Y23622150D01*
X-8384599Y23470135D01*
X-11273420Y23470135D01*
X-11314681Y23511396D01*
X-11348166Y23572719D01*
X-11351000Y23599077D01*
X-11351000Y24134664D01*
X-9957700Y24134664D01*
X-9951299Y24075136D01*
X-9951297Y24075129D01*
X-9901055Y23940422D01*
X-9901051Y23940415D01*
X-9814891Y23825321D01*
X-9814888Y23825318D01*
X-9699794Y23739158D01*
X-9699787Y23739154D01*
X-9565080Y23688912D01*
X-9565073Y23688910D01*
X-9505545Y23682509D01*
X-9505528Y23682508D01*
X-8806000Y23682508D01*
X-8806000Y24250008D01*
X-9957700Y24250008D01*
X-9957700Y24134664D01*
X-11351000Y24134664D01*
X-11351000Y30341482D01*
X-11331315Y30408521D01*
X-11314677Y30429167D01*
X-11313844Y30430000D01*
X-11307386Y30436458D01*
X-11230725Y30551189D01*
X-11177920Y30678672D01*
X-11151000Y30814007D01*
X-11151000Y30951993D01*
X-11151000Y30951996D01*
X-11177919Y31087323D01*
X-11177920Y31087324D01*
X-11177920Y31087328D01*
X-11188350Y31112509D01*
X-11230722Y31214805D01*
X-11230729Y31214818D01*
X-11307386Y31329542D01*
X-11307389Y31329546D01*
X-11404955Y31427112D01*
X-11404959Y31427115D01*
X-11519683Y31503772D01*
X-11519696Y31503779D01*
X-11647168Y31556579D01*
X-11647178Y31556582D01*
X-11782505Y31583500D01*
X-11782507Y31583500D01*
X-11920493Y31583500D01*
X-11920495Y31583500D01*
X-12055823Y31556582D01*
X-12055833Y31556579D01*
X-12183305Y31503779D01*
X-12183318Y31503772D01*
X-12298042Y31427115D01*
X-12298046Y31427112D01*
X-12395612Y31329546D01*
X-12395615Y31329542D01*
X-12472272Y31214818D01*
X-12472279Y31214805D01*
X-12525079Y31087333D01*
X-12525082Y31087323D01*
X-12552000Y30951996D01*
X-12552000Y30951993D01*
X-12552000Y30814007D01*
X-12552000Y30814005D01*
X-12552001Y30814005D01*
X-12525082Y30678678D01*
X-12525079Y30678668D01*
X-12472279Y30551196D01*
X-12472272Y30551183D01*
X-12395615Y30436459D01*
X-12388323Y30429167D01*
X-12354835Y30367845D01*
X-12352000Y30341482D01*
X-12352000Y23274510D01*
X-12317892Y23147214D01*
X-12289238Y23097585D01*
X-12252000Y23033087D01*
X-12251998Y23033085D01*
X1013182Y9767905D01*
X1046667Y9706582D01*
X1049501Y9680224D01*
X1049501Y7890382D01*
X1029816Y7823343D01*
X977012Y7777588D01*
X940289Y7767267D01*
X924414Y7765361D01*
X790023Y7712364D01*
X712545Y7653610D01*
X647233Y7628787D01*
X578869Y7643215D01*
X532082Y7687316D01*
X522573Y7702732D01*
X402732Y7822573D01*
X402728Y7822576D01*
X258492Y7911543D01*
X258481Y7911548D01*
X97606Y7964856D01*
X-1678Y7975000D01*
X-25000Y7975000D01*
X-25000Y7124000D01*
X-44685Y7056961D01*
X-97489Y7011206D01*
X-149000Y7000000D01*
X-275000Y7000000D01*
X-275000Y6874000D01*
X-294685Y6806961D01*
X-347489Y6761206D01*
X-399000Y6750000D01*
X-1224999Y6750000D01*
X-1253972Y6721027D01*
X-1315296Y6687543D01*
X-1384987Y6692528D01*
X-1440921Y6734399D01*
X-1449037Y6746704D01*
X-1519480Y6868716D01*
X-1631284Y6980520D01*
X-1631286Y6980521D01*
X-1631291Y6980525D01*
X-1768210Y7059574D01*
X-1768214Y7059576D01*
X-1768216Y7059577D01*
X-1920943Y7100500D01*
X-2079057Y7100500D01*
X-2231784Y7059577D01*
X-2231791Y7059574D01*
X-2368710Y6980525D01*
X-2368718Y6980519D01*
X-2480519Y6868718D01*
X-2480525Y6868710D01*
X-2559574Y6731791D01*
X-2559577Y6731784D01*
X-2600500Y6579057D01*
X-2600500Y6420943D01*
X-2564780Y6287636D01*
X-2559577Y6268217D01*
X-2559577Y6268216D01*
X-2483531Y6136499D01*
X-2467059Y6068599D01*
X-2489912Y6002572D01*
X-2544834Y5959382D01*
X-2590919Y5950500D01*
X-3050069Y5950500D01*
X-3117108Y5970185D01*
X-3125557Y5976125D01*
X-3131291Y5980525D01*
X-3268210Y6059574D01*
X-3268214Y6059576D01*
X-3268216Y6059577D01*
X-3420943Y6100500D01*
X-3579057Y6100500D01*
X-3731784Y6059577D01*
X-3731791Y6059574D01*
X-3868710Y5980525D01*
X-3868718Y5980519D01*
X-3980519Y5868718D01*
X-3980525Y5868710D01*
X-4059574Y5731791D01*
X-4059577Y5731784D01*
X-4100500Y5579057D01*
X-4100500Y5420944D01*
X-4059577Y5268217D01*
X-4059574Y5268210D01*
X-3980525Y5131291D01*
X-3980521Y5131286D01*
X-3980520Y5131284D01*
X-3868716Y5019480D01*
X-3868714Y5019479D01*
X-3868710Y5019476D01*
X-3769843Y4962396D01*
X-3731784Y4940423D01*
X-3579057Y4899500D01*
X-3579055Y4899500D01*
X-3420945Y4899500D01*
X-3420943Y4899500D01*
X-3268216Y4940423D01*
X-3131284Y5019480D01*
X-3131279Y5019486D01*
X-3125557Y5023875D01*
X-3060388Y5049070D01*
X-3050069Y5049500D01*
X-1814991Y5049500D01*
X-1785551Y5040856D01*
X-1755564Y5034332D01*
X-1750549Y5030578D01*
X-1747952Y5029815D01*
X-1727310Y5013181D01*
X-1681912Y4967783D01*
X-1648427Y4906460D01*
X-1653411Y4836768D01*
X-1695283Y4780835D01*
X-1760747Y4756418D01*
X-1769592Y4756102D01*
X-1965755Y4756102D01*
X-1965781Y4756100D01*
X-1990886Y4753189D01*
X-1990890Y4753187D01*
X-2093663Y4707809D01*
X-2173104Y4628368D01*
X-2218483Y4525596D01*
X-2218483Y4525594D01*
X-2221398Y4500471D01*
X-2221398Y4202301D01*
X-2241083Y4135262D01*
X-2293887Y4089507D01*
X-2345398Y4078301D01*
X-3231508Y4078301D01*
X-3321874Y4054088D01*
X-3321875Y4054089D01*
X-3346083Y4047602D01*
X-3346086Y4047601D01*
X-3448813Y3988290D01*
X-3448816Y3988288D01*
X-3550284Y3886819D01*
X-3611607Y3853334D01*
X-3637965Y3850500D01*
X-11972179Y3850500D01*
X-12039218Y3870185D01*
X-12059860Y3886819D01*
X-15471364Y7298323D01*
X-1225000Y7298323D01*
X-1225000Y7250000D01*
X-525000Y7250000D01*
X-525000Y7975001D01*
X-548307Y7975000D01*
X-548326Y7974999D01*
X-647608Y7964856D01*
X-808482Y7911548D01*
X-808493Y7911543D01*
X-952729Y7822576D01*
X-952733Y7822573D01*
X-1072573Y7702733D01*
X-1072576Y7702729D01*
X-1161543Y7558493D01*
X-1161548Y7558482D01*
X-1214856Y7397607D01*
X-1225000Y7298323D01*
X-15471364Y7298323D01*
X-19139528Y10966487D01*
X-19139530Y10966489D01*
X-19190894Y10996144D01*
X-19242256Y11025799D01*
X-19254364Y11029043D01*
X-19266471Y11032287D01*
X-19266474Y11032288D01*
X-19307703Y11043335D01*
X-19356835Y11056500D01*
X-19356836Y11056500D01*
X-23868035Y11056500D01*
X-23935074Y11076185D01*
X-23955716Y11092819D01*
X-26200716Y13337819D01*
X-26234201Y13399142D01*
X-26229217Y13468834D01*
X-26187345Y13524767D01*
X-26121881Y13549184D01*
X-26113035Y13549500D01*
X-25449931Y13549500D01*
X-25382892Y13529815D01*
X-25374443Y13523875D01*
X-25368719Y13519483D01*
X-25368716Y13519480D01*
X-25368713Y13519479D01*
X-25368710Y13519476D01*
X-25280994Y13468834D01*
X-25231784Y13440423D01*
X-25079057Y13399500D01*
X-25079055Y13399500D01*
X-24920945Y13399500D01*
X-24920943Y13399500D01*
X-24768216Y13440423D01*
X-24631284Y13519480D01*
X-24519480Y13631284D01*
X-24440423Y13768216D01*
X-24399500Y13920943D01*
X-24399500Y14079057D01*
X-24440423Y14231784D01*
X-24477312Y14295678D01*
X-24519476Y14368710D01*
X-24519482Y14368718D01*
X-24631283Y14480519D01*
X-24631291Y14480525D01*
X-24768210Y14559574D01*
X-24768214Y14559576D01*
X-24768216Y14559577D01*
X-24920943Y14600500D01*
X-25079057Y14600500D01*
X-25231784Y14559577D01*
X-25231791Y14559574D01*
X-25368710Y14480525D01*
X-25374443Y14476125D01*
X-25439612Y14450930D01*
X-25449931Y14450500D01*
X-26262035Y14450500D01*
X-26329074Y14470185D01*
X-26349716Y14486819D01*
X-34263181Y22400284D01*
X-34296666Y22461607D01*
X-34299500Y22487965D01*
X-34299500Y22568996D01*
X-34326419Y22704323D01*
X-34326420Y22704324D01*
X-34326420Y22704328D01*
X-34326422Y22704333D01*
X-34379222Y22831805D01*
X-34379229Y22831818D01*
X-34455886Y22946542D01*
X-34455889Y22946546D01*
X-34553455Y23044112D01*
X-34553459Y23044115D01*
X-34668183Y23120772D01*
X-34668196Y23120779D01*
X-34795668Y23173579D01*
X-34795678Y23173582D01*
X-34931005Y23200500D01*
X-34931007Y23200500D01*
X-35045138Y23200500D01*
X-35112177Y23220185D01*
X-35132819Y23236819D01*
X-35146000Y23250000D01*
X-37946000Y23250000D01*
X-39499500Y23250000D01*
X-39499500Y28152156D01*
X-37946000Y28152156D01*
X-37939599Y28092628D01*
X-37939597Y28092621D01*
X-37889355Y27957914D01*
X-37889353Y27957912D01*
X-37803191Y27842814D01*
X-37803189Y27842812D01*
X-37796191Y27837573D01*
X-37754319Y27781641D01*
X-37746500Y27738305D01*
X-37746500Y27155144D01*
X-37746498Y27155118D01*
X-37743587Y27130013D01*
X-37743586Y27130012D01*
X-37743586Y27130010D01*
X-37743585Y27130009D01*
X-37708296Y27050087D01*
X-37699224Y26980809D01*
X-37708295Y26949917D01*
X-37733448Y26892949D01*
X-37743585Y26869991D01*
X-37746500Y26844869D01*
X-37746500Y26155144D01*
X-37746498Y26155118D01*
X-37743587Y26130013D01*
X-37743586Y26130012D01*
X-37743586Y26130010D01*
X-37743585Y26130009D01*
X-37708296Y26050087D01*
X-37699224Y25980809D01*
X-37708293Y25949921D01*
X-37716599Y25931109D01*
X-37743585Y25869991D01*
X-37746500Y25844869D01*
X-37746500Y25155144D01*
X-37746498Y25155118D01*
X-37743587Y25130013D01*
X-37743586Y25130012D01*
X-37743586Y25130010D01*
X-37743585Y25130009D01*
X-37708296Y25050087D01*
X-37699224Y24980809D01*
X-37708295Y24949915D01*
X-37743585Y24869991D01*
X-37746500Y24844869D01*
X-37746500Y24261697D01*
X-37766185Y24194658D01*
X-37796185Y24162434D01*
X-37803182Y24157196D01*
X-37803192Y24157186D01*
X-37889351Y24042094D01*
X-37889355Y24042087D01*
X-37939597Y23907380D01*
X-37939599Y23907373D01*
X-37946000Y23847845D01*
X-37946000Y23750000D01*
X-35146000Y23750000D01*
X-35132819Y23763181D01*
X-35071496Y23796666D01*
X-35045138Y23799500D01*
X-34931005Y23799500D01*
X-34839959Y23817611D01*
X-34795672Y23826420D01*
X-34668189Y23879225D01*
X-34668189Y23879226D01*
X-34662819Y23882095D01*
X-34662124Y23880795D01*
X-34651073Y23884254D01*
X-34635165Y23894477D01*
X-34604196Y23898930D01*
X-34602438Y23899480D01*
X-34600230Y23899500D01*
X-34399770Y23899500D01*
X-34337631Y23881254D01*
X-34337181Y23882095D01*
X-34333141Y23879936D01*
X-34332731Y23879815D01*
X-34331913Y23879279D01*
X-34331810Y23879224D01*
X-34256053Y23847845D01*
X-34204328Y23826420D01*
X-34204324Y23826420D01*
X-34204323Y23826419D01*
X-34068996Y23799500D01*
X-34068993Y23799500D01*
X-33931005Y23799500D01*
X-33839959Y23817611D01*
X-33795672Y23826420D01*
X-33668189Y23879225D01*
X-33668189Y23879226D01*
X-33662819Y23882095D01*
X-33662124Y23880795D01*
X-33651073Y23884254D01*
X-33635165Y23894477D01*
X-33604196Y23898930D01*
X-33602438Y23899480D01*
X-33600230Y23899500D01*
X-33399770Y23899500D01*
X-33337631Y23881254D01*
X-33337181Y23882095D01*
X-33333141Y23879936D01*
X-33332731Y23879815D01*
X-33331913Y23879279D01*
X-33331810Y23879224D01*
X-33256053Y23847845D01*
X-33204328Y23826420D01*
X-33204324Y23826420D01*
X-33204323Y23826419D01*
X-33068996Y23799500D01*
X-33068993Y23799500D01*
X-32931005Y23799500D01*
X-32839959Y23817611D01*
X-32795672Y23826420D01*
X-32668189Y23879225D01*
X-32553458Y23955886D01*
X-32455886Y24053458D01*
X-32379225Y24168189D01*
X-32326420Y24295672D01*
X-32299500Y24431007D01*
X-32299500Y24568993D01*
X-32299500Y24568996D01*
X-32326419Y24704323D01*
X-32326420Y24704324D01*
X-32326420Y24704328D01*
X-32345341Y24750008D01*
X-32379224Y24831810D01*
X-32382095Y24837181D01*
X-32380795Y24837877D01*
X-32384254Y24848928D01*
X-32394477Y24864835D01*
X-32398930Y24895805D01*
X-32399480Y24897562D01*
X-32399500Y24899770D01*
X-32399500Y25100231D01*
X-32381254Y25162373D01*
X-32382094Y25162822D01*
X-32379936Y25166860D01*
X-32379815Y25167270D01*
X-32379279Y25168090D01*
X-32379229Y25168184D01*
X-32379225Y25168189D01*
X-32326420Y25295672D01*
X-32299500Y25431007D01*
X-32299500Y25568993D01*
X-32299500Y25568996D01*
X-32326419Y25704323D01*
X-32326420Y25704324D01*
X-32326420Y25704328D01*
X-32326422Y25704333D01*
X-32379222Y25831805D01*
X-32379224Y25831809D01*
X-32379225Y25831811D01*
X-32445575Y25931110D01*
X-32466452Y25997786D01*
X-32447968Y26065166D01*
X-32445574Y26068891D01*
X-32379225Y26168189D01*
X-32326420Y26295672D01*
X-32299500Y26431007D01*
X-32299500Y26568993D01*
X-32299500Y26568996D01*
X-32326419Y26704323D01*
X-32326420Y26704324D01*
X-32326420Y26704328D01*
X-32326422Y26704333D01*
X-32379222Y26831805D01*
X-32379224Y26831809D01*
X-32379225Y26831811D01*
X-32445575Y26931110D01*
X-32466452Y26997786D01*
X-32447968Y27065166D01*
X-32445574Y27068891D01*
X-32416425Y27112516D01*
X-32379225Y27168189D01*
X-32326420Y27295672D01*
X-32301502Y27420943D01*
X-32299500Y27431005D01*
X-32299500Y27568996D01*
X-32326419Y27704323D01*
X-32326420Y27704324D01*
X-32326420Y27704328D01*
X-32326422Y27704333D01*
X-32379222Y27831805D01*
X-32379229Y27831818D01*
X-32455886Y27946542D01*
X-32455889Y27946546D01*
X-32553455Y28044112D01*
X-32553459Y28044115D01*
X-32668183Y28120772D01*
X-32668196Y28120779D01*
X-32795668Y28173579D01*
X-32795678Y28173582D01*
X-32931005Y28200500D01*
X-32931007Y28200500D01*
X-33068993Y28200500D01*
X-33068995Y28200500D01*
X-33204323Y28173582D01*
X-33204333Y28173579D01*
X-33331810Y28120777D01*
X-33337181Y28117905D01*
X-33337877Y28119206D01*
X-33348928Y28115747D01*
X-33364835Y28105523D01*
X-33395805Y28101071D01*
X-33397562Y28100520D01*
X-33399770Y28100500D01*
X-33600230Y28100500D01*
X-33662370Y28118747D01*
X-33662819Y28117905D01*
X-33666860Y28120065D01*
X-33667269Y28120185D01*
X-33668088Y28120722D01*
X-33668191Y28120777D01*
X-33795668Y28173579D01*
X-33795678Y28173582D01*
X-33931005Y28200500D01*
X-33931007Y28200500D01*
X-34068993Y28200500D01*
X-34068995Y28200500D01*
X-34204323Y28173582D01*
X-34204333Y28173579D01*
X-34331810Y28120777D01*
X-34337181Y28117905D01*
X-34337877Y28119206D01*
X-34348928Y28115747D01*
X-34364835Y28105523D01*
X-34395805Y28101071D01*
X-34397562Y28100520D01*
X-34399770Y28100500D01*
X-34600230Y28100500D01*
X-34662370Y28118747D01*
X-34662819Y28117905D01*
X-34666860Y28120065D01*
X-34667269Y28120185D01*
X-34668088Y28120722D01*
X-34668191Y28120777D01*
X-34795668Y28173579D01*
X-34795678Y28173582D01*
X-34931005Y28200500D01*
X-34931007Y28200500D01*
X-35045138Y28200500D01*
X-35112177Y28220185D01*
X-35132819Y28236819D01*
X-35146000Y28250000D01*
X-37946000Y28250000D01*
X-37946000Y28152156D01*
X-39499500Y28152156D01*
X-39499500Y29152156D01*
X-37946000Y29152156D01*
X-37939599Y29092628D01*
X-37939597Y29092620D01*
X-37921214Y29043333D01*
X-37916230Y28973641D01*
X-37921214Y28956667D01*
X-37939597Y28907381D01*
X-37939599Y28907373D01*
X-37946000Y28847845D01*
X-37946000Y28750000D01*
X-36796000Y28750000D01*
X-36296000Y28750000D01*
X-35146000Y28750000D01*
X-35146000Y28847828D01*
X-35146001Y28847845D01*
X-35152403Y28907378D01*
X-35152403Y28907379D01*
X-35170786Y28956665D01*
X-35175772Y29026356D01*
X-35170786Y29043335D01*
X-35152403Y29092622D01*
X-35152403Y29092623D01*
X-35146001Y29152156D01*
X-35146000Y29152173D01*
X-35146000Y29250000D01*
X-36296000Y29250000D01*
X-36296000Y28750000D01*
X-36796000Y28750000D01*
X-36796000Y29250000D01*
X-37946000Y29250000D01*
X-37946000Y29152156D01*
X-39499500Y29152156D01*
X-39499500Y29847845D01*
X-37946000Y29847845D01*
X-37946000Y29750000D01*
X-36796000Y29750000D01*
X-36796000Y30300000D01*
X-37493845Y30300000D01*
X-37553373Y30293599D01*
X-37553380Y30293597D01*
X-37688087Y30243355D01*
X-37688094Y30243351D01*
X-37803188Y30157191D01*
X-37803191Y30157188D01*
X-37889351Y30042094D01*
X-37889355Y30042087D01*
X-37939597Y29907380D01*
X-37939599Y29907373D01*
X-37946000Y29847845D01*
X-39499500Y29847845D01*
X-39499500Y30502158D01*
X-36375000Y30502158D01*
X-36368599Y30442628D01*
X-36368598Y30442623D01*
X-36363890Y30430000D01*
X-36349280Y30419856D01*
X-36305439Y30365452D01*
X-36296000Y30318000D01*
X-36296000Y29750000D01*
X-35146000Y29750000D01*
X-35146000Y29847828D01*
X-35146001Y29847845D01*
X-35152979Y29912744D01*
X-35140574Y29981503D01*
X-35092965Y30032641D01*
X-35029690Y30050000D01*
X-34625000Y30050000D01*
X-34125000Y30050000D01*
X-32827172Y30050000D01*
X-32827156Y30050001D01*
X-32767628Y30056402D01*
X-32767621Y30056404D01*
X-32632914Y30106646D01*
X-32632907Y30106650D01*
X-32517813Y30192810D01*
X-32517810Y30192813D01*
X-32431650Y30307907D01*
X-32431646Y30307914D01*
X-32381404Y30442621D01*
X-32381402Y30442628D01*
X-32375001Y30502156D01*
X-32375000Y30502173D01*
X-32375000Y31600000D01*
X-34125000Y31600000D01*
X-34125000Y30050000D01*
X-34625000Y30050000D01*
X-34625000Y31600000D01*
X-36375000Y31600000D01*
X-36375000Y30502158D01*
X-39499500Y30502158D01*
X-39499500Y32876000D01*
X-39479815Y32943039D01*
X-39427011Y32988794D01*
X-39375500Y33000000D01*
X-36499000Y33000000D01*
X-36431961Y32980315D01*
X-36386206Y32927511D01*
X-36375000Y32876000D01*
X-36375000Y32100000D01*
X-32375000Y32100000D01*
X-32375000Y33197828D01*
X-32375001Y33197845D01*
X-32381402Y33257373D01*
X-32381404Y33257380D01*
X-32431646Y33392087D01*
X-32431650Y33392094D01*
X-32517810Y33507188D01*
X-32517813Y33507191D01*
X-32632907Y33593351D01*
X-32632914Y33593355D01*
X-32767621Y33643597D01*
X-32767628Y33643599D01*
X-32827156Y33650000D01*
X-32876000Y33650000D01*
X-32943039Y33669685D01*
X-32988794Y33722489D01*
X-33000000Y33774000D01*
X-33000000Y35134648D01*
X-9957700Y35134648D01*
X-9951299Y35075120D01*
X-9951297Y35075113D01*
X-9901055Y34940406D01*
X-9901053Y34940404D01*
X-9814891Y34825306D01*
X-9814889Y34825304D01*
X-9807891Y34820065D01*
X-9766019Y34764133D01*
X-9758200Y34720797D01*
X-9758200Y34137638D01*
X-9758198Y34137612D01*
X-9755287Y34112508D01*
X-9755286Y34112504D01*
X-9755285Y34112503D01*
X-9727723Y34050081D01*
X-9718652Y33980804D01*
X-9727723Y33949911D01*
X-9755285Y33887490D01*
X-9755285Y33887488D01*
X-9758200Y33862365D01*
X-9758200Y33137640D01*
X-9758198Y33137614D01*
X-9755287Y33112510D01*
X-9755286Y33112506D01*
X-9755285Y33112505D01*
X-9727723Y33050083D01*
X-9718652Y32980806D01*
X-9727723Y32949913D01*
X-9755285Y32887492D01*
X-9755285Y32887490D01*
X-9758200Y32862367D01*
X-9758200Y32137642D01*
X-9758198Y32137616D01*
X-9755287Y32112512D01*
X-9755286Y32112508D01*
X-9755285Y32112507D01*
X-9727723Y32050085D01*
X-9718652Y31980808D01*
X-9727723Y31949915D01*
X-9755285Y31887494D01*
X-9755285Y31887492D01*
X-9758200Y31862369D01*
X-9758200Y31137644D01*
X-9758198Y31137618D01*
X-9755287Y31112513D01*
X-9755286Y31112512D01*
X-9755286Y31112510D01*
X-9755285Y31112509D01*
X-9727723Y31050087D01*
X-9718651Y30980809D01*
X-9727722Y30949915D01*
X-9755285Y30887491D01*
X-9758200Y30862369D01*
X-9758200Y30137644D01*
X-9758198Y30137618D01*
X-9755287Y30112513D01*
X-9755286Y30112512D01*
X-9755286Y30112510D01*
X-9755285Y30112509D01*
X-9727723Y30050087D01*
X-9718651Y29980809D01*
X-9727722Y29949915D01*
X-9755285Y29887491D01*
X-9758200Y29862369D01*
X-9758200Y29137644D01*
X-9758198Y29137618D01*
X-9755287Y29112513D01*
X-9755286Y29112512D01*
X-9755286Y29112510D01*
X-9755285Y29112509D01*
X-9727723Y29050087D01*
X-9718651Y28980809D01*
X-9727722Y28949915D01*
X-9755285Y28887491D01*
X-9758200Y28862369D01*
X-9758200Y28137644D01*
X-9758198Y28137618D01*
X-9755287Y28112514D01*
X-9755286Y28112510D01*
X-9755285Y28112509D01*
X-9727723Y28050087D01*
X-9718652Y27980810D01*
X-9727723Y27949917D01*
X-9755285Y27887496D01*
X-9755285Y27887494D01*
X-9758200Y27862371D01*
X-9758200Y27137646D01*
X-9758198Y27137620D01*
X-9755287Y27112516D01*
X-9755286Y27112512D01*
X-9755285Y27112511D01*
X-9727723Y27050089D01*
X-9718652Y26980812D01*
X-9727723Y26949919D01*
X-9755285Y26887498D01*
X-9755285Y26887496D01*
X-9758200Y26862373D01*
X-9758200Y26137648D01*
X-9758198Y26137622D01*
X-9755287Y26112518D01*
X-9755286Y26112514D01*
X-9755285Y26112513D01*
X-9727723Y26050091D01*
X-9718652Y25980814D01*
X-9727723Y25949921D01*
X-9755285Y25887500D01*
X-9755285Y25887498D01*
X-9758200Y25862375D01*
X-9758200Y25279205D01*
X-9777885Y25212166D01*
X-9807885Y25179942D01*
X-9814882Y25174704D01*
X-9814892Y25174694D01*
X-9901051Y25059602D01*
X-9901055Y25059595D01*
X-9951297Y24924888D01*
X-9951299Y24924881D01*
X-9957700Y24865353D01*
X-9957700Y24750008D01*
X-7154300Y24750008D01*
X-7154300Y24865336D01*
X-7154301Y24865353D01*
X-7160702Y24924881D01*
X-7160704Y24924888D01*
X-7210946Y25059595D01*
X-7210948Y25059597D01*
X-7297110Y25174695D01*
X-7297115Y25174701D01*
X-7304115Y25179941D01*
X-7345984Y25235876D01*
X-7353801Y25279201D01*
X-7353801Y25862370D01*
X-7353803Y25862389D01*
X-7356714Y25887494D01*
X-7356715Y25887495D01*
X-7356715Y25887497D01*
X-7384278Y25949920D01*
X-7393349Y26019197D01*
X-7384279Y26050089D01*
X-7356715Y26112513D01*
X-7353800Y26137639D01*
X-7353801Y26862368D01*
X-7356715Y26887495D01*
X-7356716Y26887498D01*
X-7358199Y26892949D01*
X-7356804Y26962805D01*
X-7317864Y27020817D01*
X-7253742Y27048568D01*
X-7238548Y27049502D01*
X6300067Y27049502D01*
X6367106Y27029817D01*
X6375557Y27023875D01*
X6381289Y27019476D01*
X6501768Y26949919D01*
X6518216Y26940423D01*
X6670943Y26899500D01*
X6670945Y26899500D01*
X6829055Y26899500D01*
X6829057Y26899500D01*
X6981784Y26940423D01*
X7118716Y27019480D01*
X7230520Y27131284D01*
X7309577Y27268216D01*
X7350500Y27420943D01*
X7350500Y27579057D01*
X7309577Y27731784D01*
X7305812Y27738305D01*
X7230524Y27868710D01*
X7230518Y27868718D01*
X7118717Y27980519D01*
X7118709Y27980525D01*
X6981790Y28059574D01*
X6981786Y28059576D01*
X6981784Y28059577D01*
X6829057Y28100500D01*
X6775686Y28100500D01*
X6708647Y28120185D01*
X6662892Y28172989D01*
X6652948Y28242147D01*
X6657912Y28260248D01*
X6657473Y28260365D01*
X6659577Y28268216D01*
X6700500Y28420943D01*
X6700500Y28579057D01*
X6659577Y28731784D01*
X6584187Y28862365D01*
X6580524Y28868710D01*
X6580518Y28868718D01*
X6468717Y28980519D01*
X6468709Y28980525D01*
X6331790Y29059574D01*
X6331786Y29059576D01*
X6331784Y29059577D01*
X6179057Y29100500D01*
X6125686Y29100500D01*
X6058647Y29120185D01*
X6012892Y29172989D01*
X6002948Y29242147D01*
X6007912Y29260248D01*
X6007473Y29260365D01*
X6009577Y29268216D01*
X6050500Y29420943D01*
X6050500Y29579057D01*
X6009577Y29731784D01*
X5934187Y29862365D01*
X5930524Y29868710D01*
X5930518Y29868718D01*
X5818717Y29980519D01*
X5818709Y29980525D01*
X5681790Y30059574D01*
X5681786Y30059576D01*
X5681784Y30059577D01*
X5529057Y30100500D01*
X5475686Y30100500D01*
X5408647Y30120185D01*
X5362892Y30172989D01*
X5352948Y30242147D01*
X5357912Y30260248D01*
X5357473Y30260365D01*
X5359577Y30268216D01*
X5400500Y30420943D01*
X5400500Y30579057D01*
X5359577Y30731784D01*
X5284187Y30862365D01*
X5280524Y30868710D01*
X5280518Y30868718D01*
X5168717Y30980519D01*
X5168709Y30980525D01*
X5031790Y31059574D01*
X5031786Y31059576D01*
X5031784Y31059577D01*
X4879057Y31100500D01*
X4825686Y31100500D01*
X4758647Y31120185D01*
X4712892Y31172989D01*
X4702948Y31242147D01*
X4707912Y31260248D01*
X4707473Y31260365D01*
X4709577Y31268216D01*
X4750500Y31420943D01*
X4750500Y31579057D01*
X4709577Y31731784D01*
X4634187Y31862365D01*
X4630524Y31868710D01*
X4630518Y31868718D01*
X4518717Y31980519D01*
X4518709Y31980525D01*
X4381790Y32059574D01*
X4381786Y32059576D01*
X4381784Y32059577D01*
X4229057Y32100500D01*
X4175686Y32100500D01*
X4108647Y32120185D01*
X4062892Y32172989D01*
X4052948Y32242147D01*
X4057912Y32260248D01*
X4057473Y32260365D01*
X4059577Y32268216D01*
X4100500Y32420943D01*
X4100500Y32579057D01*
X4059577Y32731784D01*
X3984186Y32862367D01*
X3980524Y32868710D01*
X3980518Y32868718D01*
X3868717Y32980519D01*
X3868709Y32980525D01*
X3731790Y33059574D01*
X3731786Y33059576D01*
X3731784Y33059577D01*
X3579057Y33100500D01*
X3525687Y33100500D01*
X3458648Y33120185D01*
X3412893Y33172989D01*
X3402949Y33242147D01*
X3407914Y33260243D01*
X3407473Y33260361D01*
X3409577Y33268212D01*
X3450500Y33420939D01*
X3450500Y33579053D01*
X3409577Y33731780D01*
X3409573Y33731787D01*
X3330524Y33868706D01*
X3330518Y33868714D01*
X3218717Y33980515D01*
X3218709Y33980521D01*
X3081790Y34059570D01*
X3081786Y34059572D01*
X3081784Y34059573D01*
X2929057Y34100496D01*
X2884162Y34100496D01*
X2817123Y34120181D01*
X2771368Y34172985D01*
X2761424Y34242143D01*
X2764387Y34256589D01*
X2766252Y34263551D01*
X2793025Y34363468D01*
X2793025Y34521582D01*
X2752102Y34674309D01*
X2752098Y34674316D01*
X2673049Y34811235D01*
X2673043Y34811243D01*
X2561242Y34923044D01*
X2561234Y34923050D01*
X2424315Y35002099D01*
X2424311Y35002101D01*
X2424309Y35002102D01*
X2271582Y35043025D01*
X2113468Y35043025D01*
X1960741Y35002102D01*
X1960740Y35002102D01*
X1900125Y34967106D01*
X1838126Y34950494D01*
X-7036054Y34950494D01*
X-7103093Y34970179D01*
X-7148848Y35022983D01*
X-7159343Y35087749D01*
X-7154302Y35134646D01*
X-7154300Y35134665D01*
X-7154300Y35249992D01*
X-9957700Y35249992D01*
X-9957700Y35134648D01*
X-33000000Y35134648D01*
X-33000000Y35865337D01*
X-9957700Y35865337D01*
X-9957700Y35749992D01*
X-8806000Y35749992D01*
X-8806000Y36317492D01*
X-9505545Y36317492D01*
X-9565073Y36311091D01*
X-9565080Y36311089D01*
X-9699787Y36260847D01*
X-9699794Y36260843D01*
X-9814888Y36174683D01*
X-9814891Y36174680D01*
X-9901051Y36059586D01*
X-9901055Y36059579D01*
X-9951297Y35924872D01*
X-9951299Y35924865D01*
X-9957700Y35865337D01*
X-33000000Y35865337D01*
X-33000000Y36506784D01*
X-8384599Y36506784D01*
X-8384598Y36506765D01*
X-8378226Y36447493D01*
X-8347139Y36419570D01*
X-8310419Y36360127D01*
X-8306000Y36327320D01*
X-8306000Y35749992D01*
X-7154300Y35749992D01*
X-7154300Y35865320D01*
X-7154301Y35865337D01*
X-7159893Y35917347D01*
X-7147488Y35986107D01*
X-7099878Y36037244D01*
X-7036604Y36054603D01*
X-6635999Y36054603D01*
X-6135999Y36054603D01*
X-4839571Y36054603D01*
X-4839555Y36054604D01*
X-4780027Y36061005D01*
X-4780020Y36061007D01*
X-4645313Y36111249D01*
X-4645306Y36111253D01*
X-4530212Y36197413D01*
X-4530209Y36197416D01*
X-4444049Y36312510D01*
X-4444045Y36312517D01*
X-4393803Y36447224D01*
X-4393801Y36447231D01*
X-4387400Y36506759D01*
X-4387399Y36506776D01*
X-4387399Y37600003D01*
X-6135999Y37600003D01*
X-6135999Y36054603D01*
X-6635999Y36054603D01*
X-6635999Y37600003D01*
X-8384599Y37600003D01*
X-8384599Y36506784D01*
X-33000000Y36506784D01*
X-33000000Y39193248D01*
X-8384599Y39193248D01*
X-8384599Y38100003D01*
X-6635999Y38100003D01*
X-6135999Y38100003D01*
X-4387399Y38100003D01*
X-4387399Y39193231D01*
X-4387400Y39193248D01*
X-4393801Y39252776D01*
X-4393803Y39252783D01*
X-4444045Y39387490D01*
X-4444049Y39387497D01*
X-4530209Y39502591D01*
X-4530212Y39502594D01*
X-4645306Y39588754D01*
X-4645313Y39588758D01*
X-4780020Y39639000D01*
X-4780027Y39639002D01*
X-4839555Y39645403D01*
X-6135999Y39645403D01*
X-6135999Y38100003D01*
X-6635999Y38100003D01*
X-6635999Y39645403D01*
X-7932444Y39645403D01*
X-7991972Y39639002D01*
X-7991979Y39639000D01*
X-8126686Y39588758D01*
X-8126693Y39588754D01*
X-8241787Y39502594D01*
X-8241790Y39502591D01*
X-8327950Y39387497D01*
X-8327954Y39387490D01*
X-8378196Y39252783D01*
X-8378198Y39252776D01*
X-8384599Y39193248D01*
X-33000000Y39193248D01*
X-33000000Y40777530D01*
X-32996138Y40790685D01*
X-32997062Y40804361D01*
X-32986488Y40823549D01*
X-32980315Y40844569D01*
X-32969245Y40854837D01*
X-32963338Y40865553D01*
X-32940573Y40881427D01*
X-32935001Y40886594D01*
X-32931776Y40888339D01*
X-32873702Y40915419D01*
X-32754472Y40984257D01*
X-32752979Y40985064D01*
X-32736954Y40988485D01*
X-32693978Y41000000D01*
X11376000Y41000000D01*
X11443039Y40980315D01*
G37*
%TD.AperFunction*%
%TD*%
%TA.AperFunction,Conductor*%
%TO.N,/COM_CNV*%
G36*
X14302338Y-18743037D02*
G01*
X14432517Y-18791591D01*
X14492127Y-18798000D01*
X14798480Y-18797999D01*
X14865519Y-18817683D01*
X14886161Y-18834318D01*
X20123386Y-24071542D01*
X20177059Y-24125215D01*
X20220959Y-24169115D01*
X20335682Y-24245771D01*
X20335686Y-24245773D01*
X20335689Y-24245775D01*
X20410366Y-24276707D01*
X20463171Y-24298580D01*
X20490091Y-24303934D01*
X20587130Y-24323237D01*
X20598506Y-24325500D01*
X20598507Y-24325500D01*
X21608481Y-24325500D01*
X21675520Y-24345185D01*
X21696162Y-24361819D01*
X21888181Y-24553838D01*
X21921666Y-24615161D01*
X21924500Y-24641519D01*
X21924500Y-24831613D01*
X21930913Y-24902192D01*
X21930913Y-24902194D01*
X21930914Y-24902196D01*
X21981522Y-25064606D01*
X22065386Y-25203334D01*
X22069530Y-25210188D01*
X22189811Y-25330469D01*
X22189813Y-25330470D01*
X22189815Y-25330472D01*
X22335394Y-25418478D01*
X22497804Y-25469086D01*
X22568384Y-25475500D01*
X22568387Y-25475500D01*
X23081613Y-25475500D01*
X23081616Y-25475500D01*
X23152196Y-25469086D01*
X23314606Y-25418478D01*
X23460185Y-25330472D01*
X23460189Y-25330468D01*
X23553839Y-25236819D01*
X23615162Y-25203334D01*
X23641520Y-25200500D01*
X24858480Y-25200500D01*
X24925519Y-25220185D01*
X24946161Y-25236819D01*
X25039811Y-25330469D01*
X25039813Y-25330470D01*
X25039815Y-25330472D01*
X25185394Y-25418478D01*
X25347804Y-25469086D01*
X25418384Y-25475500D01*
X25418387Y-25475500D01*
X25931613Y-25475500D01*
X25931616Y-25475500D01*
X26002196Y-25469086D01*
X26164606Y-25418478D01*
X26310185Y-25330472D01*
X26310189Y-25330468D01*
X26412319Y-25228339D01*
X26473642Y-25194854D01*
X26543334Y-25199838D01*
X26587681Y-25228339D01*
X26689811Y-25330469D01*
X26689813Y-25330470D01*
X26689815Y-25330472D01*
X26835394Y-25418478D01*
X26997804Y-25469086D01*
X27068384Y-25475500D01*
X27258481Y-25475500D01*
X27325520Y-25495185D01*
X27346162Y-25511819D01*
X30280886Y-28446542D01*
X30378458Y-28544114D01*
X30378459Y-28544115D01*
X30493190Y-28620776D01*
X30495704Y-28622120D01*
X30496774Y-28623171D01*
X30498254Y-28624160D01*
X30498066Y-28624440D01*
X30545550Y-28671080D01*
X30547739Y-28675185D01*
X30631128Y-28838843D01*
X30631129Y-28838844D01*
X30779201Y-29042649D01*
X30779205Y-29042654D01*
X30957345Y-29220794D01*
X30957350Y-29220798D01*
X31135117Y-29349952D01*
X31161155Y-29368870D01*
X31304184Y-29441747D01*
X31385616Y-29483239D01*
X31385618Y-29483239D01*
X31385621Y-29483241D01*
X31625215Y-29561090D01*
X31874038Y-29600500D01*
X31874039Y-29600500D01*
X32125961Y-29600500D01*
X32125962Y-29600500D01*
X32374785Y-29561090D01*
X32614379Y-29483241D01*
X32819705Y-29378621D01*
X32888374Y-29365726D01*
X32953115Y-29392002D01*
X32993372Y-29449109D01*
X33000000Y-29489107D01*
X33000000Y-31510892D01*
X32980315Y-31577931D01*
X32927511Y-31623686D01*
X32858353Y-31633630D01*
X32819705Y-31621377D01*
X32614383Y-31516761D01*
X32614382Y-31516760D01*
X32614379Y-31516759D01*
X32374785Y-31438910D01*
X32125962Y-31399500D01*
X31874038Y-31399500D01*
X31749626Y-31419205D01*
X31625214Y-31438910D01*
X31385616Y-31516760D01*
X31161151Y-31631132D01*
X30957350Y-31779201D01*
X30957345Y-31779205D01*
X30779207Y-31957343D01*
X30751267Y-31995800D01*
X30676733Y-32098386D01*
X30621406Y-32141051D01*
X30576417Y-32149500D01*
X24900557Y-32149500D01*
X24833518Y-32129815D01*
X24825070Y-32123875D01*
X24809758Y-32112125D01*
X24695751Y-32046303D01*
X24695750Y-32046302D01*
X24573829Y-31995800D01*
X24446658Y-31961724D01*
X24315833Y-31944500D01*
X24315826Y-31944500D01*
X23684174Y-31944500D01*
X23684166Y-31944500D01*
X23553341Y-31961724D01*
X23426170Y-31995800D01*
X23304249Y-32046302D01*
X23304248Y-32046303D01*
X23190250Y-32112120D01*
X23190232Y-32112132D01*
X23085555Y-32192455D01*
X23085545Y-32192464D01*
X22992464Y-32285545D01*
X22992455Y-32285555D01*
X22912132Y-32390232D01*
X22912120Y-32390250D01*
X22846303Y-32504248D01*
X22846302Y-32504249D01*
X22795800Y-32626170D01*
X22761724Y-32753341D01*
X22744500Y-32884166D01*
X22744500Y-33500002D01*
X22749645Y-33571943D01*
X22753394Y-33584711D01*
X22754736Y-33634644D01*
X22757231Y-33634913D01*
X22750000Y-33702155D01*
X22750000Y-34000000D01*
X23202877Y-34000000D01*
X23220523Y-34001262D01*
X23223650Y-34001711D01*
X23250000Y-34005500D01*
X23250003Y-34005500D01*
X24750000Y-34005500D01*
X24813563Y-34000954D01*
X24822487Y-34000316D01*
X24831333Y-34000000D01*
X25250000Y-34000000D01*
X25250000Y-33874500D01*
X25269685Y-33807461D01*
X25322489Y-33761706D01*
X25374000Y-33750500D01*
X30510129Y-33750500D01*
X30577168Y-33770185D01*
X30620613Y-33818205D01*
X30627149Y-33831032D01*
X30631132Y-33838849D01*
X30779201Y-34042649D01*
X30779205Y-34042654D01*
X30957345Y-34220794D01*
X30957350Y-34220798D01*
X31135117Y-34349952D01*
X31161155Y-34368870D01*
X31304184Y-34441747D01*
X31385616Y-34483239D01*
X31385618Y-34483239D01*
X31385621Y-34483241D01*
X31625215Y-34561090D01*
X31874038Y-34600500D01*
X31874039Y-34600500D01*
X32125961Y-34600500D01*
X32125962Y-34600500D01*
X32374785Y-34561090D01*
X32614379Y-34483241D01*
X32819705Y-34378621D01*
X32888374Y-34365726D01*
X32953115Y-34392002D01*
X32993372Y-34449109D01*
X33000000Y-34489107D01*
X33000000Y-35010892D01*
X32980315Y-35077931D01*
X32927511Y-35123686D01*
X32858353Y-35133630D01*
X32819705Y-35121377D01*
X32614383Y-35016761D01*
X32614382Y-35016760D01*
X32614379Y-35016759D01*
X32374785Y-34938910D01*
X32125962Y-34899500D01*
X31874038Y-34899500D01*
X31850122Y-34903288D01*
X31633609Y-34937580D01*
X31564315Y-34928625D01*
X31545320Y-34918209D01*
X31429185Y-34840609D01*
X31429172Y-34840602D01*
X31283501Y-34780264D01*
X31283489Y-34780261D01*
X31128845Y-34749500D01*
X31128842Y-34749500D01*
X25374000Y-34749500D01*
X25306961Y-34729815D01*
X25261206Y-34677011D01*
X25250000Y-34625500D01*
X25250000Y-34500000D01*
X24797123Y-34500000D01*
X24779477Y-34498738D01*
X24750001Y-34494500D01*
X24750000Y-34494500D01*
X23250000Y-34494500D01*
X23249997Y-34494500D01*
X23177513Y-34499684D01*
X23168667Y-34500000D01*
X22750000Y-34500000D01*
X22750000Y-34797844D01*
X22757231Y-34865088D01*
X22756702Y-34865144D01*
X22758404Y-34903288D01*
X22744500Y-34999998D01*
X22744500Y-35615833D01*
X22761724Y-35746658D01*
X22795800Y-35873829D01*
X22846302Y-35995750D01*
X22846303Y-35995751D01*
X22912120Y-36109749D01*
X22912132Y-36109767D01*
X22923986Y-36125215D01*
X22992459Y-36214449D01*
X23085551Y-36307541D01*
X23085555Y-36307544D01*
X23190232Y-36387867D01*
X23190236Y-36387869D01*
X23190243Y-36387875D01*
X23190250Y-36387879D01*
X23304248Y-36453696D01*
X23304249Y-36453697D01*
X23304252Y-36453698D01*
X23304257Y-36453701D01*
X23426171Y-36504200D01*
X23553338Y-36538275D01*
X23684174Y-36555500D01*
X23684181Y-36555500D01*
X24315819Y-36555500D01*
X24315826Y-36555500D01*
X24446662Y-36538275D01*
X24573829Y-36504200D01*
X24695743Y-36453701D01*
X24809757Y-36387875D01*
X24825070Y-36376125D01*
X24890239Y-36350930D01*
X24900557Y-36350500D01*
X30275500Y-36350500D01*
X30342539Y-36370185D01*
X30388294Y-36422989D01*
X30399500Y-36474500D01*
X30399500Y-36625961D01*
X30438910Y-36874785D01*
X30516760Y-37114383D01*
X30631132Y-37338848D01*
X30779201Y-37542649D01*
X30779205Y-37542654D01*
X30957345Y-37720794D01*
X30957350Y-37720798D01*
X31135117Y-37849952D01*
X31161155Y-37868870D01*
X31304184Y-37941747D01*
X31385616Y-37983239D01*
X31385618Y-37983239D01*
X31385621Y-37983241D01*
X31625215Y-38061090D01*
X31874038Y-38100500D01*
X31874039Y-38100500D01*
X32125961Y-38100500D01*
X32125962Y-38100500D01*
X32374785Y-38061090D01*
X32614379Y-37983241D01*
X32819705Y-37878621D01*
X32888374Y-37865726D01*
X32953115Y-37892002D01*
X32993372Y-37949109D01*
X33000000Y-37989107D01*
X33000000Y-38510892D01*
X32980315Y-38577931D01*
X32927511Y-38623686D01*
X32858353Y-38633630D01*
X32819705Y-38621377D01*
X32614383Y-38516761D01*
X32614382Y-38516760D01*
X32614379Y-38516759D01*
X32374785Y-38438910D01*
X32125962Y-38399500D01*
X31874038Y-38399500D01*
X31749626Y-38419205D01*
X31625214Y-38438910D01*
X31385616Y-38516760D01*
X31161151Y-38631132D01*
X30957350Y-38779201D01*
X30957345Y-38779205D01*
X30779205Y-38957345D01*
X30779201Y-38957350D01*
X30631132Y-39161151D01*
X30516760Y-39385616D01*
X30438910Y-39625214D01*
X30399500Y-39874038D01*
X30399500Y-40125961D01*
X30438910Y-40374785D01*
X30516760Y-40614383D01*
X30621378Y-40819705D01*
X30634274Y-40888374D01*
X30607998Y-40953115D01*
X30550891Y-40993372D01*
X30510893Y-41000000D01*
X24695921Y-41000000D01*
X24628882Y-40980315D01*
X24624798Y-40977575D01*
X24581781Y-40947455D01*
X24581764Y-40947443D01*
X24456712Y-40875244D01*
X24218742Y-40737851D01*
X24218726Y-40737843D01*
X23838839Y-40560698D01*
X23838831Y-40560695D01*
X23838829Y-40560694D01*
X23838822Y-40560691D01*
X23444913Y-40417320D01*
X23444912Y-40417319D01*
X23444902Y-40417316D01*
X23040015Y-40308828D01*
X23040018Y-40308828D01*
X23040008Y-40308826D01*
X23040002Y-40308824D01*
X23039998Y-40308824D01*
X22627192Y-40236035D01*
X22209597Y-40199500D01*
X22209594Y-40199500D01*
X21790406Y-40199500D01*
X21790402Y-40199500D01*
X21372809Y-40236035D01*
X21372805Y-40236035D01*
X20960001Y-40308824D01*
X20959984Y-40308828D01*
X20555097Y-40417316D01*
X20399596Y-40473914D01*
X20161178Y-40560691D01*
X20161174Y-40560692D01*
X20161168Y-40560695D01*
X20161160Y-40560698D01*
X19781273Y-40737843D01*
X19781257Y-40737851D01*
X19418244Y-40947438D01*
X19418218Y-40947455D01*
X19375202Y-40977575D01*
X19308996Y-40999902D01*
X19304079Y-41000000D01*
X14124759Y-41000000D01*
X14057720Y-40980315D01*
X14011965Y-40927511D01*
X14000761Y-40875244D01*
X14070862Y-29378622D01*
X14135009Y-18858462D01*
X14155102Y-18791546D01*
X14208184Y-18746114D01*
X14277402Y-18736592D01*
X14302338Y-18743037D01*
G37*
%TD.AperFunction*%
%TA.AperFunction,Conductor*%
G36*
X21675520Y-17345185D02*
G01*
X21696162Y-17361819D01*
X21888181Y-17553838D01*
X21921666Y-17615161D01*
X21924500Y-17641519D01*
X21924500Y-17831613D01*
X21930913Y-17902192D01*
X21930913Y-17902194D01*
X21930914Y-17902196D01*
X21981522Y-18064606D01*
X22066170Y-18204631D01*
X22069530Y-18210188D01*
X22189811Y-18330469D01*
X22189813Y-18330470D01*
X22189815Y-18330472D01*
X22335394Y-18418478D01*
X22497804Y-18469086D01*
X22568384Y-18475500D01*
X22568387Y-18475500D01*
X23081613Y-18475500D01*
X23081616Y-18475500D01*
X23152196Y-18469086D01*
X23314606Y-18418478D01*
X23460185Y-18330472D01*
X23465745Y-18324912D01*
X23553839Y-18236819D01*
X23615162Y-18203334D01*
X23641520Y-18200500D01*
X24858480Y-18200500D01*
X24925519Y-18220185D01*
X24946161Y-18236819D01*
X25039811Y-18330469D01*
X25039813Y-18330470D01*
X25039815Y-18330472D01*
X25185394Y-18418478D01*
X25347804Y-18469086D01*
X25418384Y-18475500D01*
X25418387Y-18475500D01*
X25931613Y-18475500D01*
X25931616Y-18475500D01*
X26002196Y-18469086D01*
X26164606Y-18418478D01*
X26310185Y-18330472D01*
X26315745Y-18324912D01*
X26412319Y-18228339D01*
X26473642Y-18194854D01*
X26543334Y-18199838D01*
X26587681Y-18228339D01*
X26689811Y-18330469D01*
X26689813Y-18330470D01*
X26689815Y-18330472D01*
X26835394Y-18418478D01*
X26997804Y-18469086D01*
X27068384Y-18475500D01*
X27068387Y-18475500D01*
X27581613Y-18475500D01*
X27581616Y-18475500D01*
X27652196Y-18469086D01*
X27814606Y-18418478D01*
X27960185Y-18330472D01*
X27965745Y-18324912D01*
X28053839Y-18236819D01*
X28080766Y-18222115D01*
X28106585Y-18205523D01*
X28112785Y-18204631D01*
X28115162Y-18203334D01*
X28141520Y-18200500D01*
X28158481Y-18200500D01*
X28225520Y-18220185D01*
X28246162Y-18236819D01*
X30433158Y-20423814D01*
X30466643Y-20485137D01*
X30463409Y-20549811D01*
X30438909Y-20625215D01*
X30399500Y-20874038D01*
X30399500Y-21125961D01*
X30438910Y-21374785D01*
X30516760Y-21614383D01*
X30589042Y-21756243D01*
X30601938Y-21824912D01*
X30575662Y-21889653D01*
X30518555Y-21929910D01*
X30448750Y-21932902D01*
X30390876Y-21900219D01*
X28946546Y-20455888D01*
X28946545Y-20455887D01*
X28831807Y-20379222D01*
X28704332Y-20326421D01*
X28704322Y-20326418D01*
X28568996Y-20299500D01*
X28568994Y-20299500D01*
X28568993Y-20299500D01*
X28141520Y-20299500D01*
X28074481Y-20279815D01*
X28053839Y-20263181D01*
X27960188Y-20169530D01*
X27814606Y-20081522D01*
X27652196Y-20030914D01*
X27652194Y-20030913D01*
X27652192Y-20030913D01*
X27602778Y-20026423D01*
X27581616Y-20024500D01*
X27068384Y-20024500D01*
X27049145Y-20026248D01*
X26997807Y-20030913D01*
X26835393Y-20081522D01*
X26689811Y-20169530D01*
X26689810Y-20169531D01*
X26587681Y-20271661D01*
X26526358Y-20305146D01*
X26456666Y-20300162D01*
X26412319Y-20271661D01*
X26310188Y-20169530D01*
X26164606Y-20081522D01*
X26002196Y-20030914D01*
X26002194Y-20030913D01*
X26002192Y-20030913D01*
X25952778Y-20026423D01*
X25931616Y-20024500D01*
X25418384Y-20024500D01*
X25399145Y-20026248D01*
X25347807Y-20030913D01*
X25185393Y-20081522D01*
X25039811Y-20169530D01*
X25039810Y-20169531D01*
X24946161Y-20263181D01*
X24884838Y-20296666D01*
X24858480Y-20299500D01*
X23641520Y-20299500D01*
X23574481Y-20279815D01*
X23553839Y-20263181D01*
X23460188Y-20169530D01*
X23314606Y-20081522D01*
X23152196Y-20030914D01*
X23152194Y-20030913D01*
X23152192Y-20030913D01*
X23102778Y-20026423D01*
X23081616Y-20024500D01*
X22568384Y-20024500D01*
X22549145Y-20026248D01*
X22497807Y-20030913D01*
X22335393Y-20081522D01*
X22189811Y-20169530D01*
X22069530Y-20289811D01*
X21981522Y-20435393D01*
X21930913Y-20597807D01*
X21924500Y-20668386D01*
X21924500Y-20858481D01*
X21904815Y-20925520D01*
X21888181Y-20946162D01*
X21696162Y-21138181D01*
X21634839Y-21171666D01*
X21608481Y-21174500D01*
X20631018Y-21174500D01*
X20563979Y-21154815D01*
X20543337Y-21138181D01*
X16967834Y-17562677D01*
X16961589Y-17551240D01*
X16951678Y-17542775D01*
X16945164Y-17521161D01*
X16934349Y-17501354D01*
X16935278Y-17488355D01*
X16931518Y-17475877D01*
X16937722Y-17454175D01*
X16939333Y-17431662D01*
X16947583Y-17419688D01*
X16950726Y-17408699D01*
X16965818Y-17393225D01*
X16973649Y-17381862D01*
X16979807Y-17376448D01*
X16987043Y-17371614D01*
X16999653Y-17359003D01*
X17002654Y-17356366D01*
X17030861Y-17343240D01*
X17058162Y-17328334D01*
X17064323Y-17327671D01*
X17066001Y-17326891D01*
X17068460Y-17327226D01*
X17084520Y-17325500D01*
X21608481Y-17325500D01*
X21675520Y-17345185D01*
G37*
%TD.AperFunction*%
%TA.AperFunction,Conductor*%
G36*
X14325513Y-14941681D02*
G01*
X14414875Y-14975011D01*
X14423784Y-14978334D01*
X14432517Y-14981591D01*
X14492127Y-14988000D01*
X15061004Y-14987999D01*
X15061018Y-14988000D01*
X16019480Y-14988000D01*
X16086519Y-15007685D01*
X16132274Y-15060489D01*
X16142218Y-15129647D01*
X16113193Y-15193203D01*
X16107161Y-15199681D01*
X15851162Y-15455681D01*
X15789839Y-15489166D01*
X15763481Y-15492000D01*
X14492129Y-15492000D01*
X14492123Y-15492001D01*
X14432515Y-15498409D01*
X14323291Y-15539146D01*
X14253599Y-15544130D01*
X14192277Y-15510644D01*
X14158792Y-15449321D01*
X14155962Y-15422218D01*
X14158188Y-15057107D01*
X14178281Y-14990191D01*
X14231363Y-14944759D01*
X14300581Y-14935237D01*
X14325513Y-14941681D01*
G37*
%TD.AperFunction*%
%TA.AperFunction,Conductor*%
G36*
X21675520Y-10345185D02*
G01*
X21696162Y-10361819D01*
X21888181Y-10553838D01*
X21921666Y-10615161D01*
X21924500Y-10641519D01*
X21924500Y-10831613D01*
X21930913Y-10902192D01*
X21930913Y-10902194D01*
X21930914Y-10902196D01*
X21981522Y-11064606D01*
X22066170Y-11204631D01*
X22069530Y-11210188D01*
X22189811Y-11330469D01*
X22189813Y-11330470D01*
X22189815Y-11330472D01*
X22335394Y-11418478D01*
X22497804Y-11469086D01*
X22568384Y-11475500D01*
X22568387Y-11475500D01*
X23081613Y-11475500D01*
X23081616Y-11475500D01*
X23152196Y-11469086D01*
X23314606Y-11418478D01*
X23460185Y-11330472D01*
X23465745Y-11324912D01*
X23553839Y-11236819D01*
X23615162Y-11203334D01*
X23641520Y-11200500D01*
X24858480Y-11200500D01*
X24925519Y-11220185D01*
X24946161Y-11236819D01*
X25039811Y-11330469D01*
X25039813Y-11330470D01*
X25039815Y-11330472D01*
X25185394Y-11418478D01*
X25347804Y-11469086D01*
X25418384Y-11475500D01*
X25418387Y-11475500D01*
X25931613Y-11475500D01*
X25931616Y-11475500D01*
X26002196Y-11469086D01*
X26164606Y-11418478D01*
X26310185Y-11330472D01*
X26315745Y-11324912D01*
X26412319Y-11228339D01*
X26473642Y-11194854D01*
X26543334Y-11199838D01*
X26587681Y-11228339D01*
X26689811Y-11330469D01*
X26689813Y-11330470D01*
X26689815Y-11330472D01*
X26835394Y-11418478D01*
X26997804Y-11469086D01*
X27068384Y-11475500D01*
X27068387Y-11475500D01*
X27581613Y-11475500D01*
X27581616Y-11475500D01*
X27652196Y-11469086D01*
X27814606Y-11418478D01*
X27960185Y-11330472D01*
X27965745Y-11324912D01*
X28053839Y-11236819D01*
X28080766Y-11222115D01*
X28106585Y-11205523D01*
X28112785Y-11204631D01*
X28115162Y-11203334D01*
X28141520Y-11200500D01*
X28158481Y-11200500D01*
X28225520Y-11220185D01*
X28246162Y-11236819D01*
X30433158Y-13423814D01*
X30466643Y-13485137D01*
X30463409Y-13549811D01*
X30438909Y-13625215D01*
X30399500Y-13874038D01*
X30399500Y-14125961D01*
X30438910Y-14374785D01*
X30516760Y-14614383D01*
X30589042Y-14756243D01*
X30601938Y-14824912D01*
X30575662Y-14889653D01*
X30518555Y-14929910D01*
X30448750Y-14932902D01*
X30390876Y-14900219D01*
X28946546Y-13455888D01*
X28946545Y-13455887D01*
X28831807Y-13379222D01*
X28704332Y-13326421D01*
X28704322Y-13326418D01*
X28568996Y-13299500D01*
X28568994Y-13299500D01*
X28568993Y-13299500D01*
X28141520Y-13299500D01*
X28074481Y-13279815D01*
X28053839Y-13263181D01*
X27960188Y-13169530D01*
X27814606Y-13081522D01*
X27652196Y-13030914D01*
X27652194Y-13030913D01*
X27652192Y-13030913D01*
X27602778Y-13026423D01*
X27581616Y-13024500D01*
X27068384Y-13024500D01*
X27049145Y-13026248D01*
X26997807Y-13030913D01*
X26835393Y-13081522D01*
X26689811Y-13169530D01*
X26689810Y-13169531D01*
X26587681Y-13271661D01*
X26526358Y-13305146D01*
X26456666Y-13300162D01*
X26412319Y-13271661D01*
X26310188Y-13169530D01*
X26164606Y-13081522D01*
X26002196Y-13030914D01*
X26002194Y-13030913D01*
X26002192Y-13030913D01*
X25952778Y-13026423D01*
X25931616Y-13024500D01*
X25418384Y-13024500D01*
X25399145Y-13026248D01*
X25347807Y-13030913D01*
X25185393Y-13081522D01*
X25039811Y-13169530D01*
X25039810Y-13169531D01*
X24946161Y-13263181D01*
X24884838Y-13296666D01*
X24858480Y-13299500D01*
X23641520Y-13299500D01*
X23574481Y-13279815D01*
X23553839Y-13263181D01*
X23460188Y-13169530D01*
X23314606Y-13081522D01*
X23152196Y-13030914D01*
X23152194Y-13030913D01*
X23152192Y-13030913D01*
X23102778Y-13026423D01*
X23081616Y-13024500D01*
X22568384Y-13024500D01*
X22549145Y-13026248D01*
X22497807Y-13030913D01*
X22335393Y-13081522D01*
X22189811Y-13169530D01*
X22069530Y-13289811D01*
X21981522Y-13435393D01*
X21930913Y-13597807D01*
X21924500Y-13668386D01*
X21924500Y-13858481D01*
X21904815Y-13925520D01*
X21888181Y-13946162D01*
X21331162Y-14503181D01*
X21269839Y-14536666D01*
X21243481Y-14539500D01*
X21107003Y-14539500D01*
X20998590Y-14561065D01*
X20998589Y-14561065D01*
X20985131Y-14563742D01*
X20971673Y-14566419D01*
X20971671Y-14566420D01*
X20918866Y-14588292D01*
X20918864Y-14588293D01*
X20918863Y-14588292D01*
X20844191Y-14619223D01*
X20762842Y-14673580D01*
X20762841Y-14673581D01*
X20729454Y-14695888D01*
X20729453Y-14695889D01*
X20414162Y-15011181D01*
X20352839Y-15044666D01*
X20326481Y-15047500D01*
X17370576Y-15047500D01*
X17303537Y-15027815D01*
X17257782Y-14975011D01*
X17247838Y-14905853D01*
X17276863Y-14842297D01*
X17282895Y-14835819D01*
X20919111Y-11199602D01*
X20919112Y-11199601D01*
X20919114Y-11199599D01*
X20995775Y-11084867D01*
X21004168Y-11064606D01*
X21048578Y-10957388D01*
X21048580Y-10957384D01*
X21065010Y-10874785D01*
X21075500Y-10822052D01*
X21075500Y-10449500D01*
X21095185Y-10382461D01*
X21147989Y-10336706D01*
X21199500Y-10325500D01*
X21608481Y-10325500D01*
X21675520Y-10345185D01*
G37*
%TD.AperFunction*%
%TA.AperFunction,Conductor*%
G36*
X21675520Y-3345185D02*
G01*
X21696162Y-3361819D01*
X21888181Y-3553838D01*
X21921666Y-3615161D01*
X21924500Y-3641519D01*
X21924500Y-3831613D01*
X21930913Y-3902192D01*
X21930913Y-3902194D01*
X21930914Y-3902196D01*
X21981522Y-4064606D01*
X22066170Y-4204631D01*
X22069530Y-4210188D01*
X22189811Y-4330469D01*
X22189813Y-4330470D01*
X22189815Y-4330472D01*
X22335394Y-4418478D01*
X22497804Y-4469086D01*
X22568384Y-4475500D01*
X22568387Y-4475500D01*
X23081613Y-4475500D01*
X23081616Y-4475500D01*
X23152196Y-4469086D01*
X23314606Y-4418478D01*
X23460185Y-4330472D01*
X23465745Y-4324912D01*
X23553839Y-4236819D01*
X23615162Y-4203334D01*
X23641520Y-4200500D01*
X24858480Y-4200500D01*
X24925519Y-4220185D01*
X24946161Y-4236819D01*
X25039811Y-4330469D01*
X25039813Y-4330470D01*
X25039815Y-4330472D01*
X25185394Y-4418478D01*
X25347804Y-4469086D01*
X25418384Y-4475500D01*
X25418387Y-4475500D01*
X25931613Y-4475500D01*
X25931616Y-4475500D01*
X26002196Y-4469086D01*
X26164606Y-4418478D01*
X26310185Y-4330472D01*
X26315745Y-4324912D01*
X26412319Y-4228339D01*
X26473642Y-4194854D01*
X26543334Y-4199838D01*
X26587681Y-4228339D01*
X26689811Y-4330469D01*
X26689813Y-4330470D01*
X26689815Y-4330472D01*
X26835394Y-4418478D01*
X26997804Y-4469086D01*
X27068384Y-4475500D01*
X27068387Y-4475500D01*
X27581613Y-4475500D01*
X27581616Y-4475500D01*
X27652196Y-4469086D01*
X27814606Y-4418478D01*
X27960185Y-4330472D01*
X27965745Y-4324912D01*
X28053839Y-4236819D01*
X28080766Y-4222115D01*
X28106585Y-4205523D01*
X28112785Y-4204631D01*
X28115162Y-4203334D01*
X28141520Y-4200500D01*
X28158481Y-4200500D01*
X28225520Y-4220185D01*
X28246162Y-4236819D01*
X30433158Y-6423814D01*
X30466643Y-6485137D01*
X30463409Y-6549811D01*
X30438909Y-6625215D01*
X30432072Y-6668386D01*
X30399500Y-6874038D01*
X30399500Y-7125962D01*
X30411452Y-7201421D01*
X30438910Y-7374785D01*
X30516760Y-7614383D01*
X30589042Y-7756243D01*
X30601938Y-7824912D01*
X30575662Y-7889653D01*
X30518555Y-7929910D01*
X30448750Y-7932902D01*
X30390876Y-7900219D01*
X28946546Y-6455888D01*
X28946545Y-6455887D01*
X28831807Y-6379222D01*
X28704332Y-6326421D01*
X28704322Y-6326418D01*
X28568996Y-6299500D01*
X28568994Y-6299500D01*
X28568993Y-6299500D01*
X28141520Y-6299500D01*
X28074481Y-6279815D01*
X28053839Y-6263181D01*
X27960188Y-6169530D01*
X27814606Y-6081522D01*
X27652196Y-6030914D01*
X27652194Y-6030913D01*
X27652192Y-6030913D01*
X27602778Y-6026423D01*
X27581616Y-6024500D01*
X27068384Y-6024500D01*
X27049145Y-6026248D01*
X26997807Y-6030913D01*
X26835393Y-6081522D01*
X26689811Y-6169530D01*
X26689810Y-6169531D01*
X26587681Y-6271661D01*
X26526358Y-6305146D01*
X26456666Y-6300162D01*
X26412319Y-6271661D01*
X26310188Y-6169530D01*
X26164606Y-6081522D01*
X26002196Y-6030914D01*
X26002194Y-6030913D01*
X26002192Y-6030913D01*
X25952778Y-6026423D01*
X25931616Y-6024500D01*
X25418384Y-6024500D01*
X25399145Y-6026248D01*
X25347807Y-6030913D01*
X25185393Y-6081522D01*
X25039811Y-6169530D01*
X25039810Y-6169531D01*
X24946161Y-6263181D01*
X24884838Y-6296666D01*
X24858480Y-6299500D01*
X23641520Y-6299500D01*
X23574481Y-6279815D01*
X23553839Y-6263181D01*
X23460188Y-6169530D01*
X23314606Y-6081522D01*
X23152196Y-6030914D01*
X23152194Y-6030913D01*
X23152192Y-6030913D01*
X23102778Y-6026423D01*
X23081616Y-6024500D01*
X22568384Y-6024500D01*
X22549145Y-6026248D01*
X22497807Y-6030913D01*
X22335393Y-6081522D01*
X22189811Y-6169530D01*
X22069530Y-6289811D01*
X21981522Y-6435393D01*
X21930913Y-6597807D01*
X21924500Y-6668386D01*
X21924500Y-6858481D01*
X21904815Y-6925520D01*
X21888181Y-6946162D01*
X21696162Y-7138181D01*
X21634839Y-7171666D01*
X21608481Y-7174500D01*
X21553406Y-7174500D01*
X21418079Y-7201418D01*
X21418069Y-7201421D01*
X21290594Y-7254222D01*
X21175856Y-7330887D01*
X21175855Y-7330888D01*
X20056181Y-8450563D01*
X19994858Y-8484048D01*
X19925166Y-8479064D01*
X19869233Y-8437192D01*
X19844816Y-8371728D01*
X19844500Y-8362882D01*
X19844500Y-4543449D01*
X19864185Y-4476410D01*
X19880819Y-4455768D01*
X20974768Y-3361819D01*
X21036091Y-3328334D01*
X21062449Y-3325500D01*
X21608481Y-3325500D01*
X21675520Y-3345185D01*
G37*
%TD.AperFunction*%
%TA.AperFunction,Conductor*%
G36*
X14492514Y16855911D02*
G01*
X14492517Y16855909D01*
X14552127Y16849500D01*
X15121004Y16849501D01*
X15121018Y16849500D01*
X15131007Y16849500D01*
X16036203Y16849500D01*
X16103242Y16829815D01*
X16123884Y16813181D01*
X21106175Y11830889D01*
X21106176Y11830888D01*
X21220912Y11754224D01*
X21319512Y11713383D01*
X21348393Y11701420D01*
X21348394Y11701420D01*
X21348399Y11701418D01*
X21375267Y11696075D01*
X21375273Y11696074D01*
X21375313Y11696066D01*
X21465659Y11678095D01*
X21483728Y11674500D01*
X21483729Y11674500D01*
X21608481Y11674500D01*
X21675520Y11654815D01*
X21696162Y11638181D01*
X21888181Y11446162D01*
X21921666Y11384839D01*
X21924500Y11358481D01*
X21924500Y11168387D01*
X21930913Y11097808D01*
X21930913Y11097806D01*
X21930914Y11097804D01*
X21981522Y10935394D01*
X22065386Y10796666D01*
X22069530Y10789812D01*
X22189811Y10669531D01*
X22189813Y10669530D01*
X22189815Y10669528D01*
X22335394Y10581522D01*
X22497804Y10530914D01*
X22568384Y10524500D01*
X22568387Y10524500D01*
X23081613Y10524500D01*
X23081616Y10524500D01*
X23152196Y10530914D01*
X23314606Y10581522D01*
X23460185Y10669528D01*
X23460189Y10669532D01*
X23553839Y10763181D01*
X23615162Y10796666D01*
X23641520Y10799500D01*
X24858480Y10799500D01*
X24925519Y10779815D01*
X24946161Y10763181D01*
X25039811Y10669531D01*
X25039813Y10669530D01*
X25039815Y10669528D01*
X25185394Y10581522D01*
X25347804Y10530914D01*
X25418384Y10524500D01*
X25418387Y10524500D01*
X25931613Y10524500D01*
X25931616Y10524500D01*
X26002196Y10530914D01*
X26164606Y10581522D01*
X26310185Y10669528D01*
X26310189Y10669532D01*
X26412319Y10771661D01*
X26473642Y10805146D01*
X26543334Y10800162D01*
X26587681Y10771661D01*
X26689811Y10669531D01*
X26689813Y10669530D01*
X26689815Y10669528D01*
X26835394Y10581522D01*
X26997804Y10530914D01*
X27068384Y10524500D01*
X27068387Y10524500D01*
X27581613Y10524500D01*
X27581616Y10524500D01*
X27652196Y10530914D01*
X27814606Y10581522D01*
X27960185Y10669528D01*
X27960189Y10669532D01*
X28053839Y10763181D01*
X28115162Y10796666D01*
X28141520Y10799500D01*
X28658481Y10799500D01*
X28725520Y10779815D01*
X28746162Y10763181D01*
X30433158Y9076185D01*
X30466643Y9014862D01*
X30463408Y8950187D01*
X30438910Y8874789D01*
X30399500Y8625962D01*
X30399500Y8374039D01*
X30438910Y8125215D01*
X30516760Y7885617D01*
X30631132Y7661152D01*
X30779201Y7457351D01*
X30779205Y7457346D01*
X30957345Y7279206D01*
X30957350Y7279202D01*
X31135117Y7150048D01*
X31161155Y7131130D01*
X31304184Y7058253D01*
X31385616Y7016761D01*
X31385618Y7016761D01*
X31385621Y7016759D01*
X31625215Y6938910D01*
X31874038Y6899500D01*
X31874039Y6899500D01*
X32125961Y6899500D01*
X32125962Y6899500D01*
X32374785Y6938910D01*
X32614379Y7016759D01*
X32819705Y7121379D01*
X32888374Y7134274D01*
X32953115Y7107998D01*
X32993372Y7050891D01*
X33000000Y7010893D01*
X33000000Y-2010892D01*
X32980315Y-2077931D01*
X32927511Y-2123686D01*
X32858353Y-2133630D01*
X32819705Y-2121377D01*
X32614383Y-2016761D01*
X32614382Y-2016760D01*
X32614379Y-2016759D01*
X32374785Y-1938910D01*
X32125962Y-1899500D01*
X31874038Y-1899500D01*
X31840481Y-1904815D01*
X31625215Y-1938909D01*
X31549811Y-1963409D01*
X31479970Y-1965403D01*
X31423814Y-1933158D01*
X28946546Y544112D01*
X28946545Y544113D01*
X28831807Y620778D01*
X28704332Y673579D01*
X28704322Y673582D01*
X28568996Y700500D01*
X28568994Y700500D01*
X28568993Y700500D01*
X28141520Y700500D01*
X28074481Y720185D01*
X28053839Y736819D01*
X27960188Y830470D01*
X27814606Y918478D01*
X27652196Y969086D01*
X27652194Y969087D01*
X27652192Y969087D01*
X27602778Y973577D01*
X27581616Y975500D01*
X27068384Y975500D01*
X27049145Y973752D01*
X26997807Y969087D01*
X26835393Y918478D01*
X26689811Y830470D01*
X26689810Y830469D01*
X26587681Y728339D01*
X26526358Y694854D01*
X26456666Y699838D01*
X26412319Y728339D01*
X26310188Y830470D01*
X26164606Y918478D01*
X26002196Y969086D01*
X26002194Y969087D01*
X26002192Y969087D01*
X25952778Y973577D01*
X25931616Y975500D01*
X25418384Y975500D01*
X25399145Y973752D01*
X25347807Y969087D01*
X25185393Y918478D01*
X25039811Y830470D01*
X25039810Y830469D01*
X24946161Y736819D01*
X24884838Y703334D01*
X24858480Y700500D01*
X23641520Y700500D01*
X23574481Y720185D01*
X23553839Y736819D01*
X23460188Y830470D01*
X23314606Y918478D01*
X23152196Y969086D01*
X23152194Y969087D01*
X23152192Y969087D01*
X23102778Y973577D01*
X23081616Y975500D01*
X22568384Y975500D01*
X22549145Y973752D01*
X22497807Y969087D01*
X22335393Y918478D01*
X22189811Y830470D01*
X22069530Y710189D01*
X21981522Y564607D01*
X21930913Y402193D01*
X21924500Y331614D01*
X21924500Y141519D01*
X21904815Y74480D01*
X21888181Y53838D01*
X21696162Y-138181D01*
X21674464Y-150028D01*
X21655100Y-165403D01*
X21641420Y-168072D01*
X21634839Y-171666D01*
X21620840Y-173883D01*
X21614680Y-174500D01*
X21502007Y-174500D01*
X21393591Y-196065D01*
X21379396Y-198888D01*
X21366670Y-201420D01*
X21359647Y-204328D01*
X21359648Y-204329D01*
X21239188Y-254225D01*
X21239188Y-254226D01*
X21124456Y-330886D01*
X14595890Y-6859452D01*
X14595887Y-6859454D01*
X14519223Y-6974192D01*
X14466421Y-7101668D01*
X14466418Y-7101680D01*
X14452022Y-7174054D01*
X14419637Y-7235965D01*
X14358922Y-7270539D01*
X14289152Y-7266800D01*
X14232480Y-7225933D01*
X14206899Y-7160915D01*
X14206407Y-7149125D01*
X14352034Y16733727D01*
X14356429Y16748362D01*
X14355884Y16763633D01*
X14366271Y16781142D01*
X14372127Y16800641D01*
X14383737Y16810579D01*
X14391536Y16823722D01*
X14409742Y16832836D01*
X14425209Y16846073D01*
X14441294Y16848630D01*
X14454015Y16854997D01*
X14489287Y16856257D01*
X14492514Y16855911D01*
G37*
%TD.AperFunction*%
%TA.AperFunction,Conductor*%
G36*
X21675520Y18654815D02*
G01*
X21696162Y18638181D01*
X21888181Y18446162D01*
X21921666Y18384839D01*
X21924500Y18358481D01*
X21924500Y18168387D01*
X21930913Y18097808D01*
X21930913Y18097806D01*
X21930914Y18097804D01*
X21981522Y17935394D01*
X22065386Y17796666D01*
X22069530Y17789812D01*
X22189811Y17669531D01*
X22189813Y17669530D01*
X22189815Y17669528D01*
X22335394Y17581522D01*
X22497804Y17530914D01*
X22568384Y17524500D01*
X22568387Y17524500D01*
X23081613Y17524500D01*
X23081616Y17524500D01*
X23152196Y17530914D01*
X23314606Y17581522D01*
X23460185Y17669528D01*
X23460189Y17669532D01*
X23553839Y17763181D01*
X23615162Y17796666D01*
X23641520Y17799500D01*
X24858480Y17799500D01*
X24925519Y17779815D01*
X24946161Y17763181D01*
X25039811Y17669531D01*
X25039813Y17669530D01*
X25039815Y17669528D01*
X25185394Y17581522D01*
X25347804Y17530914D01*
X25418384Y17524500D01*
X25418387Y17524500D01*
X25931613Y17524500D01*
X25931616Y17524500D01*
X26002196Y17530914D01*
X26164606Y17581522D01*
X26310185Y17669528D01*
X26310189Y17669532D01*
X26412319Y17771661D01*
X26473642Y17805146D01*
X26543334Y17800162D01*
X26587681Y17771661D01*
X26689811Y17669531D01*
X26689813Y17669530D01*
X26689815Y17669528D01*
X26835394Y17581522D01*
X26997804Y17530914D01*
X27068384Y17524500D01*
X27068387Y17524500D01*
X27581613Y17524500D01*
X27581616Y17524500D01*
X27652196Y17530914D01*
X27814606Y17581522D01*
X27960185Y17669528D01*
X27960189Y17669532D01*
X28053839Y17763181D01*
X28115162Y17796666D01*
X28141520Y17799500D01*
X28658481Y17799500D01*
X28725520Y17779815D01*
X28746162Y17763181D01*
X30433158Y16076185D01*
X30466643Y16014862D01*
X30463408Y15950187D01*
X30438910Y15874789D01*
X30399500Y15625962D01*
X30399500Y15374039D01*
X30438910Y15125215D01*
X30516761Y14885614D01*
X30589041Y14743757D01*
X30601937Y14675088D01*
X30575660Y14610348D01*
X30518554Y14570091D01*
X30448748Y14567099D01*
X30390875Y14599782D01*
X29446546Y15544112D01*
X29446545Y15544113D01*
X29331807Y15620778D01*
X29204332Y15673579D01*
X29204322Y15673582D01*
X29068996Y15700500D01*
X29068994Y15700500D01*
X29068993Y15700500D01*
X28141520Y15700500D01*
X28074481Y15720185D01*
X28053839Y15736819D01*
X27960188Y15830470D01*
X27814606Y15918478D01*
X27712846Y15950187D01*
X27652196Y15969086D01*
X27652194Y15969087D01*
X27652192Y15969087D01*
X27602778Y15973577D01*
X27581616Y15975500D01*
X27068384Y15975500D01*
X27049145Y15973752D01*
X26997807Y15969087D01*
X26835393Y15918478D01*
X26689811Y15830470D01*
X26689810Y15830469D01*
X26587681Y15728339D01*
X26526358Y15694854D01*
X26456666Y15699838D01*
X26412319Y15728339D01*
X26310188Y15830470D01*
X26164606Y15918478D01*
X26062846Y15950187D01*
X26002196Y15969086D01*
X26002194Y15969087D01*
X26002192Y15969087D01*
X25952778Y15973577D01*
X25931616Y15975500D01*
X25418384Y15975500D01*
X25399145Y15973752D01*
X25347807Y15969087D01*
X25185393Y15918478D01*
X25039811Y15830470D01*
X25039810Y15830469D01*
X24946161Y15736819D01*
X24884838Y15703334D01*
X24858480Y15700500D01*
X23641520Y15700500D01*
X23574481Y15720185D01*
X23553839Y15736819D01*
X23460188Y15830470D01*
X23314606Y15918478D01*
X23212846Y15950187D01*
X23152196Y15969086D01*
X23152194Y15969087D01*
X23152192Y15969087D01*
X23102778Y15973577D01*
X23081616Y15975500D01*
X22568384Y15975500D01*
X22549145Y15973752D01*
X22497807Y15969087D01*
X22335393Y15918478D01*
X22189811Y15830470D01*
X22069530Y15710189D01*
X21981522Y15564607D01*
X21930913Y15402193D01*
X21924500Y15331614D01*
X21924500Y15141519D01*
X21904815Y15074480D01*
X21888181Y15053838D01*
X21696162Y14861819D01*
X21634839Y14828334D01*
X21608481Y14825500D01*
X20992769Y14825500D01*
X20925730Y14845185D01*
X20905088Y14861819D01*
X17859088Y17907819D01*
X17825603Y17969142D01*
X17830587Y18038834D01*
X17872459Y18094767D01*
X17937923Y18119184D01*
X17946769Y18119500D01*
X19410052Y18119500D01*
X19501096Y18137611D01*
X19545384Y18146420D01*
X19614595Y18175088D01*
X19672863Y18199223D01*
X19672864Y18199224D01*
X19672867Y18199225D01*
X19787599Y18275886D01*
X20149894Y18638181D01*
X20211217Y18671666D01*
X20237575Y18674500D01*
X21608481Y18674500D01*
X21675520Y18654815D01*
G37*
%TD.AperFunction*%
%TA.AperFunction,Conductor*%
G36*
X21675520Y25654815D02*
G01*
X21696162Y25638181D01*
X21888181Y25446162D01*
X21921666Y25384839D01*
X21924500Y25358481D01*
X21924500Y25168387D01*
X21930913Y25097808D01*
X21930913Y25097806D01*
X21930914Y25097804D01*
X21981522Y24935394D01*
X22065386Y24796666D01*
X22069530Y24789812D01*
X22189811Y24669531D01*
X22189813Y24669530D01*
X22189815Y24669528D01*
X22335394Y24581522D01*
X22497804Y24530914D01*
X22568384Y24524500D01*
X22568387Y24524500D01*
X23081613Y24524500D01*
X23081616Y24524500D01*
X23152196Y24530914D01*
X23314606Y24581522D01*
X23460185Y24669528D01*
X23460189Y24669532D01*
X23553839Y24763181D01*
X23615162Y24796666D01*
X23641520Y24799500D01*
X24858480Y24799500D01*
X24925519Y24779815D01*
X24946161Y24763181D01*
X25039811Y24669531D01*
X25039813Y24669530D01*
X25039815Y24669528D01*
X25185394Y24581522D01*
X25347804Y24530914D01*
X25418384Y24524500D01*
X25418387Y24524500D01*
X25931613Y24524500D01*
X25931616Y24524500D01*
X26002196Y24530914D01*
X26164606Y24581522D01*
X26310185Y24669528D01*
X26310189Y24669532D01*
X26412319Y24771661D01*
X26473642Y24805146D01*
X26543334Y24800162D01*
X26587681Y24771661D01*
X26689811Y24669531D01*
X26689813Y24669530D01*
X26689815Y24669528D01*
X26835394Y24581522D01*
X26997804Y24530914D01*
X27068384Y24524500D01*
X27068387Y24524500D01*
X27581613Y24524500D01*
X27581616Y24524500D01*
X27652196Y24530914D01*
X27814606Y24581522D01*
X27960185Y24669528D01*
X27960189Y24669532D01*
X28053839Y24763181D01*
X28115162Y24796666D01*
X28141520Y24799500D01*
X28658481Y24799500D01*
X28725520Y24779815D01*
X28746162Y24763181D01*
X30433158Y23076185D01*
X30466643Y23014862D01*
X30463408Y22950187D01*
X30438910Y22874789D01*
X30399500Y22625962D01*
X30399500Y22374039D01*
X30438910Y22125215D01*
X30516761Y21885614D01*
X30589041Y21743757D01*
X30601937Y21675088D01*
X30575660Y21610348D01*
X30518554Y21570091D01*
X30448748Y21567099D01*
X30390875Y21599782D01*
X29446546Y22544112D01*
X29446545Y22544113D01*
X29331807Y22620778D01*
X29204332Y22673579D01*
X29204322Y22673582D01*
X29068996Y22700500D01*
X29068994Y22700500D01*
X29068993Y22700500D01*
X28141520Y22700500D01*
X28074481Y22720185D01*
X28053839Y22736819D01*
X27960188Y22830470D01*
X27881774Y22877873D01*
X27814606Y22918478D01*
X27652196Y22969086D01*
X27652194Y22969087D01*
X27652192Y22969087D01*
X27602778Y22973577D01*
X27581616Y22975500D01*
X27068384Y22975500D01*
X27049145Y22973752D01*
X26997807Y22969087D01*
X26835393Y22918478D01*
X26689811Y22830470D01*
X26689810Y22830469D01*
X26587681Y22728339D01*
X26526358Y22694854D01*
X26456666Y22699838D01*
X26412319Y22728339D01*
X26310188Y22830470D01*
X26231774Y22877873D01*
X26164606Y22918478D01*
X26002196Y22969086D01*
X26002194Y22969087D01*
X26002192Y22969087D01*
X25952778Y22973577D01*
X25931616Y22975500D01*
X25418384Y22975500D01*
X25399145Y22973752D01*
X25347807Y22969087D01*
X25185393Y22918478D01*
X25039811Y22830470D01*
X25039810Y22830469D01*
X24946161Y22736819D01*
X24884838Y22703334D01*
X24858480Y22700500D01*
X23641520Y22700500D01*
X23574481Y22720185D01*
X23553839Y22736819D01*
X23460188Y22830470D01*
X23381774Y22877873D01*
X23314606Y22918478D01*
X23152196Y22969086D01*
X23152194Y22969087D01*
X23152192Y22969087D01*
X23105059Y22973370D01*
X23092220Y22974537D01*
X23055991Y22983466D01*
X23029329Y22994510D01*
X23029323Y22994512D01*
X22893996Y23021430D01*
X22893994Y23021430D01*
X22756006Y23021430D01*
X22756004Y23021430D01*
X22620677Y22994512D01*
X22620676Y22994511D01*
X22620675Y22994511D01*
X22620672Y22994510D01*
X22594005Y22983465D01*
X22557779Y22974537D01*
X22546235Y22973488D01*
X22497807Y22969087D01*
X22335393Y22918478D01*
X22189811Y22830470D01*
X22069530Y22710189D01*
X22010857Y22613133D01*
X22000001Y22595173D01*
X21981521Y22564604D01*
X21946933Y22453608D01*
X21916229Y22402818D01*
X21078232Y21564819D01*
X21016909Y21531334D01*
X20990551Y21528500D01*
X20431531Y21528500D01*
X20323118Y21506935D01*
X20323117Y21506935D01*
X20296199Y21501580D01*
X20168718Y21448776D01*
X20053982Y21372113D01*
X20053981Y21372112D01*
X18873690Y20191819D01*
X18812367Y20158334D01*
X18786009Y20155500D01*
X14552129Y20155500D01*
X14552118Y20155499D01*
X14510877Y20151066D01*
X14442117Y20163474D01*
X14390982Y20211086D01*
X14373628Y20275110D01*
X14375251Y20541229D01*
X14395344Y20608145D01*
X14448426Y20653577D01*
X14512504Y20663760D01*
X14515922Y20663393D01*
X14552127Y20659500D01*
X15121004Y20659501D01*
X15121018Y20659500D01*
X15131007Y20659500D01*
X17204996Y20659500D01*
X17296040Y20677611D01*
X17340328Y20686420D01*
X17412233Y20716204D01*
X17467807Y20739223D01*
X17467808Y20739224D01*
X17467811Y20739225D01*
X17582543Y20815886D01*
X20919114Y24152457D01*
X20995775Y24267189D01*
X21048580Y24394672D01*
X21072865Y24516759D01*
X21075500Y24530004D01*
X21075500Y25550500D01*
X21095185Y25617539D01*
X21147989Y25663294D01*
X21199500Y25674500D01*
X21608481Y25674500D01*
X21675520Y25654815D01*
G37*
%TD.AperFunction*%
%TA.AperFunction,Conductor*%
G36*
X21675520Y32654815D02*
G01*
X21696162Y32638181D01*
X21888181Y32446162D01*
X21921666Y32384839D01*
X21924500Y32358481D01*
X21924500Y32168387D01*
X21930913Y32097808D01*
X21930913Y32097806D01*
X21930914Y32097804D01*
X21981522Y31935394D01*
X22065386Y31796666D01*
X22069530Y31789812D01*
X22189811Y31669531D01*
X22189813Y31669530D01*
X22189815Y31669528D01*
X22335394Y31581522D01*
X22497804Y31530914D01*
X22568384Y31524500D01*
X22568387Y31524500D01*
X23081613Y31524500D01*
X23081616Y31524500D01*
X23152196Y31530914D01*
X23314606Y31581522D01*
X23460185Y31669528D01*
X23460189Y31669532D01*
X23553839Y31763181D01*
X23615162Y31796666D01*
X23641520Y31799500D01*
X24858480Y31799500D01*
X24925519Y31779815D01*
X24946161Y31763181D01*
X25039811Y31669531D01*
X25039813Y31669530D01*
X25039815Y31669528D01*
X25185394Y31581522D01*
X25347804Y31530914D01*
X25418384Y31524500D01*
X25418387Y31524500D01*
X25931613Y31524500D01*
X25931616Y31524500D01*
X26002196Y31530914D01*
X26164606Y31581522D01*
X26310185Y31669528D01*
X26310189Y31669532D01*
X26412319Y31771661D01*
X26473642Y31805146D01*
X26543334Y31800162D01*
X26587681Y31771661D01*
X26689811Y31669531D01*
X26689813Y31669530D01*
X26689815Y31669528D01*
X26835394Y31581522D01*
X26997804Y31530914D01*
X27068384Y31524500D01*
X27068387Y31524500D01*
X27581613Y31524500D01*
X27581616Y31524500D01*
X27652196Y31530914D01*
X27814606Y31581522D01*
X27960185Y31669528D01*
X27960189Y31669532D01*
X28053839Y31763181D01*
X28115162Y31796666D01*
X28141520Y31799500D01*
X28658481Y31799500D01*
X28725520Y31779815D01*
X28746162Y31763181D01*
X30433158Y30076185D01*
X30466643Y30014862D01*
X30463408Y29950187D01*
X30438910Y29874789D01*
X30407042Y29673582D01*
X30399500Y29625962D01*
X30399500Y29374038D01*
X30425172Y29211951D01*
X30438910Y29125215D01*
X30516761Y28885614D01*
X30589041Y28743757D01*
X30601937Y28675088D01*
X30575660Y28610348D01*
X30518554Y28570091D01*
X30448748Y28567099D01*
X30390875Y28599782D01*
X29446546Y29544112D01*
X29446545Y29544113D01*
X29331807Y29620778D01*
X29204332Y29673579D01*
X29204322Y29673582D01*
X29068996Y29700500D01*
X29068994Y29700500D01*
X29068993Y29700500D01*
X28141520Y29700500D01*
X28074481Y29720185D01*
X28053839Y29736819D01*
X27960188Y29830470D01*
X27814606Y29918478D01*
X27712846Y29950187D01*
X27652196Y29969086D01*
X27652194Y29969087D01*
X27652192Y29969087D01*
X27602778Y29973577D01*
X27581616Y29975500D01*
X27068384Y29975500D01*
X27049145Y29973752D01*
X26997807Y29969087D01*
X26835393Y29918478D01*
X26689811Y29830470D01*
X26689810Y29830469D01*
X26587681Y29728339D01*
X26526358Y29694854D01*
X26456666Y29699838D01*
X26412319Y29728339D01*
X26310188Y29830470D01*
X26164606Y29918478D01*
X26062846Y29950187D01*
X26002196Y29969086D01*
X26002194Y29969087D01*
X26002192Y29969087D01*
X25952778Y29973577D01*
X25931616Y29975500D01*
X25418384Y29975500D01*
X25399145Y29973752D01*
X25347807Y29969087D01*
X25185393Y29918478D01*
X25039811Y29830470D01*
X25039810Y29830469D01*
X24946161Y29736819D01*
X24884838Y29703334D01*
X24858480Y29700500D01*
X23641520Y29700500D01*
X23574481Y29720185D01*
X23553839Y29736819D01*
X23460188Y29830470D01*
X23314606Y29918478D01*
X23212846Y29950187D01*
X23152196Y29969086D01*
X23152194Y29969087D01*
X23152192Y29969087D01*
X23102778Y29973577D01*
X23081616Y29975500D01*
X22568384Y29975500D01*
X22549145Y29973752D01*
X22497807Y29969087D01*
X22335393Y29918478D01*
X22189811Y29830470D01*
X22069530Y29710189D01*
X21981522Y29564607D01*
X21930913Y29402193D01*
X21924500Y29331614D01*
X21924500Y29141519D01*
X21904815Y29074480D01*
X21888181Y29053838D01*
X21696162Y28861819D01*
X21634839Y28828334D01*
X21608481Y28825500D01*
X21553406Y28825500D01*
X21418079Y28798582D01*
X21418069Y28798579D01*
X21290594Y28745778D01*
X21175856Y28669113D01*
X19230885Y26724142D01*
X19167447Y26629198D01*
X19154230Y26609418D01*
X19154223Y26609406D01*
X19101420Y26481927D01*
X19101418Y26481921D01*
X19074117Y26344668D01*
X19041732Y26282758D01*
X18981016Y26248183D01*
X18911247Y26251923D01*
X18854575Y26292790D01*
X18828994Y26357808D01*
X18828500Y26368860D01*
X18828500Y30440551D01*
X18848185Y30507590D01*
X18864819Y30528232D01*
X20974768Y32638181D01*
X21036091Y32671666D01*
X21062449Y32674500D01*
X21608481Y32674500D01*
X21675520Y32654815D01*
G37*
%TD.AperFunction*%
%TA.AperFunction,Conductor*%
G36*
X18663462Y40992823D02*
G01*
X18688735Y40989598D01*
X18701573Y40981633D01*
X18706059Y40980315D01*
X18718725Y40970990D01*
X18794437Y40907460D01*
X19137799Y40667036D01*
X19137806Y40667032D01*
X19137817Y40667024D01*
X19500845Y40457429D01*
X19500854Y40457425D01*
X19880741Y40280280D01*
X19880745Y40280279D01*
X19880759Y40280272D01*
X20274668Y40136901D01*
X20274674Y40136900D01*
X20274678Y40136898D01*
X20384940Y40107354D01*
X20679573Y40028407D01*
X21092393Y39955616D01*
X21509985Y39919082D01*
X21509986Y39919081D01*
X21509987Y39919081D01*
X21929176Y39919081D01*
X21929176Y39919082D01*
X22346769Y39955616D01*
X22759589Y40028407D01*
X23164494Y40136901D01*
X23558403Y40280272D01*
X23938317Y40457429D01*
X24301345Y40667024D01*
X24644724Y40907460D01*
X24668620Y40927511D01*
X24720437Y40970990D01*
X24784445Y40999002D01*
X24800142Y41000000D01*
X32876000Y41000000D01*
X32943039Y40980315D01*
X32988794Y40927511D01*
X33000000Y40876000D01*
X33000000Y34489108D01*
X32980315Y34422069D01*
X32927511Y34376314D01*
X32858353Y34366370D01*
X32819705Y34378623D01*
X32614383Y34483239D01*
X32614382Y34483240D01*
X32614379Y34483241D01*
X32374785Y34561090D01*
X32125962Y34600500D01*
X31874038Y34600500D01*
X31824273Y34592618D01*
X31625211Y34561090D01*
X31549813Y34536592D01*
X31479972Y34534597D01*
X31423815Y34566842D01*
X29446546Y36544112D01*
X29446545Y36544113D01*
X29331807Y36620778D01*
X29204332Y36673579D01*
X29204322Y36673582D01*
X29068996Y36700500D01*
X29068994Y36700500D01*
X29068993Y36700500D01*
X28141520Y36700500D01*
X28074481Y36720185D01*
X28053839Y36736819D01*
X27960188Y36830470D01*
X27814606Y36918478D01*
X27652196Y36969086D01*
X27652194Y36969087D01*
X27652192Y36969087D01*
X27602778Y36973577D01*
X27581616Y36975500D01*
X27068384Y36975500D01*
X27049145Y36973752D01*
X26997807Y36969087D01*
X26835393Y36918478D01*
X26689811Y36830470D01*
X26689810Y36830469D01*
X26587681Y36728339D01*
X26526358Y36694854D01*
X26456666Y36699838D01*
X26412319Y36728339D01*
X26310188Y36830470D01*
X26164606Y36918478D01*
X26002196Y36969086D01*
X26002194Y36969087D01*
X26002192Y36969087D01*
X25952778Y36973577D01*
X25931616Y36975500D01*
X25418384Y36975500D01*
X25399145Y36973752D01*
X25347807Y36969087D01*
X25185393Y36918478D01*
X25039811Y36830470D01*
X25039810Y36830469D01*
X24946161Y36736819D01*
X24884838Y36703334D01*
X24858480Y36700500D01*
X23641520Y36700500D01*
X23574481Y36720185D01*
X23553839Y36736819D01*
X23460188Y36830470D01*
X23314606Y36918478D01*
X23152196Y36969086D01*
X23152194Y36969087D01*
X23152192Y36969087D01*
X23102778Y36973577D01*
X23081616Y36975500D01*
X22568384Y36975500D01*
X22549145Y36973752D01*
X22497807Y36969087D01*
X22335393Y36918478D01*
X22189811Y36830470D01*
X22069530Y36710189D01*
X21981522Y36564607D01*
X21930913Y36402193D01*
X21924500Y36331614D01*
X21924500Y36141519D01*
X21904815Y36074480D01*
X21888181Y36053838D01*
X21696162Y35861819D01*
X21634839Y35828334D01*
X21608481Y35825500D01*
X21553406Y35825500D01*
X21418079Y35798582D01*
X21418069Y35798579D01*
X21290594Y35745778D01*
X21175856Y35669113D01*
X14639859Y29133116D01*
X14578536Y29099631D01*
X14508844Y29104615D01*
X14452911Y29146487D01*
X14428494Y29211951D01*
X14428180Y29221553D01*
X14429282Y29402193D01*
X14450451Y32874039D01*
X14499249Y40876756D01*
X14519342Y40943674D01*
X14572424Y40989106D01*
X14623247Y41000000D01*
X18639020Y41000000D01*
X18663462Y40992823D01*
G37*
%TD.AperFunction*%
%TD*%
%TA.AperFunction,Conductor*%
%TO.N,PE*%
G36*
X-34997392Y49499390D02*
G01*
X-34626351Y49483742D01*
X-34615970Y49482865D01*
X-34250158Y49436360D01*
X-34239861Y49434607D01*
X-33879278Y49357468D01*
X-33869191Y49354862D01*
X-33516349Y49247627D01*
X-33506516Y49244179D01*
X-33163985Y49107627D01*
X-33154469Y49103361D01*
X-32829071Y48940661D01*
X-32824645Y48938448D01*
X-32815503Y48933385D01*
X-32500744Y48741293D01*
X-32492083Y48735493D01*
X-32416647Y48680231D01*
X-32194614Y48517578D01*
X-32186452Y48511053D01*
X-31908394Y48268871D01*
X-31900814Y48261686D01*
X-31644125Y47996941D01*
X-31637190Y47989157D01*
X-31420879Y47724733D01*
X-31418975Y47722346D01*
X-31413733Y47715606D01*
X-31400500Y47692686D01*
X-31379833Y47672019D01*
X-31375094Y47665926D01*
X-31374946Y47665549D01*
X-31373774Y47664198D01*
X-31360865Y47646986D01*
X-31332663Y47624849D01*
X-31307314Y47599500D01*
X-31281061Y47584343D01*
X-31274126Y47578900D01*
X-31257207Y47565619D01*
X-31257204Y47565618D01*
X-31257202Y47565616D01*
X-31231072Y47554455D01*
X-31217803Y47547821D01*
X-31193186Y47533608D01*
X-31172410Y47528042D01*
X-31172409Y47528041D01*
X-31163894Y47525760D01*
X-31136011Y47513849D01*
X-31100524Y47508780D01*
X-31065892Y47499500D01*
X-31044382Y47499500D01*
X-31026847Y47498254D01*
X-31023805Y47497820D01*
X-31005552Y47495212D01*
X-30977347Y47498611D01*
X-30962516Y47499500D01*
X16107317Y47499500D01*
X16107318Y47499500D01*
X16277851Y47524020D01*
X16319764Y47530045D01*
X16319765Y47530046D01*
X16319769Y47530046D01*
X16525710Y47590516D01*
X16525713Y47590518D01*
X16525715Y47590518D01*
X16720938Y47679673D01*
X16720944Y47679677D01*
X16720950Y47679679D01*
X16901513Y47795719D01*
X17063724Y47936276D01*
X17204281Y48098487D01*
X17320321Y48279050D01*
X17320323Y48279056D01*
X17320327Y48279062D01*
X17409482Y48474285D01*
X17409482Y48474287D01*
X17409484Y48474290D01*
X17469954Y48680231D01*
X17500500Y48892682D01*
X17500500Y48993039D01*
X17501280Y49006923D01*
X17501280Y49006924D01*
X17511460Y49097271D01*
X17517635Y49124330D01*
X17545353Y49203544D01*
X17557396Y49228550D01*
X17602046Y49299611D01*
X17619351Y49321310D01*
X17678690Y49380649D01*
X17700389Y49397954D01*
X17771450Y49442604D01*
X17796456Y49454647D01*
X17875670Y49482365D01*
X17902733Y49488541D01*
X17965419Y49495604D01*
X17993079Y49498720D01*
X18006962Y49499500D01*
X18065892Y49499500D01*
X25934108Y49499500D01*
X25993038Y49499500D01*
X26006922Y49498720D01*
X26097266Y49488541D01*
X26124331Y49482364D01*
X26203540Y49454648D01*
X26228553Y49442602D01*
X26299606Y49397957D01*
X26321313Y49380645D01*
X26380644Y49321314D01*
X26397957Y49299605D01*
X26442600Y49228556D01*
X26454648Y49203538D01*
X26482362Y49124334D01*
X26488540Y49097265D01*
X26498720Y49006924D01*
X26499500Y48993039D01*
X26499500Y48892683D01*
X26530044Y48680236D01*
X26530047Y48680226D01*
X26590517Y48474285D01*
X26679672Y48279062D01*
X26679679Y48279049D01*
X26795720Y48098486D01*
X26936275Y47936276D01*
X27060277Y47828828D01*
X27098487Y47795719D01*
X27221070Y47716940D01*
X27279048Y47679680D01*
X27279061Y47679673D01*
X27474284Y47590518D01*
X27474288Y47590517D01*
X27474290Y47590516D01*
X27680231Y47530046D01*
X27680232Y47530046D01*
X27680235Y47530045D01*
X27743584Y47520938D01*
X27892682Y47499500D01*
X27934108Y47499500D01*
X36934108Y47499500D01*
X36996249Y47499500D01*
X37003736Y47499274D01*
X37020599Y47498254D01*
X37293796Y47481729D01*
X37308659Y47479924D01*
X37590798Y47428220D01*
X37605335Y47424637D01*
X37879172Y47339305D01*
X37893163Y47334000D01*
X38154743Y47216273D01*
X38167989Y47209320D01*
X38413465Y47060925D01*
X38425776Y47052427D01*
X38651573Y46875527D01*
X38662781Y46865597D01*
X38865596Y46662782D01*
X38875526Y46651574D01*
X38995481Y46498462D01*
X39052422Y46425783D01*
X39060928Y46413460D01*
X39209316Y46167996D01*
X39216275Y46154737D01*
X39333997Y45893169D01*
X39339306Y45879168D01*
X39424635Y45605337D01*
X39428219Y45590799D01*
X39479923Y45308660D01*
X39481728Y45293795D01*
X39499274Y45003737D01*
X39499500Y44996250D01*
X39499500Y-44996249D01*
X39499274Y-45003736D01*
X39481728Y-45293794D01*
X39479923Y-45308659D01*
X39428219Y-45590798D01*
X39424635Y-45605336D01*
X39339306Y-45879167D01*
X39333997Y-45893168D01*
X39216275Y-46154736D01*
X39209316Y-46167995D01*
X39060928Y-46413459D01*
X39052422Y-46425782D01*
X38875526Y-46651573D01*
X38865596Y-46662781D01*
X38662781Y-46865596D01*
X38651573Y-46875526D01*
X38425782Y-47052422D01*
X38413459Y-47060928D01*
X38167995Y-47209316D01*
X38154736Y-47216275D01*
X37893168Y-47333997D01*
X37879167Y-47339306D01*
X37605336Y-47424635D01*
X37590798Y-47428219D01*
X37308659Y-47479923D01*
X37293794Y-47481728D01*
X37003736Y-47499274D01*
X36996249Y-47499500D01*
X27892682Y-47499500D01*
X27680235Y-47530044D01*
X27680225Y-47530047D01*
X27474284Y-47590517D01*
X27279061Y-47679672D01*
X27279048Y-47679679D01*
X27098485Y-47795720D01*
X26936275Y-47936275D01*
X26795720Y-48098485D01*
X26679679Y-48279048D01*
X26679672Y-48279061D01*
X26590517Y-48474284D01*
X26530047Y-48680225D01*
X26530044Y-48680235D01*
X26499500Y-48892682D01*
X26499500Y-48993038D01*
X26498720Y-49006922D01*
X26498720Y-49006923D01*
X26488540Y-49097264D01*
X26482362Y-49124333D01*
X26454648Y-49203537D01*
X26442600Y-49228555D01*
X26397957Y-49299604D01*
X26380644Y-49321313D01*
X26321313Y-49380644D01*
X26299604Y-49397957D01*
X26228555Y-49442600D01*
X26203537Y-49454648D01*
X26124333Y-49482362D01*
X26097264Y-49488540D01*
X26017075Y-49497576D01*
X26006921Y-49498720D01*
X25993038Y-49499500D01*
X18006962Y-49499500D01*
X17993078Y-49498720D01*
X17980553Y-49497308D01*
X17902735Y-49488540D01*
X17875666Y-49482362D01*
X17796462Y-49454648D01*
X17771444Y-49442600D01*
X17700395Y-49397957D01*
X17678686Y-49380644D01*
X17619355Y-49321313D01*
X17602042Y-49299604D01*
X17569385Y-49247631D01*
X17557398Y-49228553D01*
X17545351Y-49203537D01*
X17517637Y-49124333D01*
X17511459Y-49097263D01*
X17501280Y-49006922D01*
X17500500Y-48993038D01*
X17500500Y-48892683D01*
X17500500Y-48892682D01*
X17469954Y-48680231D01*
X17409484Y-48474290D01*
X17409483Y-48474288D01*
X17409482Y-48474284D01*
X17320327Y-48279061D01*
X17320320Y-48279048D01*
X17249102Y-48168231D01*
X17204281Y-48098487D01*
X17124227Y-48006100D01*
X17063724Y-47936275D01*
X16901514Y-47795720D01*
X16901513Y-47795719D01*
X16791053Y-47724731D01*
X16720951Y-47679679D01*
X16720938Y-47679672D01*
X16525715Y-47590517D01*
X16319774Y-47530047D01*
X16319764Y-47530044D01*
X16128754Y-47502582D01*
X16107318Y-47499500D01*
X16107317Y-47499500D01*
X-30969960Y-47499500D01*
X-31005552Y-47495212D01*
X-31035568Y-47499500D01*
X-31065892Y-47499500D01*
X-31065896Y-47499500D01*
X-31093335Y-47506852D01*
X-31107882Y-47509829D01*
X-31136006Y-47513848D01*
X-31136009Y-47513848D01*
X-31136011Y-47513849D01*
X-31136013Y-47513849D01*
X-31136014Y-47513850D01*
X-31155803Y-47522302D01*
X-31163898Y-47525759D01*
X-31193186Y-47533608D01*
X-31224235Y-47551533D01*
X-31231082Y-47554458D01*
X-31231083Y-47554458D01*
X-31257198Y-47565613D01*
X-31257204Y-47565616D01*
X-31274122Y-47578897D01*
X-31288681Y-47588741D01*
X-31307313Y-47599498D01*
X-31307316Y-47599501D01*
X-31327407Y-47619590D01*
X-31338516Y-47629441D01*
X-31360864Y-47646983D01*
X-31360865Y-47646985D01*
X-31373778Y-47664202D01*
X-31375095Y-47665926D01*
X-31379834Y-47672018D01*
X-31400500Y-47692686D01*
X-31413733Y-47715605D01*
X-31418974Y-47722344D01*
X-31419481Y-47722709D01*
X-31420878Y-47724731D01*
X-31637190Y-47989156D01*
X-31644136Y-47996951D01*
X-31653005Y-48006100D01*
X-31900810Y-48261681D01*
X-31908394Y-48268870D01*
X-32186452Y-48511052D01*
X-32194614Y-48517577D01*
X-32492072Y-48735484D01*
X-32500755Y-48741299D01*
X-32815504Y-48933384D01*
X-32824645Y-48938447D01*
X-33154459Y-49103355D01*
X-33163995Y-49107630D01*
X-33506502Y-49244173D01*
X-33516364Y-49247631D01*
X-33869176Y-49354857D01*
X-33879293Y-49357471D01*
X-34239858Y-49434605D01*
X-34250160Y-49436359D01*
X-34615954Y-49482862D01*
X-34626367Y-49483742D01*
X-34997392Y-49499390D01*
X-35002617Y-49499500D01*
X-38993038Y-49499500D01*
X-39006922Y-49498720D01*
X-39019447Y-49497308D01*
X-39097265Y-49488540D01*
X-39124334Y-49482362D01*
X-39203538Y-49454648D01*
X-39228556Y-49442600D01*
X-39299605Y-49397957D01*
X-39321314Y-49380644D01*
X-39380645Y-49321313D01*
X-39397958Y-49299604D01*
X-39430615Y-49247631D01*
X-39442602Y-49228553D01*
X-39454649Y-49203537D01*
X-39482363Y-49124333D01*
X-39488541Y-49097263D01*
X-39498720Y-49006922D01*
X-39499500Y-48993038D01*
X-39499500Y-35124000D01*
X-39479815Y-35056961D01*
X-39427011Y-35011206D01*
X-39375500Y-35000000D01*
X-35124000Y-35000000D01*
X-35056961Y-35019685D01*
X-35011206Y-35072489D01*
X-35000000Y-35124000D01*
X-35000000Y-43000000D01*
X35000000Y-43000000D01*
X35000000Y43000000D01*
X-35000000Y43000000D01*
X-35000000Y35124000D01*
X-35019685Y35056961D01*
X-35072489Y35011206D01*
X-35124000Y35000000D01*
X-39375500Y35000000D01*
X-39442539Y35019685D01*
X-39488294Y35072489D01*
X-39499500Y35124000D01*
X-39499500Y48993039D01*
X-39498720Y49006923D01*
X-39498720Y49006924D01*
X-39488540Y49097271D01*
X-39482365Y49124330D01*
X-39454647Y49203544D01*
X-39442604Y49228550D01*
X-39397954Y49299611D01*
X-39380649Y49321310D01*
X-39321310Y49380649D01*
X-39299611Y49397954D01*
X-39228550Y49442604D01*
X-39203544Y49454647D01*
X-39124330Y49482365D01*
X-39097267Y49488541D01*
X-39034581Y49495604D01*
X-39006921Y49498720D01*
X-38993038Y49499500D01*
X-38934108Y49499500D01*
X-35065892Y49499500D01*
X-35002617Y49499500D01*
X-34997392Y49499390D01*
G37*
%TD.AperFunction*%
%TD*%
M02*
