%TF.GenerationSoftware,KiCad,Pcbnew,9.0.6*%
%TF.CreationDate,2025-12-01T21:17:04+03:00*%
%TF.ProjectId,PMCNV-DIx16,504d434e-562d-4444-9978-31362e6b6963,rev?*%
%TF.SameCoordinates,Original*%
%TF.FileFunction,Soldermask,Bot*%
%TF.FilePolarity,Negative*%
%FSLAX46Y46*%
G04 Gerber Fmt 4.6, Leading zero omitted, Abs format (unit mm)*
G04 Created by KiCad (PCBNEW 9.0.6) date 2025-12-01 21:17:04*
%MOMM*%
%LPD*%
G01*
G04 APERTURE LIST*
G04 Aperture macros list*
%AMFreePoly0*
4,1,23,0.500000,-0.750000,0.000000,-0.750000,0.000000,-0.745722,-0.065263,-0.745722,-0.191342,-0.711940,-0.304381,-0.646677,-0.396677,-0.554381,-0.461940,-0.441342,-0.495722,-0.315263,-0.495722,-0.250000,-0.500000,-0.250000,-0.500000,0.250000,-0.495722,0.250000,-0.495722,0.315263,-0.461940,0.441342,-0.396677,0.554381,-0.304381,0.646677,-0.191342,0.711940,-0.065263,0.745722,0.000000,0.745722,
0.000000,0.750000,0.500000,0.750000,0.500000,-0.750000,0.500000,-0.750000,$1*%
%AMFreePoly1*
4,1,23,0.000000,0.745722,0.065263,0.745722,0.191342,0.711940,0.304381,0.646677,0.396677,0.554381,0.461940,0.441342,0.495722,0.315263,0.495722,0.250000,0.500000,0.250000,0.500000,-0.250000,0.495722,-0.250000,0.495722,-0.315263,0.461940,-0.441342,0.396677,-0.554381,0.304381,-0.646677,0.191342,-0.711940,0.065263,-0.745722,0.000000,-0.745722,0.000000,-0.750000,-0.500000,-0.750000,
-0.500000,0.750000,0.000000,0.750000,0.000000,0.745722,0.000000,0.745722,$1*%
%AMFreePoly2*
4,1,23,0.550000,-0.750000,0.000000,-0.750000,0.000000,-0.745722,-0.065263,-0.745722,-0.191342,-0.711940,-0.304381,-0.646677,-0.396677,-0.554381,-0.461940,-0.441342,-0.495722,-0.315263,-0.495722,-0.250000,-0.500000,-0.250000,-0.500000,0.250000,-0.495722,0.250000,-0.495722,0.315263,-0.461940,0.441342,-0.396677,0.554381,-0.304381,0.646677,-0.191342,0.711940,-0.065263,0.745722,0.000000,0.745722,
0.000000,0.750000,0.550000,0.750000,0.550000,-0.750000,0.550000,-0.750000,$1*%
%AMFreePoly3*
4,1,23,0.000000,0.745722,0.065263,0.745722,0.191342,0.711940,0.304381,0.646677,0.396677,0.554381,0.461940,0.441342,0.495722,0.315263,0.495722,0.250000,0.500000,0.250000,0.500000,-0.250000,0.495722,-0.250000,0.495722,-0.315263,0.461940,-0.441342,0.396677,-0.554381,0.304381,-0.646677,0.191342,-0.711940,0.065263,-0.745722,0.000000,-0.745722,0.000000,-0.750000,-0.550000,-0.750000,
-0.550000,0.750000,0.000000,0.750000,0.000000,0.745722,0.000000,0.745722,$1*%
G04 Aperture macros list end*
%ADD10C,2.200000*%
%ADD11C,0.700000*%
%ADD12C,4.400000*%
%ADD13C,0.900000*%
%ADD14C,8.600000*%
%ADD15R,1.800000X0.600000*%
%ADD16R,3.000000X2.600000*%
%ADD17FreePoly0,0.000000*%
%ADD18FreePoly1,0.000000*%
%ADD19FreePoly2,180.000000*%
%ADD20R,1.000000X1.500000*%
%ADD21FreePoly3,180.000000*%
%ADD22FreePoly2,90.000000*%
%ADD23R,1.500000X1.000000*%
%ADD24FreePoly3,90.000000*%
G04 APERTURE END LIST*
%TO.C,JP2*%
G36*
X-26650000Y20750000D02*
G01*
X-26350000Y20750000D01*
X-26350000Y22250000D01*
X-26650000Y22250000D01*
X-26650000Y20750000D01*
G37*
%TO.C,JP4*%
G36*
X-26650000Y15750000D02*
G01*
X-26350000Y15750000D01*
X-26350000Y17250000D01*
X-26650000Y17250000D01*
X-26650000Y15750000D01*
G37*
%TO.C,JP3*%
G36*
X-26650000Y18250000D02*
G01*
X-26350000Y18250000D01*
X-26350000Y19750000D01*
X-26650000Y19750000D01*
X-26650000Y18250000D01*
G37*
%TO.C,JP1*%
G36*
X-26650000Y23250000D02*
G01*
X-26350000Y23250000D01*
X-26350000Y24750000D01*
X-26650000Y24750000D01*
X-26650000Y23250000D01*
G37*
%TO.C,JP6*%
G36*
X-31250000Y-3250000D02*
G01*
X-32750000Y-3250000D01*
X-32750000Y-4750000D01*
X-31250000Y-4750000D01*
X-31250000Y-3250000D01*
G37*
%TO.C,JP8*%
G36*
X-25750000Y11750000D02*
G01*
X-27250000Y11750000D01*
X-27250000Y13250000D01*
X-25750000Y13250000D01*
X-25750000Y11750000D01*
G37*
%TO.C,JP5*%
G36*
X-31250000Y-750000D02*
G01*
X-32750000Y-750000D01*
X-32750000Y-2250000D01*
X-31250000Y-2250000D01*
X-31250000Y-750000D01*
G37*
%TO.C,JP7*%
G36*
X-31250000Y-5750000D02*
G01*
X-32750000Y-5750000D01*
X-32750000Y-7250000D01*
X-31250000Y-7250000D01*
X-31250000Y-5750000D01*
G37*
%TO.C,JP9*%
G36*
X-25750000Y6750000D02*
G01*
X-27250000Y6750000D01*
X-27250000Y8250000D01*
X-25750000Y8250000D01*
X-25750000Y6750000D01*
G37*
%TD*%
D10*
%TO.C,J6*%
X32000000Y-40000000D03*
X32000000Y-36500000D03*
X32000000Y-33000000D03*
%TD*%
D11*
%TO.C,SP1*%
X11350000Y45000000D03*
X11350000Y-45000000D03*
X11833274Y46166726D03*
X11833274Y43833274D03*
X11833274Y-43833274D03*
X11833274Y-46166726D03*
X13000000Y46650000D03*
D12*
X13000000Y45000000D03*
D11*
X13000000Y43350000D03*
X13000000Y-43350000D03*
D12*
X13000000Y-45000000D03*
D11*
X13000000Y-46650000D03*
X14166726Y46166726D03*
X14166726Y43833274D03*
X14166726Y-43833274D03*
X14166726Y-46166726D03*
X14650000Y45000000D03*
X14650000Y-45000000D03*
X35350000Y45000000D03*
X35350000Y-45000000D03*
X35833274Y46166726D03*
X35833274Y43833274D03*
X35833274Y-43833274D03*
X35833274Y-46166726D03*
X37000000Y46650000D03*
D12*
X37000000Y45000000D03*
D11*
X37000000Y43350000D03*
X37000000Y-43350000D03*
D12*
X37000000Y-45000000D03*
D11*
X37000000Y-46650000D03*
X38166726Y46166726D03*
X38166726Y43833274D03*
X38166726Y-43833274D03*
X38166726Y-46166726D03*
X38650000Y45000000D03*
X38650000Y-45000000D03*
%TD*%
%TO.C,U2*%
X-38650000Y37000000D03*
X-38650000Y-37000000D03*
X-38166726Y38166726D03*
X-38166726Y35833274D03*
X-38166726Y-35833274D03*
X-38166726Y-38166726D03*
X-37000000Y38650000D03*
D12*
X-37000000Y37000000D03*
D11*
X-37000000Y35350000D03*
X-37000000Y-35350000D03*
D12*
X-37000000Y-37000000D03*
D11*
X-37000000Y-38650000D03*
X-35833274Y38166726D03*
X-35833274Y35833274D03*
X-35833274Y-35833274D03*
X-35833274Y-38166726D03*
X-35350000Y37000000D03*
X-35350000Y-37000000D03*
X-10650000Y45000000D03*
X-10650000Y-45000000D03*
X-10166726Y46166726D03*
X-10166726Y43833274D03*
X-10166726Y-43833274D03*
X-10166726Y-46166726D03*
X-9000000Y46650000D03*
D12*
X-9000000Y45000000D03*
D11*
X-9000000Y43350000D03*
X-9000000Y-43350000D03*
D12*
X-9000000Y-45000000D03*
D11*
X-9000000Y-46650000D03*
X-7833274Y46166726D03*
X-7833274Y43833274D03*
X-7833274Y-43833274D03*
X-7833274Y-46166726D03*
X-7350000Y45000000D03*
X-7350000Y-45000000D03*
%TD*%
D13*
%TO.C,H4*%
X-38225000Y-45000000D03*
X-37280419Y-42719581D03*
X-37280419Y-47280419D03*
X-35000000Y-41775000D03*
D14*
X-35000000Y-45000000D03*
D13*
X-35000000Y-48225000D03*
X-32719581Y-42719581D03*
X-32719581Y-47280419D03*
X-31775000Y-45000000D03*
%TD*%
%TO.C,H3*%
X18775000Y-45000000D03*
X19719581Y-42719581D03*
X19719581Y-47280419D03*
X22000000Y-41775000D03*
D14*
X22000000Y-45000000D03*
D13*
X22000000Y-48225000D03*
X24280419Y-42719581D03*
X24280419Y-47280419D03*
X25225000Y-45000000D03*
%TD*%
%TO.C,H2*%
X18494581Y44719581D03*
X19439162Y47000000D03*
X19439162Y42439162D03*
X21719581Y47944581D03*
D14*
X21719581Y44719581D03*
D13*
X21719581Y41494581D03*
X24000000Y47000000D03*
X24000000Y42439162D03*
X24944581Y44719581D03*
%TD*%
%TO.C,H1*%
X-38225000Y45000000D03*
X-37280419Y47280419D03*
X-37280419Y42719581D03*
X-35000000Y48225000D03*
D14*
X-35000000Y45000000D03*
D13*
X-35000000Y41775000D03*
X-32719581Y47280419D03*
X-32719581Y42719581D03*
X-31775000Y45000000D03*
%TD*%
D10*
%TO.C,J4*%
X32000000Y-28000000D03*
X32000000Y-24500000D03*
X32000000Y-21000000D03*
X32000000Y-17500000D03*
X32000000Y-14000000D03*
X32000000Y-10500000D03*
X32000000Y-7000000D03*
X32000000Y-3500000D03*
X32000000Y0D03*
X32000000Y3500000D03*
%TD*%
%TO.C,J3*%
X32000000Y8500000D03*
X32000000Y12000000D03*
X32000000Y15500000D03*
X32000000Y19000000D03*
X32000000Y22500000D03*
X32000000Y26000000D03*
X32000000Y29500000D03*
X32000000Y33000000D03*
X32000000Y36500000D03*
X32000000Y40000000D03*
%TD*%
D15*
%TO.C,JM2*%
X-36546000Y29500000D03*
X-36546000Y28500000D03*
X-36546000Y27500000D03*
X-36546000Y26500000D03*
X-36546000Y25500000D03*
X-36546000Y24500000D03*
X-36546000Y23500000D03*
X-36546000Y22500000D03*
X-36546000Y21500000D03*
X-36546000Y20500000D03*
X-36546000Y19500000D03*
X-36546000Y18500000D03*
X-36546000Y17500000D03*
X-36546000Y16500000D03*
X-36546000Y15500000D03*
X-36546000Y14500000D03*
X-36546000Y13500000D03*
X-36546000Y12500000D03*
X-36546000Y11500000D03*
X-36546000Y10500000D03*
D16*
X-34375000Y31850000D03*
X-34375000Y8150000D03*
%TD*%
D17*
%TO.C,JP2*%
X-27150000Y21500000D03*
D18*
X-25850000Y21500000D03*
%TD*%
D17*
%TO.C,JP4*%
X-27150000Y16500000D03*
D18*
X-25850000Y16500000D03*
%TD*%
D17*
%TO.C,JP3*%
X-27150000Y19000000D03*
D18*
X-25850000Y19000000D03*
%TD*%
D17*
%TO.C,JP1*%
X-27150000Y24000000D03*
D18*
X-25850000Y24000000D03*
%TD*%
D19*
%TO.C,JP6*%
X-30700000Y-4000000D03*
D20*
X-32000000Y-4000000D03*
D21*
X-33300000Y-4000000D03*
%TD*%
D22*
%TO.C,JP8*%
X-26500000Y11200000D03*
D23*
X-26500000Y12500000D03*
D24*
X-26500000Y13800000D03*
%TD*%
D19*
%TO.C,JP5*%
X-30700000Y-1500000D03*
D20*
X-32000000Y-1500000D03*
D21*
X-33300000Y-1500000D03*
%TD*%
D19*
%TO.C,JP7*%
X-30700000Y-6500000D03*
D20*
X-32000000Y-6500000D03*
D21*
X-33300000Y-6500000D03*
%TD*%
D22*
%TO.C,JP9*%
X-26500000Y6200000D03*
D23*
X-26500000Y7500000D03*
D24*
X-26500000Y8800000D03*
%TD*%
M02*
