%TF.GenerationSoftware,KiCad,Pcbnew,9.0.2*%
%TF.CreationDate,2025-06-19T09:06:35+03:00*%
%TF.ProjectId,PMCNV-RQ8,504d434e-562d-4525-9138-2e6b69636164,rev?*%
%TF.SameCoordinates,Original*%
%TF.FileFunction,Legend,Top*%
%TF.FilePolarity,Positive*%
%FSLAX46Y46*%
G04 Gerber Fmt 4.6, Leading zero omitted, Abs format (unit mm)*
G04 Created by KiCad (PCBNEW 9.0.2) date 2025-06-19 09:06:35*
%MOMM*%
%LPD*%
G01*
G04 APERTURE LIST*
%ADD10C,0.200000*%
%ADD11C,0.150000*%
%ADD12C,0.100000*%
%ADD13C,0.152400*%
%ADD14C,0.000000*%
%ADD15C,0.120000*%
G04 APERTURE END LIST*
D10*
G36*
X-13735782Y39035976D02*
G01*
X-13664873Y39000522D01*
X-13597803Y38933452D01*
X-13562781Y38828387D01*
X-13562781Y38706518D01*
X-14362781Y38706518D01*
X-14362781Y38828386D01*
X-14327760Y38933451D01*
X-14260687Y39000523D01*
X-14189782Y39035976D01*
X-14021901Y39077946D01*
X-13903663Y39077946D01*
X-13735782Y39035976D01*
G37*
G36*
X-13251670Y36681121D02*
G01*
X-14673892Y36681121D01*
X-14673892Y36911741D01*
X-14560860Y36911741D01*
X-14560860Y36872723D01*
X-14545928Y36836675D01*
X-14518338Y36809085D01*
X-14482290Y36794153D01*
X-14462781Y36792232D01*
X-13462781Y36792232D01*
X-13443272Y36794153D01*
X-13407224Y36809085D01*
X-13379634Y36836675D01*
X-13364702Y36872723D01*
X-13362781Y36892232D01*
X-13362781Y37368422D01*
X-13364702Y37387931D01*
X-13379634Y37423979D01*
X-13407224Y37451569D01*
X-13443272Y37466501D01*
X-13482290Y37466501D01*
X-13518338Y37451569D01*
X-13545928Y37423979D01*
X-13560860Y37387931D01*
X-13562781Y37368422D01*
X-13562781Y36992232D01*
X-14462781Y36992232D01*
X-14482290Y36990311D01*
X-14518338Y36975379D01*
X-14545928Y36947789D01*
X-14560860Y36911741D01*
X-14673892Y36911741D01*
X-14673892Y38177946D01*
X-14562781Y38177946D01*
X-14562781Y37701756D01*
X-14560860Y37682247D01*
X-14545928Y37646199D01*
X-14518338Y37618609D01*
X-14482290Y37603677D01*
X-14462781Y37601756D01*
X-13462781Y37601756D01*
X-13443272Y37603677D01*
X-13407224Y37618609D01*
X-13379634Y37646199D01*
X-13364702Y37682247D01*
X-13362781Y37701756D01*
X-13362781Y38177946D01*
X-13364702Y38197455D01*
X-13379634Y38233503D01*
X-13407224Y38261093D01*
X-13443272Y38276025D01*
X-13482290Y38276025D01*
X-13518338Y38261093D01*
X-13545928Y38233503D01*
X-13560860Y38197455D01*
X-13562781Y38177946D01*
X-13562781Y37801756D01*
X-13886591Y37801756D01*
X-13886591Y38035089D01*
X-13888512Y38054598D01*
X-13903444Y38090646D01*
X-13931034Y38118236D01*
X-13967082Y38133168D01*
X-14006100Y38133168D01*
X-14042148Y38118236D01*
X-14069738Y38090646D01*
X-14084670Y38054598D01*
X-14086591Y38035089D01*
X-14086591Y37801756D01*
X-14362781Y37801756D01*
X-14362781Y38177946D01*
X-14364702Y38197455D01*
X-14379634Y38233503D01*
X-14407224Y38261093D01*
X-14443272Y38276025D01*
X-14482290Y38276025D01*
X-14518338Y38261093D01*
X-14545928Y38233503D01*
X-14560860Y38197455D01*
X-14562781Y38177946D01*
X-14673892Y38177946D01*
X-14673892Y38844613D01*
X-14562781Y38844613D01*
X-14562781Y38606518D01*
X-14560860Y38587009D01*
X-14545928Y38550961D01*
X-14518338Y38523371D01*
X-14482290Y38508439D01*
X-14462781Y38506518D01*
X-13462781Y38506518D01*
X-13443272Y38508439D01*
X-13407224Y38523371D01*
X-13379634Y38550961D01*
X-13364702Y38587009D01*
X-13362781Y38606518D01*
X-13362781Y38844613D01*
X-13363754Y38854487D01*
X-13363566Y38857121D01*
X-13364354Y38860585D01*
X-13364702Y38864122D01*
X-13365714Y38866564D01*
X-13367913Y38876236D01*
X-13415532Y39019093D01*
X-13423523Y39036993D01*
X-13425878Y39039709D01*
X-13427253Y39043028D01*
X-13439689Y39058181D01*
X-13534929Y39153419D01*
X-13542599Y39159714D01*
X-13544328Y39161708D01*
X-13547333Y39163600D01*
X-13550082Y39165856D01*
X-13552526Y39166869D01*
X-13560918Y39172151D01*
X-13656156Y39219770D01*
X-13657583Y39220316D01*
X-13658163Y39220746D01*
X-13666340Y39223668D01*
X-13674464Y39226776D01*
X-13675187Y39226828D01*
X-13676624Y39227341D01*
X-13867099Y39274960D01*
X-13870481Y39275461D01*
X-13871844Y39276025D01*
X-13879195Y39276749D01*
X-13886492Y39277828D01*
X-13887951Y39277611D01*
X-13891353Y39277946D01*
X-14034210Y39277946D01*
X-14037613Y39277611D01*
X-14039071Y39277828D01*
X-14046369Y39276749D01*
X-14053719Y39276025D01*
X-14055083Y39275461D01*
X-14058464Y39274960D01*
X-14248940Y39227341D01*
X-14250379Y39226828D01*
X-14251099Y39226776D01*
X-14259224Y39223668D01*
X-14267400Y39220746D01*
X-14267980Y39220317D01*
X-14269408Y39219770D01*
X-14364645Y39172151D01*
X-14373044Y39166865D01*
X-14375481Y39165855D01*
X-14378225Y39163604D01*
X-14381236Y39161708D01*
X-14382969Y39159711D01*
X-14390635Y39153419D01*
X-14485873Y39058181D01*
X-14498309Y39043027D01*
X-14499684Y39039709D01*
X-14502039Y39036993D01*
X-14510030Y39019092D01*
X-14557649Y38876236D01*
X-14559849Y38866565D01*
X-14560860Y38864122D01*
X-14561209Y38860584D01*
X-14561996Y38857120D01*
X-14561809Y38854487D01*
X-14562781Y38844613D01*
X-14673892Y38844613D01*
X-14673892Y39389057D01*
X-13251670Y39389057D01*
X-13251670Y36681121D01*
G37*
G36*
X-33251670Y16966836D02*
G01*
X-34673892Y16966836D01*
X-34673892Y17197456D01*
X-34560860Y17197456D01*
X-34560860Y17158438D01*
X-34545928Y17122390D01*
X-34518338Y17094800D01*
X-34482290Y17079868D01*
X-34462781Y17077947D01*
X-33462781Y17077947D01*
X-33443272Y17079868D01*
X-33407224Y17094800D01*
X-33379634Y17122390D01*
X-33364702Y17158438D01*
X-33364702Y17197456D01*
X-33379634Y17233504D01*
X-33407224Y17261094D01*
X-33443272Y17276026D01*
X-33462781Y17277947D01*
X-34462781Y17277947D01*
X-34482290Y17276026D01*
X-34518338Y17261094D01*
X-34545928Y17233504D01*
X-34560860Y17197456D01*
X-34673892Y17197456D01*
X-34673892Y17987470D01*
X-34562781Y17987470D01*
X-34562781Y17749375D01*
X-34560860Y17729866D01*
X-34559485Y17726546D01*
X-34559230Y17722962D01*
X-34552224Y17704654D01*
X-34504605Y17609416D01*
X-34499320Y17601020D01*
X-34498309Y17598580D01*
X-34496056Y17595834D01*
X-34494162Y17592826D01*
X-34492168Y17591097D01*
X-34485873Y17583426D01*
X-34438254Y17535808D01*
X-34423101Y17523371D01*
X-34387052Y17508440D01*
X-34348034Y17508440D01*
X-34311986Y17523371D01*
X-34284396Y17550961D01*
X-34269465Y17587009D01*
X-34269465Y17626027D01*
X-34284396Y17662076D01*
X-34296833Y17677229D01*
X-34332976Y17713373D01*
X-34362781Y17772983D01*
X-34362781Y17963863D01*
X-34332976Y18023473D01*
X-34308308Y18048142D01*
X-34248698Y18077946D01*
X-34193294Y18077946D01*
X-34088230Y18042925D01*
X-33533492Y17488188D01*
X-33518338Y17475752D01*
X-33482290Y17460820D01*
X-33443272Y17460820D01*
X-33407224Y17475752D01*
X-33379634Y17503342D01*
X-33364702Y17539390D01*
X-33362781Y17558899D01*
X-33362781Y18177946D01*
X-33364702Y18197455D01*
X-33379634Y18233503D01*
X-33407224Y18261093D01*
X-33443272Y18276025D01*
X-33482290Y18276025D01*
X-33518338Y18261093D01*
X-33545928Y18233503D01*
X-33560860Y18197455D01*
X-33562781Y18177946D01*
X-33562781Y17800321D01*
X-33963499Y18201038D01*
X-33978653Y18213474D01*
X-33981972Y18214849D01*
X-33984687Y18217204D01*
X-34002588Y18225195D01*
X-34145444Y18272814D01*
X-34155116Y18275014D01*
X-34157558Y18276025D01*
X-34161097Y18276374D01*
X-34164560Y18277161D01*
X-34167194Y18276974D01*
X-34177067Y18277946D01*
X-34272305Y18277946D01*
X-34291814Y18276025D01*
X-34295135Y18274650D01*
X-34298718Y18274395D01*
X-34317027Y18267389D01*
X-34412264Y18219770D01*
X-34420661Y18214485D01*
X-34423101Y18213474D01*
X-34425847Y18211221D01*
X-34428855Y18209327D01*
X-34430588Y18207330D01*
X-34438254Y18201037D01*
X-34485873Y18153419D01*
X-34492168Y18145749D01*
X-34494162Y18144019D01*
X-34496056Y18141012D01*
X-34498309Y18138265D01*
X-34499320Y18135826D01*
X-34504605Y18127429D01*
X-34552224Y18032191D01*
X-34559230Y18013883D01*
X-34559485Y18010300D01*
X-34560860Y18006979D01*
X-34562781Y17987470D01*
X-34673892Y17987470D01*
X-34673892Y18987470D01*
X-34562781Y18987470D01*
X-34562781Y18892232D01*
X-34561809Y18882359D01*
X-34561996Y18879725D01*
X-34561209Y18876262D01*
X-34560860Y18872723D01*
X-34559849Y18870281D01*
X-34557649Y18860609D01*
X-34510030Y18717753D01*
X-34502039Y18699852D01*
X-34499684Y18697137D01*
X-34498309Y18693818D01*
X-34485873Y18678664D01*
X-34390635Y18583426D01*
X-34382969Y18577135D01*
X-34381236Y18575137D01*
X-34378225Y18573242D01*
X-34375481Y18570990D01*
X-34373044Y18569981D01*
X-34364645Y18564694D01*
X-34269408Y18517075D01*
X-34267980Y18516529D01*
X-34267400Y18516099D01*
X-34259224Y18513178D01*
X-34251099Y18510069D01*
X-34250379Y18510018D01*
X-34248940Y18509504D01*
X-34058464Y18461885D01*
X-34055083Y18461385D01*
X-34053719Y18460820D01*
X-34046369Y18460097D01*
X-34039071Y18459017D01*
X-34037613Y18459235D01*
X-34034210Y18458899D01*
X-33891353Y18458899D01*
X-33887951Y18459235D01*
X-33886492Y18459017D01*
X-33879195Y18460097D01*
X-33871844Y18460820D01*
X-33870481Y18461385D01*
X-33867099Y18461885D01*
X-33676624Y18509504D01*
X-33675187Y18510018D01*
X-33674464Y18510069D01*
X-33666340Y18513178D01*
X-33658163Y18516099D01*
X-33657583Y18516530D01*
X-33656156Y18517075D01*
X-33560918Y18564694D01*
X-33552526Y18569977D01*
X-33550082Y18570989D01*
X-33547333Y18573246D01*
X-33544328Y18575137D01*
X-33542599Y18577132D01*
X-33534929Y18583426D01*
X-33439689Y18678664D01*
X-33427253Y18693817D01*
X-33425878Y18697137D01*
X-33423523Y18699852D01*
X-33415532Y18717752D01*
X-33367913Y18860609D01*
X-33365714Y18870282D01*
X-33364702Y18872723D01*
X-33364354Y18876261D01*
X-33363566Y18879724D01*
X-33363754Y18882359D01*
X-33362781Y18892232D01*
X-33362781Y18987470D01*
X-33363754Y18997344D01*
X-33363566Y18999978D01*
X-33364354Y19003442D01*
X-33364702Y19006979D01*
X-33365714Y19009421D01*
X-33367913Y19019093D01*
X-33415532Y19161950D01*
X-33423523Y19179850D01*
X-33425878Y19182566D01*
X-33427253Y19185885D01*
X-33439690Y19201039D01*
X-33487310Y19248657D01*
X-33502463Y19261094D01*
X-33538512Y19276025D01*
X-33577530Y19276024D01*
X-33613578Y19261093D01*
X-33641168Y19233503D01*
X-33656099Y19197454D01*
X-33656098Y19158436D01*
X-33641167Y19122388D01*
X-33628730Y19107235D01*
X-33597803Y19076309D01*
X-33562781Y18971244D01*
X-33562781Y18908459D01*
X-33597803Y18803394D01*
X-33664873Y18736324D01*
X-33735782Y18700870D01*
X-33903663Y18658899D01*
X-34021901Y18658899D01*
X-34189782Y18700870D01*
X-34260687Y18736322D01*
X-34327760Y18803395D01*
X-34362781Y18908459D01*
X-34362781Y18971243D01*
X-34327760Y19076309D01*
X-34296833Y19107235D01*
X-34284396Y19122388D01*
X-34269465Y19158437D01*
X-34269465Y19197455D01*
X-34284396Y19233503D01*
X-34311986Y19261093D01*
X-34348034Y19276024D01*
X-34387052Y19276024D01*
X-34423101Y19261093D01*
X-34438254Y19248656D01*
X-34485873Y19201038D01*
X-34498309Y19185884D01*
X-34499684Y19182566D01*
X-34502039Y19179850D01*
X-34510030Y19161949D01*
X-34557649Y19019093D01*
X-34559849Y19009422D01*
X-34560860Y19006979D01*
X-34561209Y19003441D01*
X-34561996Y18999977D01*
X-34561809Y18997344D01*
X-34562781Y18987470D01*
X-34673892Y18987470D01*
X-34673892Y19387136D01*
X-33251670Y19387136D01*
X-33251670Y16966836D01*
G37*
G36*
X21702668Y-41582024D02*
G01*
X21727337Y-41606692D01*
X21757142Y-41666302D01*
X21757142Y-41761945D01*
X21727337Y-41821554D01*
X21702668Y-41846222D01*
X21643059Y-41876028D01*
X21385714Y-41876028D01*
X21385714Y-41552219D01*
X21643059Y-41552219D01*
X21702668Y-41582024D01*
G37*
G36*
X22971094Y-42663330D02*
G01*
X21074603Y-42663330D01*
X21074603Y-41452219D01*
X21185714Y-41452219D01*
X21185714Y-42452219D01*
X21187635Y-42471728D01*
X21202567Y-42507776D01*
X21230157Y-42535366D01*
X21266205Y-42550298D01*
X21305223Y-42550298D01*
X21341271Y-42535366D01*
X21368861Y-42507776D01*
X21383793Y-42471728D01*
X21385714Y-42452219D01*
X21385714Y-42076028D01*
X21666666Y-42076028D01*
X21686175Y-42074107D01*
X21689495Y-42072731D01*
X21693079Y-42072477D01*
X21711387Y-42065471D01*
X21806625Y-42017852D01*
X21815021Y-42012566D01*
X21817461Y-42011556D01*
X21820207Y-42009302D01*
X21823215Y-42007409D01*
X21824944Y-42005414D01*
X21832615Y-41999120D01*
X21880233Y-41951501D01*
X21886525Y-41943834D01*
X21888523Y-41942102D01*
X21890416Y-41939093D01*
X21892670Y-41936348D01*
X21893680Y-41933907D01*
X21898966Y-41925511D01*
X21946585Y-41830274D01*
X21953591Y-41811965D01*
X21953845Y-41808381D01*
X21955221Y-41805061D01*
X21957142Y-41785552D01*
X21957142Y-41642695D01*
X21955221Y-41623186D01*
X21953845Y-41619865D01*
X21953591Y-41616282D01*
X21946585Y-41597973D01*
X21898966Y-41502736D01*
X21893680Y-41494339D01*
X21892670Y-41491899D01*
X21890416Y-41489153D01*
X21888523Y-41486145D01*
X21886525Y-41484412D01*
X21880233Y-41476746D01*
X21855707Y-41452219D01*
X22185714Y-41452219D01*
X22185714Y-42452219D01*
X22187635Y-42471728D01*
X22202567Y-42507776D01*
X22230157Y-42535366D01*
X22266205Y-42550298D01*
X22285714Y-42552219D01*
X22761904Y-42552219D01*
X22781413Y-42550298D01*
X22817461Y-42535366D01*
X22845051Y-42507776D01*
X22859983Y-42471728D01*
X22859983Y-42432710D01*
X22845051Y-42396662D01*
X22817461Y-42369072D01*
X22781413Y-42354140D01*
X22761904Y-42352219D01*
X22385714Y-42352219D01*
X22385714Y-42028409D01*
X22619047Y-42028409D01*
X22638556Y-42026488D01*
X22674604Y-42011556D01*
X22702194Y-41983966D01*
X22717126Y-41947918D01*
X22717126Y-41908900D01*
X22702194Y-41872852D01*
X22674604Y-41845262D01*
X22638556Y-41830330D01*
X22619047Y-41828409D01*
X22385714Y-41828409D01*
X22385714Y-41552219D01*
X22761904Y-41552219D01*
X22781413Y-41550298D01*
X22817461Y-41535366D01*
X22845051Y-41507776D01*
X22859983Y-41471728D01*
X22859983Y-41432710D01*
X22845051Y-41396662D01*
X22817461Y-41369072D01*
X22781413Y-41354140D01*
X22761904Y-41352219D01*
X22285714Y-41352219D01*
X22266205Y-41354140D01*
X22230157Y-41369072D01*
X22202567Y-41396662D01*
X22187635Y-41432710D01*
X22185714Y-41452219D01*
X21855707Y-41452219D01*
X21832615Y-41429127D01*
X21824944Y-41422832D01*
X21823215Y-41420838D01*
X21820207Y-41418944D01*
X21817461Y-41416691D01*
X21815021Y-41415680D01*
X21806625Y-41410395D01*
X21711387Y-41362776D01*
X21693079Y-41355770D01*
X21689495Y-41355515D01*
X21686175Y-41354140D01*
X21666666Y-41352219D01*
X21285714Y-41352219D01*
X21266205Y-41354140D01*
X21230157Y-41369072D01*
X21202567Y-41396662D01*
X21187635Y-41432710D01*
X21185714Y-41452219D01*
X21074603Y-41452219D01*
X21074603Y-41241108D01*
X22971094Y-41241108D01*
X22971094Y-42663330D01*
G37*
G36*
X-34093446Y38571951D02*
G01*
X-34068777Y38547283D01*
X-34038972Y38487673D01*
X-34038972Y38230328D01*
X-34362781Y38230328D01*
X-34362781Y38487673D01*
X-34332976Y38547283D01*
X-34308308Y38571952D01*
X-34248698Y38601756D01*
X-34153055Y38601756D01*
X-34093446Y38571951D01*
G37*
G36*
X-33251670Y36919217D02*
G01*
X-34673892Y36919217D01*
X-34673892Y37558899D01*
X-34562781Y37558899D01*
X-34562781Y37320804D01*
X-34560860Y37301295D01*
X-34559485Y37297975D01*
X-34559230Y37294391D01*
X-34552224Y37276083D01*
X-34504605Y37180845D01*
X-34499320Y37172449D01*
X-34498309Y37170009D01*
X-34496056Y37167263D01*
X-34494162Y37164255D01*
X-34492168Y37162526D01*
X-34485873Y37154855D01*
X-34438254Y37107237D01*
X-34430588Y37100945D01*
X-34428855Y37098947D01*
X-34425847Y37097054D01*
X-34423101Y37094800D01*
X-34420661Y37093790D01*
X-34412264Y37088504D01*
X-34317027Y37040885D01*
X-34298718Y37033879D01*
X-34295135Y37033625D01*
X-34291814Y37032249D01*
X-34272305Y37030328D01*
X-34177067Y37030328D01*
X-34157558Y37032249D01*
X-34154238Y37033625D01*
X-34150654Y37033879D01*
X-34132346Y37040885D01*
X-34037108Y37088504D01*
X-34028712Y37093790D01*
X-34026272Y37094800D01*
X-34023526Y37097054D01*
X-34020518Y37098947D01*
X-34018789Y37100942D01*
X-34011118Y37107236D01*
X-33963500Y37154855D01*
X-33957208Y37162522D01*
X-33955210Y37164254D01*
X-33953317Y37167263D01*
X-33951063Y37170008D01*
X-33950053Y37172449D01*
X-33944767Y37180845D01*
X-33897148Y37276082D01*
X-33896602Y37277511D01*
X-33896172Y37278090D01*
X-33893251Y37286267D01*
X-33890142Y37294391D01*
X-33890091Y37295112D01*
X-33889577Y37296550D01*
X-33844621Y37476376D01*
X-33809167Y37547283D01*
X-33784499Y37571952D01*
X-33724889Y37601756D01*
X-33676865Y37601756D01*
X-33617254Y37571950D01*
X-33592586Y37547283D01*
X-33562781Y37487673D01*
X-33562781Y37289412D01*
X-33605268Y37161951D01*
X-33609615Y37142835D01*
X-33606849Y37103915D01*
X-33589399Y37069016D01*
X-33559923Y37043451D01*
X-33522907Y37031113D01*
X-33483987Y37033879D01*
X-33449088Y37051329D01*
X-33423523Y37080805D01*
X-33415532Y37098705D01*
X-33367913Y37241562D01*
X-33365714Y37251235D01*
X-33364702Y37253676D01*
X-33364354Y37257214D01*
X-33363566Y37260677D01*
X-33363754Y37263312D01*
X-33362781Y37273185D01*
X-33362781Y37511280D01*
X-33364702Y37530789D01*
X-33366078Y37534110D01*
X-33366332Y37537693D01*
X-33373338Y37556002D01*
X-33420957Y37651239D01*
X-33426243Y37659636D01*
X-33427253Y37662076D01*
X-33429507Y37664822D01*
X-33431400Y37667830D01*
X-33433397Y37669562D01*
X-33439690Y37677230D01*
X-33487310Y37724848D01*
X-33494980Y37731143D01*
X-33496709Y37733137D01*
X-33499714Y37735029D01*
X-33502463Y37737285D01*
X-33504907Y37738297D01*
X-33513299Y37743580D01*
X-33608537Y37791199D01*
X-33626845Y37798205D01*
X-33630429Y37798460D01*
X-33633749Y37799835D01*
X-33653258Y37801756D01*
X-33748496Y37801756D01*
X-33768005Y37799835D01*
X-33771326Y37798460D01*
X-33774909Y37798205D01*
X-33793218Y37791199D01*
X-33888455Y37743580D01*
X-33896852Y37738295D01*
X-33899292Y37737284D01*
X-33902038Y37735031D01*
X-33905046Y37733137D01*
X-33906779Y37731140D01*
X-33914445Y37724847D01*
X-33962064Y37677229D01*
X-33968359Y37669559D01*
X-33970353Y37667829D01*
X-33972247Y37664822D01*
X-33974500Y37662075D01*
X-33975511Y37659636D01*
X-33980796Y37651239D01*
X-34028415Y37556001D01*
X-34028961Y37554575D01*
X-34029391Y37553994D01*
X-34032313Y37545818D01*
X-34035421Y37537693D01*
X-34035473Y37536971D01*
X-34035986Y37535533D01*
X-34080943Y37355709D01*
X-34116396Y37284802D01*
X-34141065Y37260134D01*
X-34200674Y37230328D01*
X-34248698Y37230328D01*
X-34308308Y37260133D01*
X-34332976Y37284802D01*
X-34362781Y37344412D01*
X-34362781Y37542672D01*
X-34320294Y37670133D01*
X-34315947Y37689248D01*
X-34318713Y37728168D01*
X-34336163Y37763067D01*
X-34365639Y37788632D01*
X-34402655Y37800971D01*
X-34441575Y37798204D01*
X-34476474Y37780755D01*
X-34502039Y37751279D01*
X-34510030Y37733378D01*
X-34557649Y37590522D01*
X-34559849Y37580851D01*
X-34560860Y37578408D01*
X-34561209Y37574870D01*
X-34561996Y37571406D01*
X-34561809Y37568773D01*
X-34562781Y37558899D01*
X-34673892Y37558899D01*
X-34673892Y38511280D01*
X-34562781Y38511280D01*
X-34562781Y38130328D01*
X-34560860Y38110819D01*
X-34545928Y38074771D01*
X-34518338Y38047181D01*
X-34482290Y38032249D01*
X-34462781Y38030328D01*
X-33462781Y38030328D01*
X-33443272Y38032249D01*
X-33407224Y38047181D01*
X-33379634Y38074771D01*
X-33364702Y38110819D01*
X-33364702Y38149837D01*
X-33379634Y38185885D01*
X-33407224Y38213475D01*
X-33443272Y38228407D01*
X-33462781Y38230328D01*
X-33838972Y38230328D01*
X-33838972Y38511280D01*
X-33840893Y38530789D01*
X-33842269Y38534110D01*
X-33842523Y38537693D01*
X-33849529Y38556002D01*
X-33897148Y38651239D01*
X-33902434Y38659636D01*
X-33903444Y38662076D01*
X-33905698Y38664822D01*
X-33907591Y38667830D01*
X-33909589Y38669563D01*
X-33915881Y38677229D01*
X-33963499Y38724848D01*
X-33971170Y38731143D01*
X-33972899Y38733137D01*
X-33975907Y38735031D01*
X-33978653Y38737284D01*
X-33981093Y38738295D01*
X-33989489Y38743580D01*
X-34084727Y38791199D01*
X-34103035Y38798205D01*
X-34106619Y38798460D01*
X-34109939Y38799835D01*
X-34129448Y38801756D01*
X-34272305Y38801756D01*
X-34291814Y38799835D01*
X-34295135Y38798460D01*
X-34298718Y38798205D01*
X-34317027Y38791199D01*
X-34412264Y38743580D01*
X-34420661Y38738295D01*
X-34423101Y38737284D01*
X-34425847Y38735031D01*
X-34428855Y38733137D01*
X-34430588Y38731140D01*
X-34438254Y38724847D01*
X-34485873Y38677229D01*
X-34492168Y38669559D01*
X-34494162Y38667829D01*
X-34496056Y38664822D01*
X-34498309Y38662075D01*
X-34499320Y38659636D01*
X-34504605Y38651239D01*
X-34552224Y38556001D01*
X-34559230Y38537693D01*
X-34559485Y38534110D01*
X-34560860Y38530789D01*
X-34562781Y38511280D01*
X-34673892Y38511280D01*
X-34673892Y39149837D01*
X-34560860Y39149837D01*
X-34560860Y39110819D01*
X-34545928Y39074771D01*
X-34518338Y39047181D01*
X-34482290Y39032249D01*
X-34462781Y39030328D01*
X-33462781Y39030328D01*
X-33443272Y39032249D01*
X-33407224Y39047181D01*
X-33379634Y39074771D01*
X-33364702Y39110819D01*
X-33364702Y39149837D01*
X-33379634Y39185885D01*
X-33407224Y39213475D01*
X-33443272Y39228407D01*
X-33462781Y39230328D01*
X-34462781Y39230328D01*
X-34482290Y39228407D01*
X-34518338Y39213475D01*
X-34545928Y39185885D01*
X-34560860Y39149837D01*
X-34673892Y39149837D01*
X-34673892Y39341439D01*
X-33251670Y39341439D01*
X-33251670Y36919217D01*
G37*
D11*
X-36545181Y9095239D02*
X-35830896Y9095239D01*
X-35830896Y9095239D02*
X-35688039Y9047620D01*
X-35688039Y9047620D02*
X-35592800Y8952382D01*
X-35592800Y8952382D02*
X-35545181Y8809525D01*
X-35545181Y8809525D02*
X-35545181Y8714287D01*
X-35545181Y9571430D02*
X-36545181Y9571430D01*
X-36545181Y9571430D02*
X-35830896Y9904763D01*
X-35830896Y9904763D02*
X-36545181Y10238096D01*
X-36545181Y10238096D02*
X-35545181Y10238096D01*
X-36545181Y10619049D02*
X-36545181Y11238096D01*
X-36545181Y11238096D02*
X-36164229Y10904763D01*
X-36164229Y10904763D02*
X-36164229Y11047620D01*
X-36164229Y11047620D02*
X-36116610Y11142858D01*
X-36116610Y11142858D02*
X-36068991Y11190477D01*
X-36068991Y11190477D02*
X-35973753Y11238096D01*
X-35973753Y11238096D02*
X-35735658Y11238096D01*
X-35735658Y11238096D02*
X-35640420Y11190477D01*
X-35640420Y11190477D02*
X-35592800Y11142858D01*
X-35592800Y11142858D02*
X-35545181Y11047620D01*
X-35545181Y11047620D02*
X-35545181Y10761906D01*
X-35545181Y10761906D02*
X-35592800Y10666668D01*
X-35592800Y10666668D02*
X-35640420Y10619049D01*
X11104819Y-8028094D02*
X10104819Y-8028094D01*
X11104819Y-7456666D02*
X10533390Y-7885237D01*
X10104819Y-7456666D02*
X10676247Y-8028094D01*
X10438152Y-6599523D02*
X11104819Y-6599523D01*
X10057200Y-6837618D02*
X10771485Y-7075713D01*
X10771485Y-7075713D02*
X10771485Y-6456666D01*
X-14559820Y-20238095D02*
X-15369343Y-20238095D01*
X-15369343Y-20238095D02*
X-15464581Y-20285714D01*
X-15464581Y-20285714D02*
X-15512200Y-20333333D01*
X-15512200Y-20333333D02*
X-15559820Y-20428571D01*
X-15559820Y-20428571D02*
X-15559820Y-20619047D01*
X-15559820Y-20619047D02*
X-15512200Y-20714285D01*
X-15512200Y-20714285D02*
X-15464581Y-20761904D01*
X-15464581Y-20761904D02*
X-15369343Y-20809523D01*
X-15369343Y-20809523D02*
X-14559820Y-20809523D01*
X-14655058Y-21238095D02*
X-14607439Y-21285714D01*
X-14607439Y-21285714D02*
X-14559820Y-21380952D01*
X-14559820Y-21380952D02*
X-14559820Y-21619047D01*
X-14559820Y-21619047D02*
X-14607439Y-21714285D01*
X-14607439Y-21714285D02*
X-14655058Y-21761904D01*
X-14655058Y-21761904D02*
X-14750296Y-21809523D01*
X-14750296Y-21809523D02*
X-14845534Y-21809523D01*
X-14845534Y-21809523D02*
X-14988391Y-21761904D01*
X-14988391Y-21761904D02*
X-15559820Y-21190476D01*
X-15559820Y-21190476D02*
X-15559820Y-21809523D01*
X-15506020Y-15895201D02*
X-15744115Y-15895201D01*
X-15648877Y-15657106D02*
X-15744115Y-15895201D01*
X-15744115Y-15895201D02*
X-15648877Y-16133296D01*
X-15934591Y-15752344D02*
X-15744115Y-15895201D01*
X-15744115Y-15895201D02*
X-15934591Y-16038058D01*
X11104819Y-15648094D02*
X10104819Y-15648094D01*
X11104819Y-15076666D02*
X10533390Y-15505237D01*
X10104819Y-15076666D02*
X10676247Y-15648094D01*
X10104819Y-14171904D02*
X10104819Y-14648094D01*
X10104819Y-14648094D02*
X10581009Y-14695713D01*
X10581009Y-14695713D02*
X10533390Y-14648094D01*
X10533390Y-14648094D02*
X10485771Y-14552856D01*
X10485771Y-14552856D02*
X10485771Y-14314761D01*
X10485771Y-14314761D02*
X10533390Y-14219523D01*
X10533390Y-14219523D02*
X10581009Y-14171904D01*
X10581009Y-14171904D02*
X10676247Y-14124285D01*
X10676247Y-14124285D02*
X10914342Y-14124285D01*
X10914342Y-14124285D02*
X11009580Y-14171904D01*
X11009580Y-14171904D02*
X11057200Y-14219523D01*
X11057200Y-14219523D02*
X11104819Y-14314761D01*
X11104819Y-14314761D02*
X11104819Y-14552856D01*
X11104819Y-14552856D02*
X11057200Y-14648094D01*
X11057200Y-14648094D02*
X11009580Y-14695713D01*
X11104819Y-23268094D02*
X10104819Y-23268094D01*
X11104819Y-22696666D02*
X10533390Y-23125237D01*
X10104819Y-22696666D02*
X10676247Y-23268094D01*
X10104819Y-21839523D02*
X10104819Y-22029999D01*
X10104819Y-22029999D02*
X10152438Y-22125237D01*
X10152438Y-22125237D02*
X10200057Y-22172856D01*
X10200057Y-22172856D02*
X10342914Y-22268094D01*
X10342914Y-22268094D02*
X10533390Y-22315713D01*
X10533390Y-22315713D02*
X10914342Y-22315713D01*
X10914342Y-22315713D02*
X11009580Y-22268094D01*
X11009580Y-22268094D02*
X11057200Y-22220475D01*
X11057200Y-22220475D02*
X11104819Y-22125237D01*
X11104819Y-22125237D02*
X11104819Y-21934761D01*
X11104819Y-21934761D02*
X11057200Y-21839523D01*
X11057200Y-21839523D02*
X11009580Y-21791904D01*
X11009580Y-21791904D02*
X10914342Y-21744285D01*
X10914342Y-21744285D02*
X10676247Y-21744285D01*
X10676247Y-21744285D02*
X10581009Y-21791904D01*
X10581009Y-21791904D02*
X10533390Y-21839523D01*
X10533390Y-21839523D02*
X10485771Y-21934761D01*
X10485771Y-21934761D02*
X10485771Y-22125237D01*
X10485771Y-22125237D02*
X10533390Y-22220475D01*
X10533390Y-22220475D02*
X10581009Y-22268094D01*
X10581009Y-22268094D02*
X10676247Y-22315713D01*
X11104819Y-38508094D02*
X10104819Y-38508094D01*
X11104819Y-37936666D02*
X10533390Y-38365237D01*
X10104819Y-37936666D02*
X10676247Y-38508094D01*
X10533390Y-37365237D02*
X10485771Y-37460475D01*
X10485771Y-37460475D02*
X10438152Y-37508094D01*
X10438152Y-37508094D02*
X10342914Y-37555713D01*
X10342914Y-37555713D02*
X10295295Y-37555713D01*
X10295295Y-37555713D02*
X10200057Y-37508094D01*
X10200057Y-37508094D02*
X10152438Y-37460475D01*
X10152438Y-37460475D02*
X10104819Y-37365237D01*
X10104819Y-37365237D02*
X10104819Y-37174761D01*
X10104819Y-37174761D02*
X10152438Y-37079523D01*
X10152438Y-37079523D02*
X10200057Y-37031904D01*
X10200057Y-37031904D02*
X10295295Y-36984285D01*
X10295295Y-36984285D02*
X10342914Y-36984285D01*
X10342914Y-36984285D02*
X10438152Y-37031904D01*
X10438152Y-37031904D02*
X10485771Y-37079523D01*
X10485771Y-37079523D02*
X10533390Y-37174761D01*
X10533390Y-37174761D02*
X10533390Y-37365237D01*
X10533390Y-37365237D02*
X10581009Y-37460475D01*
X10581009Y-37460475D02*
X10628628Y-37508094D01*
X10628628Y-37508094D02*
X10723866Y-37555713D01*
X10723866Y-37555713D02*
X10914342Y-37555713D01*
X10914342Y-37555713D02*
X11009580Y-37508094D01*
X11009580Y-37508094D02*
X11057200Y-37460475D01*
X11057200Y-37460475D02*
X11104819Y-37365237D01*
X11104819Y-37365237D02*
X11104819Y-37174761D01*
X11104819Y-37174761D02*
X11057200Y-37079523D01*
X11057200Y-37079523D02*
X11009580Y-37031904D01*
X11009580Y-37031904D02*
X10914342Y-36984285D01*
X10914342Y-36984285D02*
X10723866Y-36984285D01*
X10723866Y-36984285D02*
X10628628Y-37031904D01*
X10628628Y-37031904D02*
X10581009Y-37079523D01*
X10581009Y-37079523D02*
X10533390Y-37174761D01*
X11104819Y14831906D02*
X10104819Y14831906D01*
X11104819Y15403334D02*
X10533390Y14974763D01*
X10104819Y15403334D02*
X10676247Y14831906D01*
X11104819Y16355715D02*
X11104819Y15784287D01*
X11104819Y16070001D02*
X10104819Y16070001D01*
X10104819Y16070001D02*
X10247676Y15974763D01*
X10247676Y15974763D02*
X10342914Y15879525D01*
X10342914Y15879525D02*
X10390533Y15784287D01*
D12*
X32457419Y-9083333D02*
X33171704Y-9083333D01*
X33171704Y-9083333D02*
X33314561Y-9130952D01*
X33314561Y-9130952D02*
X33409800Y-9226190D01*
X33409800Y-9226190D02*
X33457419Y-9369047D01*
X33457419Y-9369047D02*
X33457419Y-9464285D01*
X32885990Y-8464285D02*
X32838371Y-8559523D01*
X32838371Y-8559523D02*
X32790752Y-8607142D01*
X32790752Y-8607142D02*
X32695514Y-8654761D01*
X32695514Y-8654761D02*
X32647895Y-8654761D01*
X32647895Y-8654761D02*
X32552657Y-8607142D01*
X32552657Y-8607142D02*
X32505038Y-8559523D01*
X32505038Y-8559523D02*
X32457419Y-8464285D01*
X32457419Y-8464285D02*
X32457419Y-8273809D01*
X32457419Y-8273809D02*
X32505038Y-8178571D01*
X32505038Y-8178571D02*
X32552657Y-8130952D01*
X32552657Y-8130952D02*
X32647895Y-8083333D01*
X32647895Y-8083333D02*
X32695514Y-8083333D01*
X32695514Y-8083333D02*
X32790752Y-8130952D01*
X32790752Y-8130952D02*
X32838371Y-8178571D01*
X32838371Y-8178571D02*
X32885990Y-8273809D01*
X32885990Y-8273809D02*
X32885990Y-8464285D01*
X32885990Y-8464285D02*
X32933609Y-8559523D01*
X32933609Y-8559523D02*
X32981228Y-8607142D01*
X32981228Y-8607142D02*
X33076466Y-8654761D01*
X33076466Y-8654761D02*
X33266942Y-8654761D01*
X33266942Y-8654761D02*
X33362180Y-8607142D01*
X33362180Y-8607142D02*
X33409800Y-8559523D01*
X33409800Y-8559523D02*
X33457419Y-8464285D01*
X33457419Y-8464285D02*
X33457419Y-8273809D01*
X33457419Y-8273809D02*
X33409800Y-8178571D01*
X33409800Y-8178571D02*
X33362180Y-8130952D01*
X33362180Y-8130952D02*
X33266942Y-8083333D01*
X33266942Y-8083333D02*
X33076466Y-8083333D01*
X33076466Y-8083333D02*
X32981228Y-8130952D01*
X32981228Y-8130952D02*
X32933609Y-8178571D01*
X32933609Y-8178571D02*
X32885990Y-8273809D01*
D11*
X11104819Y-30888094D02*
X10104819Y-30888094D01*
X11104819Y-30316666D02*
X10533390Y-30745237D01*
X10104819Y-30316666D02*
X10676247Y-30888094D01*
X10104819Y-29983332D02*
X10104819Y-29316666D01*
X10104819Y-29316666D02*
X11104819Y-29745237D01*
X-19761905Y36870181D02*
X-19761905Y36060658D01*
X-19761905Y36060658D02*
X-19714286Y35965420D01*
X-19714286Y35965420D02*
X-19666667Y35917800D01*
X-19666667Y35917800D02*
X-19571429Y35870181D01*
X-19571429Y35870181D02*
X-19380953Y35870181D01*
X-19380953Y35870181D02*
X-19285715Y35917800D01*
X-19285715Y35917800D02*
X-19238096Y35965420D01*
X-19238096Y35965420D02*
X-19190477Y36060658D01*
X-19190477Y36060658D02*
X-19190477Y36870181D01*
X-18238096Y36870181D02*
X-18714286Y36870181D01*
X-18714286Y36870181D02*
X-18761905Y36393991D01*
X-18761905Y36393991D02*
X-18714286Y36441610D01*
X-18714286Y36441610D02*
X-18619048Y36489229D01*
X-18619048Y36489229D02*
X-18380953Y36489229D01*
X-18380953Y36489229D02*
X-18285715Y36441610D01*
X-18285715Y36441610D02*
X-18238096Y36393991D01*
X-18238096Y36393991D02*
X-18190477Y36298753D01*
X-18190477Y36298753D02*
X-18190477Y36060658D01*
X-18190477Y36060658D02*
X-18238096Y35965420D01*
X-18238096Y35965420D02*
X-18285715Y35917800D01*
X-18285715Y35917800D02*
X-18380953Y35870181D01*
X-18380953Y35870181D02*
X-18619048Y35870181D01*
X-18619048Y35870181D02*
X-18714286Y35917800D01*
X-18714286Y35917800D02*
X-18761905Y35965420D01*
X-20720850Y42696981D02*
X-20720850Y42458886D01*
X-20958945Y42554124D02*
X-20720850Y42458886D01*
X-20720850Y42458886D02*
X-20482755Y42554124D01*
X-20863707Y42268410D02*
X-20720850Y42458886D01*
X-20720850Y42458886D02*
X-20577993Y42268410D01*
X-20370420Y1833334D02*
X-20322800Y1785715D01*
X-20322800Y1785715D02*
X-20275181Y1642858D01*
X-20275181Y1642858D02*
X-20275181Y1547620D01*
X-20275181Y1547620D02*
X-20322800Y1404763D01*
X-20322800Y1404763D02*
X-20418039Y1309525D01*
X-20418039Y1309525D02*
X-20513277Y1261906D01*
X-20513277Y1261906D02*
X-20703753Y1214287D01*
X-20703753Y1214287D02*
X-20846610Y1214287D01*
X-20846610Y1214287D02*
X-21037086Y1261906D01*
X-21037086Y1261906D02*
X-21132324Y1309525D01*
X-21132324Y1309525D02*
X-21227562Y1404763D01*
X-21227562Y1404763D02*
X-21275181Y1547620D01*
X-21275181Y1547620D02*
X-21275181Y1642858D01*
X-21275181Y1642858D02*
X-21227562Y1785715D01*
X-21227562Y1785715D02*
X-21179943Y1833334D01*
X-21179943Y2214287D02*
X-21227562Y2261906D01*
X-21227562Y2261906D02*
X-21275181Y2357144D01*
X-21275181Y2357144D02*
X-21275181Y2595239D01*
X-21275181Y2595239D02*
X-21227562Y2690477D01*
X-21227562Y2690477D02*
X-21179943Y2738096D01*
X-21179943Y2738096D02*
X-21084705Y2785715D01*
X-21084705Y2785715D02*
X-20989467Y2785715D01*
X-20989467Y2785715D02*
X-20846610Y2738096D01*
X-20846610Y2738096D02*
X-20275181Y2166668D01*
X-20275181Y2166668D02*
X-20275181Y2785715D01*
X-36545181Y29095239D02*
X-35830896Y29095239D01*
X-35830896Y29095239D02*
X-35688039Y29047620D01*
X-35688039Y29047620D02*
X-35592800Y28952382D01*
X-35592800Y28952382D02*
X-35545181Y28809525D01*
X-35545181Y28809525D02*
X-35545181Y28714287D01*
X-35545181Y29571430D02*
X-36545181Y29571430D01*
X-36545181Y29571430D02*
X-35830896Y29904763D01*
X-35830896Y29904763D02*
X-36545181Y30238096D01*
X-36545181Y30238096D02*
X-35545181Y30238096D01*
X-35545181Y31238096D02*
X-35545181Y30666668D01*
X-35545181Y30952382D02*
X-36545181Y30952382D01*
X-36545181Y30952382D02*
X-36402324Y30857144D01*
X-36402324Y30857144D02*
X-36307086Y30761906D01*
X-36307086Y30761906D02*
X-36259467Y30666668D01*
X11104819Y-408094D02*
X10104819Y-408094D01*
X11104819Y163334D02*
X10533390Y-265237D01*
X10104819Y163334D02*
X10676247Y-408094D01*
X10104819Y496668D02*
X10104819Y1115715D01*
X10104819Y1115715D02*
X10485771Y782382D01*
X10485771Y782382D02*
X10485771Y925239D01*
X10485771Y925239D02*
X10533390Y1020477D01*
X10533390Y1020477D02*
X10581009Y1068096D01*
X10581009Y1068096D02*
X10676247Y1115715D01*
X10676247Y1115715D02*
X10914342Y1115715D01*
X10914342Y1115715D02*
X11009580Y1068096D01*
X11009580Y1068096D02*
X11057200Y1020477D01*
X11057200Y1020477D02*
X11104819Y925239D01*
X11104819Y925239D02*
X11104819Y639525D01*
X11104819Y639525D02*
X11057200Y544287D01*
X11057200Y544287D02*
X11009580Y496668D01*
X-14104820Y-4238095D02*
X-14914343Y-4238095D01*
X-14914343Y-4238095D02*
X-15009581Y-4285714D01*
X-15009581Y-4285714D02*
X-15057200Y-4333333D01*
X-15057200Y-4333333D02*
X-15104820Y-4428571D01*
X-15104820Y-4428571D02*
X-15104820Y-4619047D01*
X-15104820Y-4619047D02*
X-15057200Y-4714285D01*
X-15057200Y-4714285D02*
X-15009581Y-4761904D01*
X-15009581Y-4761904D02*
X-14914343Y-4809523D01*
X-14914343Y-4809523D02*
X-14104820Y-4809523D01*
X-15104820Y-5809523D02*
X-15104820Y-5238095D01*
X-15104820Y-5523809D02*
X-14104820Y-5523809D01*
X-14104820Y-5523809D02*
X-14247677Y-5428571D01*
X-14247677Y-5428571D02*
X-14342915Y-5333333D01*
X-14342915Y-5333333D02*
X-14390534Y-5238095D01*
X-14655020Y-1118199D02*
X-14893115Y-1118199D01*
X-14797877Y-880104D02*
X-14893115Y-1118199D01*
X-14893115Y-1118199D02*
X-14797877Y-1356294D01*
X-15083591Y-975342D02*
X-14893115Y-1118199D01*
X-14893115Y-1118199D02*
X-15083591Y-1261056D01*
X-15745381Y-1118198D02*
X-15507286Y-1118198D01*
X-15602524Y-1356293D02*
X-15507286Y-1118198D01*
X-15507286Y-1118198D02*
X-15602524Y-880103D01*
X-15316810Y-1261055D02*
X-15507286Y-1118198D01*
X-15507286Y-1118198D02*
X-15316810Y-975341D01*
X11104819Y7211906D02*
X10104819Y7211906D01*
X11104819Y7783334D02*
X10533390Y7354763D01*
X10104819Y7783334D02*
X10676247Y7211906D01*
X10200057Y8164287D02*
X10152438Y8211906D01*
X10152438Y8211906D02*
X10104819Y8307144D01*
X10104819Y8307144D02*
X10104819Y8545239D01*
X10104819Y8545239D02*
X10152438Y8640477D01*
X10152438Y8640477D02*
X10200057Y8688096D01*
X10200057Y8688096D02*
X10295295Y8735715D01*
X10295295Y8735715D02*
X10390533Y8735715D01*
X10390533Y8735715D02*
X10533390Y8688096D01*
X10533390Y8688096D02*
X11104819Y8116668D01*
X11104819Y8116668D02*
X11104819Y8735715D01*
X2913333Y44640420D02*
X2865714Y44592800D01*
X2865714Y44592800D02*
X2722857Y44545181D01*
X2722857Y44545181D02*
X2627619Y44545181D01*
X2627619Y44545181D02*
X2484762Y44592800D01*
X2484762Y44592800D02*
X2389524Y44688039D01*
X2389524Y44688039D02*
X2341905Y44783277D01*
X2341905Y44783277D02*
X2294286Y44973753D01*
X2294286Y44973753D02*
X2294286Y45116610D01*
X2294286Y45116610D02*
X2341905Y45307086D01*
X2341905Y45307086D02*
X2389524Y45402324D01*
X2389524Y45402324D02*
X2484762Y45497562D01*
X2484762Y45497562D02*
X2627619Y45545181D01*
X2627619Y45545181D02*
X2722857Y45545181D01*
X2722857Y45545181D02*
X2865714Y45497562D01*
X2865714Y45497562D02*
X2913333Y45449943D01*
X3865714Y44545181D02*
X3294286Y44545181D01*
X3580000Y44545181D02*
X3580000Y45545181D01*
X3580000Y45545181D02*
X3484762Y45402324D01*
X3484762Y45402324D02*
X3389524Y45307086D01*
X3389524Y45307086D02*
X3294286Y45259467D01*
X-16545181Y29666667D02*
X-15830896Y29666667D01*
X-15830896Y29666667D02*
X-15688039Y29619048D01*
X-15688039Y29619048D02*
X-15592800Y29523810D01*
X-15592800Y29523810D02*
X-15545181Y29380953D01*
X-15545181Y29380953D02*
X-15545181Y29285715D01*
X-16545181Y30047620D02*
X-16545181Y30666667D01*
X-16545181Y30666667D02*
X-16164229Y30333334D01*
X-16164229Y30333334D02*
X-16164229Y30476191D01*
X-16164229Y30476191D02*
X-16116610Y30571429D01*
X-16116610Y30571429D02*
X-16068991Y30619048D01*
X-16068991Y30619048D02*
X-15973753Y30666667D01*
X-15973753Y30666667D02*
X-15735658Y30666667D01*
X-15735658Y30666667D02*
X-15640420Y30619048D01*
X-15640420Y30619048D02*
X-15592800Y30571429D01*
X-15592800Y30571429D02*
X-15545181Y30476191D01*
X-15545181Y30476191D02*
X-15545181Y30190477D01*
X-15545181Y30190477D02*
X-15592800Y30095239D01*
X-15592800Y30095239D02*
X-15640420Y30047620D01*
D12*
X32457419Y26916667D02*
X33171704Y26916667D01*
X33171704Y26916667D02*
X33314561Y26869048D01*
X33314561Y26869048D02*
X33409800Y26773810D01*
X33409800Y26773810D02*
X33457419Y26630953D01*
X33457419Y26630953D02*
X33457419Y26535715D01*
X32457419Y27297620D02*
X32457419Y27964286D01*
X32457419Y27964286D02*
X33457419Y27535715D01*
D13*
%TO.C,JM3*%
X-32781300Y376699D02*
X-27218700Y376699D01*
X-27218700Y19623301D02*
X-32781300Y19623301D01*
X-27218700Y376699D02*
X-27218700Y19623301D01*
%TO.C,K4*%
X-11337000Y-4183000D02*
X-11337000Y-11437000D01*
X-11337000Y-4183000D02*
X-8370000Y-4183000D01*
X-11337000Y-11437000D02*
X-8370000Y-11437000D01*
X-750000Y-11437000D02*
X9317000Y-11437000D01*
X9317000Y-4183000D02*
X-750000Y-4183000D01*
X9317000Y-9586600D02*
X9317000Y-4183000D01*
X9317000Y-11437000D02*
X9317000Y-10733400D01*
%TO.C,U2*%
X-29351999Y-17372999D02*
X-29351999Y-24627001D01*
X-29351999Y-24627001D02*
X-16098001Y-24627001D01*
X-16098001Y-17372999D02*
X-29351999Y-17372999D01*
X-16098001Y-24627001D02*
X-16098001Y-17372999D01*
D14*
G36*
X-27614500Y-27216800D02*
G01*
X-27995500Y-27216800D01*
X-27995500Y-26962800D01*
X-27614500Y-26962800D01*
X-27614500Y-27216800D01*
G37*
D13*
%TO.C,K5*%
X-11337000Y-11803000D02*
X-11337000Y-19057000D01*
X-11337000Y-11803000D02*
X-8370000Y-11803000D01*
X-11337000Y-19057000D02*
X-8370000Y-19057000D01*
X-750000Y-19057000D02*
X9317000Y-19057000D01*
X9317000Y-11803000D02*
X-750000Y-11803000D01*
X9317000Y-17206600D02*
X9317000Y-11803000D01*
X9317000Y-19057000D02*
X9317000Y-18353400D01*
%TO.C,K6*%
X-11337000Y-19423000D02*
X-11337000Y-26677000D01*
X-11337000Y-19423000D02*
X-8370000Y-19423000D01*
X-11337000Y-26677000D02*
X-8370000Y-26677000D01*
X-750000Y-26677000D02*
X9317000Y-26677000D01*
X9317000Y-19423000D02*
X-750000Y-19423000D01*
X9317000Y-24826600D02*
X9317000Y-19423000D01*
X9317000Y-26677000D02*
X9317000Y-25973400D01*
%TO.C,K8*%
X-11337000Y-34663000D02*
X-11337000Y-41917000D01*
X-11337000Y-34663000D02*
X-8370000Y-34663000D01*
X-11337000Y-41917000D02*
X-8370000Y-41917000D01*
X-750000Y-41917000D02*
X9317000Y-41917000D01*
X9317000Y-34663000D02*
X-750000Y-34663000D01*
X9317000Y-40066600D02*
X9317000Y-34663000D01*
X9317000Y-41917000D02*
X9317000Y-41213400D01*
%TO.C,K1*%
X-11337000Y18677000D02*
X-11337000Y11423000D01*
X-11337000Y18677000D02*
X-8370000Y18677000D01*
X-11337000Y11423000D02*
X-8370000Y11423000D01*
X-750000Y11423000D02*
X9317000Y11423000D01*
X9317000Y18677000D02*
X-750000Y18677000D01*
X9317000Y13273400D02*
X9317000Y18677000D01*
X9317000Y11423000D02*
X9317000Y12126600D01*
D12*
%TO.C,J8*%
X33800000Y9150000D02*
X38400000Y9150000D01*
X33800000Y-26650000D02*
X33800000Y9150000D01*
X38400000Y-26650000D02*
X33800000Y-26650000D01*
D13*
%TO.C,K7*%
X-11337000Y-27043000D02*
X-11337000Y-34297000D01*
X-11337000Y-27043000D02*
X-8370000Y-27043000D01*
X-11337000Y-34297000D02*
X-8370000Y-34297000D01*
X-750000Y-34297000D02*
X9317000Y-34297000D01*
X9317000Y-27043000D02*
X-750000Y-27043000D01*
X9317000Y-32446600D02*
X9317000Y-27043000D01*
X9317000Y-34297000D02*
X9317000Y-33593400D01*
%TO.C,U5*%
X-20003300Y37849000D02*
X-17996700Y37849000D01*
X-17996700Y41151000D02*
X-20003300Y41151000D01*
D15*
%TO.C,C2*%
X-22510000Y1859420D02*
X-22510000Y2140580D01*
X-21490000Y1859420D02*
X-21490000Y2140580D01*
D13*
%TO.C,JM1*%
X-32781300Y20376699D02*
X-27218700Y20376699D01*
X-27218700Y39623301D02*
X-32781300Y39623301D01*
X-27218700Y20376699D02*
X-27218700Y39623301D01*
%TO.C,K3*%
X-11337000Y3437000D02*
X-11337000Y-3817000D01*
X-11337000Y3437000D02*
X-8370000Y3437000D01*
X-11337000Y-3817000D02*
X-8370000Y-3817000D01*
X-750000Y-3817000D02*
X9317000Y-3817000D01*
X9317000Y3437000D02*
X-750000Y3437000D01*
X9317000Y-1966600D02*
X9317000Y3437000D01*
X9317000Y-3817000D02*
X9317000Y-3113400D01*
%TO.C,U1*%
X-26377000Y-2073001D02*
X-26377000Y-7926999D01*
X-26377000Y-7926999D02*
X-25773640Y-7926999D01*
X-25773638Y-2073001D02*
X-26377000Y-2073001D01*
X-16226360Y-7926999D02*
X-15623000Y-7926999D01*
X-15623000Y-2073001D02*
X-16226360Y-2073001D01*
X-15623000Y-7926999D02*
X-15623000Y-2073001D01*
D14*
G36*
X-22434498Y-290398D02*
G01*
X-22815498Y-290398D01*
X-22815498Y-36398D01*
X-22434498Y-36398D01*
X-22434498Y-290398D01*
G37*
G36*
X-21784499Y-9963602D02*
G01*
X-22165499Y-9963602D01*
X-22165499Y-9709602D01*
X-21784499Y-9709602D01*
X-21784499Y-9963602D01*
G37*
D13*
%TO.C,K2*%
X-11337000Y11057000D02*
X-11337000Y3803000D01*
X-11337000Y11057000D02*
X-8370000Y11057000D01*
X-11337000Y3803000D02*
X-8370000Y3803000D01*
X-750000Y3803000D02*
X9317000Y3803000D01*
X9317000Y11057000D02*
X-750000Y11057000D01*
X9317000Y5653400D02*
X9317000Y11057000D01*
X9317000Y3803000D02*
X9317000Y4506600D01*
D15*
%TO.C,C1*%
X-838748Y46710000D02*
X-3161252Y46710000D01*
X-838748Y43290000D02*
X-3161252Y43290000D01*
D13*
%TO.C,J3*%
X-12781300Y20376699D02*
X-7218700Y20376699D01*
X-7218700Y39623301D02*
X-12781300Y39623301D01*
X-7218700Y20376699D02*
X-7218700Y39623301D01*
D12*
%TO.C,J7*%
X33800000Y45150000D02*
X38400000Y45150000D01*
X33800000Y9350000D02*
X33800000Y45150000D01*
X38400000Y9350000D02*
X33800000Y9350000D01*
%TD*%
M02*
