<?xml version="1.0" standalone="no"?>
 <!DOCTYPE svg PUBLIC "-//W3C//DTD SVG 1.1//EN" 
 "http://www.w3.org/Graphics/SVG/1.1/DTD/svg11.dtd"> 
<svg
  xmlns:svg="http://www.w3.org/2000/svg"
  xmlns="http://www.w3.org/2000/svg"
  xmlns:xlink="http://www.w3.org/1999/xlink"
  version="1.1"
  width="297.0022mm" height="210.0072mm" viewBox="0.0000 0.0000 297.0022 210.0072">
<title>SVG Image created as PMCNV-RQ8-PTH-drl_map.svg date 2025/06/19 09:06:35 </title>
  <desc>Image generated by PCBNEW </desc>
<g style="fill:#000000; fill-opacity:1.0000;stroke:#000000; stroke-opacity:1.0000;
stroke-linecap:round; stroke-linejoin:round;"
 transform="translate(0 0) scale(1 1)">
</g>
<g style="fill:none; 
stroke:#000000; stroke-width:0.2315; stroke-opacity:1; 
stroke-linecap:round; stroke-linejoin:round;">
<path d="M169.3402 120.8885
L178.6020 120.8885
" />
<path d="M191.3370 118.5731 A3.4732 3.4732 0.0 0 0 194.8102 115.0999" />
<path d="M179.7597 6.2735 A1.1577 1.1577 0.0 0 0 180.9175 7.4312" />
<path d="M191.3370 7.4312
L180.9175 7.4312
" />
<path d="M102.1920 116.2576 A4.6309 4.6309 0.0 0 0 110.8334 118.5731" />
<path d="M110.8437 7.4312
L167.0247 7.4312
" />
</g>
<g style="fill:none; 
stroke:#000000; stroke-width:0.0579; stroke-opacity:1; 
stroke-linecap:round; stroke-linejoin:round;">
<path d="M145.0279 112.7845
L145.0279 39.8476
" />
</g>
<g style="fill:none; 
stroke:#000000; stroke-width:0.2315; stroke-opacity:1; 
stroke-linecap:round; stroke-linejoin:round;">
<path d="M194.8102 10.9044 A3.4732 3.4732 0.0 0 0 191.3370 7.4312" />
</g>
<g style="fill:none; 
stroke:#000000; stroke-width:0.0579; stroke-opacity:1; 
stroke-linecap:round; stroke-linejoin:round;">
<path d="M145.0279 39.8476 A1.7366 1.7366 0.0 0 0 141.5547 39.8476" />
</g>
<g style="fill:none; 
stroke:#000000; stroke-width:0.2315; stroke-opacity:1; 
stroke-linecap:round; stroke-linejoin:round;">
<path d="M194.8102 10.9044
L194.8102 115.0999
" />
</g>
<g style="fill:none; 
stroke:#000000; stroke-width:0.0579; stroke-opacity:1; 
stroke-linecap:round; stroke-linejoin:round;">
<path d="M141.5547 112.7845 A1.7366 1.7366 0.0 0 0 145.0279 112.7845" />
</g>
<g style="fill:none; 
stroke:#000000; stroke-width:0.2315; stroke-opacity:1; 
stroke-linecap:round; stroke-linejoin:round;">
<path d="M168.1825 119.7308 A1.1577 1.1577 0.0 0 0 167.0247 118.5731" />
<path d="M179.7597 6.2735 A1.1577 1.1577 0.0 0 0 178.6020 5.1158" />
<path d="M180.9175 118.5731
L191.3370 118.5731
" />
<path d="M178.6020 120.8885 A1.1577 1.1577 0.0 0 0 179.7597 119.7308" />
<path d="M180.9175 118.5731 A1.1577 1.1577 0.0 0 0 179.7597 119.7308" />
<path d="M110.8359 7.4357 A4.6309 4.6309 0.0 0 0 106.8229 5.1158" />
<path d="M167.0247 118.5731
L110.8334 118.5731
" />
<path d="M102.1920 9.7467
L102.1920 116.2576
" />
<path d="M168.1825 119.7308 A1.1577 1.1577 0.0 0 0 169.3402 120.8885" />
<path d="M106.8229 5.1158 A4.6309 4.6309 0.0 0 0 102.1920 9.7467" />
<path d="M167.0247 7.4312 A1.1577 1.1577 0.0 0 0 168.1825 6.2735" />
</g>
<g style="fill:none; 
stroke:#000000; stroke-width:0.0579; stroke-opacity:1; 
stroke-linecap:round; stroke-linejoin:round;">
<path d="M141.5547 39.8476
L141.5547 112.7845
" />
</g>
<g style="fill:none; 
stroke:#000000; stroke-width:0.2315; stroke-opacity:1; 
stroke-linecap:round; stroke-linejoin:round;">
<path d="M169.3402 5.1158 A1.1577 1.1577 0.0 0 0 168.1825 6.2735" />
<path d="M178.6020 5.1158
L169.3402 5.1158
" />
</g>
<g style="fill:none; 
stroke:#000000; stroke-width:0.0579; stroke-opacity:1; 
stroke-linecap:round; stroke-linejoin:round;">
<circle cx="105.6652" cy="17.8508" r="1.2735" /> 
<circle cx="105.6652" cy="108.1535" r="1.2735" /> 
<circle cx="138.0816" cy="10.9044" r="1.2735" /> 
<circle cx="138.0816" cy="115.0999" r="1.2735" /> 
<circle cx="165.8670" cy="10.9044" r="1.2735" /> 
<circle cx="165.8670" cy="115.0999" r="1.2735" /> 
<circle cx="182.0752" cy="10.9044" r="1.2735" /> 
<circle cx="182.0752" cy="115.0999" r="1.2735" /> 
<circle cx="106.8229" cy="9.7467" r="1.8524" /> 
<circle cx="173.9711" cy="9.7467" r="1.8524" /> 
<circle cx="106.8229" cy="116.2576" r="1.8524" /> 
</g>
<g style="fill:none; 
stroke:#000000; stroke-width:0.1158; stroke-opacity:1; 
stroke-linecap:round; stroke-linejoin:round;">
<path d="M103.6970 100.9756
L104.1601 101.4387
" />
<path d="M104.1601 100.9756
L103.6970 101.4387
" />
<path d="M103.6970 103.2911
L104.1601 103.7542
" />
<path d="M104.1601 103.2911
L103.6970 103.7542
" />
<path d="M104.8548 21.6713
L105.3179 22.1344
" />
<path d="M105.3179 21.6713
L104.8548 22.1344
" />
<path d="M104.8548 22.8290
L105.3179 23.2921
" />
<path d="M105.3179 22.8290
L104.8548 23.2921
" />
<path d="M104.8548 23.9867
L105.3179 24.4498
" />
<path d="M105.3179 23.9867
L104.8548 24.4498
" />
<path d="M104.8548 25.1445
L105.3179 25.6076
" />
<path d="M105.3179 25.1445
L104.8548 25.6076
" />
<path d="M104.8548 102.1334
L105.3179 102.5964
" />
<path d="M105.3179 102.1334
L104.8548 102.5964
" />
<path d="M106.0125 22.8290
L106.4756 23.2921
" />
<path d="M106.4756 22.8290
L106.0125 23.2921
" />
<path d="M106.0125 23.9867
L106.4756 24.4498
" />
<path d="M106.4756 23.9867
L106.0125 24.4498
" />
<path d="M106.0125 100.9756
L106.4756 101.4387
" />
<path d="M106.4756 100.9756
L106.0125 101.4387
" />
<path d="M106.0125 103.2911
L106.4756 103.7542
" />
<path d="M106.4756 103.2911
L106.0125 103.7542
" />
<path d="M107.1702 22.8290
L107.6333 23.2921
" />
<path d="M107.6333 22.8290
L107.1702 23.2921
" />
<path d="M107.1702 23.9867
L107.6333 24.4498
" />
<path d="M107.6333 23.9867
L107.1702 24.4498
" />
<path d="M107.1702 25.1445
L107.6333 25.6076
" />
<path d="M107.6333 25.1445
L107.1702 25.6076
" />
<path d="M107.1702 26.3022
L107.6333 26.7653
" />
<path d="M107.6333 26.3022
L107.1702 26.7653
" />
<path d="M107.1702 27.4599
L107.6333 27.9230
" />
<path d="M107.6333 27.4599
L107.1702 27.9230
" />
<path d="M107.1702 28.6176
L107.6333 29.0807
" />
<path d="M107.6333 28.6176
L107.1702 29.0807
" />
<path d="M107.1702 29.7754
L107.6333 30.2385
" />
<path d="M107.6333 29.7754
L107.1702 30.2385
" />
<path d="M107.1702 30.9331
L107.6333 31.3962
" />
<path d="M107.6333 30.9331
L107.1702 31.3962
" />
<path d="M107.1702 32.0908
L107.6333 32.5539
" />
<path d="M107.6333 32.0908
L107.1702 32.5539
" />
<path d="M107.1702 33.2486
L107.6333 33.7116
" />
<path d="M107.6333 33.2486
L107.1702 33.7116
" />
<path d="M110.0645 16.4615
L110.5276 16.9246
" />
<path d="M110.5276 16.4615
L110.0645 16.9246
" />
<path d="M110.0645 39.6161
L110.5276 40.0792
" />
<path d="M110.5276 39.6161
L110.0645 40.0792
" />
<path d="M111.2223 16.4615
L111.6854 16.9246
" />
<path d="M111.6854 16.4615
L111.2223 16.9246
" />
<path d="M111.2223 26.3022
L111.6854 26.7653
" />
<path d="M111.6854 26.3022
L111.2223 26.7653
" />
<path d="M111.2223 39.6161
L111.6854 40.0792
" />
<path d="M111.6854 39.6161
L111.2223 40.0792
" />
<path d="M111.2223 45.9836
L111.6854 46.4467
" />
<path d="M111.6854 45.9836
L111.2223 46.4467
" />
<path d="M111.2223 47.1413
L111.6854 47.6044
" />
<path d="M111.6854 47.1413
L111.2223 47.6044
" />
<path d="M111.2223 48.2990
L111.6854 48.7621
" />
<path d="M111.6854 48.2990
L111.2223 48.7621
" />
<path d="M111.2223 49.4567
L111.6854 49.9198
" />
<path d="M111.6854 49.4567
L111.2223 49.9198
" />
<path d="M111.2223 50.6145
L111.6854 51.0776
" />
<path d="M111.6854 50.6145
L111.2223 51.0776
" />
<path d="M111.2223 51.7722
L111.6854 52.2353
" />
<path d="M111.6854 51.7722
L111.2223 52.2353
" />
<path d="M111.2223 52.9299
L111.6854 53.3930
" />
<path d="M111.6854 52.9299
L111.2223 53.3930
" />
<path d="M111.2223 54.0877
L111.6854 54.5507
" />
<path d="M111.6854 54.0877
L111.2223 54.5507
" />
<path d="M111.2223 55.2454
L111.6854 55.7085
" />
<path d="M111.6854 55.2454
L111.2223 55.7085
" />
<path d="M111.2223 56.4031
L111.6854 56.8662
" />
<path d="M111.6854 56.4031
L111.2223 56.8662
" />
<path d="M112.3800 16.4615
L112.8431 16.9246
" />
<path d="M112.8431 16.4615
L112.3800 16.9246
" />
<path d="M112.3800 39.6161
L112.8431 40.0792
" />
<path d="M112.8431 39.6161
L112.3800 40.0792
" />
<path d="M113.5377 16.4615
L114.0008 16.9246
" />
<path d="M114.0008 16.4615
L113.5377 16.9246
" />
<path d="M113.5377 39.6161
L114.0008 40.0792
" />
<path d="M114.0008 39.6161
L113.5377 40.0792
" />
<path d="M117.5898 67.4015
L118.0529 67.8646
" />
<path d="M118.0529 67.4015
L117.5898 67.8646
" />
<path d="M118.1686 55.2454
L118.6317 55.7085
" />
<path d="M118.6317 55.2454
L118.1686 55.7085
" />
<path d="M120.4841 54.0877
L120.9472 54.5507
" />
<path d="M120.9472 54.0877
L120.4841 54.5507
" />
<path d="M120.4841 67.9804
L120.9472 68.4435
" />
<path d="M120.9472 67.9804
L120.4841 68.4435
" />
<path d="M121.0981 70.3310
L121.5612 70.7941
" />
<path d="M121.5612 70.3310
L121.0981 70.7941
" />
<path d="M121.6418 34.9851
L122.1049 35.4482
" />
<path d="M122.1049 34.9851
L121.6418 35.4482
" />
<path d="M122.2207 15.8826
L122.6838 16.3457
" />
<path d="M122.6838 15.8826
L122.2207 16.3457
" />
<path d="M122.2207 18.1981
L122.6838 18.6612
" />
<path d="M122.6838 18.1981
L122.2207 18.6612
" />
<path d="M122.7995 66.2438
L123.2626 66.7069
" />
<path d="M123.2626 66.2438
L122.7995 66.7069
" />
<path d="M134.3768 21.6713
L134.8399 22.1344
" />
<path d="M134.8399 21.6713
L134.3768 22.1344
" />
<path d="M135.5345 21.6713
L135.9976 22.1344
" />
<path d="M135.9976 21.6713
L135.5345 22.1344
" />
<path d="M136.6923 21.6713
L137.1554 22.1344
" />
<path d="M137.1554 21.6713
L136.6923 22.1344
" />
</g>
<g style="fill:none; 
stroke:#000000; stroke-width:0.1274; stroke-opacity:1; 
stroke-linecap:round; stroke-linejoin:round;">
<circle cx="136.7386" cy="42.8577" r="0.6368" /> 
<circle cx="136.7386" cy="48.2990" r="0.6368" /> 
<circle cx="136.7386" cy="51.6796" r="0.6368" /> 
<circle cx="136.7386" cy="57.1209" r="0.6368" /> 
<circle cx="136.7386" cy="60.5015" r="0.6368" /> 
<circle cx="136.7386" cy="65.9428" r="0.6368" /> 
<circle cx="136.7386" cy="69.3234" r="0.6368" /> 
<circle cx="136.7386" cy="74.7647" r="0.6368" /> 
<circle cx="136.7386" cy="78.1452" r="0.6368" /> 
<circle cx="136.7386" cy="83.5866" r="0.6368" /> 
<circle cx="136.7386" cy="86.9671" r="0.6368" /> 
<circle cx="136.7386" cy="92.4084" r="0.6368" /> 
<circle cx="136.7386" cy="95.7890" r="0.6368" /> 
<circle cx="136.7386" cy="101.2303" r="0.6368" /> 
<circle cx="136.7386" cy="104.6109" r="0.6368" /> 
<circle cx="136.7386" cy="110.0522" r="0.6368" /> 
<circle cx="150.0525" cy="48.2990" r="0.6368" /> 
<circle cx="150.0525" cy="57.1209" r="0.6368" /> 
<circle cx="150.0525" cy="65.9428" r="0.6368" /> 
<circle cx="150.0525" cy="74.7647" r="0.6368" /> 
<circle cx="150.0525" cy="83.5866" r="0.6368" /> 
<circle cx="150.0525" cy="92.4084" r="0.6368" /> 
<circle cx="150.0525" cy="101.2303" r="0.6368" /> 
<circle cx="150.0525" cy="110.0522" r="0.6368" /> 
<circle cx="158.1565" cy="48.2990" r="0.6368" /> 
<circle cx="158.1565" cy="57.1209" r="0.6368" /> 
<circle cx="158.1565" cy="65.9428" r="0.6368" /> 
<circle cx="158.1565" cy="74.7647" r="0.6368" /> 
<circle cx="158.1565" cy="83.5866" r="0.6368" /> 
<circle cx="158.1565" cy="92.4084" r="0.6368" /> 
<circle cx="158.1565" cy="101.2303" r="0.6368" /> 
<circle cx="158.1565" cy="110.0522" r="0.6368" /> 
</g>
<g style="fill:none; 
stroke:#000000; stroke-width:0.1621; stroke-opacity:1; 
stroke-linecap:round; stroke-linejoin:round;">
<path d="M189.0216 12.4095
L189.0216 14.0303
" />
<path d="M188.2112 13.2199
L189.8320 13.2199
" />
<path d="M189.0216 16.4615
L189.0216 18.0823
" />
<path d="M188.2112 17.2719
L189.8320 17.2719
" />
<path d="M189.0216 20.5136
L189.0216 22.1344
" />
<path d="M188.2112 21.3240
L189.8320 21.3240
" />
<path d="M189.0216 24.5656
L189.0216 26.1864
" />
<path d="M188.2112 25.3760
L189.8320 25.3760
" />
<path d="M189.0216 28.6176
L189.0216 30.2385
" />
<path d="M188.2112 29.4281
L189.8320 29.4281
" />
<path d="M189.0216 32.6697
L189.0216 34.2905
" />
<path d="M188.2112 33.4801
L189.8320 33.4801
" />
<path d="M189.0216 36.7217
L189.0216 38.3426
" />
<path d="M188.2112 37.5321
L189.8320 37.5321
" />
<path d="M189.0216 40.7738
L189.0216 42.3946
" />
<path d="M188.2112 41.5842
L189.8320 41.5842
" />
<path d="M189.0216 44.8258
L189.0216 46.4467
" />
<path d="M188.2112 45.6362
L189.8320 45.6362
" />
<path d="M189.0216 48.8779
L189.0216 50.4987
" />
<path d="M188.2112 49.6883
L189.8320 49.6883
" />
<path d="M189.0216 54.0877
L189.0216 55.7085
" />
<path d="M188.2112 54.8981
L189.8320 54.8981
" />
<path d="M189.0216 58.1397
L189.0216 59.7605
" />
<path d="M188.2112 58.9501
L189.8320 58.9501
" />
<path d="M189.0216 62.1918
L189.0216 63.8126
" />
<path d="M188.2112 63.0022
L189.8320 63.0022
" />
<path d="M189.0216 66.2438
L189.0216 67.8646
" />
<path d="M188.2112 67.0542
L189.8320 67.0542
" />
<path d="M189.0216 70.2958
L189.0216 71.9167
" />
<path d="M188.2112 71.1063
L189.8320 71.1063
" />
<path d="M189.0216 74.3479
L189.0216 75.9687
" />
<path d="M188.2112 75.1583
L189.8320 75.1583
" />
<path d="M189.0216 78.3999
L189.0216 80.0208
" />
<path d="M188.2112 79.2103
L189.8320 79.2103
" />
<path d="M189.0216 82.4520
L189.0216 84.0728
" />
<path d="M188.2112 83.2624
L189.8320 83.2624
" />
<path d="M189.0216 86.5040
L189.0216 88.1249
" />
<path d="M188.2112 87.3144
L189.8320 87.3144
" />
<path d="M189.0216 90.5561
L189.0216 92.1769
" />
<path d="M188.2112 91.3665
L189.8320 91.3665
" />
<path style="fill:none; 
stroke:#000000; stroke-width:0.3705; stroke-opacity:1; 
stroke-linecap:round; stroke-linejoin:round;fill:none"
d="M 175.2809,117.5675
175.2809,114.9478
172.6613,114.9478
172.6613,117.5675
Z" /> 
</g>
<g style="fill:none; 
stroke:#000000; stroke-width:0.2000; stroke-opacity:1; 
stroke-linecap:round; stroke-linejoin:round;">
<text x="104.0762" y="124.2043"
textLength="14.8667" font-size="2.6667" lengthAdjust="spacingAndGlyphs"
text-anchor="start" opacity="0" stroke-opacity="0">Drill Map:</text>
<g class="stroked-text"><desc>Drill Map:</desc>
<path d="M104.6840 124.1192
L104.6840 122.1192
" />
<path d="M104.6840 122.1192
L105.1602 122.1192
" />
<path d="M105.1602 122.1192
L105.4459 122.2144
" />
<path d="M105.4459 122.2144
L105.6364 122.4049
" />
<path d="M105.6364 122.4049
L105.7316 122.5953
" />
<path d="M105.7316 122.5953
L105.8268 122.9763
" />
<path d="M105.8268 122.9763
L105.8268 123.2620
" />
<path d="M105.8268 123.2620
L105.7316 123.6430
" />
<path d="M105.7316 123.6430
L105.6364 123.8334
" />
<path d="M105.6364 123.8334
L105.4459 124.0239
" />
<path d="M105.4459 124.0239
L105.1602 124.1192
" />
<path d="M105.1602 124.1192
L104.6840 124.1192
" />
<path d="M106.6840 124.1192
L106.6840 122.7858
" />
<path d="M106.6840 123.1668
L106.7792 122.9763
" />
<path d="M106.7792 122.9763
L106.8745 122.8811
" />
<path d="M106.8745 122.8811
L107.0649 122.7858
" />
<path d="M107.0649 122.7858
L107.2554 122.7858
" />
<path d="M107.9221 124.1192
L107.9221 122.7858
" />
<path d="M107.9221 122.1192
L107.8268 122.2144
" />
<path d="M107.8268 122.2144
L107.9221 122.3096
" />
<path d="M107.9221 122.3096
L108.0173 122.2144
" />
<path d="M108.0173 122.2144
L107.9221 122.1192
" />
<path d="M107.9221 122.1192
L107.9221 122.3096
" />
<path d="M109.1602 124.1192
L108.9697 124.0239
" />
<path d="M108.9697 124.0239
L108.8745 123.8334
" />
<path d="M108.8745 123.8334
L108.8745 122.1192
" />
<path d="M110.2078 124.1192
L110.0173 124.0239
" />
<path d="M110.0173 124.0239
L109.9221 123.8334
" />
<path d="M109.9221 123.8334
L109.9221 122.1192
" />
<path d="M112.4935 124.1192
L112.4935 122.1192
" />
<path d="M112.4935 122.1192
L113.1602 123.5477
" />
<path d="M113.1602 123.5477
L113.8268 122.1192
" />
<path d="M113.8268 122.1192
L113.8268 124.1192
" />
<path d="M115.6364 124.1192
L115.6364 123.0715
" />
<path d="M115.6364 123.0715
L115.5411 122.8811
" />
<path d="M115.5411 122.8811
L115.3507 122.7858
" />
<path d="M115.3507 122.7858
L114.9697 122.7858
" />
<path d="M114.9697 122.7858
L114.7792 122.8811
" />
<path d="M115.6364 124.0239
L115.4459 124.1192
" />
<path d="M115.4459 124.1192
L114.9697 124.1192
" />
<path d="M114.9697 124.1192
L114.7792 124.0239
" />
<path d="M114.7792 124.0239
L114.6840 123.8334
" />
<path d="M114.6840 123.8334
L114.6840 123.6430
" />
<path d="M114.6840 123.6430
L114.7792 123.4525
" />
<path d="M114.7792 123.4525
L114.9697 123.3573
" />
<path d="M114.9697 123.3573
L115.4459 123.3573
" />
<path d="M115.4459 123.3573
L115.6364 123.2620
" />
<path d="M116.5887 122.7858
L116.5887 124.7858
" />
<path d="M116.5887 122.8811
L116.7792 122.7858
" />
<path d="M116.7792 122.7858
L117.1602 122.7858
" />
<path d="M117.1602 122.7858
L117.3507 122.8811
" />
<path d="M117.3507 122.8811
L117.4459 122.9763
" />
<path d="M117.4459 122.9763
L117.5411 123.1668
" />
<path d="M117.5411 123.1668
L117.5411 123.7382
" />
<path d="M117.5411 123.7382
L117.4459 123.9287
" />
<path d="M117.4459 123.9287
L117.3507 124.0239
" />
<path d="M117.3507 124.0239
L117.1602 124.1192
" />
<path d="M117.1602 124.1192
L116.7792 124.1192
" />
<path d="M116.7792 124.1192
L116.5887 124.0239
" />
<path d="M118.3983 123.9287
L118.4935 124.0239
" />
<path d="M118.4935 124.0239
L118.3983 124.1192
" />
<path d="M118.3983 124.1192
L118.3030 124.0239
" />
<path d="M118.3030 124.0239
L118.3983 123.9287
" />
<path d="M118.3983 123.9287
L118.3983 124.1192
" />
<path d="M118.3983 122.8811
L118.4935 122.9763
" />
<path d="M118.4935 122.9763
L118.3983 123.0715
" />
<path d="M118.3983 123.0715
L118.3030 122.9763
" />
<path d="M118.3030 122.9763
L118.3983 122.8811
" />
<path d="M118.3983 122.8811
L118.3983 123.0715
" />
</g></g>
<g style="fill:none; 
stroke:#000000; stroke-width:0.1158; stroke-opacity:1; 
stroke-linecap:round; stroke-linejoin:round;">
<path d="M101.6131 127.1728
L102.0762 127.6359
" />
<path d="M102.0762 127.1728
L101.6131 127.6359
" />
</g>
<g style="fill:none; 
stroke:#000000; stroke-width:0.2000; stroke-opacity:1; 
stroke-linecap:round; stroke-linejoin:round;">
<text x="104.0762" y="128.4043"
textLength="48.7714" font-size="2.6667" lengthAdjust="spacingAndGlyphs"
text-anchor="start" opacity="0" stroke-opacity="0">0.400mm / 0.0157" (52 holes)</text>
<g class="stroked-text"><desc>0.400mm / 0.0157" (52 holes)</desc>
<path d="M105.0649 126.3192
L105.2554 126.3192
" />
<path d="M105.2554 126.3192
L105.4459 126.4144
" />
<path d="M105.4459 126.4144
L105.5411 126.5096
" />
<path d="M105.5411 126.5096
L105.6364 126.7001
" />
<path d="M105.6364 126.7001
L105.7316 127.0811
" />
<path d="M105.7316 127.0811
L105.7316 127.5573
" />
<path d="M105.7316 127.5573
L105.6364 127.9382
" />
<path d="M105.6364 127.9382
L105.5411 128.1287
" />
<path d="M105.5411 128.1287
L105.4459 128.2239
" />
<path d="M105.4459 128.2239
L105.2554 128.3192
" />
<path d="M105.2554 128.3192
L105.0649 128.3192
" />
<path d="M105.0649 128.3192
L104.8745 128.2239
" />
<path d="M104.8745 128.2239
L104.7792 128.1287
" />
<path d="M104.7792 128.1287
L104.6840 127.9382
" />
<path d="M104.6840 127.9382
L104.5887 127.5573
" />
<path d="M104.5887 127.5573
L104.5887 127.0811
" />
<path d="M104.5887 127.0811
L104.6840 126.7001
" />
<path d="M104.6840 126.7001
L104.7792 126.5096
" />
<path d="M104.7792 126.5096
L104.8745 126.4144
" />
<path d="M104.8745 126.4144
L105.0649 126.3192
" />
<path d="M106.5887 128.1287
L106.6840 128.2239
" />
<path d="M106.6840 128.2239
L106.5887 128.3192
" />
<path d="M106.5887 128.3192
L106.4935 128.2239
" />
<path d="M106.4935 128.2239
L106.5887 128.1287
" />
<path d="M106.5887 128.1287
L106.5887 128.3192
" />
<path d="M108.3983 126.9858
L108.3983 128.3192
" />
<path d="M107.9221 126.2239
L107.4459 127.6525
" />
<path d="M107.4459 127.6525
L108.6840 127.6525
" />
<path d="M109.8268 126.3192
L110.0173 126.3192
" />
<path d="M110.0173 126.3192
L110.2078 126.4144
" />
<path d="M110.2078 126.4144
L110.3030 126.5096
" />
<path d="M110.3030 126.5096
L110.3983 126.7001
" />
<path d="M110.3983 126.7001
L110.4935 127.0811
" />
<path d="M110.4935 127.0811
L110.4935 127.5573
" />
<path d="M110.4935 127.5573
L110.3983 127.9382
" />
<path d="M110.3983 127.9382
L110.3030 128.1287
" />
<path d="M110.3030 128.1287
L110.2078 128.2239
" />
<path d="M110.2078 128.2239
L110.0173 128.3192
" />
<path d="M110.0173 128.3192
L109.8268 128.3192
" />
<path d="M109.8268 128.3192
L109.6364 128.2239
" />
<path d="M109.6364 128.2239
L109.5411 128.1287
" />
<path d="M109.5411 128.1287
L109.4459 127.9382
" />
<path d="M109.4459 127.9382
L109.3507 127.5573
" />
<path d="M109.3507 127.5573
L109.3507 127.0811
" />
<path d="M109.3507 127.0811
L109.4459 126.7001
" />
<path d="M109.4459 126.7001
L109.5411 126.5096
" />
<path d="M109.5411 126.5096
L109.6364 126.4144
" />
<path d="M109.6364 126.4144
L109.8268 126.3192
" />
<path d="M111.7316 126.3192
L111.9221 126.3192
" />
<path d="M111.9221 126.3192
L112.1126 126.4144
" />
<path d="M112.1126 126.4144
L112.2078 126.5096
" />
<path d="M112.2078 126.5096
L112.3030 126.7001
" />
<path d="M112.3030 126.7001
L112.3983 127.0811
" />
<path d="M112.3983 127.0811
L112.3983 127.5573
" />
<path d="M112.3983 127.5573
L112.3030 127.9382
" />
<path d="M112.3030 127.9382
L112.2078 128.1287
" />
<path d="M112.2078 128.1287
L112.1126 128.2239
" />
<path d="M112.1126 128.2239
L111.9221 128.3192
" />
<path d="M111.9221 128.3192
L111.7316 128.3192
" />
<path d="M111.7316 128.3192
L111.5411 128.2239
" />
<path d="M111.5411 128.2239
L111.4459 128.1287
" />
<path d="M111.4459 128.1287
L111.3507 127.9382
" />
<path d="M111.3507 127.9382
L111.2554 127.5573
" />
<path d="M111.2554 127.5573
L111.2554 127.0811
" />
<path d="M111.2554 127.0811
L111.3507 126.7001
" />
<path d="M111.3507 126.7001
L111.4459 126.5096
" />
<path d="M111.4459 126.5096
L111.5411 126.4144
" />
<path d="M111.5411 126.4144
L111.7316 126.3192
" />
<path d="M113.2554 128.3192
L113.2554 126.9858
" />
<path d="M113.2554 127.1763
L113.3507 127.0811
" />
<path d="M113.3507 127.0811
L113.5411 126.9858
" />
<path d="M113.5411 126.9858
L113.8268 126.9858
" />
<path d="M113.8268 126.9858
L114.0173 127.0811
" />
<path d="M114.0173 127.0811
L114.1126 127.2715
" />
<path d="M114.1126 127.2715
L114.1126 128.3192
" />
<path d="M114.1126 127.2715
L114.2078 127.0811
" />
<path d="M114.2078 127.0811
L114.3983 126.9858
" />
<path d="M114.3983 126.9858
L114.6840 126.9858
" />
<path d="M114.6840 126.9858
L114.8745 127.0811
" />
<path d="M114.8745 127.0811
L114.9697 127.2715
" />
<path d="M114.9697 127.2715
L114.9697 128.3192
" />
<path d="M115.9221 128.3192
L115.9221 126.9858
" />
<path d="M115.9221 127.1763
L116.0173 127.0811
" />
<path d="M116.0173 127.0811
L116.2078 126.9858
" />
<path d="M116.2078 126.9858
L116.4935 126.9858
" />
<path d="M116.4935 126.9858
L116.6840 127.0811
" />
<path d="M116.6840 127.0811
L116.7792 127.2715
" />
<path d="M116.7792 127.2715
L116.7792 128.3192
" />
<path d="M116.7792 127.2715
L116.8745 127.0811
" />
<path d="M116.8745 127.0811
L117.0649 126.9858
" />
<path d="M117.0649 126.9858
L117.3507 126.9858
" />
<path d="M117.3507 126.9858
L117.5411 127.0811
" />
<path d="M117.5411 127.0811
L117.6364 127.2715
" />
<path d="M117.6364 127.2715
L117.6364 128.3192
" />
<path d="M121.5411 126.2239
L119.8268 128.7953
" />
<path d="M124.1126 126.3192
L124.3030 126.3192
" />
<path d="M124.3030 126.3192
L124.4935 126.4144
" />
<path d="M124.4935 126.4144
L124.5887 126.5096
" />
<path d="M124.5887 126.5096
L124.6840 126.7001
" />
<path d="M124.6840 126.7001
L124.7792 127.0811
" />
<path d="M124.7792 127.0811
L124.7792 127.5573
" />
<path d="M124.7792 127.5573
L124.6840 127.9382
" />
<path d="M124.6840 127.9382
L124.5887 128.1287
" />
<path d="M124.5887 128.1287
L124.4935 128.2239
" />
<path d="M124.4935 128.2239
L124.3030 128.3192
" />
<path d="M124.3030 128.3192
L124.1126 128.3192
" />
<path d="M124.1126 128.3192
L123.9221 128.2239
" />
<path d="M123.9221 128.2239
L123.8268 128.1287
" />
<path d="M123.8268 128.1287
L123.7316 127.9382
" />
<path d="M123.7316 127.9382
L123.6364 127.5573
" />
<path d="M123.6364 127.5573
L123.6364 127.0811
" />
<path d="M123.6364 127.0811
L123.7316 126.7001
" />
<path d="M123.7316 126.7001
L123.8268 126.5096
" />
<path d="M123.8268 126.5096
L123.9221 126.4144
" />
<path d="M123.9221 126.4144
L124.1126 126.3192
" />
<path d="M125.6364 128.1287
L125.7316 128.2239
" />
<path d="M125.7316 128.2239
L125.6364 128.3192
" />
<path d="M125.6364 128.3192
L125.5411 128.2239
" />
<path d="M125.5411 128.2239
L125.6364 128.1287
" />
<path d="M125.6364 128.1287
L125.6364 128.3192
" />
<path d="M126.9697 126.3192
L127.1602 126.3192
" />
<path d="M127.1602 126.3192
L127.3507 126.4144
" />
<path d="M127.3507 126.4144
L127.4459 126.5096
" />
<path d="M127.4459 126.5096
L127.5411 126.7001
" />
<path d="M127.5411 126.7001
L127.6364 127.0811
" />
<path d="M127.6364 127.0811
L127.6364 127.5573
" />
<path d="M127.6364 127.5573
L127.5411 127.9382
" />
<path d="M127.5411 127.9382
L127.4459 128.1287
" />
<path d="M127.4459 128.1287
L127.3507 128.2239
" />
<path d="M127.3507 128.2239
L127.1602 128.3192
" />
<path d="M127.1602 128.3192
L126.9697 128.3192
" />
<path d="M126.9697 128.3192
L126.7792 128.2239
" />
<path d="M126.7792 128.2239
L126.6840 128.1287
" />
<path d="M126.6840 128.1287
L126.5887 127.9382
" />
<path d="M126.5887 127.9382
L126.4935 127.5573
" />
<path d="M126.4935 127.5573
L126.4935 127.0811
" />
<path d="M126.4935 127.0811
L126.5887 126.7001
" />
<path d="M126.5887 126.7001
L126.6840 126.5096
" />
<path d="M126.6840 126.5096
L126.7792 126.4144
" />
<path d="M126.7792 126.4144
L126.9697 126.3192
" />
<path d="M129.5411 128.3192
L128.3983 128.3192
" />
<path d="M128.9697 128.3192
L128.9697 126.3192
" />
<path d="M128.9697 126.3192
L128.7792 126.6049
" />
<path d="M128.7792 126.6049
L128.5887 126.7953
" />
<path d="M128.5887 126.7953
L128.3983 126.8906
" />
<path d="M131.3507 126.3192
L130.3983 126.3192
" />
<path d="M130.3983 126.3192
L130.3030 127.2715
" />
<path d="M130.3030 127.2715
L130.3983 127.1763
" />
<path d="M130.3983 127.1763
L130.5888 127.0811
" />
<path d="M130.5888 127.0811
L131.0649 127.0811
" />
<path d="M131.0649 127.0811
L131.2554 127.1763
" />
<path d="M131.2554 127.1763
L131.3507 127.2715
" />
<path d="M131.3507 127.2715
L131.4459 127.4620
" />
<path d="M131.4459 127.4620
L131.4459 127.9382
" />
<path d="M131.4459 127.9382
L131.3507 128.1287
" />
<path d="M131.3507 128.1287
L131.2554 128.2239
" />
<path d="M131.2554 128.2239
L131.0649 128.3192
" />
<path d="M131.0649 128.3192
L130.5888 128.3192
" />
<path d="M130.5888 128.3192
L130.3983 128.2239
" />
<path d="M130.3983 128.2239
L130.3030 128.1287
" />
<path d="M132.1126 126.3192
L133.4459 126.3192
" />
<path d="M133.4459 126.3192
L132.5888 128.3192
" />
<path d="M134.1126 126.3192
L134.1126 126.7001
" />
<path d="M134.8745 126.3192
L134.8745 126.7001
" />
<path d="M137.8268 129.0811
L137.7316 128.9858
" />
<path d="M137.7316 128.9858
L137.5411 128.7001
" />
<path d="M137.5411 128.7001
L137.4459 128.5096
" />
<path d="M137.4459 128.5096
L137.3507 128.2239
" />
<path d="M137.3507 128.2239
L137.2554 127.7477
" />
<path d="M137.2554 127.7477
L137.2554 127.3668
" />
<path d="M137.2554 127.3668
L137.3507 126.8906
" />
<path d="M137.3507 126.8906
L137.4459 126.6049
" />
<path d="M137.4459 126.6049
L137.5411 126.4144
" />
<path d="M137.5411 126.4144
L137.7316 126.1287
" />
<path d="M137.7316 126.1287
L137.8268 126.0334
" />
<path d="M139.5411 126.3192
L138.5887 126.3192
" />
<path d="M138.5887 126.3192
L138.4935 127.2715
" />
<path d="M138.4935 127.2715
L138.5887 127.1763
" />
<path d="M138.5887 127.1763
L138.7792 127.0811
" />
<path d="M138.7792 127.0811
L139.2554 127.0811
" />
<path d="M139.2554 127.0811
L139.4459 127.1763
" />
<path d="M139.4459 127.1763
L139.5411 127.2715
" />
<path d="M139.5411 127.2715
L139.6364 127.4620
" />
<path d="M139.6364 127.4620
L139.6364 127.9382
" />
<path d="M139.6364 127.9382
L139.5411 128.1287
" />
<path d="M139.5411 128.1287
L139.4459 128.2239
" />
<path d="M139.4459 128.2239
L139.2554 128.3192
" />
<path d="M139.2554 128.3192
L138.7792 128.3192
" />
<path d="M138.7792 128.3192
L138.5887 128.2239
" />
<path d="M138.5887 128.2239
L138.4935 128.1287
" />
<path d="M140.3983 126.5096
L140.4935 126.4144
" />
<path d="M140.4935 126.4144
L140.6840 126.3192
" />
<path d="M140.6840 126.3192
L141.1602 126.3192
" />
<path d="M141.1602 126.3192
L141.3507 126.4144
" />
<path d="M141.3507 126.4144
L141.4459 126.5096
" />
<path d="M141.4459 126.5096
L141.5411 126.7001
" />
<path d="M141.5411 126.7001
L141.5411 126.8906
" />
<path d="M141.5411 126.8906
L141.4459 127.1763
" />
<path d="M141.4459 127.1763
L140.3030 128.3192
" />
<path d="M140.3030 128.3192
L141.5411 128.3192
" />
<path d="M143.9221 128.3192
L143.9221 126.3192
" />
<path d="M144.7792 128.3192
L144.7792 127.2715
" />
<path d="M144.7792 127.2715
L144.6840 127.0811
" />
<path d="M144.6840 127.0811
L144.4935 126.9858
" />
<path d="M144.4935 126.9858
L144.2078 126.9858
" />
<path d="M144.2078 126.9858
L144.0173 127.0811
" />
<path d="M144.0173 127.0811
L143.9221 127.1763
" />
<path d="M146.0173 128.3192
L145.8268 128.2239
" />
<path d="M145.8268 128.2239
L145.7316 128.1287
" />
<path d="M145.7316 128.1287
L145.6364 127.9382
" />
<path d="M145.6364 127.9382
L145.6364 127.3668
" />
<path d="M145.6364 127.3668
L145.7316 127.1763
" />
<path d="M145.7316 127.1763
L145.8268 127.0811
" />
<path d="M145.8268 127.0811
L146.0173 126.9858
" />
<path d="M146.0173 126.9858
L146.3030 126.9858
" />
<path d="M146.3030 126.9858
L146.4935 127.0811
" />
<path d="M146.4935 127.0811
L146.5888 127.1763
" />
<path d="M146.5888 127.1763
L146.6840 127.3668
" />
<path d="M146.6840 127.3668
L146.6840 127.9382
" />
<path d="M146.6840 127.9382
L146.5888 128.1287
" />
<path d="M146.5888 128.1287
L146.4935 128.2239
" />
<path d="M146.4935 128.2239
L146.3030 128.3192
" />
<path d="M146.3030 128.3192
L146.0173 128.3192
" />
<path d="M147.8268 128.3192
L147.6364 128.2239
" />
<path d="M147.6364 128.2239
L147.5411 128.0334
" />
<path d="M147.5411 128.0334
L147.5411 126.3192
" />
<path d="M149.3507 128.2239
L149.1602 128.3192
" />
<path d="M149.1602 128.3192
L148.7792 128.3192
" />
<path d="M148.7792 128.3192
L148.5887 128.2239
" />
<path d="M148.5887 128.2239
L148.4935 128.0334
" />
<path d="M148.4935 128.0334
L148.4935 127.2715
" />
<path d="M148.4935 127.2715
L148.5887 127.0811
" />
<path d="M148.5887 127.0811
L148.7792 126.9858
" />
<path d="M148.7792 126.9858
L149.1602 126.9858
" />
<path d="M149.1602 126.9858
L149.3507 127.0811
" />
<path d="M149.3507 127.0811
L149.4459 127.2715
" />
<path d="M149.4459 127.2715
L149.4459 127.4620
" />
<path d="M149.4459 127.4620
L148.4935 127.6525
" />
<path d="M150.2078 128.2239
L150.3983 128.3192
" />
<path d="M150.3983 128.3192
L150.7792 128.3192
" />
<path d="M150.7792 128.3192
L150.9697 128.2239
" />
<path d="M150.9697 128.2239
L151.0649 128.0334
" />
<path d="M151.0649 128.0334
L151.0649 127.9382
" />
<path d="M151.0649 127.9382
L150.9697 127.7477
" />
<path d="M150.9697 127.7477
L150.7792 127.6525
" />
<path d="M150.7792 127.6525
L150.4935 127.6525
" />
<path d="M150.4935 127.6525
L150.3030 127.5573
" />
<path d="M150.3030 127.5573
L150.2078 127.3668
" />
<path d="M150.2078 127.3668
L150.2078 127.2715
" />
<path d="M150.2078 127.2715
L150.3030 127.0811
" />
<path d="M150.3030 127.0811
L150.4935 126.9858
" />
<path d="M150.4935 126.9858
L150.7792 126.9858
" />
<path d="M150.7792 126.9858
L150.9697 127.0811
" />
<path d="M151.7316 129.0811
L151.8268 128.9858
" />
<path d="M151.8268 128.9858
L152.0173 128.7001
" />
<path d="M152.0173 128.7001
L152.1126 128.5096
" />
<path d="M152.1126 128.5096
L152.2078 128.2239
" />
<path d="M152.2078 128.2239
L152.3030 127.7477
" />
<path d="M152.3030 127.7477
L152.3030 127.3668
" />
<path d="M152.3030 127.3668
L152.2078 126.8906
" />
<path d="M152.2078 126.8906
L152.1126 126.6049
" />
<path d="M152.1126 126.6049
L152.0173 126.4144
" />
<path d="M152.0173 126.4144
L151.8268 126.1287
" />
<path d="M151.8268 126.1287
L151.7316 126.0334
" />
</g></g>
<g style="fill:none; 
stroke:#000000; stroke-width:0.1274; stroke-opacity:1; 
stroke-linecap:round; stroke-linejoin:round;">
<circle cx="101.4395" cy="130.0443" r="0.6368" /> 
</g>
<g style="fill:none; 
stroke:#000000; stroke-width:0.2000; stroke-opacity:1; 
stroke-linecap:round; stroke-linejoin:round;">
<text x="104.0762" y="131.0443"
textLength="48.7714" font-size="2.6667" lengthAdjust="spacingAndGlyphs"
text-anchor="start" opacity="0" stroke-opacity="0">1.100mm / 0.0433" (32 holes)</text>
<g class="stroked-text"><desc>1.100mm / 0.0433" (32 holes)</desc>
<path d="M105.7316 130.9592
L104.5887 130.9592
" />
<path d="M105.1602 130.9592
L105.1602 128.9592
" />
<path d="M105.1602 128.9592
L104.9697 129.2449
" />
<path d="M104.9697 129.2449
L104.7792 129.4353
" />
<path d="M104.7792 129.4353
L104.5887 129.5306
" />
<path d="M106.5887 130.7687
L106.6840 130.8639
" />
<path d="M106.6840 130.8639
L106.5887 130.9592
" />
<path d="M106.5887 130.9592
L106.4935 130.8639
" />
<path d="M106.4935 130.8639
L106.5887 130.7687
" />
<path d="M106.5887 130.7687
L106.5887 130.9592
" />
<path d="M108.5887 130.9592
L107.4459 130.9592
" />
<path d="M108.0173 130.9592
L108.0173 128.9592
" />
<path d="M108.0173 128.9592
L107.8268 129.2449
" />
<path d="M107.8268 129.2449
L107.6364 129.4353
" />
<path d="M107.6364 129.4353
L107.4459 129.5306
" />
<path d="M109.8268 128.9592
L110.0173 128.9592
" />
<path d="M110.0173 128.9592
L110.2078 129.0544
" />
<path d="M110.2078 129.0544
L110.3030 129.1496
" />
<path d="M110.3030 129.1496
L110.3983 129.3401
" />
<path d="M110.3983 129.3401
L110.4935 129.7211
" />
<path d="M110.4935 129.7211
L110.4935 130.1973
" />
<path d="M110.4935 130.1973
L110.3983 130.5782
" />
<path d="M110.3983 130.5782
L110.3030 130.7687
" />
<path d="M110.3030 130.7687
L110.2078 130.8639
" />
<path d="M110.2078 130.8639
L110.0173 130.9592
" />
<path d="M110.0173 130.9592
L109.8268 130.9592
" />
<path d="M109.8268 130.9592
L109.6364 130.8639
" />
<path d="M109.6364 130.8639
L109.5411 130.7687
" />
<path d="M109.5411 130.7687
L109.4459 130.5782
" />
<path d="M109.4459 130.5782
L109.3507 130.1973
" />
<path d="M109.3507 130.1973
L109.3507 129.7211
" />
<path d="M109.3507 129.7211
L109.4459 129.3401
" />
<path d="M109.4459 129.3401
L109.5411 129.1496
" />
<path d="M109.5411 129.1496
L109.6364 129.0544
" />
<path d="M109.6364 129.0544
L109.8268 128.9592
" />
<path d="M111.7316 128.9592
L111.9221 128.9592
" />
<path d="M111.9221 128.9592
L112.1126 129.0544
" />
<path d="M112.1126 129.0544
L112.2078 129.1496
" />
<path d="M112.2078 129.1496
L112.3030 129.3401
" />
<path d="M112.3030 129.3401
L112.3983 129.7211
" />
<path d="M112.3983 129.7211
L112.3983 130.1973
" />
<path d="M112.3983 130.1973
L112.3030 130.5782
" />
<path d="M112.3030 130.5782
L112.2078 130.7687
" />
<path d="M112.2078 130.7687
L112.1126 130.8639
" />
<path d="M112.1126 130.8639
L111.9221 130.9592
" />
<path d="M111.9221 130.9592
L111.7316 130.9592
" />
<path d="M111.7316 130.9592
L111.5411 130.8639
" />
<path d="M111.5411 130.8639
L111.4459 130.7687
" />
<path d="M111.4459 130.7687
L111.3507 130.5782
" />
<path d="M111.3507 130.5782
L111.2554 130.1973
" />
<path d="M111.2554 130.1973
L111.2554 129.7211
" />
<path d="M111.2554 129.7211
L111.3507 129.3401
" />
<path d="M111.3507 129.3401
L111.4459 129.1496
" />
<path d="M111.4459 129.1496
L111.5411 129.0544
" />
<path d="M111.5411 129.0544
L111.7316 128.9592
" />
<path d="M113.2554 130.9592
L113.2554 129.6258
" />
<path d="M113.2554 129.8163
L113.3507 129.7211
" />
<path d="M113.3507 129.7211
L113.5411 129.6258
" />
<path d="M113.5411 129.6258
L113.8268 129.6258
" />
<path d="M113.8268 129.6258
L114.0173 129.7211
" />
<path d="M114.0173 129.7211
L114.1126 129.9115
" />
<path d="M114.1126 129.9115
L114.1126 130.9592
" />
<path d="M114.1126 129.9115
L114.2078 129.7211
" />
<path d="M114.2078 129.7211
L114.3983 129.6258
" />
<path d="M114.3983 129.6258
L114.6840 129.6258
" />
<path d="M114.6840 129.6258
L114.8745 129.7211
" />
<path d="M114.8745 129.7211
L114.9697 129.9115
" />
<path d="M114.9697 129.9115
L114.9697 130.9592
" />
<path d="M115.9221 130.9592
L115.9221 129.6258
" />
<path d="M115.9221 129.8163
L116.0173 129.7211
" />
<path d="M116.0173 129.7211
L116.2078 129.6258
" />
<path d="M116.2078 129.6258
L116.4935 129.6258
" />
<path d="M116.4935 129.6258
L116.6840 129.7211
" />
<path d="M116.6840 129.7211
L116.7792 129.9115
" />
<path d="M116.7792 129.9115
L116.7792 130.9592
" />
<path d="M116.7792 129.9115
L116.8745 129.7211
" />
<path d="M116.8745 129.7211
L117.0649 129.6258
" />
<path d="M117.0649 129.6258
L117.3507 129.6258
" />
<path d="M117.3507 129.6258
L117.5411 129.7211
" />
<path d="M117.5411 129.7211
L117.6364 129.9115
" />
<path d="M117.6364 129.9115
L117.6364 130.9592
" />
<path d="M121.5411 128.8639
L119.8268 131.4353
" />
<path d="M124.1126 128.9592
L124.3030 128.9592
" />
<path d="M124.3030 128.9592
L124.4935 129.0544
" />
<path d="M124.4935 129.0544
L124.5887 129.1496
" />
<path d="M124.5887 129.1496
L124.6840 129.3401
" />
<path d="M124.6840 129.3401
L124.7792 129.7211
" />
<path d="M124.7792 129.7211
L124.7792 130.1973
" />
<path d="M124.7792 130.1973
L124.6840 130.5782
" />
<path d="M124.6840 130.5782
L124.5887 130.7687
" />
<path d="M124.5887 130.7687
L124.4935 130.8639
" />
<path d="M124.4935 130.8639
L124.3030 130.9592
" />
<path d="M124.3030 130.9592
L124.1126 130.9592
" />
<path d="M124.1126 130.9592
L123.9221 130.8639
" />
<path d="M123.9221 130.8639
L123.8268 130.7687
" />
<path d="M123.8268 130.7687
L123.7316 130.5782
" />
<path d="M123.7316 130.5782
L123.6364 130.1973
" />
<path d="M123.6364 130.1973
L123.6364 129.7211
" />
<path d="M123.6364 129.7211
L123.7316 129.3401
" />
<path d="M123.7316 129.3401
L123.8268 129.1496
" />
<path d="M123.8268 129.1496
L123.9221 129.0544
" />
<path d="M123.9221 129.0544
L124.1126 128.9592
" />
<path d="M125.6364 130.7687
L125.7316 130.8639
" />
<path d="M125.7316 130.8639
L125.6364 130.9592
" />
<path d="M125.6364 130.9592
L125.5411 130.8639
" />
<path d="M125.5411 130.8639
L125.6364 130.7687
" />
<path d="M125.6364 130.7687
L125.6364 130.9592
" />
<path d="M126.9697 128.9592
L127.1602 128.9592
" />
<path d="M127.1602 128.9592
L127.3507 129.0544
" />
<path d="M127.3507 129.0544
L127.4459 129.1496
" />
<path d="M127.4459 129.1496
L127.5411 129.3401
" />
<path d="M127.5411 129.3401
L127.6364 129.7211
" />
<path d="M127.6364 129.7211
L127.6364 130.1973
" />
<path d="M127.6364 130.1973
L127.5411 130.5782
" />
<path d="M127.5411 130.5782
L127.4459 130.7687
" />
<path d="M127.4459 130.7687
L127.3507 130.8639
" />
<path d="M127.3507 130.8639
L127.1602 130.9592
" />
<path d="M127.1602 130.9592
L126.9697 130.9592
" />
<path d="M126.9697 130.9592
L126.7792 130.8639
" />
<path d="M126.7792 130.8639
L126.6840 130.7687
" />
<path d="M126.6840 130.7687
L126.5887 130.5782
" />
<path d="M126.5887 130.5782
L126.4935 130.1973
" />
<path d="M126.4935 130.1973
L126.4935 129.7211
" />
<path d="M126.4935 129.7211
L126.5887 129.3401
" />
<path d="M126.5887 129.3401
L126.6840 129.1496
" />
<path d="M126.6840 129.1496
L126.7792 129.0544
" />
<path d="M126.7792 129.0544
L126.9697 128.9592
" />
<path d="M129.3507 129.6258
L129.3507 130.9592
" />
<path d="M128.8745 128.8639
L128.3983 130.2925
" />
<path d="M128.3983 130.2925
L129.6364 130.2925
" />
<path d="M130.2078 128.9592
L131.4459 128.9592
" />
<path d="M131.4459 128.9592
L130.7792 129.7211
" />
<path d="M130.7792 129.7211
L131.0649 129.7211
" />
<path d="M131.0649 129.7211
L131.2554 129.8163
" />
<path d="M131.2554 129.8163
L131.3507 129.9115
" />
<path d="M131.3507 129.9115
L131.4459 130.1020
" />
<path d="M131.4459 130.1020
L131.4459 130.5782
" />
<path d="M131.4459 130.5782
L131.3507 130.7687
" />
<path d="M131.3507 130.7687
L131.2554 130.8639
" />
<path d="M131.2554 130.8639
L131.0649 130.9592
" />
<path d="M131.0649 130.9592
L130.4935 130.9592
" />
<path d="M130.4935 130.9592
L130.3030 130.8639
" />
<path d="M130.3030 130.8639
L130.2078 130.7687
" />
<path d="M132.1126 128.9592
L133.3507 128.9592
" />
<path d="M133.3507 128.9592
L132.6840 129.7211
" />
<path d="M132.6840 129.7211
L132.9697 129.7211
" />
<path d="M132.9697 129.7211
L133.1602 129.8163
" />
<path d="M133.1602 129.8163
L133.2554 129.9115
" />
<path d="M133.2554 129.9115
L133.3507 130.1020
" />
<path d="M133.3507 130.1020
L133.3507 130.5782
" />
<path d="M133.3507 130.5782
L133.2554 130.7687
" />
<path d="M133.2554 130.7687
L133.1602 130.8639
" />
<path d="M133.1602 130.8639
L132.9697 130.9592
" />
<path d="M132.9697 130.9592
L132.3983 130.9592
" />
<path d="M132.3983 130.9592
L132.2078 130.8639
" />
<path d="M132.2078 130.8639
L132.1126 130.7687
" />
<path d="M134.1126 128.9592
L134.1126 129.3401
" />
<path d="M134.8745 128.9592
L134.8745 129.3401
" />
<path d="M137.8268 131.7211
L137.7316 131.6258
" />
<path d="M137.7316 131.6258
L137.5411 131.3401
" />
<path d="M137.5411 131.3401
L137.4459 131.1496
" />
<path d="M137.4459 131.1496
L137.3507 130.8639
" />
<path d="M137.3507 130.8639
L137.2554 130.3877
" />
<path d="M137.2554 130.3877
L137.2554 130.0068
" />
<path d="M137.2554 130.0068
L137.3507 129.5306
" />
<path d="M137.3507 129.5306
L137.4459 129.2449
" />
<path d="M137.4459 129.2449
L137.5411 129.0544
" />
<path d="M137.5411 129.0544
L137.7316 128.7687
" />
<path d="M137.7316 128.7687
L137.8268 128.6734
" />
<path d="M138.3983 128.9592
L139.6364 128.9592
" />
<path d="M139.6364 128.9592
L138.9697 129.7211
" />
<path d="M138.9697 129.7211
L139.2554 129.7211
" />
<path d="M139.2554 129.7211
L139.4459 129.8163
" />
<path d="M139.4459 129.8163
L139.5411 129.9115
" />
<path d="M139.5411 129.9115
L139.6364 130.1020
" />
<path d="M139.6364 130.1020
L139.6364 130.5782
" />
<path d="M139.6364 130.5782
L139.5411 130.7687
" />
<path d="M139.5411 130.7687
L139.4459 130.8639
" />
<path d="M139.4459 130.8639
L139.2554 130.9592
" />
<path d="M139.2554 130.9592
L138.6840 130.9592
" />
<path d="M138.6840 130.9592
L138.4935 130.8639
" />
<path d="M138.4935 130.8639
L138.3983 130.7687
" />
<path d="M140.3983 129.1496
L140.4935 129.0544
" />
<path d="M140.4935 129.0544
L140.6840 128.9592
" />
<path d="M140.6840 128.9592
L141.1602 128.9592
" />
<path d="M141.1602 128.9592
L141.3507 129.0544
" />
<path d="M141.3507 129.0544
L141.4459 129.1496
" />
<path d="M141.4459 129.1496
L141.5411 129.3401
" />
<path d="M141.5411 129.3401
L141.5411 129.5306
" />
<path d="M141.5411 129.5306
L141.4459 129.8163
" />
<path d="M141.4459 129.8163
L140.3030 130.9592
" />
<path d="M140.3030 130.9592
L141.5411 130.9592
" />
<path d="M143.9221 130.9592
L143.9221 128.9592
" />
<path d="M144.7792 130.9592
L144.7792 129.9115
" />
<path d="M144.7792 129.9115
L144.6840 129.7211
" />
<path d="M144.6840 129.7211
L144.4935 129.6258
" />
<path d="M144.4935 129.6258
L144.2078 129.6258
" />
<path d="M144.2078 129.6258
L144.0173 129.7211
" />
<path d="M144.0173 129.7211
L143.9221 129.8163
" />
<path d="M146.0173 130.9592
L145.8268 130.8639
" />
<path d="M145.8268 130.8639
L145.7316 130.7687
" />
<path d="M145.7316 130.7687
L145.6364 130.5782
" />
<path d="M145.6364 130.5782
L145.6364 130.0068
" />
<path d="M145.6364 130.0068
L145.7316 129.8163
" />
<path d="M145.7316 129.8163
L145.8268 129.7211
" />
<path d="M145.8268 129.7211
L146.0173 129.6258
" />
<path d="M146.0173 129.6258
L146.3030 129.6258
" />
<path d="M146.3030 129.6258
L146.4935 129.7211
" />
<path d="M146.4935 129.7211
L146.5888 129.8163
" />
<path d="M146.5888 129.8163
L146.6840 130.0068
" />
<path d="M146.6840 130.0068
L146.6840 130.5782
" />
<path d="M146.6840 130.5782
L146.5888 130.7687
" />
<path d="M146.5888 130.7687
L146.4935 130.8639
" />
<path d="M146.4935 130.8639
L146.3030 130.9592
" />
<path d="M146.3030 130.9592
L146.0173 130.9592
" />
<path d="M147.8268 130.9592
L147.6364 130.8639
" />
<path d="M147.6364 130.8639
L147.5411 130.6734
" />
<path d="M147.5411 130.6734
L147.5411 128.9592
" />
<path d="M149.3507 130.8639
L149.1602 130.9592
" />
<path d="M149.1602 130.9592
L148.7792 130.9592
" />
<path d="M148.7792 130.9592
L148.5887 130.8639
" />
<path d="M148.5887 130.8639
L148.4935 130.6734
" />
<path d="M148.4935 130.6734
L148.4935 129.9115
" />
<path d="M148.4935 129.9115
L148.5887 129.7211
" />
<path d="M148.5887 129.7211
L148.7792 129.6258
" />
<path d="M148.7792 129.6258
L149.1602 129.6258
" />
<path d="M149.1602 129.6258
L149.3507 129.7211
" />
<path d="M149.3507 129.7211
L149.4459 129.9115
" />
<path d="M149.4459 129.9115
L149.4459 130.1020
" />
<path d="M149.4459 130.1020
L148.4935 130.2925
" />
<path d="M150.2078 130.8639
L150.3983 130.9592
" />
<path d="M150.3983 130.9592
L150.7792 130.9592
" />
<path d="M150.7792 130.9592
L150.9697 130.8639
" />
<path d="M150.9697 130.8639
L151.0649 130.6734
" />
<path d="M151.0649 130.6734
L151.0649 130.5782
" />
<path d="M151.0649 130.5782
L150.9697 130.3877
" />
<path d="M150.9697 130.3877
L150.7792 130.2925
" />
<path d="M150.7792 130.2925
L150.4935 130.2925
" />
<path d="M150.4935 130.2925
L150.3030 130.1973
" />
<path d="M150.3030 130.1973
L150.2078 130.0068
" />
<path d="M150.2078 130.0068
L150.2078 129.9115
" />
<path d="M150.2078 129.9115
L150.3030 129.7211
" />
<path d="M150.3030 129.7211
L150.4935 129.6258
" />
<path d="M150.4935 129.6258
L150.7792 129.6258
" />
<path d="M150.7792 129.6258
L150.9697 129.7211
" />
<path d="M151.7316 131.7211
L151.8268 131.6258
" />
<path d="M151.8268 131.6258
L152.0173 131.3401
" />
<path d="M152.0173 131.3401
L152.1126 131.1496
" />
<path d="M152.1126 131.1496
L152.2078 130.8639
" />
<path d="M152.2078 130.8639
L152.3030 130.3877
" />
<path d="M152.3030 130.3877
L152.3030 130.0068
" />
<path d="M152.3030 130.0068
L152.2078 129.5306
" />
<path d="M152.2078 129.5306
L152.1126 129.2449
" />
<path d="M152.1126 129.2449
L152.0173 129.0544
" />
<path d="M152.0173 129.0544
L151.8268 128.7687
" />
<path d="M151.8268 128.7687
L151.7316 128.6734
" />
</g></g>
<g style="fill:none; 
stroke:#000000; stroke-width:0.1621; stroke-opacity:1; 
stroke-linecap:round; stroke-linejoin:round;">
<path d="M101.2658 131.8739
L101.2658 133.4947
" />
<path d="M100.4554 132.6843
L102.0762 132.6843
" />
</g>
<g style="fill:none; 
stroke:#000000; stroke-width:0.2000; stroke-opacity:1; 
stroke-linecap:round; stroke-linejoin:round;">
<text x="104.0762" y="133.6843"
textLength="48.7714" font-size="2.6667" lengthAdjust="spacingAndGlyphs"
text-anchor="start" opacity="0" stroke-opacity="0">1.400mm / 0.0551" (20 holes)</text>
<g class="stroked-text"><desc>1.400mm / 0.0551" (20 holes)</desc>
<path d="M105.7316 133.5992
L104.5887 133.5992
" />
<path d="M105.1602 133.5992
L105.1602 131.5992
" />
<path d="M105.1602 131.5992
L104.9697 131.8849
" />
<path d="M104.9697 131.8849
L104.7792 132.0753
" />
<path d="M104.7792 132.0753
L104.5887 132.1706
" />
<path d="M106.5887 133.4087
L106.6840 133.5039
" />
<path d="M106.6840 133.5039
L106.5887 133.5992
" />
<path d="M106.5887 133.5992
L106.4935 133.5039
" />
<path d="M106.4935 133.5039
L106.5887 133.4087
" />
<path d="M106.5887 133.4087
L106.5887 133.5992
" />
<path d="M108.3983 132.2658
L108.3983 133.5992
" />
<path d="M107.9221 131.5039
L107.4459 132.9325
" />
<path d="M107.4459 132.9325
L108.6840 132.9325
" />
<path d="M109.8268 131.5992
L110.0173 131.5992
" />
<path d="M110.0173 131.5992
L110.2078 131.6944
" />
<path d="M110.2078 131.6944
L110.3030 131.7896
" />
<path d="M110.3030 131.7896
L110.3983 131.9801
" />
<path d="M110.3983 131.9801
L110.4935 132.3611
" />
<path d="M110.4935 132.3611
L110.4935 132.8373
" />
<path d="M110.4935 132.8373
L110.3983 133.2182
" />
<path d="M110.3983 133.2182
L110.3030 133.4087
" />
<path d="M110.3030 133.4087
L110.2078 133.5039
" />
<path d="M110.2078 133.5039
L110.0173 133.5992
" />
<path d="M110.0173 133.5992
L109.8268 133.5992
" />
<path d="M109.8268 133.5992
L109.6364 133.5039
" />
<path d="M109.6364 133.5039
L109.5411 133.4087
" />
<path d="M109.5411 133.4087
L109.4459 133.2182
" />
<path d="M109.4459 133.2182
L109.3507 132.8373
" />
<path d="M109.3507 132.8373
L109.3507 132.3611
" />
<path d="M109.3507 132.3611
L109.4459 131.9801
" />
<path d="M109.4459 131.9801
L109.5411 131.7896
" />
<path d="M109.5411 131.7896
L109.6364 131.6944
" />
<path d="M109.6364 131.6944
L109.8268 131.5992
" />
<path d="M111.7316 131.5992
L111.9221 131.5992
" />
<path d="M111.9221 131.5992
L112.1126 131.6944
" />
<path d="M112.1126 131.6944
L112.2078 131.7896
" />
<path d="M112.2078 131.7896
L112.3030 131.9801
" />
<path d="M112.3030 131.9801
L112.3983 132.3611
" />
<path d="M112.3983 132.3611
L112.3983 132.8373
" />
<path d="M112.3983 132.8373
L112.3030 133.2182
" />
<path d="M112.3030 133.2182
L112.2078 133.4087
" />
<path d="M112.2078 133.4087
L112.1126 133.5039
" />
<path d="M112.1126 133.5039
L111.9221 133.5992
" />
<path d="M111.9221 133.5992
L111.7316 133.5992
" />
<path d="M111.7316 133.5992
L111.5411 133.5039
" />
<path d="M111.5411 133.5039
L111.4459 133.4087
" />
<path d="M111.4459 133.4087
L111.3507 133.2182
" />
<path d="M111.3507 133.2182
L111.2554 132.8373
" />
<path d="M111.2554 132.8373
L111.2554 132.3611
" />
<path d="M111.2554 132.3611
L111.3507 131.9801
" />
<path d="M111.3507 131.9801
L111.4459 131.7896
" />
<path d="M111.4459 131.7896
L111.5411 131.6944
" />
<path d="M111.5411 131.6944
L111.7316 131.5992
" />
<path d="M113.2554 133.5992
L113.2554 132.2658
" />
<path d="M113.2554 132.4563
L113.3507 132.3611
" />
<path d="M113.3507 132.3611
L113.5411 132.2658
" />
<path d="M113.5411 132.2658
L113.8268 132.2658
" />
<path d="M113.8268 132.2658
L114.0173 132.3611
" />
<path d="M114.0173 132.3611
L114.1126 132.5515
" />
<path d="M114.1126 132.5515
L114.1126 133.5992
" />
<path d="M114.1126 132.5515
L114.2078 132.3611
" />
<path d="M114.2078 132.3611
L114.3983 132.2658
" />
<path d="M114.3983 132.2658
L114.6840 132.2658
" />
<path d="M114.6840 132.2658
L114.8745 132.3611
" />
<path d="M114.8745 132.3611
L114.9697 132.5515
" />
<path d="M114.9697 132.5515
L114.9697 133.5992
" />
<path d="M115.9221 133.5992
L115.9221 132.2658
" />
<path d="M115.9221 132.4563
L116.0173 132.3611
" />
<path d="M116.0173 132.3611
L116.2078 132.2658
" />
<path d="M116.2078 132.2658
L116.4935 132.2658
" />
<path d="M116.4935 132.2658
L116.6840 132.3611
" />
<path d="M116.6840 132.3611
L116.7792 132.5515
" />
<path d="M116.7792 132.5515
L116.7792 133.5992
" />
<path d="M116.7792 132.5515
L116.8745 132.3611
" />
<path d="M116.8745 132.3611
L117.0649 132.2658
" />
<path d="M117.0649 132.2658
L117.3507 132.2658
" />
<path d="M117.3507 132.2658
L117.5411 132.3611
" />
<path d="M117.5411 132.3611
L117.6364 132.5515
" />
<path d="M117.6364 132.5515
L117.6364 133.5992
" />
<path d="M121.5411 131.5039
L119.8268 134.0753
" />
<path d="M124.1126 131.5992
L124.3030 131.5992
" />
<path d="M124.3030 131.5992
L124.4935 131.6944
" />
<path d="M124.4935 131.6944
L124.5887 131.7896
" />
<path d="M124.5887 131.7896
L124.6840 131.9801
" />
<path d="M124.6840 131.9801
L124.7792 132.3611
" />
<path d="M124.7792 132.3611
L124.7792 132.8373
" />
<path d="M124.7792 132.8373
L124.6840 133.2182
" />
<path d="M124.6840 133.2182
L124.5887 133.4087
" />
<path d="M124.5887 133.4087
L124.4935 133.5039
" />
<path d="M124.4935 133.5039
L124.3030 133.5992
" />
<path d="M124.3030 133.5992
L124.1126 133.5992
" />
<path d="M124.1126 133.5992
L123.9221 133.5039
" />
<path d="M123.9221 133.5039
L123.8268 133.4087
" />
<path d="M123.8268 133.4087
L123.7316 133.2182
" />
<path d="M123.7316 133.2182
L123.6364 132.8373
" />
<path d="M123.6364 132.8373
L123.6364 132.3611
" />
<path d="M123.6364 132.3611
L123.7316 131.9801
" />
<path d="M123.7316 131.9801
L123.8268 131.7896
" />
<path d="M123.8268 131.7896
L123.9221 131.6944
" />
<path d="M123.9221 131.6944
L124.1126 131.5992
" />
<path d="M125.6364 133.4087
L125.7316 133.5039
" />
<path d="M125.7316 133.5039
L125.6364 133.5992
" />
<path d="M125.6364 133.5992
L125.5411 133.5039
" />
<path d="M125.5411 133.5039
L125.6364 133.4087
" />
<path d="M125.6364 133.4087
L125.6364 133.5992
" />
<path d="M126.9697 131.5992
L127.1602 131.5992
" />
<path d="M127.1602 131.5992
L127.3507 131.6944
" />
<path d="M127.3507 131.6944
L127.4459 131.7896
" />
<path d="M127.4459 131.7896
L127.5411 131.9801
" />
<path d="M127.5411 131.9801
L127.6364 132.3611
" />
<path d="M127.6364 132.3611
L127.6364 132.8373
" />
<path d="M127.6364 132.8373
L127.5411 133.2182
" />
<path d="M127.5411 133.2182
L127.4459 133.4087
" />
<path d="M127.4459 133.4087
L127.3507 133.5039
" />
<path d="M127.3507 133.5039
L127.1602 133.5992
" />
<path d="M127.1602 133.5992
L126.9697 133.5992
" />
<path d="M126.9697 133.5992
L126.7792 133.5039
" />
<path d="M126.7792 133.5039
L126.6840 133.4087
" />
<path d="M126.6840 133.4087
L126.5887 133.2182
" />
<path d="M126.5887 133.2182
L126.4935 132.8373
" />
<path d="M126.4935 132.8373
L126.4935 132.3611
" />
<path d="M126.4935 132.3611
L126.5887 131.9801
" />
<path d="M126.5887 131.9801
L126.6840 131.7896
" />
<path d="M126.6840 131.7896
L126.7792 131.6944
" />
<path d="M126.7792 131.6944
L126.9697 131.5992
" />
<path d="M129.4459 131.5992
L128.4935 131.5992
" />
<path d="M128.4935 131.5992
L128.3983 132.5515
" />
<path d="M128.3983 132.5515
L128.4935 132.4563
" />
<path d="M128.4935 132.4563
L128.6840 132.3611
" />
<path d="M128.6840 132.3611
L129.1602 132.3611
" />
<path d="M129.1602 132.3611
L129.3507 132.4563
" />
<path d="M129.3507 132.4563
L129.4459 132.5515
" />
<path d="M129.4459 132.5515
L129.5411 132.7420
" />
<path d="M129.5411 132.7420
L129.5411 133.2182
" />
<path d="M129.5411 133.2182
L129.4459 133.4087
" />
<path d="M129.4459 133.4087
L129.3507 133.5039
" />
<path d="M129.3507 133.5039
L129.1602 133.5992
" />
<path d="M129.1602 133.5992
L128.6840 133.5992
" />
<path d="M128.6840 133.5992
L128.4935 133.5039
" />
<path d="M128.4935 133.5039
L128.3983 133.4087
" />
<path d="M131.3507 131.5992
L130.3983 131.5992
" />
<path d="M130.3983 131.5992
L130.3030 132.5515
" />
<path d="M130.3030 132.5515
L130.3983 132.4563
" />
<path d="M130.3983 132.4563
L130.5888 132.3611
" />
<path d="M130.5888 132.3611
L131.0649 132.3611
" />
<path d="M131.0649 132.3611
L131.2554 132.4563
" />
<path d="M131.2554 132.4563
L131.3507 132.5515
" />
<path d="M131.3507 132.5515
L131.4459 132.7420
" />
<path d="M131.4459 132.7420
L131.4459 133.2182
" />
<path d="M131.4459 133.2182
L131.3507 133.4087
" />
<path d="M131.3507 133.4087
L131.2554 133.5039
" />
<path d="M131.2554 133.5039
L131.0649 133.5992
" />
<path d="M131.0649 133.5992
L130.5888 133.5992
" />
<path d="M130.5888 133.5992
L130.3983 133.5039
" />
<path d="M130.3983 133.5039
L130.3030 133.4087
" />
<path d="M133.3507 133.5992
L132.2078 133.5992
" />
<path d="M132.7792 133.5992
L132.7792 131.5992
" />
<path d="M132.7792 131.5992
L132.5888 131.8849
" />
<path d="M132.5888 131.8849
L132.3983 132.0753
" />
<path d="M132.3983 132.0753
L132.2078 132.1706
" />
<path d="M134.1126 131.5992
L134.1126 131.9801
" />
<path d="M134.8745 131.5992
L134.8745 131.9801
" />
<path d="M137.8268 134.3611
L137.7316 134.2658
" />
<path d="M137.7316 134.2658
L137.5411 133.9801
" />
<path d="M137.5411 133.9801
L137.4459 133.7896
" />
<path d="M137.4459 133.7896
L137.3507 133.5039
" />
<path d="M137.3507 133.5039
L137.2554 133.0277
" />
<path d="M137.2554 133.0277
L137.2554 132.6468
" />
<path d="M137.2554 132.6468
L137.3507 132.1706
" />
<path d="M137.3507 132.1706
L137.4459 131.8849
" />
<path d="M137.4459 131.8849
L137.5411 131.6944
" />
<path d="M137.5411 131.6944
L137.7316 131.4087
" />
<path d="M137.7316 131.4087
L137.8268 131.3134
" />
<path d="M138.4935 131.7896
L138.5887 131.6944
" />
<path d="M138.5887 131.6944
L138.7792 131.5992
" />
<path d="M138.7792 131.5992
L139.2554 131.5992
" />
<path d="M139.2554 131.5992
L139.4459 131.6944
" />
<path d="M139.4459 131.6944
L139.5411 131.7896
" />
<path d="M139.5411 131.7896
L139.6364 131.9801
" />
<path d="M139.6364 131.9801
L139.6364 132.1706
" />
<path d="M139.6364 132.1706
L139.5411 132.4563
" />
<path d="M139.5411 132.4563
L138.3983 133.5992
" />
<path d="M138.3983 133.5992
L139.6364 133.5992
" />
<path d="M140.8745 131.5992
L141.0649 131.5992
" />
<path d="M141.0649 131.5992
L141.2554 131.6944
" />
<path d="M141.2554 131.6944
L141.3507 131.7896
" />
<path d="M141.3507 131.7896
L141.4459 131.9801
" />
<path d="M141.4459 131.9801
L141.5411 132.3611
" />
<path d="M141.5411 132.3611
L141.5411 132.8373
" />
<path d="M141.5411 132.8373
L141.4459 133.2182
" />
<path d="M141.4459 133.2182
L141.3507 133.4087
" />
<path d="M141.3507 133.4087
L141.2554 133.5039
" />
<path d="M141.2554 133.5039
L141.0649 133.5992
" />
<path d="M141.0649 133.5992
L140.8745 133.5992
" />
<path d="M140.8745 133.5992
L140.6840 133.5039
" />
<path d="M140.6840 133.5039
L140.5887 133.4087
" />
<path d="M140.5887 133.4087
L140.4935 133.2182
" />
<path d="M140.4935 133.2182
L140.3983 132.8373
" />
<path d="M140.3983 132.8373
L140.3983 132.3611
" />
<path d="M140.3983 132.3611
L140.4935 131.9801
" />
<path d="M140.4935 131.9801
L140.5887 131.7896
" />
<path d="M140.5887 131.7896
L140.6840 131.6944
" />
<path d="M140.6840 131.6944
L140.8745 131.5992
" />
<path d="M143.9221 133.5992
L143.9221 131.5992
" />
<path d="M144.7792 133.5992
L144.7792 132.5515
" />
<path d="M144.7792 132.5515
L144.6840 132.3611
" />
<path d="M144.6840 132.3611
L144.4935 132.2658
" />
<path d="M144.4935 132.2658
L144.2078 132.2658
" />
<path d="M144.2078 132.2658
L144.0173 132.3611
" />
<path d="M144.0173 132.3611
L143.9221 132.4563
" />
<path d="M146.0173 133.5992
L145.8268 133.5039
" />
<path d="M145.8268 133.5039
L145.7316 133.4087
" />
<path d="M145.7316 133.4087
L145.6364 133.2182
" />
<path d="M145.6364 133.2182
L145.6364 132.6468
" />
<path d="M145.6364 132.6468
L145.7316 132.4563
" />
<path d="M145.7316 132.4563
L145.8268 132.3611
" />
<path d="M145.8268 132.3611
L146.0173 132.2658
" />
<path d="M146.0173 132.2658
L146.3030 132.2658
" />
<path d="M146.3030 132.2658
L146.4935 132.3611
" />
<path d="M146.4935 132.3611
L146.5888 132.4563
" />
<path d="M146.5888 132.4563
L146.6840 132.6468
" />
<path d="M146.6840 132.6468
L146.6840 133.2182
" />
<path d="M146.6840 133.2182
L146.5888 133.4087
" />
<path d="M146.5888 133.4087
L146.4935 133.5039
" />
<path d="M146.4935 133.5039
L146.3030 133.5992
" />
<path d="M146.3030 133.5992
L146.0173 133.5992
" />
<path d="M147.8268 133.5992
L147.6364 133.5039
" />
<path d="M147.6364 133.5039
L147.5411 133.3134
" />
<path d="M147.5411 133.3134
L147.5411 131.5992
" />
<path d="M149.3507 133.5039
L149.1602 133.5992
" />
<path d="M149.1602 133.5992
L148.7792 133.5992
" />
<path d="M148.7792 133.5992
L148.5887 133.5039
" />
<path d="M148.5887 133.5039
L148.4935 133.3134
" />
<path d="M148.4935 133.3134
L148.4935 132.5515
" />
<path d="M148.4935 132.5515
L148.5887 132.3611
" />
<path d="M148.5887 132.3611
L148.7792 132.2658
" />
<path d="M148.7792 132.2658
L149.1602 132.2658
" />
<path d="M149.1602 132.2658
L149.3507 132.3611
" />
<path d="M149.3507 132.3611
L149.4459 132.5515
" />
<path d="M149.4459 132.5515
L149.4459 132.7420
" />
<path d="M149.4459 132.7420
L148.4935 132.9325
" />
<path d="M150.2078 133.5039
L150.3983 133.5992
" />
<path d="M150.3983 133.5992
L150.7792 133.5992
" />
<path d="M150.7792 133.5992
L150.9697 133.5039
" />
<path d="M150.9697 133.5039
L151.0649 133.3134
" />
<path d="M151.0649 133.3134
L151.0649 133.2182
" />
<path d="M151.0649 133.2182
L150.9697 133.0277
" />
<path d="M150.9697 133.0277
L150.7792 132.9325
" />
<path d="M150.7792 132.9325
L150.4935 132.9325
" />
<path d="M150.4935 132.9325
L150.3030 132.8373
" />
<path d="M150.3030 132.8373
L150.2078 132.6468
" />
<path d="M150.2078 132.6468
L150.2078 132.5515
" />
<path d="M150.2078 132.5515
L150.3030 132.3611
" />
<path d="M150.3030 132.3611
L150.4935 132.2658
" />
<path d="M150.4935 132.2658
L150.7792 132.2658
" />
<path d="M150.7792 132.2658
L150.9697 132.3611
" />
<path d="M151.7316 134.3611
L151.8268 134.2658
" />
<path d="M151.8268 134.2658
L152.0173 133.9801
" />
<path d="M152.0173 133.9801
L152.1126 133.7896
" />
<path d="M152.1126 133.7896
L152.2078 133.5039
" />
<path d="M152.2078 133.5039
L152.3030 133.0277
" />
<path d="M152.3030 133.0277
L152.3030 132.6468
" />
<path d="M152.3030 132.6468
L152.2078 132.1706
" />
<path d="M152.2078 132.1706
L152.1126 131.8849
" />
<path d="M152.1126 131.8849
L152.0173 131.6944
" />
<path d="M152.0173 131.6944
L151.8268 131.4087
" />
<path d="M151.8268 131.4087
L151.7316 131.3134
" />
</g><path style="fill:none; 
stroke:#000000; stroke-width:0.2000; stroke-opacity:1; 
stroke-linecap:round; stroke-linejoin:round;fill:none"
d="M 101.7833,136.2123
101.7833,134.7980
100.3691,134.7980
100.3691,136.2123
Z" /> 
</g>
<g style="fill:none; 
stroke:#000000; stroke-width:0.2000; stroke-opacity:1; 
stroke-linecap:round; stroke-linejoin:round;">
<text x="104.0762" y="136.5051"
textLength="45.2476" font-size="2.6667" lengthAdjust="spacingAndGlyphs"
text-anchor="start" opacity="0" stroke-opacity="0">3.200mm / 0.1260" (1 hole)</text>
<g class="stroked-text"><desc>3.200mm / 0.1260" (1 hole)</desc>
<path d="M104.4935 134.4200
L105.7316 134.4200
" />
<path d="M105.7316 134.4200
L105.0649 135.1819
" />
<path d="M105.0649 135.1819
L105.3507 135.1819
" />
<path d="M105.3507 135.1819
L105.5411 135.2771
" />
<path d="M105.5411 135.2771
L105.6364 135.3724
" />
<path d="M105.6364 135.3724
L105.7316 135.5628
" />
<path d="M105.7316 135.5628
L105.7316 136.0390
" />
<path d="M105.7316 136.0390
L105.6364 136.2295
" />
<path d="M105.6364 136.2295
L105.5411 136.3247
" />
<path d="M105.5411 136.3247
L105.3507 136.4200
" />
<path d="M105.3507 136.4200
L104.7792 136.4200
" />
<path d="M104.7792 136.4200
L104.5887 136.3247
" />
<path d="M104.5887 136.3247
L104.4935 136.2295
" />
<path d="M106.5887 136.2295
L106.6840 136.3247
" />
<path d="M106.6840 136.3247
L106.5887 136.4200
" />
<path d="M106.5887 136.4200
L106.4935 136.3247
" />
<path d="M106.4935 136.3247
L106.5887 136.2295
" />
<path d="M106.5887 136.2295
L106.5887 136.4200
" />
<path d="M107.4459 134.6105
L107.5411 134.5152
" />
<path d="M107.5411 134.5152
L107.7316 134.4200
" />
<path d="M107.7316 134.4200
L108.2078 134.4200
" />
<path d="M108.2078 134.4200
L108.3983 134.5152
" />
<path d="M108.3983 134.5152
L108.4935 134.6105
" />
<path d="M108.4935 134.6105
L108.5887 134.8009
" />
<path d="M108.5887 134.8009
L108.5887 134.9914
" />
<path d="M108.5887 134.9914
L108.4935 135.2771
" />
<path d="M108.4935 135.2771
L107.3507 136.4200
" />
<path d="M107.3507 136.4200
L108.5887 136.4200
" />
<path d="M109.8268 134.4200
L110.0173 134.4200
" />
<path d="M110.0173 134.4200
L110.2078 134.5152
" />
<path d="M110.2078 134.5152
L110.3030 134.6105
" />
<path d="M110.3030 134.6105
L110.3983 134.8009
" />
<path d="M110.3983 134.8009
L110.4935 135.1819
" />
<path d="M110.4935 135.1819
L110.4935 135.6581
" />
<path d="M110.4935 135.6581
L110.3983 136.0390
" />
<path d="M110.3983 136.0390
L110.3030 136.2295
" />
<path d="M110.3030 136.2295
L110.2078 136.3247
" />
<path d="M110.2078 136.3247
L110.0173 136.4200
" />
<path d="M110.0173 136.4200
L109.8268 136.4200
" />
<path d="M109.8268 136.4200
L109.6364 136.3247
" />
<path d="M109.6364 136.3247
L109.5411 136.2295
" />
<path d="M109.5411 136.2295
L109.4459 136.0390
" />
<path d="M109.4459 136.0390
L109.3507 135.6581
" />
<path d="M109.3507 135.6581
L109.3507 135.1819
" />
<path d="M109.3507 135.1819
L109.4459 134.8009
" />
<path d="M109.4459 134.8009
L109.5411 134.6105
" />
<path d="M109.5411 134.6105
L109.6364 134.5152
" />
<path d="M109.6364 134.5152
L109.8268 134.4200
" />
<path d="M111.7316 134.4200
L111.9221 134.4200
" />
<path d="M111.9221 134.4200
L112.1126 134.5152
" />
<path d="M112.1126 134.5152
L112.2078 134.6105
" />
<path d="M112.2078 134.6105
L112.3030 134.8009
" />
<path d="M112.3030 134.8009
L112.3983 135.1819
" />
<path d="M112.3983 135.1819
L112.3983 135.6581
" />
<path d="M112.3983 135.6581
L112.3030 136.0390
" />
<path d="M112.3030 136.0390
L112.2078 136.2295
" />
<path d="M112.2078 136.2295
L112.1126 136.3247
" />
<path d="M112.1126 136.3247
L111.9221 136.4200
" />
<path d="M111.9221 136.4200
L111.7316 136.4200
" />
<path d="M111.7316 136.4200
L111.5411 136.3247
" />
<path d="M111.5411 136.3247
L111.4459 136.2295
" />
<path d="M111.4459 136.2295
L111.3507 136.0390
" />
<path d="M111.3507 136.0390
L111.2554 135.6581
" />
<path d="M111.2554 135.6581
L111.2554 135.1819
" />
<path d="M111.2554 135.1819
L111.3507 134.8009
" />
<path d="M111.3507 134.8009
L111.4459 134.6105
" />
<path d="M111.4459 134.6105
L111.5411 134.5152
" />
<path d="M111.5411 134.5152
L111.7316 134.4200
" />
<path d="M113.2554 136.4200
L113.2554 135.0866
" />
<path d="M113.2554 135.2771
L113.3507 135.1819
" />
<path d="M113.3507 135.1819
L113.5411 135.0866
" />
<path d="M113.5411 135.0866
L113.8268 135.0866
" />
<path d="M113.8268 135.0866
L114.0173 135.1819
" />
<path d="M114.0173 135.1819
L114.1126 135.3724
" />
<path d="M114.1126 135.3724
L114.1126 136.4200
" />
<path d="M114.1126 135.3724
L114.2078 135.1819
" />
<path d="M114.2078 135.1819
L114.3983 135.0866
" />
<path d="M114.3983 135.0866
L114.6840 135.0866
" />
<path d="M114.6840 135.0866
L114.8745 135.1819
" />
<path d="M114.8745 135.1819
L114.9697 135.3724
" />
<path d="M114.9697 135.3724
L114.9697 136.4200
" />
<path d="M115.9221 136.4200
L115.9221 135.0866
" />
<path d="M115.9221 135.2771
L116.0173 135.1819
" />
<path d="M116.0173 135.1819
L116.2078 135.0866
" />
<path d="M116.2078 135.0866
L116.4935 135.0866
" />
<path d="M116.4935 135.0866
L116.6840 135.1819
" />
<path d="M116.6840 135.1819
L116.7792 135.3724
" />
<path d="M116.7792 135.3724
L116.7792 136.4200
" />
<path d="M116.7792 135.3724
L116.8745 135.1819
" />
<path d="M116.8745 135.1819
L117.0649 135.0866
" />
<path d="M117.0649 135.0866
L117.3507 135.0866
" />
<path d="M117.3507 135.0866
L117.5411 135.1819
" />
<path d="M117.5411 135.1819
L117.6364 135.3724
" />
<path d="M117.6364 135.3724
L117.6364 136.4200
" />
<path d="M121.5411 134.3247
L119.8268 136.8962
" />
<path d="M124.1126 134.4200
L124.3030 134.4200
" />
<path d="M124.3030 134.4200
L124.4935 134.5152
" />
<path d="M124.4935 134.5152
L124.5887 134.6105
" />
<path d="M124.5887 134.6105
L124.6840 134.8009
" />
<path d="M124.6840 134.8009
L124.7792 135.1819
" />
<path d="M124.7792 135.1819
L124.7792 135.6581
" />
<path d="M124.7792 135.6581
L124.6840 136.0390
" />
<path d="M124.6840 136.0390
L124.5887 136.2295
" />
<path d="M124.5887 136.2295
L124.4935 136.3247
" />
<path d="M124.4935 136.3247
L124.3030 136.4200
" />
<path d="M124.3030 136.4200
L124.1126 136.4200
" />
<path d="M124.1126 136.4200
L123.9221 136.3247
" />
<path d="M123.9221 136.3247
L123.8268 136.2295
" />
<path d="M123.8268 136.2295
L123.7316 136.0390
" />
<path d="M123.7316 136.0390
L123.6364 135.6581
" />
<path d="M123.6364 135.6581
L123.6364 135.1819
" />
<path d="M123.6364 135.1819
L123.7316 134.8009
" />
<path d="M123.7316 134.8009
L123.8268 134.6105
" />
<path d="M123.8268 134.6105
L123.9221 134.5152
" />
<path d="M123.9221 134.5152
L124.1126 134.4200
" />
<path d="M125.6364 136.2295
L125.7316 136.3247
" />
<path d="M125.7316 136.3247
L125.6364 136.4200
" />
<path d="M125.6364 136.4200
L125.5411 136.3247
" />
<path d="M125.5411 136.3247
L125.6364 136.2295
" />
<path d="M125.6364 136.2295
L125.6364 136.4200
" />
<path d="M127.6364 136.4200
L126.4935 136.4200
" />
<path d="M127.0649 136.4200
L127.0649 134.4200
" />
<path d="M127.0649 134.4200
L126.8745 134.7057
" />
<path d="M126.8745 134.7057
L126.6840 134.8962
" />
<path d="M126.6840 134.8962
L126.4935 134.9914
" />
<path d="M128.3983 134.6105
L128.4935 134.5152
" />
<path d="M128.4935 134.5152
L128.6840 134.4200
" />
<path d="M128.6840 134.4200
L129.1602 134.4200
" />
<path d="M129.1602 134.4200
L129.3507 134.5152
" />
<path d="M129.3507 134.5152
L129.4459 134.6105
" />
<path d="M129.4459 134.6105
L129.5411 134.8009
" />
<path d="M129.5411 134.8009
L129.5411 134.9914
" />
<path d="M129.5411 134.9914
L129.4459 135.2771
" />
<path d="M129.4459 135.2771
L128.3030 136.4200
" />
<path d="M128.3030 136.4200
L129.5411 136.4200
" />
<path d="M131.2554 134.4200
L130.8745 134.4200
" />
<path d="M130.8745 134.4200
L130.6840 134.5152
" />
<path d="M130.6840 134.5152
L130.5888 134.6105
" />
<path d="M130.5888 134.6105
L130.3983 134.8962
" />
<path d="M130.3983 134.8962
L130.3030 135.2771
" />
<path d="M130.3030 135.2771
L130.3030 136.0390
" />
<path d="M130.3030 136.0390
L130.3983 136.2295
" />
<path d="M130.3983 136.2295
L130.4935 136.3247
" />
<path d="M130.4935 136.3247
L130.6840 136.4200
" />
<path d="M130.6840 136.4200
L131.0649 136.4200
" />
<path d="M131.0649 136.4200
L131.2554 136.3247
" />
<path d="M131.2554 136.3247
L131.3507 136.2295
" />
<path d="M131.3507 136.2295
L131.4459 136.0390
" />
<path d="M131.4459 136.0390
L131.4459 135.5628
" />
<path d="M131.4459 135.5628
L131.3507 135.3724
" />
<path d="M131.3507 135.3724
L131.2554 135.2771
" />
<path d="M131.2554 135.2771
L131.0649 135.1819
" />
<path d="M131.0649 135.1819
L130.6840 135.1819
" />
<path d="M130.6840 135.1819
L130.4935 135.2771
" />
<path d="M130.4935 135.2771
L130.3983 135.3724
" />
<path d="M130.3983 135.3724
L130.3030 135.5628
" />
<path d="M132.6840 134.4200
L132.8745 134.4200
" />
<path d="M132.8745 134.4200
L133.0649 134.5152
" />
<path d="M133.0649 134.5152
L133.1602 134.6105
" />
<path d="M133.1602 134.6105
L133.2554 134.8009
" />
<path d="M133.2554 134.8009
L133.3507 135.1819
" />
<path d="M133.3507 135.1819
L133.3507 135.6581
" />
<path d="M133.3507 135.6581
L133.2554 136.0390
" />
<path d="M133.2554 136.0390
L133.1602 136.2295
" />
<path d="M133.1602 136.2295
L133.0649 136.3247
" />
<path d="M133.0649 136.3247
L132.8745 136.4200
" />
<path d="M132.8745 136.4200
L132.6840 136.4200
" />
<path d="M132.6840 136.4200
L132.4935 136.3247
" />
<path d="M132.4935 136.3247
L132.3983 136.2295
" />
<path d="M132.3983 136.2295
L132.3030 136.0390
" />
<path d="M132.3030 136.0390
L132.2078 135.6581
" />
<path d="M132.2078 135.6581
L132.2078 135.1819
" />
<path d="M132.2078 135.1819
L132.3030 134.8009
" />
<path d="M132.3030 134.8009
L132.3983 134.6105
" />
<path d="M132.3983 134.6105
L132.4935 134.5152
" />
<path d="M132.4935 134.5152
L132.6840 134.4200
" />
<path d="M134.1126 134.4200
L134.1126 134.8009
" />
<path d="M134.8745 134.4200
L134.8745 134.8009
" />
<path d="M137.8268 137.1819
L137.7316 137.0866
" />
<path d="M137.7316 137.0866
L137.5411 136.8009
" />
<path d="M137.5411 136.8009
L137.4459 136.6105
" />
<path d="M137.4459 136.6105
L137.3507 136.3247
" />
<path d="M137.3507 136.3247
L137.2554 135.8485
" />
<path d="M137.2554 135.8485
L137.2554 135.4676
" />
<path d="M137.2554 135.4676
L137.3507 134.9914
" />
<path d="M137.3507 134.9914
L137.4459 134.7057
" />
<path d="M137.4459 134.7057
L137.5411 134.5152
" />
<path d="M137.5411 134.5152
L137.7316 134.2295
" />
<path d="M137.7316 134.2295
L137.8268 134.1343
" />
<path d="M139.6364 136.4200
L138.4935 136.4200
" />
<path d="M139.0649 136.4200
L139.0649 134.4200
" />
<path d="M139.0649 134.4200
L138.8745 134.7057
" />
<path d="M138.8745 134.7057
L138.6840 134.8962
" />
<path d="M138.6840 134.8962
L138.4935 134.9914
" />
<path d="M142.0173 136.4200
L142.0173 134.4200
" />
<path d="M142.8745 136.4200
L142.8745 135.3724
" />
<path d="M142.8745 135.3724
L142.7792 135.1819
" />
<path d="M142.7792 135.1819
L142.5887 135.0866
" />
<path d="M142.5887 135.0866
L142.3030 135.0866
" />
<path d="M142.3030 135.0866
L142.1126 135.1819
" />
<path d="M142.1126 135.1819
L142.0173 135.2771
" />
<path d="M144.1126 136.4200
L143.9221 136.3247
" />
<path d="M143.9221 136.3247
L143.8268 136.2295
" />
<path d="M143.8268 136.2295
L143.7316 136.0390
" />
<path d="M143.7316 136.0390
L143.7316 135.4676
" />
<path d="M143.7316 135.4676
L143.8268 135.2771
" />
<path d="M143.8268 135.2771
L143.9221 135.1819
" />
<path d="M143.9221 135.1819
L144.1126 135.0866
" />
<path d="M144.1126 135.0866
L144.3983 135.0866
" />
<path d="M144.3983 135.0866
L144.5887 135.1819
" />
<path d="M144.5887 135.1819
L144.6840 135.2771
" />
<path d="M144.6840 135.2771
L144.7792 135.4676
" />
<path d="M144.7792 135.4676
L144.7792 136.0390
" />
<path d="M144.7792 136.0390
L144.6840 136.2295
" />
<path d="M144.6840 136.2295
L144.5887 136.3247
" />
<path d="M144.5887 136.3247
L144.3983 136.4200
" />
<path d="M144.3983 136.4200
L144.1126 136.4200
" />
<path d="M145.9221 136.4200
L145.7316 136.3247
" />
<path d="M145.7316 136.3247
L145.6364 136.1343
" />
<path d="M145.6364 136.1343
L145.6364 134.4200
" />
<path d="M147.4459 136.3247
L147.2554 136.4200
" />
<path d="M147.2554 136.4200
L146.8745 136.4200
" />
<path d="M146.8745 136.4200
L146.6840 136.3247
" />
<path d="M146.6840 136.3247
L146.5887 136.1343
" />
<path d="M146.5887 136.1343
L146.5887 135.3724
" />
<path d="M146.5887 135.3724
L146.6840 135.1819
" />
<path d="M146.6840 135.1819
L146.8745 135.0866
" />
<path d="M146.8745 135.0866
L147.2554 135.0866
" />
<path d="M147.2554 135.0866
L147.4459 135.1819
" />
<path d="M147.4459 135.1819
L147.5411 135.3724
" />
<path d="M147.5411 135.3724
L147.5411 135.5628
" />
<path d="M147.5411 135.5628
L146.5887 135.7533
" />
<path d="M148.2078 137.1819
L148.3030 137.0866
" />
<path d="M148.3030 137.0866
L148.4935 136.8009
" />
<path d="M148.4935 136.8009
L148.5887 136.6105
" />
<path d="M148.5887 136.6105
L148.6840 136.3247
" />
<path d="M148.6840 136.3247
L148.7792 135.8485
" />
<path d="M148.7792 135.8485
L148.7792 135.4676
" />
<path d="M148.7792 135.4676
L148.6840 134.9914
" />
<path d="M148.6840 134.9914
L148.5887 134.7057
" />
<path d="M148.5887 134.7057
L148.4935 134.5152
" />
<path d="M148.4935 134.5152
L148.3030 134.2295
" />
<path d="M148.3030 134.2295
L148.2078 134.1343
" />
</g></g> 
</svg>
