%TF.GenerationSoftware,KiCad,Pcbnew,9.0.6*%
%TF.CreationDate,2026-01-31T11:45:49+03:00*%
%TF.ProjectId,PMCNV-RQx8,504d434e-562d-4525-9178-382e6b696361,rev?*%
%TF.SameCoordinates,Original*%
%TF.FileFunction,Soldermask,Top*%
%TF.FilePolarity,Negative*%
%FSLAX46Y46*%
G04 Gerber Fmt 4.6, Leading zero omitted, Abs format (unit mm)*
G04 Created by KiCad (PCBNEW 9.0.6) date 2026-01-31 11:45:49*
%MOMM*%
%LPD*%
G01*
G04 APERTURE LIST*
G04 Aperture macros list*
%AMRoundRect*
0 Rectangle with rounded corners*
0 $1 Rounding radius*
0 $2 $3 $4 $5 $6 $7 $8 $9 X,Y pos of 4 corners*
0 Add a 4 corners polygon primitive as box body*
4,1,4,$2,$3,$4,$5,$6,$7,$8,$9,$2,$3,0*
0 Add four circle primitives for the rounded corners*
1,1,$1+$1,$2,$3*
1,1,$1+$1,$4,$5*
1,1,$1+$1,$6,$7*
1,1,$1+$1,$8,$9*
0 Add four rect primitives between the rounded corners*
20,1,$1+$1,$2,$3,$4,$5,0*
20,1,$1+$1,$4,$5,$6,$7,0*
20,1,$1+$1,$6,$7,$8,$9,0*
20,1,$1+$1,$8,$9,$2,$3,0*%
G04 Aperture macros list end*
%ADD10RoundRect,0.104000X-0.781000X-0.156000X0.781000X-0.156000X0.781000X0.156000X-0.781000X0.156000X0*%
%ADD11RoundRect,0.101250X-0.708750X-0.908750X0.708750X-0.908750X0.708750X0.908750X-0.708750X0.908750X0*%
%ADD12RoundRect,0.250000X0.650000X-0.325000X0.650000X0.325000X-0.650000X0.325000X-0.650000X-0.325000X0*%
%ADD13RoundRect,0.225000X0.250000X-0.225000X0.250000X0.225000X-0.250000X0.225000X-0.250000X-0.225000X0*%
%ADD14C,1.812000*%
%ADD15R,0.450800X1.716000*%
%ADD16C,2.220000*%
%ADD17R,0.431800X1.655601*%
%ADD18C,4.400000*%
%ADD19C,2.200000*%
%ADD20C,8.620000*%
%ADD21C,1.700000*%
%ADD22RoundRect,0.225000X-0.250000X0.225000X-0.250000X-0.225000X0.250000X-0.225000X0.250000X0.225000X0*%
%ADD23RoundRect,0.249999X-1.450001X0.450001X-1.450001X-0.450001X1.450001X-0.450001X1.450001X0.450001X0*%
%ADD24R,1.800000X0.600000*%
%ADD25R,3.000000X2.600000*%
%ADD26C,4.420000*%
G04 APERTURE END LIST*
%TO.C,JP10*%
G36*
X-37750000Y-26800000D02*
G01*
X-36250000Y-26800000D01*
X-36250000Y-23200000D01*
X-37750000Y-23200000D01*
X-37750000Y-26800000D01*
G37*
%TD*%
D10*
%TO.C,J3*%
X-11875000Y-24500000D03*
X-8125000Y-25500000D03*
X-11875000Y-26500000D03*
X-8125000Y-27500000D03*
X-11875000Y-28500000D03*
X-8125000Y-29500000D03*
X-11875000Y-30500000D03*
X-8125000Y-31500000D03*
X-11875000Y-32500000D03*
X-8125000Y-33500000D03*
X-11875000Y-34500000D03*
X-8125000Y-35500000D03*
D11*
X-10000000Y-22100000D03*
X-10000000Y-37900000D03*
%TD*%
D12*
%TO.C,C10*%
X10000000Y-35475000D03*
X10000000Y-32525000D03*
%TD*%
D13*
%TO.C,C2*%
X-28000000Y-4275000D03*
X-28000000Y-2725000D03*
%TD*%
D14*
%TO.C,K4*%
X-10000000Y12800000D03*
X1500000Y12800000D03*
X8500000Y12800000D03*
X-10000000Y17500000D03*
%TD*%
D15*
%TO.C,U2*%
X-20920000Y-20149202D03*
X-22190000Y-20149202D03*
X-23460000Y-20149202D03*
X-24730000Y-20149202D03*
X-26000000Y-20149202D03*
X-27270000Y-20149202D03*
X-28540000Y-20149202D03*
X-29810000Y-20149202D03*
X-31080000Y-20149202D03*
X-31080000Y-29850798D03*
X-29810000Y-29850798D03*
X-28540000Y-29850798D03*
X-27270000Y-29850798D03*
X-26000000Y-29850798D03*
X-24730000Y-29850798D03*
X-23460000Y-29850798D03*
X-22190000Y-29850798D03*
X-20920000Y-29850798D03*
%TD*%
D16*
%TO.C,J4*%
X35000000Y-27000000D03*
X35000000Y-23500000D03*
X35000000Y-20000000D03*
X35000000Y-16500000D03*
X35000000Y-13000000D03*
X35000000Y-9500000D03*
X35000000Y-6000000D03*
X35000000Y-2500000D03*
%TD*%
D17*
%TO.C,U6*%
X-22775000Y-7372199D03*
X-23425001Y-7372199D03*
X-24075000Y-7372199D03*
X-24725001Y-7372199D03*
X-25374999Y-7372199D03*
X-26025001Y-7372199D03*
X-26674999Y-7372199D03*
X-27324998Y-7372199D03*
X-27974999Y-7372199D03*
X-28624998Y-7372199D03*
X-29274999Y-7372199D03*
X-29924998Y-7372199D03*
X-30574999Y-7372199D03*
X-31224998Y-7372199D03*
X-31225000Y-14627801D03*
X-30574999Y-14627801D03*
X-29925000Y-14627801D03*
X-29274999Y-14627801D03*
X-28625001Y-14627801D03*
X-27974999Y-14627801D03*
X-27325001Y-14627801D03*
X-26674999Y-14627801D03*
X-26025001Y-14627801D03*
X-25374999Y-14627801D03*
X-24725001Y-14627801D03*
X-24075000Y-14627801D03*
X-23425001Y-14627801D03*
X-22775000Y-14627801D03*
%TD*%
D14*
%TO.C,K5*%
X-10000000Y5300000D03*
X1500000Y5300000D03*
X8500000Y5300000D03*
X-10000000Y10000000D03*
%TD*%
D18*
%TO.C,U4*%
X-37000000Y37000000D03*
X-37000000Y-37000000D03*
X-9000000Y45000000D03*
X-9000000Y-45000000D03*
%TD*%
D14*
%TO.C,K6*%
X-10000000Y-2200000D03*
X1500000Y-2200000D03*
X8500000Y-2200000D03*
X-10000000Y2500000D03*
%TD*%
%TO.C,K8*%
X-10000000Y-17200000D03*
X1500000Y-17200000D03*
X8500000Y-17200000D03*
X-10000000Y-12500000D03*
%TD*%
%TO.C,K1*%
X-10000000Y35300000D03*
X1500000Y35300000D03*
X8500000Y35300000D03*
X-10000000Y40000000D03*
%TD*%
D19*
%TO.C,J6*%
X35000000Y-39000000D03*
X35000000Y-35500000D03*
X35000000Y-32000000D03*
%TD*%
D20*
%TO.C,H2*%
X22000000Y45000000D03*
%TD*%
%TO.C,H3*%
X22000000Y-45000000D03*
%TD*%
D14*
%TO.C,K7*%
X-10000000Y-9700000D03*
X1500000Y-9700000D03*
X8500000Y-9700000D03*
X-10000000Y-5000000D03*
%TD*%
D21*
%TO.C,PS1*%
X5000000Y-23385000D03*
X5000000Y-25925000D03*
X5000000Y-31005000D03*
X5000000Y-36085000D03*
%TD*%
D22*
%TO.C,C7*%
X10000000Y-24225000D03*
X10000000Y-25775000D03*
%TD*%
D14*
%TO.C,K3*%
X-10000000Y20300000D03*
X1500000Y20300000D03*
X8500000Y20300000D03*
X-10000000Y25000000D03*
%TD*%
%TO.C,K2*%
X-10000000Y27800000D03*
X1500000Y27800000D03*
X8500000Y27800000D03*
X-10000000Y32500000D03*
%TD*%
D23*
%TO.C,C3*%
X-23000000Y44050000D03*
X-23000000Y39950000D03*
%TD*%
D20*
%TO.C,H1*%
X-35000000Y45000000D03*
%TD*%
%TO.C,H4*%
X-35000000Y-45000000D03*
%TD*%
D24*
%TO.C,JM1*%
X-36546000Y5500000D03*
X-36546000Y6500000D03*
X-36546000Y7500000D03*
X-36546000Y8500000D03*
X-36546000Y9500000D03*
X-36546000Y10500000D03*
X-36546000Y11500000D03*
X-36546000Y12500000D03*
X-36546000Y13500000D03*
X-36546000Y14500000D03*
X-36546000Y15500000D03*
X-36546000Y16500000D03*
X-36546000Y17500000D03*
X-36546000Y18500000D03*
X-36546000Y19500000D03*
X-36546000Y20500000D03*
X-36546000Y21500000D03*
X-36546000Y22500000D03*
X-36546000Y23500000D03*
X-36546000Y24500000D03*
D25*
X-34375000Y3150000D03*
X-34375000Y26850000D03*
%TD*%
D16*
%TO.C,J2*%
X35000000Y2500000D03*
X35000000Y6000000D03*
X35000000Y9500000D03*
X35000000Y13000000D03*
X35000000Y16500000D03*
X35000000Y20000000D03*
X35000000Y23500000D03*
X35000000Y27000000D03*
%TD*%
D26*
%TO.C,U3*%
X13000000Y45000000D03*
X13000000Y-45000000D03*
X37000000Y45000000D03*
X37000000Y-45000000D03*
%TD*%
M02*
