%TF.GenerationSoftware,KiCad,Pcbnew,9.0.2*%
%TF.CreationDate,2025-06-28T19:47:58+03:00*%
%TF.ProjectId,PMCNV-RQ8,504d434e-562d-4525-9138-2e6b69636164,rev?*%
%TF.SameCoordinates,Original*%
%TF.FileFunction,Legend,Top*%
%TF.FilePolarity,Positive*%
%FSLAX46Y46*%
G04 Gerber Fmt 4.6, Leading zero omitted, Abs format (unit mm)*
G04 Created by KiCad (PCBNEW 9.0.2) date 2025-06-28 19:47:58*
%MOMM*%
%LPD*%
G01*
G04 APERTURE LIST*
%ADD10C,0.200000*%
%ADD11C,0.254000*%
%ADD12C,0.150000*%
%ADD13C,0.100000*%
%ADD14C,0.152400*%
%ADD15C,0.000000*%
%ADD16C,0.120000*%
G04 APERTURE END LIST*
D10*
G36*
X-13735782Y39035976D02*
G01*
X-13664873Y39000522D01*
X-13597803Y38933452D01*
X-13562781Y38828387D01*
X-13562781Y38706518D01*
X-14362781Y38706518D01*
X-14362781Y38828386D01*
X-14327760Y38933451D01*
X-14260687Y39000523D01*
X-14189782Y39035976D01*
X-14021901Y39077946D01*
X-13903663Y39077946D01*
X-13735782Y39035976D01*
G37*
G36*
X-13251670Y36681121D02*
G01*
X-14673892Y36681121D01*
X-14673892Y36911741D01*
X-14560860Y36911741D01*
X-14560860Y36872723D01*
X-14545928Y36836675D01*
X-14518338Y36809085D01*
X-14482290Y36794153D01*
X-14462781Y36792232D01*
X-13462781Y36792232D01*
X-13443272Y36794153D01*
X-13407224Y36809085D01*
X-13379634Y36836675D01*
X-13364702Y36872723D01*
X-13362781Y36892232D01*
X-13362781Y37368422D01*
X-13364702Y37387931D01*
X-13379634Y37423979D01*
X-13407224Y37451569D01*
X-13443272Y37466501D01*
X-13482290Y37466501D01*
X-13518338Y37451569D01*
X-13545928Y37423979D01*
X-13560860Y37387931D01*
X-13562781Y37368422D01*
X-13562781Y36992232D01*
X-14462781Y36992232D01*
X-14482290Y36990311D01*
X-14518338Y36975379D01*
X-14545928Y36947789D01*
X-14560860Y36911741D01*
X-14673892Y36911741D01*
X-14673892Y38177946D01*
X-14562781Y38177946D01*
X-14562781Y37701756D01*
X-14560860Y37682247D01*
X-14545928Y37646199D01*
X-14518338Y37618609D01*
X-14482290Y37603677D01*
X-14462781Y37601756D01*
X-13462781Y37601756D01*
X-13443272Y37603677D01*
X-13407224Y37618609D01*
X-13379634Y37646199D01*
X-13364702Y37682247D01*
X-13362781Y37701756D01*
X-13362781Y38177946D01*
X-13364702Y38197455D01*
X-13379634Y38233503D01*
X-13407224Y38261093D01*
X-13443272Y38276025D01*
X-13482290Y38276025D01*
X-13518338Y38261093D01*
X-13545928Y38233503D01*
X-13560860Y38197455D01*
X-13562781Y38177946D01*
X-13562781Y37801756D01*
X-13886591Y37801756D01*
X-13886591Y38035089D01*
X-13888512Y38054598D01*
X-13903444Y38090646D01*
X-13931034Y38118236D01*
X-13967082Y38133168D01*
X-14006100Y38133168D01*
X-14042148Y38118236D01*
X-14069738Y38090646D01*
X-14084670Y38054598D01*
X-14086591Y38035089D01*
X-14086591Y37801756D01*
X-14362781Y37801756D01*
X-14362781Y38177946D01*
X-14364702Y38197455D01*
X-14379634Y38233503D01*
X-14407224Y38261093D01*
X-14443272Y38276025D01*
X-14482290Y38276025D01*
X-14518338Y38261093D01*
X-14545928Y38233503D01*
X-14560860Y38197455D01*
X-14562781Y38177946D01*
X-14673892Y38177946D01*
X-14673892Y38844613D01*
X-14562781Y38844613D01*
X-14562781Y38606518D01*
X-14560860Y38587009D01*
X-14545928Y38550961D01*
X-14518338Y38523371D01*
X-14482290Y38508439D01*
X-14462781Y38506518D01*
X-13462781Y38506518D01*
X-13443272Y38508439D01*
X-13407224Y38523371D01*
X-13379634Y38550961D01*
X-13364702Y38587009D01*
X-13362781Y38606518D01*
X-13362781Y38844613D01*
X-13363754Y38854487D01*
X-13363566Y38857121D01*
X-13364354Y38860585D01*
X-13364702Y38864122D01*
X-13365714Y38866564D01*
X-13367913Y38876236D01*
X-13415532Y39019093D01*
X-13423523Y39036993D01*
X-13425878Y39039709D01*
X-13427253Y39043028D01*
X-13439689Y39058181D01*
X-13534929Y39153419D01*
X-13542599Y39159714D01*
X-13544328Y39161708D01*
X-13547333Y39163600D01*
X-13550082Y39165856D01*
X-13552526Y39166869D01*
X-13560918Y39172151D01*
X-13656156Y39219770D01*
X-13657583Y39220316D01*
X-13658163Y39220746D01*
X-13666340Y39223668D01*
X-13674464Y39226776D01*
X-13675187Y39226828D01*
X-13676624Y39227341D01*
X-13867099Y39274960D01*
X-13870481Y39275461D01*
X-13871844Y39276025D01*
X-13879195Y39276749D01*
X-13886492Y39277828D01*
X-13887951Y39277611D01*
X-13891353Y39277946D01*
X-14034210Y39277946D01*
X-14037613Y39277611D01*
X-14039071Y39277828D01*
X-14046369Y39276749D01*
X-14053719Y39276025D01*
X-14055083Y39275461D01*
X-14058464Y39274960D01*
X-14248940Y39227341D01*
X-14250379Y39226828D01*
X-14251099Y39226776D01*
X-14259224Y39223668D01*
X-14267400Y39220746D01*
X-14267980Y39220317D01*
X-14269408Y39219770D01*
X-14364645Y39172151D01*
X-14373044Y39166865D01*
X-14375481Y39165855D01*
X-14378225Y39163604D01*
X-14381236Y39161708D01*
X-14382969Y39159711D01*
X-14390635Y39153419D01*
X-14485873Y39058181D01*
X-14498309Y39043027D01*
X-14499684Y39039709D01*
X-14502039Y39036993D01*
X-14510030Y39019092D01*
X-14557649Y38876236D01*
X-14559849Y38866565D01*
X-14560860Y38864122D01*
X-14561209Y38860584D01*
X-14561996Y38857120D01*
X-14561809Y38854487D01*
X-14562781Y38844613D01*
X-14673892Y38844613D01*
X-14673892Y39389057D01*
X-13251670Y39389057D01*
X-13251670Y36681121D01*
G37*
G36*
X21702668Y-41582024D02*
G01*
X21727337Y-41606692D01*
X21757142Y-41666302D01*
X21757142Y-41761945D01*
X21727337Y-41821554D01*
X21702668Y-41846222D01*
X21643059Y-41876028D01*
X21385714Y-41876028D01*
X21385714Y-41552219D01*
X21643059Y-41552219D01*
X21702668Y-41582024D01*
G37*
G36*
X22971094Y-42663330D02*
G01*
X21074603Y-42663330D01*
X21074603Y-41452219D01*
X21185714Y-41452219D01*
X21185714Y-42452219D01*
X21187635Y-42471728D01*
X21202567Y-42507776D01*
X21230157Y-42535366D01*
X21266205Y-42550298D01*
X21305223Y-42550298D01*
X21341271Y-42535366D01*
X21368861Y-42507776D01*
X21383793Y-42471728D01*
X21385714Y-42452219D01*
X21385714Y-42076028D01*
X21666666Y-42076028D01*
X21686175Y-42074107D01*
X21689495Y-42072731D01*
X21693079Y-42072477D01*
X21711387Y-42065471D01*
X21806625Y-42017852D01*
X21815021Y-42012566D01*
X21817461Y-42011556D01*
X21820207Y-42009302D01*
X21823215Y-42007409D01*
X21824944Y-42005414D01*
X21832615Y-41999120D01*
X21880233Y-41951501D01*
X21886525Y-41943834D01*
X21888523Y-41942102D01*
X21890416Y-41939093D01*
X21892670Y-41936348D01*
X21893680Y-41933907D01*
X21898966Y-41925511D01*
X21946585Y-41830274D01*
X21953591Y-41811965D01*
X21953845Y-41808381D01*
X21955221Y-41805061D01*
X21957142Y-41785552D01*
X21957142Y-41642695D01*
X21955221Y-41623186D01*
X21953845Y-41619865D01*
X21953591Y-41616282D01*
X21946585Y-41597973D01*
X21898966Y-41502736D01*
X21893680Y-41494339D01*
X21892670Y-41491899D01*
X21890416Y-41489153D01*
X21888523Y-41486145D01*
X21886525Y-41484412D01*
X21880233Y-41476746D01*
X21855707Y-41452219D01*
X22185714Y-41452219D01*
X22185714Y-42452219D01*
X22187635Y-42471728D01*
X22202567Y-42507776D01*
X22230157Y-42535366D01*
X22266205Y-42550298D01*
X22285714Y-42552219D01*
X22761904Y-42552219D01*
X22781413Y-42550298D01*
X22817461Y-42535366D01*
X22845051Y-42507776D01*
X22859983Y-42471728D01*
X22859983Y-42432710D01*
X22845051Y-42396662D01*
X22817461Y-42369072D01*
X22781413Y-42354140D01*
X22761904Y-42352219D01*
X22385714Y-42352219D01*
X22385714Y-42028409D01*
X22619047Y-42028409D01*
X22638556Y-42026488D01*
X22674604Y-42011556D01*
X22702194Y-41983966D01*
X22717126Y-41947918D01*
X22717126Y-41908900D01*
X22702194Y-41872852D01*
X22674604Y-41845262D01*
X22638556Y-41830330D01*
X22619047Y-41828409D01*
X22385714Y-41828409D01*
X22385714Y-41552219D01*
X22761904Y-41552219D01*
X22781413Y-41550298D01*
X22817461Y-41535366D01*
X22845051Y-41507776D01*
X22859983Y-41471728D01*
X22859983Y-41432710D01*
X22845051Y-41396662D01*
X22817461Y-41369072D01*
X22781413Y-41354140D01*
X22761904Y-41352219D01*
X22285714Y-41352219D01*
X22266205Y-41354140D01*
X22230157Y-41369072D01*
X22202567Y-41396662D01*
X22187635Y-41432710D01*
X22185714Y-41452219D01*
X21855707Y-41452219D01*
X21832615Y-41429127D01*
X21824944Y-41422832D01*
X21823215Y-41420838D01*
X21820207Y-41418944D01*
X21817461Y-41416691D01*
X21815021Y-41415680D01*
X21806625Y-41410395D01*
X21711387Y-41362776D01*
X21693079Y-41355770D01*
X21689495Y-41355515D01*
X21686175Y-41354140D01*
X21666666Y-41352219D01*
X21285714Y-41352219D01*
X21266205Y-41354140D01*
X21230157Y-41369072D01*
X21202567Y-41396662D01*
X21187635Y-41432710D01*
X21185714Y-41452219D01*
X21074603Y-41452219D01*
X21074603Y-41241108D01*
X22971094Y-41241108D01*
X22971094Y-42663330D01*
G37*
G36*
X-36251670Y30204931D02*
G01*
X-37673892Y30204931D01*
X-37673892Y31067525D01*
X-37561622Y31067525D01*
X-37560860Y31065430D01*
X-37560860Y31063199D01*
X-37554216Y31047158D01*
X-37548287Y31030856D01*
X-37546782Y31029213D01*
X-37545928Y31027151D01*
X-37533655Y31014878D01*
X-37521936Y31002081D01*
X-37519292Y31000515D01*
X-37518338Y30999561D01*
X-37516157Y30998658D01*
X-37505070Y30992090D01*
X-36984966Y30749375D01*
X-37505070Y30506660D01*
X-37516157Y30500093D01*
X-37518338Y30499189D01*
X-37519292Y30498236D01*
X-37521936Y30496669D01*
X-37533655Y30483873D01*
X-37545928Y30471599D01*
X-37546782Y30469538D01*
X-37548287Y30467894D01*
X-37554216Y30451593D01*
X-37560860Y30435551D01*
X-37560860Y30433321D01*
X-37561622Y30431225D01*
X-37560860Y30413886D01*
X-37560860Y30396533D01*
X-37560007Y30394474D01*
X-37559909Y30392245D01*
X-37552568Y30376515D01*
X-37545928Y30360485D01*
X-37544352Y30358909D01*
X-37543408Y30356887D01*
X-37530612Y30345169D01*
X-37518338Y30332895D01*
X-37516277Y30332042D01*
X-37514633Y30330536D01*
X-37498332Y30324608D01*
X-37482290Y30317963D01*
X-37479232Y30317662D01*
X-37477964Y30317201D01*
X-37475605Y30317305D01*
X-37462781Y30316042D01*
X-36462781Y30316042D01*
X-36443272Y30317963D01*
X-36407224Y30332895D01*
X-36379634Y30360485D01*
X-36364702Y30396533D01*
X-36364702Y30435551D01*
X-36379634Y30471599D01*
X-36407224Y30499189D01*
X-36443272Y30514121D01*
X-36462781Y30516042D01*
X-37012025Y30516042D01*
X-36706207Y30658757D01*
X-36699066Y30662988D01*
X-36696644Y30663868D01*
X-36694932Y30665437D01*
X-36689341Y30668748D01*
X-36679081Y30679953D01*
X-36667868Y30690220D01*
X-36665989Y30694248D01*
X-36662989Y30697523D01*
X-36657798Y30711799D01*
X-36651368Y30725577D01*
X-36651173Y30730018D01*
X-36649655Y30734192D01*
X-36650323Y30749375D01*
X-36649655Y30764558D01*
X-36651173Y30768733D01*
X-36651368Y30773173D01*
X-36657798Y30786952D01*
X-36662989Y30801227D01*
X-36665989Y30804503D01*
X-36667868Y30808530D01*
X-36679081Y30818798D01*
X-36689341Y30830002D01*
X-36694932Y30833314D01*
X-36696644Y30834882D01*
X-36699066Y30835763D01*
X-36706207Y30839993D01*
X-37012025Y30982708D01*
X-36462781Y30982708D01*
X-36443272Y30984629D01*
X-36407224Y30999561D01*
X-36379634Y31027151D01*
X-36364702Y31063199D01*
X-36364702Y31102217D01*
X-36379634Y31138265D01*
X-36407224Y31165855D01*
X-36443272Y31180787D01*
X-36462781Y31182708D01*
X-37462781Y31182708D01*
X-37475605Y31181446D01*
X-37477964Y31181549D01*
X-37479232Y31181089D01*
X-37482290Y31180787D01*
X-37498332Y31174143D01*
X-37514633Y31168214D01*
X-37516277Y31166709D01*
X-37518338Y31165855D01*
X-37530612Y31153582D01*
X-37543408Y31141863D01*
X-37544352Y31139842D01*
X-37545928Y31138265D01*
X-37552568Y31122236D01*
X-37559909Y31106505D01*
X-37560007Y31104277D01*
X-37560860Y31102217D01*
X-37560860Y31084865D01*
X-37561622Y31067525D01*
X-37673892Y31067525D01*
X-37673892Y31939851D01*
X-37562781Y31939851D01*
X-37562781Y31844613D01*
X-37561809Y31834740D01*
X-37561996Y31832106D01*
X-37561209Y31828643D01*
X-37560860Y31825104D01*
X-37559849Y31822662D01*
X-37557649Y31812990D01*
X-37510030Y31670134D01*
X-37502039Y31652233D01*
X-37499684Y31649518D01*
X-37498309Y31646199D01*
X-37485873Y31631045D01*
X-37390635Y31535807D01*
X-37382969Y31529516D01*
X-37381236Y31527518D01*
X-37378225Y31525623D01*
X-37375481Y31523371D01*
X-37373044Y31522362D01*
X-37364645Y31517075D01*
X-37269408Y31469456D01*
X-37267980Y31468910D01*
X-37267400Y31468480D01*
X-37259224Y31465559D01*
X-37251099Y31462450D01*
X-37250379Y31462399D01*
X-37248940Y31461885D01*
X-37058464Y31414266D01*
X-37055083Y31413766D01*
X-37053719Y31413201D01*
X-37046369Y31412478D01*
X-37039071Y31411398D01*
X-37037613Y31411616D01*
X-37034210Y31411280D01*
X-36891353Y31411280D01*
X-36887951Y31411616D01*
X-36886492Y31411398D01*
X-36879195Y31412478D01*
X-36871844Y31413201D01*
X-36870481Y31413766D01*
X-36867099Y31414266D01*
X-36676624Y31461885D01*
X-36675187Y31462399D01*
X-36674464Y31462450D01*
X-36666340Y31465559D01*
X-36658163Y31468480D01*
X-36657583Y31468911D01*
X-36656156Y31469456D01*
X-36560918Y31517075D01*
X-36552526Y31522358D01*
X-36550082Y31523370D01*
X-36547333Y31525627D01*
X-36544328Y31527518D01*
X-36542599Y31529513D01*
X-36534929Y31535807D01*
X-36439689Y31631045D01*
X-36427253Y31646198D01*
X-36425878Y31649518D01*
X-36423523Y31652233D01*
X-36415532Y31670133D01*
X-36367913Y31812990D01*
X-36365714Y31822663D01*
X-36364702Y31825104D01*
X-36364354Y31828642D01*
X-36363566Y31832105D01*
X-36363754Y31834740D01*
X-36362781Y31844613D01*
X-36362781Y31939851D01*
X-36363754Y31949725D01*
X-36363566Y31952359D01*
X-36364354Y31955823D01*
X-36364702Y31959360D01*
X-36365714Y31961802D01*
X-36367913Y31971474D01*
X-36415532Y32114331D01*
X-36423523Y32132231D01*
X-36425878Y32134947D01*
X-36427253Y32138266D01*
X-36439690Y32153420D01*
X-36487310Y32201038D01*
X-36502463Y32213475D01*
X-36538512Y32228406D01*
X-36577530Y32228405D01*
X-36613578Y32213474D01*
X-36641168Y32185884D01*
X-36656099Y32149835D01*
X-36656098Y32110817D01*
X-36641167Y32074769D01*
X-36628730Y32059616D01*
X-36597803Y32028690D01*
X-36562781Y31923625D01*
X-36562781Y31860840D01*
X-36597803Y31755775D01*
X-36664873Y31688705D01*
X-36735782Y31653251D01*
X-36903663Y31611280D01*
X-37021901Y31611280D01*
X-37189782Y31653251D01*
X-37260687Y31688703D01*
X-37327760Y31755776D01*
X-37362781Y31860840D01*
X-37362781Y31923624D01*
X-37327760Y32028690D01*
X-37296833Y32059616D01*
X-37284396Y32074769D01*
X-37269465Y32110818D01*
X-37269465Y32149836D01*
X-37284396Y32185884D01*
X-37311986Y32213474D01*
X-37348034Y32228405D01*
X-37387052Y32228405D01*
X-37423101Y32213474D01*
X-37438254Y32201037D01*
X-37485873Y32153419D01*
X-37498309Y32138265D01*
X-37499684Y32134947D01*
X-37502039Y32132231D01*
X-37510030Y32114330D01*
X-37557649Y31971474D01*
X-37559849Y31961803D01*
X-37560860Y31959360D01*
X-37561209Y31955822D01*
X-37561996Y31952358D01*
X-37561809Y31949725D01*
X-37562781Y31939851D01*
X-37673892Y31939851D01*
X-37673892Y33149836D01*
X-37560860Y33149836D01*
X-37560860Y33110818D01*
X-37545928Y33074770D01*
X-37518338Y33047180D01*
X-37482290Y33032248D01*
X-37462781Y33030327D01*
X-36676865Y33030327D01*
X-36617254Y33000521D01*
X-36592586Y32975854D01*
X-36562781Y32916244D01*
X-36562781Y32772982D01*
X-36592586Y32713373D01*
X-36617254Y32688706D01*
X-36676865Y32658899D01*
X-37462781Y32658899D01*
X-37482290Y32656978D01*
X-37518338Y32642046D01*
X-37545928Y32614456D01*
X-37560860Y32578408D01*
X-37560860Y32539390D01*
X-37545928Y32503342D01*
X-37518338Y32475752D01*
X-37482290Y32460820D01*
X-37462781Y32458899D01*
X-36653258Y32458899D01*
X-36633749Y32460820D01*
X-36630429Y32462196D01*
X-36626845Y32462450D01*
X-36608537Y32469456D01*
X-36513299Y32517075D01*
X-36504907Y32522359D01*
X-36502463Y32523370D01*
X-36499714Y32525627D01*
X-36496709Y32527518D01*
X-36494980Y32529513D01*
X-36487310Y32535807D01*
X-36439690Y32583425D01*
X-36433397Y32591094D01*
X-36431400Y32592825D01*
X-36429507Y32595834D01*
X-36427253Y32598579D01*
X-36426243Y32601020D01*
X-36420957Y32609416D01*
X-36373338Y32704653D01*
X-36366332Y32722962D01*
X-36366078Y32726546D01*
X-36364702Y32729866D01*
X-36362781Y32749375D01*
X-36362781Y32939851D01*
X-36364702Y32959360D01*
X-36366078Y32962681D01*
X-36366332Y32966264D01*
X-36373338Y32984573D01*
X-36420957Y33079810D01*
X-36426243Y33088207D01*
X-36427253Y33090647D01*
X-36429507Y33093393D01*
X-36431400Y33096401D01*
X-36433397Y33098133D01*
X-36439690Y33105801D01*
X-36487310Y33153419D01*
X-36494980Y33159714D01*
X-36496709Y33161708D01*
X-36499714Y33163600D01*
X-36502463Y33165856D01*
X-36504907Y33166868D01*
X-36513299Y33172151D01*
X-36608537Y33219770D01*
X-36626845Y33226776D01*
X-36630429Y33227031D01*
X-36633749Y33228406D01*
X-36653258Y33230327D01*
X-37462781Y33230327D01*
X-37482290Y33228406D01*
X-37518338Y33213474D01*
X-37545928Y33185884D01*
X-37560860Y33149836D01*
X-37673892Y33149836D01*
X-37673892Y33341438D01*
X-36251670Y33341438D01*
X-36251670Y30204931D01*
G37*
D11*
X-33630439Y35195682D02*
X-33630439Y34288539D01*
X-33630439Y34288539D02*
X-33690916Y34107111D01*
X-33690916Y34107111D02*
X-33811868Y33986158D01*
X-33811868Y33986158D02*
X-33993297Y33925682D01*
X-33993297Y33925682D02*
X-34114249Y33925682D01*
X-33025678Y33925682D02*
X-33025678Y35195682D01*
X-33025678Y35195682D02*
X-32602344Y34288539D01*
X-32602344Y34288539D02*
X-32179011Y35195682D01*
X-32179011Y35195682D02*
X-32179011Y33925682D01*
X-30909010Y33925682D02*
X-31634725Y33925682D01*
X-31271868Y33925682D02*
X-31271868Y35195682D01*
X-31271868Y35195682D02*
X-31392820Y35014254D01*
X-31392820Y35014254D02*
X-31513772Y34893301D01*
X-31513772Y34893301D02*
X-31634725Y34832825D01*
D12*
X11104819Y-8028094D02*
X10104819Y-8028094D01*
X11104819Y-7456666D02*
X10533390Y-7885237D01*
X10104819Y-7456666D02*
X10676247Y-8028094D01*
X10438152Y-6599523D02*
X11104819Y-6599523D01*
X10057200Y-6837618D02*
X10771485Y-7075713D01*
X10771485Y-7075713D02*
X10771485Y-6456666D01*
X-14559820Y-20238095D02*
X-15369343Y-20238095D01*
X-15369343Y-20238095D02*
X-15464581Y-20285714D01*
X-15464581Y-20285714D02*
X-15512200Y-20333333D01*
X-15512200Y-20333333D02*
X-15559820Y-20428571D01*
X-15559820Y-20428571D02*
X-15559820Y-20619047D01*
X-15559820Y-20619047D02*
X-15512200Y-20714285D01*
X-15512200Y-20714285D02*
X-15464581Y-20761904D01*
X-15464581Y-20761904D02*
X-15369343Y-20809523D01*
X-15369343Y-20809523D02*
X-14559820Y-20809523D01*
X-14655058Y-21238095D02*
X-14607439Y-21285714D01*
X-14607439Y-21285714D02*
X-14559820Y-21380952D01*
X-14559820Y-21380952D02*
X-14559820Y-21619047D01*
X-14559820Y-21619047D02*
X-14607439Y-21714285D01*
X-14607439Y-21714285D02*
X-14655058Y-21761904D01*
X-14655058Y-21761904D02*
X-14750296Y-21809523D01*
X-14750296Y-21809523D02*
X-14845534Y-21809523D01*
X-14845534Y-21809523D02*
X-14988391Y-21761904D01*
X-14988391Y-21761904D02*
X-15559820Y-21190476D01*
X-15559820Y-21190476D02*
X-15559820Y-21809523D01*
X-15506020Y-15895201D02*
X-15744115Y-15895201D01*
X-15648877Y-15657106D02*
X-15744115Y-15895201D01*
X-15744115Y-15895201D02*
X-15648877Y-16133296D01*
X-15934591Y-15752344D02*
X-15744115Y-15895201D01*
X-15744115Y-15895201D02*
X-15934591Y-16038058D01*
X11104819Y-15648094D02*
X10104819Y-15648094D01*
X11104819Y-15076666D02*
X10533390Y-15505237D01*
X10104819Y-15076666D02*
X10676247Y-15648094D01*
X10104819Y-14171904D02*
X10104819Y-14648094D01*
X10104819Y-14648094D02*
X10581009Y-14695713D01*
X10581009Y-14695713D02*
X10533390Y-14648094D01*
X10533390Y-14648094D02*
X10485771Y-14552856D01*
X10485771Y-14552856D02*
X10485771Y-14314761D01*
X10485771Y-14314761D02*
X10533390Y-14219523D01*
X10533390Y-14219523D02*
X10581009Y-14171904D01*
X10581009Y-14171904D02*
X10676247Y-14124285D01*
X10676247Y-14124285D02*
X10914342Y-14124285D01*
X10914342Y-14124285D02*
X11009580Y-14171904D01*
X11009580Y-14171904D02*
X11057200Y-14219523D01*
X11057200Y-14219523D02*
X11104819Y-14314761D01*
X11104819Y-14314761D02*
X11104819Y-14552856D01*
X11104819Y-14552856D02*
X11057200Y-14648094D01*
X11057200Y-14648094D02*
X11009580Y-14695713D01*
X11104819Y-23268094D02*
X10104819Y-23268094D01*
X11104819Y-22696666D02*
X10533390Y-23125237D01*
X10104819Y-22696666D02*
X10676247Y-23268094D01*
X10104819Y-21839523D02*
X10104819Y-22029999D01*
X10104819Y-22029999D02*
X10152438Y-22125237D01*
X10152438Y-22125237D02*
X10200057Y-22172856D01*
X10200057Y-22172856D02*
X10342914Y-22268094D01*
X10342914Y-22268094D02*
X10533390Y-22315713D01*
X10533390Y-22315713D02*
X10914342Y-22315713D01*
X10914342Y-22315713D02*
X11009580Y-22268094D01*
X11009580Y-22268094D02*
X11057200Y-22220475D01*
X11057200Y-22220475D02*
X11104819Y-22125237D01*
X11104819Y-22125237D02*
X11104819Y-21934761D01*
X11104819Y-21934761D02*
X11057200Y-21839523D01*
X11057200Y-21839523D02*
X11009580Y-21791904D01*
X11009580Y-21791904D02*
X10914342Y-21744285D01*
X10914342Y-21744285D02*
X10676247Y-21744285D01*
X10676247Y-21744285D02*
X10581009Y-21791904D01*
X10581009Y-21791904D02*
X10533390Y-21839523D01*
X10533390Y-21839523D02*
X10485771Y-21934761D01*
X10485771Y-21934761D02*
X10485771Y-22125237D01*
X10485771Y-22125237D02*
X10533390Y-22220475D01*
X10533390Y-22220475D02*
X10581009Y-22268094D01*
X10581009Y-22268094D02*
X10676247Y-22315713D01*
X11104819Y-38508094D02*
X10104819Y-38508094D01*
X11104819Y-37936666D02*
X10533390Y-38365237D01*
X10104819Y-37936666D02*
X10676247Y-38508094D01*
X10533390Y-37365237D02*
X10485771Y-37460475D01*
X10485771Y-37460475D02*
X10438152Y-37508094D01*
X10438152Y-37508094D02*
X10342914Y-37555713D01*
X10342914Y-37555713D02*
X10295295Y-37555713D01*
X10295295Y-37555713D02*
X10200057Y-37508094D01*
X10200057Y-37508094D02*
X10152438Y-37460475D01*
X10152438Y-37460475D02*
X10104819Y-37365237D01*
X10104819Y-37365237D02*
X10104819Y-37174761D01*
X10104819Y-37174761D02*
X10152438Y-37079523D01*
X10152438Y-37079523D02*
X10200057Y-37031904D01*
X10200057Y-37031904D02*
X10295295Y-36984285D01*
X10295295Y-36984285D02*
X10342914Y-36984285D01*
X10342914Y-36984285D02*
X10438152Y-37031904D01*
X10438152Y-37031904D02*
X10485771Y-37079523D01*
X10485771Y-37079523D02*
X10533390Y-37174761D01*
X10533390Y-37174761D02*
X10533390Y-37365237D01*
X10533390Y-37365237D02*
X10581009Y-37460475D01*
X10581009Y-37460475D02*
X10628628Y-37508094D01*
X10628628Y-37508094D02*
X10723866Y-37555713D01*
X10723866Y-37555713D02*
X10914342Y-37555713D01*
X10914342Y-37555713D02*
X11009580Y-37508094D01*
X11009580Y-37508094D02*
X11057200Y-37460475D01*
X11057200Y-37460475D02*
X11104819Y-37365237D01*
X11104819Y-37365237D02*
X11104819Y-37174761D01*
X11104819Y-37174761D02*
X11057200Y-37079523D01*
X11057200Y-37079523D02*
X11009580Y-37031904D01*
X11009580Y-37031904D02*
X10914342Y-36984285D01*
X10914342Y-36984285D02*
X10723866Y-36984285D01*
X10723866Y-36984285D02*
X10628628Y-37031904D01*
X10628628Y-37031904D02*
X10581009Y-37079523D01*
X10581009Y-37079523D02*
X10533390Y-37174761D01*
X11104819Y14831906D02*
X10104819Y14831906D01*
X11104819Y15403334D02*
X10533390Y14974763D01*
X10104819Y15403334D02*
X10676247Y14831906D01*
X11104819Y16355715D02*
X11104819Y15784287D01*
X11104819Y16070001D02*
X10104819Y16070001D01*
X10104819Y16070001D02*
X10247676Y15974763D01*
X10247676Y15974763D02*
X10342914Y15879525D01*
X10342914Y15879525D02*
X10390533Y15784287D01*
D13*
X32457419Y-9083333D02*
X33171704Y-9083333D01*
X33171704Y-9083333D02*
X33314561Y-9130952D01*
X33314561Y-9130952D02*
X33409800Y-9226190D01*
X33409800Y-9226190D02*
X33457419Y-9369047D01*
X33457419Y-9369047D02*
X33457419Y-9464285D01*
X32885990Y-8464285D02*
X32838371Y-8559523D01*
X32838371Y-8559523D02*
X32790752Y-8607142D01*
X32790752Y-8607142D02*
X32695514Y-8654761D01*
X32695514Y-8654761D02*
X32647895Y-8654761D01*
X32647895Y-8654761D02*
X32552657Y-8607142D01*
X32552657Y-8607142D02*
X32505038Y-8559523D01*
X32505038Y-8559523D02*
X32457419Y-8464285D01*
X32457419Y-8464285D02*
X32457419Y-8273809D01*
X32457419Y-8273809D02*
X32505038Y-8178571D01*
X32505038Y-8178571D02*
X32552657Y-8130952D01*
X32552657Y-8130952D02*
X32647895Y-8083333D01*
X32647895Y-8083333D02*
X32695514Y-8083333D01*
X32695514Y-8083333D02*
X32790752Y-8130952D01*
X32790752Y-8130952D02*
X32838371Y-8178571D01*
X32838371Y-8178571D02*
X32885990Y-8273809D01*
X32885990Y-8273809D02*
X32885990Y-8464285D01*
X32885990Y-8464285D02*
X32933609Y-8559523D01*
X32933609Y-8559523D02*
X32981228Y-8607142D01*
X32981228Y-8607142D02*
X33076466Y-8654761D01*
X33076466Y-8654761D02*
X33266942Y-8654761D01*
X33266942Y-8654761D02*
X33362180Y-8607142D01*
X33362180Y-8607142D02*
X33409800Y-8559523D01*
X33409800Y-8559523D02*
X33457419Y-8464285D01*
X33457419Y-8464285D02*
X33457419Y-8273809D01*
X33457419Y-8273809D02*
X33409800Y-8178571D01*
X33409800Y-8178571D02*
X33362180Y-8130952D01*
X33362180Y-8130952D02*
X33266942Y-8083333D01*
X33266942Y-8083333D02*
X33076466Y-8083333D01*
X33076466Y-8083333D02*
X32981228Y-8130952D01*
X32981228Y-8130952D02*
X32933609Y-8178571D01*
X32933609Y-8178571D02*
X32885990Y-8273809D01*
D12*
X11104819Y-30888094D02*
X10104819Y-30888094D01*
X11104819Y-30316666D02*
X10533390Y-30745237D01*
X10104819Y-30316666D02*
X10676247Y-30888094D01*
X10104819Y-29983332D02*
X10104819Y-29316666D01*
X10104819Y-29316666D02*
X11104819Y-29745237D01*
X-19761905Y36870181D02*
X-19761905Y36060658D01*
X-19761905Y36060658D02*
X-19714286Y35965420D01*
X-19714286Y35965420D02*
X-19666667Y35917800D01*
X-19666667Y35917800D02*
X-19571429Y35870181D01*
X-19571429Y35870181D02*
X-19380953Y35870181D01*
X-19380953Y35870181D02*
X-19285715Y35917800D01*
X-19285715Y35917800D02*
X-19238096Y35965420D01*
X-19238096Y35965420D02*
X-19190477Y36060658D01*
X-19190477Y36060658D02*
X-19190477Y36870181D01*
X-18238096Y36870181D02*
X-18714286Y36870181D01*
X-18714286Y36870181D02*
X-18761905Y36393991D01*
X-18761905Y36393991D02*
X-18714286Y36441610D01*
X-18714286Y36441610D02*
X-18619048Y36489229D01*
X-18619048Y36489229D02*
X-18380953Y36489229D01*
X-18380953Y36489229D02*
X-18285715Y36441610D01*
X-18285715Y36441610D02*
X-18238096Y36393991D01*
X-18238096Y36393991D02*
X-18190477Y36298753D01*
X-18190477Y36298753D02*
X-18190477Y36060658D01*
X-18190477Y36060658D02*
X-18238096Y35965420D01*
X-18238096Y35965420D02*
X-18285715Y35917800D01*
X-18285715Y35917800D02*
X-18380953Y35870181D01*
X-18380953Y35870181D02*
X-18619048Y35870181D01*
X-18619048Y35870181D02*
X-18714286Y35917800D01*
X-18714286Y35917800D02*
X-18761905Y35965420D01*
X-20720850Y42696981D02*
X-20720850Y42458886D01*
X-20958945Y42554124D02*
X-20720850Y42458886D01*
X-20720850Y42458886D02*
X-20482755Y42554124D01*
X-20863707Y42268410D02*
X-20720850Y42458886D01*
X-20720850Y42458886D02*
X-20577993Y42268410D01*
X-20370420Y1833334D02*
X-20322800Y1785715D01*
X-20322800Y1785715D02*
X-20275181Y1642858D01*
X-20275181Y1642858D02*
X-20275181Y1547620D01*
X-20275181Y1547620D02*
X-20322800Y1404763D01*
X-20322800Y1404763D02*
X-20418039Y1309525D01*
X-20418039Y1309525D02*
X-20513277Y1261906D01*
X-20513277Y1261906D02*
X-20703753Y1214287D01*
X-20703753Y1214287D02*
X-20846610Y1214287D01*
X-20846610Y1214287D02*
X-21037086Y1261906D01*
X-21037086Y1261906D02*
X-21132324Y1309525D01*
X-21132324Y1309525D02*
X-21227562Y1404763D01*
X-21227562Y1404763D02*
X-21275181Y1547620D01*
X-21275181Y1547620D02*
X-21275181Y1642858D01*
X-21275181Y1642858D02*
X-21227562Y1785715D01*
X-21227562Y1785715D02*
X-21179943Y1833334D01*
X-21179943Y2214287D02*
X-21227562Y2261906D01*
X-21227562Y2261906D02*
X-21275181Y2357144D01*
X-21275181Y2357144D02*
X-21275181Y2595239D01*
X-21275181Y2595239D02*
X-21227562Y2690477D01*
X-21227562Y2690477D02*
X-21179943Y2738096D01*
X-21179943Y2738096D02*
X-21084705Y2785715D01*
X-21084705Y2785715D02*
X-20989467Y2785715D01*
X-20989467Y2785715D02*
X-20846610Y2738096D01*
X-20846610Y2738096D02*
X-20275181Y2166668D01*
X-20275181Y2166668D02*
X-20275181Y2785715D01*
X11104819Y-408094D02*
X10104819Y-408094D01*
X11104819Y163334D02*
X10533390Y-265237D01*
X10104819Y163334D02*
X10676247Y-408094D01*
X10104819Y496668D02*
X10104819Y1115715D01*
X10104819Y1115715D02*
X10485771Y782382D01*
X10485771Y782382D02*
X10485771Y925239D01*
X10485771Y925239D02*
X10533390Y1020477D01*
X10533390Y1020477D02*
X10581009Y1068096D01*
X10581009Y1068096D02*
X10676247Y1115715D01*
X10676247Y1115715D02*
X10914342Y1115715D01*
X10914342Y1115715D02*
X11009580Y1068096D01*
X11009580Y1068096D02*
X11057200Y1020477D01*
X11057200Y1020477D02*
X11104819Y925239D01*
X11104819Y925239D02*
X11104819Y639525D01*
X11104819Y639525D02*
X11057200Y544287D01*
X11057200Y544287D02*
X11009580Y496668D01*
X-14104820Y-4238095D02*
X-14914343Y-4238095D01*
X-14914343Y-4238095D02*
X-15009581Y-4285714D01*
X-15009581Y-4285714D02*
X-15057200Y-4333333D01*
X-15057200Y-4333333D02*
X-15104820Y-4428571D01*
X-15104820Y-4428571D02*
X-15104820Y-4619047D01*
X-15104820Y-4619047D02*
X-15057200Y-4714285D01*
X-15057200Y-4714285D02*
X-15009581Y-4761904D01*
X-15009581Y-4761904D02*
X-14914343Y-4809523D01*
X-14914343Y-4809523D02*
X-14104820Y-4809523D01*
X-15104820Y-5809523D02*
X-15104820Y-5238095D01*
X-15104820Y-5523809D02*
X-14104820Y-5523809D01*
X-14104820Y-5523809D02*
X-14247677Y-5428571D01*
X-14247677Y-5428571D02*
X-14342915Y-5333333D01*
X-14342915Y-5333333D02*
X-14390534Y-5238095D01*
X-14655020Y-1118199D02*
X-14893115Y-1118199D01*
X-14797877Y-880104D02*
X-14893115Y-1118199D01*
X-14893115Y-1118199D02*
X-14797877Y-1356294D01*
X-15083591Y-975342D02*
X-14893115Y-1118199D01*
X-14893115Y-1118199D02*
X-15083591Y-1261056D01*
X-15745381Y-1118198D02*
X-15507286Y-1118198D01*
X-15602524Y-1356293D02*
X-15507286Y-1118198D01*
X-15507286Y-1118198D02*
X-15602524Y-880103D01*
X-15316810Y-1261055D02*
X-15507286Y-1118198D01*
X-15507286Y-1118198D02*
X-15316810Y-975341D01*
X11104819Y7211906D02*
X10104819Y7211906D01*
X11104819Y7783334D02*
X10533390Y7354763D01*
X10104819Y7783334D02*
X10676247Y7211906D01*
X10200057Y8164287D02*
X10152438Y8211906D01*
X10152438Y8211906D02*
X10104819Y8307144D01*
X10104819Y8307144D02*
X10104819Y8545239D01*
X10104819Y8545239D02*
X10152438Y8640477D01*
X10152438Y8640477D02*
X10200057Y8688096D01*
X10200057Y8688096D02*
X10295295Y8735715D01*
X10295295Y8735715D02*
X10390533Y8735715D01*
X10390533Y8735715D02*
X10533390Y8688096D01*
X10533390Y8688096D02*
X11104819Y8116668D01*
X11104819Y8116668D02*
X11104819Y8735715D01*
X2913333Y44640420D02*
X2865714Y44592800D01*
X2865714Y44592800D02*
X2722857Y44545181D01*
X2722857Y44545181D02*
X2627619Y44545181D01*
X2627619Y44545181D02*
X2484762Y44592800D01*
X2484762Y44592800D02*
X2389524Y44688039D01*
X2389524Y44688039D02*
X2341905Y44783277D01*
X2341905Y44783277D02*
X2294286Y44973753D01*
X2294286Y44973753D02*
X2294286Y45116610D01*
X2294286Y45116610D02*
X2341905Y45307086D01*
X2341905Y45307086D02*
X2389524Y45402324D01*
X2389524Y45402324D02*
X2484762Y45497562D01*
X2484762Y45497562D02*
X2627619Y45545181D01*
X2627619Y45545181D02*
X2722857Y45545181D01*
X2722857Y45545181D02*
X2865714Y45497562D01*
X2865714Y45497562D02*
X2913333Y45449943D01*
X3865714Y44545181D02*
X3294286Y44545181D01*
X3580000Y44545181D02*
X3580000Y45545181D01*
X3580000Y45545181D02*
X3484762Y45402324D01*
X3484762Y45402324D02*
X3389524Y45307086D01*
X3389524Y45307086D02*
X3294286Y45259467D01*
X-16545181Y29666667D02*
X-15830896Y29666667D01*
X-15830896Y29666667D02*
X-15688039Y29619048D01*
X-15688039Y29619048D02*
X-15592800Y29523810D01*
X-15592800Y29523810D02*
X-15545181Y29380953D01*
X-15545181Y29380953D02*
X-15545181Y29285715D01*
X-16545181Y30047620D02*
X-16545181Y30666667D01*
X-16545181Y30666667D02*
X-16164229Y30333334D01*
X-16164229Y30333334D02*
X-16164229Y30476191D01*
X-16164229Y30476191D02*
X-16116610Y30571429D01*
X-16116610Y30571429D02*
X-16068991Y30619048D01*
X-16068991Y30619048D02*
X-15973753Y30666667D01*
X-15973753Y30666667D02*
X-15735658Y30666667D01*
X-15735658Y30666667D02*
X-15640420Y30619048D01*
X-15640420Y30619048D02*
X-15592800Y30571429D01*
X-15592800Y30571429D02*
X-15545181Y30476191D01*
X-15545181Y30476191D02*
X-15545181Y30190477D01*
X-15545181Y30190477D02*
X-15592800Y30095239D01*
X-15592800Y30095239D02*
X-15640420Y30047620D01*
D13*
X32457419Y26916667D02*
X33171704Y26916667D01*
X33171704Y26916667D02*
X33314561Y26869048D01*
X33314561Y26869048D02*
X33409800Y26773810D01*
X33409800Y26773810D02*
X33457419Y26630953D01*
X33457419Y26630953D02*
X33457419Y26535715D01*
X32457419Y27297620D02*
X32457419Y27964286D01*
X32457419Y27964286D02*
X33457419Y27535715D01*
%TO.C,JM1*%
X-32198000Y6500000D02*
X-32198000Y6500000D01*
X-32198000Y6500000D02*
X-30350000Y6500000D01*
X-30350000Y6500000D02*
X-32198000Y6500000D01*
X-30350000Y6500000D02*
X-30350000Y6500000D01*
X-30350000Y6500000D02*
X-30350000Y6500000D01*
X-30350000Y6500000D02*
X-30350000Y33500000D01*
D10*
X-38348000Y10300000D02*
X-38348000Y10300000D01*
X-38348000Y10300000D02*
X-38348000Y10300000D01*
X-38348000Y10400000D02*
X-38348000Y10400000D01*
D13*
X-32198000Y33500000D02*
X-32198000Y33500000D01*
X-32198000Y33500000D02*
X-30350000Y33500000D01*
X-30350000Y33500000D02*
X-30350000Y6500000D01*
X-30350000Y33500000D02*
X-32198000Y33500000D01*
X-30350000Y33500000D02*
X-30350000Y33500000D01*
X-30350000Y33500000D02*
X-30350000Y33500000D01*
D10*
X-38348000Y10300000D02*
G75*
G02*
X-38348000Y10400000I0J50000D01*
G01*
X-38348000Y10400000D02*
G75*
G02*
X-38348000Y10300000I0J-50000D01*
G01*
X-38348000Y10400000D02*
G75*
G02*
X-38348000Y10300000I0J-50000D01*
G01*
D14*
%TO.C,K4*%
X-11337000Y-4183000D02*
X-11337000Y-11437000D01*
X-11337000Y-4183000D02*
X-8370000Y-4183000D01*
X-11337000Y-11437000D02*
X-8370000Y-11437000D01*
X-750000Y-11437000D02*
X9317000Y-11437000D01*
X9317000Y-4183000D02*
X-750000Y-4183000D01*
X9317000Y-9586600D02*
X9317000Y-4183000D01*
X9317000Y-11437000D02*
X9317000Y-10733400D01*
%TO.C,U2*%
X-29351999Y-17372999D02*
X-29351999Y-24627001D01*
X-29351999Y-24627001D02*
X-16098001Y-24627001D01*
X-16098001Y-17372999D02*
X-29351999Y-17372999D01*
X-16098001Y-24627001D02*
X-16098001Y-17372999D01*
D15*
G36*
X-27614500Y-27216800D02*
G01*
X-27995500Y-27216800D01*
X-27995500Y-26962800D01*
X-27614500Y-26962800D01*
X-27614500Y-27216800D01*
G37*
D14*
%TO.C,K5*%
X-11337000Y-11803000D02*
X-11337000Y-19057000D01*
X-11337000Y-11803000D02*
X-8370000Y-11803000D01*
X-11337000Y-19057000D02*
X-8370000Y-19057000D01*
X-750000Y-19057000D02*
X9317000Y-19057000D01*
X9317000Y-11803000D02*
X-750000Y-11803000D01*
X9317000Y-17206600D02*
X9317000Y-11803000D01*
X9317000Y-19057000D02*
X9317000Y-18353400D01*
%TO.C,K6*%
X-11337000Y-19423000D02*
X-11337000Y-26677000D01*
X-11337000Y-19423000D02*
X-8370000Y-19423000D01*
X-11337000Y-26677000D02*
X-8370000Y-26677000D01*
X-750000Y-26677000D02*
X9317000Y-26677000D01*
X9317000Y-19423000D02*
X-750000Y-19423000D01*
X9317000Y-24826600D02*
X9317000Y-19423000D01*
X9317000Y-26677000D02*
X9317000Y-25973400D01*
%TO.C,K8*%
X-11337000Y-34663000D02*
X-11337000Y-41917000D01*
X-11337000Y-34663000D02*
X-8370000Y-34663000D01*
X-11337000Y-41917000D02*
X-8370000Y-41917000D01*
X-750000Y-41917000D02*
X9317000Y-41917000D01*
X9317000Y-34663000D02*
X-750000Y-34663000D01*
X9317000Y-40066600D02*
X9317000Y-34663000D01*
X9317000Y-41917000D02*
X9317000Y-41213400D01*
%TO.C,K1*%
X-11337000Y18677000D02*
X-11337000Y11423000D01*
X-11337000Y18677000D02*
X-8370000Y18677000D01*
X-11337000Y11423000D02*
X-8370000Y11423000D01*
X-750000Y11423000D02*
X9317000Y11423000D01*
X9317000Y18677000D02*
X-750000Y18677000D01*
X9317000Y13273400D02*
X9317000Y18677000D01*
X9317000Y11423000D02*
X9317000Y12126600D01*
D13*
%TO.C,J8*%
X33800000Y9150000D02*
X38400000Y9150000D01*
X33800000Y-26650000D02*
X33800000Y9150000D01*
X38400000Y-26650000D02*
X33800000Y-26650000D01*
D14*
%TO.C,K7*%
X-11337000Y-27043000D02*
X-11337000Y-34297000D01*
X-11337000Y-27043000D02*
X-8370000Y-27043000D01*
X-11337000Y-34297000D02*
X-8370000Y-34297000D01*
X-750000Y-34297000D02*
X9317000Y-34297000D01*
X9317000Y-27043000D02*
X-750000Y-27043000D01*
X9317000Y-32446600D02*
X9317000Y-27043000D01*
X9317000Y-34297000D02*
X9317000Y-33593400D01*
%TO.C,U5*%
X-20003300Y37849000D02*
X-17996700Y37849000D01*
X-17996700Y41151000D02*
X-20003300Y41151000D01*
D16*
%TO.C,C2*%
X-22510000Y1859420D02*
X-22510000Y2140580D01*
X-21490000Y1859420D02*
X-21490000Y2140580D01*
D14*
%TO.C,K3*%
X-11337000Y3437000D02*
X-11337000Y-3817000D01*
X-11337000Y3437000D02*
X-8370000Y3437000D01*
X-11337000Y-3817000D02*
X-8370000Y-3817000D01*
X-750000Y-3817000D02*
X9317000Y-3817000D01*
X9317000Y3437000D02*
X-750000Y3437000D01*
X9317000Y-1966600D02*
X9317000Y3437000D01*
X9317000Y-3817000D02*
X9317000Y-3113400D01*
%TO.C,U1*%
X-26377000Y-2073001D02*
X-26377000Y-7926999D01*
X-26377000Y-7926999D02*
X-25773640Y-7926999D01*
X-25773638Y-2073001D02*
X-26377000Y-2073001D01*
X-16226360Y-7926999D02*
X-15623000Y-7926999D01*
X-15623000Y-2073001D02*
X-16226360Y-2073001D01*
X-15623000Y-7926999D02*
X-15623000Y-2073001D01*
D15*
G36*
X-22434498Y-290398D02*
G01*
X-22815498Y-290398D01*
X-22815498Y-36398D01*
X-22434498Y-36398D01*
X-22434498Y-290398D01*
G37*
G36*
X-21784499Y-9963602D02*
G01*
X-22165499Y-9963602D01*
X-22165499Y-9709602D01*
X-21784499Y-9709602D01*
X-21784499Y-9963602D01*
G37*
D14*
%TO.C,K2*%
X-11337000Y11057000D02*
X-11337000Y3803000D01*
X-11337000Y11057000D02*
X-8370000Y11057000D01*
X-11337000Y3803000D02*
X-8370000Y3803000D01*
X-750000Y3803000D02*
X9317000Y3803000D01*
X9317000Y11057000D02*
X-750000Y11057000D01*
X9317000Y5653400D02*
X9317000Y11057000D01*
X9317000Y3803000D02*
X9317000Y4506600D01*
D16*
%TO.C,C1*%
X-838748Y46710000D02*
X-3161252Y46710000D01*
X-838748Y43290000D02*
X-3161252Y43290000D01*
D14*
%TO.C,J3*%
X-12781300Y20376699D02*
X-7218700Y20376699D01*
X-7218700Y39623301D02*
X-12781300Y39623301D01*
X-7218700Y20376699D02*
X-7218700Y39623301D01*
D13*
%TO.C,J7*%
X33800000Y45150000D02*
X38400000Y45150000D01*
X33800000Y9350000D02*
X33800000Y45150000D01*
X38400000Y9350000D02*
X33800000Y9350000D01*
%TD*%
M02*
