M48
; DRILL file {KiCad 9.0.2} date 2025-06-19T15:05:14+0300
; FORMAT={-:-/ absolute / metric / decimal}
; #@! TF.CreationDate,2025-06-19T15:05:14+03:00
; #@! TF.GenerationSoftware,Kicad,Pcbnew,9.0.2
; #@! TF.FileFunction,Plated,1,2,PTH
FMAT,2
METRIC
; #@! TA.AperFunction,Plated,PTH,ViaDrill
T1C0.300
; #@! TA.AperFunction,Plated,PTH,ViaDrill
T2C0.400
; #@! TA.AperFunction,Plated,PTH,ComponentDrill
T3C1.000
; #@! TA.AperFunction,Plated,PTH,ComponentDrill
T4C1.150
; #@! TA.AperFunction,Plated,PTH,ComponentDrill
T5C1.400
; #@! TA.AperFunction,Plated,PTH,ComponentDrill
T6C1.550
; #@! TA.AperFunction,Plated,PTH,ComponentDrill
T7C3.200
%
G90
G05
T1
X-33.5Y38.5
X-33.5Y37.0
X-33.5Y23.0
X-33.5Y21.5
X-33.0Y40.0
X-33.0Y20.0
X-31.5Y40.0
X-31.5Y20.0
X-30.0Y40.0
X-30.0Y20.0
X-23.75Y30.0
X-13.5Y3.25
X-13.5Y-15.0
X-9.6Y30.5
X-9.0Y31.5
X-9.0Y8.5
X-7.029Y8.471
X-2.0Y14.5
X-2.0Y13.5
X-2.0Y12.5
X-2.0Y11.5
X-2.0Y10.5
X-2.0Y9.5
X-2.0Y8.5
X-2.0Y7.5
X-2.0Y-5.5
X-2.0Y-6.5
X-2.0Y-7.5
X-2.0Y-8.5
X-2.0Y-9.5
X-2.0Y-10.5
X-2.0Y-11.5
X-2.0Y-12.5
X4.5Y-15.0
X5.0Y1.75
X5.25Y-2.75
X9.5Y3.0
X10.5Y7.0
X10.5Y3.0
X10.75Y6.1
X11.5Y3.0
X12.25Y10.5
X12.75Y6.75
X12.75Y5.75
X13.5Y5.0
X13.675Y-12.5
X13.675Y19.0
X14.325Y18.0
X14.5Y-11.5
X15.0Y17.0
X15.0Y-10.5
X15.625Y16.0
X15.625Y-9.5
X16.275Y15.0
X16.5Y-8.5
X16.925Y14.0
X17.5Y-7.5
X17.575Y13.0
X18.175Y-5.825
X18.225Y12.0
X18.25Y-4.25
X29.685Y-16.51
X30.32Y-17.78
X30.955Y-16.51
T2
X-37.5Y35.5
X-37.5Y34.5
X-37.5Y33.5
X-37.5Y32.5
X-36.5Y34.5
X-36.5Y33.5
X-35.5Y34.5
X-35.5Y33.5
X-35.5Y32.5
X-35.5Y31.5
X-35.5Y30.5
X-35.5Y29.5
X-35.5Y28.5
X-35.5Y27.5
X-35.5Y26.5
X-35.5Y25.5
X-32.0Y14.5
X-32.0Y13.5
X-32.0Y12.5
X-32.0Y11.5
X-32.0Y10.5
X-32.0Y9.5
X-32.0Y8.5
X-32.0Y7.5
X-32.0Y6.5
X-32.0Y5.5
X-29.0Y9.5
X-28.0Y33.5
X-28.0Y10.5
X-28.0Y8.5
X-12.0Y39.0
X-12.0Y37.0
X-11.0Y38.0
X-10.0Y39.0
X-10.0Y37.0
X-4.5Y-28.0
X-4.5Y-30.0
X-3.5Y-29.0
X-2.5Y-28.0
X-2.5Y-30.0
T3
X-7.0Y-26.3
X-7.0Y-31.38
X-7.0Y-36.46
X-7.0Y-39.0
T4
X-20.0Y0.0
X-7.0Y0.0
T5
X35.0Y43.0
X35.0Y39.5
X35.0Y36.0
X35.0Y32.5
X35.0Y29.0
X35.0Y25.5
X35.0Y22.0
X35.0Y18.5
X35.0Y15.0
X35.0Y11.5
X35.0Y7.0
X35.0Y3.5
X35.0Y0.0
X35.0Y-3.5
X35.0Y-7.0
X35.0Y-10.5
X35.0Y-14.0
X35.0Y-17.5
X35.0Y-21.0
X35.0Y-24.5
X35.0Y-29.0
X35.0Y-32.5
X35.0Y-36.0
X35.0Y-39.5
X35.0Y-43.0
T6
X4.92Y43.06
X4.92Y28.06
X4.92Y-28.06
X4.92Y-43.06
T7
X22.0Y-46.0
M30
