%TF.GenerationSoftware,KiCad,Pcbnew,9.0.2*%
%TF.CreationDate,2025-06-13T14:26:49+03:00*%
%TF.ProjectId,PMCNV-DQ16src,504d434e-562d-4445-9131-367372632e6b,rev?*%
%TF.SameCoordinates,Original*%
%TF.FileFunction,Soldermask,Top*%
%TF.FilePolarity,Negative*%
%FSLAX46Y46*%
G04 Gerber Fmt 4.6, Leading zero omitted, Abs format (unit mm)*
G04 Created by KiCad (PCBNEW 9.0.2) date 2025-06-13 14:26:49*
%MOMM*%
%LPD*%
G01*
G04 APERTURE LIST*
G04 Aperture macros list*
%AMRoundRect*
0 Rectangle with rounded corners*
0 $1 Rounding radius*
0 $2 $3 $4 $5 $6 $7 $8 $9 X,Y pos of 4 corners*
0 Add a 4 corners polygon primitive as box body*
4,1,4,$2,$3,$4,$5,$6,$7,$8,$9,$2,$3,0*
0 Add four circle primitives for the rounded corners*
1,1,$1+$1,$2,$3*
1,1,$1+$1,$4,$5*
1,1,$1+$1,$6,$7*
1,1,$1+$1,$8,$9*
0 Add four rect primitives between the rounded corners*
20,1,$1+$1,$2,$3,$4,$5,0*
20,1,$1+$1,$4,$5,$6,$7,0*
20,1,$1+$1,$6,$7,$8,$9,0*
20,1,$1+$1,$8,$9,$2,$3,0*%
%AMFreePoly0*
4,1,23,0.550000,-0.750000,0.000000,-0.750000,0.000000,-0.745722,-0.065263,-0.745722,-0.191342,-0.711940,-0.304381,-0.646677,-0.396677,-0.554381,-0.461940,-0.441342,-0.495722,-0.315263,-0.495722,-0.250000,-0.500000,-0.250000,-0.500000,0.250000,-0.495722,0.250000,-0.495722,0.315263,-0.461940,0.441342,-0.396677,0.554381,-0.304381,0.646677,-0.191342,0.711940,-0.065263,0.745722,0.000000,0.745722,
0.000000,0.750000,0.550000,0.750000,0.550000,-0.750000,0.550000,-0.750000,$1*%
%AMFreePoly1*
4,1,23,0.000000,0.745722,0.065263,0.745722,0.191342,0.711940,0.304381,0.646677,0.396677,0.554381,0.461940,0.441342,0.495722,0.315263,0.495722,0.250000,0.500000,0.250000,0.500000,-0.250000,0.495722,-0.250000,0.495722,-0.315263,0.461940,-0.441342,0.396677,-0.554381,0.304381,-0.646677,0.191342,-0.711940,0.065263,-0.745722,0.000000,-0.745722,0.000000,-0.750000,-0.550000,-0.750000,
-0.550000,0.750000,0.000000,0.750000,0.000000,0.745722,0.000000,0.745722,$1*%
G04 Aperture macros list end*
%ADD10FreePoly0,0.000000*%
%ADD11R,1.000000X1.500000*%
%ADD12FreePoly1,0.000000*%
%ADD13RoundRect,0.225000X-0.225000X-0.250000X0.225000X-0.250000X0.225000X0.250000X-0.225000X0.250000X0*%
%ADD14R,1.701800X0.558800*%
%ADD15C,2.200000*%
%ADD16R,1.716000X0.450800*%
%ADD17C,2.350000*%
%ADD18R,1.803400X0.635000*%
%ADD19R,2.997200X2.590800*%
%ADD20RoundRect,0.225000X0.225000X0.250000X-0.225000X0.250000X-0.225000X-0.250000X0.225000X-0.250000X0*%
%ADD21R,1.181100X0.558800*%
%ADD22RoundRect,0.225000X-0.250000X0.225000X-0.250000X-0.225000X0.250000X-0.225000X0.250000X0.225000X0*%
%ADD23RoundRect,0.250000X-0.475000X0.250000X-0.475000X-0.250000X0.475000X-0.250000X0.475000X0.250000X0*%
%ADD24RoundRect,0.250000X0.475000X-0.250000X0.475000X0.250000X-0.475000X0.250000X-0.475000X-0.250000X0*%
%ADD25C,1.700000*%
%ADD26R,0.431800X1.655601*%
%ADD27R,1.854200X0.482600*%
%ADD28RoundRect,0.200000X0.200000X0.275000X-0.200000X0.275000X-0.200000X-0.275000X0.200000X-0.275000X0*%
%ADD29O,6.350000X6.350000*%
%ADD30C,1.725000*%
G04 APERTURE END LIST*
%TO.C,JP7*%
G36*
X-14550000Y65250000D02*
G01*
X-13050000Y65250000D01*
X-13050000Y63750000D01*
X-14550000Y63750000D01*
X-14550000Y65250000D01*
G37*
%TO.C,JP6*%
G36*
X-14550000Y68800000D02*
G01*
X-13050000Y68800000D01*
X-13050000Y67300000D01*
X-14550000Y67300000D01*
X-14550000Y68800000D01*
G37*
%TO.C,JP5*%
G36*
X-14550000Y72350000D02*
G01*
X-13050000Y72350000D01*
X-13050000Y70850000D01*
X-14550000Y70850000D01*
X-14550000Y72350000D01*
G37*
%TD*%
D10*
%TO.C,JP7*%
X-15100000Y64500000D03*
D11*
X-13800000Y64500000D03*
D12*
X-12500000Y64500000D03*
%TD*%
D10*
%TO.C,JP6*%
X-15100000Y68050000D03*
D11*
X-13800000Y68050000D03*
D12*
X-12500000Y68050000D03*
%TD*%
D10*
%TO.C,JP5*%
X-15100000Y71600000D03*
D11*
X-13800000Y71600000D03*
D12*
X-12500000Y71600000D03*
%TD*%
D13*
%TO.C,C6*%
X-9745000Y69610000D03*
X-8195000Y69610000D03*
%TD*%
%TO.C,C5*%
X-9745000Y72120000D03*
X-8195000Y72120000D03*
%TD*%
D14*
%TO.C,U11*%
X-20269600Y28310000D03*
X-20269600Y27040000D03*
X-20269600Y25770000D03*
X-20269600Y24500000D03*
X-9500000Y24500000D03*
X-9500000Y25770000D03*
X-9500000Y27040000D03*
X-9500000Y28310000D03*
%TD*%
D15*
%TO.C,J6*%
X35000000Y-43000000D03*
X35000000Y-39500000D03*
X35000000Y-36000000D03*
X35000000Y-32500000D03*
X35000000Y-29000000D03*
%TD*%
D16*
%TO.C,U6*%
X20389202Y25400000D03*
X20389202Y24130000D03*
X20389202Y22860000D03*
X20389202Y21590000D03*
X20389202Y20320000D03*
X20389202Y19050000D03*
X20389202Y17780000D03*
X20389202Y16510000D03*
X20389202Y15240000D03*
X30090798Y15240000D03*
X30090798Y16510000D03*
X30090798Y17780000D03*
X30090798Y19050000D03*
X30090798Y20320000D03*
X30090798Y21590000D03*
X30090798Y22860000D03*
X30090798Y24130000D03*
X30090798Y25400000D03*
%TD*%
D15*
%TO.C,J5*%
X35000000Y-24500000D03*
X35000000Y-21000000D03*
X35000000Y-17500000D03*
X35000000Y-14000000D03*
X35000000Y-10500000D03*
X35000000Y-7000000D03*
X35000000Y-3500000D03*
X35000000Y0D03*
X35000000Y3500000D03*
X35000000Y7000000D03*
%TD*%
%TO.C,J3*%
X35000000Y11500000D03*
X35000000Y15000000D03*
X35000000Y18500000D03*
X35000000Y22000000D03*
X35000000Y25500000D03*
X35000000Y29000000D03*
X35000000Y32500000D03*
X35000000Y36000000D03*
X35000000Y39500000D03*
X35000000Y43000000D03*
%TD*%
D17*
%TO.C,U8*%
X4920000Y28060000D03*
X4920000Y43060000D03*
%TD*%
D18*
%TO.C,J1*%
X-33556000Y24500008D03*
X-33556000Y25500006D03*
X-33556000Y26500004D03*
X-33556000Y27500002D03*
X-33556000Y28500000D03*
X-33556000Y29500000D03*
X-33556000Y30500000D03*
X-33556000Y31500000D03*
X-33556000Y32499998D03*
X-33556000Y33499996D03*
X-33556000Y34499994D03*
X-33556000Y35499992D03*
D19*
X-31385999Y22149997D03*
X-31385999Y37850003D03*
%TD*%
D20*
%TO.C,C7*%
X12775000Y11500000D03*
X11225000Y11500000D03*
%TD*%
D21*
%TO.C,U10*%
X-4533150Y-14950001D03*
X-4533150Y-14000000D03*
X-4533150Y-13049999D03*
X-7466850Y-13049999D03*
X-7466850Y-14000000D03*
X-7466850Y-14950001D03*
%TD*%
D22*
%TO.C,C1*%
X-23655000Y40145000D03*
X-23655000Y38595000D03*
%TD*%
D23*
%TO.C,C3*%
X-30000000Y10450000D03*
X-30000000Y8550000D03*
%TD*%
D17*
%TO.C,U9*%
X4920000Y-28060000D03*
X4920000Y-43060000D03*
%TD*%
D18*
%TO.C,J4*%
X-16556000Y-15499992D03*
X-16556000Y-14499994D03*
X-16556000Y-13499996D03*
X-16556000Y-12499998D03*
X-16556000Y-11500000D03*
X-16556000Y-10500000D03*
X-16556000Y-9500000D03*
X-16556000Y-8500000D03*
X-16556000Y-7500002D03*
X-16556000Y-6500004D03*
X-16556000Y-5500006D03*
X-16556000Y-4500008D03*
D19*
X-14385999Y-17850003D03*
X-14385999Y-2149997D03*
%TD*%
D24*
%TO.C,C4*%
X-30000000Y-450000D03*
X-30000000Y1450000D03*
%TD*%
D16*
%TO.C,U7*%
X20389202Y-5080000D03*
X20389202Y-6350000D03*
X20389202Y-7620000D03*
X20389202Y-8890000D03*
X20389202Y-10160000D03*
X20389202Y-11430000D03*
X20389202Y-12700000D03*
X20389202Y-13970000D03*
X20389202Y-15240000D03*
X30090798Y-15240000D03*
X30090798Y-13970000D03*
X30090798Y-12700000D03*
X30090798Y-11430000D03*
X30090798Y-10160000D03*
X30090798Y-8890000D03*
X30090798Y-7620000D03*
X30090798Y-6350000D03*
X30090798Y-5080000D03*
%TD*%
D25*
%TO.C,PS1*%
X-33375000Y-2160000D03*
X-33375000Y2920000D03*
X-33375000Y8000000D03*
X-33375000Y10540000D03*
%TD*%
D26*
%TO.C,U3*%
X18225000Y8627801D03*
X17574999Y8627801D03*
X16925000Y8627801D03*
X16274999Y8627801D03*
X15625001Y8627801D03*
X14974999Y8627801D03*
X14325001Y8627801D03*
X13675002Y8627801D03*
X13025001Y8627801D03*
X12375002Y8627801D03*
X11725001Y8627801D03*
X11075002Y8627801D03*
X10425001Y8627801D03*
X9775002Y8627801D03*
X9775000Y1372199D03*
X10425001Y1372199D03*
X11075000Y1372199D03*
X11725001Y1372199D03*
X12374999Y1372199D03*
X13025001Y1372199D03*
X13674999Y1372199D03*
X14325001Y1372199D03*
X14974999Y1372199D03*
X15625001Y1372199D03*
X16274999Y1372199D03*
X16925000Y1372199D03*
X17574999Y1372199D03*
X18225000Y1372199D03*
%TD*%
D27*
%TO.C,U4*%
X-19876800Y40005000D03*
X-19876800Y38735000D03*
X-19876800Y37465000D03*
X-19876800Y36195000D03*
X-19876800Y34925000D03*
X-19876800Y33655000D03*
X-19876800Y32385000D03*
X-19876800Y31115000D03*
X-10123200Y31115000D03*
X-10123200Y32385000D03*
X-10123200Y33655000D03*
X-10123200Y34925000D03*
X-10123200Y36195000D03*
X-10123200Y37465000D03*
X-10123200Y38735000D03*
X-10123200Y40005000D03*
%TD*%
D18*
%TO.C,J2*%
X-16556000Y4500008D03*
X-16556000Y5500006D03*
X-16556000Y6500004D03*
X-16556000Y7500002D03*
X-16556000Y8500000D03*
X-16556000Y9500000D03*
X-16556000Y10500000D03*
X-16556000Y11500000D03*
X-16556000Y12499998D03*
X-16556000Y13499996D03*
X-16556000Y14499994D03*
X-16556000Y15499992D03*
D19*
X-14385999Y2149997D03*
X-14385999Y17850003D03*
%TD*%
D28*
%TO.C,R1*%
X12825000Y15000000D03*
X11175000Y15000000D03*
%TD*%
D22*
%TO.C,C2*%
X-7145000Y40145000D03*
X-7145000Y38595000D03*
%TD*%
D29*
%TO.C,PE1*%
X22000000Y-46000000D03*
%TD*%
D30*
%TO.C,U2*%
X-38000000Y18000000D03*
%TD*%
%TO.C,U5*%
X-38000000Y-10000000D03*
%TD*%
M02*
