%TF.GenerationSoftware,KiCad,Pcbnew,8.0.4-8.0.4-0~ubuntu22.04.1*%
%TF.CreationDate,2024-08-10T20:12:59+03:00*%
%TF.ProjectId,PM-CPU-RP,504d2d43-5055-42d5-9250-2e6b69636164,rev?*%
%TF.SameCoordinates,Original*%
%TF.FileFunction,Soldermask,Top*%
%TF.FilePolarity,Negative*%
%FSLAX46Y46*%
G04 Gerber Fmt 4.6, Leading zero omitted, Abs format (unit mm)*
G04 Created by KiCad (PCBNEW 8.0.4-8.0.4-0~ubuntu22.04.1) date 2024-08-10 20:12:59*
%MOMM*%
%LPD*%
G01*
G04 APERTURE LIST*
G04 Aperture macros list*
%AMRoundRect*
0 Rectangle with rounded corners*
0 $1 Rounding radius*
0 $2 $3 $4 $5 $6 $7 $8 $9 X,Y pos of 4 corners*
0 Add a 4 corners polygon primitive as box body*
4,1,4,$2,$3,$4,$5,$6,$7,$8,$9,$2,$3,0*
0 Add four circle primitives for the rounded corners*
1,1,$1+$1,$2,$3*
1,1,$1+$1,$4,$5*
1,1,$1+$1,$6,$7*
1,1,$1+$1,$8,$9*
0 Add four rect primitives between the rounded corners*
20,1,$1+$1,$2,$3,$4,$5,0*
20,1,$1+$1,$4,$5,$6,$7,0*
20,1,$1+$1,$6,$7,$8,$9,0*
20,1,$1+$1,$8,$9,$2,$3,0*%
G04 Aperture macros list end*
%ADD10O,6.350000X6.350000*%
%ADD11R,1.700000X1.700000*%
%ADD12O,1.700000X1.700000*%
%ADD13C,6.000000*%
%ADD14R,3.000000X1.000000*%
%ADD15C,3.200000*%
%ADD16R,3.500000X3.500000*%
%ADD17C,3.500000*%
%ADD18RoundRect,0.250000X1.450000X-0.537500X1.450000X0.537500X-1.450000X0.537500X-1.450000X-0.537500X0*%
%ADD19RoundRect,0.250000X0.400000X0.625000X-0.400000X0.625000X-0.400000X-0.625000X0.400000X-0.625000X0*%
G04 APERTURE END LIST*
D10*
%TO.C,PE1*%
X44450000Y-146050000D03*
%TD*%
D11*
%TO.C,J2*%
X40640000Y-96520000D03*
D12*
X43180000Y-96520000D03*
X40640000Y-99060000D03*
X43180000Y-99060000D03*
X40640000Y-101600000D03*
X43180000Y-101600000D03*
X40640000Y-104140000D03*
X43180000Y-104140000D03*
%TD*%
D13*
%TO.C,D1*%
X52600000Y-69000000D03*
X52600000Y-127000000D03*
X101600000Y-69000000D03*
X101600000Y-127000000D03*
D14*
X55120000Y-73930000D03*
X50080000Y-73930000D03*
X55120000Y-76470000D03*
X50080000Y-76470000D03*
X55120000Y-79010000D03*
X50080000Y-79010000D03*
X55120000Y-81550000D03*
X50080000Y-81550000D03*
X55120000Y-84090000D03*
X50080000Y-84090000D03*
X55120000Y-86630000D03*
X50080000Y-86630000D03*
X55120000Y-89170000D03*
X50080000Y-89170000D03*
X55120000Y-91710000D03*
X50080000Y-91710000D03*
X55120000Y-94250000D03*
X50080000Y-94250000D03*
X55120000Y-96790000D03*
X50080000Y-96790000D03*
X55120000Y-99330000D03*
X50080000Y-99330000D03*
X55120000Y-101870000D03*
X50080000Y-101870000D03*
X55120000Y-104410000D03*
X50080000Y-104410000D03*
X55120000Y-106950000D03*
X50080000Y-106950000D03*
X55120000Y-109490000D03*
X50080000Y-109490000D03*
X55120000Y-112030000D03*
X50080000Y-112030000D03*
X55120000Y-114570000D03*
X50080000Y-114570000D03*
X55120000Y-117110000D03*
X50080000Y-117110000D03*
X55120000Y-119650000D03*
X50080000Y-119650000D03*
X55120000Y-122190000D03*
X50080000Y-122190000D03*
%TD*%
D15*
%TO.C,H1*%
X44450000Y-54610000D03*
%TD*%
D11*
%TO.C,J1*%
X120650000Y-95250000D03*
D12*
X120650000Y-97790000D03*
X120650000Y-100330000D03*
X120650000Y-102870000D03*
X120650000Y-105410000D03*
%TD*%
D16*
%TO.C,J8*%
X30480000Y-97790000D03*
D17*
X30480000Y-102870000D03*
%TD*%
D18*
%TO.C,C1*%
X43180000Y-135487500D03*
X43180000Y-131212500D03*
%TD*%
D15*
%TO.C,H3*%
X120650000Y-146050000D03*
%TD*%
D19*
%TO.C,R2*%
X44730000Y-81280000D03*
X41630000Y-81280000D03*
%TD*%
%TO.C,R1*%
X44730000Y-76200000D03*
X41630000Y-76200000D03*
%TD*%
D15*
%TO.C,H2*%
X120650000Y-54610000D03*
%TD*%
M02*
