M48
; DRILL file {KiCad 9.0.6} date 2025-12-07T15:00:32+0300
; FORMAT={-:-/ absolute / metric / decimal}
; #@! TF.CreationDate,2025-12-07T15:00:32+03:00
; #@! TF.GenerationSoftware,Kicad,Pcbnew,9.0.6
; #@! TF.FileFunction,Plated,1,2,PTH
FMAT,2
METRIC
; #@! TA.AperFunction,Plated,PTH,ViaDrill
T1C0.300
; #@! TA.AperFunction,Plated,PTH,ViaDrill
T2C0.400
; #@! TA.AperFunction,Plated,PTH,ComponentDrill
T3C0.600
; #@! TA.AperFunction,Plated,PTH,ComponentDrill
T4C1.400
; #@! TA.AperFunction,Plated,PTH,ComponentDrill
T5C2.200
; #@! TA.AperFunction,Plated,PTH,ComponentDrill
T6C4.300
%
G90
G05
T1
X-31.5Y40.0
X-31.5Y38.5
X-30.0Y40.0
X-30.0Y38.5
X-28.0Y9.0
X-26.5Y-4.456
X-26.5Y-5.756
X-25.0Y14.0
X-23.5Y8.5
X-3.6Y3.2
X-3.6Y1.5
X-3.5Y5.5
X-2.25Y-2.0
X-2.0Y6.5
X-1.25Y-2.0
X-0.405Y-1.595
X0.5Y-1.5
X1.0Y34.5
X1.0Y15.0
X1.0Y-15.0
X1.0Y-32.5
X2.0Y33.5
X2.0Y14.5
X2.0Y-14.5
X2.0Y-31.5
X3.0Y32.5
X3.0Y14.0
X3.0Y-14.0
X3.0Y-30.5
X4.0Y31.5
X4.0Y13.5
X4.0Y-13.5
X4.0Y-29.5
X5.0Y30.5
X5.0Y13.0
X5.0Y-13.0
X5.0Y-28.5
X6.0Y29.5
X6.0Y12.5
X6.0Y-12.5
X6.0Y-27.5
X7.0Y28.5
X7.0Y12.0
X7.0Y-12.0
X7.0Y-26.5
X8.0Y27.5
X8.0Y11.5
X8.0Y-11.5
X8.0Y-25.5
X16.0Y-31.0
X16.0Y-33.0
X17.0Y-32.0
X18.0Y-31.0
X18.0Y-33.0
X20.0Y27.0
X20.0Y20.0
X20.0Y13.0
X20.25Y-9.5
X20.25Y-16.5
X20.25Y-22.75
X24.25Y21.75
X24.25Y14.75
X24.25Y7.75
X24.25Y-7.75
X24.25Y-14.75
X24.25Y-21.75
T2
X-36.0Y6.0
X-35.0Y29.5
X-35.0Y28.5
X-35.0Y27.5
X-35.0Y26.5
X-35.0Y25.5
X-35.0Y24.5
X-35.0Y23.5
X-35.0Y22.5
X-35.0Y21.5
X-35.0Y20.5
X-35.0Y19.5
X-35.0Y18.5
X-35.0Y17.5
X-35.0Y16.5
X-35.0Y15.5
X-35.0Y14.5
X-35.0Y13.5
X-35.0Y12.5
X-35.0Y11.5
X-35.0Y10.5
X-35.0Y6.0
X-34.0Y27.5
X-34.0Y26.5
X-34.0Y25.5
X-34.0Y24.5
X-34.0Y6.0
X-33.0Y27.5
X-33.0Y26.5
X-33.0Y25.5
X-33.0Y24.5
X-33.0Y6.0
X-32.0Y33.0
X-32.0Y32.0
X-32.0Y31.0
X-13.036Y-34.536
X-11.851Y32.5
X-3.0Y-21.0
X-3.0Y-22.0
X-3.0Y-23.0
X4.0Y1.0
X4.0Y-1.0
X5.0Y0.0
X6.0Y1.0
X6.0Y-1.0
X9.0Y14.547
X9.0Y-14.75
T3
X-38.225Y45.0
X-38.225Y-45.0
X-37.28Y47.28
X-37.28Y42.72
X-37.28Y-42.72
X-37.28Y-47.28
X-35.0Y48.225
X-35.0Y41.775
X-35.0Y-41.775
X-35.0Y-48.225
X-32.72Y47.28
X-32.72Y42.72
X-32.72Y-42.72
X-32.72Y-47.28
X-31.775Y45.0
X-31.775Y-45.0
X18.775Y45.0
X18.775Y-45.0
X19.72Y47.28
X19.72Y42.72
X19.72Y-42.72
X19.72Y-47.28
X22.0Y48.225
X22.0Y41.775
X22.0Y-41.775
X22.0Y-48.225
X24.28Y47.28
X24.28Y42.72
X24.28Y-42.72
X24.28Y-47.28
X25.225Y45.0
X25.225Y-45.0
T4
X32.0Y27.0
X32.0Y23.5
X32.0Y20.0
X32.0Y16.5
X32.0Y13.0
X32.0Y9.5
X32.0Y6.0
X32.0Y2.5
X32.0Y-2.5
X32.0Y-6.0
X32.0Y-9.5
X32.0Y-13.0
X32.0Y-16.5
X32.0Y-20.0
X32.0Y-23.5
X32.0Y-27.0
X32.0Y-32.0
X32.0Y-35.5
X32.0Y-39.0
T5
X-37.0Y37.0
X-37.0Y-37.0
X-9.0Y45.0
X-9.0Y-45.0
X13.0Y45.0
X13.0Y-45.0
X37.0Y45.0
X37.0Y-45.0
T6
X-35.0Y45.0
X-35.0Y-45.0
X22.0Y45.0
X22.0Y-45.0
M30
