%TF.GenerationSoftware,KiCad,Pcbnew,8.0.7-8.0.7-0~ubuntu24.04.1*%
%TF.CreationDate,2025-01-20T15:28:16+03:00*%
%TF.ProjectId,PM-DQ16-source,504d2d44-5131-4362-9d73-6f757263652e,rev?*%
%TF.SameCoordinates,Original*%
%TF.FileFunction,Copper,L1,Top*%
%TF.FilePolarity,Positive*%
%FSLAX46Y46*%
G04 Gerber Fmt 4.6, Leading zero omitted, Abs format (unit mm)*
G04 Created by KiCad (PCBNEW 8.0.7-8.0.7-0~ubuntu24.04.1) date 2025-01-20 15:28:16*
%MOMM*%
%LPD*%
G01*
G04 APERTURE LIST*
G04 Aperture macros list*
%AMRoundRect*
0 Rectangle with rounded corners*
0 $1 Rounding radius*
0 $2 $3 $4 $5 $6 $7 $8 $9 X,Y pos of 4 corners*
0 Add a 4 corners polygon primitive as box body*
4,1,4,$2,$3,$4,$5,$6,$7,$8,$9,$2,$3,0*
0 Add four circle primitives for the rounded corners*
1,1,$1+$1,$2,$3*
1,1,$1+$1,$4,$5*
1,1,$1+$1,$6,$7*
1,1,$1+$1,$8,$9*
0 Add four rect primitives between the rounded corners*
20,1,$1+$1,$2,$3,$4,$5,0*
20,1,$1+$1,$4,$5,$6,$7,0*
20,1,$1+$1,$6,$7,$8,$9,0*
20,1,$1+$1,$8,$9,$2,$3,0*%
G04 Aperture macros list end*
%TA.AperFunction,ComponentPad*%
%ADD10C,2.200000*%
%TD*%
%TA.AperFunction,SMDPad,CuDef*%
%ADD11R,1.716000X0.450800*%
%TD*%
%TA.AperFunction,ComponentPad*%
%ADD12C,2.350000*%
%TD*%
%TA.AperFunction,SMDPad,CuDef*%
%ADD13R,0.800000X0.500000*%
%TD*%
%TA.AperFunction,SMDPad,CuDef*%
%ADD14R,0.800000X0.400000*%
%TD*%
%TA.AperFunction,SMDPad,CuDef*%
%ADD15RoundRect,0.225000X0.225000X0.250000X-0.225000X0.250000X-0.225000X-0.250000X0.225000X-0.250000X0*%
%TD*%
%TA.AperFunction,SMDPad,CuDef*%
%ADD16RoundRect,0.225000X-0.225000X-0.250000X0.225000X-0.250000X0.225000X0.250000X-0.225000X0.250000X0*%
%TD*%
%TA.AperFunction,SMDPad,CuDef*%
%ADD17RoundRect,0.225000X-0.250000X0.225000X-0.250000X-0.225000X0.250000X-0.225000X0.250000X0.225000X0*%
%TD*%
%TA.AperFunction,SMDPad,CuDef*%
%ADD18RoundRect,0.150000X-0.150000X0.875000X-0.150000X-0.875000X0.150000X-0.875000X0.150000X0.875000X0*%
%TD*%
%TA.AperFunction,SMDPad,CuDef*%
%ADD19R,1.803400X0.635000*%
%TD*%
%TA.AperFunction,SMDPad,CuDef*%
%ADD20R,2.997200X2.590800*%
%TD*%
%TA.AperFunction,SMDPad,CuDef*%
%ADD21R,1.854200X0.482600*%
%TD*%
%TA.AperFunction,SMDPad,CuDef*%
%ADD22RoundRect,0.200000X0.275000X-0.200000X0.275000X0.200000X-0.275000X0.200000X-0.275000X-0.200000X0*%
%TD*%
%TA.AperFunction,SMDPad,CuDef*%
%ADD23R,0.482600X1.854200*%
%TD*%
%TA.AperFunction,ComponentPad*%
%ADD24O,6.350000X6.350000*%
%TD*%
%TA.AperFunction,ViaPad*%
%ADD25C,0.600000*%
%TD*%
%TA.AperFunction,Conductor*%
%ADD26C,0.500000*%
%TD*%
%TA.AperFunction,Conductor*%
%ADD27C,2.000000*%
%TD*%
%TA.AperFunction,Conductor*%
%ADD28C,0.200000*%
%TD*%
G04 APERTURE END LIST*
D10*
%TO.P,J6,5,Pin_5*%
%TO.N,GND_ISO*%
X25000000Y-29000000D03*
%TO.P,J6,4,Pin_4*%
X25000000Y-32500000D03*
%TO.P,J6,3,Pin_3*%
X25000000Y-36000000D03*
%TO.P,J6,2,Pin_2*%
%TO.N,/PE*%
X25000000Y-39500000D03*
%TO.P,J6,1,Pin_1*%
X25000000Y-43000000D03*
%TD*%
D11*
%TO.P,U6,1,I1*%
%TO.N,/a.0_in*%
X10389202Y25400000D03*
%TO.P,U6,2,I2*%
%TO.N,/a.1_in*%
X10389202Y24130000D03*
%TO.P,U6,3,I3*%
%TO.N,/a.2_in*%
X10389202Y22860000D03*
%TO.P,U6,4,I4*%
%TO.N,/a.3_in*%
X10389202Y21590000D03*
%TO.P,U6,5,I5*%
%TO.N,/a.4_in*%
X10389202Y20320000D03*
%TO.P,U6,6,I6*%
%TO.N,/a.5_in*%
X10389202Y19050000D03*
%TO.P,U6,7,I7*%
%TO.N,/a.6_in*%
X10389202Y17780000D03*
%TO.P,U6,8,I8*%
%TO.N,/a.7_in*%
X10389202Y16510000D03*
%TO.P,U6,9,VCC*%
%TO.N,Net-(U6-VCC)*%
X10389202Y15240000D03*
%TO.P,U6,10,GND*%
%TO.N,GND_ISO*%
X20090798Y15240000D03*
%TO.P,U6,11,O8*%
%TO.N,/a.7_out*%
X20090798Y16510000D03*
%TO.P,U6,12,O7*%
%TO.N,/a.6_out*%
X20090798Y17780000D03*
%TO.P,U6,13,O6*%
%TO.N,/a.5_out*%
X20090798Y19050000D03*
%TO.P,U6,14,O5*%
%TO.N,/a.4_out*%
X20090798Y20320000D03*
%TO.P,U6,15,O4*%
%TO.N,/a.3_out*%
X20090798Y21590000D03*
%TO.P,U6,16,O3*%
%TO.N,/a.2_out*%
X20090798Y22860000D03*
%TO.P,U6,17,O2*%
%TO.N,/a.1_out*%
X20090798Y24130000D03*
%TO.P,U6,18,O1*%
%TO.N,/a.0_out*%
X20090798Y25400000D03*
%TD*%
D10*
%TO.P,J5,1,Pin_1*%
%TO.N,/b.7_out*%
X25000000Y-24500000D03*
%TO.P,J5,2,Pin_2*%
%TO.N,/b.6_out*%
X25000000Y-21000000D03*
%TO.P,J5,3,Pin_3*%
%TO.N,/b.5_out*%
X25000000Y-17500000D03*
%TO.P,J5,4,Pin_4*%
%TO.N,/b.4_out*%
X25000000Y-14000000D03*
%TO.P,J5,5,Pin_5*%
%TO.N,/b.3_out*%
X25000000Y-10500000D03*
%TO.P,J5,6,Pin_6*%
%TO.N,/b.2_out*%
X25000000Y-7000000D03*
%TO.P,J5,7,Pin_7*%
%TO.N,/b.1_out*%
X25000000Y-3500000D03*
%TO.P,J5,8,Pin_8*%
%TO.N,/b.0_out*%
X25000000Y0D03*
%TO.P,J5,9,Pin_9*%
%TO.N,+V_b*%
X25000000Y3500000D03*
%TO.P,J5,10,Pin_10*%
X25000000Y7000000D03*
%TD*%
%TO.P,J3,1,Pin_1*%
%TO.N,/a.7_out*%
X25000000Y11500000D03*
%TO.P,J3,2,Pin_2*%
%TO.N,/a.6_out*%
X25000000Y15000000D03*
%TO.P,J3,3,Pin_3*%
%TO.N,/a.5_out*%
X25000000Y18500000D03*
%TO.P,J3,4,Pin_4*%
%TO.N,/a.4_out*%
X25000000Y22000000D03*
%TO.P,J3,5,Pin_5*%
%TO.N,/a.3_out*%
X25000000Y25500000D03*
%TO.P,J3,6,Pin_6*%
%TO.N,/a.2_out*%
X25000000Y29000000D03*
%TO.P,J3,7,Pin_7*%
%TO.N,/a.1_out*%
X25000000Y32500000D03*
%TO.P,J3,8,Pin_8*%
%TO.N,/a.0_out*%
X25000000Y36000000D03*
%TO.P,J3,9,Pin_9*%
%TO.N,+V_a*%
X25000000Y39500000D03*
%TO.P,J3,10,Pin_10*%
X25000000Y43000000D03*
%TD*%
D12*
%TO.P,U8,1,1*%
%TO.N,Net-(U6-VCC)*%
X-5080000Y28060000D03*
%TO.P,U8,2,2*%
%TO.N,+V_a*%
X-5080000Y43060000D03*
%TD*%
D13*
%TO.P,RN3,1,R1.1*%
%TO.N,Net-(J4-Pin_9)*%
X-16140000Y-6420000D03*
D14*
%TO.P,RN3,2,R2.1*%
%TO.N,Net-(J4-Pin_8)*%
X-16140000Y-7220000D03*
%TO.P,RN3,3,R3.1*%
%TO.N,Net-(J4-Pin_7)*%
X-16140000Y-8020000D03*
D13*
%TO.P,RN3,4,R4.1*%
%TO.N,Net-(J4-Pin_6)*%
X-16140000Y-8820000D03*
%TO.P,RN3,5,R4.2*%
%TO.N,/b.3_in*%
X-14340000Y-8820000D03*
D14*
%TO.P,RN3,6,R3.2*%
%TO.N,/b.2_in*%
X-14340000Y-8020000D03*
%TO.P,RN3,7,R2.2*%
%TO.N,/b.1_in*%
X-14340000Y-7220000D03*
D13*
%TO.P,RN3,8,R1.2*%
%TO.N,/b.0_in*%
X-14340000Y-6420000D03*
%TD*%
D15*
%TO.P,C7,1*%
%TO.N,+5V_ISO*%
X-1765000Y12700000D03*
%TO.P,C7,2*%
%TO.N,GND_ISO*%
X-3315000Y12700000D03*
%TD*%
D13*
%TO.P,RN4,1,R1.1*%
%TO.N,Net-(J4-Pin_5)*%
X-16140000Y-11500000D03*
D14*
%TO.P,RN4,2,R2.1*%
%TO.N,Net-(J4-Pin_4)*%
X-16140000Y-12300000D03*
%TO.P,RN4,3,R3.1*%
%TO.N,Net-(J4-Pin_3)*%
X-16140000Y-13100000D03*
D13*
%TO.P,RN4,4,R4.1*%
%TO.N,Net-(J4-Pin_2)*%
X-16140000Y-13900000D03*
%TO.P,RN4,5,R4.2*%
%TO.N,/b.7_in*%
X-14340000Y-13900000D03*
D14*
%TO.P,RN4,6,R3.2*%
%TO.N,/b.6_in*%
X-14340000Y-13100000D03*
%TO.P,RN4,7,R2.2*%
%TO.N,/b.5_in*%
X-14340000Y-12300000D03*
D13*
%TO.P,RN4,8,R1.2*%
%TO.N,/b.4_in*%
X-14340000Y-11500000D03*
%TD*%
D16*
%TO.P,C5,1*%
%TO.N,+5V_ISO*%
X-41415000Y-5080000D03*
%TO.P,C5,2*%
%TO.N,GND_ISO*%
X-39865000Y-5080000D03*
%TD*%
D17*
%TO.P,C1,1*%
%TO.N,+3.3V*%
X-33655000Y40145000D03*
%TO.P,C1,2*%
%TO.N,GND*%
X-33655000Y38595000D03*
%TD*%
D12*
%TO.P,U9,1,1*%
%TO.N,Net-(U7-VCC)*%
X-5080000Y-28060000D03*
%TO.P,U9,2,2*%
%TO.N,+V_b*%
X-5080000Y-43060000D03*
%TD*%
D13*
%TO.P,RN2,1,R1.1*%
%TO.N,Net-(J2-Pin_5)*%
X-16140000Y8820000D03*
D14*
%TO.P,RN2,2,R2.1*%
%TO.N,Net-(J2-Pin_4)*%
X-16140000Y8020000D03*
%TO.P,RN2,3,R3.1*%
%TO.N,Net-(J2-Pin_3)*%
X-16140000Y7220000D03*
D13*
%TO.P,RN2,4,R4.1*%
%TO.N,Net-(J2-Pin_2)*%
X-16140000Y6420000D03*
%TO.P,RN2,5,R4.2*%
%TO.N,/a.7_in*%
X-14340000Y6420000D03*
D14*
%TO.P,RN2,6,R3.2*%
%TO.N,/a.6_in*%
X-14340000Y7220000D03*
%TO.P,RN2,7,R2.2*%
%TO.N,/a.5_in*%
X-14340000Y8020000D03*
D13*
%TO.P,RN2,8,R1.2*%
%TO.N,/a.4_in*%
X-14340000Y8820000D03*
%TD*%
D11*
%TO.P,U7,1,I1*%
%TO.N,/b.0_in*%
X10389202Y-5080000D03*
%TO.P,U7,2,I2*%
%TO.N,/b.1_in*%
X10389202Y-6350000D03*
%TO.P,U7,3,I3*%
%TO.N,/b.2_in*%
X10389202Y-7620000D03*
%TO.P,U7,4,I4*%
%TO.N,/b.3_in*%
X10389202Y-8890000D03*
%TO.P,U7,5,I5*%
%TO.N,/b.4_in*%
X10389202Y-10160000D03*
%TO.P,U7,6,I6*%
%TO.N,/b.5_in*%
X10389202Y-11430000D03*
%TO.P,U7,7,I7*%
%TO.N,/b.6_in*%
X10389202Y-12700000D03*
%TO.P,U7,8,I8*%
%TO.N,/b.7_in*%
X10389202Y-13970000D03*
%TO.P,U7,9,VCC*%
%TO.N,Net-(U7-VCC)*%
X10389202Y-15240000D03*
%TO.P,U7,10,GND*%
%TO.N,GND_ISO*%
X20090798Y-15240000D03*
%TO.P,U7,11,O8*%
%TO.N,/b.7_out*%
X20090798Y-13970000D03*
%TO.P,U7,12,O7*%
%TO.N,/b.6_out*%
X20090798Y-12700000D03*
%TO.P,U7,13,O6*%
%TO.N,/b.5_out*%
X20090798Y-11430000D03*
%TO.P,U7,14,O5*%
%TO.N,/b.4_out*%
X20090798Y-10160000D03*
%TO.P,U7,15,O4*%
%TO.N,/b.3_out*%
X20090798Y-8890000D03*
%TO.P,U7,16,O3*%
%TO.N,/b.2_out*%
X20090798Y-7620000D03*
%TO.P,U7,17,O2*%
%TO.N,/b.1_out*%
X20090798Y-6350000D03*
%TO.P,U7,18,O1*%
%TO.N,/b.0_out*%
X20090798Y-5080000D03*
%TD*%
D16*
%TO.P,C3,1*%
%TO.N,+5V*%
X-41415000Y15240000D03*
%TO.P,C3,2*%
%TO.N,GND*%
X-39865000Y15240000D03*
%TD*%
D18*
%TO.P,U3,1,GPB0*%
%TO.N,/a.7_in*%
X8255000Y9730000D03*
%TO.P,U3,2,GPB1*%
%TO.N,/a.6_in*%
X6985000Y9730000D03*
%TO.P,U3,3,GPB2*%
%TO.N,/a.5_in*%
X5715000Y9730000D03*
%TO.P,U3,4,GPB3*%
%TO.N,/a.4_in*%
X4445000Y9730000D03*
%TO.P,U3,5,GPB4*%
%TO.N,/a.3_in*%
X3175000Y9730000D03*
%TO.P,U3,6,GPB5*%
%TO.N,/a.2_in*%
X1905000Y9730000D03*
%TO.P,U3,7,GPB6*%
%TO.N,/a.1_in*%
X635000Y9730000D03*
%TO.P,U3,8,GPB7*%
%TO.N,/a.0_in*%
X-635000Y9730000D03*
%TO.P,U3,9,VDD*%
%TO.N,+5V_ISO*%
X-1905000Y9730000D03*
%TO.P,U3,10,VSS*%
%TO.N,GND_ISO*%
X-3175000Y9730000D03*
%TO.P,U3,11,~{CS}*%
%TO.N,/CS_ISO*%
X-4445000Y9730000D03*
%TO.P,U3,12,SCK*%
%TO.N,/SCK_ISO*%
X-5715000Y9730000D03*
%TO.P,U3,13,SI*%
%TO.N,/MOSI_ISO*%
X-6985000Y9730000D03*
%TO.P,U3,14,SO*%
%TO.N,/MISO_ISO*%
X-8255000Y9730000D03*
%TO.P,U3,15,A0*%
%TO.N,GND_ISO*%
X-8255000Y430000D03*
%TO.P,U3,16,A1*%
X-6985000Y430000D03*
%TO.P,U3,17,A2*%
X-5715000Y430000D03*
%TO.P,U3,18,~{RESET}*%
%TO.N,+5V_ISO*%
X-4445000Y430000D03*
%TO.P,U3,19,INTB*%
%TO.N,unconnected-(U3-INTB-Pad19)*%
X-3175000Y430000D03*
%TO.P,U3,20,INTA*%
%TO.N,unconnected-(U3-INTA-Pad20)*%
X-1905000Y430000D03*
%TO.P,U3,21,GPA0*%
%TO.N,/b.7_in*%
X-635000Y430000D03*
%TO.P,U3,22,GPA1*%
%TO.N,/b.6_in*%
X635000Y430000D03*
%TO.P,U3,23,GPA2*%
%TO.N,/b.5_in*%
X1905000Y430000D03*
%TO.P,U3,24,GPA3*%
%TO.N,/b.4_in*%
X3175000Y430000D03*
%TO.P,U3,25,GPA4*%
%TO.N,/b.3_in*%
X4445000Y430000D03*
%TO.P,U3,26,GPA5*%
%TO.N,/b.2_in*%
X5715000Y430000D03*
%TO.P,U3,27,GPA6*%
%TO.N,/b.1_in*%
X6985000Y430000D03*
%TO.P,U3,28,GPA7*%
%TO.N,/b.0_in*%
X8255000Y430000D03*
%TD*%
D13*
%TO.P,RN1,1,R1.1*%
%TO.N,Net-(J2-Pin_9)*%
X-16140000Y13900000D03*
D14*
%TO.P,RN1,2,R2.1*%
%TO.N,Net-(J2-Pin_8)*%
X-16140000Y13100000D03*
%TO.P,RN1,3,R3.1*%
%TO.N,Net-(J2-Pin_7)*%
X-16140000Y12300000D03*
D13*
%TO.P,RN1,4,R4.1*%
%TO.N,Net-(J2-Pin_6)*%
X-16140000Y11500000D03*
%TO.P,RN1,5,R4.2*%
%TO.N,/a.3_in*%
X-14340000Y11500000D03*
D14*
%TO.P,RN1,6,R3.2*%
%TO.N,/a.2_in*%
X-14340000Y12300000D03*
%TO.P,RN1,7,R2.2*%
%TO.N,/a.1_in*%
X-14340000Y13100000D03*
D13*
%TO.P,RN1,8,R1.2*%
%TO.N,/a.0_in*%
X-14340000Y13900000D03*
%TD*%
D16*
%TO.P,C4,1*%
%TO.N,+5V*%
X-41415000Y13335000D03*
%TO.P,C4,2*%
%TO.N,GND*%
X-39865000Y13335000D03*
%TD*%
D19*
%TO.P,J1,1,Pin_1*%
%TO.N,GND*%
X-42556000Y25500009D03*
%TO.P,J1,2,Pin_2*%
%TO.N,/CS3*%
X-42556000Y26500007D03*
%TO.P,J1,3,Pin_3*%
%TO.N,/CS2*%
X-42556000Y27500005D03*
%TO.P,J1,4,Pin_4*%
%TO.N,/CS1*%
X-42556000Y28500003D03*
%TO.P,J1,5,Pin_5*%
%TO.N,/CS0*%
X-42556000Y29500001D03*
%TO.P,J1,6,Pin_6*%
%TO.N,/SCK*%
X-42556000Y30499999D03*
%TO.P,J1,7,Pin_7*%
%TO.N,/MISO*%
X-42556000Y31499997D03*
%TO.P,J1,8,Pin_8*%
%TO.N,/MOSI*%
X-42556000Y32499995D03*
%TO.P,J1,9,Pin_9*%
%TO.N,+3.3V*%
X-42556000Y33499993D03*
%TO.P,J1,10,Pin_10*%
%TO.N,+5V*%
X-42556000Y34499991D03*
D20*
%TO.P,J1,11,Pin_11*%
%TO.N,GND*%
X-40385999Y23149998D03*
X-40385999Y36850002D03*
%TD*%
D21*
%TO.P,U4,1,VDD*%
%TO.N,+3.3V*%
X-30276800Y40005000D03*
%TO.P,U4,2,GNDA*%
%TO.N,GND*%
X-30276800Y38735000D03*
%TO.P,U4,3,VI1*%
%TO.N,/MOSI*%
X-30276800Y37465000D03*
%TO.P,U4,4,VI2*%
%TO.N,/SCK*%
X-30276800Y36195000D03*
%TO.P,U4,5,VI3*%
%TO.N,/CS*%
X-30276800Y34925000D03*
%TO.P,U4,6,VO4*%
%TO.N,/MISO*%
X-30276800Y33655000D03*
%TO.P,U4,7,ENA*%
%TO.N,+3.3V*%
X-30276800Y32385000D03*
%TO.P,U4,8,GNDA*%
%TO.N,GND*%
X-30276800Y31115000D03*
%TO.P,U4,9,GNDB*%
%TO.N,GND_ISO*%
X-20523200Y31115000D03*
%TO.P,U4,10,ENB*%
%TO.N,+5V_ISO*%
X-20523200Y32385000D03*
%TO.P,U4,11,VI4*%
%TO.N,/MISO_ISO*%
X-20523200Y33655000D03*
%TO.P,U4,12,VO3*%
%TO.N,/CS_ISO*%
X-20523200Y34925000D03*
%TO.P,U4,13,VO2*%
%TO.N,/SCK_ISO*%
X-20523200Y36195000D03*
%TO.P,U4,14,VO1*%
%TO.N,/MOSI_ISO*%
X-20523200Y37465000D03*
%TO.P,U4,15,GNDB*%
%TO.N,GND_ISO*%
X-20523200Y38735000D03*
%TO.P,U4,16,VISO*%
%TO.N,+5V_ISO*%
X-20523200Y40005000D03*
%TD*%
D16*
%TO.P,C6,1*%
%TO.N,+5V_ISO*%
X-41415000Y-3175000D03*
%TO.P,C6,2*%
%TO.N,GND_ISO*%
X-39865000Y-3175000D03*
%TD*%
D22*
%TO.P,R1,1*%
%TO.N,+3.3V*%
X-33655000Y32195000D03*
%TO.P,R1,2*%
%TO.N,/CS*%
X-33655000Y33845000D03*
%TD*%
D23*
%TO.P,U5,1,EN*%
%TO.N,+5V*%
X-38735000Y9956800D03*
%TO.P,U5,2,GNDP*%
%TO.N,GND*%
X-40005000Y9956800D03*
%TO.P,U5,3,VINP*%
%TO.N,+5V*%
X-41275000Y9956800D03*
%TO.P,U5,4,NC*%
%TO.N,GND*%
X-42545000Y9956800D03*
%TO.P,U5,5,NC*%
X-43815000Y9956800D03*
%TO.P,U5,6,NC*%
X-45085000Y9956800D03*
%TO.P,U5,7,NC*%
X-46355000Y9956800D03*
%TO.P,U5,8,NC*%
X-47625000Y9956800D03*
%TO.P,U5,9,GNDS*%
%TO.N,GND_ISO*%
X-47625000Y203200D03*
%TO.P,U5,10,NC*%
X-46355000Y203200D03*
%TO.P,U5,11,NC*%
X-45085000Y203200D03*
%TO.P,U5,12,NC*%
X-43815000Y203200D03*
%TO.P,U5,13,SEL*%
%TO.N,+5V_ISO*%
X-42545000Y203200D03*
%TO.P,U5,14,VISO*%
X-41275000Y203200D03*
%TO.P,U5,15,GNDS*%
%TO.N,GND_ISO*%
X-40005000Y203200D03*
%TO.P,U5,16,GNDS*%
X-38735000Y203200D03*
%TD*%
D17*
%TO.P,C2,1*%
%TO.N,+5V_ISO*%
X-17145000Y40145000D03*
%TO.P,C2,2*%
%TO.N,GND_ISO*%
X-17145000Y38595000D03*
%TD*%
D19*
%TO.P,J2,1,Pin_1*%
%TO.N,unconnected-(J2-Pin_1-Pad1)*%
X-26556000Y5500009D03*
%TO.P,J2,2,Pin_2*%
%TO.N,Net-(J2-Pin_2)*%
X-26556000Y6500007D03*
%TO.P,J2,3,Pin_3*%
%TO.N,Net-(J2-Pin_3)*%
X-26556000Y7500005D03*
%TO.P,J2,4,Pin_4*%
%TO.N,Net-(J2-Pin_4)*%
X-26556000Y8500003D03*
%TO.P,J2,5,Pin_5*%
%TO.N,Net-(J2-Pin_5)*%
X-26556000Y9500001D03*
%TO.P,J2,6,Pin_6*%
%TO.N,Net-(J2-Pin_6)*%
X-26556000Y10499999D03*
%TO.P,J2,7,Pin_7*%
%TO.N,Net-(J2-Pin_7)*%
X-26556000Y11499997D03*
%TO.P,J2,8,Pin_8*%
%TO.N,Net-(J2-Pin_8)*%
X-26556000Y12499995D03*
%TO.P,J2,9,Pin_9*%
%TO.N,Net-(J2-Pin_9)*%
X-26556000Y13499993D03*
%TO.P,J2,10,Pin_10*%
%TO.N,GND_ISO*%
X-26556000Y14499991D03*
D20*
%TO.P,J2,11,Pin_11*%
X-24385999Y3149998D03*
X-24385999Y16850002D03*
%TD*%
D24*
%TO.P,PE1,1*%
%TO.N,/PE*%
X12000000Y-46000000D03*
%TD*%
D19*
%TO.P,J4,1,Pin_1*%
%TO.N,unconnected-(J4-Pin_1-Pad1)*%
X-26556000Y-14499991D03*
%TO.P,J4,2,Pin_2*%
%TO.N,Net-(J4-Pin_2)*%
X-26556000Y-13499993D03*
%TO.P,J4,3,Pin_3*%
%TO.N,Net-(J4-Pin_3)*%
X-26556000Y-12499995D03*
%TO.P,J4,4,Pin_4*%
%TO.N,Net-(J4-Pin_4)*%
X-26556000Y-11499997D03*
%TO.P,J4,5,Pin_5*%
%TO.N,Net-(J4-Pin_5)*%
X-26556000Y-10499999D03*
%TO.P,J4,6,Pin_6*%
%TO.N,Net-(J4-Pin_6)*%
X-26556000Y-9500001D03*
%TO.P,J4,7,Pin_7*%
%TO.N,Net-(J4-Pin_7)*%
X-26556000Y-8500003D03*
%TO.P,J4,8,Pin_8*%
%TO.N,Net-(J4-Pin_8)*%
X-26556000Y-7500005D03*
%TO.P,J4,9,Pin_9*%
%TO.N,Net-(J4-Pin_9)*%
X-26556000Y-6500007D03*
%TO.P,J4,10,Pin_10*%
%TO.N,GND_ISO*%
X-26556000Y-5500009D03*
D20*
%TO.P,J4,11,Pin_11*%
X-24385999Y-16850002D03*
X-24385999Y-3149998D03*
%TD*%
D25*
%TO.N,GND_ISO*%
X20320000Y-17780000D03*
X20955000Y-16510000D03*
X19685000Y-16510000D03*
%TO.N,/MOSI*%
X-44612300Y31976800D03*
%TO.N,/CS*%
X-33655000Y34770300D03*
%TO.N,/MISO*%
X-28598300Y33823000D03*
X-45050600Y31200700D03*
%TO.N,GND*%
X-39370000Y25400000D03*
X-38100000Y23495000D03*
X-39370000Y20955000D03*
X-38100000Y38100000D03*
X-42545000Y22225000D03*
X-42545000Y23495000D03*
X-39370000Y39370000D03*
X-38100000Y20955000D03*
X-32264264Y38664291D03*
X-40640000Y25400000D03*
X-38100000Y39370000D03*
X-40640000Y39370000D03*
X-38100000Y22225000D03*
X-38100000Y24765000D03*
X-42545000Y36830000D03*
X-41910000Y39370000D03*
X-41910000Y20955000D03*
X-40640000Y20955000D03*
X-42545000Y38100000D03*
%TO.N,/SCK*%
X-39629500Y30883000D03*
%TO.N,+3.3V*%
X-44016800Y33945800D03*
%TO.N,+5V*%
X-45308400Y33524000D03*
%TO.N,/CS3*%
X-45367200Y26935600D03*
%TO.N,/CS0*%
X-44169600Y29006200D03*
%TO.N,/CS1*%
X-39629500Y27941800D03*
%TO.N,/CS2*%
X-44389500Y27500000D03*
%TO.N,+5V_ISO*%
X-21823300Y23495000D03*
X-1663500Y11260400D03*
X-3843100Y2165500D03*
X-40043600Y1835200D03*
%TO.N,/SCK_ISO*%
X-6220000Y24292800D03*
X-12290800Y28602600D03*
%TO.N,/b.0_in*%
X-12700000Y-5715000D03*
X8255000Y-2540000D03*
%TO.N,/b.7_in*%
X-12700000Y-14605000D03*
X4445000Y-13970000D03*
%TO.N,/b.5_in*%
X-12700000Y-12065000D03*
X5715000Y-11430000D03*
%TO.N,/b.6_in*%
X-12700000Y-13335000D03*
X5080000Y-12700000D03*
%TO.N,/b.2_in*%
X-12700000Y-8255000D03*
X6985000Y-6985000D03*
%TO.N,/b.1_in*%
X-12700000Y-6985000D03*
X6985000Y-5080000D03*
%TO.N,/b.4_in*%
X-12700000Y-10795000D03*
X6350000Y-10160000D03*
%TO.N,/b.3_in*%
X6985000Y-8890000D03*
X-12700000Y-9525000D03*
%TD*%
D26*
%TO.N,/b.6_out*%
X20090798Y-12700000D02*
X20952208Y-12700000D01*
X20952208Y-12700000D02*
X22350000Y-14097792D01*
X22350000Y-14097792D02*
X22350000Y-18350000D01*
X22350000Y-18350000D02*
X25000000Y-21000000D01*
%TO.N,/b.4_out*%
X20090798Y-10160000D02*
X22225000Y-10160000D01*
X22225000Y-10160000D02*
X23250000Y-11185000D01*
X24315000Y-12250000D02*
X25000000Y-12935000D01*
X23250000Y-11185000D02*
X23250000Y-11224874D01*
X24275126Y-12250000D02*
X24315000Y-12250000D01*
X23250000Y-11224874D02*
X24275126Y-12250000D01*
X25000000Y-12935000D02*
X25000000Y-14000000D01*
%TO.N,/b.0_out*%
X20090798Y-5080000D02*
X20090798Y-4909202D01*
X20090798Y-4909202D02*
X25000000Y0D01*
%TO.N,/b.1_out*%
X20090798Y-6350000D02*
X22150000Y-6350000D01*
X22150000Y-6350000D02*
X25000000Y-3500000D01*
%TO.N,/b.2_out*%
X20090798Y-7620000D02*
X24380000Y-7620000D01*
X24380000Y-7620000D02*
X25000000Y-7000000D01*
%TO.N,/b.3_out*%
X20090798Y-8890000D02*
X23390000Y-8890000D01*
X23390000Y-8890000D02*
X25000000Y-10500000D01*
%TO.N,+V_b*%
X27940000Y-25034874D02*
X27940000Y560000D01*
X27940000Y560000D02*
X25000000Y3500000D01*
X-5080000Y-43060000D02*
X11730000Y-26250000D01*
X11730000Y-26250000D02*
X26724874Y-26250000D01*
X26724874Y-26250000D02*
X27940000Y-25034874D01*
D27*
X25000000Y7000000D02*
X25000000Y3500000D01*
D26*
%TO.N,/a.7_out*%
X20090798Y16510000D02*
X21448798Y16510000D01*
X21448798Y16510000D02*
X22860000Y15098798D01*
X22860000Y15098798D02*
X22860000Y13970000D01*
X22860000Y13970000D02*
X25000000Y11830000D01*
X25000000Y11830000D02*
X25000000Y11500000D01*
%TO.N,/a.6_out*%
X20090798Y17780000D02*
X22220000Y17780000D01*
X22220000Y17780000D02*
X25000000Y15000000D01*
%TO.N,/a.5_out*%
X20090798Y19050000D02*
X24450000Y19050000D01*
X24450000Y19050000D02*
X25000000Y18500000D01*
%TO.N,/a.0_out*%
X20090798Y25400000D02*
X20090798Y31090798D01*
X20090798Y31090798D02*
X25000000Y36000000D01*
%TO.N,/a.1_out*%
X20090798Y24130000D02*
X21204198Y24130000D01*
X21204198Y24130000D02*
X21598798Y24524600D01*
X21598798Y24524600D02*
X21598798Y29098798D01*
X21598798Y29098798D02*
X25000000Y32500000D01*
%TO.N,/a.2_out*%
X20090798Y22860000D02*
X21448798Y22860000D01*
X21448798Y22860000D02*
X23250000Y24661202D01*
X23250000Y24661202D02*
X23250000Y27250000D01*
X23250000Y27250000D02*
X25000000Y29000000D01*
%TO.N,/a.3_out*%
X20090798Y21590000D02*
X21451590Y21590000D01*
X21451590Y21590000D02*
X25000000Y25138410D01*
X25000000Y25138410D02*
X25000000Y25500000D01*
%TO.N,/a.4_out*%
X20090798Y20320000D02*
X23320000Y20320000D01*
X23320000Y20320000D02*
X25000000Y22000000D01*
%TO.N,+V_a*%
X-5080000Y43060000D02*
X24940000Y43060000D01*
X24940000Y43060000D02*
X25000000Y43000000D01*
D27*
X25000000Y43000000D02*
X25000000Y39500000D01*
D28*
%TO.N,/MOSI*%
X-44612300Y31976800D02*
X-44089100Y32500000D01*
X-30276800Y37465000D02*
X-35050800Y37465000D01*
X-44089100Y32500000D02*
X-42556000Y32500000D01*
X-40015800Y32500000D02*
X-42556000Y32500000D01*
X-35050800Y37465000D02*
X-40015800Y32500000D01*
%TO.N,/CS*%
X-31660300Y34770300D02*
X-31505600Y34925000D01*
X-30276800Y34925000D02*
X-31505600Y34925000D01*
X-33655000Y34770300D02*
X-33655000Y33845000D01*
X-33655000Y34770300D02*
X-31660300Y34770300D01*
%TO.N,/MISO*%
X-28599500Y33824200D02*
X-28598300Y33823000D01*
X-45050600Y31200700D02*
X-44058700Y31200700D01*
X-44058700Y31200700D02*
X-43759400Y31500000D01*
X-30276800Y33655000D02*
X-28768700Y33655000D01*
X-28768700Y33655000D02*
X-28599500Y33824200D01*
X-42556000Y31500000D02*
X-43759400Y31500000D01*
%TO.N,/SCK*%
X-40012500Y30500000D02*
X-42556000Y30500000D01*
X-34317500Y36195000D02*
X-39629500Y30883000D01*
X-30276800Y36195000D02*
X-34317500Y36195000D01*
X-39629500Y30883000D02*
X-40012500Y30500000D01*
%TO.N,+3.3V*%
X-40300000Y33500000D02*
X-33655000Y40145000D01*
X-29048000Y40005000D02*
X-29048000Y34530800D01*
X-31275800Y34317500D02*
X-31505600Y34087700D01*
X-43157700Y33500000D02*
X-42556000Y33500000D01*
X-31505600Y32385000D02*
X-33465000Y32385000D01*
X-42556000Y33500000D02*
X-40300000Y33500000D01*
X-30276800Y40005000D02*
X-29048000Y40005000D01*
X-33465000Y32385000D02*
X-33655000Y32195000D01*
X-43759400Y33500000D02*
X-43759400Y33688400D01*
X-43157700Y33500000D02*
X-43759400Y33500000D01*
X-33515000Y40005000D02*
X-33655000Y40145000D01*
X-43759400Y33688400D02*
X-44016800Y33945800D01*
X-31505600Y34087700D02*
X-31505600Y32385000D01*
X-30276800Y40005000D02*
X-33515000Y40005000D01*
X-29048000Y34530800D02*
X-29261300Y34317500D01*
X-30891200Y32385000D02*
X-30276800Y32385000D01*
X-29261300Y34317500D02*
X-31275800Y34317500D01*
X-30891200Y32385000D02*
X-31505600Y32385000D01*
%TO.N,+5V*%
X-41415000Y13335000D02*
X-41415000Y15240000D01*
X-38735000Y11185600D02*
X-41275000Y11185600D01*
X-41275000Y9956800D02*
X-41275000Y11185600D01*
X-41275000Y13195000D02*
X-41415000Y13335000D01*
X-44245600Y34586800D02*
X-45308400Y33524000D01*
X-42556000Y34500000D02*
X-42642800Y34586800D01*
X-42642800Y34586800D02*
X-44245600Y34586800D01*
X-45308400Y33524000D02*
X-45993900Y32838500D01*
X-45993900Y19818900D02*
X-41415000Y15240000D01*
X-45993900Y32838500D02*
X-45993900Y19818900D01*
X-38735000Y9956800D02*
X-38735000Y11185600D01*
X-41275000Y11185600D02*
X-41275000Y13195000D01*
%TO.N,/CS3*%
X-45367200Y26935600D02*
X-44931600Y26500000D01*
X-44931600Y26500000D02*
X-42556000Y26500000D01*
%TO.N,/CS0*%
X-43759400Y29416400D02*
X-43759400Y29500000D01*
X-42556000Y29500000D02*
X-43759400Y29500000D01*
X-44169600Y29006200D02*
X-43759400Y29416400D01*
%TO.N,/CS1*%
X-40187700Y28500000D02*
X-42556000Y28500000D01*
X-39629500Y27941800D02*
X-40187700Y28500000D01*
%TO.N,/CS2*%
X-44389500Y27500000D02*
X-42556000Y27500000D01*
%TO.N,+5V_ISO*%
X-21823300Y23495000D02*
X-21823300Y32312200D01*
X-41275000Y-411200D02*
X-41275000Y203200D01*
X-17285000Y40005000D02*
X-17145000Y40145000D01*
X-1663500Y9971500D02*
X-1663500Y11260400D01*
X-41555000Y-1025600D02*
X-41415000Y-1165600D01*
X-40446800Y1432000D02*
X-40043600Y1835200D01*
X-21823300Y32312200D02*
X-21750500Y32385000D01*
X-41415000Y-1165600D02*
X-41415000Y-3175000D01*
X-41275000Y-411200D02*
X-41275000Y-1025600D01*
X-42545000Y203200D02*
X-42545000Y-1025600D01*
X-1663500Y11260400D02*
X-1663500Y12598500D01*
X-21750500Y32385000D02*
X-21752000Y32385000D01*
X-1905000Y9730000D02*
X-1663500Y9971500D01*
X-20523200Y40005000D02*
X-21752000Y40005000D01*
X-41415000Y-3175000D02*
X-41415000Y-5080000D01*
X-20523200Y32385000D02*
X-21651100Y32385000D01*
X-4445000Y430000D02*
X-3843100Y1031900D01*
X-21651100Y32385000D02*
X-21750500Y32385000D01*
X-1663500Y12598500D02*
X-1765000Y12700000D01*
X-3843100Y1031900D02*
X-3843100Y2165500D01*
X-42545000Y-1025600D02*
X-41555000Y-1025600D01*
X-21752000Y32385000D02*
X-21752000Y40005000D01*
X-41275000Y-1025600D02*
X-41415000Y-1165600D01*
X-20523200Y40005000D02*
X-17285000Y40005000D01*
X-41275000Y1432000D02*
X-40446800Y1432000D01*
X-41275000Y203200D02*
X-41275000Y1432000D01*
%TO.N,/CS_ISO*%
X-7326300Y8398700D02*
X-5356800Y8398700D01*
X-7620000Y23081000D02*
X-7620000Y8692400D01*
X-19294400Y34755400D02*
X-7620000Y23081000D01*
X-7620000Y8692400D02*
X-7326300Y8398700D01*
X-20523200Y34925000D02*
X-19294400Y34925000D01*
X-19294400Y34925000D02*
X-19294400Y34755400D01*
X-5356800Y8398700D02*
X-4445000Y9310500D01*
X-4445000Y9310500D02*
X-4445000Y9730000D01*
%TO.N,/SCK_ISO*%
X-20523200Y36195000D02*
X-19294400Y36195000D01*
X-19294400Y36195000D02*
X-19294400Y35606200D01*
X-5715000Y23787800D02*
X-5715000Y9730000D01*
X-6220000Y24292800D02*
X-5715000Y23787800D01*
X-19294400Y35606200D02*
X-12290800Y28602600D01*
%TO.N,/MISO_ISO*%
X-19294400Y20769400D02*
X-8255000Y9730000D01*
X-19294400Y33655000D02*
X-19294400Y20769400D01*
X-20523200Y33655000D02*
X-19294400Y33655000D01*
%TO.N,/MOSI_ISO*%
X-20523200Y37465000D02*
X-19294400Y37465000D01*
X-6985000Y25155600D02*
X-6985000Y9730000D01*
X-19294400Y37465000D02*
X-6985000Y25155600D01*
%TO.N,/a.0_in*%
X-12065000Y11334724D02*
X-8350276Y7620000D01*
X-635000Y19685000D02*
X5080000Y25400000D01*
X-635000Y9730000D02*
X-635000Y19685000D01*
X-1720001Y7620000D02*
X-635000Y8705001D01*
X-13900000Y13900000D02*
X-12065000Y12065000D01*
X-14340000Y13900000D02*
X-13900000Y13900000D01*
X-12065000Y12065000D02*
X-12065000Y11334724D01*
X5080000Y25400000D02*
X10389202Y25400000D01*
X-8350276Y7620000D02*
X-1720001Y7620000D01*
X-635000Y8705001D02*
X-635000Y9730000D01*
%TO.N,/b.0_in*%
X-14340000Y-6420000D02*
X-13405000Y-6420000D01*
X8255000Y-2540000D02*
X8255000Y-4445000D01*
X-13405000Y-6420000D02*
X-12700000Y-5715000D01*
X8890000Y-5080000D02*
X10389202Y-5080000D01*
X8255000Y-4445000D02*
X8890000Y-5080000D01*
X8255000Y430000D02*
X8255000Y-2540000D01*
%TO.N,/b.7_in*%
X4445000Y-13970000D02*
X10389202Y-13970000D01*
X-13405000Y-13900000D02*
X-12700000Y-14605000D01*
X-635000Y430000D02*
X-635000Y-8890000D01*
X-635000Y-8890000D02*
X4445000Y-13970000D01*
X-14340000Y-13900000D02*
X-13405000Y-13900000D01*
%TO.N,/b.5_in*%
X-14340000Y-12300000D02*
X-12935000Y-12300000D01*
X5715000Y-11430000D02*
X10389202Y-11430000D01*
X1905000Y430000D02*
X1905000Y-7620000D01*
X1905000Y-7620000D02*
X5715000Y-11430000D01*
X-12935000Y-12300000D02*
X-12700000Y-12065000D01*
%TO.N,/a.2_in*%
X1905000Y18415000D02*
X6350000Y22860000D01*
X-13335000Y11745000D02*
X-13335000Y11430000D01*
X6350000Y22860000D02*
X10389202Y22860000D01*
X1905000Y9730000D02*
X1905000Y18415000D01*
X1905000Y8890000D02*
X1905000Y9730000D01*
X-635000Y6350000D02*
X1905000Y8890000D01*
X-13890000Y12300000D02*
X-13335000Y11745000D01*
X-13335000Y11430000D02*
X-8255000Y6350000D01*
X-14340000Y12300000D02*
X-13890000Y12300000D01*
X-8255000Y6350000D02*
X-635000Y6350000D01*
%TO.N,/b.6_in*%
X-12935000Y-13100000D02*
X-12700000Y-13335000D01*
X-14340000Y-13100000D02*
X-12935000Y-13100000D01*
X635000Y430000D02*
X635000Y-8255000D01*
X635000Y-8255000D02*
X5080000Y-12700000D01*
X5080000Y-12700000D02*
X10389202Y-12700000D01*
%TO.N,/a.3_in*%
X3175000Y9730000D02*
X3175000Y17780000D01*
X0Y5715000D02*
X3175000Y8890000D01*
X-14340000Y11500000D02*
X-14040000Y11500000D01*
X-14040000Y11500000D02*
X-8255000Y5715000D01*
X6985000Y21590000D02*
X10389202Y21590000D01*
X-8255000Y5715000D02*
X0Y5715000D01*
X3175000Y8890000D02*
X3175000Y9730000D01*
X3175000Y17780000D02*
X6985000Y21590000D01*
%TO.N,/a.5_in*%
X5715000Y9334448D02*
X5715000Y9730000D01*
X-11830000Y8020000D02*
X-8255000Y4445000D01*
X-14340000Y8020000D02*
X-11830000Y8020000D01*
X5715000Y9730000D02*
X5715000Y16510000D01*
X5715000Y16510000D02*
X8255000Y19050000D01*
X8255000Y19050000D02*
X10389202Y19050000D01*
X825552Y4445000D02*
X5715000Y9334448D01*
X-8255000Y4445000D02*
X825552Y4445000D01*
%TO.N,/a.7_in*%
X-8255000Y3175000D02*
X2095552Y3175000D01*
X-11500000Y6420000D02*
X-8255000Y3175000D01*
X8255000Y15240000D02*
X9525000Y16510000D01*
X2095552Y3175000D02*
X8255000Y9334448D01*
X9525000Y16510000D02*
X10389202Y16510000D01*
X8255000Y9730000D02*
X8255000Y15240000D01*
X8255000Y9334448D02*
X8255000Y9730000D01*
X-14340000Y6420000D02*
X-11500000Y6420000D01*
%TO.N,/b.2_in*%
X6985000Y-6985000D02*
X5715000Y-5715000D01*
X7620000Y-7620000D02*
X6985000Y-6985000D01*
X10389202Y-7620000D02*
X7620000Y-7620000D01*
X5715000Y-5715000D02*
X5715000Y430000D01*
X-12935000Y-8020000D02*
X-12700000Y-8255000D01*
X-14340000Y-8020000D02*
X-12935000Y-8020000D01*
%TO.N,/b.1_in*%
X6985000Y430000D02*
X6985000Y-5080000D01*
X-14340000Y-7220000D02*
X-12935000Y-7220000D01*
X8255000Y-6350000D02*
X10389202Y-6350000D01*
X-12935000Y-7220000D02*
X-12700000Y-6985000D01*
X6985000Y-5080000D02*
X8255000Y-6350000D01*
%TO.N,/b.4_in*%
X-14340000Y-11500000D02*
X-13405000Y-11500000D01*
X6350000Y-10160000D02*
X10389202Y-10160000D01*
X-13405000Y-11500000D02*
X-12700000Y-10795000D01*
X3175000Y-6985000D02*
X6350000Y-10160000D01*
X3175000Y430000D02*
X3175000Y-6985000D01*
%TO.N,/a.4_in*%
X7620000Y20320000D02*
X10389202Y20320000D01*
X4445000Y17145000D02*
X7620000Y20320000D01*
X4445000Y9730000D02*
X4445000Y17145000D01*
X635000Y5080000D02*
X4445000Y8890000D01*
X-11995000Y8820000D02*
X-8255000Y5080000D01*
X-8255000Y5080000D02*
X635000Y5080000D01*
X-14340000Y8820000D02*
X-11995000Y8820000D01*
X4445000Y8890000D02*
X4445000Y9730000D01*
%TO.N,/a.6_in*%
X-8255000Y3810000D02*
X1460552Y3810000D01*
X6985000Y15875000D02*
X8890000Y17780000D01*
X6985000Y9730000D02*
X6985000Y15875000D01*
X6985000Y9334448D02*
X6985000Y9730000D01*
X1460552Y3810000D02*
X6985000Y9334448D01*
X-14340000Y7220000D02*
X-11665000Y7220000D01*
X-11665000Y7220000D02*
X-8255000Y3810000D01*
X8890000Y17780000D02*
X10389202Y17780000D01*
%TO.N,/b.3_in*%
X4445000Y430000D02*
X4445000Y-6350000D01*
X6985000Y-8890000D02*
X10389202Y-8890000D01*
X4445000Y-6350000D02*
X6985000Y-8890000D01*
X-13405000Y-8820000D02*
X-12700000Y-9525000D01*
X-14340000Y-8820000D02*
X-13405000Y-8820000D01*
%TO.N,/a.1_in*%
X635000Y19050000D02*
X5715000Y24130000D01*
X635000Y9730000D02*
X635000Y19050000D01*
X635000Y8890000D02*
X635000Y9730000D01*
X-1270000Y6985000D02*
X635000Y8890000D01*
X-13940000Y13100000D02*
X-12700000Y11860000D01*
X-12700000Y11360686D02*
X-8324314Y6985000D01*
X-8324314Y6985000D02*
X-1270000Y6985000D01*
X5715000Y24130000D02*
X10389202Y24130000D01*
X-14340000Y13100000D02*
X-13940000Y13100000D01*
X-12700000Y11860000D02*
X-12700000Y11360686D01*
%TO.N,Net-(J2-Pin_8)*%
X-25352600Y12500000D02*
X-24752600Y13100000D01*
X-26556000Y12500000D02*
X-25352600Y12500000D01*
X-24752600Y13100000D02*
X-16140000Y13100000D01*
%TO.N,/PE*%
X26000000Y-39500000D02*
X26000000Y-43000000D01*
D26*
%TO.N,+V_a*%
X-5020000Y43000000D02*
X-5080000Y43060000D01*
%TO.N,Net-(U6-VCC)*%
X11897202Y15390000D02*
X11747202Y15240000D01*
X-5080000Y28060000D02*
X10112602Y28060000D01*
X10112602Y28060000D02*
X11897202Y26275400D01*
X11747202Y15240000D02*
X10389202Y15240000D01*
X11897202Y26275400D02*
X11897202Y15390000D01*
%TO.N,Net-(U7-VCC)*%
X-2430798Y-28060000D02*
X10389202Y-15240000D01*
X-5080000Y-28060000D02*
X-2430798Y-28060000D01*
D28*
%TO.N,Net-(J2-Pin_6)*%
X-26556000Y10500000D02*
X-17841700Y10500000D01*
X-17841700Y10500000D02*
X-16841700Y11500000D01*
X-16140000Y11500000D02*
X-16841700Y11500000D01*
%TO.N,Net-(J2-Pin_9)*%
X-16990200Y13751500D02*
X-16841700Y13900000D01*
X-26556000Y13500000D02*
X-25352600Y13500000D01*
X-16140000Y13900000D02*
X-16841700Y13900000D01*
X-25352600Y13500000D02*
X-25101100Y13751500D01*
X-25101100Y13751500D02*
X-16990200Y13751500D01*
%TO.N,Net-(J2-Pin_7)*%
X-25352600Y11500000D02*
X-24552600Y12300000D01*
X-26556000Y11500000D02*
X-25352600Y11500000D01*
X-24552600Y12300000D02*
X-16140000Y12300000D01*
%TO.N,Net-(J2-Pin_2)*%
X-26556000Y6500000D02*
X-16921700Y6500000D01*
X-16921700Y6500000D02*
X-16841700Y6420000D01*
X-16140000Y6420000D02*
X-16841700Y6420000D01*
%TO.N,Net-(J2-Pin_5)*%
X-17521700Y9500000D02*
X-16841700Y8820000D01*
X-26556000Y9500000D02*
X-17521700Y9500000D01*
X-16140000Y8820000D02*
X-16841700Y8820000D01*
%TO.N,Net-(J2-Pin_4)*%
X-25352600Y8500000D02*
X-24872600Y8020000D01*
X-26556000Y8500000D02*
X-25352600Y8500000D01*
X-24872600Y8020000D02*
X-16140000Y8020000D01*
%TO.N,Net-(J2-Pin_3)*%
X-26556000Y7500000D02*
X-17121700Y7500000D01*
X-16140000Y7220000D02*
X-16841700Y7220000D01*
X-17121700Y7500000D02*
X-16841700Y7220000D01*
%TO.N,Net-(J4-Pin_9)*%
X-16140000Y-6420000D02*
X-16841700Y-6420000D01*
X-16921700Y-6500000D02*
X-16841700Y-6420000D01*
X-26556000Y-6500000D02*
X-16921700Y-6500000D01*
%TO.N,Net-(J4-Pin_4)*%
X-20876500Y-12300000D02*
X-16140000Y-12300000D01*
X-21676500Y-11500000D02*
X-20876500Y-12300000D01*
X-26556000Y-11500000D02*
X-21676500Y-11500000D01*
%TO.N,Net-(J4-Pin_3)*%
X-26556000Y-12500000D02*
X-25352600Y-12500000D01*
X-24752600Y-13100000D02*
X-25352600Y-12500000D01*
X-16140000Y-13100000D02*
X-24752600Y-13100000D01*
%TO.N,Net-(J4-Pin_6)*%
X-16140000Y-8820000D02*
X-16841700Y-8820000D01*
X-26556000Y-9500000D02*
X-17521700Y-9500000D01*
X-17521700Y-9500000D02*
X-16841700Y-8820000D01*
%TO.N,Net-(J4-Pin_2)*%
X-24952600Y-13900000D02*
X-16140000Y-13900000D01*
X-25352600Y-13500000D02*
X-24952600Y-13900000D01*
X-26556000Y-13500000D02*
X-25352600Y-13500000D01*
%TO.N,Net-(J4-Pin_5)*%
X-16140000Y-11500000D02*
X-16841700Y-11500000D01*
X-17841700Y-10500000D02*
X-16841700Y-11500000D01*
X-26556000Y-10500000D02*
X-17841700Y-10500000D01*
%TO.N,Net-(J4-Pin_8)*%
X-26556000Y-7500000D02*
X-17121700Y-7500000D01*
X-16140000Y-7220000D02*
X-16841700Y-7220000D01*
X-17121700Y-7500000D02*
X-16841700Y-7220000D01*
%TO.N,Net-(J4-Pin_7)*%
X-24872600Y-8020000D02*
X-16140000Y-8020000D01*
X-26556000Y-8500000D02*
X-25352600Y-8500000D01*
X-25352600Y-8500000D02*
X-24872600Y-8020000D01*
D26*
%TO.N,/b.7_out*%
X20090798Y-13970000D02*
X18977398Y-13970000D01*
X18977398Y-13970000D02*
X18582798Y-14364600D01*
X18582798Y-14364600D02*
X18582798Y-18082798D01*
X18582798Y-18082798D02*
X25000000Y-24500000D01*
%TO.N,/b.5_out*%
X20090798Y-11430000D02*
X20955000Y-11430000D01*
X20955000Y-11430000D02*
X23250000Y-13725000D01*
X23250000Y-13725000D02*
X23250000Y-15750000D01*
X23250000Y-15750000D02*
X25000000Y-17500000D01*
%TD*%
%TA.AperFunction,Conductor*%
%TO.N,GND_ISO*%
G36*
X21563182Y-14446217D02*
G01*
X21596666Y-14507540D01*
X21599500Y-14533897D01*
X21599500Y-18423918D01*
X21599500Y-18423920D01*
X21599499Y-18423920D01*
X21628340Y-18568907D01*
X21628343Y-18568917D01*
X21684914Y-18705492D01*
X21713237Y-18747880D01*
X21713238Y-18747883D01*
X21767046Y-18828414D01*
X21767052Y-18828421D01*
X23418097Y-20479465D01*
X23451582Y-20540788D01*
X23450990Y-20596092D01*
X23414317Y-20748850D01*
X23414316Y-20748859D01*
X23394551Y-20999999D01*
X23414317Y-21251151D01*
X23473127Y-21496112D01*
X23473127Y-21496114D01*
X23528472Y-21629729D01*
X23535941Y-21699198D01*
X23504666Y-21761677D01*
X23444576Y-21797329D01*
X23374751Y-21794835D01*
X23326230Y-21764862D01*
X19369617Y-17808249D01*
X19336132Y-17746926D01*
X19333298Y-17720568D01*
X19333298Y-14844500D01*
X19352983Y-14777461D01*
X19405787Y-14731706D01*
X19457298Y-14720500D01*
X20164717Y-14720500D01*
X20276408Y-14698282D01*
X20300601Y-14695899D01*
X20996669Y-14695899D01*
X20996670Y-14695899D01*
X21056281Y-14689491D01*
X21191129Y-14639196D01*
X21306344Y-14552946D01*
X21340330Y-14507547D01*
X21376234Y-14459586D01*
X21432167Y-14417715D01*
X21501859Y-14412731D01*
X21563182Y-14446217D01*
G37*
%TD.AperFunction*%
%TA.AperFunction,Conductor*%
G36*
X16006922Y49398720D02*
G01*
X16097266Y49388541D01*
X16124331Y49382364D01*
X16203540Y49354648D01*
X16228553Y49342602D01*
X16299606Y49297957D01*
X16321313Y49280645D01*
X16380644Y49221314D01*
X16397957Y49199605D01*
X16442600Y49128556D01*
X16454648Y49103538D01*
X16482362Y49024334D01*
X16488540Y48997265D01*
X16498720Y48906924D01*
X16499500Y48893039D01*
X16499500Y48792683D01*
X16530044Y48580236D01*
X16530047Y48580226D01*
X16590517Y48374285D01*
X16679672Y48179062D01*
X16679679Y48179049D01*
X16795720Y47998486D01*
X16936275Y47836276D01*
X16956400Y47818838D01*
X17098487Y47695719D01*
X17227531Y47612789D01*
X17279048Y47579680D01*
X17279061Y47579673D01*
X17474284Y47490518D01*
X17474288Y47490517D01*
X17474290Y47490516D01*
X17680231Y47430046D01*
X17680232Y47430046D01*
X17680235Y47430045D01*
X17743584Y47420938D01*
X17892682Y47399500D01*
X17934108Y47399500D01*
X26934108Y47399500D01*
X26996249Y47399500D01*
X27003736Y47399274D01*
X27281742Y47382458D01*
X27296605Y47380653D01*
X27371845Y47366865D01*
X27566866Y47331126D01*
X27581395Y47327545D01*
X27843713Y47245803D01*
X27857706Y47240496D01*
X27897166Y47222737D01*
X28108264Y47127730D01*
X28121522Y47120772D01*
X28356658Y46978627D01*
X28368969Y46970129D01*
X28560321Y46820215D01*
X28585261Y46800676D01*
X28596469Y46790746D01*
X28790745Y46596470D01*
X28800675Y46585262D01*
X28970124Y46368976D01*
X28978630Y46356653D01*
X29120770Y46121524D01*
X29127729Y46108265D01*
X29240494Y45857710D01*
X29245803Y45843710D01*
X29327542Y45581403D01*
X29331126Y45566863D01*
X29380652Y45296606D01*
X29382457Y45281742D01*
X29399274Y45003737D01*
X29399500Y44996250D01*
X29399500Y-44996249D01*
X29399274Y-45003736D01*
X29382457Y-45281741D01*
X29380652Y-45296605D01*
X29331126Y-45566862D01*
X29327542Y-45581402D01*
X29245803Y-45843709D01*
X29240494Y-45857709D01*
X29127729Y-46108264D01*
X29120770Y-46121523D01*
X28978630Y-46356652D01*
X28970124Y-46368975D01*
X28800675Y-46585261D01*
X28790745Y-46596469D01*
X28596469Y-46790745D01*
X28585261Y-46800675D01*
X28368975Y-46970124D01*
X28356652Y-46978630D01*
X28121523Y-47120770D01*
X28108264Y-47127729D01*
X27857709Y-47240494D01*
X27843709Y-47245803D01*
X27581402Y-47327542D01*
X27566862Y-47331126D01*
X27296605Y-47380652D01*
X27281741Y-47382457D01*
X27003736Y-47399274D01*
X26996249Y-47399500D01*
X17892682Y-47399500D01*
X17680235Y-47430044D01*
X17680225Y-47430047D01*
X17474284Y-47490517D01*
X17279061Y-47579672D01*
X17279048Y-47579679D01*
X17098485Y-47695720D01*
X16936275Y-47836275D01*
X16795720Y-47998485D01*
X16679679Y-48179048D01*
X16679672Y-48179061D01*
X16590517Y-48374284D01*
X16530047Y-48580225D01*
X16530044Y-48580235D01*
X16499500Y-48792682D01*
X16499500Y-48893038D01*
X16498720Y-48906923D01*
X16488540Y-48997264D01*
X16482362Y-49024333D01*
X16454648Y-49103537D01*
X16442600Y-49128555D01*
X16397957Y-49199604D01*
X16380644Y-49221313D01*
X16321313Y-49280644D01*
X16299604Y-49297957D01*
X16228555Y-49342600D01*
X16203537Y-49354648D01*
X16124333Y-49382362D01*
X16097264Y-49388540D01*
X16017075Y-49397576D01*
X16006921Y-49398720D01*
X15993038Y-49399500D01*
X13932353Y-49399500D01*
X13865314Y-49379815D01*
X13819559Y-49327011D01*
X13809615Y-49257853D01*
X13838640Y-49194297D01*
X13864818Y-49171505D01*
X14163362Y-48977628D01*
X14163364Y-48977626D01*
X14163369Y-48977623D01*
X14462765Y-48735177D01*
X14735177Y-48462765D01*
X14977623Y-48163369D01*
X15061620Y-48034026D01*
X15088876Y-47992054D01*
X15187445Y-47840272D01*
X15362344Y-47497012D01*
X15500405Y-47137351D01*
X15600115Y-46765228D01*
X15660382Y-46384722D01*
X15680544Y-46000000D01*
X15660382Y-45615278D01*
X15600115Y-45234772D01*
X15537208Y-45000000D01*
X17394551Y-45000000D01*
X17414317Y-45251151D01*
X17473126Y-45496110D01*
X17569533Y-45728859D01*
X17701160Y-45943653D01*
X17701161Y-45943656D01*
X17701164Y-45943659D01*
X17864776Y-46135224D01*
X17964391Y-46220303D01*
X18056343Y-46298838D01*
X18056346Y-46298839D01*
X18271140Y-46430466D01*
X18503889Y-46526873D01*
X18748852Y-46585683D01*
X19000000Y-46605449D01*
X19251148Y-46585683D01*
X19496111Y-46526873D01*
X19728859Y-46430466D01*
X19943659Y-46298836D01*
X20135224Y-46135224D01*
X20298836Y-45943659D01*
X20430466Y-45728859D01*
X20526873Y-45496111D01*
X20585683Y-45251148D01*
X20605449Y-45000000D01*
X20585683Y-44748852D01*
X20526873Y-44503889D01*
X20472919Y-44373631D01*
X20430466Y-44271140D01*
X20298839Y-44056346D01*
X20298838Y-44056343D01*
X20256258Y-44006489D01*
X20135224Y-43864776D01*
X19976086Y-43728859D01*
X19943656Y-43701161D01*
X19943653Y-43701160D01*
X19728859Y-43569533D01*
X19496110Y-43473126D01*
X19251151Y-43414317D01*
X19000000Y-43394551D01*
X18748848Y-43414317D01*
X18503889Y-43473126D01*
X18271140Y-43569533D01*
X18056346Y-43701160D01*
X18056343Y-43701161D01*
X17864776Y-43864776D01*
X17701161Y-44056343D01*
X17701160Y-44056346D01*
X17569533Y-44271140D01*
X17473126Y-44503889D01*
X17414317Y-44748848D01*
X17394551Y-45000000D01*
X15537208Y-45000000D01*
X15500405Y-44862649D01*
X15362344Y-44502988D01*
X15187445Y-44159728D01*
X15171532Y-44135224D01*
X14977628Y-43836637D01*
X14977626Y-43836635D01*
X14867922Y-43701161D01*
X14735177Y-43537235D01*
X14462765Y-43264823D01*
X14163369Y-43022377D01*
X14163368Y-43022376D01*
X14163364Y-43022373D01*
X14163362Y-43022371D01*
X13840276Y-42812557D01*
X13497015Y-42637657D01*
X13137358Y-42499597D01*
X13137351Y-42499595D01*
X12765228Y-42399885D01*
X12765224Y-42399884D01*
X12765223Y-42399884D01*
X12384723Y-42339618D01*
X12000001Y-42319456D01*
X11999999Y-42319456D01*
X11615276Y-42339618D01*
X11234777Y-42399884D01*
X11234775Y-42399884D01*
X10862641Y-42499597D01*
X10502984Y-42637657D01*
X10159723Y-42812557D01*
X9836637Y-43022371D01*
X9836635Y-43022373D01*
X9537239Y-43264819D01*
X9537231Y-43264826D01*
X9264826Y-43537231D01*
X9264819Y-43537239D01*
X9022373Y-43836635D01*
X9022371Y-43836637D01*
X8812557Y-44159723D01*
X8637657Y-44502984D01*
X8499597Y-44862641D01*
X8399884Y-45234775D01*
X8399884Y-45234777D01*
X8339618Y-45615276D01*
X8319456Y-45999999D01*
X8319456Y-46000000D01*
X8339618Y-46384723D01*
X8372315Y-46591163D01*
X8399885Y-46765228D01*
X8414618Y-46820214D01*
X8499597Y-47137358D01*
X8637657Y-47497015D01*
X8812557Y-47840276D01*
X9022371Y-48163362D01*
X9022373Y-48163364D01*
X9022376Y-48163368D01*
X9022377Y-48163369D01*
X9264823Y-48462765D01*
X9537235Y-48735177D01*
X9749323Y-48906922D01*
X9836635Y-48977626D01*
X9836637Y-48977628D01*
X10135182Y-49171505D01*
X10180685Y-49224526D01*
X10190299Y-49293731D01*
X10160972Y-49357148D01*
X10102015Y-49394642D01*
X10067647Y-49399500D01*
X8006962Y-49399500D01*
X7993078Y-49398720D01*
X7980553Y-49397308D01*
X7902735Y-49388540D01*
X7875666Y-49382362D01*
X7796462Y-49354648D01*
X7771444Y-49342600D01*
X7700395Y-49297957D01*
X7678686Y-49280644D01*
X7619355Y-49221313D01*
X7602042Y-49199604D01*
X7598707Y-49194297D01*
X7557398Y-49128553D01*
X7545351Y-49103537D01*
X7517637Y-49024333D01*
X7511459Y-48997263D01*
X7509246Y-48977626D01*
X7501280Y-48906922D01*
X7500500Y-48893038D01*
X7500500Y-48792683D01*
X7500500Y-48792682D01*
X7469954Y-48580231D01*
X7409484Y-48374290D01*
X7409483Y-48374288D01*
X7409482Y-48374284D01*
X7320327Y-48179061D01*
X7320320Y-48179048D01*
X7227120Y-48034026D01*
X7204281Y-47998487D01*
X7171172Y-47960277D01*
X7063724Y-47836275D01*
X6901514Y-47695720D01*
X6901513Y-47695719D01*
X6824634Y-47646312D01*
X6720951Y-47579679D01*
X6720938Y-47579672D01*
X6525715Y-47490517D01*
X6319774Y-47430047D01*
X6319764Y-47430044D01*
X6128754Y-47402582D01*
X6107318Y-47399500D01*
X6065892Y-47399500D01*
X-38834108Y-47399500D01*
X-38900000Y-47399500D01*
X-39007318Y-47399500D01*
X-39219765Y-47430044D01*
X-39219775Y-47430047D01*
X-39425716Y-47490517D01*
X-39620939Y-47579672D01*
X-39620952Y-47579679D01*
X-39801515Y-47695720D01*
X-39963725Y-47836275D01*
X-40104280Y-47998485D01*
X-40220321Y-48179048D01*
X-40220328Y-48179061D01*
X-40309483Y-48374284D01*
X-40369953Y-48580225D01*
X-40369956Y-48580235D01*
X-40400500Y-48792682D01*
X-40400500Y-48893038D01*
X-40401280Y-48906923D01*
X-40411460Y-48997264D01*
X-40417638Y-49024333D01*
X-40445352Y-49103537D01*
X-40457400Y-49128555D01*
X-40502043Y-49199604D01*
X-40519356Y-49221313D01*
X-40578687Y-49280644D01*
X-40600396Y-49297957D01*
X-40671445Y-49342600D01*
X-40696463Y-49354648D01*
X-40775667Y-49382362D01*
X-40802736Y-49388540D01*
X-40882925Y-49397576D01*
X-40893079Y-49398720D01*
X-40906962Y-49399500D01*
X-48893038Y-49399500D01*
X-48906922Y-49398720D01*
X-48919447Y-49397308D01*
X-48997265Y-49388540D01*
X-49024334Y-49382362D01*
X-49103538Y-49354648D01*
X-49128556Y-49342600D01*
X-49199605Y-49297957D01*
X-49221314Y-49280644D01*
X-49280645Y-49221313D01*
X-49297958Y-49199604D01*
X-49301293Y-49194297D01*
X-49342602Y-49128553D01*
X-49354649Y-49103537D01*
X-49382363Y-49024333D01*
X-49388541Y-48997263D01*
X-49390754Y-48977626D01*
X-49398720Y-48906922D01*
X-49399500Y-48893038D01*
X-49399500Y-45878711D01*
X-47850500Y-45878711D01*
X-47850500Y-46121288D01*
X-47819515Y-46356652D01*
X-47818838Y-46361789D01*
X-47812693Y-46384722D01*
X-47756053Y-46596104D01*
X-47663227Y-46820205D01*
X-47663224Y-46820212D01*
X-47541936Y-47030289D01*
X-47541934Y-47030292D01*
X-47541933Y-47030293D01*
X-47394267Y-47222736D01*
X-47394261Y-47222743D01*
X-47222744Y-47394260D01*
X-47222738Y-47394265D01*
X-47030289Y-47541936D01*
X-46820212Y-47663224D01*
X-46596100Y-47756054D01*
X-46361789Y-47818838D01*
X-46198948Y-47840276D01*
X-46121289Y-47850500D01*
X-46121288Y-47850500D01*
X-45878711Y-47850500D01*
X-45801052Y-47840276D01*
X-45638211Y-47818838D01*
X-45403900Y-47756054D01*
X-45179788Y-47663224D01*
X-44969711Y-47541936D01*
X-44777262Y-47394265D01*
X-44605735Y-47222738D01*
X-44458064Y-47030289D01*
X-44336776Y-46820212D01*
X-44243946Y-46596100D01*
X-44181162Y-46361789D01*
X-44149500Y-46121288D01*
X-44149500Y-45878712D01*
X-44181162Y-45638211D01*
X-44243946Y-45403900D01*
X-44336776Y-45179788D01*
X-44440577Y-45000000D01*
X-20605449Y-45000000D01*
X-20585683Y-45251151D01*
X-20526874Y-45496110D01*
X-20430467Y-45728859D01*
X-20298840Y-45943653D01*
X-20298839Y-45943656D01*
X-20298836Y-45943659D01*
X-20135224Y-46135224D01*
X-20035609Y-46220303D01*
X-19943657Y-46298838D01*
X-19943654Y-46298839D01*
X-19728860Y-46430466D01*
X-19496111Y-46526873D01*
X-19251148Y-46585683D01*
X-19000000Y-46605449D01*
X-18748852Y-46585683D01*
X-18503889Y-46526873D01*
X-18271141Y-46430466D01*
X-18056341Y-46298836D01*
X-17864776Y-46135224D01*
X-17701164Y-45943659D01*
X-17569534Y-45728859D01*
X-17473127Y-45496111D01*
X-17414317Y-45251148D01*
X-17394551Y-45000000D01*
X3394551Y-45000000D01*
X3414317Y-45251151D01*
X3473126Y-45496110D01*
X3569533Y-45728859D01*
X3701160Y-45943653D01*
X3701161Y-45943656D01*
X3701164Y-45943659D01*
X3864776Y-46135224D01*
X3964391Y-46220303D01*
X4056343Y-46298838D01*
X4056346Y-46298839D01*
X4271140Y-46430466D01*
X4503889Y-46526873D01*
X4748852Y-46585683D01*
X5000000Y-46605449D01*
X5251148Y-46585683D01*
X5496111Y-46526873D01*
X5728859Y-46430466D01*
X5943659Y-46298836D01*
X6135224Y-46135224D01*
X6298836Y-45943659D01*
X6430466Y-45728859D01*
X6526873Y-45496111D01*
X6585683Y-45251148D01*
X6605449Y-45000000D01*
X6585683Y-44748852D01*
X6526873Y-44503889D01*
X6472919Y-44373631D01*
X6430466Y-44271140D01*
X6298839Y-44056346D01*
X6298838Y-44056343D01*
X6256258Y-44006489D01*
X6135224Y-43864776D01*
X5976086Y-43728859D01*
X5943656Y-43701161D01*
X5943653Y-43701160D01*
X5728859Y-43569533D01*
X5496110Y-43473126D01*
X5251151Y-43414317D01*
X5000000Y-43394551D01*
X4748848Y-43414317D01*
X4503889Y-43473126D01*
X4271140Y-43569533D01*
X4056346Y-43701160D01*
X4056343Y-43701161D01*
X3864776Y-43864776D01*
X3701161Y-44056343D01*
X3701160Y-44056346D01*
X3569533Y-44271140D01*
X3473126Y-44503889D01*
X3414317Y-44748848D01*
X3394551Y-45000000D01*
X-17394551Y-45000000D01*
X-17414317Y-44748852D01*
X-17473127Y-44503889D01*
X-17527081Y-44373631D01*
X-17569534Y-44271140D01*
X-17701161Y-44056346D01*
X-17701162Y-44056343D01*
X-17743742Y-44006489D01*
X-17864776Y-43864776D01*
X-18023914Y-43728859D01*
X-18056344Y-43701161D01*
X-18056347Y-43701160D01*
X-18271141Y-43569533D01*
X-18503890Y-43473126D01*
X-18748849Y-43414317D01*
X-19000000Y-43394551D01*
X-19251152Y-43414317D01*
X-19496111Y-43473126D01*
X-19728860Y-43569533D01*
X-19943654Y-43701160D01*
X-19943657Y-43701161D01*
X-20135224Y-43864776D01*
X-20298839Y-44056343D01*
X-20298840Y-44056346D01*
X-20430467Y-44271140D01*
X-20526874Y-44503889D01*
X-20585683Y-44748848D01*
X-20605449Y-45000000D01*
X-44440577Y-45000000D01*
X-44458064Y-44969711D01*
X-44540215Y-44862649D01*
X-44605734Y-44777263D01*
X-44605740Y-44777256D01*
X-44777257Y-44605739D01*
X-44777264Y-44605733D01*
X-44969707Y-44458067D01*
X-44969708Y-44458066D01*
X-44969711Y-44458064D01*
X-45179788Y-44336776D01*
X-45179795Y-44336773D01*
X-45403896Y-44243947D01*
X-45638215Y-44181161D01*
X-45878711Y-44149500D01*
X-45878712Y-44149500D01*
X-46121288Y-44149500D01*
X-46121289Y-44149500D01*
X-46361786Y-44181161D01*
X-46596105Y-44243947D01*
X-46820206Y-44336773D01*
X-46820215Y-44336777D01*
X-47030294Y-44458067D01*
X-47222737Y-44605733D01*
X-47222744Y-44605739D01*
X-47394261Y-44777256D01*
X-47394267Y-44777263D01*
X-47541933Y-44969706D01*
X-47663223Y-45179785D01*
X-47663227Y-45179794D01*
X-47756053Y-45403895D01*
X-47818839Y-45638214D01*
X-47850500Y-45878711D01*
X-49399500Y-45878711D01*
X-49399500Y-43059995D01*
X-6760198Y-43059995D01*
X-6760198Y-43060004D01*
X-6741433Y-43310419D01*
X-6689664Y-43537231D01*
X-6685552Y-43555247D01*
X-6685550Y-43555252D01*
X-6593806Y-43789011D01*
X-6593807Y-43789011D01*
X-6514204Y-43926885D01*
X-6468245Y-44006489D01*
X-6428485Y-44056346D01*
X-6311669Y-44202829D01*
X-6167306Y-44336777D01*
X-6127586Y-44373632D01*
X-5920099Y-44515094D01*
X-5920094Y-44515096D01*
X-5920093Y-44515097D01*
X-5920092Y-44515098D01*
X-5799930Y-44572964D01*
X-5693849Y-44624050D01*
X-5693848Y-44624050D01*
X-5693845Y-44624052D01*
X-5453879Y-44698072D01*
X-5205561Y-44735500D01*
X-5205560Y-44735500D01*
X-4954440Y-44735500D01*
X-4954439Y-44735500D01*
X-4706121Y-44698072D01*
X-4466155Y-44624052D01*
X-4239901Y-44515094D01*
X-4032414Y-44373632D01*
X-3848328Y-44202825D01*
X-3691755Y-44006489D01*
X-3566194Y-43789011D01*
X-3474448Y-43555247D01*
X-3418568Y-43310421D01*
X-3399802Y-43060000D01*
X-3399950Y-43058028D01*
X-3418568Y-42809581D01*
X-3432429Y-42748852D01*
X-3468293Y-42591720D01*
X-3464020Y-42521984D01*
X-3435085Y-42476451D01*
X-458634Y-39500000D01*
X23394551Y-39500000D01*
X23414317Y-39751151D01*
X23473126Y-39996110D01*
X23569533Y-40228859D01*
X23701160Y-40443653D01*
X23701161Y-40443656D01*
X23701164Y-40443659D01*
X23864776Y-40635224D01*
X24013066Y-40761875D01*
X24056343Y-40798838D01*
X24056346Y-40798839D01*
X24271140Y-40930466D01*
X24503889Y-41026873D01*
X24748852Y-41085683D01*
X25000000Y-41105449D01*
X25251148Y-41085683D01*
X25251164Y-41085678D01*
X25255964Y-41084920D01*
X25256360Y-41087425D01*
X25315627Y-41090031D01*
X25372689Y-41130351D01*
X25398895Y-41195120D01*
X25399500Y-41207359D01*
X25399500Y-41292640D01*
X25379815Y-41359679D01*
X25327011Y-41405434D01*
X25257853Y-41415378D01*
X25255957Y-41415017D01*
X25255948Y-41415078D01*
X25251151Y-41414317D01*
X25251148Y-41414317D01*
X25251144Y-41414316D01*
X25251140Y-41414316D01*
X25000000Y-41394551D01*
X24748848Y-41414317D01*
X24503889Y-41473126D01*
X24271140Y-41569533D01*
X24056346Y-41701160D01*
X24056343Y-41701161D01*
X23864776Y-41864776D01*
X23701161Y-42056343D01*
X23701160Y-42056346D01*
X23569533Y-42271140D01*
X23473126Y-42503889D01*
X23414317Y-42748848D01*
X23394551Y-43000000D01*
X23414317Y-43251151D01*
X23473126Y-43496110D01*
X23569533Y-43728859D01*
X23701160Y-43943653D01*
X23701161Y-43943656D01*
X23701164Y-43943659D01*
X23864776Y-44135224D01*
X23992073Y-44243946D01*
X24056343Y-44298838D01*
X24056346Y-44298839D01*
X24271140Y-44430466D01*
X24503889Y-44526873D01*
X24748852Y-44585683D01*
X25000000Y-44605449D01*
X25251148Y-44585683D01*
X25496111Y-44526873D01*
X25728859Y-44430466D01*
X25943659Y-44298836D01*
X26135224Y-44135224D01*
X26298836Y-43943659D01*
X26430466Y-43728859D01*
X26526873Y-43496111D01*
X26585683Y-43251148D01*
X26597803Y-43097141D01*
X26599525Y-43087132D01*
X26599438Y-43087121D01*
X26600500Y-43079056D01*
X26600500Y-43067757D01*
X26600882Y-43058028D01*
X26605449Y-43000000D01*
X26600882Y-42941970D01*
X26600500Y-42932242D01*
X26600500Y-39567757D01*
X26600882Y-39558028D01*
X26603939Y-39519182D01*
X26605449Y-39500000D01*
X26600882Y-39441970D01*
X26600500Y-39432242D01*
X26600500Y-39420940D01*
X26599439Y-39412884D01*
X26599524Y-39412872D01*
X26597803Y-39402860D01*
X26585683Y-39248852D01*
X26526873Y-39003889D01*
X26430466Y-38771141D01*
X26430466Y-38771140D01*
X26298839Y-38556346D01*
X26298838Y-38556343D01*
X26183181Y-38420927D01*
X26135224Y-38364776D01*
X26008571Y-38256604D01*
X25943656Y-38201161D01*
X25943653Y-38201160D01*
X25728859Y-38069533D01*
X25496110Y-37973126D01*
X25251151Y-37914317D01*
X25000000Y-37894551D01*
X24748848Y-37914317D01*
X24503889Y-37973126D01*
X24271140Y-38069533D01*
X24056346Y-38201160D01*
X24056343Y-38201161D01*
X23864776Y-38364776D01*
X23701161Y-38556343D01*
X23701160Y-38556346D01*
X23569533Y-38771140D01*
X23473126Y-39003889D01*
X23414317Y-39248848D01*
X23394551Y-39500000D01*
X-458634Y-39500000D01*
X12004549Y-27036819D01*
X12065872Y-27003334D01*
X12092230Y-27000500D01*
X26798794Y-27000500D01*
X26896336Y-26981096D01*
X26943787Y-26971658D01*
X27080369Y-26915084D01*
X27135947Y-26877948D01*
X27203290Y-26832952D01*
X28522952Y-25513289D01*
X28588165Y-25415690D01*
X28605084Y-25390369D01*
X28649942Y-25282073D01*
X28661659Y-25253786D01*
X28690500Y-25108791D01*
X28690500Y-24960956D01*
X28690500Y633918D01*
X28690500Y633921D01*
X28661659Y778908D01*
X28661658Y778909D01*
X28661658Y778913D01*
X28661656Y778918D01*
X28605087Y915489D01*
X28605085Y915493D01*
X28605084Y915495D01*
X28555584Y989577D01*
X28545614Y1004499D01*
X28522954Y1038414D01*
X26581901Y2979467D01*
X26548416Y3040790D01*
X26549007Y3096090D01*
X26585683Y3248852D01*
X26605449Y3500000D01*
X26585683Y3751148D01*
X26526873Y3996111D01*
X26509939Y4036994D01*
X26500500Y4084447D01*
X26500500Y6415555D01*
X26509938Y6463006D01*
X26526873Y6503889D01*
X26585683Y6748852D01*
X26605449Y7000000D01*
X26585683Y7251148D01*
X26526873Y7496111D01*
X26510955Y7534541D01*
X26430466Y7728860D01*
X26298839Y7943654D01*
X26298838Y7943657D01*
X26250713Y8000004D01*
X26135224Y8135224D01*
X26006420Y8245233D01*
X25943656Y8298839D01*
X25943653Y8298840D01*
X25728859Y8430467D01*
X25496110Y8526874D01*
X25251151Y8585683D01*
X25000000Y8605449D01*
X24748848Y8585683D01*
X24503889Y8526874D01*
X24271140Y8430467D01*
X24056346Y8298840D01*
X24056343Y8298839D01*
X23864776Y8135224D01*
X23701161Y7943657D01*
X23701160Y7943654D01*
X23569533Y7728860D01*
X23473126Y7496111D01*
X23414317Y7251152D01*
X23394551Y7000000D01*
X23414317Y6748849D01*
X23473124Y6503899D01*
X23473126Y6503893D01*
X23473127Y6503889D01*
X23490061Y6463006D01*
X23499500Y6415555D01*
X23499500Y4084447D01*
X23490061Y4036994D01*
X23473126Y3996111D01*
X23414317Y3751152D01*
X23394551Y3500000D01*
X23414317Y3248849D01*
X23473126Y3003890D01*
X23569533Y2771141D01*
X23701160Y2556347D01*
X23701161Y2556344D01*
X23731933Y2520315D01*
X23864776Y2364776D01*
X23896757Y2337462D01*
X24056343Y2201162D01*
X24056346Y2201161D01*
X24271140Y2069534D01*
X24459354Y1991574D01*
X24503889Y1973127D01*
X24748852Y1914317D01*
X25000000Y1894551D01*
X25251148Y1914317D01*
X25403909Y1950992D01*
X25473686Y1947501D01*
X25520533Y1918099D01*
X25764862Y1673770D01*
X25798347Y1612447D01*
X25793363Y1542755D01*
X25751491Y1486822D01*
X25686027Y1462405D01*
X25629729Y1471528D01*
X25496113Y1526873D01*
X25251151Y1585683D01*
X25000000Y1605449D01*
X24748848Y1585683D01*
X24503889Y1526874D01*
X24271140Y1430467D01*
X24056346Y1298840D01*
X24056343Y1298839D01*
X23864776Y1135224D01*
X23701161Y943657D01*
X23701160Y943654D01*
X23569533Y728860D01*
X23473126Y496111D01*
X23414317Y251152D01*
X23394551Y0D01*
X23414317Y-251147D01*
X23414318Y-251154D01*
X23450990Y-403906D01*
X23447499Y-473688D01*
X23418097Y-520533D01*
X19620849Y-4317781D01*
X19559526Y-4351266D01*
X19533168Y-4354100D01*
X19184928Y-4354100D01*
X19184921Y-4354101D01*
X19125314Y-4360508D01*
X18990469Y-4410802D01*
X18990462Y-4410806D01*
X18875253Y-4497052D01*
X18875250Y-4497055D01*
X18789004Y-4612264D01*
X18789000Y-4612271D01*
X18738708Y-4747113D01*
X18738707Y-4747117D01*
X18732298Y-4806727D01*
X18732298Y-4806734D01*
X18732298Y-4806735D01*
X18732298Y-5353270D01*
X18732299Y-5353276D01*
X18738706Y-5412883D01*
X18789000Y-5547728D01*
X18789002Y-5547731D01*
X18858590Y-5640689D01*
X18883007Y-5706154D01*
X18868155Y-5774427D01*
X18858590Y-5789311D01*
X18789002Y-5882268D01*
X18789000Y-5882271D01*
X18738708Y-6017113D01*
X18738707Y-6017117D01*
X18732298Y-6076727D01*
X18732298Y-6076734D01*
X18732298Y-6076735D01*
X18732298Y-6623270D01*
X18732299Y-6623276D01*
X18738706Y-6682883D01*
X18789000Y-6817728D01*
X18789002Y-6817731D01*
X18858590Y-6910689D01*
X18883007Y-6976154D01*
X18868155Y-7044427D01*
X18858590Y-7059311D01*
X18789002Y-7152268D01*
X18789000Y-7152271D01*
X18752121Y-7251151D01*
X18738707Y-7287117D01*
X18732298Y-7346727D01*
X18732298Y-7346734D01*
X18732298Y-7346735D01*
X18732298Y-7893270D01*
X18732299Y-7893276D01*
X18738706Y-7952883D01*
X18789000Y-8087728D01*
X18789002Y-8087731D01*
X18858590Y-8180689D01*
X18883007Y-8246154D01*
X18868155Y-8314427D01*
X18858590Y-8329311D01*
X18789002Y-8422268D01*
X18789000Y-8422271D01*
X18738708Y-8557113D01*
X18738707Y-8557117D01*
X18732298Y-8616727D01*
X18732298Y-8616734D01*
X18732298Y-8616735D01*
X18732298Y-9163270D01*
X18732299Y-9163276D01*
X18738706Y-9222883D01*
X18789000Y-9357728D01*
X18789002Y-9357731D01*
X18858590Y-9450689D01*
X18883007Y-9516154D01*
X18868155Y-9584427D01*
X18858590Y-9599311D01*
X18789002Y-9692268D01*
X18789000Y-9692271D01*
X18738708Y-9827113D01*
X18738707Y-9827117D01*
X18732298Y-9886727D01*
X18732298Y-9886734D01*
X18732298Y-9886735D01*
X18732298Y-10433270D01*
X18732299Y-10433276D01*
X18738706Y-10492883D01*
X18789000Y-10627728D01*
X18789002Y-10627731D01*
X18858590Y-10720689D01*
X18883007Y-10786154D01*
X18868155Y-10854427D01*
X18858590Y-10869311D01*
X18789002Y-10962268D01*
X18789000Y-10962271D01*
X18738708Y-11097113D01*
X18738707Y-11097117D01*
X18732298Y-11156727D01*
X18732298Y-11156734D01*
X18732298Y-11156735D01*
X18732298Y-11703270D01*
X18732299Y-11703276D01*
X18738706Y-11762883D01*
X18789000Y-11897728D01*
X18789002Y-11897731D01*
X18858590Y-11990689D01*
X18883007Y-12056154D01*
X18868155Y-12124427D01*
X18858590Y-12139311D01*
X18789002Y-12232268D01*
X18789000Y-12232271D01*
X18738708Y-12367113D01*
X18738707Y-12367117D01*
X18732298Y-12426727D01*
X18732298Y-12426734D01*
X18732298Y-12426735D01*
X18732298Y-12973270D01*
X18732299Y-12973276D01*
X18738707Y-13032884D01*
X18769147Y-13114500D01*
X18774131Y-13184191D01*
X18740645Y-13245514D01*
X18700419Y-13272393D01*
X18621904Y-13304915D01*
X18581691Y-13331785D01*
X18498980Y-13387049D01*
X17999843Y-13886186D01*
X17973929Y-13924973D01*
X17973927Y-13924976D01*
X17917712Y-14009107D01*
X17861141Y-14145682D01*
X17861138Y-14145692D01*
X17832298Y-14290679D01*
X17832298Y-14290682D01*
X17832298Y-18156716D01*
X17832298Y-18156718D01*
X17832297Y-18156718D01*
X17861138Y-18301705D01*
X17861141Y-18301715D01*
X17917712Y-18438290D01*
X17950610Y-18487525D01*
X17950611Y-18487528D01*
X17999844Y-18561212D01*
X17999850Y-18561219D01*
X23418097Y-23979465D01*
X23451582Y-24040788D01*
X23450990Y-24096092D01*
X23414317Y-24248850D01*
X23414316Y-24248859D01*
X23394551Y-24499999D01*
X23414317Y-24751151D01*
X23473126Y-24996110D01*
X23569533Y-25228859D01*
X23619692Y-25310710D01*
X23637937Y-25378156D01*
X23616821Y-25444758D01*
X23563049Y-25489372D01*
X23513965Y-25499500D01*
X11656080Y-25499500D01*
X11511092Y-25528340D01*
X11511082Y-25528343D01*
X11374508Y-25584914D01*
X11374505Y-25584915D01*
X11374505Y-25584916D01*
X11333152Y-25612547D01*
X11333151Y-25612546D01*
X11251585Y-25667046D01*
X11251578Y-25667052D01*
X-4498278Y-41416908D01*
X-4559601Y-41450393D01*
X-4622508Y-41447718D01*
X-4706116Y-41421929D01*
X-4706126Y-41421926D01*
X-4954432Y-41384500D01*
X-4954439Y-41384500D01*
X-5205561Y-41384500D01*
X-5205567Y-41384500D01*
X-5344449Y-41405434D01*
X-5453879Y-41421928D01*
X-5453882Y-41421929D01*
X-5453888Y-41421930D01*
X-5693849Y-41495949D01*
X-5920092Y-41604901D01*
X-5920093Y-41604902D01*
X-6127587Y-41746368D01*
X-6311669Y-41917170D01*
X-6468245Y-42113511D01*
X-6593806Y-42330988D01*
X-6685550Y-42564747D01*
X-6685555Y-42564764D01*
X-6741433Y-42809580D01*
X-6760198Y-43059995D01*
X-49399500Y-43059995D01*
X-49399500Y-39000000D01*
X-48505449Y-39000000D01*
X-48485683Y-39251151D01*
X-48426874Y-39496110D01*
X-48330467Y-39728859D01*
X-48198840Y-39943653D01*
X-48198839Y-39943656D01*
X-48198836Y-39943659D01*
X-48035224Y-40135224D01*
X-47886934Y-40261875D01*
X-47843657Y-40298838D01*
X-47843654Y-40298839D01*
X-47628860Y-40430466D01*
X-47396111Y-40526873D01*
X-47151148Y-40585683D01*
X-46900000Y-40605449D01*
X-46648852Y-40585683D01*
X-46403889Y-40526873D01*
X-46171141Y-40430466D01*
X-45956341Y-40298836D01*
X-45764776Y-40135224D01*
X-45601164Y-39943659D01*
X-45469534Y-39728859D01*
X-45373127Y-39496111D01*
X-45314317Y-39251148D01*
X-45294551Y-39000000D01*
X-45314317Y-38748852D01*
X-45373127Y-38503889D01*
X-45469534Y-38271141D01*
X-45469534Y-38271140D01*
X-45601161Y-38056346D01*
X-45601162Y-38056343D01*
X-45638125Y-38013066D01*
X-45764776Y-37864776D01*
X-45891429Y-37756604D01*
X-45956344Y-37701161D01*
X-45956347Y-37701160D01*
X-46171141Y-37569533D01*
X-46403890Y-37473126D01*
X-46648849Y-37414317D01*
X-46900000Y-37394551D01*
X-47151152Y-37414317D01*
X-47396111Y-37473126D01*
X-47628860Y-37569533D01*
X-47843654Y-37701160D01*
X-47843657Y-37701161D01*
X-48035224Y-37864776D01*
X-48198839Y-38056343D01*
X-48198840Y-38056346D01*
X-48330467Y-38271140D01*
X-48426874Y-38503889D01*
X-48485683Y-38748848D01*
X-48505449Y-39000000D01*
X-49399500Y-39000000D01*
X-49399500Y-35435999D01*
X-6655500Y-35435999D01*
X-6655500Y-35684000D01*
X-6616707Y-35928927D01*
X-6616706Y-35928931D01*
X-6540073Y-36164782D01*
X-6427489Y-36385742D01*
X-6281724Y-36586370D01*
X-6106370Y-36761724D01*
X-5905742Y-36907489D01*
X-5684782Y-37020073D01*
X-5448931Y-37096706D01*
X-5357080Y-37111253D01*
X-5204000Y-37135500D01*
X-5203995Y-37135500D01*
X-4956000Y-37135500D01*
X-4819930Y-37113947D01*
X-4711069Y-37096706D01*
X-4475218Y-37020073D01*
X-4254258Y-36907489D01*
X-4053630Y-36761724D01*
X-3878276Y-36586370D01*
X-3732511Y-36385742D01*
X-3619927Y-36164782D01*
X-3543294Y-35928931D01*
X-3526053Y-35820070D01*
X-3504500Y-35684000D01*
X-3504500Y-35435999D01*
X-3543294Y-35191072D01*
X-3543294Y-35191069D01*
X-3619927Y-34955218D01*
X-3732511Y-34734258D01*
X-3878276Y-34533630D01*
X-4053630Y-34358276D01*
X-4254258Y-34212511D01*
X-4475218Y-34099927D01*
X-4711069Y-34023294D01*
X-4711071Y-34023293D01*
X-4711073Y-34023293D01*
X-4956000Y-33984500D01*
X-4956005Y-33984500D01*
X-5203995Y-33984500D01*
X-5204000Y-33984500D01*
X-5448928Y-34023293D01*
X-5684785Y-34099928D01*
X-5905743Y-34212511D01*
X-6020208Y-34295675D01*
X-6106370Y-34358276D01*
X-6106372Y-34358278D01*
X-6106373Y-34358278D01*
X-6281722Y-34533627D01*
X-6281722Y-34533628D01*
X-6281724Y-34533630D01*
X-6344325Y-34619792D01*
X-6427489Y-34734257D01*
X-6540072Y-34955215D01*
X-6616707Y-35191072D01*
X-6655500Y-35435999D01*
X-49399500Y-35435999D01*
X-49399500Y-6134634D01*
X-27958200Y-6134634D01*
X-27958200Y-6134641D01*
X-27958200Y-6134642D01*
X-27958200Y-6865377D01*
X-27958199Y-6865383D01*
X-27951792Y-6924989D01*
X-27939974Y-6956675D01*
X-27934991Y-7026367D01*
X-27939974Y-7043337D01*
X-27951790Y-7075018D01*
X-27951791Y-7075022D01*
X-27958200Y-7134632D01*
X-27958200Y-7134639D01*
X-27958200Y-7134640D01*
X-27958200Y-7865375D01*
X-27958199Y-7865381D01*
X-27951792Y-7924987D01*
X-27939974Y-7956673D01*
X-27934991Y-8026365D01*
X-27939974Y-8043335D01*
X-27951790Y-8075016D01*
X-27951791Y-8075020D01*
X-27958200Y-8134630D01*
X-27958200Y-8134637D01*
X-27958200Y-8134638D01*
X-27958200Y-8865373D01*
X-27958199Y-8865379D01*
X-27951792Y-8924985D01*
X-27939974Y-8956671D01*
X-27934991Y-9026363D01*
X-27939974Y-9043333D01*
X-27949746Y-9069534D01*
X-27951791Y-9075018D01*
X-27958200Y-9134628D01*
X-27958200Y-9134636D01*
X-27958200Y-9134637D01*
X-27958200Y-9865371D01*
X-27958199Y-9865377D01*
X-27951792Y-9924983D01*
X-27939974Y-9956669D01*
X-27934991Y-10026361D01*
X-27939974Y-10043331D01*
X-27951790Y-10075012D01*
X-27951791Y-10075016D01*
X-27958200Y-10134626D01*
X-27958200Y-10134633D01*
X-27958200Y-10134634D01*
X-27958200Y-10865369D01*
X-27958199Y-10865375D01*
X-27951792Y-10924981D01*
X-27939974Y-10956667D01*
X-27934991Y-11026359D01*
X-27939974Y-11043329D01*
X-27951790Y-11075010D01*
X-27951791Y-11075014D01*
X-27958200Y-11134624D01*
X-27958200Y-11134631D01*
X-27958200Y-11134632D01*
X-27958200Y-11865367D01*
X-27958199Y-11865373D01*
X-27951792Y-11924979D01*
X-27939974Y-11956665D01*
X-27934991Y-12026357D01*
X-27939974Y-12043327D01*
X-27951790Y-12075008D01*
X-27951791Y-12075012D01*
X-27958200Y-12134622D01*
X-27958200Y-12134629D01*
X-27958200Y-12134630D01*
X-27958200Y-12865365D01*
X-27958199Y-12865371D01*
X-27951792Y-12924977D01*
X-27939974Y-12956663D01*
X-27934991Y-13026355D01*
X-27939974Y-13043325D01*
X-27944829Y-13056343D01*
X-27951791Y-13075010D01*
X-27958200Y-13134620D01*
X-27958200Y-13134627D01*
X-27958200Y-13134628D01*
X-27958200Y-13865363D01*
X-27958199Y-13865369D01*
X-27951792Y-13924975D01*
X-27939974Y-13956661D01*
X-27934991Y-14026353D01*
X-27939974Y-14043323D01*
X-27951790Y-14075004D01*
X-27951791Y-14075008D01*
X-27958200Y-14134618D01*
X-27958200Y-14134625D01*
X-27958200Y-14134626D01*
X-27958200Y-14865361D01*
X-27958199Y-14865367D01*
X-27951792Y-14924974D01*
X-27901498Y-15059819D01*
X-27901494Y-15059826D01*
X-27815248Y-15175035D01*
X-27815245Y-15175038D01*
X-27700036Y-15261284D01*
X-27700029Y-15261288D01*
X-27565183Y-15311582D01*
X-27565184Y-15311582D01*
X-27558256Y-15312326D01*
X-27505573Y-15317991D01*
X-25606428Y-15317990D01*
X-25546817Y-15311582D01*
X-25411969Y-15261287D01*
X-25296754Y-15175037D01*
X-25210504Y-15059822D01*
X-25160209Y-14924974D01*
X-25153800Y-14865364D01*
X-25153801Y-14624499D01*
X-25134117Y-14557461D01*
X-25081313Y-14511706D01*
X-25029801Y-14500500D01*
X-16948231Y-14500500D01*
X-16881192Y-14520185D01*
X-16873920Y-14525233D01*
X-16836898Y-14552947D01*
X-16787155Y-14590185D01*
X-16782332Y-14593795D01*
X-16782329Y-14593797D01*
X-16647483Y-14644091D01*
X-16647484Y-14644091D01*
X-16640556Y-14644835D01*
X-16587873Y-14650500D01*
X-15692128Y-14650499D01*
X-15632517Y-14644091D01*
X-15497669Y-14593796D01*
X-15382454Y-14507546D01*
X-15339266Y-14449854D01*
X-15283333Y-14407984D01*
X-15213641Y-14403000D01*
X-15152318Y-14436485D01*
X-15140737Y-14449850D01*
X-15097546Y-14507546D01*
X-15060811Y-14535046D01*
X-14982336Y-14593793D01*
X-14982329Y-14593797D01*
X-14847483Y-14644091D01*
X-14847484Y-14644091D01*
X-14840556Y-14644835D01*
X-14787873Y-14650500D01*
X-13892128Y-14650499D01*
X-13832517Y-14644091D01*
X-13779993Y-14624501D01*
X-13697674Y-14593798D01*
X-13697674Y-14593797D01*
X-13697669Y-14593796D01*
X-13697666Y-14593793D01*
X-13690390Y-14589820D01*
X-13622118Y-14574961D01*
X-13556652Y-14599371D01*
X-13543267Y-14610968D01*
X-13530698Y-14623538D01*
X-13497216Y-14684863D01*
X-13495163Y-14697332D01*
X-13485370Y-14784249D01*
X-13425790Y-14954521D01*
X-13359625Y-15059822D01*
X-13329816Y-15107262D01*
X-13202262Y-15234816D01*
X-13160132Y-15261288D01*
X-13069892Y-15317990D01*
X-13049522Y-15330789D01*
X-12879255Y-15390368D01*
X-12879250Y-15390369D01*
X-12700004Y-15410565D01*
X-12700000Y-15410565D01*
X-12699996Y-15410565D01*
X-12520751Y-15390369D01*
X-12520748Y-15390368D01*
X-12520745Y-15390368D01*
X-12350478Y-15330789D01*
X-12197738Y-15234816D01*
X-12070184Y-15107262D01*
X-11974211Y-14954522D01*
X-11914632Y-14784255D01*
X-11914631Y-14784249D01*
X-11894435Y-14605003D01*
X-11894435Y-14604996D01*
X-11914631Y-14425750D01*
X-11914632Y-14425745D01*
X-11951801Y-14319522D01*
X-11974211Y-14255478D01*
X-11976932Y-14251148D01*
X-12013418Y-14193080D01*
X-12070184Y-14102738D01*
X-12115241Y-14057681D01*
X-12148726Y-13996358D01*
X-12143742Y-13926666D01*
X-12115241Y-13882319D01*
X-12098285Y-13865363D01*
X-12070184Y-13837262D01*
X-11974211Y-13684522D01*
X-11914632Y-13514255D01*
X-11913464Y-13503889D01*
X-11894435Y-13335003D01*
X-11894435Y-13334996D01*
X-11914631Y-13155750D01*
X-11914632Y-13155745D01*
X-11936733Y-13092585D01*
X-11974211Y-12985478D01*
X-11981881Y-12973272D01*
X-12013418Y-12923080D01*
X-12070184Y-12832738D01*
X-12115241Y-12787681D01*
X-12148726Y-12726358D01*
X-12143742Y-12656666D01*
X-12115241Y-12612319D01*
X-12110405Y-12607483D01*
X-12070184Y-12567262D01*
X-11974211Y-12414522D01*
X-11914632Y-12244255D01*
X-11914631Y-12244249D01*
X-11894435Y-12065003D01*
X-11894435Y-12064996D01*
X-11914631Y-11885750D01*
X-11914632Y-11885745D01*
X-11974211Y-11715478D01*
X-11981881Y-11703272D01*
X-12034937Y-11618834D01*
X-12070184Y-11562738D01*
X-12115241Y-11517681D01*
X-12148726Y-11456358D01*
X-12143742Y-11386666D01*
X-12115241Y-11342319D01*
X-12070184Y-11297262D01*
X-11974211Y-11144522D01*
X-11914632Y-10974255D01*
X-11914631Y-10974249D01*
X-11894435Y-10795003D01*
X-11894435Y-10794996D01*
X-11914631Y-10615750D01*
X-11914632Y-10615745D01*
X-11974212Y-10445476D01*
X-12013418Y-10383080D01*
X-12070184Y-10292738D01*
X-12115242Y-10247680D01*
X-12148726Y-10186358D01*
X-12143742Y-10116666D01*
X-12115241Y-10072319D01*
X-12102499Y-10059577D01*
X-12070184Y-10027262D01*
X-11974211Y-9874522D01*
X-11914632Y-9704255D01*
X-11914631Y-9704249D01*
X-11894435Y-9525003D01*
X-11894435Y-9524996D01*
X-11914631Y-9345750D01*
X-11914632Y-9345745D01*
X-11926324Y-9312331D01*
X-11974211Y-9175478D01*
X-11981881Y-9163272D01*
X-12040781Y-9069533D01*
X-12070184Y-9022738D01*
X-12115241Y-8977681D01*
X-12148726Y-8916358D01*
X-12143742Y-8846666D01*
X-12115241Y-8802319D01*
X-12070184Y-8757262D01*
X-11974211Y-8604522D01*
X-11914632Y-8434255D01*
X-11914205Y-8430466D01*
X-11894435Y-8255003D01*
X-11894435Y-8254996D01*
X-11914631Y-8075750D01*
X-11914632Y-8075745D01*
X-11974212Y-7905476D01*
X-12013418Y-7843080D01*
X-12070184Y-7752738D01*
X-12115241Y-7707681D01*
X-12148726Y-7646358D01*
X-12143742Y-7576666D01*
X-12115241Y-7532319D01*
X-12110405Y-7527483D01*
X-12070184Y-7487262D01*
X-11974211Y-7334522D01*
X-11914632Y-7164255D01*
X-11914631Y-7164249D01*
X-11894435Y-6985003D01*
X-11894435Y-6984996D01*
X-11914631Y-6805750D01*
X-11914632Y-6805745D01*
X-11941888Y-6727853D01*
X-11974211Y-6635478D01*
X-11981881Y-6623272D01*
X-12056895Y-6503887D01*
X-12070184Y-6482738D01*
X-12115241Y-6437681D01*
X-12148726Y-6376358D01*
X-12143742Y-6306666D01*
X-12115241Y-6262319D01*
X-12101428Y-6248506D01*
X-12070184Y-6217262D01*
X-11974211Y-6064522D01*
X-11914632Y-5894255D01*
X-11914631Y-5894249D01*
X-11894435Y-5715003D01*
X-11894435Y-5714996D01*
X-11914631Y-5535750D01*
X-11914632Y-5535745D01*
X-11950875Y-5432168D01*
X-11974211Y-5365478D01*
X-11981881Y-5353272D01*
X-12070185Y-5212737D01*
X-12197738Y-5085184D01*
X-12350477Y-4989211D01*
X-12520746Y-4929631D01*
X-12520751Y-4929630D01*
X-12699996Y-4909435D01*
X-12700004Y-4909435D01*
X-12879250Y-4929630D01*
X-12879255Y-4929631D01*
X-13049524Y-4989211D01*
X-13202263Y-5085184D01*
X-13329816Y-5212737D01*
X-13425790Y-5365478D01*
X-13485370Y-5535750D01*
X-13495163Y-5622666D01*
X-13522230Y-5687080D01*
X-13530698Y-5696460D01*
X-13543267Y-5709030D01*
X-13604589Y-5742517D01*
X-13674281Y-5737535D01*
X-13690379Y-5730184D01*
X-13697668Y-5726204D01*
X-13832518Y-5675908D01*
X-13832517Y-5675908D01*
X-13892117Y-5669501D01*
X-13892119Y-5669500D01*
X-13892127Y-5669500D01*
X-13892136Y-5669500D01*
X-14787871Y-5669500D01*
X-14787877Y-5669501D01*
X-14847484Y-5675908D01*
X-14982329Y-5726202D01*
X-14982336Y-5726206D01*
X-15097545Y-5812452D01*
X-15140734Y-5870145D01*
X-15196668Y-5912015D01*
X-15266360Y-5916999D01*
X-15327683Y-5883513D01*
X-15339266Y-5870145D01*
X-15373091Y-5824962D01*
X-15382454Y-5812454D01*
X-15382456Y-5812453D01*
X-15382456Y-5812452D01*
X-15497665Y-5726206D01*
X-15497672Y-5726202D01*
X-15632518Y-5675908D01*
X-15632517Y-5675908D01*
X-15692117Y-5669501D01*
X-15692119Y-5669500D01*
X-15692127Y-5669500D01*
X-15692136Y-5669500D01*
X-16587871Y-5669500D01*
X-16587877Y-5669501D01*
X-16647484Y-5675908D01*
X-16782329Y-5726202D01*
X-16782335Y-5726206D01*
X-16880137Y-5799420D01*
X-16922354Y-5819927D01*
X-17073485Y-5860423D01*
X-17073486Y-5860423D01*
X-17073488Y-5860424D01*
X-17073491Y-5860425D01*
X-17111306Y-5882258D01*
X-17111323Y-5882269D01*
X-17112378Y-5882877D01*
X-17174393Y-5899500D01*
X-25178885Y-5899500D01*
X-25245924Y-5879815D01*
X-25278150Y-5849813D01*
X-25296754Y-5824961D01*
X-25344376Y-5789311D01*
X-25411965Y-5738713D01*
X-25411972Y-5738709D01*
X-25546818Y-5688415D01*
X-25546817Y-5688415D01*
X-25606417Y-5682008D01*
X-25606419Y-5682007D01*
X-25606427Y-5682007D01*
X-25606436Y-5682007D01*
X-27505571Y-5682007D01*
X-27505577Y-5682008D01*
X-27565184Y-5688415D01*
X-27700029Y-5738709D01*
X-27700036Y-5738713D01*
X-27815245Y-5824959D01*
X-27815248Y-5824962D01*
X-27901494Y-5940171D01*
X-27901498Y-5940178D01*
X-27951790Y-6075020D01*
X-27951791Y-6075024D01*
X-27958200Y-6134634D01*
X-49399500Y-6134634D01*
X-49399500Y2416000D01*
X-49379815Y2483039D01*
X-49327011Y2528794D01*
X-49275500Y2540000D01*
X-40769386Y2540000D01*
X-40702347Y2520315D01*
X-40656592Y2467511D01*
X-40646648Y2398353D01*
X-40670269Y2343709D01*
X-40669711Y2343358D01*
X-40671983Y2339744D01*
X-40672438Y2338689D01*
X-40673413Y2337467D01*
X-40769389Y2184724D01*
X-40793595Y2115545D01*
X-40834317Y2058769D01*
X-40899270Y2033022D01*
X-40910637Y2032500D01*
X-41354057Y2032500D01*
X-41506784Y1991577D01*
X-41506791Y1991574D01*
X-41643710Y1912525D01*
X-41643718Y1912519D01*
X-41755519Y1800718D01*
X-41755525Y1800710D01*
X-41834574Y1663791D01*
X-41834577Y1663786D01*
X-41845066Y1624637D01*
X-41881431Y1564977D01*
X-41944279Y1534448D01*
X-42013654Y1542743D01*
X-42039153Y1557465D01*
X-42061369Y1574096D01*
X-42061372Y1574098D01*
X-42196214Y1624390D01*
X-42196215Y1624391D01*
X-42196217Y1624391D01*
X-42255827Y1630800D01*
X-42255837Y1630800D01*
X-42834171Y1630800D01*
X-42834177Y1630799D01*
X-42893784Y1624392D01*
X-43028629Y1574098D01*
X-43028636Y1574094D01*
X-43143845Y1487848D01*
X-43143848Y1487845D01*
X-43230094Y1372636D01*
X-43230098Y1372629D01*
X-43280392Y1237783D01*
X-43286799Y1178184D01*
X-43286800Y1178165D01*
X-43286800Y-771770D01*
X-43286799Y-771776D01*
X-43280392Y-831383D01*
X-43230098Y-966228D01*
X-43230094Y-966235D01*
X-43169001Y-1047844D01*
X-43148913Y-1097157D01*
X-43147603Y-1096807D01*
X-43145500Y-1104655D01*
X-43145500Y-1104657D01*
X-43104577Y-1257383D01*
X-43104574Y-1257390D01*
X-43025525Y-1394309D01*
X-43025521Y-1394314D01*
X-43025520Y-1394316D01*
X-42913716Y-1506120D01*
X-42913714Y-1506121D01*
X-42913710Y-1506124D01*
X-42782458Y-1581901D01*
X-42776784Y-1585177D01*
X-42624057Y-1626100D01*
X-42139500Y-1626100D01*
X-42072461Y-1645785D01*
X-42026706Y-1698589D01*
X-42015500Y-1750100D01*
X-42015500Y-2234995D01*
X-42035185Y-2302034D01*
X-42074400Y-2340532D01*
X-42093046Y-2352033D01*
X-42212971Y-2471959D01*
X-42301999Y-2616294D01*
X-42302004Y-2616305D01*
X-42355349Y-2777290D01*
X-42365500Y-2876647D01*
X-42365500Y-3473337D01*
X-42365499Y-3473355D01*
X-42355350Y-3572707D01*
X-42355349Y-3572710D01*
X-42302004Y-3733694D01*
X-42301999Y-3733705D01*
X-42212971Y-3878040D01*
X-42212968Y-3878044D01*
X-42093044Y-3997968D01*
X-42074404Y-4009465D01*
X-42027679Y-4061412D01*
X-42015500Y-4115004D01*
X-42015500Y-4139995D01*
X-42035185Y-4207034D01*
X-42074400Y-4245532D01*
X-42093046Y-4257033D01*
X-42212971Y-4376959D01*
X-42301999Y-4521294D01*
X-42302004Y-4521305D01*
X-42355349Y-4682290D01*
X-42365500Y-4781647D01*
X-42365500Y-5378337D01*
X-42365499Y-5378355D01*
X-42355350Y-5477707D01*
X-42355349Y-5477710D01*
X-42302004Y-5638694D01*
X-42301999Y-5638705D01*
X-42212971Y-5783040D01*
X-42212968Y-5783044D01*
X-42093045Y-5902967D01*
X-42093041Y-5902970D01*
X-41948706Y-5991998D01*
X-41948703Y-5991999D01*
X-41948697Y-5992003D01*
X-41787708Y-6045349D01*
X-41688345Y-6055500D01*
X-41141656Y-6055499D01*
X-41141648Y-6055498D01*
X-41141645Y-6055498D01*
X-41087240Y-6049940D01*
X-41042292Y-6045349D01*
X-40881303Y-5992003D01*
X-40736956Y-5902968D01*
X-40617032Y-5783044D01*
X-40527997Y-5638697D01*
X-40474651Y-5477708D01*
X-40464500Y-5378345D01*
X-40464501Y-4781656D01*
X-40468030Y-4747113D01*
X-40474651Y-4682292D01*
X-40474652Y-4682289D01*
X-40490248Y-4635223D01*
X-40527997Y-4521303D01*
X-40528001Y-4521297D01*
X-40528002Y-4521294D01*
X-40617030Y-4376959D01*
X-40617031Y-4376958D01*
X-40617032Y-4376956D01*
X-40736956Y-4257032D01*
X-40755601Y-4245531D01*
X-40802323Y-4193582D01*
X-40814500Y-4139995D01*
X-40814500Y-4115004D01*
X-40794815Y-4047965D01*
X-40755597Y-4009465D01*
X-40736956Y-3997968D01*
X-40617032Y-3878044D01*
X-40527997Y-3733697D01*
X-40474651Y-3572708D01*
X-40464500Y-3473345D01*
X-40464501Y-2876656D01*
X-40465154Y-2870268D01*
X-40474651Y-2777292D01*
X-40474652Y-2777289D01*
X-40484190Y-2748506D01*
X-40527997Y-2616303D01*
X-40528001Y-2616297D01*
X-40528002Y-2616294D01*
X-40617030Y-2471959D01*
X-40617031Y-2471958D01*
X-40617032Y-2471956D01*
X-40736956Y-2352032D01*
X-40755601Y-2340531D01*
X-40802323Y-2288582D01*
X-40814500Y-2234995D01*
X-40814500Y-1462217D01*
X-40797887Y-1400217D01*
X-40739355Y-1298836D01*
X-40739354Y-1298835D01*
X-40715426Y-1257390D01*
X-40715424Y-1257387D01*
X-40715423Y-1257384D01*
X-40674499Y-1104657D01*
X-40674499Y-1104654D01*
X-40672396Y-1096806D01*
X-40671084Y-1097157D01*
X-40650999Y-1047844D01*
X-40589907Y-966235D01*
X-40589908Y-966235D01*
X-40589904Y-966231D01*
X-40539609Y-831383D01*
X-40533200Y-771773D01*
X-40533201Y707500D01*
X-40513516Y774538D01*
X-40460713Y820293D01*
X-40409201Y831499D01*
X-40367746Y831499D01*
X-40367743Y831499D01*
X-40215015Y872423D01*
X-40164896Y901361D01*
X-40078084Y951480D01*
X-40025066Y1004500D01*
X-39963743Y1037985D01*
X-39951287Y1040037D01*
X-39864345Y1049832D01*
X-39694078Y1109411D01*
X-39541338Y1205384D01*
X-39413784Y1332938D01*
X-39317811Y1485678D01*
X-39258232Y1655945D01*
X-39258231Y1655951D01*
X-39238035Y1835197D01*
X-39238035Y1835204D01*
X-39258231Y2014450D01*
X-39258232Y2014455D01*
X-39277505Y2069534D01*
X-39317811Y2184722D01*
X-39413784Y2337462D01*
X-39413787Y2337465D01*
X-39413788Y2337467D01*
X-39414762Y2338689D01*
X-39415146Y2339629D01*
X-39417489Y2343358D01*
X-39416836Y2343769D01*
X-39441170Y2403376D01*
X-39428413Y2472071D01*
X-39380541Y2522964D01*
X-39317814Y2540000D01*
X-30480000Y2540000D01*
X-30480000Y22736000D01*
X-30460315Y22803039D01*
X-30407511Y22848794D01*
X-30356000Y22860000D01*
X-22860000Y22860000D01*
X-22860000Y23338352D01*
X-22840315Y23405391D01*
X-22787511Y23451146D01*
X-22718353Y23461090D01*
X-22654797Y23432065D01*
X-22617023Y23373287D01*
X-22612780Y23352235D01*
X-22608670Y23315751D01*
X-22608669Y23315746D01*
X-22549089Y23145477D01*
X-22453116Y22992738D01*
X-22325562Y22865184D01*
X-22172822Y22769211D01*
X-22002555Y22709632D01*
X-22002550Y22709631D01*
X-21823304Y22689435D01*
X-21823300Y22689435D01*
X-21823296Y22689435D01*
X-21644051Y22709631D01*
X-21644048Y22709632D01*
X-21644045Y22709632D01*
X-21473778Y22769211D01*
X-21321038Y22865184D01*
X-21193484Y22992738D01*
X-21097511Y23145478D01*
X-21037932Y23315745D01*
X-21037931Y23315751D01*
X-21017735Y23494997D01*
X-21017735Y23495004D01*
X-21037931Y23674250D01*
X-21037932Y23674255D01*
X-21080923Y23797117D01*
X-21097511Y23844522D01*
X-21105181Y23856728D01*
X-21193487Y23997266D01*
X-21195750Y24000104D01*
X-21196641Y24002285D01*
X-21197189Y24003158D01*
X-21197036Y24003255D01*
X-21222156Y24064791D01*
X-21222800Y24077413D01*
X-21222800Y31519201D01*
X-21203115Y31586240D01*
X-21150311Y31631995D01*
X-21098800Y31643201D01*
X-20018900Y31643201D01*
X-19951861Y31623516D01*
X-19906106Y31570712D01*
X-19894900Y31519201D01*
X-19894900Y20856070D01*
X-19894901Y20856052D01*
X-19894901Y20690346D01*
X-19894902Y20690346D01*
X-19894901Y20690343D01*
X-19853977Y20537615D01*
X-19853976Y20537613D01*
X-19853977Y20537613D01*
X-19844078Y20520469D01*
X-19844077Y20520468D01*
X-19774923Y20400688D01*
X-19774919Y20400683D01*
X-19656051Y20281815D01*
X-19656045Y20281810D01*
X-14236416Y14862181D01*
X-14202931Y14800858D01*
X-14207915Y14731166D01*
X-14249787Y14675233D01*
X-14315251Y14650816D01*
X-14324097Y14650500D01*
X-14787871Y14650500D01*
X-14787877Y14650499D01*
X-14847484Y14644092D01*
X-14982329Y14593798D01*
X-14982336Y14593794D01*
X-15097545Y14507548D01*
X-15140734Y14449855D01*
X-15196668Y14407985D01*
X-15266360Y14403001D01*
X-15327683Y14436487D01*
X-15339266Y14449855D01*
X-15377180Y14500501D01*
X-15382454Y14507546D01*
X-15382456Y14507547D01*
X-15382456Y14507548D01*
X-15497665Y14593794D01*
X-15497672Y14593798D01*
X-15632518Y14644092D01*
X-15632517Y14644092D01*
X-15692117Y14650499D01*
X-15692119Y14650500D01*
X-15692127Y14650500D01*
X-15692136Y14650500D01*
X-16587871Y14650500D01*
X-16587877Y14650499D01*
X-16647484Y14644092D01*
X-16782329Y14593798D01*
X-16782335Y14593794D01*
X-16880133Y14520583D01*
X-16922348Y14500076D01*
X-17073480Y14459579D01*
X-17073491Y14459574D01*
X-17210410Y14380525D01*
X-17214187Y14377626D01*
X-17279356Y14352430D01*
X-17289676Y14352000D01*
X-25014430Y14352000D01*
X-25014446Y14352001D01*
X-25022042Y14352001D01*
X-25180157Y14352001D01*
X-25256521Y14331539D01*
X-25332886Y14311077D01*
X-25332887Y14311076D01*
X-25365722Y14292119D01*
X-25433622Y14275649D01*
X-25471052Y14283326D01*
X-25546818Y14311585D01*
X-25546817Y14311585D01*
X-25606417Y14317992D01*
X-25606419Y14317993D01*
X-25606427Y14317993D01*
X-25606436Y14317993D01*
X-27505571Y14317993D01*
X-27505577Y14317992D01*
X-27565184Y14311585D01*
X-27700029Y14261291D01*
X-27700036Y14261287D01*
X-27815245Y14175041D01*
X-27815248Y14175038D01*
X-27901494Y14059829D01*
X-27901498Y14059822D01*
X-27951790Y13924980D01*
X-27951791Y13924976D01*
X-27958200Y13865366D01*
X-27958200Y13865359D01*
X-27958200Y13865358D01*
X-27958200Y13134623D01*
X-27958199Y13134617D01*
X-27951792Y13075011D01*
X-27939974Y13043325D01*
X-27934991Y12973633D01*
X-27939974Y12956663D01*
X-27951790Y12924982D01*
X-27951791Y12924978D01*
X-27958200Y12865368D01*
X-27958200Y12865361D01*
X-27958200Y12865360D01*
X-27958200Y12134625D01*
X-27958199Y12134619D01*
X-27951792Y12075013D01*
X-27939974Y12043327D01*
X-27934991Y11973635D01*
X-27939974Y11956665D01*
X-27951784Y11925000D01*
X-27951791Y11924980D01*
X-27958200Y11865370D01*
X-27958200Y11865363D01*
X-27958200Y11865362D01*
X-27958200Y11134627D01*
X-27958199Y11134621D01*
X-27951792Y11075015D01*
X-27939974Y11043329D01*
X-27934991Y10973637D01*
X-27939974Y10956667D01*
X-27942406Y10950145D01*
X-27951791Y10924982D01*
X-27958200Y10865372D01*
X-27958200Y10865365D01*
X-27958200Y10865364D01*
X-27958200Y10134629D01*
X-27958199Y10134623D01*
X-27951792Y10075017D01*
X-27939974Y10043331D01*
X-27934991Y9973639D01*
X-27939974Y9956669D01*
X-27951790Y9924988D01*
X-27951791Y9924984D01*
X-27958200Y9865374D01*
X-27958200Y9865367D01*
X-27958200Y9865366D01*
X-27958200Y9134631D01*
X-27958199Y9134625D01*
X-27951792Y9075019D01*
X-27939974Y9043333D01*
X-27934991Y8973641D01*
X-27939974Y8956671D01*
X-27951790Y8924990D01*
X-27951791Y8924986D01*
X-27958200Y8865376D01*
X-27958200Y8865369D01*
X-27958200Y8865368D01*
X-27958200Y8134633D01*
X-27958199Y8134627D01*
X-27951792Y8075021D01*
X-27939974Y8043335D01*
X-27934991Y7973643D01*
X-27939974Y7956673D01*
X-27951790Y7924992D01*
X-27951791Y7924988D01*
X-27958200Y7865378D01*
X-27958200Y7865371D01*
X-27958200Y7865370D01*
X-27958200Y7134635D01*
X-27958199Y7134629D01*
X-27951792Y7075023D01*
X-27939974Y7043337D01*
X-27934991Y6973645D01*
X-27939974Y6956675D01*
X-27951790Y6924994D01*
X-27951791Y6924990D01*
X-27958200Y6865380D01*
X-27958200Y6865373D01*
X-27958200Y6865372D01*
X-27958200Y6134637D01*
X-27958199Y6134631D01*
X-27951792Y6075025D01*
X-27939974Y6043339D01*
X-27934991Y5973647D01*
X-27939974Y5956677D01*
X-27950793Y5927669D01*
X-27951791Y5924992D01*
X-27958200Y5865382D01*
X-27958200Y5865375D01*
X-27958200Y5865374D01*
X-27958200Y5134639D01*
X-27958199Y5134633D01*
X-27951792Y5075026D01*
X-27901498Y4940181D01*
X-27901494Y4940174D01*
X-27815248Y4824965D01*
X-27815245Y4824962D01*
X-27700036Y4738716D01*
X-27700029Y4738712D01*
X-27565183Y4688418D01*
X-27565184Y4688418D01*
X-27558256Y4687674D01*
X-27505573Y4682009D01*
X-25606428Y4682010D01*
X-25546817Y4688418D01*
X-25411969Y4738713D01*
X-25296754Y4824963D01*
X-25210504Y4940178D01*
X-25160209Y5075026D01*
X-25153800Y5134636D01*
X-25153801Y5775501D01*
X-25134117Y5842539D01*
X-25081313Y5888294D01*
X-25029801Y5899500D01*
X-17174394Y5899500D01*
X-17112395Y5882888D01*
X-17090324Y5870145D01*
X-17082073Y5865381D01*
X-17073485Y5860423D01*
X-16922350Y5819927D01*
X-16880136Y5799421D01*
X-16782331Y5726204D01*
X-16782329Y5726203D01*
X-16647483Y5675909D01*
X-16647484Y5675909D01*
X-16640556Y5675165D01*
X-16587873Y5669500D01*
X-15692128Y5669501D01*
X-15632517Y5675909D01*
X-15497669Y5726204D01*
X-15382454Y5812454D01*
X-15339266Y5870146D01*
X-15283333Y5912016D01*
X-15213641Y5917000D01*
X-15152318Y5883515D01*
X-15140737Y5870150D01*
X-15097546Y5812454D01*
X-15080662Y5799815D01*
X-14982336Y5726207D01*
X-14982329Y5726203D01*
X-14847483Y5675909D01*
X-14847484Y5675909D01*
X-14840556Y5675165D01*
X-14787873Y5669500D01*
X-13892128Y5669501D01*
X-13832517Y5675909D01*
X-13697669Y5726204D01*
X-13631818Y5775500D01*
X-13606080Y5794767D01*
X-13540615Y5819184D01*
X-13531769Y5819500D01*
X-11800097Y5819500D01*
X-11733058Y5799815D01*
X-11712416Y5783181D01*
X-8739861Y2810626D01*
X-8739851Y2810615D01*
X-8735521Y2806285D01*
X-8735520Y2806284D01*
X-8623716Y2694480D01*
X-8539780Y2646020D01*
X-8539779Y2646019D01*
X-8486791Y2615426D01*
X-8486788Y2615424D01*
X-8486786Y2615424D01*
X-8486785Y2615423D01*
X-8334057Y2574499D01*
X-8334054Y2574499D01*
X-8168347Y2574499D01*
X-8168331Y2574500D01*
X-4722839Y2574500D01*
X-4655800Y2554815D01*
X-4610045Y2502011D01*
X-4600101Y2432853D01*
X-4605797Y2409545D01*
X-4628469Y2344755D01*
X-4628470Y2344750D01*
X-4648665Y2165504D01*
X-4648665Y2165496D01*
X-4638685Y2076917D01*
X-4650740Y2008095D01*
X-4698089Y1956716D01*
X-4727310Y1943958D01*
X-4855394Y1906747D01*
X-4855397Y1906745D01*
X-4996863Y1823083D01*
X-4996871Y1823077D01*
X-5113077Y1706871D01*
X-5113083Y1706863D01*
X-5196745Y1565397D01*
X-5196746Y1565394D01*
X-5242598Y1407574D01*
X-5242599Y1407568D01*
X-5245500Y1370702D01*
X-5245500Y-510701D01*
X-5242599Y-547567D01*
X-5242598Y-547573D01*
X-5196746Y-705393D01*
X-5196745Y-705396D01*
X-5113083Y-846862D01*
X-5113077Y-846870D01*
X-4996871Y-963076D01*
X-4996867Y-963079D01*
X-4996865Y-963081D01*
X-4855398Y-1046744D01*
X-4813776Y-1058836D01*
X-4697574Y-1092597D01*
X-4697571Y-1092597D01*
X-4697569Y-1092598D01*
X-4660694Y-1095500D01*
X-4660686Y-1095500D01*
X-4229314Y-1095500D01*
X-4229306Y-1095500D01*
X-4192431Y-1092598D01*
X-4192429Y-1092597D01*
X-4192427Y-1092597D01*
X-4092679Y-1063617D01*
X-4034602Y-1046744D01*
X-3893135Y-963081D01*
X-3893130Y-963075D01*
X-3886969Y-958298D01*
X-3885067Y-960750D01*
X-3836421Y-934155D01*
X-3766726Y-939104D01*
X-3734305Y-959940D01*
X-3733031Y-958298D01*
X-3726868Y-963078D01*
X-3726865Y-963081D01*
X-3585398Y-1046744D01*
X-3543776Y-1058836D01*
X-3427574Y-1092597D01*
X-3427571Y-1092597D01*
X-3427569Y-1092598D01*
X-3390694Y-1095500D01*
X-3390686Y-1095500D01*
X-2959314Y-1095500D01*
X-2959306Y-1095500D01*
X-2922431Y-1092598D01*
X-2922429Y-1092597D01*
X-2922427Y-1092597D01*
X-2822679Y-1063617D01*
X-2764602Y-1046744D01*
X-2623135Y-963081D01*
X-2623130Y-963075D01*
X-2616969Y-958298D01*
X-2615067Y-960750D01*
X-2566421Y-934155D01*
X-2496726Y-939104D01*
X-2464305Y-959940D01*
X-2463031Y-958298D01*
X-2456868Y-963078D01*
X-2456865Y-963081D01*
X-2315398Y-1046744D01*
X-2273776Y-1058836D01*
X-2157574Y-1092597D01*
X-2157571Y-1092597D01*
X-2157569Y-1092598D01*
X-2120694Y-1095500D01*
X-2120686Y-1095500D01*
X-1689314Y-1095500D01*
X-1689306Y-1095500D01*
X-1652431Y-1092598D01*
X-1652429Y-1092597D01*
X-1652427Y-1092597D01*
X-1552679Y-1063617D01*
X-1494602Y-1046744D01*
X-1422619Y-1004173D01*
X-1354898Y-986991D01*
X-1288635Y-1009151D01*
X-1244871Y-1063617D01*
X-1235500Y-1110906D01*
X-1235500Y-8803330D01*
X-1235501Y-8803348D01*
X-1235501Y-8969054D01*
X-1235502Y-8969054D01*
X-1194577Y-9121787D01*
X-1194576Y-9121788D01*
X-1187164Y-9134625D01*
X-1187162Y-9134628D01*
X-1115523Y-9258712D01*
X-1115519Y-9258717D01*
X-996651Y-9377585D01*
X-996645Y-9377590D01*
X3614298Y-13988533D01*
X3647783Y-14049856D01*
X3649837Y-14062330D01*
X3659630Y-14149249D01*
X3719210Y-14319521D01*
X3792704Y-14436485D01*
X3815184Y-14472262D01*
X3942738Y-14599816D01*
X4023401Y-14650500D01*
X4085454Y-14689491D01*
X4095478Y-14695789D01*
X4166098Y-14720500D01*
X4265745Y-14755368D01*
X4265750Y-14755369D01*
X4444996Y-14775565D01*
X4445000Y-14775565D01*
X4445004Y-14775565D01*
X4624249Y-14755369D01*
X4624252Y-14755368D01*
X4624255Y-14755368D01*
X4794522Y-14695789D01*
X4947262Y-14599816D01*
X4947267Y-14599810D01*
X4950097Y-14597555D01*
X4952275Y-14596665D01*
X4953158Y-14596111D01*
X4953255Y-14596265D01*
X5014783Y-14571145D01*
X5027412Y-14570500D01*
X8990728Y-14570500D01*
X9057767Y-14590185D01*
X9103522Y-14642989D01*
X9113466Y-14712147D01*
X9089993Y-14768813D01*
X9087406Y-14772267D01*
X9087404Y-14772271D01*
X9037112Y-14907113D01*
X9037111Y-14907117D01*
X9030702Y-14966727D01*
X9030702Y-14966734D01*
X9030702Y-14966735D01*
X9030702Y-15485768D01*
X9011017Y-15552807D01*
X8994383Y-15573449D01*
X-2705347Y-27273181D01*
X-2766670Y-27306666D01*
X-2793028Y-27309500D01*
X-3507010Y-27309500D01*
X-3574049Y-27289815D01*
X-3614397Y-27247500D01*
X-3691755Y-27113511D01*
X-3848328Y-26917175D01*
X-3848329Y-26917174D01*
X-3848332Y-26917170D01*
X-4032414Y-26746368D01*
X-4239901Y-26604906D01*
X-4239905Y-26604904D01*
X-4239908Y-26604902D01*
X-4239909Y-26604901D01*
X-4466153Y-26495949D01*
X-4466151Y-26495949D01*
X-4706113Y-26421930D01*
X-4706117Y-26421929D01*
X-4706121Y-26421928D01*
X-4825568Y-26403924D01*
X-4954434Y-26384500D01*
X-4954439Y-26384500D01*
X-5205561Y-26384500D01*
X-5205567Y-26384500D01*
X-5360208Y-26407809D01*
X-5453879Y-26421928D01*
X-5453882Y-26421929D01*
X-5453888Y-26421930D01*
X-5693849Y-26495949D01*
X-5920092Y-26604901D01*
X-5920093Y-26604902D01*
X-6127587Y-26746368D01*
X-6311669Y-26917170D01*
X-6468245Y-27113511D01*
X-6593806Y-27330988D01*
X-6685550Y-27564747D01*
X-6685555Y-27564764D01*
X-6741433Y-27809580D01*
X-6760198Y-28059995D01*
X-6760198Y-28060004D01*
X-6741433Y-28310419D01*
X-6685555Y-28555235D01*
X-6685552Y-28555247D01*
X-6685550Y-28555252D01*
X-6593806Y-28789011D01*
X-6593807Y-28789011D01*
X-6573441Y-28824285D01*
X-6468245Y-29006489D01*
X-6341783Y-29165067D01*
X-6311669Y-29202829D01*
X-6137893Y-29364069D01*
X-6127586Y-29373632D01*
X-5920099Y-29515094D01*
X-5920094Y-29515096D01*
X-5920093Y-29515097D01*
X-5920092Y-29515098D01*
X-5799930Y-29572964D01*
X-5693849Y-29624050D01*
X-5693848Y-29624050D01*
X-5693845Y-29624052D01*
X-5453879Y-29698072D01*
X-5205561Y-29735500D01*
X-5205560Y-29735500D01*
X-4954440Y-29735500D01*
X-4954439Y-29735500D01*
X-4706121Y-29698072D01*
X-4466155Y-29624052D01*
X-4239901Y-29515094D01*
X-4032414Y-29373632D01*
X-3848328Y-29202825D01*
X-3691755Y-29006489D01*
X-3614397Y-28872499D01*
X-3563830Y-28824285D01*
X-3507010Y-28810500D01*
X-2356878Y-28810500D01*
X-2248850Y-28789011D01*
X-2211885Y-28781658D01*
X-2075303Y-28725084D01*
X-2026069Y-28692186D01*
X-1952382Y-28642952D01*
X10688351Y-16002217D01*
X10749674Y-15968733D01*
X10776032Y-15965899D01*
X11295073Y-15965899D01*
X11295074Y-15965899D01*
X11354685Y-15959491D01*
X11489533Y-15909196D01*
X11604748Y-15822946D01*
X11690998Y-15707731D01*
X11741293Y-15572883D01*
X11747702Y-15513273D01*
X11747701Y-14966728D01*
X11741293Y-14907117D01*
X11725721Y-14865367D01*
X11690999Y-14772271D01*
X11690995Y-14772264D01*
X11621410Y-14679311D01*
X11596992Y-14613847D01*
X11611843Y-14545574D01*
X11621410Y-14530689D01*
X11690995Y-14437735D01*
X11690994Y-14437735D01*
X11690998Y-14437731D01*
X11741293Y-14302883D01*
X11747702Y-14243273D01*
X11747701Y-13696728D01*
X11741293Y-13637117D01*
X11695468Y-13514255D01*
X11690999Y-13502271D01*
X11690995Y-13502264D01*
X11621410Y-13409311D01*
X11596992Y-13343847D01*
X11611843Y-13275574D01*
X11621410Y-13260689D01*
X11690995Y-13167735D01*
X11690994Y-13167735D01*
X11690998Y-13167731D01*
X11741293Y-13032883D01*
X11747702Y-12973273D01*
X11747701Y-12426728D01*
X11741293Y-12367117D01*
X11735673Y-12352050D01*
X11690999Y-12232271D01*
X11690995Y-12232264D01*
X11621410Y-12139311D01*
X11596992Y-12073847D01*
X11611843Y-12005574D01*
X11621410Y-11990689D01*
X11690995Y-11897735D01*
X11690994Y-11897735D01*
X11690998Y-11897731D01*
X11741293Y-11762883D01*
X11747702Y-11703273D01*
X11747701Y-11156728D01*
X11741293Y-11097117D01*
X11727769Y-11060858D01*
X11690999Y-10962271D01*
X11690995Y-10962264D01*
X11621410Y-10869311D01*
X11596992Y-10803847D01*
X11611843Y-10735574D01*
X11621410Y-10720689D01*
X11690995Y-10627735D01*
X11690994Y-10627735D01*
X11690998Y-10627731D01*
X11741293Y-10492883D01*
X11747702Y-10433273D01*
X11747701Y-9886728D01*
X11741293Y-9827117D01*
X11720415Y-9771141D01*
X11690999Y-9692271D01*
X11690995Y-9692264D01*
X11621410Y-9599311D01*
X11596992Y-9533847D01*
X11611843Y-9465574D01*
X11621410Y-9450689D01*
X11690995Y-9357735D01*
X11690994Y-9357735D01*
X11690998Y-9357731D01*
X11741293Y-9222883D01*
X11747702Y-9163273D01*
X11747701Y-8616728D01*
X11741293Y-8557117D01*
X11715074Y-8486821D01*
X11690999Y-8422271D01*
X11690995Y-8422264D01*
X11621410Y-8329311D01*
X11596992Y-8263847D01*
X11611843Y-8195574D01*
X11621410Y-8180689D01*
X11690995Y-8087735D01*
X11690994Y-8087735D01*
X11690998Y-8087731D01*
X11741293Y-7952883D01*
X11747702Y-7893273D01*
X11747701Y-7346728D01*
X11741293Y-7287117D01*
X11727877Y-7251148D01*
X11690999Y-7152271D01*
X11690995Y-7152264D01*
X11621410Y-7059311D01*
X11596992Y-6993847D01*
X11611843Y-6925574D01*
X11621410Y-6910689D01*
X11690995Y-6817735D01*
X11690994Y-6817735D01*
X11690998Y-6817731D01*
X11741293Y-6682883D01*
X11747702Y-6623273D01*
X11747701Y-6076728D01*
X11741293Y-6017117D01*
X11731924Y-5991998D01*
X11690999Y-5882271D01*
X11690995Y-5882264D01*
X11621410Y-5789311D01*
X11596992Y-5723847D01*
X11611843Y-5655574D01*
X11621410Y-5640689D01*
X11690995Y-5547735D01*
X11690994Y-5547735D01*
X11690998Y-5547731D01*
X11741293Y-5412883D01*
X11747702Y-5353273D01*
X11747701Y-4806728D01*
X11741293Y-4747117D01*
X11741292Y-4747115D01*
X11690999Y-4612271D01*
X11690995Y-4612264D01*
X11604749Y-4497055D01*
X11604746Y-4497052D01*
X11489537Y-4410806D01*
X11489530Y-4410802D01*
X11354684Y-4360508D01*
X11354685Y-4360508D01*
X11295085Y-4354101D01*
X11295083Y-4354100D01*
X11295075Y-4354100D01*
X11295066Y-4354100D01*
X9483331Y-4354100D01*
X9483325Y-4354101D01*
X9423718Y-4360508D01*
X9288873Y-4410802D01*
X9288867Y-4410805D01*
X9249737Y-4440098D01*
X9184273Y-4464514D01*
X9116000Y-4449662D01*
X9087747Y-4428511D01*
X8891819Y-4232583D01*
X8858334Y-4171260D01*
X8855500Y-4144902D01*
X8855500Y-3122412D01*
X8875185Y-3055373D01*
X8882555Y-3045097D01*
X8884810Y-3042267D01*
X8884816Y-3042262D01*
X8980789Y-2889522D01*
X9040368Y-2719255D01*
X9051969Y-2616294D01*
X9060565Y-2540003D01*
X9060565Y-2539996D01*
X9040369Y-2360750D01*
X9040368Y-2360745D01*
X8980788Y-2190476D01*
X8947645Y-2137730D01*
X8884816Y-2037738D01*
X8884814Y-2037736D01*
X8884813Y-2037734D01*
X8882550Y-2034896D01*
X8881659Y-2032715D01*
X8881111Y-2031842D01*
X8881264Y-2031745D01*
X8856144Y-1970209D01*
X8855500Y-1957587D01*
X8855500Y-965808D01*
X8875185Y-898769D01*
X8891820Y-878126D01*
X8923076Y-846870D01*
X8923081Y-846865D01*
X9006744Y-705398D01*
X9052598Y-547569D01*
X9055500Y-510694D01*
X9055500Y1370694D01*
X9052598Y1407569D01*
X9045945Y1430467D01*
X9006745Y1565394D01*
X9006744Y1565397D01*
X9006744Y1565398D01*
X8923081Y1706865D01*
X8923079Y1706867D01*
X8923076Y1706871D01*
X8806870Y1823077D01*
X8806862Y1823083D01*
X8686015Y1894551D01*
X8665398Y1906744D01*
X8665397Y1906745D01*
X8665396Y1906745D01*
X8665393Y1906746D01*
X8507573Y1952598D01*
X8507567Y1952599D01*
X8470701Y1955500D01*
X8470694Y1955500D01*
X8039306Y1955500D01*
X8039298Y1955500D01*
X8002432Y1952599D01*
X8002426Y1952598D01*
X7844606Y1906746D01*
X7844603Y1906745D01*
X7703137Y1823083D01*
X7696969Y1818298D01*
X7695072Y1820744D01*
X7646358Y1794143D01*
X7576666Y1799127D01*
X7544296Y1819931D01*
X7543031Y1818298D01*
X7536862Y1823083D01*
X7416015Y1894551D01*
X7395398Y1906744D01*
X7395397Y1906745D01*
X7395396Y1906745D01*
X7395393Y1906746D01*
X7237573Y1952598D01*
X7237567Y1952599D01*
X7200701Y1955500D01*
X7200694Y1955500D01*
X6769306Y1955500D01*
X6769298Y1955500D01*
X6732432Y1952599D01*
X6732426Y1952598D01*
X6574606Y1906746D01*
X6574603Y1906745D01*
X6433137Y1823083D01*
X6426969Y1818298D01*
X6425072Y1820744D01*
X6376358Y1794143D01*
X6306666Y1799127D01*
X6274296Y1819931D01*
X6273031Y1818298D01*
X6266862Y1823083D01*
X6146015Y1894551D01*
X6125398Y1906744D01*
X6125397Y1906745D01*
X6125396Y1906745D01*
X6125393Y1906746D01*
X5967573Y1952598D01*
X5967567Y1952599D01*
X5930701Y1955500D01*
X5930694Y1955500D01*
X5499306Y1955500D01*
X5499298Y1955500D01*
X5462432Y1952599D01*
X5462426Y1952598D01*
X5304606Y1906746D01*
X5304603Y1906745D01*
X5163137Y1823083D01*
X5156969Y1818298D01*
X5155072Y1820744D01*
X5106358Y1794143D01*
X5036666Y1799127D01*
X5004296Y1819931D01*
X5003031Y1818298D01*
X4996862Y1823083D01*
X4876015Y1894551D01*
X4855398Y1906744D01*
X4855397Y1906745D01*
X4855396Y1906745D01*
X4855393Y1906746D01*
X4697573Y1952598D01*
X4697567Y1952599D01*
X4660701Y1955500D01*
X4660694Y1955500D01*
X4229306Y1955500D01*
X4229298Y1955500D01*
X4192432Y1952599D01*
X4192426Y1952598D01*
X4034606Y1906746D01*
X4034603Y1906745D01*
X3893137Y1823083D01*
X3886969Y1818298D01*
X3885072Y1820744D01*
X3836358Y1794143D01*
X3766666Y1799127D01*
X3734296Y1819931D01*
X3733031Y1818298D01*
X3726862Y1823083D01*
X3606015Y1894551D01*
X3585398Y1906744D01*
X3585397Y1906745D01*
X3585396Y1906745D01*
X3585393Y1906746D01*
X3427573Y1952598D01*
X3427567Y1952599D01*
X3390701Y1955500D01*
X3390694Y1955500D01*
X2959306Y1955500D01*
X2959298Y1955500D01*
X2922432Y1952599D01*
X2922426Y1952598D01*
X2764606Y1906746D01*
X2764603Y1906745D01*
X2623137Y1823083D01*
X2616969Y1818298D01*
X2615072Y1820744D01*
X2566358Y1794143D01*
X2496666Y1799127D01*
X2464296Y1819931D01*
X2463031Y1818298D01*
X2456862Y1823083D01*
X2336015Y1894551D01*
X2315398Y1906744D01*
X2315397Y1906745D01*
X2315396Y1906745D01*
X2315393Y1906746D01*
X2157573Y1952598D01*
X2157567Y1952599D01*
X2120701Y1955500D01*
X2120694Y1955500D01*
X1689306Y1955500D01*
X1689298Y1955500D01*
X1652432Y1952599D01*
X1652426Y1952598D01*
X1494606Y1906746D01*
X1494603Y1906745D01*
X1353137Y1823083D01*
X1346969Y1818298D01*
X1345072Y1820744D01*
X1296358Y1794143D01*
X1226666Y1799127D01*
X1194296Y1819931D01*
X1193031Y1818298D01*
X1186862Y1823083D01*
X1066015Y1894551D01*
X1045398Y1906744D01*
X1045397Y1906745D01*
X1045396Y1906745D01*
X1045393Y1906746D01*
X887573Y1952598D01*
X887567Y1952599D01*
X850701Y1955500D01*
X850694Y1955500D01*
X419306Y1955500D01*
X419298Y1955500D01*
X382432Y1952599D01*
X382426Y1952598D01*
X224606Y1906746D01*
X224603Y1906745D01*
X83137Y1823083D01*
X76969Y1818298D01*
X75072Y1820744D01*
X26358Y1794143D01*
X-43334Y1799127D01*
X-75704Y1819931D01*
X-76969Y1818298D01*
X-83138Y1823083D01*
X-203985Y1894551D01*
X-224602Y1906744D01*
X-224603Y1906745D01*
X-224604Y1906745D01*
X-224607Y1906746D01*
X-382427Y1952598D01*
X-382433Y1952599D01*
X-419299Y1955500D01*
X-419306Y1955500D01*
X-850694Y1955500D01*
X-850702Y1955500D01*
X-887568Y1952599D01*
X-887574Y1952598D01*
X-1045394Y1906746D01*
X-1045397Y1906745D01*
X-1186863Y1823083D01*
X-1193031Y1818298D01*
X-1194928Y1820744D01*
X-1243642Y1794143D01*
X-1313334Y1799127D01*
X-1345704Y1819931D01*
X-1346969Y1818298D01*
X-1353138Y1823083D01*
X-1473985Y1894551D01*
X-1494602Y1906744D01*
X-1494603Y1906745D01*
X-1494604Y1906745D01*
X-1494607Y1906746D01*
X-1652427Y1952598D01*
X-1652433Y1952599D01*
X-1689299Y1955500D01*
X-1689306Y1955500D01*
X-2120694Y1955500D01*
X-2120702Y1955500D01*
X-2157568Y1952599D01*
X-2157574Y1952598D01*
X-2315394Y1906746D01*
X-2315397Y1906745D01*
X-2456863Y1823083D01*
X-2463031Y1818298D01*
X-2464928Y1820744D01*
X-2513642Y1794143D01*
X-2583334Y1799127D01*
X-2615704Y1819931D01*
X-2616969Y1818298D01*
X-2623138Y1823083D01*
X-2743985Y1894551D01*
X-2764602Y1906744D01*
X-2764603Y1906745D01*
X-2764604Y1906745D01*
X-2764607Y1906746D01*
X-2922427Y1952598D01*
X-2922432Y1952599D01*
X-2932453Y1953387D01*
X-2997741Y1978272D01*
X-3039211Y2034504D01*
X-3045942Y2090888D01*
X-3037535Y2165500D01*
X-3039701Y2184722D01*
X-3057731Y2344750D01*
X-3057732Y2344755D01*
X-3080403Y2409545D01*
X-3083964Y2479324D01*
X-3049235Y2539952D01*
X-2987242Y2572179D01*
X-2963361Y2574500D01*
X2008883Y2574500D01*
X2008899Y2574499D01*
X2016495Y2574499D01*
X2174606Y2574499D01*
X2174609Y2574499D01*
X2327337Y2615423D01*
X2338537Y2621890D01*
X2380331Y2646019D01*
X2380332Y2646020D01*
X2464268Y2694480D01*
X2576072Y2806284D01*
X2576072Y2806286D01*
X2586276Y2816489D01*
X2586280Y2816494D01*
X7938609Y8168824D01*
X7999930Y8202307D01*
X8036016Y8204759D01*
X8039306Y8204500D01*
X8039314Y8204500D01*
X8470686Y8204500D01*
X8470694Y8204500D01*
X8507569Y8207402D01*
X8507571Y8207403D01*
X8507573Y8207403D01*
X8553740Y8220816D01*
X8665398Y8253256D01*
X8806865Y8336919D01*
X8923081Y8453135D01*
X9006744Y8594602D01*
X9040505Y8710809D01*
X9052597Y8752427D01*
X9052598Y8752433D01*
X9055499Y8789299D01*
X9055500Y8789306D01*
X9055500Y10670694D01*
X9052598Y10707569D01*
X9050967Y10713182D01*
X9006754Y10865364D01*
X9006744Y10865398D01*
X8923081Y11006865D01*
X8923079Y11006867D01*
X8923076Y11006871D01*
X8891819Y11038128D01*
X8858334Y11099451D01*
X8855500Y11125809D01*
X8855500Y14711146D01*
X8875185Y14778185D01*
X8927989Y14823940D01*
X8997147Y14833884D01*
X9060703Y14804859D01*
X9081561Y14778974D01*
X9082090Y14779369D01*
X9173654Y14657056D01*
X9173657Y14657053D01*
X9288866Y14570807D01*
X9288873Y14570803D01*
X9333820Y14554039D01*
X9423719Y14520509D01*
X9483329Y14514100D01*
X10179399Y14514101D01*
X10203592Y14511718D01*
X10315283Y14489500D01*
X10315284Y14489500D01*
X11821122Y14489500D01*
X11918664Y14508904D01*
X11966115Y14518342D01*
X12102697Y14574916D01*
X12170742Y14620382D01*
X12225618Y14657048D01*
X12480154Y14911584D01*
X12529388Y14985271D01*
X12562286Y15034505D01*
X12618860Y15171087D01*
X12647702Y15316082D01*
X12647702Y25673273D01*
X18732298Y25673273D01*
X18732298Y25673266D01*
X18732298Y25673265D01*
X18732298Y25126730D01*
X18732299Y25126724D01*
X18738706Y25067117D01*
X18789000Y24932272D01*
X18789002Y24932269D01*
X18858590Y24839311D01*
X18883007Y24773846D01*
X18868155Y24705573D01*
X18858590Y24690689D01*
X18789002Y24597732D01*
X18789000Y24597729D01*
X18738708Y24462887D01*
X18738707Y24462883D01*
X18732298Y24403273D01*
X18732298Y24403266D01*
X18732298Y24403265D01*
X18732298Y23856730D01*
X18732299Y23856724D01*
X18738706Y23797117D01*
X18789000Y23662272D01*
X18789002Y23662269D01*
X18858590Y23569311D01*
X18883007Y23503846D01*
X18868155Y23435573D01*
X18858590Y23420689D01*
X18789002Y23327732D01*
X18789000Y23327729D01*
X18738708Y23192887D01*
X18738707Y23192883D01*
X18732298Y23133273D01*
X18732298Y23133266D01*
X18732298Y23133265D01*
X18732298Y22586730D01*
X18732299Y22586724D01*
X18738706Y22527117D01*
X18789000Y22392272D01*
X18789002Y22392269D01*
X18858590Y22299311D01*
X18883007Y22233846D01*
X18868155Y22165573D01*
X18858590Y22150689D01*
X18789002Y22057732D01*
X18789000Y22057729D01*
X18738708Y21922887D01*
X18738707Y21922883D01*
X18732298Y21863273D01*
X18732298Y21863266D01*
X18732298Y21863265D01*
X18732298Y21316730D01*
X18732299Y21316724D01*
X18738706Y21257117D01*
X18789000Y21122272D01*
X18789002Y21122269D01*
X18858590Y21029311D01*
X18883007Y20963846D01*
X18868155Y20895573D01*
X18858590Y20880689D01*
X18789002Y20787732D01*
X18789000Y20787729D01*
X18738708Y20652887D01*
X18738707Y20652883D01*
X18732298Y20593273D01*
X18732298Y20593266D01*
X18732298Y20593265D01*
X18732298Y20046730D01*
X18732299Y20046724D01*
X18738706Y19987117D01*
X18789000Y19852272D01*
X18789002Y19852269D01*
X18858590Y19759311D01*
X18883007Y19693846D01*
X18868155Y19625573D01*
X18858590Y19610689D01*
X18789002Y19517732D01*
X18789000Y19517729D01*
X18738708Y19382887D01*
X18738707Y19382883D01*
X18732298Y19323273D01*
X18732298Y19323266D01*
X18732298Y19323265D01*
X18732298Y18776730D01*
X18732299Y18776724D01*
X18738706Y18717117D01*
X18789000Y18582272D01*
X18789002Y18582269D01*
X18858590Y18489311D01*
X18883007Y18423846D01*
X18868155Y18355573D01*
X18858590Y18340689D01*
X18789002Y18247732D01*
X18789000Y18247729D01*
X18738708Y18112887D01*
X18738707Y18112883D01*
X18732298Y18053273D01*
X18732298Y18053266D01*
X18732298Y18053265D01*
X18732298Y17506730D01*
X18732299Y17506724D01*
X18738706Y17447117D01*
X18789000Y17312272D01*
X18789002Y17312269D01*
X18858590Y17219311D01*
X18883007Y17153846D01*
X18868155Y17085573D01*
X18858590Y17070689D01*
X18789002Y16977732D01*
X18789000Y16977729D01*
X18738708Y16842887D01*
X18738707Y16842883D01*
X18732298Y16783273D01*
X18732298Y16783266D01*
X18732298Y16783265D01*
X18732298Y16236730D01*
X18732299Y16236724D01*
X18738706Y16177117D01*
X18789000Y16042272D01*
X18789004Y16042265D01*
X18875250Y15927056D01*
X18875253Y15927053D01*
X18990462Y15840807D01*
X18990469Y15840803D01*
X19035416Y15824039D01*
X19125315Y15790509D01*
X19184925Y15784100D01*
X19880995Y15784101D01*
X19905188Y15781718D01*
X20016879Y15759500D01*
X20016880Y15759500D01*
X21086568Y15759500D01*
X21153607Y15739815D01*
X21174249Y15723181D01*
X22073181Y14824249D01*
X22106666Y14762926D01*
X22109500Y14736568D01*
X22109500Y13896082D01*
X22109500Y13896080D01*
X22109499Y13896080D01*
X22138340Y13751093D01*
X22138343Y13751083D01*
X22194913Y13614510D01*
X22194915Y13614507D01*
X22194916Y13614505D01*
X22203185Y13602130D01*
X22203186Y13602127D01*
X22203187Y13602127D01*
X22256078Y13522968D01*
X22277051Y13491580D01*
X22277052Y13491579D01*
X23502230Y12266402D01*
X23535715Y12205079D01*
X23530731Y12135387D01*
X23529110Y12131269D01*
X23473127Y11996115D01*
X23473127Y11996113D01*
X23414317Y11751152D01*
X23394551Y11500000D01*
X23414317Y11248849D01*
X23473126Y11003890D01*
X23569533Y10771141D01*
X23701160Y10556347D01*
X23701161Y10556344D01*
X23701164Y10556341D01*
X23864776Y10364776D01*
X24013066Y10238125D01*
X24056343Y10201162D01*
X24056346Y10201161D01*
X24271140Y10069534D01*
X24486033Y9980523D01*
X24503889Y9973127D01*
X24748852Y9914317D01*
X25000000Y9894551D01*
X25251148Y9914317D01*
X25496111Y9973127D01*
X25728859Y10069534D01*
X25943659Y10201164D01*
X26135224Y10364776D01*
X26298836Y10556341D01*
X26430466Y10771141D01*
X26526873Y11003889D01*
X26585683Y11248852D01*
X26605449Y11500000D01*
X26585683Y11751148D01*
X26526873Y11996111D01*
X26470889Y12131269D01*
X26430466Y12228860D01*
X26298839Y12443654D01*
X26298838Y12443657D01*
X26261875Y12486934D01*
X26135224Y12635224D01*
X25951058Y12792517D01*
X25943656Y12798839D01*
X25943653Y12798840D01*
X25728859Y12930467D01*
X25496110Y13026874D01*
X25251151Y13085683D01*
X25062787Y13100508D01*
X25000000Y13105449D01*
X24999999Y13105449D01*
X24858526Y13094315D01*
X24790148Y13108679D01*
X24761116Y13130252D01*
X24691502Y13199866D01*
X24658017Y13261189D01*
X24663001Y13330881D01*
X24704873Y13386814D01*
X24770337Y13411231D01*
X24788901Y13411166D01*
X25000000Y13394551D01*
X25251148Y13414317D01*
X25496111Y13473127D01*
X25728859Y13569534D01*
X25943659Y13701164D01*
X26135224Y13864776D01*
X26298836Y14056341D01*
X26430466Y14271141D01*
X26526873Y14503889D01*
X26585683Y14748852D01*
X26605449Y15000000D01*
X26585683Y15251148D01*
X26526873Y15496111D01*
X26472962Y15626265D01*
X26430466Y15728860D01*
X26298839Y15943654D01*
X26298838Y15943657D01*
X26261875Y15986934D01*
X26135224Y16135224D01*
X25987649Y16261265D01*
X25943656Y16298839D01*
X25943653Y16298840D01*
X25728859Y16430467D01*
X25496110Y16526874D01*
X25251151Y16585683D01*
X25062787Y16600508D01*
X25000000Y16605449D01*
X24999999Y16605449D01*
X24748859Y16585684D01*
X24748850Y16585683D01*
X24596092Y16549010D01*
X24526310Y16552501D01*
X24479465Y16581903D01*
X24235137Y16826231D01*
X24201652Y16887554D01*
X24206636Y16957246D01*
X24248508Y17013179D01*
X24313972Y17037596D01*
X24370271Y17028473D01*
X24492774Y16977731D01*
X24503889Y16973127D01*
X24748852Y16914317D01*
X25000000Y16894551D01*
X25251148Y16914317D01*
X25496111Y16973127D01*
X25728859Y17069534D01*
X25943659Y17201164D01*
X26135224Y17364776D01*
X26298836Y17556341D01*
X26430466Y17771141D01*
X26526873Y18003889D01*
X26585683Y18248852D01*
X26605449Y18500000D01*
X26585683Y18751148D01*
X26526873Y18996111D01*
X26430466Y19228859D01*
X26430466Y19228860D01*
X26298839Y19443654D01*
X26298838Y19443657D01*
X26235574Y19517729D01*
X26135224Y19635224D01*
X25989937Y19759311D01*
X25943656Y19798839D01*
X25943653Y19798840D01*
X25728859Y19930467D01*
X25496110Y20026874D01*
X25251151Y20085683D01*
X25000000Y20105449D01*
X24748848Y20085683D01*
X24503887Y20026873D01*
X24503885Y20026873D01*
X24370269Y19971527D01*
X24300800Y19964058D01*
X24238321Y19995333D01*
X24202669Y20055422D01*
X24205163Y20125248D01*
X24235136Y20173769D01*
X24350247Y20288880D01*
X24479467Y20418101D01*
X24540788Y20451584D01*
X24596088Y20450993D01*
X24748852Y20414317D01*
X25000000Y20394551D01*
X25251148Y20414317D01*
X25496111Y20473127D01*
X25728859Y20569534D01*
X25943659Y20701164D01*
X26135224Y20864776D01*
X26298836Y21056341D01*
X26430466Y21271141D01*
X26526873Y21503889D01*
X26585683Y21748852D01*
X26605449Y22000000D01*
X26585683Y22251148D01*
X26526873Y22496111D01*
X26489340Y22586724D01*
X26430466Y22728860D01*
X26298839Y22943654D01*
X26298838Y22943657D01*
X26256919Y22992738D01*
X26135224Y23135224D01*
X26008571Y23243396D01*
X25943656Y23298839D01*
X25943653Y23298840D01*
X25728859Y23430467D01*
X25496110Y23526874D01*
X25251151Y23585683D01*
X25062787Y23600508D01*
X25000000Y23605449D01*
X24999999Y23605449D01*
X24953928Y23601824D01*
X24823197Y23591535D01*
X24754821Y23605898D01*
X24705064Y23654950D01*
X24689725Y23723115D01*
X24713674Y23788752D01*
X24725780Y23802825D01*
X24790401Y23867446D01*
X24851722Y23900929D01*
X24887808Y23903381D01*
X25000000Y23894551D01*
X25251148Y23914317D01*
X25496111Y23973127D01*
X25728859Y24069534D01*
X25943659Y24201164D01*
X26135224Y24364776D01*
X26298836Y24556341D01*
X26430466Y24771141D01*
X26526873Y25003889D01*
X26585683Y25248852D01*
X26605449Y25500000D01*
X26585683Y25751148D01*
X26526873Y25996111D01*
X26496600Y26069196D01*
X26430466Y26228860D01*
X26298839Y26443654D01*
X26298838Y26443657D01*
X26161121Y26604902D01*
X26135224Y26635224D01*
X25996371Y26753816D01*
X25943656Y26798839D01*
X25943653Y26798840D01*
X25728859Y26930467D01*
X25496110Y27026874D01*
X25251151Y27085683D01*
X25000000Y27105449D01*
X24748848Y27085683D01*
X24503887Y27026873D01*
X24503885Y27026873D01*
X24370269Y26971527D01*
X24300800Y26964058D01*
X24238321Y26995333D01*
X24202669Y27055422D01*
X24205163Y27125248D01*
X24235135Y27173768D01*
X24479467Y27418101D01*
X24540788Y27451584D01*
X24596088Y27450993D01*
X24748852Y27414317D01*
X25000000Y27394551D01*
X25251148Y27414317D01*
X25496111Y27473127D01*
X25728859Y27569534D01*
X25943659Y27701164D01*
X26135224Y27864776D01*
X26298836Y28056341D01*
X26430466Y28271141D01*
X26526873Y28503889D01*
X26585683Y28748852D01*
X26605449Y29000000D01*
X26585683Y29251148D01*
X26526873Y29496111D01*
X26473879Y29624051D01*
X26430466Y29728860D01*
X26298839Y29943654D01*
X26298838Y29943657D01*
X26261875Y29986934D01*
X26135224Y30135224D01*
X26008571Y30243396D01*
X25943656Y30298839D01*
X25943653Y30298840D01*
X25728859Y30430467D01*
X25496110Y30526874D01*
X25251151Y30585683D01*
X25000000Y30605449D01*
X24748848Y30585683D01*
X24503887Y30526873D01*
X24503885Y30526873D01*
X24370268Y30471527D01*
X24300799Y30464058D01*
X24238320Y30495334D01*
X24202668Y30555423D01*
X24205162Y30625248D01*
X24235133Y30673767D01*
X24479467Y30918101D01*
X24540788Y30951584D01*
X24596088Y30950993D01*
X24748852Y30914317D01*
X25000000Y30894551D01*
X25251148Y30914317D01*
X25496111Y30973127D01*
X25728859Y31069534D01*
X25943659Y31201164D01*
X26135224Y31364776D01*
X26298836Y31556341D01*
X26430466Y31771141D01*
X26526873Y32003889D01*
X26585683Y32248852D01*
X26605449Y32500000D01*
X26585683Y32751148D01*
X26526873Y32996111D01*
X26494883Y33073342D01*
X26430466Y33228860D01*
X26298839Y33443654D01*
X26298838Y33443657D01*
X26171341Y33592936D01*
X26135224Y33635224D01*
X26008571Y33743396D01*
X25943656Y33798839D01*
X25943653Y33798840D01*
X25728859Y33930467D01*
X25496110Y34026874D01*
X25251151Y34085683D01*
X25000000Y34105449D01*
X24748848Y34085683D01*
X24503887Y34026873D01*
X24503885Y34026873D01*
X24370268Y33971527D01*
X24300799Y33964058D01*
X24238320Y33995334D01*
X24202668Y34055423D01*
X24205162Y34125248D01*
X24235133Y34173767D01*
X24479467Y34418101D01*
X24540788Y34451584D01*
X24596088Y34450993D01*
X24748852Y34414317D01*
X25000000Y34394551D01*
X25251148Y34414317D01*
X25496111Y34473127D01*
X25728859Y34569534D01*
X25943659Y34701164D01*
X26135224Y34864776D01*
X26298836Y35056341D01*
X26430466Y35271141D01*
X26526873Y35503889D01*
X26585683Y35748852D01*
X26605449Y36000000D01*
X26585683Y36251148D01*
X26526873Y36496111D01*
X26489486Y36586372D01*
X26430466Y36728860D01*
X26298839Y36943654D01*
X26298838Y36943657D01*
X26168121Y37096706D01*
X26135224Y37135224D01*
X26008571Y37243396D01*
X25943656Y37298839D01*
X25943653Y37298840D01*
X25728859Y37430467D01*
X25496110Y37526874D01*
X25251151Y37585683D01*
X25000000Y37605449D01*
X24748848Y37585683D01*
X24503889Y37526874D01*
X24271140Y37430467D01*
X24056346Y37298840D01*
X24056343Y37298839D01*
X23864776Y37135224D01*
X23701161Y36943657D01*
X23701160Y36943654D01*
X23569533Y36728860D01*
X23473126Y36496111D01*
X23414317Y36251152D01*
X23394551Y36000000D01*
X23414317Y35748853D01*
X23414318Y35748846D01*
X23450990Y35596094D01*
X23447499Y35526312D01*
X23418097Y35479467D01*
X19507845Y31569214D01*
X19507841Y31569209D01*
X19470163Y31512817D01*
X19470163Y31512816D01*
X19425711Y31446290D01*
X19369141Y31309716D01*
X19369138Y31309706D01*
X19340298Y31164719D01*
X19340298Y26249900D01*
X19320613Y26182861D01*
X19267809Y26137106D01*
X19216302Y26125900D01*
X19184929Y26125900D01*
X19184921Y26125899D01*
X19125314Y26119492D01*
X18990469Y26069198D01*
X18990462Y26069194D01*
X18875253Y25982948D01*
X18875250Y25982945D01*
X18789004Y25867736D01*
X18789000Y25867729D01*
X18745519Y25751148D01*
X18738707Y25732883D01*
X18732298Y25673273D01*
X12647702Y25673273D01*
X12647702Y26349318D01*
X12634874Y26413807D01*
X12634874Y26413810D01*
X12618862Y26494305D01*
X12618861Y26494312D01*
X12564610Y26625283D01*
X12562966Y26629878D01*
X12480156Y26753812D01*
X12480155Y26753813D01*
X12480153Y26753816D01*
X12375618Y26858351D01*
X11938254Y27295715D01*
X10591023Y28642948D01*
X10591022Y28642949D01*
X10503128Y28701677D01*
X10503127Y28701678D01*
X10468102Y28725081D01*
X10468090Y28725088D01*
X10331519Y28781657D01*
X10331509Y28781660D01*
X10186522Y28810500D01*
X10186520Y28810500D01*
X-3507010Y28810500D01*
X-3574049Y28830185D01*
X-3614397Y28872500D01*
X-3691755Y29006489D01*
X-3848328Y29202825D01*
X-3848329Y29202826D01*
X-3848332Y29202830D01*
X-4032414Y29373632D01*
X-4074932Y29402620D01*
X-4239901Y29515094D01*
X-4239905Y29515096D01*
X-4239908Y29515098D01*
X-4239909Y29515099D01*
X-4466153Y29624051D01*
X-4466151Y29624051D01*
X-4706113Y29698070D01*
X-4706117Y29698071D01*
X-4706121Y29698072D01*
X-4825568Y29716076D01*
X-4954434Y29735500D01*
X-4954439Y29735500D01*
X-5205561Y29735500D01*
X-5205567Y29735500D01*
X-5360208Y29712191D01*
X-5453879Y29698072D01*
X-5453882Y29698071D01*
X-5453888Y29698070D01*
X-5693849Y29624051D01*
X-5920092Y29515099D01*
X-5920093Y29515098D01*
X-6127587Y29373632D01*
X-6311669Y29202830D01*
X-6468245Y29006489D01*
X-6593806Y28789012D01*
X-6685550Y28555253D01*
X-6685555Y28555236D01*
X-6741433Y28310420D01*
X-6760198Y28060005D01*
X-6760198Y28059996D01*
X-6741433Y27809581D01*
X-6685555Y27564765D01*
X-6685552Y27564753D01*
X-6685550Y27564748D01*
X-6593806Y27330989D01*
X-6593807Y27330989D01*
X-6560431Y27273181D01*
X-6468245Y27113511D01*
X-6421920Y27055422D01*
X-6311669Y26917171D01*
X-6184133Y26798836D01*
X-6127586Y26746368D01*
X-5920099Y26604906D01*
X-5920094Y26604904D01*
X-5920093Y26604903D01*
X-5920092Y26604902D01*
X-5799930Y26547036D01*
X-5693849Y26495950D01*
X-5693848Y26495950D01*
X-5693845Y26495948D01*
X-5453879Y26421928D01*
X-5205561Y26384500D01*
X-5205560Y26384500D01*
X-4954440Y26384500D01*
X-4954439Y26384500D01*
X-4706121Y26421928D01*
X-4466155Y26495948D01*
X-4239901Y26604906D01*
X-4032414Y26746368D01*
X-3848328Y26917175D01*
X-3691755Y27113511D01*
X-3614397Y27247501D01*
X-3563830Y27295715D01*
X-3507010Y27309500D01*
X9750372Y27309500D01*
X9817411Y27289815D01*
X9838053Y27273181D01*
X10773653Y26337581D01*
X10807138Y26276258D01*
X10802154Y26206566D01*
X10760282Y26150633D01*
X10694818Y26126216D01*
X10685972Y26125900D01*
X9483331Y26125900D01*
X9483325Y26125899D01*
X9423718Y26119492D01*
X9288873Y26069198D01*
X9288871Y26069196D01*
X9230144Y26025233D01*
X9164680Y26000816D01*
X9155833Y26000500D01*
X5166670Y26000500D01*
X5166654Y26000501D01*
X5159058Y26000501D01*
X5000943Y26000501D01*
X4935425Y25982945D01*
X4848214Y25959577D01*
X4848209Y25959574D01*
X4711290Y25880525D01*
X4711282Y25880519D01*
X-1115519Y20053718D01*
X-1115521Y20053715D01*
X-1119557Y20046724D01*
X-1155085Y19985187D01*
X-1194577Y19916785D01*
X-1235501Y19764057D01*
X-1235501Y19764055D01*
X-1235501Y19595954D01*
X-1235500Y19595941D01*
X-1235500Y13785114D01*
X-1255185Y13718075D01*
X-1307989Y13672320D01*
X-1377147Y13662376D01*
X-1385578Y13664358D01*
X-1385669Y13663932D01*
X-1392286Y13665349D01*
X-1491654Y13675500D01*
X-2038338Y13675500D01*
X-2038356Y13675499D01*
X-2137708Y13665350D01*
X-2137711Y13665349D01*
X-2298695Y13612004D01*
X-2298706Y13611999D01*
X-2443041Y13522971D01*
X-2443045Y13522968D01*
X-2562968Y13403045D01*
X-2562971Y13403041D01*
X-2651999Y13258706D01*
X-2652004Y13258695D01*
X-2705349Y13097710D01*
X-2715500Y12998353D01*
X-2715500Y12401663D01*
X-2715499Y12401645D01*
X-2705350Y12302293D01*
X-2705349Y12302290D01*
X-2652004Y12141306D01*
X-2651999Y12141295D01*
X-2562971Y11996960D01*
X-2562968Y11996956D01*
X-2443044Y11877032D01*
X-2389766Y11844169D01*
X-2343042Y11792224D01*
X-2331819Y11723261D01*
X-2349869Y11672661D01*
X-2389288Y11609926D01*
X-2448869Y11439655D01*
X-2448870Y11439650D01*
X-2469065Y11260404D01*
X-2469065Y11260397D01*
X-2460611Y11185361D01*
X-2472666Y11116539D01*
X-2496150Y11083797D01*
X-2573077Y11006871D01*
X-2573083Y11006863D01*
X-2656745Y10865397D01*
X-2656746Y10865394D01*
X-2702598Y10707574D01*
X-2702599Y10707568D01*
X-2705500Y10670702D01*
X-2705500Y8789299D01*
X-2702599Y8752433D01*
X-2702598Y8752427D01*
X-2656746Y8594607D01*
X-2656745Y8594604D01*
X-2573083Y8453138D01*
X-2573077Y8453130D01*
X-2552128Y8432181D01*
X-2518643Y8370858D01*
X-2523627Y8301166D01*
X-2565499Y8245233D01*
X-2630963Y8220816D01*
X-2639809Y8220500D01*
X-3710191Y8220500D01*
X-3777230Y8240185D01*
X-3822985Y8292989D01*
X-3832929Y8362147D01*
X-3803904Y8425703D01*
X-3797872Y8432181D01*
X-3776924Y8453130D01*
X-3776919Y8453135D01*
X-3693256Y8594602D01*
X-3659495Y8710809D01*
X-3647403Y8752427D01*
X-3647402Y8752433D01*
X-3644501Y8789299D01*
X-3644500Y8789306D01*
X-3644500Y10670694D01*
X-3647402Y10707569D01*
X-3649033Y10713182D01*
X-3693246Y10865364D01*
X-3693256Y10865398D01*
X-3776919Y11006865D01*
X-3776921Y11006867D01*
X-3776924Y11006871D01*
X-3893130Y11123077D01*
X-3893138Y11123083D01*
X-4018941Y11197482D01*
X-4034602Y11206744D01*
X-4034603Y11206745D01*
X-4034604Y11206745D01*
X-4034607Y11206746D01*
X-4192427Y11252598D01*
X-4192433Y11252599D01*
X-4229299Y11255500D01*
X-4229306Y11255500D01*
X-4660694Y11255500D01*
X-4660702Y11255500D01*
X-4697568Y11252599D01*
X-4697574Y11252598D01*
X-4855394Y11206746D01*
X-4855401Y11206743D01*
X-4927380Y11164175D01*
X-4995104Y11146992D01*
X-5061366Y11169152D01*
X-5105129Y11223619D01*
X-5114500Y11270907D01*
X-5114500Y23698741D01*
X-5114499Y23698754D01*
X-5114499Y23866855D01*
X-5114499Y23866857D01*
X-5155423Y24019585D01*
X-5209671Y24113545D01*
X-5234480Y24156516D01*
X-5346284Y24268320D01*
X-5350615Y24272651D01*
X-5350626Y24272661D01*
X-5389300Y24311335D01*
X-5422785Y24372658D01*
X-5424837Y24385114D01*
X-5434632Y24472055D01*
X-5494211Y24642322D01*
X-5590184Y24795062D01*
X-5717738Y24922616D01*
X-5750472Y24943184D01*
X-5870477Y25018589D01*
X-6040746Y25078169D01*
X-6040751Y25078170D01*
X-6219996Y25098365D01*
X-6219997Y25098365D01*
X-6219999Y25098365D01*
X-6220000Y25098365D01*
X-6239310Y25096190D01*
X-6246619Y25095366D01*
X-6315441Y25107423D01*
X-6366819Y25154773D01*
X-6384500Y25218587D01*
X-6384500Y25234657D01*
X-6388304Y25248851D01*
X-6388305Y25248857D01*
X-6403156Y25304283D01*
X-6425423Y25387384D01*
X-6490441Y25500000D01*
X-6504476Y25524310D01*
X-6504479Y25524314D01*
X-6504480Y25524316D01*
X-6616284Y25636120D01*
X-6616285Y25636121D01*
X-6620615Y25640451D01*
X-6620626Y25640461D01*
X-16664166Y35684001D01*
X-6655500Y35684001D01*
X-6655500Y35436000D01*
X-6616707Y35191073D01*
X-6616706Y35191069D01*
X-6540073Y34955218D01*
X-6427489Y34734258D01*
X-6281724Y34533630D01*
X-6106370Y34358276D01*
X-5905742Y34212511D01*
X-5684782Y34099927D01*
X-5448931Y34023294D01*
X-5357080Y34008747D01*
X-5204000Y33984500D01*
X-5203995Y33984500D01*
X-4956000Y33984500D01*
X-4816976Y34006520D01*
X-4711069Y34023294D01*
X-4475218Y34099927D01*
X-4254258Y34212511D01*
X-4053630Y34358276D01*
X-3878276Y34533630D01*
X-3732511Y34734258D01*
X-3619927Y34955218D01*
X-3543294Y35191069D01*
X-3514827Y35370800D01*
X-3504500Y35436000D01*
X-3504500Y35684001D01*
X-3543294Y35928928D01*
X-3543294Y35928931D01*
X-3619927Y36164782D01*
X-3732511Y36385742D01*
X-3878276Y36586370D01*
X-4053630Y36761724D01*
X-4254258Y36907489D01*
X-4475218Y37020073D01*
X-4711069Y37096706D01*
X-4711071Y37096707D01*
X-4711073Y37096707D01*
X-4956000Y37135500D01*
X-4956005Y37135500D01*
X-5203995Y37135500D01*
X-5204000Y37135500D01*
X-5448928Y37096707D01*
X-5684785Y37020072D01*
X-5905743Y36907489D01*
X-6012396Y36830000D01*
X-6106370Y36761724D01*
X-6106372Y36761722D01*
X-6106373Y36761722D01*
X-6281722Y36586373D01*
X-6281722Y36586372D01*
X-6281724Y36586370D01*
X-6344325Y36500208D01*
X-6427489Y36385743D01*
X-6540072Y36164785D01*
X-6616707Y35928928D01*
X-6655500Y35684001D01*
X-16664166Y35684001D01*
X-18806810Y37826645D01*
X-18806812Y37826648D01*
X-18925683Y37945519D01*
X-18925684Y37945520D01*
X-19019370Y37999609D01*
X-19019371Y37999610D01*
X-19062617Y38024578D01*
X-19126481Y38041690D01*
X-19215343Y38065501D01*
X-19215345Y38065501D01*
X-19223194Y38067604D01*
X-19222844Y38068914D01*
X-19272156Y38089001D01*
X-19353769Y38150096D01*
X-19353772Y38150098D01*
X-19488618Y38200392D01*
X-19488617Y38200392D01*
X-19548217Y38206799D01*
X-19548219Y38206800D01*
X-19548227Y38206800D01*
X-19548235Y38206800D01*
X-21027500Y38206800D01*
X-21094539Y38226485D01*
X-21140294Y38279289D01*
X-21151500Y38330800D01*
X-21151500Y39139201D01*
X-21131815Y39206240D01*
X-21079011Y39251995D01*
X-21027500Y39263201D01*
X-19548229Y39263201D01*
X-19548228Y39263201D01*
X-19488617Y39269609D01*
X-19353769Y39319904D01*
X-19273802Y39379767D01*
X-19208337Y39404184D01*
X-19199491Y39404500D01*
X-17956874Y39404500D01*
X-17889835Y39384815D01*
X-17869193Y39368181D01*
X-17848045Y39347033D01*
X-17848041Y39347030D01*
X-17703706Y39258002D01*
X-17703703Y39258001D01*
X-17703697Y39257997D01*
X-17542708Y39204651D01*
X-17443345Y39194500D01*
X-16846656Y39194501D01*
X-16846648Y39194502D01*
X-16846645Y39194502D01*
X-16792240Y39200060D01*
X-16747292Y39204651D01*
X-16586303Y39257997D01*
X-16441956Y39347032D01*
X-16322032Y39466956D01*
X-16232997Y39611303D01*
X-16179651Y39772292D01*
X-16169500Y39871655D01*
X-16169501Y40418344D01*
X-16176364Y40485525D01*
X-16179651Y40517708D01*
X-16179652Y40517711D01*
X-16216938Y40630233D01*
X-16232997Y40678697D01*
X-16233001Y40678703D01*
X-16233002Y40678706D01*
X-16322030Y40823041D01*
X-16322033Y40823045D01*
X-16441956Y40942968D01*
X-16441960Y40942971D01*
X-16586295Y41031999D01*
X-16586301Y41032002D01*
X-16586303Y41032003D01*
X-16586306Y41032004D01*
X-16747291Y41085349D01*
X-16846654Y41095500D01*
X-17443338Y41095500D01*
X-17443356Y41095499D01*
X-17542708Y41085350D01*
X-17542711Y41085349D01*
X-17703695Y41032004D01*
X-17703706Y41031999D01*
X-17848041Y40942971D01*
X-17848045Y40942968D01*
X-17967968Y40823045D01*
X-17967971Y40823041D01*
X-18057002Y40678701D01*
X-18057750Y40677095D01*
X-18058557Y40676179D01*
X-18060795Y40672550D01*
X-18061416Y40672933D01*
X-18103922Y40624656D01*
X-18170132Y40605500D01*
X-19199491Y40605500D01*
X-19266530Y40625185D01*
X-19273802Y40630233D01*
X-19353769Y40690096D01*
X-19353772Y40690098D01*
X-19488618Y40740392D01*
X-19488617Y40740392D01*
X-19548217Y40746799D01*
X-19548219Y40746800D01*
X-19548227Y40746800D01*
X-19548236Y40746800D01*
X-21498171Y40746800D01*
X-21498177Y40746799D01*
X-21557784Y40740392D01*
X-21692629Y40690098D01*
X-21692635Y40690094D01*
X-21774248Y40628999D01*
X-21823559Y40608916D01*
X-21823207Y40607603D01*
X-21831056Y40605500D01*
X-21831057Y40605500D01*
X-21983784Y40564577D01*
X-21983791Y40564574D01*
X-22120710Y40485525D01*
X-22120718Y40485519D01*
X-22232519Y40373718D01*
X-22232525Y40373710D01*
X-22311574Y40236791D01*
X-22311577Y40236784D01*
X-22352500Y40084057D01*
X-22352500Y32629826D01*
X-22369113Y32567826D01*
X-22382876Y32543989D01*
X-22382877Y32543985D01*
X-22423801Y32391257D01*
X-22423801Y32391255D01*
X-22423801Y32223154D01*
X-22423800Y32223141D01*
X-22423800Y24077413D01*
X-22443485Y24010374D01*
X-22450850Y24000104D01*
X-22453114Y23997266D01*
X-22549089Y23844524D01*
X-22608669Y23674255D01*
X-22608670Y23674251D01*
X-22612780Y23637765D01*
X-22639846Y23573351D01*
X-22697441Y23533796D01*
X-22767278Y23531659D01*
X-22827185Y23567617D01*
X-22858140Y23630255D01*
X-22860000Y23651649D01*
X-22860000Y43060005D01*
X-6760198Y43060005D01*
X-6760198Y43059996D01*
X-6741433Y42809581D01*
X-6727571Y42748849D01*
X-6685552Y42564753D01*
X-6685550Y42564748D01*
X-6593806Y42330989D01*
X-6593807Y42330989D01*
X-6545604Y42247500D01*
X-6468245Y42113511D01*
X-6341783Y41954933D01*
X-6311669Y41917171D01*
X-6137893Y41755931D01*
X-6127586Y41746368D01*
X-5920099Y41604906D01*
X-5920094Y41604904D01*
X-5920093Y41604903D01*
X-5920092Y41604902D01*
X-5799930Y41547036D01*
X-5693849Y41495950D01*
X-5693848Y41495950D01*
X-5693845Y41495948D01*
X-5453879Y41421928D01*
X-5205561Y41384500D01*
X-5205560Y41384500D01*
X-4954440Y41384500D01*
X-4954439Y41384500D01*
X-4706121Y41421928D01*
X-4466155Y41495948D01*
X-4239901Y41604906D01*
X-4032414Y41746368D01*
X-3848328Y41917175D01*
X-3691755Y42113511D01*
X-3614397Y42247501D01*
X-3563830Y42295715D01*
X-3507010Y42309500D01*
X23375500Y42309500D01*
X23442539Y42289815D01*
X23488294Y42237011D01*
X23499500Y42185500D01*
X23499500Y40084447D01*
X23490061Y40036994D01*
X23473126Y39996111D01*
X23414317Y39751152D01*
X23394551Y39500000D01*
X23414317Y39248849D01*
X23473126Y39003890D01*
X23569533Y38771141D01*
X23701160Y38556347D01*
X23701161Y38556344D01*
X23701164Y38556341D01*
X23864776Y38364776D01*
X24013066Y38238125D01*
X24056343Y38201162D01*
X24056345Y38201162D01*
X24076661Y38188712D01*
X24271140Y38069534D01*
X24439958Y37999608D01*
X24503889Y37973127D01*
X24748852Y37914317D01*
X25000000Y37894551D01*
X25251148Y37914317D01*
X25496111Y37973127D01*
X25728859Y38069534D01*
X25943659Y38201164D01*
X26135224Y38364776D01*
X26298836Y38556341D01*
X26430466Y38771141D01*
X26526873Y39003889D01*
X26585683Y39248852D01*
X26605449Y39500000D01*
X26585683Y39751148D01*
X26526873Y39996111D01*
X26509939Y40036994D01*
X26500500Y40084447D01*
X26500500Y42415555D01*
X26509938Y42463006D01*
X26526873Y42503889D01*
X26585683Y42748852D01*
X26605449Y43000000D01*
X26585683Y43251148D01*
X26526873Y43496111D01*
X26441939Y43701161D01*
X26430466Y43728860D01*
X26298839Y43943654D01*
X26298838Y43943657D01*
X26245174Y44006489D01*
X26135224Y44135224D01*
X25976086Y44271141D01*
X25943656Y44298839D01*
X25943653Y44298840D01*
X25728859Y44430467D01*
X25496110Y44526874D01*
X25251151Y44585683D01*
X25000000Y44605449D01*
X24748848Y44585683D01*
X24503889Y44526874D01*
X24271140Y44430467D01*
X24056346Y44298840D01*
X24056343Y44298839D01*
X23864776Y44135224D01*
X23701162Y43943657D01*
X23671927Y43895950D01*
X23663986Y43882989D01*
X23655849Y43869711D01*
X23604037Y43822835D01*
X23550121Y43810500D01*
X20357844Y43810500D01*
X20290805Y43830185D01*
X20245050Y43882989D01*
X20235106Y43952147D01*
X20263553Y44015031D01*
X20298836Y44056341D01*
X20430466Y44271141D01*
X20526873Y44503889D01*
X20585683Y44748852D01*
X20605449Y45000000D01*
X20585683Y45251148D01*
X20526873Y45496111D01*
X20484048Y45599500D01*
X20430466Y45728860D01*
X20298839Y45943654D01*
X20298838Y45943657D01*
X20261875Y45986934D01*
X20135224Y46135224D01*
X20008571Y46243396D01*
X19943656Y46298839D01*
X19943653Y46298840D01*
X19728859Y46430467D01*
X19496110Y46526874D01*
X19251151Y46585683D01*
X19000000Y46605449D01*
X18748848Y46585683D01*
X18503889Y46526874D01*
X18271140Y46430467D01*
X18056346Y46298840D01*
X18056343Y46298839D01*
X17864776Y46135224D01*
X17701161Y45943657D01*
X17701160Y45943654D01*
X17569533Y45728860D01*
X17473126Y45496111D01*
X17414317Y45251152D01*
X17394551Y45000000D01*
X17414317Y44748849D01*
X17473126Y44503890D01*
X17569533Y44271141D01*
X17701160Y44056347D01*
X17701161Y44056345D01*
X17701162Y44056344D01*
X17701164Y44056341D01*
X17736446Y44015031D01*
X17765017Y43951271D01*
X17754580Y43882185D01*
X17708450Y43829709D01*
X17642156Y43810500D01*
X6357844Y43810500D01*
X6290805Y43830185D01*
X6245050Y43882989D01*
X6235106Y43952147D01*
X6263553Y44015031D01*
X6298836Y44056341D01*
X6430466Y44271141D01*
X6526873Y44503889D01*
X6585683Y44748852D01*
X6605449Y45000000D01*
X6585683Y45251148D01*
X6526873Y45496111D01*
X6484048Y45599500D01*
X6430466Y45728860D01*
X6298839Y45943654D01*
X6298838Y45943657D01*
X6261875Y45986934D01*
X6147126Y46121289D01*
X10149500Y46121289D01*
X10149500Y45878712D01*
X10181161Y45638215D01*
X10243947Y45403896D01*
X10294545Y45281742D01*
X10336776Y45179788D01*
X10458064Y44969711D01*
X10458066Y44969708D01*
X10458067Y44969707D01*
X10605733Y44777264D01*
X10605739Y44777257D01*
X10777256Y44605740D01*
X10777263Y44605734D01*
X10880036Y44526874D01*
X10969711Y44458064D01*
X11179788Y44336776D01*
X11403900Y44243946D01*
X11638211Y44181162D01*
X11818586Y44157416D01*
X11878711Y44149500D01*
X11878712Y44149500D01*
X12121289Y44149500D01*
X12169388Y44155833D01*
X12361789Y44181162D01*
X12596100Y44243946D01*
X12820212Y44336776D01*
X13030289Y44458064D01*
X13222738Y44605735D01*
X13394265Y44777262D01*
X13541936Y44969711D01*
X13663224Y45179788D01*
X13756054Y45403900D01*
X13818838Y45638211D01*
X13850500Y45878712D01*
X13850500Y46121288D01*
X13818838Y46361789D01*
X13756054Y46596100D01*
X13663224Y46820212D01*
X13541936Y47030289D01*
X13394265Y47222738D01*
X13394260Y47222744D01*
X13222743Y47394261D01*
X13222736Y47394267D01*
X13030293Y47541933D01*
X13030292Y47541934D01*
X13030289Y47541936D01*
X12858661Y47641026D01*
X12820214Y47663223D01*
X12820205Y47663227D01*
X12596104Y47756053D01*
X12361785Y47818839D01*
X12121289Y47850500D01*
X12121288Y47850500D01*
X11878712Y47850500D01*
X11878711Y47850500D01*
X11638214Y47818839D01*
X11403895Y47756053D01*
X11179794Y47663227D01*
X11179785Y47663223D01*
X10969706Y47541933D01*
X10777263Y47394267D01*
X10777256Y47394261D01*
X10605739Y47222744D01*
X10605733Y47222737D01*
X10458067Y47030294D01*
X10336777Y46820215D01*
X10336773Y46820206D01*
X10243947Y46596105D01*
X10181161Y46361786D01*
X10149500Y46121289D01*
X6147126Y46121289D01*
X6135224Y46135224D01*
X6008571Y46243396D01*
X5943656Y46298839D01*
X5943653Y46298840D01*
X5728859Y46430467D01*
X5496110Y46526874D01*
X5251151Y46585683D01*
X5000000Y46605449D01*
X4748848Y46585683D01*
X4503889Y46526874D01*
X4271140Y46430467D01*
X4056346Y46298840D01*
X4056343Y46298839D01*
X3864776Y46135224D01*
X3701161Y45943657D01*
X3701160Y45943654D01*
X3569533Y45728860D01*
X3473126Y45496111D01*
X3414317Y45251152D01*
X3394551Y45000000D01*
X3414317Y44748849D01*
X3473126Y44503890D01*
X3569533Y44271141D01*
X3701160Y44056347D01*
X3701161Y44056345D01*
X3701162Y44056344D01*
X3701164Y44056341D01*
X3736446Y44015031D01*
X3765017Y43951271D01*
X3754580Y43882185D01*
X3708450Y43829709D01*
X3642156Y43810500D01*
X-3507010Y43810500D01*
X-3574049Y43830185D01*
X-3614397Y43872500D01*
X-3691755Y44006489D01*
X-3848328Y44202825D01*
X-3848329Y44202826D01*
X-3848332Y44202830D01*
X-4032414Y44373632D01*
X-4071822Y44400500D01*
X-4239901Y44515094D01*
X-4239905Y44515096D01*
X-4239908Y44515098D01*
X-4239909Y44515099D01*
X-4466153Y44624051D01*
X-4466151Y44624051D01*
X-4706113Y44698070D01*
X-4706117Y44698071D01*
X-4706121Y44698072D01*
X-4825568Y44716076D01*
X-4954434Y44735500D01*
X-4954439Y44735500D01*
X-5205561Y44735500D01*
X-5205567Y44735500D01*
X-5360208Y44712191D01*
X-5453879Y44698072D01*
X-5453882Y44698071D01*
X-5453888Y44698070D01*
X-5693849Y44624051D01*
X-5920092Y44515099D01*
X-5920093Y44515098D01*
X-6127587Y44373632D01*
X-6311669Y44202830D01*
X-6468245Y44006489D01*
X-6593806Y43789012D01*
X-6685550Y43555253D01*
X-6685555Y43555236D01*
X-6741433Y43310420D01*
X-6760198Y43060005D01*
X-22860000Y43060005D01*
X-22860000Y45000000D01*
X-20605449Y45000000D01*
X-20585683Y44748849D01*
X-20526874Y44503890D01*
X-20430467Y44271141D01*
X-20298840Y44056347D01*
X-20298839Y44056344D01*
X-20298836Y44056341D01*
X-20135224Y43864776D01*
X-19986934Y43738125D01*
X-19943657Y43701162D01*
X-19943654Y43701161D01*
X-19728860Y43569534D01*
X-19551600Y43496111D01*
X-19496111Y43473127D01*
X-19251148Y43414317D01*
X-19000000Y43394551D01*
X-18748852Y43414317D01*
X-18503889Y43473127D01*
X-18271141Y43569534D01*
X-18056341Y43701164D01*
X-17864776Y43864776D01*
X-17701164Y44056341D01*
X-17569534Y44271141D01*
X-17473127Y44503889D01*
X-17414317Y44748852D01*
X-17394551Y45000000D01*
X-17414317Y45251148D01*
X-17473127Y45496111D01*
X-17515952Y45599500D01*
X-17569534Y45728860D01*
X-17701161Y45943654D01*
X-17701162Y45943657D01*
X-17738125Y45986934D01*
X-17864776Y46135224D01*
X-17991429Y46243396D01*
X-18056344Y46298839D01*
X-18056347Y46298840D01*
X-18271141Y46430467D01*
X-18503890Y46526874D01*
X-18748849Y46585683D01*
X-19000000Y46605449D01*
X-19251152Y46585683D01*
X-19496111Y46526874D01*
X-19728860Y46430467D01*
X-19943654Y46298840D01*
X-19943657Y46298839D01*
X-20135224Y46135224D01*
X-20298839Y45943657D01*
X-20298840Y45943654D01*
X-20430467Y45728860D01*
X-20526874Y45496111D01*
X-20585683Y45251152D01*
X-20605449Y45000000D01*
X-22860000Y45000000D01*
X-22860000Y47275500D01*
X-22840315Y47342539D01*
X-22787511Y47388294D01*
X-22736000Y47399500D01*
X6107317Y47399500D01*
X6107318Y47399500D01*
X6277851Y47424020D01*
X6319764Y47430045D01*
X6319765Y47430046D01*
X6319769Y47430046D01*
X6525710Y47490516D01*
X6525713Y47490518D01*
X6525715Y47490518D01*
X6720938Y47579673D01*
X6720944Y47579677D01*
X6720950Y47579679D01*
X6901513Y47695719D01*
X7063724Y47836276D01*
X7204281Y47998487D01*
X7320321Y48179050D01*
X7320323Y48179056D01*
X7320327Y48179062D01*
X7409482Y48374285D01*
X7409482Y48374287D01*
X7409484Y48374290D01*
X7469954Y48580231D01*
X7500500Y48792682D01*
X7500500Y48893039D01*
X7501280Y48906923D01*
X7501280Y48906924D01*
X7511459Y48997269D01*
X7517635Y49024330D01*
X7545353Y49103544D01*
X7557396Y49128550D01*
X7602046Y49199611D01*
X7619351Y49221310D01*
X7678690Y49280649D01*
X7700389Y49297954D01*
X7771450Y49342604D01*
X7796456Y49354647D01*
X7875670Y49382365D01*
X7902733Y49388541D01*
X7965419Y49395604D01*
X7993079Y49398720D01*
X8006962Y49399500D01*
X8065892Y49399500D01*
X15934108Y49399500D01*
X15993038Y49399500D01*
X16006922Y49398720D01*
G37*
%TD.AperFunction*%
%TD*%
%TA.AperFunction,Conductor*%
%TO.N,GND*%
G36*
X-40893078Y49398720D02*
G01*
X-40802734Y49388541D01*
X-40775669Y49382364D01*
X-40696460Y49354648D01*
X-40671447Y49342602D01*
X-40600394Y49297957D01*
X-40578687Y49280645D01*
X-40519356Y49221314D01*
X-40502043Y49199605D01*
X-40457400Y49128556D01*
X-40445352Y49103538D01*
X-40417638Y49024334D01*
X-40411460Y48997265D01*
X-40401280Y48906924D01*
X-40400500Y48893039D01*
X-40400500Y48792683D01*
X-40369956Y48580236D01*
X-40369953Y48580226D01*
X-40309483Y48374285D01*
X-40220328Y48179062D01*
X-40220321Y48179049D01*
X-40104280Y47998486D01*
X-39963725Y47836276D01*
X-39943600Y47818838D01*
X-39801513Y47695719D01*
X-39672469Y47612789D01*
X-39620952Y47579680D01*
X-39620939Y47579673D01*
X-39425716Y47490518D01*
X-39425712Y47490517D01*
X-39425710Y47490516D01*
X-39219769Y47430046D01*
X-39219768Y47430046D01*
X-39219765Y47430045D01*
X-39156416Y47420938D01*
X-39007318Y47399500D01*
X-39007317Y47399500D01*
X-28064000Y47399500D01*
X-27996961Y47379815D01*
X-27951206Y47327011D01*
X-27940000Y47275500D01*
X-27940000Y34579133D01*
X-27959685Y34512094D01*
X-28012489Y34466339D01*
X-28081647Y34456395D01*
X-28129972Y34474139D01*
X-28248779Y34548790D01*
X-28364454Y34589266D01*
X-28421231Y34629988D01*
X-28446978Y34694941D01*
X-28447500Y34706308D01*
X-28447500Y40084055D01*
X-28447500Y40084057D01*
X-28488423Y40236784D01*
X-28524250Y40298839D01*
X-28567476Y40373710D01*
X-28567482Y40373718D01*
X-28679283Y40485519D01*
X-28679291Y40485525D01*
X-28816210Y40564574D01*
X-28816214Y40564576D01*
X-28816216Y40564577D01*
X-28968943Y40605500D01*
X-28968944Y40605500D01*
X-28976793Y40607603D01*
X-28976442Y40608915D01*
X-29025754Y40628999D01*
X-29083931Y40672550D01*
X-29107369Y40690096D01*
X-29107371Y40690097D01*
X-29107372Y40690098D01*
X-29242218Y40740392D01*
X-29242217Y40740392D01*
X-29301817Y40746799D01*
X-29301819Y40746800D01*
X-29301827Y40746800D01*
X-29301836Y40746800D01*
X-31251771Y40746800D01*
X-31251777Y40746799D01*
X-31311384Y40740392D01*
X-31446229Y40690098D01*
X-31446232Y40690096D01*
X-31526198Y40630233D01*
X-31591663Y40605816D01*
X-31600509Y40605500D01*
X-32629868Y40605500D01*
X-32696907Y40625185D01*
X-32738604Y40672921D01*
X-32739205Y40672550D01*
X-32741428Y40676154D01*
X-32742250Y40677095D01*
X-32742999Y40678701D01*
X-32832030Y40823041D01*
X-32832033Y40823045D01*
X-32951956Y40942968D01*
X-32951960Y40942971D01*
X-33096295Y41031999D01*
X-33096301Y41032002D01*
X-33096303Y41032003D01*
X-33096306Y41032004D01*
X-33257291Y41085349D01*
X-33356654Y41095500D01*
X-33953338Y41095500D01*
X-33953356Y41095499D01*
X-34052708Y41085350D01*
X-34052711Y41085349D01*
X-34213695Y41032004D01*
X-34213706Y41031999D01*
X-34358041Y40942971D01*
X-34358045Y40942968D01*
X-34477968Y40823045D01*
X-34477971Y40823041D01*
X-34566999Y40678706D01*
X-34567004Y40678695D01*
X-34620349Y40517710D01*
X-34630500Y40418353D01*
X-34630500Y40070098D01*
X-34650185Y40003059D01*
X-34666819Y39982417D01*
X-40512416Y34136819D01*
X-40573739Y34103334D01*
X-40600097Y34100500D01*
X-41029800Y34100500D01*
X-41096839Y34120185D01*
X-41142594Y34172989D01*
X-41153800Y34224500D01*
X-41153801Y34865362D01*
X-41153802Y34865368D01*
X-41160209Y34924975D01*
X-41210503Y35059820D01*
X-41210507Y35059827D01*
X-41296753Y35175036D01*
X-41296756Y35175039D01*
X-41411965Y35261285D01*
X-41411972Y35261289D01*
X-41546818Y35311583D01*
X-41546817Y35311583D01*
X-41606417Y35317990D01*
X-41606419Y35317991D01*
X-41606427Y35317991D01*
X-41606436Y35317991D01*
X-43505571Y35317991D01*
X-43505577Y35317990D01*
X-43565184Y35311583D01*
X-43700029Y35261289D01*
X-43700032Y35261287D01*
X-43765826Y35212033D01*
X-43831290Y35187616D01*
X-43840137Y35187300D01*
X-44324657Y35187300D01*
X-44477386Y35146377D01*
X-44490132Y35139017D01*
X-44490135Y35139016D01*
X-44614310Y35067325D01*
X-44614318Y35067319D01*
X-44726122Y34955514D01*
X-45326935Y34354702D01*
X-45388258Y34321217D01*
X-45400732Y34319163D01*
X-45487650Y34309370D01*
X-45657922Y34249790D01*
X-45810663Y34153816D01*
X-45938216Y34026263D01*
X-46034190Y33873522D01*
X-46093770Y33703250D01*
X-46103563Y33616332D01*
X-46130630Y33551918D01*
X-46139102Y33542535D01*
X-46362614Y33319022D01*
X-46474419Y33207218D01*
X-46474421Y33207216D01*
X-46495621Y33170494D01*
X-46513091Y33140235D01*
X-46553477Y33070285D01*
X-46594401Y32917557D01*
X-46594401Y32917555D01*
X-46594401Y32749454D01*
X-46594400Y32749441D01*
X-46594400Y19905570D01*
X-46594401Y19905552D01*
X-46594401Y19739846D01*
X-46594402Y19739846D01*
X-46553477Y19587115D01*
X-46524542Y19537000D01*
X-46524541Y19536996D01*
X-46524540Y19536996D01*
X-46474421Y19450186D01*
X-46474419Y19450183D01*
X-46355551Y19331315D01*
X-46355545Y19331310D01*
X-42401819Y15377584D01*
X-42368334Y15316261D01*
X-42365500Y15289903D01*
X-42365500Y14941663D01*
X-42365499Y14941645D01*
X-42355350Y14842293D01*
X-42355349Y14842290D01*
X-42302004Y14681306D01*
X-42301999Y14681295D01*
X-42212971Y14536960D01*
X-42212968Y14536956D01*
X-42093044Y14417032D01*
X-42074404Y14405535D01*
X-42027679Y14353588D01*
X-42015500Y14299996D01*
X-42015500Y14275005D01*
X-42035185Y14207966D01*
X-42074400Y14169468D01*
X-42093046Y14157967D01*
X-42212971Y14038041D01*
X-42301999Y13893706D01*
X-42302004Y13893695D01*
X-42355349Y13732710D01*
X-42365500Y13633353D01*
X-42365500Y13036663D01*
X-42365499Y13036645D01*
X-42355350Y12937293D01*
X-42355349Y12937290D01*
X-42302004Y12776306D01*
X-42301999Y12776295D01*
X-42212971Y12631960D01*
X-42212968Y12631956D01*
X-42093045Y12512033D01*
X-42093041Y12512030D01*
X-41948701Y12422999D01*
X-41947095Y12422250D01*
X-41946179Y12421444D01*
X-41942550Y12419205D01*
X-41942933Y12418585D01*
X-41894656Y12376078D01*
X-41875500Y12309868D01*
X-41875500Y11280509D01*
X-41895185Y11213470D01*
X-41900233Y11206198D01*
X-41960096Y11126232D01*
X-41960098Y11126229D01*
X-42010392Y10991383D01*
X-42016799Y10931784D01*
X-42016799Y10931777D01*
X-42016800Y10931765D01*
X-42016800Y8981830D01*
X-42016799Y8981824D01*
X-42010392Y8922217D01*
X-41960098Y8787372D01*
X-41960094Y8787365D01*
X-41873848Y8672156D01*
X-41873845Y8672153D01*
X-41758636Y8585907D01*
X-41758629Y8585903D01*
X-41713682Y8569139D01*
X-41623783Y8535609D01*
X-41564173Y8529200D01*
X-40985828Y8529201D01*
X-40926217Y8535609D01*
X-40791369Y8585904D01*
X-40676154Y8672154D01*
X-40589904Y8787369D01*
X-40539609Y8922217D01*
X-40533200Y8981827D01*
X-40533201Y10461101D01*
X-40513516Y10528139D01*
X-40460713Y10573894D01*
X-40409201Y10585100D01*
X-39600800Y10585100D01*
X-39533761Y10565415D01*
X-39488006Y10512611D01*
X-39476800Y10461100D01*
X-39476800Y8981830D01*
X-39476799Y8981824D01*
X-39470392Y8922217D01*
X-39420098Y8787372D01*
X-39420094Y8787365D01*
X-39333848Y8672156D01*
X-39333845Y8672153D01*
X-39218636Y8585907D01*
X-39218629Y8585903D01*
X-39173682Y8569139D01*
X-39083783Y8535609D01*
X-39024173Y8529200D01*
X-38445828Y8529201D01*
X-38386217Y8535609D01*
X-38251369Y8585904D01*
X-38136154Y8672154D01*
X-38049904Y8787369D01*
X-37999609Y8922217D01*
X-37993200Y8981827D01*
X-37993201Y10931772D01*
X-37999609Y10991383D01*
X-38049904Y11126231D01*
X-38111003Y11207849D01*
X-38131083Y11257160D01*
X-38132397Y11256807D01*
X-38138748Y11280509D01*
X-38175423Y11417384D01*
X-38175427Y11417391D01*
X-38254476Y11554310D01*
X-38254482Y11554318D01*
X-38366283Y11666119D01*
X-38366291Y11666125D01*
X-38503210Y11745174D01*
X-38503214Y11745176D01*
X-38503216Y11745177D01*
X-38655943Y11786100D01*
X-38655944Y11786100D01*
X-40550500Y11786100D01*
X-40617539Y11805785D01*
X-40663294Y11858589D01*
X-40674500Y11910100D01*
X-40674500Y12523126D01*
X-40654815Y12590165D01*
X-40638181Y12610807D01*
X-40617032Y12631956D01*
X-40527997Y12776303D01*
X-40474651Y12937292D01*
X-40464500Y13036655D01*
X-40464501Y13633344D01*
X-40474651Y13732708D01*
X-40527997Y13893697D01*
X-40528001Y13893703D01*
X-40528002Y13893706D01*
X-40617030Y14038041D01*
X-40617031Y14038042D01*
X-40617032Y14038044D01*
X-40736956Y14157968D01*
X-40755601Y14169469D01*
X-40802323Y14221418D01*
X-40814500Y14275005D01*
X-40814500Y14299996D01*
X-40794815Y14367035D01*
X-40755597Y14405535D01*
X-40736956Y14417032D01*
X-40617032Y14536956D01*
X-40527997Y14681303D01*
X-40474651Y14842292D01*
X-40464500Y14941655D01*
X-40464501Y15538344D01*
X-40474651Y15637708D01*
X-40527997Y15798697D01*
X-40528001Y15798703D01*
X-40528002Y15798706D01*
X-40617030Y15943041D01*
X-40617033Y15943045D01*
X-40736956Y16062968D01*
X-40736960Y16062971D01*
X-40881295Y16151999D01*
X-40881301Y16152002D01*
X-40881303Y16152003D01*
X-40881306Y16152004D01*
X-41042291Y16205349D01*
X-41141648Y16215500D01*
X-41141655Y16215500D01*
X-41489903Y16215500D01*
X-41556942Y16235185D01*
X-41577584Y16251819D01*
X-45357081Y20031316D01*
X-45390566Y20092639D01*
X-45393400Y20118997D01*
X-45393400Y25858449D01*
X-45373715Y25925488D01*
X-45320911Y25971243D01*
X-45251753Y25981187D01*
X-45207405Y25965838D01*
X-45163384Y25940423D01*
X-45051581Y25910466D01*
X-45010658Y25899500D01*
X-45010657Y25899500D01*
X-43933115Y25899500D01*
X-43866076Y25879815D01*
X-43833851Y25849814D01*
X-43815246Y25824961D01*
X-43769057Y25790384D01*
X-43700036Y25738714D01*
X-43700029Y25738710D01*
X-43565183Y25688416D01*
X-43565184Y25688416D01*
X-43558256Y25687672D01*
X-43505573Y25682007D01*
X-41606428Y25682008D01*
X-41546817Y25688416D01*
X-41411969Y25738711D01*
X-41296754Y25824961D01*
X-41210504Y25940176D01*
X-41160209Y26075024D01*
X-41153800Y26134634D01*
X-41153801Y26865379D01*
X-41160209Y26924990D01*
X-41172027Y26956673D01*
X-41177012Y27026362D01*
X-41172031Y27043329D01*
X-41160209Y27075022D01*
X-41153800Y27134632D01*
X-41153801Y27775501D01*
X-41134117Y27842539D01*
X-41081313Y27888294D01*
X-41029801Y27899500D01*
X-40541113Y27899500D01*
X-40474074Y27879815D01*
X-40428319Y27827011D01*
X-40417893Y27789385D01*
X-40414870Y27762551D01*
X-40414869Y27762546D01*
X-40414868Y27762545D01*
X-40412063Y27754529D01*
X-40355290Y27592279D01*
X-40259316Y27439538D01*
X-40131762Y27311984D01*
X-39979022Y27216011D01*
X-39808755Y27156432D01*
X-39808750Y27156431D01*
X-39629504Y27136235D01*
X-39629500Y27136235D01*
X-39629496Y27136235D01*
X-39450251Y27156431D01*
X-39450248Y27156432D01*
X-39450245Y27156432D01*
X-39279978Y27216011D01*
X-39127238Y27311984D01*
X-38999684Y27439538D01*
X-38903711Y27592278D01*
X-38844132Y27762545D01*
X-38834332Y27849524D01*
X-38823935Y27941797D01*
X-38823935Y27941804D01*
X-38844131Y28121050D01*
X-38844132Y28121055D01*
X-38877650Y28216844D01*
X-38903711Y28291322D01*
X-38999684Y28444062D01*
X-39127238Y28571616D01*
X-39279979Y28667590D01*
X-39450251Y28727170D01*
X-39537170Y28736963D01*
X-39601584Y28764030D01*
X-39610967Y28772502D01*
X-39700110Y28861645D01*
X-39700112Y28861648D01*
X-39818983Y28980519D01*
X-39818984Y28980520D01*
X-39905796Y29030640D01*
X-39905796Y29030641D01*
X-39905800Y29030642D01*
X-39955915Y29059577D01*
X-40108643Y29100501D01*
X-40266757Y29100501D01*
X-40274353Y29100501D01*
X-40274369Y29100500D01*
X-41029800Y29100500D01*
X-41096839Y29120185D01*
X-41142594Y29172989D01*
X-41153800Y29224500D01*
X-41153801Y29775500D01*
X-41134117Y29842539D01*
X-41081313Y29888294D01*
X-41029801Y29899500D01*
X-40099169Y29899500D01*
X-40099153Y29899499D01*
X-40091557Y29899499D01*
X-39933446Y29899499D01*
X-39933443Y29899499D01*
X-39780715Y29940423D01*
X-39719136Y29975976D01*
X-39643784Y30019480D01*
X-39620438Y30042826D01*
X-39610965Y30052299D01*
X-39549643Y30085785D01*
X-39537184Y30087838D01*
X-39450245Y30097632D01*
X-39279978Y30157211D01*
X-39127238Y30253184D01*
X-38999684Y30380738D01*
X-38903711Y30533478D01*
X-38844132Y30703745D01*
X-38834339Y30790671D01*
X-38807274Y30855082D01*
X-38798810Y30864457D01*
X-34656237Y35007030D01*
X-34594915Y35040513D01*
X-34525223Y35035529D01*
X-34469290Y34993657D01*
X-34444873Y34928193D01*
X-34445337Y34905464D01*
X-34460565Y34770305D01*
X-34460565Y34770297D01*
X-34440396Y34591287D01*
X-34452451Y34522465D01*
X-34475932Y34489726D01*
X-34485472Y34480187D01*
X-34485474Y34480184D01*
X-34573478Y34334607D01*
X-34624087Y34172193D01*
X-34630500Y34101614D01*
X-34630500Y33588387D01*
X-34624087Y33517808D01*
X-34573478Y33355394D01*
X-34485470Y33209812D01*
X-34383339Y33107681D01*
X-34349854Y33046358D01*
X-34354838Y32976666D01*
X-34383339Y32932319D01*
X-34485469Y32830190D01*
X-34485470Y32830189D01*
X-34573478Y32684607D01*
X-34624087Y32522193D01*
X-34630500Y32451614D01*
X-34630500Y31938387D01*
X-34624087Y31867808D01*
X-34624087Y31867806D01*
X-34624086Y31867804D01*
X-34573478Y31705394D01*
X-34515079Y31608790D01*
X-34485470Y31559812D01*
X-34365189Y31439531D01*
X-34365187Y31439530D01*
X-34365185Y31439528D01*
X-34219606Y31351522D01*
X-34057196Y31300914D01*
X-33986616Y31294500D01*
X-33986613Y31294500D01*
X-33323387Y31294500D01*
X-33323384Y31294500D01*
X-33252804Y31300914D01*
X-33090394Y31351522D01*
X-32944815Y31439528D01*
X-32824528Y31559815D01*
X-32736522Y31705394D01*
X-32736519Y31705404D01*
X-32733821Y31711395D01*
X-32688355Y31764448D01*
X-32621424Y31784498D01*
X-32620747Y31784500D01*
X-31600509Y31784500D01*
X-31533470Y31764815D01*
X-31526198Y31759767D01*
X-31453565Y31705394D01*
X-31446232Y31699905D01*
X-31446229Y31699903D01*
X-31311383Y31649609D01*
X-31311384Y31649609D01*
X-31304456Y31648865D01*
X-31251773Y31643200D01*
X-29301828Y31643201D01*
X-29242217Y31649609D01*
X-29107369Y31699904D01*
X-28992154Y31786154D01*
X-28905904Y31901369D01*
X-28855609Y32036217D01*
X-28849200Y32095827D01*
X-28849201Y32674172D01*
X-28855609Y32733783D01*
X-28857418Y32738632D01*
X-28891566Y32830189D01*
X-28905904Y32868631D01*
X-28905905Y32868632D01*
X-28906782Y32870984D01*
X-28911766Y32940675D01*
X-28878281Y33001998D01*
X-28816958Y33035483D01*
X-28776717Y33037537D01*
X-28598304Y33017435D01*
X-28598300Y33017435D01*
X-28598296Y33017435D01*
X-28419051Y33037631D01*
X-28419048Y33037632D01*
X-28419045Y33037632D01*
X-28248778Y33097211D01*
X-28129972Y33171863D01*
X-28062736Y33190862D01*
X-27995900Y33170494D01*
X-27950686Y33117227D01*
X-27940000Y33066868D01*
X-27940000Y28064000D01*
X-27959685Y27996961D01*
X-28012489Y27951206D01*
X-28064000Y27940000D01*
X-35560000Y27940000D01*
X-35560000Y7744000D01*
X-35579685Y7676961D01*
X-35632489Y7631206D01*
X-35684000Y7620000D01*
X-49275500Y7620000D01*
X-49342539Y7639685D01*
X-49388294Y7692489D01*
X-49399500Y7744000D01*
X-49399500Y39000000D01*
X-48505449Y39000000D01*
X-48485683Y38748849D01*
X-48426874Y38503890D01*
X-48330467Y38271141D01*
X-48198840Y38056347D01*
X-48198839Y38056344D01*
X-48198836Y38056341D01*
X-48035224Y37864776D01*
X-47886934Y37738125D01*
X-47843657Y37701162D01*
X-47843654Y37701161D01*
X-47628860Y37569534D01*
X-47396111Y37473127D01*
X-47151148Y37414317D01*
X-46900000Y37394551D01*
X-46648852Y37414317D01*
X-46403889Y37473127D01*
X-46171141Y37569534D01*
X-45956341Y37701164D01*
X-45764776Y37864776D01*
X-45601164Y38056341D01*
X-45469534Y38271141D01*
X-45373127Y38503889D01*
X-45314317Y38748852D01*
X-45294551Y39000000D01*
X-45314317Y39251148D01*
X-45373127Y39496111D01*
X-45469534Y39728859D01*
X-45469534Y39728860D01*
X-45601161Y39943654D01*
X-45601162Y39943657D01*
X-45638125Y39986934D01*
X-45764776Y40135224D01*
X-45891429Y40243396D01*
X-45956344Y40298839D01*
X-45956347Y40298840D01*
X-46171141Y40430467D01*
X-46403890Y40526874D01*
X-46648849Y40585683D01*
X-46900000Y40605449D01*
X-47151152Y40585683D01*
X-47396111Y40526874D01*
X-47628860Y40430467D01*
X-47843654Y40298840D01*
X-47843657Y40298839D01*
X-48035224Y40135224D01*
X-48198839Y39943657D01*
X-48198840Y39943654D01*
X-48330467Y39728860D01*
X-48426874Y39496111D01*
X-48485683Y39251152D01*
X-48505449Y39000000D01*
X-49399500Y39000000D01*
X-49399500Y46121289D01*
X-47850500Y46121289D01*
X-47850500Y45878712D01*
X-47818839Y45638215D01*
X-47756053Y45403896D01*
X-47663227Y45179795D01*
X-47663224Y45179788D01*
X-47541936Y44969711D01*
X-47541934Y44969708D01*
X-47541933Y44969707D01*
X-47394267Y44777264D01*
X-47394261Y44777257D01*
X-47222744Y44605740D01*
X-47222738Y44605735D01*
X-47030289Y44458064D01*
X-46820212Y44336776D01*
X-46596100Y44243946D01*
X-46361789Y44181162D01*
X-46181414Y44157416D01*
X-46121289Y44149500D01*
X-46121288Y44149500D01*
X-45878711Y44149500D01*
X-45830612Y44155833D01*
X-45638211Y44181162D01*
X-45403900Y44243946D01*
X-45179788Y44336776D01*
X-44969711Y44458064D01*
X-44777262Y44605735D01*
X-44605735Y44777262D01*
X-44458064Y44969711D01*
X-44336776Y45179788D01*
X-44243946Y45403900D01*
X-44181162Y45638211D01*
X-44149500Y45878712D01*
X-44149500Y46121288D01*
X-44181162Y46361789D01*
X-44243946Y46596100D01*
X-44336776Y46820212D01*
X-44458064Y47030289D01*
X-44605735Y47222738D01*
X-44605740Y47222744D01*
X-44777257Y47394261D01*
X-44777264Y47394267D01*
X-44969707Y47541933D01*
X-44969708Y47541934D01*
X-44969711Y47541936D01*
X-45179788Y47663224D01*
X-45179795Y47663227D01*
X-45403896Y47756053D01*
X-45638215Y47818839D01*
X-45878711Y47850500D01*
X-45878712Y47850500D01*
X-46121288Y47850500D01*
X-46121289Y47850500D01*
X-46361786Y47818839D01*
X-46596105Y47756053D01*
X-46820206Y47663227D01*
X-46820215Y47663223D01*
X-47030294Y47541933D01*
X-47222737Y47394267D01*
X-47222744Y47394261D01*
X-47394261Y47222744D01*
X-47394267Y47222737D01*
X-47541933Y47030294D01*
X-47663223Y46820215D01*
X-47663227Y46820206D01*
X-47756053Y46596105D01*
X-47818839Y46361786D01*
X-47850500Y46121289D01*
X-49399500Y46121289D01*
X-49399500Y48893039D01*
X-49398720Y48906923D01*
X-49398720Y48906924D01*
X-49388541Y48997269D01*
X-49382365Y49024330D01*
X-49354647Y49103544D01*
X-49342604Y49128550D01*
X-49297954Y49199611D01*
X-49280649Y49221310D01*
X-49221310Y49280649D01*
X-49199611Y49297954D01*
X-49128550Y49342604D01*
X-49103544Y49354647D01*
X-49024330Y49382365D01*
X-48997267Y49388541D01*
X-48934581Y49395604D01*
X-48906921Y49398720D01*
X-48893038Y49399500D01*
X-48834108Y49399500D01*
X-40965892Y49399500D01*
X-40906962Y49399500D01*
X-40893078Y49398720D01*
G37*
%TD.AperFunction*%
%TA.AperFunction,Conductor*%
G36*
X-31533470Y39384815D02*
G01*
X-31526198Y39379767D01*
X-31446232Y39319905D01*
X-31446229Y39319903D01*
X-31311383Y39269609D01*
X-31311384Y39269609D01*
X-31304456Y39268865D01*
X-31251773Y39263200D01*
X-29772500Y39263201D01*
X-29705461Y39243516D01*
X-29659706Y39190713D01*
X-29648500Y39139201D01*
X-29648500Y38330800D01*
X-29668185Y38263761D01*
X-29720989Y38218006D01*
X-29772500Y38206800D01*
X-31251771Y38206800D01*
X-31251777Y38206799D01*
X-31311384Y38200392D01*
X-31446229Y38150098D01*
X-31446232Y38150096D01*
X-31526198Y38090233D01*
X-31591663Y38065816D01*
X-31600509Y38065500D01*
X-34585903Y38065500D01*
X-34652942Y38085185D01*
X-34698697Y38137989D01*
X-34708641Y38207147D01*
X-34679616Y38270703D01*
X-34673584Y38277181D01*
X-33792584Y39158182D01*
X-33731261Y39191667D01*
X-33704903Y39194501D01*
X-33356662Y39194501D01*
X-33356656Y39194501D01*
X-33356648Y39194502D01*
X-33356645Y39194502D01*
X-33302240Y39200060D01*
X-33257292Y39204651D01*
X-33096303Y39257997D01*
X-32951956Y39347032D01*
X-32930807Y39368181D01*
X-32869484Y39401666D01*
X-32843126Y39404500D01*
X-31600509Y39404500D01*
X-31533470Y39384815D01*
G37*
%TD.AperFunction*%
%TD*%
M02*
