%TF.GenerationSoftware,KiCad,Pcbnew,8.0.4-8.0.4-0~ubuntu22.04.1*%
%TF.CreationDate,2024-08-07T21:55:50+03:00*%
%TF.ProjectId,PM-RQ8,504d2d52-5138-42e6-9b69-6361645f7063,rev?*%
%TF.SameCoordinates,Original*%
%TF.FileFunction,Profile,NP*%
%FSLAX46Y46*%
G04 Gerber Fmt 4.6, Leading zero omitted, Abs format (unit mm)*
G04 Created by KiCad (PCBNEW 8.0.4-8.0.4-0~ubuntu22.04.1) date 2024-08-07 21:55:50*
%MOMM*%
%LPD*%
G01*
G04 APERTURE LIST*
%TA.AperFunction,Profile*%
%ADD10C,0.050000*%
%TD*%
G04 APERTURE END LIST*
D10*
X3810000Y-99060000D02*
G75*
G02*
X0Y-95250000I0J3810000D01*
G01*
X80010000Y-11430000D02*
X90170000Y-11430000D01*
X24130000Y-57150000D02*
X38100000Y-57150000D01*
X95250000Y-99060000D02*
X3810000Y-99060000D01*
X39370000Y-40640000D02*
X39370000Y-6350000D01*
X10160000Y-5080000D02*
X10160000Y-3810000D01*
X15240000Y-3810000D02*
X15240000Y-5080000D01*
X74930000Y0D02*
G75*
G02*
X78740000Y-3810000I0J-3810000D01*
G01*
X0Y-95250000D02*
X0Y-3810000D01*
X35560000Y-39370000D02*
X24130000Y-39370000D01*
X6350000Y0D02*
G75*
G02*
X10160000Y-3810000I0J-3810000D01*
G01*
X38100000Y-57150000D02*
G75*
G02*
X39370000Y-58420000I0J-1270000D01*
G01*
X80010000Y-11430000D02*
G75*
G02*
X78740000Y-10160000I0J1270000D01*
G01*
X99060000Y-95250000D02*
G75*
G02*
X95250000Y-99060000I-3810000J0D01*
G01*
X91440000Y-10160000D02*
G75*
G02*
X90170000Y-11430000I-1270000J0D01*
G01*
X24130000Y-59690000D02*
G75*
G02*
X22860000Y-58420000I0J1270000D01*
G01*
X0Y-3810000D02*
G75*
G02*
X3810000Y0I3810000J0D01*
G01*
X19050000Y0D02*
X74930000Y0D01*
X35560000Y-59690000D02*
G75*
G02*
X36830000Y-60960000I0J-1270000D01*
G01*
X36830000Y-92710000D02*
X36830000Y-60960000D01*
X91440000Y-3810000D02*
G75*
G02*
X95250000Y0I3810000J0D01*
G01*
X12700000Y-7620000D02*
G75*
G02*
X10160000Y-5080000I0J2540000D01*
G01*
X38100000Y-5080000D02*
G75*
G02*
X39370000Y-6350000I0J-1270000D01*
G01*
X36830000Y-6350000D02*
G75*
G02*
X38100000Y-5080000I1270000J0D01*
G01*
X39370000Y-92710000D02*
G75*
G02*
X38100000Y-93980000I-1270000J0D01*
G01*
X36830000Y-38100000D02*
G75*
G02*
X35560000Y-39370000I-1270000J0D01*
G01*
X39370000Y-40640000D02*
G75*
G02*
X38100000Y-41910000I-1270000J0D01*
G01*
X15240000Y-5080000D02*
G75*
G02*
X12700000Y-7620000I-2540000J0D01*
G01*
X15240000Y-3810000D02*
G75*
G02*
X19050000Y0I3810000J0D01*
G01*
X78740000Y-3810000D02*
X78740000Y-10160000D01*
X38100000Y-93980000D02*
G75*
G02*
X36830000Y-92710000I0J1270000D01*
G01*
X24130000Y-41910000D02*
X38100000Y-41910000D01*
X22860000Y-40640000D02*
G75*
G02*
X24130000Y-39370000I1270000J0D01*
G01*
X91440000Y-3810000D02*
X91440000Y-10160000D01*
X22860000Y-58420000D02*
G75*
G02*
X24130000Y-57150000I1270000J0D01*
G01*
X99060000Y-3810000D02*
X99060000Y-95250000D01*
X36830000Y-6350000D02*
X36830000Y-38100000D01*
X35560000Y-59690000D02*
X24130000Y-59690000D01*
X24130000Y-41910000D02*
G75*
G02*
X22860000Y-40640000I0J1270000D01*
G01*
X39370000Y-58420000D02*
X39370000Y-92710000D01*
X3810000Y0D02*
X6350000Y0D01*
X95250000Y0D02*
G75*
G02*
X99060000Y-3810000I0J-3810000D01*
G01*
M02*
