<?xml version="1.0" standalone="no"?>
 <!DOCTYPE svg PUBLIC "-//W3C//DTD SVG 1.1//EN" 
 "http://www.w3.org/Graphics/SVG/1.1/DTD/svg11.dtd"> 
<svg
  xmlns:svg="http://www.w3.org/2000/svg"
  xmlns="http://www.w3.org/2000/svg"
  xmlns:xlink="http://www.w3.org/1999/xlink"
  xmlns:inkscape="http://www.inkscape.org/namespaces/inkscape"
  version="1.1"
  width="297.0022mm" height="210.0072mm" viewBox="0.0000 0.0000 297.0022 210.0072">
<title>SVG Image created as PMCNV-DIx32-PTH-drl_map.svg date 2026-06-10T21:39:43 </title>
  <desc>Image generated by PCBNEW </desc>
<g style="fill:#000000; fill-opacity:1.0000;stroke:#000000; stroke-opacity:1.0000;
stroke-linecap:round; stroke-linejoin:round;"
 transform="translate(0 0) scale(1 1)">
</g>
<g style="fill:none; 
stroke:#000000; stroke-width:0.2315; stroke-opacity:1; 
stroke-linecap:round; stroke-linejoin:round;">
<path d="M107.9806 8.5890
L107.9806 9.7467
" />
<path d="M111.4538 5.1158 A3.4732 3.4732 0.0 0 0 107.9806 8.5890" />
<path d="M107.9806 117.4154
L107.9806 9.7467
" />
<path d="M111.4538 5.1158
L185.5484 5.1158
" />
<path d="M107.9806 117.4154 A3.4732 3.4732 0.0 0 0 111.4538 120.8885" />
<path d="M111.4538 120.8885
L185.5484 120.8885
" />
<path d="M189.0216 8.5890 A3.4732 3.4732 0.0 0 0 185.5484 5.1158" />
<path d="M189.0216 8.5890
L189.0216 117.4154
" />
<path d="M185.5484 120.8885 A3.4732 3.4732 0.0 0 0 189.0216 117.4154" />
</g>
<g style="fill:none; 
stroke:#000000; stroke-width:0.1158; stroke-opacity:1; 
stroke-linecap:round; stroke-linejoin:round;">
<path d="M113.5377 34.4063
L114.0008 34.8694
" />
<path d="M114.0008 34.4063
L113.5377 34.8694
" />
<path d="M113.5377 35.5640
L114.0008 36.0271
" />
<path d="M114.0008 35.5640
L113.5377 36.0271
" />
<path d="M113.5377 36.7217
L114.0008 37.1848
" />
<path d="M114.0008 36.7217
L113.5377 37.1848
" />
<path d="M113.5377 37.8795
L114.0008 38.3426
" />
<path d="M114.0008 37.8795
L113.5377 38.3426
" />
<path d="M113.5377 39.0372
L114.0008 39.5003
" />
<path d="M114.0008 39.0372
L113.5377 39.5003
" />
<path d="M113.5377 40.1949
L114.0008 40.6580
" />
<path d="M114.0008 40.1949
L113.5377 40.6580
" />
<path d="M113.5377 41.3527
L114.0008 41.8157
" />
<path d="M114.0008 41.3527
L113.5377 41.8157
" />
<path d="M113.5377 42.5104
L114.0008 42.9735
" />
<path d="M114.0008 42.5104
L113.5377 42.9735
" />
<path d="M113.5377 43.6681
L114.0008 44.1312
" />
<path d="M114.0008 43.6681
L113.5377 44.1312
" />
<path d="M113.5377 44.8258
L114.0008 45.2889
" />
<path d="M114.0008 44.8258
L113.5377 45.2889
" />
<path d="M113.5377 45.9836
L114.0008 46.4467
" />
<path d="M114.0008 45.9836
L113.5377 46.4467
" />
<path d="M113.5377 47.1413
L114.0008 47.6044
" />
<path d="M114.0008 47.1413
L113.5377 47.6044
" />
<path d="M113.5377 48.2990
L114.0008 48.7621
" />
<path d="M114.0008 48.2990
L113.5377 48.7621
" />
<path d="M113.5377 49.4567
L114.0008 49.9198
" />
<path d="M114.0008 49.4567
L113.5377 49.9198
" />
<path d="M113.5377 50.6145
L114.0008 51.0776
" />
<path d="M114.0008 50.6145
L113.5377 51.0776
" />
<path d="M113.5377 51.7722
L114.0008 52.2353
" />
<path d="M114.0008 51.7722
L113.5377 52.2353
" />
<path d="M113.5377 52.9299
L114.0008 53.3930
" />
<path d="M114.0008 52.9299
L113.5377 53.3930
" />
<path d="M113.5377 54.0877
L114.0008 54.5507
" />
<path d="M114.0008 54.0877
L113.5377 54.5507
" />
<path d="M113.5377 55.2454
L114.0008 55.7085
" />
<path d="M114.0008 55.2454
L113.5377 55.7085
" />
<path d="M113.5377 56.4031
L114.0008 56.8662
" />
<path d="M114.0008 56.4031
L113.5377 56.8662
" />
<path d="M119.3264 31.5120
L119.7895 31.9751
" />
<path d="M119.7895 31.5120
L119.3264 31.9751
" />
<path d="M119.3264 77.2422
L119.7895 77.7053
" />
<path d="M119.7895 77.2422
L119.3264 77.7053
" />
<path d="M120.4841 38.4583
L120.9472 38.9214
" />
<path d="M120.9472 38.4583
L120.4841 38.9214
" />
<path d="M120.4841 49.4567
L120.9472 49.9198
" />
<path d="M120.9472 49.4567
L120.4841 49.9198
" />
<path d="M120.4841 79.5577
L120.9472 80.0208
" />
<path d="M120.9472 79.5577
L120.4841 80.0208
" />
<path d="M121.0630 34.4063
L121.5260 34.8694
" />
<path d="M121.5260 34.4063
L121.0630 34.8694
" />
<path d="M121.6418 39.6161
L122.1049 40.0792
" />
<path d="M122.1049 39.6161
L121.6418 40.0792
" />
<path d="M121.6418 50.6145
L122.1049 51.0776
" />
<path d="M122.1049 50.6145
L121.6418 51.0776
" />
<path d="M121.6418 82.4520
L122.1049 82.9151
" />
<path d="M122.1049 82.4520
L121.6418 82.9151
" />
<path d="M122.2207 33.2486
L122.6838 33.7116
" />
<path d="M122.6838 33.2486
L122.2207 33.7116
" />
<path d="M122.2207 35.5640
L122.6838 36.0271
" />
<path d="M122.6838 35.5640
L122.2207 36.0271
" />
<path d="M122.7995 47.1413
L123.2626 47.6044
" />
<path d="M123.2626 47.1413
L122.7995 47.6044
" />
<path d="M122.7995 55.2454
L123.2626 55.7085
" />
<path d="M123.2626 55.2454
L122.7995 55.7085
" />
<path d="M122.7995 92.2927
L123.2626 92.7558
" />
<path d="M123.2626 92.2927
L122.7995 92.7558
" />
<path d="M123.3784 34.4063
L123.8415 34.8694
" />
<path d="M123.8415 34.4063
L123.3784 34.8694
" />
<path d="M124.5361 40.7738
L124.9992 41.2369
" />
<path d="M124.9992 40.7738
L124.5361 41.2369
" />
<path d="M124.5361 87.0829
L124.9992 87.5460
" />
<path d="M124.9992 87.0829
L124.5361 87.5460
" />
<path d="M125.6939 41.3527
L126.1570 41.8157
" />
<path d="M126.1570 41.3527
L125.6939 41.8157
" />
<path d="M125.6939 87.6618
L126.1570 88.1249
" />
<path d="M126.1570 87.6618
L125.6939 88.1249
" />
<path d="M126.8516 41.9315
L127.3147 42.3946
" />
<path d="M127.3147 41.9315
L126.8516 42.3946
" />
<path d="M126.8516 88.2406
L127.3147 88.7037
" />
<path d="M127.3147 88.2406
L126.8516 88.7037
" />
<path d="M127.4305 76.6633
L127.8935 77.1264
" />
<path d="M127.8935 76.6633
L127.4305 77.1264
" />
<path d="M128.5882 37.1269
L129.0513 37.5900
" />
<path d="M129.0513 37.1269
L128.5882 37.5900
" />
<path d="M128.5882 39.6161
L129.0513 40.0792
" />
<path d="M129.0513 39.6161
L128.5882 40.0792
" />
<path d="M128.5882 41.7810
L129.0513 42.2441
" />
<path d="M129.0513 41.7810
L128.5882 42.2441
" />
<path d="M128.5882 77.8211
L129.0513 78.2842
" />
<path d="M129.0513 77.8211
L128.5882 78.2842
" />
<path d="M128.5882 83.4361
L129.0513 83.8991
" />
<path d="M129.0513 83.4361
L128.5882 83.8991
" />
<path d="M128.5882 85.9252
L129.0513 86.3883
" />
<path d="M129.0513 85.9252
L128.5882 86.3883
" />
<path d="M128.5882 88.0901
L129.0513 88.5532
" />
<path d="M129.0513 88.0901
L128.5882 88.5532
" />
<path d="M129.7459 76.6633
L130.2090 77.1264
" />
<path d="M130.2090 76.6633
L129.7459 77.1264
" />
<path d="M130.9036 77.2422
L131.3667 77.7053
" />
<path d="M131.3667 77.2422
L130.9036 77.7053
" />
<path d="M132.0614 76.6633
L132.5245 77.1264
" />
<path d="M132.5245 76.6633
L132.0614 77.1264
" />
<path d="M133.2191 77.2422
L133.6822 77.7053
" />
<path d="M133.6822 77.2422
L133.2191 77.7053
" />
<path d="M134.3768 76.6633
L134.8399 77.1264
" />
<path d="M134.8399 76.6633
L134.3768 77.1264
" />
<path d="M135.5345 77.8211
L135.9976 78.2842
" />
<path d="M135.9976 77.8211
L135.5345 78.2842
" />
<path d="M141.3232 45.9836
L141.7863 46.4467
" />
<path d="M141.7863 45.9836
L141.3232 46.4467
" />
<path d="M141.3232 47.1413
L141.7863 47.6044
" />
<path d="M141.7863 47.1413
L141.3232 47.6044
" />
<path d="M141.3232 48.2990
L141.7863 48.7621
" />
<path d="M141.7863 48.2990
L141.3232 48.7621
" />
<path d="M141.3232 49.4567
L141.7863 49.9198
" />
<path d="M141.7863 49.4567
L141.3232 49.9198
" />
<path d="M141.3232 50.6145
L141.7863 51.0776
" />
<path d="M141.7863 50.6145
L141.3232 51.0776
" />
<path d="M141.3232 51.7722
L141.7863 52.2353
" />
<path d="M141.7863 51.7722
L141.3232 52.2353
" />
<path d="M141.3232 52.9299
L141.7863 53.3930
" />
<path d="M141.7863 52.9299
L141.3232 53.3930
" />
<path d="M141.3232 54.0877
L141.7863 54.5507
" />
<path d="M141.7863 54.0877
L141.3232 54.5507
" />
<path d="M147.4013 51.4162
L147.8643 51.8793
" />
<path d="M147.8643 51.4162
L147.4013 51.8793
" />
<path d="M147.4013 74.5708
L147.8643 75.0338
" />
<path d="M147.8643 74.5708
L147.4013 75.0338
" />
<path d="M147.4013 97.7253
L147.8643 98.1884
" />
<path d="M147.8643 97.7253
L147.4013 98.1884
" />
<path d="M147.4981 28.2616
L147.9612 28.7247
" />
<path d="M147.9612 28.2616
L147.4981 28.7247
" />
<path d="M157.5314 23.4079
L157.9945 23.8710
" />
<path d="M157.9945 23.4079
L157.5314 23.8710
" />
<path d="M157.5314 24.5656
L157.9945 25.0287
" />
<path d="M157.9945 24.5656
L157.5314 25.0287
" />
<path d="M157.5314 25.7233
L157.9945 26.1864
" />
<path d="M157.9945 25.7233
L157.5314 26.1864
" />
<path d="M157.5314 26.8811
L157.9945 27.3441
" />
<path d="M157.9945 26.8811
L157.5314 27.3441
" />
<path d="M157.5314 29.1965
L157.9945 29.6596
" />
<path d="M157.9945 29.1965
L157.5314 29.6596
" />
<path d="M157.5314 30.3542
L157.9945 30.8173
" />
<path d="M157.9945 30.3542
L157.5314 30.8173
" />
<path d="M157.5314 31.5120
L157.9945 31.9751
" />
<path d="M157.9945 31.5120
L157.5314 31.9751
" />
<path d="M157.5314 32.6697
L157.9945 33.1328
" />
<path d="M157.9945 32.6697
L157.5314 33.1328
" />
<path d="M157.5314 46.5624
L157.9945 47.0255
" />
<path d="M157.9945 46.5624
L157.5314 47.0255
" />
<path d="M157.5314 47.7202
L157.9945 48.1832
" />
<path d="M157.9945 47.7202
L157.5314 48.1832
" />
<path d="M157.5314 48.8779
L157.9945 49.3410
" />
<path d="M157.9945 48.8779
L157.5314 49.3410
" />
<path d="M157.5314 50.0356
L157.9945 50.4987
" />
<path d="M157.9945 50.0356
L157.5314 50.4987
" />
<path d="M157.5314 52.3511
L157.9945 52.8142
" />
<path d="M157.9945 52.3511
L157.5314 52.8142
" />
<path d="M157.5314 53.5088
L157.9945 53.9719
" />
<path d="M157.9945 53.5088
L157.5314 53.9719
" />
<path d="M157.5314 54.6665
L157.9945 55.1296
" />
<path d="M157.9945 54.6665
L157.5314 55.1296
" />
<path d="M157.5314 55.8242
L157.9945 56.2873
" />
<path d="M157.9945 55.8242
L157.5314 56.2873
" />
<path d="M157.5314 69.7170
L157.9945 70.1801
" />
<path d="M157.9945 69.7170
L157.5314 70.1801
" />
<path d="M157.5314 70.8747
L157.9945 71.3378
" />
<path d="M157.9945 70.8747
L157.5314 71.3378
" />
<path d="M157.5314 72.0324
L157.9945 72.4955
" />
<path d="M157.9945 72.0324
L157.5314 72.4955
" />
<path d="M157.5314 73.1902
L157.9945 73.6533
" />
<path d="M157.9945 73.1902
L157.5314 73.6533
" />
<path d="M157.5314 75.5056
L157.9945 75.9687
" />
<path d="M157.9945 75.5056
L157.5314 75.9687
" />
<path d="M157.5314 76.6633
L157.9945 77.1264
" />
<path d="M157.9945 76.6633
L157.5314 77.1264
" />
<path d="M157.5314 77.8211
L157.9945 78.2842
" />
<path d="M157.9945 77.8211
L157.5314 78.2842
" />
<path d="M157.5314 78.9788
L157.9945 79.4419
" />
<path d="M157.9945 78.9788
L157.5314 79.4419
" />
<path d="M157.5314 92.8715
L157.9945 93.3346
" />
<path d="M157.9945 92.8715
L157.5314 93.3346
" />
<path d="M157.5314 94.0293
L157.9945 94.4924
" />
<path d="M157.9945 94.0293
L157.5314 94.4924
" />
<path d="M157.5314 95.1870
L157.9945 95.6501
" />
<path d="M157.9945 95.1870
L157.5314 95.6501
" />
<path d="M157.5314 96.3447
L157.9945 96.8078
" />
<path d="M157.9945 96.3447
L157.5314 96.8078
" />
<path d="M157.5314 98.6602
L157.9945 99.1233
" />
<path d="M157.9945 98.6602
L157.5314 99.1233
" />
<path d="M157.5314 99.8179
L157.9945 100.2810
" />
<path d="M157.9945 99.8179
L157.5314 100.2810
" />
<path d="M157.5314 100.9756
L157.9945 101.4387
" />
<path d="M157.9945 100.9756
L157.5314 101.4387
" />
<path d="M157.5314 102.1334
L157.9945 102.5964
" />
<path d="M157.9945 102.1334
L157.5314 102.5964
" />
<path d="M169.1087 100.9756
L169.5717 101.4387
" />
<path d="M169.5717 100.9756
L169.1087 101.4387
" />
<path d="M169.1087 103.2911
L169.5717 103.7542
" />
<path d="M169.5717 103.2911
L169.1087 103.7542
" />
<path d="M170.2664 99.8179
L170.7295 100.2810
" />
<path d="M170.7295 99.8179
L170.2664 100.2810
" />
<path d="M170.2664 102.1334
L170.7295 102.5964
" />
<path d="M170.7295 102.1334
L170.2664 102.5964
" />
<path d="M170.2664 104.4488
L170.7295 104.9119
" />
<path d="M170.7295 104.4488
L170.2664 104.9119
" />
<circle cx="110.0356" cy="10.9044" r="0.3473" /> 
<circle cx="110.0356" cy="115.0999" r="0.3473" /> 
<circle cx="111.1292" cy="8.2643" r="0.3473" /> 
<circle cx="111.1292" cy="13.5445" r="0.3473" /> 
<circle cx="111.1292" cy="112.4598" r="0.3473" /> 
<circle cx="111.1292" cy="117.7400" r="0.3473" /> 
<circle cx="113.7693" cy="7.1707" r="0.3473" /> 
<circle cx="113.7693" cy="14.6381" r="0.3473" /> 
<circle cx="113.7693" cy="111.3662" r="0.3473" /> 
<circle cx="113.7693" cy="118.8336" r="0.3473" /> 
<circle cx="116.4094" cy="8.2643" r="0.3473" /> 
<circle cx="116.4094" cy="13.5445" r="0.3473" /> 
<circle cx="116.4094" cy="112.4598" r="0.3473" /> 
<circle cx="116.4094" cy="117.7400" r="0.3473" /> 
<circle cx="117.5029" cy="10.9044" r="0.3473" /> 
<circle cx="117.5029" cy="115.0999" r="0.3473" /> 
<circle cx="164.4488" cy="10.9044" r="0.3473" /> 
<circle cx="164.4488" cy="115.0999" r="0.3473" /> 
<circle cx="165.5424" cy="8.2643" r="0.3473" /> 
<circle cx="165.5424" cy="13.5445" r="0.3473" /> 
<circle cx="165.5424" cy="112.4598" r="0.3473" /> 
<circle cx="165.5424" cy="117.7400" r="0.3473" /> 
<circle cx="168.1825" cy="7.1707" r="0.3473" /> 
<circle cx="168.1825" cy="14.6381" r="0.3473" /> 
<circle cx="168.1825" cy="111.3662" r="0.3473" /> 
<circle cx="168.1825" cy="118.8336" r="0.3473" /> 
<circle cx="170.8226" cy="8.2643" r="0.3473" /> 
<circle cx="170.8226" cy="13.5445" r="0.3473" /> 
<circle cx="170.8226" cy="112.4598" r="0.3473" /> 
<circle cx="170.8226" cy="117.7400" r="0.3473" /> 
<circle cx="171.9161" cy="10.9044" r="0.3473" /> 
<circle cx="171.9161" cy="115.0999" r="0.3473" /> 
</g>
<g style="fill:none; 
stroke:#000000; stroke-width:0.1621; stroke-opacity:1; 
stroke-linecap:round; stroke-linejoin:round;">
<path d="M168.5298 30.9331
L168.5298 32.5539
" />
<path d="M167.7194 31.7435
L169.3402 31.7435
" />
<path d="M168.5298 34.9851
L168.5298 36.6060
" />
<path d="M167.7194 35.7956
L169.3402 35.7956
" />
<path d="M168.5298 39.0372
L168.5298 40.6580
" />
<path d="M167.7194 39.8476
L169.3402 39.8476
" />
<path d="M168.5298 43.0892
L168.5298 44.7101
" />
<path d="M167.7194 43.8997
L169.3402 43.8997
" />
<path d="M168.5298 47.1413
L168.5298 48.7621
" />
<path d="M167.7194 47.9517
L169.3402 47.9517
" />
<path d="M168.5298 51.1933
L168.5298 52.8142
" />
<path d="M167.7194 52.0037
L169.3402 52.0037
" />
<path d="M168.5298 55.2454
L168.5298 56.8662
" />
<path d="M167.7194 56.0558
L169.3402 56.0558
" />
<path d="M168.5298 59.2974
L168.5298 60.9183
" />
<path d="M167.7194 60.1078
L169.3402 60.1078
" />
<path d="M168.5298 65.0861
L168.5298 66.7069
" />
<path d="M167.7194 65.8965
L169.3402 65.8965
" />
<path d="M168.5298 69.1381
L168.5298 70.7589
" />
<path d="M167.7194 69.9485
L169.3402 69.9485
" />
<path d="M168.5298 73.1902
L168.5298 74.8110
" />
<path d="M167.7194 74.0006
L169.3402 74.0006
" />
<path d="M168.5298 77.2422
L168.5298 78.8630
" />
<path d="M167.7194 78.0526
L169.3402 78.0526
" />
<path d="M168.5298 81.2943
L168.5298 82.9151
" />
<path d="M167.7194 82.1047
L169.3402 82.1047
" />
<path d="M168.5298 85.3463
L168.5298 86.9671
" />
<path d="M167.7194 86.1567
L169.3402 86.1567
" />
<path d="M168.5298 89.3984
L168.5298 91.0192
" />
<path d="M167.7194 90.2088
L169.3402 90.2088
" />
<path d="M168.5298 93.4504
L168.5298 95.0712
" />
<path d="M167.7194 94.2608
L169.3402 94.2608
" />
<path d="M183.2329 30.9331
L183.2329 32.5539
" />
<path d="M182.4225 31.7435
L184.0433 31.7435
" />
<path d="M183.2329 34.9851
L183.2329 36.6060
" />
<path d="M182.4225 35.7956
L184.0433 35.7956
" />
<path d="M183.2329 39.0372
L183.2329 40.6580
" />
<path d="M182.4225 39.8476
L184.0433 39.8476
" />
<path d="M183.2329 43.0892
L183.2329 44.7101
" />
<path d="M182.4225 43.8997
L184.0433 43.8997
" />
<path d="M183.2329 47.1413
L183.2329 48.7621
" />
<path d="M182.4225 47.9517
L184.0433 47.9517
" />
<path d="M183.2329 51.1933
L183.2329 52.8142
" />
<path d="M182.4225 52.0037
L184.0433 52.0037
" />
<path d="M183.2329 55.2454
L183.2329 56.8662
" />
<path d="M182.4225 56.0558
L184.0433 56.0558
" />
<path d="M183.2329 59.2974
L183.2329 60.9183
" />
<path d="M182.4225 60.1078
L184.0433 60.1078
" />
<path d="M183.2329 65.0861
L183.2329 66.7069
" />
<path d="M182.4225 65.8965
L184.0433 65.8965
" />
<path d="M183.2329 69.1381
L183.2329 70.7589
" />
<path d="M182.4225 69.9485
L184.0433 69.9485
" />
<path d="M183.2329 73.1902
L183.2329 74.8110
" />
<path d="M182.4225 74.0006
L184.0433 74.0006
" />
<path d="M183.2329 77.2422
L183.2329 78.8630
" />
<path d="M182.4225 78.0526
L184.0433 78.0526
" />
<path d="M183.2329 81.2943
L183.2329 82.9151
" />
<path d="M182.4225 82.1047
L184.0433 82.1047
" />
<path d="M183.2329 85.3463
L183.2329 86.9671
" />
<path d="M182.4225 86.1567
L184.0433 86.1567
" />
<path d="M183.2329 89.3984
L183.2329 91.0192
" />
<path d="M182.4225 90.2088
L184.0433 90.2088
" />
<path d="M183.2329 93.4504
L183.2329 95.0712
" />
<path d="M182.4225 94.2608
L184.0433 94.2608
" />
<path d="M183.2329 99.2390
L183.2329 100.8599
" />
<path d="M182.4225 100.0494
L184.0433 100.0494
" />
<path d="M183.2329 103.2911
L183.2329 104.9119
" />
<path d="M182.4225 104.1015
L184.0433 104.1015
" />
<path d="M183.2329 107.3431
L183.2329 108.9640
" />
<path d="M182.4225 108.1535
L184.0433 108.1535
" />
<path style="fill:none; 
stroke:#000000; stroke-width:0.2547; stroke-opacity:1; 
stroke-linecap:round; stroke-linejoin:round;fill:none"
d="M 158.6634,9.4895
158.6634,7.6884
156.8624,7.6884
156.8624,9.4895
Z" /> 
<path style="fill:none; 
stroke:#000000; stroke-width:0.2547; stroke-opacity:1; 
stroke-linecap:round; stroke-linejoin:round;fill:none"
d="M 158.6634,118.3159
158.6634,116.5149
156.8624,116.5149
156.8624,118.3159
Z" /> 
<path style="fill:none; 
stroke:#000000; stroke-width:0.2547; stroke-opacity:1; 
stroke-linecap:round; stroke-linejoin:round;fill:none"
d="M 186.4489,9.4895
186.4489,7.6884
184.6479,7.6884
184.6479,9.4895
Z" /> 
<path style="fill:none; 
stroke:#000000; stroke-width:0.2547; stroke-opacity:1; 
stroke-linecap:round; stroke-linejoin:round;fill:none"
d="M 186.4489,118.3159
186.4489,116.5149
184.6479,116.5149
184.6479,118.3159
Z" /> 
<path style="fill:none; 
stroke:#000000; stroke-width:0.4978; stroke-opacity:1; 
stroke-linecap:round; stroke-linejoin:round;fill:none"
d="M 113.7693,13.3935
116.2584,10.9044
113.7693,8.4153
111.2802,10.9044
Z" /> 
<path style="fill:none; 
stroke:#000000; stroke-width:0.4978; stroke-opacity:1; 
stroke-linecap:round; stroke-linejoin:round;fill:none"
d="M 113.7693,117.5890
116.2584,115.0999
113.7693,112.6108
111.2802,115.0999
Z" /> 
<path style="fill:none; 
stroke:#000000; stroke-width:0.4978; stroke-opacity:1; 
stroke-linecap:round; stroke-linejoin:round;fill:none"
d="M 168.1825,13.3935
170.6716,10.9044
168.1825,8.4153
165.6934,10.9044
Z" /> 
<path style="fill:none; 
stroke:#000000; stroke-width:0.4978; stroke-opacity:1; 
stroke-linecap:round; stroke-linejoin:round;fill:none"
d="M 168.1825,117.5890
170.6716,115.0999
168.1825,112.6108
165.6934,115.0999
Z" /> 
</g>
<g style="fill:none; 
stroke:#000000; stroke-width:0.2000; stroke-opacity:1; 
stroke-linecap:round; stroke-linejoin:round;">
<text x="109.8649" y="124.2043"
textLength="14.8667" font-size="2.6667" lengthAdjust="spacingAndGlyphs"
text-anchor="start" opacity="0" stroke-opacity="0">Drill Map:</text>
<g class="stroked-text"><desc>Drill Map:</desc>
<path d="M110.4726 124.1192
L110.4726 122.1192
" />
<path d="M110.4726 122.1192
L110.9488 122.1192
" />
<path d="M110.9488 122.1192
L111.2345 122.2144
" />
<path d="M111.2345 122.2144
L111.4250 122.4049
" />
<path d="M111.4250 122.4049
L111.5202 122.5953
" />
<path d="M111.5202 122.5953
L111.6155 122.9763
" />
<path d="M111.6155 122.9763
L111.6155 123.2620
" />
<path d="M111.6155 123.2620
L111.5202 123.6430
" />
<path d="M111.5202 123.6430
L111.4250 123.8334
" />
<path d="M111.4250 123.8334
L111.2345 124.0239
" />
<path d="M111.2345 124.0239
L110.9488 124.1192
" />
<path d="M110.9488 124.1192
L110.4726 124.1192
" />
<path d="M112.4726 124.1192
L112.4726 122.7858
" />
<path d="M112.4726 123.1668
L112.5679 122.9763
" />
<path d="M112.5679 122.9763
L112.6631 122.8811
" />
<path d="M112.6631 122.8811
L112.8536 122.7858
" />
<path d="M112.8536 122.7858
L113.0441 122.7858
" />
<path d="M113.7107 124.1192
L113.7107 122.7858
" />
<path d="M113.7107 122.1192
L113.6155 122.2144
" />
<path d="M113.6155 122.2144
L113.7107 122.3096
" />
<path d="M113.7107 122.3096
L113.8060 122.2144
" />
<path d="M113.8060 122.2144
L113.7107 122.1192
" />
<path d="M113.7107 122.1192
L113.7107 122.3096
" />
<path d="M114.9488 124.1192
L114.7583 124.0239
" />
<path d="M114.7583 124.0239
L114.6631 123.8334
" />
<path d="M114.6631 123.8334
L114.6631 122.1192
" />
<path d="M115.9964 124.1192
L115.8060 124.0239
" />
<path d="M115.8060 124.0239
L115.7107 123.8334
" />
<path d="M115.7107 123.8334
L115.7107 122.1192
" />
<path d="M118.2821 124.1192
L118.2821 122.1192
" />
<path d="M118.2821 122.1192
L118.9488 123.5477
" />
<path d="M118.9488 123.5477
L119.6155 122.1192
" />
<path d="M119.6155 122.1192
L119.6155 124.1192
" />
<path d="M121.4250 124.1192
L121.4250 123.0715
" />
<path d="M121.4250 123.0715
L121.3298 122.8811
" />
<path d="M121.3298 122.8811
L121.1393 122.7858
" />
<path d="M121.1393 122.7858
L120.7583 122.7858
" />
<path d="M120.7583 122.7858
L120.5679 122.8811
" />
<path d="M121.4250 124.0239
L121.2345 124.1192
" />
<path d="M121.2345 124.1192
L120.7583 124.1192
" />
<path d="M120.7583 124.1192
L120.5679 124.0239
" />
<path d="M120.5679 124.0239
L120.4726 123.8334
" />
<path d="M120.4726 123.8334
L120.4726 123.6430
" />
<path d="M120.4726 123.6430
L120.5679 123.4525
" />
<path d="M120.5679 123.4525
L120.7583 123.3573
" />
<path d="M120.7583 123.3573
L121.2345 123.3573
" />
<path d="M121.2345 123.3573
L121.4250 123.2620
" />
<path d="M122.3774 122.7858
L122.3774 124.7858
" />
<path d="M122.3774 122.8811
L122.5679 122.7858
" />
<path d="M122.5679 122.7858
L122.9488 122.7858
" />
<path d="M122.9488 122.7858
L123.1393 122.8811
" />
<path d="M123.1393 122.8811
L123.2345 122.9763
" />
<path d="M123.2345 122.9763
L123.3298 123.1668
" />
<path d="M123.3298 123.1668
L123.3298 123.7382
" />
<path d="M123.3298 123.7382
L123.2345 123.9287
" />
<path d="M123.2345 123.9287
L123.1393 124.0239
" />
<path d="M123.1393 124.0239
L122.9488 124.1192
" />
<path d="M122.9488 124.1192
L122.5679 124.1192
" />
<path d="M122.5679 124.1192
L122.3774 124.0239
" />
<path d="M124.1869 123.9287
L124.2821 124.0239
" />
<path d="M124.2821 124.0239
L124.1869 124.1192
" />
<path d="M124.1869 124.1192
L124.0917 124.0239
" />
<path d="M124.0917 124.0239
L124.1869 123.9287
" />
<path d="M124.1869 123.9287
L124.1869 124.1192
" />
<path d="M124.1869 122.8811
L124.2821 122.9763
" />
<path d="M124.2821 122.9763
L124.1869 123.0715
" />
<path d="M124.1869 123.0715
L124.0917 122.9763
" />
<path d="M124.0917 122.9763
L124.1869 122.8811
" />
<path d="M124.1869 122.8811
L124.1869 123.0715
" />
</g></g>
<g style="fill:none; 
stroke:#000000; stroke-width:0.1158; stroke-opacity:1; 
stroke-linecap:round; stroke-linejoin:round;">
<path d="M107.4018 127.1728
L107.8649 127.6359
" />
<path d="M107.8649 127.1728
L107.4018 127.6359
" />
</g>
<g style="fill:none; 
stroke:#000000; stroke-width:0.2000; stroke-opacity:1; 
stroke-linecap:round; stroke-linejoin:round;">
<text x="109.8649" y="128.4043"
textLength="50.6762" font-size="2.6667" lengthAdjust="spacingAndGlyphs"
text-anchor="start" opacity="0" stroke-opacity="0">0,400mm / 0,0157" (104 holes)</text>
<g class="stroked-text"><desc>0,400mm / 0,0157" (104 holes)</desc>
<path d="M110.8536 126.3192
L111.0441 126.3192
" />
<path d="M111.0441 126.3192
L111.2345 126.4144
" />
<path d="M111.2345 126.4144
L111.3298 126.5096
" />
<path d="M111.3298 126.5096
L111.4250 126.7001
" />
<path d="M111.4250 126.7001
L111.5202 127.0811
" />
<path d="M111.5202 127.0811
L111.5202 127.5573
" />
<path d="M111.5202 127.5573
L111.4250 127.9382
" />
<path d="M111.4250 127.9382
L111.3298 128.1287
" />
<path d="M111.3298 128.1287
L111.2345 128.2239
" />
<path d="M111.2345 128.2239
L111.0441 128.3192
" />
<path d="M111.0441 128.3192
L110.8536 128.3192
" />
<path d="M110.8536 128.3192
L110.6631 128.2239
" />
<path d="M110.6631 128.2239
L110.5679 128.1287
" />
<path d="M110.5679 128.1287
L110.4726 127.9382
" />
<path d="M110.4726 127.9382
L110.3774 127.5573
" />
<path d="M110.3774 127.5573
L110.3774 127.0811
" />
<path d="M110.3774 127.0811
L110.4726 126.7001
" />
<path d="M110.4726 126.7001
L110.5679 126.5096
" />
<path d="M110.5679 126.5096
L110.6631 126.4144
" />
<path d="M110.6631 126.4144
L110.8536 126.3192
" />
<path d="M112.4726 128.2239
L112.4726 128.3192
" />
<path d="M112.4726 128.3192
L112.3774 128.5096
" />
<path d="M112.3774 128.5096
L112.2821 128.6049
" />
<path d="M114.1869 126.9858
L114.1869 128.3192
" />
<path d="M113.7107 126.2239
L113.2345 127.6525
" />
<path d="M113.2345 127.6525
L114.4726 127.6525
" />
<path d="M115.6155 126.3192
L115.8060 126.3192
" />
<path d="M115.8060 126.3192
L115.9964 126.4144
" />
<path d="M115.9964 126.4144
L116.0917 126.5096
" />
<path d="M116.0917 126.5096
L116.1869 126.7001
" />
<path d="M116.1869 126.7001
L116.2821 127.0811
" />
<path d="M116.2821 127.0811
L116.2821 127.5573
" />
<path d="M116.2821 127.5573
L116.1869 127.9382
" />
<path d="M116.1869 127.9382
L116.0917 128.1287
" />
<path d="M116.0917 128.1287
L115.9964 128.2239
" />
<path d="M115.9964 128.2239
L115.8060 128.3192
" />
<path d="M115.8060 128.3192
L115.6155 128.3192
" />
<path d="M115.6155 128.3192
L115.4250 128.2239
" />
<path d="M115.4250 128.2239
L115.3298 128.1287
" />
<path d="M115.3298 128.1287
L115.2345 127.9382
" />
<path d="M115.2345 127.9382
L115.1393 127.5573
" />
<path d="M115.1393 127.5573
L115.1393 127.0811
" />
<path d="M115.1393 127.0811
L115.2345 126.7001
" />
<path d="M115.2345 126.7001
L115.3298 126.5096
" />
<path d="M115.3298 126.5096
L115.4250 126.4144
" />
<path d="M115.4250 126.4144
L115.6155 126.3192
" />
<path d="M117.5202 126.3192
L117.7107 126.3192
" />
<path d="M117.7107 126.3192
L117.9012 126.4144
" />
<path d="M117.9012 126.4144
L117.9964 126.5096
" />
<path d="M117.9964 126.5096
L118.0917 126.7001
" />
<path d="M118.0917 126.7001
L118.1869 127.0811
" />
<path d="M118.1869 127.0811
L118.1869 127.5573
" />
<path d="M118.1869 127.5573
L118.0917 127.9382
" />
<path d="M118.0917 127.9382
L117.9964 128.1287
" />
<path d="M117.9964 128.1287
L117.9012 128.2239
" />
<path d="M117.9012 128.2239
L117.7107 128.3192
" />
<path d="M117.7107 128.3192
L117.5202 128.3192
" />
<path d="M117.5202 128.3192
L117.3298 128.2239
" />
<path d="M117.3298 128.2239
L117.2345 128.1287
" />
<path d="M117.2345 128.1287
L117.1393 127.9382
" />
<path d="M117.1393 127.9382
L117.0441 127.5573
" />
<path d="M117.0441 127.5573
L117.0441 127.0811
" />
<path d="M117.0441 127.0811
L117.1393 126.7001
" />
<path d="M117.1393 126.7001
L117.2345 126.5096
" />
<path d="M117.2345 126.5096
L117.3298 126.4144
" />
<path d="M117.3298 126.4144
L117.5202 126.3192
" />
<path d="M119.0441 128.3192
L119.0441 126.9858
" />
<path d="M119.0441 127.1763
L119.1393 127.0811
" />
<path d="M119.1393 127.0811
L119.3298 126.9858
" />
<path d="M119.3298 126.9858
L119.6155 126.9858
" />
<path d="M119.6155 126.9858
L119.8060 127.0811
" />
<path d="M119.8060 127.0811
L119.9012 127.2715
" />
<path d="M119.9012 127.2715
L119.9012 128.3192
" />
<path d="M119.9012 127.2715
L119.9964 127.0811
" />
<path d="M119.9964 127.0811
L120.1869 126.9858
" />
<path d="M120.1869 126.9858
L120.4726 126.9858
" />
<path d="M120.4726 126.9858
L120.6631 127.0811
" />
<path d="M120.6631 127.0811
L120.7583 127.2715
" />
<path d="M120.7583 127.2715
L120.7583 128.3192
" />
<path d="M121.7107 128.3192
L121.7107 126.9858
" />
<path d="M121.7107 127.1763
L121.8060 127.0811
" />
<path d="M121.8060 127.0811
L121.9964 126.9858
" />
<path d="M121.9964 126.9858
L122.2821 126.9858
" />
<path d="M122.2821 126.9858
L122.4726 127.0811
" />
<path d="M122.4726 127.0811
L122.5679 127.2715
" />
<path d="M122.5679 127.2715
L122.5679 128.3192
" />
<path d="M122.5679 127.2715
L122.6631 127.0811
" />
<path d="M122.6631 127.0811
L122.8536 126.9858
" />
<path d="M122.8536 126.9858
L123.1393 126.9858
" />
<path d="M123.1393 126.9858
L123.3298 127.0811
" />
<path d="M123.3298 127.0811
L123.4250 127.2715
" />
<path d="M123.4250 127.2715
L123.4250 128.3192
" />
<path d="M127.3298 126.2239
L125.6155 128.7953
" />
<path d="M129.9012 126.3192
L130.0917 126.3192
" />
<path d="M130.0917 126.3192
L130.2822 126.4144
" />
<path d="M130.2822 126.4144
L130.3774 126.5096
" />
<path d="M130.3774 126.5096
L130.4726 126.7001
" />
<path d="M130.4726 126.7001
L130.5679 127.0811
" />
<path d="M130.5679 127.0811
L130.5679 127.5573
" />
<path d="M130.5679 127.5573
L130.4726 127.9382
" />
<path d="M130.4726 127.9382
L130.3774 128.1287
" />
<path d="M130.3774 128.1287
L130.2822 128.2239
" />
<path d="M130.2822 128.2239
L130.0917 128.3192
" />
<path d="M130.0917 128.3192
L129.9012 128.3192
" />
<path d="M129.9012 128.3192
L129.7107 128.2239
" />
<path d="M129.7107 128.2239
L129.6155 128.1287
" />
<path d="M129.6155 128.1287
L129.5202 127.9382
" />
<path d="M129.5202 127.9382
L129.4250 127.5573
" />
<path d="M129.4250 127.5573
L129.4250 127.0811
" />
<path d="M129.4250 127.0811
L129.5202 126.7001
" />
<path d="M129.5202 126.7001
L129.6155 126.5096
" />
<path d="M129.6155 126.5096
L129.7107 126.4144
" />
<path d="M129.7107 126.4144
L129.9012 126.3192
" />
<path d="M131.5202 128.2239
L131.5202 128.3192
" />
<path d="M131.5202 128.3192
L131.4250 128.5096
" />
<path d="M131.4250 128.5096
L131.3298 128.6049
" />
<path d="M132.7583 126.3192
L132.9488 126.3192
" />
<path d="M132.9488 126.3192
L133.1393 126.4144
" />
<path d="M133.1393 126.4144
L133.2345 126.5096
" />
<path d="M133.2345 126.5096
L133.3298 126.7001
" />
<path d="M133.3298 126.7001
L133.4250 127.0811
" />
<path d="M133.4250 127.0811
L133.4250 127.5573
" />
<path d="M133.4250 127.5573
L133.3298 127.9382
" />
<path d="M133.3298 127.9382
L133.2345 128.1287
" />
<path d="M133.2345 128.1287
L133.1393 128.2239
" />
<path d="M133.1393 128.2239
L132.9488 128.3192
" />
<path d="M132.9488 128.3192
L132.7583 128.3192
" />
<path d="M132.7583 128.3192
L132.5679 128.2239
" />
<path d="M132.5679 128.2239
L132.4726 128.1287
" />
<path d="M132.4726 128.1287
L132.3774 127.9382
" />
<path d="M132.3774 127.9382
L132.2822 127.5573
" />
<path d="M132.2822 127.5573
L132.2822 127.0811
" />
<path d="M132.2822 127.0811
L132.3774 126.7001
" />
<path d="M132.3774 126.7001
L132.4726 126.5096
" />
<path d="M132.4726 126.5096
L132.5679 126.4144
" />
<path d="M132.5679 126.4144
L132.7583 126.3192
" />
<path d="M135.3298 128.3192
L134.1869 128.3192
" />
<path d="M134.7583 128.3192
L134.7583 126.3192
" />
<path d="M134.7583 126.3192
L134.5679 126.6049
" />
<path d="M134.5679 126.6049
L134.3774 126.7953
" />
<path d="M134.3774 126.7953
L134.1869 126.8906
" />
<path d="M137.1393 126.3192
L136.1869 126.3192
" />
<path d="M136.1869 126.3192
L136.0917 127.2715
" />
<path d="M136.0917 127.2715
L136.1869 127.1763
" />
<path d="M136.1869 127.1763
L136.3774 127.0811
" />
<path d="M136.3774 127.0811
L136.8536 127.0811
" />
<path d="M136.8536 127.0811
L137.0441 127.1763
" />
<path d="M137.0441 127.1763
L137.1393 127.2715
" />
<path d="M137.1393 127.2715
L137.2345 127.4620
" />
<path d="M137.2345 127.4620
L137.2345 127.9382
" />
<path d="M137.2345 127.9382
L137.1393 128.1287
" />
<path d="M137.1393 128.1287
L137.0441 128.2239
" />
<path d="M137.0441 128.2239
L136.8536 128.3192
" />
<path d="M136.8536 128.3192
L136.3774 128.3192
" />
<path d="M136.3774 128.3192
L136.1869 128.2239
" />
<path d="M136.1869 128.2239
L136.0917 128.1287
" />
<path d="M137.9012 126.3192
L139.2345 126.3192
" />
<path d="M139.2345 126.3192
L138.3774 128.3192
" />
<path d="M139.9012 126.3192
L139.9012 126.7001
" />
<path d="M140.6631 126.3192
L140.6631 126.7001
" />
<path d="M143.6155 129.0811
L143.5202 128.9858
" />
<path d="M143.5202 128.9858
L143.3298 128.7001
" />
<path d="M143.3298 128.7001
L143.2345 128.5096
" />
<path d="M143.2345 128.5096
L143.1393 128.2239
" />
<path d="M143.1393 128.2239
L143.0441 127.7477
" />
<path d="M143.0441 127.7477
L143.0441 127.3668
" />
<path d="M143.0441 127.3668
L143.1393 126.8906
" />
<path d="M143.1393 126.8906
L143.2345 126.6049
" />
<path d="M143.2345 126.6049
L143.3298 126.4144
" />
<path d="M143.3298 126.4144
L143.5202 126.1287
" />
<path d="M143.5202 126.1287
L143.6155 126.0334
" />
<path d="M145.4250 128.3192
L144.2822 128.3192
" />
<path d="M144.8536 128.3192
L144.8536 126.3192
" />
<path d="M144.8536 126.3192
L144.6631 126.6049
" />
<path d="M144.6631 126.6049
L144.4726 126.7953
" />
<path d="M144.4726 126.7953
L144.2822 126.8906
" />
<path d="M146.6631 126.3192
L146.8536 126.3192
" />
<path d="M146.8536 126.3192
L147.0441 126.4144
" />
<path d="M147.0441 126.4144
L147.1393 126.5096
" />
<path d="M147.1393 126.5096
L147.2345 126.7001
" />
<path d="M147.2345 126.7001
L147.3298 127.0811
" />
<path d="M147.3298 127.0811
L147.3298 127.5573
" />
<path d="M147.3298 127.5573
L147.2345 127.9382
" />
<path d="M147.2345 127.9382
L147.1393 128.1287
" />
<path d="M147.1393 128.1287
L147.0441 128.2239
" />
<path d="M147.0441 128.2239
L146.8536 128.3192
" />
<path d="M146.8536 128.3192
L146.6631 128.3192
" />
<path d="M146.6631 128.3192
L146.4726 128.2239
" />
<path d="M146.4726 128.2239
L146.3774 128.1287
" />
<path d="M146.3774 128.1287
L146.2822 127.9382
" />
<path d="M146.2822 127.9382
L146.1869 127.5573
" />
<path d="M146.1869 127.5573
L146.1869 127.0811
" />
<path d="M146.1869 127.0811
L146.2822 126.7001
" />
<path d="M146.2822 126.7001
L146.3774 126.5096
" />
<path d="M146.3774 126.5096
L146.4726 126.4144
" />
<path d="M146.4726 126.4144
L146.6631 126.3192
" />
<path d="M149.0441 126.9858
L149.0441 128.3192
" />
<path d="M148.5679 126.2239
L148.0917 127.6525
" />
<path d="M148.0917 127.6525
L149.3298 127.6525
" />
<path d="M151.6155 128.3192
L151.6155 126.3192
" />
<path d="M152.4726 128.3192
L152.4726 127.2715
" />
<path d="M152.4726 127.2715
L152.3774 127.0811
" />
<path d="M152.3774 127.0811
L152.1869 126.9858
" />
<path d="M152.1869 126.9858
L151.9012 126.9858
" />
<path d="M151.9012 126.9858
L151.7107 127.0811
" />
<path d="M151.7107 127.0811
L151.6155 127.1763
" />
<path d="M153.7107 128.3192
L153.5202 128.2239
" />
<path d="M153.5202 128.2239
L153.4250 128.1287
" />
<path d="M153.4250 128.1287
L153.3298 127.9382
" />
<path d="M153.3298 127.9382
L153.3298 127.3668
" />
<path d="M153.3298 127.3668
L153.4250 127.1763
" />
<path d="M153.4250 127.1763
L153.5202 127.0811
" />
<path d="M153.5202 127.0811
L153.7107 126.9858
" />
<path d="M153.7107 126.9858
L153.9964 126.9858
" />
<path d="M153.9964 126.9858
L154.1869 127.0811
" />
<path d="M154.1869 127.0811
L154.2822 127.1763
" />
<path d="M154.2822 127.1763
L154.3774 127.3668
" />
<path d="M154.3774 127.3668
L154.3774 127.9382
" />
<path d="M154.3774 127.9382
L154.2822 128.1287
" />
<path d="M154.2822 128.1287
L154.1869 128.2239
" />
<path d="M154.1869 128.2239
L153.9964 128.3192
" />
<path d="M153.9964 128.3192
L153.7107 128.3192
" />
<path d="M155.5202 128.3192
L155.3298 128.2239
" />
<path d="M155.3298 128.2239
L155.2345 128.0334
" />
<path d="M155.2345 128.0334
L155.2345 126.3192
" />
<path d="M157.0441 128.2239
L156.8536 128.3192
" />
<path d="M156.8536 128.3192
L156.4726 128.3192
" />
<path d="M156.4726 128.3192
L156.2821 128.2239
" />
<path d="M156.2821 128.2239
L156.1869 128.0334
" />
<path d="M156.1869 128.0334
L156.1869 127.2715
" />
<path d="M156.1869 127.2715
L156.2821 127.0811
" />
<path d="M156.2821 127.0811
L156.4726 126.9858
" />
<path d="M156.4726 126.9858
L156.8536 126.9858
" />
<path d="M156.8536 126.9858
L157.0441 127.0811
" />
<path d="M157.0441 127.0811
L157.1393 127.2715
" />
<path d="M157.1393 127.2715
L157.1393 127.4620
" />
<path d="M157.1393 127.4620
L156.1869 127.6525
" />
<path d="M157.9012 128.2239
L158.0917 128.3192
" />
<path d="M158.0917 128.3192
L158.4726 128.3192
" />
<path d="M158.4726 128.3192
L158.6631 128.2239
" />
<path d="M158.6631 128.2239
L158.7583 128.0334
" />
<path d="M158.7583 128.0334
L158.7583 127.9382
" />
<path d="M158.7583 127.9382
L158.6631 127.7477
" />
<path d="M158.6631 127.7477
L158.4726 127.6525
" />
<path d="M158.4726 127.6525
L158.1869 127.6525
" />
<path d="M158.1869 127.6525
L157.9964 127.5573
" />
<path d="M157.9964 127.5573
L157.9012 127.3668
" />
<path d="M157.9012 127.3668
L157.9012 127.2715
" />
<path d="M157.9012 127.2715
L157.9964 127.0811
" />
<path d="M157.9964 127.0811
L158.1869 126.9858
" />
<path d="M158.1869 126.9858
L158.4726 126.9858
" />
<path d="M158.4726 126.9858
L158.6631 127.0811
" />
<path d="M159.4250 129.0811
L159.5202 128.9858
" />
<path d="M159.5202 128.9858
L159.7107 128.7001
" />
<path d="M159.7107 128.7001
L159.8060 128.5096
" />
<path d="M159.8060 128.5096
L159.9012 128.2239
" />
<path d="M159.9012 128.2239
L159.9964 127.7477
" />
<path d="M159.9964 127.7477
L159.9964 127.3668
" />
<path d="M159.9964 127.3668
L159.9012 126.8906
" />
<path d="M159.9012 126.8906
L159.8060 126.6049
" />
<path d="M159.8060 126.6049
L159.7107 126.4144
" />
<path d="M159.7107 126.4144
L159.5202 126.1287
" />
<path d="M159.5202 126.1287
L159.4250 126.0334
" />
</g></g>
<g style="fill:none; 
stroke:#000000; stroke-width:0.1158; stroke-opacity:1; 
stroke-linecap:round; stroke-linejoin:round;">
<circle cx="107.5175" cy="130.0443" r="0.3473" /> 
</g>
<g style="fill:none; 
stroke:#000000; stroke-width:0.2000; stroke-opacity:1; 
stroke-linecap:round; stroke-linejoin:round;">
<text x="109.8649" y="131.0443"
textLength="48.7714" font-size="2.6667" lengthAdjust="spacingAndGlyphs"
text-anchor="start" opacity="0" stroke-opacity="0">0,600mm / 0,0236" (32 holes)</text>
<g class="stroked-text"><desc>0,600mm / 0,0236" (32 holes)</desc>
<path d="M110.8536 128.9592
L111.0441 128.9592
" />
<path d="M111.0441 128.9592
L111.2345 129.0544
" />
<path d="M111.2345 129.0544
L111.3298 129.1496
" />
<path d="M111.3298 129.1496
L111.4250 129.3401
" />
<path d="M111.4250 129.3401
L111.5202 129.7211
" />
<path d="M111.5202 129.7211
L111.5202 130.1973
" />
<path d="M111.5202 130.1973
L111.4250 130.5782
" />
<path d="M111.4250 130.5782
L111.3298 130.7687
" />
<path d="M111.3298 130.7687
L111.2345 130.8639
" />
<path d="M111.2345 130.8639
L111.0441 130.9592
" />
<path d="M111.0441 130.9592
L110.8536 130.9592
" />
<path d="M110.8536 130.9592
L110.6631 130.8639
" />
<path d="M110.6631 130.8639
L110.5679 130.7687
" />
<path d="M110.5679 130.7687
L110.4726 130.5782
" />
<path d="M110.4726 130.5782
L110.3774 130.1973
" />
<path d="M110.3774 130.1973
L110.3774 129.7211
" />
<path d="M110.3774 129.7211
L110.4726 129.3401
" />
<path d="M110.4726 129.3401
L110.5679 129.1496
" />
<path d="M110.5679 129.1496
L110.6631 129.0544
" />
<path d="M110.6631 129.0544
L110.8536 128.9592
" />
<path d="M112.4726 130.8639
L112.4726 130.9592
" />
<path d="M112.4726 130.9592
L112.3774 131.1496
" />
<path d="M112.3774 131.1496
L112.2821 131.2449
" />
<path d="M114.1869 128.9592
L113.8060 128.9592
" />
<path d="M113.8060 128.9592
L113.6155 129.0544
" />
<path d="M113.6155 129.0544
L113.5202 129.1496
" />
<path d="M113.5202 129.1496
L113.3298 129.4353
" />
<path d="M113.3298 129.4353
L113.2345 129.8163
" />
<path d="M113.2345 129.8163
L113.2345 130.5782
" />
<path d="M113.2345 130.5782
L113.3298 130.7687
" />
<path d="M113.3298 130.7687
L113.4250 130.8639
" />
<path d="M113.4250 130.8639
L113.6155 130.9592
" />
<path d="M113.6155 130.9592
L113.9964 130.9592
" />
<path d="M113.9964 130.9592
L114.1869 130.8639
" />
<path d="M114.1869 130.8639
L114.2821 130.7687
" />
<path d="M114.2821 130.7687
L114.3774 130.5782
" />
<path d="M114.3774 130.5782
L114.3774 130.1020
" />
<path d="M114.3774 130.1020
L114.2821 129.9115
" />
<path d="M114.2821 129.9115
L114.1869 129.8163
" />
<path d="M114.1869 129.8163
L113.9964 129.7211
" />
<path d="M113.9964 129.7211
L113.6155 129.7211
" />
<path d="M113.6155 129.7211
L113.4250 129.8163
" />
<path d="M113.4250 129.8163
L113.3298 129.9115
" />
<path d="M113.3298 129.9115
L113.2345 130.1020
" />
<path d="M115.6155 128.9592
L115.8060 128.9592
" />
<path d="M115.8060 128.9592
L115.9964 129.0544
" />
<path d="M115.9964 129.0544
L116.0917 129.1496
" />
<path d="M116.0917 129.1496
L116.1869 129.3401
" />
<path d="M116.1869 129.3401
L116.2821 129.7211
" />
<path d="M116.2821 129.7211
L116.2821 130.1973
" />
<path d="M116.2821 130.1973
L116.1869 130.5782
" />
<path d="M116.1869 130.5782
L116.0917 130.7687
" />
<path d="M116.0917 130.7687
L115.9964 130.8639
" />
<path d="M115.9964 130.8639
L115.8060 130.9592
" />
<path d="M115.8060 130.9592
L115.6155 130.9592
" />
<path d="M115.6155 130.9592
L115.4250 130.8639
" />
<path d="M115.4250 130.8639
L115.3298 130.7687
" />
<path d="M115.3298 130.7687
L115.2345 130.5782
" />
<path d="M115.2345 130.5782
L115.1393 130.1973
" />
<path d="M115.1393 130.1973
L115.1393 129.7211
" />
<path d="M115.1393 129.7211
L115.2345 129.3401
" />
<path d="M115.2345 129.3401
L115.3298 129.1496
" />
<path d="M115.3298 129.1496
L115.4250 129.0544
" />
<path d="M115.4250 129.0544
L115.6155 128.9592
" />
<path d="M117.5202 128.9592
L117.7107 128.9592
" />
<path d="M117.7107 128.9592
L117.9012 129.0544
" />
<path d="M117.9012 129.0544
L117.9964 129.1496
" />
<path d="M117.9964 129.1496
L118.0917 129.3401
" />
<path d="M118.0917 129.3401
L118.1869 129.7211
" />
<path d="M118.1869 129.7211
L118.1869 130.1973
" />
<path d="M118.1869 130.1973
L118.0917 130.5782
" />
<path d="M118.0917 130.5782
L117.9964 130.7687
" />
<path d="M117.9964 130.7687
L117.9012 130.8639
" />
<path d="M117.9012 130.8639
L117.7107 130.9592
" />
<path d="M117.7107 130.9592
L117.5202 130.9592
" />
<path d="M117.5202 130.9592
L117.3298 130.8639
" />
<path d="M117.3298 130.8639
L117.2345 130.7687
" />
<path d="M117.2345 130.7687
L117.1393 130.5782
" />
<path d="M117.1393 130.5782
L117.0441 130.1973
" />
<path d="M117.0441 130.1973
L117.0441 129.7211
" />
<path d="M117.0441 129.7211
L117.1393 129.3401
" />
<path d="M117.1393 129.3401
L117.2345 129.1496
" />
<path d="M117.2345 129.1496
L117.3298 129.0544
" />
<path d="M117.3298 129.0544
L117.5202 128.9592
" />
<path d="M119.0441 130.9592
L119.0441 129.6258
" />
<path d="M119.0441 129.8163
L119.1393 129.7211
" />
<path d="M119.1393 129.7211
L119.3298 129.6258
" />
<path d="M119.3298 129.6258
L119.6155 129.6258
" />
<path d="M119.6155 129.6258
L119.8060 129.7211
" />
<path d="M119.8060 129.7211
L119.9012 129.9115
" />
<path d="M119.9012 129.9115
L119.9012 130.9592
" />
<path d="M119.9012 129.9115
L119.9964 129.7211
" />
<path d="M119.9964 129.7211
L120.1869 129.6258
" />
<path d="M120.1869 129.6258
L120.4726 129.6258
" />
<path d="M120.4726 129.6258
L120.6631 129.7211
" />
<path d="M120.6631 129.7211
L120.7583 129.9115
" />
<path d="M120.7583 129.9115
L120.7583 130.9592
" />
<path d="M121.7107 130.9592
L121.7107 129.6258
" />
<path d="M121.7107 129.8163
L121.8060 129.7211
" />
<path d="M121.8060 129.7211
L121.9964 129.6258
" />
<path d="M121.9964 129.6258
L122.2821 129.6258
" />
<path d="M122.2821 129.6258
L122.4726 129.7211
" />
<path d="M122.4726 129.7211
L122.5679 129.9115
" />
<path d="M122.5679 129.9115
L122.5679 130.9592
" />
<path d="M122.5679 129.9115
L122.6631 129.7211
" />
<path d="M122.6631 129.7211
L122.8536 129.6258
" />
<path d="M122.8536 129.6258
L123.1393 129.6258
" />
<path d="M123.1393 129.6258
L123.3298 129.7211
" />
<path d="M123.3298 129.7211
L123.4250 129.9115
" />
<path d="M123.4250 129.9115
L123.4250 130.9592
" />
<path d="M127.3298 128.8639
L125.6155 131.4353
" />
<path d="M129.9012 128.9592
L130.0917 128.9592
" />
<path d="M130.0917 128.9592
L130.2822 129.0544
" />
<path d="M130.2822 129.0544
L130.3774 129.1496
" />
<path d="M130.3774 129.1496
L130.4726 129.3401
" />
<path d="M130.4726 129.3401
L130.5679 129.7211
" />
<path d="M130.5679 129.7211
L130.5679 130.1973
" />
<path d="M130.5679 130.1973
L130.4726 130.5782
" />
<path d="M130.4726 130.5782
L130.3774 130.7687
" />
<path d="M130.3774 130.7687
L130.2822 130.8639
" />
<path d="M130.2822 130.8639
L130.0917 130.9592
" />
<path d="M130.0917 130.9592
L129.9012 130.9592
" />
<path d="M129.9012 130.9592
L129.7107 130.8639
" />
<path d="M129.7107 130.8639
L129.6155 130.7687
" />
<path d="M129.6155 130.7687
L129.5202 130.5782
" />
<path d="M129.5202 130.5782
L129.4250 130.1973
" />
<path d="M129.4250 130.1973
L129.4250 129.7211
" />
<path d="M129.4250 129.7211
L129.5202 129.3401
" />
<path d="M129.5202 129.3401
L129.6155 129.1496
" />
<path d="M129.6155 129.1496
L129.7107 129.0544
" />
<path d="M129.7107 129.0544
L129.9012 128.9592
" />
<path d="M131.5202 130.8639
L131.5202 130.9592
" />
<path d="M131.5202 130.9592
L131.4250 131.1496
" />
<path d="M131.4250 131.1496
L131.3298 131.2449
" />
<path d="M132.7583 128.9592
L132.9488 128.9592
" />
<path d="M132.9488 128.9592
L133.1393 129.0544
" />
<path d="M133.1393 129.0544
L133.2345 129.1496
" />
<path d="M133.2345 129.1496
L133.3298 129.3401
" />
<path d="M133.3298 129.3401
L133.4250 129.7211
" />
<path d="M133.4250 129.7211
L133.4250 130.1973
" />
<path d="M133.4250 130.1973
L133.3298 130.5782
" />
<path d="M133.3298 130.5782
L133.2345 130.7687
" />
<path d="M133.2345 130.7687
L133.1393 130.8639
" />
<path d="M133.1393 130.8639
L132.9488 130.9592
" />
<path d="M132.9488 130.9592
L132.7583 130.9592
" />
<path d="M132.7583 130.9592
L132.5679 130.8639
" />
<path d="M132.5679 130.8639
L132.4726 130.7687
" />
<path d="M132.4726 130.7687
L132.3774 130.5782
" />
<path d="M132.3774 130.5782
L132.2822 130.1973
" />
<path d="M132.2822 130.1973
L132.2822 129.7211
" />
<path d="M132.2822 129.7211
L132.3774 129.3401
" />
<path d="M132.3774 129.3401
L132.4726 129.1496
" />
<path d="M132.4726 129.1496
L132.5679 129.0544
" />
<path d="M132.5679 129.0544
L132.7583 128.9592
" />
<path d="M134.1869 129.1496
L134.2822 129.0544
" />
<path d="M134.2822 129.0544
L134.4726 128.9592
" />
<path d="M134.4726 128.9592
L134.9488 128.9592
" />
<path d="M134.9488 128.9592
L135.1393 129.0544
" />
<path d="M135.1393 129.0544
L135.2345 129.1496
" />
<path d="M135.2345 129.1496
L135.3298 129.3401
" />
<path d="M135.3298 129.3401
L135.3298 129.5306
" />
<path d="M135.3298 129.5306
L135.2345 129.8163
" />
<path d="M135.2345 129.8163
L134.0917 130.9592
" />
<path d="M134.0917 130.9592
L135.3298 130.9592
" />
<path d="M135.9964 128.9592
L137.2345 128.9592
" />
<path d="M137.2345 128.9592
L136.5679 129.7211
" />
<path d="M136.5679 129.7211
L136.8536 129.7211
" />
<path d="M136.8536 129.7211
L137.0441 129.8163
" />
<path d="M137.0441 129.8163
L137.1393 129.9115
" />
<path d="M137.1393 129.9115
L137.2345 130.1020
" />
<path d="M137.2345 130.1020
L137.2345 130.5782
" />
<path d="M137.2345 130.5782
L137.1393 130.7687
" />
<path d="M137.1393 130.7687
L137.0441 130.8639
" />
<path d="M137.0441 130.8639
L136.8536 130.9592
" />
<path d="M136.8536 130.9592
L136.2822 130.9592
" />
<path d="M136.2822 130.9592
L136.0917 130.8639
" />
<path d="M136.0917 130.8639
L135.9964 130.7687
" />
<path d="M138.9488 128.9592
L138.5679 128.9592
" />
<path d="M138.5679 128.9592
L138.3774 129.0544
" />
<path d="M138.3774 129.0544
L138.2822 129.1496
" />
<path d="M138.2822 129.1496
L138.0917 129.4353
" />
<path d="M138.0917 129.4353
L137.9964 129.8163
" />
<path d="M137.9964 129.8163
L137.9964 130.5782
" />
<path d="M137.9964 130.5782
L138.0917 130.7687
" />
<path d="M138.0917 130.7687
L138.1869 130.8639
" />
<path d="M138.1869 130.8639
L138.3774 130.9592
" />
<path d="M138.3774 130.9592
L138.7583 130.9592
" />
<path d="M138.7583 130.9592
L138.9488 130.8639
" />
<path d="M138.9488 130.8639
L139.0441 130.7687
" />
<path d="M139.0441 130.7687
L139.1393 130.5782
" />
<path d="M139.1393 130.5782
L139.1393 130.1020
" />
<path d="M139.1393 130.1020
L139.0441 129.9115
" />
<path d="M139.0441 129.9115
L138.9488 129.8163
" />
<path d="M138.9488 129.8163
L138.7583 129.7211
" />
<path d="M138.7583 129.7211
L138.3774 129.7211
" />
<path d="M138.3774 129.7211
L138.1869 129.8163
" />
<path d="M138.1869 129.8163
L138.0917 129.9115
" />
<path d="M138.0917 129.9115
L137.9964 130.1020
" />
<path d="M139.9012 128.9592
L139.9012 129.3401
" />
<path d="M140.6631 128.9592
L140.6631 129.3401
" />
<path d="M143.6155 131.7211
L143.5202 131.6258
" />
<path d="M143.5202 131.6258
L143.3298 131.3401
" />
<path d="M143.3298 131.3401
L143.2345 131.1496
" />
<path d="M143.2345 131.1496
L143.1393 130.8639
" />
<path d="M143.1393 130.8639
L143.0441 130.3877
" />
<path d="M143.0441 130.3877
L143.0441 130.0068
" />
<path d="M143.0441 130.0068
L143.1393 129.5306
" />
<path d="M143.1393 129.5306
L143.2345 129.2449
" />
<path d="M143.2345 129.2449
L143.3298 129.0544
" />
<path d="M143.3298 129.0544
L143.5202 128.7687
" />
<path d="M143.5202 128.7687
L143.6155 128.6734
" />
<path d="M144.1869 128.9592
L145.4250 128.9592
" />
<path d="M145.4250 128.9592
L144.7583 129.7211
" />
<path d="M144.7583 129.7211
L145.0441 129.7211
" />
<path d="M145.0441 129.7211
L145.2345 129.8163
" />
<path d="M145.2345 129.8163
L145.3298 129.9115
" />
<path d="M145.3298 129.9115
L145.4250 130.1020
" />
<path d="M145.4250 130.1020
L145.4250 130.5782
" />
<path d="M145.4250 130.5782
L145.3298 130.7687
" />
<path d="M145.3298 130.7687
L145.2345 130.8639
" />
<path d="M145.2345 130.8639
L145.0441 130.9592
" />
<path d="M145.0441 130.9592
L144.4726 130.9592
" />
<path d="M144.4726 130.9592
L144.2822 130.8639
" />
<path d="M144.2822 130.8639
L144.1869 130.7687
" />
<path d="M146.1869 129.1496
L146.2822 129.0544
" />
<path d="M146.2822 129.0544
L146.4726 128.9592
" />
<path d="M146.4726 128.9592
L146.9488 128.9592
" />
<path d="M146.9488 128.9592
L147.1393 129.0544
" />
<path d="M147.1393 129.0544
L147.2345 129.1496
" />
<path d="M147.2345 129.1496
L147.3298 129.3401
" />
<path d="M147.3298 129.3401
L147.3298 129.5306
" />
<path d="M147.3298 129.5306
L147.2345 129.8163
" />
<path d="M147.2345 129.8163
L146.0917 130.9592
" />
<path d="M146.0917 130.9592
L147.3298 130.9592
" />
<path d="M149.7107 130.9592
L149.7107 128.9592
" />
<path d="M150.5679 130.9592
L150.5679 129.9115
" />
<path d="M150.5679 129.9115
L150.4726 129.7211
" />
<path d="M150.4726 129.7211
L150.2822 129.6258
" />
<path d="M150.2822 129.6258
L149.9964 129.6258
" />
<path d="M149.9964 129.6258
L149.8060 129.7211
" />
<path d="M149.8060 129.7211
L149.7107 129.8163
" />
<path d="M151.8060 130.9592
L151.6155 130.8639
" />
<path d="M151.6155 130.8639
L151.5202 130.7687
" />
<path d="M151.5202 130.7687
L151.4250 130.5782
" />
<path d="M151.4250 130.5782
L151.4250 130.0068
" />
<path d="M151.4250 130.0068
L151.5202 129.8163
" />
<path d="M151.5202 129.8163
L151.6155 129.7211
" />
<path d="M151.6155 129.7211
L151.8060 129.6258
" />
<path d="M151.8060 129.6258
L152.0917 129.6258
" />
<path d="M152.0917 129.6258
L152.2822 129.7211
" />
<path d="M152.2822 129.7211
L152.3774 129.8163
" />
<path d="M152.3774 129.8163
L152.4726 130.0068
" />
<path d="M152.4726 130.0068
L152.4726 130.5782
" />
<path d="M152.4726 130.5782
L152.3774 130.7687
" />
<path d="M152.3774 130.7687
L152.2822 130.8639
" />
<path d="M152.2822 130.8639
L152.0917 130.9592
" />
<path d="M152.0917 130.9592
L151.8060 130.9592
" />
<path d="M153.6155 130.9592
L153.4250 130.8639
" />
<path d="M153.4250 130.8639
L153.3298 130.6734
" />
<path d="M153.3298 130.6734
L153.3298 128.9592
" />
<path d="M155.1393 130.8639
L154.9488 130.9592
" />
<path d="M154.9488 130.9592
L154.5679 130.9592
" />
<path d="M154.5679 130.9592
L154.3774 130.8639
" />
<path d="M154.3774 130.8639
L154.2821 130.6734
" />
<path d="M154.2821 130.6734
L154.2821 129.9115
" />
<path d="M154.2821 129.9115
L154.3774 129.7211
" />
<path d="M154.3774 129.7211
L154.5679 129.6258
" />
<path d="M154.5679 129.6258
L154.9488 129.6258
" />
<path d="M154.9488 129.6258
L155.1393 129.7211
" />
<path d="M155.1393 129.7211
L155.2345 129.9115
" />
<path d="M155.2345 129.9115
L155.2345 130.1020
" />
<path d="M155.2345 130.1020
L154.2821 130.2925
" />
<path d="M155.9964 130.8639
L156.1869 130.9592
" />
<path d="M156.1869 130.9592
L156.5679 130.9592
" />
<path d="M156.5679 130.9592
L156.7583 130.8639
" />
<path d="M156.7583 130.8639
L156.8536 130.6734
" />
<path d="M156.8536 130.6734
L156.8536 130.5782
" />
<path d="M156.8536 130.5782
L156.7583 130.3877
" />
<path d="M156.7583 130.3877
L156.5679 130.2925
" />
<path d="M156.5679 130.2925
L156.2821 130.2925
" />
<path d="M156.2821 130.2925
L156.0917 130.1973
" />
<path d="M156.0917 130.1973
L155.9964 130.0068
" />
<path d="M155.9964 130.0068
L155.9964 129.9115
" />
<path d="M155.9964 129.9115
L156.0917 129.7211
" />
<path d="M156.0917 129.7211
L156.2821 129.6258
" />
<path d="M156.2821 129.6258
L156.5679 129.6258
" />
<path d="M156.5679 129.6258
L156.7583 129.7211
" />
<path d="M157.5202 131.7211
L157.6155 131.6258
" />
<path d="M157.6155 131.6258
L157.8060 131.3401
" />
<path d="M157.8060 131.3401
L157.9012 131.1496
" />
<path d="M157.9012 131.1496
L157.9964 130.8639
" />
<path d="M157.9964 130.8639
L158.0917 130.3877
" />
<path d="M158.0917 130.3877
L158.0917 130.0068
" />
<path d="M158.0917 130.0068
L157.9964 129.5306
" />
<path d="M157.9964 129.5306
L157.9012 129.2449
" />
<path d="M157.9012 129.2449
L157.8060 129.0544
" />
<path d="M157.8060 129.0544
L157.6155 128.7687
" />
<path d="M157.6155 128.7687
L157.5202 128.6734
" />
</g></g>
<g style="fill:none; 
stroke:#000000; stroke-width:0.1621; stroke-opacity:1; 
stroke-linecap:round; stroke-linejoin:round;">
<path d="M107.0544 131.8739
L107.0544 133.4947
" />
<path d="M106.2440 132.6843
L107.8649 132.6843
" />
</g>
<g style="fill:none; 
stroke:#000000; stroke-width:0.2000; stroke-opacity:1; 
stroke-linecap:round; stroke-linejoin:round;">
<text x="109.8649" y="133.6843"
textLength="48.7714" font-size="2.6667" lengthAdjust="spacingAndGlyphs"
text-anchor="start" opacity="0" stroke-opacity="0">1,400mm / 0,0551" (35 holes)</text>
<g class="stroked-text"><desc>1,400mm / 0,0551" (35 holes)</desc>
<path d="M111.5202 133.5992
L110.3774 133.5992
" />
<path d="M110.9488 133.5992
L110.9488 131.5992
" />
<path d="M110.9488 131.5992
L110.7583 131.8849
" />
<path d="M110.7583 131.8849
L110.5679 132.0753
" />
<path d="M110.5679 132.0753
L110.3774 132.1706
" />
<path d="M112.4726 133.5039
L112.4726 133.5992
" />
<path d="M112.4726 133.5992
L112.3774 133.7896
" />
<path d="M112.3774 133.7896
L112.2821 133.8849
" />
<path d="M114.1869 132.2658
L114.1869 133.5992
" />
<path d="M113.7107 131.5039
L113.2345 132.9325
" />
<path d="M113.2345 132.9325
L114.4726 132.9325
" />
<path d="M115.6155 131.5992
L115.8060 131.5992
" />
<path d="M115.8060 131.5992
L115.9964 131.6944
" />
<path d="M115.9964 131.6944
L116.0917 131.7896
" />
<path d="M116.0917 131.7896
L116.1869 131.9801
" />
<path d="M116.1869 131.9801
L116.2821 132.3611
" />
<path d="M116.2821 132.3611
L116.2821 132.8373
" />
<path d="M116.2821 132.8373
L116.1869 133.2182
" />
<path d="M116.1869 133.2182
L116.0917 133.4087
" />
<path d="M116.0917 133.4087
L115.9964 133.5039
" />
<path d="M115.9964 133.5039
L115.8060 133.5992
" />
<path d="M115.8060 133.5992
L115.6155 133.5992
" />
<path d="M115.6155 133.5992
L115.4250 133.5039
" />
<path d="M115.4250 133.5039
L115.3298 133.4087
" />
<path d="M115.3298 133.4087
L115.2345 133.2182
" />
<path d="M115.2345 133.2182
L115.1393 132.8373
" />
<path d="M115.1393 132.8373
L115.1393 132.3611
" />
<path d="M115.1393 132.3611
L115.2345 131.9801
" />
<path d="M115.2345 131.9801
L115.3298 131.7896
" />
<path d="M115.3298 131.7896
L115.4250 131.6944
" />
<path d="M115.4250 131.6944
L115.6155 131.5992
" />
<path d="M117.5202 131.5992
L117.7107 131.5992
" />
<path d="M117.7107 131.5992
L117.9012 131.6944
" />
<path d="M117.9012 131.6944
L117.9964 131.7896
" />
<path d="M117.9964 131.7896
L118.0917 131.9801
" />
<path d="M118.0917 131.9801
L118.1869 132.3611
" />
<path d="M118.1869 132.3611
L118.1869 132.8373
" />
<path d="M118.1869 132.8373
L118.0917 133.2182
" />
<path d="M118.0917 133.2182
L117.9964 133.4087
" />
<path d="M117.9964 133.4087
L117.9012 133.5039
" />
<path d="M117.9012 133.5039
L117.7107 133.5992
" />
<path d="M117.7107 133.5992
L117.5202 133.5992
" />
<path d="M117.5202 133.5992
L117.3298 133.5039
" />
<path d="M117.3298 133.5039
L117.2345 133.4087
" />
<path d="M117.2345 133.4087
L117.1393 133.2182
" />
<path d="M117.1393 133.2182
L117.0441 132.8373
" />
<path d="M117.0441 132.8373
L117.0441 132.3611
" />
<path d="M117.0441 132.3611
L117.1393 131.9801
" />
<path d="M117.1393 131.9801
L117.2345 131.7896
" />
<path d="M117.2345 131.7896
L117.3298 131.6944
" />
<path d="M117.3298 131.6944
L117.5202 131.5992
" />
<path d="M119.0441 133.5992
L119.0441 132.2658
" />
<path d="M119.0441 132.4563
L119.1393 132.3611
" />
<path d="M119.1393 132.3611
L119.3298 132.2658
" />
<path d="M119.3298 132.2658
L119.6155 132.2658
" />
<path d="M119.6155 132.2658
L119.8060 132.3611
" />
<path d="M119.8060 132.3611
L119.9012 132.5515
" />
<path d="M119.9012 132.5515
L119.9012 133.5992
" />
<path d="M119.9012 132.5515
L119.9964 132.3611
" />
<path d="M119.9964 132.3611
L120.1869 132.2658
" />
<path d="M120.1869 132.2658
L120.4726 132.2658
" />
<path d="M120.4726 132.2658
L120.6631 132.3611
" />
<path d="M120.6631 132.3611
L120.7583 132.5515
" />
<path d="M120.7583 132.5515
L120.7583 133.5992
" />
<path d="M121.7107 133.5992
L121.7107 132.2658
" />
<path d="M121.7107 132.4563
L121.8060 132.3611
" />
<path d="M121.8060 132.3611
L121.9964 132.2658
" />
<path d="M121.9964 132.2658
L122.2821 132.2658
" />
<path d="M122.2821 132.2658
L122.4726 132.3611
" />
<path d="M122.4726 132.3611
L122.5679 132.5515
" />
<path d="M122.5679 132.5515
L122.5679 133.5992
" />
<path d="M122.5679 132.5515
L122.6631 132.3611
" />
<path d="M122.6631 132.3611
L122.8536 132.2658
" />
<path d="M122.8536 132.2658
L123.1393 132.2658
" />
<path d="M123.1393 132.2658
L123.3298 132.3611
" />
<path d="M123.3298 132.3611
L123.4250 132.5515
" />
<path d="M123.4250 132.5515
L123.4250 133.5992
" />
<path d="M127.3298 131.5039
L125.6155 134.0753
" />
<path d="M129.9012 131.5992
L130.0917 131.5992
" />
<path d="M130.0917 131.5992
L130.2822 131.6944
" />
<path d="M130.2822 131.6944
L130.3774 131.7896
" />
<path d="M130.3774 131.7896
L130.4726 131.9801
" />
<path d="M130.4726 131.9801
L130.5679 132.3611
" />
<path d="M130.5679 132.3611
L130.5679 132.8373
" />
<path d="M130.5679 132.8373
L130.4726 133.2182
" />
<path d="M130.4726 133.2182
L130.3774 133.4087
" />
<path d="M130.3774 133.4087
L130.2822 133.5039
" />
<path d="M130.2822 133.5039
L130.0917 133.5992
" />
<path d="M130.0917 133.5992
L129.9012 133.5992
" />
<path d="M129.9012 133.5992
L129.7107 133.5039
" />
<path d="M129.7107 133.5039
L129.6155 133.4087
" />
<path d="M129.6155 133.4087
L129.5202 133.2182
" />
<path d="M129.5202 133.2182
L129.4250 132.8373
" />
<path d="M129.4250 132.8373
L129.4250 132.3611
" />
<path d="M129.4250 132.3611
L129.5202 131.9801
" />
<path d="M129.5202 131.9801
L129.6155 131.7896
" />
<path d="M129.6155 131.7896
L129.7107 131.6944
" />
<path d="M129.7107 131.6944
L129.9012 131.5992
" />
<path d="M131.5202 133.5039
L131.5202 133.5992
" />
<path d="M131.5202 133.5992
L131.4250 133.7896
" />
<path d="M131.4250 133.7896
L131.3298 133.8849
" />
<path d="M132.7583 131.5992
L132.9488 131.5992
" />
<path d="M132.9488 131.5992
L133.1393 131.6944
" />
<path d="M133.1393 131.6944
L133.2345 131.7896
" />
<path d="M133.2345 131.7896
L133.3298 131.9801
" />
<path d="M133.3298 131.9801
L133.4250 132.3611
" />
<path d="M133.4250 132.3611
L133.4250 132.8373
" />
<path d="M133.4250 132.8373
L133.3298 133.2182
" />
<path d="M133.3298 133.2182
L133.2345 133.4087
" />
<path d="M133.2345 133.4087
L133.1393 133.5039
" />
<path d="M133.1393 133.5039
L132.9488 133.5992
" />
<path d="M132.9488 133.5992
L132.7583 133.5992
" />
<path d="M132.7583 133.5992
L132.5679 133.5039
" />
<path d="M132.5679 133.5039
L132.4726 133.4087
" />
<path d="M132.4726 133.4087
L132.3774 133.2182
" />
<path d="M132.3774 133.2182
L132.2822 132.8373
" />
<path d="M132.2822 132.8373
L132.2822 132.3611
" />
<path d="M132.2822 132.3611
L132.3774 131.9801
" />
<path d="M132.3774 131.9801
L132.4726 131.7896
" />
<path d="M132.4726 131.7896
L132.5679 131.6944
" />
<path d="M132.5679 131.6944
L132.7583 131.5992
" />
<path d="M135.2345 131.5992
L134.2822 131.5992
" />
<path d="M134.2822 131.5992
L134.1869 132.5515
" />
<path d="M134.1869 132.5515
L134.2822 132.4563
" />
<path d="M134.2822 132.4563
L134.4726 132.3611
" />
<path d="M134.4726 132.3611
L134.9488 132.3611
" />
<path d="M134.9488 132.3611
L135.1393 132.4563
" />
<path d="M135.1393 132.4563
L135.2345 132.5515
" />
<path d="M135.2345 132.5515
L135.3298 132.7420
" />
<path d="M135.3298 132.7420
L135.3298 133.2182
" />
<path d="M135.3298 133.2182
L135.2345 133.4087
" />
<path d="M135.2345 133.4087
L135.1393 133.5039
" />
<path d="M135.1393 133.5039
L134.9488 133.5992
" />
<path d="M134.9488 133.5992
L134.4726 133.5992
" />
<path d="M134.4726 133.5992
L134.2822 133.5039
" />
<path d="M134.2822 133.5039
L134.1869 133.4087
" />
<path d="M137.1393 131.5992
L136.1869 131.5992
" />
<path d="M136.1869 131.5992
L136.0917 132.5515
" />
<path d="M136.0917 132.5515
L136.1869 132.4563
" />
<path d="M136.1869 132.4563
L136.3774 132.3611
" />
<path d="M136.3774 132.3611
L136.8536 132.3611
" />
<path d="M136.8536 132.3611
L137.0441 132.4563
" />
<path d="M137.0441 132.4563
L137.1393 132.5515
" />
<path d="M137.1393 132.5515
L137.2345 132.7420
" />
<path d="M137.2345 132.7420
L137.2345 133.2182
" />
<path d="M137.2345 133.2182
L137.1393 133.4087
" />
<path d="M137.1393 133.4087
L137.0441 133.5039
" />
<path d="M137.0441 133.5039
L136.8536 133.5992
" />
<path d="M136.8536 133.5992
L136.3774 133.5992
" />
<path d="M136.3774 133.5992
L136.1869 133.5039
" />
<path d="M136.1869 133.5039
L136.0917 133.4087
" />
<path d="M139.1393 133.5992
L137.9964 133.5992
" />
<path d="M138.5679 133.5992
L138.5679 131.5992
" />
<path d="M138.5679 131.5992
L138.3774 131.8849
" />
<path d="M138.3774 131.8849
L138.1869 132.0753
" />
<path d="M138.1869 132.0753
L137.9964 132.1706
" />
<path d="M139.9012 131.5992
L139.9012 131.9801
" />
<path d="M140.6631 131.5992
L140.6631 131.9801
" />
<path d="M143.6155 134.3611
L143.5202 134.2658
" />
<path d="M143.5202 134.2658
L143.3298 133.9801
" />
<path d="M143.3298 133.9801
L143.2345 133.7896
" />
<path d="M143.2345 133.7896
L143.1393 133.5039
" />
<path d="M143.1393 133.5039
L143.0441 133.0277
" />
<path d="M143.0441 133.0277
L143.0441 132.6468
" />
<path d="M143.0441 132.6468
L143.1393 132.1706
" />
<path d="M143.1393 132.1706
L143.2345 131.8849
" />
<path d="M143.2345 131.8849
L143.3298 131.6944
" />
<path d="M143.3298 131.6944
L143.5202 131.4087
" />
<path d="M143.5202 131.4087
L143.6155 131.3134
" />
<path d="M144.1869 131.5992
L145.4250 131.5992
" />
<path d="M145.4250 131.5992
L144.7583 132.3611
" />
<path d="M144.7583 132.3611
L145.0441 132.3611
" />
<path d="M145.0441 132.3611
L145.2345 132.4563
" />
<path d="M145.2345 132.4563
L145.3298 132.5515
" />
<path d="M145.3298 132.5515
L145.4250 132.7420
" />
<path d="M145.4250 132.7420
L145.4250 133.2182
" />
<path d="M145.4250 133.2182
L145.3298 133.4087
" />
<path d="M145.3298 133.4087
L145.2345 133.5039
" />
<path d="M145.2345 133.5039
L145.0441 133.5992
" />
<path d="M145.0441 133.5992
L144.4726 133.5992
" />
<path d="M144.4726 133.5992
L144.2822 133.5039
" />
<path d="M144.2822 133.5039
L144.1869 133.4087
" />
<path d="M147.2345 131.5992
L146.2822 131.5992
" />
<path d="M146.2822 131.5992
L146.1869 132.5515
" />
<path d="M146.1869 132.5515
L146.2822 132.4563
" />
<path d="M146.2822 132.4563
L146.4726 132.3611
" />
<path d="M146.4726 132.3611
L146.9488 132.3611
" />
<path d="M146.9488 132.3611
L147.1393 132.4563
" />
<path d="M147.1393 132.4563
L147.2345 132.5515
" />
<path d="M147.2345 132.5515
L147.3298 132.7420
" />
<path d="M147.3298 132.7420
L147.3298 133.2182
" />
<path d="M147.3298 133.2182
L147.2345 133.4087
" />
<path d="M147.2345 133.4087
L147.1393 133.5039
" />
<path d="M147.1393 133.5039
L146.9488 133.5992
" />
<path d="M146.9488 133.5992
L146.4726 133.5992
" />
<path d="M146.4726 133.5992
L146.2822 133.5039
" />
<path d="M146.2822 133.5039
L146.1869 133.4087
" />
<path d="M149.7107 133.5992
L149.7107 131.5992
" />
<path d="M150.5679 133.5992
L150.5679 132.5515
" />
<path d="M150.5679 132.5515
L150.4726 132.3611
" />
<path d="M150.4726 132.3611
L150.2822 132.2658
" />
<path d="M150.2822 132.2658
L149.9964 132.2658
" />
<path d="M149.9964 132.2658
L149.8060 132.3611
" />
<path d="M149.8060 132.3611
L149.7107 132.4563
" />
<path d="M151.8060 133.5992
L151.6155 133.5039
" />
<path d="M151.6155 133.5039
L151.5202 133.4087
" />
<path d="M151.5202 133.4087
L151.4250 133.2182
" />
<path d="M151.4250 133.2182
L151.4250 132.6468
" />
<path d="M151.4250 132.6468
L151.5202 132.4563
" />
<path d="M151.5202 132.4563
L151.6155 132.3611
" />
<path d="M151.6155 132.3611
L151.8060 132.2658
" />
<path d="M151.8060 132.2658
L152.0917 132.2658
" />
<path d="M152.0917 132.2658
L152.2822 132.3611
" />
<path d="M152.2822 132.3611
L152.3774 132.4563
" />
<path d="M152.3774 132.4563
L152.4726 132.6468
" />
<path d="M152.4726 132.6468
L152.4726 133.2182
" />
<path d="M152.4726 133.2182
L152.3774 133.4087
" />
<path d="M152.3774 133.4087
L152.2822 133.5039
" />
<path d="M152.2822 133.5039
L152.0917 133.5992
" />
<path d="M152.0917 133.5992
L151.8060 133.5992
" />
<path d="M153.6155 133.5992
L153.4250 133.5039
" />
<path d="M153.4250 133.5039
L153.3298 133.3134
" />
<path d="M153.3298 133.3134
L153.3298 131.5992
" />
<path d="M155.1393 133.5039
L154.9488 133.5992
" />
<path d="M154.9488 133.5992
L154.5679 133.5992
" />
<path d="M154.5679 133.5992
L154.3774 133.5039
" />
<path d="M154.3774 133.5039
L154.2821 133.3134
" />
<path d="M154.2821 133.3134
L154.2821 132.5515
" />
<path d="M154.2821 132.5515
L154.3774 132.3611
" />
<path d="M154.3774 132.3611
L154.5679 132.2658
" />
<path d="M154.5679 132.2658
L154.9488 132.2658
" />
<path d="M154.9488 132.2658
L155.1393 132.3611
" />
<path d="M155.1393 132.3611
L155.2345 132.5515
" />
<path d="M155.2345 132.5515
L155.2345 132.7420
" />
<path d="M155.2345 132.7420
L154.2821 132.9325
" />
<path d="M155.9964 133.5039
L156.1869 133.5992
" />
<path d="M156.1869 133.5992
L156.5679 133.5992
" />
<path d="M156.5679 133.5992
L156.7583 133.5039
" />
<path d="M156.7583 133.5039
L156.8536 133.3134
" />
<path d="M156.8536 133.3134
L156.8536 133.2182
" />
<path d="M156.8536 133.2182
L156.7583 133.0277
" />
<path d="M156.7583 133.0277
L156.5679 132.9325
" />
<path d="M156.5679 132.9325
L156.2821 132.9325
" />
<path d="M156.2821 132.9325
L156.0917 132.8373
" />
<path d="M156.0917 132.8373
L155.9964 132.6468
" />
<path d="M155.9964 132.6468
L155.9964 132.5515
" />
<path d="M155.9964 132.5515
L156.0917 132.3611
" />
<path d="M156.0917 132.3611
L156.2821 132.2658
" />
<path d="M156.2821 132.2658
L156.5679 132.2658
" />
<path d="M156.5679 132.2658
L156.7583 132.3611
" />
<path d="M157.5202 134.3611
L157.6155 134.2658
" />
<path d="M157.6155 134.2658
L157.8060 133.9801
" />
<path d="M157.8060 133.9801
L157.9012 133.7896
" />
<path d="M157.9012 133.7896
L157.9964 133.5039
" />
<path d="M157.9964 133.5039
L158.0917 133.0277
" />
<path d="M158.0917 133.0277
L158.0917 132.6468
" />
<path d="M158.0917 132.6468
L157.9964 132.1706
" />
<path d="M157.9964 132.1706
L157.9012 131.8849
" />
<path d="M157.9012 131.8849
L157.8060 131.6944
" />
<path d="M157.8060 131.6944
L157.6155 131.4087
" />
<path d="M157.6155 131.4087
L157.5202 131.3134
" />
</g><path style="fill:none; 
stroke:#000000; stroke-width:0.2000; stroke-opacity:1; 
stroke-linecap:round; stroke-linejoin:round;fill:none"
d="M 107.5720,136.2123
107.5720,134.7980
106.1577,134.7980
106.1577,136.2123
Z" /> 
</g>
<g style="fill:none; 
stroke:#000000; stroke-width:0.2000; stroke-opacity:1; 
stroke-linecap:round; stroke-linejoin:round;">
<text x="109.8649" y="136.5051"
textLength="46.8667" font-size="2.6667" lengthAdjust="spacingAndGlyphs"
text-anchor="start" opacity="0" stroke-opacity="0">2,200mm / 0,0866" (4 holes)</text>
<g class="stroked-text"><desc>2,200mm / 0,0866" (4 holes)</desc>
<path d="M110.3774 134.6105
L110.4726 134.5152
" />
<path d="M110.4726 134.5152
L110.6631 134.4200
" />
<path d="M110.6631 134.4200
L111.1393 134.4200
" />
<path d="M111.1393 134.4200
L111.3298 134.5152
" />
<path d="M111.3298 134.5152
L111.4250 134.6105
" />
<path d="M111.4250 134.6105
L111.5202 134.8009
" />
<path d="M111.5202 134.8009
L111.5202 134.9914
" />
<path d="M111.5202 134.9914
L111.4250 135.2771
" />
<path d="M111.4250 135.2771
L110.2821 136.4200
" />
<path d="M110.2821 136.4200
L111.5202 136.4200
" />
<path d="M112.4726 136.3247
L112.4726 136.4200
" />
<path d="M112.4726 136.4200
L112.3774 136.6105
" />
<path d="M112.3774 136.6105
L112.2821 136.7057
" />
<path d="M113.2345 134.6105
L113.3298 134.5152
" />
<path d="M113.3298 134.5152
L113.5202 134.4200
" />
<path d="M113.5202 134.4200
L113.9964 134.4200
" />
<path d="M113.9964 134.4200
L114.1869 134.5152
" />
<path d="M114.1869 134.5152
L114.2821 134.6105
" />
<path d="M114.2821 134.6105
L114.3774 134.8009
" />
<path d="M114.3774 134.8009
L114.3774 134.9914
" />
<path d="M114.3774 134.9914
L114.2821 135.2771
" />
<path d="M114.2821 135.2771
L113.1393 136.4200
" />
<path d="M113.1393 136.4200
L114.3774 136.4200
" />
<path d="M115.6155 134.4200
L115.8060 134.4200
" />
<path d="M115.8060 134.4200
L115.9964 134.5152
" />
<path d="M115.9964 134.5152
L116.0917 134.6105
" />
<path d="M116.0917 134.6105
L116.1869 134.8009
" />
<path d="M116.1869 134.8009
L116.2821 135.1819
" />
<path d="M116.2821 135.1819
L116.2821 135.6581
" />
<path d="M116.2821 135.6581
L116.1869 136.0390
" />
<path d="M116.1869 136.0390
L116.0917 136.2295
" />
<path d="M116.0917 136.2295
L115.9964 136.3247
" />
<path d="M115.9964 136.3247
L115.8060 136.4200
" />
<path d="M115.8060 136.4200
L115.6155 136.4200
" />
<path d="M115.6155 136.4200
L115.4250 136.3247
" />
<path d="M115.4250 136.3247
L115.3298 136.2295
" />
<path d="M115.3298 136.2295
L115.2345 136.0390
" />
<path d="M115.2345 136.0390
L115.1393 135.6581
" />
<path d="M115.1393 135.6581
L115.1393 135.1819
" />
<path d="M115.1393 135.1819
L115.2345 134.8009
" />
<path d="M115.2345 134.8009
L115.3298 134.6105
" />
<path d="M115.3298 134.6105
L115.4250 134.5152
" />
<path d="M115.4250 134.5152
L115.6155 134.4200
" />
<path d="M117.5202 134.4200
L117.7107 134.4200
" />
<path d="M117.7107 134.4200
L117.9012 134.5152
" />
<path d="M117.9012 134.5152
L117.9964 134.6105
" />
<path d="M117.9964 134.6105
L118.0917 134.8009
" />
<path d="M118.0917 134.8009
L118.1869 135.1819
" />
<path d="M118.1869 135.1819
L118.1869 135.6581
" />
<path d="M118.1869 135.6581
L118.0917 136.0390
" />
<path d="M118.0917 136.0390
L117.9964 136.2295
" />
<path d="M117.9964 136.2295
L117.9012 136.3247
" />
<path d="M117.9012 136.3247
L117.7107 136.4200
" />
<path d="M117.7107 136.4200
L117.5202 136.4200
" />
<path d="M117.5202 136.4200
L117.3298 136.3247
" />
<path d="M117.3298 136.3247
L117.2345 136.2295
" />
<path d="M117.2345 136.2295
L117.1393 136.0390
" />
<path d="M117.1393 136.0390
L117.0441 135.6581
" />
<path d="M117.0441 135.6581
L117.0441 135.1819
" />
<path d="M117.0441 135.1819
L117.1393 134.8009
" />
<path d="M117.1393 134.8009
L117.2345 134.6105
" />
<path d="M117.2345 134.6105
L117.3298 134.5152
" />
<path d="M117.3298 134.5152
L117.5202 134.4200
" />
<path d="M119.0441 136.4200
L119.0441 135.0866
" />
<path d="M119.0441 135.2771
L119.1393 135.1819
" />
<path d="M119.1393 135.1819
L119.3298 135.0866
" />
<path d="M119.3298 135.0866
L119.6155 135.0866
" />
<path d="M119.6155 135.0866
L119.8060 135.1819
" />
<path d="M119.8060 135.1819
L119.9012 135.3724
" />
<path d="M119.9012 135.3724
L119.9012 136.4200
" />
<path d="M119.9012 135.3724
L119.9964 135.1819
" />
<path d="M119.9964 135.1819
L120.1869 135.0866
" />
<path d="M120.1869 135.0866
L120.4726 135.0866
" />
<path d="M120.4726 135.0866
L120.6631 135.1819
" />
<path d="M120.6631 135.1819
L120.7583 135.3724
" />
<path d="M120.7583 135.3724
L120.7583 136.4200
" />
<path d="M121.7107 136.4200
L121.7107 135.0866
" />
<path d="M121.7107 135.2771
L121.8060 135.1819
" />
<path d="M121.8060 135.1819
L121.9964 135.0866
" />
<path d="M121.9964 135.0866
L122.2821 135.0866
" />
<path d="M122.2821 135.0866
L122.4726 135.1819
" />
<path d="M122.4726 135.1819
L122.5679 135.3724
" />
<path d="M122.5679 135.3724
L122.5679 136.4200
" />
<path d="M122.5679 135.3724
L122.6631 135.1819
" />
<path d="M122.6631 135.1819
L122.8536 135.0866
" />
<path d="M122.8536 135.0866
L123.1393 135.0866
" />
<path d="M123.1393 135.0866
L123.3298 135.1819
" />
<path d="M123.3298 135.1819
L123.4250 135.3724
" />
<path d="M123.4250 135.3724
L123.4250 136.4200
" />
<path d="M127.3298 134.3247
L125.6155 136.8962
" />
<path d="M129.9012 134.4200
L130.0917 134.4200
" />
<path d="M130.0917 134.4200
L130.2822 134.5152
" />
<path d="M130.2822 134.5152
L130.3774 134.6105
" />
<path d="M130.3774 134.6105
L130.4726 134.8009
" />
<path d="M130.4726 134.8009
L130.5679 135.1819
" />
<path d="M130.5679 135.1819
L130.5679 135.6581
" />
<path d="M130.5679 135.6581
L130.4726 136.0390
" />
<path d="M130.4726 136.0390
L130.3774 136.2295
" />
<path d="M130.3774 136.2295
L130.2822 136.3247
" />
<path d="M130.2822 136.3247
L130.0917 136.4200
" />
<path d="M130.0917 136.4200
L129.9012 136.4200
" />
<path d="M129.9012 136.4200
L129.7107 136.3247
" />
<path d="M129.7107 136.3247
L129.6155 136.2295
" />
<path d="M129.6155 136.2295
L129.5202 136.0390
" />
<path d="M129.5202 136.0390
L129.4250 135.6581
" />
<path d="M129.4250 135.6581
L129.4250 135.1819
" />
<path d="M129.4250 135.1819
L129.5202 134.8009
" />
<path d="M129.5202 134.8009
L129.6155 134.6105
" />
<path d="M129.6155 134.6105
L129.7107 134.5152
" />
<path d="M129.7107 134.5152
L129.9012 134.4200
" />
<path d="M131.5202 136.3247
L131.5202 136.4200
" />
<path d="M131.5202 136.4200
L131.4250 136.6105
" />
<path d="M131.4250 136.6105
L131.3298 136.7057
" />
<path d="M132.7583 134.4200
L132.9488 134.4200
" />
<path d="M132.9488 134.4200
L133.1393 134.5152
" />
<path d="M133.1393 134.5152
L133.2345 134.6105
" />
<path d="M133.2345 134.6105
L133.3298 134.8009
" />
<path d="M133.3298 134.8009
L133.4250 135.1819
" />
<path d="M133.4250 135.1819
L133.4250 135.6581
" />
<path d="M133.4250 135.6581
L133.3298 136.0390
" />
<path d="M133.3298 136.0390
L133.2345 136.2295
" />
<path d="M133.2345 136.2295
L133.1393 136.3247
" />
<path d="M133.1393 136.3247
L132.9488 136.4200
" />
<path d="M132.9488 136.4200
L132.7583 136.4200
" />
<path d="M132.7583 136.4200
L132.5679 136.3247
" />
<path d="M132.5679 136.3247
L132.4726 136.2295
" />
<path d="M132.4726 136.2295
L132.3774 136.0390
" />
<path d="M132.3774 136.0390
L132.2822 135.6581
" />
<path d="M132.2822 135.6581
L132.2822 135.1819
" />
<path d="M132.2822 135.1819
L132.3774 134.8009
" />
<path d="M132.3774 134.8009
L132.4726 134.6105
" />
<path d="M132.4726 134.6105
L132.5679 134.5152
" />
<path d="M132.5679 134.5152
L132.7583 134.4200
" />
<path d="M134.5679 135.2771
L134.3774 135.1819
" />
<path d="M134.3774 135.1819
L134.2822 135.0866
" />
<path d="M134.2822 135.0866
L134.1869 134.8962
" />
<path d="M134.1869 134.8962
L134.1869 134.8009
" />
<path d="M134.1869 134.8009
L134.2822 134.6105
" />
<path d="M134.2822 134.6105
L134.3774 134.5152
" />
<path d="M134.3774 134.5152
L134.5679 134.4200
" />
<path d="M134.5679 134.4200
L134.9488 134.4200
" />
<path d="M134.9488 134.4200
L135.1393 134.5152
" />
<path d="M135.1393 134.5152
L135.2345 134.6105
" />
<path d="M135.2345 134.6105
L135.3298 134.8009
" />
<path d="M135.3298 134.8009
L135.3298 134.8962
" />
<path d="M135.3298 134.8962
L135.2345 135.0866
" />
<path d="M135.2345 135.0866
L135.1393 135.1819
" />
<path d="M135.1393 135.1819
L134.9488 135.2771
" />
<path d="M134.9488 135.2771
L134.5679 135.2771
" />
<path d="M134.5679 135.2771
L134.3774 135.3724
" />
<path d="M134.3774 135.3724
L134.2822 135.4676
" />
<path d="M134.2822 135.4676
L134.1869 135.6581
" />
<path d="M134.1869 135.6581
L134.1869 136.0390
" />
<path d="M134.1869 136.0390
L134.2822 136.2295
" />
<path d="M134.2822 136.2295
L134.3774 136.3247
" />
<path d="M134.3774 136.3247
L134.5679 136.4200
" />
<path d="M134.5679 136.4200
L134.9488 136.4200
" />
<path d="M134.9488 136.4200
L135.1393 136.3247
" />
<path d="M135.1393 136.3247
L135.2345 136.2295
" />
<path d="M135.2345 136.2295
L135.3298 136.0390
" />
<path d="M135.3298 136.0390
L135.3298 135.6581
" />
<path d="M135.3298 135.6581
L135.2345 135.4676
" />
<path d="M135.2345 135.4676
L135.1393 135.3724
" />
<path d="M135.1393 135.3724
L134.9488 135.2771
" />
<path d="M137.0441 134.4200
L136.6631 134.4200
" />
<path d="M136.6631 134.4200
L136.4726 134.5152
" />
<path d="M136.4726 134.5152
L136.3774 134.6105
" />
<path d="M136.3774 134.6105
L136.1869 134.8962
" />
<path d="M136.1869 134.8962
L136.0917 135.2771
" />
<path d="M136.0917 135.2771
L136.0917 136.0390
" />
<path d="M136.0917 136.0390
L136.1869 136.2295
" />
<path d="M136.1869 136.2295
L136.2822 136.3247
" />
<path d="M136.2822 136.3247
L136.4726 136.4200
" />
<path d="M136.4726 136.4200
L136.8536 136.4200
" />
<path d="M136.8536 136.4200
L137.0441 136.3247
" />
<path d="M137.0441 136.3247
L137.1393 136.2295
" />
<path d="M137.1393 136.2295
L137.2345 136.0390
" />
<path d="M137.2345 136.0390
L137.2345 135.5628
" />
<path d="M137.2345 135.5628
L137.1393 135.3724
" />
<path d="M137.1393 135.3724
L137.0441 135.2771
" />
<path d="M137.0441 135.2771
L136.8536 135.1819
" />
<path d="M136.8536 135.1819
L136.4726 135.1819
" />
<path d="M136.4726 135.1819
L136.2822 135.2771
" />
<path d="M136.2822 135.2771
L136.1869 135.3724
" />
<path d="M136.1869 135.3724
L136.0917 135.5628
" />
<path d="M138.9488 134.4200
L138.5679 134.4200
" />
<path d="M138.5679 134.4200
L138.3774 134.5152
" />
<path d="M138.3774 134.5152
L138.2822 134.6105
" />
<path d="M138.2822 134.6105
L138.0917 134.8962
" />
<path d="M138.0917 134.8962
L137.9964 135.2771
" />
<path d="M137.9964 135.2771
L137.9964 136.0390
" />
<path d="M137.9964 136.0390
L138.0917 136.2295
" />
<path d="M138.0917 136.2295
L138.1869 136.3247
" />
<path d="M138.1869 136.3247
L138.3774 136.4200
" />
<path d="M138.3774 136.4200
L138.7583 136.4200
" />
<path d="M138.7583 136.4200
L138.9488 136.3247
" />
<path d="M138.9488 136.3247
L139.0441 136.2295
" />
<path d="M139.0441 136.2295
L139.1393 136.0390
" />
<path d="M139.1393 136.0390
L139.1393 135.5628
" />
<path d="M139.1393 135.5628
L139.0441 135.3724
" />
<path d="M139.0441 135.3724
L138.9488 135.2771
" />
<path d="M138.9488 135.2771
L138.7583 135.1819
" />
<path d="M138.7583 135.1819
L138.3774 135.1819
" />
<path d="M138.3774 135.1819
L138.1869 135.2771
" />
<path d="M138.1869 135.2771
L138.0917 135.3724
" />
<path d="M138.0917 135.3724
L137.9964 135.5628
" />
<path d="M139.9012 134.4200
L139.9012 134.8009
" />
<path d="M140.6631 134.4200
L140.6631 134.8009
" />
<path d="M143.6155 137.1819
L143.5202 137.0866
" />
<path d="M143.5202 137.0866
L143.3298 136.8009
" />
<path d="M143.3298 136.8009
L143.2345 136.6105
" />
<path d="M143.2345 136.6105
L143.1393 136.3247
" />
<path d="M143.1393 136.3247
L143.0441 135.8485
" />
<path d="M143.0441 135.8485
L143.0441 135.4676
" />
<path d="M143.0441 135.4676
L143.1393 134.9914
" />
<path d="M143.1393 134.9914
L143.2345 134.7057
" />
<path d="M143.2345 134.7057
L143.3298 134.5152
" />
<path d="M143.3298 134.5152
L143.5202 134.2295
" />
<path d="M143.5202 134.2295
L143.6155 134.1343
" />
<path d="M145.2345 135.0866
L145.2345 136.4200
" />
<path d="M144.7583 134.3247
L144.2822 135.7533
" />
<path d="M144.2822 135.7533
L145.5202 135.7533
" />
<path d="M147.8060 136.4200
L147.8060 134.4200
" />
<path d="M148.6631 136.4200
L148.6631 135.3724
" />
<path d="M148.6631 135.3724
L148.5679 135.1819
" />
<path d="M148.5679 135.1819
L148.3774 135.0866
" />
<path d="M148.3774 135.0866
L148.0917 135.0866
" />
<path d="M148.0917 135.0866
L147.9012 135.1819
" />
<path d="M147.9012 135.1819
L147.8060 135.2771
" />
<path d="M149.9012 136.4200
L149.7107 136.3247
" />
<path d="M149.7107 136.3247
L149.6155 136.2295
" />
<path d="M149.6155 136.2295
L149.5202 136.0390
" />
<path d="M149.5202 136.0390
L149.5202 135.4676
" />
<path d="M149.5202 135.4676
L149.6155 135.2771
" />
<path d="M149.6155 135.2771
L149.7107 135.1819
" />
<path d="M149.7107 135.1819
L149.9012 135.0866
" />
<path d="M149.9012 135.0866
L150.1869 135.0866
" />
<path d="M150.1869 135.0866
L150.3774 135.1819
" />
<path d="M150.3774 135.1819
L150.4726 135.2771
" />
<path d="M150.4726 135.2771
L150.5679 135.4676
" />
<path d="M150.5679 135.4676
L150.5679 136.0390
" />
<path d="M150.5679 136.0390
L150.4726 136.2295
" />
<path d="M150.4726 136.2295
L150.3774 136.3247
" />
<path d="M150.3774 136.3247
L150.1869 136.4200
" />
<path d="M150.1869 136.4200
L149.9012 136.4200
" />
<path d="M151.7107 136.4200
L151.5202 136.3247
" />
<path d="M151.5202 136.3247
L151.4250 136.1343
" />
<path d="M151.4250 136.1343
L151.4250 134.4200
" />
<path d="M153.2345 136.3247
L153.0441 136.4200
" />
<path d="M153.0441 136.4200
L152.6631 136.4200
" />
<path d="M152.6631 136.4200
L152.4726 136.3247
" />
<path d="M152.4726 136.3247
L152.3774 136.1343
" />
<path d="M152.3774 136.1343
L152.3774 135.3724
" />
<path d="M152.3774 135.3724
L152.4726 135.1819
" />
<path d="M152.4726 135.1819
L152.6631 135.0866
" />
<path d="M152.6631 135.0866
L153.0441 135.0866
" />
<path d="M153.0441 135.0866
L153.2345 135.1819
" />
<path d="M153.2345 135.1819
L153.3298 135.3724
" />
<path d="M153.3298 135.3724
L153.3298 135.5628
" />
<path d="M153.3298 135.5628
L152.3774 135.7533
" />
<path d="M154.0917 136.3247
L154.2821 136.4200
" />
<path d="M154.2821 136.4200
L154.6631 136.4200
" />
<path d="M154.6631 136.4200
L154.8536 136.3247
" />
<path d="M154.8536 136.3247
L154.9488 136.1343
" />
<path d="M154.9488 136.1343
L154.9488 136.0390
" />
<path d="M154.9488 136.0390
L154.8536 135.8485
" />
<path d="M154.8536 135.8485
L154.6631 135.7533
" />
<path d="M154.6631 135.7533
L154.3774 135.7533
" />
<path d="M154.3774 135.7533
L154.1869 135.6581
" />
<path d="M154.1869 135.6581
L154.0917 135.4676
" />
<path d="M154.0917 135.4676
L154.0917 135.3724
" />
<path d="M154.0917 135.3724
L154.1869 135.1819
" />
<path d="M154.1869 135.1819
L154.3774 135.0866
" />
<path d="M154.3774 135.0866
L154.6631 135.0866
" />
<path d="M154.6631 135.0866
L154.8536 135.1819
" />
<path d="M155.6155 137.1819
L155.7107 137.0866
" />
<path d="M155.7107 137.0866
L155.9012 136.8009
" />
<path d="M155.9012 136.8009
L155.9964 136.6105
" />
<path d="M155.9964 136.6105
L156.0917 136.3247
" />
<path d="M156.0917 136.3247
L156.1869 135.8485
" />
<path d="M156.1869 135.8485
L156.1869 135.4676
" />
<path d="M156.1869 135.4676
L156.0917 134.9914
" />
<path d="M156.0917 134.9914
L155.9964 134.7057
" />
<path d="M155.9964 134.7057
L155.9012 134.5152
" />
<path d="M155.9012 134.5152
L155.7107 134.2295
" />
<path d="M155.7107 134.2295
L155.6155 134.1343
" />
</g><path style="fill:none; 
stroke:#000000; stroke-width:0.2000; stroke-opacity:1; 
stroke-linecap:round; stroke-linejoin:round;fill:none"
d="M 106.8649,139.7051
107.8649,138.7051
106.8649,137.7051
105.8649,138.7051
Z" /> 
</g>
<g style="fill:none; 
stroke:#000000; stroke-width:0.2000; stroke-opacity:1; 
stroke-linecap:round; stroke-linejoin:round;">
<text x="109.8649" y="139.7051"
textLength="46.8667" font-size="2.6667" lengthAdjust="spacingAndGlyphs"
text-anchor="start" opacity="0" stroke-opacity="0">4,300mm / 0,1693" (4 holes)</text>
<g class="stroked-text"><desc>4,300mm / 0,1693" (4 holes)</desc>
<path d="M111.3298 138.2866
L111.3298 139.6200
" />
<path d="M110.8536 137.5247
L110.3774 138.9533
" />
<path d="M110.3774 138.9533
L111.6155 138.9533
" />
<path d="M112.4726 139.5247
L112.4726 139.6200
" />
<path d="M112.4726 139.6200
L112.3774 139.8104
" />
<path d="M112.3774 139.8104
L112.2821 139.9057
" />
<path d="M113.1393 137.6200
L114.3774 137.6200
" />
<path d="M114.3774 137.6200
L113.7107 138.3819
" />
<path d="M113.7107 138.3819
L113.9964 138.3819
" />
<path d="M113.9964 138.3819
L114.1869 138.4771
" />
<path d="M114.1869 138.4771
L114.2821 138.5724
" />
<path d="M114.2821 138.5724
L114.3774 138.7628
" />
<path d="M114.3774 138.7628
L114.3774 139.2390
" />
<path d="M114.3774 139.2390
L114.2821 139.4295
" />
<path d="M114.2821 139.4295
L114.1869 139.5247
" />
<path d="M114.1869 139.5247
L113.9964 139.6200
" />
<path d="M113.9964 139.6200
L113.4250 139.6200
" />
<path d="M113.4250 139.6200
L113.2345 139.5247
" />
<path d="M113.2345 139.5247
L113.1393 139.4295
" />
<path d="M115.6155 137.6200
L115.8060 137.6200
" />
<path d="M115.8060 137.6200
L115.9964 137.7152
" />
<path d="M115.9964 137.7152
L116.0917 137.8104
" />
<path d="M116.0917 137.8104
L116.1869 138.0009
" />
<path d="M116.1869 138.0009
L116.2821 138.3819
" />
<path d="M116.2821 138.3819
L116.2821 138.8581
" />
<path d="M116.2821 138.8581
L116.1869 139.2390
" />
<path d="M116.1869 139.2390
L116.0917 139.4295
" />
<path d="M116.0917 139.4295
L115.9964 139.5247
" />
<path d="M115.9964 139.5247
L115.8060 139.6200
" />
<path d="M115.8060 139.6200
L115.6155 139.6200
" />
<path d="M115.6155 139.6200
L115.4250 139.5247
" />
<path d="M115.4250 139.5247
L115.3298 139.4295
" />
<path d="M115.3298 139.4295
L115.2345 139.2390
" />
<path d="M115.2345 139.2390
L115.1393 138.8581
" />
<path d="M115.1393 138.8581
L115.1393 138.3819
" />
<path d="M115.1393 138.3819
L115.2345 138.0009
" />
<path d="M115.2345 138.0009
L115.3298 137.8104
" />
<path d="M115.3298 137.8104
L115.4250 137.7152
" />
<path d="M115.4250 137.7152
L115.6155 137.6200
" />
<path d="M117.5202 137.6200
L117.7107 137.6200
" />
<path d="M117.7107 137.6200
L117.9012 137.7152
" />
<path d="M117.9012 137.7152
L117.9964 137.8104
" />
<path d="M117.9964 137.8104
L118.0917 138.0009
" />
<path d="M118.0917 138.0009
L118.1869 138.3819
" />
<path d="M118.1869 138.3819
L118.1869 138.8581
" />
<path d="M118.1869 138.8581
L118.0917 139.2390
" />
<path d="M118.0917 139.2390
L117.9964 139.4295
" />
<path d="M117.9964 139.4295
L117.9012 139.5247
" />
<path d="M117.9012 139.5247
L117.7107 139.6200
" />
<path d="M117.7107 139.6200
L117.5202 139.6200
" />
<path d="M117.5202 139.6200
L117.3298 139.5247
" />
<path d="M117.3298 139.5247
L117.2345 139.4295
" />
<path d="M117.2345 139.4295
L117.1393 139.2390
" />
<path d="M117.1393 139.2390
L117.0441 138.8581
" />
<path d="M117.0441 138.8581
L117.0441 138.3819
" />
<path d="M117.0441 138.3819
L117.1393 138.0009
" />
<path d="M117.1393 138.0009
L117.2345 137.8104
" />
<path d="M117.2345 137.8104
L117.3298 137.7152
" />
<path d="M117.3298 137.7152
L117.5202 137.6200
" />
<path d="M119.0441 139.6200
L119.0441 138.2866
" />
<path d="M119.0441 138.4771
L119.1393 138.3819
" />
<path d="M119.1393 138.3819
L119.3298 138.2866
" />
<path d="M119.3298 138.2866
L119.6155 138.2866
" />
<path d="M119.6155 138.2866
L119.8060 138.3819
" />
<path d="M119.8060 138.3819
L119.9012 138.5724
" />
<path d="M119.9012 138.5724
L119.9012 139.6200
" />
<path d="M119.9012 138.5724
L119.9964 138.3819
" />
<path d="M119.9964 138.3819
L120.1869 138.2866
" />
<path d="M120.1869 138.2866
L120.4726 138.2866
" />
<path d="M120.4726 138.2866
L120.6631 138.3819
" />
<path d="M120.6631 138.3819
L120.7583 138.5724
" />
<path d="M120.7583 138.5724
L120.7583 139.6200
" />
<path d="M121.7107 139.6200
L121.7107 138.2866
" />
<path d="M121.7107 138.4771
L121.8060 138.3819
" />
<path d="M121.8060 138.3819
L121.9964 138.2866
" />
<path d="M121.9964 138.2866
L122.2821 138.2866
" />
<path d="M122.2821 138.2866
L122.4726 138.3819
" />
<path d="M122.4726 138.3819
L122.5679 138.5724
" />
<path d="M122.5679 138.5724
L122.5679 139.6200
" />
<path d="M122.5679 138.5724
L122.6631 138.3819
" />
<path d="M122.6631 138.3819
L122.8536 138.2866
" />
<path d="M122.8536 138.2866
L123.1393 138.2866
" />
<path d="M123.1393 138.2866
L123.3298 138.3819
" />
<path d="M123.3298 138.3819
L123.4250 138.5724
" />
<path d="M123.4250 138.5724
L123.4250 139.6200
" />
<path d="M127.3298 137.5247
L125.6155 140.0962
" />
<path d="M129.9012 137.6200
L130.0917 137.6200
" />
<path d="M130.0917 137.6200
L130.2822 137.7152
" />
<path d="M130.2822 137.7152
L130.3774 137.8104
" />
<path d="M130.3774 137.8104
L130.4726 138.0009
" />
<path d="M130.4726 138.0009
L130.5679 138.3819
" />
<path d="M130.5679 138.3819
L130.5679 138.8581
" />
<path d="M130.5679 138.8581
L130.4726 139.2390
" />
<path d="M130.4726 139.2390
L130.3774 139.4295
" />
<path d="M130.3774 139.4295
L130.2822 139.5247
" />
<path d="M130.2822 139.5247
L130.0917 139.6200
" />
<path d="M130.0917 139.6200
L129.9012 139.6200
" />
<path d="M129.9012 139.6200
L129.7107 139.5247
" />
<path d="M129.7107 139.5247
L129.6155 139.4295
" />
<path d="M129.6155 139.4295
L129.5202 139.2390
" />
<path d="M129.5202 139.2390
L129.4250 138.8581
" />
<path d="M129.4250 138.8581
L129.4250 138.3819
" />
<path d="M129.4250 138.3819
L129.5202 138.0009
" />
<path d="M129.5202 138.0009
L129.6155 137.8104
" />
<path d="M129.6155 137.8104
L129.7107 137.7152
" />
<path d="M129.7107 137.7152
L129.9012 137.6200
" />
<path d="M131.5202 139.5247
L131.5202 139.6200
" />
<path d="M131.5202 139.6200
L131.4250 139.8104
" />
<path d="M131.4250 139.8104
L131.3298 139.9057
" />
<path d="M133.4250 139.6200
L132.2822 139.6200
" />
<path d="M132.8536 139.6200
L132.8536 137.6200
" />
<path d="M132.8536 137.6200
L132.6631 137.9057
" />
<path d="M132.6631 137.9057
L132.4726 138.0962
" />
<path d="M132.4726 138.0962
L132.2822 138.1914
" />
<path d="M135.1393 137.6200
L134.7583 137.6200
" />
<path d="M134.7583 137.6200
L134.5679 137.7152
" />
<path d="M134.5679 137.7152
L134.4726 137.8104
" />
<path d="M134.4726 137.8104
L134.2822 138.0962
" />
<path d="M134.2822 138.0962
L134.1869 138.4771
" />
<path d="M134.1869 138.4771
L134.1869 139.2390
" />
<path d="M134.1869 139.2390
L134.2822 139.4295
" />
<path d="M134.2822 139.4295
L134.3774 139.5247
" />
<path d="M134.3774 139.5247
L134.5679 139.6200
" />
<path d="M134.5679 139.6200
L134.9488 139.6200
" />
<path d="M134.9488 139.6200
L135.1393 139.5247
" />
<path d="M135.1393 139.5247
L135.2345 139.4295
" />
<path d="M135.2345 139.4295
L135.3298 139.2390
" />
<path d="M135.3298 139.2390
L135.3298 138.7628
" />
<path d="M135.3298 138.7628
L135.2345 138.5724
" />
<path d="M135.2345 138.5724
L135.1393 138.4771
" />
<path d="M135.1393 138.4771
L134.9488 138.3819
" />
<path d="M134.9488 138.3819
L134.5679 138.3819
" />
<path d="M134.5679 138.3819
L134.3774 138.4771
" />
<path d="M134.3774 138.4771
L134.2822 138.5724
" />
<path d="M134.2822 138.5724
L134.1869 138.7628
" />
<path d="M136.2822 139.6200
L136.6631 139.6200
" />
<path d="M136.6631 139.6200
L136.8536 139.5247
" />
<path d="M136.8536 139.5247
L136.9488 139.4295
" />
<path d="M136.9488 139.4295
L137.1393 139.1438
" />
<path d="M137.1393 139.1438
L137.2345 138.7628
" />
<path d="M137.2345 138.7628
L137.2345 138.0009
" />
<path d="M137.2345 138.0009
L137.1393 137.8104
" />
<path d="M137.1393 137.8104
L137.0441 137.7152
" />
<path d="M137.0441 137.7152
L136.8536 137.6200
" />
<path d="M136.8536 137.6200
L136.4726 137.6200
" />
<path d="M136.4726 137.6200
L136.2822 137.7152
" />
<path d="M136.2822 137.7152
L136.1869 137.8104
" />
<path d="M136.1869 137.8104
L136.0917 138.0009
" />
<path d="M136.0917 138.0009
L136.0917 138.4771
" />
<path d="M136.0917 138.4771
L136.1869 138.6676
" />
<path d="M136.1869 138.6676
L136.2822 138.7628
" />
<path d="M136.2822 138.7628
L136.4726 138.8581
" />
<path d="M136.4726 138.8581
L136.8536 138.8581
" />
<path d="M136.8536 138.8581
L137.0441 138.7628
" />
<path d="M137.0441 138.7628
L137.1393 138.6676
" />
<path d="M137.1393 138.6676
L137.2345 138.4771
" />
<path d="M137.9012 137.6200
L139.1393 137.6200
" />
<path d="M139.1393 137.6200
L138.4726 138.3819
" />
<path d="M138.4726 138.3819
L138.7583 138.3819
" />
<path d="M138.7583 138.3819
L138.9488 138.4771
" />
<path d="M138.9488 138.4771
L139.0441 138.5724
" />
<path d="M139.0441 138.5724
L139.1393 138.7628
" />
<path d="M139.1393 138.7628
L139.1393 139.2390
" />
<path d="M139.1393 139.2390
L139.0441 139.4295
" />
<path d="M139.0441 139.4295
L138.9488 139.5247
" />
<path d="M138.9488 139.5247
L138.7583 139.6200
" />
<path d="M138.7583 139.6200
L138.1869 139.6200
" />
<path d="M138.1869 139.6200
L137.9964 139.5247
" />
<path d="M137.9964 139.5247
L137.9012 139.4295
" />
<path d="M139.9012 137.6200
L139.9012 138.0009
" />
<path d="M140.6631 137.6200
L140.6631 138.0009
" />
<path d="M143.6155 140.3819
L143.5202 140.2866
" />
<path d="M143.5202 140.2866
L143.3298 140.0009
" />
<path d="M143.3298 140.0009
L143.2345 139.8104
" />
<path d="M143.2345 139.8104
L143.1393 139.5247
" />
<path d="M143.1393 139.5247
L143.0441 139.0485
" />
<path d="M143.0441 139.0485
L143.0441 138.6676
" />
<path d="M143.0441 138.6676
L143.1393 138.1914
" />
<path d="M143.1393 138.1914
L143.2345 137.9057
" />
<path d="M143.2345 137.9057
L143.3298 137.7152
" />
<path d="M143.3298 137.7152
L143.5202 137.4295
" />
<path d="M143.5202 137.4295
L143.6155 137.3343
" />
<path d="M145.2345 138.2866
L145.2345 139.6200
" />
<path d="M144.7583 137.5247
L144.2822 138.9533
" />
<path d="M144.2822 138.9533
L145.5202 138.9533
" />
<path d="M147.8060 139.6200
L147.8060 137.6200
" />
<path d="M148.6631 139.6200
L148.6631 138.5724
" />
<path d="M148.6631 138.5724
L148.5679 138.3819
" />
<path d="M148.5679 138.3819
L148.3774 138.2866
" />
<path d="M148.3774 138.2866
L148.0917 138.2866
" />
<path d="M148.0917 138.2866
L147.9012 138.3819
" />
<path d="M147.9012 138.3819
L147.8060 138.4771
" />
<path d="M149.9012 139.6200
L149.7107 139.5247
" />
<path d="M149.7107 139.5247
L149.6155 139.4295
" />
<path d="M149.6155 139.4295
L149.5202 139.2390
" />
<path d="M149.5202 139.2390
L149.5202 138.6676
" />
<path d="M149.5202 138.6676
L149.6155 138.4771
" />
<path d="M149.6155 138.4771
L149.7107 138.3819
" />
<path d="M149.7107 138.3819
L149.9012 138.2866
" />
<path d="M149.9012 138.2866
L150.1869 138.2866
" />
<path d="M150.1869 138.2866
L150.3774 138.3819
" />
<path d="M150.3774 138.3819
L150.4726 138.4771
" />
<path d="M150.4726 138.4771
L150.5679 138.6676
" />
<path d="M150.5679 138.6676
L150.5679 139.2390
" />
<path d="M150.5679 139.2390
L150.4726 139.4295
" />
<path d="M150.4726 139.4295
L150.3774 139.5247
" />
<path d="M150.3774 139.5247
L150.1869 139.6200
" />
<path d="M150.1869 139.6200
L149.9012 139.6200
" />
<path d="M151.7107 139.6200
L151.5202 139.5247
" />
<path d="M151.5202 139.5247
L151.4250 139.3343
" />
<path d="M151.4250 139.3343
L151.4250 137.6200
" />
<path d="M153.2345 139.5247
L153.0441 139.6200
" />
<path d="M153.0441 139.6200
L152.6631 139.6200
" />
<path d="M152.6631 139.6200
L152.4726 139.5247
" />
<path d="M152.4726 139.5247
L152.3774 139.3343
" />
<path d="M152.3774 139.3343
L152.3774 138.5724
" />
<path d="M152.3774 138.5724
L152.4726 138.3819
" />
<path d="M152.4726 138.3819
L152.6631 138.2866
" />
<path d="M152.6631 138.2866
L153.0441 138.2866
" />
<path d="M153.0441 138.2866
L153.2345 138.3819
" />
<path d="M153.2345 138.3819
L153.3298 138.5724
" />
<path d="M153.3298 138.5724
L153.3298 138.7628
" />
<path d="M153.3298 138.7628
L152.3774 138.9533
" />
<path d="M154.0917 139.5247
L154.2821 139.6200
" />
<path d="M154.2821 139.6200
L154.6631 139.6200
" />
<path d="M154.6631 139.6200
L154.8536 139.5247
" />
<path d="M154.8536 139.5247
L154.9488 139.3343
" />
<path d="M154.9488 139.3343
L154.9488 139.2390
" />
<path d="M154.9488 139.2390
L154.8536 139.0485
" />
<path d="M154.8536 139.0485
L154.6631 138.9533
" />
<path d="M154.6631 138.9533
L154.3774 138.9533
" />
<path d="M154.3774 138.9533
L154.1869 138.8581
" />
<path d="M154.1869 138.8581
L154.0917 138.6676
" />
<path d="M154.0917 138.6676
L154.0917 138.5724
" />
<path d="M154.0917 138.5724
L154.1869 138.3819
" />
<path d="M154.1869 138.3819
L154.3774 138.2866
" />
<path d="M154.3774 138.2866
L154.6631 138.2866
" />
<path d="M154.6631 138.2866
L154.8536 138.3819
" />
<path d="M155.6155 140.3819
L155.7107 140.2866
" />
<path d="M155.7107 140.2866
L155.9012 140.0009
" />
<path d="M155.9012 140.0009
L155.9964 139.8104
" />
<path d="M155.9964 139.8104
L156.0917 139.5247
" />
<path d="M156.0917 139.5247
L156.1869 139.0485
" />
<path d="M156.1869 139.0485
L156.1869 138.6676
" />
<path d="M156.1869 138.6676
L156.0917 138.1914
" />
<path d="M156.0917 138.1914
L155.9964 137.9057
" />
<path d="M155.9964 137.9057
L155.9012 137.7152
" />
<path d="M155.9012 137.7152
L155.7107 137.4295
" />
<path d="M155.7107 137.4295
L155.6155 137.3343
" />
</g></g> 
</svg>
