%TF.GenerationSoftware,KiCad,Pcbnew,8.0.7-8.0.7-0~ubuntu24.04.1*%
%TF.CreationDate,2025-01-20T15:28:16+03:00*%
%TF.ProjectId,PM-DQ16-source,504d2d44-5131-4362-9d73-6f757263652e,rev?*%
%TF.SameCoordinates,Original*%
%TF.FileFunction,Profile,NP*%
%FSLAX46Y46*%
G04 Gerber Fmt 4.6, Leading zero omitted, Abs format (unit mm)*
G04 Created by KiCad (PCBNEW 8.0.7-8.0.7-0~ubuntu24.04.1) date 2025-01-20 15:28:16*
%MOMM*%
%LPD*%
G01*
G04 APERTURE LIST*
%TA.AperFunction,Profile*%
%ADD10C,0.200000*%
%TD*%
%TA.AperFunction,Profile*%
%ADD11C,0.050000*%
%TD*%
G04 APERTURE END LIST*
D10*
X27000000Y47900000D02*
G75*
G02*
X29900000Y45000000I0J-2900000D01*
G01*
X16000000Y49900000D02*
G75*
G02*
X17000000Y48900000I0J-1000000D01*
G01*
X-40900000Y49900000D02*
G75*
G02*
X-39900000Y48900000I0J-1000000D01*
G01*
X-48900000Y-49900000D02*
X-40900000Y-49900000D01*
X7000000Y48900000D02*
G75*
G02*
X6000000Y47900000I-1000000J0D01*
G01*
X-49900000Y48900000D02*
G75*
G02*
X-48900000Y49900000I1000000J0D01*
G01*
X-39900000Y-48900000D02*
G75*
G02*
X-40900000Y-49900000I-1000000J0D01*
G01*
X7000000Y48900000D02*
G75*
G02*
X8000000Y49900000I1000000J0D01*
G01*
X-38900000Y47900000D02*
X6000000Y47900000D01*
X17000000Y-48900000D02*
G75*
G02*
X16000000Y-49900000I-1000000J0D01*
G01*
X-38900000Y47900000D02*
G75*
G02*
X-39900000Y48900000I0J1000000D01*
G01*
X6000000Y-47900000D02*
X-38900000Y-47900000D01*
X18000000Y-47900000D02*
X27000000Y-47900000D01*
X8000000Y-49900000D02*
G75*
G02*
X7000000Y-48900000I0J1000000D01*
G01*
X-48900000Y-49900000D02*
G75*
G02*
X-49900000Y-48900000I0J1000000D01*
G01*
X18000000Y47900000D02*
G75*
G02*
X17000000Y48900000I0J1000000D01*
G01*
X29900000Y45000000D02*
X29900000Y-45000000D01*
X-48900000Y49900000D02*
X-40900000Y49900000D01*
X17000000Y-48900000D02*
G75*
G02*
X18000000Y-47900000I1000000J0D01*
G01*
X27000000Y47900000D02*
X18000000Y47900000D01*
X-49900000Y48900000D02*
X-49900000Y-48900000D01*
X29900000Y-45000000D02*
G75*
G02*
X27000000Y-47900000I-2900000J0D01*
G01*
X-39900000Y-48900000D02*
G75*
G02*
X-38900000Y-47900000I1000000J0D01*
G01*
X16000000Y49900000D02*
X8000000Y49900000D01*
X8000000Y-49900000D02*
X16000000Y-49900000D01*
X6000000Y-47900000D02*
G75*
G02*
X7000000Y-48900000I0J-1000000D01*
G01*
D11*
%TO.C,U1*%
X-45800000Y39000000D02*
G75*
G02*
X-48000000Y39000000I-1100000J0D01*
G01*
X-48000000Y39000000D02*
G75*
G02*
X-45800000Y39000000I1100000J0D01*
G01*
X-45800000Y-39000000D02*
G75*
G02*
X-48000000Y-39000000I-1100000J0D01*
G01*
X-48000000Y-39000000D02*
G75*
G02*
X-45800000Y-39000000I1100000J0D01*
G01*
X-17900000Y45000000D02*
G75*
G02*
X-20100000Y45000000I-1100000J0D01*
G01*
X-20100000Y45000000D02*
G75*
G02*
X-17900000Y45000000I1100000J0D01*
G01*
X-17900000Y-45000000D02*
G75*
G02*
X-20100000Y-45000000I-1100000J0D01*
G01*
X-20100000Y-45000000D02*
G75*
G02*
X-17900000Y-45000000I1100000J0D01*
G01*
%TO.C,U2*%
X6100000Y45000000D02*
G75*
G02*
X3900000Y45000000I-1100000J0D01*
G01*
X3900000Y45000000D02*
G75*
G02*
X6100000Y45000000I1100000J0D01*
G01*
X6100000Y-45000000D02*
G75*
G02*
X3900000Y-45000000I-1100000J0D01*
G01*
X3900000Y-45000000D02*
G75*
G02*
X6100000Y-45000000I1100000J0D01*
G01*
X20100000Y45000000D02*
G75*
G02*
X17900000Y45000000I-1100000J0D01*
G01*
X17900000Y45000000D02*
G75*
G02*
X20100000Y45000000I1100000J0D01*
G01*
X20100000Y-45000000D02*
G75*
G02*
X17900000Y-45000000I-1100000J0D01*
G01*
X17900000Y-45000000D02*
G75*
G02*
X20100000Y-45000000I1100000J0D01*
G01*
%TD*%
M02*
