%TF.GenerationSoftware,KiCad,Pcbnew,8.0.3-8.0.3-0~ubuntu22.04.1*%
%TF.CreationDate,2024-10-28T11:08:21+03:00*%
%TF.ProjectId,PM-DI16-DC24sink,504d2d44-4931-4362-9d44-43323473696e,rev?*%
%TF.SameCoordinates,Original*%
%TF.FileFunction,Other,Comment*%
%FSLAX46Y46*%
G04 Gerber Fmt 4.6, Leading zero omitted, Abs format (unit mm)*
G04 Created by KiCad (PCBNEW 8.0.3-8.0.3-0~ubuntu22.04.1) date 2024-10-28 11:08:21*
%MOMM*%
%LPD*%
G01*
G04 APERTURE LIST*
%ADD10C,0.100000*%
%ADD11C,0.150000*%
G04 APERTURE END LIST*
D10*
X59220000Y470000D02*
X55410000Y470000D01*
D11*
%TO.C,H1*%
X-28800000Y46000000D02*
G75*
G02*
X-35200000Y46000000I-3200000J0D01*
G01*
X-35200000Y46000000D02*
G75*
G02*
X-28800000Y46000000I3200000J0D01*
G01*
%TO.C,H3*%
X49200000Y-32000000D02*
G75*
G02*
X42800000Y-32000000I-3200000J0D01*
G01*
X42800000Y-32000000D02*
G75*
G02*
X49200000Y-32000000I3200000J0D01*
G01*
%TO.C,U12*%
X-36800000Y45000000D02*
G75*
G02*
X-41200000Y45000000I-2200000J0D01*
G01*
X-41200000Y45000000D02*
G75*
G02*
X-36800000Y45000000I2200000J0D01*
G01*
X-36800000Y-45000000D02*
G75*
G02*
X-41200000Y-45000000I-2200000J0D01*
G01*
X-41200000Y-45000000D02*
G75*
G02*
X-36800000Y-45000000I2200000J0D01*
G01*
X-22800000Y45000000D02*
G75*
G02*
X-27200000Y45000000I-2200000J0D01*
G01*
X-27200000Y45000000D02*
G75*
G02*
X-22800000Y45000000I2200000J0D01*
G01*
X-22800000Y-45000000D02*
G75*
G02*
X-27200000Y-45000000I-2200000J0D01*
G01*
X-27200000Y-45000000D02*
G75*
G02*
X-22800000Y-45000000I2200000J0D01*
G01*
%TO.C,H2*%
X49200000Y32000000D02*
G75*
G02*
X42800000Y32000000I-3200000J0D01*
G01*
X42800000Y32000000D02*
G75*
G02*
X49200000Y32000000I3200000J0D01*
G01*
%TO.C,U1*%
X13200000Y45000000D02*
G75*
G02*
X8800000Y45000000I-2200000J0D01*
G01*
X8800000Y45000000D02*
G75*
G02*
X13200000Y45000000I2200000J0D01*
G01*
X13200000Y-45000000D02*
G75*
G02*
X8800000Y-45000000I-2200000J0D01*
G01*
X8800000Y-45000000D02*
G75*
G02*
X13200000Y-45000000I2200000J0D01*
G01*
X47200000Y45000000D02*
G75*
G02*
X42800000Y45000000I-2200000J0D01*
G01*
X42800000Y45000000D02*
G75*
G02*
X47200000Y45000000I2200000J0D01*
G01*
X47200000Y-45000000D02*
G75*
G02*
X42800000Y-45000000I-2200000J0D01*
G01*
X42800000Y-45000000D02*
G75*
G02*
X47200000Y-45000000I2200000J0D01*
G01*
%TD*%
M02*
