%TF.GenerationSoftware,KiCad,Pcbnew,8.0.6-8.0.6-0~ubuntu24.04.1*%
%TF.CreationDate,2024-11-23T11:29:18+03:00*%
%TF.ProjectId,PM-CPU-RP,504d2d43-5055-42d5-9250-2e6b69636164,rev?*%
%TF.SameCoordinates,Original*%
%TF.FileFunction,Soldermask,Top*%
%TF.FilePolarity,Negative*%
%FSLAX46Y46*%
G04 Gerber Fmt 4.6, Leading zero omitted, Abs format (unit mm)*
G04 Created by KiCad (PCBNEW 8.0.6-8.0.6-0~ubuntu24.04.1) date 2024-11-23 11:29:18*
%MOMM*%
%LPD*%
G01*
G04 APERTURE LIST*
G04 Aperture macros list*
%AMRoundRect*
0 Rectangle with rounded corners*
0 $1 Rounding radius*
0 $2 $3 $4 $5 $6 $7 $8 $9 X,Y pos of 4 corners*
0 Add a 4 corners polygon primitive as box body*
4,1,4,$2,$3,$4,$5,$6,$7,$8,$9,$2,$3,0*
0 Add four circle primitives for the rounded corners*
1,1,$1+$1,$2,$3*
1,1,$1+$1,$4,$5*
1,1,$1+$1,$6,$7*
1,1,$1+$1,$8,$9*
0 Add four rect primitives between the rounded corners*
20,1,$1+$1,$2,$3,$4,$5,0*
20,1,$1+$1,$4,$5,$6,$7,0*
20,1,$1+$1,$6,$7,$8,$9,0*
20,1,$1+$1,$8,$9,$2,$3,0*%
G04 Aperture macros list end*
%ADD10O,6.350000X6.350000*%
%ADD11R,1.181100X0.558800*%
%ADD12C,1.000000*%
%ADD13C,1.800000*%
%ADD14RoundRect,0.249999X-0.737501X-2.450001X0.737501X-2.450001X0.737501X2.450001X-0.737501X2.450001X0*%
%ADD15C,6.000000*%
%ADD16O,1.700000X1.700000*%
%ADD17R,1.700000X1.700000*%
%ADD18C,3.200000*%
%ADD19RoundRect,0.250000X-0.400000X-0.625000X0.400000X-0.625000X0.400000X0.625000X-0.400000X0.625000X0*%
%ADD20R,1.244600X0.558800*%
%ADD21RoundRect,0.250000X-0.650000X0.412500X-0.650000X-0.412500X0.650000X-0.412500X0.650000X0.412500X0*%
%ADD22RoundRect,0.250000X-0.625000X0.400000X-0.625000X-0.400000X0.625000X-0.400000X0.625000X0.400000X0*%
%ADD23RoundRect,0.250000X0.650000X-0.412500X0.650000X0.412500X-0.650000X0.412500X-0.650000X-0.412500X0*%
%ADD24R,3.500000X3.500000*%
%ADD25C,3.500000*%
%ADD26R,1.854200X0.482600*%
%ADD27RoundRect,0.250000X1.450000X-0.537500X1.450000X0.537500X-1.450000X0.537500X-1.450000X-0.537500X0*%
%ADD28RoundRect,0.150000X-0.825000X-0.150000X0.825000X-0.150000X0.825000X0.150000X-0.825000X0.150000X0*%
%ADD29C,1.950000*%
%ADD30R,1.803400X0.635000*%
%ADD31R,2.997200X2.590800*%
%ADD32RoundRect,0.250000X0.625000X-0.400000X0.625000X0.400000X-0.625000X0.400000X-0.625000X-0.400000X0*%
%ADD33R,1.828800X0.533400*%
%ADD34RoundRect,0.250000X0.400000X0.625000X-0.400000X0.625000X-0.400000X-0.625000X0.400000X-0.625000X0*%
%ADD35RoundRect,0.150000X0.150000X-0.875000X0.150000X0.875000X-0.150000X0.875000X-0.150000X-0.875000X0*%
%ADD36C,2.650000*%
%ADD37C,2.350000*%
%ADD38C,2.200000*%
G04 APERTURE END LIST*
D10*
%TO.C,PE1*%
X-32000000Y-46000000D03*
%TD*%
D11*
%TO.C,U7*%
X-8693150Y-33970001D03*
X-8693150Y-33020000D03*
X-8693150Y-32069999D03*
X-11626850Y-32069999D03*
X-11626850Y-33020000D03*
X-11626850Y-33970001D03*
%TD*%
D12*
%TO.C,J1*%
X46190000Y37436000D03*
X40640000Y47049000D03*
X35090000Y37436000D03*
D13*
X40640000Y32890000D03*
X40640000Y40640000D03*
%TD*%
D14*
%TO.C,C3*%
X40542500Y25400000D03*
X45817500Y25400000D03*
%TD*%
D15*
%TO.C,D1*%
X27940000Y38100000D03*
X-30060000Y38100000D03*
X27940000Y15100000D03*
X-30060000Y15100000D03*
X27940000Y-10900000D03*
X-30060000Y-10900000D03*
D16*
X23010000Y36850000D03*
D17*
X23010000Y39390000D03*
D16*
X20470000Y36850000D03*
X20470000Y39390000D03*
X17930000Y36850000D03*
X17930000Y39390000D03*
X15390000Y36850000D03*
X15390000Y39390000D03*
X12850000Y36850000D03*
X12850000Y39390000D03*
X10310000Y36850000D03*
X10310000Y39390000D03*
X7770000Y36850000D03*
X7770000Y39390000D03*
X5230000Y36850000D03*
X5230000Y39390000D03*
X2690000Y36850000D03*
X2690000Y39390000D03*
X150000Y36850000D03*
X150000Y39390000D03*
X-2390000Y36850000D03*
X-2390000Y39390000D03*
X-4930000Y36850000D03*
X-4930000Y39390000D03*
X-7470000Y36850000D03*
X-7470000Y39390000D03*
X-10010000Y36850000D03*
X-10010000Y39390000D03*
X-12550000Y36850000D03*
X-12550000Y39390000D03*
X-15090000Y36850000D03*
X-15090000Y39390000D03*
X-17630000Y36850000D03*
X-17630000Y39390000D03*
X-20170000Y36850000D03*
X-20170000Y39390000D03*
X-22710000Y36850000D03*
X-22710000Y39390000D03*
X-25250000Y36850000D03*
X-25250000Y39390000D03*
%TD*%
D18*
%TO.C,H1*%
X-32000000Y46000000D03*
%TD*%
D19*
%TO.C,R6*%
X28930000Y-22860000D03*
X32030000Y-22860000D03*
%TD*%
D20*
%TO.C,CR1*%
X39154100Y-31430001D03*
X39154100Y-29529999D03*
X37045900Y-30480000D03*
%TD*%
D21*
%TO.C,C8*%
X22860000Y-28917500D03*
X22860000Y-32042500D03*
%TD*%
D22*
%TO.C,R1*%
X35560000Y26950000D03*
X35560000Y23850000D03*
%TD*%
D23*
%TO.C,C5*%
X2540000Y-24422500D03*
X2540000Y-21297500D03*
%TD*%
D24*
%TO.C,J6*%
X-44450000Y-22860000D03*
D25*
X-44450000Y-27940000D03*
%TD*%
D26*
%TO.C,U4*%
X7823200Y-23495000D03*
X7823200Y-24765000D03*
X7823200Y-26035000D03*
X7823200Y-27305000D03*
X7823200Y-28575000D03*
X7823200Y-29845000D03*
X7823200Y-31115000D03*
X7823200Y-32385000D03*
X17576800Y-32385000D03*
X17576800Y-31115000D03*
X17576800Y-29845000D03*
X17576800Y-28575000D03*
X17576800Y-27305000D03*
X17576800Y-26035000D03*
X17576800Y-24765000D03*
X17576800Y-23495000D03*
%TD*%
D27*
%TO.C,C1*%
X-46000000Y-43137500D03*
X-46000000Y-38862500D03*
%TD*%
D18*
%TO.C,H3*%
X46000000Y-32000000D03*
%TD*%
D28*
%TO.C,U5*%
X28005000Y-28575000D03*
X28005000Y-29845000D03*
X28005000Y-31115000D03*
X28005000Y-32385000D03*
X32955000Y-32385000D03*
X32955000Y-31115000D03*
X32955000Y-29845000D03*
X32955000Y-28575000D03*
%TD*%
D21*
%TO.C,C6*%
X2540000Y-28917500D03*
X2540000Y-32042500D03*
%TD*%
D29*
%TO.C,J4*%
X40640000Y12700000D03*
X40640000Y15240000D03*
X40640000Y17780000D03*
%TD*%
D30*
%TO.C,J9*%
X-23556000Y-34499991D03*
X-23556000Y-33499993D03*
X-23556000Y-32499995D03*
X-23556000Y-31499997D03*
X-23556000Y-30499999D03*
X-23556000Y-29500001D03*
X-23556000Y-28500003D03*
X-23556000Y-27500005D03*
X-23556000Y-26500007D03*
X-23556000Y-25500009D03*
D31*
X-21385999Y-36850002D03*
X-21385999Y-23149998D03*
%TD*%
D32*
%TO.C,R5*%
X-12700000Y-1550000D03*
X-12700000Y1550000D03*
%TD*%
D21*
%TO.C,C4*%
X-27940000Y1562500D03*
X-27940000Y-1562500D03*
%TD*%
D33*
%TO.C,U3*%
X-16624300Y5715000D03*
X-16624300Y6985000D03*
X-16624300Y8255000D03*
X-16624300Y9525000D03*
X-24015700Y9525000D03*
X-24015700Y8255000D03*
X-24015700Y6985000D03*
X-24015700Y5715000D03*
%TD*%
D14*
%TO.C,C2*%
X40542500Y2540000D03*
X45817500Y2540000D03*
%TD*%
D23*
%TO.C,C7*%
X22860000Y-24422500D03*
X22860000Y-21297500D03*
%TD*%
D34*
%TO.C,R2*%
X-8610000Y-22860000D03*
X-11710000Y-22860000D03*
%TD*%
D35*
%TO.C,U6*%
X36195000Y-17350000D03*
X37465000Y-17350000D03*
X38735000Y-17350000D03*
X40005000Y-17350000D03*
X41275000Y-17350000D03*
X42545000Y-17350000D03*
X43815000Y-17350000D03*
X45085000Y-17350000D03*
X45085000Y-8050000D03*
X43815000Y-8050000D03*
X42545000Y-8050000D03*
X41275000Y-8050000D03*
X40005000Y-8050000D03*
X38735000Y-8050000D03*
X37465000Y-8050000D03*
X36195000Y-8050000D03*
%TD*%
D18*
%TO.C,H2*%
X46000000Y32000000D03*
%TD*%
D32*
%TO.C,R4*%
X-17780000Y-1550000D03*
X-17780000Y1550000D03*
%TD*%
%TO.C,R3*%
X-22860000Y-1550000D03*
X-22860000Y1550000D03*
%TD*%
D13*
%TO.C,XG1*%
X15240000Y-38100000D03*
X15240000Y-43180000D03*
X17780000Y-38100000D03*
X17780000Y-43180000D03*
X20320000Y-38100000D03*
X22860000Y-38100000D03*
X25400000Y-38100000D03*
X25400000Y-43180000D03*
X27940000Y-38100000D03*
X27940000Y-43180000D03*
X30480000Y-38100000D03*
X30480000Y-43180000D03*
X33020000Y-38100000D03*
X35560000Y-38100000D03*
X38100000Y-38100000D03*
X38100000Y-43180000D03*
X20320000Y-43180000D03*
X22860000Y-43180000D03*
X33020000Y-43180000D03*
X35560000Y-43180000D03*
%TD*%
D36*
%TO.C,U1*%
X-35560000Y-27940000D03*
D37*
X-35560000Y-35440000D03*
X-35560000Y-20440000D03*
%TD*%
D38*
%TO.C,U2*%
X-39000000Y45000000D03*
X-39000000Y-45000000D03*
X-25000000Y45000000D03*
X-25000000Y-45000000D03*
%TD*%
M02*
