%TF.GenerationSoftware,KiCad,Pcbnew,10.0.3*%
%TF.CreationDate,2026-06-10T21:39:42+03:00*%
%TF.ProjectId,PMCNV-DIx32,504d434e-562d-4444-9978-33322e6b6963,rev?*%
%TF.SameCoordinates,Original*%
%TF.FileFunction,Copper,L2,Bot*%
%TF.FilePolarity,Positive*%
%FSLAX46Y46*%
G04 Gerber Fmt 4.6, Leading zero omitted, Abs format (unit mm)*
G04 Created by KiCad (PCBNEW 10.0.3) date 2026-06-10 21:39:42*
%MOMM*%
%LPD*%
G01*
G04 APERTURE LIST*
%TA.AperFunction,ComponentPad*%
%ADD10C,0.900000*%
%TD*%
%TA.AperFunction,ComponentPad*%
%ADD11C,8.600000*%
%TD*%
%TA.AperFunction,ComponentPad*%
%ADD12C,4.400000*%
%TD*%
%TA.AperFunction,ComponentPad*%
%ADD13C,2.200000*%
%TD*%
%TA.AperFunction,SMDPad,CuDef*%
%ADD14R,0.800000X0.500000*%
%TD*%
%TA.AperFunction,SMDPad,CuDef*%
%ADD15R,0.800000X0.400000*%
%TD*%
%TA.AperFunction,SMDPad,CuDef*%
%ADD16R,1.800000X0.600000*%
%TD*%
%TA.AperFunction,SMDPad,CuDef*%
%ADD17R,3.000000X2.600000*%
%TD*%
%TA.AperFunction,SMDPad,CuDef*%
%ADD18R,1.000000X1.500000*%
%TD*%
%TA.AperFunction,SMDPad,CuDef*%
%ADD19R,1.500000X1.000000*%
%TD*%
%TA.AperFunction,ViaPad*%
%ADD20C,0.800000*%
%TD*%
%TA.AperFunction,Conductor*%
%ADD21C,0.600000*%
%TD*%
%TA.AperFunction,Conductor*%
%ADD22C,0.400000*%
%TD*%
G04 APERTURE END LIST*
D10*
%TO.P,H2,1,1_1*%
%TO.N,PE*%
X18775000Y45000000D03*
X19719581Y47280419D03*
X19719581Y42719581D03*
X22000000Y48225000D03*
D11*
X22000000Y45000000D03*
D10*
X22000000Y41775000D03*
X24280419Y47280419D03*
X24280419Y42719581D03*
X25225000Y45000000D03*
%TD*%
%TO.P,H1,1,1_1*%
%TO.N,PE*%
X-28225000Y45000000D03*
X-27280419Y47280419D03*
X-27280419Y42719581D03*
X-25000000Y48225000D03*
D11*
X-25000000Y45000000D03*
D10*
X-25000000Y41775000D03*
X-22719581Y47280419D03*
X-22719581Y42719581D03*
X-21775000Y45000000D03*
%TD*%
%TO.P,H3,1,1_1*%
%TO.N,PE*%
X18775000Y-45000000D03*
X19719581Y-42719581D03*
X19719581Y-47280419D03*
X22000000Y-41775000D03*
D11*
X22000000Y-45000000D03*
D10*
X22000000Y-48225000D03*
X24280419Y-42719581D03*
X24280419Y-47280419D03*
X25225000Y-45000000D03*
%TD*%
%TO.P,H4,1,1_1*%
%TO.N,PE*%
X-28225000Y-45000000D03*
X-27280419Y-42719581D03*
X-27280419Y-47280419D03*
X-25000000Y-41775000D03*
D11*
X-25000000Y-45000000D03*
D10*
X-25000000Y-48225000D03*
X-22719581Y-42719581D03*
X-22719581Y-47280419D03*
X-21775000Y-45000000D03*
%TD*%
D12*
%TO.P,SP1,PE,PE_PE*%
%TO.N,PE*%
X13000000Y47000000D03*
X13000000Y-47000000D03*
X37000000Y47000000D03*
X37000000Y-47000000D03*
%TD*%
D13*
%TO.P,J14,1,Pin_1_1*%
%TO.N,/CH07_in*%
X35000000Y2500000D03*
%TO.P,J14,2,Pin_2_2*%
%TO.N,/CH06_in*%
X35000000Y6000000D03*
%TO.P,J14,3,Pin_3_3*%
%TO.N,/CH05_in*%
X35000000Y9500000D03*
%TO.P,J14,4,Pin_4_4*%
%TO.N,/CH04_in*%
X35000000Y13000000D03*
%TO.P,J14,5,Pin_5_5*%
%TO.N,/CH03_in*%
X35000000Y16500000D03*
%TO.P,J14,6,Pin_6_6*%
%TO.N,/CH02_in*%
X35000000Y20000000D03*
%TO.P,J14,7,Pin_7_7*%
%TO.N,/CH01_in*%
X35000000Y23500000D03*
%TO.P,J14,8,Pin_8_8*%
%TO.N,/CH00_in*%
X35000000Y27000000D03*
%TO.P,J14,9,Pin_9_9*%
%TO.N,/CH23_in*%
X22300000Y2500000D03*
%TO.P,J14,10,Pin_10_10*%
%TO.N,/CH22_in*%
X22300000Y6000000D03*
%TO.P,J14,11,Pin_11_11*%
%TO.N,/CH21_in*%
X22300000Y9500000D03*
%TO.P,J14,12,Pin_12_12*%
%TO.N,/CH20_in*%
X22300000Y13000000D03*
%TO.P,J14,13,Pin_13_13*%
%TO.N,/CH19_in*%
X22300000Y16500000D03*
%TO.P,J14,14,Pin_14_14*%
%TO.N,/CH18_in*%
X22300000Y20000000D03*
%TO.P,J14,15,Pin_15_15*%
%TO.N,/CH17_in*%
X22300000Y23500000D03*
%TO.P,J14,16,Pin_16_16*%
%TO.N,/CH16_in*%
X22300000Y27000000D03*
%TD*%
%TO.P,J6,1,Pin_1_1*%
%TO.N,PE*%
X35000000Y-39000000D03*
%TO.P,J6,2,Pin_2_2*%
%TO.N,GND_CNV*%
X35000000Y-35500000D03*
%TO.P,J6,3,Pin_3_3*%
%TO.N,L+_CNV*%
X35000000Y-32000000D03*
%TD*%
%TO.P,J15,1,Pin_1_1*%
%TO.N,/CH15_in*%
X35000000Y-27000000D03*
%TO.P,J15,2,Pin_2_2*%
%TO.N,/CH14_in*%
X35000000Y-23500000D03*
%TO.P,J15,3,Pin_3_3*%
%TO.N,/CH13_in*%
X35000000Y-20000000D03*
%TO.P,J15,4,Pin_4_4*%
%TO.N,/CH12_in*%
X35000000Y-16500000D03*
%TO.P,J15,5,Pin_5_5*%
%TO.N,/CH11_in*%
X35000000Y-13000000D03*
%TO.P,J15,6,Pin_6_6*%
%TO.N,/CH10_in*%
X35000000Y-9500000D03*
%TO.P,J15,7,Pin_7_7*%
%TO.N,/CH09_in*%
X35000000Y-6000000D03*
%TO.P,J15,8,Pin_8_8*%
%TO.N,/CH08_in*%
X35000000Y-2500000D03*
%TO.P,J15,9,Pin_9_9*%
%TO.N,/CH31_in*%
X22300000Y-27000000D03*
%TO.P,J15,10,Pin_10_10*%
%TO.N,/CH30_in*%
X22300000Y-23500000D03*
%TO.P,J15,11,Pin_11_11*%
%TO.N,/CH29_in*%
X22300000Y-20000000D03*
%TO.P,J15,12,Pin_12_12*%
%TO.N,/CH28_in*%
X22300000Y-16500000D03*
%TO.P,J15,13,Pin_13_13*%
%TO.N,/CH27_in*%
X22300000Y-13000000D03*
%TO.P,J15,14,Pin_14_14*%
%TO.N,/CH26_in*%
X22300000Y-9500000D03*
%TO.P,J15,15,Pin_15_15*%
%TO.N,/CH25_in*%
X22300000Y-6000000D03*
%TO.P,J15,16,Pin_16_16*%
%TO.N,/CH24_in*%
X22300000Y-2500000D03*
%TD*%
D14*
%TO.P,RN11,1,R1.1_1*%
%TO.N,/CH19_div*%
X15100000Y11300000D03*
D15*
%TO.P,RN11,2,R2.1_2*%
%TO.N,/CH18_div*%
X15100000Y12100000D03*
%TO.P,RN11,3,R3.1_3*%
%TO.N,/CH17_div*%
X15100000Y12900000D03*
D14*
%TO.P,RN11,4,R4.1_4*%
%TO.N,/CH16_div*%
X15100000Y13700000D03*
%TO.P,RN11,5,R4.2_5*%
%TO.N,/CH16_in*%
X16900000Y13700000D03*
D15*
%TO.P,RN11,6,R3.2_6*%
%TO.N,/CH17_in*%
X16900000Y12900000D03*
%TO.P,RN11,7,R2.2_7*%
%TO.N,/CH18_in*%
X16900000Y12100000D03*
D14*
%TO.P,RN11,8,R1.2_8*%
%TO.N,/CH19_in*%
X16900000Y11300000D03*
%TD*%
%TO.P,RN16,1,R1.1_1*%
%TO.N,/CH31_div*%
X15100000Y-33700000D03*
D15*
%TO.P,RN16,2,R2.1_2*%
%TO.N,/CH30_div*%
X15100000Y-32900000D03*
%TO.P,RN16,3,R3.1_3*%
%TO.N,/CH29_div*%
X15100000Y-32100000D03*
D14*
%TO.P,RN16,4,R4.1_4*%
%TO.N,/CH28_div*%
X15100000Y-31300000D03*
%TO.P,RN16,5,R4.2_5*%
%TO.N,/CH28_in*%
X16900000Y-31300000D03*
D15*
%TO.P,RN16,6,R3.2_6*%
%TO.N,/CH29_in*%
X16900000Y-32100000D03*
%TO.P,RN16,7,R2.2_7*%
%TO.N,/CH30_in*%
X16900000Y-32900000D03*
D14*
%TO.P,RN16,8,R1.2_8*%
%TO.N,/CH31_in*%
X16900000Y-33700000D03*
%TD*%
%TO.P,RN3,1,R1.1_1*%
%TO.N,/CH03_div*%
X15100000Y31300000D03*
D15*
%TO.P,RN3,2,R2.1_2*%
%TO.N,/CH02_div*%
X15100000Y32100000D03*
%TO.P,RN3,3,R3.1_3*%
%TO.N,/CH01_div*%
X15100000Y32900000D03*
D14*
%TO.P,RN3,4,R4.1_4*%
%TO.N,/CH00_div*%
X15100000Y33700000D03*
%TO.P,RN3,5,R4.2_5*%
%TO.N,/COM_CNV*%
X16900000Y33700000D03*
D15*
%TO.P,RN3,6,R3.2_6*%
X16900000Y32900000D03*
%TO.P,RN3,7,R2.2_7*%
X16900000Y32100000D03*
D14*
%TO.P,RN3,8,R1.2_8*%
X16900000Y31300000D03*
%TD*%
%TO.P,RN5,1,R1.1_1*%
%TO.N,/CH11_div*%
X15100000Y-8700000D03*
D15*
%TO.P,RN5,2,R2.1_2*%
%TO.N,/CH10_div*%
X15100000Y-7900000D03*
%TO.P,RN5,3,R3.1_3*%
%TO.N,/CH09_div*%
X15100000Y-7100000D03*
D14*
%TO.P,RN5,4,R4.1_4*%
%TO.N,/CH08_div*%
X15100000Y-6300000D03*
%TO.P,RN5,5,R4.2_5*%
%TO.N,/COM_CNV*%
X16900000Y-6300000D03*
D15*
%TO.P,RN5,6,R3.2_6*%
X16900000Y-7100000D03*
%TO.P,RN5,7,R2.2_7*%
X16900000Y-7900000D03*
D14*
%TO.P,RN5,8,R1.2_8*%
X16900000Y-8700000D03*
%TD*%
D16*
%TO.P,J13,1,Pin_1_1*%
%TO.N,IBUS_GND*%
X-26546000Y24500000D03*
%TO.P,J13,2,Pin_2_2*%
%TO.N,/IBUS_24V*%
X-26546000Y23500000D03*
%TO.P,J13,3,Pin_3_3*%
X-26546000Y22500000D03*
%TO.P,J13,4,Pin_4_4*%
%TO.N,IBUS_GND*%
X-26546000Y21500000D03*
%TO.P,J13,5,Pin_5_5*%
%TO.N,/IBUS_5V*%
X-26546000Y20500000D03*
%TO.P,J13,6,Pin_6_6*%
X-26546000Y19500000D03*
%TO.P,J13,7,Pin_7_7*%
%TO.N,IBUS_GND*%
X-26546000Y18500000D03*
%TO.P,J13,8,Pin_8_8*%
%TO.N,IBUS_3V3*%
X-26546000Y17500000D03*
%TO.P,J13,9,Pin_9_9*%
X-26546000Y16500000D03*
%TO.P,J13,10,Pin_10_10*%
%TO.N,IBUS_GND*%
X-26546000Y15500000D03*
%TO.P,J13,11,Pin_11_11*%
%TO.N,/IBUS_CAN_H*%
X-26546000Y14500000D03*
%TO.P,J13,12,Pin_11_12*%
%TO.N,/IBUS_CAN_L*%
X-26546000Y13500000D03*
%TO.P,J13,13,Pin_11_13*%
%TO.N,/IBUS_CAN_GND*%
X-26546000Y12500000D03*
%TO.P,J13,14,Pin_11_14*%
%TO.N,/IBUS_I2C_SDA*%
X-26546000Y11500000D03*
%TO.P,J13,15,Pin_11_15*%
%TO.N,/IBUS_I2C_SCL*%
X-26546000Y10500000D03*
%TO.P,J13,16,Pin_11_16*%
%TO.N,IBUS_GND*%
X-26546000Y9500000D03*
%TO.P,J13,17,Pin_11_17*%
%TO.N,Net-(J13-Pin_11-Pad17)*%
X-26546000Y8500000D03*
%TO.P,J13,18,Pin_11_18*%
%TO.N,Net-(J13-Pin_11-Pad18)*%
X-26546000Y7500000D03*
%TO.P,J13,19,Pin_11_19*%
%TO.N,/IBUS_RST*%
X-26546000Y6500000D03*
%TO.P,J13,20,Pin_11_20*%
%TO.N,IBUS_GND*%
X-26546000Y5500000D03*
D17*
%TO.P,J13,MP1,Pin_11_MP1*%
X-24375000Y26850000D03*
%TO.P,J13,MP2,Pin_11_MP2*%
X-24375000Y3150000D03*
%TD*%
D18*
%TO.P,JP9,1,A_1*%
%TO.N,IBUS_GND*%
X-7700000Y-20000000D03*
%TO.P,JP9,2,C_2*%
%TO.N,/A1_1*%
X-9000000Y-20000000D03*
%TO.P,JP9,3,B_3*%
%TO.N,IBUS_3V3*%
X-10300000Y-20000000D03*
%TD*%
D14*
%TO.P,RN4,1,R1.1_1*%
%TO.N,/CH07_div*%
X15100000Y26300000D03*
D15*
%TO.P,RN4,2,R2.1_2*%
%TO.N,/CH06_div*%
X15100000Y27100000D03*
%TO.P,RN4,3,R3.1_3*%
%TO.N,/CH05_div*%
X15100000Y27900000D03*
D14*
%TO.P,RN4,4,R4.1_4*%
%TO.N,/CH04_div*%
X15100000Y28700000D03*
%TO.P,RN4,5,R4.2_5*%
%TO.N,/COM_CNV*%
X16900000Y28700000D03*
D15*
%TO.P,RN4,6,R3.2_6*%
X16900000Y27900000D03*
%TO.P,RN4,7,R2.2_7*%
X16900000Y27100000D03*
D14*
%TO.P,RN4,8,R1.2_8*%
X16900000Y26300000D03*
%TD*%
%TO.P,RN15,1,R1.1_1*%
%TO.N,/CH27_div*%
X15100000Y-28700000D03*
D15*
%TO.P,RN15,2,R2.1_2*%
%TO.N,/CH26_div*%
X15100000Y-27900000D03*
%TO.P,RN15,3,R3.1_3*%
%TO.N,/CH25_div*%
X15100000Y-27100000D03*
D14*
%TO.P,RN15,4,R4.1_4*%
%TO.N,/CH24_div*%
X15100000Y-26300000D03*
%TO.P,RN15,5,R4.2_5*%
%TO.N,/CH24_in*%
X16900000Y-26300000D03*
D15*
%TO.P,RN15,6,R3.2_6*%
%TO.N,/CH25_in*%
X16900000Y-27100000D03*
%TO.P,RN15,7,R2.2_7*%
%TO.N,/CH26_in*%
X16900000Y-27900000D03*
D14*
%TO.P,RN15,8,R1.2_8*%
%TO.N,/CH27_in*%
X16900000Y-28700000D03*
%TD*%
D18*
%TO.P,JP6,1,A_1*%
%TO.N,IBUS_GND*%
X-7700000Y20000000D03*
%TO.P,JP6,2,C_2*%
%TO.N,/A1_0*%
X-9000000Y20000000D03*
%TO.P,JP6,3,B_3*%
%TO.N,IBUS_3V3*%
X-10300000Y20000000D03*
%TD*%
%TO.P,JP11,1,A_1*%
%TO.N,IBUS_GND*%
X-7700000Y-22500000D03*
%TO.P,JP11,2,C_2*%
%TO.N,/A2_1*%
X-9000000Y-22500000D03*
%TO.P,JP11,3,B_3*%
%TO.N,IBUS_3V3*%
X-10300000Y-22500000D03*
%TD*%
%TO.P,JP5,1,A_1*%
%TO.N,IBUS_GND*%
X-7700000Y22500000D03*
%TO.P,JP5,2,C_2*%
%TO.N,/A0_0*%
X-9000000Y22500000D03*
%TO.P,JP5,3,B_3*%
%TO.N,IBUS_3V3*%
X-10300000Y22500000D03*
%TD*%
D14*
%TO.P,RN12,1,R1.1_1*%
%TO.N,/CH23_div*%
X15100000Y6300000D03*
D15*
%TO.P,RN12,2,R2.1_2*%
%TO.N,/CH22_div*%
X15100000Y7100000D03*
%TO.P,RN12,3,R3.1_3*%
%TO.N,/CH21_div*%
X15100000Y7900000D03*
D14*
%TO.P,RN12,4,R4.1_4*%
%TO.N,/CH20_div*%
X15100000Y8700000D03*
%TO.P,RN12,5,R4.2_5*%
%TO.N,/CH20_in*%
X16900000Y8700000D03*
D15*
%TO.P,RN12,6,R3.2_6*%
%TO.N,/CH21_in*%
X16900000Y7900000D03*
%TO.P,RN12,7,R2.2_7*%
%TO.N,/CH22_in*%
X16900000Y7100000D03*
D14*
%TO.P,RN12,8,R1.2_8*%
%TO.N,/CH23_in*%
X16900000Y6300000D03*
%TD*%
D19*
%TO.P,JP10,1,A_1*%
%TO.N,GND_CNV*%
X27000000Y-35050000D03*
%TO.P,JP10,2,C_2*%
%TO.N,/COM_CNV*%
X27000000Y-33750000D03*
%TO.P,JP10,3,B_3*%
%TO.N,L+_CNV*%
X27000000Y-32450000D03*
%TD*%
D18*
%TO.P,JP7,1,A_1*%
%TO.N,IBUS_GND*%
X-7700000Y17500000D03*
%TO.P,JP7,2,C_2*%
%TO.N,/A2_0*%
X-9000000Y17500000D03*
%TO.P,JP7,3,B_3*%
%TO.N,IBUS_3V3*%
X-10300000Y17500000D03*
%TD*%
%TO.P,JP8,1,A_1*%
%TO.N,IBUS_GND*%
X-7700000Y-17500000D03*
%TO.P,JP8,2,C_2*%
%TO.N,/A0_1*%
X-9000000Y-17500000D03*
%TO.P,JP8,3,B_3*%
%TO.N,IBUS_3V3*%
X-10300000Y-17500000D03*
%TD*%
D14*
%TO.P,RN6,1,R1.1_1*%
%TO.N,/CH15_div*%
X15100000Y-13700000D03*
D15*
%TO.P,RN6,2,R2.1_2*%
%TO.N,/CH14_div*%
X15100000Y-12900000D03*
%TO.P,RN6,3,R3.1_3*%
%TO.N,/CH13_div*%
X15100000Y-12100000D03*
D14*
%TO.P,RN6,4,R4.1_4*%
%TO.N,/CH12_div*%
X15100000Y-11300000D03*
%TO.P,RN6,5,R4.2_5*%
%TO.N,/COM_CNV*%
X16900000Y-11300000D03*
D15*
%TO.P,RN6,6,R3.2_6*%
X16900000Y-12100000D03*
%TO.P,RN6,7,R2.2_7*%
X16900000Y-12900000D03*
D14*
%TO.P,RN6,8,R1.2_8*%
X16900000Y-13700000D03*
%TD*%
D20*
%TO.N,IBUS_GND*%
X-16500000Y24500000D03*
X-17500000Y23500000D03*
X-18500000Y24500000D03*
X-17500000Y25500000D03*
%TO.N,/IBUS_I2C_SDA*%
X-19000000Y11500000D03*
%TO.N,/IBUS_I2C_SCL*%
X-18000000Y10500000D03*
%TO.N,/IBUS_I2C_SDA*%
X-19000000Y21000000D03*
%TO.N,/IBUS_I2C_SCL*%
X-18000000Y20000000D03*
%TO.N,/IBUS_5V*%
X-25000000Y20500000D03*
X-25000000Y19500000D03*
%TO.N,IBUS_3V3*%
X-25000000Y17500000D03*
X-25000000Y16500000D03*
%TO.N,/IBUS_CAN_H*%
X-25000000Y14500000D03*
%TO.N,/IBUS_CAN_L*%
X-25000000Y13500000D03*
%TO.N,/IBUS_CAN_GND*%
X-25000000Y12500000D03*
%TO.N,/IBUS_I2C_SDA*%
X-25000000Y11500000D03*
%TO.N,/IBUS_I2C_SCL*%
X-25000000Y10500000D03*
%TO.N,Net-(J13-Pin_11-Pad17)*%
X-25000000Y8500000D03*
%TO.N,Net-(J13-Pin_11-Pad18)*%
X-25000000Y7500000D03*
%TO.N,/IBUS_RST*%
X-25000000Y6500000D03*
%TO.N,IBUS_GND*%
X-25000000Y5500000D03*
X-25000000Y9500000D03*
X-25000000Y15500000D03*
X-25000000Y18500000D03*
%TO.N,*%
X-25000000Y21500000D03*
%TO.N,IBUS_GND*%
X-25000000Y24500000D03*
%TO.N,/IBUS_24V*%
X-25000000Y22500000D03*
X-25000000Y23500000D03*
%TO.N,IBUS_3V3*%
X-20000000Y27000000D03*
X-12000000Y-21870000D03*
X-12000000Y22150000D03*
X4333631Y29807500D03*
X4250000Y-30192500D03*
X-12000000Y-20000000D03*
X-12000000Y-17850000D03*
X-12000000Y20000000D03*
X-12000000Y18130000D03*
X-20000000Y-12500000D03*
X4250000Y9807500D03*
X4250000Y-10192500D03*
%TO.N,/IBUS_I2C_SCL*%
X-18000000Y-17000000D03*
%TO.N,/IBUS_I2C_SDA*%
X-19000000Y-14500000D03*
%TO.N,/A0_0*%
X-15500000Y19000000D03*
%TO.N,/A1_0*%
X-14500000Y18500000D03*
%TO.N,/A2_0*%
X-13500000Y18000000D03*
%TO.N,/IBUS_RST*%
X-17000000Y13500000D03*
X-17000000Y6500000D03*
X-17000000Y-25500000D03*
%TO.N,/CH20_div*%
X13000000Y9000000D03*
%TO.N,/CH21_div*%
X13000000Y8000000D03*
%TO.N,/CH22_div*%
X13000000Y7000000D03*
%TO.N,/CH23_div*%
X13000000Y6000000D03*
%TO.N,/COM_CNV*%
X23000000Y-33000000D03*
X24000000Y-34000000D03*
X24000000Y-32000000D03*
X23000000Y-35000000D03*
X24000000Y-36000000D03*
%TO.N,/CH00_div*%
X13000000Y34000000D03*
%TO.N,/CH01_div*%
X13000000Y33000000D03*
%TO.N,/CH02_div*%
X13000000Y32000000D03*
%TO.N,/CH03_div*%
X13000000Y31000000D03*
%TO.N,/CH07_div*%
X13000000Y26000000D03*
%TO.N,/CH06_div*%
X13000000Y27000000D03*
%TO.N,/CH05_div*%
X13000000Y28000000D03*
%TO.N,/CH04_div*%
X13000000Y29000000D03*
%TO.N,/CH16_div*%
X13000000Y14000000D03*
%TO.N,/CH17_div*%
X13000000Y13000000D03*
%TO.N,/CH18_div*%
X13000000Y12000000D03*
%TO.N,/CH19_div*%
X13000000Y11000000D03*
%TO.N,/CH12_div*%
X13000000Y-11000000D03*
%TO.N,/CH13_div*%
X13000000Y-12000000D03*
%TO.N,/CH14_div*%
X13000000Y-13000000D03*
%TO.N,/CH15_div*%
X13000000Y-14000000D03*
%TO.N,/CH08_div*%
X13000000Y-6000000D03*
%TO.N,/CH09_div*%
X13000000Y-7000000D03*
%TO.N,/CH10_div*%
X13000000Y-8000000D03*
%TO.N,/CH11_div*%
X13000000Y-9000000D03*
%TO.N,/CH16*%
X-13000000Y-12000000D03*
X-1000000Y14500000D03*
%TO.N,/CH17*%
X-12000000Y-13000000D03*
X-1000000Y13500000D03*
%TO.N,/CH18*%
X-1000000Y12500000D03*
X-11000000Y-12000000D03*
%TO.N,/CH19*%
X-1000000Y11500000D03*
X-10000000Y-12500000D03*
%TO.N,/CH20*%
X-9000000Y-12000000D03*
X-1000000Y10500000D03*
%TO.N,/CH21*%
X-8000000Y-12500000D03*
X-1000000Y9500000D03*
%TO.N,/CH22*%
X-7000000Y-12000000D03*
X-1000000Y8500000D03*
%TO.N,/CH23*%
X-1000000Y7500000D03*
X-6000000Y-13000000D03*
%TO.N,/CH28_div*%
X13000000Y-31000000D03*
%TO.N,/CH29_div*%
X13000000Y-32000000D03*
%TO.N,/CH30_div*%
X13000000Y-33000000D03*
%TO.N,/CH31_div*%
X13000000Y-34000000D03*
%TO.N,/A0_1*%
X-15500000Y-21000000D03*
%TO.N,/A1_1*%
X-14500000Y-21500000D03*
%TO.N,/A2_1*%
X-13500000Y-22000000D03*
%TO.N,/CH27_div*%
X13000000Y-29000000D03*
%TO.N,/CH26_div*%
X13000000Y-28000000D03*
%TO.N,/CH25_div*%
X13000000Y-27000000D03*
%TO.N,/CH24_div*%
X13000000Y-26000000D03*
%TD*%
%TO.N,IBUS_3V3*%
D21*
X-26546000Y17500000D02*
X-27666000Y17500000D01*
X-29200000Y19034000D02*
X-29200000Y36050000D01*
X-26850000Y38400000D02*
X-22266190Y38400000D01*
X-27666000Y17500000D02*
X-29200000Y19034000D01*
X-29200000Y36050000D02*
X-26850000Y38400000D01*
X-22266190Y38400000D02*
X-19416190Y41250000D01*
X-19416190Y41250000D02*
X-250000Y41250000D01*
X-250000Y41250000D02*
X4250000Y36750000D01*
X4250000Y36750000D02*
X4250000Y-30250000D01*
%TO.N,/IBUS_24V*%
X-26546000Y23500000D02*
X-26546000Y22500000D01*
%TO.N,/IBUS_5V*%
X-26546000Y20500000D02*
X-26546000Y19500000D01*
%TO.N,IBUS_3V3*%
X-26546000Y17500000D02*
X-26546000Y16500000D01*
X-25000000Y17500000D02*
X-25000000Y16500000D01*
%TO.N,/IBUS_5V*%
X-25000000Y20500000D02*
X-25000000Y19500000D01*
%TO.N,/IBUS_24V*%
X-25000000Y23500000D02*
X-25000000Y22500000D01*
%TO.N,/IBUS_5V*%
X-25000000Y20500000D02*
X-26546000Y20500000D01*
X-25000000Y19500000D02*
X-26546000Y19500000D01*
%TO.N,IBUS_3V3*%
X-25000000Y17500000D02*
X-26546000Y17500000D01*
X-25000000Y16500000D02*
X-26546000Y16500000D01*
%TO.N,/IBUS_CAN_H*%
X-25000000Y14500000D02*
X-26546000Y14500000D01*
%TO.N,/IBUS_CAN_L*%
X-25000000Y13500000D02*
X-26546000Y13500000D01*
%TO.N,/IBUS_CAN_GND*%
X-25000000Y12500000D02*
X-26546000Y12500000D01*
%TO.N,/IBUS_I2C_SDA*%
X-25000000Y11500000D02*
X-26546000Y11500000D01*
%TO.N,/IBUS_I2C_SCL*%
X-25000000Y10500000D02*
X-26546000Y10500000D01*
%TO.N,Net-(J13-Pin_11-Pad17)*%
X-25000000Y8500000D02*
X-26546000Y8500000D01*
%TO.N,Net-(J13-Pin_11-Pad18)*%
X-25000000Y7500000D02*
X-26546000Y7500000D01*
%TO.N,/IBUS_RST*%
X-25000000Y6500000D02*
X-26546000Y6500000D01*
%TO.N,/IBUS_24V*%
X-25000000Y22500000D02*
X-26546000Y22500000D01*
X-25000000Y23500000D02*
X-26546000Y23500000D01*
%TO.N,IBUS_3V3*%
D22*
X-10300000Y-17500000D02*
X-11650000Y-17500000D01*
X-11650000Y-17500000D02*
X-12000000Y-17850000D01*
X-12000000Y-21870000D02*
X-12000000Y-22197508D01*
X-10300000Y22500000D02*
X-11650000Y22500000D01*
X-10300000Y20000000D02*
X-12000000Y20000000D01*
X-11697508Y17500000D02*
X-10300000Y17500000D01*
X-11650000Y22500000D02*
X-12000000Y22150000D01*
X-12000000Y18130000D02*
X-12000000Y17802492D01*
X-12000000Y17802492D02*
X-11697508Y17500000D01*
X-10300000Y-20000000D02*
X-12000000Y-20000000D01*
X-12000000Y-22197508D02*
X-11697508Y-22500000D01*
X-20000000Y27000000D02*
X-20000000Y-12500000D01*
X-11697508Y-22500000D02*
X-10300000Y-22500000D01*
%TO.N,/IBUS_I2C_SCL*%
X-18000000Y-17000000D02*
X-18000000Y20000000D01*
%TO.N,/IBUS_I2C_SDA*%
X-19000000Y-14500000D02*
X-19000000Y21000000D01*
%TO.N,/A0_0*%
X-9440000Y21390000D02*
X-9000000Y21830000D01*
X-15500000Y19000000D02*
X-13110000Y21390000D01*
X-9000000Y21830000D02*
X-9000000Y22500000D01*
X-13110000Y21390000D02*
X-9440000Y21390000D01*
%TO.N,/A1_0*%
X-9000000Y20000000D02*
X-9000000Y19330000D01*
X-14110000Y18890000D02*
X-14500000Y18500000D01*
X-9440000Y18890000D02*
X-14110000Y18890000D01*
X-9000000Y19330000D02*
X-9440000Y18890000D01*
%TO.N,/A2_0*%
X-9000000Y17500000D02*
X-9000000Y16830000D01*
X-9440000Y16390000D02*
X-12390000Y16390000D01*
X-9000000Y16830000D02*
X-9440000Y16390000D01*
X-12390000Y16390000D02*
X-13500000Y17500000D01*
X-13500000Y17500000D02*
X-13500000Y18000000D01*
%TO.N,/IBUS_RST*%
X-17000000Y-25500000D02*
X-17000000Y13500000D01*
%TO.N,/CH20_div*%
X13000000Y9000000D02*
X14800000Y9000000D01*
X14800000Y9000000D02*
X15100000Y8700000D01*
%TO.N,/CH21_div*%
X13100000Y7900000D02*
X13000000Y8000000D01*
X15100000Y7900000D02*
X13100000Y7900000D01*
%TO.N,/CH22_div*%
X13100000Y7100000D02*
X13000000Y7000000D01*
X15100000Y7100000D02*
X13100000Y7100000D01*
%TO.N,/CH23_div*%
X14800000Y6000000D02*
X13000000Y6000000D01*
X15100000Y6300000D02*
X14800000Y6000000D01*
%TO.N,/CH00_div*%
X14800000Y34000000D02*
X13000000Y34000000D01*
X15100000Y33700000D02*
X14800000Y34000000D01*
%TO.N,/CH01_div*%
X15100000Y32900000D02*
X13100000Y32900000D01*
X13100000Y32900000D02*
X13000000Y33000000D01*
%TO.N,/CH02_div*%
X13100000Y32100000D02*
X13000000Y32000000D01*
X15100000Y32100000D02*
X13100000Y32100000D01*
%TO.N,/CH03_div*%
X15100000Y31300000D02*
X14800000Y31000000D01*
X14800000Y31000000D02*
X13000000Y31000000D01*
%TO.N,/CH07_div*%
X15100000Y26300000D02*
X14800000Y26000000D01*
X14800000Y26000000D02*
X13000000Y26000000D01*
%TO.N,/CH06_div*%
X13100000Y27100000D02*
X13000000Y27000000D01*
X15100000Y27100000D02*
X13100000Y27100000D01*
%TO.N,/CH05_div*%
X13100000Y27900000D02*
X13000000Y28000000D01*
X15100000Y27900000D02*
X13100000Y27900000D01*
%TO.N,/CH04_div*%
X13000000Y29000000D02*
X14800000Y29000000D01*
X14800000Y29000000D02*
X15100000Y28700000D01*
%TO.N,/CH16_div*%
X14800000Y14000000D02*
X13000000Y14000000D01*
X15100000Y13700000D02*
X14800000Y14000000D01*
%TO.N,/CH17_div*%
X15100000Y12900000D02*
X13100000Y12900000D01*
X13100000Y12900000D02*
X13000000Y13000000D01*
%TO.N,/CH18_div*%
X15100000Y12100000D02*
X13100000Y12100000D01*
X13100000Y12100000D02*
X13000000Y12000000D01*
%TO.N,/CH19_div*%
X14800000Y11000000D02*
X13000000Y11000000D01*
X15100000Y11300000D02*
X14800000Y11000000D01*
%TO.N,/CH12_div*%
X14800000Y-11000000D02*
X15100000Y-11300000D01*
X13000000Y-11000000D02*
X14800000Y-11000000D01*
%TO.N,/CH13_div*%
X13100000Y-12100000D02*
X13000000Y-12000000D01*
X15100000Y-12100000D02*
X13100000Y-12100000D01*
%TO.N,/CH14_div*%
X15100000Y-12900000D02*
X13100000Y-12900000D01*
X13100000Y-12900000D02*
X13000000Y-13000000D01*
%TO.N,/CH15_div*%
X14800000Y-14000000D02*
X13000000Y-14000000D01*
X15100000Y-13700000D02*
X14800000Y-14000000D01*
%TO.N,/CH23_in*%
X22300000Y2500000D02*
X20700000Y2500000D01*
X20700000Y2500000D02*
X16900000Y6300000D01*
%TO.N,/CH22_in*%
X21200000Y7100000D02*
X16900000Y7100000D01*
X22300000Y6000000D02*
X21200000Y7100000D01*
%TO.N,/CH21_in*%
X20700000Y7900000D02*
X16900000Y7900000D01*
X22300000Y9500000D02*
X20700000Y7900000D01*
%TO.N,/CH20_in*%
X22300000Y13000000D02*
X18000000Y8700000D01*
X18000000Y8700000D02*
X16900000Y8700000D01*
%TO.N,/CH19_in*%
X22300000Y15851472D02*
X17748528Y11300000D01*
X22300000Y16500000D02*
X22300000Y15851472D01*
X17748528Y11300000D02*
X16900000Y11300000D01*
%TO.N,/CH18_in*%
X20500000Y18200000D02*
X22300000Y20000000D01*
X17700000Y12100000D02*
X20500000Y14900000D01*
X16900000Y12100000D02*
X17700000Y12100000D01*
X20500000Y14900000D02*
X20500000Y18200000D01*
%TO.N,/CH17_in*%
X17700000Y18900000D02*
X17700000Y13050000D01*
X17700000Y13050000D02*
X17550000Y12900000D01*
X17550000Y12900000D02*
X16900000Y12900000D01*
X22300000Y23500000D02*
X17700000Y18900000D01*
%TO.N,/CH16_in*%
X22300000Y27000000D02*
X16900000Y21600000D01*
X16900000Y21600000D02*
X16900000Y13700000D01*
%TO.N,/CH08_div*%
X15100000Y-6300000D02*
X14800000Y-6000000D01*
X14800000Y-6000000D02*
X13000000Y-6000000D01*
%TO.N,/CH09_div*%
X15100000Y-7100000D02*
X13100000Y-7100000D01*
X13100000Y-7100000D02*
X13000000Y-7000000D01*
%TO.N,/CH10_div*%
X15100000Y-7900000D02*
X13100000Y-7900000D01*
X13100000Y-7900000D02*
X13000000Y-8000000D01*
%TO.N,/CH11_div*%
X15100000Y-8700000D02*
X14800000Y-9000000D01*
X14800000Y-9000000D02*
X13000000Y-9000000D01*
%TO.N,GND_CNV*%
D21*
X34550000Y-35050000D02*
X35000000Y-35500000D01*
X27000000Y-35050000D02*
X34550000Y-35050000D01*
%TO.N,L+_CNV*%
X34550000Y-32450000D02*
X35000000Y-32000000D01*
X27000000Y-32450000D02*
X34550000Y-32450000D01*
%TO.N,/CH16*%
D22*
X-13000000Y3500000D02*
X-13000000Y-12000000D01*
X-2000000Y14500000D02*
X-13000000Y3500000D01*
X-1000000Y14500000D02*
X-2000000Y14500000D01*
%TO.N,/CH17*%
X-2208040Y13500000D02*
X-1000000Y13500000D01*
X-12000000Y3708040D02*
X-2208040Y13500000D01*
X-12000000Y-13000000D02*
X-12000000Y3708040D01*
%TO.N,/CH18*%
X-2416080Y12500000D02*
X-1000000Y12500000D01*
X-11000000Y-12000000D02*
X-11000000Y3916080D01*
X-11000000Y3916080D02*
X-2416080Y12500000D01*
%TO.N,/CH19*%
X-10000000Y4124120D02*
X-2624120Y11500000D01*
X-10000000Y-12500000D02*
X-10000000Y4124120D01*
X-2624120Y11500000D02*
X-1000000Y11500000D01*
%TO.N,/CH20*%
X-9000000Y-12000000D02*
X-9000000Y4332160D01*
X-9000000Y4332160D02*
X-2832160Y10500000D01*
X-2832160Y10500000D02*
X-1000000Y10500000D01*
%TO.N,/CH21*%
X-8000000Y-12500000D02*
X-8000000Y4540200D01*
X-3040200Y9500000D02*
X-1000000Y9500000D01*
X-8000000Y4540200D02*
X-3040200Y9500000D01*
%TO.N,/CH22*%
X-3248240Y8500000D02*
X-1000000Y8500000D01*
X-7000000Y-12000000D02*
X-7000000Y4748240D01*
X-7000000Y4748240D02*
X-3248240Y8500000D01*
%TO.N,/CH23*%
X-3456280Y7500000D02*
X-1000000Y7500000D01*
X-6000000Y4956280D02*
X-3456280Y7500000D01*
X-6000000Y-13000000D02*
X-6000000Y4956280D01*
%TO.N,/CH28_div*%
X13000000Y-31000000D02*
X14800000Y-31000000D01*
X14800000Y-31000000D02*
X15100000Y-31300000D01*
%TO.N,/CH29_div*%
X15100000Y-32100000D02*
X13100000Y-32100000D01*
X13100000Y-32100000D02*
X13000000Y-32000000D01*
%TO.N,/CH30_div*%
X15100000Y-32900000D02*
X13100000Y-32900000D01*
X13100000Y-32900000D02*
X13000000Y-33000000D01*
%TO.N,/CH31_div*%
X14800000Y-34000000D02*
X13000000Y-34000000D01*
X15100000Y-33700000D02*
X14800000Y-34000000D01*
%TO.N,/A0_1*%
X-13110000Y-18610000D02*
X-9440000Y-18610000D01*
X-9000000Y-18170000D02*
X-9000000Y-17500000D01*
X-9440000Y-18610000D02*
X-9000000Y-18170000D01*
X-15500000Y-21000000D02*
X-13110000Y-18610000D01*
%TO.N,/A1_1*%
X-9000000Y-20000000D02*
X-9000000Y-20670000D01*
X-9000000Y-20670000D02*
X-9440000Y-21110000D01*
X-14110000Y-21110000D02*
X-14500000Y-21500000D01*
X-9440000Y-21110000D02*
X-14110000Y-21110000D01*
%TO.N,/A2_1*%
X-9000000Y-22500000D02*
X-9000000Y-23170000D01*
X-12390000Y-23610000D02*
X-13500000Y-22500000D01*
X-13500000Y-22500000D02*
X-13500000Y-22000000D01*
X-9000000Y-23170000D02*
X-9440000Y-23610000D01*
X-9440000Y-23610000D02*
X-12390000Y-23610000D01*
%TO.N,/CH27_div*%
X14800000Y-29000000D02*
X13000000Y-29000000D01*
X15100000Y-28700000D02*
X14800000Y-29000000D01*
%TO.N,/CH26_div*%
X15100000Y-27900000D02*
X13100000Y-27900000D01*
X13100000Y-27900000D02*
X13000000Y-28000000D01*
%TO.N,/CH25_div*%
X13100000Y-27100000D02*
X13000000Y-27000000D01*
X15100000Y-27100000D02*
X13100000Y-27100000D01*
%TO.N,/CH24_div*%
X15100000Y-26300000D02*
X14800000Y-26000000D01*
X14800000Y-26000000D02*
X13000000Y-26000000D01*
%TO.N,/CH31_in*%
X17797056Y-33700000D02*
X22300000Y-29197056D01*
X22300000Y-29197056D02*
X22300000Y-27000000D01*
X16900000Y-33700000D02*
X17797056Y-33700000D01*
%TO.N,/CH30_in*%
X20800000Y-25000000D02*
X20800000Y-29848528D01*
X17748528Y-32900000D02*
X16900000Y-32900000D01*
X20800000Y-29848528D02*
X17748528Y-32900000D01*
X22300000Y-23500000D02*
X20800000Y-25000000D01*
%TO.N,/CH29_in*%
X17700000Y-32100000D02*
X16900000Y-32100000D01*
X20200000Y-29600000D02*
X17700000Y-32100000D01*
X20200000Y-22100000D02*
X20200000Y-29600000D01*
X22300000Y-20000000D02*
X20200000Y-22100000D01*
%TO.N,/CH28_in*%
X19600000Y-29351472D02*
X17651472Y-31300000D01*
X22300000Y-16500000D02*
X19600000Y-19200000D01*
X17651472Y-31300000D02*
X16900000Y-31300000D01*
X19600000Y-19200000D02*
X19600000Y-29351472D01*
%TO.N,/CH27_in*%
X19000000Y-27400000D02*
X17700000Y-28700000D01*
X17700000Y-28700000D02*
X16900000Y-28700000D01*
X22300000Y-13000000D02*
X19000000Y-16300000D01*
X19000000Y-16300000D02*
X19000000Y-27400000D01*
%TO.N,/CH26_in*%
X16900000Y-27900000D02*
X17598528Y-27900000D01*
X18400000Y-27098528D02*
X18400000Y-16051472D01*
X17598528Y-27900000D02*
X18400000Y-27098528D01*
X19500000Y-12300000D02*
X22300000Y-9500000D01*
X19500000Y-14951472D02*
X19500000Y-12300000D01*
X18400000Y-16051472D02*
X19500000Y-14951472D01*
%TO.N,/CH25_in*%
X17800000Y-15802944D02*
X17800000Y-26850000D01*
X17550000Y-27100000D02*
X16900000Y-27100000D01*
X17800000Y-26850000D02*
X17550000Y-27100000D01*
X18900000Y-9400000D02*
X18900000Y-14702944D01*
X18900000Y-14702944D02*
X17800000Y-15802944D01*
X22300000Y-6000000D02*
X18900000Y-9400000D01*
%TO.N,/CH24_in*%
X18300000Y-14454416D02*
X17200000Y-15554416D01*
X17200000Y-15554416D02*
X17200000Y-26000000D01*
X17200000Y-26000000D02*
X16900000Y-26300000D01*
X22300000Y-2500000D02*
X18300000Y-6500000D01*
X18300000Y-6500000D02*
X18300000Y-14454416D01*
%TD*%
%TA.AperFunction,Conductor*%
%TO.N,IBUS_GND*%
G36*
X6943039Y41980315D02*
G01*
X6988794Y41927511D01*
X7000000Y41876000D01*
X7000000Y-41876000D01*
X6980315Y-41943039D01*
X6927511Y-41988794D01*
X6876000Y-42000000D01*
X-20565357Y-42000000D01*
X-20632396Y-41980315D01*
X-20666932Y-41947123D01*
X-20669792Y-41943039D01*
X-20790824Y-41770186D01*
X-20790825Y-41770184D01*
X-21088341Y-41415619D01*
X-21415620Y-41088340D01*
X-21770185Y-40790824D01*
X-22149313Y-40525356D01*
X-22149324Y-40525349D01*
X-22149330Y-40525345D01*
X-22268419Y-40456589D01*
X-22550164Y-40293923D01*
X-22550180Y-40293915D01*
X-22969637Y-40098318D01*
X-22969645Y-40098315D01*
X-22969647Y-40098314D01*
X-22969654Y-40098311D01*
X-23404590Y-39940007D01*
X-23404591Y-39940006D01*
X-23404601Y-39940003D01*
X-23851662Y-39820215D01*
X-23851659Y-39820215D01*
X-23851669Y-39820213D01*
X-23851675Y-39820211D01*
X-23851679Y-39820211D01*
X-24307483Y-39739840D01*
X-24768572Y-39699500D01*
X-24768575Y-39699500D01*
X-25231425Y-39699500D01*
X-25231429Y-39699500D01*
X-25692516Y-39739840D01*
X-25692520Y-39739840D01*
X-26148322Y-39820211D01*
X-26148339Y-39820215D01*
X-26595400Y-39940003D01*
X-26812878Y-40019159D01*
X-27030346Y-40098311D01*
X-27030350Y-40098312D01*
X-27030356Y-40098315D01*
X-27030364Y-40098318D01*
X-27449821Y-40293915D01*
X-27449837Y-40293923D01*
X-27850662Y-40525340D01*
X-27850688Y-40525356D01*
X-28229816Y-40790824D01*
X-28584381Y-41088340D01*
X-28911660Y-41415619D01*
X-29209176Y-41770184D01*
X-29273925Y-41862657D01*
X-29328502Y-41906282D01*
X-29398000Y-41913476D01*
X-29460355Y-41881953D01*
X-29495769Y-41821723D01*
X-29499500Y-41791534D01*
X-29499500Y1802156D01*
X-26375000Y1802156D01*
X-26368599Y1742628D01*
X-26368597Y1742621D01*
X-26318355Y1607914D01*
X-26318351Y1607907D01*
X-26232191Y1492813D01*
X-26232188Y1492810D01*
X-26117094Y1406650D01*
X-26117087Y1406646D01*
X-25982380Y1356404D01*
X-25982373Y1356402D01*
X-25922845Y1350001D01*
X-25922828Y1350000D01*
X-24625000Y1350000D01*
X-24125000Y1350000D01*
X-22827172Y1350000D01*
X-22827156Y1350001D01*
X-22767628Y1356402D01*
X-22767621Y1356404D01*
X-22632914Y1406646D01*
X-22632907Y1406650D01*
X-22517813Y1492810D01*
X-22517810Y1492813D01*
X-22431650Y1607907D01*
X-22431646Y1607914D01*
X-22381404Y1742621D01*
X-22381402Y1742628D01*
X-22375001Y1802156D01*
X-22375000Y1802173D01*
X-22375000Y2900000D01*
X-24125000Y2900000D01*
X-24125000Y1350000D01*
X-24625000Y1350000D01*
X-24625000Y2900000D01*
X-26375000Y2900000D01*
X-26375000Y1802156D01*
X-29499500Y1802156D01*
X-29499500Y4475248D01*
X-26375000Y4475248D01*
X-26375000Y3400000D01*
X-24625000Y3400000D01*
X-24125000Y3400000D01*
X-22375000Y3400000D01*
X-22375000Y4497828D01*
X-22375001Y4497845D01*
X-22381402Y4557373D01*
X-22381404Y4557380D01*
X-22431646Y4692087D01*
X-22431650Y4692094D01*
X-22517810Y4807188D01*
X-22517813Y4807191D01*
X-22632907Y4893351D01*
X-22632914Y4893355D01*
X-22767621Y4943597D01*
X-22767628Y4943599D01*
X-22827156Y4950000D01*
X-24125000Y4950000D01*
X-24125000Y3400000D01*
X-24625000Y3400000D01*
X-24625000Y4950000D01*
X-25029690Y4950000D01*
X-25096729Y4969685D01*
X-25142484Y5022489D01*
X-25152979Y5087256D01*
X-25146001Y5152156D01*
X-25146000Y5152173D01*
X-25146000Y5250000D01*
X-26296000Y5250000D01*
X-26296000Y4682001D01*
X-26298260Y4674307D01*
X-26296987Y4666389D01*
X-26306368Y4632364D01*
X-26375000Y4475248D01*
X-29499500Y4475248D01*
X-29499500Y5152156D01*
X-27946000Y5152156D01*
X-27939599Y5092628D01*
X-27939597Y5092621D01*
X-27889355Y4957914D01*
X-27889351Y4957907D01*
X-27803191Y4842813D01*
X-27803188Y4842810D01*
X-27688094Y4756650D01*
X-27688087Y4756646D01*
X-27553380Y4706404D01*
X-27553373Y4706402D01*
X-27493845Y4700001D01*
X-27493828Y4700000D01*
X-26796000Y4700000D01*
X-26796000Y5250000D01*
X-27946000Y5250000D01*
X-27946000Y5152156D01*
X-29499500Y5152156D01*
X-29499500Y9152156D01*
X-27946000Y9152156D01*
X-27939599Y9092628D01*
X-27939597Y9092621D01*
X-27889355Y8957914D01*
X-27889353Y8957912D01*
X-27803191Y8842814D01*
X-27803189Y8842812D01*
X-27796191Y8837573D01*
X-27754319Y8781641D01*
X-27746500Y8738305D01*
X-27746500Y8155144D01*
X-27746498Y8155118D01*
X-27743587Y8130013D01*
X-27743586Y8130012D01*
X-27743586Y8130010D01*
X-27743585Y8130009D01*
X-27708296Y8050087D01*
X-27699224Y7980809D01*
X-27708295Y7949917D01*
X-27716599Y7931109D01*
X-27743585Y7869991D01*
X-27746500Y7844869D01*
X-27746500Y7155144D01*
X-27746498Y7155118D01*
X-27743587Y7130013D01*
X-27743586Y7130012D01*
X-27743586Y7130010D01*
X-27743585Y7130009D01*
X-27708296Y7050087D01*
X-27699224Y6980809D01*
X-27708295Y6949917D01*
X-27716599Y6931109D01*
X-27743585Y6869991D01*
X-27746500Y6844869D01*
X-27746500Y6261697D01*
X-27766185Y6194658D01*
X-27796185Y6162434D01*
X-27803182Y6157196D01*
X-27803192Y6157186D01*
X-27889351Y6042094D01*
X-27889355Y6042087D01*
X-27939597Y5907380D01*
X-27939599Y5907373D01*
X-27946000Y5847845D01*
X-27946000Y5750000D01*
X-25146000Y5750000D01*
X-25132819Y5763181D01*
X-25071496Y5796666D01*
X-25045138Y5799500D01*
X-24931005Y5799500D01*
X-24839959Y5817611D01*
X-24795672Y5826420D01*
X-24668189Y5879225D01*
X-24553458Y5955886D01*
X-24455886Y6053458D01*
X-24379225Y6168189D01*
X-24326420Y6295672D01*
X-24299500Y6431007D01*
X-24299500Y6568993D01*
X-24299500Y6568996D01*
X-24326419Y6704323D01*
X-24326420Y6704324D01*
X-24326420Y6704328D01*
X-24365841Y6799500D01*
X-24379222Y6831805D01*
X-24379224Y6831809D01*
X-24379225Y6831811D01*
X-24445575Y6931110D01*
X-24466452Y6997786D01*
X-24447968Y7065166D01*
X-24445574Y7068891D01*
X-24379225Y7168189D01*
X-24326420Y7295672D01*
X-24299500Y7431007D01*
X-24299500Y7568993D01*
X-24299500Y7568996D01*
X-24326419Y7704323D01*
X-24326420Y7704324D01*
X-24326420Y7704328D01*
X-24326422Y7704333D01*
X-24379222Y7831805D01*
X-24379224Y7831809D01*
X-24379225Y7831811D01*
X-24445575Y7931110D01*
X-24466452Y7997786D01*
X-24447968Y8065166D01*
X-24445574Y8068891D01*
X-24379225Y8168189D01*
X-24326420Y8295672D01*
X-24299500Y8431007D01*
X-24299500Y8568993D01*
X-24299500Y8568996D01*
X-24326419Y8704323D01*
X-24326420Y8704324D01*
X-24326420Y8704328D01*
X-24326422Y8704333D01*
X-24379222Y8831805D01*
X-24379229Y8831818D01*
X-24455886Y8946542D01*
X-24455889Y8946546D01*
X-24553455Y9044112D01*
X-24553459Y9044115D01*
X-24668183Y9120772D01*
X-24668196Y9120779D01*
X-24795668Y9173579D01*
X-24795678Y9173582D01*
X-24931005Y9200500D01*
X-24931007Y9200500D01*
X-25045138Y9200500D01*
X-25112177Y9220185D01*
X-25132819Y9236819D01*
X-25146000Y9250000D01*
X-27946000Y9250000D01*
X-27946000Y9152156D01*
X-29499500Y9152156D01*
X-29499500Y15152156D01*
X-27946000Y15152156D01*
X-27939599Y15092628D01*
X-27939597Y15092621D01*
X-27889355Y14957914D01*
X-27889353Y14957912D01*
X-27803191Y14842814D01*
X-27803189Y14842812D01*
X-27796191Y14837573D01*
X-27754319Y14781641D01*
X-27746500Y14738305D01*
X-27746500Y14155144D01*
X-27746498Y14155118D01*
X-27743587Y14130013D01*
X-27743586Y14130012D01*
X-27743586Y14130010D01*
X-27743585Y14130009D01*
X-27708296Y14050087D01*
X-27699224Y13980809D01*
X-27708295Y13949917D01*
X-27716599Y13931109D01*
X-27743585Y13869991D01*
X-27746500Y13844869D01*
X-27746500Y13155144D01*
X-27746498Y13155118D01*
X-27743587Y13130013D01*
X-27743586Y13130012D01*
X-27743586Y13130010D01*
X-27743585Y13130009D01*
X-27708296Y13050087D01*
X-27699224Y12980809D01*
X-27708295Y12949917D01*
X-27716599Y12931109D01*
X-27743585Y12869991D01*
X-27746500Y12844869D01*
X-27746500Y12155144D01*
X-27746498Y12155118D01*
X-27743587Y12130013D01*
X-27743586Y12130012D01*
X-27743586Y12130010D01*
X-27743585Y12130009D01*
X-27708296Y12050087D01*
X-27699224Y11980809D01*
X-27708295Y11949917D01*
X-27716599Y11931109D01*
X-27743585Y11869991D01*
X-27746500Y11844869D01*
X-27746500Y11155144D01*
X-27746498Y11155118D01*
X-27743587Y11130013D01*
X-27743586Y11130012D01*
X-27743586Y11130010D01*
X-27743585Y11130009D01*
X-27708296Y11050087D01*
X-27699224Y10980809D01*
X-27708295Y10949917D01*
X-27716599Y10931109D01*
X-27743585Y10869991D01*
X-27746500Y10844869D01*
X-27746500Y10261697D01*
X-27766185Y10194658D01*
X-27796185Y10162434D01*
X-27803182Y10157196D01*
X-27803192Y10157186D01*
X-27889351Y10042094D01*
X-27889355Y10042087D01*
X-27939597Y9907380D01*
X-27939599Y9907373D01*
X-27946000Y9847845D01*
X-27946000Y9750000D01*
X-25146000Y9750000D01*
X-25132819Y9763181D01*
X-25071496Y9796666D01*
X-25045138Y9799500D01*
X-24931005Y9799500D01*
X-24839959Y9817611D01*
X-24795672Y9826420D01*
X-24697076Y9867260D01*
X-24668196Y9879222D01*
X-24668196Y9879223D01*
X-24668189Y9879225D01*
X-24553458Y9955886D01*
X-24455886Y10053458D01*
X-24379225Y10168189D01*
X-24326420Y10295672D01*
X-24299500Y10431007D01*
X-24299500Y10568993D01*
X-24299500Y10568996D01*
X-24326419Y10704323D01*
X-24326420Y10704324D01*
X-24326420Y10704328D01*
X-24326422Y10704333D01*
X-24379222Y10831805D01*
X-24379224Y10831809D01*
X-24379225Y10831811D01*
X-24445575Y10931110D01*
X-24466452Y10997786D01*
X-24447968Y11065166D01*
X-24445574Y11068891D01*
X-24379225Y11168189D01*
X-24326420Y11295672D01*
X-24299500Y11431007D01*
X-24299500Y11568993D01*
X-24299500Y11568996D01*
X-24326419Y11704323D01*
X-24326420Y11704324D01*
X-24326420Y11704328D01*
X-24326422Y11704333D01*
X-24379222Y11831805D01*
X-24379224Y11831809D01*
X-24379225Y11831811D01*
X-24445575Y11931110D01*
X-24466452Y11997786D01*
X-24447968Y12065166D01*
X-24445574Y12068891D01*
X-24379225Y12168189D01*
X-24326420Y12295672D01*
X-24299500Y12431007D01*
X-24299500Y12568993D01*
X-24299500Y12568996D01*
X-24326419Y12704323D01*
X-24326420Y12704324D01*
X-24326420Y12704328D01*
X-24326422Y12704333D01*
X-24379222Y12831805D01*
X-24379224Y12831809D01*
X-24379225Y12831811D01*
X-24445575Y12931110D01*
X-24466452Y12997786D01*
X-24447968Y13065166D01*
X-24445574Y13068891D01*
X-24379225Y13168189D01*
X-24326420Y13295672D01*
X-24299500Y13431007D01*
X-24299500Y13568993D01*
X-24299500Y13568996D01*
X-24326419Y13704323D01*
X-24326420Y13704324D01*
X-24326420Y13704328D01*
X-24326422Y13704333D01*
X-24379222Y13831805D01*
X-24379224Y13831809D01*
X-24379225Y13831811D01*
X-24445575Y13931110D01*
X-24466452Y13997786D01*
X-24447968Y14065166D01*
X-24445574Y14068891D01*
X-24379225Y14168189D01*
X-24326420Y14295672D01*
X-24299500Y14431007D01*
X-24299500Y14568993D01*
X-24299500Y14568996D01*
X-24326419Y14704323D01*
X-24326420Y14704324D01*
X-24326420Y14704328D01*
X-24326422Y14704333D01*
X-24379222Y14831805D01*
X-24379229Y14831818D01*
X-24455886Y14946542D01*
X-24455889Y14946546D01*
X-24553455Y15044112D01*
X-24553459Y15044115D01*
X-24668183Y15120772D01*
X-24668196Y15120779D01*
X-24795668Y15173579D01*
X-24795678Y15173582D01*
X-24931005Y15200500D01*
X-24931007Y15200500D01*
X-25045138Y15200500D01*
X-25112177Y15220185D01*
X-25132819Y15236819D01*
X-25146000Y15250000D01*
X-27946000Y15250000D01*
X-27946000Y15152156D01*
X-29499500Y15152156D01*
X-29499500Y18184903D01*
X-29479815Y18251942D01*
X-29427011Y18297697D01*
X-29357853Y18307641D01*
X-29294297Y18278616D01*
X-29287822Y18272586D01*
X-28034716Y17019480D01*
X-28034714Y17019479D01*
X-28034710Y17019476D01*
X-27897791Y16940427D01*
X-27897784Y16940423D01*
X-27838405Y16924512D01*
X-27778746Y16888147D01*
X-27748217Y16825300D01*
X-27746500Y16804738D01*
X-27746500Y16261697D01*
X-27766185Y16194658D01*
X-27796185Y16162434D01*
X-27803182Y16157196D01*
X-27803192Y16157186D01*
X-27889351Y16042094D01*
X-27889355Y16042087D01*
X-27939597Y15907380D01*
X-27939599Y15907373D01*
X-27946000Y15847845D01*
X-27946000Y15750000D01*
X-25146000Y15750000D01*
X-25132819Y15763181D01*
X-25071496Y15796666D01*
X-25045138Y15799500D01*
X-24931005Y15799500D01*
X-24839959Y15817611D01*
X-24795672Y15826420D01*
X-24668189Y15879225D01*
X-24553458Y15955886D01*
X-24455886Y16053458D01*
X-24379225Y16168189D01*
X-24326420Y16295672D01*
X-24301744Y16419725D01*
X-24299500Y16431005D01*
X-24299500Y16568996D01*
X-24326419Y16704323D01*
X-24326420Y16704324D01*
X-24326420Y16704328D01*
X-24376528Y16825300D01*
X-24379224Y16831810D01*
X-24382095Y16837181D01*
X-24380795Y16837877D01*
X-24384254Y16848928D01*
X-24394477Y16864835D01*
X-24398930Y16895805D01*
X-24399480Y16897562D01*
X-24399500Y16899770D01*
X-24399500Y17100231D01*
X-24381254Y17162373D01*
X-24382094Y17162822D01*
X-24379936Y17166860D01*
X-24379815Y17167270D01*
X-24379279Y17168090D01*
X-24379229Y17168184D01*
X-24379225Y17168189D01*
X-24326420Y17295672D01*
X-24299500Y17431007D01*
X-24299500Y17568993D01*
X-24299500Y17568996D01*
X-24326419Y17704323D01*
X-24326420Y17704324D01*
X-24326420Y17704328D01*
X-24356759Y17777573D01*
X-24379222Y17831805D01*
X-24379229Y17831818D01*
X-24455886Y17946542D01*
X-24455889Y17946546D01*
X-24553455Y18044112D01*
X-24553459Y18044115D01*
X-24668183Y18120772D01*
X-24668196Y18120779D01*
X-24795668Y18173579D01*
X-24795678Y18173582D01*
X-24931005Y18200500D01*
X-24931007Y18200500D01*
X-25045138Y18200500D01*
X-25112177Y18220185D01*
X-25132819Y18236819D01*
X-25146000Y18250000D01*
X-26422000Y18250000D01*
X-26489039Y18269685D01*
X-26534794Y18322489D01*
X-26546000Y18374000D01*
X-26546000Y18626000D01*
X-26526315Y18693039D01*
X-26473511Y18738794D01*
X-26422000Y18750000D01*
X-25146000Y18750000D01*
X-25132819Y18763181D01*
X-25071496Y18796666D01*
X-25045138Y18799500D01*
X-24931005Y18799500D01*
X-24839959Y18817611D01*
X-24795672Y18826420D01*
X-24668189Y18879225D01*
X-24553458Y18955886D01*
X-24455886Y19053458D01*
X-24379225Y19168189D01*
X-24326420Y19295672D01*
X-24305142Y19402643D01*
X-24299500Y19431005D01*
X-24299500Y19568996D01*
X-24326419Y19704323D01*
X-24326420Y19704324D01*
X-24326420Y19704328D01*
X-24364254Y19795668D01*
X-24379224Y19831810D01*
X-24382095Y19837181D01*
X-24380795Y19837877D01*
X-24384254Y19848928D01*
X-24394477Y19864835D01*
X-24398930Y19895805D01*
X-24399480Y19897562D01*
X-24399500Y19899770D01*
X-24399500Y20100231D01*
X-24381254Y20162373D01*
X-24382094Y20162822D01*
X-24379936Y20166860D01*
X-24379815Y20167270D01*
X-24379279Y20168090D01*
X-24379229Y20168184D01*
X-24379225Y20168189D01*
X-24326420Y20295672D01*
X-24299500Y20431007D01*
X-24299500Y20568993D01*
X-24299500Y20568996D01*
X-24326419Y20704323D01*
X-24326420Y20704324D01*
X-24326420Y20704328D01*
X-24336457Y20728560D01*
X-24379222Y20831805D01*
X-24379224Y20831809D01*
X-24379225Y20831811D01*
X-24445575Y20931110D01*
X-24466452Y20997786D01*
X-24447968Y21065166D01*
X-24445574Y21068891D01*
X-24429718Y21092621D01*
X-24379225Y21168189D01*
X-24326420Y21295672D01*
X-24299500Y21431007D01*
X-24299500Y21568993D01*
X-24299500Y21568996D01*
X-24326419Y21704323D01*
X-24326420Y21704324D01*
X-24326420Y21704328D01*
X-24345338Y21750000D01*
X-24379222Y21831805D01*
X-24379224Y21831809D01*
X-24379225Y21831811D01*
X-24445575Y21931110D01*
X-24466452Y21997786D01*
X-24447968Y22065166D01*
X-24445574Y22068891D01*
X-24437478Y22081007D01*
X-24379225Y22168189D01*
X-24326420Y22295672D01*
X-24317611Y22339959D01*
X-24299500Y22431005D01*
X-24299500Y22568996D01*
X-24326419Y22704323D01*
X-24326420Y22704324D01*
X-24326420Y22704328D01*
X-24353943Y22770775D01*
X-24379224Y22831810D01*
X-24382095Y22837181D01*
X-24380795Y22837877D01*
X-24384254Y22848928D01*
X-24394477Y22864835D01*
X-24398930Y22895805D01*
X-24399480Y22897562D01*
X-24399500Y22899770D01*
X-24399500Y23100231D01*
X-24381254Y23162373D01*
X-24382094Y23162822D01*
X-24379936Y23166860D01*
X-24379815Y23167270D01*
X-24379279Y23168090D01*
X-24379229Y23168184D01*
X-24379225Y23168189D01*
X-24326420Y23295672D01*
X-24299500Y23431007D01*
X-24299500Y23568993D01*
X-24299500Y23568996D01*
X-24326419Y23704323D01*
X-24326420Y23704324D01*
X-24326420Y23704328D01*
X-24326422Y23704333D01*
X-24379222Y23831805D01*
X-24379229Y23831818D01*
X-24455886Y23946542D01*
X-24455889Y23946546D01*
X-24553455Y24044112D01*
X-24553459Y24044115D01*
X-24668183Y24120772D01*
X-24668196Y24120779D01*
X-24795668Y24173579D01*
X-24795678Y24173582D01*
X-24931005Y24200500D01*
X-24931007Y24200500D01*
X-25045138Y24200500D01*
X-25112177Y24220185D01*
X-25132819Y24236819D01*
X-25146000Y24250000D01*
X-27946000Y24250000D01*
X-27946000Y24152156D01*
X-27939599Y24092628D01*
X-27939597Y24092621D01*
X-27889355Y23957914D01*
X-27889353Y23957912D01*
X-27803191Y23842814D01*
X-27803189Y23842812D01*
X-27796191Y23837573D01*
X-27754319Y23781641D01*
X-27746500Y23738305D01*
X-27746500Y23155144D01*
X-27746498Y23155118D01*
X-27743587Y23130013D01*
X-27743586Y23130012D01*
X-27743586Y23130010D01*
X-27743585Y23130009D01*
X-27708296Y23050087D01*
X-27699224Y22980809D01*
X-27708295Y22949915D01*
X-27743585Y22869991D01*
X-27746500Y22844869D01*
X-27746500Y22261697D01*
X-27766185Y22194658D01*
X-27796185Y22162434D01*
X-27803182Y22157196D01*
X-27803192Y22157186D01*
X-27889351Y22042094D01*
X-27889355Y22042087D01*
X-27939597Y21907380D01*
X-27939599Y21907373D01*
X-27946000Y21847845D01*
X-27946000Y21750000D01*
X-26670000Y21750000D01*
X-26602961Y21730315D01*
X-26557206Y21677511D01*
X-26546000Y21626000D01*
X-26546000Y21374000D01*
X-26565685Y21306961D01*
X-26618489Y21261206D01*
X-26670000Y21250000D01*
X-27946000Y21250000D01*
X-27946000Y21152156D01*
X-27939599Y21092628D01*
X-27939597Y21092621D01*
X-27889355Y20957914D01*
X-27889353Y20957912D01*
X-27803191Y20842814D01*
X-27803189Y20842812D01*
X-27796191Y20837573D01*
X-27754319Y20781641D01*
X-27746500Y20738305D01*
X-27746500Y20155144D01*
X-27746498Y20155118D01*
X-27743587Y20130013D01*
X-27743586Y20130012D01*
X-27743586Y20130010D01*
X-27743585Y20130009D01*
X-27708296Y20050087D01*
X-27699224Y19980809D01*
X-27708295Y19949915D01*
X-27743585Y19869991D01*
X-27746500Y19844869D01*
X-27746500Y19261697D01*
X-27766185Y19194658D01*
X-27796185Y19162434D01*
X-27803182Y19157196D01*
X-27803192Y19157186D01*
X-27889351Y19042094D01*
X-27889355Y19042087D01*
X-27939597Y18907380D01*
X-27941380Y18899832D01*
X-27942817Y18900172D01*
X-27966263Y18843585D01*
X-28023660Y18803744D01*
X-28093486Y18801259D01*
X-28150486Y18833722D01*
X-28563181Y19246417D01*
X-28596666Y19307740D01*
X-28599500Y19334098D01*
X-28599500Y24847845D01*
X-27946000Y24847845D01*
X-27946000Y24750000D01*
X-26796000Y24750000D01*
X-26796000Y25300000D01*
X-27493845Y25300000D01*
X-27553373Y25293599D01*
X-27553380Y25293597D01*
X-27688087Y25243355D01*
X-27688094Y25243351D01*
X-27803188Y25157191D01*
X-27803191Y25157188D01*
X-27889351Y25042094D01*
X-27889355Y25042087D01*
X-27939597Y24907380D01*
X-27939599Y24907373D01*
X-27946000Y24847845D01*
X-28599500Y24847845D01*
X-28599500Y25502158D01*
X-26375000Y25502158D01*
X-26368599Y25442628D01*
X-26368598Y25442623D01*
X-26363890Y25430000D01*
X-26349280Y25419856D01*
X-26305439Y25365452D01*
X-26296000Y25318000D01*
X-26296000Y24750000D01*
X-25146000Y24750000D01*
X-25146000Y24847828D01*
X-25146001Y24847845D01*
X-25152979Y24912744D01*
X-25140574Y24981503D01*
X-25092965Y25032641D01*
X-25029690Y25050000D01*
X-24625000Y25050000D01*
X-24125000Y25050000D01*
X-22827172Y25050000D01*
X-22827156Y25050001D01*
X-22767628Y25056402D01*
X-22767621Y25056404D01*
X-22632914Y25106646D01*
X-22632907Y25106650D01*
X-22517813Y25192810D01*
X-22517810Y25192813D01*
X-22431650Y25307907D01*
X-22431646Y25307914D01*
X-22381404Y25442621D01*
X-22381402Y25442628D01*
X-22375001Y25502156D01*
X-22375000Y25502173D01*
X-22375000Y26600000D01*
X-24125000Y26600000D01*
X-24125000Y25050000D01*
X-24625000Y25050000D01*
X-24625000Y26600000D01*
X-26375000Y26600000D01*
X-26375000Y25502158D01*
X-28599500Y25502158D01*
X-28599500Y26931005D01*
X-20700501Y26931005D01*
X-20673582Y26795678D01*
X-20673579Y26795668D01*
X-20620779Y26668196D01*
X-20620772Y26668183D01*
X-20544115Y26553459D01*
X-20536823Y26546167D01*
X-20503335Y26484845D01*
X-20500500Y26458482D01*
X-20500500Y-11958481D01*
X-20520185Y-12025520D01*
X-20536819Y-12046162D01*
X-20544112Y-12053454D01*
X-20544115Y-12053458D01*
X-20620772Y-12168182D01*
X-20620779Y-12168195D01*
X-20673579Y-12295667D01*
X-20673582Y-12295677D01*
X-20700500Y-12431004D01*
X-20700500Y-12431007D01*
X-20700500Y-12568993D01*
X-20700500Y-12568995D01*
X-20700501Y-12568995D01*
X-20673582Y-12704322D01*
X-20673579Y-12704332D01*
X-20620779Y-12831804D01*
X-20620772Y-12831817D01*
X-20544115Y-12946541D01*
X-20544112Y-12946545D01*
X-20446546Y-13044111D01*
X-20446542Y-13044114D01*
X-20331818Y-13120771D01*
X-20331805Y-13120778D01*
X-20204333Y-13173578D01*
X-20204328Y-13173580D01*
X-20204324Y-13173580D01*
X-20204323Y-13173581D01*
X-20068996Y-13200500D01*
X-20068993Y-13200500D01*
X-19931005Y-13200500D01*
X-19839959Y-13182389D01*
X-19795672Y-13173580D01*
X-19671953Y-13122333D01*
X-19602483Y-13114865D01*
X-19540004Y-13146140D01*
X-19504352Y-13206229D01*
X-19500500Y-13236895D01*
X-19500500Y-13958481D01*
X-19520185Y-14025520D01*
X-19536819Y-14046162D01*
X-19544112Y-14053454D01*
X-19544115Y-14053458D01*
X-19620772Y-14168182D01*
X-19620779Y-14168195D01*
X-19673579Y-14295667D01*
X-19673582Y-14295677D01*
X-19700500Y-14431004D01*
X-19700500Y-14431007D01*
X-19700500Y-14568993D01*
X-19700500Y-14568995D01*
X-19700501Y-14568995D01*
X-19673582Y-14704322D01*
X-19673579Y-14704332D01*
X-19620779Y-14831804D01*
X-19620772Y-14831817D01*
X-19544115Y-14946541D01*
X-19544112Y-14946545D01*
X-19446546Y-15044111D01*
X-19446542Y-15044114D01*
X-19331818Y-15120771D01*
X-19331805Y-15120778D01*
X-19204333Y-15173578D01*
X-19204328Y-15173580D01*
X-19204324Y-15173580D01*
X-19204323Y-15173581D01*
X-19068996Y-15200500D01*
X-19068993Y-15200500D01*
X-18931005Y-15200500D01*
X-18839959Y-15182389D01*
X-18795672Y-15173580D01*
X-18671953Y-15122333D01*
X-18602483Y-15114865D01*
X-18540004Y-15146140D01*
X-18504352Y-15206229D01*
X-18500500Y-15236895D01*
X-18500500Y-16458481D01*
X-18520185Y-16525520D01*
X-18536819Y-16546162D01*
X-18544112Y-16553454D01*
X-18544115Y-16553458D01*
X-18620772Y-16668182D01*
X-18620779Y-16668195D01*
X-18673579Y-16795667D01*
X-18673582Y-16795677D01*
X-18700500Y-16931004D01*
X-18700500Y-16931007D01*
X-18700500Y-17068993D01*
X-18700500Y-17068995D01*
X-18700501Y-17068995D01*
X-18673582Y-17204322D01*
X-18673579Y-17204332D01*
X-18620779Y-17331804D01*
X-18620772Y-17331817D01*
X-18544115Y-17446541D01*
X-18544112Y-17446545D01*
X-18446546Y-17544111D01*
X-18446542Y-17544114D01*
X-18331818Y-17620771D01*
X-18331805Y-17620778D01*
X-18204333Y-17673578D01*
X-18204328Y-17673580D01*
X-18204324Y-17673580D01*
X-18204323Y-17673581D01*
X-18068996Y-17700500D01*
X-18068993Y-17700500D01*
X-17931005Y-17700500D01*
X-17839959Y-17682389D01*
X-17795672Y-17673580D01*
X-17671953Y-17622333D01*
X-17602483Y-17614865D01*
X-17540004Y-17646140D01*
X-17504352Y-17706229D01*
X-17500500Y-17736895D01*
X-17500500Y-24958481D01*
X-17520185Y-25025520D01*
X-17536819Y-25046162D01*
X-17544112Y-25053454D01*
X-17544115Y-25053458D01*
X-17620772Y-25168182D01*
X-17620779Y-25168195D01*
X-17673579Y-25295667D01*
X-17673582Y-25295677D01*
X-17700500Y-25431004D01*
X-17700500Y-25431007D01*
X-17700500Y-25568993D01*
X-17700500Y-25568995D01*
X-17700501Y-25568995D01*
X-17673582Y-25704322D01*
X-17673579Y-25704332D01*
X-17620779Y-25831804D01*
X-17620772Y-25831817D01*
X-17544115Y-25946541D01*
X-17544112Y-25946545D01*
X-17446546Y-26044111D01*
X-17446542Y-26044114D01*
X-17331818Y-26120771D01*
X-17331805Y-26120778D01*
X-17204333Y-26173578D01*
X-17204328Y-26173580D01*
X-17204324Y-26173580D01*
X-17204323Y-26173581D01*
X-17068996Y-26200500D01*
X-17068993Y-26200500D01*
X-16931005Y-26200500D01*
X-16839959Y-26182389D01*
X-16795672Y-26173580D01*
X-16668189Y-26120775D01*
X-16553458Y-26044114D01*
X-16455886Y-25946542D01*
X-16379225Y-25831811D01*
X-16326420Y-25704328D01*
X-16299500Y-25568993D01*
X-16299500Y-25431007D01*
X-16299500Y-25431004D01*
X-16326419Y-25295677D01*
X-16326420Y-25295676D01*
X-16326420Y-25295672D01*
X-16326422Y-25295667D01*
X-16379222Y-25168195D01*
X-16379229Y-25168182D01*
X-16455886Y-25053458D01*
X-16455889Y-25053454D01*
X-16463181Y-25046162D01*
X-16496666Y-24984839D01*
X-16499500Y-24958481D01*
X-16499500Y-21068995D01*
X-16200501Y-21068995D01*
X-16173582Y-21204322D01*
X-16173579Y-21204332D01*
X-16120779Y-21331804D01*
X-16120772Y-21331817D01*
X-16044115Y-21446541D01*
X-16044112Y-21446545D01*
X-15946546Y-21544111D01*
X-15946542Y-21544114D01*
X-15831818Y-21620771D01*
X-15831805Y-21620778D01*
X-15723420Y-21665672D01*
X-15704328Y-21673580D01*
X-15704324Y-21673580D01*
X-15704323Y-21673581D01*
X-15568996Y-21700500D01*
X-15568993Y-21700500D01*
X-15431005Y-21700500D01*
X-15325755Y-21679564D01*
X-15295672Y-21673580D01*
X-15295672Y-21673579D01*
X-15294451Y-21673337D01*
X-15224859Y-21679564D01*
X-15169682Y-21722427D01*
X-15155698Y-21747501D01*
X-15120777Y-21831807D01*
X-15120772Y-21831817D01*
X-15044115Y-21946541D01*
X-15044112Y-21946545D01*
X-14946546Y-22044111D01*
X-14946542Y-22044114D01*
X-14831818Y-22120771D01*
X-14831805Y-22120778D01*
X-14717988Y-22167922D01*
X-14704328Y-22173580D01*
X-14704324Y-22173580D01*
X-14704323Y-22173581D01*
X-14568996Y-22200500D01*
X-14568993Y-22200500D01*
X-14431005Y-22200500D01*
X-14325755Y-22179564D01*
X-14295672Y-22173580D01*
X-14295672Y-22173579D01*
X-14294451Y-22173337D01*
X-14224859Y-22179564D01*
X-14169682Y-22222427D01*
X-14155698Y-22247501D01*
X-14120777Y-22331807D01*
X-14120772Y-22331817D01*
X-14044115Y-22446541D01*
X-14036823Y-22453833D01*
X-14003335Y-22515155D01*
X-14000500Y-22541518D01*
X-14000500Y-22565891D01*
X-13966392Y-22693187D01*
X-13933590Y-22750000D01*
X-13900500Y-22807314D01*
X-12790500Y-23917314D01*
X-12697314Y-24010500D01*
X-12583186Y-24076392D01*
X-12455892Y-24110500D01*
X-12455890Y-24110500D01*
X-9374110Y-24110500D01*
X-9374108Y-24110500D01*
X-9246814Y-24076392D01*
X-9132686Y-24010500D01*
X-8730962Y-23608774D01*
X-8669641Y-23575291D01*
X-8599950Y-23580275D01*
X-8564957Y-23602766D01*
X-8564289Y-23601874D01*
X-8442089Y-23693352D01*
X-8442087Y-23693354D01*
X-8307380Y-23743596D01*
X-8307373Y-23743598D01*
X-8247845Y-23749999D01*
X-8247828Y-23750000D01*
X-7950000Y-23750000D01*
X-7450000Y-23750000D01*
X-7152172Y-23750000D01*
X-7152156Y-23749999D01*
X-7092628Y-23743598D01*
X-7092621Y-23743596D01*
X-6957914Y-23693354D01*
X-6957907Y-23693350D01*
X-6842813Y-23607190D01*
X-6842810Y-23607187D01*
X-6756650Y-23492093D01*
X-6756646Y-23492086D01*
X-6706404Y-23357379D01*
X-6706402Y-23357372D01*
X-6700001Y-23297844D01*
X-6700000Y-23297827D01*
X-6700000Y-22750000D01*
X-7450000Y-22750000D01*
X-7450000Y-23750000D01*
X-7950000Y-23750000D01*
X-7950000Y-22250000D01*
X-7450000Y-22250000D01*
X-6700000Y-22250000D01*
X-6700000Y-21702172D01*
X-6700001Y-21702155D01*
X-6706402Y-21642627D01*
X-6706404Y-21642620D01*
X-6756646Y-21507913D01*
X-6756650Y-21507906D01*
X-6842810Y-21392813D01*
X-6900979Y-21349267D01*
X-6942850Y-21293333D01*
X-6947834Y-21223641D01*
X-6914349Y-21162318D01*
X-6900979Y-21150733D01*
X-6842810Y-21107186D01*
X-6756650Y-20992093D01*
X-6756646Y-20992086D01*
X-6706404Y-20857379D01*
X-6706402Y-20857372D01*
X-6700001Y-20797844D01*
X-6700000Y-20797827D01*
X-6700000Y-20250000D01*
X-7450000Y-20250000D01*
X-7450000Y-22250000D01*
X-7950000Y-22250000D01*
X-7950000Y-19750000D01*
X-7450000Y-19750000D01*
X-6700000Y-19750000D01*
X-6700000Y-19202172D01*
X-6700001Y-19202155D01*
X-6706402Y-19142627D01*
X-6706404Y-19142620D01*
X-6756646Y-19007913D01*
X-6756650Y-19007906D01*
X-6842810Y-18892813D01*
X-6900979Y-18849267D01*
X-6942850Y-18793333D01*
X-6947834Y-18723641D01*
X-6914349Y-18662318D01*
X-6900979Y-18650733D01*
X-6842810Y-18607186D01*
X-6756650Y-18492093D01*
X-6756646Y-18492086D01*
X-6706404Y-18357379D01*
X-6706402Y-18357372D01*
X-6700001Y-18297844D01*
X-6700000Y-18297827D01*
X-6700000Y-17750000D01*
X-7450000Y-17750000D01*
X-7450000Y-19750000D01*
X-7950000Y-19750000D01*
X-7950000Y-17250000D01*
X-7450000Y-17250000D01*
X-6700000Y-17250000D01*
X-6700000Y-16702172D01*
X-6700001Y-16702155D01*
X-6706402Y-16642627D01*
X-6706404Y-16642620D01*
X-6756646Y-16507913D01*
X-6756650Y-16507906D01*
X-6842810Y-16392812D01*
X-6842813Y-16392809D01*
X-6957907Y-16306649D01*
X-6957914Y-16306645D01*
X-7092621Y-16256403D01*
X-7092628Y-16256401D01*
X-7152156Y-16250000D01*
X-7450000Y-16250000D01*
X-7450000Y-17250000D01*
X-7950000Y-17250000D01*
X-7950000Y-16250000D01*
X-8247845Y-16250000D01*
X-8307373Y-16256401D01*
X-8307380Y-16256403D01*
X-8442087Y-16306645D01*
X-8442094Y-16306649D01*
X-8557186Y-16392808D01*
X-8557196Y-16392817D01*
X-8562433Y-16399814D01*
X-8618368Y-16441683D01*
X-8661697Y-16449500D01*
X-9544857Y-16449500D01*
X-9544883Y-16449502D01*
X-9569986Y-16452413D01*
X-9569990Y-16452414D01*
X-9599917Y-16465628D01*
X-9669196Y-16474697D01*
X-9700085Y-16465627D01*
X-9730008Y-16452415D01*
X-9755135Y-16449500D01*
X-10844857Y-16449500D01*
X-10844883Y-16449502D01*
X-10869988Y-16452413D01*
X-10869992Y-16452415D01*
X-10972765Y-16497793D01*
X-11052206Y-16577234D01*
X-11097585Y-16680006D01*
X-11097585Y-16680008D01*
X-11100500Y-16705131D01*
X-11100500Y-16875500D01*
X-11120185Y-16942539D01*
X-11172989Y-16988294D01*
X-11224500Y-16999500D01*
X-11715892Y-16999500D01*
X-11843188Y-17033608D01*
X-11957314Y-17099500D01*
X-11957317Y-17099502D01*
X-11970995Y-17113181D01*
X-12032318Y-17146666D01*
X-12058676Y-17149500D01*
X-12068995Y-17149500D01*
X-12204323Y-17176418D01*
X-12204333Y-17176421D01*
X-12331805Y-17229221D01*
X-12331818Y-17229228D01*
X-12446542Y-17305885D01*
X-12446546Y-17305888D01*
X-12544112Y-17403454D01*
X-12544115Y-17403458D01*
X-12620772Y-17518182D01*
X-12620779Y-17518195D01*
X-12673579Y-17645667D01*
X-12673582Y-17645677D01*
X-12700500Y-17781004D01*
X-12700500Y-17918995D01*
X-12692083Y-17961308D01*
X-12698310Y-18030899D01*
X-12741172Y-18086077D01*
X-12807062Y-18109322D01*
X-12813700Y-18109500D01*
X-13175893Y-18109500D01*
X-13303188Y-18143608D01*
X-13417314Y-18209500D01*
X-13417317Y-18209502D01*
X-15470995Y-20263181D01*
X-15532318Y-20296666D01*
X-15558676Y-20299500D01*
X-15568995Y-20299500D01*
X-15704323Y-20326418D01*
X-15704333Y-20326421D01*
X-15831805Y-20379221D01*
X-15831818Y-20379228D01*
X-15946542Y-20455885D01*
X-15946546Y-20455888D01*
X-16044112Y-20553454D01*
X-16044115Y-20553458D01*
X-16120772Y-20668182D01*
X-16120779Y-20668195D01*
X-16173579Y-20795667D01*
X-16173582Y-20795677D01*
X-16200500Y-20931004D01*
X-16200500Y-20931007D01*
X-16200500Y-21068993D01*
X-16200500Y-21068995D01*
X-16200501Y-21068995D01*
X-16499500Y-21068995D01*
X-16499500Y-12068995D01*
X-13700501Y-12068995D01*
X-13673582Y-12204322D01*
X-13673579Y-12204332D01*
X-13620779Y-12331804D01*
X-13620772Y-12331817D01*
X-13544115Y-12446541D01*
X-13544112Y-12446545D01*
X-13446546Y-12544111D01*
X-13446542Y-12544114D01*
X-13331818Y-12620771D01*
X-13331805Y-12620778D01*
X-13217360Y-12668182D01*
X-13204328Y-12673580D01*
X-13204324Y-12673580D01*
X-13204323Y-12673581D01*
X-13068996Y-12700500D01*
X-13068993Y-12700500D01*
X-12931005Y-12700500D01*
X-12856583Y-12685696D01*
X-12825279Y-12679469D01*
X-12755688Y-12685696D01*
X-12700510Y-12728558D01*
X-12677265Y-12794448D01*
X-12679470Y-12825277D01*
X-12700500Y-12931002D01*
X-12700500Y-12931007D01*
X-12700500Y-13068993D01*
X-12700500Y-13068995D01*
X-12700501Y-13068995D01*
X-12673582Y-13204322D01*
X-12673579Y-13204332D01*
X-12620779Y-13331804D01*
X-12620772Y-13331817D01*
X-12544115Y-13446541D01*
X-12544112Y-13446545D01*
X-12446546Y-13544111D01*
X-12446542Y-13544114D01*
X-12331818Y-13620771D01*
X-12331805Y-13620778D01*
X-12204333Y-13673578D01*
X-12204328Y-13673580D01*
X-12204324Y-13673580D01*
X-12204323Y-13673581D01*
X-12068996Y-13700500D01*
X-12068993Y-13700500D01*
X-11931005Y-13700500D01*
X-11839959Y-13682389D01*
X-11795672Y-13673580D01*
X-11668189Y-13620775D01*
X-11553458Y-13544114D01*
X-11455886Y-13446542D01*
X-11379225Y-13331811D01*
X-11326420Y-13204328D01*
X-11309799Y-13120771D01*
X-11299500Y-13068995D01*
X-11299500Y-12931004D01*
X-11320531Y-12825278D01*
X-11314304Y-12755686D01*
X-11271441Y-12700509D01*
X-11205552Y-12677264D01*
X-11174723Y-12679468D01*
X-11167747Y-12680856D01*
X-11068996Y-12700500D01*
X-11068993Y-12700500D01*
X-10931005Y-12700500D01*
X-10814193Y-12677264D01*
X-10795672Y-12673580D01*
X-10795672Y-12673579D01*
X-10794451Y-12673337D01*
X-10724859Y-12679564D01*
X-10669682Y-12722427D01*
X-10655698Y-12747501D01*
X-10620777Y-12831807D01*
X-10620772Y-12831817D01*
X-10544115Y-12946541D01*
X-10544112Y-12946545D01*
X-10446546Y-13044111D01*
X-10446542Y-13044114D01*
X-10331818Y-13120771D01*
X-10331805Y-13120778D01*
X-10204333Y-13173578D01*
X-10204328Y-13173580D01*
X-10204324Y-13173580D01*
X-10204323Y-13173581D01*
X-10068996Y-13200500D01*
X-10068993Y-13200500D01*
X-9931005Y-13200500D01*
X-9839959Y-13182389D01*
X-9795672Y-13173580D01*
X-9668189Y-13120775D01*
X-9553458Y-13044114D01*
X-9455886Y-12946542D01*
X-9379225Y-12831811D01*
X-9376519Y-12825278D01*
X-9344303Y-12747502D01*
X-9300463Y-12693098D01*
X-9234168Y-12671033D01*
X-9205550Y-12673337D01*
X-9068996Y-12700500D01*
X-9068993Y-12700500D01*
X-8931005Y-12700500D01*
X-8814193Y-12677264D01*
X-8795672Y-12673580D01*
X-8795672Y-12673579D01*
X-8794451Y-12673337D01*
X-8724859Y-12679564D01*
X-8669682Y-12722427D01*
X-8655698Y-12747501D01*
X-8620777Y-12831807D01*
X-8620772Y-12831817D01*
X-8544115Y-12946541D01*
X-8544112Y-12946545D01*
X-8446546Y-13044111D01*
X-8446542Y-13044114D01*
X-8331818Y-13120771D01*
X-8331805Y-13120778D01*
X-8204333Y-13173578D01*
X-8204328Y-13173580D01*
X-8204324Y-13173580D01*
X-8204323Y-13173581D01*
X-8068996Y-13200500D01*
X-8068993Y-13200500D01*
X-7931005Y-13200500D01*
X-7839959Y-13182389D01*
X-7795672Y-13173580D01*
X-7668189Y-13120775D01*
X-7553458Y-13044114D01*
X-7455886Y-12946542D01*
X-7379225Y-12831811D01*
X-7376519Y-12825278D01*
X-7344303Y-12747502D01*
X-7300463Y-12693098D01*
X-7234168Y-12671033D01*
X-7205550Y-12673337D01*
X-7068996Y-12700500D01*
X-7068993Y-12700500D01*
X-6931005Y-12700500D01*
X-6856583Y-12685696D01*
X-6825279Y-12679469D01*
X-6755688Y-12685696D01*
X-6700510Y-12728558D01*
X-6677265Y-12794448D01*
X-6679470Y-12825277D01*
X-6700500Y-12931002D01*
X-6700500Y-12931007D01*
X-6700500Y-13068993D01*
X-6700500Y-13068995D01*
X-6700501Y-13068995D01*
X-6673582Y-13204322D01*
X-6673579Y-13204332D01*
X-6620779Y-13331804D01*
X-6620772Y-13331817D01*
X-6544115Y-13446541D01*
X-6544112Y-13446545D01*
X-6446546Y-13544111D01*
X-6446542Y-13544114D01*
X-6331818Y-13620771D01*
X-6331805Y-13620778D01*
X-6204333Y-13673578D01*
X-6204328Y-13673580D01*
X-6204324Y-13673580D01*
X-6204323Y-13673581D01*
X-6068996Y-13700500D01*
X-6068993Y-13700500D01*
X-5931005Y-13700500D01*
X-5839959Y-13682389D01*
X-5795672Y-13673580D01*
X-5668189Y-13620775D01*
X-5553458Y-13544114D01*
X-5455886Y-13446542D01*
X-5379225Y-13331811D01*
X-5326420Y-13204328D01*
X-5309799Y-13120771D01*
X-5299500Y-13068995D01*
X-5299500Y-12931004D01*
X-5326419Y-12795677D01*
X-5326420Y-12795676D01*
X-5326420Y-12795672D01*
X-5326927Y-12794448D01*
X-5379222Y-12668195D01*
X-5379229Y-12668182D01*
X-5455886Y-12553458D01*
X-5455889Y-12553454D01*
X-5463181Y-12546162D01*
X-5496666Y-12484839D01*
X-5499500Y-12458481D01*
X-5499500Y4697605D01*
X-5479815Y4764644D01*
X-5463181Y4785286D01*
X-3285286Y6963181D01*
X-3223963Y6996666D01*
X-3197605Y6999500D01*
X-1541519Y6999500D01*
X-1474480Y6979815D01*
X-1453838Y6963181D01*
X-1446546Y6955889D01*
X-1446542Y6955886D01*
X-1331818Y6879229D01*
X-1331805Y6879222D01*
X-1217360Y6831818D01*
X-1204328Y6826420D01*
X-1204324Y6826420D01*
X-1204323Y6826419D01*
X-1068996Y6799500D01*
X-1068993Y6799500D01*
X-931005Y6799500D01*
X-839959Y6817611D01*
X-795672Y6826420D01*
X-668189Y6879225D01*
X-553458Y6955886D01*
X-455886Y7053458D01*
X-379225Y7168189D01*
X-326420Y7295672D01*
X-299500Y7431007D01*
X-299500Y7568993D01*
X-299500Y7568996D01*
X-326419Y7704323D01*
X-326420Y7704324D01*
X-326420Y7704328D01*
X-326422Y7704333D01*
X-379222Y7831805D01*
X-379224Y7831809D01*
X-379225Y7831811D01*
X-445575Y7931110D01*
X-466452Y7997786D01*
X-447968Y8065166D01*
X-445574Y8068891D01*
X-379225Y8168189D01*
X-326420Y8295672D01*
X-299500Y8431007D01*
X-299500Y8568993D01*
X-299500Y8568996D01*
X-326419Y8704323D01*
X-326420Y8704324D01*
X-326420Y8704328D01*
X-326422Y8704333D01*
X-379222Y8831805D01*
X-379224Y8831809D01*
X-379225Y8831811D01*
X-445575Y8931110D01*
X-466452Y8997786D01*
X-447968Y9065166D01*
X-445574Y9068891D01*
X-429718Y9092621D01*
X-379225Y9168189D01*
X-326420Y9295672D01*
X-299500Y9431007D01*
X-299500Y9568993D01*
X-299500Y9568996D01*
X-326419Y9704323D01*
X-326420Y9704324D01*
X-326420Y9704328D01*
X-326422Y9704333D01*
X-379222Y9831805D01*
X-379224Y9831809D01*
X-379225Y9831811D01*
X-445575Y9931110D01*
X-466452Y9997786D01*
X-447968Y10065166D01*
X-445574Y10068891D01*
X-379225Y10168189D01*
X-326420Y10295672D01*
X-299500Y10431007D01*
X-299500Y10568993D01*
X-299500Y10568996D01*
X-326419Y10704323D01*
X-326420Y10704324D01*
X-326420Y10704328D01*
X-326422Y10704333D01*
X-379222Y10831805D01*
X-379224Y10831809D01*
X-379225Y10831811D01*
X-445575Y10931110D01*
X-466452Y10997786D01*
X-447968Y11065166D01*
X-445574Y11068891D01*
X-379225Y11168189D01*
X-326420Y11295672D01*
X-299500Y11431007D01*
X-299500Y11568993D01*
X-299500Y11568996D01*
X-326419Y11704323D01*
X-326420Y11704324D01*
X-326420Y11704328D01*
X-326422Y11704333D01*
X-379222Y11831805D01*
X-379224Y11831809D01*
X-379225Y11831811D01*
X-445575Y11931110D01*
X-466452Y11997786D01*
X-447968Y12065166D01*
X-445574Y12068891D01*
X-379225Y12168189D01*
X-326420Y12295672D01*
X-299500Y12431007D01*
X-299500Y12568993D01*
X-299500Y12568996D01*
X-326419Y12704323D01*
X-326420Y12704324D01*
X-326420Y12704328D01*
X-326422Y12704333D01*
X-379222Y12831805D01*
X-379224Y12831809D01*
X-379225Y12831811D01*
X-445575Y12931110D01*
X-466452Y12997786D01*
X-447968Y13065166D01*
X-445574Y13068891D01*
X-379225Y13168189D01*
X-326420Y13295672D01*
X-299500Y13431007D01*
X-299500Y13568993D01*
X-299500Y13568996D01*
X-326419Y13704323D01*
X-326420Y13704324D01*
X-326420Y13704328D01*
X-326422Y13704333D01*
X-379222Y13831805D01*
X-379224Y13831809D01*
X-379225Y13831811D01*
X-445575Y13931110D01*
X-466452Y13997786D01*
X-447968Y14065166D01*
X-445574Y14068891D01*
X-379225Y14168189D01*
X-326420Y14295672D01*
X-299500Y14431007D01*
X-299500Y14568993D01*
X-299500Y14568996D01*
X-326419Y14704323D01*
X-326420Y14704324D01*
X-326420Y14704328D01*
X-326422Y14704333D01*
X-379222Y14831805D01*
X-379229Y14831818D01*
X-455886Y14946542D01*
X-455889Y14946546D01*
X-553455Y15044112D01*
X-553459Y15044115D01*
X-668183Y15120772D01*
X-668196Y15120779D01*
X-795668Y15173579D01*
X-795678Y15173582D01*
X-931005Y15200500D01*
X-931007Y15200500D01*
X-1068993Y15200500D01*
X-1068995Y15200500D01*
X-1204323Y15173582D01*
X-1204333Y15173579D01*
X-1331805Y15120779D01*
X-1331818Y15120772D01*
X-1446542Y15044115D01*
X-1446546Y15044112D01*
X-1453838Y15036819D01*
X-1515161Y15003334D01*
X-1541519Y15000500D01*
X-2065893Y15000500D01*
X-2193188Y14966392D01*
X-2307314Y14900500D01*
X-2307317Y14900498D01*
X-2400502Y14807312D01*
X-13324755Y3883060D01*
X-13324756Y3883060D01*
X-13324755Y3883059D01*
X-13400500Y3807314D01*
X-13466392Y3693188D01*
X-13500500Y3565892D01*
X-13500500Y-11458481D01*
X-13520185Y-11525520D01*
X-13536819Y-11546162D01*
X-13544112Y-11553454D01*
X-13544115Y-11553458D01*
X-13620772Y-11668182D01*
X-13620779Y-11668195D01*
X-13673579Y-11795667D01*
X-13673582Y-11795677D01*
X-13700500Y-11931004D01*
X-13700500Y-11931007D01*
X-13700500Y-12068993D01*
X-13700500Y-12068995D01*
X-13700501Y-12068995D01*
X-16499500Y-12068995D01*
X-16499500Y5958482D01*
X-16479815Y6025521D01*
X-16463177Y6046167D01*
X-16455886Y6053458D01*
X-16379225Y6168189D01*
X-16326420Y6295672D01*
X-16299500Y6431007D01*
X-16299500Y6568993D01*
X-16299500Y6568996D01*
X-16326419Y6704323D01*
X-16326420Y6704324D01*
X-16326420Y6704328D01*
X-16365841Y6799500D01*
X-16379222Y6831805D01*
X-16379229Y6831818D01*
X-16455886Y6946542D01*
X-16455889Y6946546D01*
X-16463181Y6953838D01*
X-16496666Y7015161D01*
X-16499500Y7041519D01*
X-16499500Y12958482D01*
X-16479815Y13025521D01*
X-16463177Y13046167D01*
X-16455886Y13053458D01*
X-16379225Y13168189D01*
X-16326420Y13295672D01*
X-16299500Y13431007D01*
X-16299500Y13568993D01*
X-16299500Y13568996D01*
X-16326419Y13704323D01*
X-16326420Y13704324D01*
X-16326420Y13704328D01*
X-16326422Y13704333D01*
X-16379222Y13831805D01*
X-16379229Y13831818D01*
X-16455886Y13946542D01*
X-16455889Y13946546D01*
X-16553455Y14044112D01*
X-16553459Y14044115D01*
X-16668183Y14120772D01*
X-16668196Y14120779D01*
X-16795668Y14173579D01*
X-16795678Y14173582D01*
X-16931005Y14200500D01*
X-16931007Y14200500D01*
X-17068993Y14200500D01*
X-17068995Y14200500D01*
X-17204323Y14173582D01*
X-17204333Y14173579D01*
X-17328048Y14122335D01*
X-17397518Y14114866D01*
X-17459997Y14146142D01*
X-17495648Y14206231D01*
X-17499500Y14236896D01*
X-17499500Y18931005D01*
X-16200501Y18931005D01*
X-16173582Y18795678D01*
X-16173579Y18795668D01*
X-16120779Y18668196D01*
X-16120772Y18668183D01*
X-16044115Y18553459D01*
X-16044112Y18553455D01*
X-15946546Y18455889D01*
X-15946542Y18455886D01*
X-15831818Y18379229D01*
X-15831805Y18379222D01*
X-15723420Y18334328D01*
X-15704328Y18326420D01*
X-15704324Y18326420D01*
X-15704323Y18326419D01*
X-15568996Y18299500D01*
X-15568993Y18299500D01*
X-15431005Y18299500D01*
X-15325755Y18320436D01*
X-15295672Y18326420D01*
X-15295672Y18326421D01*
X-15294451Y18326663D01*
X-15224859Y18320436D01*
X-15169682Y18277573D01*
X-15155698Y18252499D01*
X-15120777Y18168193D01*
X-15120772Y18168183D01*
X-15044115Y18053459D01*
X-15044112Y18053455D01*
X-14946546Y17955889D01*
X-14946542Y17955886D01*
X-14831818Y17879229D01*
X-14831805Y17879222D01*
X-14717988Y17832078D01*
X-14704328Y17826420D01*
X-14704324Y17826420D01*
X-14704323Y17826419D01*
X-14568996Y17799500D01*
X-14568993Y17799500D01*
X-14431005Y17799500D01*
X-14325755Y17820436D01*
X-14295672Y17826420D01*
X-14295672Y17826421D01*
X-14294451Y17826663D01*
X-14224859Y17820436D01*
X-14169682Y17777573D01*
X-14155698Y17752499D01*
X-14120777Y17668193D01*
X-14120772Y17668183D01*
X-14044115Y17553459D01*
X-14036823Y17546167D01*
X-14003335Y17484845D01*
X-14000500Y17458482D01*
X-14000500Y17434108D01*
X-13983446Y17370461D01*
X-13966392Y17306813D01*
X-13959957Y17295668D01*
X-13900500Y17192686D01*
X-12697314Y15989500D01*
X-12583186Y15923608D01*
X-12455892Y15889500D01*
X-12455890Y15889500D01*
X-9374110Y15889500D01*
X-9374108Y15889500D01*
X-9246814Y15923608D01*
X-9132686Y15989500D01*
X-8730962Y16391226D01*
X-8669641Y16424709D01*
X-8599950Y16419725D01*
X-8564957Y16397234D01*
X-8564289Y16398126D01*
X-8442089Y16306648D01*
X-8442087Y16306646D01*
X-8307380Y16256404D01*
X-8307373Y16256402D01*
X-8247845Y16250001D01*
X-8247828Y16250000D01*
X-7950000Y16250000D01*
X-7450000Y16250000D01*
X-7152172Y16250000D01*
X-7152156Y16250001D01*
X-7092628Y16256402D01*
X-7092621Y16256404D01*
X-6957914Y16306646D01*
X-6957907Y16306650D01*
X-6842813Y16392810D01*
X-6842810Y16392813D01*
X-6756650Y16507907D01*
X-6756646Y16507914D01*
X-6706404Y16642621D01*
X-6706402Y16642628D01*
X-6700001Y16702156D01*
X-6700000Y16702173D01*
X-6700000Y17250000D01*
X-7450000Y17250000D01*
X-7450000Y16250000D01*
X-7950000Y16250000D01*
X-7950000Y17750000D01*
X-7450000Y17750000D01*
X-6700000Y17750000D01*
X-6700000Y18297828D01*
X-6700001Y18297845D01*
X-6706402Y18357373D01*
X-6706404Y18357380D01*
X-6756646Y18492087D01*
X-6756650Y18492094D01*
X-6842810Y18607187D01*
X-6900979Y18650733D01*
X-6942850Y18706667D01*
X-6947834Y18776359D01*
X-6914349Y18837682D01*
X-6900979Y18849267D01*
X-6842810Y18892814D01*
X-6756650Y19007907D01*
X-6756646Y19007914D01*
X-6706404Y19142621D01*
X-6706402Y19142628D01*
X-6700001Y19202156D01*
X-6700000Y19202173D01*
X-6700000Y19750000D01*
X-7450000Y19750000D01*
X-7450000Y17750000D01*
X-7950000Y17750000D01*
X-7950000Y20250000D01*
X-7450000Y20250000D01*
X-6700000Y20250000D01*
X-6700000Y20797828D01*
X-6700001Y20797845D01*
X-6706402Y20857373D01*
X-6706404Y20857380D01*
X-6756646Y20992087D01*
X-6756650Y20992094D01*
X-6842810Y21107187D01*
X-6900979Y21150733D01*
X-6942850Y21206667D01*
X-6947834Y21276359D01*
X-6914349Y21337682D01*
X-6900979Y21349267D01*
X-6842810Y21392814D01*
X-6756650Y21507907D01*
X-6756646Y21507914D01*
X-6706404Y21642621D01*
X-6706402Y21642628D01*
X-6700001Y21702156D01*
X-6700000Y21702173D01*
X-6700000Y22250000D01*
X-7450000Y22250000D01*
X-7450000Y20250000D01*
X-7950000Y20250000D01*
X-7950000Y22750000D01*
X-7450000Y22750000D01*
X-6700000Y22750000D01*
X-6700000Y23297828D01*
X-6700001Y23297845D01*
X-6706402Y23357373D01*
X-6706404Y23357380D01*
X-6756646Y23492087D01*
X-6756650Y23492094D01*
X-6842810Y23607188D01*
X-6842813Y23607191D01*
X-6957907Y23693351D01*
X-6957914Y23693355D01*
X-7092621Y23743597D01*
X-7092628Y23743599D01*
X-7152156Y23750000D01*
X-7450000Y23750000D01*
X-7450000Y22750000D01*
X-7950000Y22750000D01*
X-7950000Y23750000D01*
X-8247845Y23750000D01*
X-8307373Y23743599D01*
X-8307380Y23743597D01*
X-8442087Y23693355D01*
X-8442094Y23693351D01*
X-8557186Y23607192D01*
X-8557196Y23607183D01*
X-8562433Y23600186D01*
X-8618368Y23558317D01*
X-8661697Y23550500D01*
X-9544857Y23550500D01*
X-9544883Y23550498D01*
X-9569986Y23547587D01*
X-9569990Y23547586D01*
X-9599917Y23534372D01*
X-9669196Y23525303D01*
X-9700085Y23534373D01*
X-9730008Y23547585D01*
X-9755135Y23550500D01*
X-10844857Y23550500D01*
X-10844883Y23550498D01*
X-10869988Y23547587D01*
X-10869992Y23547585D01*
X-10972765Y23502207D01*
X-11052206Y23422766D01*
X-11097585Y23319994D01*
X-11097585Y23319992D01*
X-11100500Y23294869D01*
X-11100500Y23124500D01*
X-11120185Y23057461D01*
X-11172989Y23011706D01*
X-11224500Y23000500D01*
X-11715892Y23000500D01*
X-11843188Y22966392D01*
X-11957314Y22900500D01*
X-11957317Y22900498D01*
X-11970995Y22886819D01*
X-12032318Y22853334D01*
X-12058676Y22850500D01*
X-12068995Y22850500D01*
X-12204323Y22823582D01*
X-12204333Y22823579D01*
X-12331805Y22770779D01*
X-12331818Y22770772D01*
X-12446542Y22694115D01*
X-12446546Y22694112D01*
X-12544112Y22596546D01*
X-12544115Y22596542D01*
X-12620772Y22481818D01*
X-12620779Y22481805D01*
X-12673579Y22354333D01*
X-12673582Y22354323D01*
X-12700500Y22218996D01*
X-12700500Y22081005D01*
X-12692083Y22038692D01*
X-12698310Y21969101D01*
X-12741172Y21913923D01*
X-12807062Y21890678D01*
X-12813700Y21890500D01*
X-13175893Y21890500D01*
X-13303188Y21856392D01*
X-13417314Y21790500D01*
X-13417317Y21790498D01*
X-15470995Y19736819D01*
X-15532318Y19703334D01*
X-15558676Y19700500D01*
X-15568995Y19700500D01*
X-15704323Y19673582D01*
X-15704333Y19673579D01*
X-15831805Y19620779D01*
X-15831818Y19620772D01*
X-15946542Y19544115D01*
X-15946546Y19544112D01*
X-16044112Y19446546D01*
X-16044115Y19446542D01*
X-16120772Y19331818D01*
X-16120779Y19331805D01*
X-16173579Y19204333D01*
X-16173582Y19204323D01*
X-16200500Y19068996D01*
X-16200500Y19068993D01*
X-16200500Y18931007D01*
X-16200500Y18931005D01*
X-16200501Y18931005D01*
X-17499500Y18931005D01*
X-17499500Y19458482D01*
X-17479815Y19525521D01*
X-17463177Y19546167D01*
X-17455886Y19553458D01*
X-17379225Y19668189D01*
X-17326420Y19795672D01*
X-17313196Y19862155D01*
X-17299500Y19931005D01*
X-17299500Y20068996D01*
X-17326419Y20204323D01*
X-17326420Y20204324D01*
X-17326420Y20204328D01*
X-17364254Y20295668D01*
X-17379222Y20331805D01*
X-17379229Y20331818D01*
X-17455886Y20446542D01*
X-17455889Y20446546D01*
X-17553455Y20544112D01*
X-17553459Y20544115D01*
X-17668183Y20620772D01*
X-17668196Y20620779D01*
X-17795668Y20673579D01*
X-17795678Y20673582D01*
X-17931005Y20700500D01*
X-17931007Y20700500D01*
X-18068993Y20700500D01*
X-18068998Y20700500D01*
X-18174723Y20679470D01*
X-18244315Y20685697D01*
X-18299492Y20728560D01*
X-18322736Y20794450D01*
X-18320531Y20825279D01*
X-18319231Y20831811D01*
X-18299500Y20931007D01*
X-18299500Y21068993D01*
X-18299500Y21068996D01*
X-18326419Y21204323D01*
X-18326420Y21204324D01*
X-18326420Y21204328D01*
X-18345338Y21250000D01*
X-18379222Y21331805D01*
X-18379229Y21331818D01*
X-18455886Y21446542D01*
X-18455889Y21446546D01*
X-18553455Y21544112D01*
X-18553459Y21544115D01*
X-18668183Y21620772D01*
X-18668196Y21620779D01*
X-18795668Y21673579D01*
X-18795678Y21673582D01*
X-18931005Y21700500D01*
X-18931007Y21700500D01*
X-19068993Y21700500D01*
X-19068995Y21700500D01*
X-19204323Y21673582D01*
X-19204333Y21673579D01*
X-19328048Y21622335D01*
X-19397518Y21614866D01*
X-19459997Y21646142D01*
X-19495648Y21706231D01*
X-19499500Y21736896D01*
X-19499500Y26458482D01*
X-19479815Y26525521D01*
X-19463177Y26546167D01*
X-19455886Y26553458D01*
X-19379225Y26668189D01*
X-19326420Y26795672D01*
X-19299500Y26931007D01*
X-19299500Y27068993D01*
X-19299500Y27068996D01*
X-19326419Y27204323D01*
X-19326420Y27204324D01*
X-19326420Y27204328D01*
X-19326422Y27204333D01*
X-19379222Y27331805D01*
X-19379229Y27331818D01*
X-19455886Y27446542D01*
X-19455889Y27446546D01*
X-19553455Y27544112D01*
X-19553459Y27544115D01*
X-19668183Y27620772D01*
X-19668196Y27620779D01*
X-19795668Y27673579D01*
X-19795678Y27673582D01*
X-19931005Y27700500D01*
X-19931007Y27700500D01*
X-20068993Y27700500D01*
X-20068995Y27700500D01*
X-20204323Y27673582D01*
X-20204333Y27673579D01*
X-20331805Y27620779D01*
X-20331818Y27620772D01*
X-20446542Y27544115D01*
X-20446546Y27544112D01*
X-20544112Y27446546D01*
X-20544115Y27446542D01*
X-20620772Y27331818D01*
X-20620779Y27331805D01*
X-20673579Y27204333D01*
X-20673582Y27204323D01*
X-20700500Y27068996D01*
X-20700500Y27068993D01*
X-20700500Y26931007D01*
X-20700500Y26931005D01*
X-20700501Y26931005D01*
X-28599500Y26931005D01*
X-28599500Y28197845D01*
X-26375000Y28197845D01*
X-26375000Y27100000D01*
X-24625000Y27100000D01*
X-24125000Y27100000D01*
X-22375000Y27100000D01*
X-22375000Y28197828D01*
X-22375001Y28197845D01*
X-22381402Y28257373D01*
X-22381404Y28257380D01*
X-22431646Y28392087D01*
X-22431650Y28392094D01*
X-22517810Y28507188D01*
X-22517813Y28507191D01*
X-22632907Y28593351D01*
X-22632914Y28593355D01*
X-22767621Y28643597D01*
X-22767628Y28643599D01*
X-22827156Y28650000D01*
X-24125000Y28650000D01*
X-24125000Y27100000D01*
X-24625000Y27100000D01*
X-24625000Y28650000D01*
X-25922845Y28650000D01*
X-25982373Y28643599D01*
X-25982380Y28643597D01*
X-26117087Y28593355D01*
X-26117094Y28593351D01*
X-26232188Y28507191D01*
X-26232191Y28507188D01*
X-26318351Y28392094D01*
X-26318355Y28392087D01*
X-26368597Y28257380D01*
X-26368599Y28257373D01*
X-26375000Y28197845D01*
X-28599500Y28197845D01*
X-28599500Y35749903D01*
X-28579815Y35816942D01*
X-28563181Y35837584D01*
X-26637584Y37763181D01*
X-26576261Y37796666D01*
X-26549903Y37799500D01*
X-22352859Y37799500D01*
X-22352843Y37799499D01*
X-22345247Y37799499D01*
X-22187136Y37799499D01*
X-22187133Y37799499D01*
X-22034405Y37840423D01*
X-21984286Y37869361D01*
X-21897474Y37919480D01*
X-21785670Y38031284D01*
X-21785670Y38031286D01*
X-21775462Y38041493D01*
X-21775461Y38041496D01*
X-19203773Y40613181D01*
X-19142450Y40646666D01*
X-19116092Y40649500D01*
X-550097Y40649500D01*
X-483058Y40629815D01*
X-462416Y40613181D01*
X3613181Y36537584D01*
X3646666Y36476261D01*
X3649500Y36449903D01*
X3649500Y29970997D01*
X3647117Y29946805D01*
X3633131Y29876496D01*
X3633131Y29738505D01*
X3647117Y29668196D01*
X3649500Y29644004D01*
X3649500Y10207270D01*
X3631253Y10145131D01*
X3632095Y10144681D01*
X3629935Y10140641D01*
X3629815Y10140231D01*
X3629278Y10139413D01*
X3629223Y10139310D01*
X3576421Y10011833D01*
X3576418Y10011823D01*
X3549500Y9876496D01*
X3549500Y9876493D01*
X3549500Y9738507D01*
X3549500Y9738505D01*
X3549499Y9738505D01*
X3576418Y9603178D01*
X3576421Y9603168D01*
X3629222Y9475694D01*
X3632094Y9470322D01*
X3630792Y9469626D01*
X3649480Y9409946D01*
X3649500Y9407731D01*
X3649500Y-9792730D01*
X3631253Y-9854869D01*
X3632095Y-9855319D01*
X3629935Y-9859359D01*
X3629815Y-9859769D01*
X3629278Y-9860587D01*
X3629223Y-9860690D01*
X3576421Y-9988167D01*
X3576418Y-9988177D01*
X3549500Y-10123504D01*
X3549500Y-10123507D01*
X3549500Y-10261493D01*
X3549500Y-10261495D01*
X3549499Y-10261495D01*
X3576418Y-10396822D01*
X3576421Y-10396832D01*
X3629222Y-10524306D01*
X3632094Y-10529678D01*
X3630792Y-10530374D01*
X3649480Y-10590054D01*
X3649500Y-10592269D01*
X3649500Y-29792730D01*
X3631253Y-29854869D01*
X3632095Y-29855319D01*
X3629935Y-29859359D01*
X3629815Y-29859769D01*
X3629278Y-29860587D01*
X3629223Y-29860690D01*
X3576421Y-29988167D01*
X3576418Y-29988177D01*
X3549500Y-30123504D01*
X3549500Y-30123507D01*
X3549500Y-30261493D01*
X3549500Y-30261495D01*
X3549499Y-30261495D01*
X3576418Y-30396822D01*
X3576421Y-30396832D01*
X3629221Y-30524304D01*
X3629228Y-30524317D01*
X3705885Y-30639041D01*
X3705888Y-30639045D01*
X3803454Y-30736611D01*
X3803458Y-30736614D01*
X3918182Y-30813271D01*
X3918195Y-30813278D01*
X4045667Y-30866078D01*
X4045672Y-30866080D01*
X4045676Y-30866080D01*
X4045677Y-30866081D01*
X4181004Y-30893000D01*
X4181007Y-30893000D01*
X4318995Y-30893000D01*
X4410041Y-30874889D01*
X4454328Y-30866080D01*
X4581811Y-30813275D01*
X4696542Y-30736614D01*
X4794114Y-30639042D01*
X4870775Y-30524311D01*
X4923580Y-30396828D01*
X4950500Y-30261493D01*
X4950500Y-30123507D01*
X4950500Y-30123504D01*
X4923581Y-29988177D01*
X4923580Y-29988176D01*
X4923580Y-29988172D01*
X4923578Y-29988167D01*
X4870776Y-29860690D01*
X4867905Y-29855319D01*
X4869205Y-29854623D01*
X4850520Y-29794938D01*
X4850500Y-29792730D01*
X4850500Y-10592269D01*
X4868746Y-10530127D01*
X4867906Y-10529678D01*
X4870064Y-10525640D01*
X4870185Y-10525230D01*
X4870721Y-10524410D01*
X4870771Y-10524316D01*
X4870775Y-10524311D01*
X4923580Y-10396828D01*
X4950500Y-10261493D01*
X4950500Y-10123507D01*
X4950500Y-10123504D01*
X4923581Y-9988177D01*
X4923580Y-9988176D01*
X4923580Y-9988172D01*
X4923578Y-9988167D01*
X4870776Y-9860690D01*
X4867905Y-9855319D01*
X4869205Y-9854623D01*
X4850520Y-9794938D01*
X4850500Y-9792730D01*
X4850500Y9407731D01*
X4868746Y9469873D01*
X4867906Y9470322D01*
X4870064Y9474360D01*
X4870185Y9474770D01*
X4870721Y9475590D01*
X4870771Y9475684D01*
X4870775Y9475689D01*
X4923580Y9603172D01*
X4932389Y9647459D01*
X4950500Y9738505D01*
X4950500Y9876496D01*
X4923581Y10011823D01*
X4923580Y10011824D01*
X4923580Y10011828D01*
X4917198Y10027235D01*
X4870776Y10139310D01*
X4867905Y10144681D01*
X4869205Y10145377D01*
X4850520Y10205062D01*
X4850500Y10207270D01*
X4850500Y29283392D01*
X4870185Y29350431D01*
X4876602Y29359249D01*
X4877741Y29360955D01*
X4877745Y29360958D01*
X4954406Y29475689D01*
X5007211Y29603172D01*
X5034131Y29738507D01*
X5034131Y29876493D01*
X5034131Y29876496D01*
X5007212Y30011823D01*
X5007211Y30011824D01*
X5007211Y30011828D01*
X5007209Y30011833D01*
X4954409Y30139305D01*
X4954402Y30139318D01*
X4874361Y30259107D01*
X4875659Y30259975D01*
X4851333Y30317264D01*
X4850500Y30331609D01*
X4850500Y36660941D01*
X4850501Y36660954D01*
X4850501Y36829055D01*
X4850501Y36829057D01*
X4809577Y36981785D01*
X4780639Y37031905D01*
X4730520Y37118716D01*
X4618716Y37230520D01*
X4618715Y37230521D01*
X4614385Y37234851D01*
X4614374Y37234861D01*
X237590Y41611645D01*
X237588Y41611648D01*
X118715Y41730521D01*
X52737Y41768612D01*
X4521Y41819179D01*
X-8703Y41887786D01*
X17265Y41952651D01*
X74178Y41993180D01*
X114736Y42000000D01*
X6876000Y42000000D01*
X6943039Y41980315D01*
G37*
%TD.AperFunction*%
%TD*%
%TA.AperFunction,Conductor*%
%TO.N,PE*%
G36*
X36998084Y49499444D02*
G01*
X37001848Y49499331D01*
X37005575Y49499163D01*
X37290069Y49481955D01*
X37297505Y49481279D01*
X37304951Y49480375D01*
X37312324Y49479253D01*
X37587134Y49428892D01*
X37594431Y49427325D01*
X37601691Y49425535D01*
X37601703Y49425532D01*
X37608909Y49423523D01*
X37875613Y49340414D01*
X37882663Y49337982D01*
X37889671Y49335325D01*
X37896567Y49332468D01*
X38151322Y49217812D01*
X38158048Y49214536D01*
X38164684Y49211053D01*
X38171191Y49207383D01*
X38410260Y49062863D01*
X38416534Y49058806D01*
X38422686Y49054560D01*
X38428711Y49050128D01*
X38648621Y48877839D01*
X38654379Y48873040D01*
X38659984Y48868074D01*
X38665434Y48862943D01*
X38862941Y48665436D01*
X38868072Y48659986D01*
X38873038Y48654381D01*
X38877837Y48648623D01*
X39050117Y48428725D01*
X39054538Y48422717D01*
X39058817Y48416517D01*
X39062854Y48410273D01*
X39207389Y48171180D01*
X39211062Y48164667D01*
X39214543Y48158033D01*
X39217816Y48151310D01*
X39332452Y47896602D01*
X39335321Y47889677D01*
X39337980Y47882665D01*
X39340421Y47875588D01*
X39423520Y47608913D01*
X39425526Y47601718D01*
X39427322Y47594434D01*
X39428893Y47587119D01*
X39479247Y47312345D01*
X39480373Y47304949D01*
X39481275Y47297525D01*
X39481954Y47290056D01*
X39499160Y47005616D01*
X39499329Y47001883D01*
X39499443Y46998119D01*
X39499500Y46994365D01*
X39499500Y-46994363D01*
X39499443Y-46998117D01*
X39499329Y-47001881D01*
X39499160Y-47005614D01*
X39481954Y-47290054D01*
X39481275Y-47297523D01*
X39480373Y-47304947D01*
X39479247Y-47312343D01*
X39428893Y-47587117D01*
X39427319Y-47594449D01*
X39425530Y-47601705D01*
X39423520Y-47608911D01*
X39340421Y-47875586D01*
X39337980Y-47882663D01*
X39335321Y-47889675D01*
X39332452Y-47896600D01*
X39217816Y-48151308D01*
X39214543Y-48158031D01*
X39211062Y-48164665D01*
X39207377Y-48171200D01*
X39062863Y-48410257D01*
X39058807Y-48416530D01*
X39054549Y-48422699D01*
X39050117Y-48428723D01*
X38877837Y-48648621D01*
X38873038Y-48654379D01*
X38868072Y-48659984D01*
X38862941Y-48665434D01*
X38665434Y-48862941D01*
X38659984Y-48868072D01*
X38654379Y-48873038D01*
X38648621Y-48877837D01*
X38428723Y-49050117D01*
X38422699Y-49054549D01*
X38416530Y-49058807D01*
X38410255Y-49062863D01*
X38171192Y-49207381D01*
X38164665Y-49211062D01*
X38158031Y-49214543D01*
X38151308Y-49217816D01*
X37896600Y-49332452D01*
X37889675Y-49335321D01*
X37882663Y-49337980D01*
X37875586Y-49340421D01*
X37608911Y-49423520D01*
X37601708Y-49425529D01*
X37594439Y-49427321D01*
X37587117Y-49428893D01*
X37312343Y-49479247D01*
X37304947Y-49480373D01*
X37297523Y-49481275D01*
X37290054Y-49481954D01*
X37005614Y-49499160D01*
X37001881Y-49499329D01*
X36998117Y-49499443D01*
X36994363Y-49499500D01*
X-26994363Y-49499500D01*
X-26998116Y-49499443D01*
X-27001881Y-49499329D01*
X-27005615Y-49499160D01*
X-27290056Y-49481954D01*
X-27297525Y-49481275D01*
X-27304949Y-49480373D01*
X-27312345Y-49479247D01*
X-27587119Y-49428893D01*
X-27594434Y-49427322D01*
X-27601718Y-49425526D01*
X-27608913Y-49423520D01*
X-27875593Y-49340420D01*
X-27882666Y-49337980D01*
X-27889690Y-49335316D01*
X-27896580Y-49332461D01*
X-27951120Y-49307915D01*
X-28045904Y-49265255D01*
X-28045904Y-49265256D01*
X-28151317Y-49217813D01*
X-28158049Y-49214535D01*
X-28164676Y-49211057D01*
X-28171180Y-49207389D01*
X-28410273Y-49062854D01*
X-28416517Y-49058817D01*
X-28422717Y-49054538D01*
X-28428725Y-49050117D01*
X-28648623Y-48877837D01*
X-28654381Y-48873038D01*
X-28659986Y-48868072D01*
X-28665436Y-48862941D01*
X-28862943Y-48665434D01*
X-28868074Y-48659984D01*
X-28873040Y-48654379D01*
X-28877839Y-48648621D01*
X-29050128Y-48428711D01*
X-29054556Y-48422691D01*
X-29058808Y-48416532D01*
X-29062853Y-48410275D01*
X-29207398Y-48171167D01*
X-29211059Y-48164674D01*
X-29214537Y-48158047D01*
X-29217809Y-48151329D01*
X-29332468Y-47896567D01*
X-29335328Y-47889662D01*
X-29337982Y-47882663D01*
X-29340419Y-47875599D01*
X-29423521Y-47608916D01*
X-29425532Y-47601703D01*
X-29427323Y-47594437D01*
X-29428892Y-47587134D01*
X-29479250Y-47312339D01*
X-29480373Y-47304965D01*
X-29481281Y-47297487D01*
X-29481954Y-47290082D01*
X-29499163Y-47005575D01*
X-29499331Y-47001848D01*
X-29499444Y-46998084D01*
X-29499500Y-46994363D01*
X-29499500Y-44141829D01*
X-29494477Y-44106893D01*
X-29490073Y-44091895D01*
X-29452328Y-44033144D01*
X-29450959Y-44031957D01*
X-29396080Y-44004477D01*
X-29388521Y-44002833D01*
X-29362168Y-44000000D01*
X34000000Y-44000000D01*
X34000000Y-40506375D01*
X34005022Y-40471442D01*
X34008933Y-40458123D01*
X34046706Y-40399346D01*
X34110258Y-40370321D01*
X34113563Y-40369846D01*
X34168719Y-40374391D01*
X34170600Y-40374988D01*
X34189384Y-40382693D01*
X34385808Y-40482777D01*
X34385812Y-40482779D01*
X34528011Y-40528981D01*
X34625328Y-40560602D01*
X34791158Y-40586867D01*
X34874072Y-40600000D01*
X35125927Y-40600000D01*
X35125928Y-40600000D01*
X35374669Y-40560602D01*
X35614184Y-40482780D01*
X35838575Y-40368446D01*
X35838581Y-40368442D01*
X35908102Y-40317932D01*
X35934840Y-40308391D01*
X35940698Y-40294249D01*
X35399572Y-39753124D01*
X35366087Y-39691801D01*
X35371071Y-39622110D01*
X35412942Y-39566176D01*
X35418323Y-39562368D01*
X35446224Y-39543726D01*
X35543726Y-39446224D01*
X35562342Y-39418361D01*
X35615950Y-39373559D01*
X35685274Y-39364849D01*
X35748303Y-39395002D01*
X35753124Y-39399572D01*
X36294249Y-39940698D01*
X36294249Y-39940697D01*
X36294250Y-39940698D01*
X36294250Y-39940697D01*
X36307718Y-39935118D01*
X36313935Y-39913948D01*
X36317932Y-39908102D01*
X36323731Y-39900118D01*
X36368442Y-39838581D01*
X36368446Y-39838575D01*
X36482780Y-39614184D01*
X36560602Y-39374669D01*
X36599416Y-39129609D01*
X36602907Y-39114095D01*
X36609427Y-39091892D01*
X36647196Y-39033121D01*
X36648571Y-39031930D01*
X36703420Y-39004477D01*
X36710979Y-39002833D01*
X36737332Y-39000000D01*
X38000000Y-39000000D01*
X38000000Y44000000D01*
X-29357670Y44000000D01*
X-29357675Y44000001D01*
X-29357677Y44000000D01*
X-29392611Y44005025D01*
X-29407610Y44009430D01*
X-29466356Y44047173D01*
X-29466385Y44047207D01*
X-29466386Y44047207D01*
X-29466387Y44047209D01*
X-29467543Y44048542D01*
X-29495023Y44103417D01*
X-29496668Y44110979D01*
X-29499500Y44137332D01*
X-29499500Y46994365D01*
X-29499444Y46998086D01*
X-29499331Y47001850D01*
X-29499163Y47005574D01*
X-29481954Y47290087D01*
X-29481281Y47297486D01*
X-29480372Y47304972D01*
X-29479249Y47312345D01*
X-29428890Y47587145D01*
X-29427332Y47594402D01*
X-29425521Y47601750D01*
X-29423537Y47608864D01*
X-29340397Y47875672D01*
X-29337990Y47882646D01*
X-29335314Y47889703D01*
X-29332485Y47896533D01*
X-29217790Y48151373D01*
X-29214546Y48158033D01*
X-29211037Y48164718D01*
X-29207398Y48171168D01*
X-29169041Y48234619D01*
X-29062853Y48410278D01*
X-29058799Y48416547D01*
X-29054551Y48422703D01*
X-29050126Y48428715D01*
X-29050118Y48428725D01*
X-28877815Y48648653D01*
X-28873062Y48654357D01*
X-28868054Y48660010D01*
X-28862968Y48665411D01*
X-28665411Y48862968D01*
X-28660010Y48868054D01*
X-28654357Y48873062D01*
X-28648653Y48877815D01*
X-28428710Y49050131D01*
X-28422689Y49054560D01*
X-28416537Y49058806D01*
X-28410281Y49062851D01*
X-28171154Y49207407D01*
X-28164718Y49211037D01*
X-28158016Y49214555D01*
X-28151373Y49217790D01*
X-27896533Y49332485D01*
X-27889703Y49335314D01*
X-27882646Y49337990D01*
X-27875642Y49340407D01*
X-27608894Y49423529D01*
X-27601733Y49425526D01*
X-27594418Y49427329D01*
X-27587144Y49428891D01*
X-27312327Y49479253D01*
X-27304958Y49480375D01*
X-27297500Y49481280D01*
X-27290091Y49481954D01*
X-27005573Y49499163D01*
X-27001848Y49499331D01*
X-26998083Y49499444D01*
X-26994363Y49499500D01*
X36994363Y49499500D01*
X36998084Y49499444D01*
G37*
%TD.AperFunction*%
%TD*%
%TA.AperFunction,Conductor*%
%TO.N,/COM_CNV*%
G36*
X17557088Y41998626D02*
G01*
X17557103Y41998901D01*
X17561307Y41998684D01*
X17569620Y41996824D01*
X17582464Y41994977D01*
X17585645Y41994043D01*
X17585423Y41993288D01*
X17601909Y41989599D01*
X17604770Y41988427D01*
X17604788Y41988422D01*
X17607794Y41987367D01*
X17607555Y41986688D01*
X17618634Y41979876D01*
X17632581Y41976377D01*
X17660154Y41954345D01*
X17660844Y41953610D01*
X17672013Y41939865D01*
X17680662Y41927513D01*
X17680664Y41927511D01*
X17790824Y41770184D01*
X18005867Y41513907D01*
X18005867Y41513906D01*
X18068261Y41439549D01*
X18088338Y41415622D01*
X18415622Y41088338D01*
X18486782Y41028628D01*
X18563044Y40964636D01*
X18563047Y40964634D01*
X18770182Y40790826D01*
X18770185Y40790824D01*
X19149312Y40525357D01*
X19149315Y40525356D01*
X19149324Y40525349D01*
X19149330Y40525345D01*
X19550170Y40293920D01*
X19550177Y40293917D01*
X19550366Y40293820D01*
X19551149Y40293464D01*
X19969636Y40098319D01*
X19969640Y40098318D01*
X19969654Y40098311D01*
X19969658Y40098310D01*
X19969670Y40098304D01*
X19969972Y40098195D01*
X20106161Y40048627D01*
X20403829Y39940284D01*
X20404590Y39940007D01*
X20404598Y39940005D01*
X20404600Y39940004D01*
X20526349Y39907382D01*
X20851669Y39820213D01*
X21307487Y39739840D01*
X21749559Y39701165D01*
X21756361Y39699500D01*
X22231426Y39699500D01*
X22257948Y39699500D01*
X22260822Y39701070D01*
X22276379Y39703434D01*
X22692513Y39739840D01*
X23148331Y39820213D01*
X23595410Y39940007D01*
X24030346Y40098311D01*
X24449830Y40293920D01*
X24850670Y40525345D01*
X25229814Y40790824D01*
X25584378Y41088338D01*
X25911662Y41415622D01*
X26209176Y41770186D01*
X26322845Y41932526D01*
X26346987Y41958251D01*
X26363948Y41971807D01*
X26417431Y41996612D01*
X26421748Y41997462D01*
X26422803Y41997669D01*
X26428434Y41998218D01*
X26428599Y41998285D01*
X26428781Y41998252D01*
X26446733Y42000000D01*
X35858170Y42000000D01*
X35893106Y41994977D01*
X35908104Y41990573D01*
X35923094Y41980943D01*
X35940175Y41975933D01*
X35966855Y41952828D01*
X35968042Y41951459D01*
X35995518Y41896598D01*
X35997163Y41889040D01*
X36000000Y41862669D01*
X36000000Y28506938D01*
X35994975Y28471997D01*
X35991064Y28458680D01*
X35981426Y28443686D01*
X35976404Y28426580D01*
X35962927Y28414903D01*
X35953287Y28399904D01*
X35937070Y28392500D01*
X35923599Y28380826D01*
X35889734Y28370883D01*
X35886430Y28370408D01*
X35831273Y28374956D01*
X35829392Y28375553D01*
X35817921Y28380259D01*
X35817272Y28380352D01*
X35816892Y28380681D01*
X35810610Y28383258D01*
X35618937Y28480919D01*
X35615431Y28482891D01*
X35614388Y28483239D01*
X35374787Y28561090D01*
X35208903Y28587364D01*
X35125962Y28600500D01*
X35125961Y28600500D01*
X34874039Y28600500D01*
X34874038Y28600500D01*
X34791096Y28587364D01*
X34625212Y28561090D01*
X34625209Y28561090D01*
X34385619Y28483241D01*
X34385616Y28483240D01*
X34226425Y28402127D01*
X34161147Y28368866D01*
X33957367Y28220812D01*
X33957338Y28220790D01*
X33779210Y28042662D01*
X33779188Y28042633D01*
X33631134Y27838853D01*
X33516759Y27614382D01*
X33449535Y27407486D01*
X33438910Y27374786D01*
X33399500Y27125962D01*
X33399500Y26874033D01*
X33429969Y26681664D01*
X33438909Y26625219D01*
X33438909Y26625218D01*
X33438910Y26625215D01*
X33516760Y26385617D01*
X33631132Y26161152D01*
X33779201Y25957351D01*
X33779205Y25957346D01*
X33779210Y25957340D01*
X33957338Y25779212D01*
X33957342Y25779209D01*
X33957345Y25779206D01*
X33957350Y25779202D01*
X34076751Y25692453D01*
X34161155Y25631130D01*
X34304184Y25558253D01*
X34304183Y25558253D01*
X34340752Y25539621D01*
X34382775Y25518209D01*
X34386488Y25516316D01*
X34390243Y25515257D01*
X34465062Y25490947D01*
X34625215Y25438910D01*
X34874038Y25399500D01*
X34874039Y25399500D01*
X35125961Y25399500D01*
X35125962Y25399500D01*
X35374785Y25438910D01*
X35614379Y25516759D01*
X35803821Y25613286D01*
X35837220Y25624669D01*
X35850866Y25627231D01*
X35920384Y25620260D01*
X35975100Y25576811D01*
X35977040Y25574059D01*
X35998002Y25522947D01*
X35998325Y25521002D01*
X36000000Y25500688D01*
X36000000Y25006938D01*
X35999999Y25006934D01*
X36000000Y25006931D01*
X35994975Y24971997D01*
X35991064Y24958680D01*
X35953287Y24899904D01*
X35889734Y24870883D01*
X35889729Y24870883D01*
X35889729Y24870882D01*
X35889728Y24870883D01*
X35886430Y24870408D01*
X35831273Y24874956D01*
X35829392Y24875553D01*
X35810610Y24883258D01*
X35618937Y24980919D01*
X35615431Y24982891D01*
X35614388Y24983239D01*
X35374787Y25061090D01*
X35208903Y25087364D01*
X35125962Y25100500D01*
X35125961Y25100500D01*
X34874039Y25100500D01*
X34874038Y25100500D01*
X34791096Y25087364D01*
X34625212Y25061090D01*
X34625209Y25061090D01*
X34385619Y24983241D01*
X34385616Y24983240D01*
X34222062Y24899904D01*
X34161147Y24868866D01*
X33957367Y24720812D01*
X33957338Y24720790D01*
X33779210Y24542662D01*
X33779188Y24542633D01*
X33631134Y24338853D01*
X33631132Y24338849D01*
X33516760Y24114384D01*
X33516759Y24114382D01*
X33516759Y24114381D01*
X33438910Y23874791D01*
X33438910Y23874788D01*
X33399500Y23625962D01*
X33399500Y23374040D01*
X33438910Y23125214D01*
X33438910Y23125211D01*
X33502172Y22930514D01*
X33516760Y22885617D01*
X33631132Y22661152D01*
X33779201Y22457351D01*
X33779205Y22457346D01*
X33779210Y22457340D01*
X33957338Y22279212D01*
X33957342Y22279209D01*
X33957345Y22279206D01*
X33957350Y22279202D01*
X34135117Y22150048D01*
X34161155Y22131130D01*
X34304184Y22058253D01*
X34304183Y22058253D01*
X34327154Y22046549D01*
X34382775Y22018209D01*
X34386488Y22016316D01*
X34390243Y22015257D01*
X34459042Y21992903D01*
X34625215Y21938910D01*
X34874038Y21899500D01*
X34874039Y21899500D01*
X35125961Y21899500D01*
X35125962Y21899500D01*
X35374785Y21938910D01*
X35614379Y22016759D01*
X35803821Y22113286D01*
X35837220Y22124669D01*
X35850866Y22127231D01*
X35920384Y22120260D01*
X35975100Y22076811D01*
X35977040Y22074059D01*
X35998002Y22022947D01*
X35998325Y22021002D01*
X36000000Y22000688D01*
X36000000Y21506938D01*
X35999999Y21506934D01*
X36000000Y21506931D01*
X35994975Y21471997D01*
X35991064Y21458680D01*
X35953287Y21399904D01*
X35889734Y21370883D01*
X35889729Y21370883D01*
X35889729Y21370882D01*
X35889728Y21370883D01*
X35886430Y21370408D01*
X35831273Y21374956D01*
X35829392Y21375553D01*
X35810610Y21383258D01*
X35618937Y21480919D01*
X35615431Y21482891D01*
X35614388Y21483239D01*
X35374787Y21561090D01*
X35208903Y21587364D01*
X35125962Y21600500D01*
X35125961Y21600500D01*
X34874039Y21600500D01*
X34874038Y21600500D01*
X34791096Y21587364D01*
X34625212Y21561090D01*
X34625209Y21561090D01*
X34385619Y21483241D01*
X34385616Y21483240D01*
X34231253Y21404587D01*
X34161147Y21368866D01*
X33957367Y21220812D01*
X33957338Y21220790D01*
X33779210Y21042662D01*
X33779188Y21042633D01*
X33631134Y20838853D01*
X33631132Y20838849D01*
X33516760Y20614384D01*
X33516759Y20614382D01*
X33516759Y20614381D01*
X33438910Y20374791D01*
X33438910Y20374788D01*
X33399500Y20125962D01*
X33399500Y19874040D01*
X33438910Y19625214D01*
X33438910Y19625211D01*
X33502172Y19430514D01*
X33516760Y19385617D01*
X33631132Y19161152D01*
X33779201Y18957351D01*
X33779205Y18957346D01*
X33779210Y18957340D01*
X33957338Y18779212D01*
X33957342Y18779209D01*
X33957345Y18779206D01*
X33957350Y18779202D01*
X34135117Y18650048D01*
X34161155Y18631130D01*
X34284684Y18568189D01*
X34379172Y18520044D01*
X34380767Y18519111D01*
X34384472Y18517316D01*
X34386476Y18516320D01*
X34390234Y18515260D01*
X34625215Y18438910D01*
X34874038Y18399500D01*
X34874039Y18399500D01*
X35125961Y18399500D01*
X35125962Y18399500D01*
X35374785Y18438910D01*
X35614379Y18516759D01*
X35803821Y18613286D01*
X35837220Y18624669D01*
X35850866Y18627231D01*
X35920384Y18620260D01*
X35975100Y18576811D01*
X35975963Y18575587D01*
X35977040Y18574059D01*
X35998002Y18522947D01*
X35998325Y18521002D01*
X36000000Y18500688D01*
X36000000Y18006938D01*
X35999999Y18006934D01*
X36000000Y18006931D01*
X35994975Y17971997D01*
X35991064Y17958680D01*
X35953287Y17899904D01*
X35889734Y17870883D01*
X35889729Y17870883D01*
X35889729Y17870882D01*
X35889728Y17870883D01*
X35886430Y17870408D01*
X35831273Y17874956D01*
X35829392Y17875553D01*
X35810610Y17883258D01*
X35618937Y17980919D01*
X35615431Y17982891D01*
X35614388Y17983239D01*
X35374787Y18061090D01*
X35208903Y18087364D01*
X35125962Y18100500D01*
X35125961Y18100500D01*
X34874039Y18100500D01*
X34874038Y18100500D01*
X34791096Y18087364D01*
X34625212Y18061090D01*
X34625209Y18061090D01*
X34385619Y17983241D01*
X34385616Y17983240D01*
X34222062Y17899904D01*
X34161147Y17868866D01*
X33957367Y17720812D01*
X33957338Y17720790D01*
X33779210Y17542662D01*
X33779188Y17542633D01*
X33631134Y17338853D01*
X33631132Y17338849D01*
X33516760Y17114384D01*
X33516759Y17114382D01*
X33516759Y17114381D01*
X33438910Y16874791D01*
X33438910Y16874788D01*
X33399500Y16625962D01*
X33399500Y16374040D01*
X33438910Y16125214D01*
X33438910Y16125211D01*
X33502172Y15930514D01*
X33516760Y15885617D01*
X33631132Y15661152D01*
X33779201Y15457351D01*
X33779205Y15457346D01*
X33779210Y15457340D01*
X33957336Y15279214D01*
X33957345Y15279206D01*
X33957369Y15279188D01*
X34009213Y15241521D01*
X34009217Y15241519D01*
X34161155Y15131130D01*
X34304184Y15058253D01*
X34304183Y15058253D01*
X34340752Y15039621D01*
X34382775Y15018209D01*
X34386488Y15016316D01*
X34390243Y15015257D01*
X34435082Y15000688D01*
X34625215Y14938910D01*
X34874038Y14899500D01*
X34874039Y14899500D01*
X35125961Y14899500D01*
X35125962Y14899500D01*
X35374785Y14938910D01*
X35614379Y15016759D01*
X35803821Y15113286D01*
X35837220Y15124669D01*
X35850866Y15127231D01*
X35920384Y15120260D01*
X35975100Y15076811D01*
X35977040Y15074059D01*
X35998002Y15022947D01*
X35998325Y15021002D01*
X36000000Y15000688D01*
X36000000Y14506938D01*
X35999999Y14506934D01*
X36000000Y14506931D01*
X35994975Y14471997D01*
X35991064Y14458680D01*
X35953287Y14399904D01*
X35889734Y14370883D01*
X35889729Y14370883D01*
X35889729Y14370882D01*
X35889728Y14370883D01*
X35886430Y14370408D01*
X35831273Y14374956D01*
X35829392Y14375553D01*
X35810610Y14383258D01*
X35618937Y14480919D01*
X35615431Y14482891D01*
X35614388Y14483239D01*
X35374787Y14561090D01*
X35208903Y14587364D01*
X35125962Y14600500D01*
X35125961Y14600500D01*
X34874039Y14600500D01*
X34874038Y14600500D01*
X34791096Y14587364D01*
X34625212Y14561090D01*
X34625209Y14561090D01*
X34385619Y14483241D01*
X34385616Y14483240D01*
X34189393Y14383258D01*
X34161147Y14368866D01*
X33957367Y14220812D01*
X33957338Y14220790D01*
X33779210Y14042662D01*
X33779188Y14042633D01*
X33631134Y13838853D01*
X33631132Y13838849D01*
X33516760Y13614384D01*
X33516759Y13614382D01*
X33516759Y13614381D01*
X33438910Y13374791D01*
X33438910Y13374788D01*
X33438910Y13374787D01*
X33438910Y13374786D01*
X33399500Y13125962D01*
X33399500Y12874039D01*
X33412360Y12792844D01*
X33438910Y12625214D01*
X33438910Y12625211D01*
X33495151Y12452123D01*
X33516760Y12385617D01*
X33631132Y12161152D01*
X33779201Y11957351D01*
X33779205Y11957346D01*
X33779210Y11957340D01*
X33957338Y11779212D01*
X33957342Y11779209D01*
X33957345Y11779206D01*
X33957350Y11779202D01*
X34014959Y11737347D01*
X34124883Y11657483D01*
X34124884Y11657482D01*
X34161150Y11631133D01*
X34161152Y11631132D01*
X34161155Y11631130D01*
X34283314Y11568887D01*
X34385616Y11516761D01*
X34385617Y11516761D01*
X34386490Y11516316D01*
X34390243Y11515257D01*
X34459042Y11492903D01*
X34625215Y11438910D01*
X34874038Y11399500D01*
X34874039Y11399500D01*
X35125961Y11399500D01*
X35125962Y11399500D01*
X35374785Y11438910D01*
X35614379Y11516759D01*
X35803821Y11613286D01*
X35837220Y11624669D01*
X35850866Y11627231D01*
X35920384Y11620260D01*
X35975100Y11576811D01*
X35977040Y11574059D01*
X35998002Y11522947D01*
X35998325Y11521002D01*
X36000000Y11500688D01*
X36000000Y11006938D01*
X35999999Y11006934D01*
X36000000Y11006931D01*
X35994975Y10971997D01*
X35991064Y10958680D01*
X35953287Y10899904D01*
X35889734Y10870883D01*
X35889729Y10870883D01*
X35889729Y10870882D01*
X35889728Y10870883D01*
X35886430Y10870408D01*
X35831273Y10874956D01*
X35829392Y10875553D01*
X35810610Y10883258D01*
X35618937Y10980919D01*
X35615431Y10982891D01*
X35614388Y10983239D01*
X35374787Y11061090D01*
X35200457Y11088701D01*
X35125962Y11100500D01*
X35125961Y11100500D01*
X34874039Y11100500D01*
X34874038Y11100500D01*
X34799542Y11088701D01*
X34625212Y11061090D01*
X34625209Y11061090D01*
X34385619Y10983241D01*
X34385616Y10983240D01*
X34231253Y10904587D01*
X34161147Y10868866D01*
X33957367Y10720812D01*
X33957338Y10720790D01*
X33779210Y10542662D01*
X33779188Y10542633D01*
X33631134Y10338853D01*
X33631132Y10338849D01*
X33526810Y10134107D01*
X33516759Y10114382D01*
X33447777Y9902075D01*
X33447777Y9902074D01*
X33438909Y9874784D01*
X33399500Y9625962D01*
X33399500Y9374039D01*
X33417140Y9262666D01*
X33438910Y9125214D01*
X33438910Y9125211D01*
X33460917Y9057483D01*
X33516760Y8885617D01*
X33592310Y8737343D01*
X33592311Y8737341D01*
X33592312Y8737341D01*
X33606222Y8710040D01*
X33625098Y8672992D01*
X33631131Y8661153D01*
X33674784Y8601070D01*
X33779201Y8457351D01*
X33779205Y8457346D01*
X33779210Y8457340D01*
X33957336Y8279214D01*
X33957346Y8279205D01*
X33957348Y8279203D01*
X33957355Y8279198D01*
X34131712Y8152520D01*
X34131713Y8152520D01*
X34143021Y8144305D01*
X34161155Y8131130D01*
X34304184Y8058253D01*
X34304183Y8058253D01*
X34340752Y8039621D01*
X34382775Y8018209D01*
X34386488Y8016316D01*
X34390243Y8015257D01*
X34458248Y7993161D01*
X34625215Y7938910D01*
X34874038Y7899500D01*
X34874039Y7899500D01*
X35125961Y7899500D01*
X35125962Y7899500D01*
X35374785Y7938910D01*
X35614379Y8016759D01*
X35803821Y8113286D01*
X35837220Y8124669D01*
X35850866Y8127231D01*
X35920384Y8120260D01*
X35975100Y8076811D01*
X35977040Y8074059D01*
X35998002Y8022947D01*
X35998325Y8021002D01*
X36000000Y8000688D01*
X36000000Y7506938D01*
X35999999Y7506934D01*
X36000000Y7506931D01*
X35994975Y7471997D01*
X35991064Y7458680D01*
X35953287Y7399904D01*
X35889734Y7370883D01*
X35889729Y7370883D01*
X35889729Y7370882D01*
X35889728Y7370883D01*
X35886430Y7370408D01*
X35831273Y7374956D01*
X35829392Y7375553D01*
X35810610Y7383258D01*
X35618937Y7480919D01*
X35615431Y7482891D01*
X35614388Y7483239D01*
X35374787Y7561090D01*
X35162537Y7594707D01*
X35125962Y7600500D01*
X35125961Y7600500D01*
X34874039Y7600500D01*
X34874038Y7600500D01*
X34845033Y7595906D01*
X34823636Y7592517D01*
X34625212Y7561090D01*
X34625209Y7561090D01*
X34385619Y7483241D01*
X34385616Y7483240D01*
X34274314Y7426528D01*
X34161147Y7368866D01*
X33957367Y7220812D01*
X33957338Y7220790D01*
X33779210Y7042662D01*
X33779188Y7042633D01*
X33631134Y6838853D01*
X33516759Y6614382D01*
X33443905Y6390158D01*
X33443904Y6390154D01*
X33438909Y6374786D01*
X33413347Y6213389D01*
X33399500Y6125962D01*
X33399500Y5874038D01*
X33408917Y5814582D01*
X33438910Y5625214D01*
X33438910Y5625211D01*
X33493928Y5455886D01*
X33516760Y5385617D01*
X33631132Y5161152D01*
X33631134Y5161149D01*
X33650095Y5135051D01*
X33779201Y4957351D01*
X33779205Y4957346D01*
X33779210Y4957340D01*
X33957338Y4779212D01*
X33957342Y4779209D01*
X33957345Y4779206D01*
X33957350Y4779202D01*
X34135117Y4650048D01*
X34161155Y4631130D01*
X34304184Y4558253D01*
X34304183Y4558253D01*
X34340752Y4539621D01*
X34382775Y4518209D01*
X34386488Y4516316D01*
X34390243Y4515257D01*
X34435082Y4500688D01*
X34625215Y4438910D01*
X34874038Y4399500D01*
X34874039Y4399500D01*
X35125961Y4399500D01*
X35125962Y4399500D01*
X35374785Y4438910D01*
X35614379Y4516759D01*
X35803821Y4613286D01*
X35837220Y4624669D01*
X35850866Y4627231D01*
X35920384Y4620260D01*
X35975100Y4576811D01*
X35977040Y4574059D01*
X35998002Y4522947D01*
X35998325Y4521002D01*
X36000000Y4500688D01*
X36000000Y4006938D01*
X35999999Y4006934D01*
X36000000Y4006931D01*
X35994975Y3971997D01*
X35991064Y3958680D01*
X35953287Y3899904D01*
X35889734Y3870883D01*
X35889729Y3870883D01*
X35889729Y3870882D01*
X35889728Y3870883D01*
X35886430Y3870408D01*
X35831273Y3874956D01*
X35829392Y3875553D01*
X35810610Y3883258D01*
X35618937Y3980919D01*
X35615431Y3982891D01*
X35614388Y3983239D01*
X35374787Y4061090D01*
X35208903Y4087364D01*
X35125962Y4100500D01*
X35125961Y4100500D01*
X34874039Y4100500D01*
X34874038Y4100500D01*
X34791096Y4087364D01*
X34625212Y4061090D01*
X34625209Y4061090D01*
X34385619Y3983241D01*
X34385616Y3983240D01*
X34265563Y3922069D01*
X34161147Y3868866D01*
X33957367Y3720812D01*
X33957338Y3720790D01*
X33779210Y3542662D01*
X33779188Y3542633D01*
X33631134Y3338853D01*
X33631132Y3338849D01*
X33516760Y3114384D01*
X33516759Y3114382D01*
X33516759Y3114381D01*
X33438910Y2874791D01*
X33438910Y2874788D01*
X33438910Y2874787D01*
X33438910Y2874786D01*
X33399500Y2625962D01*
X33399500Y2374039D01*
X33404255Y2344019D01*
X33438910Y2125214D01*
X33438910Y2125211D01*
X33501045Y1933984D01*
X33516760Y1885617D01*
X33631132Y1661152D01*
X33779201Y1457351D01*
X33779205Y1457346D01*
X33779210Y1457340D01*
X33957338Y1279212D01*
X33957342Y1279209D01*
X33957345Y1279206D01*
X33957350Y1279202D01*
X34135117Y1150048D01*
X34161155Y1131130D01*
X34304184Y1058253D01*
X34304183Y1058253D01*
X34340752Y1039621D01*
X34382775Y1018209D01*
X34386488Y1016316D01*
X34390243Y1015257D01*
X34435082Y1000688D01*
X34625215Y938910D01*
X34874038Y899500D01*
X34874039Y899500D01*
X35125961Y899500D01*
X35125962Y899500D01*
X35374785Y938910D01*
X35614379Y1016759D01*
X35803821Y1113286D01*
X35837220Y1124669D01*
X35850866Y1127231D01*
X35920384Y1120260D01*
X35975100Y1076811D01*
X35977040Y1074059D01*
X35998002Y1022947D01*
X35998325Y1021002D01*
X36000000Y1000688D01*
X36000000Y-993062D01*
X35999999Y-993066D01*
X36000000Y-993069D01*
X35994975Y-1028003D01*
X35991064Y-1041320D01*
X35953287Y-1100096D01*
X35889734Y-1129117D01*
X35889729Y-1129117D01*
X35889729Y-1129118D01*
X35889728Y-1129117D01*
X35886430Y-1129592D01*
X35831273Y-1125044D01*
X35829392Y-1124447D01*
X35810610Y-1116742D01*
X35618937Y-1019081D01*
X35615431Y-1017109D01*
X35614388Y-1016761D01*
X35374787Y-938910D01*
X35208903Y-912636D01*
X35125962Y-899500D01*
X35125961Y-899500D01*
X34874039Y-899500D01*
X34874038Y-899500D01*
X34791096Y-912636D01*
X34625212Y-938910D01*
X34625209Y-938910D01*
X34385619Y-1016759D01*
X34385616Y-1016760D01*
X34265563Y-1077931D01*
X34161147Y-1131134D01*
X33957367Y-1279188D01*
X33957338Y-1279210D01*
X33779210Y-1457338D01*
X33779188Y-1457367D01*
X33631134Y-1661147D01*
X33631132Y-1661151D01*
X33516760Y-1885616D01*
X33516759Y-1885618D01*
X33516759Y-1885619D01*
X33438910Y-2125209D01*
X33438910Y-2125212D01*
X33399500Y-2374038D01*
X33399500Y-2625960D01*
X33438910Y-2874786D01*
X33438910Y-2874789D01*
X33502172Y-3069486D01*
X33516760Y-3114383D01*
X33631132Y-3338848D01*
X33779201Y-3542649D01*
X33779205Y-3542654D01*
X33779210Y-3542660D01*
X33957338Y-3720788D01*
X33957342Y-3720791D01*
X33957345Y-3720794D01*
X33957350Y-3720798D01*
X34135117Y-3849952D01*
X34161155Y-3868870D01*
X34304184Y-3941747D01*
X34304183Y-3941747D01*
X34340752Y-3960379D01*
X34382775Y-3981791D01*
X34386488Y-3983684D01*
X34390243Y-3984743D01*
X34459042Y-4007097D01*
X34625215Y-4061090D01*
X34874038Y-4100500D01*
X34874039Y-4100500D01*
X35125961Y-4100500D01*
X35125962Y-4100500D01*
X35374785Y-4061090D01*
X35614379Y-3983241D01*
X35803821Y-3886714D01*
X35837220Y-3875331D01*
X35850866Y-3872769D01*
X35920384Y-3879740D01*
X35975100Y-3923189D01*
X35977040Y-3925941D01*
X35998002Y-3977053D01*
X35998325Y-3978998D01*
X36000000Y-3999312D01*
X36000000Y-4493062D01*
X35999999Y-4493066D01*
X36000000Y-4493069D01*
X35994975Y-4528003D01*
X35991064Y-4541320D01*
X35953287Y-4600096D01*
X35889734Y-4629117D01*
X35889729Y-4629117D01*
X35889729Y-4629118D01*
X35889728Y-4629117D01*
X35886430Y-4629592D01*
X35831273Y-4625044D01*
X35829392Y-4624447D01*
X35810610Y-4616742D01*
X35618937Y-4519081D01*
X35615431Y-4517109D01*
X35614388Y-4516761D01*
X35374787Y-4438910D01*
X35208903Y-4412636D01*
X35125962Y-4399500D01*
X35125961Y-4399500D01*
X34874039Y-4399500D01*
X34874038Y-4399500D01*
X34791096Y-4412636D01*
X34625212Y-4438910D01*
X34625209Y-4438910D01*
X34385619Y-4516759D01*
X34385616Y-4516760D01*
X34222062Y-4600096D01*
X34161147Y-4631134D01*
X33957367Y-4779188D01*
X33957338Y-4779210D01*
X33779210Y-4957338D01*
X33779188Y-4957367D01*
X33631134Y-5161147D01*
X33631132Y-5161151D01*
X33516760Y-5385616D01*
X33516759Y-5385618D01*
X33516759Y-5385619D01*
X33438910Y-5625209D01*
X33438910Y-5625212D01*
X33399500Y-5874038D01*
X33399500Y-6125960D01*
X33438910Y-6374786D01*
X33438910Y-6374789D01*
X33495151Y-6547877D01*
X33516760Y-6614383D01*
X33631132Y-6838848D01*
X33779201Y-7042649D01*
X33779205Y-7042654D01*
X33779210Y-7042660D01*
X33957338Y-7220788D01*
X33957342Y-7220791D01*
X33957345Y-7220794D01*
X33957350Y-7220798D01*
X34132243Y-7347864D01*
X34161155Y-7368870D01*
X34283314Y-7431113D01*
X34385616Y-7483239D01*
X34385617Y-7483239D01*
X34386490Y-7483684D01*
X34390243Y-7484743D01*
X34538437Y-7532894D01*
X34625215Y-7561090D01*
X34874038Y-7600500D01*
X34874039Y-7600500D01*
X35125961Y-7600500D01*
X35125962Y-7600500D01*
X35374785Y-7561090D01*
X35614379Y-7483241D01*
X35803821Y-7386714D01*
X35837220Y-7375331D01*
X35850866Y-7372769D01*
X35920384Y-7379740D01*
X35975100Y-7423189D01*
X35977040Y-7425941D01*
X35998002Y-7477053D01*
X35998325Y-7478998D01*
X36000000Y-7499312D01*
X36000000Y-7993062D01*
X35999999Y-7993066D01*
X36000000Y-7993069D01*
X35994975Y-8028003D01*
X35991064Y-8041320D01*
X35953287Y-8100096D01*
X35889734Y-8129117D01*
X35889729Y-8129117D01*
X35889729Y-8129118D01*
X35889728Y-8129117D01*
X35886430Y-8129592D01*
X35831273Y-8125044D01*
X35829392Y-8124447D01*
X35810610Y-8116742D01*
X35618937Y-8019081D01*
X35615431Y-8017109D01*
X35614388Y-8016761D01*
X35374787Y-7938910D01*
X35200457Y-7911299D01*
X35125962Y-7899500D01*
X35125961Y-7899500D01*
X34874039Y-7899500D01*
X34874038Y-7899500D01*
X34799542Y-7911299D01*
X34625212Y-7938910D01*
X34625209Y-7938910D01*
X34385619Y-8016759D01*
X34385616Y-8016760D01*
X34189393Y-8116742D01*
X34161147Y-8131134D01*
X33957367Y-8279188D01*
X33957338Y-8279210D01*
X33779210Y-8457338D01*
X33779188Y-8457367D01*
X33631134Y-8661147D01*
X33516759Y-8885618D01*
X33450777Y-9088691D01*
X33438910Y-9125213D01*
X33417138Y-9262676D01*
X33399500Y-9374038D01*
X33399500Y-9625962D01*
X33414616Y-9721397D01*
X33426750Y-9798009D01*
X33426750Y-9798010D01*
X33438909Y-9874784D01*
X33438910Y-9874789D01*
X33506634Y-10083219D01*
X33516760Y-10114383D01*
X33526810Y-10134107D01*
X33561395Y-10201983D01*
X33624799Y-10326421D01*
X33624800Y-10326422D01*
X33624799Y-10326422D01*
X33631126Y-10338837D01*
X33631136Y-10338855D01*
X33757794Y-10513185D01*
X33779201Y-10542649D01*
X33779205Y-10542654D01*
X33779210Y-10542660D01*
X33957338Y-10720788D01*
X33957342Y-10720791D01*
X33957345Y-10720794D01*
X33957350Y-10720798D01*
X34135117Y-10849952D01*
X34161155Y-10868870D01*
X34304184Y-10941747D01*
X34304183Y-10941747D01*
X34340752Y-10960379D01*
X34382775Y-10981791D01*
X34386488Y-10983684D01*
X34390243Y-10984743D01*
X34531518Y-11030646D01*
X34625215Y-11061090D01*
X34874038Y-11100500D01*
X34874039Y-11100500D01*
X35125961Y-11100500D01*
X35125962Y-11100500D01*
X35374785Y-11061090D01*
X35614379Y-10983241D01*
X35803821Y-10886714D01*
X35837220Y-10875331D01*
X35850866Y-10872769D01*
X35920384Y-10879740D01*
X35975100Y-10923189D01*
X35977040Y-10925941D01*
X35998002Y-10977053D01*
X35998325Y-10978998D01*
X36000000Y-10999312D01*
X36000000Y-11493062D01*
X35999999Y-11493066D01*
X36000000Y-11493069D01*
X35994975Y-11528003D01*
X35991064Y-11541320D01*
X35953287Y-11600096D01*
X35889734Y-11629117D01*
X35889729Y-11629117D01*
X35889729Y-11629118D01*
X35889728Y-11629117D01*
X35886430Y-11629592D01*
X35831273Y-11625044D01*
X35829392Y-11624447D01*
X35810610Y-11616742D01*
X35618937Y-11519081D01*
X35615431Y-11517109D01*
X35614388Y-11516761D01*
X35374787Y-11438910D01*
X35208903Y-11412636D01*
X35125962Y-11399500D01*
X35125961Y-11399500D01*
X34874039Y-11399500D01*
X34874038Y-11399500D01*
X34791096Y-11412636D01*
X34625212Y-11438910D01*
X34625209Y-11438910D01*
X34385619Y-11516759D01*
X34385616Y-11516760D01*
X34226425Y-11597873D01*
X34161147Y-11631134D01*
X33957367Y-11779188D01*
X33957338Y-11779210D01*
X33779210Y-11957338D01*
X33779188Y-11957367D01*
X33631134Y-12161147D01*
X33516759Y-12385618D01*
X33455395Y-12574479D01*
X33438910Y-12625214D01*
X33399500Y-12874038D01*
X33399500Y-13125967D01*
X33429969Y-13318336D01*
X33438909Y-13374781D01*
X33438909Y-13374782D01*
X33438910Y-13374785D01*
X33516760Y-13614383D01*
X33631132Y-13838848D01*
X33779201Y-14042649D01*
X33779205Y-14042654D01*
X33779210Y-14042660D01*
X33957338Y-14220788D01*
X33957342Y-14220791D01*
X33957345Y-14220794D01*
X33957350Y-14220798D01*
X34076751Y-14307547D01*
X34161155Y-14368870D01*
X34304184Y-14441747D01*
X34304183Y-14441747D01*
X34340752Y-14460379D01*
X34382775Y-14481791D01*
X34386488Y-14483684D01*
X34390243Y-14484743D01*
X34465062Y-14509053D01*
X34625215Y-14561090D01*
X34874038Y-14600500D01*
X34874039Y-14600500D01*
X35125961Y-14600500D01*
X35125962Y-14600500D01*
X35374785Y-14561090D01*
X35614379Y-14483241D01*
X35803821Y-14386714D01*
X35837220Y-14375331D01*
X35850866Y-14372769D01*
X35920384Y-14379740D01*
X35975100Y-14423189D01*
X35977040Y-14425941D01*
X35998002Y-14477053D01*
X35998325Y-14478998D01*
X36000000Y-14499312D01*
X36000000Y-14993062D01*
X35999999Y-14993066D01*
X36000000Y-14993069D01*
X35994975Y-15028003D01*
X35991064Y-15041320D01*
X35953287Y-15100096D01*
X35889734Y-15129117D01*
X35889729Y-15129117D01*
X35889729Y-15129118D01*
X35889728Y-15129117D01*
X35886430Y-15129592D01*
X35831273Y-15125044D01*
X35829392Y-15124447D01*
X35810610Y-15116742D01*
X35618937Y-15019081D01*
X35615431Y-15017109D01*
X35614388Y-15016761D01*
X35374787Y-14938910D01*
X35208903Y-14912636D01*
X35125962Y-14899500D01*
X35125961Y-14899500D01*
X34874039Y-14899500D01*
X34874038Y-14899500D01*
X34791096Y-14912636D01*
X34625212Y-14938910D01*
X34625209Y-14938910D01*
X34385619Y-15016759D01*
X34385616Y-15016760D01*
X34222062Y-15100096D01*
X34161147Y-15131134D01*
X33957367Y-15279188D01*
X33957338Y-15279210D01*
X33779210Y-15457338D01*
X33779188Y-15457367D01*
X33631134Y-15661147D01*
X33631132Y-15661151D01*
X33516760Y-15885616D01*
X33516759Y-15885618D01*
X33516759Y-15885619D01*
X33438910Y-16125209D01*
X33438910Y-16125212D01*
X33399500Y-16374038D01*
X33399500Y-16625960D01*
X33438910Y-16874786D01*
X33438910Y-16874789D01*
X33502172Y-17069486D01*
X33516760Y-17114383D01*
X33631132Y-17338848D01*
X33779201Y-17542649D01*
X33779205Y-17542654D01*
X33779210Y-17542660D01*
X33957338Y-17720788D01*
X33957342Y-17720791D01*
X33957345Y-17720794D01*
X33957350Y-17720798D01*
X34079411Y-17809480D01*
X34161155Y-17868870D01*
X34304184Y-17941747D01*
X34304183Y-17941747D01*
X34340752Y-17960379D01*
X34382775Y-17981791D01*
X34386488Y-17983684D01*
X34390243Y-17984743D01*
X34459042Y-18007097D01*
X34625215Y-18061090D01*
X34874038Y-18100500D01*
X34874039Y-18100500D01*
X35125961Y-18100500D01*
X35125962Y-18100500D01*
X35374785Y-18061090D01*
X35614379Y-17983241D01*
X35803821Y-17886714D01*
X35837220Y-17875331D01*
X35850866Y-17872769D01*
X35920384Y-17879740D01*
X35975100Y-17923189D01*
X35976843Y-17925662D01*
X35977040Y-17925941D01*
X35998002Y-17977053D01*
X35998325Y-17978998D01*
X36000000Y-17999312D01*
X36000000Y-18493062D01*
X35999999Y-18493066D01*
X36000000Y-18493069D01*
X35994975Y-18528003D01*
X35991064Y-18541320D01*
X35953287Y-18600096D01*
X35889734Y-18629117D01*
X35889729Y-18629117D01*
X35889729Y-18629118D01*
X35889728Y-18629117D01*
X35886430Y-18629592D01*
X35831273Y-18625044D01*
X35829392Y-18624447D01*
X35810610Y-18616742D01*
X35618937Y-18519081D01*
X35615431Y-18517109D01*
X35614388Y-18516761D01*
X35374787Y-18438910D01*
X35208903Y-18412636D01*
X35125962Y-18399500D01*
X35125961Y-18399500D01*
X34874039Y-18399500D01*
X34874038Y-18399500D01*
X34791096Y-18412636D01*
X34625212Y-18438910D01*
X34625209Y-18438910D01*
X34385619Y-18516759D01*
X34385616Y-18516760D01*
X34222062Y-18600096D01*
X34161147Y-18631134D01*
X33957367Y-18779188D01*
X33957338Y-18779210D01*
X33779210Y-18957338D01*
X33779188Y-18957367D01*
X33631134Y-19161147D01*
X33631132Y-19161151D01*
X33516760Y-19385616D01*
X33516759Y-19385618D01*
X33516759Y-19385619D01*
X33438910Y-19625209D01*
X33438910Y-19625212D01*
X33438910Y-19625213D01*
X33438910Y-19625214D01*
X33399500Y-19874038D01*
X33399500Y-20125961D01*
X33411687Y-20202904D01*
X33438910Y-20374786D01*
X33438910Y-20374789D01*
X33502172Y-20569486D01*
X33516760Y-20614383D01*
X33565216Y-20709481D01*
X33569724Y-20718328D01*
X33569724Y-20718329D01*
X33605641Y-20788822D01*
X33624413Y-20825663D01*
X33631132Y-20838848D01*
X33631135Y-20838853D01*
X33763000Y-21020350D01*
X33779201Y-21042649D01*
X33779205Y-21042654D01*
X33779210Y-21042660D01*
X33957338Y-21220788D01*
X33957342Y-21220791D01*
X33957345Y-21220794D01*
X33957350Y-21220798D01*
X34135117Y-21349952D01*
X34161155Y-21368870D01*
X34304184Y-21441747D01*
X34304183Y-21441747D01*
X34340752Y-21460379D01*
X34382775Y-21481791D01*
X34386488Y-21483684D01*
X34390243Y-21484743D01*
X34459042Y-21507097D01*
X34625215Y-21561090D01*
X34874038Y-21600500D01*
X34874039Y-21600500D01*
X35125961Y-21600500D01*
X35125962Y-21600500D01*
X35374785Y-21561090D01*
X35614379Y-21483241D01*
X35803821Y-21386714D01*
X35837220Y-21375331D01*
X35850866Y-21372769D01*
X35920384Y-21379740D01*
X35975100Y-21423189D01*
X35977040Y-21425941D01*
X35998002Y-21477053D01*
X35998325Y-21478998D01*
X36000000Y-21499312D01*
X36000000Y-21993062D01*
X35999999Y-21993066D01*
X36000000Y-21993069D01*
X35994975Y-22028003D01*
X35991064Y-22041320D01*
X35953287Y-22100096D01*
X35889734Y-22129117D01*
X35889729Y-22129117D01*
X35889729Y-22129118D01*
X35889728Y-22129117D01*
X35886430Y-22129592D01*
X35831273Y-22125044D01*
X35829392Y-22124447D01*
X35810610Y-22116742D01*
X35618937Y-22019081D01*
X35615431Y-22017109D01*
X35614388Y-22016761D01*
X35374787Y-21938910D01*
X35208903Y-21912636D01*
X35125962Y-21899500D01*
X35125961Y-21899500D01*
X34874039Y-21899500D01*
X34874038Y-21899500D01*
X34791096Y-21912636D01*
X34625212Y-21938910D01*
X34625209Y-21938910D01*
X34385619Y-22016759D01*
X34385616Y-22016760D01*
X34231253Y-22095413D01*
X34161147Y-22131134D01*
X33957367Y-22279188D01*
X33957338Y-22279210D01*
X33779210Y-22457338D01*
X33779188Y-22457367D01*
X33631134Y-22661147D01*
X33631132Y-22661151D01*
X33516760Y-22885616D01*
X33516759Y-22885618D01*
X33516759Y-22885619D01*
X33438910Y-23125209D01*
X33438910Y-23125212D01*
X33399500Y-23374038D01*
X33399500Y-23625960D01*
X33438910Y-23874786D01*
X33438910Y-23874789D01*
X33502172Y-24069486D01*
X33516760Y-24114383D01*
X33631132Y-24338848D01*
X33779201Y-24542649D01*
X33779205Y-24542654D01*
X33779210Y-24542660D01*
X33957338Y-24720788D01*
X33957342Y-24720791D01*
X33957345Y-24720794D01*
X33957350Y-24720798D01*
X34135117Y-24849952D01*
X34161155Y-24868870D01*
X34304184Y-24941747D01*
X34304183Y-24941747D01*
X34340752Y-24960379D01*
X34382775Y-24981791D01*
X34386488Y-24983684D01*
X34390243Y-24984743D01*
X34459042Y-25007097D01*
X34625215Y-25061090D01*
X34874038Y-25100500D01*
X34874039Y-25100500D01*
X35125961Y-25100500D01*
X35125962Y-25100500D01*
X35374785Y-25061090D01*
X35614379Y-24983241D01*
X35803821Y-24886714D01*
X35837220Y-24875331D01*
X35850866Y-24872769D01*
X35920384Y-24879740D01*
X35975100Y-24923189D01*
X35977040Y-24925941D01*
X35998002Y-24977053D01*
X35998325Y-24978998D01*
X36000000Y-24999312D01*
X36000000Y-25493062D01*
X35999999Y-25493066D01*
X36000000Y-25493069D01*
X35994975Y-25528003D01*
X35991064Y-25541320D01*
X35953287Y-25600096D01*
X35889734Y-25629117D01*
X35889729Y-25629117D01*
X35889729Y-25629118D01*
X35889728Y-25629117D01*
X35886430Y-25629592D01*
X35831273Y-25625044D01*
X35829392Y-25624447D01*
X35810610Y-25616742D01*
X35618937Y-25519081D01*
X35615431Y-25517109D01*
X35614388Y-25516761D01*
X35374787Y-25438910D01*
X35184250Y-25408732D01*
X35125962Y-25399500D01*
X35125961Y-25399500D01*
X34874039Y-25399500D01*
X34874038Y-25399500D01*
X34815750Y-25408732D01*
X34625212Y-25438910D01*
X34625209Y-25438910D01*
X34385619Y-25516759D01*
X34385616Y-25516760D01*
X34189393Y-25616742D01*
X34161147Y-25631134D01*
X33957367Y-25779188D01*
X33957338Y-25779210D01*
X33779210Y-25957338D01*
X33779188Y-25957367D01*
X33631134Y-26161147D01*
X33631132Y-26161151D01*
X33516760Y-26385616D01*
X33516759Y-26385618D01*
X33516759Y-26385619D01*
X33438910Y-26625209D01*
X33438910Y-26625212D01*
X33399500Y-26874038D01*
X33399500Y-27125960D01*
X33438910Y-27374786D01*
X33438910Y-27374789D01*
X33495151Y-27547877D01*
X33516760Y-27614383D01*
X33631132Y-27838848D01*
X33779201Y-28042649D01*
X33779205Y-28042654D01*
X33779210Y-28042660D01*
X33957338Y-28220788D01*
X33957342Y-28220791D01*
X33957345Y-28220794D01*
X33957350Y-28220798D01*
X34014959Y-28262653D01*
X34124883Y-28342517D01*
X34124884Y-28342518D01*
X34161150Y-28368867D01*
X34161152Y-28368868D01*
X34161155Y-28368870D01*
X34283314Y-28431113D01*
X34385616Y-28483239D01*
X34385617Y-28483239D01*
X34386490Y-28483684D01*
X34390243Y-28484743D01*
X34430404Y-28497792D01*
X34625215Y-28561090D01*
X34874038Y-28600500D01*
X34874039Y-28600500D01*
X35125961Y-28600500D01*
X35125962Y-28600500D01*
X35374785Y-28561090D01*
X35614379Y-28483241D01*
X35803821Y-28386714D01*
X35837220Y-28375331D01*
X35850866Y-28372769D01*
X35920384Y-28379740D01*
X35975100Y-28423189D01*
X35977040Y-28425941D01*
X35998002Y-28477053D01*
X35998325Y-28478998D01*
X36000000Y-28499312D01*
X36000000Y-30493062D01*
X35999999Y-30493066D01*
X36000000Y-30493069D01*
X35994975Y-30528003D01*
X35991064Y-30541320D01*
X35953287Y-30600096D01*
X35889734Y-30629117D01*
X35889729Y-30629117D01*
X35889729Y-30629118D01*
X35889728Y-30629117D01*
X35886430Y-30629592D01*
X35831273Y-30625044D01*
X35829392Y-30624447D01*
X35810610Y-30616742D01*
X35618937Y-30519081D01*
X35615431Y-30517109D01*
X35614388Y-30516761D01*
X35374787Y-30438910D01*
X35208903Y-30412636D01*
X35125962Y-30399500D01*
X35125961Y-30399500D01*
X34874039Y-30399500D01*
X34874038Y-30399500D01*
X34791096Y-30412636D01*
X34625212Y-30438910D01*
X34625209Y-30438910D01*
X34395009Y-30513708D01*
X34385616Y-30516760D01*
X34189393Y-30616742D01*
X34161147Y-30631134D01*
X33957367Y-30779188D01*
X33957338Y-30779210D01*
X33779210Y-30957338D01*
X33779188Y-30957367D01*
X33631134Y-31161147D01*
X33516761Y-31385613D01*
X33464368Y-31546863D01*
X33448795Y-31578536D01*
X33439972Y-31591439D01*
X33385894Y-31635662D01*
X33385883Y-31635666D01*
X33385883Y-31635667D01*
X33385881Y-31635667D01*
X33380202Y-31638068D01*
X33376304Y-31639715D01*
X33328026Y-31649500D01*
X28230150Y-31649500D01*
X28195211Y-31644476D01*
X28173390Y-31638068D01*
X28162122Y-31631651D01*
X28152815Y-31629971D01*
X28123829Y-31609843D01*
X28122077Y-31608212D01*
X28115032Y-31599924D01*
X28114814Y-31600131D01*
X28107547Y-31592456D01*
X28107546Y-31592454D01*
X28071101Y-31565171D01*
X28027985Y-31532894D01*
X27992337Y-31506207D01*
X27992335Y-31506206D01*
X27992333Y-31506204D01*
X27948483Y-31489849D01*
X27857482Y-31455908D01*
X27857483Y-31455908D01*
X27797883Y-31449501D01*
X27797881Y-31449500D01*
X27797873Y-31449500D01*
X27797864Y-31449500D01*
X27796841Y-31449500D01*
X26202123Y-31449500D01*
X26200192Y-31449659D01*
X26198545Y-31449885D01*
X26142516Y-31455908D01*
X26030220Y-31497792D01*
X26007666Y-31506204D01*
X26007665Y-31506205D01*
X25892456Y-31592450D01*
X25892450Y-31592456D01*
X25806205Y-31707665D01*
X25806203Y-31707668D01*
X25755907Y-31842516D01*
X25749501Y-31902116D01*
X25749500Y-31902139D01*
X25749500Y-32997876D01*
X25749659Y-32999805D01*
X25749885Y-33001451D01*
X25755575Y-33054377D01*
X25755969Y-33058781D01*
X25759321Y-33105624D01*
X25756660Y-33138729D01*
X25757056Y-33138797D01*
X25756401Y-33142624D01*
X25750000Y-33202149D01*
X25750000Y-33202155D01*
X25750000Y-33500000D01*
X28250000Y-33500000D01*
X28250000Y-33392329D01*
X28255023Y-33357393D01*
X28259427Y-33342395D01*
X28297172Y-33283644D01*
X28297200Y-33283619D01*
X28297199Y-33283619D01*
X28298541Y-33282456D01*
X28353420Y-33254977D01*
X28360979Y-33253333D01*
X28387332Y-33250500D01*
X33940112Y-33250500D01*
X33959815Y-33253333D01*
X33975046Y-33255523D01*
X34004969Y-33264309D01*
X34042920Y-33282968D01*
X34076632Y-33307461D01*
X34161155Y-33368870D01*
X34283314Y-33431113D01*
X34385616Y-33483239D01*
X34385617Y-33483239D01*
X34386490Y-33483684D01*
X34390243Y-33484743D01*
X34538437Y-33532894D01*
X34625215Y-33561090D01*
X34874038Y-33600500D01*
X34874039Y-33600500D01*
X35125961Y-33600500D01*
X35125962Y-33600500D01*
X35374785Y-33561090D01*
X35614379Y-33483241D01*
X35803821Y-33386714D01*
X35837220Y-33375331D01*
X35850866Y-33372769D01*
X35920384Y-33379740D01*
X35975100Y-33423189D01*
X35977040Y-33425941D01*
X35998002Y-33477053D01*
X35998325Y-33478998D01*
X36000000Y-33499312D01*
X36000000Y-33993062D01*
X35999999Y-33993066D01*
X36000000Y-33993069D01*
X35994975Y-34028003D01*
X35991064Y-34041320D01*
X35953287Y-34100096D01*
X35889734Y-34129117D01*
X35889729Y-34129117D01*
X35889729Y-34129118D01*
X35889728Y-34129117D01*
X35886430Y-34129592D01*
X35831273Y-34125044D01*
X35829392Y-34124447D01*
X35810610Y-34116742D01*
X35618937Y-34019081D01*
X35615431Y-34017109D01*
X35614388Y-34016761D01*
X35374787Y-33938910D01*
X35200457Y-33911299D01*
X35125962Y-33899500D01*
X35125961Y-33899500D01*
X34874039Y-33899500D01*
X34874038Y-33899500D01*
X34799542Y-33911299D01*
X34625212Y-33938910D01*
X34625209Y-33938910D01*
X34385619Y-34016759D01*
X34385616Y-34016760D01*
X34189393Y-34116742D01*
X34161147Y-34131134D01*
X34045249Y-34215339D01*
X34026931Y-34225005D01*
X34014038Y-34231808D01*
X33984665Y-34242288D01*
X33942997Y-34249500D01*
X28391830Y-34249500D01*
X28356889Y-34244475D01*
X28341890Y-34240070D01*
X28283144Y-34202327D01*
X28281957Y-34200958D01*
X28254477Y-34146083D01*
X28252832Y-34138521D01*
X28250000Y-34112168D01*
X28250000Y-34000000D01*
X25750000Y-34000000D01*
X25750000Y-34297850D01*
X25754894Y-34343359D01*
X25755290Y-34347784D01*
X25759278Y-34403632D01*
X25756473Y-34438729D01*
X25756552Y-34438743D01*
X25756403Y-34439615D01*
X25756307Y-34440820D01*
X25755908Y-34442515D01*
X25749501Y-34502117D01*
X25749500Y-34502143D01*
X25749500Y-35597876D01*
X25749659Y-35599806D01*
X25749885Y-35601454D01*
X25755907Y-35657482D01*
X25783690Y-35731971D01*
X25806202Y-35792328D01*
X25806203Y-35792330D01*
X25806204Y-35792332D01*
X25806205Y-35792333D01*
X25892450Y-35907542D01*
X25892452Y-35907544D01*
X25892455Y-35907547D01*
X26007664Y-35993793D01*
X26007671Y-35993797D01*
X26142517Y-36044091D01*
X26142516Y-36044091D01*
X26149444Y-36044835D01*
X26202127Y-36050500D01*
X27797872Y-36050499D01*
X27857483Y-36044091D01*
X27992331Y-35993796D01*
X28107546Y-35907546D01*
X28107551Y-35907538D01*
X28113820Y-35901272D01*
X28114689Y-35902141D01*
X28127320Y-35889509D01*
X28145528Y-35875879D01*
X28197830Y-35853115D01*
X28201412Y-35852469D01*
X28210460Y-35851659D01*
X28210990Y-35851462D01*
X28211478Y-35851568D01*
X28223420Y-35850500D01*
X33323098Y-35850500D01*
X33358034Y-35855523D01*
X33373032Y-35859927D01*
X33388029Y-35869564D01*
X33405132Y-35874586D01*
X33431806Y-35897698D01*
X33438625Y-35905567D01*
X33462846Y-35948455D01*
X33496003Y-36050501D01*
X33516757Y-36114374D01*
X33516759Y-36114377D01*
X33516760Y-36114381D01*
X33631132Y-36338848D01*
X33779201Y-36542649D01*
X33779205Y-36542654D01*
X33779210Y-36542660D01*
X33957336Y-36720786D01*
X33957344Y-36720793D01*
X33957345Y-36720794D01*
X33957350Y-36720798D01*
X34018467Y-36765202D01*
X34029217Y-36778989D01*
X34042954Y-36788745D01*
X34043782Y-36789806D01*
X34050688Y-36798763D01*
X34056721Y-36814262D01*
X34060640Y-36819288D01*
X34064851Y-36829768D01*
X34065543Y-36836926D01*
X34076033Y-36863873D01*
X34070698Y-36890191D01*
X34071581Y-36899313D01*
X34067070Y-36908089D01*
X34062153Y-36932350D01*
X34046123Y-36948847D01*
X34039644Y-36961456D01*
X34026451Y-36969094D01*
X34013494Y-36982431D01*
X34011585Y-36983509D01*
X34010797Y-36983954D01*
X33992458Y-36988777D01*
X33979179Y-36996467D01*
X33965615Y-36995838D01*
X33949792Y-37000000D01*
X32000000Y-37000000D01*
X32000000Y-41858170D01*
X31999999Y-41858176D01*
X32000000Y-41858179D01*
X31994975Y-41893114D01*
X31990570Y-41908112D01*
X31952827Y-41966855D01*
X31952792Y-41966885D01*
X31952791Y-41966887D01*
X31952789Y-41966887D01*
X31951458Y-41968042D01*
X31896597Y-41995518D01*
X31889039Y-41997163D01*
X31862668Y-42000000D01*
X26452473Y-42000000D01*
X26452472Y-41999999D01*
X26452472Y-42000000D01*
X26417538Y-41994977D01*
X26396716Y-41988863D01*
X26345711Y-41959274D01*
X26343221Y-41956881D01*
X26341765Y-41955481D01*
X26338086Y-41951183D01*
X26337938Y-41951088D01*
X26337861Y-41950921D01*
X26326132Y-41937218D01*
X26305752Y-41908112D01*
X26210205Y-41771655D01*
X26209343Y-41770385D01*
X26209175Y-41770185D01*
X26209175Y-41770184D01*
X25911659Y-41415619D01*
X25584380Y-41088340D01*
X25500265Y-41017759D01*
X25229821Y-40790828D01*
X24852230Y-40526436D01*
X24852226Y-40526433D01*
X24850687Y-40525356D01*
X24850676Y-40525349D01*
X24850670Y-40525345D01*
X24732275Y-40456989D01*
X24731880Y-40456761D01*
X24731581Y-40456589D01*
X24449836Y-40293923D01*
X24449820Y-40293915D01*
X24031892Y-40099030D01*
X24031110Y-40098666D01*
X24030363Y-40098318D01*
X24030357Y-40098316D01*
X24030347Y-40098311D01*
X23606476Y-39944034D01*
X23602435Y-39942113D01*
X23595406Y-39940004D01*
X23250016Y-39847459D01*
X23249743Y-39847386D01*
X23150607Y-39820581D01*
X23149084Y-39820334D01*
X23147428Y-39820053D01*
X23042428Y-39801539D01*
X22692519Y-39739840D01*
X22231431Y-39699500D01*
X22231428Y-39699500D01*
X22231425Y-39699500D01*
X21768575Y-39699500D01*
X21768571Y-39699500D01*
X21768567Y-39699500D01*
X21312879Y-39739368D01*
X21312873Y-39739368D01*
X21307477Y-39739840D01*
X20851693Y-39820207D01*
X20851641Y-39820220D01*
X20404606Y-39940000D01*
X20187121Y-40019159D01*
X19975720Y-40096102D01*
X19975155Y-40096275D01*
X19969414Y-40098398D01*
X19968116Y-40099026D01*
X19550180Y-40293914D01*
X19550166Y-40293921D01*
X19149328Y-40525345D01*
X19149310Y-40525356D01*
X18770182Y-40790824D01*
X18415616Y-41088342D01*
X18088342Y-41415616D01*
X17790830Y-41770176D01*
X17790827Y-41770179D01*
X17716731Y-41876001D01*
X17677158Y-41932518D01*
X17677156Y-41932519D01*
X17677156Y-41932521D01*
X17653003Y-41958256D01*
X17636053Y-41971804D01*
X17582598Y-41996605D01*
X17577232Y-41997662D01*
X17571564Y-41998214D01*
X17571396Y-41998284D01*
X17571209Y-41998249D01*
X17553267Y-42000000D01*
X9141830Y-42000000D01*
X9106889Y-41994975D01*
X9091890Y-41990570D01*
X9076902Y-41980940D01*
X9059824Y-41975932D01*
X9033144Y-41952827D01*
X9031957Y-41951458D01*
X9004477Y-41896583D01*
X9002832Y-41889021D01*
X9000000Y-41862668D01*
X9000000Y-25911299D01*
X12099500Y-25911299D01*
X12099500Y-26088699D01*
X12134099Y-26262646D01*
X12134101Y-26262653D01*
X12134103Y-26262658D01*
X12134109Y-26262676D01*
X12201984Y-26426542D01*
X12203021Y-26428727D01*
X12209343Y-26444867D01*
X12215034Y-26463047D01*
X12216280Y-26532894D01*
X12212170Y-26547877D01*
X12203107Y-26570512D01*
X12203332Y-26570619D01*
X12201977Y-26573472D01*
X12134109Y-26737322D01*
X12134101Y-26737345D01*
X12134099Y-26737352D01*
X12099500Y-26911299D01*
X12099500Y-27088699D01*
X12134099Y-27262646D01*
X12134101Y-27262653D01*
X12134109Y-27262676D01*
X12201984Y-27426542D01*
X12203021Y-27428727D01*
X12209343Y-27444867D01*
X12215034Y-27463047D01*
X12216280Y-27532894D01*
X12212170Y-27547877D01*
X12203107Y-27570512D01*
X12203332Y-27570619D01*
X12201977Y-27573472D01*
X12134109Y-27737322D01*
X12134101Y-27737345D01*
X12134099Y-27737352D01*
X12099500Y-27911299D01*
X12099500Y-28088699D01*
X12134099Y-28262646D01*
X12134101Y-28262653D01*
X12134109Y-28262676D01*
X12178096Y-28368870D01*
X12200595Y-28423190D01*
X12201984Y-28426542D01*
X12203021Y-28428727D01*
X12209343Y-28444867D01*
X12215034Y-28463047D01*
X12216280Y-28532894D01*
X12212170Y-28547877D01*
X12203107Y-28570512D01*
X12203332Y-28570619D01*
X12201977Y-28573472D01*
X12134109Y-28737322D01*
X12134101Y-28737345D01*
X12134099Y-28737352D01*
X12099500Y-28911299D01*
X12099500Y-29088699D01*
X12134099Y-29262646D01*
X12134101Y-29262653D01*
X12134109Y-29262676D01*
X12201977Y-29426526D01*
X12201985Y-29426544D01*
X12201994Y-29426559D01*
X12300535Y-29574034D01*
X12300536Y-29574036D01*
X12300542Y-29574043D01*
X12425955Y-29699456D01*
X12425961Y-29699461D01*
X12425965Y-29699464D01*
X12573446Y-29798009D01*
X12573459Y-29798016D01*
X12613235Y-29814491D01*
X12692211Y-29847204D01*
X12692220Y-29847207D01*
X12696363Y-29848923D01*
X12737334Y-29865894D01*
X12757594Y-29869924D01*
X12782635Y-29874905D01*
X12815911Y-29886644D01*
X12823886Y-29890816D01*
X12834367Y-29900929D01*
X12847616Y-29906980D01*
X12859004Y-29924701D01*
X12874165Y-29939330D01*
X12877514Y-29953505D01*
X12885389Y-29965759D01*
X12885388Y-29986825D01*
X12890233Y-30007327D01*
X12885387Y-30021062D01*
X12885387Y-30035629D01*
X12873997Y-30053350D01*
X12866989Y-30073217D01*
X12854800Y-30083219D01*
X12847611Y-30094406D01*
X12817919Y-30113487D01*
X12813259Y-30115615D01*
X12785943Y-30124436D01*
X12737353Y-30134101D01*
X12737326Y-30134107D01*
X12573472Y-30201977D01*
X12573454Y-30201985D01*
X12573439Y-30201994D01*
X12425962Y-30300536D01*
X12425961Y-30300537D01*
X12425955Y-30300542D01*
X12300542Y-30425955D01*
X12300537Y-30425961D01*
X12300536Y-30425962D01*
X12201994Y-30573439D01*
X12201985Y-30573454D01*
X12201977Y-30573472D01*
X12134109Y-30737322D01*
X12134101Y-30737345D01*
X12134099Y-30737352D01*
X12099500Y-30911299D01*
X12099500Y-31088699D01*
X12134099Y-31262646D01*
X12134101Y-31262653D01*
X12134109Y-31262676D01*
X12201984Y-31426542D01*
X12203021Y-31428727D01*
X12209343Y-31444867D01*
X12215034Y-31463047D01*
X12216280Y-31532894D01*
X12212170Y-31547877D01*
X12203107Y-31570512D01*
X12203332Y-31570619D01*
X12201977Y-31573472D01*
X12134109Y-31737322D01*
X12134101Y-31737345D01*
X12134099Y-31737352D01*
X12099500Y-31911299D01*
X12099500Y-32088699D01*
X12134099Y-32262646D01*
X12134101Y-32262653D01*
X12134109Y-32262676D01*
X12201984Y-32426542D01*
X12203021Y-32428727D01*
X12209343Y-32444867D01*
X12215034Y-32463047D01*
X12216280Y-32532894D01*
X12212170Y-32547877D01*
X12203107Y-32570512D01*
X12203332Y-32570619D01*
X12201977Y-32573472D01*
X12134109Y-32737322D01*
X12134101Y-32737345D01*
X12134099Y-32737352D01*
X12099500Y-32911299D01*
X12099500Y-33088699D01*
X12134099Y-33262646D01*
X12134101Y-33262653D01*
X12134109Y-33262676D01*
X12178096Y-33368870D01*
X12200595Y-33423190D01*
X12201984Y-33426542D01*
X12203021Y-33428727D01*
X12209343Y-33444867D01*
X12215034Y-33463047D01*
X12216280Y-33532894D01*
X12212170Y-33547877D01*
X12203107Y-33570512D01*
X12203332Y-33570619D01*
X12201977Y-33573472D01*
X12134109Y-33737322D01*
X12134101Y-33737345D01*
X12134099Y-33737352D01*
X12099500Y-33911299D01*
X12099500Y-34088699D01*
X12134099Y-34262646D01*
X12134101Y-34262653D01*
X12134109Y-34262676D01*
X12201977Y-34426526D01*
X12201985Y-34426544D01*
X12201994Y-34426559D01*
X12300536Y-34574036D01*
X12300537Y-34574037D01*
X12300542Y-34574043D01*
X12425955Y-34699456D01*
X12425961Y-34699461D01*
X12425965Y-34699464D01*
X12573446Y-34798009D01*
X12573459Y-34798016D01*
X12609579Y-34812977D01*
X12695144Y-34848419D01*
X12695182Y-34848434D01*
X12696363Y-34848923D01*
X12737334Y-34865894D01*
X12737336Y-34865894D01*
X12737341Y-34865896D01*
X12903680Y-34898982D01*
X12906403Y-34899704D01*
X12911306Y-34900500D01*
X13088693Y-34900500D01*
X13092814Y-34900500D01*
X13100667Y-34898117D01*
X13146682Y-34888964D01*
X13146683Y-34888964D01*
X13262653Y-34865897D01*
X13262653Y-34865896D01*
X13262658Y-34865896D01*
X13262661Y-34865894D01*
X13262666Y-34865894D01*
X13265854Y-34864573D01*
X13273835Y-34861273D01*
X13273876Y-34861251D01*
X13426540Y-34798016D01*
X13426540Y-34798015D01*
X13426547Y-34798013D01*
X13526394Y-34731295D01*
X13558220Y-34716070D01*
X13589861Y-34706163D01*
X13626908Y-34700500D01*
X14868997Y-34700500D01*
X14877947Y-34698719D01*
X14960040Y-34682389D01*
X15004328Y-34673580D01*
X15068069Y-34647177D01*
X15127771Y-34622448D01*
X15131245Y-34621152D01*
X15131804Y-34620777D01*
X15131807Y-34620777D01*
X15131808Y-34620776D01*
X15131811Y-34620775D01*
X15246543Y-34544114D01*
X15288541Y-34502116D01*
X15291239Y-34499417D01*
X15319484Y-34478274D01*
X15342576Y-34465666D01*
X15402001Y-34450499D01*
X15547871Y-34450499D01*
X15547872Y-34450499D01*
X15607483Y-34444091D01*
X15742331Y-34393796D01*
X15857546Y-34307546D01*
X15890059Y-34264113D01*
X15915004Y-34239171D01*
X15926123Y-34230848D01*
X15991587Y-34206436D01*
X16059839Y-34221281D01*
X16066663Y-34225007D01*
X16106511Y-34259532D01*
X16109945Y-34264119D01*
X16142454Y-34307546D01*
X16188644Y-34342124D01*
X16219627Y-34365318D01*
X16257664Y-34393793D01*
X16257671Y-34393797D01*
X16392517Y-34444091D01*
X16392516Y-34444091D01*
X16399444Y-34444835D01*
X16452127Y-34450500D01*
X17244262Y-34450499D01*
X17260019Y-34452625D01*
X17298921Y-34450499D01*
X17347872Y-34450499D01*
X17398486Y-34445058D01*
X17403685Y-34444774D01*
X17406654Y-34444180D01*
X17407483Y-34444091D01*
X17407483Y-34444090D01*
X17407490Y-34444090D01*
X17411693Y-34443171D01*
X17570985Y-34411314D01*
X17613017Y-34402908D01*
X17637334Y-34400500D01*
X17866053Y-34400500D01*
X17875003Y-34398719D01*
X17957096Y-34382389D01*
X18001384Y-34373580D01*
X18065125Y-34347177D01*
X18124827Y-34322448D01*
X18128301Y-34321152D01*
X18128860Y-34320777D01*
X18128863Y-34320777D01*
X18128864Y-34320776D01*
X18128867Y-34320775D01*
X18243599Y-34244114D01*
X22844113Y-29643599D01*
X22890595Y-29574035D01*
X22920775Y-29528867D01*
X22932972Y-29499422D01*
X22952355Y-29452625D01*
X22965676Y-29420466D01*
X22973580Y-29401385D01*
X22989614Y-29320775D01*
X23000500Y-29266049D01*
X23000500Y-29251935D01*
X23013004Y-29197670D01*
X23204168Y-28804892D01*
X23749281Y-27684868D01*
X23752141Y-27678892D01*
X23752261Y-27678637D01*
X23756630Y-27667722D01*
X23761259Y-27657517D01*
X23783241Y-27614379D01*
X23861090Y-27374785D01*
X23900500Y-27125962D01*
X23900500Y-26874038D01*
X23861090Y-26625215D01*
X23861089Y-26625211D01*
X23861089Y-26625210D01*
X23785854Y-26393663D01*
X23783241Y-26385621D01*
X23783239Y-26385618D01*
X23783239Y-26385616D01*
X23780994Y-26381210D01*
X23780685Y-26380418D01*
X23779954Y-26379169D01*
X23720588Y-26262658D01*
X23668869Y-26161154D01*
X23668864Y-26161147D01*
X23616222Y-26088691D01*
X23520798Y-25957350D01*
X23520794Y-25957345D01*
X23520791Y-25957342D01*
X23520788Y-25957338D01*
X23342660Y-25779210D01*
X23342655Y-25779206D01*
X23342654Y-25779205D01*
X23342649Y-25779201D01*
X23138848Y-25631132D01*
X23138847Y-25631131D01*
X23138845Y-25631130D01*
X23034436Y-25577931D01*
X22914383Y-25516760D01*
X22838761Y-25492189D01*
X22674787Y-25438910D01*
X22593029Y-25425961D01*
X22425289Y-25399393D01*
X22362154Y-25369464D01*
X22325223Y-25310152D01*
X22326221Y-25240289D01*
X22364831Y-25182057D01*
X22404213Y-25159712D01*
X22840519Y-25009072D01*
X22846132Y-25007097D01*
X22846397Y-25007002D01*
X22857583Y-25002219D01*
X22867995Y-24998311D01*
X22914379Y-24983241D01*
X23138845Y-24868870D01*
X23342656Y-24720793D01*
X23520793Y-24542656D01*
X23668870Y-24338845D01*
X23783241Y-24114379D01*
X23861090Y-23874785D01*
X23900500Y-23625962D01*
X23900500Y-23374038D01*
X23861090Y-23125215D01*
X23861089Y-23125211D01*
X23861089Y-23125210D01*
X23785853Y-22893659D01*
X23785851Y-22893654D01*
X23783241Y-22885621D01*
X23783239Y-22885618D01*
X23783239Y-22885616D01*
X23780999Y-22881220D01*
X23780689Y-22880425D01*
X23779956Y-22879173D01*
X23760379Y-22840752D01*
X23741747Y-22804183D01*
X23741747Y-22804184D01*
X23668870Y-22661155D01*
X23649952Y-22635117D01*
X23520798Y-22457350D01*
X23520794Y-22457345D01*
X23520791Y-22457342D01*
X23520788Y-22457338D01*
X23342660Y-22279210D01*
X23342655Y-22279206D01*
X23342654Y-22279205D01*
X23342649Y-22279201D01*
X23138848Y-22131132D01*
X23138847Y-22131131D01*
X23138845Y-22131130D01*
X23124235Y-22123686D01*
X23068747Y-22095413D01*
X22914385Y-22016761D01*
X22914384Y-22016760D01*
X22914383Y-22016760D01*
X22830487Y-21989500D01*
X22674787Y-21938910D01*
X22425288Y-21899393D01*
X22362153Y-21869464D01*
X22325222Y-21810152D01*
X22326220Y-21740290D01*
X22364830Y-21682057D01*
X22404209Y-21659713D01*
X22840519Y-21509072D01*
X22846132Y-21507097D01*
X22846397Y-21507002D01*
X22857583Y-21502219D01*
X22867995Y-21498311D01*
X22914379Y-21483241D01*
X23138845Y-21368870D01*
X23342656Y-21220793D01*
X23520793Y-21042656D01*
X23668870Y-20838845D01*
X23783241Y-20614379D01*
X23861090Y-20374785D01*
X23900500Y-20125962D01*
X23900500Y-19874038D01*
X23861090Y-19625215D01*
X23861089Y-19625211D01*
X23861089Y-19625210D01*
X23785852Y-19393657D01*
X23783241Y-19385621D01*
X23783239Y-19385618D01*
X23783239Y-19385616D01*
X23781000Y-19381222D01*
X23780690Y-19380427D01*
X23779956Y-19379172D01*
X23710956Y-19243754D01*
X23668870Y-19161155D01*
X23599950Y-19066294D01*
X23520798Y-18957350D01*
X23520794Y-18957345D01*
X23520791Y-18957342D01*
X23520788Y-18957338D01*
X23342660Y-18779210D01*
X23342655Y-18779206D01*
X23342654Y-18779205D01*
X23342649Y-18779201D01*
X23138848Y-18631132D01*
X23138847Y-18631131D01*
X23138845Y-18631130D01*
X23081554Y-18601939D01*
X23029983Y-18575662D01*
X22914383Y-18516760D01*
X22838761Y-18492189D01*
X22674787Y-18438910D01*
X22425289Y-18399393D01*
X22362154Y-18369464D01*
X22325223Y-18310152D01*
X22326221Y-18240290D01*
X22364831Y-18182057D01*
X22404213Y-18159712D01*
X22840519Y-18009072D01*
X22846132Y-18007097D01*
X22846397Y-18007002D01*
X22857583Y-18002219D01*
X22867995Y-17998311D01*
X22914379Y-17983241D01*
X23138845Y-17868870D01*
X23342656Y-17720793D01*
X23520793Y-17542656D01*
X23668870Y-17338845D01*
X23783241Y-17114379D01*
X23861090Y-16874785D01*
X23900500Y-16625962D01*
X23900500Y-16374038D01*
X23861090Y-16125215D01*
X23861089Y-16125211D01*
X23861089Y-16125210D01*
X23785853Y-15893659D01*
X23785851Y-15893654D01*
X23783241Y-15885621D01*
X23783239Y-15885618D01*
X23783239Y-15885616D01*
X23780999Y-15881220D01*
X23780689Y-15880425D01*
X23779956Y-15879173D01*
X23760379Y-15840752D01*
X23741747Y-15804183D01*
X23741747Y-15804184D01*
X23668870Y-15661155D01*
X23541194Y-15485423D01*
X23520798Y-15457350D01*
X23520794Y-15457345D01*
X23520790Y-15457341D01*
X23520788Y-15457338D01*
X23342660Y-15279210D01*
X23342655Y-15279206D01*
X23342654Y-15279205D01*
X23342649Y-15279201D01*
X23138848Y-15131132D01*
X23138847Y-15131131D01*
X23138845Y-15131130D01*
X23081554Y-15101939D01*
X23029983Y-15075662D01*
X22914383Y-15016760D01*
X22838761Y-14992189D01*
X22674787Y-14938910D01*
X22425289Y-14899393D01*
X22362154Y-14869464D01*
X22325223Y-14810152D01*
X22326221Y-14740290D01*
X22364831Y-14682057D01*
X22404213Y-14659712D01*
X22840519Y-14509072D01*
X22846132Y-14507097D01*
X22846397Y-14507002D01*
X22857583Y-14502219D01*
X22867995Y-14498311D01*
X22914379Y-14483241D01*
X23138845Y-14368870D01*
X23342656Y-14220793D01*
X23520793Y-14042656D01*
X23668870Y-13838845D01*
X23783241Y-13614379D01*
X23861090Y-13374785D01*
X23900500Y-13125962D01*
X23900500Y-12874038D01*
X23861090Y-12625215D01*
X23861089Y-12625211D01*
X23861089Y-12625210D01*
X23785852Y-12393657D01*
X23783241Y-12385621D01*
X23783239Y-12385618D01*
X23783239Y-12385616D01*
X23781000Y-12381222D01*
X23780690Y-12380427D01*
X23779956Y-12379172D01*
X23710956Y-12243754D01*
X23668870Y-12161155D01*
X23599950Y-12066294D01*
X23520798Y-11957350D01*
X23520794Y-11957345D01*
X23520791Y-11957342D01*
X23520788Y-11957338D01*
X23342660Y-11779210D01*
X23342655Y-11779206D01*
X23342654Y-11779205D01*
X23342649Y-11779201D01*
X23138848Y-11631132D01*
X23138847Y-11631131D01*
X23138845Y-11631130D01*
X23081554Y-11601939D01*
X23029983Y-11575662D01*
X22914383Y-11516760D01*
X22838761Y-11492189D01*
X22674787Y-11438910D01*
X22625557Y-11431113D01*
X22425289Y-11399393D01*
X22362154Y-11369464D01*
X22325223Y-11310152D01*
X22326221Y-11240289D01*
X22364831Y-11182057D01*
X22404213Y-11159712D01*
X22840519Y-11009072D01*
X22846132Y-11007097D01*
X22846397Y-11007002D01*
X22857583Y-11002219D01*
X22867995Y-10998311D01*
X22914379Y-10983241D01*
X23138845Y-10868870D01*
X23342656Y-10720793D01*
X23520793Y-10542656D01*
X23668870Y-10338845D01*
X23783241Y-10114379D01*
X23861090Y-9874785D01*
X23900500Y-9625962D01*
X23900500Y-9374038D01*
X23861090Y-9125215D01*
X23861089Y-9125211D01*
X23861089Y-9125210D01*
X23785853Y-8893659D01*
X23785851Y-8893654D01*
X23783241Y-8885621D01*
X23783239Y-8885618D01*
X23783239Y-8885616D01*
X23780999Y-8881220D01*
X23780689Y-8880425D01*
X23779956Y-8879173D01*
X23760379Y-8840752D01*
X23741747Y-8804183D01*
X23741747Y-8804184D01*
X23668870Y-8661155D01*
X23624278Y-8599779D01*
X23520798Y-8457350D01*
X23520794Y-8457345D01*
X23520791Y-8457342D01*
X23520788Y-8457338D01*
X23342660Y-8279210D01*
X23342655Y-8279206D01*
X23342654Y-8279205D01*
X23342649Y-8279201D01*
X23138848Y-8131132D01*
X23138847Y-8131131D01*
X23138845Y-8131130D01*
X23128113Y-8125662D01*
X23029983Y-8075662D01*
X22914383Y-8016760D01*
X22838761Y-7992189D01*
X22674787Y-7938910D01*
X22425289Y-7899393D01*
X22362154Y-7869464D01*
X22325223Y-7810152D01*
X22326221Y-7740290D01*
X22364831Y-7682057D01*
X22404213Y-7659712D01*
X22840519Y-7509072D01*
X22846132Y-7507097D01*
X22846397Y-7507002D01*
X22857583Y-7502219D01*
X22867995Y-7498311D01*
X22914379Y-7483241D01*
X23138845Y-7368870D01*
X23342656Y-7220793D01*
X23520793Y-7042656D01*
X23668870Y-6838845D01*
X23783241Y-6614379D01*
X23861090Y-6374785D01*
X23900500Y-6125962D01*
X23900500Y-5874038D01*
X23861090Y-5625215D01*
X23861089Y-5625211D01*
X23861089Y-5625210D01*
X23785854Y-5393663D01*
X23783241Y-5385621D01*
X23783239Y-5385618D01*
X23783239Y-5385616D01*
X23780994Y-5381210D01*
X23780685Y-5380418D01*
X23779954Y-5379169D01*
X23728712Y-5278602D01*
X23715899Y-5253455D01*
X23668870Y-5161155D01*
X23599950Y-5066294D01*
X23520798Y-4957350D01*
X23520794Y-4957345D01*
X23520791Y-4957342D01*
X23520788Y-4957338D01*
X23342660Y-4779210D01*
X23342655Y-4779206D01*
X23342654Y-4779205D01*
X23342649Y-4779201D01*
X23138848Y-4631132D01*
X23138847Y-4631131D01*
X23138845Y-4631130D01*
X23081554Y-4601939D01*
X23029983Y-4575662D01*
X22914383Y-4516760D01*
X22838761Y-4492189D01*
X22674787Y-4438910D01*
X22425289Y-4399393D01*
X22362154Y-4369464D01*
X22325223Y-4310152D01*
X22326221Y-4240290D01*
X22364831Y-4182057D01*
X22404213Y-4159712D01*
X22840519Y-4009072D01*
X22846132Y-4007097D01*
X22846397Y-4007002D01*
X22857583Y-4002219D01*
X22867995Y-3998311D01*
X22914379Y-3983241D01*
X23138845Y-3868870D01*
X23342656Y-3720793D01*
X23520793Y-3542656D01*
X23668870Y-3338845D01*
X23783241Y-3114379D01*
X23861090Y-2874785D01*
X23900500Y-2625962D01*
X23900500Y-2374038D01*
X23861090Y-2125215D01*
X23861089Y-2125211D01*
X23861089Y-2125210D01*
X23785853Y-1893659D01*
X23785851Y-1893654D01*
X23783241Y-1885621D01*
X23783239Y-1885618D01*
X23783239Y-1885616D01*
X23780999Y-1881220D01*
X23780689Y-1880425D01*
X23779956Y-1879173D01*
X23760379Y-1840752D01*
X23741747Y-1804183D01*
X23741747Y-1804184D01*
X23668870Y-1661155D01*
X23649952Y-1635117D01*
X23520798Y-1457350D01*
X23520794Y-1457345D01*
X23520791Y-1457342D01*
X23520788Y-1457338D01*
X23342660Y-1279210D01*
X23342655Y-1279206D01*
X23342654Y-1279205D01*
X23342649Y-1279201D01*
X23138848Y-1131132D01*
X23138847Y-1131131D01*
X23138845Y-1131130D01*
X23034436Y-1077931D01*
X22914383Y-1016760D01*
X22838761Y-992189D01*
X22674787Y-938910D01*
X22508903Y-912636D01*
X22425962Y-899500D01*
X22425961Y-899500D01*
X22174039Y-899500D01*
X22174038Y-899500D01*
X22091096Y-912636D01*
X21925212Y-938910D01*
X21925209Y-938910D01*
X21685619Y-1016759D01*
X21685616Y-1016760D01*
X21565563Y-1077931D01*
X21461147Y-1131134D01*
X21257367Y-1279188D01*
X21257338Y-1279210D01*
X21079210Y-1457338D01*
X21079188Y-1457367D01*
X20931134Y-1661147D01*
X20816759Y-1885618D01*
X20798992Y-1940296D01*
X20791336Y-1958680D01*
X20790931Y-1959465D01*
X20790925Y-1959481D01*
X20733705Y-2125210D01*
X20244316Y-3542649D01*
X20241842Y-3549814D01*
X20212312Y-3597027D01*
X17755888Y-6053451D01*
X17679224Y-6168188D01*
X17679220Y-6168195D01*
X17626426Y-6295651D01*
X17626421Y-6295668D01*
X17626416Y-6295683D01*
X17599500Y-6431000D01*
X17599500Y-14095066D01*
X17599499Y-14095068D01*
X17599500Y-14095069D01*
X17594476Y-14130003D01*
X17587064Y-14155244D01*
X17555769Y-14207988D01*
X16655889Y-15107867D01*
X16579225Y-15222604D01*
X16579221Y-15222611D01*
X16526422Y-15350081D01*
X16526420Y-15350087D01*
X16521163Y-15376520D01*
X16521162Y-15376524D01*
X16499500Y-15485417D01*
X16499500Y-25415193D01*
X16499499Y-25415199D01*
X16499500Y-25415202D01*
X16494475Y-25450137D01*
X16490070Y-25465135D01*
X16452306Y-25523897D01*
X16448279Y-25527387D01*
X16399883Y-25553260D01*
X16374129Y-25560327D01*
X16371122Y-25563128D01*
X16358943Y-25568430D01*
X16257666Y-25606204D01*
X16257665Y-25606205D01*
X16142457Y-25692450D01*
X16142454Y-25692452D01*
X16109951Y-25735871D01*
X16109947Y-25735874D01*
X16109947Y-25735876D01*
X16105356Y-25740466D01*
X16084989Y-25760831D01*
X16073876Y-25769149D01*
X16008410Y-25793562D01*
X15940146Y-25778709D01*
X15933323Y-25774983D01*
X15893488Y-25740466D01*
X15891134Y-25737322D01*
X15879376Y-25721615D01*
X15879376Y-25721614D01*
X15864192Y-25701331D01*
X15859707Y-25694071D01*
X15848638Y-25685785D01*
X15775634Y-25631134D01*
X15742335Y-25606206D01*
X15742332Y-25606204D01*
X15742330Y-25606203D01*
X15742328Y-25606202D01*
X15607482Y-25555908D01*
X15607483Y-25555908D01*
X15547883Y-25549501D01*
X15547881Y-25549500D01*
X15547873Y-25549500D01*
X15547865Y-25549500D01*
X15546841Y-25549500D01*
X15409349Y-25549500D01*
X15374413Y-25544477D01*
X15349171Y-25537065D01*
X15296426Y-25505769D01*
X15246543Y-25455886D01*
X15235825Y-25448724D01*
X15235821Y-25448720D01*
X15235821Y-25448722D01*
X15131809Y-25379223D01*
X15131810Y-25379223D01*
X15004347Y-25326426D01*
X15004336Y-25326423D01*
X15004332Y-25326421D01*
X15004322Y-25326418D01*
X15004317Y-25326416D01*
X14868998Y-25299500D01*
X14868996Y-25299500D01*
X14868994Y-25299500D01*
X14868993Y-25299500D01*
X13627930Y-25299500D01*
X13592995Y-25294477D01*
X13561186Y-25285137D01*
X13527232Y-25269263D01*
X13426549Y-25201988D01*
X13426550Y-25201988D01*
X13426548Y-25201987D01*
X13262671Y-25134107D01*
X13262653Y-25134101D01*
X13262646Y-25134099D01*
X13088698Y-25099500D01*
X13088694Y-25099500D01*
X13088691Y-25099500D01*
X12911309Y-25099500D01*
X12911306Y-25099500D01*
X12911301Y-25099500D01*
X12737352Y-25134100D01*
X12737345Y-25134101D01*
X12737322Y-25134109D01*
X12573472Y-25201977D01*
X12573454Y-25201985D01*
X12573439Y-25201994D01*
X12425962Y-25300536D01*
X12425961Y-25300537D01*
X12425955Y-25300542D01*
X12300542Y-25425955D01*
X12300537Y-25425961D01*
X12201994Y-25573439D01*
X12201985Y-25573454D01*
X12201977Y-25573472D01*
X12134109Y-25737322D01*
X12134101Y-25737345D01*
X12134099Y-25737352D01*
X12099500Y-25911299D01*
X9000000Y-25911299D01*
X9000000Y-5911299D01*
X12099500Y-5911299D01*
X12099500Y-6088699D01*
X12134099Y-6262646D01*
X12134101Y-6262653D01*
X12134109Y-6262676D01*
X12201984Y-6426542D01*
X12203021Y-6428727D01*
X12209343Y-6444867D01*
X12215034Y-6463047D01*
X12216280Y-6532894D01*
X12212170Y-6547877D01*
X12203107Y-6570512D01*
X12203332Y-6570619D01*
X12201977Y-6573472D01*
X12134109Y-6737322D01*
X12134101Y-6737345D01*
X12134099Y-6737352D01*
X12099500Y-6911299D01*
X12099500Y-7088699D01*
X12134099Y-7262646D01*
X12134101Y-7262653D01*
X12134109Y-7262676D01*
X12178095Y-7368869D01*
X12200595Y-7423190D01*
X12201984Y-7426542D01*
X12203021Y-7428727D01*
X12209343Y-7444867D01*
X12215034Y-7463047D01*
X12216280Y-7532894D01*
X12212170Y-7547877D01*
X12203107Y-7570512D01*
X12203332Y-7570619D01*
X12201977Y-7573472D01*
X12134109Y-7737322D01*
X12134101Y-7737345D01*
X12134099Y-7737352D01*
X12099500Y-7911299D01*
X12099500Y-8088699D01*
X12134099Y-8262646D01*
X12134101Y-8262653D01*
X12134109Y-8262676D01*
X12201984Y-8426542D01*
X12203021Y-8428727D01*
X12209343Y-8444867D01*
X12215034Y-8463047D01*
X12216280Y-8532894D01*
X12212170Y-8547877D01*
X12203107Y-8570512D01*
X12203332Y-8570619D01*
X12201977Y-8573472D01*
X12134109Y-8737322D01*
X12134101Y-8737345D01*
X12134099Y-8737352D01*
X12099500Y-8911299D01*
X12099500Y-9088699D01*
X12134099Y-9262646D01*
X12134101Y-9262653D01*
X12134109Y-9262676D01*
X12201977Y-9426526D01*
X12201985Y-9426544D01*
X12201994Y-9426559D01*
X12300536Y-9574036D01*
X12300537Y-9574037D01*
X12300542Y-9574043D01*
X12425955Y-9699456D01*
X12425961Y-9699461D01*
X12425965Y-9699464D01*
X12573446Y-9798009D01*
X12573459Y-9798016D01*
X12613235Y-9814491D01*
X12692211Y-9847204D01*
X12692220Y-9847207D01*
X12696363Y-9848923D01*
X12737334Y-9865894D01*
X12757594Y-9869924D01*
X12782635Y-9874905D01*
X12815911Y-9886644D01*
X12823886Y-9890816D01*
X12834367Y-9900929D01*
X12847616Y-9906980D01*
X12859004Y-9924701D01*
X12874165Y-9939330D01*
X12877514Y-9953505D01*
X12885389Y-9965759D01*
X12885388Y-9986825D01*
X12890233Y-10007327D01*
X12885387Y-10021062D01*
X12885387Y-10035629D01*
X12873997Y-10053350D01*
X12866989Y-10073217D01*
X12854800Y-10083219D01*
X12847611Y-10094406D01*
X12817919Y-10113487D01*
X12813259Y-10115615D01*
X12785943Y-10124436D01*
X12737353Y-10134101D01*
X12737326Y-10134107D01*
X12573472Y-10201977D01*
X12573454Y-10201985D01*
X12573439Y-10201994D01*
X12425962Y-10300536D01*
X12425961Y-10300537D01*
X12425955Y-10300542D01*
X12300542Y-10425955D01*
X12300537Y-10425961D01*
X12300536Y-10425962D01*
X12201994Y-10573439D01*
X12201985Y-10573454D01*
X12201977Y-10573472D01*
X12134109Y-10737322D01*
X12134101Y-10737345D01*
X12134099Y-10737352D01*
X12099500Y-10911299D01*
X12099500Y-11088699D01*
X12134099Y-11262646D01*
X12134101Y-11262653D01*
X12134109Y-11262676D01*
X12201984Y-11426542D01*
X12203021Y-11428727D01*
X12209343Y-11444867D01*
X12215034Y-11463047D01*
X12216280Y-11532894D01*
X12212170Y-11547877D01*
X12203107Y-11570512D01*
X12203332Y-11570619D01*
X12201977Y-11573472D01*
X12134109Y-11737322D01*
X12134101Y-11737345D01*
X12134099Y-11737352D01*
X12099500Y-11911299D01*
X12099500Y-12088699D01*
X12134099Y-12262646D01*
X12134101Y-12262653D01*
X12134109Y-12262676D01*
X12182360Y-12379166D01*
X12194089Y-12407483D01*
X12201984Y-12426542D01*
X12203021Y-12428727D01*
X12209343Y-12444867D01*
X12215034Y-12463047D01*
X12216280Y-12532894D01*
X12212170Y-12547877D01*
X12203107Y-12570512D01*
X12203332Y-12570619D01*
X12201977Y-12573472D01*
X12134109Y-12737322D01*
X12134101Y-12737345D01*
X12134099Y-12737352D01*
X12099500Y-12911299D01*
X12099500Y-13088699D01*
X12134099Y-13262646D01*
X12134101Y-13262653D01*
X12134109Y-13262676D01*
X12201984Y-13426542D01*
X12203021Y-13428727D01*
X12209343Y-13444867D01*
X12215034Y-13463047D01*
X12216280Y-13532894D01*
X12212170Y-13547877D01*
X12203107Y-13570512D01*
X12203332Y-13570619D01*
X12201977Y-13573472D01*
X12134109Y-13737322D01*
X12134101Y-13737345D01*
X12134099Y-13737352D01*
X12099500Y-13911299D01*
X12099500Y-14088699D01*
X12134099Y-14262646D01*
X12134101Y-14262653D01*
X12134109Y-14262676D01*
X12201977Y-14426526D01*
X12201985Y-14426544D01*
X12201994Y-14426559D01*
X12300536Y-14574036D01*
X12300537Y-14574037D01*
X12300542Y-14574043D01*
X12425955Y-14699456D01*
X12425961Y-14699461D01*
X12425965Y-14699464D01*
X12573446Y-14798009D01*
X12573459Y-14798016D01*
X12602759Y-14810152D01*
X12695144Y-14848419D01*
X12695182Y-14848434D01*
X12696363Y-14848923D01*
X12737334Y-14865894D01*
X12737336Y-14865894D01*
X12737341Y-14865896D01*
X12903680Y-14898982D01*
X12906403Y-14899704D01*
X12911306Y-14900500D01*
X13088693Y-14900500D01*
X13092814Y-14900500D01*
X13100667Y-14898117D01*
X13146682Y-14888964D01*
X13146683Y-14888964D01*
X13262653Y-14865897D01*
X13262653Y-14865896D01*
X13262658Y-14865896D01*
X13262661Y-14865894D01*
X13262666Y-14865894D01*
X13265854Y-14864573D01*
X13273835Y-14861273D01*
X13273876Y-14861251D01*
X13426540Y-14798016D01*
X13426540Y-14798015D01*
X13426547Y-14798013D01*
X13526394Y-14731295D01*
X13558220Y-14716070D01*
X13589861Y-14706163D01*
X13626908Y-14700500D01*
X14868997Y-14700500D01*
X14877947Y-14698719D01*
X14960040Y-14682389D01*
X15004328Y-14673580D01*
X15068069Y-14647177D01*
X15127771Y-14622448D01*
X15131245Y-14621152D01*
X15131804Y-14620777D01*
X15131807Y-14620777D01*
X15131808Y-14620776D01*
X15131811Y-14620775D01*
X15246543Y-14544114D01*
X15282085Y-14508571D01*
X15291238Y-14499417D01*
X15319483Y-14478275D01*
X15342578Y-14465665D01*
X15402001Y-14450499D01*
X15547871Y-14450499D01*
X15547872Y-14450499D01*
X15607483Y-14444091D01*
X15742331Y-14393796D01*
X15857546Y-14307546D01*
X15943796Y-14192331D01*
X15994091Y-14057483D01*
X16000500Y-13997873D01*
X16000499Y-13402128D01*
X15994091Y-13342517D01*
X15991302Y-13335042D01*
X15991302Y-13335038D01*
X15991300Y-13335036D01*
X15983798Y-13300553D01*
X15981792Y-13272515D01*
X15989295Y-13220337D01*
X15994091Y-13207483D01*
X16000500Y-13147873D01*
X16000499Y-12652128D01*
X15994091Y-12592517D01*
X15986978Y-12573446D01*
X15981975Y-12560034D01*
X15974475Y-12525554D01*
X15972469Y-12497515D01*
X15979972Y-12445336D01*
X15986978Y-12426553D01*
X15994091Y-12407483D01*
X16000500Y-12347873D01*
X16000499Y-11852128D01*
X15994091Y-11792517D01*
X15991302Y-11785042D01*
X15991302Y-11785038D01*
X15991300Y-11785036D01*
X15983798Y-11750553D01*
X15981792Y-11722515D01*
X15989295Y-11670337D01*
X15994091Y-11657483D01*
X16000500Y-11597873D01*
X16000499Y-11002128D01*
X15994091Y-10942517D01*
X15985068Y-10918326D01*
X15966624Y-10868873D01*
X15943798Y-10807673D01*
X15943797Y-10807671D01*
X15943793Y-10807664D01*
X15857547Y-10692455D01*
X15857544Y-10692452D01*
X15857542Y-10692450D01*
X15799616Y-10649086D01*
X15742335Y-10606206D01*
X15742332Y-10606204D01*
X15742330Y-10606203D01*
X15742328Y-10606202D01*
X15607482Y-10555908D01*
X15607483Y-10555908D01*
X15547883Y-10549501D01*
X15547881Y-10549500D01*
X15547873Y-10549500D01*
X15547865Y-10549500D01*
X15546841Y-10549500D01*
X15409349Y-10549500D01*
X15374413Y-10544477D01*
X15349171Y-10537065D01*
X15296425Y-10505768D01*
X15246546Y-10455888D01*
X15246543Y-10455885D01*
X15206352Y-10429031D01*
X15197832Y-10418837D01*
X15131809Y-10379223D01*
X15131802Y-10379219D01*
X15004354Y-10326429D01*
X15004340Y-10326424D01*
X15004332Y-10326421D01*
X15004322Y-10326418D01*
X15004317Y-10326416D01*
X14868998Y-10299500D01*
X14868996Y-10299500D01*
X14868994Y-10299500D01*
X14868993Y-10299500D01*
X13627930Y-10299500D01*
X13592995Y-10294477D01*
X13561186Y-10285137D01*
X13527232Y-10269263D01*
X13426549Y-10201988D01*
X13426550Y-10201988D01*
X13426548Y-10201987D01*
X13344607Y-10168046D01*
X13262667Y-10134106D01*
X13262658Y-10134103D01*
X13262656Y-10134102D01*
X13262651Y-10134101D01*
X13217368Y-10125094D01*
X13215437Y-10124084D01*
X13213262Y-10124205D01*
X13184084Y-10113353D01*
X13176114Y-10109184D01*
X13163284Y-10096804D01*
X13155457Y-10092710D01*
X13146068Y-10080192D01*
X13125835Y-10060668D01*
X13109767Y-9992671D01*
X13133011Y-9926782D01*
X13182069Y-9886517D01*
X13186736Y-9884386D01*
X13194730Y-9881804D01*
X13196785Y-9880317D01*
X13199863Y-9880146D01*
X13214048Y-9875565D01*
X13262658Y-9865896D01*
X13262661Y-9865894D01*
X13262666Y-9865894D01*
X13426547Y-9798013D01*
X13526394Y-9731295D01*
X13558220Y-9716070D01*
X13589861Y-9706163D01*
X13626908Y-9700500D01*
X14868997Y-9700500D01*
X14881830Y-9697947D01*
X14999808Y-9674479D01*
X15004328Y-9673580D01*
X15068069Y-9647177D01*
X15127771Y-9622448D01*
X15131245Y-9621152D01*
X15131804Y-9620777D01*
X15131807Y-9620777D01*
X15131808Y-9620776D01*
X15131811Y-9620775D01*
X15246543Y-9544114D01*
X15282085Y-9508571D01*
X15291238Y-9499417D01*
X15319483Y-9478275D01*
X15342578Y-9465665D01*
X15402001Y-9450499D01*
X15547871Y-9450499D01*
X15547872Y-9450499D01*
X15607483Y-9444091D01*
X15742331Y-9393796D01*
X15857546Y-9307546D01*
X15943796Y-9192331D01*
X15994091Y-9057483D01*
X16000500Y-8997873D01*
X16000499Y-8402128D01*
X15994091Y-8342517D01*
X15991302Y-8335042D01*
X15991302Y-8335038D01*
X15991300Y-8335036D01*
X15983798Y-8300553D01*
X15981792Y-8272515D01*
X15989295Y-8220337D01*
X15994091Y-8207483D01*
X16000500Y-8147873D01*
X16000499Y-7652128D01*
X15994091Y-7592517D01*
X15986978Y-7573446D01*
X15981975Y-7560034D01*
X15974475Y-7525554D01*
X15973296Y-7509072D01*
X15972469Y-7497515D01*
X15979972Y-7445336D01*
X15986978Y-7426553D01*
X15994091Y-7407483D01*
X16000500Y-7347873D01*
X16000499Y-6852128D01*
X15994091Y-6792517D01*
X15991302Y-6785042D01*
X15991302Y-6785038D01*
X15991300Y-6785036D01*
X15983798Y-6750553D01*
X15981792Y-6722515D01*
X15989295Y-6670337D01*
X15994091Y-6657483D01*
X16000500Y-6597873D01*
X16000499Y-6002128D01*
X15994091Y-5942517D01*
X15982451Y-5911309D01*
X15982449Y-5911304D01*
X15943797Y-5807671D01*
X15943793Y-5807664D01*
X15857547Y-5692455D01*
X15857544Y-5692452D01*
X15857542Y-5692450D01*
X15799616Y-5649086D01*
X15742335Y-5606206D01*
X15742332Y-5606204D01*
X15742330Y-5606203D01*
X15742328Y-5606202D01*
X15607482Y-5555908D01*
X15607483Y-5555908D01*
X15547883Y-5549501D01*
X15547881Y-5549500D01*
X15547873Y-5549500D01*
X15547865Y-5549500D01*
X15546841Y-5549500D01*
X15409349Y-5549500D01*
X15374413Y-5544477D01*
X15349171Y-5537065D01*
X15296425Y-5505768D01*
X15246548Y-5455890D01*
X15246545Y-5455887D01*
X15141386Y-5385623D01*
X15141385Y-5385622D01*
X15131807Y-5379222D01*
X15131802Y-5379219D01*
X15004354Y-5326429D01*
X15004340Y-5326424D01*
X15004332Y-5326421D01*
X15004322Y-5326418D01*
X15004317Y-5326416D01*
X14868998Y-5299500D01*
X14868996Y-5299500D01*
X14868994Y-5299500D01*
X14868993Y-5299500D01*
X13627930Y-5299500D01*
X13592995Y-5294477D01*
X13561186Y-5285137D01*
X13527232Y-5269263D01*
X13426549Y-5201988D01*
X13426550Y-5201988D01*
X13426548Y-5201987D01*
X13262671Y-5134107D01*
X13262653Y-5134101D01*
X13262646Y-5134099D01*
X13088698Y-5099500D01*
X13088694Y-5099500D01*
X13088691Y-5099500D01*
X12911309Y-5099500D01*
X12911306Y-5099500D01*
X12911301Y-5099500D01*
X12737352Y-5134100D01*
X12737345Y-5134101D01*
X12737322Y-5134109D01*
X12573472Y-5201977D01*
X12573454Y-5201985D01*
X12573439Y-5201994D01*
X12425962Y-5300536D01*
X12425961Y-5300537D01*
X12425955Y-5300542D01*
X12300542Y-5425955D01*
X12300537Y-5425961D01*
X12300536Y-5425962D01*
X12201994Y-5573439D01*
X12201985Y-5573454D01*
X12201977Y-5573472D01*
X12134109Y-5737322D01*
X12134101Y-5737345D01*
X12134099Y-5737352D01*
X12099500Y-5911299D01*
X9000000Y-5911299D01*
X9000000Y14088701D01*
X12099500Y14088701D01*
X12099500Y13911301D01*
X12134099Y13737354D01*
X12134101Y13737347D01*
X12134109Y13737324D01*
X12201984Y13573458D01*
X12203021Y13571273D01*
X12209343Y13555133D01*
X12215034Y13536953D01*
X12216280Y13467106D01*
X12212170Y13452123D01*
X12203107Y13429488D01*
X12203332Y13429381D01*
X12201977Y13426528D01*
X12134109Y13262678D01*
X12134101Y13262655D01*
X12134099Y13262648D01*
X12099500Y13088701D01*
X12099500Y12911301D01*
X12134099Y12737354D01*
X12134101Y12737347D01*
X12134109Y12737324D01*
X12201984Y12573458D01*
X12203021Y12571273D01*
X12209343Y12555133D01*
X12215034Y12536953D01*
X12216280Y12467106D01*
X12212170Y12452123D01*
X12203107Y12429488D01*
X12203332Y12429381D01*
X12201977Y12426528D01*
X12134109Y12262678D01*
X12134101Y12262655D01*
X12134099Y12262648D01*
X12099500Y12088701D01*
X12099500Y11911301D01*
X12134099Y11737354D01*
X12134101Y11737347D01*
X12134109Y11737324D01*
X12178096Y11631130D01*
X12200595Y11576810D01*
X12201984Y11573458D01*
X12203021Y11571273D01*
X12209343Y11555133D01*
X12215034Y11536953D01*
X12216280Y11467106D01*
X12212170Y11452123D01*
X12203107Y11429488D01*
X12203332Y11429381D01*
X12201977Y11426528D01*
X12134109Y11262678D01*
X12134101Y11262655D01*
X12134099Y11262648D01*
X12099500Y11088701D01*
X12099500Y10911301D01*
X12134099Y10737354D01*
X12134101Y10737347D01*
X12134109Y10737324D01*
X12201977Y10573474D01*
X12201985Y10573456D01*
X12201994Y10573441D01*
X12300536Y10425964D01*
X12300537Y10425963D01*
X12300542Y10425957D01*
X12425955Y10300544D01*
X12425961Y10300539D01*
X12425965Y10300536D01*
X12573446Y10201991D01*
X12573459Y10201984D01*
X12613235Y10185509D01*
X12692211Y10152796D01*
X12692220Y10152793D01*
X12696363Y10151077D01*
X12737334Y10134106D01*
X12757594Y10130076D01*
X12782635Y10125095D01*
X12815911Y10113356D01*
X12823886Y10109184D01*
X12834367Y10099071D01*
X12847616Y10093020D01*
X12859004Y10075299D01*
X12874165Y10060670D01*
X12877514Y10046495D01*
X12885389Y10034241D01*
X12885388Y10013175D01*
X12890233Y9992673D01*
X12885387Y9978938D01*
X12885387Y9964371D01*
X12873997Y9946650D01*
X12866989Y9926783D01*
X12854800Y9916781D01*
X12847611Y9905594D01*
X12817919Y9886513D01*
X12813259Y9884385D01*
X12785943Y9875564D01*
X12737353Y9865899D01*
X12737326Y9865893D01*
X12573472Y9798023D01*
X12573454Y9798015D01*
X12573439Y9798006D01*
X12425962Y9699464D01*
X12425961Y9699463D01*
X12425955Y9699458D01*
X12300542Y9574045D01*
X12300537Y9574039D01*
X12300536Y9574038D01*
X12201994Y9426561D01*
X12201985Y9426546D01*
X12201977Y9426528D01*
X12134109Y9262678D01*
X12134101Y9262655D01*
X12134099Y9262648D01*
X12099500Y9088701D01*
X12099500Y8911301D01*
X12134099Y8737354D01*
X12134101Y8737347D01*
X12134109Y8737324D01*
X12201984Y8573458D01*
X12203021Y8571273D01*
X12209343Y8555133D01*
X12215034Y8536953D01*
X12216280Y8467106D01*
X12212170Y8452123D01*
X12203107Y8429488D01*
X12203332Y8429381D01*
X12201977Y8426528D01*
X12134109Y8262678D01*
X12134101Y8262655D01*
X12134099Y8262648D01*
X12099500Y8088701D01*
X12099500Y7911301D01*
X12134099Y7737354D01*
X12134101Y7737347D01*
X12134109Y7737324D01*
X12154446Y7688226D01*
X12194089Y7592517D01*
X12201984Y7573458D01*
X12203021Y7571273D01*
X12209343Y7555133D01*
X12215034Y7536953D01*
X12216280Y7467106D01*
X12212170Y7452123D01*
X12203107Y7429488D01*
X12203332Y7429381D01*
X12201977Y7426528D01*
X12134109Y7262678D01*
X12134101Y7262655D01*
X12134099Y7262648D01*
X12099500Y7088701D01*
X12099500Y6911301D01*
X12134099Y6737354D01*
X12134101Y6737347D01*
X12134109Y6737324D01*
X12201984Y6573458D01*
X12203021Y6571273D01*
X12209343Y6555133D01*
X12215034Y6536953D01*
X12216280Y6467106D01*
X12212170Y6452123D01*
X12203107Y6429488D01*
X12203332Y6429381D01*
X12201977Y6426528D01*
X12134109Y6262678D01*
X12134101Y6262655D01*
X12134099Y6262648D01*
X12099500Y6088701D01*
X12099500Y5911301D01*
X12134099Y5737354D01*
X12134101Y5737347D01*
X12134109Y5737324D01*
X12201977Y5573474D01*
X12201985Y5573456D01*
X12201994Y5573441D01*
X12300536Y5425964D01*
X12300537Y5425963D01*
X12300542Y5425957D01*
X12425955Y5300544D01*
X12425961Y5300539D01*
X12425965Y5300536D01*
X12573446Y5201991D01*
X12573459Y5201984D01*
X12633096Y5177282D01*
X12671183Y5161506D01*
X12671197Y5161501D01*
X12672031Y5161155D01*
X12737334Y5134106D01*
X12737336Y5134106D01*
X12737341Y5134104D01*
X12903680Y5101018D01*
X12906403Y5100296D01*
X12911306Y5099500D01*
X13088693Y5099500D01*
X13092814Y5099500D01*
X13100667Y5101883D01*
X13146682Y5111036D01*
X13146683Y5111036D01*
X13262653Y5134103D01*
X13262653Y5134104D01*
X13262658Y5134104D01*
X13262661Y5134106D01*
X13262666Y5134106D01*
X13265854Y5135427D01*
X13273835Y5138727D01*
X13273876Y5138749D01*
X13426540Y5201984D01*
X13426540Y5201985D01*
X13426547Y5201987D01*
X13526394Y5268705D01*
X13558220Y5283930D01*
X13589861Y5293837D01*
X13626908Y5299500D01*
X14868997Y5299500D01*
X14877947Y5301281D01*
X14960040Y5317611D01*
X15004328Y5326420D01*
X15068069Y5352823D01*
X15127771Y5377552D01*
X15131245Y5378848D01*
X15131804Y5379223D01*
X15131807Y5379223D01*
X15131808Y5379224D01*
X15131811Y5379225D01*
X15246543Y5455886D01*
X15282085Y5491429D01*
X15291238Y5500583D01*
X15319483Y5521725D01*
X15342578Y5534335D01*
X15402001Y5549501D01*
X15547871Y5549501D01*
X15547872Y5549501D01*
X15607483Y5555909D01*
X15742331Y5606204D01*
X15857546Y5692454D01*
X15890059Y5735887D01*
X15915004Y5760829D01*
X15926123Y5769152D01*
X15991587Y5793564D01*
X16059839Y5778719D01*
X16066663Y5774993D01*
X16106511Y5740468D01*
X16109945Y5735881D01*
X16142454Y5692454D01*
X16188644Y5657876D01*
X16257661Y5606209D01*
X16257663Y5606208D01*
X16257665Y5606206D01*
X16257667Y5606206D01*
X16257671Y5606203D01*
X16302618Y5589439D01*
X16392517Y5555909D01*
X16452127Y5549500D01*
X16565625Y5549501D01*
X16632665Y5529817D01*
X16644147Y5521472D01*
X16857053Y5347276D01*
X16865294Y5340919D01*
X16872690Y5335213D01*
X16884625Y5324718D01*
X19830937Y2378405D01*
X19842523Y2365034D01*
X19858248Y2344027D01*
X19858264Y2344009D01*
X20199488Y2002786D01*
X20199502Y2002773D01*
X20234190Y1974307D01*
X20238901Y1970441D01*
X20253453Y1955889D01*
X20253454Y1955888D01*
X20270571Y1944451D01*
X20275285Y1940583D01*
X20276116Y1939901D01*
X20276120Y1939898D01*
X20276123Y1939896D01*
X20279919Y1937360D01*
X20280870Y1936852D01*
X20291293Y1930605D01*
X20368192Y1879223D01*
X20475268Y1834872D01*
X20500241Y1820960D01*
X21419766Y1159149D01*
X21429541Y1152374D01*
X21434505Y1148933D01*
X21435198Y1148471D01*
X21435203Y1148467D01*
X21438835Y1146401D01*
X21450410Y1138937D01*
X21461155Y1131130D01*
X21604184Y1058253D01*
X21604183Y1058253D01*
X21640752Y1039621D01*
X21682775Y1018209D01*
X21686488Y1016316D01*
X21690243Y1015257D01*
X21735082Y1000688D01*
X21925215Y938910D01*
X22174038Y899500D01*
X22174039Y899500D01*
X22425961Y899500D01*
X22425962Y899500D01*
X22674785Y938910D01*
X22914379Y1016759D01*
X23138845Y1131130D01*
X23342656Y1279207D01*
X23520793Y1457344D01*
X23668870Y1661155D01*
X23783241Y1885621D01*
X23861090Y2125215D01*
X23900500Y2374038D01*
X23900500Y2625962D01*
X23861090Y2874785D01*
X23861089Y2874789D01*
X23861089Y2874790D01*
X23785853Y3106341D01*
X23785851Y3106346D01*
X23783241Y3114379D01*
X23783239Y3114382D01*
X23783239Y3114384D01*
X23780999Y3118780D01*
X23780689Y3119575D01*
X23779956Y3120827D01*
X23760379Y3159248D01*
X23741747Y3195817D01*
X23741747Y3195816D01*
X23668870Y3338845D01*
X23616910Y3410362D01*
X23520798Y3542650D01*
X23520794Y3542655D01*
X23520791Y3542658D01*
X23520788Y3542662D01*
X23342660Y3720790D01*
X23342655Y3720794D01*
X23342654Y3720795D01*
X23342649Y3720799D01*
X23138848Y3868868D01*
X23138847Y3868869D01*
X23138845Y3868870D01*
X23034436Y3922069D01*
X22914383Y3983240D01*
X22838761Y4007811D01*
X22674787Y4061090D01*
X22508903Y4087364D01*
X22425962Y4100500D01*
X22425961Y4100500D01*
X22174039Y4100500D01*
X22174038Y4100500D01*
X22091096Y4087364D01*
X21925212Y4061090D01*
X21925209Y4061090D01*
X21685619Y3983241D01*
X21685616Y3983240D01*
X21663551Y3971997D01*
X21461152Y3868869D01*
X21437187Y3851458D01*
X21421693Y3841858D01*
X21419774Y3840857D01*
X21419759Y3840847D01*
X20883165Y3454647D01*
X20817254Y3431462D01*
X20749271Y3447592D01*
X20723048Y3467609D01*
X18015445Y6175212D01*
X17994296Y6203462D01*
X17988874Y6213392D01*
X17974021Y6281662D01*
X17998435Y6347127D01*
X18054365Y6388999D01*
X18058244Y6390446D01*
X18061580Y6391689D01*
X18104894Y6399500D01*
X20517730Y6399500D01*
X20584769Y6379815D01*
X20630524Y6327011D01*
X20640555Y6292526D01*
X20644695Y6262659D01*
X20701167Y5855190D01*
X20708260Y5815248D01*
X20710359Y5805477D01*
X20738910Y5625214D01*
X20738910Y5625211D01*
X20793928Y5455886D01*
X20816760Y5385617D01*
X20931132Y5161152D01*
X20931134Y5161149D01*
X20950095Y5135051D01*
X21079201Y4957351D01*
X21079205Y4957346D01*
X21079210Y4957340D01*
X21257338Y4779212D01*
X21257342Y4779209D01*
X21257345Y4779206D01*
X21257350Y4779202D01*
X21435117Y4650048D01*
X21461155Y4631130D01*
X21604184Y4558253D01*
X21604183Y4558253D01*
X21640752Y4539621D01*
X21682775Y4518209D01*
X21686488Y4516316D01*
X21690243Y4515257D01*
X21735082Y4500688D01*
X21925215Y4438910D01*
X22174038Y4399500D01*
X22174039Y4399500D01*
X22425961Y4399500D01*
X22425962Y4399500D01*
X22674785Y4438910D01*
X22914379Y4516759D01*
X23138845Y4631130D01*
X23342656Y4779207D01*
X23520793Y4957344D01*
X23668870Y5161155D01*
X23783241Y5385621D01*
X23861090Y5625215D01*
X23900500Y5874038D01*
X23900500Y6125962D01*
X23861090Y6374785D01*
X23861089Y6374789D01*
X23861089Y6374790D01*
X23785853Y6606341D01*
X23785851Y6606346D01*
X23783241Y6614379D01*
X23783239Y6614382D01*
X23783239Y6614384D01*
X23781000Y6618778D01*
X23780690Y6619573D01*
X23779956Y6620827D01*
X23692475Y6792517D01*
X23668870Y6838845D01*
X23616222Y6911309D01*
X23520798Y7042650D01*
X23520794Y7042655D01*
X23520791Y7042658D01*
X23520788Y7042662D01*
X23342660Y7220790D01*
X23342655Y7220794D01*
X23342654Y7220795D01*
X23342649Y7220799D01*
X23138848Y7368868D01*
X23138847Y7368869D01*
X23138845Y7368870D01*
X23034436Y7422069D01*
X22914383Y7483240D01*
X22838761Y7507811D01*
X22674787Y7561090D01*
X22625557Y7568887D01*
X22462540Y7594707D01*
X22447612Y7598026D01*
X22444815Y7598832D01*
X22444810Y7598833D01*
X22444809Y7598833D01*
X22429635Y7600936D01*
X22365933Y7629640D01*
X22327862Y7688226D01*
X22327509Y7758095D01*
X22364985Y7817063D01*
X22406187Y7840970D01*
X22838438Y7990210D01*
X22844773Y7993168D01*
X22858881Y7998728D01*
X22914379Y8016759D01*
X23138845Y8131130D01*
X23342656Y8279207D01*
X23520793Y8457344D01*
X23668870Y8661155D01*
X23783241Y8885621D01*
X23861090Y9125215D01*
X23900500Y9374038D01*
X23900500Y9625962D01*
X23861090Y9874785D01*
X23861089Y9874789D01*
X23861089Y9874790D01*
X23785854Y10106337D01*
X23783241Y10114379D01*
X23783239Y10114382D01*
X23783239Y10114384D01*
X23780994Y10118790D01*
X23780685Y10119582D01*
X23779954Y10120831D01*
X23773189Y10134107D01*
X23738602Y10201988D01*
X23668870Y10338845D01*
X23633990Y10386853D01*
X23633990Y10386854D01*
X23633989Y10386854D01*
X23622598Y10402532D01*
X23526839Y10534335D01*
X23520810Y10542634D01*
X23520805Y10542641D01*
X23520798Y10542650D01*
X23520794Y10542655D01*
X23520791Y10542658D01*
X23520788Y10542662D01*
X23342660Y10720790D01*
X23342655Y10720794D01*
X23342654Y10720795D01*
X23342649Y10720799D01*
X23262930Y10778718D01*
X23149445Y10861169D01*
X23149443Y10861170D01*
X23138848Y10868868D01*
X23138847Y10868869D01*
X23138845Y10868870D01*
X23124235Y10876314D01*
X23068747Y10904587D01*
X22914385Y10983239D01*
X22914384Y10983240D01*
X22914383Y10983240D01*
X22830487Y11010500D01*
X22674787Y11061090D01*
X22425289Y11100607D01*
X22362154Y11130536D01*
X22325223Y11189848D01*
X22326221Y11259710D01*
X22364831Y11317943D01*
X22404212Y11340288D01*
X22840519Y11490928D01*
X22846132Y11492903D01*
X22846397Y11492998D01*
X22857583Y11497781D01*
X22867995Y11501689D01*
X22914379Y11516759D01*
X23138845Y11631130D01*
X23342656Y11779207D01*
X23520793Y11957344D01*
X23668870Y12161155D01*
X23783241Y12385621D01*
X23861090Y12625215D01*
X23900500Y12874038D01*
X23900500Y13125962D01*
X23861090Y13374785D01*
X23861089Y13374789D01*
X23861089Y13374790D01*
X23785853Y13606341D01*
X23785851Y13606346D01*
X23783241Y13614379D01*
X23783239Y13614382D01*
X23783239Y13614384D01*
X23781000Y13618778D01*
X23780690Y13619573D01*
X23779956Y13620827D01*
X23693168Y13791157D01*
X23668870Y13838845D01*
X23570430Y13974337D01*
X23520798Y14042650D01*
X23520794Y14042655D01*
X23520791Y14042658D01*
X23520788Y14042662D01*
X23342660Y14220790D01*
X23342655Y14220794D01*
X23342654Y14220795D01*
X23342649Y14220799D01*
X23138848Y14368868D01*
X23138847Y14368869D01*
X23138845Y14368870D01*
X23034436Y14422069D01*
X22914383Y14483240D01*
X22869486Y14497828D01*
X22674789Y14561090D01*
X22615529Y14570476D01*
X22552395Y14600406D01*
X22515465Y14659718D01*
X22516463Y14729581D01*
X22555074Y14787813D01*
X22568227Y14797480D01*
X22898273Y15008036D01*
X22910189Y15014238D01*
X22910033Y15014545D01*
X22914376Y15016759D01*
X22914379Y15016759D01*
X23138845Y15131130D01*
X23342656Y15279207D01*
X23394512Y15331064D01*
X23405774Y15339879D01*
X23418197Y15354749D01*
X23520793Y15457344D01*
X23668870Y15661155D01*
X23783241Y15885621D01*
X23861090Y16125215D01*
X23900500Y16374038D01*
X23900500Y16625962D01*
X23861090Y16874785D01*
X23861089Y16874789D01*
X23861089Y16874790D01*
X23785853Y17106341D01*
X23785851Y17106346D01*
X23783241Y17114379D01*
X23783239Y17114382D01*
X23783239Y17114384D01*
X23780999Y17118780D01*
X23780689Y17119575D01*
X23779956Y17120827D01*
X23760379Y17159248D01*
X23741747Y17195817D01*
X23741747Y17195816D01*
X23668870Y17338845D01*
X23649952Y17364883D01*
X23520798Y17542650D01*
X23520794Y17542655D01*
X23520791Y17542658D01*
X23520788Y17542662D01*
X23342660Y17720790D01*
X23342655Y17720794D01*
X23342654Y17720795D01*
X23342649Y17720799D01*
X23138848Y17868868D01*
X23138847Y17868869D01*
X23138845Y17868870D01*
X23081554Y17898061D01*
X23029983Y17924338D01*
X22914383Y17983240D01*
X22838761Y18007811D01*
X22674787Y18061090D01*
X22425288Y18100607D01*
X22362153Y18130536D01*
X22325222Y18189848D01*
X22326220Y18259710D01*
X22364830Y18317943D01*
X22404209Y18340287D01*
X22840519Y18490928D01*
X22846132Y18492903D01*
X22846397Y18492998D01*
X22857583Y18497781D01*
X22867995Y18501689D01*
X22914379Y18516759D01*
X23138845Y18631130D01*
X23342656Y18779207D01*
X23520793Y18957344D01*
X23668870Y19161155D01*
X23783241Y19385621D01*
X23861090Y19625215D01*
X23900500Y19874038D01*
X23900500Y20125962D01*
X23861090Y20374785D01*
X23861089Y20374789D01*
X23861089Y20374790D01*
X23785853Y20606341D01*
X23785851Y20606346D01*
X23783241Y20614379D01*
X23783239Y20614382D01*
X23783239Y20614384D01*
X23780999Y20618780D01*
X23780689Y20619575D01*
X23779956Y20620827D01*
X23760379Y20659248D01*
X23741747Y20695817D01*
X23741747Y20695816D01*
X23668870Y20838845D01*
X23633991Y20886852D01*
X23520798Y21042650D01*
X23520794Y21042655D01*
X23520791Y21042658D01*
X23520788Y21042662D01*
X23342660Y21220790D01*
X23342655Y21220794D01*
X23342654Y21220795D01*
X23342649Y21220799D01*
X23232499Y21300827D01*
X23149445Y21361169D01*
X23149443Y21361170D01*
X23138848Y21368868D01*
X23138847Y21368869D01*
X23138845Y21368870D01*
X23124235Y21376314D01*
X23068747Y21404587D01*
X22914385Y21483239D01*
X22914384Y21483240D01*
X22914383Y21483240D01*
X22830487Y21510500D01*
X22674787Y21561090D01*
X22425289Y21600607D01*
X22362154Y21630536D01*
X22325223Y21689848D01*
X22326221Y21759710D01*
X22364831Y21817943D01*
X22404212Y21840288D01*
X22840519Y21990928D01*
X22846132Y21992903D01*
X22846397Y21992998D01*
X22857583Y21997781D01*
X22867995Y22001689D01*
X22914379Y22016759D01*
X23138845Y22131130D01*
X23342656Y22279207D01*
X23520793Y22457344D01*
X23668870Y22661155D01*
X23783241Y22885621D01*
X23861090Y23125215D01*
X23900500Y23374038D01*
X23900500Y23625962D01*
X23861090Y23874785D01*
X23861089Y23874789D01*
X23861089Y23874790D01*
X23785853Y24106341D01*
X23785851Y24106346D01*
X23783241Y24114379D01*
X23783239Y24114382D01*
X23783239Y24114384D01*
X23780999Y24118780D01*
X23780689Y24119575D01*
X23779956Y24120827D01*
X23760379Y24159248D01*
X23741747Y24195817D01*
X23741747Y24195816D01*
X23668870Y24338845D01*
X23599949Y24433707D01*
X23520798Y24542650D01*
X23520794Y24542655D01*
X23520791Y24542658D01*
X23520788Y24542662D01*
X23342660Y24720790D01*
X23342655Y24720794D01*
X23342654Y24720795D01*
X23342649Y24720799D01*
X23138848Y24868868D01*
X23138847Y24868869D01*
X23138845Y24868870D01*
X23081554Y24898061D01*
X23029983Y24924338D01*
X22914383Y24983240D01*
X22838761Y25007811D01*
X22674787Y25061090D01*
X22425289Y25100607D01*
X22362154Y25130536D01*
X22325223Y25189848D01*
X22326221Y25259710D01*
X22364831Y25317943D01*
X22404213Y25340288D01*
X22840519Y25490928D01*
X22846132Y25492903D01*
X22846397Y25492998D01*
X22857583Y25497781D01*
X22867995Y25501689D01*
X22914379Y25516759D01*
X23138845Y25631130D01*
X23342656Y25779207D01*
X23520793Y25957344D01*
X23668870Y26161155D01*
X23783241Y26385621D01*
X23861090Y26625215D01*
X23900500Y26874038D01*
X23900500Y27125962D01*
X23861090Y27374785D01*
X23861089Y27374789D01*
X23861089Y27374790D01*
X23785854Y27606337D01*
X23783241Y27614379D01*
X23783239Y27614382D01*
X23783239Y27614384D01*
X23780994Y27618790D01*
X23780685Y27619582D01*
X23779954Y27620831D01*
X23720588Y27737342D01*
X23668869Y27838846D01*
X23668864Y27838853D01*
X23616222Y27911309D01*
X23520798Y28042650D01*
X23520794Y28042655D01*
X23520791Y28042658D01*
X23520788Y28042662D01*
X23342660Y28220790D01*
X23342655Y28220794D01*
X23342654Y28220795D01*
X23342649Y28220799D01*
X23138848Y28368868D01*
X23138847Y28368869D01*
X23138845Y28368870D01*
X23092468Y28392500D01*
X23034436Y28422069D01*
X22914383Y28483240D01*
X22838761Y28507811D01*
X22674787Y28561090D01*
X22625557Y28568887D01*
X22425962Y28600500D01*
X22425961Y28600500D01*
X22174039Y28600500D01*
X22174038Y28600500D01*
X22091096Y28587364D01*
X21925212Y28561090D01*
X21925209Y28561090D01*
X21685619Y28483241D01*
X21685616Y28483240D01*
X21526425Y28402127D01*
X21461147Y28368866D01*
X21257367Y28220812D01*
X21257338Y28220790D01*
X21079210Y28042662D01*
X21079188Y28042633D01*
X20931134Y27838853D01*
X20816759Y27614382D01*
X20798992Y27559704D01*
X20791336Y27541320D01*
X20790931Y27540535D01*
X20790925Y27540519D01*
X20647794Y27125962D01*
X20244316Y25957351D01*
X20241842Y25950186D01*
X20212312Y25902973D01*
X16355889Y22046549D01*
X16355888Y22046548D01*
X16355886Y22046545D01*
X16283964Y21938906D01*
X16279225Y21931813D01*
X16226421Y21804334D01*
X16226416Y21804319D01*
X16226414Y21804312D01*
X16199500Y21669001D01*
X16199500Y14430151D01*
X16199499Y14430147D01*
X16199500Y14430145D01*
X16194475Y14395211D01*
X16187763Y14372356D01*
X16149986Y14313579D01*
X16143110Y14308038D01*
X16142457Y14307550D01*
X16142453Y14307546D01*
X16108014Y14261542D01*
X16104157Y14257931D01*
X16102923Y14255187D01*
X16076381Y14231923D01*
X16067405Y14226082D01*
X16000479Y14206016D01*
X15940342Y14221184D01*
X15933323Y14225017D01*
X15893490Y14259533D01*
X15879378Y14278383D01*
X15879376Y14278386D01*
X15864192Y14298669D01*
X15859707Y14305929D01*
X15848638Y14314215D01*
X15742335Y14393794D01*
X15742332Y14393796D01*
X15742330Y14393797D01*
X15742328Y14393798D01*
X15607482Y14444092D01*
X15607483Y14444092D01*
X15547883Y14450499D01*
X15547881Y14450500D01*
X15547873Y14450500D01*
X15547865Y14450500D01*
X15546841Y14450500D01*
X15409349Y14450500D01*
X15374413Y14455523D01*
X15349171Y14462935D01*
X15296426Y14494231D01*
X15246545Y14544112D01*
X15246543Y14544114D01*
X15221136Y14561090D01*
X15201763Y14574035D01*
X15131809Y14620777D01*
X15131810Y14620777D01*
X15004347Y14673574D01*
X15004336Y14673577D01*
X15004332Y14673579D01*
X15004322Y14673582D01*
X15004317Y14673584D01*
X14868998Y14700500D01*
X14868996Y14700500D01*
X14868994Y14700500D01*
X14868993Y14700500D01*
X13627930Y14700500D01*
X13592995Y14705523D01*
X13561186Y14714863D01*
X13527232Y14730737D01*
X13426549Y14798012D01*
X13426550Y14798012D01*
X13426548Y14798013D01*
X13262671Y14865893D01*
X13262653Y14865899D01*
X13262646Y14865901D01*
X13088698Y14900500D01*
X13088694Y14900500D01*
X13088691Y14900500D01*
X12911309Y14900500D01*
X12911306Y14900500D01*
X12911301Y14900500D01*
X12737352Y14865900D01*
X12737345Y14865899D01*
X12737322Y14865891D01*
X12573472Y14798023D01*
X12573454Y14798015D01*
X12573439Y14798006D01*
X12425962Y14699464D01*
X12425961Y14699463D01*
X12425955Y14699458D01*
X12300542Y14574045D01*
X12300537Y14574039D01*
X12300536Y14574038D01*
X12201994Y14426561D01*
X12201985Y14426546D01*
X12201977Y14426528D01*
X12134109Y14262678D01*
X12134101Y14262655D01*
X12134099Y14262648D01*
X12099500Y14088701D01*
X9000000Y14088701D01*
X9000000Y34088701D01*
X12099500Y34088701D01*
X12099500Y33911301D01*
X12134099Y33737354D01*
X12134101Y33737347D01*
X12134109Y33737324D01*
X12201984Y33573458D01*
X12203021Y33571273D01*
X12209343Y33555133D01*
X12215034Y33536953D01*
X12216280Y33467106D01*
X12212170Y33452123D01*
X12203107Y33429488D01*
X12203332Y33429381D01*
X12201977Y33426528D01*
X12134109Y33262678D01*
X12134101Y33262655D01*
X12134099Y33262648D01*
X12099500Y33088701D01*
X12099500Y32911301D01*
X12134099Y32737354D01*
X12134101Y32737347D01*
X12134109Y32737324D01*
X12189035Y32604720D01*
X12194089Y32592517D01*
X12201984Y32573458D01*
X12203021Y32571273D01*
X12209343Y32555133D01*
X12215034Y32536953D01*
X12216280Y32467106D01*
X12212170Y32452123D01*
X12203107Y32429488D01*
X12203332Y32429381D01*
X12201977Y32426528D01*
X12134109Y32262678D01*
X12134101Y32262655D01*
X12134099Y32262648D01*
X12099500Y32088701D01*
X12099500Y31911301D01*
X12134099Y31737354D01*
X12134101Y31737347D01*
X12134109Y31737324D01*
X12201984Y31573458D01*
X12203021Y31571273D01*
X12209343Y31555133D01*
X12215034Y31536953D01*
X12216280Y31467106D01*
X12212170Y31452123D01*
X12203107Y31429488D01*
X12203332Y31429381D01*
X12201977Y31426528D01*
X12134109Y31262678D01*
X12134101Y31262655D01*
X12134099Y31262648D01*
X12099500Y31088701D01*
X12099500Y30911301D01*
X12134099Y30737354D01*
X12134101Y30737347D01*
X12134109Y30737324D01*
X12201977Y30573474D01*
X12201985Y30573456D01*
X12201994Y30573441D01*
X12300536Y30425964D01*
X12300537Y30425963D01*
X12300542Y30425957D01*
X12425955Y30300544D01*
X12425961Y30300539D01*
X12425965Y30300536D01*
X12573446Y30201991D01*
X12573459Y30201984D01*
X12613235Y30185509D01*
X12692211Y30152796D01*
X12692220Y30152793D01*
X12696363Y30151077D01*
X12737334Y30134106D01*
X12757594Y30130076D01*
X12782635Y30125095D01*
X12815911Y30113356D01*
X12823886Y30109184D01*
X12834367Y30099071D01*
X12847616Y30093020D01*
X12859004Y30075299D01*
X12874165Y30060670D01*
X12877514Y30046495D01*
X12885389Y30034241D01*
X12885388Y30013175D01*
X12890233Y29992673D01*
X12885387Y29978938D01*
X12885387Y29964371D01*
X12873997Y29946650D01*
X12866989Y29926783D01*
X12854800Y29916781D01*
X12847611Y29905594D01*
X12817919Y29886513D01*
X12813259Y29884385D01*
X12785943Y29875564D01*
X12737353Y29865899D01*
X12737326Y29865893D01*
X12573472Y29798023D01*
X12573454Y29798015D01*
X12573439Y29798006D01*
X12425962Y29699464D01*
X12425961Y29699463D01*
X12425955Y29699458D01*
X12300542Y29574045D01*
X12300537Y29574039D01*
X12300536Y29574038D01*
X12201994Y29426561D01*
X12201985Y29426546D01*
X12201977Y29426528D01*
X12134109Y29262678D01*
X12134101Y29262655D01*
X12134099Y29262648D01*
X12099500Y29088701D01*
X12099500Y28911301D01*
X12134099Y28737354D01*
X12134101Y28737347D01*
X12134109Y28737324D01*
X12201984Y28573458D01*
X12203021Y28571273D01*
X12209343Y28555133D01*
X12215034Y28536953D01*
X12216280Y28467106D01*
X12212170Y28452123D01*
X12203107Y28429488D01*
X12203332Y28429381D01*
X12201977Y28426528D01*
X12134109Y28262678D01*
X12134101Y28262655D01*
X12134099Y28262648D01*
X12099500Y28088701D01*
X12099500Y27911301D01*
X12134099Y27737354D01*
X12134101Y27737347D01*
X12134103Y27737342D01*
X12134109Y27737324D01*
X12182362Y27620831D01*
X12194089Y27592517D01*
X12201984Y27573458D01*
X12203021Y27571273D01*
X12209343Y27555133D01*
X12215034Y27536953D01*
X12216280Y27467106D01*
X12212170Y27452123D01*
X12203107Y27429488D01*
X12203332Y27429381D01*
X12201977Y27426528D01*
X12134109Y27262678D01*
X12134101Y27262655D01*
X12134099Y27262648D01*
X12099500Y27088701D01*
X12099500Y26911301D01*
X12134099Y26737354D01*
X12134101Y26737347D01*
X12134109Y26737324D01*
X12201984Y26573458D01*
X12203021Y26571273D01*
X12209343Y26555133D01*
X12215034Y26536953D01*
X12216280Y26467106D01*
X12212170Y26452123D01*
X12203107Y26429488D01*
X12203332Y26429381D01*
X12201977Y26426528D01*
X12134109Y26262678D01*
X12134101Y26262655D01*
X12134099Y26262648D01*
X12099500Y26088701D01*
X12099500Y25911301D01*
X12134099Y25737354D01*
X12134101Y25737347D01*
X12134109Y25737324D01*
X12201977Y25573474D01*
X12201985Y25573456D01*
X12201994Y25573441D01*
X12300536Y25425964D01*
X12300537Y25425963D01*
X12300542Y25425957D01*
X12425955Y25300544D01*
X12425961Y25300539D01*
X12425965Y25300536D01*
X12573446Y25201991D01*
X12573459Y25201984D01*
X12602759Y25189848D01*
X12695144Y25151581D01*
X12695182Y25151566D01*
X12696363Y25151077D01*
X12737334Y25134106D01*
X12737336Y25134106D01*
X12737341Y25134104D01*
X12903680Y25101018D01*
X12906403Y25100296D01*
X12911306Y25099500D01*
X13088693Y25099500D01*
X13092814Y25099500D01*
X13100667Y25101883D01*
X13146682Y25111036D01*
X13146683Y25111036D01*
X13262653Y25134103D01*
X13262653Y25134104D01*
X13262658Y25134104D01*
X13262661Y25134106D01*
X13262666Y25134106D01*
X13265854Y25135427D01*
X13273835Y25138727D01*
X13273876Y25138749D01*
X13426540Y25201984D01*
X13426540Y25201985D01*
X13426547Y25201987D01*
X13526394Y25268705D01*
X13558220Y25283930D01*
X13589861Y25293837D01*
X13626908Y25299500D01*
X14868997Y25299500D01*
X14877947Y25301281D01*
X14960040Y25317611D01*
X15004328Y25326420D01*
X15068069Y25352823D01*
X15127771Y25377552D01*
X15131245Y25378848D01*
X15131804Y25379223D01*
X15131807Y25379223D01*
X15131808Y25379224D01*
X15131811Y25379225D01*
X15246543Y25455886D01*
X15282085Y25491429D01*
X15291238Y25500583D01*
X15319483Y25521725D01*
X15342578Y25534335D01*
X15402001Y25549501D01*
X15547871Y25549501D01*
X15547872Y25549501D01*
X15607483Y25555909D01*
X15742331Y25606204D01*
X15857546Y25692454D01*
X15943796Y25807669D01*
X15994091Y25942517D01*
X16000500Y26002127D01*
X16000499Y26597872D01*
X15994091Y26657483D01*
X15991302Y26664958D01*
X15991302Y26664962D01*
X15991300Y26664964D01*
X15983798Y26699447D01*
X15981792Y26727485D01*
X15989295Y26779663D01*
X15994091Y26792517D01*
X16000500Y26852127D01*
X16000499Y27347872D01*
X15994091Y27407483D01*
X15986978Y27426554D01*
X15981975Y27439966D01*
X15974475Y27474446D01*
X15972469Y27502485D01*
X15979972Y27554664D01*
X15986978Y27573447D01*
X15994091Y27592517D01*
X16000500Y27652127D01*
X16000499Y28147872D01*
X15994091Y28207483D01*
X15991302Y28214958D01*
X15991302Y28214962D01*
X15991300Y28214964D01*
X15983798Y28249447D01*
X15981792Y28277485D01*
X15989295Y28329663D01*
X15994091Y28342517D01*
X16000500Y28402127D01*
X16000499Y28997872D01*
X15994091Y29057483D01*
X15982451Y29088691D01*
X15982449Y29088696D01*
X15943797Y29192329D01*
X15943793Y29192336D01*
X15857547Y29307545D01*
X15857544Y29307548D01*
X15857542Y29307550D01*
X15799616Y29350914D01*
X15742335Y29393794D01*
X15742332Y29393796D01*
X15742330Y29393797D01*
X15742328Y29393798D01*
X15607482Y29444092D01*
X15607483Y29444092D01*
X15547883Y29450499D01*
X15547881Y29450500D01*
X15547873Y29450500D01*
X15547865Y29450500D01*
X15546841Y29450500D01*
X15409349Y29450500D01*
X15374413Y29455523D01*
X15349171Y29462935D01*
X15296425Y29494232D01*
X15246546Y29544112D01*
X15246543Y29544115D01*
X15206352Y29570969D01*
X15197832Y29581163D01*
X15131809Y29620777D01*
X15131802Y29620781D01*
X15004354Y29673571D01*
X15004340Y29673576D01*
X15004332Y29673579D01*
X15004322Y29673582D01*
X15004317Y29673584D01*
X14868998Y29700500D01*
X14868996Y29700500D01*
X14868994Y29700500D01*
X14868993Y29700500D01*
X13627930Y29700500D01*
X13592995Y29705523D01*
X13561186Y29714863D01*
X13527232Y29730737D01*
X13426549Y29798012D01*
X13426550Y29798012D01*
X13426548Y29798013D01*
X13344607Y29831954D01*
X13262667Y29865894D01*
X13262658Y29865897D01*
X13262656Y29865898D01*
X13262651Y29865899D01*
X13217368Y29874906D01*
X13215437Y29875916D01*
X13213262Y29875795D01*
X13184084Y29886647D01*
X13176114Y29890816D01*
X13163284Y29903196D01*
X13155457Y29907290D01*
X13146068Y29919808D01*
X13125835Y29939332D01*
X13109767Y30007329D01*
X13133011Y30073218D01*
X13182069Y30113483D01*
X13186736Y30115614D01*
X13194730Y30118196D01*
X13196785Y30119683D01*
X13199863Y30119854D01*
X13214048Y30124435D01*
X13262658Y30134104D01*
X13262661Y30134106D01*
X13262666Y30134106D01*
X13426547Y30201987D01*
X13526394Y30268705D01*
X13558220Y30283930D01*
X13589861Y30293837D01*
X13626908Y30299500D01*
X14868997Y30299500D01*
X14877947Y30301281D01*
X14960040Y30317611D01*
X15004328Y30326420D01*
X15068069Y30352823D01*
X15127771Y30377552D01*
X15131245Y30378848D01*
X15131804Y30379223D01*
X15131807Y30379223D01*
X15131808Y30379224D01*
X15131811Y30379225D01*
X15246543Y30455886D01*
X15282085Y30491429D01*
X15291238Y30500583D01*
X15319483Y30521725D01*
X15342578Y30534335D01*
X15402001Y30549501D01*
X15547871Y30549501D01*
X15547872Y30549501D01*
X15607483Y30555909D01*
X15742331Y30606204D01*
X15857546Y30692454D01*
X15943796Y30807669D01*
X15994091Y30942517D01*
X16000500Y31002127D01*
X16000499Y31597872D01*
X15994091Y31657483D01*
X15991302Y31664958D01*
X15991302Y31664962D01*
X15991300Y31664964D01*
X15983798Y31699447D01*
X15981792Y31727485D01*
X15989295Y31779663D01*
X15994091Y31792517D01*
X16000500Y31852127D01*
X16000499Y32347872D01*
X15994091Y32407483D01*
X15986978Y32426554D01*
X15981975Y32439966D01*
X15974475Y32474446D01*
X15972469Y32502485D01*
X15979972Y32554664D01*
X15986978Y32573447D01*
X15994091Y32592517D01*
X16000500Y32652127D01*
X16000499Y33147872D01*
X15994091Y33207483D01*
X15991302Y33214958D01*
X15991302Y33214962D01*
X15991300Y33214964D01*
X15983798Y33249447D01*
X15981792Y33277485D01*
X15989295Y33329663D01*
X15994091Y33342517D01*
X16000500Y33402127D01*
X16000499Y33997872D01*
X15994091Y34057483D01*
X15982451Y34088691D01*
X15982449Y34088696D01*
X15943797Y34192329D01*
X15943793Y34192336D01*
X15857547Y34307545D01*
X15857544Y34307548D01*
X15857542Y34307550D01*
X15799616Y34350914D01*
X15742335Y34393794D01*
X15742332Y34393796D01*
X15742330Y34393797D01*
X15742328Y34393798D01*
X15607482Y34444092D01*
X15607483Y34444092D01*
X15547883Y34450499D01*
X15547881Y34450500D01*
X15547873Y34450500D01*
X15547865Y34450500D01*
X15546841Y34450500D01*
X15409349Y34450500D01*
X15374413Y34455523D01*
X15349171Y34462935D01*
X15296425Y34494232D01*
X15246546Y34544112D01*
X15246543Y34544115D01*
X15206352Y34570969D01*
X15197832Y34581163D01*
X15131809Y34620777D01*
X15131802Y34620781D01*
X15004354Y34673571D01*
X15004340Y34673576D01*
X15004332Y34673579D01*
X15004322Y34673582D01*
X15004317Y34673584D01*
X14868998Y34700500D01*
X14868996Y34700500D01*
X14868994Y34700500D01*
X14868993Y34700500D01*
X13627930Y34700500D01*
X13592995Y34705523D01*
X13561186Y34714863D01*
X13527232Y34730737D01*
X13426549Y34798012D01*
X13426550Y34798012D01*
X13426548Y34798013D01*
X13262671Y34865893D01*
X13262653Y34865899D01*
X13262646Y34865901D01*
X13088698Y34900500D01*
X13088694Y34900500D01*
X13088691Y34900500D01*
X12911309Y34900500D01*
X12911306Y34900500D01*
X12911301Y34900500D01*
X12737352Y34865900D01*
X12737345Y34865899D01*
X12737322Y34865891D01*
X12573472Y34798023D01*
X12573454Y34798015D01*
X12573439Y34798006D01*
X12425962Y34699464D01*
X12425961Y34699463D01*
X12425955Y34699458D01*
X12300542Y34574045D01*
X12300537Y34574039D01*
X12300536Y34574038D01*
X12201994Y34426561D01*
X12201985Y34426546D01*
X12201977Y34426528D01*
X12134109Y34262678D01*
X12134101Y34262655D01*
X12134099Y34262648D01*
X12099500Y34088701D01*
X9000000Y34088701D01*
X9000000Y41858171D01*
X9005023Y41893107D01*
X9009427Y41908105D01*
X9047172Y41966856D01*
X9047200Y41966881D01*
X9047199Y41966881D01*
X9048541Y41968044D01*
X9103420Y41995523D01*
X9110979Y41997167D01*
X9137332Y42000000D01*
X17547530Y42000000D01*
X17557088Y41998626D01*
G37*
%TD.AperFunction*%
%TD*%
%TA.AperFunction,Conductor*%
%TO.N,/CH23_in*%
G36*
X20490266Y2992576D02*
G01*
X20207424Y2709734D01*
X20558579Y2358579D01*
X20700000Y2300000D01*
X21725252Y1562096D01*
X22304391Y2500000D01*
X21725252Y3437904D01*
X20700000Y2700000D01*
X20490266Y2992576D01*
G37*
%TD.AperFunction*%
%TD*%
%TA.AperFunction,Conductor*%
%TO.N,/CH23_in*%
G36*
X17185355Y5731802D02*
G01*
X17468198Y6014645D01*
X17300000Y6253554D01*
X16899293Y6300707D01*
X16796447Y6050000D01*
X17185355Y5731802D01*
G37*
%TD.AperFunction*%
%TD*%
%TA.AperFunction,Conductor*%
%TO.N,/CH22_in*%
G36*
X20659025Y7300000D02*
G01*
X20659025Y6900000D01*
X21058579Y6958579D01*
X21203391Y5913695D01*
X22303105Y5996895D01*
X22386305Y7096609D01*
X21341421Y7241421D01*
X21200000Y7300000D01*
X20659025Y7300000D01*
G37*
%TD.AperFunction*%
%TD*%
%TA.AperFunction,Conductor*%
%TO.N,/CH21_in*%
G36*
X20676052Y8158895D02*
G01*
X20958895Y7876052D01*
X22686874Y8472661D01*
X22303105Y9503105D01*
X21272659Y9886873D01*
X20676052Y8158895D01*
G37*
%TD.AperFunction*%
%TD*%
%TA.AperFunction,Conductor*%
%TO.N,/CH20_in*%
G36*
X20676052Y11658895D02*
G01*
X20958895Y11376052D01*
X22686874Y11972661D01*
X22303105Y13003105D01*
X21272659Y13386873D01*
X20676052Y11658895D01*
G37*
%TD.AperFunction*%
%TD*%
%TA.AperFunction,Conductor*%
%TO.N,/CH20_in*%
G36*
X17550000Y8500000D02*
G01*
X17550000Y8900000D01*
X17300000Y8950000D01*
X16899000Y8700000D01*
X17300000Y8450000D01*
X17550000Y8500000D01*
G37*
%TD.AperFunction*%
%TD*%
%TA.AperFunction,Conductor*%
%TO.N,/CH19_in*%
G36*
X21070683Y14904998D02*
G01*
X21353526Y14622155D01*
X23077817Y15722182D01*
X22697736Y16249208D01*
X21403714Y15862293D01*
X21070683Y14904998D01*
G37*
%TD.AperFunction*%
%TD*%
%TA.AperFunction,Conductor*%
%TO.N,/CH19_in*%
G36*
X17550000Y11100000D02*
G01*
X17550000Y11500000D01*
X17300000Y11550000D01*
X16899000Y11300000D01*
X17300000Y11050000D01*
X17550000Y11100000D01*
G37*
%TD.AperFunction*%
%TD*%
%TA.AperFunction,Conductor*%
%TO.N,/CH18_in*%
G36*
X20676052Y18658895D02*
G01*
X20958895Y18376052D01*
X22686874Y18972661D01*
X22303105Y20003105D01*
X21272659Y20386873D01*
X20676052Y18658895D01*
G37*
%TD.AperFunction*%
%TD*%
%TA.AperFunction,Conductor*%
%TO.N,/CH17_in*%
G36*
X20676052Y22158895D02*
G01*
X20958895Y21876052D01*
X22686874Y22472661D01*
X22303105Y23503105D01*
X21272659Y23886873D01*
X20676052Y22158895D01*
G37*
%TD.AperFunction*%
%TD*%
%TA.AperFunction,Conductor*%
%TO.N,/CH16_in*%
G36*
X20676052Y25658895D02*
G01*
X20958895Y25376052D01*
X22686874Y25972661D01*
X22303105Y27003105D01*
X21272659Y27386873D01*
X20676052Y25658895D01*
G37*
%TD.AperFunction*%
%TD*%
%TA.AperFunction,Conductor*%
%TO.N,/CH16_in*%
G36*
X17100000Y14200000D02*
G01*
X16700000Y14200000D01*
X16650000Y13950000D01*
X16900000Y13699000D01*
X17150000Y13950000D01*
X17100000Y14200000D01*
G37*
%TD.AperFunction*%
%TD*%
%TA.AperFunction,Conductor*%
%TO.N,/CH31_in*%
G36*
X22100000Y-29096609D02*
G01*
X22500000Y-29096609D01*
X23300000Y-27452877D01*
X22300000Y-26995609D01*
X21300000Y-27452877D01*
X22100000Y-29096609D01*
G37*
%TD.AperFunction*%
%TD*%
%TA.AperFunction,Conductor*%
%TO.N,/CH31_in*%
G36*
X17550000Y-33900000D02*
G01*
X17550000Y-33500000D01*
X17300000Y-33450000D01*
X16899000Y-33700000D01*
X17300000Y-33950000D01*
X17550000Y-33900000D01*
G37*
%TD.AperFunction*%
%TD*%
%TA.AperFunction,Conductor*%
%TO.N,/CH30_in*%
G36*
X20676052Y-24841105D02*
G01*
X20958895Y-25123948D01*
X22686874Y-24527339D01*
X22303105Y-23496895D01*
X21272659Y-23113127D01*
X20676052Y-24841105D01*
G37*
%TD.AperFunction*%
%TD*%
%TA.AperFunction,Conductor*%
%TO.N,/CH29_in*%
G36*
X20676052Y-21341105D02*
G01*
X20958895Y-21623948D01*
X22686874Y-21027339D01*
X22303105Y-19996895D01*
X21272659Y-19613127D01*
X20676052Y-21341105D01*
G37*
%TD.AperFunction*%
%TD*%
%TA.AperFunction,Conductor*%
%TO.N,/CH28_in*%
G36*
X20676052Y-17841105D02*
G01*
X20958895Y-18123948D01*
X22686874Y-17527339D01*
X22303105Y-16496895D01*
X21272659Y-16113127D01*
X20676052Y-17841105D01*
G37*
%TD.AperFunction*%
%TD*%
%TA.AperFunction,Conductor*%
%TO.N,/CH27_in*%
G36*
X17550000Y-28900000D02*
G01*
X17550000Y-28500000D01*
X17300000Y-28450000D01*
X16899000Y-28700000D01*
X17300000Y-28950000D01*
X17550000Y-28900000D01*
G37*
%TD.AperFunction*%
%TD*%
%TA.AperFunction,Conductor*%
%TO.N,/CH27_in*%
G36*
X20676052Y-14341105D02*
G01*
X20958895Y-14623948D01*
X22686874Y-14027339D01*
X22303105Y-12996895D01*
X21272659Y-12613127D01*
X20676052Y-14341105D01*
G37*
%TD.AperFunction*%
%TD*%
%TA.AperFunction,Conductor*%
%TO.N,/CH26_in*%
G36*
X20676052Y-10841105D02*
G01*
X20958895Y-11123948D01*
X22686874Y-10527339D01*
X22303105Y-9496895D01*
X21272659Y-9113127D01*
X20676052Y-10841105D01*
G37*
%TD.AperFunction*%
%TD*%
%TA.AperFunction,Conductor*%
%TO.N,/CH25_in*%
G36*
X20676052Y-7341105D02*
G01*
X20958895Y-7623948D01*
X22686874Y-7027339D01*
X22303105Y-5996895D01*
X21272659Y-5613127D01*
X20676052Y-7341105D01*
G37*
%TD.AperFunction*%
%TD*%
%TA.AperFunction,Conductor*%
%TO.N,/CH24_in*%
G36*
X20676052Y-3841105D02*
G01*
X20958895Y-4123948D01*
X22686874Y-3527339D01*
X22303105Y-2496895D01*
X21272659Y-2113127D01*
X20676052Y-3841105D01*
G37*
%TD.AperFunction*%
%TD*%
M02*
