%TF.GenerationSoftware,KiCad,Pcbnew,8.0.4-8.0.4-0~ubuntu22.04.1*%
%TF.CreationDate,2024-08-10T20:12:59+03:00*%
%TF.ProjectId,PM-CPU-RP,504d2d43-5055-42d5-9250-2e6b69636164,rev?*%
%TF.SameCoordinates,Original*%
%TF.FileFunction,Legend,Bot*%
%TF.FilePolarity,Positive*%
%FSLAX46Y46*%
G04 Gerber Fmt 4.6, Leading zero omitted, Abs format (unit mm)*
G04 Created by KiCad (PCBNEW 8.0.4-8.0.4-0~ubuntu22.04.1) date 2024-08-10 20:12:59*
%MOMM*%
%LPD*%
G01*
G04 APERTURE LIST*
%ADD10C,0.200000*%
%ADD11C,0.010000*%
%ADD12O,6.350000X6.350000*%
%ADD13R,1.700000X1.700000*%
%ADD14O,1.700000X1.700000*%
%ADD15C,6.000000*%
%ADD16C,3.200000*%
%ADD17R,3.500000X3.500000*%
%ADD18C,3.500000*%
G04 APERTURE END LIST*
D10*
G36*
X26944780Y-63284827D02*
G01*
X27015686Y-63320280D01*
X27082758Y-63387352D01*
X27117780Y-63492416D01*
X27117780Y-63614285D01*
X26317780Y-63614285D01*
X26317780Y-63492417D01*
X26352802Y-63387352D01*
X26419875Y-63320280D01*
X26490780Y-63284827D01*
X26658661Y-63242857D01*
X26776899Y-63242857D01*
X26944780Y-63284827D01*
G37*
G36*
X26901552Y-62523809D02*
G01*
X26603495Y-62623161D01*
X26603495Y-62424456D01*
X26901552Y-62523809D01*
G37*
G36*
X27428891Y-64925396D02*
G01*
X26006669Y-64925396D01*
X26006669Y-64333333D01*
X26117780Y-64333333D01*
X26117780Y-64571428D01*
X26118752Y-64581301D01*
X26118565Y-64583936D01*
X26119352Y-64587399D01*
X26119701Y-64590937D01*
X26120712Y-64593378D01*
X26122912Y-64603051D01*
X26170532Y-64745909D01*
X26178524Y-64763809D01*
X26204089Y-64793285D01*
X26238988Y-64810734D01*
X26277908Y-64813500D01*
X26314924Y-64801161D01*
X26344400Y-64775596D01*
X26361849Y-64740697D01*
X26364615Y-64701777D01*
X26360268Y-64682662D01*
X26317780Y-64555200D01*
X26317780Y-64356939D01*
X26347583Y-64297332D01*
X26372254Y-64272661D01*
X26431864Y-64242857D01*
X26479888Y-64242857D01*
X26539497Y-64272662D01*
X26564166Y-64297330D01*
X26599619Y-64368237D01*
X26644576Y-64548062D01*
X26645089Y-64549499D01*
X26645141Y-64550222D01*
X26648249Y-64558346D01*
X26651171Y-64566523D01*
X26651601Y-64567103D01*
X26652147Y-64568530D01*
X26699766Y-64663768D01*
X26705051Y-64672164D01*
X26706062Y-64674604D01*
X26708315Y-64677350D01*
X26710209Y-64680358D01*
X26712203Y-64682087D01*
X26718498Y-64689758D01*
X26766117Y-64737376D01*
X26773783Y-64743668D01*
X26775516Y-64745666D01*
X26778524Y-64747559D01*
X26781270Y-64749813D01*
X26783710Y-64750823D01*
X26792107Y-64756109D01*
X26887344Y-64803728D01*
X26905653Y-64810734D01*
X26909236Y-64810988D01*
X26912557Y-64812364D01*
X26932066Y-64814285D01*
X27027304Y-64814285D01*
X27046813Y-64812364D01*
X27050133Y-64810988D01*
X27053717Y-64810734D01*
X27072025Y-64803728D01*
X27167263Y-64756109D01*
X27175659Y-64750823D01*
X27178099Y-64749813D01*
X27180845Y-64747559D01*
X27183853Y-64745666D01*
X27185582Y-64743671D01*
X27193253Y-64737377D01*
X27240871Y-64689758D01*
X27247163Y-64682091D01*
X27249161Y-64680359D01*
X27251054Y-64677350D01*
X27253308Y-64674605D01*
X27254318Y-64672164D01*
X27259604Y-64663768D01*
X27307223Y-64568531D01*
X27314229Y-64550222D01*
X27314483Y-64546638D01*
X27315859Y-64543318D01*
X27317780Y-64523809D01*
X27317780Y-64285714D01*
X27316807Y-64275840D01*
X27316995Y-64273206D01*
X27316207Y-64269742D01*
X27315859Y-64266205D01*
X27314847Y-64263763D01*
X27312648Y-64254091D01*
X27265029Y-64111234D01*
X27257038Y-64093334D01*
X27231473Y-64063858D01*
X27196574Y-64046408D01*
X27157654Y-64043642D01*
X27120638Y-64055980D01*
X27091162Y-64081545D01*
X27073712Y-64116444D01*
X27070946Y-64155364D01*
X27075293Y-64174480D01*
X27117780Y-64301940D01*
X27117780Y-64500202D01*
X27087975Y-64559811D01*
X27063306Y-64584479D01*
X27003697Y-64614285D01*
X26955673Y-64614285D01*
X26896063Y-64584480D01*
X26871395Y-64559811D01*
X26835941Y-64488904D01*
X26790985Y-64309079D01*
X26790471Y-64307640D01*
X26790420Y-64306920D01*
X26787311Y-64298795D01*
X26784390Y-64290619D01*
X26783960Y-64290039D01*
X26783414Y-64288611D01*
X26735795Y-64193374D01*
X26730509Y-64184977D01*
X26729499Y-64182537D01*
X26727245Y-64179791D01*
X26725352Y-64176783D01*
X26723354Y-64175050D01*
X26717062Y-64167384D01*
X26669444Y-64119765D01*
X26661773Y-64113470D01*
X26660044Y-64111476D01*
X26657036Y-64109582D01*
X26654290Y-64107329D01*
X26651850Y-64106318D01*
X26643454Y-64101033D01*
X26548216Y-64053414D01*
X26529908Y-64046408D01*
X26526324Y-64046153D01*
X26523004Y-64044778D01*
X26503495Y-64042857D01*
X26408257Y-64042857D01*
X26388748Y-64044778D01*
X26385427Y-64046153D01*
X26381844Y-64046408D01*
X26363535Y-64053414D01*
X26268298Y-64101033D01*
X26259901Y-64106318D01*
X26257461Y-64107329D01*
X26254715Y-64109582D01*
X26251707Y-64111476D01*
X26249974Y-64113473D01*
X26242308Y-64119766D01*
X26194689Y-64167384D01*
X26188397Y-64175050D01*
X26186401Y-64176782D01*
X26184506Y-64179792D01*
X26182253Y-64182538D01*
X26181242Y-64184977D01*
X26175958Y-64193373D01*
X26128338Y-64288611D01*
X26121331Y-64306919D01*
X26121076Y-64310504D01*
X26119701Y-64313824D01*
X26117780Y-64333333D01*
X26006669Y-64333333D01*
X26006669Y-63476190D01*
X26117780Y-63476190D01*
X26117780Y-63714285D01*
X26119701Y-63733794D01*
X26134633Y-63769842D01*
X26162223Y-63797432D01*
X26198271Y-63812364D01*
X26217780Y-63814285D01*
X27217780Y-63814285D01*
X27237289Y-63812364D01*
X27273337Y-63797432D01*
X27300927Y-63769842D01*
X27315859Y-63733794D01*
X27317780Y-63714285D01*
X27317780Y-63476190D01*
X27316807Y-63466316D01*
X27316995Y-63463682D01*
X27316207Y-63460218D01*
X27315859Y-63456681D01*
X27314847Y-63454239D01*
X27312648Y-63444567D01*
X27265029Y-63301710D01*
X27257038Y-63283810D01*
X27254682Y-63281094D01*
X27253308Y-63277776D01*
X27240872Y-63262622D01*
X27145634Y-63167384D01*
X27137963Y-63161089D01*
X27136234Y-63159095D01*
X27133226Y-63157201D01*
X27130480Y-63154948D01*
X27128040Y-63153937D01*
X27119644Y-63148652D01*
X27024406Y-63101033D01*
X27022979Y-63100487D01*
X27022399Y-63100057D01*
X27014222Y-63097135D01*
X27006098Y-63094027D01*
X27005375Y-63093975D01*
X27003938Y-63093462D01*
X26813463Y-63045843D01*
X26810081Y-63045342D01*
X26808718Y-63044778D01*
X26801367Y-63044054D01*
X26794070Y-63042975D01*
X26792611Y-63043192D01*
X26789209Y-63042857D01*
X26646352Y-63042857D01*
X26642949Y-63043192D01*
X26641491Y-63042975D01*
X26634193Y-63044054D01*
X26626843Y-63044778D01*
X26625479Y-63045342D01*
X26622098Y-63045843D01*
X26431622Y-63093462D01*
X26430183Y-63093975D01*
X26429463Y-63094027D01*
X26421338Y-63097135D01*
X26413162Y-63100057D01*
X26412582Y-63100486D01*
X26411154Y-63101033D01*
X26315917Y-63148652D01*
X26307518Y-63153938D01*
X26305081Y-63154948D01*
X26302337Y-63157199D01*
X26299326Y-63159095D01*
X26297593Y-63161092D01*
X26289927Y-63167384D01*
X26194689Y-63262622D01*
X26182253Y-63277776D01*
X26180878Y-63281094D01*
X26178524Y-63283809D01*
X26170532Y-63301709D01*
X26122912Y-63444567D01*
X26120712Y-63454239D01*
X26119701Y-63456681D01*
X26119352Y-63460218D01*
X26118565Y-63463682D01*
X26118752Y-63466316D01*
X26117780Y-63476190D01*
X26006669Y-63476190D01*
X26006669Y-62177969D01*
X26118565Y-62177969D01*
X26121331Y-62216889D01*
X26138781Y-62251788D01*
X26168257Y-62277353D01*
X26186157Y-62285344D01*
X26403495Y-62357789D01*
X26403495Y-62689828D01*
X26186157Y-62762274D01*
X26168257Y-62770265D01*
X26138781Y-62795830D01*
X26121331Y-62830729D01*
X26118565Y-62869649D01*
X26130903Y-62906665D01*
X26156468Y-62936141D01*
X26191367Y-62953591D01*
X26230287Y-62956357D01*
X26249403Y-62952010D01*
X27249402Y-62618677D01*
X27267303Y-62610686D01*
X27272704Y-62606001D01*
X27279091Y-62602808D01*
X27287303Y-62593339D01*
X27296779Y-62585121D01*
X27299974Y-62578729D01*
X27304656Y-62573332D01*
X27308622Y-62561434D01*
X27314228Y-62550222D01*
X27314734Y-62543097D01*
X27316995Y-62536316D01*
X27316105Y-62523809D01*
X27316995Y-62511302D01*
X27314734Y-62504520D01*
X27314228Y-62497396D01*
X27308622Y-62486183D01*
X27304656Y-62474286D01*
X27299974Y-62468888D01*
X27296779Y-62462497D01*
X27287303Y-62454278D01*
X27279091Y-62444810D01*
X27272704Y-62441616D01*
X27267303Y-62436932D01*
X27249402Y-62428941D01*
X26249403Y-62095608D01*
X26230287Y-62091261D01*
X26191367Y-62094027D01*
X26156468Y-62111477D01*
X26130903Y-62140953D01*
X26118565Y-62177969D01*
X26006669Y-62177969D01*
X26006669Y-61980150D01*
X27428891Y-61980150D01*
X27428891Y-64925396D01*
G37*
G36*
X27428891Y-69981586D02*
G01*
X26006669Y-69981586D01*
X26006669Y-69389523D01*
X26117780Y-69389523D01*
X26117780Y-69627618D01*
X26118752Y-69637491D01*
X26118565Y-69640126D01*
X26119352Y-69643589D01*
X26119701Y-69647127D01*
X26120712Y-69649568D01*
X26122912Y-69659241D01*
X26170532Y-69802099D01*
X26178524Y-69819999D01*
X26204089Y-69849475D01*
X26238988Y-69866924D01*
X26277908Y-69869690D01*
X26314924Y-69857351D01*
X26344400Y-69831786D01*
X26361849Y-69796887D01*
X26364615Y-69757967D01*
X26360268Y-69738852D01*
X26317780Y-69611390D01*
X26317780Y-69413129D01*
X26347583Y-69353522D01*
X26372254Y-69328851D01*
X26431864Y-69299047D01*
X26479888Y-69299047D01*
X26539497Y-69328852D01*
X26564166Y-69353520D01*
X26599619Y-69424427D01*
X26644576Y-69604252D01*
X26645089Y-69605689D01*
X26645141Y-69606412D01*
X26648249Y-69614536D01*
X26651171Y-69622713D01*
X26651601Y-69623293D01*
X26652147Y-69624720D01*
X26699766Y-69719958D01*
X26705051Y-69728354D01*
X26706062Y-69730794D01*
X26708315Y-69733540D01*
X26710209Y-69736548D01*
X26712203Y-69738277D01*
X26718498Y-69745948D01*
X26766117Y-69793566D01*
X26773783Y-69799858D01*
X26775516Y-69801856D01*
X26778524Y-69803749D01*
X26781270Y-69806003D01*
X26783710Y-69807013D01*
X26792107Y-69812299D01*
X26887344Y-69859918D01*
X26905653Y-69866924D01*
X26909236Y-69867178D01*
X26912557Y-69868554D01*
X26932066Y-69870475D01*
X27027304Y-69870475D01*
X27046813Y-69868554D01*
X27050133Y-69867178D01*
X27053717Y-69866924D01*
X27072025Y-69859918D01*
X27167263Y-69812299D01*
X27175659Y-69807013D01*
X27178099Y-69806003D01*
X27180845Y-69803749D01*
X27183853Y-69801856D01*
X27185582Y-69799861D01*
X27193253Y-69793567D01*
X27240871Y-69745948D01*
X27247163Y-69738281D01*
X27249161Y-69736549D01*
X27251054Y-69733540D01*
X27253308Y-69730795D01*
X27254318Y-69728354D01*
X27259604Y-69719958D01*
X27307223Y-69624721D01*
X27314229Y-69606412D01*
X27314483Y-69602828D01*
X27315859Y-69599508D01*
X27317780Y-69579999D01*
X27317780Y-69341904D01*
X27316807Y-69332030D01*
X27316995Y-69329396D01*
X27316207Y-69325932D01*
X27315859Y-69322395D01*
X27314847Y-69319953D01*
X27312648Y-69310281D01*
X27265029Y-69167424D01*
X27257038Y-69149524D01*
X27231473Y-69120048D01*
X27196574Y-69102598D01*
X27157654Y-69099832D01*
X27120638Y-69112170D01*
X27091162Y-69137735D01*
X27073712Y-69172634D01*
X27070946Y-69211554D01*
X27075293Y-69230670D01*
X27117780Y-69358130D01*
X27117780Y-69556392D01*
X27087975Y-69616001D01*
X27063306Y-69640669D01*
X27003697Y-69670475D01*
X26955673Y-69670475D01*
X26896063Y-69640670D01*
X26871395Y-69616001D01*
X26835941Y-69545094D01*
X26790985Y-69365269D01*
X26790471Y-69363830D01*
X26790420Y-69363110D01*
X26787311Y-69354985D01*
X26784390Y-69346809D01*
X26783960Y-69346229D01*
X26783414Y-69344801D01*
X26735795Y-69249564D01*
X26730509Y-69241167D01*
X26729499Y-69238727D01*
X26727245Y-69235981D01*
X26725352Y-69232973D01*
X26723354Y-69231240D01*
X26717062Y-69223574D01*
X26669444Y-69175955D01*
X26661773Y-69169660D01*
X26660044Y-69167666D01*
X26657036Y-69165772D01*
X26654290Y-69163519D01*
X26651850Y-69162508D01*
X26643454Y-69157223D01*
X26548216Y-69109604D01*
X26529908Y-69102598D01*
X26526324Y-69102343D01*
X26523004Y-69100968D01*
X26503495Y-69099047D01*
X26408257Y-69099047D01*
X26388748Y-69100968D01*
X26385427Y-69102343D01*
X26381844Y-69102598D01*
X26363535Y-69109604D01*
X26268298Y-69157223D01*
X26259901Y-69162508D01*
X26257461Y-69163519D01*
X26254715Y-69165772D01*
X26251707Y-69167666D01*
X26249974Y-69169663D01*
X26242308Y-69175956D01*
X26194689Y-69223574D01*
X26188397Y-69231240D01*
X26186401Y-69232972D01*
X26184506Y-69235982D01*
X26182253Y-69238728D01*
X26181242Y-69241167D01*
X26175958Y-69249563D01*
X26128338Y-69344801D01*
X26121331Y-69363109D01*
X26121076Y-69366694D01*
X26119701Y-69370014D01*
X26117780Y-69389523D01*
X26006669Y-69389523D01*
X26006669Y-68389523D01*
X26117780Y-68389523D01*
X26117780Y-68484761D01*
X26118752Y-68494634D01*
X26118565Y-68497269D01*
X26119352Y-68500732D01*
X26119701Y-68504270D01*
X26120712Y-68506711D01*
X26122912Y-68516384D01*
X26170532Y-68659242D01*
X26178524Y-68677142D01*
X26180878Y-68679856D01*
X26182253Y-68683175D01*
X26194689Y-68698329D01*
X26289927Y-68793567D01*
X26297593Y-68799858D01*
X26299326Y-68801856D01*
X26302337Y-68803751D01*
X26305081Y-68806003D01*
X26307518Y-68807012D01*
X26315917Y-68812299D01*
X26411154Y-68859918D01*
X26412582Y-68860464D01*
X26413162Y-68860894D01*
X26421338Y-68863815D01*
X26429463Y-68866924D01*
X26430183Y-68866975D01*
X26431622Y-68867489D01*
X26622098Y-68915108D01*
X26625479Y-68915608D01*
X26626843Y-68916173D01*
X26634193Y-68916896D01*
X26641491Y-68917976D01*
X26642949Y-68917758D01*
X26646352Y-68918094D01*
X26789209Y-68918094D01*
X26792611Y-68917758D01*
X26794070Y-68917976D01*
X26801367Y-68916896D01*
X26808718Y-68916173D01*
X26810081Y-68915608D01*
X26813463Y-68915108D01*
X27003938Y-68867489D01*
X27005375Y-68866975D01*
X27006098Y-68866924D01*
X27014222Y-68863815D01*
X27022399Y-68860894D01*
X27022979Y-68860463D01*
X27024406Y-68859918D01*
X27119644Y-68812299D01*
X27128040Y-68807013D01*
X27130480Y-68806003D01*
X27133226Y-68803749D01*
X27136234Y-68801856D01*
X27137963Y-68799861D01*
X27145634Y-68793567D01*
X27240872Y-68698329D01*
X27253308Y-68683175D01*
X27254682Y-68679856D01*
X27257038Y-68677141D01*
X27265029Y-68659241D01*
X27312648Y-68516384D01*
X27314847Y-68506711D01*
X27315859Y-68504270D01*
X27316207Y-68500732D01*
X27316995Y-68497269D01*
X27316807Y-68494634D01*
X27317780Y-68484761D01*
X27317780Y-68389523D01*
X27316807Y-68379649D01*
X27316995Y-68377015D01*
X27316207Y-68373551D01*
X27315859Y-68370014D01*
X27314847Y-68367572D01*
X27312648Y-68357900D01*
X27265029Y-68215043D01*
X27257038Y-68197143D01*
X27254682Y-68194427D01*
X27253308Y-68191108D01*
X27240871Y-68175955D01*
X27193253Y-68128336D01*
X27178099Y-68115900D01*
X27142051Y-68100968D01*
X27103033Y-68100968D01*
X27066985Y-68115900D01*
X27039395Y-68143490D01*
X27024463Y-68179538D01*
X27024463Y-68218556D01*
X27039395Y-68254604D01*
X27051831Y-68269758D01*
X27082758Y-68300684D01*
X27117780Y-68405749D01*
X27117780Y-68468534D01*
X27082758Y-68573598D01*
X27015686Y-68640670D01*
X26944780Y-68676123D01*
X26776899Y-68718094D01*
X26658661Y-68718094D01*
X26490780Y-68676123D01*
X26419875Y-68640671D01*
X26352802Y-68573598D01*
X26317780Y-68468533D01*
X26317780Y-68405750D01*
X26352802Y-68300685D01*
X26383729Y-68269758D01*
X26396166Y-68254605D01*
X26411097Y-68218556D01*
X26411097Y-68179538D01*
X26396166Y-68143490D01*
X26368576Y-68115900D01*
X26332528Y-68100969D01*
X26293510Y-68100969D01*
X26257461Y-68115900D01*
X26242308Y-68128337D01*
X26194689Y-68175955D01*
X26182253Y-68191109D01*
X26180878Y-68194427D01*
X26178524Y-68197142D01*
X26170532Y-68215042D01*
X26122912Y-68357900D01*
X26120712Y-68367572D01*
X26119701Y-68370014D01*
X26119352Y-68373551D01*
X26118565Y-68377015D01*
X26118752Y-68379649D01*
X26117780Y-68389523D01*
X26006669Y-68389523D01*
X26006669Y-67294285D01*
X26117780Y-67294285D01*
X26117780Y-67770475D01*
X26119701Y-67789984D01*
X26134633Y-67826032D01*
X26162223Y-67853622D01*
X26198271Y-67868554D01*
X26217780Y-67870475D01*
X27217780Y-67870475D01*
X27237289Y-67868554D01*
X27273337Y-67853622D01*
X27300927Y-67826032D01*
X27315859Y-67789984D01*
X27315859Y-67750966D01*
X27300927Y-67714918D01*
X27273337Y-67687328D01*
X27237289Y-67672396D01*
X27217780Y-67670475D01*
X26317780Y-67670475D01*
X26317780Y-67294285D01*
X26315859Y-67274776D01*
X26300927Y-67238728D01*
X26273337Y-67211138D01*
X26237289Y-67196206D01*
X26198271Y-67196206D01*
X26162223Y-67211138D01*
X26134633Y-67238728D01*
X26119701Y-67274776D01*
X26117780Y-67294285D01*
X26006669Y-67294285D01*
X26006669Y-67085095D01*
X27428891Y-67085095D01*
X27428891Y-69981586D01*
G37*
D11*
%TO.C,kicad_logo*%
X118359353Y-121517673D02*
X118374123Y-121541386D01*
X118380933Y-121564400D01*
X118375051Y-121585406D01*
X118359353Y-121611127D01*
X118337773Y-121637778D01*
X117690316Y-121637778D01*
X117668736Y-121611127D01*
X117651261Y-121579767D01*
X117650425Y-121543966D01*
X117670918Y-121512528D01*
X117675584Y-121508652D01*
X117685051Y-121503186D01*
X117698733Y-121498979D01*
X117719252Y-121495867D01*
X117749232Y-121493687D01*
X117791296Y-121492276D01*
X117848068Y-121491471D01*
X117922170Y-121491107D01*
X118016227Y-121491022D01*
X118337773Y-121491022D01*
X118359353Y-121517673D01*
G36*
X118359353Y-121517673D02*
G01*
X118374123Y-121541386D01*
X118380933Y-121564400D01*
X118375051Y-121585406D01*
X118359353Y-121611127D01*
X118337773Y-121637778D01*
X117690316Y-121637778D01*
X117668736Y-121611127D01*
X117651261Y-121579767D01*
X117650425Y-121543966D01*
X117670918Y-121512528D01*
X117675584Y-121508652D01*
X117685051Y-121503186D01*
X117698733Y-121498979D01*
X117719252Y-121495867D01*
X117749232Y-121493687D01*
X117791296Y-121492276D01*
X117848068Y-121491471D01*
X117922170Y-121491107D01*
X118016227Y-121491022D01*
X118337773Y-121491022D01*
X118359353Y-121517673D01*
G37*
X118089706Y-128631284D02*
X118167615Y-128631539D01*
X118227625Y-128632183D01*
X118272352Y-128633387D01*
X118304415Y-128635324D01*
X118326429Y-128638164D01*
X118341013Y-128642079D01*
X118350782Y-128647242D01*
X118358355Y-128653822D01*
X118377377Y-128683006D01*
X118376537Y-128716137D01*
X118353224Y-128750291D01*
X118325515Y-128778000D01*
X118012463Y-128778000D01*
X117928433Y-128777959D01*
X117854211Y-128777701D01*
X117797459Y-128777030D01*
X117755488Y-128775752D01*
X117725611Y-128773673D01*
X117705139Y-128770599D01*
X117691386Y-128766334D01*
X117681663Y-128760684D01*
X117673283Y-128753455D01*
X117651819Y-128721991D01*
X117650053Y-128686826D01*
X117669733Y-128653822D01*
X117675602Y-128648516D01*
X117684686Y-128643066D01*
X117698027Y-128638900D01*
X117718243Y-128635846D01*
X117747951Y-128633732D01*
X117789768Y-128632386D01*
X117846311Y-128631638D01*
X117920198Y-128631314D01*
X118014044Y-128631245D01*
X118089706Y-128631284D01*
G36*
X118089706Y-128631284D02*
G01*
X118167615Y-128631539D01*
X118227625Y-128632183D01*
X118272352Y-128633387D01*
X118304415Y-128635324D01*
X118326429Y-128638164D01*
X118341013Y-128642079D01*
X118350782Y-128647242D01*
X118358355Y-128653822D01*
X118377377Y-128683006D01*
X118376537Y-128716137D01*
X118353224Y-128750291D01*
X118325515Y-128778000D01*
X118012463Y-128778000D01*
X117928433Y-128777959D01*
X117854211Y-128777701D01*
X117797459Y-128777030D01*
X117755488Y-128775752D01*
X117725611Y-128773673D01*
X117705139Y-128770599D01*
X117691386Y-128766334D01*
X117681663Y-128760684D01*
X117673283Y-128753455D01*
X117651819Y-128721991D01*
X117650053Y-128686826D01*
X117669733Y-128653822D01*
X117675602Y-128648516D01*
X117684686Y-128643066D01*
X117698027Y-128638900D01*
X117718243Y-128635846D01*
X117747951Y-128633732D01*
X117789768Y-128632386D01*
X117846311Y-128631638D01*
X117920198Y-128631314D01*
X118014044Y-128631245D01*
X118089706Y-128631284D01*
G37*
X123236470Y-127613136D02*
X123332780Y-127639399D01*
X123421506Y-127684418D01*
X123496581Y-127745373D01*
X123556359Y-127820184D01*
X123599191Y-127906768D01*
X123623429Y-128003043D01*
X123627424Y-128106928D01*
X123617150Y-128184562D01*
X123589947Y-128267313D01*
X123544516Y-128342406D01*
X123478698Y-128414298D01*
X123434433Y-128452846D01*
X123376039Y-128492256D01*
X123315414Y-128517446D01*
X123246135Y-128530861D01*
X123161778Y-128534948D01*
X123115693Y-128534669D01*
X123074550Y-128532460D01*
X123042418Y-128526894D01*
X123011878Y-128516586D01*
X122975511Y-128500148D01*
X122948272Y-128486200D01*
X122862571Y-128427665D01*
X122793383Y-128355619D01*
X122742259Y-128271947D01*
X122710750Y-128178531D01*
X122703775Y-128145434D01*
X122696906Y-128104960D01*
X122695081Y-128071999D01*
X122698053Y-128037698D01*
X122705574Y-127993200D01*
X122717998Y-127941934D01*
X122755888Y-127851434D01*
X122810164Y-127772345D01*
X122878230Y-127706528D01*
X122957489Y-127655840D01*
X123045346Y-127622140D01*
X123139205Y-127607286D01*
X123236470Y-127613136D01*
G36*
X123236470Y-127613136D02*
G01*
X123332780Y-127639399D01*
X123421506Y-127684418D01*
X123496581Y-127745373D01*
X123556359Y-127820184D01*
X123599191Y-127906768D01*
X123623429Y-128003043D01*
X123627424Y-128106928D01*
X123617150Y-128184562D01*
X123589947Y-128267313D01*
X123544516Y-128342406D01*
X123478698Y-128414298D01*
X123434433Y-128452846D01*
X123376039Y-128492256D01*
X123315414Y-128517446D01*
X123246135Y-128530861D01*
X123161778Y-128534948D01*
X123115693Y-128534669D01*
X123074550Y-128532460D01*
X123042418Y-128526894D01*
X123011878Y-128516586D01*
X122975511Y-128500148D01*
X122948272Y-128486200D01*
X122862571Y-128427665D01*
X122793383Y-128355619D01*
X122742259Y-128271947D01*
X122710750Y-128178531D01*
X122703775Y-128145434D01*
X122696906Y-128104960D01*
X122695081Y-128071999D01*
X122698053Y-128037698D01*
X122705574Y-127993200D01*
X122717998Y-127941934D01*
X122755888Y-127851434D01*
X122810164Y-127772345D01*
X122878230Y-127706528D01*
X122957489Y-127655840D01*
X123045346Y-127622140D01*
X123139205Y-127607286D01*
X123236470Y-127613136D01*
G37*
X118328642Y-120468543D02*
X118361178Y-120494187D01*
X118364895Y-120499129D01*
X118369731Y-120509338D01*
X118373494Y-120524764D01*
X118376317Y-120547886D01*
X118378330Y-120581183D01*
X118379667Y-120627137D01*
X118380458Y-120688228D01*
X118380837Y-120766935D01*
X118380933Y-120865740D01*
X118380932Y-120885767D01*
X118380842Y-120979890D01*
X118380502Y-121054405D01*
X118379761Y-121111811D01*
X118378465Y-121154611D01*
X118376463Y-121185304D01*
X118373604Y-121206391D01*
X118369734Y-121220373D01*
X118364702Y-121229750D01*
X118358355Y-121237022D01*
X118325638Y-121255828D01*
X118288061Y-121257275D01*
X118254822Y-121240917D01*
X118253369Y-121239557D01*
X118245008Y-121228354D01*
X118239453Y-121211252D01*
X118236160Y-121184082D01*
X118234582Y-121142678D01*
X118234178Y-121082873D01*
X118234178Y-120943511D01*
X117970411Y-120943511D01*
X117894583Y-120943436D01*
X117827917Y-120943028D01*
X117778133Y-120942046D01*
X117742216Y-120940250D01*
X117717150Y-120937399D01*
X117699919Y-120933253D01*
X117687508Y-120927571D01*
X117676900Y-120920114D01*
X117674094Y-120917824D01*
X117651452Y-120886646D01*
X117649888Y-120852266D01*
X117669733Y-120819334D01*
X117677809Y-120812355D01*
X117688407Y-120806883D01*
X117704251Y-120802863D01*
X117728227Y-120800072D01*
X117763226Y-120798288D01*
X117812136Y-120797289D01*
X117877846Y-120796852D01*
X117963244Y-120796756D01*
X118234178Y-120796756D01*
X118234178Y-120650820D01*
X118234179Y-120639720D01*
X118234404Y-120583202D01*
X118235543Y-120544358D01*
X118238343Y-120518965D01*
X118243550Y-120502804D01*
X118251911Y-120491652D01*
X118264174Y-120481289D01*
X118294862Y-120465441D01*
X118328642Y-120468543D01*
G36*
X118328642Y-120468543D02*
G01*
X118361178Y-120494187D01*
X118364895Y-120499129D01*
X118369731Y-120509338D01*
X118373494Y-120524764D01*
X118376317Y-120547886D01*
X118378330Y-120581183D01*
X118379667Y-120627137D01*
X118380458Y-120688228D01*
X118380837Y-120766935D01*
X118380933Y-120865740D01*
X118380932Y-120885767D01*
X118380842Y-120979890D01*
X118380502Y-121054405D01*
X118379761Y-121111811D01*
X118378465Y-121154611D01*
X118376463Y-121185304D01*
X118373604Y-121206391D01*
X118369734Y-121220373D01*
X118364702Y-121229750D01*
X118358355Y-121237022D01*
X118325638Y-121255828D01*
X118288061Y-121257275D01*
X118254822Y-121240917D01*
X118253369Y-121239557D01*
X118245008Y-121228354D01*
X118239453Y-121211252D01*
X118236160Y-121184082D01*
X118234582Y-121142678D01*
X118234178Y-121082873D01*
X118234178Y-120943511D01*
X117970411Y-120943511D01*
X117894583Y-120943436D01*
X117827917Y-120943028D01*
X117778133Y-120942046D01*
X117742216Y-120940250D01*
X117717150Y-120937399D01*
X117699919Y-120933253D01*
X117687508Y-120927571D01*
X117676900Y-120920114D01*
X117674094Y-120917824D01*
X117651452Y-120886646D01*
X117649888Y-120852266D01*
X117669733Y-120819334D01*
X117677809Y-120812355D01*
X117688407Y-120806883D01*
X117704251Y-120802863D01*
X117728227Y-120800072D01*
X117763226Y-120798288D01*
X117812136Y-120797289D01*
X117877846Y-120796852D01*
X117963244Y-120796756D01*
X118234178Y-120796756D01*
X118234178Y-120650820D01*
X118234179Y-120639720D01*
X118234404Y-120583202D01*
X118235543Y-120544358D01*
X118238343Y-120518965D01*
X118243550Y-120502804D01*
X118251911Y-120491652D01*
X118264174Y-120481289D01*
X118294862Y-120465441D01*
X118328642Y-120468543D01*
G37*
X118353224Y-119469798D02*
X118375467Y-119501177D01*
X118378156Y-119534406D01*
X118358355Y-119566267D01*
X118348585Y-119574553D01*
X118332693Y-119581965D01*
X118308725Y-119586302D01*
X118271852Y-119588338D01*
X118217244Y-119588845D01*
X118098711Y-119588845D01*
X118098711Y-120085556D01*
X118214224Y-120085556D01*
X118265922Y-120085994D01*
X118300446Y-120087958D01*
X118323022Y-120092474D01*
X118338874Y-120100567D01*
X118353224Y-120113265D01*
X118375467Y-120144643D01*
X118378156Y-120177872D01*
X118358355Y-120209734D01*
X118352165Y-120215366D01*
X118343959Y-120220456D01*
X118332183Y-120224543D01*
X118314724Y-120227721D01*
X118289470Y-120230087D01*
X118254310Y-120231738D01*
X118207131Y-120232769D01*
X118145823Y-120233277D01*
X118068273Y-120233359D01*
X117972369Y-120233109D01*
X117856000Y-120232625D01*
X117841825Y-120232557D01*
X117780063Y-120231971D01*
X117736380Y-120230648D01*
X117706999Y-120228103D01*
X117688145Y-120223848D01*
X117676041Y-120217396D01*
X117666911Y-120208262D01*
X117649494Y-120174804D01*
X117652396Y-120139856D01*
X117676900Y-120108953D01*
X117690103Y-120099944D01*
X117708639Y-120092492D01*
X117734667Y-120088124D01*
X117773213Y-120086069D01*
X117829300Y-120085556D01*
X117951955Y-120085556D01*
X117951955Y-119588845D01*
X117817129Y-119588845D01*
X117781338Y-119588772D01*
X117735008Y-119588009D01*
X117704474Y-119585833D01*
X117685443Y-119581536D01*
X117673626Y-119574412D01*
X117664729Y-119563755D01*
X117649659Y-119531504D01*
X117652327Y-119496217D01*
X117676900Y-119465486D01*
X117683155Y-119460831D01*
X117693679Y-119454895D01*
X117707609Y-119450364D01*
X117727683Y-119447048D01*
X117756640Y-119444759D01*
X117797220Y-119443308D01*
X117852160Y-119442505D01*
X117924201Y-119442162D01*
X118016080Y-119442089D01*
X118325515Y-119442089D01*
X118353224Y-119469798D01*
G36*
X118353224Y-119469798D02*
G01*
X118375467Y-119501177D01*
X118378156Y-119534406D01*
X118358355Y-119566267D01*
X118348585Y-119574553D01*
X118332693Y-119581965D01*
X118308725Y-119586302D01*
X118271852Y-119588338D01*
X118217244Y-119588845D01*
X118098711Y-119588845D01*
X118098711Y-120085556D01*
X118214224Y-120085556D01*
X118265922Y-120085994D01*
X118300446Y-120087958D01*
X118323022Y-120092474D01*
X118338874Y-120100567D01*
X118353224Y-120113265D01*
X118375467Y-120144643D01*
X118378156Y-120177872D01*
X118358355Y-120209734D01*
X118352165Y-120215366D01*
X118343959Y-120220456D01*
X118332183Y-120224543D01*
X118314724Y-120227721D01*
X118289470Y-120230087D01*
X118254310Y-120231738D01*
X118207131Y-120232769D01*
X118145823Y-120233277D01*
X118068273Y-120233359D01*
X117972369Y-120233109D01*
X117856000Y-120232625D01*
X117841825Y-120232557D01*
X117780063Y-120231971D01*
X117736380Y-120230648D01*
X117706999Y-120228103D01*
X117688145Y-120223848D01*
X117676041Y-120217396D01*
X117666911Y-120208262D01*
X117649494Y-120174804D01*
X117652396Y-120139856D01*
X117676900Y-120108953D01*
X117690103Y-120099944D01*
X117708639Y-120092492D01*
X117734667Y-120088124D01*
X117773213Y-120086069D01*
X117829300Y-120085556D01*
X117951955Y-120085556D01*
X117951955Y-119588845D01*
X117817129Y-119588845D01*
X117781338Y-119588772D01*
X117735008Y-119588009D01*
X117704474Y-119585833D01*
X117685443Y-119581536D01*
X117673626Y-119574412D01*
X117664729Y-119563755D01*
X117649659Y-119531504D01*
X117652327Y-119496217D01*
X117676900Y-119465486D01*
X117683155Y-119460831D01*
X117693679Y-119454895D01*
X117707609Y-119450364D01*
X117727683Y-119447048D01*
X117756640Y-119444759D01*
X117797220Y-119443308D01*
X117852160Y-119442505D01*
X117924201Y-119442162D01*
X118016080Y-119442089D01*
X118325515Y-119442089D01*
X118353224Y-119469798D01*
G37*
X118072517Y-124125399D02*
X118134649Y-124149541D01*
X118136342Y-124150337D01*
X118205764Y-124190788D01*
X118262362Y-124241473D01*
X118306930Y-124304198D01*
X118340259Y-124380774D01*
X118363139Y-124473009D01*
X118376364Y-124582712D01*
X118380725Y-124711691D01*
X118380730Y-124715263D01*
X118380590Y-124775283D01*
X118379554Y-124817214D01*
X118376960Y-124845328D01*
X118372147Y-124863897D01*
X118364456Y-124877194D01*
X118353224Y-124889491D01*
X118325515Y-124917200D01*
X118016080Y-124917200D01*
X117954474Y-124917175D01*
X117875689Y-124916950D01*
X117814979Y-124916332D01*
X117793911Y-124915775D01*
X117769604Y-124915133D01*
X117736825Y-124913163D01*
X117713905Y-124910235D01*
X117698103Y-124906158D01*
X117686681Y-124900743D01*
X117676900Y-124893803D01*
X117647155Y-124870406D01*
X117647749Y-124704714D01*
X117648047Y-124669918D01*
X117648209Y-124665274D01*
X117793911Y-124665274D01*
X117793911Y-124759156D01*
X118234178Y-124759156D01*
X118233730Y-124671667D01*
X118231254Y-124604747D01*
X118220002Y-124512349D01*
X118200463Y-124433034D01*
X118173489Y-124371060D01*
X118152760Y-124340120D01*
X118122994Y-124312000D01*
X118080566Y-124288660D01*
X118064600Y-124281533D01*
X118032098Y-124269709D01*
X118007667Y-124267279D01*
X117982939Y-124272892D01*
X117967061Y-124278618D01*
X117907153Y-124311548D01*
X117861400Y-124358886D01*
X117828264Y-124422652D01*
X117806210Y-124504861D01*
X117805708Y-124507655D01*
X117799745Y-124553940D01*
X117795517Y-124610336D01*
X117793911Y-124665274D01*
X117648209Y-124665274D01*
X117651478Y-124571435D01*
X117659161Y-124490473D01*
X117671718Y-124423379D01*
X117689773Y-124366496D01*
X117713948Y-124316169D01*
X117715865Y-124312810D01*
X117752583Y-124254998D01*
X117789549Y-124212644D01*
X117833034Y-124179828D01*
X117889311Y-124150628D01*
X117898927Y-124146346D01*
X117962113Y-124123769D01*
X118017491Y-124116797D01*
X118072517Y-124125399D01*
G36*
X118072517Y-124125399D02*
G01*
X118134649Y-124149541D01*
X118136342Y-124150337D01*
X118205764Y-124190788D01*
X118262362Y-124241473D01*
X118306930Y-124304198D01*
X118340259Y-124380774D01*
X118363139Y-124473009D01*
X118376364Y-124582712D01*
X118380725Y-124711691D01*
X118380730Y-124715263D01*
X118380590Y-124775283D01*
X118379554Y-124817214D01*
X118376960Y-124845328D01*
X118372147Y-124863897D01*
X118364456Y-124877194D01*
X118353224Y-124889491D01*
X118325515Y-124917200D01*
X118016080Y-124917200D01*
X117954474Y-124917175D01*
X117875689Y-124916950D01*
X117814979Y-124916332D01*
X117793911Y-124915775D01*
X117769604Y-124915133D01*
X117736825Y-124913163D01*
X117713905Y-124910235D01*
X117698103Y-124906158D01*
X117686681Y-124900743D01*
X117676900Y-124893803D01*
X117647155Y-124870406D01*
X117647749Y-124704714D01*
X117648047Y-124669918D01*
X117648209Y-124665274D01*
X117793911Y-124665274D01*
X117793911Y-124759156D01*
X118234178Y-124759156D01*
X118233730Y-124671667D01*
X118231254Y-124604747D01*
X118220002Y-124512349D01*
X118200463Y-124433034D01*
X118173489Y-124371060D01*
X118152760Y-124340120D01*
X118122994Y-124312000D01*
X118080566Y-124288660D01*
X118064600Y-124281533D01*
X118032098Y-124269709D01*
X118007667Y-124267279D01*
X117982939Y-124272892D01*
X117967061Y-124278618D01*
X117907153Y-124311548D01*
X117861400Y-124358886D01*
X117828264Y-124422652D01*
X117806210Y-124504861D01*
X117805708Y-124507655D01*
X117799745Y-124553940D01*
X117795517Y-124610336D01*
X117793911Y-124665274D01*
X117648209Y-124665274D01*
X117651478Y-124571435D01*
X117659161Y-124490473D01*
X117671718Y-124423379D01*
X117689773Y-124366496D01*
X117713948Y-124316169D01*
X117715865Y-124312810D01*
X117752583Y-124254998D01*
X117789549Y-124212644D01*
X117833034Y-124179828D01*
X117889311Y-124150628D01*
X117898927Y-124146346D01*
X117962113Y-124123769D01*
X118017491Y-124116797D01*
X118072517Y-124125399D01*
G37*
X118035261Y-131217679D02*
X118092677Y-131229991D01*
X118152587Y-131252520D01*
X118206637Y-131281750D01*
X118246468Y-131314167D01*
X118263490Y-131333708D01*
X118302678Y-131388420D01*
X118332807Y-131448723D01*
X118354768Y-131517919D01*
X118369450Y-131599311D01*
X118377741Y-131696200D01*
X118380533Y-131811889D01*
X118380934Y-131851371D01*
X118381347Y-131897082D01*
X118379543Y-131932883D01*
X118373261Y-131959974D01*
X118360241Y-131979556D01*
X118338222Y-131992830D01*
X118304945Y-132000998D01*
X118258149Y-132005260D01*
X118234178Y-132005857D01*
X118195573Y-132006817D01*
X118114959Y-132006870D01*
X118014044Y-132006622D01*
X117938383Y-132006583D01*
X117860474Y-132006328D01*
X117800464Y-132005684D01*
X117755736Y-132004480D01*
X117723674Y-132002543D01*
X117701660Y-131999703D01*
X117687076Y-131995788D01*
X117677306Y-131990626D01*
X117669733Y-131984045D01*
X117663499Y-131977077D01*
X117656199Y-131964079D01*
X117651446Y-131944931D01*
X117648708Y-131915528D01*
X117647455Y-131871762D01*
X117647398Y-131859867D01*
X117793911Y-131859867D01*
X118234178Y-131859867D01*
X118234192Y-131783667D01*
X118234183Y-131780639D01*
X118232218Y-131729519D01*
X118227493Y-131669416D01*
X118220965Y-131612708D01*
X118211669Y-131562750D01*
X118185400Y-131487998D01*
X118146101Y-131430489D01*
X118093067Y-131388988D01*
X118041800Y-131367771D01*
X117993974Y-131366353D01*
X117943039Y-131384635D01*
X117897122Y-131414305D01*
X117854713Y-131461002D01*
X117824910Y-131522392D01*
X117805774Y-131601538D01*
X117805536Y-131603028D01*
X117799744Y-131651999D01*
X117795604Y-131710693D01*
X117793996Y-131766734D01*
X117793911Y-131859867D01*
X117647398Y-131859867D01*
X117647155Y-131809528D01*
X117647531Y-131760582D01*
X117651959Y-131653722D01*
X117662047Y-131564494D01*
X117678635Y-131489696D01*
X117702565Y-131426125D01*
X117734679Y-131370579D01*
X117775818Y-131319854D01*
X117781670Y-131313866D01*
X117830179Y-131276999D01*
X117890987Y-131245899D01*
X117955231Y-131224417D01*
X118014044Y-131216400D01*
X118035261Y-131217679D01*
G36*
X118035261Y-131217679D02*
G01*
X118092677Y-131229991D01*
X118152587Y-131252520D01*
X118206637Y-131281750D01*
X118246468Y-131314167D01*
X118263490Y-131333708D01*
X118302678Y-131388420D01*
X118332807Y-131448723D01*
X118354768Y-131517919D01*
X118369450Y-131599311D01*
X118377741Y-131696200D01*
X118380533Y-131811889D01*
X118380934Y-131851371D01*
X118381347Y-131897082D01*
X118379543Y-131932883D01*
X118373261Y-131959974D01*
X118360241Y-131979556D01*
X118338222Y-131992830D01*
X118304945Y-132000998D01*
X118258149Y-132005260D01*
X118234178Y-132005857D01*
X118195573Y-132006817D01*
X118114959Y-132006870D01*
X118014044Y-132006622D01*
X117938383Y-132006583D01*
X117860474Y-132006328D01*
X117800464Y-132005684D01*
X117755736Y-132004480D01*
X117723674Y-132002543D01*
X117701660Y-131999703D01*
X117687076Y-131995788D01*
X117677306Y-131990626D01*
X117669733Y-131984045D01*
X117663499Y-131977077D01*
X117656199Y-131964079D01*
X117651446Y-131944931D01*
X117648708Y-131915528D01*
X117647455Y-131871762D01*
X117647398Y-131859867D01*
X117793911Y-131859867D01*
X118234178Y-131859867D01*
X118234192Y-131783667D01*
X118234183Y-131780639D01*
X118232218Y-131729519D01*
X118227493Y-131669416D01*
X118220965Y-131612708D01*
X118211669Y-131562750D01*
X118185400Y-131487998D01*
X118146101Y-131430489D01*
X118093067Y-131388988D01*
X118041800Y-131367771D01*
X117993974Y-131366353D01*
X117943039Y-131384635D01*
X117897122Y-131414305D01*
X117854713Y-131461002D01*
X117824910Y-131522392D01*
X117805774Y-131601538D01*
X117805536Y-131603028D01*
X117799744Y-131651999D01*
X117795604Y-131710693D01*
X117793996Y-131766734D01*
X117793911Y-131859867D01*
X117647398Y-131859867D01*
X117647155Y-131809528D01*
X117647531Y-131760582D01*
X117651959Y-131653722D01*
X117662047Y-131564494D01*
X117678635Y-131489696D01*
X117702565Y-131426125D01*
X117734679Y-131370579D01*
X117775818Y-131319854D01*
X117781670Y-131313866D01*
X117830179Y-131276999D01*
X117890987Y-131245899D01*
X117955231Y-131224417D01*
X118014044Y-131216400D01*
X118035261Y-131217679D01*
G37*
X117930221Y-126318435D02*
X118022849Y-126319352D01*
X118337801Y-126322667D01*
X118359367Y-126349318D01*
X118375559Y-126375383D01*
X118378330Y-126408241D01*
X118359377Y-126442772D01*
X118355792Y-126447084D01*
X118347263Y-126455216D01*
X118335671Y-126461245D01*
X118317765Y-126465606D01*
X118290294Y-126468734D01*
X118250006Y-126471063D01*
X118193649Y-126473029D01*
X118117971Y-126475067D01*
X117898122Y-126480711D01*
X118061916Y-126661334D01*
X118140549Y-126748072D01*
X118208942Y-126823843D01*
X118264292Y-126885980D01*
X118307662Y-126936078D01*
X118340119Y-126975735D01*
X118362727Y-127006548D01*
X118376552Y-127030114D01*
X118382657Y-127048030D01*
X118382108Y-127061893D01*
X118375971Y-127073301D01*
X118365309Y-127083850D01*
X118351189Y-127095136D01*
X118345228Y-127099589D01*
X118334732Y-127105588D01*
X118320907Y-127110167D01*
X118301002Y-127113519D01*
X118272268Y-127115833D01*
X118231955Y-127117301D01*
X118177313Y-127118113D01*
X118105593Y-127118460D01*
X118014044Y-127118534D01*
X117955514Y-127118511D01*
X117876427Y-127118292D01*
X117815484Y-127117683D01*
X117769938Y-127116492D01*
X117737037Y-127114529D01*
X117714032Y-127111603D01*
X117698174Y-127107523D01*
X117686714Y-127102097D01*
X117676900Y-127095136D01*
X117652507Y-127064708D01*
X117649628Y-127029765D01*
X117668718Y-126992784D01*
X117672193Y-126988600D01*
X117680721Y-126980424D01*
X117692272Y-126974364D01*
X117710104Y-126969981D01*
X117737476Y-126966839D01*
X117777646Y-126964502D01*
X117833872Y-126962531D01*
X117909411Y-126960489D01*
X118128542Y-126954845D01*
X117887901Y-126689556D01*
X117821125Y-126615722D01*
X117763009Y-126550542D01*
X117718051Y-126498348D01*
X117685129Y-126457273D01*
X117663121Y-126425455D01*
X117650906Y-126401026D01*
X117647361Y-126382124D01*
X117651364Y-126366883D01*
X117661793Y-126353439D01*
X117677526Y-126339927D01*
X117686009Y-126333682D01*
X117696587Y-126328050D01*
X117710745Y-126323839D01*
X117731197Y-126320887D01*
X117760658Y-126319032D01*
X117801839Y-126318113D01*
X117857456Y-126317968D01*
X117930221Y-126318435D01*
G36*
X117930221Y-126318435D02*
G01*
X118022849Y-126319352D01*
X118337801Y-126322667D01*
X118359367Y-126349318D01*
X118375559Y-126375383D01*
X118378330Y-126408241D01*
X118359377Y-126442772D01*
X118355792Y-126447084D01*
X118347263Y-126455216D01*
X118335671Y-126461245D01*
X118317765Y-126465606D01*
X118290294Y-126468734D01*
X118250006Y-126471063D01*
X118193649Y-126473029D01*
X118117971Y-126475067D01*
X117898122Y-126480711D01*
X118061916Y-126661334D01*
X118140549Y-126748072D01*
X118208942Y-126823843D01*
X118264292Y-126885980D01*
X118307662Y-126936078D01*
X118340119Y-126975735D01*
X118362727Y-127006548D01*
X118376552Y-127030114D01*
X118382657Y-127048030D01*
X118382108Y-127061893D01*
X118375971Y-127073301D01*
X118365309Y-127083850D01*
X118351189Y-127095136D01*
X118345228Y-127099589D01*
X118334732Y-127105588D01*
X118320907Y-127110167D01*
X118301002Y-127113519D01*
X118272268Y-127115833D01*
X118231955Y-127117301D01*
X118177313Y-127118113D01*
X118105593Y-127118460D01*
X118014044Y-127118534D01*
X117955514Y-127118511D01*
X117876427Y-127118292D01*
X117815484Y-127117683D01*
X117769938Y-127116492D01*
X117737037Y-127114529D01*
X117714032Y-127111603D01*
X117698174Y-127107523D01*
X117686714Y-127102097D01*
X117676900Y-127095136D01*
X117652507Y-127064708D01*
X117649628Y-127029765D01*
X117668718Y-126992784D01*
X117672193Y-126988600D01*
X117680721Y-126980424D01*
X117692272Y-126974364D01*
X117710104Y-126969981D01*
X117737476Y-126966839D01*
X117777646Y-126964502D01*
X117833872Y-126962531D01*
X117909411Y-126960489D01*
X118128542Y-126954845D01*
X117887901Y-126689556D01*
X117821125Y-126615722D01*
X117763009Y-126550542D01*
X117718051Y-126498348D01*
X117685129Y-126457273D01*
X117663121Y-126425455D01*
X117650906Y-126401026D01*
X117647361Y-126382124D01*
X117651364Y-126366883D01*
X117661793Y-126353439D01*
X117677526Y-126339927D01*
X117686009Y-126333682D01*
X117696587Y-126328050D01*
X117710745Y-126323839D01*
X117731197Y-126320887D01*
X117760658Y-126319032D01*
X117801839Y-126318113D01*
X117857456Y-126317968D01*
X117930221Y-126318435D01*
G37*
X117942162Y-127458060D02*
X117989544Y-127462780D01*
X118021647Y-127474470D01*
X118041200Y-127496239D01*
X118050930Y-127531198D01*
X118053567Y-127582456D01*
X118051839Y-127653123D01*
X118048827Y-127701743D01*
X118040634Y-127751939D01*
X118026581Y-127784433D01*
X118005346Y-127801892D01*
X117975606Y-127806983D01*
X117971064Y-127806877D01*
X117936270Y-127798175D01*
X117912853Y-127774165D01*
X117899653Y-127732900D01*
X117895511Y-127672431D01*
X117895511Y-127603956D01*
X117857159Y-127603956D01*
X117848024Y-127604006D01*
X117830773Y-127606227D01*
X117820479Y-127615494D01*
X117813541Y-127636875D01*
X117806359Y-127675436D01*
X117805425Y-127680910D01*
X117795522Y-127777860D01*
X117798441Y-127867852D01*
X117813171Y-127948760D01*
X117838701Y-128018459D01*
X117874022Y-128074824D01*
X117918121Y-128115729D01*
X117969988Y-128139051D01*
X118028612Y-128142663D01*
X118057506Y-128137145D01*
X118113396Y-128110461D01*
X118159055Y-128064273D01*
X118193892Y-127999291D01*
X118217310Y-127916229D01*
X118221759Y-127891555D01*
X118232258Y-127802226D01*
X118231029Y-127722419D01*
X118218094Y-127644326D01*
X118211304Y-127609183D01*
X118210287Y-127563745D01*
X118222818Y-127532430D01*
X118249605Y-127512277D01*
X118277852Y-127505893D01*
X118309076Y-127515379D01*
X118322501Y-127524708D01*
X118346033Y-127558943D01*
X118363905Y-127611565D01*
X118375401Y-127680081D01*
X118379808Y-127762000D01*
X118375821Y-127859150D01*
X118359506Y-127965157D01*
X118331455Y-128058969D01*
X118292548Y-128137765D01*
X118243666Y-128198719D01*
X118210805Y-128224789D01*
X118161606Y-128254297D01*
X118107748Y-128279568D01*
X118056581Y-128297218D01*
X118015456Y-128303858D01*
X117995741Y-128302298D01*
X117944408Y-128289357D01*
X117887882Y-128266194D01*
X117833965Y-128236302D01*
X117790461Y-128203173D01*
X117780113Y-128192977D01*
X117728338Y-128125892D01*
X117688446Y-128045766D01*
X117664044Y-127959556D01*
X117655932Y-127904592D01*
X117649327Y-127811139D01*
X117651414Y-127721358D01*
X117661660Y-127638869D01*
X117679530Y-127567286D01*
X117704492Y-127510228D01*
X117736012Y-127471311D01*
X117737988Y-127469936D01*
X117763214Y-127462848D01*
X117810465Y-127458609D01*
X117879929Y-127457200D01*
X117942162Y-127458060D01*
G36*
X117942162Y-127458060D02*
G01*
X117989544Y-127462780D01*
X118021647Y-127474470D01*
X118041200Y-127496239D01*
X118050930Y-127531198D01*
X118053567Y-127582456D01*
X118051839Y-127653123D01*
X118048827Y-127701743D01*
X118040634Y-127751939D01*
X118026581Y-127784433D01*
X118005346Y-127801892D01*
X117975606Y-127806983D01*
X117971064Y-127806877D01*
X117936270Y-127798175D01*
X117912853Y-127774165D01*
X117899653Y-127732900D01*
X117895511Y-127672431D01*
X117895511Y-127603956D01*
X117857159Y-127603956D01*
X117848024Y-127604006D01*
X117830773Y-127606227D01*
X117820479Y-127615494D01*
X117813541Y-127636875D01*
X117806359Y-127675436D01*
X117805425Y-127680910D01*
X117795522Y-127777860D01*
X117798441Y-127867852D01*
X117813171Y-127948760D01*
X117838701Y-128018459D01*
X117874022Y-128074824D01*
X117918121Y-128115729D01*
X117969988Y-128139051D01*
X118028612Y-128142663D01*
X118057506Y-128137145D01*
X118113396Y-128110461D01*
X118159055Y-128064273D01*
X118193892Y-127999291D01*
X118217310Y-127916229D01*
X118221759Y-127891555D01*
X118232258Y-127802226D01*
X118231029Y-127722419D01*
X118218094Y-127644326D01*
X118211304Y-127609183D01*
X118210287Y-127563745D01*
X118222818Y-127532430D01*
X118249605Y-127512277D01*
X118277852Y-127505893D01*
X118309076Y-127515379D01*
X118322501Y-127524708D01*
X118346033Y-127558943D01*
X118363905Y-127611565D01*
X118375401Y-127680081D01*
X118379808Y-127762000D01*
X118375821Y-127859150D01*
X118359506Y-127965157D01*
X118331455Y-128058969D01*
X118292548Y-128137765D01*
X118243666Y-128198719D01*
X118210805Y-128224789D01*
X118161606Y-128254297D01*
X118107748Y-128279568D01*
X118056581Y-128297218D01*
X118015456Y-128303858D01*
X117995741Y-128302298D01*
X117944408Y-128289357D01*
X117887882Y-128266194D01*
X117833965Y-128236302D01*
X117790461Y-128203173D01*
X117780113Y-128192977D01*
X117728338Y-128125892D01*
X117688446Y-128045766D01*
X117664044Y-127959556D01*
X117655932Y-127904592D01*
X117649327Y-127811139D01*
X117651414Y-127721358D01*
X117661660Y-127638869D01*
X117679530Y-127567286D01*
X117704492Y-127510228D01*
X117736012Y-127471311D01*
X117737988Y-127469936D01*
X117763214Y-127462848D01*
X117810465Y-127458609D01*
X117879929Y-127457200D01*
X117942162Y-127458060D01*
G37*
X118311030Y-125255873D02*
X118331061Y-125257027D01*
X118346854Y-125261824D01*
X118358910Y-125272632D01*
X118367733Y-125291817D01*
X118373825Y-125321745D01*
X118377689Y-125364783D01*
X118379826Y-125423299D01*
X118380740Y-125499657D01*
X118380933Y-125596226D01*
X118380933Y-125886406D01*
X118351189Y-125909803D01*
X118344505Y-125914752D01*
X118333934Y-125920596D01*
X118319847Y-125925057D01*
X118299522Y-125928321D01*
X118270235Y-125930574D01*
X118229263Y-125932002D01*
X118173883Y-125932792D01*
X118101372Y-125933129D01*
X118009006Y-125933200D01*
X117943089Y-125933171D01*
X117864772Y-125932939D01*
X117804504Y-125932319D01*
X117759607Y-125931126D01*
X117727398Y-125929179D01*
X117705200Y-125926294D01*
X117690331Y-125922288D01*
X117680111Y-125916979D01*
X117671862Y-125910183D01*
X117667205Y-125905668D01*
X117660718Y-125897438D01*
X117655806Y-125886078D01*
X117652251Y-125868810D01*
X117649833Y-125842855D01*
X117648333Y-125805436D01*
X117647533Y-125753773D01*
X117647213Y-125685089D01*
X117647155Y-125596606D01*
X117647162Y-125576931D01*
X117647428Y-125489906D01*
X117648194Y-125422254D01*
X117649608Y-125371299D01*
X117651820Y-125334367D01*
X117654978Y-125308783D01*
X117659231Y-125291871D01*
X117664729Y-125280957D01*
X117674715Y-125270464D01*
X117705832Y-125257203D01*
X117741720Y-125258386D01*
X117773267Y-125274550D01*
X117775543Y-125276739D01*
X117781811Y-125285427D01*
X117786477Y-125298769D01*
X117789773Y-125319752D01*
X117791932Y-125351363D01*
X117793186Y-125396590D01*
X117793769Y-125458420D01*
X117793911Y-125539839D01*
X117793911Y-125786445D01*
X117951955Y-125786445D01*
X117951955Y-125624006D01*
X117952036Y-125588338D01*
X117952833Y-125532568D01*
X117954838Y-125493430D01*
X117958479Y-125466976D01*
X117964188Y-125449259D01*
X117972393Y-125436329D01*
X117975577Y-125432686D01*
X118006552Y-125414278D01*
X118042888Y-125413644D01*
X118076507Y-125431183D01*
X118076576Y-125431245D01*
X118085202Y-125440916D01*
X118091258Y-125454209D01*
X118095189Y-125474917D01*
X118097444Y-125506828D01*
X118098469Y-125553734D01*
X118098711Y-125619424D01*
X118098711Y-125787571D01*
X118163622Y-125784186D01*
X118228533Y-125780800D01*
X118231586Y-125538723D01*
X118231914Y-125513707D01*
X118233394Y-125432087D01*
X118235778Y-125369768D01*
X118239773Y-125324154D01*
X118246087Y-125292652D01*
X118255426Y-125272667D01*
X118268497Y-125261604D01*
X118286008Y-125256869D01*
X118308665Y-125255867D01*
X118311030Y-125255873D01*
G36*
X118311030Y-125255873D02*
G01*
X118331061Y-125257027D01*
X118346854Y-125261824D01*
X118358910Y-125272632D01*
X118367733Y-125291817D01*
X118373825Y-125321745D01*
X118377689Y-125364783D01*
X118379826Y-125423299D01*
X118380740Y-125499657D01*
X118380933Y-125596226D01*
X118380933Y-125886406D01*
X118351189Y-125909803D01*
X118344505Y-125914752D01*
X118333934Y-125920596D01*
X118319847Y-125925057D01*
X118299522Y-125928321D01*
X118270235Y-125930574D01*
X118229263Y-125932002D01*
X118173883Y-125932792D01*
X118101372Y-125933129D01*
X118009006Y-125933200D01*
X117943089Y-125933171D01*
X117864772Y-125932939D01*
X117804504Y-125932319D01*
X117759607Y-125931126D01*
X117727398Y-125929179D01*
X117705200Y-125926294D01*
X117690331Y-125922288D01*
X117680111Y-125916979D01*
X117671862Y-125910183D01*
X117667205Y-125905668D01*
X117660718Y-125897438D01*
X117655806Y-125886078D01*
X117652251Y-125868810D01*
X117649833Y-125842855D01*
X117648333Y-125805436D01*
X117647533Y-125753773D01*
X117647213Y-125685089D01*
X117647155Y-125596606D01*
X117647162Y-125576931D01*
X117647428Y-125489906D01*
X117648194Y-125422254D01*
X117649608Y-125371299D01*
X117651820Y-125334367D01*
X117654978Y-125308783D01*
X117659231Y-125291871D01*
X117664729Y-125280957D01*
X117674715Y-125270464D01*
X117705832Y-125257203D01*
X117741720Y-125258386D01*
X117773267Y-125274550D01*
X117775543Y-125276739D01*
X117781811Y-125285427D01*
X117786477Y-125298769D01*
X117789773Y-125319752D01*
X117791932Y-125351363D01*
X117793186Y-125396590D01*
X117793769Y-125458420D01*
X117793911Y-125539839D01*
X117793911Y-125786445D01*
X117951955Y-125786445D01*
X117951955Y-125624006D01*
X117952036Y-125588338D01*
X117952833Y-125532568D01*
X117954838Y-125493430D01*
X117958479Y-125466976D01*
X117964188Y-125449259D01*
X117972393Y-125436329D01*
X117975577Y-125432686D01*
X118006552Y-125414278D01*
X118042888Y-125413644D01*
X118076507Y-125431183D01*
X118076576Y-125431245D01*
X118085202Y-125440916D01*
X118091258Y-125454209D01*
X118095189Y-125474917D01*
X118097444Y-125506828D01*
X118098469Y-125553734D01*
X118098711Y-125619424D01*
X118098711Y-125787571D01*
X118163622Y-125784186D01*
X118228533Y-125780800D01*
X118231586Y-125538723D01*
X118231914Y-125513707D01*
X118233394Y-125432087D01*
X118235778Y-125369768D01*
X118239773Y-125324154D01*
X118246087Y-125292652D01*
X118255426Y-125272667D01*
X118268497Y-125261604D01*
X118286008Y-125256869D01*
X118308665Y-125255867D01*
X118311030Y-125255873D01*
G37*
X117744440Y-130194610D02*
X117771333Y-130211689D01*
X117775941Y-130216668D01*
X117782228Y-130226443D01*
X117786854Y-130240559D01*
X117790070Y-130262054D01*
X117792130Y-130293968D01*
X117793288Y-130339342D01*
X117793798Y-130401213D01*
X117793911Y-130482622D01*
X117793911Y-130730978D01*
X117951955Y-130730978D01*
X117951955Y-130569801D01*
X117952101Y-130533983D01*
X117953824Y-130468359D01*
X117958259Y-130421118D01*
X117966363Y-130389383D01*
X117979094Y-130370277D01*
X117997408Y-130360923D01*
X118022262Y-130358445D01*
X118042518Y-130359242D01*
X118064344Y-130364494D01*
X118079696Y-130377288D01*
X118089691Y-130400628D01*
X118095447Y-130437517D01*
X118098081Y-130490959D01*
X118098711Y-130563958D01*
X118098711Y-130732105D01*
X118163622Y-130728719D01*
X118228533Y-130725334D01*
X118231582Y-130477617D01*
X118232461Y-130415026D01*
X118233905Y-130346565D01*
X118235836Y-130295661D01*
X118238486Y-130259408D01*
X118242090Y-130234901D01*
X118246879Y-130219235D01*
X118253087Y-130209506D01*
X118259490Y-130203491D01*
X118291172Y-130190482D01*
X118326858Y-130194043D01*
X118357916Y-130213818D01*
X118360839Y-130217069D01*
X118367190Y-130226049D01*
X118372043Y-130238153D01*
X118375597Y-130256159D01*
X118378054Y-130282847D01*
X118379615Y-130320997D01*
X118380482Y-130373386D01*
X118380854Y-130442794D01*
X118380933Y-130532001D01*
X118380917Y-130586734D01*
X118380725Y-130663831D01*
X118380140Y-130722777D01*
X118378949Y-130766364D01*
X118376936Y-130797383D01*
X118373888Y-130818625D01*
X118369591Y-130832882D01*
X118363828Y-130842945D01*
X118356388Y-130851606D01*
X118354707Y-130853391D01*
X118347168Y-130860635D01*
X118338150Y-130866277D01*
X118325016Y-130870517D01*
X118305128Y-130873556D01*
X118275849Y-130875594D01*
X118234542Y-130876830D01*
X118178569Y-130877465D01*
X118105293Y-130877700D01*
X118012077Y-130877734D01*
X117939287Y-130877697D01*
X117861111Y-130877448D01*
X117800897Y-130876812D01*
X117756018Y-130875615D01*
X117723848Y-130873684D01*
X117701761Y-130870846D01*
X117687130Y-130866927D01*
X117677330Y-130861755D01*
X117669733Y-130855156D01*
X117666556Y-130851822D01*
X117660446Y-130843300D01*
X117655771Y-130831298D01*
X117652341Y-130813087D01*
X117649964Y-130785940D01*
X117648448Y-130747129D01*
X117647602Y-130693924D01*
X117647235Y-130623598D01*
X117647155Y-130533422D01*
X117647167Y-130491314D01*
X117647349Y-130410167D01*
X117647902Y-130347675D01*
X117649018Y-130301109D01*
X117650887Y-130267741D01*
X117653702Y-130244844D01*
X117657654Y-130229688D01*
X117662934Y-130219546D01*
X117669733Y-130211689D01*
X117691333Y-130196963D01*
X117720533Y-130189111D01*
X117744440Y-130194610D01*
G36*
X117744440Y-130194610D02*
G01*
X117771333Y-130211689D01*
X117775941Y-130216668D01*
X117782228Y-130226443D01*
X117786854Y-130240559D01*
X117790070Y-130262054D01*
X117792130Y-130293968D01*
X117793288Y-130339342D01*
X117793798Y-130401213D01*
X117793911Y-130482622D01*
X117793911Y-130730978D01*
X117951955Y-130730978D01*
X117951955Y-130569801D01*
X117952101Y-130533983D01*
X117953824Y-130468359D01*
X117958259Y-130421118D01*
X117966363Y-130389383D01*
X117979094Y-130370277D01*
X117997408Y-130360923D01*
X118022262Y-130358445D01*
X118042518Y-130359242D01*
X118064344Y-130364494D01*
X118079696Y-130377288D01*
X118089691Y-130400628D01*
X118095447Y-130437517D01*
X118098081Y-130490959D01*
X118098711Y-130563958D01*
X118098711Y-130732105D01*
X118163622Y-130728719D01*
X118228533Y-130725334D01*
X118231582Y-130477617D01*
X118232461Y-130415026D01*
X118233905Y-130346565D01*
X118235836Y-130295661D01*
X118238486Y-130259408D01*
X118242090Y-130234901D01*
X118246879Y-130219235D01*
X118253087Y-130209506D01*
X118259490Y-130203491D01*
X118291172Y-130190482D01*
X118326858Y-130194043D01*
X118357916Y-130213818D01*
X118360839Y-130217069D01*
X118367190Y-130226049D01*
X118372043Y-130238153D01*
X118375597Y-130256159D01*
X118378054Y-130282847D01*
X118379615Y-130320997D01*
X118380482Y-130373386D01*
X118380854Y-130442794D01*
X118380933Y-130532001D01*
X118380917Y-130586734D01*
X118380725Y-130663831D01*
X118380140Y-130722777D01*
X118378949Y-130766364D01*
X118376936Y-130797383D01*
X118373888Y-130818625D01*
X118369591Y-130832882D01*
X118363828Y-130842945D01*
X118356388Y-130851606D01*
X118354707Y-130853391D01*
X118347168Y-130860635D01*
X118338150Y-130866277D01*
X118325016Y-130870517D01*
X118305128Y-130873556D01*
X118275849Y-130875594D01*
X118234542Y-130876830D01*
X118178569Y-130877465D01*
X118105293Y-130877700D01*
X118012077Y-130877734D01*
X117939287Y-130877697D01*
X117861111Y-130877448D01*
X117800897Y-130876812D01*
X117756018Y-130875615D01*
X117723848Y-130873684D01*
X117701761Y-130870846D01*
X117687130Y-130866927D01*
X117677330Y-130861755D01*
X117669733Y-130855156D01*
X117666556Y-130851822D01*
X117660446Y-130843300D01*
X117655771Y-130831298D01*
X117652341Y-130813087D01*
X117649964Y-130785940D01*
X117648448Y-130747129D01*
X117647602Y-130693924D01*
X117647235Y-130623598D01*
X117647155Y-130533422D01*
X117647167Y-130491314D01*
X117647349Y-130410167D01*
X117647902Y-130347675D01*
X117649018Y-130301109D01*
X117650887Y-130267741D01*
X117653702Y-130244844D01*
X117657654Y-130229688D01*
X117662934Y-130219546D01*
X117669733Y-130211689D01*
X117691333Y-130196963D01*
X117720533Y-130189111D01*
X117744440Y-130194610D01*
G37*
X118330439Y-121923730D02*
X118351322Y-121938387D01*
X118371623Y-121964990D01*
X118371965Y-121965745D01*
X118378966Y-121985335D01*
X118379496Y-122002790D01*
X118371522Y-122019702D01*
X118353011Y-122037663D01*
X118321929Y-122058263D01*
X118276244Y-122083095D01*
X118213922Y-122113750D01*
X118132929Y-122151820D01*
X118101546Y-122166454D01*
X118038362Y-122196203D01*
X117983756Y-122222297D01*
X117940710Y-122243292D01*
X117912207Y-122257739D01*
X117901230Y-122264191D01*
X117901811Y-122265550D01*
X117915758Y-122275542D01*
X117945296Y-122292833D01*
X117986913Y-122315430D01*
X118037097Y-122341338D01*
X118068586Y-122357311D01*
X118123939Y-122386261D01*
X118162956Y-122408749D01*
X118188434Y-122426965D01*
X118203169Y-122443096D01*
X118209958Y-122459330D01*
X118211600Y-122477857D01*
X118211125Y-122488360D01*
X118206918Y-122504476D01*
X118196054Y-122519790D01*
X118175781Y-122536388D01*
X118143346Y-122556357D01*
X118095996Y-122581783D01*
X118030978Y-122614752D01*
X118011723Y-122624485D01*
X117965054Y-122648943D01*
X117928891Y-122669178D01*
X117906503Y-122683311D01*
X117901155Y-122689460D01*
X117904427Y-122690827D01*
X117925336Y-122700202D01*
X117962275Y-122717062D01*
X118012126Y-122739979D01*
X118071774Y-122767520D01*
X118138102Y-122798255D01*
X118195323Y-122824970D01*
X118257312Y-122854593D01*
X118303051Y-122877664D01*
X118335092Y-122895643D01*
X118355986Y-122909990D01*
X118368282Y-122922166D01*
X118374534Y-122933632D01*
X118377426Y-122943042D01*
X118377575Y-122968147D01*
X118362232Y-122995290D01*
X118361247Y-122996590D01*
X118338612Y-123018674D01*
X118316387Y-123029723D01*
X118315747Y-123029769D01*
X118298085Y-123025228D01*
X118263519Y-123012364D01*
X118215174Y-122992605D01*
X118156175Y-122967381D01*
X118089645Y-122938119D01*
X118018709Y-122906250D01*
X117946493Y-122873201D01*
X117876120Y-122840401D01*
X117810715Y-122809280D01*
X117753403Y-122781265D01*
X117707308Y-122757786D01*
X117675554Y-122740272D01*
X117661267Y-122730151D01*
X117647898Y-122695743D01*
X117654259Y-122654046D01*
X117658956Y-122648681D01*
X117681107Y-122632852D01*
X117717868Y-122610650D01*
X117765585Y-122584233D01*
X117820607Y-122555760D01*
X117979850Y-122475986D01*
X117833258Y-122402799D01*
X117813968Y-122393103D01*
X117761620Y-122366125D01*
X117716830Y-122342096D01*
X117683846Y-122323332D01*
X117666911Y-122312146D01*
X117665668Y-122311000D01*
X117650381Y-122282879D01*
X117648698Y-122247817D01*
X117661267Y-122216776D01*
X117664116Y-122214350D01*
X117684741Y-122202090D01*
X117722292Y-122182352D01*
X117774120Y-122156448D01*
X117837577Y-122125685D01*
X117910015Y-122091375D01*
X117988784Y-122054825D01*
X118032907Y-122034585D01*
X118113635Y-121997812D01*
X118177313Y-121969355D01*
X118226248Y-121948331D01*
X118262743Y-121933854D01*
X118289105Y-121925039D01*
X118307639Y-121921004D01*
X118320648Y-121920862D01*
X118330439Y-121923730D01*
G36*
X118330439Y-121923730D02*
G01*
X118351322Y-121938387D01*
X118371623Y-121964990D01*
X118371965Y-121965745D01*
X118378966Y-121985335D01*
X118379496Y-122002790D01*
X118371522Y-122019702D01*
X118353011Y-122037663D01*
X118321929Y-122058263D01*
X118276244Y-122083095D01*
X118213922Y-122113750D01*
X118132929Y-122151820D01*
X118101546Y-122166454D01*
X118038362Y-122196203D01*
X117983756Y-122222297D01*
X117940710Y-122243292D01*
X117912207Y-122257739D01*
X117901230Y-122264191D01*
X117901811Y-122265550D01*
X117915758Y-122275542D01*
X117945296Y-122292833D01*
X117986913Y-122315430D01*
X118037097Y-122341338D01*
X118068586Y-122357311D01*
X118123939Y-122386261D01*
X118162956Y-122408749D01*
X118188434Y-122426965D01*
X118203169Y-122443096D01*
X118209958Y-122459330D01*
X118211600Y-122477857D01*
X118211125Y-122488360D01*
X118206918Y-122504476D01*
X118196054Y-122519790D01*
X118175781Y-122536388D01*
X118143346Y-122556357D01*
X118095996Y-122581783D01*
X118030978Y-122614752D01*
X118011723Y-122624485D01*
X117965054Y-122648943D01*
X117928891Y-122669178D01*
X117906503Y-122683311D01*
X117901155Y-122689460D01*
X117904427Y-122690827D01*
X117925336Y-122700202D01*
X117962275Y-122717062D01*
X118012126Y-122739979D01*
X118071774Y-122767520D01*
X118138102Y-122798255D01*
X118195323Y-122824970D01*
X118257312Y-122854593D01*
X118303051Y-122877664D01*
X118335092Y-122895643D01*
X118355986Y-122909990D01*
X118368282Y-122922166D01*
X118374534Y-122933632D01*
X118377426Y-122943042D01*
X118377575Y-122968147D01*
X118362232Y-122995290D01*
X118361247Y-122996590D01*
X118338612Y-123018674D01*
X118316387Y-123029723D01*
X118315747Y-123029769D01*
X118298085Y-123025228D01*
X118263519Y-123012364D01*
X118215174Y-122992605D01*
X118156175Y-122967381D01*
X118089645Y-122938119D01*
X118018709Y-122906250D01*
X117946493Y-122873201D01*
X117876120Y-122840401D01*
X117810715Y-122809280D01*
X117753403Y-122781265D01*
X117707308Y-122757786D01*
X117675554Y-122740272D01*
X117661267Y-122730151D01*
X117647898Y-122695743D01*
X117654259Y-122654046D01*
X117658956Y-122648681D01*
X117681107Y-122632852D01*
X117717868Y-122610650D01*
X117765585Y-122584233D01*
X117820607Y-122555760D01*
X117979850Y-122475986D01*
X117833258Y-122402799D01*
X117813968Y-122393103D01*
X117761620Y-122366125D01*
X117716830Y-122342096D01*
X117683846Y-122323332D01*
X117666911Y-122312146D01*
X117665668Y-122311000D01*
X117650381Y-122282879D01*
X117648698Y-122247817D01*
X117661267Y-122216776D01*
X117664116Y-122214350D01*
X117684741Y-122202090D01*
X117722292Y-122182352D01*
X117774120Y-122156448D01*
X117837577Y-122125685D01*
X117910015Y-122091375D01*
X117988784Y-122054825D01*
X118032907Y-122034585D01*
X118113635Y-121997812D01*
X118177313Y-121969355D01*
X118226248Y-121948331D01*
X118262743Y-121933854D01*
X118289105Y-121925039D01*
X118307639Y-121921004D01*
X118320648Y-121920862D01*
X118330439Y-121923730D01*
G37*
X117873974Y-129116808D02*
X117906655Y-129120681D01*
X117933181Y-129133065D01*
X117964029Y-129158230D01*
X117986169Y-129179442D01*
X118008715Y-129205838D01*
X118027083Y-129235555D01*
X118042339Y-129271785D01*
X118055551Y-129317717D01*
X118067786Y-129376544D01*
X118080111Y-129451456D01*
X118093594Y-129545645D01*
X118100604Y-129590957D01*
X118115163Y-129658911D01*
X118131663Y-129708047D01*
X118149561Y-129737614D01*
X118168315Y-129746864D01*
X118187385Y-129735048D01*
X118206229Y-129701416D01*
X118207443Y-129698370D01*
X118219521Y-129652011D01*
X118227721Y-129589361D01*
X118231881Y-129515927D01*
X118231839Y-129437217D01*
X118227431Y-129358739D01*
X118218495Y-129286000D01*
X118217846Y-129282073D01*
X118210139Y-129233257D01*
X118206527Y-129201005D01*
X118207124Y-129180008D01*
X118212046Y-129164954D01*
X118221404Y-129150534D01*
X118222275Y-129149364D01*
X118252649Y-129124847D01*
X118288150Y-129120054D01*
X118322731Y-129135860D01*
X118327187Y-129140406D01*
X118342327Y-129170020D01*
X118355450Y-129217002D01*
X118366250Y-129277306D01*
X118374419Y-129346888D01*
X118379649Y-129421703D01*
X118381633Y-129497706D01*
X118380064Y-129570853D01*
X118374634Y-129637100D01*
X118365036Y-129692400D01*
X118350175Y-129743283D01*
X118317042Y-129814595D01*
X118274360Y-129865752D01*
X118222295Y-129896575D01*
X118161017Y-129906889D01*
X118129768Y-129905952D01*
X118104971Y-129900160D01*
X118083301Y-129885353D01*
X118055951Y-129857380D01*
X118048622Y-129849402D01*
X118027719Y-129825692D01*
X118010749Y-129803298D01*
X117996795Y-129779265D01*
X117984944Y-129750637D01*
X117974280Y-129714460D01*
X117963889Y-129667780D01*
X117952854Y-129607641D01*
X117940262Y-129531090D01*
X117925196Y-129435171D01*
X117922162Y-129416808D01*
X117908542Y-129354478D01*
X117892808Y-129309260D01*
X117875737Y-129282976D01*
X117858103Y-129277447D01*
X117853832Y-129280068D01*
X117838767Y-129298000D01*
X117822133Y-129326126D01*
X117816143Y-129338926D01*
X117808950Y-129360224D01*
X117804173Y-129386610D01*
X117801354Y-129422454D01*
X117800036Y-129472128D01*
X117799763Y-129540000D01*
X117799836Y-129557785D01*
X117800947Y-129625406D01*
X117803172Y-129690345D01*
X117806238Y-129745970D01*
X117809873Y-129785651D01*
X117813941Y-129821162D01*
X117814724Y-129850415D01*
X117810124Y-129869315D01*
X117799449Y-129884429D01*
X117795856Y-129888085D01*
X117764082Y-129904427D01*
X117728428Y-129903107D01*
X117697810Y-129884150D01*
X117686204Y-129863780D01*
X117673509Y-129827796D01*
X117663459Y-129785372D01*
X117662860Y-129781922D01*
X117657644Y-129739252D01*
X117653270Y-129681866D01*
X117650182Y-129616849D01*
X117648823Y-129551289D01*
X117648782Y-129535057D01*
X117651259Y-129436744D01*
X117659265Y-129356692D01*
X117673797Y-129291513D01*
X117695851Y-129237817D01*
X117726424Y-129192216D01*
X117766514Y-129151323D01*
X117792741Y-129131202D01*
X117822288Y-129119576D01*
X117862005Y-129116667D01*
X117873974Y-129116808D01*
G36*
X117873974Y-129116808D02*
G01*
X117906655Y-129120681D01*
X117933181Y-129133065D01*
X117964029Y-129158230D01*
X117986169Y-129179442D01*
X118008715Y-129205838D01*
X118027083Y-129235555D01*
X118042339Y-129271785D01*
X118055551Y-129317717D01*
X118067786Y-129376544D01*
X118080111Y-129451456D01*
X118093594Y-129545645D01*
X118100604Y-129590957D01*
X118115163Y-129658911D01*
X118131663Y-129708047D01*
X118149561Y-129737614D01*
X118168315Y-129746864D01*
X118187385Y-129735048D01*
X118206229Y-129701416D01*
X118207443Y-129698370D01*
X118219521Y-129652011D01*
X118227721Y-129589361D01*
X118231881Y-129515927D01*
X118231839Y-129437217D01*
X118227431Y-129358739D01*
X118218495Y-129286000D01*
X118217846Y-129282073D01*
X118210139Y-129233257D01*
X118206527Y-129201005D01*
X118207124Y-129180008D01*
X118212046Y-129164954D01*
X118221404Y-129150534D01*
X118222275Y-129149364D01*
X118252649Y-129124847D01*
X118288150Y-129120054D01*
X118322731Y-129135860D01*
X118327187Y-129140406D01*
X118342327Y-129170020D01*
X118355450Y-129217002D01*
X118366250Y-129277306D01*
X118374419Y-129346888D01*
X118379649Y-129421703D01*
X118381633Y-129497706D01*
X118380064Y-129570853D01*
X118374634Y-129637100D01*
X118365036Y-129692400D01*
X118350175Y-129743283D01*
X118317042Y-129814595D01*
X118274360Y-129865752D01*
X118222295Y-129896575D01*
X118161017Y-129906889D01*
X118129768Y-129905952D01*
X118104971Y-129900160D01*
X118083301Y-129885353D01*
X118055951Y-129857380D01*
X118048622Y-129849402D01*
X118027719Y-129825692D01*
X118010749Y-129803298D01*
X117996795Y-129779265D01*
X117984944Y-129750637D01*
X117974280Y-129714460D01*
X117963889Y-129667780D01*
X117952854Y-129607641D01*
X117940262Y-129531090D01*
X117925196Y-129435171D01*
X117922162Y-129416808D01*
X117908542Y-129354478D01*
X117892808Y-129309260D01*
X117875737Y-129282976D01*
X117858103Y-129277447D01*
X117853832Y-129280068D01*
X117838767Y-129298000D01*
X117822133Y-129326126D01*
X117816143Y-129338926D01*
X117808950Y-129360224D01*
X117804173Y-129386610D01*
X117801354Y-129422454D01*
X117800036Y-129472128D01*
X117799763Y-129540000D01*
X117799836Y-129557785D01*
X117800947Y-129625406D01*
X117803172Y-129690345D01*
X117806238Y-129745970D01*
X117809873Y-129785651D01*
X117813941Y-129821162D01*
X117814724Y-129850415D01*
X117810124Y-129869315D01*
X117799449Y-129884429D01*
X117795856Y-129888085D01*
X117764082Y-129904427D01*
X117728428Y-129903107D01*
X117697810Y-129884150D01*
X117686204Y-129863780D01*
X117673509Y-129827796D01*
X117663459Y-129785372D01*
X117662860Y-129781922D01*
X117657644Y-129739252D01*
X117653270Y-129681866D01*
X117650182Y-129616849D01*
X117648823Y-129551289D01*
X117648782Y-129535057D01*
X117651259Y-129436744D01*
X117659265Y-129356692D01*
X117673797Y-129291513D01*
X117695851Y-129237817D01*
X117726424Y-129192216D01*
X117766514Y-129151323D01*
X117792741Y-129131202D01*
X117822288Y-129119576D01*
X117862005Y-129116667D01*
X117873974Y-129116808D01*
G37*
X119506016Y-124465076D02*
X119525921Y-124476250D01*
X119561580Y-124497134D01*
X119610541Y-124526265D01*
X119670354Y-124562181D01*
X119738567Y-124603420D01*
X119812729Y-124648517D01*
X120109992Y-124829785D01*
X120065461Y-124876315D01*
X119987135Y-124967723D01*
X119912561Y-125081334D01*
X119858526Y-125199122D01*
X119825710Y-125319559D01*
X119814789Y-125441117D01*
X119816132Y-125482585D01*
X119834388Y-125600080D01*
X119873383Y-125710089D01*
X119932330Y-125811430D01*
X120010443Y-125902921D01*
X120106936Y-125983380D01*
X120221022Y-126051627D01*
X120255276Y-126067908D01*
X120378760Y-126113982D01*
X120517082Y-126149106D01*
X120666439Y-126173197D01*
X120823027Y-126186173D01*
X120983044Y-126187949D01*
X121142686Y-126178443D01*
X121298150Y-126157572D01*
X121445634Y-126125252D01*
X121581333Y-126081399D01*
X121667924Y-126043982D01*
X121781312Y-125979185D01*
X121874930Y-125903772D01*
X121949041Y-125817418D01*
X122003906Y-125719795D01*
X122039788Y-125610577D01*
X122056949Y-125489439D01*
X122058120Y-125420038D01*
X122043859Y-125297168D01*
X122008759Y-125181664D01*
X121953318Y-125074953D01*
X121878036Y-124978464D01*
X121863560Y-124962720D01*
X121837038Y-124932150D01*
X121819862Y-124909809D01*
X121815213Y-124899691D01*
X121817403Y-124897706D01*
X121836279Y-124883241D01*
X121869603Y-124859400D01*
X121914620Y-124828029D01*
X121968575Y-124790974D01*
X122028715Y-124750083D01*
X122092282Y-124707202D01*
X122156524Y-124664178D01*
X122218685Y-124622857D01*
X122276009Y-124585086D01*
X122325743Y-124552712D01*
X122365132Y-124527582D01*
X122391420Y-124511542D01*
X122401853Y-124506439D01*
X122406059Y-124511050D01*
X122411067Y-124530267D01*
X122413614Y-124539838D01*
X122424751Y-124567809D01*
X122443198Y-124609448D01*
X122467275Y-124660995D01*
X122495301Y-124718690D01*
X122500846Y-124729957D01*
X122580111Y-124907687D01*
X122639615Y-125077490D01*
X122679755Y-125241430D01*
X122700929Y-125401571D01*
X122703534Y-125559977D01*
X122687967Y-125718711D01*
X122670477Y-125814268D01*
X122625436Y-125978558D01*
X122562344Y-126132589D01*
X122480085Y-126278509D01*
X122377543Y-126418466D01*
X122253601Y-126554608D01*
X122208339Y-126598473D01*
X122076135Y-126710758D01*
X121938168Y-126803972D01*
X121790250Y-126880719D01*
X121628197Y-126943603D01*
X121616609Y-126947420D01*
X121430608Y-126997507D01*
X121234479Y-127030899D01*
X121032432Y-127047584D01*
X120828675Y-127047551D01*
X120627419Y-127030791D01*
X120432872Y-126997292D01*
X120249244Y-126947044D01*
X120131947Y-126903190D01*
X119969049Y-126825348D01*
X119815134Y-126731828D01*
X119673329Y-126624822D01*
X119546761Y-126506519D01*
X119438559Y-126379111D01*
X119385880Y-126301606D01*
X119316250Y-126174725D01*
X119257532Y-126037243D01*
X119212413Y-125895716D01*
X119183578Y-125756702D01*
X119181894Y-125742597D01*
X119178566Y-125699153D01*
X119175725Y-125641723D01*
X119173627Y-125576122D01*
X119172532Y-125508167D01*
X119174860Y-125381378D01*
X119187864Y-125233673D01*
X119212867Y-125095779D01*
X119250682Y-124962014D01*
X119259111Y-124938562D01*
X119278592Y-124890612D01*
X119303527Y-124834140D01*
X119332278Y-124772379D01*
X119363210Y-124708563D01*
X119394685Y-124645926D01*
X119425066Y-124587703D01*
X119452717Y-124537127D01*
X119476001Y-124497433D01*
X119493282Y-124471854D01*
X119502921Y-124463625D01*
X119506016Y-124465076D01*
G36*
X119506016Y-124465076D02*
G01*
X119525921Y-124476250D01*
X119561580Y-124497134D01*
X119610541Y-124526265D01*
X119670354Y-124562181D01*
X119738567Y-124603420D01*
X119812729Y-124648517D01*
X120109992Y-124829785D01*
X120065461Y-124876315D01*
X119987135Y-124967723D01*
X119912561Y-125081334D01*
X119858526Y-125199122D01*
X119825710Y-125319559D01*
X119814789Y-125441117D01*
X119816132Y-125482585D01*
X119834388Y-125600080D01*
X119873383Y-125710089D01*
X119932330Y-125811430D01*
X120010443Y-125902921D01*
X120106936Y-125983380D01*
X120221022Y-126051627D01*
X120255276Y-126067908D01*
X120378760Y-126113982D01*
X120517082Y-126149106D01*
X120666439Y-126173197D01*
X120823027Y-126186173D01*
X120983044Y-126187949D01*
X121142686Y-126178443D01*
X121298150Y-126157572D01*
X121445634Y-126125252D01*
X121581333Y-126081399D01*
X121667924Y-126043982D01*
X121781312Y-125979185D01*
X121874930Y-125903772D01*
X121949041Y-125817418D01*
X122003906Y-125719795D01*
X122039788Y-125610577D01*
X122056949Y-125489439D01*
X122058120Y-125420038D01*
X122043859Y-125297168D01*
X122008759Y-125181664D01*
X121953318Y-125074953D01*
X121878036Y-124978464D01*
X121863560Y-124962720D01*
X121837038Y-124932150D01*
X121819862Y-124909809D01*
X121815213Y-124899691D01*
X121817403Y-124897706D01*
X121836279Y-124883241D01*
X121869603Y-124859400D01*
X121914620Y-124828029D01*
X121968575Y-124790974D01*
X122028715Y-124750083D01*
X122092282Y-124707202D01*
X122156524Y-124664178D01*
X122218685Y-124622857D01*
X122276009Y-124585086D01*
X122325743Y-124552712D01*
X122365132Y-124527582D01*
X122391420Y-124511542D01*
X122401853Y-124506439D01*
X122406059Y-124511050D01*
X122411067Y-124530267D01*
X122413614Y-124539838D01*
X122424751Y-124567809D01*
X122443198Y-124609448D01*
X122467275Y-124660995D01*
X122495301Y-124718690D01*
X122500846Y-124729957D01*
X122580111Y-124907687D01*
X122639615Y-125077490D01*
X122679755Y-125241430D01*
X122700929Y-125401571D01*
X122703534Y-125559977D01*
X122687967Y-125718711D01*
X122670477Y-125814268D01*
X122625436Y-125978558D01*
X122562344Y-126132589D01*
X122480085Y-126278509D01*
X122377543Y-126418466D01*
X122253601Y-126554608D01*
X122208339Y-126598473D01*
X122076135Y-126710758D01*
X121938168Y-126803972D01*
X121790250Y-126880719D01*
X121628197Y-126943603D01*
X121616609Y-126947420D01*
X121430608Y-126997507D01*
X121234479Y-127030899D01*
X121032432Y-127047584D01*
X120828675Y-127047551D01*
X120627419Y-127030791D01*
X120432872Y-126997292D01*
X120249244Y-126947044D01*
X120131947Y-126903190D01*
X119969049Y-126825348D01*
X119815134Y-126731828D01*
X119673329Y-126624822D01*
X119546761Y-126506519D01*
X119438559Y-126379111D01*
X119385880Y-126301606D01*
X119316250Y-126174725D01*
X119257532Y-126037243D01*
X119212413Y-125895716D01*
X119183578Y-125756702D01*
X119181894Y-125742597D01*
X119178566Y-125699153D01*
X119175725Y-125641723D01*
X119173627Y-125576122D01*
X119172532Y-125508167D01*
X119174860Y-125381378D01*
X119187864Y-125233673D01*
X119212867Y-125095779D01*
X119250682Y-124962014D01*
X119259111Y-124938562D01*
X119278592Y-124890612D01*
X119303527Y-124834140D01*
X119332278Y-124772379D01*
X119363210Y-124708563D01*
X119394685Y-124645926D01*
X119425066Y-124587703D01*
X119452717Y-124537127D01*
X119476001Y-124497433D01*
X119493282Y-124471854D01*
X119502921Y-124463625D01*
X119506016Y-124465076D01*
G37*
X119277026Y-119476161D02*
X119286132Y-119481355D01*
X119300751Y-119489715D01*
X119314827Y-119497288D01*
X119329460Y-119504112D01*
X119345751Y-119510227D01*
X119364802Y-119515673D01*
X119387714Y-119520487D01*
X119415587Y-119524708D01*
X119449522Y-119528377D01*
X119490621Y-119531531D01*
X119539985Y-119534211D01*
X119598714Y-119536454D01*
X119667910Y-119538299D01*
X119748674Y-119539787D01*
X119842106Y-119540955D01*
X119949308Y-119541844D01*
X120071380Y-119542491D01*
X120209424Y-119542936D01*
X120364541Y-119543218D01*
X120537832Y-119543375D01*
X120730397Y-119543448D01*
X120943338Y-119543474D01*
X121177755Y-119543493D01*
X122862622Y-119543689D01*
X122862622Y-120449017D01*
X122825933Y-120424585D01*
X122816353Y-120418318D01*
X122770019Y-120392208D01*
X122722898Y-120374469D01*
X122667749Y-120362908D01*
X122597333Y-120355331D01*
X122590350Y-120354839D01*
X122552359Y-120353062D01*
X122498424Y-120351444D01*
X122431297Y-120349999D01*
X122353729Y-120348740D01*
X122268472Y-120347680D01*
X122178276Y-120346829D01*
X122085893Y-120346203D01*
X121994075Y-120345812D01*
X121905573Y-120345670D01*
X121823138Y-120345790D01*
X121749521Y-120346183D01*
X121687474Y-120346862D01*
X121639749Y-120347841D01*
X121609096Y-120349132D01*
X121598267Y-120350747D01*
X121602667Y-120358957D01*
X121617638Y-120380647D01*
X121639552Y-120410014D01*
X121673764Y-120458879D01*
X121720286Y-120547125D01*
X121753954Y-120645916D01*
X121775769Y-120758510D01*
X121786735Y-120888164D01*
X121787781Y-120980670D01*
X121777986Y-121102011D01*
X121753826Y-121212099D01*
X121714215Y-121315389D01*
X121658068Y-121416338D01*
X121627117Y-121461503D01*
X121535885Y-121566911D01*
X121426894Y-121658538D01*
X121300274Y-121736332D01*
X121156155Y-121800241D01*
X120994668Y-121850214D01*
X120815941Y-121886198D01*
X120620105Y-121908143D01*
X120464066Y-121913900D01*
X120407289Y-121915994D01*
X120329842Y-121915268D01*
X120178406Y-121906689D01*
X120041717Y-121887833D01*
X119915724Y-121857837D01*
X119796375Y-121815836D01*
X119679619Y-121760969D01*
X119568821Y-121694167D01*
X119455261Y-121603363D01*
X119359789Y-121499708D01*
X119282927Y-121383887D01*
X119225203Y-121256586D01*
X119187142Y-121118489D01*
X119181334Y-121080793D01*
X119175604Y-121001752D01*
X119175417Y-120913629D01*
X119180461Y-120824236D01*
X119190422Y-120741384D01*
X119195112Y-120719331D01*
X119788459Y-120719331D01*
X119796635Y-120803900D01*
X119824195Y-120877219D01*
X119871358Y-120939637D01*
X119938342Y-120991502D01*
X120025367Y-121033160D01*
X120132650Y-121064962D01*
X120144991Y-121067545D01*
X120206228Y-121076000D01*
X120283308Y-121081663D01*
X120370998Y-121084576D01*
X120464066Y-121084783D01*
X120557280Y-121082330D01*
X120645406Y-121077261D01*
X120723212Y-121069619D01*
X120785467Y-121059448D01*
X120791334Y-121058167D01*
X120901879Y-121029126D01*
X120992425Y-120994610D01*
X121065047Y-120953456D01*
X121121819Y-120904499D01*
X121164816Y-120846574D01*
X121180385Y-120814620D01*
X121199278Y-120741784D01*
X121202535Y-120660443D01*
X121190611Y-120575319D01*
X121163960Y-120491133D01*
X121123038Y-120412608D01*
X121079470Y-120345200D01*
X119929279Y-120345200D01*
X119882911Y-120415756D01*
X119859209Y-120456417D01*
X119833361Y-120510546D01*
X119815171Y-120559689D01*
X119799449Y-120623165D01*
X119788459Y-120719331D01*
X119195112Y-120719331D01*
X119204988Y-120672887D01*
X119214636Y-120642035D01*
X119244877Y-120564730D01*
X119282383Y-120487679D01*
X119323386Y-120418200D01*
X119364121Y-120363615D01*
X119383495Y-120340916D01*
X119401338Y-120318201D01*
X119408222Y-120306779D01*
X119406576Y-120305537D01*
X119388795Y-120302728D01*
X119355630Y-120300776D01*
X119312267Y-120300045D01*
X119216311Y-120300045D01*
X119216311Y-119441896D01*
X119277026Y-119476161D01*
G36*
X119277026Y-119476161D02*
G01*
X119286132Y-119481355D01*
X119300751Y-119489715D01*
X119314827Y-119497288D01*
X119329460Y-119504112D01*
X119345751Y-119510227D01*
X119364802Y-119515673D01*
X119387714Y-119520487D01*
X119415587Y-119524708D01*
X119449522Y-119528377D01*
X119490621Y-119531531D01*
X119539985Y-119534211D01*
X119598714Y-119536454D01*
X119667910Y-119538299D01*
X119748674Y-119539787D01*
X119842106Y-119540955D01*
X119949308Y-119541844D01*
X120071380Y-119542491D01*
X120209424Y-119542936D01*
X120364541Y-119543218D01*
X120537832Y-119543375D01*
X120730397Y-119543448D01*
X120943338Y-119543474D01*
X121177755Y-119543493D01*
X122862622Y-119543689D01*
X122862622Y-120449017D01*
X122825933Y-120424585D01*
X122816353Y-120418318D01*
X122770019Y-120392208D01*
X122722898Y-120374469D01*
X122667749Y-120362908D01*
X122597333Y-120355331D01*
X122590350Y-120354839D01*
X122552359Y-120353062D01*
X122498424Y-120351444D01*
X122431297Y-120349999D01*
X122353729Y-120348740D01*
X122268472Y-120347680D01*
X122178276Y-120346829D01*
X122085893Y-120346203D01*
X121994075Y-120345812D01*
X121905573Y-120345670D01*
X121823138Y-120345790D01*
X121749521Y-120346183D01*
X121687474Y-120346862D01*
X121639749Y-120347841D01*
X121609096Y-120349132D01*
X121598267Y-120350747D01*
X121602667Y-120358957D01*
X121617638Y-120380647D01*
X121639552Y-120410014D01*
X121673764Y-120458879D01*
X121720286Y-120547125D01*
X121753954Y-120645916D01*
X121775769Y-120758510D01*
X121786735Y-120888164D01*
X121787781Y-120980670D01*
X121777986Y-121102011D01*
X121753826Y-121212099D01*
X121714215Y-121315389D01*
X121658068Y-121416338D01*
X121627117Y-121461503D01*
X121535885Y-121566911D01*
X121426894Y-121658538D01*
X121300274Y-121736332D01*
X121156155Y-121800241D01*
X120994668Y-121850214D01*
X120815941Y-121886198D01*
X120620105Y-121908143D01*
X120464066Y-121913900D01*
X120407289Y-121915994D01*
X120329842Y-121915268D01*
X120178406Y-121906689D01*
X120041717Y-121887833D01*
X119915724Y-121857837D01*
X119796375Y-121815836D01*
X119679619Y-121760969D01*
X119568821Y-121694167D01*
X119455261Y-121603363D01*
X119359789Y-121499708D01*
X119282927Y-121383887D01*
X119225203Y-121256586D01*
X119187142Y-121118489D01*
X119181334Y-121080793D01*
X119175604Y-121001752D01*
X119175417Y-120913629D01*
X119180461Y-120824236D01*
X119190422Y-120741384D01*
X119195112Y-120719331D01*
X119788459Y-120719331D01*
X119796635Y-120803900D01*
X119824195Y-120877219D01*
X119871358Y-120939637D01*
X119938342Y-120991502D01*
X120025367Y-121033160D01*
X120132650Y-121064962D01*
X120144991Y-121067545D01*
X120206228Y-121076000D01*
X120283308Y-121081663D01*
X120370998Y-121084576D01*
X120464066Y-121084783D01*
X120557280Y-121082330D01*
X120645406Y-121077261D01*
X120723212Y-121069619D01*
X120785467Y-121059448D01*
X120791334Y-121058167D01*
X120901879Y-121029126D01*
X120992425Y-120994610D01*
X121065047Y-120953456D01*
X121121819Y-120904499D01*
X121164816Y-120846574D01*
X121180385Y-120814620D01*
X121199278Y-120741784D01*
X121202535Y-120660443D01*
X121190611Y-120575319D01*
X121163960Y-120491133D01*
X121123038Y-120412608D01*
X121079470Y-120345200D01*
X119929279Y-120345200D01*
X119882911Y-120415756D01*
X119859209Y-120456417D01*
X119833361Y-120510546D01*
X119815171Y-120559689D01*
X119799449Y-120623165D01*
X119788459Y-120719331D01*
X119195112Y-120719331D01*
X119204988Y-120672887D01*
X119214636Y-120642035D01*
X119244877Y-120564730D01*
X119282383Y-120487679D01*
X119323386Y-120418200D01*
X119364121Y-120363615D01*
X119383495Y-120340916D01*
X119401338Y-120318201D01*
X119408222Y-120306779D01*
X119406576Y-120305537D01*
X119388795Y-120302728D01*
X119355630Y-120300776D01*
X119312267Y-120300045D01*
X119216311Y-120300045D01*
X119216311Y-119441896D01*
X119277026Y-119476161D01*
G37*
X119226537Y-122117578D02*
X119242090Y-122124614D01*
X119264929Y-122140434D01*
X119270362Y-122144734D01*
X119284394Y-122155777D01*
X119297814Y-122165311D01*
X119312278Y-122173461D01*
X119329444Y-122180352D01*
X119350966Y-122186111D01*
X119378502Y-122190862D01*
X119413708Y-122194731D01*
X119458240Y-122197844D01*
X119513754Y-122200325D01*
X119581907Y-122202300D01*
X119664355Y-122203894D01*
X119762754Y-122205234D01*
X119878761Y-122206444D01*
X120014032Y-122207649D01*
X120170222Y-122208975D01*
X120312988Y-122210228D01*
X120458058Y-122211651D01*
X120583973Y-122213176D01*
X120692564Y-122214933D01*
X120785666Y-122217051D01*
X120865109Y-122219660D01*
X120932727Y-122222890D01*
X120990351Y-122226869D01*
X121039815Y-122231728D01*
X121082950Y-122237597D01*
X121121590Y-122244604D01*
X121157566Y-122252880D01*
X121192711Y-122262554D01*
X121228858Y-122273756D01*
X121267839Y-122286616D01*
X121310909Y-122302090D01*
X121403129Y-122344994D01*
X121482901Y-122398735D01*
X121557035Y-122467576D01*
X121620595Y-122545185D01*
X121682275Y-122649761D01*
X121729798Y-122769244D01*
X121763433Y-122904508D01*
X121783448Y-123056426D01*
X121790111Y-123225872D01*
X121789713Y-123283890D01*
X121787665Y-123349398D01*
X121783296Y-123410693D01*
X121775965Y-123472097D01*
X121765031Y-123537932D01*
X121749853Y-123612520D01*
X121729791Y-123700184D01*
X121704203Y-123805245D01*
X121697180Y-123833806D01*
X121679224Y-123909054D01*
X121663180Y-123979388D01*
X121649972Y-124040567D01*
X121640526Y-124088354D01*
X121635769Y-124118511D01*
X121632090Y-124146783D01*
X121626813Y-124173060D01*
X121622058Y-124183059D01*
X121613219Y-124179952D01*
X121585928Y-124169194D01*
X121543094Y-124151864D01*
X121487575Y-124129126D01*
X121422228Y-124102147D01*
X121349911Y-124072090D01*
X121334121Y-124065493D01*
X121243516Y-124026907D01*
X121173783Y-123995768D01*
X121124595Y-123971917D01*
X121095626Y-123955198D01*
X121086548Y-123945454D01*
X121088595Y-123937766D01*
X121098240Y-123911415D01*
X121113810Y-123872982D01*
X121133185Y-123827822D01*
X121171186Y-123733293D01*
X121212220Y-123596480D01*
X121237388Y-123455289D01*
X121241389Y-123417314D01*
X121243553Y-123314059D01*
X121230378Y-123226952D01*
X121201244Y-123155129D01*
X121155534Y-123097731D01*
X121092628Y-123053896D01*
X121011908Y-123022762D01*
X120912755Y-123003470D01*
X120853776Y-122996050D01*
X120860555Y-123157936D01*
X120862187Y-123284495D01*
X120855806Y-123435951D01*
X120841223Y-123584396D01*
X120819118Y-123720578D01*
X120804179Y-123785245D01*
X120761259Y-123917490D01*
X120704660Y-124039762D01*
X120635983Y-124149685D01*
X120556830Y-124244883D01*
X120468804Y-124322980D01*
X120373507Y-124381599D01*
X120321136Y-124405595D01*
X120250410Y-124431232D01*
X120179188Y-124447478D01*
X120100288Y-124455822D01*
X120009718Y-124457690D01*
X120006533Y-124457755D01*
X119972637Y-124457261D01*
X119897798Y-124453632D01*
X119835599Y-124446022D01*
X119779016Y-124433688D01*
X119652924Y-124389313D01*
X119538321Y-124326400D01*
X119437432Y-124246238D01*
X119351076Y-124149740D01*
X119280068Y-124037822D01*
X119225224Y-123911397D01*
X119187362Y-123771378D01*
X119181649Y-123735149D01*
X119175687Y-123656155D01*
X119175354Y-123567841D01*
X119180341Y-123478075D01*
X119190334Y-123394722D01*
X119195453Y-123370648D01*
X119738617Y-123370648D01*
X119741460Y-123446011D01*
X119753380Y-123506743D01*
X119775963Y-123558452D01*
X119810789Y-123606746D01*
X119815202Y-123611803D01*
X119870840Y-123660272D01*
X119934667Y-123688459D01*
X120009718Y-123697752D01*
X120081307Y-123690520D01*
X120144355Y-123665796D01*
X120202242Y-123621249D01*
X120249192Y-123566319D01*
X120289039Y-123493894D01*
X120316737Y-123407340D01*
X120332904Y-123304670D01*
X120338158Y-123183894D01*
X120338143Y-123175007D01*
X120337345Y-123119660D01*
X120335512Y-123072736D01*
X120332889Y-123038953D01*
X120329726Y-123023028D01*
X120323259Y-123018943D01*
X120301125Y-123014572D01*
X120262012Y-123011604D01*
X120204061Y-123009914D01*
X120125414Y-123009378D01*
X119929538Y-123009378D01*
X119873027Y-123054048D01*
X119857788Y-123066785D01*
X119815156Y-123113604D01*
X119779328Y-123174255D01*
X119774150Y-123184897D01*
X119757255Y-123223676D01*
X119747091Y-123258692D01*
X119741675Y-123298722D01*
X119739022Y-123352541D01*
X119738617Y-123370648D01*
X119195453Y-123370648D01*
X119205022Y-123325651D01*
X119235251Y-123239187D01*
X119289943Y-123129286D01*
X119357457Y-123031956D01*
X119408444Y-122969867D01*
X119312378Y-122966605D01*
X119216311Y-122963343D01*
X119216311Y-122540450D01*
X119216314Y-122529543D01*
X119216620Y-122435056D01*
X119217384Y-122348331D01*
X119218549Y-122271837D01*
X119220058Y-122208043D01*
X119221853Y-122159418D01*
X119223879Y-122128433D01*
X119226078Y-122117556D01*
X119226537Y-122117578D01*
G36*
X119226537Y-122117578D02*
G01*
X119242090Y-122124614D01*
X119264929Y-122140434D01*
X119270362Y-122144734D01*
X119284394Y-122155777D01*
X119297814Y-122165311D01*
X119312278Y-122173461D01*
X119329444Y-122180352D01*
X119350966Y-122186111D01*
X119378502Y-122190862D01*
X119413708Y-122194731D01*
X119458240Y-122197844D01*
X119513754Y-122200325D01*
X119581907Y-122202300D01*
X119664355Y-122203894D01*
X119762754Y-122205234D01*
X119878761Y-122206444D01*
X120014032Y-122207649D01*
X120170222Y-122208975D01*
X120312988Y-122210228D01*
X120458058Y-122211651D01*
X120583973Y-122213176D01*
X120692564Y-122214933D01*
X120785666Y-122217051D01*
X120865109Y-122219660D01*
X120932727Y-122222890D01*
X120990351Y-122226869D01*
X121039815Y-122231728D01*
X121082950Y-122237597D01*
X121121590Y-122244604D01*
X121157566Y-122252880D01*
X121192711Y-122262554D01*
X121228858Y-122273756D01*
X121267839Y-122286616D01*
X121310909Y-122302090D01*
X121403129Y-122344994D01*
X121482901Y-122398735D01*
X121557035Y-122467576D01*
X121620595Y-122545185D01*
X121682275Y-122649761D01*
X121729798Y-122769244D01*
X121763433Y-122904508D01*
X121783448Y-123056426D01*
X121790111Y-123225872D01*
X121789713Y-123283890D01*
X121787665Y-123349398D01*
X121783296Y-123410693D01*
X121775965Y-123472097D01*
X121765031Y-123537932D01*
X121749853Y-123612520D01*
X121729791Y-123700184D01*
X121704203Y-123805245D01*
X121697180Y-123833806D01*
X121679224Y-123909054D01*
X121663180Y-123979388D01*
X121649972Y-124040567D01*
X121640526Y-124088354D01*
X121635769Y-124118511D01*
X121632090Y-124146783D01*
X121626813Y-124173060D01*
X121622058Y-124183059D01*
X121613219Y-124179952D01*
X121585928Y-124169194D01*
X121543094Y-124151864D01*
X121487575Y-124129126D01*
X121422228Y-124102147D01*
X121349911Y-124072090D01*
X121334121Y-124065493D01*
X121243516Y-124026907D01*
X121173783Y-123995768D01*
X121124595Y-123971917D01*
X121095626Y-123955198D01*
X121086548Y-123945454D01*
X121088595Y-123937766D01*
X121098240Y-123911415D01*
X121113810Y-123872982D01*
X121133185Y-123827822D01*
X121171186Y-123733293D01*
X121212220Y-123596480D01*
X121237388Y-123455289D01*
X121241389Y-123417314D01*
X121243553Y-123314059D01*
X121230378Y-123226952D01*
X121201244Y-123155129D01*
X121155534Y-123097731D01*
X121092628Y-123053896D01*
X121011908Y-123022762D01*
X120912755Y-123003470D01*
X120853776Y-122996050D01*
X120860555Y-123157936D01*
X120862187Y-123284495D01*
X120855806Y-123435951D01*
X120841223Y-123584396D01*
X120819118Y-123720578D01*
X120804179Y-123785245D01*
X120761259Y-123917490D01*
X120704660Y-124039762D01*
X120635983Y-124149685D01*
X120556830Y-124244883D01*
X120468804Y-124322980D01*
X120373507Y-124381599D01*
X120321136Y-124405595D01*
X120250410Y-124431232D01*
X120179188Y-124447478D01*
X120100288Y-124455822D01*
X120009718Y-124457690D01*
X120006533Y-124457755D01*
X119972637Y-124457261D01*
X119897798Y-124453632D01*
X119835599Y-124446022D01*
X119779016Y-124433688D01*
X119652924Y-124389313D01*
X119538321Y-124326400D01*
X119437432Y-124246238D01*
X119351076Y-124149740D01*
X119280068Y-124037822D01*
X119225224Y-123911397D01*
X119187362Y-123771378D01*
X119181649Y-123735149D01*
X119175687Y-123656155D01*
X119175354Y-123567841D01*
X119180341Y-123478075D01*
X119190334Y-123394722D01*
X119195453Y-123370648D01*
X119738617Y-123370648D01*
X119741460Y-123446011D01*
X119753380Y-123506743D01*
X119775963Y-123558452D01*
X119810789Y-123606746D01*
X119815202Y-123611803D01*
X119870840Y-123660272D01*
X119934667Y-123688459D01*
X120009718Y-123697752D01*
X120081307Y-123690520D01*
X120144355Y-123665796D01*
X120202242Y-123621249D01*
X120249192Y-123566319D01*
X120289039Y-123493894D01*
X120316737Y-123407340D01*
X120332904Y-123304670D01*
X120338158Y-123183894D01*
X120338143Y-123175007D01*
X120337345Y-123119660D01*
X120335512Y-123072736D01*
X120332889Y-123038953D01*
X120329726Y-123023028D01*
X120323259Y-123018943D01*
X120301125Y-123014572D01*
X120262012Y-123011604D01*
X120204061Y-123009914D01*
X120125414Y-123009378D01*
X119929538Y-123009378D01*
X119873027Y-123054048D01*
X119857788Y-123066785D01*
X119815156Y-123113604D01*
X119779328Y-123174255D01*
X119774150Y-123184897D01*
X119757255Y-123223676D01*
X119747091Y-123258692D01*
X119741675Y-123298722D01*
X119739022Y-123352541D01*
X119738617Y-123370648D01*
X119195453Y-123370648D01*
X119205022Y-123325651D01*
X119235251Y-123239187D01*
X119289943Y-123129286D01*
X119357457Y-123031956D01*
X119408444Y-122969867D01*
X119312378Y-122966605D01*
X119216311Y-122963343D01*
X119216311Y-122540450D01*
X119216314Y-122529543D01*
X119216620Y-122435056D01*
X119217384Y-122348331D01*
X119218549Y-122271837D01*
X119220058Y-122208043D01*
X119221853Y-122159418D01*
X119223879Y-122128433D01*
X119226078Y-122117556D01*
X119226537Y-122117578D01*
G37*
X123219351Y-127326249D02*
X123243089Y-127353355D01*
X123254889Y-127380253D01*
X123257733Y-127416560D01*
X123257733Y-127468489D01*
X123169794Y-127468489D01*
X123119898Y-127470427D01*
X123009477Y-127489199D01*
X122908013Y-127526217D01*
X122816848Y-127579369D01*
X122737327Y-127646546D01*
X122670795Y-127725638D01*
X122618594Y-127814534D01*
X122582070Y-127911125D01*
X122562566Y-128013300D01*
X122561427Y-128118950D01*
X122579995Y-128225964D01*
X122619616Y-128332232D01*
X122677484Y-128429219D01*
X122752316Y-128514293D01*
X122840385Y-128583015D01*
X122939384Y-128633918D01*
X123047007Y-128665535D01*
X123160946Y-128676400D01*
X123257733Y-128676400D01*
X123257733Y-130296753D01*
X123257720Y-130507897D01*
X123257670Y-130712020D01*
X123257570Y-130895686D01*
X123257408Y-131059991D01*
X123257171Y-131206029D01*
X123256847Y-131334894D01*
X123256425Y-131447683D01*
X123255891Y-131545488D01*
X123255233Y-131629404D01*
X123254439Y-131700527D01*
X123253496Y-131759950D01*
X123252392Y-131808768D01*
X123251116Y-131848077D01*
X123249653Y-131878969D01*
X123247993Y-131902541D01*
X123246122Y-131919886D01*
X123244028Y-131932099D01*
X123241700Y-131940275D01*
X123239124Y-131945508D01*
X123235555Y-131951504D01*
X123232022Y-131958279D01*
X123228512Y-131964478D01*
X123224082Y-131970126D01*
X123217792Y-131975247D01*
X123208699Y-131979869D01*
X123195861Y-131984015D01*
X123178338Y-131987713D01*
X123155187Y-131990987D01*
X123125466Y-131993863D01*
X123088235Y-131996367D01*
X123042551Y-131998524D01*
X122987473Y-132000360D01*
X122922059Y-132001900D01*
X122845367Y-132003170D01*
X122756456Y-132004195D01*
X122654383Y-132005001D01*
X122648133Y-132005034D01*
X122538208Y-132005614D01*
X122406989Y-132006059D01*
X122259784Y-132006362D01*
X122095651Y-132006548D01*
X121913648Y-132006642D01*
X121712835Y-132006671D01*
X121492268Y-132006661D01*
X121251008Y-132006636D01*
X120988111Y-132006622D01*
X120945960Y-132006622D01*
X120685332Y-132006646D01*
X120446204Y-132006685D01*
X120227640Y-132006708D01*
X120028705Y-132006687D01*
X119848465Y-132006593D01*
X119685985Y-132006395D01*
X119540330Y-132006063D01*
X119410566Y-132005569D01*
X119295757Y-132004883D01*
X119194970Y-132003976D01*
X119107270Y-132002817D01*
X119031721Y-132001378D01*
X118967389Y-131999629D01*
X118913339Y-131997540D01*
X118868637Y-131995083D01*
X118832348Y-131992227D01*
X118803537Y-131988943D01*
X118781269Y-131985202D01*
X118764610Y-131980974D01*
X118752625Y-131976229D01*
X118744379Y-131970939D01*
X118738938Y-131965073D01*
X118735366Y-131958602D01*
X118732730Y-131951497D01*
X118730094Y-131943728D01*
X118726523Y-131935266D01*
X118724855Y-131930908D01*
X118722889Y-131922395D01*
X118721089Y-131909694D01*
X118719445Y-131891885D01*
X118717953Y-131868049D01*
X118716603Y-131837266D01*
X118715389Y-131798617D01*
X118714303Y-131751182D01*
X118713339Y-131694043D01*
X118712489Y-131626279D01*
X118711747Y-131546971D01*
X118711103Y-131455199D01*
X118710553Y-131350044D01*
X118710087Y-131230587D01*
X118709700Y-131095908D01*
X118709384Y-130945088D01*
X118709131Y-130777206D01*
X118708934Y-130591345D01*
X118708787Y-130386583D01*
X118708682Y-130162002D01*
X118708613Y-129925090D01*
X119227600Y-129925090D01*
X119303800Y-129924456D01*
X119345840Y-129925574D01*
X119381666Y-129931304D01*
X119419228Y-129943890D01*
X119467423Y-129965568D01*
X119474103Y-129968789D01*
X119523641Y-129994188D01*
X119571631Y-130020996D01*
X119608534Y-130043917D01*
X119615166Y-130048485D01*
X119646407Y-130070516D01*
X119691346Y-130102693D01*
X119747853Y-130143457D01*
X119813796Y-130191245D01*
X119887043Y-130244498D01*
X119965464Y-130301655D01*
X120046928Y-130361155D01*
X120129302Y-130421437D01*
X120210456Y-130480940D01*
X120288258Y-130538105D01*
X120360577Y-130591370D01*
X120425282Y-130639174D01*
X120480241Y-130679957D01*
X120523324Y-130712158D01*
X120552398Y-130734216D01*
X120565333Y-130744571D01*
X120569649Y-130749044D01*
X120571688Y-130753236D01*
X120569074Y-130756643D01*
X120560014Y-130759325D01*
X120542715Y-130761341D01*
X120515386Y-130762748D01*
X120476235Y-130763605D01*
X120423467Y-130763970D01*
X120355293Y-130763903D01*
X120269918Y-130763460D01*
X120165551Y-130762702D01*
X120040400Y-130761685D01*
X119995700Y-130761308D01*
X119874605Y-130760169D01*
X119773312Y-130758972D01*
X119689738Y-130757636D01*
X119621796Y-130756077D01*
X119567401Y-130754215D01*
X119524468Y-130751966D01*
X119490911Y-130749248D01*
X119464645Y-130745979D01*
X119443584Y-130742078D01*
X119425643Y-130737461D01*
X119399230Y-130729192D01*
X119337228Y-130705583D01*
X119284427Y-130679685D01*
X119247355Y-130654535D01*
X119245925Y-130653339D01*
X119241576Y-130651168D01*
X119237974Y-130653328D01*
X119235049Y-130661644D01*
X119232731Y-130677940D01*
X119230949Y-130704041D01*
X119229633Y-130741771D01*
X119228714Y-130792956D01*
X119228122Y-130859420D01*
X119227785Y-130942987D01*
X119227635Y-131045483D01*
X119227600Y-131168732D01*
X119227600Y-131700296D01*
X119285217Y-131661523D01*
X119294107Y-131655432D01*
X119308931Y-131644976D01*
X119322578Y-131635579D01*
X119336235Y-131627183D01*
X119351089Y-131619733D01*
X119368330Y-131613173D01*
X119389145Y-131607446D01*
X119414720Y-131602495D01*
X119446245Y-131598266D01*
X119484907Y-131594701D01*
X119531893Y-131591744D01*
X119588392Y-131589340D01*
X119655591Y-131587431D01*
X119734678Y-131585962D01*
X119826840Y-131584876D01*
X119933266Y-131584118D01*
X120055143Y-131583630D01*
X120193659Y-131583358D01*
X120350001Y-131583243D01*
X120525358Y-131583231D01*
X120720918Y-131583265D01*
X120937867Y-131583289D01*
X121060487Y-131583280D01*
X121265553Y-131583243D01*
X121449884Y-131583227D01*
X121614666Y-131583288D01*
X121761084Y-131583484D01*
X121890326Y-131583870D01*
X122003578Y-131584505D01*
X122102025Y-131585444D01*
X122186856Y-131586745D01*
X122259256Y-131588464D01*
X122320411Y-131590659D01*
X122371508Y-131593385D01*
X122413733Y-131596701D01*
X122448273Y-131600662D01*
X122476314Y-131605325D01*
X122499042Y-131610747D01*
X122517644Y-131616986D01*
X122533307Y-131624097D01*
X122547216Y-131632138D01*
X122560559Y-131641166D01*
X122574521Y-131651236D01*
X122590289Y-131662407D01*
X122648133Y-131702197D01*
X122648133Y-130642314D01*
X122585034Y-130680311D01*
X122559995Y-130694993D01*
X122532414Y-130709531D01*
X122504300Y-130721627D01*
X122473449Y-130731532D01*
X122437656Y-130739494D01*
X122394717Y-130745761D01*
X122342426Y-130750582D01*
X122278581Y-130754206D01*
X122200975Y-130756881D01*
X122107406Y-130758857D01*
X121995667Y-130760382D01*
X121863555Y-130761704D01*
X121743566Y-130762613D01*
X121626937Y-130763020D01*
X121531469Y-130762767D01*
X121457444Y-130761857D01*
X121405145Y-130760293D01*
X121374851Y-130758079D01*
X121366844Y-130755220D01*
X121370142Y-130752161D01*
X121391592Y-130734006D01*
X121428111Y-130704275D01*
X121477558Y-130664639D01*
X121537793Y-130616771D01*
X121606673Y-130562343D01*
X121682057Y-130503027D01*
X121761804Y-130440495D01*
X121843772Y-130376421D01*
X121925820Y-130312475D01*
X122005806Y-130250331D01*
X122081589Y-130191661D01*
X122151027Y-130138137D01*
X122211979Y-130091430D01*
X122262304Y-130053214D01*
X122299860Y-130025161D01*
X122322505Y-130008943D01*
X122394788Y-129963635D01*
X122474537Y-129923661D01*
X122542812Y-129902130D01*
X122600156Y-129898827D01*
X122648133Y-129904116D01*
X122647883Y-128772356D01*
X122617278Y-128811867D01*
X122609911Y-128821248D01*
X122555562Y-128884183D01*
X122487741Y-128952997D01*
X122404484Y-129029596D01*
X122303822Y-129115888D01*
X122283153Y-129133052D01*
X122233591Y-129173833D01*
X122172674Y-129223588D01*
X122102102Y-129280955D01*
X122023576Y-129344569D01*
X121938796Y-129413069D01*
X121849463Y-129485090D01*
X121757278Y-129559270D01*
X121738298Y-129574517D01*
X121663940Y-129634246D01*
X121571152Y-129708653D01*
X121480612Y-129781131D01*
X121394022Y-129850314D01*
X121313082Y-129914841D01*
X121239494Y-129973347D01*
X121174956Y-130024470D01*
X121121171Y-130066847D01*
X121079838Y-130099115D01*
X121052658Y-130119910D01*
X121041332Y-130127869D01*
X121037229Y-130126111D01*
X121016666Y-130113230D01*
X120980439Y-130088885D01*
X120930176Y-130054247D01*
X120867508Y-130010486D01*
X120794064Y-129958775D01*
X120711473Y-129900284D01*
X120621364Y-129836184D01*
X120525369Y-129767646D01*
X120425115Y-129695843D01*
X120322232Y-129621944D01*
X120218350Y-129547121D01*
X120115099Y-129472545D01*
X120014108Y-129399387D01*
X119917006Y-129328819D01*
X119825423Y-129262011D01*
X119740989Y-129200135D01*
X119665333Y-129144361D01*
X119600084Y-129095862D01*
X119546872Y-129055807D01*
X119507327Y-129025369D01*
X119481974Y-129004944D01*
X119427705Y-128958899D01*
X119371225Y-128908612D01*
X119321331Y-128861815D01*
X119227600Y-128770651D01*
X119227600Y-129925090D01*
X118708613Y-129925090D01*
X118708611Y-129916682D01*
X118708568Y-129649704D01*
X118708563Y-129611321D01*
X118708520Y-129345922D01*
X118708475Y-129102050D01*
X118708452Y-128878783D01*
X118708476Y-128675196D01*
X118708570Y-128490367D01*
X118708757Y-128323373D01*
X118709061Y-128173290D01*
X118709396Y-128072445D01*
X119227600Y-128072445D01*
X119227651Y-128141356D01*
X119227909Y-128239607D01*
X119228363Y-128329030D01*
X119228990Y-128407333D01*
X119229765Y-128472223D01*
X119230665Y-128521411D01*
X119231666Y-128552604D01*
X119232743Y-128563511D01*
X119235963Y-128562322D01*
X119253548Y-128552176D01*
X119279842Y-128535040D01*
X119292309Y-128526540D01*
X119306378Y-128517329D01*
X119320649Y-128509233D01*
X119336521Y-128502185D01*
X119355391Y-128496117D01*
X119378659Y-128490961D01*
X119407722Y-128486651D01*
X119443979Y-128483119D01*
X119488830Y-128480297D01*
X119543672Y-128478118D01*
X119609903Y-128476514D01*
X119688923Y-128475419D01*
X119782129Y-128474765D01*
X119890921Y-128474484D01*
X120016697Y-128474509D01*
X120160855Y-128474772D01*
X120324793Y-128475206D01*
X120509911Y-128475745D01*
X120688768Y-128476279D01*
X120847626Y-128476805D01*
X120986684Y-128477350D01*
X121107335Y-128477945D01*
X121210972Y-128478619D01*
X121298989Y-128479403D01*
X121372777Y-128480326D01*
X121433731Y-128481419D01*
X121483243Y-128482712D01*
X121522707Y-128484235D01*
X121553516Y-128486019D01*
X121577062Y-128488092D01*
X121594740Y-128490486D01*
X121607941Y-128493230D01*
X121618060Y-128496356D01*
X121626489Y-128499892D01*
X121634625Y-128503791D01*
X121671456Y-128523438D01*
X121701609Y-128542225D01*
X121703092Y-128543272D01*
X121725341Y-128557602D01*
X121738298Y-128563511D01*
X121738751Y-128562504D01*
X121740197Y-128545305D01*
X121741520Y-128508656D01*
X121742684Y-128454962D01*
X121743653Y-128386630D01*
X121744389Y-128306064D01*
X121744858Y-128215670D01*
X121745022Y-128117853D01*
X121745022Y-127672195D01*
X120568155Y-127669120D01*
X119391289Y-127666045D01*
X119332378Y-127639407D01*
X119307817Y-127627485D01*
X119277566Y-127610246D01*
X119260440Y-127597074D01*
X119252409Y-127589076D01*
X119237507Y-127581378D01*
X119236235Y-127585260D01*
X119234209Y-127608520D01*
X119232374Y-127650874D01*
X119230773Y-127710132D01*
X119229451Y-127784107D01*
X119228452Y-127870610D01*
X119227820Y-127967452D01*
X119227600Y-128072445D01*
X118709396Y-128072445D01*
X118709506Y-128039196D01*
X118710115Y-127920166D01*
X118710911Y-127815279D01*
X118711920Y-127723610D01*
X118713163Y-127644237D01*
X118714665Y-127576237D01*
X118716449Y-127518686D01*
X118718539Y-127470662D01*
X118720958Y-127431240D01*
X118723730Y-127399499D01*
X118726879Y-127374514D01*
X118730428Y-127355364D01*
X118734402Y-127341123D01*
X118738822Y-127330871D01*
X118743714Y-127323682D01*
X118749100Y-127318635D01*
X118755004Y-127314805D01*
X118761451Y-127311271D01*
X118768463Y-127307108D01*
X118770313Y-127306025D01*
X118775820Y-127303813D01*
X118784132Y-127301786D01*
X118796191Y-127299938D01*
X118812937Y-127298261D01*
X118835313Y-127296745D01*
X118864260Y-127295383D01*
X118900720Y-127294167D01*
X118945633Y-127293089D01*
X118999943Y-127292140D01*
X119064590Y-127291312D01*
X119140516Y-127290597D01*
X119228662Y-127289987D01*
X119329971Y-127289474D01*
X119445383Y-127289050D01*
X119575840Y-127288706D01*
X119722284Y-127288434D01*
X119885656Y-127288227D01*
X120066899Y-127288076D01*
X120266952Y-127287972D01*
X120486759Y-127287908D01*
X120727261Y-127287876D01*
X120989398Y-127287867D01*
X123180969Y-127287867D01*
X123219351Y-127326249D01*
G36*
X123219351Y-127326249D02*
G01*
X123243089Y-127353355D01*
X123254889Y-127380253D01*
X123257733Y-127416560D01*
X123257733Y-127468489D01*
X123169794Y-127468489D01*
X123119898Y-127470427D01*
X123009477Y-127489199D01*
X122908013Y-127526217D01*
X122816848Y-127579369D01*
X122737327Y-127646546D01*
X122670795Y-127725638D01*
X122618594Y-127814534D01*
X122582070Y-127911125D01*
X122562566Y-128013300D01*
X122561427Y-128118950D01*
X122579995Y-128225964D01*
X122619616Y-128332232D01*
X122677484Y-128429219D01*
X122752316Y-128514293D01*
X122840385Y-128583015D01*
X122939384Y-128633918D01*
X123047007Y-128665535D01*
X123160946Y-128676400D01*
X123257733Y-128676400D01*
X123257733Y-130296753D01*
X123257720Y-130507897D01*
X123257670Y-130712020D01*
X123257570Y-130895686D01*
X123257408Y-131059991D01*
X123257171Y-131206029D01*
X123256847Y-131334894D01*
X123256425Y-131447683D01*
X123255891Y-131545488D01*
X123255233Y-131629404D01*
X123254439Y-131700527D01*
X123253496Y-131759950D01*
X123252392Y-131808768D01*
X123251116Y-131848077D01*
X123249653Y-131878969D01*
X123247993Y-131902541D01*
X123246122Y-131919886D01*
X123244028Y-131932099D01*
X123241700Y-131940275D01*
X123239124Y-131945508D01*
X123235555Y-131951504D01*
X123232022Y-131958279D01*
X123228512Y-131964478D01*
X123224082Y-131970126D01*
X123217792Y-131975247D01*
X123208699Y-131979869D01*
X123195861Y-131984015D01*
X123178338Y-131987713D01*
X123155187Y-131990987D01*
X123125466Y-131993863D01*
X123088235Y-131996367D01*
X123042551Y-131998524D01*
X122987473Y-132000360D01*
X122922059Y-132001900D01*
X122845367Y-132003170D01*
X122756456Y-132004195D01*
X122654383Y-132005001D01*
X122648133Y-132005034D01*
X122538208Y-132005614D01*
X122406989Y-132006059D01*
X122259784Y-132006362D01*
X122095651Y-132006548D01*
X121913648Y-132006642D01*
X121712835Y-132006671D01*
X121492268Y-132006661D01*
X121251008Y-132006636D01*
X120988111Y-132006622D01*
X120945960Y-132006622D01*
X120685332Y-132006646D01*
X120446204Y-132006685D01*
X120227640Y-132006708D01*
X120028705Y-132006687D01*
X119848465Y-132006593D01*
X119685985Y-132006395D01*
X119540330Y-132006063D01*
X119410566Y-132005569D01*
X119295757Y-132004883D01*
X119194970Y-132003976D01*
X119107270Y-132002817D01*
X119031721Y-132001378D01*
X118967389Y-131999629D01*
X118913339Y-131997540D01*
X118868637Y-131995083D01*
X118832348Y-131992227D01*
X118803537Y-131988943D01*
X118781269Y-131985202D01*
X118764610Y-131980974D01*
X118752625Y-131976229D01*
X118744379Y-131970939D01*
X118738938Y-131965073D01*
X118735366Y-131958602D01*
X118732730Y-131951497D01*
X118730094Y-131943728D01*
X118726523Y-131935266D01*
X118724855Y-131930908D01*
X118722889Y-131922395D01*
X118721089Y-131909694D01*
X118719445Y-131891885D01*
X118717953Y-131868049D01*
X118716603Y-131837266D01*
X118715389Y-131798617D01*
X118714303Y-131751182D01*
X118713339Y-131694043D01*
X118712489Y-131626279D01*
X118711747Y-131546971D01*
X118711103Y-131455199D01*
X118710553Y-131350044D01*
X118710087Y-131230587D01*
X118709700Y-131095908D01*
X118709384Y-130945088D01*
X118709131Y-130777206D01*
X118708934Y-130591345D01*
X118708787Y-130386583D01*
X118708682Y-130162002D01*
X118708613Y-129925090D01*
X119227600Y-129925090D01*
X119303800Y-129924456D01*
X119345840Y-129925574D01*
X119381666Y-129931304D01*
X119419228Y-129943890D01*
X119467423Y-129965568D01*
X119474103Y-129968789D01*
X119523641Y-129994188D01*
X119571631Y-130020996D01*
X119608534Y-130043917D01*
X119615166Y-130048485D01*
X119646407Y-130070516D01*
X119691346Y-130102693D01*
X119747853Y-130143457D01*
X119813796Y-130191245D01*
X119887043Y-130244498D01*
X119965464Y-130301655D01*
X120046928Y-130361155D01*
X120129302Y-130421437D01*
X120210456Y-130480940D01*
X120288258Y-130538105D01*
X120360577Y-130591370D01*
X120425282Y-130639174D01*
X120480241Y-130679957D01*
X120523324Y-130712158D01*
X120552398Y-130734216D01*
X120565333Y-130744571D01*
X120569649Y-130749044D01*
X120571688Y-130753236D01*
X120569074Y-130756643D01*
X120560014Y-130759325D01*
X120542715Y-130761341D01*
X120515386Y-130762748D01*
X120476235Y-130763605D01*
X120423467Y-130763970D01*
X120355293Y-130763903D01*
X120269918Y-130763460D01*
X120165551Y-130762702D01*
X120040400Y-130761685D01*
X119995700Y-130761308D01*
X119874605Y-130760169D01*
X119773312Y-130758972D01*
X119689738Y-130757636D01*
X119621796Y-130756077D01*
X119567401Y-130754215D01*
X119524468Y-130751966D01*
X119490911Y-130749248D01*
X119464645Y-130745979D01*
X119443584Y-130742078D01*
X119425643Y-130737461D01*
X119399230Y-130729192D01*
X119337228Y-130705583D01*
X119284427Y-130679685D01*
X119247355Y-130654535D01*
X119245925Y-130653339D01*
X119241576Y-130651168D01*
X119237974Y-130653328D01*
X119235049Y-130661644D01*
X119232731Y-130677940D01*
X119230949Y-130704041D01*
X119229633Y-130741771D01*
X119228714Y-130792956D01*
X119228122Y-130859420D01*
X119227785Y-130942987D01*
X119227635Y-131045483D01*
X119227600Y-131168732D01*
X119227600Y-131700296D01*
X119285217Y-131661523D01*
X119294107Y-131655432D01*
X119308931Y-131644976D01*
X119322578Y-131635579D01*
X119336235Y-131627183D01*
X119351089Y-131619733D01*
X119368330Y-131613173D01*
X119389145Y-131607446D01*
X119414720Y-131602495D01*
X119446245Y-131598266D01*
X119484907Y-131594701D01*
X119531893Y-131591744D01*
X119588392Y-131589340D01*
X119655591Y-131587431D01*
X119734678Y-131585962D01*
X119826840Y-131584876D01*
X119933266Y-131584118D01*
X120055143Y-131583630D01*
X120193659Y-131583358D01*
X120350001Y-131583243D01*
X120525358Y-131583231D01*
X120720918Y-131583265D01*
X120937867Y-131583289D01*
X121060487Y-131583280D01*
X121265553Y-131583243D01*
X121449884Y-131583227D01*
X121614666Y-131583288D01*
X121761084Y-131583484D01*
X121890326Y-131583870D01*
X122003578Y-131584505D01*
X122102025Y-131585444D01*
X122186856Y-131586745D01*
X122259256Y-131588464D01*
X122320411Y-131590659D01*
X122371508Y-131593385D01*
X122413733Y-131596701D01*
X122448273Y-131600662D01*
X122476314Y-131605325D01*
X122499042Y-131610747D01*
X122517644Y-131616986D01*
X122533307Y-131624097D01*
X122547216Y-131632138D01*
X122560559Y-131641166D01*
X122574521Y-131651236D01*
X122590289Y-131662407D01*
X122648133Y-131702197D01*
X122648133Y-130642314D01*
X122585034Y-130680311D01*
X122559995Y-130694993D01*
X122532414Y-130709531D01*
X122504300Y-130721627D01*
X122473449Y-130731532D01*
X122437656Y-130739494D01*
X122394717Y-130745761D01*
X122342426Y-130750582D01*
X122278581Y-130754206D01*
X122200975Y-130756881D01*
X122107406Y-130758857D01*
X121995667Y-130760382D01*
X121863555Y-130761704D01*
X121743566Y-130762613D01*
X121626937Y-130763020D01*
X121531469Y-130762767D01*
X121457444Y-130761857D01*
X121405145Y-130760293D01*
X121374851Y-130758079D01*
X121366844Y-130755220D01*
X121370142Y-130752161D01*
X121391592Y-130734006D01*
X121428111Y-130704275D01*
X121477558Y-130664639D01*
X121537793Y-130616771D01*
X121606673Y-130562343D01*
X121682057Y-130503027D01*
X121761804Y-130440495D01*
X121843772Y-130376421D01*
X121925820Y-130312475D01*
X122005806Y-130250331D01*
X122081589Y-130191661D01*
X122151027Y-130138137D01*
X122211979Y-130091430D01*
X122262304Y-130053214D01*
X122299860Y-130025161D01*
X122322505Y-130008943D01*
X122394788Y-129963635D01*
X122474537Y-129923661D01*
X122542812Y-129902130D01*
X122600156Y-129898827D01*
X122648133Y-129904116D01*
X122647883Y-128772356D01*
X122617278Y-128811867D01*
X122609911Y-128821248D01*
X122555562Y-128884183D01*
X122487741Y-128952997D01*
X122404484Y-129029596D01*
X122303822Y-129115888D01*
X122283153Y-129133052D01*
X122233591Y-129173833D01*
X122172674Y-129223588D01*
X122102102Y-129280955D01*
X122023576Y-129344569D01*
X121938796Y-129413069D01*
X121849463Y-129485090D01*
X121757278Y-129559270D01*
X121738298Y-129574517D01*
X121663940Y-129634246D01*
X121571152Y-129708653D01*
X121480612Y-129781131D01*
X121394022Y-129850314D01*
X121313082Y-129914841D01*
X121239494Y-129973347D01*
X121174956Y-130024470D01*
X121121171Y-130066847D01*
X121079838Y-130099115D01*
X121052658Y-130119910D01*
X121041332Y-130127869D01*
X121037229Y-130126111D01*
X121016666Y-130113230D01*
X120980439Y-130088885D01*
X120930176Y-130054247D01*
X120867508Y-130010486D01*
X120794064Y-129958775D01*
X120711473Y-129900284D01*
X120621364Y-129836184D01*
X120525369Y-129767646D01*
X120425115Y-129695843D01*
X120322232Y-129621944D01*
X120218350Y-129547121D01*
X120115099Y-129472545D01*
X120014108Y-129399387D01*
X119917006Y-129328819D01*
X119825423Y-129262011D01*
X119740989Y-129200135D01*
X119665333Y-129144361D01*
X119600084Y-129095862D01*
X119546872Y-129055807D01*
X119507327Y-129025369D01*
X119481974Y-129004944D01*
X119427705Y-128958899D01*
X119371225Y-128908612D01*
X119321331Y-128861815D01*
X119227600Y-128770651D01*
X119227600Y-129925090D01*
X118708613Y-129925090D01*
X118708611Y-129916682D01*
X118708568Y-129649704D01*
X118708563Y-129611321D01*
X118708520Y-129345922D01*
X118708475Y-129102050D01*
X118708452Y-128878783D01*
X118708476Y-128675196D01*
X118708570Y-128490367D01*
X118708757Y-128323373D01*
X118709061Y-128173290D01*
X118709396Y-128072445D01*
X119227600Y-128072445D01*
X119227651Y-128141356D01*
X119227909Y-128239607D01*
X119228363Y-128329030D01*
X119228990Y-128407333D01*
X119229765Y-128472223D01*
X119230665Y-128521411D01*
X119231666Y-128552604D01*
X119232743Y-128563511D01*
X119235963Y-128562322D01*
X119253548Y-128552176D01*
X119279842Y-128535040D01*
X119292309Y-128526540D01*
X119306378Y-128517329D01*
X119320649Y-128509233D01*
X119336521Y-128502185D01*
X119355391Y-128496117D01*
X119378659Y-128490961D01*
X119407722Y-128486651D01*
X119443979Y-128483119D01*
X119488830Y-128480297D01*
X119543672Y-128478118D01*
X119609903Y-128476514D01*
X119688923Y-128475419D01*
X119782129Y-128474765D01*
X119890921Y-128474484D01*
X120016697Y-128474509D01*
X120160855Y-128474772D01*
X120324793Y-128475206D01*
X120509911Y-128475745D01*
X120688768Y-128476279D01*
X120847626Y-128476805D01*
X120986684Y-128477350D01*
X121107335Y-128477945D01*
X121210972Y-128478619D01*
X121298989Y-128479403D01*
X121372777Y-128480326D01*
X121433731Y-128481419D01*
X121483243Y-128482712D01*
X121522707Y-128484235D01*
X121553516Y-128486019D01*
X121577062Y-128488092D01*
X121594740Y-128490486D01*
X121607941Y-128493230D01*
X121618060Y-128496356D01*
X121626489Y-128499892D01*
X121634625Y-128503791D01*
X121671456Y-128523438D01*
X121701609Y-128542225D01*
X121703092Y-128543272D01*
X121725341Y-128557602D01*
X121738298Y-128563511D01*
X121738751Y-128562504D01*
X121740197Y-128545305D01*
X121741520Y-128508656D01*
X121742684Y-128454962D01*
X121743653Y-128386630D01*
X121744389Y-128306064D01*
X121744858Y-128215670D01*
X121745022Y-128117853D01*
X121745022Y-127672195D01*
X120568155Y-127669120D01*
X119391289Y-127666045D01*
X119332378Y-127639407D01*
X119307817Y-127627485D01*
X119277566Y-127610246D01*
X119260440Y-127597074D01*
X119252409Y-127589076D01*
X119237507Y-127581378D01*
X119236235Y-127585260D01*
X119234209Y-127608520D01*
X119232374Y-127650874D01*
X119230773Y-127710132D01*
X119229451Y-127784107D01*
X119228452Y-127870610D01*
X119227820Y-127967452D01*
X119227600Y-128072445D01*
X118709396Y-128072445D01*
X118709506Y-128039196D01*
X118710115Y-127920166D01*
X118710911Y-127815279D01*
X118711920Y-127723610D01*
X118713163Y-127644237D01*
X118714665Y-127576237D01*
X118716449Y-127518686D01*
X118718539Y-127470662D01*
X118720958Y-127431240D01*
X118723730Y-127399499D01*
X118726879Y-127374514D01*
X118730428Y-127355364D01*
X118734402Y-127341123D01*
X118738822Y-127330871D01*
X118743714Y-127323682D01*
X118749100Y-127318635D01*
X118755004Y-127314805D01*
X118761451Y-127311271D01*
X118768463Y-127307108D01*
X118770313Y-127306025D01*
X118775820Y-127303813D01*
X118784132Y-127301786D01*
X118796191Y-127299938D01*
X118812937Y-127298261D01*
X118835313Y-127296745D01*
X118864260Y-127295383D01*
X118900720Y-127294167D01*
X118945633Y-127293089D01*
X118999943Y-127292140D01*
X119064590Y-127291312D01*
X119140516Y-127290597D01*
X119228662Y-127289987D01*
X119329971Y-127289474D01*
X119445383Y-127289050D01*
X119575840Y-127288706D01*
X119722284Y-127288434D01*
X119885656Y-127288227D01*
X120066899Y-127288076D01*
X120266952Y-127287972D01*
X120486759Y-127287908D01*
X120727261Y-127287876D01*
X120989398Y-127287867D01*
X123180969Y-127287867D01*
X123219351Y-127326249D01*
G37*
%TO.C,oshw_logo*%
X120429713Y-135109782D02*
X120537974Y-135111636D01*
X120634892Y-135115030D01*
X120714041Y-135119967D01*
X120768994Y-135126452D01*
X120793326Y-135134489D01*
X120796921Y-135142696D01*
X120808252Y-135183519D01*
X120824278Y-135252524D01*
X120843805Y-135344203D01*
X120865638Y-135453050D01*
X120888582Y-135573558D01*
X120900841Y-135639357D01*
X120922099Y-135752135D01*
X120940713Y-135849207D01*
X120955672Y-135925382D01*
X120965964Y-135975469D01*
X120970578Y-135994276D01*
X120971529Y-135994983D01*
X120995690Y-136006961D01*
X121046306Y-136029794D01*
X121116662Y-136060630D01*
X121200042Y-136096613D01*
X121289730Y-136134891D01*
X121379011Y-136172609D01*
X121461168Y-136206913D01*
X121529487Y-136234949D01*
X121577252Y-136253864D01*
X121597746Y-136260803D01*
X121604957Y-136257742D01*
X121639272Y-136237372D01*
X121697030Y-136200422D01*
X121773701Y-136149860D01*
X121864752Y-136088657D01*
X121965650Y-136019781D01*
X122020907Y-135981994D01*
X122117785Y-135916782D01*
X122202807Y-135860871D01*
X122271338Y-135817241D01*
X122318740Y-135788877D01*
X122340377Y-135778759D01*
X122352113Y-135785790D01*
X122387182Y-135815197D01*
X122440255Y-135863441D01*
X122506836Y-135926093D01*
X122582426Y-135998725D01*
X122662528Y-136076908D01*
X122742646Y-136156214D01*
X122818282Y-136232213D01*
X122884938Y-136300478D01*
X122938118Y-136356580D01*
X122973324Y-136396090D01*
X122986058Y-136414579D01*
X122981107Y-136424843D01*
X122958143Y-136462530D01*
X122919062Y-136523348D01*
X122866728Y-136602913D01*
X122804004Y-136696843D01*
X122733754Y-136800754D01*
X122481449Y-137171794D01*
X122608947Y-137481080D01*
X122736445Y-137790365D01*
X123181069Y-137874186D01*
X123625693Y-137958006D01*
X123625693Y-138883454D01*
X123181069Y-138967275D01*
X122736445Y-139051095D01*
X122481449Y-139669667D01*
X122733754Y-140040707D01*
X122783494Y-140114144D01*
X122848782Y-140211499D01*
X122904546Y-140295787D01*
X122947922Y-140362631D01*
X122976047Y-140407654D01*
X122986058Y-140426478D01*
X122978939Y-140438039D01*
X122949106Y-140472596D01*
X122900148Y-140524894D01*
X122836560Y-140590500D01*
X122762837Y-140664983D01*
X122683475Y-140743913D01*
X122602969Y-140822856D01*
X122525815Y-140897384D01*
X122456507Y-140963063D01*
X122399543Y-141015463D01*
X122359416Y-141050153D01*
X122340623Y-141062701D01*
X122332549Y-141059782D01*
X122296531Y-141039571D01*
X122237256Y-141002663D01*
X122159370Y-140952050D01*
X122067519Y-140890725D01*
X121966350Y-140821679D01*
X121911174Y-140783787D01*
X121815116Y-140718606D01*
X121731283Y-140662723D01*
X121664223Y-140619117D01*
X121618481Y-140590769D01*
X121598604Y-140580657D01*
X121597503Y-140580823D01*
X121572306Y-140589743D01*
X121520853Y-140610206D01*
X121449865Y-140639360D01*
X121366065Y-140674353D01*
X121276172Y-140712332D01*
X121186909Y-140750445D01*
X121104997Y-140785839D01*
X121037157Y-140815662D01*
X120990110Y-140837061D01*
X120970578Y-140847184D01*
X120968845Y-140853174D01*
X120961031Y-140889566D01*
X120948085Y-140954427D01*
X120931021Y-141042565D01*
X120910849Y-141148787D01*
X120888582Y-141267902D01*
X120876777Y-141330683D01*
X120854252Y-141445912D01*
X120833450Y-141546662D01*
X120815565Y-141627426D01*
X120801792Y-141682698D01*
X120793326Y-141706971D01*
X120784934Y-141711331D01*
X120743928Y-141718563D01*
X120675632Y-141724246D01*
X120586471Y-141728382D01*
X120482872Y-141730977D01*
X120371260Y-141732036D01*
X120258062Y-141731561D01*
X120149704Y-141729559D01*
X120052611Y-141726033D01*
X119973210Y-141720987D01*
X119917928Y-141714427D01*
X119893190Y-141706356D01*
X119890400Y-141701458D01*
X119878431Y-141664930D01*
X119862595Y-141601565D01*
X119844626Y-141518686D01*
X119826259Y-141423618D01*
X119820409Y-141391542D01*
X119793202Y-141243393D01*
X119771337Y-141126961D01*
X119753907Y-141038209D01*
X119740004Y-140973103D01*
X119728723Y-140927606D01*
X119719157Y-140897682D01*
X119710399Y-140879294D01*
X119701543Y-140868407D01*
X119700057Y-140867142D01*
X119669069Y-140849338D01*
X119612366Y-140822994D01*
X119536601Y-140790661D01*
X119448426Y-140754893D01*
X119354493Y-140718244D01*
X119261453Y-140683266D01*
X119175959Y-140652513D01*
X119104664Y-140628538D01*
X119054218Y-140613895D01*
X119031274Y-140611136D01*
X119028297Y-140612981D01*
X118999507Y-140632075D01*
X118946405Y-140667984D01*
X118873883Y-140717378D01*
X118786833Y-140776927D01*
X118690146Y-140843303D01*
X118663544Y-140861520D01*
X118568125Y-140925577D01*
X118482788Y-140980937D01*
X118412595Y-141024439D01*
X118362606Y-141052924D01*
X118337884Y-141063232D01*
X118331384Y-141061011D01*
X118299356Y-141037858D01*
X118247055Y-140992177D01*
X118178001Y-140927241D01*
X118095714Y-140846319D01*
X118003714Y-140752685D01*
X117952219Y-140699165D01*
X117872017Y-140614542D01*
X117803322Y-140540475D01*
X117749748Y-140480941D01*
X117714915Y-140439917D01*
X117702437Y-140421381D01*
X117707062Y-140408646D01*
X117728943Y-140369436D01*
X117764727Y-140312495D01*
X117809883Y-140245250D01*
X117842835Y-140197438D01*
X117908273Y-140101985D01*
X117977772Y-140000125D01*
X118040925Y-139907088D01*
X118164200Y-139724832D01*
X118081480Y-139571841D01*
X118062387Y-139535817D01*
X118029728Y-139470303D01*
X118007181Y-139419640D01*
X117998774Y-139392564D01*
X118009570Y-139383703D01*
X118050677Y-139361699D01*
X118118451Y-139329199D01*
X118208591Y-139288010D01*
X118316795Y-139239942D01*
X118438763Y-139186802D01*
X118570192Y-139130399D01*
X118706782Y-139072542D01*
X118844233Y-139015038D01*
X118978242Y-138959697D01*
X119104509Y-138908326D01*
X119218732Y-138862735D01*
X119316610Y-138824732D01*
X119393843Y-138796124D01*
X119446129Y-138778721D01*
X119469167Y-138774331D01*
X119469840Y-138774628D01*
X119491137Y-138795077D01*
X119524492Y-138837850D01*
X119562989Y-138894117D01*
X119574744Y-138911877D01*
X119686265Y-139047014D01*
X119819094Y-139158856D01*
X119967702Y-139244755D01*
X120126560Y-139302062D01*
X120290140Y-139328131D01*
X120452912Y-139320313D01*
X120597685Y-139288644D01*
X120743876Y-139231782D01*
X120874297Y-139148888D01*
X120998187Y-139035131D01*
X121037765Y-138990433D01*
X121135277Y-138845935D01*
X121200950Y-138689838D01*
X121235370Y-138526667D01*
X121239126Y-138360943D01*
X121212806Y-138197192D01*
X121156997Y-138039936D01*
X121072286Y-137893698D01*
X120959263Y-137763004D01*
X120818513Y-137652374D01*
X120783658Y-137631105D01*
X120624345Y-137558810D01*
X120458448Y-137520415D01*
X120290263Y-137514914D01*
X120124087Y-137541301D01*
X119964216Y-137598570D01*
X119814947Y-137685717D01*
X119680577Y-137801736D01*
X119565401Y-137945622D01*
X119562298Y-137950294D01*
X119523067Y-138005964D01*
X119489714Y-138047689D01*
X119469167Y-138066746D01*
X119453059Y-138064342D01*
X119406156Y-138049391D01*
X119333461Y-138022881D01*
X119239275Y-137986620D01*
X119127902Y-137942416D01*
X119003642Y-137892076D01*
X118870798Y-137837407D01*
X118733673Y-137780218D01*
X118596568Y-137722316D01*
X118463785Y-137665510D01*
X118339626Y-137611606D01*
X118228394Y-137562412D01*
X118134391Y-137519737D01*
X118061918Y-137485387D01*
X118015278Y-137461171D01*
X117998774Y-137448897D01*
X118001009Y-137438689D01*
X118017074Y-137398586D01*
X118045241Y-137339318D01*
X118081480Y-137269619D01*
X118164200Y-137116629D01*
X118040925Y-136934373D01*
X118004421Y-136880527D01*
X117936216Y-136780374D01*
X117867902Y-136680525D01*
X117809883Y-136596211D01*
X117778264Y-136549679D01*
X117738980Y-136489200D01*
X117712088Y-136444357D01*
X117702117Y-136422455D01*
X117706350Y-136413045D01*
X117732279Y-136379031D01*
X117777930Y-136326595D01*
X117838814Y-136260301D01*
X117910439Y-136184713D01*
X117988317Y-136104396D01*
X118067955Y-136023913D01*
X118144865Y-135947829D01*
X118214555Y-135880707D01*
X118272536Y-135827112D01*
X118314316Y-135791608D01*
X118335407Y-135778759D01*
X118339419Y-135779500D01*
X118372080Y-135794793D01*
X118428588Y-135827462D01*
X118503837Y-135874350D01*
X118592725Y-135932301D01*
X118690146Y-135998157D01*
X118717018Y-136016627D01*
X118811577Y-136081482D01*
X118895173Y-136138609D01*
X118962916Y-136184678D01*
X119009914Y-136216359D01*
X119031274Y-136230324D01*
X119032189Y-136230668D01*
X119058322Y-136226546D01*
X119111260Y-136210807D01*
X119184353Y-136186004D01*
X119270948Y-136154689D01*
X119364392Y-136119417D01*
X119458035Y-136082740D01*
X119545223Y-136047212D01*
X119619305Y-136015386D01*
X119673629Y-135989816D01*
X119701543Y-135973053D01*
X119703276Y-135971374D01*
X119712044Y-135959372D01*
X119720885Y-135939103D01*
X119730708Y-135906529D01*
X119742417Y-135857616D01*
X119756920Y-135788327D01*
X119775124Y-135694625D01*
X119797934Y-135572476D01*
X119826259Y-135417842D01*
X119832220Y-135385770D01*
X119850648Y-135293893D01*
X119868108Y-135216607D01*
X119882867Y-135161236D01*
X119893190Y-135135105D01*
X119901803Y-135130733D01*
X119943174Y-135123445D01*
X120011759Y-135117669D01*
X120101132Y-135113410D01*
X120204865Y-135110673D01*
X120316535Y-135109462D01*
X120429713Y-135109782D01*
G36*
X120429713Y-135109782D02*
G01*
X120537974Y-135111636D01*
X120634892Y-135115030D01*
X120714041Y-135119967D01*
X120768994Y-135126452D01*
X120793326Y-135134489D01*
X120796921Y-135142696D01*
X120808252Y-135183519D01*
X120824278Y-135252524D01*
X120843805Y-135344203D01*
X120865638Y-135453050D01*
X120888582Y-135573558D01*
X120900841Y-135639357D01*
X120922099Y-135752135D01*
X120940713Y-135849207D01*
X120955672Y-135925382D01*
X120965964Y-135975469D01*
X120970578Y-135994276D01*
X120971529Y-135994983D01*
X120995690Y-136006961D01*
X121046306Y-136029794D01*
X121116662Y-136060630D01*
X121200042Y-136096613D01*
X121289730Y-136134891D01*
X121379011Y-136172609D01*
X121461168Y-136206913D01*
X121529487Y-136234949D01*
X121577252Y-136253864D01*
X121597746Y-136260803D01*
X121604957Y-136257742D01*
X121639272Y-136237372D01*
X121697030Y-136200422D01*
X121773701Y-136149860D01*
X121864752Y-136088657D01*
X121965650Y-136019781D01*
X122020907Y-135981994D01*
X122117785Y-135916782D01*
X122202807Y-135860871D01*
X122271338Y-135817241D01*
X122318740Y-135788877D01*
X122340377Y-135778759D01*
X122352113Y-135785790D01*
X122387182Y-135815197D01*
X122440255Y-135863441D01*
X122506836Y-135926093D01*
X122582426Y-135998725D01*
X122662528Y-136076908D01*
X122742646Y-136156214D01*
X122818282Y-136232213D01*
X122884938Y-136300478D01*
X122938118Y-136356580D01*
X122973324Y-136396090D01*
X122986058Y-136414579D01*
X122981107Y-136424843D01*
X122958143Y-136462530D01*
X122919062Y-136523348D01*
X122866728Y-136602913D01*
X122804004Y-136696843D01*
X122733754Y-136800754D01*
X122481449Y-137171794D01*
X122608947Y-137481080D01*
X122736445Y-137790365D01*
X123181069Y-137874186D01*
X123625693Y-137958006D01*
X123625693Y-138883454D01*
X123181069Y-138967275D01*
X122736445Y-139051095D01*
X122481449Y-139669667D01*
X122733754Y-140040707D01*
X122783494Y-140114144D01*
X122848782Y-140211499D01*
X122904546Y-140295787D01*
X122947922Y-140362631D01*
X122976047Y-140407654D01*
X122986058Y-140426478D01*
X122978939Y-140438039D01*
X122949106Y-140472596D01*
X122900148Y-140524894D01*
X122836560Y-140590500D01*
X122762837Y-140664983D01*
X122683475Y-140743913D01*
X122602969Y-140822856D01*
X122525815Y-140897384D01*
X122456507Y-140963063D01*
X122399543Y-141015463D01*
X122359416Y-141050153D01*
X122340623Y-141062701D01*
X122332549Y-141059782D01*
X122296531Y-141039571D01*
X122237256Y-141002663D01*
X122159370Y-140952050D01*
X122067519Y-140890725D01*
X121966350Y-140821679D01*
X121911174Y-140783787D01*
X121815116Y-140718606D01*
X121731283Y-140662723D01*
X121664223Y-140619117D01*
X121618481Y-140590769D01*
X121598604Y-140580657D01*
X121597503Y-140580823D01*
X121572306Y-140589743D01*
X121520853Y-140610206D01*
X121449865Y-140639360D01*
X121366065Y-140674353D01*
X121276172Y-140712332D01*
X121186909Y-140750445D01*
X121104997Y-140785839D01*
X121037157Y-140815662D01*
X120990110Y-140837061D01*
X120970578Y-140847184D01*
X120968845Y-140853174D01*
X120961031Y-140889566D01*
X120948085Y-140954427D01*
X120931021Y-141042565D01*
X120910849Y-141148787D01*
X120888582Y-141267902D01*
X120876777Y-141330683D01*
X120854252Y-141445912D01*
X120833450Y-141546662D01*
X120815565Y-141627426D01*
X120801792Y-141682698D01*
X120793326Y-141706971D01*
X120784934Y-141711331D01*
X120743928Y-141718563D01*
X120675632Y-141724246D01*
X120586471Y-141728382D01*
X120482872Y-141730977D01*
X120371260Y-141732036D01*
X120258062Y-141731561D01*
X120149704Y-141729559D01*
X120052611Y-141726033D01*
X119973210Y-141720987D01*
X119917928Y-141714427D01*
X119893190Y-141706356D01*
X119890400Y-141701458D01*
X119878431Y-141664930D01*
X119862595Y-141601565D01*
X119844626Y-141518686D01*
X119826259Y-141423618D01*
X119820409Y-141391542D01*
X119793202Y-141243393D01*
X119771337Y-141126961D01*
X119753907Y-141038209D01*
X119740004Y-140973103D01*
X119728723Y-140927606D01*
X119719157Y-140897682D01*
X119710399Y-140879294D01*
X119701543Y-140868407D01*
X119700057Y-140867142D01*
X119669069Y-140849338D01*
X119612366Y-140822994D01*
X119536601Y-140790661D01*
X119448426Y-140754893D01*
X119354493Y-140718244D01*
X119261453Y-140683266D01*
X119175959Y-140652513D01*
X119104664Y-140628538D01*
X119054218Y-140613895D01*
X119031274Y-140611136D01*
X119028297Y-140612981D01*
X118999507Y-140632075D01*
X118946405Y-140667984D01*
X118873883Y-140717378D01*
X118786833Y-140776927D01*
X118690146Y-140843303D01*
X118663544Y-140861520D01*
X118568125Y-140925577D01*
X118482788Y-140980937D01*
X118412595Y-141024439D01*
X118362606Y-141052924D01*
X118337884Y-141063232D01*
X118331384Y-141061011D01*
X118299356Y-141037858D01*
X118247055Y-140992177D01*
X118178001Y-140927241D01*
X118095714Y-140846319D01*
X118003714Y-140752685D01*
X117952219Y-140699165D01*
X117872017Y-140614542D01*
X117803322Y-140540475D01*
X117749748Y-140480941D01*
X117714915Y-140439917D01*
X117702437Y-140421381D01*
X117707062Y-140408646D01*
X117728943Y-140369436D01*
X117764727Y-140312495D01*
X117809883Y-140245250D01*
X117842835Y-140197438D01*
X117908273Y-140101985D01*
X117977772Y-140000125D01*
X118040925Y-139907088D01*
X118164200Y-139724832D01*
X118081480Y-139571841D01*
X118062387Y-139535817D01*
X118029728Y-139470303D01*
X118007181Y-139419640D01*
X117998774Y-139392564D01*
X118009570Y-139383703D01*
X118050677Y-139361699D01*
X118118451Y-139329199D01*
X118208591Y-139288010D01*
X118316795Y-139239942D01*
X118438763Y-139186802D01*
X118570192Y-139130399D01*
X118706782Y-139072542D01*
X118844233Y-139015038D01*
X118978242Y-138959697D01*
X119104509Y-138908326D01*
X119218732Y-138862735D01*
X119316610Y-138824732D01*
X119393843Y-138796124D01*
X119446129Y-138778721D01*
X119469167Y-138774331D01*
X119469840Y-138774628D01*
X119491137Y-138795077D01*
X119524492Y-138837850D01*
X119562989Y-138894117D01*
X119574744Y-138911877D01*
X119686265Y-139047014D01*
X119819094Y-139158856D01*
X119967702Y-139244755D01*
X120126560Y-139302062D01*
X120290140Y-139328131D01*
X120452912Y-139320313D01*
X120597685Y-139288644D01*
X120743876Y-139231782D01*
X120874297Y-139148888D01*
X120998187Y-139035131D01*
X121037765Y-138990433D01*
X121135277Y-138845935D01*
X121200950Y-138689838D01*
X121235370Y-138526667D01*
X121239126Y-138360943D01*
X121212806Y-138197192D01*
X121156997Y-138039936D01*
X121072286Y-137893698D01*
X120959263Y-137763004D01*
X120818513Y-137652374D01*
X120783658Y-137631105D01*
X120624345Y-137558810D01*
X120458448Y-137520415D01*
X120290263Y-137514914D01*
X120124087Y-137541301D01*
X119964216Y-137598570D01*
X119814947Y-137685717D01*
X119680577Y-137801736D01*
X119565401Y-137945622D01*
X119562298Y-137950294D01*
X119523067Y-138005964D01*
X119489714Y-138047689D01*
X119469167Y-138066746D01*
X119453059Y-138064342D01*
X119406156Y-138049391D01*
X119333461Y-138022881D01*
X119239275Y-137986620D01*
X119127902Y-137942416D01*
X119003642Y-137892076D01*
X118870798Y-137837407D01*
X118733673Y-137780218D01*
X118596568Y-137722316D01*
X118463785Y-137665510D01*
X118339626Y-137611606D01*
X118228394Y-137562412D01*
X118134391Y-137519737D01*
X118061918Y-137485387D01*
X118015278Y-137461171D01*
X117998774Y-137448897D01*
X118001009Y-137438689D01*
X118017074Y-137398586D01*
X118045241Y-137339318D01*
X118081480Y-137269619D01*
X118164200Y-137116629D01*
X118040925Y-136934373D01*
X118004421Y-136880527D01*
X117936216Y-136780374D01*
X117867902Y-136680525D01*
X117809883Y-136596211D01*
X117778264Y-136549679D01*
X117738980Y-136489200D01*
X117712088Y-136444357D01*
X117702117Y-136422455D01*
X117706350Y-136413045D01*
X117732279Y-136379031D01*
X117777930Y-136326595D01*
X117838814Y-136260301D01*
X117910439Y-136184713D01*
X117988317Y-136104396D01*
X118067955Y-136023913D01*
X118144865Y-135947829D01*
X118214555Y-135880707D01*
X118272536Y-135827112D01*
X118314316Y-135791608D01*
X118335407Y-135778759D01*
X118339419Y-135779500D01*
X118372080Y-135794793D01*
X118428588Y-135827462D01*
X118503837Y-135874350D01*
X118592725Y-135932301D01*
X118690146Y-135998157D01*
X118717018Y-136016627D01*
X118811577Y-136081482D01*
X118895173Y-136138609D01*
X118962916Y-136184678D01*
X119009914Y-136216359D01*
X119031274Y-136230324D01*
X119032189Y-136230668D01*
X119058322Y-136226546D01*
X119111260Y-136210807D01*
X119184353Y-136186004D01*
X119270948Y-136154689D01*
X119364392Y-136119417D01*
X119458035Y-136082740D01*
X119545223Y-136047212D01*
X119619305Y-136015386D01*
X119673629Y-135989816D01*
X119701543Y-135973053D01*
X119703276Y-135971374D01*
X119712044Y-135959372D01*
X119720885Y-135939103D01*
X119730708Y-135906529D01*
X119742417Y-135857616D01*
X119756920Y-135788327D01*
X119775124Y-135694625D01*
X119797934Y-135572476D01*
X119826259Y-135417842D01*
X119832220Y-135385770D01*
X119850648Y-135293893D01*
X119868108Y-135216607D01*
X119882867Y-135161236D01*
X119893190Y-135135105D01*
X119901803Y-135130733D01*
X119943174Y-135123445D01*
X120011759Y-135117669D01*
X120101132Y-135113410D01*
X120204865Y-135110673D01*
X120316535Y-135109462D01*
X120429713Y-135109782D01*
G37*
%TD*%
%LPC*%
D12*
%TO.C,PE1*%
X44450000Y-146050000D03*
%TD*%
D13*
%TO.C,J2*%
X40640000Y-96520000D03*
D14*
X43180000Y-96520000D03*
X40640000Y-99060000D03*
X43180000Y-99060000D03*
X40640000Y-101600000D03*
X43180000Y-101600000D03*
X40640000Y-104140000D03*
X43180000Y-104140000D03*
%TD*%
D15*
%TO.C,D1*%
X52600000Y-69000000D03*
X52600000Y-127000000D03*
X101600000Y-69000000D03*
X101600000Y-127000000D03*
%TD*%
D16*
%TO.C,H1*%
X44450000Y-54610000D03*
%TD*%
D13*
%TO.C,J1*%
X120650000Y-95250000D03*
D14*
X120650000Y-97790000D03*
X120650000Y-100330000D03*
X120650000Y-102870000D03*
X120650000Y-105410000D03*
%TD*%
D17*
%TO.C,J8*%
X30480000Y-97790000D03*
D18*
X30480000Y-102870000D03*
%TD*%
D16*
%TO.C,H3*%
X120650000Y-146050000D03*
%TD*%
%TO.C,H2*%
X120650000Y-54610000D03*
%TD*%
%LPD*%
M02*
