<?xml version="1.0" standalone="no"?>
 <!DOCTYPE svg PUBLIC "-//W3C//DTD SVG 1.1//EN" 
 "http://www.w3.org/Graphics/SVG/1.1/DTD/svg11.dtd"> 
<svg
  xmlns:svg="http://www.w3.org/2000/svg"
  xmlns="http://www.w3.org/2000/svg"
  xmlns:xlink="http://www.w3.org/1999/xlink"
  version="1.1"
  width="148.0058mm" height="210.0072mm" viewBox="0.0000 0.0000 148.0058 210.0072">
<title>SVG Image created as PM-RQ8-front-User_Comments.svg date 2024/07/12 09:16:51 </title>
  <desc>Image generated by PCBNEW </desc>
<g style="fill:#000000; fill-opacity:1.0000;stroke:#000000; stroke-opacity:1.0000;
stroke-linecap:round; stroke-linejoin:round;"
 transform="translate(0 0) scale(1 1)">
</g>
<g style="fill:none; 
stroke:#000000; stroke-width:0.1500; stroke-opacity:1; 
stroke-linecap:round; stroke-linejoin:round;">
<path d="M28.0058 166.0072
L136.0058 166.0072
L136.0058 198.0072
L28.0058 198.0072
L28.0058 166.0072
" />
</g>
<g style="fill:none; 
stroke:#000000; stroke-width:0.1500; stroke-opacity:1; 
stroke-linecap:round; stroke-linejoin:round;">
<path d="M10.0000 10.0000
L138.0058 10.0000
L138.0058 200.0072
L10.0000 200.0072
L10.0000 10.0000
" />
</g>
<g style="fill:none; 
stroke:#000000; stroke-width:0.1500; stroke-opacity:1; 
stroke-linecap:round; stroke-linejoin:round;">
<path d="M12.0000 12.0000
L136.0058 12.0000
L136.0058 198.0072
L12.0000 198.0072
L12.0000 12.0000
" />
</g>
<g style="fill:none; 
stroke:#000000; stroke-width:0.1500; stroke-opacity:1; 
stroke-linecap:round; stroke-linejoin:round;">
<path d="M60.0000 12.0000
L60.0000 10.0000
" />
</g>
<g style="fill:none; 
stroke:#000000; stroke-width:0.1500; stroke-opacity:1; 
stroke-linecap:round; stroke-linejoin:round;">
<path d="M110.0000 12.0000
L110.0000 10.0000
" />
</g>
<g style="fill:none; 
stroke:#000000; stroke-width:0.1500; stroke-opacity:1; 
stroke-linecap:round; stroke-linejoin:round;">
<text x="35.0000" y="11.6500"
textLength="1.4281" font-size="1.7333" lengthAdjust="spacingAndGlyphs"
text-anchor="start" opacity="0">1</text>
<g class="stroked-text"><desc>1</desc>
<path d="M36.0892 11.5936
L35.3463 11.5936
" />
<path d="M35.7177 11.5936
L35.7177 10.2936
" />
<path d="M35.7177 10.2936
L35.5939 10.4793
" />
<path d="M35.5939 10.4793
L35.4701 10.6031
" />
<path d="M35.4701 10.6031
L35.3463 10.6650
" />
</g></g>
<g style="fill:none; 
stroke:#000000; stroke-width:0.1500; stroke-opacity:1; 
stroke-linecap:round; stroke-linejoin:round;">
<text x="85.0000" y="11.6500"
textLength="1.4281" font-size="1.7333" lengthAdjust="spacingAndGlyphs"
text-anchor="start" opacity="0">2</text>
<g class="stroked-text"><desc>2</desc>
<path d="M85.3463 10.4174
L85.4082 10.3555
" />
<path d="M85.4082 10.3555
L85.5320 10.2936
" />
<path d="M85.5320 10.2936
L85.8415 10.2936
" />
<path d="M85.8415 10.2936
L85.9654 10.3555
" />
<path d="M85.9654 10.3555
L86.0273 10.4174
" />
<path d="M86.0273 10.4174
L86.0892 10.5412
" />
<path d="M86.0892 10.5412
L86.0892 10.6650
" />
<path d="M86.0892 10.6650
L86.0273 10.8507
" />
<path d="M86.0273 10.8507
L85.2844 11.5936
" />
<path d="M85.2844 11.5936
L86.0892 11.5936
" />
</g></g>
<g style="fill:none; 
stroke:#000000; stroke-width:0.1500; stroke-opacity:1; 
stroke-linecap:round; stroke-linejoin:round;">
<text x="135.0000" y="11.6500"
textLength="1.4281" font-size="1.7333" lengthAdjust="spacingAndGlyphs"
text-anchor="start" opacity="0">3</text>
<g class="stroked-text"><desc>3</desc>
<path d="M135.2844 10.2936
L136.0892 10.2936
" />
<path d="M136.0892 10.2936
L135.6558 10.7888
" />
<path d="M135.6558 10.7888
L135.8415 10.7888
" />
<path d="M135.8415 10.7888
L135.9654 10.8507
" />
<path d="M135.9654 10.8507
L136.0273 10.9127
" />
<path d="M136.0273 10.9127
L136.0892 11.0365
" />
<path d="M136.0892 11.0365
L136.0892 11.3460
" />
<path d="M136.0892 11.3460
L136.0273 11.4698
" />
<path d="M136.0273 11.4698
L135.9654 11.5317
" />
<path d="M135.9654 11.5317
L135.8415 11.5936
" />
<path d="M135.8415 11.5936
L135.4701 11.5936
" />
<path d="M135.4701 11.5936
L135.3463 11.5317
" />
<path d="M135.3463 11.5317
L135.2844 11.4698
" />
</g></g>
<g style="fill:none; 
stroke:#000000; stroke-width:0.1500; stroke-opacity:1; 
stroke-linecap:round; stroke-linejoin:round;">
<path d="M60.0000 198.0072
L60.0000 200.0072
" />
</g>
<g style="fill:none; 
stroke:#000000; stroke-width:0.1500; stroke-opacity:1; 
stroke-linecap:round; stroke-linejoin:round;">
<path d="M110.0000 198.0072
L110.0000 200.0072
" />
</g>
<g style="fill:none; 
stroke:#000000; stroke-width:0.1500; stroke-opacity:1; 
stroke-linecap:round; stroke-linejoin:round;">
<text x="35.0000" y="199.6572"
textLength="1.4281" font-size="1.7333" lengthAdjust="spacingAndGlyphs"
text-anchor="start" opacity="0">1</text>
<g class="stroked-text"><desc>1</desc>
<path d="M36.0892 199.6008
L35.3463 199.6008
" />
<path d="M35.7177 199.6008
L35.7177 198.3008
" />
<path d="M35.7177 198.3008
L35.5939 198.4865
" />
<path d="M35.5939 198.4865
L35.4701 198.6103
" />
<path d="M35.4701 198.6103
L35.3463 198.6722
" />
</g></g>
<g style="fill:none; 
stroke:#000000; stroke-width:0.1500; stroke-opacity:1; 
stroke-linecap:round; stroke-linejoin:round;">
<text x="85.0000" y="199.6572"
textLength="1.4281" font-size="1.7333" lengthAdjust="spacingAndGlyphs"
text-anchor="start" opacity="0">2</text>
<g class="stroked-text"><desc>2</desc>
<path d="M85.3463 198.4246
L85.4082 198.3627
" />
<path d="M85.4082 198.3627
L85.5320 198.3008
" />
<path d="M85.5320 198.3008
L85.8415 198.3008
" />
<path d="M85.8415 198.3008
L85.9654 198.3627
" />
<path d="M85.9654 198.3627
L86.0273 198.4246
" />
<path d="M86.0273 198.4246
L86.0892 198.5484
" />
<path d="M86.0892 198.5484
L86.0892 198.6722
" />
<path d="M86.0892 198.6722
L86.0273 198.8579
" />
<path d="M86.0273 198.8579
L85.2844 199.6008
" />
<path d="M85.2844 199.6008
L86.0892 199.6008
" />
</g></g>
<g style="fill:none; 
stroke:#000000; stroke-width:0.1500; stroke-opacity:1; 
stroke-linecap:round; stroke-linejoin:round;">
<text x="135.0000" y="199.6572"
textLength="1.4281" font-size="1.7333" lengthAdjust="spacingAndGlyphs"
text-anchor="start" opacity="0">3</text>
<g class="stroked-text"><desc>3</desc>
<path d="M135.2844 198.3008
L136.0892 198.3008
" />
<path d="M136.0892 198.3008
L135.6558 198.7960
" />
<path d="M135.6558 198.7960
L135.8415 198.7960
" />
<path d="M135.8415 198.7960
L135.9654 198.8579
" />
<path d="M135.9654 198.8579
L136.0273 198.9199
" />
<path d="M136.0273 198.9199
L136.0892 199.0437
" />
<path d="M136.0892 199.0437
L136.0892 199.3532
" />
<path d="M136.0892 199.3532
L136.0273 199.4770
" />
<path d="M136.0273 199.4770
L135.9654 199.5389
" />
<path d="M135.9654 199.5389
L135.8415 199.6008
" />
<path d="M135.8415 199.6008
L135.4701 199.6008
" />
<path d="M135.4701 199.6008
L135.3463 199.5389
" />
<path d="M135.3463 199.5389
L135.2844 199.4770
" />
</g></g>
<g style="fill:none; 
stroke:#000000; stroke-width:0.1500; stroke-opacity:1; 
stroke-linecap:round; stroke-linejoin:round;">
<path d="M10.0000 60.0000
L12.0000 60.0000
" />
</g>
<g style="fill:none; 
stroke:#000000; stroke-width:0.1500; stroke-opacity:1; 
stroke-linecap:round; stroke-linejoin:round;">
<path d="M10.0000 110.0000
L12.0000 110.0000
" />
</g>
<g style="fill:none; 
stroke:#000000; stroke-width:0.1500; stroke-opacity:1; 
stroke-linecap:round; stroke-linejoin:round;">
<path d="M10.0000 160.0000
L12.0000 160.0000
" />
</g>
<g style="fill:none; 
stroke:#000000; stroke-width:0.1500; stroke-opacity:1; 
stroke-linecap:round; stroke-linejoin:round;">
<text x="11.0000" y="35.6500"
textLength="1.3043" font-size="1.7333" lengthAdjust="spacingAndGlyphs"
text-anchor="middle" opacity="0">A</text>
<g class="stroked-text"><desc>A</desc>
<path d="M10.6905 35.2222
L11.3095 35.2222
" />
<path d="M10.5667 35.5936
L11.0000 34.2936
" />
<path d="M11.0000 34.2936
L11.4333 35.5936
" />
</g></g>
<g style="fill:none; 
stroke:#000000; stroke-width:0.1500; stroke-opacity:1; 
stroke-linecap:round; stroke-linejoin:round;">
<text x="11.0000" y="85.6500"
textLength="1.4900" font-size="1.7333" lengthAdjust="spacingAndGlyphs"
text-anchor="middle" opacity="0">B</text>
<g class="stroked-text"><desc>B</desc>
<path d="M11.0929 84.9127
L11.2786 84.9746
" />
<path d="M11.2786 84.9746
L11.3405 85.0365
" />
<path d="M11.3405 85.0365
L11.4024 85.1603
" />
<path d="M11.4024 85.1603
L11.4024 85.3460
" />
<path d="M11.4024 85.3460
L11.3405 85.4698
" />
<path d="M11.3405 85.4698
L11.2786 85.5317
" />
<path d="M11.2786 85.5317
L11.1548 85.5936
" />
<path d="M11.1548 85.5936
L10.6595 85.5936
" />
<path d="M10.6595 85.5936
L10.6595 84.2936
" />
<path d="M10.6595 84.2936
L11.0929 84.2936
" />
<path d="M11.0929 84.2936
L11.2167 84.3555
" />
<path d="M11.2167 84.3555
L11.2786 84.4174
" />
<path d="M11.2786 84.4174
L11.3405 84.5412
" />
<path d="M11.3405 84.5412
L11.3405 84.6650
" />
<path d="M11.3405 84.6650
L11.2786 84.7888
" />
<path d="M11.2786 84.7888
L11.2167 84.8507
" />
<path d="M11.2167 84.8507
L11.0929 84.9127
" />
<path d="M11.0929 84.9127
L10.6595 84.9127
" />
</g></g>
<g style="fill:none; 
stroke:#000000; stroke-width:0.1500; stroke-opacity:1; 
stroke-linecap:round; stroke-linejoin:round;">
<text x="11.0000" y="135.6500"
textLength="1.4900" font-size="1.7333" lengthAdjust="spacingAndGlyphs"
text-anchor="middle" opacity="0">C</text>
<g class="stroked-text"><desc>C</desc>
<path d="M11.4024 135.4698
L11.3405 135.5317
" />
<path d="M11.3405 135.5317
L11.1548 135.5936
" />
<path d="M11.1548 135.5936
L11.0310 135.5936
" />
<path d="M11.0310 135.5936
L10.8452 135.5317
" />
<path d="M10.8452 135.5317
L10.7214 135.4079
" />
<path d="M10.7214 135.4079
L10.6595 135.2841
" />
<path d="M10.6595 135.2841
L10.5976 135.0365
" />
<path d="M10.5976 135.0365
L10.5976 134.8507
" />
<path d="M10.5976 134.8507
L10.6595 134.6031
" />
<path d="M10.6595 134.6031
L10.7214 134.4793
" />
<path d="M10.7214 134.4793
L10.8452 134.3555
" />
<path d="M10.8452 134.3555
L11.0310 134.2936
" />
<path d="M11.0310 134.2936
L11.1548 134.2936
" />
<path d="M11.1548 134.2936
L11.3405 134.3555
" />
<path d="M11.3405 134.3555
L11.4024 134.4174
" />
</g></g>
<g style="fill:none; 
stroke:#000000; stroke-width:0.1500; stroke-opacity:1; 
stroke-linecap:round; stroke-linejoin:round;">
<text x="11.0000" y="185.6500"
textLength="1.4900" font-size="1.7333" lengthAdjust="spacingAndGlyphs"
text-anchor="middle" opacity="0">D</text>
<g class="stroked-text"><desc>D</desc>
<path d="M10.6595 185.5936
L10.6595 184.2936
" />
<path d="M10.6595 184.2936
L10.9690 184.2936
" />
<path d="M10.9690 184.2936
L11.1548 184.3555
" />
<path d="M11.1548 184.3555
L11.2786 184.4793
" />
<path d="M11.2786 184.4793
L11.3405 184.6031
" />
<path d="M11.3405 184.6031
L11.4024 184.8507
" />
<path d="M11.4024 184.8507
L11.4024 185.0365
" />
<path d="M11.4024 185.0365
L11.3405 185.2841
" />
<path d="M11.3405 185.2841
L11.2786 185.4079
" />
<path d="M11.2786 185.4079
L11.1548 185.5317
" />
<path d="M11.1548 185.5317
L10.9690 185.5936
" />
<path d="M10.9690 185.5936
L10.6595 185.5936
" />
</g></g>
<g style="fill:none; 
stroke:#000000; stroke-width:0.1500; stroke-opacity:1; 
stroke-linecap:round; stroke-linejoin:round;">
<path d="M138.0058 60.0000
L136.0058 60.0000
" />
</g>
<g style="fill:none; 
stroke:#000000; stroke-width:0.1500; stroke-opacity:1; 
stroke-linecap:round; stroke-linejoin:round;">
<path d="M138.0058 110.0000
L136.0058 110.0000
" />
</g>
<g style="fill:none; 
stroke:#000000; stroke-width:0.1500; stroke-opacity:1; 
stroke-linecap:round; stroke-linejoin:round;">
<path d="M138.0058 160.0000
L136.0058 160.0000
" />
</g>
<g style="fill:none; 
stroke:#000000; stroke-width:0.1500; stroke-opacity:1; 
stroke-linecap:round; stroke-linejoin:round;">
<text x="137.0058" y="35.6500"
textLength="1.3043" font-size="1.7333" lengthAdjust="spacingAndGlyphs"
text-anchor="middle" opacity="0">A</text>
<g class="stroked-text"><desc>A</desc>
<path d="M136.6963 35.2222
L137.3153 35.2222
" />
<path d="M136.5725 35.5936
L137.0058 34.2936
" />
<path d="M137.0058 34.2936
L137.4391 35.5936
" />
</g></g>
<g style="fill:none; 
stroke:#000000; stroke-width:0.1500; stroke-opacity:1; 
stroke-linecap:round; stroke-linejoin:round;">
<text x="137.0058" y="85.6500"
textLength="1.4900" font-size="1.7333" lengthAdjust="spacingAndGlyphs"
text-anchor="middle" opacity="0">B</text>
<g class="stroked-text"><desc>B</desc>
<path d="M137.0987 84.9127
L137.2844 84.9746
" />
<path d="M137.2844 84.9746
L137.3463 85.0365
" />
<path d="M137.3463 85.0365
L137.4082 85.1603
" />
<path d="M137.4082 85.1603
L137.4082 85.3460
" />
<path d="M137.4082 85.3460
L137.3463 85.4698
" />
<path d="M137.3463 85.4698
L137.2844 85.5317
" />
<path d="M137.2844 85.5317
L137.1606 85.5936
" />
<path d="M137.1606 85.5936
L136.6653 85.5936
" />
<path d="M136.6653 85.5936
L136.6653 84.2936
" />
<path d="M136.6653 84.2936
L137.0987 84.2936
" />
<path d="M137.0987 84.2936
L137.2225 84.3555
" />
<path d="M137.2225 84.3555
L137.2844 84.4174
" />
<path d="M137.2844 84.4174
L137.3463 84.5412
" />
<path d="M137.3463 84.5412
L137.3463 84.6650
" />
<path d="M137.3463 84.6650
L137.2844 84.7888
" />
<path d="M137.2844 84.7888
L137.2225 84.8507
" />
<path d="M137.2225 84.8507
L137.0987 84.9127
" />
<path d="M137.0987 84.9127
L136.6653 84.9127
" />
</g></g>
<g style="fill:none; 
stroke:#000000; stroke-width:0.1500; stroke-opacity:1; 
stroke-linecap:round; stroke-linejoin:round;">
<text x="137.0058" y="135.6500"
textLength="1.4900" font-size="1.7333" lengthAdjust="spacingAndGlyphs"
text-anchor="middle" opacity="0">C</text>
<g class="stroked-text"><desc>C</desc>
<path d="M137.4082 135.4698
L137.3463 135.5317
" />
<path d="M137.3463 135.5317
L137.1606 135.5936
" />
<path d="M137.1606 135.5936
L137.0368 135.5936
" />
<path d="M137.0368 135.5936
L136.8510 135.5317
" />
<path d="M136.8510 135.5317
L136.7272 135.4079
" />
<path d="M136.7272 135.4079
L136.6653 135.2841
" />
<path d="M136.6653 135.2841
L136.6034 135.0365
" />
<path d="M136.6034 135.0365
L136.6034 134.8507
" />
<path d="M136.6034 134.8507
L136.6653 134.6031
" />
<path d="M136.6653 134.6031
L136.7272 134.4793
" />
<path d="M136.7272 134.4793
L136.8510 134.3555
" />
<path d="M136.8510 134.3555
L137.0368 134.2936
" />
<path d="M137.0368 134.2936
L137.1606 134.2936
" />
<path d="M137.1606 134.2936
L137.3463 134.3555
" />
<path d="M137.3463 134.3555
L137.4082 134.4174
" />
</g></g>
<g style="fill:none; 
stroke:#000000; stroke-width:0.1500; stroke-opacity:1; 
stroke-linecap:round; stroke-linejoin:round;">
<text x="137.0058" y="185.6500"
textLength="1.4900" font-size="1.7333" lengthAdjust="spacingAndGlyphs"
text-anchor="middle" opacity="0">D</text>
<g class="stroked-text"><desc>D</desc>
<path d="M136.6653 185.5936
L136.6653 184.2936
" />
<path d="M136.6653 184.2936
L136.9748 184.2936
" />
<path d="M136.9748 184.2936
L137.1606 184.3555
" />
<path d="M137.1606 184.3555
L137.2844 184.4793
" />
<path d="M137.2844 184.4793
L137.3463 184.6031
" />
<path d="M137.3463 184.6031
L137.4082 184.8507
" />
<path d="M137.4082 184.8507
L137.4082 185.0365
" />
<path d="M137.4082 185.0365
L137.3463 185.2841
" />
<path d="M137.3463 185.2841
L137.2844 185.4079
" />
<path d="M137.2844 185.4079
L137.1606 185.5317
" />
<path d="M137.1606 185.5317
L136.9748 185.5936
" />
<path d="M136.9748 185.5936
L136.6653 185.5936
" />
</g></g>
<g style="fill:none; 
stroke:#000000; stroke-width:0.1500; stroke-opacity:1; 
stroke-linecap:round; stroke-linejoin:round;">
<text x="51.0058" y="193.8572"
textLength="22.1500" font-size="2.0000" lengthAdjust="spacingAndGlyphs"
text-anchor="start" opacity="0">Date: 2024-07-12</text>
<g class="stroked-text"><desc>Date: 2024-07-12</desc>
<path d="M51.4616 193.7933
L51.4616 192.2933
" />
<path d="M51.4616 192.2933
L51.8188 192.2933
" />
<path d="M51.8188 192.2933
L52.0331 192.3648
" />
<path d="M52.0331 192.3648
L52.1759 192.5076
" />
<path d="M52.1759 192.5076
L52.2473 192.6505
" />
<path d="M52.2473 192.6505
L52.3188 192.9362
" />
<path d="M52.3188 192.9362
L52.3188 193.1505
" />
<path d="M52.3188 193.1505
L52.2473 193.4362
" />
<path d="M52.2473 193.4362
L52.1759 193.5790
" />
<path d="M52.1759 193.5790
L52.0331 193.7219
" />
<path d="M52.0331 193.7219
L51.8188 193.7933
" />
<path d="M51.8188 193.7933
L51.4616 193.7933
" />
<path d="M53.6045 193.7933
L53.6045 193.0076
" />
<path d="M53.6045 193.0076
L53.5331 192.8648
" />
<path d="M53.5331 192.8648
L53.3902 192.7933
" />
<path d="M53.3902 192.7933
L53.1045 192.7933
" />
<path d="M53.1045 192.7933
L52.9616 192.8648
" />
<path d="M53.6045 193.7219
L53.4616 193.7933
" />
<path d="M53.4616 193.7933
L53.1045 193.7933
" />
<path d="M53.1045 193.7933
L52.9616 193.7219
" />
<path d="M52.9616 193.7219
L52.8902 193.5790
" />
<path d="M52.8902 193.5790
L52.8902 193.4362
" />
<path d="M52.8902 193.4362
L52.9616 193.2933
" />
<path d="M52.9616 193.2933
L53.1045 193.2219
" />
<path d="M53.1045 193.2219
L53.4616 193.2219
" />
<path d="M53.4616 193.2219
L53.6045 193.1505
" />
<path d="M54.1045 192.7933
L54.6759 192.7933
" />
<path d="M54.3188 192.2933
L54.3188 193.5790
" />
<path d="M54.3188 193.5790
L54.3902 193.7219
" />
<path d="M54.3902 193.7219
L54.5331 193.7933
" />
<path d="M54.5331 193.7933
L54.6759 193.7933
" />
<path d="M55.7473 193.7219
L55.6045 193.7933
" />
<path d="M55.6045 193.7933
L55.3188 193.7933
" />
<path d="M55.3188 193.7933
L55.1759 193.7219
" />
<path d="M55.1759 193.7219
L55.1045 193.5790
" />
<path d="M55.1045 193.5790
L55.1045 193.0076
" />
<path d="M55.1045 193.0076
L55.1759 192.8648
" />
<path d="M55.1759 192.8648
L55.3188 192.7933
" />
<path d="M55.3188 192.7933
L55.6045 192.7933
" />
<path d="M55.6045 192.7933
L55.7473 192.8648
" />
<path d="M55.7473 192.8648
L55.8188 193.0076
" />
<path d="M55.8188 193.0076
L55.8188 193.1505
" />
<path d="M55.8188 193.1505
L55.1045 193.2933
" />
<path d="M56.4616 193.6505
L56.5331 193.7219
" />
<path d="M56.5331 193.7219
L56.4616 193.7933
" />
<path d="M56.4616 193.7933
L56.3902 193.7219
" />
<path d="M56.3902 193.7219
L56.4616 193.6505
" />
<path d="M56.4616 193.6505
L56.4616 193.7933
" />
<path d="M56.4616 192.8648
L56.5331 192.9362
" />
<path d="M56.5331 192.9362
L56.4616 193.0076
" />
<path d="M56.4616 193.0076
L56.3902 192.9362
" />
<path d="M56.3902 192.9362
L56.4616 192.8648
" />
<path d="M56.4616 192.8648
L56.4616 193.0076
" />
<path d="M58.2473 192.4362
L58.3188 192.3648
" />
<path d="M58.3188 192.3648
L58.4616 192.2933
" />
<path d="M58.4616 192.2933
L58.8188 192.2933
" />
<path d="M58.8188 192.2933
L58.9616 192.3648
" />
<path d="M58.9616 192.3648
L59.0331 192.4362
" />
<path d="M59.0331 192.4362
L59.1045 192.5790
" />
<path d="M59.1045 192.5790
L59.1045 192.7219
" />
<path d="M59.1045 192.7219
L59.0331 192.9362
" />
<path d="M59.0331 192.9362
L58.1759 193.7933
" />
<path d="M58.1759 193.7933
L59.1045 193.7933
" />
<path d="M60.0331 192.2933
L60.1759 192.2933
" />
<path d="M60.1759 192.2933
L60.3188 192.3648
" />
<path d="M60.3188 192.3648
L60.3902 192.4362
" />
<path d="M60.3902 192.4362
L60.4616 192.5790
" />
<path d="M60.4616 192.5790
L60.5331 192.8648
" />
<path d="M60.5331 192.8648
L60.5331 193.2219
" />
<path d="M60.5331 193.2219
L60.4616 193.5076
" />
<path d="M60.4616 193.5076
L60.3902 193.6505
" />
<path d="M60.3902 193.6505
L60.3188 193.7219
" />
<path d="M60.3188 193.7219
L60.1759 193.7933
" />
<path d="M60.1759 193.7933
L60.0331 193.7933
" />
<path d="M60.0331 193.7933
L59.8902 193.7219
" />
<path d="M59.8902 193.7219
L59.8188 193.6505
" />
<path d="M59.8188 193.6505
L59.7473 193.5076
" />
<path d="M59.7473 193.5076
L59.6759 193.2219
" />
<path d="M59.6759 193.2219
L59.6759 192.8648
" />
<path d="M59.6759 192.8648
L59.7473 192.5790
" />
<path d="M59.7473 192.5790
L59.8188 192.4362
" />
<path d="M59.8188 192.4362
L59.8902 192.3648
" />
<path d="M59.8902 192.3648
L60.0331 192.2933
" />
<path d="M61.1045 192.4362
L61.1759 192.3648
" />
<path d="M61.1759 192.3648
L61.3188 192.2933
" />
<path d="M61.3188 192.2933
L61.6759 192.2933
" />
<path d="M61.6759 192.2933
L61.8188 192.3648
" />
<path d="M61.8188 192.3648
L61.8902 192.4362
" />
<path d="M61.8902 192.4362
L61.9616 192.5790
" />
<path d="M61.9616 192.5790
L61.9616 192.7219
" />
<path d="M61.9616 192.7219
L61.8902 192.9362
" />
<path d="M61.8902 192.9362
L61.0331 193.7933
" />
<path d="M61.0331 193.7933
L61.9616 193.7933
" />
<path d="M63.2473 192.7933
L63.2473 193.7933
" />
<path d="M62.8902 192.2219
L62.5331 193.2933
" />
<path d="M62.5331 193.2933
L63.4616 193.2933
" />
<path d="M64.0331 193.2219
L65.1759 193.2219
" />
<path d="M66.1759 192.2933
L66.3188 192.2933
" />
<path d="M66.3188 192.2933
L66.4616 192.3648
" />
<path d="M66.4616 192.3648
L66.5331 192.4362
" />
<path d="M66.5331 192.4362
L66.6045 192.5790
" />
<path d="M66.6045 192.5790
L66.6759 192.8648
" />
<path d="M66.6759 192.8648
L66.6759 193.2219
" />
<path d="M66.6759 193.2219
L66.6045 193.5076
" />
<path d="M66.6045 193.5076
L66.5331 193.6505
" />
<path d="M66.5331 193.6505
L66.4616 193.7219
" />
<path d="M66.4616 193.7219
L66.3188 193.7933
" />
<path d="M66.3188 193.7933
L66.1759 193.7933
" />
<path d="M66.1759 193.7933
L66.0331 193.7219
" />
<path d="M66.0331 193.7219
L65.9616 193.6505
" />
<path d="M65.9616 193.6505
L65.8902 193.5076
" />
<path d="M65.8902 193.5076
L65.8188 193.2219
" />
<path d="M65.8188 193.2219
L65.8188 192.8648
" />
<path d="M65.8188 192.8648
L65.8902 192.5790
" />
<path d="M65.8902 192.5790
L65.9616 192.4362
" />
<path d="M65.9616 192.4362
L66.0331 192.3648
" />
<path d="M66.0331 192.3648
L66.1759 192.2933
" />
<path d="M67.1759 192.2933
L68.1759 192.2933
" />
<path d="M68.1759 192.2933
L67.5331 193.7933
" />
<path d="M68.7473 193.2219
L69.8902 193.2219
" />
<path d="M71.3902 193.7933
L70.5331 193.7933
" />
<path d="M70.9616 193.7933
L70.9616 192.2933
" />
<path d="M70.9616 192.2933
L70.8188 192.5076
" />
<path d="M70.8188 192.5076
L70.6759 192.6505
" />
<path d="M70.6759 192.6505
L70.5331 192.7219
" />
<path d="M71.9616 192.4362
L72.0331 192.3648
" />
<path d="M72.0331 192.3648
L72.1759 192.2933
" />
<path d="M72.1759 192.2933
L72.5331 192.2933
" />
<path d="M72.5331 192.2933
L72.6759 192.3648
" />
<path d="M72.6759 192.3648
L72.7473 192.4362
" />
<path d="M72.7473 192.4362
L72.8188 192.5790
" />
<path d="M72.8188 192.5790
L72.8188 192.7219
" />
<path d="M72.8188 192.7219
L72.7473 192.9362
" />
<path d="M72.7473 192.9362
L71.8902 193.7933
" />
<path d="M71.8902 193.7933
L72.8188 193.7933
" />
</g></g>
<g style="fill:none; 
stroke:#000000; stroke-width:0.1500; stroke-opacity:1; 
stroke-linecap:round; stroke-linejoin:round;">
<path d="M28.0058 194.5072
L136.0058 194.5072
" />
</g>
<g style="fill:none; 
stroke:#000000; stroke-width:0.1500; stroke-opacity:1; 
stroke-linecap:round; stroke-linejoin:round;">
<text x="29.0058" y="196.6572"
textLength="20.8643" font-size="2.0000" lengthAdjust="spacingAndGlyphs"
text-anchor="start" opacity="0">KiCad E.D.A. 8.0.3</text>
<g class="stroked-text"><desc>KiCad E.D.A. 8.0.3</desc>
<path d="M29.4616 196.5933
L29.4616 195.0933
" />
<path d="M30.3188 196.5933
L29.6759 195.7362
" />
<path d="M30.3188 195.0933
L29.4616 195.9505
" />
<path d="M30.9616 196.5933
L30.9616 195.5933
" />
<path d="M30.9616 195.0933
L30.8902 195.1648
" />
<path d="M30.8902 195.1648
L30.9616 195.2362
" />
<path d="M30.9616 195.2362
L31.0331 195.1648
" />
<path d="M31.0331 195.1648
L30.9616 195.0933
" />
<path d="M30.9616 195.0933
L30.9616 195.2362
" />
<path d="M32.5331 196.4505
L32.4616 196.5219
" />
<path d="M32.4616 196.5219
L32.2473 196.5933
" />
<path d="M32.2473 196.5933
L32.1045 196.5933
" />
<path d="M32.1045 196.5933
L31.8902 196.5219
" />
<path d="M31.8902 196.5219
L31.7473 196.3790
" />
<path d="M31.7473 196.3790
L31.6759 196.2362
" />
<path d="M31.6759 196.2362
L31.6045 195.9505
" />
<path d="M31.6045 195.9505
L31.6045 195.7362
" />
<path d="M31.6045 195.7362
L31.6759 195.4505
" />
<path d="M31.6759 195.4505
L31.7473 195.3076
" />
<path d="M31.7473 195.3076
L31.8902 195.1648
" />
<path d="M31.8902 195.1648
L32.1045 195.0933
" />
<path d="M32.1045 195.0933
L32.2473 195.0933
" />
<path d="M32.2473 195.0933
L32.4616 195.1648
" />
<path d="M32.4616 195.1648
L32.5331 195.2362
" />
<path d="M33.8188 196.5933
L33.8188 195.8076
" />
<path d="M33.8188 195.8076
L33.7473 195.6648
" />
<path d="M33.7473 195.6648
L33.6045 195.5933
" />
<path d="M33.6045 195.5933
L33.3188 195.5933
" />
<path d="M33.3188 195.5933
L33.1759 195.6648
" />
<path d="M33.8188 196.5219
L33.6759 196.5933
" />
<path d="M33.6759 196.5933
L33.3188 196.5933
" />
<path d="M33.3188 196.5933
L33.1759 196.5219
" />
<path d="M33.1759 196.5219
L33.1045 196.3790
" />
<path d="M33.1045 196.3790
L33.1045 196.2362
" />
<path d="M33.1045 196.2362
L33.1759 196.0933
" />
<path d="M33.1759 196.0933
L33.3188 196.0219
" />
<path d="M33.3188 196.0219
L33.6759 196.0219
" />
<path d="M33.6759 196.0219
L33.8188 195.9505
" />
<path d="M35.1759 196.5933
L35.1759 195.0933
" />
<path d="M35.1759 196.5219
L35.0331 196.5933
" />
<path d="M35.0331 196.5933
L34.7473 196.5933
" />
<path d="M34.7473 196.5933
L34.6045 196.5219
" />
<path d="M34.6045 196.5219
L34.5331 196.4505
" />
<path d="M34.5331 196.4505
L34.4616 196.3076
" />
<path d="M34.4616 196.3076
L34.4616 195.8790
" />
<path d="M34.4616 195.8790
L34.5331 195.7362
" />
<path d="M34.5331 195.7362
L34.6045 195.6648
" />
<path d="M34.6045 195.6648
L34.7473 195.5933
" />
<path d="M34.7473 195.5933
L35.0331 195.5933
" />
<path d="M35.0331 195.5933
L35.1759 195.6648
" />
<path d="M37.0331 195.8076
L37.5331 195.8076
" />
<path d="M37.7473 196.5933
L37.0331 196.5933
" />
<path d="M37.0331 196.5933
L37.0331 195.0933
" />
<path d="M37.0331 195.0933
L37.7473 195.0933
" />
<path d="M38.3902 196.4505
L38.4616 196.5219
" />
<path d="M38.4616 196.5219
L38.3902 196.5933
" />
<path d="M38.3902 196.5933
L38.3188 196.5219
" />
<path d="M38.3188 196.5219
L38.3902 196.4505
" />
<path d="M38.3902 196.4505
L38.3902 196.5933
" />
<path d="M39.1045 196.5933
L39.1045 195.0933
" />
<path d="M39.1045 195.0933
L39.4616 195.0933
" />
<path d="M39.4616 195.0933
L39.6759 195.1648
" />
<path d="M39.6759 195.1648
L39.8188 195.3076
" />
<path d="M39.8188 195.3076
L39.8902 195.4505
" />
<path d="M39.8902 195.4505
L39.9616 195.7362
" />
<path d="M39.9616 195.7362
L39.9616 195.9505
" />
<path d="M39.9616 195.9505
L39.8902 196.2362
" />
<path d="M39.8902 196.2362
L39.8188 196.3790
" />
<path d="M39.8188 196.3790
L39.6759 196.5219
" />
<path d="M39.6759 196.5219
L39.4616 196.5933
" />
<path d="M39.4616 196.5933
L39.1045 196.5933
" />
<path d="M40.6045 196.4505
L40.6759 196.5219
" />
<path d="M40.6759 196.5219
L40.6045 196.5933
" />
<path d="M40.6045 196.5933
L40.5331 196.5219
" />
<path d="M40.5331 196.5219
L40.6045 196.4505
" />
<path d="M40.6045 196.4505
L40.6045 196.5933
" />
<path d="M41.2473 196.1648
L41.9616 196.1648
" />
<path d="M41.1045 196.5933
L41.6045 195.0933
" />
<path d="M41.6045 195.0933
L42.1045 196.5933
" />
<path d="M42.6045 196.4505
L42.6759 196.5219
" />
<path d="M42.6759 196.5219
L42.6045 196.5933
" />
<path d="M42.6045 196.5933
L42.5331 196.5219
" />
<path d="M42.5331 196.5219
L42.6045 196.4505
" />
<path d="M42.6045 196.4505
L42.6045 196.5933
" />
<path d="M44.6759 195.7362
L44.5331 195.6648
" />
<path d="M44.5331 195.6648
L44.4616 195.5933
" />
<path d="M44.4616 195.5933
L44.3902 195.4505
" />
<path d="M44.3902 195.4505
L44.3902 195.3790
" />
<path d="M44.3902 195.3790
L44.4616 195.2362
" />
<path d="M44.4616 195.2362
L44.5331 195.1648
" />
<path d="M44.5331 195.1648
L44.6759 195.0933
" />
<path d="M44.6759 195.0933
L44.9616 195.0933
" />
<path d="M44.9616 195.0933
L45.1045 195.1648
" />
<path d="M45.1045 195.1648
L45.1759 195.2362
" />
<path d="M45.1759 195.2362
L45.2473 195.3790
" />
<path d="M45.2473 195.3790
L45.2473 195.4505
" />
<path d="M45.2473 195.4505
L45.1759 195.5933
" />
<path d="M45.1759 195.5933
L45.1045 195.6648
" />
<path d="M45.1045 195.6648
L44.9616 195.7362
" />
<path d="M44.9616 195.7362
L44.6759 195.7362
" />
<path d="M44.6759 195.7362
L44.5331 195.8076
" />
<path d="M44.5331 195.8076
L44.4616 195.8790
" />
<path d="M44.4616 195.8790
L44.3902 196.0219
" />
<path d="M44.3902 196.0219
L44.3902 196.3076
" />
<path d="M44.3902 196.3076
L44.4616 196.4505
" />
<path d="M44.4616 196.4505
L44.5331 196.5219
" />
<path d="M44.5331 196.5219
L44.6759 196.5933
" />
<path d="M44.6759 196.5933
L44.9616 196.5933
" />
<path d="M44.9616 196.5933
L45.1045 196.5219
" />
<path d="M45.1045 196.5219
L45.1759 196.4505
" />
<path d="M45.1759 196.4505
L45.2473 196.3076
" />
<path d="M45.2473 196.3076
L45.2473 196.0219
" />
<path d="M45.2473 196.0219
L45.1759 195.8790
" />
<path d="M45.1759 195.8790
L45.1045 195.8076
" />
<path d="M45.1045 195.8076
L44.9616 195.7362
" />
<path d="M45.8902 196.4505
L45.9616 196.5219
" />
<path d="M45.9616 196.5219
L45.8902 196.5933
" />
<path d="M45.8902 196.5933
L45.8188 196.5219
" />
<path d="M45.8188 196.5219
L45.8902 196.4505
" />
<path d="M45.8902 196.4505
L45.8902 196.5933
" />
<path d="M46.8902 195.0933
L47.0331 195.0933
" />
<path d="M47.0331 195.0933
L47.1759 195.1648
" />
<path d="M47.1759 195.1648
L47.2473 195.2362
" />
<path d="M47.2473 195.2362
L47.3188 195.3790
" />
<path d="M47.3188 195.3790
L47.3902 195.6648
" />
<path d="M47.3902 195.6648
L47.3902 196.0219
" />
<path d="M47.3902 196.0219
L47.3188 196.3076
" />
<path d="M47.3188 196.3076
L47.2473 196.4505
" />
<path d="M47.2473 196.4505
L47.1759 196.5219
" />
<path d="M47.1759 196.5219
L47.0331 196.5933
" />
<path d="M47.0331 196.5933
L46.8902 196.5933
" />
<path d="M46.8902 196.5933
L46.7473 196.5219
" />
<path d="M46.7473 196.5219
L46.6759 196.4505
" />
<path d="M46.6759 196.4505
L46.6045 196.3076
" />
<path d="M46.6045 196.3076
L46.5331 196.0219
" />
<path d="M46.5331 196.0219
L46.5331 195.6648
" />
<path d="M46.5331 195.6648
L46.6045 195.3790
" />
<path d="M46.6045 195.3790
L46.6759 195.2362
" />
<path d="M46.6759 195.2362
L46.7473 195.1648
" />
<path d="M46.7473 195.1648
L46.8902 195.0933
" />
<path d="M48.0331 196.4505
L48.1045 196.5219
" />
<path d="M48.1045 196.5219
L48.0331 196.5933
" />
<path d="M48.0331 196.5933
L47.9616 196.5219
" />
<path d="M47.9616 196.5219
L48.0331 196.4505
" />
<path d="M48.0331 196.4505
L48.0331 196.5933
" />
<path d="M48.6045 195.0933
L49.5331 195.0933
" />
<path d="M49.5331 195.0933
L49.0331 195.6648
" />
<path d="M49.0331 195.6648
L49.2473 195.6648
" />
<path d="M49.2473 195.6648
L49.3902 195.7362
" />
<path d="M49.3902 195.7362
L49.4616 195.8076
" />
<path d="M49.4616 195.8076
L49.5331 195.9505
" />
<path d="M49.5331 195.9505
L49.5331 196.3076
" />
<path d="M49.5331 196.3076
L49.4616 196.4505
" />
<path d="M49.4616 196.4505
L49.3902 196.5219
" />
<path d="M49.3902 196.5219
L49.2473 196.5933
" />
<path d="M49.2473 196.5933
L48.8188 196.5933
" />
<path d="M48.8188 196.5933
L48.6759 196.5219
" />
<path d="M48.6759 196.5219
L48.6045 196.4505
" />
</g></g>
<g style="fill:none; 
stroke:#000000; stroke-width:0.1500; stroke-opacity:1; 
stroke-linecap:round; stroke-linejoin:round;">
<path d="M28.0058 191.5072
L136.0058 191.5072
" />
</g>
<g style="fill:none; 
stroke:#000000; stroke-width:0.3000; stroke-opacity:1; 
stroke-linecap:round; stroke-linejoin:round;">
<text x="114.0058" y="193.8572"
textLength="6.3857" font-size="2.0000" lengthAdjust="spacingAndGlyphs"
text-anchor="start" opacity="0">Rev: </text>
<g class="stroked-text"><desc>Rev: </desc>
<path d="M115.4175 193.7855
L114.9175 193.0712
" />
<path d="M114.5603 193.7855
L114.5603 192.2855
" />
<path d="M114.5603 192.2855
L115.1317 192.2855
" />
<path d="M115.1317 192.2855
L115.2746 192.3570
" />
<path d="M115.2746 192.3570
L115.3460 192.4284
" />
<path d="M115.3460 192.4284
L115.4175 192.5712
" />
<path d="M115.4175 192.5712
L115.4175 192.7855
" />
<path d="M115.4175 192.7855
L115.3460 192.9284
" />
<path d="M115.3460 192.9284
L115.2746 192.9998
" />
<path d="M115.2746 192.9998
L115.1317 193.0712
" />
<path d="M115.1317 193.0712
L114.5603 193.0712
" />
<path d="M116.6317 193.7141
L116.4889 193.7855
" />
<path d="M116.4889 193.7855
L116.2032 193.7855
" />
<path d="M116.2032 193.7855
L116.0603 193.7141
" />
<path d="M116.0603 193.7141
L115.9889 193.5712
" />
<path d="M115.9889 193.5712
L115.9889 192.9998
" />
<path d="M115.9889 192.9998
L116.0603 192.8570
" />
<path d="M116.0603 192.8570
L116.2032 192.7855
" />
<path d="M116.2032 192.7855
L116.4889 192.7855
" />
<path d="M116.4889 192.7855
L116.6317 192.8570
" />
<path d="M116.6317 192.8570
L116.7032 192.9998
" />
<path d="M116.7032 192.9998
L116.7032 193.1427
" />
<path d="M116.7032 193.1427
L115.9889 193.2855
" />
<path d="M117.2032 192.7855
L117.5603 193.7855
" />
<path d="M117.5603 193.7855
L117.9175 192.7855
" />
<path d="M118.4889 193.6427
L118.5603 193.7141
" />
<path d="M118.5603 193.7141
L118.4889 193.7855
" />
<path d="M118.4889 193.7855
L118.4175 193.7141
" />
<path d="M118.4175 193.7141
L118.4889 193.6427
" />
<path d="M118.4889 193.6427
L118.4889 193.7855
" />
<path d="M118.4889 192.8570
L118.5603 192.9284
" />
<path d="M118.5603 192.9284
L118.4889 192.9998
" />
<path d="M118.4889 192.9998
L118.4175 192.9284
" />
<path d="M118.4175 192.9284
L118.4889 192.8570
" />
<path d="M118.4889 192.8570
L118.4889 192.9998
" />
</g></g>
<g style="fill:none; 
stroke:#000000; stroke-width:0.1500; stroke-opacity:1; 
stroke-linecap:round; stroke-linejoin:round;">
<text x="29.0058" y="193.8572"
textLength="9.3643" font-size="2.0000" lengthAdjust="spacingAndGlyphs"
text-anchor="start" opacity="0">Size: A5</text>
<g class="stroked-text"><desc>Size: A5</desc>
<path d="M29.3902 193.7219
L29.6045 193.7933
" />
<path d="M29.6045 193.7933
L29.9616 193.7933
" />
<path d="M29.9616 193.7933
L30.1045 193.7219
" />
<path d="M30.1045 193.7219
L30.1759 193.6505
" />
<path d="M30.1759 193.6505
L30.2473 193.5076
" />
<path d="M30.2473 193.5076
L30.2473 193.3648
" />
<path d="M30.2473 193.3648
L30.1759 193.2219
" />
<path d="M30.1759 193.2219
L30.1045 193.1505
" />
<path d="M30.1045 193.1505
L29.9616 193.0790
" />
<path d="M29.9616 193.0790
L29.6759 193.0076
" />
<path d="M29.6759 193.0076
L29.5331 192.9362
" />
<path d="M29.5331 192.9362
L29.4616 192.8648
" />
<path d="M29.4616 192.8648
L29.3902 192.7219
" />
<path d="M29.3902 192.7219
L29.3902 192.5790
" />
<path d="M29.3902 192.5790
L29.4616 192.4362
" />
<path d="M29.4616 192.4362
L29.5331 192.3648
" />
<path d="M29.5331 192.3648
L29.6759 192.2933
" />
<path d="M29.6759 192.2933
L30.0331 192.2933
" />
<path d="M30.0331 192.2933
L30.2473 192.3648
" />
<path d="M30.8902 193.7933
L30.8902 192.7933
" />
<path d="M30.8902 192.2933
L30.8188 192.3648
" />
<path d="M30.8188 192.3648
L30.8902 192.4362
" />
<path d="M30.8902 192.4362
L30.9616 192.3648
" />
<path d="M30.9616 192.3648
L30.8902 192.2933
" />
<path d="M30.8902 192.2933
L30.8902 192.4362
" />
<path d="M31.4616 192.7933
L32.2473 192.7933
" />
<path d="M32.2473 192.7933
L31.4616 193.7933
" />
<path d="M31.4616 193.7933
L32.2473 193.7933
" />
<path d="M33.3902 193.7219
L33.2473 193.7933
" />
<path d="M33.2473 193.7933
L32.9616 193.7933
" />
<path d="M32.9616 193.7933
L32.8188 193.7219
" />
<path d="M32.8188 193.7219
L32.7473 193.5790
" />
<path d="M32.7473 193.5790
L32.7473 193.0076
" />
<path d="M32.7473 193.0076
L32.8188 192.8648
" />
<path d="M32.8188 192.8648
L32.9616 192.7933
" />
<path d="M32.9616 192.7933
L33.2473 192.7933
" />
<path d="M33.2473 192.7933
L33.3902 192.8648
" />
<path d="M33.3902 192.8648
L33.4616 193.0076
" />
<path d="M33.4616 193.0076
L33.4616 193.1505
" />
<path d="M33.4616 193.1505
L32.7473 193.2933
" />
<path d="M34.1045 193.6505
L34.1759 193.7219
" />
<path d="M34.1759 193.7219
L34.1045 193.7933
" />
<path d="M34.1045 193.7933
L34.0331 193.7219
" />
<path d="M34.0331 193.7219
L34.1045 193.6505
" />
<path d="M34.1045 193.6505
L34.1045 193.7933
" />
<path d="M34.1045 192.8648
L34.1759 192.9362
" />
<path d="M34.1759 192.9362
L34.1045 193.0076
" />
<path d="M34.1045 193.0076
L34.0331 192.9362
" />
<path d="M34.0331 192.9362
L34.1045 192.8648
" />
<path d="M34.1045 192.8648
L34.1045 193.0076
" />
<path d="M35.8902 193.3648
L36.6045 193.3648
" />
<path d="M35.7473 193.7933
L36.2473 192.2933
" />
<path d="M36.2473 192.2933
L36.7473 193.7933
" />
<path d="M37.9616 192.2933
L37.2473 192.2933
" />
<path d="M37.2473 192.2933
L37.1759 193.0076
" />
<path d="M37.1759 193.0076
L37.2473 192.9362
" />
<path d="M37.2473 192.9362
L37.3902 192.8648
" />
<path d="M37.3902 192.8648
L37.7473 192.8648
" />
<path d="M37.7473 192.8648
L37.8902 192.9362
" />
<path d="M37.8902 192.9362
L37.9616 193.0076
" />
<path d="M37.9616 193.0076
L38.0331 193.1505
" />
<path d="M38.0331 193.1505
L38.0331 193.5076
" />
<path d="M38.0331 193.5076
L37.9616 193.6505
" />
<path d="M37.9616 193.6505
L37.8902 193.7219
" />
<path d="M37.8902 193.7219
L37.7473 193.7933
" />
<path d="M37.7473 193.7933
L37.3902 193.7933
" />
<path d="M37.3902 193.7933
L37.2473 193.7219
" />
<path d="M37.2473 193.7219
L37.1759 193.6505
" />
</g></g>
<g style="fill:none; 
stroke:#000000; stroke-width:0.1500; stroke-opacity:1; 
stroke-linecap:round; stroke-linejoin:round;">
<text x="114.0058" y="196.6572"
textLength="8.5071" font-size="2.0000" lengthAdjust="spacingAndGlyphs"
text-anchor="start" opacity="0">Id: 1/1</text>
<g class="stroked-text"><desc>Id: 1/1</desc>
<path d="M114.4616 196.5933
L114.4616 195.0933
" />
<path d="M115.8188 196.5933
L115.8188 195.0933
" />
<path d="M115.8188 196.5219
L115.6759 196.5933
" />
<path d="M115.6759 196.5933
L115.3902 196.5933
" />
<path d="M115.3902 196.5933
L115.2473 196.5219
" />
<path d="M115.2473 196.5219
L115.1759 196.4505
" />
<path d="M115.1759 196.4505
L115.1045 196.3076
" />
<path d="M115.1045 196.3076
L115.1045 195.8790
" />
<path d="M115.1045 195.8790
L115.1759 195.7362
" />
<path d="M115.1759 195.7362
L115.2473 195.6648
" />
<path d="M115.2473 195.6648
L115.3902 195.5933
" />
<path d="M115.3902 195.5933
L115.6759 195.5933
" />
<path d="M115.6759 195.5933
L115.8188 195.6648
" />
<path d="M116.5331 196.4505
L116.6045 196.5219
" />
<path d="M116.6045 196.5219
L116.5331 196.5933
" />
<path d="M116.5331 196.5933
L116.4616 196.5219
" />
<path d="M116.4616 196.5219
L116.5331 196.4505
" />
<path d="M116.5331 196.4505
L116.5331 196.5933
" />
<path d="M116.5331 195.6648
L116.6045 195.7362
" />
<path d="M116.6045 195.7362
L116.5331 195.8076
" />
<path d="M116.5331 195.8076
L116.4616 195.7362
" />
<path d="M116.4616 195.7362
L116.5331 195.6648
" />
<path d="M116.5331 195.6648
L116.5331 195.8076
" />
<path d="M119.1759 196.5933
L118.3188 196.5933
" />
<path d="M118.7473 196.5933
L118.7473 195.0933
" />
<path d="M118.7473 195.0933
L118.6045 195.3076
" />
<path d="M118.6045 195.3076
L118.4616 195.4505
" />
<path d="M118.4616 195.4505
L118.3188 195.5219
" />
<path d="M120.8902 195.0219
L119.6045 196.9505
" />
<path d="M122.1759 196.5933
L121.3188 196.5933
" />
<path d="M121.7473 196.5933
L121.7473 195.0933
" />
<path d="M121.7473 195.0933
L121.6045 195.3076
" />
<path d="M121.6045 195.3076
L121.4616 195.4505
" />
<path d="M121.4616 195.4505
L121.3188 195.5219
" />
</g></g>
<g style="fill:none; 
stroke:#000000; stroke-width:0.1500; stroke-opacity:1; 
stroke-linecap:round; stroke-linejoin:round;">
<path d="M28.0058 187.5072
L136.0058 187.5072
" />
</g>
<g style="fill:none; 
stroke:#000000; stroke-width:0.4000; stroke-opacity:1; 
stroke-linecap:round; stroke-linejoin:round;">
<text x="29.0058" y="190.3072"
textLength="57.2762" font-size="2.6667" lengthAdjust="spacingAndGlyphs"
text-anchor="start" opacity="0">Title: Размеры платы PM-RQ8-front</text>
<g class="stroked-text"><desc>Title: Размеры платы PM-RQ8-front</desc>
<path d="M29.6975 188.2116
L30.8404 188.2116
" />
<path d="M30.0190 190.2116
L30.2690 188.2116
" />
<path d="M31.2571 190.2116
L31.4237 188.8783
" />
<path d="M31.5071 188.2116
L31.3999 188.3069
" />
<path d="M31.3999 188.3069
L31.4832 188.4021
" />
<path d="M31.4832 188.4021
L31.5904 188.3069
" />
<path d="M31.5904 188.3069
L31.5071 188.2116
" />
<path d="M31.5071 188.2116
L31.4832 188.4021
" />
<path d="M32.0904 188.8783
L32.8523 188.8783
" />
<path d="M32.4594 188.2116
L32.2451 189.9259
" />
<path d="M32.2451 189.9259
L32.3166 190.1164
" />
<path d="M32.3166 190.1164
L32.4951 190.2116
" />
<path d="M32.4951 190.2116
L32.6856 190.2116
" />
<path d="M33.6380 190.2116
L33.4594 190.1164
" />
<path d="M33.4594 190.1164
L33.3880 189.9259
" />
<path d="M33.3880 189.9259
L33.6023 188.2116
" />
<path d="M35.1737 190.1164
L34.9713 190.2116
" />
<path d="M34.9713 190.2116
L34.5904 190.2116
" />
<path d="M34.5904 190.2116
L34.4118 190.1164
" />
<path d="M34.4118 190.1164
L34.3404 189.9259
" />
<path d="M34.3404 189.9259
L34.4356 189.1640
" />
<path d="M34.4356 189.1640
L34.5547 188.9735
" />
<path d="M34.5547 188.9735
L34.7571 188.8783
" />
<path d="M34.7571 188.8783
L35.1380 188.8783
" />
<path d="M35.1380 188.8783
L35.3166 188.9735
" />
<path d="M35.3166 188.9735
L35.3880 189.1640
" />
<path d="M35.3880 189.1640
L35.3642 189.3545
" />
<path d="M35.3642 189.3545
L34.3880 189.5450
" />
<path d="M36.1380 190.0212
L36.2213 190.1164
" />
<path d="M36.2213 190.1164
L36.1142 190.2116
" />
<path d="M36.1142 190.2116
L36.0309 190.1164
" />
<path d="M36.0309 190.1164
L36.1380 190.0212
" />
<path d="M36.1380 190.0212
L36.1142 190.2116
" />
<path d="M36.2690 188.9735
L36.3523 189.0688
" />
<path d="M36.3523 189.0688
L36.2451 189.1640
" />
<path d="M36.2451 189.1640
L36.1618 189.0688
" />
<path d="M36.1618 189.0688
L36.2690 188.9735
" />
<path d="M36.2690 188.9735
L36.2451 189.1640
" />
<path d="M38.5904 190.2116
L38.8404 188.2116
" />
<path d="M38.8404 188.2116
L39.6023 188.2116
" />
<path d="M39.6023 188.2116
L39.7809 188.3069
" />
<path d="M39.7809 188.3069
L39.8642 188.4021
" />
<path d="M39.8642 188.4021
L39.9356 188.5926
" />
<path d="M39.9356 188.5926
L39.8999 188.8783
" />
<path d="M39.8999 188.8783
L39.7809 189.0688
" />
<path d="M39.7809 189.0688
L39.6737 189.1640
" />
<path d="M39.6737 189.1640
L39.4713 189.2593
" />
<path d="M39.4713 189.2593
L38.7094 189.2593
" />
<path d="M41.4475 190.2116
L41.5785 189.1640
" />
<path d="M41.5785 189.1640
L41.5071 188.9735
" />
<path d="M41.5071 188.9735
L41.3285 188.8783
" />
<path d="M41.3285 188.8783
L40.9475 188.8783
" />
<path d="M40.9475 188.8783
L40.7451 188.9735
" />
<path d="M41.4594 190.1164
L41.2571 190.2116
" />
<path d="M41.2571 190.2116
L40.7809 190.2116
" />
<path d="M40.7809 190.2116
L40.6023 190.1164
" />
<path d="M40.6023 190.1164
L40.5309 189.9259
" />
<path d="M40.5309 189.9259
L40.5547 189.7354
" />
<path d="M40.5547 189.7354
L40.6737 189.5450
" />
<path d="M40.6737 189.5450
L40.8761 189.4497
" />
<path d="M40.8761 189.4497
L41.3523 189.4497
" />
<path d="M41.3523 189.4497
L41.5547 189.3545
" />
<path d="M42.6737 189.5450
L42.8642 189.5450
" />
<path d="M42.3642 188.9735
L42.5666 188.8783
" />
<path d="M42.5666 188.8783
L42.9475 188.8783
" />
<path d="M42.9475 188.8783
L43.1261 188.9735
" />
<path d="M43.1261 188.9735
L43.1975 189.1640
" />
<path d="M43.1975 189.1640
L43.1856 189.2593
" />
<path d="M43.1856 189.2593
L43.0666 189.4497
" />
<path d="M43.0666 189.4497
L42.8642 189.5450
" />
<path d="M42.8642 189.5450
L43.0428 189.6402
" />
<path d="M43.0428 189.6402
L43.1142 189.8307
" />
<path d="M43.1142 189.8307
L43.1023 189.9259
" />
<path d="M43.1023 189.9259
L42.9832 190.1164
" />
<path d="M42.9832 190.1164
L42.7809 190.2116
" />
<path d="M42.7809 190.2116
L42.3999 190.2116
" />
<path d="M42.3999 190.2116
L42.2213 190.1164
" />
<path d="M43.9237 190.2116
L44.0904 188.8783
" />
<path d="M44.0904 188.8783
L44.5309 189.9259
" />
<path d="M44.5309 189.9259
L45.2332 188.8783
" />
<path d="M45.2332 188.8783
L45.0666 190.2116
" />
<path d="M46.7928 190.1164
L46.5904 190.2116
" />
<path d="M46.5904 190.2116
L46.2094 190.2116
" />
<path d="M46.2094 190.2116
L46.0309 190.1164
" />
<path d="M46.0309 190.1164
L45.9594 189.9259
" />
<path d="M45.9594 189.9259
L46.0547 189.1640
" />
<path d="M46.0547 189.1640
L46.1737 188.9735
" />
<path d="M46.1737 188.9735
L46.3761 188.8783
" />
<path d="M46.3761 188.8783
L46.7571 188.8783
" />
<path d="M46.7571 188.8783
L46.9356 188.9735
" />
<path d="M46.9356 188.9735
L47.0071 189.1640
" />
<path d="M47.0071 189.1640
L46.9832 189.3545
" />
<path d="M46.9832 189.3545
L46.0071 189.5450
" />
<path d="M47.8999 188.8783
L47.6499 190.8783
" />
<path d="M47.8880 188.9735
L48.0904 188.8783
" />
<path d="M48.0904 188.8783
L48.4713 188.8783
" />
<path d="M48.4713 188.8783
L48.6499 188.9735
" />
<path d="M48.6499 188.9735
L48.7332 189.0688
" />
<path d="M48.7332 189.0688
L48.8047 189.2593
" />
<path d="M48.8047 189.2593
L48.7332 189.8307
" />
<path d="M48.7332 189.8307
L48.6142 190.0212
" />
<path d="M48.6142 190.0212
L48.5071 190.1164
" />
<path d="M48.5071 190.1164
L48.3047 190.2116
" />
<path d="M48.3047 190.2116
L47.9237 190.2116
" />
<path d="M47.9237 190.2116
L47.7451 190.1164
" />
<path d="M51.0428 188.8783
L50.8761 190.2116
" />
<path d="M49.7094 188.8783
L49.5428 190.2116
" />
<path d="M49.5428 190.2116
L50.0190 190.2116
" />
<path d="M50.0190 190.2116
L50.2213 190.1164
" />
<path d="M50.2213 190.1164
L50.3404 189.9259
" />
<path d="M50.3404 189.9259
L50.3761 189.6402
" />
<path d="M50.3761 189.6402
L50.3047 189.4497
" />
<path d="M50.3047 189.4497
L50.1261 189.3545
" />
<path d="M50.1261 189.3545
L49.6499 189.3545
" />
<path d="M53.3523 190.2116
L53.5190 188.8783
" />
<path d="M53.5190 188.8783
L54.3761 188.8783
" />
<path d="M54.3761 188.8783
L54.2094 190.2116
" />
<path d="M55.9237 190.2116
L56.0904 188.8783
" />
<path d="M56.0904 188.8783
L55.8047 188.8783
" />
<path d="M55.8047 188.8783
L55.6023 188.9735
" />
<path d="M55.6023 188.9735
L55.4832 189.1640
" />
<path d="M55.4832 189.1640
L55.2928 189.9259
" />
<path d="M55.2928 189.9259
L55.1737 190.1164
" />
<path d="M55.1737 190.1164
L54.9713 190.2116
" />
<path d="M57.7332 190.2116
L57.8642 189.1640
" />
<path d="M57.8642 189.1640
L57.7928 188.9735
" />
<path d="M57.7928 188.9735
L57.6142 188.8783
" />
<path d="M57.6142 188.8783
L57.2332 188.8783
" />
<path d="M57.2332 188.8783
L57.0309 188.9735
" />
<path d="M57.7451 190.1164
L57.5428 190.2116
" />
<path d="M57.5428 190.2116
L57.0666 190.2116
" />
<path d="M57.0666 190.2116
L56.8880 190.1164
" />
<path d="M56.8880 190.1164
L56.8166 189.9259
" />
<path d="M56.8166 189.9259
L56.8404 189.7354
" />
<path d="M56.8404 189.7354
L56.9594 189.5450
" />
<path d="M56.9594 189.5450
L57.1618 189.4497
" />
<path d="M57.1618 189.4497
L57.6380 189.4497
" />
<path d="M57.6380 189.4497
L57.8404 189.3545
" />
<path d="M58.5666 188.8783
L59.5190 188.8783
" />
<path d="M59.0428 188.8783
L58.8761 190.2116
" />
<path d="M61.5190 188.8783
L61.3523 190.2116
" />
<path d="M60.1856 188.8783
L60.0190 190.2116
" />
<path d="M60.0190 190.2116
L60.4951 190.2116
" />
<path d="M60.4951 190.2116
L60.6975 190.1164
" />
<path d="M60.6975 190.1164
L60.8166 189.9259
" />
<path d="M60.8166 189.9259
L60.8523 189.6402
" />
<path d="M60.8523 189.6402
L60.7809 189.4497
" />
<path d="M60.7809 189.4497
L60.6023 189.3545
" />
<path d="M60.6023 189.3545
L60.1261 189.3545
" />
<path d="M63.8285 190.2116
L64.0785 188.2116
" />
<path d="M64.0785 188.2116
L64.8404 188.2116
" />
<path d="M64.8404 188.2116
L65.0190 188.3069
" />
<path d="M65.0190 188.3069
L65.1023 188.4021
" />
<path d="M65.1023 188.4021
L65.1737 188.5926
" />
<path d="M65.1737 188.5926
L65.1380 188.8783
" />
<path d="M65.1380 188.8783
L65.0190 189.0688
" />
<path d="M65.0190 189.0688
L64.9118 189.1640
" />
<path d="M64.9118 189.1640
L64.7094 189.2593
" />
<path d="M64.7094 189.2593
L63.9475 189.2593
" />
<path d="M65.8285 190.2116
L66.0785 188.2116
" />
<path d="M66.0785 188.2116
L66.5666 189.6402
" />
<path d="M66.5666 189.6402
L67.4118 188.2116
" />
<path d="M67.4118 188.2116
L67.1618 190.2116
" />
<path d="M68.2094 189.4497
L69.7332 189.4497
" />
<path d="M71.7332 190.2116
L71.1856 189.2593
" />
<path d="M70.5904 190.2116
L70.8404 188.2116
" />
<path d="M70.8404 188.2116
L71.6023 188.2116
" />
<path d="M71.6023 188.2116
L71.7809 188.3069
" />
<path d="M71.7809 188.3069
L71.8642 188.4021
" />
<path d="M71.8642 188.4021
L71.9356 188.5926
" />
<path d="M71.9356 188.5926
L71.8999 188.8783
" />
<path d="M71.8999 188.8783
L71.7809 189.0688
" />
<path d="M71.7809 189.0688
L71.6737 189.1640
" />
<path d="M71.6737 189.1640
L71.4713 189.2593
" />
<path d="M71.4713 189.2593
L70.7094 189.2593
" />
<path d="M73.8999 190.4021
L73.7213 190.3069
" />
<path d="M73.7213 190.3069
L73.5547 190.1164
" />
<path d="M73.5547 190.1164
L73.3047 189.8307
" />
<path d="M73.3047 189.8307
L73.1261 189.7354
" />
<path d="M73.1261 189.7354
L72.9356 189.7354
" />
<path d="M72.9713 190.2116
L72.7928 190.1164
" />
<path d="M72.7928 190.1164
L72.6261 189.9259
" />
<path d="M72.6261 189.9259
L72.5785 189.5450
" />
<path d="M72.5785 189.5450
L72.6618 188.8783
" />
<path d="M72.6618 188.8783
L72.8047 188.4974
" />
<path d="M72.8047 188.4974
L73.0190 188.3069
" />
<path d="M73.0190 188.3069
L73.2213 188.2116
" />
<path d="M73.2213 188.2116
L73.6023 188.2116
" />
<path d="M73.6023 188.2116
L73.7809 188.3069
" />
<path d="M73.7809 188.3069
L73.9475 188.4974
" />
<path d="M73.9475 188.4974
L73.9951 188.8783
" />
<path d="M73.9951 188.8783
L73.9118 189.5450
" />
<path d="M73.9118 189.5450
L73.7690 189.9259
" />
<path d="M73.7690 189.9259
L73.5547 190.1164
" />
<path d="M73.5547 190.1164
L73.3523 190.2116
" />
<path d="M73.3523 190.2116
L72.9713 190.2116
" />
<path d="M75.1142 189.0688
L74.9356 188.9735
" />
<path d="M74.9356 188.9735
L74.8523 188.8783
" />
<path d="M74.8523 188.8783
L74.7809 188.6878
" />
<path d="M74.7809 188.6878
L74.7928 188.5926
" />
<path d="M74.7928 188.5926
L74.9118 188.4021
" />
<path d="M74.9118 188.4021
L75.0190 188.3069
" />
<path d="M75.0190 188.3069
L75.2213 188.2116
" />
<path d="M75.2213 188.2116
L75.6023 188.2116
" />
<path d="M75.6023 188.2116
L75.7809 188.3069
" />
<path d="M75.7809 188.3069
L75.8642 188.4021
" />
<path d="M75.8642 188.4021
L75.9356 188.5926
" />
<path d="M75.9356 188.5926
L75.9237 188.6878
" />
<path d="M75.9237 188.6878
L75.8047 188.8783
" />
<path d="M75.8047 188.8783
L75.6975 188.9735
" />
<path d="M75.6975 188.9735
L75.4951 189.0688
" />
<path d="M75.4951 189.0688
L75.1142 189.0688
" />
<path d="M75.1142 189.0688
L74.9118 189.1640
" />
<path d="M74.9118 189.1640
L74.8047 189.2593
" />
<path d="M74.8047 189.2593
L74.6856 189.4497
" />
<path d="M74.6856 189.4497
L74.6380 189.8307
" />
<path d="M74.6380 189.8307
L74.7094 190.0212
" />
<path d="M74.7094 190.0212
L74.7928 190.1164
" />
<path d="M74.7928 190.1164
L74.9713 190.2116
" />
<path d="M74.9713 190.2116
L75.3523 190.2116
" />
<path d="M75.3523 190.2116
L75.5547 190.1164
" />
<path d="M75.5547 190.1164
L75.6618 190.0212
" />
<path d="M75.6618 190.0212
L75.7809 189.8307
" />
<path d="M75.7809 189.8307
L75.8285 189.4497
" />
<path d="M75.8285 189.4497
L75.7571 189.2593
" />
<path d="M75.7571 189.2593
L75.6737 189.1640
" />
<path d="M75.6737 189.1640
L75.4951 189.0688
" />
<path d="M76.6856 189.4497
L78.2094 189.4497
" />
<path d="M78.9475 188.8783
L79.7094 188.8783
" />
<path d="M79.0666 190.2116
L79.2809 188.4974
" />
<path d="M79.2809 188.4974
L79.3999 188.3069
" />
<path d="M79.3999 188.3069
L79.6023 188.2116
" />
<path d="M79.6023 188.2116
L79.7928 188.2116
" />
<path d="M80.2094 190.2116
L80.3761 188.8783
" />
<path d="M80.3285 189.2593
L80.4475 189.0688
" />
<path d="M80.4475 189.0688
L80.5547 188.9735
" />
<path d="M80.5547 188.9735
L80.7571 188.8783
" />
<path d="M80.7571 188.8783
L80.9475 188.8783
" />
<path d="M81.7332 190.2116
L81.5547 190.1164
" />
<path d="M81.5547 190.1164
L81.4713 190.0212
" />
<path d="M81.4713 190.0212
L81.3999 189.8307
" />
<path d="M81.3999 189.8307
L81.4713 189.2593
" />
<path d="M81.4713 189.2593
L81.5904 189.0688
" />
<path d="M81.5904 189.0688
L81.6975 188.9735
" />
<path d="M81.6975 188.9735
L81.8999 188.8783
" />
<path d="M81.8999 188.8783
L82.1856 188.8783
" />
<path d="M82.1856 188.8783
L82.3642 188.9735
" />
<path d="M82.3642 188.9735
L82.4475 189.0688
" />
<path d="M82.4475 189.0688
L82.5190 189.2593
" />
<path d="M82.5190 189.2593
L82.4475 189.8307
" />
<path d="M82.4475 189.8307
L82.3285 190.0212
" />
<path d="M82.3285 190.0212
L82.2213 190.1164
" />
<path d="M82.2213 190.1164
L82.0190 190.2116
" />
<path d="M82.0190 190.2116
L81.7332 190.2116
" />
<path d="M83.4237 188.8783
L83.2571 190.2116
" />
<path d="M83.3999 189.0688
L83.5071 188.9735
" />
<path d="M83.5071 188.9735
L83.7094 188.8783
" />
<path d="M83.7094 188.8783
L83.9951 188.8783
" />
<path d="M83.9951 188.8783
L84.1737 188.9735
" />
<path d="M84.1737 188.9735
L84.2451 189.1640
" />
<path d="M84.2451 189.1640
L84.1142 190.2116
" />
<path d="M84.9475 188.8783
L85.7094 188.8783
" />
<path d="M85.3166 188.2116
L85.1023 189.9259
" />
<path d="M85.1023 189.9259
L85.1737 190.1164
" />
<path d="M85.1737 190.1164
L85.3523 190.2116
" />
<path d="M85.3523 190.2116
L85.5428 190.2116
" />
</g></g>
<g style="fill:none; 
stroke:#000000; stroke-width:0.1500; stroke-opacity:1; 
stroke-linecap:round; stroke-linejoin:round;">
<text x="29.0058" y="186.4572"
textLength="34.6500" font-size="2.0000" lengthAdjust="spacingAndGlyphs"
text-anchor="start" opacity="0">File: PM-RQ8-front.kicad_pcb</text>
<g class="stroked-text"><desc>File: PM-RQ8-front.kicad_pcb</desc>
<path d="M29.9616 185.6076
L29.4616 185.6076
" />
<path d="M29.4616 186.3933
L29.4616 184.8933
" />
<path d="M29.4616 184.8933
L30.1759 184.8933
" />
<path d="M30.7473 186.3933
L30.7473 185.3933
" />
<path d="M30.7473 184.8933
L30.6759 184.9648
" />
<path d="M30.6759 184.9648
L30.7473 185.0362
" />
<path d="M30.7473 185.0362
L30.8188 184.9648
" />
<path d="M30.8188 184.9648
L30.7473 184.8933
" />
<path d="M30.7473 184.8933
L30.7473 185.0362
" />
<path d="M31.6759 186.3933
L31.5331 186.3219
" />
<path d="M31.5331 186.3219
L31.4616 186.1790
" />
<path d="M31.4616 186.1790
L31.4616 184.8933
" />
<path d="M32.8188 186.3219
L32.6759 186.3933
" />
<path d="M32.6759 186.3933
L32.3902 186.3933
" />
<path d="M32.3902 186.3933
L32.2473 186.3219
" />
<path d="M32.2473 186.3219
L32.1759 186.1790
" />
<path d="M32.1759 186.1790
L32.1759 185.6076
" />
<path d="M32.1759 185.6076
L32.2473 185.4648
" />
<path d="M32.2473 185.4648
L32.3902 185.3933
" />
<path d="M32.3902 185.3933
L32.6759 185.3933
" />
<path d="M32.6759 185.3933
L32.8188 185.4648
" />
<path d="M32.8188 185.4648
L32.8902 185.6076
" />
<path d="M32.8902 185.6076
L32.8902 185.7505
" />
<path d="M32.8902 185.7505
L32.1759 185.8933
" />
<path d="M33.5331 186.2505
L33.6045 186.3219
" />
<path d="M33.6045 186.3219
L33.5331 186.3933
" />
<path d="M33.5331 186.3933
L33.4616 186.3219
" />
<path d="M33.4616 186.3219
L33.5331 186.2505
" />
<path d="M33.5331 186.2505
L33.5331 186.3933
" />
<path d="M33.5331 185.4648
L33.6045 185.5362
" />
<path d="M33.6045 185.5362
L33.5331 185.6076
" />
<path d="M33.5331 185.6076
L33.4616 185.5362
" />
<path d="M33.4616 185.5362
L33.5331 185.4648
" />
<path d="M33.5331 185.4648
L33.5331 185.6076
" />
<path d="M35.3902 186.3933
L35.3902 184.8933
" />
<path d="M35.3902 184.8933
L35.9616 184.8933
" />
<path d="M35.9616 184.8933
L36.1045 184.9648
" />
<path d="M36.1045 184.9648
L36.1759 185.0362
" />
<path d="M36.1759 185.0362
L36.2473 185.1790
" />
<path d="M36.2473 185.1790
L36.2473 185.3933
" />
<path d="M36.2473 185.3933
L36.1759 185.5362
" />
<path d="M36.1759 185.5362
L36.1045 185.6076
" />
<path d="M36.1045 185.6076
L35.9616 185.6790
" />
<path d="M35.9616 185.6790
L35.3902 185.6790
" />
<path d="M36.8902 186.3933
L36.8902 184.8933
" />
<path d="M36.8902 184.8933
L37.3902 185.9648
" />
<path d="M37.3902 185.9648
L37.8902 184.8933
" />
<path d="M37.8902 184.8933
L37.8902 186.3933
" />
<path d="M38.6045 185.8219
L39.7473 185.8219
" />
<path d="M41.3188 186.3933
L40.8188 185.6790
" />
<path d="M40.4616 186.3933
L40.4616 184.8933
" />
<path d="M40.4616 184.8933
L41.0331 184.8933
" />
<path d="M41.0331 184.8933
L41.1759 184.9648
" />
<path d="M41.1759 184.9648
L41.2473 185.0362
" />
<path d="M41.2473 185.0362
L41.3188 185.1790
" />
<path d="M41.3188 185.1790
L41.3188 185.3933
" />
<path d="M41.3188 185.3933
L41.2473 185.5362
" />
<path d="M41.2473 185.5362
L41.1759 185.6076
" />
<path d="M41.1759 185.6076
L41.0331 185.6790
" />
<path d="M41.0331 185.6790
L40.4616 185.6790
" />
<path d="M42.9616 186.5362
L42.8188 186.4648
" />
<path d="M42.8188 186.4648
L42.6759 186.3219
" />
<path d="M42.6759 186.3219
L42.4616 186.1076
" />
<path d="M42.4616 186.1076
L42.3188 186.0362
" />
<path d="M42.3188 186.0362
L42.1759 186.0362
" />
<path d="M42.2473 186.3933
L42.1045 186.3219
" />
<path d="M42.1045 186.3219
L41.9616 186.1790
" />
<path d="M41.9616 186.1790
L41.8902 185.8933
" />
<path d="M41.8902 185.8933
L41.8902 185.3933
" />
<path d="M41.8902 185.3933
L41.9616 185.1076
" />
<path d="M41.9616 185.1076
L42.1045 184.9648
" />
<path d="M42.1045 184.9648
L42.2473 184.8933
" />
<path d="M42.2473 184.8933
L42.5331 184.8933
" />
<path d="M42.5331 184.8933
L42.6759 184.9648
" />
<path d="M42.6759 184.9648
L42.8188 185.1076
" />
<path d="M42.8188 185.1076
L42.8902 185.3933
" />
<path d="M42.8902 185.3933
L42.8902 185.8933
" />
<path d="M42.8902 185.8933
L42.8188 186.1790
" />
<path d="M42.8188 186.1790
L42.6759 186.3219
" />
<path d="M42.6759 186.3219
L42.5331 186.3933
" />
<path d="M42.5331 186.3933
L42.2473 186.3933
" />
<path d="M43.7473 185.5362
L43.6045 185.4648
" />
<path d="M43.6045 185.4648
L43.5331 185.3933
" />
<path d="M43.5331 185.3933
L43.4616 185.2505
" />
<path d="M43.4616 185.2505
L43.4616 185.1790
" />
<path d="M43.4616 185.1790
L43.5331 185.0362
" />
<path d="M43.5331 185.0362
L43.6045 184.9648
" />
<path d="M43.6045 184.9648
L43.7473 184.8933
" />
<path d="M43.7473 184.8933
L44.0331 184.8933
" />
<path d="M44.0331 184.8933
L44.1759 184.9648
" />
<path d="M44.1759 184.9648
L44.2473 185.0362
" />
<path d="M44.2473 185.0362
L44.3188 185.1790
" />
<path d="M44.3188 185.1790
L44.3188 185.2505
" />
<path d="M44.3188 185.2505
L44.2473 185.3933
" />
<path d="M44.2473 185.3933
L44.1759 185.4648
" />
<path d="M44.1759 185.4648
L44.0331 185.5362
" />
<path d="M44.0331 185.5362
L43.7473 185.5362
" />
<path d="M43.7473 185.5362
L43.6045 185.6076
" />
<path d="M43.6045 185.6076
L43.5331 185.6790
" />
<path d="M43.5331 185.6790
L43.4616 185.8219
" />
<path d="M43.4616 185.8219
L43.4616 186.1076
" />
<path d="M43.4616 186.1076
L43.5331 186.2505
" />
<path d="M43.5331 186.2505
L43.6045 186.3219
" />
<path d="M43.6045 186.3219
L43.7473 186.3933
" />
<path d="M43.7473 186.3933
L44.0331 186.3933
" />
<path d="M44.0331 186.3933
L44.1759 186.3219
" />
<path d="M44.1759 186.3219
L44.2473 186.2505
" />
<path d="M44.2473 186.2505
L44.3188 186.1076
" />
<path d="M44.3188 186.1076
L44.3188 185.8219
" />
<path d="M44.3188 185.8219
L44.2473 185.6790
" />
<path d="M44.2473 185.6790
L44.1759 185.6076
" />
<path d="M44.1759 185.6076
L44.0331 185.5362
" />
<path d="M44.9616 185.8219
L46.1045 185.8219
" />
<path d="M46.6045 185.3933
L47.1759 185.3933
" />
<path d="M46.8188 186.3933
L46.8188 185.1076
" />
<path d="M46.8188 185.1076
L46.8902 184.9648
" />
<path d="M46.8902 184.9648
L47.0331 184.8933
" />
<path d="M47.0331 184.8933
L47.1759 184.8933
" />
<path d="M47.6759 186.3933
L47.6759 185.3933
" />
<path d="M47.6759 185.6790
L47.7473 185.5362
" />
<path d="M47.7473 185.5362
L47.8188 185.4648
" />
<path d="M47.8188 185.4648
L47.9616 185.3933
" />
<path d="M47.9616 185.3933
L48.1045 185.3933
" />
<path d="M48.8188 186.3933
L48.6759 186.3219
" />
<path d="M48.6759 186.3219
L48.6045 186.2505
" />
<path d="M48.6045 186.2505
L48.5331 186.1076
" />
<path d="M48.5331 186.1076
L48.5331 185.6790
" />
<path d="M48.5331 185.6790
L48.6045 185.5362
" />
<path d="M48.6045 185.5362
L48.6759 185.4648
" />
<path d="M48.6759 185.4648
L48.8188 185.3933
" />
<path d="M48.8188 185.3933
L49.0331 185.3933
" />
<path d="M49.0331 185.3933
L49.1759 185.4648
" />
<path d="M49.1759 185.4648
L49.2473 185.5362
" />
<path d="M49.2473 185.5362
L49.3188 185.6790
" />
<path d="M49.3188 185.6790
L49.3188 186.1076
" />
<path d="M49.3188 186.1076
L49.2473 186.2505
" />
<path d="M49.2473 186.2505
L49.1759 186.3219
" />
<path d="M49.1759 186.3219
L49.0331 186.3933
" />
<path d="M49.0331 186.3933
L48.8188 186.3933
" />
<path d="M49.9616 185.3933
L49.9616 186.3933
" />
<path d="M49.9616 185.5362
L50.0331 185.4648
" />
<path d="M50.0331 185.4648
L50.1759 185.3933
" />
<path d="M50.1759 185.3933
L50.3902 185.3933
" />
<path d="M50.3902 185.3933
L50.5331 185.4648
" />
<path d="M50.5331 185.4648
L50.6045 185.6076
" />
<path d="M50.6045 185.6076
L50.6045 186.3933
" />
<path d="M51.1045 185.3933
L51.6759 185.3933
" />
<path d="M51.3188 184.8933
L51.3188 186.1790
" />
<path d="M51.3188 186.1790
L51.3902 186.3219
" />
<path d="M51.3902 186.3219
L51.5331 186.3933
" />
<path d="M51.5331 186.3933
L51.6759 186.3933
" />
<path d="M52.1759 186.2505
L52.2473 186.3219
" />
<path d="M52.2473 186.3219
L52.1759 186.3933
" />
<path d="M52.1759 186.3933
L52.1045 186.3219
" />
<path d="M52.1045 186.3219
L52.1759 186.2505
" />
<path d="M52.1759 186.2505
L52.1759 186.3933
" />
<path d="M52.8902 186.3933
L52.8902 184.8933
" />
<path d="M53.0331 185.8219
L53.4616 186.3933
" />
<path d="M53.4616 185.3933
L52.8902 185.9648
" />
<path d="M54.1045 186.3933
L54.1045 185.3933
" />
<path d="M54.1045 184.8933
L54.0331 184.9648
" />
<path d="M54.0331 184.9648
L54.1045 185.0362
" />
<path d="M54.1045 185.0362
L54.1759 184.9648
" />
<path d="M54.1759 184.9648
L54.1045 184.8933
" />
<path d="M54.1045 184.8933
L54.1045 185.0362
" />
<path d="M55.4616 186.3219
L55.3188 186.3933
" />
<path d="M55.3188 186.3933
L55.0331 186.3933
" />
<path d="M55.0331 186.3933
L54.8902 186.3219
" />
<path d="M54.8902 186.3219
L54.8188 186.2505
" />
<path d="M54.8188 186.2505
L54.7473 186.1076
" />
<path d="M54.7473 186.1076
L54.7473 185.6790
" />
<path d="M54.7473 185.6790
L54.8188 185.5362
" />
<path d="M54.8188 185.5362
L54.8902 185.4648
" />
<path d="M54.8902 185.4648
L55.0331 185.3933
" />
<path d="M55.0331 185.3933
L55.3188 185.3933
" />
<path d="M55.3188 185.3933
L55.4616 185.4648
" />
<path d="M56.7473 186.3933
L56.7473 185.6076
" />
<path d="M56.7473 185.6076
L56.6759 185.4648
" />
<path d="M56.6759 185.4648
L56.5331 185.3933
" />
<path d="M56.5331 185.3933
L56.2473 185.3933
" />
<path d="M56.2473 185.3933
L56.1045 185.4648
" />
<path d="M56.7473 186.3219
L56.6045 186.3933
" />
<path d="M56.6045 186.3933
L56.2473 186.3933
" />
<path d="M56.2473 186.3933
L56.1045 186.3219
" />
<path d="M56.1045 186.3219
L56.0331 186.1790
" />
<path d="M56.0331 186.1790
L56.0331 186.0362
" />
<path d="M56.0331 186.0362
L56.1045 185.8933
" />
<path d="M56.1045 185.8933
L56.2473 185.8219
" />
<path d="M56.2473 185.8219
L56.6045 185.8219
" />
<path d="M56.6045 185.8219
L56.7473 185.7505
" />
<path d="M58.1045 186.3933
L58.1045 184.8933
" />
<path d="M58.1045 186.3219
L57.9616 186.3933
" />
<path d="M57.9616 186.3933
L57.6759 186.3933
" />
<path d="M57.6759 186.3933
L57.5331 186.3219
" />
<path d="M57.5331 186.3219
L57.4616 186.2505
" />
<path d="M57.4616 186.2505
L57.3902 186.1076
" />
<path d="M57.3902 186.1076
L57.3902 185.6790
" />
<path d="M57.3902 185.6790
L57.4616 185.5362
" />
<path d="M57.4616 185.5362
L57.5331 185.4648
" />
<path d="M57.5331 185.4648
L57.6759 185.3933
" />
<path d="M57.6759 185.3933
L57.9616 185.3933
" />
<path d="M57.9616 185.3933
L58.1045 185.4648
" />
<path d="M58.4616 186.5362
L59.6045 186.5362
" />
<path d="M59.9616 185.3933
L59.9616 186.8933
" />
<path d="M59.9616 185.4648
L60.1045 185.3933
" />
<path d="M60.1045 185.3933
L60.3902 185.3933
" />
<path d="M60.3902 185.3933
L60.5331 185.4648
" />
<path d="M60.5331 185.4648
L60.6045 185.5362
" />
<path d="M60.6045 185.5362
L60.6759 185.6790
" />
<path d="M60.6759 185.6790
L60.6759 186.1076
" />
<path d="M60.6759 186.1076
L60.6045 186.2505
" />
<path d="M60.6045 186.2505
L60.5331 186.3219
" />
<path d="M60.5331 186.3219
L60.3902 186.3933
" />
<path d="M60.3902 186.3933
L60.1045 186.3933
" />
<path d="M60.1045 186.3933
L59.9616 186.3219
" />
<path d="M61.9616 186.3219
L61.8188 186.3933
" />
<path d="M61.8188 186.3933
L61.5331 186.3933
" />
<path d="M61.5331 186.3933
L61.3902 186.3219
" />
<path d="M61.3902 186.3219
L61.3188 186.2505
" />
<path d="M61.3188 186.2505
L61.2473 186.1076
" />
<path d="M61.2473 186.1076
L61.2473 185.6790
" />
<path d="M61.2473 185.6790
L61.3188 185.5362
" />
<path d="M61.3188 185.5362
L61.3902 185.4648
" />
<path d="M61.3902 185.4648
L61.5331 185.3933
" />
<path d="M61.5331 185.3933
L61.8188 185.3933
" />
<path d="M61.8188 185.3933
L61.9616 185.4648
" />
<path d="M62.6045 186.3933
L62.6045 184.8933
" />
<path d="M62.6045 185.4648
L62.7473 185.3933
" />
<path d="M62.7473 185.3933
L63.0331 185.3933
" />
<path d="M63.0331 185.3933
L63.1759 185.4648
" />
<path d="M63.1759 185.4648
L63.2473 185.5362
" />
<path d="M63.2473 185.5362
L63.3188 185.6790
" />
<path d="M63.3188 185.6790
L63.3188 186.1076
" />
<path d="M63.3188 186.1076
L63.2473 186.2505
" />
<path d="M63.2473 186.2505
L63.1759 186.3219
" />
<path d="M63.1759 186.3219
L63.0331 186.3933
" />
<path d="M63.0331 186.3933
L62.7473 186.3933
" />
<path d="M62.7473 186.3933
L62.6045 186.3219
" />
</g></g>
<g style="fill:none; 
stroke:#000000; stroke-width:0.1500; stroke-opacity:1; 
stroke-linecap:round; stroke-linejoin:round;">
<path d="M28.0058 181.5072
L136.0058 181.5072
" />
</g>
<g style="fill:none; 
stroke:#000000; stroke-width:0.1500; stroke-opacity:1; 
stroke-linecap:round; stroke-linejoin:round;">
<text x="29.0058" y="183.7572"
textLength="8.2214" font-size="2.0000" lengthAdjust="spacingAndGlyphs"
text-anchor="start" opacity="0">Sheet: </text>
<g class="stroked-text"><desc>Sheet: </desc>
<path d="M29.3902 183.6219
L29.6045 183.6933
" />
<path d="M29.6045 183.6933
L29.9616 183.6933
" />
<path d="M29.9616 183.6933
L30.1045 183.6219
" />
<path d="M30.1045 183.6219
L30.1759 183.5505
" />
<path d="M30.1759 183.5505
L30.2473 183.4076
" />
<path d="M30.2473 183.4076
L30.2473 183.2648
" />
<path d="M30.2473 183.2648
L30.1759 183.1219
" />
<path d="M30.1759 183.1219
L30.1045 183.0505
" />
<path d="M30.1045 183.0505
L29.9616 182.9790
" />
<path d="M29.9616 182.9790
L29.6759 182.9076
" />
<path d="M29.6759 182.9076
L29.5331 182.8362
" />
<path d="M29.5331 182.8362
L29.4616 182.7648
" />
<path d="M29.4616 182.7648
L29.3902 182.6219
" />
<path d="M29.3902 182.6219
L29.3902 182.4790
" />
<path d="M29.3902 182.4790
L29.4616 182.3362
" />
<path d="M29.4616 182.3362
L29.5331 182.2648
" />
<path d="M29.5331 182.2648
L29.6759 182.1933
" />
<path d="M29.6759 182.1933
L30.0331 182.1933
" />
<path d="M30.0331 182.1933
L30.2473 182.2648
" />
<path d="M30.8902 183.6933
L30.8902 182.1933
" />
<path d="M31.5331 183.6933
L31.5331 182.9076
" />
<path d="M31.5331 182.9076
L31.4616 182.7648
" />
<path d="M31.4616 182.7648
L31.3188 182.6933
" />
<path d="M31.3188 182.6933
L31.1045 182.6933
" />
<path d="M31.1045 182.6933
L30.9616 182.7648
" />
<path d="M30.9616 182.7648
L30.8902 182.8362
" />
<path d="M32.8188 183.6219
L32.6759 183.6933
" />
<path d="M32.6759 183.6933
L32.3902 183.6933
" />
<path d="M32.3902 183.6933
L32.2473 183.6219
" />
<path d="M32.2473 183.6219
L32.1759 183.4790
" />
<path d="M32.1759 183.4790
L32.1759 182.9076
" />
<path d="M32.1759 182.9076
L32.2473 182.7648
" />
<path d="M32.2473 182.7648
L32.3902 182.6933
" />
<path d="M32.3902 182.6933
L32.6759 182.6933
" />
<path d="M32.6759 182.6933
L32.8188 182.7648
" />
<path d="M32.8188 182.7648
L32.8902 182.9076
" />
<path d="M32.8902 182.9076
L32.8902 183.0505
" />
<path d="M32.8902 183.0505
L32.1759 183.1933
" />
<path d="M34.1045 183.6219
L33.9616 183.6933
" />
<path d="M33.9616 183.6933
L33.6759 183.6933
" />
<path d="M33.6759 183.6933
L33.5331 183.6219
" />
<path d="M33.5331 183.6219
L33.4616 183.4790
" />
<path d="M33.4616 183.4790
L33.4616 182.9076
" />
<path d="M33.4616 182.9076
L33.5331 182.7648
" />
<path d="M33.5331 182.7648
L33.6759 182.6933
" />
<path d="M33.6759 182.6933
L33.9616 182.6933
" />
<path d="M33.9616 182.6933
L34.1045 182.7648
" />
<path d="M34.1045 182.7648
L34.1759 182.9076
" />
<path d="M34.1759 182.9076
L34.1759 183.0505
" />
<path d="M34.1759 183.0505
L33.4616 183.1933
" />
<path d="M34.6045 182.6933
L35.1759 182.6933
" />
<path d="M34.8188 182.1933
L34.8188 183.4790
" />
<path d="M34.8188 183.4790
L34.8902 183.6219
" />
<path d="M34.8902 183.6219
L35.0331 183.6933
" />
<path d="M35.0331 183.6933
L35.1759 183.6933
" />
<path d="M35.6759 183.5505
L35.7473 183.6219
" />
<path d="M35.7473 183.6219
L35.6759 183.6933
" />
<path d="M35.6759 183.6933
L35.6045 183.6219
" />
<path d="M35.6045 183.6219
L35.6759 183.5505
" />
<path d="M35.6759 183.5505
L35.6759 183.6933
" />
<path d="M35.6759 182.7648
L35.7473 182.8362
" />
<path d="M35.7473 182.8362
L35.6759 182.9076
" />
<path d="M35.6759 182.9076
L35.6045 182.8362
" />
<path d="M35.6045 182.8362
L35.6759 182.7648
" />
<path d="M35.6759 182.7648
L35.6759 182.9076
" />
</g></g>
<g style="fill:none; 
stroke:#000000; stroke-width:0.3000; stroke-opacity:1; 
stroke-linecap:round; stroke-linejoin:round;">
<text x="29.0058" y="180.7572"
textLength="0.9000" font-size="2.0000" lengthAdjust="spacingAndGlyphs"
text-anchor="start" opacity="0"></text>
<g class="stroked-text"><desc></desc>
</g></g>
<g style="fill:none; 
stroke:#000000; stroke-width:0.1500; stroke-opacity:1; 
stroke-linecap:round; stroke-linejoin:round;">
<text x="29.0058" y="177.7572"
textLength="0.4500" font-size="2.0000" lengthAdjust="spacingAndGlyphs"
text-anchor="start" opacity="0"></text>
<g class="stroked-text"><desc></desc>
</g></g>
<g style="fill:none; 
stroke:#000000; stroke-width:0.1500; stroke-opacity:1; 
stroke-linecap:round; stroke-linejoin:round;">
<text x="29.0058" y="174.7572"
textLength="0.4500" font-size="2.0000" lengthAdjust="spacingAndGlyphs"
text-anchor="start" opacity="0"></text>
<g class="stroked-text"><desc></desc>
</g></g>
<g style="fill:none; 
stroke:#000000; stroke-width:0.1500; stroke-opacity:1; 
stroke-linecap:round; stroke-linejoin:round;">
<text x="29.0058" y="171.7572"
textLength="0.4500" font-size="2.0000" lengthAdjust="spacingAndGlyphs"
text-anchor="start" opacity="0"></text>
<g class="stroked-text"><desc></desc>
</g></g>
<g style="fill:none; 
stroke:#000000; stroke-width:0.1500; stroke-opacity:1; 
stroke-linecap:round; stroke-linejoin:round;">
<text x="29.0058" y="168.7572"
textLength="0.4500" font-size="2.0000" lengthAdjust="spacingAndGlyphs"
text-anchor="start" opacity="0"></text>
<g class="stroked-text"><desc></desc>
</g></g>
<g style="fill:none; 
stroke:#000000; stroke-width:0.1500; stroke-opacity:1; 
stroke-linecap:round; stroke-linejoin:round;">
<path d="M48.0058 191.5072
L48.0058 194.5072
" />
</g>
<g style="fill:none; 
stroke:#000000; stroke-width:0.1500; stroke-opacity:1; 
stroke-linecap:round; stroke-linejoin:round;">
<path d="M112.0058 191.5072
L112.0058 198.0072
" />
</g>
<g style="fill:none; 
stroke:#000000; stroke-width:0.3000; stroke-opacity:1; 
stroke-linecap:round; stroke-linejoin:round;">
<g transform="rotate(-90.000000 94.7200 100.3300)">
<text x="94.7200" y="101.0800"
textLength="15.0286" font-size="2.0000" lengthAdjust="spacingAndGlyphs"
text-anchor="middle" opacity="0">99,0600 mm</text>
</g>
<g class="stroked-text"><desc>99,0600 mm</desc>
<path d="M95.3983 107.1157
L95.3983 106.8300
" />
<path d="M95.3983 106.8300
L95.3269 106.6871
" />
<path d="M95.3269 106.6871
L95.2555 106.6157
" />
<path d="M95.2555 106.6157
L95.0412 106.4729
" />
<path d="M95.0412 106.4729
L94.7555 106.4014
" />
<path d="M94.7555 106.4014
L94.1840 106.4014
" />
<path d="M94.1840 106.4014
L94.0412 106.4729
" />
<path d="M94.0412 106.4729
L93.9698 106.5443
" />
<path d="M93.9698 106.5443
L93.8983 106.6871
" />
<path d="M93.8983 106.6871
L93.8983 106.9729
" />
<path d="M93.8983 106.9729
L93.9698 107.1157
" />
<path d="M93.9698 107.1157
L94.0412 107.1871
" />
<path d="M94.0412 107.1871
L94.1840 107.2586
" />
<path d="M94.1840 107.2586
L94.5412 107.2586
" />
<path d="M94.5412 107.2586
L94.6840 107.1871
" />
<path d="M94.6840 107.1871
L94.7555 107.1157
" />
<path d="M94.7555 107.1157
L94.8269 106.9729
" />
<path d="M94.8269 106.9729
L94.8269 106.6871
" />
<path d="M94.8269 106.6871
L94.7555 106.5443
" />
<path d="M94.7555 106.5443
L94.6840 106.4729
" />
<path d="M94.6840 106.4729
L94.5412 106.4014
" />
<path d="M95.3983 105.6871
L95.3983 105.4014
" />
<path d="M95.3983 105.4014
L95.3269 105.2586
" />
<path d="M95.3269 105.2586
L95.2555 105.1871
" />
<path d="M95.2555 105.1871
L95.0412 105.0443
" />
<path d="M95.0412 105.0443
L94.7555 104.9729
" />
<path d="M94.7555 104.9729
L94.1840 104.9729
" />
<path d="M94.1840 104.9729
L94.0412 105.0443
" />
<path d="M94.0412 105.0443
L93.9698 105.1157
" />
<path d="M93.9698 105.1157
L93.8983 105.2586
" />
<path d="M93.8983 105.2586
L93.8983 105.5443
" />
<path d="M93.8983 105.5443
L93.9698 105.6871
" />
<path d="M93.9698 105.6871
L94.0412 105.7586
" />
<path d="M94.0412 105.7586
L94.1840 105.8300
" />
<path d="M94.1840 105.8300
L94.5412 105.8300
" />
<path d="M94.5412 105.8300
L94.6840 105.7586
" />
<path d="M94.6840 105.7586
L94.7555 105.6871
" />
<path d="M94.7555 105.6871
L94.8269 105.5443
" />
<path d="M94.8269 105.5443
L94.8269 105.2586
" />
<path d="M94.8269 105.2586
L94.7555 105.1157
" />
<path d="M94.7555 105.1157
L94.6840 105.0443
" />
<path d="M94.6840 105.0443
L94.5412 104.9729
" />
<path d="M95.3269 104.2586
L95.3983 104.2586
" />
<path d="M95.3983 104.2586
L95.5412 104.3300
" />
<path d="M95.5412 104.3300
L95.6126 104.4014
" />
<path d="M93.8983 103.3300
L93.8983 103.1871
" />
<path d="M93.8983 103.1871
L93.9698 103.0443
" />
<path d="M93.9698 103.0443
L94.0412 102.9729
" />
<path d="M94.0412 102.9729
L94.1840 102.9014
" />
<path d="M94.1840 102.9014
L94.4698 102.8300
" />
<path d="M94.4698 102.8300
L94.8269 102.8300
" />
<path d="M94.8269 102.8300
L95.1126 102.9014
" />
<path d="M95.1126 102.9014
L95.2555 102.9729
" />
<path d="M95.2555 102.9729
L95.3269 103.0443
" />
<path d="M95.3269 103.0443
L95.3983 103.1871
" />
<path d="M95.3983 103.1871
L95.3983 103.3300
" />
<path d="M95.3983 103.3300
L95.3269 103.4729
" />
<path d="M95.3269 103.4729
L95.2555 103.5443
" />
<path d="M95.2555 103.5443
L95.1126 103.6157
" />
<path d="M95.1126 103.6157
L94.8269 103.6871
" />
<path d="M94.8269 103.6871
L94.4698 103.6871
" />
<path d="M94.4698 103.6871
L94.1840 103.6157
" />
<path d="M94.1840 103.6157
L94.0412 103.5443
" />
<path d="M94.0412 103.5443
L93.9698 103.4729
" />
<path d="M93.9698 103.4729
L93.8983 103.3300
" />
<path d="M93.8983 101.5443
L93.8983 101.8300
" />
<path d="M93.8983 101.8300
L93.9698 101.9729
" />
<path d="M93.9698 101.9729
L94.0412 102.0443
" />
<path d="M94.0412 102.0443
L94.2555 102.1871
" />
<path d="M94.2555 102.1871
L94.5412 102.2586
" />
<path d="M94.5412 102.2586
L95.1126 102.2586
" />
<path d="M95.1126 102.2586
L95.2555 102.1871
" />
<path d="M95.2555 102.1871
L95.3269 102.1157
" />
<path d="M95.3269 102.1157
L95.3983 101.9729
" />
<path d="M95.3983 101.9729
L95.3983 101.6871
" />
<path d="M95.3983 101.6871
L95.3269 101.5443
" />
<path d="M95.3269 101.5443
L95.2555 101.4729
" />
<path d="M95.2555 101.4729
L95.1126 101.4014
" />
<path d="M95.1126 101.4014
L94.7555 101.4014
" />
<path d="M94.7555 101.4014
L94.6126 101.4729
" />
<path d="M94.6126 101.4729
L94.5412 101.5443
" />
<path d="M94.5412 101.5443
L94.4698 101.6871
" />
<path d="M94.4698 101.6871
L94.4698 101.9729
" />
<path d="M94.4698 101.9729
L94.5412 102.1157
" />
<path d="M94.5412 102.1157
L94.6126 102.1871
" />
<path d="M94.6126 102.1871
L94.7555 102.2586
" />
<path d="M93.8983 100.4729
L93.8983 100.3300
" />
<path d="M93.8983 100.3300
L93.9698 100.1871
" />
<path d="M93.9698 100.1871
L94.0412 100.1157
" />
<path d="M94.0412 100.1157
L94.1840 100.0443
" />
<path d="M94.1840 100.0443
L94.4698 99.9729
" />
<path d="M94.4698 99.9729
L94.8269 99.9729
" />
<path d="M94.8269 99.9729
L95.1126 100.0443
" />
<path d="M95.1126 100.0443
L95.2555 100.1157
" />
<path d="M95.2555 100.1157
L95.3269 100.1871
" />
<path d="M95.3269 100.1871
L95.3983 100.3300
" />
<path d="M95.3983 100.3300
L95.3983 100.4729
" />
<path d="M95.3983 100.4729
L95.3269 100.6157
" />
<path d="M95.3269 100.6157
L95.2555 100.6871
" />
<path d="M95.2555 100.6871
L95.1126 100.7586
" />
<path d="M95.1126 100.7586
L94.8269 100.8300
" />
<path d="M94.8269 100.8300
L94.4698 100.8300
" />
<path d="M94.4698 100.8300
L94.1840 100.7586
" />
<path d="M94.1840 100.7586
L94.0412 100.6871
" />
<path d="M94.0412 100.6871
L93.9698 100.6157
" />
<path d="M93.9698 100.6157
L93.8983 100.4729
" />
<path d="M93.8983 99.0443
L93.8983 98.9014
" />
<path d="M93.8983 98.9014
L93.9698 98.7586
" />
<path d="M93.9698 98.7586
L94.0412 98.6871
" />
<path d="M94.0412 98.6871
L94.1840 98.6157
" />
<path d="M94.1840 98.6157
L94.4698 98.5443
" />
<path d="M94.4698 98.5443
L94.8269 98.5443
" />
<path d="M94.8269 98.5443
L95.1126 98.6157
" />
<path d="M95.1126 98.6157
L95.2555 98.6871
" />
<path d="M95.2555 98.6871
L95.3269 98.7586
" />
<path d="M95.3269 98.7586
L95.3983 98.9014
" />
<path d="M95.3983 98.9014
L95.3983 99.0443
" />
<path d="M95.3983 99.0443
L95.3269 99.1871
" />
<path d="M95.3269 99.1871
L95.2555 99.2586
" />
<path d="M95.2555 99.2586
L95.1126 99.3300
" />
<path d="M95.1126 99.3300
L94.8269 99.4014
" />
<path d="M94.8269 99.4014
L94.4698 99.4014
" />
<path d="M94.4698 99.4014
L94.1840 99.3300
" />
<path d="M94.1840 99.3300
L94.0412 99.2586
" />
<path d="M94.0412 99.2586
L93.9698 99.1871
" />
<path d="M93.9698 99.1871
L93.8983 99.0443
" />
<path d="M95.3983 96.7586
L94.3983 96.7586
" />
<path d="M94.5412 96.7586
L94.4698 96.6871
" />
<path d="M94.4698 96.6871
L94.3983 96.5443
" />
<path d="M94.3983 96.5443
L94.3983 96.3300
" />
<path d="M94.3983 96.3300
L94.4698 96.1871
" />
<path d="M94.4698 96.1871
L94.6126 96.1157
" />
<path d="M94.6126 96.1157
L95.3983 96.1157
" />
<path d="M94.6126 96.1157
L94.4698 96.0443
" />
<path d="M94.4698 96.0443
L94.3983 95.9014
" />
<path d="M94.3983 95.9014
L94.3983 95.6871
" />
<path d="M94.3983 95.6871
L94.4698 95.5443
" />
<path d="M94.4698 95.5443
L94.6126 95.4729
" />
<path d="M94.6126 95.4729
L95.3983 95.4729
" />
<path d="M95.3983 94.7586
L94.3983 94.7586
" />
<path d="M94.5412 94.7586
L94.4698 94.6871
" />
<path d="M94.4698 94.6871
L94.3983 94.5443
" />
<path d="M94.3983 94.5443
L94.3983 94.3300
" />
<path d="M94.3983 94.3300
L94.4698 94.1871
" />
<path d="M94.4698 94.1871
L94.6126 94.1157
" />
<path d="M94.6126 94.1157
L95.3983 94.1157
" />
<path d="M94.6126 94.1157
L94.4698 94.0443
" />
<path d="M94.4698 94.0443
L94.3983 93.9014
" />
<path d="M94.3983 93.9014
L94.3983 93.6871
" />
<path d="M94.3983 93.6871
L94.4698 93.5443
" />
<path d="M94.4698 93.5443
L94.6126 93.4729
" />
<path d="M94.6126 93.4729
L95.3983 93.4729
" />
</g></g>
<g style="fill:none; 
stroke:#000000; stroke-width:0.2000; stroke-opacity:1; 
stroke-linecap:round; stroke-linejoin:round;">
<path d="M81.7800 50.8000
L97.1064 50.8000
" />
<path d="M81.7800 149.8600
L97.1064 149.8600
" />
<path d="M96.5200 50.8000
L96.5200 149.8600
" />
<path d="M96.5200 50.8000
L96.5200 149.8600
" />
<path d="M96.5200 50.8000
L97.1064 51.9265
" />
<path d="M96.5200 50.8000
L95.9336 51.9265
" />
<path d="M96.5200 149.8600
L95.9336 148.7335
" />
<path d="M96.5200 149.8600
L97.1064 148.7335
" />
</g>
<g style="fill:none; 
stroke:#000000; stroke-width:0.3000; stroke-opacity:1; 
stroke-linecap:round; stroke-linejoin:round;">
<text x="66.0400" y="156.4300"
textLength="15.0286" font-size="2.0000" lengthAdjust="spacingAndGlyphs"
text-anchor="middle" opacity="0">30,4800 mm</text>
<g class="stroked-text"><desc>30,4800 mm</desc>
<path d="M59.0400 154.8583
L59.9686 154.8583
" />
<path d="M59.9686 154.8583
L59.4686 155.4298
" />
<path d="M59.4686 155.4298
L59.6829 155.4298
" />
<path d="M59.6829 155.4298
L59.8257 155.5012
" />
<path d="M59.8257 155.5012
L59.8971 155.5726
" />
<path d="M59.8971 155.5726
L59.9686 155.7155
" />
<path d="M59.9686 155.7155
L59.9686 156.0726
" />
<path d="M59.9686 156.0726
L59.8971 156.2155
" />
<path d="M59.8971 156.2155
L59.8257 156.2869
" />
<path d="M59.8257 156.2869
L59.6829 156.3583
" />
<path d="M59.6829 156.3583
L59.2543 156.3583
" />
<path d="M59.2543 156.3583
L59.1114 156.2869
" />
<path d="M59.1114 156.2869
L59.0400 156.2155
" />
<path d="M60.8971 154.8583
L61.0400 154.8583
" />
<path d="M61.0400 154.8583
L61.1829 154.9298
" />
<path d="M61.1829 154.9298
L61.2543 155.0012
" />
<path d="M61.2543 155.0012
L61.3257 155.1440
" />
<path d="M61.3257 155.1440
L61.3971 155.4298
" />
<path d="M61.3971 155.4298
L61.3971 155.7869
" />
<path d="M61.3971 155.7869
L61.3257 156.0726
" />
<path d="M61.3257 156.0726
L61.2543 156.2155
" />
<path d="M61.2543 156.2155
L61.1829 156.2869
" />
<path d="M61.1829 156.2869
L61.0400 156.3583
" />
<path d="M61.0400 156.3583
L60.8971 156.3583
" />
<path d="M60.8971 156.3583
L60.7543 156.2869
" />
<path d="M60.7543 156.2869
L60.6829 156.2155
" />
<path d="M60.6829 156.2155
L60.6114 156.0726
" />
<path d="M60.6114 156.0726
L60.5400 155.7869
" />
<path d="M60.5400 155.7869
L60.5400 155.4298
" />
<path d="M60.5400 155.4298
L60.6114 155.1440
" />
<path d="M60.6114 155.1440
L60.6829 155.0012
" />
<path d="M60.6829 155.0012
L60.7543 154.9298
" />
<path d="M60.7543 154.9298
L60.8971 154.8583
" />
<path d="M62.1114 156.2869
L62.1114 156.3583
" />
<path d="M62.1114 156.3583
L62.0400 156.5012
" />
<path d="M62.0400 156.5012
L61.9686 156.5726
" />
<path d="M63.3971 155.3583
L63.3971 156.3583
" />
<path d="M63.0400 154.7869
L62.6829 155.8583
" />
<path d="M62.6829 155.8583
L63.6114 155.8583
" />
<path d="M64.3971 155.5012
L64.2543 155.4298
" />
<path d="M64.2543 155.4298
L64.1829 155.3583
" />
<path d="M64.1829 155.3583
L64.1114 155.2155
" />
<path d="M64.1114 155.2155
L64.1114 155.1440
" />
<path d="M64.1114 155.1440
L64.1829 155.0012
" />
<path d="M64.1829 155.0012
L64.2543 154.9298
" />
<path d="M64.2543 154.9298
L64.3971 154.8583
" />
<path d="M64.3971 154.8583
L64.6829 154.8583
" />
<path d="M64.6829 154.8583
L64.8257 154.9298
" />
<path d="M64.8257 154.9298
L64.8971 155.0012
" />
<path d="M64.8971 155.0012
L64.9686 155.1440
" />
<path d="M64.9686 155.1440
L64.9686 155.2155
" />
<path d="M64.9686 155.2155
L64.8971 155.3583
" />
<path d="M64.8971 155.3583
L64.8257 155.4298
" />
<path d="M64.8257 155.4298
L64.6829 155.5012
" />
<path d="M64.6829 155.5012
L64.3971 155.5012
" />
<path d="M64.3971 155.5012
L64.2543 155.5726
" />
<path d="M64.2543 155.5726
L64.1829 155.6440
" />
<path d="M64.1829 155.6440
L64.1114 155.7869
" />
<path d="M64.1114 155.7869
L64.1114 156.0726
" />
<path d="M64.1114 156.0726
L64.1829 156.2155
" />
<path d="M64.1829 156.2155
L64.2543 156.2869
" />
<path d="M64.2543 156.2869
L64.3971 156.3583
" />
<path d="M64.3971 156.3583
L64.6829 156.3583
" />
<path d="M64.6829 156.3583
L64.8257 156.2869
" />
<path d="M64.8257 156.2869
L64.8971 156.2155
" />
<path d="M64.8971 156.2155
L64.9686 156.0726
" />
<path d="M64.9686 156.0726
L64.9686 155.7869
" />
<path d="M64.9686 155.7869
L64.8971 155.6440
" />
<path d="M64.8971 155.6440
L64.8257 155.5726
" />
<path d="M64.8257 155.5726
L64.6829 155.5012
" />
<path d="M65.8971 154.8583
L66.0400 154.8583
" />
<path d="M66.0400 154.8583
L66.1829 154.9298
" />
<path d="M66.1829 154.9298
L66.2543 155.0012
" />
<path d="M66.2543 155.0012
L66.3257 155.1440
" />
<path d="M66.3257 155.1440
L66.3971 155.4298
" />
<path d="M66.3971 155.4298
L66.3971 155.7869
" />
<path d="M66.3971 155.7869
L66.3257 156.0726
" />
<path d="M66.3257 156.0726
L66.2543 156.2155
" />
<path d="M66.2543 156.2155
L66.1829 156.2869
" />
<path d="M66.1829 156.2869
L66.0400 156.3583
" />
<path d="M66.0400 156.3583
L65.8971 156.3583
" />
<path d="M65.8971 156.3583
L65.7543 156.2869
" />
<path d="M65.7543 156.2869
L65.6829 156.2155
" />
<path d="M65.6829 156.2155
L65.6114 156.0726
" />
<path d="M65.6114 156.0726
L65.5400 155.7869
" />
<path d="M65.5400 155.7869
L65.5400 155.4298
" />
<path d="M65.5400 155.4298
L65.6114 155.1440
" />
<path d="M65.6114 155.1440
L65.6829 155.0012
" />
<path d="M65.6829 155.0012
L65.7543 154.9298
" />
<path d="M65.7543 154.9298
L65.8971 154.8583
" />
<path d="M67.3257 154.8583
L67.4686 154.8583
" />
<path d="M67.4686 154.8583
L67.6114 154.9298
" />
<path d="M67.6114 154.9298
L67.6829 155.0012
" />
<path d="M67.6829 155.0012
L67.7543 155.1440
" />
<path d="M67.7543 155.1440
L67.8257 155.4298
" />
<path d="M67.8257 155.4298
L67.8257 155.7869
" />
<path d="M67.8257 155.7869
L67.7543 156.0726
" />
<path d="M67.7543 156.0726
L67.6829 156.2155
" />
<path d="M67.6829 156.2155
L67.6114 156.2869
" />
<path d="M67.6114 156.2869
L67.4686 156.3583
" />
<path d="M67.4686 156.3583
L67.3257 156.3583
" />
<path d="M67.3257 156.3583
L67.1829 156.2869
" />
<path d="M67.1829 156.2869
L67.1114 156.2155
" />
<path d="M67.1114 156.2155
L67.0400 156.0726
" />
<path d="M67.0400 156.0726
L66.9686 155.7869
" />
<path d="M66.9686 155.7869
L66.9686 155.4298
" />
<path d="M66.9686 155.4298
L67.0400 155.1440
" />
<path d="M67.0400 155.1440
L67.1114 155.0012
" />
<path d="M67.1114 155.0012
L67.1829 154.9298
" />
<path d="M67.1829 154.9298
L67.3257 154.8583
" />
<path d="M69.6114 156.3583
L69.6114 155.3583
" />
<path d="M69.6114 155.5012
L69.6829 155.4298
" />
<path d="M69.6829 155.4298
L69.8257 155.3583
" />
<path d="M69.8257 155.3583
L70.0400 155.3583
" />
<path d="M70.0400 155.3583
L70.1829 155.4298
" />
<path d="M70.1829 155.4298
L70.2543 155.5726
" />
<path d="M70.2543 155.5726
L70.2543 156.3583
" />
<path d="M70.2543 155.5726
L70.3257 155.4298
" />
<path d="M70.3257 155.4298
L70.4686 155.3583
" />
<path d="M70.4686 155.3583
L70.6829 155.3583
" />
<path d="M70.6829 155.3583
L70.8257 155.4298
" />
<path d="M70.8257 155.4298
L70.8971 155.5726
" />
<path d="M70.8971 155.5726
L70.8971 156.3583
" />
<path d="M71.6114 156.3583
L71.6114 155.3583
" />
<path d="M71.6114 155.5012
L71.6829 155.4298
" />
<path d="M71.6829 155.4298
L71.8257 155.3583
" />
<path d="M71.8257 155.3583
L72.0400 155.3583
" />
<path d="M72.0400 155.3583
L72.1829 155.4298
" />
<path d="M72.1829 155.4298
L72.2543 155.5726
" />
<path d="M72.2543 155.5726
L72.2543 156.3583
" />
<path d="M72.2543 155.5726
L72.3257 155.4298
" />
<path d="M72.3257 155.4298
L72.4686 155.3583
" />
<path d="M72.4686 155.3583
L72.6829 155.3583
" />
<path d="M72.6829 155.3583
L72.8257 155.4298
" />
<path d="M72.8257 155.4298
L72.8971 155.5726
" />
<path d="M72.8971 155.5726
L72.8971 156.3583
" />
</g></g>
<g style="fill:none; 
stroke:#000000; stroke-width:0.1000; stroke-opacity:1; 
stroke-linecap:round; stroke-linejoin:round;">
<path d="M50.8000 150.3600
L50.8000 158.0664
" />
<path d="M81.2800 150.3600
L81.2800 158.0664
" />
<path d="M50.8000 157.4800
L81.2800 157.4800
" />
<path d="M50.8000 157.4800
L81.2800 157.4800
" />
<path d="M50.8000 157.4800
L51.9265 156.8936
" />
<path d="M50.8000 157.4800
L51.9265 158.0664
" />
<path d="M81.2800 157.4800
L80.1535 158.0664
" />
<path d="M81.2800 157.4800
L80.1535 156.8936
" />
</g>
<g style="fill:none; 
stroke:#000000; stroke-width:0.2000; stroke-opacity:1; 
stroke-linecap:round; stroke-linejoin:round;">
<path d="M78.7400 149.8600 A2.5400 2.5400 0.0 0 0 81.2800 147.3200" />
<path d="M50.8000 147.3200 A2.5400 2.5400 0.0 0 0 53.3400 149.8600" />
<path d="M81.2800 53.3400 A2.5400 2.5400 0.0 0 0 78.7400 50.8000" />
<path d="M53.3400 50.8000
L78.7400 50.8000
" />
<path d="M81.2800 53.3400
L81.2800 147.3200
" />
<path d="M78.7400 149.8600
L53.3400 149.8600
" />
<path d="M50.8000 147.3200
L50.8000 53.3400
" />
<path d="M53.3400 50.8000 A2.5400 2.5400 0.0 0 0 50.8000 53.3400" />
</g> 
</svg>
