<?xml version="1.0" standalone="no"?>
 <!DOCTYPE svg PUBLIC "-//W3C//DTD SVG 1.1//EN" 
 "http://www.w3.org/Graphics/SVG/1.1/DTD/svg11.dtd"> 
<svg
  xmlns:svg="http://www.w3.org/2000/svg"
  xmlns="http://www.w3.org/2000/svg"
  xmlns:xlink="http://www.w3.org/1999/xlink"
  xmlns:inkscape="http://www.inkscape.org/namespaces/inkscape"
  version="1.1"
  width="297.0022mm" height="210.0072mm" viewBox="0.0000 0.0000 297.0022 210.0072">
<title>SVG Image created as PMCNV-DIx32-PTH-drl_map.svg date 2026-05-17T18:54:14 </title>
  <desc>Image generated by PCBNEW </desc>
<g style="fill:#000000; fill-opacity:1.0000;stroke:#000000; stroke-opacity:1.0000;
stroke-linecap:round; stroke-linejoin:round;"
 transform="translate(0 0) scale(1 1)">
</g>
<g style="fill:none; 
stroke:#000000; stroke-width:0.0579; stroke-opacity:1; 
stroke-linecap:round; stroke-linejoin:round;">
<circle cx="107.4018" cy="10.9044" r="2.4891" /> 
</g>
<g style="fill:none; 
stroke:#000000; stroke-width:0.2315; stroke-opacity:1; 
stroke-linecap:round; stroke-linejoin:round;">
<path d="M107.4018 6.2735 A4.6309 4.6309 0.0 0 0 107.4018 15.5353" />
<path d="M107.4018 15.5353
L110.8749 15.5353
" />
</g>
<g style="fill:none; 
stroke:#000000; stroke-width:0.0579; stroke-opacity:1; 
stroke-linecap:round; stroke-linejoin:round;">
<circle cx="107.4018" cy="115.0999" r="2.4891" /> 
</g>
<g style="fill:none; 
stroke:#000000; stroke-width:0.2315; stroke-opacity:1; 
stroke-linecap:round; stroke-linejoin:round;">
<path d="M107.4018 110.4690 A4.6309 4.6309 0.0 0 0 107.4018 119.7308" />
<path d="M107.4018 119.7308
L110.8749 119.7308
" />
<path d="M110.8749 6.2735
L107.4018 6.2735
" />
<path d="M110.8749 6.2735
L110.8749 9.7467
" />
<path d="M110.8749 12.0621
L113.1904 12.0621
" />
<path d="M110.8749 15.5353
L110.8749 12.0621
" />
<path d="M110.8749 110.4690
L107.4018 110.4690
" />
<path d="M110.8749 110.4690
L110.8749 113.9422
" />
<path d="M110.8749 116.2576
L113.1904 116.2576
" />
<path d="M110.8749 119.7308
L110.8749 116.2576
" />
<path d="M113.1904 8.5890
L113.1904 9.7467
" />
<path d="M116.6636 5.1158 A3.4732 3.4732 0.0 0 0 113.1904 8.5890" />
<path d="M113.1904 9.7467
L110.8749 9.7467
" />
<path d="M113.1904 113.9422
L110.8749 113.9422
" />
<path d="M113.1904 113.9422
L113.1904 12.0621
" />
<path d="M113.1904 117.4154
L113.1904 116.2576
" />
<path d="M116.6636 5.1158
L190.7582 5.1158
" />
<path d="M113.1904 117.4154 A3.4732 3.4732 0.0 0 0 116.6636 120.8885" />
<path d="M116.6636 120.8885
L190.7582 120.8885
" />
<path d="M194.2313 8.5890 A3.4732 3.4732 0.0 0 0 190.7582 5.1158" />
<path d="M194.2313 8.5890
L194.2313 117.4154
" />
<path d="M190.7582 120.8885 A3.4732 3.4732 0.0 0 0 194.2313 117.4154" />
</g>
<g style="fill:none; 
stroke:#000000; stroke-width:0.1158; stroke-opacity:1; 
stroke-linecap:round; stroke-linejoin:round;">
<path d="M116.4320 36.7217
L116.8951 37.1848
" />
<path d="M116.8951 36.7217
L116.4320 37.1848
" />
<path d="M116.4320 39.0372
L116.8951 39.5003
" />
<path d="M116.8951 39.0372
L116.4320 39.5003
" />
<path d="M118.7475 37.8795
L119.2106 38.3426
" />
<path d="M119.2106 37.8795
L118.7475 38.3426
" />
<path d="M118.7475 40.1949
L119.2106 40.6580
" />
<path d="M119.2106 40.1949
L118.7475 40.6580
" />
<path d="M121.0630 35.5640
L121.5260 36.0271
" />
<path d="M121.5260 35.5640
L121.0630 36.0271
" />
<path d="M121.0630 37.8795
L121.5260 38.3426
" />
<path d="M121.5260 37.8795
L121.0630 38.3426
" />
<path d="M121.0630 40.1949
L121.5260 40.6580
" />
<path d="M121.5260 40.1949
L121.0630 40.6580
" />
<path d="M121.0630 42.5104
L121.5260 42.9735
" />
<path d="M121.5260 42.5104
L121.0630 42.9735
" />
<path d="M121.0630 44.8258
L121.5260 45.2889
" />
<path d="M121.5260 44.8258
L121.0630 45.2889
" />
<path d="M121.0630 47.1413
L121.5260 47.6044
" />
<path d="M121.5260 47.1413
L121.0630 47.6044
" />
<path d="M121.0630 49.4567
L121.5260 49.9198
" />
<path d="M121.5260 49.4567
L121.0630 49.9198
" />
<path d="M121.0630 51.7722
L121.5260 52.2353
" />
<path d="M121.5260 51.7722
L121.0630 52.2353
" />
<path d="M121.0630 54.0877
L121.5260 54.5507
" />
<path d="M121.5260 54.0877
L121.0630 54.5507
" />
<path d="M121.0630 56.4031
L121.5260 56.8662
" />
<path d="M121.5260 56.4031
L121.0630 56.8662
" />
<path d="M123.3784 34.4063
L123.8415 34.8694
" />
<path d="M123.8415 34.4063
L123.3784 34.8694
" />
<path d="M123.3784 36.7217
L123.8415 37.1848
" />
<path d="M123.8415 36.7217
L123.3784 37.1848
" />
<path d="M123.3784 39.0372
L123.8415 39.5003
" />
<path d="M123.8415 39.0372
L123.3784 39.5003
" />
<path d="M123.3784 41.3527
L123.8415 41.8157
" />
<path d="M123.8415 41.3527
L123.3784 41.8157
" />
<path d="M123.3784 43.6681
L123.8415 44.1312
" />
<path d="M123.8415 43.6681
L123.3784 44.1312
" />
<path d="M123.3784 45.9836
L123.8415 46.4467
" />
<path d="M123.8415 45.9836
L123.3784 46.4467
" />
<path d="M123.3784 48.2990
L123.8415 48.7621
" />
<path d="M123.8415 48.2990
L123.3784 48.7621
" />
<path d="M123.3784 50.6145
L123.8415 51.0776
" />
<path d="M123.8415 50.6145
L123.3784 51.0776
" />
<path d="M123.3784 52.9299
L123.8415 53.3930
" />
<path d="M123.8415 52.9299
L123.3784 53.3930
" />
<path d="M123.3784 55.2454
L123.8415 55.7085
" />
<path d="M123.8415 55.2454
L123.3784 55.7085
" />
<path d="M124.5361 31.5120
L124.9992 31.9751
" />
<path d="M124.9992 31.5120
L124.5361 31.9751
" />
<path d="M124.5361 77.2422
L124.9992 77.7053
" />
<path d="M124.9992 77.2422
L124.5361 77.7053
" />
<path d="M125.6939 38.4583
L126.1570 38.9214
" />
<path d="M126.1570 38.4583
L125.6939 38.9214
" />
<path d="M125.6939 52.9299
L126.1570 53.3930
" />
<path d="M126.1570 52.9299
L125.6939 53.3930
" />
<path d="M125.6939 79.5577
L126.1570 80.0208
" />
<path d="M126.1570 79.5577
L125.6939 80.0208
" />
<path d="M126.8516 39.6161
L127.3147 40.0792
" />
<path d="M127.3147 39.6161
L126.8516 40.0792
" />
<path d="M126.8516 54.0877
L127.3147 54.5507
" />
<path d="M127.3147 54.0877
L126.8516 54.5507
" />
<path d="M126.8516 82.4520
L127.3147 82.9151
" />
<path d="M127.3147 82.4520
L126.8516 82.9151
" />
<path d="M128.0093 47.1413
L128.4724 47.6044
" />
<path d="M128.4724 47.1413
L128.0093 47.6044
" />
<path d="M128.0093 50.6145
L128.4724 51.0776
" />
<path d="M128.4724 50.6145
L128.0093 51.0776
" />
<path d="M128.0093 92.2927
L128.4724 92.7558
" />
<path d="M128.4724 92.2927
L128.0093 92.7558
" />
<path d="M129.7459 40.7738
L130.2090 41.2369
" />
<path d="M130.2090 40.7738
L129.7459 41.2369
" />
<path d="M129.7459 87.0829
L130.2090 87.5460
" />
<path d="M130.2090 87.0829
L129.7459 87.5460
" />
<path d="M130.9036 41.3527
L131.3667 41.8157
" />
<path d="M131.3667 41.3527
L130.9036 41.8157
" />
<path d="M130.9036 87.6618
L131.3667 88.1249
" />
<path d="M131.3667 87.6618
L130.9036 88.1249
" />
<path d="M132.0614 41.9315
L132.5245 42.3946
" />
<path d="M132.5245 41.9315
L132.0614 42.3946
" />
<path d="M132.0614 88.2406
L132.5245 88.7037
" />
<path d="M132.5245 88.2406
L132.0614 88.7037
" />
<path d="M132.6402 76.6633
L133.1033 77.1264
" />
<path d="M133.1033 76.6633
L132.6402 77.1264
" />
<path d="M133.7980 37.1269
L134.2610 37.5900
" />
<path d="M134.2610 37.1269
L133.7980 37.5900
" />
<path d="M133.7980 39.6161
L134.2610 40.0792
" />
<path d="M134.2610 39.6161
L133.7980 40.0792
" />
<path d="M133.7980 41.7810
L134.2610 42.2441
" />
<path d="M134.2610 41.7810
L133.7980 42.2441
" />
<path d="M133.7980 77.8211
L134.2610 78.2842
" />
<path d="M134.2610 77.8211
L133.7980 78.2842
" />
<path d="M133.7980 83.4361
L134.2610 83.8991
" />
<path d="M134.2610 83.4361
L133.7980 83.8991
" />
<path d="M133.7980 85.9252
L134.2610 86.3883
" />
<path d="M134.2610 85.9252
L133.7980 86.3883
" />
<path d="M133.7980 88.0901
L134.2610 88.5532
" />
<path d="M134.2610 88.0901
L133.7980 88.5532
" />
<path d="M134.9557 76.6633
L135.4188 77.1264
" />
<path d="M135.4188 76.6633
L134.9557 77.1264
" />
<path d="M136.1134 77.2422
L136.5765 77.7053
" />
<path d="M136.5765 77.2422
L136.1134 77.7053
" />
<path d="M137.2711 76.6633
L137.7342 77.1264
" />
<path d="M137.7342 76.6633
L137.2711 77.1264
" />
<path d="M138.4289 77.2422
L138.8920 77.7053
" />
<path d="M138.8920 77.2422
L138.4289 77.7053
" />
<path d="M139.5866 76.6633
L140.0497 77.1264
" />
<path d="M140.0497 76.6633
L139.5866 77.1264
" />
<path d="M140.7443 77.8211
L141.2074 78.2842
" />
<path d="M141.2074 77.8211
L140.7443 78.2842
" />
<path d="M146.5330 45.9836
L146.9961 46.4467
" />
<path d="M146.9961 45.9836
L146.5330 46.4467
" />
<path d="M146.5330 47.1413
L146.9961 47.6044
" />
<path d="M146.9961 47.1413
L146.5330 47.6044
" />
<path d="M146.5330 48.2990
L146.9961 48.7621
" />
<path d="M146.9961 48.2990
L146.5330 48.7621
" />
<path d="M146.5330 49.4567
L146.9961 49.9198
" />
<path d="M146.9961 49.4567
L146.5330 49.9198
" />
<path d="M146.5330 50.6145
L146.9961 51.0776
" />
<path d="M146.9961 50.6145
L146.5330 51.0776
" />
<path d="M146.5330 51.7722
L146.9961 52.2353
" />
<path d="M146.9961 51.7722
L146.5330 52.2353
" />
<path d="M146.5330 52.9299
L146.9961 53.3930
" />
<path d="M146.9961 52.9299
L146.5330 53.3930
" />
<path d="M146.5330 54.0877
L146.9961 54.5507
" />
<path d="M146.9961 54.0877
L146.5330 54.5507
" />
<path d="M152.6110 51.4162
L153.0741 51.8793
" />
<path d="M153.0741 51.4162
L152.6110 51.8793
" />
<path d="M152.6110 74.5708
L153.0741 75.0338
" />
<path d="M153.0741 74.5708
L152.6110 75.0338
" />
<path d="M152.6110 97.7253
L153.0741 98.1884
" />
<path d="M153.0741 97.7253
L152.6110 98.1884
" />
<path d="M152.7079 28.2616
L153.1709 28.7247
" />
<path d="M153.1709 28.2616
L152.7079 28.7247
" />
<path d="M162.7412 23.4079
L163.2042 23.8710
" />
<path d="M163.2042 23.4079
L162.7412 23.8710
" />
<path d="M162.7412 24.5656
L163.2042 25.0287
" />
<path d="M163.2042 24.5656
L162.7412 25.0287
" />
<path d="M162.7412 25.7233
L163.2042 26.1864
" />
<path d="M163.2042 25.7233
L162.7412 26.1864
" />
<path d="M162.7412 26.8811
L163.2042 27.3441
" />
<path d="M163.2042 26.8811
L162.7412 27.3441
" />
<path d="M162.7412 29.1965
L163.2042 29.6596
" />
<path d="M163.2042 29.1965
L162.7412 29.6596
" />
<path d="M162.7412 30.3542
L163.2042 30.8173
" />
<path d="M163.2042 30.3542
L162.7412 30.8173
" />
<path d="M162.7412 31.5120
L163.2042 31.9751
" />
<path d="M163.2042 31.5120
L162.7412 31.9751
" />
<path d="M162.7412 32.6697
L163.2042 33.1328
" />
<path d="M163.2042 32.6697
L162.7412 33.1328
" />
<path d="M162.7412 46.5624
L163.2042 47.0255
" />
<path d="M163.2042 46.5624
L162.7412 47.0255
" />
<path d="M162.7412 47.7202
L163.2042 48.1832
" />
<path d="M163.2042 47.7202
L162.7412 48.1832
" />
<path d="M162.7412 48.8779
L163.2042 49.3410
" />
<path d="M163.2042 48.8779
L162.7412 49.3410
" />
<path d="M162.7412 50.0356
L163.2042 50.4987
" />
<path d="M163.2042 50.0356
L162.7412 50.4987
" />
<path d="M162.7412 52.3511
L163.2042 52.8142
" />
<path d="M163.2042 52.3511
L162.7412 52.8142
" />
<path d="M162.7412 53.5088
L163.2042 53.9719
" />
<path d="M163.2042 53.5088
L162.7412 53.9719
" />
<path d="M162.7412 54.6665
L163.2042 55.1296
" />
<path d="M163.2042 54.6665
L162.7412 55.1296
" />
<path d="M162.7412 55.8242
L163.2042 56.2873
" />
<path d="M163.2042 55.8242
L162.7412 56.2873
" />
<path d="M162.7412 69.7170
L163.2042 70.1801
" />
<path d="M163.2042 69.7170
L162.7412 70.1801
" />
<path d="M162.7412 70.8747
L163.2042 71.3378
" />
<path d="M163.2042 70.8747
L162.7412 71.3378
" />
<path d="M162.7412 72.0324
L163.2042 72.4955
" />
<path d="M163.2042 72.0324
L162.7412 72.4955
" />
<path d="M162.7412 73.1902
L163.2042 73.6533
" />
<path d="M163.2042 73.1902
L162.7412 73.6533
" />
<path d="M162.7412 75.5056
L163.2042 75.9687
" />
<path d="M163.2042 75.5056
L162.7412 75.9687
" />
<path d="M162.7412 76.6633
L163.2042 77.1264
" />
<path d="M163.2042 76.6633
L162.7412 77.1264
" />
<path d="M162.7412 77.8211
L163.2042 78.2842
" />
<path d="M163.2042 77.8211
L162.7412 78.2842
" />
<path d="M162.7412 78.9788
L163.2042 79.4419
" />
<path d="M163.2042 78.9788
L162.7412 79.4419
" />
<path d="M162.7412 92.8715
L163.2042 93.3346
" />
<path d="M163.2042 92.8715
L162.7412 93.3346
" />
<path d="M162.7412 94.0293
L163.2042 94.4924
" />
<path d="M163.2042 94.0293
L162.7412 94.4924
" />
<path d="M162.7412 95.1870
L163.2042 95.6501
" />
<path d="M163.2042 95.1870
L162.7412 95.6501
" />
<path d="M162.7412 96.3447
L163.2042 96.8078
" />
<path d="M163.2042 96.3447
L162.7412 96.8078
" />
<path d="M162.7412 98.6602
L163.2042 99.1233
" />
<path d="M163.2042 98.6602
L162.7412 99.1233
" />
<path d="M162.7412 99.8179
L163.2042 100.2810
" />
<path d="M163.2042 99.8179
L162.7412 100.2810
" />
<path d="M162.7412 100.9756
L163.2042 101.4387
" />
<path d="M163.2042 100.9756
L162.7412 101.4387
" />
<path d="M162.7412 102.1334
L163.2042 102.5964
" />
<path d="M163.2042 102.1334
L162.7412 102.5964
" />
<path d="M174.3184 100.9756
L174.7815 101.4387
" />
<path d="M174.7815 100.9756
L174.3184 101.4387
" />
<path d="M174.3184 103.2911
L174.7815 103.7542
" />
<path d="M174.7815 103.2911
L174.3184 103.7542
" />
<path d="M175.4762 99.8179
L175.9392 100.2810
" />
<path d="M175.9392 99.8179
L175.4762 100.2810
" />
<path d="M175.4762 102.1334
L175.9392 102.5964
" />
<path d="M175.9392 102.1334
L175.4762 102.5964
" />
<path d="M175.4762 104.4488
L175.9392 104.9119
" />
<path d="M175.9392 104.4488
L175.4762 104.9119
" />
<circle cx="115.2454" cy="10.9044" r="0.3473" /> 
<circle cx="115.2454" cy="115.0999" r="0.3473" /> 
<circle cx="116.3389" cy="8.2643" r="0.3473" /> 
<circle cx="116.3389" cy="13.5445" r="0.3473" /> 
<circle cx="116.3389" cy="112.4598" r="0.3473" /> 
<circle cx="116.3389" cy="117.7400" r="0.3473" /> 
<circle cx="118.9790" cy="7.1707" r="0.3473" /> 
<circle cx="118.9790" cy="14.6381" r="0.3473" /> 
<circle cx="118.9790" cy="111.3662" r="0.3473" /> 
<circle cx="118.9790" cy="118.8336" r="0.3473" /> 
<circle cx="121.6191" cy="8.2643" r="0.3473" /> 
<circle cx="121.6191" cy="13.5445" r="0.3473" /> 
<circle cx="121.6191" cy="112.4598" r="0.3473" /> 
<circle cx="121.6191" cy="117.7400" r="0.3473" /> 
<circle cx="122.7127" cy="10.9044" r="0.3473" /> 
<circle cx="122.7127" cy="115.0999" r="0.3473" /> 
<circle cx="169.6586" cy="10.9044" r="0.3473" /> 
<circle cx="169.6586" cy="115.0999" r="0.3473" /> 
<circle cx="170.7521" cy="8.2643" r="0.3473" /> 
<circle cx="170.7521" cy="13.5445" r="0.3473" /> 
<circle cx="170.7521" cy="112.4598" r="0.3473" /> 
<circle cx="170.7521" cy="117.7400" r="0.3473" /> 
<circle cx="173.3922" cy="7.1707" r="0.3473" /> 
<circle cx="173.3922" cy="14.6381" r="0.3473" /> 
<circle cx="173.3922" cy="111.3662" r="0.3473" /> 
<circle cx="173.3922" cy="118.8336" r="0.3473" /> 
<circle cx="176.0324" cy="8.2643" r="0.3473" /> 
<circle cx="176.0324" cy="13.5445" r="0.3473" /> 
<circle cx="176.0324" cy="112.4598" r="0.3473" /> 
<circle cx="176.0324" cy="117.7400" r="0.3473" /> 
<circle cx="177.1259" cy="10.9044" r="0.3473" /> 
<circle cx="177.1259" cy="115.0999" r="0.3473" /> 
</g>
<g style="fill:none; 
stroke:#000000; stroke-width:0.1621; stroke-opacity:1; 
stroke-linecap:round; stroke-linejoin:round;">
<path d="M173.7396 30.9331
L173.7396 32.5539
" />
<path d="M172.9292 31.7435
L174.5500 31.7435
" />
<path d="M173.7396 34.9851
L173.7396 36.6060
" />
<path d="M172.9292 35.7956
L174.5500 35.7956
" />
<path d="M173.7396 39.0372
L173.7396 40.6580
" />
<path d="M172.9292 39.8476
L174.5500 39.8476
" />
<path d="M173.7396 43.0892
L173.7396 44.7101
" />
<path d="M172.9292 43.8997
L174.5500 43.8997
" />
<path d="M173.7396 47.1413
L173.7396 48.7621
" />
<path d="M172.9292 47.9517
L174.5500 47.9517
" />
<path d="M173.7396 51.1933
L173.7396 52.8142
" />
<path d="M172.9292 52.0037
L174.5500 52.0037
" />
<path d="M173.7396 55.2454
L173.7396 56.8662
" />
<path d="M172.9292 56.0558
L174.5500 56.0558
" />
<path d="M173.7396 59.2974
L173.7396 60.9183
" />
<path d="M172.9292 60.1078
L174.5500 60.1078
" />
<path d="M173.7396 65.0861
L173.7396 66.7069
" />
<path d="M172.9292 65.8965
L174.5500 65.8965
" />
<path d="M173.7396 69.1381
L173.7396 70.7589
" />
<path d="M172.9292 69.9485
L174.5500 69.9485
" />
<path d="M173.7396 73.1902
L173.7396 74.8110
" />
<path d="M172.9292 74.0006
L174.5500 74.0006
" />
<path d="M173.7396 77.2422
L173.7396 78.8630
" />
<path d="M172.9292 78.0526
L174.5500 78.0526
" />
<path d="M173.7396 81.2943
L173.7396 82.9151
" />
<path d="M172.9292 82.1047
L174.5500 82.1047
" />
<path d="M173.7396 85.3463
L173.7396 86.9671
" />
<path d="M172.9292 86.1567
L174.5500 86.1567
" />
<path d="M173.7396 89.3984
L173.7396 91.0192
" />
<path d="M172.9292 90.2088
L174.5500 90.2088
" />
<path d="M173.7396 93.4504
L173.7396 95.0712
" />
<path d="M172.9292 94.2608
L174.5500 94.2608
" />
<path d="M188.4427 30.9331
L188.4427 32.5539
" />
<path d="M187.6323 31.7435
L189.2531 31.7435
" />
<path d="M188.4427 34.9851
L188.4427 36.6060
" />
<path d="M187.6323 35.7956
L189.2531 35.7956
" />
<path d="M188.4427 39.0372
L188.4427 40.6580
" />
<path d="M187.6323 39.8476
L189.2531 39.8476
" />
<path d="M188.4427 43.0892
L188.4427 44.7101
" />
<path d="M187.6323 43.8997
L189.2531 43.8997
" />
<path d="M188.4427 47.1413
L188.4427 48.7621
" />
<path d="M187.6323 47.9517
L189.2531 47.9517
" />
<path d="M188.4427 51.1933
L188.4427 52.8142
" />
<path d="M187.6323 52.0037
L189.2531 52.0037
" />
<path d="M188.4427 55.2454
L188.4427 56.8662
" />
<path d="M187.6323 56.0558
L189.2531 56.0558
" />
<path d="M188.4427 59.2974
L188.4427 60.9183
" />
<path d="M187.6323 60.1078
L189.2531 60.1078
" />
<path d="M188.4427 65.0861
L188.4427 66.7069
" />
<path d="M187.6323 65.8965
L189.2531 65.8965
" />
<path d="M188.4427 69.1381
L188.4427 70.7589
" />
<path d="M187.6323 69.9485
L189.2531 69.9485
" />
<path d="M188.4427 73.1902
L188.4427 74.8110
" />
<path d="M187.6323 74.0006
L189.2531 74.0006
" />
<path d="M188.4427 77.2422
L188.4427 78.8630
" />
<path d="M187.6323 78.0526
L189.2531 78.0526
" />
<path d="M188.4427 81.2943
L188.4427 82.9151
" />
<path d="M187.6323 82.1047
L189.2531 82.1047
" />
<path d="M188.4427 85.3463
L188.4427 86.9671
" />
<path d="M187.6323 86.1567
L189.2531 86.1567
" />
<path d="M188.4427 89.3984
L188.4427 91.0192
" />
<path d="M187.6323 90.2088
L189.2531 90.2088
" />
<path d="M188.4427 93.4504
L188.4427 95.0712
" />
<path d="M187.6323 94.2608
L189.2531 94.2608
" />
<path d="M188.4427 99.2390
L188.4427 100.8599
" />
<path d="M187.6323 100.0494
L189.2531 100.0494
" />
<path d="M188.4427 103.2911
L188.4427 104.9119
" />
<path d="M187.6323 104.1015
L189.2531 104.1015
" />
<path d="M188.4427 107.3431
L188.4427 108.9640
" />
<path d="M187.6323 108.1535
L189.2531 108.1535
" />
<path style="fill:none; 
stroke:#000000; stroke-width:0.2547; stroke-opacity:1; 
stroke-linecap:round; stroke-linejoin:round;fill:none"
d="M 163.8732,9.4895
163.8732,7.6884
162.0722,7.6884
162.0722,9.4895
Z" /> 
<path style="fill:none; 
stroke:#000000; stroke-width:0.2547; stroke-opacity:1; 
stroke-linecap:round; stroke-linejoin:round;fill:none"
d="M 163.8732,118.3159
163.8732,116.5149
162.0722,116.5149
162.0722,118.3159
Z" /> 
<path style="fill:none; 
stroke:#000000; stroke-width:0.2547; stroke-opacity:1; 
stroke-linecap:round; stroke-linejoin:round;fill:none"
d="M 191.6587,9.4895
191.6587,7.6884
189.8577,7.6884
189.8577,9.4895
Z" /> 
<path style="fill:none; 
stroke:#000000; stroke-width:0.2547; stroke-opacity:1; 
stroke-linecap:round; stroke-linejoin:round;fill:none"
d="M 191.6587,118.3159
191.6587,116.5149
189.8577,116.5149
189.8577,118.3159
Z" /> 
<path style="fill:none; 
stroke:#000000; stroke-width:0.4978; stroke-opacity:1; 
stroke-linecap:round; stroke-linejoin:round;fill:none"
d="M 118.9790,13.3935
121.4682,10.9044
118.9790,8.4153
116.4899,10.9044
Z" /> 
<path style="fill:none; 
stroke:#000000; stroke-width:0.4978; stroke-opacity:1; 
stroke-linecap:round; stroke-linejoin:round;fill:none"
d="M 118.9790,117.5890
121.4682,115.0999
118.9790,112.6108
116.4899,115.0999
Z" /> 
<path style="fill:none; 
stroke:#000000; stroke-width:0.4978; stroke-opacity:1; 
stroke-linecap:round; stroke-linejoin:round;fill:none"
d="M 173.3922,13.3935
175.8814,10.9044
173.3922,8.4153
170.9031,10.9044
Z" /> 
<path style="fill:none; 
stroke:#000000; stroke-width:0.4978; stroke-opacity:1; 
stroke-linecap:round; stroke-linejoin:round;fill:none"
d="M 173.3922,117.5890
175.8814,115.0999
173.3922,112.6108
170.9031,115.0999
Z" /> 
</g>
<g style="fill:none; 
stroke:#000000; stroke-width:0.2000; stroke-opacity:1; 
stroke-linecap:round; stroke-linejoin:round;">
<text x="104.6551" y="124.2043"
textLength="14.8667" font-size="2.6667" lengthAdjust="spacingAndGlyphs"
text-anchor="start" opacity="0" stroke-opacity="0">Drill Map:</text>
<g class="stroked-text"><desc>Drill Map:</desc>
<path d="M105.2628 124.1192
L105.2628 122.1192
" />
<path d="M105.2628 122.1192
L105.7390 122.1192
" />
<path d="M105.7390 122.1192
L106.0248 122.2144
" />
<path d="M106.0248 122.2144
L106.2152 122.4049
" />
<path d="M106.2152 122.4049
L106.3105 122.5953
" />
<path d="M106.3105 122.5953
L106.4057 122.9763
" />
<path d="M106.4057 122.9763
L106.4057 123.2620
" />
<path d="M106.4057 123.2620
L106.3105 123.6430
" />
<path d="M106.3105 123.6430
L106.2152 123.8334
" />
<path d="M106.2152 123.8334
L106.0248 124.0239
" />
<path d="M106.0248 124.0239
L105.7390 124.1192
" />
<path d="M105.7390 124.1192
L105.2628 124.1192
" />
<path d="M107.2628 124.1192
L107.2628 122.7858
" />
<path d="M107.2628 123.1668
L107.3581 122.9763
" />
<path d="M107.3581 122.9763
L107.4533 122.8811
" />
<path d="M107.4533 122.8811
L107.6438 122.7858
" />
<path d="M107.6438 122.7858
L107.8343 122.7858
" />
<path d="M108.5009 124.1192
L108.5009 122.7858
" />
<path d="M108.5009 122.1192
L108.4057 122.2144
" />
<path d="M108.4057 122.2144
L108.5009 122.3096
" />
<path d="M108.5009 122.3096
L108.5962 122.2144
" />
<path d="M108.5962 122.2144
L108.5009 122.1192
" />
<path d="M108.5009 122.1192
L108.5009 122.3096
" />
<path d="M109.7390 124.1192
L109.5486 124.0239
" />
<path d="M109.5486 124.0239
L109.4533 123.8334
" />
<path d="M109.4533 123.8334
L109.4533 122.1192
" />
<path d="M110.7867 124.1192
L110.5962 124.0239
" />
<path d="M110.5962 124.0239
L110.5009 123.8334
" />
<path d="M110.5009 123.8334
L110.5009 122.1192
" />
<path d="M113.0724 124.1192
L113.0724 122.1192
" />
<path d="M113.0724 122.1192
L113.7390 123.5477
" />
<path d="M113.7390 123.5477
L114.4057 122.1192
" />
<path d="M114.4057 122.1192
L114.4057 124.1192
" />
<path d="M116.2152 124.1192
L116.2152 123.0715
" />
<path d="M116.2152 123.0715
L116.1200 122.8811
" />
<path d="M116.1200 122.8811
L115.9295 122.7858
" />
<path d="M115.9295 122.7858
L115.5486 122.7858
" />
<path d="M115.5486 122.7858
L115.3581 122.8811
" />
<path d="M116.2152 124.0239
L116.0248 124.1192
" />
<path d="M116.0248 124.1192
L115.5486 124.1192
" />
<path d="M115.5486 124.1192
L115.3581 124.0239
" />
<path d="M115.3581 124.0239
L115.2628 123.8334
" />
<path d="M115.2628 123.8334
L115.2628 123.6430
" />
<path d="M115.2628 123.6430
L115.3581 123.4525
" />
<path d="M115.3581 123.4525
L115.5486 123.3573
" />
<path d="M115.5486 123.3573
L116.0248 123.3573
" />
<path d="M116.0248 123.3573
L116.2152 123.2620
" />
<path d="M117.1676 122.7858
L117.1676 124.7858
" />
<path d="M117.1676 122.8811
L117.3581 122.7858
" />
<path d="M117.3581 122.7858
L117.7390 122.7858
" />
<path d="M117.7390 122.7858
L117.9295 122.8811
" />
<path d="M117.9295 122.8811
L118.0248 122.9763
" />
<path d="M118.0248 122.9763
L118.1200 123.1668
" />
<path d="M118.1200 123.1668
L118.1200 123.7382
" />
<path d="M118.1200 123.7382
L118.0248 123.9287
" />
<path d="M118.0248 123.9287
L117.9295 124.0239
" />
<path d="M117.9295 124.0239
L117.7390 124.1192
" />
<path d="M117.7390 124.1192
L117.3581 124.1192
" />
<path d="M117.3581 124.1192
L117.1676 124.0239
" />
<path d="M118.9771 123.9287
L119.0724 124.0239
" />
<path d="M119.0724 124.0239
L118.9771 124.1192
" />
<path d="M118.9771 124.1192
L118.8819 124.0239
" />
<path d="M118.8819 124.0239
L118.9771 123.9287
" />
<path d="M118.9771 123.9287
L118.9771 124.1192
" />
<path d="M118.9771 122.8811
L119.0724 122.9763
" />
<path d="M119.0724 122.9763
L118.9771 123.0715
" />
<path d="M118.9771 123.0715
L118.8819 122.9763
" />
<path d="M118.8819 122.9763
L118.9771 122.8811
" />
<path d="M118.9771 122.8811
L118.9771 123.0715
" />
</g></g>
<g style="fill:none; 
stroke:#000000; stroke-width:0.1158; stroke-opacity:1; 
stroke-linecap:round; stroke-linejoin:round;">
<path d="M102.1920 127.1728
L102.6551 127.6359
" />
<path d="M102.6551 127.1728
L102.1920 127.6359
" />
</g>
<g style="fill:none; 
stroke:#000000; stroke-width:0.2000; stroke-opacity:1; 
stroke-linecap:round; stroke-linejoin:round;">
<text x="104.6551" y="128.4043"
textLength="50.6762" font-size="2.6667" lengthAdjust="spacingAndGlyphs"
text-anchor="start" opacity="0" stroke-opacity="0">0,400mm / 0,0157" (104 holes)</text>
<g class="stroked-text"><desc>0,400mm / 0,0157" (104 holes)</desc>
<path d="M105.6438 126.3192
L105.8343 126.3192
" />
<path d="M105.8343 126.3192
L106.0248 126.4144
" />
<path d="M106.0248 126.4144
L106.1200 126.5096
" />
<path d="M106.1200 126.5096
L106.2152 126.7001
" />
<path d="M106.2152 126.7001
L106.3105 127.0811
" />
<path d="M106.3105 127.0811
L106.3105 127.5573
" />
<path d="M106.3105 127.5573
L106.2152 127.9382
" />
<path d="M106.2152 127.9382
L106.1200 128.1287
" />
<path d="M106.1200 128.1287
L106.0248 128.2239
" />
<path d="M106.0248 128.2239
L105.8343 128.3192
" />
<path d="M105.8343 128.3192
L105.6438 128.3192
" />
<path d="M105.6438 128.3192
L105.4533 128.2239
" />
<path d="M105.4533 128.2239
L105.3581 128.1287
" />
<path d="M105.3581 128.1287
L105.2628 127.9382
" />
<path d="M105.2628 127.9382
L105.1676 127.5573
" />
<path d="M105.1676 127.5573
L105.1676 127.0811
" />
<path d="M105.1676 127.0811
L105.2628 126.7001
" />
<path d="M105.2628 126.7001
L105.3581 126.5096
" />
<path d="M105.3581 126.5096
L105.4533 126.4144
" />
<path d="M105.4533 126.4144
L105.6438 126.3192
" />
<path d="M107.2628 128.2239
L107.2628 128.3192
" />
<path d="M107.2628 128.3192
L107.1676 128.5096
" />
<path d="M107.1676 128.5096
L107.0724 128.6049
" />
<path d="M108.9771 126.9858
L108.9771 128.3192
" />
<path d="M108.5009 126.2239
L108.0248 127.6525
" />
<path d="M108.0248 127.6525
L109.2629 127.6525
" />
<path d="M110.4057 126.3192
L110.5962 126.3192
" />
<path d="M110.5962 126.3192
L110.7867 126.4144
" />
<path d="M110.7867 126.4144
L110.8819 126.5096
" />
<path d="M110.8819 126.5096
L110.9771 126.7001
" />
<path d="M110.9771 126.7001
L111.0724 127.0811
" />
<path d="M111.0724 127.0811
L111.0724 127.5573
" />
<path d="M111.0724 127.5573
L110.9771 127.9382
" />
<path d="M110.9771 127.9382
L110.8819 128.1287
" />
<path d="M110.8819 128.1287
L110.7867 128.2239
" />
<path d="M110.7867 128.2239
L110.5962 128.3192
" />
<path d="M110.5962 128.3192
L110.4057 128.3192
" />
<path d="M110.4057 128.3192
L110.2152 128.2239
" />
<path d="M110.2152 128.2239
L110.1200 128.1287
" />
<path d="M110.1200 128.1287
L110.0248 127.9382
" />
<path d="M110.0248 127.9382
L109.9295 127.5573
" />
<path d="M109.9295 127.5573
L109.9295 127.0811
" />
<path d="M109.9295 127.0811
L110.0248 126.7001
" />
<path d="M110.0248 126.7001
L110.1200 126.5096
" />
<path d="M110.1200 126.5096
L110.2152 126.4144
" />
<path d="M110.2152 126.4144
L110.4057 126.3192
" />
<path d="M112.3105 126.3192
L112.5009 126.3192
" />
<path d="M112.5009 126.3192
L112.6914 126.4144
" />
<path d="M112.6914 126.4144
L112.7867 126.5096
" />
<path d="M112.7867 126.5096
L112.8819 126.7001
" />
<path d="M112.8819 126.7001
L112.9771 127.0811
" />
<path d="M112.9771 127.0811
L112.9771 127.5573
" />
<path d="M112.9771 127.5573
L112.8819 127.9382
" />
<path d="M112.8819 127.9382
L112.7867 128.1287
" />
<path d="M112.7867 128.1287
L112.6914 128.2239
" />
<path d="M112.6914 128.2239
L112.5009 128.3192
" />
<path d="M112.5009 128.3192
L112.3105 128.3192
" />
<path d="M112.3105 128.3192
L112.1200 128.2239
" />
<path d="M112.1200 128.2239
L112.0248 128.1287
" />
<path d="M112.0248 128.1287
L111.9295 127.9382
" />
<path d="M111.9295 127.9382
L111.8343 127.5573
" />
<path d="M111.8343 127.5573
L111.8343 127.0811
" />
<path d="M111.8343 127.0811
L111.9295 126.7001
" />
<path d="M111.9295 126.7001
L112.0248 126.5096
" />
<path d="M112.0248 126.5096
L112.1200 126.4144
" />
<path d="M112.1200 126.4144
L112.3105 126.3192
" />
<path d="M113.8343 128.3192
L113.8343 126.9858
" />
<path d="M113.8343 127.1763
L113.9295 127.0811
" />
<path d="M113.9295 127.0811
L114.1200 126.9858
" />
<path d="M114.1200 126.9858
L114.4057 126.9858
" />
<path d="M114.4057 126.9858
L114.5962 127.0811
" />
<path d="M114.5962 127.0811
L114.6914 127.2715
" />
<path d="M114.6914 127.2715
L114.6914 128.3192
" />
<path d="M114.6914 127.2715
L114.7867 127.0811
" />
<path d="M114.7867 127.0811
L114.9771 126.9858
" />
<path d="M114.9771 126.9858
L115.2629 126.9858
" />
<path d="M115.2629 126.9858
L115.4533 127.0811
" />
<path d="M115.4533 127.0811
L115.5486 127.2715
" />
<path d="M115.5486 127.2715
L115.5486 128.3192
" />
<path d="M116.5009 128.3192
L116.5009 126.9858
" />
<path d="M116.5009 127.1763
L116.5962 127.0811
" />
<path d="M116.5962 127.0811
L116.7867 126.9858
" />
<path d="M116.7867 126.9858
L117.0724 126.9858
" />
<path d="M117.0724 126.9858
L117.2629 127.0811
" />
<path d="M117.2629 127.0811
L117.3581 127.2715
" />
<path d="M117.3581 127.2715
L117.3581 128.3192
" />
<path d="M117.3581 127.2715
L117.4533 127.0811
" />
<path d="M117.4533 127.0811
L117.6438 126.9858
" />
<path d="M117.6438 126.9858
L117.9295 126.9858
" />
<path d="M117.9295 126.9858
L118.1200 127.0811
" />
<path d="M118.1200 127.0811
L118.2152 127.2715
" />
<path d="M118.2152 127.2715
L118.2152 128.3192
" />
<path d="M122.1200 126.2239
L120.4057 128.7953
" />
<path d="M124.6914 126.3192
L124.8819 126.3192
" />
<path d="M124.8819 126.3192
L125.0724 126.4144
" />
<path d="M125.0724 126.4144
L125.1676 126.5096
" />
<path d="M125.1676 126.5096
L125.2629 126.7001
" />
<path d="M125.2629 126.7001
L125.3581 127.0811
" />
<path d="M125.3581 127.0811
L125.3581 127.5573
" />
<path d="M125.3581 127.5573
L125.2629 127.9382
" />
<path d="M125.2629 127.9382
L125.1676 128.1287
" />
<path d="M125.1676 128.1287
L125.0724 128.2239
" />
<path d="M125.0724 128.2239
L124.8819 128.3192
" />
<path d="M124.8819 128.3192
L124.6914 128.3192
" />
<path d="M124.6914 128.3192
L124.5009 128.2239
" />
<path d="M124.5009 128.2239
L124.4057 128.1287
" />
<path d="M124.4057 128.1287
L124.3105 127.9382
" />
<path d="M124.3105 127.9382
L124.2152 127.5573
" />
<path d="M124.2152 127.5573
L124.2152 127.0811
" />
<path d="M124.2152 127.0811
L124.3105 126.7001
" />
<path d="M124.3105 126.7001
L124.4057 126.5096
" />
<path d="M124.4057 126.5096
L124.5009 126.4144
" />
<path d="M124.5009 126.4144
L124.6914 126.3192
" />
<path d="M126.3105 128.2239
L126.3105 128.3192
" />
<path d="M126.3105 128.3192
L126.2152 128.5096
" />
<path d="M126.2152 128.5096
L126.1200 128.6049
" />
<path d="M127.5486 126.3192
L127.7390 126.3192
" />
<path d="M127.7390 126.3192
L127.9295 126.4144
" />
<path d="M127.9295 126.4144
L128.0248 126.5096
" />
<path d="M128.0248 126.5096
L128.1200 126.7001
" />
<path d="M128.1200 126.7001
L128.2152 127.0811
" />
<path d="M128.2152 127.0811
L128.2152 127.5573
" />
<path d="M128.2152 127.5573
L128.1200 127.9382
" />
<path d="M128.1200 127.9382
L128.0248 128.1287
" />
<path d="M128.0248 128.1287
L127.9295 128.2239
" />
<path d="M127.9295 128.2239
L127.7390 128.3192
" />
<path d="M127.7390 128.3192
L127.5486 128.3192
" />
<path d="M127.5486 128.3192
L127.3581 128.2239
" />
<path d="M127.3581 128.2239
L127.2629 128.1287
" />
<path d="M127.2629 128.1287
L127.1676 127.9382
" />
<path d="M127.1676 127.9382
L127.0724 127.5573
" />
<path d="M127.0724 127.5573
L127.0724 127.0811
" />
<path d="M127.0724 127.0811
L127.1676 126.7001
" />
<path d="M127.1676 126.7001
L127.2629 126.5096
" />
<path d="M127.2629 126.5096
L127.3581 126.4144
" />
<path d="M127.3581 126.4144
L127.5486 126.3192
" />
<path d="M130.1200 128.3192
L128.9771 128.3192
" />
<path d="M129.5486 128.3192
L129.5486 126.3192
" />
<path d="M129.5486 126.3192
L129.3581 126.6049
" />
<path d="M129.3581 126.6049
L129.1676 126.7953
" />
<path d="M129.1676 126.7953
L128.9771 126.8906
" />
<path d="M131.9295 126.3192
L130.9771 126.3192
" />
<path d="M130.9771 126.3192
L130.8819 127.2715
" />
<path d="M130.8819 127.2715
L130.9771 127.1763
" />
<path d="M130.9771 127.1763
L131.1676 127.0811
" />
<path d="M131.1676 127.0811
L131.6438 127.0811
" />
<path d="M131.6438 127.0811
L131.8343 127.1763
" />
<path d="M131.8343 127.1763
L131.9295 127.2715
" />
<path d="M131.9295 127.2715
L132.0248 127.4620
" />
<path d="M132.0248 127.4620
L132.0248 127.9382
" />
<path d="M132.0248 127.9382
L131.9295 128.1287
" />
<path d="M131.9295 128.1287
L131.8343 128.2239
" />
<path d="M131.8343 128.2239
L131.6438 128.3192
" />
<path d="M131.6438 128.3192
L131.1676 128.3192
" />
<path d="M131.1676 128.3192
L130.9771 128.2239
" />
<path d="M130.9771 128.2239
L130.8819 128.1287
" />
<path d="M132.6914 126.3192
L134.0248 126.3192
" />
<path d="M134.0248 126.3192
L133.1676 128.3192
" />
<path d="M134.6914 126.3192
L134.6914 126.7001
" />
<path d="M135.4533 126.3192
L135.4533 126.7001
" />
<path d="M138.4057 129.0811
L138.3105 128.9858
" />
<path d="M138.3105 128.9858
L138.1200 128.7001
" />
<path d="M138.1200 128.7001
L138.0248 128.5096
" />
<path d="M138.0248 128.5096
L137.9295 128.2239
" />
<path d="M137.9295 128.2239
L137.8343 127.7477
" />
<path d="M137.8343 127.7477
L137.8343 127.3668
" />
<path d="M137.8343 127.3668
L137.9295 126.8906
" />
<path d="M137.9295 126.8906
L138.0248 126.6049
" />
<path d="M138.0248 126.6049
L138.1200 126.4144
" />
<path d="M138.1200 126.4144
L138.3105 126.1287
" />
<path d="M138.3105 126.1287
L138.4057 126.0334
" />
<path d="M140.2152 128.3192
L139.0724 128.3192
" />
<path d="M139.6438 128.3192
L139.6438 126.3192
" />
<path d="M139.6438 126.3192
L139.4533 126.6049
" />
<path d="M139.4533 126.6049
L139.2629 126.7953
" />
<path d="M139.2629 126.7953
L139.0724 126.8906
" />
<path d="M141.4533 126.3192
L141.6438 126.3192
" />
<path d="M141.6438 126.3192
L141.8343 126.4144
" />
<path d="M141.8343 126.4144
L141.9295 126.5096
" />
<path d="M141.9295 126.5096
L142.0248 126.7001
" />
<path d="M142.0248 126.7001
L142.1200 127.0811
" />
<path d="M142.1200 127.0811
L142.1200 127.5573
" />
<path d="M142.1200 127.5573
L142.0248 127.9382
" />
<path d="M142.0248 127.9382
L141.9295 128.1287
" />
<path d="M141.9295 128.1287
L141.8343 128.2239
" />
<path d="M141.8343 128.2239
L141.6438 128.3192
" />
<path d="M141.6438 128.3192
L141.4533 128.3192
" />
<path d="M141.4533 128.3192
L141.2629 128.2239
" />
<path d="M141.2629 128.2239
L141.1676 128.1287
" />
<path d="M141.1676 128.1287
L141.0724 127.9382
" />
<path d="M141.0724 127.9382
L140.9771 127.5573
" />
<path d="M140.9771 127.5573
L140.9771 127.0811
" />
<path d="M140.9771 127.0811
L141.0724 126.7001
" />
<path d="M141.0724 126.7001
L141.1676 126.5096
" />
<path d="M141.1676 126.5096
L141.2629 126.4144
" />
<path d="M141.2629 126.4144
L141.4533 126.3192
" />
<path d="M143.8343 126.9858
L143.8343 128.3192
" />
<path d="M143.3581 126.2239
L142.8819 127.6525
" />
<path d="M142.8819 127.6525
L144.1200 127.6525
" />
<path d="M146.4057 128.3192
L146.4057 126.3192
" />
<path d="M147.2629 128.3192
L147.2629 127.2715
" />
<path d="M147.2629 127.2715
L147.1676 127.0811
" />
<path d="M147.1676 127.0811
L146.9771 126.9858
" />
<path d="M146.9771 126.9858
L146.6914 126.9858
" />
<path d="M146.6914 126.9858
L146.5009 127.0811
" />
<path d="M146.5009 127.0811
L146.4057 127.1763
" />
<path d="M148.5009 128.3192
L148.3105 128.2239
" />
<path d="M148.3105 128.2239
L148.2152 128.1287
" />
<path d="M148.2152 128.1287
L148.1200 127.9382
" />
<path d="M148.1200 127.9382
L148.1200 127.3668
" />
<path d="M148.1200 127.3668
L148.2152 127.1763
" />
<path d="M148.2152 127.1763
L148.3105 127.0811
" />
<path d="M148.3105 127.0811
L148.5009 126.9858
" />
<path d="M148.5009 126.9858
L148.7867 126.9858
" />
<path d="M148.7867 126.9858
L148.9771 127.0811
" />
<path d="M148.9771 127.0811
L149.0724 127.1763
" />
<path d="M149.0724 127.1763
L149.1676 127.3668
" />
<path d="M149.1676 127.3668
L149.1676 127.9382
" />
<path d="M149.1676 127.9382
L149.0724 128.1287
" />
<path d="M149.0724 128.1287
L148.9771 128.2239
" />
<path d="M148.9771 128.2239
L148.7867 128.3192
" />
<path d="M148.7867 128.3192
L148.5009 128.3192
" />
<path d="M150.3105 128.3192
L150.1200 128.2239
" />
<path d="M150.1200 128.2239
L150.0248 128.0334
" />
<path d="M150.0248 128.0334
L150.0248 126.3192
" />
<path d="M151.8343 128.2239
L151.6438 128.3192
" />
<path d="M151.6438 128.3192
L151.2629 128.3192
" />
<path d="M151.2629 128.3192
L151.0724 128.2239
" />
<path d="M151.0724 128.2239
L150.9771 128.0334
" />
<path d="M150.9771 128.0334
L150.9771 127.2715
" />
<path d="M150.9771 127.2715
L151.0724 127.0811
" />
<path d="M151.0724 127.0811
L151.2629 126.9858
" />
<path d="M151.2629 126.9858
L151.6438 126.9858
" />
<path d="M151.6438 126.9858
L151.8343 127.0811
" />
<path d="M151.8343 127.0811
L151.9295 127.2715
" />
<path d="M151.9295 127.2715
L151.9295 127.4620
" />
<path d="M151.9295 127.4620
L150.9771 127.6525
" />
<path d="M152.6914 128.2239
L152.8819 128.3192
" />
<path d="M152.8819 128.3192
L153.2629 128.3192
" />
<path d="M153.2629 128.3192
L153.4533 128.2239
" />
<path d="M153.4533 128.2239
L153.5486 128.0334
" />
<path d="M153.5486 128.0334
L153.5486 127.9382
" />
<path d="M153.5486 127.9382
L153.4533 127.7477
" />
<path d="M153.4533 127.7477
L153.2629 127.6525
" />
<path d="M153.2629 127.6525
L152.9771 127.6525
" />
<path d="M152.9771 127.6525
L152.7867 127.5573
" />
<path d="M152.7867 127.5573
L152.6914 127.3668
" />
<path d="M152.6914 127.3668
L152.6914 127.2715
" />
<path d="M152.6914 127.2715
L152.7867 127.0811
" />
<path d="M152.7867 127.0811
L152.9771 126.9858
" />
<path d="M152.9771 126.9858
L153.2629 126.9858
" />
<path d="M153.2629 126.9858
L153.4533 127.0811
" />
<path d="M154.2152 129.0811
L154.3105 128.9858
" />
<path d="M154.3105 128.9858
L154.5009 128.7001
" />
<path d="M154.5009 128.7001
L154.5962 128.5096
" />
<path d="M154.5962 128.5096
L154.6914 128.2239
" />
<path d="M154.6914 128.2239
L154.7867 127.7477
" />
<path d="M154.7867 127.7477
L154.7867 127.3668
" />
<path d="M154.7867 127.3668
L154.6914 126.8906
" />
<path d="M154.6914 126.8906
L154.5962 126.6049
" />
<path d="M154.5962 126.6049
L154.5009 126.4144
" />
<path d="M154.5009 126.4144
L154.3105 126.1287
" />
<path d="M154.3105 126.1287
L154.2152 126.0334
" />
</g></g>
<g style="fill:none; 
stroke:#000000; stroke-width:0.1158; stroke-opacity:1; 
stroke-linecap:round; stroke-linejoin:round;">
<circle cx="102.3078" cy="130.0443" r="0.3473" /> 
</g>
<g style="fill:none; 
stroke:#000000; stroke-width:0.2000; stroke-opacity:1; 
stroke-linecap:round; stroke-linejoin:round;">
<text x="104.6551" y="131.0443"
textLength="48.7714" font-size="2.6667" lengthAdjust="spacingAndGlyphs"
text-anchor="start" opacity="0" stroke-opacity="0">0,600mm / 0,0236" (32 holes)</text>
<g class="stroked-text"><desc>0,600mm / 0,0236" (32 holes)</desc>
<path d="M105.6438 128.9592
L105.8343 128.9592
" />
<path d="M105.8343 128.9592
L106.0248 129.0544
" />
<path d="M106.0248 129.0544
L106.1200 129.1496
" />
<path d="M106.1200 129.1496
L106.2152 129.3401
" />
<path d="M106.2152 129.3401
L106.3105 129.7211
" />
<path d="M106.3105 129.7211
L106.3105 130.1973
" />
<path d="M106.3105 130.1973
L106.2152 130.5782
" />
<path d="M106.2152 130.5782
L106.1200 130.7687
" />
<path d="M106.1200 130.7687
L106.0248 130.8639
" />
<path d="M106.0248 130.8639
L105.8343 130.9592
" />
<path d="M105.8343 130.9592
L105.6438 130.9592
" />
<path d="M105.6438 130.9592
L105.4533 130.8639
" />
<path d="M105.4533 130.8639
L105.3581 130.7687
" />
<path d="M105.3581 130.7687
L105.2628 130.5782
" />
<path d="M105.2628 130.5782
L105.1676 130.1973
" />
<path d="M105.1676 130.1973
L105.1676 129.7211
" />
<path d="M105.1676 129.7211
L105.2628 129.3401
" />
<path d="M105.2628 129.3401
L105.3581 129.1496
" />
<path d="M105.3581 129.1496
L105.4533 129.0544
" />
<path d="M105.4533 129.0544
L105.6438 128.9592
" />
<path d="M107.2628 130.8639
L107.2628 130.9592
" />
<path d="M107.2628 130.9592
L107.1676 131.1496
" />
<path d="M107.1676 131.1496
L107.0724 131.2449
" />
<path d="M108.9771 128.9592
L108.5962 128.9592
" />
<path d="M108.5962 128.9592
L108.4057 129.0544
" />
<path d="M108.4057 129.0544
L108.3105 129.1496
" />
<path d="M108.3105 129.1496
L108.1200 129.4353
" />
<path d="M108.1200 129.4353
L108.0248 129.8163
" />
<path d="M108.0248 129.8163
L108.0248 130.5782
" />
<path d="M108.0248 130.5782
L108.1200 130.7687
" />
<path d="M108.1200 130.7687
L108.2152 130.8639
" />
<path d="M108.2152 130.8639
L108.4057 130.9592
" />
<path d="M108.4057 130.9592
L108.7867 130.9592
" />
<path d="M108.7867 130.9592
L108.9771 130.8639
" />
<path d="M108.9771 130.8639
L109.0724 130.7687
" />
<path d="M109.0724 130.7687
L109.1676 130.5782
" />
<path d="M109.1676 130.5782
L109.1676 130.1020
" />
<path d="M109.1676 130.1020
L109.0724 129.9115
" />
<path d="M109.0724 129.9115
L108.9771 129.8163
" />
<path d="M108.9771 129.8163
L108.7867 129.7211
" />
<path d="M108.7867 129.7211
L108.4057 129.7211
" />
<path d="M108.4057 129.7211
L108.2152 129.8163
" />
<path d="M108.2152 129.8163
L108.1200 129.9115
" />
<path d="M108.1200 129.9115
L108.0248 130.1020
" />
<path d="M110.4057 128.9592
L110.5962 128.9592
" />
<path d="M110.5962 128.9592
L110.7867 129.0544
" />
<path d="M110.7867 129.0544
L110.8819 129.1496
" />
<path d="M110.8819 129.1496
L110.9771 129.3401
" />
<path d="M110.9771 129.3401
L111.0724 129.7211
" />
<path d="M111.0724 129.7211
L111.0724 130.1973
" />
<path d="M111.0724 130.1973
L110.9771 130.5782
" />
<path d="M110.9771 130.5782
L110.8819 130.7687
" />
<path d="M110.8819 130.7687
L110.7867 130.8639
" />
<path d="M110.7867 130.8639
L110.5962 130.9592
" />
<path d="M110.5962 130.9592
L110.4057 130.9592
" />
<path d="M110.4057 130.9592
L110.2152 130.8639
" />
<path d="M110.2152 130.8639
L110.1200 130.7687
" />
<path d="M110.1200 130.7687
L110.0248 130.5782
" />
<path d="M110.0248 130.5782
L109.9295 130.1973
" />
<path d="M109.9295 130.1973
L109.9295 129.7211
" />
<path d="M109.9295 129.7211
L110.0248 129.3401
" />
<path d="M110.0248 129.3401
L110.1200 129.1496
" />
<path d="M110.1200 129.1496
L110.2152 129.0544
" />
<path d="M110.2152 129.0544
L110.4057 128.9592
" />
<path d="M112.3105 128.9592
L112.5009 128.9592
" />
<path d="M112.5009 128.9592
L112.6914 129.0544
" />
<path d="M112.6914 129.0544
L112.7867 129.1496
" />
<path d="M112.7867 129.1496
L112.8819 129.3401
" />
<path d="M112.8819 129.3401
L112.9771 129.7211
" />
<path d="M112.9771 129.7211
L112.9771 130.1973
" />
<path d="M112.9771 130.1973
L112.8819 130.5782
" />
<path d="M112.8819 130.5782
L112.7867 130.7687
" />
<path d="M112.7867 130.7687
L112.6914 130.8639
" />
<path d="M112.6914 130.8639
L112.5009 130.9592
" />
<path d="M112.5009 130.9592
L112.3105 130.9592
" />
<path d="M112.3105 130.9592
L112.1200 130.8639
" />
<path d="M112.1200 130.8639
L112.0248 130.7687
" />
<path d="M112.0248 130.7687
L111.9295 130.5782
" />
<path d="M111.9295 130.5782
L111.8343 130.1973
" />
<path d="M111.8343 130.1973
L111.8343 129.7211
" />
<path d="M111.8343 129.7211
L111.9295 129.3401
" />
<path d="M111.9295 129.3401
L112.0248 129.1496
" />
<path d="M112.0248 129.1496
L112.1200 129.0544
" />
<path d="M112.1200 129.0544
L112.3105 128.9592
" />
<path d="M113.8343 130.9592
L113.8343 129.6258
" />
<path d="M113.8343 129.8163
L113.9295 129.7211
" />
<path d="M113.9295 129.7211
L114.1200 129.6258
" />
<path d="M114.1200 129.6258
L114.4057 129.6258
" />
<path d="M114.4057 129.6258
L114.5962 129.7211
" />
<path d="M114.5962 129.7211
L114.6914 129.9115
" />
<path d="M114.6914 129.9115
L114.6914 130.9592
" />
<path d="M114.6914 129.9115
L114.7867 129.7211
" />
<path d="M114.7867 129.7211
L114.9771 129.6258
" />
<path d="M114.9771 129.6258
L115.2629 129.6258
" />
<path d="M115.2629 129.6258
L115.4533 129.7211
" />
<path d="M115.4533 129.7211
L115.5486 129.9115
" />
<path d="M115.5486 129.9115
L115.5486 130.9592
" />
<path d="M116.5009 130.9592
L116.5009 129.6258
" />
<path d="M116.5009 129.8163
L116.5962 129.7211
" />
<path d="M116.5962 129.7211
L116.7867 129.6258
" />
<path d="M116.7867 129.6258
L117.0724 129.6258
" />
<path d="M117.0724 129.6258
L117.2629 129.7211
" />
<path d="M117.2629 129.7211
L117.3581 129.9115
" />
<path d="M117.3581 129.9115
L117.3581 130.9592
" />
<path d="M117.3581 129.9115
L117.4533 129.7211
" />
<path d="M117.4533 129.7211
L117.6438 129.6258
" />
<path d="M117.6438 129.6258
L117.9295 129.6258
" />
<path d="M117.9295 129.6258
L118.1200 129.7211
" />
<path d="M118.1200 129.7211
L118.2152 129.9115
" />
<path d="M118.2152 129.9115
L118.2152 130.9592
" />
<path d="M122.1200 128.8639
L120.4057 131.4353
" />
<path d="M124.6914 128.9592
L124.8819 128.9592
" />
<path d="M124.8819 128.9592
L125.0724 129.0544
" />
<path d="M125.0724 129.0544
L125.1676 129.1496
" />
<path d="M125.1676 129.1496
L125.2629 129.3401
" />
<path d="M125.2629 129.3401
L125.3581 129.7211
" />
<path d="M125.3581 129.7211
L125.3581 130.1973
" />
<path d="M125.3581 130.1973
L125.2629 130.5782
" />
<path d="M125.2629 130.5782
L125.1676 130.7687
" />
<path d="M125.1676 130.7687
L125.0724 130.8639
" />
<path d="M125.0724 130.8639
L124.8819 130.9592
" />
<path d="M124.8819 130.9592
L124.6914 130.9592
" />
<path d="M124.6914 130.9592
L124.5009 130.8639
" />
<path d="M124.5009 130.8639
L124.4057 130.7687
" />
<path d="M124.4057 130.7687
L124.3105 130.5782
" />
<path d="M124.3105 130.5782
L124.2152 130.1973
" />
<path d="M124.2152 130.1973
L124.2152 129.7211
" />
<path d="M124.2152 129.7211
L124.3105 129.3401
" />
<path d="M124.3105 129.3401
L124.4057 129.1496
" />
<path d="M124.4057 129.1496
L124.5009 129.0544
" />
<path d="M124.5009 129.0544
L124.6914 128.9592
" />
<path d="M126.3105 130.8639
L126.3105 130.9592
" />
<path d="M126.3105 130.9592
L126.2152 131.1496
" />
<path d="M126.2152 131.1496
L126.1200 131.2449
" />
<path d="M127.5486 128.9592
L127.7390 128.9592
" />
<path d="M127.7390 128.9592
L127.9295 129.0544
" />
<path d="M127.9295 129.0544
L128.0248 129.1496
" />
<path d="M128.0248 129.1496
L128.1200 129.3401
" />
<path d="M128.1200 129.3401
L128.2152 129.7211
" />
<path d="M128.2152 129.7211
L128.2152 130.1973
" />
<path d="M128.2152 130.1973
L128.1200 130.5782
" />
<path d="M128.1200 130.5782
L128.0248 130.7687
" />
<path d="M128.0248 130.7687
L127.9295 130.8639
" />
<path d="M127.9295 130.8639
L127.7390 130.9592
" />
<path d="M127.7390 130.9592
L127.5486 130.9592
" />
<path d="M127.5486 130.9592
L127.3581 130.8639
" />
<path d="M127.3581 130.8639
L127.2629 130.7687
" />
<path d="M127.2629 130.7687
L127.1676 130.5782
" />
<path d="M127.1676 130.5782
L127.0724 130.1973
" />
<path d="M127.0724 130.1973
L127.0724 129.7211
" />
<path d="M127.0724 129.7211
L127.1676 129.3401
" />
<path d="M127.1676 129.3401
L127.2629 129.1496
" />
<path d="M127.2629 129.1496
L127.3581 129.0544
" />
<path d="M127.3581 129.0544
L127.5486 128.9592
" />
<path d="M128.9771 129.1496
L129.0724 129.0544
" />
<path d="M129.0724 129.0544
L129.2629 128.9592
" />
<path d="M129.2629 128.9592
L129.7390 128.9592
" />
<path d="M129.7390 128.9592
L129.9295 129.0544
" />
<path d="M129.9295 129.0544
L130.0248 129.1496
" />
<path d="M130.0248 129.1496
L130.1200 129.3401
" />
<path d="M130.1200 129.3401
L130.1200 129.5306
" />
<path d="M130.1200 129.5306
L130.0248 129.8163
" />
<path d="M130.0248 129.8163
L128.8819 130.9592
" />
<path d="M128.8819 130.9592
L130.1200 130.9592
" />
<path d="M130.7867 128.9592
L132.0248 128.9592
" />
<path d="M132.0248 128.9592
L131.3581 129.7211
" />
<path d="M131.3581 129.7211
L131.6438 129.7211
" />
<path d="M131.6438 129.7211
L131.8343 129.8163
" />
<path d="M131.8343 129.8163
L131.9295 129.9115
" />
<path d="M131.9295 129.9115
L132.0248 130.1020
" />
<path d="M132.0248 130.1020
L132.0248 130.5782
" />
<path d="M132.0248 130.5782
L131.9295 130.7687
" />
<path d="M131.9295 130.7687
L131.8343 130.8639
" />
<path d="M131.8343 130.8639
L131.6438 130.9592
" />
<path d="M131.6438 130.9592
L131.0724 130.9592
" />
<path d="M131.0724 130.9592
L130.8819 130.8639
" />
<path d="M130.8819 130.8639
L130.7867 130.7687
" />
<path d="M133.7390 128.9592
L133.3581 128.9592
" />
<path d="M133.3581 128.9592
L133.1676 129.0544
" />
<path d="M133.1676 129.0544
L133.0724 129.1496
" />
<path d="M133.0724 129.1496
L132.8819 129.4353
" />
<path d="M132.8819 129.4353
L132.7867 129.8163
" />
<path d="M132.7867 129.8163
L132.7867 130.5782
" />
<path d="M132.7867 130.5782
L132.8819 130.7687
" />
<path d="M132.8819 130.7687
L132.9771 130.8639
" />
<path d="M132.9771 130.8639
L133.1676 130.9592
" />
<path d="M133.1676 130.9592
L133.5486 130.9592
" />
<path d="M133.5486 130.9592
L133.7390 130.8639
" />
<path d="M133.7390 130.8639
L133.8343 130.7687
" />
<path d="M133.8343 130.7687
L133.9295 130.5782
" />
<path d="M133.9295 130.5782
L133.9295 130.1020
" />
<path d="M133.9295 130.1020
L133.8343 129.9115
" />
<path d="M133.8343 129.9115
L133.7390 129.8163
" />
<path d="M133.7390 129.8163
L133.5486 129.7211
" />
<path d="M133.5486 129.7211
L133.1676 129.7211
" />
<path d="M133.1676 129.7211
L132.9771 129.8163
" />
<path d="M132.9771 129.8163
L132.8819 129.9115
" />
<path d="M132.8819 129.9115
L132.7867 130.1020
" />
<path d="M134.6914 128.9592
L134.6914 129.3401
" />
<path d="M135.4533 128.9592
L135.4533 129.3401
" />
<path d="M138.4057 131.7211
L138.3105 131.6258
" />
<path d="M138.3105 131.6258
L138.1200 131.3401
" />
<path d="M138.1200 131.3401
L138.0248 131.1496
" />
<path d="M138.0248 131.1496
L137.9295 130.8639
" />
<path d="M137.9295 130.8639
L137.8343 130.3877
" />
<path d="M137.8343 130.3877
L137.8343 130.0068
" />
<path d="M137.8343 130.0068
L137.9295 129.5306
" />
<path d="M137.9295 129.5306
L138.0248 129.2449
" />
<path d="M138.0248 129.2449
L138.1200 129.0544
" />
<path d="M138.1200 129.0544
L138.3105 128.7687
" />
<path d="M138.3105 128.7687
L138.4057 128.6734
" />
<path d="M138.9771 128.9592
L140.2152 128.9592
" />
<path d="M140.2152 128.9592
L139.5486 129.7211
" />
<path d="M139.5486 129.7211
L139.8343 129.7211
" />
<path d="M139.8343 129.7211
L140.0248 129.8163
" />
<path d="M140.0248 129.8163
L140.1200 129.9115
" />
<path d="M140.1200 129.9115
L140.2152 130.1020
" />
<path d="M140.2152 130.1020
L140.2152 130.5782
" />
<path d="M140.2152 130.5782
L140.1200 130.7687
" />
<path d="M140.1200 130.7687
L140.0248 130.8639
" />
<path d="M140.0248 130.8639
L139.8343 130.9592
" />
<path d="M139.8343 130.9592
L139.2629 130.9592
" />
<path d="M139.2629 130.9592
L139.0724 130.8639
" />
<path d="M139.0724 130.8639
L138.9771 130.7687
" />
<path d="M140.9771 129.1496
L141.0724 129.0544
" />
<path d="M141.0724 129.0544
L141.2629 128.9592
" />
<path d="M141.2629 128.9592
L141.7390 128.9592
" />
<path d="M141.7390 128.9592
L141.9295 129.0544
" />
<path d="M141.9295 129.0544
L142.0248 129.1496
" />
<path d="M142.0248 129.1496
L142.1200 129.3401
" />
<path d="M142.1200 129.3401
L142.1200 129.5306
" />
<path d="M142.1200 129.5306
L142.0248 129.8163
" />
<path d="M142.0248 129.8163
L140.8819 130.9592
" />
<path d="M140.8819 130.9592
L142.1200 130.9592
" />
<path d="M144.5009 130.9592
L144.5009 128.9592
" />
<path d="M145.3581 130.9592
L145.3581 129.9115
" />
<path d="M145.3581 129.9115
L145.2629 129.7211
" />
<path d="M145.2629 129.7211
L145.0724 129.6258
" />
<path d="M145.0724 129.6258
L144.7867 129.6258
" />
<path d="M144.7867 129.6258
L144.5962 129.7211
" />
<path d="M144.5962 129.7211
L144.5009 129.8163
" />
<path d="M146.5962 130.9592
L146.4057 130.8639
" />
<path d="M146.4057 130.8639
L146.3105 130.7687
" />
<path d="M146.3105 130.7687
L146.2152 130.5782
" />
<path d="M146.2152 130.5782
L146.2152 130.0068
" />
<path d="M146.2152 130.0068
L146.3105 129.8163
" />
<path d="M146.3105 129.8163
L146.4057 129.7211
" />
<path d="M146.4057 129.7211
L146.5962 129.6258
" />
<path d="M146.5962 129.6258
L146.8819 129.6258
" />
<path d="M146.8819 129.6258
L147.0724 129.7211
" />
<path d="M147.0724 129.7211
L147.1676 129.8163
" />
<path d="M147.1676 129.8163
L147.2629 130.0068
" />
<path d="M147.2629 130.0068
L147.2629 130.5782
" />
<path d="M147.2629 130.5782
L147.1676 130.7687
" />
<path d="M147.1676 130.7687
L147.0724 130.8639
" />
<path d="M147.0724 130.8639
L146.8819 130.9592
" />
<path d="M146.8819 130.9592
L146.5962 130.9592
" />
<path d="M148.4057 130.9592
L148.2152 130.8639
" />
<path d="M148.2152 130.8639
L148.1200 130.6734
" />
<path d="M148.1200 130.6734
L148.1200 128.9592
" />
<path d="M149.9295 130.8639
L149.7390 130.9592
" />
<path d="M149.7390 130.9592
L149.3581 130.9592
" />
<path d="M149.3581 130.9592
L149.1676 130.8639
" />
<path d="M149.1676 130.8639
L149.0724 130.6734
" />
<path d="M149.0724 130.6734
L149.0724 129.9115
" />
<path d="M149.0724 129.9115
L149.1676 129.7211
" />
<path d="M149.1676 129.7211
L149.3581 129.6258
" />
<path d="M149.3581 129.6258
L149.7390 129.6258
" />
<path d="M149.7390 129.6258
L149.9295 129.7211
" />
<path d="M149.9295 129.7211
L150.0248 129.9115
" />
<path d="M150.0248 129.9115
L150.0248 130.1020
" />
<path d="M150.0248 130.1020
L149.0724 130.2925
" />
<path d="M150.7867 130.8639
L150.9771 130.9592
" />
<path d="M150.9771 130.9592
L151.3581 130.9592
" />
<path d="M151.3581 130.9592
L151.5486 130.8639
" />
<path d="M151.5486 130.8639
L151.6438 130.6734
" />
<path d="M151.6438 130.6734
L151.6438 130.5782
" />
<path d="M151.6438 130.5782
L151.5486 130.3877
" />
<path d="M151.5486 130.3877
L151.3581 130.2925
" />
<path d="M151.3581 130.2925
L151.0724 130.2925
" />
<path d="M151.0724 130.2925
L150.8819 130.1973
" />
<path d="M150.8819 130.1973
L150.7867 130.0068
" />
<path d="M150.7867 130.0068
L150.7867 129.9115
" />
<path d="M150.7867 129.9115
L150.8819 129.7211
" />
<path d="M150.8819 129.7211
L151.0724 129.6258
" />
<path d="M151.0724 129.6258
L151.3581 129.6258
" />
<path d="M151.3581 129.6258
L151.5486 129.7211
" />
<path d="M152.3105 131.7211
L152.4057 131.6258
" />
<path d="M152.4057 131.6258
L152.5962 131.3401
" />
<path d="M152.5962 131.3401
L152.6914 131.1496
" />
<path d="M152.6914 131.1496
L152.7867 130.8639
" />
<path d="M152.7867 130.8639
L152.8819 130.3877
" />
<path d="M152.8819 130.3877
L152.8819 130.0068
" />
<path d="M152.8819 130.0068
L152.7867 129.5306
" />
<path d="M152.7867 129.5306
L152.6914 129.2449
" />
<path d="M152.6914 129.2449
L152.5962 129.0544
" />
<path d="M152.5962 129.0544
L152.4057 128.7687
" />
<path d="M152.4057 128.7687
L152.3105 128.6734
" />
</g></g>
<g style="fill:none; 
stroke:#000000; stroke-width:0.1621; stroke-opacity:1; 
stroke-linecap:round; stroke-linejoin:round;">
<path d="M101.8447 131.8739
L101.8447 133.4947
" />
<path d="M101.0343 132.6843
L102.6551 132.6843
" />
</g>
<g style="fill:none; 
stroke:#000000; stroke-width:0.2000; stroke-opacity:1; 
stroke-linecap:round; stroke-linejoin:round;">
<text x="104.6551" y="133.6843"
textLength="48.7714" font-size="2.6667" lengthAdjust="spacingAndGlyphs"
text-anchor="start" opacity="0" stroke-opacity="0">1,400mm / 0,0551" (35 holes)</text>
<g class="stroked-text"><desc>1,400mm / 0,0551" (35 holes)</desc>
<path d="M106.3105 133.5992
L105.1676 133.5992
" />
<path d="M105.7390 133.5992
L105.7390 131.5992
" />
<path d="M105.7390 131.5992
L105.5486 131.8849
" />
<path d="M105.5486 131.8849
L105.3581 132.0753
" />
<path d="M105.3581 132.0753
L105.1676 132.1706
" />
<path d="M107.2628 133.5039
L107.2628 133.5992
" />
<path d="M107.2628 133.5992
L107.1676 133.7896
" />
<path d="M107.1676 133.7896
L107.0724 133.8849
" />
<path d="M108.9771 132.2658
L108.9771 133.5992
" />
<path d="M108.5009 131.5039
L108.0248 132.9325
" />
<path d="M108.0248 132.9325
L109.2629 132.9325
" />
<path d="M110.4057 131.5992
L110.5962 131.5992
" />
<path d="M110.5962 131.5992
L110.7867 131.6944
" />
<path d="M110.7867 131.6944
L110.8819 131.7896
" />
<path d="M110.8819 131.7896
L110.9771 131.9801
" />
<path d="M110.9771 131.9801
L111.0724 132.3611
" />
<path d="M111.0724 132.3611
L111.0724 132.8373
" />
<path d="M111.0724 132.8373
L110.9771 133.2182
" />
<path d="M110.9771 133.2182
L110.8819 133.4087
" />
<path d="M110.8819 133.4087
L110.7867 133.5039
" />
<path d="M110.7867 133.5039
L110.5962 133.5992
" />
<path d="M110.5962 133.5992
L110.4057 133.5992
" />
<path d="M110.4057 133.5992
L110.2152 133.5039
" />
<path d="M110.2152 133.5039
L110.1200 133.4087
" />
<path d="M110.1200 133.4087
L110.0248 133.2182
" />
<path d="M110.0248 133.2182
L109.9295 132.8373
" />
<path d="M109.9295 132.8373
L109.9295 132.3611
" />
<path d="M109.9295 132.3611
L110.0248 131.9801
" />
<path d="M110.0248 131.9801
L110.1200 131.7896
" />
<path d="M110.1200 131.7896
L110.2152 131.6944
" />
<path d="M110.2152 131.6944
L110.4057 131.5992
" />
<path d="M112.3105 131.5992
L112.5009 131.5992
" />
<path d="M112.5009 131.5992
L112.6914 131.6944
" />
<path d="M112.6914 131.6944
L112.7867 131.7896
" />
<path d="M112.7867 131.7896
L112.8819 131.9801
" />
<path d="M112.8819 131.9801
L112.9771 132.3611
" />
<path d="M112.9771 132.3611
L112.9771 132.8373
" />
<path d="M112.9771 132.8373
L112.8819 133.2182
" />
<path d="M112.8819 133.2182
L112.7867 133.4087
" />
<path d="M112.7867 133.4087
L112.6914 133.5039
" />
<path d="M112.6914 133.5039
L112.5009 133.5992
" />
<path d="M112.5009 133.5992
L112.3105 133.5992
" />
<path d="M112.3105 133.5992
L112.1200 133.5039
" />
<path d="M112.1200 133.5039
L112.0248 133.4087
" />
<path d="M112.0248 133.4087
L111.9295 133.2182
" />
<path d="M111.9295 133.2182
L111.8343 132.8373
" />
<path d="M111.8343 132.8373
L111.8343 132.3611
" />
<path d="M111.8343 132.3611
L111.9295 131.9801
" />
<path d="M111.9295 131.9801
L112.0248 131.7896
" />
<path d="M112.0248 131.7896
L112.1200 131.6944
" />
<path d="M112.1200 131.6944
L112.3105 131.5992
" />
<path d="M113.8343 133.5992
L113.8343 132.2658
" />
<path d="M113.8343 132.4563
L113.9295 132.3611
" />
<path d="M113.9295 132.3611
L114.1200 132.2658
" />
<path d="M114.1200 132.2658
L114.4057 132.2658
" />
<path d="M114.4057 132.2658
L114.5962 132.3611
" />
<path d="M114.5962 132.3611
L114.6914 132.5515
" />
<path d="M114.6914 132.5515
L114.6914 133.5992
" />
<path d="M114.6914 132.5515
L114.7867 132.3611
" />
<path d="M114.7867 132.3611
L114.9771 132.2658
" />
<path d="M114.9771 132.2658
L115.2629 132.2658
" />
<path d="M115.2629 132.2658
L115.4533 132.3611
" />
<path d="M115.4533 132.3611
L115.5486 132.5515
" />
<path d="M115.5486 132.5515
L115.5486 133.5992
" />
<path d="M116.5009 133.5992
L116.5009 132.2658
" />
<path d="M116.5009 132.4563
L116.5962 132.3611
" />
<path d="M116.5962 132.3611
L116.7867 132.2658
" />
<path d="M116.7867 132.2658
L117.0724 132.2658
" />
<path d="M117.0724 132.2658
L117.2629 132.3611
" />
<path d="M117.2629 132.3611
L117.3581 132.5515
" />
<path d="M117.3581 132.5515
L117.3581 133.5992
" />
<path d="M117.3581 132.5515
L117.4533 132.3611
" />
<path d="M117.4533 132.3611
L117.6438 132.2658
" />
<path d="M117.6438 132.2658
L117.9295 132.2658
" />
<path d="M117.9295 132.2658
L118.1200 132.3611
" />
<path d="M118.1200 132.3611
L118.2152 132.5515
" />
<path d="M118.2152 132.5515
L118.2152 133.5992
" />
<path d="M122.1200 131.5039
L120.4057 134.0753
" />
<path d="M124.6914 131.5992
L124.8819 131.5992
" />
<path d="M124.8819 131.5992
L125.0724 131.6944
" />
<path d="M125.0724 131.6944
L125.1676 131.7896
" />
<path d="M125.1676 131.7896
L125.2629 131.9801
" />
<path d="M125.2629 131.9801
L125.3581 132.3611
" />
<path d="M125.3581 132.3611
L125.3581 132.8373
" />
<path d="M125.3581 132.8373
L125.2629 133.2182
" />
<path d="M125.2629 133.2182
L125.1676 133.4087
" />
<path d="M125.1676 133.4087
L125.0724 133.5039
" />
<path d="M125.0724 133.5039
L124.8819 133.5992
" />
<path d="M124.8819 133.5992
L124.6914 133.5992
" />
<path d="M124.6914 133.5992
L124.5009 133.5039
" />
<path d="M124.5009 133.5039
L124.4057 133.4087
" />
<path d="M124.4057 133.4087
L124.3105 133.2182
" />
<path d="M124.3105 133.2182
L124.2152 132.8373
" />
<path d="M124.2152 132.8373
L124.2152 132.3611
" />
<path d="M124.2152 132.3611
L124.3105 131.9801
" />
<path d="M124.3105 131.9801
L124.4057 131.7896
" />
<path d="M124.4057 131.7896
L124.5009 131.6944
" />
<path d="M124.5009 131.6944
L124.6914 131.5992
" />
<path d="M126.3105 133.5039
L126.3105 133.5992
" />
<path d="M126.3105 133.5992
L126.2152 133.7896
" />
<path d="M126.2152 133.7896
L126.1200 133.8849
" />
<path d="M127.5486 131.5992
L127.7390 131.5992
" />
<path d="M127.7390 131.5992
L127.9295 131.6944
" />
<path d="M127.9295 131.6944
L128.0248 131.7896
" />
<path d="M128.0248 131.7896
L128.1200 131.9801
" />
<path d="M128.1200 131.9801
L128.2152 132.3611
" />
<path d="M128.2152 132.3611
L128.2152 132.8373
" />
<path d="M128.2152 132.8373
L128.1200 133.2182
" />
<path d="M128.1200 133.2182
L128.0248 133.4087
" />
<path d="M128.0248 133.4087
L127.9295 133.5039
" />
<path d="M127.9295 133.5039
L127.7390 133.5992
" />
<path d="M127.7390 133.5992
L127.5486 133.5992
" />
<path d="M127.5486 133.5992
L127.3581 133.5039
" />
<path d="M127.3581 133.5039
L127.2629 133.4087
" />
<path d="M127.2629 133.4087
L127.1676 133.2182
" />
<path d="M127.1676 133.2182
L127.0724 132.8373
" />
<path d="M127.0724 132.8373
L127.0724 132.3611
" />
<path d="M127.0724 132.3611
L127.1676 131.9801
" />
<path d="M127.1676 131.9801
L127.2629 131.7896
" />
<path d="M127.2629 131.7896
L127.3581 131.6944
" />
<path d="M127.3581 131.6944
L127.5486 131.5992
" />
<path d="M130.0248 131.5992
L129.0724 131.5992
" />
<path d="M129.0724 131.5992
L128.9771 132.5515
" />
<path d="M128.9771 132.5515
L129.0724 132.4563
" />
<path d="M129.0724 132.4563
L129.2629 132.3611
" />
<path d="M129.2629 132.3611
L129.7390 132.3611
" />
<path d="M129.7390 132.3611
L129.9295 132.4563
" />
<path d="M129.9295 132.4563
L130.0248 132.5515
" />
<path d="M130.0248 132.5515
L130.1200 132.7420
" />
<path d="M130.1200 132.7420
L130.1200 133.2182
" />
<path d="M130.1200 133.2182
L130.0248 133.4087
" />
<path d="M130.0248 133.4087
L129.9295 133.5039
" />
<path d="M129.9295 133.5039
L129.7390 133.5992
" />
<path d="M129.7390 133.5992
L129.2629 133.5992
" />
<path d="M129.2629 133.5992
L129.0724 133.5039
" />
<path d="M129.0724 133.5039
L128.9771 133.4087
" />
<path d="M131.9295 131.5992
L130.9771 131.5992
" />
<path d="M130.9771 131.5992
L130.8819 132.5515
" />
<path d="M130.8819 132.5515
L130.9771 132.4563
" />
<path d="M130.9771 132.4563
L131.1676 132.3611
" />
<path d="M131.1676 132.3611
L131.6438 132.3611
" />
<path d="M131.6438 132.3611
L131.8343 132.4563
" />
<path d="M131.8343 132.4563
L131.9295 132.5515
" />
<path d="M131.9295 132.5515
L132.0248 132.7420
" />
<path d="M132.0248 132.7420
L132.0248 133.2182
" />
<path d="M132.0248 133.2182
L131.9295 133.4087
" />
<path d="M131.9295 133.4087
L131.8343 133.5039
" />
<path d="M131.8343 133.5039
L131.6438 133.5992
" />
<path d="M131.6438 133.5992
L131.1676 133.5992
" />
<path d="M131.1676 133.5992
L130.9771 133.5039
" />
<path d="M130.9771 133.5039
L130.8819 133.4087
" />
<path d="M133.9295 133.5992
L132.7867 133.5992
" />
<path d="M133.3581 133.5992
L133.3581 131.5992
" />
<path d="M133.3581 131.5992
L133.1676 131.8849
" />
<path d="M133.1676 131.8849
L132.9771 132.0753
" />
<path d="M132.9771 132.0753
L132.7867 132.1706
" />
<path d="M134.6914 131.5992
L134.6914 131.9801
" />
<path d="M135.4533 131.5992
L135.4533 131.9801
" />
<path d="M138.4057 134.3611
L138.3105 134.2658
" />
<path d="M138.3105 134.2658
L138.1200 133.9801
" />
<path d="M138.1200 133.9801
L138.0248 133.7896
" />
<path d="M138.0248 133.7896
L137.9295 133.5039
" />
<path d="M137.9295 133.5039
L137.8343 133.0277
" />
<path d="M137.8343 133.0277
L137.8343 132.6468
" />
<path d="M137.8343 132.6468
L137.9295 132.1706
" />
<path d="M137.9295 132.1706
L138.0248 131.8849
" />
<path d="M138.0248 131.8849
L138.1200 131.6944
" />
<path d="M138.1200 131.6944
L138.3105 131.4087
" />
<path d="M138.3105 131.4087
L138.4057 131.3134
" />
<path d="M138.9771 131.5992
L140.2152 131.5992
" />
<path d="M140.2152 131.5992
L139.5486 132.3611
" />
<path d="M139.5486 132.3611
L139.8343 132.3611
" />
<path d="M139.8343 132.3611
L140.0248 132.4563
" />
<path d="M140.0248 132.4563
L140.1200 132.5515
" />
<path d="M140.1200 132.5515
L140.2152 132.7420
" />
<path d="M140.2152 132.7420
L140.2152 133.2182
" />
<path d="M140.2152 133.2182
L140.1200 133.4087
" />
<path d="M140.1200 133.4087
L140.0248 133.5039
" />
<path d="M140.0248 133.5039
L139.8343 133.5992
" />
<path d="M139.8343 133.5992
L139.2629 133.5992
" />
<path d="M139.2629 133.5992
L139.0724 133.5039
" />
<path d="M139.0724 133.5039
L138.9771 133.4087
" />
<path d="M142.0248 131.5992
L141.0724 131.5992
" />
<path d="M141.0724 131.5992
L140.9771 132.5515
" />
<path d="M140.9771 132.5515
L141.0724 132.4563
" />
<path d="M141.0724 132.4563
L141.2629 132.3611
" />
<path d="M141.2629 132.3611
L141.7390 132.3611
" />
<path d="M141.7390 132.3611
L141.9295 132.4563
" />
<path d="M141.9295 132.4563
L142.0248 132.5515
" />
<path d="M142.0248 132.5515
L142.1200 132.7420
" />
<path d="M142.1200 132.7420
L142.1200 133.2182
" />
<path d="M142.1200 133.2182
L142.0248 133.4087
" />
<path d="M142.0248 133.4087
L141.9295 133.5039
" />
<path d="M141.9295 133.5039
L141.7390 133.5992
" />
<path d="M141.7390 133.5992
L141.2629 133.5992
" />
<path d="M141.2629 133.5992
L141.0724 133.5039
" />
<path d="M141.0724 133.5039
L140.9771 133.4087
" />
<path d="M144.5009 133.5992
L144.5009 131.5992
" />
<path d="M145.3581 133.5992
L145.3581 132.5515
" />
<path d="M145.3581 132.5515
L145.2629 132.3611
" />
<path d="M145.2629 132.3611
L145.0724 132.2658
" />
<path d="M145.0724 132.2658
L144.7867 132.2658
" />
<path d="M144.7867 132.2658
L144.5962 132.3611
" />
<path d="M144.5962 132.3611
L144.5009 132.4563
" />
<path d="M146.5962 133.5992
L146.4057 133.5039
" />
<path d="M146.4057 133.5039
L146.3105 133.4087
" />
<path d="M146.3105 133.4087
L146.2152 133.2182
" />
<path d="M146.2152 133.2182
L146.2152 132.6468
" />
<path d="M146.2152 132.6468
L146.3105 132.4563
" />
<path d="M146.3105 132.4563
L146.4057 132.3611
" />
<path d="M146.4057 132.3611
L146.5962 132.2658
" />
<path d="M146.5962 132.2658
L146.8819 132.2658
" />
<path d="M146.8819 132.2658
L147.0724 132.3611
" />
<path d="M147.0724 132.3611
L147.1676 132.4563
" />
<path d="M147.1676 132.4563
L147.2629 132.6468
" />
<path d="M147.2629 132.6468
L147.2629 133.2182
" />
<path d="M147.2629 133.2182
L147.1676 133.4087
" />
<path d="M147.1676 133.4087
L147.0724 133.5039
" />
<path d="M147.0724 133.5039
L146.8819 133.5992
" />
<path d="M146.8819 133.5992
L146.5962 133.5992
" />
<path d="M148.4057 133.5992
L148.2152 133.5039
" />
<path d="M148.2152 133.5039
L148.1200 133.3134
" />
<path d="M148.1200 133.3134
L148.1200 131.5992
" />
<path d="M149.9295 133.5039
L149.7390 133.5992
" />
<path d="M149.7390 133.5992
L149.3581 133.5992
" />
<path d="M149.3581 133.5992
L149.1676 133.5039
" />
<path d="M149.1676 133.5039
L149.0724 133.3134
" />
<path d="M149.0724 133.3134
L149.0724 132.5515
" />
<path d="M149.0724 132.5515
L149.1676 132.3611
" />
<path d="M149.1676 132.3611
L149.3581 132.2658
" />
<path d="M149.3581 132.2658
L149.7390 132.2658
" />
<path d="M149.7390 132.2658
L149.9295 132.3611
" />
<path d="M149.9295 132.3611
L150.0248 132.5515
" />
<path d="M150.0248 132.5515
L150.0248 132.7420
" />
<path d="M150.0248 132.7420
L149.0724 132.9325
" />
<path d="M150.7867 133.5039
L150.9771 133.5992
" />
<path d="M150.9771 133.5992
L151.3581 133.5992
" />
<path d="M151.3581 133.5992
L151.5486 133.5039
" />
<path d="M151.5486 133.5039
L151.6438 133.3134
" />
<path d="M151.6438 133.3134
L151.6438 133.2182
" />
<path d="M151.6438 133.2182
L151.5486 133.0277
" />
<path d="M151.5486 133.0277
L151.3581 132.9325
" />
<path d="M151.3581 132.9325
L151.0724 132.9325
" />
<path d="M151.0724 132.9325
L150.8819 132.8373
" />
<path d="M150.8819 132.8373
L150.7867 132.6468
" />
<path d="M150.7867 132.6468
L150.7867 132.5515
" />
<path d="M150.7867 132.5515
L150.8819 132.3611
" />
<path d="M150.8819 132.3611
L151.0724 132.2658
" />
<path d="M151.0724 132.2658
L151.3581 132.2658
" />
<path d="M151.3581 132.2658
L151.5486 132.3611
" />
<path d="M152.3105 134.3611
L152.4057 134.2658
" />
<path d="M152.4057 134.2658
L152.5962 133.9801
" />
<path d="M152.5962 133.9801
L152.6914 133.7896
" />
<path d="M152.6914 133.7896
L152.7867 133.5039
" />
<path d="M152.7867 133.5039
L152.8819 133.0277
" />
<path d="M152.8819 133.0277
L152.8819 132.6468
" />
<path d="M152.8819 132.6468
L152.7867 132.1706
" />
<path d="M152.7867 132.1706
L152.6914 131.8849
" />
<path d="M152.6914 131.8849
L152.5962 131.6944
" />
<path d="M152.5962 131.6944
L152.4057 131.4087
" />
<path d="M152.4057 131.4087
L152.3105 131.3134
" />
</g><path style="fill:none; 
stroke:#000000; stroke-width:0.2000; stroke-opacity:1; 
stroke-linecap:round; stroke-linejoin:round;fill:none"
d="M 102.3622,136.2123
102.3622,134.7980
100.9480,134.7980
100.9480,136.2123
Z" /> 
</g>
<g style="fill:none; 
stroke:#000000; stroke-width:0.2000; stroke-opacity:1; 
stroke-linecap:round; stroke-linejoin:round;">
<text x="104.6551" y="136.5051"
textLength="46.8667" font-size="2.6667" lengthAdjust="spacingAndGlyphs"
text-anchor="start" opacity="0" stroke-opacity="0">2,200mm / 0,0866" (4 holes)</text>
<g class="stroked-text"><desc>2,200mm / 0,0866" (4 holes)</desc>
<path d="M105.1676 134.6105
L105.2628 134.5152
" />
<path d="M105.2628 134.5152
L105.4533 134.4200
" />
<path d="M105.4533 134.4200
L105.9295 134.4200
" />
<path d="M105.9295 134.4200
L106.1200 134.5152
" />
<path d="M106.1200 134.5152
L106.2152 134.6105
" />
<path d="M106.2152 134.6105
L106.3105 134.8009
" />
<path d="M106.3105 134.8009
L106.3105 134.9914
" />
<path d="M106.3105 134.9914
L106.2152 135.2771
" />
<path d="M106.2152 135.2771
L105.0724 136.4200
" />
<path d="M105.0724 136.4200
L106.3105 136.4200
" />
<path d="M107.2628 136.3247
L107.2628 136.4200
" />
<path d="M107.2628 136.4200
L107.1676 136.6105
" />
<path d="M107.1676 136.6105
L107.0724 136.7057
" />
<path d="M108.0248 134.6105
L108.1200 134.5152
" />
<path d="M108.1200 134.5152
L108.3105 134.4200
" />
<path d="M108.3105 134.4200
L108.7867 134.4200
" />
<path d="M108.7867 134.4200
L108.9771 134.5152
" />
<path d="M108.9771 134.5152
L109.0724 134.6105
" />
<path d="M109.0724 134.6105
L109.1676 134.8009
" />
<path d="M109.1676 134.8009
L109.1676 134.9914
" />
<path d="M109.1676 134.9914
L109.0724 135.2771
" />
<path d="M109.0724 135.2771
L107.9295 136.4200
" />
<path d="M107.9295 136.4200
L109.1676 136.4200
" />
<path d="M110.4057 134.4200
L110.5962 134.4200
" />
<path d="M110.5962 134.4200
L110.7867 134.5152
" />
<path d="M110.7867 134.5152
L110.8819 134.6105
" />
<path d="M110.8819 134.6105
L110.9771 134.8009
" />
<path d="M110.9771 134.8009
L111.0724 135.1819
" />
<path d="M111.0724 135.1819
L111.0724 135.6581
" />
<path d="M111.0724 135.6581
L110.9771 136.0390
" />
<path d="M110.9771 136.0390
L110.8819 136.2295
" />
<path d="M110.8819 136.2295
L110.7867 136.3247
" />
<path d="M110.7867 136.3247
L110.5962 136.4200
" />
<path d="M110.5962 136.4200
L110.4057 136.4200
" />
<path d="M110.4057 136.4200
L110.2152 136.3247
" />
<path d="M110.2152 136.3247
L110.1200 136.2295
" />
<path d="M110.1200 136.2295
L110.0248 136.0390
" />
<path d="M110.0248 136.0390
L109.9295 135.6581
" />
<path d="M109.9295 135.6581
L109.9295 135.1819
" />
<path d="M109.9295 135.1819
L110.0248 134.8009
" />
<path d="M110.0248 134.8009
L110.1200 134.6105
" />
<path d="M110.1200 134.6105
L110.2152 134.5152
" />
<path d="M110.2152 134.5152
L110.4057 134.4200
" />
<path d="M112.3105 134.4200
L112.5009 134.4200
" />
<path d="M112.5009 134.4200
L112.6914 134.5152
" />
<path d="M112.6914 134.5152
L112.7867 134.6105
" />
<path d="M112.7867 134.6105
L112.8819 134.8009
" />
<path d="M112.8819 134.8009
L112.9771 135.1819
" />
<path d="M112.9771 135.1819
L112.9771 135.6581
" />
<path d="M112.9771 135.6581
L112.8819 136.0390
" />
<path d="M112.8819 136.0390
L112.7867 136.2295
" />
<path d="M112.7867 136.2295
L112.6914 136.3247
" />
<path d="M112.6914 136.3247
L112.5009 136.4200
" />
<path d="M112.5009 136.4200
L112.3105 136.4200
" />
<path d="M112.3105 136.4200
L112.1200 136.3247
" />
<path d="M112.1200 136.3247
L112.0248 136.2295
" />
<path d="M112.0248 136.2295
L111.9295 136.0390
" />
<path d="M111.9295 136.0390
L111.8343 135.6581
" />
<path d="M111.8343 135.6581
L111.8343 135.1819
" />
<path d="M111.8343 135.1819
L111.9295 134.8009
" />
<path d="M111.9295 134.8009
L112.0248 134.6105
" />
<path d="M112.0248 134.6105
L112.1200 134.5152
" />
<path d="M112.1200 134.5152
L112.3105 134.4200
" />
<path d="M113.8343 136.4200
L113.8343 135.0866
" />
<path d="M113.8343 135.2771
L113.9295 135.1819
" />
<path d="M113.9295 135.1819
L114.1200 135.0866
" />
<path d="M114.1200 135.0866
L114.4057 135.0866
" />
<path d="M114.4057 135.0866
L114.5962 135.1819
" />
<path d="M114.5962 135.1819
L114.6914 135.3724
" />
<path d="M114.6914 135.3724
L114.6914 136.4200
" />
<path d="M114.6914 135.3724
L114.7867 135.1819
" />
<path d="M114.7867 135.1819
L114.9771 135.0866
" />
<path d="M114.9771 135.0866
L115.2629 135.0866
" />
<path d="M115.2629 135.0866
L115.4533 135.1819
" />
<path d="M115.4533 135.1819
L115.5486 135.3724
" />
<path d="M115.5486 135.3724
L115.5486 136.4200
" />
<path d="M116.5009 136.4200
L116.5009 135.0866
" />
<path d="M116.5009 135.2771
L116.5962 135.1819
" />
<path d="M116.5962 135.1819
L116.7867 135.0866
" />
<path d="M116.7867 135.0866
L117.0724 135.0866
" />
<path d="M117.0724 135.0866
L117.2629 135.1819
" />
<path d="M117.2629 135.1819
L117.3581 135.3724
" />
<path d="M117.3581 135.3724
L117.3581 136.4200
" />
<path d="M117.3581 135.3724
L117.4533 135.1819
" />
<path d="M117.4533 135.1819
L117.6438 135.0866
" />
<path d="M117.6438 135.0866
L117.9295 135.0866
" />
<path d="M117.9295 135.0866
L118.1200 135.1819
" />
<path d="M118.1200 135.1819
L118.2152 135.3724
" />
<path d="M118.2152 135.3724
L118.2152 136.4200
" />
<path d="M122.1200 134.3247
L120.4057 136.8962
" />
<path d="M124.6914 134.4200
L124.8819 134.4200
" />
<path d="M124.8819 134.4200
L125.0724 134.5152
" />
<path d="M125.0724 134.5152
L125.1676 134.6105
" />
<path d="M125.1676 134.6105
L125.2629 134.8009
" />
<path d="M125.2629 134.8009
L125.3581 135.1819
" />
<path d="M125.3581 135.1819
L125.3581 135.6581
" />
<path d="M125.3581 135.6581
L125.2629 136.0390
" />
<path d="M125.2629 136.0390
L125.1676 136.2295
" />
<path d="M125.1676 136.2295
L125.0724 136.3247
" />
<path d="M125.0724 136.3247
L124.8819 136.4200
" />
<path d="M124.8819 136.4200
L124.6914 136.4200
" />
<path d="M124.6914 136.4200
L124.5009 136.3247
" />
<path d="M124.5009 136.3247
L124.4057 136.2295
" />
<path d="M124.4057 136.2295
L124.3105 136.0390
" />
<path d="M124.3105 136.0390
L124.2152 135.6581
" />
<path d="M124.2152 135.6581
L124.2152 135.1819
" />
<path d="M124.2152 135.1819
L124.3105 134.8009
" />
<path d="M124.3105 134.8009
L124.4057 134.6105
" />
<path d="M124.4057 134.6105
L124.5009 134.5152
" />
<path d="M124.5009 134.5152
L124.6914 134.4200
" />
<path d="M126.3105 136.3247
L126.3105 136.4200
" />
<path d="M126.3105 136.4200
L126.2152 136.6105
" />
<path d="M126.2152 136.6105
L126.1200 136.7057
" />
<path d="M127.5486 134.4200
L127.7390 134.4200
" />
<path d="M127.7390 134.4200
L127.9295 134.5152
" />
<path d="M127.9295 134.5152
L128.0248 134.6105
" />
<path d="M128.0248 134.6105
L128.1200 134.8009
" />
<path d="M128.1200 134.8009
L128.2152 135.1819
" />
<path d="M128.2152 135.1819
L128.2152 135.6581
" />
<path d="M128.2152 135.6581
L128.1200 136.0390
" />
<path d="M128.1200 136.0390
L128.0248 136.2295
" />
<path d="M128.0248 136.2295
L127.9295 136.3247
" />
<path d="M127.9295 136.3247
L127.7390 136.4200
" />
<path d="M127.7390 136.4200
L127.5486 136.4200
" />
<path d="M127.5486 136.4200
L127.3581 136.3247
" />
<path d="M127.3581 136.3247
L127.2629 136.2295
" />
<path d="M127.2629 136.2295
L127.1676 136.0390
" />
<path d="M127.1676 136.0390
L127.0724 135.6581
" />
<path d="M127.0724 135.6581
L127.0724 135.1819
" />
<path d="M127.0724 135.1819
L127.1676 134.8009
" />
<path d="M127.1676 134.8009
L127.2629 134.6105
" />
<path d="M127.2629 134.6105
L127.3581 134.5152
" />
<path d="M127.3581 134.5152
L127.5486 134.4200
" />
<path d="M129.3581 135.2771
L129.1676 135.1819
" />
<path d="M129.1676 135.1819
L129.0724 135.0866
" />
<path d="M129.0724 135.0866
L128.9771 134.8962
" />
<path d="M128.9771 134.8962
L128.9771 134.8009
" />
<path d="M128.9771 134.8009
L129.0724 134.6105
" />
<path d="M129.0724 134.6105
L129.1676 134.5152
" />
<path d="M129.1676 134.5152
L129.3581 134.4200
" />
<path d="M129.3581 134.4200
L129.7390 134.4200
" />
<path d="M129.7390 134.4200
L129.9295 134.5152
" />
<path d="M129.9295 134.5152
L130.0248 134.6105
" />
<path d="M130.0248 134.6105
L130.1200 134.8009
" />
<path d="M130.1200 134.8009
L130.1200 134.8962
" />
<path d="M130.1200 134.8962
L130.0248 135.0866
" />
<path d="M130.0248 135.0866
L129.9295 135.1819
" />
<path d="M129.9295 135.1819
L129.7390 135.2771
" />
<path d="M129.7390 135.2771
L129.3581 135.2771
" />
<path d="M129.3581 135.2771
L129.1676 135.3724
" />
<path d="M129.1676 135.3724
L129.0724 135.4676
" />
<path d="M129.0724 135.4676
L128.9771 135.6581
" />
<path d="M128.9771 135.6581
L128.9771 136.0390
" />
<path d="M128.9771 136.0390
L129.0724 136.2295
" />
<path d="M129.0724 136.2295
L129.1676 136.3247
" />
<path d="M129.1676 136.3247
L129.3581 136.4200
" />
<path d="M129.3581 136.4200
L129.7390 136.4200
" />
<path d="M129.7390 136.4200
L129.9295 136.3247
" />
<path d="M129.9295 136.3247
L130.0248 136.2295
" />
<path d="M130.0248 136.2295
L130.1200 136.0390
" />
<path d="M130.1200 136.0390
L130.1200 135.6581
" />
<path d="M130.1200 135.6581
L130.0248 135.4676
" />
<path d="M130.0248 135.4676
L129.9295 135.3724
" />
<path d="M129.9295 135.3724
L129.7390 135.2771
" />
<path d="M131.8343 134.4200
L131.4533 134.4200
" />
<path d="M131.4533 134.4200
L131.2629 134.5152
" />
<path d="M131.2629 134.5152
L131.1676 134.6105
" />
<path d="M131.1676 134.6105
L130.9771 134.8962
" />
<path d="M130.9771 134.8962
L130.8819 135.2771
" />
<path d="M130.8819 135.2771
L130.8819 136.0390
" />
<path d="M130.8819 136.0390
L130.9771 136.2295
" />
<path d="M130.9771 136.2295
L131.0724 136.3247
" />
<path d="M131.0724 136.3247
L131.2629 136.4200
" />
<path d="M131.2629 136.4200
L131.6438 136.4200
" />
<path d="M131.6438 136.4200
L131.8343 136.3247
" />
<path d="M131.8343 136.3247
L131.9295 136.2295
" />
<path d="M131.9295 136.2295
L132.0248 136.0390
" />
<path d="M132.0248 136.0390
L132.0248 135.5628
" />
<path d="M132.0248 135.5628
L131.9295 135.3724
" />
<path d="M131.9295 135.3724
L131.8343 135.2771
" />
<path d="M131.8343 135.2771
L131.6438 135.1819
" />
<path d="M131.6438 135.1819
L131.2629 135.1819
" />
<path d="M131.2629 135.1819
L131.0724 135.2771
" />
<path d="M131.0724 135.2771
L130.9771 135.3724
" />
<path d="M130.9771 135.3724
L130.8819 135.5628
" />
<path d="M133.7390 134.4200
L133.3581 134.4200
" />
<path d="M133.3581 134.4200
L133.1676 134.5152
" />
<path d="M133.1676 134.5152
L133.0724 134.6105
" />
<path d="M133.0724 134.6105
L132.8819 134.8962
" />
<path d="M132.8819 134.8962
L132.7867 135.2771
" />
<path d="M132.7867 135.2771
L132.7867 136.0390
" />
<path d="M132.7867 136.0390
L132.8819 136.2295
" />
<path d="M132.8819 136.2295
L132.9771 136.3247
" />
<path d="M132.9771 136.3247
L133.1676 136.4200
" />
<path d="M133.1676 136.4200
L133.5486 136.4200
" />
<path d="M133.5486 136.4200
L133.7390 136.3247
" />
<path d="M133.7390 136.3247
L133.8343 136.2295
" />
<path d="M133.8343 136.2295
L133.9295 136.0390
" />
<path d="M133.9295 136.0390
L133.9295 135.5628
" />
<path d="M133.9295 135.5628
L133.8343 135.3724
" />
<path d="M133.8343 135.3724
L133.7390 135.2771
" />
<path d="M133.7390 135.2771
L133.5486 135.1819
" />
<path d="M133.5486 135.1819
L133.1676 135.1819
" />
<path d="M133.1676 135.1819
L132.9771 135.2771
" />
<path d="M132.9771 135.2771
L132.8819 135.3724
" />
<path d="M132.8819 135.3724
L132.7867 135.5628
" />
<path d="M134.6914 134.4200
L134.6914 134.8009
" />
<path d="M135.4533 134.4200
L135.4533 134.8009
" />
<path d="M138.4057 137.1819
L138.3105 137.0866
" />
<path d="M138.3105 137.0866
L138.1200 136.8009
" />
<path d="M138.1200 136.8009
L138.0248 136.6105
" />
<path d="M138.0248 136.6105
L137.9295 136.3247
" />
<path d="M137.9295 136.3247
L137.8343 135.8485
" />
<path d="M137.8343 135.8485
L137.8343 135.4676
" />
<path d="M137.8343 135.4676
L137.9295 134.9914
" />
<path d="M137.9295 134.9914
L138.0248 134.7057
" />
<path d="M138.0248 134.7057
L138.1200 134.5152
" />
<path d="M138.1200 134.5152
L138.3105 134.2295
" />
<path d="M138.3105 134.2295
L138.4057 134.1343
" />
<path d="M140.0248 135.0866
L140.0248 136.4200
" />
<path d="M139.5486 134.3247
L139.0724 135.7533
" />
<path d="M139.0724 135.7533
L140.3105 135.7533
" />
<path d="M142.5962 136.4200
L142.5962 134.4200
" />
<path d="M143.4533 136.4200
L143.4533 135.3724
" />
<path d="M143.4533 135.3724
L143.3581 135.1819
" />
<path d="M143.3581 135.1819
L143.1676 135.0866
" />
<path d="M143.1676 135.0866
L142.8819 135.0866
" />
<path d="M142.8819 135.0866
L142.6914 135.1819
" />
<path d="M142.6914 135.1819
L142.5962 135.2771
" />
<path d="M144.6914 136.4200
L144.5009 136.3247
" />
<path d="M144.5009 136.3247
L144.4057 136.2295
" />
<path d="M144.4057 136.2295
L144.3105 136.0390
" />
<path d="M144.3105 136.0390
L144.3105 135.4676
" />
<path d="M144.3105 135.4676
L144.4057 135.2771
" />
<path d="M144.4057 135.2771
L144.5009 135.1819
" />
<path d="M144.5009 135.1819
L144.6914 135.0866
" />
<path d="M144.6914 135.0866
L144.9771 135.0866
" />
<path d="M144.9771 135.0866
L145.1676 135.1819
" />
<path d="M145.1676 135.1819
L145.2629 135.2771
" />
<path d="M145.2629 135.2771
L145.3581 135.4676
" />
<path d="M145.3581 135.4676
L145.3581 136.0390
" />
<path d="M145.3581 136.0390
L145.2629 136.2295
" />
<path d="M145.2629 136.2295
L145.1676 136.3247
" />
<path d="M145.1676 136.3247
L144.9771 136.4200
" />
<path d="M144.9771 136.4200
L144.6914 136.4200
" />
<path d="M146.5009 136.4200
L146.3105 136.3247
" />
<path d="M146.3105 136.3247
L146.2152 136.1343
" />
<path d="M146.2152 136.1343
L146.2152 134.4200
" />
<path d="M148.0248 136.3247
L147.8343 136.4200
" />
<path d="M147.8343 136.4200
L147.4533 136.4200
" />
<path d="M147.4533 136.4200
L147.2629 136.3247
" />
<path d="M147.2629 136.3247
L147.1676 136.1343
" />
<path d="M147.1676 136.1343
L147.1676 135.3724
" />
<path d="M147.1676 135.3724
L147.2629 135.1819
" />
<path d="M147.2629 135.1819
L147.4533 135.0866
" />
<path d="M147.4533 135.0866
L147.8343 135.0866
" />
<path d="M147.8343 135.0866
L148.0248 135.1819
" />
<path d="M148.0248 135.1819
L148.1200 135.3724
" />
<path d="M148.1200 135.3724
L148.1200 135.5628
" />
<path d="M148.1200 135.5628
L147.1676 135.7533
" />
<path d="M148.8819 136.3247
L149.0724 136.4200
" />
<path d="M149.0724 136.4200
L149.4533 136.4200
" />
<path d="M149.4533 136.4200
L149.6438 136.3247
" />
<path d="M149.6438 136.3247
L149.7390 136.1343
" />
<path d="M149.7390 136.1343
L149.7390 136.0390
" />
<path d="M149.7390 136.0390
L149.6438 135.8485
" />
<path d="M149.6438 135.8485
L149.4533 135.7533
" />
<path d="M149.4533 135.7533
L149.1676 135.7533
" />
<path d="M149.1676 135.7533
L148.9771 135.6581
" />
<path d="M148.9771 135.6581
L148.8819 135.4676
" />
<path d="M148.8819 135.4676
L148.8819 135.3724
" />
<path d="M148.8819 135.3724
L148.9771 135.1819
" />
<path d="M148.9771 135.1819
L149.1676 135.0866
" />
<path d="M149.1676 135.0866
L149.4533 135.0866
" />
<path d="M149.4533 135.0866
L149.6438 135.1819
" />
<path d="M150.4057 137.1819
L150.5009 137.0866
" />
<path d="M150.5009 137.0866
L150.6914 136.8009
" />
<path d="M150.6914 136.8009
L150.7867 136.6105
" />
<path d="M150.7867 136.6105
L150.8819 136.3247
" />
<path d="M150.8819 136.3247
L150.9771 135.8485
" />
<path d="M150.9771 135.8485
L150.9771 135.4676
" />
<path d="M150.9771 135.4676
L150.8819 134.9914
" />
<path d="M150.8819 134.9914
L150.7867 134.7057
" />
<path d="M150.7867 134.7057
L150.6914 134.5152
" />
<path d="M150.6914 134.5152
L150.5009 134.2295
" />
<path d="M150.5009 134.2295
L150.4057 134.1343
" />
</g><path style="fill:none; 
stroke:#000000; stroke-width:0.2000; stroke-opacity:1; 
stroke-linecap:round; stroke-linejoin:round;fill:none"
d="M 101.6551,139.7051
102.6551,138.7051
101.6551,137.7051
100.6551,138.7051
Z" /> 
</g>
<g style="fill:none; 
stroke:#000000; stroke-width:0.2000; stroke-opacity:1; 
stroke-linecap:round; stroke-linejoin:round;">
<text x="104.6551" y="139.7051"
textLength="46.8667" font-size="2.6667" lengthAdjust="spacingAndGlyphs"
text-anchor="start" opacity="0" stroke-opacity="0">4,300mm / 0,1693" (4 holes)</text>
<g class="stroked-text"><desc>4,300mm / 0,1693" (4 holes)</desc>
<path d="M106.1200 138.2866
L106.1200 139.6200
" />
<path d="M105.6438 137.5247
L105.1676 138.9533
" />
<path d="M105.1676 138.9533
L106.4057 138.9533
" />
<path d="M107.2628 139.5247
L107.2628 139.6200
" />
<path d="M107.2628 139.6200
L107.1676 139.8104
" />
<path d="M107.1676 139.8104
L107.0724 139.9057
" />
<path d="M107.9295 137.6200
L109.1676 137.6200
" />
<path d="M109.1676 137.6200
L108.5009 138.3819
" />
<path d="M108.5009 138.3819
L108.7867 138.3819
" />
<path d="M108.7867 138.3819
L108.9771 138.4771
" />
<path d="M108.9771 138.4771
L109.0724 138.5724
" />
<path d="M109.0724 138.5724
L109.1676 138.7628
" />
<path d="M109.1676 138.7628
L109.1676 139.2390
" />
<path d="M109.1676 139.2390
L109.0724 139.4295
" />
<path d="M109.0724 139.4295
L108.9771 139.5247
" />
<path d="M108.9771 139.5247
L108.7867 139.6200
" />
<path d="M108.7867 139.6200
L108.2152 139.6200
" />
<path d="M108.2152 139.6200
L108.0248 139.5247
" />
<path d="M108.0248 139.5247
L107.9295 139.4295
" />
<path d="M110.4057 137.6200
L110.5962 137.6200
" />
<path d="M110.5962 137.6200
L110.7867 137.7152
" />
<path d="M110.7867 137.7152
L110.8819 137.8104
" />
<path d="M110.8819 137.8104
L110.9771 138.0009
" />
<path d="M110.9771 138.0009
L111.0724 138.3819
" />
<path d="M111.0724 138.3819
L111.0724 138.8581
" />
<path d="M111.0724 138.8581
L110.9771 139.2390
" />
<path d="M110.9771 139.2390
L110.8819 139.4295
" />
<path d="M110.8819 139.4295
L110.7867 139.5247
" />
<path d="M110.7867 139.5247
L110.5962 139.6200
" />
<path d="M110.5962 139.6200
L110.4057 139.6200
" />
<path d="M110.4057 139.6200
L110.2152 139.5247
" />
<path d="M110.2152 139.5247
L110.1200 139.4295
" />
<path d="M110.1200 139.4295
L110.0248 139.2390
" />
<path d="M110.0248 139.2390
L109.9295 138.8581
" />
<path d="M109.9295 138.8581
L109.9295 138.3819
" />
<path d="M109.9295 138.3819
L110.0248 138.0009
" />
<path d="M110.0248 138.0009
L110.1200 137.8104
" />
<path d="M110.1200 137.8104
L110.2152 137.7152
" />
<path d="M110.2152 137.7152
L110.4057 137.6200
" />
<path d="M112.3105 137.6200
L112.5009 137.6200
" />
<path d="M112.5009 137.6200
L112.6914 137.7152
" />
<path d="M112.6914 137.7152
L112.7867 137.8104
" />
<path d="M112.7867 137.8104
L112.8819 138.0009
" />
<path d="M112.8819 138.0009
L112.9771 138.3819
" />
<path d="M112.9771 138.3819
L112.9771 138.8581
" />
<path d="M112.9771 138.8581
L112.8819 139.2390
" />
<path d="M112.8819 139.2390
L112.7867 139.4295
" />
<path d="M112.7867 139.4295
L112.6914 139.5247
" />
<path d="M112.6914 139.5247
L112.5009 139.6200
" />
<path d="M112.5009 139.6200
L112.3105 139.6200
" />
<path d="M112.3105 139.6200
L112.1200 139.5247
" />
<path d="M112.1200 139.5247
L112.0248 139.4295
" />
<path d="M112.0248 139.4295
L111.9295 139.2390
" />
<path d="M111.9295 139.2390
L111.8343 138.8581
" />
<path d="M111.8343 138.8581
L111.8343 138.3819
" />
<path d="M111.8343 138.3819
L111.9295 138.0009
" />
<path d="M111.9295 138.0009
L112.0248 137.8104
" />
<path d="M112.0248 137.8104
L112.1200 137.7152
" />
<path d="M112.1200 137.7152
L112.3105 137.6200
" />
<path d="M113.8343 139.6200
L113.8343 138.2866
" />
<path d="M113.8343 138.4771
L113.9295 138.3819
" />
<path d="M113.9295 138.3819
L114.1200 138.2866
" />
<path d="M114.1200 138.2866
L114.4057 138.2866
" />
<path d="M114.4057 138.2866
L114.5962 138.3819
" />
<path d="M114.5962 138.3819
L114.6914 138.5724
" />
<path d="M114.6914 138.5724
L114.6914 139.6200
" />
<path d="M114.6914 138.5724
L114.7867 138.3819
" />
<path d="M114.7867 138.3819
L114.9771 138.2866
" />
<path d="M114.9771 138.2866
L115.2629 138.2866
" />
<path d="M115.2629 138.2866
L115.4533 138.3819
" />
<path d="M115.4533 138.3819
L115.5486 138.5724
" />
<path d="M115.5486 138.5724
L115.5486 139.6200
" />
<path d="M116.5009 139.6200
L116.5009 138.2866
" />
<path d="M116.5009 138.4771
L116.5962 138.3819
" />
<path d="M116.5962 138.3819
L116.7867 138.2866
" />
<path d="M116.7867 138.2866
L117.0724 138.2866
" />
<path d="M117.0724 138.2866
L117.2629 138.3819
" />
<path d="M117.2629 138.3819
L117.3581 138.5724
" />
<path d="M117.3581 138.5724
L117.3581 139.6200
" />
<path d="M117.3581 138.5724
L117.4533 138.3819
" />
<path d="M117.4533 138.3819
L117.6438 138.2866
" />
<path d="M117.6438 138.2866
L117.9295 138.2866
" />
<path d="M117.9295 138.2866
L118.1200 138.3819
" />
<path d="M118.1200 138.3819
L118.2152 138.5724
" />
<path d="M118.2152 138.5724
L118.2152 139.6200
" />
<path d="M122.1200 137.5247
L120.4057 140.0962
" />
<path d="M124.6914 137.6200
L124.8819 137.6200
" />
<path d="M124.8819 137.6200
L125.0724 137.7152
" />
<path d="M125.0724 137.7152
L125.1676 137.8104
" />
<path d="M125.1676 137.8104
L125.2629 138.0009
" />
<path d="M125.2629 138.0009
L125.3581 138.3819
" />
<path d="M125.3581 138.3819
L125.3581 138.8581
" />
<path d="M125.3581 138.8581
L125.2629 139.2390
" />
<path d="M125.2629 139.2390
L125.1676 139.4295
" />
<path d="M125.1676 139.4295
L125.0724 139.5247
" />
<path d="M125.0724 139.5247
L124.8819 139.6200
" />
<path d="M124.8819 139.6200
L124.6914 139.6200
" />
<path d="M124.6914 139.6200
L124.5009 139.5247
" />
<path d="M124.5009 139.5247
L124.4057 139.4295
" />
<path d="M124.4057 139.4295
L124.3105 139.2390
" />
<path d="M124.3105 139.2390
L124.2152 138.8581
" />
<path d="M124.2152 138.8581
L124.2152 138.3819
" />
<path d="M124.2152 138.3819
L124.3105 138.0009
" />
<path d="M124.3105 138.0009
L124.4057 137.8104
" />
<path d="M124.4057 137.8104
L124.5009 137.7152
" />
<path d="M124.5009 137.7152
L124.6914 137.6200
" />
<path d="M126.3105 139.5247
L126.3105 139.6200
" />
<path d="M126.3105 139.6200
L126.2152 139.8104
" />
<path d="M126.2152 139.8104
L126.1200 139.9057
" />
<path d="M128.2152 139.6200
L127.0724 139.6200
" />
<path d="M127.6438 139.6200
L127.6438 137.6200
" />
<path d="M127.6438 137.6200
L127.4533 137.9057
" />
<path d="M127.4533 137.9057
L127.2629 138.0962
" />
<path d="M127.2629 138.0962
L127.0724 138.1914
" />
<path d="M129.9295 137.6200
L129.5486 137.6200
" />
<path d="M129.5486 137.6200
L129.3581 137.7152
" />
<path d="M129.3581 137.7152
L129.2629 137.8104
" />
<path d="M129.2629 137.8104
L129.0724 138.0962
" />
<path d="M129.0724 138.0962
L128.9771 138.4771
" />
<path d="M128.9771 138.4771
L128.9771 139.2390
" />
<path d="M128.9771 139.2390
L129.0724 139.4295
" />
<path d="M129.0724 139.4295
L129.1676 139.5247
" />
<path d="M129.1676 139.5247
L129.3581 139.6200
" />
<path d="M129.3581 139.6200
L129.7390 139.6200
" />
<path d="M129.7390 139.6200
L129.9295 139.5247
" />
<path d="M129.9295 139.5247
L130.0248 139.4295
" />
<path d="M130.0248 139.4295
L130.1200 139.2390
" />
<path d="M130.1200 139.2390
L130.1200 138.7628
" />
<path d="M130.1200 138.7628
L130.0248 138.5724
" />
<path d="M130.0248 138.5724
L129.9295 138.4771
" />
<path d="M129.9295 138.4771
L129.7390 138.3819
" />
<path d="M129.7390 138.3819
L129.3581 138.3819
" />
<path d="M129.3581 138.3819
L129.1676 138.4771
" />
<path d="M129.1676 138.4771
L129.0724 138.5724
" />
<path d="M129.0724 138.5724
L128.9771 138.7628
" />
<path d="M131.0724 139.6200
L131.4533 139.6200
" />
<path d="M131.4533 139.6200
L131.6438 139.5247
" />
<path d="M131.6438 139.5247
L131.7390 139.4295
" />
<path d="M131.7390 139.4295
L131.9295 139.1438
" />
<path d="M131.9295 139.1438
L132.0248 138.7628
" />
<path d="M132.0248 138.7628
L132.0248 138.0009
" />
<path d="M132.0248 138.0009
L131.9295 137.8104
" />
<path d="M131.9295 137.8104
L131.8343 137.7152
" />
<path d="M131.8343 137.7152
L131.6438 137.6200
" />
<path d="M131.6438 137.6200
L131.2629 137.6200
" />
<path d="M131.2629 137.6200
L131.0724 137.7152
" />
<path d="M131.0724 137.7152
L130.9771 137.8104
" />
<path d="M130.9771 137.8104
L130.8819 138.0009
" />
<path d="M130.8819 138.0009
L130.8819 138.4771
" />
<path d="M130.8819 138.4771
L130.9771 138.6676
" />
<path d="M130.9771 138.6676
L131.0724 138.7628
" />
<path d="M131.0724 138.7628
L131.2629 138.8581
" />
<path d="M131.2629 138.8581
L131.6438 138.8581
" />
<path d="M131.6438 138.8581
L131.8343 138.7628
" />
<path d="M131.8343 138.7628
L131.9295 138.6676
" />
<path d="M131.9295 138.6676
L132.0248 138.4771
" />
<path d="M132.6914 137.6200
L133.9295 137.6200
" />
<path d="M133.9295 137.6200
L133.2629 138.3819
" />
<path d="M133.2629 138.3819
L133.5486 138.3819
" />
<path d="M133.5486 138.3819
L133.7390 138.4771
" />
<path d="M133.7390 138.4771
L133.8343 138.5724
" />
<path d="M133.8343 138.5724
L133.9295 138.7628
" />
<path d="M133.9295 138.7628
L133.9295 139.2390
" />
<path d="M133.9295 139.2390
L133.8343 139.4295
" />
<path d="M133.8343 139.4295
L133.7390 139.5247
" />
<path d="M133.7390 139.5247
L133.5486 139.6200
" />
<path d="M133.5486 139.6200
L132.9771 139.6200
" />
<path d="M132.9771 139.6200
L132.7867 139.5247
" />
<path d="M132.7867 139.5247
L132.6914 139.4295
" />
<path d="M134.6914 137.6200
L134.6914 138.0009
" />
<path d="M135.4533 137.6200
L135.4533 138.0009
" />
<path d="M138.4057 140.3819
L138.3105 140.2866
" />
<path d="M138.3105 140.2866
L138.1200 140.0009
" />
<path d="M138.1200 140.0009
L138.0248 139.8104
" />
<path d="M138.0248 139.8104
L137.9295 139.5247
" />
<path d="M137.9295 139.5247
L137.8343 139.0485
" />
<path d="M137.8343 139.0485
L137.8343 138.6676
" />
<path d="M137.8343 138.6676
L137.9295 138.1914
" />
<path d="M137.9295 138.1914
L138.0248 137.9057
" />
<path d="M138.0248 137.9057
L138.1200 137.7152
" />
<path d="M138.1200 137.7152
L138.3105 137.4295
" />
<path d="M138.3105 137.4295
L138.4057 137.3343
" />
<path d="M140.0248 138.2866
L140.0248 139.6200
" />
<path d="M139.5486 137.5247
L139.0724 138.9533
" />
<path d="M139.0724 138.9533
L140.3105 138.9533
" />
<path d="M142.5962 139.6200
L142.5962 137.6200
" />
<path d="M143.4533 139.6200
L143.4533 138.5724
" />
<path d="M143.4533 138.5724
L143.3581 138.3819
" />
<path d="M143.3581 138.3819
L143.1676 138.2866
" />
<path d="M143.1676 138.2866
L142.8819 138.2866
" />
<path d="M142.8819 138.2866
L142.6914 138.3819
" />
<path d="M142.6914 138.3819
L142.5962 138.4771
" />
<path d="M144.6914 139.6200
L144.5009 139.5247
" />
<path d="M144.5009 139.5247
L144.4057 139.4295
" />
<path d="M144.4057 139.4295
L144.3105 139.2390
" />
<path d="M144.3105 139.2390
L144.3105 138.6676
" />
<path d="M144.3105 138.6676
L144.4057 138.4771
" />
<path d="M144.4057 138.4771
L144.5009 138.3819
" />
<path d="M144.5009 138.3819
L144.6914 138.2866
" />
<path d="M144.6914 138.2866
L144.9771 138.2866
" />
<path d="M144.9771 138.2866
L145.1676 138.3819
" />
<path d="M145.1676 138.3819
L145.2629 138.4771
" />
<path d="M145.2629 138.4771
L145.3581 138.6676
" />
<path d="M145.3581 138.6676
L145.3581 139.2390
" />
<path d="M145.3581 139.2390
L145.2629 139.4295
" />
<path d="M145.2629 139.4295
L145.1676 139.5247
" />
<path d="M145.1676 139.5247
L144.9771 139.6200
" />
<path d="M144.9771 139.6200
L144.6914 139.6200
" />
<path d="M146.5009 139.6200
L146.3105 139.5247
" />
<path d="M146.3105 139.5247
L146.2152 139.3343
" />
<path d="M146.2152 139.3343
L146.2152 137.6200
" />
<path d="M148.0248 139.5247
L147.8343 139.6200
" />
<path d="M147.8343 139.6200
L147.4533 139.6200
" />
<path d="M147.4533 139.6200
L147.2629 139.5247
" />
<path d="M147.2629 139.5247
L147.1676 139.3343
" />
<path d="M147.1676 139.3343
L147.1676 138.5724
" />
<path d="M147.1676 138.5724
L147.2629 138.3819
" />
<path d="M147.2629 138.3819
L147.4533 138.2866
" />
<path d="M147.4533 138.2866
L147.8343 138.2866
" />
<path d="M147.8343 138.2866
L148.0248 138.3819
" />
<path d="M148.0248 138.3819
L148.1200 138.5724
" />
<path d="M148.1200 138.5724
L148.1200 138.7628
" />
<path d="M148.1200 138.7628
L147.1676 138.9533
" />
<path d="M148.8819 139.5247
L149.0724 139.6200
" />
<path d="M149.0724 139.6200
L149.4533 139.6200
" />
<path d="M149.4533 139.6200
L149.6438 139.5247
" />
<path d="M149.6438 139.5247
L149.7390 139.3343
" />
<path d="M149.7390 139.3343
L149.7390 139.2390
" />
<path d="M149.7390 139.2390
L149.6438 139.0485
" />
<path d="M149.6438 139.0485
L149.4533 138.9533
" />
<path d="M149.4533 138.9533
L149.1676 138.9533
" />
<path d="M149.1676 138.9533
L148.9771 138.8581
" />
<path d="M148.9771 138.8581
L148.8819 138.6676
" />
<path d="M148.8819 138.6676
L148.8819 138.5724
" />
<path d="M148.8819 138.5724
L148.9771 138.3819
" />
<path d="M148.9771 138.3819
L149.1676 138.2866
" />
<path d="M149.1676 138.2866
L149.4533 138.2866
" />
<path d="M149.4533 138.2866
L149.6438 138.3819
" />
<path d="M150.4057 140.3819
L150.5009 140.2866
" />
<path d="M150.5009 140.2866
L150.6914 140.0009
" />
<path d="M150.6914 140.0009
L150.7867 139.8104
" />
<path d="M150.7867 139.8104
L150.8819 139.5247
" />
<path d="M150.8819 139.5247
L150.9771 139.0485
" />
<path d="M150.9771 139.0485
L150.9771 138.6676
" />
<path d="M150.9771 138.6676
L150.8819 138.1914
" />
<path d="M150.8819 138.1914
L150.7867 137.9057
" />
<path d="M150.7867 137.9057
L150.6914 137.7152
" />
<path d="M150.6914 137.7152
L150.5009 137.4295
" />
<path d="M150.5009 137.4295
L150.4057 137.3343
" />
</g></g> 
</svg>
