%TF.GenerationSoftware,KiCad,Pcbnew,9.0.6*%
%TF.CreationDate,2025-11-30T18:27:49+03:00*%
%TF.ProjectId,PMCNV-PWMx16,504d434e-562d-4505-974d-7831362e6b69,rev?*%
%TF.SameCoordinates,PX3dfd240PY5f5e100*%
%TF.FileFunction,Profile,NP*%
%FSLAX46Y46*%
G04 Gerber Fmt 4.6, Leading zero omitted, Abs format (unit mm)*
G04 Created by KiCad (PCBNEW 9.0.6) date 2025-11-30 18:27:49*
%MOMM*%
%LPD*%
G01*
G04 APERTURE LIST*
%TA.AperFunction,Profile*%
%ADD10C,0.200000*%
%TD*%
G04 APERTURE END LIST*
D10*
X-39000000Y-50000000D02*
G75*
G02*
X-40000000Y-49000000I0J1000000D01*
G01*
X16000000Y-48000000D02*
G75*
G02*
X17000000Y-49000000I0J-1000000D01*
G01*
X-40000000Y49000000D02*
G75*
G02*
X-39000000Y50000000I1000000J0D01*
G01*
X27000000Y-49000000D02*
G75*
G02*
X28000000Y-48000000I1000000J0D01*
G01*
X28000000Y-48000000D02*
X37000000Y-48000000D01*
X-39000000Y-50000000D02*
X-35000000Y-50000000D01*
X26000000Y50000000D02*
G75*
G02*
X27000000Y49000000I0J-1000000D01*
G01*
X-35000000Y50000000D02*
G75*
G02*
X-31000000Y48000000I0J-5000000D01*
G01*
X-31000000Y-48000000D02*
G75*
G02*
X-35000000Y-50000000I-4000000J3000000D01*
G01*
X-40000000Y-49000000D02*
X-40000000Y49000000D01*
X27000000Y-49000000D02*
G75*
G02*
X26000000Y-50000000I-1000000J0D01*
G01*
X28000000Y48000000D02*
X37000000Y48000000D01*
X28000000Y48000000D02*
G75*
G02*
X27000000Y49000000I0J1000000D01*
G01*
X-39000000Y50000000D02*
X-35000000Y50000000D01*
X-31000000Y48000000D02*
X16000000Y48000000D01*
X18000000Y-50000000D02*
G75*
G02*
X17000000Y-49000000I0J1000000D01*
G01*
X18000000Y-50000000D02*
X26000000Y-50000000D01*
X37000000Y48000000D02*
G75*
G02*
X40000000Y45000000I0J-3000000D01*
G01*
X17000000Y49000000D02*
G75*
G02*
X16000000Y48000000I-1000000J0D01*
G01*
X16000000Y-48000000D02*
X-31000000Y-48000000D01*
X40000000Y45000000D02*
X40000000Y-45000000D01*
X26000000Y50000000D02*
X18000000Y50000000D01*
X17000000Y49000000D02*
G75*
G02*
X18000000Y50000000I1000000J0D01*
G01*
X40000000Y-45000000D02*
G75*
G02*
X37000000Y-48000000I-3000000J0D01*
G01*
M02*
