%TF.GenerationSoftware,KiCad,Pcbnew,9.0.6*%
%TF.CreationDate,2025-11-22T20:55:52+03:00*%
%TF.ProjectId,PMPS-20W,504d5053-2d32-4305-972e-6b696361645f,rev?*%
%TF.SameCoordinates,Original*%
%TF.FileFunction,Legend,Top*%
%TF.FilePolarity,Positive*%
%FSLAX46Y46*%
G04 Gerber Fmt 4.6, Leading zero omitted, Abs format (unit mm)*
G04 Created by KiCad (PCBNEW 9.0.6) date 2025-11-22 20:55:52*
%MOMM*%
%LPD*%
G01*
G04 APERTURE LIST*
%ADD10C,0.200000*%
%ADD11C,0.150000*%
%ADD12C,0.254000*%
%ADD13C,0.100000*%
%ADD14C,0.120000*%
%ADD15C,0.300000*%
%ADD16C,0.152400*%
%ADD17C,0.400000*%
%ADD18C,0.101600*%
G04 APERTURE END LIST*
D10*
G36*
X-27481738Y-35778075D02*
G01*
X-32345697Y-35778075D01*
X-32345697Y-35068091D01*
X-32212364Y-35068091D01*
X-32212364Y-35107109D01*
X-32197432Y-35143157D01*
X-32169842Y-35170747D01*
X-32133794Y-35185679D01*
X-32114285Y-35187600D01*
X-31757142Y-35187600D01*
X-31757142Y-35544742D01*
X-31755221Y-35564251D01*
X-31740289Y-35600299D01*
X-31712699Y-35627889D01*
X-31676651Y-35642821D01*
X-31637633Y-35642821D01*
X-31601585Y-35627889D01*
X-31573995Y-35600299D01*
X-31559063Y-35564251D01*
X-31557142Y-35544742D01*
X-31557142Y-35525233D01*
X-30840936Y-35525233D01*
X-30840936Y-35564251D01*
X-30826004Y-35600299D01*
X-30798414Y-35627889D01*
X-30762366Y-35642821D01*
X-30742857Y-35644742D01*
X-30000000Y-35644742D01*
X-29980491Y-35642821D01*
X-29944443Y-35627889D01*
X-29916853Y-35600299D01*
X-29901921Y-35564251D01*
X-29901921Y-35525233D01*
X-29916853Y-35489185D01*
X-29944443Y-35461595D01*
X-29980491Y-35446663D01*
X-30000000Y-35444742D01*
X-30501435Y-35444742D01*
X-30188928Y-35132235D01*
X-29642072Y-35132235D01*
X-29640936Y-35148219D01*
X-29640936Y-35164251D01*
X-29639561Y-35167571D01*
X-29639306Y-35171155D01*
X-29632139Y-35185490D01*
X-29626004Y-35200299D01*
X-29623464Y-35202839D01*
X-29621856Y-35206054D01*
X-29609745Y-35216558D01*
X-29598414Y-35227889D01*
X-29595096Y-35229263D01*
X-29592380Y-35231619D01*
X-29577171Y-35236688D01*
X-29562366Y-35242821D01*
X-29557266Y-35243323D01*
X-29555364Y-35243957D01*
X-29552731Y-35243769D01*
X-29542857Y-35244742D01*
X-29071428Y-35244742D01*
X-29071428Y-35544742D01*
X-29069507Y-35564251D01*
X-29054575Y-35600299D01*
X-29026985Y-35627889D01*
X-28990937Y-35642821D01*
X-28951919Y-35642821D01*
X-28915871Y-35627889D01*
X-28888281Y-35600299D01*
X-28873349Y-35564251D01*
X-28871428Y-35544742D01*
X-28871428Y-35244742D01*
X-28800000Y-35244742D01*
X-28780491Y-35242821D01*
X-28744443Y-35227889D01*
X-28716853Y-35200299D01*
X-28701921Y-35164251D01*
X-28701921Y-35125233D01*
X-28716853Y-35089185D01*
X-28744443Y-35061595D01*
X-28780491Y-35046663D01*
X-28800000Y-35044742D01*
X-28871428Y-35044742D01*
X-28871428Y-34744742D01*
X-28873349Y-34725233D01*
X-28888281Y-34689185D01*
X-28915871Y-34661595D01*
X-28951919Y-34646663D01*
X-28990937Y-34646663D01*
X-29026985Y-34661595D01*
X-29054575Y-34689185D01*
X-29069507Y-34725233D01*
X-29071428Y-34744742D01*
X-29071428Y-35044742D01*
X-29404115Y-35044742D01*
X-29174950Y-34357249D01*
X-28613501Y-34357249D01*
X-28609154Y-34376365D01*
X-28209154Y-35576365D01*
X-28201163Y-35594265D01*
X-28196480Y-35599664D01*
X-28193285Y-35606054D01*
X-28183814Y-35614269D01*
X-28175598Y-35623741D01*
X-28169209Y-35626935D01*
X-28163809Y-35631619D01*
X-28151912Y-35635584D01*
X-28140699Y-35641191D01*
X-28133572Y-35641697D01*
X-28126793Y-35643957D01*
X-28114286Y-35643068D01*
X-28101779Y-35643957D01*
X-28095001Y-35641697D01*
X-28087873Y-35641191D01*
X-28076661Y-35635584D01*
X-28064763Y-35631619D01*
X-28059364Y-35626935D01*
X-28052974Y-35623741D01*
X-28044757Y-35614266D01*
X-28035287Y-35606053D01*
X-28032094Y-35599665D01*
X-28027409Y-35594265D01*
X-28019418Y-35576365D01*
X-27619418Y-34376365D01*
X-27615071Y-34357250D01*
X-27617837Y-34318329D01*
X-27635287Y-34283431D01*
X-27664763Y-34257865D01*
X-27701779Y-34245527D01*
X-27740699Y-34248293D01*
X-27775598Y-34265743D01*
X-27801163Y-34295219D01*
X-27809154Y-34313119D01*
X-28114286Y-35228515D01*
X-28419418Y-34313119D01*
X-28427409Y-34295219D01*
X-28452974Y-34265743D01*
X-28487873Y-34248293D01*
X-28526793Y-34245527D01*
X-28563809Y-34257865D01*
X-28593285Y-34283430D01*
X-28610735Y-34318329D01*
X-28613501Y-34357249D01*
X-29174950Y-34357249D01*
X-29162275Y-34319223D01*
X-29157928Y-34300107D01*
X-29160694Y-34261187D01*
X-29178144Y-34226288D01*
X-29207620Y-34200723D01*
X-29244636Y-34188385D01*
X-29283556Y-34191151D01*
X-29318455Y-34208601D01*
X-29344020Y-34238077D01*
X-29352011Y-34255977D01*
X-29637725Y-35113119D01*
X-29639925Y-35122790D01*
X-29640936Y-35125233D01*
X-29640936Y-35127239D01*
X-29642072Y-35132235D01*
X-30188928Y-35132235D01*
X-29986432Y-34929739D01*
X-29973996Y-34914585D01*
X-29972622Y-34911266D01*
X-29970266Y-34908551D01*
X-29962275Y-34890651D01*
X-29905132Y-34719223D01*
X-29902933Y-34709550D01*
X-29901921Y-34707109D01*
X-29901573Y-34703571D01*
X-29900785Y-34700108D01*
X-29900973Y-34697473D01*
X-29900000Y-34687600D01*
X-29900000Y-34573314D01*
X-29901921Y-34553805D01*
X-29903297Y-34550484D01*
X-29903551Y-34546901D01*
X-29910557Y-34528593D01*
X-29967700Y-34414307D01*
X-29972985Y-34405910D01*
X-29973995Y-34403472D01*
X-29976249Y-34400726D01*
X-29978143Y-34397716D01*
X-29980140Y-34395984D01*
X-29986431Y-34388318D01*
X-30043574Y-34331175D01*
X-30051241Y-34324882D01*
X-30052973Y-34322885D01*
X-30055983Y-34320990D01*
X-30058727Y-34318738D01*
X-30061166Y-34317727D01*
X-30069563Y-34312442D01*
X-30183850Y-34255299D01*
X-30202158Y-34248293D01*
X-30205742Y-34248038D01*
X-30209062Y-34246663D01*
X-30228571Y-34244742D01*
X-30514285Y-34244742D01*
X-30533794Y-34246663D01*
X-30537115Y-34248038D01*
X-30540698Y-34248293D01*
X-30559006Y-34255299D01*
X-30673292Y-34312442D01*
X-30681689Y-34317727D01*
X-30684129Y-34318738D01*
X-30686875Y-34320991D01*
X-30689883Y-34322885D01*
X-30691616Y-34324882D01*
X-30699282Y-34331175D01*
X-30756425Y-34388317D01*
X-30768861Y-34403471D01*
X-30783793Y-34439519D01*
X-30783793Y-34478537D01*
X-30768861Y-34514585D01*
X-30741271Y-34542175D01*
X-30705223Y-34557107D01*
X-30666205Y-34557107D01*
X-30630157Y-34542175D01*
X-30615003Y-34529739D01*
X-30569336Y-34484070D01*
X-30490677Y-34444742D01*
X-30252178Y-34444742D01*
X-30173521Y-34484070D01*
X-30139330Y-34518262D01*
X-30100000Y-34596921D01*
X-30100000Y-34671372D01*
X-30144546Y-34805008D01*
X-30813568Y-35474031D01*
X-30826004Y-35489185D01*
X-30840936Y-35525233D01*
X-31557142Y-35525233D01*
X-31557142Y-35187600D01*
X-31199999Y-35187600D01*
X-31180490Y-35185679D01*
X-31144442Y-35170747D01*
X-31116852Y-35143157D01*
X-31101920Y-35107109D01*
X-31101920Y-35068091D01*
X-31116852Y-35032043D01*
X-31144442Y-35004453D01*
X-31180490Y-34989521D01*
X-31199999Y-34987600D01*
X-31557142Y-34987600D01*
X-31557142Y-34630457D01*
X-31559063Y-34610948D01*
X-31573995Y-34574900D01*
X-31601585Y-34547310D01*
X-31637633Y-34532378D01*
X-31676651Y-34532378D01*
X-31712699Y-34547310D01*
X-31740289Y-34574900D01*
X-31755221Y-34610948D01*
X-31757142Y-34630457D01*
X-31757142Y-34987600D01*
X-32114285Y-34987600D01*
X-32133794Y-34989521D01*
X-32169842Y-35004453D01*
X-32197432Y-35032043D01*
X-32212364Y-35068091D01*
X-32345697Y-35068091D01*
X-32345697Y-34055052D01*
X-27481738Y-34055052D01*
X-27481738Y-35778075D01*
G37*
G36*
X30341437Y17457639D02*
G01*
X25063993Y17457639D01*
X25063993Y18448243D01*
X25175104Y18448243D01*
X25175104Y18409225D01*
X25190036Y18373177D01*
X25217626Y18345587D01*
X25253674Y18330655D01*
X25273183Y18328734D01*
X25554135Y18328734D01*
X25554135Y18047781D01*
X25556056Y18028272D01*
X25570988Y17992224D01*
X25598578Y17964634D01*
X25634626Y17949702D01*
X25673644Y17949702D01*
X25709692Y17964634D01*
X25737282Y17992224D01*
X25752214Y18028272D01*
X25754135Y18047781D01*
X25754135Y18328734D01*
X26035088Y18328734D01*
X26054597Y18330655D01*
X26090645Y18345587D01*
X26118235Y18373177D01*
X26133167Y18409225D01*
X26133167Y18448243D01*
X26118235Y18484291D01*
X26090645Y18511881D01*
X26054597Y18526813D01*
X26035088Y18528734D01*
X25754135Y18528734D01*
X25754135Y18561938D01*
X26364126Y18561938D01*
X26365580Y18557120D01*
X26365580Y18552082D01*
X26371176Y18538573D01*
X26375397Y18524583D01*
X26378584Y18520687D01*
X26380512Y18516034D01*
X26390848Y18505698D01*
X26400104Y18494385D01*
X26404541Y18492005D01*
X26408102Y18488444D01*
X26421607Y18482850D01*
X26434488Y18475940D01*
X26439497Y18475440D01*
X26444150Y18473512D01*
X26458771Y18473512D01*
X26473312Y18472058D01*
X26478131Y18473512D01*
X26483168Y18473512D01*
X26496677Y18479109D01*
X26510667Y18483329D01*
X26514563Y18486517D01*
X26519216Y18488444D01*
X26534370Y18500880D01*
X26570513Y18537025D01*
X26630123Y18566829D01*
X26821004Y18566829D01*
X26880613Y18537024D01*
X26905282Y18512356D01*
X26935087Y18452746D01*
X26935087Y18261865D01*
X26905282Y18202257D01*
X26880613Y18177587D01*
X26821004Y18147781D01*
X26630123Y18147781D01*
X26570513Y18177586D01*
X26534370Y18213730D01*
X26519217Y18226167D01*
X26483169Y18241098D01*
X26444151Y18241099D01*
X26408102Y18226168D01*
X26380512Y18198578D01*
X26365581Y18162530D01*
X26365580Y18123512D01*
X26380511Y18087463D01*
X26392948Y18072310D01*
X26440566Y18024690D01*
X26448234Y18018397D01*
X26449966Y18016400D01*
X26452974Y18014507D01*
X26455720Y18012253D01*
X26458160Y18011243D01*
X26466557Y18005957D01*
X26561794Y17958338D01*
X26580103Y17951332D01*
X26583686Y17951078D01*
X26587007Y17949702D01*
X26606516Y17947781D01*
X26844611Y17947781D01*
X26864120Y17949702D01*
X26867440Y17951078D01*
X26871024Y17951332D01*
X26889332Y17958338D01*
X26984570Y18005957D01*
X26992965Y18011242D01*
X26995407Y18012253D01*
X26998154Y18014509D01*
X27001160Y18016400D01*
X27002890Y18018395D01*
X27010560Y18024690D01*
X27058179Y18072310D01*
X27064471Y18079977D01*
X27066468Y18081708D01*
X27068361Y18084716D01*
X27070616Y18087463D01*
X27071627Y18089905D01*
X27076911Y18098299D01*
X27124530Y18193536D01*
X27131536Y18211845D01*
X27131790Y18215429D01*
X27133166Y18218749D01*
X27135087Y18238258D01*
X27135087Y18476353D01*
X27133166Y18495862D01*
X27131790Y18499183D01*
X27131536Y18502766D01*
X27124530Y18521075D01*
X27076911Y18616312D01*
X27071625Y18624709D01*
X27070615Y18627149D01*
X27068361Y18629895D01*
X27066468Y18632903D01*
X27064470Y18634636D01*
X27058178Y18642302D01*
X27010560Y18689921D01*
X27002889Y18696216D01*
X27001160Y18698210D01*
X26998152Y18700104D01*
X26995406Y18702357D01*
X26992966Y18703368D01*
X26984570Y18708653D01*
X26889332Y18756272D01*
X26871024Y18763278D01*
X26867440Y18763533D01*
X26864120Y18764908D01*
X26844611Y18766829D01*
X26606516Y18766829D01*
X26587007Y18764908D01*
X26583686Y18763533D01*
X26583349Y18763509D01*
X26601777Y18947781D01*
X26987468Y18947781D01*
X27006977Y18949702D01*
X27043025Y18964634D01*
X27070615Y18992224D01*
X27085547Y19028272D01*
X27085547Y19035274D01*
X27221587Y19035274D01*
X27225934Y19016158D01*
X27559267Y18016159D01*
X27567258Y17998258D01*
X27571941Y17992859D01*
X27575136Y17986469D01*
X27584607Y17978254D01*
X27592823Y17968782D01*
X27599211Y17965588D01*
X27604612Y17960904D01*
X27616513Y17956937D01*
X27627722Y17951333D01*
X27634846Y17950827D01*
X27641628Y17948566D01*
X27654137Y17949456D01*
X27666642Y17948566D01*
X27673420Y17950826D01*
X27680548Y17951332D01*
X27691764Y17956941D01*
X27703658Y17960905D01*
X27709055Y17965586D01*
X27715447Y17968782D01*
X27723665Y17978258D01*
X27733134Y17986470D01*
X27736327Y17992857D01*
X27741012Y17998258D01*
X27749003Y18016158D01*
X27918309Y18524077D01*
X28220802Y18524077D01*
X28220808Y18524043D01*
X28220802Y18523972D01*
X28220802Y18333496D01*
X28220808Y18333426D01*
X28220802Y18333391D01*
X28221749Y18323877D01*
X28222723Y18313987D01*
X28222737Y18313953D01*
X28222744Y18313884D01*
X28270363Y18075789D01*
X28272174Y18069841D01*
X28273553Y18063777D01*
X28321172Y17920921D01*
X28324060Y17914451D01*
X28326597Y17907822D01*
X28374216Y17812584D01*
X28377529Y17807321D01*
X28380454Y17801835D01*
X28475692Y17658978D01*
X28475736Y17658924D01*
X28475750Y17658891D01*
X28481930Y17651360D01*
X28488112Y17643811D01*
X28488141Y17643792D01*
X28488186Y17643737D01*
X28535805Y17596119D01*
X28550958Y17583682D01*
X28587007Y17568751D01*
X28626025Y17568751D01*
X28662073Y17583682D01*
X28689663Y17611272D01*
X28704594Y17647320D01*
X28704594Y17686338D01*
X28689663Y17722387D01*
X28677226Y17737540D01*
X28636608Y17778159D01*
X28550319Y17907592D01*
X28508659Y17990911D01*
X28483200Y18067290D01*
X28794152Y18067290D01*
X28794152Y18028272D01*
X28809084Y17992224D01*
X28836674Y17964634D01*
X28872722Y17949702D01*
X28892231Y17947781D01*
X29511278Y17947781D01*
X29530787Y17949702D01*
X29566835Y17964634D01*
X29594425Y17992224D01*
X29609357Y18028272D01*
X29609357Y18067290D01*
X29594425Y18103338D01*
X29566835Y18130928D01*
X29530787Y18145860D01*
X29511278Y18147781D01*
X29133653Y18147781D01*
X29534370Y18548499D01*
X29546806Y18563653D01*
X29548180Y18566972D01*
X29550536Y18569687D01*
X29558527Y18587587D01*
X29606146Y18730444D01*
X29608345Y18740117D01*
X29609357Y18742558D01*
X29609705Y18746096D01*
X29610493Y18749559D01*
X29610305Y18752194D01*
X29611278Y18762067D01*
X29611278Y18857305D01*
X29609357Y18876814D01*
X29607981Y18880135D01*
X29607727Y18883718D01*
X29600721Y18902027D01*
X29553102Y18997264D01*
X29547816Y19005661D01*
X29546806Y19008101D01*
X29544552Y19010847D01*
X29542659Y19013855D01*
X29540661Y19015588D01*
X29534369Y19023254D01*
X29486751Y19070873D01*
X29479080Y19077168D01*
X29477351Y19079162D01*
X29474343Y19081056D01*
X29471597Y19083309D01*
X29469157Y19084320D01*
X29460761Y19089605D01*
X29365523Y19137224D01*
X29347215Y19144230D01*
X29343631Y19144485D01*
X29340311Y19145860D01*
X29320802Y19147781D01*
X29082707Y19147781D01*
X29063198Y19145860D01*
X29059877Y19144485D01*
X29056294Y19144230D01*
X29037985Y19137224D01*
X28942748Y19089605D01*
X28934351Y19084320D01*
X28931911Y19083309D01*
X28929165Y19081056D01*
X28926157Y19079162D01*
X28924424Y19077165D01*
X28916758Y19070872D01*
X28869139Y19023254D01*
X28856703Y19008100D01*
X28841771Y18972052D01*
X28841771Y18933034D01*
X28856703Y18896986D01*
X28884293Y18869396D01*
X28920341Y18854464D01*
X28959359Y18854464D01*
X28995407Y18869396D01*
X29010561Y18881832D01*
X29046704Y18917977D01*
X29106314Y18947781D01*
X29297195Y18947781D01*
X29356804Y18917976D01*
X29381473Y18893308D01*
X29411278Y18833698D01*
X29411278Y18778294D01*
X29376256Y18673230D01*
X28821520Y18118492D01*
X28809084Y18103338D01*
X28794152Y18067290D01*
X28483200Y18067290D01*
X28465258Y18121115D01*
X28420802Y18343398D01*
X28420802Y18514070D01*
X28465258Y18736353D01*
X28508659Y18866557D01*
X28550320Y18949877D01*
X28636606Y19079308D01*
X28677226Y19119928D01*
X28689663Y19135081D01*
X28704594Y19171130D01*
X28704594Y19210148D01*
X29746533Y19210148D01*
X29746533Y19171130D01*
X29761465Y19135082D01*
X29773901Y19119928D01*
X29814518Y19079312D01*
X29900809Y18949874D01*
X29942468Y18866557D01*
X29985869Y18736355D01*
X30030326Y18514071D01*
X30030326Y18343397D01*
X29985869Y18121113D01*
X29942468Y17990911D01*
X29900810Y17907594D01*
X29814518Y17778157D01*
X29773901Y17737540D01*
X29761465Y17722386D01*
X29746533Y17686338D01*
X29746533Y17647320D01*
X29761465Y17611272D01*
X29789055Y17583682D01*
X29825103Y17568750D01*
X29864121Y17568750D01*
X29900169Y17583682D01*
X29915323Y17596118D01*
X29962941Y17643737D01*
X29962984Y17643790D01*
X29963016Y17643811D01*
X29969233Y17651405D01*
X29975378Y17658890D01*
X29975392Y17658925D01*
X29975436Y17658978D01*
X30070674Y17801835D01*
X30073597Y17807319D01*
X30076912Y17812584D01*
X30124531Y17907821D01*
X30127067Y17914450D01*
X30129956Y17920920D01*
X30177575Y18063777D01*
X30178953Y18069839D01*
X30180765Y18075788D01*
X30228384Y18313884D01*
X30228390Y18313953D01*
X30228405Y18313987D01*
X30229378Y18323877D01*
X30230326Y18333391D01*
X30230319Y18333426D01*
X30230326Y18333496D01*
X30230326Y18523972D01*
X30230319Y18524043D01*
X30230326Y18524077D01*
X30229378Y18533592D01*
X30228405Y18543481D01*
X30228390Y18543516D01*
X30228384Y18543584D01*
X30180765Y18781679D01*
X30178953Y18787629D01*
X30177575Y18793690D01*
X30129956Y18936547D01*
X30127067Y18943018D01*
X30124531Y18949646D01*
X30076912Y19044883D01*
X30073596Y19050151D01*
X30070674Y19055631D01*
X29975436Y19198490D01*
X29975392Y19198544D01*
X29975378Y19198578D01*
X29969233Y19206064D01*
X29963016Y19213657D01*
X29962984Y19213679D01*
X29962941Y19213731D01*
X29915323Y19261350D01*
X29900169Y19273786D01*
X29864121Y19288718D01*
X29825103Y19288718D01*
X29789055Y19273786D01*
X29761465Y19246196D01*
X29746533Y19210148D01*
X28704594Y19210148D01*
X28689663Y19246196D01*
X28662073Y19273786D01*
X28626025Y19288717D01*
X28587007Y19288717D01*
X28550958Y19273786D01*
X28535805Y19261349D01*
X28488186Y19213731D01*
X28488141Y19213677D01*
X28488112Y19213657D01*
X28481930Y19206109D01*
X28475750Y19198577D01*
X28475736Y19198545D01*
X28475692Y19198490D01*
X28380454Y19055632D01*
X28377529Y19050147D01*
X28374216Y19044883D01*
X28326597Y18949645D01*
X28324060Y18943017D01*
X28321172Y18936546D01*
X28273553Y18793690D01*
X28272174Y18787627D01*
X28270363Y18781678D01*
X28222744Y18543584D01*
X28222737Y18543516D01*
X28222723Y18543481D01*
X28221749Y18533592D01*
X28220802Y18524077D01*
X27918309Y18524077D01*
X28082336Y19016158D01*
X28086683Y19035273D01*
X28083917Y19074193D01*
X28066467Y19109092D01*
X28036991Y19134657D01*
X27999975Y19146996D01*
X27961055Y19144229D01*
X27926156Y19126780D01*
X27900591Y19097304D01*
X27892600Y19079403D01*
X27654135Y18364009D01*
X27415670Y19079404D01*
X27407679Y19097304D01*
X27382114Y19126780D01*
X27347215Y19144230D01*
X27308295Y19146996D01*
X27271279Y19134658D01*
X27241803Y19109093D01*
X27224353Y19074194D01*
X27221587Y19035274D01*
X27085547Y19035274D01*
X27085547Y19067290D01*
X27070615Y19103338D01*
X27043025Y19130928D01*
X27006977Y19145860D01*
X26987468Y19147781D01*
X26511278Y19147781D01*
X26504061Y19147071D01*
X26501625Y19147314D01*
X26499246Y19146597D01*
X26491769Y19145860D01*
X26478259Y19140264D01*
X26464270Y19136043D01*
X26460373Y19132856D01*
X26455721Y19130928D01*
X26445384Y19120592D01*
X26434072Y19111336D01*
X26431691Y19106899D01*
X26428131Y19103338D01*
X26422536Y19089833D01*
X26415627Y19076952D01*
X26414150Y19069588D01*
X26413199Y19067290D01*
X26413199Y19064840D01*
X26411774Y19057731D01*
X26364155Y18581541D01*
X26364126Y18561938D01*
X25754135Y18561938D01*
X25754135Y18809686D01*
X25752214Y18829195D01*
X25737282Y18865243D01*
X25709692Y18892833D01*
X25673644Y18907765D01*
X25634626Y18907765D01*
X25598578Y18892833D01*
X25570988Y18865243D01*
X25556056Y18829195D01*
X25554135Y18809686D01*
X25554135Y18528734D01*
X25273183Y18528734D01*
X25253674Y18526813D01*
X25217626Y18511881D01*
X25190036Y18484291D01*
X25175104Y18448243D01*
X25063993Y18448243D01*
X25063993Y19399829D01*
X30341437Y19399829D01*
X30341437Y17457639D01*
G37*
G36*
X-25866667Y-35776154D02*
G01*
X-27133333Y-35776154D01*
X-27133333Y-34344742D01*
X-27000000Y-34344742D01*
X-27000000Y-35544742D01*
X-26998079Y-35564251D01*
X-26983147Y-35600299D01*
X-26955557Y-35627889D01*
X-26919509Y-35642821D01*
X-26880491Y-35642821D01*
X-26844443Y-35627889D01*
X-26816853Y-35600299D01*
X-26801921Y-35564251D01*
X-26800000Y-35544742D01*
X-26800000Y-34795498D01*
X-26590618Y-35244174D01*
X-26586386Y-35251319D01*
X-26585506Y-35253737D01*
X-26583941Y-35255446D01*
X-26580627Y-35261040D01*
X-26569417Y-35271306D01*
X-26559155Y-35282512D01*
X-26555130Y-35284390D01*
X-26551852Y-35287392D01*
X-26537570Y-35292585D01*
X-26523797Y-35299013D01*
X-26519358Y-35299208D01*
X-26515183Y-35300726D01*
X-26500000Y-35300058D01*
X-26484817Y-35300726D01*
X-26480644Y-35299208D01*
X-26476202Y-35299013D01*
X-26462418Y-35292580D01*
X-26448148Y-35287391D01*
X-26444875Y-35284393D01*
X-26440845Y-35282513D01*
X-26430576Y-35271298D01*
X-26419373Y-35261040D01*
X-26416062Y-35255449D01*
X-26414493Y-35253737D01*
X-26413613Y-35251315D01*
X-26409382Y-35244174D01*
X-26200000Y-34795497D01*
X-26200000Y-35544742D01*
X-26198079Y-35564251D01*
X-26183147Y-35600299D01*
X-26155557Y-35627889D01*
X-26119509Y-35642821D01*
X-26080491Y-35642821D01*
X-26044443Y-35627889D01*
X-26016853Y-35600299D01*
X-26001921Y-35564251D01*
X-26000000Y-35544742D01*
X-26000000Y-34344742D01*
X-26001263Y-34331918D01*
X-26001159Y-34329559D01*
X-26001620Y-34328291D01*
X-26001921Y-34325233D01*
X-26008562Y-34309202D01*
X-26014493Y-34292890D01*
X-26016000Y-34291244D01*
X-26016853Y-34289185D01*
X-26029115Y-34276923D01*
X-26040845Y-34264114D01*
X-26042869Y-34263169D01*
X-26044443Y-34261595D01*
X-26060459Y-34254960D01*
X-26076202Y-34247614D01*
X-26078432Y-34247516D01*
X-26080491Y-34246663D01*
X-26097843Y-34246663D01*
X-26115183Y-34245901D01*
X-26117279Y-34246663D01*
X-26119509Y-34246663D01*
X-26135540Y-34253303D01*
X-26151852Y-34259235D01*
X-26153498Y-34260741D01*
X-26155557Y-34261595D01*
X-26167825Y-34273862D01*
X-26180627Y-34285587D01*
X-26182194Y-34288231D01*
X-26183147Y-34289185D01*
X-26184051Y-34291366D01*
X-26190618Y-34302453D01*
X-26500001Y-34965414D01*
X-26809382Y-34302453D01*
X-26815950Y-34291366D01*
X-26816853Y-34289185D01*
X-26817807Y-34288231D01*
X-26819373Y-34285587D01*
X-26832170Y-34273868D01*
X-26844443Y-34261595D01*
X-26846505Y-34260741D01*
X-26848148Y-34259236D01*
X-26864450Y-34253307D01*
X-26880491Y-34246663D01*
X-26882722Y-34246663D01*
X-26884817Y-34245901D01*
X-26902157Y-34246663D01*
X-26919509Y-34246663D01*
X-26921569Y-34247516D01*
X-26923797Y-34247614D01*
X-26939528Y-34254955D01*
X-26955557Y-34261595D01*
X-26957134Y-34263171D01*
X-26959155Y-34264115D01*
X-26970874Y-34276911D01*
X-26983147Y-34289185D01*
X-26984001Y-34291246D01*
X-26985506Y-34292890D01*
X-26991435Y-34309191D01*
X-26998079Y-34325233D01*
X-26998381Y-34328291D01*
X-26998841Y-34329559D01*
X-26998738Y-34331918D01*
X-27000000Y-34344742D01*
X-27133333Y-34344742D01*
X-27133333Y-34112568D01*
X-25866667Y-34112568D01*
X-25866667Y-35776154D01*
G37*
G36*
X30341437Y-36663086D02*
G01*
X29347787Y-36663086D01*
X29347787Y-35452219D01*
X29458898Y-35452219D01*
X29458898Y-36452219D01*
X29460819Y-36471728D01*
X29475751Y-36507776D01*
X29503341Y-36535366D01*
X29539389Y-36550298D01*
X29578407Y-36550298D01*
X29614455Y-36535366D01*
X29642045Y-36507776D01*
X29656977Y-36471728D01*
X29658898Y-36452219D01*
X29658898Y-35828775D01*
X30043502Y-36501833D01*
X30046420Y-36505943D01*
X30047179Y-36507776D01*
X30049045Y-36509642D01*
X30054849Y-36517818D01*
X30065365Y-36525962D01*
X30074769Y-36535366D01*
X30080656Y-36537804D01*
X30085698Y-36541709D01*
X30098530Y-36545208D01*
X30110817Y-36550298D01*
X30117193Y-36550298D01*
X30123342Y-36551975D01*
X30136535Y-36550298D01*
X30149835Y-36550298D01*
X30155723Y-36547858D01*
X30162048Y-36547055D01*
X30173597Y-36540454D01*
X30185883Y-36535366D01*
X30190390Y-36530858D01*
X30195925Y-36527696D01*
X30204069Y-36517179D01*
X30213473Y-36507776D01*
X30215911Y-36501888D01*
X30219816Y-36496847D01*
X30223315Y-36484014D01*
X30228405Y-36471728D01*
X30229387Y-36461750D01*
X30230082Y-36459204D01*
X30229831Y-36457236D01*
X30230326Y-36452219D01*
X30230326Y-35452219D01*
X30228405Y-35432710D01*
X30213473Y-35396662D01*
X30185883Y-35369072D01*
X30149835Y-35354140D01*
X30110817Y-35354140D01*
X30074769Y-35369072D01*
X30047179Y-35396662D01*
X30032247Y-35432710D01*
X30030326Y-35452219D01*
X30030326Y-36075662D01*
X29645722Y-35402605D01*
X29642803Y-35398494D01*
X29642045Y-35396662D01*
X29640178Y-35394795D01*
X29634375Y-35386620D01*
X29623860Y-35378477D01*
X29614455Y-35369072D01*
X29608564Y-35366632D01*
X29603526Y-35362730D01*
X29590697Y-35359231D01*
X29578407Y-35354140D01*
X29572032Y-35354140D01*
X29565883Y-35352463D01*
X29552690Y-35354140D01*
X29539389Y-35354140D01*
X29533500Y-35356579D01*
X29527176Y-35357383D01*
X29515626Y-35363983D01*
X29503341Y-35369072D01*
X29498833Y-35373579D01*
X29493299Y-35376742D01*
X29485156Y-35387256D01*
X29475751Y-35396662D01*
X29473311Y-35402552D01*
X29469409Y-35407591D01*
X29465910Y-35420419D01*
X29460819Y-35432710D01*
X29459836Y-35442687D01*
X29459142Y-35445234D01*
X29459392Y-35447201D01*
X29458898Y-35452219D01*
X29347787Y-35452219D01*
X29347787Y-35241352D01*
X30341437Y-35241352D01*
X30341437Y-36663086D01*
G37*
G36*
X30483509Y24836670D02*
G01*
X26397327Y24836670D01*
X26397327Y25448243D01*
X26508438Y25448243D01*
X26508438Y25409225D01*
X26523370Y25373177D01*
X26550960Y25345587D01*
X26587008Y25330655D01*
X26606517Y25328734D01*
X26887469Y25328734D01*
X26887469Y25047781D01*
X26889390Y25028272D01*
X26904322Y24992224D01*
X26931912Y24964634D01*
X26967960Y24949702D01*
X27006978Y24949702D01*
X27043026Y24964634D01*
X27070616Y24992224D01*
X27085548Y25028272D01*
X27087469Y25047781D01*
X27087469Y25067290D01*
X27651295Y25067290D01*
X27651295Y25028272D01*
X27666227Y24992224D01*
X27693817Y24964634D01*
X27729865Y24949702D01*
X27749374Y24947781D01*
X28368421Y24947781D01*
X28387930Y24949702D01*
X28423978Y24964634D01*
X28451568Y24992224D01*
X28466500Y25028272D01*
X28466500Y25067290D01*
X28451568Y25103338D01*
X28423978Y25130928D01*
X28387930Y25145860D01*
X28368421Y25147781D01*
X27990796Y25147781D01*
X28236636Y25393622D01*
X28650159Y25393622D01*
X28651295Y25377638D01*
X28651295Y25361606D01*
X28652670Y25358286D01*
X28652925Y25354702D01*
X28660092Y25340367D01*
X28666227Y25325558D01*
X28668767Y25323018D01*
X28670375Y25319803D01*
X28682486Y25309299D01*
X28693817Y25297968D01*
X28697135Y25296594D01*
X28699851Y25294238D01*
X28715060Y25289169D01*
X28729865Y25283036D01*
X28734965Y25282534D01*
X28736867Y25281900D01*
X28739500Y25282088D01*
X28749374Y25281115D01*
X29125564Y25281115D01*
X29125564Y25047781D01*
X29127485Y25028272D01*
X29142417Y24992224D01*
X29170007Y24964634D01*
X29206055Y24949702D01*
X29245073Y24949702D01*
X29281121Y24964634D01*
X29308711Y24992224D01*
X29323643Y25028272D01*
X29325564Y25047781D01*
X29325564Y25281115D01*
X29368421Y25281115D01*
X29387930Y25283036D01*
X29423978Y25297968D01*
X29451568Y25325558D01*
X29466500Y25361606D01*
X29466500Y25400624D01*
X29451568Y25436672D01*
X29423978Y25464262D01*
X29387930Y25479194D01*
X29368421Y25481115D01*
X29325564Y25481115D01*
X29325564Y25714448D01*
X29323643Y25733957D01*
X29308711Y25770005D01*
X29281121Y25797595D01*
X29245073Y25812527D01*
X29206055Y25812527D01*
X29170007Y25797595D01*
X29142417Y25770005D01*
X29127485Y25733957D01*
X29125564Y25714448D01*
X29125564Y25481115D01*
X28888116Y25481115D01*
X29072836Y26035274D01*
X29507302Y26035274D01*
X29511649Y26016158D01*
X29844982Y25016159D01*
X29852973Y24998258D01*
X29857656Y24992859D01*
X29860851Y24986469D01*
X29870322Y24978254D01*
X29878538Y24968782D01*
X29884926Y24965588D01*
X29890327Y24960904D01*
X29902228Y24956937D01*
X29913437Y24951333D01*
X29920561Y24950827D01*
X29927343Y24948566D01*
X29939852Y24949456D01*
X29952357Y24948566D01*
X29959135Y24950826D01*
X29966263Y24951332D01*
X29977479Y24956941D01*
X29989373Y24960905D01*
X29994770Y24965586D01*
X30001162Y24968782D01*
X30009380Y24978258D01*
X30018849Y24986470D01*
X30022042Y24992857D01*
X30026727Y24998258D01*
X30034718Y25016158D01*
X30368051Y26016158D01*
X30372398Y26035273D01*
X30369632Y26074193D01*
X30352182Y26109092D01*
X30322706Y26134657D01*
X30285690Y26146996D01*
X30246770Y26144229D01*
X30211871Y26126780D01*
X30186306Y26097304D01*
X30178315Y26079403D01*
X29939850Y25364009D01*
X29701385Y26079404D01*
X29693394Y26097304D01*
X29667829Y26126780D01*
X29632930Y26144230D01*
X29594010Y26146996D01*
X29556994Y26134658D01*
X29527518Y26109093D01*
X29510068Y26074194D01*
X29507302Y26035274D01*
X29072836Y26035274D01*
X29082337Y26063777D01*
X29086684Y26082892D01*
X29083918Y26121812D01*
X29066468Y26156711D01*
X29036992Y26182276D01*
X28999976Y26194615D01*
X28961056Y26191848D01*
X28926157Y26174399D01*
X28900592Y26144923D01*
X28892601Y26127022D01*
X28654506Y25412738D01*
X28652306Y25403067D01*
X28651295Y25400624D01*
X28651295Y25398618D01*
X28650159Y25393622D01*
X28236636Y25393622D01*
X28391513Y25548499D01*
X28403949Y25563653D01*
X28405323Y25566972D01*
X28407679Y25569687D01*
X28415670Y25587587D01*
X28463289Y25730444D01*
X28465488Y25740117D01*
X28466500Y25742558D01*
X28466848Y25746096D01*
X28467636Y25749559D01*
X28467448Y25752194D01*
X28468421Y25762067D01*
X28468421Y25857305D01*
X28466500Y25876814D01*
X28465124Y25880135D01*
X28464870Y25883718D01*
X28457864Y25902027D01*
X28410245Y25997264D01*
X28404959Y26005661D01*
X28403949Y26008101D01*
X28401695Y26010847D01*
X28399802Y26013855D01*
X28397804Y26015588D01*
X28391512Y26023254D01*
X28343894Y26070873D01*
X28336223Y26077168D01*
X28334494Y26079162D01*
X28331486Y26081056D01*
X28328740Y26083309D01*
X28326300Y26084320D01*
X28317904Y26089605D01*
X28222666Y26137224D01*
X28204358Y26144230D01*
X28200774Y26144485D01*
X28197454Y26145860D01*
X28177945Y26147781D01*
X27939850Y26147781D01*
X27920341Y26145860D01*
X27917020Y26144485D01*
X27913437Y26144230D01*
X27895128Y26137224D01*
X27799891Y26089605D01*
X27791494Y26084320D01*
X27789054Y26083309D01*
X27786308Y26081056D01*
X27783300Y26079162D01*
X27781567Y26077165D01*
X27773901Y26070872D01*
X27726282Y26023254D01*
X27713846Y26008100D01*
X27698914Y25972052D01*
X27698914Y25933034D01*
X27713846Y25896986D01*
X27741436Y25869396D01*
X27777484Y25854464D01*
X27816502Y25854464D01*
X27852550Y25869396D01*
X27867704Y25881832D01*
X27903847Y25917977D01*
X27963457Y25947781D01*
X28154338Y25947781D01*
X28213947Y25917976D01*
X28238616Y25893308D01*
X28268421Y25833698D01*
X28268421Y25778294D01*
X28233399Y25673230D01*
X27678663Y25118492D01*
X27666227Y25103338D01*
X27651295Y25067290D01*
X27087469Y25067290D01*
X27087469Y25328734D01*
X27368422Y25328734D01*
X27387931Y25330655D01*
X27423979Y25345587D01*
X27451569Y25373177D01*
X27466501Y25409225D01*
X27466501Y25448243D01*
X27451569Y25484291D01*
X27423979Y25511881D01*
X27387931Y25526813D01*
X27368422Y25528734D01*
X27087469Y25528734D01*
X27087469Y25809686D01*
X27085548Y25829195D01*
X27070616Y25865243D01*
X27043026Y25892833D01*
X27006978Y25907765D01*
X26967960Y25907765D01*
X26931912Y25892833D01*
X26904322Y25865243D01*
X26889390Y25829195D01*
X26887469Y25809686D01*
X26887469Y25528734D01*
X26606517Y25528734D01*
X26587008Y25526813D01*
X26550960Y25511881D01*
X26523370Y25484291D01*
X26508438Y25448243D01*
X26397327Y25448243D01*
X26397327Y26305726D01*
X30483509Y26305726D01*
X30483509Y24836670D01*
G37*
G36*
X29118709Y-39082024D02*
G01*
X29143378Y-39106692D01*
X29173183Y-39166302D01*
X29173183Y-39261945D01*
X29143378Y-39321554D01*
X29118709Y-39346222D01*
X29059100Y-39376028D01*
X28801755Y-39376028D01*
X28801755Y-39052219D01*
X29059100Y-39052219D01*
X29118709Y-39082024D01*
G37*
G36*
X30387135Y-40163330D02*
G01*
X28490644Y-40163330D01*
X28490644Y-38952219D01*
X28601755Y-38952219D01*
X28601755Y-39952219D01*
X28603676Y-39971728D01*
X28618608Y-40007776D01*
X28646198Y-40035366D01*
X28682246Y-40050298D01*
X28721264Y-40050298D01*
X28757312Y-40035366D01*
X28784902Y-40007776D01*
X28799834Y-39971728D01*
X28801755Y-39952219D01*
X28801755Y-39576028D01*
X29082707Y-39576028D01*
X29102216Y-39574107D01*
X29105536Y-39572731D01*
X29109120Y-39572477D01*
X29127428Y-39565471D01*
X29222666Y-39517852D01*
X29231062Y-39512566D01*
X29233502Y-39511556D01*
X29236248Y-39509302D01*
X29239256Y-39507409D01*
X29240985Y-39505414D01*
X29248656Y-39499120D01*
X29296274Y-39451501D01*
X29302566Y-39443834D01*
X29304564Y-39442102D01*
X29306457Y-39439093D01*
X29308711Y-39436348D01*
X29309721Y-39433907D01*
X29315007Y-39425511D01*
X29362626Y-39330274D01*
X29369632Y-39311965D01*
X29369886Y-39308381D01*
X29371262Y-39305061D01*
X29373183Y-39285552D01*
X29373183Y-39142695D01*
X29371262Y-39123186D01*
X29369886Y-39119865D01*
X29369632Y-39116282D01*
X29362626Y-39097973D01*
X29315007Y-39002736D01*
X29309721Y-38994339D01*
X29308711Y-38991899D01*
X29306457Y-38989153D01*
X29304564Y-38986145D01*
X29302566Y-38984412D01*
X29296274Y-38976746D01*
X29271748Y-38952219D01*
X29601755Y-38952219D01*
X29601755Y-39952219D01*
X29603676Y-39971728D01*
X29618608Y-40007776D01*
X29646198Y-40035366D01*
X29682246Y-40050298D01*
X29701755Y-40052219D01*
X30177945Y-40052219D01*
X30197454Y-40050298D01*
X30233502Y-40035366D01*
X30261092Y-40007776D01*
X30276024Y-39971728D01*
X30276024Y-39932710D01*
X30261092Y-39896662D01*
X30233502Y-39869072D01*
X30197454Y-39854140D01*
X30177945Y-39852219D01*
X29801755Y-39852219D01*
X29801755Y-39528409D01*
X30035088Y-39528409D01*
X30054597Y-39526488D01*
X30090645Y-39511556D01*
X30118235Y-39483966D01*
X30133167Y-39447918D01*
X30133167Y-39408900D01*
X30118235Y-39372852D01*
X30090645Y-39345262D01*
X30054597Y-39330330D01*
X30035088Y-39328409D01*
X29801755Y-39328409D01*
X29801755Y-39052219D01*
X30177945Y-39052219D01*
X30197454Y-39050298D01*
X30233502Y-39035366D01*
X30261092Y-39007776D01*
X30276024Y-38971728D01*
X30276024Y-38932710D01*
X30261092Y-38896662D01*
X30233502Y-38869072D01*
X30197454Y-38854140D01*
X30177945Y-38852219D01*
X29701755Y-38852219D01*
X29682246Y-38854140D01*
X29646198Y-38869072D01*
X29618608Y-38896662D01*
X29603676Y-38932710D01*
X29601755Y-38952219D01*
X29271748Y-38952219D01*
X29248656Y-38929127D01*
X29240985Y-38922832D01*
X29239256Y-38920838D01*
X29236248Y-38918944D01*
X29233502Y-38916691D01*
X29231062Y-38915680D01*
X29222666Y-38910395D01*
X29127428Y-38862776D01*
X29109120Y-38855770D01*
X29105536Y-38855515D01*
X29102216Y-38854140D01*
X29082707Y-38852219D01*
X28701755Y-38852219D01*
X28682246Y-38854140D01*
X28646198Y-38869072D01*
X28618608Y-38896662D01*
X28603676Y-38932710D01*
X28601755Y-38952219D01*
X28490644Y-38952219D01*
X28490644Y-38741108D01*
X30387135Y-38741108D01*
X30387135Y-40163330D01*
G37*
G36*
X-25516491Y23836670D02*
G01*
X-30078863Y23836670D01*
X-30078863Y24448243D01*
X-29967752Y24448243D01*
X-29967752Y24409225D01*
X-29952820Y24373177D01*
X-29925230Y24345587D01*
X-29889182Y24330655D01*
X-29869673Y24328734D01*
X-29588721Y24328734D01*
X-29588721Y24047781D01*
X-29586800Y24028272D01*
X-29571868Y23992224D01*
X-29544278Y23964634D01*
X-29508230Y23949702D01*
X-29469212Y23949702D01*
X-29433164Y23964634D01*
X-29405574Y23992224D01*
X-29390642Y24028272D01*
X-29388721Y24047781D01*
X-29388721Y24328734D01*
X-29107768Y24328734D01*
X-29088259Y24330655D01*
X-29052211Y24345587D01*
X-29024621Y24373177D01*
X-29009689Y24409225D01*
X-29009689Y24448243D01*
X-29024621Y24484291D01*
X-29052211Y24511881D01*
X-29088259Y24526813D01*
X-29107768Y24528734D01*
X-29388721Y24528734D01*
X-29388721Y24809686D01*
X-29390642Y24829195D01*
X-29405574Y24865243D01*
X-29433164Y24892833D01*
X-29469212Y24907765D01*
X-29508230Y24907765D01*
X-29544278Y24892833D01*
X-29571868Y24865243D01*
X-29586800Y24829195D01*
X-29588721Y24809686D01*
X-29588721Y24528734D01*
X-29869673Y24528734D01*
X-29889182Y24526813D01*
X-29925230Y24511881D01*
X-29952820Y24484291D01*
X-29967752Y24448243D01*
X-30078863Y24448243D01*
X-30078863Y25067290D01*
X-28824895Y25067290D01*
X-28824895Y25028272D01*
X-28809963Y24992224D01*
X-28782373Y24964634D01*
X-28746325Y24949702D01*
X-28726816Y24947781D01*
X-28328146Y24947781D01*
X-28516360Y24732679D01*
X-28522390Y24724246D01*
X-28524249Y24722386D01*
X-28524980Y24720623D01*
X-28527761Y24716732D01*
X-28532966Y24701344D01*
X-28539181Y24686338D01*
X-28539181Y24682965D01*
X-28540261Y24679771D01*
X-28539181Y24663569D01*
X-28539181Y24647320D01*
X-28537891Y24644205D01*
X-28537666Y24640839D01*
X-28530466Y24626279D01*
X-28524249Y24611272D01*
X-28521865Y24608888D01*
X-28520369Y24605864D01*
X-28508144Y24595167D01*
X-28496659Y24583682D01*
X-28493545Y24582392D01*
X-28491005Y24580170D01*
X-28475617Y24574966D01*
X-28460611Y24568750D01*
X-28455852Y24568282D01*
X-28454044Y24567670D01*
X-28451420Y24567845D01*
X-28441102Y24566829D01*
X-28321852Y24566829D01*
X-28262243Y24537024D01*
X-28237574Y24512356D01*
X-28207769Y24452746D01*
X-28207769Y24261865D01*
X-28237574Y24202257D01*
X-28262243Y24177587D01*
X-28321852Y24147781D01*
X-28560352Y24147781D01*
X-28619962Y24177586D01*
X-28656105Y24213730D01*
X-28671258Y24226167D01*
X-28707306Y24241098D01*
X-28746324Y24241099D01*
X-28782373Y24226168D01*
X-28809963Y24198578D01*
X-28824894Y24162530D01*
X-28824895Y24123512D01*
X-28809964Y24087463D01*
X-28797527Y24072310D01*
X-28749909Y24024690D01*
X-28742241Y24018397D01*
X-28740509Y24016400D01*
X-28737501Y24014507D01*
X-28734755Y24012253D01*
X-28732315Y24011243D01*
X-28723918Y24005957D01*
X-28628681Y23958338D01*
X-28610372Y23951332D01*
X-28606789Y23951078D01*
X-28603468Y23949702D01*
X-28583959Y23947781D01*
X-28298245Y23947781D01*
X-28278736Y23949702D01*
X-28275416Y23951078D01*
X-28271832Y23951332D01*
X-28253524Y23958338D01*
X-28158286Y24005957D01*
X-28149891Y24011242D01*
X-28147449Y24012253D01*
X-28144702Y24014509D01*
X-28141696Y24016400D01*
X-28139966Y24018395D01*
X-28132296Y24024690D01*
X-28084677Y24072310D01*
X-28078385Y24079977D01*
X-28076388Y24081708D01*
X-28074495Y24084716D01*
X-28072240Y24087463D01*
X-28071229Y24089905D01*
X-28065945Y24098299D01*
X-28057640Y24114909D01*
X-27824895Y24114909D01*
X-27824895Y24075891D01*
X-27818432Y24060289D01*
X-27809963Y24039842D01*
X-27809959Y24039838D01*
X-27797527Y24024689D01*
X-27749908Y23977071D01*
X-27734755Y23964634D01*
X-27725752Y23960905D01*
X-27698706Y23949702D01*
X-27659688Y23949702D01*
X-27623640Y23964634D01*
X-27608486Y23977070D01*
X-27560868Y24024689D01*
X-27548431Y24039842D01*
X-27541679Y24056144D01*
X-27533500Y24075890D01*
X-27533499Y24114908D01*
X-27548430Y24150957D01*
X-27560867Y24166110D01*
X-27608486Y24213730D01*
X-27623639Y24226167D01*
X-27638571Y24232352D01*
X-27659688Y24241099D01*
X-27698706Y24241099D01*
X-27709264Y24236726D01*
X-27734754Y24226168D01*
X-27734755Y24226167D01*
X-27749909Y24213730D01*
X-27797527Y24166110D01*
X-27809964Y24150957D01*
X-27819977Y24126781D01*
X-27824895Y24114909D01*
X-28057640Y24114909D01*
X-28018326Y24193536D01*
X-28011320Y24211845D01*
X-28011066Y24215429D01*
X-28009690Y24218749D01*
X-28007769Y24238258D01*
X-28007769Y24476353D01*
X-28009690Y24495862D01*
X-28011066Y24499183D01*
X-28011320Y24502766D01*
X-28018326Y24521075D01*
X-28065945Y24616312D01*
X-28071231Y24624709D01*
X-28072241Y24627149D01*
X-28074495Y24629895D01*
X-28076388Y24632903D01*
X-28078386Y24634636D01*
X-28084678Y24642302D01*
X-28132296Y24689921D01*
X-28139967Y24696216D01*
X-28141696Y24698210D01*
X-28144704Y24700104D01*
X-28147450Y24702357D01*
X-28149890Y24703368D01*
X-28158286Y24708653D01*
X-28237134Y24748077D01*
X-28032511Y24981931D01*
X-28026482Y24990365D01*
X-28024622Y24992224D01*
X-28023892Y24993988D01*
X-28021110Y24997878D01*
X-28015906Y25013267D01*
X-28009690Y25028272D01*
X-28009690Y25031646D01*
X-28008610Y25034839D01*
X-28009690Y25051042D01*
X-28009690Y25067290D01*
X-27396324Y25067290D01*
X-27396324Y25028272D01*
X-27381392Y24992224D01*
X-27353802Y24964634D01*
X-27317754Y24949702D01*
X-27298245Y24947781D01*
X-26899575Y24947781D01*
X-27087789Y24732679D01*
X-27093819Y24724246D01*
X-27095678Y24722386D01*
X-27096409Y24720623D01*
X-27099190Y24716732D01*
X-27104395Y24701344D01*
X-27110610Y24686338D01*
X-27110610Y24682965D01*
X-27111690Y24679771D01*
X-27110610Y24663569D01*
X-27110610Y24647320D01*
X-27109320Y24644205D01*
X-27109095Y24640839D01*
X-27101895Y24626279D01*
X-27095678Y24611272D01*
X-27093294Y24608888D01*
X-27091798Y24605864D01*
X-27079573Y24595167D01*
X-27068088Y24583682D01*
X-27064974Y24582392D01*
X-27062434Y24580170D01*
X-27047046Y24574966D01*
X-27032040Y24568750D01*
X-27027281Y24568282D01*
X-27025473Y24567670D01*
X-27022849Y24567845D01*
X-27012531Y24566829D01*
X-26893281Y24566829D01*
X-26833672Y24537024D01*
X-26809003Y24512356D01*
X-26779198Y24452746D01*
X-26779198Y24261865D01*
X-26809003Y24202257D01*
X-26833672Y24177587D01*
X-26893281Y24147781D01*
X-27131781Y24147781D01*
X-27191391Y24177586D01*
X-27227534Y24213730D01*
X-27242687Y24226167D01*
X-27278735Y24241098D01*
X-27317753Y24241099D01*
X-27353802Y24226168D01*
X-27381392Y24198578D01*
X-27396323Y24162530D01*
X-27396324Y24123512D01*
X-27381393Y24087463D01*
X-27368956Y24072310D01*
X-27321338Y24024690D01*
X-27313670Y24018397D01*
X-27311938Y24016400D01*
X-27308930Y24014507D01*
X-27306184Y24012253D01*
X-27303744Y24011243D01*
X-27295347Y24005957D01*
X-27200110Y23958338D01*
X-27181801Y23951332D01*
X-27178218Y23951078D01*
X-27174897Y23949702D01*
X-27155388Y23947781D01*
X-26869674Y23947781D01*
X-26850165Y23949702D01*
X-26846845Y23951078D01*
X-26843261Y23951332D01*
X-26824953Y23958338D01*
X-26729715Y24005957D01*
X-26721320Y24011242D01*
X-26718878Y24012253D01*
X-26716131Y24014509D01*
X-26713125Y24016400D01*
X-26711395Y24018395D01*
X-26703725Y24024690D01*
X-26656106Y24072310D01*
X-26649814Y24079977D01*
X-26647817Y24081708D01*
X-26645924Y24084716D01*
X-26643669Y24087463D01*
X-26642658Y24089905D01*
X-26637374Y24098299D01*
X-26589755Y24193536D01*
X-26582749Y24211845D01*
X-26582495Y24215429D01*
X-26581119Y24218749D01*
X-26579198Y24238258D01*
X-26579198Y24476353D01*
X-26581119Y24495862D01*
X-26582495Y24499183D01*
X-26582749Y24502766D01*
X-26589755Y24521075D01*
X-26637374Y24616312D01*
X-26642660Y24624709D01*
X-26643670Y24627149D01*
X-26645924Y24629895D01*
X-26647817Y24632903D01*
X-26649815Y24634636D01*
X-26656107Y24642302D01*
X-26703725Y24689921D01*
X-26711396Y24696216D01*
X-26713125Y24698210D01*
X-26716133Y24700104D01*
X-26718879Y24702357D01*
X-26721319Y24703368D01*
X-26729715Y24708653D01*
X-26808563Y24748077D01*
X-26603940Y24981931D01*
X-26597911Y24990365D01*
X-26596051Y24992224D01*
X-26595321Y24993988D01*
X-26592539Y24997878D01*
X-26587335Y25013267D01*
X-26581119Y25028272D01*
X-26581119Y25031646D01*
X-26580039Y25034839D01*
X-26580068Y25035274D01*
X-26492698Y25035274D01*
X-26488351Y25016158D01*
X-26155018Y24016159D01*
X-26147027Y23998258D01*
X-26142344Y23992859D01*
X-26139149Y23986469D01*
X-26129678Y23978254D01*
X-26121462Y23968782D01*
X-26115074Y23965588D01*
X-26109673Y23960904D01*
X-26097772Y23956937D01*
X-26086563Y23951333D01*
X-26079439Y23950827D01*
X-26072657Y23948566D01*
X-26060148Y23949456D01*
X-26047643Y23948566D01*
X-26040865Y23950826D01*
X-26033737Y23951332D01*
X-26022521Y23956941D01*
X-26010627Y23960905D01*
X-26005230Y23965586D01*
X-25998838Y23968782D01*
X-25990620Y23978258D01*
X-25981151Y23986470D01*
X-25977958Y23992857D01*
X-25973273Y23998258D01*
X-25965282Y24016158D01*
X-25631949Y25016158D01*
X-25627602Y25035273D01*
X-25630368Y25074193D01*
X-25647818Y25109092D01*
X-25677294Y25134657D01*
X-25714310Y25146996D01*
X-25753230Y25144229D01*
X-25788129Y25126780D01*
X-25813694Y25097304D01*
X-25821685Y25079403D01*
X-26060150Y24364009D01*
X-26298615Y25079404D01*
X-26306606Y25097304D01*
X-26332171Y25126780D01*
X-26367070Y25144230D01*
X-26405990Y25146996D01*
X-26443006Y25134658D01*
X-26472482Y25109093D01*
X-26489932Y25074194D01*
X-26492698Y25035274D01*
X-26580068Y25035274D01*
X-26581119Y25051042D01*
X-26581119Y25067290D01*
X-26582410Y25070406D01*
X-26582634Y25073771D01*
X-26589837Y25088337D01*
X-26596051Y25103338D01*
X-26598435Y25105722D01*
X-26599930Y25108746D01*
X-26612164Y25119451D01*
X-26623641Y25130928D01*
X-26626755Y25132218D01*
X-26629294Y25134440D01*
X-26644686Y25139646D01*
X-26659689Y25145860D01*
X-26664449Y25146329D01*
X-26666256Y25146940D01*
X-26668881Y25146766D01*
X-26679198Y25147781D01*
X-27298245Y25147781D01*
X-27317754Y25145860D01*
X-27353802Y25130928D01*
X-27381392Y25103338D01*
X-27396324Y25067290D01*
X-28009690Y25067290D01*
X-28010981Y25070406D01*
X-28011205Y25073771D01*
X-28018408Y25088337D01*
X-28024622Y25103338D01*
X-28027006Y25105722D01*
X-28028501Y25108746D01*
X-28040735Y25119451D01*
X-28052212Y25130928D01*
X-28055326Y25132218D01*
X-28057865Y25134440D01*
X-28073257Y25139646D01*
X-28088260Y25145860D01*
X-28093020Y25146329D01*
X-28094827Y25146940D01*
X-28097452Y25146766D01*
X-28107769Y25147781D01*
X-28726816Y25147781D01*
X-28746325Y25145860D01*
X-28782373Y25130928D01*
X-28809963Y25103338D01*
X-28824895Y25067290D01*
X-30078863Y25067290D01*
X-30078863Y25258892D01*
X-25516491Y25258892D01*
X-25516491Y23836670D01*
G37*
G36*
X30482373Y-33163330D02*
G01*
X29585882Y-33163330D01*
X29585882Y-31952219D01*
X29696993Y-31952219D01*
X29696993Y-32952219D01*
X29698914Y-32971728D01*
X29713846Y-33007776D01*
X29741436Y-33035366D01*
X29777484Y-33050298D01*
X29796993Y-33052219D01*
X30273183Y-33052219D01*
X30292692Y-33050298D01*
X30328740Y-33035366D01*
X30356330Y-33007776D01*
X30371262Y-32971728D01*
X30371262Y-32932710D01*
X30356330Y-32896662D01*
X30328740Y-32869072D01*
X30292692Y-32854140D01*
X30273183Y-32852219D01*
X29896993Y-32852219D01*
X29896993Y-31952219D01*
X29895072Y-31932710D01*
X29880140Y-31896662D01*
X29852550Y-31869072D01*
X29816502Y-31854140D01*
X29777484Y-31854140D01*
X29741436Y-31869072D01*
X29713846Y-31896662D01*
X29698914Y-31932710D01*
X29696993Y-31952219D01*
X29585882Y-31952219D01*
X29585882Y-31743029D01*
X30482373Y-31743029D01*
X30482373Y-33163330D01*
G37*
G36*
X30483509Y21336670D02*
G01*
X27349708Y21336670D01*
X27349708Y21948243D01*
X27460819Y21948243D01*
X27460819Y21909225D01*
X27475751Y21873177D01*
X27503341Y21845587D01*
X27539389Y21830655D01*
X27558898Y21828734D01*
X27839850Y21828734D01*
X27839850Y21547781D01*
X27841771Y21528272D01*
X27856703Y21492224D01*
X27884293Y21464634D01*
X27920341Y21449702D01*
X27959359Y21449702D01*
X27995407Y21464634D01*
X28022997Y21492224D01*
X28037929Y21528272D01*
X28039850Y21547781D01*
X28039850Y21828734D01*
X28320803Y21828734D01*
X28340312Y21830655D01*
X28376360Y21845587D01*
X28403950Y21873177D01*
X28418882Y21909225D01*
X28418882Y21948243D01*
X28403950Y21984291D01*
X28376360Y22011881D01*
X28340312Y22026813D01*
X28320803Y22028734D01*
X28039850Y22028734D01*
X28039850Y22061938D01*
X28649841Y22061938D01*
X28651295Y22057120D01*
X28651295Y22052082D01*
X28656891Y22038573D01*
X28661112Y22024583D01*
X28664299Y22020687D01*
X28666227Y22016034D01*
X28676563Y22005698D01*
X28685819Y21994385D01*
X28690256Y21992005D01*
X28693817Y21988444D01*
X28707322Y21982850D01*
X28720203Y21975940D01*
X28725212Y21975440D01*
X28729865Y21973512D01*
X28744486Y21973512D01*
X28759027Y21972058D01*
X28763846Y21973512D01*
X28768883Y21973512D01*
X28782392Y21979109D01*
X28796382Y21983329D01*
X28800278Y21986517D01*
X28804931Y21988444D01*
X28820085Y22000880D01*
X28856228Y22037025D01*
X28915838Y22066829D01*
X29106719Y22066829D01*
X29166328Y22037024D01*
X29190997Y22012356D01*
X29220802Y21952746D01*
X29220802Y21761865D01*
X29190997Y21702257D01*
X29166328Y21677587D01*
X29106719Y21647781D01*
X28915838Y21647781D01*
X28856228Y21677586D01*
X28820085Y21713730D01*
X28804932Y21726167D01*
X28768884Y21741098D01*
X28729866Y21741099D01*
X28693817Y21726168D01*
X28666227Y21698578D01*
X28651296Y21662530D01*
X28651295Y21623512D01*
X28666226Y21587463D01*
X28678663Y21572310D01*
X28726281Y21524690D01*
X28733949Y21518397D01*
X28735681Y21516400D01*
X28738689Y21514507D01*
X28741435Y21512253D01*
X28743875Y21511243D01*
X28752272Y21505957D01*
X28847509Y21458338D01*
X28865818Y21451332D01*
X28869401Y21451078D01*
X28872722Y21449702D01*
X28892231Y21447781D01*
X29130326Y21447781D01*
X29149835Y21449702D01*
X29153155Y21451078D01*
X29156739Y21451332D01*
X29175047Y21458338D01*
X29270285Y21505957D01*
X29278680Y21511242D01*
X29281122Y21512253D01*
X29283869Y21514509D01*
X29286875Y21516400D01*
X29288605Y21518395D01*
X29296275Y21524690D01*
X29343894Y21572310D01*
X29350186Y21579977D01*
X29352183Y21581708D01*
X29354076Y21584716D01*
X29356331Y21587463D01*
X29357342Y21589905D01*
X29362626Y21598299D01*
X29410245Y21693536D01*
X29417251Y21711845D01*
X29417505Y21715429D01*
X29418881Y21718749D01*
X29420802Y21738258D01*
X29420802Y21976353D01*
X29418881Y21995862D01*
X29417505Y21999183D01*
X29417251Y22002766D01*
X29410245Y22021075D01*
X29362626Y22116312D01*
X29357340Y22124709D01*
X29356330Y22127149D01*
X29354076Y22129895D01*
X29352183Y22132903D01*
X29350185Y22134636D01*
X29343893Y22142302D01*
X29296275Y22189921D01*
X29288604Y22196216D01*
X29286875Y22198210D01*
X29283867Y22200104D01*
X29281121Y22202357D01*
X29278681Y22203368D01*
X29270285Y22208653D01*
X29175047Y22256272D01*
X29156739Y22263278D01*
X29153155Y22263533D01*
X29149835Y22264908D01*
X29130326Y22266829D01*
X28892231Y22266829D01*
X28872722Y22264908D01*
X28869401Y22263533D01*
X28869064Y22263509D01*
X28887492Y22447781D01*
X29273183Y22447781D01*
X29292692Y22449702D01*
X29328740Y22464634D01*
X29356330Y22492224D01*
X29371262Y22528272D01*
X29371262Y22535274D01*
X29507302Y22535274D01*
X29511649Y22516158D01*
X29844982Y21516159D01*
X29852973Y21498258D01*
X29857656Y21492859D01*
X29860851Y21486469D01*
X29870322Y21478254D01*
X29878538Y21468782D01*
X29884926Y21465588D01*
X29890327Y21460904D01*
X29902228Y21456937D01*
X29913437Y21451333D01*
X29920561Y21450827D01*
X29927343Y21448566D01*
X29939852Y21449456D01*
X29952357Y21448566D01*
X29959135Y21450826D01*
X29966263Y21451332D01*
X29977479Y21456941D01*
X29989373Y21460905D01*
X29994770Y21465586D01*
X30001162Y21468782D01*
X30009380Y21478258D01*
X30018849Y21486470D01*
X30022042Y21492857D01*
X30026727Y21498258D01*
X30034718Y21516158D01*
X30368051Y22516158D01*
X30372398Y22535273D01*
X30369632Y22574193D01*
X30352182Y22609092D01*
X30322706Y22634657D01*
X30285690Y22646996D01*
X30246770Y22644229D01*
X30211871Y22626780D01*
X30186306Y22597304D01*
X30178315Y22579403D01*
X29939850Y21864009D01*
X29701385Y22579404D01*
X29693394Y22597304D01*
X29667829Y22626780D01*
X29632930Y22644230D01*
X29594010Y22646996D01*
X29556994Y22634658D01*
X29527518Y22609093D01*
X29510068Y22574194D01*
X29507302Y22535274D01*
X29371262Y22535274D01*
X29371262Y22567290D01*
X29356330Y22603338D01*
X29328740Y22630928D01*
X29292692Y22645860D01*
X29273183Y22647781D01*
X28796993Y22647781D01*
X28789776Y22647071D01*
X28787340Y22647314D01*
X28784961Y22646597D01*
X28777484Y22645860D01*
X28763974Y22640264D01*
X28749985Y22636043D01*
X28746088Y22632856D01*
X28741436Y22630928D01*
X28731099Y22620592D01*
X28719787Y22611336D01*
X28717406Y22606899D01*
X28713846Y22603338D01*
X28708251Y22589833D01*
X28701342Y22576952D01*
X28699865Y22569588D01*
X28698914Y22567290D01*
X28698914Y22564840D01*
X28697489Y22557731D01*
X28649870Y22081541D01*
X28649841Y22061938D01*
X28039850Y22061938D01*
X28039850Y22309686D01*
X28037929Y22329195D01*
X28022997Y22365243D01*
X27995407Y22392833D01*
X27959359Y22407765D01*
X27920341Y22407765D01*
X27884293Y22392833D01*
X27856703Y22365243D01*
X27841771Y22329195D01*
X27839850Y22309686D01*
X27839850Y22028734D01*
X27558898Y22028734D01*
X27539389Y22026813D01*
X27503341Y22011881D01*
X27475751Y21984291D01*
X27460819Y21948243D01*
X27349708Y21948243D01*
X27349708Y22758892D01*
X30483509Y22758892D01*
X30483509Y21336670D01*
G37*
G36*
X30483509Y14336670D02*
G01*
X25921137Y14336670D01*
X25921137Y14948243D01*
X26032248Y14948243D01*
X26032248Y14909225D01*
X26047180Y14873177D01*
X26074770Y14845587D01*
X26110818Y14830655D01*
X26130327Y14828734D01*
X26411279Y14828734D01*
X26411279Y14547781D01*
X26413200Y14528272D01*
X26428132Y14492224D01*
X26455722Y14464634D01*
X26491770Y14449702D01*
X26530788Y14449702D01*
X26566836Y14464634D01*
X26594426Y14492224D01*
X26609358Y14528272D01*
X26611279Y14547781D01*
X26611279Y14828734D01*
X26892232Y14828734D01*
X26911741Y14830655D01*
X26947789Y14845587D01*
X26975379Y14873177D01*
X26990311Y14909225D01*
X26990311Y14948243D01*
X26975379Y14984291D01*
X26947789Y15011881D01*
X26911741Y15026813D01*
X26892232Y15028734D01*
X26611279Y15028734D01*
X26611279Y15309686D01*
X26609358Y15329195D01*
X26594426Y15365243D01*
X26566836Y15392833D01*
X26530788Y15407765D01*
X26491770Y15407765D01*
X26455722Y15392833D01*
X26428132Y15365243D01*
X26413200Y15329195D01*
X26411279Y15309686D01*
X26411279Y15028734D01*
X26130327Y15028734D01*
X26110818Y15026813D01*
X26074770Y15011881D01*
X26047180Y14984291D01*
X26032248Y14948243D01*
X25921137Y14948243D01*
X25921137Y15567290D01*
X27175105Y15567290D01*
X27175105Y15528272D01*
X27190037Y15492224D01*
X27217627Y15464634D01*
X27253675Y15449702D01*
X27273184Y15447781D01*
X27671854Y15447781D01*
X27483640Y15232679D01*
X27477610Y15224246D01*
X27475751Y15222386D01*
X27475020Y15220623D01*
X27472239Y15216732D01*
X27467034Y15201344D01*
X27460819Y15186338D01*
X27460819Y15182965D01*
X27459739Y15179771D01*
X27460819Y15163569D01*
X27460819Y15147320D01*
X27462109Y15144205D01*
X27462334Y15140839D01*
X27469534Y15126279D01*
X27475751Y15111272D01*
X27478135Y15108888D01*
X27479631Y15105864D01*
X27491856Y15095167D01*
X27503341Y15083682D01*
X27506455Y15082392D01*
X27508995Y15080170D01*
X27524383Y15074966D01*
X27539389Y15068750D01*
X27544148Y15068282D01*
X27545956Y15067670D01*
X27548580Y15067845D01*
X27558898Y15066829D01*
X27678148Y15066829D01*
X27737757Y15037024D01*
X27762426Y15012356D01*
X27792231Y14952746D01*
X27792231Y14761865D01*
X27762426Y14702257D01*
X27737757Y14677587D01*
X27678148Y14647781D01*
X27439648Y14647781D01*
X27380038Y14677586D01*
X27343895Y14713730D01*
X27328742Y14726167D01*
X27292694Y14741098D01*
X27253676Y14741099D01*
X27217627Y14726168D01*
X27190037Y14698578D01*
X27175106Y14662530D01*
X27175105Y14623512D01*
X27190036Y14587463D01*
X27202473Y14572310D01*
X27250091Y14524690D01*
X27257759Y14518397D01*
X27259491Y14516400D01*
X27262499Y14514507D01*
X27265245Y14512253D01*
X27267685Y14511243D01*
X27276082Y14505957D01*
X27371319Y14458338D01*
X27389628Y14451332D01*
X27393211Y14451078D01*
X27396532Y14449702D01*
X27416041Y14447781D01*
X27701755Y14447781D01*
X27721264Y14449702D01*
X27724584Y14451078D01*
X27728168Y14451332D01*
X27746476Y14458338D01*
X27841714Y14505957D01*
X27850109Y14511242D01*
X27852551Y14512253D01*
X27855298Y14514509D01*
X27858304Y14516400D01*
X27860034Y14518395D01*
X27867704Y14524690D01*
X27915323Y14572310D01*
X27921615Y14579977D01*
X27923612Y14581708D01*
X27925505Y14584716D01*
X27927760Y14587463D01*
X27928771Y14589905D01*
X27934055Y14598299D01*
X27942360Y14614909D01*
X28175105Y14614909D01*
X28175105Y14575891D01*
X28181568Y14560289D01*
X28190037Y14539842D01*
X28190041Y14539838D01*
X28202473Y14524689D01*
X28250092Y14477071D01*
X28265245Y14464634D01*
X28274248Y14460905D01*
X28301294Y14449702D01*
X28340312Y14449702D01*
X28376360Y14464634D01*
X28391514Y14477070D01*
X28439132Y14524689D01*
X28451569Y14539842D01*
X28458321Y14556144D01*
X28466500Y14575890D01*
X28466501Y14614908D01*
X28451570Y14650957D01*
X28439133Y14666110D01*
X28391514Y14713730D01*
X28376361Y14726167D01*
X28361429Y14732352D01*
X28340312Y14741099D01*
X28301294Y14741099D01*
X28290736Y14736726D01*
X28265246Y14726168D01*
X28265245Y14726167D01*
X28250091Y14713730D01*
X28202473Y14666110D01*
X28190036Y14650957D01*
X28180023Y14626781D01*
X28175105Y14614909D01*
X27942360Y14614909D01*
X27981674Y14693536D01*
X27988680Y14711845D01*
X27988934Y14715429D01*
X27990310Y14718749D01*
X27992231Y14738258D01*
X27992231Y14976353D01*
X27990310Y14995862D01*
X27988934Y14999183D01*
X27988680Y15002766D01*
X27981674Y15021075D01*
X27934055Y15116312D01*
X27928769Y15124709D01*
X27927759Y15127149D01*
X27925505Y15129895D01*
X27923612Y15132903D01*
X27921614Y15134636D01*
X27915322Y15142302D01*
X27867704Y15189921D01*
X27860033Y15196216D01*
X27858304Y15198210D01*
X27855296Y15200104D01*
X27852550Y15202357D01*
X27850110Y15203368D01*
X27841714Y15208653D01*
X27762866Y15248077D01*
X27967489Y15481931D01*
X27973518Y15490365D01*
X27975378Y15492224D01*
X27976108Y15493988D01*
X27978890Y15497878D01*
X27984094Y15513267D01*
X27990310Y15528272D01*
X27990310Y15531646D01*
X27991390Y15534839D01*
X27990310Y15551042D01*
X27990310Y15567290D01*
X28603676Y15567290D01*
X28603676Y15528272D01*
X28618608Y15492224D01*
X28646198Y15464634D01*
X28682246Y15449702D01*
X28701755Y15447781D01*
X29100425Y15447781D01*
X28912211Y15232679D01*
X28906181Y15224246D01*
X28904322Y15222386D01*
X28903591Y15220623D01*
X28900810Y15216732D01*
X28895605Y15201344D01*
X28889390Y15186338D01*
X28889390Y15182965D01*
X28888310Y15179771D01*
X28889390Y15163569D01*
X28889390Y15147320D01*
X28890680Y15144205D01*
X28890905Y15140839D01*
X28898105Y15126279D01*
X28904322Y15111272D01*
X28906706Y15108888D01*
X28908202Y15105864D01*
X28920427Y15095167D01*
X28931912Y15083682D01*
X28935026Y15082392D01*
X28937566Y15080170D01*
X28952954Y15074966D01*
X28967960Y15068750D01*
X28972719Y15068282D01*
X28974527Y15067670D01*
X28977151Y15067845D01*
X28987469Y15066829D01*
X29106719Y15066829D01*
X29166328Y15037024D01*
X29190997Y15012356D01*
X29220802Y14952746D01*
X29220802Y14761865D01*
X29190997Y14702257D01*
X29166328Y14677587D01*
X29106719Y14647781D01*
X28868219Y14647781D01*
X28808609Y14677586D01*
X28772466Y14713730D01*
X28757313Y14726167D01*
X28721265Y14741098D01*
X28682247Y14741099D01*
X28646198Y14726168D01*
X28618608Y14698578D01*
X28603677Y14662530D01*
X28603676Y14623512D01*
X28618607Y14587463D01*
X28631044Y14572310D01*
X28678662Y14524690D01*
X28686330Y14518397D01*
X28688062Y14516400D01*
X28691070Y14514507D01*
X28693816Y14512253D01*
X28696256Y14511243D01*
X28704653Y14505957D01*
X28799890Y14458338D01*
X28818199Y14451332D01*
X28821782Y14451078D01*
X28825103Y14449702D01*
X28844612Y14447781D01*
X29130326Y14447781D01*
X29149835Y14449702D01*
X29153155Y14451078D01*
X29156739Y14451332D01*
X29175047Y14458338D01*
X29270285Y14505957D01*
X29278680Y14511242D01*
X29281122Y14512253D01*
X29283869Y14514509D01*
X29286875Y14516400D01*
X29288605Y14518395D01*
X29296275Y14524690D01*
X29343894Y14572310D01*
X29350186Y14579977D01*
X29352183Y14581708D01*
X29354076Y14584716D01*
X29356331Y14587463D01*
X29357342Y14589905D01*
X29362626Y14598299D01*
X29410245Y14693536D01*
X29417251Y14711845D01*
X29417505Y14715429D01*
X29418881Y14718749D01*
X29420802Y14738258D01*
X29420802Y14976353D01*
X29418881Y14995862D01*
X29417505Y14999183D01*
X29417251Y15002766D01*
X29410245Y15021075D01*
X29362626Y15116312D01*
X29357340Y15124709D01*
X29356330Y15127149D01*
X29354076Y15129895D01*
X29352183Y15132903D01*
X29350185Y15134636D01*
X29343893Y15142302D01*
X29296275Y15189921D01*
X29288604Y15196216D01*
X29286875Y15198210D01*
X29283867Y15200104D01*
X29281121Y15202357D01*
X29278681Y15203368D01*
X29270285Y15208653D01*
X29191437Y15248077D01*
X29396060Y15481931D01*
X29402089Y15490365D01*
X29403949Y15492224D01*
X29404679Y15493988D01*
X29407461Y15497878D01*
X29412665Y15513267D01*
X29418881Y15528272D01*
X29418881Y15531646D01*
X29419961Y15534839D01*
X29419932Y15535274D01*
X29507302Y15535274D01*
X29511649Y15516158D01*
X29844982Y14516159D01*
X29852973Y14498258D01*
X29857656Y14492859D01*
X29860851Y14486469D01*
X29870322Y14478254D01*
X29878538Y14468782D01*
X29884926Y14465588D01*
X29890327Y14460904D01*
X29902228Y14456937D01*
X29913437Y14451333D01*
X29920561Y14450827D01*
X29927343Y14448566D01*
X29939852Y14449456D01*
X29952357Y14448566D01*
X29959135Y14450826D01*
X29966263Y14451332D01*
X29977479Y14456941D01*
X29989373Y14460905D01*
X29994770Y14465586D01*
X30001162Y14468782D01*
X30009380Y14478258D01*
X30018849Y14486470D01*
X30022042Y14492857D01*
X30026727Y14498258D01*
X30034718Y14516158D01*
X30368051Y15516158D01*
X30372398Y15535273D01*
X30369632Y15574193D01*
X30352182Y15609092D01*
X30322706Y15634657D01*
X30285690Y15646996D01*
X30246770Y15644229D01*
X30211871Y15626780D01*
X30186306Y15597304D01*
X30178315Y15579403D01*
X29939850Y14864009D01*
X29701385Y15579404D01*
X29693394Y15597304D01*
X29667829Y15626780D01*
X29632930Y15644230D01*
X29594010Y15646996D01*
X29556994Y15634658D01*
X29527518Y15609093D01*
X29510068Y15574194D01*
X29507302Y15535274D01*
X29419932Y15535274D01*
X29418881Y15551042D01*
X29418881Y15567290D01*
X29417590Y15570406D01*
X29417366Y15573771D01*
X29410163Y15588337D01*
X29403949Y15603338D01*
X29401565Y15605722D01*
X29400070Y15608746D01*
X29387836Y15619451D01*
X29376359Y15630928D01*
X29373245Y15632218D01*
X29370706Y15634440D01*
X29355314Y15639646D01*
X29340311Y15645860D01*
X29335551Y15646329D01*
X29333744Y15646940D01*
X29331119Y15646766D01*
X29320802Y15647781D01*
X28701755Y15647781D01*
X28682246Y15645860D01*
X28646198Y15630928D01*
X28618608Y15603338D01*
X28603676Y15567290D01*
X27990310Y15567290D01*
X27989019Y15570406D01*
X27988795Y15573771D01*
X27981592Y15588337D01*
X27975378Y15603338D01*
X27972994Y15605722D01*
X27971499Y15608746D01*
X27959265Y15619451D01*
X27947788Y15630928D01*
X27944674Y15632218D01*
X27942135Y15634440D01*
X27926743Y15639646D01*
X27911740Y15645860D01*
X27906980Y15646329D01*
X27905173Y15646940D01*
X27902548Y15646766D01*
X27892231Y15647781D01*
X27273184Y15647781D01*
X27253675Y15645860D01*
X27217627Y15630928D01*
X27190037Y15603338D01*
X27175105Y15567290D01*
X25921137Y15567290D01*
X25921137Y15758892D01*
X30483509Y15758892D01*
X30483509Y14336670D01*
G37*
G36*
X-25516491Y26836670D02*
G01*
X-28650292Y26836670D01*
X-28650292Y27448243D01*
X-28539181Y27448243D01*
X-28539181Y27409225D01*
X-28524249Y27373177D01*
X-28496659Y27345587D01*
X-28460611Y27330655D01*
X-28441102Y27328734D01*
X-28160150Y27328734D01*
X-28160150Y27047781D01*
X-28158229Y27028272D01*
X-28143297Y26992224D01*
X-28115707Y26964634D01*
X-28079659Y26949702D01*
X-28040641Y26949702D01*
X-28004593Y26964634D01*
X-27977003Y26992224D01*
X-27962071Y27028272D01*
X-27960150Y27047781D01*
X-27960150Y27328734D01*
X-27679197Y27328734D01*
X-27659688Y27330655D01*
X-27623640Y27345587D01*
X-27596050Y27373177D01*
X-27581118Y27409225D01*
X-27581118Y27448243D01*
X-27596050Y27484291D01*
X-27623640Y27511881D01*
X-27659688Y27526813D01*
X-27679197Y27528734D01*
X-27960150Y27528734D01*
X-27960150Y27561938D01*
X-27350159Y27561938D01*
X-27348705Y27557120D01*
X-27348705Y27552082D01*
X-27343109Y27538573D01*
X-27338888Y27524583D01*
X-27335701Y27520687D01*
X-27333773Y27516034D01*
X-27323437Y27505698D01*
X-27314181Y27494385D01*
X-27309744Y27492005D01*
X-27306183Y27488444D01*
X-27292678Y27482850D01*
X-27279797Y27475940D01*
X-27274788Y27475440D01*
X-27270135Y27473512D01*
X-27255514Y27473512D01*
X-27240973Y27472058D01*
X-27236154Y27473512D01*
X-27231117Y27473512D01*
X-27217608Y27479109D01*
X-27203618Y27483329D01*
X-27199722Y27486517D01*
X-27195069Y27488444D01*
X-27179915Y27500880D01*
X-27143772Y27537025D01*
X-27084162Y27566829D01*
X-26893281Y27566829D01*
X-26833672Y27537024D01*
X-26809003Y27512356D01*
X-26779198Y27452746D01*
X-26779198Y27261865D01*
X-26809003Y27202257D01*
X-26833672Y27177587D01*
X-26893281Y27147781D01*
X-27084162Y27147781D01*
X-27143772Y27177586D01*
X-27179915Y27213730D01*
X-27195068Y27226167D01*
X-27231116Y27241098D01*
X-27270134Y27241099D01*
X-27306183Y27226168D01*
X-27333773Y27198578D01*
X-27348704Y27162530D01*
X-27348705Y27123512D01*
X-27333774Y27087463D01*
X-27321337Y27072310D01*
X-27273719Y27024690D01*
X-27266051Y27018397D01*
X-27264319Y27016400D01*
X-27261311Y27014507D01*
X-27258565Y27012253D01*
X-27256125Y27011243D01*
X-27247728Y27005957D01*
X-27152491Y26958338D01*
X-27134182Y26951332D01*
X-27130599Y26951078D01*
X-27127278Y26949702D01*
X-27107769Y26947781D01*
X-26869674Y26947781D01*
X-26850165Y26949702D01*
X-26846845Y26951078D01*
X-26843261Y26951332D01*
X-26824953Y26958338D01*
X-26729715Y27005957D01*
X-26721320Y27011242D01*
X-26718878Y27012253D01*
X-26716131Y27014509D01*
X-26713125Y27016400D01*
X-26711395Y27018395D01*
X-26703725Y27024690D01*
X-26656106Y27072310D01*
X-26649814Y27079977D01*
X-26647817Y27081708D01*
X-26645924Y27084716D01*
X-26643669Y27087463D01*
X-26642658Y27089905D01*
X-26637374Y27098299D01*
X-26589755Y27193536D01*
X-26582749Y27211845D01*
X-26582495Y27215429D01*
X-26581119Y27218749D01*
X-26579198Y27238258D01*
X-26579198Y27476353D01*
X-26581119Y27495862D01*
X-26582495Y27499183D01*
X-26582749Y27502766D01*
X-26589755Y27521075D01*
X-26637374Y27616312D01*
X-26642660Y27624709D01*
X-26643670Y27627149D01*
X-26645924Y27629895D01*
X-26647817Y27632903D01*
X-26649815Y27634636D01*
X-26656107Y27642302D01*
X-26703725Y27689921D01*
X-26711396Y27696216D01*
X-26713125Y27698210D01*
X-26716133Y27700104D01*
X-26718879Y27702357D01*
X-26721319Y27703368D01*
X-26729715Y27708653D01*
X-26824953Y27756272D01*
X-26843261Y27763278D01*
X-26846845Y27763533D01*
X-26850165Y27764908D01*
X-26869674Y27766829D01*
X-27107769Y27766829D01*
X-27127278Y27764908D01*
X-27130599Y27763533D01*
X-27130936Y27763509D01*
X-27112508Y27947781D01*
X-26726817Y27947781D01*
X-26707308Y27949702D01*
X-26671260Y27964634D01*
X-26643670Y27992224D01*
X-26628738Y28028272D01*
X-26628738Y28035274D01*
X-26492698Y28035274D01*
X-26488351Y28016158D01*
X-26155018Y27016159D01*
X-26147027Y26998258D01*
X-26142344Y26992859D01*
X-26139149Y26986469D01*
X-26129678Y26978254D01*
X-26121462Y26968782D01*
X-26115074Y26965588D01*
X-26109673Y26960904D01*
X-26097772Y26956937D01*
X-26086563Y26951333D01*
X-26079439Y26950827D01*
X-26072657Y26948566D01*
X-26060148Y26949456D01*
X-26047643Y26948566D01*
X-26040865Y26950826D01*
X-26033737Y26951332D01*
X-26022521Y26956941D01*
X-26010627Y26960905D01*
X-26005230Y26965586D01*
X-25998838Y26968782D01*
X-25990620Y26978258D01*
X-25981151Y26986470D01*
X-25977958Y26992857D01*
X-25973273Y26998258D01*
X-25965282Y27016158D01*
X-25631949Y28016158D01*
X-25627602Y28035273D01*
X-25630368Y28074193D01*
X-25647818Y28109092D01*
X-25677294Y28134657D01*
X-25714310Y28146996D01*
X-25753230Y28144229D01*
X-25788129Y28126780D01*
X-25813694Y28097304D01*
X-25821685Y28079403D01*
X-26060150Y27364009D01*
X-26298615Y28079404D01*
X-26306606Y28097304D01*
X-26332171Y28126780D01*
X-26367070Y28144230D01*
X-26405990Y28146996D01*
X-26443006Y28134658D01*
X-26472482Y28109093D01*
X-26489932Y28074194D01*
X-26492698Y28035274D01*
X-26628738Y28035274D01*
X-26628738Y28067290D01*
X-26643670Y28103338D01*
X-26671260Y28130928D01*
X-26707308Y28145860D01*
X-26726817Y28147781D01*
X-27203007Y28147781D01*
X-27210224Y28147071D01*
X-27212660Y28147314D01*
X-27215039Y28146597D01*
X-27222516Y28145860D01*
X-27236026Y28140264D01*
X-27250015Y28136043D01*
X-27253912Y28132856D01*
X-27258564Y28130928D01*
X-27268901Y28120592D01*
X-27280213Y28111336D01*
X-27282594Y28106899D01*
X-27286154Y28103338D01*
X-27291749Y28089833D01*
X-27298658Y28076952D01*
X-27300135Y28069588D01*
X-27301086Y28067290D01*
X-27301086Y28064840D01*
X-27302511Y28057731D01*
X-27350130Y27581541D01*
X-27350159Y27561938D01*
X-27960150Y27561938D01*
X-27960150Y27809686D01*
X-27962071Y27829195D01*
X-27977003Y27865243D01*
X-28004593Y27892833D01*
X-28040641Y27907765D01*
X-28079659Y27907765D01*
X-28115707Y27892833D01*
X-28143297Y27865243D01*
X-28158229Y27829195D01*
X-28160150Y27809686D01*
X-28160150Y27528734D01*
X-28441102Y27528734D01*
X-28460611Y27526813D01*
X-28496659Y27511881D01*
X-28524249Y27484291D01*
X-28539181Y27448243D01*
X-28650292Y27448243D01*
X-28650292Y28258892D01*
X-25516491Y28258892D01*
X-25516491Y26836670D01*
G37*
G36*
X21702668Y-40582024D02*
G01*
X21727337Y-40606692D01*
X21757142Y-40666302D01*
X21757142Y-40761945D01*
X21727337Y-40821554D01*
X21702668Y-40846222D01*
X21643059Y-40876028D01*
X21385714Y-40876028D01*
X21385714Y-40552219D01*
X21643059Y-40552219D01*
X21702668Y-40582024D01*
G37*
G36*
X22971094Y-41663330D02*
G01*
X21074603Y-41663330D01*
X21074603Y-40452219D01*
X21185714Y-40452219D01*
X21185714Y-41452219D01*
X21187635Y-41471728D01*
X21202567Y-41507776D01*
X21230157Y-41535366D01*
X21266205Y-41550298D01*
X21305223Y-41550298D01*
X21341271Y-41535366D01*
X21368861Y-41507776D01*
X21383793Y-41471728D01*
X21385714Y-41452219D01*
X21385714Y-41076028D01*
X21666666Y-41076028D01*
X21686175Y-41074107D01*
X21689495Y-41072731D01*
X21693079Y-41072477D01*
X21711387Y-41065471D01*
X21806625Y-41017852D01*
X21815021Y-41012566D01*
X21817461Y-41011556D01*
X21820207Y-41009302D01*
X21823215Y-41007409D01*
X21824944Y-41005414D01*
X21832615Y-40999120D01*
X21880233Y-40951501D01*
X21886525Y-40943834D01*
X21888523Y-40942102D01*
X21890416Y-40939093D01*
X21892670Y-40936348D01*
X21893680Y-40933907D01*
X21898966Y-40925511D01*
X21946585Y-40830274D01*
X21953591Y-40811965D01*
X21953845Y-40808381D01*
X21955221Y-40805061D01*
X21957142Y-40785552D01*
X21957142Y-40642695D01*
X21955221Y-40623186D01*
X21953845Y-40619865D01*
X21953591Y-40616282D01*
X21946585Y-40597973D01*
X21898966Y-40502736D01*
X21893680Y-40494339D01*
X21892670Y-40491899D01*
X21890416Y-40489153D01*
X21888523Y-40486145D01*
X21886525Y-40484412D01*
X21880233Y-40476746D01*
X21855707Y-40452219D01*
X22185714Y-40452219D01*
X22185714Y-41452219D01*
X22187635Y-41471728D01*
X22202567Y-41507776D01*
X22230157Y-41535366D01*
X22266205Y-41550298D01*
X22285714Y-41552219D01*
X22761904Y-41552219D01*
X22781413Y-41550298D01*
X22817461Y-41535366D01*
X22845051Y-41507776D01*
X22859983Y-41471728D01*
X22859983Y-41432710D01*
X22845051Y-41396662D01*
X22817461Y-41369072D01*
X22781413Y-41354140D01*
X22761904Y-41352219D01*
X22385714Y-41352219D01*
X22385714Y-41028409D01*
X22619047Y-41028409D01*
X22638556Y-41026488D01*
X22674604Y-41011556D01*
X22702194Y-40983966D01*
X22717126Y-40947918D01*
X22717126Y-40908900D01*
X22702194Y-40872852D01*
X22674604Y-40845262D01*
X22638556Y-40830330D01*
X22619047Y-40828409D01*
X22385714Y-40828409D01*
X22385714Y-40552219D01*
X22761904Y-40552219D01*
X22781413Y-40550298D01*
X22817461Y-40535366D01*
X22845051Y-40507776D01*
X22859983Y-40471728D01*
X22859983Y-40432710D01*
X22845051Y-40396662D01*
X22817461Y-40369072D01*
X22781413Y-40354140D01*
X22761904Y-40352219D01*
X22285714Y-40352219D01*
X22266205Y-40354140D01*
X22230157Y-40369072D01*
X22202567Y-40396662D01*
X22187635Y-40432710D01*
X22185714Y-40452219D01*
X21855707Y-40452219D01*
X21832615Y-40429127D01*
X21824944Y-40422832D01*
X21823215Y-40420838D01*
X21820207Y-40418944D01*
X21817461Y-40416691D01*
X21815021Y-40415680D01*
X21806625Y-40410395D01*
X21711387Y-40362776D01*
X21693079Y-40355770D01*
X21689495Y-40355515D01*
X21686175Y-40354140D01*
X21666666Y-40352219D01*
X21285714Y-40352219D01*
X21266205Y-40354140D01*
X21230157Y-40369072D01*
X21202567Y-40396662D01*
X21187635Y-40432710D01*
X21185714Y-40452219D01*
X21074603Y-40452219D01*
X21074603Y-40241108D01*
X22971094Y-40241108D01*
X22971094Y-41663330D01*
G37*
G36*
X30341437Y10838591D02*
G01*
X29252549Y10838591D01*
X29252549Y12047781D01*
X29363660Y12047781D01*
X29363660Y11047781D01*
X29365581Y11028272D01*
X29380513Y10992224D01*
X29408103Y10964634D01*
X29444151Y10949702D01*
X29483169Y10949702D01*
X29519217Y10964634D01*
X29546807Y10992224D01*
X29561739Y11028272D01*
X29563660Y11047781D01*
X29563660Y11597025D01*
X29706375Y11291207D01*
X29710607Y11284062D01*
X29711487Y11281644D01*
X29713052Y11279935D01*
X29716366Y11274341D01*
X29727576Y11264075D01*
X29737838Y11252869D01*
X29741863Y11250991D01*
X29745141Y11247989D01*
X29759423Y11242796D01*
X29773196Y11236368D01*
X29777635Y11236173D01*
X29781810Y11234655D01*
X29796993Y11235323D01*
X29812176Y11234655D01*
X29816349Y11236173D01*
X29820791Y11236368D01*
X29834575Y11242801D01*
X29848845Y11247990D01*
X29852118Y11250988D01*
X29856148Y11252868D01*
X29866417Y11264083D01*
X29877620Y11274341D01*
X29880931Y11279932D01*
X29882500Y11281644D01*
X29883380Y11284066D01*
X29887611Y11291207D01*
X30030326Y11597026D01*
X30030326Y11047781D01*
X30032247Y11028272D01*
X30047179Y10992224D01*
X30074769Y10964634D01*
X30110817Y10949702D01*
X30149835Y10949702D01*
X30185883Y10964634D01*
X30213473Y10992224D01*
X30228405Y11028272D01*
X30230326Y11047781D01*
X30230326Y12047781D01*
X30229063Y12060605D01*
X30229167Y12062964D01*
X30228706Y12064232D01*
X30228405Y12067290D01*
X30221764Y12083321D01*
X30215833Y12099633D01*
X30214326Y12101279D01*
X30213473Y12103338D01*
X30201211Y12115600D01*
X30189481Y12128409D01*
X30187457Y12129354D01*
X30185883Y12130928D01*
X30169867Y12137563D01*
X30154124Y12144909D01*
X30151894Y12145007D01*
X30149835Y12145860D01*
X30132483Y12145860D01*
X30115143Y12146622D01*
X30113047Y12145860D01*
X30110817Y12145860D01*
X30094786Y12139220D01*
X30078474Y12133288D01*
X30076828Y12131782D01*
X30074769Y12130928D01*
X30062501Y12118661D01*
X30049699Y12106936D01*
X30048132Y12104292D01*
X30047179Y12103338D01*
X30046275Y12101157D01*
X30039708Y12090070D01*
X29796992Y11569967D01*
X29554278Y12090070D01*
X29547710Y12101157D01*
X29546807Y12103338D01*
X29545853Y12104292D01*
X29544287Y12106936D01*
X29531490Y12118655D01*
X29519217Y12130928D01*
X29517155Y12131782D01*
X29515512Y12133287D01*
X29499210Y12139216D01*
X29483169Y12145860D01*
X29480938Y12145860D01*
X29478843Y12146622D01*
X29461503Y12145860D01*
X29444151Y12145860D01*
X29442091Y12145007D01*
X29439863Y12144909D01*
X29424132Y12137568D01*
X29408103Y12130928D01*
X29406526Y12129352D01*
X29404505Y12128408D01*
X29392786Y12115612D01*
X29380513Y12103338D01*
X29379659Y12101277D01*
X29378154Y12099633D01*
X29372225Y12083332D01*
X29365581Y12067290D01*
X29365279Y12064232D01*
X29364819Y12062964D01*
X29364922Y12060605D01*
X29363660Y12047781D01*
X29252549Y12047781D01*
X29252549Y12257733D01*
X30341437Y12257733D01*
X30341437Y10838591D01*
G37*
G36*
X-16344952Y-34484070D02*
G01*
X-16310758Y-34518263D01*
X-16271429Y-34596921D01*
X-16271429Y-34721134D01*
X-16310758Y-34799792D01*
X-16344952Y-34833985D01*
X-16423608Y-34873314D01*
X-16757143Y-34873314D01*
X-16757143Y-34444742D01*
X-16423608Y-34444742D01*
X-16344952Y-34484070D01*
G37*
G36*
X-14854303Y-35778075D02*
G01*
X-17090476Y-35778075D01*
X-17090476Y-34344742D01*
X-16957143Y-34344742D01*
X-16957143Y-35544742D01*
X-16955222Y-35564251D01*
X-16940290Y-35600299D01*
X-16912700Y-35627889D01*
X-16876652Y-35642821D01*
X-16837634Y-35642821D01*
X-16801586Y-35627889D01*
X-16773996Y-35600299D01*
X-16759064Y-35564251D01*
X-16757143Y-35544742D01*
X-16757143Y-35073314D01*
X-16400000Y-35073314D01*
X-16380491Y-35071393D01*
X-16377171Y-35070017D01*
X-16373587Y-35069763D01*
X-16355278Y-35062757D01*
X-16240993Y-35005613D01*
X-16232597Y-35000328D01*
X-16230158Y-34999318D01*
X-16227415Y-34997066D01*
X-16224403Y-34995171D01*
X-16222671Y-34993173D01*
X-16215004Y-34986882D01*
X-16157862Y-34929739D01*
X-16151570Y-34922072D01*
X-16149572Y-34920340D01*
X-16147679Y-34917331D01*
X-16145425Y-34914586D01*
X-16144415Y-34912145D01*
X-16139129Y-34903749D01*
X-16081986Y-34789463D01*
X-16074980Y-34771155D01*
X-16074726Y-34767571D01*
X-16073350Y-34764251D01*
X-16071429Y-34744742D01*
X-16071429Y-34573314D01*
X-16073350Y-34553805D01*
X-16074726Y-34550484D01*
X-16074980Y-34546901D01*
X-16081986Y-34528593D01*
X-16139129Y-34414307D01*
X-16144415Y-34405910D01*
X-16145425Y-34403470D01*
X-16147679Y-34400724D01*
X-16149572Y-34397716D01*
X-16151570Y-34395983D01*
X-16157862Y-34388317D01*
X-16201436Y-34344742D01*
X-15757143Y-34344742D01*
X-15757143Y-35544742D01*
X-15755222Y-35564251D01*
X-15740290Y-35600299D01*
X-15712700Y-35627889D01*
X-15676652Y-35642821D01*
X-15657143Y-35644742D01*
X-15085715Y-35644742D01*
X-15066206Y-35642821D01*
X-15030158Y-35627889D01*
X-15002568Y-35600299D01*
X-14987636Y-35564251D01*
X-14987636Y-35525233D01*
X-15002568Y-35489185D01*
X-15030158Y-35461595D01*
X-15066206Y-35446663D01*
X-15085715Y-35444742D01*
X-15557143Y-35444742D01*
X-15557143Y-35016171D01*
X-15257143Y-35016171D01*
X-15237634Y-35014250D01*
X-15201586Y-34999318D01*
X-15173996Y-34971728D01*
X-15159064Y-34935680D01*
X-15159064Y-34896662D01*
X-15173996Y-34860614D01*
X-15201586Y-34833024D01*
X-15237634Y-34818092D01*
X-15257143Y-34816171D01*
X-15557143Y-34816171D01*
X-15557143Y-34444742D01*
X-15085715Y-34444742D01*
X-15066206Y-34442821D01*
X-15030158Y-34427889D01*
X-15002568Y-34400299D01*
X-14987636Y-34364251D01*
X-14987636Y-34325233D01*
X-15002568Y-34289185D01*
X-15030158Y-34261595D01*
X-15066206Y-34246663D01*
X-15085715Y-34244742D01*
X-15657143Y-34244742D01*
X-15676652Y-34246663D01*
X-15712700Y-34261595D01*
X-15740290Y-34289185D01*
X-15755222Y-34325233D01*
X-15757143Y-34344742D01*
X-16201436Y-34344742D01*
X-16215004Y-34331174D01*
X-16222671Y-34324882D01*
X-16224403Y-34322885D01*
X-16227415Y-34320989D01*
X-16230158Y-34318738D01*
X-16232597Y-34317727D01*
X-16240993Y-34312443D01*
X-16355278Y-34255299D01*
X-16373587Y-34248293D01*
X-16377171Y-34248038D01*
X-16380491Y-34246663D01*
X-16400000Y-34244742D01*
X-16857143Y-34244742D01*
X-16876652Y-34246663D01*
X-16912700Y-34261595D01*
X-16940290Y-34289185D01*
X-16955222Y-34325233D01*
X-16957143Y-34344742D01*
X-17090476Y-34344742D01*
X-17090476Y-34111409D01*
X-14854303Y-34111409D01*
X-14854303Y-35778075D01*
G37*
D11*
X7209580Y32833334D02*
X7257200Y32785715D01*
X7257200Y32785715D02*
X7304819Y32642858D01*
X7304819Y32642858D02*
X7304819Y32547620D01*
X7304819Y32547620D02*
X7257200Y32404763D01*
X7257200Y32404763D02*
X7161961Y32309525D01*
X7161961Y32309525D02*
X7066723Y32261906D01*
X7066723Y32261906D02*
X6876247Y32214287D01*
X6876247Y32214287D02*
X6733390Y32214287D01*
X6733390Y32214287D02*
X6542914Y32261906D01*
X6542914Y32261906D02*
X6447676Y32309525D01*
X6447676Y32309525D02*
X6352438Y32404763D01*
X6352438Y32404763D02*
X6304819Y32547620D01*
X6304819Y32547620D02*
X6304819Y32642858D01*
X6304819Y32642858D02*
X6352438Y32785715D01*
X6352438Y32785715D02*
X6400057Y32833334D01*
X6304819Y33166668D02*
X6304819Y33833334D01*
X6304819Y33833334D02*
X7304819Y33404763D01*
D12*
X-34073333Y-10304318D02*
X-34073333Y-11211461D01*
X-34073333Y-11211461D02*
X-34133810Y-11392889D01*
X-34133810Y-11392889D02*
X-34254762Y-11513842D01*
X-34254762Y-11513842D02*
X-34436191Y-11574318D01*
X-34436191Y-11574318D02*
X-34557143Y-11574318D01*
X-33589524Y-10304318D02*
X-32803333Y-10304318D01*
X-32803333Y-10304318D02*
X-33226667Y-10788127D01*
X-33226667Y-10788127D02*
X-33045238Y-10788127D01*
X-33045238Y-10788127D02*
X-32924286Y-10848603D01*
X-32924286Y-10848603D02*
X-32863810Y-10909080D01*
X-32863810Y-10909080D02*
X-32803333Y-11030032D01*
X-32803333Y-11030032D02*
X-32803333Y-11332413D01*
X-32803333Y-11332413D02*
X-32863810Y-11453365D01*
X-32863810Y-11453365D02*
X-32924286Y-11513842D01*
X-32924286Y-11513842D02*
X-33045238Y-11574318D01*
X-33045238Y-11574318D02*
X-33408095Y-11574318D01*
X-33408095Y-11574318D02*
X-33529048Y-11513842D01*
X-33529048Y-11513842D02*
X-33589524Y-11453365D01*
D11*
X-5140420Y32833334D02*
X-5092800Y32785715D01*
X-5092800Y32785715D02*
X-5045181Y32642858D01*
X-5045181Y32642858D02*
X-5045181Y32547620D01*
X-5045181Y32547620D02*
X-5092800Y32404763D01*
X-5092800Y32404763D02*
X-5188039Y32309525D01*
X-5188039Y32309525D02*
X-5283277Y32261906D01*
X-5283277Y32261906D02*
X-5473753Y32214287D01*
X-5473753Y32214287D02*
X-5616610Y32214287D01*
X-5616610Y32214287D02*
X-5807086Y32261906D01*
X-5807086Y32261906D02*
X-5902324Y32309525D01*
X-5902324Y32309525D02*
X-5997562Y32404763D01*
X-5997562Y32404763D02*
X-6045181Y32547620D01*
X-6045181Y32547620D02*
X-6045181Y32642858D01*
X-6045181Y32642858D02*
X-5997562Y32785715D01*
X-5997562Y32785715D02*
X-5949943Y32833334D01*
X-6045181Y33738096D02*
X-6045181Y33261906D01*
X-6045181Y33261906D02*
X-5568991Y33214287D01*
X-5568991Y33214287D02*
X-5616610Y33261906D01*
X-5616610Y33261906D02*
X-5664229Y33357144D01*
X-5664229Y33357144D02*
X-5664229Y33595239D01*
X-5664229Y33595239D02*
X-5616610Y33690477D01*
X-5616610Y33690477D02*
X-5568991Y33738096D01*
X-5568991Y33738096D02*
X-5473753Y33785715D01*
X-5473753Y33785715D02*
X-5235658Y33785715D01*
X-5235658Y33785715D02*
X-5140420Y33738096D01*
X-5140420Y33738096D02*
X-5092800Y33690477D01*
X-5092800Y33690477D02*
X-5045181Y33595239D01*
X-5045181Y33595239D02*
X-5045181Y33357144D01*
X-5045181Y33357144D02*
X-5092800Y33261906D01*
X-5092800Y33261906D02*
X-5140420Y33214287D01*
X11045180Y2261905D02*
X10235657Y2261905D01*
X10235657Y2261905D02*
X10140419Y2214286D01*
X10140419Y2214286D02*
X10092800Y2166667D01*
X10092800Y2166667D02*
X10045180Y2071429D01*
X10045180Y2071429D02*
X10045180Y1880953D01*
X10045180Y1880953D02*
X10092800Y1785715D01*
X10092800Y1785715D02*
X10140419Y1738096D01*
X10140419Y1738096D02*
X10235657Y1690477D01*
X10235657Y1690477D02*
X11045180Y1690477D01*
X10045180Y690477D02*
X10045180Y1261905D01*
X10045180Y976191D02*
X11045180Y976191D01*
X11045180Y976191D02*
X10902323Y1071429D01*
X10902323Y1071429D02*
X10807085Y1166667D01*
X10807085Y1166667D02*
X10759466Y1261905D01*
X11345179Y24000012D02*
X11107084Y24000012D01*
X11202322Y24238107D02*
X11107084Y24000012D01*
X11107084Y24000012D02*
X11202322Y23761917D01*
X10916608Y24142869D02*
X11107084Y24000012D01*
X11107084Y24000012D02*
X10916608Y23857155D01*
D13*
X-11809524Y-26457419D02*
X-11809524Y-27171704D01*
X-11809524Y-27171704D02*
X-11857143Y-27314561D01*
X-11857143Y-27314561D02*
X-11952381Y-27409800D01*
X-11952381Y-27409800D02*
X-12095238Y-27457419D01*
X-12095238Y-27457419D02*
X-12190476Y-27457419D01*
X-10809524Y-27457419D02*
X-11380952Y-27457419D01*
X-11095238Y-27457419D02*
X-11095238Y-26457419D01*
X-11095238Y-26457419D02*
X-11190476Y-26600276D01*
X-11190476Y-26600276D02*
X-11285714Y-26695514D01*
X-11285714Y-26695514D02*
X-11380952Y-26743133D01*
X-10428571Y-26552657D02*
X-10380952Y-26505038D01*
X-10380952Y-26505038D02*
X-10285714Y-26457419D01*
X-10285714Y-26457419D02*
X-10047619Y-26457419D01*
X-10047619Y-26457419D02*
X-9952381Y-26505038D01*
X-9952381Y-26505038D02*
X-9904762Y-26552657D01*
X-9904762Y-26552657D02*
X-9857143Y-26647895D01*
X-9857143Y-26647895D02*
X-9857143Y-26743133D01*
X-9857143Y-26743133D02*
X-9904762Y-26885990D01*
X-9904762Y-26885990D02*
X-10476190Y-27457419D01*
X-10476190Y-27457419D02*
X-9857143Y-27457419D01*
X31190476Y-42457419D02*
X31190476Y-43171704D01*
X31190476Y-43171704D02*
X31142857Y-43314561D01*
X31142857Y-43314561D02*
X31047619Y-43409800D01*
X31047619Y-43409800D02*
X30904762Y-43457419D01*
X30904762Y-43457419D02*
X30809524Y-43457419D01*
X32190476Y-43457419D02*
X31619048Y-43457419D01*
X31904762Y-43457419D02*
X31904762Y-42457419D01*
X31904762Y-42457419D02*
X31809524Y-42600276D01*
X31809524Y-42600276D02*
X31714286Y-42695514D01*
X31714286Y-42695514D02*
X31619048Y-42743133D01*
X32809524Y-42457419D02*
X32904762Y-42457419D01*
X32904762Y-42457419D02*
X33000000Y-42505038D01*
X33000000Y-42505038D02*
X33047619Y-42552657D01*
X33047619Y-42552657D02*
X33095238Y-42647895D01*
X33095238Y-42647895D02*
X33142857Y-42838371D01*
X33142857Y-42838371D02*
X33142857Y-43076466D01*
X33142857Y-43076466D02*
X33095238Y-43266942D01*
X33095238Y-43266942D02*
X33047619Y-43362180D01*
X33047619Y-43362180D02*
X33000000Y-43409800D01*
X33000000Y-43409800D02*
X32904762Y-43457419D01*
X32904762Y-43457419D02*
X32809524Y-43457419D01*
X32809524Y-43457419D02*
X32714286Y-43409800D01*
X32714286Y-43409800D02*
X32666667Y-43362180D01*
X32666667Y-43362180D02*
X32619048Y-43266942D01*
X32619048Y-43266942D02*
X32571429Y-43076466D01*
X32571429Y-43076466D02*
X32571429Y-42838371D01*
X32571429Y-42838371D02*
X32619048Y-42647895D01*
X32619048Y-42647895D02*
X32666667Y-42552657D01*
X32666667Y-42552657D02*
X32714286Y-42505038D01*
X32714286Y-42505038D02*
X32809524Y-42457419D01*
D11*
X-24166667Y-18709580D02*
X-24214286Y-18757200D01*
X-24214286Y-18757200D02*
X-24357143Y-18804819D01*
X-24357143Y-18804819D02*
X-24452381Y-18804819D01*
X-24452381Y-18804819D02*
X-24595238Y-18757200D01*
X-24595238Y-18757200D02*
X-24690476Y-18661961D01*
X-24690476Y-18661961D02*
X-24738095Y-18566723D01*
X-24738095Y-18566723D02*
X-24785714Y-18376247D01*
X-24785714Y-18376247D02*
X-24785714Y-18233390D01*
X-24785714Y-18233390D02*
X-24738095Y-18042914D01*
X-24738095Y-18042914D02*
X-24690476Y-17947676D01*
X-24690476Y-17947676D02*
X-24595238Y-17852438D01*
X-24595238Y-17852438D02*
X-24452381Y-17804819D01*
X-24452381Y-17804819D02*
X-24357143Y-17804819D01*
X-24357143Y-17804819D02*
X-24214286Y-17852438D01*
X-24214286Y-17852438D02*
X-24166667Y-17900057D01*
X-23833333Y-17804819D02*
X-23214286Y-17804819D01*
X-23214286Y-17804819D02*
X-23547619Y-18185771D01*
X-23547619Y-18185771D02*
X-23404762Y-18185771D01*
X-23404762Y-18185771D02*
X-23309524Y-18233390D01*
X-23309524Y-18233390D02*
X-23261905Y-18281009D01*
X-23261905Y-18281009D02*
X-23214286Y-18376247D01*
X-23214286Y-18376247D02*
X-23214286Y-18614342D01*
X-23214286Y-18614342D02*
X-23261905Y-18709580D01*
X-23261905Y-18709580D02*
X-23309524Y-18757200D01*
X-23309524Y-18757200D02*
X-23404762Y-18804819D01*
X-23404762Y-18804819D02*
X-23690476Y-18804819D01*
X-23690476Y-18804819D02*
X-23785714Y-18757200D01*
X-23785714Y-18757200D02*
X-23833333Y-18709580D01*
X-24166667Y2490420D02*
X-24214286Y2442800D01*
X-24214286Y2442800D02*
X-24357143Y2395181D01*
X-24357143Y2395181D02*
X-24452381Y2395181D01*
X-24452381Y2395181D02*
X-24595238Y2442800D01*
X-24595238Y2442800D02*
X-24690476Y2538039D01*
X-24690476Y2538039D02*
X-24738095Y2633277D01*
X-24738095Y2633277D02*
X-24785714Y2823753D01*
X-24785714Y2823753D02*
X-24785714Y2966610D01*
X-24785714Y2966610D02*
X-24738095Y3157086D01*
X-24738095Y3157086D02*
X-24690476Y3252324D01*
X-24690476Y3252324D02*
X-24595238Y3347562D01*
X-24595238Y3347562D02*
X-24452381Y3395181D01*
X-24452381Y3395181D02*
X-24357143Y3395181D01*
X-24357143Y3395181D02*
X-24214286Y3347562D01*
X-24214286Y3347562D02*
X-24166667Y3299943D01*
X-23309524Y3061848D02*
X-23309524Y2395181D01*
X-23547619Y3442800D02*
X-23785714Y2728515D01*
X-23785714Y2728515D02*
X-23166667Y2728515D01*
X16709580Y-18166666D02*
X16757200Y-18214285D01*
X16757200Y-18214285D02*
X16804819Y-18357142D01*
X16804819Y-18357142D02*
X16804819Y-18452380D01*
X16804819Y-18452380D02*
X16757200Y-18595237D01*
X16757200Y-18595237D02*
X16661961Y-18690475D01*
X16661961Y-18690475D02*
X16566723Y-18738094D01*
X16566723Y-18738094D02*
X16376247Y-18785713D01*
X16376247Y-18785713D02*
X16233390Y-18785713D01*
X16233390Y-18785713D02*
X16042914Y-18738094D01*
X16042914Y-18738094D02*
X15947676Y-18690475D01*
X15947676Y-18690475D02*
X15852438Y-18595237D01*
X15852438Y-18595237D02*
X15804819Y-18452380D01*
X15804819Y-18452380D02*
X15804819Y-18357142D01*
X15804819Y-18357142D02*
X15852438Y-18214285D01*
X15852438Y-18214285D02*
X15900057Y-18166666D01*
X16804819Y-17214285D02*
X16804819Y-17785713D01*
X16804819Y-17499999D02*
X15804819Y-17499999D01*
X15804819Y-17499999D02*
X15947676Y-17595237D01*
X15947676Y-17595237D02*
X16042914Y-17690475D01*
X16042914Y-17690475D02*
X16090533Y-17785713D01*
D12*
X-2967620Y-45114318D02*
X-2967620Y-46142413D01*
X-2967620Y-46142413D02*
X-2907143Y-46263365D01*
X-2907143Y-46263365D02*
X-2846667Y-46323842D01*
X-2846667Y-46323842D02*
X-2725715Y-46384318D01*
X-2725715Y-46384318D02*
X-2483810Y-46384318D01*
X-2483810Y-46384318D02*
X-2362858Y-46323842D01*
X-2362858Y-46323842D02*
X-2302381Y-46263365D01*
X-2302381Y-46263365D02*
X-2241905Y-46142413D01*
X-2241905Y-46142413D02*
X-2241905Y-45114318D01*
X-1092858Y-45537651D02*
X-1092858Y-46384318D01*
X-1395239Y-45053842D02*
X-1697620Y-45960984D01*
X-1697620Y-45960984D02*
X-911429Y-45960984D01*
X1576667Y49505682D02*
X1576667Y48598539D01*
X1576667Y48598539D02*
X1516190Y48417111D01*
X1516190Y48417111D02*
X1395238Y48296158D01*
X1395238Y48296158D02*
X1213809Y48235682D01*
X1213809Y48235682D02*
X1092857Y48235682D01*
X2120952Y49384730D02*
X2181428Y49445206D01*
X2181428Y49445206D02*
X2302381Y49505682D01*
X2302381Y49505682D02*
X2604762Y49505682D01*
X2604762Y49505682D02*
X2725714Y49445206D01*
X2725714Y49445206D02*
X2786190Y49384730D01*
X2786190Y49384730D02*
X2846667Y49263778D01*
X2846667Y49263778D02*
X2846667Y49142825D01*
X2846667Y49142825D02*
X2786190Y48961397D01*
X2786190Y48961397D02*
X2060476Y48235682D01*
X2060476Y48235682D02*
X2846667Y48235682D01*
D11*
X15622493Y19545181D02*
X15622493Y18830896D01*
X15622493Y18830896D02*
X15574874Y18688039D01*
X15574874Y18688039D02*
X15479636Y18592800D01*
X15479636Y18592800D02*
X15336779Y18545181D01*
X15336779Y18545181D02*
X15241541Y18545181D01*
X16622493Y18545181D02*
X16051065Y18545181D01*
X16336779Y18545181D02*
X16336779Y19545181D01*
X16336779Y19545181D02*
X16241541Y19402324D01*
X16241541Y19402324D02*
X16146303Y19307086D01*
X16146303Y19307086D02*
X16051065Y19259467D01*
X17574874Y18545181D02*
X17003446Y18545181D01*
X17289160Y18545181D02*
X17289160Y19545181D01*
X17289160Y19545181D02*
X17193922Y19402324D01*
X17193922Y19402324D02*
X17098684Y19307086D01*
X17098684Y19307086D02*
X17003446Y19259467D01*
D12*
X-33149048Y35695682D02*
X-33149048Y34788539D01*
X-33149048Y34788539D02*
X-33209525Y34607111D01*
X-33209525Y34607111D02*
X-33330477Y34486158D01*
X-33330477Y34486158D02*
X-33511906Y34425682D01*
X-33511906Y34425682D02*
X-33632858Y34425682D01*
X-32544287Y34425682D02*
X-32544287Y35695682D01*
X-32544287Y35695682D02*
X-32120953Y34788539D01*
X-32120953Y34788539D02*
X-31697620Y35695682D01*
X-31697620Y35695682D02*
X-31697620Y34425682D01*
X-30427619Y34425682D02*
X-31153334Y34425682D01*
X-30790477Y34425682D02*
X-30790477Y35695682D01*
X-30790477Y35695682D02*
X-30911429Y35514254D01*
X-30911429Y35514254D02*
X-31032381Y35393301D01*
X-31032381Y35393301D02*
X-31153334Y35332825D01*
D11*
X-24166667Y-13509580D02*
X-24214286Y-13557200D01*
X-24214286Y-13557200D02*
X-24357143Y-13604819D01*
X-24357143Y-13604819D02*
X-24452381Y-13604819D01*
X-24452381Y-13604819D02*
X-24595238Y-13557200D01*
X-24595238Y-13557200D02*
X-24690476Y-13461961D01*
X-24690476Y-13461961D02*
X-24738095Y-13366723D01*
X-24738095Y-13366723D02*
X-24785714Y-13176247D01*
X-24785714Y-13176247D02*
X-24785714Y-13033390D01*
X-24785714Y-13033390D02*
X-24738095Y-12842914D01*
X-24738095Y-12842914D02*
X-24690476Y-12747676D01*
X-24690476Y-12747676D02*
X-24595238Y-12652438D01*
X-24595238Y-12652438D02*
X-24452381Y-12604819D01*
X-24452381Y-12604819D02*
X-24357143Y-12604819D01*
X-24357143Y-12604819D02*
X-24214286Y-12652438D01*
X-24214286Y-12652438D02*
X-24166667Y-12700057D01*
X-23309524Y-12604819D02*
X-23500000Y-12604819D01*
X-23500000Y-12604819D02*
X-23595238Y-12652438D01*
X-23595238Y-12652438D02*
X-23642857Y-12700057D01*
X-23642857Y-12700057D02*
X-23738095Y-12842914D01*
X-23738095Y-12842914D02*
X-23785714Y-13033390D01*
X-23785714Y-13033390D02*
X-23785714Y-13414342D01*
X-23785714Y-13414342D02*
X-23738095Y-13509580D01*
X-23738095Y-13509580D02*
X-23690476Y-13557200D01*
X-23690476Y-13557200D02*
X-23595238Y-13604819D01*
X-23595238Y-13604819D02*
X-23404762Y-13604819D01*
X-23404762Y-13604819D02*
X-23309524Y-13557200D01*
X-23309524Y-13557200D02*
X-23261905Y-13509580D01*
X-23261905Y-13509580D02*
X-23214286Y-13414342D01*
X-23214286Y-13414342D02*
X-23214286Y-13176247D01*
X-23214286Y-13176247D02*
X-23261905Y-13081009D01*
X-23261905Y-13081009D02*
X-23309524Y-13033390D01*
X-23309524Y-13033390D02*
X-23404762Y-12985771D01*
X-23404762Y-12985771D02*
X-23595238Y-12985771D01*
X-23595238Y-12985771D02*
X-23690476Y-13033390D01*
X-23690476Y-13033390D02*
X-23738095Y-13081009D01*
X-23738095Y-13081009D02*
X-23785714Y-13176247D01*
D12*
X-18967620Y39885682D02*
X-18967620Y38857587D01*
X-18967620Y38857587D02*
X-18907143Y38736635D01*
X-18907143Y38736635D02*
X-18846667Y38676158D01*
X-18846667Y38676158D02*
X-18725715Y38615682D01*
X-18725715Y38615682D02*
X-18483810Y38615682D01*
X-18483810Y38615682D02*
X-18362858Y38676158D01*
X-18362858Y38676158D02*
X-18302381Y38736635D01*
X-18302381Y38736635D02*
X-18241905Y38857587D01*
X-18241905Y38857587D02*
X-18241905Y39885682D01*
X-17697620Y39764730D02*
X-17637144Y39825206D01*
X-17637144Y39825206D02*
X-17516191Y39885682D01*
X-17516191Y39885682D02*
X-17213810Y39885682D01*
X-17213810Y39885682D02*
X-17092858Y39825206D01*
X-17092858Y39825206D02*
X-17032382Y39764730D01*
X-17032382Y39764730D02*
X-16971905Y39643778D01*
X-16971905Y39643778D02*
X-16971905Y39522825D01*
X-16971905Y39522825D02*
X-17032382Y39341397D01*
X-17032382Y39341397D02*
X-17758096Y38615682D01*
X-17758096Y38615682D02*
X-16971905Y38615682D01*
D11*
X-24166667Y-2709580D02*
X-24214286Y-2757200D01*
X-24214286Y-2757200D02*
X-24357143Y-2804819D01*
X-24357143Y-2804819D02*
X-24452381Y-2804819D01*
X-24452381Y-2804819D02*
X-24595238Y-2757200D01*
X-24595238Y-2757200D02*
X-24690476Y-2661961D01*
X-24690476Y-2661961D02*
X-24738095Y-2566723D01*
X-24738095Y-2566723D02*
X-24785714Y-2376247D01*
X-24785714Y-2376247D02*
X-24785714Y-2233390D01*
X-24785714Y-2233390D02*
X-24738095Y-2042914D01*
X-24738095Y-2042914D02*
X-24690476Y-1947676D01*
X-24690476Y-1947676D02*
X-24595238Y-1852438D01*
X-24595238Y-1852438D02*
X-24452381Y-1804819D01*
X-24452381Y-1804819D02*
X-24357143Y-1804819D01*
X-24357143Y-1804819D02*
X-24214286Y-1852438D01*
X-24214286Y-1852438D02*
X-24166667Y-1900057D01*
X-23785714Y-1900057D02*
X-23738095Y-1852438D01*
X-23738095Y-1852438D02*
X-23642857Y-1804819D01*
X-23642857Y-1804819D02*
X-23404762Y-1804819D01*
X-23404762Y-1804819D02*
X-23309524Y-1852438D01*
X-23309524Y-1852438D02*
X-23261905Y-1900057D01*
X-23261905Y-1900057D02*
X-23214286Y-1995295D01*
X-23214286Y-1995295D02*
X-23214286Y-2090533D01*
X-23214286Y-2090533D02*
X-23261905Y-2233390D01*
X-23261905Y-2233390D02*
X-23833333Y-2804819D01*
X-23833333Y-2804819D02*
X-23214286Y-2804819D01*
D12*
X-34423333Y5695682D02*
X-34423333Y4788539D01*
X-34423333Y4788539D02*
X-34483810Y4607111D01*
X-34483810Y4607111D02*
X-34604762Y4486158D01*
X-34604762Y4486158D02*
X-34786191Y4425682D01*
X-34786191Y4425682D02*
X-34907143Y4425682D01*
X-33274286Y5272349D02*
X-33274286Y4425682D01*
X-33576667Y5756158D02*
X-33879048Y4849016D01*
X-33879048Y4849016D02*
X-33092857Y4849016D01*
D13*
X31666666Y29042581D02*
X31666666Y28328296D01*
X31666666Y28328296D02*
X31619047Y28185439D01*
X31619047Y28185439D02*
X31523809Y28090200D01*
X31523809Y28090200D02*
X31380952Y28042581D01*
X31380952Y28042581D02*
X31285714Y28042581D01*
X32571428Y29042581D02*
X32380952Y29042581D01*
X32380952Y29042581D02*
X32285714Y28994962D01*
X32285714Y28994962D02*
X32238095Y28947343D01*
X32238095Y28947343D02*
X32142857Y28804486D01*
X32142857Y28804486D02*
X32095238Y28614010D01*
X32095238Y28614010D02*
X32095238Y28233058D01*
X32095238Y28233058D02*
X32142857Y28137820D01*
X32142857Y28137820D02*
X32190476Y28090200D01*
X32190476Y28090200D02*
X32285714Y28042581D01*
X32285714Y28042581D02*
X32476190Y28042581D01*
X32476190Y28042581D02*
X32571428Y28090200D01*
X32571428Y28090200D02*
X32619047Y28137820D01*
X32619047Y28137820D02*
X32666666Y28233058D01*
X32666666Y28233058D02*
X32666666Y28471153D01*
X32666666Y28471153D02*
X32619047Y28566391D01*
X32619047Y28566391D02*
X32571428Y28614010D01*
X32571428Y28614010D02*
X32476190Y28661629D01*
X32476190Y28661629D02*
X32285714Y28661629D01*
X32285714Y28661629D02*
X32190476Y28614010D01*
X32190476Y28614010D02*
X32142857Y28566391D01*
X32142857Y28566391D02*
X32095238Y28471153D01*
D14*
%TO.C,C7*%
X4090000Y33711252D02*
X4090000Y32288748D01*
X5910000Y33711252D02*
X5910000Y32288748D01*
D13*
%TO.C,J3*%
X-38150000Y-12250000D02*
X-29150000Y-12250000D01*
X-38150000Y-23750000D02*
X-38150000Y-12250000D01*
D15*
X-36650000Y-24500000D02*
X-36650000Y-24500000D01*
X-36650000Y-24600000D02*
X-36650000Y-24600000D01*
D13*
X-29150000Y-12250000D02*
X-29150000Y-23750000D01*
X-29150000Y-23750000D02*
X-38150000Y-23750000D01*
D15*
X-36650000Y-24500000D02*
G75*
G02*
X-36650000Y-24600000I0J-50000D01*
G01*
X-36650000Y-24600000D02*
G75*
G02*
X-36650000Y-24500000I0J50000D01*
G01*
D14*
%TO.C,JP3*%
X-25400000Y24200000D02*
X-25400000Y24800000D01*
X-24700000Y25500000D02*
X-23300000Y25500000D01*
X-23300000Y23500000D02*
X-24700000Y23500000D01*
X-22600000Y24800000D02*
X-22600000Y24200000D01*
X-25400000Y24800000D02*
G75*
G02*
X-24700000Y25500000I699999J1D01*
G01*
X-24700000Y23500000D02*
G75*
G02*
X-25400000Y24200000I-1J699999D01*
G01*
X-23300000Y25500000D02*
G75*
G02*
X-22600000Y24800000I0J-700000D01*
G01*
X-22600000Y24200000D02*
G75*
G02*
X-23300000Y23500000I-700000J0D01*
G01*
%TO.C,C5*%
X-4610000Y34415748D02*
X-4610000Y31584252D01*
X610000Y34415748D02*
X610000Y31584252D01*
%TO.C,JP1*%
X-25400000Y27200000D02*
X-25400000Y27800000D01*
X-24700000Y28500000D02*
X-23300000Y28500000D01*
X-23300000Y26500000D02*
X-24700000Y26500000D01*
X-22600000Y27800000D02*
X-22600000Y27200000D01*
X-25400000Y27800000D02*
G75*
G02*
X-24700000Y28500000I699999J1D01*
G01*
X-24700000Y26500000D02*
G75*
G02*
X-25400000Y27200000I-1J699999D01*
G01*
X-23300000Y28500000D02*
G75*
G02*
X-22600000Y27800000I0J-700000D01*
G01*
X-22600000Y27200000D02*
G75*
G02*
X-23300000Y26500000I-700000J0D01*
G01*
D16*
%TO.C,U1*%
X-18330399Y27827106D02*
X-18330399Y-24827094D01*
X-18330399Y-24827094D02*
X9127001Y-24827094D01*
X9127001Y27827106D02*
X-18330399Y27827106D01*
X9127001Y-24827094D02*
X9127001Y27827106D01*
D13*
%TO.C,J12*%
X-32450000Y-26050000D02*
X-13550000Y-26050000D01*
X-32450000Y-41000000D02*
X-32450000Y-26050000D01*
X-13550000Y-26100000D02*
X-13550000Y-41000000D01*
%TO.C,J10*%
X30800000Y-30350000D02*
X35400000Y-30350000D01*
X30800000Y-41650000D02*
X30800000Y-30350000D01*
X35400000Y-41650000D02*
X30800000Y-41650000D01*
D14*
%TO.C,C3*%
X-25415748Y-19390000D02*
X-22584252Y-19390000D01*
X-25415748Y-24610000D02*
X-22584252Y-24610000D01*
%TO.C,C4*%
X-24711252Y1910000D02*
X-23288748Y1910000D01*
X-24711252Y90000D02*
X-23288748Y90000D01*
%TO.C,C1*%
X17290000Y-19161252D02*
X17290000Y-16838748D01*
X20710000Y-19161252D02*
X20710000Y-16838748D01*
D12*
%TO.C,U4*%
X-13300000Y-38350000D02*
X-13300000Y-45650000D01*
X-13300000Y-45650000D02*
X-10900000Y-45650000D01*
X-10900000Y-37500000D02*
X-10900000Y-38350000D01*
X-10900000Y-38350000D02*
X-13300000Y-38350000D01*
X-10900000Y-45650000D02*
X-10900000Y-46500000D01*
X-10900000Y-46500000D02*
X-8000000Y-46500000D01*
X-8000000Y-37500000D02*
X-10900000Y-37500000D01*
X-8000000Y-40000000D02*
X-8000000Y-37500000D01*
X-8000000Y-44000000D02*
X4000000Y-44000000D01*
X-8000000Y-46500000D02*
X-8000000Y-44000000D01*
X4000000Y-37500000D02*
X4000000Y-40000000D01*
X4000000Y-40000000D02*
X-8000000Y-40000000D01*
X4000000Y-44000000D02*
X4000000Y-46500000D01*
X4000000Y-46500000D02*
X6900000Y-46500000D01*
X6900000Y-37500000D02*
X4000000Y-37500000D01*
X6900000Y-38350000D02*
X6900000Y-37500000D01*
X6900000Y-45650000D02*
X9300000Y-45650000D01*
X6900000Y-46500000D02*
X6900000Y-45650000D01*
X9300000Y-38350000D02*
X6900000Y-38350000D01*
X9300000Y-45650000D02*
X9300000Y-38350000D01*
D15*
%TO.C,J2*%
X-4600000Y45650000D02*
X-4600000Y45650000D01*
X-4500000Y45650000D02*
X-4500000Y45650000D01*
D13*
X-3750000Y47150000D02*
X7750000Y47150000D01*
X-3750000Y38150000D02*
X-3750000Y47150000D01*
X7750000Y47150000D02*
X7750000Y38150000D01*
X7750000Y38150000D02*
X-3750000Y38150000D01*
D15*
X-4600000Y45650000D02*
G75*
G02*
X-4500000Y45650000I50000J0D01*
G01*
X-4500000Y45650000D02*
G75*
G02*
X-4600000Y45650000I-50000J0D01*
G01*
D17*
%TO.C,REF\u002A\u002A*%
X19000000Y-36660000D02*
X22000000Y-31460000D01*
D10*
X19543161Y-36624632D02*
X19276839Y-36215368D01*
X21720000Y-34090000D02*
X21920000Y-34270000D01*
D18*
X21740000Y-35420000D02*
X22210000Y-35520000D01*
D10*
X21865000Y-34355000D02*
X22115000Y-34525000D01*
X21875000Y-31920000D02*
X22125000Y-31920000D01*
D17*
X22000000Y-31460000D02*
X25000000Y-36660000D01*
D10*
X24466839Y-36624632D02*
X24733158Y-36215366D01*
D17*
X25000000Y-36660000D02*
X19000000Y-36660000D01*
D13*
X21678833Y-34344000D02*
X22525500Y-33888917D01*
X22049250Y-35624583D01*
X22292667Y-35476417D01*
X21858750Y-36122000D01*
X21700000Y-35360000D01*
X21869333Y-35592834D01*
X22070417Y-34333417D01*
X21255500Y-34767334D01*
X21784666Y-32894084D01*
X22303250Y-32894084D01*
X21678833Y-34344000D01*
G36*
X21678833Y-34344000D02*
G01*
X22525500Y-33888917D01*
X22049250Y-35624583D01*
X22292667Y-35476417D01*
X21858750Y-36122000D01*
X21700000Y-35360000D01*
X21869333Y-35592834D01*
X22070417Y-34333417D01*
X21255500Y-34767334D01*
X21784666Y-32894084D01*
X22303250Y-32894084D01*
X21678833Y-34344000D01*
G37*
D16*
%TO.C,J11*%
X15218700Y39623301D02*
X15218700Y20376699D01*
X15218700Y20376699D02*
X20781300Y20376699D01*
X20781300Y39623301D02*
X15218700Y39623301D01*
D10*
%TO.C,JM1*%
X-38348000Y10400000D02*
X-38348000Y10400000D01*
X-38348000Y10300000D02*
X-38348000Y10300000D01*
X-38348000Y10300000D02*
X-38348000Y10300000D01*
D13*
X-32198000Y33500000D02*
X-32198000Y33500000D01*
X-32198000Y33500000D02*
X-30350000Y33500000D01*
X-32198000Y6500000D02*
X-32198000Y6500000D01*
X-32198000Y6500000D02*
X-30350000Y6500000D01*
X-30350000Y33500000D02*
X-32198000Y33500000D01*
X-30350000Y33500000D02*
X-30350000Y33500000D01*
X-30350000Y33500000D02*
X-30350000Y33500000D01*
X-30350000Y33500000D02*
X-30350000Y6500000D01*
X-30350000Y6500000D02*
X-32198000Y6500000D01*
X-30350000Y6500000D02*
X-30350000Y33500000D01*
X-30350000Y6500000D02*
X-30350000Y6500000D01*
X-30350000Y6500000D02*
X-30350000Y6500000D01*
D10*
X-38348000Y10400000D02*
G75*
G02*
X-38348000Y10300000I0J-50000D01*
G01*
X-38348000Y10400000D02*
G75*
G02*
X-38348000Y10300000I0J-50000D01*
G01*
X-38348000Y10300000D02*
G75*
G02*
X-38348000Y10400000I0J50000D01*
G01*
D14*
%TO.C,C6*%
X-24711252Y-14090000D02*
X-23288748Y-14090000D01*
X-24711252Y-15910000D02*
X-23288748Y-15910000D01*
D12*
%TO.C,U2*%
X-29300000Y46650000D02*
X-29300000Y39350000D01*
X-29300000Y39350000D02*
X-26900000Y39350000D01*
X-26900000Y47500000D02*
X-26900000Y46650000D01*
X-26900000Y46650000D02*
X-29300000Y46650000D01*
X-26900000Y39350000D02*
X-26900000Y38500000D01*
X-26900000Y38500000D02*
X-24000000Y38500000D01*
X-24000000Y47500000D02*
X-26900000Y47500000D01*
X-24000000Y45000000D02*
X-24000000Y47500000D01*
X-24000000Y41000000D02*
X-12000000Y41000000D01*
X-24000000Y38500000D02*
X-24000000Y41000000D01*
X-12000000Y47500000D02*
X-12000000Y45000000D01*
X-12000000Y45000000D02*
X-24000000Y45000000D01*
X-12000000Y41000000D02*
X-12000000Y38500000D01*
X-12000000Y38500000D02*
X-9100000Y38500000D01*
X-9100000Y47500000D02*
X-12000000Y47500000D01*
X-9100000Y46650000D02*
X-9100000Y47500000D01*
X-9100000Y39350000D02*
X-6700000Y39350000D01*
X-9100000Y38500000D02*
X-9100000Y39350000D01*
X-6700000Y46650000D02*
X-9100000Y46650000D01*
X-6700000Y39350000D02*
X-6700000Y46650000D01*
D14*
%TO.C,C2*%
X-25415748Y-3390000D02*
X-22584252Y-3390000D01*
X-25415748Y-8610000D02*
X-22584252Y-8610000D01*
D13*
%TO.C,J4*%
X-38150000Y3750000D02*
X-29150000Y3750000D01*
X-38150000Y-7750000D02*
X-38150000Y3750000D01*
D15*
X-36650000Y-8500000D02*
X-36650000Y-8500000D01*
X-36650000Y-8600000D02*
X-36650000Y-8600000D01*
D13*
X-29150000Y3750000D02*
X-29150000Y-7750000D01*
X-29150000Y-7750000D02*
X-38150000Y-7750000D01*
D15*
X-36650000Y-8500000D02*
G75*
G02*
X-36650000Y-8600000I0J-50000D01*
G01*
X-36650000Y-8600000D02*
G75*
G02*
X-36650000Y-8500000I0J50000D01*
G01*
D13*
%TO.C,J6*%
X30800000Y27650000D02*
X35400000Y27650000D01*
X30800000Y9350000D02*
X30800000Y27650000D01*
X35400000Y9350000D02*
X30800000Y9350000D01*
%TD*%
M02*
