<?xml version="1.0" standalone="no"?>
 <!DOCTYPE svg PUBLIC "-//W3C//DTD SVG 1.1//EN" 
 "http://www.w3.org/Graphics/SVG/1.1/DTD/svg11.dtd"> 
<svg
  xmlns:svg="http://www.w3.org/2000/svg"
  xmlns="http://www.w3.org/2000/svg"
  xmlns:xlink="http://www.w3.org/1999/xlink"
  version="1.1"
  width="297.0022mm" height="210.0072mm" viewBox="0.0000 0.0000 297.0022 210.0072">
<title>SVG Image created as PM-CPU-ESP-User_Comments.svg date 2024/07/11 19:55:22 </title>
  <desc>Image generated by PCBNEW </desc>
<g style="fill:#000000; fill-opacity:1.0000;stroke:#000000; stroke-opacity:1.0000;
stroke-linecap:round; stroke-linejoin:round;"
 transform="translate(0 0) scale(1 1)">
</g>
<g style="fill:none; 
stroke:#000000; stroke-width:0.1500; stroke-opacity:1; 
stroke-linecap:round; stroke-linejoin:round;">
<g transform="rotate(-90.000000 62.3500 100.3300)">
<text x="62.3500" y="100.8300"
textLength="9.8690" font-size="1.3333" lengthAdjust="spacingAndGlyphs"
text-anchor="middle" opacity="0">99,0600 mm</text>
</g>
<g class="stroked-text"><desc>99,0600 mm</desc>
<path d="M62.8048 104.8538
L62.8048 104.6633
" />
<path d="M62.8048 104.6633
L62.7572 104.5681
" />
<path d="M62.7572 104.5681
L62.7096 104.5205
" />
<path d="M62.7096 104.5205
L62.5667 104.4252
" />
<path d="M62.5667 104.4252
L62.3762 104.3776
" />
<path d="M62.3762 104.3776
L61.9953 104.3776
" />
<path d="M61.9953 104.3776
L61.9001 104.4252
" />
<path d="M61.9001 104.4252
L61.8524 104.4729
" />
<path d="M61.8524 104.4729
L61.8048 104.5681
" />
<path d="M61.8048 104.5681
L61.8048 104.7586
" />
<path d="M61.8048 104.7586
L61.8524 104.8538
" />
<path d="M61.8524 104.8538
L61.9001 104.9014
" />
<path d="M61.9001 104.9014
L61.9953 104.9490
" />
<path d="M61.9953 104.9490
L62.2334 104.9490
" />
<path d="M62.2334 104.9490
L62.3286 104.9014
" />
<path d="M62.3286 104.9014
L62.3762 104.8538
" />
<path d="M62.3762 104.8538
L62.4239 104.7586
" />
<path d="M62.4239 104.7586
L62.4239 104.5681
" />
<path d="M62.4239 104.5681
L62.3762 104.4729
" />
<path d="M62.3762 104.4729
L62.3286 104.4252
" />
<path d="M62.3286 104.4252
L62.2334 104.3776
" />
<path d="M62.8048 103.9014
L62.8048 103.7110
" />
<path d="M62.8048 103.7110
L62.7572 103.6157
" />
<path d="M62.7572 103.6157
L62.7096 103.5681
" />
<path d="M62.7096 103.5681
L62.5667 103.4729
" />
<path d="M62.5667 103.4729
L62.3762 103.4252
" />
<path d="M62.3762 103.4252
L61.9953 103.4252
" />
<path d="M61.9953 103.4252
L61.9001 103.4729
" />
<path d="M61.9001 103.4729
L61.8524 103.5205
" />
<path d="M61.8524 103.5205
L61.8048 103.6157
" />
<path d="M61.8048 103.6157
L61.8048 103.8062
" />
<path d="M61.8048 103.8062
L61.8524 103.9014
" />
<path d="M61.8524 103.9014
L61.9001 103.9490
" />
<path d="M61.9001 103.9490
L61.9953 103.9967
" />
<path d="M61.9953 103.9967
L62.2334 103.9967
" />
<path d="M62.2334 103.9967
L62.3286 103.9490
" />
<path d="M62.3286 103.9490
L62.3762 103.9014
" />
<path d="M62.3762 103.9014
L62.4239 103.8062
" />
<path d="M62.4239 103.8062
L62.4239 103.6157
" />
<path d="M62.4239 103.6157
L62.3762 103.5205
" />
<path d="M62.3762 103.5205
L62.3286 103.4729
" />
<path d="M62.3286 103.4729
L62.2334 103.4252
" />
<path d="M62.7572 102.9490
L62.8048 102.9490
" />
<path d="M62.8048 102.9490
L62.9001 102.9967
" />
<path d="M62.9001 102.9967
L62.9477 103.0443
" />
<path d="M61.8048 102.3300
L61.8048 102.2348
" />
<path d="M61.8048 102.2348
L61.8524 102.1395
" />
<path d="M61.8524 102.1395
L61.9001 102.0919
" />
<path d="M61.9001 102.0919
L61.9953 102.0443
" />
<path d="M61.9953 102.0443
L62.1858 101.9967
" />
<path d="M62.1858 101.9967
L62.4239 101.9967
" />
<path d="M62.4239 101.9967
L62.6143 102.0443
" />
<path d="M62.6143 102.0443
L62.7096 102.0919
" />
<path d="M62.7096 102.0919
L62.7572 102.1395
" />
<path d="M62.7572 102.1395
L62.8048 102.2348
" />
<path d="M62.8048 102.2348
L62.8048 102.3300
" />
<path d="M62.8048 102.3300
L62.7572 102.4252
" />
<path d="M62.7572 102.4252
L62.7096 102.4729
" />
<path d="M62.7096 102.4729
L62.6143 102.5205
" />
<path d="M62.6143 102.5205
L62.4239 102.5681
" />
<path d="M62.4239 102.5681
L62.1858 102.5681
" />
<path d="M62.1858 102.5681
L61.9953 102.5205
" />
<path d="M61.9953 102.5205
L61.9001 102.4729
" />
<path d="M61.9001 102.4729
L61.8524 102.4252
" />
<path d="M61.8524 102.4252
L61.8048 102.3300
" />
<path d="M61.8048 101.1395
L61.8048 101.3300
" />
<path d="M61.8048 101.3300
L61.8524 101.4252
" />
<path d="M61.8524 101.4252
L61.9001 101.4729
" />
<path d="M61.9001 101.4729
L62.0429 101.5681
" />
<path d="M62.0429 101.5681
L62.2334 101.6157
" />
<path d="M62.2334 101.6157
L62.6143 101.6157
" />
<path d="M62.6143 101.6157
L62.7096 101.5681
" />
<path d="M62.7096 101.5681
L62.7572 101.5205
" />
<path d="M62.7572 101.5205
L62.8048 101.4252
" />
<path d="M62.8048 101.4252
L62.8048 101.2348
" />
<path d="M62.8048 101.2348
L62.7572 101.1395
" />
<path d="M62.7572 101.1395
L62.7096 101.0919
" />
<path d="M62.7096 101.0919
L62.6143 101.0443
" />
<path d="M62.6143 101.0443
L62.3762 101.0443
" />
<path d="M62.3762 101.0443
L62.2810 101.0919
" />
<path d="M62.2810 101.0919
L62.2334 101.1395
" />
<path d="M62.2334 101.1395
L62.1858 101.2348
" />
<path d="M62.1858 101.2348
L62.1858 101.4252
" />
<path d="M62.1858 101.4252
L62.2334 101.5205
" />
<path d="M62.2334 101.5205
L62.2810 101.5681
" />
<path d="M62.2810 101.5681
L62.3762 101.6157
" />
<path d="M61.8048 100.4252
L61.8048 100.3300
" />
<path d="M61.8048 100.3300
L61.8524 100.2348
" />
<path d="M61.8524 100.2348
L61.9001 100.1871
" />
<path d="M61.9001 100.1871
L61.9953 100.1395
" />
<path d="M61.9953 100.1395
L62.1858 100.0919
" />
<path d="M62.1858 100.0919
L62.4239 100.0919
" />
<path d="M62.4239 100.0919
L62.6143 100.1395
" />
<path d="M62.6143 100.1395
L62.7096 100.1871
" />
<path d="M62.7096 100.1871
L62.7572 100.2348
" />
<path d="M62.7572 100.2348
L62.8048 100.3300
" />
<path d="M62.8048 100.3300
L62.8048 100.4252
" />
<path d="M62.8048 100.4252
L62.7572 100.5205
" />
<path d="M62.7572 100.5205
L62.7096 100.5681
" />
<path d="M62.7096 100.5681
L62.6143 100.6157
" />
<path d="M62.6143 100.6157
L62.4239 100.6633
" />
<path d="M62.4239 100.6633
L62.1858 100.6633
" />
<path d="M62.1858 100.6633
L61.9953 100.6157
" />
<path d="M61.9953 100.6157
L61.9001 100.5681
" />
<path d="M61.9001 100.5681
L61.8524 100.5205
" />
<path d="M61.8524 100.5205
L61.8048 100.4252
" />
<path d="M61.8048 99.4729
L61.8048 99.3776
" />
<path d="M61.8048 99.3776
L61.8524 99.2824
" />
<path d="M61.8524 99.2824
L61.9001 99.2348
" />
<path d="M61.9001 99.2348
L61.9953 99.1871
" />
<path d="M61.9953 99.1871
L62.1858 99.1395
" />
<path d="M62.1858 99.1395
L62.4239 99.1395
" />
<path d="M62.4239 99.1395
L62.6143 99.1871
" />
<path d="M62.6143 99.1871
L62.7096 99.2348
" />
<path d="M62.7096 99.2348
L62.7572 99.2824
" />
<path d="M62.7572 99.2824
L62.8048 99.3776
" />
<path d="M62.8048 99.3776
L62.8048 99.4729
" />
<path d="M62.8048 99.4729
L62.7572 99.5681
" />
<path d="M62.7572 99.5681
L62.7096 99.6157
" />
<path d="M62.7096 99.6157
L62.6143 99.6633
" />
<path d="M62.6143 99.6633
L62.4239 99.7110
" />
<path d="M62.4239 99.7110
L62.1858 99.7110
" />
<path d="M62.1858 99.7110
L61.9953 99.6633
" />
<path d="M61.9953 99.6633
L61.9001 99.6157
" />
<path d="M61.9001 99.6157
L61.8524 99.5681
" />
<path d="M61.8524 99.5681
L61.8048 99.4729
" />
<path d="M62.8048 97.9490
L62.1382 97.9490
" />
<path d="M62.2334 97.9490
L62.1858 97.9014
" />
<path d="M62.1858 97.9014
L62.1382 97.8062
" />
<path d="M62.1382 97.8062
L62.1382 97.6633
" />
<path d="M62.1382 97.6633
L62.1858 97.5681
" />
<path d="M62.1858 97.5681
L62.2810 97.5205
" />
<path d="M62.2810 97.5205
L62.8048 97.5205
" />
<path d="M62.2810 97.5205
L62.1858 97.4729
" />
<path d="M62.1858 97.4729
L62.1382 97.3776
" />
<path d="M62.1382 97.3776
L62.1382 97.2348
" />
<path d="M62.1382 97.2348
L62.1858 97.1395
" />
<path d="M62.1858 97.1395
L62.2810 97.0919
" />
<path d="M62.2810 97.0919
L62.8048 97.0919
" />
<path d="M62.8048 96.6157
L62.1382 96.6157
" />
<path d="M62.2334 96.6157
L62.1858 96.5681
" />
<path d="M62.1858 96.5681
L62.1382 96.4729
" />
<path d="M62.1382 96.4729
L62.1382 96.3300
" />
<path d="M62.1382 96.3300
L62.1858 96.2348
" />
<path d="M62.1858 96.2348
L62.2810 96.1871
" />
<path d="M62.2810 96.1871
L62.8048 96.1871
" />
<path d="M62.2810 96.1871
L62.1858 96.1395
" />
<path d="M62.1858 96.1395
L62.1382 96.0443
" />
<path d="M62.1382 96.0443
L62.1382 95.9014
" />
<path d="M62.1382 95.9014
L62.1858 95.8062
" />
<path d="M62.1858 95.8062
L62.2810 95.7586
" />
<path d="M62.2810 95.7586
L62.8048 95.7586
" />
</g></g>
<g style="fill:none; 
stroke:#000000; stroke-width:0.1000; stroke-opacity:1; 
stroke-linecap:round; stroke-linejoin:round;">
<path d="M75.7000 50.8000
L62.9136 50.8000
" />
<path d="M75.7000 149.8600
L62.9136 149.8600
" />
<path d="M63.5000 50.8000
L63.5000 149.8600
" />
<path d="M63.5000 50.8000
L63.5000 149.8600
" />
<path d="M63.5000 50.8000
L64.0864 51.9265
" />
<path d="M63.5000 50.8000
L62.9136 51.9265
" />
<path d="M63.5000 149.8600
L62.9136 148.7335
" />
<path d="M63.5000 149.8600
L64.0864 148.7335
" />
</g>
<g style="fill:none; 
stroke:#000000; stroke-width:0.1500; stroke-opacity:1; 
stroke-linecap:round; stroke-linejoin:round;">
<g transform="rotate(-90.000000 69.9700 125.0950)">
<text x="69.9700" y="125.5950"
textLength="9.8690" font-size="1.3333" lengthAdjust="spacingAndGlyphs"
text-anchor="middle" opacity="0">49,5300 mm</text>
</g>
<g class="stroked-text"><desc>49,5300 mm</desc>
<path d="M69.7582 129.2379
L70.4248 129.2379
" />
<path d="M69.3772 129.4760
L70.0915 129.7140
" />
<path d="M70.0915 129.7140
L70.0915 129.0950
" />
<path d="M70.4248 128.6664
L70.4248 128.4760
" />
<path d="M70.4248 128.4760
L70.3772 128.3807
" />
<path d="M70.3772 128.3807
L70.3296 128.3331
" />
<path d="M70.3296 128.3331
L70.1867 128.2379
" />
<path d="M70.1867 128.2379
L69.9962 128.1902
" />
<path d="M69.9962 128.1902
L69.6153 128.1902
" />
<path d="M69.6153 128.1902
L69.5201 128.2379
" />
<path d="M69.5201 128.2379
L69.4724 128.2855
" />
<path d="M69.4724 128.2855
L69.4248 128.3807
" />
<path d="M69.4248 128.3807
L69.4248 128.5712
" />
<path d="M69.4248 128.5712
L69.4724 128.6664
" />
<path d="M69.4724 128.6664
L69.5201 128.7140
" />
<path d="M69.5201 128.7140
L69.6153 128.7617
" />
<path d="M69.6153 128.7617
L69.8534 128.7617
" />
<path d="M69.8534 128.7617
L69.9486 128.7140
" />
<path d="M69.9486 128.7140
L69.9962 128.6664
" />
<path d="M69.9962 128.6664
L70.0439 128.5712
" />
<path d="M70.0439 128.5712
L70.0439 128.3807
" />
<path d="M70.0439 128.3807
L69.9962 128.2855
" />
<path d="M69.9962 128.2855
L69.9486 128.2379
" />
<path d="M69.9486 128.2379
L69.8534 128.1902
" />
<path d="M70.3772 127.7140
L70.4248 127.7140
" />
<path d="M70.4248 127.7140
L70.5201 127.7617
" />
<path d="M70.5201 127.7617
L70.5677 127.8093
" />
<path d="M69.4248 126.8093
L69.4248 127.2855
" />
<path d="M69.4248 127.2855
L69.9010 127.3331
" />
<path d="M69.9010 127.3331
L69.8534 127.2855
" />
<path d="M69.8534 127.2855
L69.8058 127.1902
" />
<path d="M69.8058 127.1902
L69.8058 126.9521
" />
<path d="M69.8058 126.9521
L69.8534 126.8569
" />
<path d="M69.8534 126.8569
L69.9010 126.8093
" />
<path d="M69.9010 126.8093
L69.9962 126.7617
" />
<path d="M69.9962 126.7617
L70.2343 126.7617
" />
<path d="M70.2343 126.7617
L70.3296 126.8093
" />
<path d="M70.3296 126.8093
L70.3772 126.8569
" />
<path d="M70.3772 126.8569
L70.4248 126.9521
" />
<path d="M70.4248 126.9521
L70.4248 127.1902
" />
<path d="M70.4248 127.1902
L70.3772 127.2855
" />
<path d="M70.3772 127.2855
L70.3296 127.3331
" />
<path d="M69.4248 126.4283
L69.4248 125.8093
" />
<path d="M69.4248 125.8093
L69.8058 126.1426
" />
<path d="M69.8058 126.1426
L69.8058 125.9998
" />
<path d="M69.8058 125.9998
L69.8534 125.9045
" />
<path d="M69.8534 125.9045
L69.9010 125.8569
" />
<path d="M69.9010 125.8569
L69.9962 125.8093
" />
<path d="M69.9962 125.8093
L70.2343 125.8093
" />
<path d="M70.2343 125.8093
L70.3296 125.8569
" />
<path d="M70.3296 125.8569
L70.3772 125.9045
" />
<path d="M70.3772 125.9045
L70.4248 125.9998
" />
<path d="M70.4248 125.9998
L70.4248 126.2855
" />
<path d="M70.4248 126.2855
L70.3772 126.3807
" />
<path d="M70.3772 126.3807
L70.3296 126.4283
" />
<path d="M69.4248 125.1902
L69.4248 125.0950
" />
<path d="M69.4248 125.0950
L69.4724 124.9998
" />
<path d="M69.4724 124.9998
L69.5201 124.9521
" />
<path d="M69.5201 124.9521
L69.6153 124.9045
" />
<path d="M69.6153 124.9045
L69.8058 124.8569
" />
<path d="M69.8058 124.8569
L70.0439 124.8569
" />
<path d="M70.0439 124.8569
L70.2343 124.9045
" />
<path d="M70.2343 124.9045
L70.3296 124.9521
" />
<path d="M70.3296 124.9521
L70.3772 124.9998
" />
<path d="M70.3772 124.9998
L70.4248 125.0950
" />
<path d="M70.4248 125.0950
L70.4248 125.1902
" />
<path d="M70.4248 125.1902
L70.3772 125.2855
" />
<path d="M70.3772 125.2855
L70.3296 125.3331
" />
<path d="M70.3296 125.3331
L70.2343 125.3807
" />
<path d="M70.2343 125.3807
L70.0439 125.4283
" />
<path d="M70.0439 125.4283
L69.8058 125.4283
" />
<path d="M69.8058 125.4283
L69.6153 125.3807
" />
<path d="M69.6153 125.3807
L69.5201 125.3331
" />
<path d="M69.5201 125.3331
L69.4724 125.2855
" />
<path d="M69.4724 125.2855
L69.4248 125.1902
" />
<path d="M69.4248 124.2379
L69.4248 124.1426
" />
<path d="M69.4248 124.1426
L69.4724 124.0474
" />
<path d="M69.4724 124.0474
L69.5201 123.9998
" />
<path d="M69.5201 123.9998
L69.6153 123.9521
" />
<path d="M69.6153 123.9521
L69.8058 123.9045
" />
<path d="M69.8058 123.9045
L70.0439 123.9045
" />
<path d="M70.0439 123.9045
L70.2343 123.9521
" />
<path d="M70.2343 123.9521
L70.3296 123.9998
" />
<path d="M70.3296 123.9998
L70.3772 124.0474
" />
<path d="M70.3772 124.0474
L70.4248 124.1426
" />
<path d="M70.4248 124.1426
L70.4248 124.2379
" />
<path d="M70.4248 124.2379
L70.3772 124.3331
" />
<path d="M70.3772 124.3331
L70.3296 124.3807
" />
<path d="M70.3296 124.3807
L70.2343 124.4283
" />
<path d="M70.2343 124.4283
L70.0439 124.4760
" />
<path d="M70.0439 124.4760
L69.8058 124.4760
" />
<path d="M69.8058 124.4760
L69.6153 124.4283
" />
<path d="M69.6153 124.4283
L69.5201 124.3807
" />
<path d="M69.5201 124.3807
L69.4724 124.3331
" />
<path d="M69.4724 124.3331
L69.4248 124.2379
" />
<path d="M70.4248 122.7140
L69.7582 122.7140
" />
<path d="M69.8534 122.7140
L69.8058 122.6664
" />
<path d="M69.8058 122.6664
L69.7582 122.5712
" />
<path d="M69.7582 122.5712
L69.7582 122.4283
" />
<path d="M69.7582 122.4283
L69.8058 122.3331
" />
<path d="M69.8058 122.3331
L69.9010 122.2855
" />
<path d="M69.9010 122.2855
L70.4248 122.2855
" />
<path d="M69.9010 122.2855
L69.8058 122.2379
" />
<path d="M69.8058 122.2379
L69.7582 122.1426
" />
<path d="M69.7582 122.1426
L69.7582 121.9998
" />
<path d="M69.7582 121.9998
L69.8058 121.9045
" />
<path d="M69.8058 121.9045
L69.9010 121.8569
" />
<path d="M69.9010 121.8569
L70.4248 121.8569
" />
<path d="M70.4248 121.3807
L69.7582 121.3807
" />
<path d="M69.8534 121.3807
L69.8058 121.3331
" />
<path d="M69.8058 121.3331
L69.7582 121.2379
" />
<path d="M69.7582 121.2379
L69.7582 121.0950
" />
<path d="M69.7582 121.0950
L69.8058 120.9998
" />
<path d="M69.8058 120.9998
L69.9010 120.9521
" />
<path d="M69.9010 120.9521
L70.4248 120.9521
" />
<path d="M69.9010 120.9521
L69.8058 120.9045
" />
<path d="M69.8058 120.9045
L69.7582 120.8093
" />
<path d="M69.7582 120.8093
L69.7582 120.6664
" />
<path d="M69.7582 120.6664
L69.8058 120.5712
" />
<path d="M69.8058 120.5712
L69.9010 120.5236
" />
<path d="M69.9010 120.5236
L70.4248 120.5236
" />
</g></g>
<g style="fill:none; 
stroke:#000000; stroke-width:0.1000; stroke-opacity:1; 
stroke-linecap:round; stroke-linejoin:round;">
<path d="M75.7000 149.8600
L70.5336 149.8600
" />
<path d="M75.7000 100.3300
L70.5336 100.3300
" />
<path d="M71.1200 149.8600
L71.1200 100.3300
" />
<path d="M71.1200 149.8600
L71.1200 100.3300
" />
<path d="M71.1200 149.8600
L70.5336 148.7335
" />
<path d="M71.1200 149.8600
L71.7064 148.7335
" />
<path d="M71.1200 100.3300
L71.7064 101.4565
" />
<path d="M71.1200 100.3300
L70.5336 101.4565
" />
</g>
<g style="fill:none; 
stroke:#000000; stroke-width:0.1500; stroke-opacity:1; 
stroke-linecap:round; stroke-linejoin:round;">
<g transform="rotate(-90.000000 69.9700 75.5650)">
<text x="69.9700" y="76.0650"
textLength="9.8690" font-size="1.3333" lengthAdjust="spacingAndGlyphs"
text-anchor="middle" opacity="0">49,5300 mm</text>
</g>
<g class="stroked-text"><desc>49,5300 mm</desc>
<path d="M69.7582 79.7079
L70.4248 79.7079
" />
<path d="M69.3772 79.9460
L70.0915 80.1840
" />
<path d="M70.0915 80.1840
L70.0915 79.5650
" />
<path d="M70.4248 79.1364
L70.4248 78.9460
" />
<path d="M70.4248 78.9460
L70.3772 78.8507
" />
<path d="M70.3772 78.8507
L70.3296 78.8031
" />
<path d="M70.3296 78.8031
L70.1867 78.7079
" />
<path d="M70.1867 78.7079
L69.9962 78.6602
" />
<path d="M69.9962 78.6602
L69.6153 78.6602
" />
<path d="M69.6153 78.6602
L69.5201 78.7079
" />
<path d="M69.5201 78.7079
L69.4724 78.7555
" />
<path d="M69.4724 78.7555
L69.4248 78.8507
" />
<path d="M69.4248 78.8507
L69.4248 79.0412
" />
<path d="M69.4248 79.0412
L69.4724 79.1364
" />
<path d="M69.4724 79.1364
L69.5201 79.1840
" />
<path d="M69.5201 79.1840
L69.6153 79.2317
" />
<path d="M69.6153 79.2317
L69.8534 79.2317
" />
<path d="M69.8534 79.2317
L69.9486 79.1840
" />
<path d="M69.9486 79.1840
L69.9962 79.1364
" />
<path d="M69.9962 79.1364
L70.0439 79.0412
" />
<path d="M70.0439 79.0412
L70.0439 78.8507
" />
<path d="M70.0439 78.8507
L69.9962 78.7555
" />
<path d="M69.9962 78.7555
L69.9486 78.7079
" />
<path d="M69.9486 78.7079
L69.8534 78.6602
" />
<path d="M70.3772 78.1840
L70.4248 78.1840
" />
<path d="M70.4248 78.1840
L70.5201 78.2317
" />
<path d="M70.5201 78.2317
L70.5677 78.2793
" />
<path d="M69.4248 77.2793
L69.4248 77.7555
" />
<path d="M69.4248 77.7555
L69.9010 77.8031
" />
<path d="M69.9010 77.8031
L69.8534 77.7555
" />
<path d="M69.8534 77.7555
L69.8058 77.6602
" />
<path d="M69.8058 77.6602
L69.8058 77.4221
" />
<path d="M69.8058 77.4221
L69.8534 77.3269
" />
<path d="M69.8534 77.3269
L69.9010 77.2793
" />
<path d="M69.9010 77.2793
L69.9962 77.2317
" />
<path d="M69.9962 77.2317
L70.2343 77.2317
" />
<path d="M70.2343 77.2317
L70.3296 77.2793
" />
<path d="M70.3296 77.2793
L70.3772 77.3269
" />
<path d="M70.3772 77.3269
L70.4248 77.4221
" />
<path d="M70.4248 77.4221
L70.4248 77.6602
" />
<path d="M70.4248 77.6602
L70.3772 77.7555
" />
<path d="M70.3772 77.7555
L70.3296 77.8031
" />
<path d="M69.4248 76.8983
L69.4248 76.2793
" />
<path d="M69.4248 76.2793
L69.8058 76.6126
" />
<path d="M69.8058 76.6126
L69.8058 76.4698
" />
<path d="M69.8058 76.4698
L69.8534 76.3745
" />
<path d="M69.8534 76.3745
L69.9010 76.3269
" />
<path d="M69.9010 76.3269
L69.9962 76.2793
" />
<path d="M69.9962 76.2793
L70.2343 76.2793
" />
<path d="M70.2343 76.2793
L70.3296 76.3269
" />
<path d="M70.3296 76.3269
L70.3772 76.3745
" />
<path d="M70.3772 76.3745
L70.4248 76.4698
" />
<path d="M70.4248 76.4698
L70.4248 76.7555
" />
<path d="M70.4248 76.7555
L70.3772 76.8507
" />
<path d="M70.3772 76.8507
L70.3296 76.8983
" />
<path d="M69.4248 75.6602
L69.4248 75.5650
" />
<path d="M69.4248 75.5650
L69.4724 75.4698
" />
<path d="M69.4724 75.4698
L69.5201 75.4221
" />
<path d="M69.5201 75.4221
L69.6153 75.3745
" />
<path d="M69.6153 75.3745
L69.8058 75.3269
" />
<path d="M69.8058 75.3269
L70.0439 75.3269
" />
<path d="M70.0439 75.3269
L70.2343 75.3745
" />
<path d="M70.2343 75.3745
L70.3296 75.4221
" />
<path d="M70.3296 75.4221
L70.3772 75.4698
" />
<path d="M70.3772 75.4698
L70.4248 75.5650
" />
<path d="M70.4248 75.5650
L70.4248 75.6602
" />
<path d="M70.4248 75.6602
L70.3772 75.7555
" />
<path d="M70.3772 75.7555
L70.3296 75.8031
" />
<path d="M70.3296 75.8031
L70.2343 75.8507
" />
<path d="M70.2343 75.8507
L70.0439 75.8983
" />
<path d="M70.0439 75.8983
L69.8058 75.8983
" />
<path d="M69.8058 75.8983
L69.6153 75.8507
" />
<path d="M69.6153 75.8507
L69.5201 75.8031
" />
<path d="M69.5201 75.8031
L69.4724 75.7555
" />
<path d="M69.4724 75.7555
L69.4248 75.6602
" />
<path d="M69.4248 74.7079
L69.4248 74.6126
" />
<path d="M69.4248 74.6126
L69.4724 74.5174
" />
<path d="M69.4724 74.5174
L69.5201 74.4698
" />
<path d="M69.5201 74.4698
L69.6153 74.4221
" />
<path d="M69.6153 74.4221
L69.8058 74.3745
" />
<path d="M69.8058 74.3745
L70.0439 74.3745
" />
<path d="M70.0439 74.3745
L70.2343 74.4221
" />
<path d="M70.2343 74.4221
L70.3296 74.4698
" />
<path d="M70.3296 74.4698
L70.3772 74.5174
" />
<path d="M70.3772 74.5174
L70.4248 74.6126
" />
<path d="M70.4248 74.6126
L70.4248 74.7079
" />
<path d="M70.4248 74.7079
L70.3772 74.8031
" />
<path d="M70.3772 74.8031
L70.3296 74.8507
" />
<path d="M70.3296 74.8507
L70.2343 74.8983
" />
<path d="M70.2343 74.8983
L70.0439 74.9460
" />
<path d="M70.0439 74.9460
L69.8058 74.9460
" />
<path d="M69.8058 74.9460
L69.6153 74.8983
" />
<path d="M69.6153 74.8983
L69.5201 74.8507
" />
<path d="M69.5201 74.8507
L69.4724 74.8031
" />
<path d="M69.4724 74.8031
L69.4248 74.7079
" />
<path d="M70.4248 73.1840
L69.7582 73.1840
" />
<path d="M69.8534 73.1840
L69.8058 73.1364
" />
<path d="M69.8058 73.1364
L69.7582 73.0412
" />
<path d="M69.7582 73.0412
L69.7582 72.8983
" />
<path d="M69.7582 72.8983
L69.8058 72.8031
" />
<path d="M69.8058 72.8031
L69.9010 72.7555
" />
<path d="M69.9010 72.7555
L70.4248 72.7555
" />
<path d="M69.9010 72.7555
L69.8058 72.7079
" />
<path d="M69.8058 72.7079
L69.7582 72.6126
" />
<path d="M69.7582 72.6126
L69.7582 72.4698
" />
<path d="M69.7582 72.4698
L69.8058 72.3745
" />
<path d="M69.8058 72.3745
L69.9010 72.3269
" />
<path d="M69.9010 72.3269
L70.4248 72.3269
" />
<path d="M70.4248 71.8507
L69.7582 71.8507
" />
<path d="M69.8534 71.8507
L69.8058 71.8031
" />
<path d="M69.8058 71.8031
L69.7582 71.7079
" />
<path d="M69.7582 71.7079
L69.7582 71.5650
" />
<path d="M69.7582 71.5650
L69.8058 71.4698
" />
<path d="M69.8058 71.4698
L69.9010 71.4221
" />
<path d="M69.9010 71.4221
L70.4248 71.4221
" />
<path d="M69.9010 71.4221
L69.8058 71.3745
" />
<path d="M69.8058 71.3745
L69.7582 71.2793
" />
<path d="M69.7582 71.2793
L69.7582 71.1364
" />
<path d="M69.7582 71.1364
L69.8058 71.0412
" />
<path d="M69.8058 71.0412
L69.9010 70.9936
" />
<path d="M69.9010 70.9936
L70.4248 70.9936
" />
</g></g>
<g style="fill:none; 
stroke:#000000; stroke-width:0.1000; stroke-opacity:1; 
stroke-linecap:round; stroke-linejoin:round;">
<path d="M75.7000 50.8000
L70.5336 50.8000
" />
<path d="M75.7000 100.3300
L70.5336 100.3300
" />
<path d="M71.1200 50.8000
L71.1200 100.3300
" />
<path d="M71.1200 50.8000
L71.1200 100.3300
" />
<path d="M71.1200 50.8000
L71.7064 51.9265
" />
<path d="M71.1200 50.8000
L70.5336 51.9265
" />
<path d="M71.1200 100.3300
L70.5336 99.2035
" />
<path d="M71.1200 100.3300
L71.7064 99.2035
" />
</g>
<g style="fill:none; 
stroke:#000000; stroke-width:0.1500; stroke-opacity:1; 
stroke-linecap:round; stroke-linejoin:round;">
<circle cx="111.7600" cy="146.0500" r="3.2000" /> 
<circle cx="171.4500" cy="146.0500" r="3.2000" /> 
<circle cx="111.7600" cy="54.6100" r="3.2000" /> 
<circle cx="171.4500" cy="54.6100" r="3.2000" /> 
</g>
<g style="fill:none; 
stroke:#000000; stroke-width:0.0500; stroke-opacity:1; 
stroke-linecap:round; stroke-linejoin:round;">
<path d="M78.7400 50.8000 A2.5400 2.5400 0.0 0 0 76.2000 53.3400" />
<path d="M172.7200 149.8600 A2.5400 2.5400 0.0 0 0 175.2600 147.3200" />
<path d="M175.2600 53.3400 A2.5400 2.5400 0.0 0 0 172.7200 50.8000" />
<path d="M172.7200 149.8600
L78.7400 149.8600
" />
<path d="M78.7400 50.8000
L172.7200 50.8000
" />
<path d="M175.2600 53.3400
L175.2600 147.3200
" />
<path d="M76.2000 147.3200 A2.5400 2.5400 0.0 0 0 78.7400 149.8600" />
<path d="M76.2000 147.3200
L76.2000 53.3400
" />
</g> 
</svg>
