%TF.GenerationSoftware,KiCad,Pcbnew,9.0.3*%
%TF.CreationDate,2025-07-19T18:36:15+03:00*%
%TF.ProjectId,PMCNV-AI4W,504d434e-562d-4414-9934-572e6b696361,rev?*%
%TF.SameCoordinates,Original*%
%TF.FileFunction,Soldermask,Top*%
%TF.FilePolarity,Negative*%
%FSLAX46Y46*%
G04 Gerber Fmt 4.6, Leading zero omitted, Abs format (unit mm)*
G04 Created by KiCad (PCBNEW 9.0.3) date 2025-07-19 18:36:15*
%MOMM*%
%LPD*%
G01*
G04 APERTURE LIST*
G04 Aperture macros list*
%AMRoundRect*
0 Rectangle with rounded corners*
0 $1 Rounding radius*
0 $2 $3 $4 $5 $6 $7 $8 $9 X,Y pos of 4 corners*
0 Add a 4 corners polygon primitive as box body*
4,1,4,$2,$3,$4,$5,$6,$7,$8,$9,$2,$3,0*
0 Add four circle primitives for the rounded corners*
1,1,$1+$1,$2,$3*
1,1,$1+$1,$4,$5*
1,1,$1+$1,$6,$7*
1,1,$1+$1,$8,$9*
0 Add four rect primitives between the rounded corners*
20,1,$1+$1,$2,$3,$4,$5,0*
20,1,$1+$1,$4,$5,$6,$7,0*
20,1,$1+$1,$6,$7,$8,$9,0*
20,1,$1+$1,$8,$9,$2,$3,0*%
G04 Aperture macros list end*
%ADD10RoundRect,0.200000X-0.200000X-0.275000X0.200000X-0.275000X0.200000X0.275000X-0.200000X0.275000X0*%
%ADD11RoundRect,0.225000X0.225000X0.250000X-0.225000X0.250000X-0.225000X-0.250000X0.225000X-0.250000X0*%
%ADD12RoundRect,0.225000X0.250000X-0.225000X0.250000X0.225000X-0.250000X0.225000X-0.250000X-0.225000X0*%
%ADD13C,2.000000*%
%ADD14C,1.725000*%
%ADD15RoundRect,0.200000X-0.275000X0.200000X-0.275000X-0.200000X0.275000X-0.200000X0.275000X0.200000X0*%
%ADD16RoundRect,0.200000X0.275000X-0.200000X0.275000X0.200000X-0.275000X0.200000X-0.275000X-0.200000X0*%
%ADD17RoundRect,0.250001X0.624999X-0.462499X0.624999X0.462499X-0.624999X0.462499X-0.624999X-0.462499X0*%
%ADD18R,1.803400X0.635000*%
%ADD19R,2.997200X2.590800*%
%ADD20R,1.397000X1.738275*%
%ADD21R,1.854200X0.482600*%
%ADD22RoundRect,0.250000X0.475000X-0.250000X0.475000X0.250000X-0.475000X0.250000X-0.475000X-0.250000X0*%
%ADD23R,1.800000X0.600000*%
%ADD24R,3.000000X2.600000*%
%ADD25R,0.558800X1.181100*%
%ADD26C,1.700000*%
%ADD27R,0.355600X1.473200*%
%ADD28RoundRect,0.250000X-0.475000X0.250000X-0.475000X-0.250000X0.475000X-0.250000X0.475000X0.250000X0*%
%ADD29RoundRect,0.225000X-0.250000X0.225000X-0.250000X-0.225000X0.250000X-0.225000X0.250000X0.225000X0*%
G04 APERTURE END LIST*
D10*
%TO.C,R5*%
X21175000Y6000000D03*
X22825000Y6000000D03*
%TD*%
%TO.C,R9*%
X21175000Y-10000000D03*
X22825000Y-10000000D03*
%TD*%
D11*
%TO.C,C20*%
X17775000Y14000000D03*
X16225000Y14000000D03*
%TD*%
%TO.C,C21*%
X17775000Y10000000D03*
X16225000Y10000000D03*
%TD*%
D12*
%TO.C,C9*%
X2000000Y14225000D03*
X2000000Y15775000D03*
%TD*%
%TO.C,C17*%
X13000000Y-12775000D03*
X13000000Y-11225000D03*
%TD*%
D13*
%TO.C,J3*%
X31000000Y2540000D03*
X31000000Y6040000D03*
X31000000Y9540000D03*
X31000000Y13040000D03*
X31000000Y16540000D03*
X31000000Y20040000D03*
X31000000Y23540000D03*
X33500000Y2540000D03*
X33500000Y6040000D03*
X33500000Y9540000D03*
X33500000Y13040000D03*
X33500000Y16540000D03*
X33500000Y20040000D03*
X33500000Y23540000D03*
%TD*%
D12*
%TO.C,C14*%
X13000000Y11225000D03*
X13000000Y12775000D03*
%TD*%
D11*
%TO.C,C19*%
X17775000Y18000000D03*
X16225000Y18000000D03*
%TD*%
D12*
%TO.C,C15*%
X13000000Y3225000D03*
X13000000Y4775000D03*
%TD*%
D11*
%TO.C,C18*%
X17775000Y22000000D03*
X16225000Y22000000D03*
%TD*%
D14*
%TO.C,U3*%
X-15000000Y0D03*
%TD*%
D15*
%TO.C,R2*%
X5000000Y15825000D03*
X5000000Y14175000D03*
%TD*%
D11*
%TO.C,C25*%
X17775000Y-6000000D03*
X16225000Y-6000000D03*
%TD*%
D14*
%TO.C,U2*%
X-24000000Y8000000D03*
%TD*%
D10*
%TO.C,R4*%
X21175000Y10000000D03*
X22825000Y10000000D03*
%TD*%
D11*
%TO.C,C23*%
X17775000Y2000000D03*
X16225000Y2000000D03*
%TD*%
D12*
%TO.C,C7*%
X-2000000Y7225000D03*
X-2000000Y8775000D03*
%TD*%
D16*
%TO.C,R18*%
X7000000Y34350000D03*
X7000000Y36000000D03*
%TD*%
D17*
%TO.C,L1*%
X5000000Y18512500D03*
X5000000Y21487500D03*
%TD*%
D13*
%TO.C,J4*%
X31000000Y-23540000D03*
X31000000Y-20040000D03*
X31000000Y-16540000D03*
X31000000Y-13040000D03*
X31000000Y-9540000D03*
X31000000Y-6040000D03*
X31000000Y-2540000D03*
X33500000Y-23540000D03*
X33500000Y-20040000D03*
X33500000Y-16540000D03*
X33500000Y-13040000D03*
X33500000Y-9540000D03*
X33500000Y-6040000D03*
X33500000Y-2540000D03*
%TD*%
D18*
%TO.C,J2*%
X-25556000Y-15499992D03*
X-25556000Y-14499994D03*
X-25556000Y-13499996D03*
X-25556000Y-12499998D03*
X-25556000Y-11500000D03*
X-25556000Y-10500000D03*
X-25556000Y-9500000D03*
X-25556000Y-8500000D03*
X-25556000Y-7500002D03*
X-25556000Y-6500004D03*
X-25556000Y-5500006D03*
X-25556000Y-4500008D03*
D19*
X-23385999Y-17850003D03*
X-23385999Y-2149997D03*
%TD*%
D16*
%TO.C,R1*%
X0Y-13825000D03*
X0Y-12175000D03*
%TD*%
D20*
%TO.C,C8*%
X1000000Y6913337D03*
X1000000Y9086663D03*
%TD*%
D11*
%TO.C,C24*%
X17775000Y-2000000D03*
X16225000Y-2000000D03*
%TD*%
D21*
%TO.C,U5*%
X-24876800Y26445000D03*
X-24876800Y25175000D03*
X-24876800Y23905000D03*
X-24876800Y22635000D03*
X-24876800Y21365000D03*
X-24876800Y20095000D03*
X-24876800Y18825000D03*
X-24876800Y17555000D03*
X-15123200Y17555000D03*
X-15123200Y18825000D03*
X-15123200Y20095000D03*
X-15123200Y21365000D03*
X-15123200Y22635000D03*
X-15123200Y23905000D03*
X-15123200Y25175000D03*
X-15123200Y26445000D03*
%TD*%
D12*
%TO.C,C16*%
X13000000Y-4775000D03*
X13000000Y-3225000D03*
%TD*%
D22*
%TO.C,C2*%
X4000000Y34050000D03*
X4000000Y35950000D03*
%TD*%
D23*
%TO.C,JM1*%
X-36546000Y10500000D03*
X-36546000Y11500000D03*
X-36546000Y12500000D03*
X-36546000Y13500000D03*
X-36546000Y14500000D03*
X-36546000Y15500000D03*
X-36546000Y16500000D03*
X-36546000Y17500000D03*
X-36546000Y18500000D03*
X-36546000Y19500000D03*
X-36546000Y20500000D03*
X-36546000Y21500000D03*
X-36546000Y22500000D03*
X-36546000Y23500000D03*
X-36546000Y24500000D03*
X-36546000Y25500000D03*
X-36546000Y26500000D03*
X-36546000Y27500000D03*
X-36546000Y28500000D03*
X-36546000Y29500000D03*
D24*
X-34375000Y8150000D03*
X-34375000Y31850000D03*
%TD*%
D25*
%TO.C,U6*%
X4950001Y-11533150D03*
X4000000Y-11533150D03*
X3049999Y-11533150D03*
X3049999Y-14466850D03*
X4000000Y-14466850D03*
X4950001Y-14466850D03*
%TD*%
D11*
%TO.C,C27*%
X17775000Y-14000000D03*
X16225000Y-14000000D03*
%TD*%
D12*
%TO.C,C11*%
X5000000Y25225000D03*
X5000000Y26775000D03*
%TD*%
D26*
%TO.C,PS1*%
X1000000Y45000000D03*
X1000000Y42460000D03*
X1000000Y37380000D03*
X1000000Y32300000D03*
%TD*%
D27*
%TO.C,U7*%
X1950000Y-2819400D03*
X2600001Y-2819400D03*
X3250000Y-2819400D03*
X3900001Y-2819400D03*
X4549999Y-2819400D03*
X5200001Y-2819400D03*
X5849999Y-2819400D03*
X6499998Y-2819400D03*
X7149999Y-2819400D03*
X7799998Y-2819400D03*
X8449999Y-2819400D03*
X9099998Y-2819400D03*
X9749999Y-2819400D03*
X10399998Y-2819400D03*
X10400000Y2819400D03*
X9749999Y2819400D03*
X9100000Y2819400D03*
X8449999Y2819400D03*
X7800001Y2819400D03*
X7149999Y2819400D03*
X6500001Y2819400D03*
X5849999Y2819400D03*
X5200001Y2819400D03*
X4549999Y2819400D03*
X3900001Y2819400D03*
X3250000Y2819400D03*
X2600001Y2819400D03*
X1950000Y2819400D03*
%TD*%
D28*
%TO.C,C1*%
X4000000Y44950000D03*
X4000000Y43050000D03*
%TD*%
D12*
%TO.C,C12*%
X7000000Y7225000D03*
X7000000Y8775000D03*
%TD*%
D10*
%TO.C,R7*%
X21175000Y-2000000D03*
X22825000Y-2000000D03*
%TD*%
D12*
%TO.C,C13*%
X13000000Y19225000D03*
X13000000Y20775000D03*
%TD*%
D11*
%TO.C,C26*%
X17775000Y-10000000D03*
X16225000Y-10000000D03*
%TD*%
D10*
%TO.C,R3*%
X21175000Y14000000D03*
X22825000Y14000000D03*
%TD*%
D11*
%TO.C,C22*%
X17775000Y6000000D03*
X16225000Y6000000D03*
%TD*%
D10*
%TO.C,R8*%
X21175000Y-6000000D03*
X22825000Y-6000000D03*
%TD*%
D20*
%TO.C,C10*%
X4000000Y6913337D03*
X4000000Y9086663D03*
%TD*%
D29*
%TO.C,C5*%
X-14500000Y30275000D03*
X-14500000Y28725000D03*
%TD*%
D12*
%TO.C,C3*%
X-25500000Y28725000D03*
X-25500000Y30275000D03*
%TD*%
D10*
%TO.C,R6*%
X21175000Y2000000D03*
X22825000Y2000000D03*
%TD*%
%TO.C,R10*%
X21175000Y-14000000D03*
X22825000Y-14000000D03*
%TD*%
M02*
