<?xml version="1.0" standalone="no"?>
 <!DOCTYPE svg PUBLIC "-//W3C//DTD SVG 1.1//EN" 
 "http://www.w3.org/Graphics/SVG/1.1/DTD/svg11.dtd"> 
<svg
  xmlns:svg="http://www.w3.org/2000/svg"
  xmlns="http://www.w3.org/2000/svg"
  xmlns:xlink="http://www.w3.org/1999/xlink"
  version="1.1"
  width="148.0058mm" height="210.0072mm" viewBox="0.0000 0.0000 148.0058 210.0072">
<title>SVG Image created as PM-Bus-User_Comments.svg date 2024/07/15 09:39:42 </title>
  <desc>Image generated by PCBNEW </desc>
<g style="fill:#000000; fill-opacity:1.0000;stroke:#000000; stroke-opacity:1.0000;
stroke-linecap:round; stroke-linejoin:round;"
 transform="translate(0 0) scale(1 1)">
</g>
<g style="fill:none; 
stroke:#000000; stroke-width:0.1500; stroke-opacity:1; 
stroke-linecap:round; stroke-linejoin:round;">
<path d="M28.0058 166.0072
L136.0058 166.0072
L136.0058 198.0072
L28.0058 198.0072
L28.0058 166.0072
" />
</g>
<g style="fill:none; 
stroke:#000000; stroke-width:0.1500; stroke-opacity:1; 
stroke-linecap:round; stroke-linejoin:round;">
<path d="M10.0000 10.0000
L138.0058 10.0000
L138.0058 200.0072
L10.0000 200.0072
L10.0000 10.0000
" />
</g>
<g style="fill:none; 
stroke:#000000; stroke-width:0.1500; stroke-opacity:1; 
stroke-linecap:round; stroke-linejoin:round;">
<path d="M12.0000 12.0000
L136.0058 12.0000
L136.0058 198.0072
L12.0000 198.0072
L12.0000 12.0000
" />
</g>
<g style="fill:none; 
stroke:#000000; stroke-width:0.1500; stroke-opacity:1; 
stroke-linecap:round; stroke-linejoin:round;">
<path d="M60.0000 12.0000
L60.0000 10.0000
" />
</g>
<g style="fill:none; 
stroke:#000000; stroke-width:0.1500; stroke-opacity:1; 
stroke-linecap:round; stroke-linejoin:round;">
<path d="M110.0000 12.0000
L110.0000 10.0000
" />
</g>
<g style="fill:none; 
stroke:#000000; stroke-width:0.1500; stroke-opacity:1; 
stroke-linecap:round; stroke-linejoin:round;">
<text x="35.0000" y="11.6500"
textLength="1.4281" font-size="1.7333" lengthAdjust="spacingAndGlyphs"
text-anchor="start" opacity="0">1</text>
<g class="stroked-text"><desc>1</desc>
<path d="M36.0892 11.5936
L35.3463 11.5936
" />
<path d="M35.7177 11.5936
L35.7177 10.2936
" />
<path d="M35.7177 10.2936
L35.5939 10.4793
" />
<path d="M35.5939 10.4793
L35.4701 10.6031
" />
<path d="M35.4701 10.6031
L35.3463 10.6650
" />
</g></g>
<g style="fill:none; 
stroke:#000000; stroke-width:0.1500; stroke-opacity:1; 
stroke-linecap:round; stroke-linejoin:round;">
<text x="85.0000" y="11.6500"
textLength="1.4281" font-size="1.7333" lengthAdjust="spacingAndGlyphs"
text-anchor="start" opacity="0">2</text>
<g class="stroked-text"><desc>2</desc>
<path d="M85.3463 10.4174
L85.4082 10.3555
" />
<path d="M85.4082 10.3555
L85.5320 10.2936
" />
<path d="M85.5320 10.2936
L85.8415 10.2936
" />
<path d="M85.8415 10.2936
L85.9654 10.3555
" />
<path d="M85.9654 10.3555
L86.0273 10.4174
" />
<path d="M86.0273 10.4174
L86.0892 10.5412
" />
<path d="M86.0892 10.5412
L86.0892 10.6650
" />
<path d="M86.0892 10.6650
L86.0273 10.8507
" />
<path d="M86.0273 10.8507
L85.2844 11.5936
" />
<path d="M85.2844 11.5936
L86.0892 11.5936
" />
</g></g>
<g style="fill:none; 
stroke:#000000; stroke-width:0.1500; stroke-opacity:1; 
stroke-linecap:round; stroke-linejoin:round;">
<text x="135.0000" y="11.6500"
textLength="1.4281" font-size="1.7333" lengthAdjust="spacingAndGlyphs"
text-anchor="start" opacity="0">3</text>
<g class="stroked-text"><desc>3</desc>
<path d="M135.2844 10.2936
L136.0892 10.2936
" />
<path d="M136.0892 10.2936
L135.6558 10.7888
" />
<path d="M135.6558 10.7888
L135.8415 10.7888
" />
<path d="M135.8415 10.7888
L135.9654 10.8507
" />
<path d="M135.9654 10.8507
L136.0273 10.9127
" />
<path d="M136.0273 10.9127
L136.0892 11.0365
" />
<path d="M136.0892 11.0365
L136.0892 11.3460
" />
<path d="M136.0892 11.3460
L136.0273 11.4698
" />
<path d="M136.0273 11.4698
L135.9654 11.5317
" />
<path d="M135.9654 11.5317
L135.8415 11.5936
" />
<path d="M135.8415 11.5936
L135.4701 11.5936
" />
<path d="M135.4701 11.5936
L135.3463 11.5317
" />
<path d="M135.3463 11.5317
L135.2844 11.4698
" />
</g></g>
<g style="fill:none; 
stroke:#000000; stroke-width:0.1500; stroke-opacity:1; 
stroke-linecap:round; stroke-linejoin:round;">
<path d="M60.0000 198.0072
L60.0000 200.0072
" />
</g>
<g style="fill:none; 
stroke:#000000; stroke-width:0.1500; stroke-opacity:1; 
stroke-linecap:round; stroke-linejoin:round;">
<path d="M110.0000 198.0072
L110.0000 200.0072
" />
</g>
<g style="fill:none; 
stroke:#000000; stroke-width:0.1500; stroke-opacity:1; 
stroke-linecap:round; stroke-linejoin:round;">
<text x="35.0000" y="199.6572"
textLength="1.4281" font-size="1.7333" lengthAdjust="spacingAndGlyphs"
text-anchor="start" opacity="0">1</text>
<g class="stroked-text"><desc>1</desc>
<path d="M36.0892 199.6008
L35.3463 199.6008
" />
<path d="M35.7177 199.6008
L35.7177 198.3008
" />
<path d="M35.7177 198.3008
L35.5939 198.4865
" />
<path d="M35.5939 198.4865
L35.4701 198.6103
" />
<path d="M35.4701 198.6103
L35.3463 198.6722
" />
</g></g>
<g style="fill:none; 
stroke:#000000; stroke-width:0.1500; stroke-opacity:1; 
stroke-linecap:round; stroke-linejoin:round;">
<text x="85.0000" y="199.6572"
textLength="1.4281" font-size="1.7333" lengthAdjust="spacingAndGlyphs"
text-anchor="start" opacity="0">2</text>
<g class="stroked-text"><desc>2</desc>
<path d="M85.3463 198.4246
L85.4082 198.3627
" />
<path d="M85.4082 198.3627
L85.5320 198.3008
" />
<path d="M85.5320 198.3008
L85.8415 198.3008
" />
<path d="M85.8415 198.3008
L85.9654 198.3627
" />
<path d="M85.9654 198.3627
L86.0273 198.4246
" />
<path d="M86.0273 198.4246
L86.0892 198.5484
" />
<path d="M86.0892 198.5484
L86.0892 198.6722
" />
<path d="M86.0892 198.6722
L86.0273 198.8579
" />
<path d="M86.0273 198.8579
L85.2844 199.6008
" />
<path d="M85.2844 199.6008
L86.0892 199.6008
" />
</g></g>
<g style="fill:none; 
stroke:#000000; stroke-width:0.1500; stroke-opacity:1; 
stroke-linecap:round; stroke-linejoin:round;">
<text x="135.0000" y="199.6572"
textLength="1.4281" font-size="1.7333" lengthAdjust="spacingAndGlyphs"
text-anchor="start" opacity="0">3</text>
<g class="stroked-text"><desc>3</desc>
<path d="M135.2844 198.3008
L136.0892 198.3008
" />
<path d="M136.0892 198.3008
L135.6558 198.7960
" />
<path d="M135.6558 198.7960
L135.8415 198.7960
" />
<path d="M135.8415 198.7960
L135.9654 198.8579
" />
<path d="M135.9654 198.8579
L136.0273 198.9199
" />
<path d="M136.0273 198.9199
L136.0892 199.0437
" />
<path d="M136.0892 199.0437
L136.0892 199.3532
" />
<path d="M136.0892 199.3532
L136.0273 199.4770
" />
<path d="M136.0273 199.4770
L135.9654 199.5389
" />
<path d="M135.9654 199.5389
L135.8415 199.6008
" />
<path d="M135.8415 199.6008
L135.4701 199.6008
" />
<path d="M135.4701 199.6008
L135.3463 199.5389
" />
<path d="M135.3463 199.5389
L135.2844 199.4770
" />
</g></g>
<g style="fill:none; 
stroke:#000000; stroke-width:0.1500; stroke-opacity:1; 
stroke-linecap:round; stroke-linejoin:round;">
<path d="M10.0000 60.0000
L12.0000 60.0000
" />
</g>
<g style="fill:none; 
stroke:#000000; stroke-width:0.1500; stroke-opacity:1; 
stroke-linecap:round; stroke-linejoin:round;">
<path d="M10.0000 110.0000
L12.0000 110.0000
" />
</g>
<g style="fill:none; 
stroke:#000000; stroke-width:0.1500; stroke-opacity:1; 
stroke-linecap:round; stroke-linejoin:round;">
<path d="M10.0000 160.0000
L12.0000 160.0000
" />
</g>
<g style="fill:none; 
stroke:#000000; stroke-width:0.1500; stroke-opacity:1; 
stroke-linecap:round; stroke-linejoin:round;">
<text x="11.0000" y="35.6500"
textLength="1.3043" font-size="1.7333" lengthAdjust="spacingAndGlyphs"
text-anchor="middle" opacity="0">A</text>
<g class="stroked-text"><desc>A</desc>
<path d="M10.6905 35.2222
L11.3095 35.2222
" />
<path d="M10.5667 35.5936
L11.0000 34.2936
" />
<path d="M11.0000 34.2936
L11.4333 35.5936
" />
</g></g>
<g style="fill:none; 
stroke:#000000; stroke-width:0.1500; stroke-opacity:1; 
stroke-linecap:round; stroke-linejoin:round;">
<text x="11.0000" y="85.6500"
textLength="1.4900" font-size="1.7333" lengthAdjust="spacingAndGlyphs"
text-anchor="middle" opacity="0">B</text>
<g class="stroked-text"><desc>B</desc>
<path d="M11.0929 84.9127
L11.2786 84.9746
" />
<path d="M11.2786 84.9746
L11.3405 85.0365
" />
<path d="M11.3405 85.0365
L11.4024 85.1603
" />
<path d="M11.4024 85.1603
L11.4024 85.3460
" />
<path d="M11.4024 85.3460
L11.3405 85.4698
" />
<path d="M11.3405 85.4698
L11.2786 85.5317
" />
<path d="M11.2786 85.5317
L11.1548 85.5936
" />
<path d="M11.1548 85.5936
L10.6595 85.5936
" />
<path d="M10.6595 85.5936
L10.6595 84.2936
" />
<path d="M10.6595 84.2936
L11.0929 84.2936
" />
<path d="M11.0929 84.2936
L11.2167 84.3555
" />
<path d="M11.2167 84.3555
L11.2786 84.4174
" />
<path d="M11.2786 84.4174
L11.3405 84.5412
" />
<path d="M11.3405 84.5412
L11.3405 84.6650
" />
<path d="M11.3405 84.6650
L11.2786 84.7888
" />
<path d="M11.2786 84.7888
L11.2167 84.8507
" />
<path d="M11.2167 84.8507
L11.0929 84.9127
" />
<path d="M11.0929 84.9127
L10.6595 84.9127
" />
</g></g>
<g style="fill:none; 
stroke:#000000; stroke-width:0.1500; stroke-opacity:1; 
stroke-linecap:round; stroke-linejoin:round;">
<text x="11.0000" y="135.6500"
textLength="1.4900" font-size="1.7333" lengthAdjust="spacingAndGlyphs"
text-anchor="middle" opacity="0">C</text>
<g class="stroked-text"><desc>C</desc>
<path d="M11.4024 135.4698
L11.3405 135.5317
" />
<path d="M11.3405 135.5317
L11.1548 135.5936
" />
<path d="M11.1548 135.5936
L11.0310 135.5936
" />
<path d="M11.0310 135.5936
L10.8452 135.5317
" />
<path d="M10.8452 135.5317
L10.7214 135.4079
" />
<path d="M10.7214 135.4079
L10.6595 135.2841
" />
<path d="M10.6595 135.2841
L10.5976 135.0365
" />
<path d="M10.5976 135.0365
L10.5976 134.8507
" />
<path d="M10.5976 134.8507
L10.6595 134.6031
" />
<path d="M10.6595 134.6031
L10.7214 134.4793
" />
<path d="M10.7214 134.4793
L10.8452 134.3555
" />
<path d="M10.8452 134.3555
L11.0310 134.2936
" />
<path d="M11.0310 134.2936
L11.1548 134.2936
" />
<path d="M11.1548 134.2936
L11.3405 134.3555
" />
<path d="M11.3405 134.3555
L11.4024 134.4174
" />
</g></g>
<g style="fill:none; 
stroke:#000000; stroke-width:0.1500; stroke-opacity:1; 
stroke-linecap:round; stroke-linejoin:round;">
<text x="11.0000" y="185.6500"
textLength="1.4900" font-size="1.7333" lengthAdjust="spacingAndGlyphs"
text-anchor="middle" opacity="0">D</text>
<g class="stroked-text"><desc>D</desc>
<path d="M10.6595 185.5936
L10.6595 184.2936
" />
<path d="M10.6595 184.2936
L10.9690 184.2936
" />
<path d="M10.9690 184.2936
L11.1548 184.3555
" />
<path d="M11.1548 184.3555
L11.2786 184.4793
" />
<path d="M11.2786 184.4793
L11.3405 184.6031
" />
<path d="M11.3405 184.6031
L11.4024 184.8507
" />
<path d="M11.4024 184.8507
L11.4024 185.0365
" />
<path d="M11.4024 185.0365
L11.3405 185.2841
" />
<path d="M11.3405 185.2841
L11.2786 185.4079
" />
<path d="M11.2786 185.4079
L11.1548 185.5317
" />
<path d="M11.1548 185.5317
L10.9690 185.5936
" />
<path d="M10.9690 185.5936
L10.6595 185.5936
" />
</g></g>
<g style="fill:none; 
stroke:#000000; stroke-width:0.1500; stroke-opacity:1; 
stroke-linecap:round; stroke-linejoin:round;">
<path d="M138.0058 60.0000
L136.0058 60.0000
" />
</g>
<g style="fill:none; 
stroke:#000000; stroke-width:0.1500; stroke-opacity:1; 
stroke-linecap:round; stroke-linejoin:round;">
<path d="M138.0058 110.0000
L136.0058 110.0000
" />
</g>
<g style="fill:none; 
stroke:#000000; stroke-width:0.1500; stroke-opacity:1; 
stroke-linecap:round; stroke-linejoin:round;">
<path d="M138.0058 160.0000
L136.0058 160.0000
" />
</g>
<g style="fill:none; 
stroke:#000000; stroke-width:0.1500; stroke-opacity:1; 
stroke-linecap:round; stroke-linejoin:round;">
<text x="137.0058" y="35.6500"
textLength="1.3043" font-size="1.7333" lengthAdjust="spacingAndGlyphs"
text-anchor="middle" opacity="0">A</text>
<g class="stroked-text"><desc>A</desc>
<path d="M136.6963 35.2222
L137.3153 35.2222
" />
<path d="M136.5725 35.5936
L137.0058 34.2936
" />
<path d="M137.0058 34.2936
L137.4391 35.5936
" />
</g></g>
<g style="fill:none; 
stroke:#000000; stroke-width:0.1500; stroke-opacity:1; 
stroke-linecap:round; stroke-linejoin:round;">
<text x="137.0058" y="85.6500"
textLength="1.4900" font-size="1.7333" lengthAdjust="spacingAndGlyphs"
text-anchor="middle" opacity="0">B</text>
<g class="stroked-text"><desc>B</desc>
<path d="M137.0987 84.9127
L137.2844 84.9746
" />
<path d="M137.2844 84.9746
L137.3463 85.0365
" />
<path d="M137.3463 85.0365
L137.4082 85.1603
" />
<path d="M137.4082 85.1603
L137.4082 85.3460
" />
<path d="M137.4082 85.3460
L137.3463 85.4698
" />
<path d="M137.3463 85.4698
L137.2844 85.5317
" />
<path d="M137.2844 85.5317
L137.1606 85.5936
" />
<path d="M137.1606 85.5936
L136.6653 85.5936
" />
<path d="M136.6653 85.5936
L136.6653 84.2936
" />
<path d="M136.6653 84.2936
L137.0987 84.2936
" />
<path d="M137.0987 84.2936
L137.2225 84.3555
" />
<path d="M137.2225 84.3555
L137.2844 84.4174
" />
<path d="M137.2844 84.4174
L137.3463 84.5412
" />
<path d="M137.3463 84.5412
L137.3463 84.6650
" />
<path d="M137.3463 84.6650
L137.2844 84.7888
" />
<path d="M137.2844 84.7888
L137.2225 84.8507
" />
<path d="M137.2225 84.8507
L137.0987 84.9127
" />
<path d="M137.0987 84.9127
L136.6653 84.9127
" />
</g></g>
<g style="fill:none; 
stroke:#000000; stroke-width:0.1500; stroke-opacity:1; 
stroke-linecap:round; stroke-linejoin:round;">
<text x="137.0058" y="135.6500"
textLength="1.4900" font-size="1.7333" lengthAdjust="spacingAndGlyphs"
text-anchor="middle" opacity="0">C</text>
<g class="stroked-text"><desc>C</desc>
<path d="M137.4082 135.4698
L137.3463 135.5317
" />
<path d="M137.3463 135.5317
L137.1606 135.5936
" />
<path d="M137.1606 135.5936
L137.0368 135.5936
" />
<path d="M137.0368 135.5936
L136.8510 135.5317
" />
<path d="M136.8510 135.5317
L136.7272 135.4079
" />
<path d="M136.7272 135.4079
L136.6653 135.2841
" />
<path d="M136.6653 135.2841
L136.6034 135.0365
" />
<path d="M136.6034 135.0365
L136.6034 134.8507
" />
<path d="M136.6034 134.8507
L136.6653 134.6031
" />
<path d="M136.6653 134.6031
L136.7272 134.4793
" />
<path d="M136.7272 134.4793
L136.8510 134.3555
" />
<path d="M136.8510 134.3555
L137.0368 134.2936
" />
<path d="M137.0368 134.2936
L137.1606 134.2936
" />
<path d="M137.1606 134.2936
L137.3463 134.3555
" />
<path d="M137.3463 134.3555
L137.4082 134.4174
" />
</g></g>
<g style="fill:none; 
stroke:#000000; stroke-width:0.1500; stroke-opacity:1; 
stroke-linecap:round; stroke-linejoin:round;">
<text x="137.0058" y="185.6500"
textLength="1.4900" font-size="1.7333" lengthAdjust="spacingAndGlyphs"
text-anchor="middle" opacity="0">D</text>
<g class="stroked-text"><desc>D</desc>
<path d="M136.6653 185.5936
L136.6653 184.2936
" />
<path d="M136.6653 184.2936
L136.9748 184.2936
" />
<path d="M136.9748 184.2936
L137.1606 184.3555
" />
<path d="M137.1606 184.3555
L137.2844 184.4793
" />
<path d="M137.2844 184.4793
L137.3463 184.6031
" />
<path d="M137.3463 184.6031
L137.4082 184.8507
" />
<path d="M137.4082 184.8507
L137.4082 185.0365
" />
<path d="M137.4082 185.0365
L137.3463 185.2841
" />
<path d="M137.3463 185.2841
L137.2844 185.4079
" />
<path d="M137.2844 185.4079
L137.1606 185.5317
" />
<path d="M137.1606 185.5317
L136.9748 185.5936
" />
<path d="M136.9748 185.5936
L136.6653 185.5936
" />
</g></g>
<g style="fill:none; 
stroke:#000000; stroke-width:0.1500; stroke-opacity:1; 
stroke-linecap:round; stroke-linejoin:round;">
<text x="51.0058" y="193.8572"
textLength="7.0071" font-size="2.0000" lengthAdjust="spacingAndGlyphs"
text-anchor="start" opacity="0">Date: </text>
<g class="stroked-text"><desc>Date: </desc>
<path d="M51.4616 193.7933
L51.4616 192.2933
" />
<path d="M51.4616 192.2933
L51.8188 192.2933
" />
<path d="M51.8188 192.2933
L52.0331 192.3648
" />
<path d="M52.0331 192.3648
L52.1759 192.5076
" />
<path d="M52.1759 192.5076
L52.2473 192.6505
" />
<path d="M52.2473 192.6505
L52.3188 192.9362
" />
<path d="M52.3188 192.9362
L52.3188 193.1505
" />
<path d="M52.3188 193.1505
L52.2473 193.4362
" />
<path d="M52.2473 193.4362
L52.1759 193.5790
" />
<path d="M52.1759 193.5790
L52.0331 193.7219
" />
<path d="M52.0331 193.7219
L51.8188 193.7933
" />
<path d="M51.8188 193.7933
L51.4616 193.7933
" />
<path d="M53.6045 193.7933
L53.6045 193.0076
" />
<path d="M53.6045 193.0076
L53.5331 192.8648
" />
<path d="M53.5331 192.8648
L53.3902 192.7933
" />
<path d="M53.3902 192.7933
L53.1045 192.7933
" />
<path d="M53.1045 192.7933
L52.9616 192.8648
" />
<path d="M53.6045 193.7219
L53.4616 193.7933
" />
<path d="M53.4616 193.7933
L53.1045 193.7933
" />
<path d="M53.1045 193.7933
L52.9616 193.7219
" />
<path d="M52.9616 193.7219
L52.8902 193.5790
" />
<path d="M52.8902 193.5790
L52.8902 193.4362
" />
<path d="M52.8902 193.4362
L52.9616 193.2933
" />
<path d="M52.9616 193.2933
L53.1045 193.2219
" />
<path d="M53.1045 193.2219
L53.4616 193.2219
" />
<path d="M53.4616 193.2219
L53.6045 193.1505
" />
<path d="M54.1045 192.7933
L54.6759 192.7933
" />
<path d="M54.3188 192.2933
L54.3188 193.5790
" />
<path d="M54.3188 193.5790
L54.3902 193.7219
" />
<path d="M54.3902 193.7219
L54.5331 193.7933
" />
<path d="M54.5331 193.7933
L54.6759 193.7933
" />
<path d="M55.7473 193.7219
L55.6045 193.7933
" />
<path d="M55.6045 193.7933
L55.3188 193.7933
" />
<path d="M55.3188 193.7933
L55.1759 193.7219
" />
<path d="M55.1759 193.7219
L55.1045 193.5790
" />
<path d="M55.1045 193.5790
L55.1045 193.0076
" />
<path d="M55.1045 193.0076
L55.1759 192.8648
" />
<path d="M55.1759 192.8648
L55.3188 192.7933
" />
<path d="M55.3188 192.7933
L55.6045 192.7933
" />
<path d="M55.6045 192.7933
L55.7473 192.8648
" />
<path d="M55.7473 192.8648
L55.8188 193.0076
" />
<path d="M55.8188 193.0076
L55.8188 193.1505
" />
<path d="M55.8188 193.1505
L55.1045 193.2933
" />
<path d="M56.4616 193.6505
L56.5331 193.7219
" />
<path d="M56.5331 193.7219
L56.4616 193.7933
" />
<path d="M56.4616 193.7933
L56.3902 193.7219
" />
<path d="M56.3902 193.7219
L56.4616 193.6505
" />
<path d="M56.4616 193.6505
L56.4616 193.7933
" />
<path d="M56.4616 192.8648
L56.5331 192.9362
" />
<path d="M56.5331 192.9362
L56.4616 193.0076
" />
<path d="M56.4616 193.0076
L56.3902 192.9362
" />
<path d="M56.3902 192.9362
L56.4616 192.8648
" />
<path d="M56.4616 192.8648
L56.4616 193.0076
" />
</g></g>
<g style="fill:none; 
stroke:#000000; stroke-width:0.1500; stroke-opacity:1; 
stroke-linecap:round; stroke-linejoin:round;">
<path d="M28.0058 194.5072
L136.0058 194.5072
" />
</g>
<g style="fill:none; 
stroke:#000000; stroke-width:0.1500; stroke-opacity:1; 
stroke-linecap:round; stroke-linejoin:round;">
<text x="29.0058" y="196.6572"
textLength="20.8643" font-size="2.0000" lengthAdjust="spacingAndGlyphs"
text-anchor="start" opacity="0">KiCad E.D.A. 8.0.3</text>
<g class="stroked-text"><desc>KiCad E.D.A. 8.0.3</desc>
<path d="M29.4616 196.5933
L29.4616 195.0933
" />
<path d="M30.3188 196.5933
L29.6759 195.7362
" />
<path d="M30.3188 195.0933
L29.4616 195.9505
" />
<path d="M30.9616 196.5933
L30.9616 195.5933
" />
<path d="M30.9616 195.0933
L30.8902 195.1648
" />
<path d="M30.8902 195.1648
L30.9616 195.2362
" />
<path d="M30.9616 195.2362
L31.0331 195.1648
" />
<path d="M31.0331 195.1648
L30.9616 195.0933
" />
<path d="M30.9616 195.0933
L30.9616 195.2362
" />
<path d="M32.5331 196.4505
L32.4616 196.5219
" />
<path d="M32.4616 196.5219
L32.2473 196.5933
" />
<path d="M32.2473 196.5933
L32.1045 196.5933
" />
<path d="M32.1045 196.5933
L31.8902 196.5219
" />
<path d="M31.8902 196.5219
L31.7473 196.3790
" />
<path d="M31.7473 196.3790
L31.6759 196.2362
" />
<path d="M31.6759 196.2362
L31.6045 195.9505
" />
<path d="M31.6045 195.9505
L31.6045 195.7362
" />
<path d="M31.6045 195.7362
L31.6759 195.4505
" />
<path d="M31.6759 195.4505
L31.7473 195.3076
" />
<path d="M31.7473 195.3076
L31.8902 195.1648
" />
<path d="M31.8902 195.1648
L32.1045 195.0933
" />
<path d="M32.1045 195.0933
L32.2473 195.0933
" />
<path d="M32.2473 195.0933
L32.4616 195.1648
" />
<path d="M32.4616 195.1648
L32.5331 195.2362
" />
<path d="M33.8188 196.5933
L33.8188 195.8076
" />
<path d="M33.8188 195.8076
L33.7473 195.6648
" />
<path d="M33.7473 195.6648
L33.6045 195.5933
" />
<path d="M33.6045 195.5933
L33.3188 195.5933
" />
<path d="M33.3188 195.5933
L33.1759 195.6648
" />
<path d="M33.8188 196.5219
L33.6759 196.5933
" />
<path d="M33.6759 196.5933
L33.3188 196.5933
" />
<path d="M33.3188 196.5933
L33.1759 196.5219
" />
<path d="M33.1759 196.5219
L33.1045 196.3790
" />
<path d="M33.1045 196.3790
L33.1045 196.2362
" />
<path d="M33.1045 196.2362
L33.1759 196.0933
" />
<path d="M33.1759 196.0933
L33.3188 196.0219
" />
<path d="M33.3188 196.0219
L33.6759 196.0219
" />
<path d="M33.6759 196.0219
L33.8188 195.9505
" />
<path d="M35.1759 196.5933
L35.1759 195.0933
" />
<path d="M35.1759 196.5219
L35.0331 196.5933
" />
<path d="M35.0331 196.5933
L34.7473 196.5933
" />
<path d="M34.7473 196.5933
L34.6045 196.5219
" />
<path d="M34.6045 196.5219
L34.5331 196.4505
" />
<path d="M34.5331 196.4505
L34.4616 196.3076
" />
<path d="M34.4616 196.3076
L34.4616 195.8790
" />
<path d="M34.4616 195.8790
L34.5331 195.7362
" />
<path d="M34.5331 195.7362
L34.6045 195.6648
" />
<path d="M34.6045 195.6648
L34.7473 195.5933
" />
<path d="M34.7473 195.5933
L35.0331 195.5933
" />
<path d="M35.0331 195.5933
L35.1759 195.6648
" />
<path d="M37.0331 195.8076
L37.5331 195.8076
" />
<path d="M37.7473 196.5933
L37.0331 196.5933
" />
<path d="M37.0331 196.5933
L37.0331 195.0933
" />
<path d="M37.0331 195.0933
L37.7473 195.0933
" />
<path d="M38.3902 196.4505
L38.4616 196.5219
" />
<path d="M38.4616 196.5219
L38.3902 196.5933
" />
<path d="M38.3902 196.5933
L38.3188 196.5219
" />
<path d="M38.3188 196.5219
L38.3902 196.4505
" />
<path d="M38.3902 196.4505
L38.3902 196.5933
" />
<path d="M39.1045 196.5933
L39.1045 195.0933
" />
<path d="M39.1045 195.0933
L39.4616 195.0933
" />
<path d="M39.4616 195.0933
L39.6759 195.1648
" />
<path d="M39.6759 195.1648
L39.8188 195.3076
" />
<path d="M39.8188 195.3076
L39.8902 195.4505
" />
<path d="M39.8902 195.4505
L39.9616 195.7362
" />
<path d="M39.9616 195.7362
L39.9616 195.9505
" />
<path d="M39.9616 195.9505
L39.8902 196.2362
" />
<path d="M39.8902 196.2362
L39.8188 196.3790
" />
<path d="M39.8188 196.3790
L39.6759 196.5219
" />
<path d="M39.6759 196.5219
L39.4616 196.5933
" />
<path d="M39.4616 196.5933
L39.1045 196.5933
" />
<path d="M40.6045 196.4505
L40.6759 196.5219
" />
<path d="M40.6759 196.5219
L40.6045 196.5933
" />
<path d="M40.6045 196.5933
L40.5331 196.5219
" />
<path d="M40.5331 196.5219
L40.6045 196.4505
" />
<path d="M40.6045 196.4505
L40.6045 196.5933
" />
<path d="M41.2473 196.1648
L41.9616 196.1648
" />
<path d="M41.1045 196.5933
L41.6045 195.0933
" />
<path d="M41.6045 195.0933
L42.1045 196.5933
" />
<path d="M42.6045 196.4505
L42.6759 196.5219
" />
<path d="M42.6759 196.5219
L42.6045 196.5933
" />
<path d="M42.6045 196.5933
L42.5331 196.5219
" />
<path d="M42.5331 196.5219
L42.6045 196.4505
" />
<path d="M42.6045 196.4505
L42.6045 196.5933
" />
<path d="M44.6759 195.7362
L44.5331 195.6648
" />
<path d="M44.5331 195.6648
L44.4616 195.5933
" />
<path d="M44.4616 195.5933
L44.3902 195.4505
" />
<path d="M44.3902 195.4505
L44.3902 195.3790
" />
<path d="M44.3902 195.3790
L44.4616 195.2362
" />
<path d="M44.4616 195.2362
L44.5331 195.1648
" />
<path d="M44.5331 195.1648
L44.6759 195.0933
" />
<path d="M44.6759 195.0933
L44.9616 195.0933
" />
<path d="M44.9616 195.0933
L45.1045 195.1648
" />
<path d="M45.1045 195.1648
L45.1759 195.2362
" />
<path d="M45.1759 195.2362
L45.2473 195.3790
" />
<path d="M45.2473 195.3790
L45.2473 195.4505
" />
<path d="M45.2473 195.4505
L45.1759 195.5933
" />
<path d="M45.1759 195.5933
L45.1045 195.6648
" />
<path d="M45.1045 195.6648
L44.9616 195.7362
" />
<path d="M44.9616 195.7362
L44.6759 195.7362
" />
<path d="M44.6759 195.7362
L44.5331 195.8076
" />
<path d="M44.5331 195.8076
L44.4616 195.8790
" />
<path d="M44.4616 195.8790
L44.3902 196.0219
" />
<path d="M44.3902 196.0219
L44.3902 196.3076
" />
<path d="M44.3902 196.3076
L44.4616 196.4505
" />
<path d="M44.4616 196.4505
L44.5331 196.5219
" />
<path d="M44.5331 196.5219
L44.6759 196.5933
" />
<path d="M44.6759 196.5933
L44.9616 196.5933
" />
<path d="M44.9616 196.5933
L45.1045 196.5219
" />
<path d="M45.1045 196.5219
L45.1759 196.4505
" />
<path d="M45.1759 196.4505
L45.2473 196.3076
" />
<path d="M45.2473 196.3076
L45.2473 196.0219
" />
<path d="M45.2473 196.0219
L45.1759 195.8790
" />
<path d="M45.1759 195.8790
L45.1045 195.8076
" />
<path d="M45.1045 195.8076
L44.9616 195.7362
" />
<path d="M45.8902 196.4505
L45.9616 196.5219
" />
<path d="M45.9616 196.5219
L45.8902 196.5933
" />
<path d="M45.8902 196.5933
L45.8188 196.5219
" />
<path d="M45.8188 196.5219
L45.8902 196.4505
" />
<path d="M45.8902 196.4505
L45.8902 196.5933
" />
<path d="M46.8902 195.0933
L47.0331 195.0933
" />
<path d="M47.0331 195.0933
L47.1759 195.1648
" />
<path d="M47.1759 195.1648
L47.2473 195.2362
" />
<path d="M47.2473 195.2362
L47.3188 195.3790
" />
<path d="M47.3188 195.3790
L47.3902 195.6648
" />
<path d="M47.3902 195.6648
L47.3902 196.0219
" />
<path d="M47.3902 196.0219
L47.3188 196.3076
" />
<path d="M47.3188 196.3076
L47.2473 196.4505
" />
<path d="M47.2473 196.4505
L47.1759 196.5219
" />
<path d="M47.1759 196.5219
L47.0331 196.5933
" />
<path d="M47.0331 196.5933
L46.8902 196.5933
" />
<path d="M46.8902 196.5933
L46.7473 196.5219
" />
<path d="M46.7473 196.5219
L46.6759 196.4505
" />
<path d="M46.6759 196.4505
L46.6045 196.3076
" />
<path d="M46.6045 196.3076
L46.5331 196.0219
" />
<path d="M46.5331 196.0219
L46.5331 195.6648
" />
<path d="M46.5331 195.6648
L46.6045 195.3790
" />
<path d="M46.6045 195.3790
L46.6759 195.2362
" />
<path d="M46.6759 195.2362
L46.7473 195.1648
" />
<path d="M46.7473 195.1648
L46.8902 195.0933
" />
<path d="M48.0331 196.4505
L48.1045 196.5219
" />
<path d="M48.1045 196.5219
L48.0331 196.5933
" />
<path d="M48.0331 196.5933
L47.9616 196.5219
" />
<path d="M47.9616 196.5219
L48.0331 196.4505
" />
<path d="M48.0331 196.4505
L48.0331 196.5933
" />
<path d="M48.6045 195.0933
L49.5331 195.0933
" />
<path d="M49.5331 195.0933
L49.0331 195.6648
" />
<path d="M49.0331 195.6648
L49.2473 195.6648
" />
<path d="M49.2473 195.6648
L49.3902 195.7362
" />
<path d="M49.3902 195.7362
L49.4616 195.8076
" />
<path d="M49.4616 195.8076
L49.5331 195.9505
" />
<path d="M49.5331 195.9505
L49.5331 196.3076
" />
<path d="M49.5331 196.3076
L49.4616 196.4505
" />
<path d="M49.4616 196.4505
L49.3902 196.5219
" />
<path d="M49.3902 196.5219
L49.2473 196.5933
" />
<path d="M49.2473 196.5933
L48.8188 196.5933
" />
<path d="M48.8188 196.5933
L48.6759 196.5219
" />
<path d="M48.6759 196.5219
L48.6045 196.4505
" />
</g></g>
<g style="fill:none; 
stroke:#000000; stroke-width:0.1500; stroke-opacity:1; 
stroke-linecap:round; stroke-linejoin:round;">
<path d="M28.0058 191.5072
L136.0058 191.5072
" />
</g>
<g style="fill:none; 
stroke:#000000; stroke-width:0.3000; stroke-opacity:1; 
stroke-linecap:round; stroke-linejoin:round;">
<text x="114.0058" y="193.8572"
textLength="6.3857" font-size="2.0000" lengthAdjust="spacingAndGlyphs"
text-anchor="start" opacity="0">Rev: </text>
<g class="stroked-text"><desc>Rev: </desc>
<path d="M115.4175 193.7855
L114.9175 193.0712
" />
<path d="M114.5603 193.7855
L114.5603 192.2855
" />
<path d="M114.5603 192.2855
L115.1317 192.2855
" />
<path d="M115.1317 192.2855
L115.2746 192.3570
" />
<path d="M115.2746 192.3570
L115.3460 192.4284
" />
<path d="M115.3460 192.4284
L115.4175 192.5712
" />
<path d="M115.4175 192.5712
L115.4175 192.7855
" />
<path d="M115.4175 192.7855
L115.3460 192.9284
" />
<path d="M115.3460 192.9284
L115.2746 192.9998
" />
<path d="M115.2746 192.9998
L115.1317 193.0712
" />
<path d="M115.1317 193.0712
L114.5603 193.0712
" />
<path d="M116.6317 193.7141
L116.4889 193.7855
" />
<path d="M116.4889 193.7855
L116.2032 193.7855
" />
<path d="M116.2032 193.7855
L116.0603 193.7141
" />
<path d="M116.0603 193.7141
L115.9889 193.5712
" />
<path d="M115.9889 193.5712
L115.9889 192.9998
" />
<path d="M115.9889 192.9998
L116.0603 192.8570
" />
<path d="M116.0603 192.8570
L116.2032 192.7855
" />
<path d="M116.2032 192.7855
L116.4889 192.7855
" />
<path d="M116.4889 192.7855
L116.6317 192.8570
" />
<path d="M116.6317 192.8570
L116.7032 192.9998
" />
<path d="M116.7032 192.9998
L116.7032 193.1427
" />
<path d="M116.7032 193.1427
L115.9889 193.2855
" />
<path d="M117.2032 192.7855
L117.5603 193.7855
" />
<path d="M117.5603 193.7855
L117.9175 192.7855
" />
<path d="M118.4889 193.6427
L118.5603 193.7141
" />
<path d="M118.5603 193.7141
L118.4889 193.7855
" />
<path d="M118.4889 193.7855
L118.4175 193.7141
" />
<path d="M118.4175 193.7141
L118.4889 193.6427
" />
<path d="M118.4889 193.6427
L118.4889 193.7855
" />
<path d="M118.4889 192.8570
L118.5603 192.9284
" />
<path d="M118.5603 192.9284
L118.4889 192.9998
" />
<path d="M118.4889 192.9998
L118.4175 192.9284
" />
<path d="M118.4175 192.9284
L118.4889 192.8570
" />
<path d="M118.4889 192.8570
L118.4889 192.9998
" />
</g></g>
<g style="fill:none; 
stroke:#000000; stroke-width:0.1500; stroke-opacity:1; 
stroke-linecap:round; stroke-linejoin:round;">
<text x="29.0058" y="193.8572"
textLength="9.3643" font-size="2.0000" lengthAdjust="spacingAndGlyphs"
text-anchor="start" opacity="0">Size: A5</text>
<g class="stroked-text"><desc>Size: A5</desc>
<path d="M29.3902 193.7219
L29.6045 193.7933
" />
<path d="M29.6045 193.7933
L29.9616 193.7933
" />
<path d="M29.9616 193.7933
L30.1045 193.7219
" />
<path d="M30.1045 193.7219
L30.1759 193.6505
" />
<path d="M30.1759 193.6505
L30.2473 193.5076
" />
<path d="M30.2473 193.5076
L30.2473 193.3648
" />
<path d="M30.2473 193.3648
L30.1759 193.2219
" />
<path d="M30.1759 193.2219
L30.1045 193.1505
" />
<path d="M30.1045 193.1505
L29.9616 193.0790
" />
<path d="M29.9616 193.0790
L29.6759 193.0076
" />
<path d="M29.6759 193.0076
L29.5331 192.9362
" />
<path d="M29.5331 192.9362
L29.4616 192.8648
" />
<path d="M29.4616 192.8648
L29.3902 192.7219
" />
<path d="M29.3902 192.7219
L29.3902 192.5790
" />
<path d="M29.3902 192.5790
L29.4616 192.4362
" />
<path d="M29.4616 192.4362
L29.5331 192.3648
" />
<path d="M29.5331 192.3648
L29.6759 192.2933
" />
<path d="M29.6759 192.2933
L30.0331 192.2933
" />
<path d="M30.0331 192.2933
L30.2473 192.3648
" />
<path d="M30.8902 193.7933
L30.8902 192.7933
" />
<path d="M30.8902 192.2933
L30.8188 192.3648
" />
<path d="M30.8188 192.3648
L30.8902 192.4362
" />
<path d="M30.8902 192.4362
L30.9616 192.3648
" />
<path d="M30.9616 192.3648
L30.8902 192.2933
" />
<path d="M30.8902 192.2933
L30.8902 192.4362
" />
<path d="M31.4616 192.7933
L32.2473 192.7933
" />
<path d="M32.2473 192.7933
L31.4616 193.7933
" />
<path d="M31.4616 193.7933
L32.2473 193.7933
" />
<path d="M33.3902 193.7219
L33.2473 193.7933
" />
<path d="M33.2473 193.7933
L32.9616 193.7933
" />
<path d="M32.9616 193.7933
L32.8188 193.7219
" />
<path d="M32.8188 193.7219
L32.7473 193.5790
" />
<path d="M32.7473 193.5790
L32.7473 193.0076
" />
<path d="M32.7473 193.0076
L32.8188 192.8648
" />
<path d="M32.8188 192.8648
L32.9616 192.7933
" />
<path d="M32.9616 192.7933
L33.2473 192.7933
" />
<path d="M33.2473 192.7933
L33.3902 192.8648
" />
<path d="M33.3902 192.8648
L33.4616 193.0076
" />
<path d="M33.4616 193.0076
L33.4616 193.1505
" />
<path d="M33.4616 193.1505
L32.7473 193.2933
" />
<path d="M34.1045 193.6505
L34.1759 193.7219
" />
<path d="M34.1759 193.7219
L34.1045 193.7933
" />
<path d="M34.1045 193.7933
L34.0331 193.7219
" />
<path d="M34.0331 193.7219
L34.1045 193.6505
" />
<path d="M34.1045 193.6505
L34.1045 193.7933
" />
<path d="M34.1045 192.8648
L34.1759 192.9362
" />
<path d="M34.1759 192.9362
L34.1045 193.0076
" />
<path d="M34.1045 193.0076
L34.0331 192.9362
" />
<path d="M34.0331 192.9362
L34.1045 192.8648
" />
<path d="M34.1045 192.8648
L34.1045 193.0076
" />
<path d="M35.8902 193.3648
L36.6045 193.3648
" />
<path d="M35.7473 193.7933
L36.2473 192.2933
" />
<path d="M36.2473 192.2933
L36.7473 193.7933
" />
<path d="M37.9616 192.2933
L37.2473 192.2933
" />
<path d="M37.2473 192.2933
L37.1759 193.0076
" />
<path d="M37.1759 193.0076
L37.2473 192.9362
" />
<path d="M37.2473 192.9362
L37.3902 192.8648
" />
<path d="M37.3902 192.8648
L37.7473 192.8648
" />
<path d="M37.7473 192.8648
L37.8902 192.9362
" />
<path d="M37.8902 192.9362
L37.9616 193.0076
" />
<path d="M37.9616 193.0076
L38.0331 193.1505
" />
<path d="M38.0331 193.1505
L38.0331 193.5076
" />
<path d="M38.0331 193.5076
L37.9616 193.6505
" />
<path d="M37.9616 193.6505
L37.8902 193.7219
" />
<path d="M37.8902 193.7219
L37.7473 193.7933
" />
<path d="M37.7473 193.7933
L37.3902 193.7933
" />
<path d="M37.3902 193.7933
L37.2473 193.7219
" />
<path d="M37.2473 193.7219
L37.1759 193.6505
" />
</g></g>
<g style="fill:none; 
stroke:#000000; stroke-width:0.1500; stroke-opacity:1; 
stroke-linecap:round; stroke-linejoin:round;">
<text x="114.0058" y="196.6572"
textLength="8.5071" font-size="2.0000" lengthAdjust="spacingAndGlyphs"
text-anchor="start" opacity="0">Id: 1/1</text>
<g class="stroked-text"><desc>Id: 1/1</desc>
<path d="M114.4616 196.5933
L114.4616 195.0933
" />
<path d="M115.8188 196.5933
L115.8188 195.0933
" />
<path d="M115.8188 196.5219
L115.6759 196.5933
" />
<path d="M115.6759 196.5933
L115.3902 196.5933
" />
<path d="M115.3902 196.5933
L115.2473 196.5219
" />
<path d="M115.2473 196.5219
L115.1759 196.4505
" />
<path d="M115.1759 196.4505
L115.1045 196.3076
" />
<path d="M115.1045 196.3076
L115.1045 195.8790
" />
<path d="M115.1045 195.8790
L115.1759 195.7362
" />
<path d="M115.1759 195.7362
L115.2473 195.6648
" />
<path d="M115.2473 195.6648
L115.3902 195.5933
" />
<path d="M115.3902 195.5933
L115.6759 195.5933
" />
<path d="M115.6759 195.5933
L115.8188 195.6648
" />
<path d="M116.5331 196.4505
L116.6045 196.5219
" />
<path d="M116.6045 196.5219
L116.5331 196.5933
" />
<path d="M116.5331 196.5933
L116.4616 196.5219
" />
<path d="M116.4616 196.5219
L116.5331 196.4505
" />
<path d="M116.5331 196.4505
L116.5331 196.5933
" />
<path d="M116.5331 195.6648
L116.6045 195.7362
" />
<path d="M116.6045 195.7362
L116.5331 195.8076
" />
<path d="M116.5331 195.8076
L116.4616 195.7362
" />
<path d="M116.4616 195.7362
L116.5331 195.6648
" />
<path d="M116.5331 195.6648
L116.5331 195.8076
" />
<path d="M119.1759 196.5933
L118.3188 196.5933
" />
<path d="M118.7473 196.5933
L118.7473 195.0933
" />
<path d="M118.7473 195.0933
L118.6045 195.3076
" />
<path d="M118.6045 195.3076
L118.4616 195.4505
" />
<path d="M118.4616 195.4505
L118.3188 195.5219
" />
<path d="M120.8902 195.0219
L119.6045 196.9505
" />
<path d="M122.1759 196.5933
L121.3188 196.5933
" />
<path d="M121.7473 196.5933
L121.7473 195.0933
" />
<path d="M121.7473 195.0933
L121.6045 195.3076
" />
<path d="M121.6045 195.3076
L121.4616 195.4505
" />
<path d="M121.4616 195.4505
L121.3188 195.5219
" />
</g></g>
<g style="fill:none; 
stroke:#000000; stroke-width:0.1500; stroke-opacity:1; 
stroke-linecap:round; stroke-linejoin:round;">
<path d="M28.0058 187.5072
L136.0058 187.5072
" />
</g>
<g style="fill:none; 
stroke:#000000; stroke-width:0.4000; stroke-opacity:1; 
stroke-linecap:round; stroke-linejoin:round;">
<text x="29.0058" y="190.3072"
textLength="9.6571" font-size="2.6667" lengthAdjust="spacingAndGlyphs"
text-anchor="start" opacity="0">Title: </text>
<g class="stroked-text"><desc>Title: </desc>
<path d="M29.6975 188.2116
L30.8404 188.2116
" />
<path d="M30.0190 190.2116
L30.2690 188.2116
" />
<path d="M31.2571 190.2116
L31.4237 188.8783
" />
<path d="M31.5071 188.2116
L31.3999 188.3069
" />
<path d="M31.3999 188.3069
L31.4832 188.4021
" />
<path d="M31.4832 188.4021
L31.5904 188.3069
" />
<path d="M31.5904 188.3069
L31.5071 188.2116
" />
<path d="M31.5071 188.2116
L31.4832 188.4021
" />
<path d="M32.0904 188.8783
L32.8523 188.8783
" />
<path d="M32.4594 188.2116
L32.2451 189.9259
" />
<path d="M32.2451 189.9259
L32.3166 190.1164
" />
<path d="M32.3166 190.1164
L32.4951 190.2116
" />
<path d="M32.4951 190.2116
L32.6856 190.2116
" />
<path d="M33.6380 190.2116
L33.4594 190.1164
" />
<path d="M33.4594 190.1164
L33.3880 189.9259
" />
<path d="M33.3880 189.9259
L33.6023 188.2116
" />
<path d="M35.1737 190.1164
L34.9713 190.2116
" />
<path d="M34.9713 190.2116
L34.5904 190.2116
" />
<path d="M34.5904 190.2116
L34.4118 190.1164
" />
<path d="M34.4118 190.1164
L34.3404 189.9259
" />
<path d="M34.3404 189.9259
L34.4356 189.1640
" />
<path d="M34.4356 189.1640
L34.5547 188.9735
" />
<path d="M34.5547 188.9735
L34.7571 188.8783
" />
<path d="M34.7571 188.8783
L35.1380 188.8783
" />
<path d="M35.1380 188.8783
L35.3166 188.9735
" />
<path d="M35.3166 188.9735
L35.3880 189.1640
" />
<path d="M35.3880 189.1640
L35.3642 189.3545
" />
<path d="M35.3642 189.3545
L34.3880 189.5450
" />
<path d="M36.1380 190.0212
L36.2213 190.1164
" />
<path d="M36.2213 190.1164
L36.1142 190.2116
" />
<path d="M36.1142 190.2116
L36.0309 190.1164
" />
<path d="M36.0309 190.1164
L36.1380 190.0212
" />
<path d="M36.1380 190.0212
L36.1142 190.2116
" />
<path d="M36.2690 188.9735
L36.3523 189.0688
" />
<path d="M36.3523 189.0688
L36.2451 189.1640
" />
<path d="M36.2451 189.1640
L36.1618 189.0688
" />
<path d="M36.1618 189.0688
L36.2690 188.9735
" />
<path d="M36.2690 188.9735
L36.2451 189.1640
" />
</g></g>
<g style="fill:none; 
stroke:#000000; stroke-width:0.1500; stroke-opacity:1; 
stroke-linecap:round; stroke-linejoin:round;">
<text x="29.0058" y="186.4572"
textLength="27.0071" font-size="2.0000" lengthAdjust="spacingAndGlyphs"
text-anchor="start" opacity="0">File: PM-Bus.kicad_pcb</text>
<g class="stroked-text"><desc>File: PM-Bus.kicad_pcb</desc>
<path d="M29.9616 185.6076
L29.4616 185.6076
" />
<path d="M29.4616 186.3933
L29.4616 184.8933
" />
<path d="M29.4616 184.8933
L30.1759 184.8933
" />
<path d="M30.7473 186.3933
L30.7473 185.3933
" />
<path d="M30.7473 184.8933
L30.6759 184.9648
" />
<path d="M30.6759 184.9648
L30.7473 185.0362
" />
<path d="M30.7473 185.0362
L30.8188 184.9648
" />
<path d="M30.8188 184.9648
L30.7473 184.8933
" />
<path d="M30.7473 184.8933
L30.7473 185.0362
" />
<path d="M31.6759 186.3933
L31.5331 186.3219
" />
<path d="M31.5331 186.3219
L31.4616 186.1790
" />
<path d="M31.4616 186.1790
L31.4616 184.8933
" />
<path d="M32.8188 186.3219
L32.6759 186.3933
" />
<path d="M32.6759 186.3933
L32.3902 186.3933
" />
<path d="M32.3902 186.3933
L32.2473 186.3219
" />
<path d="M32.2473 186.3219
L32.1759 186.1790
" />
<path d="M32.1759 186.1790
L32.1759 185.6076
" />
<path d="M32.1759 185.6076
L32.2473 185.4648
" />
<path d="M32.2473 185.4648
L32.3902 185.3933
" />
<path d="M32.3902 185.3933
L32.6759 185.3933
" />
<path d="M32.6759 185.3933
L32.8188 185.4648
" />
<path d="M32.8188 185.4648
L32.8902 185.6076
" />
<path d="M32.8902 185.6076
L32.8902 185.7505
" />
<path d="M32.8902 185.7505
L32.1759 185.8933
" />
<path d="M33.5331 186.2505
L33.6045 186.3219
" />
<path d="M33.6045 186.3219
L33.5331 186.3933
" />
<path d="M33.5331 186.3933
L33.4616 186.3219
" />
<path d="M33.4616 186.3219
L33.5331 186.2505
" />
<path d="M33.5331 186.2505
L33.5331 186.3933
" />
<path d="M33.5331 185.4648
L33.6045 185.5362
" />
<path d="M33.6045 185.5362
L33.5331 185.6076
" />
<path d="M33.5331 185.6076
L33.4616 185.5362
" />
<path d="M33.4616 185.5362
L33.5331 185.4648
" />
<path d="M33.5331 185.4648
L33.5331 185.6076
" />
<path d="M35.3902 186.3933
L35.3902 184.8933
" />
<path d="M35.3902 184.8933
L35.9616 184.8933
" />
<path d="M35.9616 184.8933
L36.1045 184.9648
" />
<path d="M36.1045 184.9648
L36.1759 185.0362
" />
<path d="M36.1759 185.0362
L36.2473 185.1790
" />
<path d="M36.2473 185.1790
L36.2473 185.3933
" />
<path d="M36.2473 185.3933
L36.1759 185.5362
" />
<path d="M36.1759 185.5362
L36.1045 185.6076
" />
<path d="M36.1045 185.6076
L35.9616 185.6790
" />
<path d="M35.9616 185.6790
L35.3902 185.6790
" />
<path d="M36.8902 186.3933
L36.8902 184.8933
" />
<path d="M36.8902 184.8933
L37.3902 185.9648
" />
<path d="M37.3902 185.9648
L37.8902 184.8933
" />
<path d="M37.8902 184.8933
L37.8902 186.3933
" />
<path d="M38.6045 185.8219
L39.7473 185.8219
" />
<path d="M40.9616 185.6076
L41.1759 185.6790
" />
<path d="M41.1759 185.6790
L41.2473 185.7505
" />
<path d="M41.2473 185.7505
L41.3188 185.8933
" />
<path d="M41.3188 185.8933
L41.3188 186.1076
" />
<path d="M41.3188 186.1076
L41.2473 186.2505
" />
<path d="M41.2473 186.2505
L41.1759 186.3219
" />
<path d="M41.1759 186.3219
L41.0331 186.3933
" />
<path d="M41.0331 186.3933
L40.4616 186.3933
" />
<path d="M40.4616 186.3933
L40.4616 184.8933
" />
<path d="M40.4616 184.8933
L40.9616 184.8933
" />
<path d="M40.9616 184.8933
L41.1045 184.9648
" />
<path d="M41.1045 184.9648
L41.1759 185.0362
" />
<path d="M41.1759 185.0362
L41.2473 185.1790
" />
<path d="M41.2473 185.1790
L41.2473 185.3219
" />
<path d="M41.2473 185.3219
L41.1759 185.4648
" />
<path d="M41.1759 185.4648
L41.1045 185.5362
" />
<path d="M41.1045 185.5362
L40.9616 185.6076
" />
<path d="M40.9616 185.6076
L40.4616 185.6076
" />
<path d="M42.6045 185.3933
L42.6045 186.3933
" />
<path d="M41.9616 185.3933
L41.9616 186.1790
" />
<path d="M41.9616 186.1790
L42.0331 186.3219
" />
<path d="M42.0331 186.3219
L42.1759 186.3933
" />
<path d="M42.1759 186.3933
L42.3902 186.3933
" />
<path d="M42.3902 186.3933
L42.5331 186.3219
" />
<path d="M42.5331 186.3219
L42.6045 186.2505
" />
<path d="M43.2473 186.3219
L43.3902 186.3933
" />
<path d="M43.3902 186.3933
L43.6759 186.3933
" />
<path d="M43.6759 186.3933
L43.8188 186.3219
" />
<path d="M43.8188 186.3219
L43.8902 186.1790
" />
<path d="M43.8902 186.1790
L43.8902 186.1076
" />
<path d="M43.8902 186.1076
L43.8188 185.9648
" />
<path d="M43.8188 185.9648
L43.6759 185.8933
" />
<path d="M43.6759 185.8933
L43.4616 185.8933
" />
<path d="M43.4616 185.8933
L43.3188 185.8219
" />
<path d="M43.3188 185.8219
L43.2473 185.6790
" />
<path d="M43.2473 185.6790
L43.2473 185.6076
" />
<path d="M43.2473 185.6076
L43.3188 185.4648
" />
<path d="M43.3188 185.4648
L43.4616 185.3933
" />
<path d="M43.4616 185.3933
L43.6759 185.3933
" />
<path d="M43.6759 185.3933
L43.8188 185.4648
" />
<path d="M44.5331 186.2505
L44.6045 186.3219
" />
<path d="M44.6045 186.3219
L44.5331 186.3933
" />
<path d="M44.5331 186.3933
L44.4616 186.3219
" />
<path d="M44.4616 186.3219
L44.5331 186.2505
" />
<path d="M44.5331 186.2505
L44.5331 186.3933
" />
<path d="M45.2473 186.3933
L45.2473 184.8933
" />
<path d="M45.3902 185.8219
L45.8188 186.3933
" />
<path d="M45.8188 185.3933
L45.2473 185.9648
" />
<path d="M46.4616 186.3933
L46.4616 185.3933
" />
<path d="M46.4616 184.8933
L46.3902 184.9648
" />
<path d="M46.3902 184.9648
L46.4616 185.0362
" />
<path d="M46.4616 185.0362
L46.5331 184.9648
" />
<path d="M46.5331 184.9648
L46.4616 184.8933
" />
<path d="M46.4616 184.8933
L46.4616 185.0362
" />
<path d="M47.8188 186.3219
L47.6759 186.3933
" />
<path d="M47.6759 186.3933
L47.3902 186.3933
" />
<path d="M47.3902 186.3933
L47.2473 186.3219
" />
<path d="M47.2473 186.3219
L47.1759 186.2505
" />
<path d="M47.1759 186.2505
L47.1045 186.1076
" />
<path d="M47.1045 186.1076
L47.1045 185.6790
" />
<path d="M47.1045 185.6790
L47.1759 185.5362
" />
<path d="M47.1759 185.5362
L47.2473 185.4648
" />
<path d="M47.2473 185.4648
L47.3902 185.3933
" />
<path d="M47.3902 185.3933
L47.6759 185.3933
" />
<path d="M47.6759 185.3933
L47.8188 185.4648
" />
<path d="M49.1045 186.3933
L49.1045 185.6076
" />
<path d="M49.1045 185.6076
L49.0331 185.4648
" />
<path d="M49.0331 185.4648
L48.8902 185.3933
" />
<path d="M48.8902 185.3933
L48.6045 185.3933
" />
<path d="M48.6045 185.3933
L48.4616 185.4648
" />
<path d="M49.1045 186.3219
L48.9616 186.3933
" />
<path d="M48.9616 186.3933
L48.6045 186.3933
" />
<path d="M48.6045 186.3933
L48.4616 186.3219
" />
<path d="M48.4616 186.3219
L48.3902 186.1790
" />
<path d="M48.3902 186.1790
L48.3902 186.0362
" />
<path d="M48.3902 186.0362
L48.4616 185.8933
" />
<path d="M48.4616 185.8933
L48.6045 185.8219
" />
<path d="M48.6045 185.8219
L48.9616 185.8219
" />
<path d="M48.9616 185.8219
L49.1045 185.7505
" />
<path d="M50.4616 186.3933
L50.4616 184.8933
" />
<path d="M50.4616 186.3219
L50.3188 186.3933
" />
<path d="M50.3188 186.3933
L50.0331 186.3933
" />
<path d="M50.0331 186.3933
L49.8902 186.3219
" />
<path d="M49.8902 186.3219
L49.8188 186.2505
" />
<path d="M49.8188 186.2505
L49.7473 186.1076
" />
<path d="M49.7473 186.1076
L49.7473 185.6790
" />
<path d="M49.7473 185.6790
L49.8188 185.5362
" />
<path d="M49.8188 185.5362
L49.8902 185.4648
" />
<path d="M49.8902 185.4648
L50.0331 185.3933
" />
<path d="M50.0331 185.3933
L50.3188 185.3933
" />
<path d="M50.3188 185.3933
L50.4616 185.4648
" />
<path d="M50.8188 186.5362
L51.9616 186.5362
" />
<path d="M52.3188 185.3933
L52.3188 186.8933
" />
<path d="M52.3188 185.4648
L52.4616 185.3933
" />
<path d="M52.4616 185.3933
L52.7473 185.3933
" />
<path d="M52.7473 185.3933
L52.8902 185.4648
" />
<path d="M52.8902 185.4648
L52.9616 185.5362
" />
<path d="M52.9616 185.5362
L53.0331 185.6790
" />
<path d="M53.0331 185.6790
L53.0331 186.1076
" />
<path d="M53.0331 186.1076
L52.9616 186.2505
" />
<path d="M52.9616 186.2505
L52.8902 186.3219
" />
<path d="M52.8902 186.3219
L52.7473 186.3933
" />
<path d="M52.7473 186.3933
L52.4616 186.3933
" />
<path d="M52.4616 186.3933
L52.3188 186.3219
" />
<path d="M54.3188 186.3219
L54.1759 186.3933
" />
<path d="M54.1759 186.3933
L53.8902 186.3933
" />
<path d="M53.8902 186.3933
L53.7473 186.3219
" />
<path d="M53.7473 186.3219
L53.6759 186.2505
" />
<path d="M53.6759 186.2505
L53.6045 186.1076
" />
<path d="M53.6045 186.1076
L53.6045 185.6790
" />
<path d="M53.6045 185.6790
L53.6759 185.5362
" />
<path d="M53.6759 185.5362
L53.7473 185.4648
" />
<path d="M53.7473 185.4648
L53.8902 185.3933
" />
<path d="M53.8902 185.3933
L54.1759 185.3933
" />
<path d="M54.1759 185.3933
L54.3188 185.4648
" />
<path d="M54.9616 186.3933
L54.9616 184.8933
" />
<path d="M54.9616 185.4648
L55.1045 185.3933
" />
<path d="M55.1045 185.3933
L55.3902 185.3933
" />
<path d="M55.3902 185.3933
L55.5331 185.4648
" />
<path d="M55.5331 185.4648
L55.6045 185.5362
" />
<path d="M55.6045 185.5362
L55.6759 185.6790
" />
<path d="M55.6759 185.6790
L55.6759 186.1076
" />
<path d="M55.6759 186.1076
L55.6045 186.2505
" />
<path d="M55.6045 186.2505
L55.5331 186.3219
" />
<path d="M55.5331 186.3219
L55.3902 186.3933
" />
<path d="M55.3902 186.3933
L55.1045 186.3933
" />
<path d="M55.1045 186.3933
L54.9616 186.3219
" />
</g></g>
<g style="fill:none; 
stroke:#000000; stroke-width:0.1500; stroke-opacity:1; 
stroke-linecap:round; stroke-linejoin:round;">
<path d="M28.0058 181.5072
L136.0058 181.5072
" />
</g>
<g style="fill:none; 
stroke:#000000; stroke-width:0.1500; stroke-opacity:1; 
stroke-linecap:round; stroke-linejoin:round;">
<text x="29.0058" y="183.7572"
textLength="8.2214" font-size="2.0000" lengthAdjust="spacingAndGlyphs"
text-anchor="start" opacity="0">Sheet: </text>
<g class="stroked-text"><desc>Sheet: </desc>
<path d="M29.3902 183.6219
L29.6045 183.6933
" />
<path d="M29.6045 183.6933
L29.9616 183.6933
" />
<path d="M29.9616 183.6933
L30.1045 183.6219
" />
<path d="M30.1045 183.6219
L30.1759 183.5505
" />
<path d="M30.1759 183.5505
L30.2473 183.4076
" />
<path d="M30.2473 183.4076
L30.2473 183.2648
" />
<path d="M30.2473 183.2648
L30.1759 183.1219
" />
<path d="M30.1759 183.1219
L30.1045 183.0505
" />
<path d="M30.1045 183.0505
L29.9616 182.9790
" />
<path d="M29.9616 182.9790
L29.6759 182.9076
" />
<path d="M29.6759 182.9076
L29.5331 182.8362
" />
<path d="M29.5331 182.8362
L29.4616 182.7648
" />
<path d="M29.4616 182.7648
L29.3902 182.6219
" />
<path d="M29.3902 182.6219
L29.3902 182.4790
" />
<path d="M29.3902 182.4790
L29.4616 182.3362
" />
<path d="M29.4616 182.3362
L29.5331 182.2648
" />
<path d="M29.5331 182.2648
L29.6759 182.1933
" />
<path d="M29.6759 182.1933
L30.0331 182.1933
" />
<path d="M30.0331 182.1933
L30.2473 182.2648
" />
<path d="M30.8902 183.6933
L30.8902 182.1933
" />
<path d="M31.5331 183.6933
L31.5331 182.9076
" />
<path d="M31.5331 182.9076
L31.4616 182.7648
" />
<path d="M31.4616 182.7648
L31.3188 182.6933
" />
<path d="M31.3188 182.6933
L31.1045 182.6933
" />
<path d="M31.1045 182.6933
L30.9616 182.7648
" />
<path d="M30.9616 182.7648
L30.8902 182.8362
" />
<path d="M32.8188 183.6219
L32.6759 183.6933
" />
<path d="M32.6759 183.6933
L32.3902 183.6933
" />
<path d="M32.3902 183.6933
L32.2473 183.6219
" />
<path d="M32.2473 183.6219
L32.1759 183.4790
" />
<path d="M32.1759 183.4790
L32.1759 182.9076
" />
<path d="M32.1759 182.9076
L32.2473 182.7648
" />
<path d="M32.2473 182.7648
L32.3902 182.6933
" />
<path d="M32.3902 182.6933
L32.6759 182.6933
" />
<path d="M32.6759 182.6933
L32.8188 182.7648
" />
<path d="M32.8188 182.7648
L32.8902 182.9076
" />
<path d="M32.8902 182.9076
L32.8902 183.0505
" />
<path d="M32.8902 183.0505
L32.1759 183.1933
" />
<path d="M34.1045 183.6219
L33.9616 183.6933
" />
<path d="M33.9616 183.6933
L33.6759 183.6933
" />
<path d="M33.6759 183.6933
L33.5331 183.6219
" />
<path d="M33.5331 183.6219
L33.4616 183.4790
" />
<path d="M33.4616 183.4790
L33.4616 182.9076
" />
<path d="M33.4616 182.9076
L33.5331 182.7648
" />
<path d="M33.5331 182.7648
L33.6759 182.6933
" />
<path d="M33.6759 182.6933
L33.9616 182.6933
" />
<path d="M33.9616 182.6933
L34.1045 182.7648
" />
<path d="M34.1045 182.7648
L34.1759 182.9076
" />
<path d="M34.1759 182.9076
L34.1759 183.0505
" />
<path d="M34.1759 183.0505
L33.4616 183.1933
" />
<path d="M34.6045 182.6933
L35.1759 182.6933
" />
<path d="M34.8188 182.1933
L34.8188 183.4790
" />
<path d="M34.8188 183.4790
L34.8902 183.6219
" />
<path d="M34.8902 183.6219
L35.0331 183.6933
" />
<path d="M35.0331 183.6933
L35.1759 183.6933
" />
<path d="M35.6759 183.5505
L35.7473 183.6219
" />
<path d="M35.7473 183.6219
L35.6759 183.6933
" />
<path d="M35.6759 183.6933
L35.6045 183.6219
" />
<path d="M35.6045 183.6219
L35.6759 183.5505
" />
<path d="M35.6759 183.5505
L35.6759 183.6933
" />
<path d="M35.6759 182.7648
L35.7473 182.8362
" />
<path d="M35.7473 182.8362
L35.6759 182.9076
" />
<path d="M35.6759 182.9076
L35.6045 182.8362
" />
<path d="M35.6045 182.8362
L35.6759 182.7648
" />
<path d="M35.6759 182.7648
L35.6759 182.9076
" />
</g></g>
<g style="fill:none; 
stroke:#000000; stroke-width:0.3000; stroke-opacity:1; 
stroke-linecap:round; stroke-linejoin:round;">
<text x="29.0058" y="180.7572"
textLength="0.9000" font-size="2.0000" lengthAdjust="spacingAndGlyphs"
text-anchor="start" opacity="0"></text>
<g class="stroked-text"><desc></desc>
</g></g>
<g style="fill:none; 
stroke:#000000; stroke-width:0.1500; stroke-opacity:1; 
stroke-linecap:round; stroke-linejoin:round;">
<text x="29.0058" y="177.7572"
textLength="0.4500" font-size="2.0000" lengthAdjust="spacingAndGlyphs"
text-anchor="start" opacity="0"></text>
<g class="stroked-text"><desc></desc>
</g></g>
<g style="fill:none; 
stroke:#000000; stroke-width:0.1500; stroke-opacity:1; 
stroke-linecap:round; stroke-linejoin:round;">
<text x="29.0058" y="174.7572"
textLength="0.4500" font-size="2.0000" lengthAdjust="spacingAndGlyphs"
text-anchor="start" opacity="0"></text>
<g class="stroked-text"><desc></desc>
</g></g>
<g style="fill:none; 
stroke:#000000; stroke-width:0.1500; stroke-opacity:1; 
stroke-linecap:round; stroke-linejoin:round;">
<text x="29.0058" y="171.7572"
textLength="0.4500" font-size="2.0000" lengthAdjust="spacingAndGlyphs"
text-anchor="start" opacity="0"></text>
<g class="stroked-text"><desc></desc>
</g></g>
<g style="fill:none; 
stroke:#000000; stroke-width:0.1500; stroke-opacity:1; 
stroke-linecap:round; stroke-linejoin:round;">
<text x="29.0058" y="168.7572"
textLength="0.4500" font-size="2.0000" lengthAdjust="spacingAndGlyphs"
text-anchor="start" opacity="0"></text>
<g class="stroked-text"><desc></desc>
</g></g>
<g style="fill:none; 
stroke:#000000; stroke-width:0.1500; stroke-opacity:1; 
stroke-linecap:round; stroke-linejoin:round;">
<path d="M48.0058 191.5072
L48.0058 194.5072
" />
</g>
<g style="fill:none; 
stroke:#000000; stroke-width:0.1500; stroke-opacity:1; 
stroke-linecap:round; stroke-linejoin:round;">
<path d="M112.0058 191.5072
L112.0058 198.0072
" />
<text x="76.2000" y="116.1900"
textLength="9.8690" font-size="1.3333" lengthAdjust="spacingAndGlyphs"
text-anchor="middle" opacity="0">22,8600 mm</text>
<g class="stroked-text"><desc>22,8600 mm</desc>
<path d="M71.5810 115.2401
L71.6286 115.1924
" />
<path d="M71.6286 115.1924
L71.7238 115.1448
" />
<path d="M71.7238 115.1448
L71.9619 115.1448
" />
<path d="M71.9619 115.1448
L72.0571 115.1924
" />
<path d="M72.0571 115.1924
L72.1048 115.2401
" />
<path d="M72.1048 115.2401
L72.1524 115.3353
" />
<path d="M72.1524 115.3353
L72.1524 115.4305
" />
<path d="M72.1524 115.4305
L72.1048 115.5734
" />
<path d="M72.1048 115.5734
L71.5333 116.1448
" />
<path d="M71.5333 116.1448
L72.1524 116.1448
" />
<path d="M72.5333 115.2401
L72.5810 115.1924
" />
<path d="M72.5810 115.1924
L72.6762 115.1448
" />
<path d="M72.6762 115.1448
L72.9143 115.1448
" />
<path d="M72.9143 115.1448
L73.0095 115.1924
" />
<path d="M73.0095 115.1924
L73.0571 115.2401
" />
<path d="M73.0571 115.2401
L73.1048 115.3353
" />
<path d="M73.1048 115.3353
L73.1048 115.4305
" />
<path d="M73.1048 115.4305
L73.0571 115.5734
" />
<path d="M73.0571 115.5734
L72.4857 116.1448
" />
<path d="M72.4857 116.1448
L73.1048 116.1448
" />
<path d="M73.5810 116.0972
L73.5810 116.1448
" />
<path d="M73.5810 116.1448
L73.5333 116.2401
" />
<path d="M73.5333 116.2401
L73.4857 116.2877
" />
<path d="M74.1524 115.5734
L74.0571 115.5258
" />
<path d="M74.0571 115.5258
L74.0095 115.4782
" />
<path d="M74.0095 115.4782
L73.9619 115.3829
" />
<path d="M73.9619 115.3829
L73.9619 115.3353
" />
<path d="M73.9619 115.3353
L74.0095 115.2401
" />
<path d="M74.0095 115.2401
L74.0571 115.1924
" />
<path d="M74.0571 115.1924
L74.1524 115.1448
" />
<path d="M74.1524 115.1448
L74.3429 115.1448
" />
<path d="M74.3429 115.1448
L74.4381 115.1924
" />
<path d="M74.4381 115.1924
L74.4857 115.2401
" />
<path d="M74.4857 115.2401
L74.5333 115.3353
" />
<path d="M74.5333 115.3353
L74.5333 115.3829
" />
<path d="M74.5333 115.3829
L74.4857 115.4782
" />
<path d="M74.4857 115.4782
L74.4381 115.5258
" />
<path d="M74.4381 115.5258
L74.3429 115.5734
" />
<path d="M74.3429 115.5734
L74.1524 115.5734
" />
<path d="M74.1524 115.5734
L74.0571 115.6210
" />
<path d="M74.0571 115.6210
L74.0095 115.6686
" />
<path d="M74.0095 115.6686
L73.9619 115.7639
" />
<path d="M73.9619 115.7639
L73.9619 115.9543
" />
<path d="M73.9619 115.9543
L74.0095 116.0496
" />
<path d="M74.0095 116.0496
L74.0571 116.0972
" />
<path d="M74.0571 116.0972
L74.1524 116.1448
" />
<path d="M74.1524 116.1448
L74.3429 116.1448
" />
<path d="M74.3429 116.1448
L74.4381 116.0972
" />
<path d="M74.4381 116.0972
L74.4857 116.0496
" />
<path d="M74.4857 116.0496
L74.5333 115.9543
" />
<path d="M74.5333 115.9543
L74.5333 115.7639
" />
<path d="M74.5333 115.7639
L74.4857 115.6686
" />
<path d="M74.4857 115.6686
L74.4381 115.6210
" />
<path d="M74.4381 115.6210
L74.3429 115.5734
" />
<path d="M75.3905 115.1448
L75.2000 115.1448
" />
<path d="M75.2000 115.1448
L75.1048 115.1924
" />
<path d="M75.1048 115.1924
L75.0571 115.2401
" />
<path d="M75.0571 115.2401
L74.9619 115.3829
" />
<path d="M74.9619 115.3829
L74.9143 115.5734
" />
<path d="M74.9143 115.5734
L74.9143 115.9543
" />
<path d="M74.9143 115.9543
L74.9619 116.0496
" />
<path d="M74.9619 116.0496
L75.0095 116.0972
" />
<path d="M75.0095 116.0972
L75.1048 116.1448
" />
<path d="M75.1048 116.1448
L75.2952 116.1448
" />
<path d="M75.2952 116.1448
L75.3905 116.0972
" />
<path d="M75.3905 116.0972
L75.4381 116.0496
" />
<path d="M75.4381 116.0496
L75.4857 115.9543
" />
<path d="M75.4857 115.9543
L75.4857 115.7162
" />
<path d="M75.4857 115.7162
L75.4381 115.6210
" />
<path d="M75.4381 115.6210
L75.3905 115.5734
" />
<path d="M75.3905 115.5734
L75.2952 115.5258
" />
<path d="M75.2952 115.5258
L75.1048 115.5258
" />
<path d="M75.1048 115.5258
L75.0095 115.5734
" />
<path d="M75.0095 115.5734
L74.9619 115.6210
" />
<path d="M74.9619 115.6210
L74.9143 115.7162
" />
<path d="M76.1048 115.1448
L76.2000 115.1448
" />
<path d="M76.2000 115.1448
L76.2952 115.1924
" />
<path d="M76.2952 115.1924
L76.3429 115.2401
" />
<path d="M76.3429 115.2401
L76.3905 115.3353
" />
<path d="M76.3905 115.3353
L76.4381 115.5258
" />
<path d="M76.4381 115.5258
L76.4381 115.7639
" />
<path d="M76.4381 115.7639
L76.3905 115.9543
" />
<path d="M76.3905 115.9543
L76.3429 116.0496
" />
<path d="M76.3429 116.0496
L76.2952 116.0972
" />
<path d="M76.2952 116.0972
L76.2000 116.1448
" />
<path d="M76.2000 116.1448
L76.1048 116.1448
" />
<path d="M76.1048 116.1448
L76.0095 116.0972
" />
<path d="M76.0095 116.0972
L75.9619 116.0496
" />
<path d="M75.9619 116.0496
L75.9143 115.9543
" />
<path d="M75.9143 115.9543
L75.8667 115.7639
" />
<path d="M75.8667 115.7639
L75.8667 115.5258
" />
<path d="M75.8667 115.5258
L75.9143 115.3353
" />
<path d="M75.9143 115.3353
L75.9619 115.2401
" />
<path d="M75.9619 115.2401
L76.0095 115.1924
" />
<path d="M76.0095 115.1924
L76.1048 115.1448
" />
<path d="M77.0571 115.1448
L77.1524 115.1448
" />
<path d="M77.1524 115.1448
L77.2476 115.1924
" />
<path d="M77.2476 115.1924
L77.2952 115.2401
" />
<path d="M77.2952 115.2401
L77.3429 115.3353
" />
<path d="M77.3429 115.3353
L77.3905 115.5258
" />
<path d="M77.3905 115.5258
L77.3905 115.7639
" />
<path d="M77.3905 115.7639
L77.3429 115.9543
" />
<path d="M77.3429 115.9543
L77.2952 116.0496
" />
<path d="M77.2952 116.0496
L77.2476 116.0972
" />
<path d="M77.2476 116.0972
L77.1524 116.1448
" />
<path d="M77.1524 116.1448
L77.0571 116.1448
" />
<path d="M77.0571 116.1448
L76.9619 116.0972
" />
<path d="M76.9619 116.0972
L76.9143 116.0496
" />
<path d="M76.9143 116.0496
L76.8667 115.9543
" />
<path d="M76.8667 115.9543
L76.8190 115.7639
" />
<path d="M76.8190 115.7639
L76.8190 115.5258
" />
<path d="M76.8190 115.5258
L76.8667 115.3353
" />
<path d="M76.8667 115.3353
L76.9143 115.2401
" />
<path d="M76.9143 115.2401
L76.9619 115.1924
" />
<path d="M76.9619 115.1924
L77.0571 115.1448
" />
<path d="M78.5810 116.1448
L78.5810 115.4782
" />
<path d="M78.5810 115.5734
L78.6286 115.5258
" />
<path d="M78.6286 115.5258
L78.7238 115.4782
" />
<path d="M78.7238 115.4782
L78.8667 115.4782
" />
<path d="M78.8667 115.4782
L78.9619 115.5258
" />
<path d="M78.9619 115.5258
L79.0095 115.6210
" />
<path d="M79.0095 115.6210
L79.0095 116.1448
" />
<path d="M79.0095 115.6210
L79.0571 115.5258
" />
<path d="M79.0571 115.5258
L79.1524 115.4782
" />
<path d="M79.1524 115.4782
L79.2952 115.4782
" />
<path d="M79.2952 115.4782
L79.3905 115.5258
" />
<path d="M79.3905 115.5258
L79.4381 115.6210
" />
<path d="M79.4381 115.6210
L79.4381 116.1448
" />
<path d="M79.9143 116.1448
L79.9143 115.4782
" />
<path d="M79.9143 115.5734
L79.9619 115.5258
" />
<path d="M79.9619 115.5258
L80.0571 115.4782
" />
<path d="M80.0571 115.4782
L80.2000 115.4782
" />
<path d="M80.2000 115.4782
L80.2952 115.5258
" />
<path d="M80.2952 115.5258
L80.3429 115.6210
" />
<path d="M80.3429 115.6210
L80.3429 116.1448
" />
<path d="M80.3429 115.6210
L80.3905 115.5258
" />
<path d="M80.3905 115.5258
L80.4857 115.4782
" />
<path d="M80.4857 115.4782
L80.6286 115.4782
" />
<path d="M80.6286 115.4782
L80.7238 115.5258
" />
<path d="M80.7238 115.5258
L80.7714 115.6210
" />
<path d="M80.7714 115.6210
L80.7714 116.1448
" />
</g></g>
<g style="fill:none; 
stroke:#000000; stroke-width:0.1000; stroke-opacity:1; 
stroke-linecap:round; stroke-linejoin:round;">
<path d="M64.7700 108.4500
L64.7700 117.4264
" />
<path d="M87.6300 117.4264
L87.6300 108.4500
" />
<path d="M64.7700 116.8400
L87.6300 116.8400
" />
<path d="M64.7700 116.8400
L87.6300 116.8400
" />
<path d="M64.7700 116.8400
L65.8965 116.2536
" />
<path d="M64.7700 116.8400
L65.8965 117.4264
" />
<path d="M87.6300 116.8400
L86.5035 117.4264
" />
<path d="M87.6300 116.8400
L86.5035 116.2536
" />
</g>
<g style="fill:none; 
stroke:#000000; stroke-width:0.1500; stroke-opacity:1; 
stroke-linecap:round; stroke-linejoin:round;">
<g transform="rotate(-90.000000 95.3700 91.4400)">
<text x="95.3700" y="91.9400"
textLength="9.8690" font-size="1.3333" lengthAdjust="spacingAndGlyphs"
text-anchor="middle" opacity="0">33,0200 mm</text>
</g>
<g class="stroked-text"><desc>33,0200 mm</desc>
<path d="M94.8248 96.1067
L94.8248 95.4876
" />
<path d="M94.8248 95.4876
L95.2058 95.8210
" />
<path d="M95.2058 95.8210
L95.2058 95.6781
" />
<path d="M95.2058 95.6781
L95.2534 95.5829
" />
<path d="M95.2534 95.5829
L95.3010 95.5352
" />
<path d="M95.3010 95.5352
L95.3962 95.4876
" />
<path d="M95.3962 95.4876
L95.6343 95.4876
" />
<path d="M95.6343 95.4876
L95.7296 95.5352
" />
<path d="M95.7296 95.5352
L95.7772 95.5829
" />
<path d="M95.7772 95.5829
L95.8248 95.6781
" />
<path d="M95.8248 95.6781
L95.8248 95.9638
" />
<path d="M95.8248 95.9638
L95.7772 96.0590
" />
<path d="M95.7772 96.0590
L95.7296 96.1067
" />
<path d="M94.8248 95.1543
L94.8248 94.5352
" />
<path d="M94.8248 94.5352
L95.2058 94.8686
" />
<path d="M95.2058 94.8686
L95.2058 94.7257
" />
<path d="M95.2058 94.7257
L95.2534 94.6305
" />
<path d="M95.2534 94.6305
L95.3010 94.5829
" />
<path d="M95.3010 94.5829
L95.3962 94.5352
" />
<path d="M95.3962 94.5352
L95.6343 94.5352
" />
<path d="M95.6343 94.5352
L95.7296 94.5829
" />
<path d="M95.7296 94.5829
L95.7772 94.6305
" />
<path d="M95.7772 94.6305
L95.8248 94.7257
" />
<path d="M95.8248 94.7257
L95.8248 95.0114
" />
<path d="M95.8248 95.0114
L95.7772 95.1067
" />
<path d="M95.7772 95.1067
L95.7296 95.1543
" />
<path d="M95.7772 94.0590
L95.8248 94.0590
" />
<path d="M95.8248 94.0590
L95.9201 94.1067
" />
<path d="M95.9201 94.1067
L95.9677 94.1543
" />
<path d="M94.8248 93.4400
L94.8248 93.3448
" />
<path d="M94.8248 93.3448
L94.8724 93.2495
" />
<path d="M94.8724 93.2495
L94.9201 93.2019
" />
<path d="M94.9201 93.2019
L95.0153 93.1543
" />
<path d="M95.0153 93.1543
L95.2058 93.1067
" />
<path d="M95.2058 93.1067
L95.4439 93.1067
" />
<path d="M95.4439 93.1067
L95.6343 93.1543
" />
<path d="M95.6343 93.1543
L95.7296 93.2019
" />
<path d="M95.7296 93.2019
L95.7772 93.2495
" />
<path d="M95.7772 93.2495
L95.8248 93.3448
" />
<path d="M95.8248 93.3448
L95.8248 93.4400
" />
<path d="M95.8248 93.4400
L95.7772 93.5352
" />
<path d="M95.7772 93.5352
L95.7296 93.5829
" />
<path d="M95.7296 93.5829
L95.6343 93.6305
" />
<path d="M95.6343 93.6305
L95.4439 93.6781
" />
<path d="M95.4439 93.6781
L95.2058 93.6781
" />
<path d="M95.2058 93.6781
L95.0153 93.6305
" />
<path d="M95.0153 93.6305
L94.9201 93.5829
" />
<path d="M94.9201 93.5829
L94.8724 93.5352
" />
<path d="M94.8724 93.5352
L94.8248 93.4400
" />
<path d="M94.9201 92.7257
L94.8724 92.6781
" />
<path d="M94.8724 92.6781
L94.8248 92.5829
" />
<path d="M94.8248 92.5829
L94.8248 92.3448
" />
<path d="M94.8248 92.3448
L94.8724 92.2495
" />
<path d="M94.8724 92.2495
L94.9201 92.2019
" />
<path d="M94.9201 92.2019
L95.0153 92.1543
" />
<path d="M95.0153 92.1543
L95.1105 92.1543
" />
<path d="M95.1105 92.1543
L95.2534 92.2019
" />
<path d="M95.2534 92.2019
L95.8248 92.7733
" />
<path d="M95.8248 92.7733
L95.8248 92.1543
" />
<path d="M94.8248 91.5352
L94.8248 91.4400
" />
<path d="M94.8248 91.4400
L94.8724 91.3448
" />
<path d="M94.8724 91.3448
L94.9201 91.2971
" />
<path d="M94.9201 91.2971
L95.0153 91.2495
" />
<path d="M95.0153 91.2495
L95.2058 91.2019
" />
<path d="M95.2058 91.2019
L95.4439 91.2019
" />
<path d="M95.4439 91.2019
L95.6343 91.2495
" />
<path d="M95.6343 91.2495
L95.7296 91.2971
" />
<path d="M95.7296 91.2971
L95.7772 91.3448
" />
<path d="M95.7772 91.3448
L95.8248 91.4400
" />
<path d="M95.8248 91.4400
L95.8248 91.5352
" />
<path d="M95.8248 91.5352
L95.7772 91.6305
" />
<path d="M95.7772 91.6305
L95.7296 91.6781
" />
<path d="M95.7296 91.6781
L95.6343 91.7257
" />
<path d="M95.6343 91.7257
L95.4439 91.7733
" />
<path d="M95.4439 91.7733
L95.2058 91.7733
" />
<path d="M95.2058 91.7733
L95.0153 91.7257
" />
<path d="M95.0153 91.7257
L94.9201 91.6781
" />
<path d="M94.9201 91.6781
L94.8724 91.6305
" />
<path d="M94.8724 91.6305
L94.8248 91.5352
" />
<path d="M94.8248 90.5829
L94.8248 90.4876
" />
<path d="M94.8248 90.4876
L94.8724 90.3924
" />
<path d="M94.8724 90.3924
L94.9201 90.3448
" />
<path d="M94.9201 90.3448
L95.0153 90.2971
" />
<path d="M95.0153 90.2971
L95.2058 90.2495
" />
<path d="M95.2058 90.2495
L95.4439 90.2495
" />
<path d="M95.4439 90.2495
L95.6343 90.2971
" />
<path d="M95.6343 90.2971
L95.7296 90.3448
" />
<path d="M95.7296 90.3448
L95.7772 90.3924
" />
<path d="M95.7772 90.3924
L95.8248 90.4876
" />
<path d="M95.8248 90.4876
L95.8248 90.5829
" />
<path d="M95.8248 90.5829
L95.7772 90.6781
" />
<path d="M95.7772 90.6781
L95.7296 90.7257
" />
<path d="M95.7296 90.7257
L95.6343 90.7733
" />
<path d="M95.6343 90.7733
L95.4439 90.8210
" />
<path d="M95.4439 90.8210
L95.2058 90.8210
" />
<path d="M95.2058 90.8210
L95.0153 90.7733
" />
<path d="M95.0153 90.7733
L94.9201 90.7257
" />
<path d="M94.9201 90.7257
L94.8724 90.6781
" />
<path d="M94.8724 90.6781
L94.8248 90.5829
" />
<path d="M95.8248 89.0590
L95.1582 89.0590
" />
<path d="M95.2534 89.0590
L95.2058 89.0114
" />
<path d="M95.2058 89.0114
L95.1582 88.9162
" />
<path d="M95.1582 88.9162
L95.1582 88.7733
" />
<path d="M95.1582 88.7733
L95.2058 88.6781
" />
<path d="M95.2058 88.6781
L95.3010 88.6305
" />
<path d="M95.3010 88.6305
L95.8248 88.6305
" />
<path d="M95.3010 88.6305
L95.2058 88.5829
" />
<path d="M95.2058 88.5829
L95.1582 88.4876
" />
<path d="M95.1582 88.4876
L95.1582 88.3448
" />
<path d="M95.1582 88.3448
L95.2058 88.2495
" />
<path d="M95.2058 88.2495
L95.3010 88.2019
" />
<path d="M95.3010 88.2019
L95.8248 88.2019
" />
<path d="M95.8248 87.7257
L95.1582 87.7257
" />
<path d="M95.2534 87.7257
L95.2058 87.6781
" />
<path d="M95.2058 87.6781
L95.1582 87.5829
" />
<path d="M95.1582 87.5829
L95.1582 87.4400
" />
<path d="M95.1582 87.4400
L95.2058 87.3448
" />
<path d="M95.2058 87.3448
L95.3010 87.2971
" />
<path d="M95.3010 87.2971
L95.8248 87.2971
" />
<path d="M95.3010 87.2971
L95.2058 87.2495
" />
<path d="M95.2058 87.2495
L95.1582 87.1543
" />
<path d="M95.1582 87.1543
L95.1582 87.0114
" />
<path d="M95.1582 87.0114
L95.2058 86.9162
" />
<path d="M95.2058 86.9162
L95.3010 86.8686
" />
<path d="M95.3010 86.8686
L95.8248 86.8686
" />
</g></g>
<g style="fill:none; 
stroke:#000000; stroke-width:0.1000; stroke-opacity:1; 
stroke-linecap:round; stroke-linejoin:round;">
<path d="M88.1300 74.9300
L97.1064 74.9300
" />
<path d="M97.1064 107.9500
L88.1300 107.9500
" />
<path d="M96.5200 74.9300
L96.5200 107.9500
" />
<path d="M96.5200 74.9300
L96.5200 107.9500
" />
<path d="M96.5200 74.9300
L97.1064 76.0565
" />
<path d="M96.5200 74.9300
L95.9336 76.0565
" />
<path d="M96.5200 107.9500
L95.9336 106.8235
" />
<path d="M96.5200 107.9500
L97.1064 106.8235
" />
</g>
<g style="fill:none; 
stroke:#000000; stroke-width:0.1500; stroke-opacity:1; 
stroke-linecap:round; stroke-linejoin:round;">
<text x="76.2000" y="120.0000"
textLength="9.8690" font-size="1.3333" lengthAdjust="spacingAndGlyphs"
text-anchor="middle" opacity="0">30,0000 mm</text>
<g class="stroked-text"><desc>30,0000 mm</desc>
<path d="M71.5333 118.9548
L72.1524 118.9548
" />
<path d="M72.1524 118.9548
L71.8190 119.3358
" />
<path d="M71.8190 119.3358
L71.9619 119.3358
" />
<path d="M71.9619 119.3358
L72.0571 119.3834
" />
<path d="M72.0571 119.3834
L72.1048 119.4310
" />
<path d="M72.1048 119.4310
L72.1524 119.5262
" />
<path d="M72.1524 119.5262
L72.1524 119.7643
" />
<path d="M72.1524 119.7643
L72.1048 119.8596
" />
<path d="M72.1048 119.8596
L72.0571 119.9072
" />
<path d="M72.0571 119.9072
L71.9619 119.9548
" />
<path d="M71.9619 119.9548
L71.6762 119.9548
" />
<path d="M71.6762 119.9548
L71.5810 119.9072
" />
<path d="M71.5810 119.9072
L71.5333 119.8596
" />
<path d="M72.7714 118.9548
L72.8667 118.9548
" />
<path d="M72.8667 118.9548
L72.9619 119.0024
" />
<path d="M72.9619 119.0024
L73.0095 119.0501
" />
<path d="M73.0095 119.0501
L73.0571 119.1453
" />
<path d="M73.0571 119.1453
L73.1048 119.3358
" />
<path d="M73.1048 119.3358
L73.1048 119.5739
" />
<path d="M73.1048 119.5739
L73.0571 119.7643
" />
<path d="M73.0571 119.7643
L73.0095 119.8596
" />
<path d="M73.0095 119.8596
L72.9619 119.9072
" />
<path d="M72.9619 119.9072
L72.8667 119.9548
" />
<path d="M72.8667 119.9548
L72.7714 119.9548
" />
<path d="M72.7714 119.9548
L72.6762 119.9072
" />
<path d="M72.6762 119.9072
L72.6286 119.8596
" />
<path d="M72.6286 119.8596
L72.5810 119.7643
" />
<path d="M72.5810 119.7643
L72.5333 119.5739
" />
<path d="M72.5333 119.5739
L72.5333 119.3358
" />
<path d="M72.5333 119.3358
L72.5810 119.1453
" />
<path d="M72.5810 119.1453
L72.6286 119.0501
" />
<path d="M72.6286 119.0501
L72.6762 119.0024
" />
<path d="M72.6762 119.0024
L72.7714 118.9548
" />
<path d="M73.5810 119.9072
L73.5810 119.9548
" />
<path d="M73.5810 119.9548
L73.5333 120.0501
" />
<path d="M73.5333 120.0501
L73.4857 120.0977
" />
<path d="M74.2000 118.9548
L74.2952 118.9548
" />
<path d="M74.2952 118.9548
L74.3905 119.0024
" />
<path d="M74.3905 119.0024
L74.4381 119.0501
" />
<path d="M74.4381 119.0501
L74.4857 119.1453
" />
<path d="M74.4857 119.1453
L74.5333 119.3358
" />
<path d="M74.5333 119.3358
L74.5333 119.5739
" />
<path d="M74.5333 119.5739
L74.4857 119.7643
" />
<path d="M74.4857 119.7643
L74.4381 119.8596
" />
<path d="M74.4381 119.8596
L74.3905 119.9072
" />
<path d="M74.3905 119.9072
L74.2952 119.9548
" />
<path d="M74.2952 119.9548
L74.2000 119.9548
" />
<path d="M74.2000 119.9548
L74.1048 119.9072
" />
<path d="M74.1048 119.9072
L74.0571 119.8596
" />
<path d="M74.0571 119.8596
L74.0095 119.7643
" />
<path d="M74.0095 119.7643
L73.9619 119.5739
" />
<path d="M73.9619 119.5739
L73.9619 119.3358
" />
<path d="M73.9619 119.3358
L74.0095 119.1453
" />
<path d="M74.0095 119.1453
L74.0571 119.0501
" />
<path d="M74.0571 119.0501
L74.1048 119.0024
" />
<path d="M74.1048 119.0024
L74.2000 118.9548
" />
<path d="M75.1524 118.9548
L75.2476 118.9548
" />
<path d="M75.2476 118.9548
L75.3429 119.0024
" />
<path d="M75.3429 119.0024
L75.3905 119.0501
" />
<path d="M75.3905 119.0501
L75.4381 119.1453
" />
<path d="M75.4381 119.1453
L75.4857 119.3358
" />
<path d="M75.4857 119.3358
L75.4857 119.5739
" />
<path d="M75.4857 119.5739
L75.4381 119.7643
" />
<path d="M75.4381 119.7643
L75.3905 119.8596
" />
<path d="M75.3905 119.8596
L75.3429 119.9072
" />
<path d="M75.3429 119.9072
L75.2476 119.9548
" />
<path d="M75.2476 119.9548
L75.1524 119.9548
" />
<path d="M75.1524 119.9548
L75.0571 119.9072
" />
<path d="M75.0571 119.9072
L75.0095 119.8596
" />
<path d="M75.0095 119.8596
L74.9619 119.7643
" />
<path d="M74.9619 119.7643
L74.9143 119.5739
" />
<path d="M74.9143 119.5739
L74.9143 119.3358
" />
<path d="M74.9143 119.3358
L74.9619 119.1453
" />
<path d="M74.9619 119.1453
L75.0095 119.0501
" />
<path d="M75.0095 119.0501
L75.0571 119.0024
" />
<path d="M75.0571 119.0024
L75.1524 118.9548
" />
<path d="M76.1048 118.9548
L76.2000 118.9548
" />
<path d="M76.2000 118.9548
L76.2952 119.0024
" />
<path d="M76.2952 119.0024
L76.3429 119.0501
" />
<path d="M76.3429 119.0501
L76.3905 119.1453
" />
<path d="M76.3905 119.1453
L76.4381 119.3358
" />
<path d="M76.4381 119.3358
L76.4381 119.5739
" />
<path d="M76.4381 119.5739
L76.3905 119.7643
" />
<path d="M76.3905 119.7643
L76.3429 119.8596
" />
<path d="M76.3429 119.8596
L76.2952 119.9072
" />
<path d="M76.2952 119.9072
L76.2000 119.9548
" />
<path d="M76.2000 119.9548
L76.1048 119.9548
" />
<path d="M76.1048 119.9548
L76.0095 119.9072
" />
<path d="M76.0095 119.9072
L75.9619 119.8596
" />
<path d="M75.9619 119.8596
L75.9143 119.7643
" />
<path d="M75.9143 119.7643
L75.8667 119.5739
" />
<path d="M75.8667 119.5739
L75.8667 119.3358
" />
<path d="M75.8667 119.3358
L75.9143 119.1453
" />
<path d="M75.9143 119.1453
L75.9619 119.0501
" />
<path d="M75.9619 119.0501
L76.0095 119.0024
" />
<path d="M76.0095 119.0024
L76.1048 118.9548
" />
<path d="M77.0571 118.9548
L77.1524 118.9548
" />
<path d="M77.1524 118.9548
L77.2476 119.0024
" />
<path d="M77.2476 119.0024
L77.2952 119.0501
" />
<path d="M77.2952 119.0501
L77.3429 119.1453
" />
<path d="M77.3429 119.1453
L77.3905 119.3358
" />
<path d="M77.3905 119.3358
L77.3905 119.5739
" />
<path d="M77.3905 119.5739
L77.3429 119.7643
" />
<path d="M77.3429 119.7643
L77.2952 119.8596
" />
<path d="M77.2952 119.8596
L77.2476 119.9072
" />
<path d="M77.2476 119.9072
L77.1524 119.9548
" />
<path d="M77.1524 119.9548
L77.0571 119.9548
" />
<path d="M77.0571 119.9548
L76.9619 119.9072
" />
<path d="M76.9619 119.9072
L76.9143 119.8596
" />
<path d="M76.9143 119.8596
L76.8667 119.7643
" />
<path d="M76.8667 119.7643
L76.8190 119.5739
" />
<path d="M76.8190 119.5739
L76.8190 119.3358
" />
<path d="M76.8190 119.3358
L76.8667 119.1453
" />
<path d="M76.8667 119.1453
L76.9143 119.0501
" />
<path d="M76.9143 119.0501
L76.9619 119.0024
" />
<path d="M76.9619 119.0024
L77.0571 118.9548
" />
<path d="M78.5810 119.9548
L78.5810 119.2882
" />
<path d="M78.5810 119.3834
L78.6286 119.3358
" />
<path d="M78.6286 119.3358
L78.7238 119.2882
" />
<path d="M78.7238 119.2882
L78.8667 119.2882
" />
<path d="M78.8667 119.2882
L78.9619 119.3358
" />
<path d="M78.9619 119.3358
L79.0095 119.4310
" />
<path d="M79.0095 119.4310
L79.0095 119.9548
" />
<path d="M79.0095 119.4310
L79.0571 119.3358
" />
<path d="M79.0571 119.3358
L79.1524 119.2882
" />
<path d="M79.1524 119.2882
L79.2952 119.2882
" />
<path d="M79.2952 119.2882
L79.3905 119.3358
" />
<path d="M79.3905 119.3358
L79.4381 119.4310
" />
<path d="M79.4381 119.4310
L79.4381 119.9548
" />
<path d="M79.9143 119.9548
L79.9143 119.2882
" />
<path d="M79.9143 119.3834
L79.9619 119.3358
" />
<path d="M79.9619 119.3358
L80.0571 119.2882
" />
<path d="M80.0571 119.2882
L80.2000 119.2882
" />
<path d="M80.2000 119.2882
L80.2952 119.3358
" />
<path d="M80.2952 119.3358
L80.3429 119.4310
" />
<path d="M80.3429 119.4310
L80.3429 119.9548
" />
<path d="M80.3429 119.4310
L80.3905 119.3358
" />
<path d="M80.3905 119.3358
L80.4857 119.2882
" />
<path d="M80.4857 119.2882
L80.6286 119.2882
" />
<path d="M80.6286 119.2882
L80.7238 119.3358
" />
<path d="M80.7238 119.3358
L80.7714 119.4310
" />
<path d="M80.7714 119.4310
L80.7714 119.9548
" />
</g></g>
<g style="fill:none; 
stroke:#000000; stroke-width:0.1000; stroke-opacity:1; 
stroke-linecap:round; stroke-linejoin:round;">
<path d="M61.2000 109.5000
L61.2000 121.2364
" />
<path d="M91.2000 121.2364
L91.2000 109.4600
" />
<path d="M61.2000 120.6500
L91.2000 120.6500
" />
<path d="M61.2000 120.6500
L91.2000 120.6500
" />
<path d="M61.2000 120.6500
L62.3265 120.0636
" />
<path d="M61.2000 120.6500
L62.3265 121.2364
" />
<path d="M91.2000 120.6500
L90.0735 121.2364
" />
<path d="M91.2000 120.6500
L90.0735 120.0636
" />
</g>
<g style="fill:none; 
stroke:#000000; stroke-width:0.1500; stroke-opacity:1; 
stroke-linecap:round; stroke-linejoin:round;">
<g transform="rotate(-90.000000 99.1800 91.4400)">
<text x="99.1800" y="91.9400"
textLength="9.8690" font-size="1.3333" lengthAdjust="spacingAndGlyphs"
text-anchor="middle" opacity="0">40,6400 mm</text>
</g>
<g class="stroked-text"><desc>40,6400 mm</desc>
<path d="M98.9682 95.5829
L99.6348 95.5829
" />
<path d="M98.5872 95.8210
L99.3015 96.0590
" />
<path d="M99.3015 96.0590
L99.3015 95.4400
" />
<path d="M98.6348 94.8686
L98.6348 94.7733
" />
<path d="M98.6348 94.7733
L98.6824 94.6781
" />
<path d="M98.6824 94.6781
L98.7301 94.6305
" />
<path d="M98.7301 94.6305
L98.8253 94.5829
" />
<path d="M98.8253 94.5829
L99.0158 94.5352
" />
<path d="M99.0158 94.5352
L99.2539 94.5352
" />
<path d="M99.2539 94.5352
L99.4443 94.5829
" />
<path d="M99.4443 94.5829
L99.5396 94.6305
" />
<path d="M99.5396 94.6305
L99.5872 94.6781
" />
<path d="M99.5872 94.6781
L99.6348 94.7733
" />
<path d="M99.6348 94.7733
L99.6348 94.8686
" />
<path d="M99.6348 94.8686
L99.5872 94.9638
" />
<path d="M99.5872 94.9638
L99.5396 95.0114
" />
<path d="M99.5396 95.0114
L99.4443 95.0590
" />
<path d="M99.4443 95.0590
L99.2539 95.1067
" />
<path d="M99.2539 95.1067
L99.0158 95.1067
" />
<path d="M99.0158 95.1067
L98.8253 95.0590
" />
<path d="M98.8253 95.0590
L98.7301 95.0114
" />
<path d="M98.7301 95.0114
L98.6824 94.9638
" />
<path d="M98.6824 94.9638
L98.6348 94.8686
" />
<path d="M99.5872 94.0590
L99.6348 94.0590
" />
<path d="M99.6348 94.0590
L99.7301 94.1067
" />
<path d="M99.7301 94.1067
L99.7777 94.1543
" />
<path d="M98.6348 93.2019
L98.6348 93.3924
" />
<path d="M98.6348 93.3924
L98.6824 93.4876
" />
<path d="M98.6824 93.4876
L98.7301 93.5352
" />
<path d="M98.7301 93.5352
L98.8729 93.6305
" />
<path d="M98.8729 93.6305
L99.0634 93.6781
" />
<path d="M99.0634 93.6781
L99.4443 93.6781
" />
<path d="M99.4443 93.6781
L99.5396 93.6305
" />
<path d="M99.5396 93.6305
L99.5872 93.5829
" />
<path d="M99.5872 93.5829
L99.6348 93.4876
" />
<path d="M99.6348 93.4876
L99.6348 93.2971
" />
<path d="M99.6348 93.2971
L99.5872 93.2019
" />
<path d="M99.5872 93.2019
L99.5396 93.1543
" />
<path d="M99.5396 93.1543
L99.4443 93.1067
" />
<path d="M99.4443 93.1067
L99.2062 93.1067
" />
<path d="M99.2062 93.1067
L99.1110 93.1543
" />
<path d="M99.1110 93.1543
L99.0634 93.2019
" />
<path d="M99.0634 93.2019
L99.0158 93.2971
" />
<path d="M99.0158 93.2971
L99.0158 93.4876
" />
<path d="M99.0158 93.4876
L99.0634 93.5829
" />
<path d="M99.0634 93.5829
L99.1110 93.6305
" />
<path d="M99.1110 93.6305
L99.2062 93.6781
" />
<path d="M98.9682 92.2495
L99.6348 92.2495
" />
<path d="M98.5872 92.4876
L99.3015 92.7257
" />
<path d="M99.3015 92.7257
L99.3015 92.1067
" />
<path d="M98.6348 91.5352
L98.6348 91.4400
" />
<path d="M98.6348 91.4400
L98.6824 91.3448
" />
<path d="M98.6824 91.3448
L98.7301 91.2971
" />
<path d="M98.7301 91.2971
L98.8253 91.2495
" />
<path d="M98.8253 91.2495
L99.0158 91.2019
" />
<path d="M99.0158 91.2019
L99.2539 91.2019
" />
<path d="M99.2539 91.2019
L99.4443 91.2495
" />
<path d="M99.4443 91.2495
L99.5396 91.2971
" />
<path d="M99.5396 91.2971
L99.5872 91.3448
" />
<path d="M99.5872 91.3448
L99.6348 91.4400
" />
<path d="M99.6348 91.4400
L99.6348 91.5352
" />
<path d="M99.6348 91.5352
L99.5872 91.6305
" />
<path d="M99.5872 91.6305
L99.5396 91.6781
" />
<path d="M99.5396 91.6781
L99.4443 91.7257
" />
<path d="M99.4443 91.7257
L99.2539 91.7733
" />
<path d="M99.2539 91.7733
L99.0158 91.7733
" />
<path d="M99.0158 91.7733
L98.8253 91.7257
" />
<path d="M98.8253 91.7257
L98.7301 91.6781
" />
<path d="M98.7301 91.6781
L98.6824 91.6305
" />
<path d="M98.6824 91.6305
L98.6348 91.5352
" />
<path d="M98.6348 90.5829
L98.6348 90.4876
" />
<path d="M98.6348 90.4876
L98.6824 90.3924
" />
<path d="M98.6824 90.3924
L98.7301 90.3448
" />
<path d="M98.7301 90.3448
L98.8253 90.2971
" />
<path d="M98.8253 90.2971
L99.0158 90.2495
" />
<path d="M99.0158 90.2495
L99.2539 90.2495
" />
<path d="M99.2539 90.2495
L99.4443 90.2971
" />
<path d="M99.4443 90.2971
L99.5396 90.3448
" />
<path d="M99.5396 90.3448
L99.5872 90.3924
" />
<path d="M99.5872 90.3924
L99.6348 90.4876
" />
<path d="M99.6348 90.4876
L99.6348 90.5829
" />
<path d="M99.6348 90.5829
L99.5872 90.6781
" />
<path d="M99.5872 90.6781
L99.5396 90.7257
" />
<path d="M99.5396 90.7257
L99.4443 90.7733
" />
<path d="M99.4443 90.7733
L99.2539 90.8210
" />
<path d="M99.2539 90.8210
L99.0158 90.8210
" />
<path d="M99.0158 90.8210
L98.8253 90.7733
" />
<path d="M98.8253 90.7733
L98.7301 90.7257
" />
<path d="M98.7301 90.7257
L98.6824 90.6781
" />
<path d="M98.6824 90.6781
L98.6348 90.5829
" />
<path d="M99.6348 89.0590
L98.9682 89.0590
" />
<path d="M99.0634 89.0590
L99.0158 89.0114
" />
<path d="M99.0158 89.0114
L98.9682 88.9162
" />
<path d="M98.9682 88.9162
L98.9682 88.7733
" />
<path d="M98.9682 88.7733
L99.0158 88.6781
" />
<path d="M99.0158 88.6781
L99.1110 88.6305
" />
<path d="M99.1110 88.6305
L99.6348 88.6305
" />
<path d="M99.1110 88.6305
L99.0158 88.5829
" />
<path d="M99.0158 88.5829
L98.9682 88.4876
" />
<path d="M98.9682 88.4876
L98.9682 88.3448
" />
<path d="M98.9682 88.3448
L99.0158 88.2495
" />
<path d="M99.0158 88.2495
L99.1110 88.2019
" />
<path d="M99.1110 88.2019
L99.6348 88.2019
" />
<path d="M99.6348 87.7257
L98.9682 87.7257
" />
<path d="M99.0634 87.7257
L99.0158 87.6781
" />
<path d="M99.0158 87.6781
L98.9682 87.5829
" />
<path d="M98.9682 87.5829
L98.9682 87.4400
" />
<path d="M98.9682 87.4400
L99.0158 87.3448
" />
<path d="M99.0158 87.3448
L99.1110 87.2971
" />
<path d="M99.1110 87.2971
L99.6348 87.2971
" />
<path d="M99.1110 87.2971
L99.0158 87.2495
" />
<path d="M99.0158 87.2495
L98.9682 87.1543
" />
<path d="M98.9682 87.1543
L98.9682 87.0114
" />
<path d="M98.9682 87.0114
L99.0158 86.9162
" />
<path d="M99.0158 86.9162
L99.1110 86.8686
" />
<path d="M99.1110 86.8686
L99.6348 86.8686
" />
</g></g>
<g style="fill:none; 
stroke:#000000; stroke-width:0.1000; stroke-opacity:1; 
stroke-linecap:round; stroke-linejoin:round;">
<path d="M89.4000 71.1200
L100.9164 71.1200
" />
<path d="M100.9164 111.7600
L91.9400 111.7600
" />
<path d="M100.3300 71.1200
L100.3300 111.7600
" />
<path d="M100.3300 71.1200
L100.3300 111.7600
" />
<path d="M100.3300 71.1200
L100.9164 72.2465
" />
<path d="M100.3300 71.1200
L99.7436 72.2465
" />
<path d="M100.3300 111.7600
L99.7436 110.6335
" />
<path d="M100.3300 111.7600
L100.9164 110.6335
" />
</g>
<g style="fill:none; 
stroke:#000000; stroke-width:0.1500; stroke-opacity:1; 
stroke-linecap:round; stroke-linejoin:round;">
<circle cx="64.7700" cy="107.9500" r="3.2000" /> 
<circle cx="87.6300" cy="107.9500" r="3.2000" /> 
<circle cx="87.6300" cy="74.9300" r="3.2000" /> 
<circle cx="64.7700" cy="74.9300" r="3.2000" /> 
</g>
<g style="fill:none; 
stroke:#000000; stroke-width:0.0500; stroke-opacity:1; 
stroke-linecap:round; stroke-linejoin:round;">
<path d="M91.2000 73.6600
L91.2000 109.2200
" />
<path d="M63.7400 71.1200
L88.6600 71.1200
" />
<path d="M88.6600 111.7600
L63.7400 111.7600
" />
<path d="M61.2000 109.2200
L61.2000 73.6600
" />
<path d="M91.2000 73.6600 A2.5400 2.5400 0.0 0 0 88.6600 71.1200" />
<path d="M88.6600 111.7600 A2.5400 2.5400 0.0 0 0 91.2000 109.2200" />
<path d="M63.7400 71.1200 A2.5400 2.5400 0.0 0 0 61.2000 73.6600" />
<path d="M61.2000 109.2200 A2.5400 2.5400 0.0 0 0 63.7400 111.7600" />
</g> 
</svg>
