%TF.GenerationSoftware,KiCad,Pcbnew,9.0.1*%
%TF.CreationDate,2025-04-28T13:09:30+03:00*%
%TF.ProjectId,PM_CNV-AI4_W,504d5f43-4e56-42d4-9149-345f572e6b69,rev?*%
%TF.SameCoordinates,Original*%
%TF.FileFunction,Legend,Top*%
%TF.FilePolarity,Positive*%
%FSLAX46Y46*%
G04 Gerber Fmt 4.6, Leading zero omitted, Abs format (unit mm)*
G04 Created by KiCad (PCBNEW 9.0.1) date 2025-04-28 13:09:30*
%MOMM*%
%LPD*%
G01*
G04 APERTURE LIST*
%ADD10C,0.150000*%
%ADD11C,0.200000*%
%ADD12C,0.100000*%
%ADD13C,0.120000*%
%ADD14C,0.152400*%
%ADD15C,0.300000*%
%ADD16C,0.000000*%
G04 APERTURE END LIST*
D10*
X-15761905Y-2197466D02*
X-15857143Y-2149847D01*
X-15857143Y-2149847D02*
X-16000000Y-2149847D01*
X-16000000Y-2149847D02*
X-16142857Y-2197466D01*
X-16142857Y-2197466D02*
X-16238095Y-2292704D01*
X-16238095Y-2292704D02*
X-16285714Y-2387942D01*
X-16285714Y-2387942D02*
X-16333333Y-2578418D01*
X-16333333Y-2578418D02*
X-16333333Y-2721275D01*
X-16333333Y-2721275D02*
X-16285714Y-2911751D01*
X-16285714Y-2911751D02*
X-16238095Y-3006989D01*
X-16238095Y-3006989D02*
X-16142857Y-3102228D01*
X-16142857Y-3102228D02*
X-16000000Y-3149847D01*
X-16000000Y-3149847D02*
X-15904762Y-3149847D01*
X-15904762Y-3149847D02*
X-15761905Y-3102228D01*
X-15761905Y-3102228D02*
X-15714286Y-3054608D01*
X-15714286Y-3054608D02*
X-15714286Y-2721275D01*
X-15714286Y-2721275D02*
X-15904762Y-2721275D01*
X-15285714Y-3149847D02*
X-15285714Y-2149847D01*
X-15285714Y-2149847D02*
X-14714286Y-3149847D01*
X-14714286Y-3149847D02*
X-14714286Y-2149847D01*
X-14238095Y-3149847D02*
X-14238095Y-2149847D01*
X-14238095Y-2149847D02*
X-14000000Y-2149847D01*
X-14000000Y-2149847D02*
X-13857143Y-2197466D01*
X-13857143Y-2197466D02*
X-13761905Y-2292704D01*
X-13761905Y-2292704D02*
X-13714286Y-2387942D01*
X-13714286Y-2387942D02*
X-13666667Y-2578418D01*
X-13666667Y-2578418D02*
X-13666667Y-2721275D01*
X-13666667Y-2721275D02*
X-13714286Y-2911751D01*
X-13714286Y-2911751D02*
X-13761905Y-3006989D01*
X-13761905Y-3006989D02*
X-13857143Y-3102228D01*
X-13857143Y-3102228D02*
X-14000000Y-3149847D01*
X-14000000Y-3149847D02*
X-14238095Y-3149847D01*
X-15642858Y-4664552D02*
X-15690477Y-4712172D01*
X-15690477Y-4712172D02*
X-15833334Y-4759791D01*
X-15833334Y-4759791D02*
X-15928572Y-4759791D01*
X-15928572Y-4759791D02*
X-16071429Y-4712172D01*
X-16071429Y-4712172D02*
X-16166667Y-4616933D01*
X-16166667Y-4616933D02*
X-16214286Y-4521695D01*
X-16214286Y-4521695D02*
X-16261905Y-4331219D01*
X-16261905Y-4331219D02*
X-16261905Y-4188362D01*
X-16261905Y-4188362D02*
X-16214286Y-3997886D01*
X-16214286Y-3997886D02*
X-16166667Y-3902648D01*
X-16166667Y-3902648D02*
X-16071429Y-3807410D01*
X-16071429Y-3807410D02*
X-15928572Y-3759791D01*
X-15928572Y-3759791D02*
X-15833334Y-3759791D01*
X-15833334Y-3759791D02*
X-15690477Y-3807410D01*
X-15690477Y-3807410D02*
X-15642858Y-3855029D01*
X-15214286Y-4759791D02*
X-15214286Y-3759791D01*
X-15214286Y-3759791D02*
X-14642858Y-4759791D01*
X-14642858Y-4759791D02*
X-14642858Y-3759791D01*
X-14309524Y-3759791D02*
X-13976191Y-4759791D01*
X-13976191Y-4759791D02*
X-13642858Y-3759791D01*
X-18761905Y14802534D02*
X-18857143Y14850153D01*
X-18857143Y14850153D02*
X-19000000Y14850153D01*
X-19000000Y14850153D02*
X-19142857Y14802534D01*
X-19142857Y14802534D02*
X-19238095Y14707296D01*
X-19238095Y14707296D02*
X-19285714Y14612058D01*
X-19285714Y14612058D02*
X-19333333Y14421582D01*
X-19333333Y14421582D02*
X-19333333Y14278725D01*
X-19333333Y14278725D02*
X-19285714Y14088249D01*
X-19285714Y14088249D02*
X-19238095Y13993011D01*
X-19238095Y13993011D02*
X-19142857Y13897772D01*
X-19142857Y13897772D02*
X-19000000Y13850153D01*
X-19000000Y13850153D02*
X-18904762Y13850153D01*
X-18904762Y13850153D02*
X-18761905Y13897772D01*
X-18761905Y13897772D02*
X-18714286Y13945392D01*
X-18714286Y13945392D02*
X-18714286Y14278725D01*
X-18714286Y14278725D02*
X-18904762Y14278725D01*
X-18285714Y13850153D02*
X-18285714Y14850153D01*
X-18285714Y14850153D02*
X-17714286Y13850153D01*
X-17714286Y13850153D02*
X-17714286Y14850153D01*
X-17238095Y13850153D02*
X-17238095Y14850153D01*
X-17238095Y14850153D02*
X-17000000Y14850153D01*
X-17000000Y14850153D02*
X-16857143Y14802534D01*
X-16857143Y14802534D02*
X-16761905Y14707296D01*
X-16761905Y14707296D02*
X-16714286Y14612058D01*
X-16714286Y14612058D02*
X-16666667Y14421582D01*
X-16666667Y14421582D02*
X-16666667Y14278725D01*
X-16666667Y14278725D02*
X-16714286Y14088249D01*
X-16714286Y14088249D02*
X-16761905Y13993011D01*
X-16761905Y13993011D02*
X-16857143Y13897772D01*
X-16857143Y13897772D02*
X-17000000Y13850153D01*
X-17000000Y13850153D02*
X-17238095Y13850153D01*
X-19357143Y12240209D02*
X-19357143Y13240209D01*
X-19357143Y13240209D02*
X-19023810Y12525924D01*
X-19023810Y12525924D02*
X-18690477Y13240209D01*
X-18690477Y13240209D02*
X-18690477Y12240209D01*
X-17642858Y12335448D02*
X-17690477Y12287828D01*
X-17690477Y12287828D02*
X-17833334Y12240209D01*
X-17833334Y12240209D02*
X-17928572Y12240209D01*
X-17928572Y12240209D02*
X-18071429Y12287828D01*
X-18071429Y12287828D02*
X-18166667Y12383067D01*
X-18166667Y12383067D02*
X-18214286Y12478305D01*
X-18214286Y12478305D02*
X-18261905Y12668781D01*
X-18261905Y12668781D02*
X-18261905Y12811638D01*
X-18261905Y12811638D02*
X-18214286Y13002114D01*
X-18214286Y13002114D02*
X-18166667Y13097352D01*
X-18166667Y13097352D02*
X-18071429Y13192590D01*
X-18071429Y13192590D02*
X-17928572Y13240209D01*
X-17928572Y13240209D02*
X-17833334Y13240209D01*
X-17833334Y13240209D02*
X-17690477Y13192590D01*
X-17690477Y13192590D02*
X-17642858Y13144971D01*
X-17214286Y13240209D02*
X-17214286Y12430686D01*
X-17214286Y12430686D02*
X-17166667Y12335448D01*
X-17166667Y12335448D02*
X-17119048Y12287828D01*
X-17119048Y12287828D02*
X-17023810Y12240209D01*
X-17023810Y12240209D02*
X-16833334Y12240209D01*
X-16833334Y12240209D02*
X-16738096Y12287828D01*
X-16738096Y12287828D02*
X-16690477Y12335448D01*
X-16690477Y12335448D02*
X-16642858Y12430686D01*
X-16642858Y12430686D02*
X-16642858Y13240209D01*
D11*
G36*
X-34178446Y38571951D02*
G01*
X-34153777Y38547283D01*
X-34123972Y38487673D01*
X-34123972Y38230328D01*
X-34447781Y38230328D01*
X-34447781Y38487673D01*
X-34417976Y38547283D01*
X-34393308Y38571952D01*
X-34333698Y38601756D01*
X-34238055Y38601756D01*
X-34178446Y38571951D01*
G37*
G36*
X-33336670Y36919217D02*
G01*
X-34758892Y36919217D01*
X-34758892Y37558899D01*
X-34647781Y37558899D01*
X-34647781Y37320804D01*
X-34645860Y37301295D01*
X-34644485Y37297975D01*
X-34644230Y37294391D01*
X-34637224Y37276083D01*
X-34589605Y37180845D01*
X-34584320Y37172449D01*
X-34583309Y37170009D01*
X-34581056Y37167263D01*
X-34579162Y37164255D01*
X-34577168Y37162526D01*
X-34570873Y37154855D01*
X-34523254Y37107237D01*
X-34515588Y37100945D01*
X-34513855Y37098947D01*
X-34510847Y37097054D01*
X-34508101Y37094800D01*
X-34505661Y37093790D01*
X-34497264Y37088504D01*
X-34402027Y37040885D01*
X-34383718Y37033879D01*
X-34380135Y37033625D01*
X-34376814Y37032249D01*
X-34357305Y37030328D01*
X-34262067Y37030328D01*
X-34242558Y37032249D01*
X-34239238Y37033625D01*
X-34235654Y37033879D01*
X-34217346Y37040885D01*
X-34122108Y37088504D01*
X-34113712Y37093790D01*
X-34111272Y37094800D01*
X-34108526Y37097054D01*
X-34105518Y37098947D01*
X-34103789Y37100942D01*
X-34096118Y37107236D01*
X-34048500Y37154855D01*
X-34042208Y37162522D01*
X-34040210Y37164254D01*
X-34038317Y37167263D01*
X-34036063Y37170008D01*
X-34035053Y37172449D01*
X-34029767Y37180845D01*
X-33982148Y37276082D01*
X-33981602Y37277511D01*
X-33981172Y37278090D01*
X-33978251Y37286267D01*
X-33975142Y37294391D01*
X-33975091Y37295112D01*
X-33974577Y37296550D01*
X-33929621Y37476376D01*
X-33894167Y37547283D01*
X-33869499Y37571952D01*
X-33809889Y37601756D01*
X-33761865Y37601756D01*
X-33702254Y37571950D01*
X-33677586Y37547283D01*
X-33647781Y37487673D01*
X-33647781Y37289412D01*
X-33690268Y37161951D01*
X-33694615Y37142835D01*
X-33691849Y37103915D01*
X-33674399Y37069016D01*
X-33644923Y37043451D01*
X-33607907Y37031113D01*
X-33568987Y37033879D01*
X-33534088Y37051329D01*
X-33508523Y37080805D01*
X-33500532Y37098705D01*
X-33452913Y37241562D01*
X-33450714Y37251235D01*
X-33449702Y37253676D01*
X-33449354Y37257214D01*
X-33448566Y37260677D01*
X-33448754Y37263312D01*
X-33447781Y37273185D01*
X-33447781Y37511280D01*
X-33449702Y37530789D01*
X-33451078Y37534110D01*
X-33451332Y37537693D01*
X-33458338Y37556002D01*
X-33505957Y37651239D01*
X-33511243Y37659636D01*
X-33512253Y37662076D01*
X-33514507Y37664822D01*
X-33516400Y37667830D01*
X-33518397Y37669562D01*
X-33524690Y37677230D01*
X-33572310Y37724848D01*
X-33579980Y37731143D01*
X-33581709Y37733137D01*
X-33584714Y37735029D01*
X-33587463Y37737285D01*
X-33589907Y37738297D01*
X-33598299Y37743580D01*
X-33693537Y37791199D01*
X-33711845Y37798205D01*
X-33715429Y37798460D01*
X-33718749Y37799835D01*
X-33738258Y37801756D01*
X-33833496Y37801756D01*
X-33853005Y37799835D01*
X-33856326Y37798460D01*
X-33859909Y37798205D01*
X-33878218Y37791199D01*
X-33973455Y37743580D01*
X-33981852Y37738295D01*
X-33984292Y37737284D01*
X-33987038Y37735031D01*
X-33990046Y37733137D01*
X-33991779Y37731140D01*
X-33999445Y37724847D01*
X-34047064Y37677229D01*
X-34053359Y37669559D01*
X-34055353Y37667829D01*
X-34057247Y37664822D01*
X-34059500Y37662075D01*
X-34060511Y37659636D01*
X-34065796Y37651239D01*
X-34113415Y37556001D01*
X-34113961Y37554575D01*
X-34114391Y37553994D01*
X-34117313Y37545818D01*
X-34120421Y37537693D01*
X-34120473Y37536971D01*
X-34120986Y37535533D01*
X-34165943Y37355709D01*
X-34201396Y37284802D01*
X-34226065Y37260134D01*
X-34285674Y37230328D01*
X-34333698Y37230328D01*
X-34393308Y37260133D01*
X-34417976Y37284802D01*
X-34447781Y37344412D01*
X-34447781Y37542672D01*
X-34405294Y37670133D01*
X-34400947Y37689248D01*
X-34403713Y37728168D01*
X-34421163Y37763067D01*
X-34450639Y37788632D01*
X-34487655Y37800971D01*
X-34526575Y37798204D01*
X-34561474Y37780755D01*
X-34587039Y37751279D01*
X-34595030Y37733378D01*
X-34642649Y37590522D01*
X-34644849Y37580851D01*
X-34645860Y37578408D01*
X-34646209Y37574870D01*
X-34646996Y37571406D01*
X-34646809Y37568773D01*
X-34647781Y37558899D01*
X-34758892Y37558899D01*
X-34758892Y38511280D01*
X-34647781Y38511280D01*
X-34647781Y38130328D01*
X-34645860Y38110819D01*
X-34630928Y38074771D01*
X-34603338Y38047181D01*
X-34567290Y38032249D01*
X-34547781Y38030328D01*
X-33547781Y38030328D01*
X-33528272Y38032249D01*
X-33492224Y38047181D01*
X-33464634Y38074771D01*
X-33449702Y38110819D01*
X-33449702Y38149837D01*
X-33464634Y38185885D01*
X-33492224Y38213475D01*
X-33528272Y38228407D01*
X-33547781Y38230328D01*
X-33923972Y38230328D01*
X-33923972Y38511280D01*
X-33925893Y38530789D01*
X-33927269Y38534110D01*
X-33927523Y38537693D01*
X-33934529Y38556002D01*
X-33982148Y38651239D01*
X-33987434Y38659636D01*
X-33988444Y38662076D01*
X-33990698Y38664822D01*
X-33992591Y38667830D01*
X-33994589Y38669563D01*
X-34000881Y38677229D01*
X-34048499Y38724848D01*
X-34056170Y38731143D01*
X-34057899Y38733137D01*
X-34060907Y38735031D01*
X-34063653Y38737284D01*
X-34066093Y38738295D01*
X-34074489Y38743580D01*
X-34169727Y38791199D01*
X-34188035Y38798205D01*
X-34191619Y38798460D01*
X-34194939Y38799835D01*
X-34214448Y38801756D01*
X-34357305Y38801756D01*
X-34376814Y38799835D01*
X-34380135Y38798460D01*
X-34383718Y38798205D01*
X-34402027Y38791199D01*
X-34497264Y38743580D01*
X-34505661Y38738295D01*
X-34508101Y38737284D01*
X-34510847Y38735031D01*
X-34513855Y38733137D01*
X-34515588Y38731140D01*
X-34523254Y38724847D01*
X-34570873Y38677229D01*
X-34577168Y38669559D01*
X-34579162Y38667829D01*
X-34581056Y38664822D01*
X-34583309Y38662075D01*
X-34584320Y38659636D01*
X-34589605Y38651239D01*
X-34637224Y38556001D01*
X-34644230Y38537693D01*
X-34644485Y38534110D01*
X-34645860Y38530789D01*
X-34647781Y38511280D01*
X-34758892Y38511280D01*
X-34758892Y39149837D01*
X-34645860Y39149837D01*
X-34645860Y39110819D01*
X-34630928Y39074771D01*
X-34603338Y39047181D01*
X-34567290Y39032249D01*
X-34547781Y39030328D01*
X-33547781Y39030328D01*
X-33528272Y39032249D01*
X-33492224Y39047181D01*
X-33464634Y39074771D01*
X-33449702Y39110819D01*
X-33449702Y39149837D01*
X-33464634Y39185885D01*
X-33492224Y39213475D01*
X-33528272Y39228407D01*
X-33547781Y39230328D01*
X-34547781Y39230328D01*
X-34567290Y39228407D01*
X-34603338Y39213475D01*
X-34630928Y39185885D01*
X-34645860Y39149837D01*
X-34758892Y39149837D01*
X-34758892Y39341439D01*
X-33336670Y39341439D01*
X-33336670Y36919217D01*
G37*
G36*
X-25820782Y-964024D02*
G01*
X-25749873Y-999478D01*
X-25682803Y-1066548D01*
X-25647781Y-1171613D01*
X-25647781Y-1293482D01*
X-26447781Y-1293482D01*
X-26447781Y-1171614D01*
X-26412760Y-1066549D01*
X-26345687Y-999477D01*
X-26274782Y-964024D01*
X-26106901Y-922054D01*
X-25988663Y-922054D01*
X-25820782Y-964024D01*
G37*
G36*
X-25336670Y-3318879D02*
G01*
X-26758892Y-3318879D01*
X-26758892Y-3088259D01*
X-26645860Y-3088259D01*
X-26645860Y-3127277D01*
X-26630928Y-3163325D01*
X-26603338Y-3190915D01*
X-26567290Y-3205847D01*
X-26547781Y-3207768D01*
X-25547781Y-3207768D01*
X-25528272Y-3205847D01*
X-25492224Y-3190915D01*
X-25464634Y-3163325D01*
X-25449702Y-3127277D01*
X-25447781Y-3107768D01*
X-25447781Y-2631578D01*
X-25449702Y-2612069D01*
X-25464634Y-2576021D01*
X-25492224Y-2548431D01*
X-25528272Y-2533499D01*
X-25567290Y-2533499D01*
X-25603338Y-2548431D01*
X-25630928Y-2576021D01*
X-25645860Y-2612069D01*
X-25647781Y-2631578D01*
X-25647781Y-3007768D01*
X-26547781Y-3007768D01*
X-26567290Y-3009689D01*
X-26603338Y-3024621D01*
X-26630928Y-3052211D01*
X-26645860Y-3088259D01*
X-26758892Y-3088259D01*
X-26758892Y-1822054D01*
X-26647781Y-1822054D01*
X-26647781Y-2298244D01*
X-26645860Y-2317753D01*
X-26630928Y-2353801D01*
X-26603338Y-2381391D01*
X-26567290Y-2396323D01*
X-26547781Y-2398244D01*
X-25547781Y-2398244D01*
X-25528272Y-2396323D01*
X-25492224Y-2381391D01*
X-25464634Y-2353801D01*
X-25449702Y-2317753D01*
X-25447781Y-2298244D01*
X-25447781Y-1822054D01*
X-25449702Y-1802545D01*
X-25464634Y-1766497D01*
X-25492224Y-1738907D01*
X-25528272Y-1723975D01*
X-25567290Y-1723975D01*
X-25603338Y-1738907D01*
X-25630928Y-1766497D01*
X-25645860Y-1802545D01*
X-25647781Y-1822054D01*
X-25647781Y-2198244D01*
X-25971591Y-2198244D01*
X-25971591Y-1964911D01*
X-25973512Y-1945402D01*
X-25988444Y-1909354D01*
X-26016034Y-1881764D01*
X-26052082Y-1866832D01*
X-26091100Y-1866832D01*
X-26127148Y-1881764D01*
X-26154738Y-1909354D01*
X-26169670Y-1945402D01*
X-26171591Y-1964911D01*
X-26171591Y-2198244D01*
X-26447781Y-2198244D01*
X-26447781Y-1822054D01*
X-26449702Y-1802545D01*
X-26464634Y-1766497D01*
X-26492224Y-1738907D01*
X-26528272Y-1723975D01*
X-26567290Y-1723975D01*
X-26603338Y-1738907D01*
X-26630928Y-1766497D01*
X-26645860Y-1802545D01*
X-26647781Y-1822054D01*
X-26758892Y-1822054D01*
X-26758892Y-1155387D01*
X-26647781Y-1155387D01*
X-26647781Y-1393482D01*
X-26645860Y-1412991D01*
X-26630928Y-1449039D01*
X-26603338Y-1476629D01*
X-26567290Y-1491561D01*
X-26547781Y-1493482D01*
X-25547781Y-1493482D01*
X-25528272Y-1491561D01*
X-25492224Y-1476629D01*
X-25464634Y-1449039D01*
X-25449702Y-1412991D01*
X-25447781Y-1393482D01*
X-25447781Y-1155387D01*
X-25448754Y-1145513D01*
X-25448566Y-1142879D01*
X-25449354Y-1139415D01*
X-25449702Y-1135878D01*
X-25450714Y-1133436D01*
X-25452913Y-1123764D01*
X-25500532Y-980907D01*
X-25508523Y-963007D01*
X-25510878Y-960291D01*
X-25512253Y-956972D01*
X-25524689Y-941819D01*
X-25619929Y-846581D01*
X-25627599Y-840286D01*
X-25629328Y-838292D01*
X-25632333Y-836400D01*
X-25635082Y-834144D01*
X-25637526Y-833131D01*
X-25645918Y-827849D01*
X-25741156Y-780230D01*
X-25742583Y-779684D01*
X-25743163Y-779254D01*
X-25751340Y-776332D01*
X-25759464Y-773224D01*
X-25760187Y-773172D01*
X-25761624Y-772659D01*
X-25952099Y-725040D01*
X-25955481Y-724539D01*
X-25956844Y-723975D01*
X-25964195Y-723251D01*
X-25971492Y-722172D01*
X-25972951Y-722389D01*
X-25976353Y-722054D01*
X-26119210Y-722054D01*
X-26122613Y-722389D01*
X-26124071Y-722172D01*
X-26131369Y-723251D01*
X-26138719Y-723975D01*
X-26140083Y-724539D01*
X-26143464Y-725040D01*
X-26333940Y-772659D01*
X-26335379Y-773172D01*
X-26336099Y-773224D01*
X-26344224Y-776332D01*
X-26352400Y-779254D01*
X-26352980Y-779683D01*
X-26354408Y-780230D01*
X-26449645Y-827849D01*
X-26458044Y-833135D01*
X-26460481Y-834145D01*
X-26463225Y-836396D01*
X-26466236Y-838292D01*
X-26467969Y-840289D01*
X-26475635Y-846581D01*
X-26570873Y-941819D01*
X-26583309Y-956973D01*
X-26584684Y-960291D01*
X-26587039Y-963007D01*
X-26595030Y-980908D01*
X-26642649Y-1123764D01*
X-26644849Y-1133435D01*
X-26645860Y-1135878D01*
X-26646209Y-1139416D01*
X-26646996Y-1142880D01*
X-26646809Y-1145513D01*
X-26647781Y-1155387D01*
X-26758892Y-1155387D01*
X-26758892Y-610943D01*
X-25336670Y-610943D01*
X-25336670Y-3318879D01*
G37*
D10*
X21833333Y7045181D02*
X21500000Y7521372D01*
X21261905Y7045181D02*
X21261905Y8045181D01*
X21261905Y8045181D02*
X21642857Y8045181D01*
X21642857Y8045181D02*
X21738095Y7997562D01*
X21738095Y7997562D02*
X21785714Y7949943D01*
X21785714Y7949943D02*
X21833333Y7854705D01*
X21833333Y7854705D02*
X21833333Y7711848D01*
X21833333Y7711848D02*
X21785714Y7616610D01*
X21785714Y7616610D02*
X21738095Y7568991D01*
X21738095Y7568991D02*
X21642857Y7521372D01*
X21642857Y7521372D02*
X21261905Y7521372D01*
X22738095Y8045181D02*
X22261905Y8045181D01*
X22261905Y8045181D02*
X22214286Y7568991D01*
X22214286Y7568991D02*
X22261905Y7616610D01*
X22261905Y7616610D02*
X22357143Y7664229D01*
X22357143Y7664229D02*
X22595238Y7664229D01*
X22595238Y7664229D02*
X22690476Y7616610D01*
X22690476Y7616610D02*
X22738095Y7568991D01*
X22738095Y7568991D02*
X22785714Y7473753D01*
X22785714Y7473753D02*
X22785714Y7235658D01*
X22785714Y7235658D02*
X22738095Y7140420D01*
X22738095Y7140420D02*
X22690476Y7092800D01*
X22690476Y7092800D02*
X22595238Y7045181D01*
X22595238Y7045181D02*
X22357143Y7045181D01*
X22357143Y7045181D02*
X22261905Y7092800D01*
X22261905Y7092800D02*
X22214286Y7140420D01*
X21833333Y-8954819D02*
X21500000Y-8478628D01*
X21261905Y-8954819D02*
X21261905Y-7954819D01*
X21261905Y-7954819D02*
X21642857Y-7954819D01*
X21642857Y-7954819D02*
X21738095Y-8002438D01*
X21738095Y-8002438D02*
X21785714Y-8050057D01*
X21785714Y-8050057D02*
X21833333Y-8145295D01*
X21833333Y-8145295D02*
X21833333Y-8288152D01*
X21833333Y-8288152D02*
X21785714Y-8383390D01*
X21785714Y-8383390D02*
X21738095Y-8431009D01*
X21738095Y-8431009D02*
X21642857Y-8478628D01*
X21642857Y-8478628D02*
X21261905Y-8478628D01*
X22309524Y-8954819D02*
X22500000Y-8954819D01*
X22500000Y-8954819D02*
X22595238Y-8907200D01*
X22595238Y-8907200D02*
X22642857Y-8859580D01*
X22642857Y-8859580D02*
X22738095Y-8716723D01*
X22738095Y-8716723D02*
X22785714Y-8526247D01*
X22785714Y-8526247D02*
X22785714Y-8145295D01*
X22785714Y-8145295D02*
X22738095Y-8050057D01*
X22738095Y-8050057D02*
X22690476Y-8002438D01*
X22690476Y-8002438D02*
X22595238Y-7954819D01*
X22595238Y-7954819D02*
X22404762Y-7954819D01*
X22404762Y-7954819D02*
X22309524Y-8002438D01*
X22309524Y-8002438D02*
X22261905Y-8050057D01*
X22261905Y-8050057D02*
X22214286Y-8145295D01*
X22214286Y-8145295D02*
X22214286Y-8383390D01*
X22214286Y-8383390D02*
X22261905Y-8478628D01*
X22261905Y-8478628D02*
X22309524Y-8526247D01*
X22309524Y-8526247D02*
X22404762Y-8573866D01*
X22404762Y-8573866D02*
X22595238Y-8573866D01*
X22595238Y-8573866D02*
X22690476Y-8526247D01*
X22690476Y-8526247D02*
X22738095Y-8478628D01*
X22738095Y-8478628D02*
X22785714Y-8383390D01*
X16357142Y15140420D02*
X16309523Y15092800D01*
X16309523Y15092800D02*
X16166666Y15045181D01*
X16166666Y15045181D02*
X16071428Y15045181D01*
X16071428Y15045181D02*
X15928571Y15092800D01*
X15928571Y15092800D02*
X15833333Y15188039D01*
X15833333Y15188039D02*
X15785714Y15283277D01*
X15785714Y15283277D02*
X15738095Y15473753D01*
X15738095Y15473753D02*
X15738095Y15616610D01*
X15738095Y15616610D02*
X15785714Y15807086D01*
X15785714Y15807086D02*
X15833333Y15902324D01*
X15833333Y15902324D02*
X15928571Y15997562D01*
X15928571Y15997562D02*
X16071428Y16045181D01*
X16071428Y16045181D02*
X16166666Y16045181D01*
X16166666Y16045181D02*
X16309523Y15997562D01*
X16309523Y15997562D02*
X16357142Y15949943D01*
X16738095Y15949943D02*
X16785714Y15997562D01*
X16785714Y15997562D02*
X16880952Y16045181D01*
X16880952Y16045181D02*
X17119047Y16045181D01*
X17119047Y16045181D02*
X17214285Y15997562D01*
X17214285Y15997562D02*
X17261904Y15949943D01*
X17261904Y15949943D02*
X17309523Y15854705D01*
X17309523Y15854705D02*
X17309523Y15759467D01*
X17309523Y15759467D02*
X17261904Y15616610D01*
X17261904Y15616610D02*
X16690476Y15045181D01*
X16690476Y15045181D02*
X17309523Y15045181D01*
X17928571Y16045181D02*
X18023809Y16045181D01*
X18023809Y16045181D02*
X18119047Y15997562D01*
X18119047Y15997562D02*
X18166666Y15949943D01*
X18166666Y15949943D02*
X18214285Y15854705D01*
X18214285Y15854705D02*
X18261904Y15664229D01*
X18261904Y15664229D02*
X18261904Y15426134D01*
X18261904Y15426134D02*
X18214285Y15235658D01*
X18214285Y15235658D02*
X18166666Y15140420D01*
X18166666Y15140420D02*
X18119047Y15092800D01*
X18119047Y15092800D02*
X18023809Y15045181D01*
X18023809Y15045181D02*
X17928571Y15045181D01*
X17928571Y15045181D02*
X17833333Y15092800D01*
X17833333Y15092800D02*
X17785714Y15140420D01*
X17785714Y15140420D02*
X17738095Y15235658D01*
X17738095Y15235658D02*
X17690476Y15426134D01*
X17690476Y15426134D02*
X17690476Y15664229D01*
X17690476Y15664229D02*
X17738095Y15854705D01*
X17738095Y15854705D02*
X17785714Y15949943D01*
X17785714Y15949943D02*
X17833333Y15997562D01*
X17833333Y15997562D02*
X17928571Y16045181D01*
X16357142Y11140420D02*
X16309523Y11092800D01*
X16309523Y11092800D02*
X16166666Y11045181D01*
X16166666Y11045181D02*
X16071428Y11045181D01*
X16071428Y11045181D02*
X15928571Y11092800D01*
X15928571Y11092800D02*
X15833333Y11188039D01*
X15833333Y11188039D02*
X15785714Y11283277D01*
X15785714Y11283277D02*
X15738095Y11473753D01*
X15738095Y11473753D02*
X15738095Y11616610D01*
X15738095Y11616610D02*
X15785714Y11807086D01*
X15785714Y11807086D02*
X15833333Y11902324D01*
X15833333Y11902324D02*
X15928571Y11997562D01*
X15928571Y11997562D02*
X16071428Y12045181D01*
X16071428Y12045181D02*
X16166666Y12045181D01*
X16166666Y12045181D02*
X16309523Y11997562D01*
X16309523Y11997562D02*
X16357142Y11949943D01*
X16738095Y11949943D02*
X16785714Y11997562D01*
X16785714Y11997562D02*
X16880952Y12045181D01*
X16880952Y12045181D02*
X17119047Y12045181D01*
X17119047Y12045181D02*
X17214285Y11997562D01*
X17214285Y11997562D02*
X17261904Y11949943D01*
X17261904Y11949943D02*
X17309523Y11854705D01*
X17309523Y11854705D02*
X17309523Y11759467D01*
X17309523Y11759467D02*
X17261904Y11616610D01*
X17261904Y11616610D02*
X16690476Y11045181D01*
X16690476Y11045181D02*
X17309523Y11045181D01*
X18261904Y11045181D02*
X17690476Y11045181D01*
X17976190Y11045181D02*
X17976190Y12045181D01*
X17976190Y12045181D02*
X17880952Y11902324D01*
X17880952Y11902324D02*
X17785714Y11807086D01*
X17785714Y11807086D02*
X17690476Y11759467D01*
X859580Y14833334D02*
X907200Y14785715D01*
X907200Y14785715D02*
X954819Y14642858D01*
X954819Y14642858D02*
X954819Y14547620D01*
X954819Y14547620D02*
X907200Y14404763D01*
X907200Y14404763D02*
X811961Y14309525D01*
X811961Y14309525D02*
X716723Y14261906D01*
X716723Y14261906D02*
X526247Y14214287D01*
X526247Y14214287D02*
X383390Y14214287D01*
X383390Y14214287D02*
X192914Y14261906D01*
X192914Y14261906D02*
X97676Y14309525D01*
X97676Y14309525D02*
X2438Y14404763D01*
X2438Y14404763D02*
X-45181Y14547620D01*
X-45181Y14547620D02*
X-45181Y14642858D01*
X-45181Y14642858D02*
X2438Y14785715D01*
X2438Y14785715D02*
X50057Y14833334D01*
X954819Y15309525D02*
X954819Y15500001D01*
X954819Y15500001D02*
X907200Y15595239D01*
X907200Y15595239D02*
X859580Y15642858D01*
X859580Y15642858D02*
X716723Y15738096D01*
X716723Y15738096D02*
X526247Y15785715D01*
X526247Y15785715D02*
X145295Y15785715D01*
X145295Y15785715D02*
X50057Y15738096D01*
X50057Y15738096D02*
X2438Y15690477D01*
X2438Y15690477D02*
X-45181Y15595239D01*
X-45181Y15595239D02*
X-45181Y15404763D01*
X-45181Y15404763D02*
X2438Y15309525D01*
X2438Y15309525D02*
X50057Y15261906D01*
X50057Y15261906D02*
X145295Y15214287D01*
X145295Y15214287D02*
X383390Y15214287D01*
X383390Y15214287D02*
X478628Y15261906D01*
X478628Y15261906D02*
X526247Y15309525D01*
X526247Y15309525D02*
X573866Y15404763D01*
X573866Y15404763D02*
X573866Y15595239D01*
X573866Y15595239D02*
X526247Y15690477D01*
X526247Y15690477D02*
X478628Y15738096D01*
X478628Y15738096D02*
X383390Y15785715D01*
X14859580Y-12642857D02*
X14907200Y-12690476D01*
X14907200Y-12690476D02*
X14954819Y-12833333D01*
X14954819Y-12833333D02*
X14954819Y-12928571D01*
X14954819Y-12928571D02*
X14907200Y-13071428D01*
X14907200Y-13071428D02*
X14811961Y-13166666D01*
X14811961Y-13166666D02*
X14716723Y-13214285D01*
X14716723Y-13214285D02*
X14526247Y-13261904D01*
X14526247Y-13261904D02*
X14383390Y-13261904D01*
X14383390Y-13261904D02*
X14192914Y-13214285D01*
X14192914Y-13214285D02*
X14097676Y-13166666D01*
X14097676Y-13166666D02*
X14002438Y-13071428D01*
X14002438Y-13071428D02*
X13954819Y-12928571D01*
X13954819Y-12928571D02*
X13954819Y-12833333D01*
X13954819Y-12833333D02*
X14002438Y-12690476D01*
X14002438Y-12690476D02*
X14050057Y-12642857D01*
X14954819Y-11690476D02*
X14954819Y-12261904D01*
X14954819Y-11976190D02*
X13954819Y-11976190D01*
X13954819Y-11976190D02*
X14097676Y-12071428D01*
X14097676Y-12071428D02*
X14192914Y-12166666D01*
X14192914Y-12166666D02*
X14240533Y-12261904D01*
X13954819Y-11357142D02*
X13954819Y-10690476D01*
X13954819Y-10690476D02*
X14954819Y-11119047D01*
D12*
X28457419Y13206667D02*
X29171704Y13206667D01*
X29171704Y13206667D02*
X29314561Y13159048D01*
X29314561Y13159048D02*
X29409800Y13063810D01*
X29409800Y13063810D02*
X29457419Y12920953D01*
X29457419Y12920953D02*
X29457419Y12825715D01*
X28457419Y13587620D02*
X28457419Y14206667D01*
X28457419Y14206667D02*
X28838371Y13873334D01*
X28838371Y13873334D02*
X28838371Y14016191D01*
X28838371Y14016191D02*
X28885990Y14111429D01*
X28885990Y14111429D02*
X28933609Y14159048D01*
X28933609Y14159048D02*
X29028847Y14206667D01*
X29028847Y14206667D02*
X29266942Y14206667D01*
X29266942Y14206667D02*
X29362180Y14159048D01*
X29362180Y14159048D02*
X29409800Y14111429D01*
X29409800Y14111429D02*
X29457419Y14016191D01*
X29457419Y14016191D02*
X29457419Y13730477D01*
X29457419Y13730477D02*
X29409800Y13635239D01*
X29409800Y13635239D02*
X29362180Y13587620D01*
D10*
X14859580Y11357143D02*
X14907200Y11309524D01*
X14907200Y11309524D02*
X14954819Y11166667D01*
X14954819Y11166667D02*
X14954819Y11071429D01*
X14954819Y11071429D02*
X14907200Y10928572D01*
X14907200Y10928572D02*
X14811961Y10833334D01*
X14811961Y10833334D02*
X14716723Y10785715D01*
X14716723Y10785715D02*
X14526247Y10738096D01*
X14526247Y10738096D02*
X14383390Y10738096D01*
X14383390Y10738096D02*
X14192914Y10785715D01*
X14192914Y10785715D02*
X14097676Y10833334D01*
X14097676Y10833334D02*
X14002438Y10928572D01*
X14002438Y10928572D02*
X13954819Y11071429D01*
X13954819Y11071429D02*
X13954819Y11166667D01*
X13954819Y11166667D02*
X14002438Y11309524D01*
X14002438Y11309524D02*
X14050057Y11357143D01*
X14954819Y12309524D02*
X14954819Y11738096D01*
X14954819Y12023810D02*
X13954819Y12023810D01*
X13954819Y12023810D02*
X14097676Y11928572D01*
X14097676Y11928572D02*
X14192914Y11833334D01*
X14192914Y11833334D02*
X14240533Y11738096D01*
X14288152Y13166667D02*
X14954819Y13166667D01*
X13907200Y12928572D02*
X14621485Y12690477D01*
X14621485Y12690477D02*
X14621485Y13309524D01*
X16357142Y19140420D02*
X16309523Y19092800D01*
X16309523Y19092800D02*
X16166666Y19045181D01*
X16166666Y19045181D02*
X16071428Y19045181D01*
X16071428Y19045181D02*
X15928571Y19092800D01*
X15928571Y19092800D02*
X15833333Y19188039D01*
X15833333Y19188039D02*
X15785714Y19283277D01*
X15785714Y19283277D02*
X15738095Y19473753D01*
X15738095Y19473753D02*
X15738095Y19616610D01*
X15738095Y19616610D02*
X15785714Y19807086D01*
X15785714Y19807086D02*
X15833333Y19902324D01*
X15833333Y19902324D02*
X15928571Y19997562D01*
X15928571Y19997562D02*
X16071428Y20045181D01*
X16071428Y20045181D02*
X16166666Y20045181D01*
X16166666Y20045181D02*
X16309523Y19997562D01*
X16309523Y19997562D02*
X16357142Y19949943D01*
X17309523Y19045181D02*
X16738095Y19045181D01*
X17023809Y19045181D02*
X17023809Y20045181D01*
X17023809Y20045181D02*
X16928571Y19902324D01*
X16928571Y19902324D02*
X16833333Y19807086D01*
X16833333Y19807086D02*
X16738095Y19759467D01*
X17785714Y19045181D02*
X17976190Y19045181D01*
X17976190Y19045181D02*
X18071428Y19092800D01*
X18071428Y19092800D02*
X18119047Y19140420D01*
X18119047Y19140420D02*
X18214285Y19283277D01*
X18214285Y19283277D02*
X18261904Y19473753D01*
X18261904Y19473753D02*
X18261904Y19854705D01*
X18261904Y19854705D02*
X18214285Y19949943D01*
X18214285Y19949943D02*
X18166666Y19997562D01*
X18166666Y19997562D02*
X18071428Y20045181D01*
X18071428Y20045181D02*
X17880952Y20045181D01*
X17880952Y20045181D02*
X17785714Y19997562D01*
X17785714Y19997562D02*
X17738095Y19949943D01*
X17738095Y19949943D02*
X17690476Y19854705D01*
X17690476Y19854705D02*
X17690476Y19616610D01*
X17690476Y19616610D02*
X17738095Y19521372D01*
X17738095Y19521372D02*
X17785714Y19473753D01*
X17785714Y19473753D02*
X17880952Y19426134D01*
X17880952Y19426134D02*
X18071428Y19426134D01*
X18071428Y19426134D02*
X18166666Y19473753D01*
X18166666Y19473753D02*
X18214285Y19521372D01*
X18214285Y19521372D02*
X18261904Y19616610D01*
X14859580Y3357143D02*
X14907200Y3309524D01*
X14907200Y3309524D02*
X14954819Y3166667D01*
X14954819Y3166667D02*
X14954819Y3071429D01*
X14954819Y3071429D02*
X14907200Y2928572D01*
X14907200Y2928572D02*
X14811961Y2833334D01*
X14811961Y2833334D02*
X14716723Y2785715D01*
X14716723Y2785715D02*
X14526247Y2738096D01*
X14526247Y2738096D02*
X14383390Y2738096D01*
X14383390Y2738096D02*
X14192914Y2785715D01*
X14192914Y2785715D02*
X14097676Y2833334D01*
X14097676Y2833334D02*
X14002438Y2928572D01*
X14002438Y2928572D02*
X13954819Y3071429D01*
X13954819Y3071429D02*
X13954819Y3166667D01*
X13954819Y3166667D02*
X14002438Y3309524D01*
X14002438Y3309524D02*
X14050057Y3357143D01*
X14954819Y4309524D02*
X14954819Y3738096D01*
X14954819Y4023810D02*
X13954819Y4023810D01*
X13954819Y4023810D02*
X14097676Y3928572D01*
X14097676Y3928572D02*
X14192914Y3833334D01*
X14192914Y3833334D02*
X14240533Y3738096D01*
X13954819Y5214286D02*
X13954819Y4738096D01*
X13954819Y4738096D02*
X14431009Y4690477D01*
X14431009Y4690477D02*
X14383390Y4738096D01*
X14383390Y4738096D02*
X14335771Y4833334D01*
X14335771Y4833334D02*
X14335771Y5071429D01*
X14335771Y5071429D02*
X14383390Y5166667D01*
X14383390Y5166667D02*
X14431009Y5214286D01*
X14431009Y5214286D02*
X14526247Y5261905D01*
X14526247Y5261905D02*
X14764342Y5261905D01*
X14764342Y5261905D02*
X14859580Y5214286D01*
X14859580Y5214286D02*
X14907200Y5166667D01*
X14907200Y5166667D02*
X14954819Y5071429D01*
X14954819Y5071429D02*
X14954819Y4833334D01*
X14954819Y4833334D02*
X14907200Y4738096D01*
X14907200Y4738096D02*
X14859580Y4690477D01*
X16357142Y23140420D02*
X16309523Y23092800D01*
X16309523Y23092800D02*
X16166666Y23045181D01*
X16166666Y23045181D02*
X16071428Y23045181D01*
X16071428Y23045181D02*
X15928571Y23092800D01*
X15928571Y23092800D02*
X15833333Y23188039D01*
X15833333Y23188039D02*
X15785714Y23283277D01*
X15785714Y23283277D02*
X15738095Y23473753D01*
X15738095Y23473753D02*
X15738095Y23616610D01*
X15738095Y23616610D02*
X15785714Y23807086D01*
X15785714Y23807086D02*
X15833333Y23902324D01*
X15833333Y23902324D02*
X15928571Y23997562D01*
X15928571Y23997562D02*
X16071428Y24045181D01*
X16071428Y24045181D02*
X16166666Y24045181D01*
X16166666Y24045181D02*
X16309523Y23997562D01*
X16309523Y23997562D02*
X16357142Y23949943D01*
X17309523Y23045181D02*
X16738095Y23045181D01*
X17023809Y23045181D02*
X17023809Y24045181D01*
X17023809Y24045181D02*
X16928571Y23902324D01*
X16928571Y23902324D02*
X16833333Y23807086D01*
X16833333Y23807086D02*
X16738095Y23759467D01*
X17880952Y23616610D02*
X17785714Y23664229D01*
X17785714Y23664229D02*
X17738095Y23711848D01*
X17738095Y23711848D02*
X17690476Y23807086D01*
X17690476Y23807086D02*
X17690476Y23854705D01*
X17690476Y23854705D02*
X17738095Y23949943D01*
X17738095Y23949943D02*
X17785714Y23997562D01*
X17785714Y23997562D02*
X17880952Y24045181D01*
X17880952Y24045181D02*
X18071428Y24045181D01*
X18071428Y24045181D02*
X18166666Y23997562D01*
X18166666Y23997562D02*
X18214285Y23949943D01*
X18214285Y23949943D02*
X18261904Y23854705D01*
X18261904Y23854705D02*
X18261904Y23807086D01*
X18261904Y23807086D02*
X18214285Y23711848D01*
X18214285Y23711848D02*
X18166666Y23664229D01*
X18166666Y23664229D02*
X18071428Y23616610D01*
X18071428Y23616610D02*
X17880952Y23616610D01*
X17880952Y23616610D02*
X17785714Y23568991D01*
X17785714Y23568991D02*
X17738095Y23521372D01*
X17738095Y23521372D02*
X17690476Y23426134D01*
X17690476Y23426134D02*
X17690476Y23235658D01*
X17690476Y23235658D02*
X17738095Y23140420D01*
X17738095Y23140420D02*
X17785714Y23092800D01*
X17785714Y23092800D02*
X17880952Y23045181D01*
X17880952Y23045181D02*
X18071428Y23045181D01*
X18071428Y23045181D02*
X18166666Y23092800D01*
X18166666Y23092800D02*
X18214285Y23140420D01*
X18214285Y23140420D02*
X18261904Y23235658D01*
X18261904Y23235658D02*
X18261904Y23426134D01*
X18261904Y23426134D02*
X18214285Y23521372D01*
X18214285Y23521372D02*
X18166666Y23568991D01*
X18166666Y23568991D02*
X18071428Y23616610D01*
X6954819Y14833334D02*
X6478628Y14500001D01*
X6954819Y14261906D02*
X5954819Y14261906D01*
X5954819Y14261906D02*
X5954819Y14642858D01*
X5954819Y14642858D02*
X6002438Y14738096D01*
X6002438Y14738096D02*
X6050057Y14785715D01*
X6050057Y14785715D02*
X6145295Y14833334D01*
X6145295Y14833334D02*
X6288152Y14833334D01*
X6288152Y14833334D02*
X6383390Y14785715D01*
X6383390Y14785715D02*
X6431009Y14738096D01*
X6431009Y14738096D02*
X6478628Y14642858D01*
X6478628Y14642858D02*
X6478628Y14261906D01*
X6050057Y15214287D02*
X6002438Y15261906D01*
X6002438Y15261906D02*
X5954819Y15357144D01*
X5954819Y15357144D02*
X5954819Y15595239D01*
X5954819Y15595239D02*
X6002438Y15690477D01*
X6002438Y15690477D02*
X6050057Y15738096D01*
X6050057Y15738096D02*
X6145295Y15785715D01*
X6145295Y15785715D02*
X6240533Y15785715D01*
X6240533Y15785715D02*
X6383390Y15738096D01*
X6383390Y15738096D02*
X6954819Y15166668D01*
X6954819Y15166668D02*
X6954819Y15785715D01*
X16357142Y-4859580D02*
X16309523Y-4907200D01*
X16309523Y-4907200D02*
X16166666Y-4954819D01*
X16166666Y-4954819D02*
X16071428Y-4954819D01*
X16071428Y-4954819D02*
X15928571Y-4907200D01*
X15928571Y-4907200D02*
X15833333Y-4811961D01*
X15833333Y-4811961D02*
X15785714Y-4716723D01*
X15785714Y-4716723D02*
X15738095Y-4526247D01*
X15738095Y-4526247D02*
X15738095Y-4383390D01*
X15738095Y-4383390D02*
X15785714Y-4192914D01*
X15785714Y-4192914D02*
X15833333Y-4097676D01*
X15833333Y-4097676D02*
X15928571Y-4002438D01*
X15928571Y-4002438D02*
X16071428Y-3954819D01*
X16071428Y-3954819D02*
X16166666Y-3954819D01*
X16166666Y-3954819D02*
X16309523Y-4002438D01*
X16309523Y-4002438D02*
X16357142Y-4050057D01*
X16738095Y-4050057D02*
X16785714Y-4002438D01*
X16785714Y-4002438D02*
X16880952Y-3954819D01*
X16880952Y-3954819D02*
X17119047Y-3954819D01*
X17119047Y-3954819D02*
X17214285Y-4002438D01*
X17214285Y-4002438D02*
X17261904Y-4050057D01*
X17261904Y-4050057D02*
X17309523Y-4145295D01*
X17309523Y-4145295D02*
X17309523Y-4240533D01*
X17309523Y-4240533D02*
X17261904Y-4383390D01*
X17261904Y-4383390D02*
X16690476Y-4954819D01*
X16690476Y-4954819D02*
X17309523Y-4954819D01*
X18214285Y-3954819D02*
X17738095Y-3954819D01*
X17738095Y-3954819D02*
X17690476Y-4431009D01*
X17690476Y-4431009D02*
X17738095Y-4383390D01*
X17738095Y-4383390D02*
X17833333Y-4335771D01*
X17833333Y-4335771D02*
X18071428Y-4335771D01*
X18071428Y-4335771D02*
X18166666Y-4383390D01*
X18166666Y-4383390D02*
X18214285Y-4431009D01*
X18214285Y-4431009D02*
X18261904Y-4526247D01*
X18261904Y-4526247D02*
X18261904Y-4764342D01*
X18261904Y-4764342D02*
X18214285Y-4859580D01*
X18214285Y-4859580D02*
X18166666Y-4907200D01*
X18166666Y-4907200D02*
X18071428Y-4954819D01*
X18071428Y-4954819D02*
X17833333Y-4954819D01*
X17833333Y-4954819D02*
X17738095Y-4907200D01*
X17738095Y-4907200D02*
X17690476Y-4859580D01*
X21833333Y11045181D02*
X21500000Y11521372D01*
X21261905Y11045181D02*
X21261905Y12045181D01*
X21261905Y12045181D02*
X21642857Y12045181D01*
X21642857Y12045181D02*
X21738095Y11997562D01*
X21738095Y11997562D02*
X21785714Y11949943D01*
X21785714Y11949943D02*
X21833333Y11854705D01*
X21833333Y11854705D02*
X21833333Y11711848D01*
X21833333Y11711848D02*
X21785714Y11616610D01*
X21785714Y11616610D02*
X21738095Y11568991D01*
X21738095Y11568991D02*
X21642857Y11521372D01*
X21642857Y11521372D02*
X21261905Y11521372D01*
X22690476Y11711848D02*
X22690476Y11045181D01*
X22452381Y12092800D02*
X22214286Y11378515D01*
X22214286Y11378515D02*
X22833333Y11378515D01*
X16357142Y3140420D02*
X16309523Y3092800D01*
X16309523Y3092800D02*
X16166666Y3045181D01*
X16166666Y3045181D02*
X16071428Y3045181D01*
X16071428Y3045181D02*
X15928571Y3092800D01*
X15928571Y3092800D02*
X15833333Y3188039D01*
X15833333Y3188039D02*
X15785714Y3283277D01*
X15785714Y3283277D02*
X15738095Y3473753D01*
X15738095Y3473753D02*
X15738095Y3616610D01*
X15738095Y3616610D02*
X15785714Y3807086D01*
X15785714Y3807086D02*
X15833333Y3902324D01*
X15833333Y3902324D02*
X15928571Y3997562D01*
X15928571Y3997562D02*
X16071428Y4045181D01*
X16071428Y4045181D02*
X16166666Y4045181D01*
X16166666Y4045181D02*
X16309523Y3997562D01*
X16309523Y3997562D02*
X16357142Y3949943D01*
X16738095Y3949943D02*
X16785714Y3997562D01*
X16785714Y3997562D02*
X16880952Y4045181D01*
X16880952Y4045181D02*
X17119047Y4045181D01*
X17119047Y4045181D02*
X17214285Y3997562D01*
X17214285Y3997562D02*
X17261904Y3949943D01*
X17261904Y3949943D02*
X17309523Y3854705D01*
X17309523Y3854705D02*
X17309523Y3759467D01*
X17309523Y3759467D02*
X17261904Y3616610D01*
X17261904Y3616610D02*
X16690476Y3045181D01*
X16690476Y3045181D02*
X17309523Y3045181D01*
X17642857Y4045181D02*
X18261904Y4045181D01*
X18261904Y4045181D02*
X17928571Y3664229D01*
X17928571Y3664229D02*
X18071428Y3664229D01*
X18071428Y3664229D02*
X18166666Y3616610D01*
X18166666Y3616610D02*
X18214285Y3568991D01*
X18214285Y3568991D02*
X18261904Y3473753D01*
X18261904Y3473753D02*
X18261904Y3235658D01*
X18261904Y3235658D02*
X18214285Y3140420D01*
X18214285Y3140420D02*
X18166666Y3092800D01*
X18166666Y3092800D02*
X18071428Y3045181D01*
X18071428Y3045181D02*
X17785714Y3045181D01*
X17785714Y3045181D02*
X17690476Y3092800D01*
X17690476Y3092800D02*
X17642857Y3140420D01*
X-3140420Y7833334D02*
X-3092800Y7785715D01*
X-3092800Y7785715D02*
X-3045181Y7642858D01*
X-3045181Y7642858D02*
X-3045181Y7547620D01*
X-3045181Y7547620D02*
X-3092800Y7404763D01*
X-3092800Y7404763D02*
X-3188039Y7309525D01*
X-3188039Y7309525D02*
X-3283277Y7261906D01*
X-3283277Y7261906D02*
X-3473753Y7214287D01*
X-3473753Y7214287D02*
X-3616610Y7214287D01*
X-3616610Y7214287D02*
X-3807086Y7261906D01*
X-3807086Y7261906D02*
X-3902324Y7309525D01*
X-3902324Y7309525D02*
X-3997562Y7404763D01*
X-3997562Y7404763D02*
X-4045181Y7547620D01*
X-4045181Y7547620D02*
X-4045181Y7642858D01*
X-4045181Y7642858D02*
X-3997562Y7785715D01*
X-3997562Y7785715D02*
X-3949943Y7833334D01*
X-4045181Y8166668D02*
X-4045181Y8833334D01*
X-4045181Y8833334D02*
X-3045181Y8404763D01*
X7454819Y19833334D02*
X7454819Y19357144D01*
X7454819Y19357144D02*
X6454819Y19357144D01*
X7454819Y20690477D02*
X7454819Y20119049D01*
X7454819Y20404763D02*
X6454819Y20404763D01*
X6454819Y20404763D02*
X6597676Y20309525D01*
X6597676Y20309525D02*
X6692914Y20214287D01*
X6692914Y20214287D02*
X6740533Y20119049D01*
D12*
X28457419Y-12873333D02*
X29171704Y-12873333D01*
X29171704Y-12873333D02*
X29314561Y-12920952D01*
X29314561Y-12920952D02*
X29409800Y-13016190D01*
X29409800Y-13016190D02*
X29457419Y-13159047D01*
X29457419Y-13159047D02*
X29457419Y-13254285D01*
X28790752Y-11968571D02*
X29457419Y-11968571D01*
X28409800Y-12206666D02*
X29124085Y-12444761D01*
X29124085Y-12444761D02*
X29124085Y-11825714D01*
D10*
X-20289161Y-19954819D02*
X-20289161Y-20669104D01*
X-20289161Y-20669104D02*
X-20336780Y-20811961D01*
X-20336780Y-20811961D02*
X-20432018Y-20907200D01*
X-20432018Y-20907200D02*
X-20574875Y-20954819D01*
X-20574875Y-20954819D02*
X-20670113Y-20954819D01*
X-19860589Y-20050057D02*
X-19812970Y-20002438D01*
X-19812970Y-20002438D02*
X-19717732Y-19954819D01*
X-19717732Y-19954819D02*
X-19479637Y-19954819D01*
X-19479637Y-19954819D02*
X-19384399Y-20002438D01*
X-19384399Y-20002438D02*
X-19336780Y-20050057D01*
X-19336780Y-20050057D02*
X-19289161Y-20145295D01*
X-19289161Y-20145295D02*
X-19289161Y-20240533D01*
X-19289161Y-20240533D02*
X-19336780Y-20383390D01*
X-19336780Y-20383390D02*
X-19908208Y-20954819D01*
X-19908208Y-20954819D02*
X-19289161Y-20954819D01*
X454819Y-16166666D02*
X-21372Y-16499999D01*
X454819Y-16738094D02*
X-545181Y-16738094D01*
X-545181Y-16738094D02*
X-545181Y-16357142D01*
X-545181Y-16357142D02*
X-497562Y-16261904D01*
X-497562Y-16261904D02*
X-449943Y-16214285D01*
X-449943Y-16214285D02*
X-354705Y-16166666D01*
X-354705Y-16166666D02*
X-211848Y-16166666D01*
X-211848Y-16166666D02*
X-116610Y-16214285D01*
X-116610Y-16214285D02*
X-68991Y-16261904D01*
X-68991Y-16261904D02*
X-21372Y-16357142D01*
X-21372Y-16357142D02*
X-21372Y-16738094D01*
X454819Y-15214285D02*
X454819Y-15785713D01*
X454819Y-15499999D02*
X-545181Y-15499999D01*
X-545181Y-15499999D02*
X-402324Y-15595237D01*
X-402324Y-15595237D02*
X-307086Y-15690475D01*
X-307086Y-15690475D02*
X-259467Y-15785713D01*
X833333Y10640420D02*
X785714Y10592800D01*
X785714Y10592800D02*
X642857Y10545181D01*
X642857Y10545181D02*
X547619Y10545181D01*
X547619Y10545181D02*
X404762Y10592800D01*
X404762Y10592800D02*
X309524Y10688039D01*
X309524Y10688039D02*
X261905Y10783277D01*
X261905Y10783277D02*
X214286Y10973753D01*
X214286Y10973753D02*
X214286Y11116610D01*
X214286Y11116610D02*
X261905Y11307086D01*
X261905Y11307086D02*
X309524Y11402324D01*
X309524Y11402324D02*
X404762Y11497562D01*
X404762Y11497562D02*
X547619Y11545181D01*
X547619Y11545181D02*
X642857Y11545181D01*
X642857Y11545181D02*
X785714Y11497562D01*
X785714Y11497562D02*
X833333Y11449943D01*
X1404762Y11116610D02*
X1309524Y11164229D01*
X1309524Y11164229D02*
X1261905Y11211848D01*
X1261905Y11211848D02*
X1214286Y11307086D01*
X1214286Y11307086D02*
X1214286Y11354705D01*
X1214286Y11354705D02*
X1261905Y11449943D01*
X1261905Y11449943D02*
X1309524Y11497562D01*
X1309524Y11497562D02*
X1404762Y11545181D01*
X1404762Y11545181D02*
X1595238Y11545181D01*
X1595238Y11545181D02*
X1690476Y11497562D01*
X1690476Y11497562D02*
X1738095Y11449943D01*
X1738095Y11449943D02*
X1785714Y11354705D01*
X1785714Y11354705D02*
X1785714Y11307086D01*
X1785714Y11307086D02*
X1738095Y11211848D01*
X1738095Y11211848D02*
X1690476Y11164229D01*
X1690476Y11164229D02*
X1595238Y11116610D01*
X1595238Y11116610D02*
X1404762Y11116610D01*
X1404762Y11116610D02*
X1309524Y11068991D01*
X1309524Y11068991D02*
X1261905Y11021372D01*
X1261905Y11021372D02*
X1214286Y10926134D01*
X1214286Y10926134D02*
X1214286Y10735658D01*
X1214286Y10735658D02*
X1261905Y10640420D01*
X1261905Y10640420D02*
X1309524Y10592800D01*
X1309524Y10592800D02*
X1404762Y10545181D01*
X1404762Y10545181D02*
X1595238Y10545181D01*
X1595238Y10545181D02*
X1690476Y10592800D01*
X1690476Y10592800D02*
X1738095Y10640420D01*
X1738095Y10640420D02*
X1785714Y10735658D01*
X1785714Y10735658D02*
X1785714Y10926134D01*
X1785714Y10926134D02*
X1738095Y11021372D01*
X1738095Y11021372D02*
X1690476Y11068991D01*
X1690476Y11068991D02*
X1595238Y11116610D01*
X16357142Y-859580D02*
X16309523Y-907200D01*
X16309523Y-907200D02*
X16166666Y-954819D01*
X16166666Y-954819D02*
X16071428Y-954819D01*
X16071428Y-954819D02*
X15928571Y-907200D01*
X15928571Y-907200D02*
X15833333Y-811961D01*
X15833333Y-811961D02*
X15785714Y-716723D01*
X15785714Y-716723D02*
X15738095Y-526247D01*
X15738095Y-526247D02*
X15738095Y-383390D01*
X15738095Y-383390D02*
X15785714Y-192914D01*
X15785714Y-192914D02*
X15833333Y-97676D01*
X15833333Y-97676D02*
X15928571Y-2438D01*
X15928571Y-2438D02*
X16071428Y45181D01*
X16071428Y45181D02*
X16166666Y45181D01*
X16166666Y45181D02*
X16309523Y-2438D01*
X16309523Y-2438D02*
X16357142Y-50057D01*
X16738095Y-50057D02*
X16785714Y-2438D01*
X16785714Y-2438D02*
X16880952Y45181D01*
X16880952Y45181D02*
X17119047Y45181D01*
X17119047Y45181D02*
X17214285Y-2438D01*
X17214285Y-2438D02*
X17261904Y-50057D01*
X17261904Y-50057D02*
X17309523Y-145295D01*
X17309523Y-145295D02*
X17309523Y-240533D01*
X17309523Y-240533D02*
X17261904Y-383390D01*
X17261904Y-383390D02*
X16690476Y-954819D01*
X16690476Y-954819D02*
X17309523Y-954819D01*
X18166666Y-288152D02*
X18166666Y-954819D01*
X17928571Y92800D02*
X17690476Y-621485D01*
X17690476Y-621485D02*
X18309523Y-621485D01*
X-13761905Y17045181D02*
X-13761905Y16235658D01*
X-13761905Y16235658D02*
X-13714286Y16140420D01*
X-13714286Y16140420D02*
X-13666667Y16092800D01*
X-13666667Y16092800D02*
X-13571429Y16045181D01*
X-13571429Y16045181D02*
X-13380953Y16045181D01*
X-13380953Y16045181D02*
X-13285715Y16092800D01*
X-13285715Y16092800D02*
X-13238096Y16140420D01*
X-13238096Y16140420D02*
X-13190477Y16235658D01*
X-13190477Y16235658D02*
X-13190477Y17045181D01*
X-12238096Y17045181D02*
X-12714286Y17045181D01*
X-12714286Y17045181D02*
X-12761905Y16568991D01*
X-12761905Y16568991D02*
X-12714286Y16616610D01*
X-12714286Y16616610D02*
X-12619048Y16664229D01*
X-12619048Y16664229D02*
X-12380953Y16664229D01*
X-12380953Y16664229D02*
X-12285715Y16616610D01*
X-12285715Y16616610D02*
X-12238096Y16568991D01*
X-12238096Y16568991D02*
X-12190477Y16473753D01*
X-12190477Y16473753D02*
X-12190477Y16235658D01*
X-12190477Y16235658D02*
X-12238096Y16140420D01*
X-12238096Y16140420D02*
X-12285715Y16092800D01*
X-12285715Y16092800D02*
X-12380953Y16045181D01*
X-12380953Y16045181D02*
X-12619048Y16045181D01*
X-12619048Y16045181D02*
X-12714286Y16092800D01*
X-12714286Y16092800D02*
X-12761905Y16140420D01*
X-18130800Y29615781D02*
X-18130800Y29377686D01*
X-18368895Y29472924D02*
X-18130800Y29377686D01*
X-18130800Y29377686D02*
X-17892705Y29472924D01*
X-18273657Y29187210D02*
X-18130800Y29377686D01*
X-18130800Y29377686D02*
X-17987943Y29187210D01*
X14859580Y-4642857D02*
X14907200Y-4690476D01*
X14907200Y-4690476D02*
X14954819Y-4833333D01*
X14954819Y-4833333D02*
X14954819Y-4928571D01*
X14954819Y-4928571D02*
X14907200Y-5071428D01*
X14907200Y-5071428D02*
X14811961Y-5166666D01*
X14811961Y-5166666D02*
X14716723Y-5214285D01*
X14716723Y-5214285D02*
X14526247Y-5261904D01*
X14526247Y-5261904D02*
X14383390Y-5261904D01*
X14383390Y-5261904D02*
X14192914Y-5214285D01*
X14192914Y-5214285D02*
X14097676Y-5166666D01*
X14097676Y-5166666D02*
X14002438Y-5071428D01*
X14002438Y-5071428D02*
X13954819Y-4928571D01*
X13954819Y-4928571D02*
X13954819Y-4833333D01*
X13954819Y-4833333D02*
X14002438Y-4690476D01*
X14002438Y-4690476D02*
X14050057Y-4642857D01*
X14954819Y-3690476D02*
X14954819Y-4261904D01*
X14954819Y-3976190D02*
X13954819Y-3976190D01*
X13954819Y-3976190D02*
X14097676Y-4071428D01*
X14097676Y-4071428D02*
X14192914Y-4166666D01*
X14192914Y-4166666D02*
X14240533Y-4261904D01*
X13954819Y-2833333D02*
X13954819Y-3023809D01*
X13954819Y-3023809D02*
X14002438Y-3119047D01*
X14002438Y-3119047D02*
X14050057Y-3166666D01*
X14050057Y-3166666D02*
X14192914Y-3261904D01*
X14192914Y-3261904D02*
X14383390Y-3309523D01*
X14383390Y-3309523D02*
X14764342Y-3309523D01*
X14764342Y-3309523D02*
X14859580Y-3261904D01*
X14859580Y-3261904D02*
X14907200Y-3214285D01*
X14907200Y-3214285D02*
X14954819Y-3119047D01*
X14954819Y-3119047D02*
X14954819Y-2928571D01*
X14954819Y-2928571D02*
X14907200Y-2833333D01*
X14907200Y-2833333D02*
X14859580Y-2785714D01*
X14859580Y-2785714D02*
X14764342Y-2738095D01*
X14764342Y-2738095D02*
X14526247Y-2738095D01*
X14526247Y-2738095D02*
X14431009Y-2785714D01*
X14431009Y-2785714D02*
X14383390Y-2833333D01*
X14383390Y-2833333D02*
X14335771Y-2928571D01*
X14335771Y-2928571D02*
X14335771Y-3119047D01*
X14335771Y-3119047D02*
X14383390Y-3214285D01*
X14383390Y-3214285D02*
X14431009Y-3261904D01*
X14431009Y-3261904D02*
X14526247Y-3309523D01*
X-30820420Y333334D02*
X-30772800Y285715D01*
X-30772800Y285715D02*
X-30725181Y142858D01*
X-30725181Y142858D02*
X-30725181Y47620D01*
X-30725181Y47620D02*
X-30772800Y-95237D01*
X-30772800Y-95237D02*
X-30868039Y-190475D01*
X-30868039Y-190475D02*
X-30963277Y-238094D01*
X-30963277Y-238094D02*
X-31153753Y-285713D01*
X-31153753Y-285713D02*
X-31296610Y-285713D01*
X-31296610Y-285713D02*
X-31487086Y-238094D01*
X-31487086Y-238094D02*
X-31582324Y-190475D01*
X-31582324Y-190475D02*
X-31677562Y-95237D01*
X-31677562Y-95237D02*
X-31725181Y47620D01*
X-31725181Y47620D02*
X-31725181Y142858D01*
X-31725181Y142858D02*
X-31677562Y285715D01*
X-31677562Y285715D02*
X-31629943Y333334D01*
X-31629943Y714287D02*
X-31677562Y761906D01*
X-31677562Y761906D02*
X-31725181Y857144D01*
X-31725181Y857144D02*
X-31725181Y1095239D01*
X-31725181Y1095239D02*
X-31677562Y1190477D01*
X-31677562Y1190477D02*
X-31629943Y1238096D01*
X-31629943Y1238096D02*
X-31534705Y1285715D01*
X-31534705Y1285715D02*
X-31439467Y1285715D01*
X-31439467Y1285715D02*
X-31296610Y1238096D01*
X-31296610Y1238096D02*
X-30725181Y666668D01*
X-30725181Y666668D02*
X-30725181Y1285715D01*
X5954819Y-13761904D02*
X6764342Y-13761904D01*
X6764342Y-13761904D02*
X6859580Y-13714285D01*
X6859580Y-13714285D02*
X6907200Y-13666666D01*
X6907200Y-13666666D02*
X6954819Y-13571428D01*
X6954819Y-13571428D02*
X6954819Y-13380952D01*
X6954819Y-13380952D02*
X6907200Y-13285714D01*
X6907200Y-13285714D02*
X6859580Y-13238095D01*
X6859580Y-13238095D02*
X6764342Y-13190476D01*
X6764342Y-13190476D02*
X5954819Y-13190476D01*
X5954819Y-12285714D02*
X5954819Y-12476190D01*
X5954819Y-12476190D02*
X6002438Y-12571428D01*
X6002438Y-12571428D02*
X6050057Y-12619047D01*
X6050057Y-12619047D02*
X6192914Y-12714285D01*
X6192914Y-12714285D02*
X6383390Y-12761904D01*
X6383390Y-12761904D02*
X6764342Y-12761904D01*
X6764342Y-12761904D02*
X6859580Y-12714285D01*
X6859580Y-12714285D02*
X6907200Y-12666666D01*
X6907200Y-12666666D02*
X6954819Y-12571428D01*
X6954819Y-12571428D02*
X6954819Y-12380952D01*
X6954819Y-12380952D02*
X6907200Y-12285714D01*
X6907200Y-12285714D02*
X6859580Y-12238095D01*
X6859580Y-12238095D02*
X6764342Y-12190476D01*
X6764342Y-12190476D02*
X6526247Y-12190476D01*
X6526247Y-12190476D02*
X6431009Y-12238095D01*
X6431009Y-12238095D02*
X6383390Y-12285714D01*
X6383390Y-12285714D02*
X6335771Y-12380952D01*
X6335771Y-12380952D02*
X6335771Y-12571428D01*
X6335771Y-12571428D02*
X6383390Y-12666666D01*
X6383390Y-12666666D02*
X6431009Y-12714285D01*
X6431009Y-12714285D02*
X6526247Y-12761904D01*
X7196980Y-11279150D02*
X6958885Y-11279150D01*
X7054123Y-11041055D02*
X6958885Y-11279150D01*
X6958885Y-11279150D02*
X7054123Y-11517245D01*
X6768409Y-11136293D02*
X6958885Y-11279150D01*
X6958885Y-11279150D02*
X6768409Y-11422007D01*
X16357142Y-12859580D02*
X16309523Y-12907200D01*
X16309523Y-12907200D02*
X16166666Y-12954819D01*
X16166666Y-12954819D02*
X16071428Y-12954819D01*
X16071428Y-12954819D02*
X15928571Y-12907200D01*
X15928571Y-12907200D02*
X15833333Y-12811961D01*
X15833333Y-12811961D02*
X15785714Y-12716723D01*
X15785714Y-12716723D02*
X15738095Y-12526247D01*
X15738095Y-12526247D02*
X15738095Y-12383390D01*
X15738095Y-12383390D02*
X15785714Y-12192914D01*
X15785714Y-12192914D02*
X15833333Y-12097676D01*
X15833333Y-12097676D02*
X15928571Y-12002438D01*
X15928571Y-12002438D02*
X16071428Y-11954819D01*
X16071428Y-11954819D02*
X16166666Y-11954819D01*
X16166666Y-11954819D02*
X16309523Y-12002438D01*
X16309523Y-12002438D02*
X16357142Y-12050057D01*
X16738095Y-12050057D02*
X16785714Y-12002438D01*
X16785714Y-12002438D02*
X16880952Y-11954819D01*
X16880952Y-11954819D02*
X17119047Y-11954819D01*
X17119047Y-11954819D02*
X17214285Y-12002438D01*
X17214285Y-12002438D02*
X17261904Y-12050057D01*
X17261904Y-12050057D02*
X17309523Y-12145295D01*
X17309523Y-12145295D02*
X17309523Y-12240533D01*
X17309523Y-12240533D02*
X17261904Y-12383390D01*
X17261904Y-12383390D02*
X16690476Y-12954819D01*
X16690476Y-12954819D02*
X17309523Y-12954819D01*
X17642857Y-11954819D02*
X18309523Y-11954819D01*
X18309523Y-11954819D02*
X17880952Y-12954819D01*
X6859580Y25357143D02*
X6907200Y25309524D01*
X6907200Y25309524D02*
X6954819Y25166667D01*
X6954819Y25166667D02*
X6954819Y25071429D01*
X6954819Y25071429D02*
X6907200Y24928572D01*
X6907200Y24928572D02*
X6811961Y24833334D01*
X6811961Y24833334D02*
X6716723Y24785715D01*
X6716723Y24785715D02*
X6526247Y24738096D01*
X6526247Y24738096D02*
X6383390Y24738096D01*
X6383390Y24738096D02*
X6192914Y24785715D01*
X6192914Y24785715D02*
X6097676Y24833334D01*
X6097676Y24833334D02*
X6002438Y24928572D01*
X6002438Y24928572D02*
X5954819Y25071429D01*
X5954819Y25071429D02*
X5954819Y25166667D01*
X5954819Y25166667D02*
X6002438Y25309524D01*
X6002438Y25309524D02*
X6050057Y25357143D01*
X6954819Y26309524D02*
X6954819Y25738096D01*
X6954819Y26023810D02*
X5954819Y26023810D01*
X5954819Y26023810D02*
X6097676Y25928572D01*
X6097676Y25928572D02*
X6192914Y25833334D01*
X6192914Y25833334D02*
X6240533Y25738096D01*
X6954819Y27261905D02*
X6954819Y26690477D01*
X6954819Y26976191D02*
X5954819Y26976191D01*
X5954819Y26976191D02*
X6097676Y26880953D01*
X6097676Y26880953D02*
X6192914Y26785715D01*
X6192914Y26785715D02*
X6240533Y26690477D01*
D12*
X-38714286Y-8457419D02*
X-38714286Y-7457419D01*
X-38714286Y-7457419D02*
X-38333334Y-7457419D01*
X-38333334Y-7457419D02*
X-38238096Y-7505038D01*
X-38238096Y-7505038D02*
X-38190477Y-7552657D01*
X-38190477Y-7552657D02*
X-38142858Y-7647895D01*
X-38142858Y-7647895D02*
X-38142858Y-7790752D01*
X-38142858Y-7790752D02*
X-38190477Y-7885990D01*
X-38190477Y-7885990D02*
X-38238096Y-7933609D01*
X-38238096Y-7933609D02*
X-38333334Y-7981228D01*
X-38333334Y-7981228D02*
X-38714286Y-7981228D01*
X-37761905Y-8409800D02*
X-37619048Y-8457419D01*
X-37619048Y-8457419D02*
X-37380953Y-8457419D01*
X-37380953Y-8457419D02*
X-37285715Y-8409800D01*
X-37285715Y-8409800D02*
X-37238096Y-8362180D01*
X-37238096Y-8362180D02*
X-37190477Y-8266942D01*
X-37190477Y-8266942D02*
X-37190477Y-8171704D01*
X-37190477Y-8171704D02*
X-37238096Y-8076466D01*
X-37238096Y-8076466D02*
X-37285715Y-8028847D01*
X-37285715Y-8028847D02*
X-37380953Y-7981228D01*
X-37380953Y-7981228D02*
X-37571429Y-7933609D01*
X-37571429Y-7933609D02*
X-37666667Y-7885990D01*
X-37666667Y-7885990D02*
X-37714286Y-7838371D01*
X-37714286Y-7838371D02*
X-37761905Y-7743133D01*
X-37761905Y-7743133D02*
X-37761905Y-7647895D01*
X-37761905Y-7647895D02*
X-37714286Y-7552657D01*
X-37714286Y-7552657D02*
X-37666667Y-7505038D01*
X-37666667Y-7505038D02*
X-37571429Y-7457419D01*
X-37571429Y-7457419D02*
X-37333334Y-7457419D01*
X-37333334Y-7457419D02*
X-37190477Y-7505038D01*
X-36238096Y-8457419D02*
X-36809524Y-8457419D01*
X-36523810Y-8457419D02*
X-36523810Y-7457419D01*
X-36523810Y-7457419D02*
X-36619048Y-7600276D01*
X-36619048Y-7600276D02*
X-36714286Y-7695514D01*
X-36714286Y-7695514D02*
X-36809524Y-7743133D01*
D10*
X-545181Y-761904D02*
X264342Y-761904D01*
X264342Y-761904D02*
X359580Y-714285D01*
X359580Y-714285D02*
X407200Y-666666D01*
X407200Y-666666D02*
X454819Y-571428D01*
X454819Y-571428D02*
X454819Y-380952D01*
X454819Y-380952D02*
X407200Y-285714D01*
X407200Y-285714D02*
X359580Y-238095D01*
X359580Y-238095D02*
X264342Y-190476D01*
X264342Y-190476D02*
X-545181Y-190476D01*
X-545181Y190477D02*
X-545181Y857143D01*
X-545181Y857143D02*
X454819Y428572D01*
X-93781Y-3073399D02*
X144314Y-3073399D01*
X49076Y-3311494D02*
X144314Y-3073399D01*
X144314Y-3073399D02*
X49076Y-2835304D01*
X334790Y-3216256D02*
X144314Y-3073399D01*
X144314Y-3073399D02*
X334790Y-2930542D01*
X-27640420Y9333334D02*
X-27592800Y9285715D01*
X-27592800Y9285715D02*
X-27545181Y9142858D01*
X-27545181Y9142858D02*
X-27545181Y9047620D01*
X-27545181Y9047620D02*
X-27592800Y8904763D01*
X-27592800Y8904763D02*
X-27688039Y8809525D01*
X-27688039Y8809525D02*
X-27783277Y8761906D01*
X-27783277Y8761906D02*
X-27973753Y8714287D01*
X-27973753Y8714287D02*
X-28116610Y8714287D01*
X-28116610Y8714287D02*
X-28307086Y8761906D01*
X-28307086Y8761906D02*
X-28402324Y8809525D01*
X-28402324Y8809525D02*
X-28497562Y8904763D01*
X-28497562Y8904763D02*
X-28545181Y9047620D01*
X-28545181Y9047620D02*
X-28545181Y9142858D01*
X-28545181Y9142858D02*
X-28497562Y9285715D01*
X-28497562Y9285715D02*
X-28449943Y9333334D01*
X-27545181Y10285715D02*
X-27545181Y9714287D01*
X-27545181Y10000001D02*
X-28545181Y10000001D01*
X-28545181Y10000001D02*
X-28402324Y9904763D01*
X-28402324Y9904763D02*
X-28307086Y9809525D01*
X-28307086Y9809525D02*
X-28259467Y9714287D01*
X8859580Y7357143D02*
X8907200Y7309524D01*
X8907200Y7309524D02*
X8954819Y7166667D01*
X8954819Y7166667D02*
X8954819Y7071429D01*
X8954819Y7071429D02*
X8907200Y6928572D01*
X8907200Y6928572D02*
X8811961Y6833334D01*
X8811961Y6833334D02*
X8716723Y6785715D01*
X8716723Y6785715D02*
X8526247Y6738096D01*
X8526247Y6738096D02*
X8383390Y6738096D01*
X8383390Y6738096D02*
X8192914Y6785715D01*
X8192914Y6785715D02*
X8097676Y6833334D01*
X8097676Y6833334D02*
X8002438Y6928572D01*
X8002438Y6928572D02*
X7954819Y7071429D01*
X7954819Y7071429D02*
X7954819Y7166667D01*
X7954819Y7166667D02*
X8002438Y7309524D01*
X8002438Y7309524D02*
X8050057Y7357143D01*
X8954819Y8309524D02*
X8954819Y7738096D01*
X8954819Y8023810D02*
X7954819Y8023810D01*
X7954819Y8023810D02*
X8097676Y7928572D01*
X8097676Y7928572D02*
X8192914Y7833334D01*
X8192914Y7833334D02*
X8240533Y7738096D01*
X8050057Y8690477D02*
X8002438Y8738096D01*
X8002438Y8738096D02*
X7954819Y8833334D01*
X7954819Y8833334D02*
X7954819Y9071429D01*
X7954819Y9071429D02*
X8002438Y9166667D01*
X8002438Y9166667D02*
X8050057Y9214286D01*
X8050057Y9214286D02*
X8145295Y9261905D01*
X8145295Y9261905D02*
X8240533Y9261905D01*
X8240533Y9261905D02*
X8383390Y9214286D01*
X8383390Y9214286D02*
X8954819Y8642858D01*
X8954819Y8642858D02*
X8954819Y9261905D01*
X21833333Y-954819D02*
X21500000Y-478628D01*
X21261905Y-954819D02*
X21261905Y45181D01*
X21261905Y45181D02*
X21642857Y45181D01*
X21642857Y45181D02*
X21738095Y-2438D01*
X21738095Y-2438D02*
X21785714Y-50057D01*
X21785714Y-50057D02*
X21833333Y-145295D01*
X21833333Y-145295D02*
X21833333Y-288152D01*
X21833333Y-288152D02*
X21785714Y-383390D01*
X21785714Y-383390D02*
X21738095Y-431009D01*
X21738095Y-431009D02*
X21642857Y-478628D01*
X21642857Y-478628D02*
X21261905Y-478628D01*
X22166667Y45181D02*
X22833333Y45181D01*
X22833333Y45181D02*
X22404762Y-954819D01*
X-28289161Y20045181D02*
X-28289161Y19330896D01*
X-28289161Y19330896D02*
X-28336780Y19188039D01*
X-28336780Y19188039D02*
X-28432018Y19092800D01*
X-28432018Y19092800D02*
X-28574875Y19045181D01*
X-28574875Y19045181D02*
X-28670113Y19045181D01*
X-27289161Y19045181D02*
X-27860589Y19045181D01*
X-27574875Y19045181D02*
X-27574875Y20045181D01*
X-27574875Y20045181D02*
X-27670113Y19902324D01*
X-27670113Y19902324D02*
X-27765351Y19807086D01*
X-27765351Y19807086D02*
X-27860589Y19759467D01*
X14859580Y19357143D02*
X14907200Y19309524D01*
X14907200Y19309524D02*
X14954819Y19166667D01*
X14954819Y19166667D02*
X14954819Y19071429D01*
X14954819Y19071429D02*
X14907200Y18928572D01*
X14907200Y18928572D02*
X14811961Y18833334D01*
X14811961Y18833334D02*
X14716723Y18785715D01*
X14716723Y18785715D02*
X14526247Y18738096D01*
X14526247Y18738096D02*
X14383390Y18738096D01*
X14383390Y18738096D02*
X14192914Y18785715D01*
X14192914Y18785715D02*
X14097676Y18833334D01*
X14097676Y18833334D02*
X14002438Y18928572D01*
X14002438Y18928572D02*
X13954819Y19071429D01*
X13954819Y19071429D02*
X13954819Y19166667D01*
X13954819Y19166667D02*
X14002438Y19309524D01*
X14002438Y19309524D02*
X14050057Y19357143D01*
X14954819Y20309524D02*
X14954819Y19738096D01*
X14954819Y20023810D02*
X13954819Y20023810D01*
X13954819Y20023810D02*
X14097676Y19928572D01*
X14097676Y19928572D02*
X14192914Y19833334D01*
X14192914Y19833334D02*
X14240533Y19738096D01*
X13954819Y20642858D02*
X13954819Y21261905D01*
X13954819Y21261905D02*
X14335771Y20928572D01*
X14335771Y20928572D02*
X14335771Y21071429D01*
X14335771Y21071429D02*
X14383390Y21166667D01*
X14383390Y21166667D02*
X14431009Y21214286D01*
X14431009Y21214286D02*
X14526247Y21261905D01*
X14526247Y21261905D02*
X14764342Y21261905D01*
X14764342Y21261905D02*
X14859580Y21214286D01*
X14859580Y21214286D02*
X14907200Y21166667D01*
X14907200Y21166667D02*
X14954819Y21071429D01*
X14954819Y21071429D02*
X14954819Y20785715D01*
X14954819Y20785715D02*
X14907200Y20690477D01*
X14907200Y20690477D02*
X14859580Y20642858D01*
X16497722Y-8859580D02*
X16450103Y-8907200D01*
X16450103Y-8907200D02*
X16307246Y-8954819D01*
X16307246Y-8954819D02*
X16212008Y-8954819D01*
X16212008Y-8954819D02*
X16069151Y-8907200D01*
X16069151Y-8907200D02*
X15973913Y-8811961D01*
X15973913Y-8811961D02*
X15926294Y-8716723D01*
X15926294Y-8716723D02*
X15878675Y-8526247D01*
X15878675Y-8526247D02*
X15878675Y-8383390D01*
X15878675Y-8383390D02*
X15926294Y-8192914D01*
X15926294Y-8192914D02*
X15973913Y-8097676D01*
X15973913Y-8097676D02*
X16069151Y-8002438D01*
X16069151Y-8002438D02*
X16212008Y-7954819D01*
X16212008Y-7954819D02*
X16307246Y-7954819D01*
X16307246Y-7954819D02*
X16450103Y-8002438D01*
X16450103Y-8002438D02*
X16497722Y-8050057D01*
X16878675Y-8050057D02*
X16926294Y-8002438D01*
X16926294Y-8002438D02*
X17021532Y-7954819D01*
X17021532Y-7954819D02*
X17259627Y-7954819D01*
X17259627Y-7954819D02*
X17354865Y-8002438D01*
X17354865Y-8002438D02*
X17402484Y-8050057D01*
X17402484Y-8050057D02*
X17450103Y-8145295D01*
X17450103Y-8145295D02*
X17450103Y-8240533D01*
X17450103Y-8240533D02*
X17402484Y-8383390D01*
X17402484Y-8383390D02*
X16831056Y-8954819D01*
X16831056Y-8954819D02*
X17450103Y-8954819D01*
X18307246Y-7954819D02*
X18116770Y-7954819D01*
X18116770Y-7954819D02*
X18021532Y-8002438D01*
X18021532Y-8002438D02*
X17973913Y-8050057D01*
X17973913Y-8050057D02*
X17878675Y-8192914D01*
X17878675Y-8192914D02*
X17831056Y-8383390D01*
X17831056Y-8383390D02*
X17831056Y-8764342D01*
X17831056Y-8764342D02*
X17878675Y-8859580D01*
X17878675Y-8859580D02*
X17926294Y-8907200D01*
X17926294Y-8907200D02*
X18021532Y-8954819D01*
X18021532Y-8954819D02*
X18212008Y-8954819D01*
X18212008Y-8954819D02*
X18307246Y-8907200D01*
X18307246Y-8907200D02*
X18354865Y-8859580D01*
X18354865Y-8859580D02*
X18402484Y-8764342D01*
X18402484Y-8764342D02*
X18402484Y-8526247D01*
X18402484Y-8526247D02*
X18354865Y-8431009D01*
X18354865Y-8431009D02*
X18307246Y-8383390D01*
X18307246Y-8383390D02*
X18212008Y-8335771D01*
X18212008Y-8335771D02*
X18021532Y-8335771D01*
X18021532Y-8335771D02*
X17926294Y-8383390D01*
X17926294Y-8383390D02*
X17878675Y-8431009D01*
X17878675Y-8431009D02*
X17831056Y-8526247D01*
X21833333Y15045181D02*
X21500000Y15521372D01*
X21261905Y15045181D02*
X21261905Y16045181D01*
X21261905Y16045181D02*
X21642857Y16045181D01*
X21642857Y16045181D02*
X21738095Y15997562D01*
X21738095Y15997562D02*
X21785714Y15949943D01*
X21785714Y15949943D02*
X21833333Y15854705D01*
X21833333Y15854705D02*
X21833333Y15711848D01*
X21833333Y15711848D02*
X21785714Y15616610D01*
X21785714Y15616610D02*
X21738095Y15568991D01*
X21738095Y15568991D02*
X21642857Y15521372D01*
X21642857Y15521372D02*
X21261905Y15521372D01*
X22166667Y16045181D02*
X22785714Y16045181D01*
X22785714Y16045181D02*
X22452381Y15664229D01*
X22452381Y15664229D02*
X22595238Y15664229D01*
X22595238Y15664229D02*
X22690476Y15616610D01*
X22690476Y15616610D02*
X22738095Y15568991D01*
X22738095Y15568991D02*
X22785714Y15473753D01*
X22785714Y15473753D02*
X22785714Y15235658D01*
X22785714Y15235658D02*
X22738095Y15140420D01*
X22738095Y15140420D02*
X22690476Y15092800D01*
X22690476Y15092800D02*
X22595238Y15045181D01*
X22595238Y15045181D02*
X22309524Y15045181D01*
X22309524Y15045181D02*
X22214286Y15092800D01*
X22214286Y15092800D02*
X22166667Y15140420D01*
X16357142Y6910420D02*
X16309523Y6862800D01*
X16309523Y6862800D02*
X16166666Y6815181D01*
X16166666Y6815181D02*
X16071428Y6815181D01*
X16071428Y6815181D02*
X15928571Y6862800D01*
X15928571Y6862800D02*
X15833333Y6958039D01*
X15833333Y6958039D02*
X15785714Y7053277D01*
X15785714Y7053277D02*
X15738095Y7243753D01*
X15738095Y7243753D02*
X15738095Y7386610D01*
X15738095Y7386610D02*
X15785714Y7577086D01*
X15785714Y7577086D02*
X15833333Y7672324D01*
X15833333Y7672324D02*
X15928571Y7767562D01*
X15928571Y7767562D02*
X16071428Y7815181D01*
X16071428Y7815181D02*
X16166666Y7815181D01*
X16166666Y7815181D02*
X16309523Y7767562D01*
X16309523Y7767562D02*
X16357142Y7719943D01*
X16738095Y7719943D02*
X16785714Y7767562D01*
X16785714Y7767562D02*
X16880952Y7815181D01*
X16880952Y7815181D02*
X17119047Y7815181D01*
X17119047Y7815181D02*
X17214285Y7767562D01*
X17214285Y7767562D02*
X17261904Y7719943D01*
X17261904Y7719943D02*
X17309523Y7624705D01*
X17309523Y7624705D02*
X17309523Y7529467D01*
X17309523Y7529467D02*
X17261904Y7386610D01*
X17261904Y7386610D02*
X16690476Y6815181D01*
X16690476Y6815181D02*
X17309523Y6815181D01*
X17690476Y7719943D02*
X17738095Y7767562D01*
X17738095Y7767562D02*
X17833333Y7815181D01*
X17833333Y7815181D02*
X18071428Y7815181D01*
X18071428Y7815181D02*
X18166666Y7767562D01*
X18166666Y7767562D02*
X18214285Y7719943D01*
X18214285Y7719943D02*
X18261904Y7624705D01*
X18261904Y7624705D02*
X18261904Y7529467D01*
X18261904Y7529467D02*
X18214285Y7386610D01*
X18214285Y7386610D02*
X17642857Y6815181D01*
X17642857Y6815181D02*
X18261904Y6815181D01*
X21833333Y-4954819D02*
X21500000Y-4478628D01*
X21261905Y-4954819D02*
X21261905Y-3954819D01*
X21261905Y-3954819D02*
X21642857Y-3954819D01*
X21642857Y-3954819D02*
X21738095Y-4002438D01*
X21738095Y-4002438D02*
X21785714Y-4050057D01*
X21785714Y-4050057D02*
X21833333Y-4145295D01*
X21833333Y-4145295D02*
X21833333Y-4288152D01*
X21833333Y-4288152D02*
X21785714Y-4383390D01*
X21785714Y-4383390D02*
X21738095Y-4431009D01*
X21738095Y-4431009D02*
X21642857Y-4478628D01*
X21642857Y-4478628D02*
X21261905Y-4478628D01*
X22404762Y-4383390D02*
X22309524Y-4335771D01*
X22309524Y-4335771D02*
X22261905Y-4288152D01*
X22261905Y-4288152D02*
X22214286Y-4192914D01*
X22214286Y-4192914D02*
X22214286Y-4145295D01*
X22214286Y-4145295D02*
X22261905Y-4050057D01*
X22261905Y-4050057D02*
X22309524Y-4002438D01*
X22309524Y-4002438D02*
X22404762Y-3954819D01*
X22404762Y-3954819D02*
X22595238Y-3954819D01*
X22595238Y-3954819D02*
X22690476Y-4002438D01*
X22690476Y-4002438D02*
X22738095Y-4050057D01*
X22738095Y-4050057D02*
X22785714Y-4145295D01*
X22785714Y-4145295D02*
X22785714Y-4192914D01*
X22785714Y-4192914D02*
X22738095Y-4288152D01*
X22738095Y-4288152D02*
X22690476Y-4335771D01*
X22690476Y-4335771D02*
X22595238Y-4383390D01*
X22595238Y-4383390D02*
X22404762Y-4383390D01*
X22404762Y-4383390D02*
X22309524Y-4431009D01*
X22309524Y-4431009D02*
X22261905Y-4478628D01*
X22261905Y-4478628D02*
X22214286Y-4573866D01*
X22214286Y-4573866D02*
X22214286Y-4764342D01*
X22214286Y-4764342D02*
X22261905Y-4859580D01*
X22261905Y-4859580D02*
X22309524Y-4907200D01*
X22309524Y-4907200D02*
X22404762Y-4954819D01*
X22404762Y-4954819D02*
X22595238Y-4954819D01*
X22595238Y-4954819D02*
X22690476Y-4907200D01*
X22690476Y-4907200D02*
X22738095Y-4859580D01*
X22738095Y-4859580D02*
X22785714Y-4764342D01*
X22785714Y-4764342D02*
X22785714Y-4573866D01*
X22785714Y-4573866D02*
X22738095Y-4478628D01*
X22738095Y-4478628D02*
X22690476Y-4431009D01*
X22690476Y-4431009D02*
X22595238Y-4383390D01*
X3357142Y10640420D02*
X3309523Y10592800D01*
X3309523Y10592800D02*
X3166666Y10545181D01*
X3166666Y10545181D02*
X3071428Y10545181D01*
X3071428Y10545181D02*
X2928571Y10592800D01*
X2928571Y10592800D02*
X2833333Y10688039D01*
X2833333Y10688039D02*
X2785714Y10783277D01*
X2785714Y10783277D02*
X2738095Y10973753D01*
X2738095Y10973753D02*
X2738095Y11116610D01*
X2738095Y11116610D02*
X2785714Y11307086D01*
X2785714Y11307086D02*
X2833333Y11402324D01*
X2833333Y11402324D02*
X2928571Y11497562D01*
X2928571Y11497562D02*
X3071428Y11545181D01*
X3071428Y11545181D02*
X3166666Y11545181D01*
X3166666Y11545181D02*
X3309523Y11497562D01*
X3309523Y11497562D02*
X3357142Y11449943D01*
X4309523Y10545181D02*
X3738095Y10545181D01*
X4023809Y10545181D02*
X4023809Y11545181D01*
X4023809Y11545181D02*
X3928571Y11402324D01*
X3928571Y11402324D02*
X3833333Y11307086D01*
X3833333Y11307086D02*
X3738095Y11259467D01*
X4928571Y11545181D02*
X5023809Y11545181D01*
X5023809Y11545181D02*
X5119047Y11497562D01*
X5119047Y11497562D02*
X5166666Y11449943D01*
X5166666Y11449943D02*
X5214285Y11354705D01*
X5214285Y11354705D02*
X5261904Y11164229D01*
X5261904Y11164229D02*
X5261904Y10926134D01*
X5261904Y10926134D02*
X5214285Y10735658D01*
X5214285Y10735658D02*
X5166666Y10640420D01*
X5166666Y10640420D02*
X5119047Y10592800D01*
X5119047Y10592800D02*
X5023809Y10545181D01*
X5023809Y10545181D02*
X4928571Y10545181D01*
X4928571Y10545181D02*
X4833333Y10592800D01*
X4833333Y10592800D02*
X4785714Y10640420D01*
X4785714Y10640420D02*
X4738095Y10735658D01*
X4738095Y10735658D02*
X4690476Y10926134D01*
X4690476Y10926134D02*
X4690476Y11164229D01*
X4690476Y11164229D02*
X4738095Y11354705D01*
X4738095Y11354705D02*
X4785714Y11449943D01*
X4785714Y11449943D02*
X4833333Y11497562D01*
X4833333Y11497562D02*
X4928571Y11545181D01*
X-6070420Y26833334D02*
X-6022800Y26785715D01*
X-6022800Y26785715D02*
X-5975181Y26642858D01*
X-5975181Y26642858D02*
X-5975181Y26547620D01*
X-5975181Y26547620D02*
X-6022800Y26404763D01*
X-6022800Y26404763D02*
X-6118039Y26309525D01*
X-6118039Y26309525D02*
X-6213277Y26261906D01*
X-6213277Y26261906D02*
X-6403753Y26214287D01*
X-6403753Y26214287D02*
X-6546610Y26214287D01*
X-6546610Y26214287D02*
X-6737086Y26261906D01*
X-6737086Y26261906D02*
X-6832324Y26309525D01*
X-6832324Y26309525D02*
X-6927562Y26404763D01*
X-6927562Y26404763D02*
X-6975181Y26547620D01*
X-6975181Y26547620D02*
X-6975181Y26642858D01*
X-6975181Y26642858D02*
X-6927562Y26785715D01*
X-6927562Y26785715D02*
X-6879943Y26833334D01*
X-6975181Y27738096D02*
X-6975181Y27261906D01*
X-6975181Y27261906D02*
X-6498991Y27214287D01*
X-6498991Y27214287D02*
X-6546610Y27261906D01*
X-6546610Y27261906D02*
X-6594229Y27357144D01*
X-6594229Y27357144D02*
X-6594229Y27595239D01*
X-6594229Y27595239D02*
X-6546610Y27690477D01*
X-6546610Y27690477D02*
X-6498991Y27738096D01*
X-6498991Y27738096D02*
X-6403753Y27785715D01*
X-6403753Y27785715D02*
X-6165658Y27785715D01*
X-6165658Y27785715D02*
X-6070420Y27738096D01*
X-6070420Y27738096D02*
X-6022800Y27690477D01*
X-6022800Y27690477D02*
X-5975181Y27595239D01*
X-5975181Y27595239D02*
X-5975181Y27357144D01*
X-5975181Y27357144D02*
X-6022800Y27261906D01*
X-6022800Y27261906D02*
X-6070420Y27214287D01*
X-22140420Y26833334D02*
X-22092800Y26785715D01*
X-22092800Y26785715D02*
X-22045181Y26642858D01*
X-22045181Y26642858D02*
X-22045181Y26547620D01*
X-22045181Y26547620D02*
X-22092800Y26404763D01*
X-22092800Y26404763D02*
X-22188039Y26309525D01*
X-22188039Y26309525D02*
X-22283277Y26261906D01*
X-22283277Y26261906D02*
X-22473753Y26214287D01*
X-22473753Y26214287D02*
X-22616610Y26214287D01*
X-22616610Y26214287D02*
X-22807086Y26261906D01*
X-22807086Y26261906D02*
X-22902324Y26309525D01*
X-22902324Y26309525D02*
X-22997562Y26404763D01*
X-22997562Y26404763D02*
X-23045181Y26547620D01*
X-23045181Y26547620D02*
X-23045181Y26642858D01*
X-23045181Y26642858D02*
X-22997562Y26785715D01*
X-22997562Y26785715D02*
X-22949943Y26833334D01*
X-23045181Y27166668D02*
X-23045181Y27785715D01*
X-23045181Y27785715D02*
X-22664229Y27452382D01*
X-22664229Y27452382D02*
X-22664229Y27595239D01*
X-22664229Y27595239D02*
X-22616610Y27690477D01*
X-22616610Y27690477D02*
X-22568991Y27738096D01*
X-22568991Y27738096D02*
X-22473753Y27785715D01*
X-22473753Y27785715D02*
X-22235658Y27785715D01*
X-22235658Y27785715D02*
X-22140420Y27738096D01*
X-22140420Y27738096D02*
X-22092800Y27690477D01*
X-22092800Y27690477D02*
X-22045181Y27595239D01*
X-22045181Y27595239D02*
X-22045181Y27309525D01*
X-22045181Y27309525D02*
X-22092800Y27214287D01*
X-22092800Y27214287D02*
X-22140420Y27166668D01*
X21833333Y3045181D02*
X21500000Y3521372D01*
X21261905Y3045181D02*
X21261905Y4045181D01*
X21261905Y4045181D02*
X21642857Y4045181D01*
X21642857Y4045181D02*
X21738095Y3997562D01*
X21738095Y3997562D02*
X21785714Y3949943D01*
X21785714Y3949943D02*
X21833333Y3854705D01*
X21833333Y3854705D02*
X21833333Y3711848D01*
X21833333Y3711848D02*
X21785714Y3616610D01*
X21785714Y3616610D02*
X21738095Y3568991D01*
X21738095Y3568991D02*
X21642857Y3521372D01*
X21642857Y3521372D02*
X21261905Y3521372D01*
X22690476Y4045181D02*
X22500000Y4045181D01*
X22500000Y4045181D02*
X22404762Y3997562D01*
X22404762Y3997562D02*
X22357143Y3949943D01*
X22357143Y3949943D02*
X22261905Y3807086D01*
X22261905Y3807086D02*
X22214286Y3616610D01*
X22214286Y3616610D02*
X22214286Y3235658D01*
X22214286Y3235658D02*
X22261905Y3140420D01*
X22261905Y3140420D02*
X22309524Y3092800D01*
X22309524Y3092800D02*
X22404762Y3045181D01*
X22404762Y3045181D02*
X22595238Y3045181D01*
X22595238Y3045181D02*
X22690476Y3092800D01*
X22690476Y3092800D02*
X22738095Y3140420D01*
X22738095Y3140420D02*
X22785714Y3235658D01*
X22785714Y3235658D02*
X22785714Y3473753D01*
X22785714Y3473753D02*
X22738095Y3568991D01*
X22738095Y3568991D02*
X22690476Y3616610D01*
X22690476Y3616610D02*
X22595238Y3664229D01*
X22595238Y3664229D02*
X22404762Y3664229D01*
X22404762Y3664229D02*
X22309524Y3616610D01*
X22309524Y3616610D02*
X22261905Y3568991D01*
X22261905Y3568991D02*
X22214286Y3473753D01*
X21357142Y-12954819D02*
X21023809Y-12478628D01*
X20785714Y-12954819D02*
X20785714Y-11954819D01*
X20785714Y-11954819D02*
X21166666Y-11954819D01*
X21166666Y-11954819D02*
X21261904Y-12002438D01*
X21261904Y-12002438D02*
X21309523Y-12050057D01*
X21309523Y-12050057D02*
X21357142Y-12145295D01*
X21357142Y-12145295D02*
X21357142Y-12288152D01*
X21357142Y-12288152D02*
X21309523Y-12383390D01*
X21309523Y-12383390D02*
X21261904Y-12431009D01*
X21261904Y-12431009D02*
X21166666Y-12478628D01*
X21166666Y-12478628D02*
X20785714Y-12478628D01*
X22309523Y-12954819D02*
X21738095Y-12954819D01*
X22023809Y-12954819D02*
X22023809Y-11954819D01*
X22023809Y-11954819D02*
X21928571Y-12097676D01*
X21928571Y-12097676D02*
X21833333Y-12192914D01*
X21833333Y-12192914D02*
X21738095Y-12240533D01*
X22928571Y-11954819D02*
X23023809Y-11954819D01*
X23023809Y-11954819D02*
X23119047Y-12002438D01*
X23119047Y-12002438D02*
X23166666Y-12050057D01*
X23166666Y-12050057D02*
X23214285Y-12145295D01*
X23214285Y-12145295D02*
X23261904Y-12335771D01*
X23261904Y-12335771D02*
X23261904Y-12573866D01*
X23261904Y-12573866D02*
X23214285Y-12764342D01*
X23214285Y-12764342D02*
X23166666Y-12859580D01*
X23166666Y-12859580D02*
X23119047Y-12907200D01*
X23119047Y-12907200D02*
X23023809Y-12954819D01*
X23023809Y-12954819D02*
X22928571Y-12954819D01*
X22928571Y-12954819D02*
X22833333Y-12907200D01*
X22833333Y-12907200D02*
X22785714Y-12859580D01*
X22785714Y-12859580D02*
X22738095Y-12764342D01*
X22738095Y-12764342D02*
X22690476Y-12573866D01*
X22690476Y-12573866D02*
X22690476Y-12335771D01*
X22690476Y-12335771D02*
X22738095Y-12145295D01*
X22738095Y-12145295D02*
X22785714Y-12050057D01*
X22785714Y-12050057D02*
X22833333Y-12002438D01*
X22833333Y-12002438D02*
X22928571Y-11954819D01*
D13*
%TO.C,R5*%
X21762742Y6522500D02*
X22237258Y6522500D01*
X21762742Y5477500D02*
X22237258Y5477500D01*
%TO.C,R9*%
X21762742Y-9477500D02*
X22237258Y-9477500D01*
X21762742Y-10522500D02*
X22237258Y-10522500D01*
%TO.C,C20*%
X17140580Y14510000D02*
X16859420Y14510000D01*
X17140580Y13490000D02*
X16859420Y13490000D01*
%TO.C,C21*%
X17140580Y10510000D02*
X16859420Y10510000D01*
X17140580Y9490000D02*
X16859420Y9490000D01*
%TO.C,C9*%
X1490000Y14859420D02*
X1490000Y15140580D01*
X2510000Y14859420D02*
X2510000Y15140580D01*
%TO.C,C17*%
X12490000Y-12140580D02*
X12490000Y-11859420D01*
X13510000Y-12140580D02*
X13510000Y-11859420D01*
D12*
%TO.C,J3*%
X30300000Y25690000D02*
X35900000Y25690000D01*
X30300000Y24540000D02*
X30300000Y25690000D01*
X30300000Y14040000D02*
X30300000Y15540000D01*
X30300000Y10540000D02*
X30300000Y12040000D01*
X30300000Y7040000D02*
X30300000Y8540000D01*
X30300000Y3540000D02*
X30300000Y5040000D01*
X30300000Y390000D02*
X30300000Y1540000D01*
X35900000Y390000D02*
X30300000Y390000D01*
D13*
%TO.C,C14*%
X12490000Y11859420D02*
X12490000Y12140580D01*
X13510000Y11859420D02*
X13510000Y12140580D01*
%TO.C,C19*%
X17140580Y18510000D02*
X16859420Y18510000D01*
X17140580Y17490000D02*
X16859420Y17490000D01*
%TO.C,C15*%
X12490000Y3859420D02*
X12490000Y4140580D01*
X13510000Y3859420D02*
X13510000Y4140580D01*
%TO.C,C18*%
X17140580Y22510000D02*
X16859420Y22510000D01*
X17140580Y21490000D02*
X16859420Y21490000D01*
D12*
%TO.C,U3*%
X-16270000Y0D02*
X-16270000Y0D01*
X-13730000Y0D02*
X-13730000Y0D01*
X-16270000Y0D02*
G75*
G02*
X-13730000Y0I1270000J0D01*
G01*
X-13730000Y0D02*
G75*
G02*
X-16270000Y0I-1270000J0D01*
G01*
D13*
%TO.C,R2*%
X4477500Y15237258D02*
X4477500Y14762742D01*
X5522500Y15237258D02*
X5522500Y14762742D01*
%TO.C,C25*%
X17140580Y-5490000D02*
X16859420Y-5490000D01*
X17140580Y-6510000D02*
X16859420Y-6510000D01*
D12*
%TO.C,U2*%
X-19270000Y10000000D02*
X-19270000Y10000000D01*
X-16730000Y10000000D02*
X-16730000Y10000000D01*
X-19270000Y10000000D02*
G75*
G02*
X-16730000Y10000000I1270000J0D01*
G01*
X-16730000Y10000000D02*
G75*
G02*
X-19270000Y10000000I-1270000J0D01*
G01*
D13*
%TO.C,R4*%
X21762742Y10522500D02*
X22237258Y10522500D01*
X21762742Y9477500D02*
X22237258Y9477500D01*
%TO.C,C23*%
X17140580Y2510000D02*
X16859420Y2510000D01*
X17140580Y1490000D02*
X16859420Y1490000D01*
%TO.C,C7*%
X-2510000Y7859420D02*
X-2510000Y8140580D01*
X-1490000Y7859420D02*
X-1490000Y8140580D01*
%TO.C,L1*%
X4090000Y19397936D02*
X4090000Y20602064D01*
X5910000Y19397936D02*
X5910000Y20602064D01*
D12*
%TO.C,J4*%
X30300000Y-390000D02*
X35900000Y-390000D01*
X30300000Y-1540000D02*
X30300000Y-390000D01*
X30300000Y-12040000D02*
X30300000Y-10540000D01*
X30300000Y-15540000D02*
X30300000Y-14040000D01*
X30300000Y-19040000D02*
X30300000Y-17540000D01*
X30300000Y-22540000D02*
X30300000Y-21040000D01*
X30300000Y-25690000D02*
X30300000Y-24540000D01*
X35900000Y-25690000D02*
X30300000Y-25690000D01*
D14*
%TO.C,J2*%
X-24781300Y-19623301D02*
X-19218700Y-19623301D01*
X-19218700Y-376699D02*
X-24781300Y-376699D01*
X-19218700Y-19623301D02*
X-19218700Y-376699D01*
D13*
%TO.C,R1*%
X-522500Y-13237258D02*
X-522500Y-12762742D01*
X522500Y-13237258D02*
X522500Y-12762742D01*
D14*
%TO.C,C8*%
X-28700Y8176490D02*
X-28700Y7823510D01*
D15*
X365000Y4952000D02*
X1635000Y4952000D01*
D14*
X2028700Y7823510D02*
X2028700Y8176490D01*
D13*
%TO.C,C24*%
X17140580Y-1490000D02*
X16859420Y-1490000D01*
X17140580Y-2510000D02*
X16859420Y-2510000D01*
D14*
%TO.C,U5*%
X-16924300Y28321300D02*
X-16924300Y28018069D01*
X-16924300Y17981931D02*
X-16924300Y17678700D01*
X-16924300Y17678700D02*
X-9075700Y17678700D01*
X-9075700Y28321300D02*
X-16924300Y28321300D01*
X-9075700Y28018069D02*
X-9075700Y28321300D01*
X-9075700Y17678700D02*
X-9075700Y17981931D01*
D16*
G36*
X-6688100Y19634500D02*
G01*
X-6942100Y19634500D01*
X-6942100Y20015500D01*
X-6688100Y20015500D01*
X-6688100Y19634500D01*
G37*
D13*
%TO.C,C16*%
X12490000Y-4140580D02*
X12490000Y-3859420D01*
X13510000Y-4140580D02*
X13510000Y-3859420D01*
%TO.C,C2*%
X-30235000Y238748D02*
X-30235000Y761252D01*
X-28765000Y238748D02*
X-28765000Y761252D01*
D14*
%TO.C,U6*%
X2349000Y-11996700D02*
X2349000Y-14003300D01*
X5651000Y-14003300D02*
X5651000Y-11996700D01*
D13*
%TO.C,C27*%
X17140580Y-13490000D02*
X16859420Y-13490000D01*
X17140580Y-14510000D02*
X16859420Y-14510000D01*
%TO.C,C11*%
X4490000Y25859420D02*
X4490000Y26140580D01*
X5510000Y25859420D02*
X5510000Y26140580D01*
D12*
%TO.C,PS1*%
X-39025000Y12750000D02*
X-39025000Y-6900000D01*
X-39025000Y-6900000D02*
X-31975000Y-6900000D01*
X-31975000Y12750000D02*
X-39025000Y12750000D01*
X-31975000Y12750000D02*
X-31975000Y11420000D01*
X-31975000Y7020000D02*
X-31975000Y3820000D01*
X-31975000Y2020000D02*
X-31975000Y-1280000D01*
X-31975000Y-6900000D02*
X-31975000Y-3080000D01*
D14*
%TO.C,U7*%
X1145800Y2374900D02*
X1145800Y-2374900D01*
X1145800Y-2374900D02*
X1439460Y-2374900D01*
X1439460Y2374900D02*
X1145800Y2374900D01*
X10910538Y-2374900D02*
X11204200Y-2374900D01*
X11204200Y2374900D02*
X10910540Y2374900D01*
X11204200Y-2374900D02*
X11204200Y2374900D01*
D16*
G36*
X7340499Y3810000D02*
G01*
X6959499Y3810000D01*
X6959499Y4064000D01*
X7340499Y4064000D01*
X7340499Y3810000D01*
G37*
G36*
X7990498Y-4064000D02*
G01*
X7609498Y-4064000D01*
X7609498Y-3810000D01*
X7990498Y-3810000D01*
X7990498Y-4064000D01*
G37*
D13*
%TO.C,C1*%
X-30235000Y9761252D02*
X-30235000Y9238748D01*
X-28765000Y9761252D02*
X-28765000Y9238748D01*
%TO.C,C12*%
X6490000Y7859420D02*
X6490000Y8140580D01*
X7510000Y7859420D02*
X7510000Y8140580D01*
%TO.C,R7*%
X21762742Y-1477500D02*
X22237258Y-1477500D01*
X21762742Y-2522500D02*
X22237258Y-2522500D01*
D14*
%TO.C,J1*%
X-32781300Y20376699D02*
X-27218700Y20376699D01*
X-27218700Y39623301D02*
X-32781300Y39623301D01*
X-27218700Y20376699D02*
X-27218700Y39623301D01*
D13*
%TO.C,C13*%
X12490000Y19859420D02*
X12490000Y20140580D01*
X13510000Y19859420D02*
X13510000Y20140580D01*
%TO.C,C26*%
X17140580Y-9490000D02*
X16859420Y-9490000D01*
X17140580Y-10510000D02*
X16859420Y-10510000D01*
%TO.C,R3*%
X21762742Y14522500D02*
X22237258Y14522500D01*
X21762742Y13477500D02*
X22237258Y13477500D01*
%TO.C,C22*%
X17140580Y6510000D02*
X16859420Y6510000D01*
X17140580Y5490000D02*
X16859420Y5490000D01*
%TO.C,R8*%
X21762742Y-5477500D02*
X22237258Y-5477500D01*
X21762742Y-6522500D02*
X22237258Y-6522500D01*
D14*
%TO.C,C10*%
X2971300Y8176490D02*
X2971300Y7823510D01*
D15*
X3365000Y4952000D02*
X4635000Y4952000D01*
D14*
X5028700Y7823510D02*
X5028700Y8176490D01*
D13*
%TO.C,C5*%
X-5510000Y26859420D02*
X-5510000Y27140580D01*
X-4490000Y26859420D02*
X-4490000Y27140580D01*
%TO.C,C3*%
X-21510000Y27140580D02*
X-21510000Y26859420D01*
X-20490000Y27140580D02*
X-20490000Y26859420D01*
%TO.C,R6*%
X21762742Y2522500D02*
X22237258Y2522500D01*
X21762742Y1477500D02*
X22237258Y1477500D01*
%TO.C,R10*%
X21762742Y-13477500D02*
X22237258Y-13477500D01*
X21762742Y-14522500D02*
X22237258Y-14522500D01*
%TD*%
M02*
