%TF.GenerationSoftware,KiCad,Pcbnew,9.0.1*%
%TF.CreationDate,2025-04-28T14:14:31+03:00*%
%TF.ProjectId,PM_CPU-RP,504d5f43-5055-42d5-9250-2e6b69636164,rev?*%
%TF.SameCoordinates,Original*%
%TF.FileFunction,Copper,L2,Bot*%
%TF.FilePolarity,Positive*%
%FSLAX46Y46*%
G04 Gerber Fmt 4.6, Leading zero omitted, Abs format (unit mm)*
G04 Created by KiCad (PCBNEW 9.0.1) date 2025-04-28 14:14:31*
%MOMM*%
%LPD*%
G01*
G04 APERTURE LIST*
%TA.AperFunction,ComponentPad*%
%ADD10O,6.350000X6.350000*%
%TD*%
%TA.AperFunction,ComponentPad*%
%ADD11C,2.200000*%
%TD*%
%TA.AperFunction,ComponentPad*%
%ADD12C,1.800000*%
%TD*%
%TA.AperFunction,ComponentPad*%
%ADD13O,1.700000X1.700000*%
%TD*%
%TA.AperFunction,ComponentPad*%
%ADD14R,1.700000X1.700000*%
%TD*%
%TA.AperFunction,ComponentPad*%
%ADD15C,1.950000*%
%TD*%
%TA.AperFunction,ComponentPad*%
%ADD16R,1.350000X1.350000*%
%TD*%
%TA.AperFunction,ComponentPad*%
%ADD17C,1.350000*%
%TD*%
%TA.AperFunction,ComponentPad*%
%ADD18C,1.725000*%
%TD*%
%TA.AperFunction,ComponentPad*%
%ADD19C,2.000000*%
%TD*%
%TA.AperFunction,ComponentPad*%
%ADD20C,2.350000*%
%TD*%
%TA.AperFunction,SMDPad,CuDef*%
%ADD21R,1.803400X0.635000*%
%TD*%
%TA.AperFunction,SMDPad,CuDef*%
%ADD22R,2.997200X2.590800*%
%TD*%
%TA.AperFunction,ViaPad*%
%ADD23C,0.600000*%
%TD*%
%TA.AperFunction,ViaPad*%
%ADD24C,0.800000*%
%TD*%
%TA.AperFunction,ViaPad*%
%ADD25C,1.000000*%
%TD*%
%TA.AperFunction,Conductor*%
%ADD26C,0.300000*%
%TD*%
%TA.AperFunction,Conductor*%
%ADD27C,0.200000*%
%TD*%
%TA.AperFunction,Conductor*%
%ADD28C,1.000000*%
%TD*%
%TA.AperFunction,Conductor*%
%ADD29C,0.600000*%
%TD*%
G04 APERTURE END LIST*
D10*
%TO.P,PE1,1*%
%TO.N,PE*%
X22000000Y-46000000D03*
%TD*%
D11*
%TO.P,J2,1,Pin_1*%
%TO.N,GND_BUS*%
X31750000Y17750000D03*
%TO.P,J2,2,Pin_2*%
%TO.N,/SCL*%
X31750000Y21250000D03*
%TO.P,J2,3,Pin_3*%
%TO.N,/SDA*%
X31750000Y24750000D03*
%TO.P,J2,4,Pin_4*%
%TO.N,+3.3V_CPU*%
X31750000Y28250000D03*
%TO.P,J2,5,Pin_5*%
%TO.N,+5V_CPU*%
X31750000Y31750000D03*
%TD*%
D12*
%TO.P,J1,1,1*%
%TO.N,/Vbat*%
X6750000Y40000000D03*
%TO.P,J1,2,2*%
%TO.N,GND_BUS*%
X-1000000Y40000000D03*
%TD*%
D13*
%TO.P,D1,1,3V3*%
%TO.N,unconnected-(D1-3V3-Pad1)*%
X-11590000Y33170000D03*
D14*
%TO.P,D1,2,5V*%
%TO.N,+5V_CPU*%
X-14130000Y33170000D03*
D13*
%TO.P,D1,3,GPIO2/I2C_SDA*%
%TO.N,/SDA*%
X-11590000Y30630000D03*
%TO.P,D1,4,5V*%
%TO.N,+5V_CPU*%
X-14130000Y30630000D03*
%TO.P,D1,5,GPIO3/I2C_SCL*%
%TO.N,/SCL*%
X-11590000Y28090000D03*
%TO.P,D1,6,GND*%
%TO.N,GND_BUS*%
X-14130000Y28090000D03*
%TO.P,D1,7,GPIO4/GPCLK0*%
%TO.N,/LED_0*%
X-11590000Y25550000D03*
%TO.P,D1,8,GPIO14/UART_TX*%
%TO.N,/UART_TX*%
X-14130000Y25550000D03*
%TO.P,D1,9,GND*%
%TO.N,GND_BUS*%
X-11590000Y23010000D03*
%TO.P,D1,10,GPIO15/UART_RX*%
%TO.N,/UART_RX*%
X-14130000Y23010000D03*
%TO.P,D1,11,GPIO17*%
%TO.N,/LED_1*%
X-11590000Y20470000D03*
%TO.P,D1,12,GPIO18/PCM_CLK*%
%TO.N,/SPI1_CS0*%
X-14130000Y20470000D03*
%TO.P,D1,13,GPIO27*%
%TO.N,/LED_2*%
X-11590000Y17930000D03*
%TO.P,D1,14,GND*%
%TO.N,GND_BUS*%
X-14130000Y17930000D03*
%TO.P,D1,15,GPIO22*%
%TO.N,/SPI0_CS0*%
X-11590000Y15390000D03*
%TO.P,D1,16,GPIO23*%
%TO.N,/SPI0_CS1*%
X-14130000Y15390000D03*
%TO.P,D1,17,3V3*%
%TO.N,unconnected-(D1-3V3-Pad17)*%
X-11590000Y12850000D03*
%TO.P,D1,18,GPIO24*%
%TO.N,/SPI0_CS2*%
X-14130000Y12850000D03*
%TO.P,D1,19,GPIO10/SPI_MOSI*%
%TO.N,/SPI0_MOSI*%
X-11590000Y10310000D03*
%TO.P,D1,20,GND*%
%TO.N,GND_BUS*%
X-14130000Y10310000D03*
%TO.P,D1,21,GPIO9/SPI_MISO*%
%TO.N,/SPI0_MISO*%
X-11590000Y7770000D03*
%TO.P,D1,22,GPIO25*%
%TO.N,/SPI0_CS3*%
X-14130000Y7770000D03*
%TO.P,D1,23,GPIO11/SPI_SCLK*%
%TO.N,/SPI0_SCK*%
X-11590000Y5230000D03*
%TO.P,D1,24,GPIO8/SPI_CE0*%
%TO.N,unconnected-(D1-GPIO8{slash}SPI_CE0-Pad24)*%
X-14130000Y5230000D03*
%TO.P,D1,25,GND*%
%TO.N,GND_BUS*%
X-11590000Y2690000D03*
%TO.P,D1,26,GPIO7/SPI_CE1*%
%TO.N,unconnected-(D1-GPIO7{slash}SPI_CE1-Pad26)*%
X-14130000Y2690000D03*
%TO.P,D1,27,GPIO0/EEPROM_SDA*%
%TO.N,unconnected-(D1-GPIO0{slash}EEPROM_SDA-Pad27)*%
X-11590000Y150000D03*
%TO.P,D1,28,GPIO0/EEPROM_SCL*%
%TO.N,unconnected-(D1-GPIO0{slash}EEPROM_SCL-Pad28)*%
X-14130000Y150000D03*
%TO.P,D1,29,GPIO5*%
%TO.N,unconnected-(D1-GPIO5-Pad29)*%
X-11590000Y-2390000D03*
%TO.P,D1,30,GND*%
%TO.N,GND_BUS*%
X-14130000Y-2390000D03*
%TO.P,D1,31,GPIO6*%
%TO.N,unconnected-(D1-GPIO6-Pad31)*%
X-11590000Y-4930000D03*
%TO.P,D1,32,GPIO12/PWM0*%
%TO.N,unconnected-(D1-GPIO12{slash}PWM0-Pad32)*%
X-14130000Y-4930000D03*
%TO.P,D1,33,GPIO13/PWM1*%
%TO.N,unconnected-(D1-GPIO13{slash}PWM1-Pad33)*%
X-11590000Y-7470000D03*
%TO.P,D1,34,GND*%
%TO.N,GND_BUS*%
X-14130000Y-7470000D03*
%TO.P,D1,35,GPIO19/PCM_FS*%
%TO.N,/SPI1_MISO*%
X-11590000Y-10010000D03*
%TO.P,D1,36,GPIO16*%
%TO.N,/UART_RTS*%
X-14130000Y-10010000D03*
%TO.P,D1,37,GPIO26*%
%TO.N,unconnected-(D1-GPIO26-Pad37)*%
X-11590000Y-12550000D03*
%TO.P,D1,38,GPIO20/PCM_DIN*%
%TO.N,/SPI1_MOSI*%
X-14130000Y-12550000D03*
%TO.P,D1,39,GND*%
%TO.N,GND_BUS*%
X-11590000Y-15090000D03*
%TO.P,D1,40,GPIO20/PCM_DOUT*%
%TO.N,/SPI1_SCK*%
X-14130000Y-15090000D03*
%TD*%
D15*
%TO.P,J5,1,VIN*%
%TO.N,+24V_fuse*%
X-25000000Y-14540000D03*
%TO.P,J5,2,GND*%
%TO.N,GND_BUS*%
X-25000000Y-12000000D03*
%TO.P,J5,3,+VO*%
%TO.N,+3.3V_CPU*%
X-25000000Y-9460000D03*
%TD*%
D16*
%TO.P,J11,1,Pin_1*%
%TO.N,/UART_RX*%
X-6000000Y-28000000D03*
D17*
%TO.P,J11,2,Pin_2*%
%TO.N,/UART_RTS*%
X-8000000Y-28000000D03*
%TO.P,J11,3,Pin_3*%
%TO.N,/UART_TX*%
X-10000000Y-28000000D03*
%TD*%
D15*
%TO.P,J4,1,VIN*%
%TO.N,+24V_fuse*%
X-36235000Y-14540000D03*
%TO.P,J4,2,GND*%
%TO.N,GND_BUS*%
X-36235000Y-12000000D03*
%TO.P,J4,3,+VO*%
%TO.N,+5V_CPU*%
X-36235000Y-9460000D03*
%TD*%
D18*
%TO.P,U2,1*%
%TO.N,GND_BUS*%
X-37000000Y20000000D03*
%TD*%
D19*
%TO.P,J3,1,Pin_1*%
%TO.N,+24V_BUS*%
X-29000000Y-37000000D03*
%TO.P,J3,2,Pin_3*%
%TO.N,GND_BUS*%
X-25500000Y-37000000D03*
%TO.P,J3,3,3*%
%TO.N,/A*%
X-22000000Y-37000000D03*
%TO.P,J3,4,4*%
%TO.N,/B*%
X-18500000Y-37000000D03*
%TO.P,J3,5,Pin_9*%
%TO.N,PE*%
X-15000000Y-37000000D03*
%TO.P,J3,6,Pin_2*%
%TO.N,+24V_BUS*%
X-29000000Y-39500000D03*
%TO.P,J3,7,Pin_4*%
%TO.N,GND_BUS*%
X-25500000Y-39500000D03*
%TO.P,J3,8,Pin_6*%
%TO.N,/A*%
X-22000000Y-39500000D03*
%TO.P,J3,9,Pin_8*%
%TO.N,/B*%
X-18500000Y-39500000D03*
%TO.P,J3,10,Pin_10*%
%TO.N,PE*%
X-15000000Y-39500000D03*
%TD*%
D20*
%TO.P,U1,1,1*%
%TO.N,+24V_BUS*%
X-20500000Y-30000000D03*
%TO.P,U1,2,2*%
%TO.N,+24V_fuse*%
X-35500000Y-30000000D03*
%TD*%
D21*
%TO.P,J9,1,Pin_1*%
%TO.N,GND_BUS*%
X-33556000Y35499992D03*
%TO.P,J9,2,Pin_2*%
%TO.N,+5V_CPU*%
X-33556000Y34499994D03*
%TO.P,J9,3,Pin_3*%
%TO.N,+3.3V_CPU*%
X-33556000Y33499996D03*
%TO.P,J9,4,Pin_4*%
%TO.N,/SPI0_MOSI*%
X-33556000Y32499998D03*
%TO.P,J9,5,Pin_5*%
%TO.N,/SPI0_MISO*%
X-33556000Y31500000D03*
%TO.P,J9,6,Pin_6*%
%TO.N,/SPI0_SCK*%
X-33556000Y30500000D03*
%TO.P,J9,7,Pin_7*%
%TO.N,/SPI0_CS0*%
X-33556000Y29500000D03*
%TO.P,J9,8,Pin_8*%
%TO.N,/SPI0_CS1*%
X-33556000Y28500000D03*
%TO.P,J9,9,Pin_9*%
%TO.N,/SPI0_CS2*%
X-33556000Y27500002D03*
%TO.P,J9,10,Pin_10*%
%TO.N,/SPI0_CS3*%
X-33556000Y26500004D03*
%TO.P,J9,11,Pin_11*%
%TO.N,unconnected-(J9-Pin_11-Pad11)*%
X-33556000Y25500006D03*
%TO.P,J9,12,Pin_11*%
%TO.N,GND_BUS*%
X-33556000Y24500008D03*
D22*
%TO.P,J9,13,Pin_11*%
X-31385999Y37850003D03*
X-31385999Y22149997D03*
%TD*%
D21*
%TO.P,J8,1,Pin_1*%
%TO.N,GND_BUS*%
X-33556000Y15499992D03*
%TO.P,J8,2,Pin_2*%
%TO.N,+5V_CPU*%
X-33556000Y14499994D03*
%TO.P,J8,3,Pin_3*%
%TO.N,+3.3V_CPU*%
X-33556000Y13499996D03*
%TO.P,J8,4,Pin_4*%
%TO.N,unconnected-(J8-Pin_4-Pad4)*%
X-33556000Y12499998D03*
%TO.P,J8,5,Pin_5*%
%TO.N,unconnected-(J8-Pin_5-Pad5)*%
X-33556000Y11500000D03*
%TO.P,J8,6,Pin_6*%
%TO.N,unconnected-(J8-Pin_6-Pad6)*%
X-33556000Y10500000D03*
%TO.P,J8,7,Pin_7*%
%TO.N,unconnected-(J8-Pin_7-Pad7)*%
X-33556000Y9500000D03*
%TO.P,J8,8,Pin_8*%
%TO.N,unconnected-(J8-Pin_8-Pad8)*%
X-33556000Y8500000D03*
%TO.P,J8,9,Pin_9*%
%TO.N,/SDA*%
X-33556000Y7500002D03*
%TO.P,J8,10,Pin_10*%
%TO.N,/SCL*%
X-33556000Y6500004D03*
%TO.P,J8,11,Pin_11*%
%TO.N,unconnected-(J8-Pin_11-Pad11)*%
X-33556000Y5500006D03*
%TO.P,J8,12,Pin_11*%
%TO.N,GND_BUS*%
X-33556000Y4500008D03*
D22*
%TO.P,J8,13,Pin_11*%
X-31385999Y17850003D03*
X-31385999Y2149997D03*
%TD*%
D23*
%TO.N,/LED_1*%
X-18500000Y30500000D03*
%TO.N,/LED_2*%
X-18500000Y29500000D03*
%TO.N,/LED_0*%
X-18500000Y31500000D03*
%TO.N,/SCL*%
X-22000000Y21000000D03*
%TO.N,/SDA*%
X-23000000Y21250000D03*
%TO.N,/UART_RTS*%
X-12600000Y-26400000D03*
%TO.N,/SPI1_CS0*%
X-750000Y-9500000D03*
%TO.N,/SPI0_CS0*%
X-18050000Y16500000D03*
%TO.N,/SPI1_MISO*%
X634700Y-14217100D03*
D24*
%TO.N,+3.3V_CPU*%
X-28500000Y-2000000D03*
D23*
X-35500000Y32500000D03*
D24*
X-1500000Y-25500000D03*
D23*
%TO.N,GND_BUS*%
X-29000000Y3000000D03*
X-34000000Y17000000D03*
X-34000000Y1000000D03*
X-6500000Y-24500000D03*
X-12000000Y-46500000D03*
X-29000000Y17000000D03*
X-2500000Y-20000000D03*
X-3000000Y-20500000D03*
X-33000000Y40000000D03*
X-7000000Y-25000000D03*
X-7500000Y-25500000D03*
X-30000000Y0D03*
X-34000000Y23000000D03*
X-3000000Y-19500000D03*
X1000000Y-8500000D03*
X-34000000Y3000000D03*
X-29000000Y21000000D03*
X-29000000Y1000000D03*
X-34000000Y19000000D03*
X-29000000Y23000000D03*
X-34000000Y37000000D03*
X-2000000Y-19500000D03*
X-6500000Y-25500000D03*
X-30000000Y20000000D03*
X-12000000Y-42500000D03*
X-29000000Y19000000D03*
X-2000000Y-20500000D03*
X-33000000Y20000000D03*
X-34000000Y21000000D03*
X-33000000Y0D03*
X2000000Y-9500000D03*
X-20433150Y17500000D03*
X1000000Y-9500000D03*
X-7500000Y-24500000D03*
X-34000000Y39000000D03*
%TO.N,/SPI0_CS2*%
X-18050000Y14500000D03*
%TO.N,/SPI0_CS1*%
X-18050000Y15500000D03*
%TO.N,/SPI0_CS3*%
X-18050000Y13500000D03*
D25*
%TO.N,+5V_CPU*%
X-36000000Y14500000D03*
X-39000000Y35500000D03*
X-39000000Y34500000D03*
D23*
X-36000000Y34500000D03*
%TD*%
D26*
%TO.N,/LED_1*%
X-16799000Y26591240D02*
X-14457760Y24250000D01*
X-12741000Y21621000D02*
X-11590000Y20470000D01*
X-13742240Y24250000D02*
X-12741000Y23248760D01*
X-18500000Y30500000D02*
X-16799000Y28799000D01*
X-12741000Y23248760D02*
X-12741000Y21621000D01*
X-16799000Y28799000D02*
X-16799000Y26591240D01*
X-14457760Y24250000D02*
X-13742240Y24250000D01*
%TO.N,/LED_2*%
X-17250000Y26250000D02*
X-15500000Y24500000D01*
X-18500000Y29500000D02*
X-17250000Y28250000D01*
X-12430000Y17930000D02*
X-11590000Y17930000D01*
X-13819000Y19319000D02*
X-12430000Y17930000D01*
X-15500000Y20212240D02*
X-14606760Y19319000D01*
X-15500000Y24500000D02*
X-15500000Y20212240D01*
X-17250000Y28250000D02*
X-17250000Y26250000D01*
X-14606760Y19319000D02*
X-13819000Y19319000D01*
%TO.N,/LED_0*%
X-16348000Y27848000D02*
X-16348000Y29348000D01*
X-12502240Y25550000D02*
X-13891240Y26939000D01*
X-13891240Y26939000D02*
X-15439000Y26939000D01*
X-11590000Y25550000D02*
X-12502240Y25550000D01*
X-15439000Y26939000D02*
X-16348000Y27848000D01*
X-16348000Y29348000D02*
X-18500000Y31500000D01*
D27*
%TO.N,/SCL*%
X24910000Y28090000D02*
X31750000Y21250000D01*
X-22000000Y21000000D02*
X-22000000Y15750000D01*
X-31249996Y6500004D02*
X-33556000Y6500004D01*
X-22000000Y15750000D02*
X-31249996Y6500004D01*
X-11590000Y28090000D02*
X24910000Y28090000D01*
%TO.N,/SDA*%
X-23000000Y21250000D02*
X-23000000Y15244974D01*
X-8920400Y29112100D02*
X27388000Y29112100D01*
X-23000000Y15244974D02*
X-30744972Y7500002D01*
X-30744972Y7500002D02*
X-33556000Y7500002D01*
X28250040Y28250040D02*
X31750000Y24750000D01*
X-10438300Y30630000D02*
X-8920400Y29112100D01*
X27388000Y29112100D02*
X28250040Y28250040D01*
X-11590000Y30630000D02*
X-10438300Y30630000D01*
%TO.N,/UART_RTS*%
X-12600000Y-26400000D02*
X-9600000Y-26400000D01*
X-9600000Y-26400000D02*
X-8000000Y-28000000D01*
%TO.N,/SPI0_MOSI*%
X-30975998Y32499998D02*
X-33556000Y32499998D01*
X-16500000Y22500000D02*
X-26499995Y32499995D01*
X-30976000Y32500000D02*
X-30975995Y32499995D01*
X-30975995Y32499995D02*
X-30975998Y32499998D01*
X-14918525Y11500000D02*
X-16500000Y13081475D01*
X-16500000Y13081475D02*
X-16500000Y22500000D01*
X-12780000Y11500000D02*
X-14918525Y11500000D01*
X-11590000Y10310000D02*
X-12780000Y11500000D01*
X-26499995Y32499995D02*
X-30975995Y32499995D01*
%TO.N,/SPI1_CS0*%
X-14130000Y20470000D02*
X-13029000Y19369000D01*
X-750000Y8647050D02*
X-750000Y-9500000D01*
X-11471950Y19369000D02*
X-750000Y8647050D01*
X-13029000Y19369000D02*
X-11471950Y19369000D01*
X-14130000Y20470000D02*
X-14130000Y21220000D01*
%TO.N,/SPI0_CS0*%
X-18000000Y16550000D02*
X-18000000Y22500000D01*
X-18000000Y22500000D02*
X-25000001Y29500001D01*
X-25000001Y29500001D02*
X-33556000Y29500000D01*
X-18050000Y16500000D02*
X-18000000Y16550000D01*
X-33556001Y29500000D02*
X-33556000Y29500001D01*
%TO.N,/SPI0_SCK*%
X-17500000Y22507224D02*
X-17500000Y9000000D01*
X-25492776Y30500000D02*
X-17500000Y22507224D01*
X-33556000Y30500000D02*
X-25492776Y30500000D01*
X-33556001Y30500000D02*
X-33556000Y30499999D01*
X-15000000Y6500000D02*
X-12860000Y6500000D01*
X-12860000Y6500000D02*
X-11590000Y5230000D01*
X-17500000Y9000000D02*
X-15000000Y6500000D01*
%TO.N,/SPI1_MISO*%
X-11590000Y-10010000D02*
X-7382900Y-14217100D01*
X-7382900Y-14217100D02*
X634700Y-14217100D01*
%TO.N,/SPI0_MISO*%
X-33556003Y31500000D02*
X-33556000Y31499997D01*
X-14871000Y8871000D02*
X-17000000Y11000000D01*
X-12691000Y8871000D02*
X-14871000Y8871000D01*
X-17000000Y22503612D02*
X-25996388Y31500000D01*
X-17000000Y11000000D02*
X-17000000Y22503612D01*
X-25996388Y31500000D02*
X-33556000Y31500000D01*
X-11590000Y7770000D02*
X-12691000Y8871000D01*
D28*
%TO.N,+3.3V_CPU*%
X-38999000Y999000D02*
X-38999000Y13500000D01*
D29*
X-36000000Y33499996D02*
X-38498004Y33499996D01*
D28*
X-28500000Y-2000000D02*
X-36000000Y-2000000D01*
D29*
X-5500000Y-32000000D02*
X-1500000Y-28000000D01*
D26*
X-35500000Y32999996D02*
X-36000000Y33499996D01*
D29*
X-33556000Y33499996D02*
X-36000000Y33499996D01*
X-22500000Y-32000000D02*
X-5500000Y-32000000D01*
X-38498004Y33499996D02*
X-38999000Y32999000D01*
D28*
X-36000000Y-2000000D02*
X-38999000Y999000D01*
D29*
X-33556000Y13499996D02*
X-38998996Y13499996D01*
D28*
X-38999000Y32999000D02*
X-38999000Y13500000D01*
D29*
X-28500000Y-26000000D02*
X-22500000Y-32000000D01*
X-38998996Y13499996D02*
X-38999000Y13500000D01*
X-28500000Y-2000000D02*
X-28500000Y-26000000D01*
X-1500000Y-28000000D02*
X-1500000Y-25500000D01*
D26*
X-35500000Y32500000D02*
X-35500000Y32999996D01*
D27*
%TO.N,GND_BUS*%
X-14130000Y28090000D02*
X-13635025Y28090000D01*
X-12000000Y-42500000D02*
X-12000000Y-46500000D01*
%TO.N,/SPI0_CS2*%
X-19000000Y15450000D02*
X-19000000Y22507224D01*
X-19000000Y22507224D02*
X-23992778Y27500002D01*
X-23992778Y27500002D02*
X-33556000Y27500002D01*
X-18050000Y14500000D02*
X-19000000Y15450000D01*
%TO.N,/SPI0_CS1*%
X-24496388Y28500000D02*
X-33556000Y28500000D01*
X-18601000Y16728232D02*
X-18500000Y16829232D01*
X-18050000Y15500000D02*
X-18601000Y16051000D01*
X-18500000Y22503612D02*
X-24496388Y28500000D01*
X-18500000Y16829232D02*
X-18500000Y22503612D01*
X-18601000Y16051000D02*
X-18601000Y16728232D01*
%TO.N,/SPI0_CS3*%
X-33556007Y26500000D02*
X-33556000Y26500007D01*
X-18050000Y13550000D02*
X-19500000Y15000000D01*
X-23489168Y26500004D02*
X-33556000Y26500004D01*
X-19500000Y15000000D02*
X-19500000Y22510836D01*
X-18050000Y13500000D02*
X-18050000Y13550000D01*
X-19500000Y22510836D02*
X-23489168Y26500004D01*
%TO.N,unconnected-(J9-Pin_11-Pad11)*%
X-33556000Y25500006D02*
X-33556006Y25500000D01*
D28*
%TO.N,+5V_CPU*%
X-39000000Y35500000D02*
X-39000000Y34500000D01*
D29*
X-33556009Y34500000D02*
X-33556000Y34499991D01*
D26*
X-12960000Y32000000D02*
X-8581500Y32000000D01*
D29*
X-33556006Y34500000D02*
X-33556000Y34499994D01*
X-33556006Y14500000D02*
X-33556000Y14499994D01*
D26*
X-8581500Y32000000D02*
X-8331500Y31750000D01*
D29*
X-36000000Y34500000D02*
X-33556006Y34500000D01*
X-35000000Y14499994D02*
X-33556000Y14499994D01*
X-36000006Y14499994D02*
X-35000000Y14499994D01*
D26*
X-8331500Y31750000D02*
X31750000Y31750000D01*
X-14130000Y33170000D02*
X-12960000Y32000000D01*
D28*
X-14130000Y33170000D02*
X-14130000Y30630000D01*
D29*
X-39000000Y34500000D02*
X-36000000Y34500000D01*
%TD*%
%TA.AperFunction,Conductor*%
%TO.N,PE*%
G36*
X-29802824Y-35519685D02*
G01*
X-29757069Y-35572489D01*
X-29747125Y-35641647D01*
X-29776150Y-35705203D01*
X-29796976Y-35724316D01*
X-29977510Y-35855483D01*
X-29977512Y-35855485D01*
X-29977513Y-35855485D01*
X-30144515Y-36022487D01*
X-30144515Y-36022488D01*
X-30144517Y-36022490D01*
X-30204138Y-36104550D01*
X-30283343Y-36213566D01*
X-30390567Y-36424003D01*
X-30463554Y-36648631D01*
X-30500500Y-36881902D01*
X-30500500Y-37118097D01*
X-30463554Y-37351368D01*
X-30390567Y-37575996D01*
X-30283343Y-37786433D01*
X-30144517Y-37977510D01*
X-30144515Y-37977512D01*
X-29977510Y-38144517D01*
X-29970397Y-38149685D01*
X-29927734Y-38205017D01*
X-29921758Y-38274630D01*
X-29954366Y-38336424D01*
X-29970397Y-38350315D01*
X-29977510Y-38355482D01*
X-30144515Y-38522487D01*
X-30144515Y-38522488D01*
X-30144517Y-38522490D01*
X-30204138Y-38604550D01*
X-30283343Y-38713566D01*
X-30390567Y-38924003D01*
X-30463554Y-39148631D01*
X-30500500Y-39381902D01*
X-30500500Y-39618097D01*
X-30463554Y-39851368D01*
X-30390567Y-40075996D01*
X-30283343Y-40286433D01*
X-30144517Y-40477510D01*
X-29977510Y-40644517D01*
X-29786433Y-40783343D01*
X-29687009Y-40834002D01*
X-29575997Y-40890566D01*
X-29575995Y-40890566D01*
X-29575992Y-40890568D01*
X-29455588Y-40929689D01*
X-29351369Y-40963553D01*
X-29118097Y-41000500D01*
X-29118092Y-41000500D01*
X-28881903Y-41000500D01*
X-28648632Y-40963553D01*
X-28424008Y-40890568D01*
X-28213567Y-40783343D01*
X-28022490Y-40644517D01*
X-27855483Y-40477510D01*
X-27716657Y-40286433D01*
X-27609432Y-40075992D01*
X-27536447Y-39851368D01*
X-27499500Y-39618097D01*
X-27499500Y-39381902D01*
X-27536447Y-39148631D01*
X-27609434Y-38924003D01*
X-27716658Y-38713566D01*
X-27855483Y-38522490D01*
X-28022490Y-38355483D01*
X-28029599Y-38350318D01*
X-28072265Y-38294988D01*
X-28078244Y-38225375D01*
X-28045638Y-38163580D01*
X-28029599Y-38149682D01*
X-28029500Y-38149609D01*
X-28022490Y-38144517D01*
X-27855483Y-37977510D01*
X-27716657Y-37786433D01*
X-27609432Y-37575992D01*
X-27536447Y-37351368D01*
X-27499500Y-37118097D01*
X-27499500Y-36881902D01*
X-27536447Y-36648631D01*
X-27609434Y-36424003D01*
X-27716658Y-36213566D01*
X-27855483Y-36022490D01*
X-28022490Y-35855483D01*
X-28203024Y-35724317D01*
X-28245688Y-35668988D01*
X-28251667Y-35599374D01*
X-28219061Y-35537579D01*
X-28158222Y-35503222D01*
X-28130137Y-35500000D01*
X-26369863Y-35500000D01*
X-26302824Y-35519685D01*
X-26257069Y-35572489D01*
X-26247125Y-35641647D01*
X-26276150Y-35705203D01*
X-26296976Y-35724316D01*
X-26477510Y-35855483D01*
X-26477512Y-35855485D01*
X-26477513Y-35855485D01*
X-26644515Y-36022487D01*
X-26644515Y-36022488D01*
X-26644517Y-36022490D01*
X-26704138Y-36104550D01*
X-26783343Y-36213566D01*
X-26890567Y-36424003D01*
X-26963554Y-36648631D01*
X-27000500Y-36881902D01*
X-27000500Y-37118097D01*
X-26963554Y-37351368D01*
X-26890567Y-37575996D01*
X-26783343Y-37786433D01*
X-26644517Y-37977510D01*
X-26644515Y-37977512D01*
X-26477510Y-38144517D01*
X-26470397Y-38149685D01*
X-26427734Y-38205017D01*
X-26421758Y-38274630D01*
X-26454366Y-38336424D01*
X-26470397Y-38350315D01*
X-26477510Y-38355482D01*
X-26644515Y-38522487D01*
X-26644515Y-38522488D01*
X-26644517Y-38522490D01*
X-26704138Y-38604550D01*
X-26783343Y-38713566D01*
X-26890567Y-38924003D01*
X-26963554Y-39148631D01*
X-27000500Y-39381902D01*
X-27000500Y-39618097D01*
X-26963554Y-39851368D01*
X-26890567Y-40075996D01*
X-26783343Y-40286433D01*
X-26644517Y-40477510D01*
X-26477510Y-40644517D01*
X-26286433Y-40783343D01*
X-26187009Y-40834002D01*
X-26075997Y-40890566D01*
X-26075995Y-40890566D01*
X-26075992Y-40890568D01*
X-25955588Y-40929689D01*
X-25851369Y-40963553D01*
X-25618097Y-41000500D01*
X-25618092Y-41000500D01*
X-25381903Y-41000500D01*
X-25148632Y-40963553D01*
X-24924008Y-40890568D01*
X-24713567Y-40783343D01*
X-24522490Y-40644517D01*
X-24355483Y-40477510D01*
X-24216657Y-40286433D01*
X-24109432Y-40075992D01*
X-24036447Y-39851368D01*
X-23999500Y-39618097D01*
X-23999500Y-39381902D01*
X-24036447Y-39148631D01*
X-24109434Y-38924003D01*
X-24216658Y-38713566D01*
X-24355483Y-38522490D01*
X-24522490Y-38355483D01*
X-24529599Y-38350318D01*
X-24572265Y-38294988D01*
X-24578244Y-38225375D01*
X-24545638Y-38163580D01*
X-24529599Y-38149682D01*
X-24529500Y-38149609D01*
X-24522490Y-38144517D01*
X-24355483Y-37977510D01*
X-24216657Y-37786433D01*
X-24109432Y-37575992D01*
X-24036447Y-37351368D01*
X-23999500Y-37118097D01*
X-23999500Y-36881902D01*
X-24036447Y-36648631D01*
X-24109434Y-36424003D01*
X-24216658Y-36213566D01*
X-24355483Y-36022490D01*
X-24522490Y-35855483D01*
X-24703024Y-35724317D01*
X-24745688Y-35668988D01*
X-24751667Y-35599374D01*
X-24719061Y-35537579D01*
X-24658222Y-35503222D01*
X-24630137Y-35500000D01*
X-22869863Y-35500000D01*
X-22802824Y-35519685D01*
X-22757069Y-35572489D01*
X-22747125Y-35641647D01*
X-22776150Y-35705203D01*
X-22796976Y-35724316D01*
X-22977510Y-35855483D01*
X-22977512Y-35855485D01*
X-22977513Y-35855485D01*
X-23144515Y-36022487D01*
X-23144515Y-36022488D01*
X-23144517Y-36022490D01*
X-23204138Y-36104550D01*
X-23283343Y-36213566D01*
X-23390567Y-36424003D01*
X-23463554Y-36648631D01*
X-23500500Y-36881902D01*
X-23500500Y-37118097D01*
X-23463554Y-37351368D01*
X-23390567Y-37575996D01*
X-23283343Y-37786433D01*
X-23144517Y-37977510D01*
X-23144515Y-37977512D01*
X-22977510Y-38144517D01*
X-22970397Y-38149685D01*
X-22927734Y-38205017D01*
X-22921758Y-38274630D01*
X-22954366Y-38336424D01*
X-22970397Y-38350315D01*
X-22977510Y-38355482D01*
X-23144515Y-38522487D01*
X-23144515Y-38522488D01*
X-23144517Y-38522490D01*
X-23204138Y-38604550D01*
X-23283343Y-38713566D01*
X-23390567Y-38924003D01*
X-23463554Y-39148631D01*
X-23500500Y-39381902D01*
X-23500500Y-39618097D01*
X-23463554Y-39851368D01*
X-23390567Y-40075996D01*
X-23283343Y-40286433D01*
X-23144517Y-40477510D01*
X-22977510Y-40644517D01*
X-22786433Y-40783343D01*
X-22687009Y-40834002D01*
X-22575997Y-40890566D01*
X-22575995Y-40890566D01*
X-22575992Y-40890568D01*
X-22455588Y-40929689D01*
X-22351369Y-40963553D01*
X-22118097Y-41000500D01*
X-22118092Y-41000500D01*
X-21881903Y-41000500D01*
X-21648632Y-40963553D01*
X-21424008Y-40890568D01*
X-21213567Y-40783343D01*
X-21022490Y-40644517D01*
X-20855483Y-40477510D01*
X-20716657Y-40286433D01*
X-20609432Y-40075992D01*
X-20536447Y-39851368D01*
X-20499500Y-39618097D01*
X-20499500Y-39381902D01*
X-20536447Y-39148631D01*
X-20609434Y-38924003D01*
X-20716658Y-38713566D01*
X-20855483Y-38522490D01*
X-21022490Y-38355483D01*
X-21029599Y-38350318D01*
X-21072265Y-38294988D01*
X-21078244Y-38225375D01*
X-21045638Y-38163580D01*
X-21029599Y-38149682D01*
X-21029500Y-38149609D01*
X-21022490Y-38144517D01*
X-20855483Y-37977510D01*
X-20716657Y-37786433D01*
X-20609432Y-37575992D01*
X-20536447Y-37351368D01*
X-20499500Y-37118097D01*
X-20499500Y-36881902D01*
X-20536447Y-36648631D01*
X-20609434Y-36424003D01*
X-20716658Y-36213566D01*
X-20855483Y-36022490D01*
X-21022490Y-35855483D01*
X-21203024Y-35724317D01*
X-21245688Y-35668988D01*
X-21251667Y-35599374D01*
X-21219061Y-35537579D01*
X-21158222Y-35503222D01*
X-21130137Y-35500000D01*
X-19369863Y-35500000D01*
X-19302824Y-35519685D01*
X-19257069Y-35572489D01*
X-19247125Y-35641647D01*
X-19276150Y-35705203D01*
X-19296976Y-35724316D01*
X-19477510Y-35855483D01*
X-19477512Y-35855485D01*
X-19477513Y-35855485D01*
X-19644515Y-36022487D01*
X-19644515Y-36022488D01*
X-19644517Y-36022490D01*
X-19704138Y-36104550D01*
X-19783343Y-36213566D01*
X-19890567Y-36424003D01*
X-19963554Y-36648631D01*
X-20000500Y-36881902D01*
X-20000500Y-37118097D01*
X-19963554Y-37351368D01*
X-19890567Y-37575996D01*
X-19783343Y-37786433D01*
X-19644517Y-37977510D01*
X-19644515Y-37977512D01*
X-19477510Y-38144517D01*
X-19470397Y-38149685D01*
X-19427734Y-38205017D01*
X-19421758Y-38274630D01*
X-19454366Y-38336424D01*
X-19470397Y-38350315D01*
X-19477510Y-38355482D01*
X-19644515Y-38522487D01*
X-19644515Y-38522488D01*
X-19644517Y-38522490D01*
X-19704138Y-38604550D01*
X-19783343Y-38713566D01*
X-19890567Y-38924003D01*
X-19963554Y-39148631D01*
X-20000500Y-39381902D01*
X-20000500Y-39618097D01*
X-19963554Y-39851368D01*
X-19890567Y-40075996D01*
X-19783343Y-40286433D01*
X-19644517Y-40477510D01*
X-19477510Y-40644517D01*
X-19286433Y-40783343D01*
X-19187009Y-40834002D01*
X-19075997Y-40890566D01*
X-19075995Y-40890566D01*
X-19075992Y-40890568D01*
X-18955588Y-40929689D01*
X-18851369Y-40963553D01*
X-18618097Y-41000500D01*
X-18618092Y-41000500D01*
X-18381903Y-41000500D01*
X-18148632Y-40963553D01*
X-17924008Y-40890568D01*
X-17713567Y-40783343D01*
X-17522490Y-40644517D01*
X-17355483Y-40477510D01*
X-17216657Y-40286433D01*
X-17109432Y-40075992D01*
X-17036447Y-39851368D01*
X-16999500Y-39618097D01*
X-16999500Y-39381902D01*
X-17036447Y-39148631D01*
X-17109434Y-38924003D01*
X-17216658Y-38713566D01*
X-17355483Y-38522490D01*
X-17522490Y-38355483D01*
X-17529599Y-38350318D01*
X-17572265Y-38294988D01*
X-17578244Y-38225375D01*
X-17545638Y-38163580D01*
X-17529599Y-38149682D01*
X-17529500Y-38149609D01*
X-17522490Y-38144517D01*
X-17355483Y-37977510D01*
X-17216657Y-37786433D01*
X-17109432Y-37575992D01*
X-17036447Y-37351368D01*
X-16999500Y-37118097D01*
X-16999500Y-36881902D01*
X-17036447Y-36648631D01*
X-17109434Y-36424003D01*
X-17216658Y-36213566D01*
X-17355483Y-36022490D01*
X-17522490Y-35855483D01*
X-17703024Y-35724317D01*
X-17745688Y-35668988D01*
X-17751667Y-35599374D01*
X-17719061Y-35537579D01*
X-17658222Y-35503222D01*
X-17630137Y-35500000D01*
X-124000Y-35500000D01*
X-56961Y-35519685D01*
X-11206Y-35572489D01*
X0Y-35624000D01*
X0Y-42000000D01*
X39375500Y-42000000D01*
X39442539Y-42019685D01*
X39488294Y-42072489D01*
X39499500Y-42124000D01*
X39499500Y-44996249D01*
X39499274Y-45003736D01*
X39481728Y-45293794D01*
X39479923Y-45308659D01*
X39428219Y-45590798D01*
X39424635Y-45605336D01*
X39339306Y-45879167D01*
X39333997Y-45893168D01*
X39216275Y-46154736D01*
X39209316Y-46167995D01*
X39060928Y-46413459D01*
X39052422Y-46425782D01*
X38875526Y-46651573D01*
X38865596Y-46662781D01*
X38662781Y-46865596D01*
X38651573Y-46875526D01*
X38425782Y-47052422D01*
X38413459Y-47060928D01*
X38167995Y-47209316D01*
X38154736Y-47216275D01*
X37893168Y-47333997D01*
X37879167Y-47339306D01*
X37605336Y-47424635D01*
X37590798Y-47428219D01*
X37308659Y-47479923D01*
X37293794Y-47481728D01*
X37003736Y-47499274D01*
X36996249Y-47499500D01*
X27892682Y-47499500D01*
X27680235Y-47530044D01*
X27680225Y-47530047D01*
X27474284Y-47590517D01*
X27279061Y-47679672D01*
X27279048Y-47679679D01*
X27098485Y-47795720D01*
X26936275Y-47936275D01*
X26795720Y-48098485D01*
X26679679Y-48279048D01*
X26679672Y-48279061D01*
X26590517Y-48474284D01*
X26530047Y-48680225D01*
X26530044Y-48680235D01*
X26499500Y-48892682D01*
X26499500Y-48993038D01*
X26498720Y-49006922D01*
X26498720Y-49006923D01*
X26488540Y-49097264D01*
X26482362Y-49124333D01*
X26454648Y-49203537D01*
X26442600Y-49228555D01*
X26397957Y-49299604D01*
X26380644Y-49321313D01*
X26321313Y-49380644D01*
X26299604Y-49397957D01*
X26228555Y-49442600D01*
X26203537Y-49454648D01*
X26124333Y-49482362D01*
X26097264Y-49488540D01*
X26017075Y-49497576D01*
X26006921Y-49498720D01*
X25993038Y-49499500D01*
X18006962Y-49499500D01*
X17993078Y-49498720D01*
X17980553Y-49497308D01*
X17902735Y-49488540D01*
X17875666Y-49482362D01*
X17796462Y-49454648D01*
X17771444Y-49442600D01*
X17700395Y-49397957D01*
X17678686Y-49380644D01*
X17619355Y-49321313D01*
X17602042Y-49299604D01*
X17557399Y-49228555D01*
X17545351Y-49203537D01*
X17543861Y-49199280D01*
X17517636Y-49124331D01*
X17511459Y-49097263D01*
X17501280Y-49006922D01*
X17500500Y-48993038D01*
X17500500Y-48892683D01*
X17500500Y-48892682D01*
X17469954Y-48680231D01*
X17409484Y-48474290D01*
X17409483Y-48474288D01*
X17409482Y-48474284D01*
X17320327Y-48279061D01*
X17320320Y-48279048D01*
X17249102Y-48168231D01*
X17204281Y-48098487D01*
X17124227Y-48006100D01*
X17063724Y-47936275D01*
X16901514Y-47795720D01*
X16901513Y-47795719D01*
X16820979Y-47743963D01*
X16720951Y-47679679D01*
X16720938Y-47679672D01*
X16525715Y-47590517D01*
X16319774Y-47530047D01*
X16319764Y-47530044D01*
X16128754Y-47502582D01*
X16107318Y-47499500D01*
X16065892Y-47499500D01*
X-11697810Y-47499500D01*
X-11764849Y-47479815D01*
X-11810604Y-47427011D01*
X-11820548Y-47357853D01*
X-11791523Y-47294297D01*
X-11745262Y-47260939D01*
X-11620828Y-47209397D01*
X-11620828Y-47209396D01*
X-11620821Y-47209394D01*
X-11489711Y-47121789D01*
X-11378211Y-47010289D01*
X-11290606Y-46879179D01*
X-11230263Y-46733497D01*
X-11199500Y-46578842D01*
X-11199500Y-46421158D01*
X-11199500Y-46421155D01*
X-11199501Y-46421153D01*
X-11209901Y-46368870D01*
X-11230263Y-46266503D01*
X-11249196Y-46220794D01*
X-11290603Y-46120827D01*
X-11290610Y-46120814D01*
X-11378602Y-45989125D01*
X-11399480Y-45922447D01*
X-11399500Y-45920234D01*
X-11399500Y-44874038D01*
X13399500Y-44874038D01*
X13399500Y-45125961D01*
X13438910Y-45374785D01*
X13516760Y-45614383D01*
X13631132Y-45838848D01*
X13779201Y-46042649D01*
X13779205Y-46042654D01*
X13957345Y-46220794D01*
X13957350Y-46220798D01*
X14020268Y-46266510D01*
X14161155Y-46368870D01*
X14304184Y-46441747D01*
X14385616Y-46483239D01*
X14385618Y-46483239D01*
X14385621Y-46483241D01*
X14625215Y-46561090D01*
X14874038Y-46600500D01*
X14874039Y-46600500D01*
X15125961Y-46600500D01*
X15125962Y-46600500D01*
X15374785Y-46561090D01*
X15614379Y-46483241D01*
X15838845Y-46368870D01*
X16042656Y-46220793D01*
X16220793Y-46042656D01*
X16368870Y-45838845D01*
X16483241Y-45614379D01*
X16561090Y-45374785D01*
X16600500Y-45125962D01*
X16600500Y-44874038D01*
X27399500Y-44874038D01*
X27399500Y-45125961D01*
X27438910Y-45374785D01*
X27516760Y-45614383D01*
X27631132Y-45838848D01*
X27779201Y-46042649D01*
X27779205Y-46042654D01*
X27957345Y-46220794D01*
X27957350Y-46220798D01*
X28020268Y-46266510D01*
X28161155Y-46368870D01*
X28304184Y-46441747D01*
X28385616Y-46483239D01*
X28385618Y-46483239D01*
X28385621Y-46483241D01*
X28625215Y-46561090D01*
X28874038Y-46600500D01*
X28874039Y-46600500D01*
X29125961Y-46600500D01*
X29125962Y-46600500D01*
X29374785Y-46561090D01*
X29614379Y-46483241D01*
X29838845Y-46368870D01*
X30042656Y-46220793D01*
X30220793Y-46042656D01*
X30368870Y-45838845D01*
X30483241Y-45614379D01*
X30561090Y-45374785D01*
X30600500Y-45125962D01*
X30600500Y-44874038D01*
X30561090Y-44625215D01*
X30483241Y-44385621D01*
X30483239Y-44385618D01*
X30483239Y-44385616D01*
X30414013Y-44249754D01*
X30368870Y-44161155D01*
X30256656Y-44006705D01*
X30220798Y-43957350D01*
X30220794Y-43957345D01*
X30042654Y-43779205D01*
X30042649Y-43779201D01*
X29838848Y-43631132D01*
X29838847Y-43631131D01*
X29838845Y-43631130D01*
X29768747Y-43595413D01*
X29614383Y-43516760D01*
X29374785Y-43438910D01*
X29125962Y-43399500D01*
X28874038Y-43399500D01*
X28749626Y-43419205D01*
X28625214Y-43438910D01*
X28385616Y-43516760D01*
X28161151Y-43631132D01*
X27957350Y-43779201D01*
X27957345Y-43779205D01*
X27779205Y-43957345D01*
X27779201Y-43957350D01*
X27631132Y-44161151D01*
X27516760Y-44385616D01*
X27438910Y-44625214D01*
X27399500Y-44874038D01*
X16600500Y-44874038D01*
X16561090Y-44625215D01*
X16483241Y-44385621D01*
X16483239Y-44385618D01*
X16483239Y-44385616D01*
X16414013Y-44249754D01*
X16368870Y-44161155D01*
X16256656Y-44006705D01*
X16220798Y-43957350D01*
X16220794Y-43957345D01*
X16042654Y-43779205D01*
X16042649Y-43779201D01*
X15838848Y-43631132D01*
X15838847Y-43631131D01*
X15838845Y-43631130D01*
X15768747Y-43595413D01*
X15614383Y-43516760D01*
X15374785Y-43438910D01*
X15125962Y-43399500D01*
X14874038Y-43399500D01*
X14749626Y-43419205D01*
X14625214Y-43438910D01*
X14385616Y-43516760D01*
X14161151Y-43631132D01*
X13957350Y-43779201D01*
X13957345Y-43779205D01*
X13779205Y-43957345D01*
X13779201Y-43957350D01*
X13631132Y-44161151D01*
X13516760Y-44385616D01*
X13438910Y-44625214D01*
X13399500Y-44874038D01*
X-11399500Y-44874038D01*
X-11399500Y-43079765D01*
X-11379815Y-43012726D01*
X-11378602Y-43010874D01*
X-11290610Y-42879185D01*
X-11290610Y-42879184D01*
X-11290606Y-42879179D01*
X-11230263Y-42733497D01*
X-11199500Y-42578842D01*
X-11199500Y-42421158D01*
X-11199500Y-42421155D01*
X-11199501Y-42421153D01*
X-11230262Y-42266510D01*
X-11230263Y-42266503D01*
X-11289289Y-42124000D01*
X-11290603Y-42120827D01*
X-11290610Y-42120814D01*
X-11378211Y-41989711D01*
X-11378214Y-41989707D01*
X-11489708Y-41878213D01*
X-11489712Y-41878210D01*
X-11620815Y-41790609D01*
X-11620828Y-41790602D01*
X-11766499Y-41730264D01*
X-11766511Y-41730261D01*
X-11921155Y-41699500D01*
X-11921158Y-41699500D01*
X-12078842Y-41699500D01*
X-12078845Y-41699500D01*
X-12233490Y-41730261D01*
X-12233502Y-41730264D01*
X-12379173Y-41790602D01*
X-12379186Y-41790609D01*
X-12510289Y-41878210D01*
X-12510293Y-41878213D01*
X-12621787Y-41989707D01*
X-12621790Y-41989711D01*
X-12709391Y-42120814D01*
X-12709398Y-42120827D01*
X-12769736Y-42266498D01*
X-12769739Y-42266510D01*
X-12800500Y-42421153D01*
X-12800500Y-42578846D01*
X-12769739Y-42733489D01*
X-12769736Y-42733501D01*
X-12709398Y-42879172D01*
X-12709391Y-42879185D01*
X-12621398Y-43010874D01*
X-12600520Y-43077551D01*
X-12600500Y-43079765D01*
X-12600500Y-45920234D01*
X-12620185Y-45987273D01*
X-12621398Y-45989125D01*
X-12709391Y-46120814D01*
X-12709398Y-46120827D01*
X-12769736Y-46266498D01*
X-12769739Y-46266510D01*
X-12800500Y-46421153D01*
X-12800500Y-46578846D01*
X-12769739Y-46733489D01*
X-12769736Y-46733501D01*
X-12709398Y-46879172D01*
X-12709391Y-46879185D01*
X-12621790Y-47010288D01*
X-12621787Y-47010292D01*
X-12510293Y-47121786D01*
X-12510289Y-47121789D01*
X-12379186Y-47209390D01*
X-12379173Y-47209397D01*
X-12254738Y-47260939D01*
X-12200334Y-47304779D01*
X-12178269Y-47371074D01*
X-12195548Y-47438773D01*
X-12246685Y-47486384D01*
X-12302190Y-47499500D01*
X-32601792Y-47499500D01*
X-32729088Y-47533608D01*
X-32843214Y-47599500D01*
X-32936400Y-47692685D01*
X-32967736Y-47746958D01*
X-32971126Y-47752489D01*
X-33165305Y-48051501D01*
X-33172934Y-48062002D01*
X-33395280Y-48336575D01*
X-33403965Y-48346220D01*
X-33653780Y-48596036D01*
X-33663425Y-48604721D01*
X-33937998Y-48827066D01*
X-33948499Y-48834695D01*
X-34244797Y-49027113D01*
X-34256037Y-49033603D01*
X-34570837Y-49194001D01*
X-34582694Y-49199280D01*
X-34912528Y-49325891D01*
X-34924872Y-49329902D01*
X-35266142Y-49421346D01*
X-35278839Y-49424044D01*
X-35627783Y-49479310D01*
X-35640690Y-49480667D01*
X-35993510Y-49499158D01*
X-36006490Y-49499158D01*
X-36359311Y-49480667D01*
X-36372218Y-49479310D01*
X-36721162Y-49424044D01*
X-36733859Y-49421346D01*
X-37075130Y-49329902D01*
X-37087474Y-49325891D01*
X-37417308Y-49199280D01*
X-37429165Y-49194001D01*
X-37559663Y-49127509D01*
X-37743971Y-49033599D01*
X-37755190Y-49027122D01*
X-38051508Y-48834691D01*
X-38062002Y-48827066D01*
X-38336576Y-48604721D01*
X-38346221Y-48596036D01*
X-38596037Y-48346220D01*
X-38604722Y-48336575D01*
X-38741044Y-48168231D01*
X-38827074Y-48061992D01*
X-38834689Y-48051511D01*
X-39027121Y-47755190D01*
X-39033597Y-47743976D01*
X-39194007Y-47429153D01*
X-39199276Y-47417317D01*
X-39325894Y-47087468D01*
X-39329903Y-47075129D01*
X-39334748Y-47057048D01*
X-39421349Y-46733852D01*
X-39424045Y-46721161D01*
X-39431098Y-46676632D01*
X-39471560Y-46421155D01*
X-39479311Y-46372217D01*
X-39480668Y-46359310D01*
X-39499330Y-46003222D01*
X-39499500Y-45996732D01*
X-39499500Y-45862332D01*
X-38100500Y-45862332D01*
X-38100500Y-46137667D01*
X-38100499Y-46137684D01*
X-38064562Y-46410655D01*
X-38064561Y-46410660D01*
X-38064560Y-46410666D01*
X-38041035Y-46498462D01*
X-37993296Y-46676630D01*
X-37887925Y-46931017D01*
X-37887920Y-46931028D01*
X-37817832Y-47052422D01*
X-37750249Y-47169479D01*
X-37750247Y-47169482D01*
X-37750246Y-47169483D01*
X-37582630Y-47387926D01*
X-37582624Y-47387933D01*
X-37387934Y-47582623D01*
X-37387928Y-47582628D01*
X-37169479Y-47750249D01*
X-37057294Y-47815019D01*
X-36931029Y-47887919D01*
X-36931024Y-47887921D01*
X-36931021Y-47887923D01*
X-36676632Y-47993295D01*
X-36410666Y-48064560D01*
X-36137674Y-48100500D01*
X-36137667Y-48100500D01*
X-35862333Y-48100500D01*
X-35862326Y-48100500D01*
X-35589334Y-48064560D01*
X-35323368Y-47993295D01*
X-35068979Y-47887923D01*
X-34830521Y-47750249D01*
X-34612072Y-47582628D01*
X-34417372Y-47387928D01*
X-34249751Y-47169479D01*
X-34112077Y-46931021D01*
X-34006705Y-46676632D01*
X-33935440Y-46410666D01*
X-33899500Y-46137674D01*
X-33899500Y-45862326D01*
X-33935440Y-45589334D01*
X-34006705Y-45323368D01*
X-34112077Y-45068979D01*
X-34112079Y-45068976D01*
X-34112081Y-45068971D01*
X-34189945Y-44934108D01*
X-34249751Y-44830521D01*
X-34417372Y-44612072D01*
X-34417377Y-44612066D01*
X-34612067Y-44417376D01*
X-34612074Y-44417370D01*
X-34830517Y-44249754D01*
X-34830518Y-44249753D01*
X-34830521Y-44249751D01*
X-34925593Y-44194861D01*
X-35068972Y-44112080D01*
X-35068983Y-44112075D01*
X-35323370Y-44006704D01*
X-35456351Y-43971072D01*
X-35589334Y-43935440D01*
X-35589340Y-43935439D01*
X-35589345Y-43935438D01*
X-35862316Y-43899501D01*
X-35862321Y-43899500D01*
X-35862326Y-43899500D01*
X-36137674Y-43899500D01*
X-36137680Y-43899500D01*
X-36137685Y-43899501D01*
X-36410656Y-43935438D01*
X-36410663Y-43935439D01*
X-36410666Y-43935440D01*
X-36466875Y-43950500D01*
X-36676631Y-44006704D01*
X-36931018Y-44112075D01*
X-36931029Y-44112080D01*
X-37169484Y-44249754D01*
X-37387927Y-44417370D01*
X-37387934Y-44417376D01*
X-37582624Y-44612066D01*
X-37582630Y-44612073D01*
X-37750246Y-44830516D01*
X-37887920Y-45068971D01*
X-37887925Y-45068982D01*
X-37993296Y-45323369D01*
X-38064559Y-45589331D01*
X-38064562Y-45589344D01*
X-38100499Y-45862315D01*
X-38100500Y-45862332D01*
X-39499500Y-45862332D01*
X-39499500Y-35624000D01*
X-39479815Y-35556961D01*
X-39427011Y-35511206D01*
X-39375500Y-35500000D01*
X-29869863Y-35500000D01*
X-29802824Y-35519685D01*
G37*
%TD.AperFunction*%
%TD*%
%TA.AperFunction,Conductor*%
%TO.N,GND_BUS*%
G36*
X26008315Y49498564D02*
G01*
X26094465Y49488856D01*
X26126993Y49481432D01*
X26200878Y49455579D01*
X26230939Y49441102D01*
X26297217Y49399457D01*
X26323304Y49378654D01*
X26378653Y49323305D01*
X26399456Y49297218D01*
X26441101Y49230940D01*
X26455578Y49200879D01*
X26481431Y49126994D01*
X26488855Y49094468D01*
X26498563Y49008318D01*
X26499500Y48991633D01*
X26499500Y48892685D01*
X26499501Y48892670D01*
X26530045Y48680234D01*
X26530046Y48680227D01*
X26590516Y48474290D01*
X26590516Y48474288D01*
X26679674Y48279060D01*
X26679681Y48279047D01*
X26795717Y48098490D01*
X26795725Y48098479D01*
X26936274Y47936278D01*
X26936277Y47936275D01*
X27098478Y47795726D01*
X27098483Y47795722D01*
X27098487Y47795719D01*
X27279050Y47679679D01*
X27474290Y47590516D01*
X27570781Y47562184D01*
X27680226Y47530047D01*
X27680229Y47530047D01*
X27680231Y47530046D01*
X27892682Y47499500D01*
X27934108Y47499500D01*
X36934108Y47499500D01*
X36995501Y47499500D01*
X37004496Y47499229D01*
X37292298Y47481820D01*
X37310134Y47479654D01*
X37589307Y47428494D01*
X37606772Y47424189D01*
X37877730Y47339755D01*
X37894546Y47333378D01*
X38153362Y47216894D01*
X38169291Y47208533D01*
X38233894Y47169479D01*
X38412163Y47061712D01*
X38426971Y47051491D01*
X38650377Y46876464D01*
X38663845Y46864533D01*
X38864532Y46663846D01*
X38876463Y46650378D01*
X39051490Y46426972D01*
X39061711Y46412164D01*
X39208531Y46169294D01*
X39216893Y46153363D01*
X39333375Y45894551D01*
X39339755Y45877727D01*
X39424187Y45606775D01*
X39428493Y45589305D01*
X39479651Y45310148D01*
X39481820Y45292286D01*
X39499228Y45004497D01*
X39499500Y44995501D01*
X39499500Y-39351000D01*
X39479538Y-39425500D01*
X39425000Y-39480038D01*
X39350500Y-39500000D01*
X2649000Y-39500000D01*
X2574500Y-39480038D01*
X2519962Y-39425500D01*
X2500000Y-39351000D01*
X2500000Y-33000000D01*
X-39350500Y-33000000D01*
X-39425000Y-32980038D01*
X-39479538Y-32925500D01*
X-39499500Y-32851000D01*
X-39499500Y-29876005D01*
X-37075500Y-29876005D01*
X-37075500Y-30123995D01*
X-37058840Y-30229185D01*
X-37036707Y-30368930D01*
X-36982225Y-30536607D01*
X-36960073Y-30604782D01*
X-36960070Y-30604787D01*
X-36960068Y-30604793D01*
X-36847491Y-30825738D01*
X-36847487Y-30825746D01*
X-36719103Y-31002450D01*
X-36701724Y-31026370D01*
X-36526370Y-31201724D01*
X-36526367Y-31201726D01*
X-36325747Y-31347486D01*
X-36325745Y-31347487D01*
X-36325742Y-31347489D01*
X-36104782Y-31460073D01*
X-35868931Y-31536706D01*
X-35623995Y-31575500D01*
X-35623991Y-31575500D01*
X-35376009Y-31575500D01*
X-35376005Y-31575500D01*
X-35131069Y-31536706D01*
X-34895218Y-31460073D01*
X-34674258Y-31347489D01*
X-34473630Y-31201724D01*
X-34298276Y-31026370D01*
X-34152511Y-30825742D01*
X-34039927Y-30604782D01*
X-33963294Y-30368931D01*
X-33924500Y-30123995D01*
X-33924500Y-29876005D01*
X-33963294Y-29631069D01*
X-34039927Y-29395218D01*
X-34152511Y-29174258D01*
X-34152513Y-29174255D01*
X-34152514Y-29174253D01*
X-34298274Y-28973633D01*
X-34298276Y-28973630D01*
X-34473630Y-28798276D01*
X-34599922Y-28706519D01*
X-34674254Y-28652513D01*
X-34674262Y-28652509D01*
X-34895207Y-28539932D01*
X-34895213Y-28539930D01*
X-34895218Y-28539927D01*
X-35018943Y-28499726D01*
X-35131070Y-28463293D01*
X-35270815Y-28441160D01*
X-35376005Y-28424500D01*
X-35623995Y-28424500D01*
X-35718987Y-28439545D01*
X-35868931Y-28463293D01*
X-36104776Y-28539925D01*
X-36104782Y-28539927D01*
X-36104785Y-28539928D01*
X-36104794Y-28539932D01*
X-36325739Y-28652509D01*
X-36325747Y-28652513D01*
X-36526367Y-28798273D01*
X-36701727Y-28973633D01*
X-36847487Y-29174253D01*
X-36847491Y-29174261D01*
X-36960068Y-29395206D01*
X-36960075Y-29395224D01*
X-37036707Y-29631069D01*
X-37058381Y-29767917D01*
X-37075500Y-29876005D01*
X-39499500Y-29876005D01*
X-39499500Y-11883919D01*
X-37710000Y-11883919D01*
X-37710000Y-12116080D01*
X-37673681Y-12345396D01*
X-37601938Y-12566197D01*
X-37601934Y-12566209D01*
X-37496534Y-12773066D01*
X-37469517Y-12810251D01*
X-36856754Y-12197487D01*
X-36811022Y-12307890D01*
X-36739888Y-12414351D01*
X-36649351Y-12504888D01*
X-36542890Y-12576022D01*
X-36432489Y-12621752D01*
X-37045253Y-13234516D01*
X-37043816Y-13252779D01*
X-37029150Y-13270890D01*
X-37017084Y-13347069D01*
X-37044724Y-13419074D01*
X-37077687Y-13452037D01*
X-37131074Y-13490825D01*
X-37131080Y-13490830D01*
X-37284170Y-13643920D01*
X-37284179Y-13643931D01*
X-37411432Y-13819079D01*
X-37509724Y-14011985D01*
X-37509728Y-14011997D01*
X-37576629Y-14217896D01*
X-37576630Y-14217903D01*
X-37610500Y-14431746D01*
X-37610500Y-14648254D01*
X-37580467Y-14837872D01*
X-37576629Y-14862103D01*
X-37509728Y-15068002D01*
X-37509724Y-15068014D01*
X-37498521Y-15090000D01*
X-37411433Y-15260919D01*
X-37284172Y-15436078D01*
X-37131078Y-15589172D01*
X-36955919Y-15716433D01*
X-36763009Y-15814726D01*
X-36557103Y-15881628D01*
X-36557097Y-15881630D01*
X-36343254Y-15915500D01*
X-36343249Y-15915500D01*
X-36126751Y-15915500D01*
X-36126746Y-15915500D01*
X-35912903Y-15881630D01*
X-35706991Y-15814726D01*
X-35514081Y-15716433D01*
X-35338922Y-15589172D01*
X-35185828Y-15436078D01*
X-35058567Y-15260919D01*
X-34960274Y-15068009D01*
X-34893370Y-14862097D01*
X-34859500Y-14648254D01*
X-34859500Y-14431746D01*
X-34893370Y-14217903D01*
X-34960274Y-14011991D01*
X-35058567Y-13819081D01*
X-35185828Y-13643922D01*
X-35338922Y-13490828D01*
X-35392316Y-13452034D01*
X-35440853Y-13392096D01*
X-35452918Y-13315917D01*
X-35425543Y-13244602D01*
X-35424749Y-13234516D01*
X-36037512Y-12621752D01*
X-35927110Y-12576022D01*
X-35820649Y-12504888D01*
X-35730112Y-12414351D01*
X-35658978Y-12307890D01*
X-35613248Y-12197487D01*
X-35000485Y-12810250D01*
X-34973467Y-12773065D01*
X-34868067Y-12566209D01*
X-34868063Y-12566197D01*
X-34796320Y-12345396D01*
X-34760000Y-12116080D01*
X-34760000Y-11883919D01*
X-34796320Y-11654603D01*
X-34868063Y-11433802D01*
X-34868067Y-11433790D01*
X-34973469Y-11226930D01*
X-35000484Y-11189747D01*
X-35613248Y-11802510D01*
X-35658978Y-11692110D01*
X-35730112Y-11585649D01*
X-35820649Y-11495112D01*
X-35927110Y-11423978D01*
X-36037513Y-11378246D01*
X-35424749Y-10765483D01*
X-35426187Y-10747217D01*
X-35440852Y-10729106D01*
X-35452916Y-10652927D01*
X-35425275Y-10580923D01*
X-35392317Y-10547965D01*
X-35338922Y-10509172D01*
X-35185828Y-10356078D01*
X-35058567Y-10180919D01*
X-34960274Y-9988009D01*
X-34893370Y-9782097D01*
X-34859500Y-9568254D01*
X-34859500Y-9351746D01*
X-34893370Y-9137903D01*
X-34960274Y-8931991D01*
X-35058567Y-8739081D01*
X-35185828Y-8563922D01*
X-35338922Y-8410828D01*
X-35514081Y-8283567D01*
X-35605222Y-8237128D01*
X-35706986Y-8185276D01*
X-35706990Y-8185274D01*
X-35706991Y-8185274D01*
X-35769848Y-8164850D01*
X-35912898Y-8118371D01*
X-35912897Y-8118371D01*
X-35912903Y-8118370D01*
X-36126746Y-8084500D01*
X-36343254Y-8084500D01*
X-36531292Y-8114282D01*
X-36557104Y-8118371D01*
X-36763003Y-8185272D01*
X-36763015Y-8185276D01*
X-36955921Y-8283568D01*
X-37131069Y-8410821D01*
X-37131080Y-8410830D01*
X-37284170Y-8563920D01*
X-37284179Y-8563931D01*
X-37411432Y-8739079D01*
X-37509724Y-8931985D01*
X-37509728Y-8931997D01*
X-37576629Y-9137896D01*
X-37576630Y-9137903D01*
X-37610500Y-9351746D01*
X-37610500Y-9568254D01*
X-37588947Y-9704329D01*
X-37576629Y-9782103D01*
X-37509728Y-9988002D01*
X-37509724Y-9988014D01*
X-37481141Y-10044110D01*
X-37411433Y-10180919D01*
X-37284172Y-10356078D01*
X-37131078Y-10509172D01*
X-37077686Y-10547963D01*
X-37029151Y-10607900D01*
X-37017085Y-10684078D01*
X-37044459Y-10755388D01*
X-37045253Y-10765483D01*
X-36432489Y-11378247D01*
X-36542890Y-11423978D01*
X-36649351Y-11495112D01*
X-36739888Y-11585649D01*
X-36811022Y-11692110D01*
X-36856753Y-11802511D01*
X-37469517Y-11189747D01*
X-37496533Y-11226932D01*
X-37601934Y-11433790D01*
X-37601938Y-11433802D01*
X-37673681Y-11654603D01*
X-37710000Y-11883919D01*
X-39499500Y-11883919D01*
X-39499500Y-133717D01*
X-39479538Y-59217D01*
X-39425000Y-4679D01*
X-39350500Y15283D01*
X-39276000Y-4679D01*
X-39245141Y-28358D01*
X-36699464Y-2574035D01*
X-36574035Y-2699464D01*
X-36574032Y-2699466D01*
X-36426549Y-2798012D01*
X-36426547Y-2798013D01*
X-36262666Y-2865894D01*
X-36088691Y-2900500D01*
X-29349500Y-2900500D01*
X-29275000Y-2920462D01*
X-29220462Y-2975000D01*
X-29200500Y-3049500D01*
X-29200500Y-26068997D01*
X-29173581Y-26204327D01*
X-29173580Y-26204329D01*
X-29120780Y-26331802D01*
X-29120777Y-26331808D01*
X-29120775Y-26331811D01*
X-29044114Y-26446543D01*
X-27511418Y-27979238D01*
X-27472855Y-28046031D01*
X-27472855Y-28123159D01*
X-27511419Y-28189954D01*
X-27578214Y-28228518D01*
X-27643111Y-28230643D01*
X-27643150Y-28230943D01*
X-27644964Y-28230704D01*
X-27645841Y-28230733D01*
X-27647988Y-28230306D01*
X-27881984Y-28199500D01*
X-27881989Y-28199500D01*
X-28118011Y-28199500D01*
X-28118017Y-28199500D01*
X-28352007Y-28230305D01*
X-28579997Y-28291395D01*
X-28798057Y-28381719D01*
X-29002449Y-28499726D01*
X-29002450Y-28499727D01*
X-29189699Y-28643408D01*
X-29189701Y-28643409D01*
X-29189705Y-28643413D01*
X-29356587Y-28810295D01*
X-29356591Y-28810299D01*
X-29356592Y-28810301D01*
X-29435657Y-28913341D01*
X-29500274Y-28997551D01*
X-29618281Y-29201943D01*
X-29708605Y-29420003D01*
X-29769695Y-29647993D01*
X-29800500Y-29881983D01*
X-29800500Y-30118016D01*
X-29769695Y-30352006D01*
X-29769694Y-30352012D01*
X-29769693Y-30352014D01*
X-29763030Y-30376882D01*
X-29708605Y-30579996D01*
X-29618281Y-30798056D01*
X-29515537Y-30976013D01*
X-29500273Y-31002450D01*
X-29356592Y-31189699D01*
X-29189699Y-31356592D01*
X-29002450Y-31500273D01*
X-28939346Y-31536706D01*
X-28798057Y-31618280D01*
X-28798054Y-31618281D01*
X-28798049Y-31618284D01*
X-28579993Y-31708606D01*
X-28352014Y-31769693D01*
X-28352008Y-31769693D01*
X-28352007Y-31769694D01*
X-28288397Y-31778068D01*
X-28118011Y-31800500D01*
X-27881989Y-31800500D01*
X-27647986Y-31769693D01*
X-27420007Y-31708606D01*
X-27201951Y-31618284D01*
X-26997550Y-31500273D01*
X-26810301Y-31356592D01*
X-26643408Y-31189699D01*
X-26499727Y-31002450D01*
X-26381716Y-30798049D01*
X-26291394Y-30579993D01*
X-26230307Y-30352014D01*
X-26199500Y-30118011D01*
X-26199500Y-29881989D01*
X-26230307Y-29647986D01*
X-26230311Y-29647971D01*
X-26230729Y-29645866D01*
X-26230682Y-29645137D01*
X-26230943Y-29643150D01*
X-26230548Y-29643097D01*
X-26225695Y-29568903D01*
X-26182853Y-29504768D01*
X-26113683Y-29470646D01*
X-26036720Y-29475680D01*
X-25979237Y-29511420D01*
X-24488208Y-31002448D01*
X-23044114Y-32446542D01*
X-22946542Y-32544114D01*
X-22946539Y-32544116D01*
X-22831816Y-32620772D01*
X-22831811Y-32620775D01*
X-22757134Y-32651707D01*
X-22704329Y-32673580D01*
X-22677409Y-32678934D01*
X-22568993Y-32700500D01*
X-22568989Y-32700500D01*
X-5431010Y-32700500D01*
X-5431006Y-32700500D01*
X-5295672Y-32673580D01*
X-5208629Y-32637525D01*
X-5168198Y-32620779D01*
X-5168197Y-32620778D01*
X-5168189Y-32620775D01*
X-5053457Y-32544114D01*
X-955886Y-28446543D01*
X-879225Y-28331811D01*
X-826420Y-28204329D01*
X-821066Y-28177409D01*
X-799500Y-28068993D01*
X-799500Y-25930289D01*
X-788158Y-25873270D01*
X-738542Y-25753484D01*
X-730263Y-25733497D01*
X-699500Y-25578842D01*
X-699500Y-25421158D01*
X-730263Y-25266503D01*
X-790606Y-25120821D01*
X-878211Y-24989711D01*
X-989711Y-24878211D01*
X-1120821Y-24790606D01*
X-1120822Y-24790605D01*
X-1120824Y-24790604D01*
X-1266502Y-24730263D01*
X-1266506Y-24730262D01*
X-1421158Y-24699500D01*
X-1578842Y-24699500D01*
X-1733495Y-24730262D01*
X-1733499Y-24730263D01*
X-1879177Y-24790604D01*
X-2010293Y-24878214D01*
X-2121786Y-24989707D01*
X-2209396Y-25120823D01*
X-2269737Y-25266501D01*
X-2269738Y-25266505D01*
X-2300500Y-25421157D01*
X-2300500Y-25578842D01*
X-2269738Y-25733494D01*
X-2269737Y-25733498D01*
X-2211842Y-25873270D01*
X-2200500Y-25930289D01*
X-2200500Y-27648125D01*
X-2220462Y-27722625D01*
X-2244141Y-27753484D01*
X-5746516Y-31255859D01*
X-5813311Y-31294423D01*
X-5851875Y-31299500D01*
X-19211689Y-31299500D01*
X-19286189Y-31279538D01*
X-19340727Y-31225000D01*
X-19360689Y-31150500D01*
X-19340727Y-31076000D01*
X-19317052Y-31045145D01*
X-19298276Y-31026370D01*
X-19152511Y-30825742D01*
X-19039927Y-30604782D01*
X-18963294Y-30368931D01*
X-18924500Y-30123995D01*
X-18924500Y-29876005D01*
X-18963294Y-29631069D01*
X-19039927Y-29395218D01*
X-19152511Y-29174258D01*
X-19152513Y-29174255D01*
X-19152514Y-29174253D01*
X-19298274Y-28973633D01*
X-19298276Y-28973630D01*
X-19473630Y-28798276D01*
X-19599922Y-28706519D01*
X-19674254Y-28652513D01*
X-19674262Y-28652509D01*
X-19895207Y-28539932D01*
X-19895213Y-28539930D01*
X-19895218Y-28539927D01*
X-20018943Y-28499726D01*
X-20131070Y-28463293D01*
X-20270815Y-28441160D01*
X-20376005Y-28424500D01*
X-20623995Y-28424500D01*
X-20718987Y-28439545D01*
X-20868931Y-28463293D01*
X-21104776Y-28539925D01*
X-21104782Y-28539927D01*
X-21104785Y-28539928D01*
X-21104794Y-28539932D01*
X-21325739Y-28652509D01*
X-21325747Y-28652513D01*
X-21526367Y-28798273D01*
X-21701727Y-28973633D01*
X-21847487Y-29174253D01*
X-21847491Y-29174261D01*
X-21960068Y-29395206D01*
X-21960075Y-29395224D01*
X-22036707Y-29631069D01*
X-22058381Y-29767917D01*
X-22075500Y-29876005D01*
X-22075500Y-30123995D01*
X-22058840Y-30229185D01*
X-22036707Y-30368930D01*
X-21982225Y-30536607D01*
X-21960073Y-30604782D01*
X-21960070Y-30604787D01*
X-21960068Y-30604793D01*
X-21847491Y-30825738D01*
X-21847487Y-30825746D01*
X-21719103Y-31002450D01*
X-21701724Y-31026370D01*
X-21682951Y-31045143D01*
X-21644388Y-31111936D01*
X-21644388Y-31189064D01*
X-21682952Y-31255859D01*
X-21749747Y-31294423D01*
X-21788311Y-31299500D01*
X-22148126Y-31299500D01*
X-22222626Y-31279538D01*
X-22253485Y-31255859D01*
X-27080297Y-26429046D01*
X-27178337Y-26331006D01*
X-13300500Y-26331006D01*
X-13300500Y-26468993D01*
X-13273581Y-26604325D01*
X-13273580Y-26604329D01*
X-13220776Y-26731809D01*
X-13220773Y-26731815D01*
X-13144117Y-26846538D01*
X-13144114Y-26846542D01*
X-13046542Y-26944114D01*
X-13046539Y-26944116D01*
X-12931816Y-27020772D01*
X-12931814Y-27020773D01*
X-12931811Y-27020775D01*
X-12804328Y-27073580D01*
X-12668993Y-27100500D01*
X-12531007Y-27100500D01*
X-12395672Y-27073580D01*
X-12268189Y-27020775D01*
X-12153458Y-26944114D01*
X-12153451Y-26944106D01*
X-12147796Y-26939467D01*
X-12147023Y-26940409D01*
X-12086690Y-26905577D01*
X-12048126Y-26900500D01*
X-10774994Y-26900500D01*
X-10700494Y-26920462D01*
X-10645956Y-26975000D01*
X-10625994Y-27049500D01*
X-10645956Y-27124000D01*
X-10687413Y-27170043D01*
X-10700638Y-27179650D01*
X-10820345Y-27299357D01*
X-10820347Y-27299360D01*
X-10919849Y-27436312D01*
X-10919849Y-27436313D01*
X-10996705Y-27587148D01*
X-11049018Y-27748153D01*
X-11075500Y-27915356D01*
X-11075500Y-28084644D01*
X-11052362Y-28230733D01*
X-11049018Y-28251846D01*
X-10996705Y-28412851D01*
X-10919849Y-28563686D01*
X-10919849Y-28563687D01*
X-10879456Y-28619283D01*
X-10820346Y-28700641D01*
X-10700641Y-28820346D01*
X-10563685Y-28919850D01*
X-10467035Y-28969096D01*
X-10412852Y-28996704D01*
X-10412850Y-28996704D01*
X-10412849Y-28996705D01*
X-10251847Y-29049018D01*
X-10084644Y-29075500D01*
X-10084639Y-29075500D01*
X-9915361Y-29075500D01*
X-9915356Y-29075500D01*
X-9748153Y-29049018D01*
X-9587151Y-28996705D01*
X-9436315Y-28919850D01*
X-9299359Y-28820346D01*
X-9179654Y-28700641D01*
X-9144684Y-28652509D01*
X-9120544Y-28619283D01*
X-9060604Y-28570744D01*
X-8984426Y-28558678D01*
X-8912421Y-28586318D01*
X-8879456Y-28619283D01*
X-8820352Y-28700634D01*
X-8820347Y-28700640D01*
X-8820346Y-28700641D01*
X-8700641Y-28820346D01*
X-8563685Y-28919850D01*
X-8467035Y-28969096D01*
X-8412852Y-28996704D01*
X-8412850Y-28996704D01*
X-8412849Y-28996705D01*
X-8251847Y-29049018D01*
X-8084644Y-29075500D01*
X-8084639Y-29075500D01*
X-7915361Y-29075500D01*
X-7915356Y-29075500D01*
X-7748153Y-29049018D01*
X-7587151Y-28996705D01*
X-7436315Y-28919850D01*
X-7299359Y-28820346D01*
X-7279471Y-28800457D01*
X-7212679Y-28761894D01*
X-7135551Y-28761892D01*
X-7068755Y-28800455D01*
X-7041353Y-28838170D01*
X-7003051Y-28913341D01*
X-7003050Y-28913342D01*
X-6913342Y-29003050D01*
X-6800304Y-29060646D01*
X-6706519Y-29075500D01*
X-5293482Y-29075499D01*
X-5199696Y-29060646D01*
X-5086658Y-29003050D01*
X-4996950Y-28913342D01*
X-4939354Y-28800304D01*
X-4924500Y-28706519D01*
X-4924501Y-27293482D01*
X-4939354Y-27199696D01*
X-4996950Y-27086658D01*
X-5086658Y-26996950D01*
X-5133868Y-26972895D01*
X-5199695Y-26939354D01*
X-5215327Y-26936878D01*
X-5293481Y-26924500D01*
X-5293486Y-26924500D01*
X-6706519Y-26924500D01*
X-6800305Y-26939354D01*
X-6800307Y-26939355D01*
X-6913343Y-26996950D01*
X-7003050Y-27086657D01*
X-7003051Y-27086659D01*
X-7041353Y-27161829D01*
X-7092962Y-27219146D01*
X-7166316Y-27242979D01*
X-7241758Y-27226942D01*
X-7279471Y-27199542D01*
X-7299358Y-27179655D01*
X-7299359Y-27179654D01*
X-7436315Y-27080150D01*
X-7496469Y-27049500D01*
X-7587149Y-27003295D01*
X-7747104Y-26951323D01*
X-7748153Y-26950982D01*
X-7915356Y-26924500D01*
X-8084644Y-26924500D01*
X-8169514Y-26937941D01*
X-8254004Y-26951323D01*
X-8330709Y-26943260D01*
X-8382670Y-26909516D01*
X-8823193Y-26468993D01*
X-9292686Y-25999500D01*
X-9292689Y-25999498D01*
X-9292690Y-25999497D01*
X-9372440Y-25953454D01*
X-9406814Y-25933608D01*
X-9534108Y-25899500D01*
X-12048126Y-25899500D01*
X-12122626Y-25879538D01*
X-12147641Y-25860343D01*
X-12147796Y-25860533D01*
X-12153462Y-25855883D01*
X-12268185Y-25779227D01*
X-12268191Y-25779224D01*
X-12395671Y-25726420D01*
X-12395675Y-25726419D01*
X-12531007Y-25699500D01*
X-12668993Y-25699500D01*
X-12804326Y-25726419D01*
X-12804330Y-25726420D01*
X-12931810Y-25779224D01*
X-12931816Y-25779227D01*
X-13046539Y-25855883D01*
X-13046546Y-25855889D01*
X-13144111Y-25953454D01*
X-13144117Y-25953461D01*
X-13220773Y-26068184D01*
X-13220776Y-26068190D01*
X-13273580Y-26195670D01*
X-13273581Y-26195674D01*
X-13300500Y-26331006D01*
X-27178337Y-26331006D01*
X-27755859Y-25753484D01*
X-27794423Y-25686689D01*
X-27799500Y-25648125D01*
X-27799500Y-19775429D01*
X-14740500Y-19775429D01*
X-14740500Y-20024570D01*
X-14707984Y-20271557D01*
X-14707983Y-20271563D01*
X-14707982Y-20271565D01*
X-14643502Y-20512207D01*
X-14568496Y-20693288D01*
X-14548162Y-20742377D01*
X-14465121Y-20886209D01*
X-14423599Y-20958127D01*
X-14271938Y-21155776D01*
X-14095776Y-21331938D01*
X-13898127Y-21483599D01*
X-13682373Y-21608164D01*
X-13452207Y-21703502D01*
X-13211565Y-21767982D01*
X-13211559Y-21767982D01*
X-13211558Y-21767983D01*
X-13144414Y-21776822D01*
X-12964565Y-21800500D01*
X-12715435Y-21800500D01*
X-12468435Y-21767982D01*
X-12227793Y-21703502D01*
X-11997627Y-21608164D01*
X-11781873Y-21483599D01*
X-11584224Y-21331938D01*
X-11408062Y-21155776D01*
X-11256401Y-20958127D01*
X-11131836Y-20742373D01*
X-11036498Y-20512207D01*
X-10972018Y-20271565D01*
X-10939500Y-20024565D01*
X-10939500Y-19775435D01*
X-10939501Y-19775429D01*
X8259500Y-19775429D01*
X8259500Y-20024570D01*
X8292016Y-20271557D01*
X8292017Y-20271563D01*
X8292018Y-20271565D01*
X8356498Y-20512207D01*
X8431504Y-20693288D01*
X8451838Y-20742377D01*
X8534879Y-20886209D01*
X8576401Y-20958127D01*
X8728062Y-21155776D01*
X8904224Y-21331938D01*
X9101873Y-21483599D01*
X9317627Y-21608164D01*
X9547793Y-21703502D01*
X9788435Y-21767982D01*
X9788441Y-21767982D01*
X9788442Y-21767983D01*
X9855586Y-21776822D01*
X10035435Y-21800500D01*
X10284565Y-21800500D01*
X10531565Y-21767982D01*
X10772207Y-21703502D01*
X11002373Y-21608164D01*
X11218127Y-21483599D01*
X11415776Y-21331938D01*
X11591938Y-21155776D01*
X11743599Y-20958127D01*
X11868164Y-20742373D01*
X11963502Y-20512207D01*
X12027982Y-20271565D01*
X12060500Y-20024565D01*
X12060500Y-19775435D01*
X12060499Y-19775429D01*
X34259500Y-19775429D01*
X34259500Y-20024570D01*
X34292016Y-20271557D01*
X34292017Y-20271563D01*
X34292018Y-20271565D01*
X34356498Y-20512207D01*
X34431504Y-20693288D01*
X34451838Y-20742377D01*
X34534879Y-20886209D01*
X34576401Y-20958127D01*
X34728062Y-21155776D01*
X34904224Y-21331938D01*
X35101873Y-21483599D01*
X35317627Y-21608164D01*
X35547793Y-21703502D01*
X35788435Y-21767982D01*
X35788441Y-21767982D01*
X35788442Y-21767983D01*
X35855586Y-21776822D01*
X36035435Y-21800500D01*
X36284565Y-21800500D01*
X36531565Y-21767982D01*
X36772207Y-21703502D01*
X37002373Y-21608164D01*
X37218127Y-21483599D01*
X37415776Y-21331938D01*
X37591938Y-21155776D01*
X37743599Y-20958127D01*
X37868164Y-20742373D01*
X37963502Y-20512207D01*
X38027982Y-20271565D01*
X38060500Y-20024565D01*
X38060500Y-19775435D01*
X38027982Y-19528435D01*
X37963502Y-19287793D01*
X37868164Y-19057627D01*
X37743599Y-18841873D01*
X37591938Y-18644224D01*
X37415776Y-18468062D01*
X37218127Y-18316401D01*
X37146209Y-18274879D01*
X37002377Y-18191838D01*
X37002375Y-18191837D01*
X37002373Y-18191836D01*
X36867548Y-18135989D01*
X36772210Y-18096499D01*
X36772208Y-18096498D01*
X36772207Y-18096498D01*
X36531565Y-18032018D01*
X36531563Y-18032017D01*
X36531557Y-18032016D01*
X36284570Y-17999500D01*
X36284565Y-17999500D01*
X36035435Y-17999500D01*
X36035429Y-17999500D01*
X35788442Y-18032016D01*
X35547789Y-18096499D01*
X35317622Y-18191838D01*
X35101874Y-18316400D01*
X34904222Y-18468063D01*
X34728063Y-18644222D01*
X34576400Y-18841874D01*
X34451838Y-19057622D01*
X34356499Y-19287789D01*
X34292016Y-19528442D01*
X34259500Y-19775429D01*
X12060499Y-19775429D01*
X12027982Y-19528435D01*
X11963502Y-19287793D01*
X11868164Y-19057627D01*
X11743599Y-18841873D01*
X11591938Y-18644224D01*
X11415776Y-18468062D01*
X11218127Y-18316401D01*
X11146209Y-18274879D01*
X11002377Y-18191838D01*
X11002375Y-18191837D01*
X11002373Y-18191836D01*
X10867548Y-18135989D01*
X10772210Y-18096499D01*
X10772208Y-18096498D01*
X10772207Y-18096498D01*
X10531565Y-18032018D01*
X10531563Y-18032017D01*
X10531557Y-18032016D01*
X10284570Y-17999500D01*
X10284565Y-17999500D01*
X10035435Y-17999500D01*
X10035429Y-17999500D01*
X9788442Y-18032016D01*
X9547789Y-18096499D01*
X9317622Y-18191838D01*
X9101874Y-18316400D01*
X8904222Y-18468063D01*
X8728063Y-18644222D01*
X8576400Y-18841874D01*
X8451838Y-19057622D01*
X8356499Y-19287789D01*
X8292016Y-19528442D01*
X8259500Y-19775429D01*
X-10939501Y-19775429D01*
X-10972018Y-19528435D01*
X-11036498Y-19287793D01*
X-11131836Y-19057627D01*
X-11256401Y-18841873D01*
X-11408062Y-18644224D01*
X-11584224Y-18468062D01*
X-11781873Y-18316401D01*
X-11853791Y-18274879D01*
X-11997623Y-18191838D01*
X-11997625Y-18191837D01*
X-11997627Y-18191836D01*
X-12132452Y-18135989D01*
X-12227790Y-18096499D01*
X-12227792Y-18096498D01*
X-12227793Y-18096498D01*
X-12468435Y-18032018D01*
X-12468437Y-18032017D01*
X-12468443Y-18032016D01*
X-12715430Y-17999500D01*
X-12715435Y-17999500D01*
X-12964565Y-17999500D01*
X-12964571Y-17999500D01*
X-13211558Y-18032016D01*
X-13452211Y-18096499D01*
X-13682378Y-18191838D01*
X-13898126Y-18316400D01*
X-14095778Y-18468063D01*
X-14271937Y-18644222D01*
X-14423600Y-18841874D01*
X-14548162Y-19057622D01*
X-14643501Y-19287789D01*
X-14707984Y-19528442D01*
X-14740500Y-19775429D01*
X-27799500Y-19775429D01*
X-27799500Y-11883919D01*
X-26475000Y-11883919D01*
X-26475000Y-12116080D01*
X-26438681Y-12345396D01*
X-26366938Y-12566197D01*
X-26366934Y-12566209D01*
X-26261534Y-12773066D01*
X-26234517Y-12810251D01*
X-25621754Y-12197487D01*
X-25576022Y-12307890D01*
X-25504888Y-12414351D01*
X-25414351Y-12504888D01*
X-25307890Y-12576022D01*
X-25197489Y-12621752D01*
X-25810253Y-13234516D01*
X-25808816Y-13252779D01*
X-25794150Y-13270890D01*
X-25782084Y-13347069D01*
X-25809724Y-13419074D01*
X-25842687Y-13452037D01*
X-25896074Y-13490825D01*
X-25896080Y-13490830D01*
X-26049170Y-13643920D01*
X-26049179Y-13643931D01*
X-26176432Y-13819079D01*
X-26274724Y-14011985D01*
X-26274728Y-14011997D01*
X-26341629Y-14217896D01*
X-26341630Y-14217903D01*
X-26375500Y-14431746D01*
X-26375500Y-14648254D01*
X-26345467Y-14837872D01*
X-26341629Y-14862103D01*
X-26274728Y-15068002D01*
X-26274724Y-15068014D01*
X-26263521Y-15090000D01*
X-26176433Y-15260919D01*
X-26049172Y-15436078D01*
X-25896078Y-15589172D01*
X-25720919Y-15716433D01*
X-25528009Y-15814726D01*
X-25322103Y-15881628D01*
X-25322097Y-15881630D01*
X-25108254Y-15915500D01*
X-25108249Y-15915500D01*
X-24891751Y-15915500D01*
X-24891746Y-15915500D01*
X-24677903Y-15881630D01*
X-24471991Y-15814726D01*
X-24279081Y-15716433D01*
X-24103922Y-15589172D01*
X-23950828Y-15436078D01*
X-23823567Y-15260919D01*
X-23725274Y-15068009D01*
X-23658370Y-14862097D01*
X-23624500Y-14648254D01*
X-23624500Y-14431746D01*
X-23658370Y-14217903D01*
X-23725274Y-14011991D01*
X-23823567Y-13819081D01*
X-23950828Y-13643922D01*
X-24103922Y-13490828D01*
X-24157316Y-13452034D01*
X-24205853Y-13392096D01*
X-24217918Y-13315917D01*
X-24190543Y-13244602D01*
X-24189749Y-13234516D01*
X-24802512Y-12621752D01*
X-24692110Y-12576022D01*
X-24585649Y-12504888D01*
X-24495112Y-12414351D01*
X-24423978Y-12307890D01*
X-24378248Y-12197487D01*
X-23765485Y-12810250D01*
X-23738467Y-12773065D01*
X-23633067Y-12566209D01*
X-23633063Y-12566197D01*
X-23561320Y-12345396D01*
X-23525000Y-12116080D01*
X-23525000Y-11883919D01*
X-23561320Y-11654603D01*
X-23633063Y-11433802D01*
X-23633067Y-11433790D01*
X-23738469Y-11226930D01*
X-23765484Y-11189747D01*
X-24378248Y-11802510D01*
X-24423978Y-11692110D01*
X-24495112Y-11585649D01*
X-24585649Y-11495112D01*
X-24692110Y-11423978D01*
X-24802513Y-11378246D01*
X-24189749Y-10765483D01*
X-24191187Y-10747217D01*
X-24205852Y-10729106D01*
X-24217916Y-10652927D01*
X-24190275Y-10580923D01*
X-24157317Y-10547965D01*
X-24103922Y-10509172D01*
X-23950828Y-10356078D01*
X-23823567Y-10180919D01*
X-23725274Y-9988009D01*
X-23658370Y-9782097D01*
X-23624500Y-9568254D01*
X-23624500Y-9351746D01*
X-23658370Y-9137903D01*
X-23725274Y-8931991D01*
X-23823567Y-8739081D01*
X-23950828Y-8563922D01*
X-24103922Y-8410828D01*
X-24279081Y-8283567D01*
X-24370222Y-8237128D01*
X-24471986Y-8185276D01*
X-24471990Y-8185274D01*
X-24471991Y-8185274D01*
X-24534848Y-8164850D01*
X-24677898Y-8118371D01*
X-24677897Y-8118371D01*
X-24677903Y-8118370D01*
X-24891746Y-8084500D01*
X-25108254Y-8084500D01*
X-25296292Y-8114282D01*
X-25322104Y-8118371D01*
X-25528003Y-8185272D01*
X-25528015Y-8185276D01*
X-25720921Y-8283568D01*
X-25896069Y-8410821D01*
X-25896080Y-8410830D01*
X-26049170Y-8563920D01*
X-26049179Y-8563931D01*
X-26176432Y-8739079D01*
X-26274724Y-8931985D01*
X-26274728Y-8931997D01*
X-26341629Y-9137896D01*
X-26341630Y-9137903D01*
X-26375500Y-9351746D01*
X-26375500Y-9568254D01*
X-26353947Y-9704329D01*
X-26341629Y-9782103D01*
X-26274728Y-9988002D01*
X-26274724Y-9988014D01*
X-26246141Y-10044110D01*
X-26176433Y-10180919D01*
X-26049172Y-10356078D01*
X-25896078Y-10509172D01*
X-25842686Y-10547963D01*
X-25794151Y-10607900D01*
X-25782085Y-10684078D01*
X-25809459Y-10755388D01*
X-25810253Y-10765483D01*
X-25197489Y-11378247D01*
X-25307890Y-11423978D01*
X-25414351Y-11495112D01*
X-25504888Y-11585649D01*
X-25576022Y-11692110D01*
X-25621753Y-11802511D01*
X-26234517Y-11189747D01*
X-26261533Y-11226932D01*
X-26366934Y-11433790D01*
X-26366938Y-11433802D01*
X-26438681Y-11654603D01*
X-26475000Y-11883919D01*
X-27799500Y-11883919D01*
X-27799500Y-2617684D01*
X-27779538Y-2543184D01*
X-27774389Y-2534904D01*
X-27701988Y-2426548D01*
X-27701987Y-2426547D01*
X-27634106Y-2262666D01*
X-27599500Y-2088691D01*
X-27599500Y-1911309D01*
X-27634106Y-1737334D01*
X-27701987Y-1573453D01*
X-27793715Y-1436174D01*
X-27800534Y-1425968D01*
X-27800538Y-1425963D01*
X-27925964Y-1300537D01*
X-27925969Y-1300533D01*
X-28073452Y-1201987D01*
X-28073454Y-1201986D01*
X-28237333Y-1134106D01*
X-28237337Y-1134105D01*
X-28411309Y-1099500D01*
X-35565283Y-1099500D01*
X-35639783Y-1079538D01*
X-35670642Y-1055859D01*
X-37533275Y806775D01*
X-33384599Y806775D01*
X-33384598Y806755D01*
X-33378198Y747220D01*
X-33327954Y612513D01*
X-33327949Y612503D01*
X-33241790Y497410D01*
X-33241787Y497407D01*
X-33126694Y411248D01*
X-33126684Y411243D01*
X-32991976Y360999D01*
X-32991978Y360999D01*
X-32932442Y354599D01*
X-32932422Y354597D01*
X-31685999Y354597D01*
X-31085999Y354597D01*
X-29839576Y354597D01*
X-29839557Y354599D01*
X-29780022Y360999D01*
X-29645315Y411243D01*
X-29645305Y411248D01*
X-29530212Y497407D01*
X-29530209Y497410D01*
X-29444050Y612503D01*
X-29444045Y612513D01*
X-29393801Y747220D01*
X-29387401Y806755D01*
X-29387399Y806775D01*
X-29387399Y1849997D01*
X-31085999Y1849997D01*
X-31085999Y354597D01*
X-31685999Y354597D01*
X-31685999Y1849997D01*
X-33384599Y1849997D01*
X-33384599Y806775D01*
X-37533275Y806775D01*
X-38054859Y1328359D01*
X-38093423Y1395154D01*
X-38098500Y1433718D01*
X-38098500Y3449305D01*
X-33384599Y3449305D01*
X-33384599Y2449997D01*
X-31685999Y2449997D01*
X-31085999Y2449997D01*
X-29387399Y2449997D01*
X-29387399Y3493220D01*
X-29387401Y3493240D01*
X-29393801Y3552775D01*
X-29444045Y3687482D01*
X-29444050Y3687492D01*
X-29530209Y3802585D01*
X-29530212Y3802588D01*
X-29645305Y3888747D01*
X-29645315Y3888752D01*
X-29780023Y3938996D01*
X-29780021Y3938996D01*
X-29839557Y3945396D01*
X-29839576Y3945397D01*
X-31085999Y3945397D01*
X-31085999Y2449997D01*
X-31685999Y2449997D01*
X-31685999Y3945397D01*
X-32008772Y3945397D01*
X-32083272Y3965359D01*
X-32137810Y4019897D01*
X-32157772Y4094397D01*
X-32156918Y4110324D01*
X-32154302Y4134666D01*
X-32154300Y4134686D01*
X-32154300Y4200008D01*
X-33256000Y4200008D01*
X-33256000Y3676508D01*
X-33257945Y3669251D01*
X-33256724Y3661838D01*
X-33267820Y3632399D01*
X-33275962Y3602008D01*
X-33281275Y3596696D01*
X-33283924Y3589665D01*
X-33384599Y3449305D01*
X-38098500Y3449305D01*
X-38098500Y4134686D01*
X-34957700Y4134686D01*
X-34957699Y4134666D01*
X-34951299Y4075131D01*
X-34901055Y3940424D01*
X-34901050Y3940414D01*
X-34814891Y3825321D01*
X-34814888Y3825318D01*
X-34699795Y3739159D01*
X-34699785Y3739154D01*
X-34565077Y3688910D01*
X-34565079Y3688910D01*
X-34505543Y3682510D01*
X-34505523Y3682508D01*
X-33856000Y3682508D01*
X-33856000Y4200008D01*
X-34957700Y4200008D01*
X-34957700Y4134686D01*
X-38098500Y4134686D01*
X-38098500Y12650496D01*
X-38078538Y12724996D01*
X-38024000Y12779534D01*
X-37949500Y12799496D01*
X-35007200Y12799496D01*
X-34932700Y12779534D01*
X-34878162Y12724996D01*
X-34858200Y12650496D01*
X-34858200Y12150979D01*
X-34843347Y12057195D01*
X-34839724Y12046047D01*
X-34835685Y11969025D01*
X-34839722Y11953958D01*
X-34843346Y11942807D01*
X-34843346Y11942804D01*
X-34858200Y11849019D01*
X-34858200Y11849018D01*
X-34858200Y11849015D01*
X-34858200Y11150981D01*
X-34843347Y11057198D01*
X-34839723Y11046046D01*
X-34832430Y11000001D01*
X-34832430Y10999999D01*
X-34839722Y10953957D01*
X-34843346Y10942806D01*
X-34843346Y10942804D01*
X-34858200Y10849019D01*
X-34858200Y10849018D01*
X-34858200Y10849015D01*
X-34858200Y10150981D01*
X-34843347Y10057198D01*
X-34839723Y10046046D01*
X-34832430Y10000001D01*
X-34832430Y9999999D01*
X-34839722Y9953957D01*
X-34843346Y9942806D01*
X-34843346Y9942804D01*
X-34858200Y9849019D01*
X-34858200Y9849018D01*
X-34858200Y9849015D01*
X-34858200Y9150981D01*
X-34843347Y9057198D01*
X-34839723Y9046046D01*
X-34832430Y9000001D01*
X-34832430Y8999999D01*
X-34839722Y8953957D01*
X-34843346Y8942806D01*
X-34845551Y8928884D01*
X-34858200Y8849019D01*
X-34858200Y8849018D01*
X-34858200Y8849015D01*
X-34858200Y8150981D01*
X-34843347Y8057197D01*
X-34839724Y8046049D01*
X-34835685Y7969027D01*
X-34839722Y7953960D01*
X-34843346Y7942809D01*
X-34843346Y7942806D01*
X-34858200Y7849021D01*
X-34858200Y7849018D01*
X-34858200Y7849017D01*
X-34858200Y7150983D01*
X-34843347Y7057199D01*
X-34839724Y7046051D01*
X-34835685Y6969029D01*
X-34839722Y6953962D01*
X-34843346Y6942811D01*
X-34843346Y6942808D01*
X-34858200Y6849023D01*
X-34858200Y6849020D01*
X-34858200Y6849019D01*
X-34858200Y6150985D01*
X-34843347Y6057201D01*
X-34839724Y6046053D01*
X-34835685Y5969031D01*
X-34839722Y5953964D01*
X-34843346Y5942813D01*
X-34843346Y5942810D01*
X-34858200Y5849025D01*
X-34858200Y5849024D01*
X-34858200Y5849021D01*
X-34858200Y5166436D01*
X-34878162Y5091936D01*
X-34887916Y5077149D01*
X-34901049Y5059605D01*
X-34901055Y5059594D01*
X-34951299Y4924886D01*
X-34957699Y4865351D01*
X-34957700Y4865331D01*
X-34957700Y4800008D01*
X-34614606Y4800008D01*
X-34591298Y4798174D01*
X-34583006Y4796861D01*
X-34583004Y4796860D01*
X-34489219Y4782006D01*
X-32622782Y4782007D01*
X-32622781Y4782007D01*
X-32591312Y4786991D01*
X-32528996Y4796860D01*
X-32528994Y4796862D01*
X-32520704Y4798174D01*
X-32497396Y4800008D01*
X-32154300Y4800008D01*
X-32154300Y4865331D01*
X-32154302Y4865351D01*
X-32160702Y4924886D01*
X-32210946Y5059593D01*
X-32210950Y5059602D01*
X-32224078Y5077137D01*
X-32252747Y5148739D01*
X-32253801Y5166418D01*
X-32253801Y5849024D01*
X-32253801Y5849025D01*
X-32253801Y5850504D01*
X-32233839Y5925004D01*
X-32179301Y5979542D01*
X-32104801Y5999504D01*
X-31184104Y5999504D01*
X-31056810Y6033612D01*
X-30942682Y6099504D01*
X-21599500Y15442686D01*
X-21533608Y15556814D01*
X-21499500Y15684108D01*
X-21499500Y15815893D01*
X-21499500Y20448126D01*
X-21479538Y20522626D01*
X-21460344Y20547641D01*
X-21460533Y20547796D01*
X-21455894Y20553451D01*
X-21455886Y20553458D01*
X-21379225Y20668189D01*
X-21326420Y20795672D01*
X-21299500Y20931007D01*
X-21299500Y21068993D01*
X-21326420Y21204328D01*
X-21379225Y21331811D01*
X-21403465Y21368088D01*
X-21455884Y21446539D01*
X-21455886Y21446542D01*
X-21553458Y21544114D01*
X-21553462Y21544117D01*
X-21668185Y21620773D01*
X-21668191Y21620776D01*
X-21795671Y21673580D01*
X-21795675Y21673581D01*
X-21931007Y21700500D01*
X-22068993Y21700500D01*
X-22204326Y21673581D01*
X-22276368Y21643741D01*
X-22352837Y21633675D01*
X-22424093Y21663192D01*
X-22450560Y21691451D01*
X-22451246Y21690887D01*
X-22455884Y21696539D01*
X-22455886Y21696542D01*
X-22553458Y21794114D01*
X-22575926Y21809127D01*
X-22668185Y21870773D01*
X-22668191Y21870776D01*
X-22795671Y21923580D01*
X-22795675Y21923581D01*
X-22931007Y21950500D01*
X-23068993Y21950500D01*
X-23204326Y21923581D01*
X-23204330Y21923580D01*
X-23331810Y21870776D01*
X-23331816Y21870773D01*
X-23446539Y21794117D01*
X-23446546Y21794111D01*
X-23544111Y21696546D01*
X-23544117Y21696539D01*
X-23620773Y21581816D01*
X-23620776Y21581810D01*
X-23673580Y21454330D01*
X-23673581Y21454326D01*
X-23700500Y21318994D01*
X-23700500Y21181007D01*
X-23673581Y21045675D01*
X-23673580Y21045671D01*
X-23620776Y20918191D01*
X-23620773Y20918185D01*
X-23544117Y20803462D01*
X-23539467Y20797796D01*
X-23540410Y20797023D01*
X-23505577Y20736690D01*
X-23500500Y20698126D01*
X-23500500Y15514006D01*
X-23520462Y15439506D01*
X-23544141Y15408647D01*
X-30908645Y8044143D01*
X-30975440Y8005579D01*
X-31014004Y8000502D01*
X-32104800Y8000502D01*
X-32179300Y8020464D01*
X-32233838Y8075002D01*
X-32253800Y8149502D01*
X-32253801Y8849019D01*
X-32263022Y8907240D01*
X-32268654Y8942804D01*
X-32268656Y8942808D01*
X-32272279Y8953960D01*
X-32276313Y9030983D01*
X-32272278Y9046042D01*
X-32268655Y9057194D01*
X-32268655Y9057195D01*
X-32268654Y9057196D01*
X-32253800Y9150981D01*
X-32253801Y9849018D01*
X-32268654Y9942804D01*
X-32268656Y9942808D01*
X-32272279Y9953960D01*
X-32276313Y10030983D01*
X-32272278Y10046042D01*
X-32268655Y10057194D01*
X-32268655Y10057195D01*
X-32268654Y10057196D01*
X-32253800Y10150981D01*
X-32253801Y10849018D01*
X-32268654Y10942804D01*
X-32268656Y10942808D01*
X-32272279Y10953960D01*
X-32276313Y11030983D01*
X-32272278Y11046042D01*
X-32268655Y11057194D01*
X-32268655Y11057195D01*
X-32268654Y11057196D01*
X-32253800Y11150981D01*
X-32253801Y11849018D01*
X-32268654Y11942804D01*
X-32268656Y11942807D01*
X-32268656Y11942810D01*
X-32272279Y11953963D01*
X-32276313Y12030986D01*
X-32272276Y12046048D01*
X-32268655Y12057192D01*
X-32268655Y12057193D01*
X-32268654Y12057194D01*
X-32253800Y12150979D01*
X-32253801Y12849016D01*
X-32268654Y12942802D01*
X-32268656Y12942805D01*
X-32268656Y12942808D01*
X-32272279Y12953961D01*
X-32276313Y13030984D01*
X-32272276Y13046046D01*
X-32268655Y13057190D01*
X-32268655Y13057191D01*
X-32268654Y13057192D01*
X-32253800Y13150977D01*
X-32253801Y13849014D01*
X-32268654Y13942800D01*
X-32268656Y13942803D01*
X-32268656Y13942806D01*
X-32272279Y13953959D01*
X-32276313Y14030982D01*
X-32272276Y14046044D01*
X-32268655Y14057188D01*
X-32268655Y14057189D01*
X-32268654Y14057190D01*
X-32253800Y14150975D01*
X-32253801Y14833567D01*
X-32233839Y14908066D01*
X-32224079Y14922862D01*
X-32210947Y14940404D01*
X-32160702Y15075115D01*
X-32154302Y15134650D01*
X-32154300Y15134670D01*
X-32154300Y15199992D01*
X-32497394Y15199992D01*
X-32520702Y15201826D01*
X-32528995Y15203140D01*
X-32528996Y15203140D01*
X-32622781Y15217994D01*
X-32622786Y15217994D01*
X-34489219Y15217994D01*
X-34552075Y15208039D01*
X-34583004Y15203140D01*
X-34583006Y15203140D01*
X-34588127Y15202328D01*
X-34611435Y15200494D01*
X-35382307Y15200494D01*
X-35456807Y15220456D01*
X-35465087Y15225605D01*
X-35573452Y15298013D01*
X-35573454Y15298014D01*
X-35737333Y15365894D01*
X-35737337Y15365895D01*
X-35911309Y15400500D01*
X-36088691Y15400500D01*
X-36262664Y15365895D01*
X-36262668Y15365894D01*
X-36426547Y15298014D01*
X-36426549Y15298013D01*
X-36574032Y15199467D01*
X-36574037Y15199463D01*
X-36699463Y15074037D01*
X-36699467Y15074032D01*
X-36798013Y14926549D01*
X-36798014Y14926547D01*
X-36865894Y14762668D01*
X-36865895Y14762664D01*
X-36900500Y14588692D01*
X-36900500Y14411308D01*
X-36893987Y14378563D01*
X-36899032Y14301600D01*
X-36941882Y14237471D01*
X-37011057Y14203359D01*
X-37040124Y14200496D01*
X-37949500Y14200496D01*
X-38024000Y14220458D01*
X-38078538Y14274996D01*
X-38098500Y14349496D01*
X-38098500Y15865315D01*
X-34957700Y15865315D01*
X-34957700Y15799992D01*
X-33856000Y15799992D01*
X-33856000Y16317492D01*
X-34505523Y16317492D01*
X-34505543Y16317491D01*
X-34565078Y16311091D01*
X-34699785Y16260847D01*
X-34699795Y16260842D01*
X-34814888Y16174683D01*
X-34814891Y16174680D01*
X-34901050Y16059587D01*
X-34901055Y16059577D01*
X-34951299Y15924870D01*
X-34957699Y15865335D01*
X-34957700Y15865315D01*
X-38098500Y15865315D01*
X-38098500Y16506763D01*
X-33384599Y16506763D01*
X-33380914Y16472493D01*
X-33370674Y16463295D01*
X-33330500Y16452530D01*
X-33275962Y16397992D01*
X-33256000Y16323492D01*
X-33256000Y15799992D01*
X-32154300Y15799992D01*
X-32154300Y15865315D01*
X-32154302Y15865335D01*
X-32156918Y15889676D01*
X-32145034Y15965883D01*
X-32096638Y16025938D01*
X-32024699Y16053749D01*
X-32008772Y16054603D01*
X-31685999Y16054603D01*
X-31085999Y16054603D01*
X-29839576Y16054603D01*
X-29839557Y16054605D01*
X-29780022Y16061005D01*
X-29645315Y16111249D01*
X-29645305Y16111254D01*
X-29530212Y16197413D01*
X-29530209Y16197416D01*
X-29444050Y16312509D01*
X-29444045Y16312519D01*
X-29393801Y16447226D01*
X-29387401Y16506761D01*
X-29387399Y16506781D01*
X-29387399Y17550003D01*
X-31085999Y17550003D01*
X-31085999Y16054603D01*
X-31685999Y16054603D01*
X-31685999Y17550003D01*
X-33384599Y17550003D01*
X-33384599Y16506763D01*
X-38098500Y16506763D01*
X-38098500Y18821535D01*
X-38078538Y18896035D01*
X-38024000Y18950573D01*
X-37949500Y18970535D01*
X-37875000Y18950573D01*
X-37861920Y18942079D01*
X-37714108Y18834688D01*
X-37523018Y18737323D01*
X-37523015Y18737321D01*
X-37319053Y18671050D01*
X-37107226Y18637500D01*
X-36892774Y18637500D01*
X-36680948Y18671050D01*
X-36476986Y18737321D01*
X-36476983Y18737323D01*
X-36285895Y18834687D01*
X-36285887Y18834692D01*
X-36270290Y18846025D01*
X-36270289Y18846025D01*
X-36617490Y19193226D01*
X-33384599Y19193226D01*
X-33384599Y18150003D01*
X-31685999Y18150003D01*
X-31085999Y18150003D01*
X-29387399Y18150003D01*
X-29387399Y19193226D01*
X-29387401Y19193246D01*
X-29393801Y19252781D01*
X-29444045Y19387488D01*
X-29444050Y19387498D01*
X-29530209Y19502591D01*
X-29530212Y19502594D01*
X-29645305Y19588753D01*
X-29645315Y19588758D01*
X-29780023Y19639002D01*
X-29780021Y19639002D01*
X-29839557Y19645402D01*
X-29839576Y19645403D01*
X-31085999Y19645403D01*
X-31085999Y18150003D01*
X-31685999Y18150003D01*
X-31685999Y19645403D01*
X-32932422Y19645403D01*
X-32932442Y19645402D01*
X-32991977Y19639002D01*
X-33126684Y19588758D01*
X-33126694Y19588753D01*
X-33241787Y19502594D01*
X-33241790Y19502591D01*
X-33327949Y19387498D01*
X-33327954Y19387488D01*
X-33378198Y19252781D01*
X-33384598Y19193246D01*
X-33384599Y19193226D01*
X-36617490Y19193226D01*
X-36865121Y19440857D01*
X-36778058Y19464185D01*
X-36646942Y19539885D01*
X-36539885Y19646942D01*
X-36464185Y19778058D01*
X-36440857Y19865121D01*
X-35846026Y19270290D01*
X-35835476Y19284807D01*
X-35835475Y19284809D01*
X-35834694Y19285883D01*
X-35834687Y19285895D01*
X-35737323Y19476983D01*
X-35737321Y19476986D01*
X-35671050Y19680948D01*
X-35637500Y19892774D01*
X-35637500Y20107227D01*
X-35671050Y20319053D01*
X-35737321Y20523015D01*
X-35737323Y20523018D01*
X-35834688Y20714109D01*
X-35846025Y20729712D01*
X-35846026Y20729712D01*
X-36440858Y20134881D01*
X-36464185Y20221942D01*
X-36539885Y20353058D01*
X-36646942Y20460115D01*
X-36778058Y20535815D01*
X-36865123Y20559144D01*
X-36617492Y20806775D01*
X-33384599Y20806775D01*
X-33384598Y20806755D01*
X-33378198Y20747220D01*
X-33327954Y20612513D01*
X-33327949Y20612503D01*
X-33241790Y20497410D01*
X-33241787Y20497407D01*
X-33126694Y20411248D01*
X-33126684Y20411243D01*
X-32991976Y20360999D01*
X-32991978Y20360999D01*
X-32932442Y20354599D01*
X-32932422Y20354597D01*
X-31685999Y20354597D01*
X-31085999Y20354597D01*
X-29839576Y20354597D01*
X-29839557Y20354599D01*
X-29780022Y20360999D01*
X-29645315Y20411243D01*
X-29645305Y20411248D01*
X-29530212Y20497407D01*
X-29530209Y20497410D01*
X-29444050Y20612503D01*
X-29444045Y20612513D01*
X-29393801Y20747220D01*
X-29387401Y20806755D01*
X-29387399Y20806775D01*
X-29387399Y21849997D01*
X-31085999Y21849997D01*
X-31085999Y20354597D01*
X-31685999Y20354597D01*
X-31685999Y21849997D01*
X-33384599Y21849997D01*
X-33384599Y20806775D01*
X-36617492Y20806775D01*
X-36270290Y21153977D01*
X-36285891Y21165312D01*
X-36285893Y21165313D01*
X-36476983Y21262678D01*
X-36476986Y21262680D01*
X-36680948Y21328951D01*
X-36892774Y21362500D01*
X-37107226Y21362500D01*
X-37319053Y21328951D01*
X-37523015Y21262680D01*
X-37523018Y21262678D01*
X-37714108Y21165313D01*
X-37714115Y21165309D01*
X-37861921Y21057922D01*
X-37933926Y21030282D01*
X-38010104Y21042348D01*
X-38070044Y21090887D01*
X-38097684Y21162892D01*
X-38098500Y21178466D01*
X-38098500Y23449305D01*
X-33384599Y23449305D01*
X-33384599Y22449997D01*
X-31685999Y22449997D01*
X-31085999Y22449997D01*
X-29387399Y22449997D01*
X-29387399Y23493220D01*
X-29387401Y23493240D01*
X-29393801Y23552775D01*
X-29444045Y23687482D01*
X-29444050Y23687492D01*
X-29530209Y23802585D01*
X-29530212Y23802588D01*
X-29645305Y23888747D01*
X-29645315Y23888752D01*
X-29780023Y23938996D01*
X-29780021Y23938996D01*
X-29839557Y23945396D01*
X-29839576Y23945397D01*
X-31085999Y23945397D01*
X-31085999Y22449997D01*
X-31685999Y22449997D01*
X-31685999Y23945397D01*
X-32008772Y23945397D01*
X-32083272Y23965359D01*
X-32137810Y24019897D01*
X-32157772Y24094397D01*
X-32156918Y24110324D01*
X-32154302Y24134666D01*
X-32154300Y24134686D01*
X-32154300Y24200008D01*
X-33256000Y24200008D01*
X-33256000Y23676508D01*
X-33257945Y23669251D01*
X-33256724Y23661838D01*
X-33267820Y23632399D01*
X-33275962Y23602008D01*
X-33281275Y23596696D01*
X-33283924Y23589665D01*
X-33384599Y23449305D01*
X-38098500Y23449305D01*
X-38098500Y24134686D01*
X-34957700Y24134686D01*
X-34957699Y24134666D01*
X-34951299Y24075131D01*
X-34901055Y23940424D01*
X-34901050Y23940414D01*
X-34814891Y23825321D01*
X-34814888Y23825318D01*
X-34699795Y23739159D01*
X-34699785Y23739154D01*
X-34565077Y23688910D01*
X-34565079Y23688910D01*
X-34505543Y23682510D01*
X-34505523Y23682508D01*
X-33856000Y23682508D01*
X-33856000Y24200008D01*
X-34957700Y24200008D01*
X-34957700Y24134686D01*
X-38098500Y24134686D01*
X-38098500Y32650496D01*
X-38078538Y32724996D01*
X-38024000Y32779534D01*
X-37949500Y32799496D01*
X-36336207Y32799496D01*
X-36261707Y32779534D01*
X-36207169Y32724996D01*
X-36187207Y32650496D01*
X-36190070Y32621427D01*
X-36200500Y32568993D01*
X-36200500Y32431007D01*
X-36173581Y32295675D01*
X-36173580Y32295671D01*
X-36120776Y32168191D01*
X-36120773Y32168185D01*
X-36044117Y32053462D01*
X-36044114Y32053458D01*
X-35946542Y31955886D01*
X-35946539Y31955884D01*
X-35831816Y31879228D01*
X-35831814Y31879227D01*
X-35831811Y31879225D01*
X-35704328Y31826420D01*
X-35568993Y31799500D01*
X-35431007Y31799500D01*
X-35295672Y31826420D01*
X-35168189Y31879225D01*
X-35089981Y31931482D01*
X-35016946Y31956275D01*
X-34941300Y31941229D01*
X-34883312Y31890375D01*
X-34858519Y31817340D01*
X-34858200Y31807594D01*
X-34858200Y31150981D01*
X-34843347Y31057198D01*
X-34839723Y31046046D01*
X-34832430Y31000001D01*
X-34832430Y30999999D01*
X-34839722Y30953957D01*
X-34843346Y30942806D01*
X-34843346Y30942804D01*
X-34858200Y30849019D01*
X-34858200Y30849016D01*
X-34858200Y30849015D01*
X-34858200Y30150981D01*
X-34843347Y30057198D01*
X-34839723Y30046046D01*
X-34832430Y30000001D01*
X-34832430Y29999999D01*
X-34839722Y29953957D01*
X-34843346Y29942806D01*
X-34843346Y29942804D01*
X-34858200Y29849019D01*
X-34858200Y29849016D01*
X-34858200Y29849015D01*
X-34858200Y29150981D01*
X-34843347Y29057198D01*
X-34839723Y29046046D01*
X-34832430Y29000001D01*
X-34832430Y28999999D01*
X-34839722Y28953957D01*
X-34843346Y28942806D01*
X-34843346Y28942804D01*
X-34858200Y28849019D01*
X-34858200Y28849016D01*
X-34858200Y28849015D01*
X-34858200Y28150981D01*
X-34843347Y28057197D01*
X-34839724Y28046049D01*
X-34835685Y27969027D01*
X-34839722Y27953960D01*
X-34843346Y27942809D01*
X-34843949Y27939000D01*
X-34858200Y27849021D01*
X-34858200Y27849018D01*
X-34858200Y27849017D01*
X-34858200Y27150983D01*
X-34843347Y27057199D01*
X-34839724Y27046051D01*
X-34835685Y26969029D01*
X-34839722Y26953962D01*
X-34843346Y26942811D01*
X-34843346Y26942808D01*
X-34858200Y26849023D01*
X-34858200Y26849020D01*
X-34858200Y26849019D01*
X-34858200Y26150985D01*
X-34843347Y26057201D01*
X-34839724Y26046053D01*
X-34835685Y25969031D01*
X-34839722Y25953964D01*
X-34843346Y25942813D01*
X-34843346Y25942810D01*
X-34858200Y25849025D01*
X-34858200Y25849024D01*
X-34858200Y25849021D01*
X-34858200Y25166436D01*
X-34878162Y25091936D01*
X-34887916Y25077149D01*
X-34901049Y25059605D01*
X-34901055Y25059594D01*
X-34951299Y24924886D01*
X-34957699Y24865351D01*
X-34957700Y24865331D01*
X-34957700Y24800008D01*
X-34614606Y24800008D01*
X-34591298Y24798174D01*
X-34583006Y24796861D01*
X-34583004Y24796860D01*
X-34489219Y24782006D01*
X-32622782Y24782007D01*
X-32622781Y24782007D01*
X-32605666Y24784718D01*
X-32528996Y24796860D01*
X-32528994Y24796862D01*
X-32520704Y24798174D01*
X-32497396Y24800008D01*
X-32154300Y24800008D01*
X-32154300Y24865331D01*
X-32154302Y24865351D01*
X-32160702Y24924886D01*
X-32210946Y25059593D01*
X-32210950Y25059602D01*
X-32224078Y25077137D01*
X-32252747Y25148739D01*
X-32253801Y25166418D01*
X-32253801Y25849024D01*
X-32253801Y25849025D01*
X-32253801Y25850504D01*
X-32233839Y25925004D01*
X-32179301Y25979542D01*
X-32104801Y25999504D01*
X-23758200Y25999504D01*
X-23683700Y25979542D01*
X-23652841Y25955863D01*
X-20044141Y22347163D01*
X-20005577Y22280368D01*
X-20000500Y22241804D01*
X-20000500Y15065892D01*
X-20000500Y14934108D01*
X-19966392Y14806814D01*
X-19966391Y14806813D01*
X-19900503Y14692690D01*
X-19900502Y14692689D01*
X-19900500Y14692686D01*
X-18794140Y13586326D01*
X-18755577Y13519533D01*
X-18750500Y13480969D01*
X-18750500Y13431007D01*
X-18723581Y13295675D01*
X-18723580Y13295671D01*
X-18670776Y13168191D01*
X-18670773Y13168185D01*
X-18596609Y13057192D01*
X-18594114Y13053458D01*
X-18496542Y12955886D01*
X-18496539Y12955884D01*
X-18381816Y12879228D01*
X-18381814Y12879227D01*
X-18381811Y12879225D01*
X-18254328Y12826420D01*
X-18120430Y12799786D01*
X-18051258Y12765675D01*
X-18008408Y12701545D01*
X-18000500Y12653650D01*
X-18000500Y9065892D01*
X-18000500Y8934108D01*
X-17966392Y8806814D01*
X-17966391Y8806813D01*
X-17900503Y8692690D01*
X-17900502Y8692689D01*
X-17900500Y8692686D01*
X-15307314Y6099500D01*
X-15307312Y6099499D01*
X-15307308Y6099496D01*
X-15262188Y6073446D01*
X-15207650Y6018909D01*
X-15187687Y5944409D01*
X-15203927Y5876764D01*
X-15288879Y5710037D01*
X-15288883Y5710028D01*
X-15288884Y5710025D01*
X-15349709Y5522826D01*
X-15380500Y5328417D01*
X-15380500Y5131583D01*
X-15349709Y4937174D01*
X-15288884Y4749975D01*
X-15288881Y4749970D01*
X-15288879Y4749964D01*
X-15267240Y4707496D01*
X-15199524Y4574595D01*
X-15083828Y4415354D01*
X-14944646Y4276172D01*
X-14785405Y4160476D01*
X-14717256Y4125753D01*
X-14652505Y4092760D01*
X-14595187Y4041151D01*
X-14571353Y3967798D01*
X-14587389Y3892356D01*
X-14638998Y3835038D01*
X-14652505Y3827240D01*
X-14785402Y3759526D01*
X-14785407Y3759523D01*
X-14944637Y3643835D01*
X-14944648Y3643826D01*
X-15083826Y3504648D01*
X-15083835Y3504637D01*
X-15199523Y3345407D01*
X-15199526Y3345402D01*
X-15288879Y3170037D01*
X-15288883Y3170028D01*
X-15288884Y3170025D01*
X-15349709Y2982826D01*
X-15380500Y2788417D01*
X-15380500Y2591583D01*
X-15349709Y2397174D01*
X-15288884Y2209975D01*
X-15288881Y2209970D01*
X-15288879Y2209964D01*
X-15218288Y2071422D01*
X-15199524Y2034595D01*
X-15083828Y1875354D01*
X-14944646Y1736172D01*
X-14785405Y1620476D01*
X-14717256Y1585753D01*
X-14652505Y1552760D01*
X-14595187Y1501151D01*
X-14571353Y1427798D01*
X-14587389Y1352356D01*
X-14638998Y1295038D01*
X-14652505Y1287240D01*
X-14785402Y1219526D01*
X-14785407Y1219523D01*
X-14944637Y1103835D01*
X-14944648Y1103826D01*
X-15083826Y964648D01*
X-15083835Y964637D01*
X-15199523Y805407D01*
X-15199526Y805402D01*
X-15288879Y630037D01*
X-15288883Y630028D01*
X-15288884Y630025D01*
X-15349709Y442826D01*
X-15380500Y248417D01*
X-15380500Y51583D01*
X-15349709Y-142826D01*
X-15288884Y-330025D01*
X-15288881Y-330030D01*
X-15288879Y-330036D01*
X-15267240Y-372504D01*
X-15199524Y-505405D01*
X-15083828Y-664646D01*
X-14944646Y-803828D01*
X-14785405Y-919524D01*
X-14762087Y-931405D01*
X-14704772Y-983012D01*
X-14680937Y-1056365D01*
X-14696972Y-1131808D01*
X-14748581Y-1189125D01*
X-14762086Y-1196923D01*
X-14837556Y-1235377D01*
X-14837557Y-1235378D01*
X-15009465Y-1360277D01*
X-15009468Y-1360279D01*
X-15159721Y-1510532D01*
X-15159723Y-1510535D01*
X-15284622Y-1682443D01*
X-15284622Y-1682444D01*
X-15381094Y-1871777D01*
X-15446757Y-2073869D01*
X-15446758Y-2073869D01*
X-15449312Y-2090000D01*
X-14534144Y-2090000D01*
X-14595925Y-2197007D01*
X-14630000Y-2324174D01*
X-14630000Y-2455826D01*
X-14595925Y-2582993D01*
X-14534144Y-2690000D01*
X-15449312Y-2690000D01*
X-15446758Y-2706130D01*
X-15381094Y-2908222D01*
X-15284622Y-3097555D01*
X-15284622Y-3097556D01*
X-15159723Y-3269464D01*
X-15159721Y-3269467D01*
X-15009468Y-3419720D01*
X-15009465Y-3419722D01*
X-14837556Y-3544621D01*
X-14762088Y-3583075D01*
X-14704771Y-3634684D01*
X-14680937Y-3708038D01*
X-14696973Y-3783480D01*
X-14748582Y-3840797D01*
X-14762086Y-3848594D01*
X-14785406Y-3860476D01*
X-14785407Y-3860477D01*
X-14944637Y-3976165D01*
X-14944648Y-3976174D01*
X-15083826Y-4115352D01*
X-15083835Y-4115363D01*
X-15199523Y-4274593D01*
X-15199526Y-4274598D01*
X-15288879Y-4449963D01*
X-15288883Y-4449972D01*
X-15288884Y-4449975D01*
X-15349709Y-4637174D01*
X-15380500Y-4831583D01*
X-15380500Y-5028417D01*
X-15349709Y-5222826D01*
X-15288884Y-5410025D01*
X-15288881Y-5410030D01*
X-15288879Y-5410036D01*
X-15267240Y-5452504D01*
X-15199524Y-5585405D01*
X-15083828Y-5744646D01*
X-14944646Y-5883828D01*
X-14785405Y-5999524D01*
X-14762087Y-6011405D01*
X-14704772Y-6063012D01*
X-14680937Y-6136365D01*
X-14696972Y-6211808D01*
X-14748581Y-6269125D01*
X-14762086Y-6276923D01*
X-14837556Y-6315377D01*
X-14837557Y-6315378D01*
X-15009465Y-6440277D01*
X-15009468Y-6440279D01*
X-15159721Y-6590532D01*
X-15159723Y-6590535D01*
X-15284622Y-6762443D01*
X-15284622Y-6762444D01*
X-15381094Y-6951777D01*
X-15446757Y-7153869D01*
X-15446758Y-7153869D01*
X-15449312Y-7170000D01*
X-14534144Y-7170000D01*
X-14595925Y-7277007D01*
X-14630000Y-7404174D01*
X-14630000Y-7535826D01*
X-14595925Y-7662993D01*
X-14534144Y-7770000D01*
X-15449312Y-7770000D01*
X-15446758Y-7786130D01*
X-15381094Y-7988222D01*
X-15284622Y-8177555D01*
X-15284622Y-8177556D01*
X-15159723Y-8349464D01*
X-15159721Y-8349467D01*
X-15009468Y-8499720D01*
X-15009465Y-8499722D01*
X-14837556Y-8624621D01*
X-14762088Y-8663075D01*
X-14704771Y-8714684D01*
X-14680937Y-8788038D01*
X-14696973Y-8863480D01*
X-14748582Y-8920797D01*
X-14762086Y-8928594D01*
X-14785406Y-8940476D01*
X-14785407Y-8940477D01*
X-14944637Y-9056165D01*
X-14944648Y-9056174D01*
X-15083826Y-9195352D01*
X-15083835Y-9195363D01*
X-15199523Y-9354593D01*
X-15199526Y-9354598D01*
X-15288879Y-9529963D01*
X-15288883Y-9529972D01*
X-15288884Y-9529975D01*
X-15349709Y-9717174D01*
X-15380500Y-9911583D01*
X-15380500Y-10108417D01*
X-15349709Y-10302826D01*
X-15288884Y-10490025D01*
X-15288881Y-10490030D01*
X-15288879Y-10490036D01*
X-15228824Y-10607900D01*
X-15199524Y-10665405D01*
X-15083828Y-10824646D01*
X-14944646Y-10963828D01*
X-14785405Y-11079524D01*
X-14717256Y-11114247D01*
X-14652505Y-11147240D01*
X-14595187Y-11198849D01*
X-14571353Y-11272202D01*
X-14587389Y-11347644D01*
X-14638998Y-11404962D01*
X-14652505Y-11412760D01*
X-14785402Y-11480474D01*
X-14785407Y-11480477D01*
X-14944637Y-11596165D01*
X-14944648Y-11596174D01*
X-15083826Y-11735352D01*
X-15083835Y-11735363D01*
X-15199523Y-11894593D01*
X-15199526Y-11894598D01*
X-15288879Y-12069963D01*
X-15288883Y-12069972D01*
X-15288884Y-12069975D01*
X-15349709Y-12257174D01*
X-15380500Y-12451583D01*
X-15380500Y-12648417D01*
X-15349709Y-12842826D01*
X-15288884Y-13030025D01*
X-15288881Y-13030030D01*
X-15288879Y-13030036D01*
X-15274123Y-13058996D01*
X-15199524Y-13205405D01*
X-15083828Y-13364646D01*
X-14944646Y-13503828D01*
X-14785405Y-13619524D01*
X-14746786Y-13639201D01*
X-14652505Y-13687240D01*
X-14595187Y-13738849D01*
X-14571353Y-13812202D01*
X-14587389Y-13887644D01*
X-14638998Y-13944962D01*
X-14652505Y-13952760D01*
X-14785402Y-14020474D01*
X-14785407Y-14020477D01*
X-14944637Y-14136165D01*
X-14944648Y-14136174D01*
X-15083826Y-14275352D01*
X-15083835Y-14275363D01*
X-15199523Y-14434593D01*
X-15199526Y-14434598D01*
X-15288879Y-14609963D01*
X-15288883Y-14609972D01*
X-15288884Y-14609975D01*
X-15349709Y-14797174D01*
X-15380500Y-14991583D01*
X-15380500Y-15188417D01*
X-15349709Y-15382826D01*
X-15288884Y-15570025D01*
X-15288881Y-15570030D01*
X-15288879Y-15570036D01*
X-15218288Y-15708578D01*
X-15199524Y-15745405D01*
X-15083828Y-15904646D01*
X-14944646Y-16043828D01*
X-14785405Y-16159524D01*
X-14610025Y-16248884D01*
X-14422826Y-16309709D01*
X-14228417Y-16340500D01*
X-14228412Y-16340500D01*
X-14031588Y-16340500D01*
X-14031583Y-16340500D01*
X-13837174Y-16309709D01*
X-13649975Y-16248884D01*
X-13474595Y-16159524D01*
X-13315354Y-16043828D01*
X-13176172Y-15904646D01*
X-13060476Y-15745405D01*
X-13048596Y-15722088D01*
X-12996990Y-15664772D01*
X-12923637Y-15640936D01*
X-12848194Y-15656971D01*
X-12790876Y-15708578D01*
X-12783077Y-15722086D01*
X-12744626Y-15797550D01*
X-12744622Y-15797556D01*
X-12619723Y-15969464D01*
X-12619721Y-15969467D01*
X-12469468Y-16119720D01*
X-12469465Y-16119722D01*
X-12297556Y-16244621D01*
X-12108223Y-16341093D01*
X-11906131Y-16406756D01*
X-11906131Y-16406757D01*
X-11890000Y-16409311D01*
X-11890000Y-15494144D01*
X-11782993Y-15555925D01*
X-11655826Y-15590000D01*
X-11524174Y-15590000D01*
X-11397007Y-15555925D01*
X-11290000Y-15494144D01*
X-11290000Y-16409311D01*
X-11273870Y-16406757D01*
X-11273870Y-16406756D01*
X-11071778Y-16341093D01*
X-10882445Y-16244621D01*
X-10882444Y-16244621D01*
X-10710536Y-16119722D01*
X-10710533Y-16119720D01*
X-10560280Y-15969467D01*
X-10560278Y-15969464D01*
X-10435379Y-15797556D01*
X-10435379Y-15797555D01*
X-10338907Y-15608222D01*
X-10273244Y-15406130D01*
X-10273243Y-15406130D01*
X-10270688Y-15390000D01*
X-11185856Y-15390000D01*
X-11124075Y-15282993D01*
X-11090000Y-15155826D01*
X-11090000Y-15024174D01*
X-11124075Y-14897007D01*
X-11185856Y-14790000D01*
X-10270689Y-14790000D01*
X-10273243Y-14773869D01*
X-10338907Y-14571777D01*
X-10435379Y-14382444D01*
X-10435379Y-14382443D01*
X-10560278Y-14210535D01*
X-10560280Y-14210532D01*
X-10710533Y-14060279D01*
X-10710536Y-14060277D01*
X-10882444Y-13935378D01*
X-10882450Y-13935374D01*
X-10957914Y-13896923D01*
X-11015231Y-13845314D01*
X-11039064Y-13771961D01*
X-11023027Y-13696518D01*
X-10971418Y-13639201D01*
X-10957918Y-13631407D01*
X-10934595Y-13619524D01*
X-10775354Y-13503828D01*
X-10636172Y-13364646D01*
X-10520476Y-13205405D01*
X-10431116Y-13030025D01*
X-10370291Y-12842826D01*
X-10339500Y-12648417D01*
X-10339500Y-12451583D01*
X-10358711Y-12330291D01*
X-10350649Y-12253590D01*
X-10305314Y-12191192D01*
X-10234854Y-12159821D01*
X-10158148Y-12167883D01*
X-10106186Y-12201628D01*
X-7783400Y-14524414D01*
X-7783401Y-14524414D01*
X-7736037Y-14571777D01*
X-7690214Y-14617600D01*
X-7576086Y-14683492D01*
X-7448792Y-14717600D01*
X82826Y-14717600D01*
X157326Y-14737562D01*
X182340Y-14756756D01*
X182496Y-14756567D01*
X188154Y-14761210D01*
X188158Y-14761214D01*
X188161Y-14761216D01*
X302884Y-14837872D01*
X302886Y-14837873D01*
X302889Y-14837875D01*
X430372Y-14890680D01*
X565707Y-14917600D01*
X703693Y-14917600D01*
X839028Y-14890680D01*
X966511Y-14837875D01*
X1081242Y-14761214D01*
X1178814Y-14663642D01*
X1255475Y-14548911D01*
X1308280Y-14421428D01*
X1335200Y-14286093D01*
X1335200Y-14148107D01*
X1332826Y-14136174D01*
X1317729Y-14060277D01*
X1308280Y-14012772D01*
X1255475Y-13885289D01*
X1228764Y-13845314D01*
X1178816Y-13770561D01*
X1178814Y-13770558D01*
X1081242Y-13672986D01*
X1081202Y-13672959D01*
X966515Y-13596327D01*
X966509Y-13596324D01*
X839029Y-13543520D01*
X839025Y-13543519D01*
X703693Y-13516600D01*
X565707Y-13516600D01*
X430374Y-13543519D01*
X430370Y-13543520D01*
X302890Y-13596324D01*
X302884Y-13596327D01*
X188161Y-13672983D01*
X182496Y-13677633D01*
X181722Y-13676690D01*
X121390Y-13711523D01*
X82826Y-13716600D01*
X-7113868Y-13716600D01*
X-7188368Y-13696638D01*
X-7219227Y-13672959D01*
X-10359452Y-10532734D01*
X-10398016Y-10465939D01*
X-10398016Y-10388811D01*
X-10395812Y-10381368D01*
X-10370291Y-10302826D01*
X-10339500Y-10108417D01*
X-10339500Y-9911583D01*
X-10370291Y-9717174D01*
X-10431116Y-9529975D01*
X-10520476Y-9354595D01*
X-10636172Y-9195354D01*
X-10775354Y-9056172D01*
X-10934595Y-8940476D01*
X-11067497Y-8872759D01*
X-11124814Y-8821152D01*
X-11148648Y-8747799D01*
X-11132612Y-8672356D01*
X-11081004Y-8615038D01*
X-11067496Y-8607240D01*
X-10934595Y-8539524D01*
X-10775354Y-8423828D01*
X-10636172Y-8284646D01*
X-10520476Y-8125405D01*
X-10431116Y-7950025D01*
X-10370291Y-7762826D01*
X-10339500Y-7568417D01*
X-10339500Y-7371583D01*
X-10370291Y-7177174D01*
X-10431116Y-6989975D01*
X-10520476Y-6814595D01*
X-10636172Y-6655354D01*
X-10775354Y-6516172D01*
X-10934595Y-6400476D01*
X-11067497Y-6332759D01*
X-11124814Y-6281152D01*
X-11148648Y-6207799D01*
X-11132612Y-6132356D01*
X-11081004Y-6075038D01*
X-11067496Y-6067240D01*
X-11059198Y-6063012D01*
X-10934595Y-5999524D01*
X-10775354Y-5883828D01*
X-10636172Y-5744646D01*
X-10520476Y-5585405D01*
X-10431116Y-5410025D01*
X-10370291Y-5222826D01*
X-10339500Y-5028417D01*
X-10339500Y-4831583D01*
X-10370291Y-4637174D01*
X-10431116Y-4449975D01*
X-10520476Y-4274595D01*
X-10636172Y-4115354D01*
X-10775354Y-3976172D01*
X-10934595Y-3860476D01*
X-11067497Y-3792759D01*
X-11124814Y-3741152D01*
X-11148648Y-3667799D01*
X-11132612Y-3592356D01*
X-11081004Y-3535038D01*
X-11067496Y-3527240D01*
X-10934595Y-3459524D01*
X-10775354Y-3343828D01*
X-10636172Y-3204646D01*
X-10520476Y-3045405D01*
X-10431116Y-2870025D01*
X-10370291Y-2682826D01*
X-10339500Y-2488417D01*
X-10339500Y-2291583D01*
X-10370291Y-2097174D01*
X-10431116Y-1909975D01*
X-10520476Y-1734595D01*
X-10636172Y-1575354D01*
X-10775354Y-1436172D01*
X-10934595Y-1320476D01*
X-11067497Y-1252759D01*
X-11124814Y-1201152D01*
X-11148648Y-1127799D01*
X-11132612Y-1052356D01*
X-11081004Y-995038D01*
X-11067496Y-987240D01*
X-11059198Y-983012D01*
X-10934595Y-919524D01*
X-10775354Y-803828D01*
X-10636172Y-664646D01*
X-10520476Y-505405D01*
X-10431116Y-330025D01*
X-10370291Y-142826D01*
X-10339500Y51583D01*
X-10339500Y248417D01*
X-10370291Y442826D01*
X-10431116Y630025D01*
X-10520476Y805405D01*
X-10636172Y964646D01*
X-10775354Y1103828D01*
X-10934594Y1219524D01*
X-10957913Y1231405D01*
X-11015230Y1283014D01*
X-11039064Y1356368D01*
X-11023028Y1431810D01*
X-10971419Y1489127D01*
X-10957913Y1496925D01*
X-10882445Y1535379D01*
X-10882444Y1535379D01*
X-10710536Y1660278D01*
X-10710533Y1660280D01*
X-10560280Y1810533D01*
X-10560278Y1810536D01*
X-10435379Y1982444D01*
X-10435379Y1982445D01*
X-10338907Y2171778D01*
X-10273244Y2373870D01*
X-10273243Y2373870D01*
X-10270688Y2390000D01*
X-11185856Y2390000D01*
X-11124075Y2497007D01*
X-11090000Y2624174D01*
X-11090000Y2755826D01*
X-11124075Y2882993D01*
X-11185856Y2990000D01*
X-10270689Y2990000D01*
X-10273243Y3006131D01*
X-10338907Y3208223D01*
X-10435379Y3397556D01*
X-10435379Y3397557D01*
X-10560278Y3569465D01*
X-10560280Y3569468D01*
X-10710533Y3719721D01*
X-10710536Y3719723D01*
X-10882444Y3844622D01*
X-10882450Y3844626D01*
X-10957914Y3883077D01*
X-11015231Y3934686D01*
X-11039064Y4008039D01*
X-11023027Y4083482D01*
X-10971418Y4140799D01*
X-10957918Y4148593D01*
X-10934595Y4160476D01*
X-10775354Y4276172D01*
X-10636172Y4415354D01*
X-10520476Y4574595D01*
X-10431116Y4749975D01*
X-10370291Y4937174D01*
X-10339500Y5131583D01*
X-10339500Y5328417D01*
X-10370291Y5522826D01*
X-10431116Y5710025D01*
X-10520476Y5885405D01*
X-10636172Y6044646D01*
X-10775354Y6183828D01*
X-10934595Y6299524D01*
X-11067497Y6367241D01*
X-11124814Y6418848D01*
X-11148648Y6492201D01*
X-11132612Y6567644D01*
X-11081004Y6624962D01*
X-11067496Y6632760D01*
X-10934595Y6700476D01*
X-10775354Y6816172D01*
X-10636172Y6955354D01*
X-10520476Y7114595D01*
X-10431116Y7289975D01*
X-10370291Y7477174D01*
X-10339500Y7671583D01*
X-10339500Y7868417D01*
X-10370291Y8062826D01*
X-10431116Y8250025D01*
X-10520476Y8425405D01*
X-10636172Y8584646D01*
X-10775354Y8723828D01*
X-10934595Y8839524D01*
X-11067497Y8907241D01*
X-11124814Y8958848D01*
X-11148648Y9032201D01*
X-11132612Y9107644D01*
X-11081004Y9164962D01*
X-11067496Y9172760D01*
X-10934595Y9240476D01*
X-10775354Y9356172D01*
X-10636172Y9495354D01*
X-10520476Y9654595D01*
X-10431116Y9829975D01*
X-10370291Y10017174D01*
X-10339500Y10211583D01*
X-10339500Y10408417D01*
X-10370291Y10602826D01*
X-10431116Y10790025D01*
X-10520476Y10965405D01*
X-10636172Y11124646D01*
X-10775354Y11263828D01*
X-10934595Y11379524D01*
X-11067497Y11447241D01*
X-11124814Y11498848D01*
X-11148648Y11572201D01*
X-11132612Y11647644D01*
X-11081004Y11704962D01*
X-11067496Y11712760D01*
X-10934595Y11780476D01*
X-10775354Y11896172D01*
X-10636172Y12035354D01*
X-10520476Y12194595D01*
X-10431116Y12369975D01*
X-10370291Y12557174D01*
X-10339500Y12751583D01*
X-10339500Y12948417D01*
X-10370291Y13142826D01*
X-10431116Y13330025D01*
X-10520476Y13505405D01*
X-10636172Y13664646D01*
X-10775354Y13803828D01*
X-10934595Y13919524D01*
X-11067497Y13987241D01*
X-11124814Y14038848D01*
X-11148648Y14112201D01*
X-11132612Y14187644D01*
X-11081004Y14244962D01*
X-11067496Y14252760D01*
X-10934595Y14320476D01*
X-10775354Y14436172D01*
X-10636172Y14575354D01*
X-10520476Y14734595D01*
X-10431116Y14909975D01*
X-10370291Y15097174D01*
X-10339500Y15291583D01*
X-10339500Y15488417D01*
X-10370291Y15682826D01*
X-10431116Y15870025D01*
X-10520476Y16045405D01*
X-10636172Y16204646D01*
X-10775354Y16343828D01*
X-10934595Y16459524D01*
X-11067497Y16527241D01*
X-11124814Y16578848D01*
X-11148648Y16652201D01*
X-11132612Y16727644D01*
X-11081004Y16784962D01*
X-11067496Y16792760D01*
X-10934595Y16860476D01*
X-10775354Y16976172D01*
X-10636172Y17115354D01*
X-10520476Y17274595D01*
X-10466712Y17380115D01*
X-10415104Y17437431D01*
X-10341751Y17461266D01*
X-10266308Y17445230D01*
X-10228593Y17417829D01*
X-1294141Y8483377D01*
X-1255577Y8416582D01*
X-1250500Y8378018D01*
X-1250500Y-8948126D01*
X-1270462Y-9022626D01*
X-1289657Y-9047640D01*
X-1289467Y-9047796D01*
X-1294117Y-9053461D01*
X-1370773Y-9168184D01*
X-1370776Y-9168190D01*
X-1423580Y-9295670D01*
X-1423581Y-9295674D01*
X-1450500Y-9431006D01*
X-1450500Y-9568993D01*
X-1423581Y-9704325D01*
X-1423580Y-9704329D01*
X-1370776Y-9831809D01*
X-1370773Y-9831815D01*
X-1294117Y-9946538D01*
X-1294114Y-9946542D01*
X-1196542Y-10044114D01*
X-1196539Y-10044116D01*
X-1081816Y-10120772D01*
X-1081814Y-10120773D01*
X-1081811Y-10120775D01*
X-954328Y-10173580D01*
X-818993Y-10200500D01*
X-681007Y-10200500D01*
X-545672Y-10173580D01*
X-418189Y-10120775D01*
X-303458Y-10044114D01*
X-205886Y-9946542D01*
X-129225Y-9831811D01*
X-76420Y-9704328D01*
X-49500Y-9568993D01*
X-49500Y-9431007D01*
X-76420Y-9295672D01*
X-129225Y-9168189D01*
X-149462Y-9137903D01*
X-205884Y-9053461D01*
X-210533Y-9047796D01*
X-209591Y-9047022D01*
X-244423Y-8986690D01*
X-249500Y-8948126D01*
X-249500Y8712942D01*
X-249501Y8712944D01*
X-252417Y8723826D01*
X-274196Y8805108D01*
X-283608Y8840236D01*
X-334789Y8928884D01*
X-349498Y8954361D01*
X-349499Y8954362D01*
X-349500Y8954364D01*
X-9271055Y17875919D01*
X30150000Y17875919D01*
X30150000Y17624082D01*
X30189397Y17375327D01*
X30267221Y17135811D01*
X30381558Y16911416D01*
X30425992Y16850258D01*
X31089978Y17514245D01*
X31129668Y17418426D01*
X31206274Y17303776D01*
X31303776Y17206274D01*
X31418426Y17129668D01*
X31514243Y17089980D01*
X30850256Y16425994D01*
X30850256Y16425992D01*
X30911406Y16381564D01*
X30911415Y16381559D01*
X31135810Y16267222D01*
X31375326Y16189399D01*
X31375326Y16189398D01*
X31624082Y16150000D01*
X31875918Y16150000D01*
X32124673Y16189398D01*
X32124673Y16189399D01*
X32364189Y16267222D01*
X32588584Y16381558D01*
X32588584Y16381559D01*
X32649742Y16425993D01*
X32649743Y16425993D01*
X31985756Y17089980D01*
X32081574Y17129668D01*
X32196224Y17206274D01*
X32293726Y17303776D01*
X32370332Y17418426D01*
X32410020Y17514244D01*
X33074007Y16850257D01*
X33074007Y16850258D01*
X33118441Y16911416D01*
X33118442Y16911416D01*
X33232778Y17135811D01*
X33310601Y17375327D01*
X33310602Y17375327D01*
X33350000Y17624082D01*
X33350000Y17875919D01*
X33310602Y18124674D01*
X33232778Y18364190D01*
X33118441Y18588585D01*
X33118436Y18588594D01*
X33074008Y18649744D01*
X33074006Y18649744D01*
X32410020Y17985758D01*
X32370332Y18081574D01*
X32293726Y18196224D01*
X32196224Y18293726D01*
X32081574Y18370332D01*
X31985755Y18410022D01*
X32649742Y19074008D01*
X32649742Y19074009D01*
X32588584Y19118442D01*
X32364189Y19232779D01*
X32124673Y19310602D01*
X32124673Y19310603D01*
X31875918Y19350000D01*
X31624082Y19350000D01*
X31375326Y19310603D01*
X31375326Y19310602D01*
X31135810Y19232779D01*
X30911416Y19118443D01*
X30850256Y19074009D01*
X31514243Y18410021D01*
X31418426Y18370332D01*
X31303776Y18293726D01*
X31206274Y18196224D01*
X31129668Y18081574D01*
X31089979Y17985757D01*
X30425991Y18649744D01*
X30381557Y18588584D01*
X30267221Y18364190D01*
X30189398Y18124674D01*
X30189397Y18124674D01*
X30150000Y17875919D01*
X-9271055Y17875919D01*
X-10737973Y19342837D01*
X-10776537Y19409632D01*
X-10776537Y19486760D01*
X-10737976Y19553551D01*
X-10636172Y19655354D01*
X-10520476Y19814595D01*
X-10431116Y19989975D01*
X-10370291Y20177174D01*
X-10339500Y20371583D01*
X-10339500Y20568417D01*
X-10370291Y20762826D01*
X-10431116Y20950025D01*
X-10520476Y21125405D01*
X-10636172Y21284646D01*
X-10775354Y21423828D01*
X-10934594Y21539524D01*
X-10957913Y21551405D01*
X-11015230Y21603014D01*
X-11039064Y21676368D01*
X-11023028Y21751810D01*
X-10971419Y21809127D01*
X-10957913Y21816925D01*
X-10882445Y21855379D01*
X-10882444Y21855379D01*
X-10710536Y21980278D01*
X-10710533Y21980280D01*
X-10560280Y22130533D01*
X-10560278Y22130536D01*
X-10435379Y22302444D01*
X-10435379Y22302445D01*
X-10338907Y22491778D01*
X-10273244Y22693870D01*
X-10273243Y22693870D01*
X-10270688Y22710000D01*
X-11185856Y22710000D01*
X-11124075Y22817007D01*
X-11090000Y22944174D01*
X-11090000Y23075826D01*
X-11124075Y23202993D01*
X-11185856Y23310000D01*
X-10270689Y23310000D01*
X-10273243Y23326131D01*
X-10338907Y23528223D01*
X-10435379Y23717556D01*
X-10435379Y23717557D01*
X-10560278Y23889465D01*
X-10560280Y23889468D01*
X-10710533Y24039721D01*
X-10710536Y24039723D01*
X-10882444Y24164622D01*
X-10882450Y24164626D01*
X-10957914Y24203077D01*
X-11015231Y24254686D01*
X-11039064Y24328039D01*
X-11023027Y24403482D01*
X-10971418Y24460799D01*
X-10957918Y24468593D01*
X-10934595Y24480476D01*
X-10775354Y24596172D01*
X-10636172Y24735354D01*
X-10520476Y24894595D01*
X-10431116Y25069975D01*
X-10370291Y25257174D01*
X-10339500Y25451583D01*
X-10339500Y25648417D01*
X-10370291Y25842826D01*
X-10431116Y26030025D01*
X-10432807Y26033343D01*
X-10488480Y26142608D01*
X-10520476Y26205405D01*
X-10636172Y26364646D01*
X-10775354Y26503828D01*
X-10934595Y26619524D01*
X-11067497Y26687241D01*
X-11124814Y26738848D01*
X-11148648Y26812201D01*
X-11132612Y26887644D01*
X-11081004Y26944962D01*
X-11067496Y26952760D01*
X-11047026Y26963190D01*
X-10934595Y27020476D01*
X-10775354Y27136172D01*
X-10636172Y27275354D01*
X-10520476Y27434595D01*
X-10483001Y27508145D01*
X-10431393Y27565462D01*
X-10358039Y27589296D01*
X-10350241Y27589500D01*
X24640968Y27589500D01*
X24715468Y27569538D01*
X24746327Y27545859D01*
X30321050Y21971136D01*
X30359614Y21904341D01*
X30359614Y21827213D01*
X30357398Y21819734D01*
X30286447Y21601371D01*
X30286447Y21601369D01*
X30286447Y21601368D01*
X30249500Y21368092D01*
X30249500Y21131908D01*
X30286447Y20898632D01*
X30359432Y20674008D01*
X30466657Y20463567D01*
X30605483Y20272490D01*
X30772490Y20105483D01*
X30963567Y19966657D01*
X31174008Y19859432D01*
X31398632Y19786447D01*
X31631908Y19749500D01*
X31631913Y19749500D01*
X31868087Y19749500D01*
X31868092Y19749500D01*
X32101368Y19786447D01*
X32325992Y19859432D01*
X32536433Y19966657D01*
X32727510Y20105483D01*
X32894517Y20272490D01*
X33033343Y20463567D01*
X33140568Y20674008D01*
X33213553Y20898632D01*
X33250500Y21131908D01*
X33250500Y21368092D01*
X33213553Y21601368D01*
X33140568Y21825992D01*
X33033343Y22036433D01*
X32894517Y22227510D01*
X32727510Y22394517D01*
X32536433Y22533343D01*
X32325992Y22640568D01*
X32101368Y22713553D01*
X31868092Y22750500D01*
X31631908Y22750500D01*
X31454768Y22722444D01*
X31398631Y22713553D01*
X31398629Y22713553D01*
X31180266Y22642602D01*
X31103244Y22638565D01*
X31034522Y22673581D01*
X31028864Y22678950D01*
X28236660Y25471154D01*
X25350570Y28357244D01*
X25312008Y28424036D01*
X25312008Y28501164D01*
X25350572Y28567959D01*
X25417367Y28606523D01*
X25455931Y28611600D01*
X27118964Y28611600D01*
X27193464Y28591638D01*
X27224323Y28567959D01*
X27849536Y27942731D01*
X27849537Y27942730D01*
X29943198Y25849021D01*
X30321057Y25471154D01*
X30359620Y25404358D01*
X30359620Y25327230D01*
X30357404Y25319753D01*
X30286447Y25101371D01*
X30286447Y25101369D01*
X30286120Y25099306D01*
X30249500Y24868092D01*
X30249500Y24631908D01*
X30286447Y24398632D01*
X30359432Y24174008D01*
X30466657Y23963567D01*
X30605483Y23772490D01*
X30772490Y23605483D01*
X30963567Y23466657D01*
X31174008Y23359432D01*
X31398632Y23286447D01*
X31631908Y23249500D01*
X31631913Y23249500D01*
X31868087Y23249500D01*
X31868092Y23249500D01*
X32101368Y23286447D01*
X32325992Y23359432D01*
X32536433Y23466657D01*
X32727510Y23605483D01*
X32894517Y23772490D01*
X33033343Y23963567D01*
X33140568Y24174008D01*
X33213553Y24398632D01*
X33250500Y24631908D01*
X33250500Y24868092D01*
X33213553Y25101368D01*
X33140568Y25325992D01*
X33033343Y25536433D01*
X32894517Y25727510D01*
X32727510Y25894517D01*
X32536433Y26033343D01*
X32325992Y26140568D01*
X32101368Y26213553D01*
X31868092Y26250500D01*
X31631908Y26250500D01*
X31437511Y26219711D01*
X31398631Y26213553D01*
X31398629Y26213553D01*
X31180285Y26142608D01*
X31103263Y26138571D01*
X31034542Y26173586D01*
X31028882Y26178957D01*
X29736449Y27471419D01*
X28839797Y28368092D01*
X30249500Y28368092D01*
X30249500Y28131908D01*
X30286447Y27898632D01*
X30359432Y27674008D01*
X30466657Y27463567D01*
X30605483Y27272490D01*
X30772490Y27105483D01*
X30963567Y26966657D01*
X31174008Y26859432D01*
X31398632Y26786447D01*
X31631908Y26749500D01*
X31631913Y26749500D01*
X31868087Y26749500D01*
X31868092Y26749500D01*
X32101368Y26786447D01*
X32325992Y26859432D01*
X32536433Y26966657D01*
X32727510Y27105483D01*
X32894517Y27272490D01*
X33033343Y27463567D01*
X33140568Y27674008D01*
X33213553Y27898632D01*
X33250500Y28131908D01*
X33250500Y28368092D01*
X33213553Y28601368D01*
X33140568Y28825992D01*
X33033343Y29036433D01*
X32894517Y29227510D01*
X32727510Y29394517D01*
X32536433Y29533343D01*
X32325992Y29640568D01*
X32101368Y29713553D01*
X31868092Y29750500D01*
X31631908Y29750500D01*
X31398632Y29713553D01*
X31174008Y29640568D01*
X31174002Y29640566D01*
X31174002Y29640565D01*
X30963565Y29533342D01*
X30772499Y29394524D01*
X30772488Y29394515D01*
X30605485Y29227512D01*
X30605476Y29227501D01*
X30466658Y29036435D01*
X30359435Y28825998D01*
X30359430Y28825986D01*
X30333248Y28745407D01*
X30286447Y28601368D01*
X30249500Y28368092D01*
X28839797Y28368092D01*
X28557359Y28650536D01*
X28557357Y28650538D01*
X28542895Y28665000D01*
X27796995Y29410918D01*
X27788500Y29419413D01*
X27788500Y29419414D01*
X27736798Y29471116D01*
X27695319Y29512596D01*
X27695318Y29512597D01*
X27695317Y29512598D01*
X27695312Y29512601D01*
X27612391Y29560476D01*
X27612388Y29560478D01*
X27581191Y29578491D01*
X27514904Y29596252D01*
X27514903Y29596253D01*
X27458204Y29611445D01*
X27454906Y29612436D01*
X27453895Y29612600D01*
X27453894Y29612600D01*
X27388006Y29612600D01*
X27322113Y29612601D01*
X27322109Y29612600D01*
X-8651368Y29612600D01*
X-8725868Y29632562D01*
X-8756727Y29656241D01*
X-9437661Y30337175D01*
X-10130986Y31030500D01*
X-10130989Y31030502D01*
X-10130990Y31030503D01*
X-10201786Y31071377D01*
X-10245114Y31096392D01*
X-10372408Y31130500D01*
X-10381842Y31133028D01*
X-10381264Y31135187D01*
X-10399215Y31142624D01*
X-10430502Y31152790D01*
X-10434518Y31157250D01*
X-10440065Y31159548D01*
X-10482110Y31210107D01*
X-10493701Y31232856D01*
X-10509737Y31308299D01*
X-10485902Y31381652D01*
X-10428585Y31433260D01*
X-10360941Y31449500D01*
X-8871243Y31449500D01*
X-8796743Y31429538D01*
X-8765884Y31405859D01*
X-8669515Y31309490D01*
X-8543985Y31237016D01*
X-8403975Y31199500D01*
X30255135Y31199500D01*
X30329635Y31179538D01*
X30384173Y31125000D01*
X30387895Y31118145D01*
X30420855Y31053458D01*
X30466657Y30963567D01*
X30605483Y30772490D01*
X30772490Y30605483D01*
X30963567Y30466657D01*
X31174008Y30359432D01*
X31398632Y30286447D01*
X31631908Y30249500D01*
X31631913Y30249500D01*
X31868087Y30249500D01*
X31868092Y30249500D01*
X32101368Y30286447D01*
X32325992Y30359432D01*
X32536433Y30466657D01*
X32727510Y30605483D01*
X32894517Y30772490D01*
X33033343Y30963567D01*
X33140568Y31174008D01*
X33213553Y31398632D01*
X33250500Y31631908D01*
X33250500Y31868092D01*
X33213553Y32101368D01*
X33140568Y32325992D01*
X33033343Y32536433D01*
X32894517Y32727510D01*
X32727510Y32894517D01*
X32536433Y33033343D01*
X32325992Y33140568D01*
X32101368Y33213553D01*
X31868092Y33250500D01*
X31631908Y33250500D01*
X31398632Y33213553D01*
X31201492Y33149498D01*
X31174008Y33140568D01*
X31174002Y33140566D01*
X31174002Y33140565D01*
X30963565Y33033342D01*
X30772499Y32894524D01*
X30772488Y32894515D01*
X30605485Y32727512D01*
X30605476Y32727501D01*
X30466658Y32536435D01*
X30466657Y32536435D01*
X30387895Y32381855D01*
X30336286Y32324538D01*
X30262932Y32300704D01*
X30255135Y32300500D01*
X-8041757Y32300500D01*
X-8116257Y32320462D01*
X-8147116Y32344141D01*
X-8243485Y32440510D01*
X-8369015Y32512984D01*
X-8456527Y32536433D01*
X-8456529Y32536434D01*
X-8456531Y32536435D01*
X-8509023Y32550500D01*
X-8509025Y32550500D01*
X-10271354Y32550500D01*
X-10345854Y32570462D01*
X-10400392Y32625000D01*
X-10420354Y32699500D01*
X-10413062Y32745541D01*
X-10370291Y32877174D01*
X-10339500Y33071583D01*
X-10339500Y33268417D01*
X-10370291Y33462826D01*
X-10431116Y33650025D01*
X-10520476Y33825405D01*
X-10636172Y33984646D01*
X-10775354Y34123828D01*
X-10934595Y34239524D01*
X-10944990Y34244821D01*
X-11109964Y34328879D01*
X-11109970Y34328881D01*
X-11109975Y34328884D01*
X-11297174Y34389709D01*
X-11491583Y34420500D01*
X-11688417Y34420500D01*
X-11882826Y34389709D01*
X-12011038Y34348050D01*
X-12070025Y34328884D01*
X-12070028Y34328883D01*
X-12070037Y34328879D01*
X-12245402Y34239526D01*
X-12245407Y34239523D01*
X-12404637Y34123835D01*
X-12404648Y34123826D01*
X-12543831Y33984643D01*
X-12609958Y33893626D01*
X-12669898Y33845088D01*
X-12746077Y33833023D01*
X-12818082Y33860664D01*
X-12866620Y33920604D01*
X-12879501Y33981207D01*
X-12879501Y34051519D01*
X-12890953Y34123828D01*
X-12894354Y34145304D01*
X-12951950Y34258342D01*
X-13041658Y34348050D01*
X-13154695Y34405646D01*
X-13173947Y34408695D01*
X-13248481Y34420500D01*
X-13248486Y34420500D01*
X-15011519Y34420500D01*
X-15105305Y34405646D01*
X-15105307Y34405645D01*
X-15218343Y34348050D01*
X-15308050Y34258343D01*
X-15365646Y34145306D01*
X-15369048Y34123826D01*
X-15380500Y34051519D01*
X-15380500Y34051518D01*
X-15380500Y34051515D01*
X-15380500Y32288482D01*
X-15366565Y32200500D01*
X-15365646Y32194696D01*
X-15308050Y32081658D01*
X-15218342Y31991950D01*
X-15111855Y31937692D01*
X-15108876Y31935010D01*
X-15105000Y31933971D01*
X-15080397Y31909368D01*
X-15054538Y31886085D01*
X-15053299Y31882270D01*
X-15050462Y31879433D01*
X-15041458Y31845826D01*
X-15030704Y31812731D01*
X-15030500Y31804933D01*
X-15030500Y31559692D01*
X-15050462Y31485192D01*
X-15074137Y31454337D01*
X-15083828Y31444646D01*
X-15083832Y31444641D01*
X-15083835Y31444637D01*
X-15199523Y31285407D01*
X-15199526Y31285402D01*
X-15288879Y31110037D01*
X-15288886Y31110019D01*
X-15324634Y30999999D01*
X-15349709Y30922826D01*
X-15380500Y30728417D01*
X-15380500Y30531583D01*
X-15349709Y30337174D01*
X-15288884Y30149975D01*
X-15288881Y30149970D01*
X-15288879Y30149964D01*
X-15235930Y30046046D01*
X-15199524Y29974595D01*
X-15083828Y29815354D01*
X-14944646Y29676172D01*
X-14785405Y29560476D01*
X-14762087Y29548595D01*
X-14704772Y29496988D01*
X-14680937Y29423635D01*
X-14696972Y29348192D01*
X-14748581Y29290875D01*
X-14762086Y29283077D01*
X-14837556Y29244623D01*
X-14837557Y29244622D01*
X-15009465Y29119723D01*
X-15009468Y29119721D01*
X-15159721Y28969468D01*
X-15159723Y28969465D01*
X-15284622Y28797557D01*
X-15284622Y28797556D01*
X-15381094Y28608223D01*
X-15446757Y28406131D01*
X-15446758Y28406131D01*
X-15449312Y28390000D01*
X-14534144Y28390000D01*
X-14595925Y28282993D01*
X-14630000Y28155826D01*
X-14630000Y28024174D01*
X-14595925Y27897007D01*
X-14534144Y27790000D01*
X-15449757Y27790000D01*
X-15524257Y27809962D01*
X-15555116Y27833641D01*
X-15753859Y28032384D01*
X-15792423Y28099179D01*
X-15797500Y28137743D01*
X-15797500Y29420475D01*
X-15835016Y29560485D01*
X-15845412Y29578492D01*
X-15864437Y29611444D01*
X-15907486Y29686008D01*
X-15907489Y29686012D01*
X-15907490Y29686014D01*
X-17769783Y31548308D01*
X-17808347Y31615103D01*
X-17810561Y31624599D01*
X-17826420Y31704326D01*
X-17826421Y31704330D01*
X-17879225Y31831811D01*
X-17888590Y31845826D01*
X-17955884Y31946539D01*
X-17955886Y31946542D01*
X-18053458Y32044114D01*
X-18053462Y32044117D01*
X-18168185Y32120773D01*
X-18168191Y32120776D01*
X-18295671Y32173580D01*
X-18295675Y32173581D01*
X-18431007Y32200500D01*
X-18568993Y32200500D01*
X-18704326Y32173581D01*
X-18704330Y32173580D01*
X-18831810Y32120776D01*
X-18831816Y32120773D01*
X-18946539Y32044117D01*
X-18946546Y32044111D01*
X-19044111Y31946546D01*
X-19044117Y31946539D01*
X-19120773Y31831816D01*
X-19120776Y31831810D01*
X-19173580Y31704330D01*
X-19173581Y31704326D01*
X-19200500Y31568994D01*
X-19200500Y31431007D01*
X-19173581Y31295675D01*
X-19173580Y31295671D01*
X-19120776Y31168191D01*
X-19120775Y31168187D01*
X-19063707Y31082780D01*
X-19038915Y31009745D01*
X-19053962Y30934099D01*
X-19063707Y30917220D01*
X-19120775Y30831814D01*
X-19120776Y30831810D01*
X-19173580Y30704330D01*
X-19173581Y30704326D01*
X-19200500Y30568994D01*
X-19200500Y30431007D01*
X-19173581Y30295675D01*
X-19173580Y30295671D01*
X-19120776Y30168191D01*
X-19120775Y30168187D01*
X-19063707Y30082780D01*
X-19038915Y30009745D01*
X-19053962Y29934099D01*
X-19063707Y29917220D01*
X-19120775Y29831814D01*
X-19120776Y29831810D01*
X-19173580Y29704330D01*
X-19173581Y29704326D01*
X-19200500Y29568994D01*
X-19200500Y29431007D01*
X-19173581Y29295675D01*
X-19173580Y29295671D01*
X-19120776Y29168191D01*
X-19120773Y29168185D01*
X-19088391Y29119723D01*
X-19044114Y29053458D01*
X-18946542Y28955886D01*
X-18946539Y28955884D01*
X-18831816Y28879228D01*
X-18831814Y28879227D01*
X-18831811Y28879225D01*
X-18704328Y28826420D01*
X-18624599Y28810561D01*
X-18555425Y28776448D01*
X-18548308Y28769783D01*
X-17844141Y28065616D01*
X-17805577Y27998821D01*
X-17800500Y27960257D01*
X-17800500Y26177524D01*
X-17793321Y26150735D01*
X-17793320Y26150731D01*
X-17762984Y26037515D01*
X-17690510Y25911985D01*
X-16094141Y24315616D01*
X-16055577Y24248821D01*
X-16050500Y24210257D01*
X-16050500Y23118032D01*
X-16070462Y23043532D01*
X-16125000Y22988994D01*
X-16199500Y22969032D01*
X-16274000Y22988994D01*
X-16304859Y23012673D01*
X-21246146Y27953960D01*
X-26192681Y32900495D01*
X-26192684Y32900497D01*
X-26192685Y32900498D01*
X-26263481Y32941372D01*
X-26306809Y32966387D01*
X-26434103Y33000495D01*
X-30900473Y33000495D01*
X-30910090Y33000496D01*
X-30910108Y33000500D01*
X-31041892Y33000500D01*
X-31041899Y33000498D01*
X-32104800Y33000498D01*
X-32179300Y33020460D01*
X-32233838Y33074998D01*
X-32253800Y33149498D01*
X-32253801Y33849015D01*
X-32255749Y33861310D01*
X-32268654Y33942800D01*
X-32268656Y33942803D01*
X-32268656Y33942806D01*
X-32272279Y33953959D01*
X-32276313Y34030982D01*
X-32272276Y34046044D01*
X-32268655Y34057188D01*
X-32268655Y34057189D01*
X-32268654Y34057190D01*
X-32253800Y34150975D01*
X-32253801Y34548541D01*
X1199500Y34548541D01*
X1199500Y34351459D01*
X1212257Y34287321D01*
X1237948Y34158166D01*
X1237949Y34158164D01*
X1313367Y33976088D01*
X1313368Y33976085D01*
X1335605Y33942806D01*
X1422861Y33812218D01*
X1562218Y33672861D01*
X1671215Y33600032D01*
X1726084Y33563369D01*
X1726085Y33563369D01*
X1726086Y33563368D01*
X1908165Y33487949D01*
X2101459Y33449500D01*
X2101460Y33449500D01*
X2298540Y33449500D01*
X2298541Y33449500D01*
X2491835Y33487949D01*
X2673914Y33563368D01*
X2837782Y33672861D01*
X2977139Y33812218D01*
X3086632Y33976086D01*
X3162051Y34158165D01*
X3200500Y34351459D01*
X3200500Y34548541D01*
X3162051Y34741835D01*
X3086632Y34923914D01*
X2977139Y35087782D01*
X2837782Y35227139D01*
X2766153Y35275000D01*
X2673915Y35336632D01*
X2673912Y35336633D01*
X2491836Y35412051D01*
X2491834Y35412052D01*
X2336989Y35442853D01*
X2298541Y35450500D01*
X2101459Y35450500D01*
X2069389Y35444122D01*
X1908165Y35412052D01*
X1908163Y35412051D01*
X1726087Y35336633D01*
X1726084Y35336632D01*
X1562219Y35227140D01*
X1562214Y35227136D01*
X1422864Y35087786D01*
X1422860Y35087781D01*
X1313368Y34923916D01*
X1313367Y34923913D01*
X1237949Y34741837D01*
X1237948Y34741835D01*
X1205878Y34580611D01*
X1199500Y34548541D01*
X-32253801Y34548541D01*
X-32253801Y34833567D01*
X-32233839Y34908066D01*
X-32224079Y34922862D01*
X-32210947Y34940404D01*
X-32160702Y35075115D01*
X-32154302Y35134650D01*
X-32154300Y35134670D01*
X-32154300Y35199992D01*
X-32497394Y35199992D01*
X-32520702Y35201826D01*
X-32528995Y35203140D01*
X-32528996Y35203140D01*
X-32622781Y35217994D01*
X-32622786Y35217994D01*
X-34489219Y35217994D01*
X-34551433Y35208141D01*
X-34583004Y35203140D01*
X-34583006Y35203140D01*
X-34588089Y35202334D01*
X-34611397Y35200500D01*
X-37950500Y35200500D01*
X-38025000Y35220462D01*
X-38079538Y35275000D01*
X-38099500Y35349500D01*
X-38099500Y35588692D01*
X-38134106Y35762664D01*
X-38134107Y35762668D01*
X-38154661Y35812291D01*
X-38176624Y35865315D01*
X-34957700Y35865315D01*
X-34957700Y35799992D01*
X-33856000Y35799992D01*
X-33856000Y36317492D01*
X-34505523Y36317492D01*
X-34505543Y36317491D01*
X-34565078Y36311091D01*
X-34699785Y36260847D01*
X-34699795Y36260842D01*
X-34814888Y36174683D01*
X-34814891Y36174680D01*
X-34901050Y36059587D01*
X-34901055Y36059577D01*
X-34951299Y35924870D01*
X-34957699Y35865335D01*
X-34957700Y35865315D01*
X-38176624Y35865315D01*
X-38201987Y35926547D01*
X-38201988Y35926549D01*
X-38300534Y36074032D01*
X-38300538Y36074037D01*
X-38425964Y36199463D01*
X-38425969Y36199467D01*
X-38573452Y36298013D01*
X-38573454Y36298014D01*
X-38737333Y36365894D01*
X-38737337Y36365895D01*
X-38911309Y36400500D01*
X-39088691Y36400500D01*
X-39262664Y36365895D01*
X-39262668Y36365894D01*
X-39293483Y36353130D01*
X-39369951Y36343064D01*
X-39441208Y36372581D01*
X-39488159Y36433772D01*
X-39499500Y36490789D01*
X-39499500Y36506763D01*
X-33384599Y36506763D01*
X-33380914Y36472493D01*
X-33370674Y36463295D01*
X-33330500Y36452530D01*
X-33275962Y36397992D01*
X-33256000Y36323492D01*
X-33256000Y35799992D01*
X-32154300Y35799992D01*
X-32154300Y35865315D01*
X-32154302Y35865335D01*
X-32156918Y35889676D01*
X-32145034Y35965883D01*
X-32096638Y36025938D01*
X-32024699Y36053749D01*
X-32008772Y36054603D01*
X-31685999Y36054603D01*
X-31085999Y36054603D01*
X-29839576Y36054603D01*
X-29839557Y36054605D01*
X-29780022Y36061005D01*
X-29645315Y36111249D01*
X-29645305Y36111254D01*
X-29530212Y36197413D01*
X-29530209Y36197416D01*
X-29444050Y36312509D01*
X-29444045Y36312519D01*
X-29393801Y36447226D01*
X-29387401Y36506761D01*
X-29387399Y36506781D01*
X-29387399Y37550003D01*
X-31085999Y37550003D01*
X-31085999Y36054603D01*
X-31685999Y36054603D01*
X-31685999Y37550003D01*
X-33384599Y37550003D01*
X-33384599Y36506763D01*
X-39499500Y36506763D01*
X-39499500Y39193226D01*
X-33384599Y39193226D01*
X-33384599Y38150003D01*
X-31685999Y38150003D01*
X-31085999Y38150003D01*
X-29387399Y38150003D01*
X-29387399Y38224571D01*
X-14740500Y38224571D01*
X-14740500Y37975430D01*
X-14707984Y37728443D01*
X-14707983Y37728437D01*
X-14707982Y37728435D01*
X-14643502Y37487793D01*
X-14568496Y37306712D01*
X-14548162Y37257623D01*
X-14465121Y37113791D01*
X-14423599Y37041873D01*
X-14271938Y36844224D01*
X-14095776Y36668062D01*
X-13898127Y36516401D01*
X-13682373Y36391836D01*
X-13452207Y36296498D01*
X-13211565Y36232018D01*
X-13211559Y36232018D01*
X-13211558Y36232017D01*
X-13144414Y36223178D01*
X-12964565Y36199500D01*
X-12715435Y36199500D01*
X-12468435Y36232018D01*
X-12227793Y36296498D01*
X-11997627Y36391836D01*
X-11781873Y36516401D01*
X-11584224Y36668062D01*
X-11408062Y36844224D01*
X-11256401Y37041873D01*
X-11131836Y37257627D01*
X-11036498Y37487793D01*
X-10972018Y37728435D01*
X-10939500Y37975435D01*
X-10939500Y38224565D01*
X-10939501Y38224571D01*
X8259500Y38224571D01*
X8259500Y37975430D01*
X8292016Y37728443D01*
X8292017Y37728437D01*
X8292018Y37728435D01*
X8356498Y37487793D01*
X8431504Y37306712D01*
X8451838Y37257623D01*
X8534879Y37113791D01*
X8576401Y37041873D01*
X8728062Y36844224D01*
X8904224Y36668062D01*
X9101873Y36516401D01*
X9317627Y36391836D01*
X9547793Y36296498D01*
X9788435Y36232018D01*
X9788441Y36232018D01*
X9788442Y36232017D01*
X9855586Y36223178D01*
X10035435Y36199500D01*
X10284565Y36199500D01*
X10531565Y36232018D01*
X10772207Y36296498D01*
X11002373Y36391836D01*
X11218127Y36516401D01*
X11415776Y36668062D01*
X11591938Y36844224D01*
X11743599Y37041873D01*
X11868164Y37257627D01*
X11963502Y37487793D01*
X12027982Y37728435D01*
X12060500Y37975435D01*
X12060500Y38224565D01*
X12060499Y38224571D01*
X34259500Y38224571D01*
X34259500Y37975430D01*
X34292016Y37728443D01*
X34292017Y37728437D01*
X34292018Y37728435D01*
X34356498Y37487793D01*
X34431504Y37306712D01*
X34451838Y37257623D01*
X34534879Y37113791D01*
X34576401Y37041873D01*
X34728062Y36844224D01*
X34904224Y36668062D01*
X35101873Y36516401D01*
X35317627Y36391836D01*
X35547793Y36296498D01*
X35788435Y36232018D01*
X35788441Y36232018D01*
X35788442Y36232017D01*
X35855586Y36223178D01*
X36035435Y36199500D01*
X36284565Y36199500D01*
X36531565Y36232018D01*
X36772207Y36296498D01*
X37002373Y36391836D01*
X37218127Y36516401D01*
X37415776Y36668062D01*
X37591938Y36844224D01*
X37743599Y37041873D01*
X37868164Y37257627D01*
X37963502Y37487793D01*
X38027982Y37728435D01*
X38060500Y37975435D01*
X38060500Y38224565D01*
X38027982Y38471565D01*
X37963502Y38712207D01*
X37868164Y38942373D01*
X37743599Y39158127D01*
X37591938Y39355776D01*
X37415776Y39531938D01*
X37218127Y39683599D01*
X37146209Y39725121D01*
X37002377Y39808162D01*
X37002375Y39808163D01*
X37002373Y39808164D01*
X36786328Y39897653D01*
X36772210Y39903501D01*
X36772208Y39903502D01*
X36772207Y39903502D01*
X36531565Y39967982D01*
X36531563Y39967983D01*
X36531557Y39967984D01*
X36284570Y40000500D01*
X36284565Y40000500D01*
X36035435Y40000500D01*
X36035429Y40000500D01*
X35788442Y39967984D01*
X35547789Y39903501D01*
X35317622Y39808162D01*
X35101874Y39683600D01*
X34904222Y39531937D01*
X34728063Y39355778D01*
X34576400Y39158126D01*
X34451838Y38942378D01*
X34356499Y38712211D01*
X34292016Y38471558D01*
X34259500Y38224571D01*
X12060499Y38224571D01*
X12027982Y38471565D01*
X11963502Y38712207D01*
X11868164Y38942373D01*
X11743599Y39158127D01*
X11591938Y39355776D01*
X11415776Y39531938D01*
X11218127Y39683599D01*
X11146209Y39725121D01*
X11002377Y39808162D01*
X11002375Y39808163D01*
X11002373Y39808164D01*
X10786328Y39897653D01*
X10772210Y39903501D01*
X10772208Y39903502D01*
X10772207Y39903502D01*
X10531565Y39967982D01*
X10531563Y39967983D01*
X10531557Y39967984D01*
X10284570Y40000500D01*
X10284565Y40000500D01*
X10035435Y40000500D01*
X10035429Y40000500D01*
X9788442Y39967984D01*
X9547789Y39903501D01*
X9317622Y39808162D01*
X9101874Y39683600D01*
X8904222Y39531937D01*
X8728063Y39355778D01*
X8576400Y39158126D01*
X8451838Y38942378D01*
X8356499Y38712211D01*
X8292016Y38471558D01*
X8259500Y38224571D01*
X-10939501Y38224571D01*
X-10972018Y38471565D01*
X-11036498Y38712207D01*
X-11131836Y38942373D01*
X-11256401Y39158127D01*
X-11408062Y39355776D01*
X-11584224Y39531938D01*
X-11781873Y39683599D01*
X-11853791Y39725121D01*
X-11997623Y39808162D01*
X-11997625Y39808163D01*
X-11997627Y39808164D01*
X-12213672Y39897653D01*
X-12227790Y39903501D01*
X-12227792Y39903502D01*
X-12227793Y39903502D01*
X-12468435Y39967982D01*
X-12468440Y39967983D01*
X-12468445Y39967984D01*
X-12715430Y40000500D01*
X-12715435Y40000500D01*
X-12964565Y40000500D01*
X-12964571Y40000500D01*
X-13211558Y39967984D01*
X-13452211Y39903501D01*
X-13682378Y39808162D01*
X-13898126Y39683600D01*
X-14095778Y39531937D01*
X-14271937Y39355778D01*
X-14423600Y39158126D01*
X-14548162Y38942378D01*
X-14643501Y38712211D01*
X-14707984Y38471558D01*
X-14740500Y38224571D01*
X-29387399Y38224571D01*
X-29387399Y39193226D01*
X-29387401Y39193246D01*
X-29393801Y39252781D01*
X-29444045Y39387488D01*
X-29444050Y39387498D01*
X-29530209Y39502591D01*
X-29530212Y39502594D01*
X-29645305Y39588753D01*
X-29645315Y39588758D01*
X-29780023Y39639002D01*
X-29780021Y39639002D01*
X-29839557Y39645402D01*
X-29839576Y39645403D01*
X-31085999Y39645403D01*
X-31085999Y38150003D01*
X-31685999Y38150003D01*
X-31685999Y39645403D01*
X-32932422Y39645403D01*
X-32932442Y39645402D01*
X-32991977Y39639002D01*
X-33126684Y39588758D01*
X-33126694Y39588753D01*
X-33241787Y39502594D01*
X-33241790Y39502591D01*
X-33327949Y39387498D01*
X-33327954Y39387488D01*
X-33378198Y39252781D01*
X-33384598Y39193246D01*
X-33384599Y39193226D01*
X-39499500Y39193226D01*
X-39499500Y40098540D01*
X-8400500Y40098540D01*
X-8400500Y39901461D01*
X-8362052Y39708166D01*
X-8362051Y39708164D01*
X-8286633Y39526088D01*
X-8286632Y39526085D01*
X-8269202Y39500000D01*
X-8177139Y39362218D01*
X-8037782Y39222861D01*
X-7940901Y39158127D01*
X-7873916Y39113369D01*
X-7873915Y39113369D01*
X-7873914Y39113368D01*
X-7691835Y39037949D01*
X-7498541Y38999500D01*
X-7498540Y38999500D01*
X-7301460Y38999500D01*
X-7301459Y38999500D01*
X-7108165Y39037949D01*
X-6926086Y39113368D01*
X-6762218Y39222861D01*
X-6622861Y39362218D01*
X-6513368Y39526086D01*
X-6437949Y39708165D01*
X-6399500Y39901459D01*
X-6399500Y40098541D01*
X-6401815Y40110178D01*
X-2400000Y40110178D01*
X-2400000Y39889823D01*
X-2365526Y39672160D01*
X-2297433Y39462594D01*
X-2297429Y39462582D01*
X-2197386Y39266239D01*
X-2180824Y39243443D01*
X-2180823Y39243442D01*
X-1497907Y39926360D01*
X-1465925Y39807007D01*
X-1400099Y39692993D01*
X-1307007Y39599901D01*
X-1192993Y39534075D01*
X-1073642Y39502095D01*
X-1756559Y38819178D01*
X-1733764Y38802616D01*
X-1733762Y38802615D01*
X-1537419Y38702572D01*
X-1537407Y38702568D01*
X-1327840Y38634475D01*
X-1327841Y38634475D01*
X-1110177Y38600000D01*
X-889823Y38600000D01*
X-672160Y38634475D01*
X-462594Y38702568D01*
X-462577Y38702575D01*
X-266249Y38802608D01*
X-266238Y38802615D01*
X-243443Y38819178D01*
X-243443Y38819179D01*
X-926359Y39502095D01*
X-807007Y39534075D01*
X-692993Y39599901D01*
X-599901Y39692993D01*
X-534075Y39807007D01*
X-502095Y39926359D01*
X180821Y39243443D01*
X180822Y39243443D01*
X197385Y39266238D01*
X197392Y39266249D01*
X297425Y39462577D01*
X297432Y39462594D01*
X365525Y39672160D01*
X400000Y39889823D01*
X400000Y40102352D01*
X5449500Y40102352D01*
X5449500Y39897648D01*
X5481523Y39695466D01*
X5534656Y39531938D01*
X5544778Y39500788D01*
X5544782Y39500776D01*
X5637714Y39318388D01*
X5758028Y39152788D01*
X5758035Y39152780D01*
X5902779Y39008036D01*
X5902787Y39008029D01*
X6068387Y38887715D01*
X6068390Y38887713D01*
X6250781Y38794780D01*
X6445466Y38731523D01*
X6647648Y38699500D01*
X6647653Y38699500D01*
X6852347Y38699500D01*
X6852352Y38699500D01*
X7054534Y38731523D01*
X7249219Y38794780D01*
X7431610Y38887713D01*
X7597219Y39008034D01*
X7741966Y39152781D01*
X7862287Y39318390D01*
X7955220Y39500781D01*
X8018477Y39695466D01*
X8050500Y39897648D01*
X8050500Y40102352D01*
X8018477Y40304534D01*
X7955220Y40499219D01*
X7862287Y40681610D01*
X7862285Y40681613D01*
X7741971Y40847213D01*
X7741964Y40847221D01*
X7597220Y40991965D01*
X7597212Y40991972D01*
X7431612Y41112286D01*
X7249224Y41205218D01*
X7249220Y41205220D01*
X7249219Y41205220D01*
X7054534Y41268477D01*
X6852352Y41300500D01*
X6647648Y41300500D01*
X6479163Y41273815D01*
X6445465Y41268477D01*
X6250787Y41205222D01*
X6250775Y41205218D01*
X6068387Y41112286D01*
X5902787Y40991972D01*
X5902779Y40991965D01*
X5758035Y40847221D01*
X5758028Y40847213D01*
X5637714Y40681613D01*
X5544782Y40499225D01*
X5544778Y40499213D01*
X5482327Y40307007D01*
X5481523Y40304534D01*
X5449500Y40102352D01*
X400000Y40102352D01*
X400000Y40110178D01*
X365525Y40327841D01*
X297432Y40537407D01*
X297428Y40537419D01*
X197385Y40733762D01*
X197384Y40733764D01*
X180822Y40756559D01*
X-502095Y40073643D01*
X-534075Y40192993D01*
X-599901Y40307007D01*
X-692993Y40400099D01*
X-807007Y40465925D01*
X-926360Y40497907D01*
X-243442Y41180823D01*
X-243443Y41180824D01*
X-266239Y41197386D01*
X-462582Y41297429D01*
X-462594Y41297433D01*
X-672161Y41365526D01*
X-672160Y41365526D01*
X-889823Y41400000D01*
X-1110177Y41400000D01*
X-1327841Y41365526D01*
X-1537407Y41297433D01*
X-1537419Y41297429D01*
X-1733761Y41197386D01*
X-1733766Y41197383D01*
X-1756559Y41180824D01*
X-1073642Y40497906D01*
X-1192993Y40465925D01*
X-1307007Y40400099D01*
X-1400099Y40307007D01*
X-1465925Y40192993D01*
X-1497906Y40073642D01*
X-2180824Y40756559D01*
X-2197383Y40733766D01*
X-2197386Y40733761D01*
X-2297429Y40537419D01*
X-2297433Y40537407D01*
X-2365526Y40327841D01*
X-2400000Y40110178D01*
X-6401815Y40110178D01*
X-6437949Y40291835D01*
X-6513368Y40473914D01*
X-6622861Y40637782D01*
X-6762218Y40777139D01*
X-6867103Y40847221D01*
X-6926085Y40886632D01*
X-6926088Y40886633D01*
X-7108164Y40962051D01*
X-7108166Y40962052D01*
X-7177199Y40975783D01*
X-7301459Y41000500D01*
X-7498541Y41000500D01*
X-7530611Y40994122D01*
X-7691835Y40962052D01*
X-7691837Y40962051D01*
X-7873913Y40886633D01*
X-7873916Y40886632D01*
X-8037781Y40777140D01*
X-8037786Y40777136D01*
X-8177136Y40637786D01*
X-8177140Y40637781D01*
X-8286632Y40473916D01*
X-8286633Y40473913D01*
X-8362051Y40291837D01*
X-8362052Y40291835D01*
X-8400500Y40098540D01*
X-39499500Y40098540D01*
X-39499500Y45996333D01*
X-39499321Y46003644D01*
X-39497405Y46042655D01*
X-39492737Y46137680D01*
X-38100500Y46137680D01*
X-38100500Y45862321D01*
X-38064563Y45589350D01*
X-38064560Y45589333D01*
X-37993297Y45323371D01*
X-37993297Y45323370D01*
X-37930583Y45171969D01*
X-37887923Y45068979D01*
X-37750249Y44830521D01*
X-37582628Y44612072D01*
X-37387928Y44417372D01*
X-37169479Y44249751D01*
X-36931021Y44112077D01*
X-36787580Y44052662D01*
X-36676631Y44006704D01*
X-36513861Y43963091D01*
X-36410666Y43935440D01*
X-36137674Y43899500D01*
X-35862326Y43899500D01*
X-35589334Y43935440D01*
X-35379577Y43991645D01*
X-35323371Y44006704D01*
X-35323370Y44006704D01*
X-35290875Y44020165D01*
X-35068979Y44112077D01*
X-34830521Y44249751D01*
X-34612072Y44417372D01*
X-34417372Y44612072D01*
X-34249751Y44830521D01*
X-34112077Y45068979D01*
X-34006705Y45323368D01*
X-33935440Y45589334D01*
X-33927645Y45648540D01*
X1199500Y45648540D01*
X1199500Y45451461D01*
X1237948Y45258166D01*
X1237949Y45258164D01*
X1313367Y45076088D01*
X1313368Y45076085D01*
X1318119Y45068975D01*
X1422861Y44912218D01*
X1562218Y44772861D01*
X1671215Y44700032D01*
X1726084Y44663369D01*
X1726085Y44663369D01*
X1726086Y44663368D01*
X1908165Y44587949D01*
X2101459Y44549500D01*
X2101460Y44549500D01*
X2298540Y44549500D01*
X2298541Y44549500D01*
X2491835Y44587949D01*
X2673914Y44663368D01*
X2837782Y44772861D01*
X2977139Y44912218D01*
X3086632Y45076086D01*
X3107291Y45125962D01*
X13399500Y45125962D01*
X13399500Y45078250D01*
X13399500Y44874038D01*
X13438910Y44625215D01*
X13516759Y44385621D01*
X13585988Y44249751D01*
X13631131Y44161154D01*
X13631131Y44161153D01*
X13666787Y44112077D01*
X13779207Y43957344D01*
X13957344Y43779207D01*
X14161155Y43631130D01*
X14385621Y43516759D01*
X14625215Y43438910D01*
X14874038Y43399500D01*
X14874043Y43399500D01*
X15125957Y43399500D01*
X15125962Y43399500D01*
X15374785Y43438910D01*
X15614379Y43516759D01*
X15838845Y43631130D01*
X16042656Y43779207D01*
X16220793Y43957344D01*
X16368870Y44161155D01*
X16483241Y44385621D01*
X16561090Y44625215D01*
X16600500Y44874038D01*
X16600500Y45125962D01*
X16561090Y45374785D01*
X16483241Y45614379D01*
X16368870Y45838845D01*
X16220793Y46042656D01*
X16125769Y46137680D01*
X19899500Y46137680D01*
X19899500Y45862321D01*
X19935437Y45589350D01*
X19935440Y45589333D01*
X20006703Y45323371D01*
X20006703Y45323370D01*
X20069417Y45171969D01*
X20112077Y45068979D01*
X20249751Y44830521D01*
X20417372Y44612072D01*
X20612072Y44417372D01*
X20830521Y44249751D01*
X21068979Y44112077D01*
X21212420Y44052662D01*
X21323369Y44006704D01*
X21486139Y43963091D01*
X21589334Y43935440D01*
X21862326Y43899500D01*
X22137674Y43899500D01*
X22410666Y43935440D01*
X22620423Y43991645D01*
X22676629Y44006704D01*
X22676630Y44006704D01*
X22709125Y44020165D01*
X22931021Y44112077D01*
X23169479Y44249751D01*
X23387928Y44417372D01*
X23582628Y44612072D01*
X23750249Y44830521D01*
X23887923Y45068979D01*
X23911526Y45125962D01*
X27399500Y45125962D01*
X27399500Y45078250D01*
X27399500Y44874038D01*
X27438910Y44625215D01*
X27516759Y44385621D01*
X27585988Y44249751D01*
X27631131Y44161154D01*
X27631131Y44161153D01*
X27666787Y44112077D01*
X27779207Y43957344D01*
X27957344Y43779207D01*
X28161155Y43631130D01*
X28385621Y43516759D01*
X28625215Y43438910D01*
X28874038Y43399500D01*
X28874043Y43399500D01*
X29125957Y43399500D01*
X29125962Y43399500D01*
X29374785Y43438910D01*
X29614379Y43516759D01*
X29838845Y43631130D01*
X30042656Y43779207D01*
X30220793Y43957344D01*
X30368870Y44161155D01*
X30483241Y44385621D01*
X30561090Y44625215D01*
X30600500Y44874038D01*
X30600500Y45125962D01*
X30561090Y45374785D01*
X30483241Y45614379D01*
X30368870Y45838845D01*
X30220793Y46042656D01*
X30042656Y46220793D01*
X29838845Y46368870D01*
X29614379Y46483241D01*
X29374785Y46561090D01*
X29125962Y46600500D01*
X28874038Y46600500D01*
X28666685Y46567659D01*
X28625214Y46561090D01*
X28432466Y46498462D01*
X28385621Y46483241D01*
X28385615Y46483239D01*
X28385615Y46483238D01*
X28161153Y46368869D01*
X28161152Y46368869D01*
X27957345Y46220794D01*
X27957342Y46220792D01*
X27779208Y46042658D01*
X27779206Y46042655D01*
X27631131Y45838848D01*
X27631131Y45838847D01*
X27516762Y45614385D01*
X27516757Y45614373D01*
X27438910Y45374786D01*
X27431028Y45325021D01*
X27399500Y45125962D01*
X23911526Y45125962D01*
X23993295Y45323368D01*
X24064560Y45589334D01*
X24100500Y45862326D01*
X24100500Y46137674D01*
X24064560Y46410666D01*
X24017046Y46587993D01*
X23993296Y46676630D01*
X23993296Y46676631D01*
X23915463Y46864533D01*
X23887923Y46931021D01*
X23750249Y47169479D01*
X23582628Y47387928D01*
X23387928Y47582628D01*
X23169479Y47750249D01*
X22931021Y47887923D01*
X22898527Y47901383D01*
X22676630Y47993297D01*
X22410667Y48064560D01*
X22410650Y48064563D01*
X22137679Y48100500D01*
X22137674Y48100500D01*
X21862326Y48100500D01*
X21862320Y48100500D01*
X21589349Y48064563D01*
X21589332Y48064560D01*
X21323370Y47993297D01*
X21323369Y47993297D01*
X21068976Y47887922D01*
X20830522Y47750250D01*
X20612070Y47582627D01*
X20417373Y47387930D01*
X20249750Y47169478D01*
X20112078Y46931024D01*
X20006703Y46676631D01*
X20006703Y46676630D01*
X19935440Y46410668D01*
X19935437Y46410651D01*
X19899500Y46137680D01*
X16125769Y46137680D01*
X16042656Y46220793D01*
X15838845Y46368870D01*
X15614379Y46483241D01*
X15374785Y46561090D01*
X15125962Y46600500D01*
X14874038Y46600500D01*
X14666685Y46567659D01*
X14625214Y46561090D01*
X14432466Y46498462D01*
X14385621Y46483241D01*
X14385615Y46483239D01*
X14385615Y46483238D01*
X14161153Y46368869D01*
X14161152Y46368869D01*
X13957345Y46220794D01*
X13957342Y46220792D01*
X13779208Y46042658D01*
X13779206Y46042655D01*
X13631131Y45838848D01*
X13631131Y45838847D01*
X13516762Y45614385D01*
X13516757Y45614373D01*
X13438910Y45374786D01*
X13431028Y45325021D01*
X13399500Y45125962D01*
X3107291Y45125962D01*
X3133336Y45188839D01*
X3150144Y45229419D01*
X3162051Y45258165D01*
X3200500Y45451459D01*
X3200500Y45648541D01*
X3162051Y45841835D01*
X3086632Y46023914D01*
X3074108Y46042657D01*
X3010616Y46137680D01*
X2977139Y46187782D01*
X2837782Y46327139D01*
X2775327Y46368870D01*
X2673915Y46436632D01*
X2673912Y46436633D01*
X2491836Y46512051D01*
X2491834Y46512052D01*
X2336989Y46542853D01*
X2298541Y46550500D01*
X2101459Y46550500D01*
X2069389Y46544122D01*
X1908165Y46512052D01*
X1908163Y46512051D01*
X1726087Y46436633D01*
X1726084Y46436632D01*
X1562219Y46327140D01*
X1562214Y46327136D01*
X1422864Y46187786D01*
X1422860Y46187781D01*
X1313368Y46023916D01*
X1313367Y46023913D01*
X1237949Y45841837D01*
X1237948Y45841835D01*
X1199500Y45648540D01*
X-33927645Y45648540D01*
X-33899500Y45862326D01*
X-33899500Y46137674D01*
X-33935440Y46410666D01*
X-33982954Y46587993D01*
X-34006704Y46676630D01*
X-34006704Y46676631D01*
X-34084537Y46864533D01*
X-34112077Y46931021D01*
X-34249751Y47169479D01*
X-34417372Y47387928D01*
X-34612072Y47582628D01*
X-34830521Y47750249D01*
X-35068979Y47887923D01*
X-35101473Y47901383D01*
X-35323370Y47993297D01*
X-35589333Y48064560D01*
X-35589350Y48064563D01*
X-35862321Y48100500D01*
X-35862326Y48100500D01*
X-36137674Y48100500D01*
X-36137680Y48100500D01*
X-36410651Y48064563D01*
X-36410668Y48064560D01*
X-36676630Y47993297D01*
X-36676631Y47993297D01*
X-36931024Y47887922D01*
X-37169478Y47750250D01*
X-37387930Y47582627D01*
X-37582627Y47387930D01*
X-37750250Y47169478D01*
X-37887922Y46931024D01*
X-37993297Y46676631D01*
X-37993297Y46676630D01*
X-38064560Y46410668D01*
X-38064563Y46410651D01*
X-38100500Y46137680D01*
X-39492737Y46137680D01*
X-39483008Y46335713D01*
X-39481574Y46350260D01*
X-39478813Y46368869D01*
X-39433333Y46675477D01*
X-39430481Y46689814D01*
X-39424406Y46714068D01*
X-39350586Y47008773D01*
X-39346354Y47022727D01*
X-39235578Y47332321D01*
X-39229989Y47345814D01*
X-39089407Y47643049D01*
X-39082532Y47655912D01*
X-38913479Y47937962D01*
X-38905380Y47950081D01*
X-38709501Y48214193D01*
X-38700247Y48225469D01*
X-38479417Y48469118D01*
X-38469118Y48479417D01*
X-38225469Y48700247D01*
X-38214193Y48709501D01*
X-37950081Y48905380D01*
X-37937962Y48913479D01*
X-37655912Y49082532D01*
X-37643049Y49089407D01*
X-37345814Y49229989D01*
X-37332321Y49235578D01*
X-37022727Y49346354D01*
X-37008773Y49350586D01*
X-36689811Y49430482D01*
X-36675477Y49433333D01*
X-36350255Y49481575D01*
X-36335713Y49483008D01*
X-36007186Y49499148D01*
X-35992808Y49499157D01*
X-35674081Y49483958D01*
X-35659980Y49482610D01*
X-35344043Y49437137D01*
X-35330139Y49434454D01*
X-35019966Y49359125D01*
X-35006354Y49355123D01*
X-34846557Y49299755D01*
X-34704766Y49250624D01*
X-34691605Y49245350D01*
X-34401329Y49112625D01*
X-34388733Y49106124D01*
X-34112394Y48946376D01*
X-34100467Y48938701D01*
X-34053722Y48905367D01*
X-33840600Y48753393D01*
X-33829449Y48744611D01*
X-33588394Y48535417D01*
X-33578138Y48525623D01*
X-33358076Y48294433D01*
X-33348799Y48283707D01*
X-33151737Y48032628D01*
X-33143515Y48021057D01*
X-32969315Y47749367D01*
X-32965626Y47743300D01*
X-32934526Y47689293D01*
X-32934524Y47689291D01*
X-32841443Y47596004D01*
X-32727492Y47530046D01*
X-32727388Y47529986D01*
X-32600132Y47495737D01*
X-32468787Y47495592D01*
X-32468351Y47495591D01*
X-32468351Y47495592D01*
X-32468348Y47495591D01*
X-32468346Y47495592D01*
X-32458666Y47496855D01*
X-32458594Y47496298D01*
X-32434162Y47499500D01*
X16107315Y47499500D01*
X16107318Y47499500D01*
X16319769Y47530046D01*
X16319771Y47530047D01*
X16319773Y47530047D01*
X16350371Y47539032D01*
X16525710Y47590516D01*
X16720950Y47679679D01*
X16901513Y47795719D01*
X17063724Y47936276D01*
X17204281Y48098487D01*
X17320321Y48279050D01*
X17409484Y48474290D01*
X17469954Y48680231D01*
X17500500Y48892682D01*
X17500500Y48991633D01*
X17501437Y49008316D01*
X17505389Y49043391D01*
X17511144Y49094468D01*
X17518568Y49126994D01*
X17544421Y49200879D01*
X17558898Y49230940D01*
X17600543Y49297218D01*
X17621342Y49323301D01*
X17676699Y49378658D01*
X17702782Y49399457D01*
X17769060Y49441102D01*
X17799118Y49455578D01*
X17873008Y49481433D01*
X17905532Y49488856D01*
X17991684Y49498564D01*
X18008367Y49499500D01*
X18065892Y49499500D01*
X25934108Y49499500D01*
X25991633Y49499500D01*
X26008315Y49498564D01*
G37*
%TD.AperFunction*%
%TA.AperFunction,Conductor*%
G36*
X-15776000Y19702535D02*
G01*
X-15745141Y19678856D01*
X-15123096Y19056811D01*
X-15084532Y18990016D01*
X-15084532Y18912888D01*
X-15123095Y18846094D01*
X-15159720Y18809469D01*
X-15159723Y18809465D01*
X-15284622Y18637557D01*
X-15284622Y18637556D01*
X-15381094Y18448223D01*
X-15446757Y18246131D01*
X-15446758Y18246131D01*
X-15449312Y18230000D01*
X-14534144Y18230000D01*
X-14595925Y18122993D01*
X-14630000Y17995826D01*
X-14630000Y17864174D01*
X-14595925Y17737007D01*
X-14534144Y17630000D01*
X-15449312Y17630000D01*
X-15446758Y17613870D01*
X-15381094Y17411778D01*
X-15284622Y17222445D01*
X-15284622Y17222444D01*
X-15159723Y17050536D01*
X-15159721Y17050533D01*
X-15009468Y16900280D01*
X-15009465Y16900278D01*
X-14837556Y16775379D01*
X-14762088Y16736925D01*
X-14704771Y16685316D01*
X-14680937Y16611962D01*
X-14696973Y16536520D01*
X-14748582Y16479203D01*
X-14762086Y16471406D01*
X-14785406Y16459524D01*
X-14785407Y16459523D01*
X-14944637Y16343835D01*
X-14944648Y16343826D01*
X-15083826Y16204648D01*
X-15083835Y16204637D01*
X-15199523Y16045407D01*
X-15199526Y16045402D01*
X-15288879Y15870037D01*
X-15288883Y15870028D01*
X-15288884Y15870025D01*
X-15349709Y15682826D01*
X-15380500Y15488417D01*
X-15380500Y15291583D01*
X-15349709Y15097174D01*
X-15288884Y14909975D01*
X-15288881Y14909970D01*
X-15288879Y14909964D01*
X-15267240Y14867496D01*
X-15199524Y14734595D01*
X-15083828Y14575354D01*
X-14944646Y14436172D01*
X-14785405Y14320476D01*
X-14717256Y14285753D01*
X-14652505Y14252760D01*
X-14595187Y14201151D01*
X-14571353Y14127798D01*
X-14587389Y14052356D01*
X-14638998Y13995038D01*
X-14652505Y13987240D01*
X-14785402Y13919526D01*
X-14785407Y13919523D01*
X-14944637Y13803835D01*
X-14944648Y13803826D01*
X-15083826Y13664648D01*
X-15083835Y13664637D01*
X-15199523Y13505407D01*
X-15199526Y13505402D01*
X-15288879Y13330037D01*
X-15288886Y13330019D01*
X-15316462Y13245148D01*
X-15349709Y13142826D01*
X-15372330Y12999997D01*
X-15372850Y12996715D01*
X-15404221Y12926255D01*
X-15466619Y12880920D01*
X-15543324Y12872857D01*
X-15613784Y12904228D01*
X-15625375Y12914664D01*
X-15955859Y13245148D01*
X-15994423Y13311943D01*
X-15999500Y13350507D01*
X-15999500Y19573497D01*
X-15979538Y19647997D01*
X-15925000Y19702535D01*
X-15850500Y19722497D01*
X-15776000Y19702535D01*
G37*
%TD.AperFunction*%
%TD*%
M02*
