%TF.GenerationSoftware,KiCad,Pcbnew,9.0.3*%
%TF.CreationDate,2025-09-01T09:15:08+03:00*%
%TF.ProjectId,PMCNV-DQ16src,504d434e-562d-4445-9131-367372632e6b,rev?*%
%TF.SameCoordinates,Original*%
%TF.FileFunction,Soldermask,Top*%
%TF.FilePolarity,Negative*%
%FSLAX46Y46*%
G04 Gerber Fmt 4.6, Leading zero omitted, Abs format (unit mm)*
G04 Created by KiCad (PCBNEW 9.0.3) date 2025-09-01 09:15:08*
%MOMM*%
%LPD*%
G01*
G04 APERTURE LIST*
G04 Aperture macros list*
%AMRoundRect*
0 Rectangle with rounded corners*
0 $1 Rounding radius*
0 $2 $3 $4 $5 $6 $7 $8 $9 X,Y pos of 4 corners*
0 Add a 4 corners polygon primitive as box body*
4,1,4,$2,$3,$4,$5,$6,$7,$8,$9,$2,$3,0*
0 Add four circle primitives for the rounded corners*
1,1,$1+$1,$2,$3*
1,1,$1+$1,$4,$5*
1,1,$1+$1,$6,$7*
1,1,$1+$1,$8,$9*
0 Add four rect primitives between the rounded corners*
20,1,$1+$1,$2,$3,$4,$5,0*
20,1,$1+$1,$4,$5,$6,$7,0*
20,1,$1+$1,$6,$7,$8,$9,0*
20,1,$1+$1,$8,$9,$2,$3,0*%
G04 Aperture macros list end*
%ADD10C,2.200000*%
%ADD11R,1.716000X0.450800*%
%ADD12C,2.350000*%
%ADD13RoundRect,0.225000X0.225000X0.250000X-0.225000X0.250000X-0.225000X-0.250000X0.225000X-0.250000X0*%
%ADD14R,1.181100X0.558800*%
%ADD15RoundRect,0.225000X-0.250000X0.225000X-0.250000X-0.225000X0.250000X-0.225000X0.250000X0.225000X0*%
%ADD16RoundRect,0.250000X0.475000X-0.250000X0.475000X0.250000X-0.475000X0.250000X-0.475000X-0.250000X0*%
%ADD17R,1.803400X0.635000*%
%ADD18R,2.997200X2.590800*%
%ADD19RoundRect,0.250000X-0.475000X0.250000X-0.475000X-0.250000X0.475000X-0.250000X0.475000X0.250000X0*%
%ADD20RoundRect,0.200000X-0.200000X-0.275000X0.200000X-0.275000X0.200000X0.275000X-0.200000X0.275000X0*%
%ADD21R,0.977900X0.508000*%
%ADD22R,1.701800X0.558800*%
%ADD23C,1.700000*%
%ADD24R,0.431800X1.655601*%
%ADD25R,1.549400X0.482600*%
%ADD26RoundRect,0.200000X0.275000X-0.200000X0.275000X0.200000X-0.275000X0.200000X-0.275000X-0.200000X0*%
%ADD27R,1.800000X0.600000*%
%ADD28R,3.000000X2.600000*%
%ADD29O,6.350000X6.350000*%
%ADD30C,1.725000*%
G04 APERTURE END LIST*
D10*
%TO.C,J6*%
X35000000Y-43000000D03*
X35000000Y-39500000D03*
X35000000Y-36000000D03*
X35000000Y-32500000D03*
X35000000Y-29000000D03*
%TD*%
D11*
%TO.C,U6*%
X20389202Y25400000D03*
X20389202Y24130000D03*
X20389202Y22860000D03*
X20389202Y21590000D03*
X20389202Y20320000D03*
X20389202Y19050000D03*
X20389202Y17780000D03*
X20389202Y16510000D03*
X20389202Y15240000D03*
X30090798Y15240000D03*
X30090798Y16510000D03*
X30090798Y17780000D03*
X30090798Y19050000D03*
X30090798Y20320000D03*
X30090798Y21590000D03*
X30090798Y22860000D03*
X30090798Y24130000D03*
X30090798Y25400000D03*
%TD*%
D10*
%TO.C,J5*%
X35000000Y-24500000D03*
X35000000Y-21000000D03*
X35000000Y-17500000D03*
X35000000Y-14000000D03*
X35000000Y-10500000D03*
X35000000Y-7000000D03*
X35000000Y-3500000D03*
X35000000Y0D03*
X35000000Y3500000D03*
X35000000Y7000000D03*
%TD*%
%TO.C,J3*%
X35000000Y11500000D03*
X35000000Y15000000D03*
X35000000Y18500000D03*
X35000000Y22000000D03*
X35000000Y25500000D03*
X35000000Y29000000D03*
X35000000Y32500000D03*
X35000000Y36000000D03*
X35000000Y39500000D03*
X35000000Y43000000D03*
%TD*%
D12*
%TO.C,U8*%
X4920000Y28060000D03*
X4920000Y43060000D03*
%TD*%
D13*
%TO.C,C7*%
X12775000Y11500000D03*
X11225000Y11500000D03*
%TD*%
D14*
%TO.C,U10*%
X8466850Y-15950001D03*
X8466850Y-15000000D03*
X8466850Y-14049999D03*
X5533150Y-14049999D03*
X5533150Y-15000000D03*
X5533150Y-15950001D03*
%TD*%
D15*
%TO.C,C1*%
X-26000000Y28775000D03*
X-26000000Y27225000D03*
%TD*%
D16*
%TO.C,C3*%
X-11000000Y-38950000D03*
X-11000000Y-37050000D03*
%TD*%
D12*
%TO.C,U9*%
X4920000Y-28060000D03*
X4920000Y-43060000D03*
%TD*%
D17*
%TO.C,J4*%
X-3556000Y-15499992D03*
X-3556000Y-14499994D03*
X-3556000Y-13499996D03*
X-3556000Y-12499998D03*
X-3556000Y-11500000D03*
X-3556000Y-10500000D03*
X-3556000Y-9500000D03*
X-3556000Y-8500000D03*
X-3556000Y-7500002D03*
X-3556000Y-6500004D03*
X-3556000Y-5500006D03*
X-3556000Y-4500008D03*
D18*
X-1385999Y-17850003D03*
X-1385999Y-2149997D03*
%TD*%
D19*
%TO.C,C4*%
X-11000000Y-26050000D03*
X-11000000Y-27950000D03*
%TD*%
D20*
%TO.C,R21*%
X-21825000Y-37000000D03*
X-20175000Y-37000000D03*
%TD*%
D11*
%TO.C,U7*%
X20389202Y-5080000D03*
X20389202Y-6350000D03*
X20389202Y-7620000D03*
X20389202Y-8890000D03*
X20389202Y-10160000D03*
X20389202Y-11430000D03*
X20389202Y-12700000D03*
X20389202Y-13970000D03*
X20389202Y-15240000D03*
X30090798Y-15240000D03*
X30090798Y-13970000D03*
X30090798Y-12700000D03*
X30090798Y-11430000D03*
X30090798Y-10160000D03*
X30090798Y-8890000D03*
X30090798Y-7620000D03*
X30090798Y-6350000D03*
X30090798Y-5080000D03*
%TD*%
D21*
%TO.C,Q1*%
X-17187450Y-37047500D03*
X-17187450Y-38952500D03*
X-14812550Y-38000000D03*
%TD*%
D22*
%TO.C,U11*%
X-23384800Y16905000D03*
X-23384800Y15635000D03*
X-23384800Y14365000D03*
X-23384800Y13095000D03*
X-12615200Y13095000D03*
X-12615200Y14365000D03*
X-12615200Y15635000D03*
X-12615200Y16905000D03*
%TD*%
D23*
%TO.C,PS1*%
X-7000000Y-39000000D03*
X-7000000Y-36460000D03*
X-7000000Y-31380000D03*
X-7000000Y-26300000D03*
%TD*%
D24*
%TO.C,U3*%
X18225000Y8627801D03*
X17574999Y8627801D03*
X16925000Y8627801D03*
X16274999Y8627801D03*
X15625001Y8627801D03*
X14974999Y8627801D03*
X14325001Y8627801D03*
X13675002Y8627801D03*
X13025001Y8627801D03*
X12375002Y8627801D03*
X11725001Y8627801D03*
X11075002Y8627801D03*
X10425001Y8627801D03*
X9775002Y8627801D03*
X9775000Y1372199D03*
X10425001Y1372199D03*
X11075000Y1372199D03*
X11725001Y1372199D03*
X12374999Y1372199D03*
X13025001Y1372199D03*
X13674999Y1372199D03*
X14325001Y1372199D03*
X14974999Y1372199D03*
X15625001Y1372199D03*
X16274999Y1372199D03*
X16925000Y1372199D03*
X17574999Y1372199D03*
X18225000Y1372199D03*
%TD*%
D25*
%TO.C,U4*%
X-22826000Y28445000D03*
X-22826000Y27175000D03*
X-22826000Y25905000D03*
X-22826000Y24635000D03*
X-22826000Y23365000D03*
X-22826000Y22095000D03*
X-22826000Y20825000D03*
X-22826000Y19555000D03*
X-13174000Y19555000D03*
X-13174000Y20825000D03*
X-13174000Y22095000D03*
X-13174000Y23365000D03*
X-13174000Y24635000D03*
X-13174000Y25905000D03*
X-13174000Y27175000D03*
X-13174000Y28445000D03*
%TD*%
D17*
%TO.C,J2*%
X-3556000Y4500008D03*
X-3556000Y5500006D03*
X-3556000Y6500004D03*
X-3556000Y7500002D03*
X-3556000Y8500000D03*
X-3556000Y9500000D03*
X-3556000Y10500000D03*
X-3556000Y11500000D03*
X-3556000Y12499998D03*
X-3556000Y13499996D03*
X-3556000Y14499994D03*
X-3556000Y15499992D03*
D18*
X-1385999Y2149997D03*
X-1385999Y17850003D03*
%TD*%
D15*
%TO.C,C6*%
X-26500000Y16775000D03*
X-26500000Y15225000D03*
%TD*%
D26*
%TO.C,R1*%
X-8000000Y21675000D03*
X-8000000Y23325000D03*
%TD*%
D27*
%TO.C,JM1*%
X-36546000Y10500000D03*
X-36546000Y11500000D03*
X-36546000Y12500000D03*
X-36546000Y13500000D03*
X-36546000Y14500000D03*
X-36546000Y15500000D03*
X-36546000Y16500000D03*
X-36546000Y17500000D03*
X-36546000Y18500000D03*
X-36546000Y19500000D03*
X-36546000Y20500000D03*
X-36546000Y21500000D03*
X-36546000Y22500000D03*
X-36546000Y23500000D03*
X-36546000Y24500000D03*
X-36546000Y25500000D03*
X-36546000Y26500000D03*
X-36546000Y27500000D03*
X-36546000Y28500000D03*
X-36546000Y29500000D03*
D28*
X-34375000Y8150000D03*
X-34375000Y31850000D03*
%TD*%
D15*
%TO.C,C2*%
X-10145000Y28775000D03*
X-10145000Y27225000D03*
%TD*%
D29*
%TO.C,PE1*%
X22000000Y-46000000D03*
%TD*%
D30*
%TO.C,U2*%
X-22500000Y0D03*
%TD*%
%TO.C,U5*%
X-7000000Y0D03*
%TD*%
D15*
%TO.C,C5*%
X-9500000Y16775000D03*
X-9500000Y15225000D03*
%TD*%
M02*
