<?xml version="1.0" standalone="no"?>
 <!DOCTYPE svg PUBLIC "-//W3C//DTD SVG 1.1//EN" 
 "http://www.w3.org/Graphics/SVG/1.1/DTD/svg11.dtd"> 
<svg
  xmlns:svg="http://www.w3.org/2000/svg"
  xmlns="http://www.w3.org/2000/svg"
  xmlns:xlink="http://www.w3.org/1999/xlink"
  version="1.1"
  width="148.0058mm" height="210.0072mm" viewBox="0.0000 0.0000 148.0058 210.0072">
<title>SVG Image created as PMCNV-INA226-NPTH-drl_map.svg date 2025/11/26 11:04:26 </title>
  <desc>Image generated by PCBNEW </desc>
<g style="fill:#000000; fill-opacity:1.0000;stroke:#000000; stroke-opacity:1.0000;
stroke-linecap:round; stroke-linejoin:round;"
 transform="translate(0 0) scale(1 1)">
</g>
<g style="fill:none; 
stroke:#000000; stroke-width:0.2174; stroke-opacity:1; 
stroke-linecap:round; stroke-linejoin:round;">
<path d="M88.1196 120.8956 A1.0869 1.0869 0.0 0 0 89.2066 119.8087" />
<path d="M88.1196 12.2010
L79.4240 12.2010
" />
<path d="M24.4942 14.3749
L77.2502 14.3749
" />
<path d="M16.3812 116.5478 A4.3478 4.3478 0.0 0 0 24.4942 118.7217" />
<path d="M77.2502 14.3749 A1.0869 1.0869 0.0 0 0 78.3371 13.2880" />
<path d="M77.2502 118.7217
L24.4942 118.7217
" />
<path d="M89.2066 13.2880 A1.0869 1.0869 0.0 0 0 88.1196 12.2010" />
<path d="M90.2935 14.3749
L100.0760 14.3749
" />
<path d="M90.2935 118.7217
L100.0760 118.7217
" />
<path d="M24.4942 14.3749 A4.3478 4.3478 0.0 0 0 16.3812 16.5488" />
<path d="M103.3369 17.6357 A3.2608 3.2608 0.0 0 0 100.0760 14.3749" />
<path d="M103.3369 17.6357
L103.3369 115.4609
" />
<path d="M100.0760 118.7217 A3.2608 3.2608 0.0 0 0 103.3369 115.4609" />
<path d="M79.4240 120.8956
L88.1196 120.8956
" />
<path d="M16.3812 116.5478
L16.3812 16.5488
" />
<path d="M78.3371 119.8087 A1.0869 1.0869 0.0 0 0 77.2502 118.7217" />
<path d="M79.4240 12.2010 A1.0869 1.0869 0.0 0 0 78.3371 13.2880" />
<path d="M89.2066 13.2880 A1.0869 1.0869 0.0 0 0 90.2935 14.3749" />
<path d="M78.3371 119.8087 A1.0869 1.0869 0.0 0 0 79.4240 120.8956" />
<path d="M90.2935 118.7217 A1.0869 1.0869 0.0 0 0 89.2066 119.8087" />
</g>
<g style="fill:none; 
stroke:#000000; stroke-width:0.0543; stroke-opacity:1; 
stroke-linecap:round; stroke-linejoin:round;">
<circle cx="19.6420" cy="24.1574" r="1.1956" /> 
<circle cx="19.6420" cy="108.9392" r="1.1956" /> 
<circle cx="50.0765" cy="17.6357" r="1.1956" /> 
<circle cx="50.0765" cy="115.4609" r="1.1956" /> 
<circle cx="83.7718" cy="116.5478" r="1.7391" /> 
<circle cx="115.2933" cy="15.4619" r="1.1956" /> 
<circle cx="115.2933" cy="113.2870" r="1.1956" /> 
<circle cx="130.5105" cy="15.4619" r="1.1956" /> 
<circle cx="130.5105" cy="113.2870" r="1.1956" /> 
<circle cx="72.9024" cy="6.7663" r="1.7391" /> 
<circle cx="20.7290" cy="16.5488" r="1.7391" /> 
<circle cx="20.7290" cy="116.5478" r="1.7391" /> 
</g>
<g style="fill:none; 
stroke:#000000; stroke-width:0.2000; stroke-opacity:1; 
stroke-linecap:round; stroke-linejoin:round;">
<text x="18.2725" y="124.2043"
textLength="14.8667" font-size="2.6667" lengthAdjust="spacingAndGlyphs"
text-anchor="start" opacity="0" stroke-opacity="0">Drill Map:</text>
<g class="stroked-text"><desc>Drill Map:</desc>
<path d="M18.8802 124.1192
L18.8802 122.1192
" />
<path d="M18.8802 122.1192
L19.3564 122.1192
" />
<path d="M19.3564 122.1192
L19.6421 122.2144
" />
<path d="M19.6421 122.2144
L19.8326 122.4049
" />
<path d="M19.8326 122.4049
L19.9279 122.5953
" />
<path d="M19.9279 122.5953
L20.0231 122.9763
" />
<path d="M20.0231 122.9763
L20.0231 123.2620
" />
<path d="M20.0231 123.2620
L19.9279 123.6430
" />
<path d="M19.9279 123.6430
L19.8326 123.8334
" />
<path d="M19.8326 123.8334
L19.6421 124.0239
" />
<path d="M19.6421 124.0239
L19.3564 124.1192
" />
<path d="M19.3564 124.1192
L18.8802 124.1192
" />
<path d="M20.8802 124.1192
L20.8802 122.7858
" />
<path d="M20.8802 123.1668
L20.9755 122.9763
" />
<path d="M20.9755 122.9763
L21.0707 122.8811
" />
<path d="M21.0707 122.8811
L21.2612 122.7858
" />
<path d="M21.2612 122.7858
L21.4517 122.7858
" />
<path d="M22.1183 124.1192
L22.1183 122.7858
" />
<path d="M22.1183 122.1192
L22.0231 122.2144
" />
<path d="M22.0231 122.2144
L22.1183 122.3096
" />
<path d="M22.1183 122.3096
L22.2136 122.2144
" />
<path d="M22.2136 122.2144
L22.1183 122.1192
" />
<path d="M22.1183 122.1192
L22.1183 122.3096
" />
<path d="M23.3564 124.1192
L23.1660 124.0239
" />
<path d="M23.1660 124.0239
L23.0707 123.8334
" />
<path d="M23.0707 123.8334
L23.0707 122.1192
" />
<path d="M24.4041 124.1192
L24.2136 124.0239
" />
<path d="M24.2136 124.0239
L24.1183 123.8334
" />
<path d="M24.1183 123.8334
L24.1183 122.1192
" />
<path d="M26.6898 124.1192
L26.6898 122.1192
" />
<path d="M26.6898 122.1192
L27.3564 123.5477
" />
<path d="M27.3564 123.5477
L28.0231 122.1192
" />
<path d="M28.0231 122.1192
L28.0231 124.1192
" />
<path d="M29.8326 124.1192
L29.8326 123.0715
" />
<path d="M29.8326 123.0715
L29.7374 122.8811
" />
<path d="M29.7374 122.8811
L29.5469 122.7858
" />
<path d="M29.5469 122.7858
L29.1660 122.7858
" />
<path d="M29.1660 122.7858
L28.9755 122.8811
" />
<path d="M29.8326 124.0239
L29.6422 124.1192
" />
<path d="M29.6422 124.1192
L29.1660 124.1192
" />
<path d="M29.1660 124.1192
L28.9755 124.0239
" />
<path d="M28.9755 124.0239
L28.8802 123.8334
" />
<path d="M28.8802 123.8334
L28.8802 123.6430
" />
<path d="M28.8802 123.6430
L28.9755 123.4525
" />
<path d="M28.9755 123.4525
L29.1660 123.3573
" />
<path d="M29.1660 123.3573
L29.6422 123.3573
" />
<path d="M29.6422 123.3573
L29.8326 123.2620
" />
<path d="M30.7850 122.7858
L30.7850 124.7858
" />
<path d="M30.7850 122.8811
L30.9755 122.7858
" />
<path d="M30.9755 122.7858
L31.3564 122.7858
" />
<path d="M31.3564 122.7858
L31.5469 122.8811
" />
<path d="M31.5469 122.8811
L31.6422 122.9763
" />
<path d="M31.6422 122.9763
L31.7374 123.1668
" />
<path d="M31.7374 123.1668
L31.7374 123.7382
" />
<path d="M31.7374 123.7382
L31.6422 123.9287
" />
<path d="M31.6422 123.9287
L31.5469 124.0239
" />
<path d="M31.5469 124.0239
L31.3564 124.1192
" />
<path d="M31.3564 124.1192
L30.9755 124.1192
" />
<path d="M30.9755 124.1192
L30.7850 124.0239
" />
<path d="M32.5945 123.9287
L32.6898 124.0239
" />
<path d="M32.6898 124.0239
L32.5945 124.1192
" />
<path d="M32.5945 124.1192
L32.4993 124.0239
" />
<path d="M32.4993 124.0239
L32.5945 123.9287
" />
<path d="M32.5945 123.9287
L32.5945 124.1192
" />
<path d="M32.5945 122.8811
L32.6898 122.9763
" />
<path d="M32.6898 122.9763
L32.5945 123.0715
" />
<path d="M32.5945 123.0715
L32.4993 122.9763
" />
<path d="M32.4993 122.9763
L32.5945 122.8811
" />
<path d="M32.5945 122.8811
L32.5945 123.0715
" />
</g></g> 
</svg>
