M48
; DRILL file {KiCad 9.0.6} date 2025-11-26T11:04:26+0300
; FORMAT={-:-/ absolute / inch / decimal}
; #@! TF.CreationDate,2025-11-26T11:04:26+03:00
; #@! TF.GenerationSoftware,Kicad,Pcbnew,9.0.6
; #@! TF.FileFunction,Plated,1,2,PTH
FMAT,2
INCH
; #@! TA.AperFunction,Plated,PTH,ComponentDrill
T1C0.0157
; #@! TA.AperFunction,Plated,PTH,ComponentDrill
T2C0.0236
; #@! TA.AperFunction,Plated,PTH,ComponentDrill
T3C0.0394
; #@! TA.AperFunction,Plated,PTH,ComponentDrill
T4C0.0453
; #@! TA.AperFunction,Plated,PTH,ComponentDrill
T5C0.0551
; #@! TA.AperFunction,Plated,PTH,ComponentDrill
T6C0.0866
; #@! TA.AperFunction,Plated,PTH,ComponentDrill
T7C0.1693
%
G90
G05
T1
X0.4469Y1.7717
X0.4659Y1.8176
X0.4659Y1.7257
X0.5118Y1.8366
X0.5118Y1.7067
X0.5577Y1.8176
X0.5577Y1.7257
X0.5768Y1.7717
T2
X0.7392Y1.7717
X0.7764Y1.8614
X0.7764Y1.6819
X0.8661Y1.8986
X0.8661Y1.6447
X0.9559Y1.8614
X0.9559Y1.6819
X0.9931Y1.7717
T3
X-0.0935Y1.5596
X-0.0935Y1.4596
X-0.0935Y1.2596
X-0.0935Y1.0596
T4
X-1.1811Y-0.315
X0.7087Y-0.2756
T5
X1.2598Y1.5551
X1.2598Y1.4173
X1.2598Y1.2795
T6
X0.5118Y1.7717
T7
X0.8661Y1.7717
M30
