<?xml version="1.0" standalone="no"?>
 <!DOCTYPE svg PUBLIC "-//W3C//DTD SVG 1.1//EN" 
 "http://www.w3.org/Graphics/SVG/1.1/DTD/svg11.dtd"> 
<svg
  xmlns:svg="http://www.w3.org/2000/svg"
  xmlns="http://www.w3.org/2000/svg"
  xmlns:xlink="http://www.w3.org/1999/xlink"
  version="1.1"
  width="297.0022mm" height="210.0072mm" viewBox="0.0000 0.0000 297.0022 210.0072">
<title>SVG Image created as PM_LED-18-NPTH-drl_map.svg date 2025/12/05 19:39:21 </title>
  <desc>Image generated by PCBNEW </desc>
<g style="fill:#000000; fill-opacity:1.0000;stroke:#000000; stroke-opacity:1.0000;
stroke-linecap:round; stroke-linejoin:round;"
 transform="translate(0 0) scale(1 1)">
</g>
<g style="fill:none; 
stroke:#000000; stroke-width:0.2412; stroke-opacity:1; 
stroke-linecap:round; stroke-linejoin:round;">
<path d="M137.6509 11.1499 A3.6176 3.6176 0.0 0 0 141.2685 14.7675" />
<path d="M166.5865 117.2661
L166.5865 8.7382
" />
<path d="M137.6509 8.7382 A3.6176 3.6176 0.0 0 0 134.0333 5.1206" />
<path d="M134.0333 5.1206 A3.6176 3.6176 0.0 0 0 130.4157 8.7382" />
<path d="M141.2685 111.2368 A3.6176 3.6176 0.0 0 0 137.6509 114.8544" />
<path d="M155.7389 14.7675 A3.6176 3.6176 0.0 0 0 159.3565 11.1499" />
<path d="M162.9741 120.8786 A3.6124 3.6124 0.0 0 0 166.5865 117.2661" />
<path d="M134.0333 120.8837 A3.6176 3.6176 0.0 0 0 137.6509 117.2661" />
<path d="M159.3565 114.8544 A3.6176 3.6176 0.0 0 0 155.7389 111.2368" />
<path d="M137.6509 11.1499
L137.6509 8.7382
" />
<path d="M130.4157 8.7382
L130.4157 117.2661
" />
<path d="M130.4157 117.2661 A3.6176 3.6176 0.0 0 0 134.0333 120.8837" />
<path d="M159.3565 11.1499
L159.3565 8.7382
" />
<path d="M141.2685 111.2368
L155.7389 111.2368
" />
<path d="M137.6509 117.2661
L137.6509 114.8544
" />
<path d="M159.3565 117.2661
L159.3565 114.8544
" />
<path d="M166.5865 8.7382 A3.6124 3.6124 0.0 0 0 162.9741 5.1258" />
<path d="M162.9741 5.1206 A3.6176 3.6176 0.0 0 0 159.3565 8.7382" />
<path d="M141.2685 14.7675
L155.7389 14.7675
" />
<path d="M159.3565 117.2661 A3.6176 3.6176 0.0 0 0 162.9741 120.8837" />
</g>
<g style="fill:none; 
stroke:#000000; stroke-width:0.2000; stroke-opacity:1; 
stroke-linecap:round; stroke-linejoin:round;">
<text x="132.2951" y="124.2043"
textLength="14.8667" font-size="2.6667" lengthAdjust="spacingAndGlyphs"
text-anchor="start" opacity="0" stroke-opacity="0">Drill Map:</text>
<g class="stroked-text"><desc>Drill Map:</desc>
<path d="M132.9029 124.1192
L132.9029 122.1192
" />
<path d="M132.9029 122.1192
L133.3791 122.1192
" />
<path d="M133.3791 122.1192
L133.6648 122.2144
" />
<path d="M133.6648 122.2144
L133.8553 122.4049
" />
<path d="M133.8553 122.4049
L133.9505 122.5953
" />
<path d="M133.9505 122.5953
L134.0457 122.9763
" />
<path d="M134.0457 122.9763
L134.0457 123.2620
" />
<path d="M134.0457 123.2620
L133.9505 123.6430
" />
<path d="M133.9505 123.6430
L133.8553 123.8334
" />
<path d="M133.8553 123.8334
L133.6648 124.0239
" />
<path d="M133.6648 124.0239
L133.3791 124.1192
" />
<path d="M133.3791 124.1192
L132.9029 124.1192
" />
<path d="M134.9029 124.1192
L134.9029 122.7858
" />
<path d="M134.9029 123.1668
L134.9981 122.9763
" />
<path d="M134.9981 122.9763
L135.0934 122.8811
" />
<path d="M135.0934 122.8811
L135.2838 122.7858
" />
<path d="M135.2838 122.7858
L135.4743 122.7858
" />
<path d="M136.1410 124.1192
L136.1410 122.7858
" />
<path d="M136.1410 122.1192
L136.0457 122.2144
" />
<path d="M136.0457 122.2144
L136.1410 122.3096
" />
<path d="M136.1410 122.3096
L136.2362 122.2144
" />
<path d="M136.2362 122.2144
L136.1410 122.1192
" />
<path d="M136.1410 122.1192
L136.1410 122.3096
" />
<path d="M137.3791 124.1192
L137.1886 124.0239
" />
<path d="M137.1886 124.0239
L137.0934 123.8334
" />
<path d="M137.0934 123.8334
L137.0934 122.1192
" />
<path d="M138.4267 124.1192
L138.2362 124.0239
" />
<path d="M138.2362 124.0239
L138.1410 123.8334
" />
<path d="M138.1410 123.8334
L138.1410 122.1192
" />
<path d="M140.7124 124.1192
L140.7124 122.1192
" />
<path d="M140.7124 122.1192
L141.3791 123.5477
" />
<path d="M141.3791 123.5477
L142.0457 122.1192
" />
<path d="M142.0457 122.1192
L142.0457 124.1192
" />
<path d="M143.8553 124.1192
L143.8553 123.0715
" />
<path d="M143.8553 123.0715
L143.7600 122.8811
" />
<path d="M143.7600 122.8811
L143.5695 122.7858
" />
<path d="M143.5695 122.7858
L143.1886 122.7858
" />
<path d="M143.1886 122.7858
L142.9981 122.8811
" />
<path d="M143.8553 124.0239
L143.6648 124.1192
" />
<path d="M143.6648 124.1192
L143.1886 124.1192
" />
<path d="M143.1886 124.1192
L142.9981 124.0239
" />
<path d="M142.9981 124.0239
L142.9029 123.8334
" />
<path d="M142.9029 123.8334
L142.9029 123.6430
" />
<path d="M142.9029 123.6430
L142.9981 123.4525
" />
<path d="M142.9981 123.4525
L143.1886 123.3573
" />
<path d="M143.1886 123.3573
L143.6648 123.3573
" />
<path d="M143.6648 123.3573
L143.8553 123.2620
" />
<path d="M144.8076 122.7858
L144.8076 124.7858
" />
<path d="M144.8076 122.8811
L144.9981 122.7858
" />
<path d="M144.9981 122.7858
L145.3791 122.7858
" />
<path d="M145.3791 122.7858
L145.5695 122.8811
" />
<path d="M145.5695 122.8811
L145.6648 122.9763
" />
<path d="M145.6648 122.9763
L145.7600 123.1668
" />
<path d="M145.7600 123.1668
L145.7600 123.7382
" />
<path d="M145.7600 123.7382
L145.6648 123.9287
" />
<path d="M145.6648 123.9287
L145.5695 124.0239
" />
<path d="M145.5695 124.0239
L145.3791 124.1192
" />
<path d="M145.3791 124.1192
L144.9981 124.1192
" />
<path d="M144.9981 124.1192
L144.8076 124.0239
" />
<path d="M146.6172 123.9287
L146.7124 124.0239
" />
<path d="M146.7124 124.0239
L146.6172 124.1192
" />
<path d="M146.6172 124.1192
L146.5219 124.0239
" />
<path d="M146.5219 124.0239
L146.6172 123.9287
" />
<path d="M146.6172 123.9287
L146.6172 124.1192
" />
<path d="M146.6172 122.8811
L146.7124 122.9763
" />
<path d="M146.7124 122.9763
L146.6172 123.0715
" />
<path d="M146.6172 123.0715
L146.5219 122.9763
" />
<path d="M146.5219 122.9763
L146.6172 122.8811
" />
<path d="M146.6172 122.8811
L146.6172 123.0715
" />
</g></g> 
</svg>
