%TF.GenerationSoftware,KiCad,Pcbnew,8.0.3-8.0.3-0~ubuntu22.04.1*%
%TF.CreationDate,2024-10-28T10:58:27+03:00*%
%TF.ProjectId,PM-LED8,504d2d4c-4544-4382-9e6b-696361645f70,rev?*%
%TF.SameCoordinates,Original*%
%TF.FileFunction,Copper,L2,Bot*%
%TF.FilePolarity,Positive*%
%FSLAX46Y46*%
G04 Gerber Fmt 4.6, Leading zero omitted, Abs format (unit mm)*
G04 Created by KiCad (PCBNEW 8.0.3-8.0.3-0~ubuntu22.04.1) date 2024-10-28 10:58:27*
%MOMM*%
%LPD*%
G01*
G04 APERTURE LIST*
%TA.AperFunction,ViaPad*%
%ADD10C,0.600000*%
%TD*%
%TA.AperFunction,Conductor*%
%ADD11C,0.200000*%
%TD*%
G04 APERTURE END LIST*
D10*
%TO.N,GND*%
X-13669000Y-32749700D03*
X9862800Y-14284600D03*
X9865100Y25282300D03*
X-13669000Y28215800D03*
X-13669000Y18080000D03*
X-13669000Y7888700D03*
X-13669000Y-2253900D03*
X7031500Y-34447000D03*
X-13669000Y38383500D03*
X9853100Y5532700D03*
X-13669000Y-12421700D03*
X-13669000Y-22568100D03*
%TO.N,Net-(J1-Pin_9)*%
X6900900Y13711600D03*
X6900900Y-6641000D03*
X6922700Y-23589200D03*
%TD*%
D11*
%TO.N,Net-(J1-Pin_9)*%
X6900900Y13711600D02*
X6900900Y-6641000D01*
X6900900Y-23567400D02*
X6922700Y-23589200D01*
X6900900Y-6641000D02*
X6900900Y-23567400D01*
%TD*%
%TA.AperFunction,Conductor*%
%TO.N,GND*%
G36*
X-3896264Y47399274D02*
G01*
X-3618258Y47382458D01*
X-3603395Y47380653D01*
X-3528155Y47366865D01*
X-3333134Y47331126D01*
X-3318605Y47327545D01*
X-3056287Y47245803D01*
X-3042291Y47240495D01*
X-2791736Y47127730D01*
X-2778478Y47120772D01*
X-2543342Y46978627D01*
X-2531031Y46970129D01*
X-2314739Y46800676D01*
X-2303531Y46790746D01*
X-2109255Y46596470D01*
X-2099325Y46585262D01*
X-1929876Y46368976D01*
X-1921372Y46356656D01*
X-1897548Y46317247D01*
X-1779230Y46121524D01*
X-1772271Y46108265D01*
X-1659506Y45857710D01*
X-1654197Y45843710D01*
X-1572458Y45581403D01*
X-1568874Y45566863D01*
X-1519348Y45296606D01*
X-1517543Y45281742D01*
X-1500844Y45005682D01*
X-1500636Y44996109D01*
X-1501538Y44942543D01*
X-1501306Y44940525D01*
X-1501277Y44940002D01*
X-1501184Y44939301D01*
X-1500933Y44937265D01*
X-1500859Y44936616D01*
X-1500767Y44936133D01*
X-1500501Y44934113D01*
X-1500500Y44934110D01*
X-1500500Y44934108D01*
X-1489676Y44893713D01*
X-1484783Y44875451D01*
X-1484259Y44873426D01*
X-1435975Y44680245D01*
X-1435970Y44680230D01*
X-1302164Y44293831D01*
X-1156820Y43969891D01*
X-1134756Y43920717D01*
X-935071Y43563848D01*
X-704664Y43225998D01*
X-445333Y42909805D01*
X-159104Y42617739D01*
X151790Y42352080D01*
X151792Y42352079D01*
X151795Y42352076D01*
X392764Y42180513D01*
X484921Y42114900D01*
X484929Y42114896D01*
X484931Y42114894D01*
X837679Y41908057D01*
X837685Y41908055D01*
X837687Y41908053D01*
X1207336Y41733154D01*
X1207339Y41733153D01*
X1207341Y41733152D01*
X1207346Y41733150D01*
X1590971Y41591569D01*
X1590990Y41591563D01*
X1985621Y41484398D01*
X1985625Y41484397D01*
X2388190Y41412483D01*
X2755921Y41379896D01*
X2795530Y41376385D01*
X2795531Y41376385D01*
X3204470Y41376385D01*
X3240568Y41379585D01*
X3611810Y41412483D01*
X4014375Y41484397D01*
X4409020Y41591566D01*
X4792664Y41733154D01*
X5162313Y41908053D01*
X5515079Y42114900D01*
X5848210Y42352080D01*
X6159104Y42617739D01*
X6445333Y42909805D01*
X6704664Y43225998D01*
X6935071Y43563848D01*
X7134756Y43920717D01*
X7302159Y44293820D01*
X7367181Y44481586D01*
X7435967Y44680223D01*
X7435969Y44680230D01*
X7435974Y44680244D01*
X7484272Y44873486D01*
X7484782Y44875451D01*
X7500500Y44934108D01*
X7500500Y44934114D01*
X7500764Y44936118D01*
X7500854Y44936592D01*
X7500924Y44937199D01*
X7501187Y44939335D01*
X7501276Y44940017D01*
X7501306Y44940526D01*
X7501534Y44942525D01*
X7501537Y44942536D01*
X7500634Y44996129D01*
X7500841Y45005661D01*
X7506928Y45106287D01*
X8649500Y45106287D01*
X8649500Y44893713D01*
X8682754Y44683757D01*
X8683902Y44680223D01*
X8748444Y44481586D01*
X8844951Y44292180D01*
X8969890Y44120214D01*
X9120213Y43969891D01*
X9292179Y43844952D01*
X9292181Y43844951D01*
X9292184Y43844949D01*
X9481588Y43748443D01*
X9683757Y43682754D01*
X9893713Y43649500D01*
X9893714Y43649500D01*
X10106286Y43649500D01*
X10106287Y43649500D01*
X10316243Y43682754D01*
X10518412Y43748443D01*
X10707816Y43844949D01*
X10812097Y43920713D01*
X10879786Y43969891D01*
X10879788Y43969894D01*
X10879792Y43969896D01*
X11030104Y44120208D01*
X11030106Y44120212D01*
X11030109Y44120214D01*
X11155048Y44292180D01*
X11155047Y44292180D01*
X11155051Y44292184D01*
X11251557Y44481588D01*
X11317246Y44683757D01*
X11350500Y44893713D01*
X11350500Y45106287D01*
X11317246Y45316243D01*
X11251557Y45518412D01*
X11155051Y45707816D01*
X11155049Y45707819D01*
X11155048Y45707821D01*
X11030109Y45879787D01*
X10879786Y46030110D01*
X10707820Y46155049D01*
X10518414Y46251556D01*
X10518413Y46251557D01*
X10518412Y46251557D01*
X10316243Y46317246D01*
X10316241Y46317247D01*
X10316240Y46317247D01*
X10154957Y46342792D01*
X10106287Y46350500D01*
X9893713Y46350500D01*
X9845042Y46342792D01*
X9683760Y46317247D01*
X9481585Y46251556D01*
X9292179Y46155049D01*
X9120213Y46030110D01*
X8969890Y45879787D01*
X8844951Y45707821D01*
X8748444Y45518415D01*
X8682753Y45316240D01*
X8660892Y45178213D01*
X8649500Y45106287D01*
X7506928Y45106287D01*
X7517542Y45281747D01*
X7519347Y45296606D01*
X7522946Y45316243D01*
X7568874Y45566871D01*
X7572454Y45581392D01*
X7654199Y45843719D01*
X7659501Y45857702D01*
X7772273Y46108272D01*
X7779224Y46121517D01*
X7921378Y46356667D01*
X7929865Y46368963D01*
X8099331Y46585271D01*
X8109246Y46596462D01*
X8303538Y46790754D01*
X8314729Y46800669D01*
X8531037Y46970135D01*
X8543333Y46978622D01*
X8778483Y47120776D01*
X8791728Y47127727D01*
X9042298Y47240499D01*
X9056281Y47245801D01*
X9318608Y47327546D01*
X9333129Y47331126D01*
X9603395Y47380654D01*
X9618255Y47382458D01*
X9896264Y47399274D01*
X9903751Y47399500D01*
X9965892Y47399500D01*
X11934108Y47399500D01*
X11996249Y47399500D01*
X12003736Y47399274D01*
X12281742Y47382458D01*
X12296605Y47380653D01*
X12371845Y47366865D01*
X12566866Y47331126D01*
X12581395Y47327545D01*
X12843713Y47245803D01*
X12857709Y47240495D01*
X13108264Y47127730D01*
X13121522Y47120772D01*
X13356658Y46978627D01*
X13368969Y46970129D01*
X13585261Y46800676D01*
X13596469Y46790746D01*
X13790745Y46596470D01*
X13800675Y46585262D01*
X13970124Y46368976D01*
X13978628Y46356656D01*
X14002452Y46317247D01*
X14120770Y46121524D01*
X14127729Y46108265D01*
X14240494Y45857710D01*
X14245803Y45843710D01*
X14327542Y45581403D01*
X14331126Y45566863D01*
X14380652Y45296606D01*
X14382457Y45281742D01*
X14399274Y45003737D01*
X14399500Y44996250D01*
X14399500Y-44996249D01*
X14399274Y-45003736D01*
X14382457Y-45281741D01*
X14380652Y-45296605D01*
X14331126Y-45566862D01*
X14327542Y-45581402D01*
X14245803Y-45843709D01*
X14240494Y-45857709D01*
X14127729Y-46108264D01*
X14120770Y-46121523D01*
X13978630Y-46356652D01*
X13970124Y-46368975D01*
X13800675Y-46585261D01*
X13790745Y-46596469D01*
X13596469Y-46790745D01*
X13585261Y-46800675D01*
X13368975Y-46970124D01*
X13356652Y-46978630D01*
X13121523Y-47120770D01*
X13108264Y-47127729D01*
X12857709Y-47240494D01*
X12843709Y-47245803D01*
X12581402Y-47327542D01*
X12566862Y-47331126D01*
X12296605Y-47380652D01*
X12281741Y-47382457D01*
X12003736Y-47399274D01*
X11996249Y-47399500D01*
X9903751Y-47399500D01*
X9896264Y-47399274D01*
X9618258Y-47382457D01*
X9603394Y-47380652D01*
X9333137Y-47331126D01*
X9318597Y-47327542D01*
X9056290Y-47245803D01*
X9042290Y-47240494D01*
X8791735Y-47127729D01*
X8778476Y-47120770D01*
X8543347Y-46978630D01*
X8531024Y-46970124D01*
X8314738Y-46800675D01*
X8303530Y-46790745D01*
X8109254Y-46596469D01*
X8099324Y-46585261D01*
X7929875Y-46368975D01*
X7921373Y-46356658D01*
X7779228Y-46121522D01*
X7772270Y-46108264D01*
X7659504Y-45857706D01*
X7654196Y-45843709D01*
X7572457Y-45581402D01*
X7568873Y-45566862D01*
X7559994Y-45518412D01*
X7519347Y-45296605D01*
X7517542Y-45281742D01*
X7517542Y-45281741D01*
X7500841Y-45005660D01*
X7500634Y-44996126D01*
X7501537Y-44942536D01*
X7501537Y-44942534D01*
X7501537Y-44942532D01*
X7501306Y-44940516D01*
X7501277Y-44940010D01*
X7501187Y-44939326D01*
X7500930Y-44937239D01*
X7500858Y-44936616D01*
X7500766Y-44936129D01*
X7500500Y-44934110D01*
X7500500Y-44934108D01*
X7489675Y-44893713D01*
X8649500Y-44893713D01*
X8649500Y-45106286D01*
X8682753Y-45316239D01*
X8748444Y-45518414D01*
X8844951Y-45707820D01*
X8969890Y-45879786D01*
X9120213Y-46030109D01*
X9292179Y-46155048D01*
X9292181Y-46155049D01*
X9292184Y-46155051D01*
X9481588Y-46251557D01*
X9683757Y-46317246D01*
X9893713Y-46350500D01*
X9893714Y-46350500D01*
X10106286Y-46350500D01*
X10106287Y-46350500D01*
X10316243Y-46317246D01*
X10518412Y-46251557D01*
X10707816Y-46155051D01*
X10772213Y-46108264D01*
X10879786Y-46030109D01*
X10879788Y-46030106D01*
X10879792Y-46030104D01*
X11030104Y-45879792D01*
X11030106Y-45879788D01*
X11030109Y-45879786D01*
X11155048Y-45707820D01*
X11155047Y-45707820D01*
X11155051Y-45707816D01*
X11251557Y-45518412D01*
X11317246Y-45316243D01*
X11350500Y-45106287D01*
X11350500Y-44893713D01*
X11317246Y-44683757D01*
X11251557Y-44481588D01*
X11155051Y-44292184D01*
X11155049Y-44292181D01*
X11155048Y-44292179D01*
X11030109Y-44120213D01*
X10879786Y-43969890D01*
X10707820Y-43844951D01*
X10518414Y-43748444D01*
X10518413Y-43748443D01*
X10518412Y-43748443D01*
X10316243Y-43682754D01*
X10316241Y-43682753D01*
X10316240Y-43682753D01*
X10154957Y-43657208D01*
X10106287Y-43649500D01*
X9893713Y-43649500D01*
X9845042Y-43657208D01*
X9683760Y-43682753D01*
X9481585Y-43748444D01*
X9292179Y-43844951D01*
X9120213Y-43969890D01*
X8969890Y-44120213D01*
X8844951Y-44292179D01*
X8748444Y-44481585D01*
X8682753Y-44683760D01*
X8649500Y-44893713D01*
X7489675Y-44893713D01*
X7484772Y-44875415D01*
X7484250Y-44873394D01*
X7435974Y-44680244D01*
X7435969Y-44680229D01*
X7435967Y-44680222D01*
X7302163Y-44293830D01*
X7301424Y-44292184D01*
X7134756Y-43920717D01*
X6935071Y-43563848D01*
X6704664Y-43225998D01*
X6445333Y-42909805D01*
X6159104Y-42617739D01*
X5848210Y-42352080D01*
X5848207Y-42352078D01*
X5848204Y-42352075D01*
X5515089Y-42114907D01*
X5515068Y-42114893D01*
X5162320Y-41908056D01*
X4792658Y-41733151D01*
X4792653Y-41733149D01*
X4409028Y-41591568D01*
X4409009Y-41591562D01*
X4014378Y-41484397D01*
X4014372Y-41484396D01*
X3611811Y-41412483D01*
X3204470Y-41376385D01*
X3204469Y-41376385D01*
X2795531Y-41376385D01*
X2795530Y-41376385D01*
X2388188Y-41412483D01*
X1985627Y-41484396D01*
X1985621Y-41484397D01*
X1590990Y-41591562D01*
X1590971Y-41591568D01*
X1207346Y-41733149D01*
X1207341Y-41733151D01*
X837679Y-41908056D01*
X484931Y-42114893D01*
X484910Y-42114907D01*
X151795Y-42352075D01*
X151785Y-42352084D01*
X-159105Y-42617739D01*
X-445324Y-42909795D01*
X-445340Y-42909813D01*
X-704657Y-43225988D01*
X-704671Y-43226007D01*
X-935065Y-43563838D01*
X-935069Y-43563844D01*
X-935071Y-43563848D01*
X-1038361Y-43748444D01*
X-1134753Y-43920712D01*
X-1134760Y-43920724D01*
X-1302164Y-44293830D01*
X-1435970Y-44680229D01*
X-1435973Y-44680239D01*
X-1484260Y-44873425D01*
X-1484783Y-44875446D01*
X-1500501Y-44934113D01*
X-1500767Y-44936134D01*
X-1500861Y-44936628D01*
X-1500938Y-44937301D01*
X-1501184Y-44939298D01*
X-1501277Y-44940005D01*
X-1501306Y-44940515D01*
X-1501538Y-44942534D01*
X-1500636Y-44996107D01*
X-1500844Y-45005680D01*
X-1517543Y-45281741D01*
X-1519348Y-45296605D01*
X-1568874Y-45566862D01*
X-1572458Y-45581402D01*
X-1654197Y-45843709D01*
X-1659506Y-45857709D01*
X-1772271Y-46108264D01*
X-1779230Y-46121523D01*
X-1921370Y-46356652D01*
X-1929876Y-46368975D01*
X-2099325Y-46585261D01*
X-2109255Y-46596469D01*
X-2303531Y-46790745D01*
X-2314739Y-46800675D01*
X-2531025Y-46970124D01*
X-2543348Y-46978630D01*
X-2778477Y-47120770D01*
X-2791736Y-47127729D01*
X-3042291Y-47240494D01*
X-3056291Y-47245803D01*
X-3318598Y-47327542D01*
X-3333138Y-47331126D01*
X-3603395Y-47380652D01*
X-3618259Y-47382457D01*
X-3896264Y-47399274D01*
X-3903751Y-47399500D01*
X-11996249Y-47399500D01*
X-12003736Y-47399274D01*
X-12281742Y-47382457D01*
X-12296606Y-47380652D01*
X-12566863Y-47331126D01*
X-12581403Y-47327542D01*
X-12843710Y-47245803D01*
X-12857710Y-47240494D01*
X-13108265Y-47127729D01*
X-13121524Y-47120770D01*
X-13356653Y-46978630D01*
X-13368976Y-46970124D01*
X-13585262Y-46800675D01*
X-13596470Y-46790745D01*
X-13790746Y-46596469D01*
X-13800676Y-46585261D01*
X-13970125Y-46368975D01*
X-13978627Y-46356658D01*
X-14120772Y-46121522D01*
X-14127730Y-46108264D01*
X-14240496Y-45857706D01*
X-14245804Y-45843709D01*
X-14327543Y-45581402D01*
X-14331127Y-45566862D01*
X-14340006Y-45518412D01*
X-14380653Y-45296605D01*
X-14382458Y-45281741D01*
X-14399274Y-45003736D01*
X-14399500Y-44996249D01*
X-14399500Y-44893713D01*
X-5350500Y-44893713D01*
X-5350500Y-45106286D01*
X-5317247Y-45316239D01*
X-5251556Y-45518414D01*
X-5155049Y-45707820D01*
X-5030110Y-45879786D01*
X-4879787Y-46030109D01*
X-4707821Y-46155048D01*
X-4707819Y-46155049D01*
X-4707816Y-46155051D01*
X-4518412Y-46251557D01*
X-4316243Y-46317246D01*
X-4106287Y-46350500D01*
X-4106286Y-46350500D01*
X-3893714Y-46350500D01*
X-3893713Y-46350500D01*
X-3683757Y-46317246D01*
X-3481588Y-46251557D01*
X-3292184Y-46155051D01*
X-3227787Y-46108264D01*
X-3120214Y-46030109D01*
X-3120212Y-46030106D01*
X-3120208Y-46030104D01*
X-2969896Y-45879792D01*
X-2969894Y-45879788D01*
X-2969891Y-45879786D01*
X-2844952Y-45707820D01*
X-2844953Y-45707820D01*
X-2844949Y-45707816D01*
X-2748443Y-45518412D01*
X-2682754Y-45316243D01*
X-2649500Y-45106287D01*
X-2649500Y-44893713D01*
X-2682754Y-44683757D01*
X-2748443Y-44481588D01*
X-2844949Y-44292184D01*
X-2844951Y-44292181D01*
X-2844952Y-44292179D01*
X-2969891Y-44120213D01*
X-3120214Y-43969890D01*
X-3292180Y-43844951D01*
X-3481586Y-43748444D01*
X-3481587Y-43748443D01*
X-3481588Y-43748443D01*
X-3683757Y-43682754D01*
X-3683759Y-43682753D01*
X-3683760Y-43682753D01*
X-3845043Y-43657208D01*
X-3893713Y-43649500D01*
X-4106287Y-43649500D01*
X-4154958Y-43657208D01*
X-4316240Y-43682753D01*
X-4518415Y-43748444D01*
X-4707821Y-43844951D01*
X-4879787Y-43969890D01*
X-5030110Y-44120213D01*
X-5155049Y-44292179D01*
X-5251556Y-44481585D01*
X-5317247Y-44683760D01*
X-5350500Y-44893713D01*
X-14399500Y-44893713D01*
X-14399500Y13711604D01*
X6095335Y13711604D01*
X6095335Y13711597D01*
X6115530Y13532351D01*
X6115531Y13532346D01*
X6175111Y13362077D01*
X6271085Y13209337D01*
X6273345Y13206503D01*
X6274234Y13204325D01*
X6274789Y13203442D01*
X6274634Y13203345D01*
X6299755Y13141817D01*
X6300400Y13129188D01*
X6300400Y-6058587D01*
X6280715Y-6125626D01*
X6273350Y-6135896D01*
X6271086Y-6138734D01*
X6175111Y-6291476D01*
X6115531Y-6461745D01*
X6115530Y-6461750D01*
X6095335Y-6640996D01*
X6095335Y-6641003D01*
X6115530Y-6820249D01*
X6115531Y-6820254D01*
X6175111Y-6990523D01*
X6271085Y-7143263D01*
X6273345Y-7146097D01*
X6274234Y-7148275D01*
X6274789Y-7149158D01*
X6274634Y-7149255D01*
X6299755Y-7210783D01*
X6300400Y-7223412D01*
X6300400Y-23039252D01*
X6281394Y-23105224D01*
X6196911Y-23239676D01*
X6137331Y-23409945D01*
X6137330Y-23409950D01*
X6117135Y-23589196D01*
X6117135Y-23589203D01*
X6137330Y-23768449D01*
X6137331Y-23768454D01*
X6196911Y-23938723D01*
X6292884Y-24091462D01*
X6420438Y-24219016D01*
X6573178Y-24314989D01*
X6743445Y-24374568D01*
X6743450Y-24374569D01*
X6922696Y-24394765D01*
X6922700Y-24394765D01*
X6922704Y-24394765D01*
X7101949Y-24374569D01*
X7101952Y-24374568D01*
X7101955Y-24374568D01*
X7272222Y-24314989D01*
X7424962Y-24219016D01*
X7552516Y-24091462D01*
X7648489Y-23938722D01*
X7708068Y-23768455D01*
X7728265Y-23589200D01*
X7708068Y-23409945D01*
X7648489Y-23239678D01*
X7552516Y-23086938D01*
X7537719Y-23072141D01*
X7504234Y-23010818D01*
X7501400Y-22984460D01*
X7501400Y-7223412D01*
X7521085Y-7156373D01*
X7528455Y-7146097D01*
X7530710Y-7143267D01*
X7530716Y-7143262D01*
X7626689Y-6990522D01*
X7686268Y-6820255D01*
X7706465Y-6641000D01*
X7686268Y-6461745D01*
X7626689Y-6291478D01*
X7530716Y-6138738D01*
X7530714Y-6138736D01*
X7530713Y-6138734D01*
X7528450Y-6135896D01*
X7527559Y-6133715D01*
X7527011Y-6132842D01*
X7527164Y-6132745D01*
X7502044Y-6071209D01*
X7501400Y-6058587D01*
X7501400Y13129188D01*
X7521085Y13196227D01*
X7528455Y13206503D01*
X7530710Y13209333D01*
X7530716Y13209338D01*
X7626689Y13362078D01*
X7686268Y13532345D01*
X7706465Y13711600D01*
X7686268Y13890855D01*
X7626689Y14061122D01*
X7530716Y14213862D01*
X7403162Y14341416D01*
X7250423Y14437389D01*
X7080154Y14496969D01*
X7080149Y14496970D01*
X6900904Y14517165D01*
X6900896Y14517165D01*
X6721650Y14496970D01*
X6721645Y14496969D01*
X6551376Y14437389D01*
X6398637Y14341416D01*
X6271084Y14213863D01*
X6175111Y14061124D01*
X6115531Y13890855D01*
X6115530Y13890850D01*
X6095335Y13711604D01*
X-14399500Y13711604D01*
X-14399500Y44996250D01*
X-14399274Y45003737D01*
X-14393071Y45106287D01*
X-5350500Y45106287D01*
X-5350500Y44893713D01*
X-5317246Y44683757D01*
X-5316098Y44680223D01*
X-5251556Y44481586D01*
X-5155049Y44292180D01*
X-5030110Y44120214D01*
X-4879787Y43969891D01*
X-4707821Y43844952D01*
X-4707819Y43844951D01*
X-4707816Y43844949D01*
X-4518412Y43748443D01*
X-4316243Y43682754D01*
X-4106287Y43649500D01*
X-4106286Y43649500D01*
X-3893714Y43649500D01*
X-3893713Y43649500D01*
X-3683757Y43682754D01*
X-3481588Y43748443D01*
X-3292184Y43844949D01*
X-3187903Y43920713D01*
X-3120214Y43969891D01*
X-3120212Y43969894D01*
X-3120208Y43969896D01*
X-2969896Y44120208D01*
X-2969894Y44120212D01*
X-2969891Y44120214D01*
X-2844952Y44292180D01*
X-2844953Y44292180D01*
X-2844949Y44292184D01*
X-2748443Y44481588D01*
X-2682754Y44683757D01*
X-2649500Y44893713D01*
X-2649500Y45106287D01*
X-2682754Y45316243D01*
X-2748443Y45518412D01*
X-2844949Y45707816D01*
X-2844951Y45707819D01*
X-2844952Y45707821D01*
X-2969891Y45879787D01*
X-3120214Y46030110D01*
X-3292180Y46155049D01*
X-3481586Y46251556D01*
X-3481587Y46251557D01*
X-3481588Y46251557D01*
X-3683757Y46317246D01*
X-3683759Y46317247D01*
X-3683760Y46317247D01*
X-3845043Y46342792D01*
X-3893713Y46350500D01*
X-4106287Y46350500D01*
X-4154958Y46342792D01*
X-4316240Y46317247D01*
X-4518415Y46251556D01*
X-4707821Y46155049D01*
X-4879787Y46030110D01*
X-5030110Y45879787D01*
X-5155049Y45707821D01*
X-5251556Y45518415D01*
X-5317247Y45316240D01*
X-5339108Y45178213D01*
X-5350500Y45106287D01*
X-14393071Y45106287D01*
X-14382458Y45281742D01*
X-14380653Y45296606D01*
X-14377054Y45316243D01*
X-14331126Y45566871D01*
X-14327546Y45581392D01*
X-14245801Y45843719D01*
X-14240499Y45857702D01*
X-14127727Y46108272D01*
X-14120776Y46121517D01*
X-13978622Y46356667D01*
X-13970135Y46368963D01*
X-13800669Y46585271D01*
X-13790754Y46596462D01*
X-13596462Y46790754D01*
X-13585271Y46800669D01*
X-13368963Y46970135D01*
X-13356667Y46978622D01*
X-13121517Y47120776D01*
X-13108272Y47127727D01*
X-12857702Y47240499D01*
X-12843719Y47245801D01*
X-12581392Y47327546D01*
X-12566871Y47331126D01*
X-12296605Y47380654D01*
X-12281745Y47382458D01*
X-12003736Y47399274D01*
X-11996249Y47399500D01*
X-11934108Y47399500D01*
X-3965892Y47399500D01*
X-3903751Y47399500D01*
X-3896264Y47399274D01*
G37*
%TD.AperFunction*%
%TD*%
M02*
