<?xml version="1.0" standalone="no"?>
 <!DOCTYPE svg PUBLIC "-//W3C//DTD SVG 1.1//EN" 
 "http://www.w3.org/Graphics/SVG/1.1/DTD/svg11.dtd"> 
<svg
  xmlns:svg="http://www.w3.org/2000/svg"
  xmlns="http://www.w3.org/2000/svg"
  xmlns:xlink="http://www.w3.org/1999/xlink"
  version="1.1"
  width="297.0022mm" height="210.0072mm" viewBox="0.0000 0.0000 297.0022 210.0072">
<title>SVG Image created as PMCNV-Count6-PTH-drl_map.svg date 2025/08/16 08:56:31 </title>
  <desc>Image generated by PCBNEW </desc>
<g style="fill:#000000; fill-opacity:1.0000;stroke:#000000; stroke-opacity:1.0000;
stroke-linecap:round; stroke-linejoin:round;"
 transform="translate(0 0) scale(1 1)">
</g>
<g style="fill:none; 
stroke:#000000; stroke-width:0.2315; stroke-opacity:1; 
stroke-linecap:round; stroke-linejoin:round;">
<path d="M178.6020 120.8885 A1.1577 1.1577 0.0 0 0 179.7597 119.7308" />
<path d="M178.6020 5.1158
L169.3402 5.1158
" />
<path d="M110.8334 7.4312
L167.0247 7.4312
" />
<path d="M102.1920 116.2576 A4.6309 4.6309 0.0 0 0 110.8334 118.5731" />
<path d="M167.0247 7.4312 A1.1577 1.1577 0.0 0 0 168.1825 6.2735" />
<path d="M167.0247 118.5731
L110.8334 118.5731
" />
<path d="M179.7597 6.2735 A1.1577 1.1577 0.0 0 0 178.6020 5.1158" />
<path d="M180.9175 7.4312
L191.3370 7.4312
" />
<path d="M180.9175 118.5731
L191.3370 118.5731
" />
<path d="M110.8334 7.4312 A4.6309 4.6309 0.0 0 0 102.1920 9.7467" />
<path d="M194.8102 10.9044 A3.4732 3.4732 0.0 0 0 191.3370 7.4312" />
<path d="M194.8102 10.9044
L194.8102 115.0999
" />
<path d="M191.3370 118.5731 A3.4732 3.4732 0.0 0 0 194.8102 115.0999" />
<path d="M169.3402 120.8885
L178.6020 120.8885
" />
<path d="M102.1920 116.2576
L102.1920 9.7467
" />
<path d="M168.1825 119.7308 A1.1577 1.1577 0.0 0 0 167.0247 118.5731" />
<path d="M169.3402 5.1158 A1.1577 1.1577 0.0 0 0 168.1825 6.2735" />
<path d="M179.7597 6.2735 A1.1577 1.1577 0.0 0 0 180.9175 7.4312" />
<path d="M168.1825 119.7308 A1.1577 1.1577 0.0 0 0 169.3402 120.8885" />
<path d="M180.9175 118.5731 A1.1577 1.1577 0.0 0 0 179.7597 119.7308" />
</g>
<g style="fill:none; 
stroke:#000000; stroke-width:0.0579; stroke-opacity:1; 
stroke-linecap:round; stroke-linejoin:round;">
<circle cx="105.6652" cy="17.8508" r="1.2735" /> 
<circle cx="105.6652" cy="108.1535" r="1.2735" /> 
<circle cx="138.0816" cy="10.9044" r="1.2735" /> 
<circle cx="138.0816" cy="115.0999" r="1.2735" /> 
<circle cx="173.9711" cy="116.2576" r="1.8524" /> 
<circle cx="165.8670" cy="10.9044" r="1.2735" /> 
<circle cx="165.8670" cy="115.0999" r="1.2735" /> 
<circle cx="182.0752" cy="10.9044" r="1.2735" /> 
<circle cx="182.0752" cy="115.0999" r="1.2735" /> 
<circle cx="173.9711" cy="9.7467" r="1.8524" /> 
<circle cx="106.8229" cy="9.7467" r="1.8524" /> 
</g>
<g style="fill:none; 
stroke:#000000; stroke-width:0.1158; stroke-opacity:1; 
stroke-linecap:round; stroke-linejoin:round;">
<circle cx="145.0279" cy="13.0437" r="0.1968" /> 
<circle cx="149.6588" cy="13.0437" r="0.1968" /> 
</g>
<g style="fill:none; 
stroke:#000000; stroke-width:0.0579; stroke-opacity:1; 
stroke-linecap:round; stroke-linejoin:round;">
<circle cx="106.8229" cy="116.2576" r="1.8524" /> 
</g>
<g style="fill:none; 
stroke:#000000; stroke-width:0.1158; stroke-opacity:1; 
stroke-linecap:round; stroke-linejoin:round;">
<path d="M140.2233 99.2969
L140.5707 99.6442
" />
<path d="M140.5707 99.2969
L140.2233 99.6442
" />
<path d="M140.8022 100.4547
L141.1495 100.8020
" />
<path d="M141.1495 100.4547
L140.8022 100.8020
" />
<path d="M141.9599 92.3506
L142.3073 92.6979
" />
<path d="M142.3073 92.3506
L141.9599 92.6979
" />
<path d="M141.9599 93.5083
L142.3073 93.8556
" />
<path d="M142.3073 93.5083
L141.9599 93.8556
" />
<path d="M141.9599 94.6660
L142.3073 95.0133
" />
<path d="M142.3073 94.6660
L141.9599 95.0133
" />
<path d="M141.9599 95.8237
L142.3073 96.1711
" />
<path d="M142.3073 95.8237
L141.9599 96.1711
" />
<path d="M141.9599 96.9815
L142.3073 97.3288
" />
<path d="M142.3073 96.9815
L141.9599 97.3288
" />
<path d="M141.9599 98.1392
L142.3073 98.4865
" />
<path d="M142.3073 98.1392
L141.9599 98.4865
" />
<path d="M151.2218 64.5651
L151.5691 64.9124
" />
<path d="M151.5691 64.5651
L151.2218 64.9124
" />
<path d="M152.3467 49.8359
L152.6940 50.1832
" />
<path d="M152.6940 49.8359
L152.3467 50.1832
" />
<path d="M152.6110 64.5651
L152.9584 64.9124
" />
<path d="M152.9584 64.5651
L152.6110 64.9124
" />
<path d="M153.6881 50.8233
L154.0354 51.1706
" />
<path d="M154.0354 50.8233
L153.6881 51.1706
" />
<path d="M154.8459 51.4021
L155.1932 51.7495
" />
<path d="M155.1932 51.4021
L154.8459 51.7495
" />
<path d="M155.8527 48.3569
L156.2000 48.7042
" />
<path d="M156.2000 48.3569
L155.8527 48.7042
" />
<path d="M156.4315 53.5667
L156.7789 53.9140
" />
<path d="M156.7789 53.5667
L156.4315 53.9140
" />
<path d="M157.7652 54.7237
L158.1125 55.0710
" />
<path d="M158.1125 54.7237
L157.7652 55.0710
" />
<circle cx="107.9806" cy="31.1646" r="0.2315" /> 
<circle cx="107.9806" cy="32.3224" r="0.2315" /> 
<circle cx="107.9806" cy="33.4801" r="0.2315" /> 
<circle cx="107.9806" cy="34.6378" r="0.2315" /> 
<circle cx="107.9806" cy="36.9533" r="0.2315" /> 
<circle cx="107.9806" cy="38.1110" r="0.2315" /> 
<circle cx="107.9806" cy="39.2687" r="0.2315" /> 
<circle cx="107.9806" cy="40.4265" r="0.2315" /> 
<circle cx="107.9806" cy="41.5842" r="0.2315" /> 
<circle cx="107.9806" cy="42.7419" r="0.2315" /> 
<circle cx="107.9806" cy="43.8997" r="0.2315" /> 
<circle cx="107.9806" cy="47.3728" r="0.2315" /> 
<circle cx="107.9806" cy="48.5306" r="0.2315" /> 
<circle cx="109.1384" cy="31.1646" r="0.2315" /> 
<circle cx="109.1384" cy="32.3224" r="0.2315" /> 
<circle cx="109.1384" cy="33.4801" r="0.2315" /> 
<circle cx="109.1384" cy="34.6378" r="0.2315" /> 
<circle cx="110.2961" cy="31.1646" r="0.2315" /> 
<circle cx="110.2961" cy="32.3224" r="0.2315" /> 
<circle cx="110.2961" cy="33.4801" r="0.2315" /> 
<circle cx="110.2961" cy="34.6378" r="0.2315" /> 
<circle cx="140.3970" cy="67.6331" r="0.2315" /> 
<circle cx="143.2913" cy="67.6331" r="0.2315" /> 
<circle cx="143.2913" cy="68.7908" r="0.2315" /> 
<circle cx="143.8702" cy="44.4785" r="0.2315" /> 
<circle cx="147.9222" cy="45.6362" r="0.2315" /> 
<circle cx="149.0800" cy="39.8476" r="0.2315" /> 
<circle cx="150.8166" cy="39.8476" r="0.2315" /> 
<circle cx="151.9743" cy="69.9485" r="0.2315" /> 
<circle cx="161.2361" cy="52.7592" r="0.2315" /> 
<circle cx="163.5516" cy="29.4281" r="0.2315" /> 
<circle cx="170.4979" cy="52.5826" r="0.2315" /> 
<circle cx="176.8654" cy="23.6394" r="0.2315" /> 
<circle cx="176.8654" cy="31.7435" r="0.2315" /> 
<circle cx="176.8654" cy="39.8476" r="0.2315" /> 
<circle cx="176.8654" cy="65.3176" r="0.2315" /> 
<circle cx="176.8654" cy="73.4217" r="0.2315" /> 
<circle cx="176.8654" cy="81.5258" r="0.2315" /> 
<path d="M144.0728 10.0336
L144.0728 10.6125
" />
<path d="M143.7834 10.3230
L144.3622 10.3230
" />
<path d="M143.7834 9.9178
L143.7834 10.7283
" />
<path d="M143.7834 10.7283 A0.2894 0.2894 0.0 0 0 144.3622 10.7283" />
<path d="M144.3622 10.7283
L144.3622 9.9178
" />
<path d="M144.3622 9.9178 A0.2894 0.2894 0.0 0 0 143.7834 9.9178" />
<path d="M150.6140 10.0336
L150.6140 10.6125
" />
<path d="M150.3245 10.3230
L150.9034 10.3230
" />
<path d="M150.3245 9.9178
L150.3245 10.7283
" />
<path d="M150.3245 10.7283 A0.2894 0.2894 0.0 0 0 150.9034 10.7283" />
<path d="M150.9034 10.7283
L150.9034 9.9178
" />
<path d="M150.9034 9.9178 A0.2894 0.2894 0.0 0 0 150.3245 9.9178" />
<path style="fill:none; 
stroke:#000000; stroke-width:0.1621; stroke-opacity:1; 
stroke-linecap:round; stroke-linejoin:round;fill:none"
d="M 189.5946,13.7929
189.5946,12.6468
188.4485,12.6468
188.4485,13.7929
Z" /> 
<path style="fill:none; 
stroke:#000000; stroke-width:0.1621; stroke-opacity:1; 
stroke-linecap:round; stroke-linejoin:round;fill:none"
d="M 189.5946,17.8450
189.5946,16.6989
188.4485,16.6989
188.4485,17.8450
Z" /> 
<path style="fill:none; 
stroke:#000000; stroke-width:0.1621; stroke-opacity:1; 
stroke-linecap:round; stroke-linejoin:round;fill:none"
d="M 189.5946,21.8970
189.5946,20.7509
188.4485,20.7509
188.4485,21.8970
Z" /> 
<path style="fill:none; 
stroke:#000000; stroke-width:0.1621; stroke-opacity:1; 
stroke-linecap:round; stroke-linejoin:round;fill:none"
d="M 189.5946,25.9491
189.5946,24.8030
188.4485,24.8030
188.4485,25.9491
Z" /> 
<path style="fill:none; 
stroke:#000000; stroke-width:0.1621; stroke-opacity:1; 
stroke-linecap:round; stroke-linejoin:round;fill:none"
d="M 189.5946,30.0011
189.5946,28.8550
188.4485,28.8550
188.4485,30.0011
Z" /> 
<path style="fill:none; 
stroke:#000000; stroke-width:0.1621; stroke-opacity:1; 
stroke-linecap:round; stroke-linejoin:round;fill:none"
d="M 189.5946,34.0532
189.5946,32.9071
188.4485,32.9071
188.4485,34.0532
Z" /> 
<path style="fill:none; 
stroke:#000000; stroke-width:0.1621; stroke-opacity:1; 
stroke-linecap:round; stroke-linejoin:round;fill:none"
d="M 189.5946,38.1052
189.5946,36.9591
188.4485,36.9591
188.4485,38.1052
Z" /> 
<path style="fill:none; 
stroke:#000000; stroke-width:0.1621; stroke-opacity:1; 
stroke-linecap:round; stroke-linejoin:round;fill:none"
d="M 189.5946,42.1572
189.5946,41.0111
188.4485,41.0111
188.4485,42.1572
Z" /> 
<path style="fill:none; 
stroke:#000000; stroke-width:0.1621; stroke-opacity:1; 
stroke-linecap:round; stroke-linejoin:round;fill:none"
d="M 189.5946,46.2093
189.5946,45.0632
188.4485,45.0632
188.4485,46.2093
Z" /> 
<path style="fill:none; 
stroke:#000000; stroke-width:0.1621; stroke-opacity:1; 
stroke-linecap:round; stroke-linejoin:round;fill:none"
d="M 189.5946,50.2613
189.5946,49.1152
188.4485,49.1152
188.4485,50.2613
Z" /> 
<path style="fill:none; 
stroke:#000000; stroke-width:0.1621; stroke-opacity:1; 
stroke-linecap:round; stroke-linejoin:round;fill:none"
d="M 189.5946,55.4711
189.5946,54.3250
188.4485,54.3250
188.4485,55.4711
Z" /> 
<path style="fill:none; 
stroke:#000000; stroke-width:0.1621; stroke-opacity:1; 
stroke-linecap:round; stroke-linejoin:round;fill:none"
d="M 189.5946,59.5232
189.5946,58.3771
188.4485,58.3771
188.4485,59.5232
Z" /> 
<path style="fill:none; 
stroke:#000000; stroke-width:0.1621; stroke-opacity:1; 
stroke-linecap:round; stroke-linejoin:round;fill:none"
d="M 189.5946,63.5752
189.5946,62.4291
188.4485,62.4291
188.4485,63.5752
Z" /> 
<path style="fill:none; 
stroke:#000000; stroke-width:0.1621; stroke-opacity:1; 
stroke-linecap:round; stroke-linejoin:round;fill:none"
d="M 189.5946,67.6273
189.5946,66.4812
188.4485,66.4812
188.4485,67.6273
Z" /> 
<path style="fill:none; 
stroke:#000000; stroke-width:0.1621; stroke-opacity:1; 
stroke-linecap:round; stroke-linejoin:round;fill:none"
d="M 189.5946,71.6793
189.5946,70.5332
188.4485,70.5332
188.4485,71.6793
Z" /> 
<path style="fill:none; 
stroke:#000000; stroke-width:0.1621; stroke-opacity:1; 
stroke-linecap:round; stroke-linejoin:round;fill:none"
d="M 189.5946,75.7314
189.5946,74.5853
188.4485,74.5853
188.4485,75.7314
Z" /> 
<path style="fill:none; 
stroke:#000000; stroke-width:0.1621; stroke-opacity:1; 
stroke-linecap:round; stroke-linejoin:round;fill:none"
d="M 189.5946,79.7834
189.5946,78.6373
188.4485,78.6373
188.4485,79.7834
Z" /> 
<path style="fill:none; 
stroke:#000000; stroke-width:0.1621; stroke-opacity:1; 
stroke-linecap:round; stroke-linejoin:round;fill:none"
d="M 189.5946,83.8354
189.5946,82.6893
188.4485,82.6893
188.4485,83.8354
Z" /> 
<path style="fill:none; 
stroke:#000000; stroke-width:0.1621; stroke-opacity:1; 
stroke-linecap:round; stroke-linejoin:round;fill:none"
d="M 189.5946,87.8875
189.5946,86.7414
188.4485,86.7414
188.4485,87.8875
Z" /> 
<path style="fill:none; 
stroke:#000000; stroke-width:0.1621; stroke-opacity:1; 
stroke-linecap:round; stroke-linejoin:round;fill:none"
d="M 189.5946,91.9395
189.5946,90.7934
188.4485,90.7934
188.4485,91.9395
Z" /> 
<path style="fill:none; 
stroke:#000000; stroke-width:0.1621; stroke-opacity:1; 
stroke-linecap:round; stroke-linejoin:round;fill:none"
d="M 189.5946,97.1493
189.5946,96.0032
188.4485,96.0032
188.4485,97.1493
Z" /> 
<path style="fill:none; 
stroke:#000000; stroke-width:0.1621; stroke-opacity:1; 
stroke-linecap:round; stroke-linejoin:round;fill:none"
d="M 189.5946,101.2014
189.5946,100.0553
188.4485,100.0553
188.4485,101.2014
Z" /> 
<path style="fill:none; 
stroke:#000000; stroke-width:0.1621; stroke-opacity:1; 
stroke-linecap:round; stroke-linejoin:round;fill:none"
d="M 189.5946,105.2534
189.5946,104.1073
188.4485,104.1073
188.4485,105.2534
Z" /> 
<path style="fill:none; 
stroke:#000000; stroke-width:0.1621; stroke-opacity:1; 
stroke-linecap:round; stroke-linejoin:round;fill:none"
d="M 189.5946,109.3055
189.5946,108.1594
188.4485,108.1594
188.4485,109.3055
Z" /> 
<path style="fill:none; 
stroke:#000000; stroke-width:0.1621; stroke-opacity:1; 
stroke-linecap:round; stroke-linejoin:round;fill:none"
d="M 189.5946,113.3575
189.5946,112.2114
188.4485,112.2114
188.4485,113.3575
Z" /> 
</g>
<g style="fill:none; 
stroke:#000000; stroke-width:0.2000; stroke-opacity:1; 
stroke-linecap:round; stroke-linejoin:round;">
<text x="104.0762" y="124.2043"
textLength="14.8667" font-size="2.6667" lengthAdjust="spacingAndGlyphs"
text-anchor="start" opacity="0" stroke-opacity="0">Drill Map:</text>
<g class="stroked-text"><desc>Drill Map:</desc>
<path d="M104.6840 124.1192
L104.6840 122.1192
" />
<path d="M104.6840 122.1192
L105.1602 122.1192
" />
<path d="M105.1602 122.1192
L105.4459 122.2144
" />
<path d="M105.4459 122.2144
L105.6364 122.4049
" />
<path d="M105.6364 122.4049
L105.7316 122.5953
" />
<path d="M105.7316 122.5953
L105.8268 122.9763
" />
<path d="M105.8268 122.9763
L105.8268 123.2620
" />
<path d="M105.8268 123.2620
L105.7316 123.6430
" />
<path d="M105.7316 123.6430
L105.6364 123.8334
" />
<path d="M105.6364 123.8334
L105.4459 124.0239
" />
<path d="M105.4459 124.0239
L105.1602 124.1192
" />
<path d="M105.1602 124.1192
L104.6840 124.1192
" />
<path d="M106.6840 124.1192
L106.6840 122.7858
" />
<path d="M106.6840 123.1668
L106.7792 122.9763
" />
<path d="M106.7792 122.9763
L106.8745 122.8811
" />
<path d="M106.8745 122.8811
L107.0649 122.7858
" />
<path d="M107.0649 122.7858
L107.2554 122.7858
" />
<path d="M107.9221 124.1192
L107.9221 122.7858
" />
<path d="M107.9221 122.1192
L107.8268 122.2144
" />
<path d="M107.8268 122.2144
L107.9221 122.3096
" />
<path d="M107.9221 122.3096
L108.0173 122.2144
" />
<path d="M108.0173 122.2144
L107.9221 122.1192
" />
<path d="M107.9221 122.1192
L107.9221 122.3096
" />
<path d="M109.1602 124.1192
L108.9697 124.0239
" />
<path d="M108.9697 124.0239
L108.8745 123.8334
" />
<path d="M108.8745 123.8334
L108.8745 122.1192
" />
<path d="M110.2078 124.1192
L110.0173 124.0239
" />
<path d="M110.0173 124.0239
L109.9221 123.8334
" />
<path d="M109.9221 123.8334
L109.9221 122.1192
" />
<path d="M112.4935 124.1192
L112.4935 122.1192
" />
<path d="M112.4935 122.1192
L113.1602 123.5477
" />
<path d="M113.1602 123.5477
L113.8268 122.1192
" />
<path d="M113.8268 122.1192
L113.8268 124.1192
" />
<path d="M115.6364 124.1192
L115.6364 123.0715
" />
<path d="M115.6364 123.0715
L115.5411 122.8811
" />
<path d="M115.5411 122.8811
L115.3507 122.7858
" />
<path d="M115.3507 122.7858
L114.9697 122.7858
" />
<path d="M114.9697 122.7858
L114.7792 122.8811
" />
<path d="M115.6364 124.0239
L115.4459 124.1192
" />
<path d="M115.4459 124.1192
L114.9697 124.1192
" />
<path d="M114.9697 124.1192
L114.7792 124.0239
" />
<path d="M114.7792 124.0239
L114.6840 123.8334
" />
<path d="M114.6840 123.8334
L114.6840 123.6430
" />
<path d="M114.6840 123.6430
L114.7792 123.4525
" />
<path d="M114.7792 123.4525
L114.9697 123.3573
" />
<path d="M114.9697 123.3573
L115.4459 123.3573
" />
<path d="M115.4459 123.3573
L115.6364 123.2620
" />
<path d="M116.5887 122.7858
L116.5887 124.7858
" />
<path d="M116.5887 122.8811
L116.7792 122.7858
" />
<path d="M116.7792 122.7858
L117.1602 122.7858
" />
<path d="M117.1602 122.7858
L117.3507 122.8811
" />
<path d="M117.3507 122.8811
L117.4459 122.9763
" />
<path d="M117.4459 122.9763
L117.5411 123.1668
" />
<path d="M117.5411 123.1668
L117.5411 123.7382
" />
<path d="M117.5411 123.7382
L117.4459 123.9287
" />
<path d="M117.4459 123.9287
L117.3507 124.0239
" />
<path d="M117.3507 124.0239
L117.1602 124.1192
" />
<path d="M117.1602 124.1192
L116.7792 124.1192
" />
<path d="M116.7792 124.1192
L116.5887 124.0239
" />
<path d="M118.3983 123.9287
L118.4935 124.0239
" />
<path d="M118.4935 124.0239
L118.3983 124.1192
" />
<path d="M118.3983 124.1192
L118.3030 124.0239
" />
<path d="M118.3030 124.0239
L118.3983 123.9287
" />
<path d="M118.3983 123.9287
L118.3983 124.1192
" />
<path d="M118.3983 122.8811
L118.4935 122.9763
" />
<path d="M118.4935 122.9763
L118.3983 123.0715
" />
<path d="M118.3983 123.0715
L118.3030 122.9763
" />
<path d="M118.3030 122.9763
L118.3983 122.8811
" />
<path d="M118.3983 122.8811
L118.3983 123.0715
" />
</g></g>
<g style="fill:none; 
stroke:#000000; stroke-width:0.1158; stroke-opacity:1; 
stroke-linecap:round; stroke-linejoin:round;">
<path d="M101.7289 127.2307
L102.0762 127.5780
" />
<path d="M102.0762 127.2307
L101.7289 127.5780
" />
</g>
<g style="fill:none; 
stroke:#000000; stroke-width:0.2000; stroke-opacity:1; 
stroke-linecap:round; stroke-linejoin:round;">
<text x="104.0762" y="128.4043"
textLength="48.7714" font-size="2.6667" lengthAdjust="spacingAndGlyphs"
text-anchor="start" opacity="0" stroke-opacity="0">0.300mm / 0.0118" (16 holes)</text>
<g class="stroked-text"><desc>0.300mm / 0.0118" (16 holes)</desc>
<path d="M105.0649 126.3192
L105.2554 126.3192
" />
<path d="M105.2554 126.3192
L105.4459 126.4144
" />
<path d="M105.4459 126.4144
L105.5411 126.5096
" />
<path d="M105.5411 126.5096
L105.6364 126.7001
" />
<path d="M105.6364 126.7001
L105.7316 127.0811
" />
<path d="M105.7316 127.0811
L105.7316 127.5573
" />
<path d="M105.7316 127.5573
L105.6364 127.9382
" />
<path d="M105.6364 127.9382
L105.5411 128.1287
" />
<path d="M105.5411 128.1287
L105.4459 128.2239
" />
<path d="M105.4459 128.2239
L105.2554 128.3192
" />
<path d="M105.2554 128.3192
L105.0649 128.3192
" />
<path d="M105.0649 128.3192
L104.8745 128.2239
" />
<path d="M104.8745 128.2239
L104.7792 128.1287
" />
<path d="M104.7792 128.1287
L104.6840 127.9382
" />
<path d="M104.6840 127.9382
L104.5887 127.5573
" />
<path d="M104.5887 127.5573
L104.5887 127.0811
" />
<path d="M104.5887 127.0811
L104.6840 126.7001
" />
<path d="M104.6840 126.7001
L104.7792 126.5096
" />
<path d="M104.7792 126.5096
L104.8745 126.4144
" />
<path d="M104.8745 126.4144
L105.0649 126.3192
" />
<path d="M106.5887 128.1287
L106.6840 128.2239
" />
<path d="M106.6840 128.2239
L106.5887 128.3192
" />
<path d="M106.5887 128.3192
L106.4935 128.2239
" />
<path d="M106.4935 128.2239
L106.5887 128.1287
" />
<path d="M106.5887 128.1287
L106.5887 128.3192
" />
<path d="M107.3507 126.3192
L108.5887 126.3192
" />
<path d="M108.5887 126.3192
L107.9221 127.0811
" />
<path d="M107.9221 127.0811
L108.2078 127.0811
" />
<path d="M108.2078 127.0811
L108.3983 127.1763
" />
<path d="M108.3983 127.1763
L108.4935 127.2715
" />
<path d="M108.4935 127.2715
L108.5887 127.4620
" />
<path d="M108.5887 127.4620
L108.5887 127.9382
" />
<path d="M108.5887 127.9382
L108.4935 128.1287
" />
<path d="M108.4935 128.1287
L108.3983 128.2239
" />
<path d="M108.3983 128.2239
L108.2078 128.3192
" />
<path d="M108.2078 128.3192
L107.6364 128.3192
" />
<path d="M107.6364 128.3192
L107.4459 128.2239
" />
<path d="M107.4459 128.2239
L107.3507 128.1287
" />
<path d="M109.8268 126.3192
L110.0173 126.3192
" />
<path d="M110.0173 126.3192
L110.2078 126.4144
" />
<path d="M110.2078 126.4144
L110.3030 126.5096
" />
<path d="M110.3030 126.5096
L110.3983 126.7001
" />
<path d="M110.3983 126.7001
L110.4935 127.0811
" />
<path d="M110.4935 127.0811
L110.4935 127.5573
" />
<path d="M110.4935 127.5573
L110.3983 127.9382
" />
<path d="M110.3983 127.9382
L110.3030 128.1287
" />
<path d="M110.3030 128.1287
L110.2078 128.2239
" />
<path d="M110.2078 128.2239
L110.0173 128.3192
" />
<path d="M110.0173 128.3192
L109.8268 128.3192
" />
<path d="M109.8268 128.3192
L109.6364 128.2239
" />
<path d="M109.6364 128.2239
L109.5411 128.1287
" />
<path d="M109.5411 128.1287
L109.4459 127.9382
" />
<path d="M109.4459 127.9382
L109.3507 127.5573
" />
<path d="M109.3507 127.5573
L109.3507 127.0811
" />
<path d="M109.3507 127.0811
L109.4459 126.7001
" />
<path d="M109.4459 126.7001
L109.5411 126.5096
" />
<path d="M109.5411 126.5096
L109.6364 126.4144
" />
<path d="M109.6364 126.4144
L109.8268 126.3192
" />
<path d="M111.7316 126.3192
L111.9221 126.3192
" />
<path d="M111.9221 126.3192
L112.1126 126.4144
" />
<path d="M112.1126 126.4144
L112.2078 126.5096
" />
<path d="M112.2078 126.5096
L112.3030 126.7001
" />
<path d="M112.3030 126.7001
L112.3983 127.0811
" />
<path d="M112.3983 127.0811
L112.3983 127.5573
" />
<path d="M112.3983 127.5573
L112.3030 127.9382
" />
<path d="M112.3030 127.9382
L112.2078 128.1287
" />
<path d="M112.2078 128.1287
L112.1126 128.2239
" />
<path d="M112.1126 128.2239
L111.9221 128.3192
" />
<path d="M111.9221 128.3192
L111.7316 128.3192
" />
<path d="M111.7316 128.3192
L111.5411 128.2239
" />
<path d="M111.5411 128.2239
L111.4459 128.1287
" />
<path d="M111.4459 128.1287
L111.3507 127.9382
" />
<path d="M111.3507 127.9382
L111.2554 127.5573
" />
<path d="M111.2554 127.5573
L111.2554 127.0811
" />
<path d="M111.2554 127.0811
L111.3507 126.7001
" />
<path d="M111.3507 126.7001
L111.4459 126.5096
" />
<path d="M111.4459 126.5096
L111.5411 126.4144
" />
<path d="M111.5411 126.4144
L111.7316 126.3192
" />
<path d="M113.2554 128.3192
L113.2554 126.9858
" />
<path d="M113.2554 127.1763
L113.3507 127.0811
" />
<path d="M113.3507 127.0811
L113.5411 126.9858
" />
<path d="M113.5411 126.9858
L113.8268 126.9858
" />
<path d="M113.8268 126.9858
L114.0173 127.0811
" />
<path d="M114.0173 127.0811
L114.1126 127.2715
" />
<path d="M114.1126 127.2715
L114.1126 128.3192
" />
<path d="M114.1126 127.2715
L114.2078 127.0811
" />
<path d="M114.2078 127.0811
L114.3983 126.9858
" />
<path d="M114.3983 126.9858
L114.6840 126.9858
" />
<path d="M114.6840 126.9858
L114.8745 127.0811
" />
<path d="M114.8745 127.0811
L114.9697 127.2715
" />
<path d="M114.9697 127.2715
L114.9697 128.3192
" />
<path d="M115.9221 128.3192
L115.9221 126.9858
" />
<path d="M115.9221 127.1763
L116.0173 127.0811
" />
<path d="M116.0173 127.0811
L116.2078 126.9858
" />
<path d="M116.2078 126.9858
L116.4935 126.9858
" />
<path d="M116.4935 126.9858
L116.6840 127.0811
" />
<path d="M116.6840 127.0811
L116.7792 127.2715
" />
<path d="M116.7792 127.2715
L116.7792 128.3192
" />
<path d="M116.7792 127.2715
L116.8745 127.0811
" />
<path d="M116.8745 127.0811
L117.0649 126.9858
" />
<path d="M117.0649 126.9858
L117.3507 126.9858
" />
<path d="M117.3507 126.9858
L117.5411 127.0811
" />
<path d="M117.5411 127.0811
L117.6364 127.2715
" />
<path d="M117.6364 127.2715
L117.6364 128.3192
" />
<path d="M121.5411 126.2239
L119.8268 128.7953
" />
<path d="M124.1126 126.3192
L124.3030 126.3192
" />
<path d="M124.3030 126.3192
L124.4935 126.4144
" />
<path d="M124.4935 126.4144
L124.5887 126.5096
" />
<path d="M124.5887 126.5096
L124.6840 126.7001
" />
<path d="M124.6840 126.7001
L124.7792 127.0811
" />
<path d="M124.7792 127.0811
L124.7792 127.5573
" />
<path d="M124.7792 127.5573
L124.6840 127.9382
" />
<path d="M124.6840 127.9382
L124.5887 128.1287
" />
<path d="M124.5887 128.1287
L124.4935 128.2239
" />
<path d="M124.4935 128.2239
L124.3030 128.3192
" />
<path d="M124.3030 128.3192
L124.1126 128.3192
" />
<path d="M124.1126 128.3192
L123.9221 128.2239
" />
<path d="M123.9221 128.2239
L123.8268 128.1287
" />
<path d="M123.8268 128.1287
L123.7316 127.9382
" />
<path d="M123.7316 127.9382
L123.6364 127.5573
" />
<path d="M123.6364 127.5573
L123.6364 127.0811
" />
<path d="M123.6364 127.0811
L123.7316 126.7001
" />
<path d="M123.7316 126.7001
L123.8268 126.5096
" />
<path d="M123.8268 126.5096
L123.9221 126.4144
" />
<path d="M123.9221 126.4144
L124.1126 126.3192
" />
<path d="M125.6364 128.1287
L125.7316 128.2239
" />
<path d="M125.7316 128.2239
L125.6364 128.3192
" />
<path d="M125.6364 128.3192
L125.5411 128.2239
" />
<path d="M125.5411 128.2239
L125.6364 128.1287
" />
<path d="M125.6364 128.1287
L125.6364 128.3192
" />
<path d="M126.9697 126.3192
L127.1602 126.3192
" />
<path d="M127.1602 126.3192
L127.3507 126.4144
" />
<path d="M127.3507 126.4144
L127.4459 126.5096
" />
<path d="M127.4459 126.5096
L127.5411 126.7001
" />
<path d="M127.5411 126.7001
L127.6364 127.0811
" />
<path d="M127.6364 127.0811
L127.6364 127.5573
" />
<path d="M127.6364 127.5573
L127.5411 127.9382
" />
<path d="M127.5411 127.9382
L127.4459 128.1287
" />
<path d="M127.4459 128.1287
L127.3507 128.2239
" />
<path d="M127.3507 128.2239
L127.1602 128.3192
" />
<path d="M127.1602 128.3192
L126.9697 128.3192
" />
<path d="M126.9697 128.3192
L126.7792 128.2239
" />
<path d="M126.7792 128.2239
L126.6840 128.1287
" />
<path d="M126.6840 128.1287
L126.5887 127.9382
" />
<path d="M126.5887 127.9382
L126.4935 127.5573
" />
<path d="M126.4935 127.5573
L126.4935 127.0811
" />
<path d="M126.4935 127.0811
L126.5887 126.7001
" />
<path d="M126.5887 126.7001
L126.6840 126.5096
" />
<path d="M126.6840 126.5096
L126.7792 126.4144
" />
<path d="M126.7792 126.4144
L126.9697 126.3192
" />
<path d="M129.5411 128.3192
L128.3983 128.3192
" />
<path d="M128.9697 128.3192
L128.9697 126.3192
" />
<path d="M128.9697 126.3192
L128.7792 126.6049
" />
<path d="M128.7792 126.6049
L128.5887 126.7953
" />
<path d="M128.5887 126.7953
L128.3983 126.8906
" />
<path d="M131.4459 128.3192
L130.3030 128.3192
" />
<path d="M130.8745 128.3192
L130.8745 126.3192
" />
<path d="M130.8745 126.3192
L130.6840 126.6049
" />
<path d="M130.6840 126.6049
L130.4935 126.7953
" />
<path d="M130.4935 126.7953
L130.3030 126.8906
" />
<path d="M132.5888 127.1763
L132.3983 127.0811
" />
<path d="M132.3983 127.0811
L132.3030 126.9858
" />
<path d="M132.3030 126.9858
L132.2078 126.7953
" />
<path d="M132.2078 126.7953
L132.2078 126.7001
" />
<path d="M132.2078 126.7001
L132.3030 126.5096
" />
<path d="M132.3030 126.5096
L132.3983 126.4144
" />
<path d="M132.3983 126.4144
L132.5888 126.3192
" />
<path d="M132.5888 126.3192
L132.9697 126.3192
" />
<path d="M132.9697 126.3192
L133.1602 126.4144
" />
<path d="M133.1602 126.4144
L133.2554 126.5096
" />
<path d="M133.2554 126.5096
L133.3507 126.7001
" />
<path d="M133.3507 126.7001
L133.3507 126.7953
" />
<path d="M133.3507 126.7953
L133.2554 126.9858
" />
<path d="M133.2554 126.9858
L133.1602 127.0811
" />
<path d="M133.1602 127.0811
L132.9697 127.1763
" />
<path d="M132.9697 127.1763
L132.5888 127.1763
" />
<path d="M132.5888 127.1763
L132.3983 127.2715
" />
<path d="M132.3983 127.2715
L132.3030 127.3668
" />
<path d="M132.3030 127.3668
L132.2078 127.5573
" />
<path d="M132.2078 127.5573
L132.2078 127.9382
" />
<path d="M132.2078 127.9382
L132.3030 128.1287
" />
<path d="M132.3030 128.1287
L132.3983 128.2239
" />
<path d="M132.3983 128.2239
L132.5888 128.3192
" />
<path d="M132.5888 128.3192
L132.9697 128.3192
" />
<path d="M132.9697 128.3192
L133.1602 128.2239
" />
<path d="M133.1602 128.2239
L133.2554 128.1287
" />
<path d="M133.2554 128.1287
L133.3507 127.9382
" />
<path d="M133.3507 127.9382
L133.3507 127.5573
" />
<path d="M133.3507 127.5573
L133.2554 127.3668
" />
<path d="M133.2554 127.3668
L133.1602 127.2715
" />
<path d="M133.1602 127.2715
L132.9697 127.1763
" />
<path d="M134.1126 126.3192
L134.1126 126.7001
" />
<path d="M134.8745 126.3192
L134.8745 126.7001
" />
<path d="M137.8268 129.0811
L137.7316 128.9858
" />
<path d="M137.7316 128.9858
L137.5411 128.7001
" />
<path d="M137.5411 128.7001
L137.4459 128.5096
" />
<path d="M137.4459 128.5096
L137.3507 128.2239
" />
<path d="M137.3507 128.2239
L137.2554 127.7477
" />
<path d="M137.2554 127.7477
L137.2554 127.3668
" />
<path d="M137.2554 127.3668
L137.3507 126.8906
" />
<path d="M137.3507 126.8906
L137.4459 126.6049
" />
<path d="M137.4459 126.6049
L137.5411 126.4144
" />
<path d="M137.5411 126.4144
L137.7316 126.1287
" />
<path d="M137.7316 126.1287
L137.8268 126.0334
" />
<path d="M139.6364 128.3192
L138.4935 128.3192
" />
<path d="M139.0649 128.3192
L139.0649 126.3192
" />
<path d="M139.0649 126.3192
L138.8745 126.6049
" />
<path d="M138.8745 126.6049
L138.6840 126.7953
" />
<path d="M138.6840 126.7953
L138.4935 126.8906
" />
<path d="M141.3507 126.3192
L140.9697 126.3192
" />
<path d="M140.9697 126.3192
L140.7792 126.4144
" />
<path d="M140.7792 126.4144
L140.6840 126.5096
" />
<path d="M140.6840 126.5096
L140.4935 126.7953
" />
<path d="M140.4935 126.7953
L140.3983 127.1763
" />
<path d="M140.3983 127.1763
L140.3983 127.9382
" />
<path d="M140.3983 127.9382
L140.4935 128.1287
" />
<path d="M140.4935 128.1287
L140.5887 128.2239
" />
<path d="M140.5887 128.2239
L140.7792 128.3192
" />
<path d="M140.7792 128.3192
L141.1602 128.3192
" />
<path d="M141.1602 128.3192
L141.3507 128.2239
" />
<path d="M141.3507 128.2239
L141.4459 128.1287
" />
<path d="M141.4459 128.1287
L141.5411 127.9382
" />
<path d="M141.5411 127.9382
L141.5411 127.4620
" />
<path d="M141.5411 127.4620
L141.4459 127.2715
" />
<path d="M141.4459 127.2715
L141.3507 127.1763
" />
<path d="M141.3507 127.1763
L141.1602 127.0811
" />
<path d="M141.1602 127.0811
L140.7792 127.0811
" />
<path d="M140.7792 127.0811
L140.5887 127.1763
" />
<path d="M140.5887 127.1763
L140.4935 127.2715
" />
<path d="M140.4935 127.2715
L140.3983 127.4620
" />
<path d="M143.9221 128.3192
L143.9221 126.3192
" />
<path d="M144.7792 128.3192
L144.7792 127.2715
" />
<path d="M144.7792 127.2715
L144.6840 127.0811
" />
<path d="M144.6840 127.0811
L144.4935 126.9858
" />
<path d="M144.4935 126.9858
L144.2078 126.9858
" />
<path d="M144.2078 126.9858
L144.0173 127.0811
" />
<path d="M144.0173 127.0811
L143.9221 127.1763
" />
<path d="M146.0173 128.3192
L145.8268 128.2239
" />
<path d="M145.8268 128.2239
L145.7316 128.1287
" />
<path d="M145.7316 128.1287
L145.6364 127.9382
" />
<path d="M145.6364 127.9382
L145.6364 127.3668
" />
<path d="M145.6364 127.3668
L145.7316 127.1763
" />
<path d="M145.7316 127.1763
L145.8268 127.0811
" />
<path d="M145.8268 127.0811
L146.0173 126.9858
" />
<path d="M146.0173 126.9858
L146.3030 126.9858
" />
<path d="M146.3030 126.9858
L146.4935 127.0811
" />
<path d="M146.4935 127.0811
L146.5888 127.1763
" />
<path d="M146.5888 127.1763
L146.6840 127.3668
" />
<path d="M146.6840 127.3668
L146.6840 127.9382
" />
<path d="M146.6840 127.9382
L146.5888 128.1287
" />
<path d="M146.5888 128.1287
L146.4935 128.2239
" />
<path d="M146.4935 128.2239
L146.3030 128.3192
" />
<path d="M146.3030 128.3192
L146.0173 128.3192
" />
<path d="M147.8268 128.3192
L147.6364 128.2239
" />
<path d="M147.6364 128.2239
L147.5411 128.0334
" />
<path d="M147.5411 128.0334
L147.5411 126.3192
" />
<path d="M149.3507 128.2239
L149.1602 128.3192
" />
<path d="M149.1602 128.3192
L148.7792 128.3192
" />
<path d="M148.7792 128.3192
L148.5887 128.2239
" />
<path d="M148.5887 128.2239
L148.4935 128.0334
" />
<path d="M148.4935 128.0334
L148.4935 127.2715
" />
<path d="M148.4935 127.2715
L148.5887 127.0811
" />
<path d="M148.5887 127.0811
L148.7792 126.9858
" />
<path d="M148.7792 126.9858
L149.1602 126.9858
" />
<path d="M149.1602 126.9858
L149.3507 127.0811
" />
<path d="M149.3507 127.0811
L149.4459 127.2715
" />
<path d="M149.4459 127.2715
L149.4459 127.4620
" />
<path d="M149.4459 127.4620
L148.4935 127.6525
" />
<path d="M150.2078 128.2239
L150.3983 128.3192
" />
<path d="M150.3983 128.3192
L150.7792 128.3192
" />
<path d="M150.7792 128.3192
L150.9697 128.2239
" />
<path d="M150.9697 128.2239
L151.0649 128.0334
" />
<path d="M151.0649 128.0334
L151.0649 127.9382
" />
<path d="M151.0649 127.9382
L150.9697 127.7477
" />
<path d="M150.9697 127.7477
L150.7792 127.6525
" />
<path d="M150.7792 127.6525
L150.4935 127.6525
" />
<path d="M150.4935 127.6525
L150.3030 127.5573
" />
<path d="M150.3030 127.5573
L150.2078 127.3668
" />
<path d="M150.2078 127.3668
L150.2078 127.2715
" />
<path d="M150.2078 127.2715
L150.3030 127.0811
" />
<path d="M150.3030 127.0811
L150.4935 126.9858
" />
<path d="M150.4935 126.9858
L150.7792 126.9858
" />
<path d="M150.7792 126.9858
L150.9697 127.0811
" />
<path d="M151.7316 129.0811
L151.8268 128.9858
" />
<path d="M151.8268 128.9858
L152.0173 128.7001
" />
<path d="M152.0173 128.7001
L152.1126 128.5096
" />
<path d="M152.1126 128.5096
L152.2078 128.2239
" />
<path d="M152.2078 128.2239
L152.3030 127.7477
" />
<path d="M152.3030 127.7477
L152.3030 127.3668
" />
<path d="M152.3030 127.3668
L152.2078 126.8906
" />
<path d="M152.2078 126.8906
L152.1126 126.6049
" />
<path d="M152.1126 126.6049
L152.0173 126.4144
" />
<path d="M152.0173 126.4144
L151.8268 126.1287
" />
<path d="M151.8268 126.1287
L151.7316 126.0334
" />
</g></g>
<g style="fill:none; 
stroke:#000000; stroke-width:0.1158; stroke-opacity:1; 
stroke-linecap:round; stroke-linejoin:round;">
<circle cx="101.8447" cy="130.0443" r="0.2315" /> 
</g>
<g style="fill:none; 
stroke:#000000; stroke-width:0.2000; stroke-opacity:1; 
stroke-linecap:round; stroke-linejoin:round;">
<text x="104.0762" y="131.0443"
textLength="48.7714" font-size="2.6667" lengthAdjust="spacingAndGlyphs"
text-anchor="start" opacity="0" stroke-opacity="0">0.400mm / 0.0157" (38 holes)</text>
<g class="stroked-text"><desc>0.400mm / 0.0157" (38 holes)</desc>
<path d="M105.0649 128.9592
L105.2554 128.9592
" />
<path d="M105.2554 128.9592
L105.4459 129.0544
" />
<path d="M105.4459 129.0544
L105.5411 129.1496
" />
<path d="M105.5411 129.1496
L105.6364 129.3401
" />
<path d="M105.6364 129.3401
L105.7316 129.7211
" />
<path d="M105.7316 129.7211
L105.7316 130.1973
" />
<path d="M105.7316 130.1973
L105.6364 130.5782
" />
<path d="M105.6364 130.5782
L105.5411 130.7687
" />
<path d="M105.5411 130.7687
L105.4459 130.8639
" />
<path d="M105.4459 130.8639
L105.2554 130.9592
" />
<path d="M105.2554 130.9592
L105.0649 130.9592
" />
<path d="M105.0649 130.9592
L104.8745 130.8639
" />
<path d="M104.8745 130.8639
L104.7792 130.7687
" />
<path d="M104.7792 130.7687
L104.6840 130.5782
" />
<path d="M104.6840 130.5782
L104.5887 130.1973
" />
<path d="M104.5887 130.1973
L104.5887 129.7211
" />
<path d="M104.5887 129.7211
L104.6840 129.3401
" />
<path d="M104.6840 129.3401
L104.7792 129.1496
" />
<path d="M104.7792 129.1496
L104.8745 129.0544
" />
<path d="M104.8745 129.0544
L105.0649 128.9592
" />
<path d="M106.5887 130.7687
L106.6840 130.8639
" />
<path d="M106.6840 130.8639
L106.5887 130.9592
" />
<path d="M106.5887 130.9592
L106.4935 130.8639
" />
<path d="M106.4935 130.8639
L106.5887 130.7687
" />
<path d="M106.5887 130.7687
L106.5887 130.9592
" />
<path d="M108.3983 129.6258
L108.3983 130.9592
" />
<path d="M107.9221 128.8639
L107.4459 130.2925
" />
<path d="M107.4459 130.2925
L108.6840 130.2925
" />
<path d="M109.8268 128.9592
L110.0173 128.9592
" />
<path d="M110.0173 128.9592
L110.2078 129.0544
" />
<path d="M110.2078 129.0544
L110.3030 129.1496
" />
<path d="M110.3030 129.1496
L110.3983 129.3401
" />
<path d="M110.3983 129.3401
L110.4935 129.7211
" />
<path d="M110.4935 129.7211
L110.4935 130.1973
" />
<path d="M110.4935 130.1973
L110.3983 130.5782
" />
<path d="M110.3983 130.5782
L110.3030 130.7687
" />
<path d="M110.3030 130.7687
L110.2078 130.8639
" />
<path d="M110.2078 130.8639
L110.0173 130.9592
" />
<path d="M110.0173 130.9592
L109.8268 130.9592
" />
<path d="M109.8268 130.9592
L109.6364 130.8639
" />
<path d="M109.6364 130.8639
L109.5411 130.7687
" />
<path d="M109.5411 130.7687
L109.4459 130.5782
" />
<path d="M109.4459 130.5782
L109.3507 130.1973
" />
<path d="M109.3507 130.1973
L109.3507 129.7211
" />
<path d="M109.3507 129.7211
L109.4459 129.3401
" />
<path d="M109.4459 129.3401
L109.5411 129.1496
" />
<path d="M109.5411 129.1496
L109.6364 129.0544
" />
<path d="M109.6364 129.0544
L109.8268 128.9592
" />
<path d="M111.7316 128.9592
L111.9221 128.9592
" />
<path d="M111.9221 128.9592
L112.1126 129.0544
" />
<path d="M112.1126 129.0544
L112.2078 129.1496
" />
<path d="M112.2078 129.1496
L112.3030 129.3401
" />
<path d="M112.3030 129.3401
L112.3983 129.7211
" />
<path d="M112.3983 129.7211
L112.3983 130.1973
" />
<path d="M112.3983 130.1973
L112.3030 130.5782
" />
<path d="M112.3030 130.5782
L112.2078 130.7687
" />
<path d="M112.2078 130.7687
L112.1126 130.8639
" />
<path d="M112.1126 130.8639
L111.9221 130.9592
" />
<path d="M111.9221 130.9592
L111.7316 130.9592
" />
<path d="M111.7316 130.9592
L111.5411 130.8639
" />
<path d="M111.5411 130.8639
L111.4459 130.7687
" />
<path d="M111.4459 130.7687
L111.3507 130.5782
" />
<path d="M111.3507 130.5782
L111.2554 130.1973
" />
<path d="M111.2554 130.1973
L111.2554 129.7211
" />
<path d="M111.2554 129.7211
L111.3507 129.3401
" />
<path d="M111.3507 129.3401
L111.4459 129.1496
" />
<path d="M111.4459 129.1496
L111.5411 129.0544
" />
<path d="M111.5411 129.0544
L111.7316 128.9592
" />
<path d="M113.2554 130.9592
L113.2554 129.6258
" />
<path d="M113.2554 129.8163
L113.3507 129.7211
" />
<path d="M113.3507 129.7211
L113.5411 129.6258
" />
<path d="M113.5411 129.6258
L113.8268 129.6258
" />
<path d="M113.8268 129.6258
L114.0173 129.7211
" />
<path d="M114.0173 129.7211
L114.1126 129.9115
" />
<path d="M114.1126 129.9115
L114.1126 130.9592
" />
<path d="M114.1126 129.9115
L114.2078 129.7211
" />
<path d="M114.2078 129.7211
L114.3983 129.6258
" />
<path d="M114.3983 129.6258
L114.6840 129.6258
" />
<path d="M114.6840 129.6258
L114.8745 129.7211
" />
<path d="M114.8745 129.7211
L114.9697 129.9115
" />
<path d="M114.9697 129.9115
L114.9697 130.9592
" />
<path d="M115.9221 130.9592
L115.9221 129.6258
" />
<path d="M115.9221 129.8163
L116.0173 129.7211
" />
<path d="M116.0173 129.7211
L116.2078 129.6258
" />
<path d="M116.2078 129.6258
L116.4935 129.6258
" />
<path d="M116.4935 129.6258
L116.6840 129.7211
" />
<path d="M116.6840 129.7211
L116.7792 129.9115
" />
<path d="M116.7792 129.9115
L116.7792 130.9592
" />
<path d="M116.7792 129.9115
L116.8745 129.7211
" />
<path d="M116.8745 129.7211
L117.0649 129.6258
" />
<path d="M117.0649 129.6258
L117.3507 129.6258
" />
<path d="M117.3507 129.6258
L117.5411 129.7211
" />
<path d="M117.5411 129.7211
L117.6364 129.9115
" />
<path d="M117.6364 129.9115
L117.6364 130.9592
" />
<path d="M121.5411 128.8639
L119.8268 131.4353
" />
<path d="M124.1126 128.9592
L124.3030 128.9592
" />
<path d="M124.3030 128.9592
L124.4935 129.0544
" />
<path d="M124.4935 129.0544
L124.5887 129.1496
" />
<path d="M124.5887 129.1496
L124.6840 129.3401
" />
<path d="M124.6840 129.3401
L124.7792 129.7211
" />
<path d="M124.7792 129.7211
L124.7792 130.1973
" />
<path d="M124.7792 130.1973
L124.6840 130.5782
" />
<path d="M124.6840 130.5782
L124.5887 130.7687
" />
<path d="M124.5887 130.7687
L124.4935 130.8639
" />
<path d="M124.4935 130.8639
L124.3030 130.9592
" />
<path d="M124.3030 130.9592
L124.1126 130.9592
" />
<path d="M124.1126 130.9592
L123.9221 130.8639
" />
<path d="M123.9221 130.8639
L123.8268 130.7687
" />
<path d="M123.8268 130.7687
L123.7316 130.5782
" />
<path d="M123.7316 130.5782
L123.6364 130.1973
" />
<path d="M123.6364 130.1973
L123.6364 129.7211
" />
<path d="M123.6364 129.7211
L123.7316 129.3401
" />
<path d="M123.7316 129.3401
L123.8268 129.1496
" />
<path d="M123.8268 129.1496
L123.9221 129.0544
" />
<path d="M123.9221 129.0544
L124.1126 128.9592
" />
<path d="M125.6364 130.7687
L125.7316 130.8639
" />
<path d="M125.7316 130.8639
L125.6364 130.9592
" />
<path d="M125.6364 130.9592
L125.5411 130.8639
" />
<path d="M125.5411 130.8639
L125.6364 130.7687
" />
<path d="M125.6364 130.7687
L125.6364 130.9592
" />
<path d="M126.9697 128.9592
L127.1602 128.9592
" />
<path d="M127.1602 128.9592
L127.3507 129.0544
" />
<path d="M127.3507 129.0544
L127.4459 129.1496
" />
<path d="M127.4459 129.1496
L127.5411 129.3401
" />
<path d="M127.5411 129.3401
L127.6364 129.7211
" />
<path d="M127.6364 129.7211
L127.6364 130.1973
" />
<path d="M127.6364 130.1973
L127.5411 130.5782
" />
<path d="M127.5411 130.5782
L127.4459 130.7687
" />
<path d="M127.4459 130.7687
L127.3507 130.8639
" />
<path d="M127.3507 130.8639
L127.1602 130.9592
" />
<path d="M127.1602 130.9592
L126.9697 130.9592
" />
<path d="M126.9697 130.9592
L126.7792 130.8639
" />
<path d="M126.7792 130.8639
L126.6840 130.7687
" />
<path d="M126.6840 130.7687
L126.5887 130.5782
" />
<path d="M126.5887 130.5782
L126.4935 130.1973
" />
<path d="M126.4935 130.1973
L126.4935 129.7211
" />
<path d="M126.4935 129.7211
L126.5887 129.3401
" />
<path d="M126.5887 129.3401
L126.6840 129.1496
" />
<path d="M126.6840 129.1496
L126.7792 129.0544
" />
<path d="M126.7792 129.0544
L126.9697 128.9592
" />
<path d="M129.5411 130.9592
L128.3983 130.9592
" />
<path d="M128.9697 130.9592
L128.9697 128.9592
" />
<path d="M128.9697 128.9592
L128.7792 129.2449
" />
<path d="M128.7792 129.2449
L128.5887 129.4353
" />
<path d="M128.5887 129.4353
L128.3983 129.5306
" />
<path d="M131.3507 128.9592
L130.3983 128.9592
" />
<path d="M130.3983 128.9592
L130.3030 129.9115
" />
<path d="M130.3030 129.9115
L130.3983 129.8163
" />
<path d="M130.3983 129.8163
L130.5888 129.7211
" />
<path d="M130.5888 129.7211
L131.0649 129.7211
" />
<path d="M131.0649 129.7211
L131.2554 129.8163
" />
<path d="M131.2554 129.8163
L131.3507 129.9115
" />
<path d="M131.3507 129.9115
L131.4459 130.1020
" />
<path d="M131.4459 130.1020
L131.4459 130.5782
" />
<path d="M131.4459 130.5782
L131.3507 130.7687
" />
<path d="M131.3507 130.7687
L131.2554 130.8639
" />
<path d="M131.2554 130.8639
L131.0649 130.9592
" />
<path d="M131.0649 130.9592
L130.5888 130.9592
" />
<path d="M130.5888 130.9592
L130.3983 130.8639
" />
<path d="M130.3983 130.8639
L130.3030 130.7687
" />
<path d="M132.1126 128.9592
L133.4459 128.9592
" />
<path d="M133.4459 128.9592
L132.5888 130.9592
" />
<path d="M134.1126 128.9592
L134.1126 129.3401
" />
<path d="M134.8745 128.9592
L134.8745 129.3401
" />
<path d="M137.8268 131.7211
L137.7316 131.6258
" />
<path d="M137.7316 131.6258
L137.5411 131.3401
" />
<path d="M137.5411 131.3401
L137.4459 131.1496
" />
<path d="M137.4459 131.1496
L137.3507 130.8639
" />
<path d="M137.3507 130.8639
L137.2554 130.3877
" />
<path d="M137.2554 130.3877
L137.2554 130.0068
" />
<path d="M137.2554 130.0068
L137.3507 129.5306
" />
<path d="M137.3507 129.5306
L137.4459 129.2449
" />
<path d="M137.4459 129.2449
L137.5411 129.0544
" />
<path d="M137.5411 129.0544
L137.7316 128.7687
" />
<path d="M137.7316 128.7687
L137.8268 128.6734
" />
<path d="M138.3983 128.9592
L139.6364 128.9592
" />
<path d="M139.6364 128.9592
L138.9697 129.7211
" />
<path d="M138.9697 129.7211
L139.2554 129.7211
" />
<path d="M139.2554 129.7211
L139.4459 129.8163
" />
<path d="M139.4459 129.8163
L139.5411 129.9115
" />
<path d="M139.5411 129.9115
L139.6364 130.1020
" />
<path d="M139.6364 130.1020
L139.6364 130.5782
" />
<path d="M139.6364 130.5782
L139.5411 130.7687
" />
<path d="M139.5411 130.7687
L139.4459 130.8639
" />
<path d="M139.4459 130.8639
L139.2554 130.9592
" />
<path d="M139.2554 130.9592
L138.6840 130.9592
" />
<path d="M138.6840 130.9592
L138.4935 130.8639
" />
<path d="M138.4935 130.8639
L138.3983 130.7687
" />
<path d="M140.7792 129.8163
L140.5887 129.7211
" />
<path d="M140.5887 129.7211
L140.4935 129.6258
" />
<path d="M140.4935 129.6258
L140.3983 129.4353
" />
<path d="M140.3983 129.4353
L140.3983 129.3401
" />
<path d="M140.3983 129.3401
L140.4935 129.1496
" />
<path d="M140.4935 129.1496
L140.5887 129.0544
" />
<path d="M140.5887 129.0544
L140.7792 128.9592
" />
<path d="M140.7792 128.9592
L141.1602 128.9592
" />
<path d="M141.1602 128.9592
L141.3507 129.0544
" />
<path d="M141.3507 129.0544
L141.4459 129.1496
" />
<path d="M141.4459 129.1496
L141.5411 129.3401
" />
<path d="M141.5411 129.3401
L141.5411 129.4353
" />
<path d="M141.5411 129.4353
L141.4459 129.6258
" />
<path d="M141.4459 129.6258
L141.3507 129.7211
" />
<path d="M141.3507 129.7211
L141.1602 129.8163
" />
<path d="M141.1602 129.8163
L140.7792 129.8163
" />
<path d="M140.7792 129.8163
L140.5887 129.9115
" />
<path d="M140.5887 129.9115
L140.4935 130.0068
" />
<path d="M140.4935 130.0068
L140.3983 130.1973
" />
<path d="M140.3983 130.1973
L140.3983 130.5782
" />
<path d="M140.3983 130.5782
L140.4935 130.7687
" />
<path d="M140.4935 130.7687
L140.5887 130.8639
" />
<path d="M140.5887 130.8639
L140.7792 130.9592
" />
<path d="M140.7792 130.9592
L141.1602 130.9592
" />
<path d="M141.1602 130.9592
L141.3507 130.8639
" />
<path d="M141.3507 130.8639
L141.4459 130.7687
" />
<path d="M141.4459 130.7687
L141.5411 130.5782
" />
<path d="M141.5411 130.5782
L141.5411 130.1973
" />
<path d="M141.5411 130.1973
L141.4459 130.0068
" />
<path d="M141.4459 130.0068
L141.3507 129.9115
" />
<path d="M141.3507 129.9115
L141.1602 129.8163
" />
<path d="M143.9221 130.9592
L143.9221 128.9592
" />
<path d="M144.7792 130.9592
L144.7792 129.9115
" />
<path d="M144.7792 129.9115
L144.6840 129.7211
" />
<path d="M144.6840 129.7211
L144.4935 129.6258
" />
<path d="M144.4935 129.6258
L144.2078 129.6258
" />
<path d="M144.2078 129.6258
L144.0173 129.7211
" />
<path d="M144.0173 129.7211
L143.9221 129.8163
" />
<path d="M146.0173 130.9592
L145.8268 130.8639
" />
<path d="M145.8268 130.8639
L145.7316 130.7687
" />
<path d="M145.7316 130.7687
L145.6364 130.5782
" />
<path d="M145.6364 130.5782
L145.6364 130.0068
" />
<path d="M145.6364 130.0068
L145.7316 129.8163
" />
<path d="M145.7316 129.8163
L145.8268 129.7211
" />
<path d="M145.8268 129.7211
L146.0173 129.6258
" />
<path d="M146.0173 129.6258
L146.3030 129.6258
" />
<path d="M146.3030 129.6258
L146.4935 129.7211
" />
<path d="M146.4935 129.7211
L146.5888 129.8163
" />
<path d="M146.5888 129.8163
L146.6840 130.0068
" />
<path d="M146.6840 130.0068
L146.6840 130.5782
" />
<path d="M146.6840 130.5782
L146.5888 130.7687
" />
<path d="M146.5888 130.7687
L146.4935 130.8639
" />
<path d="M146.4935 130.8639
L146.3030 130.9592
" />
<path d="M146.3030 130.9592
L146.0173 130.9592
" />
<path d="M147.8268 130.9592
L147.6364 130.8639
" />
<path d="M147.6364 130.8639
L147.5411 130.6734
" />
<path d="M147.5411 130.6734
L147.5411 128.9592
" />
<path d="M149.3507 130.8639
L149.1602 130.9592
" />
<path d="M149.1602 130.9592
L148.7792 130.9592
" />
<path d="M148.7792 130.9592
L148.5887 130.8639
" />
<path d="M148.5887 130.8639
L148.4935 130.6734
" />
<path d="M148.4935 130.6734
L148.4935 129.9115
" />
<path d="M148.4935 129.9115
L148.5887 129.7211
" />
<path d="M148.5887 129.7211
L148.7792 129.6258
" />
<path d="M148.7792 129.6258
L149.1602 129.6258
" />
<path d="M149.1602 129.6258
L149.3507 129.7211
" />
<path d="M149.3507 129.7211
L149.4459 129.9115
" />
<path d="M149.4459 129.9115
L149.4459 130.1020
" />
<path d="M149.4459 130.1020
L148.4935 130.2925
" />
<path d="M150.2078 130.8639
L150.3983 130.9592
" />
<path d="M150.3983 130.9592
L150.7792 130.9592
" />
<path d="M150.7792 130.9592
L150.9697 130.8639
" />
<path d="M150.9697 130.8639
L151.0649 130.6734
" />
<path d="M151.0649 130.6734
L151.0649 130.5782
" />
<path d="M151.0649 130.5782
L150.9697 130.3877
" />
<path d="M150.9697 130.3877
L150.7792 130.2925
" />
<path d="M150.7792 130.2925
L150.4935 130.2925
" />
<path d="M150.4935 130.2925
L150.3030 130.1973
" />
<path d="M150.3030 130.1973
L150.2078 130.0068
" />
<path d="M150.2078 130.0068
L150.2078 129.9115
" />
<path d="M150.2078 129.9115
L150.3030 129.7211
" />
<path d="M150.3030 129.7211
L150.4935 129.6258
" />
<path d="M150.4935 129.6258
L150.7792 129.6258
" />
<path d="M150.7792 129.6258
L150.9697 129.7211
" />
<path d="M151.7316 131.7211
L151.8268 131.6258
" />
<path d="M151.8268 131.6258
L152.0173 131.3401
" />
<path d="M152.0173 131.3401
L152.1126 131.1496
" />
<path d="M152.1126 131.1496
L152.2078 130.8639
" />
<path d="M152.2078 130.8639
L152.3030 130.3877
" />
<path d="M152.3030 130.3877
L152.3030 130.0068
" />
<path d="M152.3030 130.0068
L152.2078 129.5306
" />
<path d="M152.2078 129.5306
L152.1126 129.2449
" />
<path d="M152.1126 129.2449
L152.0173 129.0544
" />
<path d="M152.0173 129.0544
L151.8268 128.7687
" />
<path d="M151.8268 128.7687
L151.7316 128.6734
" />
</g></g>
<g style="fill:none; 
stroke:#000000; stroke-width:0.1158; stroke-opacity:1; 
stroke-linecap:round; stroke-linejoin:round;">
<path d="M101.7868 132.3949
L101.7868 132.9738
" />
<path d="M101.4974 132.6843
L102.0762 132.6843
" />
</g>
<g style="fill:none; 
stroke:#000000; stroke-width:0.2000; stroke-opacity:1; 
stroke-linecap:round; stroke-linejoin:round;">
<text x="104.0762" y="133.6843"
textLength="63.0571" font-size="2.6667" lengthAdjust="spacingAndGlyphs"
text-anchor="start" opacity="0" stroke-opacity="0">0.500mm / 0.0197" (0 holes + 2 slots)</text>
<g class="stroked-text"><desc>0.500mm / 0.0197" (0 holes + 2 slots)</desc>
<path d="M105.0649 131.5992
L105.2554 131.5992
" />
<path d="M105.2554 131.5992
L105.4459 131.6944
" />
<path d="M105.4459 131.6944
L105.5411 131.7896
" />
<path d="M105.5411 131.7896
L105.6364 131.9801
" />
<path d="M105.6364 131.9801
L105.7316 132.3611
" />
<path d="M105.7316 132.3611
L105.7316 132.8373
" />
<path d="M105.7316 132.8373
L105.6364 133.2182
" />
<path d="M105.6364 133.2182
L105.5411 133.4087
" />
<path d="M105.5411 133.4087
L105.4459 133.5039
" />
<path d="M105.4459 133.5039
L105.2554 133.5992
" />
<path d="M105.2554 133.5992
L105.0649 133.5992
" />
<path d="M105.0649 133.5992
L104.8745 133.5039
" />
<path d="M104.8745 133.5039
L104.7792 133.4087
" />
<path d="M104.7792 133.4087
L104.6840 133.2182
" />
<path d="M104.6840 133.2182
L104.5887 132.8373
" />
<path d="M104.5887 132.8373
L104.5887 132.3611
" />
<path d="M104.5887 132.3611
L104.6840 131.9801
" />
<path d="M104.6840 131.9801
L104.7792 131.7896
" />
<path d="M104.7792 131.7896
L104.8745 131.6944
" />
<path d="M104.8745 131.6944
L105.0649 131.5992
" />
<path d="M106.5887 133.4087
L106.6840 133.5039
" />
<path d="M106.6840 133.5039
L106.5887 133.5992
" />
<path d="M106.5887 133.5992
L106.4935 133.5039
" />
<path d="M106.4935 133.5039
L106.5887 133.4087
" />
<path d="M106.5887 133.4087
L106.5887 133.5992
" />
<path d="M108.4935 131.5992
L107.5411 131.5992
" />
<path d="M107.5411 131.5992
L107.4459 132.5515
" />
<path d="M107.4459 132.5515
L107.5411 132.4563
" />
<path d="M107.5411 132.4563
L107.7316 132.3611
" />
<path d="M107.7316 132.3611
L108.2078 132.3611
" />
<path d="M108.2078 132.3611
L108.3983 132.4563
" />
<path d="M108.3983 132.4563
L108.4935 132.5515
" />
<path d="M108.4935 132.5515
L108.5887 132.7420
" />
<path d="M108.5887 132.7420
L108.5887 133.2182
" />
<path d="M108.5887 133.2182
L108.4935 133.4087
" />
<path d="M108.4935 133.4087
L108.3983 133.5039
" />
<path d="M108.3983 133.5039
L108.2078 133.5992
" />
<path d="M108.2078 133.5992
L107.7316 133.5992
" />
<path d="M107.7316 133.5992
L107.5411 133.5039
" />
<path d="M107.5411 133.5039
L107.4459 133.4087
" />
<path d="M109.8268 131.5992
L110.0173 131.5992
" />
<path d="M110.0173 131.5992
L110.2078 131.6944
" />
<path d="M110.2078 131.6944
L110.3030 131.7896
" />
<path d="M110.3030 131.7896
L110.3983 131.9801
" />
<path d="M110.3983 131.9801
L110.4935 132.3611
" />
<path d="M110.4935 132.3611
L110.4935 132.8373
" />
<path d="M110.4935 132.8373
L110.3983 133.2182
" />
<path d="M110.3983 133.2182
L110.3030 133.4087
" />
<path d="M110.3030 133.4087
L110.2078 133.5039
" />
<path d="M110.2078 133.5039
L110.0173 133.5992
" />
<path d="M110.0173 133.5992
L109.8268 133.5992
" />
<path d="M109.8268 133.5992
L109.6364 133.5039
" />
<path d="M109.6364 133.5039
L109.5411 133.4087
" />
<path d="M109.5411 133.4087
L109.4459 133.2182
" />
<path d="M109.4459 133.2182
L109.3507 132.8373
" />
<path d="M109.3507 132.8373
L109.3507 132.3611
" />
<path d="M109.3507 132.3611
L109.4459 131.9801
" />
<path d="M109.4459 131.9801
L109.5411 131.7896
" />
<path d="M109.5411 131.7896
L109.6364 131.6944
" />
<path d="M109.6364 131.6944
L109.8268 131.5992
" />
<path d="M111.7316 131.5992
L111.9221 131.5992
" />
<path d="M111.9221 131.5992
L112.1126 131.6944
" />
<path d="M112.1126 131.6944
L112.2078 131.7896
" />
<path d="M112.2078 131.7896
L112.3030 131.9801
" />
<path d="M112.3030 131.9801
L112.3983 132.3611
" />
<path d="M112.3983 132.3611
L112.3983 132.8373
" />
<path d="M112.3983 132.8373
L112.3030 133.2182
" />
<path d="M112.3030 133.2182
L112.2078 133.4087
" />
<path d="M112.2078 133.4087
L112.1126 133.5039
" />
<path d="M112.1126 133.5039
L111.9221 133.5992
" />
<path d="M111.9221 133.5992
L111.7316 133.5992
" />
<path d="M111.7316 133.5992
L111.5411 133.5039
" />
<path d="M111.5411 133.5039
L111.4459 133.4087
" />
<path d="M111.4459 133.4087
L111.3507 133.2182
" />
<path d="M111.3507 133.2182
L111.2554 132.8373
" />
<path d="M111.2554 132.8373
L111.2554 132.3611
" />
<path d="M111.2554 132.3611
L111.3507 131.9801
" />
<path d="M111.3507 131.9801
L111.4459 131.7896
" />
<path d="M111.4459 131.7896
L111.5411 131.6944
" />
<path d="M111.5411 131.6944
L111.7316 131.5992
" />
<path d="M113.2554 133.5992
L113.2554 132.2658
" />
<path d="M113.2554 132.4563
L113.3507 132.3611
" />
<path d="M113.3507 132.3611
L113.5411 132.2658
" />
<path d="M113.5411 132.2658
L113.8268 132.2658
" />
<path d="M113.8268 132.2658
L114.0173 132.3611
" />
<path d="M114.0173 132.3611
L114.1126 132.5515
" />
<path d="M114.1126 132.5515
L114.1126 133.5992
" />
<path d="M114.1126 132.5515
L114.2078 132.3611
" />
<path d="M114.2078 132.3611
L114.3983 132.2658
" />
<path d="M114.3983 132.2658
L114.6840 132.2658
" />
<path d="M114.6840 132.2658
L114.8745 132.3611
" />
<path d="M114.8745 132.3611
L114.9697 132.5515
" />
<path d="M114.9697 132.5515
L114.9697 133.5992
" />
<path d="M115.9221 133.5992
L115.9221 132.2658
" />
<path d="M115.9221 132.4563
L116.0173 132.3611
" />
<path d="M116.0173 132.3611
L116.2078 132.2658
" />
<path d="M116.2078 132.2658
L116.4935 132.2658
" />
<path d="M116.4935 132.2658
L116.6840 132.3611
" />
<path d="M116.6840 132.3611
L116.7792 132.5515
" />
<path d="M116.7792 132.5515
L116.7792 133.5992
" />
<path d="M116.7792 132.5515
L116.8745 132.3611
" />
<path d="M116.8745 132.3611
L117.0649 132.2658
" />
<path d="M117.0649 132.2658
L117.3507 132.2658
" />
<path d="M117.3507 132.2658
L117.5411 132.3611
" />
<path d="M117.5411 132.3611
L117.6364 132.5515
" />
<path d="M117.6364 132.5515
L117.6364 133.5992
" />
<path d="M121.5411 131.5039
L119.8268 134.0753
" />
<path d="M124.1126 131.5992
L124.3030 131.5992
" />
<path d="M124.3030 131.5992
L124.4935 131.6944
" />
<path d="M124.4935 131.6944
L124.5887 131.7896
" />
<path d="M124.5887 131.7896
L124.6840 131.9801
" />
<path d="M124.6840 131.9801
L124.7792 132.3611
" />
<path d="M124.7792 132.3611
L124.7792 132.8373
" />
<path d="M124.7792 132.8373
L124.6840 133.2182
" />
<path d="M124.6840 133.2182
L124.5887 133.4087
" />
<path d="M124.5887 133.4087
L124.4935 133.5039
" />
<path d="M124.4935 133.5039
L124.3030 133.5992
" />
<path d="M124.3030 133.5992
L124.1126 133.5992
" />
<path d="M124.1126 133.5992
L123.9221 133.5039
" />
<path d="M123.9221 133.5039
L123.8268 133.4087
" />
<path d="M123.8268 133.4087
L123.7316 133.2182
" />
<path d="M123.7316 133.2182
L123.6364 132.8373
" />
<path d="M123.6364 132.8373
L123.6364 132.3611
" />
<path d="M123.6364 132.3611
L123.7316 131.9801
" />
<path d="M123.7316 131.9801
L123.8268 131.7896
" />
<path d="M123.8268 131.7896
L123.9221 131.6944
" />
<path d="M123.9221 131.6944
L124.1126 131.5992
" />
<path d="M125.6364 133.4087
L125.7316 133.5039
" />
<path d="M125.7316 133.5039
L125.6364 133.5992
" />
<path d="M125.6364 133.5992
L125.5411 133.5039
" />
<path d="M125.5411 133.5039
L125.6364 133.4087
" />
<path d="M125.6364 133.4087
L125.6364 133.5992
" />
<path d="M126.9697 131.5992
L127.1602 131.5992
" />
<path d="M127.1602 131.5992
L127.3507 131.6944
" />
<path d="M127.3507 131.6944
L127.4459 131.7896
" />
<path d="M127.4459 131.7896
L127.5411 131.9801
" />
<path d="M127.5411 131.9801
L127.6364 132.3611
" />
<path d="M127.6364 132.3611
L127.6364 132.8373
" />
<path d="M127.6364 132.8373
L127.5411 133.2182
" />
<path d="M127.5411 133.2182
L127.4459 133.4087
" />
<path d="M127.4459 133.4087
L127.3507 133.5039
" />
<path d="M127.3507 133.5039
L127.1602 133.5992
" />
<path d="M127.1602 133.5992
L126.9697 133.5992
" />
<path d="M126.9697 133.5992
L126.7792 133.5039
" />
<path d="M126.7792 133.5039
L126.6840 133.4087
" />
<path d="M126.6840 133.4087
L126.5887 133.2182
" />
<path d="M126.5887 133.2182
L126.4935 132.8373
" />
<path d="M126.4935 132.8373
L126.4935 132.3611
" />
<path d="M126.4935 132.3611
L126.5887 131.9801
" />
<path d="M126.5887 131.9801
L126.6840 131.7896
" />
<path d="M126.6840 131.7896
L126.7792 131.6944
" />
<path d="M126.7792 131.6944
L126.9697 131.5992
" />
<path d="M129.5411 133.5992
L128.3983 133.5992
" />
<path d="M128.9697 133.5992
L128.9697 131.5992
" />
<path d="M128.9697 131.5992
L128.7792 131.8849
" />
<path d="M128.7792 131.8849
L128.5887 132.0753
" />
<path d="M128.5887 132.0753
L128.3983 132.1706
" />
<path d="M130.4935 133.5992
L130.8745 133.5992
" />
<path d="M130.8745 133.5992
L131.0649 133.5039
" />
<path d="M131.0649 133.5039
L131.1602 133.4087
" />
<path d="M131.1602 133.4087
L131.3507 133.1230
" />
<path d="M131.3507 133.1230
L131.4459 132.7420
" />
<path d="M131.4459 132.7420
L131.4459 131.9801
" />
<path d="M131.4459 131.9801
L131.3507 131.7896
" />
<path d="M131.3507 131.7896
L131.2554 131.6944
" />
<path d="M131.2554 131.6944
L131.0649 131.5992
" />
<path d="M131.0649 131.5992
L130.6840 131.5992
" />
<path d="M130.6840 131.5992
L130.4935 131.6944
" />
<path d="M130.4935 131.6944
L130.3983 131.7896
" />
<path d="M130.3983 131.7896
L130.3030 131.9801
" />
<path d="M130.3030 131.9801
L130.3030 132.4563
" />
<path d="M130.3030 132.4563
L130.3983 132.6468
" />
<path d="M130.3983 132.6468
L130.4935 132.7420
" />
<path d="M130.4935 132.7420
L130.6840 132.8373
" />
<path d="M130.6840 132.8373
L131.0649 132.8373
" />
<path d="M131.0649 132.8373
L131.2554 132.7420
" />
<path d="M131.2554 132.7420
L131.3507 132.6468
" />
<path d="M131.3507 132.6468
L131.4459 132.4563
" />
<path d="M132.1126 131.5992
L133.4459 131.5992
" />
<path d="M133.4459 131.5992
L132.5888 133.5992
" />
<path d="M134.1126 131.5992
L134.1126 131.9801
" />
<path d="M134.8745 131.5992
L134.8745 131.9801
" />
<path d="M137.8268 134.3611
L137.7316 134.2658
" />
<path d="M137.7316 134.2658
L137.5411 133.9801
" />
<path d="M137.5411 133.9801
L137.4459 133.7896
" />
<path d="M137.4459 133.7896
L137.3507 133.5039
" />
<path d="M137.3507 133.5039
L137.2554 133.0277
" />
<path d="M137.2554 133.0277
L137.2554 132.6468
" />
<path d="M137.2554 132.6468
L137.3507 132.1706
" />
<path d="M137.3507 132.1706
L137.4459 131.8849
" />
<path d="M137.4459 131.8849
L137.5411 131.6944
" />
<path d="M137.5411 131.6944
L137.7316 131.4087
" />
<path d="M137.7316 131.4087
L137.8268 131.3134
" />
<path d="M138.9697 131.5992
L139.1602 131.5992
" />
<path d="M139.1602 131.5992
L139.3507 131.6944
" />
<path d="M139.3507 131.6944
L139.4459 131.7896
" />
<path d="M139.4459 131.7896
L139.5411 131.9801
" />
<path d="M139.5411 131.9801
L139.6364 132.3611
" />
<path d="M139.6364 132.3611
L139.6364 132.8373
" />
<path d="M139.6364 132.8373
L139.5411 133.2182
" />
<path d="M139.5411 133.2182
L139.4459 133.4087
" />
<path d="M139.4459 133.4087
L139.3507 133.5039
" />
<path d="M139.3507 133.5039
L139.1602 133.5992
" />
<path d="M139.1602 133.5992
L138.9697 133.5992
" />
<path d="M138.9697 133.5992
L138.7792 133.5039
" />
<path d="M138.7792 133.5039
L138.6840 133.4087
" />
<path d="M138.6840 133.4087
L138.5887 133.2182
" />
<path d="M138.5887 133.2182
L138.4935 132.8373
" />
<path d="M138.4935 132.8373
L138.4935 132.3611
" />
<path d="M138.4935 132.3611
L138.5887 131.9801
" />
<path d="M138.5887 131.9801
L138.6840 131.7896
" />
<path d="M138.6840 131.7896
L138.7792 131.6944
" />
<path d="M138.7792 131.6944
L138.9697 131.5992
" />
<path d="M142.0173 133.5992
L142.0173 131.5992
" />
<path d="M142.8745 133.5992
L142.8745 132.5515
" />
<path d="M142.8745 132.5515
L142.7792 132.3611
" />
<path d="M142.7792 132.3611
L142.5887 132.2658
" />
<path d="M142.5887 132.2658
L142.3030 132.2658
" />
<path d="M142.3030 132.2658
L142.1126 132.3611
" />
<path d="M142.1126 132.3611
L142.0173 132.4563
" />
<path d="M144.1126 133.5992
L143.9221 133.5039
" />
<path d="M143.9221 133.5039
L143.8268 133.4087
" />
<path d="M143.8268 133.4087
L143.7316 133.2182
" />
<path d="M143.7316 133.2182
L143.7316 132.6468
" />
<path d="M143.7316 132.6468
L143.8268 132.4563
" />
<path d="M143.8268 132.4563
L143.9221 132.3611
" />
<path d="M143.9221 132.3611
L144.1126 132.2658
" />
<path d="M144.1126 132.2658
L144.3983 132.2658
" />
<path d="M144.3983 132.2658
L144.5887 132.3611
" />
<path d="M144.5887 132.3611
L144.6840 132.4563
" />
<path d="M144.6840 132.4563
L144.7792 132.6468
" />
<path d="M144.7792 132.6468
L144.7792 133.2182
" />
<path d="M144.7792 133.2182
L144.6840 133.4087
" />
<path d="M144.6840 133.4087
L144.5887 133.5039
" />
<path d="M144.5887 133.5039
L144.3983 133.5992
" />
<path d="M144.3983 133.5992
L144.1126 133.5992
" />
<path d="M145.9221 133.5992
L145.7316 133.5039
" />
<path d="M145.7316 133.5039
L145.6364 133.3134
" />
<path d="M145.6364 133.3134
L145.6364 131.5992
" />
<path d="M147.4459 133.5039
L147.2554 133.5992
" />
<path d="M147.2554 133.5992
L146.8745 133.5992
" />
<path d="M146.8745 133.5992
L146.6840 133.5039
" />
<path d="M146.6840 133.5039
L146.5887 133.3134
" />
<path d="M146.5887 133.3134
L146.5887 132.5515
" />
<path d="M146.5887 132.5515
L146.6840 132.3611
" />
<path d="M146.6840 132.3611
L146.8745 132.2658
" />
<path d="M146.8745 132.2658
L147.2554 132.2658
" />
<path d="M147.2554 132.2658
L147.4459 132.3611
" />
<path d="M147.4459 132.3611
L147.5411 132.5515
" />
<path d="M147.5411 132.5515
L147.5411 132.7420
" />
<path d="M147.5411 132.7420
L146.5887 132.9325
" />
<path d="M148.3030 133.5039
L148.4935 133.5992
" />
<path d="M148.4935 133.5992
L148.8745 133.5992
" />
<path d="M148.8745 133.5992
L149.0649 133.5039
" />
<path d="M149.0649 133.5039
L149.1602 133.3134
" />
<path d="M149.1602 133.3134
L149.1602 133.2182
" />
<path d="M149.1602 133.2182
L149.0649 133.0277
" />
<path d="M149.0649 133.0277
L148.8745 132.9325
" />
<path d="M148.8745 132.9325
L148.5887 132.9325
" />
<path d="M148.5887 132.9325
L148.3983 132.8373
" />
<path d="M148.3983 132.8373
L148.3030 132.6468
" />
<path d="M148.3030 132.6468
L148.3030 132.5515
" />
<path d="M148.3030 132.5515
L148.3983 132.3611
" />
<path d="M148.3983 132.3611
L148.5887 132.2658
" />
<path d="M148.5887 132.2658
L148.8745 132.2658
" />
<path d="M148.8745 132.2658
L149.0649 132.3611
" />
<path d="M151.5411 132.8373
L153.0649 132.8373
" />
<path d="M152.3030 133.5992
L152.3030 132.0753
" />
<path d="M155.4459 131.7896
L155.5411 131.6944
" />
<path d="M155.5411 131.6944
L155.7316 131.5992
" />
<path d="M155.7316 131.5992
L156.2078 131.5992
" />
<path d="M156.2078 131.5992
L156.3983 131.6944
" />
<path d="M156.3983 131.6944
L156.4935 131.7896
" />
<path d="M156.4935 131.7896
L156.5887 131.9801
" />
<path d="M156.5887 131.9801
L156.5887 132.1706
" />
<path d="M156.5887 132.1706
L156.4935 132.4563
" />
<path d="M156.4935 132.4563
L155.3507 133.5992
" />
<path d="M155.3507 133.5992
L156.5887 133.5992
" />
<path d="M158.8745 133.5039
L159.0649 133.5992
" />
<path d="M159.0649 133.5992
L159.4459 133.5992
" />
<path d="M159.4459 133.5992
L159.6364 133.5039
" />
<path d="M159.6364 133.5039
L159.7316 133.3134
" />
<path d="M159.7316 133.3134
L159.7316 133.2182
" />
<path d="M159.7316 133.2182
L159.6364 133.0277
" />
<path d="M159.6364 133.0277
L159.4459 132.9325
" />
<path d="M159.4459 132.9325
L159.1602 132.9325
" />
<path d="M159.1602 132.9325
L158.9697 132.8373
" />
<path d="M158.9697 132.8373
L158.8745 132.6468
" />
<path d="M158.8745 132.6468
L158.8745 132.5515
" />
<path d="M158.8745 132.5515
L158.9697 132.3611
" />
<path d="M158.9697 132.3611
L159.1602 132.2658
" />
<path d="M159.1602 132.2658
L159.4459 132.2658
" />
<path d="M159.4459 132.2658
L159.6364 132.3611
" />
<path d="M160.8745 133.5992
L160.6840 133.5039
" />
<path d="M160.6840 133.5039
L160.5887 133.3134
" />
<path d="M160.5887 133.3134
L160.5887 131.5992
" />
<path d="M161.9221 133.5992
L161.7316 133.5039
" />
<path d="M161.7316 133.5039
L161.6364 133.4087
" />
<path d="M161.6364 133.4087
L161.5411 133.2182
" />
<path d="M161.5411 133.2182
L161.5411 132.6468
" />
<path d="M161.5411 132.6468
L161.6364 132.4563
" />
<path d="M161.6364 132.4563
L161.7316 132.3611
" />
<path d="M161.7316 132.3611
L161.9221 132.2658
" />
<path d="M161.9221 132.2658
L162.2078 132.2658
" />
<path d="M162.2078 132.2658
L162.3983 132.3611
" />
<path d="M162.3983 132.3611
L162.4935 132.4563
" />
<path d="M162.4935 132.4563
L162.5887 132.6468
" />
<path d="M162.5887 132.6468
L162.5887 133.2182
" />
<path d="M162.5887 133.2182
L162.4935 133.4087
" />
<path d="M162.4935 133.4087
L162.3983 133.5039
" />
<path d="M162.3983 133.5039
L162.2078 133.5992
" />
<path d="M162.2078 133.5992
L161.9221 133.5992
" />
<path d="M163.1602 132.2658
L163.9221 132.2658
" />
<path d="M163.4459 131.5992
L163.4459 133.3134
" />
<path d="M163.4459 133.3134
L163.5411 133.5039
" />
<path d="M163.5411 133.5039
L163.7316 133.5992
" />
<path d="M163.7316 133.5992
L163.9221 133.5992
" />
<path d="M164.4935 133.5039
L164.6840 133.5992
" />
<path d="M164.6840 133.5992
L165.0649 133.5992
" />
<path d="M165.0649 133.5992
L165.2554 133.5039
" />
<path d="M165.2554 133.5039
L165.3507 133.3134
" />
<path d="M165.3507 133.3134
L165.3507 133.2182
" />
<path d="M165.3507 133.2182
L165.2554 133.0277
" />
<path d="M165.2554 133.0277
L165.0649 132.9325
" />
<path d="M165.0649 132.9325
L164.7792 132.9325
" />
<path d="M164.7792 132.9325
L164.5887 132.8373
" />
<path d="M164.5887 132.8373
L164.4935 132.6468
" />
<path d="M164.4935 132.6468
L164.4935 132.5515
" />
<path d="M164.4935 132.5515
L164.5887 132.3611
" />
<path d="M164.5887 132.3611
L164.7792 132.2658
" />
<path d="M164.7792 132.2658
L165.0649 132.2658
" />
<path d="M165.0649 132.2658
L165.2554 132.3611
" />
<path d="M166.0173 134.3611
L166.1126 134.2658
" />
<path d="M166.1126 134.2658
L166.3030 133.9801
" />
<path d="M166.3030 133.9801
L166.3983 133.7896
" />
<path d="M166.3983 133.7896
L166.4935 133.5039
" />
<path d="M166.4935 133.5039
L166.5887 133.0277
" />
<path d="M166.5887 133.0277
L166.5887 132.6468
" />
<path d="M166.5887 132.6468
L166.4935 132.1706
" />
<path d="M166.4935 132.1706
L166.3983 131.8849
" />
<path d="M166.3983 131.8849
L166.3030 131.6944
" />
<path d="M166.3030 131.6944
L166.1126 131.4087
" />
<path d="M166.1126 131.4087
L166.0173 131.3134
" />
</g><path style="fill:none; 
stroke:#000000; stroke-width:0.1621; stroke-opacity:1; 
stroke-linecap:round; stroke-linejoin:round;fill:none"
d="M 101.8389,135.8974
101.8389,134.7513
100.6928,134.7513
100.6928,135.8974
Z" /> 
</g>
<g style="fill:none; 
stroke:#000000; stroke-width:0.2000; stroke-opacity:1; 
stroke-linecap:round; stroke-linejoin:round;">
<text x="104.0762" y="136.3243"
textLength="48.7714" font-size="2.6667" lengthAdjust="spacingAndGlyphs"
text-anchor="start" opacity="0" stroke-opacity="0">1.400mm / 0.0551" (25 holes)</text>
<g class="stroked-text"><desc>1.400mm / 0.0551" (25 holes)</desc>
<path d="M105.7316 136.2392
L104.5887 136.2392
" />
<path d="M105.1602 136.2392
L105.1602 134.2392
" />
<path d="M105.1602 134.2392
L104.9697 134.5249
" />
<path d="M104.9697 134.5249
L104.7792 134.7153
" />
<path d="M104.7792 134.7153
L104.5887 134.8106
" />
<path d="M106.5887 136.0487
L106.6840 136.1439
" />
<path d="M106.6840 136.1439
L106.5887 136.2392
" />
<path d="M106.5887 136.2392
L106.4935 136.1439
" />
<path d="M106.4935 136.1439
L106.5887 136.0487
" />
<path d="M106.5887 136.0487
L106.5887 136.2392
" />
<path d="M108.3983 134.9058
L108.3983 136.2392
" />
<path d="M107.9221 134.1439
L107.4459 135.5725
" />
<path d="M107.4459 135.5725
L108.6840 135.5725
" />
<path d="M109.8268 134.2392
L110.0173 134.2392
" />
<path d="M110.0173 134.2392
L110.2078 134.3344
" />
<path d="M110.2078 134.3344
L110.3030 134.4296
" />
<path d="M110.3030 134.4296
L110.3983 134.6201
" />
<path d="M110.3983 134.6201
L110.4935 135.0011
" />
<path d="M110.4935 135.0011
L110.4935 135.4773
" />
<path d="M110.4935 135.4773
L110.3983 135.8582
" />
<path d="M110.3983 135.8582
L110.3030 136.0487
" />
<path d="M110.3030 136.0487
L110.2078 136.1439
" />
<path d="M110.2078 136.1439
L110.0173 136.2392
" />
<path d="M110.0173 136.2392
L109.8268 136.2392
" />
<path d="M109.8268 136.2392
L109.6364 136.1439
" />
<path d="M109.6364 136.1439
L109.5411 136.0487
" />
<path d="M109.5411 136.0487
L109.4459 135.8582
" />
<path d="M109.4459 135.8582
L109.3507 135.4773
" />
<path d="M109.3507 135.4773
L109.3507 135.0011
" />
<path d="M109.3507 135.0011
L109.4459 134.6201
" />
<path d="M109.4459 134.6201
L109.5411 134.4296
" />
<path d="M109.5411 134.4296
L109.6364 134.3344
" />
<path d="M109.6364 134.3344
L109.8268 134.2392
" />
<path d="M111.7316 134.2392
L111.9221 134.2392
" />
<path d="M111.9221 134.2392
L112.1126 134.3344
" />
<path d="M112.1126 134.3344
L112.2078 134.4296
" />
<path d="M112.2078 134.4296
L112.3030 134.6201
" />
<path d="M112.3030 134.6201
L112.3983 135.0011
" />
<path d="M112.3983 135.0011
L112.3983 135.4773
" />
<path d="M112.3983 135.4773
L112.3030 135.8582
" />
<path d="M112.3030 135.8582
L112.2078 136.0487
" />
<path d="M112.2078 136.0487
L112.1126 136.1439
" />
<path d="M112.1126 136.1439
L111.9221 136.2392
" />
<path d="M111.9221 136.2392
L111.7316 136.2392
" />
<path d="M111.7316 136.2392
L111.5411 136.1439
" />
<path d="M111.5411 136.1439
L111.4459 136.0487
" />
<path d="M111.4459 136.0487
L111.3507 135.8582
" />
<path d="M111.3507 135.8582
L111.2554 135.4773
" />
<path d="M111.2554 135.4773
L111.2554 135.0011
" />
<path d="M111.2554 135.0011
L111.3507 134.6201
" />
<path d="M111.3507 134.6201
L111.4459 134.4296
" />
<path d="M111.4459 134.4296
L111.5411 134.3344
" />
<path d="M111.5411 134.3344
L111.7316 134.2392
" />
<path d="M113.2554 136.2392
L113.2554 134.9058
" />
<path d="M113.2554 135.0963
L113.3507 135.0011
" />
<path d="M113.3507 135.0011
L113.5411 134.9058
" />
<path d="M113.5411 134.9058
L113.8268 134.9058
" />
<path d="M113.8268 134.9058
L114.0173 135.0011
" />
<path d="M114.0173 135.0011
L114.1126 135.1915
" />
<path d="M114.1126 135.1915
L114.1126 136.2392
" />
<path d="M114.1126 135.1915
L114.2078 135.0011
" />
<path d="M114.2078 135.0011
L114.3983 134.9058
" />
<path d="M114.3983 134.9058
L114.6840 134.9058
" />
<path d="M114.6840 134.9058
L114.8745 135.0011
" />
<path d="M114.8745 135.0011
L114.9697 135.1915
" />
<path d="M114.9697 135.1915
L114.9697 136.2392
" />
<path d="M115.9221 136.2392
L115.9221 134.9058
" />
<path d="M115.9221 135.0963
L116.0173 135.0011
" />
<path d="M116.0173 135.0011
L116.2078 134.9058
" />
<path d="M116.2078 134.9058
L116.4935 134.9058
" />
<path d="M116.4935 134.9058
L116.6840 135.0011
" />
<path d="M116.6840 135.0011
L116.7792 135.1915
" />
<path d="M116.7792 135.1915
L116.7792 136.2392
" />
<path d="M116.7792 135.1915
L116.8745 135.0011
" />
<path d="M116.8745 135.0011
L117.0649 134.9058
" />
<path d="M117.0649 134.9058
L117.3507 134.9058
" />
<path d="M117.3507 134.9058
L117.5411 135.0011
" />
<path d="M117.5411 135.0011
L117.6364 135.1915
" />
<path d="M117.6364 135.1915
L117.6364 136.2392
" />
<path d="M121.5411 134.1439
L119.8268 136.7153
" />
<path d="M124.1126 134.2392
L124.3030 134.2392
" />
<path d="M124.3030 134.2392
L124.4935 134.3344
" />
<path d="M124.4935 134.3344
L124.5887 134.4296
" />
<path d="M124.5887 134.4296
L124.6840 134.6201
" />
<path d="M124.6840 134.6201
L124.7792 135.0011
" />
<path d="M124.7792 135.0011
L124.7792 135.4773
" />
<path d="M124.7792 135.4773
L124.6840 135.8582
" />
<path d="M124.6840 135.8582
L124.5887 136.0487
" />
<path d="M124.5887 136.0487
L124.4935 136.1439
" />
<path d="M124.4935 136.1439
L124.3030 136.2392
" />
<path d="M124.3030 136.2392
L124.1126 136.2392
" />
<path d="M124.1126 136.2392
L123.9221 136.1439
" />
<path d="M123.9221 136.1439
L123.8268 136.0487
" />
<path d="M123.8268 136.0487
L123.7316 135.8582
" />
<path d="M123.7316 135.8582
L123.6364 135.4773
" />
<path d="M123.6364 135.4773
L123.6364 135.0011
" />
<path d="M123.6364 135.0011
L123.7316 134.6201
" />
<path d="M123.7316 134.6201
L123.8268 134.4296
" />
<path d="M123.8268 134.4296
L123.9221 134.3344
" />
<path d="M123.9221 134.3344
L124.1126 134.2392
" />
<path d="M125.6364 136.0487
L125.7316 136.1439
" />
<path d="M125.7316 136.1439
L125.6364 136.2392
" />
<path d="M125.6364 136.2392
L125.5411 136.1439
" />
<path d="M125.5411 136.1439
L125.6364 136.0487
" />
<path d="M125.6364 136.0487
L125.6364 136.2392
" />
<path d="M126.9697 134.2392
L127.1602 134.2392
" />
<path d="M127.1602 134.2392
L127.3507 134.3344
" />
<path d="M127.3507 134.3344
L127.4459 134.4296
" />
<path d="M127.4459 134.4296
L127.5411 134.6201
" />
<path d="M127.5411 134.6201
L127.6364 135.0011
" />
<path d="M127.6364 135.0011
L127.6364 135.4773
" />
<path d="M127.6364 135.4773
L127.5411 135.8582
" />
<path d="M127.5411 135.8582
L127.4459 136.0487
" />
<path d="M127.4459 136.0487
L127.3507 136.1439
" />
<path d="M127.3507 136.1439
L127.1602 136.2392
" />
<path d="M127.1602 136.2392
L126.9697 136.2392
" />
<path d="M126.9697 136.2392
L126.7792 136.1439
" />
<path d="M126.7792 136.1439
L126.6840 136.0487
" />
<path d="M126.6840 136.0487
L126.5887 135.8582
" />
<path d="M126.5887 135.8582
L126.4935 135.4773
" />
<path d="M126.4935 135.4773
L126.4935 135.0011
" />
<path d="M126.4935 135.0011
L126.5887 134.6201
" />
<path d="M126.5887 134.6201
L126.6840 134.4296
" />
<path d="M126.6840 134.4296
L126.7792 134.3344
" />
<path d="M126.7792 134.3344
L126.9697 134.2392
" />
<path d="M129.4459 134.2392
L128.4935 134.2392
" />
<path d="M128.4935 134.2392
L128.3983 135.1915
" />
<path d="M128.3983 135.1915
L128.4935 135.0963
" />
<path d="M128.4935 135.0963
L128.6840 135.0011
" />
<path d="M128.6840 135.0011
L129.1602 135.0011
" />
<path d="M129.1602 135.0011
L129.3507 135.0963
" />
<path d="M129.3507 135.0963
L129.4459 135.1915
" />
<path d="M129.4459 135.1915
L129.5411 135.3820
" />
<path d="M129.5411 135.3820
L129.5411 135.8582
" />
<path d="M129.5411 135.8582
L129.4459 136.0487
" />
<path d="M129.4459 136.0487
L129.3507 136.1439
" />
<path d="M129.3507 136.1439
L129.1602 136.2392
" />
<path d="M129.1602 136.2392
L128.6840 136.2392
" />
<path d="M128.6840 136.2392
L128.4935 136.1439
" />
<path d="M128.4935 136.1439
L128.3983 136.0487
" />
<path d="M131.3507 134.2392
L130.3983 134.2392
" />
<path d="M130.3983 134.2392
L130.3030 135.1915
" />
<path d="M130.3030 135.1915
L130.3983 135.0963
" />
<path d="M130.3983 135.0963
L130.5888 135.0011
" />
<path d="M130.5888 135.0011
L131.0649 135.0011
" />
<path d="M131.0649 135.0011
L131.2554 135.0963
" />
<path d="M131.2554 135.0963
L131.3507 135.1915
" />
<path d="M131.3507 135.1915
L131.4459 135.3820
" />
<path d="M131.4459 135.3820
L131.4459 135.8582
" />
<path d="M131.4459 135.8582
L131.3507 136.0487
" />
<path d="M131.3507 136.0487
L131.2554 136.1439
" />
<path d="M131.2554 136.1439
L131.0649 136.2392
" />
<path d="M131.0649 136.2392
L130.5888 136.2392
" />
<path d="M130.5888 136.2392
L130.3983 136.1439
" />
<path d="M130.3983 136.1439
L130.3030 136.0487
" />
<path d="M133.3507 136.2392
L132.2078 136.2392
" />
<path d="M132.7792 136.2392
L132.7792 134.2392
" />
<path d="M132.7792 134.2392
L132.5888 134.5249
" />
<path d="M132.5888 134.5249
L132.3983 134.7153
" />
<path d="M132.3983 134.7153
L132.2078 134.8106
" />
<path d="M134.1126 134.2392
L134.1126 134.6201
" />
<path d="M134.8745 134.2392
L134.8745 134.6201
" />
<path d="M137.8268 137.0011
L137.7316 136.9058
" />
<path d="M137.7316 136.9058
L137.5411 136.6201
" />
<path d="M137.5411 136.6201
L137.4459 136.4296
" />
<path d="M137.4459 136.4296
L137.3507 136.1439
" />
<path d="M137.3507 136.1439
L137.2554 135.6677
" />
<path d="M137.2554 135.6677
L137.2554 135.2868
" />
<path d="M137.2554 135.2868
L137.3507 134.8106
" />
<path d="M137.3507 134.8106
L137.4459 134.5249
" />
<path d="M137.4459 134.5249
L137.5411 134.3344
" />
<path d="M137.5411 134.3344
L137.7316 134.0487
" />
<path d="M137.7316 134.0487
L137.8268 133.9534
" />
<path d="M138.4935 134.4296
L138.5887 134.3344
" />
<path d="M138.5887 134.3344
L138.7792 134.2392
" />
<path d="M138.7792 134.2392
L139.2554 134.2392
" />
<path d="M139.2554 134.2392
L139.4459 134.3344
" />
<path d="M139.4459 134.3344
L139.5411 134.4296
" />
<path d="M139.5411 134.4296
L139.6364 134.6201
" />
<path d="M139.6364 134.6201
L139.6364 134.8106
" />
<path d="M139.6364 134.8106
L139.5411 135.0963
" />
<path d="M139.5411 135.0963
L138.3983 136.2392
" />
<path d="M138.3983 136.2392
L139.6364 136.2392
" />
<path d="M141.4459 134.2392
L140.4935 134.2392
" />
<path d="M140.4935 134.2392
L140.3983 135.1915
" />
<path d="M140.3983 135.1915
L140.4935 135.0963
" />
<path d="M140.4935 135.0963
L140.6840 135.0011
" />
<path d="M140.6840 135.0011
L141.1602 135.0011
" />
<path d="M141.1602 135.0011
L141.3507 135.0963
" />
<path d="M141.3507 135.0963
L141.4459 135.1915
" />
<path d="M141.4459 135.1915
L141.5411 135.3820
" />
<path d="M141.5411 135.3820
L141.5411 135.8582
" />
<path d="M141.5411 135.8582
L141.4459 136.0487
" />
<path d="M141.4459 136.0487
L141.3507 136.1439
" />
<path d="M141.3507 136.1439
L141.1602 136.2392
" />
<path d="M141.1602 136.2392
L140.6840 136.2392
" />
<path d="M140.6840 136.2392
L140.4935 136.1439
" />
<path d="M140.4935 136.1439
L140.3983 136.0487
" />
<path d="M143.9221 136.2392
L143.9221 134.2392
" />
<path d="M144.7792 136.2392
L144.7792 135.1915
" />
<path d="M144.7792 135.1915
L144.6840 135.0011
" />
<path d="M144.6840 135.0011
L144.4935 134.9058
" />
<path d="M144.4935 134.9058
L144.2078 134.9058
" />
<path d="M144.2078 134.9058
L144.0173 135.0011
" />
<path d="M144.0173 135.0011
L143.9221 135.0963
" />
<path d="M146.0173 136.2392
L145.8268 136.1439
" />
<path d="M145.8268 136.1439
L145.7316 136.0487
" />
<path d="M145.7316 136.0487
L145.6364 135.8582
" />
<path d="M145.6364 135.8582
L145.6364 135.2868
" />
<path d="M145.6364 135.2868
L145.7316 135.0963
" />
<path d="M145.7316 135.0963
L145.8268 135.0011
" />
<path d="M145.8268 135.0011
L146.0173 134.9058
" />
<path d="M146.0173 134.9058
L146.3030 134.9058
" />
<path d="M146.3030 134.9058
L146.4935 135.0011
" />
<path d="M146.4935 135.0011
L146.5888 135.0963
" />
<path d="M146.5888 135.0963
L146.6840 135.2868
" />
<path d="M146.6840 135.2868
L146.6840 135.8582
" />
<path d="M146.6840 135.8582
L146.5888 136.0487
" />
<path d="M146.5888 136.0487
L146.4935 136.1439
" />
<path d="M146.4935 136.1439
L146.3030 136.2392
" />
<path d="M146.3030 136.2392
L146.0173 136.2392
" />
<path d="M147.8268 136.2392
L147.6364 136.1439
" />
<path d="M147.6364 136.1439
L147.5411 135.9534
" />
<path d="M147.5411 135.9534
L147.5411 134.2392
" />
<path d="M149.3507 136.1439
L149.1602 136.2392
" />
<path d="M149.1602 136.2392
L148.7792 136.2392
" />
<path d="M148.7792 136.2392
L148.5887 136.1439
" />
<path d="M148.5887 136.1439
L148.4935 135.9534
" />
<path d="M148.4935 135.9534
L148.4935 135.1915
" />
<path d="M148.4935 135.1915
L148.5887 135.0011
" />
<path d="M148.5887 135.0011
L148.7792 134.9058
" />
<path d="M148.7792 134.9058
L149.1602 134.9058
" />
<path d="M149.1602 134.9058
L149.3507 135.0011
" />
<path d="M149.3507 135.0011
L149.4459 135.1915
" />
<path d="M149.4459 135.1915
L149.4459 135.3820
" />
<path d="M149.4459 135.3820
L148.4935 135.5725
" />
<path d="M150.2078 136.1439
L150.3983 136.2392
" />
<path d="M150.3983 136.2392
L150.7792 136.2392
" />
<path d="M150.7792 136.2392
L150.9697 136.1439
" />
<path d="M150.9697 136.1439
L151.0649 135.9534
" />
<path d="M151.0649 135.9534
L151.0649 135.8582
" />
<path d="M151.0649 135.8582
L150.9697 135.6677
" />
<path d="M150.9697 135.6677
L150.7792 135.5725
" />
<path d="M150.7792 135.5725
L150.4935 135.5725
" />
<path d="M150.4935 135.5725
L150.3030 135.4773
" />
<path d="M150.3030 135.4773
L150.2078 135.2868
" />
<path d="M150.2078 135.2868
L150.2078 135.1915
" />
<path d="M150.2078 135.1915
L150.3030 135.0011
" />
<path d="M150.3030 135.0011
L150.4935 134.9058
" />
<path d="M150.4935 134.9058
L150.7792 134.9058
" />
<path d="M150.7792 134.9058
L150.9697 135.0011
" />
<path d="M151.7316 137.0011
L151.8268 136.9058
" />
<path d="M151.8268 136.9058
L152.0173 136.6201
" />
<path d="M152.0173 136.6201
L152.1126 136.4296
" />
<path d="M152.1126 136.4296
L152.2078 136.1439
" />
<path d="M152.2078 136.1439
L152.3030 135.6677
" />
<path d="M152.3030 135.6677
L152.3030 135.2868
" />
<path d="M152.3030 135.2868
L152.2078 134.8106
" />
<path d="M152.2078 134.8106
L152.1126 134.5249
" />
<path d="M152.1126 134.5249
L152.0173 134.3344
" />
<path d="M152.0173 134.3344
L151.8268 134.0487
" />
<path d="M151.8268 134.0487
L151.7316 133.9534
" />
</g></g> 
</svg>
