%TF.GenerationSoftware,KiCad,Pcbnew,8.0.3-8.0.3-0~ubuntu22.04.1*%
%TF.CreationDate,2024-10-28T10:53:40+03:00*%
%TF.ProjectId,PM-AI1-W,504d2d41-4931-42d5-972e-6b696361645f,rev?*%
%TF.SameCoordinates,Original*%
%TF.FileFunction,Legend,Bot*%
%TF.FilePolarity,Positive*%
%FSLAX46Y46*%
G04 Gerber Fmt 4.6, Leading zero omitted, Abs format (unit mm)*
G04 Created by KiCad (PCBNEW 8.0.3-8.0.3-0~ubuntu22.04.1) date 2024-10-28 10:53:40*
%MOMM*%
%LPD*%
G01*
G04 APERTURE LIST*
%ADD10C,0.200000*%
%ADD11C,3.200000*%
%ADD12R,3.500000X3.500000*%
%ADD13C,3.500000*%
%ADD14C,2.200000*%
G04 APERTURE END LIST*
D10*
G36*
X30473685Y46420547D02*
G01*
X30499462Y46395885D01*
X30534538Y46328330D01*
X30577990Y46160869D01*
X30579582Y45947378D01*
X30539183Y45779445D01*
X30503092Y45704424D01*
X30478430Y45678646D01*
X30418290Y45647421D01*
X30369826Y45646609D01*
X30310776Y45675017D01*
X30285002Y45699676D01*
X30249925Y45767236D01*
X30206473Y45934695D01*
X30204881Y46148185D01*
X30245280Y46316119D01*
X30281371Y46391140D01*
X30306033Y46416917D01*
X30366172Y46448142D01*
X30414637Y46448954D01*
X30473685Y46420547D01*
G37*
G36*
X31902256Y46420547D02*
G01*
X31928033Y46395885D01*
X31963109Y46328330D01*
X32006561Y46160869D01*
X32008153Y45947378D01*
X31967754Y45779445D01*
X31931663Y45704424D01*
X31907001Y45678646D01*
X31846861Y45647421D01*
X31798397Y45646609D01*
X31739347Y45675017D01*
X31713573Y45699676D01*
X31678496Y45767236D01*
X31635044Y45934695D01*
X31633452Y46148185D01*
X31673851Y46316119D01*
X31709942Y46391140D01*
X31734604Y46416917D01*
X31794743Y46448142D01*
X31843208Y46448954D01*
X31902256Y46420547D01*
G37*
G36*
X38159587Y45932964D02*
G01*
X37958281Y45932184D01*
X38058464Y46234535D01*
X38159587Y45932964D01*
G37*
G36*
X41531125Y46123497D02*
G01*
X41275686Y46122271D01*
X41215537Y46151208D01*
X41189764Y46175866D01*
X41158645Y46235801D01*
X41157511Y46331647D01*
X41186132Y46391140D01*
X41210794Y46416917D01*
X41270433Y46447883D01*
X41530511Y46449130D01*
X41531125Y46123497D01*
G37*
G36*
X41841437Y45336670D02*
G01*
X28468757Y45336670D01*
X28468757Y45567290D01*
X28579868Y45567290D01*
X28579868Y45528272D01*
X28594800Y45492224D01*
X28622390Y45464634D01*
X28658438Y45449702D01*
X28677947Y45447781D01*
X29268884Y45449702D01*
X29304932Y45464634D01*
X29332522Y45492224D01*
X29347454Y45528272D01*
X29347454Y45567290D01*
X29332522Y45603338D01*
X29320951Y45614909D01*
X29532248Y45614909D01*
X29532248Y45575891D01*
X29537838Y45562396D01*
X29547180Y45539842D01*
X29547184Y45539838D01*
X29559616Y45524689D01*
X29622388Y45464634D01*
X29628801Y45461978D01*
X29658437Y45449702D01*
X29697455Y45449702D01*
X29733503Y45464634D01*
X29748657Y45477070D01*
X29808712Y45539842D01*
X29815464Y45556144D01*
X29823643Y45575890D01*
X29823644Y45614908D01*
X29808713Y45650957D01*
X29796276Y45666110D01*
X29733504Y45726167D01*
X29713012Y45734655D01*
X29708876Y45736368D01*
X29697455Y45741099D01*
X29658437Y45741099D01*
X29647879Y45736726D01*
X29622389Y45726168D01*
X29622388Y45726167D01*
X29607234Y45713730D01*
X29547179Y45650957D01*
X29537166Y45626781D01*
X29532248Y45614909D01*
X29320951Y45614909D01*
X29304932Y45630928D01*
X29268884Y45645860D01*
X29249375Y45647781D01*
X29063473Y45647177D01*
X29062315Y46261911D01*
X29084572Y46240202D01*
X29092825Y46230686D01*
X29097063Y46228019D01*
X29098580Y46226539D01*
X29101017Y46225530D01*
X29109416Y46220243D01*
X29222962Y46165618D01*
X29261882Y46162852D01*
X29273813Y46166829D01*
X30006518Y46166829D01*
X30008248Y45934712D01*
X30006636Y45923873D01*
X30008419Y45911812D01*
X30008439Y45909225D01*
X30009003Y45907862D01*
X30009504Y45904480D01*
X30057008Y45721401D01*
X30057688Y45711845D01*
X30063279Y45697233D01*
X30063718Y45695544D01*
X30064148Y45694964D01*
X30064694Y45693537D01*
X30114031Y45598513D01*
X30118608Y45587463D01*
X30121766Y45583615D01*
X30122756Y45581709D01*
X30124750Y45579980D01*
X30131045Y45572310D01*
X30181145Y45524377D01*
X30188063Y45516400D01*
X30192212Y45513789D01*
X30193817Y45512253D01*
X30196257Y45511243D01*
X30204654Y45505957D01*
X30287671Y45466019D01*
X30289056Y45464634D01*
X30299805Y45460182D01*
X30318200Y45451332D01*
X30321783Y45451078D01*
X30325104Y45449702D01*
X30344613Y45447781D01*
X30425630Y45449138D01*
X30427344Y45448566D01*
X30438388Y45449351D01*
X30459360Y45449702D01*
X30462680Y45451078D01*
X30466264Y45451332D01*
X30484572Y45458338D01*
X30579600Y45507678D01*
X30590647Y45512253D01*
X30594493Y45515411D01*
X30596400Y45516400D01*
X30598130Y45518395D01*
X30605800Y45524690D01*
X30653733Y45574793D01*
X30661708Y45581708D01*
X30664319Y45585858D01*
X30665856Y45587463D01*
X30666867Y45589905D01*
X30672151Y45598299D01*
X30680142Y45614909D01*
X30960819Y45614909D01*
X30960819Y45575891D01*
X30966409Y45562396D01*
X30975751Y45539842D01*
X30975755Y45539838D01*
X30988187Y45524689D01*
X31050959Y45464634D01*
X31057372Y45461978D01*
X31087008Y45449702D01*
X31126026Y45449702D01*
X31162074Y45464634D01*
X31177228Y45477070D01*
X31237283Y45539842D01*
X31244035Y45556144D01*
X31252214Y45575890D01*
X31252215Y45614908D01*
X31237284Y45650957D01*
X31224847Y45666110D01*
X31162075Y45726167D01*
X31141583Y45734655D01*
X31137447Y45736368D01*
X31126026Y45741099D01*
X31087008Y45741099D01*
X31076450Y45736726D01*
X31050960Y45726168D01*
X31050959Y45726167D01*
X31035805Y45713730D01*
X30975750Y45650957D01*
X30965737Y45626781D01*
X30960819Y45614909D01*
X30680142Y45614909D01*
X30715579Y45688571D01*
X30720746Y45695544D01*
X30725974Y45710179D01*
X30726776Y45711845D01*
X30726827Y45712566D01*
X30727341Y45714004D01*
X30771920Y45899317D01*
X30776025Y45909225D01*
X30777217Y45921335D01*
X30777828Y45923873D01*
X30777610Y45925332D01*
X30777946Y45928734D01*
X30776215Y46160852D01*
X30777105Y46166829D01*
X31435089Y46166829D01*
X31436819Y45934712D01*
X31435207Y45923873D01*
X31436990Y45911812D01*
X31437010Y45909225D01*
X31437574Y45907862D01*
X31438075Y45904480D01*
X31485579Y45721401D01*
X31486259Y45711845D01*
X31491850Y45697233D01*
X31492289Y45695544D01*
X31492719Y45694964D01*
X31493265Y45693537D01*
X31542602Y45598513D01*
X31547179Y45587463D01*
X31550337Y45583615D01*
X31551327Y45581709D01*
X31553321Y45579980D01*
X31559616Y45572310D01*
X31609716Y45524377D01*
X31616634Y45516400D01*
X31620783Y45513789D01*
X31622388Y45512253D01*
X31624828Y45511243D01*
X31633225Y45505957D01*
X31716242Y45466019D01*
X31717627Y45464634D01*
X31728376Y45460182D01*
X31746771Y45451332D01*
X31750354Y45451078D01*
X31753675Y45449702D01*
X31773184Y45447781D01*
X31854201Y45449138D01*
X31855915Y45448566D01*
X31866959Y45449351D01*
X31887931Y45449702D01*
X31891251Y45451078D01*
X31894835Y45451332D01*
X31913143Y45458338D01*
X32008171Y45507678D01*
X32019218Y45512253D01*
X32023064Y45515411D01*
X32024971Y45516400D01*
X32026701Y45518395D01*
X32034371Y45524690D01*
X32082304Y45574793D01*
X32090279Y45581708D01*
X32092890Y45585858D01*
X32094427Y45587463D01*
X32095438Y45589905D01*
X32100722Y45598299D01*
X32144150Y45688571D01*
X32149317Y45695544D01*
X32154545Y45710179D01*
X32155347Y45711845D01*
X32155398Y45712566D01*
X32155912Y45714004D01*
X32200491Y45899317D01*
X32204596Y45909225D01*
X32205788Y45921335D01*
X32206399Y45923873D01*
X32206181Y45925332D01*
X32206517Y45928734D01*
X32204786Y46160852D01*
X32206399Y46171690D01*
X32204615Y46183752D01*
X32204596Y46186338D01*
X32204031Y46187702D01*
X32203531Y46191083D01*
X32201261Y46199833D01*
X32340924Y46199833D01*
X32345677Y46180814D01*
X32580723Y45528130D01*
X32580957Y45523426D01*
X32587046Y45510571D01*
X32592142Y45496421D01*
X32595512Y45492699D01*
X32597660Y45488164D01*
X32608511Y45478341D01*
X32618329Y45467496D01*
X32622861Y45465349D01*
X32626586Y45461977D01*
X32640376Y45457053D01*
X32653591Y45450792D01*
X32658601Y45450543D01*
X32663331Y45448854D01*
X32677952Y45449582D01*
X32692561Y45448855D01*
X32697286Y45450543D01*
X32702301Y45450792D01*
X32715527Y45457058D01*
X32729306Y45461978D01*
X32733026Y45465347D01*
X32737563Y45467495D01*
X32747385Y45478346D01*
X32758232Y45488164D01*
X32760379Y45492699D01*
X32763750Y45496421D01*
X32772120Y45514147D01*
X33014968Y46199833D01*
X33013030Y46238803D01*
X32996327Y46274065D01*
X32967401Y46300251D01*
X32930656Y46313374D01*
X32891686Y46311437D01*
X32856424Y46294733D01*
X32830237Y46265808D01*
X32821867Y46248081D01*
X32678160Y45842325D01*
X32525655Y46265808D01*
X32499468Y46294734D01*
X32464206Y46311437D01*
X32425236Y46313375D01*
X32388491Y46300252D01*
X32359565Y46274065D01*
X32342862Y46238803D01*
X32340924Y46199833D01*
X32201261Y46199833D01*
X32156026Y46374163D01*
X32155347Y46383718D01*
X32149754Y46398334D01*
X32149317Y46400019D01*
X32148887Y46400599D01*
X32148341Y46402027D01*
X32098998Y46497061D01*
X32094426Y46508101D01*
X32091270Y46511947D01*
X32090279Y46513855D01*
X32088281Y46515588D01*
X32081989Y46523254D01*
X32060260Y46544042D01*
X33863730Y46544042D01*
X33866380Y46524619D01*
X34105247Y45529481D01*
X34107102Y45515524D01*
X34109656Y45511112D01*
X34110863Y45506085D01*
X34119378Y45494319D01*
X34126651Y45481756D01*
X34130728Y45478636D01*
X34133738Y45474476D01*
X34146100Y45466869D01*
X34157634Y45458040D01*
X34162597Y45456717D01*
X34166968Y45454027D01*
X34181302Y45451729D01*
X34195335Y45447987D01*
X34200423Y45448664D01*
X34205495Y45447850D01*
X34219629Y45451216D01*
X34234013Y45453127D01*
X34238453Y45455698D01*
X34243452Y45456888D01*
X34255218Y45465404D01*
X34267781Y45472676D01*
X34270901Y45476754D01*
X34275061Y45479763D01*
X34282668Y45492126D01*
X34291497Y45503659D01*
X34294196Y45510860D01*
X34295510Y45512993D01*
X34295893Y45515384D01*
X34298380Y45522015D01*
X34392236Y45877593D01*
X34486750Y45526736D01*
X34488954Y45512993D01*
X34491619Y45508662D01*
X34492967Y45503659D01*
X34501795Y45492126D01*
X34509403Y45479763D01*
X34513562Y45476754D01*
X34516683Y45472676D01*
X34529247Y45465402D01*
X34541012Y45456888D01*
X34546007Y45455699D01*
X34550451Y45453126D01*
X34564840Y45451215D01*
X34578969Y45447850D01*
X34584040Y45448664D01*
X34589129Y45447987D01*
X34603161Y45451729D01*
X34617496Y45454027D01*
X34621866Y45456717D01*
X34626830Y45458040D01*
X34638363Y45466869D01*
X34650726Y45474476D01*
X34653735Y45478636D01*
X34657813Y45481756D01*
X34665088Y45494323D01*
X34673601Y45506085D01*
X34676105Y45513351D01*
X34677363Y45515523D01*
X34677682Y45517927D01*
X34679989Y45524619D01*
X34690066Y45567290D01*
X36294153Y45567290D01*
X36294153Y45528272D01*
X36309085Y45492224D01*
X36336675Y45464634D01*
X36372723Y45449702D01*
X36392232Y45447781D01*
X36983169Y45449702D01*
X37019217Y45464634D01*
X37046807Y45492224D01*
X37061739Y45528272D01*
X37061739Y45567290D01*
X37046807Y45603338D01*
X37019217Y45630928D01*
X36983169Y45645860D01*
X36963660Y45647781D01*
X36777758Y45647177D01*
X36776600Y46261911D01*
X36798857Y46240202D01*
X36807110Y46230686D01*
X36811348Y46228019D01*
X36812865Y46226539D01*
X36815302Y46225530D01*
X36823701Y46220243D01*
X36937247Y46165618D01*
X36976167Y46162852D01*
X37013183Y46175191D01*
X37042660Y46200756D01*
X37060109Y46235654D01*
X37062874Y46274574D01*
X37050536Y46311590D01*
X37024971Y46341067D01*
X37008381Y46351510D01*
X36930176Y46389133D01*
X36854947Y46462510D01*
X36796854Y46547781D01*
X37292231Y46547781D01*
X37294152Y45528272D01*
X37309084Y45492224D01*
X37336674Y45464634D01*
X37372722Y45449702D01*
X37411740Y45449702D01*
X37447788Y45464634D01*
X37475378Y45492224D01*
X37490310Y45528272D01*
X37492231Y45547781D01*
X37492207Y45560288D01*
X37626350Y45560288D01*
X37629116Y45521368D01*
X37646566Y45486469D01*
X37676042Y45460904D01*
X37713058Y45448566D01*
X37751978Y45451332D01*
X37786877Y45468782D01*
X37812442Y45498258D01*
X37820433Y45516158D01*
X37892539Y45733775D01*
X38225947Y45735067D01*
X38305354Y45498258D01*
X38330919Y45468782D01*
X38365818Y45451333D01*
X38404738Y45448566D01*
X38441754Y45460905D01*
X38471230Y45486470D01*
X38488680Y45521369D01*
X38491446Y45560289D01*
X38487099Y45579404D01*
X38363419Y45948243D01*
X38627486Y45948243D01*
X38627486Y45909225D01*
X38642418Y45873177D01*
X38670008Y45845587D01*
X38706056Y45830655D01*
X38725565Y45828734D01*
X39506978Y45830655D01*
X39543026Y45845587D01*
X39570616Y45873177D01*
X39585548Y45909225D01*
X39585548Y45948243D01*
X39570616Y45984291D01*
X39543026Y46011881D01*
X39506978Y46026813D01*
X39487469Y46028734D01*
X38706056Y46026813D01*
X38670008Y46011881D01*
X38642418Y45984291D01*
X38627486Y45948243D01*
X38363419Y45948243D01*
X38162381Y46547781D01*
X39863660Y46547781D01*
X39865581Y45528272D01*
X39880513Y45492224D01*
X39908103Y45464634D01*
X39944151Y45449702D01*
X39983169Y45449702D01*
X40019217Y45464634D01*
X40046807Y45492224D01*
X40061739Y45528272D01*
X40063660Y45547781D01*
X40062616Y46101771D01*
X40206508Y45795333D01*
X40211487Y45781644D01*
X40214462Y45778395D01*
X40216366Y45774341D01*
X40227576Y45764075D01*
X40237838Y45752869D01*
X40241863Y45750991D01*
X40245141Y45747989D01*
X40259423Y45742796D01*
X40273196Y45736368D01*
X40277635Y45736173D01*
X40281810Y45734655D01*
X40296993Y45735323D01*
X40312176Y45734655D01*
X40316349Y45736173D01*
X40320791Y45736368D01*
X40334575Y45742801D01*
X40348845Y45747990D01*
X40352118Y45750988D01*
X40356148Y45752868D01*
X40366417Y45764083D01*
X40377620Y45774341D01*
X40380931Y45779932D01*
X40382500Y45781644D01*
X40383380Y45784066D01*
X40387611Y45791207D01*
X40531168Y46100749D01*
X40532247Y45528272D01*
X40547179Y45492224D01*
X40574769Y45464634D01*
X40610817Y45449702D01*
X40649835Y45449702D01*
X40685883Y45464634D01*
X40713473Y45492224D01*
X40728405Y45528272D01*
X40730326Y45547781D01*
X40728801Y46357305D01*
X40958898Y46357305D01*
X40960414Y46229149D01*
X40959683Y46226955D01*
X40960591Y46214173D01*
X40960819Y46194939D01*
X40962194Y46191619D01*
X40962449Y46188035D01*
X40969455Y46169727D01*
X41018795Y46074698D01*
X41023370Y46063653D01*
X41026526Y46059807D01*
X41027517Y46057899D01*
X41029511Y46056170D01*
X41035806Y46048499D01*
X41085908Y46000566D01*
X41092824Y45992591D01*
X41096973Y45989980D01*
X41098578Y45988444D01*
X41101018Y45987434D01*
X41109415Y45982148D01*
X41192432Y45942210D01*
X41193817Y45940825D01*
X41204566Y45936373D01*
X41222961Y45927523D01*
X41226544Y45927269D01*
X41229865Y45925893D01*
X41249374Y45923972D01*
X41531498Y45925326D01*
X41532247Y45528272D01*
X41547179Y45492224D01*
X41574769Y45464634D01*
X41610817Y45449702D01*
X41649835Y45449702D01*
X41685883Y45464634D01*
X41713473Y45492224D01*
X41728405Y45528272D01*
X41730326Y45547781D01*
X41728405Y46567290D01*
X41713473Y46603338D01*
X41685883Y46630928D01*
X41649835Y46645860D01*
X41630326Y46647781D01*
X41264786Y46646028D01*
X41261881Y46646996D01*
X41247056Y46645943D01*
X41229865Y46645860D01*
X41226544Y46644485D01*
X41222961Y46644230D01*
X41204652Y46637224D01*
X41109618Y46587882D01*
X41098578Y46583309D01*
X41094732Y46580154D01*
X41092824Y46579162D01*
X41091091Y46577165D01*
X41083425Y46570872D01*
X41035493Y46520772D01*
X41027517Y46513854D01*
X41024904Y46509705D01*
X41023370Y46508100D01*
X41022359Y46505661D01*
X41017074Y46497264D01*
X40977135Y46414247D01*
X40975751Y46412862D01*
X40971298Y46402113D01*
X40962449Y46383718D01*
X40962194Y46380135D01*
X40960819Y46376814D01*
X40958898Y46357305D01*
X40728801Y46357305D01*
X40728444Y46546516D01*
X40729167Y46562964D01*
X40728409Y46565048D01*
X40728405Y46567290D01*
X40721764Y46583321D01*
X40715833Y46599633D01*
X40714326Y46601279D01*
X40713473Y46603338D01*
X40701211Y46615600D01*
X40689481Y46628409D01*
X40687457Y46629354D01*
X40685883Y46630928D01*
X40669867Y46637563D01*
X40654124Y46644909D01*
X40651894Y46645007D01*
X40649835Y46645860D01*
X40632483Y46645860D01*
X40615143Y46646622D01*
X40613047Y46645860D01*
X40610817Y46645860D01*
X40594786Y46639220D01*
X40578474Y46633288D01*
X40576828Y46631782D01*
X40574769Y46630928D01*
X40562501Y46618661D01*
X40549699Y46606936D01*
X40548132Y46604292D01*
X40547179Y46603338D01*
X40546275Y46601157D01*
X40539708Y46590070D01*
X40297469Y46067751D01*
X40053023Y46588331D01*
X40046807Y46603338D01*
X40045241Y46604904D01*
X40044287Y46606936D01*
X40031490Y46618655D01*
X40019217Y46630928D01*
X40017155Y46631782D01*
X40015512Y46633287D01*
X39999210Y46639216D01*
X39983169Y46645860D01*
X39980938Y46645860D01*
X39978843Y46646622D01*
X39961503Y46645860D01*
X39944151Y46645860D01*
X39942091Y46645007D01*
X39939863Y46644909D01*
X39924132Y46637568D01*
X39908103Y46630928D01*
X39906526Y46629352D01*
X39904505Y46628408D01*
X39892786Y46615612D01*
X39880513Y46603338D01*
X39879659Y46601277D01*
X39878154Y46599633D01*
X39872225Y46583332D01*
X39865581Y46567290D01*
X39865279Y46564232D01*
X39864819Y46562964D01*
X39864922Y46560605D01*
X39863660Y46547781D01*
X38162381Y46547781D01*
X38155837Y46567297D01*
X38155347Y46574193D01*
X38149814Y46585259D01*
X38145775Y46597304D01*
X38141090Y46602706D01*
X38137897Y46609092D01*
X38128428Y46617305D01*
X38120210Y46626780D01*
X38113818Y46629977D01*
X38108421Y46634657D01*
X38096527Y46638622D01*
X38085311Y46644230D01*
X38078183Y46644737D01*
X38071405Y46646996D01*
X38058900Y46646107D01*
X38046391Y46646996D01*
X38039609Y46644736D01*
X38032485Y46644229D01*
X38021276Y46638626D01*
X38009375Y46634658D01*
X38003974Y46629975D01*
X37997586Y46626780D01*
X37989370Y46617309D01*
X37979899Y46609093D01*
X37976704Y46602704D01*
X37972021Y46597304D01*
X37964030Y46579403D01*
X37725806Y45860446D01*
X37722724Y45853005D01*
X37722724Y45851144D01*
X37626350Y45560288D01*
X37492207Y45560288D01*
X37490310Y46567290D01*
X37475378Y46603338D01*
X37447788Y46630928D01*
X37411740Y46645860D01*
X37372722Y46645860D01*
X37336674Y46630928D01*
X37309084Y46603338D01*
X37294152Y46567290D01*
X37292231Y46547781D01*
X36796854Y46547781D01*
X36764332Y46595518D01*
X36761093Y46603338D01*
X36754540Y46609891D01*
X36748731Y46618418D01*
X36740502Y46623929D01*
X36733503Y46630928D01*
X36724451Y46634678D01*
X36716311Y46640129D01*
X36706603Y46642071D01*
X36697455Y46645860D01*
X36687656Y46645860D01*
X36678051Y46647781D01*
X36668340Y46645860D01*
X36658437Y46645860D01*
X36649384Y46642111D01*
X36639774Y46640209D01*
X36631535Y46634717D01*
X36622389Y46630928D01*
X36615462Y46624002D01*
X36607309Y46618566D01*
X36601798Y46610338D01*
X36594799Y46603338D01*
X36591049Y46594287D01*
X36585598Y46586146D01*
X36583656Y46576439D01*
X36579867Y46567290D01*
X36577966Y46547988D01*
X36577946Y46547886D01*
X36577952Y46547852D01*
X36577946Y46547781D01*
X36579644Y45646533D01*
X36372723Y45645860D01*
X36336675Y45630928D01*
X36309085Y45603338D01*
X36294153Y45567290D01*
X34690066Y45567290D01*
X34780031Y45948243D01*
X35103677Y45948243D01*
X35103677Y45909225D01*
X35118609Y45873177D01*
X35146199Y45845587D01*
X35182247Y45830655D01*
X35201756Y45828734D01*
X35983169Y45830655D01*
X36019217Y45845587D01*
X36046807Y45873177D01*
X36061739Y45909225D01*
X36061739Y45948243D01*
X36046807Y45984291D01*
X36019217Y46011881D01*
X35983169Y46026813D01*
X35963660Y46028734D01*
X35182247Y46026813D01*
X35146199Y46011881D01*
X35118609Y45984291D01*
X35103677Y45948243D01*
X34780031Y45948243D01*
X34920734Y46544042D01*
X34914557Y46582569D01*
X34894108Y46615799D01*
X34862499Y46638674D01*
X34824542Y46647712D01*
X34786015Y46641535D01*
X34752785Y46621086D01*
X34729910Y46589477D01*
X34723522Y46570943D01*
X34577367Y45952061D01*
X34488559Y46281740D01*
X34486887Y46294325D01*
X34483673Y46299875D01*
X34481973Y46306189D01*
X34473948Y46316672D01*
X34467337Y46328092D01*
X34462193Y46332029D01*
X34458257Y46337172D01*
X34446839Y46343782D01*
X34436354Y46351808D01*
X34430090Y46353479D01*
X34424489Y46356721D01*
X34411411Y46358459D01*
X34398653Y46361861D01*
X34392231Y46361008D01*
X34385811Y46361861D01*
X34373057Y46358461D01*
X34359975Y46356722D01*
X34354370Y46353478D01*
X34348110Y46351808D01*
X34337626Y46343784D01*
X34326207Y46337172D01*
X34322270Y46332029D01*
X34317127Y46328092D01*
X34310517Y46316675D01*
X34302491Y46306189D01*
X34298895Y46296601D01*
X34297578Y46294324D01*
X34297323Y46292406D01*
X34295609Y46287834D01*
X34207281Y45953205D01*
X34054554Y46589477D01*
X34031679Y46621086D01*
X33998449Y46641535D01*
X33959922Y46647712D01*
X33921965Y46638674D01*
X33890356Y46615799D01*
X33869907Y46582569D01*
X33863730Y46544042D01*
X32060260Y46544042D01*
X32031888Y46571186D01*
X32024971Y46579162D01*
X32020821Y46581775D01*
X32019217Y46583309D01*
X32016777Y46584320D01*
X32008381Y46589605D01*
X31925363Y46629544D01*
X31923979Y46630928D01*
X31913229Y46635381D01*
X31894835Y46644230D01*
X31891251Y46644485D01*
X31887931Y46645860D01*
X31868422Y46647781D01*
X31787404Y46646425D01*
X31785691Y46646996D01*
X31774646Y46646212D01*
X31753675Y46645860D01*
X31750354Y46644485D01*
X31746771Y46644230D01*
X31728462Y46637224D01*
X31633428Y46587882D01*
X31622388Y46583309D01*
X31618542Y46580154D01*
X31616634Y46579162D01*
X31614901Y46577165D01*
X31607235Y46570872D01*
X31559303Y46520772D01*
X31551327Y46513854D01*
X31548714Y46509705D01*
X31547180Y46508100D01*
X31546169Y46505661D01*
X31540884Y46497264D01*
X31497455Y46406993D01*
X31492289Y46400019D01*
X31487061Y46385387D01*
X31486259Y46383718D01*
X31486207Y46382996D01*
X31485694Y46381558D01*
X31441114Y46196248D01*
X31437010Y46186338D01*
X31435817Y46174229D01*
X31435207Y46171690D01*
X31435424Y46170232D01*
X31435089Y46166829D01*
X30777105Y46166829D01*
X30777828Y46171690D01*
X30776044Y46183752D01*
X30776025Y46186338D01*
X30775460Y46187702D01*
X30774960Y46191083D01*
X30727455Y46374163D01*
X30726776Y46383718D01*
X30721183Y46398334D01*
X30720746Y46400019D01*
X30720316Y46400599D01*
X30719770Y46402027D01*
X30670427Y46497061D01*
X30665855Y46508101D01*
X30662699Y46511947D01*
X30661708Y46513855D01*
X30659710Y46515588D01*
X30653418Y46523254D01*
X30603317Y46571186D01*
X30596400Y46579162D01*
X30592250Y46581775D01*
X30590646Y46583309D01*
X30588206Y46584320D01*
X30579810Y46589605D01*
X30496792Y46629544D01*
X30495408Y46630928D01*
X30484658Y46635381D01*
X30466264Y46644230D01*
X30462680Y46644485D01*
X30459360Y46645860D01*
X30439851Y46647781D01*
X30358833Y46646425D01*
X30357120Y46646996D01*
X30346075Y46646212D01*
X30325104Y46645860D01*
X30321783Y46644485D01*
X30318200Y46644230D01*
X30299891Y46637224D01*
X30204857Y46587882D01*
X30193817Y46583309D01*
X30189971Y46580154D01*
X30188063Y46579162D01*
X30186330Y46577165D01*
X30178664Y46570872D01*
X30130732Y46520772D01*
X30122756Y46513854D01*
X30120143Y46509705D01*
X30118609Y46508100D01*
X30117598Y46505661D01*
X30112313Y46497264D01*
X30068884Y46406993D01*
X30063718Y46400019D01*
X30058490Y46385387D01*
X30057688Y46383718D01*
X30057636Y46382996D01*
X30057123Y46381558D01*
X30012543Y46196248D01*
X30008439Y46186338D01*
X30007246Y46174229D01*
X30006636Y46171690D01*
X30006853Y46170232D01*
X30006518Y46166829D01*
X29273813Y46166829D01*
X29298898Y46175191D01*
X29328375Y46200756D01*
X29345824Y46235654D01*
X29348589Y46274574D01*
X29336251Y46311590D01*
X29310686Y46341067D01*
X29294096Y46351510D01*
X29215891Y46389133D01*
X29140662Y46462510D01*
X29050047Y46595518D01*
X29046808Y46603338D01*
X29040255Y46609891D01*
X29034446Y46618418D01*
X29026217Y46623929D01*
X29019218Y46630928D01*
X29010166Y46634678D01*
X29002026Y46640129D01*
X28992318Y46642071D01*
X28983170Y46645860D01*
X28973371Y46645860D01*
X28963766Y46647781D01*
X28954055Y46645860D01*
X28944152Y46645860D01*
X28935099Y46642111D01*
X28925489Y46640209D01*
X28917250Y46634717D01*
X28908104Y46630928D01*
X28901177Y46624002D01*
X28893024Y46618566D01*
X28887513Y46610338D01*
X28880514Y46603338D01*
X28876764Y46594287D01*
X28871313Y46586146D01*
X28869371Y46576439D01*
X28865582Y46567290D01*
X28863681Y46547988D01*
X28863661Y46547886D01*
X28863667Y46547852D01*
X28863661Y46547781D01*
X28865359Y45646533D01*
X28658438Y45645860D01*
X28622390Y45630928D01*
X28594800Y45603338D01*
X28579868Y45567290D01*
X28468757Y45567290D01*
X28468757Y46758892D01*
X41841437Y46758892D01*
X41841437Y45336670D01*
G37*
%LPC*%
D11*
%TO.C,H1*%
X-32000000Y46000000D03*
%TD*%
D12*
%TO.C,J4*%
X-44450000Y17780000D03*
D13*
X-44450000Y12700000D03*
X-44450000Y7620000D03*
X-44450000Y2540000D03*
X-44450000Y-2540000D03*
X-44450000Y-7620000D03*
X-44450000Y-12700000D03*
X-44450000Y-17780000D03*
%TD*%
D14*
%TO.C,U5*%
X-39000000Y45000000D03*
X-39000000Y-45000000D03*
X-25000000Y45000000D03*
X-25000000Y-45000000D03*
%TD*%
D11*
%TO.C,H3*%
X46000000Y-32000000D03*
%TD*%
%TO.C,H2*%
X46000000Y32000000D03*
%TD*%
%TO.C,H4*%
X-32000000Y-46000000D03*
%TD*%
D14*
%TO.C,U2*%
X11000000Y45000000D03*
X11000000Y-45000000D03*
X45000000Y45000000D03*
X45000000Y-45000000D03*
%TD*%
%LPD*%
M02*
