<?xml version="1.0" standalone="no"?>
 <!DOCTYPE svg PUBLIC "-//W3C//DTD SVG 1.1//EN" 
 "http://www.w3.org/Graphics/SVG/1.1/DTD/svg11.dtd"> 
<svg
  xmlns:svg="http://www.w3.org/2000/svg"
  xmlns="http://www.w3.org/2000/svg"
  xmlns:xlink="http://www.w3.org/1999/xlink"
  version="1.1"
  width="297.0022mm" height="210.0072mm" viewBox="0.0000 0.0000 297.0022 210.0072">
<title>SVG Image created as PMCNV-AI8IU-NPTH-drl_map.svg date 2025/06/25 12:37:36 </title>
  <desc>Image generated by PCBNEW </desc>
<g style="fill:#000000; fill-opacity:1.0000;stroke:#000000; stroke-opacity:1.0000;
stroke-linecap:round; stroke-linejoin:round;"
 transform="translate(0 0) scale(1 1)">
</g>
<g style="fill:none; 
stroke:#000000; stroke-width:0.2315; stroke-opacity:1; 
stroke-linecap:round; stroke-linejoin:round;">
<path d="M180.9175 118.5731 A1.1577 1.1577 0.0 0 0 179.7597 119.7308" />
<path d="M191.3370 7.4312
L180.9175 7.4312
" />
<path d="M167.0247 7.4312 A1.1577 1.1577 0.0 0 0 168.1825 6.2735" />
<path d="M106.8229 5.1158 A4.6309 4.6309 0.0 0 0 102.1920 9.7467" />
<path d="M169.3402 5.1158 A1.1577 1.1577 0.0 0 0 168.1825 6.2735" />
<path d="M102.1920 9.7467
L102.1920 116.2576
" />
<path d="M194.8102 10.9044 A3.4732 3.4732 0.0 0 0 191.3370 7.4312" />
<path d="M168.1825 119.7308 A1.1577 1.1577 0.0 0 0 167.0247 118.5731" />
<path d="M102.1920 116.2576 A4.6309 4.6309 0.0 0 0 110.8334 118.5731" />
<path d="M167.0247 118.5731
L110.8334 118.5731
" />
<path d="M179.7597 6.2735 A1.1577 1.1577 0.0 0 0 178.6020 5.1158" />
<path d="M178.6020 120.8885 A1.1577 1.1577 0.0 0 0 179.7597 119.7308" />
<path d="M169.3402 120.8885
L178.6020 120.8885
" />
<path d="M110.8437 7.4312
L167.0247 7.4312
" />
<path d="M110.8359 7.4357 A4.6309 4.6309 0.0 0 0 106.8229 5.1158" />
<path d="M178.6020 5.1158
L169.3402 5.1158
" />
<path d="M179.7597 6.2735 A1.1577 1.1577 0.0 0 0 180.9175 7.4312" />
<path d="M180.9175 118.5731
L191.3370 118.5731
" />
<path d="M168.1825 119.7308 A1.1577 1.1577 0.0 0 0 169.3402 120.8885" />
<path d="M191.3370 118.5731 A3.4732 3.4732 0.0 0 0 194.8102 115.0999" />
<path d="M194.8102 10.9044
L194.8102 115.0999
" />
</g>
<g style="fill:none; 
stroke:#000000; stroke-width:0.0579; stroke-opacity:1; 
stroke-linecap:round; stroke-linejoin:round;">
<circle cx="105.7505" cy="17.8508" r="1.2735" /> 
<circle cx="105.7505" cy="108.1535" r="1.2735" /> 
<circle cx="138.1669" cy="10.9044" r="1.2735" /> 
<circle cx="138.1669" cy="115.0999" r="1.2735" /> 
</g>
<g style="fill:none; 
stroke:#000000; stroke-width:0.3705; stroke-opacity:1; 
stroke-linecap:round; stroke-linejoin:round;">
<path d="M104.9705 7.8943
L108.6753 11.5990
" />
<path d="M108.6753 7.8943
L104.9705 11.5990
" />
<path d="M104.9705 114.4053
L108.6753 118.1100
" />
<path d="M108.6753 114.4053
L104.9705 118.1100
" />
<path d="M172.1187 7.4428
L175.8235 11.1475
" />
<path d="M175.8235 7.4428
L172.1187 11.1475
" />
</g>
<g style="fill:none; 
stroke:#000000; stroke-width:0.2000; stroke-opacity:1; 
stroke-linecap:round; stroke-linejoin:round;">
<text x="104.0762" y="124.2043"
textLength="14.8667" font-size="2.6667" lengthAdjust="spacingAndGlyphs"
text-anchor="start" opacity="0" stroke-opacity="0">Drill Map:</text>
<g class="stroked-text"><desc>Drill Map:</desc>
<path d="M104.6840 124.1192
L104.6840 122.1192
" />
<path d="M104.6840 122.1192
L105.1602 122.1192
" />
<path d="M105.1602 122.1192
L105.4459 122.2144
" />
<path d="M105.4459 122.2144
L105.6364 122.4049
" />
<path d="M105.6364 122.4049
L105.7316 122.5953
" />
<path d="M105.7316 122.5953
L105.8268 122.9763
" />
<path d="M105.8268 122.9763
L105.8268 123.2620
" />
<path d="M105.8268 123.2620
L105.7316 123.6430
" />
<path d="M105.7316 123.6430
L105.6364 123.8334
" />
<path d="M105.6364 123.8334
L105.4459 124.0239
" />
<path d="M105.4459 124.0239
L105.1602 124.1192
" />
<path d="M105.1602 124.1192
L104.6840 124.1192
" />
<path d="M106.6840 124.1192
L106.6840 122.7858
" />
<path d="M106.6840 123.1668
L106.7792 122.9763
" />
<path d="M106.7792 122.9763
L106.8745 122.8811
" />
<path d="M106.8745 122.8811
L107.0649 122.7858
" />
<path d="M107.0649 122.7858
L107.2554 122.7858
" />
<path d="M107.9221 124.1192
L107.9221 122.7858
" />
<path d="M107.9221 122.1192
L107.8268 122.2144
" />
<path d="M107.8268 122.2144
L107.9221 122.3096
" />
<path d="M107.9221 122.3096
L108.0173 122.2144
" />
<path d="M108.0173 122.2144
L107.9221 122.1192
" />
<path d="M107.9221 122.1192
L107.9221 122.3096
" />
<path d="M109.1602 124.1192
L108.9697 124.0239
" />
<path d="M108.9697 124.0239
L108.8745 123.8334
" />
<path d="M108.8745 123.8334
L108.8745 122.1192
" />
<path d="M110.2078 124.1192
L110.0173 124.0239
" />
<path d="M110.0173 124.0239
L109.9221 123.8334
" />
<path d="M109.9221 123.8334
L109.9221 122.1192
" />
<path d="M112.4935 124.1192
L112.4935 122.1192
" />
<path d="M112.4935 122.1192
L113.1602 123.5477
" />
<path d="M113.1602 123.5477
L113.8268 122.1192
" />
<path d="M113.8268 122.1192
L113.8268 124.1192
" />
<path d="M115.6364 124.1192
L115.6364 123.0715
" />
<path d="M115.6364 123.0715
L115.5411 122.8811
" />
<path d="M115.5411 122.8811
L115.3507 122.7858
" />
<path d="M115.3507 122.7858
L114.9697 122.7858
" />
<path d="M114.9697 122.7858
L114.7792 122.8811
" />
<path d="M115.6364 124.0239
L115.4459 124.1192
" />
<path d="M115.4459 124.1192
L114.9697 124.1192
" />
<path d="M114.9697 124.1192
L114.7792 124.0239
" />
<path d="M114.7792 124.0239
L114.6840 123.8334
" />
<path d="M114.6840 123.8334
L114.6840 123.6430
" />
<path d="M114.6840 123.6430
L114.7792 123.4525
" />
<path d="M114.7792 123.4525
L114.9697 123.3573
" />
<path d="M114.9697 123.3573
L115.4459 123.3573
" />
<path d="M115.4459 123.3573
L115.6364 123.2620
" />
<path d="M116.5887 122.7858
L116.5887 124.7858
" />
<path d="M116.5887 122.8811
L116.7792 122.7858
" />
<path d="M116.7792 122.7858
L117.1602 122.7858
" />
<path d="M117.1602 122.7858
L117.3507 122.8811
" />
<path d="M117.3507 122.8811
L117.4459 122.9763
" />
<path d="M117.4459 122.9763
L117.5411 123.1668
" />
<path d="M117.5411 123.1668
L117.5411 123.7382
" />
<path d="M117.5411 123.7382
L117.4459 123.9287
" />
<path d="M117.4459 123.9287
L117.3507 124.0239
" />
<path d="M117.3507 124.0239
L117.1602 124.1192
" />
<path d="M117.1602 124.1192
L116.7792 124.1192
" />
<path d="M116.7792 124.1192
L116.5887 124.0239
" />
<path d="M118.3983 123.9287
L118.4935 124.0239
" />
<path d="M118.4935 124.0239
L118.3983 124.1192
" />
<path d="M118.3983 124.1192
L118.3030 124.0239
" />
<path d="M118.3030 124.0239
L118.3983 123.9287
" />
<path d="M118.3983 123.9287
L118.3983 124.1192
" />
<path d="M118.3983 122.8811
L118.4935 122.9763
" />
<path d="M118.4935 122.9763
L118.3983 123.0715
" />
<path d="M118.3983 123.0715
L118.3030 122.9763
" />
<path d="M118.3030 122.9763
L118.3983 122.8811
" />
<path d="M118.3983 122.8811
L118.3983 123.0715
" />
</g><path d="M100.0762 126.4043
L102.0762 128.4043
" />
<path d="M102.0762 126.4043
L100.0762 128.4043
" />
</g>
<g style="fill:none; 
stroke:#000000; stroke-width:0.2000; stroke-opacity:1; 
stroke-linecap:round; stroke-linejoin:round;">
<text x="104.0762" y="128.4043"
textLength="66.6762" font-size="2.6667" lengthAdjust="spacingAndGlyphs"
text-anchor="start" opacity="0" stroke-opacity="0">3.200mm / 0.1260" (3 holes) (not plated)</text>
<g class="stroked-text"><desc>3.200mm / 0.1260" (3 holes) (not plated)</desc>
<path d="M104.4935 126.3192
L105.7316 126.3192
" />
<path d="M105.7316 126.3192
L105.0649 127.0811
" />
<path d="M105.0649 127.0811
L105.3507 127.0811
" />
<path d="M105.3507 127.0811
L105.5411 127.1763
" />
<path d="M105.5411 127.1763
L105.6364 127.2715
" />
<path d="M105.6364 127.2715
L105.7316 127.4620
" />
<path d="M105.7316 127.4620
L105.7316 127.9382
" />
<path d="M105.7316 127.9382
L105.6364 128.1287
" />
<path d="M105.6364 128.1287
L105.5411 128.2239
" />
<path d="M105.5411 128.2239
L105.3507 128.3192
" />
<path d="M105.3507 128.3192
L104.7792 128.3192
" />
<path d="M104.7792 128.3192
L104.5887 128.2239
" />
<path d="M104.5887 128.2239
L104.4935 128.1287
" />
<path d="M106.5887 128.1287
L106.6840 128.2239
" />
<path d="M106.6840 128.2239
L106.5887 128.3192
" />
<path d="M106.5887 128.3192
L106.4935 128.2239
" />
<path d="M106.4935 128.2239
L106.5887 128.1287
" />
<path d="M106.5887 128.1287
L106.5887 128.3192
" />
<path d="M107.4459 126.5096
L107.5411 126.4144
" />
<path d="M107.5411 126.4144
L107.7316 126.3192
" />
<path d="M107.7316 126.3192
L108.2078 126.3192
" />
<path d="M108.2078 126.3192
L108.3983 126.4144
" />
<path d="M108.3983 126.4144
L108.4935 126.5096
" />
<path d="M108.4935 126.5096
L108.5887 126.7001
" />
<path d="M108.5887 126.7001
L108.5887 126.8906
" />
<path d="M108.5887 126.8906
L108.4935 127.1763
" />
<path d="M108.4935 127.1763
L107.3507 128.3192
" />
<path d="M107.3507 128.3192
L108.5887 128.3192
" />
<path d="M109.8268 126.3192
L110.0173 126.3192
" />
<path d="M110.0173 126.3192
L110.2078 126.4144
" />
<path d="M110.2078 126.4144
L110.3030 126.5096
" />
<path d="M110.3030 126.5096
L110.3983 126.7001
" />
<path d="M110.3983 126.7001
L110.4935 127.0811
" />
<path d="M110.4935 127.0811
L110.4935 127.5573
" />
<path d="M110.4935 127.5573
L110.3983 127.9382
" />
<path d="M110.3983 127.9382
L110.3030 128.1287
" />
<path d="M110.3030 128.1287
L110.2078 128.2239
" />
<path d="M110.2078 128.2239
L110.0173 128.3192
" />
<path d="M110.0173 128.3192
L109.8268 128.3192
" />
<path d="M109.8268 128.3192
L109.6364 128.2239
" />
<path d="M109.6364 128.2239
L109.5411 128.1287
" />
<path d="M109.5411 128.1287
L109.4459 127.9382
" />
<path d="M109.4459 127.9382
L109.3507 127.5573
" />
<path d="M109.3507 127.5573
L109.3507 127.0811
" />
<path d="M109.3507 127.0811
L109.4459 126.7001
" />
<path d="M109.4459 126.7001
L109.5411 126.5096
" />
<path d="M109.5411 126.5096
L109.6364 126.4144
" />
<path d="M109.6364 126.4144
L109.8268 126.3192
" />
<path d="M111.7316 126.3192
L111.9221 126.3192
" />
<path d="M111.9221 126.3192
L112.1126 126.4144
" />
<path d="M112.1126 126.4144
L112.2078 126.5096
" />
<path d="M112.2078 126.5096
L112.3030 126.7001
" />
<path d="M112.3030 126.7001
L112.3983 127.0811
" />
<path d="M112.3983 127.0811
L112.3983 127.5573
" />
<path d="M112.3983 127.5573
L112.3030 127.9382
" />
<path d="M112.3030 127.9382
L112.2078 128.1287
" />
<path d="M112.2078 128.1287
L112.1126 128.2239
" />
<path d="M112.1126 128.2239
L111.9221 128.3192
" />
<path d="M111.9221 128.3192
L111.7316 128.3192
" />
<path d="M111.7316 128.3192
L111.5411 128.2239
" />
<path d="M111.5411 128.2239
L111.4459 128.1287
" />
<path d="M111.4459 128.1287
L111.3507 127.9382
" />
<path d="M111.3507 127.9382
L111.2554 127.5573
" />
<path d="M111.2554 127.5573
L111.2554 127.0811
" />
<path d="M111.2554 127.0811
L111.3507 126.7001
" />
<path d="M111.3507 126.7001
L111.4459 126.5096
" />
<path d="M111.4459 126.5096
L111.5411 126.4144
" />
<path d="M111.5411 126.4144
L111.7316 126.3192
" />
<path d="M113.2554 128.3192
L113.2554 126.9858
" />
<path d="M113.2554 127.1763
L113.3507 127.0811
" />
<path d="M113.3507 127.0811
L113.5411 126.9858
" />
<path d="M113.5411 126.9858
L113.8268 126.9858
" />
<path d="M113.8268 126.9858
L114.0173 127.0811
" />
<path d="M114.0173 127.0811
L114.1126 127.2715
" />
<path d="M114.1126 127.2715
L114.1126 128.3192
" />
<path d="M114.1126 127.2715
L114.2078 127.0811
" />
<path d="M114.2078 127.0811
L114.3983 126.9858
" />
<path d="M114.3983 126.9858
L114.6840 126.9858
" />
<path d="M114.6840 126.9858
L114.8745 127.0811
" />
<path d="M114.8745 127.0811
L114.9697 127.2715
" />
<path d="M114.9697 127.2715
L114.9697 128.3192
" />
<path d="M115.9221 128.3192
L115.9221 126.9858
" />
<path d="M115.9221 127.1763
L116.0173 127.0811
" />
<path d="M116.0173 127.0811
L116.2078 126.9858
" />
<path d="M116.2078 126.9858
L116.4935 126.9858
" />
<path d="M116.4935 126.9858
L116.6840 127.0811
" />
<path d="M116.6840 127.0811
L116.7792 127.2715
" />
<path d="M116.7792 127.2715
L116.7792 128.3192
" />
<path d="M116.7792 127.2715
L116.8745 127.0811
" />
<path d="M116.8745 127.0811
L117.0649 126.9858
" />
<path d="M117.0649 126.9858
L117.3507 126.9858
" />
<path d="M117.3507 126.9858
L117.5411 127.0811
" />
<path d="M117.5411 127.0811
L117.6364 127.2715
" />
<path d="M117.6364 127.2715
L117.6364 128.3192
" />
<path d="M121.5411 126.2239
L119.8268 128.7953
" />
<path d="M124.1126 126.3192
L124.3030 126.3192
" />
<path d="M124.3030 126.3192
L124.4935 126.4144
" />
<path d="M124.4935 126.4144
L124.5887 126.5096
" />
<path d="M124.5887 126.5096
L124.6840 126.7001
" />
<path d="M124.6840 126.7001
L124.7792 127.0811
" />
<path d="M124.7792 127.0811
L124.7792 127.5573
" />
<path d="M124.7792 127.5573
L124.6840 127.9382
" />
<path d="M124.6840 127.9382
L124.5887 128.1287
" />
<path d="M124.5887 128.1287
L124.4935 128.2239
" />
<path d="M124.4935 128.2239
L124.3030 128.3192
" />
<path d="M124.3030 128.3192
L124.1126 128.3192
" />
<path d="M124.1126 128.3192
L123.9221 128.2239
" />
<path d="M123.9221 128.2239
L123.8268 128.1287
" />
<path d="M123.8268 128.1287
L123.7316 127.9382
" />
<path d="M123.7316 127.9382
L123.6364 127.5573
" />
<path d="M123.6364 127.5573
L123.6364 127.0811
" />
<path d="M123.6364 127.0811
L123.7316 126.7001
" />
<path d="M123.7316 126.7001
L123.8268 126.5096
" />
<path d="M123.8268 126.5096
L123.9221 126.4144
" />
<path d="M123.9221 126.4144
L124.1126 126.3192
" />
<path d="M125.6364 128.1287
L125.7316 128.2239
" />
<path d="M125.7316 128.2239
L125.6364 128.3192
" />
<path d="M125.6364 128.3192
L125.5411 128.2239
" />
<path d="M125.5411 128.2239
L125.6364 128.1287
" />
<path d="M125.6364 128.1287
L125.6364 128.3192
" />
<path d="M127.6364 128.3192
L126.4935 128.3192
" />
<path d="M127.0649 128.3192
L127.0649 126.3192
" />
<path d="M127.0649 126.3192
L126.8745 126.6049
" />
<path d="M126.8745 126.6049
L126.6840 126.7953
" />
<path d="M126.6840 126.7953
L126.4935 126.8906
" />
<path d="M128.3983 126.5096
L128.4935 126.4144
" />
<path d="M128.4935 126.4144
L128.6840 126.3192
" />
<path d="M128.6840 126.3192
L129.1602 126.3192
" />
<path d="M129.1602 126.3192
L129.3507 126.4144
" />
<path d="M129.3507 126.4144
L129.4459 126.5096
" />
<path d="M129.4459 126.5096
L129.5411 126.7001
" />
<path d="M129.5411 126.7001
L129.5411 126.8906
" />
<path d="M129.5411 126.8906
L129.4459 127.1763
" />
<path d="M129.4459 127.1763
L128.3030 128.3192
" />
<path d="M128.3030 128.3192
L129.5411 128.3192
" />
<path d="M131.2554 126.3192
L130.8745 126.3192
" />
<path d="M130.8745 126.3192
L130.6840 126.4144
" />
<path d="M130.6840 126.4144
L130.5888 126.5096
" />
<path d="M130.5888 126.5096
L130.3983 126.7953
" />
<path d="M130.3983 126.7953
L130.3030 127.1763
" />
<path d="M130.3030 127.1763
L130.3030 127.9382
" />
<path d="M130.3030 127.9382
L130.3983 128.1287
" />
<path d="M130.3983 128.1287
L130.4935 128.2239
" />
<path d="M130.4935 128.2239
L130.6840 128.3192
" />
<path d="M130.6840 128.3192
L131.0649 128.3192
" />
<path d="M131.0649 128.3192
L131.2554 128.2239
" />
<path d="M131.2554 128.2239
L131.3507 128.1287
" />
<path d="M131.3507 128.1287
L131.4459 127.9382
" />
<path d="M131.4459 127.9382
L131.4459 127.4620
" />
<path d="M131.4459 127.4620
L131.3507 127.2715
" />
<path d="M131.3507 127.2715
L131.2554 127.1763
" />
<path d="M131.2554 127.1763
L131.0649 127.0811
" />
<path d="M131.0649 127.0811
L130.6840 127.0811
" />
<path d="M130.6840 127.0811
L130.4935 127.1763
" />
<path d="M130.4935 127.1763
L130.3983 127.2715
" />
<path d="M130.3983 127.2715
L130.3030 127.4620
" />
<path d="M132.6840 126.3192
L132.8745 126.3192
" />
<path d="M132.8745 126.3192
L133.0649 126.4144
" />
<path d="M133.0649 126.4144
L133.1602 126.5096
" />
<path d="M133.1602 126.5096
L133.2554 126.7001
" />
<path d="M133.2554 126.7001
L133.3507 127.0811
" />
<path d="M133.3507 127.0811
L133.3507 127.5573
" />
<path d="M133.3507 127.5573
L133.2554 127.9382
" />
<path d="M133.2554 127.9382
L133.1602 128.1287
" />
<path d="M133.1602 128.1287
L133.0649 128.2239
" />
<path d="M133.0649 128.2239
L132.8745 128.3192
" />
<path d="M132.8745 128.3192
L132.6840 128.3192
" />
<path d="M132.6840 128.3192
L132.4935 128.2239
" />
<path d="M132.4935 128.2239
L132.3983 128.1287
" />
<path d="M132.3983 128.1287
L132.3030 127.9382
" />
<path d="M132.3030 127.9382
L132.2078 127.5573
" />
<path d="M132.2078 127.5573
L132.2078 127.0811
" />
<path d="M132.2078 127.0811
L132.3030 126.7001
" />
<path d="M132.3030 126.7001
L132.3983 126.5096
" />
<path d="M132.3983 126.5096
L132.4935 126.4144
" />
<path d="M132.4935 126.4144
L132.6840 126.3192
" />
<path d="M134.1126 126.3192
L134.1126 126.7001
" />
<path d="M134.8745 126.3192
L134.8745 126.7001
" />
<path d="M137.8268 129.0811
L137.7316 128.9858
" />
<path d="M137.7316 128.9858
L137.5411 128.7001
" />
<path d="M137.5411 128.7001
L137.4459 128.5096
" />
<path d="M137.4459 128.5096
L137.3507 128.2239
" />
<path d="M137.3507 128.2239
L137.2554 127.7477
" />
<path d="M137.2554 127.7477
L137.2554 127.3668
" />
<path d="M137.2554 127.3668
L137.3507 126.8906
" />
<path d="M137.3507 126.8906
L137.4459 126.6049
" />
<path d="M137.4459 126.6049
L137.5411 126.4144
" />
<path d="M137.5411 126.4144
L137.7316 126.1287
" />
<path d="M137.7316 126.1287
L137.8268 126.0334
" />
<path d="M138.3983 126.3192
L139.6364 126.3192
" />
<path d="M139.6364 126.3192
L138.9697 127.0811
" />
<path d="M138.9697 127.0811
L139.2554 127.0811
" />
<path d="M139.2554 127.0811
L139.4459 127.1763
" />
<path d="M139.4459 127.1763
L139.5411 127.2715
" />
<path d="M139.5411 127.2715
L139.6364 127.4620
" />
<path d="M139.6364 127.4620
L139.6364 127.9382
" />
<path d="M139.6364 127.9382
L139.5411 128.1287
" />
<path d="M139.5411 128.1287
L139.4459 128.2239
" />
<path d="M139.4459 128.2239
L139.2554 128.3192
" />
<path d="M139.2554 128.3192
L138.6840 128.3192
" />
<path d="M138.6840 128.3192
L138.4935 128.2239
" />
<path d="M138.4935 128.2239
L138.3983 128.1287
" />
<path d="M142.0173 128.3192
L142.0173 126.3192
" />
<path d="M142.8745 128.3192
L142.8745 127.2715
" />
<path d="M142.8745 127.2715
L142.7792 127.0811
" />
<path d="M142.7792 127.0811
L142.5887 126.9858
" />
<path d="M142.5887 126.9858
L142.3030 126.9858
" />
<path d="M142.3030 126.9858
L142.1126 127.0811
" />
<path d="M142.1126 127.0811
L142.0173 127.1763
" />
<path d="M144.1126 128.3192
L143.9221 128.2239
" />
<path d="M143.9221 128.2239
L143.8268 128.1287
" />
<path d="M143.8268 128.1287
L143.7316 127.9382
" />
<path d="M143.7316 127.9382
L143.7316 127.3668
" />
<path d="M143.7316 127.3668
L143.8268 127.1763
" />
<path d="M143.8268 127.1763
L143.9221 127.0811
" />
<path d="M143.9221 127.0811
L144.1126 126.9858
" />
<path d="M144.1126 126.9858
L144.3983 126.9858
" />
<path d="M144.3983 126.9858
L144.5887 127.0811
" />
<path d="M144.5887 127.0811
L144.6840 127.1763
" />
<path d="M144.6840 127.1763
L144.7792 127.3668
" />
<path d="M144.7792 127.3668
L144.7792 127.9382
" />
<path d="M144.7792 127.9382
L144.6840 128.1287
" />
<path d="M144.6840 128.1287
L144.5887 128.2239
" />
<path d="M144.5887 128.2239
L144.3983 128.3192
" />
<path d="M144.3983 128.3192
L144.1126 128.3192
" />
<path d="M145.9221 128.3192
L145.7316 128.2239
" />
<path d="M145.7316 128.2239
L145.6364 128.0334
" />
<path d="M145.6364 128.0334
L145.6364 126.3192
" />
<path d="M147.4459 128.2239
L147.2554 128.3192
" />
<path d="M147.2554 128.3192
L146.8745 128.3192
" />
<path d="M146.8745 128.3192
L146.6840 128.2239
" />
<path d="M146.6840 128.2239
L146.5887 128.0334
" />
<path d="M146.5887 128.0334
L146.5887 127.2715
" />
<path d="M146.5887 127.2715
L146.6840 127.0811
" />
<path d="M146.6840 127.0811
L146.8745 126.9858
" />
<path d="M146.8745 126.9858
L147.2554 126.9858
" />
<path d="M147.2554 126.9858
L147.4459 127.0811
" />
<path d="M147.4459 127.0811
L147.5411 127.2715
" />
<path d="M147.5411 127.2715
L147.5411 127.4620
" />
<path d="M147.5411 127.4620
L146.5887 127.6525
" />
<path d="M148.3030 128.2239
L148.4935 128.3192
" />
<path d="M148.4935 128.3192
L148.8745 128.3192
" />
<path d="M148.8745 128.3192
L149.0649 128.2239
" />
<path d="M149.0649 128.2239
L149.1602 128.0334
" />
<path d="M149.1602 128.0334
L149.1602 127.9382
" />
<path d="M149.1602 127.9382
L149.0649 127.7477
" />
<path d="M149.0649 127.7477
L148.8745 127.6525
" />
<path d="M148.8745 127.6525
L148.5887 127.6525
" />
<path d="M148.5887 127.6525
L148.3983 127.5573
" />
<path d="M148.3983 127.5573
L148.3030 127.3668
" />
<path d="M148.3030 127.3668
L148.3030 127.2715
" />
<path d="M148.3030 127.2715
L148.3983 127.0811
" />
<path d="M148.3983 127.0811
L148.5887 126.9858
" />
<path d="M148.5887 126.9858
L148.8745 126.9858
" />
<path d="M148.8745 126.9858
L149.0649 127.0811
" />
<path d="M149.8268 129.0811
L149.9221 128.9858
" />
<path d="M149.9221 128.9858
L150.1126 128.7001
" />
<path d="M150.1126 128.7001
L150.2078 128.5096
" />
<path d="M150.2078 128.5096
L150.3030 128.2239
" />
<path d="M150.3030 128.2239
L150.3983 127.7477
" />
<path d="M150.3983 127.7477
L150.3983 127.3668
" />
<path d="M150.3983 127.3668
L150.3030 126.8906
" />
<path d="M150.3030 126.8906
L150.2078 126.6049
" />
<path d="M150.2078 126.6049
L150.1126 126.4144
" />
<path d="M150.1126 126.4144
L149.9221 126.1287
" />
<path d="M149.9221 126.1287
L149.8268 126.0334
" />
<path d="M153.4459 129.0811
L153.3507 128.9858
" />
<path d="M153.3507 128.9858
L153.1602 128.7001
" />
<path d="M153.1602 128.7001
L153.0649 128.5096
" />
<path d="M153.0649 128.5096
L152.9697 128.2239
" />
<path d="M152.9697 128.2239
L152.8745 127.7477
" />
<path d="M152.8745 127.7477
L152.8745 127.3668
" />
<path d="M152.8745 127.3668
L152.9697 126.8906
" />
<path d="M152.9697 126.8906
L153.0649 126.6049
" />
<path d="M153.0649 126.6049
L153.1602 126.4144
" />
<path d="M153.1602 126.4144
L153.3507 126.1287
" />
<path d="M153.3507 126.1287
L153.4459 126.0334
" />
<path d="M154.2078 126.9858
L154.2078 128.3192
" />
<path d="M154.2078 127.1763
L154.3030 127.0811
" />
<path d="M154.3030 127.0811
L154.4935 126.9858
" />
<path d="M154.4935 126.9858
L154.7792 126.9858
" />
<path d="M154.7792 126.9858
L154.9697 127.0811
" />
<path d="M154.9697 127.0811
L155.0649 127.2715
" />
<path d="M155.0649 127.2715
L155.0649 128.3192
" />
<path d="M156.3030 128.3192
L156.1126 128.2239
" />
<path d="M156.1126 128.2239
L156.0173 128.1287
" />
<path d="M156.0173 128.1287
L155.9221 127.9382
" />
<path d="M155.9221 127.9382
L155.9221 127.3668
" />
<path d="M155.9221 127.3668
L156.0173 127.1763
" />
<path d="M156.0173 127.1763
L156.1126 127.0811
" />
<path d="M156.1126 127.0811
L156.3030 126.9858
" />
<path d="M156.3030 126.9858
L156.5887 126.9858
" />
<path d="M156.5887 126.9858
L156.7792 127.0811
" />
<path d="M156.7792 127.0811
L156.8745 127.1763
" />
<path d="M156.8745 127.1763
L156.9697 127.3668
" />
<path d="M156.9697 127.3668
L156.9697 127.9382
" />
<path d="M156.9697 127.9382
L156.8745 128.1287
" />
<path d="M156.8745 128.1287
L156.7792 128.2239
" />
<path d="M156.7792 128.2239
L156.5887 128.3192
" />
<path d="M156.5887 128.3192
L156.3030 128.3192
" />
<path d="M157.5411 126.9858
L158.3030 126.9858
" />
<path d="M157.8268 126.3192
L157.8268 128.0334
" />
<path d="M157.8268 128.0334
L157.9221 128.2239
" />
<path d="M157.9221 128.2239
L158.1126 128.3192
" />
<path d="M158.1126 128.3192
L158.3030 128.3192
" />
<path d="M160.4935 126.9858
L160.4935 128.9858
" />
<path d="M160.4935 127.0811
L160.6840 126.9858
" />
<path d="M160.6840 126.9858
L161.0649 126.9858
" />
<path d="M161.0649 126.9858
L161.2554 127.0811
" />
<path d="M161.2554 127.0811
L161.3507 127.1763
" />
<path d="M161.3507 127.1763
L161.4459 127.3668
" />
<path d="M161.4459 127.3668
L161.4459 127.9382
" />
<path d="M161.4459 127.9382
L161.3507 128.1287
" />
<path d="M161.3507 128.1287
L161.2554 128.2239
" />
<path d="M161.2554 128.2239
L161.0649 128.3192
" />
<path d="M161.0649 128.3192
L160.6840 128.3192
" />
<path d="M160.6840 128.3192
L160.4935 128.2239
" />
<path d="M162.5887 128.3192
L162.3983 128.2239
" />
<path d="M162.3983 128.2239
L162.3030 128.0334
" />
<path d="M162.3030 128.0334
L162.3030 126.3192
" />
<path d="M164.2078 128.3192
L164.2078 127.2715
" />
<path d="M164.2078 127.2715
L164.1126 127.0811
" />
<path d="M164.1126 127.0811
L163.9221 126.9858
" />
<path d="M163.9221 126.9858
L163.5411 126.9858
" />
<path d="M163.5411 126.9858
L163.3507 127.0811
" />
<path d="M164.2078 128.2239
L164.0173 128.3192
" />
<path d="M164.0173 128.3192
L163.5411 128.3192
" />
<path d="M163.5411 128.3192
L163.3507 128.2239
" />
<path d="M163.3507 128.2239
L163.2554 128.0334
" />
<path d="M163.2554 128.0334
L163.2554 127.8430
" />
<path d="M163.2554 127.8430
L163.3507 127.6525
" />
<path d="M163.3507 127.6525
L163.5411 127.5573
" />
<path d="M163.5411 127.5573
L164.0173 127.5573
" />
<path d="M164.0173 127.5573
L164.2078 127.4620
" />
<path d="M164.8745 126.9858
L165.6364 126.9858
" />
<path d="M165.1602 126.3192
L165.1602 128.0334
" />
<path d="M165.1602 128.0334
L165.2554 128.2239
" />
<path d="M165.2554 128.2239
L165.4459 128.3192
" />
<path d="M165.4459 128.3192
L165.6364 128.3192
" />
<path d="M167.0649 128.2239
L166.8745 128.3192
" />
<path d="M166.8745 128.3192
L166.4935 128.3192
" />
<path d="M166.4935 128.3192
L166.3030 128.2239
" />
<path d="M166.3030 128.2239
L166.2078 128.0334
" />
<path d="M166.2078 128.0334
L166.2078 127.2715
" />
<path d="M166.2078 127.2715
L166.3030 127.0811
" />
<path d="M166.3030 127.0811
L166.4935 126.9858
" />
<path d="M166.4935 126.9858
L166.8745 126.9858
" />
<path d="M166.8745 126.9858
L167.0649 127.0811
" />
<path d="M167.0649 127.0811
L167.1602 127.2715
" />
<path d="M167.1602 127.2715
L167.1602 127.4620
" />
<path d="M167.1602 127.4620
L166.2078 127.6525
" />
<path d="M168.8745 128.3192
L168.8745 126.3192
" />
<path d="M168.8745 128.2239
L168.6840 128.3192
" />
<path d="M168.6840 128.3192
L168.3030 128.3192
" />
<path d="M168.3030 128.3192
L168.1126 128.2239
" />
<path d="M168.1126 128.2239
L168.0173 128.1287
" />
<path d="M168.0173 128.1287
L167.9221 127.9382
" />
<path d="M167.9221 127.9382
L167.9221 127.3668
" />
<path d="M167.9221 127.3668
L168.0173 127.1763
" />
<path d="M168.0173 127.1763
L168.1126 127.0811
" />
<path d="M168.1126 127.0811
L168.3030 126.9858
" />
<path d="M168.3030 126.9858
L168.6840 126.9858
" />
<path d="M168.6840 126.9858
L168.8745 127.0811
" />
<path d="M169.6364 129.0811
L169.7316 128.9858
" />
<path d="M169.7316 128.9858
L169.9221 128.7001
" />
<path d="M169.9221 128.7001
L170.0173 128.5096
" />
<path d="M170.0173 128.5096
L170.1126 128.2239
" />
<path d="M170.1126 128.2239
L170.2078 127.7477
" />
<path d="M170.2078 127.7477
L170.2078 127.3668
" />
<path d="M170.2078 127.3668
L170.1126 126.8906
" />
<path d="M170.1126 126.8906
L170.0173 126.6049
" />
<path d="M170.0173 126.6049
L169.9221 126.4144
" />
<path d="M169.9221 126.4144
L169.7316 126.1287
" />
<path d="M169.7316 126.1287
L169.6364 126.0334
" />
</g></g> 
</svg>
