%TF.GenerationSoftware,KiCad,Pcbnew,9.0.6*%
%TF.CreationDate,2025-11-30T12:45:29+03:00*%
%TF.ProjectId,PMIFC-1Wx12,504d4946-432d-4315-9778-31322e6b6963,rev?*%
%TF.SameCoordinates,PX3dfd240PY5f5e100*%
%TF.FileFunction,Soldermask,Bot*%
%TF.FilePolarity,Negative*%
%FSLAX46Y46*%
G04 Gerber Fmt 4.6, Leading zero omitted, Abs format (unit mm)*
G04 Created by KiCad (PCBNEW 9.0.6) date 2025-11-30 12:45:29*
%MOMM*%
%LPD*%
G01*
G04 APERTURE LIST*
G04 Aperture macros list*
%AMFreePoly0*
4,1,23,0.550000,-0.750000,0.000000,-0.750000,0.000000,-0.745722,-0.065263,-0.745722,-0.191342,-0.711940,-0.304381,-0.646677,-0.396677,-0.554381,-0.461940,-0.441342,-0.495722,-0.315263,-0.495722,-0.250000,-0.500000,-0.250000,-0.500000,0.250000,-0.495722,0.250000,-0.495722,0.315263,-0.461940,0.441342,-0.396677,0.554381,-0.304381,0.646677,-0.191342,0.711940,-0.065263,0.745722,0.000000,0.745722,
0.000000,0.750000,0.550000,0.750000,0.550000,-0.750000,0.550000,-0.750000,$1*%
%AMFreePoly1*
4,1,23,0.000000,0.745722,0.065263,0.745722,0.191342,0.711940,0.304381,0.646677,0.396677,0.554381,0.461940,0.441342,0.495722,0.315263,0.495722,0.250000,0.500000,0.250000,0.500000,-0.250000,0.495722,-0.250000,0.495722,-0.315263,0.461940,-0.441342,0.396677,-0.554381,0.304381,-0.646677,0.191342,-0.711940,0.065263,-0.745722,0.000000,-0.745722,0.000000,-0.750000,-0.550000,-0.750000,
-0.550000,0.750000,0.000000,0.750000,0.000000,0.745722,0.000000,0.745722,$1*%
G04 Aperture macros list end*
%ADD10C,0.700000*%
%ADD11C,4.400000*%
%ADD12C,2.200000*%
%ADD13C,1.725000*%
%ADD14C,0.900000*%
%ADD15C,8.600000*%
%ADD16O,1.000000X1.700000*%
%ADD17C,1.700000*%
%ADD18FreePoly0,180.000000*%
%ADD19R,1.000000X1.500000*%
%ADD20FreePoly1,180.000000*%
%ADD21R,1.800000X0.600000*%
%ADD22R,3.000000X2.600000*%
G04 APERTURE END LIST*
%TO.C,JP6*%
G36*
X4750000Y-25250000D02*
G01*
X3250000Y-25250000D01*
X3250000Y-26750000D01*
X4750000Y-26750000D01*
X4750000Y-25250000D01*
G37*
%TO.C,JP7*%
G36*
X4750000Y-22750000D02*
G01*
X3250000Y-22750000D01*
X3250000Y-24250000D01*
X4750000Y-24250000D01*
X4750000Y-22750000D01*
G37*
%TO.C,JP5*%
G36*
X4750000Y-27750000D02*
G01*
X3250000Y-27750000D01*
X3250000Y-29250000D01*
X4750000Y-29250000D01*
X4750000Y-27750000D01*
G37*
%TD*%
D10*
%TO.C,U1*%
X-38650000Y37000000D03*
X-38650000Y-37000000D03*
X-38166726Y38166726D03*
X-38166726Y35833274D03*
X-38166726Y-35833274D03*
X-38166726Y-38166726D03*
X-37000000Y38650000D03*
D11*
X-37000000Y37000000D03*
D10*
X-37000000Y35350000D03*
X-37000000Y-35350000D03*
D11*
X-37000000Y-37000000D03*
D10*
X-37000000Y-38650000D03*
X-35833274Y38166726D03*
X-35833274Y35833274D03*
X-35833274Y-35833274D03*
X-35833274Y-38166726D03*
X-35350000Y37000000D03*
X-35350000Y-37000000D03*
X-10650000Y45000000D03*
X-10650000Y-45000000D03*
X-10166726Y46166726D03*
X-10166726Y43833274D03*
X-10166726Y-43833274D03*
X-10166726Y-46166726D03*
X-9000000Y46650000D03*
D11*
X-9000000Y45000000D03*
D10*
X-9000000Y43350000D03*
X-9000000Y-43350000D03*
D11*
X-9000000Y-45000000D03*
D10*
X-9000000Y-46650000D03*
X-7833274Y46166726D03*
X-7833274Y43833274D03*
X-7833274Y-43833274D03*
X-7833274Y-46166726D03*
X-7350000Y45000000D03*
X-7350000Y-45000000D03*
%TD*%
D12*
%TO.C,J6*%
X32000000Y-36000000D03*
X32000000Y-32500000D03*
X32000000Y-29000000D03*
X19300000Y-36000000D03*
X19300000Y-32500000D03*
X19300000Y-29000000D03*
%TD*%
D13*
%TO.C,U4*%
X14000000Y0D03*
%TD*%
D10*
%TO.C,SP1*%
X11350000Y45000000D03*
X11350000Y-45000000D03*
X11833274Y46166726D03*
X11833274Y43833274D03*
X11833274Y-43833274D03*
X11833274Y-46166726D03*
X13000000Y46650000D03*
D11*
X13000000Y45000000D03*
D10*
X13000000Y43350000D03*
X13000000Y-43350000D03*
D11*
X13000000Y-45000000D03*
D10*
X13000000Y-46650000D03*
X14166726Y46166726D03*
X14166726Y43833274D03*
X14166726Y-43833274D03*
X14166726Y-46166726D03*
X14650000Y45000000D03*
X14650000Y-45000000D03*
X35350000Y45000000D03*
X35350000Y-45000000D03*
X35833274Y46166726D03*
X35833274Y43833274D03*
X35833274Y-43833274D03*
X35833274Y-46166726D03*
X37000000Y46650000D03*
D11*
X37000000Y45000000D03*
D10*
X37000000Y43350000D03*
X37000000Y-43350000D03*
D11*
X37000000Y-45000000D03*
D10*
X37000000Y-46650000D03*
X38166726Y46166726D03*
X38166726Y43833274D03*
X38166726Y-43833274D03*
X38166726Y-46166726D03*
X38650000Y45000000D03*
X38650000Y-45000000D03*
%TD*%
D12*
%TO.C,J4*%
X32000000Y3000000D03*
X32000000Y6500000D03*
X32000000Y10000000D03*
X19300000Y3000000D03*
X19300000Y6500000D03*
X19300000Y10000000D03*
%TD*%
D14*
%TO.C,H2*%
X-38225000Y45000000D03*
X-37280419Y47280419D03*
X-37280419Y42719581D03*
X-35000000Y48225000D03*
D15*
X-35000000Y45000000D03*
D14*
X-35000000Y41775000D03*
X-32719581Y47280419D03*
X-32719581Y42719581D03*
X-31775000Y45000000D03*
%TD*%
D12*
%TO.C,J1*%
X32000000Y29000000D03*
X32000000Y32500000D03*
X32000000Y36000000D03*
X19300000Y29000000D03*
X19300000Y32500000D03*
X19300000Y36000000D03*
%TD*%
D16*
%TO.C,J7*%
X4825001Y38752158D03*
X-825001Y38752158D03*
%TD*%
D13*
%TO.C,U3*%
X-25000000Y0D03*
%TD*%
D12*
%TO.C,J3*%
X32000000Y-10000000D03*
X32000000Y-6500000D03*
X32000000Y-3000000D03*
X19300000Y-10000000D03*
X19300000Y-6500000D03*
X19300000Y-3000000D03*
%TD*%
%TO.C,J2*%
X32000000Y16000000D03*
X32000000Y19500000D03*
X32000000Y23000000D03*
X19300000Y16000000D03*
X19300000Y19500000D03*
X19300000Y23000000D03*
%TD*%
D17*
%TO.C,PS1*%
X-7000000Y-39000000D03*
X-7000000Y-36460000D03*
X-7000000Y-31380000D03*
X-7000000Y-26300000D03*
%TD*%
D14*
%TO.C,H1*%
X18775000Y45000000D03*
X19719581Y47280419D03*
X19719581Y42719581D03*
X22000000Y48225000D03*
D15*
X22000000Y45000000D03*
D14*
X22000000Y41775000D03*
X24280419Y47280419D03*
X24280419Y42719581D03*
X25225000Y45000000D03*
%TD*%
%TO.C,H3*%
X18775000Y-45000000D03*
X19719581Y-42719581D03*
X19719581Y-47280419D03*
X22000000Y-41775000D03*
D15*
X22000000Y-45000000D03*
D14*
X22000000Y-48225000D03*
X24280419Y-42719581D03*
X24280419Y-47280419D03*
X25225000Y-45000000D03*
%TD*%
D12*
%TO.C,J5*%
X32000000Y-23000000D03*
X32000000Y-19500000D03*
X32000000Y-16000000D03*
X19300000Y-23000000D03*
X19300000Y-19500000D03*
X19300000Y-16000000D03*
%TD*%
D14*
%TO.C,H4*%
X-38225000Y-45000000D03*
X-37280419Y-42719581D03*
X-37280419Y-47280419D03*
X-35000000Y-41775000D03*
D15*
X-35000000Y-45000000D03*
D14*
X-35000000Y-48225000D03*
X-32719581Y-42719581D03*
X-32719581Y-47280419D03*
X-31775000Y-45000000D03*
%TD*%
D18*
%TO.C,JP6*%
X5300000Y-26000000D03*
D19*
X4000000Y-26000000D03*
D20*
X2700000Y-26000000D03*
%TD*%
D18*
%TO.C,JP7*%
X5300000Y-23500000D03*
D19*
X4000000Y-23500000D03*
D20*
X2700000Y-23500000D03*
%TD*%
D21*
%TO.C,JM2*%
X-36546000Y29500000D03*
X-36546000Y28500000D03*
X-36546000Y27500000D03*
X-36546000Y26500000D03*
X-36546000Y25500000D03*
X-36546000Y24500000D03*
X-36546000Y23500000D03*
X-36546000Y22500000D03*
X-36546000Y21500000D03*
X-36546000Y20500000D03*
X-36546000Y19500000D03*
X-36546000Y18500000D03*
X-36546000Y17500000D03*
X-36546000Y16500000D03*
X-36546000Y15500000D03*
X-36546000Y14500000D03*
X-36546000Y13500000D03*
X-36546000Y12500000D03*
X-36546000Y11500000D03*
X-36546000Y10500000D03*
D22*
X-34375000Y31850000D03*
X-34375000Y8150000D03*
%TD*%
D18*
%TO.C,JP5*%
X5300000Y-28500000D03*
D19*
X4000000Y-28500000D03*
D20*
X2700000Y-28500000D03*
%TD*%
M02*
