%TF.GenerationSoftware,KiCad,Pcbnew,10.0.1*%
%TF.CreationDate,2026-05-17T18:54:13+03:00*%
%TF.ProjectId,PMCNV-DIx32,504d434e-562d-4444-9978-33322e6b6963,rev?*%
%TF.SameCoordinates,Original*%
%TF.FileFunction,Soldermask,Bot*%
%TF.FilePolarity,Negative*%
%FSLAX46Y46*%
G04 Gerber Fmt 4.6, Leading zero omitted, Abs format (unit mm)*
G04 Created by KiCad (PCBNEW 10.0.1) date 2026-05-17 18:54:13*
%MOMM*%
%LPD*%
G01*
G04 APERTURE LIST*
G04 Aperture macros list*
%AMRoundRect*
0 Rectangle with rounded corners*
0 $1 Rounding radius*
0 $2 $3 $4 $5 $6 $7 $8 $9 X,Y pos of 4 corners*
0 Add a 4 corners polygon primitive as box body*
4,1,4,$2,$3,$4,$5,$6,$7,$8,$9,$2,$3,0*
0 Add four circle primitives for the rounded corners*
1,1,$1+$1,$2,$3*
1,1,$1+$1,$4,$5*
1,1,$1+$1,$6,$7*
1,1,$1+$1,$8,$9*
0 Add four rect primitives between the rounded corners*
20,1,$1+$1,$2,$3,$4,$5,0*
20,1,$1+$1,$4,$5,$6,$7,0*
20,1,$1+$1,$6,$7,$8,$9,0*
20,1,$1+$1,$8,$9,$2,$3,0*%
G04 Aperture macros list end*
%ADD10RoundRect,0.100000X-0.775000X-0.150000X0.775000X-0.150000X0.775000X0.150000X-0.775000X0.150000X0*%
%ADD11RoundRect,0.112500X-0.787500X-0.887500X0.787500X-0.887500X0.787500X0.887500X-0.787500X0.887500X0*%
%ADD12C,4.420000*%
%ADD13C,8.620000*%
%ADD14R,0.800000X0.500000*%
%ADD15R,0.800000X0.400000*%
%ADD16C,2.220000*%
%ADD17C,2.200000*%
G04 APERTURE END LIST*
%TO.C,JP11*%
G36*
X-10800000Y-21750000D02*
G01*
X-7200000Y-21750000D01*
X-7200000Y-23250000D01*
X-10800000Y-23250000D01*
X-10800000Y-21750000D01*
G37*
%TO.C,JP9*%
G36*
X-10800000Y-19250000D02*
G01*
X-7200000Y-19250000D01*
X-7200000Y-20750000D01*
X-10800000Y-20750000D01*
X-10800000Y-19250000D01*
G37*
%TO.C,JP8*%
G36*
X-10800000Y-16750000D02*
G01*
X-7200000Y-16750000D01*
X-7200000Y-18250000D01*
X-10800000Y-18250000D01*
X-10800000Y-16750000D01*
G37*
%TO.C,JP10*%
G36*
X26250000Y-31950000D02*
G01*
X27750000Y-31950000D01*
X27750000Y-35550000D01*
X26250000Y-35550000D01*
X26250000Y-31950000D01*
G37*
%TO.C,JP6*%
G36*
X-10800000Y20750000D02*
G01*
X-7200000Y20750000D01*
X-7200000Y19250000D01*
X-10800000Y19250000D01*
X-10800000Y20750000D01*
G37*
%TO.C,JP7*%
G36*
X-10800000Y18250000D02*
G01*
X-7200000Y18250000D01*
X-7200000Y16750000D01*
X-10800000Y16750000D01*
X-10800000Y18250000D01*
G37*
%TO.C,JP5*%
G36*
X-10800000Y23250000D02*
G01*
X-7200000Y23250000D01*
X-7200000Y21750000D01*
X-10800000Y21750000D01*
X-10800000Y23250000D01*
G37*
%TD*%
D10*
%TO.C,J13*%
X-26875000Y5551345D03*
X-23125000Y6551345D03*
X-26875000Y7551345D03*
X-23125000Y8551345D03*
X-26875000Y9551345D03*
X-23125000Y10551345D03*
X-26875000Y11551345D03*
X-23125000Y12551345D03*
X-26875000Y13551345D03*
X-23125000Y14551345D03*
X-26875000Y15551345D03*
X-23125000Y16551345D03*
X-26875000Y17551345D03*
X-23125000Y18551345D03*
X-26875000Y19551345D03*
X-23125000Y20551345D03*
X-26875000Y21551345D03*
X-23125000Y22551345D03*
X-26875000Y23551345D03*
X-23125000Y24551345D03*
D11*
X-25000000Y3151345D03*
X-25000000Y26951345D03*
%TD*%
D12*
%TO.C,SP1*%
X13000000Y47000000D03*
X13000000Y-47000000D03*
X37000000Y47000000D03*
X37000000Y-47000000D03*
%TD*%
D13*
%TO.C,H2*%
X22000000Y45000000D03*
%TD*%
%TO.C,H1*%
X-25000000Y45000000D03*
%TD*%
%TO.C,H3*%
X22000000Y-45000000D03*
%TD*%
%TO.C,H4*%
X-25000000Y-45000000D03*
%TD*%
D14*
%TO.C,RN16*%
X16900000Y-33700000D03*
D15*
X16900000Y-32900000D03*
X16900000Y-32100000D03*
D14*
X16900000Y-31300000D03*
X15100000Y-31300000D03*
D15*
X15100000Y-32100000D03*
X15100000Y-32900000D03*
D14*
X15100000Y-33700000D03*
%TD*%
%TO.C,RN15*%
X16900000Y-28700000D03*
D15*
X16900000Y-27900000D03*
X16900000Y-27100000D03*
D14*
X16900000Y-26300000D03*
X15100000Y-26300000D03*
D15*
X15100000Y-27100000D03*
X15100000Y-27900000D03*
D14*
X15100000Y-28700000D03*
%TD*%
D16*
%TO.C,J15*%
X22300000Y-2500000D03*
X22300000Y-6000000D03*
X22300000Y-9500000D03*
X22300000Y-13000000D03*
X22300000Y-16500000D03*
X22300000Y-20000000D03*
X22300000Y-23500000D03*
X22300000Y-27000000D03*
X35000000Y-2500000D03*
X35000000Y-6000000D03*
X35000000Y-9500000D03*
X35000000Y-13000000D03*
X35000000Y-16500000D03*
X35000000Y-20000000D03*
X35000000Y-23500000D03*
X35000000Y-27000000D03*
%TD*%
D14*
%TO.C,RN11*%
X15100000Y11300000D03*
D15*
X15100000Y12100000D03*
X15100000Y12900000D03*
D14*
X15100000Y13700000D03*
X16900000Y13700000D03*
D15*
X16900000Y12900000D03*
X16900000Y12100000D03*
D14*
X16900000Y11300000D03*
%TD*%
D16*
%TO.C,J14*%
X35000000Y2500000D03*
X35000000Y6000000D03*
X35000000Y9500000D03*
X35000000Y13000000D03*
X35000000Y16500000D03*
X35000000Y20000000D03*
X35000000Y23500000D03*
X35000000Y27000000D03*
X22300000Y2500000D03*
X22300000Y6000000D03*
X22300000Y9500000D03*
X22300000Y13000000D03*
X22300000Y16500000D03*
X22300000Y20000000D03*
X22300000Y23500000D03*
X22300000Y27000000D03*
%TD*%
D17*
%TO.C,J6*%
X35000000Y-39000000D03*
X35000000Y-35500000D03*
X35000000Y-32000000D03*
%TD*%
D14*
%TO.C,RN12*%
X15100000Y6300000D03*
D15*
X15100000Y7100000D03*
X15100000Y7900000D03*
D14*
X15100000Y8700000D03*
X16900000Y8700000D03*
D15*
X16900000Y7900000D03*
X16900000Y7100000D03*
D14*
X16900000Y6300000D03*
%TD*%
%TO.C,RN3*%
X15100000Y31300000D03*
D15*
X15100000Y32100000D03*
X15100000Y32900000D03*
D14*
X15100000Y33700000D03*
X16900000Y33700000D03*
D15*
X16900000Y32900000D03*
X16900000Y32100000D03*
D14*
X16900000Y31300000D03*
%TD*%
%TO.C,RN5*%
X15100000Y-8700000D03*
D15*
X15100000Y-7900000D03*
X15100000Y-7100000D03*
D14*
X15100000Y-6300000D03*
X16900000Y-6300000D03*
D15*
X16900000Y-7100000D03*
X16900000Y-7900000D03*
D14*
X16900000Y-8700000D03*
%TD*%
%TO.C,RN4*%
X15100000Y26300000D03*
D15*
X15100000Y27100000D03*
X15100000Y27900000D03*
D14*
X15100000Y28700000D03*
X16900000Y28700000D03*
D15*
X16900000Y27900000D03*
X16900000Y27100000D03*
D14*
X16900000Y26300000D03*
%TD*%
%TO.C,RN6*%
X15100000Y-13700000D03*
D15*
X15100000Y-12900000D03*
X15100000Y-12100000D03*
D14*
X15100000Y-11300000D03*
X16900000Y-11300000D03*
D15*
X16900000Y-12100000D03*
X16900000Y-12900000D03*
D14*
X16900000Y-13700000D03*
%TD*%
M02*
