<?xml version="1.0" standalone="no"?>
 <!DOCTYPE svg PUBLIC "-//W3C//DTD SVG 1.1//EN" 
 "http://www.w3.org/Graphics/SVG/1.1/DTD/svg11.dtd"> 
<svg
  xmlns:svg="http://www.w3.org/2000/svg"
  xmlns="http://www.w3.org/2000/svg"
  xmlns:xlink="http://www.w3.org/1999/xlink"
  version="1.1"
  width="148.0058mm" height="210.0072mm" viewBox="0.0000 0.0000 148.0058 210.0072">
<title>SVG Image created as front-User_2.svg date 2025/03/09 15:45:00 </title>
  <desc>Image generated by PCBNEW </desc>
<g style="fill:#000000; fill-opacity:1.0000;stroke:#000000; stroke-opacity:1.0000;
stroke-linecap:round; stroke-linejoin:round;"
 transform="translate(0 0) scale(1 1)">
</g>
<g style="fill:none; 
stroke:#000000; stroke-width:0.1500; stroke-opacity:1; 
stroke-linecap:round; stroke-linejoin:round;">
<g transform="rotate(-90.000000 53.6500 54.3000)">
<text x="53.6500" y="54.8000"
textLength="6.0595" font-size="1.3333" lengthAdjust="spacingAndGlyphs"
text-anchor="middle" opacity="0" stroke-opacity="0">3,0 mm</text>
</g>
<g class="stroked-text"><desc>3,0 mm</desc>
<path d="M53.1048 57.0619
L53.1048 56.4429
" />
<path d="M53.1048 56.4429
L53.4858 56.7762
" />
<path d="M53.4858 56.7762
L53.4858 56.6333
" />
<path d="M53.4858 56.6333
L53.5334 56.5381
" />
<path d="M53.5334 56.5381
L53.5810 56.4905
" />
<path d="M53.5810 56.4905
L53.6762 56.4429
" />
<path d="M53.6762 56.4429
L53.9143 56.4429
" />
<path d="M53.9143 56.4429
L54.0096 56.4905
" />
<path d="M54.0096 56.4905
L54.0572 56.5381
" />
<path d="M54.0572 56.5381
L54.1048 56.6333
" />
<path d="M54.1048 56.6333
L54.1048 56.9190
" />
<path d="M54.1048 56.9190
L54.0572 57.0143
" />
<path d="M54.0572 57.0143
L54.0096 57.0619
" />
<path d="M54.0572 55.9667
L54.1048 55.9667
" />
<path d="M54.1048 55.9667
L54.2001 56.0143
" />
<path d="M54.2001 56.0143
L54.2477 56.0619
" />
<path d="M53.1048 55.3476
L53.1048 55.2524
" />
<path d="M53.1048 55.2524
L53.1524 55.1571
" />
<path d="M53.1524 55.1571
L53.2001 55.1095
" />
<path d="M53.2001 55.1095
L53.2953 55.0619
" />
<path d="M53.2953 55.0619
L53.4858 55.0143
" />
<path d="M53.4858 55.0143
L53.7239 55.0143
" />
<path d="M53.7239 55.0143
L53.9143 55.0619
" />
<path d="M53.9143 55.0619
L54.0096 55.1095
" />
<path d="M54.0096 55.1095
L54.0572 55.1571
" />
<path d="M54.0572 55.1571
L54.1048 55.2524
" />
<path d="M54.1048 55.2524
L54.1048 55.3476
" />
<path d="M54.1048 55.3476
L54.0572 55.4429
" />
<path d="M54.0572 55.4429
L54.0096 55.4905
" />
<path d="M54.0096 55.4905
L53.9143 55.5381
" />
<path d="M53.9143 55.5381
L53.7239 55.5857
" />
<path d="M53.7239 55.5857
L53.4858 55.5857
" />
<path d="M53.4858 55.5857
L53.2953 55.5381
" />
<path d="M53.2953 55.5381
L53.2001 55.4905
" />
<path d="M53.2001 55.4905
L53.1524 55.4429
" />
<path d="M53.1524 55.4429
L53.1048 55.3476
" />
<path d="M54.1048 53.8238
L53.4382 53.8238
" />
<path d="M53.5334 53.8238
L53.4858 53.7762
" />
<path d="M53.4858 53.7762
L53.4382 53.6810
" />
<path d="M53.4382 53.6810
L53.4382 53.5381
" />
<path d="M53.4382 53.5381
L53.4858 53.4429
" />
<path d="M53.4858 53.4429
L53.5810 53.3952
" />
<path d="M53.5810 53.3952
L54.1048 53.3952
" />
<path d="M53.5810 53.3952
L53.4858 53.3476
" />
<path d="M53.4858 53.3476
L53.4382 53.2524
" />
<path d="M53.4382 53.2524
L53.4382 53.1095
" />
<path d="M53.4382 53.1095
L53.4858 53.0143
" />
<path d="M53.4858 53.0143
L53.5810 52.9667
" />
<path d="M53.5810 52.9667
L54.1048 52.9667
" />
<path d="M54.1048 52.4905
L53.4382 52.4905
" />
<path d="M53.5334 52.4905
L53.4858 52.4429
" />
<path d="M53.4858 52.4429
L53.4382 52.3476
" />
<path d="M53.4382 52.3476
L53.4382 52.2048
" />
<path d="M53.4382 52.2048
L53.4858 52.1095
" />
<path d="M53.4858 52.1095
L53.5810 52.0619
" />
<path d="M53.5810 52.0619
L54.1048 52.0619
" />
<path d="M53.5810 52.0619
L53.4858 52.0143
" />
<path d="M53.4858 52.0143
L53.4382 51.9190
" />
<path d="M53.4382 51.9190
L53.4382 51.7762
" />
<path d="M53.4382 51.7762
L53.4858 51.6810
" />
<path d="M53.4858 51.6810
L53.5810 51.6333
" />
<path d="M53.5810 51.6333
L54.1048 51.6333
" />
</g></g>
<g style="fill:none; 
stroke:#000000; stroke-width:0.1000; stroke-opacity:1; 
stroke-linecap:round; stroke-linejoin:round;">
<path d="M60.8000 52.8000
L54.2136 52.8000
" />
<path d="M54.2136 55.8000
L61.3000 55.8000
" />
<path d="M54.8000 52.8000
L54.8000 55.8000
" />
<path d="M54.8000 52.8000
L54.8000 55.8000
" />
<path d="M54.8000 52.8000
L55.3864 53.9265
" />
<path d="M54.8000 52.8000
L54.2136 53.9265
" />
<path d="M54.8000 55.8000
L54.2136 54.6735
" />
<path d="M54.8000 55.8000
L55.3864 54.6735
" />
<path d="M54.8000 52.8000
L54.8000 55.8000
" />
<path d="M54.8000 52.8000
L54.8000 55.8000
" />
<path d="M54.8000 52.8000
L55.3864 53.9265
" />
<path d="M54.8000 52.8000
L54.2136 53.9265
" />
<path d="M54.8000 55.8000
L54.2136 54.6735
" />
<path d="M54.8000 55.8000
L55.3864 54.6735
" />
</g>
<g style="fill:none; 
stroke:#000000; stroke-width:0.1500; stroke-opacity:1; 
stroke-linecap:round; stroke-linejoin:round;">
<g transform="rotate(-90.000000 50.6500 99.3000)">
<text x="50.6500" y="99.8000"
textLength="7.0119" font-size="1.3333" lengthAdjust="spacingAndGlyphs"
text-anchor="middle" opacity="0" stroke-opacity="0">93,0 mm</text>
</g>
<g class="stroked-text"><desc>93,0 mm</desc>
<path d="M51.1048 102.3952
L51.1048 102.2048
" />
<path d="M51.1048 102.2048
L51.0572 102.1095
" />
<path d="M51.0572 102.1095
L51.0096 102.0619
" />
<path d="M51.0096 102.0619
L50.8667 101.9667
" />
<path d="M50.8667 101.9667
L50.6762 101.9190
" />
<path d="M50.6762 101.9190
L50.2953 101.9190
" />
<path d="M50.2953 101.9190
L50.2001 101.9667
" />
<path d="M50.2001 101.9667
L50.1524 102.0143
" />
<path d="M50.1524 102.0143
L50.1048 102.1095
" />
<path d="M50.1048 102.1095
L50.1048 102.3000
" />
<path d="M50.1048 102.3000
L50.1524 102.3952
" />
<path d="M50.1524 102.3952
L50.2001 102.4429
" />
<path d="M50.2001 102.4429
L50.2953 102.4905
" />
<path d="M50.2953 102.4905
L50.5334 102.4905
" />
<path d="M50.5334 102.4905
L50.6286 102.4429
" />
<path d="M50.6286 102.4429
L50.6762 102.3952
" />
<path d="M50.6762 102.3952
L50.7239 102.3000
" />
<path d="M50.7239 102.3000
L50.7239 102.1095
" />
<path d="M50.7239 102.1095
L50.6762 102.0143
" />
<path d="M50.6762 102.0143
L50.6286 101.9667
" />
<path d="M50.6286 101.9667
L50.5334 101.9190
" />
<path d="M50.1048 101.5857
L50.1048 100.9667
" />
<path d="M50.1048 100.9667
L50.4858 101.3000
" />
<path d="M50.4858 101.3000
L50.4858 101.1571
" />
<path d="M50.4858 101.1571
L50.5334 101.0619
" />
<path d="M50.5334 101.0619
L50.5810 101.0143
" />
<path d="M50.5810 101.0143
L50.6762 100.9667
" />
<path d="M50.6762 100.9667
L50.9143 100.9667
" />
<path d="M50.9143 100.9667
L51.0096 101.0143
" />
<path d="M51.0096 101.0143
L51.0572 101.0619
" />
<path d="M51.0572 101.0619
L51.1048 101.1571
" />
<path d="M51.1048 101.1571
L51.1048 101.4429
" />
<path d="M51.1048 101.4429
L51.0572 101.5381
" />
<path d="M51.0572 101.5381
L51.0096 101.5857
" />
<path d="M51.0572 100.4905
L51.1048 100.4905
" />
<path d="M51.1048 100.4905
L51.2001 100.5381
" />
<path d="M51.2001 100.5381
L51.2477 100.5857
" />
<path d="M50.1048 99.8714
L50.1048 99.7762
" />
<path d="M50.1048 99.7762
L50.1524 99.6810
" />
<path d="M50.1524 99.6810
L50.2001 99.6333
" />
<path d="M50.2001 99.6333
L50.2953 99.5857
" />
<path d="M50.2953 99.5857
L50.4858 99.5381
" />
<path d="M50.4858 99.5381
L50.7239 99.5381
" />
<path d="M50.7239 99.5381
L50.9143 99.5857
" />
<path d="M50.9143 99.5857
L51.0096 99.6333
" />
<path d="M51.0096 99.6333
L51.0572 99.6810
" />
<path d="M51.0572 99.6810
L51.1048 99.7762
" />
<path d="M51.1048 99.7762
L51.1048 99.8714
" />
<path d="M51.1048 99.8714
L51.0572 99.9667
" />
<path d="M51.0572 99.9667
L51.0096 100.0143
" />
<path d="M51.0096 100.0143
L50.9143 100.0619
" />
<path d="M50.9143 100.0619
L50.7239 100.1095
" />
<path d="M50.7239 100.1095
L50.4858 100.1095
" />
<path d="M50.4858 100.1095
L50.2953 100.0619
" />
<path d="M50.2953 100.0619
L50.2001 100.0143
" />
<path d="M50.2001 100.0143
L50.1524 99.9667
" />
<path d="M50.1524 99.9667
L50.1048 99.8714
" />
<path d="M51.1048 98.3476
L50.4382 98.3476
" />
<path d="M50.5334 98.3476
L50.4858 98.3000
" />
<path d="M50.4858 98.3000
L50.4382 98.2048
" />
<path d="M50.4382 98.2048
L50.4382 98.0619
" />
<path d="M50.4382 98.0619
L50.4858 97.9667
" />
<path d="M50.4858 97.9667
L50.5810 97.9190
" />
<path d="M50.5810 97.9190
L51.1048 97.9190
" />
<path d="M50.5810 97.9190
L50.4858 97.8714
" />
<path d="M50.4858 97.8714
L50.4382 97.7762
" />
<path d="M50.4382 97.7762
L50.4382 97.6333
" />
<path d="M50.4382 97.6333
L50.4858 97.5381
" />
<path d="M50.4858 97.5381
L50.5810 97.4905
" />
<path d="M50.5810 97.4905
L51.1048 97.4905
" />
<path d="M51.1048 97.0143
L50.4382 97.0143
" />
<path d="M50.5334 97.0143
L50.4858 96.9667
" />
<path d="M50.4858 96.9667
L50.4382 96.8714
" />
<path d="M50.4382 96.8714
L50.4382 96.7286
" />
<path d="M50.4382 96.7286
L50.4858 96.6333
" />
<path d="M50.4858 96.6333
L50.5810 96.5857
" />
<path d="M50.5810 96.5857
L51.1048 96.5857
" />
<path d="M50.5810 96.5857
L50.4858 96.5381
" />
<path d="M50.4858 96.5381
L50.4382 96.4429
" />
<path d="M50.4382 96.4429
L50.4382 96.3000
" />
<path d="M50.4382 96.3000
L50.4858 96.2048
" />
<path d="M50.4858 96.2048
L50.5810 96.1571
" />
<path d="M50.5810 96.1571
L51.1048 96.1571
" />
</g></g>
<g style="fill:none; 
stroke:#000000; stroke-width:0.1000; stroke-opacity:1; 
stroke-linecap:round; stroke-linejoin:round;">
<path d="M61.3000 145.8000
L51.2136 145.8000
" />
<path d="M51.2136 52.8000
L61.3000 52.8000
" />
<path d="M51.8000 145.8000
L51.8000 52.8000
" />
<path d="M51.8000 145.8000
L51.8000 52.8000
" />
<path d="M51.8000 145.8000
L51.2136 144.6735
" />
<path d="M51.8000 145.8000
L52.3864 144.6735
" />
<path d="M51.8000 52.8000
L52.3864 53.9265
" />
<path d="M51.8000 52.8000
L51.2136 53.9265
" />
<path d="M51.8000 145.8000
L51.8000 52.8000
" />
<path d="M51.8000 145.8000
L51.8000 52.8000
" />
<path d="M51.8000 145.8000
L51.2136 144.6735
" />
<path d="M51.8000 145.8000
L52.3864 144.6735
" />
<path d="M51.8000 52.8000
L52.3864 53.9265
" />
<path d="M51.8000 52.8000
L51.2136 53.9265
" />
</g>
<g style="fill:none; 
stroke:#000000; stroke-width:0.1500; stroke-opacity:1; 
stroke-linecap:round; stroke-linejoin:round;">
<text x="59.3000" y="50.1500"
textLength="6.0595" font-size="1.3333" lengthAdjust="spacingAndGlyphs"
text-anchor="middle" opacity="0" stroke-opacity="0">5,0 mm</text>
<g class="stroked-text"><desc>5,0 mm</desc>
<path d="M57.1095 49.1048
L56.6333 49.1048
" />
<path d="M56.6333 49.1048
L56.5857 49.5810
" />
<path d="M56.5857 49.5810
L56.6333 49.5334
" />
<path d="M56.6333 49.5334
L56.7286 49.4858
" />
<path d="M56.7286 49.4858
L56.9667 49.4858
" />
<path d="M56.9667 49.4858
L57.0619 49.5334
" />
<path d="M57.0619 49.5334
L57.1095 49.5810
" />
<path d="M57.1095 49.5810
L57.1571 49.6762
" />
<path d="M57.1571 49.6762
L57.1571 49.9143
" />
<path d="M57.1571 49.9143
L57.1095 50.0096
" />
<path d="M57.1095 50.0096
L57.0619 50.0572
" />
<path d="M57.0619 50.0572
L56.9667 50.1048
" />
<path d="M56.9667 50.1048
L56.7286 50.1048
" />
<path d="M56.7286 50.1048
L56.6333 50.0572
" />
<path d="M56.6333 50.0572
L56.5857 50.0096
" />
<path d="M57.6333 50.0572
L57.6333 50.1048
" />
<path d="M57.6333 50.1048
L57.5857 50.2001
" />
<path d="M57.5857 50.2001
L57.5381 50.2477
" />
<path d="M58.2524 49.1048
L58.3476 49.1048
" />
<path d="M58.3476 49.1048
L58.4429 49.1524
" />
<path d="M58.4429 49.1524
L58.4905 49.2001
" />
<path d="M58.4905 49.2001
L58.5381 49.2953
" />
<path d="M58.5381 49.2953
L58.5857 49.4858
" />
<path d="M58.5857 49.4858
L58.5857 49.7239
" />
<path d="M58.5857 49.7239
L58.5381 49.9143
" />
<path d="M58.5381 49.9143
L58.4905 50.0096
" />
<path d="M58.4905 50.0096
L58.4429 50.0572
" />
<path d="M58.4429 50.0572
L58.3476 50.1048
" />
<path d="M58.3476 50.1048
L58.2524 50.1048
" />
<path d="M58.2524 50.1048
L58.1571 50.0572
" />
<path d="M58.1571 50.0572
L58.1095 50.0096
" />
<path d="M58.1095 50.0096
L58.0619 49.9143
" />
<path d="M58.0619 49.9143
L58.0143 49.7239
" />
<path d="M58.0143 49.7239
L58.0143 49.4858
" />
<path d="M58.0143 49.4858
L58.0619 49.2953
" />
<path d="M58.0619 49.2953
L58.1095 49.2001
" />
<path d="M58.1095 49.2001
L58.1571 49.1524
" />
<path d="M58.1571 49.1524
L58.2524 49.1048
" />
<path d="M59.7762 50.1048
L59.7762 49.4382
" />
<path d="M59.7762 49.5334
L59.8238 49.4858
" />
<path d="M59.8238 49.4858
L59.9190 49.4382
" />
<path d="M59.9190 49.4382
L60.0619 49.4382
" />
<path d="M60.0619 49.4382
L60.1571 49.4858
" />
<path d="M60.1571 49.4858
L60.2048 49.5810
" />
<path d="M60.2048 49.5810
L60.2048 50.1048
" />
<path d="M60.2048 49.5810
L60.2524 49.4858
" />
<path d="M60.2524 49.4858
L60.3476 49.4382
" />
<path d="M60.3476 49.4382
L60.4905 49.4382
" />
<path d="M60.4905 49.4382
L60.5857 49.4858
" />
<path d="M60.5857 49.4858
L60.6333 49.5810
" />
<path d="M60.6333 49.5810
L60.6333 50.1048
" />
<path d="M61.1095 50.1048
L61.1095 49.4382
" />
<path d="M61.1095 49.5334
L61.1571 49.4858
" />
<path d="M61.1571 49.4858
L61.2524 49.4382
" />
<path d="M61.2524 49.4382
L61.3952 49.4382
" />
<path d="M61.3952 49.4382
L61.4905 49.4858
" />
<path d="M61.4905 49.4858
L61.5381 49.5810
" />
<path d="M61.5381 49.5810
L61.5381 50.1048
" />
<path d="M61.5381 49.5810
L61.5857 49.4858
" />
<path d="M61.5857 49.4858
L61.6810 49.4382
" />
<path d="M61.6810 49.4382
L61.8238 49.4382
" />
<path d="M61.8238 49.4382
L61.9190 49.4858
" />
<path d="M61.9190 49.4858
L61.9667 49.5810
" />
<path d="M61.9667 49.5810
L61.9667 50.1048
" />
</g></g>
<g style="fill:none; 
stroke:#000000; stroke-width:0.1000; stroke-opacity:1; 
stroke-linecap:round; stroke-linejoin:round;">
<path d="M56.8000 55.3000
L56.8000 50.2136
" />
<path d="M61.8000 50.2136
L61.8000 55.3000
" />
<path d="M56.8000 50.8000
L61.8000 50.8000
" />
<path d="M56.8000 50.8000
L61.8000 50.8000
" />
<path d="M56.8000 50.8000
L57.9265 50.2136
" />
<path d="M56.8000 50.8000
L57.9265 51.3864
" />
<path d="M61.8000 50.8000
L60.6735 51.3864
" />
<path d="M61.8000 50.8000
L60.6735 50.2136
" />
<path d="M56.8000 50.8000
L61.8000 50.8000
" />
<path d="M56.8000 50.8000
L61.8000 50.8000
" />
<path d="M56.8000 50.8000
L57.9265 50.2136
" />
<path d="M56.8000 50.8000
L57.9265 51.3864
" />
<path d="M61.8000 50.8000
L60.6735 51.3864
" />
<path d="M61.8000 50.8000
L60.6735 50.2136
" />
</g>
<g style="fill:none; 
stroke:#000000; stroke-width:0.1500; stroke-opacity:1; 
stroke-linecap:round; stroke-linejoin:round;">
<text x="66.3000" y="46.1500"
textLength="7.0119" font-size="1.3333" lengthAdjust="spacingAndGlyphs"
text-anchor="middle" opacity="0" stroke-opacity="0">19,0 mm</text>
<g class="stroked-text"><desc>19,0 mm</desc>
<path d="M63.6810 46.1048
L63.1095 46.1048
" />
<path d="M63.3952 46.1048
L63.3952 45.1048
" />
<path d="M63.3952 45.1048
L63.3000 45.2477
" />
<path d="M63.3000 45.2477
L63.2048 45.3429
" />
<path d="M63.2048 45.3429
L63.1095 45.3905
" />
<path d="M64.1571 46.1048
L64.3476 46.1048
" />
<path d="M64.3476 46.1048
L64.4429 46.0572
" />
<path d="M64.4429 46.0572
L64.4905 46.0096
" />
<path d="M64.4905 46.0096
L64.5857 45.8667
" />
<path d="M64.5857 45.8667
L64.6333 45.6762
" />
<path d="M64.6333 45.6762
L64.6333 45.2953
" />
<path d="M64.6333 45.2953
L64.5857 45.2001
" />
<path d="M64.5857 45.2001
L64.5381 45.1524
" />
<path d="M64.5381 45.1524
L64.4429 45.1048
" />
<path d="M64.4429 45.1048
L64.2524 45.1048
" />
<path d="M64.2524 45.1048
L64.1571 45.1524
" />
<path d="M64.1571 45.1524
L64.1095 45.2001
" />
<path d="M64.1095 45.2001
L64.0619 45.2953
" />
<path d="M64.0619 45.2953
L64.0619 45.5334
" />
<path d="M64.0619 45.5334
L64.1095 45.6286
" />
<path d="M64.1095 45.6286
L64.1571 45.6762
" />
<path d="M64.1571 45.6762
L64.2524 45.7239
" />
<path d="M64.2524 45.7239
L64.4429 45.7239
" />
<path d="M64.4429 45.7239
L64.5381 45.6762
" />
<path d="M64.5381 45.6762
L64.5857 45.6286
" />
<path d="M64.5857 45.6286
L64.6333 45.5334
" />
<path d="M65.1095 46.0572
L65.1095 46.1048
" />
<path d="M65.1095 46.1048
L65.0619 46.2001
" />
<path d="M65.0619 46.2001
L65.0143 46.2477
" />
<path d="M65.7286 45.1048
L65.8238 45.1048
" />
<path d="M65.8238 45.1048
L65.9190 45.1524
" />
<path d="M65.9190 45.1524
L65.9667 45.2001
" />
<path d="M65.9667 45.2001
L66.0143 45.2953
" />
<path d="M66.0143 45.2953
L66.0619 45.4858
" />
<path d="M66.0619 45.4858
L66.0619 45.7239
" />
<path d="M66.0619 45.7239
L66.0143 45.9143
" />
<path d="M66.0143 45.9143
L65.9667 46.0096
" />
<path d="M65.9667 46.0096
L65.9190 46.0572
" />
<path d="M65.9190 46.0572
L65.8238 46.1048
" />
<path d="M65.8238 46.1048
L65.7286 46.1048
" />
<path d="M65.7286 46.1048
L65.6333 46.0572
" />
<path d="M65.6333 46.0572
L65.5857 46.0096
" />
<path d="M65.5857 46.0096
L65.5381 45.9143
" />
<path d="M65.5381 45.9143
L65.4905 45.7239
" />
<path d="M65.4905 45.7239
L65.4905 45.4858
" />
<path d="M65.4905 45.4858
L65.5381 45.2953
" />
<path d="M65.5381 45.2953
L65.5857 45.2001
" />
<path d="M65.5857 45.2001
L65.6333 45.1524
" />
<path d="M65.6333 45.1524
L65.7286 45.1048
" />
<path d="M67.2524 46.1048
L67.2524 45.4382
" />
<path d="M67.2524 45.5334
L67.3000 45.4858
" />
<path d="M67.3000 45.4858
L67.3952 45.4382
" />
<path d="M67.3952 45.4382
L67.5381 45.4382
" />
<path d="M67.5381 45.4382
L67.6333 45.4858
" />
<path d="M67.6333 45.4858
L67.6810 45.5810
" />
<path d="M67.6810 45.5810
L67.6810 46.1048
" />
<path d="M67.6810 45.5810
L67.7286 45.4858
" />
<path d="M67.7286 45.4858
L67.8238 45.4382
" />
<path d="M67.8238 45.4382
L67.9667 45.4382
" />
<path d="M67.9667 45.4382
L68.0619 45.4858
" />
<path d="M68.0619 45.4858
L68.1095 45.5810
" />
<path d="M68.1095 45.5810
L68.1095 46.1048
" />
<path d="M68.5857 46.1048
L68.5857 45.4382
" />
<path d="M68.5857 45.5334
L68.6333 45.4858
" />
<path d="M68.6333 45.4858
L68.7286 45.4382
" />
<path d="M68.7286 45.4382
L68.8714 45.4382
" />
<path d="M68.8714 45.4382
L68.9667 45.4858
" />
<path d="M68.9667 45.4858
L69.0143 45.5810
" />
<path d="M69.0143 45.5810
L69.0143 46.1048
" />
<path d="M69.0143 45.5810
L69.0619 45.4858
" />
<path d="M69.0619 45.4858
L69.1571 45.4382
" />
<path d="M69.1571 45.4382
L69.3000 45.4382
" />
<path d="M69.3000 45.4382
L69.3952 45.4858
" />
<path d="M69.3952 45.4858
L69.4429 45.5810
" />
<path d="M69.4429 45.5810
L69.4429 46.1048
" />
</g></g>
<g style="fill:none; 
stroke:#000000; stroke-width:0.1000; stroke-opacity:1; 
stroke-linecap:round; stroke-linejoin:round;">
<path d="M56.8000 55.3000
L56.8000 46.2136
" />
<path d="M75.8000 46.2136
L75.8000 55.3000
" />
<path d="M56.8000 46.8000
L75.8000 46.8000
" />
<path d="M56.8000 46.8000
L75.8000 46.8000
" />
<path d="M56.8000 46.8000
L57.9265 46.2136
" />
<path d="M56.8000 46.8000
L57.9265 47.3864
" />
<path d="M75.8000 46.8000
L74.6735 47.3864
" />
<path d="M75.8000 46.8000
L74.6735 46.2136
" />
<path d="M56.8000 46.8000
L75.8000 46.8000
" />
<path d="M56.8000 46.8000
L75.8000 46.8000
" />
<path d="M56.8000 46.8000
L57.9265 46.2136
" />
<path d="M56.8000 46.8000
L57.9265 47.3864
" />
<path d="M75.8000 46.8000
L74.6735 47.3864
" />
<path d="M75.8000 46.8000
L74.6735 46.2136
" />
</g>
<g style="fill:none; 
stroke:#000000; stroke-width:0.1500; stroke-opacity:1; 
stroke-linecap:round; stroke-linejoin:round;">
<text x="71.8000" y="42.1500"
textLength="7.0119" font-size="1.3333" lengthAdjust="spacingAndGlyphs"
text-anchor="middle" opacity="0" stroke-opacity="0">30,0 mm</text>
<g class="stroked-text"><desc>30,0 mm</desc>
<path d="M68.5619 41.1048
L69.1810 41.1048
" />
<path d="M69.1810 41.1048
L68.8476 41.4858
" />
<path d="M68.8476 41.4858
L68.9905 41.4858
" />
<path d="M68.9905 41.4858
L69.0857 41.5334
" />
<path d="M69.0857 41.5334
L69.1333 41.5810
" />
<path d="M69.1333 41.5810
L69.1810 41.6762
" />
<path d="M69.1810 41.6762
L69.1810 41.9143
" />
<path d="M69.1810 41.9143
L69.1333 42.0096
" />
<path d="M69.1333 42.0096
L69.0857 42.0572
" />
<path d="M69.0857 42.0572
L68.9905 42.1048
" />
<path d="M68.9905 42.1048
L68.7048 42.1048
" />
<path d="M68.7048 42.1048
L68.6095 42.0572
" />
<path d="M68.6095 42.0572
L68.5619 42.0096
" />
<path d="M69.8000 41.1048
L69.8952 41.1048
" />
<path d="M69.8952 41.1048
L69.9905 41.1524
" />
<path d="M69.9905 41.1524
L70.0381 41.2001
" />
<path d="M70.0381 41.2001
L70.0857 41.2953
" />
<path d="M70.0857 41.2953
L70.1333 41.4858
" />
<path d="M70.1333 41.4858
L70.1333 41.7239
" />
<path d="M70.1333 41.7239
L70.0857 41.9143
" />
<path d="M70.0857 41.9143
L70.0381 42.0096
" />
<path d="M70.0381 42.0096
L69.9905 42.0572
" />
<path d="M69.9905 42.0572
L69.8952 42.1048
" />
<path d="M69.8952 42.1048
L69.8000 42.1048
" />
<path d="M69.8000 42.1048
L69.7048 42.0572
" />
<path d="M69.7048 42.0572
L69.6571 42.0096
" />
<path d="M69.6571 42.0096
L69.6095 41.9143
" />
<path d="M69.6095 41.9143
L69.5619 41.7239
" />
<path d="M69.5619 41.7239
L69.5619 41.4858
" />
<path d="M69.5619 41.4858
L69.6095 41.2953
" />
<path d="M69.6095 41.2953
L69.6571 41.2001
" />
<path d="M69.6571 41.2001
L69.7048 41.1524
" />
<path d="M69.7048 41.1524
L69.8000 41.1048
" />
<path d="M70.6095 42.0572
L70.6095 42.1048
" />
<path d="M70.6095 42.1048
L70.5619 42.2001
" />
<path d="M70.5619 42.2001
L70.5143 42.2477
" />
<path d="M71.2286 41.1048
L71.3238 41.1048
" />
<path d="M71.3238 41.1048
L71.4190 41.1524
" />
<path d="M71.4190 41.1524
L71.4667 41.2001
" />
<path d="M71.4667 41.2001
L71.5143 41.2953
" />
<path d="M71.5143 41.2953
L71.5619 41.4858
" />
<path d="M71.5619 41.4858
L71.5619 41.7239
" />
<path d="M71.5619 41.7239
L71.5143 41.9143
" />
<path d="M71.5143 41.9143
L71.4667 42.0096
" />
<path d="M71.4667 42.0096
L71.4190 42.0572
" />
<path d="M71.4190 42.0572
L71.3238 42.1048
" />
<path d="M71.3238 42.1048
L71.2286 42.1048
" />
<path d="M71.2286 42.1048
L71.1333 42.0572
" />
<path d="M71.1333 42.0572
L71.0857 42.0096
" />
<path d="M71.0857 42.0096
L71.0381 41.9143
" />
<path d="M71.0381 41.9143
L70.9905 41.7239
" />
<path d="M70.9905 41.7239
L70.9905 41.4858
" />
<path d="M70.9905 41.4858
L71.0381 41.2953
" />
<path d="M71.0381 41.2953
L71.0857 41.2001
" />
<path d="M71.0857 41.2001
L71.1333 41.1524
" />
<path d="M71.1333 41.1524
L71.2286 41.1048
" />
<path d="M72.7524 42.1048
L72.7524 41.4382
" />
<path d="M72.7524 41.5334
L72.8000 41.4858
" />
<path d="M72.8000 41.4858
L72.8952 41.4382
" />
<path d="M72.8952 41.4382
L73.0381 41.4382
" />
<path d="M73.0381 41.4382
L73.1333 41.4858
" />
<path d="M73.1333 41.4858
L73.1810 41.5810
" />
<path d="M73.1810 41.5810
L73.1810 42.1048
" />
<path d="M73.1810 41.5810
L73.2286 41.4858
" />
<path d="M73.2286 41.4858
L73.3238 41.4382
" />
<path d="M73.3238 41.4382
L73.4667 41.4382
" />
<path d="M73.4667 41.4382
L73.5619 41.4858
" />
<path d="M73.5619 41.4858
L73.6095 41.5810
" />
<path d="M73.6095 41.5810
L73.6095 42.1048
" />
<path d="M74.0857 42.1048
L74.0857 41.4382
" />
<path d="M74.0857 41.5334
L74.1333 41.4858
" />
<path d="M74.1333 41.4858
L74.2286 41.4382
" />
<path d="M74.2286 41.4382
L74.3714 41.4382
" />
<path d="M74.3714 41.4382
L74.4667 41.4858
" />
<path d="M74.4667 41.4858
L74.5143 41.5810
" />
<path d="M74.5143 41.5810
L74.5143 42.1048
" />
<path d="M74.5143 41.5810
L74.5619 41.4858
" />
<path d="M74.5619 41.4858
L74.6571 41.4382
" />
<path d="M74.6571 41.4382
L74.8000 41.4382
" />
<path d="M74.8000 41.4382
L74.8952 41.4858
" />
<path d="M74.8952 41.4858
L74.9429 41.5810
" />
<path d="M74.9429 41.5810
L74.9429 42.1048
" />
</g></g>
<g style="fill:none; 
stroke:#000000; stroke-width:0.1000; stroke-opacity:1; 
stroke-linecap:round; stroke-linejoin:round;">
<path d="M56.8000 55.3000
L56.8000 42.2136
" />
<path d="M86.8000 42.2136
L86.8000 55.3000
" />
<path d="M56.8000 42.8000
L86.8000 42.8000
" />
<path d="M56.8000 42.8000
L86.8000 42.8000
" />
<path d="M56.8000 42.8000
L57.9265 42.2136
" />
<path d="M56.8000 42.8000
L57.9265 43.3864
" />
<path d="M86.8000 42.8000
L85.6735 43.3864
" />
<path d="M86.8000 42.8000
L85.6735 42.2136
" />
<path d="M56.8000 42.8000
L86.8000 42.8000
" />
<path d="M56.8000 42.8000
L86.8000 42.8000
" />
<path d="M56.8000 42.8000
L57.9265 42.2136
" />
<path d="M56.8000 42.8000
L57.9265 43.3864
" />
<path d="M86.8000 42.8000
L85.6735 43.3864
" />
<path d="M86.8000 42.8000
L85.6735 42.2136
" />
</g>
<g style="fill:none; 
stroke:#000000; stroke-width:0.1500; stroke-opacity:1; 
stroke-linecap:round; stroke-linejoin:round;">
<g transform="rotate(-90.000000 89.6500 100.8000)">
<text x="89.6500" y="101.3000"
textLength="7.0119" font-size="1.3333" lengthAdjust="spacingAndGlyphs"
text-anchor="middle" opacity="0" stroke-opacity="0">96,0 mm</text>
</g>
<g class="stroked-text"><desc>96,0 mm</desc>
<path d="M90.1048 103.8952
L90.1048 103.7048
" />
<path d="M90.1048 103.7048
L90.0572 103.6095
" />
<path d="M90.0572 103.6095
L90.0096 103.5619
" />
<path d="M90.0096 103.5619
L89.8667 103.4667
" />
<path d="M89.8667 103.4667
L89.6762 103.4190
" />
<path d="M89.6762 103.4190
L89.2953 103.4190
" />
<path d="M89.2953 103.4190
L89.2001 103.4667
" />
<path d="M89.2001 103.4667
L89.1524 103.5143
" />
<path d="M89.1524 103.5143
L89.1048 103.6095
" />
<path d="M89.1048 103.6095
L89.1048 103.8000
" />
<path d="M89.1048 103.8000
L89.1524 103.8952
" />
<path d="M89.1524 103.8952
L89.2001 103.9429
" />
<path d="M89.2001 103.9429
L89.2953 103.9905
" />
<path d="M89.2953 103.9905
L89.5334 103.9905
" />
<path d="M89.5334 103.9905
L89.6286 103.9429
" />
<path d="M89.6286 103.9429
L89.6762 103.8952
" />
<path d="M89.6762 103.8952
L89.7239 103.8000
" />
<path d="M89.7239 103.8000
L89.7239 103.6095
" />
<path d="M89.7239 103.6095
L89.6762 103.5143
" />
<path d="M89.6762 103.5143
L89.6286 103.4667
" />
<path d="M89.6286 103.4667
L89.5334 103.4190
" />
<path d="M89.1048 102.5619
L89.1048 102.7524
" />
<path d="M89.1048 102.7524
L89.1524 102.8476
" />
<path d="M89.1524 102.8476
L89.2001 102.8952
" />
<path d="M89.2001 102.8952
L89.3429 102.9905
" />
<path d="M89.3429 102.9905
L89.5334 103.0381
" />
<path d="M89.5334 103.0381
L89.9143 103.0381
" />
<path d="M89.9143 103.0381
L90.0096 102.9905
" />
<path d="M90.0096 102.9905
L90.0572 102.9429
" />
<path d="M90.0572 102.9429
L90.1048 102.8476
" />
<path d="M90.1048 102.8476
L90.1048 102.6571
" />
<path d="M90.1048 102.6571
L90.0572 102.5619
" />
<path d="M90.0572 102.5619
L90.0096 102.5143
" />
<path d="M90.0096 102.5143
L89.9143 102.4667
" />
<path d="M89.9143 102.4667
L89.6762 102.4667
" />
<path d="M89.6762 102.4667
L89.5810 102.5143
" />
<path d="M89.5810 102.5143
L89.5334 102.5619
" />
<path d="M89.5334 102.5619
L89.4858 102.6571
" />
<path d="M89.4858 102.6571
L89.4858 102.8476
" />
<path d="M89.4858 102.8476
L89.5334 102.9429
" />
<path d="M89.5334 102.9429
L89.5810 102.9905
" />
<path d="M89.5810 102.9905
L89.6762 103.0381
" />
<path d="M90.0572 101.9905
L90.1048 101.9905
" />
<path d="M90.1048 101.9905
L90.2001 102.0381
" />
<path d="M90.2001 102.0381
L90.2477 102.0857
" />
<path d="M89.1048 101.3714
L89.1048 101.2762
" />
<path d="M89.1048 101.2762
L89.1524 101.1810
" />
<path d="M89.1524 101.1810
L89.2001 101.1333
" />
<path d="M89.2001 101.1333
L89.2953 101.0857
" />
<path d="M89.2953 101.0857
L89.4858 101.0381
" />
<path d="M89.4858 101.0381
L89.7239 101.0381
" />
<path d="M89.7239 101.0381
L89.9143 101.0857
" />
<path d="M89.9143 101.0857
L90.0096 101.1333
" />
<path d="M90.0096 101.1333
L90.0572 101.1810
" />
<path d="M90.0572 101.1810
L90.1048 101.2762
" />
<path d="M90.1048 101.2762
L90.1048 101.3714
" />
<path d="M90.1048 101.3714
L90.0572 101.4667
" />
<path d="M90.0572 101.4667
L90.0096 101.5143
" />
<path d="M90.0096 101.5143
L89.9143 101.5619
" />
<path d="M89.9143 101.5619
L89.7239 101.6095
" />
<path d="M89.7239 101.6095
L89.4858 101.6095
" />
<path d="M89.4858 101.6095
L89.2953 101.5619
" />
<path d="M89.2953 101.5619
L89.2001 101.5143
" />
<path d="M89.2001 101.5143
L89.1524 101.4667
" />
<path d="M89.1524 101.4667
L89.1048 101.3714
" />
<path d="M90.1048 99.8476
L89.4382 99.8476
" />
<path d="M89.5334 99.8476
L89.4858 99.8000
" />
<path d="M89.4858 99.8000
L89.4382 99.7048
" />
<path d="M89.4382 99.7048
L89.4382 99.5619
" />
<path d="M89.4382 99.5619
L89.4858 99.4667
" />
<path d="M89.4858 99.4667
L89.5810 99.4190
" />
<path d="M89.5810 99.4190
L90.1048 99.4190
" />
<path d="M89.5810 99.4190
L89.4858 99.3714
" />
<path d="M89.4858 99.3714
L89.4382 99.2762
" />
<path d="M89.4382 99.2762
L89.4382 99.1333
" />
<path d="M89.4382 99.1333
L89.4858 99.0381
" />
<path d="M89.4858 99.0381
L89.5810 98.9905
" />
<path d="M89.5810 98.9905
L90.1048 98.9905
" />
<path d="M90.1048 98.5143
L89.4382 98.5143
" />
<path d="M89.5334 98.5143
L89.4858 98.4667
" />
<path d="M89.4858 98.4667
L89.4382 98.3714
" />
<path d="M89.4382 98.3714
L89.4382 98.2286
" />
<path d="M89.4382 98.2286
L89.4858 98.1333
" />
<path d="M89.4858 98.1333
L89.5810 98.0857
" />
<path d="M89.5810 98.0857
L90.1048 98.0857
" />
<path d="M89.5810 98.0857
L89.4858 98.0381
" />
<path d="M89.4858 98.0381
L89.4382 97.9429
" />
<path d="M89.4382 97.9429
L89.4382 97.8000
" />
<path d="M89.4382 97.8000
L89.4858 97.7048
" />
<path d="M89.4858 97.7048
L89.5810 97.6571
" />
<path d="M89.5810 97.6571
L90.1048 97.6571
" />
</g></g>
<g style="fill:none; 
stroke:#000000; stroke-width:0.1000; stroke-opacity:1; 
stroke-linecap:round; stroke-linejoin:round;">
<path d="M83.3000 52.8000
L91.3864 52.8000
" />
<path d="M91.3864 148.8000
L83.3000 148.8000
" />
<path d="M90.8000 52.8000
L90.8000 148.8000
" />
<path d="M90.8000 52.8000
L90.8000 148.8000
" />
<path d="M90.8000 52.8000
L91.3864 53.9265
" />
<path d="M90.8000 52.8000
L90.2136 53.9265
" />
<path d="M90.8000 148.8000
L90.2136 147.6735
" />
<path d="M90.8000 148.8000
L91.3864 147.6735
" />
<path d="M90.8000 52.8000
L90.8000 148.8000
" />
<path d="M90.8000 52.8000
L90.8000 148.8000
" />
<path d="M90.8000 52.8000
L91.3864 53.9265
" />
<path d="M90.8000 52.8000
L90.2136 53.9265
" />
<path d="M90.8000 148.8000
L90.2136 147.6735
" />
<path d="M90.8000 148.8000
L91.3864 147.6735
" />
</g>
<g style="fill:none; 
stroke:#000000; stroke-width:0.2000; stroke-opacity:1; 
stroke-linecap:round; stroke-linejoin:round;">
<path d="M59.8000 52.8000 A3.0000 3.0000 0.0 0 0 56.8000 55.8000" />
<path d="M72.8000 146.8000 A4.0000 4.0000 0.0 0 0 64.8000 146.8000" />
<path d="M64.8000 54.8000 A2.0000 2.0000 0.0 0 0 62.8000 52.8000" />
<path d="M59.8000 148.8000
L62.8000 148.8000
" />
<path d="M62.8000 148.8000 A2.0000 2.0000 0.0 0 0 64.8000 146.8000" />
<path d="M64.8000 54.8000 A4.0000 4.0000 0.0 0 0 72.8000 54.8000" />
<path d="M56.8000 55.8000
L56.8000 145.8000
" />
<path d="M86.7957 145.8000
L86.7957 55.8000
" />
<path d="M56.8000 145.8000 A3.0000 3.0000 0.0 0 0 59.8000 148.8000" />
<path d="M74.8000 148.8000
L83.8000 148.7957
" />
<path d="M74.8000 52.8000
L83.8000 52.8043
" />
<path d="M86.8000 55.8000 A3.0000 3.0000 0.0 0 0 83.8000 52.8000" />
<path d="M59.8000 52.8000
L62.8000 52.8000
" />
<path d="M74.8000 52.8000 A2.0000 2.0000 0.0 0 0 72.8000 54.8000" />
<path d="M72.8000 146.8000 A2.0000 2.0000 0.0 0 0 74.8000 148.8000" />
<path d="M83.8000 148.7957 A2.9957 2.9957 0.0 0 0 86.7957 145.8000" />
</g>
<g style="fill:none; 
stroke:#000000; stroke-width:0.0500; stroke-opacity:1; 
stroke-linecap:round; stroke-linejoin:round;">
<circle cx="61.8000" cy="145.8000" r="1.1000" /> 
<circle cx="75.8000" cy="145.8000" r="1.1000" /> 
<circle cx="61.8000" cy="55.8000" r="1.1000" /> 
<circle cx="75.8000" cy="55.8000" r="1.1000" /> 
</g> 
</svg>
