<?xml version="1.0" standalone="no"?>
 <!DOCTYPE svg PUBLIC "-//W3C//DTD SVG 1.1//EN" 
 "http://www.w3.org/Graphics/SVG/1.1/DTD/svg11.dtd"> 
<svg
  xmlns:svg="http://www.w3.org/2000/svg"
  xmlns="http://www.w3.org/2000/svg"
  xmlns:xlink="http://www.w3.org/1999/xlink"
  version="1.1"
  width="297.0022mm" height="210.0072mm" viewBox="0.0000 0.0000 297.0022 210.0072">
<title>SVG Image created as PMDBG-FFC20-PTH-drl_map.svg date 2025/07/20 15:06:00 </title>
  <desc>Image generated by PCBNEW </desc>
<g style="fill:#000000; fill-opacity:1.0000;stroke:#000000; stroke-opacity:1.0000;
stroke-linecap:round; stroke-linejoin:round;"
 transform="translate(0 0) scale(1 1)">
</g>
<g style="fill:none; 
stroke:#000000; stroke-width:0.3000; stroke-opacity:1; 
stroke-linecap:round; stroke-linejoin:round;">
<path d="M100.5011 18.0022 A6.0000 6.0000 0.0 0 0 94.5011 24.0022" />
<path d="M196.5011 108.0022 A6.0000 6.0000 0.0 0 0 202.5011 102.0022" />
<path d="M202.5011 24.0022 A6.0000 6.0000 0.0 0 0 196.5011 18.0022" />
<path d="M100.5011 108.0022
L196.5011 108.0022
" />
<path d="M94.5011 102.0022
L94.5011 24.0022
" />
<path d="M202.5011 24.0022
L202.5011 102.0022
" />
<path d="M100.5011 18.0022
L196.5011 18.0022
" />
<path d="M94.5011 102.0022 A6.0000 6.0000 0.0 0 0 100.5011 108.0022" />
</g>
<g style="fill:none; 
stroke:#000000; stroke-width:0.2000; stroke-opacity:1; 
stroke-linecap:round; stroke-linejoin:round;">
<text x="96.3511" y="111.3522"
textLength="14.8667" font-size="2.6667" lengthAdjust="spacingAndGlyphs"
text-anchor="start" opacity="0" stroke-opacity="0">Drill Map:</text>
<g class="stroked-text"><desc>Drill Map:</desc>
<path d="M96.9589 111.2670
L96.9589 109.2670
" />
<path d="M96.9589 109.2670
L97.4351 109.2670
" />
<path d="M97.4351 109.2670
L97.7208 109.3622
" />
<path d="M97.7208 109.3622
L97.9112 109.5527
" />
<path d="M97.9112 109.5527
L98.0065 109.7432
" />
<path d="M98.0065 109.7432
L98.1017 110.1241
" />
<path d="M98.1017 110.1241
L98.1017 110.4099
" />
<path d="M98.1017 110.4099
L98.0065 110.7908
" />
<path d="M98.0065 110.7908
L97.9112 110.9813
" />
<path d="M97.9112 110.9813
L97.7208 111.1718
" />
<path d="M97.7208 111.1718
L97.4351 111.2670
" />
<path d="M97.4351 111.2670
L96.9589 111.2670
" />
<path d="M98.9589 111.2670
L98.9589 109.9337
" />
<path d="M98.9589 110.3146
L99.0541 110.1241
" />
<path d="M99.0541 110.1241
L99.1493 110.0289
" />
<path d="M99.1493 110.0289
L99.3398 109.9337
" />
<path d="M99.3398 109.9337
L99.5303 109.9337
" />
<path d="M100.1970 111.2670
L100.1970 109.9337
" />
<path d="M100.1970 109.2670
L100.1017 109.3622
" />
<path d="M100.1017 109.3622
L100.1970 109.4575
" />
<path d="M100.1970 109.4575
L100.2922 109.3622
" />
<path d="M100.2922 109.3622
L100.1970 109.2670
" />
<path d="M100.1970 109.2670
L100.1970 109.4575
" />
<path d="M101.4351 111.2670
L101.2446 111.1718
" />
<path d="M101.2446 111.1718
L101.1493 110.9813
" />
<path d="M101.1493 110.9813
L101.1493 109.2670
" />
<path d="M102.4827 111.2670
L102.2922 111.1718
" />
<path d="M102.2922 111.1718
L102.1970 110.9813
" />
<path d="M102.1970 110.9813
L102.1970 109.2670
" />
<path d="M104.7684 111.2670
L104.7684 109.2670
" />
<path d="M104.7684 109.2670
L105.4351 110.6956
" />
<path d="M105.4351 110.6956
L106.1017 109.2670
" />
<path d="M106.1017 109.2670
L106.1017 111.2670
" />
<path d="M107.9113 111.2670
L107.9113 110.2194
" />
<path d="M107.9113 110.2194
L107.8160 110.0289
" />
<path d="M107.8160 110.0289
L107.6255 109.9337
" />
<path d="M107.6255 109.9337
L107.2446 109.9337
" />
<path d="M107.2446 109.9337
L107.0541 110.0289
" />
<path d="M107.9113 111.1718
L107.7208 111.2670
" />
<path d="M107.7208 111.2670
L107.2446 111.2670
" />
<path d="M107.2446 111.2670
L107.0541 111.1718
" />
<path d="M107.0541 111.1718
L106.9589 110.9813
" />
<path d="M106.9589 110.9813
L106.9589 110.7908
" />
<path d="M106.9589 110.7908
L107.0541 110.6003
" />
<path d="M107.0541 110.6003
L107.2446 110.5051
" />
<path d="M107.2446 110.5051
L107.7208 110.5051
" />
<path d="M107.7208 110.5051
L107.9113 110.4099
" />
<path d="M108.8636 109.9337
L108.8636 111.9337
" />
<path d="M108.8636 110.0289
L109.0541 109.9337
" />
<path d="M109.0541 109.9337
L109.4351 109.9337
" />
<path d="M109.4351 109.9337
L109.6255 110.0289
" />
<path d="M109.6255 110.0289
L109.7208 110.1241
" />
<path d="M109.7208 110.1241
L109.8160 110.3146
" />
<path d="M109.8160 110.3146
L109.8160 110.8860
" />
<path d="M109.8160 110.8860
L109.7208 111.0765
" />
<path d="M109.7208 111.0765
L109.6255 111.1718
" />
<path d="M109.6255 111.1718
L109.4351 111.2670
" />
<path d="M109.4351 111.2670
L109.0541 111.2670
" />
<path d="M109.0541 111.2670
L108.8636 111.1718
" />
<path d="M110.6732 111.0765
L110.7684 111.1718
" />
<path d="M110.7684 111.1718
L110.6732 111.2670
" />
<path d="M110.6732 111.2670
L110.5779 111.1718
" />
<path d="M110.5779 111.1718
L110.6732 111.0765
" />
<path d="M110.6732 111.0765
L110.6732 111.2670
" />
<path d="M110.6732 110.0289
L110.7684 110.1241
" />
<path d="M110.7684 110.1241
L110.6732 110.2194
" />
<path d="M110.6732 110.2194
L110.5779 110.1241
" />
<path d="M110.5779 110.1241
L110.6732 110.0289
" />
<path d="M110.6732 110.0289
L110.6732 110.2194
" />
</g></g> 
</svg>
