<?xml version="1.0" standalone="no"?>
 <!DOCTYPE svg PUBLIC "-//W3C//DTD SVG 1.1//EN" 
 "http://www.w3.org/Graphics/SVG/1.1/DTD/svg11.dtd"> 
<svg
  xmlns:svg="http://www.w3.org/2000/svg"
  xmlns="http://www.w3.org/2000/svg"
  xmlns:xlink="http://www.w3.org/1999/xlink"
  version="1.1"
  width="297.0022mm" height="210.0072mm" viewBox="0.0000 0.0000 297.0022 210.0072">
<title>SVG Image created as PMCNV-PWMx16-PTH-drl_map.svg date 2025/11/30 18:27:49 </title>
  <desc>Image generated by PCBNEW </desc>
<g style="fill:#000000; fill-opacity:1.0000;stroke:#000000; stroke-opacity:1.0000;
stroke-linecap:round; stroke-linejoin:round;"
 transform="translate(0 0) scale(1 1)">
</g>
<g style="fill:none; 
stroke:#000000; stroke-width:0.2315; stroke-opacity:1; 
stroke-linecap:round; stroke-linejoin:round;">
<path d="M102.1920 119.7308 A1.1577 1.1577 0.0 0 0 103.3497 120.8885" />
<path d="M168.1825 119.7308 A1.1577 1.1577 0.0 0 0 167.0247 118.5731" />
<path d="M103.3497 5.1158 A1.1577 1.1577 0.0 0 0 102.1920 6.2735" />
<path d="M180.9175 118.5731 A1.1577 1.1577 0.0 0 0 179.7597 119.7308" />
<path d="M180.9175 118.5731
L191.3370 118.5731
" />
<path d="M103.3497 120.8885
L107.9806 120.8885
" />
<path d="M179.7597 6.2735 A1.1577 1.1577 0.0 0 0 178.6020 5.1158" />
<path d="M112.6115 7.4312 A5.7886 5.7886 0.0 0 0 107.9806 5.1158" />
<path d="M107.9806 120.8885 A5.7886 5.7886 0.0 0 0 112.6115 118.5731" />
<path d="M102.1920 119.7308
L102.1920 6.2735
" />
<path d="M178.6020 120.8885 A1.1577 1.1577 0.0 0 0 179.7597 119.7308" />
<path d="M180.9175 7.4312
L191.3370 7.4312
" />
<path d="M179.7597 6.2735 A1.1577 1.1577 0.0 0 0 180.9175 7.4312" />
<path d="M103.3497 5.1158
L107.9806 5.1158
" />
<path d="M112.6115 7.4312
L167.0247 7.4312
" />
<path d="M168.1825 119.7308 A1.1577 1.1577 0.0 0 0 169.3402 120.8885" />
<path d="M169.3402 120.8885
L178.6020 120.8885
" />
<path d="M194.8102 10.9044 A3.4732 3.4732 0.0 0 0 191.3370 7.4312" />
<path d="M167.0247 7.4312 A1.1577 1.1577 0.0 0 0 168.1825 6.2735" />
<path d="M167.0247 118.5731
L112.6115 118.5731
" />
<path d="M194.8102 10.9044
L194.8102 115.0999
" />
<path d="M178.6020 5.1158
L169.3402 5.1158
" />
<path d="M169.3402 5.1158 A1.1577 1.1577 0.0 0 0 168.1825 6.2735" />
<path d="M191.3370 118.5731 A3.4732 3.4732 0.0 0 0 194.8102 115.0999" />
</g>
<g style="fill:none; 
stroke:#000000; stroke-width:0.1158; stroke-opacity:1; 
stroke-linecap:round; stroke-linejoin:round;">
<path d="M107.7491 30.9331
L108.2122 31.3962
" />
<path d="M108.2122 30.9331
L107.7491 31.3962
" />
<path d="M107.7491 32.0908
L108.2122 32.5539
" />
<path d="M108.2122 32.0908
L107.7491 32.5539
" />
<path d="M107.7491 33.2486
L108.2122 33.7116
" />
<path d="M108.2122 33.2486
L107.7491 33.7116
" />
<path d="M107.7491 34.4063
L108.2122 34.8694
" />
<path d="M108.2122 34.4063
L107.7491 34.8694
" />
<path d="M107.7491 36.7217
L108.2122 37.1848
" />
<path d="M108.2122 36.7217
L107.7491 37.1848
" />
<path d="M107.7491 37.8795
L108.2122 38.3426
" />
<path d="M108.2122 37.8795
L107.7491 38.3426
" />
<path d="M107.7491 39.0372
L108.2122 39.5003
" />
<path d="M108.2122 39.0372
L107.7491 39.5003
" />
<path d="M107.7491 40.1949
L108.2122 40.6580
" />
<path d="M108.2122 40.1949
L107.7491 40.6580
" />
<path d="M107.7491 41.3527
L108.2122 41.8157
" />
<path d="M108.2122 41.3527
L107.7491 41.8157
" />
<path d="M107.7491 42.5104
L108.2122 42.9735
" />
<path d="M108.2122 42.5104
L107.7491 42.9735
" />
<path d="M107.7491 43.6681
L108.2122 44.1312
" />
<path d="M108.2122 43.6681
L107.7491 44.1312
" />
<path d="M107.7491 44.8258
L108.2122 45.2889
" />
<path d="M108.2122 44.8258
L107.7491 45.2889
" />
<path d="M107.7491 45.9836
L108.2122 46.4467
" />
<path d="M108.2122 45.9836
L107.7491 46.4467
" />
<path d="M107.7491 47.1413
L108.2122 47.6044
" />
<path d="M108.2122 47.1413
L107.7491 47.6044
" />
<path d="M107.7491 48.2990
L108.2122 48.7621
" />
<path d="M108.2122 48.2990
L107.7491 48.7621
" />
<path d="M108.9068 30.9331
L109.3699 31.3962
" />
<path d="M109.3699 30.9331
L108.9068 31.3962
" />
<path d="M108.9068 32.0908
L109.3699 32.5539
" />
<path d="M109.3699 32.0908
L108.9068 32.5539
" />
<path d="M108.9068 33.2486
L109.3699 33.7116
" />
<path d="M109.3699 33.2486
L108.9068 33.7116
" />
<path d="M108.9068 34.4063
L109.3699 34.8694
" />
<path d="M109.3699 34.4063
L108.9068 34.8694
" />
<path d="M110.0645 30.9331
L110.5276 31.3962
" />
<path d="M110.5276 30.9331
L110.0645 31.3962
" />
<path d="M110.0645 32.0908
L110.5276 32.5539
" />
<path d="M110.5276 32.0908
L110.0645 32.5539
" />
<path d="M110.0645 33.2486
L110.5276 33.7116
" />
<path d="M110.5276 33.2486
L110.0645 33.7116
" />
<path d="M110.0645 34.4063
L110.5276 34.8694
" />
<path d="M110.5276 34.4063
L110.0645 34.8694
" />
<path d="M111.2223 24.5656
L111.6854 25.0287
" />
<path d="M111.6854 24.5656
L111.2223 25.0287
" />
<path d="M111.2223 25.7233
L111.6854 26.1864
" />
<path d="M111.6854 25.7233
L111.2223 26.1864
" />
<path d="M111.2223 26.8811
L111.6854 27.3441
" />
<path d="M111.6854 26.8811
L111.2223 27.3441
" />
<path d="M111.2223 52.3511
L111.6854 52.8142
" />
<path d="M111.6854 52.3511
L111.2223 52.8142
" />
<path d="M111.2223 53.5088
L111.6854 53.9719
" />
<path d="M111.6854 53.5088
L111.2223 53.9719
" />
<path d="M111.2223 54.6665
L111.6854 55.1296
" />
<path d="M111.6854 54.6665
L111.2223 55.1296
" />
<circle cx="103.7549" cy="20.1662" r="0.2315" /> 
<circle cx="103.7549" cy="105.8381" r="0.2315" /> 
<circle cx="104.3144" cy="18.8155" r="0.2315" /> 
<circle cx="104.3144" cy="21.5170" r="0.2315" /> 
<circle cx="104.3144" cy="104.4873" r="0.2315" /> 
<circle cx="104.3144" cy="107.1888" r="0.2315" /> 
<circle cx="105.6652" cy="18.2560" r="0.2315" /> 
<circle cx="105.6652" cy="22.0765" r="0.2315" /> 
<circle cx="105.6652" cy="103.9278" r="0.2315" /> 
<circle cx="105.6652" cy="107.7483" r="0.2315" /> 
<circle cx="107.0159" cy="18.8155" r="0.2315" /> 
<circle cx="107.0159" cy="21.5170" r="0.2315" /> 
<circle cx="107.0159" cy="104.4873" r="0.2315" /> 
<circle cx="107.0159" cy="107.1888" r="0.2315" /> 
<circle cx="107.5754" cy="20.1662" r="0.2315" /> 
<circle cx="107.5754" cy="105.8381" r="0.2315" /> 
<circle cx="136.1713" cy="10.9044" r="0.2315" /> 
<circle cx="136.1713" cy="115.0999" r="0.2315" /> 
<circle cx="136.7308" cy="9.5537" r="0.2315" /> 
<circle cx="136.7308" cy="12.2552" r="0.2315" /> 
<circle cx="136.7308" cy="113.7492" r="0.2315" /> 
<circle cx="136.7308" cy="116.4507" r="0.2315" /> 
<circle cx="138.0816" cy="8.9942" r="0.2315" /> 
<circle cx="138.0816" cy="12.8147" r="0.2315" /> 
<circle cx="138.0816" cy="113.1897" r="0.2315" /> 
<circle cx="138.0816" cy="117.0102" r="0.2315" /> 
<circle cx="139.4323" cy="9.5537" r="0.2315" /> 
<circle cx="139.4323" cy="12.2552" r="0.2315" /> 
<circle cx="139.4323" cy="113.7492" r="0.2315" /> 
<circle cx="139.4323" cy="116.4507" r="0.2315" /> 
<circle cx="139.9918" cy="10.9044" r="0.2315" /> 
<circle cx="139.9918" cy="115.0999" r="0.2315" /> 
<circle cx="161.6413" cy="10.9044" r="0.2315" /> 
<circle cx="161.6413" cy="115.0999" r="0.2315" /> 
<circle cx="162.2008" cy="9.5537" r="0.2315" /> 
<circle cx="162.2008" cy="12.2552" r="0.2315" /> 
<circle cx="162.2008" cy="113.7492" r="0.2315" /> 
<circle cx="162.2008" cy="116.4507" r="0.2315" /> 
<circle cx="163.5516" cy="8.9942" r="0.2315" /> 
<circle cx="163.5516" cy="12.8147" r="0.2315" /> 
<circle cx="163.5516" cy="113.1897" r="0.2315" /> 
<circle cx="163.5516" cy="117.0102" r="0.2315" /> 
<circle cx="164.9023" cy="9.5537" r="0.2315" /> 
<circle cx="164.9023" cy="12.2552" r="0.2315" /> 
<circle cx="164.9023" cy="113.7492" r="0.2315" /> 
<circle cx="164.9023" cy="116.4507" r="0.2315" /> 
<circle cx="165.4618" cy="10.9044" r="0.2315" /> 
<circle cx="165.4618" cy="115.0999" r="0.2315" /> 
<circle cx="189.4268" cy="10.9044" r="0.2315" /> 
<circle cx="189.4268" cy="115.0999" r="0.2315" /> 
<circle cx="189.9863" cy="9.5537" r="0.2315" /> 
<circle cx="189.9863" cy="12.2552" r="0.2315" /> 
<circle cx="189.9863" cy="113.7492" r="0.2315" /> 
<circle cx="189.9863" cy="116.4507" r="0.2315" /> 
<circle cx="191.3370" cy="8.9942" r="0.2315" /> 
<circle cx="191.3370" cy="12.8147" r="0.2315" /> 
<circle cx="191.3370" cy="113.1897" r="0.2315" /> 
<circle cx="191.3370" cy="117.0102" r="0.2315" /> 
<circle cx="192.6878" cy="9.5537" r="0.2315" /> 
<circle cx="192.6878" cy="12.2552" r="0.2315" /> 
<circle cx="192.6878" cy="113.7492" r="0.2315" /> 
<circle cx="192.6878" cy="116.4507" r="0.2315" /> 
<circle cx="193.2473" cy="10.9044" r="0.2315" /> 
<circle cx="193.2473" cy="115.0999" r="0.2315" /> 
<path d="M104.2470 10.5571
L104.2470 11.2517
" />
<path d="M103.8996 10.9044
L104.5943 10.9044
" />
<path d="M104.2470 114.7526
L104.2470 115.4472
" />
<path d="M103.8996 115.0999
L104.5943 115.0999
" />
<path d="M105.3405 7.9170
L105.3405 8.6116
" />
<path d="M104.9932 8.2643
L105.6878 8.2643
" />
<path d="M105.3405 13.1972
L105.3405 13.8918
" />
<path d="M104.9932 13.5445
L105.6878 13.5445
" />
<path d="M105.3405 112.1125
L105.3405 112.8071
" />
<path d="M104.9932 112.4598
L105.6878 112.4598
" />
<path d="M105.3405 117.3927
L105.3405 118.0873
" />
<path d="M104.9932 117.7400
L105.6878 117.7400
" />
<path d="M107.9806 6.8234
L107.9806 7.5181
" />
<path d="M107.6333 7.1707
L108.3279 7.1707
" />
<path d="M107.9806 14.2908
L107.9806 14.9854
" />
<path d="M107.6333 14.6381
L108.3279 14.6381
" />
<path d="M107.9806 111.0189
L107.9806 111.7136
" />
<path d="M107.6333 111.3662
L108.3279 111.3662
" />
<path d="M107.9806 118.4863
L107.9806 119.1809
" />
<path d="M107.6333 118.8336
L108.3279 118.8336
" />
<path d="M110.6207 7.9170
L110.6207 8.6116
" />
<path d="M110.2734 8.2643
L110.9681 8.2643
" />
<path d="M110.6207 13.1972
L110.6207 13.8918
" />
<path d="M110.2734 13.5445
L110.9681 13.5445
" />
<path d="M110.6207 112.1125
L110.6207 112.8071
" />
<path d="M110.2734 112.4598
L110.9681 112.4598
" />
<path d="M110.6207 117.3927
L110.6207 118.0873
" />
<path d="M110.2734 117.7400
L110.9681 117.7400
" />
<path d="M111.7143 10.5571
L111.7143 11.2517
" />
<path d="M111.3670 10.9044
L112.0616 10.9044
" />
<path d="M111.7143 114.7526
L111.7143 115.4472
" />
<path d="M111.3670 115.0999
L112.0616 115.0999
" />
<path d="M170.2374 10.5571
L170.2374 11.2517
" />
<path d="M169.8901 10.9044
L170.5848 10.9044
" />
<path d="M170.2374 114.7526
L170.2374 115.4472
" />
<path d="M169.8901 115.0999
L170.5848 115.0999
" />
<path d="M171.3310 7.9170
L171.3310 8.6116
" />
<path d="M170.9837 8.2643
L171.6783 8.2643
" />
<path d="M171.3310 13.1972
L171.3310 13.8918
" />
<path d="M170.9837 13.5445
L171.6783 13.5445
" />
<path d="M171.3310 112.1125
L171.3310 112.8071
" />
<path d="M170.9837 112.4598
L171.6783 112.4598
" />
<path d="M171.3310 117.3927
L171.3310 118.0873
" />
<path d="M170.9837 117.7400
L171.6783 117.7400
" />
<path d="M173.9711 6.8234
L173.9711 7.5181
" />
<path d="M173.6238 7.1707
L174.3184 7.1707
" />
<path d="M173.9711 14.2908
L173.9711 14.9854
" />
<path d="M173.6238 14.6381
L174.3184 14.6381
" />
<path d="M173.9711 111.0189
L173.9711 111.7136
" />
<path d="M173.6238 111.3662
L174.3184 111.3662
" />
<path d="M173.9711 118.4863
L173.9711 119.1809
" />
<path d="M173.6238 118.8336
L174.3184 118.8336
" />
<path d="M176.6112 7.9170
L176.6112 8.6116
" />
<path d="M176.2639 8.2643
L176.9585 8.2643
" />
<path d="M176.6112 13.1972
L176.6112 13.8918
" />
<path d="M176.2639 13.5445
L176.9585 13.5445
" />
<path d="M176.6112 112.1125
L176.6112 112.8071
" />
<path d="M176.2639 112.4598
L176.9585 112.4598
" />
<path d="M176.6112 117.3927
L176.6112 118.0873
" />
<path d="M176.2639 117.7400
L176.9585 117.7400
" />
<path d="M177.7048 10.5571
L177.7048 11.2517
" />
<path d="M177.3575 10.9044
L178.0521 10.9044
" />
<path d="M177.7048 114.7526
L177.7048 115.4472
" />
<path d="M177.3575 115.0999
L178.0521 115.0999
" />
<path style="fill:none; 
stroke:#000000; stroke-width:0.2547; stroke-opacity:1; 
stroke-linecap:round; stroke-linejoin:round;fill:none"
d="M 106.5657,21.0667
106.5657,19.2657
104.7647,19.2657
104.7647,21.0667
Z" /> 
<path style="fill:none; 
stroke:#000000; stroke-width:0.2547; stroke-opacity:1; 
stroke-linecap:round; stroke-linejoin:round;fill:none"
d="M 106.5657,106.7386
106.5657,104.9376
104.7647,104.9376
104.7647,106.7386
Z" /> 
<path style="fill:none; 
stroke:#000000; stroke-width:0.2547; stroke-opacity:1; 
stroke-linecap:round; stroke-linejoin:round;fill:none"
d="M 138.9821,11.8049
138.9821,10.0039
137.1810,10.0039
137.1810,11.8049
Z" /> 
<path style="fill:none; 
stroke:#000000; stroke-width:0.2547; stroke-opacity:1; 
stroke-linecap:round; stroke-linejoin:round;fill:none"
d="M 138.9821,116.0004
138.9821,114.1994
137.1810,114.1994
137.1810,116.0004
Z" /> 
<path style="fill:none; 
stroke:#000000; stroke-width:0.2547; stroke-opacity:1; 
stroke-linecap:round; stroke-linejoin:round;fill:none"
d="M 164.4521,11.8049
164.4521,10.0039
162.6511,10.0039
162.6511,11.8049
Z" /> 
<path style="fill:none; 
stroke:#000000; stroke-width:0.2547; stroke-opacity:1; 
stroke-linecap:round; stroke-linejoin:round;fill:none"
d="M 164.4521,116.0004
164.4521,114.1994
162.6511,114.1994
162.6511,116.0004
Z" /> 
<path style="fill:none; 
stroke:#000000; stroke-width:0.2547; stroke-opacity:1; 
stroke-linecap:round; stroke-linejoin:round;fill:none"
d="M 192.2375,11.8049
192.2375,10.0039
190.4365,10.0039
190.4365,11.8049
Z" /> 
<path style="fill:none; 
stroke:#000000; stroke-width:0.2547; stroke-opacity:1; 
stroke-linecap:round; stroke-linejoin:round;fill:none"
d="M 192.2375,116.0004
192.2375,114.1994
190.4365,114.1994
190.4365,116.0004
Z" /> 
<path style="fill:none; 
stroke:#000000; stroke-width:0.4978; stroke-opacity:1; 
stroke-linecap:round; stroke-linejoin:round;fill:none"
d="M 107.9806,13.3935
110.4697,10.9044
107.9806,8.4153
105.4915,10.9044
Z" /> 
<path style="fill:none; 
stroke:#000000; stroke-width:0.4978; stroke-opacity:1; 
stroke-linecap:round; stroke-linejoin:round;fill:none"
d="M 107.9806,117.5890
110.4697,115.0999
107.9806,112.6108
105.4915,115.0999
Z" /> 
<path style="fill:none; 
stroke:#000000; stroke-width:0.4978; stroke-opacity:1; 
stroke-linecap:round; stroke-linejoin:round;fill:none"
d="M 173.9711,13.3935
176.4602,10.9044
173.9711,8.4153
171.4820,10.9044
Z" /> 
<path style="fill:none; 
stroke:#000000; stroke-width:0.4978; stroke-opacity:1; 
stroke-linecap:round; stroke-linejoin:round;fill:none"
d="M 173.9711,117.5890
176.4602,115.0999
173.9711,112.6108
171.4820,115.0999
Z" /> 
</g>
<g style="fill:none; 
stroke:#000000; stroke-width:0.2000; stroke-opacity:1; 
stroke-linecap:round; stroke-linejoin:round;">
<text x="104.0762" y="124.2043"
textLength="14.8667" font-size="2.6667" lengthAdjust="spacingAndGlyphs"
text-anchor="start" opacity="0" stroke-opacity="0">Drill Map:</text>
<g class="stroked-text"><desc>Drill Map:</desc>
<path d="M104.6840 124.1192
L104.6840 122.1192
" />
<path d="M104.6840 122.1192
L105.1602 122.1192
" />
<path d="M105.1602 122.1192
L105.4459 122.2144
" />
<path d="M105.4459 122.2144
L105.6364 122.4049
" />
<path d="M105.6364 122.4049
L105.7316 122.5953
" />
<path d="M105.7316 122.5953
L105.8268 122.9763
" />
<path d="M105.8268 122.9763
L105.8268 123.2620
" />
<path d="M105.8268 123.2620
L105.7316 123.6430
" />
<path d="M105.7316 123.6430
L105.6364 123.8334
" />
<path d="M105.6364 123.8334
L105.4459 124.0239
" />
<path d="M105.4459 124.0239
L105.1602 124.1192
" />
<path d="M105.1602 124.1192
L104.6840 124.1192
" />
<path d="M106.6840 124.1192
L106.6840 122.7858
" />
<path d="M106.6840 123.1668
L106.7792 122.9763
" />
<path d="M106.7792 122.9763
L106.8745 122.8811
" />
<path d="M106.8745 122.8811
L107.0649 122.7858
" />
<path d="M107.0649 122.7858
L107.2554 122.7858
" />
<path d="M107.9221 124.1192
L107.9221 122.7858
" />
<path d="M107.9221 122.1192
L107.8268 122.2144
" />
<path d="M107.8268 122.2144
L107.9221 122.3096
" />
<path d="M107.9221 122.3096
L108.0173 122.2144
" />
<path d="M108.0173 122.2144
L107.9221 122.1192
" />
<path d="M107.9221 122.1192
L107.9221 122.3096
" />
<path d="M109.1602 124.1192
L108.9697 124.0239
" />
<path d="M108.9697 124.0239
L108.8745 123.8334
" />
<path d="M108.8745 123.8334
L108.8745 122.1192
" />
<path d="M110.2078 124.1192
L110.0173 124.0239
" />
<path d="M110.0173 124.0239
L109.9221 123.8334
" />
<path d="M109.9221 123.8334
L109.9221 122.1192
" />
<path d="M112.4935 124.1192
L112.4935 122.1192
" />
<path d="M112.4935 122.1192
L113.1602 123.5477
" />
<path d="M113.1602 123.5477
L113.8268 122.1192
" />
<path d="M113.8268 122.1192
L113.8268 124.1192
" />
<path d="M115.6364 124.1192
L115.6364 123.0715
" />
<path d="M115.6364 123.0715
L115.5411 122.8811
" />
<path d="M115.5411 122.8811
L115.3507 122.7858
" />
<path d="M115.3507 122.7858
L114.9697 122.7858
" />
<path d="M114.9697 122.7858
L114.7792 122.8811
" />
<path d="M115.6364 124.0239
L115.4459 124.1192
" />
<path d="M115.4459 124.1192
L114.9697 124.1192
" />
<path d="M114.9697 124.1192
L114.7792 124.0239
" />
<path d="M114.7792 124.0239
L114.6840 123.8334
" />
<path d="M114.6840 123.8334
L114.6840 123.6430
" />
<path d="M114.6840 123.6430
L114.7792 123.4525
" />
<path d="M114.7792 123.4525
L114.9697 123.3573
" />
<path d="M114.9697 123.3573
L115.4459 123.3573
" />
<path d="M115.4459 123.3573
L115.6364 123.2620
" />
<path d="M116.5887 122.7858
L116.5887 124.7858
" />
<path d="M116.5887 122.8811
L116.7792 122.7858
" />
<path d="M116.7792 122.7858
L117.1602 122.7858
" />
<path d="M117.1602 122.7858
L117.3507 122.8811
" />
<path d="M117.3507 122.8811
L117.4459 122.9763
" />
<path d="M117.4459 122.9763
L117.5411 123.1668
" />
<path d="M117.5411 123.1668
L117.5411 123.7382
" />
<path d="M117.5411 123.7382
L117.4459 123.9287
" />
<path d="M117.4459 123.9287
L117.3507 124.0239
" />
<path d="M117.3507 124.0239
L117.1602 124.1192
" />
<path d="M117.1602 124.1192
L116.7792 124.1192
" />
<path d="M116.7792 124.1192
L116.5887 124.0239
" />
<path d="M118.3983 123.9287
L118.4935 124.0239
" />
<path d="M118.4935 124.0239
L118.3983 124.1192
" />
<path d="M118.3983 124.1192
L118.3030 124.0239
" />
<path d="M118.3030 124.0239
L118.3983 123.9287
" />
<path d="M118.3983 123.9287
L118.3983 124.1192
" />
<path d="M118.3983 122.8811
L118.4935 122.9763
" />
<path d="M118.4935 122.9763
L118.3983 123.0715
" />
<path d="M118.3983 123.0715
L118.3030 122.9763
" />
<path d="M118.3030 122.9763
L118.3983 122.8811
" />
<path d="M118.3983 122.8811
L118.3983 123.0715
" />
</g></g>
<g style="fill:none; 
stroke:#000000; stroke-width:0.1158; stroke-opacity:1; 
stroke-linecap:round; stroke-linejoin:round;">
<path d="M101.6131 127.1728
L102.0762 127.6359
" />
<path d="M102.0762 127.1728
L101.6131 127.6359
" />
</g>
<g style="fill:none; 
stroke:#000000; stroke-width:0.2000; stroke-opacity:1; 
stroke-linecap:round; stroke-linejoin:round;">
<text x="104.0762" y="128.4043"
textLength="48.7714" font-size="2.6667" lengthAdjust="spacingAndGlyphs"
text-anchor="start" opacity="0" stroke-opacity="0">0.400mm / 0.0157" (29 holes)</text>
<g class="stroked-text"><desc>0.400mm / 0.0157" (29 holes)</desc>
<path d="M105.0649 126.3192
L105.2554 126.3192
" />
<path d="M105.2554 126.3192
L105.4459 126.4144
" />
<path d="M105.4459 126.4144
L105.5411 126.5096
" />
<path d="M105.5411 126.5096
L105.6364 126.7001
" />
<path d="M105.6364 126.7001
L105.7316 127.0811
" />
<path d="M105.7316 127.0811
L105.7316 127.5573
" />
<path d="M105.7316 127.5573
L105.6364 127.9382
" />
<path d="M105.6364 127.9382
L105.5411 128.1287
" />
<path d="M105.5411 128.1287
L105.4459 128.2239
" />
<path d="M105.4459 128.2239
L105.2554 128.3192
" />
<path d="M105.2554 128.3192
L105.0649 128.3192
" />
<path d="M105.0649 128.3192
L104.8745 128.2239
" />
<path d="M104.8745 128.2239
L104.7792 128.1287
" />
<path d="M104.7792 128.1287
L104.6840 127.9382
" />
<path d="M104.6840 127.9382
L104.5887 127.5573
" />
<path d="M104.5887 127.5573
L104.5887 127.0811
" />
<path d="M104.5887 127.0811
L104.6840 126.7001
" />
<path d="M104.6840 126.7001
L104.7792 126.5096
" />
<path d="M104.7792 126.5096
L104.8745 126.4144
" />
<path d="M104.8745 126.4144
L105.0649 126.3192
" />
<path d="M106.5887 128.1287
L106.6840 128.2239
" />
<path d="M106.6840 128.2239
L106.5887 128.3192
" />
<path d="M106.5887 128.3192
L106.4935 128.2239
" />
<path d="M106.4935 128.2239
L106.5887 128.1287
" />
<path d="M106.5887 128.1287
L106.5887 128.3192
" />
<path d="M108.3983 126.9858
L108.3983 128.3192
" />
<path d="M107.9221 126.2239
L107.4459 127.6525
" />
<path d="M107.4459 127.6525
L108.6840 127.6525
" />
<path d="M109.8268 126.3192
L110.0173 126.3192
" />
<path d="M110.0173 126.3192
L110.2078 126.4144
" />
<path d="M110.2078 126.4144
L110.3030 126.5096
" />
<path d="M110.3030 126.5096
L110.3983 126.7001
" />
<path d="M110.3983 126.7001
L110.4935 127.0811
" />
<path d="M110.4935 127.0811
L110.4935 127.5573
" />
<path d="M110.4935 127.5573
L110.3983 127.9382
" />
<path d="M110.3983 127.9382
L110.3030 128.1287
" />
<path d="M110.3030 128.1287
L110.2078 128.2239
" />
<path d="M110.2078 128.2239
L110.0173 128.3192
" />
<path d="M110.0173 128.3192
L109.8268 128.3192
" />
<path d="M109.8268 128.3192
L109.6364 128.2239
" />
<path d="M109.6364 128.2239
L109.5411 128.1287
" />
<path d="M109.5411 128.1287
L109.4459 127.9382
" />
<path d="M109.4459 127.9382
L109.3507 127.5573
" />
<path d="M109.3507 127.5573
L109.3507 127.0811
" />
<path d="M109.3507 127.0811
L109.4459 126.7001
" />
<path d="M109.4459 126.7001
L109.5411 126.5096
" />
<path d="M109.5411 126.5096
L109.6364 126.4144
" />
<path d="M109.6364 126.4144
L109.8268 126.3192
" />
<path d="M111.7316 126.3192
L111.9221 126.3192
" />
<path d="M111.9221 126.3192
L112.1126 126.4144
" />
<path d="M112.1126 126.4144
L112.2078 126.5096
" />
<path d="M112.2078 126.5096
L112.3030 126.7001
" />
<path d="M112.3030 126.7001
L112.3983 127.0811
" />
<path d="M112.3983 127.0811
L112.3983 127.5573
" />
<path d="M112.3983 127.5573
L112.3030 127.9382
" />
<path d="M112.3030 127.9382
L112.2078 128.1287
" />
<path d="M112.2078 128.1287
L112.1126 128.2239
" />
<path d="M112.1126 128.2239
L111.9221 128.3192
" />
<path d="M111.9221 128.3192
L111.7316 128.3192
" />
<path d="M111.7316 128.3192
L111.5411 128.2239
" />
<path d="M111.5411 128.2239
L111.4459 128.1287
" />
<path d="M111.4459 128.1287
L111.3507 127.9382
" />
<path d="M111.3507 127.9382
L111.2554 127.5573
" />
<path d="M111.2554 127.5573
L111.2554 127.0811
" />
<path d="M111.2554 127.0811
L111.3507 126.7001
" />
<path d="M111.3507 126.7001
L111.4459 126.5096
" />
<path d="M111.4459 126.5096
L111.5411 126.4144
" />
<path d="M111.5411 126.4144
L111.7316 126.3192
" />
<path d="M113.2554 128.3192
L113.2554 126.9858
" />
<path d="M113.2554 127.1763
L113.3507 127.0811
" />
<path d="M113.3507 127.0811
L113.5411 126.9858
" />
<path d="M113.5411 126.9858
L113.8268 126.9858
" />
<path d="M113.8268 126.9858
L114.0173 127.0811
" />
<path d="M114.0173 127.0811
L114.1126 127.2715
" />
<path d="M114.1126 127.2715
L114.1126 128.3192
" />
<path d="M114.1126 127.2715
L114.2078 127.0811
" />
<path d="M114.2078 127.0811
L114.3983 126.9858
" />
<path d="M114.3983 126.9858
L114.6840 126.9858
" />
<path d="M114.6840 126.9858
L114.8745 127.0811
" />
<path d="M114.8745 127.0811
L114.9697 127.2715
" />
<path d="M114.9697 127.2715
L114.9697 128.3192
" />
<path d="M115.9221 128.3192
L115.9221 126.9858
" />
<path d="M115.9221 127.1763
L116.0173 127.0811
" />
<path d="M116.0173 127.0811
L116.2078 126.9858
" />
<path d="M116.2078 126.9858
L116.4935 126.9858
" />
<path d="M116.4935 126.9858
L116.6840 127.0811
" />
<path d="M116.6840 127.0811
L116.7792 127.2715
" />
<path d="M116.7792 127.2715
L116.7792 128.3192
" />
<path d="M116.7792 127.2715
L116.8745 127.0811
" />
<path d="M116.8745 127.0811
L117.0649 126.9858
" />
<path d="M117.0649 126.9858
L117.3507 126.9858
" />
<path d="M117.3507 126.9858
L117.5411 127.0811
" />
<path d="M117.5411 127.0811
L117.6364 127.2715
" />
<path d="M117.6364 127.2715
L117.6364 128.3192
" />
<path d="M121.5411 126.2239
L119.8268 128.7953
" />
<path d="M124.1126 126.3192
L124.3030 126.3192
" />
<path d="M124.3030 126.3192
L124.4935 126.4144
" />
<path d="M124.4935 126.4144
L124.5887 126.5096
" />
<path d="M124.5887 126.5096
L124.6840 126.7001
" />
<path d="M124.6840 126.7001
L124.7792 127.0811
" />
<path d="M124.7792 127.0811
L124.7792 127.5573
" />
<path d="M124.7792 127.5573
L124.6840 127.9382
" />
<path d="M124.6840 127.9382
L124.5887 128.1287
" />
<path d="M124.5887 128.1287
L124.4935 128.2239
" />
<path d="M124.4935 128.2239
L124.3030 128.3192
" />
<path d="M124.3030 128.3192
L124.1126 128.3192
" />
<path d="M124.1126 128.3192
L123.9221 128.2239
" />
<path d="M123.9221 128.2239
L123.8268 128.1287
" />
<path d="M123.8268 128.1287
L123.7316 127.9382
" />
<path d="M123.7316 127.9382
L123.6364 127.5573
" />
<path d="M123.6364 127.5573
L123.6364 127.0811
" />
<path d="M123.6364 127.0811
L123.7316 126.7001
" />
<path d="M123.7316 126.7001
L123.8268 126.5096
" />
<path d="M123.8268 126.5096
L123.9221 126.4144
" />
<path d="M123.9221 126.4144
L124.1126 126.3192
" />
<path d="M125.6364 128.1287
L125.7316 128.2239
" />
<path d="M125.7316 128.2239
L125.6364 128.3192
" />
<path d="M125.6364 128.3192
L125.5411 128.2239
" />
<path d="M125.5411 128.2239
L125.6364 128.1287
" />
<path d="M125.6364 128.1287
L125.6364 128.3192
" />
<path d="M126.9697 126.3192
L127.1602 126.3192
" />
<path d="M127.1602 126.3192
L127.3507 126.4144
" />
<path d="M127.3507 126.4144
L127.4459 126.5096
" />
<path d="M127.4459 126.5096
L127.5411 126.7001
" />
<path d="M127.5411 126.7001
L127.6364 127.0811
" />
<path d="M127.6364 127.0811
L127.6364 127.5573
" />
<path d="M127.6364 127.5573
L127.5411 127.9382
" />
<path d="M127.5411 127.9382
L127.4459 128.1287
" />
<path d="M127.4459 128.1287
L127.3507 128.2239
" />
<path d="M127.3507 128.2239
L127.1602 128.3192
" />
<path d="M127.1602 128.3192
L126.9697 128.3192
" />
<path d="M126.9697 128.3192
L126.7792 128.2239
" />
<path d="M126.7792 128.2239
L126.6840 128.1287
" />
<path d="M126.6840 128.1287
L126.5887 127.9382
" />
<path d="M126.5887 127.9382
L126.4935 127.5573
" />
<path d="M126.4935 127.5573
L126.4935 127.0811
" />
<path d="M126.4935 127.0811
L126.5887 126.7001
" />
<path d="M126.5887 126.7001
L126.6840 126.5096
" />
<path d="M126.6840 126.5096
L126.7792 126.4144
" />
<path d="M126.7792 126.4144
L126.9697 126.3192
" />
<path d="M129.5411 128.3192
L128.3983 128.3192
" />
<path d="M128.9697 128.3192
L128.9697 126.3192
" />
<path d="M128.9697 126.3192
L128.7792 126.6049
" />
<path d="M128.7792 126.6049
L128.5887 126.7953
" />
<path d="M128.5887 126.7953
L128.3983 126.8906
" />
<path d="M131.3507 126.3192
L130.3983 126.3192
" />
<path d="M130.3983 126.3192
L130.3030 127.2715
" />
<path d="M130.3030 127.2715
L130.3983 127.1763
" />
<path d="M130.3983 127.1763
L130.5888 127.0811
" />
<path d="M130.5888 127.0811
L131.0649 127.0811
" />
<path d="M131.0649 127.0811
L131.2554 127.1763
" />
<path d="M131.2554 127.1763
L131.3507 127.2715
" />
<path d="M131.3507 127.2715
L131.4459 127.4620
" />
<path d="M131.4459 127.4620
L131.4459 127.9382
" />
<path d="M131.4459 127.9382
L131.3507 128.1287
" />
<path d="M131.3507 128.1287
L131.2554 128.2239
" />
<path d="M131.2554 128.2239
L131.0649 128.3192
" />
<path d="M131.0649 128.3192
L130.5888 128.3192
" />
<path d="M130.5888 128.3192
L130.3983 128.2239
" />
<path d="M130.3983 128.2239
L130.3030 128.1287
" />
<path d="M132.1126 126.3192
L133.4459 126.3192
" />
<path d="M133.4459 126.3192
L132.5888 128.3192
" />
<path d="M134.1126 126.3192
L134.1126 126.7001
" />
<path d="M134.8745 126.3192
L134.8745 126.7001
" />
<path d="M137.8268 129.0811
L137.7316 128.9858
" />
<path d="M137.7316 128.9858
L137.5411 128.7001
" />
<path d="M137.5411 128.7001
L137.4459 128.5096
" />
<path d="M137.4459 128.5096
L137.3507 128.2239
" />
<path d="M137.3507 128.2239
L137.2554 127.7477
" />
<path d="M137.2554 127.7477
L137.2554 127.3668
" />
<path d="M137.2554 127.3668
L137.3507 126.8906
" />
<path d="M137.3507 126.8906
L137.4459 126.6049
" />
<path d="M137.4459 126.6049
L137.5411 126.4144
" />
<path d="M137.5411 126.4144
L137.7316 126.1287
" />
<path d="M137.7316 126.1287
L137.8268 126.0334
" />
<path d="M138.4935 126.5096
L138.5887 126.4144
" />
<path d="M138.5887 126.4144
L138.7792 126.3192
" />
<path d="M138.7792 126.3192
L139.2554 126.3192
" />
<path d="M139.2554 126.3192
L139.4459 126.4144
" />
<path d="M139.4459 126.4144
L139.5411 126.5096
" />
<path d="M139.5411 126.5096
L139.6364 126.7001
" />
<path d="M139.6364 126.7001
L139.6364 126.8906
" />
<path d="M139.6364 126.8906
L139.5411 127.1763
" />
<path d="M139.5411 127.1763
L138.3983 128.3192
" />
<path d="M138.3983 128.3192
L139.6364 128.3192
" />
<path d="M140.5887 128.3192
L140.9697 128.3192
" />
<path d="M140.9697 128.3192
L141.1602 128.2239
" />
<path d="M141.1602 128.2239
L141.2554 128.1287
" />
<path d="M141.2554 128.1287
L141.4459 127.8430
" />
<path d="M141.4459 127.8430
L141.5411 127.4620
" />
<path d="M141.5411 127.4620
L141.5411 126.7001
" />
<path d="M141.5411 126.7001
L141.4459 126.5096
" />
<path d="M141.4459 126.5096
L141.3507 126.4144
" />
<path d="M141.3507 126.4144
L141.1602 126.3192
" />
<path d="M141.1602 126.3192
L140.7792 126.3192
" />
<path d="M140.7792 126.3192
L140.5887 126.4144
" />
<path d="M140.5887 126.4144
L140.4935 126.5096
" />
<path d="M140.4935 126.5096
L140.3983 126.7001
" />
<path d="M140.3983 126.7001
L140.3983 127.1763
" />
<path d="M140.3983 127.1763
L140.4935 127.3668
" />
<path d="M140.4935 127.3668
L140.5887 127.4620
" />
<path d="M140.5887 127.4620
L140.7792 127.5573
" />
<path d="M140.7792 127.5573
L141.1602 127.5573
" />
<path d="M141.1602 127.5573
L141.3507 127.4620
" />
<path d="M141.3507 127.4620
L141.4459 127.3668
" />
<path d="M141.4459 127.3668
L141.5411 127.1763
" />
<path d="M143.9221 128.3192
L143.9221 126.3192
" />
<path d="M144.7792 128.3192
L144.7792 127.2715
" />
<path d="M144.7792 127.2715
L144.6840 127.0811
" />
<path d="M144.6840 127.0811
L144.4935 126.9858
" />
<path d="M144.4935 126.9858
L144.2078 126.9858
" />
<path d="M144.2078 126.9858
L144.0173 127.0811
" />
<path d="M144.0173 127.0811
L143.9221 127.1763
" />
<path d="M146.0173 128.3192
L145.8268 128.2239
" />
<path d="M145.8268 128.2239
L145.7316 128.1287
" />
<path d="M145.7316 128.1287
L145.6364 127.9382
" />
<path d="M145.6364 127.9382
L145.6364 127.3668
" />
<path d="M145.6364 127.3668
L145.7316 127.1763
" />
<path d="M145.7316 127.1763
L145.8268 127.0811
" />
<path d="M145.8268 127.0811
L146.0173 126.9858
" />
<path d="M146.0173 126.9858
L146.3030 126.9858
" />
<path d="M146.3030 126.9858
L146.4935 127.0811
" />
<path d="M146.4935 127.0811
L146.5888 127.1763
" />
<path d="M146.5888 127.1763
L146.6840 127.3668
" />
<path d="M146.6840 127.3668
L146.6840 127.9382
" />
<path d="M146.6840 127.9382
L146.5888 128.1287
" />
<path d="M146.5888 128.1287
L146.4935 128.2239
" />
<path d="M146.4935 128.2239
L146.3030 128.3192
" />
<path d="M146.3030 128.3192
L146.0173 128.3192
" />
<path d="M147.8268 128.3192
L147.6364 128.2239
" />
<path d="M147.6364 128.2239
L147.5411 128.0334
" />
<path d="M147.5411 128.0334
L147.5411 126.3192
" />
<path d="M149.3507 128.2239
L149.1602 128.3192
" />
<path d="M149.1602 128.3192
L148.7792 128.3192
" />
<path d="M148.7792 128.3192
L148.5887 128.2239
" />
<path d="M148.5887 128.2239
L148.4935 128.0334
" />
<path d="M148.4935 128.0334
L148.4935 127.2715
" />
<path d="M148.4935 127.2715
L148.5887 127.0811
" />
<path d="M148.5887 127.0811
L148.7792 126.9858
" />
<path d="M148.7792 126.9858
L149.1602 126.9858
" />
<path d="M149.1602 126.9858
L149.3507 127.0811
" />
<path d="M149.3507 127.0811
L149.4459 127.2715
" />
<path d="M149.4459 127.2715
L149.4459 127.4620
" />
<path d="M149.4459 127.4620
L148.4935 127.6525
" />
<path d="M150.2078 128.2239
L150.3983 128.3192
" />
<path d="M150.3983 128.3192
L150.7792 128.3192
" />
<path d="M150.7792 128.3192
L150.9697 128.2239
" />
<path d="M150.9697 128.2239
L151.0649 128.0334
" />
<path d="M151.0649 128.0334
L151.0649 127.9382
" />
<path d="M151.0649 127.9382
L150.9697 127.7477
" />
<path d="M150.9697 127.7477
L150.7792 127.6525
" />
<path d="M150.7792 127.6525
L150.4935 127.6525
" />
<path d="M150.4935 127.6525
L150.3030 127.5573
" />
<path d="M150.3030 127.5573
L150.2078 127.3668
" />
<path d="M150.2078 127.3668
L150.2078 127.2715
" />
<path d="M150.2078 127.2715
L150.3030 127.0811
" />
<path d="M150.3030 127.0811
L150.4935 126.9858
" />
<path d="M150.4935 126.9858
L150.7792 126.9858
" />
<path d="M150.7792 126.9858
L150.9697 127.0811
" />
<path d="M151.7316 129.0811
L151.8268 128.9858
" />
<path d="M151.8268 128.9858
L152.0173 128.7001
" />
<path d="M152.0173 128.7001
L152.1126 128.5096
" />
<path d="M152.1126 128.5096
L152.2078 128.2239
" />
<path d="M152.2078 128.2239
L152.3030 127.7477
" />
<path d="M152.3030 127.7477
L152.3030 127.3668
" />
<path d="M152.3030 127.3668
L152.2078 126.8906
" />
<path d="M152.2078 126.8906
L152.1126 126.6049
" />
<path d="M152.1126 126.6049
L152.0173 126.4144
" />
<path d="M152.0173 126.4144
L151.8268 126.1287
" />
<path d="M151.8268 126.1287
L151.7316 126.0334
" />
</g></g>
<g style="fill:none; 
stroke:#000000; stroke-width:0.1158; stroke-opacity:1; 
stroke-linecap:round; stroke-linejoin:round;">
<circle cx="101.8447" cy="130.0443" r="0.2315" /> 
</g>
<g style="fill:none; 
stroke:#000000; stroke-width:0.2000; stroke-opacity:1; 
stroke-linecap:round; stroke-linejoin:round;">
<text x="104.0762" y="131.0443"
textLength="48.7714" font-size="2.6667" lengthAdjust="spacingAndGlyphs"
text-anchor="start" opacity="0" stroke-opacity="0">0.400mm / 0.0157" (64 holes)</text>
<g class="stroked-text"><desc>0.400mm / 0.0157" (64 holes)</desc>
<path d="M105.0649 128.9592
L105.2554 128.9592
" />
<path d="M105.2554 128.9592
L105.4459 129.0544
" />
<path d="M105.4459 129.0544
L105.5411 129.1496
" />
<path d="M105.5411 129.1496
L105.6364 129.3401
" />
<path d="M105.6364 129.3401
L105.7316 129.7211
" />
<path d="M105.7316 129.7211
L105.7316 130.1973
" />
<path d="M105.7316 130.1973
L105.6364 130.5782
" />
<path d="M105.6364 130.5782
L105.5411 130.7687
" />
<path d="M105.5411 130.7687
L105.4459 130.8639
" />
<path d="M105.4459 130.8639
L105.2554 130.9592
" />
<path d="M105.2554 130.9592
L105.0649 130.9592
" />
<path d="M105.0649 130.9592
L104.8745 130.8639
" />
<path d="M104.8745 130.8639
L104.7792 130.7687
" />
<path d="M104.7792 130.7687
L104.6840 130.5782
" />
<path d="M104.6840 130.5782
L104.5887 130.1973
" />
<path d="M104.5887 130.1973
L104.5887 129.7211
" />
<path d="M104.5887 129.7211
L104.6840 129.3401
" />
<path d="M104.6840 129.3401
L104.7792 129.1496
" />
<path d="M104.7792 129.1496
L104.8745 129.0544
" />
<path d="M104.8745 129.0544
L105.0649 128.9592
" />
<path d="M106.5887 130.7687
L106.6840 130.8639
" />
<path d="M106.6840 130.8639
L106.5887 130.9592
" />
<path d="M106.5887 130.9592
L106.4935 130.8639
" />
<path d="M106.4935 130.8639
L106.5887 130.7687
" />
<path d="M106.5887 130.7687
L106.5887 130.9592
" />
<path d="M108.3983 129.6258
L108.3983 130.9592
" />
<path d="M107.9221 128.8639
L107.4459 130.2925
" />
<path d="M107.4459 130.2925
L108.6840 130.2925
" />
<path d="M109.8268 128.9592
L110.0173 128.9592
" />
<path d="M110.0173 128.9592
L110.2078 129.0544
" />
<path d="M110.2078 129.0544
L110.3030 129.1496
" />
<path d="M110.3030 129.1496
L110.3983 129.3401
" />
<path d="M110.3983 129.3401
L110.4935 129.7211
" />
<path d="M110.4935 129.7211
L110.4935 130.1973
" />
<path d="M110.4935 130.1973
L110.3983 130.5782
" />
<path d="M110.3983 130.5782
L110.3030 130.7687
" />
<path d="M110.3030 130.7687
L110.2078 130.8639
" />
<path d="M110.2078 130.8639
L110.0173 130.9592
" />
<path d="M110.0173 130.9592
L109.8268 130.9592
" />
<path d="M109.8268 130.9592
L109.6364 130.8639
" />
<path d="M109.6364 130.8639
L109.5411 130.7687
" />
<path d="M109.5411 130.7687
L109.4459 130.5782
" />
<path d="M109.4459 130.5782
L109.3507 130.1973
" />
<path d="M109.3507 130.1973
L109.3507 129.7211
" />
<path d="M109.3507 129.7211
L109.4459 129.3401
" />
<path d="M109.4459 129.3401
L109.5411 129.1496
" />
<path d="M109.5411 129.1496
L109.6364 129.0544
" />
<path d="M109.6364 129.0544
L109.8268 128.9592
" />
<path d="M111.7316 128.9592
L111.9221 128.9592
" />
<path d="M111.9221 128.9592
L112.1126 129.0544
" />
<path d="M112.1126 129.0544
L112.2078 129.1496
" />
<path d="M112.2078 129.1496
L112.3030 129.3401
" />
<path d="M112.3030 129.3401
L112.3983 129.7211
" />
<path d="M112.3983 129.7211
L112.3983 130.1973
" />
<path d="M112.3983 130.1973
L112.3030 130.5782
" />
<path d="M112.3030 130.5782
L112.2078 130.7687
" />
<path d="M112.2078 130.7687
L112.1126 130.8639
" />
<path d="M112.1126 130.8639
L111.9221 130.9592
" />
<path d="M111.9221 130.9592
L111.7316 130.9592
" />
<path d="M111.7316 130.9592
L111.5411 130.8639
" />
<path d="M111.5411 130.8639
L111.4459 130.7687
" />
<path d="M111.4459 130.7687
L111.3507 130.5782
" />
<path d="M111.3507 130.5782
L111.2554 130.1973
" />
<path d="M111.2554 130.1973
L111.2554 129.7211
" />
<path d="M111.2554 129.7211
L111.3507 129.3401
" />
<path d="M111.3507 129.3401
L111.4459 129.1496
" />
<path d="M111.4459 129.1496
L111.5411 129.0544
" />
<path d="M111.5411 129.0544
L111.7316 128.9592
" />
<path d="M113.2554 130.9592
L113.2554 129.6258
" />
<path d="M113.2554 129.8163
L113.3507 129.7211
" />
<path d="M113.3507 129.7211
L113.5411 129.6258
" />
<path d="M113.5411 129.6258
L113.8268 129.6258
" />
<path d="M113.8268 129.6258
L114.0173 129.7211
" />
<path d="M114.0173 129.7211
L114.1126 129.9115
" />
<path d="M114.1126 129.9115
L114.1126 130.9592
" />
<path d="M114.1126 129.9115
L114.2078 129.7211
" />
<path d="M114.2078 129.7211
L114.3983 129.6258
" />
<path d="M114.3983 129.6258
L114.6840 129.6258
" />
<path d="M114.6840 129.6258
L114.8745 129.7211
" />
<path d="M114.8745 129.7211
L114.9697 129.9115
" />
<path d="M114.9697 129.9115
L114.9697 130.9592
" />
<path d="M115.9221 130.9592
L115.9221 129.6258
" />
<path d="M115.9221 129.8163
L116.0173 129.7211
" />
<path d="M116.0173 129.7211
L116.2078 129.6258
" />
<path d="M116.2078 129.6258
L116.4935 129.6258
" />
<path d="M116.4935 129.6258
L116.6840 129.7211
" />
<path d="M116.6840 129.7211
L116.7792 129.9115
" />
<path d="M116.7792 129.9115
L116.7792 130.9592
" />
<path d="M116.7792 129.9115
L116.8745 129.7211
" />
<path d="M116.8745 129.7211
L117.0649 129.6258
" />
<path d="M117.0649 129.6258
L117.3507 129.6258
" />
<path d="M117.3507 129.6258
L117.5411 129.7211
" />
<path d="M117.5411 129.7211
L117.6364 129.9115
" />
<path d="M117.6364 129.9115
L117.6364 130.9592
" />
<path d="M121.5411 128.8639
L119.8268 131.4353
" />
<path d="M124.1126 128.9592
L124.3030 128.9592
" />
<path d="M124.3030 128.9592
L124.4935 129.0544
" />
<path d="M124.4935 129.0544
L124.5887 129.1496
" />
<path d="M124.5887 129.1496
L124.6840 129.3401
" />
<path d="M124.6840 129.3401
L124.7792 129.7211
" />
<path d="M124.7792 129.7211
L124.7792 130.1973
" />
<path d="M124.7792 130.1973
L124.6840 130.5782
" />
<path d="M124.6840 130.5782
L124.5887 130.7687
" />
<path d="M124.5887 130.7687
L124.4935 130.8639
" />
<path d="M124.4935 130.8639
L124.3030 130.9592
" />
<path d="M124.3030 130.9592
L124.1126 130.9592
" />
<path d="M124.1126 130.9592
L123.9221 130.8639
" />
<path d="M123.9221 130.8639
L123.8268 130.7687
" />
<path d="M123.8268 130.7687
L123.7316 130.5782
" />
<path d="M123.7316 130.5782
L123.6364 130.1973
" />
<path d="M123.6364 130.1973
L123.6364 129.7211
" />
<path d="M123.6364 129.7211
L123.7316 129.3401
" />
<path d="M123.7316 129.3401
L123.8268 129.1496
" />
<path d="M123.8268 129.1496
L123.9221 129.0544
" />
<path d="M123.9221 129.0544
L124.1126 128.9592
" />
<path d="M125.6364 130.7687
L125.7316 130.8639
" />
<path d="M125.7316 130.8639
L125.6364 130.9592
" />
<path d="M125.6364 130.9592
L125.5411 130.8639
" />
<path d="M125.5411 130.8639
L125.6364 130.7687
" />
<path d="M125.6364 130.7687
L125.6364 130.9592
" />
<path d="M126.9697 128.9592
L127.1602 128.9592
" />
<path d="M127.1602 128.9592
L127.3507 129.0544
" />
<path d="M127.3507 129.0544
L127.4459 129.1496
" />
<path d="M127.4459 129.1496
L127.5411 129.3401
" />
<path d="M127.5411 129.3401
L127.6364 129.7211
" />
<path d="M127.6364 129.7211
L127.6364 130.1973
" />
<path d="M127.6364 130.1973
L127.5411 130.5782
" />
<path d="M127.5411 130.5782
L127.4459 130.7687
" />
<path d="M127.4459 130.7687
L127.3507 130.8639
" />
<path d="M127.3507 130.8639
L127.1602 130.9592
" />
<path d="M127.1602 130.9592
L126.9697 130.9592
" />
<path d="M126.9697 130.9592
L126.7792 130.8639
" />
<path d="M126.7792 130.8639
L126.6840 130.7687
" />
<path d="M126.6840 130.7687
L126.5887 130.5782
" />
<path d="M126.5887 130.5782
L126.4935 130.1973
" />
<path d="M126.4935 130.1973
L126.4935 129.7211
" />
<path d="M126.4935 129.7211
L126.5887 129.3401
" />
<path d="M126.5887 129.3401
L126.6840 129.1496
" />
<path d="M126.6840 129.1496
L126.7792 129.0544
" />
<path d="M126.7792 129.0544
L126.9697 128.9592
" />
<path d="M129.5411 130.9592
L128.3983 130.9592
" />
<path d="M128.9697 130.9592
L128.9697 128.9592
" />
<path d="M128.9697 128.9592
L128.7792 129.2449
" />
<path d="M128.7792 129.2449
L128.5887 129.4353
" />
<path d="M128.5887 129.4353
L128.3983 129.5306
" />
<path d="M131.3507 128.9592
L130.3983 128.9592
" />
<path d="M130.3983 128.9592
L130.3030 129.9115
" />
<path d="M130.3030 129.9115
L130.3983 129.8163
" />
<path d="M130.3983 129.8163
L130.5888 129.7211
" />
<path d="M130.5888 129.7211
L131.0649 129.7211
" />
<path d="M131.0649 129.7211
L131.2554 129.8163
" />
<path d="M131.2554 129.8163
L131.3507 129.9115
" />
<path d="M131.3507 129.9115
L131.4459 130.1020
" />
<path d="M131.4459 130.1020
L131.4459 130.5782
" />
<path d="M131.4459 130.5782
L131.3507 130.7687
" />
<path d="M131.3507 130.7687
L131.2554 130.8639
" />
<path d="M131.2554 130.8639
L131.0649 130.9592
" />
<path d="M131.0649 130.9592
L130.5888 130.9592
" />
<path d="M130.5888 130.9592
L130.3983 130.8639
" />
<path d="M130.3983 130.8639
L130.3030 130.7687
" />
<path d="M132.1126 128.9592
L133.4459 128.9592
" />
<path d="M133.4459 128.9592
L132.5888 130.9592
" />
<path d="M134.1126 128.9592
L134.1126 129.3401
" />
<path d="M134.8745 128.9592
L134.8745 129.3401
" />
<path d="M137.8268 131.7211
L137.7316 131.6258
" />
<path d="M137.7316 131.6258
L137.5411 131.3401
" />
<path d="M137.5411 131.3401
L137.4459 131.1496
" />
<path d="M137.4459 131.1496
L137.3507 130.8639
" />
<path d="M137.3507 130.8639
L137.2554 130.3877
" />
<path d="M137.2554 130.3877
L137.2554 130.0068
" />
<path d="M137.2554 130.0068
L137.3507 129.5306
" />
<path d="M137.3507 129.5306
L137.4459 129.2449
" />
<path d="M137.4459 129.2449
L137.5411 129.0544
" />
<path d="M137.5411 129.0544
L137.7316 128.7687
" />
<path d="M137.7316 128.7687
L137.8268 128.6734
" />
<path d="M139.4459 128.9592
L139.0649 128.9592
" />
<path d="M139.0649 128.9592
L138.8745 129.0544
" />
<path d="M138.8745 129.0544
L138.7792 129.1496
" />
<path d="M138.7792 129.1496
L138.5887 129.4353
" />
<path d="M138.5887 129.4353
L138.4935 129.8163
" />
<path d="M138.4935 129.8163
L138.4935 130.5782
" />
<path d="M138.4935 130.5782
L138.5887 130.7687
" />
<path d="M138.5887 130.7687
L138.6840 130.8639
" />
<path d="M138.6840 130.8639
L138.8745 130.9592
" />
<path d="M138.8745 130.9592
L139.2554 130.9592
" />
<path d="M139.2554 130.9592
L139.4459 130.8639
" />
<path d="M139.4459 130.8639
L139.5411 130.7687
" />
<path d="M139.5411 130.7687
L139.6364 130.5782
" />
<path d="M139.6364 130.5782
L139.6364 130.1020
" />
<path d="M139.6364 130.1020
L139.5411 129.9115
" />
<path d="M139.5411 129.9115
L139.4459 129.8163
" />
<path d="M139.4459 129.8163
L139.2554 129.7211
" />
<path d="M139.2554 129.7211
L138.8745 129.7211
" />
<path d="M138.8745 129.7211
L138.6840 129.8163
" />
<path d="M138.6840 129.8163
L138.5887 129.9115
" />
<path d="M138.5887 129.9115
L138.4935 130.1020
" />
<path d="M141.3507 129.6258
L141.3507 130.9592
" />
<path d="M140.8745 128.8639
L140.3983 130.2925
" />
<path d="M140.3983 130.2925
L141.6364 130.2925
" />
<path d="M143.9221 130.9592
L143.9221 128.9592
" />
<path d="M144.7792 130.9592
L144.7792 129.9115
" />
<path d="M144.7792 129.9115
L144.6840 129.7211
" />
<path d="M144.6840 129.7211
L144.4935 129.6258
" />
<path d="M144.4935 129.6258
L144.2078 129.6258
" />
<path d="M144.2078 129.6258
L144.0173 129.7211
" />
<path d="M144.0173 129.7211
L143.9221 129.8163
" />
<path d="M146.0173 130.9592
L145.8268 130.8639
" />
<path d="M145.8268 130.8639
L145.7316 130.7687
" />
<path d="M145.7316 130.7687
L145.6364 130.5782
" />
<path d="M145.6364 130.5782
L145.6364 130.0068
" />
<path d="M145.6364 130.0068
L145.7316 129.8163
" />
<path d="M145.7316 129.8163
L145.8268 129.7211
" />
<path d="M145.8268 129.7211
L146.0173 129.6258
" />
<path d="M146.0173 129.6258
L146.3030 129.6258
" />
<path d="M146.3030 129.6258
L146.4935 129.7211
" />
<path d="M146.4935 129.7211
L146.5888 129.8163
" />
<path d="M146.5888 129.8163
L146.6840 130.0068
" />
<path d="M146.6840 130.0068
L146.6840 130.5782
" />
<path d="M146.6840 130.5782
L146.5888 130.7687
" />
<path d="M146.5888 130.7687
L146.4935 130.8639
" />
<path d="M146.4935 130.8639
L146.3030 130.9592
" />
<path d="M146.3030 130.9592
L146.0173 130.9592
" />
<path d="M147.8268 130.9592
L147.6364 130.8639
" />
<path d="M147.6364 130.8639
L147.5411 130.6734
" />
<path d="M147.5411 130.6734
L147.5411 128.9592
" />
<path d="M149.3507 130.8639
L149.1602 130.9592
" />
<path d="M149.1602 130.9592
L148.7792 130.9592
" />
<path d="M148.7792 130.9592
L148.5887 130.8639
" />
<path d="M148.5887 130.8639
L148.4935 130.6734
" />
<path d="M148.4935 130.6734
L148.4935 129.9115
" />
<path d="M148.4935 129.9115
L148.5887 129.7211
" />
<path d="M148.5887 129.7211
L148.7792 129.6258
" />
<path d="M148.7792 129.6258
L149.1602 129.6258
" />
<path d="M149.1602 129.6258
L149.3507 129.7211
" />
<path d="M149.3507 129.7211
L149.4459 129.9115
" />
<path d="M149.4459 129.9115
L149.4459 130.1020
" />
<path d="M149.4459 130.1020
L148.4935 130.2925
" />
<path d="M150.2078 130.8639
L150.3983 130.9592
" />
<path d="M150.3983 130.9592
L150.7792 130.9592
" />
<path d="M150.7792 130.9592
L150.9697 130.8639
" />
<path d="M150.9697 130.8639
L151.0649 130.6734
" />
<path d="M151.0649 130.6734
L151.0649 130.5782
" />
<path d="M151.0649 130.5782
L150.9697 130.3877
" />
<path d="M150.9697 130.3877
L150.7792 130.2925
" />
<path d="M150.7792 130.2925
L150.4935 130.2925
" />
<path d="M150.4935 130.2925
L150.3030 130.1973
" />
<path d="M150.3030 130.1973
L150.2078 130.0068
" />
<path d="M150.2078 130.0068
L150.2078 129.9115
" />
<path d="M150.2078 129.9115
L150.3030 129.7211
" />
<path d="M150.3030 129.7211
L150.4935 129.6258
" />
<path d="M150.4935 129.6258
L150.7792 129.6258
" />
<path d="M150.7792 129.6258
L150.9697 129.7211
" />
<path d="M151.7316 131.7211
L151.8268 131.6258
" />
<path d="M151.8268 131.6258
L152.0173 131.3401
" />
<path d="M152.0173 131.3401
L152.1126 131.1496
" />
<path d="M152.1126 131.1496
L152.2078 130.8639
" />
<path d="M152.2078 130.8639
L152.3030 130.3877
" />
<path d="M152.3030 130.3877
L152.3030 130.0068
" />
<path d="M152.3030 130.0068
L152.2078 129.5306
" />
<path d="M152.2078 129.5306
L152.1126 129.2449
" />
<path d="M152.1126 129.2449
L152.0173 129.0544
" />
<path d="M152.0173 129.0544
L151.8268 128.7687
" />
<path d="M151.8268 128.7687
L151.7316 128.6734
" />
</g></g>
<g style="fill:none; 
stroke:#000000; stroke-width:0.1158; stroke-opacity:1; 
stroke-linecap:round; stroke-linejoin:round;">
<path d="M101.7289 132.3370
L101.7289 133.0316
" />
<path d="M101.3816 132.6843
L102.0762 132.6843
" />
</g>
<g style="fill:none; 
stroke:#000000; stroke-width:0.2000; stroke-opacity:1; 
stroke-linecap:round; stroke-linejoin:round;">
<text x="104.0762" y="133.6843"
textLength="48.7714" font-size="2.6667" lengthAdjust="spacingAndGlyphs"
text-anchor="start" opacity="0" stroke-opacity="0">0.600mm / 0.0236" (32 holes)</text>
<g class="stroked-text"><desc>0.600mm / 0.0236" (32 holes)</desc>
<path d="M105.0649 131.5992
L105.2554 131.5992
" />
<path d="M105.2554 131.5992
L105.4459 131.6944
" />
<path d="M105.4459 131.6944
L105.5411 131.7896
" />
<path d="M105.5411 131.7896
L105.6364 131.9801
" />
<path d="M105.6364 131.9801
L105.7316 132.3611
" />
<path d="M105.7316 132.3611
L105.7316 132.8373
" />
<path d="M105.7316 132.8373
L105.6364 133.2182
" />
<path d="M105.6364 133.2182
L105.5411 133.4087
" />
<path d="M105.5411 133.4087
L105.4459 133.5039
" />
<path d="M105.4459 133.5039
L105.2554 133.5992
" />
<path d="M105.2554 133.5992
L105.0649 133.5992
" />
<path d="M105.0649 133.5992
L104.8745 133.5039
" />
<path d="M104.8745 133.5039
L104.7792 133.4087
" />
<path d="M104.7792 133.4087
L104.6840 133.2182
" />
<path d="M104.6840 133.2182
L104.5887 132.8373
" />
<path d="M104.5887 132.8373
L104.5887 132.3611
" />
<path d="M104.5887 132.3611
L104.6840 131.9801
" />
<path d="M104.6840 131.9801
L104.7792 131.7896
" />
<path d="M104.7792 131.7896
L104.8745 131.6944
" />
<path d="M104.8745 131.6944
L105.0649 131.5992
" />
<path d="M106.5887 133.4087
L106.6840 133.5039
" />
<path d="M106.6840 133.5039
L106.5887 133.5992
" />
<path d="M106.5887 133.5992
L106.4935 133.5039
" />
<path d="M106.4935 133.5039
L106.5887 133.4087
" />
<path d="M106.5887 133.4087
L106.5887 133.5992
" />
<path d="M108.3983 131.5992
L108.0173 131.5992
" />
<path d="M108.0173 131.5992
L107.8268 131.6944
" />
<path d="M107.8268 131.6944
L107.7316 131.7896
" />
<path d="M107.7316 131.7896
L107.5411 132.0753
" />
<path d="M107.5411 132.0753
L107.4459 132.4563
" />
<path d="M107.4459 132.4563
L107.4459 133.2182
" />
<path d="M107.4459 133.2182
L107.5411 133.4087
" />
<path d="M107.5411 133.4087
L107.6364 133.5039
" />
<path d="M107.6364 133.5039
L107.8268 133.5992
" />
<path d="M107.8268 133.5992
L108.2078 133.5992
" />
<path d="M108.2078 133.5992
L108.3983 133.5039
" />
<path d="M108.3983 133.5039
L108.4935 133.4087
" />
<path d="M108.4935 133.4087
L108.5887 133.2182
" />
<path d="M108.5887 133.2182
L108.5887 132.7420
" />
<path d="M108.5887 132.7420
L108.4935 132.5515
" />
<path d="M108.4935 132.5515
L108.3983 132.4563
" />
<path d="M108.3983 132.4563
L108.2078 132.3611
" />
<path d="M108.2078 132.3611
L107.8268 132.3611
" />
<path d="M107.8268 132.3611
L107.6364 132.4563
" />
<path d="M107.6364 132.4563
L107.5411 132.5515
" />
<path d="M107.5411 132.5515
L107.4459 132.7420
" />
<path d="M109.8268 131.5992
L110.0173 131.5992
" />
<path d="M110.0173 131.5992
L110.2078 131.6944
" />
<path d="M110.2078 131.6944
L110.3030 131.7896
" />
<path d="M110.3030 131.7896
L110.3983 131.9801
" />
<path d="M110.3983 131.9801
L110.4935 132.3611
" />
<path d="M110.4935 132.3611
L110.4935 132.8373
" />
<path d="M110.4935 132.8373
L110.3983 133.2182
" />
<path d="M110.3983 133.2182
L110.3030 133.4087
" />
<path d="M110.3030 133.4087
L110.2078 133.5039
" />
<path d="M110.2078 133.5039
L110.0173 133.5992
" />
<path d="M110.0173 133.5992
L109.8268 133.5992
" />
<path d="M109.8268 133.5992
L109.6364 133.5039
" />
<path d="M109.6364 133.5039
L109.5411 133.4087
" />
<path d="M109.5411 133.4087
L109.4459 133.2182
" />
<path d="M109.4459 133.2182
L109.3507 132.8373
" />
<path d="M109.3507 132.8373
L109.3507 132.3611
" />
<path d="M109.3507 132.3611
L109.4459 131.9801
" />
<path d="M109.4459 131.9801
L109.5411 131.7896
" />
<path d="M109.5411 131.7896
L109.6364 131.6944
" />
<path d="M109.6364 131.6944
L109.8268 131.5992
" />
<path d="M111.7316 131.5992
L111.9221 131.5992
" />
<path d="M111.9221 131.5992
L112.1126 131.6944
" />
<path d="M112.1126 131.6944
L112.2078 131.7896
" />
<path d="M112.2078 131.7896
L112.3030 131.9801
" />
<path d="M112.3030 131.9801
L112.3983 132.3611
" />
<path d="M112.3983 132.3611
L112.3983 132.8373
" />
<path d="M112.3983 132.8373
L112.3030 133.2182
" />
<path d="M112.3030 133.2182
L112.2078 133.4087
" />
<path d="M112.2078 133.4087
L112.1126 133.5039
" />
<path d="M112.1126 133.5039
L111.9221 133.5992
" />
<path d="M111.9221 133.5992
L111.7316 133.5992
" />
<path d="M111.7316 133.5992
L111.5411 133.5039
" />
<path d="M111.5411 133.5039
L111.4459 133.4087
" />
<path d="M111.4459 133.4087
L111.3507 133.2182
" />
<path d="M111.3507 133.2182
L111.2554 132.8373
" />
<path d="M111.2554 132.8373
L111.2554 132.3611
" />
<path d="M111.2554 132.3611
L111.3507 131.9801
" />
<path d="M111.3507 131.9801
L111.4459 131.7896
" />
<path d="M111.4459 131.7896
L111.5411 131.6944
" />
<path d="M111.5411 131.6944
L111.7316 131.5992
" />
<path d="M113.2554 133.5992
L113.2554 132.2658
" />
<path d="M113.2554 132.4563
L113.3507 132.3611
" />
<path d="M113.3507 132.3611
L113.5411 132.2658
" />
<path d="M113.5411 132.2658
L113.8268 132.2658
" />
<path d="M113.8268 132.2658
L114.0173 132.3611
" />
<path d="M114.0173 132.3611
L114.1126 132.5515
" />
<path d="M114.1126 132.5515
L114.1126 133.5992
" />
<path d="M114.1126 132.5515
L114.2078 132.3611
" />
<path d="M114.2078 132.3611
L114.3983 132.2658
" />
<path d="M114.3983 132.2658
L114.6840 132.2658
" />
<path d="M114.6840 132.2658
L114.8745 132.3611
" />
<path d="M114.8745 132.3611
L114.9697 132.5515
" />
<path d="M114.9697 132.5515
L114.9697 133.5992
" />
<path d="M115.9221 133.5992
L115.9221 132.2658
" />
<path d="M115.9221 132.4563
L116.0173 132.3611
" />
<path d="M116.0173 132.3611
L116.2078 132.2658
" />
<path d="M116.2078 132.2658
L116.4935 132.2658
" />
<path d="M116.4935 132.2658
L116.6840 132.3611
" />
<path d="M116.6840 132.3611
L116.7792 132.5515
" />
<path d="M116.7792 132.5515
L116.7792 133.5992
" />
<path d="M116.7792 132.5515
L116.8745 132.3611
" />
<path d="M116.8745 132.3611
L117.0649 132.2658
" />
<path d="M117.0649 132.2658
L117.3507 132.2658
" />
<path d="M117.3507 132.2658
L117.5411 132.3611
" />
<path d="M117.5411 132.3611
L117.6364 132.5515
" />
<path d="M117.6364 132.5515
L117.6364 133.5992
" />
<path d="M121.5411 131.5039
L119.8268 134.0753
" />
<path d="M124.1126 131.5992
L124.3030 131.5992
" />
<path d="M124.3030 131.5992
L124.4935 131.6944
" />
<path d="M124.4935 131.6944
L124.5887 131.7896
" />
<path d="M124.5887 131.7896
L124.6840 131.9801
" />
<path d="M124.6840 131.9801
L124.7792 132.3611
" />
<path d="M124.7792 132.3611
L124.7792 132.8373
" />
<path d="M124.7792 132.8373
L124.6840 133.2182
" />
<path d="M124.6840 133.2182
L124.5887 133.4087
" />
<path d="M124.5887 133.4087
L124.4935 133.5039
" />
<path d="M124.4935 133.5039
L124.3030 133.5992
" />
<path d="M124.3030 133.5992
L124.1126 133.5992
" />
<path d="M124.1126 133.5992
L123.9221 133.5039
" />
<path d="M123.9221 133.5039
L123.8268 133.4087
" />
<path d="M123.8268 133.4087
L123.7316 133.2182
" />
<path d="M123.7316 133.2182
L123.6364 132.8373
" />
<path d="M123.6364 132.8373
L123.6364 132.3611
" />
<path d="M123.6364 132.3611
L123.7316 131.9801
" />
<path d="M123.7316 131.9801
L123.8268 131.7896
" />
<path d="M123.8268 131.7896
L123.9221 131.6944
" />
<path d="M123.9221 131.6944
L124.1126 131.5992
" />
<path d="M125.6364 133.4087
L125.7316 133.5039
" />
<path d="M125.7316 133.5039
L125.6364 133.5992
" />
<path d="M125.6364 133.5992
L125.5411 133.5039
" />
<path d="M125.5411 133.5039
L125.6364 133.4087
" />
<path d="M125.6364 133.4087
L125.6364 133.5992
" />
<path d="M126.9697 131.5992
L127.1602 131.5992
" />
<path d="M127.1602 131.5992
L127.3507 131.6944
" />
<path d="M127.3507 131.6944
L127.4459 131.7896
" />
<path d="M127.4459 131.7896
L127.5411 131.9801
" />
<path d="M127.5411 131.9801
L127.6364 132.3611
" />
<path d="M127.6364 132.3611
L127.6364 132.8373
" />
<path d="M127.6364 132.8373
L127.5411 133.2182
" />
<path d="M127.5411 133.2182
L127.4459 133.4087
" />
<path d="M127.4459 133.4087
L127.3507 133.5039
" />
<path d="M127.3507 133.5039
L127.1602 133.5992
" />
<path d="M127.1602 133.5992
L126.9697 133.5992
" />
<path d="M126.9697 133.5992
L126.7792 133.5039
" />
<path d="M126.7792 133.5039
L126.6840 133.4087
" />
<path d="M126.6840 133.4087
L126.5887 133.2182
" />
<path d="M126.5887 133.2182
L126.4935 132.8373
" />
<path d="M126.4935 132.8373
L126.4935 132.3611
" />
<path d="M126.4935 132.3611
L126.5887 131.9801
" />
<path d="M126.5887 131.9801
L126.6840 131.7896
" />
<path d="M126.6840 131.7896
L126.7792 131.6944
" />
<path d="M126.7792 131.6944
L126.9697 131.5992
" />
<path d="M128.3983 131.7896
L128.4935 131.6944
" />
<path d="M128.4935 131.6944
L128.6840 131.5992
" />
<path d="M128.6840 131.5992
L129.1602 131.5992
" />
<path d="M129.1602 131.5992
L129.3507 131.6944
" />
<path d="M129.3507 131.6944
L129.4459 131.7896
" />
<path d="M129.4459 131.7896
L129.5411 131.9801
" />
<path d="M129.5411 131.9801
L129.5411 132.1706
" />
<path d="M129.5411 132.1706
L129.4459 132.4563
" />
<path d="M129.4459 132.4563
L128.3030 133.5992
" />
<path d="M128.3030 133.5992
L129.5411 133.5992
" />
<path d="M130.2078 131.5992
L131.4459 131.5992
" />
<path d="M131.4459 131.5992
L130.7792 132.3611
" />
<path d="M130.7792 132.3611
L131.0649 132.3611
" />
<path d="M131.0649 132.3611
L131.2554 132.4563
" />
<path d="M131.2554 132.4563
L131.3507 132.5515
" />
<path d="M131.3507 132.5515
L131.4459 132.7420
" />
<path d="M131.4459 132.7420
L131.4459 133.2182
" />
<path d="M131.4459 133.2182
L131.3507 133.4087
" />
<path d="M131.3507 133.4087
L131.2554 133.5039
" />
<path d="M131.2554 133.5039
L131.0649 133.5992
" />
<path d="M131.0649 133.5992
L130.4935 133.5992
" />
<path d="M130.4935 133.5992
L130.3030 133.5039
" />
<path d="M130.3030 133.5039
L130.2078 133.4087
" />
<path d="M133.1602 131.5992
L132.7792 131.5992
" />
<path d="M132.7792 131.5992
L132.5888 131.6944
" />
<path d="M132.5888 131.6944
L132.4935 131.7896
" />
<path d="M132.4935 131.7896
L132.3030 132.0753
" />
<path d="M132.3030 132.0753
L132.2078 132.4563
" />
<path d="M132.2078 132.4563
L132.2078 133.2182
" />
<path d="M132.2078 133.2182
L132.3030 133.4087
" />
<path d="M132.3030 133.4087
L132.3983 133.5039
" />
<path d="M132.3983 133.5039
L132.5888 133.5992
" />
<path d="M132.5888 133.5992
L132.9697 133.5992
" />
<path d="M132.9697 133.5992
L133.1602 133.5039
" />
<path d="M133.1602 133.5039
L133.2554 133.4087
" />
<path d="M133.2554 133.4087
L133.3507 133.2182
" />
<path d="M133.3507 133.2182
L133.3507 132.7420
" />
<path d="M133.3507 132.7420
L133.2554 132.5515
" />
<path d="M133.2554 132.5515
L133.1602 132.4563
" />
<path d="M133.1602 132.4563
L132.9697 132.3611
" />
<path d="M132.9697 132.3611
L132.5888 132.3611
" />
<path d="M132.5888 132.3611
L132.3983 132.4563
" />
<path d="M132.3983 132.4563
L132.3030 132.5515
" />
<path d="M132.3030 132.5515
L132.2078 132.7420
" />
<path d="M134.1126 131.5992
L134.1126 131.9801
" />
<path d="M134.8745 131.5992
L134.8745 131.9801
" />
<path d="M137.8268 134.3611
L137.7316 134.2658
" />
<path d="M137.7316 134.2658
L137.5411 133.9801
" />
<path d="M137.5411 133.9801
L137.4459 133.7896
" />
<path d="M137.4459 133.7896
L137.3507 133.5039
" />
<path d="M137.3507 133.5039
L137.2554 133.0277
" />
<path d="M137.2554 133.0277
L137.2554 132.6468
" />
<path d="M137.2554 132.6468
L137.3507 132.1706
" />
<path d="M137.3507 132.1706
L137.4459 131.8849
" />
<path d="M137.4459 131.8849
L137.5411 131.6944
" />
<path d="M137.5411 131.6944
L137.7316 131.4087
" />
<path d="M137.7316 131.4087
L137.8268 131.3134
" />
<path d="M138.3983 131.5992
L139.6364 131.5992
" />
<path d="M139.6364 131.5992
L138.9697 132.3611
" />
<path d="M138.9697 132.3611
L139.2554 132.3611
" />
<path d="M139.2554 132.3611
L139.4459 132.4563
" />
<path d="M139.4459 132.4563
L139.5411 132.5515
" />
<path d="M139.5411 132.5515
L139.6364 132.7420
" />
<path d="M139.6364 132.7420
L139.6364 133.2182
" />
<path d="M139.6364 133.2182
L139.5411 133.4087
" />
<path d="M139.5411 133.4087
L139.4459 133.5039
" />
<path d="M139.4459 133.5039
L139.2554 133.5992
" />
<path d="M139.2554 133.5992
L138.6840 133.5992
" />
<path d="M138.6840 133.5992
L138.4935 133.5039
" />
<path d="M138.4935 133.5039
L138.3983 133.4087
" />
<path d="M140.3983 131.7896
L140.4935 131.6944
" />
<path d="M140.4935 131.6944
L140.6840 131.5992
" />
<path d="M140.6840 131.5992
L141.1602 131.5992
" />
<path d="M141.1602 131.5992
L141.3507 131.6944
" />
<path d="M141.3507 131.6944
L141.4459 131.7896
" />
<path d="M141.4459 131.7896
L141.5411 131.9801
" />
<path d="M141.5411 131.9801
L141.5411 132.1706
" />
<path d="M141.5411 132.1706
L141.4459 132.4563
" />
<path d="M141.4459 132.4563
L140.3030 133.5992
" />
<path d="M140.3030 133.5992
L141.5411 133.5992
" />
<path d="M143.9221 133.5992
L143.9221 131.5992
" />
<path d="M144.7792 133.5992
L144.7792 132.5515
" />
<path d="M144.7792 132.5515
L144.6840 132.3611
" />
<path d="M144.6840 132.3611
L144.4935 132.2658
" />
<path d="M144.4935 132.2658
L144.2078 132.2658
" />
<path d="M144.2078 132.2658
L144.0173 132.3611
" />
<path d="M144.0173 132.3611
L143.9221 132.4563
" />
<path d="M146.0173 133.5992
L145.8268 133.5039
" />
<path d="M145.8268 133.5039
L145.7316 133.4087
" />
<path d="M145.7316 133.4087
L145.6364 133.2182
" />
<path d="M145.6364 133.2182
L145.6364 132.6468
" />
<path d="M145.6364 132.6468
L145.7316 132.4563
" />
<path d="M145.7316 132.4563
L145.8268 132.3611
" />
<path d="M145.8268 132.3611
L146.0173 132.2658
" />
<path d="M146.0173 132.2658
L146.3030 132.2658
" />
<path d="M146.3030 132.2658
L146.4935 132.3611
" />
<path d="M146.4935 132.3611
L146.5888 132.4563
" />
<path d="M146.5888 132.4563
L146.6840 132.6468
" />
<path d="M146.6840 132.6468
L146.6840 133.2182
" />
<path d="M146.6840 133.2182
L146.5888 133.4087
" />
<path d="M146.5888 133.4087
L146.4935 133.5039
" />
<path d="M146.4935 133.5039
L146.3030 133.5992
" />
<path d="M146.3030 133.5992
L146.0173 133.5992
" />
<path d="M147.8268 133.5992
L147.6364 133.5039
" />
<path d="M147.6364 133.5039
L147.5411 133.3134
" />
<path d="M147.5411 133.3134
L147.5411 131.5992
" />
<path d="M149.3507 133.5039
L149.1602 133.5992
" />
<path d="M149.1602 133.5992
L148.7792 133.5992
" />
<path d="M148.7792 133.5992
L148.5887 133.5039
" />
<path d="M148.5887 133.5039
L148.4935 133.3134
" />
<path d="M148.4935 133.3134
L148.4935 132.5515
" />
<path d="M148.4935 132.5515
L148.5887 132.3611
" />
<path d="M148.5887 132.3611
L148.7792 132.2658
" />
<path d="M148.7792 132.2658
L149.1602 132.2658
" />
<path d="M149.1602 132.2658
L149.3507 132.3611
" />
<path d="M149.3507 132.3611
L149.4459 132.5515
" />
<path d="M149.4459 132.5515
L149.4459 132.7420
" />
<path d="M149.4459 132.7420
L148.4935 132.9325
" />
<path d="M150.2078 133.5039
L150.3983 133.5992
" />
<path d="M150.3983 133.5992
L150.7792 133.5992
" />
<path d="M150.7792 133.5992
L150.9697 133.5039
" />
<path d="M150.9697 133.5039
L151.0649 133.3134
" />
<path d="M151.0649 133.3134
L151.0649 133.2182
" />
<path d="M151.0649 133.2182
L150.9697 133.0277
" />
<path d="M150.9697 133.0277
L150.7792 132.9325
" />
<path d="M150.7792 132.9325
L150.4935 132.9325
" />
<path d="M150.4935 132.9325
L150.3030 132.8373
" />
<path d="M150.3030 132.8373
L150.2078 132.6468
" />
<path d="M150.2078 132.6468
L150.2078 132.5515
" />
<path d="M150.2078 132.5515
L150.3030 132.3611
" />
<path d="M150.3030 132.3611
L150.4935 132.2658
" />
<path d="M150.4935 132.2658
L150.7792 132.2658
" />
<path d="M150.7792 132.2658
L150.9697 132.3611
" />
<path d="M151.7316 134.3611
L151.8268 134.2658
" />
<path d="M151.8268 134.2658
L152.0173 133.9801
" />
<path d="M152.0173 133.9801
L152.1126 133.7896
" />
<path d="M152.1126 133.7896
L152.2078 133.5039
" />
<path d="M152.2078 133.5039
L152.3030 133.0277
" />
<path d="M152.3030 133.0277
L152.3030 132.6468
" />
<path d="M152.3030 132.6468
L152.2078 132.1706
" />
<path d="M152.2078 132.1706
L152.1126 131.8849
" />
<path d="M152.1126 131.8849
L152.0173 131.6944
" />
<path d="M152.0173 131.6944
L151.8268 131.4087
" />
<path d="M151.8268 131.4087
L151.7316 131.3134
" />
</g><path style="fill:none; 
stroke:#000000; stroke-width:0.2000; stroke-opacity:1; 
stroke-linecap:round; stroke-linejoin:round;fill:none"
d="M 101.7833,136.0314
101.7833,134.6172
100.3691,134.6172
100.3691,136.0314
Z" /> 
</g>
<g style="fill:none; 
stroke:#000000; stroke-width:0.2000; stroke-opacity:1; 
stroke-linecap:round; stroke-linejoin:round;">
<text x="104.0762" y="136.3243"
textLength="46.8667" font-size="2.6667" lengthAdjust="spacingAndGlyphs"
text-anchor="start" opacity="0" stroke-opacity="0">2.200mm / 0.0866" (8 holes)</text>
<g class="stroked-text"><desc>2.200mm / 0.0866" (8 holes)</desc>
<path d="M104.5887 134.4296
L104.6840 134.3344
" />
<path d="M104.6840 134.3344
L104.8745 134.2392
" />
<path d="M104.8745 134.2392
L105.3507 134.2392
" />
<path d="M105.3507 134.2392
L105.5411 134.3344
" />
<path d="M105.5411 134.3344
L105.6364 134.4296
" />
<path d="M105.6364 134.4296
L105.7316 134.6201
" />
<path d="M105.7316 134.6201
L105.7316 134.8106
" />
<path d="M105.7316 134.8106
L105.6364 135.0963
" />
<path d="M105.6364 135.0963
L104.4935 136.2392
" />
<path d="M104.4935 136.2392
L105.7316 136.2392
" />
<path d="M106.5887 136.0487
L106.6840 136.1439
" />
<path d="M106.6840 136.1439
L106.5887 136.2392
" />
<path d="M106.5887 136.2392
L106.4935 136.1439
" />
<path d="M106.4935 136.1439
L106.5887 136.0487
" />
<path d="M106.5887 136.0487
L106.5887 136.2392
" />
<path d="M107.4459 134.4296
L107.5411 134.3344
" />
<path d="M107.5411 134.3344
L107.7316 134.2392
" />
<path d="M107.7316 134.2392
L108.2078 134.2392
" />
<path d="M108.2078 134.2392
L108.3983 134.3344
" />
<path d="M108.3983 134.3344
L108.4935 134.4296
" />
<path d="M108.4935 134.4296
L108.5887 134.6201
" />
<path d="M108.5887 134.6201
L108.5887 134.8106
" />
<path d="M108.5887 134.8106
L108.4935 135.0963
" />
<path d="M108.4935 135.0963
L107.3507 136.2392
" />
<path d="M107.3507 136.2392
L108.5887 136.2392
" />
<path d="M109.8268 134.2392
L110.0173 134.2392
" />
<path d="M110.0173 134.2392
L110.2078 134.3344
" />
<path d="M110.2078 134.3344
L110.3030 134.4296
" />
<path d="M110.3030 134.4296
L110.3983 134.6201
" />
<path d="M110.3983 134.6201
L110.4935 135.0011
" />
<path d="M110.4935 135.0011
L110.4935 135.4773
" />
<path d="M110.4935 135.4773
L110.3983 135.8582
" />
<path d="M110.3983 135.8582
L110.3030 136.0487
" />
<path d="M110.3030 136.0487
L110.2078 136.1439
" />
<path d="M110.2078 136.1439
L110.0173 136.2392
" />
<path d="M110.0173 136.2392
L109.8268 136.2392
" />
<path d="M109.8268 136.2392
L109.6364 136.1439
" />
<path d="M109.6364 136.1439
L109.5411 136.0487
" />
<path d="M109.5411 136.0487
L109.4459 135.8582
" />
<path d="M109.4459 135.8582
L109.3507 135.4773
" />
<path d="M109.3507 135.4773
L109.3507 135.0011
" />
<path d="M109.3507 135.0011
L109.4459 134.6201
" />
<path d="M109.4459 134.6201
L109.5411 134.4296
" />
<path d="M109.5411 134.4296
L109.6364 134.3344
" />
<path d="M109.6364 134.3344
L109.8268 134.2392
" />
<path d="M111.7316 134.2392
L111.9221 134.2392
" />
<path d="M111.9221 134.2392
L112.1126 134.3344
" />
<path d="M112.1126 134.3344
L112.2078 134.4296
" />
<path d="M112.2078 134.4296
L112.3030 134.6201
" />
<path d="M112.3030 134.6201
L112.3983 135.0011
" />
<path d="M112.3983 135.0011
L112.3983 135.4773
" />
<path d="M112.3983 135.4773
L112.3030 135.8582
" />
<path d="M112.3030 135.8582
L112.2078 136.0487
" />
<path d="M112.2078 136.0487
L112.1126 136.1439
" />
<path d="M112.1126 136.1439
L111.9221 136.2392
" />
<path d="M111.9221 136.2392
L111.7316 136.2392
" />
<path d="M111.7316 136.2392
L111.5411 136.1439
" />
<path d="M111.5411 136.1439
L111.4459 136.0487
" />
<path d="M111.4459 136.0487
L111.3507 135.8582
" />
<path d="M111.3507 135.8582
L111.2554 135.4773
" />
<path d="M111.2554 135.4773
L111.2554 135.0011
" />
<path d="M111.2554 135.0011
L111.3507 134.6201
" />
<path d="M111.3507 134.6201
L111.4459 134.4296
" />
<path d="M111.4459 134.4296
L111.5411 134.3344
" />
<path d="M111.5411 134.3344
L111.7316 134.2392
" />
<path d="M113.2554 136.2392
L113.2554 134.9058
" />
<path d="M113.2554 135.0963
L113.3507 135.0011
" />
<path d="M113.3507 135.0011
L113.5411 134.9058
" />
<path d="M113.5411 134.9058
L113.8268 134.9058
" />
<path d="M113.8268 134.9058
L114.0173 135.0011
" />
<path d="M114.0173 135.0011
L114.1126 135.1915
" />
<path d="M114.1126 135.1915
L114.1126 136.2392
" />
<path d="M114.1126 135.1915
L114.2078 135.0011
" />
<path d="M114.2078 135.0011
L114.3983 134.9058
" />
<path d="M114.3983 134.9058
L114.6840 134.9058
" />
<path d="M114.6840 134.9058
L114.8745 135.0011
" />
<path d="M114.8745 135.0011
L114.9697 135.1915
" />
<path d="M114.9697 135.1915
L114.9697 136.2392
" />
<path d="M115.9221 136.2392
L115.9221 134.9058
" />
<path d="M115.9221 135.0963
L116.0173 135.0011
" />
<path d="M116.0173 135.0011
L116.2078 134.9058
" />
<path d="M116.2078 134.9058
L116.4935 134.9058
" />
<path d="M116.4935 134.9058
L116.6840 135.0011
" />
<path d="M116.6840 135.0011
L116.7792 135.1915
" />
<path d="M116.7792 135.1915
L116.7792 136.2392
" />
<path d="M116.7792 135.1915
L116.8745 135.0011
" />
<path d="M116.8745 135.0011
L117.0649 134.9058
" />
<path d="M117.0649 134.9058
L117.3507 134.9058
" />
<path d="M117.3507 134.9058
L117.5411 135.0011
" />
<path d="M117.5411 135.0011
L117.6364 135.1915
" />
<path d="M117.6364 135.1915
L117.6364 136.2392
" />
<path d="M121.5411 134.1439
L119.8268 136.7153
" />
<path d="M124.1126 134.2392
L124.3030 134.2392
" />
<path d="M124.3030 134.2392
L124.4935 134.3344
" />
<path d="M124.4935 134.3344
L124.5887 134.4296
" />
<path d="M124.5887 134.4296
L124.6840 134.6201
" />
<path d="M124.6840 134.6201
L124.7792 135.0011
" />
<path d="M124.7792 135.0011
L124.7792 135.4773
" />
<path d="M124.7792 135.4773
L124.6840 135.8582
" />
<path d="M124.6840 135.8582
L124.5887 136.0487
" />
<path d="M124.5887 136.0487
L124.4935 136.1439
" />
<path d="M124.4935 136.1439
L124.3030 136.2392
" />
<path d="M124.3030 136.2392
L124.1126 136.2392
" />
<path d="M124.1126 136.2392
L123.9221 136.1439
" />
<path d="M123.9221 136.1439
L123.8268 136.0487
" />
<path d="M123.8268 136.0487
L123.7316 135.8582
" />
<path d="M123.7316 135.8582
L123.6364 135.4773
" />
<path d="M123.6364 135.4773
L123.6364 135.0011
" />
<path d="M123.6364 135.0011
L123.7316 134.6201
" />
<path d="M123.7316 134.6201
L123.8268 134.4296
" />
<path d="M123.8268 134.4296
L123.9221 134.3344
" />
<path d="M123.9221 134.3344
L124.1126 134.2392
" />
<path d="M125.6364 136.0487
L125.7316 136.1439
" />
<path d="M125.7316 136.1439
L125.6364 136.2392
" />
<path d="M125.6364 136.2392
L125.5411 136.1439
" />
<path d="M125.5411 136.1439
L125.6364 136.0487
" />
<path d="M125.6364 136.0487
L125.6364 136.2392
" />
<path d="M126.9697 134.2392
L127.1602 134.2392
" />
<path d="M127.1602 134.2392
L127.3507 134.3344
" />
<path d="M127.3507 134.3344
L127.4459 134.4296
" />
<path d="M127.4459 134.4296
L127.5411 134.6201
" />
<path d="M127.5411 134.6201
L127.6364 135.0011
" />
<path d="M127.6364 135.0011
L127.6364 135.4773
" />
<path d="M127.6364 135.4773
L127.5411 135.8582
" />
<path d="M127.5411 135.8582
L127.4459 136.0487
" />
<path d="M127.4459 136.0487
L127.3507 136.1439
" />
<path d="M127.3507 136.1439
L127.1602 136.2392
" />
<path d="M127.1602 136.2392
L126.9697 136.2392
" />
<path d="M126.9697 136.2392
L126.7792 136.1439
" />
<path d="M126.7792 136.1439
L126.6840 136.0487
" />
<path d="M126.6840 136.0487
L126.5887 135.8582
" />
<path d="M126.5887 135.8582
L126.4935 135.4773
" />
<path d="M126.4935 135.4773
L126.4935 135.0011
" />
<path d="M126.4935 135.0011
L126.5887 134.6201
" />
<path d="M126.5887 134.6201
L126.6840 134.4296
" />
<path d="M126.6840 134.4296
L126.7792 134.3344
" />
<path d="M126.7792 134.3344
L126.9697 134.2392
" />
<path d="M128.7792 135.0963
L128.5887 135.0011
" />
<path d="M128.5887 135.0011
L128.4935 134.9058
" />
<path d="M128.4935 134.9058
L128.3983 134.7153
" />
<path d="M128.3983 134.7153
L128.3983 134.6201
" />
<path d="M128.3983 134.6201
L128.4935 134.4296
" />
<path d="M128.4935 134.4296
L128.5887 134.3344
" />
<path d="M128.5887 134.3344
L128.7792 134.2392
" />
<path d="M128.7792 134.2392
L129.1602 134.2392
" />
<path d="M129.1602 134.2392
L129.3507 134.3344
" />
<path d="M129.3507 134.3344
L129.4459 134.4296
" />
<path d="M129.4459 134.4296
L129.5411 134.6201
" />
<path d="M129.5411 134.6201
L129.5411 134.7153
" />
<path d="M129.5411 134.7153
L129.4459 134.9058
" />
<path d="M129.4459 134.9058
L129.3507 135.0011
" />
<path d="M129.3507 135.0011
L129.1602 135.0963
" />
<path d="M129.1602 135.0963
L128.7792 135.0963
" />
<path d="M128.7792 135.0963
L128.5887 135.1915
" />
<path d="M128.5887 135.1915
L128.4935 135.2868
" />
<path d="M128.4935 135.2868
L128.3983 135.4773
" />
<path d="M128.3983 135.4773
L128.3983 135.8582
" />
<path d="M128.3983 135.8582
L128.4935 136.0487
" />
<path d="M128.4935 136.0487
L128.5887 136.1439
" />
<path d="M128.5887 136.1439
L128.7792 136.2392
" />
<path d="M128.7792 136.2392
L129.1602 136.2392
" />
<path d="M129.1602 136.2392
L129.3507 136.1439
" />
<path d="M129.3507 136.1439
L129.4459 136.0487
" />
<path d="M129.4459 136.0487
L129.5411 135.8582
" />
<path d="M129.5411 135.8582
L129.5411 135.4773
" />
<path d="M129.5411 135.4773
L129.4459 135.2868
" />
<path d="M129.4459 135.2868
L129.3507 135.1915
" />
<path d="M129.3507 135.1915
L129.1602 135.0963
" />
<path d="M131.2554 134.2392
L130.8745 134.2392
" />
<path d="M130.8745 134.2392
L130.6840 134.3344
" />
<path d="M130.6840 134.3344
L130.5888 134.4296
" />
<path d="M130.5888 134.4296
L130.3983 134.7153
" />
<path d="M130.3983 134.7153
L130.3030 135.0963
" />
<path d="M130.3030 135.0963
L130.3030 135.8582
" />
<path d="M130.3030 135.8582
L130.3983 136.0487
" />
<path d="M130.3983 136.0487
L130.4935 136.1439
" />
<path d="M130.4935 136.1439
L130.6840 136.2392
" />
<path d="M130.6840 136.2392
L131.0649 136.2392
" />
<path d="M131.0649 136.2392
L131.2554 136.1439
" />
<path d="M131.2554 136.1439
L131.3507 136.0487
" />
<path d="M131.3507 136.0487
L131.4459 135.8582
" />
<path d="M131.4459 135.8582
L131.4459 135.3820
" />
<path d="M131.4459 135.3820
L131.3507 135.1915
" />
<path d="M131.3507 135.1915
L131.2554 135.0963
" />
<path d="M131.2554 135.0963
L131.0649 135.0011
" />
<path d="M131.0649 135.0011
L130.6840 135.0011
" />
<path d="M130.6840 135.0011
L130.4935 135.0963
" />
<path d="M130.4935 135.0963
L130.3983 135.1915
" />
<path d="M130.3983 135.1915
L130.3030 135.3820
" />
<path d="M133.1602 134.2392
L132.7792 134.2392
" />
<path d="M132.7792 134.2392
L132.5888 134.3344
" />
<path d="M132.5888 134.3344
L132.4935 134.4296
" />
<path d="M132.4935 134.4296
L132.3030 134.7153
" />
<path d="M132.3030 134.7153
L132.2078 135.0963
" />
<path d="M132.2078 135.0963
L132.2078 135.8582
" />
<path d="M132.2078 135.8582
L132.3030 136.0487
" />
<path d="M132.3030 136.0487
L132.3983 136.1439
" />
<path d="M132.3983 136.1439
L132.5888 136.2392
" />
<path d="M132.5888 136.2392
L132.9697 136.2392
" />
<path d="M132.9697 136.2392
L133.1602 136.1439
" />
<path d="M133.1602 136.1439
L133.2554 136.0487
" />
<path d="M133.2554 136.0487
L133.3507 135.8582
" />
<path d="M133.3507 135.8582
L133.3507 135.3820
" />
<path d="M133.3507 135.3820
L133.2554 135.1915
" />
<path d="M133.2554 135.1915
L133.1602 135.0963
" />
<path d="M133.1602 135.0963
L132.9697 135.0011
" />
<path d="M132.9697 135.0011
L132.5888 135.0011
" />
<path d="M132.5888 135.0011
L132.3983 135.0963
" />
<path d="M132.3983 135.0963
L132.3030 135.1915
" />
<path d="M132.3030 135.1915
L132.2078 135.3820
" />
<path d="M134.1126 134.2392
L134.1126 134.6201
" />
<path d="M134.8745 134.2392
L134.8745 134.6201
" />
<path d="M137.8268 137.0011
L137.7316 136.9058
" />
<path d="M137.7316 136.9058
L137.5411 136.6201
" />
<path d="M137.5411 136.6201
L137.4459 136.4296
" />
<path d="M137.4459 136.4296
L137.3507 136.1439
" />
<path d="M137.3507 136.1439
L137.2554 135.6677
" />
<path d="M137.2554 135.6677
L137.2554 135.2868
" />
<path d="M137.2554 135.2868
L137.3507 134.8106
" />
<path d="M137.3507 134.8106
L137.4459 134.5249
" />
<path d="M137.4459 134.5249
L137.5411 134.3344
" />
<path d="M137.5411 134.3344
L137.7316 134.0487
" />
<path d="M137.7316 134.0487
L137.8268 133.9534
" />
<path d="M138.8745 135.0963
L138.6840 135.0011
" />
<path d="M138.6840 135.0011
L138.5887 134.9058
" />
<path d="M138.5887 134.9058
L138.4935 134.7153
" />
<path d="M138.4935 134.7153
L138.4935 134.6201
" />
<path d="M138.4935 134.6201
L138.5887 134.4296
" />
<path d="M138.5887 134.4296
L138.6840 134.3344
" />
<path d="M138.6840 134.3344
L138.8745 134.2392
" />
<path d="M138.8745 134.2392
L139.2554 134.2392
" />
<path d="M139.2554 134.2392
L139.4459 134.3344
" />
<path d="M139.4459 134.3344
L139.5411 134.4296
" />
<path d="M139.5411 134.4296
L139.6364 134.6201
" />
<path d="M139.6364 134.6201
L139.6364 134.7153
" />
<path d="M139.6364 134.7153
L139.5411 134.9058
" />
<path d="M139.5411 134.9058
L139.4459 135.0011
" />
<path d="M139.4459 135.0011
L139.2554 135.0963
" />
<path d="M139.2554 135.0963
L138.8745 135.0963
" />
<path d="M138.8745 135.0963
L138.6840 135.1915
" />
<path d="M138.6840 135.1915
L138.5887 135.2868
" />
<path d="M138.5887 135.2868
L138.4935 135.4773
" />
<path d="M138.4935 135.4773
L138.4935 135.8582
" />
<path d="M138.4935 135.8582
L138.5887 136.0487
" />
<path d="M138.5887 136.0487
L138.6840 136.1439
" />
<path d="M138.6840 136.1439
L138.8745 136.2392
" />
<path d="M138.8745 136.2392
L139.2554 136.2392
" />
<path d="M139.2554 136.2392
L139.4459 136.1439
" />
<path d="M139.4459 136.1439
L139.5411 136.0487
" />
<path d="M139.5411 136.0487
L139.6364 135.8582
" />
<path d="M139.6364 135.8582
L139.6364 135.4773
" />
<path d="M139.6364 135.4773
L139.5411 135.2868
" />
<path d="M139.5411 135.2868
L139.4459 135.1915
" />
<path d="M139.4459 135.1915
L139.2554 135.0963
" />
<path d="M142.0173 136.2392
L142.0173 134.2392
" />
<path d="M142.8745 136.2392
L142.8745 135.1915
" />
<path d="M142.8745 135.1915
L142.7792 135.0011
" />
<path d="M142.7792 135.0011
L142.5887 134.9058
" />
<path d="M142.5887 134.9058
L142.3030 134.9058
" />
<path d="M142.3030 134.9058
L142.1126 135.0011
" />
<path d="M142.1126 135.0011
L142.0173 135.0963
" />
<path d="M144.1126 136.2392
L143.9221 136.1439
" />
<path d="M143.9221 136.1439
L143.8268 136.0487
" />
<path d="M143.8268 136.0487
L143.7316 135.8582
" />
<path d="M143.7316 135.8582
L143.7316 135.2868
" />
<path d="M143.7316 135.2868
L143.8268 135.0963
" />
<path d="M143.8268 135.0963
L143.9221 135.0011
" />
<path d="M143.9221 135.0011
L144.1126 134.9058
" />
<path d="M144.1126 134.9058
L144.3983 134.9058
" />
<path d="M144.3983 134.9058
L144.5887 135.0011
" />
<path d="M144.5887 135.0011
L144.6840 135.0963
" />
<path d="M144.6840 135.0963
L144.7792 135.2868
" />
<path d="M144.7792 135.2868
L144.7792 135.8582
" />
<path d="M144.7792 135.8582
L144.6840 136.0487
" />
<path d="M144.6840 136.0487
L144.5887 136.1439
" />
<path d="M144.5887 136.1439
L144.3983 136.2392
" />
<path d="M144.3983 136.2392
L144.1126 136.2392
" />
<path d="M145.9221 136.2392
L145.7316 136.1439
" />
<path d="M145.7316 136.1439
L145.6364 135.9534
" />
<path d="M145.6364 135.9534
L145.6364 134.2392
" />
<path d="M147.4459 136.1439
L147.2554 136.2392
" />
<path d="M147.2554 136.2392
L146.8745 136.2392
" />
<path d="M146.8745 136.2392
L146.6840 136.1439
" />
<path d="M146.6840 136.1439
L146.5887 135.9534
" />
<path d="M146.5887 135.9534
L146.5887 135.1915
" />
<path d="M146.5887 135.1915
L146.6840 135.0011
" />
<path d="M146.6840 135.0011
L146.8745 134.9058
" />
<path d="M146.8745 134.9058
L147.2554 134.9058
" />
<path d="M147.2554 134.9058
L147.4459 135.0011
" />
<path d="M147.4459 135.0011
L147.5411 135.1915
" />
<path d="M147.5411 135.1915
L147.5411 135.3820
" />
<path d="M147.5411 135.3820
L146.5887 135.5725
" />
<path d="M148.3030 136.1439
L148.4935 136.2392
" />
<path d="M148.4935 136.2392
L148.8745 136.2392
" />
<path d="M148.8745 136.2392
L149.0649 136.1439
" />
<path d="M149.0649 136.1439
L149.1602 135.9534
" />
<path d="M149.1602 135.9534
L149.1602 135.8582
" />
<path d="M149.1602 135.8582
L149.0649 135.6677
" />
<path d="M149.0649 135.6677
L148.8745 135.5725
" />
<path d="M148.8745 135.5725
L148.5887 135.5725
" />
<path d="M148.5887 135.5725
L148.3983 135.4773
" />
<path d="M148.3983 135.4773
L148.3030 135.2868
" />
<path d="M148.3030 135.2868
L148.3030 135.1915
" />
<path d="M148.3030 135.1915
L148.3983 135.0011
" />
<path d="M148.3983 135.0011
L148.5887 134.9058
" />
<path d="M148.5887 134.9058
L148.8745 134.9058
" />
<path d="M148.8745 134.9058
L149.0649 135.0011
" />
<path d="M149.8268 137.0011
L149.9221 136.9058
" />
<path d="M149.9221 136.9058
L150.1126 136.6201
" />
<path d="M150.1126 136.6201
L150.2078 136.4296
" />
<path d="M150.2078 136.4296
L150.3030 136.1439
" />
<path d="M150.3030 136.1439
L150.3983 135.6677
" />
<path d="M150.3983 135.6677
L150.3983 135.2868
" />
<path d="M150.3983 135.2868
L150.3030 134.8106
" />
<path d="M150.3030 134.8106
L150.2078 134.5249
" />
<path d="M150.2078 134.5249
L150.1126 134.3344
" />
<path d="M150.1126 134.3344
L149.9221 134.0487
" />
<path d="M149.9221 134.0487
L149.8268 133.9534
" />
</g><path style="fill:none; 
stroke:#000000; stroke-width:0.2000; stroke-opacity:1; 
stroke-linecap:round; stroke-linejoin:round;fill:none"
d="M 101.0762,139.5243
102.0762,138.5243
101.0762,137.5243
100.0762,138.5243
Z" /> 
</g>
<g style="fill:none; 
stroke:#000000; stroke-width:0.2000; stroke-opacity:1; 
stroke-linecap:round; stroke-linejoin:round;">
<text x="104.0762" y="139.5243"
textLength="46.8667" font-size="2.6667" lengthAdjust="spacingAndGlyphs"
text-anchor="start" opacity="0" stroke-opacity="0">4.300mm / 0.1693" (4 holes)</text>
<g class="stroked-text"><desc>4.300mm / 0.1693" (4 holes)</desc>
<path d="M105.5411 138.1058
L105.5411 139.4392
" />
<path d="M105.0649 137.3439
L104.5887 138.7725
" />
<path d="M104.5887 138.7725
L105.8268 138.7725
" />
<path d="M106.5887 139.2487
L106.6840 139.3439
" />
<path d="M106.6840 139.3439
L106.5887 139.4392
" />
<path d="M106.5887 139.4392
L106.4935 139.3439
" />
<path d="M106.4935 139.3439
L106.5887 139.2487
" />
<path d="M106.5887 139.2487
L106.5887 139.4392
" />
<path d="M107.3507 137.4392
L108.5887 137.4392
" />
<path d="M108.5887 137.4392
L107.9221 138.2011
" />
<path d="M107.9221 138.2011
L108.2078 138.2011
" />
<path d="M108.2078 138.2011
L108.3983 138.2963
" />
<path d="M108.3983 138.2963
L108.4935 138.3915
" />
<path d="M108.4935 138.3915
L108.5887 138.5820
" />
<path d="M108.5887 138.5820
L108.5887 139.0582
" />
<path d="M108.5887 139.0582
L108.4935 139.2487
" />
<path d="M108.4935 139.2487
L108.3983 139.3439
" />
<path d="M108.3983 139.3439
L108.2078 139.4392
" />
<path d="M108.2078 139.4392
L107.6364 139.4392
" />
<path d="M107.6364 139.4392
L107.4459 139.3439
" />
<path d="M107.4459 139.3439
L107.3507 139.2487
" />
<path d="M109.8268 137.4392
L110.0173 137.4392
" />
<path d="M110.0173 137.4392
L110.2078 137.5344
" />
<path d="M110.2078 137.5344
L110.3030 137.6296
" />
<path d="M110.3030 137.6296
L110.3983 137.8201
" />
<path d="M110.3983 137.8201
L110.4935 138.2011
" />
<path d="M110.4935 138.2011
L110.4935 138.6773
" />
<path d="M110.4935 138.6773
L110.3983 139.0582
" />
<path d="M110.3983 139.0582
L110.3030 139.2487
" />
<path d="M110.3030 139.2487
L110.2078 139.3439
" />
<path d="M110.2078 139.3439
L110.0173 139.4392
" />
<path d="M110.0173 139.4392
L109.8268 139.4392
" />
<path d="M109.8268 139.4392
L109.6364 139.3439
" />
<path d="M109.6364 139.3439
L109.5411 139.2487
" />
<path d="M109.5411 139.2487
L109.4459 139.0582
" />
<path d="M109.4459 139.0582
L109.3507 138.6773
" />
<path d="M109.3507 138.6773
L109.3507 138.2011
" />
<path d="M109.3507 138.2011
L109.4459 137.8201
" />
<path d="M109.4459 137.8201
L109.5411 137.6296
" />
<path d="M109.5411 137.6296
L109.6364 137.5344
" />
<path d="M109.6364 137.5344
L109.8268 137.4392
" />
<path d="M111.7316 137.4392
L111.9221 137.4392
" />
<path d="M111.9221 137.4392
L112.1126 137.5344
" />
<path d="M112.1126 137.5344
L112.2078 137.6296
" />
<path d="M112.2078 137.6296
L112.3030 137.8201
" />
<path d="M112.3030 137.8201
L112.3983 138.2011
" />
<path d="M112.3983 138.2011
L112.3983 138.6773
" />
<path d="M112.3983 138.6773
L112.3030 139.0582
" />
<path d="M112.3030 139.0582
L112.2078 139.2487
" />
<path d="M112.2078 139.2487
L112.1126 139.3439
" />
<path d="M112.1126 139.3439
L111.9221 139.4392
" />
<path d="M111.9221 139.4392
L111.7316 139.4392
" />
<path d="M111.7316 139.4392
L111.5411 139.3439
" />
<path d="M111.5411 139.3439
L111.4459 139.2487
" />
<path d="M111.4459 139.2487
L111.3507 139.0582
" />
<path d="M111.3507 139.0582
L111.2554 138.6773
" />
<path d="M111.2554 138.6773
L111.2554 138.2011
" />
<path d="M111.2554 138.2011
L111.3507 137.8201
" />
<path d="M111.3507 137.8201
L111.4459 137.6296
" />
<path d="M111.4459 137.6296
L111.5411 137.5344
" />
<path d="M111.5411 137.5344
L111.7316 137.4392
" />
<path d="M113.2554 139.4392
L113.2554 138.1058
" />
<path d="M113.2554 138.2963
L113.3507 138.2011
" />
<path d="M113.3507 138.2011
L113.5411 138.1058
" />
<path d="M113.5411 138.1058
L113.8268 138.1058
" />
<path d="M113.8268 138.1058
L114.0173 138.2011
" />
<path d="M114.0173 138.2011
L114.1126 138.3915
" />
<path d="M114.1126 138.3915
L114.1126 139.4392
" />
<path d="M114.1126 138.3915
L114.2078 138.2011
" />
<path d="M114.2078 138.2011
L114.3983 138.1058
" />
<path d="M114.3983 138.1058
L114.6840 138.1058
" />
<path d="M114.6840 138.1058
L114.8745 138.2011
" />
<path d="M114.8745 138.2011
L114.9697 138.3915
" />
<path d="M114.9697 138.3915
L114.9697 139.4392
" />
<path d="M115.9221 139.4392
L115.9221 138.1058
" />
<path d="M115.9221 138.2963
L116.0173 138.2011
" />
<path d="M116.0173 138.2011
L116.2078 138.1058
" />
<path d="M116.2078 138.1058
L116.4935 138.1058
" />
<path d="M116.4935 138.1058
L116.6840 138.2011
" />
<path d="M116.6840 138.2011
L116.7792 138.3915
" />
<path d="M116.7792 138.3915
L116.7792 139.4392
" />
<path d="M116.7792 138.3915
L116.8745 138.2011
" />
<path d="M116.8745 138.2011
L117.0649 138.1058
" />
<path d="M117.0649 138.1058
L117.3507 138.1058
" />
<path d="M117.3507 138.1058
L117.5411 138.2011
" />
<path d="M117.5411 138.2011
L117.6364 138.3915
" />
<path d="M117.6364 138.3915
L117.6364 139.4392
" />
<path d="M121.5411 137.3439
L119.8268 139.9153
" />
<path d="M124.1126 137.4392
L124.3030 137.4392
" />
<path d="M124.3030 137.4392
L124.4935 137.5344
" />
<path d="M124.4935 137.5344
L124.5887 137.6296
" />
<path d="M124.5887 137.6296
L124.6840 137.8201
" />
<path d="M124.6840 137.8201
L124.7792 138.2011
" />
<path d="M124.7792 138.2011
L124.7792 138.6773
" />
<path d="M124.7792 138.6773
L124.6840 139.0582
" />
<path d="M124.6840 139.0582
L124.5887 139.2487
" />
<path d="M124.5887 139.2487
L124.4935 139.3439
" />
<path d="M124.4935 139.3439
L124.3030 139.4392
" />
<path d="M124.3030 139.4392
L124.1126 139.4392
" />
<path d="M124.1126 139.4392
L123.9221 139.3439
" />
<path d="M123.9221 139.3439
L123.8268 139.2487
" />
<path d="M123.8268 139.2487
L123.7316 139.0582
" />
<path d="M123.7316 139.0582
L123.6364 138.6773
" />
<path d="M123.6364 138.6773
L123.6364 138.2011
" />
<path d="M123.6364 138.2011
L123.7316 137.8201
" />
<path d="M123.7316 137.8201
L123.8268 137.6296
" />
<path d="M123.8268 137.6296
L123.9221 137.5344
" />
<path d="M123.9221 137.5344
L124.1126 137.4392
" />
<path d="M125.6364 139.2487
L125.7316 139.3439
" />
<path d="M125.7316 139.3439
L125.6364 139.4392
" />
<path d="M125.6364 139.4392
L125.5411 139.3439
" />
<path d="M125.5411 139.3439
L125.6364 139.2487
" />
<path d="M125.6364 139.2487
L125.6364 139.4392
" />
<path d="M127.6364 139.4392
L126.4935 139.4392
" />
<path d="M127.0649 139.4392
L127.0649 137.4392
" />
<path d="M127.0649 137.4392
L126.8745 137.7249
" />
<path d="M126.8745 137.7249
L126.6840 137.9153
" />
<path d="M126.6840 137.9153
L126.4935 138.0106
" />
<path d="M129.3507 137.4392
L128.9697 137.4392
" />
<path d="M128.9697 137.4392
L128.7792 137.5344
" />
<path d="M128.7792 137.5344
L128.6840 137.6296
" />
<path d="M128.6840 137.6296
L128.4935 137.9153
" />
<path d="M128.4935 137.9153
L128.3983 138.2963
" />
<path d="M128.3983 138.2963
L128.3983 139.0582
" />
<path d="M128.3983 139.0582
L128.4935 139.2487
" />
<path d="M128.4935 139.2487
L128.5887 139.3439
" />
<path d="M128.5887 139.3439
L128.7792 139.4392
" />
<path d="M128.7792 139.4392
L129.1602 139.4392
" />
<path d="M129.1602 139.4392
L129.3507 139.3439
" />
<path d="M129.3507 139.3439
L129.4459 139.2487
" />
<path d="M129.4459 139.2487
L129.5411 139.0582
" />
<path d="M129.5411 139.0582
L129.5411 138.5820
" />
<path d="M129.5411 138.5820
L129.4459 138.3915
" />
<path d="M129.4459 138.3915
L129.3507 138.2963
" />
<path d="M129.3507 138.2963
L129.1602 138.2011
" />
<path d="M129.1602 138.2011
L128.7792 138.2011
" />
<path d="M128.7792 138.2011
L128.5887 138.2963
" />
<path d="M128.5887 138.2963
L128.4935 138.3915
" />
<path d="M128.4935 138.3915
L128.3983 138.5820
" />
<path d="M130.4935 139.4392
L130.8745 139.4392
" />
<path d="M130.8745 139.4392
L131.0649 139.3439
" />
<path d="M131.0649 139.3439
L131.1602 139.2487
" />
<path d="M131.1602 139.2487
L131.3507 138.9630
" />
<path d="M131.3507 138.9630
L131.4459 138.5820
" />
<path d="M131.4459 138.5820
L131.4459 137.8201
" />
<path d="M131.4459 137.8201
L131.3507 137.6296
" />
<path d="M131.3507 137.6296
L131.2554 137.5344
" />
<path d="M131.2554 137.5344
L131.0649 137.4392
" />
<path d="M131.0649 137.4392
L130.6840 137.4392
" />
<path d="M130.6840 137.4392
L130.4935 137.5344
" />
<path d="M130.4935 137.5344
L130.3983 137.6296
" />
<path d="M130.3983 137.6296
L130.3030 137.8201
" />
<path d="M130.3030 137.8201
L130.3030 138.2963
" />
<path d="M130.3030 138.2963
L130.3983 138.4868
" />
<path d="M130.3983 138.4868
L130.4935 138.5820
" />
<path d="M130.4935 138.5820
L130.6840 138.6773
" />
<path d="M130.6840 138.6773
L131.0649 138.6773
" />
<path d="M131.0649 138.6773
L131.2554 138.5820
" />
<path d="M131.2554 138.5820
L131.3507 138.4868
" />
<path d="M131.3507 138.4868
L131.4459 138.2963
" />
<path d="M132.1126 137.4392
L133.3507 137.4392
" />
<path d="M133.3507 137.4392
L132.6840 138.2011
" />
<path d="M132.6840 138.2011
L132.9697 138.2011
" />
<path d="M132.9697 138.2011
L133.1602 138.2963
" />
<path d="M133.1602 138.2963
L133.2554 138.3915
" />
<path d="M133.2554 138.3915
L133.3507 138.5820
" />
<path d="M133.3507 138.5820
L133.3507 139.0582
" />
<path d="M133.3507 139.0582
L133.2554 139.2487
" />
<path d="M133.2554 139.2487
L133.1602 139.3439
" />
<path d="M133.1602 139.3439
L132.9697 139.4392
" />
<path d="M132.9697 139.4392
L132.3983 139.4392
" />
<path d="M132.3983 139.4392
L132.2078 139.3439
" />
<path d="M132.2078 139.3439
L132.1126 139.2487
" />
<path d="M134.1126 137.4392
L134.1126 137.8201
" />
<path d="M134.8745 137.4392
L134.8745 137.8201
" />
<path d="M137.8268 140.2011
L137.7316 140.1058
" />
<path d="M137.7316 140.1058
L137.5411 139.8201
" />
<path d="M137.5411 139.8201
L137.4459 139.6296
" />
<path d="M137.4459 139.6296
L137.3507 139.3439
" />
<path d="M137.3507 139.3439
L137.2554 138.8677
" />
<path d="M137.2554 138.8677
L137.2554 138.4868
" />
<path d="M137.2554 138.4868
L137.3507 138.0106
" />
<path d="M137.3507 138.0106
L137.4459 137.7249
" />
<path d="M137.4459 137.7249
L137.5411 137.5344
" />
<path d="M137.5411 137.5344
L137.7316 137.2487
" />
<path d="M137.7316 137.2487
L137.8268 137.1534
" />
<path d="M139.4459 138.1058
L139.4459 139.4392
" />
<path d="M138.9697 137.3439
L138.4935 138.7725
" />
<path d="M138.4935 138.7725
L139.7316 138.7725
" />
<path d="M142.0173 139.4392
L142.0173 137.4392
" />
<path d="M142.8745 139.4392
L142.8745 138.3915
" />
<path d="M142.8745 138.3915
L142.7792 138.2011
" />
<path d="M142.7792 138.2011
L142.5887 138.1058
" />
<path d="M142.5887 138.1058
L142.3030 138.1058
" />
<path d="M142.3030 138.1058
L142.1126 138.2011
" />
<path d="M142.1126 138.2011
L142.0173 138.2963
" />
<path d="M144.1126 139.4392
L143.9221 139.3439
" />
<path d="M143.9221 139.3439
L143.8268 139.2487
" />
<path d="M143.8268 139.2487
L143.7316 139.0582
" />
<path d="M143.7316 139.0582
L143.7316 138.4868
" />
<path d="M143.7316 138.4868
L143.8268 138.2963
" />
<path d="M143.8268 138.2963
L143.9221 138.2011
" />
<path d="M143.9221 138.2011
L144.1126 138.1058
" />
<path d="M144.1126 138.1058
L144.3983 138.1058
" />
<path d="M144.3983 138.1058
L144.5887 138.2011
" />
<path d="M144.5887 138.2011
L144.6840 138.2963
" />
<path d="M144.6840 138.2963
L144.7792 138.4868
" />
<path d="M144.7792 138.4868
L144.7792 139.0582
" />
<path d="M144.7792 139.0582
L144.6840 139.2487
" />
<path d="M144.6840 139.2487
L144.5887 139.3439
" />
<path d="M144.5887 139.3439
L144.3983 139.4392
" />
<path d="M144.3983 139.4392
L144.1126 139.4392
" />
<path d="M145.9221 139.4392
L145.7316 139.3439
" />
<path d="M145.7316 139.3439
L145.6364 139.1534
" />
<path d="M145.6364 139.1534
L145.6364 137.4392
" />
<path d="M147.4459 139.3439
L147.2554 139.4392
" />
<path d="M147.2554 139.4392
L146.8745 139.4392
" />
<path d="M146.8745 139.4392
L146.6840 139.3439
" />
<path d="M146.6840 139.3439
L146.5887 139.1534
" />
<path d="M146.5887 139.1534
L146.5887 138.3915
" />
<path d="M146.5887 138.3915
L146.6840 138.2011
" />
<path d="M146.6840 138.2011
L146.8745 138.1058
" />
<path d="M146.8745 138.1058
L147.2554 138.1058
" />
<path d="M147.2554 138.1058
L147.4459 138.2011
" />
<path d="M147.4459 138.2011
L147.5411 138.3915
" />
<path d="M147.5411 138.3915
L147.5411 138.5820
" />
<path d="M147.5411 138.5820
L146.5887 138.7725
" />
<path d="M148.3030 139.3439
L148.4935 139.4392
" />
<path d="M148.4935 139.4392
L148.8745 139.4392
" />
<path d="M148.8745 139.4392
L149.0649 139.3439
" />
<path d="M149.0649 139.3439
L149.1602 139.1534
" />
<path d="M149.1602 139.1534
L149.1602 139.0582
" />
<path d="M149.1602 139.0582
L149.0649 138.8677
" />
<path d="M149.0649 138.8677
L148.8745 138.7725
" />
<path d="M148.8745 138.7725
L148.5887 138.7725
" />
<path d="M148.5887 138.7725
L148.3983 138.6773
" />
<path d="M148.3983 138.6773
L148.3030 138.4868
" />
<path d="M148.3030 138.4868
L148.3030 138.3915
" />
<path d="M148.3030 138.3915
L148.3983 138.2011
" />
<path d="M148.3983 138.2011
L148.5887 138.1058
" />
<path d="M148.5887 138.1058
L148.8745 138.1058
" />
<path d="M148.8745 138.1058
L149.0649 138.2011
" />
<path d="M149.8268 140.2011
L149.9221 140.1058
" />
<path d="M149.9221 140.1058
L150.1126 139.8201
" />
<path d="M150.1126 139.8201
L150.2078 139.6296
" />
<path d="M150.2078 139.6296
L150.3030 139.3439
" />
<path d="M150.3030 139.3439
L150.3983 138.8677
" />
<path d="M150.3983 138.8677
L150.3983 138.4868
" />
<path d="M150.3983 138.4868
L150.3030 138.0106
" />
<path d="M150.3030 138.0106
L150.2078 137.7249
" />
<path d="M150.2078 137.7249
L150.1126 137.5344
" />
<path d="M150.1126 137.5344
L149.9221 137.2487
" />
<path d="M149.9221 137.2487
L149.8268 137.1534
" />
</g></g> 
</svg>
