<?xml version="1.0" standalone="no"?>
 <!DOCTYPE svg PUBLIC "-//W3C//DTD SVG 1.1//EN" 
 "http://www.w3.org/Graphics/SVG/1.1/DTD/svg11.dtd"> 
<svg
  xmlns:svg="http://www.w3.org/2000/svg"
  xmlns="http://www.w3.org/2000/svg"
  xmlns:xlink="http://www.w3.org/1999/xlink"
  version="1.1"
  width="149.9870mm" height="49.9872mm" viewBox="0.0000 0.0000 149.9870 49.9872">
<title>SVG Image created as kicad_images-pmcnv_count_open_collector_pnp.svg date 2025/08/02 10:49:40 </title>
  <desc>Image generated by Eeschema-SVG </desc>
<g style="fill:#000000; fill-opacity:1.0000;stroke:#000000; stroke-opacity:1.0000;
stroke-linecap:round; stroke-linejoin:round;"
 transform="translate(0 0) scale(1 1)">
<path style="fill:none; 
stroke:#000000; stroke-width:0.1524; stroke-opacity:1; 
stroke-linecap:round; stroke-linejoin:round;fill:none"
d="M 104.1400,20.3200
100.9650,20.3200
" /> 
<path style="fill:none; 
stroke:#000000; stroke-width:0.5080; stroke-opacity:1; 
stroke-linecap:round; stroke-linejoin:round;fill:none"
d="M 100.9650,18.4150
100.9650,22.2250
" /> 
</g>
<g style="fill:none; 
stroke:#000000; stroke-width:0.2540; stroke-opacity:1; 
stroke-linecap:round; stroke-linejoin:round;">
<circle cx="100.3300" cy="20.3200" r="2.8194" /> 
<path style="fill:none; 
stroke:#000000; stroke-width:0.1524; stroke-opacity:1; 
stroke-linecap:round; stroke-linejoin:round;fill:none"
d="M 100.9650,19.6850
99.0600,17.7800
" /> 
<path style="fill:none; 
stroke:#000000; stroke-width:0.1524; stroke-opacity:1; 
stroke-linecap:round; stroke-linejoin:round;fill:none"
d="M 100.9650,20.9550
99.0600,22.8600
" /> 
<path style="fill:#000000; fill-opacity:1.0000; 
stroke:#000000; stroke-width:0.1524; stroke-opacity:1; 
stroke-linecap:round; stroke-linejoin:round;fill-rule:evenodd;"
d="M 100.3300,22.0980
99.8220,21.5900
99.3140,22.6060
Z" /> 
</g>
<g style="fill:none; 
stroke:#000000; stroke-width:0.1524; stroke-opacity:1; 
stroke-linecap:round; stroke-linejoin:round;">
<path d="M104.1400 20.3200
L106.6800 20.3200
" />
<text x="105.4100" y="20.0660"
textLength="1.0372" font-size="1.6933" lengthAdjust="spacingAndGlyphs"
text-anchor="middle" opacity="0" stroke-opacity="0">B</text>
<g class="stroked-text"><desc>B</desc>
<path style="fill:#000000; fill-opacity:1.0000; stroke:none;fill-rule:evenodd;"
d="M 105.4548,18.5973
105.5265,18.6060
105.5958,18.6230
105.6571,18.6503
105.7104,18.6894
105.7539,18.7417
105.7744,18.7825
105.7874,18.8321
105.7921,18.8926
105.7886,18.9369
105.7779,18.9831
105.7602,19.0276
105.7352,19.0692
105.7032,19.1062
105.6624,19.1393
105.6150,19.1654
105.5576,19.1853
105.5576,19.1925
105.6099,19.2044
105.6598,19.2226
105.7059,19.2480
105.7460,19.2812
105.7794,19.3219
105.8064,19.3717
105.8234,19.4279
105.8295,19.4977
105.8248,19.5605
105.8113,19.6153
105.7895,19.6635
105.7432,19.7274
105.6847,19.7780
105.6160,19.8162
105.5363,19.8437
105.4521,19.8596
105.3658,19.8649
105.2947,19.8649
105.2094,19.8622
105.1206,19.8552
105.0424,19.8419
105.0424,19.7235
105.1898,19.7235
105.2253,19.7288
105.2751,19.7324
105.3302,19.7350
105.3800,19.7359
105.4362,19.7326
105.4901,19.7226
105.5408,19.7052
105.5842,19.6802
105.6210,19.6475
105.6491,19.6085
105.6668,19.5632
105.6731,19.5076
105.6652,19.4398
105.6438,19.3908
105.6100,19.3514
105.5674,19.3218
105.5181,19.3012
105.4616,19.2881
105.3444,19.2793
105.1898,19.2793
105.1898,19.7235
105.0424,19.7235
105.0424,18.7341
105.1898,18.7341
105.1898,19.1552
105.2822,19.1552
105.3551,19.1534
105.4261,19.1482
105.5061,19.1137
105.5417,19.0913
105.5728,19.0659
105.5990,19.0362
105.6189,19.0021
105.6315,18.9646
105.6358,18.9234
105.6298,18.8684
105.6135,18.8270
105.5876,18.7927
105.5541,18.7659
105.5147,18.7465
105.4688,18.7332
105.3711,18.7234
105.2636,18.7261
105.1898,18.7341
105.0424,18.7341
105.0424,18.6192
105.1952,18.6015
105.3853,18.5944
Z" /> 
</g></g>
<g style="fill:none; 
stroke:#000000; stroke-width:0.1524; stroke-opacity:1; 
stroke-linecap:round; stroke-linejoin:round;">
<path d="M99.0600 17.7800
L99.0600 15.2400
" />
<g transform="rotate(-90.000000 98.8060 16.5100)">
<text x="98.8060" y="16.5100"
textLength="1.0149" font-size="1.6933" lengthAdjust="spacingAndGlyphs"
text-anchor="middle" opacity="0" stroke-opacity="0">C</text>
</g>
<g class="stroked-text"><desc>C</desc>
<path style="fill:#000000; fill-opacity:1.0000; stroke:none;fill-rule:evenodd;"
d="M 98.5355,16.0703
98.5701,16.1290
98.5935,16.2054
98.6057,16.2886
98.6099,16.3795
98.6056,16.4534
98.5928,16.5230
98.5717,16.5891
98.5419,16.6514
98.5033,16.7081
98.4555,16.7597
98.4004,16.8037
98.3343,16.8423
98.2557,16.8752
98.1735,16.8981
98.0780,16.9127
97.9672,16.9179
97.8517,16.9121
97.7540,16.8959
97.6716,16.8708
97.5932,16.8349
97.5275,16.7933
97.4728,16.7464
97.4254,16.6921
97.3880,16.6345
97.3600,16.5732
97.3333,16.4760
97.3245,16.3777
97.3279,16.2760
97.3366,16.2036
97.3514,16.1389
97.3691,16.0881
97.4982,16.1236
97.4751,16.1824
97.4594,16.2617
97.4535,16.3670
97.4601,16.4391
97.4803,16.5110
97.5151,16.5777
97.5677,16.6381
97.6354,16.6871
97.7264,16.7278
97.7927,16.7457
97.8722,16.7573
97.9672,16.7615
98.0910,16.7530
98.1919,16.7296
98.2820,16.6906
98.3524,16.6416
98.4088,16.5805
98.4488,16.5101
98.4727,16.4320
98.4809,16.3457
98.4764,16.2685
98.4641,16.2063
98.4444,16.1498
98.4213,16.1059
Z" /> 
</g></g>
<g style="fill:none; 
stroke:#000000; stroke-width:0.1524; stroke-opacity:1; 
stroke-linecap:round; stroke-linejoin:round;">
<path d="M99.0600 22.8600
L99.0600 25.4000
" />
<g transform="rotate(-90.000000 98.8060 24.1300)">
<text x="98.8060" y="24.1300"
textLength="0.9528" font-size="1.6933" lengthAdjust="spacingAndGlyphs"
text-anchor="middle" opacity="0" stroke-opacity="0">E</text>
</g>
<g class="stroked-text"><desc>E</desc>
<path style="fill:#000000; fill-opacity:1.0000; stroke:none;fill-rule:evenodd;"
d="M 97.3443,24.4553
97.3443,23.7784
97.4734,23.7784
97.4734,24.3079
97.8853,24.3079
97.8853,23.8228
98.0143,23.8228
98.0143,24.3079
98.4610,24.3079
98.4610,23.7695
98.5901,23.7695
98.5901,24.4553
Z" /> 
</g></g> 
</svg>
