<?xml version="1.0" standalone="no"?>
 <!DOCTYPE svg PUBLIC "-//W3C//DTD SVG 1.1//EN" 
 "http://www.w3.org/Graphics/SVG/1.1/DTD/svg11.dtd"> 
<svg
  xmlns:svg="http://www.w3.org/2000/svg"
  xmlns="http://www.w3.org/2000/svg"
  xmlns:xlink="http://www.w3.org/1999/xlink"
  version="1.1"
  width="119.9896mm" height="54.9910mm" viewBox="0.0000 0.0000 119.9896 54.9910">
<title>SVG Image created as kicad_images-pmcnv_count_open_collector_npn.svg date 2025/08/14 10:04:10 </title>
  <desc>Image generated by Eeschema-SVG </desc>
<g style="fill:#000000; fill-opacity:1.0000;stroke:#000000; stroke-opacity:1.0000;
stroke-linecap:round; stroke-linejoin:round;"
 transform="translate(0 0) scale(1 1)">
</g>
<g style="fill:none; 
stroke:#000000; stroke-width:0.2540; stroke-opacity:1; 
stroke-linecap:round; stroke-linejoin:round;">
<rect x="44.704000" y="22.860000" width="2.032000" height="5.080000" rx="0.000000" />
</g>
<g style="fill:none; 
stroke:#000000; stroke-width:0.1524; stroke-opacity:1; 
stroke-linecap:round; stroke-linejoin:round;">
<path d="M45.7200 22.8600
L45.7200 21.5900
" />
<path d="M45.7200 27.9400
L45.7200 29.2100
" />
<text x="49.6109" y="26.0350"
textLength="2.6827" font-size="1.6933" lengthAdjust="spacingAndGlyphs"
text-anchor="middle" opacity="0" stroke-opacity="0">R2</text>
<g class="stroked-text"><desc>R2</desc>
<path d="M49.3992 25.9795
L48.9759 25.3748
" />
<path d="M48.6735 25.9795
L48.6735 24.7095
" />
<path d="M48.6735 24.7095
L49.1573 24.7095
" />
<path d="M49.1573 24.7095
L49.2783 24.7700
" />
<path d="M49.2783 24.7700
L49.3388 24.8305
" />
<path d="M49.3388 24.8305
L49.3992 24.9514
" />
<path d="M49.3992 24.9514
L49.3992 25.1329
" />
<path d="M49.3992 25.1329
L49.3388 25.2538
" />
<path d="M49.3388 25.2538
L49.2783 25.3143
" />
<path d="M49.2783 25.3143
L49.1573 25.3748
" />
<path d="M49.1573 25.3748
L48.6735 25.3748
" />
<path d="M49.8831 24.8305
L49.9435 24.7700
" />
<path d="M49.9435 24.7700
L50.0645 24.7095
" />
<path d="M50.0645 24.7095
L50.3669 24.7095
" />
<path d="M50.3669 24.7095
L50.4878 24.7700
" />
<path d="M50.4878 24.7700
L50.5483 24.8305
" />
<path d="M50.5483 24.8305
L50.6088 24.9514
" />
<path d="M50.6088 24.9514
L50.6088 25.0724
" />
<path d="M50.6088 25.0724
L50.5483 25.2538
" />
<path d="M50.5483 25.2538
L49.8226 25.9795
" />
<path d="M49.8226 25.9795
L50.6088 25.9795
" />
</g><path style="fill:none; 
stroke:#000000; stroke-width:0.1524; stroke-opacity:1; 
stroke-linecap:round; stroke-linejoin:round;fill:none"
d="M 81.2800,35.5600
78.1050,35.5600
" /> 
<path style="fill:none; 
stroke:#000000; stroke-width:0.5080; stroke-opacity:1; 
stroke-linecap:round; stroke-linejoin:round;fill:none"
d="M 78.1050,33.6550
78.1050,37.4650
" /> 
</g>
<g style="fill:none; 
stroke:#000000; stroke-width:0.2540; stroke-opacity:1; 
stroke-linecap:round; stroke-linejoin:round;">
<circle cx="77.4700" cy="35.5600" r="2.8194" /> 
<path style="fill:none; 
stroke:#000000; stroke-width:0.1524; stroke-opacity:1; 
stroke-linecap:round; stroke-linejoin:round;fill:none"
d="M 78.1050,34.9250
76.2000,33.0200
" /> 
<path style="fill:none; 
stroke:#000000; stroke-width:0.1524; stroke-opacity:1; 
stroke-linecap:round; stroke-linejoin:round;fill:none"
d="M 78.1050,36.1950
76.2000,38.1000
" /> 
<path style="fill:#000000; fill-opacity:1.0000; 
stroke:#000000; stroke-width:0.1524; stroke-opacity:1; 
stroke-linecap:round; stroke-linejoin:round;fill-rule:evenodd;"
d="M 77.4700,37.3380
76.9620,36.8300
76.4540,37.8460
Z" /> 
</g>
<g style="fill:none; 
stroke:#000000; stroke-width:0.1524; stroke-opacity:1; 
stroke-linecap:round; stroke-linejoin:round;">
<path d="M81.2800 35.5600
L83.8200 35.5600
" />
<text x="82.5500" y="35.3060"
textLength="1.4732" font-size="1.6933" lengthAdjust="spacingAndGlyphs"
text-anchor="middle" opacity="0" stroke-opacity="0">B</text>
<g class="stroked-text"><desc>B</desc>
<path d="M82.6407 34.4773
L82.8221 34.5378
" />
<path d="M82.8221 34.5378
L82.8826 34.5982
" />
<path d="M82.8826 34.5982
L82.9430 34.7192
" />
<path d="M82.9430 34.7192
L82.9430 34.9006
" />
<path d="M82.9430 34.9006
L82.8826 35.0216
" />
<path d="M82.8826 35.0216
L82.8221 35.0821
" />
<path d="M82.8221 35.0821
L82.7011 35.1425
" />
<path d="M82.7011 35.1425
L82.2173 35.1425
" />
<path d="M82.2173 35.1425
L82.2173 33.8725
" />
<path d="M82.2173 33.8725
L82.6407 33.8725
" />
<path d="M82.6407 33.8725
L82.7616 33.9330
" />
<path d="M82.7616 33.9330
L82.8221 33.9935
" />
<path d="M82.8221 33.9935
L82.8826 34.1144
" />
<path d="M82.8826 34.1144
L82.8826 34.2354
" />
<path d="M82.8826 34.2354
L82.8221 34.3563
" />
<path d="M82.8221 34.3563
L82.7616 34.4168
" />
<path d="M82.7616 34.4168
L82.6407 34.4773
" />
<path d="M82.6407 34.4773
L82.2173 34.4773
" />
</g><path d="M76.2000 33.0200
L76.2000 30.4800
" />
<g transform="rotate(-90.000000 75.9460 31.7500)">
<text x="75.9460" y="31.7500"
textLength="1.4732" font-size="1.6933" lengthAdjust="spacingAndGlyphs"
text-anchor="middle" opacity="0" stroke-opacity="0">C</text>
</g>
<g class="stroked-text"><desc>C</desc>
<path d="M75.6616 31.3569
L75.7221 31.4173
" />
<path d="M75.7221 31.4173
L75.7825 31.5988
" />
<path d="M75.7825 31.5988
L75.7825 31.7197
" />
<path d="M75.7825 31.7197
L75.7221 31.9011
" />
<path d="M75.7221 31.9011
L75.6011 32.0221
" />
<path d="M75.6011 32.0221
L75.4801 32.0826
" />
<path d="M75.4801 32.0826
L75.2382 32.1430
" />
<path d="M75.2382 32.1430
L75.0568 32.1430
" />
<path d="M75.0568 32.1430
L74.8149 32.0826
" />
<path d="M74.8149 32.0826
L74.6940 32.0221
" />
<path d="M74.6940 32.0221
L74.5730 31.9011
" />
<path d="M74.5730 31.9011
L74.5125 31.7197
" />
<path d="M74.5125 31.7197
L74.5125 31.5988
" />
<path d="M74.5125 31.5988
L74.5730 31.4173
" />
<path d="M74.5730 31.4173
L74.6335 31.3569
" />
</g><path d="M76.2000 38.1000
L76.2000 40.6400
" />
<g transform="rotate(-90.000000 75.9460 39.3700)">
<text x="75.9460" y="39.3700"
textLength="1.3522" font-size="1.6933" lengthAdjust="spacingAndGlyphs"
text-anchor="middle" opacity="0" stroke-opacity="0">E</text>
</g>
<g class="stroked-text"><desc>E</desc>
<path d="M75.1173 39.6421
L75.1173 39.2187
" />
<path d="M75.7825 39.0373
L75.7825 39.6421
" />
<path d="M75.7825 39.6421
L74.5125 39.6421
" />
<path d="M74.5125 39.6421
L74.5125 39.0373
" />
</g></g>
<g style="fill:none; 
stroke:#000000; stroke-width:0.2540; stroke-opacity:1; 
stroke-linecap:round; stroke-linejoin:round;">
<rect x="44.704000" y="12.700000" width="2.032000" height="5.080000" rx="0.000000" />
</g>
<g style="fill:none; 
stroke:#000000; stroke-width:0.1524; stroke-opacity:1; 
stroke-linecap:round; stroke-linejoin:round;">
<path d="M45.7200 12.7000
L45.7200 11.4300
" />
<path d="M45.7200 17.7800
L45.7200 19.0500
" />
<text x="49.6109" y="15.8749"
textLength="2.6827" font-size="1.6933" lengthAdjust="spacingAndGlyphs"
text-anchor="middle" opacity="0" stroke-opacity="0">R1</text>
<g class="stroked-text"><desc>R1</desc>
<path d="M49.3992 15.8194
L48.9759 15.2147
" />
<path d="M48.6735 15.8194
L48.6735 14.5494
" />
<path d="M48.6735 14.5494
L49.1573 14.5494
" />
<path d="M49.1573 14.5494
L49.2783 14.6099
" />
<path d="M49.2783 14.6099
L49.3388 14.6704
" />
<path d="M49.3388 14.6704
L49.3992 14.7913
" />
<path d="M49.3992 14.7913
L49.3992 14.9728
" />
<path d="M49.3992 14.9728
L49.3388 15.0937
" />
<path d="M49.3388 15.0937
L49.2783 15.1542
" />
<path d="M49.2783 15.1542
L49.1573 15.2147
" />
<path d="M49.1573 15.2147
L48.6735 15.2147
" />
<path d="M50.6088 15.8194
L49.8831 15.8194
" />
<path d="M50.2459 15.8194
L50.2459 14.5494
" />
<path d="M50.2459 14.5494
L50.1250 14.7309
" />
<path d="M50.1250 14.7309
L50.0040 14.8518
" />
<path d="M50.0040 14.8518
L49.8831 14.9123
" />
</g><path style="fill:none; 
stroke:#000000; stroke-width:0.1524; stroke-opacity:1; 
stroke-linecap:round; stroke-linejoin:round;fill:none"
d="M 50.0380,8.8900
50.8000,7.6200
" /> 
<path style="fill:none; 
stroke:#000000; stroke-width:0.1524; stroke-opacity:1; 
stroke-linecap:round; stroke-linejoin:round;fill:none"
d="M 50.8000,7.6200
51.5620,8.8900
" /> 
<path style="fill:none; 
stroke:#000000; stroke-width:0.1524; stroke-opacity:1; 
stroke-linecap:round; stroke-linejoin:round;fill:none"
d="M 50.8000,10.1600
50.8000,7.6200
" /> 
<path d="M50.8000 10.1600
L50.8000 10.1600
" />
<text x="50.8000" y="5.7150"
textLength="5.2832" font-size="1.6933" lengthAdjust="spacingAndGlyphs"
text-anchor="middle" opacity="0" stroke-opacity="0">+24V</text>
<g class="stroked-text"><desc>+24V</desc>
<path d="M48.5623 5.1757
L49.5300 5.1757
" />
<path d="M49.0461 5.6595
L49.0461 4.6919
" />
<path d="M50.0743 4.5105
L50.1347 4.4500
" />
<path d="M50.1347 4.4500
L50.2557 4.3895
" />
<path d="M50.2557 4.3895
L50.5581 4.3895
" />
<path d="M50.5581 4.3895
L50.6790 4.4500
" />
<path d="M50.6790 4.4500
L50.7395 4.5105
" />
<path d="M50.7395 4.5105
L50.8000 4.6314
" />
<path d="M50.8000 4.6314
L50.8000 4.7524
" />
<path d="M50.8000 4.7524
L50.7395 4.9338
" />
<path d="M50.7395 4.9338
L50.0138 5.6595
" />
<path d="M50.0138 5.6595
L50.8000 5.6595
" />
<path d="M51.8885 4.8129
L51.8885 5.6595
" />
<path d="M51.5861 4.3291
L51.2838 5.2362
" />
<path d="M51.2838 5.2362
L52.0699 5.2362
" />
<path d="M52.3723 4.3895
L52.7956 5.6595
" />
<path d="M52.7956 5.6595
L53.2190 4.3895
" />
</g><path style="fill:none; 
stroke:#000000; stroke-width:0.1524; stroke-opacity:1; 
stroke-linecap:round; stroke-linejoin:round;fill:none"
d="M 50.8000,40.6400
50.8000,41.9100
52.0700,41.9100
50.8000,43.1800
49.5300,41.9100
50.8000,41.9100
" /> 
<path d="M50.8000 40.6400
L50.8000 40.6400
" />
<text x="50.8000" y="46.3550"
textLength="4.0737" font-size="1.6933" lengthAdjust="spacingAndGlyphs"
text-anchor="middle" opacity="0" stroke-opacity="0">GND</text>
<g class="stroked-text"><desc>GND</desc>
<path d="M49.8324 45.0900
L49.7114 45.0295
" />
<path d="M49.7114 45.0295
L49.5300 45.0295
" />
<path d="M49.5300 45.0295
L49.3486 45.0900
" />
<path d="M49.3486 45.0900
L49.2276 45.2110
" />
<path d="M49.2276 45.2110
L49.1671 45.3319
" />
<path d="M49.1671 45.3319
L49.1067 45.5738
" />
<path d="M49.1067 45.5738
L49.1067 45.7552
" />
<path d="M49.1067 45.7552
L49.1671 45.9971
" />
<path d="M49.1671 45.9971
L49.2276 46.1181
" />
<path d="M49.2276 46.1181
L49.3486 46.2391
" />
<path d="M49.3486 46.2391
L49.5300 46.2995
" />
<path d="M49.5300 46.2995
L49.6509 46.2995
" />
<path d="M49.6509 46.2995
L49.8324 46.2391
" />
<path d="M49.8324 46.2391
L49.8928 46.1786
" />
<path d="M49.8928 46.1786
L49.8928 45.7552
" />
<path d="M49.8928 45.7552
L49.6509 45.7552
" />
<path d="M50.4371 46.2995
L50.4371 45.0295
" />
<path d="M50.4371 45.0295
L51.1628 46.2995
" />
<path d="M51.1628 46.2995
L51.1628 45.0295
" />
<path d="M51.7676 46.2995
L51.7676 45.0295
" />
<path d="M51.7676 45.0295
L52.0700 45.0295
" />
<path d="M52.0700 45.0295
L52.2514 45.0900
" />
<path d="M52.2514 45.0900
L52.3724 45.2110
" />
<path d="M52.3724 45.2110
L52.4329 45.3319
" />
<path d="M52.4329 45.3319
L52.4933 45.5738
" />
<path d="M52.4933 45.5738
L52.4933 45.7552
" />
<path d="M52.4933 45.7552
L52.4329 45.9971
" />
<path d="M52.4329 45.9971
L52.3724 46.1181
" />
<path d="M52.3724 46.1181
L52.2514 46.2391
" />
<path d="M52.2514 46.2391
L52.0700 46.2995
" />
<path d="M52.0700 46.2995
L51.7676 46.2995
" />
</g><path d="M45.7200 30.4800
L45.7200 29.2100
" />
<path d="M38.1000 20.3200
L45.7200 20.3200
" />
<path d="M50.8000 10.1600
L91.4400 10.1600
" />
<path d="M45.7200 10.1600
L50.8000 10.1600
" />
<path d="M45.7200 11.4300
L45.7200 10.1600
" />
<path d="M38.1000 10.1600
L45.7200 10.1600
" />
<path d="M45.7200 19.0500
L45.7200 20.3200
" />
<path d="M76.2000 40.6400
L91.4400 40.6400
" />
<path d="M45.7200 20.3200
L45.7200 21.5900
" />
<path d="M45.7200 30.4800
L76.2000 30.4800
" />
<path d="M50.8000 40.6400
L76.2000 40.6400
" />
<path d="M83.8200 35.5600
L91.4400 35.5600
" />
</g>
<g style="fill:none; 
stroke:#000000; stroke-width:0.1524; stroke-opacity:1; 
stroke-linecap:round; stroke-linejoin:round;">
<text x="36.8300" y="20.7050"
textLength="3.6504" font-size="1.6933" lengthAdjust="spacingAndGlyphs"
text-anchor="end" opacity="0" stroke-opacity="0">AHx</text>
<g class="stroked-text"><desc>AHx</desc>
<path d="M33.5245 20.2867
L34.1292 20.2867
" />
<path d="M33.4035 20.6495
L33.8268 19.3795
" />
<path d="M33.8268 19.3795
L34.2502 20.6495
" />
<path d="M34.6735 20.6495
L34.6735 19.3795
" />
<path d="M34.6735 19.9843
L35.3992 19.9843
" />
<path d="M35.3992 20.6495
L35.3992 19.3795
" />
<path d="M35.8831 20.6495
L36.5483 19.8029
" />
<path d="M35.8831 19.8029
L36.5483 20.6495
" />
</g></g>
<g style="fill:none; 
stroke:#000000; stroke-width:0.1524; stroke-opacity:1; 
stroke-linecap:round; stroke-linejoin:round;">
<text x="38.1000" y="51.1850"
textLength="7.0369" font-size="1.6933" lengthAdjust="spacingAndGlyphs"
text-anchor="middle" opacity="0" stroke-opacity="0">Модуль</text>
<g class="stroked-text"><desc>Модуль</desc>
<path d="M34.9855 51.1295
L34.9855 49.8595
" />
<path d="M34.9855 49.8595
L35.4089 50.7667
" />
<path d="M35.4089 50.7667
L35.8322 49.8595
" />
<path d="M35.8322 49.8595
L35.8322 51.1295
" />
<path d="M36.6184 51.1295
L36.4974 51.0691
" />
<path d="M36.4974 51.0691
L36.4369 51.0086
" />
<path d="M36.4369 51.0086
L36.3765 50.8876
" />
<path d="M36.3765 50.8876
L36.3765 50.5248
" />
<path d="M36.3765 50.5248
L36.4369 50.4038
" />
<path d="M36.4369 50.4038
L36.4974 50.3433
" />
<path d="M36.4974 50.3433
L36.6184 50.2829
" />
<path d="M36.6184 50.2829
L36.7998 50.2829
" />
<path d="M36.7998 50.2829
L36.9207 50.3433
" />
<path d="M36.9207 50.3433
L36.9812 50.4038
" />
<path d="M36.9812 50.4038
L37.0417 50.5248
" />
<path d="M37.0417 50.5248
L37.0417 50.8876
" />
<path d="M37.0417 50.8876
L36.9812 51.0086
" />
<path d="M36.9812 51.0086
L36.9207 51.0691
" />
<path d="M36.9207 51.0691
L36.7998 51.1295
" />
<path d="M36.7998 51.1295
L36.6184 51.1295
" />
<path d="M38.1907 50.4038
L38.1302 50.3433
" />
<path d="M38.1302 50.3433
L38.0093 50.2829
" />
<path d="M38.0093 50.2829
L37.7674 50.2829
" />
<path d="M37.7674 50.2829
L37.6464 50.3433
" />
<path d="M37.6464 50.3433
L37.5859 50.4038
" />
<path d="M37.5859 50.4038
L37.5255 50.5248
" />
<path d="M37.5255 50.5248
L37.5255 50.8876
" />
<path d="M37.5255 50.8876
L37.5859 51.0086
" />
<path d="M37.5859 51.0086
L37.6464 51.0691
" />
<path d="M37.6464 51.0691
L37.7674 51.1295
" />
<path d="M37.7674 51.1295
L37.9488 51.1295
" />
<path d="M37.9488 51.1295
L38.0697 51.0691
" />
<path d="M38.0697 51.0691
L38.1302 51.0086
" />
<path d="M38.1302 51.0086
L38.1907 50.8876
" />
<path d="M38.1907 50.8876
L38.1907 50.1014
" />
<path d="M38.1907 50.1014
L38.1302 49.9805
" />
<path d="M38.1302 49.9805
L38.0697 49.9200
" />
<path d="M38.0697 49.9200
L37.9488 49.8595
" />
<path d="M37.9488 49.8595
L37.7069 49.8595
" />
<path d="M37.7069 49.8595
L37.5859 49.9200
" />
<path d="M38.6140 50.2829
L38.9164 51.1295
" />
<path d="M39.2187 50.2829
L38.9164 51.1295
" />
<path d="M38.9164 51.1295
L38.7954 51.4319
" />
<path d="M38.7954 51.4319
L38.7349 51.4924
" />
<path d="M38.7349 51.4924
L38.6140 51.5529
" />
<path d="M40.1863 51.1295
L40.1863 50.2829
" />
<path d="M40.1863 50.2829
L40.0049 50.2829
" />
<path d="M40.0049 50.2829
L39.8840 50.3433
" />
<path d="M39.8840 50.3433
L39.8235 50.4643
" />
<path d="M39.8235 50.4643
L39.7630 50.9481
" />
<path d="M39.7630 50.9481
L39.7025 51.0691
" />
<path d="M39.7025 51.0691
L39.5816 51.1295
" />
<path d="M40.7911 50.2829
L40.7911 51.1295
" />
<path d="M40.7911 51.1295
L41.0935 51.1295
" />
<path d="M41.0935 51.1295
L41.2145 51.0691
" />
<path d="M41.2145 51.0691
L41.2749 50.9481
" />
<path d="M41.2749 50.9481
L41.2749 50.7667
" />
<path d="M41.2749 50.7667
L41.2145 50.6457
" />
<path d="M41.2145 50.6457
L41.0935 50.5852
" />
<path d="M41.0935 50.5852
L40.7911 50.5852
" />
</g></g>
<g style="fill:none; 
stroke:#000000; stroke-width:0.1524; stroke-opacity:1; 
stroke-linecap:round; stroke-linejoin:round;">
<text x="30.4800" y="15.6250"
textLength="12.0565" font-size="1.6933" lengthAdjust="spacingAndGlyphs"
text-anchor="middle" opacity="0" stroke-opacity="0">CA-IS3988P</text>
<g class="stroked-text"><desc>CA-IS3988P</desc>
<path d="M25.5814 15.4486
L25.5210 15.5091
" />
<path d="M25.5210 15.5091
L25.3395 15.5695
" />
<path d="M25.3395 15.5695
L25.2186 15.5695
" />
<path d="M25.2186 15.5695
L25.0372 15.5091
" />
<path d="M25.0372 15.5091
L24.9162 15.3881
" />
<path d="M24.9162 15.3881
L24.8557 15.2671
" />
<path d="M24.8557 15.2671
L24.7953 15.0252
" />
<path d="M24.7953 15.0252
L24.7953 14.8438
" />
<path d="M24.7953 14.8438
L24.8557 14.6019
" />
<path d="M24.8557 14.6019
L24.9162 14.4810
" />
<path d="M24.9162 14.4810
L25.0372 14.3600
" />
<path d="M25.0372 14.3600
L25.2186 14.2995
" />
<path d="M25.2186 14.2995
L25.3395 14.2995
" />
<path d="M25.3395 14.2995
L25.5210 14.3600
" />
<path d="M25.5210 14.3600
L25.5814 14.4205
" />
<path d="M26.0653 15.2067
L26.6700 15.2067
" />
<path d="M25.9443 15.5695
L26.3676 14.2995
" />
<path d="M26.3676 14.2995
L26.7910 15.5695
" />
<path d="M27.2143 15.0857
L28.1820 15.0857
" />
<path d="M28.7867 15.5695
L28.7867 14.2995
" />
<path d="M29.3311 15.5091
L29.5125 15.5695
" />
<path d="M29.5125 15.5695
L29.8149 15.5695
" />
<path d="M29.8149 15.5695
L29.9358 15.5091
" />
<path d="M29.9358 15.5091
L29.9963 15.4486
" />
<path d="M29.9963 15.4486
L30.0568 15.3276
" />
<path d="M30.0568 15.3276
L30.0568 15.2067
" />
<path d="M30.0568 15.2067
L29.9963 15.0857
" />
<path d="M29.9963 15.0857
L29.9358 15.0252
" />
<path d="M29.9358 15.0252
L29.8149 14.9648
" />
<path d="M29.8149 14.9648
L29.5730 14.9043
" />
<path d="M29.5730 14.9043
L29.4520 14.8438
" />
<path d="M29.4520 14.8438
L29.3915 14.7833
" />
<path d="M29.3915 14.7833
L29.3311 14.6624
" />
<path d="M29.3311 14.6624
L29.3311 14.5414
" />
<path d="M29.3311 14.5414
L29.3915 14.4205
" />
<path d="M29.3915 14.4205
L29.4520 14.3600
" />
<path d="M29.4520 14.3600
L29.5730 14.2995
" />
<path d="M29.5730 14.2995
L29.8753 14.2995
" />
<path d="M29.8753 14.2995
L30.0568 14.3600
" />
<path d="M30.4801 14.2995
L31.2663 14.2995
" />
<path d="M31.2663 14.2995
L30.8429 14.7833
" />
<path d="M30.8429 14.7833
L31.0244 14.7833
" />
<path d="M31.0244 14.7833
L31.1453 14.8438
" />
<path d="M31.1453 14.8438
L31.2058 14.9043
" />
<path d="M31.2058 14.9043
L31.2663 15.0252
" />
<path d="M31.2663 15.0252
L31.2663 15.3276
" />
<path d="M31.2663 15.3276
L31.2058 15.4486
" />
<path d="M31.2058 15.4486
L31.1453 15.5091
" />
<path d="M31.1453 15.5091
L31.0244 15.5695
" />
<path d="M31.0244 15.5695
L30.6615 15.5695
" />
<path d="M30.6615 15.5695
L30.5406 15.5091
" />
<path d="M30.5406 15.5091
L30.4801 15.4486
" />
<path d="M31.8710 15.5695
L32.1129 15.5695
" />
<path d="M32.1129 15.5695
L32.2339 15.5091
" />
<path d="M32.2339 15.5091
L32.2943 15.4486
" />
<path d="M32.2943 15.4486
L32.4153 15.2671
" />
<path d="M32.4153 15.2671
L32.4758 15.0252
" />
<path d="M32.4758 15.0252
L32.4758 14.5414
" />
<path d="M32.4758 14.5414
L32.4153 14.4205
" />
<path d="M32.4153 14.4205
L32.3548 14.3600
" />
<path d="M32.3548 14.3600
L32.2339 14.2995
" />
<path d="M32.2339 14.2995
L31.9920 14.2995
" />
<path d="M31.9920 14.2995
L31.8710 14.3600
" />
<path d="M31.8710 14.3600
L31.8105 14.4205
" />
<path d="M31.8105 14.4205
L31.7501 14.5414
" />
<path d="M31.7501 14.5414
L31.7501 14.8438
" />
<path d="M31.7501 14.8438
L31.8105 14.9648
" />
<path d="M31.8105 14.9648
L31.8710 15.0252
" />
<path d="M31.8710 15.0252
L31.9920 15.0857
" />
<path d="M31.9920 15.0857
L32.2339 15.0857
" />
<path d="M32.2339 15.0857
L32.3548 15.0252
" />
<path d="M32.3548 15.0252
L32.4153 14.9648
" />
<path d="M32.4153 14.9648
L32.4758 14.8438
" />
<path d="M33.2015 14.8438
L33.0805 14.7833
" />
<path d="M33.0805 14.7833
L33.0200 14.7229
" />
<path d="M33.0200 14.7229
L32.9596 14.6019
" />
<path d="M32.9596 14.6019
L32.9596 14.5414
" />
<path d="M32.9596 14.5414
L33.0200 14.4205
" />
<path d="M33.0200 14.4205
L33.0805 14.3600
" />
<path d="M33.0805 14.3600
L33.2015 14.2995
" />
<path d="M33.2015 14.2995
L33.4434 14.2995
" />
<path d="M33.4434 14.2995
L33.5643 14.3600
" />
<path d="M33.5643 14.3600
L33.6248 14.4205
" />
<path d="M33.6248 14.4205
L33.6853 14.5414
" />
<path d="M33.6853 14.5414
L33.6853 14.6019
" />
<path d="M33.6853 14.6019
L33.6248 14.7229
" />
<path d="M33.6248 14.7229
L33.5643 14.7833
" />
<path d="M33.5643 14.7833
L33.4434 14.8438
" />
<path d="M33.4434 14.8438
L33.2015 14.8438
" />
<path d="M33.2015 14.8438
L33.0805 14.9043
" />
<path d="M33.0805 14.9043
L33.0200 14.9648
" />
<path d="M33.0200 14.9648
L32.9596 15.0857
" />
<path d="M32.9596 15.0857
L32.9596 15.3276
" />
<path d="M32.9596 15.3276
L33.0200 15.4486
" />
<path d="M33.0200 15.4486
L33.0805 15.5091
" />
<path d="M33.0805 15.5091
L33.2015 15.5695
" />
<path d="M33.2015 15.5695
L33.4434 15.5695
" />
<path d="M33.4434 15.5695
L33.5643 15.5091
" />
<path d="M33.5643 15.5091
L33.6248 15.4486
" />
<path d="M33.6248 15.4486
L33.6853 15.3276
" />
<path d="M33.6853 15.3276
L33.6853 15.0857
" />
<path d="M33.6853 15.0857
L33.6248 14.9648
" />
<path d="M33.6248 14.9648
L33.5643 14.9043
" />
<path d="M33.5643 14.9043
L33.4434 14.8438
" />
<path d="M34.4110 14.8438
L34.2900 14.7833
" />
<path d="M34.2900 14.7833
L34.2295 14.7229
" />
<path d="M34.2295 14.7229
L34.1691 14.6019
" />
<path d="M34.1691 14.6019
L34.1691 14.5414
" />
<path d="M34.1691 14.5414
L34.2295 14.4205
" />
<path d="M34.2295 14.4205
L34.2900 14.3600
" />
<path d="M34.2900 14.3600
L34.4110 14.2995
" />
<path d="M34.4110 14.2995
L34.6529 14.2995
" />
<path d="M34.6529 14.2995
L34.7738 14.3600
" />
<path d="M34.7738 14.3600
L34.8343 14.4205
" />
<path d="M34.8343 14.4205
L34.8948 14.5414
" />
<path d="M34.8948 14.5414
L34.8948 14.6019
" />
<path d="M34.8948 14.6019
L34.8343 14.7229
" />
<path d="M34.8343 14.7229
L34.7738 14.7833
" />
<path d="M34.7738 14.7833
L34.6529 14.8438
" />
<path d="M34.6529 14.8438
L34.4110 14.8438
" />
<path d="M34.4110 14.8438
L34.2900 14.9043
" />
<path d="M34.2900 14.9043
L34.2295 14.9648
" />
<path d="M34.2295 14.9648
L34.1691 15.0857
" />
<path d="M34.1691 15.0857
L34.1691 15.3276
" />
<path d="M34.1691 15.3276
L34.2295 15.4486
" />
<path d="M34.2295 15.4486
L34.2900 15.5091
" />
<path d="M34.2900 15.5091
L34.4110 15.5695
" />
<path d="M34.4110 15.5695
L34.6529 15.5695
" />
<path d="M34.6529 15.5695
L34.7738 15.5091
" />
<path d="M34.7738 15.5091
L34.8343 15.4486
" />
<path d="M34.8343 15.4486
L34.8948 15.3276
" />
<path d="M34.8948 15.3276
L34.8948 15.0857
" />
<path d="M34.8948 15.0857
L34.8343 14.9648
" />
<path d="M34.8343 14.9648
L34.7738 14.9043
" />
<path d="M34.7738 14.9043
L34.6529 14.8438
" />
<path d="M35.4390 15.5695
L35.4390 14.2995
" />
<path d="M35.4390 14.2995
L35.9228 14.2995
" />
<path d="M35.9228 14.2995
L36.0438 14.3600
" />
<path d="M36.0438 14.3600
L36.1043 14.4205
" />
<path d="M36.1043 14.4205
L36.1647 14.5414
" />
<path d="M36.1647 14.5414
L36.1647 14.7229
" />
<path d="M36.1647 14.7229
L36.1043 14.8438
" />
<path d="M36.1043 14.8438
L36.0438 14.9043
" />
<path d="M36.0438 14.9043
L35.9228 14.9648
" />
<path d="M35.9228 14.9648
L35.4390 14.9648
" />
</g></g>
<g style="fill:none; 
stroke:#000000; stroke-width:0.1524; stroke-opacity:1; 
stroke-linecap:round; stroke-linejoin:round;">
<text x="36.8300" y="10.5450"
textLength="4.2551" font-size="1.6933" lengthAdjust="spacingAndGlyphs"
text-anchor="end" opacity="0" stroke-opacity="0">COM</text>
<g class="stroked-text"><desc>COM</desc>
<path d="M33.7059 10.3686
L33.6455 10.4291
" />
<path d="M33.6455 10.4291
L33.4640 10.4895
" />
<path d="M33.4640 10.4895
L33.3431 10.4895
" />
<path d="M33.3431 10.4895
L33.1617 10.4291
" />
<path d="M33.1617 10.4291
L33.0407 10.3081
" />
<path d="M33.0407 10.3081
L32.9802 10.1871
" />
<path d="M32.9802 10.1871
L32.9198 9.9452
" />
<path d="M32.9198 9.9452
L32.9198 9.7638
" />
<path d="M32.9198 9.7638
L32.9802 9.5219
" />
<path d="M32.9802 9.5219
L33.0407 9.4010
" />
<path d="M33.0407 9.4010
L33.1617 9.2800
" />
<path d="M33.1617 9.2800
L33.3431 9.2195
" />
<path d="M33.3431 9.2195
L33.4640 9.2195
" />
<path d="M33.4640 9.2195
L33.6455 9.2800
" />
<path d="M33.6455 9.2800
L33.7059 9.3405
" />
<path d="M34.4921 9.2195
L34.7340 9.2195
" />
<path d="M34.7340 9.2195
L34.8550 9.2800
" />
<path d="M34.8550 9.2800
L34.9759 9.4010
" />
<path d="M34.9759 9.4010
L35.0364 9.6429
" />
<path d="M35.0364 9.6429
L35.0364 10.0662
" />
<path d="M35.0364 10.0662
L34.9759 10.3081
" />
<path d="M34.9759 10.3081
L34.8550 10.4291
" />
<path d="M34.8550 10.4291
L34.7340 10.4895
" />
<path d="M34.7340 10.4895
L34.4921 10.4895
" />
<path d="M34.4921 10.4895
L34.3712 10.4291
" />
<path d="M34.3712 10.4291
L34.2502 10.3081
" />
<path d="M34.2502 10.3081
L34.1898 10.0662
" />
<path d="M34.1898 10.0662
L34.1898 9.6429
" />
<path d="M34.1898 9.6429
L34.2502 9.4010
" />
<path d="M34.2502 9.4010
L34.3712 9.2800
" />
<path d="M34.3712 9.2800
L34.4921 9.2195
" />
<path d="M35.5807 10.4895
L35.5807 9.2195
" />
<path d="M35.5807 9.2195
L36.0041 10.1267
" />
<path d="M36.0041 10.1267
L36.4274 9.2195
" />
<path d="M36.4274 9.2195
L36.4274 10.4895
" />
</g></g>
<g style="fill:none; 
stroke:#000000; stroke-width:0.1524; stroke-opacity:1; 
stroke-linecap:round; stroke-linejoin:round;">
<text x="57.1500" y="29.5950"
textLength="3.4084" font-size="1.6933" lengthAdjust="spacingAndGlyphs"
text-anchor="start" opacity="0" stroke-opacity="0">Out</text>
<g class="stroked-text"><desc>Out</desc>
<path d="M57.7944 28.2695
L58.0363 28.2695
" />
<path d="M58.0363 28.2695
L58.1573 28.3300
" />
<path d="M58.1573 28.3300
L58.2782 28.4510
" />
<path d="M58.2782 28.4510
L58.3387 28.6929
" />
<path d="M58.3387 28.6929
L58.3387 29.1162
" />
<path d="M58.3387 29.1162
L58.2782 29.3581
" />
<path d="M58.2782 29.3581
L58.1573 29.4791
" />
<path d="M58.1573 29.4791
L58.0363 29.5395
" />
<path d="M58.0363 29.5395
L57.7944 29.5395
" />
<path d="M57.7944 29.5395
L57.6735 29.4791
" />
<path d="M57.6735 29.4791
L57.5525 29.3581
" />
<path d="M57.5525 29.3581
L57.4921 29.1162
" />
<path d="M57.4921 29.1162
L57.4921 28.6929
" />
<path d="M57.4921 28.6929
L57.5525 28.4510
" />
<path d="M57.5525 28.4510
L57.6735 28.3300
" />
<path d="M57.6735 28.3300
L57.7944 28.2695
" />
<path d="M59.4273 28.6929
L59.4273 29.5395
" />
<path d="M58.8830 28.6929
L58.8830 29.3581
" />
<path d="M58.8830 29.3581
L58.9435 29.4791
" />
<path d="M58.9435 29.4791
L59.0645 29.5395
" />
<path d="M59.0645 29.5395
L59.2459 29.5395
" />
<path d="M59.2459 29.5395
L59.3668 29.4791
" />
<path d="M59.3668 29.4791
L59.4273 29.4186
" />
<path d="M59.8506 28.6929
L60.3344 28.6929
" />
<path d="M60.0320 28.2695
L60.0320 29.3581
" />
<path d="M60.0320 29.3581
L60.0925 29.4791
" />
<path d="M60.0925 29.4791
L60.2135 29.5395
" />
<path d="M60.2135 29.5395
L60.3344 29.5395
" />
</g></g>
<g style="fill:none; 
stroke:#000000; stroke-width:0.1524; stroke-opacity:1; 
stroke-linecap:round; stroke-linejoin:round;">
<text x="67.3100" y="9.2750"
textLength="2.8037" font-size="1.6933" lengthAdjust="spacingAndGlyphs"
text-anchor="end" opacity="0" stroke-opacity="0">L+</text>
<g class="stroked-text"><desc>L+</desc>
<path d="M65.5164 9.2195
L64.9116 9.2195
" />
<path d="M64.9116 9.2195
L64.9116 7.9495
" />
<path d="M65.9397 8.7357
L66.9074 8.7357
" />
<path d="M66.4235 9.2195
L66.4235 8.2519
" />
</g></g>
<g style="fill:none; 
stroke:#000000; stroke-width:0.1524; stroke-opacity:1; 
stroke-linecap:round; stroke-linejoin:round;">
<text x="57.1500" y="9.2750"
textLength="2.8037" font-size="1.6933" lengthAdjust="spacingAndGlyphs"
text-anchor="start" opacity="0" stroke-opacity="0">L+</text>
<g class="stroked-text"><desc>L+</desc>
<path d="M58.1573 9.2195
L57.5525 9.2195
" />
<path d="M57.5525 9.2195
L57.5525 7.9495
" />
<path d="M58.5806 8.7357
L59.5483 8.7357
" />
<path d="M59.0644 9.2195
L59.0644 8.2519
" />
</g></g>
<g style="fill:none; 
stroke:#000000; stroke-width:0.1524; stroke-opacity:1; 
stroke-linecap:round; stroke-linejoin:round;">
<text x="83.8200" y="51.1850"
textLength="8.1859" font-size="1.6933" lengthAdjust="spacingAndGlyphs"
text-anchor="middle" opacity="0" stroke-opacity="0">Энкодер</text>
<g class="stroked-text"><desc>Энкодер</desc>
<path d="M80.8567 50.5248
L80.2520 50.5248
" />
<path d="M80.0706 49.9805
L80.1310 49.9200
" />
<path d="M80.1310 49.9200
L80.3125 49.8595
" />
<path d="M80.3125 49.8595
L80.4334 49.8595
" />
<path d="M80.4334 49.8595
L80.6148 49.9200
" />
<path d="M80.6148 49.9200
L80.7358 50.0410
" />
<path d="M80.7358 50.0410
L80.7963 50.1619
" />
<path d="M80.7963 50.1619
L80.8567 50.4038
" />
<path d="M80.8567 50.4038
L80.8567 50.5852
" />
<path d="M80.8567 50.5852
L80.7963 50.8271
" />
<path d="M80.7963 50.8271
L80.7358 50.9481
" />
<path d="M80.7358 50.9481
L80.6148 51.0691
" />
<path d="M80.6148 51.0691
L80.4334 51.1295
" />
<path d="M80.4334 51.1295
L80.3125 51.1295
" />
<path d="M80.3125 51.1295
L80.1310 51.0691
" />
<path d="M80.1310 51.0691
L80.0706 51.0086
" />
<path d="M81.4010 50.7062
L81.9453 50.7062
" />
<path d="M81.4010 50.2829
L81.4010 51.1295
" />
<path d="M81.9453 50.2829
L81.9453 51.1295
" />
<path d="M82.5500 50.2829
L82.5500 51.1295
" />
<path d="M82.6710 50.6457
L83.0338 51.1295
" />
<path d="M83.0338 50.2829
L82.5500 50.7667
" />
<path d="M83.7596 51.1295
L83.6386 51.0691
" />
<path d="M83.6386 51.0691
L83.5781 51.0086
" />
<path d="M83.5781 51.0086
L83.5177 50.8876
" />
<path d="M83.5177 50.8876
L83.5177 50.5248
" />
<path d="M83.5177 50.5248
L83.5781 50.4038
" />
<path d="M83.5781 50.4038
L83.6386 50.3433
" />
<path d="M83.6386 50.3433
L83.7596 50.2829
" />
<path d="M83.7596 50.2829
L83.9410 50.2829
" />
<path d="M83.9410 50.2829
L84.0619 50.3433
" />
<path d="M84.0619 50.3433
L84.1224 50.4038
" />
<path d="M84.1224 50.4038
L84.1829 50.5248
" />
<path d="M84.1829 50.5248
L84.1829 50.8876
" />
<path d="M84.1829 50.8876
L84.1224 51.0086
" />
<path d="M84.1224 51.0086
L84.0619 51.0691
" />
<path d="M84.0619 51.0691
L83.9410 51.1295
" />
<path d="M83.9410 51.1295
L83.7596 51.1295
" />
<path d="M85.3319 50.4038
L85.2714 50.3433
" />
<path d="M85.2714 50.3433
L85.1505 50.2829
" />
<path d="M85.1505 50.2829
L84.9086 50.2829
" />
<path d="M84.9086 50.2829
L84.7876 50.3433
" />
<path d="M84.7876 50.3433
L84.7271 50.4038
" />
<path d="M84.7271 50.4038
L84.6667 50.5248
" />
<path d="M84.6667 50.5248
L84.6667 50.8876
" />
<path d="M84.6667 50.8876
L84.7271 51.0086
" />
<path d="M84.7271 51.0086
L84.7876 51.0691
" />
<path d="M84.7876 51.0691
L84.9086 51.1295
" />
<path d="M84.9086 51.1295
L85.0900 51.1295
" />
<path d="M85.0900 51.1295
L85.2109 51.0691
" />
<path d="M85.2109 51.0691
L85.2714 51.0086
" />
<path d="M85.2714 51.0086
L85.3319 50.8876
" />
<path d="M85.3319 50.8876
L85.3319 50.1014
" />
<path d="M85.3319 50.1014
L85.2714 49.9805
" />
<path d="M85.2714 49.9805
L85.2109 49.9200
" />
<path d="M85.2109 49.9200
L85.0900 49.8595
" />
<path d="M85.0900 49.8595
L84.8481 49.8595
" />
<path d="M84.8481 49.8595
L84.7271 49.9200
" />
<path d="M86.3599 51.0691
L86.2390 51.1295
" />
<path d="M86.2390 51.1295
L85.9971 51.1295
" />
<path d="M85.9971 51.1295
L85.8761 51.0691
" />
<path d="M85.8761 51.0691
L85.8157 50.9481
" />
<path d="M85.8157 50.9481
L85.8157 50.4643
" />
<path d="M85.8157 50.4643
L85.8761 50.3433
" />
<path d="M85.8761 50.3433
L85.9971 50.2829
" />
<path d="M85.9971 50.2829
L86.2390 50.2829
" />
<path d="M86.2390 50.2829
L86.3599 50.3433
" />
<path d="M86.3599 50.3433
L86.4204 50.4643
" />
<path d="M86.4204 50.4643
L86.4204 50.5852
" />
<path d="M86.4204 50.5852
L85.8157 50.7062
" />
<path d="M86.9647 50.2829
L86.9647 51.5529
" />
<path d="M86.9647 50.3433
L87.0857 50.2829
" />
<path d="M87.0857 50.2829
L87.3276 50.2829
" />
<path d="M87.3276 50.2829
L87.4485 50.3433
" />
<path d="M87.4485 50.3433
L87.5090 50.4038
" />
<path d="M87.5090 50.4038
L87.5695 50.5248
" />
<path d="M87.5695 50.5248
L87.5695 50.8876
" />
<path d="M87.5695 50.8876
L87.5090 51.0086
" />
<path d="M87.5090 51.0086
L87.4485 51.0691
" />
<path d="M87.4485 51.0691
L87.3276 51.1295
" />
<path d="M87.3276 51.1295
L87.0857 51.1295
" />
<path d="M87.0857 51.1295
L86.9647 51.0691
" />
</g></g>
<g style="fill:none; 
stroke:#000000; stroke-width:0.1524; stroke-opacity:1; 
stroke-linecap:round; stroke-linejoin:round;">
<text x="67.3100" y="39.7550"
textLength="1.6546" font-size="1.6933" lengthAdjust="spacingAndGlyphs"
text-anchor="end" opacity="0" stroke-opacity="0">M</text>
<g class="stroked-text"><desc>M</desc>
<path d="M66.0607 39.6995
L66.0607 38.4295
" />
<path d="M66.0607 38.4295
L66.4841 39.3367
" />
<path d="M66.4841 39.3367
L66.9074 38.4295
" />
<path d="M66.9074 38.4295
L66.9074 39.6995
" />
</g></g>
<g style="fill:none; 
stroke:#000000; stroke-width:0.1524; stroke-opacity:1; 
stroke-linecap:round; stroke-linejoin:round;">
<text x="67.3100" y="29.5950"
textLength="3.4084" font-size="1.6933" lengthAdjust="spacingAndGlyphs"
text-anchor="end" opacity="0" stroke-opacity="0">Out</text>
<g class="stroked-text"><desc>Out</desc>
<path d="M64.5488 28.2695
L64.7907 28.2695
" />
<path d="M64.7907 28.2695
L64.9117 28.3300
" />
<path d="M64.9117 28.3300
L65.0326 28.4510
" />
<path d="M65.0326 28.4510
L65.0931 28.6929
" />
<path d="M65.0931 28.6929
L65.0931 29.1162
" />
<path d="M65.0931 29.1162
L65.0326 29.3581
" />
<path d="M65.0326 29.3581
L64.9117 29.4791
" />
<path d="M64.9117 29.4791
L64.7907 29.5395
" />
<path d="M64.7907 29.5395
L64.5488 29.5395
" />
<path d="M64.5488 29.5395
L64.4279 29.4791
" />
<path d="M64.4279 29.4791
L64.3069 29.3581
" />
<path d="M64.3069 29.3581
L64.2465 29.1162
" />
<path d="M64.2465 29.1162
L64.2465 28.6929
" />
<path d="M64.2465 28.6929
L64.3069 28.4510
" />
<path d="M64.3069 28.4510
L64.4279 28.3300
" />
<path d="M64.4279 28.3300
L64.5488 28.2695
" />
<path d="M66.1817 28.6929
L66.1817 29.5395
" />
<path d="M65.6374 28.6929
L65.6374 29.3581
" />
<path d="M65.6374 29.3581
L65.6979 29.4791
" />
<path d="M65.6979 29.4791
L65.8189 29.5395
" />
<path d="M65.8189 29.5395
L66.0003 29.5395
" />
<path d="M66.0003 29.5395
L66.1212 29.4791
" />
<path d="M66.1212 29.4791
L66.1817 29.4186
" />
<path d="M66.6050 28.6929
L67.0888 28.6929
" />
<path d="M66.7864 28.2695
L66.7864 29.3581
" />
<path d="M66.7864 29.3581
L66.8469 29.4791
" />
<path d="M66.8469 29.4791
L66.9679 29.5395
" />
<path d="M66.9679 29.5395
L67.0888 29.5395
" />
</g></g>
<g style="fill:none; 
stroke:#000000; stroke-width:0.1524; stroke-opacity:1; 
stroke-linecap:round; stroke-linejoin:round;">
<text x="57.1500" y="39.7550"
textLength="1.6546" font-size="1.6933" lengthAdjust="spacingAndGlyphs"
text-anchor="start" opacity="0" stroke-opacity="0">M</text>
<g class="stroked-text"><desc>M</desc>
<path d="M57.5525 39.6995
L57.5525 38.4295
" />
<path d="M57.5525 38.4295
L57.9759 39.3367
" />
<path d="M57.9759 39.3367
L58.3992 38.4295
" />
<path d="M58.3992 38.4295
L58.3992 39.6995
" />
</g><rect x="22.860000" y="7.620000" width="15.240000" height="15.240000" rx="0.000000" />
<circle cx="55.8800" cy="30.4800" r="0.5080" /> 
</g>
<g style="fill:none; 
stroke:#000000; stroke-width:0.1524; stroke-opacity:1; 
stroke-linecap:round; stroke-linejoin:round;stroke-dasharray:1.6764,0.6096;">
<rect x="68.580000" y="2.540000" width="30.480000" height="45.720000" rx="0.000000" />
</g>
<g style="fill:none; 
stroke:#000000; stroke-width:0.1524; stroke-opacity:1; 
stroke-linecap:round; stroke-linejoin:round;">
<circle cx="55.8800" cy="40.6400" r="0.5080" /> 
<circle cx="68.5800" cy="10.1600" r="0.5080" /> 
<circle cx="55.8800" cy="10.1600" r="0.5080" /> 
</g>
<g style="fill:none; 
stroke:#000000; stroke-width:0.1524; stroke-opacity:1; 
stroke-linecap:round; stroke-linejoin:round;stroke-dasharray:1.6764,0.6096;">
<rect x="20.320000" y="2.540000" width="35.560000" height="45.720000" rx="0.000000" />
</g>
<g style="fill:none; 
stroke:#000000; stroke-width:0.1524; stroke-opacity:1; 
stroke-linecap:round; stroke-linejoin:round;">
<circle cx="68.5800" cy="30.4800" r="0.5080" /> 
<rect x="91.440000" y="7.620000" width="5.080000" height="35.560000" rx="0.000000" />
<circle cx="68.5800" cy="40.6400" r="0.5080" /> 
</g>
<g style="fill:#000000; fill-opacity:1.0000; 
stroke:#000000; stroke-width:0.1524; stroke-opacity:1; 
stroke-linecap:round; stroke-linejoin:round;">
<circle cx="76.2000" cy="40.6400" r="0.4572" /> 
<circle cx="45.7200" cy="10.1600" r="0.4572" /> 
<circle cx="45.7200" cy="20.3200" r="0.4572" /> 
<circle cx="50.8000" cy="10.1600" r="0.4572" /> 
</g> 
</svg>
