<?xml version="1.0" standalone="no"?>
 <!DOCTYPE svg PUBLIC "-//W3C//DTD SVG 1.1//EN" 
 "http://www.w3.org/Graphics/SVG/1.1/DTD/svg11.dtd"> 
<svg
  xmlns:svg="http://www.w3.org/2000/svg"
  xmlns="http://www.w3.org/2000/svg"
  xmlns:xlink="http://www.w3.org/1999/xlink"
  version="1.1"
  width="149.9870mm" height="49.9872mm" viewBox="0.0000 0.0000 149.9870 49.9872">
<title>SVG Image created as kicad_images.svg date 2025/08/02 10:49:40 </title>
  <desc>Image generated by Eeschema-SVG </desc>
<g style="fill:#000000; fill-opacity:1.0000;stroke:#000000; stroke-opacity:1.0000;
stroke-linecap:round; stroke-linejoin:round;"
 transform="translate(0 0) scale(1 1)">
</g>
<g style="fill:none; 
stroke:#000000; stroke-width:0.1524; stroke-opacity:1; 
stroke-linecap:round; stroke-linejoin:round;">
<rect x="7.620000" y="5.080000" width="12.700000" height="7.620000" rx="0.000000" />
<text x="7.6200" y="4.3684"
textLength="25.4354" font-size="1.6933" lengthAdjust="spacingAndGlyphs"
text-anchor="start" opacity="0" stroke-opacity="0">pmcnv_count_open_collector_pnp</text>
<g class="stroked-text"><desc>pmcnv_count_open_collector_pnp</desc>
<path style="fill:#000000; fill-opacity:1.0000; stroke:none;fill-rule:evenodd;"
d="M 8.2306,3.2516
8.3021,3.2723
8.3601,3.3046
8.4071,3.3488
8.4417,3.4023
8.4690,3.4739
8.4873,3.5681
8.4941,3.6906
8.4865,3.7988
8.4648,3.8916
8.4288,3.9755
8.3822,4.0430
8.3234,4.0978
8.2534,4.1386
8.1748,4.1637
8.0855,4.1723
8.0231,4.1700
7.9815,4.1643
7.8989,4.1369
7.8989,4.5098
7.7567,4.5098
7.7567,3.5577
7.8989,3.5577
7.8989,3.9969
7.9328,4.0187
7.9717,4.0350
8.0160,4.0445
8.0801,4.0482
8.1395,4.0423
8.1908,4.0251
8.2354,3.9970
8.2747,3.9570
8.3041,3.9103
8.3266,3.8518
8.3413,3.7789
8.3466,3.6888
8.3434,3.6180
8.3342,3.5569
8.3175,3.5008
8.2942,3.4560
8.2626,3.4190
8.2231,3.3913
8.1763,3.3744
8.1156,3.3683
8.0570,3.3740
8.0102,3.3900
7.9726,3.4152
7.9427,3.4497
7.9179,3.4962
7.8989,3.5577
7.7567,3.5577
7.7567,3.2651
7.8545,3.2651
7.8811,3.3717
7.8883,3.3717
7.9353,3.3169
7.9940,3.2770
8.0622,3.2527
8.1423,3.2442
Z" /> 
<path style="fill:#000000; fill-opacity:1.0000; stroke:none;fill-rule:evenodd;"
d="M 9.2389,4.1525
9.2389,3.6504
9.2327,3.5271
9.2231,3.4774
9.2087,3.4393
9.1869,3.4080
9.1580,3.3861
9.1221,3.3732
9.0719,3.3683
9.0193,3.3741
8.9746,3.3907
8.9359,3.4180
8.9037,3.4536
8.8786,3.4947
8.8605,3.5422
8.8605,4.1525
8.7183,4.1525
8.7183,3.2641
8.8178,3.2641
8.8445,3.3737
8.8516,3.3737
8.9035,3.3219
8.9626,3.2806
9.0062,3.2613
9.0602,3.2488
9.1270,3.2442
9.1831,3.2483
9.2289,3.2595
9.2664,3.2771
9.2983,3.3027
9.3265,3.3399
9.3509,3.3915
9.3816,3.3487
9.4190,3.3128
9.4637,3.2833
9.5130,3.2618
9.5669,3.2487
9.6262,3.2442
9.6978,3.2488
9.7524,3.2611
9.7995,3.2844
9.8377,3.3205
9.8658,3.3683
9.8866,3.4358
9.8975,3.5134
9.9017,3.6202
9.9017,4.1525
9.7596,4.1525
9.7596,3.6185
9.7533,3.5076
9.7436,3.4632
9.7285,3.4296
9.7062,3.4025
9.6769,3.3834
9.6411,3.3725
9.5907,3.3683
9.5335,3.3743
9.4882,3.3912
9.4521,3.4180
9.4234,3.4538
9.3995,3.5003
9.3810,3.5599
9.3810,4.1525
Z" /> 
<path style="fill:#000000; fill-opacity:1.0000; stroke:none;fill-rule:evenodd;"
d="M 10.7672,4.0929
10.7101,4.1266
10.6410,4.1521
10.5669,4.1672
10.4883,4.1723
10.4201,4.1683
10.3626,4.1571
10.3141,4.1396
10.2493,4.0995
10.1978,4.0457
10.1593,3.9797
10.1320,3.8987
10.1169,3.8102
10.1116,3.7083
10.1189,3.5944
10.1390,3.5014
10.1700,3.4255
10.2111,3.3638
10.2649,3.3125
10.3289,3.2756
10.4054,3.2524
10.4972,3.2442
10.5792,3.2477
10.6419,3.2571
10.6994,3.2730
10.7494,3.2938
10.7086,3.4179
10.6660,3.3975
10.6179,3.3816
10.5671,3.3717
10.5114,3.3683
10.4448,3.3752
10.3910,3.3944
10.3472,3.4252
10.3117,3.4686
10.2842,3.5274
10.2659,3.6056
10.2590,3.7083
10.2624,3.7746
10.2724,3.8367
10.2904,3.8949
10.3168,3.9446
10.3526,3.9868
10.3985,4.0199
10.4532,4.0407
10.5238,4.0482
10.5856,4.0431
10.6384,4.0285
10.6859,4.0066
10.7210,3.9837
Z" /> 
<path style="fill:#000000; fill-opacity:1.0000; stroke:none;fill-rule:evenodd;"
d="M 11.5332,4.1525
11.5332,3.6468
11.5278,3.5546
11.5137,3.4870
11.4932,3.4384
11.4702,3.4088
11.4394,3.3872
11.3992,3.3734
11.3466,3.3683
11.2857,3.3743
11.2345,3.3913
11.1911,3.4189
11.1543,3.4555
11.1257,3.4975
11.1050,3.5457
11.1050,4.1525
10.9629,4.1525
10.9629,3.2641
11.0623,3.2641
11.0890,3.3737
11.0961,3.3737
11.1452,3.3228
11.2107,3.2806
11.2599,3.2609
11.3166,3.2486
11.3821,3.2442
11.4525,3.2487
11.5101,3.2611
11.5607,3.2845
11.6016,3.3205
11.6326,3.3684
11.6567,3.4349
11.6702,3.5116
11.6754,3.6168
11.6754,4.1525
Z" /> 
<path style="fill:#000000; fill-opacity:1.0000; stroke:none;fill-rule:evenodd;"
d="M 12.1903,3.7849
12.2400,3.9537
12.2418,3.9537
12.2862,3.7813
12.4852,3.2641
12.6379,3.2641
12.2595,4.1723
12.1991,4.1723
11.8135,3.2641
11.9770,3.2641
Z" /> 
<path style="fill:#000000; fill-opacity:1.0000; stroke:none;fill-rule:evenodd;"
d="M 12.6537,4.3907
13.3786,4.3907
13.3786,4.5148
12.6537,4.5148
Z" /> 
<path style="fill:#000000; fill-opacity:1.0000; stroke:none;fill-rule:evenodd;"
d="M 14.1210,4.0929
14.0639,4.1266
13.9948,4.1521
13.9207,4.1672
13.8420,4.1723
13.7739,4.1683
13.7163,4.1571
13.6678,4.1396
13.6031,4.0995
13.5515,4.0457
13.5131,3.9797
13.4858,3.8987
13.4707,3.8102
13.4654,3.7083
13.4726,3.5944
13.4927,3.5014
13.5238,3.4255
13.5649,3.3638
13.6186,3.3125
13.6827,3.2756
13.7591,3.2524
13.8509,3.2442
13.9329,3.2477
13.9956,3.2571
14.0532,3.2730
14.1032,3.2938
14.0623,3.4179
14.0198,3.3975
13.9717,3.3816
13.9208,3.3717
13.8651,3.3683
13.7985,3.3752
13.7447,3.3944
13.7009,3.4252
13.6654,3.4686
13.6380,3.5274
13.6196,3.6056
13.6128,3.7083
13.6162,3.7746
13.6261,3.8367
13.6442,3.8949
13.6706,3.9446
13.7064,3.9868
13.7523,4.0199
13.8069,4.0407
13.8775,4.0482
13.9393,4.0431
13.9922,4.0285
14.0397,4.0066
14.0747,3.9837
Z" /> 
<path style="fill:#000000; fill-opacity:1.0000; stroke:none;fill-rule:evenodd;"
d="M 14.7104,3.2529
14.7882,3.2770
14.8558,3.3171
14.9099,3.3709
14.9511,3.4369
14.9810,3.5179
14.9981,3.6064
15.0041,3.7083
14.9968,3.8220
14.9766,3.9151
14.9452,3.9910
14.9037,4.0528
14.8496,4.1040
14.7850,4.1409
14.7078,4.1641
14.6151,4.1723
14.5197,4.1637
14.4418,4.1396
14.3742,4.0995
14.3201,4.0457
14.2790,3.9796
14.2491,3.8987
14.2320,3.8101
14.2260,3.7083
14.3734,3.7083
14.3768,3.7747
14.3867,3.8375
14.4042,3.8966
14.4284,3.9456
14.4613,3.9871
14.5030,4.0199
14.5528,4.0408
14.6150,4.0482
14.6781,4.0420
14.7292,4.0234
14.7711,3.9933
14.8054,3.9502
14.8320,3.8914
14.8500,3.8125
14.8566,3.7083
14.8532,3.6403
14.8433,3.5773
14.8258,3.5182
14.8015,3.4693
14.7686,3.4278
14.7269,3.3957
14.6773,3.3755
14.6150,3.3683
14.5519,3.3746
14.5008,3.3931
14.4589,3.4232
14.4247,3.4663
14.3980,3.5251
14.3801,3.6040
14.3734,3.7083
14.2260,3.7083
14.2333,3.5945
14.2535,3.5014
14.2848,3.4255
14.3263,3.3638
14.3805,3.3126
14.4451,3.2756
14.5223,3.2524
14.6151,3.2442
Z" /> 
<path style="fill:#000000; fill-opacity:1.0000; stroke:none;fill-rule:evenodd;"
d="M 15.3565,3.2641
15.3565,3.7697
15.3587,3.8368
15.3645,3.8912
15.3759,3.9407
15.3920,3.9781
15.4153,4.0086
15.4453,4.0305
15.4819,4.0434
15.5306,4.0482
15.5769,4.0443
15.6159,4.0332
15.6513,4.0151
15.6825,3.9915
15.7099,3.9630
15.7340,3.9303
15.7705,3.8566
15.7705,3.2641
15.9126,3.2641
15.9126,3.9001
15.9170,4.0326
15.9321,4.1525
15.8344,4.1525
15.7989,4.0108
15.7900,4.0108
15.7423,4.0740
15.6798,4.1262
15.6316,4.1510
15.5737,4.1667
15.5040,4.1723
15.4353,4.1678
15.3787,4.1554
15.3289,4.1321
15.2881,4.0960
15.2571,4.0482
15.2330,3.9816
15.2195,3.9049
15.2144,3.7998
15.2144,3.2641
Z" /> 
<path style="fill:#000000; fill-opacity:1.0000; stroke:none;fill-rule:evenodd;"
d="M 16.7568,4.1525
16.7568,3.6468
16.7514,3.5546
16.7373,3.4870
16.7168,3.4384
16.6937,3.4088
16.6630,3.3872
16.6227,3.3734
16.5702,3.3683
16.5092,3.3743
16.4581,3.3913
16.4147,3.4189
16.3779,3.4555
16.3493,3.4975
16.3286,3.5457
16.3286,4.1525
16.1864,4.1525
16.1864,3.2641
16.2859,3.2641
16.3126,3.3737
16.3196,3.3737
16.3687,3.3228
16.4343,3.2806
16.4835,3.2609
16.5402,3.2486
16.6057,3.2442
16.6761,3.2487
16.7337,3.2611
16.7842,3.2845
16.8252,3.3205
16.8562,3.3684
16.8802,3.4349
16.8938,3.5116
16.8989,3.6168
16.8989,4.1525
Z" /> 
<path style="fill:#000000; fill-opacity:1.0000; stroke:none;fill-rule:evenodd;"
d="M 17.0407,3.2641
17.1793,3.2641
17.1793,3.0869
17.3214,3.0457
17.3214,3.2641
17.5630,3.2641
17.5630,3.3881
17.3214,3.3881
17.3214,3.8796
17.3284,3.9646
17.3445,4.0101
17.3628,4.0308
17.3881,4.0436
17.4227,4.0482
17.4670,4.0456
17.5008,4.0387
17.5720,4.0135
17.6039,4.1227
17.5543,4.1426
17.4991,4.1586
17.4409,4.1688
17.3765,4.1723
17.3071,4.1645
17.2580,4.1436
17.2237,4.1111
17.2013,4.0675
17.1854,4.0018
17.1793,3.9062
17.1793,3.3881
17.0407,3.3881
Z" /> 
<path style="fill:#000000; fill-opacity:1.0000; stroke:none;fill-rule:evenodd;"
d="M 17.6229,4.3907
18.3478,4.3907
18.3478,4.5148
17.6229,4.5148
Z" /> 
<path style="fill:#000000; fill-opacity:1.0000; stroke:none;fill-rule:evenodd;"
d="M 18.9191,3.2529
18.9969,3.2770
19.0645,3.3171
19.1186,3.3709
19.1597,3.4369
19.1897,3.5179
19.2068,3.6064
19.2128,3.7083
19.2055,3.8220
19.1852,3.9151
19.1539,3.9910
19.1124,4.0528
19.0582,4.1040
18.9936,4.1409
18.9164,4.1641
18.8237,4.1723
18.7283,4.1637
18.6504,4.1396
18.5829,4.0995
18.5287,4.0457
18.4876,3.9796
18.4577,3.8987
18.4406,3.8101
18.4346,3.7083
18.5820,3.7083
18.5854,3.7747
18.5953,3.8375
18.6129,3.8966
18.6371,3.9456
18.6699,3.9871
18.7117,4.0199
18.7614,4.0408
18.8236,4.0482
18.8867,4.0420
18.9379,4.0234
18.9798,3.9933
19.0140,3.9502
19.0407,3.8914
19.0586,3.8125
19.0653,3.7083
19.0619,3.6403
19.0519,3.5773
19.0344,3.5182
19.0101,3.4693
18.9773,3.4278
18.9355,3.3957
18.8859,3.3755
18.8236,3.3683
18.7606,3.3746
18.7094,3.3931
18.6675,3.4232
18.6333,3.4663
18.6066,3.5251
18.5887,3.6040
18.5820,3.7083
18.4346,3.7083
18.4419,3.5945
18.4621,3.5014
18.4935,3.4255
18.5349,3.3638
18.5891,3.3126
18.6538,3.2756
18.7310,3.2524
18.8237,3.2442
Z" /> 
<path style="fill:#000000; fill-opacity:1.0000; stroke:none;fill-rule:evenodd;"
d="M 19.9110,3.2516
19.9825,3.2723
20.0406,3.3046
20.0875,3.3488
20.1222,3.4023
20.1494,3.4739
20.1678,3.5681
20.1746,3.6906
20.1669,3.7988
20.1453,3.8916
20.1092,3.9755
20.0626,4.0430
20.0039,4.0978
19.9338,4.1386
19.8552,4.1637
19.7659,4.1723
19.7036,4.1700
19.6619,4.1643
19.5793,4.1369
19.5793,4.5098
19.4372,4.5098
19.4372,3.5577
19.5793,3.5577
19.5793,3.9969
19.6133,4.0187
19.6522,4.0350
19.6965,4.0445
19.7606,4.0482
19.8200,4.0423
19.8712,4.0251
19.9159,3.9970
19.9551,3.9570
19.9846,3.9103
20.0070,3.8518
20.0218,3.7789
20.0271,3.6888
20.0238,3.6180
20.0146,3.5569
19.9979,3.5008
19.9747,3.4560
19.9431,3.4190
19.9036,3.3913
19.8567,3.3744
19.7961,3.3683
19.7374,3.3740
19.6906,3.3900
19.6531,3.4152
19.6231,3.4497
19.5983,3.4962
19.5793,3.5577
19.4372,3.5577
19.4372,3.2651
19.5349,3.2651
19.5616,3.3717
19.5687,3.3717
19.6157,3.3169
19.6744,3.2770
19.7426,3.2527
19.8228,3.2442
Z" /> 
<path style="fill:#000000; fill-opacity:1.0000; stroke:none;fill-rule:evenodd;"
d="M 20.8002,3.2475
20.8608,3.2575
20.9182,3.2767
20.9691,3.3077
21.0117,3.3512
21.0473,3.4127
21.0632,3.4591
21.0737,3.5179
21.0776,3.5919
21.0750,3.6515
21.0669,3.7207
20.4965,3.7207
20.5007,3.7966
20.5125,3.8596
20.5334,3.9164
20.5622,3.9619
20.6006,3.9985
20.6502,4.0260
20.7079,4.0422
20.7826,4.0482
20.8424,4.0424
20.9034,4.0244
20.9586,3.9972
20.9940,3.9688
21.0473,4.0780
20.9889,4.1161
20.9132,4.1469
20.8306,4.1659
20.7417,4.1723
20.6447,4.1637
20.5658,4.1396
20.4975,4.0994
20.4432,4.0457
20.4021,3.9797
20.3722,3.8996
20.3551,3.8115
20.3491,3.7083
20.3553,3.6115
20.4983,3.6115
20.9389,3.6115
20.9318,3.5226
20.9136,3.4622
20.8873,3.4224
20.8498,3.3932
20.8022,3.3749
20.7417,3.3683
20.6738,3.3750
20.6187,3.3936
20.5737,3.4234
20.5398,3.4645
20.5140,3.5251
20.4983,3.6115
20.3553,3.6115
20.3565,3.5936
20.3769,3.5002
20.4085,3.4243
20.4504,3.3629
20.5049,3.3121
20.5698,3.2754
20.6472,3.2524
20.7400,3.2442
Z" /> 
<path style="fill:#000000; fill-opacity:1.0000; stroke:none;fill-rule:evenodd;"
d="M 21.8712,4.1525
21.8712,3.6468
21.8658,3.5546
21.8517,3.4870
21.8312,3.4384
21.8081,3.4088
21.7774,3.3872
21.7371,3.3734
21.6846,3.3683
21.6236,3.3743
21.5725,3.3913
21.5291,3.4189
21.4923,3.4555
21.4637,3.4975
21.4430,3.5457
21.4430,4.1525
21.3008,4.1525
21.3008,3.2641
21.4003,3.2641
21.4270,3.3737
21.4340,3.3737
21.4831,3.3228
21.5487,3.2806
21.5979,3.2609
21.6546,3.2486
21.7201,3.2442
21.7905,3.2487
21.8481,3.2611
21.8986,3.2845
21.9396,3.3205
21.9706,3.3684
21.9946,3.4349
22.0081,3.5116
22.0133,3.6168
22.0133,4.1525
Z" /> 
<path style="fill:#000000; fill-opacity:1.0000; stroke:none;fill-rule:evenodd;"
d="M 22.1355,4.3907
22.8604,4.3907
22.8604,4.5148
22.1355,4.5148
Z" /> 
<path style="fill:#000000; fill-opacity:1.0000; stroke:none;fill-rule:evenodd;"
d="M 23.6028,4.0929
23.5457,4.1266
23.4766,4.1521
23.4025,4.1672
23.3239,4.1723
23.2557,4.1683
23.1982,4.1571
23.1497,4.1396
23.0849,4.0995
23.0334,4.0457
22.9949,3.9797
22.9676,3.8987
22.9525,3.8102
22.9472,3.7083
22.9545,3.5944
22.9746,3.5014
23.0056,3.4255
23.0467,3.3638
23.1005,3.3125
23.1645,3.2756
23.2410,3.2524
23.3328,3.2442
23.4148,3.2477
23.4775,3.2571
23.5350,3.2730
23.5850,3.2938
23.5442,3.4179
23.5016,3.3975
23.4535,3.3816
23.4027,3.3717
23.3470,3.3683
23.2804,3.3752
23.2266,3.3944
23.1828,3.4252
23.1473,3.4686
23.1198,3.5274
23.1015,3.6056
23.0946,3.7083
23.0980,3.7746
23.1080,3.8367
23.1260,3.8949
23.1524,3.9446
23.1882,3.9868
23.2341,4.0199
23.2888,4.0407
23.3594,4.0482
23.4212,4.0431
23.4740,4.0285
23.5215,4.0066
23.5566,3.9837
Z" /> 
<path style="fill:#000000; fill-opacity:1.0000; stroke:none;fill-rule:evenodd;"
d="M 24.1923,3.2529
24.2701,3.2770
24.3377,3.3171
24.3918,3.3709
24.4329,3.4369
24.4629,3.5179
24.4800,3.6064
24.4860,3.7083
24.4787,3.8220
24.4584,3.9151
24.4271,3.9910
24.3856,4.0528
24.3314,4.1040
24.2668,4.1409
24.1897,4.1641
24.0969,4.1723
24.0015,4.1637
23.9236,4.1396
23.8561,4.0995
23.8019,4.0457
23.7608,3.9796
23.7309,3.8987
23.7138,3.8101
23.7078,3.7083
23.8552,3.7083
23.8586,3.7747
23.8685,3.8375
23.8861,3.8966
23.9103,3.9456
23.9431,3.9871
23.9849,4.0199
24.0346,4.0408
24.0968,4.0482
24.1599,4.0420
24.2111,4.0234
24.2530,3.9933
24.2872,3.9502
24.3139,3.8914
24.3318,3.8125
24.3385,3.7083
24.3351,3.6403
24.3251,3.5773
24.3076,3.5182
24.2833,3.4693
24.2505,3.4278
24.2087,3.3957
24.1591,3.3755
24.0968,3.3683
24.0338,3.3746
23.9826,3.3931
23.9407,3.4232
23.9065,3.4663
23.8798,3.5251
23.8619,3.6040
23.8552,3.7083
23.7078,3.7083
23.7151,3.5945
23.7354,3.5014
23.7667,3.4255
23.8081,3.3638
23.8623,3.3126
23.9270,3.2756
24.0042,3.2524
24.0969,3.2442
Z" /> 
<path style="fill:#000000; fill-opacity:1.0000; stroke:none;fill-rule:evenodd;"
d="M 24.8685,3.9327
24.8747,3.9895
24.8898,4.0216
24.9151,4.0413
24.9503,4.0482
25.0000,4.0447
25.0604,4.0287
25.0764,4.1404
25.0449,4.1525
24.9973,4.1634
24.9094,4.1723
24.8578,4.1670
24.8145,4.1517
24.7779,4.1270
24.7510,4.0930
24.7332,4.0436
24.7264,3.9732
24.7264,2.9067
24.8685,2.9067
Z" /> 
<path style="fill:#000000; fill-opacity:1.0000; stroke:none;fill-rule:evenodd;"
d="M 25.3872,3.9327
25.3934,3.9895
25.4085,4.0216
25.4337,4.0413
25.4689,4.0482
25.5186,4.0447
25.5791,4.0287
25.5951,4.1404
25.5635,4.1525
25.5160,4.1634
25.4280,4.1723
25.3764,4.1670
25.3332,4.1517
25.2965,4.1270
25.2696,4.0930
25.2518,4.0436
25.2450,3.9732
25.2450,2.9067
25.3872,2.9067
Z" /> 
<path style="fill:#000000; fill-opacity:1.0000; stroke:none;fill-rule:evenodd;"
d="M 26.1491,3.2475
26.2097,3.2575
26.2671,3.2767
26.3180,3.3077
26.3606,3.3512
26.3962,3.4127
26.4121,3.4591
26.4226,3.5179
26.4264,3.5919
26.4239,3.6515
26.4158,3.7207
25.8454,3.7207
25.8496,3.7966
25.8614,3.8596
25.8822,3.9164
25.9111,3.9619
25.9495,3.9985
25.9991,4.0260
26.0568,4.0422
26.1315,4.0482
26.1913,4.0424
26.2523,4.0244
26.3075,3.9972
26.3429,3.9688
26.3962,4.0780
26.3378,4.1161
26.2620,4.1469
26.1795,4.1659
26.0906,4.1723
25.9936,4.1637
25.9147,4.1396
25.8464,4.0994
25.7921,4.0457
25.7509,3.9797
25.7211,3.8996
25.7040,3.8115
25.6980,3.7083
25.7042,3.6115
25.8472,3.6115
26.2878,3.6115
26.2807,3.5226
26.2625,3.4622
26.2362,3.4224
26.1986,3.3932
26.1511,3.3749
26.0906,3.3683
26.0227,3.3750
25.9676,3.3936
25.9226,3.4234
25.8886,3.4645
25.8628,3.5251
25.8472,3.6115
25.7042,3.6115
25.7054,3.5936
25.7258,3.5002
25.7574,3.4243
25.7992,3.3629
25.8538,3.3121
25.9187,3.2754
25.9961,3.2524
26.0889,3.2442
Z" /> 
<path style="fill:#000000; fill-opacity:1.0000; stroke:none;fill-rule:evenodd;"
d="M 27.2370,4.0929
27.1799,4.1266
27.1108,4.1521
27.0367,4.1672
26.9580,4.1723
26.8899,4.1683
26.8324,4.1571
26.7839,4.1396
26.7191,4.0995
26.6675,4.0457
26.6291,3.9797
26.6018,3.8987
26.5867,3.8102
26.5814,3.7083
26.5886,3.5944
26.6087,3.5014
26.6398,3.4255
26.6809,3.3638
26.7346,3.3125
26.7987,3.2756
26.8751,3.2524
26.9669,3.2442
27.0489,3.2477
27.1116,3.2571
27.1692,3.2730
27.2192,3.2938
27.1783,3.4179
27.1358,3.3975
27.0877,3.3816
27.0368,3.3717
26.9811,3.3683
26.9145,3.3752
26.8607,3.3944
26.8169,3.4252
26.7814,3.4686
26.7540,3.5274
26.7356,3.6056
26.7288,3.7083
26.7322,3.7746
26.7421,3.8367
26.7602,3.8949
26.7866,3.9446
26.8224,3.9868
26.8683,4.0199
26.9229,4.0407
26.9935,4.0482
27.0554,4.0431
27.1082,4.0285
27.1557,4.0066
27.1907,3.9837
Z" /> 
<path style="fill:#000000; fill-opacity:1.0000; stroke:none;fill-rule:evenodd;"
d="M 27.3154,3.2641
27.4539,3.2641
27.4539,3.0869
27.5961,3.0457
27.5961,3.2641
27.8377,3.2641
27.8377,3.3881
27.5961,3.3881
27.5961,3.8796
27.6030,3.9646
27.6192,4.0101
27.6375,4.0308
27.6628,4.0436
27.6974,4.0482
27.7417,4.0456
27.7755,4.0387
27.8466,4.0135
27.8786,4.1227
27.8290,4.1426
27.7737,4.1586
27.7156,4.1688
27.6511,4.1723
27.5818,4.1645
27.5327,4.1436
27.4984,4.1111
27.4759,4.0675
27.4601,4.0018
27.4539,3.9062
27.4539,3.3881
27.3154,3.3881
Z" /> 
<path style="fill:#000000; fill-opacity:1.0000; stroke:none;fill-rule:evenodd;"
d="M 28.4505,3.2529
28.5284,3.2770
28.5959,3.3171
28.6500,3.3709
28.6912,3.4369
28.7211,3.5179
28.7382,3.6064
28.7442,3.7083
28.7369,3.8220
28.7167,3.9151
28.6853,3.9910
28.6438,4.0528
28.5897,4.1040
28.5251,4.1409
28.4479,4.1641
28.3552,4.1723
28.2598,4.1637
28.1819,4.1396
28.1143,4.0995
28.0602,4.0457
28.0191,3.9796
27.9892,3.8987
27.9721,3.8101
27.9661,3.7083
28.1135,3.7083
28.1169,3.7747
28.1268,3.8375
28.1443,3.8966
28.1685,3.9456
28.2014,3.9871
28.2431,4.0199
28.2929,4.0408
28.3551,4.0482
28.4182,4.0420
28.4693,4.0234
28.5112,3.9933
28.5455,3.9502
28.5721,3.8914
28.5901,3.8125
28.5968,3.7083
28.5933,3.6403
28.5834,3.5773
28.5659,3.5182
28.5416,3.4693
28.5087,3.4278
28.4670,3.3957
28.4174,3.3755
28.3551,3.3683
28.2921,3.3746
28.2409,3.3931
28.1990,3.4232
28.1648,3.4663
28.1381,3.5251
28.1202,3.6040
28.1135,3.7083
27.9661,3.7083
27.9734,3.5945
27.9936,3.5014
28.0249,3.4255
28.0664,3.3638
28.1206,3.3126
28.1852,3.2756
28.2624,3.2524
28.3552,3.2442
Z" /> 
<path style="fill:#000000; fill-opacity:1.0000; stroke:none;fill-rule:evenodd;"
d="M 29.3880,3.4009
29.3350,3.3874
29.2867,3.3832
29.2374,3.3882
29.1978,3.4024
29.1659,3.4250
29.1401,3.4551
29.1219,3.4900
29.1108,3.5307
29.1108,4.1525
28.9687,4.1525
28.9687,3.2641
29.0682,3.2641
29.0948,3.3706
29.1020,3.3706
29.1400,3.3159
29.1828,3.2772
29.2345,3.2530
29.3027,3.2442
29.3554,3.2484
29.4182,3.2623
Z" /> 
<path style="fill:#000000; fill-opacity:1.0000; stroke:none;fill-rule:evenodd;"
d="M 29.4361,4.3907
30.1610,4.3907
30.1610,4.5148
29.4361,4.5148
Z" /> 
<path style="fill:#000000; fill-opacity:1.0000; stroke:none;fill-rule:evenodd;"
d="M 30.7713,3.2516
30.8428,3.2723
30.9009,3.3046
30.9478,3.3488
30.9825,3.4023
31.0098,3.4739
31.0281,3.5681
31.0349,3.6906
31.0273,3.7988
31.0056,3.8916
30.9696,3.9755
30.9229,4.0430
30.8642,4.0978
30.7941,4.1386
30.7155,4.1637
30.6262,4.1723
30.5639,4.1700
30.5222,4.1643
30.4397,4.1369
30.4397,4.5098
30.2975,4.5098
30.2975,3.5577
30.4397,3.5577
30.4397,3.9969
30.4736,4.0187
30.5125,4.0350
30.5568,4.0445
30.6209,4.0482
30.6803,4.0423
30.7315,4.0251
30.7762,3.9970
30.8155,3.9570
30.8449,3.9103
30.8674,3.8518
30.8821,3.7789
30.8874,3.6888
30.8841,3.6180
30.8749,3.5569
30.8582,3.5008
30.8350,3.4560
30.8034,3.4190
30.7639,3.3913
30.7171,3.3744
30.6564,3.3683
30.5977,3.3740
30.5509,3.3900
30.5134,3.4152
30.4834,3.4497
30.4586,3.4962
30.4397,3.5577
30.2975,3.5577
30.2975,3.2651
30.3952,3.2651
30.4219,3.3717
30.4290,3.3717
30.4760,3.3169
30.5347,3.2770
30.6030,3.2527
30.6831,3.2442
Z" /> 
<path style="fill:#000000; fill-opacity:1.0000; stroke:none;fill-rule:evenodd;"
d="M 31.8295,4.1525
31.8295,3.6468
31.8241,3.5546
31.8100,3.4870
31.7894,3.4384
31.7664,3.4088
31.7356,3.3872
31.6954,3.3734
31.6429,3.3683
31.5819,3.3743
31.5308,3.3913
31.4874,3.4189
31.4506,3.4555
31.4220,3.4975
31.4012,3.5457
31.4012,4.1525
31.2591,4.1525
31.2591,3.2641
31.3586,3.2641
31.3853,3.3737
31.3923,3.3737
31.4414,3.3228
31.5069,3.2806
31.5562,3.2609
31.6129,3.2486
31.6784,3.2442
31.7488,3.2487
31.8063,3.2611
31.8569,3.2845
31.8979,3.3205
31.9288,3.3684
31.9529,3.4349
31.9664,3.5116
31.9716,3.6168
31.9716,4.1525
Z" /> 
<path style="fill:#000000; fill-opacity:1.0000; stroke:none;fill-rule:evenodd;"
d="M 32.7044,3.2516
32.7759,3.2723
32.8340,3.3046
32.8809,3.3488
32.9156,3.4023
32.9429,3.4739
32.9612,3.5681
32.9680,3.6906
32.9604,3.7988
32.9387,3.8916
32.9027,3.9755
32.8560,4.0430
32.7973,4.0978
32.7272,4.1386
32.6486,4.1637
32.5593,4.1723
32.4970,4.1700
32.4553,4.1643
32.3728,4.1369
32.3728,4.5098
32.2306,4.5098
32.2306,3.5577
32.3728,3.5577
32.3728,3.9969
32.4067,4.0187
32.4456,4.0350
32.4899,4.0445
32.5540,4.0482
32.6134,4.0423
32.6646,4.0251
32.7093,3.9970
32.7485,3.9570
32.7780,3.9103
32.8005,3.8518
32.8152,3.7789
32.8205,3.6888
32.8172,3.6180
32.8080,3.5569
32.7913,3.5008
32.7681,3.4560
32.7365,3.4190
32.6970,3.3913
32.6502,3.3744
32.5895,3.3683
32.5308,3.3740
32.4840,3.3900
32.4465,3.4152
32.4165,3.4497
32.3917,3.4962
32.3728,3.5577
32.2306,3.5577
32.2306,3.2651
32.3283,3.2651
32.3550,3.3717
32.3621,3.3717
32.4091,3.3169
32.4678,3.2770
32.5360,3.2527
32.6162,3.2442
Z" /> 
</g></g>
<g style="fill:none; 
stroke:#000000; stroke-width:0.1524; stroke-opacity:1; 
stroke-linecap:round; stroke-linejoin:round;">
<text x="7.6200" y="14.5546"
textLength="37.9980" font-size="1.6933" lengthAdjust="spacingAndGlyphs"
text-anchor="start" opacity="0" stroke-opacity="0">Файл: pmcnv_count_open_collector_pnp.kicad_sch</text>
<g class="stroked-text"><desc>Файл: pmcnv_count_open_collector_pnp.kicad_sch</desc>
<path style="fill:#000000; fill-opacity:1.0000; stroke:none;fill-rule:evenodd;"
d="M 8.3857,13.4305
8.4612,13.4198
8.5332,13.4180
8.6161,13.4260
8.6913,13.4493
8.7592,13.4878
8.8184,13.5419
8.8656,13.6097
8.9027,13.6971
8.9250,13.7950
8.9330,13.9138
8.9288,13.9977
8.9170,14.0715
8.8983,14.1366
8.8567,14.2266
8.8050,14.2972
8.7413,14.3535
8.6682,14.3934
8.5879,14.4174
8.5012,14.4255
8.4434,14.4229
8.3857,14.4131
8.3857,14.5893
8.2400,14.5893
8.2400,14.4167
8.1698,14.4238
8.0943,14.4255
8.0127,14.4183
7.9370,14.3970
7.8685,14.3606
7.8092,14.3079
7.7618,14.2409
7.7239,14.1536
7.7011,14.0551
7.6928,13.9316
7.8456,13.9316
7.8507,14.0149
7.8652,14.0862
7.8895,14.1510
7.9211,14.2032
7.9614,14.2459
8.0082,14.2765
8.0610,14.2950
8.1210,14.3014
8.1449,14.3014
8.1778,14.3006
8.2125,14.2970
8.2418,14.2907
8.2418,13.5546
8.3839,13.5546
8.3839,14.2961
8.4310,14.3006
8.4888,14.3014
8.5476,14.2956
8.6016,14.2782
8.6504,14.2491
8.6940,14.2068
8.7290,14.1538
8.7571,14.0853
8.7741,14.0085
8.7802,13.9137
8.7754,13.8335
8.7615,13.7627
8.7384,13.6975
8.7082,13.6439
8.6694,13.5995
8.6238,13.5680
8.5717,13.5487
8.5119,13.5421
8.4479,13.5439
8.4107,13.5477
8.3839,13.5546
8.2418,13.5546
8.2418,13.5492
8.1894,13.5439
8.1334,13.5421
8.0747,13.5482
8.0206,13.5662
7.9720,13.5962
7.9291,13.6395
7.8950,13.6931
7.8678,13.7619
7.8515,13.8384
7.8456,13.9316
7.6928,13.9316
7.6928,13.9315
7.7009,13.8142
7.7239,13.7149
7.7624,13.6255
7.8127,13.5536
7.8760,13.4954
7.9504,13.4528
8.0335,13.4270
8.1281,13.4180
8.1858,13.4198
8.2400,13.4252
8.2400,13.2741
8.3857,13.2741
Z" /> 
<path style="fill:#000000; fill-opacity:1.0000; stroke:none;fill-rule:evenodd;"
d="M 9.5604,13.6582
9.6215,13.6763
9.6720,13.7058
9.7068,13.7412
9.7313,13.7833
9.7459,13.8294
9.7557,13.9256
9.7503,14.1339
9.7450,14.3263
9.7503,14.4509
9.7580,14.5083
9.7699,14.5595
9.6650,14.5595
9.6277,14.4339
9.6188,14.4339
9.5789,14.4830
9.5529,14.5053
9.5211,14.5258
9.4856,14.5426
9.4429,14.5570
9.3968,14.5661
9.3417,14.5694
9.2862,14.5649
9.2360,14.5516
9.1901,14.5298
9.1516,14.5008
9.1200,14.4647
9.0956,14.4214
9.0805,14.3729
9.0752,14.3162
9.0768,14.3025
9.2226,14.3025
9.2277,14.3422
9.2424,14.3760
9.2671,14.4052
9.2987,14.4272
9.3361,14.4406
9.3807,14.4454
9.4289,14.4419
9.4696,14.4320
9.5067,14.4165
9.5371,14.3981
9.5634,14.3761
9.5841,14.3525
9.6117,14.3043
9.6117,14.1561
9.5611,14.1535
9.5105,14.1525
9.4030,14.1588
9.3525,14.1680
9.3106,14.1820
9.2741,14.2025
9.2466,14.2285
9.2289,14.2609
9.2226,14.3025
9.0768,14.3025
9.0837,14.2422
9.1071,14.1852
9.1452,14.1382
9.1969,14.1014
9.2584,14.0752
9.3354,14.0568
9.4185,14.0469
9.5140,14.0434
9.5629,14.0434
9.6117,14.0469
9.6171,13.9511
9.6118,13.8869
9.5980,13.8433
9.5780,13.8144
9.5490,13.7946
9.5038,13.7808
9.4359,13.7754
9.3710,13.7800
9.2999,13.7929
9.2306,13.8132
9.1729,13.8399
9.1285,13.7307
9.2001,13.6960
9.2857,13.6707
9.3767,13.6562
9.4732,13.6513
Z" /> 
<path style="fill:#000000; fill-opacity:1.0000; stroke:none;fill-rule:evenodd;"
d="M 10.5780,14.0286
10.5833,13.9185
10.5780,13.9185
10.5052,14.0322
10.1053,14.5546
10.0236,14.5546
10.0236,13.6662
10.1657,13.6662
10.1657,14.2081
10.1604,14.3129
10.1675,14.3129
10.2369,14.2027
10.6366,13.6662
10.7201,13.6662
10.7201,14.5546
10.5780,14.5546
Z" /> 
<path style="fill:#000000; fill-opacity:1.0000; stroke:none;fill-rule:evenodd;"
d="M 10.2279,13.3088
10.2441,13.3606
10.2647,13.3969
10.2892,13.4212
10.3358,13.4448
10.3896,13.4528
10.4435,13.4443
10.4909,13.4190
10.5161,13.3935
10.5364,13.3576
10.5513,13.3088
10.6579,13.3427
10.6400,13.4079
10.6096,13.4601
10.5664,13.5017
10.5136,13.5320
10.4541,13.5506
10.3861,13.5570
10.3384,13.5539
10.2910,13.5446
10.2459,13.5289
10.2066,13.5074
10.1722,13.4792
10.1426,13.4435
10.1207,13.4017
10.1071,13.3514
Z" /> 
<path style="fill:#000000; fill-opacity:1.0000; stroke:none;fill-rule:evenodd;"
d="M 11.4719,13.7902
11.2142,13.7902
11.2035,13.9507
11.1875,14.1226
11.1591,14.2875
11.1383,14.3635
11.1138,14.4266
11.0823,14.4821
11.0463,14.5232
11.0026,14.5504
10.9512,14.5595
10.8926,14.5559
10.8482,14.5434
10.8695,14.4233
10.9157,14.4305
10.9488,14.4233
10.9797,14.4004
11.0039,14.3623
11.0295,14.2863
11.0478,14.1940
11.0650,14.0537
11.0764,13.8935
11.0845,13.6662
11.6140,13.6662
11.6140,14.5546
11.4719,14.5546
Z" /> 
<path style="fill:#000000; fill-opacity:1.0000; stroke:none;fill-rule:evenodd;"
d="M 11.9121,13.7555
11.9194,13.7111
11.9396,13.6791
11.9710,13.6585
12.0134,13.6513
12.0574,13.6586
12.0898,13.6791
12.1107,13.7112
12.1182,13.7555
12.1108,13.7984
12.0898,13.8310
12.0573,13.8522
12.0134,13.8597
11.9711,13.8523
11.9396,13.8310
11.9193,13.7985
Z" /> 
<path style="fill:#000000; fill-opacity:1.0000; stroke:none;fill-rule:evenodd;"
d="M 11.9121,14.4702
11.9194,14.4257
11.9396,14.3938
11.9710,14.3732
12.0134,14.3660
12.0574,14.3733
12.0898,14.3938
12.1107,14.4258
12.1182,14.4702
12.1108,14.5131
12.0898,14.5456
12.0573,14.5669
12.0134,14.5744
11.9711,14.5669
11.9396,14.5456
11.9193,14.5132
Z" /> 
<path style="fill:#000000; fill-opacity:1.0000; stroke:none;fill-rule:evenodd;"
d="M 13.2234,13.6537
13.2949,13.6744
13.3529,13.7067
13.3998,13.7509
13.4345,13.8044
13.4618,13.8760
13.4801,13.9702
13.4869,14.0927
13.4793,14.2009
13.4576,14.2937
13.4216,14.3776
13.3750,14.4451
13.3162,14.4999
13.2461,14.5407
13.1676,14.5658
13.0783,14.5744
13.0159,14.5721
12.9743,14.5664
12.8917,14.5390
12.8917,14.9119
12.7495,14.9119
12.7495,13.9598
12.8917,13.9598
12.8917,14.3990
12.9256,14.4208
12.9645,14.4371
13.0088,14.4466
13.0729,14.4503
13.1323,14.4444
13.1835,14.4272
13.2282,14.3991
13.2675,14.3591
13.2969,14.3124
13.3194,14.2539
13.3341,14.1810
13.3394,14.0909
13.3362,14.0201
13.3270,13.9590
13.3103,13.9029
13.2870,13.8581
13.2554,13.8211
13.2159,13.7934
13.1691,13.7765
13.1084,13.7704
13.0498,13.7761
13.0029,13.7921
12.9654,13.8173
12.9354,13.8518
12.9107,13.8983
12.8917,13.9598
12.7495,13.9598
12.7495,13.6672
12.8472,13.6672
12.8739,13.7738
12.8811,13.7738
12.9281,13.7190
12.9868,13.6791
13.0550,13.6548
13.1351,13.6463
Z" /> 
<path style="fill:#000000; fill-opacity:1.0000; stroke:none;fill-rule:evenodd;"
d="M 14.2317,14.5546
14.2317,14.0525
14.2255,13.9292
14.2159,13.8795
14.2015,13.8414
14.1797,13.8101
14.1508,13.7882
14.1149,13.7753
14.0647,13.7704
14.0121,13.7762
13.9674,13.7928
13.9287,13.8201
13.8965,13.8557
13.8714,13.8968
13.8533,13.9443
13.8533,14.5546
13.7111,14.5546
13.7111,13.6662
13.8106,13.6662
13.8373,13.7758
13.8444,13.7758
13.8963,13.7240
13.9554,13.6827
13.9990,13.6634
14.0530,13.6509
14.1198,13.6463
14.1759,13.6504
14.2217,13.6616
14.2592,13.6792
14.2911,13.7048
14.3193,13.7420
14.3437,13.7936
14.3744,13.7508
14.4117,13.7149
14.4565,13.6854
14.5058,13.6639
14.5597,13.6508
14.6190,13.6463
14.6906,13.6509
14.7452,13.6632
14.7923,13.6865
14.8305,13.7226
14.8586,13.7704
14.8794,13.8379
14.8903,13.9155
14.8945,14.0223
14.8945,14.5546
14.7523,14.5546
14.7523,14.0206
14.7461,13.9097
14.7364,13.8653
14.7212,13.8317
14.6990,13.8046
14.6697,13.7855
14.6339,13.7746
14.5835,13.7704
14.5263,13.7764
14.4810,13.7933
14.4449,13.8201
14.4162,13.8559
14.3923,13.9024
14.3738,13.9620
14.3738,14.5546
Z" /> 
<path style="fill:#000000; fill-opacity:1.0000; stroke:none;fill-rule:evenodd;"
d="M 15.7600,14.4950
15.7029,14.5287
15.6338,14.5542
15.5597,14.5693
15.4811,14.5744
15.4129,14.5704
15.3554,14.5592
15.3069,14.5417
15.2421,14.5016
15.1906,14.4478
15.1521,14.3818
15.1248,14.3008
15.1097,14.2123
15.1044,14.1104
15.1117,13.9965
15.1318,13.9035
15.1628,13.8276
15.2039,13.7659
15.2577,13.7146
15.3217,13.6777
15.3982,13.6545
15.4900,13.6463
15.5720,13.6498
15.6347,13.6592
15.6922,13.6751
15.7422,13.6959
15.7014,13.8200
15.6588,13.7996
15.6107,13.7837
15.5599,13.7738
15.5042,13.7704
15.4376,13.7773
15.3838,13.7965
15.3400,13.8273
15.3045,13.8707
15.2770,13.9295
15.2587,14.0077
15.2518,14.1104
15.2552,14.1767
15.2652,14.2388
15.2832,14.2970
15.3096,14.3467
15.3454,14.3889
15.3913,14.4220
15.4460,14.4428
15.5166,14.4503
15.5784,14.4452
15.6312,14.4306
15.6787,14.4087
15.7138,14.3858
Z" /> 
<path style="fill:#000000; fill-opacity:1.0000; stroke:none;fill-rule:evenodd;"
d="M 16.5260,14.5546
16.5260,14.0489
16.5206,13.9567
16.5065,13.8891
16.4860,13.8405
16.4629,13.8109
16.4322,13.7893
16.3919,13.7755
16.3394,13.7704
16.2785,13.7764
16.2273,13.7934
16.1839,13.8210
16.1471,13.8576
16.1185,13.8996
16.0978,13.9478
16.0978,14.5546
15.9556,14.5546
15.9556,13.6662
16.0551,13.6662
16.0818,13.7758
16.0889,13.7758
16.1379,13.7249
16.2035,13.6827
16.2527,13.6630
16.3094,13.6507
16.3749,13.6463
16.4453,13.6508
16.5029,13.6632
16.5535,13.6866
16.5944,13.7226
16.6254,13.7705
16.6495,13.8370
16.6630,13.9137
16.6681,14.0189
16.6681,14.5546
Z" /> 
<path style="fill:#000000; fill-opacity:1.0000; stroke:none;fill-rule:evenodd;"
d="M 17.1831,14.1870
17.2328,14.3558
17.2346,14.3558
17.2790,14.1834
17.4780,13.6662
17.6307,13.6662
17.2523,14.5744
17.1919,14.5744
16.8063,13.6662
16.9698,13.6662
Z" /> 
<path style="fill:#000000; fill-opacity:1.0000; stroke:none;fill-rule:evenodd;"
d="M 17.6465,14.7928
18.3714,14.7928
18.3714,14.9169
17.6465,14.9169
Z" /> 
<path style="fill:#000000; fill-opacity:1.0000; stroke:none;fill-rule:evenodd;"
d="M 19.1137,14.4950
19.0566,14.5287
18.9876,14.5542
18.9135,14.5693
18.8348,14.5744
18.7666,14.5704
18.7091,14.5592
18.6606,14.5417
18.5958,14.5016
18.5443,14.4478
18.5058,14.3818
18.4786,14.3008
18.4635,14.2123
18.4582,14.1104
18.4654,13.9965
18.4855,13.9035
18.5166,13.8276
18.5577,13.7659
18.6114,13.7146
18.6755,13.6777
18.7519,13.6545
18.8437,13.6463
18.9257,13.6498
18.9884,13.6592
19.0460,13.6751
19.0960,13.6959
19.0551,13.8200
19.0125,13.7996
18.9645,13.7837
18.9136,13.7738
18.8579,13.7704
18.7913,13.7773
18.7375,13.7965
18.6937,13.8273
18.6582,13.8707
18.6308,13.9295
18.6124,14.0077
18.6056,14.1104
18.6090,14.1767
18.6189,14.2388
18.6370,14.2970
18.6634,14.3467
18.6992,14.3889
18.7451,14.4220
18.7997,14.4428
18.8703,14.4503
18.9321,14.4452
18.9849,14.4306
19.0325,14.4087
19.0675,14.3858
Z" /> 
<path style="fill:#000000; fill-opacity:1.0000; stroke:none;fill-rule:evenodd;"
d="M 19.7032,13.6550
19.7810,13.6791
19.8486,13.7192
19.9027,13.7730
19.9439,13.8390
19.9738,13.9200
19.9909,14.0085
19.9969,14.1104
19.9896,14.2241
19.9694,14.3172
19.9380,14.3931
19.8965,14.4549
19.8424,14.5061
19.7778,14.5430
19.7006,14.5662
19.6079,14.5744
19.5125,14.5658
19.4346,14.5417
19.3670,14.5016
19.3129,14.4478
19.2718,14.3817
19.2419,14.3008
19.2248,14.2122
19.2187,14.1104
19.3662,14.1104
19.3695,14.1768
19.3795,14.2396
19.3970,14.2987
19.4212,14.3477
19.4541,14.3892
19.4958,14.4220
19.5456,14.4429
19.6078,14.4503
19.6709,14.4441
19.7220,14.4255
19.7639,14.3954
19.7981,14.3523
19.8248,14.2935
19.8427,14.2146
19.8494,14.1104
19.8460,14.0424
19.8361,13.9794
19.8186,13.9203
19.7943,13.8714
19.7614,13.8299
19.7197,13.7978
19.6701,13.7776
19.6078,13.7704
19.5447,13.7767
19.4936,13.7952
19.4517,13.8253
19.4175,13.8684
19.3908,13.9272
19.3729,14.0061
19.3662,14.1104
19.2187,14.1104
19.2261,13.9966
19.2463,13.9035
19.2776,13.8276
19.3191,13.7659
19.3733,13.7147
19.4379,13.6777
19.5151,13.6545
19.6079,13.6463
Z" /> 
<path style="fill:#000000; fill-opacity:1.0000; stroke:none;fill-rule:evenodd;"
d="M 20.3493,13.6662
20.3493,14.1718
20.3514,14.2389
20.3573,14.2933
20.3687,14.3428
20.3848,14.3802
20.4080,14.4107
20.4381,14.4326
20.4747,14.4455
20.5234,14.4503
20.5697,14.4464
20.6087,14.4353
20.6441,14.4172
20.6753,14.3936
20.7027,14.3651
20.7268,14.3324
20.7633,14.2587
20.7633,13.6662
20.9054,13.6662
20.9054,14.3022
20.9098,14.4347
20.9249,14.5546
20.8272,14.5546
20.7917,14.4129
20.7828,14.4129
20.7351,14.4761
20.6726,14.5283
20.6244,14.5531
20.5665,14.5688
20.4968,14.5744
20.4281,14.5699
20.3715,14.5575
20.3217,14.5342
20.2809,14.4981
20.2499,14.4503
20.2258,14.3837
20.2123,14.3070
20.2072,14.2019
20.2072,13.6662
Z" /> 
<path style="fill:#000000; fill-opacity:1.0000; stroke:none;fill-rule:evenodd;"
d="M 21.7496,14.5546
21.7496,14.0489
21.7442,13.9567
21.7301,13.8891
21.7096,13.8405
21.6865,13.8109
21.6558,13.7893
21.6155,13.7755
21.5630,13.7704
21.5020,13.7764
21.4509,13.7934
21.4075,13.8210
21.3707,13.8576
21.3421,13.8996
21.3214,13.9478
21.3214,14.5546
21.1792,14.5546
21.1792,13.6662
21.2787,13.6662
21.3054,13.7758
21.3124,13.7758
21.3615,13.7249
21.4271,13.6827
21.4763,13.6630
21.5330,13.6507
21.5985,13.6463
21.6689,13.6508
21.7265,13.6632
21.7770,13.6866
21.8180,13.7226
21.8490,13.7705
21.8730,13.8370
21.8865,13.9137
21.8917,14.0189
21.8917,14.5546
Z" /> 
<path style="fill:#000000; fill-opacity:1.0000; stroke:none;fill-rule:evenodd;"
d="M 22.0335,13.6662
22.1721,13.6662
22.1721,13.4890
22.3142,13.4478
22.3142,13.6662
22.5558,13.6662
22.5558,13.7902
22.3142,13.7902
22.3142,14.2817
22.3211,14.3667
22.3373,14.4122
22.3556,14.4329
22.3809,14.4457
22.4155,14.4503
22.4598,14.4477
22.4936,14.4408
22.5648,14.4156
22.5967,14.5248
22.5471,14.5447
22.4919,14.5607
22.4337,14.5709
22.3693,14.5744
22.2999,14.5666
22.2508,14.5457
22.2165,14.5132
22.1940,14.4696
22.1782,14.4039
22.1721,14.3083
22.1721,13.7902
22.0335,13.7902
Z" /> 
<path style="fill:#000000; fill-opacity:1.0000; stroke:none;fill-rule:evenodd;"
d="M 22.6157,14.7928
23.3406,14.7928
23.3406,14.9169
22.6157,14.9169
Z" /> 
<path style="fill:#000000; fill-opacity:1.0000; stroke:none;fill-rule:evenodd;"
d="M 23.9118,13.6550
23.9897,13.6791
24.0573,13.7192
24.1113,13.7730
24.1525,13.8390
24.1825,13.9200
24.1996,14.0085
24.2056,14.1104
24.1983,14.2241
24.1780,14.3172
24.1467,14.3931
24.1051,14.4549
24.0510,14.5061
23.9864,14.5430
23.9092,14.5662
23.8165,14.5744
23.7211,14.5658
23.6432,14.5417
23.5757,14.5016
23.5215,14.4478
23.4804,14.3817
23.4505,14.3008
23.4334,14.2122
23.4274,14.1104
23.5748,14.1104
23.5782,14.1768
23.5881,14.2396
23.6057,14.2987
23.6299,14.3477
23.6627,14.3892
23.7045,14.4220
23.7542,14.4429
23.8164,14.4503
23.8795,14.4441
23.9306,14.4255
23.9726,14.3954
24.0068,14.3523
24.0335,14.2935
24.0514,14.2146
24.0581,14.1104
24.0547,14.0424
24.0447,13.9794
24.0272,13.9203
24.0029,13.8714
23.9701,13.8299
23.9283,13.7978
23.8787,13.7776
23.8164,13.7704
23.7534,13.7767
23.7022,13.7952
23.6603,13.8253
23.6261,13.8684
23.5994,13.9272
23.5815,14.0061
23.5748,14.1104
23.4274,14.1104
23.4347,13.9966
23.4549,13.9035
23.4863,13.8276
23.5277,13.7659
23.5819,13.7147
23.6466,13.6777
23.7238,13.6545
23.8165,13.6463
Z" /> 
<path style="fill:#000000; fill-opacity:1.0000; stroke:none;fill-rule:evenodd;"
d="M 24.9038,13.6537
24.9753,13.6744
25.0333,13.7067
25.0803,13.7509
25.1150,13.8044
25.1422,13.8760
25.1606,13.9702
25.1674,14.0927
25.1597,14.2009
25.1381,14.2937
25.1020,14.3776
25.0554,14.4451
24.9967,14.4999
24.9266,14.5407
24.8480,14.5658
24.7587,14.5744
24.6964,14.5721
24.6547,14.5664
24.5721,14.5390
24.5721,14.9119
24.4300,14.9119
24.4300,13.9598
24.5721,13.9598
24.5721,14.3990
24.6060,14.4208
24.6450,14.4371
24.6893,14.4466
24.7534,14.4503
24.8128,14.4444
24.8640,14.4272
24.9087,14.3991
24.9479,14.3591
24.9773,14.3124
24.9998,14.2539
25.0145,14.1810
25.0199,14.0909
25.0166,14.0201
25.0074,13.9590
24.9907,13.9029
24.9675,13.8581
24.9359,13.8211
24.8964,13.7934
24.8495,13.7765
24.7889,13.7704
24.7302,13.7761
24.6834,13.7921
24.6459,13.8173
24.6159,13.8518
24.5911,13.8983
24.5721,13.9598
24.4300,13.9598
24.4300,13.6672
24.5277,13.6672
24.5544,13.7738
24.5615,13.7738
24.6085,13.7190
24.6672,13.6791
24.7354,13.6548
24.8156,13.6463
Z" /> 
<path style="fill:#000000; fill-opacity:1.0000; stroke:none;fill-rule:evenodd;"
d="M 25.7930,13.6496
25.8536,13.6596
25.9110,13.6788
25.9619,13.7098
26.0045,13.7533
26.0401,13.8148
26.0560,13.8612
26.0665,13.9200
26.0703,13.9940
26.0678,14.0536
26.0597,14.1228
25.4893,14.1228
25.4935,14.1987
25.5053,14.2617
25.5261,14.3185
25.5550,14.3640
25.5934,14.4006
25.6430,14.4281
25.7007,14.4443
25.7754,14.4503
25.8352,14.4445
25.8962,14.4265
25.9514,14.3993
25.9868,14.3709
26.0401,14.4801
25.9817,14.5182
25.9059,14.5490
25.8234,14.5680
25.7345,14.5744
25.6375,14.5658
25.5586,14.5417
25.4903,14.5015
25.4360,14.4478
25.3948,14.3818
25.3650,14.3017
25.3479,14.2136
25.3419,14.1104
25.3481,14.0136
25.4911,14.0136
25.9317,14.0136
25.9246,13.9247
25.9064,13.8643
25.8801,13.8245
25.8425,13.7953
25.7950,13.7770
25.7345,13.7704
25.6666,13.7771
25.6115,13.7957
25.5665,13.8255
25.5325,13.8666
25.5068,13.9272
25.4911,14.0136
25.3481,14.0136
25.3493,13.9957
25.3697,13.9023
25.4013,13.8264
25.4431,13.7650
25.4977,13.7142
25.5626,13.6775
25.6400,13.6545
25.7328,13.6463
Z" /> 
<path style="fill:#000000; fill-opacity:1.0000; stroke:none;fill-rule:evenodd;"
d="M 26.8640,14.5546
26.8640,14.0489
26.8586,13.9567
26.8445,13.8891
26.8239,13.8405
26.8009,13.8109
26.7702,13.7893
26.7299,13.7755
26.6774,13.7704
26.6164,13.7764
26.5653,13.7934
26.5219,13.8210
26.4851,13.8576
26.4565,13.8996
26.4357,13.9478
26.4357,14.5546
26.2936,14.5546
26.2936,13.6662
26.3931,13.6662
26.4198,13.7758
26.4268,13.7758
26.4759,13.7249
26.5414,13.6827
26.5907,13.6630
26.6474,13.6507
26.7129,13.6463
26.7833,13.6508
26.8409,13.6632
26.8914,13.6866
26.9324,13.7226
26.9633,13.7705
26.9874,13.8370
27.0009,13.9137
27.0061,14.0189
27.0061,14.5546
Z" /> 
<path style="fill:#000000; fill-opacity:1.0000; stroke:none;fill-rule:evenodd;"
d="M 27.1283,14.7928
27.8532,14.7928
27.8532,14.9169
27.1283,14.9169
Z" /> 
<path style="fill:#000000; fill-opacity:1.0000; stroke:none;fill-rule:evenodd;"
d="M 28.5956,14.4950
28.5385,14.5287
28.4694,14.5542
28.3953,14.5693
28.3167,14.5744
28.2485,14.5704
28.1910,14.5592
28.1425,14.5417
28.0777,14.5016
28.0262,14.4478
27.9877,14.3818
27.9604,14.3008
27.9453,14.2123
27.9400,14.1104
27.9473,13.9965
27.9674,13.9035
27.9984,13.8276
28.0395,13.7659
28.0933,13.7146
28.1573,13.6777
28.2338,13.6545
28.3256,13.6463
28.4076,13.6498
28.4703,13.6592
28.5278,13.6751
28.5778,13.6959
28.5370,13.8200
28.4944,13.7996
28.4463,13.7837
28.3955,13.7738
28.3398,13.7704
28.2731,13.7773
28.2194,13.7965
28.1755,13.8273
28.1401,13.8707
28.1126,13.9295
28.0943,14.0077
28.0874,14.1104
28.0908,14.1767
28.1008,14.2388
28.1188,14.2970
28.1452,14.3467
28.1810,14.3889
28.2269,14.4220
28.2816,14.4428
28.3522,14.4503
28.4140,14.4452
28.4668,14.4306
28.5143,14.4087
28.5494,14.3858
Z" /> 
<path style="fill:#000000; fill-opacity:1.0000; stroke:none;fill-rule:evenodd;"
d="M 29.1851,13.6550
29.2629,13.6791
29.3305,13.7192
29.3846,13.7730
29.4257,13.8390
29.4557,13.9200
29.4728,14.0085
29.4788,14.1104
29.4715,14.2241
29.4512,14.3172
29.4199,14.3931
29.3783,14.4549
29.3242,14.5061
29.2596,14.5430
29.1824,14.5662
29.0897,14.5744
28.9943,14.5658
28.9164,14.5417
28.8489,14.5016
28.7947,14.4478
28.7536,14.3817
28.7237,14.3008
28.7066,14.2122
28.7006,14.1104
28.8480,14.1104
28.8514,14.1768
28.8613,14.2396
28.8789,14.2987
28.9031,14.3477
28.9359,14.3892
28.9777,14.4220
29.0274,14.4429
29.0896,14.4503
29.1527,14.4441
29.2039,14.4255
29.2458,14.3954
29.2800,14.3523
29.3067,14.2935
29.3246,14.2146
29.3313,14.1104
29.3279,14.0424
29.3179,13.9794
29.3004,13.9203
29.2761,13.8714
29.2433,13.8299
29.2015,13.7978
29.1519,13.7776
29.0896,13.7704
29.0266,13.7767
28.9754,13.7952
28.9335,13.8253
28.8993,13.8684
28.8726,13.9272
28.8547,14.0061
28.8480,14.1104
28.7006,14.1104
28.7079,13.9966
28.7281,13.9035
28.7595,13.8276
28.8009,13.7659
28.8551,13.7147
28.9198,13.6777
28.9970,13.6545
29.0897,13.6463
Z" /> 
<path style="fill:#000000; fill-opacity:1.0000; stroke:none;fill-rule:evenodd;"
d="M 29.8613,14.3348
29.8675,14.3916
29.8826,14.4237
29.9079,14.4434
29.9430,14.4503
29.9928,14.4468
30.0532,14.4308
30.0692,14.5425
30.0377,14.5546
29.9901,14.5655
29.9022,14.5744
29.8506,14.5691
29.8073,14.5538
29.7707,14.5291
29.7438,14.4951
29.7260,14.4457
29.7192,14.3753
29.7192,13.3088
29.8613,13.3088
Z" /> 
<path style="fill:#000000; fill-opacity:1.0000; stroke:none;fill-rule:evenodd;"
d="M 30.3799,14.3348
30.3862,14.3916
30.4013,14.4237
30.4265,14.4434
30.4617,14.4503
30.5114,14.4468
30.5719,14.4308
30.5879,14.5425
30.5563,14.5546
30.5088,14.5655
30.4208,14.5744
30.3692,14.5691
30.3260,14.5538
30.2893,14.5291
30.2624,14.4951
30.2446,14.4457
30.2378,14.3753
30.2378,13.3088
30.3799,13.3088
Z" /> 
<path style="fill:#000000; fill-opacity:1.0000; stroke:none;fill-rule:evenodd;"
d="M 31.1419,13.6496
31.2025,13.6596
31.2599,13.6788
31.3108,13.7098
31.3534,13.7533
31.3890,13.8148
31.4048,13.8612
31.4154,13.9200
31.4192,13.9940
31.4167,14.0536
31.4086,14.1228
30.8382,14.1228
30.8424,14.1987
30.8541,14.2617
30.8750,14.3185
30.9039,14.3640
30.9423,14.4006
30.9919,14.4281
31.0496,14.4443
31.1242,14.4503
31.1841,14.4445
31.2451,14.4265
31.3002,14.3993
31.3357,14.3709
31.3890,14.4801
31.3306,14.5182
31.2548,14.5490
31.1723,14.5680
31.0834,14.5744
30.9863,14.5658
30.9075,14.5417
30.8392,14.5015
30.7849,14.4478
30.7437,14.3818
30.7139,14.3017
30.6968,14.2136
30.6908,14.1104
30.6970,14.0136
30.8400,14.0136
31.2806,14.0136
31.2735,13.9247
31.2553,13.8643
31.2290,13.8245
31.1914,13.7953
31.1439,13.7770
31.0834,13.7704
31.0155,13.7771
30.9604,13.7957
30.9154,13.8255
30.8814,13.8666
30.8556,13.9272
30.8400,14.0136
30.6970,14.0136
30.6982,13.9957
30.7186,13.9023
30.7502,13.8264
30.7920,13.7650
30.8466,13.7142
30.9115,13.6775
30.9889,13.6545
31.0817,13.6463
Z" /> 
<path style="fill:#000000; fill-opacity:1.0000; stroke:none;fill-rule:evenodd;"
d="M 32.2298,14.4950
32.1727,14.5287
32.1036,14.5542
32.0295,14.5693
31.9508,14.5744
31.8827,14.5704
31.8251,14.5592
31.7766,14.5417
31.7118,14.5016
31.6603,14.4478
31.6219,14.3818
31.5946,14.3008
31.5795,14.2123
31.5742,14.1104
31.5814,13.9965
31.6015,13.9035
31.6326,13.8276
31.6737,13.7659
31.7274,13.7146
31.7915,13.6777
31.8679,13.6545
31.9597,13.6463
32.0417,13.6498
32.1044,13.6592
32.1620,13.6751
32.2120,13.6959
32.1711,13.8200
32.1286,13.7996
32.0805,13.7837
32.0296,13.7738
31.9739,13.7704
31.9073,13.7773
31.8535,13.7965
31.8097,13.8273
31.7742,13.8707
31.7468,13.9295
31.7284,14.0077
31.7216,14.1104
31.7250,14.1767
31.7349,14.2388
31.7530,14.2970
31.7794,14.3467
31.8152,14.3889
31.8611,14.4220
31.9157,14.4428
31.9863,14.4503
32.0481,14.4452
32.1010,14.4306
32.1485,14.4087
32.1835,14.3858
Z" /> 
<path style="fill:#000000; fill-opacity:1.0000; stroke:none;fill-rule:evenodd;"
d="M 32.3082,13.6662
32.4467,13.6662
32.4467,13.4890
32.5889,13.4478
32.5889,13.6662
32.8305,13.6662
32.8305,13.7902
32.5889,13.7902
32.5889,14.2817
32.5958,14.3667
32.6120,14.4122
32.6303,14.4329
32.6556,14.4457
32.6902,14.4503
32.7345,14.4477
32.7683,14.4408
32.8394,14.4156
32.8714,14.5248
32.8218,14.5447
32.7665,14.5607
32.7084,14.5709
32.6439,14.5744
32.5746,14.5666
32.5254,14.5457
32.4912,14.5132
32.4687,14.4696
32.4529,14.4039
32.4467,14.3083
32.4467,13.7902
32.3082,13.7902
Z" /> 
<path style="fill:#000000; fill-opacity:1.0000; stroke:none;fill-rule:evenodd;"
d="M 33.4433,13.6550
33.5211,13.6791
33.5887,13.7192
33.6428,13.7730
33.6840,13.8390
33.7139,13.9200
33.7310,14.0085
33.7370,14.1104
33.7297,14.2241
33.7095,14.3172
33.6781,14.3931
33.6366,14.4549
33.5825,14.5061
33.5179,14.5430
33.4407,14.5662
33.3480,14.5744
33.2526,14.5658
33.1747,14.5417
33.1071,14.5016
33.0530,14.4478
33.0119,14.3817
32.9820,14.3008
32.9649,14.2122
32.9589,14.1104
33.1063,14.1104
33.1097,14.1768
33.1196,14.2396
33.1371,14.2987
33.1613,14.3477
33.1942,14.3892
33.2359,14.4220
33.2857,14.4429
33.3479,14.4503
33.4110,14.4441
33.4621,14.4255
33.5040,14.3954
33.5383,14.3523
33.5649,14.2935
33.5829,14.2146
33.5895,14.1104
33.5861,14.0424
33.5762,13.9794
33.5587,13.9203
33.5344,13.8714
33.5015,13.8299
33.4598,13.7978
33.4102,13.7776
33.3479,13.7704
33.2848,13.7767
33.2337,13.7952
33.1918,13.8253
33.1576,13.8684
33.1309,13.9272
33.1130,14.0061
33.1063,14.1104
32.9589,14.1104
32.9662,13.9966
32.9864,13.9035
33.0177,13.8276
33.0592,13.7659
33.1134,13.7147
33.1780,13.6777
33.2552,13.6545
33.3480,13.6463
Z" /> 
<path style="fill:#000000; fill-opacity:1.0000; stroke:none;fill-rule:evenodd;"
d="M 34.3808,13.8030
34.3278,13.7895
34.2795,13.7853
34.2302,13.7903
34.1906,13.8045
34.1587,13.8271
34.1329,13.8572
34.1147,13.8921
34.1036,13.9328
34.1036,14.5546
33.9615,14.5546
33.9615,13.6662
34.0610,13.6662
34.0876,13.7727
34.0948,13.7727
34.1328,13.7180
34.1756,13.6793
34.2273,13.6551
34.2955,13.6463
34.3482,13.6505
34.4110,13.6644
Z" /> 
<path style="fill:#000000; fill-opacity:1.0000; stroke:none;fill-rule:evenodd;"
d="M 34.4289,14.7928
35.1538,14.7928
35.1538,14.9169
34.4289,14.9169
Z" /> 
<path style="fill:#000000; fill-opacity:1.0000; stroke:none;fill-rule:evenodd;"
d="M 35.7641,13.6537
35.8356,13.6744
35.8937,13.7067
35.9406,13.7509
35.9753,13.8044
36.0026,13.8760
36.0209,13.9702
36.0277,14.0927
36.0201,14.2009
35.9984,14.2937
35.9623,14.3776
35.9157,14.4451
35.8570,14.4999
35.7869,14.5407
35.7083,14.5658
35.6190,14.5744
35.5567,14.5721
35.5150,14.5664
35.4325,14.5390
35.4325,14.9119
35.2903,14.9119
35.2903,13.9598
35.4325,13.9598
35.4325,14.3990
35.4664,14.4208
35.5053,14.4371
35.5496,14.4466
35.6137,14.4503
35.6731,14.4444
35.7243,14.4272
35.7690,14.3991
35.8082,14.3591
35.8377,14.3124
35.8602,14.2539
35.8749,14.1810
35.8802,14.0909
35.8769,14.0201
35.8677,13.9590
35.8510,13.9029
35.8278,13.8581
35.7962,13.8211
35.7567,13.7934
35.7099,13.7765
35.6492,13.7704
35.5905,13.7761
35.5437,13.7921
35.5062,13.8173
35.4762,13.8518
35.4514,13.8983
35.4325,13.9598
35.2903,13.9598
35.2903,13.6672
35.3880,13.6672
35.4147,13.7738
35.4218,13.7738
35.4688,13.7190
35.5275,13.6791
35.5957,13.6548
35.6759,13.6463
Z" /> 
<path style="fill:#000000; fill-opacity:1.0000; stroke:none;fill-rule:evenodd;"
d="M 36.8223,14.5546
36.8223,14.0489
36.8169,13.9567
36.8028,13.8891
36.7822,13.8405
36.7592,13.8109
36.7284,13.7893
36.6882,13.7755
36.6357,13.7704
36.5747,13.7764
36.5236,13.7934
36.4802,13.8210
36.4434,13.8576
36.4148,13.8996
36.3940,13.9478
36.3940,14.5546
36.2519,14.5546
36.2519,13.6662
36.3514,13.6662
36.3781,13.7758
36.3851,13.7758
36.4342,13.7249
36.4997,13.6827
36.5490,13.6630
36.6057,13.6507
36.6712,13.6463
36.7416,13.6508
36.7991,13.6632
36.8497,13.6866
36.8906,13.7226
36.9216,13.7705
36.9457,13.8370
36.9592,13.9137
36.9644,14.0189
36.9644,14.5546
Z" /> 
<path style="fill:#000000; fill-opacity:1.0000; stroke:none;fill-rule:evenodd;"
d="M 37.6972,13.6537
37.7687,13.6744
37.8268,13.7067
37.8737,13.7509
37.9084,13.8044
37.9357,13.8760
37.9540,13.9702
37.9608,14.0927
37.9532,14.2009
37.9315,14.2937
37.8954,14.3776
37.8488,14.4451
37.7901,14.4999
37.7200,14.5407
37.6414,14.5658
37.5521,14.5744
37.4898,14.5721
37.4481,14.5664
37.3655,14.5390
37.3655,14.9119
37.2234,14.9119
37.2234,13.9598
37.3655,13.9598
37.3655,14.3990
37.3995,14.4208
37.4384,14.4371
37.4827,14.4466
37.5468,14.4503
37.6062,14.4444
37.6574,14.4272
37.7021,14.3991
37.7413,14.3591
37.7708,14.3124
37.7933,14.2539
37.8080,14.1810
37.8133,14.0909
37.8100,14.0201
37.8008,13.9590
37.7841,13.9029
37.7609,13.8581
37.7293,13.8211
37.6898,13.7934
37.6429,13.7765
37.5823,13.7704
37.5236,13.7761
37.4768,13.7921
37.4393,13.8173
37.4093,13.8518
37.3845,13.8983
37.3655,13.9598
37.2234,13.9598
37.2234,13.6672
37.3211,13.6672
37.3478,13.7738
37.3549,13.7738
37.4019,13.7190
37.4606,13.6791
37.5288,13.6548
37.6090,13.6463
Z" /> 
<path style="fill:#000000; fill-opacity:1.0000; stroke:none;fill-rule:evenodd;"
d="M 38.1142,14.4702
38.1215,14.4257
38.1417,14.3938
38.1731,14.3732
38.2155,14.3660
38.2594,14.3733
38.2918,14.3938
38.3127,14.4258
38.3202,14.4702
38.3128,14.5131
38.2918,14.5456
38.2593,14.5669
38.2155,14.5744
38.1732,14.5669
38.1417,14.5456
38.1214,14.5132
Z" /> 
<path style="fill:#000000; fill-opacity:1.0000; stroke:none;fill-rule:evenodd;"
d="M 38.7674,14.1575
38.6857,14.1575
38.6857,14.5546
38.5436,14.5546
38.5436,13.3088
38.6857,13.3088
38.6857,14.0682
38.7586,14.0433
39.0340,13.6662
39.1992,13.6662
38.9273,14.0240
38.8545,14.0828
38.9433,14.1537
39.2401,14.5546
39.0641,14.5546
Z" /> 
<path style="fill:#000000; fill-opacity:1.0000; stroke:none;fill-rule:evenodd;"
d="M 39.4250,13.6662
39.5671,13.6662
39.5671,14.5546
39.4250,14.5546
Z" /> 
<path style="fill:#000000; fill-opacity:1.0000; stroke:none;fill-rule:evenodd;"
d="M 39.3947,13.3983
39.4016,13.3603
39.4222,13.3282
39.4533,13.3063
39.4924,13.2989
39.5320,13.3063
39.5652,13.3282
39.5880,13.3605
39.5955,13.3983
39.5879,13.4357
39.5652,13.4659
39.5322,13.4857
39.4924,13.4925
39.4531,13.4856
39.4222,13.4659
39.4017,13.4359
Z" /> 
<path style="fill:#000000; fill-opacity:1.0000; stroke:none;fill-rule:evenodd;"
d="M 40.4770,14.4950
40.4199,14.5287
40.3509,14.5542
40.2768,14.5693
40.1981,14.5744
40.1299,14.5704
40.0724,14.5592
40.0239,14.5417
39.9591,14.5016
39.9076,14.4478
39.8691,14.3818
39.8419,14.3008
39.8268,14.2123
39.8215,14.1104
39.8287,13.9965
39.8488,13.9035
39.8799,13.8276
39.9210,13.7659
39.9747,13.7146
40.0388,13.6777
40.1152,13.6545
40.2070,13.6463
40.2890,13.6498
40.3517,13.6592
40.4092,13.6751
40.4593,13.6959
40.4184,13.8200
40.3758,13.7996
40.3278,13.7837
40.2769,13.7738
40.2212,13.7704
40.1546,13.7773
40.1008,13.7965
40.0570,13.8273
40.0215,13.8707
39.9940,13.9295
39.9757,14.0077
39.9689,14.1104
39.9723,14.1767
39.9822,14.2388
40.0003,14.2970
40.0267,14.3467
40.0625,14.3889
40.1084,14.4220
40.1630,14.4428
40.2336,14.4503
40.2954,14.4452
40.3482,14.4306
40.3958,14.4087
40.4308,14.3858
Z" /> 
<path style="fill:#000000; fill-opacity:1.0000; stroke:none;fill-rule:evenodd;"
d="M 41.0905,13.6582
41.1516,13.6763
41.2020,13.7058
41.2369,13.7412
41.2613,13.7833
41.2759,13.8294
41.2857,13.9256
41.2804,14.1339
41.2750,14.3263
41.2804,14.4509
41.2881,14.5083
41.2999,14.5595
41.1951,14.5595
41.1578,14.4339
41.1488,14.4339
41.1089,14.4830
41.0829,14.5053
41.0511,14.5258
41.0156,14.5426
40.9730,14.5570
40.9268,14.5661
40.8717,14.5694
40.8163,14.5649
40.7660,14.5516
40.7201,14.5298
40.6816,14.5008
40.6500,14.4647
40.6256,14.4214
40.6105,14.3729
40.6052,14.3162
40.6068,14.3025
40.7526,14.3025
40.7577,14.3422
40.7724,14.3760
40.7971,14.4052
40.8288,14.4272
40.8661,14.4406
40.9108,14.4454
40.9589,14.4419
40.9996,14.4320
41.0367,14.4165
41.0671,14.3981
41.0934,14.3761
41.1142,14.3525
41.1418,14.3043
41.1418,14.1561
41.0911,14.1535
41.0405,14.1525
40.9330,14.1588
40.8826,14.1680
40.8406,14.1820
40.8041,14.2025
40.7766,14.2285
40.7589,14.2609
40.7526,14.3025
40.6068,14.3025
40.6137,14.2422
40.6372,14.1852
40.6753,14.1382
40.7269,14.1014
40.7885,14.0752
40.8655,14.0568
40.9485,14.0469
41.0441,14.0434
41.0929,14.0434
41.1418,14.0469
41.1471,13.9511
41.1418,13.8869
41.1280,13.8433
41.1080,13.8144
41.0791,13.7946
41.0339,13.7808
40.9659,13.7754
40.9010,13.7800
40.8300,13.7929
40.7606,13.8132
40.7029,13.8399
40.6585,13.7307
40.7301,13.6960
40.8158,13.6707
40.9068,13.6562
41.0032,13.6513
Z" /> 
<path style="fill:#000000; fill-opacity:1.0000; stroke:none;fill-rule:evenodd;"
d="M 42.2359,14.2495
42.2377,14.4143
42.2426,14.4877
42.2537,14.5595
42.1577,14.5595
42.1222,14.4309
42.1151,14.4309
42.0722,14.4870
42.0120,14.5337
41.9655,14.5559
41.9132,14.5696
41.8539,14.5744
41.7662,14.5666
41.6950,14.5447
41.6371,14.5103
41.5901,14.4628
41.5556,14.4059
41.5286,14.3317
41.5106,14.2359
41.5039,14.1137
41.6513,14.1137
41.6543,14.1849
41.6629,14.2484
41.6787,14.3073
41.7010,14.3546
41.7320,14.3944
41.7712,14.4247
41.8181,14.4436
41.8770,14.4503
41.9357,14.4446
41.9828,14.4287
42.0209,14.4034
42.0512,14.3688
42.0757,14.3222
42.0937,14.2608
42.0937,13.8214
42.0598,13.8002
42.0209,13.7860
41.9767,13.7784
41.9125,13.7754
41.8524,13.7808
41.8014,13.7963
41.7579,13.8212
41.7206,13.8560
41.6928,13.8975
41.6711,13.9520
41.6567,14.0228
41.6513,14.1137
41.5039,14.1137
41.5117,13.9994
41.5333,13.9063
41.5668,13.8305
41.6114,13.7692
41.6688,13.7185
41.7359,13.6820
41.8144,13.6593
41.9072,13.6513
42.0111,13.6584
42.0937,13.6814
42.0937,13.3088
42.2359,13.3088
Z" /> 
<path style="fill:#000000; fill-opacity:1.0000; stroke:none;fill-rule:evenodd;"
d="M 42.3722,14.7928
43.0971,14.7928
43.0971,14.9169
42.3722,14.9169
Z" /> 
<path style="fill:#000000; fill-opacity:1.0000; stroke:none;fill-rule:evenodd;"
d="M 43.6245,14.3113
43.6161,14.2625
43.5925,14.2275
43.5575,14.2002
43.5135,14.1767
43.4104,14.1377
43.3563,14.1163
43.3074,14.0900
43.2641,14.0568
43.2283,14.0151
43.2113,13.9829
43.2003,13.9424
43.1963,13.8915
43.2016,13.8282
43.2160,13.7777
43.2386,13.7374
43.2691,13.7054
43.3209,13.6740
43.3871,13.6537
43.4717,13.6463
43.5637,13.6508
43.6325,13.6625
43.6949,13.6808
43.7453,13.7009
43.7116,13.8250
43.6682,13.8054
43.6130,13.7870
43.5539,13.7746
43.4895,13.7704
43.4176,13.7781
43.3748,13.7970
43.3556,13.8175
43.3431,13.8470
43.3385,13.8890
43.3467,13.9306
43.3704,13.9608
43.4051,13.9845
43.4495,14.0068
43.5526,14.0466
43.6066,14.0693
43.6556,14.0980
43.6988,14.1340
43.7346,14.1786
43.7517,14.2125
43.7627,14.2547
43.7667,14.3069
43.7619,14.3623
43.7480,14.4133
43.7242,14.4593
43.6903,14.4983
43.6474,14.5294
43.5934,14.5541
43.5328,14.5690
43.4575,14.5744
43.3602,14.5692
43.2852,14.5552
43.2176,14.5334
43.1661,14.5099
43.2088,14.3858
43.2533,14.4078
43.3153,14.4301
43.3817,14.4453
43.4487,14.4503
43.5206,14.4422
43.5747,14.4200
43.6014,14.3958
43.6183,14.3609
Z" /> 
<path style="fill:#000000; fill-opacity:1.0000; stroke:none;fill-rule:evenodd;"
d="M 44.5877,14.4950
44.5306,14.5287
44.4615,14.5542
44.3874,14.5693
44.3087,14.5744
44.2406,14.5704
44.1831,14.5592
44.1346,14.5417
44.0698,14.5016
44.0182,14.4478
43.9798,14.3818
43.9525,14.3008
43.9374,14.2123
43.9321,14.1104
43.9393,13.9965
43.9594,13.9035
43.9905,13.8276
44.0316,13.7659
44.0853,13.7146
44.1494,13.6777
44.2258,13.6545
44.3176,13.6463
44.3996,13.6498
44.4623,13.6592
44.5199,13.6751
44.5699,13.6959
44.5290,13.8200
44.4865,13.7996
44.4384,13.7837
44.3875,13.7738
44.3318,13.7704
44.2652,13.7773
44.2114,13.7965
44.1676,13.8273
44.1321,13.8707
44.1047,13.9295
44.0863,14.0077
44.0795,14.1104
44.0829,14.1767
44.0928,14.2388
44.1109,14.2970
44.1373,14.3467
44.1731,14.3889
44.2190,14.4220
44.2736,14.4428
44.3442,14.4503
44.4061,14.4452
44.4589,14.4306
44.5064,14.4087
44.5414,14.3858
Z" /> 
<path style="fill:#000000; fill-opacity:1.0000; stroke:none;fill-rule:evenodd;"
d="M 45.3537,14.5546
45.3537,14.0489
45.3515,13.9818
45.3457,13.9274
45.3339,13.8780
45.3164,13.8405
45.2913,13.8101
45.2586,13.7882
45.2189,13.7753
45.1635,13.7704
45.1097,13.7764
45.0598,13.7942
45.0125,13.8245
44.9727,13.8642
44.9439,13.9102
44.9255,13.9638
44.9255,14.5546
44.7833,14.5546
44.7833,13.3088
44.9255,13.3088
44.9255,13.7669
44.9326,13.7669
44.9833,13.7175
45.0436,13.6791
45.0880,13.6616
45.1411,13.6503
45.2044,13.6463
45.2764,13.6508
45.3341,13.6632
45.3847,13.6866
45.4256,13.7226
45.4562,13.7705
45.4789,13.8370
45.4911,13.9136
45.4958,14.0189
45.4958,14.5546
Z" /> 
</g></g> 
</svg>
