<?xml version="1.0" standalone="no"?>
 <!DOCTYPE svg PUBLIC "-//W3C//DTD SVG 1.1//EN" 
 "http://www.w3.org/Graphics/SVG/1.1/DTD/svg11.dtd"> 
<svg
  xmlns:svg="http://www.w3.org/2000/svg"
  xmlns="http://www.w3.org/2000/svg"
  xmlns:xlink="http://www.w3.org/1999/xlink"
  version="1.1"
  width="119.9896mm" height="54.9910mm" viewBox="0.0000 0.0000 119.9896 54.9910">
<title>SVG Image created as kicad_images-pmcnv_count_open_collector_pnp.svg date 2025/08/14 10:04:10 </title>
  <desc>Image generated by Eeschema-SVG </desc>
<g style="fill:#000000; fill-opacity:1.0000;stroke:#000000; stroke-opacity:1.0000;
stroke-linecap:round; stroke-linejoin:round;"
 transform="translate(0 0) scale(1 1)">
<path style="fill:none; 
stroke:#000000; stroke-width:0.1524; stroke-opacity:1; 
stroke-linecap:round; stroke-linejoin:round;fill:none"
d="M 81.2800,15.2400
78.1050,15.2400
" /> 
<path style="fill:none; 
stroke:#000000; stroke-width:0.5080; stroke-opacity:1; 
stroke-linecap:round; stroke-linejoin:round;fill:none"
d="M 78.1050,13.3350
78.1050,17.1450
" /> 
</g>
<g style="fill:none; 
stroke:#000000; stroke-width:0.2540; stroke-opacity:1; 
stroke-linecap:round; stroke-linejoin:round;">
<circle cx="77.4700" cy="15.2400" r="2.8194" /> 
<path style="fill:none; 
stroke:#000000; stroke-width:0.1524; stroke-opacity:1; 
stroke-linecap:round; stroke-linejoin:round;fill:none"
d="M 78.1050,14.6050
76.2000,12.7000
" /> 
<path style="fill:none; 
stroke:#000000; stroke-width:0.1524; stroke-opacity:1; 
stroke-linecap:round; stroke-linejoin:round;fill:none"
d="M 78.1050,15.8750
76.2000,17.7800
" /> 
<path style="fill:#000000; fill-opacity:1.0000; 
stroke:#000000; stroke-width:0.1524; stroke-opacity:1; 
stroke-linecap:round; stroke-linejoin:round;fill-rule:evenodd;"
d="M 77.4700,17.0180
76.9620,16.5100
76.4540,17.5260
Z" /> 
</g>
<g style="fill:none; 
stroke:#000000; stroke-width:0.1524; stroke-opacity:1; 
stroke-linecap:round; stroke-linejoin:round;">
<path d="M81.2800 15.2400
L83.8200 15.2400
" />
<text x="82.5500" y="14.9860"
textLength="1.4732" font-size="1.6933" lengthAdjust="spacingAndGlyphs"
text-anchor="middle" opacity="0" stroke-opacity="0">B</text>
<g class="stroked-text"><desc>B</desc>
<path d="M82.6407 14.1573
L82.8221 14.2178
" />
<path d="M82.8221 14.2178
L82.8826 14.2782
" />
<path d="M82.8826 14.2782
L82.9430 14.3992
" />
<path d="M82.9430 14.3992
L82.9430 14.5806
" />
<path d="M82.9430 14.5806
L82.8826 14.7016
" />
<path d="M82.8826 14.7016
L82.8221 14.7621
" />
<path d="M82.8221 14.7621
L82.7011 14.8225
" />
<path d="M82.7011 14.8225
L82.2173 14.8225
" />
<path d="M82.2173 14.8225
L82.2173 13.5525
" />
<path d="M82.2173 13.5525
L82.6407 13.5525
" />
<path d="M82.6407 13.5525
L82.7616 13.6130
" />
<path d="M82.7616 13.6130
L82.8221 13.6735
" />
<path d="M82.8221 13.6735
L82.8826 13.7944
" />
<path d="M82.8826 13.7944
L82.8826 13.9154
" />
<path d="M82.8826 13.9154
L82.8221 14.0363
" />
<path d="M82.8221 14.0363
L82.7616 14.0968
" />
<path d="M82.7616 14.0968
L82.6407 14.1573
" />
<path d="M82.6407 14.1573
L82.2173 14.1573
" />
</g><path d="M76.2000 12.7000
L76.2000 10.1600
" />
<g transform="rotate(-90.000000 75.9460 11.4300)">
<text x="75.9460" y="11.4300"
textLength="1.4732" font-size="1.6933" lengthAdjust="spacingAndGlyphs"
text-anchor="middle" opacity="0" stroke-opacity="0">C</text>
</g>
<g class="stroked-text"><desc>C</desc>
<path d="M75.6616 11.0369
L75.7221 11.0973
" />
<path d="M75.7221 11.0973
L75.7825 11.2788
" />
<path d="M75.7825 11.2788
L75.7825 11.3997
" />
<path d="M75.7825 11.3997
L75.7221 11.5811
" />
<path d="M75.7221 11.5811
L75.6011 11.7021
" />
<path d="M75.6011 11.7021
L75.4801 11.7626
" />
<path d="M75.4801 11.7626
L75.2382 11.8230
" />
<path d="M75.2382 11.8230
L75.0568 11.8230
" />
<path d="M75.0568 11.8230
L74.8149 11.7626
" />
<path d="M74.8149 11.7626
L74.6940 11.7021
" />
<path d="M74.6940 11.7021
L74.5730 11.5811
" />
<path d="M74.5730 11.5811
L74.5125 11.3997
" />
<path d="M74.5125 11.3997
L74.5125 11.2788
" />
<path d="M74.5125 11.2788
L74.5730 11.0973
" />
<path d="M74.5730 11.0973
L74.6335 11.0369
" />
</g><path d="M76.2000 17.7800
L76.2000 20.3200
" />
<g transform="rotate(-90.000000 75.9460 19.0500)">
<text x="75.9460" y="19.0500"
textLength="1.3522" font-size="1.6933" lengthAdjust="spacingAndGlyphs"
text-anchor="middle" opacity="0" stroke-opacity="0">E</text>
</g>
<g class="stroked-text"><desc>E</desc>
<path d="M75.1173 19.3221
L75.1173 18.8987
" />
<path d="M75.7825 18.7173
L75.7825 19.3221
" />
<path d="M75.7825 19.3221
L74.5125 19.3221
" />
<path d="M74.5125 19.3221
L74.5125 18.7173
" />
</g></g>
<g style="fill:none; 
stroke:#000000; stroke-width:0.2540; stroke-opacity:1; 
stroke-linecap:round; stroke-linejoin:round;">
<rect x="44.704000" y="22.860000" width="2.032000" height="5.080000" rx="0.000000" />
</g>
<g style="fill:none; 
stroke:#000000; stroke-width:0.1524; stroke-opacity:1; 
stroke-linecap:round; stroke-linejoin:round;">
<path d="M45.7200 22.8600
L45.7200 21.5900
" />
<path d="M45.7200 27.9400
L45.7200 29.2100
" />
<text x="49.6109" y="26.0350"
textLength="2.6827" font-size="1.6933" lengthAdjust="spacingAndGlyphs"
text-anchor="middle" opacity="0" stroke-opacity="0">R2</text>
<g class="stroked-text"><desc>R2</desc>
<path d="M49.3992 25.9795
L48.9759 25.3748
" />
<path d="M48.6735 25.9795
L48.6735 24.7095
" />
<path d="M48.6735 24.7095
L49.1573 24.7095
" />
<path d="M49.1573 24.7095
L49.2783 24.7700
" />
<path d="M49.2783 24.7700
L49.3388 24.8305
" />
<path d="M49.3388 24.8305
L49.3992 24.9514
" />
<path d="M49.3992 24.9514
L49.3992 25.1329
" />
<path d="M49.3992 25.1329
L49.3388 25.2538
" />
<path d="M49.3388 25.2538
L49.2783 25.3143
" />
<path d="M49.2783 25.3143
L49.1573 25.3748
" />
<path d="M49.1573 25.3748
L48.6735 25.3748
" />
<path d="M49.8831 24.8305
L49.9435 24.7700
" />
<path d="M49.9435 24.7700
L50.0645 24.7095
" />
<path d="M50.0645 24.7095
L50.3669 24.7095
" />
<path d="M50.3669 24.7095
L50.4878 24.7700
" />
<path d="M50.4878 24.7700
L50.5483 24.8305
" />
<path d="M50.5483 24.8305
L50.6088 24.9514
" />
<path d="M50.6088 24.9514
L50.6088 25.0724
" />
<path d="M50.6088 25.0724
L50.5483 25.2538
" />
<path d="M50.5483 25.2538
L49.8226 25.9795
" />
<path d="M49.8226 25.9795
L50.6088 25.9795
" />
</g><path style="fill:none; 
stroke:#000000; stroke-width:0.1524; stroke-opacity:1; 
stroke-linecap:round; stroke-linejoin:round;fill:none"
d="M 50.8000,40.6400
50.8000,41.9100
52.0700,41.9100
50.8000,43.1800
49.5300,41.9100
50.8000,41.9100
" /> 
<path d="M50.8000 40.6400
L50.8000 40.6400
" />
<text x="50.8000" y="46.3550"
textLength="4.0737" font-size="1.6933" lengthAdjust="spacingAndGlyphs"
text-anchor="middle" opacity="0" stroke-opacity="0">GND</text>
<g class="stroked-text"><desc>GND</desc>
<path d="M49.8324 45.0900
L49.7114 45.0295
" />
<path d="M49.7114 45.0295
L49.5300 45.0295
" />
<path d="M49.5300 45.0295
L49.3486 45.0900
" />
<path d="M49.3486 45.0900
L49.2276 45.2110
" />
<path d="M49.2276 45.2110
L49.1671 45.3319
" />
<path d="M49.1671 45.3319
L49.1067 45.5738
" />
<path d="M49.1067 45.5738
L49.1067 45.7552
" />
<path d="M49.1067 45.7552
L49.1671 45.9971
" />
<path d="M49.1671 45.9971
L49.2276 46.1181
" />
<path d="M49.2276 46.1181
L49.3486 46.2391
" />
<path d="M49.3486 46.2391
L49.5300 46.2995
" />
<path d="M49.5300 46.2995
L49.6509 46.2995
" />
<path d="M49.6509 46.2995
L49.8324 46.2391
" />
<path d="M49.8324 46.2391
L49.8928 46.1786
" />
<path d="M49.8928 46.1786
L49.8928 45.7552
" />
<path d="M49.8928 45.7552
L49.6509 45.7552
" />
<path d="M50.4371 46.2995
L50.4371 45.0295
" />
<path d="M50.4371 45.0295
L51.1628 46.2995
" />
<path d="M51.1628 46.2995
L51.1628 45.0295
" />
<path d="M51.7676 46.2995
L51.7676 45.0295
" />
<path d="M51.7676 45.0295
L52.0700 45.0295
" />
<path d="M52.0700 45.0295
L52.2514 45.0900
" />
<path d="M52.2514 45.0900
L52.3724 45.2110
" />
<path d="M52.3724 45.2110
L52.4329 45.3319
" />
<path d="M52.4329 45.3319
L52.4933 45.5738
" />
<path d="M52.4933 45.5738
L52.4933 45.7552
" />
<path d="M52.4933 45.7552
L52.4329 45.9971
" />
<path d="M52.4329 45.9971
L52.3724 46.1181
" />
<path d="M52.3724 46.1181
L52.2514 46.2391
" />
<path d="M52.2514 46.2391
L52.0700 46.2995
" />
<path d="M52.0700 46.2995
L51.7676 46.2995
" />
</g></g>
<g style="fill:none; 
stroke:#000000; stroke-width:0.2540; stroke-opacity:1; 
stroke-linecap:round; stroke-linejoin:round;">
<rect x="44.704000" y="33.020000" width="2.032000" height="5.080000" rx="0.000000" />
</g>
<g style="fill:none; 
stroke:#000000; stroke-width:0.1524; stroke-opacity:1; 
stroke-linecap:round; stroke-linejoin:round;">
<path d="M45.7200 33.0200
L45.7200 31.7500
" />
<path d="M45.7200 38.1000
L45.7200 39.3700
" />
<text x="49.6109" y="36.1949"
textLength="2.6827" font-size="1.6933" lengthAdjust="spacingAndGlyphs"
text-anchor="middle" opacity="0" stroke-opacity="0">R1</text>
<g class="stroked-text"><desc>R1</desc>
<path d="M49.3992 36.1394
L48.9759 35.5347
" />
<path d="M48.6735 36.1394
L48.6735 34.8694
" />
<path d="M48.6735 34.8694
L49.1573 34.8694
" />
<path d="M49.1573 34.8694
L49.2783 34.9299
" />
<path d="M49.2783 34.9299
L49.3388 34.9904
" />
<path d="M49.3388 34.9904
L49.3992 35.1113
" />
<path d="M49.3992 35.1113
L49.3992 35.2928
" />
<path d="M49.3992 35.2928
L49.3388 35.4137
" />
<path d="M49.3388 35.4137
L49.2783 35.4742
" />
<path d="M49.2783 35.4742
L49.1573 35.5347
" />
<path d="M49.1573 35.5347
L48.6735 35.5347
" />
<path d="M50.6088 36.1394
L49.8831 36.1394
" />
<path d="M50.2459 36.1394
L50.2459 34.8694
" />
<path d="M50.2459 34.8694
L50.1250 35.0509
" />
<path d="M50.1250 35.0509
L50.0040 35.1718
" />
<path d="M50.0040 35.1718
L49.8831 35.2323
" />
</g><path style="fill:none; 
stroke:#000000; stroke-width:0.1524; stroke-opacity:1; 
stroke-linecap:round; stroke-linejoin:round;fill:none"
d="M 50.0380,8.8900
50.8000,7.6200
" /> 
<path style="fill:none; 
stroke:#000000; stroke-width:0.1524; stroke-opacity:1; 
stroke-linecap:round; stroke-linejoin:round;fill:none"
d="M 50.8000,7.6200
51.5620,8.8900
" /> 
<path style="fill:none; 
stroke:#000000; stroke-width:0.1524; stroke-opacity:1; 
stroke-linecap:round; stroke-linejoin:round;fill:none"
d="M 50.8000,10.1600
50.8000,7.6200
" /> 
<path d="M50.8000 10.1600
L50.8000 10.1600
" />
<text x="50.8000" y="5.7150"
textLength="5.2832" font-size="1.6933" lengthAdjust="spacingAndGlyphs"
text-anchor="middle" opacity="0" stroke-opacity="0">+24V</text>
<g class="stroked-text"><desc>+24V</desc>
<path d="M48.5623 5.1757
L49.5300 5.1757
" />
<path d="M49.0461 5.6595
L49.0461 4.6919
" />
<path d="M50.0743 4.5105
L50.1347 4.4500
" />
<path d="M50.1347 4.4500
L50.2557 4.3895
" />
<path d="M50.2557 4.3895
L50.5581 4.3895
" />
<path d="M50.5581 4.3895
L50.6790 4.4500
" />
<path d="M50.6790 4.4500
L50.7395 4.5105
" />
<path d="M50.7395 4.5105
L50.8000 4.6314
" />
<path d="M50.8000 4.6314
L50.8000 4.7524
" />
<path d="M50.8000 4.7524
L50.7395 4.9338
" />
<path d="M50.7395 4.9338
L50.0138 5.6595
" />
<path d="M50.0138 5.6595
L50.8000 5.6595
" />
<path d="M51.8885 4.8129
L51.8885 5.6595
" />
<path d="M51.5861 4.3291
L51.2838 5.2362
" />
<path d="M51.2838 5.2362
L52.0699 5.2362
" />
<path d="M52.3723 4.3895
L52.7956 5.6595
" />
<path d="M52.7956 5.6595
L53.2190 4.3895
" />
</g><path d="M45.7200 20.3200
L76.2000 20.3200
" />
<path d="M50.8000 10.1600
L76.2000 10.1600
" />
<path d="M38.1000 40.6400
L45.7200 40.6400
" />
<path d="M45.7200 40.6400
L50.8000 40.6400
" />
<path d="M50.8000 40.6400
L91.4400 40.6400
" />
<path d="M38.1000 30.4800
L45.7200 30.4800
" />
<path d="M45.7200 20.3200
L45.7200 21.5900
" />
<path d="M45.7200 39.3700
L45.7200 40.6400
" />
<path d="M45.7200 30.4800
L45.7200 29.2100
" />
<path d="M45.7200 31.7500
L45.7200 30.4800
" />
<path d="M83.8200 15.2400
L91.4400 15.2400
" />
<path d="M76.2000 10.1600
L91.4400 10.1600
" />
</g>
<g style="fill:none; 
stroke:#000000; stroke-width:0.1524; stroke-opacity:1; 
stroke-linecap:round; stroke-linejoin:round;">
<text x="36.8300" y="41.0250"
textLength="4.2551" font-size="1.6933" lengthAdjust="spacingAndGlyphs"
text-anchor="end" opacity="0" stroke-opacity="0">COM</text>
<g class="stroked-text"><desc>COM</desc>
<path d="M33.7059 40.8486
L33.6455 40.9091
" />
<path d="M33.6455 40.9091
L33.4640 40.9695
" />
<path d="M33.4640 40.9695
L33.3431 40.9695
" />
<path d="M33.3431 40.9695
L33.1617 40.9091
" />
<path d="M33.1617 40.9091
L33.0407 40.7881
" />
<path d="M33.0407 40.7881
L32.9802 40.6671
" />
<path d="M32.9802 40.6671
L32.9198 40.4252
" />
<path d="M32.9198 40.4252
L32.9198 40.2438
" />
<path d="M32.9198 40.2438
L32.9802 40.0019
" />
<path d="M32.9802 40.0019
L33.0407 39.8810
" />
<path d="M33.0407 39.8810
L33.1617 39.7600
" />
<path d="M33.1617 39.7600
L33.3431 39.6995
" />
<path d="M33.3431 39.6995
L33.4640 39.6995
" />
<path d="M33.4640 39.6995
L33.6455 39.7600
" />
<path d="M33.6455 39.7600
L33.7059 39.8205
" />
<path d="M34.4921 39.6995
L34.7340 39.6995
" />
<path d="M34.7340 39.6995
L34.8550 39.7600
" />
<path d="M34.8550 39.7600
L34.9759 39.8810
" />
<path d="M34.9759 39.8810
L35.0364 40.1229
" />
<path d="M35.0364 40.1229
L35.0364 40.5462
" />
<path d="M35.0364 40.5462
L34.9759 40.7881
" />
<path d="M34.9759 40.7881
L34.8550 40.9091
" />
<path d="M34.8550 40.9091
L34.7340 40.9695
" />
<path d="M34.7340 40.9695
L34.4921 40.9695
" />
<path d="M34.4921 40.9695
L34.3712 40.9091
" />
<path d="M34.3712 40.9091
L34.2502 40.7881
" />
<path d="M34.2502 40.7881
L34.1898 40.5462
" />
<path d="M34.1898 40.5462
L34.1898 40.1229
" />
<path d="M34.1898 40.1229
L34.2502 39.8810
" />
<path d="M34.2502 39.8810
L34.3712 39.7600
" />
<path d="M34.3712 39.7600
L34.4921 39.6995
" />
<path d="M35.5807 40.9695
L35.5807 39.6995
" />
<path d="M35.5807 39.6995
L36.0041 40.6067
" />
<path d="M36.0041 40.6067
L36.4274 39.6995
" />
<path d="M36.4274 39.6995
L36.4274 40.9695
" />
</g></g>
<g style="fill:none; 
stroke:#000000; stroke-width:0.1524; stroke-opacity:1; 
stroke-linecap:round; stroke-linejoin:round;">
<text x="57.1500" y="19.4350"
textLength="3.4084" font-size="1.6933" lengthAdjust="spacingAndGlyphs"
text-anchor="start" opacity="0" stroke-opacity="0">Out</text>
<g class="stroked-text"><desc>Out</desc>
<path d="M57.7944 18.1095
L58.0363 18.1095
" />
<path d="M58.0363 18.1095
L58.1573 18.1700
" />
<path d="M58.1573 18.1700
L58.2782 18.2910
" />
<path d="M58.2782 18.2910
L58.3387 18.5329
" />
<path d="M58.3387 18.5329
L58.3387 18.9562
" />
<path d="M58.3387 18.9562
L58.2782 19.1981
" />
<path d="M58.2782 19.1981
L58.1573 19.3191
" />
<path d="M58.1573 19.3191
L58.0363 19.3795
" />
<path d="M58.0363 19.3795
L57.7944 19.3795
" />
<path d="M57.7944 19.3795
L57.6735 19.3191
" />
<path d="M57.6735 19.3191
L57.5525 19.1981
" />
<path d="M57.5525 19.1981
L57.4921 18.9562
" />
<path d="M57.4921 18.9562
L57.4921 18.5329
" />
<path d="M57.4921 18.5329
L57.5525 18.2910
" />
<path d="M57.5525 18.2910
L57.6735 18.1700
" />
<path d="M57.6735 18.1700
L57.7944 18.1095
" />
<path d="M59.4273 18.5329
L59.4273 19.3795
" />
<path d="M58.8830 18.5329
L58.8830 19.1981
" />
<path d="M58.8830 19.1981
L58.9435 19.3191
" />
<path d="M58.9435 19.3191
L59.0645 19.3795
" />
<path d="M59.0645 19.3795
L59.2459 19.3795
" />
<path d="M59.2459 19.3795
L59.3668 19.3191
" />
<path d="M59.3668 19.3191
L59.4273 19.2586
" />
<path d="M59.8506 18.5329
L60.3344 18.5329
" />
<path d="M60.0320 18.1095
L60.0320 19.1981
" />
<path d="M60.0320 19.1981
L60.0925 19.3191
" />
<path d="M60.0925 19.3191
L60.2135 19.3795
" />
<path d="M60.2135 19.3795
L60.3344 19.3795
" />
</g></g>
<g style="fill:none; 
stroke:#000000; stroke-width:0.1524; stroke-opacity:1; 
stroke-linecap:round; stroke-linejoin:round;">
<text x="57.1500" y="9.2750"
textLength="2.8037" font-size="1.6933" lengthAdjust="spacingAndGlyphs"
text-anchor="start" opacity="0" stroke-opacity="0">L+</text>
<g class="stroked-text"><desc>L+</desc>
<path d="M58.1573 9.2195
L57.5525 9.2195
" />
<path d="M57.5525 9.2195
L57.5525 7.9495
" />
<path d="M58.5806 8.7357
L59.5483 8.7357
" />
<path d="M59.0644 9.2195
L59.0644 8.2519
" />
</g></g>
<g style="fill:none; 
stroke:#000000; stroke-width:0.1524; stroke-opacity:1; 
stroke-linecap:round; stroke-linejoin:round;">
<text x="67.3100" y="19.4350"
textLength="3.4084" font-size="1.6933" lengthAdjust="spacingAndGlyphs"
text-anchor="end" opacity="0" stroke-opacity="0">Out</text>
<g class="stroked-text"><desc>Out</desc>
<path d="M64.5488 18.1095
L64.7907 18.1095
" />
<path d="M64.7907 18.1095
L64.9117 18.1700
" />
<path d="M64.9117 18.1700
L65.0326 18.2910
" />
<path d="M65.0326 18.2910
L65.0931 18.5329
" />
<path d="M65.0931 18.5329
L65.0931 18.9562
" />
<path d="M65.0931 18.9562
L65.0326 19.1981
" />
<path d="M65.0326 19.1981
L64.9117 19.3191
" />
<path d="M64.9117 19.3191
L64.7907 19.3795
" />
<path d="M64.7907 19.3795
L64.5488 19.3795
" />
<path d="M64.5488 19.3795
L64.4279 19.3191
" />
<path d="M64.4279 19.3191
L64.3069 19.1981
" />
<path d="M64.3069 19.1981
L64.2465 18.9562
" />
<path d="M64.2465 18.9562
L64.2465 18.5329
" />
<path d="M64.2465 18.5329
L64.3069 18.2910
" />
<path d="M64.3069 18.2910
L64.4279 18.1700
" />
<path d="M64.4279 18.1700
L64.5488 18.1095
" />
<path d="M66.1817 18.5329
L66.1817 19.3795
" />
<path d="M65.6374 18.5329
L65.6374 19.1981
" />
<path d="M65.6374 19.1981
L65.6979 19.3191
" />
<path d="M65.6979 19.3191
L65.8189 19.3795
" />
<path d="M65.8189 19.3795
L66.0003 19.3795
" />
<path d="M66.0003 19.3795
L66.1212 19.3191
" />
<path d="M66.1212 19.3191
L66.1817 19.2586
" />
<path d="M66.6050 18.5329
L67.0888 18.5329
" />
<path d="M66.7864 18.1095
L66.7864 19.1981
" />
<path d="M66.7864 19.1981
L66.8469 19.3191
" />
<path d="M66.8469 19.3191
L66.9679 19.3795
" />
<path d="M66.9679 19.3795
L67.0888 19.3795
" />
</g></g>
<g style="fill:none; 
stroke:#000000; stroke-width:0.1524; stroke-opacity:1; 
stroke-linecap:round; stroke-linejoin:round;">
<text x="38.1000" y="51.1850"
textLength="7.0369" font-size="1.6933" lengthAdjust="spacingAndGlyphs"
text-anchor="middle" opacity="0" stroke-opacity="0">Модуль</text>
<g class="stroked-text"><desc>Модуль</desc>
<path d="M34.9855 51.1295
L34.9855 49.8595
" />
<path d="M34.9855 49.8595
L35.4089 50.7667
" />
<path d="M35.4089 50.7667
L35.8322 49.8595
" />
<path d="M35.8322 49.8595
L35.8322 51.1295
" />
<path d="M36.6184 51.1295
L36.4974 51.0691
" />
<path d="M36.4974 51.0691
L36.4369 51.0086
" />
<path d="M36.4369 51.0086
L36.3765 50.8876
" />
<path d="M36.3765 50.8876
L36.3765 50.5248
" />
<path d="M36.3765 50.5248
L36.4369 50.4038
" />
<path d="M36.4369 50.4038
L36.4974 50.3433
" />
<path d="M36.4974 50.3433
L36.6184 50.2829
" />
<path d="M36.6184 50.2829
L36.7998 50.2829
" />
<path d="M36.7998 50.2829
L36.9207 50.3433
" />
<path d="M36.9207 50.3433
L36.9812 50.4038
" />
<path d="M36.9812 50.4038
L37.0417 50.5248
" />
<path d="M37.0417 50.5248
L37.0417 50.8876
" />
<path d="M37.0417 50.8876
L36.9812 51.0086
" />
<path d="M36.9812 51.0086
L36.9207 51.0691
" />
<path d="M36.9207 51.0691
L36.7998 51.1295
" />
<path d="M36.7998 51.1295
L36.6184 51.1295
" />
<path d="M38.1907 50.4038
L38.1302 50.3433
" />
<path d="M38.1302 50.3433
L38.0093 50.2829
" />
<path d="M38.0093 50.2829
L37.7674 50.2829
" />
<path d="M37.7674 50.2829
L37.6464 50.3433
" />
<path d="M37.6464 50.3433
L37.5859 50.4038
" />
<path d="M37.5859 50.4038
L37.5255 50.5248
" />
<path d="M37.5255 50.5248
L37.5255 50.8876
" />
<path d="M37.5255 50.8876
L37.5859 51.0086
" />
<path d="M37.5859 51.0086
L37.6464 51.0691
" />
<path d="M37.6464 51.0691
L37.7674 51.1295
" />
<path d="M37.7674 51.1295
L37.9488 51.1295
" />
<path d="M37.9488 51.1295
L38.0697 51.0691
" />
<path d="M38.0697 51.0691
L38.1302 51.0086
" />
<path d="M38.1302 51.0086
L38.1907 50.8876
" />
<path d="M38.1907 50.8876
L38.1907 50.1014
" />
<path d="M38.1907 50.1014
L38.1302 49.9805
" />
<path d="M38.1302 49.9805
L38.0697 49.9200
" />
<path d="M38.0697 49.9200
L37.9488 49.8595
" />
<path d="M37.9488 49.8595
L37.7069 49.8595
" />
<path d="M37.7069 49.8595
L37.5859 49.9200
" />
<path d="M38.6140 50.2829
L38.9164 51.1295
" />
<path d="M39.2187 50.2829
L38.9164 51.1295
" />
<path d="M38.9164 51.1295
L38.7954 51.4319
" />
<path d="M38.7954 51.4319
L38.7349 51.4924
" />
<path d="M38.7349 51.4924
L38.6140 51.5529
" />
<path d="M40.1863 51.1295
L40.1863 50.2829
" />
<path d="M40.1863 50.2829
L40.0049 50.2829
" />
<path d="M40.0049 50.2829
L39.8840 50.3433
" />
<path d="M39.8840 50.3433
L39.8235 50.4643
" />
<path d="M39.8235 50.4643
L39.7630 50.9481
" />
<path d="M39.7630 50.9481
L39.7025 51.0691
" />
<path d="M39.7025 51.0691
L39.5816 51.1295
" />
<path d="M40.7911 50.2829
L40.7911 51.1295
" />
<path d="M40.7911 51.1295
L41.0935 51.1295
" />
<path d="M41.0935 51.1295
L41.2145 51.0691
" />
<path d="M41.2145 51.0691
L41.2749 50.9481
" />
<path d="M41.2749 50.9481
L41.2749 50.7667
" />
<path d="M41.2749 50.7667
L41.2145 50.6457
" />
<path d="M41.2145 50.6457
L41.0935 50.5852
" />
<path d="M41.0935 50.5852
L40.7911 50.5852
" />
</g></g>
<g style="fill:none; 
stroke:#000000; stroke-width:0.1524; stroke-opacity:1; 
stroke-linecap:round; stroke-linejoin:round;">
<text x="83.8200" y="51.1850"
textLength="8.1859" font-size="1.6933" lengthAdjust="spacingAndGlyphs"
text-anchor="middle" opacity="0" stroke-opacity="0">Энкодер</text>
<g class="stroked-text"><desc>Энкодер</desc>
<path d="M80.8567 50.5248
L80.2520 50.5248
" />
<path d="M80.0706 49.9805
L80.1310 49.9200
" />
<path d="M80.1310 49.9200
L80.3125 49.8595
" />
<path d="M80.3125 49.8595
L80.4334 49.8595
" />
<path d="M80.4334 49.8595
L80.6148 49.9200
" />
<path d="M80.6148 49.9200
L80.7358 50.0410
" />
<path d="M80.7358 50.0410
L80.7963 50.1619
" />
<path d="M80.7963 50.1619
L80.8567 50.4038
" />
<path d="M80.8567 50.4038
L80.8567 50.5852
" />
<path d="M80.8567 50.5852
L80.7963 50.8271
" />
<path d="M80.7963 50.8271
L80.7358 50.9481
" />
<path d="M80.7358 50.9481
L80.6148 51.0691
" />
<path d="M80.6148 51.0691
L80.4334 51.1295
" />
<path d="M80.4334 51.1295
L80.3125 51.1295
" />
<path d="M80.3125 51.1295
L80.1310 51.0691
" />
<path d="M80.1310 51.0691
L80.0706 51.0086
" />
<path d="M81.4010 50.7062
L81.9453 50.7062
" />
<path d="M81.4010 50.2829
L81.4010 51.1295
" />
<path d="M81.9453 50.2829
L81.9453 51.1295
" />
<path d="M82.5500 50.2829
L82.5500 51.1295
" />
<path d="M82.6710 50.6457
L83.0338 51.1295
" />
<path d="M83.0338 50.2829
L82.5500 50.7667
" />
<path d="M83.7596 51.1295
L83.6386 51.0691
" />
<path d="M83.6386 51.0691
L83.5781 51.0086
" />
<path d="M83.5781 51.0086
L83.5177 50.8876
" />
<path d="M83.5177 50.8876
L83.5177 50.5248
" />
<path d="M83.5177 50.5248
L83.5781 50.4038
" />
<path d="M83.5781 50.4038
L83.6386 50.3433
" />
<path d="M83.6386 50.3433
L83.7596 50.2829
" />
<path d="M83.7596 50.2829
L83.9410 50.2829
" />
<path d="M83.9410 50.2829
L84.0619 50.3433
" />
<path d="M84.0619 50.3433
L84.1224 50.4038
" />
<path d="M84.1224 50.4038
L84.1829 50.5248
" />
<path d="M84.1829 50.5248
L84.1829 50.8876
" />
<path d="M84.1829 50.8876
L84.1224 51.0086
" />
<path d="M84.1224 51.0086
L84.0619 51.0691
" />
<path d="M84.0619 51.0691
L83.9410 51.1295
" />
<path d="M83.9410 51.1295
L83.7596 51.1295
" />
<path d="M85.3319 50.4038
L85.2714 50.3433
" />
<path d="M85.2714 50.3433
L85.1505 50.2829
" />
<path d="M85.1505 50.2829
L84.9086 50.2829
" />
<path d="M84.9086 50.2829
L84.7876 50.3433
" />
<path d="M84.7876 50.3433
L84.7271 50.4038
" />
<path d="M84.7271 50.4038
L84.6667 50.5248
" />
<path d="M84.6667 50.5248
L84.6667 50.8876
" />
<path d="M84.6667 50.8876
L84.7271 51.0086
" />
<path d="M84.7271 51.0086
L84.7876 51.0691
" />
<path d="M84.7876 51.0691
L84.9086 51.1295
" />
<path d="M84.9086 51.1295
L85.0900 51.1295
" />
<path d="M85.0900 51.1295
L85.2109 51.0691
" />
<path d="M85.2109 51.0691
L85.2714 51.0086
" />
<path d="M85.2714 51.0086
L85.3319 50.8876
" />
<path d="M85.3319 50.8876
L85.3319 50.1014
" />
<path d="M85.3319 50.1014
L85.2714 49.9805
" />
<path d="M85.2714 49.9805
L85.2109 49.9200
" />
<path d="M85.2109 49.9200
L85.0900 49.8595
" />
<path d="M85.0900 49.8595
L84.8481 49.8595
" />
<path d="M84.8481 49.8595
L84.7271 49.9200
" />
<path d="M86.3599 51.0691
L86.2390 51.1295
" />
<path d="M86.2390 51.1295
L85.9971 51.1295
" />
<path d="M85.9971 51.1295
L85.8761 51.0691
" />
<path d="M85.8761 51.0691
L85.8157 50.9481
" />
<path d="M85.8157 50.9481
L85.8157 50.4643
" />
<path d="M85.8157 50.4643
L85.8761 50.3433
" />
<path d="M85.8761 50.3433
L85.9971 50.2829
" />
<path d="M85.9971 50.2829
L86.2390 50.2829
" />
<path d="M86.2390 50.2829
L86.3599 50.3433
" />
<path d="M86.3599 50.3433
L86.4204 50.4643
" />
<path d="M86.4204 50.4643
L86.4204 50.5852
" />
<path d="M86.4204 50.5852
L85.8157 50.7062
" />
<path d="M86.9647 50.2829
L86.9647 51.5529
" />
<path d="M86.9647 50.3433
L87.0857 50.2829
" />
<path d="M87.0857 50.2829
L87.3276 50.2829
" />
<path d="M87.3276 50.2829
L87.4485 50.3433
" />
<path d="M87.4485 50.3433
L87.5090 50.4038
" />
<path d="M87.5090 50.4038
L87.5695 50.5248
" />
<path d="M87.5695 50.5248
L87.5695 50.8876
" />
<path d="M87.5695 50.8876
L87.5090 51.0086
" />
<path d="M87.5090 51.0086
L87.4485 51.0691
" />
<path d="M87.4485 51.0691
L87.3276 51.1295
" />
<path d="M87.3276 51.1295
L87.0857 51.1295
" />
<path d="M87.0857 51.1295
L86.9647 51.0691
" />
</g></g>
<g style="fill:none; 
stroke:#000000; stroke-width:0.1524; stroke-opacity:1; 
stroke-linecap:round; stroke-linejoin:round;">
<text x="67.3100" y="39.7550"
textLength="1.6546" font-size="1.6933" lengthAdjust="spacingAndGlyphs"
text-anchor="end" opacity="0" stroke-opacity="0">M</text>
<g class="stroked-text"><desc>M</desc>
<path d="M66.0607 39.6995
L66.0607 38.4295
" />
<path d="M66.0607 38.4295
L66.4841 39.3367
" />
<path d="M66.4841 39.3367
L66.9074 38.4295
" />
<path d="M66.9074 38.4295
L66.9074 39.6995
" />
</g></g>
<g style="fill:none; 
stroke:#000000; stroke-width:0.1524; stroke-opacity:1; 
stroke-linecap:round; stroke-linejoin:round;">
<text x="67.3100" y="9.2750"
textLength="2.8037" font-size="1.6933" lengthAdjust="spacingAndGlyphs"
text-anchor="end" opacity="0" stroke-opacity="0">L+</text>
<g class="stroked-text"><desc>L+</desc>
<path d="M65.5164 9.2195
L64.9116 9.2195
" />
<path d="M64.9116 9.2195
L64.9116 7.9495
" />
<path d="M65.9397 8.7357
L66.9074 8.7357
" />
<path d="M66.4235 9.2195
L66.4235 8.2519
" />
</g></g>
<g style="fill:none; 
stroke:#000000; stroke-width:0.1524; stroke-opacity:1; 
stroke-linecap:round; stroke-linejoin:round;">
<text x="36.8300" y="30.8650"
textLength="3.6504" font-size="1.6933" lengthAdjust="spacingAndGlyphs"
text-anchor="end" opacity="0" stroke-opacity="0">AHx</text>
<g class="stroked-text"><desc>AHx</desc>
<path d="M33.5245 30.4467
L34.1292 30.4467
" />
<path d="M33.4035 30.8095
L33.8268 29.5395
" />
<path d="M33.8268 29.5395
L34.2502 30.8095
" />
<path d="M34.6735 30.8095
L34.6735 29.5395
" />
<path d="M34.6735 30.1443
L35.3992 30.1443
" />
<path d="M35.3992 30.8095
L35.3992 29.5395
" />
<path d="M35.8831 30.8095
L36.5483 29.9629
" />
<path d="M35.8831 29.9629
L36.5483 30.8095
" />
</g></g>
<g style="fill:none; 
stroke:#000000; stroke-width:0.1524; stroke-opacity:1; 
stroke-linecap:round; stroke-linejoin:round;">
<text x="30.4800" y="35.9450"
textLength="12.0565" font-size="1.6933" lengthAdjust="spacingAndGlyphs"
text-anchor="middle" opacity="0" stroke-opacity="0">CA-IS3988P</text>
<g class="stroked-text"><desc>CA-IS3988P</desc>
<path d="M25.5814 35.7686
L25.5210 35.8291
" />
<path d="M25.5210 35.8291
L25.3395 35.8895
" />
<path d="M25.3395 35.8895
L25.2186 35.8895
" />
<path d="M25.2186 35.8895
L25.0372 35.8291
" />
<path d="M25.0372 35.8291
L24.9162 35.7081
" />
<path d="M24.9162 35.7081
L24.8557 35.5871
" />
<path d="M24.8557 35.5871
L24.7953 35.3452
" />
<path d="M24.7953 35.3452
L24.7953 35.1638
" />
<path d="M24.7953 35.1638
L24.8557 34.9219
" />
<path d="M24.8557 34.9219
L24.9162 34.8010
" />
<path d="M24.9162 34.8010
L25.0372 34.6800
" />
<path d="M25.0372 34.6800
L25.2186 34.6195
" />
<path d="M25.2186 34.6195
L25.3395 34.6195
" />
<path d="M25.3395 34.6195
L25.5210 34.6800
" />
<path d="M25.5210 34.6800
L25.5814 34.7405
" />
<path d="M26.0653 35.5267
L26.6700 35.5267
" />
<path d="M25.9443 35.8895
L26.3676 34.6195
" />
<path d="M26.3676 34.6195
L26.7910 35.8895
" />
<path d="M27.2143 35.4057
L28.1820 35.4057
" />
<path d="M28.7867 35.8895
L28.7867 34.6195
" />
<path d="M29.3311 35.8291
L29.5125 35.8895
" />
<path d="M29.5125 35.8895
L29.8149 35.8895
" />
<path d="M29.8149 35.8895
L29.9358 35.8291
" />
<path d="M29.9358 35.8291
L29.9963 35.7686
" />
<path d="M29.9963 35.7686
L30.0568 35.6476
" />
<path d="M30.0568 35.6476
L30.0568 35.5267
" />
<path d="M30.0568 35.5267
L29.9963 35.4057
" />
<path d="M29.9963 35.4057
L29.9358 35.3452
" />
<path d="M29.9358 35.3452
L29.8149 35.2848
" />
<path d="M29.8149 35.2848
L29.5730 35.2243
" />
<path d="M29.5730 35.2243
L29.4520 35.1638
" />
<path d="M29.4520 35.1638
L29.3915 35.1033
" />
<path d="M29.3915 35.1033
L29.3311 34.9824
" />
<path d="M29.3311 34.9824
L29.3311 34.8614
" />
<path d="M29.3311 34.8614
L29.3915 34.7405
" />
<path d="M29.3915 34.7405
L29.4520 34.6800
" />
<path d="M29.4520 34.6800
L29.5730 34.6195
" />
<path d="M29.5730 34.6195
L29.8753 34.6195
" />
<path d="M29.8753 34.6195
L30.0568 34.6800
" />
<path d="M30.4801 34.6195
L31.2663 34.6195
" />
<path d="M31.2663 34.6195
L30.8429 35.1033
" />
<path d="M30.8429 35.1033
L31.0244 35.1033
" />
<path d="M31.0244 35.1033
L31.1453 35.1638
" />
<path d="M31.1453 35.1638
L31.2058 35.2243
" />
<path d="M31.2058 35.2243
L31.2663 35.3452
" />
<path d="M31.2663 35.3452
L31.2663 35.6476
" />
<path d="M31.2663 35.6476
L31.2058 35.7686
" />
<path d="M31.2058 35.7686
L31.1453 35.8291
" />
<path d="M31.1453 35.8291
L31.0244 35.8895
" />
<path d="M31.0244 35.8895
L30.6615 35.8895
" />
<path d="M30.6615 35.8895
L30.5406 35.8291
" />
<path d="M30.5406 35.8291
L30.4801 35.7686
" />
<path d="M31.8710 35.8895
L32.1129 35.8895
" />
<path d="M32.1129 35.8895
L32.2339 35.8291
" />
<path d="M32.2339 35.8291
L32.2943 35.7686
" />
<path d="M32.2943 35.7686
L32.4153 35.5871
" />
<path d="M32.4153 35.5871
L32.4758 35.3452
" />
<path d="M32.4758 35.3452
L32.4758 34.8614
" />
<path d="M32.4758 34.8614
L32.4153 34.7405
" />
<path d="M32.4153 34.7405
L32.3548 34.6800
" />
<path d="M32.3548 34.6800
L32.2339 34.6195
" />
<path d="M32.2339 34.6195
L31.9920 34.6195
" />
<path d="M31.9920 34.6195
L31.8710 34.6800
" />
<path d="M31.8710 34.6800
L31.8105 34.7405
" />
<path d="M31.8105 34.7405
L31.7501 34.8614
" />
<path d="M31.7501 34.8614
L31.7501 35.1638
" />
<path d="M31.7501 35.1638
L31.8105 35.2848
" />
<path d="M31.8105 35.2848
L31.8710 35.3452
" />
<path d="M31.8710 35.3452
L31.9920 35.4057
" />
<path d="M31.9920 35.4057
L32.2339 35.4057
" />
<path d="M32.2339 35.4057
L32.3548 35.3452
" />
<path d="M32.3548 35.3452
L32.4153 35.2848
" />
<path d="M32.4153 35.2848
L32.4758 35.1638
" />
<path d="M33.2015 35.1638
L33.0805 35.1033
" />
<path d="M33.0805 35.1033
L33.0200 35.0429
" />
<path d="M33.0200 35.0429
L32.9596 34.9219
" />
<path d="M32.9596 34.9219
L32.9596 34.8614
" />
<path d="M32.9596 34.8614
L33.0200 34.7405
" />
<path d="M33.0200 34.7405
L33.0805 34.6800
" />
<path d="M33.0805 34.6800
L33.2015 34.6195
" />
<path d="M33.2015 34.6195
L33.4434 34.6195
" />
<path d="M33.4434 34.6195
L33.5643 34.6800
" />
<path d="M33.5643 34.6800
L33.6248 34.7405
" />
<path d="M33.6248 34.7405
L33.6853 34.8614
" />
<path d="M33.6853 34.8614
L33.6853 34.9219
" />
<path d="M33.6853 34.9219
L33.6248 35.0429
" />
<path d="M33.6248 35.0429
L33.5643 35.1033
" />
<path d="M33.5643 35.1033
L33.4434 35.1638
" />
<path d="M33.4434 35.1638
L33.2015 35.1638
" />
<path d="M33.2015 35.1638
L33.0805 35.2243
" />
<path d="M33.0805 35.2243
L33.0200 35.2848
" />
<path d="M33.0200 35.2848
L32.9596 35.4057
" />
<path d="M32.9596 35.4057
L32.9596 35.6476
" />
<path d="M32.9596 35.6476
L33.0200 35.7686
" />
<path d="M33.0200 35.7686
L33.0805 35.8291
" />
<path d="M33.0805 35.8291
L33.2015 35.8895
" />
<path d="M33.2015 35.8895
L33.4434 35.8895
" />
<path d="M33.4434 35.8895
L33.5643 35.8291
" />
<path d="M33.5643 35.8291
L33.6248 35.7686
" />
<path d="M33.6248 35.7686
L33.6853 35.6476
" />
<path d="M33.6853 35.6476
L33.6853 35.4057
" />
<path d="M33.6853 35.4057
L33.6248 35.2848
" />
<path d="M33.6248 35.2848
L33.5643 35.2243
" />
<path d="M33.5643 35.2243
L33.4434 35.1638
" />
<path d="M34.4110 35.1638
L34.2900 35.1033
" />
<path d="M34.2900 35.1033
L34.2295 35.0429
" />
<path d="M34.2295 35.0429
L34.1691 34.9219
" />
<path d="M34.1691 34.9219
L34.1691 34.8614
" />
<path d="M34.1691 34.8614
L34.2295 34.7405
" />
<path d="M34.2295 34.7405
L34.2900 34.6800
" />
<path d="M34.2900 34.6800
L34.4110 34.6195
" />
<path d="M34.4110 34.6195
L34.6529 34.6195
" />
<path d="M34.6529 34.6195
L34.7738 34.6800
" />
<path d="M34.7738 34.6800
L34.8343 34.7405
" />
<path d="M34.8343 34.7405
L34.8948 34.8614
" />
<path d="M34.8948 34.8614
L34.8948 34.9219
" />
<path d="M34.8948 34.9219
L34.8343 35.0429
" />
<path d="M34.8343 35.0429
L34.7738 35.1033
" />
<path d="M34.7738 35.1033
L34.6529 35.1638
" />
<path d="M34.6529 35.1638
L34.4110 35.1638
" />
<path d="M34.4110 35.1638
L34.2900 35.2243
" />
<path d="M34.2900 35.2243
L34.2295 35.2848
" />
<path d="M34.2295 35.2848
L34.1691 35.4057
" />
<path d="M34.1691 35.4057
L34.1691 35.6476
" />
<path d="M34.1691 35.6476
L34.2295 35.7686
" />
<path d="M34.2295 35.7686
L34.2900 35.8291
" />
<path d="M34.2900 35.8291
L34.4110 35.8895
" />
<path d="M34.4110 35.8895
L34.6529 35.8895
" />
<path d="M34.6529 35.8895
L34.7738 35.8291
" />
<path d="M34.7738 35.8291
L34.8343 35.7686
" />
<path d="M34.8343 35.7686
L34.8948 35.6476
" />
<path d="M34.8948 35.6476
L34.8948 35.4057
" />
<path d="M34.8948 35.4057
L34.8343 35.2848
" />
<path d="M34.8343 35.2848
L34.7738 35.2243
" />
<path d="M34.7738 35.2243
L34.6529 35.1638
" />
<path d="M35.4390 35.8895
L35.4390 34.6195
" />
<path d="M35.4390 34.6195
L35.9228 34.6195
" />
<path d="M35.9228 34.6195
L36.0438 34.6800
" />
<path d="M36.0438 34.6800
L36.1043 34.7405
" />
<path d="M36.1043 34.7405
L36.1647 34.8614
" />
<path d="M36.1647 34.8614
L36.1647 35.0429
" />
<path d="M36.1647 35.0429
L36.1043 35.1638
" />
<path d="M36.1043 35.1638
L36.0438 35.2243
" />
<path d="M36.0438 35.2243
L35.9228 35.2848
" />
<path d="M35.9228 35.2848
L35.4390 35.2848
" />
</g></g>
<g style="fill:none; 
stroke:#000000; stroke-width:0.1524; stroke-opacity:1; 
stroke-linecap:round; stroke-linejoin:round;">
<text x="57.1500" y="39.7550"
textLength="1.6546" font-size="1.6933" lengthAdjust="spacingAndGlyphs"
text-anchor="start" opacity="0" stroke-opacity="0">M</text>
<g class="stroked-text"><desc>M</desc>
<path d="M57.5525 39.6995
L57.5525 38.4295
" />
<path d="M57.5525 38.4295
L57.9759 39.3367
" />
<path d="M57.9759 39.3367
L58.3992 38.4295
" />
<path d="M58.3992 38.4295
L58.3992 39.6995
" />
</g><circle cx="68.5800" cy="40.6400" r="0.5080" /> 
<rect x="22.860000" y="27.940000" width="15.240000" height="15.240000" rx="0.000000" />
<circle cx="68.5800" cy="20.3200" r="0.5080" /> 
<circle cx="55.8800" cy="10.1600" r="0.5080" /> 
<circle cx="68.5800" cy="10.1600" r="0.5080" /> 
</g>
<g style="fill:none; 
stroke:#000000; stroke-width:0.1524; stroke-opacity:1; 
stroke-linecap:round; stroke-linejoin:round;stroke-dasharray:1.6764,0.6096;">
<rect x="68.580000" y="2.540000" width="30.480000" height="45.720000" rx="0.000000" />
</g>
<g style="fill:none; 
stroke:#000000; stroke-width:0.1524; stroke-opacity:1; 
stroke-linecap:round; stroke-linejoin:round;stroke-dasharray:1.6764,0.6096;">
<rect x="20.320000" y="2.540000" width="35.560000" height="45.720000" rx="0.000000" />
</g>
<g style="fill:none; 
stroke:#000000; stroke-width:0.1524; stroke-opacity:1; 
stroke-linecap:round; stroke-linejoin:round;">
<circle cx="55.8800" cy="40.6400" r="0.5080" /> 
<circle cx="55.8800" cy="20.3200" r="0.5080" /> 
<rect x="91.440000" y="7.620000" width="5.080000" height="35.560000" rx="0.000000" />
</g>
<g style="fill:#000000; fill-opacity:1.0000; 
stroke:#000000; stroke-width:0.1524; stroke-opacity:1; 
stroke-linecap:round; stroke-linejoin:round;">
<circle cx="76.2000" cy="10.1600" r="0.4572" /> 
<circle cx="45.7200" cy="30.4800" r="0.4572" /> 
<circle cx="50.8000" cy="40.6400" r="0.4572" /> 
<circle cx="45.7200" cy="40.6400" r="0.4572" /> 
</g> 
</svg>
