%TF.GenerationSoftware,KiCad,Pcbnew,9.0.2*%
%TF.CreationDate,2025-06-28T19:08:47+03:00*%
%TF.ProjectId,PMCNV-DI16sink,504d434e-562d-4444-9931-3673696e6b2e,rev?*%
%TF.SameCoordinates,Original*%
%TF.FileFunction,Soldermask,Bot*%
%TF.FilePolarity,Negative*%
%FSLAX46Y46*%
G04 Gerber Fmt 4.6, Leading zero omitted, Abs format (unit mm)*
G04 Created by KiCad (PCBNEW 9.0.2) date 2025-06-28 19:08:47*
%MOMM*%
%LPD*%
G01*
G04 APERTURE LIST*
G04 Aperture macros list*
%AMFreePoly0*
4,1,23,0.550000,-0.750000,0.000000,-0.750000,0.000000,-0.745722,-0.065263,-0.745722,-0.191342,-0.711940,-0.304381,-0.646677,-0.396677,-0.554381,-0.461940,-0.441342,-0.495722,-0.315263,-0.495722,-0.250000,-0.500000,-0.250000,-0.500000,0.250000,-0.495722,0.250000,-0.495722,0.315263,-0.461940,0.441342,-0.396677,0.554381,-0.304381,0.646677,-0.191342,0.711940,-0.065263,0.745722,0.000000,0.745722,
0.000000,0.750000,0.550000,0.750000,0.550000,-0.750000,0.550000,-0.750000,$1*%
%AMFreePoly1*
4,1,23,0.000000,0.745722,0.065263,0.745722,0.191342,0.711940,0.304381,0.646677,0.396677,0.554381,0.461940,0.441342,0.495722,0.315263,0.495722,0.250000,0.500000,0.250000,0.500000,-0.250000,0.495722,-0.250000,0.495722,-0.315263,0.461940,-0.441342,0.396677,-0.554381,0.304381,-0.646677,0.191342,-0.711940,0.065263,-0.745722,0.000000,-0.745722,0.000000,-0.750000,-0.550000,-0.750000,
-0.550000,0.750000,0.000000,0.750000,0.000000,0.745722,0.000000,0.745722,$1*%
%AMFreePoly2*
4,1,23,0.500000,-0.750000,0.000000,-0.750000,0.000000,-0.745722,-0.065263,-0.745722,-0.191342,-0.711940,-0.304381,-0.646677,-0.396677,-0.554381,-0.461940,-0.441342,-0.495722,-0.315263,-0.495722,-0.250000,-0.500000,-0.250000,-0.500000,0.250000,-0.495722,0.250000,-0.495722,0.315263,-0.461940,0.441342,-0.396677,0.554381,-0.304381,0.646677,-0.191342,0.711940,-0.065263,0.745722,0.000000,0.745722,
0.000000,0.750000,0.500000,0.750000,0.500000,-0.750000,0.500000,-0.750000,$1*%
%AMFreePoly3*
4,1,23,0.000000,0.745722,0.065263,0.745722,0.191342,0.711940,0.304381,0.646677,0.396677,0.554381,0.461940,0.441342,0.495722,0.315263,0.495722,0.250000,0.500000,0.250000,0.500000,-0.250000,0.495722,-0.250000,0.495722,-0.315263,0.461940,-0.441342,0.396677,-0.554381,0.304381,-0.646677,0.191342,-0.711940,0.065263,-0.745722,0.000000,-0.745722,0.000000,-0.750000,-0.500000,-0.750000,
-0.500000,0.750000,0.000000,0.750000,0.000000,0.745722,0.000000,0.745722,$1*%
G04 Aperture macros list end*
%ADD10FreePoly0,90.000000*%
%ADD11R,1.500000X1.000000*%
%ADD12FreePoly1,90.000000*%
%ADD13C,2.200000*%
%ADD14O,6.350000X6.350000*%
%ADD15FreePoly2,0.000000*%
%ADD16FreePoly3,0.000000*%
%ADD17FreePoly0,180.000000*%
%ADD18R,1.000000X1.500000*%
%ADD19FreePoly1,180.000000*%
%ADD20R,3.000000X2.600000*%
%ADD21R,1.800000X0.600000*%
G04 APERTURE END LIST*
%TO.C,JP9*%
G36*
X-25750000Y6750000D02*
G01*
X-27250000Y6750000D01*
X-27250000Y8250000D01*
X-25750000Y8250000D01*
X-25750000Y6750000D01*
G37*
%TO.C,JP2*%
G36*
X-26650000Y20750000D02*
G01*
X-26350000Y20750000D01*
X-26350000Y22250000D01*
X-26650000Y22250000D01*
X-26650000Y20750000D01*
G37*
%TO.C,JP4*%
G36*
X-26650000Y15750000D02*
G01*
X-26350000Y15750000D01*
X-26350000Y17250000D01*
X-26650000Y17250000D01*
X-26650000Y15750000D01*
G37*
%TO.C,JP3*%
G36*
X-26650000Y18250000D02*
G01*
X-26350000Y18250000D01*
X-26350000Y19750000D01*
X-26650000Y19750000D01*
X-26650000Y18250000D01*
G37*
%TO.C,JP1*%
G36*
X-26650000Y23250000D02*
G01*
X-26350000Y23250000D01*
X-26350000Y24750000D01*
X-26650000Y24750000D01*
X-26650000Y23250000D01*
G37*
%TO.C,JP6*%
G36*
X-31250000Y-3250000D02*
G01*
X-32750000Y-3250000D01*
X-32750000Y-4750000D01*
X-31250000Y-4750000D01*
X-31250000Y-3250000D01*
G37*
%TO.C,JP5*%
G36*
X-31250000Y-750000D02*
G01*
X-32750000Y-750000D01*
X-32750000Y-2250000D01*
X-31250000Y-2250000D01*
X-31250000Y-750000D01*
G37*
%TO.C,JP7*%
G36*
X-31250000Y-5750000D02*
G01*
X-32750000Y-5750000D01*
X-32750000Y-7250000D01*
X-31250000Y-7250000D01*
X-31250000Y-5750000D01*
G37*
%TO.C,JP8*%
G36*
X-25750000Y11750000D02*
G01*
X-27250000Y11750000D01*
X-27250000Y13250000D01*
X-25750000Y13250000D01*
X-25750000Y11750000D01*
G37*
%TD*%
D10*
%TO.C,JP9*%
X-26500000Y6200000D03*
D11*
X-26500000Y7500000D03*
D12*
X-26500000Y8800000D03*
%TD*%
D13*
%TO.C,J6*%
X35000000Y-43000000D03*
X35000000Y-39500000D03*
X35000000Y-36000000D03*
X35000000Y-32500000D03*
X35000000Y-29000000D03*
%TD*%
%TO.C,J4*%
X35000000Y-24500000D03*
X35000000Y-21000000D03*
X35000000Y-17500000D03*
X35000000Y-14000000D03*
X35000000Y-10500000D03*
X35000000Y-7000000D03*
X35000000Y-3500000D03*
X35000000Y0D03*
X35000000Y3500000D03*
X35000000Y7000000D03*
%TD*%
D14*
%TO.C,PE1*%
X22000000Y-46000000D03*
%TD*%
D13*
%TO.C,J3*%
X35000000Y11500000D03*
X35000000Y15000000D03*
X35000000Y18500000D03*
X35000000Y22000000D03*
X35000000Y25500000D03*
X35000000Y29000000D03*
X35000000Y32500000D03*
X35000000Y36000000D03*
X35000000Y39500000D03*
X35000000Y43000000D03*
%TD*%
D15*
%TO.C,JP2*%
X-27150000Y21500000D03*
D16*
X-25850000Y21500000D03*
%TD*%
D15*
%TO.C,JP4*%
X-27150000Y16500000D03*
D16*
X-25850000Y16500000D03*
%TD*%
D15*
%TO.C,JP3*%
X-27150000Y19000000D03*
D16*
X-25850000Y19000000D03*
%TD*%
D15*
%TO.C,JP1*%
X-27150000Y24000000D03*
D16*
X-25850000Y24000000D03*
%TD*%
D17*
%TO.C,JP6*%
X-30700000Y-4000000D03*
D18*
X-32000000Y-4000000D03*
D19*
X-33300000Y-4000000D03*
%TD*%
D17*
%TO.C,JP5*%
X-30700000Y-1500000D03*
D18*
X-32000000Y-1500000D03*
D19*
X-33300000Y-1500000D03*
%TD*%
D17*
%TO.C,JP7*%
X-30700000Y-6500000D03*
D18*
X-32000000Y-6500000D03*
D19*
X-33300000Y-6500000D03*
%TD*%
D20*
%TO.C,JM2*%
X-34375000Y8150000D03*
X-34375000Y31850000D03*
D21*
X-36546000Y10500000D03*
X-36546000Y11500000D03*
X-36546000Y12500000D03*
X-36546000Y13500000D03*
X-36546000Y14500000D03*
X-36546000Y15500000D03*
X-36546000Y16500000D03*
X-36546000Y17500000D03*
X-36546000Y18500000D03*
X-36546000Y19500000D03*
X-36546000Y20500000D03*
X-36546000Y21500000D03*
X-36546000Y22500000D03*
X-36546000Y23500000D03*
X-36546000Y24500000D03*
X-36546000Y25500000D03*
X-36546000Y26500000D03*
X-36546000Y27500000D03*
X-36546000Y28500000D03*
X-36546000Y29500000D03*
%TD*%
D10*
%TO.C,JP8*%
X-26500000Y11200000D03*
D11*
X-26500000Y12500000D03*
D12*
X-26500000Y13800000D03*
%TD*%
M02*
