M48
; DRILL file {KiCad 8.0.4-8.0.4-0~ubuntu22.04.1} date 2024-08-07T21:55:50+0300
; FORMAT={-:-/ absolute / inch / decimal}
; #@! TF.CreationDate,2024-08-07T21:55:50+03:00
; #@! TF.GenerationSoftware,Kicad,Pcbnew,8.0.4-8.0.4-0~ubuntu22.04.1
; #@! TF.FileFunction,Plated,1,2,PTH
FMAT,2
INCH
; #@! TA.AperFunction,Plated,PTH,ViaDrill
T1C0.0118
; #@! TA.AperFunction,Plated,PTH,ViaDrill
T2C0.0236
; #@! TA.AperFunction,Plated,PTH,ComponentDrill
T3C0.0394
; #@! TA.AperFunction,Plated,PTH,ComponentDrill
T4C0.0433
; #@! TA.AperFunction,Plated,PTH,ComponentDrill
T5C0.0669
; #@! TA.AperFunction,Plated,PTH,ComponentDrill
T6C0.1260
%
G90
G05
T1
X0.7772Y-1.7604
X0.7837Y-1.8111
X1.8Y-2.1
X1.8Y-2.2
X1.9751Y-1.86
X2.1216Y-1.8906
X2.1524Y-1.9721
X2.1632Y-2.1257
X2.1683Y-2.2373
X2.2063Y-1.7032
X2.2526Y-1.5476
X2.7Y-1.1
X2.7Y-1.2
X2.7Y-2.4
X2.7Y-2.5
X2.8Y-1.1
X2.8Y-1.2
X2.8Y-1.7
X2.8Y-2.4
X2.8Y-2.5
X3.1Y-2.0
X3.1424Y-1.7832
X3.197Y-1.769
X3.2Y-2.0
T2
X2.1149Y-2.0035
X2.2555Y-2.1946
T3
X0.6Y-1.8
X0.6Y-1.9
X0.6Y-2.0
X0.6Y-2.1
X0.7Y-1.8
X0.7Y-1.9
X0.7Y-2.0
X0.7Y-2.1
X2.7Y-0.1
X3.75Y-0.4
X3.75Y-0.5
X3.75Y-0.6
X3.75Y-0.7
X3.75Y-0.8
X3.75Y-0.9
X3.75Y-1.0
X3.75Y-1.1
X3.75Y-1.2
X3.75Y-1.3
X3.75Y-1.4
X3.75Y-1.5
X3.75Y-1.6
X3.75Y-1.75
X3.75Y-1.85
X3.75Y-1.95
X3.75Y-2.05
X3.75Y-2.15
T4
X0.9717Y-0.315
X0.9717Y-0.615
X0.9717Y-0.915
X0.9717Y-1.215
X0.9717Y-2.5
X0.9717Y-2.8
X0.9717Y-3.1
X0.9717Y-3.4
X1.2472Y-0.315
X1.2472Y-0.615
X1.2472Y-0.915
X1.2472Y-1.215
X1.2472Y-2.5
X1.2472Y-2.8
X1.2472Y-3.1
X1.2472Y-3.4
X1.7Y-0.315
X1.7Y-0.5
X1.7Y-0.615
X1.7Y-0.8
X1.7Y-0.915
X1.7Y-1.1
X1.7Y-1.215
X1.7Y-1.4
X1.7Y-2.5
X1.7Y-2.685
X1.7Y-2.8
X1.7Y-2.985
X1.7Y-3.1
X1.7Y-3.285
X1.7Y-3.4
X1.7Y-3.585
T5
X0.2Y-0.25
X0.2Y-0.45
X0.2Y-0.65
X0.2Y-0.85
X0.2Y-1.05
X0.2Y-1.25
X0.2Y-1.45
X0.2Y-1.65
X0.2Y-1.85
X0.2Y-2.05
X0.2Y-2.25
X0.2Y-2.45
X0.2Y-2.65
X0.2Y-2.85
X0.2Y-3.05
X0.2Y-3.25
X0.2Y-3.45
X0.2Y-3.65
T6
X0.75Y-3.75
M30
