%TF.GenerationSoftware,KiCad,Pcbnew,8.0.4-8.0.4-0~ubuntu22.04.1*%
%TF.CreationDate,2024-08-10T20:30:17+03:00*%
%TF.ProjectId,PM-CPU-RP-front,504d2d43-5055-42d5-9250-2d66726f6e74,rev?*%
%TF.SameCoordinates,Original*%
%TF.FileFunction,Legend,Top*%
%TF.FilePolarity,Positive*%
%FSLAX46Y46*%
G04 Gerber Fmt 4.6, Leading zero omitted, Abs format (unit mm)*
G04 Created by KiCad (PCBNEW 8.0.4-8.0.4-0~ubuntu22.04.1) date 2024-08-10 20:30:17*
%MOMM*%
%LPD*%
G01*
G04 APERTURE LIST*
%ADD10C,0.200000*%
%ADD11C,0.100000*%
%ADD12R,1.700000X1.700000*%
%ADD13O,1.700000X1.700000*%
G04 APERTURE END LIST*
D10*
X69334286Y-103482100D02*
X69548572Y-103553528D01*
X69548572Y-103553528D02*
X69905714Y-103553528D01*
X69905714Y-103553528D02*
X70048572Y-103482100D01*
X70048572Y-103482100D02*
X70120000Y-103410671D01*
X70120000Y-103410671D02*
X70191429Y-103267814D01*
X70191429Y-103267814D02*
X70191429Y-103124957D01*
X70191429Y-103124957D02*
X70120000Y-102982100D01*
X70120000Y-102982100D02*
X70048572Y-102910671D01*
X70048572Y-102910671D02*
X69905714Y-102839242D01*
X69905714Y-102839242D02*
X69620000Y-102767814D01*
X69620000Y-102767814D02*
X69477143Y-102696385D01*
X69477143Y-102696385D02*
X69405714Y-102624957D01*
X69405714Y-102624957D02*
X69334286Y-102482100D01*
X69334286Y-102482100D02*
X69334286Y-102339242D01*
X69334286Y-102339242D02*
X69405714Y-102196385D01*
X69405714Y-102196385D02*
X69477143Y-102124957D01*
X69477143Y-102124957D02*
X69620000Y-102053528D01*
X69620000Y-102053528D02*
X69977143Y-102053528D01*
X69977143Y-102053528D02*
X70191429Y-102124957D01*
X71691428Y-103410671D02*
X71620000Y-103482100D01*
X71620000Y-103482100D02*
X71405714Y-103553528D01*
X71405714Y-103553528D02*
X71262857Y-103553528D01*
X71262857Y-103553528D02*
X71048571Y-103482100D01*
X71048571Y-103482100D02*
X70905714Y-103339242D01*
X70905714Y-103339242D02*
X70834285Y-103196385D01*
X70834285Y-103196385D02*
X70762857Y-102910671D01*
X70762857Y-102910671D02*
X70762857Y-102696385D01*
X70762857Y-102696385D02*
X70834285Y-102410671D01*
X70834285Y-102410671D02*
X70905714Y-102267814D01*
X70905714Y-102267814D02*
X71048571Y-102124957D01*
X71048571Y-102124957D02*
X71262857Y-102053528D01*
X71262857Y-102053528D02*
X71405714Y-102053528D01*
X71405714Y-102053528D02*
X71620000Y-102124957D01*
X71620000Y-102124957D02*
X71691428Y-102196385D01*
X73048571Y-103553528D02*
X72334285Y-103553528D01*
X72334285Y-103553528D02*
X72334285Y-102053528D01*
D11*
X68580000Y-100330000D02*
X73660000Y-100330000D01*
X73660000Y-105410000D01*
X68580000Y-105410000D01*
X68580000Y-100330000D01*
X68580000Y-95250000D02*
X73660000Y-95250000D01*
X73660000Y-100330000D01*
X68580000Y-100330000D01*
X68580000Y-95250000D01*
X60960000Y-54610000D02*
X66040000Y-54610000D01*
X66040000Y-64770000D01*
X60960000Y-64770000D01*
X60960000Y-54610000D01*
G36*
X60960000Y-54610000D02*
G01*
X66040000Y-54610000D01*
X66040000Y-64770000D01*
X60960000Y-64770000D01*
X60960000Y-54610000D01*
G37*
D10*
X67619999Y-53245671D02*
X67548571Y-53317100D01*
X67548571Y-53317100D02*
X67334285Y-53388528D01*
X67334285Y-53388528D02*
X67191428Y-53388528D01*
X67191428Y-53388528D02*
X66977142Y-53317100D01*
X66977142Y-53317100D02*
X66834285Y-53174242D01*
X66834285Y-53174242D02*
X66762856Y-53031385D01*
X66762856Y-53031385D02*
X66691428Y-52745671D01*
X66691428Y-52745671D02*
X66691428Y-52531385D01*
X66691428Y-52531385D02*
X66762856Y-52245671D01*
X66762856Y-52245671D02*
X66834285Y-52102814D01*
X66834285Y-52102814D02*
X66977142Y-51959957D01*
X66977142Y-51959957D02*
X67191428Y-51888528D01*
X67191428Y-51888528D02*
X67334285Y-51888528D01*
X67334285Y-51888528D02*
X67548571Y-51959957D01*
X67548571Y-51959957D02*
X67619999Y-52031385D01*
X68262856Y-53388528D02*
X68262856Y-51888528D01*
X68262856Y-51888528D02*
X68834285Y-51888528D01*
X68834285Y-51888528D02*
X68977142Y-51959957D01*
X68977142Y-51959957D02*
X69048571Y-52031385D01*
X69048571Y-52031385D02*
X69119999Y-52174242D01*
X69119999Y-52174242D02*
X69119999Y-52388528D01*
X69119999Y-52388528D02*
X69048571Y-52531385D01*
X69048571Y-52531385D02*
X68977142Y-52602814D01*
X68977142Y-52602814D02*
X68834285Y-52674242D01*
X68834285Y-52674242D02*
X68262856Y-52674242D01*
X69762856Y-51888528D02*
X69762856Y-53102814D01*
X69762856Y-53102814D02*
X69834285Y-53245671D01*
X69834285Y-53245671D02*
X69905714Y-53317100D01*
X69905714Y-53317100D02*
X70048571Y-53388528D01*
X70048571Y-53388528D02*
X70334285Y-53388528D01*
X70334285Y-53388528D02*
X70477142Y-53317100D01*
X70477142Y-53317100D02*
X70548571Y-53245671D01*
X70548571Y-53245671D02*
X70619999Y-53102814D01*
X70619999Y-53102814D02*
X70619999Y-51888528D01*
X71334285Y-52817100D02*
X72477143Y-52817100D01*
X74048571Y-53388528D02*
X73548571Y-52674242D01*
X73191428Y-53388528D02*
X73191428Y-51888528D01*
X73191428Y-51888528D02*
X73762857Y-51888528D01*
X73762857Y-51888528D02*
X73905714Y-51959957D01*
X73905714Y-51959957D02*
X73977143Y-52031385D01*
X73977143Y-52031385D02*
X74048571Y-52174242D01*
X74048571Y-52174242D02*
X74048571Y-52388528D01*
X74048571Y-52388528D02*
X73977143Y-52531385D01*
X73977143Y-52531385D02*
X73905714Y-52602814D01*
X73905714Y-52602814D02*
X73762857Y-52674242D01*
X73762857Y-52674242D02*
X73191428Y-52674242D01*
X74691428Y-53388528D02*
X74691428Y-51888528D01*
X74691428Y-51888528D02*
X75262857Y-51888528D01*
X75262857Y-51888528D02*
X75405714Y-51959957D01*
X75405714Y-51959957D02*
X75477143Y-52031385D01*
X75477143Y-52031385D02*
X75548571Y-52174242D01*
X75548571Y-52174242D02*
X75548571Y-52388528D01*
X75548571Y-52388528D02*
X75477143Y-52531385D01*
X75477143Y-52531385D02*
X75405714Y-52602814D01*
X75405714Y-52602814D02*
X75262857Y-52674242D01*
X75262857Y-52674242D02*
X74691428Y-52674242D01*
X69298572Y-98402100D02*
X69512858Y-98473528D01*
X69512858Y-98473528D02*
X69870000Y-98473528D01*
X69870000Y-98473528D02*
X70012858Y-98402100D01*
X70012858Y-98402100D02*
X70084286Y-98330671D01*
X70084286Y-98330671D02*
X70155715Y-98187814D01*
X70155715Y-98187814D02*
X70155715Y-98044957D01*
X70155715Y-98044957D02*
X70084286Y-97902100D01*
X70084286Y-97902100D02*
X70012858Y-97830671D01*
X70012858Y-97830671D02*
X69870000Y-97759242D01*
X69870000Y-97759242D02*
X69584286Y-97687814D01*
X69584286Y-97687814D02*
X69441429Y-97616385D01*
X69441429Y-97616385D02*
X69370000Y-97544957D01*
X69370000Y-97544957D02*
X69298572Y-97402100D01*
X69298572Y-97402100D02*
X69298572Y-97259242D01*
X69298572Y-97259242D02*
X69370000Y-97116385D01*
X69370000Y-97116385D02*
X69441429Y-97044957D01*
X69441429Y-97044957D02*
X69584286Y-96973528D01*
X69584286Y-96973528D02*
X69941429Y-96973528D01*
X69941429Y-96973528D02*
X70155715Y-97044957D01*
X70798571Y-98473528D02*
X70798571Y-96973528D01*
X70798571Y-96973528D02*
X71155714Y-96973528D01*
X71155714Y-96973528D02*
X71370000Y-97044957D01*
X71370000Y-97044957D02*
X71512857Y-97187814D01*
X71512857Y-97187814D02*
X71584286Y-97330671D01*
X71584286Y-97330671D02*
X71655714Y-97616385D01*
X71655714Y-97616385D02*
X71655714Y-97830671D01*
X71655714Y-97830671D02*
X71584286Y-98116385D01*
X71584286Y-98116385D02*
X71512857Y-98259242D01*
X71512857Y-98259242D02*
X71370000Y-98402100D01*
X71370000Y-98402100D02*
X71155714Y-98473528D01*
X71155714Y-98473528D02*
X70798571Y-98473528D01*
X72227143Y-98044957D02*
X72941429Y-98044957D01*
X72084286Y-98473528D02*
X72584286Y-96973528D01*
X72584286Y-96973528D02*
X73084286Y-98473528D01*
%LPC*%
D12*
%TO.C,J1*%
X66040000Y-96520000D03*
D13*
X63500000Y-96520000D03*
X66040000Y-99060000D03*
X63500000Y-99060000D03*
X66040000Y-101600000D03*
X63500000Y-101600000D03*
X66040000Y-104140000D03*
X63500000Y-104140000D03*
%TD*%
%LPD*%
M02*
