%TF.GenerationSoftware,KiCad,Pcbnew,9.0.6*%
%TF.CreationDate,2025-12-05T19:39:21+03:00*%
%TF.ProjectId,PM_LED-18,504d5f4c-4544-42d3-9138-2e6b69636164,rev?*%
%TF.SameCoordinates,Original*%
%TF.FileFunction,Copper,L1,Top*%
%TF.FilePolarity,Positive*%
%FSLAX46Y46*%
G04 Gerber Fmt 4.6, Leading zero omitted, Abs format (unit mm)*
G04 Created by KiCad (PCBNEW 9.0.6) date 2025-12-05 19:39:21*
%MOMM*%
%LPD*%
G01*
G04 APERTURE LIST*
G04 Aperture macros list*
%AMRoundRect*
0 Rectangle with rounded corners*
0 $1 Rounding radius*
0 $2 $3 $4 $5 $6 $7 $8 $9 X,Y pos of 4 corners*
0 Add a 4 corners polygon primitive as box body*
4,1,4,$2,$3,$4,$5,$6,$7,$8,$9,$2,$3,0*
0 Add four circle primitives for the rounded corners*
1,1,$1+$1,$2,$3*
1,1,$1+$1,$4,$5*
1,1,$1+$1,$6,$7*
1,1,$1+$1,$8,$9*
0 Add four rect primitives between the rounded corners*
20,1,$1+$1,$2,$3,$4,$5,0*
20,1,$1+$1,$4,$5,$6,$7,0*
20,1,$1+$1,$6,$7,$8,$9,0*
20,1,$1+$1,$8,$9,$2,$3,0*%
G04 Aperture macros list end*
%TA.AperFunction,SMDPad,CuDef*%
%ADD10RoundRect,0.200000X-0.200000X-0.275000X0.200000X-0.275000X0.200000X0.275000X-0.200000X0.275000X0*%
%TD*%
%TA.AperFunction,SMDPad,CuDef*%
%ADD11R,0.480000X0.770000*%
%TD*%
%TA.AperFunction,SMDPad,CuDef*%
%ADD12R,1.803400X0.635000*%
%TD*%
%TA.AperFunction,SMDPad,CuDef*%
%ADD13R,2.997200X2.590800*%
%TD*%
%TA.AperFunction,ComponentPad*%
%ADD14C,0.700000*%
%TD*%
%TA.AperFunction,ComponentPad*%
%ADD15C,4.400000*%
%TD*%
%TA.AperFunction,ViaPad*%
%ADD16C,0.800000*%
%TD*%
%TA.AperFunction,Conductor*%
%ADD17C,0.300000*%
%TD*%
G04 APERTURE END LIST*
D10*
%TO.P,R5,1*%
%TO.N,/LEDa.4*%
X8175000Y22750000D03*
%TO.P,R5,2*%
%TO.N,Net-(D5-A)*%
X9825000Y22750000D03*
%TD*%
D11*
%TO.P,D12,1,K*%
%TO.N,GND*%
X14000000Y-11315000D03*
%TO.P,D12,2,A*%
%TO.N,Net-(D12-A)*%
X14000000Y-9685000D03*
%TD*%
D10*
%TO.P,R10,1*%
%TO.N,/LEDb.1*%
X8175000Y-2750000D03*
%TO.P,R10,2*%
%TO.N,Net-(D10-A)*%
X9825000Y-2750000D03*
%TD*%
D11*
%TO.P,D2,1,K*%
%TO.N,GND*%
X14000000Y31685000D03*
%TO.P,D2,2,A*%
%TO.N,Net-(D2-A)*%
X14000000Y33315000D03*
%TD*%
%TO.P,D3,1,K*%
%TO.N,GND*%
X14000000Y28185000D03*
%TO.P,D3,2,A*%
%TO.N,Net-(D3-A)*%
X14000000Y29815000D03*
%TD*%
D10*
%TO.P,R9,1*%
%TO.N,/LEDb.0*%
X8175000Y750000D03*
%TO.P,R9,2*%
%TO.N,Net-(D9-A)*%
X9825000Y750000D03*
%TD*%
%TO.P,R3,1*%
%TO.N,/LEDa.2*%
X8175000Y29750000D03*
%TO.P,R3,2*%
%TO.N,Net-(D3-A)*%
X9825000Y29750000D03*
%TD*%
%TO.P,R4,1*%
%TO.N,/LEDa.3*%
X8175000Y26250000D03*
%TO.P,R4,2*%
%TO.N,Net-(D4-A)*%
X9825000Y26250000D03*
%TD*%
D12*
%TO.P,J1,1,Pin_1*%
%TO.N,GND*%
X-8444000Y35499992D03*
%TO.P,J1,2,Pin_2*%
%TO.N,/LEDa.0*%
X-8444000Y34499994D03*
%TO.P,J1,3,Pin_3*%
%TO.N,/LEDa.1*%
X-8444000Y33499996D03*
%TO.P,J1,4,Pin_4*%
%TO.N,/LEDa.2*%
X-8444000Y32499998D03*
%TO.P,J1,5,Pin_5*%
%TO.N,/LEDa.3*%
X-8444000Y31500000D03*
%TO.P,J1,6,Pin_6*%
%TO.N,/LEDa.4*%
X-8444000Y30500000D03*
%TO.P,J1,7,Pin_7*%
%TO.N,/LEDa.5*%
X-8444000Y29500000D03*
%TO.P,J1,8,Pin_8*%
%TO.N,/LEDa.6*%
X-8444000Y28500000D03*
%TO.P,J1,9,Pin_9*%
%TO.N,/LEDa.7*%
X-8444000Y27500002D03*
%TO.P,J1,10,Pin_10*%
%TO.N,unconnected-(J1-Pin_10-Pad10)*%
X-8444000Y26500004D03*
%TO.P,J1,11,Pin_11*%
%TO.N,unconnected-(J1-Pin_11-Pad11)*%
X-8444000Y25500006D03*
%TO.P,J1,12,Pin_11*%
%TO.N,GND*%
X-8444000Y24500008D03*
D13*
%TO.P,J1,13,Pin_11*%
X-10614001Y37850003D03*
X-10614001Y22149997D03*
%TD*%
D10*
%TO.P,R12,1*%
%TO.N,/LEDb.3*%
X8175000Y-9750000D03*
%TO.P,R12,2*%
%TO.N,Net-(D12-A)*%
X9825000Y-9750000D03*
%TD*%
D11*
%TO.P,D10,1,K*%
%TO.N,GND*%
X14000000Y-4315000D03*
%TO.P,D10,2,A*%
%TO.N,Net-(D10-A)*%
X14000000Y-2685000D03*
%TD*%
D10*
%TO.P,R14,1*%
%TO.N,/LEDb.5*%
X8175000Y-16750000D03*
%TO.P,R14,2*%
%TO.N,Net-(D14-A)*%
X9825000Y-16750000D03*
%TD*%
D11*
%TO.P,D8,1,K*%
%TO.N,GND*%
X14000000Y10685000D03*
%TO.P,D8,2,A*%
%TO.N,Net-(D8-A)*%
X14000000Y12315000D03*
%TD*%
%TO.P,D17,1,K*%
%TO.N,GND*%
X14000000Y-34815000D03*
%TO.P,D17,2,A*%
%TO.N,Net-(D17-A)*%
X14000000Y-33185000D03*
%TD*%
D10*
%TO.P,R17,1*%
%TO.N,/LEDc.0*%
X8175000Y-33250000D03*
%TO.P,R17,2*%
%TO.N,Net-(D17-A)*%
X9825000Y-33250000D03*
%TD*%
D11*
%TO.P,D9,1,K*%
%TO.N,GND*%
X14000000Y-815000D03*
%TO.P,D9,2,A*%
%TO.N,Net-(D9-A)*%
X14000000Y815000D03*
%TD*%
D14*
%TO.P,H5,1,1*%
%TO.N,PE*%
X-13650000Y-45000000D03*
X-13166726Y-43833274D03*
X-13166726Y-46166726D03*
X-12000000Y-43350000D03*
D15*
X-12000000Y-45000000D03*
D14*
X-12000000Y-46650000D03*
X-10833274Y-43833274D03*
X-10833274Y-46166726D03*
X-10350000Y-45000000D03*
%TD*%
D10*
%TO.P,R7,1*%
%TO.N,/LEDa.6*%
X8175000Y15750000D03*
%TO.P,R7,2*%
%TO.N,Net-(D7-A)*%
X9825000Y15750000D03*
%TD*%
%TO.P,R18,1*%
%TO.N,/LEDc.1*%
X8175000Y-36750000D03*
%TO.P,R18,2*%
%TO.N,Net-(D18-A)*%
X9825000Y-36750000D03*
%TD*%
%TO.P,R15,1*%
%TO.N,/LEDb.6*%
X8175000Y-20250000D03*
%TO.P,R15,2*%
%TO.N,Net-(D15-A)*%
X9825000Y-20250000D03*
%TD*%
%TO.P,R16,1*%
%TO.N,/LEDb.7*%
X8175000Y-23750000D03*
%TO.P,R16,2*%
%TO.N,Net-(D16-A)*%
X9825000Y-23750000D03*
%TD*%
D11*
%TO.P,D11,1,K*%
%TO.N,GND*%
X14000000Y-7815000D03*
%TO.P,D11,2,A*%
%TO.N,Net-(D11-A)*%
X14000000Y-6185000D03*
%TD*%
%TO.P,D7,1,K*%
%TO.N,GND*%
X14000000Y14185000D03*
%TO.P,D7,2,A*%
%TO.N,Net-(D7-A)*%
X14000000Y15815000D03*
%TD*%
%TO.P,D1,1,K*%
%TO.N,GND*%
X14000000Y35185000D03*
%TO.P,D1,2,A*%
%TO.N,Net-(D1-A)*%
X14000000Y36815000D03*
%TD*%
%TO.P,D4,1,K*%
%TO.N,GND*%
X14000000Y24685000D03*
%TO.P,D4,2,A*%
%TO.N,Net-(D4-A)*%
X14000000Y26315000D03*
%TD*%
D10*
%TO.P,R8,1*%
%TO.N,/LEDa.7*%
X8175000Y12250000D03*
%TO.P,R8,2*%
%TO.N,Net-(D8-A)*%
X9825000Y12250000D03*
%TD*%
D11*
%TO.P,D16,1,K*%
%TO.N,GND*%
X14000000Y-25315000D03*
%TO.P,D16,2,A*%
%TO.N,Net-(D16-A)*%
X14000000Y-23685000D03*
%TD*%
D10*
%TO.P,R11,1*%
%TO.N,/LEDb.2*%
X8175000Y-6250000D03*
%TO.P,R11,2*%
%TO.N,Net-(D11-A)*%
X9825000Y-6250000D03*
%TD*%
D14*
%TO.P,H1,1,1*%
%TO.N,PE*%
X-13650000Y45000000D03*
X-13166726Y46166726D03*
X-13166726Y43833274D03*
X-12000000Y46650000D03*
D15*
X-12000000Y45000000D03*
D14*
X-12000000Y43350000D03*
X-10833274Y46166726D03*
X-10833274Y43833274D03*
X-10350000Y45000000D03*
%TD*%
D10*
%TO.P,R6,1*%
%TO.N,/LEDa.5*%
X8175000Y19250000D03*
%TO.P,R6,2*%
%TO.N,Net-(D6-A)*%
X9825000Y19250000D03*
%TD*%
%TO.P,R13,1*%
%TO.N,/LEDb.4*%
X8175000Y-13250000D03*
%TO.P,R13,2*%
%TO.N,Net-(D13-A)*%
X9825000Y-13250000D03*
%TD*%
D11*
%TO.P,D15,1,K*%
%TO.N,GND*%
X14000000Y-21815000D03*
%TO.P,D15,2,A*%
%TO.N,Net-(D15-A)*%
X14000000Y-20185000D03*
%TD*%
D12*
%TO.P,J3,1,Pin_1*%
%TO.N,GND*%
X-8444000Y-4500008D03*
%TO.P,J3,2,Pin_2*%
%TO.N,/LEDb.0*%
X-8444000Y-5500006D03*
%TO.P,J3,3,Pin_3*%
%TO.N,/LEDb.1*%
X-8444000Y-6500004D03*
%TO.P,J3,4,Pin_4*%
%TO.N,/LEDb.2*%
X-8444000Y-7500002D03*
%TO.P,J3,5,Pin_5*%
%TO.N,/LEDb.3*%
X-8444000Y-8500000D03*
%TO.P,J3,6,Pin_6*%
%TO.N,/LEDb.4*%
X-8444000Y-9500000D03*
%TO.P,J3,7,Pin_7*%
%TO.N,/LEDb.5*%
X-8444000Y-10500000D03*
%TO.P,J3,8,Pin_8*%
%TO.N,/LEDb.6*%
X-8444000Y-11500000D03*
%TO.P,J3,9,Pin_9*%
%TO.N,/LEDb.7*%
X-8444000Y-12499998D03*
%TO.P,J3,10,Pin_10*%
%TO.N,/LEDc.0*%
X-8444000Y-13499996D03*
%TO.P,J3,11,Pin_11*%
%TO.N,/LEDc.1*%
X-8444000Y-14499994D03*
%TO.P,J3,12,Pin_11*%
%TO.N,GND*%
X-8444000Y-15499992D03*
D13*
%TO.P,J3,13,Pin_11*%
X-10614001Y-2149997D03*
X-10614001Y-17850003D03*
%TD*%
D10*
%TO.P,R1,1*%
%TO.N,/LEDa.0*%
X8175000Y36750000D03*
%TO.P,R1,2*%
%TO.N,Net-(D1-A)*%
X9825000Y36750000D03*
%TD*%
D14*
%TO.P,H3,1,1*%
%TO.N,PE*%
X10350000Y-45000000D03*
X10833274Y-43833274D03*
X10833274Y-46166726D03*
X12000000Y-43350000D03*
D15*
X12000000Y-45000000D03*
D14*
X12000000Y-46650000D03*
X13166726Y-43833274D03*
X13166726Y-46166726D03*
X13650000Y-45000000D03*
%TD*%
D11*
%TO.P,D18,1,K*%
%TO.N,GND*%
X14000000Y-38315000D03*
%TO.P,D18,2,A*%
%TO.N,Net-(D18-A)*%
X14000000Y-36685000D03*
%TD*%
D10*
%TO.P,R2,1*%
%TO.N,/LEDa.1*%
X8175000Y33250000D03*
%TO.P,R2,2*%
%TO.N,Net-(D2-A)*%
X9825000Y33250000D03*
%TD*%
D14*
%TO.P,H2,1,1*%
%TO.N,PE*%
X10350000Y45000000D03*
X10833274Y46166726D03*
X10833274Y43833274D03*
X12000000Y46650000D03*
D15*
X12000000Y45000000D03*
D14*
X12000000Y43350000D03*
X13166726Y46166726D03*
X13166726Y43833274D03*
X13650000Y45000000D03*
%TD*%
D12*
%TO.P,J2,1,Pin_1*%
%TO.N,GND*%
X-8444000Y15499992D03*
%TO.P,J2,2,Pin_2*%
%TO.N,/LEDa.0*%
X-8444000Y14499994D03*
%TO.P,J2,3,Pin_3*%
%TO.N,/LEDa.1*%
X-8444000Y13499996D03*
%TO.P,J2,4,Pin_4*%
%TO.N,/LEDa.2*%
X-8444000Y12499998D03*
%TO.P,J2,5,Pin_5*%
%TO.N,/LEDa.3*%
X-8444000Y11500000D03*
%TO.P,J2,6,Pin_6*%
%TO.N,/LEDa.4*%
X-8444000Y10500000D03*
%TO.P,J2,7,Pin_7*%
%TO.N,/LEDa.5*%
X-8444000Y9500000D03*
%TO.P,J2,8,Pin_8*%
%TO.N,/LEDa.6*%
X-8444000Y8500000D03*
%TO.P,J2,9,Pin_9*%
%TO.N,/LEDa.7*%
X-8444000Y7500002D03*
%TO.P,J2,10,Pin_10*%
%TO.N,unconnected-(J2-Pin_10-Pad10)*%
X-8444000Y6500004D03*
%TO.P,J2,11,Pin_11*%
%TO.N,unconnected-(J2-Pin_11-Pad11)*%
X-8444000Y5500006D03*
%TO.P,J2,12,Pin_11*%
%TO.N,GND*%
X-8444000Y4500008D03*
D13*
%TO.P,J2,13,Pin_11*%
X-10614001Y17850003D03*
X-10614001Y2149997D03*
%TD*%
D11*
%TO.P,D14,1,K*%
%TO.N,GND*%
X14000000Y-18315000D03*
%TO.P,D14,2,A*%
%TO.N,Net-(D14-A)*%
X14000000Y-16685000D03*
%TD*%
%TO.P,D6,1,K*%
%TO.N,GND*%
X14000000Y17685000D03*
%TO.P,D6,2,A*%
%TO.N,Net-(D6-A)*%
X14000000Y19315000D03*
%TD*%
D12*
%TO.P,J4,1,Pin_1*%
%TO.N,GND*%
X-8444000Y-24500008D03*
%TO.P,J4,2,Pin_2*%
%TO.N,/LEDb.0*%
X-8444000Y-25500006D03*
%TO.P,J4,3,Pin_3*%
%TO.N,/LEDb.1*%
X-8444000Y-26500004D03*
%TO.P,J4,4,Pin_4*%
%TO.N,/LEDb.2*%
X-8444000Y-27500002D03*
%TO.P,J4,5,Pin_5*%
%TO.N,/LEDb.3*%
X-8444000Y-28500000D03*
%TO.P,J4,6,Pin_6*%
%TO.N,/LEDb.4*%
X-8444000Y-29500000D03*
%TO.P,J4,7,Pin_7*%
%TO.N,/LEDb.5*%
X-8444000Y-30500000D03*
%TO.P,J4,8,Pin_8*%
%TO.N,/LEDb.6*%
X-8444000Y-31500000D03*
%TO.P,J4,9,Pin_9*%
%TO.N,/LEDb.7*%
X-8444000Y-32499998D03*
%TO.P,J4,10,Pin_10*%
%TO.N,/LEDc.0*%
X-8444000Y-33499996D03*
%TO.P,J4,11,Pin_11*%
%TO.N,/LEDc.1*%
X-8444000Y-34499994D03*
%TO.P,J4,12,Pin_11*%
%TO.N,GND*%
X-8444000Y-35499992D03*
D13*
%TO.P,J4,13,Pin_11*%
X-10614001Y-22149997D03*
X-10614001Y-37850003D03*
%TD*%
D11*
%TO.P,D13,1,K*%
%TO.N,GND*%
X14000000Y-14815000D03*
%TO.P,D13,2,A*%
%TO.N,Net-(D13-A)*%
X14000000Y-13185000D03*
%TD*%
%TO.P,D5,1,K*%
%TO.N,GND*%
X14000000Y21185000D03*
%TO.P,D5,2,A*%
%TO.N,Net-(D5-A)*%
X14000000Y22815000D03*
%TD*%
D16*
%TO.N,GND*%
X-11000000Y-24500000D03*
X-11000000Y-4500000D03*
X-11000000Y15500000D03*
X-11000000Y-15500000D03*
X-11000000Y35500000D03*
X-11000000Y24500000D03*
X-11000000Y-35500000D03*
X-11000000Y4500000D03*
%TO.N,/LEDa.2*%
X-11000000Y32500000D03*
X-4000000Y32500000D03*
X-11000000Y12500000D03*
X-4000000Y12500000D03*
X6500000Y29750000D03*
%TO.N,/LEDa.3*%
X-11000000Y11500000D03*
X-11000000Y31500000D03*
X-3000000Y31500000D03*
X-3000000Y11500000D03*
X6500000Y26250000D03*
%TO.N,/LEDa.4*%
X-11000000Y30500000D03*
X6500000Y22750000D03*
X-11000000Y10500000D03*
X-2000000Y10500000D03*
X-2000000Y30500000D03*
%TO.N,/LEDa.7*%
X-11000000Y27500000D03*
X1000000Y7500000D03*
X1000000Y27500000D03*
X-11000000Y7500000D03*
X6500000Y12250000D03*
%TO.N,/LEDa.5*%
X-1000000Y29500000D03*
X-1000000Y9500000D03*
X-11000000Y9500000D03*
X-11000000Y29500000D03*
X6500000Y19250000D03*
%TO.N,/LEDa.0*%
X-6000000Y14500000D03*
X6500000Y36750000D03*
X-11000000Y14500000D03*
X-11000000Y34500000D03*
X-6000000Y34500000D03*
%TO.N,/LEDa.1*%
X6500000Y33250000D03*
X-5000000Y13500000D03*
X-11000000Y13500000D03*
X-5000000Y33500000D03*
X-11000000Y33500000D03*
%TO.N,/LEDa.6*%
X0Y28500000D03*
X-11000000Y8500000D03*
X-11000000Y28500000D03*
X0Y8500000D03*
X6500000Y15750000D03*
%TO.N,/LEDb.6*%
X0Y-31500000D03*
X0Y-11500000D03*
X-11000000Y-31500000D03*
X-11000000Y-11500000D03*
X6500000Y-20250000D03*
%TO.N,/LEDc.0*%
X2000000Y-33500000D03*
X2000000Y-13500000D03*
X-11000000Y-33500000D03*
X6500000Y-33250000D03*
X-11000000Y-13500000D03*
%TO.N,/LEDb.0*%
X-11000000Y-5500000D03*
X-6000000Y-5500000D03*
X-11000000Y-25500000D03*
X6500000Y750000D03*
X-6000000Y-25500000D03*
%TO.N,/LEDb.2*%
X-11000000Y-27500000D03*
X-4000000Y-7500000D03*
X-11000000Y-7500000D03*
X-4000000Y-27500000D03*
X6500000Y-6250000D03*
%TO.N,/LEDb.5*%
X-11000000Y-30500000D03*
X-1000000Y-10500000D03*
X-1000000Y-30500000D03*
X6500000Y-16750000D03*
X-11000000Y-10500000D03*
%TO.N,/LEDb.1*%
X-5000000Y-6500000D03*
X-11000000Y-6500000D03*
X-11000000Y-26500000D03*
X-5000000Y-26500000D03*
X6500000Y-2750000D03*
%TO.N,/LEDc.1*%
X-11000000Y-14500000D03*
X-11000000Y-34500000D03*
X3000000Y-34500000D03*
X3000000Y-14500000D03*
X6500000Y-36750000D03*
%TO.N,/LEDb.4*%
X-11000000Y-29500000D03*
X-2000000Y-9500000D03*
X-11000000Y-9500000D03*
X6500000Y-13250000D03*
X-2000000Y-29500000D03*
%TO.N,/LEDb.7*%
X1000000Y-32500000D03*
X6500000Y-23750000D03*
X-11000000Y-32500000D03*
X-11000000Y-12500000D03*
X1000000Y-12500000D03*
%TO.N,/LEDb.3*%
X-11000000Y-28500000D03*
X6500000Y-9750000D03*
X-11000000Y-8500000D03*
X-3000000Y-8500000D03*
X-3000000Y-28500000D03*
%TD*%
D17*
%TO.N,GND*%
X13935000Y35000000D02*
X14000000Y35065000D01*
%TO.N,Net-(D9-A)*%
X13935000Y750000D02*
X14000000Y815000D01*
X9825000Y750000D02*
X13935000Y750000D01*
%TO.N,Net-(D10-A)*%
X13935000Y-2750000D02*
X14000000Y-2685000D01*
X9825000Y-2750000D02*
X13935000Y-2750000D01*
%TO.N,Net-(D1-A)*%
X13935000Y36750000D02*
X14000000Y36815000D01*
X9825000Y36750000D02*
X13935000Y36750000D01*
%TO.N,Net-(D2-A)*%
X13935000Y33250000D02*
X14000000Y33315000D01*
X9825000Y33250000D02*
X13935000Y33250000D01*
%TO.N,Net-(D3-A)*%
X13935000Y29750000D02*
X14000000Y29815000D01*
X9825000Y29750000D02*
X13935000Y29750000D01*
%TO.N,Net-(D4-A)*%
X13935000Y26250000D02*
X14000000Y26315000D01*
X9825000Y26250000D02*
X13935000Y26250000D01*
%TO.N,Net-(D5-A)*%
X13935000Y22750000D02*
X14000000Y22815000D01*
X9825000Y22750000D02*
X13935000Y22750000D01*
%TO.N,Net-(D6-A)*%
X13935000Y19250000D02*
X14000000Y19315000D01*
X9825000Y19250000D02*
X13935000Y19250000D01*
%TO.N,Net-(D7-A)*%
X13935000Y15750000D02*
X14000000Y15815000D01*
X9825000Y15750000D02*
X13935000Y15750000D01*
%TO.N,Net-(D8-A)*%
X13935000Y12250000D02*
X14000000Y12315000D01*
X9825000Y12250000D02*
X13935000Y12250000D01*
%TO.N,Net-(D11-A)*%
X13935000Y-6250000D02*
X14000000Y-6185000D01*
X9825000Y-6250000D02*
X13935000Y-6250000D01*
%TO.N,Net-(D12-A)*%
X13935000Y-9750000D02*
X14000000Y-9685000D01*
X9825000Y-9750000D02*
X13935000Y-9750000D01*
%TO.N,Net-(D13-A)*%
X9825000Y-13250000D02*
X13935000Y-13250000D01*
X13935000Y-13250000D02*
X14000000Y-13185000D01*
%TO.N,Net-(D14-A)*%
X9825000Y-16750000D02*
X13935000Y-16750000D01*
X13935000Y-16750000D02*
X14000000Y-16685000D01*
%TO.N,Net-(D15-A)*%
X9825000Y-20250000D02*
X13935000Y-20250000D01*
X13935000Y-20250000D02*
X14000000Y-20185000D01*
%TO.N,Net-(D16-A)*%
X9825000Y-23750000D02*
X13935000Y-23750000D01*
X13935000Y-23750000D02*
X14000000Y-23685000D01*
%TO.N,Net-(D17-A)*%
X13935000Y-33250000D02*
X14000000Y-33185000D01*
X9825000Y-33250000D02*
X13935000Y-33250000D01*
%TO.N,Net-(D18-A)*%
X9825000Y-36750000D02*
X13935000Y-36750000D01*
X13935000Y-36750000D02*
X14000000Y-36685000D01*
%TO.N,/LEDa.2*%
X6500000Y29750000D02*
X8175000Y29750000D01*
X-4000000Y32500000D02*
X-4000000Y12500000D01*
X-11000000Y32500000D02*
X-8444006Y32500000D01*
X-11000000Y12500000D02*
X-8444006Y12500000D01*
%TO.N,/LEDa.3*%
X-3000000Y31500000D02*
X-3000000Y11500000D01*
X6500000Y26250000D02*
X8175000Y26250000D01*
X-11000000Y11500000D02*
X-8444006Y11500000D01*
X-11000000Y31500000D02*
X-8444006Y31500000D01*
%TO.N,/LEDa.4*%
X-2000000Y30500000D02*
X-2000000Y10500000D01*
X-11000000Y30500000D02*
X-8444006Y30500000D01*
X6500000Y22750000D02*
X8175000Y22750000D01*
X-11000000Y10500000D02*
X-8444006Y10500000D01*
%TO.N,/LEDa.7*%
X-11000000Y27500000D02*
X-8444006Y27500000D01*
X1000000Y27500000D02*
X1000000Y7500000D01*
X6500000Y12250000D02*
X8175000Y12250000D01*
X-11000000Y7500000D02*
X-8444006Y7500000D01*
%TO.N,/LEDa.5*%
X6500000Y19250000D02*
X8175000Y19250000D01*
X-11000000Y9500000D02*
X-8444006Y9500000D01*
X-11000000Y29500000D02*
X-8444006Y29500000D01*
X-1000000Y29500000D02*
X-1000000Y9500000D01*
%TO.N,/LEDa.0*%
X6500000Y36750000D02*
X8175000Y36750000D01*
X-11000000Y14500000D02*
X-8444006Y14500000D01*
X-8444006Y34500000D02*
X-8444000Y34499994D01*
X-6000000Y34500000D02*
X-6000000Y14500000D01*
X-11000000Y34500000D02*
X-8444006Y34500000D01*
%TO.N,/LEDa.1*%
X-5000000Y33500000D02*
X-5000000Y13500000D01*
X-11000000Y13500000D02*
X-8444006Y13500000D01*
X-11000000Y33500000D02*
X-8444006Y33500000D01*
X6500000Y33250000D02*
X8175000Y33250000D01*
%TO.N,/LEDa.6*%
X-11000000Y8500000D02*
X-8444006Y8500000D01*
X-11000000Y28500000D02*
X-8444006Y28500000D01*
X6500000Y15750000D02*
X8175000Y15750000D01*
X0Y28500000D02*
X0Y8500000D01*
%TO.N,/LEDb.6*%
X0Y-11500000D02*
X0Y-31500000D01*
X-11000000Y-31500000D02*
X-8444006Y-31500000D01*
X6500000Y-20250000D02*
X8175000Y-20250000D01*
X-11000000Y-11500000D02*
X-8444006Y-11500000D01*
%TO.N,/LEDc.0*%
X2000000Y-13500000D02*
X2000000Y-33500000D01*
X-11000000Y-33500000D02*
X-8444006Y-33500000D01*
X-11000000Y-13500000D02*
X-8444006Y-13500000D01*
X6500000Y-33250000D02*
X8175000Y-33250000D01*
%TO.N,/LEDb.0*%
X-6000000Y-5500000D02*
X-6000000Y-25500000D01*
X-11000000Y-5500000D02*
X-8444006Y-5500000D01*
X6500000Y750000D02*
X8175000Y750000D01*
X-11000000Y-25500000D02*
X-8444006Y-25500000D01*
%TO.N,/LEDb.2*%
X-4000000Y-7500000D02*
X-4000000Y-27500000D01*
X-11000000Y-27500000D02*
X-8444006Y-27500000D01*
X-11000000Y-7500000D02*
X-8444006Y-7500000D01*
X6500000Y-6250000D02*
X8175000Y-6250000D01*
%TO.N,/LEDb.5*%
X6500000Y-16750000D02*
X8175000Y-16750000D01*
X-11000000Y-10500000D02*
X-8444006Y-10500000D01*
X-11000000Y-30500000D02*
X-8444006Y-30500000D01*
X-1000000Y-10500000D02*
X-1000000Y-30500000D01*
%TO.N,/LEDb.1*%
X-11000000Y-26500000D02*
X-8444006Y-26500000D01*
X-11000000Y-6500000D02*
X-8444006Y-6500000D01*
X-5000000Y-6500000D02*
X-5000000Y-26500000D01*
X6500000Y-2750000D02*
X8175000Y-2750000D01*
%TO.N,/LEDc.1*%
X3000000Y-14500000D02*
X3000000Y-34500000D01*
X6500000Y-36750000D02*
X8175000Y-36750000D01*
X-11000000Y-14500000D02*
X-8444006Y-14500000D01*
X-11000000Y-34500000D02*
X-8444006Y-34500000D01*
%TO.N,/LEDb.4*%
X6500000Y-13250000D02*
X8175000Y-13250000D01*
X-11000000Y-9500000D02*
X-8444006Y-9500000D01*
X-2000000Y-9500000D02*
X-2000000Y-29500000D01*
X-11000000Y-29500000D02*
X-8444006Y-29500000D01*
%TO.N,/LEDb.7*%
X6500000Y-23750000D02*
X8175000Y-23750000D01*
X-11000000Y-32500000D02*
X-8444006Y-32500000D01*
X1000000Y-12500000D02*
X1000000Y-32500000D01*
X-11000000Y-12500000D02*
X-8444006Y-12500000D01*
%TO.N,/LEDb.3*%
X6500000Y-9750000D02*
X8175000Y-9750000D01*
X-11000000Y-28500000D02*
X-8444006Y-28500000D01*
X-11000000Y-8500000D02*
X-8444006Y-8500000D01*
X-3000000Y-8500000D02*
X-3000000Y-28500000D01*
%TD*%
%TA.AperFunction,Conductor*%
%TO.N,GND*%
G36*
X14438247Y38474815D02*
G01*
X14484002Y38422011D01*
X14495208Y38370500D01*
X14495208Y37815900D01*
X14475523Y37748861D01*
X14422719Y37703106D01*
X14355210Y37693400D01*
X14355196Y37693261D01*
X14354654Y37693320D01*
X14353561Y37693162D01*
X14350213Y37693797D01*
X14347484Y37694091D01*
X14347483Y37694091D01*
X14287873Y37700500D01*
X14287863Y37700500D01*
X13712129Y37700500D01*
X13712123Y37700499D01*
X13652516Y37694092D01*
X13517671Y37643798D01*
X13517664Y37643794D01*
X13402456Y37557548D01*
X13402455Y37557547D01*
X13402454Y37557546D01*
X13325153Y37454285D01*
X13322087Y37450189D01*
X13266153Y37408318D01*
X13222820Y37400500D01*
X10686489Y37400500D01*
X10619450Y37420185D01*
X10585762Y37454809D01*
X10585094Y37454285D01*
X10580468Y37460190D01*
X10460188Y37580470D01*
X10371379Y37634157D01*
X10314606Y37668478D01*
X10152196Y37719086D01*
X10152194Y37719087D01*
X10152192Y37719087D01*
X10102778Y37723577D01*
X10081616Y37725500D01*
X9568384Y37725500D01*
X9549145Y37723752D01*
X9497807Y37719087D01*
X9335393Y37668478D01*
X9189811Y37580470D01*
X9189810Y37580469D01*
X9087681Y37478339D01*
X9026358Y37444854D01*
X8956666Y37449838D01*
X8912319Y37478339D01*
X8810188Y37580470D01*
X8721379Y37634157D01*
X8664606Y37668478D01*
X8502196Y37719086D01*
X8502194Y37719087D01*
X8502192Y37719087D01*
X8452778Y37723577D01*
X8431616Y37725500D01*
X7918384Y37725500D01*
X7899145Y37723752D01*
X7847807Y37719087D01*
X7685393Y37668478D01*
X7539811Y37580470D01*
X7419531Y37460190D01*
X7414906Y37454285D01*
X7413882Y37455088D01*
X7411692Y37453083D01*
X7407224Y37443297D01*
X7386374Y37429898D01*
X7368096Y37413160D01*
X7355943Y37410342D01*
X7348446Y37405523D01*
X7313511Y37400500D01*
X7174362Y37400500D01*
X7107323Y37420185D01*
X7086681Y37436819D01*
X7074038Y37449462D01*
X7074034Y37449465D01*
X6926553Y37548010D01*
X6926540Y37548017D01*
X6762667Y37615894D01*
X6762658Y37615897D01*
X6588694Y37650500D01*
X6588691Y37650500D01*
X6411309Y37650500D01*
X6411306Y37650500D01*
X6237341Y37615897D01*
X6237332Y37615894D01*
X6073459Y37548017D01*
X6073446Y37548010D01*
X5925965Y37449465D01*
X5925961Y37449462D01*
X5800538Y37324039D01*
X5800535Y37324035D01*
X5701990Y37176554D01*
X5701983Y37176541D01*
X5634106Y37012668D01*
X5634103Y37012659D01*
X5599500Y36838696D01*
X5599500Y36661305D01*
X5634103Y36487342D01*
X5634106Y36487333D01*
X5701983Y36323460D01*
X5701990Y36323447D01*
X5800535Y36175966D01*
X5800538Y36175962D01*
X5925961Y36050539D01*
X5925965Y36050536D01*
X6073446Y35951991D01*
X6073459Y35951984D01*
X6157082Y35917347D01*
X6237334Y35884106D01*
X6237336Y35884106D01*
X6237341Y35884104D01*
X6411304Y35849501D01*
X6411307Y35849500D01*
X6411309Y35849500D01*
X6588693Y35849500D01*
X6588694Y35849501D01*
X6668223Y35865320D01*
X6762658Y35884104D01*
X6762661Y35884106D01*
X6762666Y35884106D01*
X6926547Y35951987D01*
X7074035Y36050536D01*
X7078645Y36055146D01*
X7086681Y36063181D01*
X7113608Y36077885D01*
X7139427Y36094477D01*
X7145627Y36095369D01*
X7148004Y36096666D01*
X7174362Y36099500D01*
X7313511Y36099500D01*
X7380550Y36079815D01*
X7414237Y36045192D01*
X7414906Y36045715D01*
X7419531Y36039811D01*
X7539811Y35919531D01*
X7539813Y35919530D01*
X7539815Y35919528D01*
X7685394Y35831522D01*
X7847804Y35780914D01*
X7918384Y35774500D01*
X7918387Y35774500D01*
X8431613Y35774500D01*
X8431616Y35774500D01*
X8502196Y35780914D01*
X8664606Y35831522D01*
X8810185Y35919528D01*
X8848510Y35957853D01*
X8912319Y36021661D01*
X8973642Y36055146D01*
X9043334Y36050162D01*
X9087681Y36021661D01*
X9189811Y35919531D01*
X9189813Y35919530D01*
X9189815Y35919528D01*
X9335394Y35831522D01*
X9497804Y35780914D01*
X9568384Y35774500D01*
X9568387Y35774500D01*
X10081613Y35774500D01*
X10081616Y35774500D01*
X10152196Y35780914D01*
X10314606Y35831522D01*
X10460185Y35919528D01*
X10580472Y36039815D01*
X10580474Y36039820D01*
X10585094Y36045715D01*
X10586117Y36044913D01*
X10631904Y36086840D01*
X10686489Y36099500D01*
X13284081Y36099500D01*
X13351120Y36079815D01*
X13396875Y36027011D01*
X13406819Y35957853D01*
X13383347Y35901189D01*
X13316649Y35812094D01*
X13316645Y35812087D01*
X13266403Y35677380D01*
X13266401Y35677373D01*
X13260000Y35617845D01*
X13260000Y35425000D01*
X13876000Y35425000D01*
X13884685Y35422450D01*
X13893647Y35423738D01*
X13917687Y35412760D01*
X13943039Y35405315D01*
X13948966Y35398475D01*
X13957203Y35394713D01*
X13971492Y35372479D01*
X13988794Y35352511D01*
X13991081Y35341997D01*
X13994977Y35335935D01*
X14000000Y35301000D01*
X14000000Y35069000D01*
X13980315Y35001961D01*
X13927511Y34956206D01*
X13876000Y34945000D01*
X13260000Y34945000D01*
X13260000Y34752156D01*
X13266401Y34692628D01*
X13266403Y34692621D01*
X13316645Y34557914D01*
X13316649Y34557907D01*
X13402809Y34442813D01*
X13402812Y34442810D01*
X13525011Y34351331D01*
X13523365Y34349134D01*
X13562782Y34309724D01*
X13577640Y34241453D01*
X13553229Y34175986D01*
X13523766Y34150452D01*
X13524769Y34149112D01*
X13402456Y34057548D01*
X13402455Y34057547D01*
X13402454Y34057546D01*
X13325153Y33954285D01*
X13322087Y33950189D01*
X13266153Y33908318D01*
X13222820Y33900500D01*
X10686489Y33900500D01*
X10619450Y33920185D01*
X10585762Y33954809D01*
X10585094Y33954285D01*
X10580468Y33960190D01*
X10460188Y34080470D01*
X10457723Y34081960D01*
X10314606Y34168478D01*
X10152196Y34219086D01*
X10152194Y34219087D01*
X10152192Y34219087D01*
X10102778Y34223577D01*
X10081616Y34225500D01*
X9568384Y34225500D01*
X9549145Y34223752D01*
X9497807Y34219087D01*
X9335393Y34168478D01*
X9189811Y34080470D01*
X9189810Y34080469D01*
X9087681Y33978339D01*
X9026358Y33944854D01*
X8956666Y33949838D01*
X8912319Y33978339D01*
X8810188Y34080470D01*
X8807723Y34081960D01*
X8664606Y34168478D01*
X8502196Y34219086D01*
X8502194Y34219087D01*
X8502192Y34219087D01*
X8452778Y34223577D01*
X8431616Y34225500D01*
X7918384Y34225500D01*
X7899145Y34223752D01*
X7847807Y34219087D01*
X7685393Y34168478D01*
X7539811Y34080470D01*
X7419531Y33960190D01*
X7414906Y33954285D01*
X7413882Y33955088D01*
X7411692Y33953083D01*
X7407224Y33943297D01*
X7386374Y33929898D01*
X7368096Y33913160D01*
X7355943Y33910342D01*
X7348446Y33905523D01*
X7313511Y33900500D01*
X7174362Y33900500D01*
X7107323Y33920185D01*
X7086681Y33936819D01*
X7074038Y33949462D01*
X7074034Y33949465D01*
X6926553Y34048010D01*
X6926540Y34048017D01*
X6762667Y34115894D01*
X6762658Y34115897D01*
X6588694Y34150500D01*
X6588691Y34150500D01*
X6411309Y34150500D01*
X6411306Y34150500D01*
X6237341Y34115897D01*
X6237332Y34115894D01*
X6073459Y34048017D01*
X6073446Y34048010D01*
X5925965Y33949465D01*
X5925961Y33949462D01*
X5800538Y33824039D01*
X5800535Y33824035D01*
X5701990Y33676554D01*
X5701983Y33676541D01*
X5634106Y33512668D01*
X5634103Y33512659D01*
X5599500Y33338696D01*
X5599500Y33161305D01*
X5634103Y32987342D01*
X5634106Y32987333D01*
X5701983Y32823460D01*
X5701990Y32823447D01*
X5800535Y32675966D01*
X5800538Y32675962D01*
X5925961Y32550539D01*
X5925965Y32550536D01*
X6073446Y32451991D01*
X6073459Y32451984D01*
X6171659Y32411309D01*
X6237334Y32384106D01*
X6237336Y32384106D01*
X6237341Y32384104D01*
X6411304Y32349501D01*
X6411307Y32349500D01*
X6411309Y32349500D01*
X6588693Y32349500D01*
X6588694Y32349501D01*
X6671124Y32365897D01*
X6762658Y32384104D01*
X6762661Y32384106D01*
X6762666Y32384106D01*
X6926547Y32451987D01*
X7074035Y32550536D01*
X7078645Y32555146D01*
X7086681Y32563181D01*
X7113608Y32577885D01*
X7139427Y32594477D01*
X7145627Y32595369D01*
X7148004Y32596666D01*
X7174362Y32599500D01*
X7313511Y32599500D01*
X7380550Y32579815D01*
X7414237Y32545192D01*
X7414906Y32545715D01*
X7419531Y32539811D01*
X7539811Y32419531D01*
X7539813Y32419530D01*
X7539815Y32419528D01*
X7685394Y32331522D01*
X7847804Y32280914D01*
X7918384Y32274500D01*
X7918387Y32274500D01*
X8431613Y32274500D01*
X8431616Y32274500D01*
X8502196Y32280914D01*
X8664606Y32331522D01*
X8810185Y32419528D01*
X8848510Y32457853D01*
X8912319Y32521661D01*
X8973642Y32555146D01*
X9043334Y32550162D01*
X9087681Y32521661D01*
X9189811Y32419531D01*
X9189813Y32419530D01*
X9189815Y32419528D01*
X9335394Y32331522D01*
X9497804Y32280914D01*
X9568384Y32274500D01*
X9568387Y32274500D01*
X10081613Y32274500D01*
X10081616Y32274500D01*
X10152196Y32280914D01*
X10314606Y32331522D01*
X10460185Y32419528D01*
X10580472Y32539815D01*
X10580474Y32539820D01*
X10585094Y32545715D01*
X10586117Y32544913D01*
X10631904Y32586840D01*
X10686489Y32599500D01*
X13284081Y32599500D01*
X13351120Y32579815D01*
X13396875Y32527011D01*
X13406819Y32457853D01*
X13383347Y32401189D01*
X13316649Y32312094D01*
X13316645Y32312087D01*
X13266403Y32177380D01*
X13266401Y32177373D01*
X13260000Y32117845D01*
X13260000Y31925000D01*
X13876000Y31925000D01*
X13884685Y31922450D01*
X13893647Y31923738D01*
X13917687Y31912760D01*
X13943039Y31905315D01*
X13948966Y31898475D01*
X13957203Y31894713D01*
X13971492Y31872479D01*
X13988794Y31852511D01*
X13991081Y31841997D01*
X13994977Y31835935D01*
X14000000Y31801000D01*
X14000000Y31569000D01*
X13980315Y31501961D01*
X13927511Y31456206D01*
X13876000Y31445000D01*
X13260000Y31445000D01*
X13260000Y31252156D01*
X13266401Y31192628D01*
X13266403Y31192621D01*
X13316645Y31057914D01*
X13316649Y31057907D01*
X13402809Y30942813D01*
X13402812Y30942810D01*
X13525011Y30851331D01*
X13523365Y30849134D01*
X13562782Y30809724D01*
X13577640Y30741453D01*
X13553229Y30675986D01*
X13523766Y30650452D01*
X13524769Y30649112D01*
X13402456Y30557548D01*
X13402455Y30557547D01*
X13402454Y30557546D01*
X13325153Y30454285D01*
X13322087Y30450189D01*
X13266153Y30408318D01*
X13222820Y30400500D01*
X10686489Y30400500D01*
X10619450Y30420185D01*
X10585762Y30454809D01*
X10585094Y30454285D01*
X10580468Y30460190D01*
X10460188Y30580470D01*
X10371379Y30634157D01*
X10314606Y30668478D01*
X10152196Y30719086D01*
X10152194Y30719087D01*
X10152192Y30719087D01*
X10102778Y30723577D01*
X10081616Y30725500D01*
X9568384Y30725500D01*
X9549145Y30723752D01*
X9497807Y30719087D01*
X9335393Y30668478D01*
X9189811Y30580470D01*
X9189810Y30580469D01*
X9087681Y30478339D01*
X9026358Y30444854D01*
X8956666Y30449838D01*
X8912319Y30478339D01*
X8810188Y30580470D01*
X8721379Y30634157D01*
X8664606Y30668478D01*
X8502196Y30719086D01*
X8502194Y30719087D01*
X8502192Y30719087D01*
X8452778Y30723577D01*
X8431616Y30725500D01*
X7918384Y30725500D01*
X7899145Y30723752D01*
X7847807Y30719087D01*
X7685393Y30668478D01*
X7539811Y30580470D01*
X7419531Y30460190D01*
X7414906Y30454285D01*
X7413882Y30455088D01*
X7411692Y30453083D01*
X7407224Y30443297D01*
X7386374Y30429898D01*
X7368096Y30413160D01*
X7355943Y30410342D01*
X7348446Y30405523D01*
X7313511Y30400500D01*
X7174362Y30400500D01*
X7107323Y30420185D01*
X7086681Y30436819D01*
X7074038Y30449462D01*
X7074034Y30449465D01*
X6926553Y30548010D01*
X6926540Y30548017D01*
X6762667Y30615894D01*
X6762658Y30615897D01*
X6588694Y30650500D01*
X6588691Y30650500D01*
X6411309Y30650500D01*
X6411306Y30650500D01*
X6237341Y30615897D01*
X6237332Y30615894D01*
X6073459Y30548017D01*
X6073446Y30548010D01*
X5925965Y30449465D01*
X5925961Y30449462D01*
X5800538Y30324039D01*
X5800535Y30324035D01*
X5701990Y30176554D01*
X5701983Y30176541D01*
X5634106Y30012668D01*
X5634103Y30012659D01*
X5599500Y29838696D01*
X5599500Y29661305D01*
X5634103Y29487342D01*
X5634106Y29487333D01*
X5701983Y29323460D01*
X5701990Y29323447D01*
X5800535Y29175966D01*
X5800538Y29175962D01*
X5925961Y29050539D01*
X5925965Y29050536D01*
X6073446Y28951991D01*
X6073459Y28951984D01*
X6196092Y28901189D01*
X6237334Y28884106D01*
X6237336Y28884106D01*
X6237341Y28884104D01*
X6411304Y28849501D01*
X6411307Y28849500D01*
X6411309Y28849500D01*
X6588693Y28849500D01*
X6588694Y28849501D01*
X6646682Y28861036D01*
X6762658Y28884104D01*
X6762661Y28884106D01*
X6762666Y28884106D01*
X6926547Y28951987D01*
X7074035Y29050536D01*
X7078645Y29055146D01*
X7086681Y29063181D01*
X7113608Y29077885D01*
X7139427Y29094477D01*
X7145627Y29095369D01*
X7148004Y29096666D01*
X7174362Y29099500D01*
X7313511Y29099500D01*
X7380550Y29079815D01*
X7414237Y29045192D01*
X7414906Y29045715D01*
X7419531Y29039811D01*
X7539811Y28919531D01*
X7539813Y28919530D01*
X7539815Y28919528D01*
X7685394Y28831522D01*
X7847804Y28780914D01*
X7918384Y28774500D01*
X7918387Y28774500D01*
X8431613Y28774500D01*
X8431616Y28774500D01*
X8502196Y28780914D01*
X8664606Y28831522D01*
X8810185Y28919528D01*
X8848510Y28957853D01*
X8912319Y29021661D01*
X8973642Y29055146D01*
X9043334Y29050162D01*
X9087681Y29021661D01*
X9189811Y28919531D01*
X9189813Y28919530D01*
X9189815Y28919528D01*
X9335394Y28831522D01*
X9497804Y28780914D01*
X9568384Y28774500D01*
X9568387Y28774500D01*
X10081613Y28774500D01*
X10081616Y28774500D01*
X10152196Y28780914D01*
X10314606Y28831522D01*
X10460185Y28919528D01*
X10580472Y29039815D01*
X10580474Y29039820D01*
X10585094Y29045715D01*
X10586117Y29044913D01*
X10631904Y29086840D01*
X10686489Y29099500D01*
X13284081Y29099500D01*
X13351120Y29079815D01*
X13396875Y29027011D01*
X13406819Y28957853D01*
X13383347Y28901189D01*
X13316649Y28812094D01*
X13316645Y28812087D01*
X13266403Y28677380D01*
X13266401Y28677373D01*
X13260000Y28617845D01*
X13260000Y28425000D01*
X13876000Y28425000D01*
X13884685Y28422450D01*
X13893647Y28423738D01*
X13917687Y28412760D01*
X13943039Y28405315D01*
X13948966Y28398475D01*
X13957203Y28394713D01*
X13971492Y28372479D01*
X13988794Y28352511D01*
X13991081Y28341997D01*
X13994977Y28335935D01*
X14000000Y28301000D01*
X14000000Y28069000D01*
X13980315Y28001961D01*
X13927511Y27956206D01*
X13876000Y27945000D01*
X13260000Y27945000D01*
X13260000Y27752156D01*
X13266401Y27692628D01*
X13266403Y27692621D01*
X13316645Y27557914D01*
X13316649Y27557907D01*
X13402809Y27442813D01*
X13402812Y27442810D01*
X13525011Y27351331D01*
X13523365Y27349134D01*
X13562782Y27309724D01*
X13577640Y27241453D01*
X13553229Y27175986D01*
X13523766Y27150452D01*
X13524769Y27149112D01*
X13402456Y27057548D01*
X13402455Y27057547D01*
X13402454Y27057546D01*
X13325153Y26954285D01*
X13322087Y26950189D01*
X13266153Y26908318D01*
X13222820Y26900500D01*
X10686489Y26900500D01*
X10619450Y26920185D01*
X10585762Y26954809D01*
X10585094Y26954285D01*
X10580468Y26960190D01*
X10460188Y27080470D01*
X10371379Y27134157D01*
X10314606Y27168478D01*
X10152196Y27219086D01*
X10152194Y27219087D01*
X10152192Y27219087D01*
X10102778Y27223577D01*
X10081616Y27225500D01*
X9568384Y27225500D01*
X9549145Y27223752D01*
X9497807Y27219087D01*
X9335393Y27168478D01*
X9189811Y27080470D01*
X9189810Y27080469D01*
X9087681Y26978339D01*
X9026358Y26944854D01*
X8956666Y26949838D01*
X8912319Y26978339D01*
X8810188Y27080470D01*
X8721379Y27134157D01*
X8664606Y27168478D01*
X8502196Y27219086D01*
X8502194Y27219087D01*
X8502192Y27219087D01*
X8452778Y27223577D01*
X8431616Y27225500D01*
X7918384Y27225500D01*
X7899145Y27223752D01*
X7847807Y27219087D01*
X7685393Y27168478D01*
X7539811Y27080470D01*
X7419531Y26960190D01*
X7414906Y26954285D01*
X7413882Y26955088D01*
X7411692Y26953083D01*
X7407224Y26943297D01*
X7386374Y26929898D01*
X7368096Y26913160D01*
X7355943Y26910342D01*
X7348446Y26905523D01*
X7313511Y26900500D01*
X7174362Y26900500D01*
X7107323Y26920185D01*
X7086681Y26936819D01*
X7074038Y26949462D01*
X7074034Y26949465D01*
X6926553Y27048010D01*
X6926540Y27048017D01*
X6762667Y27115894D01*
X6762658Y27115897D01*
X6588694Y27150500D01*
X6588691Y27150500D01*
X6411309Y27150500D01*
X6411306Y27150500D01*
X6237341Y27115897D01*
X6237332Y27115894D01*
X6073459Y27048017D01*
X6073446Y27048010D01*
X5925965Y26949465D01*
X5925961Y26949462D01*
X5800538Y26824039D01*
X5800535Y26824035D01*
X5701990Y26676554D01*
X5701983Y26676541D01*
X5634106Y26512668D01*
X5634103Y26512659D01*
X5599500Y26338696D01*
X5599500Y26161305D01*
X5634103Y25987342D01*
X5634106Y25987333D01*
X5701983Y25823460D01*
X5701990Y25823447D01*
X5800535Y25675966D01*
X5800538Y25675962D01*
X5925961Y25550539D01*
X5925965Y25550536D01*
X6073446Y25451991D01*
X6073459Y25451984D01*
X6196092Y25401189D01*
X6237334Y25384106D01*
X6237336Y25384106D01*
X6237341Y25384104D01*
X6411304Y25349501D01*
X6411307Y25349500D01*
X6411309Y25349500D01*
X6588693Y25349500D01*
X6588694Y25349501D01*
X6646682Y25361036D01*
X6762658Y25384104D01*
X6762661Y25384106D01*
X6762666Y25384106D01*
X6926547Y25451987D01*
X7074035Y25550536D01*
X7078645Y25555146D01*
X7086681Y25563181D01*
X7113608Y25577885D01*
X7139427Y25594477D01*
X7145627Y25595369D01*
X7148004Y25596666D01*
X7174362Y25599500D01*
X7313511Y25599500D01*
X7380550Y25579815D01*
X7414237Y25545192D01*
X7414906Y25545715D01*
X7419531Y25539811D01*
X7539811Y25419531D01*
X7539813Y25419530D01*
X7539815Y25419528D01*
X7685394Y25331522D01*
X7847804Y25280914D01*
X7918384Y25274500D01*
X7918387Y25274500D01*
X8431613Y25274500D01*
X8431616Y25274500D01*
X8502196Y25280914D01*
X8664606Y25331522D01*
X8810185Y25419528D01*
X8848510Y25457853D01*
X8912319Y25521661D01*
X8973642Y25555146D01*
X9043334Y25550162D01*
X9087681Y25521661D01*
X9189811Y25419531D01*
X9189813Y25419530D01*
X9189815Y25419528D01*
X9335394Y25331522D01*
X9497804Y25280914D01*
X9568384Y25274500D01*
X9568387Y25274500D01*
X10081613Y25274500D01*
X10081616Y25274500D01*
X10152196Y25280914D01*
X10314606Y25331522D01*
X10460185Y25419528D01*
X10580472Y25539815D01*
X10580474Y25539820D01*
X10585094Y25545715D01*
X10586117Y25544913D01*
X10631904Y25586840D01*
X10686489Y25599500D01*
X13284081Y25599500D01*
X13351120Y25579815D01*
X13396875Y25527011D01*
X13406819Y25457853D01*
X13383347Y25401189D01*
X13316649Y25312094D01*
X13316645Y25312087D01*
X13266403Y25177380D01*
X13266401Y25177373D01*
X13260000Y25117845D01*
X13260000Y24925000D01*
X13876000Y24925000D01*
X13884685Y24922450D01*
X13893647Y24923738D01*
X13917687Y24912760D01*
X13943039Y24905315D01*
X13948966Y24898475D01*
X13957203Y24894713D01*
X13971492Y24872479D01*
X13988794Y24852511D01*
X13991081Y24841997D01*
X13994977Y24835935D01*
X14000000Y24801000D01*
X14000000Y24569000D01*
X13980315Y24501961D01*
X13927511Y24456206D01*
X13876000Y24445000D01*
X13260000Y24445000D01*
X13260000Y24252156D01*
X13266401Y24192628D01*
X13266403Y24192621D01*
X13316645Y24057914D01*
X13316649Y24057907D01*
X13402809Y23942813D01*
X13402812Y23942810D01*
X13525011Y23851331D01*
X13523365Y23849134D01*
X13562782Y23809724D01*
X13577640Y23741453D01*
X13553229Y23675986D01*
X13523766Y23650452D01*
X13524769Y23649112D01*
X13402456Y23557548D01*
X13402455Y23557547D01*
X13402454Y23557546D01*
X13325153Y23454285D01*
X13322087Y23450189D01*
X13266153Y23408318D01*
X13222820Y23400500D01*
X10686489Y23400500D01*
X10619450Y23420185D01*
X10585762Y23454809D01*
X10585094Y23454285D01*
X10580468Y23460190D01*
X10460188Y23580470D01*
X10371379Y23634157D01*
X10314606Y23668478D01*
X10152196Y23719086D01*
X10152194Y23719087D01*
X10152192Y23719087D01*
X10102778Y23723577D01*
X10081616Y23725500D01*
X9568384Y23725500D01*
X9549145Y23723752D01*
X9497807Y23719087D01*
X9335393Y23668478D01*
X9189811Y23580470D01*
X9189810Y23580469D01*
X9087681Y23478339D01*
X9026358Y23444854D01*
X8956666Y23449838D01*
X8912319Y23478339D01*
X8810188Y23580470D01*
X8721379Y23634157D01*
X8664606Y23668478D01*
X8502196Y23719086D01*
X8502194Y23719087D01*
X8502192Y23719087D01*
X8452778Y23723577D01*
X8431616Y23725500D01*
X7918384Y23725500D01*
X7899145Y23723752D01*
X7847807Y23719087D01*
X7685393Y23668478D01*
X7539811Y23580470D01*
X7419531Y23460190D01*
X7414906Y23454285D01*
X7413882Y23455088D01*
X7411692Y23453083D01*
X7407224Y23443297D01*
X7386374Y23429898D01*
X7368096Y23413160D01*
X7355943Y23410342D01*
X7348446Y23405523D01*
X7313511Y23400500D01*
X7174362Y23400500D01*
X7107323Y23420185D01*
X7086681Y23436819D01*
X7074038Y23449462D01*
X7074034Y23449465D01*
X6926553Y23548010D01*
X6926540Y23548017D01*
X6762667Y23615894D01*
X6762658Y23615897D01*
X6588694Y23650500D01*
X6588691Y23650500D01*
X6411309Y23650500D01*
X6411306Y23650500D01*
X6237341Y23615897D01*
X6237332Y23615894D01*
X6073459Y23548017D01*
X6073446Y23548010D01*
X5925965Y23449465D01*
X5925961Y23449462D01*
X5800538Y23324039D01*
X5800535Y23324035D01*
X5701990Y23176554D01*
X5701983Y23176541D01*
X5634106Y23012668D01*
X5634103Y23012659D01*
X5599500Y22838696D01*
X5599500Y22661305D01*
X5634103Y22487342D01*
X5634106Y22487333D01*
X5701983Y22323460D01*
X5701990Y22323447D01*
X5800535Y22175966D01*
X5800538Y22175962D01*
X5925961Y22050539D01*
X5925965Y22050536D01*
X6073446Y21951991D01*
X6073459Y21951984D01*
X6196092Y21901189D01*
X6237334Y21884106D01*
X6237336Y21884106D01*
X6237341Y21884104D01*
X6411304Y21849501D01*
X6411307Y21849500D01*
X6411309Y21849500D01*
X6588693Y21849500D01*
X6588694Y21849501D01*
X6646682Y21861036D01*
X6762658Y21884104D01*
X6762661Y21884106D01*
X6762666Y21884106D01*
X6926547Y21951987D01*
X7074035Y22050536D01*
X7078645Y22055146D01*
X7086681Y22063181D01*
X7113608Y22077885D01*
X7139427Y22094477D01*
X7145627Y22095369D01*
X7148004Y22096666D01*
X7174362Y22099500D01*
X7313511Y22099500D01*
X7380550Y22079815D01*
X7414237Y22045192D01*
X7414906Y22045715D01*
X7419531Y22039811D01*
X7539811Y21919531D01*
X7539813Y21919530D01*
X7539815Y21919528D01*
X7685394Y21831522D01*
X7847804Y21780914D01*
X7918384Y21774500D01*
X7918387Y21774500D01*
X8431613Y21774500D01*
X8431616Y21774500D01*
X8502196Y21780914D01*
X8664606Y21831522D01*
X8810185Y21919528D01*
X8848510Y21957853D01*
X8912319Y22021661D01*
X8973642Y22055146D01*
X9043334Y22050162D01*
X9087681Y22021661D01*
X9189811Y21919531D01*
X9189813Y21919530D01*
X9189815Y21919528D01*
X9335394Y21831522D01*
X9497804Y21780914D01*
X9568384Y21774500D01*
X9568387Y21774500D01*
X10081613Y21774500D01*
X10081616Y21774500D01*
X10152196Y21780914D01*
X10314606Y21831522D01*
X10460185Y21919528D01*
X10580472Y22039815D01*
X10580474Y22039820D01*
X10585094Y22045715D01*
X10586117Y22044913D01*
X10631904Y22086840D01*
X10686489Y22099500D01*
X13284081Y22099500D01*
X13351120Y22079815D01*
X13396875Y22027011D01*
X13406819Y21957853D01*
X13383347Y21901189D01*
X13316649Y21812094D01*
X13316645Y21812087D01*
X13266403Y21677380D01*
X13266401Y21677373D01*
X13260000Y21617845D01*
X13260000Y21425000D01*
X13876000Y21425000D01*
X13884685Y21422450D01*
X13893647Y21423738D01*
X13917687Y21412760D01*
X13943039Y21405315D01*
X13948966Y21398475D01*
X13957203Y21394713D01*
X13971492Y21372479D01*
X13988794Y21352511D01*
X13991081Y21341997D01*
X13994977Y21335935D01*
X14000000Y21301000D01*
X14000000Y21069000D01*
X13980315Y21001961D01*
X13927511Y20956206D01*
X13876000Y20945000D01*
X13260000Y20945000D01*
X13260000Y20752156D01*
X13266401Y20692628D01*
X13266403Y20692621D01*
X13316645Y20557914D01*
X13316649Y20557907D01*
X13402809Y20442813D01*
X13402812Y20442810D01*
X13525011Y20351331D01*
X13523365Y20349134D01*
X13562782Y20309724D01*
X13577640Y20241453D01*
X13553229Y20175986D01*
X13523766Y20150452D01*
X13524769Y20149112D01*
X13402456Y20057548D01*
X13402455Y20057547D01*
X13402454Y20057546D01*
X13325153Y19954285D01*
X13322087Y19950189D01*
X13266153Y19908318D01*
X13222820Y19900500D01*
X10686489Y19900500D01*
X10619450Y19920185D01*
X10585762Y19954809D01*
X10585094Y19954285D01*
X10580468Y19960190D01*
X10460188Y20080470D01*
X10371379Y20134157D01*
X10314606Y20168478D01*
X10152196Y20219086D01*
X10152194Y20219087D01*
X10152192Y20219087D01*
X10102778Y20223577D01*
X10081616Y20225500D01*
X9568384Y20225500D01*
X9549145Y20223752D01*
X9497807Y20219087D01*
X9335393Y20168478D01*
X9189811Y20080470D01*
X9189810Y20080469D01*
X9087681Y19978339D01*
X9026358Y19944854D01*
X8956666Y19949838D01*
X8912319Y19978339D01*
X8810188Y20080470D01*
X8721379Y20134157D01*
X8664606Y20168478D01*
X8502196Y20219086D01*
X8502194Y20219087D01*
X8502192Y20219087D01*
X8452778Y20223577D01*
X8431616Y20225500D01*
X7918384Y20225500D01*
X7899145Y20223752D01*
X7847807Y20219087D01*
X7685393Y20168478D01*
X7539811Y20080470D01*
X7419531Y19960190D01*
X7414906Y19954285D01*
X7413882Y19955088D01*
X7411692Y19953083D01*
X7407224Y19943297D01*
X7386374Y19929898D01*
X7368096Y19913160D01*
X7355943Y19910342D01*
X7348446Y19905523D01*
X7313511Y19900500D01*
X7174362Y19900500D01*
X7107323Y19920185D01*
X7086681Y19936819D01*
X7074038Y19949462D01*
X7074034Y19949465D01*
X6926553Y20048010D01*
X6926540Y20048017D01*
X6762667Y20115894D01*
X6762658Y20115897D01*
X6588694Y20150500D01*
X6588691Y20150500D01*
X6411309Y20150500D01*
X6411306Y20150500D01*
X6237341Y20115897D01*
X6237332Y20115894D01*
X6073459Y20048017D01*
X6073446Y20048010D01*
X5925965Y19949465D01*
X5925961Y19949462D01*
X5800538Y19824039D01*
X5800535Y19824035D01*
X5701990Y19676554D01*
X5701983Y19676541D01*
X5634106Y19512668D01*
X5634103Y19512659D01*
X5599500Y19338696D01*
X5599500Y19161305D01*
X5634103Y18987342D01*
X5634106Y18987333D01*
X5701983Y18823460D01*
X5701990Y18823447D01*
X5800535Y18675966D01*
X5800538Y18675962D01*
X5925961Y18550539D01*
X5925965Y18550536D01*
X6073446Y18451991D01*
X6073459Y18451984D01*
X6196092Y18401189D01*
X6237334Y18384106D01*
X6237336Y18384106D01*
X6237341Y18384104D01*
X6411304Y18349501D01*
X6411307Y18349500D01*
X6411309Y18349500D01*
X6588693Y18349500D01*
X6588694Y18349501D01*
X6646682Y18361036D01*
X6762658Y18384104D01*
X6762661Y18384106D01*
X6762666Y18384106D01*
X6926547Y18451987D01*
X7074035Y18550536D01*
X7078645Y18555146D01*
X7086681Y18563181D01*
X7113608Y18577885D01*
X7139427Y18594477D01*
X7145627Y18595369D01*
X7148004Y18596666D01*
X7174362Y18599500D01*
X7313511Y18599500D01*
X7380550Y18579815D01*
X7414237Y18545192D01*
X7414906Y18545715D01*
X7419531Y18539811D01*
X7539811Y18419531D01*
X7539813Y18419530D01*
X7539815Y18419528D01*
X7685394Y18331522D01*
X7847804Y18280914D01*
X7918384Y18274500D01*
X7918387Y18274500D01*
X8431613Y18274500D01*
X8431616Y18274500D01*
X8502196Y18280914D01*
X8664606Y18331522D01*
X8810185Y18419528D01*
X8848510Y18457853D01*
X8912319Y18521661D01*
X8973642Y18555146D01*
X9043334Y18550162D01*
X9087681Y18521661D01*
X9189811Y18419531D01*
X9189813Y18419530D01*
X9189815Y18419528D01*
X9335394Y18331522D01*
X9497804Y18280914D01*
X9568384Y18274500D01*
X9568387Y18274500D01*
X10081613Y18274500D01*
X10081616Y18274500D01*
X10152196Y18280914D01*
X10314606Y18331522D01*
X10460185Y18419528D01*
X10580472Y18539815D01*
X10580474Y18539820D01*
X10585094Y18545715D01*
X10586117Y18544913D01*
X10631904Y18586840D01*
X10686489Y18599500D01*
X13284081Y18599500D01*
X13351120Y18579815D01*
X13396875Y18527011D01*
X13406819Y18457853D01*
X13383347Y18401189D01*
X13316649Y18312094D01*
X13316645Y18312087D01*
X13266403Y18177380D01*
X13266401Y18177373D01*
X13260000Y18117845D01*
X13260000Y17925000D01*
X13876000Y17925000D01*
X13884685Y17922450D01*
X13893647Y17923738D01*
X13917687Y17912760D01*
X13943039Y17905315D01*
X13948966Y17898475D01*
X13957203Y17894713D01*
X13971492Y17872479D01*
X13988794Y17852511D01*
X13991081Y17841997D01*
X13994977Y17835935D01*
X14000000Y17801000D01*
X14000000Y17569000D01*
X13980315Y17501961D01*
X13927511Y17456206D01*
X13876000Y17445000D01*
X13260000Y17445000D01*
X13260000Y17252156D01*
X13266401Y17192628D01*
X13266403Y17192621D01*
X13316645Y17057914D01*
X13316649Y17057907D01*
X13402809Y16942813D01*
X13402812Y16942810D01*
X13525011Y16851331D01*
X13523365Y16849134D01*
X13562782Y16809724D01*
X13577640Y16741453D01*
X13553229Y16675986D01*
X13523766Y16650452D01*
X13524769Y16649112D01*
X13402456Y16557548D01*
X13402455Y16557547D01*
X13402454Y16557546D01*
X13325153Y16454285D01*
X13322087Y16450189D01*
X13266153Y16408318D01*
X13222820Y16400500D01*
X10686489Y16400500D01*
X10619450Y16420185D01*
X10585762Y16454809D01*
X10585094Y16454285D01*
X10580468Y16460190D01*
X10460188Y16580470D01*
X10371379Y16634157D01*
X10314606Y16668478D01*
X10152196Y16719086D01*
X10152194Y16719087D01*
X10152192Y16719087D01*
X10102778Y16723577D01*
X10081616Y16725500D01*
X9568384Y16725500D01*
X9549145Y16723752D01*
X9497807Y16719087D01*
X9335393Y16668478D01*
X9189811Y16580470D01*
X9189810Y16580469D01*
X9087681Y16478339D01*
X9026358Y16444854D01*
X8956666Y16449838D01*
X8912319Y16478339D01*
X8810188Y16580470D01*
X8721379Y16634157D01*
X8664606Y16668478D01*
X8502196Y16719086D01*
X8502194Y16719087D01*
X8502192Y16719087D01*
X8452778Y16723577D01*
X8431616Y16725500D01*
X7918384Y16725500D01*
X7899145Y16723752D01*
X7847807Y16719087D01*
X7685393Y16668478D01*
X7539811Y16580470D01*
X7419531Y16460190D01*
X7414906Y16454285D01*
X7413882Y16455088D01*
X7411692Y16453083D01*
X7407224Y16443297D01*
X7386374Y16429898D01*
X7368096Y16413160D01*
X7355943Y16410342D01*
X7348446Y16405523D01*
X7313511Y16400500D01*
X7174362Y16400500D01*
X7107323Y16420185D01*
X7086681Y16436819D01*
X7074038Y16449462D01*
X7074034Y16449465D01*
X6926553Y16548010D01*
X6926540Y16548017D01*
X6762667Y16615894D01*
X6762658Y16615897D01*
X6588694Y16650500D01*
X6588691Y16650500D01*
X6411309Y16650500D01*
X6411306Y16650500D01*
X6237341Y16615897D01*
X6237332Y16615894D01*
X6073459Y16548017D01*
X6073446Y16548010D01*
X5925965Y16449465D01*
X5925961Y16449462D01*
X5800538Y16324039D01*
X5800535Y16324035D01*
X5701990Y16176554D01*
X5701983Y16176541D01*
X5634106Y16012668D01*
X5634103Y16012659D01*
X5599500Y15838696D01*
X5599500Y15661305D01*
X5634103Y15487342D01*
X5634106Y15487333D01*
X5701983Y15323460D01*
X5701990Y15323447D01*
X5800535Y15175966D01*
X5800538Y15175962D01*
X5925961Y15050539D01*
X5925965Y15050536D01*
X6073446Y14951991D01*
X6073459Y14951984D01*
X6187383Y14904796D01*
X6237334Y14884106D01*
X6237336Y14884106D01*
X6237341Y14884104D01*
X6411304Y14849501D01*
X6411307Y14849500D01*
X6411309Y14849500D01*
X6588693Y14849500D01*
X6588694Y14849501D01*
X6646682Y14861036D01*
X6762658Y14884104D01*
X6762661Y14884106D01*
X6762666Y14884106D01*
X6926547Y14951987D01*
X7074035Y15050536D01*
X7078645Y15055146D01*
X7086681Y15063181D01*
X7113608Y15077885D01*
X7139427Y15094477D01*
X7145627Y15095369D01*
X7148004Y15096666D01*
X7174362Y15099500D01*
X7313511Y15099500D01*
X7380550Y15079815D01*
X7414237Y15045192D01*
X7414906Y15045715D01*
X7419531Y15039811D01*
X7539811Y14919531D01*
X7539813Y14919530D01*
X7539815Y14919528D01*
X7685394Y14831522D01*
X7847804Y14780914D01*
X7918384Y14774500D01*
X7918387Y14774500D01*
X8431613Y14774500D01*
X8431616Y14774500D01*
X8502196Y14780914D01*
X8664606Y14831522D01*
X8810185Y14919528D01*
X8853193Y14962536D01*
X8912319Y15021661D01*
X8973642Y15055146D01*
X9043334Y15050162D01*
X9087681Y15021661D01*
X9189811Y14919531D01*
X9189813Y14919530D01*
X9189815Y14919528D01*
X9335394Y14831522D01*
X9497804Y14780914D01*
X9568384Y14774500D01*
X9568387Y14774500D01*
X10081613Y14774500D01*
X10081616Y14774500D01*
X10152196Y14780914D01*
X10314606Y14831522D01*
X10460185Y14919528D01*
X10580472Y15039815D01*
X10580474Y15039820D01*
X10585094Y15045715D01*
X10586117Y15044913D01*
X10631904Y15086840D01*
X10686489Y15099500D01*
X13284081Y15099500D01*
X13351120Y15079815D01*
X13396875Y15027011D01*
X13406819Y14957853D01*
X13383347Y14901189D01*
X13316649Y14812094D01*
X13316645Y14812087D01*
X13266403Y14677380D01*
X13266401Y14677373D01*
X13260000Y14617845D01*
X13260000Y14425000D01*
X13876000Y14425000D01*
X13884685Y14422450D01*
X13893647Y14423738D01*
X13917687Y14412760D01*
X13943039Y14405315D01*
X13948966Y14398475D01*
X13957203Y14394713D01*
X13971492Y14372479D01*
X13988794Y14352511D01*
X13991081Y14341997D01*
X13994977Y14335935D01*
X14000000Y14301000D01*
X14000000Y14069000D01*
X13980315Y14001961D01*
X13927511Y13956206D01*
X13876000Y13945000D01*
X13260000Y13945000D01*
X13260000Y13752156D01*
X13266401Y13692628D01*
X13266403Y13692621D01*
X13316645Y13557914D01*
X13316649Y13557907D01*
X13402809Y13442813D01*
X13402812Y13442810D01*
X13525011Y13351331D01*
X13523365Y13349134D01*
X13562782Y13309724D01*
X13577640Y13241453D01*
X13553229Y13175986D01*
X13523766Y13150452D01*
X13524769Y13149112D01*
X13402456Y13057548D01*
X13402455Y13057547D01*
X13402454Y13057546D01*
X13325153Y12954285D01*
X13322087Y12950189D01*
X13266153Y12908318D01*
X13222820Y12900500D01*
X10686489Y12900500D01*
X10619450Y12920185D01*
X10585762Y12954809D01*
X10585094Y12954285D01*
X10580468Y12960190D01*
X10460188Y13080470D01*
X10371379Y13134157D01*
X10314606Y13168478D01*
X10152196Y13219086D01*
X10152194Y13219087D01*
X10152192Y13219087D01*
X10102778Y13223577D01*
X10081616Y13225500D01*
X9568384Y13225500D01*
X9549145Y13223752D01*
X9497807Y13219087D01*
X9335393Y13168478D01*
X9189811Y13080470D01*
X9189810Y13080469D01*
X9087681Y12978339D01*
X9026358Y12944854D01*
X8956666Y12949838D01*
X8912319Y12978339D01*
X8810188Y13080470D01*
X8721379Y13134157D01*
X8664606Y13168478D01*
X8502196Y13219086D01*
X8502194Y13219087D01*
X8502192Y13219087D01*
X8452778Y13223577D01*
X8431616Y13225500D01*
X7918384Y13225500D01*
X7899145Y13223752D01*
X7847807Y13219087D01*
X7685393Y13168478D01*
X7539811Y13080470D01*
X7419531Y12960190D01*
X7414906Y12954285D01*
X7413882Y12955088D01*
X7411692Y12953083D01*
X7407224Y12943297D01*
X7386374Y12929898D01*
X7368096Y12913160D01*
X7355943Y12910342D01*
X7348446Y12905523D01*
X7313511Y12900500D01*
X7174362Y12900500D01*
X7107323Y12920185D01*
X7086681Y12936819D01*
X7074038Y12949462D01*
X7074034Y12949465D01*
X6926553Y13048010D01*
X6926540Y13048017D01*
X6762667Y13115894D01*
X6762658Y13115897D01*
X6588694Y13150500D01*
X6588691Y13150500D01*
X6411309Y13150500D01*
X6411306Y13150500D01*
X6237341Y13115897D01*
X6237332Y13115894D01*
X6073459Y13048017D01*
X6073446Y13048010D01*
X5925965Y12949465D01*
X5925961Y12949462D01*
X5800538Y12824039D01*
X5800535Y12824035D01*
X5701990Y12676554D01*
X5701983Y12676541D01*
X5634106Y12512668D01*
X5634103Y12512659D01*
X5599500Y12338696D01*
X5599500Y12161305D01*
X5634103Y11987342D01*
X5634106Y11987333D01*
X5701983Y11823460D01*
X5701990Y11823447D01*
X5800535Y11675966D01*
X5800538Y11675962D01*
X5925961Y11550539D01*
X5925965Y11550536D01*
X6073446Y11451991D01*
X6073459Y11451984D01*
X6171659Y11411309D01*
X6237334Y11384106D01*
X6237336Y11384106D01*
X6237341Y11384104D01*
X6411304Y11349501D01*
X6411307Y11349500D01*
X6411309Y11349500D01*
X6588693Y11349500D01*
X6588694Y11349501D01*
X6646682Y11361036D01*
X6762658Y11384104D01*
X6762661Y11384106D01*
X6762666Y11384106D01*
X6926547Y11451987D01*
X7074035Y11550536D01*
X7078645Y11555146D01*
X7086681Y11563181D01*
X7113608Y11577885D01*
X7139427Y11594477D01*
X7145627Y11595369D01*
X7148004Y11596666D01*
X7174362Y11599500D01*
X7313511Y11599500D01*
X7380550Y11579815D01*
X7414237Y11545192D01*
X7414906Y11545715D01*
X7419531Y11539811D01*
X7539811Y11419531D01*
X7539813Y11419530D01*
X7539815Y11419528D01*
X7685394Y11331522D01*
X7847804Y11280914D01*
X7918384Y11274500D01*
X7918387Y11274500D01*
X8431613Y11274500D01*
X8431616Y11274500D01*
X8502196Y11280914D01*
X8664606Y11331522D01*
X8810185Y11419528D01*
X8848510Y11457853D01*
X8912319Y11521661D01*
X8973642Y11555146D01*
X9043334Y11550162D01*
X9087681Y11521661D01*
X9189811Y11419531D01*
X9189813Y11419530D01*
X9189815Y11419528D01*
X9335394Y11331522D01*
X9497804Y11280914D01*
X9568384Y11274500D01*
X9568387Y11274500D01*
X10081613Y11274500D01*
X10081616Y11274500D01*
X10152196Y11280914D01*
X10314606Y11331522D01*
X10460185Y11419528D01*
X10580472Y11539815D01*
X10580474Y11539820D01*
X10585094Y11545715D01*
X10586117Y11544913D01*
X10631904Y11586840D01*
X10686489Y11599500D01*
X13284081Y11599500D01*
X13351120Y11579815D01*
X13396875Y11527011D01*
X13406819Y11457853D01*
X13383347Y11401189D01*
X13316649Y11312094D01*
X13316645Y11312087D01*
X13266403Y11177380D01*
X13266401Y11177373D01*
X13260000Y11117845D01*
X13260000Y10925000D01*
X13876000Y10925000D01*
X13943039Y10905315D01*
X13988794Y10852511D01*
X14000000Y10801000D01*
X14000000Y10685000D01*
X14116000Y10685000D01*
X14183039Y10665315D01*
X14228794Y10612511D01*
X14240000Y10561000D01*
X14240000Y9800000D01*
X14287828Y9800000D01*
X14287844Y9800001D01*
X14355087Y9807231D01*
X14355368Y9804617D01*
X14412462Y9801555D01*
X14469133Y9760689D01*
X14494715Y9695671D01*
X14495208Y9684619D01*
X14495208Y1815900D01*
X14475523Y1748861D01*
X14422719Y1703106D01*
X14355210Y1693400D01*
X14355196Y1693261D01*
X14354654Y1693320D01*
X14353561Y1693162D01*
X14350213Y1693797D01*
X14347484Y1694091D01*
X14347483Y1694091D01*
X14287873Y1700500D01*
X14287863Y1700500D01*
X13712129Y1700500D01*
X13712123Y1700499D01*
X13652516Y1694092D01*
X13517671Y1643798D01*
X13517664Y1643794D01*
X13402456Y1557548D01*
X13402455Y1557547D01*
X13402454Y1557546D01*
X13325153Y1454285D01*
X13322087Y1450189D01*
X13266153Y1408318D01*
X13222820Y1400500D01*
X10686489Y1400500D01*
X10619450Y1420185D01*
X10585762Y1454809D01*
X10585094Y1454285D01*
X10580468Y1460190D01*
X10460188Y1580470D01*
X10371379Y1634157D01*
X10314606Y1668478D01*
X10152196Y1719086D01*
X10152194Y1719087D01*
X10152192Y1719087D01*
X10102778Y1723577D01*
X10081616Y1725500D01*
X9568384Y1725500D01*
X9549145Y1723752D01*
X9497807Y1719087D01*
X9335393Y1668478D01*
X9189811Y1580470D01*
X9189810Y1580469D01*
X9087681Y1478339D01*
X9026358Y1444854D01*
X8956666Y1449838D01*
X8912319Y1478339D01*
X8810188Y1580470D01*
X8721379Y1634157D01*
X8664606Y1668478D01*
X8502196Y1719086D01*
X8502194Y1719087D01*
X8502192Y1719087D01*
X8452778Y1723577D01*
X8431616Y1725500D01*
X7918384Y1725500D01*
X7899145Y1723752D01*
X7847807Y1719087D01*
X7685393Y1668478D01*
X7539811Y1580470D01*
X7419531Y1460190D01*
X7414906Y1454285D01*
X7413882Y1455088D01*
X7411692Y1453083D01*
X7407224Y1443297D01*
X7386374Y1429898D01*
X7368096Y1413160D01*
X7355943Y1410342D01*
X7348446Y1405523D01*
X7313511Y1400500D01*
X7174362Y1400500D01*
X7107323Y1420185D01*
X7086681Y1436819D01*
X7074038Y1449462D01*
X7074034Y1449465D01*
X6926553Y1548010D01*
X6926540Y1548017D01*
X6762667Y1615894D01*
X6762658Y1615897D01*
X6588694Y1650500D01*
X6588691Y1650500D01*
X6411309Y1650500D01*
X6411306Y1650500D01*
X6237341Y1615897D01*
X6237332Y1615894D01*
X6073459Y1548017D01*
X6073446Y1548010D01*
X5925965Y1449465D01*
X5925961Y1449462D01*
X5800538Y1324039D01*
X5800535Y1324035D01*
X5701990Y1176554D01*
X5701983Y1176541D01*
X5634106Y1012668D01*
X5634103Y1012659D01*
X5599500Y838696D01*
X5599500Y661305D01*
X5634103Y487342D01*
X5634106Y487333D01*
X5701983Y323460D01*
X5701990Y323447D01*
X5800535Y175966D01*
X5800538Y175962D01*
X5925961Y50539D01*
X5925965Y50536D01*
X6073446Y-48009D01*
X6073459Y-48016D01*
X6196092Y-98811D01*
X6237334Y-115894D01*
X6237336Y-115894D01*
X6237341Y-115896D01*
X6411304Y-150499D01*
X6411307Y-150500D01*
X6411309Y-150500D01*
X6588693Y-150500D01*
X6588694Y-150499D01*
X6646682Y-138964D01*
X6762658Y-115896D01*
X6762661Y-115894D01*
X6762666Y-115894D01*
X6926547Y-48013D01*
X7074035Y50536D01*
X7078645Y55146D01*
X7086681Y63181D01*
X7113608Y77885D01*
X7139427Y94477D01*
X7145627Y95369D01*
X7148004Y96666D01*
X7174362Y99500D01*
X7313511Y99500D01*
X7380550Y79815D01*
X7414237Y45192D01*
X7414906Y45715D01*
X7419531Y39811D01*
X7539811Y-80469D01*
X7539813Y-80470D01*
X7539815Y-80472D01*
X7685394Y-168478D01*
X7847804Y-219086D01*
X7918384Y-225500D01*
X7918387Y-225500D01*
X8431613Y-225500D01*
X8431616Y-225500D01*
X8502196Y-219086D01*
X8664606Y-168478D01*
X8810185Y-80472D01*
X8848510Y-42147D01*
X8912319Y21661D01*
X8973642Y55146D01*
X9043334Y50162D01*
X9087681Y21661D01*
X9189811Y-80469D01*
X9189813Y-80470D01*
X9189815Y-80472D01*
X9335394Y-168478D01*
X9497804Y-219086D01*
X9568384Y-225500D01*
X9568387Y-225500D01*
X10081613Y-225500D01*
X10081616Y-225500D01*
X10152196Y-219086D01*
X10314606Y-168478D01*
X10460185Y-80472D01*
X10580472Y39815D01*
X10580474Y39820D01*
X10585094Y45715D01*
X10586117Y44913D01*
X10631904Y86840D01*
X10686489Y99500D01*
X13284081Y99500D01*
X13351120Y79815D01*
X13396875Y27011D01*
X13406819Y-42147D01*
X13383347Y-98811D01*
X13316649Y-187906D01*
X13316645Y-187913D01*
X13266403Y-322620D01*
X13266401Y-322627D01*
X13260000Y-382155D01*
X13260000Y-575000D01*
X13876000Y-575000D01*
X13884685Y-577550D01*
X13893647Y-576262D01*
X13917687Y-587240D01*
X13943039Y-594685D01*
X13948966Y-601525D01*
X13957203Y-605287D01*
X13971492Y-627521D01*
X13988794Y-647489D01*
X13991081Y-658003D01*
X13994977Y-664065D01*
X14000000Y-699000D01*
X14000000Y-931000D01*
X13980315Y-998039D01*
X13927511Y-1043794D01*
X13876000Y-1055000D01*
X13260000Y-1055000D01*
X13260000Y-1247844D01*
X13266401Y-1307372D01*
X13266403Y-1307379D01*
X13316645Y-1442086D01*
X13316649Y-1442093D01*
X13402809Y-1557187D01*
X13402812Y-1557190D01*
X13525011Y-1648669D01*
X13523365Y-1650866D01*
X13562782Y-1690276D01*
X13577640Y-1758547D01*
X13553229Y-1824014D01*
X13523766Y-1849548D01*
X13524769Y-1850888D01*
X13402456Y-1942452D01*
X13402455Y-1942453D01*
X13402454Y-1942454D01*
X13325153Y-2045715D01*
X13322087Y-2049811D01*
X13266153Y-2091682D01*
X13222820Y-2099500D01*
X10686489Y-2099500D01*
X10619450Y-2079815D01*
X10585762Y-2045191D01*
X10585094Y-2045715D01*
X10580468Y-2039810D01*
X10460188Y-1919530D01*
X10371379Y-1865843D01*
X10314606Y-1831522D01*
X10152196Y-1780914D01*
X10152194Y-1780913D01*
X10152192Y-1780913D01*
X10102778Y-1776423D01*
X10081616Y-1774500D01*
X9568384Y-1774500D01*
X9549145Y-1776248D01*
X9497807Y-1780913D01*
X9335393Y-1831522D01*
X9189811Y-1919530D01*
X9189810Y-1919531D01*
X9087681Y-2021661D01*
X9026358Y-2055146D01*
X8956666Y-2050162D01*
X8912319Y-2021661D01*
X8810188Y-1919530D01*
X8721379Y-1865843D01*
X8664606Y-1831522D01*
X8502196Y-1780914D01*
X8502194Y-1780913D01*
X8502192Y-1780913D01*
X8452778Y-1776423D01*
X8431616Y-1774500D01*
X7918384Y-1774500D01*
X7899145Y-1776248D01*
X7847807Y-1780913D01*
X7685393Y-1831522D01*
X7539811Y-1919530D01*
X7419531Y-2039810D01*
X7414906Y-2045715D01*
X7413882Y-2044912D01*
X7411692Y-2046917D01*
X7407224Y-2056703D01*
X7386374Y-2070102D01*
X7368096Y-2086840D01*
X7355943Y-2089658D01*
X7348446Y-2094477D01*
X7313511Y-2099500D01*
X7174362Y-2099500D01*
X7107323Y-2079815D01*
X7086681Y-2063181D01*
X7074038Y-2050538D01*
X7074034Y-2050535D01*
X6926553Y-1951990D01*
X6926540Y-1951983D01*
X6762667Y-1884106D01*
X6762658Y-1884103D01*
X6588694Y-1849500D01*
X6588691Y-1849500D01*
X6411309Y-1849500D01*
X6411306Y-1849500D01*
X6237341Y-1884103D01*
X6237332Y-1884106D01*
X6073459Y-1951983D01*
X6073446Y-1951990D01*
X5925965Y-2050535D01*
X5925961Y-2050538D01*
X5800538Y-2175961D01*
X5800535Y-2175965D01*
X5701990Y-2323446D01*
X5701983Y-2323459D01*
X5634106Y-2487332D01*
X5634103Y-2487341D01*
X5599500Y-2661304D01*
X5599500Y-2838695D01*
X5634103Y-3012658D01*
X5634106Y-3012667D01*
X5701983Y-3176540D01*
X5701990Y-3176553D01*
X5800535Y-3324034D01*
X5800538Y-3324038D01*
X5925961Y-3449461D01*
X5925965Y-3449464D01*
X6073446Y-3548009D01*
X6073459Y-3548016D01*
X6168378Y-3587332D01*
X6237334Y-3615894D01*
X6237336Y-3615894D01*
X6237341Y-3615896D01*
X6411304Y-3650499D01*
X6411307Y-3650500D01*
X6411309Y-3650500D01*
X6588693Y-3650500D01*
X6588694Y-3650499D01*
X6646682Y-3638964D01*
X6762658Y-3615896D01*
X6762661Y-3615894D01*
X6762666Y-3615894D01*
X6926547Y-3548013D01*
X7074035Y-3449464D01*
X7078645Y-3444854D01*
X7086681Y-3436819D01*
X7113608Y-3422115D01*
X7139427Y-3405523D01*
X7145627Y-3404631D01*
X7148004Y-3403334D01*
X7174362Y-3400500D01*
X7313511Y-3400500D01*
X7380550Y-3420185D01*
X7414237Y-3454808D01*
X7414906Y-3454285D01*
X7419531Y-3460189D01*
X7539811Y-3580469D01*
X7539813Y-3580470D01*
X7539815Y-3580472D01*
X7685394Y-3668478D01*
X7847804Y-3719086D01*
X7918384Y-3725500D01*
X7918387Y-3725500D01*
X8431613Y-3725500D01*
X8431616Y-3725500D01*
X8502196Y-3719086D01*
X8664606Y-3668478D01*
X8810185Y-3580472D01*
X8856127Y-3534530D01*
X8912319Y-3478339D01*
X8973642Y-3444854D01*
X9043334Y-3449838D01*
X9087681Y-3478339D01*
X9189811Y-3580469D01*
X9189813Y-3580470D01*
X9189815Y-3580472D01*
X9335394Y-3668478D01*
X9497804Y-3719086D01*
X9568384Y-3725500D01*
X9568387Y-3725500D01*
X10081613Y-3725500D01*
X10081616Y-3725500D01*
X10152196Y-3719086D01*
X10314606Y-3668478D01*
X10460185Y-3580472D01*
X10580472Y-3460185D01*
X10580474Y-3460180D01*
X10585094Y-3454285D01*
X10586117Y-3455087D01*
X10631904Y-3413160D01*
X10686489Y-3400500D01*
X13284081Y-3400500D01*
X13351120Y-3420185D01*
X13396875Y-3472989D01*
X13406819Y-3542147D01*
X13383347Y-3598811D01*
X13316649Y-3687906D01*
X13316645Y-3687913D01*
X13266403Y-3822620D01*
X13266401Y-3822627D01*
X13260000Y-3882155D01*
X13260000Y-4075000D01*
X13876000Y-4075000D01*
X13884685Y-4077550D01*
X13893647Y-4076262D01*
X13917687Y-4087240D01*
X13943039Y-4094685D01*
X13948966Y-4101525D01*
X13957203Y-4105287D01*
X13971492Y-4127521D01*
X13988794Y-4147489D01*
X13991081Y-4158003D01*
X13994977Y-4164065D01*
X14000000Y-4199000D01*
X14000000Y-4431000D01*
X13980315Y-4498039D01*
X13927511Y-4543794D01*
X13876000Y-4555000D01*
X13260000Y-4555000D01*
X13260000Y-4747844D01*
X13266401Y-4807372D01*
X13266403Y-4807379D01*
X13316645Y-4942086D01*
X13316649Y-4942093D01*
X13402809Y-5057187D01*
X13402812Y-5057190D01*
X13525011Y-5148669D01*
X13523365Y-5150866D01*
X13562782Y-5190276D01*
X13577640Y-5258547D01*
X13553229Y-5324014D01*
X13523766Y-5349548D01*
X13524769Y-5350888D01*
X13402456Y-5442452D01*
X13402455Y-5442453D01*
X13402454Y-5442454D01*
X13325153Y-5545715D01*
X13322087Y-5549811D01*
X13266153Y-5591682D01*
X13222820Y-5599500D01*
X10686489Y-5599500D01*
X10619450Y-5579815D01*
X10585762Y-5545191D01*
X10585094Y-5545715D01*
X10580468Y-5539810D01*
X10460188Y-5419530D01*
X10371379Y-5365843D01*
X10314606Y-5331522D01*
X10152196Y-5280914D01*
X10152194Y-5280913D01*
X10152192Y-5280913D01*
X10102778Y-5276423D01*
X10081616Y-5274500D01*
X9568384Y-5274500D01*
X9549145Y-5276248D01*
X9497807Y-5280913D01*
X9335393Y-5331522D01*
X9189811Y-5419530D01*
X9189810Y-5419531D01*
X9087681Y-5521661D01*
X9026358Y-5555146D01*
X8956666Y-5550162D01*
X8912319Y-5521661D01*
X8810188Y-5419530D01*
X8721379Y-5365843D01*
X8664606Y-5331522D01*
X8502196Y-5280914D01*
X8502194Y-5280913D01*
X8502192Y-5280913D01*
X8452778Y-5276423D01*
X8431616Y-5274500D01*
X7918384Y-5274500D01*
X7899145Y-5276248D01*
X7847807Y-5280913D01*
X7685393Y-5331522D01*
X7539811Y-5419530D01*
X7419531Y-5539810D01*
X7414906Y-5545715D01*
X7413882Y-5544912D01*
X7411692Y-5546917D01*
X7407224Y-5556703D01*
X7386374Y-5570102D01*
X7368096Y-5586840D01*
X7355943Y-5589658D01*
X7348446Y-5594477D01*
X7313511Y-5599500D01*
X7174362Y-5599500D01*
X7107323Y-5579815D01*
X7086681Y-5563181D01*
X7074038Y-5550538D01*
X7074034Y-5550535D01*
X6926553Y-5451990D01*
X6926540Y-5451983D01*
X6762667Y-5384106D01*
X6762658Y-5384103D01*
X6588694Y-5349500D01*
X6588691Y-5349500D01*
X6411309Y-5349500D01*
X6411306Y-5349500D01*
X6237341Y-5384103D01*
X6237332Y-5384106D01*
X6073459Y-5451983D01*
X6073446Y-5451990D01*
X5925965Y-5550535D01*
X5925961Y-5550538D01*
X5800538Y-5675961D01*
X5800535Y-5675965D01*
X5701990Y-5823446D01*
X5701983Y-5823459D01*
X5634106Y-5987332D01*
X5634103Y-5987341D01*
X5599500Y-6161304D01*
X5599500Y-6338695D01*
X5634103Y-6512658D01*
X5634106Y-6512667D01*
X5701983Y-6676540D01*
X5701990Y-6676553D01*
X5800535Y-6824034D01*
X5800538Y-6824038D01*
X5925961Y-6949461D01*
X5925965Y-6949464D01*
X6073446Y-7048009D01*
X6073459Y-7048016D01*
X6196092Y-7098811D01*
X6237334Y-7115894D01*
X6237336Y-7115894D01*
X6237341Y-7115896D01*
X6411304Y-7150499D01*
X6411307Y-7150500D01*
X6411309Y-7150500D01*
X6588693Y-7150500D01*
X6588694Y-7150499D01*
X6646682Y-7138964D01*
X6762658Y-7115896D01*
X6762661Y-7115894D01*
X6762666Y-7115894D01*
X6926547Y-7048013D01*
X7074035Y-6949464D01*
X7078645Y-6944854D01*
X7086681Y-6936819D01*
X7113608Y-6922115D01*
X7139427Y-6905523D01*
X7145627Y-6904631D01*
X7148004Y-6903334D01*
X7174362Y-6900500D01*
X7313511Y-6900500D01*
X7380550Y-6920185D01*
X7414237Y-6954808D01*
X7414906Y-6954285D01*
X7419531Y-6960189D01*
X7539811Y-7080469D01*
X7539813Y-7080470D01*
X7539815Y-7080472D01*
X7685394Y-7168478D01*
X7847804Y-7219086D01*
X7918384Y-7225500D01*
X7918387Y-7225500D01*
X8431613Y-7225500D01*
X8431616Y-7225500D01*
X8502196Y-7219086D01*
X8664606Y-7168478D01*
X8810185Y-7080472D01*
X8848510Y-7042147D01*
X8912319Y-6978339D01*
X8973642Y-6944854D01*
X9043334Y-6949838D01*
X9087681Y-6978339D01*
X9189811Y-7080469D01*
X9189813Y-7080470D01*
X9189815Y-7080472D01*
X9335394Y-7168478D01*
X9497804Y-7219086D01*
X9568384Y-7225500D01*
X9568387Y-7225500D01*
X10081613Y-7225500D01*
X10081616Y-7225500D01*
X10152196Y-7219086D01*
X10314606Y-7168478D01*
X10460185Y-7080472D01*
X10580472Y-6960185D01*
X10580474Y-6960180D01*
X10585094Y-6954285D01*
X10586117Y-6955087D01*
X10631904Y-6913160D01*
X10686489Y-6900500D01*
X13284081Y-6900500D01*
X13351120Y-6920185D01*
X13396875Y-6972989D01*
X13406819Y-7042147D01*
X13383347Y-7098811D01*
X13316649Y-7187906D01*
X13316645Y-7187913D01*
X13266403Y-7322620D01*
X13266401Y-7322627D01*
X13260000Y-7382155D01*
X13260000Y-7575000D01*
X13876000Y-7575000D01*
X13884685Y-7577550D01*
X13893647Y-7576262D01*
X13917687Y-7587240D01*
X13943039Y-7594685D01*
X13948966Y-7601525D01*
X13957203Y-7605287D01*
X13971492Y-7627521D01*
X13988794Y-7647489D01*
X13991081Y-7658003D01*
X13994977Y-7664065D01*
X14000000Y-7699000D01*
X14000000Y-7931000D01*
X13980315Y-7998039D01*
X13927511Y-8043794D01*
X13876000Y-8055000D01*
X13260000Y-8055000D01*
X13260000Y-8247844D01*
X13266401Y-8307372D01*
X13266403Y-8307379D01*
X13316645Y-8442086D01*
X13316649Y-8442093D01*
X13402809Y-8557187D01*
X13402812Y-8557190D01*
X13525011Y-8648669D01*
X13523365Y-8650866D01*
X13562782Y-8690276D01*
X13577640Y-8758547D01*
X13553229Y-8824014D01*
X13523766Y-8849548D01*
X13524769Y-8850888D01*
X13402456Y-8942452D01*
X13402455Y-8942453D01*
X13402454Y-8942454D01*
X13325153Y-9045715D01*
X13322087Y-9049811D01*
X13266153Y-9091682D01*
X13222820Y-9099500D01*
X10686489Y-9099500D01*
X10619450Y-9079815D01*
X10585762Y-9045191D01*
X10585094Y-9045715D01*
X10580468Y-9039810D01*
X10460188Y-8919530D01*
X10371379Y-8865843D01*
X10314606Y-8831522D01*
X10152196Y-8780914D01*
X10152194Y-8780913D01*
X10152192Y-8780913D01*
X10102778Y-8776423D01*
X10081616Y-8774500D01*
X9568384Y-8774500D01*
X9549145Y-8776248D01*
X9497807Y-8780913D01*
X9335393Y-8831522D01*
X9189811Y-8919530D01*
X9189810Y-8919531D01*
X9087681Y-9021661D01*
X9026358Y-9055146D01*
X8956666Y-9050162D01*
X8912319Y-9021661D01*
X8810188Y-8919530D01*
X8721379Y-8865843D01*
X8664606Y-8831522D01*
X8502196Y-8780914D01*
X8502194Y-8780913D01*
X8502192Y-8780913D01*
X8452778Y-8776423D01*
X8431616Y-8774500D01*
X7918384Y-8774500D01*
X7899145Y-8776248D01*
X7847807Y-8780913D01*
X7685393Y-8831522D01*
X7539811Y-8919530D01*
X7419531Y-9039810D01*
X7414906Y-9045715D01*
X7413882Y-9044912D01*
X7411692Y-9046917D01*
X7407224Y-9056703D01*
X7386374Y-9070102D01*
X7368096Y-9086840D01*
X7355943Y-9089658D01*
X7348446Y-9094477D01*
X7313511Y-9099500D01*
X7174362Y-9099500D01*
X7107323Y-9079815D01*
X7086681Y-9063181D01*
X7074038Y-9050538D01*
X7074034Y-9050535D01*
X6926553Y-8951990D01*
X6926540Y-8951983D01*
X6762667Y-8884106D01*
X6762658Y-8884103D01*
X6588694Y-8849500D01*
X6588691Y-8849500D01*
X6411309Y-8849500D01*
X6411306Y-8849500D01*
X6237341Y-8884103D01*
X6237332Y-8884106D01*
X6073459Y-8951983D01*
X6073446Y-8951990D01*
X5925965Y-9050535D01*
X5925961Y-9050538D01*
X5800538Y-9175961D01*
X5800535Y-9175965D01*
X5701990Y-9323446D01*
X5701983Y-9323459D01*
X5634106Y-9487332D01*
X5634103Y-9487341D01*
X5599500Y-9661304D01*
X5599500Y-9838695D01*
X5634103Y-10012658D01*
X5634106Y-10012667D01*
X5701983Y-10176540D01*
X5701990Y-10176553D01*
X5800535Y-10324034D01*
X5800538Y-10324038D01*
X5925961Y-10449461D01*
X5925965Y-10449464D01*
X6073446Y-10548009D01*
X6073459Y-10548016D01*
X6171659Y-10588691D01*
X6237334Y-10615894D01*
X6237336Y-10615894D01*
X6237341Y-10615896D01*
X6411304Y-10650499D01*
X6411307Y-10650500D01*
X6411309Y-10650500D01*
X6588693Y-10650500D01*
X6588694Y-10650499D01*
X6671124Y-10634103D01*
X6762658Y-10615896D01*
X6762661Y-10615894D01*
X6762666Y-10615894D01*
X6926547Y-10548013D01*
X7074035Y-10449464D01*
X7078645Y-10444854D01*
X7086681Y-10436819D01*
X7113608Y-10422115D01*
X7139427Y-10405523D01*
X7145627Y-10404631D01*
X7148004Y-10403334D01*
X7174362Y-10400500D01*
X7313511Y-10400500D01*
X7380550Y-10420185D01*
X7414237Y-10454808D01*
X7414906Y-10454285D01*
X7419531Y-10460189D01*
X7539811Y-10580469D01*
X7539813Y-10580470D01*
X7539815Y-10580472D01*
X7685394Y-10668478D01*
X7847804Y-10719086D01*
X7918384Y-10725500D01*
X7918387Y-10725500D01*
X8431613Y-10725500D01*
X8431616Y-10725500D01*
X8502196Y-10719086D01*
X8664606Y-10668478D01*
X8810185Y-10580472D01*
X8848510Y-10542147D01*
X8912319Y-10478339D01*
X8973642Y-10444854D01*
X9043334Y-10449838D01*
X9087681Y-10478339D01*
X9189811Y-10580469D01*
X9189813Y-10580470D01*
X9189815Y-10580472D01*
X9335394Y-10668478D01*
X9497804Y-10719086D01*
X9568384Y-10725500D01*
X9568387Y-10725500D01*
X10081613Y-10725500D01*
X10081616Y-10725500D01*
X10152196Y-10719086D01*
X10314606Y-10668478D01*
X10460185Y-10580472D01*
X10580472Y-10460185D01*
X10580474Y-10460180D01*
X10585094Y-10454285D01*
X10586117Y-10455087D01*
X10631904Y-10413160D01*
X10686489Y-10400500D01*
X13284081Y-10400500D01*
X13351120Y-10420185D01*
X13396875Y-10472989D01*
X13406819Y-10542147D01*
X13383347Y-10598811D01*
X13316649Y-10687906D01*
X13316645Y-10687913D01*
X13266403Y-10822620D01*
X13266401Y-10822627D01*
X13260000Y-10882155D01*
X13260000Y-11075000D01*
X13876000Y-11075000D01*
X13884685Y-11077550D01*
X13893647Y-11076262D01*
X13917687Y-11087240D01*
X13943039Y-11094685D01*
X13948966Y-11101525D01*
X13957203Y-11105287D01*
X13971492Y-11127521D01*
X13988794Y-11147489D01*
X13991081Y-11158003D01*
X13994977Y-11164065D01*
X14000000Y-11199000D01*
X14000000Y-11431000D01*
X13980315Y-11498039D01*
X13927511Y-11543794D01*
X13876000Y-11555000D01*
X13260000Y-11555000D01*
X13260000Y-11747844D01*
X13266401Y-11807372D01*
X13266403Y-11807379D01*
X13316645Y-11942086D01*
X13316649Y-11942093D01*
X13402809Y-12057187D01*
X13402812Y-12057190D01*
X13525011Y-12148669D01*
X13523365Y-12150866D01*
X13562782Y-12190276D01*
X13577640Y-12258547D01*
X13553229Y-12324014D01*
X13523766Y-12349548D01*
X13524769Y-12350888D01*
X13402456Y-12442452D01*
X13402455Y-12442453D01*
X13402454Y-12442454D01*
X13325153Y-12545715D01*
X13322087Y-12549811D01*
X13266153Y-12591682D01*
X13222820Y-12599500D01*
X10686489Y-12599500D01*
X10619450Y-12579815D01*
X10585762Y-12545191D01*
X10585094Y-12545715D01*
X10580468Y-12539810D01*
X10460188Y-12419530D01*
X10371379Y-12365843D01*
X10314606Y-12331522D01*
X10152196Y-12280914D01*
X10152194Y-12280913D01*
X10152192Y-12280913D01*
X10102778Y-12276423D01*
X10081616Y-12274500D01*
X9568384Y-12274500D01*
X9549145Y-12276248D01*
X9497807Y-12280913D01*
X9335393Y-12331522D01*
X9189811Y-12419530D01*
X9189810Y-12419531D01*
X9087681Y-12521661D01*
X9026358Y-12555146D01*
X8956666Y-12550162D01*
X8912319Y-12521661D01*
X8810188Y-12419530D01*
X8721379Y-12365843D01*
X8664606Y-12331522D01*
X8502196Y-12280914D01*
X8502194Y-12280913D01*
X8502192Y-12280913D01*
X8452778Y-12276423D01*
X8431616Y-12274500D01*
X7918384Y-12274500D01*
X7899145Y-12276248D01*
X7847807Y-12280913D01*
X7685393Y-12331522D01*
X7539811Y-12419530D01*
X7419531Y-12539810D01*
X7414906Y-12545715D01*
X7413882Y-12544912D01*
X7411692Y-12546917D01*
X7407224Y-12556703D01*
X7386374Y-12570102D01*
X7368096Y-12586840D01*
X7355943Y-12589658D01*
X7348446Y-12594477D01*
X7313511Y-12599500D01*
X7174362Y-12599500D01*
X7107323Y-12579815D01*
X7086681Y-12563181D01*
X7074038Y-12550538D01*
X7074034Y-12550535D01*
X6926553Y-12451990D01*
X6926540Y-12451983D01*
X6762667Y-12384106D01*
X6762658Y-12384103D01*
X6588694Y-12349500D01*
X6588691Y-12349500D01*
X6411309Y-12349500D01*
X6411306Y-12349500D01*
X6237341Y-12384103D01*
X6237332Y-12384106D01*
X6073459Y-12451983D01*
X6073446Y-12451990D01*
X5925965Y-12550535D01*
X5925961Y-12550538D01*
X5800538Y-12675961D01*
X5800535Y-12675965D01*
X5701990Y-12823446D01*
X5701983Y-12823459D01*
X5634106Y-12987332D01*
X5634103Y-12987341D01*
X5599500Y-13161304D01*
X5599500Y-13338695D01*
X5634103Y-13512658D01*
X5634106Y-13512667D01*
X5701983Y-13676540D01*
X5701990Y-13676553D01*
X5800535Y-13824034D01*
X5800538Y-13824038D01*
X5925961Y-13949461D01*
X5925965Y-13949464D01*
X6073446Y-14048009D01*
X6073459Y-14048016D01*
X6196092Y-14098811D01*
X6237334Y-14115894D01*
X6237336Y-14115894D01*
X6237341Y-14115896D01*
X6411304Y-14150499D01*
X6411307Y-14150500D01*
X6411309Y-14150500D01*
X6588693Y-14150500D01*
X6588694Y-14150499D01*
X6668540Y-14134617D01*
X6762658Y-14115896D01*
X6762661Y-14115894D01*
X6762666Y-14115894D01*
X6926547Y-14048013D01*
X7074035Y-13949464D01*
X7078645Y-13944854D01*
X7086681Y-13936819D01*
X7113608Y-13922115D01*
X7139427Y-13905523D01*
X7145627Y-13904631D01*
X7148004Y-13903334D01*
X7174362Y-13900500D01*
X7313511Y-13900500D01*
X7380550Y-13920185D01*
X7414237Y-13954808D01*
X7414906Y-13954285D01*
X7419531Y-13960189D01*
X7539811Y-14080469D01*
X7539813Y-14080470D01*
X7539815Y-14080472D01*
X7685394Y-14168478D01*
X7847804Y-14219086D01*
X7918384Y-14225500D01*
X7918387Y-14225500D01*
X8431613Y-14225500D01*
X8431616Y-14225500D01*
X8502196Y-14219086D01*
X8664606Y-14168478D01*
X8810185Y-14080472D01*
X8848510Y-14042147D01*
X8912319Y-13978339D01*
X8973642Y-13944854D01*
X9043334Y-13949838D01*
X9087681Y-13978339D01*
X9189811Y-14080469D01*
X9189813Y-14080470D01*
X9189815Y-14080472D01*
X9335394Y-14168478D01*
X9497804Y-14219086D01*
X9568384Y-14225500D01*
X9568387Y-14225500D01*
X10081613Y-14225500D01*
X10081616Y-14225500D01*
X10152196Y-14219086D01*
X10314606Y-14168478D01*
X10460185Y-14080472D01*
X10580472Y-13960185D01*
X10580474Y-13960180D01*
X10585094Y-13954285D01*
X10586117Y-13955087D01*
X10631904Y-13913160D01*
X10686489Y-13900500D01*
X13284081Y-13900500D01*
X13351120Y-13920185D01*
X13396875Y-13972989D01*
X13406819Y-14042147D01*
X13383347Y-14098811D01*
X13316649Y-14187906D01*
X13316645Y-14187913D01*
X13266403Y-14322620D01*
X13266401Y-14322627D01*
X13260000Y-14382155D01*
X13260000Y-14575000D01*
X13876000Y-14575000D01*
X13884685Y-14577550D01*
X13893647Y-14576262D01*
X13917687Y-14587240D01*
X13943039Y-14594685D01*
X13948966Y-14601525D01*
X13957203Y-14605287D01*
X13971492Y-14627521D01*
X13988794Y-14647489D01*
X13991081Y-14658003D01*
X13994977Y-14664065D01*
X14000000Y-14699000D01*
X14000000Y-14931000D01*
X13980315Y-14998039D01*
X13927511Y-15043794D01*
X13876000Y-15055000D01*
X13260000Y-15055000D01*
X13260000Y-15247844D01*
X13266401Y-15307372D01*
X13266403Y-15307379D01*
X13316645Y-15442086D01*
X13316649Y-15442093D01*
X13402809Y-15557187D01*
X13402812Y-15557190D01*
X13525011Y-15648669D01*
X13523365Y-15650866D01*
X13562782Y-15690276D01*
X13577640Y-15758547D01*
X13553229Y-15824014D01*
X13523766Y-15849548D01*
X13524769Y-15850888D01*
X13402456Y-15942452D01*
X13402455Y-15942453D01*
X13402454Y-15942454D01*
X13325153Y-16045715D01*
X13322087Y-16049811D01*
X13266153Y-16091682D01*
X13222820Y-16099500D01*
X10686489Y-16099500D01*
X10619450Y-16079815D01*
X10585762Y-16045191D01*
X10585094Y-16045715D01*
X10580468Y-16039810D01*
X10460188Y-15919530D01*
X10371379Y-15865843D01*
X10314606Y-15831522D01*
X10152196Y-15780914D01*
X10152194Y-15780913D01*
X10152192Y-15780913D01*
X10102778Y-15776423D01*
X10081616Y-15774500D01*
X9568384Y-15774500D01*
X9549145Y-15776248D01*
X9497807Y-15780913D01*
X9335393Y-15831522D01*
X9189811Y-15919530D01*
X9189810Y-15919531D01*
X9087681Y-16021661D01*
X9026358Y-16055146D01*
X8956666Y-16050162D01*
X8912319Y-16021661D01*
X8810188Y-15919530D01*
X8721379Y-15865843D01*
X8664606Y-15831522D01*
X8502196Y-15780914D01*
X8502194Y-15780913D01*
X8502192Y-15780913D01*
X8452778Y-15776423D01*
X8431616Y-15774500D01*
X7918384Y-15774500D01*
X7899145Y-15776248D01*
X7847807Y-15780913D01*
X7685393Y-15831522D01*
X7539811Y-15919530D01*
X7419531Y-16039810D01*
X7414906Y-16045715D01*
X7413882Y-16044912D01*
X7411692Y-16046917D01*
X7407224Y-16056703D01*
X7386374Y-16070102D01*
X7368096Y-16086840D01*
X7355943Y-16089658D01*
X7348446Y-16094477D01*
X7313511Y-16099500D01*
X7174362Y-16099500D01*
X7107323Y-16079815D01*
X7086681Y-16063181D01*
X7074038Y-16050538D01*
X7074034Y-16050535D01*
X6926553Y-15951990D01*
X6926540Y-15951983D01*
X6762667Y-15884106D01*
X6762658Y-15884103D01*
X6588694Y-15849500D01*
X6588691Y-15849500D01*
X6411309Y-15849500D01*
X6411306Y-15849500D01*
X6237341Y-15884103D01*
X6237332Y-15884106D01*
X6073459Y-15951983D01*
X6073446Y-15951990D01*
X5925965Y-16050535D01*
X5925961Y-16050538D01*
X5800538Y-16175961D01*
X5800535Y-16175965D01*
X5701990Y-16323446D01*
X5701983Y-16323459D01*
X5634106Y-16487332D01*
X5634103Y-16487341D01*
X5599500Y-16661304D01*
X5599500Y-16838695D01*
X5634103Y-17012658D01*
X5634106Y-17012667D01*
X5701983Y-17176540D01*
X5701990Y-17176553D01*
X5800535Y-17324034D01*
X5800538Y-17324038D01*
X5925961Y-17449461D01*
X5925965Y-17449464D01*
X6073446Y-17548009D01*
X6073459Y-17548016D01*
X6196092Y-17598811D01*
X6237334Y-17615894D01*
X6237336Y-17615894D01*
X6237341Y-17615896D01*
X6411304Y-17650499D01*
X6411307Y-17650500D01*
X6411309Y-17650500D01*
X6588693Y-17650500D01*
X6588694Y-17650499D01*
X6646682Y-17638964D01*
X6762658Y-17615896D01*
X6762661Y-17615894D01*
X6762666Y-17615894D01*
X6926547Y-17548013D01*
X7074035Y-17449464D01*
X7078645Y-17444854D01*
X7086681Y-17436819D01*
X7113608Y-17422115D01*
X7139427Y-17405523D01*
X7145627Y-17404631D01*
X7148004Y-17403334D01*
X7174362Y-17400500D01*
X7313511Y-17400500D01*
X7380550Y-17420185D01*
X7414237Y-17454808D01*
X7414906Y-17454285D01*
X7419531Y-17460189D01*
X7539811Y-17580469D01*
X7539813Y-17580470D01*
X7539815Y-17580472D01*
X7685394Y-17668478D01*
X7847804Y-17719086D01*
X7918384Y-17725500D01*
X7918387Y-17725500D01*
X8431613Y-17725500D01*
X8431616Y-17725500D01*
X8502196Y-17719086D01*
X8664606Y-17668478D01*
X8810185Y-17580472D01*
X8848510Y-17542147D01*
X8912319Y-17478339D01*
X8973642Y-17444854D01*
X9043334Y-17449838D01*
X9087681Y-17478339D01*
X9189811Y-17580469D01*
X9189813Y-17580470D01*
X9189815Y-17580472D01*
X9335394Y-17668478D01*
X9497804Y-17719086D01*
X9568384Y-17725500D01*
X9568387Y-17725500D01*
X10081613Y-17725500D01*
X10081616Y-17725500D01*
X10152196Y-17719086D01*
X10314606Y-17668478D01*
X10460185Y-17580472D01*
X10580472Y-17460185D01*
X10580474Y-17460180D01*
X10585094Y-17454285D01*
X10586117Y-17455087D01*
X10631904Y-17413160D01*
X10686489Y-17400500D01*
X13284081Y-17400500D01*
X13351120Y-17420185D01*
X13396875Y-17472989D01*
X13406819Y-17542147D01*
X13383347Y-17598811D01*
X13316649Y-17687906D01*
X13316645Y-17687913D01*
X13266403Y-17822620D01*
X13266401Y-17822627D01*
X13260000Y-17882155D01*
X13260000Y-18075000D01*
X13876000Y-18075000D01*
X13884685Y-18077550D01*
X13893647Y-18076262D01*
X13917687Y-18087240D01*
X13943039Y-18094685D01*
X13948966Y-18101525D01*
X13957203Y-18105287D01*
X13971492Y-18127521D01*
X13988794Y-18147489D01*
X13991081Y-18158003D01*
X13994977Y-18164065D01*
X14000000Y-18199000D01*
X14000000Y-18431000D01*
X13980315Y-18498039D01*
X13927511Y-18543794D01*
X13876000Y-18555000D01*
X13260000Y-18555000D01*
X13260000Y-18747844D01*
X13266401Y-18807372D01*
X13266403Y-18807379D01*
X13316645Y-18942086D01*
X13316649Y-18942093D01*
X13402809Y-19057187D01*
X13402812Y-19057190D01*
X13525011Y-19148669D01*
X13523365Y-19150866D01*
X13562782Y-19190276D01*
X13577640Y-19258547D01*
X13553229Y-19324014D01*
X13523766Y-19349548D01*
X13524769Y-19350888D01*
X13402456Y-19442452D01*
X13402455Y-19442453D01*
X13402454Y-19442454D01*
X13325153Y-19545715D01*
X13322087Y-19549811D01*
X13266153Y-19591682D01*
X13222820Y-19599500D01*
X10686489Y-19599500D01*
X10619450Y-19579815D01*
X10585762Y-19545191D01*
X10585094Y-19545715D01*
X10580468Y-19539810D01*
X10460188Y-19419530D01*
X10371379Y-19365843D01*
X10314606Y-19331522D01*
X10152196Y-19280914D01*
X10152194Y-19280913D01*
X10152192Y-19280913D01*
X10102778Y-19276423D01*
X10081616Y-19274500D01*
X9568384Y-19274500D01*
X9549145Y-19276248D01*
X9497807Y-19280913D01*
X9335393Y-19331522D01*
X9189811Y-19419530D01*
X9189810Y-19419531D01*
X9087681Y-19521661D01*
X9026358Y-19555146D01*
X8956666Y-19550162D01*
X8912319Y-19521661D01*
X8810188Y-19419530D01*
X8721379Y-19365843D01*
X8664606Y-19331522D01*
X8502196Y-19280914D01*
X8502194Y-19280913D01*
X8502192Y-19280913D01*
X8452778Y-19276423D01*
X8431616Y-19274500D01*
X7918384Y-19274500D01*
X7899145Y-19276248D01*
X7847807Y-19280913D01*
X7685393Y-19331522D01*
X7539811Y-19419530D01*
X7419531Y-19539810D01*
X7414906Y-19545715D01*
X7413882Y-19544912D01*
X7411692Y-19546917D01*
X7407224Y-19556703D01*
X7386374Y-19570102D01*
X7368096Y-19586840D01*
X7355943Y-19589658D01*
X7348446Y-19594477D01*
X7313511Y-19599500D01*
X7174362Y-19599500D01*
X7107323Y-19579815D01*
X7086681Y-19563181D01*
X7074038Y-19550538D01*
X7074034Y-19550535D01*
X6926553Y-19451990D01*
X6926540Y-19451983D01*
X6762667Y-19384106D01*
X6762658Y-19384103D01*
X6588694Y-19349500D01*
X6588691Y-19349500D01*
X6411309Y-19349500D01*
X6411306Y-19349500D01*
X6237341Y-19384103D01*
X6237332Y-19384106D01*
X6073459Y-19451983D01*
X6073446Y-19451990D01*
X5925965Y-19550535D01*
X5925961Y-19550538D01*
X5800538Y-19675961D01*
X5800535Y-19675965D01*
X5701990Y-19823446D01*
X5701983Y-19823459D01*
X5634106Y-19987332D01*
X5634103Y-19987341D01*
X5599500Y-20161304D01*
X5599500Y-20338695D01*
X5634103Y-20512658D01*
X5634106Y-20512667D01*
X5701983Y-20676540D01*
X5701990Y-20676553D01*
X5800535Y-20824034D01*
X5800538Y-20824038D01*
X5925961Y-20949461D01*
X5925965Y-20949464D01*
X6073446Y-21048009D01*
X6073459Y-21048016D01*
X6196092Y-21098811D01*
X6237334Y-21115894D01*
X6237336Y-21115894D01*
X6237341Y-21115896D01*
X6411304Y-21150499D01*
X6411307Y-21150500D01*
X6411309Y-21150500D01*
X6588693Y-21150500D01*
X6588694Y-21150499D01*
X6646682Y-21138964D01*
X6762658Y-21115896D01*
X6762661Y-21115894D01*
X6762666Y-21115894D01*
X6926547Y-21048013D01*
X7074035Y-20949464D01*
X7078645Y-20944854D01*
X7086681Y-20936819D01*
X7113608Y-20922115D01*
X7139427Y-20905523D01*
X7145627Y-20904631D01*
X7148004Y-20903334D01*
X7174362Y-20900500D01*
X7313511Y-20900500D01*
X7380550Y-20920185D01*
X7414237Y-20954808D01*
X7414906Y-20954285D01*
X7419531Y-20960189D01*
X7539811Y-21080469D01*
X7539813Y-21080470D01*
X7539815Y-21080472D01*
X7685394Y-21168478D01*
X7847804Y-21219086D01*
X7918384Y-21225500D01*
X7918387Y-21225500D01*
X8431613Y-21225500D01*
X8431616Y-21225500D01*
X8502196Y-21219086D01*
X8664606Y-21168478D01*
X8810185Y-21080472D01*
X8848510Y-21042147D01*
X8912319Y-20978339D01*
X8973642Y-20944854D01*
X9043334Y-20949838D01*
X9087681Y-20978339D01*
X9189811Y-21080469D01*
X9189813Y-21080470D01*
X9189815Y-21080472D01*
X9335394Y-21168478D01*
X9497804Y-21219086D01*
X9568384Y-21225500D01*
X9568387Y-21225500D01*
X10081613Y-21225500D01*
X10081616Y-21225500D01*
X10152196Y-21219086D01*
X10314606Y-21168478D01*
X10460185Y-21080472D01*
X10580472Y-20960185D01*
X10580474Y-20960180D01*
X10585094Y-20954285D01*
X10586117Y-20955087D01*
X10631904Y-20913160D01*
X10686489Y-20900500D01*
X13284081Y-20900500D01*
X13351120Y-20920185D01*
X13396875Y-20972989D01*
X13406819Y-21042147D01*
X13383347Y-21098811D01*
X13316649Y-21187906D01*
X13316645Y-21187913D01*
X13266403Y-21322620D01*
X13266401Y-21322627D01*
X13260000Y-21382155D01*
X13260000Y-21575000D01*
X13876000Y-21575000D01*
X13884685Y-21577550D01*
X13893647Y-21576262D01*
X13917687Y-21587240D01*
X13943039Y-21594685D01*
X13948966Y-21601525D01*
X13957203Y-21605287D01*
X13971492Y-21627521D01*
X13988794Y-21647489D01*
X13991081Y-21658003D01*
X13994977Y-21664065D01*
X14000000Y-21699000D01*
X14000000Y-21931000D01*
X13980315Y-21998039D01*
X13927511Y-22043794D01*
X13876000Y-22055000D01*
X13260000Y-22055000D01*
X13260000Y-22247844D01*
X13266401Y-22307372D01*
X13266403Y-22307379D01*
X13316645Y-22442086D01*
X13316649Y-22442093D01*
X13402809Y-22557187D01*
X13402812Y-22557190D01*
X13525011Y-22648669D01*
X13523365Y-22650866D01*
X13562782Y-22690276D01*
X13577640Y-22758547D01*
X13553229Y-22824014D01*
X13523766Y-22849548D01*
X13524769Y-22850888D01*
X13402456Y-22942452D01*
X13402455Y-22942453D01*
X13402454Y-22942454D01*
X13325153Y-23045715D01*
X13322087Y-23049811D01*
X13266153Y-23091682D01*
X13222820Y-23099500D01*
X10686489Y-23099500D01*
X10619450Y-23079815D01*
X10585762Y-23045191D01*
X10585094Y-23045715D01*
X10580468Y-23039810D01*
X10460188Y-22919530D01*
X10371379Y-22865843D01*
X10314606Y-22831522D01*
X10152196Y-22780914D01*
X10152194Y-22780913D01*
X10152192Y-22780913D01*
X10102778Y-22776423D01*
X10081616Y-22774500D01*
X9568384Y-22774500D01*
X9549145Y-22776248D01*
X9497807Y-22780913D01*
X9335393Y-22831522D01*
X9189811Y-22919530D01*
X9189810Y-22919531D01*
X9087681Y-23021661D01*
X9026358Y-23055146D01*
X8956666Y-23050162D01*
X8912319Y-23021661D01*
X8810188Y-22919530D01*
X8721379Y-22865843D01*
X8664606Y-22831522D01*
X8502196Y-22780914D01*
X8502194Y-22780913D01*
X8502192Y-22780913D01*
X8452778Y-22776423D01*
X8431616Y-22774500D01*
X7918384Y-22774500D01*
X7899145Y-22776248D01*
X7847807Y-22780913D01*
X7685393Y-22831522D01*
X7539811Y-22919530D01*
X7419531Y-23039810D01*
X7414906Y-23045715D01*
X7413882Y-23044912D01*
X7411692Y-23046917D01*
X7407224Y-23056703D01*
X7386374Y-23070102D01*
X7368096Y-23086840D01*
X7355943Y-23089658D01*
X7348446Y-23094477D01*
X7313511Y-23099500D01*
X7174362Y-23099500D01*
X7107323Y-23079815D01*
X7086681Y-23063181D01*
X7074038Y-23050538D01*
X7074034Y-23050535D01*
X6926553Y-22951990D01*
X6926540Y-22951983D01*
X6762667Y-22884106D01*
X6762658Y-22884103D01*
X6588694Y-22849500D01*
X6588691Y-22849500D01*
X6411309Y-22849500D01*
X6411306Y-22849500D01*
X6237341Y-22884103D01*
X6237332Y-22884106D01*
X6073459Y-22951983D01*
X6073446Y-22951990D01*
X5925965Y-23050535D01*
X5925961Y-23050538D01*
X5800538Y-23175961D01*
X5800535Y-23175965D01*
X5701990Y-23323446D01*
X5701983Y-23323459D01*
X5634106Y-23487332D01*
X5634103Y-23487341D01*
X5599500Y-23661304D01*
X5599500Y-23838695D01*
X5634103Y-24012658D01*
X5634106Y-24012667D01*
X5701983Y-24176540D01*
X5701990Y-24176553D01*
X5800535Y-24324034D01*
X5800538Y-24324038D01*
X5925961Y-24449461D01*
X5925965Y-24449464D01*
X6073446Y-24548009D01*
X6073459Y-24548016D01*
X6196092Y-24598811D01*
X6237334Y-24615894D01*
X6237336Y-24615894D01*
X6237341Y-24615896D01*
X6411304Y-24650499D01*
X6411307Y-24650500D01*
X6411309Y-24650500D01*
X6588693Y-24650500D01*
X6588694Y-24650499D01*
X6671124Y-24634103D01*
X6762658Y-24615896D01*
X6762661Y-24615894D01*
X6762666Y-24615894D01*
X6926547Y-24548013D01*
X7074035Y-24449464D01*
X7078645Y-24444854D01*
X7086681Y-24436819D01*
X7113608Y-24422115D01*
X7139427Y-24405523D01*
X7145627Y-24404631D01*
X7148004Y-24403334D01*
X7174362Y-24400500D01*
X7313511Y-24400500D01*
X7380550Y-24420185D01*
X7414237Y-24454808D01*
X7414906Y-24454285D01*
X7419531Y-24460189D01*
X7539811Y-24580469D01*
X7539813Y-24580470D01*
X7539815Y-24580472D01*
X7685394Y-24668478D01*
X7847804Y-24719086D01*
X7918384Y-24725500D01*
X7918387Y-24725500D01*
X8431613Y-24725500D01*
X8431616Y-24725500D01*
X8502196Y-24719086D01*
X8664606Y-24668478D01*
X8810185Y-24580472D01*
X8848510Y-24542147D01*
X8912319Y-24478339D01*
X8973642Y-24444854D01*
X9043334Y-24449838D01*
X9087681Y-24478339D01*
X9189811Y-24580469D01*
X9189813Y-24580470D01*
X9189815Y-24580472D01*
X9335394Y-24668478D01*
X9497804Y-24719086D01*
X9568384Y-24725500D01*
X9568387Y-24725500D01*
X10081613Y-24725500D01*
X10081616Y-24725500D01*
X10152196Y-24719086D01*
X10314606Y-24668478D01*
X10460185Y-24580472D01*
X10580472Y-24460185D01*
X10580474Y-24460180D01*
X10585094Y-24454285D01*
X10586117Y-24455087D01*
X10631904Y-24413160D01*
X10686489Y-24400500D01*
X13284081Y-24400500D01*
X13351120Y-24420185D01*
X13396875Y-24472989D01*
X13406819Y-24542147D01*
X13383347Y-24598811D01*
X13316649Y-24687906D01*
X13316645Y-24687913D01*
X13266403Y-24822620D01*
X13266401Y-24822627D01*
X13260000Y-24882155D01*
X13260000Y-25075000D01*
X13876000Y-25075000D01*
X13943039Y-25094685D01*
X13988794Y-25147489D01*
X14000000Y-25199000D01*
X14000000Y-25315000D01*
X14116000Y-25315000D01*
X14183039Y-25334685D01*
X14228794Y-25387489D01*
X14240000Y-25439000D01*
X14240000Y-26200000D01*
X14287828Y-26200000D01*
X14287844Y-26199999D01*
X14355087Y-26192769D01*
X14355368Y-26195383D01*
X14412462Y-26198445D01*
X14469133Y-26239311D01*
X14494715Y-26304329D01*
X14495208Y-26315381D01*
X14495208Y-32184100D01*
X14475523Y-32251139D01*
X14422719Y-32296894D01*
X14355210Y-32306600D01*
X14355196Y-32306739D01*
X14354654Y-32306680D01*
X14353561Y-32306838D01*
X14350213Y-32306203D01*
X14347484Y-32305909D01*
X14347483Y-32305909D01*
X14287873Y-32299500D01*
X14287863Y-32299500D01*
X13712129Y-32299500D01*
X13712123Y-32299501D01*
X13652516Y-32305908D01*
X13517671Y-32356202D01*
X13517664Y-32356206D01*
X13402456Y-32442452D01*
X13402455Y-32442453D01*
X13402454Y-32442454D01*
X13325153Y-32545715D01*
X13322087Y-32549811D01*
X13266153Y-32591682D01*
X13222820Y-32599500D01*
X10686489Y-32599500D01*
X10619450Y-32579815D01*
X10585762Y-32545191D01*
X10585094Y-32545715D01*
X10580468Y-32539810D01*
X10460188Y-32419530D01*
X10371379Y-32365843D01*
X10314606Y-32331522D01*
X10152196Y-32280914D01*
X10152194Y-32280913D01*
X10152192Y-32280913D01*
X10102778Y-32276423D01*
X10081616Y-32274500D01*
X9568384Y-32274500D01*
X9549145Y-32276248D01*
X9497807Y-32280913D01*
X9335393Y-32331522D01*
X9189811Y-32419530D01*
X9189810Y-32419531D01*
X9087681Y-32521661D01*
X9026358Y-32555146D01*
X8956666Y-32550162D01*
X8912319Y-32521661D01*
X8810188Y-32419530D01*
X8721379Y-32365843D01*
X8664606Y-32331522D01*
X8502196Y-32280914D01*
X8502194Y-32280913D01*
X8502192Y-32280913D01*
X8452778Y-32276423D01*
X8431616Y-32274500D01*
X7918384Y-32274500D01*
X7899145Y-32276248D01*
X7847807Y-32280913D01*
X7685393Y-32331522D01*
X7539811Y-32419530D01*
X7419531Y-32539810D01*
X7414906Y-32545715D01*
X7413882Y-32544912D01*
X7411692Y-32546917D01*
X7407224Y-32556703D01*
X7386374Y-32570102D01*
X7368096Y-32586840D01*
X7355943Y-32589658D01*
X7348446Y-32594477D01*
X7313511Y-32599500D01*
X7174362Y-32599500D01*
X7107323Y-32579815D01*
X7086681Y-32563181D01*
X7074038Y-32550538D01*
X7074034Y-32550535D01*
X6926553Y-32451990D01*
X6926540Y-32451983D01*
X6762667Y-32384106D01*
X6762658Y-32384103D01*
X6588694Y-32349500D01*
X6588691Y-32349500D01*
X6411309Y-32349500D01*
X6411306Y-32349500D01*
X6237341Y-32384103D01*
X6237332Y-32384106D01*
X6073459Y-32451983D01*
X6073446Y-32451990D01*
X5925965Y-32550535D01*
X5925961Y-32550538D01*
X5800538Y-32675961D01*
X5800535Y-32675965D01*
X5701990Y-32823446D01*
X5701983Y-32823459D01*
X5634106Y-32987332D01*
X5634103Y-32987341D01*
X5599500Y-33161304D01*
X5599500Y-33338695D01*
X5634103Y-33512658D01*
X5634106Y-33512667D01*
X5701983Y-33676540D01*
X5701990Y-33676553D01*
X5800535Y-33824034D01*
X5800538Y-33824038D01*
X5925961Y-33949461D01*
X5925965Y-33949464D01*
X6073446Y-34048009D01*
X6073459Y-34048016D01*
X6196092Y-34098811D01*
X6237334Y-34115894D01*
X6237336Y-34115894D01*
X6237341Y-34115896D01*
X6411304Y-34150499D01*
X6411307Y-34150500D01*
X6411309Y-34150500D01*
X6588693Y-34150500D01*
X6588694Y-34150499D01*
X6668540Y-34134617D01*
X6762658Y-34115896D01*
X6762661Y-34115894D01*
X6762666Y-34115894D01*
X6926547Y-34048013D01*
X7074035Y-33949464D01*
X7078645Y-33944854D01*
X7086681Y-33936819D01*
X7113608Y-33922115D01*
X7139427Y-33905523D01*
X7145627Y-33904631D01*
X7148004Y-33903334D01*
X7174362Y-33900500D01*
X7313511Y-33900500D01*
X7380550Y-33920185D01*
X7414237Y-33954808D01*
X7414906Y-33954285D01*
X7419531Y-33960189D01*
X7539811Y-34080469D01*
X7539813Y-34080470D01*
X7539815Y-34080472D01*
X7685394Y-34168478D01*
X7847804Y-34219086D01*
X7918384Y-34225500D01*
X7918387Y-34225500D01*
X8431613Y-34225500D01*
X8431616Y-34225500D01*
X8502196Y-34219086D01*
X8664606Y-34168478D01*
X8810185Y-34080472D01*
X8848510Y-34042147D01*
X8912319Y-33978339D01*
X8973642Y-33944854D01*
X9043334Y-33949838D01*
X9087681Y-33978339D01*
X9189811Y-34080469D01*
X9189813Y-34080470D01*
X9189815Y-34080472D01*
X9335394Y-34168478D01*
X9497804Y-34219086D01*
X9568384Y-34225500D01*
X9568387Y-34225500D01*
X10081613Y-34225500D01*
X10081616Y-34225500D01*
X10152196Y-34219086D01*
X10314606Y-34168478D01*
X10460185Y-34080472D01*
X10580472Y-33960185D01*
X10580474Y-33960180D01*
X10585094Y-33954285D01*
X10586117Y-33955087D01*
X10631904Y-33913160D01*
X10686489Y-33900500D01*
X13284081Y-33900500D01*
X13351120Y-33920185D01*
X13396875Y-33972989D01*
X13406819Y-34042147D01*
X13383347Y-34098811D01*
X13316649Y-34187906D01*
X13316645Y-34187913D01*
X13266403Y-34322620D01*
X13266401Y-34322627D01*
X13260000Y-34382155D01*
X13260000Y-34575000D01*
X13876000Y-34575000D01*
X13884685Y-34577550D01*
X13893647Y-34576262D01*
X13917687Y-34587240D01*
X13943039Y-34594685D01*
X13948966Y-34601525D01*
X13957203Y-34605287D01*
X13971492Y-34627521D01*
X13988794Y-34647489D01*
X13991081Y-34658003D01*
X13994977Y-34664065D01*
X14000000Y-34699000D01*
X14000000Y-34931000D01*
X13980315Y-34998039D01*
X13927511Y-35043794D01*
X13876000Y-35055000D01*
X13260000Y-35055000D01*
X13260000Y-35247844D01*
X13266401Y-35307372D01*
X13266403Y-35307379D01*
X13316645Y-35442086D01*
X13316649Y-35442093D01*
X13402809Y-35557187D01*
X13402812Y-35557190D01*
X13525011Y-35648669D01*
X13523365Y-35650866D01*
X13562782Y-35690276D01*
X13577640Y-35758547D01*
X13553229Y-35824014D01*
X13523766Y-35849548D01*
X13524769Y-35850888D01*
X13402456Y-35942452D01*
X13402455Y-35942453D01*
X13402454Y-35942454D01*
X13325153Y-36045715D01*
X13322087Y-36049811D01*
X13266153Y-36091682D01*
X13222820Y-36099500D01*
X10686489Y-36099500D01*
X10619450Y-36079815D01*
X10585762Y-36045191D01*
X10585094Y-36045715D01*
X10580468Y-36039810D01*
X10460188Y-35919530D01*
X10371379Y-35865843D01*
X10314606Y-35831522D01*
X10152196Y-35780914D01*
X10152194Y-35780913D01*
X10152192Y-35780913D01*
X10102778Y-35776423D01*
X10081616Y-35774500D01*
X9568384Y-35774500D01*
X9549145Y-35776248D01*
X9497807Y-35780913D01*
X9335393Y-35831522D01*
X9189811Y-35919530D01*
X9189810Y-35919531D01*
X9087681Y-36021661D01*
X9026358Y-36055146D01*
X8956666Y-36050162D01*
X8912319Y-36021661D01*
X8810188Y-35919530D01*
X8721379Y-35865843D01*
X8664606Y-35831522D01*
X8502196Y-35780914D01*
X8502194Y-35780913D01*
X8502192Y-35780913D01*
X8452778Y-35776423D01*
X8431616Y-35774500D01*
X7918384Y-35774500D01*
X7899145Y-35776248D01*
X7847807Y-35780913D01*
X7685393Y-35831522D01*
X7539811Y-35919530D01*
X7419531Y-36039810D01*
X7414906Y-36045715D01*
X7413882Y-36044912D01*
X7411692Y-36046917D01*
X7407224Y-36056703D01*
X7386374Y-36070102D01*
X7368096Y-36086840D01*
X7355943Y-36089658D01*
X7348446Y-36094477D01*
X7313511Y-36099500D01*
X7174362Y-36099500D01*
X7107323Y-36079815D01*
X7086681Y-36063181D01*
X7074038Y-36050538D01*
X7074034Y-36050535D01*
X6926553Y-35951990D01*
X6926540Y-35951983D01*
X6762667Y-35884106D01*
X6762658Y-35884103D01*
X6588694Y-35849500D01*
X6588691Y-35849500D01*
X6411309Y-35849500D01*
X6411306Y-35849500D01*
X6237341Y-35884103D01*
X6237332Y-35884106D01*
X6073459Y-35951983D01*
X6073446Y-35951990D01*
X5925965Y-36050535D01*
X5925961Y-36050538D01*
X5800538Y-36175961D01*
X5800535Y-36175965D01*
X5701990Y-36323446D01*
X5701983Y-36323459D01*
X5634106Y-36487332D01*
X5634103Y-36487341D01*
X5599500Y-36661304D01*
X5599500Y-36838695D01*
X5634103Y-37012658D01*
X5634106Y-37012667D01*
X5701983Y-37176540D01*
X5701990Y-37176553D01*
X5800535Y-37324034D01*
X5800538Y-37324038D01*
X5925961Y-37449461D01*
X5925965Y-37449464D01*
X6073446Y-37548009D01*
X6073459Y-37548016D01*
X6196092Y-37598811D01*
X6237334Y-37615894D01*
X6237336Y-37615894D01*
X6237341Y-37615896D01*
X6411304Y-37650499D01*
X6411307Y-37650500D01*
X6411309Y-37650500D01*
X6588693Y-37650500D01*
X6588694Y-37650499D01*
X6646682Y-37638964D01*
X6762658Y-37615896D01*
X6762661Y-37615894D01*
X6762666Y-37615894D01*
X6926547Y-37548013D01*
X7074035Y-37449464D01*
X7078645Y-37444854D01*
X7086681Y-37436819D01*
X7113608Y-37422115D01*
X7139427Y-37405523D01*
X7145627Y-37404631D01*
X7148004Y-37403334D01*
X7174362Y-37400500D01*
X7313511Y-37400500D01*
X7380550Y-37420185D01*
X7414237Y-37454808D01*
X7414906Y-37454285D01*
X7419531Y-37460189D01*
X7539811Y-37580469D01*
X7539813Y-37580470D01*
X7539815Y-37580472D01*
X7685394Y-37668478D01*
X7847804Y-37719086D01*
X7918384Y-37725500D01*
X7918387Y-37725500D01*
X8431613Y-37725500D01*
X8431616Y-37725500D01*
X8502196Y-37719086D01*
X8664606Y-37668478D01*
X8810185Y-37580472D01*
X8848510Y-37542147D01*
X8912319Y-37478339D01*
X8973642Y-37444854D01*
X9043334Y-37449838D01*
X9087681Y-37478339D01*
X9189811Y-37580469D01*
X9189813Y-37580470D01*
X9189815Y-37580472D01*
X9335394Y-37668478D01*
X9497804Y-37719086D01*
X9568384Y-37725500D01*
X9568387Y-37725500D01*
X10081613Y-37725500D01*
X10081616Y-37725500D01*
X10152196Y-37719086D01*
X10314606Y-37668478D01*
X10460185Y-37580472D01*
X10580472Y-37460185D01*
X10580474Y-37460180D01*
X10585094Y-37454285D01*
X10586117Y-37455087D01*
X10631904Y-37413160D01*
X10686489Y-37400500D01*
X13284081Y-37400500D01*
X13351120Y-37420185D01*
X13396875Y-37472989D01*
X13406819Y-37542147D01*
X13383347Y-37598811D01*
X13316649Y-37687906D01*
X13316645Y-37687913D01*
X13266403Y-37822620D01*
X13266401Y-37822627D01*
X13260000Y-37882155D01*
X13260000Y-38075000D01*
X13876000Y-38075000D01*
X13884685Y-38077550D01*
X13893647Y-38076262D01*
X13917687Y-38087240D01*
X13943039Y-38094685D01*
X13948966Y-38101525D01*
X13957203Y-38105287D01*
X13971492Y-38127521D01*
X13988794Y-38147489D01*
X13991081Y-38158003D01*
X13994977Y-38164065D01*
X14000000Y-38199000D01*
X14000000Y-38431000D01*
X13980315Y-38498039D01*
X13927511Y-38543794D01*
X13876000Y-38555000D01*
X13723727Y-38555000D01*
X13672213Y-38543793D01*
X13652225Y-38534664D01*
X13652220Y-38534662D01*
X13652219Y-38534662D01*
X13585180Y-38514977D01*
X13585182Y-38514977D01*
X13585177Y-38514976D01*
X13523114Y-38506053D01*
X13442760Y-38494500D01*
X-8491401Y-38494500D01*
X-8558440Y-38474815D01*
X-8604195Y-38422011D01*
X-8615401Y-38370500D01*
X-8615401Y-38150003D01*
X-10490001Y-38150003D01*
X-10557040Y-38130318D01*
X-10602795Y-38077514D01*
X-10614001Y-38026003D01*
X-10614001Y-37850003D01*
X-10790001Y-37850003D01*
X-10857040Y-37830318D01*
X-10902795Y-37777514D01*
X-10914001Y-37726003D01*
X-10914001Y-36054603D01*
X-10314001Y-36054603D01*
X-10314001Y-37550003D01*
X-8615401Y-37550003D01*
X-8615401Y-36506783D01*
X-8615403Y-36506764D01*
X-8621775Y-36447492D01*
X-8622638Y-36446717D01*
X-8687039Y-36427807D01*
X-8732794Y-36375003D01*
X-8744000Y-36323492D01*
X-8744000Y-36317492D01*
X-8144000Y-36317492D01*
X-7494472Y-36317492D01*
X-7494456Y-36317491D01*
X-7434928Y-36311090D01*
X-7434921Y-36311088D01*
X-7300214Y-36260846D01*
X-7300207Y-36260842D01*
X-7185113Y-36174682D01*
X-7185110Y-36174679D01*
X-7098950Y-36059585D01*
X-7098946Y-36059578D01*
X-7048704Y-35924871D01*
X-7048702Y-35924864D01*
X-7042301Y-35865336D01*
X-7042300Y-35865319D01*
X-7042300Y-35799992D01*
X-8144000Y-35799992D01*
X-8144000Y-36317492D01*
X-8744000Y-36317492D01*
X-8744000Y-35799992D01*
X-9845700Y-35799992D01*
X-9845700Y-35865336D01*
X-9840107Y-35917347D01*
X-9852512Y-35986107D01*
X-9900122Y-36037244D01*
X-9963396Y-36054603D01*
X-10314001Y-36054603D01*
X-10914001Y-36054603D01*
X-11370500Y-36054603D01*
X-11437539Y-36034918D01*
X-11483294Y-35982114D01*
X-11494500Y-35930603D01*
X-11494500Y-35455444D01*
X-11474815Y-35388405D01*
X-11422011Y-35342650D01*
X-11352853Y-35332706D01*
X-11323050Y-35340882D01*
X-11262666Y-35365894D01*
X-11262664Y-35365894D01*
X-11262659Y-35365896D01*
X-11088696Y-35400499D01*
X-11088693Y-35400500D01*
X-11088691Y-35400500D01*
X-10911307Y-35400500D01*
X-10911306Y-35400499D01*
X-10850504Y-35388405D01*
X-10737342Y-35365896D01*
X-10737339Y-35365894D01*
X-10737334Y-35365894D01*
X-10573453Y-35298013D01*
X-10425965Y-35199464D01*
X-10425962Y-35199461D01*
X-10413319Y-35186819D01*
X-10351996Y-35153334D01*
X-10325638Y-35150500D01*
X-9946554Y-35150500D01*
X-9921038Y-35153154D01*
X-9685669Y-35202646D01*
X-9665793Y-35213320D01*
X-9644146Y-35219677D01*
X-9636889Y-35224715D01*
X-9588032Y-35261289D01*
X-9588029Y-35261291D01*
X-9453183Y-35311585D01*
X-9453184Y-35311585D01*
X-9446256Y-35312329D01*
X-9393573Y-35317994D01*
X-7494428Y-35317993D01*
X-7434817Y-35311585D01*
X-7299969Y-35261290D01*
X-7251125Y-35224725D01*
X-7185663Y-35200308D01*
X-7176815Y-35199992D01*
X-7042300Y-35199992D01*
X-7042300Y-35134664D01*
X-7042301Y-35134647D01*
X-7048702Y-35075119D01*
X-7048704Y-35075111D01*
X-7060292Y-35044042D01*
X-7065277Y-34974350D01*
X-7060298Y-34957386D01*
X-7048209Y-34924977D01*
X-7041800Y-34865367D01*
X-7041801Y-34134622D01*
X-7048209Y-34075011D01*
X-7048793Y-34073446D01*
X-7058279Y-34048013D01*
X-7060027Y-34043328D01*
X-7065012Y-33973639D01*
X-7060031Y-33956672D01*
X-7048209Y-33924979D01*
X-7041800Y-33865369D01*
X-7041801Y-33134624D01*
X-7048209Y-33075013D01*
X-7048573Y-33074038D01*
X-7060026Y-33043332D01*
X-7065012Y-32973641D01*
X-7060031Y-32956674D01*
X-7048209Y-32924981D01*
X-7041800Y-32865371D01*
X-7041801Y-32134626D01*
X-7048209Y-32075015D01*
X-7048575Y-32074035D01*
X-7060026Y-32043334D01*
X-7065012Y-31973643D01*
X-7060031Y-31956676D01*
X-7048209Y-31924983D01*
X-7041800Y-31865373D01*
X-7041801Y-31134628D01*
X-7048209Y-31075017D01*
X-7048576Y-31074034D01*
X-7060026Y-31043333D01*
X-7065011Y-30973642D01*
X-7060029Y-30956670D01*
X-7048209Y-30924983D01*
X-7041800Y-30865373D01*
X-7041801Y-30134628D01*
X-7048209Y-30075017D01*
X-7048576Y-30074034D01*
X-7060026Y-30043333D01*
X-7065011Y-29973642D01*
X-7060029Y-29956670D01*
X-7048209Y-29924983D01*
X-7041800Y-29865373D01*
X-7041801Y-29134628D01*
X-7048209Y-29075017D01*
X-7048576Y-29074034D01*
X-7060026Y-29043333D01*
X-7065011Y-28973642D01*
X-7060029Y-28956670D01*
X-7048209Y-28924983D01*
X-7041800Y-28865373D01*
X-7041801Y-28134628D01*
X-7048209Y-28075017D01*
X-7048576Y-28074034D01*
X-7060026Y-28043336D01*
X-7065012Y-27973645D01*
X-7060031Y-27956678D01*
X-7048209Y-27924985D01*
X-7041800Y-27865375D01*
X-7041801Y-27134630D01*
X-7048209Y-27075019D01*
X-7060027Y-27043336D01*
X-7065012Y-26973647D01*
X-7060031Y-26956680D01*
X-7048209Y-26924987D01*
X-7041800Y-26865377D01*
X-7041801Y-26134632D01*
X-7048209Y-26075021D01*
X-7048576Y-26074038D01*
X-7060026Y-26043340D01*
X-7061721Y-26019648D01*
X-7067801Y-25996689D01*
X-7064558Y-25979995D01*
X-7065012Y-25973649D01*
X-7061846Y-25961901D01*
X-7061004Y-25959291D01*
X-7048209Y-25924989D01*
X-7047352Y-25917012D01*
X-7043429Y-25904865D01*
X-7030665Y-25886123D01*
X-7021989Y-25865173D01*
X-7011373Y-25857800D01*
X-7004097Y-25847118D01*
X-6983227Y-25838252D01*
X-6964601Y-25825318D01*
X-6951685Y-25824855D01*
X-6939788Y-25819802D01*
X-6917438Y-25823628D01*
X-6894776Y-25822816D01*
X-6883660Y-25829410D01*
X-6870920Y-25831591D01*
X-6854186Y-25846893D01*
X-6834683Y-25858462D01*
X-6824915Y-25873660D01*
X-6819358Y-25878741D01*
X-6817754Y-25884801D01*
X-6810867Y-25895515D01*
X-6798015Y-25926544D01*
X-6798010Y-25926553D01*
X-6699465Y-26074034D01*
X-6699462Y-26074038D01*
X-6574039Y-26199461D01*
X-6574035Y-26199464D01*
X-6426554Y-26298009D01*
X-6426541Y-26298016D01*
X-6303637Y-26348923D01*
X-6262666Y-26365894D01*
X-6262664Y-26365894D01*
X-6262659Y-26365896D01*
X-6088696Y-26400499D01*
X-6088693Y-26400500D01*
X-6024500Y-26400500D01*
X-5957461Y-26420185D01*
X-5911706Y-26472989D01*
X-5900500Y-26524500D01*
X-5900500Y-26588695D01*
X-5865897Y-26762658D01*
X-5865894Y-26762667D01*
X-5798017Y-26926540D01*
X-5798010Y-26926553D01*
X-5699465Y-27074034D01*
X-5699462Y-27074038D01*
X-5574039Y-27199461D01*
X-5574035Y-27199464D01*
X-5426554Y-27298009D01*
X-5426541Y-27298016D01*
X-5303637Y-27348923D01*
X-5262666Y-27365894D01*
X-5262664Y-27365894D01*
X-5262659Y-27365896D01*
X-5088696Y-27400499D01*
X-5088693Y-27400500D01*
X-5024500Y-27400500D01*
X-4957461Y-27420185D01*
X-4911706Y-27472989D01*
X-4900500Y-27524500D01*
X-4900500Y-27588695D01*
X-4865897Y-27762658D01*
X-4865894Y-27762667D01*
X-4798017Y-27926540D01*
X-4798010Y-27926553D01*
X-4699465Y-28074034D01*
X-4699462Y-28074038D01*
X-4574039Y-28199461D01*
X-4574035Y-28199464D01*
X-4426554Y-28298009D01*
X-4426541Y-28298016D01*
X-4303637Y-28348923D01*
X-4262666Y-28365894D01*
X-4262664Y-28365894D01*
X-4262659Y-28365896D01*
X-4088696Y-28400499D01*
X-4088693Y-28400500D01*
X-4024500Y-28400500D01*
X-3957461Y-28420185D01*
X-3911706Y-28472989D01*
X-3900500Y-28524500D01*
X-3900500Y-28588695D01*
X-3865897Y-28762658D01*
X-3865894Y-28762667D01*
X-3798017Y-28926540D01*
X-3798010Y-28926553D01*
X-3699465Y-29074034D01*
X-3699462Y-29074038D01*
X-3574039Y-29199461D01*
X-3574035Y-29199464D01*
X-3426554Y-29298009D01*
X-3426541Y-29298016D01*
X-3303637Y-29348923D01*
X-3262666Y-29365894D01*
X-3262664Y-29365894D01*
X-3262659Y-29365896D01*
X-3088696Y-29400499D01*
X-3088693Y-29400500D01*
X-3024500Y-29400500D01*
X-2957461Y-29420185D01*
X-2911706Y-29472989D01*
X-2900500Y-29524500D01*
X-2900500Y-29588695D01*
X-2865897Y-29762658D01*
X-2865894Y-29762667D01*
X-2798017Y-29926540D01*
X-2798010Y-29926553D01*
X-2699465Y-30074034D01*
X-2699462Y-30074038D01*
X-2574039Y-30199461D01*
X-2574035Y-30199464D01*
X-2426554Y-30298009D01*
X-2426541Y-30298016D01*
X-2303637Y-30348923D01*
X-2262666Y-30365894D01*
X-2262664Y-30365894D01*
X-2262659Y-30365896D01*
X-2088696Y-30400499D01*
X-2088693Y-30400500D01*
X-2024500Y-30400500D01*
X-1957461Y-30420185D01*
X-1911706Y-30472989D01*
X-1900500Y-30524500D01*
X-1900500Y-30588695D01*
X-1865897Y-30762658D01*
X-1865894Y-30762667D01*
X-1798017Y-30926540D01*
X-1798010Y-30926553D01*
X-1699465Y-31074034D01*
X-1699462Y-31074038D01*
X-1574039Y-31199461D01*
X-1574035Y-31199464D01*
X-1426554Y-31298009D01*
X-1426541Y-31298016D01*
X-1303637Y-31348923D01*
X-1262666Y-31365894D01*
X-1262664Y-31365894D01*
X-1262659Y-31365896D01*
X-1088696Y-31400499D01*
X-1088693Y-31400500D01*
X-1024500Y-31400500D01*
X-957461Y-31420185D01*
X-911706Y-31472989D01*
X-900500Y-31524500D01*
X-900500Y-31588695D01*
X-865897Y-31762658D01*
X-865894Y-31762667D01*
X-798017Y-31926540D01*
X-798010Y-31926553D01*
X-699465Y-32074034D01*
X-699462Y-32074038D01*
X-574039Y-32199461D01*
X-574035Y-32199464D01*
X-426554Y-32298009D01*
X-426541Y-32298016D01*
X-303637Y-32348923D01*
X-262666Y-32365894D01*
X-262664Y-32365894D01*
X-262659Y-32365896D01*
X-88696Y-32400499D01*
X-88693Y-32400500D01*
X-24500Y-32400500D01*
X42539Y-32420185D01*
X88294Y-32472989D01*
X99500Y-32524500D01*
X99500Y-32588695D01*
X134103Y-32762658D01*
X134106Y-32762667D01*
X201983Y-32926540D01*
X201990Y-32926553D01*
X300535Y-33074034D01*
X300538Y-33074038D01*
X425961Y-33199461D01*
X425965Y-33199464D01*
X573446Y-33298009D01*
X573459Y-33298016D01*
X671659Y-33338691D01*
X737334Y-33365894D01*
X737336Y-33365894D01*
X737341Y-33365896D01*
X911304Y-33400499D01*
X911307Y-33400500D01*
X975500Y-33400500D01*
X1042539Y-33420185D01*
X1088294Y-33472989D01*
X1099500Y-33524500D01*
X1099500Y-33588695D01*
X1134103Y-33762658D01*
X1134106Y-33762667D01*
X1201983Y-33926540D01*
X1201990Y-33926553D01*
X1300535Y-34074034D01*
X1300538Y-34074038D01*
X1425961Y-34199461D01*
X1425965Y-34199464D01*
X1573446Y-34298009D01*
X1573459Y-34298016D01*
X1696363Y-34348923D01*
X1737334Y-34365894D01*
X1737336Y-34365894D01*
X1737341Y-34365896D01*
X1911304Y-34400499D01*
X1911307Y-34400500D01*
X1975500Y-34400500D01*
X2042539Y-34420185D01*
X2088294Y-34472989D01*
X2099500Y-34524500D01*
X2099500Y-34588695D01*
X2134103Y-34762658D01*
X2134106Y-34762667D01*
X2201983Y-34926540D01*
X2201990Y-34926553D01*
X2300535Y-35074034D01*
X2300538Y-35074038D01*
X2425961Y-35199461D01*
X2425965Y-35199464D01*
X2573446Y-35298009D01*
X2573459Y-35298016D01*
X2657210Y-35332706D01*
X2737334Y-35365894D01*
X2737336Y-35365894D01*
X2737341Y-35365896D01*
X2911304Y-35400499D01*
X2911307Y-35400500D01*
X2911309Y-35400500D01*
X3088693Y-35400500D01*
X3088694Y-35400499D01*
X3149496Y-35388405D01*
X3262658Y-35365896D01*
X3262661Y-35365894D01*
X3262666Y-35365894D01*
X3426547Y-35298013D01*
X3574035Y-35199464D01*
X3699464Y-35074035D01*
X3798013Y-34926547D01*
X3865894Y-34762666D01*
X3900500Y-34588691D01*
X3900500Y-34411309D01*
X3900500Y-34411306D01*
X3900499Y-34411304D01*
X3865896Y-34237341D01*
X3865893Y-34237332D01*
X3858335Y-34219086D01*
X3845423Y-34187913D01*
X3798016Y-34073459D01*
X3798009Y-34073446D01*
X3699464Y-33925965D01*
X3699461Y-33925961D01*
X3686819Y-33913319D01*
X3653334Y-33851996D01*
X3650500Y-33825638D01*
X3650500Y-25747844D01*
X13260000Y-25747844D01*
X13266401Y-25807372D01*
X13266403Y-25807379D01*
X13316645Y-25942086D01*
X13316649Y-25942093D01*
X13402809Y-26057187D01*
X13402812Y-26057190D01*
X13517906Y-26143350D01*
X13517913Y-26143354D01*
X13652620Y-26193596D01*
X13652627Y-26193598D01*
X13712155Y-26199999D01*
X13712172Y-26200000D01*
X13760000Y-26200000D01*
X13760000Y-25555000D01*
X13260000Y-25555000D01*
X13260000Y-25747844D01*
X3650500Y-25747844D01*
X3650500Y-15174361D01*
X3670185Y-15107322D01*
X3686816Y-15086682D01*
X3699464Y-15074035D01*
X3798013Y-14926547D01*
X3865894Y-14762666D01*
X3900500Y-14588691D01*
X3900500Y-14411309D01*
X3900500Y-14411306D01*
X3900499Y-14411304D01*
X3865896Y-14237341D01*
X3865893Y-14237332D01*
X3858335Y-14219086D01*
X3845423Y-14187913D01*
X3798016Y-14073459D01*
X3798009Y-14073446D01*
X3699464Y-13925965D01*
X3699461Y-13925961D01*
X3574038Y-13800538D01*
X3574034Y-13800535D01*
X3426553Y-13701990D01*
X3426540Y-13701983D01*
X3262667Y-13634106D01*
X3262658Y-13634103D01*
X3088694Y-13599500D01*
X3088691Y-13599500D01*
X3024500Y-13599500D01*
X2957461Y-13579815D01*
X2911706Y-13527011D01*
X2900500Y-13475500D01*
X2900500Y-13411306D01*
X2900499Y-13411304D01*
X2865896Y-13237341D01*
X2865893Y-13237332D01*
X2798016Y-13073459D01*
X2798009Y-13073446D01*
X2699464Y-12925965D01*
X2699461Y-12925961D01*
X2574038Y-12800538D01*
X2574034Y-12800535D01*
X2426553Y-12701990D01*
X2426540Y-12701983D01*
X2262667Y-12634106D01*
X2262658Y-12634103D01*
X2088694Y-12599500D01*
X2088691Y-12599500D01*
X2024500Y-12599500D01*
X1957461Y-12579815D01*
X1911706Y-12527011D01*
X1900500Y-12475500D01*
X1900500Y-12411306D01*
X1900499Y-12411304D01*
X1865896Y-12237341D01*
X1865893Y-12237332D01*
X1798016Y-12073459D01*
X1798009Y-12073446D01*
X1699464Y-11925965D01*
X1699461Y-11925961D01*
X1574038Y-11800538D01*
X1574034Y-11800535D01*
X1426553Y-11701990D01*
X1426540Y-11701983D01*
X1262667Y-11634106D01*
X1262658Y-11634103D01*
X1088694Y-11599500D01*
X1088691Y-11599500D01*
X1024500Y-11599500D01*
X957461Y-11579815D01*
X911706Y-11527011D01*
X900500Y-11475500D01*
X900500Y-11411306D01*
X900499Y-11411304D01*
X865896Y-11237341D01*
X865893Y-11237332D01*
X798016Y-11073459D01*
X798009Y-11073446D01*
X699464Y-10925965D01*
X699461Y-10925961D01*
X574038Y-10800538D01*
X574034Y-10800535D01*
X426553Y-10701990D01*
X426540Y-10701983D01*
X262667Y-10634106D01*
X262658Y-10634103D01*
X88694Y-10599500D01*
X88691Y-10599500D01*
X24500Y-10599500D01*
X-42539Y-10579815D01*
X-88294Y-10527011D01*
X-99500Y-10475500D01*
X-99500Y-10411306D01*
X-99501Y-10411304D01*
X-134104Y-10237341D01*
X-134107Y-10237332D01*
X-201984Y-10073459D01*
X-201991Y-10073446D01*
X-300536Y-9925965D01*
X-300539Y-9925961D01*
X-425962Y-9800538D01*
X-425966Y-9800535D01*
X-573447Y-9701990D01*
X-573460Y-9701983D01*
X-737333Y-9634106D01*
X-737342Y-9634103D01*
X-911306Y-9599500D01*
X-911309Y-9599500D01*
X-975500Y-9599500D01*
X-1042539Y-9579815D01*
X-1088294Y-9527011D01*
X-1099500Y-9475500D01*
X-1099500Y-9411306D01*
X-1099501Y-9411304D01*
X-1134104Y-9237341D01*
X-1134107Y-9237332D01*
X-1201984Y-9073459D01*
X-1201991Y-9073446D01*
X-1300536Y-8925965D01*
X-1300539Y-8925961D01*
X-1425962Y-8800538D01*
X-1425966Y-8800535D01*
X-1573447Y-8701990D01*
X-1573460Y-8701983D01*
X-1737333Y-8634106D01*
X-1737342Y-8634103D01*
X-1911306Y-8599500D01*
X-1911309Y-8599500D01*
X-1975500Y-8599500D01*
X-2042539Y-8579815D01*
X-2088294Y-8527011D01*
X-2099500Y-8475500D01*
X-2099500Y-8411306D01*
X-2099501Y-8411304D01*
X-2134104Y-8237341D01*
X-2134107Y-8237332D01*
X-2201984Y-8073459D01*
X-2201991Y-8073446D01*
X-2300536Y-7925965D01*
X-2300539Y-7925961D01*
X-2425962Y-7800538D01*
X-2425966Y-7800535D01*
X-2573447Y-7701990D01*
X-2573460Y-7701983D01*
X-2737333Y-7634106D01*
X-2737342Y-7634103D01*
X-2911306Y-7599500D01*
X-2911309Y-7599500D01*
X-2975500Y-7599500D01*
X-3042539Y-7579815D01*
X-3088294Y-7527011D01*
X-3099500Y-7475500D01*
X-3099500Y-7411306D01*
X-3099501Y-7411304D01*
X-3134104Y-7237341D01*
X-3134107Y-7237332D01*
X-3141665Y-7219086D01*
X-3154577Y-7187913D01*
X-3201984Y-7073459D01*
X-3201991Y-7073446D01*
X-3300536Y-6925965D01*
X-3300539Y-6925961D01*
X-3425962Y-6800538D01*
X-3425966Y-6800535D01*
X-3573447Y-6701990D01*
X-3573460Y-6701983D01*
X-3737333Y-6634106D01*
X-3737342Y-6634103D01*
X-3911306Y-6599500D01*
X-3911309Y-6599500D01*
X-3975500Y-6599500D01*
X-4042539Y-6579815D01*
X-4088294Y-6527011D01*
X-4099500Y-6475500D01*
X-4099500Y-6411306D01*
X-4099501Y-6411304D01*
X-4134104Y-6237341D01*
X-4134107Y-6237332D01*
X-4201984Y-6073459D01*
X-4201991Y-6073446D01*
X-4300536Y-5925965D01*
X-4300539Y-5925961D01*
X-4425962Y-5800538D01*
X-4425966Y-5800535D01*
X-4573447Y-5701990D01*
X-4573460Y-5701983D01*
X-4737333Y-5634106D01*
X-4737342Y-5634103D01*
X-4911306Y-5599500D01*
X-4911309Y-5599500D01*
X-4975500Y-5599500D01*
X-5042539Y-5579815D01*
X-5088294Y-5527011D01*
X-5099500Y-5475500D01*
X-5099500Y-5411306D01*
X-5099501Y-5411304D01*
X-5134104Y-5237341D01*
X-5134107Y-5237332D01*
X-5201984Y-5073459D01*
X-5201991Y-5073446D01*
X-5300536Y-4925965D01*
X-5300539Y-4925961D01*
X-5425962Y-4800538D01*
X-5425966Y-4800535D01*
X-5573447Y-4701990D01*
X-5573460Y-4701983D01*
X-5737333Y-4634106D01*
X-5737342Y-4634103D01*
X-5911306Y-4599500D01*
X-5911309Y-4599500D01*
X-6088691Y-4599500D01*
X-6088694Y-4599500D01*
X-6262659Y-4634103D01*
X-6262668Y-4634106D01*
X-6426541Y-4701983D01*
X-6426554Y-4701990D01*
X-6574035Y-4800535D01*
X-6574039Y-4800538D01*
X-6699462Y-4925961D01*
X-6699465Y-4925965D01*
X-6798010Y-5073446D01*
X-6798016Y-5073458D01*
X-6810869Y-5104487D01*
X-6854711Y-5158890D01*
X-6921006Y-5180953D01*
X-6988705Y-5163672D01*
X-7036314Y-5112534D01*
X-7043407Y-5095204D01*
X-7047350Y-5083019D01*
X-7048209Y-5075023D01*
X-7061248Y-5040065D01*
X-7062089Y-5037464D01*
X-7062972Y-5005159D01*
X-7065277Y-4972935D01*
X-7063975Y-4968496D01*
X-7063998Y-4967621D01*
X-7063452Y-4966717D01*
X-7060293Y-4955958D01*
X-7048702Y-4924880D01*
X-7042301Y-4865352D01*
X-7042300Y-4865335D01*
X-7042300Y-4800008D01*
X-7176815Y-4800008D01*
X-7243854Y-4780323D01*
X-7251112Y-4775284D01*
X-7299969Y-4738710D01*
X-7299972Y-4738708D01*
X-7434818Y-4688414D01*
X-7434817Y-4688414D01*
X-7494417Y-4682007D01*
X-7494419Y-4682006D01*
X-7494427Y-4682006D01*
X-7494435Y-4682006D01*
X-9393571Y-4682006D01*
X-9393577Y-4682007D01*
X-9453184Y-4688414D01*
X-9588029Y-4738708D01*
X-9588032Y-4738710D01*
X-9610802Y-4755755D01*
X-9636876Y-4775275D01*
X-9685669Y-4797354D01*
X-9921038Y-4846846D01*
X-9921519Y-4846808D01*
X-9946554Y-4849500D01*
X-10325638Y-4849500D01*
X-10392677Y-4829815D01*
X-10413319Y-4813181D01*
X-10425962Y-4800538D01*
X-10425966Y-4800535D01*
X-10573447Y-4701990D01*
X-10573460Y-4701983D01*
X-10737333Y-4634106D01*
X-10737342Y-4634103D01*
X-10911306Y-4599500D01*
X-10911309Y-4599500D01*
X-11088691Y-4599500D01*
X-11088694Y-4599500D01*
X-11262659Y-4634103D01*
X-11262663Y-4634105D01*
X-11262665Y-4634105D01*
X-11262666Y-4634106D01*
X-11265570Y-4635309D01*
X-11323049Y-4659117D01*
X-11392519Y-4666584D01*
X-11454997Y-4635309D01*
X-11490649Y-4575219D01*
X-11494500Y-4544555D01*
X-11494500Y-4069397D01*
X-11474815Y-4002358D01*
X-11422011Y-3956603D01*
X-11370500Y-3945397D01*
X-10914001Y-3945397D01*
X-10314001Y-3945397D01*
X-9963396Y-3945397D01*
X-9896357Y-3965082D01*
X-9850602Y-4017886D01*
X-9840107Y-4082653D01*
X-9845700Y-4134663D01*
X-9845700Y-4200008D01*
X-8744000Y-4200008D01*
X-8144000Y-4200008D01*
X-7042300Y-4200008D01*
X-7042300Y-4134680D01*
X-7042301Y-4134663D01*
X-7048702Y-4075135D01*
X-7048704Y-4075128D01*
X-7098946Y-3940421D01*
X-7098950Y-3940414D01*
X-7185110Y-3825320D01*
X-7185113Y-3825317D01*
X-7300207Y-3739157D01*
X-7300214Y-3739153D01*
X-7434921Y-3688911D01*
X-7434928Y-3688909D01*
X-7494456Y-3682508D01*
X-8144000Y-3682508D01*
X-8144000Y-4200008D01*
X-8744000Y-4200008D01*
X-8744000Y-3676508D01*
X-8724315Y-3609469D01*
X-8672868Y-3564343D01*
X-8620388Y-3539606D01*
X-8615403Y-3493235D01*
X-8615401Y-3493216D01*
X-8615401Y-2449997D01*
X-10314001Y-2449997D01*
X-10314001Y-3945397D01*
X-10914001Y-3945397D01*
X-10914001Y-1849997D01*
X-10314001Y-1849997D01*
X-8615401Y-1849997D01*
X-8615401Y-806769D01*
X-8615402Y-806752D01*
X-8621803Y-747224D01*
X-8621805Y-747217D01*
X-8672047Y-612510D01*
X-8672051Y-612503D01*
X-8758211Y-497409D01*
X-8758214Y-497406D01*
X-8873308Y-411246D01*
X-8873315Y-411242D01*
X-9008022Y-361000D01*
X-9008029Y-360998D01*
X-9067557Y-354597D01*
X-10314001Y-354597D01*
X-10314001Y-1849997D01*
X-10914001Y-1849997D01*
X-10914001Y-354597D01*
X-11370500Y-354597D01*
X-11437539Y-334912D01*
X-11483294Y-282108D01*
X-11494500Y-230597D01*
X-11494500Y230597D01*
X-11474815Y297636D01*
X-11422011Y343391D01*
X-11370500Y354597D01*
X-10914001Y354597D01*
X-10314001Y354597D01*
X-9067573Y354597D01*
X-9067557Y354598D01*
X-9008029Y360999D01*
X-9008022Y361001D01*
X-8873315Y411243D01*
X-8873308Y411247D01*
X-8758214Y497407D01*
X-8758211Y497410D01*
X-8672051Y612504D01*
X-8672047Y612511D01*
X-8621805Y747218D01*
X-8621803Y747225D01*
X-8615402Y806753D01*
X-8615401Y806770D01*
X-8615401Y1849997D01*
X-10314001Y1849997D01*
X-10314001Y354597D01*
X-10914001Y354597D01*
X-10914001Y3945397D01*
X-10314001Y3945397D01*
X-10314001Y2449997D01*
X-8615401Y2449997D01*
X-8615401Y3493217D01*
X-8615403Y3493236D01*
X-8621775Y3552508D01*
X-8622638Y3553283D01*
X-8687039Y3572193D01*
X-8732794Y3624997D01*
X-8744000Y3676508D01*
X-8744000Y3682508D01*
X-8144000Y3682508D01*
X-7494472Y3682508D01*
X-7494456Y3682509D01*
X-7434928Y3688910D01*
X-7434921Y3688912D01*
X-7300214Y3739154D01*
X-7300207Y3739158D01*
X-7185113Y3825318D01*
X-7185110Y3825321D01*
X-7098950Y3940415D01*
X-7098946Y3940422D01*
X-7048704Y4075129D01*
X-7048702Y4075136D01*
X-7042301Y4134664D01*
X-7042300Y4134681D01*
X-7042300Y4200008D01*
X-8144000Y4200008D01*
X-8144000Y3682508D01*
X-8744000Y3682508D01*
X-8744000Y4200008D01*
X-9845700Y4200008D01*
X-9845700Y4134664D01*
X-9840107Y4082653D01*
X-9852512Y4013893D01*
X-9900122Y3962756D01*
X-9963396Y3945397D01*
X-10314001Y3945397D01*
X-10914001Y3945397D01*
X-11370500Y3945397D01*
X-11437539Y3965082D01*
X-11483294Y4017886D01*
X-11494500Y4069397D01*
X-11494500Y6544556D01*
X-11474815Y6611595D01*
X-11422011Y6657350D01*
X-11352853Y6667294D01*
X-11323050Y6659118D01*
X-11262666Y6634106D01*
X-11262664Y6634106D01*
X-11262659Y6634104D01*
X-11088696Y6599501D01*
X-11088693Y6599500D01*
X-11088691Y6599500D01*
X-10911307Y6599500D01*
X-10911306Y6599501D01*
X-10850504Y6611595D01*
X-10737342Y6634104D01*
X-10737339Y6634106D01*
X-10737334Y6634106D01*
X-10573453Y6701987D01*
X-10425965Y6800536D01*
X-10425962Y6800539D01*
X-10413319Y6813181D01*
X-10351996Y6846666D01*
X-10325638Y6849500D01*
X-9970200Y6849500D01*
X-9903161Y6829815D01*
X-9857406Y6777011D01*
X-9846200Y6725500D01*
X-9846200Y6134634D01*
X-9846199Y6134628D01*
X-9839792Y6075022D01*
X-9827974Y6043336D01*
X-9822991Y5973644D01*
X-9827974Y5956674D01*
X-9827975Y5956670D01*
X-9839791Y5924989D01*
X-9846200Y5865379D01*
X-9846200Y5865372D01*
X-9846200Y5865371D01*
X-9846200Y5134636D01*
X-9846199Y5134630D01*
X-9839792Y5075023D01*
X-9827708Y5042625D01*
X-9822724Y4972933D01*
X-9827707Y4955962D01*
X-9839299Y4924883D01*
X-9845700Y4865353D01*
X-9845700Y4800008D01*
X-9711185Y4800008D01*
X-9644146Y4780323D01*
X-9636889Y4775285D01*
X-9588032Y4738711D01*
X-9588029Y4738709D01*
X-9453183Y4688415D01*
X-9453184Y4688415D01*
X-9446256Y4687671D01*
X-9393573Y4682006D01*
X-7494428Y4682007D01*
X-7434817Y4688415D01*
X-7299969Y4738710D01*
X-7251125Y4775275D01*
X-7185663Y4799692D01*
X-7176815Y4800008D01*
X-7042300Y4800008D01*
X-7042300Y4865336D01*
X-7042301Y4865353D01*
X-7048702Y4924881D01*
X-7048704Y4924889D01*
X-7060292Y4955958D01*
X-7065277Y5025650D01*
X-7060298Y5042614D01*
X-7048209Y5075023D01*
X-7041800Y5134633D01*
X-7041801Y5865378D01*
X-7048209Y5924989D01*
X-7060027Y5956672D01*
X-7065012Y6026361D01*
X-7060031Y6043328D01*
X-7048209Y6075021D01*
X-7041800Y6134631D01*
X-7041801Y6865376D01*
X-7048209Y6924987D01*
X-7048573Y6925962D01*
X-7060026Y6956668D01*
X-7065012Y7026359D01*
X-7060031Y7043326D01*
X-7048209Y7075019D01*
X-7041800Y7134629D01*
X-7041801Y7865374D01*
X-7048209Y7924985D01*
X-7048575Y7925965D01*
X-7060026Y7956666D01*
X-7065012Y8026357D01*
X-7060031Y8043324D01*
X-7048209Y8075017D01*
X-7041800Y8134627D01*
X-7041801Y8865372D01*
X-7048209Y8924983D01*
X-7048576Y8925966D01*
X-7060026Y8956667D01*
X-7065011Y9026358D01*
X-7060029Y9043330D01*
X-7048209Y9075017D01*
X-7041800Y9134627D01*
X-7041801Y9865372D01*
X-7048209Y9924983D01*
X-7054859Y9942813D01*
X-7060026Y9956667D01*
X-7065011Y10026358D01*
X-7060029Y10043330D01*
X-7048209Y10075017D01*
X-7041800Y10134627D01*
X-7041801Y10865372D01*
X-7048209Y10924983D01*
X-7048576Y10925966D01*
X-7060026Y10956667D01*
X-7065011Y11026358D01*
X-7060029Y11043330D01*
X-7048209Y11075017D01*
X-7041800Y11134627D01*
X-7041801Y11865372D01*
X-7048209Y11924983D01*
X-7048576Y11925966D01*
X-7060026Y11956664D01*
X-7065012Y12026355D01*
X-7060031Y12043322D01*
X-7048209Y12075015D01*
X-7041800Y12134625D01*
X-7041801Y12865370D01*
X-7048209Y12924981D01*
X-7060027Y12956664D01*
X-7065012Y13026353D01*
X-7060031Y13043320D01*
X-7048209Y13075013D01*
X-7041800Y13134623D01*
X-7041801Y13865368D01*
X-7048209Y13924979D01*
X-7048576Y13925962D01*
X-7055677Y13945000D01*
X-7060027Y13956662D01*
X-7061721Y13980352D01*
X-7067801Y14003311D01*
X-7064558Y14020005D01*
X-7065012Y14026351D01*
X-7061846Y14038099D01*
X-7061004Y14040709D01*
X-7048209Y14075011D01*
X-7047352Y14082988D01*
X-7043429Y14095135D01*
X-7030665Y14113877D01*
X-7021989Y14134827D01*
X-7011373Y14142200D01*
X-7004097Y14152882D01*
X-6983227Y14161748D01*
X-6964601Y14174682D01*
X-6951685Y14175145D01*
X-6939788Y14180198D01*
X-6917438Y14176372D01*
X-6894776Y14177184D01*
X-6883660Y14170590D01*
X-6870920Y14168409D01*
X-6854186Y14153107D01*
X-6834683Y14141538D01*
X-6824915Y14126340D01*
X-6819358Y14121259D01*
X-6817754Y14115199D01*
X-6810867Y14104485D01*
X-6798015Y14073456D01*
X-6798010Y14073447D01*
X-6699465Y13925966D01*
X-6699462Y13925962D01*
X-6574039Y13800539D01*
X-6574035Y13800536D01*
X-6426554Y13701991D01*
X-6426541Y13701984D01*
X-6303637Y13651077D01*
X-6262666Y13634106D01*
X-6262664Y13634106D01*
X-6262659Y13634104D01*
X-6088696Y13599501D01*
X-6088693Y13599500D01*
X-6024500Y13599500D01*
X-5957461Y13579815D01*
X-5911706Y13527011D01*
X-5900500Y13475500D01*
X-5900500Y13411305D01*
X-5865897Y13237342D01*
X-5865894Y13237333D01*
X-5798017Y13073460D01*
X-5798010Y13073447D01*
X-5699465Y12925966D01*
X-5699462Y12925962D01*
X-5574039Y12800539D01*
X-5574035Y12800536D01*
X-5426554Y12701991D01*
X-5426541Y12701984D01*
X-5303637Y12651077D01*
X-5262666Y12634106D01*
X-5262664Y12634106D01*
X-5262659Y12634104D01*
X-5088696Y12599501D01*
X-5088693Y12599500D01*
X-5024500Y12599500D01*
X-4957461Y12579815D01*
X-4911706Y12527011D01*
X-4900500Y12475500D01*
X-4900500Y12411305D01*
X-4865897Y12237342D01*
X-4865894Y12237333D01*
X-4798017Y12073460D01*
X-4798010Y12073447D01*
X-4699465Y11925966D01*
X-4699462Y11925962D01*
X-4574039Y11800539D01*
X-4574035Y11800536D01*
X-4426554Y11701991D01*
X-4426541Y11701984D01*
X-4312694Y11654828D01*
X-4262666Y11634106D01*
X-4262664Y11634106D01*
X-4262659Y11634104D01*
X-4088696Y11599501D01*
X-4088693Y11599500D01*
X-4024500Y11599500D01*
X-3957461Y11579815D01*
X-3911706Y11527011D01*
X-3900500Y11475500D01*
X-3900500Y11411305D01*
X-3865897Y11237342D01*
X-3865894Y11237333D01*
X-3798017Y11073460D01*
X-3798010Y11073447D01*
X-3699465Y10925966D01*
X-3699462Y10925962D01*
X-3574039Y10800539D01*
X-3574035Y10800536D01*
X-3426554Y10701991D01*
X-3426541Y10701984D01*
X-3338012Y10665315D01*
X-3262666Y10634106D01*
X-3262664Y10634106D01*
X-3262659Y10634104D01*
X-3088696Y10599501D01*
X-3088693Y10599500D01*
X-3024500Y10599500D01*
X-2957461Y10579815D01*
X-2911706Y10527011D01*
X-2900500Y10475500D01*
X-2900500Y10411305D01*
X-2865897Y10237342D01*
X-2865894Y10237333D01*
X-2798017Y10073460D01*
X-2798010Y10073447D01*
X-2699465Y9925966D01*
X-2699462Y9925962D01*
X-2574039Y9800539D01*
X-2574035Y9800536D01*
X-2426554Y9701991D01*
X-2426541Y9701984D01*
X-2303637Y9651077D01*
X-2262666Y9634106D01*
X-2262664Y9634106D01*
X-2262659Y9634104D01*
X-2088696Y9599501D01*
X-2088693Y9599500D01*
X-2024500Y9599500D01*
X-1957461Y9579815D01*
X-1911706Y9527011D01*
X-1900500Y9475500D01*
X-1900500Y9411305D01*
X-1865897Y9237342D01*
X-1865894Y9237333D01*
X-1798017Y9073460D01*
X-1798010Y9073447D01*
X-1699465Y8925966D01*
X-1699462Y8925962D01*
X-1574039Y8800539D01*
X-1574035Y8800536D01*
X-1426554Y8701991D01*
X-1426541Y8701984D01*
X-1303637Y8651077D01*
X-1262666Y8634106D01*
X-1262664Y8634106D01*
X-1262659Y8634104D01*
X-1088696Y8599501D01*
X-1088693Y8599500D01*
X-1024500Y8599500D01*
X-957461Y8579815D01*
X-911706Y8527011D01*
X-900500Y8475500D01*
X-900500Y8411305D01*
X-865897Y8237342D01*
X-865894Y8237333D01*
X-798017Y8073460D01*
X-798010Y8073447D01*
X-699465Y7925966D01*
X-699462Y7925962D01*
X-574039Y7800539D01*
X-574035Y7800536D01*
X-426554Y7701991D01*
X-426541Y7701984D01*
X-303637Y7651077D01*
X-262666Y7634106D01*
X-262664Y7634106D01*
X-262659Y7634104D01*
X-88696Y7599501D01*
X-88693Y7599500D01*
X-24500Y7599500D01*
X42539Y7579815D01*
X88294Y7527011D01*
X99500Y7475500D01*
X99500Y7411305D01*
X134103Y7237342D01*
X134106Y7237333D01*
X201983Y7073460D01*
X201990Y7073447D01*
X300535Y6925966D01*
X300538Y6925962D01*
X425961Y6800539D01*
X425965Y6800536D01*
X573446Y6701991D01*
X573459Y6701984D01*
X657210Y6667294D01*
X737334Y6634106D01*
X737336Y6634106D01*
X737341Y6634104D01*
X911304Y6599501D01*
X911307Y6599500D01*
X911309Y6599500D01*
X1088693Y6599500D01*
X1088694Y6599501D01*
X1149496Y6611595D01*
X1262658Y6634104D01*
X1262661Y6634106D01*
X1262666Y6634106D01*
X1426547Y6701987D01*
X1574035Y6800536D01*
X1699464Y6925965D01*
X1798013Y7073453D01*
X1865894Y7237334D01*
X1900500Y7411309D01*
X1900500Y7588691D01*
X1900500Y7588694D01*
X1900499Y7588696D01*
X1865896Y7762659D01*
X1865893Y7762668D01*
X1798016Y7926541D01*
X1798009Y7926554D01*
X1699464Y8074035D01*
X1699461Y8074039D01*
X1686819Y8086681D01*
X1653334Y8148004D01*
X1650500Y8174362D01*
X1650500Y10252156D01*
X13260000Y10252156D01*
X13266401Y10192628D01*
X13266403Y10192621D01*
X13316645Y10057914D01*
X13316649Y10057907D01*
X13402809Y9942813D01*
X13402812Y9942810D01*
X13517906Y9856650D01*
X13517913Y9856646D01*
X13652620Y9806404D01*
X13652627Y9806402D01*
X13712155Y9800001D01*
X13712172Y9800000D01*
X13760000Y9800000D01*
X13760000Y10445000D01*
X13260000Y10445000D01*
X13260000Y10252156D01*
X1650500Y10252156D01*
X1650500Y26825639D01*
X1670185Y26892678D01*
X1686816Y26913318D01*
X1699464Y26925965D01*
X1798013Y27073453D01*
X1865894Y27237334D01*
X1866714Y27241453D01*
X1900499Y27411305D01*
X1900500Y27411307D01*
X1900500Y27588694D01*
X1900499Y27588696D01*
X1865896Y27762659D01*
X1865893Y27762668D01*
X1798016Y27926541D01*
X1798009Y27926554D01*
X1699464Y28074035D01*
X1699461Y28074039D01*
X1574038Y28199462D01*
X1574034Y28199465D01*
X1426553Y28298010D01*
X1426540Y28298017D01*
X1262667Y28365894D01*
X1262658Y28365897D01*
X1088694Y28400500D01*
X1088691Y28400500D01*
X1024500Y28400500D01*
X957461Y28420185D01*
X911706Y28472989D01*
X900500Y28524500D01*
X900500Y28588694D01*
X900499Y28588696D01*
X865896Y28762659D01*
X865893Y28762668D01*
X858335Y28780914D01*
X845423Y28812087D01*
X798016Y28926541D01*
X798009Y28926554D01*
X699464Y29074035D01*
X699461Y29074039D01*
X574038Y29199462D01*
X574034Y29199465D01*
X426553Y29298010D01*
X426540Y29298017D01*
X262667Y29365894D01*
X262658Y29365897D01*
X88694Y29400500D01*
X88691Y29400500D01*
X24500Y29400500D01*
X-42539Y29420185D01*
X-88294Y29472989D01*
X-99500Y29524500D01*
X-99500Y29588694D01*
X-99501Y29588696D01*
X-134104Y29762659D01*
X-134107Y29762668D01*
X-201984Y29926541D01*
X-201991Y29926554D01*
X-300536Y30074035D01*
X-300539Y30074039D01*
X-425962Y30199462D01*
X-425966Y30199465D01*
X-573447Y30298010D01*
X-573460Y30298017D01*
X-737333Y30365894D01*
X-737342Y30365897D01*
X-911306Y30400500D01*
X-911309Y30400500D01*
X-975500Y30400500D01*
X-1042539Y30420185D01*
X-1088294Y30472989D01*
X-1099500Y30524500D01*
X-1099500Y30588694D01*
X-1099501Y30588696D01*
X-1134104Y30762659D01*
X-1134107Y30762668D01*
X-1201984Y30926541D01*
X-1201991Y30926554D01*
X-1300536Y31074035D01*
X-1300539Y31074039D01*
X-1425962Y31199462D01*
X-1425966Y31199465D01*
X-1573447Y31298010D01*
X-1573460Y31298017D01*
X-1737333Y31365894D01*
X-1737342Y31365897D01*
X-1911306Y31400500D01*
X-1911309Y31400500D01*
X-1975500Y31400500D01*
X-2042539Y31420185D01*
X-2088294Y31472989D01*
X-2099500Y31524500D01*
X-2099500Y31588694D01*
X-2099501Y31588696D01*
X-2134104Y31762659D01*
X-2134107Y31762668D01*
X-2201984Y31926541D01*
X-2201991Y31926554D01*
X-2300536Y32074035D01*
X-2300539Y32074039D01*
X-2425962Y32199462D01*
X-2425966Y32199465D01*
X-2573447Y32298010D01*
X-2573460Y32298017D01*
X-2737333Y32365894D01*
X-2737342Y32365897D01*
X-2911306Y32400500D01*
X-2911309Y32400500D01*
X-2975500Y32400500D01*
X-3042539Y32420185D01*
X-3088294Y32472989D01*
X-3099500Y32524500D01*
X-3099500Y32588694D01*
X-3099501Y32588696D01*
X-3134104Y32762659D01*
X-3134107Y32762668D01*
X-3201984Y32926541D01*
X-3201991Y32926554D01*
X-3300536Y33074035D01*
X-3300539Y33074039D01*
X-3425962Y33199462D01*
X-3425966Y33199465D01*
X-3573447Y33298010D01*
X-3573460Y33298017D01*
X-3737333Y33365894D01*
X-3737342Y33365897D01*
X-3911306Y33400500D01*
X-3911309Y33400500D01*
X-3975500Y33400500D01*
X-4042539Y33420185D01*
X-4088294Y33472989D01*
X-4099500Y33524500D01*
X-4099500Y33588694D01*
X-4099501Y33588696D01*
X-4134104Y33762659D01*
X-4134107Y33762668D01*
X-4201984Y33926541D01*
X-4201991Y33926554D01*
X-4300536Y34074035D01*
X-4300539Y34074039D01*
X-4425962Y34199462D01*
X-4425966Y34199465D01*
X-4573447Y34298010D01*
X-4573460Y34298017D01*
X-4737333Y34365894D01*
X-4737342Y34365897D01*
X-4911306Y34400500D01*
X-4911309Y34400500D01*
X-4975500Y34400500D01*
X-5042539Y34420185D01*
X-5088294Y34472989D01*
X-5099500Y34524500D01*
X-5099500Y34588694D01*
X-5099501Y34588696D01*
X-5134104Y34762659D01*
X-5134107Y34762668D01*
X-5201984Y34926541D01*
X-5201991Y34926554D01*
X-5300536Y35074035D01*
X-5300539Y35074039D01*
X-5425962Y35199462D01*
X-5425966Y35199465D01*
X-5573447Y35298010D01*
X-5573460Y35298017D01*
X-5737333Y35365894D01*
X-5737342Y35365897D01*
X-5911306Y35400500D01*
X-5911309Y35400500D01*
X-6088691Y35400500D01*
X-6088694Y35400500D01*
X-6262659Y35365897D01*
X-6262668Y35365894D01*
X-6426541Y35298017D01*
X-6426554Y35298010D01*
X-6574035Y35199465D01*
X-6574039Y35199462D01*
X-6699462Y35074039D01*
X-6699465Y35074035D01*
X-6798010Y34926554D01*
X-6798016Y34926542D01*
X-6810869Y34895513D01*
X-6854711Y34841110D01*
X-6921006Y34819047D01*
X-6988705Y34836328D01*
X-7036314Y34887466D01*
X-7043407Y34904796D01*
X-7047350Y34916981D01*
X-7048209Y34924977D01*
X-7061248Y34959935D01*
X-7062089Y34962536D01*
X-7062972Y34994841D01*
X-7065277Y35027065D01*
X-7063975Y35031504D01*
X-7063998Y35032379D01*
X-7063452Y35033283D01*
X-7060293Y35044042D01*
X-7048702Y35075120D01*
X-7042301Y35134648D01*
X-7042300Y35134665D01*
X-7042300Y35199992D01*
X-7176815Y35199992D01*
X-7243854Y35219677D01*
X-7251112Y35224716D01*
X-7299969Y35261290D01*
X-7299972Y35261292D01*
X-7434818Y35311586D01*
X-7434817Y35311586D01*
X-7494417Y35317993D01*
X-7494419Y35317994D01*
X-7494427Y35317994D01*
X-7494435Y35317994D01*
X-9393571Y35317994D01*
X-9393577Y35317993D01*
X-9453184Y35311586D01*
X-9588029Y35261292D01*
X-9588032Y35261290D01*
X-9599629Y35252608D01*
X-9636876Y35224725D01*
X-9685669Y35202646D01*
X-9921038Y35153154D01*
X-9921519Y35153192D01*
X-9946554Y35150500D01*
X-10325638Y35150500D01*
X-10392677Y35170185D01*
X-10413319Y35186819D01*
X-10425962Y35199462D01*
X-10425966Y35199465D01*
X-10573447Y35298010D01*
X-10573460Y35298017D01*
X-10737333Y35365894D01*
X-10737342Y35365897D01*
X-10911306Y35400500D01*
X-10911309Y35400500D01*
X-11088691Y35400500D01*
X-11088694Y35400500D01*
X-11262659Y35365897D01*
X-11262663Y35365895D01*
X-11262665Y35365895D01*
X-11262666Y35365894D01*
X-11265570Y35364691D01*
X-11323049Y35340883D01*
X-11392519Y35333416D01*
X-11454997Y35364691D01*
X-11490649Y35424781D01*
X-11494500Y35455445D01*
X-11494500Y35930603D01*
X-11474815Y35997642D01*
X-11422011Y36043397D01*
X-11370500Y36054603D01*
X-10914001Y36054603D01*
X-10314001Y36054603D01*
X-9963396Y36054603D01*
X-9896357Y36034918D01*
X-9850602Y35982114D01*
X-9840107Y35917347D01*
X-9845700Y35865337D01*
X-9845700Y35799992D01*
X-8744000Y35799992D01*
X-8144000Y35799992D01*
X-7042300Y35799992D01*
X-7042300Y35865320D01*
X-7042301Y35865337D01*
X-7048702Y35924865D01*
X-7048704Y35924872D01*
X-7098946Y36059579D01*
X-7098950Y36059586D01*
X-7185110Y36174680D01*
X-7185113Y36174683D01*
X-7300207Y36260843D01*
X-7300214Y36260847D01*
X-7434921Y36311089D01*
X-7434928Y36311091D01*
X-7494456Y36317492D01*
X-8144000Y36317492D01*
X-8144000Y35799992D01*
X-8744000Y35799992D01*
X-8744000Y36323492D01*
X-8724315Y36390531D01*
X-8672868Y36435657D01*
X-8620388Y36460394D01*
X-8615403Y36506765D01*
X-8615401Y36506784D01*
X-8615401Y37550003D01*
X-10314001Y37550003D01*
X-10314001Y36054603D01*
X-10914001Y36054603D01*
X-10914001Y37726003D01*
X-10894316Y37793042D01*
X-10841512Y37838797D01*
X-10790001Y37850003D01*
X-10614001Y37850003D01*
X-10614001Y38026003D01*
X-10594316Y38093042D01*
X-10541512Y38138797D01*
X-10490001Y38150003D01*
X-8615401Y38150003D01*
X-8615401Y38370500D01*
X-8595716Y38437539D01*
X-8542912Y38483294D01*
X-8491401Y38494500D01*
X14371208Y38494500D01*
X14438247Y38474815D01*
G37*
%TD.AperFunction*%
%TA.AperFunction,Conductor*%
G36*
X-6834683Y-5858462D02*
G01*
X-6810867Y-5895515D01*
X-6798015Y-5926544D01*
X-6798010Y-5926553D01*
X-6719974Y-6043340D01*
X-6699464Y-6074035D01*
X-6686192Y-6087307D01*
X-6685550Y-6087968D01*
X-6669666Y-6118094D01*
X-6653335Y-6147999D01*
X-6653403Y-6148937D01*
X-6652962Y-6149772D01*
X-6650500Y-6174361D01*
X-6650500Y-24825638D01*
X-6670185Y-24892677D01*
X-6686819Y-24913319D01*
X-6699462Y-24925961D01*
X-6699465Y-24925965D01*
X-6798010Y-25073446D01*
X-6798016Y-25073458D01*
X-6810869Y-25104487D01*
X-6854711Y-25158890D01*
X-6921006Y-25180953D01*
X-6988705Y-25163672D01*
X-7036314Y-25112534D01*
X-7043407Y-25095204D01*
X-7047350Y-25083019D01*
X-7048209Y-25075023D01*
X-7061248Y-25040065D01*
X-7062089Y-25037464D01*
X-7062972Y-25005159D01*
X-7065277Y-24972935D01*
X-7063975Y-24968496D01*
X-7063998Y-24967621D01*
X-7063452Y-24966717D01*
X-7060293Y-24955958D01*
X-7048702Y-24924880D01*
X-7042301Y-24865352D01*
X-7042300Y-24865335D01*
X-7042300Y-24800008D01*
X-7176815Y-24800008D01*
X-7243854Y-24780323D01*
X-7251112Y-24775284D01*
X-7299969Y-24738710D01*
X-7299972Y-24738708D01*
X-7434818Y-24688414D01*
X-7434817Y-24688414D01*
X-7494417Y-24682007D01*
X-7494419Y-24682006D01*
X-7494427Y-24682006D01*
X-7494435Y-24682006D01*
X-9393571Y-24682006D01*
X-9393577Y-24682007D01*
X-9453184Y-24688414D01*
X-9588029Y-24738708D01*
X-9588032Y-24738710D01*
X-9599629Y-24747392D01*
X-9636876Y-24775275D01*
X-9685669Y-24797354D01*
X-9921038Y-24846846D01*
X-9921519Y-24846808D01*
X-9946554Y-24849500D01*
X-10325638Y-24849500D01*
X-10392677Y-24829815D01*
X-10413319Y-24813181D01*
X-10425962Y-24800538D01*
X-10425966Y-24800535D01*
X-10573447Y-24701990D01*
X-10573460Y-24701983D01*
X-10737333Y-24634106D01*
X-10737342Y-24634103D01*
X-10911306Y-24599500D01*
X-10911309Y-24599500D01*
X-11088691Y-24599500D01*
X-11088694Y-24599500D01*
X-11262659Y-24634103D01*
X-11262663Y-24634105D01*
X-11262665Y-24634105D01*
X-11262666Y-24634106D01*
X-11265570Y-24635309D01*
X-11323049Y-24659117D01*
X-11392519Y-24666584D01*
X-11454997Y-24635309D01*
X-11490649Y-24575219D01*
X-11494500Y-24544555D01*
X-11494500Y-24069397D01*
X-11474815Y-24002358D01*
X-11422011Y-23956603D01*
X-11370500Y-23945397D01*
X-10914001Y-23945397D01*
X-10314001Y-23945397D01*
X-9963396Y-23945397D01*
X-9896357Y-23965082D01*
X-9850602Y-24017886D01*
X-9840107Y-24082653D01*
X-9845700Y-24134663D01*
X-9845700Y-24200008D01*
X-8744000Y-24200008D01*
X-8144000Y-24200008D01*
X-7042300Y-24200008D01*
X-7042300Y-24134680D01*
X-7042301Y-24134663D01*
X-7048702Y-24075135D01*
X-7048704Y-24075128D01*
X-7098946Y-23940421D01*
X-7098950Y-23940414D01*
X-7185110Y-23825320D01*
X-7185113Y-23825317D01*
X-7300207Y-23739157D01*
X-7300214Y-23739153D01*
X-7434921Y-23688911D01*
X-7434928Y-23688909D01*
X-7494456Y-23682508D01*
X-8144000Y-23682508D01*
X-8144000Y-24200008D01*
X-8744000Y-24200008D01*
X-8744000Y-23676508D01*
X-8724315Y-23609469D01*
X-8672868Y-23564343D01*
X-8620388Y-23539606D01*
X-8615403Y-23493235D01*
X-8615401Y-23493216D01*
X-8615401Y-22449997D01*
X-10314001Y-22449997D01*
X-10314001Y-23945397D01*
X-10914001Y-23945397D01*
X-10914001Y-21849997D01*
X-10314001Y-21849997D01*
X-8615401Y-21849997D01*
X-8615401Y-20806769D01*
X-8615402Y-20806752D01*
X-8621803Y-20747224D01*
X-8621805Y-20747217D01*
X-8672047Y-20612510D01*
X-8672051Y-20612503D01*
X-8758211Y-20497409D01*
X-8758214Y-20497406D01*
X-8873308Y-20411246D01*
X-8873315Y-20411242D01*
X-9008022Y-20361000D01*
X-9008029Y-20360998D01*
X-9067557Y-20354597D01*
X-10314001Y-20354597D01*
X-10314001Y-21849997D01*
X-10914001Y-21849997D01*
X-10914001Y-20354597D01*
X-11370500Y-20354597D01*
X-11437539Y-20334912D01*
X-11483294Y-20282108D01*
X-11494500Y-20230597D01*
X-11494500Y-19769403D01*
X-11474815Y-19702364D01*
X-11422011Y-19656609D01*
X-11370500Y-19645403D01*
X-10914001Y-19645403D01*
X-10314001Y-19645403D01*
X-9067573Y-19645403D01*
X-9067557Y-19645402D01*
X-9008029Y-19639001D01*
X-9008022Y-19638999D01*
X-8873315Y-19588757D01*
X-8873308Y-19588753D01*
X-8758214Y-19502593D01*
X-8758211Y-19502590D01*
X-8672051Y-19387496D01*
X-8672047Y-19387489D01*
X-8621805Y-19252782D01*
X-8621803Y-19252775D01*
X-8615402Y-19193247D01*
X-8615401Y-19193230D01*
X-8615401Y-18150003D01*
X-10314001Y-18150003D01*
X-10314001Y-19645403D01*
X-10914001Y-19645403D01*
X-10914001Y-16054603D01*
X-10314001Y-16054603D01*
X-10314001Y-17550003D01*
X-8615401Y-17550003D01*
X-8615401Y-16506783D01*
X-8615403Y-16506764D01*
X-8621775Y-16447492D01*
X-8622638Y-16446717D01*
X-8687039Y-16427807D01*
X-8732794Y-16375003D01*
X-8744000Y-16323492D01*
X-8744000Y-16317492D01*
X-8144000Y-16317492D01*
X-7494472Y-16317492D01*
X-7494456Y-16317491D01*
X-7434928Y-16311090D01*
X-7434921Y-16311088D01*
X-7300214Y-16260846D01*
X-7300207Y-16260842D01*
X-7185113Y-16174682D01*
X-7185110Y-16174679D01*
X-7098950Y-16059585D01*
X-7098946Y-16059578D01*
X-7048704Y-15924871D01*
X-7048702Y-15924864D01*
X-7042301Y-15865336D01*
X-7042300Y-15865319D01*
X-7042300Y-15799992D01*
X-8144000Y-15799992D01*
X-8144000Y-16317492D01*
X-8744000Y-16317492D01*
X-8744000Y-15799992D01*
X-9845700Y-15799992D01*
X-9845700Y-15865336D01*
X-9840107Y-15917347D01*
X-9852512Y-15986107D01*
X-9900122Y-16037244D01*
X-9963396Y-16054603D01*
X-10314001Y-16054603D01*
X-10914001Y-16054603D01*
X-11370500Y-16054603D01*
X-11437539Y-16034918D01*
X-11483294Y-15982114D01*
X-11494500Y-15930603D01*
X-11494500Y-15455444D01*
X-11474815Y-15388405D01*
X-11422011Y-15342650D01*
X-11352853Y-15332706D01*
X-11323050Y-15340882D01*
X-11262666Y-15365894D01*
X-11262664Y-15365894D01*
X-11262659Y-15365896D01*
X-11088696Y-15400499D01*
X-11088693Y-15400500D01*
X-11088691Y-15400500D01*
X-10911307Y-15400500D01*
X-10911306Y-15400499D01*
X-10850504Y-15388405D01*
X-10737342Y-15365896D01*
X-10737339Y-15365894D01*
X-10737334Y-15365894D01*
X-10573453Y-15298013D01*
X-10425965Y-15199464D01*
X-10425962Y-15199461D01*
X-10413319Y-15186819D01*
X-10351996Y-15153334D01*
X-10325638Y-15150500D01*
X-9946554Y-15150500D01*
X-9921038Y-15153154D01*
X-9685669Y-15202646D01*
X-9665793Y-15213320D01*
X-9644146Y-15219677D01*
X-9636889Y-15224715D01*
X-9588032Y-15261289D01*
X-9588029Y-15261291D01*
X-9453183Y-15311585D01*
X-9453184Y-15311585D01*
X-9446256Y-15312329D01*
X-9393573Y-15317994D01*
X-7494428Y-15317993D01*
X-7434817Y-15311585D01*
X-7299969Y-15261290D01*
X-7251125Y-15224725D01*
X-7185663Y-15200308D01*
X-7176815Y-15199992D01*
X-7042300Y-15199992D01*
X-7042300Y-15134664D01*
X-7042301Y-15134647D01*
X-7048702Y-15075119D01*
X-7048704Y-15075111D01*
X-7060292Y-15044042D01*
X-7065277Y-14974350D01*
X-7060298Y-14957386D01*
X-7048209Y-14924977D01*
X-7041800Y-14865367D01*
X-7041801Y-14134622D01*
X-7048209Y-14075011D01*
X-7048793Y-14073446D01*
X-7058279Y-14048013D01*
X-7060027Y-14043328D01*
X-7065012Y-13973639D01*
X-7060031Y-13956672D01*
X-7048209Y-13924979D01*
X-7041800Y-13865369D01*
X-7041801Y-13134624D01*
X-7048209Y-13075013D01*
X-7048789Y-13073459D01*
X-7060026Y-13043332D01*
X-7065012Y-12973641D01*
X-7060031Y-12956674D01*
X-7048209Y-12924981D01*
X-7041800Y-12865371D01*
X-7041801Y-12134626D01*
X-7048209Y-12075015D01*
X-7048792Y-12073453D01*
X-7053943Y-12059644D01*
X-7060027Y-12043332D01*
X-7065012Y-11973643D01*
X-7060031Y-11956676D01*
X-7048209Y-11924983D01*
X-7041800Y-11865373D01*
X-7041801Y-11134628D01*
X-7048209Y-11075017D01*
X-7048795Y-11073446D01*
X-7060026Y-11043333D01*
X-7065011Y-10973642D01*
X-7060029Y-10956670D01*
X-7048209Y-10924983D01*
X-7041800Y-10865373D01*
X-7041801Y-10134628D01*
X-7048209Y-10075017D01*
X-7048795Y-10073446D01*
X-7060026Y-10043333D01*
X-7065011Y-9973642D01*
X-7060029Y-9956670D01*
X-7048209Y-9924983D01*
X-7041800Y-9865373D01*
X-7041801Y-9134628D01*
X-7048209Y-9075017D01*
X-7050042Y-9070102D01*
X-7060026Y-9043333D01*
X-7065011Y-8973642D01*
X-7060029Y-8956670D01*
X-7048209Y-8924983D01*
X-7041800Y-8865373D01*
X-7041801Y-8134628D01*
X-7048209Y-8075017D01*
X-7060027Y-8043334D01*
X-7065012Y-7973645D01*
X-7060031Y-7956678D01*
X-7048209Y-7924985D01*
X-7041800Y-7865375D01*
X-7041801Y-7134630D01*
X-7048209Y-7075019D01*
X-7048796Y-7073446D01*
X-7058282Y-7048013D01*
X-7060027Y-7043336D01*
X-7065012Y-6973647D01*
X-7060031Y-6956680D01*
X-7048209Y-6924987D01*
X-7041800Y-6865377D01*
X-7041801Y-6134632D01*
X-7048209Y-6075021D01*
X-7048577Y-6074035D01*
X-7060026Y-6043340D01*
X-7060737Y-6033404D01*
X-7065383Y-6024593D01*
X-7063189Y-5999134D01*
X-7065012Y-5973649D01*
X-7060031Y-5956682D01*
X-7048209Y-5924989D01*
X-7048209Y-5924981D01*
X-7046425Y-5917439D01*
X-7043880Y-5918040D01*
X-7021989Y-5865173D01*
X-6964601Y-5825318D01*
X-6894776Y-5822816D01*
X-6834683Y-5858462D01*
G37*
%TD.AperFunction*%
%TA.AperFunction,Conductor*%
G36*
X-6834683Y34141538D02*
G01*
X-6810867Y34104485D01*
X-6798015Y34073456D01*
X-6798010Y34073447D01*
X-6702092Y33929898D01*
X-6699464Y33925965D01*
X-6686192Y33912693D01*
X-6685550Y33912032D01*
X-6669666Y33881906D01*
X-6653335Y33852001D01*
X-6653403Y33851063D01*
X-6652962Y33850228D01*
X-6650500Y33825639D01*
X-6650500Y15174362D01*
X-6670185Y15107323D01*
X-6686819Y15086681D01*
X-6699462Y15074039D01*
X-6699465Y15074035D01*
X-6798010Y14926554D01*
X-6798016Y14926542D01*
X-6810869Y14895513D01*
X-6854711Y14841110D01*
X-6921006Y14819047D01*
X-6988705Y14836328D01*
X-7036314Y14887466D01*
X-7043407Y14904796D01*
X-7047350Y14916981D01*
X-7048209Y14924977D01*
X-7061248Y14959935D01*
X-7062089Y14962536D01*
X-7062972Y14994841D01*
X-7065277Y15027065D01*
X-7063975Y15031504D01*
X-7063998Y15032379D01*
X-7063452Y15033283D01*
X-7060293Y15044042D01*
X-7048702Y15075120D01*
X-7042301Y15134648D01*
X-7042300Y15134665D01*
X-7042300Y15199992D01*
X-7176815Y15199992D01*
X-7243854Y15219677D01*
X-7251112Y15224716D01*
X-7299969Y15261290D01*
X-7299972Y15261292D01*
X-7434818Y15311586D01*
X-7434817Y15311586D01*
X-7494417Y15317993D01*
X-7494419Y15317994D01*
X-7494427Y15317994D01*
X-7494435Y15317994D01*
X-9393571Y15317994D01*
X-9393577Y15317993D01*
X-9453184Y15311586D01*
X-9588029Y15261292D01*
X-9588032Y15261290D01*
X-9599629Y15252608D01*
X-9636876Y15224725D01*
X-9685669Y15202646D01*
X-9921038Y15153154D01*
X-9921519Y15153192D01*
X-9946554Y15150500D01*
X-10325638Y15150500D01*
X-10392677Y15170185D01*
X-10413319Y15186819D01*
X-10425962Y15199462D01*
X-10425966Y15199465D01*
X-10573447Y15298010D01*
X-10573460Y15298017D01*
X-10737333Y15365894D01*
X-10737342Y15365897D01*
X-10911306Y15400500D01*
X-10911309Y15400500D01*
X-11088691Y15400500D01*
X-11088694Y15400500D01*
X-11262659Y15365897D01*
X-11262663Y15365895D01*
X-11262665Y15365895D01*
X-11262666Y15365894D01*
X-11265570Y15364691D01*
X-11323049Y15340883D01*
X-11392519Y15333416D01*
X-11454997Y15364691D01*
X-11490649Y15424781D01*
X-11494500Y15455445D01*
X-11494500Y15930603D01*
X-11474815Y15997642D01*
X-11422011Y16043397D01*
X-11370500Y16054603D01*
X-10914001Y16054603D01*
X-10314001Y16054603D01*
X-9963396Y16054603D01*
X-9896357Y16034918D01*
X-9850602Y15982114D01*
X-9840107Y15917347D01*
X-9845700Y15865337D01*
X-9845700Y15799992D01*
X-8744000Y15799992D01*
X-8144000Y15799992D01*
X-7042300Y15799992D01*
X-7042300Y15865320D01*
X-7042301Y15865337D01*
X-7048702Y15924865D01*
X-7048704Y15924872D01*
X-7098946Y16059579D01*
X-7098950Y16059586D01*
X-7185110Y16174680D01*
X-7185113Y16174683D01*
X-7300207Y16260843D01*
X-7300214Y16260847D01*
X-7434921Y16311089D01*
X-7434928Y16311091D01*
X-7494456Y16317492D01*
X-8144000Y16317492D01*
X-8144000Y15799992D01*
X-8744000Y15799992D01*
X-8744000Y16323492D01*
X-8724315Y16390531D01*
X-8672868Y16435657D01*
X-8620388Y16460394D01*
X-8615403Y16506765D01*
X-8615401Y16506784D01*
X-8615401Y17550003D01*
X-10314001Y17550003D01*
X-10314001Y16054603D01*
X-10914001Y16054603D01*
X-10914001Y18150003D01*
X-10314001Y18150003D01*
X-8615401Y18150003D01*
X-8615401Y19193231D01*
X-8615402Y19193248D01*
X-8621803Y19252776D01*
X-8621805Y19252783D01*
X-8672047Y19387490D01*
X-8672051Y19387497D01*
X-8758211Y19502591D01*
X-8758214Y19502594D01*
X-8873308Y19588754D01*
X-8873315Y19588758D01*
X-9008022Y19639000D01*
X-9008029Y19639002D01*
X-9067557Y19645403D01*
X-10314001Y19645403D01*
X-10314001Y18150003D01*
X-10914001Y18150003D01*
X-10914001Y19645403D01*
X-11370500Y19645403D01*
X-11437539Y19665088D01*
X-11483294Y19717892D01*
X-11494500Y19769403D01*
X-11494500Y20230597D01*
X-11474815Y20297636D01*
X-11422011Y20343391D01*
X-11370500Y20354597D01*
X-10914001Y20354597D01*
X-10314001Y20354597D01*
X-9067573Y20354597D01*
X-9067557Y20354598D01*
X-9008029Y20360999D01*
X-9008022Y20361001D01*
X-8873315Y20411243D01*
X-8873308Y20411247D01*
X-8758214Y20497407D01*
X-8758211Y20497410D01*
X-8672051Y20612504D01*
X-8672047Y20612511D01*
X-8621805Y20747218D01*
X-8621803Y20747225D01*
X-8615402Y20806753D01*
X-8615401Y20806770D01*
X-8615401Y21849997D01*
X-10314001Y21849997D01*
X-10314001Y20354597D01*
X-10914001Y20354597D01*
X-10914001Y23945397D01*
X-10314001Y23945397D01*
X-10314001Y22449997D01*
X-8615401Y22449997D01*
X-8615401Y23493217D01*
X-8615403Y23493236D01*
X-8621775Y23552508D01*
X-8622638Y23553283D01*
X-8687039Y23572193D01*
X-8732794Y23624997D01*
X-8744000Y23676508D01*
X-8744000Y23682508D01*
X-8144000Y23682508D01*
X-7494472Y23682508D01*
X-7494456Y23682509D01*
X-7434928Y23688910D01*
X-7434921Y23688912D01*
X-7300214Y23739154D01*
X-7300207Y23739158D01*
X-7185113Y23825318D01*
X-7185110Y23825321D01*
X-7098950Y23940415D01*
X-7098946Y23940422D01*
X-7048704Y24075129D01*
X-7048702Y24075136D01*
X-7042301Y24134664D01*
X-7042300Y24134681D01*
X-7042300Y24200008D01*
X-8144000Y24200008D01*
X-8144000Y23682508D01*
X-8744000Y23682508D01*
X-8744000Y24200008D01*
X-9845700Y24200008D01*
X-9845700Y24134664D01*
X-9840107Y24082653D01*
X-9852512Y24013893D01*
X-9900122Y23962756D01*
X-9963396Y23945397D01*
X-10314001Y23945397D01*
X-10914001Y23945397D01*
X-11370500Y23945397D01*
X-11437539Y23965082D01*
X-11483294Y24017886D01*
X-11494500Y24069397D01*
X-11494500Y26544556D01*
X-11474815Y26611595D01*
X-11422011Y26657350D01*
X-11352853Y26667294D01*
X-11323050Y26659118D01*
X-11262666Y26634106D01*
X-11262664Y26634106D01*
X-11262659Y26634104D01*
X-11088696Y26599501D01*
X-11088693Y26599500D01*
X-11088691Y26599500D01*
X-10911307Y26599500D01*
X-10911306Y26599501D01*
X-10850504Y26611595D01*
X-10737342Y26634104D01*
X-10737339Y26634106D01*
X-10737334Y26634106D01*
X-10573453Y26701987D01*
X-10425965Y26800536D01*
X-10425962Y26800539D01*
X-10413319Y26813181D01*
X-10351996Y26846666D01*
X-10325638Y26849500D01*
X-9970200Y26849500D01*
X-9903161Y26829815D01*
X-9857406Y26777011D01*
X-9846200Y26725500D01*
X-9846200Y26134634D01*
X-9846199Y26134628D01*
X-9839792Y26075022D01*
X-9827974Y26043336D01*
X-9822991Y25973644D01*
X-9827974Y25956674D01*
X-9827975Y25956670D01*
X-9839791Y25924989D01*
X-9846200Y25865379D01*
X-9846200Y25865372D01*
X-9846200Y25865371D01*
X-9846200Y25134636D01*
X-9846199Y25134630D01*
X-9839792Y25075023D01*
X-9827708Y25042625D01*
X-9822724Y24972933D01*
X-9827707Y24955962D01*
X-9839299Y24924883D01*
X-9845700Y24865353D01*
X-9845700Y24800008D01*
X-9711185Y24800008D01*
X-9644146Y24780323D01*
X-9636889Y24775285D01*
X-9588032Y24738711D01*
X-9588029Y24738709D01*
X-9453183Y24688415D01*
X-9453184Y24688415D01*
X-9446256Y24687671D01*
X-9393573Y24682006D01*
X-7494428Y24682007D01*
X-7434817Y24688415D01*
X-7299969Y24738710D01*
X-7251125Y24775275D01*
X-7185663Y24799692D01*
X-7176815Y24800008D01*
X-7042300Y24800008D01*
X-7042300Y24865336D01*
X-7042301Y24865353D01*
X-7048702Y24924881D01*
X-7048704Y24924889D01*
X-7060292Y24955958D01*
X-7065277Y25025650D01*
X-7060298Y25042614D01*
X-7048209Y25075023D01*
X-7041800Y25134633D01*
X-7041801Y25865378D01*
X-7048209Y25924989D01*
X-7060027Y25956672D01*
X-7065012Y26026361D01*
X-7060031Y26043328D01*
X-7048209Y26075021D01*
X-7041800Y26134631D01*
X-7041801Y26865376D01*
X-7048209Y26924987D01*
X-7048574Y26925965D01*
X-7057609Y26950189D01*
X-7060027Y26956670D01*
X-7065012Y27026359D01*
X-7060031Y27043326D01*
X-7048209Y27075019D01*
X-7041800Y27134629D01*
X-7041801Y27865374D01*
X-7048209Y27924985D01*
X-7048792Y27926547D01*
X-7060026Y27956666D01*
X-7065012Y28026357D01*
X-7060031Y28043324D01*
X-7048209Y28075017D01*
X-7041800Y28134627D01*
X-7041801Y28865372D01*
X-7048209Y28924983D01*
X-7052284Y28935909D01*
X-7060026Y28956667D01*
X-7065011Y29026358D01*
X-7060029Y29043330D01*
X-7048209Y29075017D01*
X-7041800Y29134627D01*
X-7041801Y29865372D01*
X-7048209Y29924983D01*
X-7048795Y29926554D01*
X-7060026Y29956667D01*
X-7065011Y30026358D01*
X-7060029Y30043330D01*
X-7048209Y30075017D01*
X-7041800Y30134627D01*
X-7041801Y30865372D01*
X-7048209Y30924983D01*
X-7054859Y30942813D01*
X-7060026Y30956667D01*
X-7065011Y31026358D01*
X-7060029Y31043330D01*
X-7048209Y31075017D01*
X-7041800Y31134627D01*
X-7041801Y31865372D01*
X-7048209Y31924983D01*
X-7060027Y31956666D01*
X-7065012Y32026355D01*
X-7060031Y32043322D01*
X-7048209Y32075015D01*
X-7041800Y32134625D01*
X-7041801Y32865370D01*
X-7048209Y32924981D01*
X-7048796Y32926554D01*
X-7060026Y32956662D01*
X-7065012Y33026353D01*
X-7060031Y33043320D01*
X-7048209Y33075013D01*
X-7041800Y33134623D01*
X-7041801Y33865368D01*
X-7048209Y33924979D01*
X-7048577Y33925965D01*
X-7057612Y33950189D01*
X-7060027Y33956662D01*
X-7060737Y33966596D01*
X-7065383Y33975407D01*
X-7063189Y34000866D01*
X-7065012Y34026351D01*
X-7060031Y34043318D01*
X-7048209Y34075011D01*
X-7048209Y34075019D01*
X-7046425Y34082561D01*
X-7043880Y34081960D01*
X-7021989Y34134827D01*
X-6964601Y34174682D01*
X-6894776Y34177184D01*
X-6834683Y34141538D01*
G37*
%TD.AperFunction*%
%TD*%
%TA.AperFunction,Conductor*%
%TO.N,PE*%
G36*
X-8995582Y47499184D02*
G01*
X-8795439Y47484870D01*
X-8777937Y47482353D01*
X-8586203Y47440645D01*
X-8569245Y47435666D01*
X-8385391Y47367091D01*
X-8369299Y47359741D01*
X-8197096Y47265712D01*
X-8182216Y47256151D01*
X-8025133Y47138559D01*
X-8011763Y47126973D01*
X-7873028Y46988238D01*
X-7861442Y46974868D01*
X-7784671Y46872314D01*
X-7743854Y46817790D01*
X-7734289Y46802905D01*
X-7640260Y46630702D01*
X-7632910Y46614610D01*
X-7564338Y46430764D01*
X-7559354Y46413788D01*
X-7517649Y46222069D01*
X-7515131Y46204558D01*
X-7500816Y46004420D01*
X-7500500Y45995573D01*
X-7500500Y45791932D01*
X-7462105Y45377572D01*
X-7462105Y45377571D01*
X-7442447Y45272413D01*
X-7385637Y44968507D01*
X-7271755Y44568252D01*
X-7148560Y44250250D01*
X-7121426Y44180209D01*
X-7121425Y44180207D01*
X-6935941Y43807705D01*
X-6935938Y43807699D01*
X-6716866Y43453886D01*
X-6501614Y43168845D01*
X-6466086Y43121799D01*
X-6185733Y42814267D01*
X-5878201Y42533914D01*
X-5546113Y42283133D01*
X-5192303Y42064063D01*
X-4819788Y41878573D01*
X-4431748Y41728245D01*
X-4031501Y41614366D01*
X-4031501Y41614365D01*
X-4031499Y41614365D01*
X-4031493Y41614363D01*
X-3622437Y41537897D01*
X-3622432Y41537897D01*
X-3622429Y41537896D01*
X-3422703Y41519389D01*
X-3208071Y41499500D01*
X-3208068Y41499500D01*
X-2791932Y41499500D01*
X-2791929Y41499500D01*
X-2532505Y41523540D01*
X-2377572Y41537896D01*
X-2377571Y41537896D01*
X-2377569Y41537897D01*
X-2377563Y41537897D01*
X-1968507Y41614363D01*
X-1568252Y41728245D01*
X-1180212Y41878573D01*
X-807697Y42064063D01*
X-453887Y42283133D01*
X-121799Y42533914D01*
X185733Y42814267D01*
X466086Y43121799D01*
X716867Y43453887D01*
X935937Y43807697D01*
X1121427Y44180212D01*
X1271755Y44568252D01*
X1385637Y44968507D01*
X1462103Y45377563D01*
X1500500Y45791929D01*
X1500500Y45995573D01*
X1500816Y46004419D01*
X1511318Y46151252D01*
X1515131Y46204566D01*
X1517646Y46222062D01*
X1559356Y46413801D01*
X1564333Y46430752D01*
X1632911Y46614615D01*
X1640259Y46630702D01*
X1702815Y46745266D01*
X1734291Y46802911D01*
X1743845Y46817779D01*
X1861448Y46974877D01*
X1873020Y46988231D01*
X2011769Y47126980D01*
X2025123Y47138552D01*
X2182221Y47256155D01*
X2197089Y47265709D01*
X2369298Y47359742D01*
X2385385Y47367089D01*
X2569248Y47435667D01*
X2586199Y47440644D01*
X2777938Y47482354D01*
X2795437Y47484870D01*
X2995547Y47499183D01*
X3004446Y47499498D01*
X11925740Y47495244D01*
X11926285Y47495208D01*
X11934108Y47495208D01*
X11996249Y47495208D01*
X12003736Y47494982D01*
X12293278Y47477468D01*
X12308141Y47475664D01*
X12589770Y47424053D01*
X12604307Y47420470D01*
X12877650Y47335292D01*
X12891646Y47329984D01*
X13152741Y47212474D01*
X13165999Y47205516D01*
X13411020Y47057397D01*
X13423338Y47048895D01*
X13517827Y46974868D01*
X13648727Y46872314D01*
X13659935Y46862384D01*
X13862383Y46659936D01*
X13872313Y46648728D01*
X14043077Y46430764D01*
X14048890Y46423345D01*
X14057396Y46411021D01*
X14205515Y46166000D01*
X14212473Y46152742D01*
X14329983Y45891647D01*
X14335293Y45877646D01*
X14420468Y45604309D01*
X14424052Y45589771D01*
X14475662Y45308143D01*
X14477467Y45293278D01*
X14494982Y45003737D01*
X14495208Y44996250D01*
X14495208Y39124000D01*
X14475523Y39056961D01*
X14422719Y39011206D01*
X14371208Y39000000D01*
X-8590902Y39000000D01*
X-8657941Y39019685D01*
X-8703696Y39072489D01*
X-8714902Y39124000D01*
X-8714902Y39176921D01*
X-8714903Y39176928D01*
X-8729755Y39270707D01*
X-8787351Y39383745D01*
X-8787355Y39383749D01*
X-8787356Y39383751D01*
X-8877054Y39473449D01*
X-8877057Y39473451D01*
X-8877059Y39473453D01*
X-8953884Y39512598D01*
X-8990100Y39531051D01*
X-9083877Y39545903D01*
X-12144119Y39545903D01*
X-12225082Y39533080D01*
X-12237905Y39531049D01*
X-12350943Y39473453D01*
X-12350944Y39473452D01*
X-12350949Y39473449D01*
X-12440647Y39383751D01*
X-12440650Y39383746D01*
X-12498249Y39270705D01*
X-12513101Y39176928D01*
X-12513101Y36523086D01*
X-12512058Y36516503D01*
X-12498247Y36429299D01*
X-12440651Y36316261D01*
X-12440649Y36316259D01*
X-12440647Y36316256D01*
X-12350949Y36226558D01*
X-12350947Y36226557D01*
X-12350943Y36226553D01*
X-12244189Y36172159D01*
X-12237903Y36168956D01*
X-12144127Y36154104D01*
X-12144126Y36154104D01*
X-12144120Y36154103D01*
X-12124002Y36154104D01*
X-12056965Y36134422D01*
X-12011208Y36081620D01*
X-12000000Y36030104D01*
X-12000000Y23969897D01*
X-12019685Y23902858D01*
X-12072489Y23857103D01*
X-12123995Y23845897D01*
X-12144118Y23845897D01*
X-12223051Y23833396D01*
X-12237905Y23831043D01*
X-12350943Y23773447D01*
X-12350944Y23773446D01*
X-12350949Y23773443D01*
X-12440647Y23683745D01*
X-12440650Y23683740D01*
X-12498249Y23570699D01*
X-12513101Y23476922D01*
X-12513101Y20823080D01*
X-12502309Y20754940D01*
X-12498247Y20729293D01*
X-12440651Y20616255D01*
X-12440649Y20616253D01*
X-12440647Y20616250D01*
X-12350949Y20526552D01*
X-12350947Y20526551D01*
X-12350943Y20526547D01*
X-12243791Y20471950D01*
X-12237903Y20468950D01*
X-12144127Y20454098D01*
X-12144126Y20454098D01*
X-12144120Y20454097D01*
X-12124002Y20454098D01*
X-12056965Y20434416D01*
X-12011208Y20381614D01*
X-12000000Y20330098D01*
X-12000000Y19669903D01*
X-12019685Y19602864D01*
X-12072489Y19557109D01*
X-12123995Y19545903D01*
X-12144118Y19545903D01*
X-12223051Y19533402D01*
X-12237905Y19531049D01*
X-12350943Y19473453D01*
X-12350944Y19473452D01*
X-12350949Y19473449D01*
X-12440647Y19383751D01*
X-12440650Y19383746D01*
X-12498249Y19270705D01*
X-12513101Y19176928D01*
X-12513101Y16523086D01*
X-12503013Y16459394D01*
X-12498247Y16429299D01*
X-12440651Y16316261D01*
X-12440649Y16316259D01*
X-12440647Y16316256D01*
X-12350949Y16226558D01*
X-12350947Y16226557D01*
X-12350943Y16226553D01*
X-12237905Y16168957D01*
X-12237903Y16168956D01*
X-12144127Y16154104D01*
X-12144126Y16154104D01*
X-12144120Y16154103D01*
X-12124002Y16154104D01*
X-12056965Y16134422D01*
X-12011208Y16081620D01*
X-12000000Y16030104D01*
X-12000000Y3969897D01*
X-12019685Y3902858D01*
X-12072489Y3857103D01*
X-12123995Y3845897D01*
X-12144118Y3845897D01*
X-12223051Y3833396D01*
X-12237905Y3831043D01*
X-12350943Y3773447D01*
X-12350944Y3773446D01*
X-12350949Y3773443D01*
X-12440647Y3683745D01*
X-12440650Y3683740D01*
X-12498249Y3570699D01*
X-12513101Y3476922D01*
X-12513101Y823080D01*
X-12502309Y754940D01*
X-12498247Y729293D01*
X-12440651Y616255D01*
X-12440649Y616253D01*
X-12440647Y616250D01*
X-12350949Y526552D01*
X-12350947Y526551D01*
X-12350943Y526547D01*
X-12237905Y468951D01*
X-12237903Y468950D01*
X-12144127Y454098D01*
X-12144126Y454098D01*
X-12144120Y454097D01*
X-12124002Y454098D01*
X-12056965Y434416D01*
X-12011208Y381614D01*
X-12000000Y330098D01*
X-12000000Y-330097D01*
X-12019685Y-397136D01*
X-12072489Y-442891D01*
X-12123995Y-454097D01*
X-12144118Y-454097D01*
X-12223051Y-466598D01*
X-12237905Y-468951D01*
X-12350943Y-526547D01*
X-12350944Y-526548D01*
X-12350949Y-526551D01*
X-12440647Y-616249D01*
X-12440650Y-616254D01*
X-12498249Y-729295D01*
X-12513101Y-823072D01*
X-12513101Y-3476914D01*
X-12504772Y-3529500D01*
X-12498247Y-3570701D01*
X-12440651Y-3683739D01*
X-12440649Y-3683741D01*
X-12440647Y-3683744D01*
X-12350949Y-3773442D01*
X-12350947Y-3773443D01*
X-12350943Y-3773447D01*
X-12237905Y-3831043D01*
X-12237903Y-3831044D01*
X-12144127Y-3845896D01*
X-12144126Y-3845896D01*
X-12144120Y-3845897D01*
X-12124002Y-3845896D01*
X-12056965Y-3865578D01*
X-12011208Y-3918380D01*
X-12000000Y-3969896D01*
X-12000000Y-16030103D01*
X-12019685Y-16097142D01*
X-12072489Y-16142897D01*
X-12123995Y-16154103D01*
X-12144118Y-16154103D01*
X-12223051Y-16166604D01*
X-12237905Y-16168957D01*
X-12350943Y-16226553D01*
X-12350944Y-16226554D01*
X-12350949Y-16226557D01*
X-12440647Y-16316255D01*
X-12440650Y-16316260D01*
X-12498249Y-16429301D01*
X-12513101Y-16523078D01*
X-12513101Y-19176920D01*
X-12502309Y-19245060D01*
X-12498247Y-19270707D01*
X-12440651Y-19383745D01*
X-12440649Y-19383747D01*
X-12440647Y-19383750D01*
X-12350949Y-19473448D01*
X-12350947Y-19473449D01*
X-12350943Y-19473453D01*
X-12237905Y-19531049D01*
X-12237903Y-19531050D01*
X-12144127Y-19545902D01*
X-12144126Y-19545902D01*
X-12144120Y-19545903D01*
X-12124002Y-19545902D01*
X-12056965Y-19565584D01*
X-12011208Y-19618386D01*
X-12000000Y-19669902D01*
X-12000000Y-20330097D01*
X-12019685Y-20397136D01*
X-12072489Y-20442891D01*
X-12123995Y-20454097D01*
X-12144118Y-20454097D01*
X-12223051Y-20466598D01*
X-12237905Y-20468951D01*
X-12350943Y-20526547D01*
X-12350944Y-20526548D01*
X-12350949Y-20526551D01*
X-12440647Y-20616249D01*
X-12440650Y-20616254D01*
X-12498249Y-20729295D01*
X-12513101Y-20823072D01*
X-12513101Y-23476914D01*
X-12502309Y-23545054D01*
X-12498247Y-23570701D01*
X-12440651Y-23683739D01*
X-12440649Y-23683741D01*
X-12440647Y-23683744D01*
X-12350949Y-23773442D01*
X-12350947Y-23773443D01*
X-12350943Y-23773447D01*
X-12242225Y-23828842D01*
X-12237903Y-23831044D01*
X-12144127Y-23845896D01*
X-12144126Y-23845896D01*
X-12144120Y-23845897D01*
X-12124002Y-23845896D01*
X-12056965Y-23865578D01*
X-12011208Y-23918380D01*
X-12000000Y-23969896D01*
X-12000000Y-36030103D01*
X-12019685Y-36097142D01*
X-12072489Y-36142897D01*
X-12123995Y-36154103D01*
X-12144118Y-36154103D01*
X-12223051Y-36166604D01*
X-12237905Y-36168957D01*
X-12350943Y-36226553D01*
X-12350944Y-36226554D01*
X-12350949Y-36226557D01*
X-12440647Y-36316255D01*
X-12440650Y-36316260D01*
X-12498249Y-36429301D01*
X-12513101Y-36523078D01*
X-12513101Y-39176920D01*
X-12508101Y-39208486D01*
X-12498247Y-39270707D01*
X-12440651Y-39383745D01*
X-12440649Y-39383747D01*
X-12440647Y-39383750D01*
X-12350949Y-39473448D01*
X-12350947Y-39473449D01*
X-12350943Y-39473453D01*
X-12237907Y-39531048D01*
X-12237903Y-39531050D01*
X-12144126Y-39545902D01*
X-12144120Y-39545903D01*
X-9083883Y-39545902D01*
X-8990097Y-39531049D01*
X-8877059Y-39473453D01*
X-8787351Y-39383745D01*
X-8729755Y-39270707D01*
X-8729755Y-39270705D01*
X-8729754Y-39270704D01*
X-8714901Y-39176927D01*
X-8714901Y-39124000D01*
X-8695216Y-39056961D01*
X-8642412Y-39011206D01*
X-8590901Y-39000000D01*
X13442760Y-39000000D01*
X13509799Y-39019685D01*
X13515642Y-39023679D01*
X13521653Y-39028045D01*
X13521658Y-39028050D01*
X13634696Y-39085646D01*
X13634698Y-39085647D01*
X13722116Y-39099491D01*
X13728468Y-39100498D01*
X13728475Y-39100499D01*
X13728481Y-39100500D01*
X14271518Y-39100499D01*
X14271523Y-39100499D01*
X14271523Y-39100498D01*
X14326182Y-39091841D01*
X14351811Y-39087783D01*
X14421104Y-39096738D01*
X14474556Y-39141734D01*
X14495195Y-39208486D01*
X14495208Y-39210256D01*
X14495208Y-44996249D01*
X14494982Y-45003736D01*
X14477467Y-45293277D01*
X14475662Y-45308142D01*
X14424052Y-45589770D01*
X14420468Y-45604308D01*
X14335293Y-45877645D01*
X14329983Y-45891646D01*
X14212473Y-46152741D01*
X14205515Y-46165999D01*
X14057396Y-46411020D01*
X14048890Y-46423344D01*
X13872313Y-46648727D01*
X13862383Y-46659935D01*
X13659935Y-46862383D01*
X13648727Y-46872313D01*
X13423344Y-47048890D01*
X13411020Y-47057396D01*
X13165999Y-47205515D01*
X13152741Y-47212473D01*
X12891646Y-47329983D01*
X12877645Y-47335293D01*
X12604308Y-47420468D01*
X12589770Y-47424052D01*
X12308142Y-47475662D01*
X12293277Y-47477467D01*
X12003736Y-47494982D01*
X11996249Y-47495208D01*
X11932788Y-47495208D01*
X11925303Y-47494982D01*
X11905411Y-47493778D01*
X11706204Y-47481729D01*
X11691339Y-47479924D01*
X11409201Y-47428220D01*
X11394663Y-47424636D01*
X11120824Y-47339305D01*
X11106826Y-47333996D01*
X10954095Y-47265257D01*
X10845268Y-47216278D01*
X10832011Y-47209320D01*
X10586540Y-47060929D01*
X10574216Y-47052423D01*
X10569706Y-47048890D01*
X10348425Y-46875526D01*
X10337217Y-46865596D01*
X10134403Y-46662782D01*
X10124473Y-46651574D01*
X10122243Y-46648727D01*
X9947572Y-46425777D01*
X9939070Y-46413459D01*
X9790679Y-46167988D01*
X9783721Y-46154731D01*
X9665999Y-45893164D01*
X9660697Y-45879183D01*
X9575362Y-45605335D01*
X9571779Y-45590798D01*
X9520075Y-45308660D01*
X9518270Y-45293795D01*
X9500725Y-45003737D01*
X9500499Y-44996250D01*
X9500499Y-44934108D01*
X9500500Y-42934108D01*
X9500500Y-42828034D01*
X9466789Y-42485750D01*
X9399691Y-42148427D01*
X9399690Y-42148426D01*
X9399690Y-42148422D01*
X9299850Y-41819295D01*
X9168231Y-41501538D01*
X9006100Y-41198213D01*
X8815019Y-40912240D01*
X8596828Y-40646373D01*
X8596827Y-40646372D01*
X8596823Y-40646367D01*
X8353632Y-40403176D01*
X8087765Y-40184985D01*
X8087764Y-40184984D01*
X8087760Y-40184981D01*
X7801787Y-39993900D01*
X7801782Y-39993897D01*
X7801775Y-39993893D01*
X7498469Y-39831772D01*
X7498464Y-39831770D01*
X7180706Y-39700150D01*
X6851572Y-39600308D01*
X6514248Y-39533210D01*
X6514249Y-39533210D01*
X6256456Y-39507821D01*
X6171969Y-39499500D01*
X6065892Y-39499500D01*
X-5934108Y-39499500D01*
X-6000000Y-39499500D01*
X-6171969Y-39499500D01*
X-6250034Y-39507188D01*
X-6514250Y-39533210D01*
X-6851573Y-39600308D01*
X-7180707Y-39700150D01*
X-7498465Y-39831770D01*
X-7498470Y-39831772D01*
X-7801776Y-39993893D01*
X-7801794Y-39993904D01*
X-8087752Y-40184975D01*
X-8087766Y-40184985D01*
X-8353633Y-40403176D01*
X-8596824Y-40646367D01*
X-8815015Y-40912234D01*
X-8815025Y-40912248D01*
X-9006096Y-41198206D01*
X-9006107Y-41198224D01*
X-9168228Y-41501530D01*
X-9168230Y-41501535D01*
X-9299850Y-41819293D01*
X-9399692Y-42148427D01*
X-9466790Y-42485750D01*
X-9500500Y-42828034D01*
X-9500500Y-42934107D01*
X-9500501Y-44996265D01*
X-9500727Y-45003752D01*
X-9518272Y-45293794D01*
X-9520077Y-45308659D01*
X-9571781Y-45590798D01*
X-9575365Y-45605336D01*
X-9660694Y-45879167D01*
X-9666003Y-45893168D01*
X-9783725Y-46154736D01*
X-9790684Y-46167995D01*
X-9939072Y-46413459D01*
X-9947578Y-46425782D01*
X-10124474Y-46651573D01*
X-10134404Y-46662781D01*
X-10337219Y-46865596D01*
X-10348427Y-46875526D01*
X-10574218Y-47052422D01*
X-10586541Y-47060928D01*
X-10832005Y-47209316D01*
X-10845264Y-47216275D01*
X-11106832Y-47333997D01*
X-11120833Y-47339306D01*
X-11394664Y-47424635D01*
X-11409202Y-47428219D01*
X-11691341Y-47479923D01*
X-11706206Y-47481728D01*
X-11992513Y-47499047D01*
X-12007487Y-47499047D01*
X-12293795Y-47481728D01*
X-12308660Y-47479923D01*
X-12590799Y-47428219D01*
X-12605337Y-47424635D01*
X-12879168Y-47339306D01*
X-12893169Y-47333997D01*
X-13154737Y-47216275D01*
X-13167996Y-47209316D01*
X-13174284Y-47205515D01*
X-13413463Y-47060926D01*
X-13425781Y-47052423D01*
X-13651574Y-46875526D01*
X-13662782Y-46865596D01*
X-13865597Y-46662781D01*
X-13875527Y-46651573D01*
X-13995481Y-46498463D01*
X-14052427Y-46425776D01*
X-14060925Y-46413465D01*
X-14209321Y-46167988D01*
X-14216273Y-46154743D01*
X-14334000Y-45893163D01*
X-14339307Y-45879167D01*
X-14347904Y-45851579D01*
X-14424637Y-45605335D01*
X-14428220Y-45590798D01*
X-14479924Y-45308659D01*
X-14481729Y-45293794D01*
X-14499274Y-45003736D01*
X-14499500Y-44996249D01*
X-14499500Y44996250D01*
X-14499274Y45003737D01*
X-14481729Y45293795D01*
X-14479924Y45308660D01*
X-14467295Y45377571D01*
X-14428220Y45590803D01*
X-14424636Y45605337D01*
X-14415641Y45634203D01*
X-14339304Y45879178D01*
X-14334002Y45893159D01*
X-14216269Y46154751D01*
X-14209324Y46167984D01*
X-14060920Y46413474D01*
X-14052433Y46425770D01*
X-13875520Y46651583D01*
X-13865605Y46662774D01*
X-13662774Y46865605D01*
X-13651583Y46875520D01*
X-13425770Y47052433D01*
X-13413474Y47060920D01*
X-13167984Y47209324D01*
X-13154751Y47216269D01*
X-12893159Y47334002D01*
X-12879178Y47339304D01*
X-12605332Y47424638D01*
X-12590803Y47428220D01*
X-12308656Y47479925D01*
X-12293799Y47481729D01*
X-12003736Y47499274D01*
X-11996249Y47499500D01*
X-11934108Y47499500D01*
X-9065892Y47499500D01*
X-9004428Y47499500D01*
X-8995582Y47499184D01*
G37*
%TD.AperFunction*%
%TD*%
M02*
