M48
; DRILL file {KiCad 8.0.7-8.0.7-0~ubuntu24.04.1} date 2025-02-06T10:53:55+0300
; FORMAT={-:-/ absolute / inch / decimal}
; #@! TF.CreationDate,2025-02-06T10:53:55+03:00
; #@! TF.GenerationSoftware,Kicad,Pcbnew,8.0.7-8.0.7-0~ubuntu24.04.1
; #@! TF.FileFunction,Plated,1,2,PTH
FMAT,2
INCH
; #@! TA.AperFunction,Plated,PTH,ViaDrill
T1C0.0118
; #@! TA.AperFunction,Plated,PTH,ComponentDrill
T2C0.0197
; #@! TA.AperFunction,Plated,PTH,ViaDrill
T3C0.0236
; #@! TA.AperFunction,Plated,PTH,ComponentDrill
T4C0.0433
; #@! TA.AperFunction,Plated,PTH,ComponentDrill
T5C0.0551
; #@! TA.AperFunction,Plated,PTH,ComponentDrill
T6C0.1260
%
G90
G05
T1
X-1.1329Y0.4232
X-1.122Y-0.5197
X-1.0945Y-0.5354
X-1.0827Y0.3346
X-1.064Y-0.5197
X-1.063Y-0.0984
X-0.9646Y0.9449
X-0.888Y-0.3642
T2
X-1.4567Y1.3583
X-1.4567Y1.3189
X-1.4567Y1.2795
X-1.4567Y1.2402
X-1.4567Y1.2008
X-1.4567Y1.1614
X-1.4567Y1.122
X-1.4567Y1.0827
X-1.4567Y1.0433
X-1.4567Y1.0039
X-1.4567Y0.5709
X-1.4567Y0.5315
X-1.4567Y0.4921
X-1.4567Y0.4528
X-1.4567Y0.4134
X-1.4567Y0.374
X-1.4567Y0.3346
X-1.4567Y0.2953
X-1.4567Y0.2559
X-1.4567Y0.2165
T3
X-1.2598Y1.5748
X-1.1417Y1.5748
X-0.9435Y-0.0405
T4
X-0.4Y0.685
X-0.4Y0.5
X-0.4Y0.385
X-0.4Y0.2
X-0.4Y0.085
X-0.4Y-0.1
X-0.4Y-0.215
X-0.4Y-0.4
X-0.4Y-0.515
X-0.4Y-0.7
X-0.4Y-0.815
X-0.4Y-1.0
X-0.4Y-1.115
X-0.4Y-1.3
X-0.4Y-1.415
X-0.4Y-1.6
X0.0528Y0.5
X0.0528Y0.2
X0.0528Y-0.1
X0.0528Y-0.4
X0.0528Y-0.7
X0.0528Y-1.0
X0.0528Y-1.3
X0.0528Y-1.6
X0.3283Y0.5
X0.3283Y0.2
X0.3283Y-0.1
X0.3283Y-0.4
X0.3283Y-0.7
X0.3283Y-1.0
X0.3283Y-1.3
X0.3283Y-1.6
T5
X1.378Y1.6929
X1.378Y1.5551
X1.378Y1.4173
X1.378Y1.2795
X1.378Y1.1417
X1.378Y1.0039
X1.378Y0.8661
X1.378Y0.7283
X1.378Y0.5906
X1.378Y0.4528
X1.378Y0.2756
X1.378Y0.1378
X1.378Y0.0
X1.378Y-0.1378
X1.378Y-0.2756
X1.378Y-0.4134
X1.378Y-0.5512
X1.378Y-0.689
X1.378Y-0.8268
X1.378Y-0.9646
T6
X0.8661Y-1.811
M30
