%TF.GenerationSoftware,KiCad,Pcbnew,9.0.6*%
%TF.CreationDate,2025-11-01T18:41:32+03:00*%
%TF.ProjectId,PMPS-20W,504d5053-2d32-4305-972e-6b696361645f,rev?*%
%TF.SameCoordinates,Original*%
%TF.FileFunction,Legend,Top*%
%TF.FilePolarity,Positive*%
%FSLAX46Y46*%
G04 Gerber Fmt 4.6, Leading zero omitted, Abs format (unit mm)*
G04 Created by KiCad (PCBNEW 9.0.6) date 2025-11-01 18:41:32*
%MOMM*%
%LPD*%
G01*
G04 APERTURE LIST*
%ADD10C,0.200000*%
%ADD11C,0.150000*%
%ADD12C,0.254000*%
%ADD13C,0.100000*%
%ADD14C,0.120000*%
%ADD15C,0.300000*%
%ADD16C,0.152400*%
%ADD17C,0.400000*%
%ADD18C,0.101600*%
G04 APERTURE END LIST*
D10*
G36*
X-27481738Y-35778075D02*
G01*
X-32345697Y-35778075D01*
X-32345697Y-35068091D01*
X-32212364Y-35068091D01*
X-32212364Y-35107109D01*
X-32197432Y-35143157D01*
X-32169842Y-35170747D01*
X-32133794Y-35185679D01*
X-32114285Y-35187600D01*
X-31757142Y-35187600D01*
X-31757142Y-35544742D01*
X-31755221Y-35564251D01*
X-31740289Y-35600299D01*
X-31712699Y-35627889D01*
X-31676651Y-35642821D01*
X-31637633Y-35642821D01*
X-31601585Y-35627889D01*
X-31573995Y-35600299D01*
X-31559063Y-35564251D01*
X-31557142Y-35544742D01*
X-31557142Y-35525233D01*
X-30840936Y-35525233D01*
X-30840936Y-35564251D01*
X-30826004Y-35600299D01*
X-30798414Y-35627889D01*
X-30762366Y-35642821D01*
X-30742857Y-35644742D01*
X-30000000Y-35644742D01*
X-29980491Y-35642821D01*
X-29944443Y-35627889D01*
X-29916853Y-35600299D01*
X-29901921Y-35564251D01*
X-29901921Y-35525233D01*
X-29916853Y-35489185D01*
X-29944443Y-35461595D01*
X-29980491Y-35446663D01*
X-30000000Y-35444742D01*
X-30501435Y-35444742D01*
X-30188928Y-35132235D01*
X-29642072Y-35132235D01*
X-29640936Y-35148219D01*
X-29640936Y-35164251D01*
X-29639561Y-35167571D01*
X-29639306Y-35171155D01*
X-29632139Y-35185490D01*
X-29626004Y-35200299D01*
X-29623464Y-35202839D01*
X-29621856Y-35206054D01*
X-29609745Y-35216558D01*
X-29598414Y-35227889D01*
X-29595096Y-35229263D01*
X-29592380Y-35231619D01*
X-29577171Y-35236688D01*
X-29562366Y-35242821D01*
X-29557266Y-35243323D01*
X-29555364Y-35243957D01*
X-29552731Y-35243769D01*
X-29542857Y-35244742D01*
X-29071428Y-35244742D01*
X-29071428Y-35544742D01*
X-29069507Y-35564251D01*
X-29054575Y-35600299D01*
X-29026985Y-35627889D01*
X-28990937Y-35642821D01*
X-28951919Y-35642821D01*
X-28915871Y-35627889D01*
X-28888281Y-35600299D01*
X-28873349Y-35564251D01*
X-28871428Y-35544742D01*
X-28871428Y-35244742D01*
X-28800000Y-35244742D01*
X-28780491Y-35242821D01*
X-28744443Y-35227889D01*
X-28716853Y-35200299D01*
X-28701921Y-35164251D01*
X-28701921Y-35125233D01*
X-28716853Y-35089185D01*
X-28744443Y-35061595D01*
X-28780491Y-35046663D01*
X-28800000Y-35044742D01*
X-28871428Y-35044742D01*
X-28871428Y-34744742D01*
X-28873349Y-34725233D01*
X-28888281Y-34689185D01*
X-28915871Y-34661595D01*
X-28951919Y-34646663D01*
X-28990937Y-34646663D01*
X-29026985Y-34661595D01*
X-29054575Y-34689185D01*
X-29069507Y-34725233D01*
X-29071428Y-34744742D01*
X-29071428Y-35044742D01*
X-29404115Y-35044742D01*
X-29174950Y-34357249D01*
X-28613501Y-34357249D01*
X-28609154Y-34376365D01*
X-28209154Y-35576365D01*
X-28201163Y-35594265D01*
X-28196480Y-35599664D01*
X-28193285Y-35606054D01*
X-28183814Y-35614269D01*
X-28175598Y-35623741D01*
X-28169209Y-35626935D01*
X-28163809Y-35631619D01*
X-28151912Y-35635584D01*
X-28140699Y-35641191D01*
X-28133572Y-35641697D01*
X-28126793Y-35643957D01*
X-28114286Y-35643068D01*
X-28101779Y-35643957D01*
X-28095001Y-35641697D01*
X-28087873Y-35641191D01*
X-28076661Y-35635584D01*
X-28064763Y-35631619D01*
X-28059364Y-35626935D01*
X-28052974Y-35623741D01*
X-28044757Y-35614266D01*
X-28035287Y-35606053D01*
X-28032094Y-35599665D01*
X-28027409Y-35594265D01*
X-28019418Y-35576365D01*
X-27619418Y-34376365D01*
X-27615071Y-34357250D01*
X-27617837Y-34318329D01*
X-27635287Y-34283431D01*
X-27664763Y-34257865D01*
X-27701779Y-34245527D01*
X-27740699Y-34248293D01*
X-27775598Y-34265743D01*
X-27801163Y-34295219D01*
X-27809154Y-34313119D01*
X-28114286Y-35228515D01*
X-28419418Y-34313119D01*
X-28427409Y-34295219D01*
X-28452974Y-34265743D01*
X-28487873Y-34248293D01*
X-28526793Y-34245527D01*
X-28563809Y-34257865D01*
X-28593285Y-34283430D01*
X-28610735Y-34318329D01*
X-28613501Y-34357249D01*
X-29174950Y-34357249D01*
X-29162275Y-34319223D01*
X-29157928Y-34300107D01*
X-29160694Y-34261187D01*
X-29178144Y-34226288D01*
X-29207620Y-34200723D01*
X-29244636Y-34188385D01*
X-29283556Y-34191151D01*
X-29318455Y-34208601D01*
X-29344020Y-34238077D01*
X-29352011Y-34255977D01*
X-29637725Y-35113119D01*
X-29639925Y-35122790D01*
X-29640936Y-35125233D01*
X-29640936Y-35127239D01*
X-29642072Y-35132235D01*
X-30188928Y-35132235D01*
X-29986432Y-34929739D01*
X-29973996Y-34914585D01*
X-29972622Y-34911266D01*
X-29970266Y-34908551D01*
X-29962275Y-34890651D01*
X-29905132Y-34719223D01*
X-29902933Y-34709550D01*
X-29901921Y-34707109D01*
X-29901573Y-34703571D01*
X-29900785Y-34700108D01*
X-29900973Y-34697473D01*
X-29900000Y-34687600D01*
X-29900000Y-34573314D01*
X-29901921Y-34553805D01*
X-29903297Y-34550484D01*
X-29903551Y-34546901D01*
X-29910557Y-34528593D01*
X-29967700Y-34414307D01*
X-29972985Y-34405910D01*
X-29973995Y-34403472D01*
X-29976249Y-34400726D01*
X-29978143Y-34397716D01*
X-29980140Y-34395984D01*
X-29986431Y-34388318D01*
X-30043574Y-34331175D01*
X-30051241Y-34324882D01*
X-30052973Y-34322885D01*
X-30055983Y-34320990D01*
X-30058727Y-34318738D01*
X-30061166Y-34317727D01*
X-30069563Y-34312442D01*
X-30183850Y-34255299D01*
X-30202158Y-34248293D01*
X-30205742Y-34248038D01*
X-30209062Y-34246663D01*
X-30228571Y-34244742D01*
X-30514285Y-34244742D01*
X-30533794Y-34246663D01*
X-30537115Y-34248038D01*
X-30540698Y-34248293D01*
X-30559006Y-34255299D01*
X-30673292Y-34312442D01*
X-30681689Y-34317727D01*
X-30684129Y-34318738D01*
X-30686875Y-34320991D01*
X-30689883Y-34322885D01*
X-30691616Y-34324882D01*
X-30699282Y-34331175D01*
X-30756425Y-34388317D01*
X-30768861Y-34403471D01*
X-30783793Y-34439519D01*
X-30783793Y-34478537D01*
X-30768861Y-34514585D01*
X-30741271Y-34542175D01*
X-30705223Y-34557107D01*
X-30666205Y-34557107D01*
X-30630157Y-34542175D01*
X-30615003Y-34529739D01*
X-30569336Y-34484070D01*
X-30490677Y-34444742D01*
X-30252178Y-34444742D01*
X-30173521Y-34484070D01*
X-30139330Y-34518262D01*
X-30100000Y-34596921D01*
X-30100000Y-34671372D01*
X-30144546Y-34805008D01*
X-30813568Y-35474031D01*
X-30826004Y-35489185D01*
X-30840936Y-35525233D01*
X-31557142Y-35525233D01*
X-31557142Y-35187600D01*
X-31199999Y-35187600D01*
X-31180490Y-35185679D01*
X-31144442Y-35170747D01*
X-31116852Y-35143157D01*
X-31101920Y-35107109D01*
X-31101920Y-35068091D01*
X-31116852Y-35032043D01*
X-31144442Y-35004453D01*
X-31180490Y-34989521D01*
X-31199999Y-34987600D01*
X-31557142Y-34987600D01*
X-31557142Y-34630457D01*
X-31559063Y-34610948D01*
X-31573995Y-34574900D01*
X-31601585Y-34547310D01*
X-31637633Y-34532378D01*
X-31676651Y-34532378D01*
X-31712699Y-34547310D01*
X-31740289Y-34574900D01*
X-31755221Y-34610948D01*
X-31757142Y-34630457D01*
X-31757142Y-34987600D01*
X-32114285Y-34987600D01*
X-32133794Y-34989521D01*
X-32169842Y-35004453D01*
X-32197432Y-35032043D01*
X-32212364Y-35068091D01*
X-32345697Y-35068091D01*
X-32345697Y-34055052D01*
X-27481738Y-34055052D01*
X-27481738Y-35778075D01*
G37*
G36*
X33341437Y17457639D02*
G01*
X28063993Y17457639D01*
X28063993Y18448243D01*
X28175104Y18448243D01*
X28175104Y18409225D01*
X28190036Y18373177D01*
X28217626Y18345587D01*
X28253674Y18330655D01*
X28273183Y18328734D01*
X28554135Y18328734D01*
X28554135Y18047781D01*
X28556056Y18028272D01*
X28570988Y17992224D01*
X28598578Y17964634D01*
X28634626Y17949702D01*
X28673644Y17949702D01*
X28709692Y17964634D01*
X28737282Y17992224D01*
X28752214Y18028272D01*
X28754135Y18047781D01*
X28754135Y18328734D01*
X29035088Y18328734D01*
X29054597Y18330655D01*
X29090645Y18345587D01*
X29118235Y18373177D01*
X29133167Y18409225D01*
X29133167Y18448243D01*
X29118235Y18484291D01*
X29090645Y18511881D01*
X29054597Y18526813D01*
X29035088Y18528734D01*
X28754135Y18528734D01*
X28754135Y18561938D01*
X29364126Y18561938D01*
X29365580Y18557120D01*
X29365580Y18552082D01*
X29371176Y18538573D01*
X29375397Y18524583D01*
X29378584Y18520687D01*
X29380512Y18516034D01*
X29390848Y18505698D01*
X29400104Y18494385D01*
X29404541Y18492005D01*
X29408102Y18488444D01*
X29421607Y18482850D01*
X29434488Y18475940D01*
X29439497Y18475440D01*
X29444150Y18473512D01*
X29458771Y18473512D01*
X29473312Y18472058D01*
X29478131Y18473512D01*
X29483168Y18473512D01*
X29496677Y18479109D01*
X29510667Y18483329D01*
X29514563Y18486517D01*
X29519216Y18488444D01*
X29534370Y18500880D01*
X29570513Y18537025D01*
X29630123Y18566829D01*
X29821004Y18566829D01*
X29880613Y18537024D01*
X29905282Y18512356D01*
X29935087Y18452746D01*
X29935087Y18261865D01*
X29905282Y18202257D01*
X29880613Y18177587D01*
X29821004Y18147781D01*
X29630123Y18147781D01*
X29570513Y18177586D01*
X29534370Y18213730D01*
X29519217Y18226167D01*
X29483169Y18241098D01*
X29444151Y18241099D01*
X29408102Y18226168D01*
X29380512Y18198578D01*
X29365581Y18162530D01*
X29365580Y18123512D01*
X29380511Y18087463D01*
X29392948Y18072310D01*
X29440566Y18024690D01*
X29448234Y18018397D01*
X29449966Y18016400D01*
X29452974Y18014507D01*
X29455720Y18012253D01*
X29458160Y18011243D01*
X29466557Y18005957D01*
X29561794Y17958338D01*
X29580103Y17951332D01*
X29583686Y17951078D01*
X29587007Y17949702D01*
X29606516Y17947781D01*
X29844611Y17947781D01*
X29864120Y17949702D01*
X29867440Y17951078D01*
X29871024Y17951332D01*
X29889332Y17958338D01*
X29984570Y18005957D01*
X29992965Y18011242D01*
X29995407Y18012253D01*
X29998154Y18014509D01*
X30001160Y18016400D01*
X30002890Y18018395D01*
X30010560Y18024690D01*
X30058179Y18072310D01*
X30064471Y18079977D01*
X30066468Y18081708D01*
X30068361Y18084716D01*
X30070616Y18087463D01*
X30071627Y18089905D01*
X30076911Y18098299D01*
X30124530Y18193536D01*
X30131536Y18211845D01*
X30131790Y18215429D01*
X30133166Y18218749D01*
X30135087Y18238258D01*
X30135087Y18476353D01*
X30133166Y18495862D01*
X30131790Y18499183D01*
X30131536Y18502766D01*
X30124530Y18521075D01*
X30076911Y18616312D01*
X30071625Y18624709D01*
X30070615Y18627149D01*
X30068361Y18629895D01*
X30066468Y18632903D01*
X30064470Y18634636D01*
X30058178Y18642302D01*
X30010560Y18689921D01*
X30002889Y18696216D01*
X30001160Y18698210D01*
X29998152Y18700104D01*
X29995406Y18702357D01*
X29992966Y18703368D01*
X29984570Y18708653D01*
X29889332Y18756272D01*
X29871024Y18763278D01*
X29867440Y18763533D01*
X29864120Y18764908D01*
X29844611Y18766829D01*
X29606516Y18766829D01*
X29587007Y18764908D01*
X29583686Y18763533D01*
X29583349Y18763509D01*
X29601777Y18947781D01*
X29987468Y18947781D01*
X30006977Y18949702D01*
X30043025Y18964634D01*
X30070615Y18992224D01*
X30085547Y19028272D01*
X30085547Y19035274D01*
X30221587Y19035274D01*
X30225934Y19016158D01*
X30559267Y18016159D01*
X30567258Y17998258D01*
X30571941Y17992859D01*
X30575136Y17986469D01*
X30584607Y17978254D01*
X30592823Y17968782D01*
X30599211Y17965588D01*
X30604612Y17960904D01*
X30616513Y17956937D01*
X30627722Y17951333D01*
X30634846Y17950827D01*
X30641628Y17948566D01*
X30654137Y17949456D01*
X30666642Y17948566D01*
X30673420Y17950826D01*
X30680548Y17951332D01*
X30691764Y17956941D01*
X30703658Y17960905D01*
X30709055Y17965586D01*
X30715447Y17968782D01*
X30723665Y17978258D01*
X30733134Y17986470D01*
X30736327Y17992857D01*
X30741012Y17998258D01*
X30749003Y18016158D01*
X30918309Y18524077D01*
X31220802Y18524077D01*
X31220808Y18524043D01*
X31220802Y18523972D01*
X31220802Y18333496D01*
X31220808Y18333426D01*
X31220802Y18333391D01*
X31221749Y18323877D01*
X31222723Y18313987D01*
X31222737Y18313953D01*
X31222744Y18313884D01*
X31270363Y18075789D01*
X31272174Y18069841D01*
X31273553Y18063777D01*
X31321172Y17920921D01*
X31324060Y17914451D01*
X31326597Y17907822D01*
X31374216Y17812584D01*
X31377529Y17807321D01*
X31380454Y17801835D01*
X31475692Y17658978D01*
X31475736Y17658924D01*
X31475750Y17658891D01*
X31481930Y17651360D01*
X31488112Y17643811D01*
X31488141Y17643792D01*
X31488186Y17643737D01*
X31535805Y17596119D01*
X31550958Y17583682D01*
X31587007Y17568751D01*
X31626025Y17568751D01*
X31662073Y17583682D01*
X31689663Y17611272D01*
X31704594Y17647320D01*
X31704594Y17686338D01*
X31689663Y17722387D01*
X31677226Y17737540D01*
X31636608Y17778159D01*
X31550319Y17907592D01*
X31508659Y17990911D01*
X31483200Y18067290D01*
X31794152Y18067290D01*
X31794152Y18028272D01*
X31809084Y17992224D01*
X31836674Y17964634D01*
X31872722Y17949702D01*
X31892231Y17947781D01*
X32511278Y17947781D01*
X32530787Y17949702D01*
X32566835Y17964634D01*
X32594425Y17992224D01*
X32609357Y18028272D01*
X32609357Y18067290D01*
X32594425Y18103338D01*
X32566835Y18130928D01*
X32530787Y18145860D01*
X32511278Y18147781D01*
X32133653Y18147781D01*
X32534370Y18548499D01*
X32546806Y18563653D01*
X32548180Y18566972D01*
X32550536Y18569687D01*
X32558527Y18587587D01*
X32606146Y18730444D01*
X32608345Y18740117D01*
X32609357Y18742558D01*
X32609705Y18746096D01*
X32610493Y18749559D01*
X32610305Y18752194D01*
X32611278Y18762067D01*
X32611278Y18857305D01*
X32609357Y18876814D01*
X32607981Y18880135D01*
X32607727Y18883718D01*
X32600721Y18902027D01*
X32553102Y18997264D01*
X32547816Y19005661D01*
X32546806Y19008101D01*
X32544552Y19010847D01*
X32542659Y19013855D01*
X32540661Y19015588D01*
X32534369Y19023254D01*
X32486751Y19070873D01*
X32479080Y19077168D01*
X32477351Y19079162D01*
X32474343Y19081056D01*
X32471597Y19083309D01*
X32469157Y19084320D01*
X32460761Y19089605D01*
X32365523Y19137224D01*
X32347215Y19144230D01*
X32343631Y19144485D01*
X32340311Y19145860D01*
X32320802Y19147781D01*
X32082707Y19147781D01*
X32063198Y19145860D01*
X32059877Y19144485D01*
X32056294Y19144230D01*
X32037985Y19137224D01*
X31942748Y19089605D01*
X31934351Y19084320D01*
X31931911Y19083309D01*
X31929165Y19081056D01*
X31926157Y19079162D01*
X31924424Y19077165D01*
X31916758Y19070872D01*
X31869139Y19023254D01*
X31856703Y19008100D01*
X31841771Y18972052D01*
X31841771Y18933034D01*
X31856703Y18896986D01*
X31884293Y18869396D01*
X31920341Y18854464D01*
X31959359Y18854464D01*
X31995407Y18869396D01*
X32010561Y18881832D01*
X32046704Y18917977D01*
X32106314Y18947781D01*
X32297195Y18947781D01*
X32356804Y18917976D01*
X32381473Y18893308D01*
X32411278Y18833698D01*
X32411278Y18778294D01*
X32376256Y18673230D01*
X31821520Y18118492D01*
X31809084Y18103338D01*
X31794152Y18067290D01*
X31483200Y18067290D01*
X31465258Y18121115D01*
X31420802Y18343398D01*
X31420802Y18514070D01*
X31465258Y18736353D01*
X31508659Y18866557D01*
X31550320Y18949877D01*
X31636606Y19079308D01*
X31677226Y19119928D01*
X31689663Y19135081D01*
X31704594Y19171130D01*
X31704594Y19210148D01*
X32746533Y19210148D01*
X32746533Y19171130D01*
X32761465Y19135082D01*
X32773901Y19119928D01*
X32814518Y19079312D01*
X32900809Y18949874D01*
X32942468Y18866557D01*
X32985869Y18736355D01*
X33030326Y18514071D01*
X33030326Y18343397D01*
X32985869Y18121113D01*
X32942468Y17990911D01*
X32900810Y17907594D01*
X32814518Y17778157D01*
X32773901Y17737540D01*
X32761465Y17722386D01*
X32746533Y17686338D01*
X32746533Y17647320D01*
X32761465Y17611272D01*
X32789055Y17583682D01*
X32825103Y17568750D01*
X32864121Y17568750D01*
X32900169Y17583682D01*
X32915323Y17596118D01*
X32962941Y17643737D01*
X32962984Y17643790D01*
X32963016Y17643811D01*
X32969233Y17651405D01*
X32975378Y17658890D01*
X32975392Y17658925D01*
X32975436Y17658978D01*
X33070674Y17801835D01*
X33073597Y17807319D01*
X33076912Y17812584D01*
X33124531Y17907821D01*
X33127067Y17914450D01*
X33129956Y17920920D01*
X33177575Y18063777D01*
X33178953Y18069839D01*
X33180765Y18075788D01*
X33228384Y18313884D01*
X33228390Y18313953D01*
X33228405Y18313987D01*
X33229378Y18323877D01*
X33230326Y18333391D01*
X33230319Y18333426D01*
X33230326Y18333496D01*
X33230326Y18523972D01*
X33230319Y18524043D01*
X33230326Y18524077D01*
X33229378Y18533592D01*
X33228405Y18543481D01*
X33228390Y18543516D01*
X33228384Y18543584D01*
X33180765Y18781679D01*
X33178953Y18787629D01*
X33177575Y18793690D01*
X33129956Y18936547D01*
X33127067Y18943018D01*
X33124531Y18949646D01*
X33076912Y19044883D01*
X33073596Y19050151D01*
X33070674Y19055631D01*
X32975436Y19198490D01*
X32975392Y19198544D01*
X32975378Y19198578D01*
X32969233Y19206064D01*
X32963016Y19213657D01*
X32962984Y19213679D01*
X32962941Y19213731D01*
X32915323Y19261350D01*
X32900169Y19273786D01*
X32864121Y19288718D01*
X32825103Y19288718D01*
X32789055Y19273786D01*
X32761465Y19246196D01*
X32746533Y19210148D01*
X31704594Y19210148D01*
X31689663Y19246196D01*
X31662073Y19273786D01*
X31626025Y19288717D01*
X31587007Y19288717D01*
X31550958Y19273786D01*
X31535805Y19261349D01*
X31488186Y19213731D01*
X31488141Y19213677D01*
X31488112Y19213657D01*
X31481930Y19206109D01*
X31475750Y19198577D01*
X31475736Y19198545D01*
X31475692Y19198490D01*
X31380454Y19055632D01*
X31377529Y19050147D01*
X31374216Y19044883D01*
X31326597Y18949645D01*
X31324060Y18943017D01*
X31321172Y18936546D01*
X31273553Y18793690D01*
X31272174Y18787627D01*
X31270363Y18781678D01*
X31222744Y18543584D01*
X31222737Y18543516D01*
X31222723Y18543481D01*
X31221749Y18533592D01*
X31220802Y18524077D01*
X30918309Y18524077D01*
X31082336Y19016158D01*
X31086683Y19035273D01*
X31083917Y19074193D01*
X31066467Y19109092D01*
X31036991Y19134657D01*
X30999975Y19146996D01*
X30961055Y19144229D01*
X30926156Y19126780D01*
X30900591Y19097304D01*
X30892600Y19079403D01*
X30654135Y18364009D01*
X30415670Y19079404D01*
X30407679Y19097304D01*
X30382114Y19126780D01*
X30347215Y19144230D01*
X30308295Y19146996D01*
X30271279Y19134658D01*
X30241803Y19109093D01*
X30224353Y19074194D01*
X30221587Y19035274D01*
X30085547Y19035274D01*
X30085547Y19067290D01*
X30070615Y19103338D01*
X30043025Y19130928D01*
X30006977Y19145860D01*
X29987468Y19147781D01*
X29511278Y19147781D01*
X29504061Y19147071D01*
X29501625Y19147314D01*
X29499246Y19146597D01*
X29491769Y19145860D01*
X29478259Y19140264D01*
X29464270Y19136043D01*
X29460373Y19132856D01*
X29455721Y19130928D01*
X29445384Y19120592D01*
X29434072Y19111336D01*
X29431691Y19106899D01*
X29428131Y19103338D01*
X29422536Y19089833D01*
X29415627Y19076952D01*
X29414150Y19069588D01*
X29413199Y19067290D01*
X29413199Y19064840D01*
X29411774Y19057731D01*
X29364155Y18581541D01*
X29364126Y18561938D01*
X28754135Y18561938D01*
X28754135Y18809686D01*
X28752214Y18829195D01*
X28737282Y18865243D01*
X28709692Y18892833D01*
X28673644Y18907765D01*
X28634626Y18907765D01*
X28598578Y18892833D01*
X28570988Y18865243D01*
X28556056Y18829195D01*
X28554135Y18809686D01*
X28554135Y18528734D01*
X28273183Y18528734D01*
X28253674Y18526813D01*
X28217626Y18511881D01*
X28190036Y18484291D01*
X28175104Y18448243D01*
X28063993Y18448243D01*
X28063993Y19399829D01*
X33341437Y19399829D01*
X33341437Y17457639D01*
G37*
G36*
X-25866667Y-35776154D02*
G01*
X-27133333Y-35776154D01*
X-27133333Y-34344742D01*
X-27000000Y-34344742D01*
X-27000000Y-35544742D01*
X-26998079Y-35564251D01*
X-26983147Y-35600299D01*
X-26955557Y-35627889D01*
X-26919509Y-35642821D01*
X-26880491Y-35642821D01*
X-26844443Y-35627889D01*
X-26816853Y-35600299D01*
X-26801921Y-35564251D01*
X-26800000Y-35544742D01*
X-26800000Y-34795498D01*
X-26590618Y-35244174D01*
X-26586386Y-35251319D01*
X-26585506Y-35253737D01*
X-26583941Y-35255446D01*
X-26580627Y-35261040D01*
X-26569417Y-35271306D01*
X-26559155Y-35282512D01*
X-26555130Y-35284390D01*
X-26551852Y-35287392D01*
X-26537570Y-35292585D01*
X-26523797Y-35299013D01*
X-26519358Y-35299208D01*
X-26515183Y-35300726D01*
X-26500000Y-35300058D01*
X-26484817Y-35300726D01*
X-26480644Y-35299208D01*
X-26476202Y-35299013D01*
X-26462418Y-35292580D01*
X-26448148Y-35287391D01*
X-26444875Y-35284393D01*
X-26440845Y-35282513D01*
X-26430576Y-35271298D01*
X-26419373Y-35261040D01*
X-26416062Y-35255449D01*
X-26414493Y-35253737D01*
X-26413613Y-35251315D01*
X-26409382Y-35244174D01*
X-26200000Y-34795497D01*
X-26200000Y-35544742D01*
X-26198079Y-35564251D01*
X-26183147Y-35600299D01*
X-26155557Y-35627889D01*
X-26119509Y-35642821D01*
X-26080491Y-35642821D01*
X-26044443Y-35627889D01*
X-26016853Y-35600299D01*
X-26001921Y-35564251D01*
X-26000000Y-35544742D01*
X-26000000Y-34344742D01*
X-26001263Y-34331918D01*
X-26001159Y-34329559D01*
X-26001620Y-34328291D01*
X-26001921Y-34325233D01*
X-26008562Y-34309202D01*
X-26014493Y-34292890D01*
X-26016000Y-34291244D01*
X-26016853Y-34289185D01*
X-26029115Y-34276923D01*
X-26040845Y-34264114D01*
X-26042869Y-34263169D01*
X-26044443Y-34261595D01*
X-26060459Y-34254960D01*
X-26076202Y-34247614D01*
X-26078432Y-34247516D01*
X-26080491Y-34246663D01*
X-26097843Y-34246663D01*
X-26115183Y-34245901D01*
X-26117279Y-34246663D01*
X-26119509Y-34246663D01*
X-26135540Y-34253303D01*
X-26151852Y-34259235D01*
X-26153498Y-34260741D01*
X-26155557Y-34261595D01*
X-26167825Y-34273862D01*
X-26180627Y-34285587D01*
X-26182194Y-34288231D01*
X-26183147Y-34289185D01*
X-26184051Y-34291366D01*
X-26190618Y-34302453D01*
X-26500001Y-34965414D01*
X-26809382Y-34302453D01*
X-26815950Y-34291366D01*
X-26816853Y-34289185D01*
X-26817807Y-34288231D01*
X-26819373Y-34285587D01*
X-26832170Y-34273868D01*
X-26844443Y-34261595D01*
X-26846505Y-34260741D01*
X-26848148Y-34259236D01*
X-26864450Y-34253307D01*
X-26880491Y-34246663D01*
X-26882722Y-34246663D01*
X-26884817Y-34245901D01*
X-26902157Y-34246663D01*
X-26919509Y-34246663D01*
X-26921569Y-34247516D01*
X-26923797Y-34247614D01*
X-26939528Y-34254955D01*
X-26955557Y-34261595D01*
X-26957134Y-34263171D01*
X-26959155Y-34264115D01*
X-26970874Y-34276911D01*
X-26983147Y-34289185D01*
X-26984001Y-34291246D01*
X-26985506Y-34292890D01*
X-26991435Y-34309191D01*
X-26998079Y-34325233D01*
X-26998381Y-34328291D01*
X-26998841Y-34329559D01*
X-26998738Y-34331918D01*
X-27000000Y-34344742D01*
X-27133333Y-34344742D01*
X-27133333Y-34112568D01*
X-25866667Y-34112568D01*
X-25866667Y-35776154D01*
G37*
G36*
X33578086Y-36496824D02*
G01*
X32156352Y-36496824D01*
X32156352Y-36278728D01*
X32267463Y-36278728D01*
X32269140Y-36291921D01*
X32269140Y-36305222D01*
X32271579Y-36311110D01*
X32272383Y-36317435D01*
X32278983Y-36328984D01*
X32284072Y-36341270D01*
X32288579Y-36345777D01*
X32291742Y-36351312D01*
X32302256Y-36359454D01*
X32311662Y-36368860D01*
X32317552Y-36371299D01*
X32322591Y-36375202D01*
X32335419Y-36378700D01*
X32347710Y-36383792D01*
X32357687Y-36384774D01*
X32360234Y-36385469D01*
X32362201Y-36385218D01*
X32367219Y-36385713D01*
X33367219Y-36385713D01*
X33386728Y-36383792D01*
X33422776Y-36368860D01*
X33450366Y-36341270D01*
X33465298Y-36305222D01*
X33465298Y-36266204D01*
X33450366Y-36230156D01*
X33422776Y-36202566D01*
X33386728Y-36187634D01*
X33367219Y-36185713D01*
X32743775Y-36185713D01*
X33416833Y-35801109D01*
X33420943Y-35798190D01*
X33422776Y-35797432D01*
X33424642Y-35795565D01*
X33432818Y-35789762D01*
X33440962Y-35779245D01*
X33450366Y-35769842D01*
X33452804Y-35763954D01*
X33456709Y-35758913D01*
X33460208Y-35746080D01*
X33465298Y-35733794D01*
X33465298Y-35727418D01*
X33466975Y-35721269D01*
X33465298Y-35708075D01*
X33465298Y-35694776D01*
X33462858Y-35688887D01*
X33462055Y-35682563D01*
X33455454Y-35671013D01*
X33450366Y-35658728D01*
X33445858Y-35654220D01*
X33442696Y-35648686D01*
X33432179Y-35640541D01*
X33422776Y-35631138D01*
X33416888Y-35628699D01*
X33411847Y-35624795D01*
X33399014Y-35621295D01*
X33386728Y-35616206D01*
X33376750Y-35615223D01*
X33374204Y-35614529D01*
X33372236Y-35614779D01*
X33367219Y-35614285D01*
X32367219Y-35614285D01*
X32347710Y-35616206D01*
X32311662Y-35631138D01*
X32284072Y-35658728D01*
X32269140Y-35694776D01*
X32269140Y-35733794D01*
X32284072Y-35769842D01*
X32311662Y-35797432D01*
X32347710Y-35812364D01*
X32367219Y-35814285D01*
X32990663Y-35814285D01*
X32317605Y-36198889D01*
X32313494Y-36201807D01*
X32311662Y-36202566D01*
X32309795Y-36204432D01*
X32301620Y-36210236D01*
X32293477Y-36220750D01*
X32284072Y-36230156D01*
X32281632Y-36236046D01*
X32277730Y-36241085D01*
X32274231Y-36253913D01*
X32269140Y-36266204D01*
X32269140Y-36272579D01*
X32267463Y-36278728D01*
X32156352Y-36278728D01*
X32156352Y-35503174D01*
X33578086Y-35503174D01*
X33578086Y-36496824D01*
G37*
G36*
X33483509Y24836670D02*
G01*
X29397327Y24836670D01*
X29397327Y25448243D01*
X29508438Y25448243D01*
X29508438Y25409225D01*
X29523370Y25373177D01*
X29550960Y25345587D01*
X29587008Y25330655D01*
X29606517Y25328734D01*
X29887469Y25328734D01*
X29887469Y25047781D01*
X29889390Y25028272D01*
X29904322Y24992224D01*
X29931912Y24964634D01*
X29967960Y24949702D01*
X30006978Y24949702D01*
X30043026Y24964634D01*
X30070616Y24992224D01*
X30085548Y25028272D01*
X30087469Y25047781D01*
X30087469Y25067290D01*
X30651295Y25067290D01*
X30651295Y25028272D01*
X30666227Y24992224D01*
X30693817Y24964634D01*
X30729865Y24949702D01*
X30749374Y24947781D01*
X31368421Y24947781D01*
X31387930Y24949702D01*
X31423978Y24964634D01*
X31451568Y24992224D01*
X31466500Y25028272D01*
X31466500Y25067290D01*
X31451568Y25103338D01*
X31423978Y25130928D01*
X31387930Y25145860D01*
X31368421Y25147781D01*
X30990796Y25147781D01*
X31236636Y25393622D01*
X31650159Y25393622D01*
X31651295Y25377638D01*
X31651295Y25361606D01*
X31652670Y25358286D01*
X31652925Y25354702D01*
X31660092Y25340367D01*
X31666227Y25325558D01*
X31668767Y25323018D01*
X31670375Y25319803D01*
X31682486Y25309299D01*
X31693817Y25297968D01*
X31697135Y25296594D01*
X31699851Y25294238D01*
X31715060Y25289169D01*
X31729865Y25283036D01*
X31734965Y25282534D01*
X31736867Y25281900D01*
X31739500Y25282088D01*
X31749374Y25281115D01*
X32125564Y25281115D01*
X32125564Y25047781D01*
X32127485Y25028272D01*
X32142417Y24992224D01*
X32170007Y24964634D01*
X32206055Y24949702D01*
X32245073Y24949702D01*
X32281121Y24964634D01*
X32308711Y24992224D01*
X32323643Y25028272D01*
X32325564Y25047781D01*
X32325564Y25281115D01*
X32368421Y25281115D01*
X32387930Y25283036D01*
X32423978Y25297968D01*
X32451568Y25325558D01*
X32466500Y25361606D01*
X32466500Y25400624D01*
X32451568Y25436672D01*
X32423978Y25464262D01*
X32387930Y25479194D01*
X32368421Y25481115D01*
X32325564Y25481115D01*
X32325564Y25714448D01*
X32323643Y25733957D01*
X32308711Y25770005D01*
X32281121Y25797595D01*
X32245073Y25812527D01*
X32206055Y25812527D01*
X32170007Y25797595D01*
X32142417Y25770005D01*
X32127485Y25733957D01*
X32125564Y25714448D01*
X32125564Y25481115D01*
X31888116Y25481115D01*
X32072836Y26035274D01*
X32507302Y26035274D01*
X32511649Y26016158D01*
X32844982Y25016159D01*
X32852973Y24998258D01*
X32857656Y24992859D01*
X32860851Y24986469D01*
X32870322Y24978254D01*
X32878538Y24968782D01*
X32884926Y24965588D01*
X32890327Y24960904D01*
X32902228Y24956937D01*
X32913437Y24951333D01*
X32920561Y24950827D01*
X32927343Y24948566D01*
X32939852Y24949456D01*
X32952357Y24948566D01*
X32959135Y24950826D01*
X32966263Y24951332D01*
X32977479Y24956941D01*
X32989373Y24960905D01*
X32994770Y24965586D01*
X33001162Y24968782D01*
X33009380Y24978258D01*
X33018849Y24986470D01*
X33022042Y24992857D01*
X33026727Y24998258D01*
X33034718Y25016158D01*
X33368051Y26016158D01*
X33372398Y26035273D01*
X33369632Y26074193D01*
X33352182Y26109092D01*
X33322706Y26134657D01*
X33285690Y26146996D01*
X33246770Y26144229D01*
X33211871Y26126780D01*
X33186306Y26097304D01*
X33178315Y26079403D01*
X32939850Y25364009D01*
X32701385Y26079404D01*
X32693394Y26097304D01*
X32667829Y26126780D01*
X32632930Y26144230D01*
X32594010Y26146996D01*
X32556994Y26134658D01*
X32527518Y26109093D01*
X32510068Y26074194D01*
X32507302Y26035274D01*
X32072836Y26035274D01*
X32082337Y26063777D01*
X32086684Y26082892D01*
X32083918Y26121812D01*
X32066468Y26156711D01*
X32036992Y26182276D01*
X31999976Y26194615D01*
X31961056Y26191848D01*
X31926157Y26174399D01*
X31900592Y26144923D01*
X31892601Y26127022D01*
X31654506Y25412738D01*
X31652306Y25403067D01*
X31651295Y25400624D01*
X31651295Y25398618D01*
X31650159Y25393622D01*
X31236636Y25393622D01*
X31391513Y25548499D01*
X31403949Y25563653D01*
X31405323Y25566972D01*
X31407679Y25569687D01*
X31415670Y25587587D01*
X31463289Y25730444D01*
X31465488Y25740117D01*
X31466500Y25742558D01*
X31466848Y25746096D01*
X31467636Y25749559D01*
X31467448Y25752194D01*
X31468421Y25762067D01*
X31468421Y25857305D01*
X31466500Y25876814D01*
X31465124Y25880135D01*
X31464870Y25883718D01*
X31457864Y25902027D01*
X31410245Y25997264D01*
X31404959Y26005661D01*
X31403949Y26008101D01*
X31401695Y26010847D01*
X31399802Y26013855D01*
X31397804Y26015588D01*
X31391512Y26023254D01*
X31343894Y26070873D01*
X31336223Y26077168D01*
X31334494Y26079162D01*
X31331486Y26081056D01*
X31328740Y26083309D01*
X31326300Y26084320D01*
X31317904Y26089605D01*
X31222666Y26137224D01*
X31204358Y26144230D01*
X31200774Y26144485D01*
X31197454Y26145860D01*
X31177945Y26147781D01*
X30939850Y26147781D01*
X30920341Y26145860D01*
X30917020Y26144485D01*
X30913437Y26144230D01*
X30895128Y26137224D01*
X30799891Y26089605D01*
X30791494Y26084320D01*
X30789054Y26083309D01*
X30786308Y26081056D01*
X30783300Y26079162D01*
X30781567Y26077165D01*
X30773901Y26070872D01*
X30726282Y26023254D01*
X30713846Y26008100D01*
X30698914Y25972052D01*
X30698914Y25933034D01*
X30713846Y25896986D01*
X30741436Y25869396D01*
X30777484Y25854464D01*
X30816502Y25854464D01*
X30852550Y25869396D01*
X30867704Y25881832D01*
X30903847Y25917977D01*
X30963457Y25947781D01*
X31154338Y25947781D01*
X31213947Y25917976D01*
X31238616Y25893308D01*
X31268421Y25833698D01*
X31268421Y25778294D01*
X31233399Y25673230D01*
X30678663Y25118492D01*
X30666227Y25103338D01*
X30651295Y25067290D01*
X30087469Y25067290D01*
X30087469Y25328734D01*
X30368422Y25328734D01*
X30387931Y25330655D01*
X30423979Y25345587D01*
X30451569Y25373177D01*
X30466501Y25409225D01*
X30466501Y25448243D01*
X30451569Y25484291D01*
X30423979Y25511881D01*
X30387931Y25526813D01*
X30368422Y25528734D01*
X30087469Y25528734D01*
X30087469Y25809686D01*
X30085548Y25829195D01*
X30070616Y25865243D01*
X30043026Y25892833D01*
X30006978Y25907765D01*
X29967960Y25907765D01*
X29931912Y25892833D01*
X29904322Y25865243D01*
X29889390Y25829195D01*
X29887469Y25809686D01*
X29887469Y25528734D01*
X29606517Y25528734D01*
X29587008Y25526813D01*
X29550960Y25511881D01*
X29523370Y25484291D01*
X29508438Y25448243D01*
X29397327Y25448243D01*
X29397327Y26305726D01*
X33483509Y26305726D01*
X33483509Y24836670D01*
G37*
G36*
X32736554Y-39772662D02*
G01*
X32761223Y-39797330D01*
X32791028Y-39856940D01*
X32791028Y-40114285D01*
X32467219Y-40114285D01*
X32467219Y-39856940D01*
X32497024Y-39797330D01*
X32521692Y-39772661D01*
X32581302Y-39742857D01*
X32676945Y-39742857D01*
X32736554Y-39772662D01*
G37*
G36*
X33578330Y-40425396D02*
G01*
X32156108Y-40425396D01*
X32156108Y-39833333D01*
X32267219Y-39833333D01*
X32267219Y-40214285D01*
X32269140Y-40233794D01*
X32284072Y-40269842D01*
X32311662Y-40297432D01*
X32347710Y-40312364D01*
X32367219Y-40314285D01*
X33367219Y-40314285D01*
X33386728Y-40312364D01*
X33422776Y-40297432D01*
X33450366Y-40269842D01*
X33465298Y-40233794D01*
X33465298Y-40194776D01*
X33450366Y-40158728D01*
X33422776Y-40131138D01*
X33386728Y-40116206D01*
X33367219Y-40114285D01*
X32991028Y-40114285D01*
X32991028Y-39833333D01*
X32989107Y-39813824D01*
X32987731Y-39810503D01*
X32987477Y-39806920D01*
X32980471Y-39788611D01*
X32932852Y-39693374D01*
X32927566Y-39684977D01*
X32926556Y-39682537D01*
X32924302Y-39679791D01*
X32922409Y-39676783D01*
X32920411Y-39675050D01*
X32914119Y-39667384D01*
X32866501Y-39619765D01*
X32858830Y-39613470D01*
X32857101Y-39611476D01*
X32854093Y-39609582D01*
X32851347Y-39607329D01*
X32848907Y-39606318D01*
X32840511Y-39601033D01*
X32745273Y-39553414D01*
X32726965Y-39546408D01*
X32723381Y-39546153D01*
X32720061Y-39544778D01*
X32700552Y-39542857D01*
X32557695Y-39542857D01*
X32538186Y-39544778D01*
X32534865Y-39546153D01*
X32531282Y-39546408D01*
X32512973Y-39553414D01*
X32417736Y-39601033D01*
X32409339Y-39606318D01*
X32406899Y-39607329D01*
X32404153Y-39609582D01*
X32401145Y-39611476D01*
X32399412Y-39613473D01*
X32391746Y-39619766D01*
X32344127Y-39667384D01*
X32337832Y-39675054D01*
X32335838Y-39676784D01*
X32333944Y-39679791D01*
X32331691Y-39682538D01*
X32330680Y-39684977D01*
X32325395Y-39693374D01*
X32277776Y-39788612D01*
X32270770Y-39806920D01*
X32270515Y-39810503D01*
X32269140Y-39813824D01*
X32267219Y-39833333D01*
X32156108Y-39833333D01*
X32156108Y-38738095D01*
X32267219Y-38738095D01*
X32267219Y-39214285D01*
X32269140Y-39233794D01*
X32284072Y-39269842D01*
X32311662Y-39297432D01*
X32347710Y-39312364D01*
X32367219Y-39314285D01*
X33367219Y-39314285D01*
X33386728Y-39312364D01*
X33422776Y-39297432D01*
X33450366Y-39269842D01*
X33465298Y-39233794D01*
X33467219Y-39214285D01*
X33467219Y-38738095D01*
X33465298Y-38718586D01*
X33450366Y-38682538D01*
X33422776Y-38654948D01*
X33386728Y-38640016D01*
X33347710Y-38640016D01*
X33311662Y-38654948D01*
X33284072Y-38682538D01*
X33269140Y-38718586D01*
X33267219Y-38738095D01*
X33267219Y-39114285D01*
X32943409Y-39114285D01*
X32943409Y-38880952D01*
X32941488Y-38861443D01*
X32926556Y-38825395D01*
X32898966Y-38797805D01*
X32862918Y-38782873D01*
X32823900Y-38782873D01*
X32787852Y-38797805D01*
X32760262Y-38825395D01*
X32745330Y-38861443D01*
X32743409Y-38880952D01*
X32743409Y-39114285D01*
X32467219Y-39114285D01*
X32467219Y-38738095D01*
X32465298Y-38718586D01*
X32450366Y-38682538D01*
X32422776Y-38654948D01*
X32386728Y-38640016D01*
X32347710Y-38640016D01*
X32311662Y-38654948D01*
X32284072Y-38682538D01*
X32269140Y-38718586D01*
X32267219Y-38738095D01*
X32156108Y-38738095D01*
X32156108Y-38528905D01*
X33578330Y-38528905D01*
X33578330Y-40425396D01*
G37*
G36*
X-25516491Y23836670D02*
G01*
X-30078863Y23836670D01*
X-30078863Y24448243D01*
X-29967752Y24448243D01*
X-29967752Y24409225D01*
X-29952820Y24373177D01*
X-29925230Y24345587D01*
X-29889182Y24330655D01*
X-29869673Y24328734D01*
X-29588721Y24328734D01*
X-29588721Y24047781D01*
X-29586800Y24028272D01*
X-29571868Y23992224D01*
X-29544278Y23964634D01*
X-29508230Y23949702D01*
X-29469212Y23949702D01*
X-29433164Y23964634D01*
X-29405574Y23992224D01*
X-29390642Y24028272D01*
X-29388721Y24047781D01*
X-29388721Y24328734D01*
X-29107768Y24328734D01*
X-29088259Y24330655D01*
X-29052211Y24345587D01*
X-29024621Y24373177D01*
X-29009689Y24409225D01*
X-29009689Y24448243D01*
X-29024621Y24484291D01*
X-29052211Y24511881D01*
X-29088259Y24526813D01*
X-29107768Y24528734D01*
X-29388721Y24528734D01*
X-29388721Y24809686D01*
X-29390642Y24829195D01*
X-29405574Y24865243D01*
X-29433164Y24892833D01*
X-29469212Y24907765D01*
X-29508230Y24907765D01*
X-29544278Y24892833D01*
X-29571868Y24865243D01*
X-29586800Y24829195D01*
X-29588721Y24809686D01*
X-29588721Y24528734D01*
X-29869673Y24528734D01*
X-29889182Y24526813D01*
X-29925230Y24511881D01*
X-29952820Y24484291D01*
X-29967752Y24448243D01*
X-30078863Y24448243D01*
X-30078863Y25067290D01*
X-28824895Y25067290D01*
X-28824895Y25028272D01*
X-28809963Y24992224D01*
X-28782373Y24964634D01*
X-28746325Y24949702D01*
X-28726816Y24947781D01*
X-28328146Y24947781D01*
X-28516360Y24732679D01*
X-28522390Y24724246D01*
X-28524249Y24722386D01*
X-28524980Y24720623D01*
X-28527761Y24716732D01*
X-28532966Y24701344D01*
X-28539181Y24686338D01*
X-28539181Y24682965D01*
X-28540261Y24679771D01*
X-28539181Y24663569D01*
X-28539181Y24647320D01*
X-28537891Y24644205D01*
X-28537666Y24640839D01*
X-28530466Y24626279D01*
X-28524249Y24611272D01*
X-28521865Y24608888D01*
X-28520369Y24605864D01*
X-28508144Y24595167D01*
X-28496659Y24583682D01*
X-28493545Y24582392D01*
X-28491005Y24580170D01*
X-28475617Y24574966D01*
X-28460611Y24568750D01*
X-28455852Y24568282D01*
X-28454044Y24567670D01*
X-28451420Y24567845D01*
X-28441102Y24566829D01*
X-28321852Y24566829D01*
X-28262243Y24537024D01*
X-28237574Y24512356D01*
X-28207769Y24452746D01*
X-28207769Y24261865D01*
X-28237574Y24202257D01*
X-28262243Y24177587D01*
X-28321852Y24147781D01*
X-28560352Y24147781D01*
X-28619962Y24177586D01*
X-28656105Y24213730D01*
X-28671258Y24226167D01*
X-28707306Y24241098D01*
X-28746324Y24241099D01*
X-28782373Y24226168D01*
X-28809963Y24198578D01*
X-28824894Y24162530D01*
X-28824895Y24123512D01*
X-28809964Y24087463D01*
X-28797527Y24072310D01*
X-28749909Y24024690D01*
X-28742241Y24018397D01*
X-28740509Y24016400D01*
X-28737501Y24014507D01*
X-28734755Y24012253D01*
X-28732315Y24011243D01*
X-28723918Y24005957D01*
X-28628681Y23958338D01*
X-28610372Y23951332D01*
X-28606789Y23951078D01*
X-28603468Y23949702D01*
X-28583959Y23947781D01*
X-28298245Y23947781D01*
X-28278736Y23949702D01*
X-28275416Y23951078D01*
X-28271832Y23951332D01*
X-28253524Y23958338D01*
X-28158286Y24005957D01*
X-28149891Y24011242D01*
X-28147449Y24012253D01*
X-28144702Y24014509D01*
X-28141696Y24016400D01*
X-28139966Y24018395D01*
X-28132296Y24024690D01*
X-28084677Y24072310D01*
X-28078385Y24079977D01*
X-28076388Y24081708D01*
X-28074495Y24084716D01*
X-28072240Y24087463D01*
X-28071229Y24089905D01*
X-28065945Y24098299D01*
X-28057640Y24114909D01*
X-27824895Y24114909D01*
X-27824895Y24075891D01*
X-27818432Y24060289D01*
X-27809963Y24039842D01*
X-27809959Y24039838D01*
X-27797527Y24024689D01*
X-27749908Y23977071D01*
X-27734755Y23964634D01*
X-27725752Y23960905D01*
X-27698706Y23949702D01*
X-27659688Y23949702D01*
X-27623640Y23964634D01*
X-27608486Y23977070D01*
X-27560868Y24024689D01*
X-27548431Y24039842D01*
X-27541679Y24056144D01*
X-27533500Y24075890D01*
X-27533499Y24114908D01*
X-27548430Y24150957D01*
X-27560867Y24166110D01*
X-27608486Y24213730D01*
X-27623639Y24226167D01*
X-27638571Y24232352D01*
X-27659688Y24241099D01*
X-27698706Y24241099D01*
X-27709264Y24236726D01*
X-27734754Y24226168D01*
X-27734755Y24226167D01*
X-27749909Y24213730D01*
X-27797527Y24166110D01*
X-27809964Y24150957D01*
X-27819977Y24126781D01*
X-27824895Y24114909D01*
X-28057640Y24114909D01*
X-28018326Y24193536D01*
X-28011320Y24211845D01*
X-28011066Y24215429D01*
X-28009690Y24218749D01*
X-28007769Y24238258D01*
X-28007769Y24476353D01*
X-28009690Y24495862D01*
X-28011066Y24499183D01*
X-28011320Y24502766D01*
X-28018326Y24521075D01*
X-28065945Y24616312D01*
X-28071231Y24624709D01*
X-28072241Y24627149D01*
X-28074495Y24629895D01*
X-28076388Y24632903D01*
X-28078386Y24634636D01*
X-28084678Y24642302D01*
X-28132296Y24689921D01*
X-28139967Y24696216D01*
X-28141696Y24698210D01*
X-28144704Y24700104D01*
X-28147450Y24702357D01*
X-28149890Y24703368D01*
X-28158286Y24708653D01*
X-28237134Y24748077D01*
X-28032511Y24981931D01*
X-28026482Y24990365D01*
X-28024622Y24992224D01*
X-28023892Y24993988D01*
X-28021110Y24997878D01*
X-28015906Y25013267D01*
X-28009690Y25028272D01*
X-28009690Y25031646D01*
X-28008610Y25034839D01*
X-28009690Y25051042D01*
X-28009690Y25067290D01*
X-27396324Y25067290D01*
X-27396324Y25028272D01*
X-27381392Y24992224D01*
X-27353802Y24964634D01*
X-27317754Y24949702D01*
X-27298245Y24947781D01*
X-26899575Y24947781D01*
X-27087789Y24732679D01*
X-27093819Y24724246D01*
X-27095678Y24722386D01*
X-27096409Y24720623D01*
X-27099190Y24716732D01*
X-27104395Y24701344D01*
X-27110610Y24686338D01*
X-27110610Y24682965D01*
X-27111690Y24679771D01*
X-27110610Y24663569D01*
X-27110610Y24647320D01*
X-27109320Y24644205D01*
X-27109095Y24640839D01*
X-27101895Y24626279D01*
X-27095678Y24611272D01*
X-27093294Y24608888D01*
X-27091798Y24605864D01*
X-27079573Y24595167D01*
X-27068088Y24583682D01*
X-27064974Y24582392D01*
X-27062434Y24580170D01*
X-27047046Y24574966D01*
X-27032040Y24568750D01*
X-27027281Y24568282D01*
X-27025473Y24567670D01*
X-27022849Y24567845D01*
X-27012531Y24566829D01*
X-26893281Y24566829D01*
X-26833672Y24537024D01*
X-26809003Y24512356D01*
X-26779198Y24452746D01*
X-26779198Y24261865D01*
X-26809003Y24202257D01*
X-26833672Y24177587D01*
X-26893281Y24147781D01*
X-27131781Y24147781D01*
X-27191391Y24177586D01*
X-27227534Y24213730D01*
X-27242687Y24226167D01*
X-27278735Y24241098D01*
X-27317753Y24241099D01*
X-27353802Y24226168D01*
X-27381392Y24198578D01*
X-27396323Y24162530D01*
X-27396324Y24123512D01*
X-27381393Y24087463D01*
X-27368956Y24072310D01*
X-27321338Y24024690D01*
X-27313670Y24018397D01*
X-27311938Y24016400D01*
X-27308930Y24014507D01*
X-27306184Y24012253D01*
X-27303744Y24011243D01*
X-27295347Y24005957D01*
X-27200110Y23958338D01*
X-27181801Y23951332D01*
X-27178218Y23951078D01*
X-27174897Y23949702D01*
X-27155388Y23947781D01*
X-26869674Y23947781D01*
X-26850165Y23949702D01*
X-26846845Y23951078D01*
X-26843261Y23951332D01*
X-26824953Y23958338D01*
X-26729715Y24005957D01*
X-26721320Y24011242D01*
X-26718878Y24012253D01*
X-26716131Y24014509D01*
X-26713125Y24016400D01*
X-26711395Y24018395D01*
X-26703725Y24024690D01*
X-26656106Y24072310D01*
X-26649814Y24079977D01*
X-26647817Y24081708D01*
X-26645924Y24084716D01*
X-26643669Y24087463D01*
X-26642658Y24089905D01*
X-26637374Y24098299D01*
X-26589755Y24193536D01*
X-26582749Y24211845D01*
X-26582495Y24215429D01*
X-26581119Y24218749D01*
X-26579198Y24238258D01*
X-26579198Y24476353D01*
X-26581119Y24495862D01*
X-26582495Y24499183D01*
X-26582749Y24502766D01*
X-26589755Y24521075D01*
X-26637374Y24616312D01*
X-26642660Y24624709D01*
X-26643670Y24627149D01*
X-26645924Y24629895D01*
X-26647817Y24632903D01*
X-26649815Y24634636D01*
X-26656107Y24642302D01*
X-26703725Y24689921D01*
X-26711396Y24696216D01*
X-26713125Y24698210D01*
X-26716133Y24700104D01*
X-26718879Y24702357D01*
X-26721319Y24703368D01*
X-26729715Y24708653D01*
X-26808563Y24748077D01*
X-26603940Y24981931D01*
X-26597911Y24990365D01*
X-26596051Y24992224D01*
X-26595321Y24993988D01*
X-26592539Y24997878D01*
X-26587335Y25013267D01*
X-26581119Y25028272D01*
X-26581119Y25031646D01*
X-26580039Y25034839D01*
X-26580068Y25035274D01*
X-26492698Y25035274D01*
X-26488351Y25016158D01*
X-26155018Y24016159D01*
X-26147027Y23998258D01*
X-26142344Y23992859D01*
X-26139149Y23986469D01*
X-26129678Y23978254D01*
X-26121462Y23968782D01*
X-26115074Y23965588D01*
X-26109673Y23960904D01*
X-26097772Y23956937D01*
X-26086563Y23951333D01*
X-26079439Y23950827D01*
X-26072657Y23948566D01*
X-26060148Y23949456D01*
X-26047643Y23948566D01*
X-26040865Y23950826D01*
X-26033737Y23951332D01*
X-26022521Y23956941D01*
X-26010627Y23960905D01*
X-26005230Y23965586D01*
X-25998838Y23968782D01*
X-25990620Y23978258D01*
X-25981151Y23986470D01*
X-25977958Y23992857D01*
X-25973273Y23998258D01*
X-25965282Y24016158D01*
X-25631949Y25016158D01*
X-25627602Y25035273D01*
X-25630368Y25074193D01*
X-25647818Y25109092D01*
X-25677294Y25134657D01*
X-25714310Y25146996D01*
X-25753230Y25144229D01*
X-25788129Y25126780D01*
X-25813694Y25097304D01*
X-25821685Y25079403D01*
X-26060150Y24364009D01*
X-26298615Y25079404D01*
X-26306606Y25097304D01*
X-26332171Y25126780D01*
X-26367070Y25144230D01*
X-26405990Y25146996D01*
X-26443006Y25134658D01*
X-26472482Y25109093D01*
X-26489932Y25074194D01*
X-26492698Y25035274D01*
X-26580068Y25035274D01*
X-26581119Y25051042D01*
X-26581119Y25067290D01*
X-26582410Y25070406D01*
X-26582634Y25073771D01*
X-26589837Y25088337D01*
X-26596051Y25103338D01*
X-26598435Y25105722D01*
X-26599930Y25108746D01*
X-26612164Y25119451D01*
X-26623641Y25130928D01*
X-26626755Y25132218D01*
X-26629294Y25134440D01*
X-26644686Y25139646D01*
X-26659689Y25145860D01*
X-26664449Y25146329D01*
X-26666256Y25146940D01*
X-26668881Y25146766D01*
X-26679198Y25147781D01*
X-27298245Y25147781D01*
X-27317754Y25145860D01*
X-27353802Y25130928D01*
X-27381392Y25103338D01*
X-27396324Y25067290D01*
X-28009690Y25067290D01*
X-28010981Y25070406D01*
X-28011205Y25073771D01*
X-28018408Y25088337D01*
X-28024622Y25103338D01*
X-28027006Y25105722D01*
X-28028501Y25108746D01*
X-28040735Y25119451D01*
X-28052212Y25130928D01*
X-28055326Y25132218D01*
X-28057865Y25134440D01*
X-28073257Y25139646D01*
X-28088260Y25145860D01*
X-28093020Y25146329D01*
X-28094827Y25146940D01*
X-28097452Y25146766D01*
X-28107769Y25147781D01*
X-28726816Y25147781D01*
X-28746325Y25145860D01*
X-28782373Y25130928D01*
X-28809963Y25103338D01*
X-28824895Y25067290D01*
X-30078863Y25067290D01*
X-30078863Y25258892D01*
X-25516491Y25258892D01*
X-25516491Y23836670D01*
G37*
G36*
X33578330Y-32877777D02*
G01*
X32158029Y-32877777D01*
X32158029Y-32647157D01*
X32269140Y-32647157D01*
X32269140Y-32686175D01*
X32284072Y-32722223D01*
X32311662Y-32749813D01*
X32347710Y-32764745D01*
X32367219Y-32766666D01*
X33367219Y-32766666D01*
X33386728Y-32764745D01*
X33422776Y-32749813D01*
X33450366Y-32722223D01*
X33465298Y-32686175D01*
X33467219Y-32666666D01*
X33467219Y-32190476D01*
X33465298Y-32170967D01*
X33450366Y-32134919D01*
X33422776Y-32107329D01*
X33386728Y-32092397D01*
X33347710Y-32092397D01*
X33311662Y-32107329D01*
X33284072Y-32134919D01*
X33269140Y-32170967D01*
X33267219Y-32190476D01*
X33267219Y-32566666D01*
X32367219Y-32566666D01*
X32347710Y-32568587D01*
X32311662Y-32583519D01*
X32284072Y-32611109D01*
X32269140Y-32647157D01*
X32158029Y-32647157D01*
X32158029Y-31981286D01*
X33578330Y-31981286D01*
X33578330Y-32877777D01*
G37*
G36*
X33483509Y21336670D02*
G01*
X30349708Y21336670D01*
X30349708Y21948243D01*
X30460819Y21948243D01*
X30460819Y21909225D01*
X30475751Y21873177D01*
X30503341Y21845587D01*
X30539389Y21830655D01*
X30558898Y21828734D01*
X30839850Y21828734D01*
X30839850Y21547781D01*
X30841771Y21528272D01*
X30856703Y21492224D01*
X30884293Y21464634D01*
X30920341Y21449702D01*
X30959359Y21449702D01*
X30995407Y21464634D01*
X31022997Y21492224D01*
X31037929Y21528272D01*
X31039850Y21547781D01*
X31039850Y21828734D01*
X31320803Y21828734D01*
X31340312Y21830655D01*
X31376360Y21845587D01*
X31403950Y21873177D01*
X31418882Y21909225D01*
X31418882Y21948243D01*
X31403950Y21984291D01*
X31376360Y22011881D01*
X31340312Y22026813D01*
X31320803Y22028734D01*
X31039850Y22028734D01*
X31039850Y22061938D01*
X31649841Y22061938D01*
X31651295Y22057120D01*
X31651295Y22052082D01*
X31656891Y22038573D01*
X31661112Y22024583D01*
X31664299Y22020687D01*
X31666227Y22016034D01*
X31676563Y22005698D01*
X31685819Y21994385D01*
X31690256Y21992005D01*
X31693817Y21988444D01*
X31707322Y21982850D01*
X31720203Y21975940D01*
X31725212Y21975440D01*
X31729865Y21973512D01*
X31744486Y21973512D01*
X31759027Y21972058D01*
X31763846Y21973512D01*
X31768883Y21973512D01*
X31782392Y21979109D01*
X31796382Y21983329D01*
X31800278Y21986517D01*
X31804931Y21988444D01*
X31820085Y22000880D01*
X31856228Y22037025D01*
X31915838Y22066829D01*
X32106719Y22066829D01*
X32166328Y22037024D01*
X32190997Y22012356D01*
X32220802Y21952746D01*
X32220802Y21761865D01*
X32190997Y21702257D01*
X32166328Y21677587D01*
X32106719Y21647781D01*
X31915838Y21647781D01*
X31856228Y21677586D01*
X31820085Y21713730D01*
X31804932Y21726167D01*
X31768884Y21741098D01*
X31729866Y21741099D01*
X31693817Y21726168D01*
X31666227Y21698578D01*
X31651296Y21662530D01*
X31651295Y21623512D01*
X31666226Y21587463D01*
X31678663Y21572310D01*
X31726281Y21524690D01*
X31733949Y21518397D01*
X31735681Y21516400D01*
X31738689Y21514507D01*
X31741435Y21512253D01*
X31743875Y21511243D01*
X31752272Y21505957D01*
X31847509Y21458338D01*
X31865818Y21451332D01*
X31869401Y21451078D01*
X31872722Y21449702D01*
X31892231Y21447781D01*
X32130326Y21447781D01*
X32149835Y21449702D01*
X32153155Y21451078D01*
X32156739Y21451332D01*
X32175047Y21458338D01*
X32270285Y21505957D01*
X32278680Y21511242D01*
X32281122Y21512253D01*
X32283869Y21514509D01*
X32286875Y21516400D01*
X32288605Y21518395D01*
X32296275Y21524690D01*
X32343894Y21572310D01*
X32350186Y21579977D01*
X32352183Y21581708D01*
X32354076Y21584716D01*
X32356331Y21587463D01*
X32357342Y21589905D01*
X32362626Y21598299D01*
X32410245Y21693536D01*
X32417251Y21711845D01*
X32417505Y21715429D01*
X32418881Y21718749D01*
X32420802Y21738258D01*
X32420802Y21976353D01*
X32418881Y21995862D01*
X32417505Y21999183D01*
X32417251Y22002766D01*
X32410245Y22021075D01*
X32362626Y22116312D01*
X32357340Y22124709D01*
X32356330Y22127149D01*
X32354076Y22129895D01*
X32352183Y22132903D01*
X32350185Y22134636D01*
X32343893Y22142302D01*
X32296275Y22189921D01*
X32288604Y22196216D01*
X32286875Y22198210D01*
X32283867Y22200104D01*
X32281121Y22202357D01*
X32278681Y22203368D01*
X32270285Y22208653D01*
X32175047Y22256272D01*
X32156739Y22263278D01*
X32153155Y22263533D01*
X32149835Y22264908D01*
X32130326Y22266829D01*
X31892231Y22266829D01*
X31872722Y22264908D01*
X31869401Y22263533D01*
X31869064Y22263509D01*
X31887492Y22447781D01*
X32273183Y22447781D01*
X32292692Y22449702D01*
X32328740Y22464634D01*
X32356330Y22492224D01*
X32371262Y22528272D01*
X32371262Y22535274D01*
X32507302Y22535274D01*
X32511649Y22516158D01*
X32844982Y21516159D01*
X32852973Y21498258D01*
X32857656Y21492859D01*
X32860851Y21486469D01*
X32870322Y21478254D01*
X32878538Y21468782D01*
X32884926Y21465588D01*
X32890327Y21460904D01*
X32902228Y21456937D01*
X32913437Y21451333D01*
X32920561Y21450827D01*
X32927343Y21448566D01*
X32939852Y21449456D01*
X32952357Y21448566D01*
X32959135Y21450826D01*
X32966263Y21451332D01*
X32977479Y21456941D01*
X32989373Y21460905D01*
X32994770Y21465586D01*
X33001162Y21468782D01*
X33009380Y21478258D01*
X33018849Y21486470D01*
X33022042Y21492857D01*
X33026727Y21498258D01*
X33034718Y21516158D01*
X33368051Y22516158D01*
X33372398Y22535273D01*
X33369632Y22574193D01*
X33352182Y22609092D01*
X33322706Y22634657D01*
X33285690Y22646996D01*
X33246770Y22644229D01*
X33211871Y22626780D01*
X33186306Y22597304D01*
X33178315Y22579403D01*
X32939850Y21864009D01*
X32701385Y22579404D01*
X32693394Y22597304D01*
X32667829Y22626780D01*
X32632930Y22644230D01*
X32594010Y22646996D01*
X32556994Y22634658D01*
X32527518Y22609093D01*
X32510068Y22574194D01*
X32507302Y22535274D01*
X32371262Y22535274D01*
X32371262Y22567290D01*
X32356330Y22603338D01*
X32328740Y22630928D01*
X32292692Y22645860D01*
X32273183Y22647781D01*
X31796993Y22647781D01*
X31789776Y22647071D01*
X31787340Y22647314D01*
X31784961Y22646597D01*
X31777484Y22645860D01*
X31763974Y22640264D01*
X31749985Y22636043D01*
X31746088Y22632856D01*
X31741436Y22630928D01*
X31731099Y22620592D01*
X31719787Y22611336D01*
X31717406Y22606899D01*
X31713846Y22603338D01*
X31708251Y22589833D01*
X31701342Y22576952D01*
X31699865Y22569588D01*
X31698914Y22567290D01*
X31698914Y22564840D01*
X31697489Y22557731D01*
X31649870Y22081541D01*
X31649841Y22061938D01*
X31039850Y22061938D01*
X31039850Y22309686D01*
X31037929Y22329195D01*
X31022997Y22365243D01*
X30995407Y22392833D01*
X30959359Y22407765D01*
X30920341Y22407765D01*
X30884293Y22392833D01*
X30856703Y22365243D01*
X30841771Y22329195D01*
X30839850Y22309686D01*
X30839850Y22028734D01*
X30558898Y22028734D01*
X30539389Y22026813D01*
X30503341Y22011881D01*
X30475751Y21984291D01*
X30460819Y21948243D01*
X30349708Y21948243D01*
X30349708Y22758892D01*
X33483509Y22758892D01*
X33483509Y21336670D01*
G37*
G36*
X33483509Y14336670D02*
G01*
X28921137Y14336670D01*
X28921137Y14948243D01*
X29032248Y14948243D01*
X29032248Y14909225D01*
X29047180Y14873177D01*
X29074770Y14845587D01*
X29110818Y14830655D01*
X29130327Y14828734D01*
X29411279Y14828734D01*
X29411279Y14547781D01*
X29413200Y14528272D01*
X29428132Y14492224D01*
X29455722Y14464634D01*
X29491770Y14449702D01*
X29530788Y14449702D01*
X29566836Y14464634D01*
X29594426Y14492224D01*
X29609358Y14528272D01*
X29611279Y14547781D01*
X29611279Y14828734D01*
X29892232Y14828734D01*
X29911741Y14830655D01*
X29947789Y14845587D01*
X29975379Y14873177D01*
X29990311Y14909225D01*
X29990311Y14948243D01*
X29975379Y14984291D01*
X29947789Y15011881D01*
X29911741Y15026813D01*
X29892232Y15028734D01*
X29611279Y15028734D01*
X29611279Y15309686D01*
X29609358Y15329195D01*
X29594426Y15365243D01*
X29566836Y15392833D01*
X29530788Y15407765D01*
X29491770Y15407765D01*
X29455722Y15392833D01*
X29428132Y15365243D01*
X29413200Y15329195D01*
X29411279Y15309686D01*
X29411279Y15028734D01*
X29130327Y15028734D01*
X29110818Y15026813D01*
X29074770Y15011881D01*
X29047180Y14984291D01*
X29032248Y14948243D01*
X28921137Y14948243D01*
X28921137Y15567290D01*
X30175105Y15567290D01*
X30175105Y15528272D01*
X30190037Y15492224D01*
X30217627Y15464634D01*
X30253675Y15449702D01*
X30273184Y15447781D01*
X30671854Y15447781D01*
X30483640Y15232679D01*
X30477610Y15224246D01*
X30475751Y15222386D01*
X30475020Y15220623D01*
X30472239Y15216732D01*
X30467034Y15201344D01*
X30460819Y15186338D01*
X30460819Y15182965D01*
X30459739Y15179771D01*
X30460819Y15163569D01*
X30460819Y15147320D01*
X30462109Y15144205D01*
X30462334Y15140839D01*
X30469534Y15126279D01*
X30475751Y15111272D01*
X30478135Y15108888D01*
X30479631Y15105864D01*
X30491856Y15095167D01*
X30503341Y15083682D01*
X30506455Y15082392D01*
X30508995Y15080170D01*
X30524383Y15074966D01*
X30539389Y15068750D01*
X30544148Y15068282D01*
X30545956Y15067670D01*
X30548580Y15067845D01*
X30558898Y15066829D01*
X30678148Y15066829D01*
X30737757Y15037024D01*
X30762426Y15012356D01*
X30792231Y14952746D01*
X30792231Y14761865D01*
X30762426Y14702257D01*
X30737757Y14677587D01*
X30678148Y14647781D01*
X30439648Y14647781D01*
X30380038Y14677586D01*
X30343895Y14713730D01*
X30328742Y14726167D01*
X30292694Y14741098D01*
X30253676Y14741099D01*
X30217627Y14726168D01*
X30190037Y14698578D01*
X30175106Y14662530D01*
X30175105Y14623512D01*
X30190036Y14587463D01*
X30202473Y14572310D01*
X30250091Y14524690D01*
X30257759Y14518397D01*
X30259491Y14516400D01*
X30262499Y14514507D01*
X30265245Y14512253D01*
X30267685Y14511243D01*
X30276082Y14505957D01*
X30371319Y14458338D01*
X30389628Y14451332D01*
X30393211Y14451078D01*
X30396532Y14449702D01*
X30416041Y14447781D01*
X30701755Y14447781D01*
X30721264Y14449702D01*
X30724584Y14451078D01*
X30728168Y14451332D01*
X30746476Y14458338D01*
X30841714Y14505957D01*
X30850109Y14511242D01*
X30852551Y14512253D01*
X30855298Y14514509D01*
X30858304Y14516400D01*
X30860034Y14518395D01*
X30867704Y14524690D01*
X30915323Y14572310D01*
X30921615Y14579977D01*
X30923612Y14581708D01*
X30925505Y14584716D01*
X30927760Y14587463D01*
X30928771Y14589905D01*
X30934055Y14598299D01*
X30942360Y14614909D01*
X31175105Y14614909D01*
X31175105Y14575891D01*
X31181568Y14560289D01*
X31190037Y14539842D01*
X31190041Y14539838D01*
X31202473Y14524689D01*
X31250092Y14477071D01*
X31265245Y14464634D01*
X31274248Y14460905D01*
X31301294Y14449702D01*
X31340312Y14449702D01*
X31376360Y14464634D01*
X31391514Y14477070D01*
X31439132Y14524689D01*
X31451569Y14539842D01*
X31458321Y14556144D01*
X31466500Y14575890D01*
X31466501Y14614908D01*
X31451570Y14650957D01*
X31439133Y14666110D01*
X31391514Y14713730D01*
X31376361Y14726167D01*
X31361429Y14732352D01*
X31340312Y14741099D01*
X31301294Y14741099D01*
X31290736Y14736726D01*
X31265246Y14726168D01*
X31265245Y14726167D01*
X31250091Y14713730D01*
X31202473Y14666110D01*
X31190036Y14650957D01*
X31180023Y14626781D01*
X31175105Y14614909D01*
X30942360Y14614909D01*
X30981674Y14693536D01*
X30988680Y14711845D01*
X30988934Y14715429D01*
X30990310Y14718749D01*
X30992231Y14738258D01*
X30992231Y14976353D01*
X30990310Y14995862D01*
X30988934Y14999183D01*
X30988680Y15002766D01*
X30981674Y15021075D01*
X30934055Y15116312D01*
X30928769Y15124709D01*
X30927759Y15127149D01*
X30925505Y15129895D01*
X30923612Y15132903D01*
X30921614Y15134636D01*
X30915322Y15142302D01*
X30867704Y15189921D01*
X30860033Y15196216D01*
X30858304Y15198210D01*
X30855296Y15200104D01*
X30852550Y15202357D01*
X30850110Y15203368D01*
X30841714Y15208653D01*
X30762866Y15248077D01*
X30967489Y15481931D01*
X30973518Y15490365D01*
X30975378Y15492224D01*
X30976108Y15493988D01*
X30978890Y15497878D01*
X30984094Y15513267D01*
X30990310Y15528272D01*
X30990310Y15531646D01*
X30991390Y15534839D01*
X30990310Y15551042D01*
X30990310Y15567290D01*
X31603676Y15567290D01*
X31603676Y15528272D01*
X31618608Y15492224D01*
X31646198Y15464634D01*
X31682246Y15449702D01*
X31701755Y15447781D01*
X32100425Y15447781D01*
X31912211Y15232679D01*
X31906181Y15224246D01*
X31904322Y15222386D01*
X31903591Y15220623D01*
X31900810Y15216732D01*
X31895605Y15201344D01*
X31889390Y15186338D01*
X31889390Y15182965D01*
X31888310Y15179771D01*
X31889390Y15163569D01*
X31889390Y15147320D01*
X31890680Y15144205D01*
X31890905Y15140839D01*
X31898105Y15126279D01*
X31904322Y15111272D01*
X31906706Y15108888D01*
X31908202Y15105864D01*
X31920427Y15095167D01*
X31931912Y15083682D01*
X31935026Y15082392D01*
X31937566Y15080170D01*
X31952954Y15074966D01*
X31967960Y15068750D01*
X31972719Y15068282D01*
X31974527Y15067670D01*
X31977151Y15067845D01*
X31987469Y15066829D01*
X32106719Y15066829D01*
X32166328Y15037024D01*
X32190997Y15012356D01*
X32220802Y14952746D01*
X32220802Y14761865D01*
X32190997Y14702257D01*
X32166328Y14677587D01*
X32106719Y14647781D01*
X31868219Y14647781D01*
X31808609Y14677586D01*
X31772466Y14713730D01*
X31757313Y14726167D01*
X31721265Y14741098D01*
X31682247Y14741099D01*
X31646198Y14726168D01*
X31618608Y14698578D01*
X31603677Y14662530D01*
X31603676Y14623512D01*
X31618607Y14587463D01*
X31631044Y14572310D01*
X31678662Y14524690D01*
X31686330Y14518397D01*
X31688062Y14516400D01*
X31691070Y14514507D01*
X31693816Y14512253D01*
X31696256Y14511243D01*
X31704653Y14505957D01*
X31799890Y14458338D01*
X31818199Y14451332D01*
X31821782Y14451078D01*
X31825103Y14449702D01*
X31844612Y14447781D01*
X32130326Y14447781D01*
X32149835Y14449702D01*
X32153155Y14451078D01*
X32156739Y14451332D01*
X32175047Y14458338D01*
X32270285Y14505957D01*
X32278680Y14511242D01*
X32281122Y14512253D01*
X32283869Y14514509D01*
X32286875Y14516400D01*
X32288605Y14518395D01*
X32296275Y14524690D01*
X32343894Y14572310D01*
X32350186Y14579977D01*
X32352183Y14581708D01*
X32354076Y14584716D01*
X32356331Y14587463D01*
X32357342Y14589905D01*
X32362626Y14598299D01*
X32410245Y14693536D01*
X32417251Y14711845D01*
X32417505Y14715429D01*
X32418881Y14718749D01*
X32420802Y14738258D01*
X32420802Y14976353D01*
X32418881Y14995862D01*
X32417505Y14999183D01*
X32417251Y15002766D01*
X32410245Y15021075D01*
X32362626Y15116312D01*
X32357340Y15124709D01*
X32356330Y15127149D01*
X32354076Y15129895D01*
X32352183Y15132903D01*
X32350185Y15134636D01*
X32343893Y15142302D01*
X32296275Y15189921D01*
X32288604Y15196216D01*
X32286875Y15198210D01*
X32283867Y15200104D01*
X32281121Y15202357D01*
X32278681Y15203368D01*
X32270285Y15208653D01*
X32191437Y15248077D01*
X32396060Y15481931D01*
X32402089Y15490365D01*
X32403949Y15492224D01*
X32404679Y15493988D01*
X32407461Y15497878D01*
X32412665Y15513267D01*
X32418881Y15528272D01*
X32418881Y15531646D01*
X32419961Y15534839D01*
X32419932Y15535274D01*
X32507302Y15535274D01*
X32511649Y15516158D01*
X32844982Y14516159D01*
X32852973Y14498258D01*
X32857656Y14492859D01*
X32860851Y14486469D01*
X32870322Y14478254D01*
X32878538Y14468782D01*
X32884926Y14465588D01*
X32890327Y14460904D01*
X32902228Y14456937D01*
X32913437Y14451333D01*
X32920561Y14450827D01*
X32927343Y14448566D01*
X32939852Y14449456D01*
X32952357Y14448566D01*
X32959135Y14450826D01*
X32966263Y14451332D01*
X32977479Y14456941D01*
X32989373Y14460905D01*
X32994770Y14465586D01*
X33001162Y14468782D01*
X33009380Y14478258D01*
X33018849Y14486470D01*
X33022042Y14492857D01*
X33026727Y14498258D01*
X33034718Y14516158D01*
X33368051Y15516158D01*
X33372398Y15535273D01*
X33369632Y15574193D01*
X33352182Y15609092D01*
X33322706Y15634657D01*
X33285690Y15646996D01*
X33246770Y15644229D01*
X33211871Y15626780D01*
X33186306Y15597304D01*
X33178315Y15579403D01*
X32939850Y14864009D01*
X32701385Y15579404D01*
X32693394Y15597304D01*
X32667829Y15626780D01*
X32632930Y15644230D01*
X32594010Y15646996D01*
X32556994Y15634658D01*
X32527518Y15609093D01*
X32510068Y15574194D01*
X32507302Y15535274D01*
X32419932Y15535274D01*
X32418881Y15551042D01*
X32418881Y15567290D01*
X32417590Y15570406D01*
X32417366Y15573771D01*
X32410163Y15588337D01*
X32403949Y15603338D01*
X32401565Y15605722D01*
X32400070Y15608746D01*
X32387836Y15619451D01*
X32376359Y15630928D01*
X32373245Y15632218D01*
X32370706Y15634440D01*
X32355314Y15639646D01*
X32340311Y15645860D01*
X32335551Y15646329D01*
X32333744Y15646940D01*
X32331119Y15646766D01*
X32320802Y15647781D01*
X31701755Y15647781D01*
X31682246Y15645860D01*
X31646198Y15630928D01*
X31618608Y15603338D01*
X31603676Y15567290D01*
X30990310Y15567290D01*
X30989019Y15570406D01*
X30988795Y15573771D01*
X30981592Y15588337D01*
X30975378Y15603338D01*
X30972994Y15605722D01*
X30971499Y15608746D01*
X30959265Y15619451D01*
X30947788Y15630928D01*
X30944674Y15632218D01*
X30942135Y15634440D01*
X30926743Y15639646D01*
X30911740Y15645860D01*
X30906980Y15646329D01*
X30905173Y15646940D01*
X30902548Y15646766D01*
X30892231Y15647781D01*
X30273184Y15647781D01*
X30253675Y15645860D01*
X30217627Y15630928D01*
X30190037Y15603338D01*
X30175105Y15567290D01*
X28921137Y15567290D01*
X28921137Y15758892D01*
X33483509Y15758892D01*
X33483509Y14336670D01*
G37*
G36*
X-25516491Y26836670D02*
G01*
X-28650292Y26836670D01*
X-28650292Y27448243D01*
X-28539181Y27448243D01*
X-28539181Y27409225D01*
X-28524249Y27373177D01*
X-28496659Y27345587D01*
X-28460611Y27330655D01*
X-28441102Y27328734D01*
X-28160150Y27328734D01*
X-28160150Y27047781D01*
X-28158229Y27028272D01*
X-28143297Y26992224D01*
X-28115707Y26964634D01*
X-28079659Y26949702D01*
X-28040641Y26949702D01*
X-28004593Y26964634D01*
X-27977003Y26992224D01*
X-27962071Y27028272D01*
X-27960150Y27047781D01*
X-27960150Y27328734D01*
X-27679197Y27328734D01*
X-27659688Y27330655D01*
X-27623640Y27345587D01*
X-27596050Y27373177D01*
X-27581118Y27409225D01*
X-27581118Y27448243D01*
X-27596050Y27484291D01*
X-27623640Y27511881D01*
X-27659688Y27526813D01*
X-27679197Y27528734D01*
X-27960150Y27528734D01*
X-27960150Y27561938D01*
X-27350159Y27561938D01*
X-27348705Y27557120D01*
X-27348705Y27552082D01*
X-27343109Y27538573D01*
X-27338888Y27524583D01*
X-27335701Y27520687D01*
X-27333773Y27516034D01*
X-27323437Y27505698D01*
X-27314181Y27494385D01*
X-27309744Y27492005D01*
X-27306183Y27488444D01*
X-27292678Y27482850D01*
X-27279797Y27475940D01*
X-27274788Y27475440D01*
X-27270135Y27473512D01*
X-27255514Y27473512D01*
X-27240973Y27472058D01*
X-27236154Y27473512D01*
X-27231117Y27473512D01*
X-27217608Y27479109D01*
X-27203618Y27483329D01*
X-27199722Y27486517D01*
X-27195069Y27488444D01*
X-27179915Y27500880D01*
X-27143772Y27537025D01*
X-27084162Y27566829D01*
X-26893281Y27566829D01*
X-26833672Y27537024D01*
X-26809003Y27512356D01*
X-26779198Y27452746D01*
X-26779198Y27261865D01*
X-26809003Y27202257D01*
X-26833672Y27177587D01*
X-26893281Y27147781D01*
X-27084162Y27147781D01*
X-27143772Y27177586D01*
X-27179915Y27213730D01*
X-27195068Y27226167D01*
X-27231116Y27241098D01*
X-27270134Y27241099D01*
X-27306183Y27226168D01*
X-27333773Y27198578D01*
X-27348704Y27162530D01*
X-27348705Y27123512D01*
X-27333774Y27087463D01*
X-27321337Y27072310D01*
X-27273719Y27024690D01*
X-27266051Y27018397D01*
X-27264319Y27016400D01*
X-27261311Y27014507D01*
X-27258565Y27012253D01*
X-27256125Y27011243D01*
X-27247728Y27005957D01*
X-27152491Y26958338D01*
X-27134182Y26951332D01*
X-27130599Y26951078D01*
X-27127278Y26949702D01*
X-27107769Y26947781D01*
X-26869674Y26947781D01*
X-26850165Y26949702D01*
X-26846845Y26951078D01*
X-26843261Y26951332D01*
X-26824953Y26958338D01*
X-26729715Y27005957D01*
X-26721320Y27011242D01*
X-26718878Y27012253D01*
X-26716131Y27014509D01*
X-26713125Y27016400D01*
X-26711395Y27018395D01*
X-26703725Y27024690D01*
X-26656106Y27072310D01*
X-26649814Y27079977D01*
X-26647817Y27081708D01*
X-26645924Y27084716D01*
X-26643669Y27087463D01*
X-26642658Y27089905D01*
X-26637374Y27098299D01*
X-26589755Y27193536D01*
X-26582749Y27211845D01*
X-26582495Y27215429D01*
X-26581119Y27218749D01*
X-26579198Y27238258D01*
X-26579198Y27476353D01*
X-26581119Y27495862D01*
X-26582495Y27499183D01*
X-26582749Y27502766D01*
X-26589755Y27521075D01*
X-26637374Y27616312D01*
X-26642660Y27624709D01*
X-26643670Y27627149D01*
X-26645924Y27629895D01*
X-26647817Y27632903D01*
X-26649815Y27634636D01*
X-26656107Y27642302D01*
X-26703725Y27689921D01*
X-26711396Y27696216D01*
X-26713125Y27698210D01*
X-26716133Y27700104D01*
X-26718879Y27702357D01*
X-26721319Y27703368D01*
X-26729715Y27708653D01*
X-26824953Y27756272D01*
X-26843261Y27763278D01*
X-26846845Y27763533D01*
X-26850165Y27764908D01*
X-26869674Y27766829D01*
X-27107769Y27766829D01*
X-27127278Y27764908D01*
X-27130599Y27763533D01*
X-27130936Y27763509D01*
X-27112508Y27947781D01*
X-26726817Y27947781D01*
X-26707308Y27949702D01*
X-26671260Y27964634D01*
X-26643670Y27992224D01*
X-26628738Y28028272D01*
X-26628738Y28035274D01*
X-26492698Y28035274D01*
X-26488351Y28016158D01*
X-26155018Y27016159D01*
X-26147027Y26998258D01*
X-26142344Y26992859D01*
X-26139149Y26986469D01*
X-26129678Y26978254D01*
X-26121462Y26968782D01*
X-26115074Y26965588D01*
X-26109673Y26960904D01*
X-26097772Y26956937D01*
X-26086563Y26951333D01*
X-26079439Y26950827D01*
X-26072657Y26948566D01*
X-26060148Y26949456D01*
X-26047643Y26948566D01*
X-26040865Y26950826D01*
X-26033737Y26951332D01*
X-26022521Y26956941D01*
X-26010627Y26960905D01*
X-26005230Y26965586D01*
X-25998838Y26968782D01*
X-25990620Y26978258D01*
X-25981151Y26986470D01*
X-25977958Y26992857D01*
X-25973273Y26998258D01*
X-25965282Y27016158D01*
X-25631949Y28016158D01*
X-25627602Y28035273D01*
X-25630368Y28074193D01*
X-25647818Y28109092D01*
X-25677294Y28134657D01*
X-25714310Y28146996D01*
X-25753230Y28144229D01*
X-25788129Y28126780D01*
X-25813694Y28097304D01*
X-25821685Y28079403D01*
X-26060150Y27364009D01*
X-26298615Y28079404D01*
X-26306606Y28097304D01*
X-26332171Y28126780D01*
X-26367070Y28144230D01*
X-26405990Y28146996D01*
X-26443006Y28134658D01*
X-26472482Y28109093D01*
X-26489932Y28074194D01*
X-26492698Y28035274D01*
X-26628738Y28035274D01*
X-26628738Y28067290D01*
X-26643670Y28103338D01*
X-26671260Y28130928D01*
X-26707308Y28145860D01*
X-26726817Y28147781D01*
X-27203007Y28147781D01*
X-27210224Y28147071D01*
X-27212660Y28147314D01*
X-27215039Y28146597D01*
X-27222516Y28145860D01*
X-27236026Y28140264D01*
X-27250015Y28136043D01*
X-27253912Y28132856D01*
X-27258564Y28130928D01*
X-27268901Y28120592D01*
X-27280213Y28111336D01*
X-27282594Y28106899D01*
X-27286154Y28103338D01*
X-27291749Y28089833D01*
X-27298658Y28076952D01*
X-27300135Y28069588D01*
X-27301086Y28067290D01*
X-27301086Y28064840D01*
X-27302511Y28057731D01*
X-27350130Y27581541D01*
X-27350159Y27561938D01*
X-27960150Y27561938D01*
X-27960150Y27809686D01*
X-27962071Y27829195D01*
X-27977003Y27865243D01*
X-28004593Y27892833D01*
X-28040641Y27907765D01*
X-28079659Y27907765D01*
X-28115707Y27892833D01*
X-28143297Y27865243D01*
X-28158229Y27829195D01*
X-28160150Y27809686D01*
X-28160150Y27528734D01*
X-28441102Y27528734D01*
X-28460611Y27526813D01*
X-28496659Y27511881D01*
X-28524249Y27484291D01*
X-28539181Y27448243D01*
X-28650292Y27448243D01*
X-28650292Y28258892D01*
X-25516491Y28258892D01*
X-25516491Y26836670D01*
G37*
G36*
X21702668Y-40582024D02*
G01*
X21727337Y-40606692D01*
X21757142Y-40666302D01*
X21757142Y-40761945D01*
X21727337Y-40821554D01*
X21702668Y-40846222D01*
X21643059Y-40876028D01*
X21385714Y-40876028D01*
X21385714Y-40552219D01*
X21643059Y-40552219D01*
X21702668Y-40582024D01*
G37*
G36*
X22971094Y-41663330D02*
G01*
X21074603Y-41663330D01*
X21074603Y-40452219D01*
X21185714Y-40452219D01*
X21185714Y-41452219D01*
X21187635Y-41471728D01*
X21202567Y-41507776D01*
X21230157Y-41535366D01*
X21266205Y-41550298D01*
X21305223Y-41550298D01*
X21341271Y-41535366D01*
X21368861Y-41507776D01*
X21383793Y-41471728D01*
X21385714Y-41452219D01*
X21385714Y-41076028D01*
X21666666Y-41076028D01*
X21686175Y-41074107D01*
X21689495Y-41072731D01*
X21693079Y-41072477D01*
X21711387Y-41065471D01*
X21806625Y-41017852D01*
X21815021Y-41012566D01*
X21817461Y-41011556D01*
X21820207Y-41009302D01*
X21823215Y-41007409D01*
X21824944Y-41005414D01*
X21832615Y-40999120D01*
X21880233Y-40951501D01*
X21886525Y-40943834D01*
X21888523Y-40942102D01*
X21890416Y-40939093D01*
X21892670Y-40936348D01*
X21893680Y-40933907D01*
X21898966Y-40925511D01*
X21946585Y-40830274D01*
X21953591Y-40811965D01*
X21953845Y-40808381D01*
X21955221Y-40805061D01*
X21957142Y-40785552D01*
X21957142Y-40642695D01*
X21955221Y-40623186D01*
X21953845Y-40619865D01*
X21953591Y-40616282D01*
X21946585Y-40597973D01*
X21898966Y-40502736D01*
X21893680Y-40494339D01*
X21892670Y-40491899D01*
X21890416Y-40489153D01*
X21888523Y-40486145D01*
X21886525Y-40484412D01*
X21880233Y-40476746D01*
X21855707Y-40452219D01*
X22185714Y-40452219D01*
X22185714Y-41452219D01*
X22187635Y-41471728D01*
X22202567Y-41507776D01*
X22230157Y-41535366D01*
X22266205Y-41550298D01*
X22285714Y-41552219D01*
X22761904Y-41552219D01*
X22781413Y-41550298D01*
X22817461Y-41535366D01*
X22845051Y-41507776D01*
X22859983Y-41471728D01*
X22859983Y-41432710D01*
X22845051Y-41396662D01*
X22817461Y-41369072D01*
X22781413Y-41354140D01*
X22761904Y-41352219D01*
X22385714Y-41352219D01*
X22385714Y-41028409D01*
X22619047Y-41028409D01*
X22638556Y-41026488D01*
X22674604Y-41011556D01*
X22702194Y-40983966D01*
X22717126Y-40947918D01*
X22717126Y-40908900D01*
X22702194Y-40872852D01*
X22674604Y-40845262D01*
X22638556Y-40830330D01*
X22619047Y-40828409D01*
X22385714Y-40828409D01*
X22385714Y-40552219D01*
X22761904Y-40552219D01*
X22781413Y-40550298D01*
X22817461Y-40535366D01*
X22845051Y-40507776D01*
X22859983Y-40471728D01*
X22859983Y-40432710D01*
X22845051Y-40396662D01*
X22817461Y-40369072D01*
X22781413Y-40354140D01*
X22761904Y-40352219D01*
X22285714Y-40352219D01*
X22266205Y-40354140D01*
X22230157Y-40369072D01*
X22202567Y-40396662D01*
X22187635Y-40432710D01*
X22185714Y-40452219D01*
X21855707Y-40452219D01*
X21832615Y-40429127D01*
X21824944Y-40422832D01*
X21823215Y-40420838D01*
X21820207Y-40418944D01*
X21817461Y-40416691D01*
X21815021Y-40415680D01*
X21806625Y-40410395D01*
X21711387Y-40362776D01*
X21693079Y-40355770D01*
X21689495Y-40355515D01*
X21686175Y-40354140D01*
X21666666Y-40352219D01*
X21285714Y-40352219D01*
X21266205Y-40354140D01*
X21230157Y-40369072D01*
X21202567Y-40396662D01*
X21187635Y-40432710D01*
X21185714Y-40452219D01*
X21074603Y-40452219D01*
X21074603Y-40241108D01*
X22971094Y-40241108D01*
X22971094Y-41663330D01*
G37*
G36*
X33341437Y10838591D02*
G01*
X32252549Y10838591D01*
X32252549Y12047781D01*
X32363660Y12047781D01*
X32363660Y11047781D01*
X32365581Y11028272D01*
X32380513Y10992224D01*
X32408103Y10964634D01*
X32444151Y10949702D01*
X32483169Y10949702D01*
X32519217Y10964634D01*
X32546807Y10992224D01*
X32561739Y11028272D01*
X32563660Y11047781D01*
X32563660Y11597025D01*
X32706375Y11291207D01*
X32710607Y11284062D01*
X32711487Y11281644D01*
X32713052Y11279935D01*
X32716366Y11274341D01*
X32727576Y11264075D01*
X32737838Y11252869D01*
X32741863Y11250991D01*
X32745141Y11247989D01*
X32759423Y11242796D01*
X32773196Y11236368D01*
X32777635Y11236173D01*
X32781810Y11234655D01*
X32796993Y11235323D01*
X32812176Y11234655D01*
X32816349Y11236173D01*
X32820791Y11236368D01*
X32834575Y11242801D01*
X32848845Y11247990D01*
X32852118Y11250988D01*
X32856148Y11252868D01*
X32866417Y11264083D01*
X32877620Y11274341D01*
X32880931Y11279932D01*
X32882500Y11281644D01*
X32883380Y11284066D01*
X32887611Y11291207D01*
X33030326Y11597026D01*
X33030326Y11047781D01*
X33032247Y11028272D01*
X33047179Y10992224D01*
X33074769Y10964634D01*
X33110817Y10949702D01*
X33149835Y10949702D01*
X33185883Y10964634D01*
X33213473Y10992224D01*
X33228405Y11028272D01*
X33230326Y11047781D01*
X33230326Y12047781D01*
X33229063Y12060605D01*
X33229167Y12062964D01*
X33228706Y12064232D01*
X33228405Y12067290D01*
X33221764Y12083321D01*
X33215833Y12099633D01*
X33214326Y12101279D01*
X33213473Y12103338D01*
X33201211Y12115600D01*
X33189481Y12128409D01*
X33187457Y12129354D01*
X33185883Y12130928D01*
X33169867Y12137563D01*
X33154124Y12144909D01*
X33151894Y12145007D01*
X33149835Y12145860D01*
X33132483Y12145860D01*
X33115143Y12146622D01*
X33113047Y12145860D01*
X33110817Y12145860D01*
X33094786Y12139220D01*
X33078474Y12133288D01*
X33076828Y12131782D01*
X33074769Y12130928D01*
X33062501Y12118661D01*
X33049699Y12106936D01*
X33048132Y12104292D01*
X33047179Y12103338D01*
X33046275Y12101157D01*
X33039708Y12090070D01*
X32796992Y11569967D01*
X32554278Y12090070D01*
X32547710Y12101157D01*
X32546807Y12103338D01*
X32545853Y12104292D01*
X32544287Y12106936D01*
X32531490Y12118655D01*
X32519217Y12130928D01*
X32517155Y12131782D01*
X32515512Y12133287D01*
X32499210Y12139216D01*
X32483169Y12145860D01*
X32480938Y12145860D01*
X32478843Y12146622D01*
X32461503Y12145860D01*
X32444151Y12145860D01*
X32442091Y12145007D01*
X32439863Y12144909D01*
X32424132Y12137568D01*
X32408103Y12130928D01*
X32406526Y12129352D01*
X32404505Y12128408D01*
X32392786Y12115612D01*
X32380513Y12103338D01*
X32379659Y12101277D01*
X32378154Y12099633D01*
X32372225Y12083332D01*
X32365581Y12067290D01*
X32365279Y12064232D01*
X32364819Y12062964D01*
X32364922Y12060605D01*
X32363660Y12047781D01*
X32252549Y12047781D01*
X32252549Y12257733D01*
X33341437Y12257733D01*
X33341437Y10838591D01*
G37*
G36*
X-16344952Y-34484070D02*
G01*
X-16310758Y-34518263D01*
X-16271429Y-34596921D01*
X-16271429Y-34721134D01*
X-16310758Y-34799792D01*
X-16344952Y-34833985D01*
X-16423608Y-34873314D01*
X-16757143Y-34873314D01*
X-16757143Y-34444742D01*
X-16423608Y-34444742D01*
X-16344952Y-34484070D01*
G37*
G36*
X-14854303Y-35778075D02*
G01*
X-17090476Y-35778075D01*
X-17090476Y-34344742D01*
X-16957143Y-34344742D01*
X-16957143Y-35544742D01*
X-16955222Y-35564251D01*
X-16940290Y-35600299D01*
X-16912700Y-35627889D01*
X-16876652Y-35642821D01*
X-16837634Y-35642821D01*
X-16801586Y-35627889D01*
X-16773996Y-35600299D01*
X-16759064Y-35564251D01*
X-16757143Y-35544742D01*
X-16757143Y-35073314D01*
X-16400000Y-35073314D01*
X-16380491Y-35071393D01*
X-16377171Y-35070017D01*
X-16373587Y-35069763D01*
X-16355278Y-35062757D01*
X-16240993Y-35005613D01*
X-16232597Y-35000328D01*
X-16230158Y-34999318D01*
X-16227415Y-34997066D01*
X-16224403Y-34995171D01*
X-16222671Y-34993173D01*
X-16215004Y-34986882D01*
X-16157862Y-34929739D01*
X-16151570Y-34922072D01*
X-16149572Y-34920340D01*
X-16147679Y-34917331D01*
X-16145425Y-34914586D01*
X-16144415Y-34912145D01*
X-16139129Y-34903749D01*
X-16081986Y-34789463D01*
X-16074980Y-34771155D01*
X-16074726Y-34767571D01*
X-16073350Y-34764251D01*
X-16071429Y-34744742D01*
X-16071429Y-34573314D01*
X-16073350Y-34553805D01*
X-16074726Y-34550484D01*
X-16074980Y-34546901D01*
X-16081986Y-34528593D01*
X-16139129Y-34414307D01*
X-16144415Y-34405910D01*
X-16145425Y-34403470D01*
X-16147679Y-34400724D01*
X-16149572Y-34397716D01*
X-16151570Y-34395983D01*
X-16157862Y-34388317D01*
X-16201436Y-34344742D01*
X-15757143Y-34344742D01*
X-15757143Y-35544742D01*
X-15755222Y-35564251D01*
X-15740290Y-35600299D01*
X-15712700Y-35627889D01*
X-15676652Y-35642821D01*
X-15657143Y-35644742D01*
X-15085715Y-35644742D01*
X-15066206Y-35642821D01*
X-15030158Y-35627889D01*
X-15002568Y-35600299D01*
X-14987636Y-35564251D01*
X-14987636Y-35525233D01*
X-15002568Y-35489185D01*
X-15030158Y-35461595D01*
X-15066206Y-35446663D01*
X-15085715Y-35444742D01*
X-15557143Y-35444742D01*
X-15557143Y-35016171D01*
X-15257143Y-35016171D01*
X-15237634Y-35014250D01*
X-15201586Y-34999318D01*
X-15173996Y-34971728D01*
X-15159064Y-34935680D01*
X-15159064Y-34896662D01*
X-15173996Y-34860614D01*
X-15201586Y-34833024D01*
X-15237634Y-34818092D01*
X-15257143Y-34816171D01*
X-15557143Y-34816171D01*
X-15557143Y-34444742D01*
X-15085715Y-34444742D01*
X-15066206Y-34442821D01*
X-15030158Y-34427889D01*
X-15002568Y-34400299D01*
X-14987636Y-34364251D01*
X-14987636Y-34325233D01*
X-15002568Y-34289185D01*
X-15030158Y-34261595D01*
X-15066206Y-34246663D01*
X-15085715Y-34244742D01*
X-15657143Y-34244742D01*
X-15676652Y-34246663D01*
X-15712700Y-34261595D01*
X-15740290Y-34289185D01*
X-15755222Y-34325233D01*
X-15757143Y-34344742D01*
X-16201436Y-34344742D01*
X-16215004Y-34331174D01*
X-16222671Y-34324882D01*
X-16224403Y-34322885D01*
X-16227415Y-34320989D01*
X-16230158Y-34318738D01*
X-16232597Y-34317727D01*
X-16240993Y-34312443D01*
X-16355278Y-34255299D01*
X-16373587Y-34248293D01*
X-16377171Y-34248038D01*
X-16380491Y-34246663D01*
X-16400000Y-34244742D01*
X-16857143Y-34244742D01*
X-16876652Y-34246663D01*
X-16912700Y-34261595D01*
X-16940290Y-34289185D01*
X-16955222Y-34325233D01*
X-16957143Y-34344742D01*
X-17090476Y-34344742D01*
X-17090476Y-34111409D01*
X-14854303Y-34111409D01*
X-14854303Y-35778075D01*
G37*
D11*
X-1166667Y44490420D02*
X-1214286Y44442800D01*
X-1214286Y44442800D02*
X-1357143Y44395181D01*
X-1357143Y44395181D02*
X-1452381Y44395181D01*
X-1452381Y44395181D02*
X-1595238Y44442800D01*
X-1595238Y44442800D02*
X-1690476Y44538039D01*
X-1690476Y44538039D02*
X-1738095Y44633277D01*
X-1738095Y44633277D02*
X-1785714Y44823753D01*
X-1785714Y44823753D02*
X-1785714Y44966610D01*
X-1785714Y44966610D02*
X-1738095Y45157086D01*
X-1738095Y45157086D02*
X-1690476Y45252324D01*
X-1690476Y45252324D02*
X-1595238Y45347562D01*
X-1595238Y45347562D02*
X-1452381Y45395181D01*
X-1452381Y45395181D02*
X-1357143Y45395181D01*
X-1357143Y45395181D02*
X-1214286Y45347562D01*
X-1214286Y45347562D02*
X-1166667Y45299943D01*
X-833333Y45395181D02*
X-166667Y45395181D01*
X-166667Y45395181D02*
X-595238Y44395181D01*
D12*
X-34073333Y-17304318D02*
X-34073333Y-18211461D01*
X-34073333Y-18211461D02*
X-34133810Y-18392889D01*
X-34133810Y-18392889D02*
X-34254762Y-18513842D01*
X-34254762Y-18513842D02*
X-34436191Y-18574318D01*
X-34436191Y-18574318D02*
X-34557143Y-18574318D01*
X-33589524Y-17304318D02*
X-32803333Y-17304318D01*
X-32803333Y-17304318D02*
X-33226667Y-17788127D01*
X-33226667Y-17788127D02*
X-33045238Y-17788127D01*
X-33045238Y-17788127D02*
X-32924286Y-17848603D01*
X-32924286Y-17848603D02*
X-32863810Y-17909080D01*
X-32863810Y-17909080D02*
X-32803333Y-18030032D01*
X-32803333Y-18030032D02*
X-32803333Y-18332413D01*
X-32803333Y-18332413D02*
X-32863810Y-18453365D01*
X-32863810Y-18453365D02*
X-32924286Y-18513842D01*
X-32924286Y-18513842D02*
X-33045238Y-18574318D01*
X-33045238Y-18574318D02*
X-33408095Y-18574318D01*
X-33408095Y-18574318D02*
X-33529048Y-18513842D01*
X-33529048Y-18513842D02*
X-33589524Y-18453365D01*
D11*
X3833333Y35640420D02*
X3785714Y35592800D01*
X3785714Y35592800D02*
X3642857Y35545181D01*
X3642857Y35545181D02*
X3547619Y35545181D01*
X3547619Y35545181D02*
X3404762Y35592800D01*
X3404762Y35592800D02*
X3309524Y35688039D01*
X3309524Y35688039D02*
X3261905Y35783277D01*
X3261905Y35783277D02*
X3214286Y35973753D01*
X3214286Y35973753D02*
X3214286Y36116610D01*
X3214286Y36116610D02*
X3261905Y36307086D01*
X3261905Y36307086D02*
X3309524Y36402324D01*
X3309524Y36402324D02*
X3404762Y36497562D01*
X3404762Y36497562D02*
X3547619Y36545181D01*
X3547619Y36545181D02*
X3642857Y36545181D01*
X3642857Y36545181D02*
X3785714Y36497562D01*
X3785714Y36497562D02*
X3833333Y36449943D01*
X4738095Y36545181D02*
X4261905Y36545181D01*
X4261905Y36545181D02*
X4214286Y36068991D01*
X4214286Y36068991D02*
X4261905Y36116610D01*
X4261905Y36116610D02*
X4357143Y36164229D01*
X4357143Y36164229D02*
X4595238Y36164229D01*
X4595238Y36164229D02*
X4690476Y36116610D01*
X4690476Y36116610D02*
X4738095Y36068991D01*
X4738095Y36068991D02*
X4785714Y35973753D01*
X4785714Y35973753D02*
X4785714Y35735658D01*
X4785714Y35735658D02*
X4738095Y35640420D01*
X4738095Y35640420D02*
X4690476Y35592800D01*
X4690476Y35592800D02*
X4595238Y35545181D01*
X4595238Y35545181D02*
X4357143Y35545181D01*
X4357143Y35545181D02*
X4261905Y35592800D01*
X4261905Y35592800D02*
X4214286Y35640420D01*
X11045180Y-6738095D02*
X10235657Y-6738095D01*
X10235657Y-6738095D02*
X10140419Y-6785714D01*
X10140419Y-6785714D02*
X10092800Y-6833333D01*
X10092800Y-6833333D02*
X10045180Y-6928571D01*
X10045180Y-6928571D02*
X10045180Y-7119047D01*
X10045180Y-7119047D02*
X10092800Y-7214285D01*
X10092800Y-7214285D02*
X10140419Y-7261904D01*
X10140419Y-7261904D02*
X10235657Y-7309523D01*
X10235657Y-7309523D02*
X11045180Y-7309523D01*
X10045180Y-8309523D02*
X10045180Y-7738095D01*
X10045180Y-8023809D02*
X11045180Y-8023809D01*
X11045180Y-8023809D02*
X10902323Y-7928571D01*
X10902323Y-7928571D02*
X10807085Y-7833333D01*
X10807085Y-7833333D02*
X10759466Y-7738095D01*
X11345179Y15000012D02*
X11107084Y15000012D01*
X11202322Y15238107D02*
X11107084Y15000012D01*
X11107084Y15000012D02*
X11202322Y14761917D01*
X10916608Y15142869D02*
X11107084Y15000012D01*
X11107084Y15000012D02*
X10916608Y14857155D01*
D13*
X34190476Y-42457419D02*
X34190476Y-43171704D01*
X34190476Y-43171704D02*
X34142857Y-43314561D01*
X34142857Y-43314561D02*
X34047619Y-43409800D01*
X34047619Y-43409800D02*
X33904762Y-43457419D01*
X33904762Y-43457419D02*
X33809524Y-43457419D01*
X35190476Y-43457419D02*
X34619048Y-43457419D01*
X34904762Y-43457419D02*
X34904762Y-42457419D01*
X34904762Y-42457419D02*
X34809524Y-42600276D01*
X34809524Y-42600276D02*
X34714286Y-42695514D01*
X34714286Y-42695514D02*
X34619048Y-42743133D01*
X35809524Y-42457419D02*
X35904762Y-42457419D01*
X35904762Y-42457419D02*
X36000000Y-42505038D01*
X36000000Y-42505038D02*
X36047619Y-42552657D01*
X36047619Y-42552657D02*
X36095238Y-42647895D01*
X36095238Y-42647895D02*
X36142857Y-42838371D01*
X36142857Y-42838371D02*
X36142857Y-43076466D01*
X36142857Y-43076466D02*
X36095238Y-43266942D01*
X36095238Y-43266942D02*
X36047619Y-43362180D01*
X36047619Y-43362180D02*
X36000000Y-43409800D01*
X36000000Y-43409800D02*
X35904762Y-43457419D01*
X35904762Y-43457419D02*
X35809524Y-43457419D01*
X35809524Y-43457419D02*
X35714286Y-43409800D01*
X35714286Y-43409800D02*
X35666667Y-43362180D01*
X35666667Y-43362180D02*
X35619048Y-43266942D01*
X35619048Y-43266942D02*
X35571429Y-43076466D01*
X35571429Y-43076466D02*
X35571429Y-42838371D01*
X35571429Y-42838371D02*
X35619048Y-42647895D01*
X35619048Y-42647895D02*
X35666667Y-42552657D01*
X35666667Y-42552657D02*
X35714286Y-42505038D01*
X35714286Y-42505038D02*
X35809524Y-42457419D01*
D11*
X-24166667Y-25709580D02*
X-24214286Y-25757200D01*
X-24214286Y-25757200D02*
X-24357143Y-25804819D01*
X-24357143Y-25804819D02*
X-24452381Y-25804819D01*
X-24452381Y-25804819D02*
X-24595238Y-25757200D01*
X-24595238Y-25757200D02*
X-24690476Y-25661961D01*
X-24690476Y-25661961D02*
X-24738095Y-25566723D01*
X-24738095Y-25566723D02*
X-24785714Y-25376247D01*
X-24785714Y-25376247D02*
X-24785714Y-25233390D01*
X-24785714Y-25233390D02*
X-24738095Y-25042914D01*
X-24738095Y-25042914D02*
X-24690476Y-24947676D01*
X-24690476Y-24947676D02*
X-24595238Y-24852438D01*
X-24595238Y-24852438D02*
X-24452381Y-24804819D01*
X-24452381Y-24804819D02*
X-24357143Y-24804819D01*
X-24357143Y-24804819D02*
X-24214286Y-24852438D01*
X-24214286Y-24852438D02*
X-24166667Y-24900057D01*
X-23833333Y-24804819D02*
X-23214286Y-24804819D01*
X-23214286Y-24804819D02*
X-23547619Y-25185771D01*
X-23547619Y-25185771D02*
X-23404762Y-25185771D01*
X-23404762Y-25185771D02*
X-23309524Y-25233390D01*
X-23309524Y-25233390D02*
X-23261905Y-25281009D01*
X-23261905Y-25281009D02*
X-23214286Y-25376247D01*
X-23214286Y-25376247D02*
X-23214286Y-25614342D01*
X-23214286Y-25614342D02*
X-23261905Y-25709580D01*
X-23261905Y-25709580D02*
X-23309524Y-25757200D01*
X-23309524Y-25757200D02*
X-23404762Y-25804819D01*
X-23404762Y-25804819D02*
X-23690476Y-25804819D01*
X-23690476Y-25804819D02*
X-23785714Y-25757200D01*
X-23785714Y-25757200D02*
X-23833333Y-25709580D01*
X-24166667Y-4509580D02*
X-24214286Y-4557200D01*
X-24214286Y-4557200D02*
X-24357143Y-4604819D01*
X-24357143Y-4604819D02*
X-24452381Y-4604819D01*
X-24452381Y-4604819D02*
X-24595238Y-4557200D01*
X-24595238Y-4557200D02*
X-24690476Y-4461961D01*
X-24690476Y-4461961D02*
X-24738095Y-4366723D01*
X-24738095Y-4366723D02*
X-24785714Y-4176247D01*
X-24785714Y-4176247D02*
X-24785714Y-4033390D01*
X-24785714Y-4033390D02*
X-24738095Y-3842914D01*
X-24738095Y-3842914D02*
X-24690476Y-3747676D01*
X-24690476Y-3747676D02*
X-24595238Y-3652438D01*
X-24595238Y-3652438D02*
X-24452381Y-3604819D01*
X-24452381Y-3604819D02*
X-24357143Y-3604819D01*
X-24357143Y-3604819D02*
X-24214286Y-3652438D01*
X-24214286Y-3652438D02*
X-24166667Y-3700057D01*
X-23309524Y-3938152D02*
X-23309524Y-4604819D01*
X-23547619Y-3557200D02*
X-23785714Y-4271485D01*
X-23785714Y-4271485D02*
X-23166667Y-4271485D01*
X16709580Y-26166666D02*
X16757200Y-26214285D01*
X16757200Y-26214285D02*
X16804819Y-26357142D01*
X16804819Y-26357142D02*
X16804819Y-26452380D01*
X16804819Y-26452380D02*
X16757200Y-26595237D01*
X16757200Y-26595237D02*
X16661961Y-26690475D01*
X16661961Y-26690475D02*
X16566723Y-26738094D01*
X16566723Y-26738094D02*
X16376247Y-26785713D01*
X16376247Y-26785713D02*
X16233390Y-26785713D01*
X16233390Y-26785713D02*
X16042914Y-26738094D01*
X16042914Y-26738094D02*
X15947676Y-26690475D01*
X15947676Y-26690475D02*
X15852438Y-26595237D01*
X15852438Y-26595237D02*
X15804819Y-26452380D01*
X15804819Y-26452380D02*
X15804819Y-26357142D01*
X15804819Y-26357142D02*
X15852438Y-26214285D01*
X15852438Y-26214285D02*
X15900057Y-26166666D01*
X16804819Y-25214285D02*
X16804819Y-25785713D01*
X16804819Y-25499999D02*
X15804819Y-25499999D01*
X15804819Y-25499999D02*
X15947676Y-25595237D01*
X15947676Y-25595237D02*
X16042914Y-25690475D01*
X16042914Y-25690475D02*
X16090533Y-25785713D01*
D12*
X-2967620Y-45114318D02*
X-2967620Y-46142413D01*
X-2967620Y-46142413D02*
X-2907143Y-46263365D01*
X-2907143Y-46263365D02*
X-2846667Y-46323842D01*
X-2846667Y-46323842D02*
X-2725715Y-46384318D01*
X-2725715Y-46384318D02*
X-2483810Y-46384318D01*
X-2483810Y-46384318D02*
X-2362858Y-46323842D01*
X-2362858Y-46323842D02*
X-2302381Y-46263365D01*
X-2302381Y-46263365D02*
X-2241905Y-46142413D01*
X-2241905Y-46142413D02*
X-2241905Y-45114318D01*
X-1092858Y-45537651D02*
X-1092858Y-46384318D01*
X-1395239Y-45053842D02*
X-1697620Y-45960984D01*
X-1697620Y-45960984D02*
X-911429Y-45960984D01*
D13*
X-33833334Y-36457419D02*
X-33833334Y-37171704D01*
X-33833334Y-37171704D02*
X-33880953Y-37314561D01*
X-33880953Y-37314561D02*
X-33976191Y-37409800D01*
X-33976191Y-37409800D02*
X-34119048Y-37457419D01*
X-34119048Y-37457419D02*
X-34214286Y-37457419D01*
X-33214286Y-36885990D02*
X-33309524Y-36838371D01*
X-33309524Y-36838371D02*
X-33357143Y-36790752D01*
X-33357143Y-36790752D02*
X-33404762Y-36695514D01*
X-33404762Y-36695514D02*
X-33404762Y-36647895D01*
X-33404762Y-36647895D02*
X-33357143Y-36552657D01*
X-33357143Y-36552657D02*
X-33309524Y-36505038D01*
X-33309524Y-36505038D02*
X-33214286Y-36457419D01*
X-33214286Y-36457419D02*
X-33023810Y-36457419D01*
X-33023810Y-36457419D02*
X-32928572Y-36505038D01*
X-32928572Y-36505038D02*
X-32880953Y-36552657D01*
X-32880953Y-36552657D02*
X-32833334Y-36647895D01*
X-32833334Y-36647895D02*
X-32833334Y-36695514D01*
X-32833334Y-36695514D02*
X-32880953Y-36790752D01*
X-32880953Y-36790752D02*
X-32928572Y-36838371D01*
X-32928572Y-36838371D02*
X-33023810Y-36885990D01*
X-33023810Y-36885990D02*
X-33214286Y-36885990D01*
X-33214286Y-36885990D02*
X-33309524Y-36933609D01*
X-33309524Y-36933609D02*
X-33357143Y-36981228D01*
X-33357143Y-36981228D02*
X-33404762Y-37076466D01*
X-33404762Y-37076466D02*
X-33404762Y-37266942D01*
X-33404762Y-37266942D02*
X-33357143Y-37362180D01*
X-33357143Y-37362180D02*
X-33309524Y-37409800D01*
X-33309524Y-37409800D02*
X-33214286Y-37457419D01*
X-33214286Y-37457419D02*
X-33023810Y-37457419D01*
X-33023810Y-37457419D02*
X-32928572Y-37409800D01*
X-32928572Y-37409800D02*
X-32880953Y-37362180D01*
X-32880953Y-37362180D02*
X-32833334Y-37266942D01*
X-32833334Y-37266942D02*
X-32833334Y-37076466D01*
X-32833334Y-37076466D02*
X-32880953Y-36981228D01*
X-32880953Y-36981228D02*
X-32928572Y-36933609D01*
X-32928572Y-36933609D02*
X-33023810Y-36885990D01*
D12*
X-17505682Y39576668D02*
X-16598539Y39576668D01*
X-16598539Y39576668D02*
X-16417111Y39516191D01*
X-16417111Y39516191D02*
X-16296158Y39395239D01*
X-16296158Y39395239D02*
X-16235682Y39213810D01*
X-16235682Y39213810D02*
X-16235682Y39092858D01*
X-17384730Y40120953D02*
X-17445206Y40181429D01*
X-17445206Y40181429D02*
X-17505682Y40302382D01*
X-17505682Y40302382D02*
X-17505682Y40604763D01*
X-17505682Y40604763D02*
X-17445206Y40725715D01*
X-17445206Y40725715D02*
X-17384730Y40786191D01*
X-17384730Y40786191D02*
X-17263778Y40846668D01*
X-17263778Y40846668D02*
X-17142825Y40846668D01*
X-17142825Y40846668D02*
X-16961397Y40786191D01*
X-16961397Y40786191D02*
X-16235682Y40060477D01*
X-16235682Y40060477D02*
X-16235682Y40846668D01*
D11*
X15622493Y19545181D02*
X15622493Y18830896D01*
X15622493Y18830896D02*
X15574874Y18688039D01*
X15574874Y18688039D02*
X15479636Y18592800D01*
X15479636Y18592800D02*
X15336779Y18545181D01*
X15336779Y18545181D02*
X15241541Y18545181D01*
X16622493Y18545181D02*
X16051065Y18545181D01*
X16336779Y18545181D02*
X16336779Y19545181D01*
X16336779Y19545181D02*
X16241541Y19402324D01*
X16241541Y19402324D02*
X16146303Y19307086D01*
X16146303Y19307086D02*
X16051065Y19259467D01*
X17574874Y18545181D02*
X17003446Y18545181D01*
X17289160Y18545181D02*
X17289160Y19545181D01*
X17289160Y19545181D02*
X17193922Y19402324D01*
X17193922Y19402324D02*
X17098684Y19307086D01*
X17098684Y19307086D02*
X17003446Y19259467D01*
D12*
X-33149048Y35695682D02*
X-33149048Y34788539D01*
X-33149048Y34788539D02*
X-33209525Y34607111D01*
X-33209525Y34607111D02*
X-33330477Y34486158D01*
X-33330477Y34486158D02*
X-33511906Y34425682D01*
X-33511906Y34425682D02*
X-33632858Y34425682D01*
X-32544287Y34425682D02*
X-32544287Y35695682D01*
X-32544287Y35695682D02*
X-32120953Y34788539D01*
X-32120953Y34788539D02*
X-31697620Y35695682D01*
X-31697620Y35695682D02*
X-31697620Y34425682D01*
X-30427619Y34425682D02*
X-31153334Y34425682D01*
X-30790477Y34425682D02*
X-30790477Y35695682D01*
X-30790477Y35695682D02*
X-30911429Y35514254D01*
X-30911429Y35514254D02*
X-31032381Y35393301D01*
X-31032381Y35393301D02*
X-31153334Y35332825D01*
D11*
X-24166667Y-20509580D02*
X-24214286Y-20557200D01*
X-24214286Y-20557200D02*
X-24357143Y-20604819D01*
X-24357143Y-20604819D02*
X-24452381Y-20604819D01*
X-24452381Y-20604819D02*
X-24595238Y-20557200D01*
X-24595238Y-20557200D02*
X-24690476Y-20461961D01*
X-24690476Y-20461961D02*
X-24738095Y-20366723D01*
X-24738095Y-20366723D02*
X-24785714Y-20176247D01*
X-24785714Y-20176247D02*
X-24785714Y-20033390D01*
X-24785714Y-20033390D02*
X-24738095Y-19842914D01*
X-24738095Y-19842914D02*
X-24690476Y-19747676D01*
X-24690476Y-19747676D02*
X-24595238Y-19652438D01*
X-24595238Y-19652438D02*
X-24452381Y-19604819D01*
X-24452381Y-19604819D02*
X-24357143Y-19604819D01*
X-24357143Y-19604819D02*
X-24214286Y-19652438D01*
X-24214286Y-19652438D02*
X-24166667Y-19700057D01*
X-23309524Y-19604819D02*
X-23500000Y-19604819D01*
X-23500000Y-19604819D02*
X-23595238Y-19652438D01*
X-23595238Y-19652438D02*
X-23642857Y-19700057D01*
X-23642857Y-19700057D02*
X-23738095Y-19842914D01*
X-23738095Y-19842914D02*
X-23785714Y-20033390D01*
X-23785714Y-20033390D02*
X-23785714Y-20414342D01*
X-23785714Y-20414342D02*
X-23738095Y-20509580D01*
X-23738095Y-20509580D02*
X-23690476Y-20557200D01*
X-23690476Y-20557200D02*
X-23595238Y-20604819D01*
X-23595238Y-20604819D02*
X-23404762Y-20604819D01*
X-23404762Y-20604819D02*
X-23309524Y-20557200D01*
X-23309524Y-20557200D02*
X-23261905Y-20509580D01*
X-23261905Y-20509580D02*
X-23214286Y-20414342D01*
X-23214286Y-20414342D02*
X-23214286Y-20176247D01*
X-23214286Y-20176247D02*
X-23261905Y-20081009D01*
X-23261905Y-20081009D02*
X-23309524Y-20033390D01*
X-23309524Y-20033390D02*
X-23404762Y-19985771D01*
X-23404762Y-19985771D02*
X-23595238Y-19985771D01*
X-23595238Y-19985771D02*
X-23690476Y-20033390D01*
X-23690476Y-20033390D02*
X-23738095Y-20081009D01*
X-23738095Y-20081009D02*
X-23785714Y-20176247D01*
D12*
X-8967620Y21885682D02*
X-8967620Y20857587D01*
X-8967620Y20857587D02*
X-8907143Y20736635D01*
X-8907143Y20736635D02*
X-8846667Y20676158D01*
X-8846667Y20676158D02*
X-8725715Y20615682D01*
X-8725715Y20615682D02*
X-8483810Y20615682D01*
X-8483810Y20615682D02*
X-8362858Y20676158D01*
X-8362858Y20676158D02*
X-8302381Y20736635D01*
X-8302381Y20736635D02*
X-8241905Y20857587D01*
X-8241905Y20857587D02*
X-8241905Y21885682D01*
X-7697620Y21764730D02*
X-7637144Y21825206D01*
X-7637144Y21825206D02*
X-7516191Y21885682D01*
X-7516191Y21885682D02*
X-7213810Y21885682D01*
X-7213810Y21885682D02*
X-7092858Y21825206D01*
X-7092858Y21825206D02*
X-7032382Y21764730D01*
X-7032382Y21764730D02*
X-6971905Y21643778D01*
X-6971905Y21643778D02*
X-6971905Y21522825D01*
X-6971905Y21522825D02*
X-7032382Y21341397D01*
X-7032382Y21341397D02*
X-7758096Y20615682D01*
X-7758096Y20615682D02*
X-6971905Y20615682D01*
D11*
X-24166667Y-9709580D02*
X-24214286Y-9757200D01*
X-24214286Y-9757200D02*
X-24357143Y-9804819D01*
X-24357143Y-9804819D02*
X-24452381Y-9804819D01*
X-24452381Y-9804819D02*
X-24595238Y-9757200D01*
X-24595238Y-9757200D02*
X-24690476Y-9661961D01*
X-24690476Y-9661961D02*
X-24738095Y-9566723D01*
X-24738095Y-9566723D02*
X-24785714Y-9376247D01*
X-24785714Y-9376247D02*
X-24785714Y-9233390D01*
X-24785714Y-9233390D02*
X-24738095Y-9042914D01*
X-24738095Y-9042914D02*
X-24690476Y-8947676D01*
X-24690476Y-8947676D02*
X-24595238Y-8852438D01*
X-24595238Y-8852438D02*
X-24452381Y-8804819D01*
X-24452381Y-8804819D02*
X-24357143Y-8804819D01*
X-24357143Y-8804819D02*
X-24214286Y-8852438D01*
X-24214286Y-8852438D02*
X-24166667Y-8900057D01*
X-23785714Y-8900057D02*
X-23738095Y-8852438D01*
X-23738095Y-8852438D02*
X-23642857Y-8804819D01*
X-23642857Y-8804819D02*
X-23404762Y-8804819D01*
X-23404762Y-8804819D02*
X-23309524Y-8852438D01*
X-23309524Y-8852438D02*
X-23261905Y-8900057D01*
X-23261905Y-8900057D02*
X-23214286Y-8995295D01*
X-23214286Y-8995295D02*
X-23214286Y-9090533D01*
X-23214286Y-9090533D02*
X-23261905Y-9233390D01*
X-23261905Y-9233390D02*
X-23833333Y-9804819D01*
X-23833333Y-9804819D02*
X-23214286Y-9804819D01*
D12*
X-34423333Y-1304318D02*
X-34423333Y-2211461D01*
X-34423333Y-2211461D02*
X-34483810Y-2392889D01*
X-34483810Y-2392889D02*
X-34604762Y-2513842D01*
X-34604762Y-2513842D02*
X-34786191Y-2574318D01*
X-34786191Y-2574318D02*
X-34907143Y-2574318D01*
X-33274286Y-1727651D02*
X-33274286Y-2574318D01*
X-33576667Y-1243842D02*
X-33879048Y-2150984D01*
X-33879048Y-2150984D02*
X-33092857Y-2150984D01*
D13*
X34666666Y29042581D02*
X34666666Y28328296D01*
X34666666Y28328296D02*
X34619047Y28185439D01*
X34619047Y28185439D02*
X34523809Y28090200D01*
X34523809Y28090200D02*
X34380952Y28042581D01*
X34380952Y28042581D02*
X34285714Y28042581D01*
X35571428Y29042581D02*
X35380952Y29042581D01*
X35380952Y29042581D02*
X35285714Y28994962D01*
X35285714Y28994962D02*
X35238095Y28947343D01*
X35238095Y28947343D02*
X35142857Y28804486D01*
X35142857Y28804486D02*
X35095238Y28614010D01*
X35095238Y28614010D02*
X35095238Y28233058D01*
X35095238Y28233058D02*
X35142857Y28137820D01*
X35142857Y28137820D02*
X35190476Y28090200D01*
X35190476Y28090200D02*
X35285714Y28042581D01*
X35285714Y28042581D02*
X35476190Y28042581D01*
X35476190Y28042581D02*
X35571428Y28090200D01*
X35571428Y28090200D02*
X35619047Y28137820D01*
X35619047Y28137820D02*
X35666666Y28233058D01*
X35666666Y28233058D02*
X35666666Y28471153D01*
X35666666Y28471153D02*
X35619047Y28566391D01*
X35619047Y28566391D02*
X35571428Y28614010D01*
X35571428Y28614010D02*
X35476190Y28661629D01*
X35476190Y28661629D02*
X35285714Y28661629D01*
X35285714Y28661629D02*
X35190476Y28614010D01*
X35190476Y28614010D02*
X35142857Y28566391D01*
X35142857Y28566391D02*
X35095238Y28471153D01*
D14*
%TO.C,C7*%
X-1711252Y43910000D02*
X-288748Y43910000D01*
X-1711252Y42090000D02*
X-288748Y42090000D01*
D13*
%TO.C,J3*%
X-38150000Y-19250000D02*
X-29150000Y-19250000D01*
X-38150000Y-30750000D02*
X-38150000Y-19250000D01*
D15*
X-36650000Y-31500000D02*
X-36650000Y-31500000D01*
X-36650000Y-31600000D02*
X-36650000Y-31600000D01*
D13*
X-29150000Y-19250000D02*
X-29150000Y-30750000D01*
X-29150000Y-30750000D02*
X-38150000Y-30750000D01*
D15*
X-36650000Y-31500000D02*
G75*
G02*
X-36650000Y-31600000I0J-50000D01*
G01*
X-36650000Y-31600000D02*
G75*
G02*
X-36650000Y-31500000I0J50000D01*
G01*
D14*
%TO.C,JP3*%
X-25400000Y24200000D02*
X-25400000Y24800000D01*
X-24700000Y25500000D02*
X-23300000Y25500000D01*
X-23300000Y23500000D02*
X-24700000Y23500000D01*
X-22600000Y24800000D02*
X-22600000Y24200000D01*
X-25400000Y24800000D02*
G75*
G02*
X-24700000Y25500000I699999J1D01*
G01*
X-24700000Y23500000D02*
G75*
G02*
X-25400000Y24200000I-1J699999D01*
G01*
X-23300000Y25500000D02*
G75*
G02*
X-22600000Y24800000I0J-700000D01*
G01*
X-22600000Y24200000D02*
G75*
G02*
X-23300000Y23500000I-700000J0D01*
G01*
%TO.C,C5*%
X-2415748Y38610000D02*
X415748Y38610000D01*
X-2415748Y33390000D02*
X415748Y33390000D01*
%TO.C,JP1*%
X-25400000Y27200000D02*
X-25400000Y27800000D01*
X-24700000Y28500000D02*
X-23300000Y28500000D01*
X-23300000Y26500000D02*
X-24700000Y26500000D01*
X-22600000Y27800000D02*
X-22600000Y27200000D01*
X-25400000Y27800000D02*
G75*
G02*
X-24700000Y28500000I699999J1D01*
G01*
X-24700000Y26500000D02*
G75*
G02*
X-25400000Y27200000I-1J699999D01*
G01*
X-23300000Y28500000D02*
G75*
G02*
X-22600000Y27800000I0J-700000D01*
G01*
X-22600000Y27200000D02*
G75*
G02*
X-23300000Y26500000I-700000J0D01*
G01*
D16*
%TO.C,U1*%
X-18330399Y18827106D02*
X-18330399Y-33827094D01*
X-18330399Y-33827094D02*
X9127001Y-33827094D01*
X9127001Y18827106D02*
X-18330399Y18827106D01*
X9127001Y-33827094D02*
X9127001Y18827106D01*
D13*
%TO.C,J10*%
X33800000Y-30350000D02*
X38400000Y-30350000D01*
X33800000Y-41650000D02*
X33800000Y-30350000D01*
X38400000Y-41650000D02*
X33800000Y-41650000D01*
D14*
%TO.C,C3*%
X-25415748Y-26390000D02*
X-22584252Y-26390000D01*
X-25415748Y-31610000D02*
X-22584252Y-31610000D01*
%TO.C,C4*%
X-24711252Y-5090000D02*
X-23288748Y-5090000D01*
X-24711252Y-6910000D02*
X-23288748Y-6910000D01*
%TO.C,C1*%
X17290000Y-27161252D02*
X17290000Y-24838748D01*
X20710000Y-27161252D02*
X20710000Y-24838748D01*
D12*
%TO.C,U4*%
X-13300000Y-38350000D02*
X-13300000Y-45650000D01*
X-13300000Y-45650000D02*
X-10900000Y-45650000D01*
X-10900000Y-37500000D02*
X-10900000Y-38350000D01*
X-10900000Y-38350000D02*
X-13300000Y-38350000D01*
X-10900000Y-45650000D02*
X-10900000Y-46500000D01*
X-10900000Y-46500000D02*
X-8000000Y-46500000D01*
X-8000000Y-37500000D02*
X-10900000Y-37500000D01*
X-8000000Y-40000000D02*
X-8000000Y-37500000D01*
X-8000000Y-44000000D02*
X4000000Y-44000000D01*
X-8000000Y-46500000D02*
X-8000000Y-44000000D01*
X4000000Y-37500000D02*
X4000000Y-40000000D01*
X4000000Y-40000000D02*
X-8000000Y-40000000D01*
X4000000Y-44000000D02*
X4000000Y-46500000D01*
X4000000Y-46500000D02*
X6900000Y-46500000D01*
X6900000Y-37500000D02*
X4000000Y-37500000D01*
X6900000Y-38350000D02*
X6900000Y-37500000D01*
X6900000Y-45650000D02*
X9300000Y-45650000D01*
X6900000Y-46500000D02*
X6900000Y-45650000D01*
X9300000Y-38350000D02*
X6900000Y-38350000D01*
X9300000Y-45650000D02*
X9300000Y-38350000D01*
D13*
%TO.C,J8*%
X-32150000Y-36300000D02*
X-31000000Y-36300000D01*
X-32150000Y-41900000D02*
X-32150000Y-36300000D01*
X-29000000Y-36300000D02*
X-27500000Y-36300000D01*
X-25500000Y-36300000D02*
X-24000000Y-36300000D01*
X-22000000Y-36300000D02*
X-20500000Y-36300000D01*
X-18500000Y-36300000D02*
X-17000000Y-36300000D01*
X-15000000Y-36300000D02*
X-13850000Y-36300000D01*
X-13850000Y-36300000D02*
X-13850000Y-41900000D01*
%TO.C,J2*%
X-15150000Y45750000D02*
X-6150000Y45750000D01*
X-15150000Y34250000D02*
X-15150000Y45750000D01*
D15*
X-13650000Y33500000D02*
X-13650000Y33500000D01*
X-13650000Y33400000D02*
X-13650000Y33400000D01*
D13*
X-6150000Y45750000D02*
X-6150000Y34250000D01*
X-6150000Y34250000D02*
X-15150000Y34250000D01*
D15*
X-13650000Y33500000D02*
G75*
G02*
X-13650000Y33400000I0J-50000D01*
G01*
X-13650000Y33400000D02*
G75*
G02*
X-13650000Y33500000I0J50000D01*
G01*
D17*
%TO.C,REF\u002A\u002A*%
X19000000Y-36660000D02*
X22000000Y-31460000D01*
D10*
X19543161Y-36624632D02*
X19276839Y-36215368D01*
X21720000Y-34090000D02*
X21920000Y-34270000D01*
D18*
X21740000Y-35420000D02*
X22210000Y-35520000D01*
D10*
X21865000Y-34355000D02*
X22115000Y-34525000D01*
X21875000Y-31920000D02*
X22125000Y-31920000D01*
D17*
X22000000Y-31460000D02*
X25000000Y-36660000D01*
D10*
X24466839Y-36624632D02*
X24733158Y-36215366D01*
D17*
X25000000Y-36660000D02*
X19000000Y-36660000D01*
D13*
X21678833Y-34344000D02*
X22525500Y-33888917D01*
X22049250Y-35624583D01*
X22292667Y-35476417D01*
X21858750Y-36122000D01*
X21700000Y-35360000D01*
X21869333Y-35592834D01*
X22070417Y-34333417D01*
X21255500Y-34767334D01*
X21784666Y-32894084D01*
X22303250Y-32894084D01*
X21678833Y-34344000D01*
G36*
X21678833Y-34344000D02*
G01*
X22525500Y-33888917D01*
X22049250Y-35624583D01*
X22292667Y-35476417D01*
X21858750Y-36122000D01*
X21700000Y-35360000D01*
X21869333Y-35592834D01*
X22070417Y-34333417D01*
X21255500Y-34767334D01*
X21784666Y-32894084D01*
X22303250Y-32894084D01*
X21678833Y-34344000D01*
G37*
D16*
%TO.C,J11*%
X15218700Y39623301D02*
X15218700Y20376699D01*
X15218700Y20376699D02*
X20781300Y20376699D01*
X20781300Y39623301D02*
X15218700Y39623301D01*
D10*
%TO.C,JM1*%
X-38348000Y10400000D02*
X-38348000Y10400000D01*
X-38348000Y10300000D02*
X-38348000Y10300000D01*
X-38348000Y10300000D02*
X-38348000Y10300000D01*
D13*
X-32198000Y33500000D02*
X-32198000Y33500000D01*
X-32198000Y33500000D02*
X-30350000Y33500000D01*
X-32198000Y6500000D02*
X-32198000Y6500000D01*
X-32198000Y6500000D02*
X-30350000Y6500000D01*
X-30350000Y33500000D02*
X-32198000Y33500000D01*
X-30350000Y33500000D02*
X-30350000Y33500000D01*
X-30350000Y33500000D02*
X-30350000Y33500000D01*
X-30350000Y33500000D02*
X-30350000Y6500000D01*
X-30350000Y6500000D02*
X-32198000Y6500000D01*
X-30350000Y6500000D02*
X-30350000Y33500000D01*
X-30350000Y6500000D02*
X-30350000Y6500000D01*
X-30350000Y6500000D02*
X-30350000Y6500000D01*
D10*
X-38348000Y10400000D02*
G75*
G02*
X-38348000Y10300000I0J-50000D01*
G01*
X-38348000Y10400000D02*
G75*
G02*
X-38348000Y10300000I0J-50000D01*
G01*
X-38348000Y10300000D02*
G75*
G02*
X-38348000Y10400000I0J50000D01*
G01*
D14*
%TO.C,C6*%
X-24711252Y-21090000D02*
X-23288748Y-21090000D01*
X-24711252Y-22910000D02*
X-23288748Y-22910000D01*
D12*
%TO.C,U2*%
X-19300000Y28650000D02*
X-19300000Y21350000D01*
X-19300000Y21350000D02*
X-16900000Y21350000D01*
X-16900000Y29500000D02*
X-16900000Y28650000D01*
X-16900000Y28650000D02*
X-19300000Y28650000D01*
X-16900000Y21350000D02*
X-16900000Y20500000D01*
X-16900000Y20500000D02*
X-14000000Y20500000D01*
X-14000000Y29500000D02*
X-16900000Y29500000D01*
X-14000000Y27000000D02*
X-14000000Y29500000D01*
X-14000000Y23000000D02*
X-2000000Y23000000D01*
X-14000000Y20500000D02*
X-14000000Y23000000D01*
X-2000000Y29500000D02*
X-2000000Y27000000D01*
X-2000000Y27000000D02*
X-14000000Y27000000D01*
X-2000000Y23000000D02*
X-2000000Y20500000D01*
X-2000000Y20500000D02*
X900000Y20500000D01*
X900000Y29500000D02*
X-2000000Y29500000D01*
X900000Y28650000D02*
X900000Y29500000D01*
X900000Y21350000D02*
X3300000Y21350000D01*
X900000Y20500000D02*
X900000Y21350000D01*
X3300000Y28650000D02*
X900000Y28650000D01*
X3300000Y21350000D02*
X3300000Y28650000D01*
D14*
%TO.C,C2*%
X-25415748Y-10390000D02*
X-22584252Y-10390000D01*
X-25415748Y-15610000D02*
X-22584252Y-15610000D01*
D13*
%TO.C,J4*%
X-38150000Y-3250000D02*
X-29150000Y-3250000D01*
X-38150000Y-14750000D02*
X-38150000Y-3250000D01*
D15*
X-36650000Y-15500000D02*
X-36650000Y-15500000D01*
X-36650000Y-15600000D02*
X-36650000Y-15600000D01*
D13*
X-29150000Y-3250000D02*
X-29150000Y-14750000D01*
X-29150000Y-14750000D02*
X-38150000Y-14750000D01*
D15*
X-36650000Y-15500000D02*
G75*
G02*
X-36650000Y-15600000I0J-50000D01*
G01*
X-36650000Y-15600000D02*
G75*
G02*
X-36650000Y-15500000I0J50000D01*
G01*
D13*
%TO.C,J6*%
X33800000Y27650000D02*
X38400000Y27650000D01*
X33800000Y9350000D02*
X33800000Y27650000D01*
X38400000Y9350000D02*
X33800000Y9350000D01*
%TD*%
M02*
