%TF.GenerationSoftware,KiCad,Pcbnew,9.0.6*%
%TF.CreationDate,2026-01-31T10:46:33+03:00*%
%TF.ProjectId,PMPS-20W,504d5053-2d32-4305-972e-6b696361645f,rev?*%
%TF.SameCoordinates,Original*%
%TF.FileFunction,Soldermask,Bot*%
%TF.FilePolarity,Negative*%
%FSLAX46Y46*%
G04 Gerber Fmt 4.6, Leading zero omitted, Abs format (unit mm)*
G04 Created by KiCad (PCBNEW 9.0.6) date 2026-01-31 10:46:33*
%MOMM*%
%LPD*%
G01*
G04 APERTURE LIST*
G04 Aperture macros list*
%AMRoundRect*
0 Rectangle with rounded corners*
0 $1 Rounding radius*
0 $2 $3 $4 $5 $6 $7 $8 $9 X,Y pos of 4 corners*
0 Add a 4 corners polygon primitive as box body*
4,1,4,$2,$3,$4,$5,$6,$7,$8,$9,$2,$3,0*
0 Add four circle primitives for the rounded corners*
1,1,$1+$1,$2,$3*
1,1,$1+$1,$4,$5*
1,1,$1+$1,$6,$7*
1,1,$1+$1,$8,$9*
0 Add four rect primitives between the rounded corners*
20,1,$1+$1,$2,$3,$4,$5,0*
20,1,$1+$1,$4,$5,$6,$7,0*
20,1,$1+$1,$6,$7,$8,$9,0*
20,1,$1+$1,$8,$9,$2,$3,0*%
G04 Aperture macros list end*
%ADD10C,1.950000*%
%ADD11C,2.020000*%
%ADD12C,8.620000*%
%ADD13C,2.220000*%
%ADD14C,2.350000*%
%ADD15C,4.420000*%
%ADD16RoundRect,0.100000X-0.775000X-0.150000X0.775000X-0.150000X0.775000X0.150000X-0.775000X0.150000X0*%
%ADD17RoundRect,0.100000X-0.700000X-0.900000X0.700000X-0.900000X0.700000X0.900000X-0.700000X0.900000X0*%
G04 APERTURE END LIST*
%TO.C,JP2*%
G36*
X-22850000Y23250000D02*
G01*
X-25150000Y23250000D01*
X-25150000Y21750000D01*
X-22850000Y21750000D01*
X-22850000Y23250000D01*
G37*
%TO.C,JP4*%
G36*
X-22850000Y20250000D02*
G01*
X-25150000Y20250000D01*
X-25150000Y18750000D01*
X-22850000Y18750000D01*
X-22850000Y20250000D01*
G37*
%TD*%
D10*
%TO.C,J3*%
X-26235000Y-18540000D03*
X-26235000Y-16000000D03*
X-26235000Y-13460000D03*
%TD*%
D11*
%TO.C,U1*%
X5799999Y11500006D03*
X-2200000Y11500006D03*
X-15000000Y-33500006D03*
X5799999Y-33500006D03*
%TD*%
D12*
%TO.C,H1*%
X-35000000Y-45000000D03*
%TD*%
D13*
%TO.C,J10*%
X35000000Y-39500000D03*
X35000000Y-36000000D03*
X35000000Y-32500000D03*
%TD*%
D10*
%TO.C,J2*%
X-13540000Y23235000D03*
X-11000000Y23235000D03*
X-8460000Y23235000D03*
%TD*%
D12*
%TO.C,H2*%
X-35000000Y45000000D03*
%TD*%
D13*
%TO.C,J7*%
X35000000Y-7000000D03*
X35000000Y-3500000D03*
X35000000Y0D03*
X35000000Y3500000D03*
X35000000Y7000000D03*
%TD*%
D14*
%TO.C,U4*%
X2500000Y-43000000D03*
X-12500000Y-43000000D03*
%TD*%
D12*
%TO.C,H3*%
X22000000Y-45000000D03*
%TD*%
D14*
%TO.C,U2*%
X-24000000Y10500000D03*
X-24000000Y-4500000D03*
%TD*%
D10*
%TO.C,J4*%
X-26235000Y-33540000D03*
X-26235000Y-31000000D03*
X-26235000Y-28460000D03*
%TD*%
D13*
%TO.C,J6*%
X35000000Y11500000D03*
X35000000Y15000000D03*
X35000000Y18500000D03*
X35000000Y22000000D03*
X35000000Y25500000D03*
%TD*%
D15*
%TO.C,SP1*%
X13000000Y45000000D03*
X13000000Y-45000000D03*
X37000000Y45000000D03*
X37000000Y-45000000D03*
%TD*%
D12*
%TO.C,H4*%
X22000000Y45000000D03*
%TD*%
D16*
%TO.C,J8*%
X-35875000Y5500000D03*
X-32125000Y6500000D03*
X-35875000Y7500000D03*
X-32125000Y8500000D03*
X-35875000Y9500000D03*
X-32125000Y10500000D03*
X-35875000Y11500000D03*
X-32125000Y12500000D03*
X-35875000Y13500000D03*
X-32125000Y14500000D03*
X-35875000Y15500000D03*
X-32125000Y16500000D03*
X-35875000Y17500000D03*
X-32125000Y18500000D03*
X-35875000Y19500000D03*
X-32125000Y20500000D03*
X-35875000Y21500000D03*
X-32125000Y22500000D03*
X-35875000Y23500000D03*
X-32125000Y24500000D03*
D17*
X-34000000Y3100000D03*
X-34000000Y26900000D03*
%TD*%
M02*
