%TF.GenerationSoftware,KiCad,Pcbnew,8.0.4-8.0.4-0~ubuntu22.04.1*%
%TF.CreationDate,2024-08-06T20:40:26+03:00*%
%TF.ProjectId,PM-ESPC3,504d2d45-5350-4433-932e-6b696361645f,rev?*%
%TF.SameCoordinates,Original*%
%TF.FileFunction,Copper,L2,Bot*%
%TF.FilePolarity,Positive*%
%FSLAX46Y46*%
G04 Gerber Fmt 4.6, Leading zero omitted, Abs format (unit mm)*
G04 Created by KiCad (PCBNEW 8.0.4-8.0.4-0~ubuntu22.04.1) date 2024-08-06 20:40:26*
%MOMM*%
%LPD*%
G01*
G04 APERTURE LIST*
%TA.AperFunction,ComponentPad*%
%ADD10O,1.000000X1.700000*%
%TD*%
%TA.AperFunction,ComponentPad*%
%ADD11R,1.600000X1.600000*%
%TD*%
%TA.AperFunction,ComponentPad*%
%ADD12O,1.600000X1.600000*%
%TD*%
%TA.AperFunction,ComponentPad*%
%ADD13R,1.700000X1.700000*%
%TD*%
%TA.AperFunction,ComponentPad*%
%ADD14O,1.700000X1.700000*%
%TD*%
%TA.AperFunction,ViaPad*%
%ADD15C,1.200000*%
%TD*%
%TA.AperFunction,Conductor*%
%ADD16C,0.200000*%
%TD*%
G04 APERTURE END LIST*
D10*
%TO.P,J1,5,GND*%
%TO.N,GND*%
X83820029Y-71119992D03*
X78170027Y-71119992D03*
%TD*%
D11*
%TO.P,SW3,1*%
%TO.N,/A1*%
X73660000Y-71120000D03*
D12*
%TO.P,SW3,2*%
%TO.N,/A2*%
X73660000Y-73660000D03*
%TO.P,SW3,3*%
%TO.N,/A3*%
X73660000Y-76200000D03*
%TO.P,SW3,4*%
%TO.N,+3.3V*%
X66040000Y-76200000D03*
%TO.P,SW3,5*%
X66040000Y-73660000D03*
%TO.P,SW3,6*%
X66040000Y-71120000D03*
%TD*%
D13*
%TO.P,J2,1,Pin_1*%
%TO.N,unconnected-(J2-Pin_1-Pad1)*%
X59690000Y-78740000D03*
D14*
%TO.P,J2,2,Pin_2*%
%TO.N,/GPIO2*%
X59690000Y-81280000D03*
%TO.P,J2,3,Pin_3*%
%TO.N,/GPIO3*%
X59690000Y-83820000D03*
%TO.P,J2,4,Pin_4*%
%TO.N,/GPIO9*%
X59690000Y-86360000D03*
%TO.P,J2,5,Pin_5*%
%TO.N,/GPIO8*%
X59690000Y-88900000D03*
%TO.P,J2,6,Pin_6*%
%TO.N,/GPIO7*%
X59690000Y-91440000D03*
%TO.P,J2,7,Pin_7*%
%TO.N,/GPIO6*%
X59690000Y-93980000D03*
%TO.P,J2,8,Pin_8*%
%TO.N,/GPIO5*%
X59690000Y-96520000D03*
%TO.P,J2,9,Pin_9*%
%TO.N,/GPIO4*%
X59690000Y-99060000D03*
%TO.P,J2,10,Pin_10*%
%TO.N,+3.3V*%
X59690000Y-101600000D03*
%TO.P,J2,11,Pin_11*%
%TO.N,GND*%
X59690000Y-104140000D03*
%TO.P,J2,12,Pin_12*%
%TO.N,/SDA*%
X59690000Y-106680000D03*
%TO.P,J2,13,Pin_13*%
%TO.N,/SCL*%
X59690000Y-109220000D03*
%TD*%
D13*
%TO.P,J3,1,Pin_1*%
%TO.N,GND*%
X86360000Y-119380000D03*
%TD*%
D15*
%TO.N,GND*%
X68580000Y-119380000D03*
X63500000Y-116840000D03*
X86360000Y-106680000D03*
X78740000Y-78740000D03*
X83820000Y-78740000D03*
%TO.N,/GPIO6*%
X77619900Y-104824500D03*
%TO.N,/GPIO5*%
X76575700Y-103108000D03*
%TO.N,/GPIO7*%
X79881800Y-103920000D03*
%TO.N,/GPIO4*%
X75229400Y-106189700D03*
%TO.N,/A2*%
X82732500Y-87860800D03*
%TO.N,/GPIO9*%
X81991700Y-101849800D03*
%TO.N,/GPIO8*%
X80591200Y-101172900D03*
%TO.N,+3.3V*%
X76649000Y-110194400D03*
%TD*%
D16*
%TO.N,/GPIO6*%
X77491900Y-100195000D02*
X77491900Y-104904100D01*
X71277400Y-93980000D02*
X77491900Y-100195000D01*
X59690000Y-93980000D02*
X71277400Y-93980000D01*
X77491900Y-104904100D02*
X77491900Y-105375000D01*
X77540300Y-104904100D02*
X77619900Y-104824500D01*
X77491900Y-104904100D02*
X77540300Y-104904100D01*
%TO.N,/SDA*%
X59690000Y-106189000D02*
X62503700Y-103375000D01*
X59690000Y-106680000D02*
X59690000Y-106189000D01*
%TO.N,/GPIO5*%
X76265600Y-102184000D02*
X76476800Y-102395000D01*
X70601400Y-96520000D02*
X76265600Y-102184000D01*
X59690000Y-96520000D02*
X70601400Y-96520000D01*
X76265600Y-102184000D02*
X76265600Y-102563000D01*
X76265600Y-102797900D02*
X76575700Y-103108000D01*
X76265600Y-102563000D02*
X76265600Y-102797900D01*
%TO.N,/GPIO7*%
X69923300Y-91440000D02*
X78664100Y-100181000D01*
X59690000Y-91440000D02*
X69923300Y-91440000D01*
X78664100Y-100181000D02*
X78739100Y-100256000D01*
X78664100Y-100181000D02*
X78664100Y-100321000D01*
X78664100Y-102702300D02*
X79881800Y-103920000D01*
X78664100Y-100321000D02*
X78664100Y-102702300D01*
%TO.N,/SCL*%
X63396600Y-104650000D02*
X63396600Y-103421000D01*
X59690000Y-108356000D02*
X63396600Y-104650000D01*
X59690000Y-109220000D02*
X59690000Y-108356000D01*
%TO.N,/GPIO3*%
X74474600Y-85018700D02*
X76785000Y-87329100D01*
X62040400Y-85018700D02*
X74474600Y-85018700D01*
X60841700Y-83820000D02*
X62040400Y-85018700D01*
X59690000Y-83820000D02*
X60841700Y-83820000D01*
%TO.N,/GPIO4*%
X73660100Y-102425000D02*
X73660100Y-105545000D01*
X73658500Y-102423000D02*
X73660100Y-102425000D01*
X70295500Y-99060000D02*
X73658500Y-102423000D01*
X59690000Y-99060000D02*
X70295500Y-99060000D01*
X74304800Y-106189700D02*
X75229400Y-106189700D01*
X73660100Y-105545000D02*
X74304800Y-106189700D01*
%TO.N,/GPIO2*%
X66076100Y-84415700D02*
X66413700Y-84415700D01*
X66074800Y-84417000D02*
X66076100Y-84415700D01*
X63978700Y-84417000D02*
X66074800Y-84417000D01*
X60841700Y-81280000D02*
X63978700Y-84417000D01*
X59690000Y-81280000D02*
X60841700Y-81280000D01*
X66074800Y-84417000D02*
X66185400Y-84417000D01*
%TO.N,/A2*%
X75184000Y-80265500D02*
X82583500Y-87665000D01*
X75184000Y-75184000D02*
X75184000Y-80265500D01*
X73660000Y-73660000D02*
X75184000Y-75184000D01*
X82583500Y-87711800D02*
X82583500Y-87665000D01*
X82732500Y-87860800D02*
X82583500Y-87711800D01*
%TO.N,/GPIO9*%
X74819200Y-86360000D02*
X81991700Y-93532500D01*
X59690000Y-86360000D02*
X74819200Y-86360000D01*
X81991700Y-93532500D02*
X82027400Y-93568200D01*
X81991700Y-93532500D02*
X81991700Y-101849800D01*
%TO.N,/GPIO8*%
X73400000Y-88900000D02*
X80414200Y-95914200D01*
X59690000Y-88900000D02*
X73400000Y-88900000D01*
X80414200Y-100995900D02*
X80591200Y-101172900D01*
X80414200Y-95914200D02*
X80414200Y-100995900D01*
%TO.N,+3.3V*%
X66040000Y-76200000D02*
X67141700Y-76200000D01*
X82893400Y-91951700D02*
X67141700Y-76200000D01*
X82893400Y-103950000D02*
X82893400Y-91951700D01*
X76649000Y-110194400D02*
X82893400Y-103950000D01*
X73873900Y-110194400D02*
X76649000Y-110194400D01*
X72930500Y-109251000D02*
X73873900Y-110194400D01*
X66431600Y-102752000D02*
X72930500Y-109251000D01*
X60842000Y-102752000D02*
X66431600Y-102752000D01*
X59690000Y-101600000D02*
X60842000Y-102752000D01*
%TD*%
%TA.AperFunction,Conductor*%
%TO.N,GND*%
G36*
X85093032Y-68980649D02*
G01*
X85165195Y-68984194D01*
X85418109Y-68996619D01*
X85430213Y-68997811D01*
X85749144Y-69045120D01*
X85761059Y-69047490D01*
X86073824Y-69125833D01*
X86085466Y-69129366D01*
X86135474Y-69147259D01*
X86389021Y-69237979D01*
X86400256Y-69242633D01*
X86488784Y-69284503D01*
X86691728Y-69380488D01*
X86702445Y-69386216D01*
X86940572Y-69528944D01*
X86978987Y-69551969D01*
X86989105Y-69558729D01*
X87248075Y-69750795D01*
X87257481Y-69758515D01*
X87496375Y-69975035D01*
X87504964Y-69983624D01*
X87590203Y-70077671D01*
X87721484Y-70222518D01*
X87729204Y-70231924D01*
X87921270Y-70490894D01*
X87928030Y-70501012D01*
X88093776Y-70777542D01*
X88099513Y-70788275D01*
X88237366Y-71079743D01*
X88242022Y-71090985D01*
X88350633Y-71394533D01*
X88354166Y-71406177D01*
X88432506Y-71718928D01*
X88434880Y-71730863D01*
X88482187Y-72049782D01*
X88483380Y-72061892D01*
X88499351Y-72386967D01*
X88499500Y-72393052D01*
X88499500Y-120646947D01*
X88499351Y-120653032D01*
X88483380Y-120978107D01*
X88482187Y-120990217D01*
X88434880Y-121309136D01*
X88432506Y-121321071D01*
X88354166Y-121633822D01*
X88350633Y-121645466D01*
X88242022Y-121949014D01*
X88237366Y-121960256D01*
X88099513Y-122251724D01*
X88093776Y-122262457D01*
X87928030Y-122538987D01*
X87921270Y-122549105D01*
X87729204Y-122808075D01*
X87721484Y-122817481D01*
X87504972Y-123056367D01*
X87496367Y-123064972D01*
X87257481Y-123281484D01*
X87248075Y-123289204D01*
X86989105Y-123481270D01*
X86978987Y-123488030D01*
X86702457Y-123653776D01*
X86691724Y-123659513D01*
X86400256Y-123797366D01*
X86389014Y-123802022D01*
X86085466Y-123910633D01*
X86073822Y-123914166D01*
X85761071Y-123992506D01*
X85749136Y-123994880D01*
X85430217Y-124042187D01*
X85418107Y-124043380D01*
X85093033Y-124059351D01*
X85086948Y-124059500D01*
X62233052Y-124059500D01*
X62226967Y-124059351D01*
X61901892Y-124043380D01*
X61889782Y-124042187D01*
X61570863Y-123994880D01*
X61558928Y-123992506D01*
X61246177Y-123914166D01*
X61234533Y-123910633D01*
X60930985Y-123802022D01*
X60919743Y-123797366D01*
X60628275Y-123659513D01*
X60617547Y-123653778D01*
X60341012Y-123488030D01*
X60330894Y-123481270D01*
X60071924Y-123289204D01*
X60062518Y-123281484D01*
X60021439Y-123244252D01*
X59823624Y-123064964D01*
X59815035Y-123056375D01*
X59598515Y-122817481D01*
X59590795Y-122808075D01*
X59398729Y-122549105D01*
X59391969Y-122538987D01*
X59226216Y-122262445D01*
X59220486Y-122251724D01*
X59082633Y-121960256D01*
X59077977Y-121949014D01*
X58969366Y-121645466D01*
X58965833Y-121633822D01*
X58961125Y-121615026D01*
X58887490Y-121321059D01*
X58885119Y-121309136D01*
X58837812Y-120990217D01*
X58836619Y-120978106D01*
X58820649Y-120653031D01*
X58820500Y-120646947D01*
X58820500Y-110498028D01*
X58840185Y-110430989D01*
X58892989Y-110385234D01*
X58962147Y-110375290D01*
X59006582Y-110392877D01*
X59007478Y-110391326D01*
X59012166Y-110394032D01*
X59012170Y-110394035D01*
X59226337Y-110493903D01*
X59454592Y-110555063D01*
X59642918Y-110571539D01*
X59689999Y-110575659D01*
X59690000Y-110575659D01*
X59690001Y-110575659D01*
X59729234Y-110572226D01*
X59925408Y-110555063D01*
X60153663Y-110493903D01*
X60367830Y-110394035D01*
X60561401Y-110258495D01*
X60728495Y-110091401D01*
X60864035Y-109897830D01*
X60963903Y-109683663D01*
X61025063Y-109455408D01*
X61045659Y-109220000D01*
X61044351Y-109205055D01*
X61025063Y-108984596D01*
X61025063Y-108984592D01*
X60963903Y-108756337D01*
X60864035Y-108542171D01*
X60728495Y-108348599D01*
X60728494Y-108348597D01*
X60725295Y-108345398D01*
X60691810Y-108284075D01*
X60696794Y-108214383D01*
X60725299Y-108170032D01*
X63759002Y-105136822D01*
X63759078Y-105136757D01*
X63765313Y-105130521D01*
X63765316Y-105130520D01*
X63821571Y-105074264D01*
X63876039Y-105019806D01*
X63877105Y-105018769D01*
X63877106Y-105018768D01*
X63877671Y-105017760D01*
X63919969Y-104944499D01*
X63955373Y-104883189D01*
X63956179Y-104881841D01*
X63956181Y-104881836D01*
X63956506Y-104880555D01*
X63975951Y-104807985D01*
X63975951Y-104807984D01*
X63975952Y-104807984D01*
X63975952Y-104807980D01*
X63997094Y-104729106D01*
X63997094Y-104729100D01*
X63997100Y-104729058D01*
X63997100Y-104656128D01*
X63997103Y-104621417D01*
X63997107Y-104570991D01*
X63997106Y-104570988D01*
X63997107Y-104563187D01*
X63997100Y-104563061D01*
X63997100Y-103476500D01*
X64016785Y-103409461D01*
X64069589Y-103363706D01*
X64121100Y-103352500D01*
X66131498Y-103352500D01*
X66198537Y-103372185D01*
X66219180Y-103388819D01*
X72442913Y-109612647D01*
X72442912Y-109612647D01*
X72465087Y-109634822D01*
X72465088Y-109634824D01*
X72568845Y-109738581D01*
X72568851Y-109738586D01*
X73389039Y-110558774D01*
X73389049Y-110558785D01*
X73393379Y-110563115D01*
X73393380Y-110563116D01*
X73505184Y-110674920D01*
X73591995Y-110725039D01*
X73591997Y-110725041D01*
X73630051Y-110747011D01*
X73642115Y-110753977D01*
X73794843Y-110794900D01*
X73952957Y-110794900D01*
X75661688Y-110794900D01*
X75728727Y-110814585D01*
X75760642Y-110844173D01*
X75832237Y-110938981D01*
X75982958Y-111076380D01*
X75982960Y-111076382D01*
X76082141Y-111137792D01*
X76156363Y-111183748D01*
X76346544Y-111257424D01*
X76547024Y-111294900D01*
X76547026Y-111294900D01*
X76750974Y-111294900D01*
X76750976Y-111294900D01*
X76951456Y-111257424D01*
X77141637Y-111183748D01*
X77315041Y-111076381D01*
X77465764Y-110938979D01*
X77588673Y-110776221D01*
X77679582Y-110593650D01*
X77735397Y-110397483D01*
X77754215Y-110194400D01*
X77737877Y-110018086D01*
X77751292Y-109949519D01*
X77773664Y-109918969D01*
X83251906Y-104440728D01*
X83251911Y-104440724D01*
X83262114Y-104430520D01*
X83262116Y-104430520D01*
X83373920Y-104318716D01*
X83437553Y-104208500D01*
X83452977Y-104181785D01*
X83493900Y-104029057D01*
X83493900Y-103870943D01*
X83493900Y-92040760D01*
X83493901Y-92040747D01*
X83493901Y-91872644D01*
X83452976Y-91719914D01*
X83452973Y-91719909D01*
X83373924Y-91582990D01*
X83373918Y-91582982D01*
X67629290Y-75838355D01*
X67629288Y-75838352D01*
X67510417Y-75719481D01*
X67510416Y-75719480D01*
X67415220Y-75664519D01*
X67373485Y-75640423D01*
X67246668Y-75606442D01*
X67187010Y-75570078D01*
X67171376Y-75548667D01*
X67170575Y-75547281D01*
X67170568Y-75547266D01*
X67040047Y-75360861D01*
X67040045Y-75360858D01*
X66879141Y-75199954D01*
X66692734Y-75069432D01*
X66692728Y-75069429D01*
X66665038Y-75056517D01*
X66634724Y-75042381D01*
X66582285Y-74996210D01*
X66563133Y-74929017D01*
X66583348Y-74862135D01*
X66634725Y-74817618D01*
X66692734Y-74790568D01*
X66879139Y-74660047D01*
X67040047Y-74499139D01*
X67170568Y-74312734D01*
X67266739Y-74106496D01*
X67325635Y-73886692D01*
X67345468Y-73660000D01*
X67345468Y-73659998D01*
X72354532Y-73659998D01*
X72354532Y-73660001D01*
X72374364Y-73886686D01*
X72374366Y-73886697D01*
X72433258Y-74106488D01*
X72433261Y-74106497D01*
X72529431Y-74312732D01*
X72529432Y-74312734D01*
X72659954Y-74499141D01*
X72820858Y-74660045D01*
X72820861Y-74660047D01*
X73007266Y-74790568D01*
X73065275Y-74817618D01*
X73117714Y-74863791D01*
X73136866Y-74930984D01*
X73116650Y-74997865D01*
X73065275Y-75042382D01*
X73007267Y-75069431D01*
X73007265Y-75069432D01*
X72820858Y-75199954D01*
X72659954Y-75360858D01*
X72529432Y-75547265D01*
X72529431Y-75547267D01*
X72433261Y-75753502D01*
X72433258Y-75753511D01*
X72374366Y-75973302D01*
X72374364Y-75973313D01*
X72354532Y-76199998D01*
X72354532Y-76200001D01*
X72374364Y-76426686D01*
X72374366Y-76426697D01*
X72433258Y-76646488D01*
X72433261Y-76646497D01*
X72529431Y-76852732D01*
X72529432Y-76852734D01*
X72659954Y-77039141D01*
X72820858Y-77200045D01*
X72820861Y-77200047D01*
X73007266Y-77330568D01*
X73213504Y-77426739D01*
X73433308Y-77485635D01*
X73595230Y-77499801D01*
X73659998Y-77505468D01*
X73660000Y-77505468D01*
X73660002Y-77505468D01*
X73716673Y-77500509D01*
X73886692Y-77485635D01*
X74106496Y-77426739D01*
X74312734Y-77330568D01*
X74388378Y-77277601D01*
X74454583Y-77255275D01*
X74522350Y-77272285D01*
X74570163Y-77323233D01*
X74583500Y-77379177D01*
X74583500Y-80178830D01*
X74583499Y-80178848D01*
X74583499Y-80344554D01*
X74583498Y-80344554D01*
X74624423Y-80497285D01*
X74653358Y-80547400D01*
X74653359Y-80547404D01*
X74653360Y-80547404D01*
X74703479Y-80634214D01*
X74703481Y-80634217D01*
X74822349Y-80753085D01*
X74822355Y-80753090D01*
X81612623Y-87543358D01*
X81646108Y-87604681D01*
X81646831Y-87653823D01*
X81646102Y-87657718D01*
X81627285Y-87860799D01*
X81627285Y-87860800D01*
X81646102Y-88063882D01*
X81701917Y-88260047D01*
X81701922Y-88260060D01*
X81792827Y-88442621D01*
X81915737Y-88605381D01*
X82066458Y-88742780D01*
X82066460Y-88742782D01*
X82165641Y-88804192D01*
X82239863Y-88850148D01*
X82430044Y-88923824D01*
X82630524Y-88961300D01*
X82630526Y-88961300D01*
X82834474Y-88961300D01*
X82834476Y-88961300D01*
X83034956Y-88923824D01*
X83225137Y-88850148D01*
X83398541Y-88742781D01*
X83549264Y-88605379D01*
X83672173Y-88442621D01*
X83763082Y-88260050D01*
X83818897Y-88063883D01*
X83837715Y-87860800D01*
X83832972Y-87809619D01*
X83818897Y-87657717D01*
X83800982Y-87594753D01*
X83763082Y-87461550D01*
X83672173Y-87278979D01*
X83549264Y-87116221D01*
X83549262Y-87116218D01*
X83398541Y-86978819D01*
X83398539Y-86978817D01*
X83225142Y-86871455D01*
X83225135Y-86871451D01*
X83130046Y-86834614D01*
X83034956Y-86797776D01*
X82834476Y-86760300D01*
X82630524Y-86760300D01*
X82630520Y-86760300D01*
X82608421Y-86764431D01*
X82538906Y-86757399D01*
X82497958Y-86730223D01*
X75820819Y-80053084D01*
X75787334Y-79991761D01*
X75784500Y-79965403D01*
X75784500Y-75104945D01*
X75784500Y-75104943D01*
X75743577Y-74952216D01*
X75730183Y-74929017D01*
X75664524Y-74815290D01*
X75664521Y-74815286D01*
X75664520Y-74815284D01*
X75552716Y-74703480D01*
X75552715Y-74703479D01*
X75548385Y-74699149D01*
X75548374Y-74699139D01*
X74951941Y-74102706D01*
X74918456Y-74041383D01*
X74919847Y-73982931D01*
X74945635Y-73886692D01*
X74965468Y-73660000D01*
X74945635Y-73433308D01*
X74886739Y-73213504D01*
X74790568Y-73007266D01*
X74660047Y-72820861D01*
X74660045Y-72820858D01*
X74499143Y-72659956D01*
X74474536Y-72642726D01*
X74430912Y-72588149D01*
X74423719Y-72518650D01*
X74455241Y-72456296D01*
X74515471Y-72420882D01*
X74532404Y-72417861D01*
X74567483Y-72414091D01*
X74702331Y-72363796D01*
X74817546Y-72277546D01*
X74903796Y-72162331D01*
X74954091Y-72027483D01*
X74960500Y-71967873D01*
X74960499Y-70272128D01*
X74954091Y-70212517D01*
X74919567Y-70119954D01*
X74903797Y-70077671D01*
X74903793Y-70077664D01*
X74817547Y-69962455D01*
X74817544Y-69962452D01*
X74702335Y-69876206D01*
X74702328Y-69876202D01*
X74567482Y-69825908D01*
X74567483Y-69825908D01*
X74507883Y-69819501D01*
X74507881Y-69819500D01*
X74507873Y-69819500D01*
X74507864Y-69819500D01*
X72812129Y-69819500D01*
X72812123Y-69819501D01*
X72752516Y-69825908D01*
X72617671Y-69876202D01*
X72617664Y-69876206D01*
X72502455Y-69962452D01*
X72502452Y-69962455D01*
X72416206Y-70077664D01*
X72416202Y-70077671D01*
X72365908Y-70212517D01*
X72363822Y-70231924D01*
X72359501Y-70272123D01*
X72359500Y-70272135D01*
X72359500Y-71967870D01*
X72359501Y-71967876D01*
X72365908Y-72027483D01*
X72416202Y-72162328D01*
X72416206Y-72162335D01*
X72502452Y-72277544D01*
X72502455Y-72277547D01*
X72617664Y-72363793D01*
X72617671Y-72363797D01*
X72662618Y-72380561D01*
X72752517Y-72414091D01*
X72787596Y-72417862D01*
X72852144Y-72444599D01*
X72891993Y-72501991D01*
X72894488Y-72571816D01*
X72858836Y-72631905D01*
X72845464Y-72642725D01*
X72820858Y-72659954D01*
X72659954Y-72820858D01*
X72529432Y-73007265D01*
X72529431Y-73007267D01*
X72433261Y-73213502D01*
X72433258Y-73213511D01*
X72374366Y-73433302D01*
X72374364Y-73433313D01*
X72354532Y-73659998D01*
X67345468Y-73659998D01*
X67325635Y-73433308D01*
X67266739Y-73213504D01*
X67170568Y-73007266D01*
X67040047Y-72820861D01*
X67040045Y-72820858D01*
X66879141Y-72659954D01*
X66692734Y-72529432D01*
X66692728Y-72529429D01*
X66634725Y-72502382D01*
X66582285Y-72456210D01*
X66563133Y-72389017D01*
X66583348Y-72322135D01*
X66634725Y-72277618D01*
X66692734Y-72250568D01*
X66879139Y-72120047D01*
X67040047Y-71959139D01*
X67170568Y-71772734D01*
X67266739Y-71566496D01*
X67325635Y-71346692D01*
X67345468Y-71120000D01*
X67325635Y-70893308D01*
X67266739Y-70673504D01*
X67170568Y-70467266D01*
X67040047Y-70280861D01*
X67040045Y-70280858D01*
X66879141Y-70119954D01*
X66692734Y-69989432D01*
X66692732Y-69989431D01*
X66486497Y-69893261D01*
X66486488Y-69893258D01*
X66266697Y-69834366D01*
X66266693Y-69834365D01*
X66266692Y-69834365D01*
X66266691Y-69834364D01*
X66266686Y-69834364D01*
X66040002Y-69814532D01*
X66039998Y-69814532D01*
X65813313Y-69834364D01*
X65813302Y-69834366D01*
X65593511Y-69893258D01*
X65593502Y-69893261D01*
X65387267Y-69989431D01*
X65387265Y-69989432D01*
X65200858Y-70119954D01*
X65039954Y-70280858D01*
X64909432Y-70467265D01*
X64909431Y-70467267D01*
X64813261Y-70673502D01*
X64813258Y-70673511D01*
X64754366Y-70893302D01*
X64754364Y-70893313D01*
X64734532Y-71119998D01*
X64734532Y-71120001D01*
X64754364Y-71346686D01*
X64754366Y-71346697D01*
X64813258Y-71566488D01*
X64813261Y-71566497D01*
X64909431Y-71772732D01*
X64909432Y-71772734D01*
X65039954Y-71959141D01*
X65200858Y-72120045D01*
X65200861Y-72120047D01*
X65387266Y-72250568D01*
X65445275Y-72277618D01*
X65497714Y-72323791D01*
X65516866Y-72390984D01*
X65496650Y-72457865D01*
X65445275Y-72502382D01*
X65387267Y-72529431D01*
X65387265Y-72529432D01*
X65200858Y-72659954D01*
X65039954Y-72820858D01*
X64909432Y-73007265D01*
X64909431Y-73007267D01*
X64813261Y-73213502D01*
X64813258Y-73213511D01*
X64754366Y-73433302D01*
X64754364Y-73433313D01*
X64734532Y-73659998D01*
X64734532Y-73660001D01*
X64754364Y-73886686D01*
X64754366Y-73886697D01*
X64813258Y-74106488D01*
X64813261Y-74106497D01*
X64909431Y-74312732D01*
X64909432Y-74312734D01*
X65039954Y-74499141D01*
X65200858Y-74660045D01*
X65200861Y-74660047D01*
X65387266Y-74790568D01*
X65445275Y-74817618D01*
X65497714Y-74863791D01*
X65516866Y-74930984D01*
X65496650Y-74997865D01*
X65445275Y-75042382D01*
X65387267Y-75069431D01*
X65387265Y-75069432D01*
X65200858Y-75199954D01*
X65039954Y-75360858D01*
X64909432Y-75547265D01*
X64909431Y-75547267D01*
X64813261Y-75753502D01*
X64813258Y-75753511D01*
X64754366Y-75973302D01*
X64754364Y-75973313D01*
X64734532Y-76199998D01*
X64734532Y-76200001D01*
X64754364Y-76426686D01*
X64754366Y-76426697D01*
X64813258Y-76646488D01*
X64813261Y-76646497D01*
X64909431Y-76852732D01*
X64909432Y-76852734D01*
X65039954Y-77039141D01*
X65200858Y-77200045D01*
X65200861Y-77200047D01*
X65387266Y-77330568D01*
X65593504Y-77426739D01*
X65813308Y-77485635D01*
X65975230Y-77499801D01*
X66039998Y-77505468D01*
X66040000Y-77505468D01*
X66040002Y-77505468D01*
X66096673Y-77500509D01*
X66266692Y-77485635D01*
X66486496Y-77426739D01*
X66692734Y-77330568D01*
X66879139Y-77200047D01*
X66930241Y-77148945D01*
X66998145Y-77081042D01*
X67059468Y-77047557D01*
X67129160Y-77052541D01*
X67173507Y-77081042D01*
X74298984Y-84206519D01*
X74332469Y-84267842D01*
X74327485Y-84337534D01*
X74285613Y-84393467D01*
X74220149Y-84417884D01*
X74211303Y-84418200D01*
X67131201Y-84418200D01*
X67064162Y-84398515D01*
X67018407Y-84345711D01*
X67011428Y-84326300D01*
X66973277Y-84183916D01*
X66973273Y-84183909D01*
X66894224Y-84046990D01*
X66894218Y-84046982D01*
X66782417Y-83935181D01*
X66782409Y-83935175D01*
X66645490Y-83856126D01*
X66645486Y-83856124D01*
X66645484Y-83856123D01*
X66492757Y-83815200D01*
X66155157Y-83815200D01*
X65997042Y-83815200D01*
X65995219Y-83815440D01*
X65979038Y-83816500D01*
X64278797Y-83816500D01*
X64211758Y-83796815D01*
X64191116Y-83780181D01*
X61329290Y-80918355D01*
X61329288Y-80918352D01*
X61210417Y-80799481D01*
X61210409Y-80799475D01*
X61117821Y-80746020D01*
X61117819Y-80746019D01*
X61073490Y-80720425D01*
X61073483Y-80720422D01*
X60952994Y-80688136D01*
X60893334Y-80651771D01*
X60872708Y-80620768D01*
X60864038Y-80602176D01*
X60864034Y-80602169D01*
X60728496Y-80408600D01*
X60728495Y-80408599D01*
X60606567Y-80286671D01*
X60573084Y-80225351D01*
X60578068Y-80155659D01*
X60619939Y-80099725D01*
X60650915Y-80082810D01*
X60782331Y-80033796D01*
X60897546Y-79947546D01*
X60983796Y-79832331D01*
X61034091Y-79697483D01*
X61040500Y-79637873D01*
X61040499Y-77842128D01*
X61034091Y-77782517D01*
X60983796Y-77647669D01*
X60983795Y-77647668D01*
X60983793Y-77647664D01*
X60897547Y-77532455D01*
X60897544Y-77532452D01*
X60782335Y-77446206D01*
X60782328Y-77446202D01*
X60647482Y-77395908D01*
X60647483Y-77395908D01*
X60587883Y-77389501D01*
X60587881Y-77389500D01*
X60587873Y-77389500D01*
X60587865Y-77389500D01*
X58977364Y-77389500D01*
X58910325Y-77369815D01*
X58864570Y-77317011D01*
X58854626Y-77247853D01*
X58858703Y-77229506D01*
X58883145Y-77148931D01*
X58892438Y-77126495D01*
X58961283Y-76997696D01*
X58974779Y-76977497D01*
X59067427Y-76864606D01*
X59084606Y-76847427D01*
X59197497Y-76754779D01*
X59217696Y-76741283D01*
X59346495Y-76672438D01*
X59368928Y-76663146D01*
X59508688Y-76620750D01*
X59532519Y-76616010D01*
X59683938Y-76601096D01*
X59696092Y-76600500D01*
X62349476Y-76600500D01*
X62349477Y-76600500D01*
X62543609Y-76572587D01*
X62585992Y-76566494D01*
X62585993Y-76566493D01*
X62585997Y-76566493D01*
X62815271Y-76499172D01*
X63032630Y-76399908D01*
X63233650Y-76270720D01*
X63414239Y-76114239D01*
X63570720Y-75933650D01*
X63699908Y-75732630D01*
X63799172Y-75515271D01*
X63866493Y-75285997D01*
X63869837Y-75262743D01*
X63878864Y-75199953D01*
X63900500Y-75049477D01*
X63900500Y-74930000D01*
X63900500Y-74872417D01*
X63900500Y-69856092D01*
X63901097Y-69843938D01*
X63909510Y-69758515D01*
X63916010Y-69692519D01*
X63920750Y-69668688D01*
X63963146Y-69528928D01*
X63972438Y-69506495D01*
X64041283Y-69377696D01*
X64054779Y-69357497D01*
X64147427Y-69244606D01*
X64164606Y-69227427D01*
X64277497Y-69134779D01*
X64297696Y-69121283D01*
X64426495Y-69052438D01*
X64448928Y-69043146D01*
X64588688Y-69000750D01*
X64612519Y-68996010D01*
X64763938Y-68981096D01*
X64776092Y-68980500D01*
X64827583Y-68980500D01*
X85032417Y-68980500D01*
X85086948Y-68980500D01*
X85093032Y-68980649D01*
G37*
%TD.AperFunction*%
%TA.AperFunction,Conductor*%
G36*
X59006582Y-102772877D02*
G01*
X59007478Y-102771326D01*
X59012166Y-102774032D01*
X59012170Y-102774035D01*
X59226337Y-102873903D01*
X59454592Y-102935063D01*
X59628748Y-102950300D01*
X59689999Y-102955659D01*
X59690000Y-102955659D01*
X59690001Y-102955659D01*
X59751252Y-102950300D01*
X59925408Y-102935063D01*
X60053757Y-102900672D01*
X60123606Y-102902335D01*
X60173531Y-102932766D01*
X60357139Y-103116374D01*
X60357149Y-103116385D01*
X60361479Y-103120715D01*
X60361480Y-103120716D01*
X60473284Y-103232520D01*
X60552786Y-103278420D01*
X60552787Y-103278421D01*
X60610209Y-103311574D01*
X60610212Y-103311576D01*
X60610214Y-103311576D01*
X60610215Y-103311577D01*
X60762943Y-103352501D01*
X60762946Y-103352501D01*
X60928653Y-103352501D01*
X60928669Y-103352500D01*
X61377668Y-103352500D01*
X61444707Y-103372185D01*
X61490462Y-103424989D01*
X61500406Y-103494147D01*
X61471381Y-103557703D01*
X61465360Y-103564170D01*
X61097721Y-103931849D01*
X59738764Y-105290949D01*
X59677442Y-105324437D01*
X59661886Y-105326800D01*
X59454596Y-105344936D01*
X59454586Y-105344938D01*
X59226344Y-105406094D01*
X59226335Y-105406097D01*
X59012172Y-105505964D01*
X59007485Y-105508671D01*
X59006338Y-105506684D01*
X58949392Y-105525876D01*
X58881628Y-105508852D01*
X58833825Y-105457894D01*
X58820500Y-105401973D01*
X58820500Y-102878028D01*
X58840185Y-102810989D01*
X58892989Y-102765234D01*
X58962147Y-102755290D01*
X59006582Y-102772877D01*
G37*
%TD.AperFunction*%
%TD*%
M02*
