M48
; DRILL file KiCad 10.0.3 date 2026-06-07T17:17:48
; FORMAT={-:-/ absolute / metric / decimal}
; #@! TF.CreationDate,2026-06-07T17:17:48+03:00
; #@! TF.GenerationSoftware,Kicad,Pcbnew,10.0.3
; #@! TF.FileFunction,Plated,1,2,PTH
FMAT,2
METRIC
; #@! TA.AperFunction,Plated,PTH,ViaDrill
T1C0.400
; #@! TA.AperFunction,Plated,PTH,ComponentDrill
T2C0.500
; #@! TA.AperFunction,Plated,PTH,ComponentDrill
T3C0.600
; #@! TA.AperFunction,Plated,PTH,ComponentDrill
T4C1.300
; #@! TA.AperFunction,Plated,PTH,ComponentDrill
T5C1.400
; #@! TA.AperFunction,Plated,PTH,ComponentDrill
T6C2.200
; #@! TA.AperFunction,Plated,PTH,ComponentDrill
T7C4.300
%
G90
G05
T1
X-30.0Y24.5
X-30.0Y23.5
X-30.0Y22.5
X-30.0Y21.5
X-30.0Y20.5
X-30.0Y19.5
X-30.0Y18.5
X-30.0Y17.5
X-30.0Y16.5
X-30.0Y15.5
X-30.0Y13.5
X-30.0Y12.5
X-30.0Y11.5
X-30.0Y10.5
X-30.0Y9.5
X-30.0Y8.5
X-30.0Y7.5
X-30.0Y6.5
X-30.0Y5.5
X-30.0Y-5.5
X-26.0Y13.5
X-23.5Y14.5
X-21.0Y-7.0
X-21.0Y-12.0
X-19.5Y-0.5
X-18.0Y-9.0
X-15.0Y-7.5
X-14.5Y9.5
X-13.5Y9.5
X-7.0Y9.0
X-5.0Y9.0
X-2.5Y9.0
X1.399Y-13.15
X4.5Y3.5
X5.5Y-13.5
X6.5Y4.0
X6.5Y-27.0
X7.5Y4.5
X10.5Y2.0
X10.934Y10.434
X11.5Y4.0
X12.5Y11.5
X12.5Y1.0
X13.0Y-10.5
X13.5Y12.0
X14.5Y12.0
T3
X-33.225Y45.0
X-33.225Y-45.0
X-32.28Y47.28
X-32.28Y42.72
X-32.28Y-42.72
X-32.28Y-47.28
X-30.0Y48.225
X-30.0Y41.775
X-30.0Y-41.775
X-30.0Y-48.225
X-27.72Y47.28
X-27.72Y42.72
X-27.72Y-42.72
X-27.72Y-47.28
X-26.775Y45.0
X-26.775Y-45.0
X13.775Y45.0
X13.775Y-45.0
X14.72Y47.28
X14.72Y42.72
X14.72Y-42.72
X14.72Y-47.28
X17.0Y48.225
X17.0Y41.775
X17.0Y-41.775
X17.0Y-48.225
X19.28Y47.28
X19.28Y42.72
X19.28Y-42.72
X19.28Y-47.28
X20.225Y45.0
X20.225Y-45.0
T4
X-3.235Y42.54
X-3.235Y40.0
X-3.235Y37.46
X-3.235Y28.54
X-3.235Y26.0
X-3.235Y23.46
T5
X29.0Y-5.5
X29.0Y-9.0
X29.0Y-12.5
X29.0Y-16.0
X29.0Y-19.5
X29.0Y-23.0
X29.0Y-27.5
X29.0Y-31.0
X29.0Y-34.5
X29.0Y-38.0
T6
X8.1Y46.9
X8.1Y-47.1
X32.1Y46.9
X32.1Y-47.1
T7
X-30.0Y45.0
X-30.0Y-45.0
X17.0Y45.0
X17.0Y-45.0
T2
G00X-1.825Y-48.102
M15
G01X-1.825Y-47.402
M16
G05
G00X3.825Y-48.102
M15
G01X3.825Y-47.402
M16
G05
M30
