<?xml version="1.0" standalone="no"?>
 <!DOCTYPE svg PUBLIC "-//W3C//DTD SVG 1.1//EN" 
 "http://www.w3.org/Graphics/SVG/1.1/DTD/svg11.dtd"> 
<svg
  xmlns:svg="http://www.w3.org/2000/svg"
  xmlns="http://www.w3.org/2000/svg"
  xmlns:xlink="http://www.w3.org/1999/xlink"
  version="1.1"
  width="297.0022mm" height="210.0072mm" viewBox="0.0000 0.0000 297.0022 210.0072">
<title>SVG Image created as PMMCU-ESP32C3-PTH-drl_map.svg date 2025/09/11 11:52:34 </title>
  <desc>Image generated by PCBNEW </desc>
<g style="fill:#000000; fill-opacity:1.0000;stroke:#000000; stroke-opacity:1.0000;
stroke-linecap:round; stroke-linejoin:round;"
 transform="translate(0 0) scale(1 1)">
</g>
<g style="fill:none; 
stroke:#000000; stroke-width:0.2412; stroke-opacity:1; 
stroke-linecap:round; stroke-linejoin:round;">
<path d="M128.0014 110.0309 A3.6176 3.6176 0.0 0 0 131.6190 113.6485" />
<path d="M132.8248 12.3558 A4.8235 4.8235 0.0 0 0 137.6483 7.5323" />
<path d="M137.6483 120.8837
L137.6483 118.4720
" />
<path d="M132.8248 12.3558
L131.6190 12.3558
" />
<path d="M132.8248 113.6485
L131.6190 113.6485
" />
<path d="M131.6190 12.3558 A3.6176 3.6176 0.0 0 0 128.0014 15.9734" />
<path d="M137.6483 118.4720 A4.8235 4.8235 0.0 0 0 132.8248 113.6485" />
<path d="M137.6483 5.1206
L137.6483 7.5323
" />
<path d="M165.3832 113.6485
L165.3832 12.3558
" />
<path d="M165.3832 120.8837 A3.6176 3.6176 0.0 0 0 165.3832 113.6485" />
<path d="M128.0014 15.9734
L128.0014 110.0309
" />
<path d="M165.3832 5.1206
L137.6483 5.1206
" />
<path d="M165.3832 120.8837
L137.6483 120.8837
" />
<path d="M165.3832 12.3558 A3.6176 3.6176 0.0 0 0 165.3832 5.1206" />
</g>
<g style="fill:none; 
stroke:#000000; stroke-width:0.1206; stroke-opacity:1; 
stroke-linecap:round; stroke-linejoin:round;">
<circle cx="149.5623" cy="11.3281" r="0.2050" /> 
<circle cx="154.3858" cy="11.3281" r="0.2050" /> 
</g>
<g style="fill:none; 
stroke:#000000; stroke-width:0.0603; stroke-opacity:1; 
stroke-linecap:round; stroke-linejoin:round;">
<circle cx="131.6190" cy="110.0309" r="1.3265" /> 
<circle cx="165.3832" cy="117.2661" r="1.3265" /> 
<circle cx="165.3832" cy="8.7382" r="1.3265" /> 
<circle cx="131.6190" cy="15.9734" r="1.3265" /> 
</g>
<g style="fill:none; 
stroke:#000000; stroke-width:0.1206; stroke-opacity:1; 
stroke-linecap:round; stroke-linejoin:round;">
<path d="M130.1719 94.7164
L130.6543 95.1988
" />
<path d="M130.6543 94.7164
L130.1719 95.1988
" />
<path d="M130.8231 56.9579
L131.3054 57.4402
" />
<path d="M131.3054 56.9579
L130.8231 57.4402
" />
<path d="M130.8231 68.5636
L131.3054 69.0460
" />
<path d="M131.3054 68.5636
L130.8231 69.0460
" />
<path d="M132.5837 66.3786
L133.0660 66.8609
" />
<path d="M133.0660 66.3786
L132.5837 66.8609
" />
<path d="M132.5837 73.6138
L133.0660 74.0961
" />
<path d="M133.0660 73.6138
L132.5837 74.0961
" />
<path d="M132.6982 91.2556
L133.1806 91.7379
" />
<path d="M133.1806 91.2556
L132.6982 91.7379
" />
<path d="M133.7895 59.7463
L134.2719 60.2287
" />
<path d="M134.2719 59.7463
L133.7895 60.2287
" />
<path d="M134.0910 27.7909
L134.5733 28.2732
" />
<path d="M134.5733 27.7909
L134.0910 28.2732
" />
<path d="M134.2297 74.8196
L134.7120 75.3020
" />
<path d="M134.7120 74.8196
L134.2297 75.3020
" />
<path d="M135.1823 29.1113
L135.6647 29.5936
" />
<path d="M135.6647 29.1113
L135.1823 29.5936
" />
<path d="M136.2013 28.0923
L136.6836 28.5747
" />
<path d="M136.6836 28.0923
L136.2013 28.5747
" />
<path d="M138.0101 91.0988
L138.4924 91.5812
" />
<path d="M138.4924 91.0988
L138.0101 91.5812
" />
<path d="M138.6130 68.7903
L139.0953 69.2727
" />
<path d="M139.0953 68.7903
L138.6130 69.2727
" />
<path d="M140.1203 28.0923
L140.6027 28.5747
" />
<path d="M140.6027 28.0923
L140.1203 28.5747
" />
<path d="M141.5674 28.0923
L142.0497 28.5747
" />
<path d="M142.0497 28.0923
L141.5674 28.5747
" />
<path d="M141.6277 77.2314
L142.1100 77.7137
" />
<path d="M142.1100 77.2314
L141.6277 77.7137
" />
<path d="M141.8688 23.0880
L142.3512 23.5703
" />
<path d="M142.3512 23.0880
L141.8688 23.5703
" />
<path d="M142.8215 42.4901
L143.3038 42.9725
" />
<path d="M143.3038 42.4901
L142.8215 42.9725
" />
<path d="M142.9421 26.7368
L143.4244 27.2191
" />
<path d="M143.4244 26.7368
L142.9421 27.2191
" />
<path d="M143.3672 74.7573
L143.8495 75.2396
" />
<path d="M143.8495 74.7573
L143.3672 75.2396
" />
<path d="M143.4365 54.3199
L143.9188 54.8023
" />
<path d="M143.9188 54.3199
L143.4365 54.8023
" />
<path d="M144.0394 68.7903
L144.5217 69.2727
" />
<path d="M144.5217 68.7903
L144.0394 69.2727
" />
<path d="M144.0394 76.3873
L144.5217 76.8696
" />
<path d="M144.5217 76.3873
L144.0394 76.8696
" />
<path d="M144.1479 37.5130
L144.6303 37.9954
" />
<path d="M144.6303 37.5130
L144.1479 37.9954
" />
<path d="M144.7629 60.6507
L145.2453 61.1331
" />
<path d="M145.2453 60.6507
L144.7629 61.1331
" />
<path d="M145.2453 54.9229
L145.7276 55.4052
" />
<path d="M145.7276 54.9229
L145.2453 55.4052
" />
<path d="M145.4744 42.4900
L145.9567 42.9724
" />
<path d="M145.9567 42.4900
L145.4744 42.9724
" />
<path d="M145.8603 92.7026
L146.3426 93.1850
" />
<path d="M146.3426 92.7026
L145.8603 93.1850
" />
<path d="M147.6570 13.0285
L148.1393 13.5109
" />
<path d="M148.1393 13.0285
L147.6570 13.5109
" />
<path d="M147.6570 48.2906
L148.1393 48.7729
" />
<path d="M148.1393 48.2906
L147.6570 48.7729
" />
<path d="M149.4658 49.4965
L149.9481 49.9788
" />
<path d="M149.9481 49.4965
L149.4658 49.9788
" />
<path d="M149.4658 89.2900
L149.9481 89.7724
" />
<path d="M149.9481 89.2900
L149.4658 89.7724
" />
<path d="M151.1419 50.0994
L151.6243 50.5817
" />
<path d="M151.6243 50.0994
L151.1419 50.5817
" />
<path d="M151.2746 25.9821
L151.7569 26.4644
" />
<path d="M151.7569 25.9821
L151.2746 26.4644
" />
<path d="M151.2746 36.8349
L151.7569 37.3172
" />
<path d="M151.7569 36.8349
L151.2746 37.3172
" />
<path d="M151.2746 48.8935
L151.7569 49.3759
" />
<path d="M151.7569 48.8935
L151.2746 49.3759
" />
<path d="M151.8775 53.7170
L152.3599 54.1993
" />
<path d="M152.3599 53.7170
L151.8775 54.1993
" />
<path d="M152.4165 84.9670
L152.8989 85.4494
" />
<path d="M152.8989 84.9670
L152.4165 85.4494
" />
<path d="M152.8194 55.8647
L153.3017 56.3470
" />
<path d="M153.3017 55.8647
L152.8194 56.3470
" />
<path d="M154.2893 36.8349
L154.7716 37.3172
" />
<path d="M154.7716 36.8349
L154.2893 37.3172
" />
<path d="M155.4951 13.0190
L155.9775 13.5014
" />
<path d="M155.9775 13.0190
L155.4951 13.5014
" />
<path d="M157.3183 83.4440
L157.8006 83.9263
" />
<path d="M157.8006 83.4440
L157.3183 83.9263
" />
<path d="M158.5098 27.1879
L158.9921 27.6703
" />
<path d="M158.9921 27.1879
L158.5098 27.6703
" />
<path d="M158.5098 28.3938
L158.9921 28.8761
" />
<path d="M158.9921 28.3938
L158.5098 28.8761
" />
<path d="M158.5098 34.4231
L158.9921 34.9055
" />
<path d="M158.9921 34.4231
L158.5098 34.9055
" />
<path d="M158.5098 39.2466
L158.9921 39.7289
" />
<path d="M158.9921 39.2466
L158.5098 39.7289
" />
<path d="M158.5098 40.4525
L158.9921 40.9348
" />
<path d="M158.9921 40.4525
L158.5098 40.9348
" />
<path d="M158.5098 41.6583
L158.9921 42.1407
" />
<path d="M158.9921 41.6583
L158.5098 42.1407
" />
<path d="M158.5098 42.8642
L158.9921 43.3465
" />
<path d="M158.9921 42.8642
L158.5098 43.3465
" />
<path d="M158.5098 44.0701
L158.9921 44.5524
" />
<path d="M158.9921 44.0701
L158.5098 44.5524
" />
<path d="M158.5098 46.4818
L158.9921 46.9641
" />
<path d="M158.9921 46.4818
L158.5098 46.9641
" />
<path d="M158.5098 48.8935
L158.9921 49.3759
" />
<path d="M158.9921 48.8935
L158.5098 49.3759
" />
<path d="M158.5098 50.0994
L158.9921 50.5817
" />
<path d="M158.9921 50.0994
L158.5098 50.5817
" />
<path d="M159.1127 68.1874
L159.5951 68.6697
" />
<path d="M159.5951 68.1874
L159.1127 68.6697
" />
<path d="M159.1127 71.8050
L159.5951 72.2873
" />
<path d="M159.5951 71.8050
L159.1127 72.2873
" />
<path d="M159.1127 73.0108
L159.5951 73.4932
" />
<path d="M159.5951 73.0108
L159.1127 73.4932
" />
<path d="M159.1127 74.2167
L159.5951 74.6991
" />
<path d="M159.5951 74.2167
L159.1127 74.6991
" />
<path d="M162.7303 32.0114
L163.2127 32.4937
" />
<path d="M163.2127 32.0114
L162.7303 32.4937
" />
<path d="M162.7303 33.2173
L163.2127 33.6996
" />
<path d="M163.2127 33.2173
L162.7303 33.6996
" />
<circle cx="148.5675" cy="8.4943" r="0.3015" /> 
<path d="M148.2660 8.0723
L148.2660 8.9164
" />
<path d="M148.2660 8.9164 A0.3015 0.3015 0.0 0 0 148.8689 8.9164" />
<path d="M148.8689 8.9164
L148.8689 8.0723
" />
<path d="M148.8689 8.0723 A0.3015 0.3015 0.0 0 0 148.2660 8.0723" />
<circle cx="155.3806" cy="8.4943" r="0.3015" /> 
<path d="M155.0791 8.0723
L155.0791 8.9164
" />
<path d="M155.0791 8.9164 A0.3015 0.3015 0.0 0 0 155.6821 8.9164" />
<path d="M155.6821 8.9164
L155.6821 8.0723
" />
<path d="M155.6821 8.0723 A0.3015 0.3015 0.0 0 0 155.0791 8.0723" />
<path d="M136.9450 97.6226
L136.9450 98.8284
" />
<path d="M136.3421 98.2255
L137.5480 98.2255
" />
<path d="M140.0079 97.6226
L140.0079 98.8284
" />
<path d="M139.4050 98.2255
L140.6109 98.2255
" />
<path d="M146.1337 97.6226
L146.1337 98.8284
" />
<path d="M145.5308 98.2255
L146.7367 98.2255
" />
<path d="M152.2595 97.6226
L152.2595 98.8284
" />
<path d="M151.6566 98.2255
L152.8625 98.2255
" />
<path style="fill:none; 
stroke:#000000; stroke-width:0.1387; stroke-opacity:1; 
stroke-linecap:round; stroke-linejoin:round;fill:none"
d="M 163.4618,98.4626
163.4618,97.4820
162.4812,97.4820
162.4812,98.4626
Z" /> 
<path style="fill:none; 
stroke:#000000; stroke-width:0.1387; stroke-opacity:1; 
stroke-linecap:round; stroke-linejoin:round;fill:none"
d="M 163.4618,106.9036
163.4618,105.9230
162.4812,105.9230
162.4812,106.9036
Z" /> 
<path style="fill:none; 
stroke:#000000; stroke-width:0.1688; stroke-opacity:1; 
stroke-linecap:round; stroke-linejoin:round;fill:none"
d="M 141.2659,108.4633
142.1100,107.6192
141.2659,106.7751
140.4218,107.6192
Z" /> 
<path style="fill:none; 
stroke:#000000; stroke-width:0.1688; stroke-opacity:1; 
stroke-linecap:round; stroke-linejoin:round;fill:none"
d="M 141.2659,111.4780
142.1100,110.6339
141.2659,109.7898
140.4218,110.6339
Z" /> 
<path style="fill:none; 
stroke:#000000; stroke-width:0.1688; stroke-opacity:1; 
stroke-linecap:round; stroke-linejoin:round;fill:none"
d="M 145.4864,108.4633
146.3305,107.6192
145.4864,106.7751
144.6423,107.6192
Z" /> 
<path style="fill:none; 
stroke:#000000; stroke-width:0.1688; stroke-opacity:1; 
stroke-linecap:round; stroke-linejoin:round;fill:none"
d="M 145.4864,111.4780
146.3305,110.6339
145.4864,109.7898
144.6423,110.6339
Z" /> 
<path style="fill:none; 
stroke:#000000; stroke-width:0.1688; stroke-opacity:1; 
stroke-linecap:round; stroke-linejoin:round;fill:none"
d="M 149.7070,108.4633
150.5511,107.6192
149.7070,106.7751
148.8629,107.6192
Z" /> 
<path style="fill:none; 
stroke:#000000; stroke-width:0.1688; stroke-opacity:1; 
stroke-linecap:round; stroke-linejoin:round;fill:none"
d="M 149.7070,111.4780
150.5511,110.6339
149.7070,109.7898
148.8629,110.6339
Z" /> 
<path style="fill:none; 
stroke:#000000; stroke-width:0.1688; stroke-opacity:1; 
stroke-linecap:round; stroke-linejoin:round;fill:none"
d="M 153.9275,108.4633
154.7716,107.6192
153.9275,106.7751
153.0834,107.6192
Z" /> 
<path style="fill:none; 
stroke:#000000; stroke-width:0.1688; stroke-opacity:1; 
stroke-linecap:round; stroke-linejoin:round;fill:none"
d="M 153.9275,111.4780
154.7716,110.6339
153.9275,109.7898
153.0834,110.6339
Z" /> 
<path style="fill:none; 
stroke:#000000; stroke-width:0.1688; stroke-opacity:1; 
stroke-linecap:round; stroke-linejoin:round;fill:none"
d="M 158.1480,108.4633
158.9921,107.6192
158.1480,106.7751
157.3039,107.6192
Z" /> 
<path style="fill:none; 
stroke:#000000; stroke-width:0.1688; stroke-opacity:1; 
stroke-linecap:round; stroke-linejoin:round;fill:none"
d="M 158.1480,111.4780
158.9921,110.6339
158.1480,109.7898
157.3039,110.6339
Z" /> 
</g>
<g style="fill:none; 
stroke:#000000; stroke-width:0.2000; stroke-opacity:1; 
stroke-linecap:round; stroke-linejoin:round;">
<text x="129.8808" y="124.2043"
textLength="14.8667" font-size="2.6667" lengthAdjust="spacingAndGlyphs"
text-anchor="start" opacity="0" stroke-opacity="0">Drill Map:</text>
<g class="stroked-text"><desc>Drill Map:</desc>
<path d="M130.4886 124.1192
L130.4886 122.1192
" />
<path d="M130.4886 122.1192
L130.9647 122.1192
" />
<path d="M130.9647 122.1192
L131.2505 122.2144
" />
<path d="M131.2505 122.2144
L131.4409 122.4049
" />
<path d="M131.4409 122.4049
L131.5362 122.5953
" />
<path d="M131.5362 122.5953
L131.6314 122.9763
" />
<path d="M131.6314 122.9763
L131.6314 123.2620
" />
<path d="M131.6314 123.2620
L131.5362 123.6430
" />
<path d="M131.5362 123.6430
L131.4409 123.8334
" />
<path d="M131.4409 123.8334
L131.2505 124.0239
" />
<path d="M131.2505 124.0239
L130.9647 124.1192
" />
<path d="M130.9647 124.1192
L130.4886 124.1192
" />
<path d="M132.4886 124.1192
L132.4886 122.7858
" />
<path d="M132.4886 123.1668
L132.5838 122.9763
" />
<path d="M132.5838 122.9763
L132.6790 122.8811
" />
<path d="M132.6790 122.8811
L132.8695 122.7858
" />
<path d="M132.8695 122.7858
L133.0600 122.7858
" />
<path d="M133.7267 124.1192
L133.7267 122.7858
" />
<path d="M133.7267 122.1192
L133.6314 122.2144
" />
<path d="M133.6314 122.2144
L133.7267 122.3096
" />
<path d="M133.7267 122.3096
L133.8219 122.2144
" />
<path d="M133.8219 122.2144
L133.7267 122.1192
" />
<path d="M133.7267 122.1192
L133.7267 122.3096
" />
<path d="M134.9647 124.1192
L134.7743 124.0239
" />
<path d="M134.7743 124.0239
L134.6790 123.8334
" />
<path d="M134.6790 123.8334
L134.6790 122.1192
" />
<path d="M136.0124 124.1192
L135.8219 124.0239
" />
<path d="M135.8219 124.0239
L135.7267 123.8334
" />
<path d="M135.7267 123.8334
L135.7267 122.1192
" />
<path d="M138.2981 124.1192
L138.2981 122.1192
" />
<path d="M138.2981 122.1192
L138.9647 123.5477
" />
<path d="M138.9647 123.5477
L139.6314 122.1192
" />
<path d="M139.6314 122.1192
L139.6314 124.1192
" />
<path d="M141.4409 124.1192
L141.4409 123.0715
" />
<path d="M141.4409 123.0715
L141.3457 122.8811
" />
<path d="M141.3457 122.8811
L141.1552 122.7858
" />
<path d="M141.1552 122.7858
L140.7743 122.7858
" />
<path d="M140.7743 122.7858
L140.5838 122.8811
" />
<path d="M141.4409 124.0239
L141.2505 124.1192
" />
<path d="M141.2505 124.1192
L140.7743 124.1192
" />
<path d="M140.7743 124.1192
L140.5838 124.0239
" />
<path d="M140.5838 124.0239
L140.4886 123.8334
" />
<path d="M140.4886 123.8334
L140.4886 123.6430
" />
<path d="M140.4886 123.6430
L140.5838 123.4525
" />
<path d="M140.5838 123.4525
L140.7743 123.3573
" />
<path d="M140.7743 123.3573
L141.2505 123.3573
" />
<path d="M141.2505 123.3573
L141.4409 123.2620
" />
<path d="M142.3933 122.7858
L142.3933 124.7858
" />
<path d="M142.3933 122.8811
L142.5838 122.7858
" />
<path d="M142.5838 122.7858
L142.9647 122.7858
" />
<path d="M142.9647 122.7858
L143.1552 122.8811
" />
<path d="M143.1552 122.8811
L143.2505 122.9763
" />
<path d="M143.2505 122.9763
L143.3457 123.1668
" />
<path d="M143.3457 123.1668
L143.3457 123.7382
" />
<path d="M143.3457 123.7382
L143.2505 123.9287
" />
<path d="M143.2505 123.9287
L143.1552 124.0239
" />
<path d="M143.1552 124.0239
L142.9647 124.1192
" />
<path d="M142.9647 124.1192
L142.5838 124.1192
" />
<path d="M142.5838 124.1192
L142.3933 124.0239
" />
<path d="M144.2028 123.9287
L144.2981 124.0239
" />
<path d="M144.2981 124.0239
L144.2028 124.1192
" />
<path d="M144.2028 124.1192
L144.1076 124.0239
" />
<path d="M144.1076 124.0239
L144.2028 123.9287
" />
<path d="M144.2028 123.9287
L144.2028 124.1192
" />
<path d="M144.2028 122.8811
L144.2981 122.9763
" />
<path d="M144.2981 122.9763
L144.2028 123.0715
" />
<path d="M144.2028 123.0715
L144.1076 122.9763
" />
<path d="M144.1076 122.9763
L144.2028 122.8811
" />
<path d="M144.2028 122.8811
L144.2028 123.0715
" />
</g></g>
<g style="fill:none; 
stroke:#000000; stroke-width:0.1206; stroke-opacity:1; 
stroke-linecap:round; stroke-linejoin:round;">
<path d="M127.3984 127.1631
L127.8808 127.6455
" />
<path d="M127.8808 127.1631
L127.3984 127.6455
" />
</g>
<g style="fill:none; 
stroke:#000000; stroke-width:0.2000; stroke-opacity:1; 
stroke-linecap:round; stroke-linejoin:round;">
<text x="129.8808" y="128.4043"
textLength="48.7714" font-size="2.6667" lengthAdjust="spacingAndGlyphs"
text-anchor="start" opacity="0" stroke-opacity="0">0.400mm / 0.0157" (59 holes)</text>
<g class="stroked-text"><desc>0.400mm / 0.0157" (59 holes)</desc>
<path d="M130.8695 126.3192
L131.0600 126.3192
" />
<path d="M131.0600 126.3192
L131.2505 126.4144
" />
<path d="M131.2505 126.4144
L131.3457 126.5096
" />
<path d="M131.3457 126.5096
L131.4409 126.7001
" />
<path d="M131.4409 126.7001
L131.5362 127.0811
" />
<path d="M131.5362 127.0811
L131.5362 127.5573
" />
<path d="M131.5362 127.5573
L131.4409 127.9382
" />
<path d="M131.4409 127.9382
L131.3457 128.1287
" />
<path d="M131.3457 128.1287
L131.2505 128.2239
" />
<path d="M131.2505 128.2239
L131.0600 128.3192
" />
<path d="M131.0600 128.3192
L130.8695 128.3192
" />
<path d="M130.8695 128.3192
L130.6790 128.2239
" />
<path d="M130.6790 128.2239
L130.5838 128.1287
" />
<path d="M130.5838 128.1287
L130.4886 127.9382
" />
<path d="M130.4886 127.9382
L130.3933 127.5573
" />
<path d="M130.3933 127.5573
L130.3933 127.0811
" />
<path d="M130.3933 127.0811
L130.4886 126.7001
" />
<path d="M130.4886 126.7001
L130.5838 126.5096
" />
<path d="M130.5838 126.5096
L130.6790 126.4144
" />
<path d="M130.6790 126.4144
L130.8695 126.3192
" />
<path d="M132.3933 128.1287
L132.4886 128.2239
" />
<path d="M132.4886 128.2239
L132.3933 128.3192
" />
<path d="M132.3933 128.3192
L132.2981 128.2239
" />
<path d="M132.2981 128.2239
L132.3933 128.1287
" />
<path d="M132.3933 128.1287
L132.3933 128.3192
" />
<path d="M134.2028 126.9858
L134.2028 128.3192
" />
<path d="M133.7267 126.2239
L133.2505 127.6525
" />
<path d="M133.2505 127.6525
L134.4886 127.6525
" />
<path d="M135.6314 126.3192
L135.8219 126.3192
" />
<path d="M135.8219 126.3192
L136.0124 126.4144
" />
<path d="M136.0124 126.4144
L136.1076 126.5096
" />
<path d="M136.1076 126.5096
L136.2028 126.7001
" />
<path d="M136.2028 126.7001
L136.2981 127.0811
" />
<path d="M136.2981 127.0811
L136.2981 127.5573
" />
<path d="M136.2981 127.5573
L136.2028 127.9382
" />
<path d="M136.2028 127.9382
L136.1076 128.1287
" />
<path d="M136.1076 128.1287
L136.0124 128.2239
" />
<path d="M136.0124 128.2239
L135.8219 128.3192
" />
<path d="M135.8219 128.3192
L135.6314 128.3192
" />
<path d="M135.6314 128.3192
L135.4409 128.2239
" />
<path d="M135.4409 128.2239
L135.3457 128.1287
" />
<path d="M135.3457 128.1287
L135.2505 127.9382
" />
<path d="M135.2505 127.9382
L135.1552 127.5573
" />
<path d="M135.1552 127.5573
L135.1552 127.0811
" />
<path d="M135.1552 127.0811
L135.2505 126.7001
" />
<path d="M135.2505 126.7001
L135.3457 126.5096
" />
<path d="M135.3457 126.5096
L135.4409 126.4144
" />
<path d="M135.4409 126.4144
L135.6314 126.3192
" />
<path d="M137.5362 126.3192
L137.7267 126.3192
" />
<path d="M137.7267 126.3192
L137.9171 126.4144
" />
<path d="M137.9171 126.4144
L138.0124 126.5096
" />
<path d="M138.0124 126.5096
L138.1076 126.7001
" />
<path d="M138.1076 126.7001
L138.2028 127.0811
" />
<path d="M138.2028 127.0811
L138.2028 127.5573
" />
<path d="M138.2028 127.5573
L138.1076 127.9382
" />
<path d="M138.1076 127.9382
L138.0124 128.1287
" />
<path d="M138.0124 128.1287
L137.9171 128.2239
" />
<path d="M137.9171 128.2239
L137.7267 128.3192
" />
<path d="M137.7267 128.3192
L137.5362 128.3192
" />
<path d="M137.5362 128.3192
L137.3457 128.2239
" />
<path d="M137.3457 128.2239
L137.2505 128.1287
" />
<path d="M137.2505 128.1287
L137.1552 127.9382
" />
<path d="M137.1552 127.9382
L137.0600 127.5573
" />
<path d="M137.0600 127.5573
L137.0600 127.0811
" />
<path d="M137.0600 127.0811
L137.1552 126.7001
" />
<path d="M137.1552 126.7001
L137.2505 126.5096
" />
<path d="M137.2505 126.5096
L137.3457 126.4144
" />
<path d="M137.3457 126.4144
L137.5362 126.3192
" />
<path d="M139.0600 128.3192
L139.0600 126.9858
" />
<path d="M139.0600 127.1763
L139.1552 127.0811
" />
<path d="M139.1552 127.0811
L139.3457 126.9858
" />
<path d="M139.3457 126.9858
L139.6314 126.9858
" />
<path d="M139.6314 126.9858
L139.8219 127.0811
" />
<path d="M139.8219 127.0811
L139.9171 127.2715
" />
<path d="M139.9171 127.2715
L139.9171 128.3192
" />
<path d="M139.9171 127.2715
L140.0124 127.0811
" />
<path d="M140.0124 127.0811
L140.2028 126.9858
" />
<path d="M140.2028 126.9858
L140.4886 126.9858
" />
<path d="M140.4886 126.9858
L140.6790 127.0811
" />
<path d="M140.6790 127.0811
L140.7743 127.2715
" />
<path d="M140.7743 127.2715
L140.7743 128.3192
" />
<path d="M141.7267 128.3192
L141.7267 126.9858
" />
<path d="M141.7267 127.1763
L141.8219 127.0811
" />
<path d="M141.8219 127.0811
L142.0124 126.9858
" />
<path d="M142.0124 126.9858
L142.2981 126.9858
" />
<path d="M142.2981 126.9858
L142.4886 127.0811
" />
<path d="M142.4886 127.0811
L142.5838 127.2715
" />
<path d="M142.5838 127.2715
L142.5838 128.3192
" />
<path d="M142.5838 127.2715
L142.6790 127.0811
" />
<path d="M142.6790 127.0811
L142.8695 126.9858
" />
<path d="M142.8695 126.9858
L143.1552 126.9858
" />
<path d="M143.1552 126.9858
L143.3457 127.0811
" />
<path d="M143.3457 127.0811
L143.4409 127.2715
" />
<path d="M143.4409 127.2715
L143.4409 128.3192
" />
<path d="M147.3457 126.2239
L145.6314 128.7953
" />
<path d="M149.9171 126.3192
L150.1076 126.3192
" />
<path d="M150.1076 126.3192
L150.2981 126.4144
" />
<path d="M150.2981 126.4144
L150.3933 126.5096
" />
<path d="M150.3933 126.5096
L150.4886 126.7001
" />
<path d="M150.4886 126.7001
L150.5838 127.0811
" />
<path d="M150.5838 127.0811
L150.5838 127.5573
" />
<path d="M150.5838 127.5573
L150.4886 127.9382
" />
<path d="M150.4886 127.9382
L150.3933 128.1287
" />
<path d="M150.3933 128.1287
L150.2981 128.2239
" />
<path d="M150.2981 128.2239
L150.1076 128.3192
" />
<path d="M150.1076 128.3192
L149.9171 128.3192
" />
<path d="M149.9171 128.3192
L149.7267 128.2239
" />
<path d="M149.7267 128.2239
L149.6314 128.1287
" />
<path d="M149.6314 128.1287
L149.5362 127.9382
" />
<path d="M149.5362 127.9382
L149.4409 127.5573
" />
<path d="M149.4409 127.5573
L149.4409 127.0811
" />
<path d="M149.4409 127.0811
L149.5362 126.7001
" />
<path d="M149.5362 126.7001
L149.6314 126.5096
" />
<path d="M149.6314 126.5096
L149.7267 126.4144
" />
<path d="M149.7267 126.4144
L149.9171 126.3192
" />
<path d="M151.4409 128.1287
L151.5362 128.2239
" />
<path d="M151.5362 128.2239
L151.4409 128.3192
" />
<path d="M151.4409 128.3192
L151.3457 128.2239
" />
<path d="M151.3457 128.2239
L151.4409 128.1287
" />
<path d="M151.4409 128.1287
L151.4409 128.3192
" />
<path d="M152.7743 126.3192
L152.9647 126.3192
" />
<path d="M152.9647 126.3192
L153.1552 126.4144
" />
<path d="M153.1552 126.4144
L153.2505 126.5096
" />
<path d="M153.2505 126.5096
L153.3457 126.7001
" />
<path d="M153.3457 126.7001
L153.4409 127.0811
" />
<path d="M153.4409 127.0811
L153.4409 127.5573
" />
<path d="M153.4409 127.5573
L153.3457 127.9382
" />
<path d="M153.3457 127.9382
L153.2505 128.1287
" />
<path d="M153.2505 128.1287
L153.1552 128.2239
" />
<path d="M153.1552 128.2239
L152.9647 128.3192
" />
<path d="M152.9647 128.3192
L152.7743 128.3192
" />
<path d="M152.7743 128.3192
L152.5838 128.2239
" />
<path d="M152.5838 128.2239
L152.4886 128.1287
" />
<path d="M152.4886 128.1287
L152.3933 127.9382
" />
<path d="M152.3933 127.9382
L152.2981 127.5573
" />
<path d="M152.2981 127.5573
L152.2981 127.0811
" />
<path d="M152.2981 127.0811
L152.3933 126.7001
" />
<path d="M152.3933 126.7001
L152.4886 126.5096
" />
<path d="M152.4886 126.5096
L152.5838 126.4144
" />
<path d="M152.5838 126.4144
L152.7743 126.3192
" />
<path d="M155.3457 128.3192
L154.2028 128.3192
" />
<path d="M154.7743 128.3192
L154.7743 126.3192
" />
<path d="M154.7743 126.3192
L154.5838 126.6049
" />
<path d="M154.5838 126.6049
L154.3933 126.7953
" />
<path d="M154.3933 126.7953
L154.2028 126.8906
" />
<path d="M157.1552 126.3192
L156.2028 126.3192
" />
<path d="M156.2028 126.3192
L156.1076 127.2715
" />
<path d="M156.1076 127.2715
L156.2028 127.1763
" />
<path d="M156.2028 127.1763
L156.3933 127.0811
" />
<path d="M156.3933 127.0811
L156.8695 127.0811
" />
<path d="M156.8695 127.0811
L157.0600 127.1763
" />
<path d="M157.0600 127.1763
L157.1552 127.2715
" />
<path d="M157.1552 127.2715
L157.2505 127.4620
" />
<path d="M157.2505 127.4620
L157.2505 127.9382
" />
<path d="M157.2505 127.9382
L157.1552 128.1287
" />
<path d="M157.1552 128.1287
L157.0600 128.2239
" />
<path d="M157.0600 128.2239
L156.8695 128.3192
" />
<path d="M156.8695 128.3192
L156.3933 128.3192
" />
<path d="M156.3933 128.3192
L156.2028 128.2239
" />
<path d="M156.2028 128.2239
L156.1076 128.1287
" />
<path d="M157.9171 126.3192
L159.2505 126.3192
" />
<path d="M159.2505 126.3192
L158.3933 128.3192
" />
<path d="M159.9171 126.3192
L159.9171 126.7001
" />
<path d="M160.6790 126.3192
L160.6790 126.7001
" />
<path d="M163.6314 129.0811
L163.5362 128.9858
" />
<path d="M163.5362 128.9858
L163.3457 128.7001
" />
<path d="M163.3457 128.7001
L163.2505 128.5096
" />
<path d="M163.2505 128.5096
L163.1552 128.2239
" />
<path d="M163.1552 128.2239
L163.0600 127.7477
" />
<path d="M163.0600 127.7477
L163.0600 127.3668
" />
<path d="M163.0600 127.3668
L163.1552 126.8906
" />
<path d="M163.1552 126.8906
L163.2505 126.6049
" />
<path d="M163.2505 126.6049
L163.3457 126.4144
" />
<path d="M163.3457 126.4144
L163.5362 126.1287
" />
<path d="M163.5362 126.1287
L163.6314 126.0334
" />
<path d="M165.3457 126.3192
L164.3933 126.3192
" />
<path d="M164.3933 126.3192
L164.2981 127.2715
" />
<path d="M164.2981 127.2715
L164.3933 127.1763
" />
<path d="M164.3933 127.1763
L164.5838 127.0811
" />
<path d="M164.5838 127.0811
L165.0600 127.0811
" />
<path d="M165.0600 127.0811
L165.2505 127.1763
" />
<path d="M165.2505 127.1763
L165.3457 127.2715
" />
<path d="M165.3457 127.2715
L165.4409 127.4620
" />
<path d="M165.4409 127.4620
L165.4409 127.9382
" />
<path d="M165.4409 127.9382
L165.3457 128.1287
" />
<path d="M165.3457 128.1287
L165.2505 128.2239
" />
<path d="M165.2505 128.2239
L165.0600 128.3192
" />
<path d="M165.0600 128.3192
L164.5838 128.3192
" />
<path d="M164.5838 128.3192
L164.3933 128.2239
" />
<path d="M164.3933 128.2239
L164.2981 128.1287
" />
<path d="M166.3933 128.3192
L166.7743 128.3192
" />
<path d="M166.7743 128.3192
L166.9648 128.2239
" />
<path d="M166.9648 128.2239
L167.0600 128.1287
" />
<path d="M167.0600 128.1287
L167.2505 127.8430
" />
<path d="M167.2505 127.8430
L167.3457 127.4620
" />
<path d="M167.3457 127.4620
L167.3457 126.7001
" />
<path d="M167.3457 126.7001
L167.2505 126.5096
" />
<path d="M167.2505 126.5096
L167.1552 126.4144
" />
<path d="M167.1552 126.4144
L166.9648 126.3192
" />
<path d="M166.9648 126.3192
L166.5838 126.3192
" />
<path d="M166.5838 126.3192
L166.3933 126.4144
" />
<path d="M166.3933 126.4144
L166.2981 126.5096
" />
<path d="M166.2981 126.5096
L166.2028 126.7001
" />
<path d="M166.2028 126.7001
L166.2028 127.1763
" />
<path d="M166.2028 127.1763
L166.2981 127.3668
" />
<path d="M166.2981 127.3668
L166.3933 127.4620
" />
<path d="M166.3933 127.4620
L166.5838 127.5573
" />
<path d="M166.5838 127.5573
L166.9648 127.5573
" />
<path d="M166.9648 127.5573
L167.1552 127.4620
" />
<path d="M167.1552 127.4620
L167.2505 127.3668
" />
<path d="M167.2505 127.3668
L167.3457 127.1763
" />
<path d="M169.7267 128.3192
L169.7267 126.3192
" />
<path d="M170.5838 128.3192
L170.5838 127.2715
" />
<path d="M170.5838 127.2715
L170.4886 127.0811
" />
<path d="M170.4886 127.0811
L170.2981 126.9858
" />
<path d="M170.2981 126.9858
L170.0124 126.9858
" />
<path d="M170.0124 126.9858
L169.8219 127.0811
" />
<path d="M169.8219 127.0811
L169.7267 127.1763
" />
<path d="M171.8219 128.3192
L171.6314 128.2239
" />
<path d="M171.6314 128.2239
L171.5362 128.1287
" />
<path d="M171.5362 128.1287
L171.4409 127.9382
" />
<path d="M171.4409 127.9382
L171.4409 127.3668
" />
<path d="M171.4409 127.3668
L171.5362 127.1763
" />
<path d="M171.5362 127.1763
L171.6314 127.0811
" />
<path d="M171.6314 127.0811
L171.8219 126.9858
" />
<path d="M171.8219 126.9858
L172.1076 126.9858
" />
<path d="M172.1076 126.9858
L172.2981 127.0811
" />
<path d="M172.2981 127.0811
L172.3933 127.1763
" />
<path d="M172.3933 127.1763
L172.4886 127.3668
" />
<path d="M172.4886 127.3668
L172.4886 127.9382
" />
<path d="M172.4886 127.9382
L172.3933 128.1287
" />
<path d="M172.3933 128.1287
L172.2981 128.2239
" />
<path d="M172.2981 128.2239
L172.1076 128.3192
" />
<path d="M172.1076 128.3192
L171.8219 128.3192
" />
<path d="M173.6314 128.3192
L173.4409 128.2239
" />
<path d="M173.4409 128.2239
L173.3457 128.0334
" />
<path d="M173.3457 128.0334
L173.3457 126.3192
" />
<path d="M175.1552 128.2239
L174.9648 128.3192
" />
<path d="M174.9648 128.3192
L174.5838 128.3192
" />
<path d="M174.5838 128.3192
L174.3933 128.2239
" />
<path d="M174.3933 128.2239
L174.2981 128.0334
" />
<path d="M174.2981 128.0334
L174.2981 127.2715
" />
<path d="M174.2981 127.2715
L174.3933 127.0811
" />
<path d="M174.3933 127.0811
L174.5838 126.9858
" />
<path d="M174.5838 126.9858
L174.9648 126.9858
" />
<path d="M174.9648 126.9858
L175.1552 127.0811
" />
<path d="M175.1552 127.0811
L175.2505 127.2715
" />
<path d="M175.2505 127.2715
L175.2505 127.4620
" />
<path d="M175.2505 127.4620
L174.2981 127.6525
" />
<path d="M176.0124 128.2239
L176.2028 128.3192
" />
<path d="M176.2028 128.3192
L176.5838 128.3192
" />
<path d="M176.5838 128.3192
L176.7743 128.2239
" />
<path d="M176.7743 128.2239
L176.8695 128.0334
" />
<path d="M176.8695 128.0334
L176.8695 127.9382
" />
<path d="M176.8695 127.9382
L176.7743 127.7477
" />
<path d="M176.7743 127.7477
L176.5838 127.6525
" />
<path d="M176.5838 127.6525
L176.2981 127.6525
" />
<path d="M176.2981 127.6525
L176.1076 127.5573
" />
<path d="M176.1076 127.5573
L176.0124 127.3668
" />
<path d="M176.0124 127.3668
L176.0124 127.2715
" />
<path d="M176.0124 127.2715
L176.1076 127.0811
" />
<path d="M176.1076 127.0811
L176.2981 126.9858
" />
<path d="M176.2981 126.9858
L176.5838 126.9858
" />
<path d="M176.5838 126.9858
L176.7743 127.0811
" />
<path d="M177.5362 129.0811
L177.6314 128.9858
" />
<path d="M177.6314 128.9858
L177.8219 128.7001
" />
<path d="M177.8219 128.7001
L177.9171 128.5096
" />
<path d="M177.9171 128.5096
L178.0124 128.2239
" />
<path d="M178.0124 128.2239
L178.1076 127.7477
" />
<path d="M178.1076 127.7477
L178.1076 127.3668
" />
<path d="M178.1076 127.3668
L178.0124 126.8906
" />
<path d="M178.0124 126.8906
L177.9171 126.6049
" />
<path d="M177.9171 126.6049
L177.8219 126.4144
" />
<path d="M177.8219 126.4144
L177.6314 126.1287
" />
<path d="M177.6314 126.1287
L177.5362 126.0334
" />
</g></g>
<g style="fill:none; 
stroke:#000000; stroke-width:0.1206; stroke-opacity:1; 
stroke-linecap:round; stroke-linejoin:round;">
<circle cx="127.5793" cy="130.0443" r="0.3015" /> 
</g>
<g style="fill:none; 
stroke:#000000; stroke-width:0.2000; stroke-opacity:1; 
stroke-linecap:round; stroke-linejoin:round;">
<text x="129.8808" y="131.0443"
textLength="63.0571" font-size="2.6667" lengthAdjust="spacingAndGlyphs"
text-anchor="start" opacity="0" stroke-opacity="0">0.500mm / 0.0197" (0 holes + 2 slots)</text>
<g class="stroked-text"><desc>0.500mm / 0.0197" (0 holes + 2 slots)</desc>
<path d="M130.8695 128.9592
L131.0600 128.9592
" />
<path d="M131.0600 128.9592
L131.2505 129.0544
" />
<path d="M131.2505 129.0544
L131.3457 129.1496
" />
<path d="M131.3457 129.1496
L131.4409 129.3401
" />
<path d="M131.4409 129.3401
L131.5362 129.7211
" />
<path d="M131.5362 129.7211
L131.5362 130.1973
" />
<path d="M131.5362 130.1973
L131.4409 130.5782
" />
<path d="M131.4409 130.5782
L131.3457 130.7687
" />
<path d="M131.3457 130.7687
L131.2505 130.8639
" />
<path d="M131.2505 130.8639
L131.0600 130.9592
" />
<path d="M131.0600 130.9592
L130.8695 130.9592
" />
<path d="M130.8695 130.9592
L130.6790 130.8639
" />
<path d="M130.6790 130.8639
L130.5838 130.7687
" />
<path d="M130.5838 130.7687
L130.4886 130.5782
" />
<path d="M130.4886 130.5782
L130.3933 130.1973
" />
<path d="M130.3933 130.1973
L130.3933 129.7211
" />
<path d="M130.3933 129.7211
L130.4886 129.3401
" />
<path d="M130.4886 129.3401
L130.5838 129.1496
" />
<path d="M130.5838 129.1496
L130.6790 129.0544
" />
<path d="M130.6790 129.0544
L130.8695 128.9592
" />
<path d="M132.3933 130.7687
L132.4886 130.8639
" />
<path d="M132.4886 130.8639
L132.3933 130.9592
" />
<path d="M132.3933 130.9592
L132.2981 130.8639
" />
<path d="M132.2981 130.8639
L132.3933 130.7687
" />
<path d="M132.3933 130.7687
L132.3933 130.9592
" />
<path d="M134.2981 128.9592
L133.3457 128.9592
" />
<path d="M133.3457 128.9592
L133.2505 129.9115
" />
<path d="M133.2505 129.9115
L133.3457 129.8163
" />
<path d="M133.3457 129.8163
L133.5362 129.7211
" />
<path d="M133.5362 129.7211
L134.0124 129.7211
" />
<path d="M134.0124 129.7211
L134.2028 129.8163
" />
<path d="M134.2028 129.8163
L134.2981 129.9115
" />
<path d="M134.2981 129.9115
L134.3933 130.1020
" />
<path d="M134.3933 130.1020
L134.3933 130.5782
" />
<path d="M134.3933 130.5782
L134.2981 130.7687
" />
<path d="M134.2981 130.7687
L134.2028 130.8639
" />
<path d="M134.2028 130.8639
L134.0124 130.9592
" />
<path d="M134.0124 130.9592
L133.5362 130.9592
" />
<path d="M133.5362 130.9592
L133.3457 130.8639
" />
<path d="M133.3457 130.8639
L133.2505 130.7687
" />
<path d="M135.6314 128.9592
L135.8219 128.9592
" />
<path d="M135.8219 128.9592
L136.0124 129.0544
" />
<path d="M136.0124 129.0544
L136.1076 129.1496
" />
<path d="M136.1076 129.1496
L136.2028 129.3401
" />
<path d="M136.2028 129.3401
L136.2981 129.7211
" />
<path d="M136.2981 129.7211
L136.2981 130.1973
" />
<path d="M136.2981 130.1973
L136.2028 130.5782
" />
<path d="M136.2028 130.5782
L136.1076 130.7687
" />
<path d="M136.1076 130.7687
L136.0124 130.8639
" />
<path d="M136.0124 130.8639
L135.8219 130.9592
" />
<path d="M135.8219 130.9592
L135.6314 130.9592
" />
<path d="M135.6314 130.9592
L135.4409 130.8639
" />
<path d="M135.4409 130.8639
L135.3457 130.7687
" />
<path d="M135.3457 130.7687
L135.2505 130.5782
" />
<path d="M135.2505 130.5782
L135.1552 130.1973
" />
<path d="M135.1552 130.1973
L135.1552 129.7211
" />
<path d="M135.1552 129.7211
L135.2505 129.3401
" />
<path d="M135.2505 129.3401
L135.3457 129.1496
" />
<path d="M135.3457 129.1496
L135.4409 129.0544
" />
<path d="M135.4409 129.0544
L135.6314 128.9592
" />
<path d="M137.5362 128.9592
L137.7267 128.9592
" />
<path d="M137.7267 128.9592
L137.9171 129.0544
" />
<path d="M137.9171 129.0544
L138.0124 129.1496
" />
<path d="M138.0124 129.1496
L138.1076 129.3401
" />
<path d="M138.1076 129.3401
L138.2028 129.7211
" />
<path d="M138.2028 129.7211
L138.2028 130.1973
" />
<path d="M138.2028 130.1973
L138.1076 130.5782
" />
<path d="M138.1076 130.5782
L138.0124 130.7687
" />
<path d="M138.0124 130.7687
L137.9171 130.8639
" />
<path d="M137.9171 130.8639
L137.7267 130.9592
" />
<path d="M137.7267 130.9592
L137.5362 130.9592
" />
<path d="M137.5362 130.9592
L137.3457 130.8639
" />
<path d="M137.3457 130.8639
L137.2505 130.7687
" />
<path d="M137.2505 130.7687
L137.1552 130.5782
" />
<path d="M137.1552 130.5782
L137.0600 130.1973
" />
<path d="M137.0600 130.1973
L137.0600 129.7211
" />
<path d="M137.0600 129.7211
L137.1552 129.3401
" />
<path d="M137.1552 129.3401
L137.2505 129.1496
" />
<path d="M137.2505 129.1496
L137.3457 129.0544
" />
<path d="M137.3457 129.0544
L137.5362 128.9592
" />
<path d="M139.0600 130.9592
L139.0600 129.6258
" />
<path d="M139.0600 129.8163
L139.1552 129.7211
" />
<path d="M139.1552 129.7211
L139.3457 129.6258
" />
<path d="M139.3457 129.6258
L139.6314 129.6258
" />
<path d="M139.6314 129.6258
L139.8219 129.7211
" />
<path d="M139.8219 129.7211
L139.9171 129.9115
" />
<path d="M139.9171 129.9115
L139.9171 130.9592
" />
<path d="M139.9171 129.9115
L140.0124 129.7211
" />
<path d="M140.0124 129.7211
L140.2028 129.6258
" />
<path d="M140.2028 129.6258
L140.4886 129.6258
" />
<path d="M140.4886 129.6258
L140.6790 129.7211
" />
<path d="M140.6790 129.7211
L140.7743 129.9115
" />
<path d="M140.7743 129.9115
L140.7743 130.9592
" />
<path d="M141.7267 130.9592
L141.7267 129.6258
" />
<path d="M141.7267 129.8163
L141.8219 129.7211
" />
<path d="M141.8219 129.7211
L142.0124 129.6258
" />
<path d="M142.0124 129.6258
L142.2981 129.6258
" />
<path d="M142.2981 129.6258
L142.4886 129.7211
" />
<path d="M142.4886 129.7211
L142.5838 129.9115
" />
<path d="M142.5838 129.9115
L142.5838 130.9592
" />
<path d="M142.5838 129.9115
L142.6790 129.7211
" />
<path d="M142.6790 129.7211
L142.8695 129.6258
" />
<path d="M142.8695 129.6258
L143.1552 129.6258
" />
<path d="M143.1552 129.6258
L143.3457 129.7211
" />
<path d="M143.3457 129.7211
L143.4409 129.9115
" />
<path d="M143.4409 129.9115
L143.4409 130.9592
" />
<path d="M147.3457 128.8639
L145.6314 131.4353
" />
<path d="M149.9171 128.9592
L150.1076 128.9592
" />
<path d="M150.1076 128.9592
L150.2981 129.0544
" />
<path d="M150.2981 129.0544
L150.3933 129.1496
" />
<path d="M150.3933 129.1496
L150.4886 129.3401
" />
<path d="M150.4886 129.3401
L150.5838 129.7211
" />
<path d="M150.5838 129.7211
L150.5838 130.1973
" />
<path d="M150.5838 130.1973
L150.4886 130.5782
" />
<path d="M150.4886 130.5782
L150.3933 130.7687
" />
<path d="M150.3933 130.7687
L150.2981 130.8639
" />
<path d="M150.2981 130.8639
L150.1076 130.9592
" />
<path d="M150.1076 130.9592
L149.9171 130.9592
" />
<path d="M149.9171 130.9592
L149.7267 130.8639
" />
<path d="M149.7267 130.8639
L149.6314 130.7687
" />
<path d="M149.6314 130.7687
L149.5362 130.5782
" />
<path d="M149.5362 130.5782
L149.4409 130.1973
" />
<path d="M149.4409 130.1973
L149.4409 129.7211
" />
<path d="M149.4409 129.7211
L149.5362 129.3401
" />
<path d="M149.5362 129.3401
L149.6314 129.1496
" />
<path d="M149.6314 129.1496
L149.7267 129.0544
" />
<path d="M149.7267 129.0544
L149.9171 128.9592
" />
<path d="M151.4409 130.7687
L151.5362 130.8639
" />
<path d="M151.5362 130.8639
L151.4409 130.9592
" />
<path d="M151.4409 130.9592
L151.3457 130.8639
" />
<path d="M151.3457 130.8639
L151.4409 130.7687
" />
<path d="M151.4409 130.7687
L151.4409 130.9592
" />
<path d="M152.7743 128.9592
L152.9647 128.9592
" />
<path d="M152.9647 128.9592
L153.1552 129.0544
" />
<path d="M153.1552 129.0544
L153.2505 129.1496
" />
<path d="M153.2505 129.1496
L153.3457 129.3401
" />
<path d="M153.3457 129.3401
L153.4409 129.7211
" />
<path d="M153.4409 129.7211
L153.4409 130.1973
" />
<path d="M153.4409 130.1973
L153.3457 130.5782
" />
<path d="M153.3457 130.5782
L153.2505 130.7687
" />
<path d="M153.2505 130.7687
L153.1552 130.8639
" />
<path d="M153.1552 130.8639
L152.9647 130.9592
" />
<path d="M152.9647 130.9592
L152.7743 130.9592
" />
<path d="M152.7743 130.9592
L152.5838 130.8639
" />
<path d="M152.5838 130.8639
L152.4886 130.7687
" />
<path d="M152.4886 130.7687
L152.3933 130.5782
" />
<path d="M152.3933 130.5782
L152.2981 130.1973
" />
<path d="M152.2981 130.1973
L152.2981 129.7211
" />
<path d="M152.2981 129.7211
L152.3933 129.3401
" />
<path d="M152.3933 129.3401
L152.4886 129.1496
" />
<path d="M152.4886 129.1496
L152.5838 129.0544
" />
<path d="M152.5838 129.0544
L152.7743 128.9592
" />
<path d="M155.3457 130.9592
L154.2028 130.9592
" />
<path d="M154.7743 130.9592
L154.7743 128.9592
" />
<path d="M154.7743 128.9592
L154.5838 129.2449
" />
<path d="M154.5838 129.2449
L154.3933 129.4353
" />
<path d="M154.3933 129.4353
L154.2028 129.5306
" />
<path d="M156.2981 130.9592
L156.6790 130.9592
" />
<path d="M156.6790 130.9592
L156.8695 130.8639
" />
<path d="M156.8695 130.8639
L156.9647 130.7687
" />
<path d="M156.9647 130.7687
L157.1552 130.4830
" />
<path d="M157.1552 130.4830
L157.2505 130.1020
" />
<path d="M157.2505 130.1020
L157.2505 129.3401
" />
<path d="M157.2505 129.3401
L157.1552 129.1496
" />
<path d="M157.1552 129.1496
L157.0600 129.0544
" />
<path d="M157.0600 129.0544
L156.8695 128.9592
" />
<path d="M156.8695 128.9592
L156.4886 128.9592
" />
<path d="M156.4886 128.9592
L156.2981 129.0544
" />
<path d="M156.2981 129.0544
L156.2028 129.1496
" />
<path d="M156.2028 129.1496
L156.1076 129.3401
" />
<path d="M156.1076 129.3401
L156.1076 129.8163
" />
<path d="M156.1076 129.8163
L156.2028 130.0068
" />
<path d="M156.2028 130.0068
L156.2981 130.1020
" />
<path d="M156.2981 130.1020
L156.4886 130.1973
" />
<path d="M156.4886 130.1973
L156.8695 130.1973
" />
<path d="M156.8695 130.1973
L157.0600 130.1020
" />
<path d="M157.0600 130.1020
L157.1552 130.0068
" />
<path d="M157.1552 130.0068
L157.2505 129.8163
" />
<path d="M157.9171 128.9592
L159.2505 128.9592
" />
<path d="M159.2505 128.9592
L158.3933 130.9592
" />
<path d="M159.9171 128.9592
L159.9171 129.3401
" />
<path d="M160.6790 128.9592
L160.6790 129.3401
" />
<path d="M163.6314 131.7211
L163.5362 131.6258
" />
<path d="M163.5362 131.6258
L163.3457 131.3401
" />
<path d="M163.3457 131.3401
L163.2505 131.1496
" />
<path d="M163.2505 131.1496
L163.1552 130.8639
" />
<path d="M163.1552 130.8639
L163.0600 130.3877
" />
<path d="M163.0600 130.3877
L163.0600 130.0068
" />
<path d="M163.0600 130.0068
L163.1552 129.5306
" />
<path d="M163.1552 129.5306
L163.2505 129.2449
" />
<path d="M163.2505 129.2449
L163.3457 129.0544
" />
<path d="M163.3457 129.0544
L163.5362 128.7687
" />
<path d="M163.5362 128.7687
L163.6314 128.6734
" />
<path d="M164.7743 128.9592
L164.9647 128.9592
" />
<path d="M164.9647 128.9592
L165.1552 129.0544
" />
<path d="M165.1552 129.0544
L165.2505 129.1496
" />
<path d="M165.2505 129.1496
L165.3457 129.3401
" />
<path d="M165.3457 129.3401
L165.4409 129.7211
" />
<path d="M165.4409 129.7211
L165.4409 130.1973
" />
<path d="M165.4409 130.1973
L165.3457 130.5782
" />
<path d="M165.3457 130.5782
L165.2505 130.7687
" />
<path d="M165.2505 130.7687
L165.1552 130.8639
" />
<path d="M165.1552 130.8639
L164.9647 130.9592
" />
<path d="M164.9647 130.9592
L164.7743 130.9592
" />
<path d="M164.7743 130.9592
L164.5838 130.8639
" />
<path d="M164.5838 130.8639
L164.4886 130.7687
" />
<path d="M164.4886 130.7687
L164.3933 130.5782
" />
<path d="M164.3933 130.5782
L164.2981 130.1973
" />
<path d="M164.2981 130.1973
L164.2981 129.7211
" />
<path d="M164.2981 129.7211
L164.3933 129.3401
" />
<path d="M164.3933 129.3401
L164.4886 129.1496
" />
<path d="M164.4886 129.1496
L164.5838 129.0544
" />
<path d="M164.5838 129.0544
L164.7743 128.9592
" />
<path d="M167.8219 130.9592
L167.8219 128.9592
" />
<path d="M168.6790 130.9592
L168.6790 129.9115
" />
<path d="M168.6790 129.9115
L168.5838 129.7211
" />
<path d="M168.5838 129.7211
L168.3933 129.6258
" />
<path d="M168.3933 129.6258
L168.1076 129.6258
" />
<path d="M168.1076 129.6258
L167.9171 129.7211
" />
<path d="M167.9171 129.7211
L167.8219 129.8163
" />
<path d="M169.9171 130.9592
L169.7267 130.8639
" />
<path d="M169.7267 130.8639
L169.6314 130.7687
" />
<path d="M169.6314 130.7687
L169.5362 130.5782
" />
<path d="M169.5362 130.5782
L169.5362 130.0068
" />
<path d="M169.5362 130.0068
L169.6314 129.8163
" />
<path d="M169.6314 129.8163
L169.7267 129.7211
" />
<path d="M169.7267 129.7211
L169.9171 129.6258
" />
<path d="M169.9171 129.6258
L170.2028 129.6258
" />
<path d="M170.2028 129.6258
L170.3933 129.7211
" />
<path d="M170.3933 129.7211
L170.4886 129.8163
" />
<path d="M170.4886 129.8163
L170.5838 130.0068
" />
<path d="M170.5838 130.0068
L170.5838 130.5782
" />
<path d="M170.5838 130.5782
L170.4886 130.7687
" />
<path d="M170.4886 130.7687
L170.3933 130.8639
" />
<path d="M170.3933 130.8639
L170.2028 130.9592
" />
<path d="M170.2028 130.9592
L169.9171 130.9592
" />
<path d="M171.7267 130.9592
L171.5362 130.8639
" />
<path d="M171.5362 130.8639
L171.4409 130.6734
" />
<path d="M171.4409 130.6734
L171.4409 128.9592
" />
<path d="M173.2505 130.8639
L173.0600 130.9592
" />
<path d="M173.0600 130.9592
L172.6790 130.9592
" />
<path d="M172.6790 130.9592
L172.4886 130.8639
" />
<path d="M172.4886 130.8639
L172.3933 130.6734
" />
<path d="M172.3933 130.6734
L172.3933 129.9115
" />
<path d="M172.3933 129.9115
L172.4886 129.7211
" />
<path d="M172.4886 129.7211
L172.6790 129.6258
" />
<path d="M172.6790 129.6258
L173.0600 129.6258
" />
<path d="M173.0600 129.6258
L173.2505 129.7211
" />
<path d="M173.2505 129.7211
L173.3457 129.9115
" />
<path d="M173.3457 129.9115
L173.3457 130.1020
" />
<path d="M173.3457 130.1020
L172.3933 130.2925
" />
<path d="M174.1076 130.8639
L174.2981 130.9592
" />
<path d="M174.2981 130.9592
L174.6790 130.9592
" />
<path d="M174.6790 130.9592
L174.8695 130.8639
" />
<path d="M174.8695 130.8639
L174.9648 130.6734
" />
<path d="M174.9648 130.6734
L174.9648 130.5782
" />
<path d="M174.9648 130.5782
L174.8695 130.3877
" />
<path d="M174.8695 130.3877
L174.6790 130.2925
" />
<path d="M174.6790 130.2925
L174.3933 130.2925
" />
<path d="M174.3933 130.2925
L174.2028 130.1973
" />
<path d="M174.2028 130.1973
L174.1076 130.0068
" />
<path d="M174.1076 130.0068
L174.1076 129.9115
" />
<path d="M174.1076 129.9115
L174.2028 129.7211
" />
<path d="M174.2028 129.7211
L174.3933 129.6258
" />
<path d="M174.3933 129.6258
L174.6790 129.6258
" />
<path d="M174.6790 129.6258
L174.8695 129.7211
" />
<path d="M177.3457 130.1973
L178.8695 130.1973
" />
<path d="M178.1076 130.9592
L178.1076 129.4353
" />
<path d="M181.2505 129.1496
L181.3457 129.0544
" />
<path d="M181.3457 129.0544
L181.5362 128.9592
" />
<path d="M181.5362 128.9592
L182.0124 128.9592
" />
<path d="M182.0124 128.9592
L182.2028 129.0544
" />
<path d="M182.2028 129.0544
L182.2981 129.1496
" />
<path d="M182.2981 129.1496
L182.3933 129.3401
" />
<path d="M182.3933 129.3401
L182.3933 129.5306
" />
<path d="M182.3933 129.5306
L182.2981 129.8163
" />
<path d="M182.2981 129.8163
L181.1552 130.9592
" />
<path d="M181.1552 130.9592
L182.3933 130.9592
" />
<path d="M184.6790 130.8639
L184.8695 130.9592
" />
<path d="M184.8695 130.9592
L185.2505 130.9592
" />
<path d="M185.2505 130.9592
L185.4409 130.8639
" />
<path d="M185.4409 130.8639
L185.5362 130.6734
" />
<path d="M185.5362 130.6734
L185.5362 130.5782
" />
<path d="M185.5362 130.5782
L185.4409 130.3877
" />
<path d="M185.4409 130.3877
L185.2505 130.2925
" />
<path d="M185.2505 130.2925
L184.9648 130.2925
" />
<path d="M184.9648 130.2925
L184.7743 130.1973
" />
<path d="M184.7743 130.1973
L184.6790 130.0068
" />
<path d="M184.6790 130.0068
L184.6790 129.9115
" />
<path d="M184.6790 129.9115
L184.7743 129.7211
" />
<path d="M184.7743 129.7211
L184.9648 129.6258
" />
<path d="M184.9648 129.6258
L185.2505 129.6258
" />
<path d="M185.2505 129.6258
L185.4409 129.7211
" />
<path d="M186.6790 130.9592
L186.4886 130.8639
" />
<path d="M186.4886 130.8639
L186.3933 130.6734
" />
<path d="M186.3933 130.6734
L186.3933 128.9592
" />
<path d="M187.7267 130.9592
L187.5362 130.8639
" />
<path d="M187.5362 130.8639
L187.4409 130.7687
" />
<path d="M187.4409 130.7687
L187.3457 130.5782
" />
<path d="M187.3457 130.5782
L187.3457 130.0068
" />
<path d="M187.3457 130.0068
L187.4409 129.8163
" />
<path d="M187.4409 129.8163
L187.5362 129.7211
" />
<path d="M187.5362 129.7211
L187.7267 129.6258
" />
<path d="M187.7267 129.6258
L188.0124 129.6258
" />
<path d="M188.0124 129.6258
L188.2028 129.7211
" />
<path d="M188.2028 129.7211
L188.2981 129.8163
" />
<path d="M188.2981 129.8163
L188.3933 130.0068
" />
<path d="M188.3933 130.0068
L188.3933 130.5782
" />
<path d="M188.3933 130.5782
L188.2981 130.7687
" />
<path d="M188.2981 130.7687
L188.2028 130.8639
" />
<path d="M188.2028 130.8639
L188.0124 130.9592
" />
<path d="M188.0124 130.9592
L187.7267 130.9592
" />
<path d="M188.9648 129.6258
L189.7267 129.6258
" />
<path d="M189.2505 128.9592
L189.2505 130.6734
" />
<path d="M189.2505 130.6734
L189.3457 130.8639
" />
<path d="M189.3457 130.8639
L189.5362 130.9592
" />
<path d="M189.5362 130.9592
L189.7267 130.9592
" />
<path d="M190.2981 130.8639
L190.4886 130.9592
" />
<path d="M190.4886 130.9592
L190.8695 130.9592
" />
<path d="M190.8695 130.9592
L191.0600 130.8639
" />
<path d="M191.0600 130.8639
L191.1552 130.6734
" />
<path d="M191.1552 130.6734
L191.1552 130.5782
" />
<path d="M191.1552 130.5782
L191.0600 130.3877
" />
<path d="M191.0600 130.3877
L190.8695 130.2925
" />
<path d="M190.8695 130.2925
L190.5838 130.2925
" />
<path d="M190.5838 130.2925
L190.3933 130.1973
" />
<path d="M190.3933 130.1973
L190.2981 130.0068
" />
<path d="M190.2981 130.0068
L190.2981 129.9115
" />
<path d="M190.2981 129.9115
L190.3933 129.7211
" />
<path d="M190.3933 129.7211
L190.5838 129.6258
" />
<path d="M190.5838 129.6258
L190.8695 129.6258
" />
<path d="M190.8695 129.6258
L191.0600 129.7211
" />
<path d="M191.8219 131.7211
L191.9171 131.6258
" />
<path d="M191.9171 131.6258
L192.1076 131.3401
" />
<path d="M192.1076 131.3401
L192.2028 131.1496
" />
<path d="M192.2028 131.1496
L192.2981 130.8639
" />
<path d="M192.2981 130.8639
L192.3933 130.3877
" />
<path d="M192.3933 130.3877
L192.3933 130.0068
" />
<path d="M192.3933 130.0068
L192.2981 129.5306
" />
<path d="M192.2981 129.5306
L192.2028 129.2449
" />
<path d="M192.2028 129.2449
L192.1076 129.0544
" />
<path d="M192.1076 129.0544
L191.9171 128.7687
" />
<path d="M191.9171 128.7687
L191.8219 128.6734
" />
</g></g>
<g style="fill:none; 
stroke:#000000; stroke-width:0.1206; stroke-opacity:1; 
stroke-linecap:round; stroke-linejoin:round;">
<path d="M127.2779 132.0814
L127.2779 133.2873
" />
<path d="M126.6749 132.6843
L127.8808 132.6843
" />
</g>
<g style="fill:none; 
stroke:#000000; stroke-width:0.2000; stroke-opacity:1; 
stroke-linecap:round; stroke-linejoin:round;">
<text x="129.8808" y="133.6843"
textLength="46.8667" font-size="2.6667" lengthAdjust="spacingAndGlyphs"
text-anchor="start" opacity="0" stroke-opacity="0">1.000mm / 0.0394" (4 holes)</text>
<g class="stroked-text"><desc>1.000mm / 0.0394" (4 holes)</desc>
<path d="M131.5362 133.5992
L130.3933 133.5992
" />
<path d="M130.9647 133.5992
L130.9647 131.5992
" />
<path d="M130.9647 131.5992
L130.7743 131.8849
" />
<path d="M130.7743 131.8849
L130.5838 132.0753
" />
<path d="M130.5838 132.0753
L130.3933 132.1706
" />
<path d="M132.3933 133.4087
L132.4886 133.5039
" />
<path d="M132.4886 133.5039
L132.3933 133.5992
" />
<path d="M132.3933 133.5992
L132.2981 133.5039
" />
<path d="M132.2981 133.5039
L132.3933 133.4087
" />
<path d="M132.3933 133.4087
L132.3933 133.5992
" />
<path d="M133.7267 131.5992
L133.9171 131.5992
" />
<path d="M133.9171 131.5992
L134.1076 131.6944
" />
<path d="M134.1076 131.6944
L134.2028 131.7896
" />
<path d="M134.2028 131.7896
L134.2981 131.9801
" />
<path d="M134.2981 131.9801
L134.3933 132.3611
" />
<path d="M134.3933 132.3611
L134.3933 132.8373
" />
<path d="M134.3933 132.8373
L134.2981 133.2182
" />
<path d="M134.2981 133.2182
L134.2028 133.4087
" />
<path d="M134.2028 133.4087
L134.1076 133.5039
" />
<path d="M134.1076 133.5039
L133.9171 133.5992
" />
<path d="M133.9171 133.5992
L133.7267 133.5992
" />
<path d="M133.7267 133.5992
L133.5362 133.5039
" />
<path d="M133.5362 133.5039
L133.4409 133.4087
" />
<path d="M133.4409 133.4087
L133.3457 133.2182
" />
<path d="M133.3457 133.2182
L133.2505 132.8373
" />
<path d="M133.2505 132.8373
L133.2505 132.3611
" />
<path d="M133.2505 132.3611
L133.3457 131.9801
" />
<path d="M133.3457 131.9801
L133.4409 131.7896
" />
<path d="M133.4409 131.7896
L133.5362 131.6944
" />
<path d="M133.5362 131.6944
L133.7267 131.5992
" />
<path d="M135.6314 131.5992
L135.8219 131.5992
" />
<path d="M135.8219 131.5992
L136.0124 131.6944
" />
<path d="M136.0124 131.6944
L136.1076 131.7896
" />
<path d="M136.1076 131.7896
L136.2028 131.9801
" />
<path d="M136.2028 131.9801
L136.2981 132.3611
" />
<path d="M136.2981 132.3611
L136.2981 132.8373
" />
<path d="M136.2981 132.8373
L136.2028 133.2182
" />
<path d="M136.2028 133.2182
L136.1076 133.4087
" />
<path d="M136.1076 133.4087
L136.0124 133.5039
" />
<path d="M136.0124 133.5039
L135.8219 133.5992
" />
<path d="M135.8219 133.5992
L135.6314 133.5992
" />
<path d="M135.6314 133.5992
L135.4409 133.5039
" />
<path d="M135.4409 133.5039
L135.3457 133.4087
" />
<path d="M135.3457 133.4087
L135.2505 133.2182
" />
<path d="M135.2505 133.2182
L135.1552 132.8373
" />
<path d="M135.1552 132.8373
L135.1552 132.3611
" />
<path d="M135.1552 132.3611
L135.2505 131.9801
" />
<path d="M135.2505 131.9801
L135.3457 131.7896
" />
<path d="M135.3457 131.7896
L135.4409 131.6944
" />
<path d="M135.4409 131.6944
L135.6314 131.5992
" />
<path d="M137.5362 131.5992
L137.7267 131.5992
" />
<path d="M137.7267 131.5992
L137.9171 131.6944
" />
<path d="M137.9171 131.6944
L138.0124 131.7896
" />
<path d="M138.0124 131.7896
L138.1076 131.9801
" />
<path d="M138.1076 131.9801
L138.2028 132.3611
" />
<path d="M138.2028 132.3611
L138.2028 132.8373
" />
<path d="M138.2028 132.8373
L138.1076 133.2182
" />
<path d="M138.1076 133.2182
L138.0124 133.4087
" />
<path d="M138.0124 133.4087
L137.9171 133.5039
" />
<path d="M137.9171 133.5039
L137.7267 133.5992
" />
<path d="M137.7267 133.5992
L137.5362 133.5992
" />
<path d="M137.5362 133.5992
L137.3457 133.5039
" />
<path d="M137.3457 133.5039
L137.2505 133.4087
" />
<path d="M137.2505 133.4087
L137.1552 133.2182
" />
<path d="M137.1552 133.2182
L137.0600 132.8373
" />
<path d="M137.0600 132.8373
L137.0600 132.3611
" />
<path d="M137.0600 132.3611
L137.1552 131.9801
" />
<path d="M137.1552 131.9801
L137.2505 131.7896
" />
<path d="M137.2505 131.7896
L137.3457 131.6944
" />
<path d="M137.3457 131.6944
L137.5362 131.5992
" />
<path d="M139.0600 133.5992
L139.0600 132.2658
" />
<path d="M139.0600 132.4563
L139.1552 132.3611
" />
<path d="M139.1552 132.3611
L139.3457 132.2658
" />
<path d="M139.3457 132.2658
L139.6314 132.2658
" />
<path d="M139.6314 132.2658
L139.8219 132.3611
" />
<path d="M139.8219 132.3611
L139.9171 132.5515
" />
<path d="M139.9171 132.5515
L139.9171 133.5992
" />
<path d="M139.9171 132.5515
L140.0124 132.3611
" />
<path d="M140.0124 132.3611
L140.2028 132.2658
" />
<path d="M140.2028 132.2658
L140.4886 132.2658
" />
<path d="M140.4886 132.2658
L140.6790 132.3611
" />
<path d="M140.6790 132.3611
L140.7743 132.5515
" />
<path d="M140.7743 132.5515
L140.7743 133.5992
" />
<path d="M141.7267 133.5992
L141.7267 132.2658
" />
<path d="M141.7267 132.4563
L141.8219 132.3611
" />
<path d="M141.8219 132.3611
L142.0124 132.2658
" />
<path d="M142.0124 132.2658
L142.2981 132.2658
" />
<path d="M142.2981 132.2658
L142.4886 132.3611
" />
<path d="M142.4886 132.3611
L142.5838 132.5515
" />
<path d="M142.5838 132.5515
L142.5838 133.5992
" />
<path d="M142.5838 132.5515
L142.6790 132.3611
" />
<path d="M142.6790 132.3611
L142.8695 132.2658
" />
<path d="M142.8695 132.2658
L143.1552 132.2658
" />
<path d="M143.1552 132.2658
L143.3457 132.3611
" />
<path d="M143.3457 132.3611
L143.4409 132.5515
" />
<path d="M143.4409 132.5515
L143.4409 133.5992
" />
<path d="M147.3457 131.5039
L145.6314 134.0753
" />
<path d="M149.9171 131.5992
L150.1076 131.5992
" />
<path d="M150.1076 131.5992
L150.2981 131.6944
" />
<path d="M150.2981 131.6944
L150.3933 131.7896
" />
<path d="M150.3933 131.7896
L150.4886 131.9801
" />
<path d="M150.4886 131.9801
L150.5838 132.3611
" />
<path d="M150.5838 132.3611
L150.5838 132.8373
" />
<path d="M150.5838 132.8373
L150.4886 133.2182
" />
<path d="M150.4886 133.2182
L150.3933 133.4087
" />
<path d="M150.3933 133.4087
L150.2981 133.5039
" />
<path d="M150.2981 133.5039
L150.1076 133.5992
" />
<path d="M150.1076 133.5992
L149.9171 133.5992
" />
<path d="M149.9171 133.5992
L149.7267 133.5039
" />
<path d="M149.7267 133.5039
L149.6314 133.4087
" />
<path d="M149.6314 133.4087
L149.5362 133.2182
" />
<path d="M149.5362 133.2182
L149.4409 132.8373
" />
<path d="M149.4409 132.8373
L149.4409 132.3611
" />
<path d="M149.4409 132.3611
L149.5362 131.9801
" />
<path d="M149.5362 131.9801
L149.6314 131.7896
" />
<path d="M149.6314 131.7896
L149.7267 131.6944
" />
<path d="M149.7267 131.6944
L149.9171 131.5992
" />
<path d="M151.4409 133.4087
L151.5362 133.5039
" />
<path d="M151.5362 133.5039
L151.4409 133.5992
" />
<path d="M151.4409 133.5992
L151.3457 133.5039
" />
<path d="M151.3457 133.5039
L151.4409 133.4087
" />
<path d="M151.4409 133.4087
L151.4409 133.5992
" />
<path d="M152.7743 131.5992
L152.9647 131.5992
" />
<path d="M152.9647 131.5992
L153.1552 131.6944
" />
<path d="M153.1552 131.6944
L153.2505 131.7896
" />
<path d="M153.2505 131.7896
L153.3457 131.9801
" />
<path d="M153.3457 131.9801
L153.4409 132.3611
" />
<path d="M153.4409 132.3611
L153.4409 132.8373
" />
<path d="M153.4409 132.8373
L153.3457 133.2182
" />
<path d="M153.3457 133.2182
L153.2505 133.4087
" />
<path d="M153.2505 133.4087
L153.1552 133.5039
" />
<path d="M153.1552 133.5039
L152.9647 133.5992
" />
<path d="M152.9647 133.5992
L152.7743 133.5992
" />
<path d="M152.7743 133.5992
L152.5838 133.5039
" />
<path d="M152.5838 133.5039
L152.4886 133.4087
" />
<path d="M152.4886 133.4087
L152.3933 133.2182
" />
<path d="M152.3933 133.2182
L152.2981 132.8373
" />
<path d="M152.2981 132.8373
L152.2981 132.3611
" />
<path d="M152.2981 132.3611
L152.3933 131.9801
" />
<path d="M152.3933 131.9801
L152.4886 131.7896
" />
<path d="M152.4886 131.7896
L152.5838 131.6944
" />
<path d="M152.5838 131.6944
L152.7743 131.5992
" />
<path d="M154.1076 131.5992
L155.3457 131.5992
" />
<path d="M155.3457 131.5992
L154.6790 132.3611
" />
<path d="M154.6790 132.3611
L154.9647 132.3611
" />
<path d="M154.9647 132.3611
L155.1552 132.4563
" />
<path d="M155.1552 132.4563
L155.2505 132.5515
" />
<path d="M155.2505 132.5515
L155.3457 132.7420
" />
<path d="M155.3457 132.7420
L155.3457 133.2182
" />
<path d="M155.3457 133.2182
L155.2505 133.4087
" />
<path d="M155.2505 133.4087
L155.1552 133.5039
" />
<path d="M155.1552 133.5039
L154.9647 133.5992
" />
<path d="M154.9647 133.5992
L154.3933 133.5992
" />
<path d="M154.3933 133.5992
L154.2028 133.5039
" />
<path d="M154.2028 133.5039
L154.1076 133.4087
" />
<path d="M156.2981 133.5992
L156.6790 133.5992
" />
<path d="M156.6790 133.5992
L156.8695 133.5039
" />
<path d="M156.8695 133.5039
L156.9647 133.4087
" />
<path d="M156.9647 133.4087
L157.1552 133.1230
" />
<path d="M157.1552 133.1230
L157.2505 132.7420
" />
<path d="M157.2505 132.7420
L157.2505 131.9801
" />
<path d="M157.2505 131.9801
L157.1552 131.7896
" />
<path d="M157.1552 131.7896
L157.0600 131.6944
" />
<path d="M157.0600 131.6944
L156.8695 131.5992
" />
<path d="M156.8695 131.5992
L156.4886 131.5992
" />
<path d="M156.4886 131.5992
L156.2981 131.6944
" />
<path d="M156.2981 131.6944
L156.2028 131.7896
" />
<path d="M156.2028 131.7896
L156.1076 131.9801
" />
<path d="M156.1076 131.9801
L156.1076 132.4563
" />
<path d="M156.1076 132.4563
L156.2028 132.6468
" />
<path d="M156.2028 132.6468
L156.2981 132.7420
" />
<path d="M156.2981 132.7420
L156.4886 132.8373
" />
<path d="M156.4886 132.8373
L156.8695 132.8373
" />
<path d="M156.8695 132.8373
L157.0600 132.7420
" />
<path d="M157.0600 132.7420
L157.1552 132.6468
" />
<path d="M157.1552 132.6468
L157.2505 132.4563
" />
<path d="M158.9647 132.2658
L158.9647 133.5992
" />
<path d="M158.4886 131.5039
L158.0124 132.9325
" />
<path d="M158.0124 132.9325
L159.2505 132.9325
" />
<path d="M159.9171 131.5992
L159.9171 131.9801
" />
<path d="M160.6790 131.5992
L160.6790 131.9801
" />
<path d="M163.6314 134.3611
L163.5362 134.2658
" />
<path d="M163.5362 134.2658
L163.3457 133.9801
" />
<path d="M163.3457 133.9801
L163.2505 133.7896
" />
<path d="M163.2505 133.7896
L163.1552 133.5039
" />
<path d="M163.1552 133.5039
L163.0600 133.0277
" />
<path d="M163.0600 133.0277
L163.0600 132.6468
" />
<path d="M163.0600 132.6468
L163.1552 132.1706
" />
<path d="M163.1552 132.1706
L163.2505 131.8849
" />
<path d="M163.2505 131.8849
L163.3457 131.6944
" />
<path d="M163.3457 131.6944
L163.5362 131.4087
" />
<path d="M163.5362 131.4087
L163.6314 131.3134
" />
<path d="M165.2505 132.2658
L165.2505 133.5992
" />
<path d="M164.7743 131.5039
L164.2981 132.9325
" />
<path d="M164.2981 132.9325
L165.5362 132.9325
" />
<path d="M167.8219 133.5992
L167.8219 131.5992
" />
<path d="M168.6790 133.5992
L168.6790 132.5515
" />
<path d="M168.6790 132.5515
L168.5838 132.3611
" />
<path d="M168.5838 132.3611
L168.3933 132.2658
" />
<path d="M168.3933 132.2658
L168.1076 132.2658
" />
<path d="M168.1076 132.2658
L167.9171 132.3611
" />
<path d="M167.9171 132.3611
L167.8219 132.4563
" />
<path d="M169.9171 133.5992
L169.7267 133.5039
" />
<path d="M169.7267 133.5039
L169.6314 133.4087
" />
<path d="M169.6314 133.4087
L169.5362 133.2182
" />
<path d="M169.5362 133.2182
L169.5362 132.6468
" />
<path d="M169.5362 132.6468
L169.6314 132.4563
" />
<path d="M169.6314 132.4563
L169.7267 132.3611
" />
<path d="M169.7267 132.3611
L169.9171 132.2658
" />
<path d="M169.9171 132.2658
L170.2028 132.2658
" />
<path d="M170.2028 132.2658
L170.3933 132.3611
" />
<path d="M170.3933 132.3611
L170.4886 132.4563
" />
<path d="M170.4886 132.4563
L170.5838 132.6468
" />
<path d="M170.5838 132.6468
L170.5838 133.2182
" />
<path d="M170.5838 133.2182
L170.4886 133.4087
" />
<path d="M170.4886 133.4087
L170.3933 133.5039
" />
<path d="M170.3933 133.5039
L170.2028 133.5992
" />
<path d="M170.2028 133.5992
L169.9171 133.5992
" />
<path d="M171.7267 133.5992
L171.5362 133.5039
" />
<path d="M171.5362 133.5039
L171.4409 133.3134
" />
<path d="M171.4409 133.3134
L171.4409 131.5992
" />
<path d="M173.2505 133.5039
L173.0600 133.5992
" />
<path d="M173.0600 133.5992
L172.6790 133.5992
" />
<path d="M172.6790 133.5992
L172.4886 133.5039
" />
<path d="M172.4886 133.5039
L172.3933 133.3134
" />
<path d="M172.3933 133.3134
L172.3933 132.5515
" />
<path d="M172.3933 132.5515
L172.4886 132.3611
" />
<path d="M172.4886 132.3611
L172.6790 132.2658
" />
<path d="M172.6790 132.2658
L173.0600 132.2658
" />
<path d="M173.0600 132.2658
L173.2505 132.3611
" />
<path d="M173.2505 132.3611
L173.3457 132.5515
" />
<path d="M173.3457 132.5515
L173.3457 132.7420
" />
<path d="M173.3457 132.7420
L172.3933 132.9325
" />
<path d="M174.1076 133.5039
L174.2981 133.5992
" />
<path d="M174.2981 133.5992
L174.6790 133.5992
" />
<path d="M174.6790 133.5992
L174.8695 133.5039
" />
<path d="M174.8695 133.5039
L174.9648 133.3134
" />
<path d="M174.9648 133.3134
L174.9648 133.2182
" />
<path d="M174.9648 133.2182
L174.8695 133.0277
" />
<path d="M174.8695 133.0277
L174.6790 132.9325
" />
<path d="M174.6790 132.9325
L174.3933 132.9325
" />
<path d="M174.3933 132.9325
L174.2028 132.8373
" />
<path d="M174.2028 132.8373
L174.1076 132.6468
" />
<path d="M174.1076 132.6468
L174.1076 132.5515
" />
<path d="M174.1076 132.5515
L174.2028 132.3611
" />
<path d="M174.2028 132.3611
L174.3933 132.2658
" />
<path d="M174.3933 132.2658
L174.6790 132.2658
" />
<path d="M174.6790 132.2658
L174.8695 132.3611
" />
<path d="M175.6314 134.3611
L175.7267 134.2658
" />
<path d="M175.7267 134.2658
L175.9171 133.9801
" />
<path d="M175.9171 133.9801
L176.0124 133.7896
" />
<path d="M176.0124 133.7896
L176.1076 133.5039
" />
<path d="M176.1076 133.5039
L176.2028 133.0277
" />
<path d="M176.2028 133.0277
L176.2028 132.6468
" />
<path d="M176.2028 132.6468
L176.1076 132.1706
" />
<path d="M176.1076 132.1706
L176.0124 131.8849
" />
<path d="M176.0124 131.8849
L175.9171 131.6944
" />
<path d="M175.9171 131.6944
L175.7267 131.4087
" />
<path d="M175.7267 131.4087
L175.6314 131.3134
" />
</g><path style="fill:none; 
stroke:#000000; stroke-width:0.1387; stroke-opacity:1; 
stroke-linecap:round; stroke-linejoin:round;fill:none"
d="M 127.6777,135.8146
127.6777,134.8340
126.6971,134.8340
126.6971,135.8146
Z" /> 
</g>
<g style="fill:none; 
stroke:#000000; stroke-width:0.2000; stroke-opacity:1; 
stroke-linecap:round; stroke-linejoin:round;">
<text x="129.8808" y="136.3243"
textLength="46.8667" font-size="2.6667" lengthAdjust="spacingAndGlyphs"
text-anchor="start" opacity="0" stroke-opacity="0">1.150mm / 0.0453" (2 holes)</text>
<g class="stroked-text"><desc>1.150mm / 0.0453" (2 holes)</desc>
<path d="M131.5362 136.2392
L130.3933 136.2392
" />
<path d="M130.9647 136.2392
L130.9647 134.2392
" />
<path d="M130.9647 134.2392
L130.7743 134.5249
" />
<path d="M130.7743 134.5249
L130.5838 134.7153
" />
<path d="M130.5838 134.7153
L130.3933 134.8106
" />
<path d="M132.3933 136.0487
L132.4886 136.1439
" />
<path d="M132.4886 136.1439
L132.3933 136.2392
" />
<path d="M132.3933 136.2392
L132.2981 136.1439
" />
<path d="M132.2981 136.1439
L132.3933 136.0487
" />
<path d="M132.3933 136.0487
L132.3933 136.2392
" />
<path d="M134.3933 136.2392
L133.2505 136.2392
" />
<path d="M133.8219 136.2392
L133.8219 134.2392
" />
<path d="M133.8219 134.2392
L133.6314 134.5249
" />
<path d="M133.6314 134.5249
L133.4409 134.7153
" />
<path d="M133.4409 134.7153
L133.2505 134.8106
" />
<path d="M136.2028 134.2392
L135.2505 134.2392
" />
<path d="M135.2505 134.2392
L135.1552 135.1915
" />
<path d="M135.1552 135.1915
L135.2505 135.0963
" />
<path d="M135.2505 135.0963
L135.4409 135.0011
" />
<path d="M135.4409 135.0011
L135.9171 135.0011
" />
<path d="M135.9171 135.0011
L136.1076 135.0963
" />
<path d="M136.1076 135.0963
L136.2028 135.1915
" />
<path d="M136.2028 135.1915
L136.2981 135.3820
" />
<path d="M136.2981 135.3820
L136.2981 135.8582
" />
<path d="M136.2981 135.8582
L136.2028 136.0487
" />
<path d="M136.2028 136.0487
L136.1076 136.1439
" />
<path d="M136.1076 136.1439
L135.9171 136.2392
" />
<path d="M135.9171 136.2392
L135.4409 136.2392
" />
<path d="M135.4409 136.2392
L135.2505 136.1439
" />
<path d="M135.2505 136.1439
L135.1552 136.0487
" />
<path d="M137.5362 134.2392
L137.7267 134.2392
" />
<path d="M137.7267 134.2392
L137.9171 134.3344
" />
<path d="M137.9171 134.3344
L138.0124 134.4296
" />
<path d="M138.0124 134.4296
L138.1076 134.6201
" />
<path d="M138.1076 134.6201
L138.2028 135.0011
" />
<path d="M138.2028 135.0011
L138.2028 135.4773
" />
<path d="M138.2028 135.4773
L138.1076 135.8582
" />
<path d="M138.1076 135.8582
L138.0124 136.0487
" />
<path d="M138.0124 136.0487
L137.9171 136.1439
" />
<path d="M137.9171 136.1439
L137.7267 136.2392
" />
<path d="M137.7267 136.2392
L137.5362 136.2392
" />
<path d="M137.5362 136.2392
L137.3457 136.1439
" />
<path d="M137.3457 136.1439
L137.2505 136.0487
" />
<path d="M137.2505 136.0487
L137.1552 135.8582
" />
<path d="M137.1552 135.8582
L137.0600 135.4773
" />
<path d="M137.0600 135.4773
L137.0600 135.0011
" />
<path d="M137.0600 135.0011
L137.1552 134.6201
" />
<path d="M137.1552 134.6201
L137.2505 134.4296
" />
<path d="M137.2505 134.4296
L137.3457 134.3344
" />
<path d="M137.3457 134.3344
L137.5362 134.2392
" />
<path d="M139.0600 136.2392
L139.0600 134.9058
" />
<path d="M139.0600 135.0963
L139.1552 135.0011
" />
<path d="M139.1552 135.0011
L139.3457 134.9058
" />
<path d="M139.3457 134.9058
L139.6314 134.9058
" />
<path d="M139.6314 134.9058
L139.8219 135.0011
" />
<path d="M139.8219 135.0011
L139.9171 135.1915
" />
<path d="M139.9171 135.1915
L139.9171 136.2392
" />
<path d="M139.9171 135.1915
L140.0124 135.0011
" />
<path d="M140.0124 135.0011
L140.2028 134.9058
" />
<path d="M140.2028 134.9058
L140.4886 134.9058
" />
<path d="M140.4886 134.9058
L140.6790 135.0011
" />
<path d="M140.6790 135.0011
L140.7743 135.1915
" />
<path d="M140.7743 135.1915
L140.7743 136.2392
" />
<path d="M141.7267 136.2392
L141.7267 134.9058
" />
<path d="M141.7267 135.0963
L141.8219 135.0011
" />
<path d="M141.8219 135.0011
L142.0124 134.9058
" />
<path d="M142.0124 134.9058
L142.2981 134.9058
" />
<path d="M142.2981 134.9058
L142.4886 135.0011
" />
<path d="M142.4886 135.0011
L142.5838 135.1915
" />
<path d="M142.5838 135.1915
L142.5838 136.2392
" />
<path d="M142.5838 135.1915
L142.6790 135.0011
" />
<path d="M142.6790 135.0011
L142.8695 134.9058
" />
<path d="M142.8695 134.9058
L143.1552 134.9058
" />
<path d="M143.1552 134.9058
L143.3457 135.0011
" />
<path d="M143.3457 135.0011
L143.4409 135.1915
" />
<path d="M143.4409 135.1915
L143.4409 136.2392
" />
<path d="M147.3457 134.1439
L145.6314 136.7153
" />
<path d="M149.9171 134.2392
L150.1076 134.2392
" />
<path d="M150.1076 134.2392
L150.2981 134.3344
" />
<path d="M150.2981 134.3344
L150.3933 134.4296
" />
<path d="M150.3933 134.4296
L150.4886 134.6201
" />
<path d="M150.4886 134.6201
L150.5838 135.0011
" />
<path d="M150.5838 135.0011
L150.5838 135.4773
" />
<path d="M150.5838 135.4773
L150.4886 135.8582
" />
<path d="M150.4886 135.8582
L150.3933 136.0487
" />
<path d="M150.3933 136.0487
L150.2981 136.1439
" />
<path d="M150.2981 136.1439
L150.1076 136.2392
" />
<path d="M150.1076 136.2392
L149.9171 136.2392
" />
<path d="M149.9171 136.2392
L149.7267 136.1439
" />
<path d="M149.7267 136.1439
L149.6314 136.0487
" />
<path d="M149.6314 136.0487
L149.5362 135.8582
" />
<path d="M149.5362 135.8582
L149.4409 135.4773
" />
<path d="M149.4409 135.4773
L149.4409 135.0011
" />
<path d="M149.4409 135.0011
L149.5362 134.6201
" />
<path d="M149.5362 134.6201
L149.6314 134.4296
" />
<path d="M149.6314 134.4296
L149.7267 134.3344
" />
<path d="M149.7267 134.3344
L149.9171 134.2392
" />
<path d="M151.4409 136.0487
L151.5362 136.1439
" />
<path d="M151.5362 136.1439
L151.4409 136.2392
" />
<path d="M151.4409 136.2392
L151.3457 136.1439
" />
<path d="M151.3457 136.1439
L151.4409 136.0487
" />
<path d="M151.4409 136.0487
L151.4409 136.2392
" />
<path d="M152.7743 134.2392
L152.9647 134.2392
" />
<path d="M152.9647 134.2392
L153.1552 134.3344
" />
<path d="M153.1552 134.3344
L153.2505 134.4296
" />
<path d="M153.2505 134.4296
L153.3457 134.6201
" />
<path d="M153.3457 134.6201
L153.4409 135.0011
" />
<path d="M153.4409 135.0011
L153.4409 135.4773
" />
<path d="M153.4409 135.4773
L153.3457 135.8582
" />
<path d="M153.3457 135.8582
L153.2505 136.0487
" />
<path d="M153.2505 136.0487
L153.1552 136.1439
" />
<path d="M153.1552 136.1439
L152.9647 136.2392
" />
<path d="M152.9647 136.2392
L152.7743 136.2392
" />
<path d="M152.7743 136.2392
L152.5838 136.1439
" />
<path d="M152.5838 136.1439
L152.4886 136.0487
" />
<path d="M152.4886 136.0487
L152.3933 135.8582
" />
<path d="M152.3933 135.8582
L152.2981 135.4773
" />
<path d="M152.2981 135.4773
L152.2981 135.0011
" />
<path d="M152.2981 135.0011
L152.3933 134.6201
" />
<path d="M152.3933 134.6201
L152.4886 134.4296
" />
<path d="M152.4886 134.4296
L152.5838 134.3344
" />
<path d="M152.5838 134.3344
L152.7743 134.2392
" />
<path d="M155.1552 134.9058
L155.1552 136.2392
" />
<path d="M154.6790 134.1439
L154.2028 135.5725
" />
<path d="M154.2028 135.5725
L155.4409 135.5725
" />
<path d="M157.1552 134.2392
L156.2028 134.2392
" />
<path d="M156.2028 134.2392
L156.1076 135.1915
" />
<path d="M156.1076 135.1915
L156.2028 135.0963
" />
<path d="M156.2028 135.0963
L156.3933 135.0011
" />
<path d="M156.3933 135.0011
L156.8695 135.0011
" />
<path d="M156.8695 135.0011
L157.0600 135.0963
" />
<path d="M157.0600 135.0963
L157.1552 135.1915
" />
<path d="M157.1552 135.1915
L157.2505 135.3820
" />
<path d="M157.2505 135.3820
L157.2505 135.8582
" />
<path d="M157.2505 135.8582
L157.1552 136.0487
" />
<path d="M157.1552 136.0487
L157.0600 136.1439
" />
<path d="M157.0600 136.1439
L156.8695 136.2392
" />
<path d="M156.8695 136.2392
L156.3933 136.2392
" />
<path d="M156.3933 136.2392
L156.2028 136.1439
" />
<path d="M156.2028 136.1439
L156.1076 136.0487
" />
<path d="M157.9171 134.2392
L159.1552 134.2392
" />
<path d="M159.1552 134.2392
L158.4886 135.0011
" />
<path d="M158.4886 135.0011
L158.7743 135.0011
" />
<path d="M158.7743 135.0011
L158.9647 135.0963
" />
<path d="M158.9647 135.0963
L159.0600 135.1915
" />
<path d="M159.0600 135.1915
L159.1552 135.3820
" />
<path d="M159.1552 135.3820
L159.1552 135.8582
" />
<path d="M159.1552 135.8582
L159.0600 136.0487
" />
<path d="M159.0600 136.0487
L158.9647 136.1439
" />
<path d="M158.9647 136.1439
L158.7743 136.2392
" />
<path d="M158.7743 136.2392
L158.2028 136.2392
" />
<path d="M158.2028 136.2392
L158.0124 136.1439
" />
<path d="M158.0124 136.1439
L157.9171 136.0487
" />
<path d="M159.9171 134.2392
L159.9171 134.6201
" />
<path d="M160.6790 134.2392
L160.6790 134.6201
" />
<path d="M163.6314 137.0011
L163.5362 136.9058
" />
<path d="M163.5362 136.9058
L163.3457 136.6201
" />
<path d="M163.3457 136.6201
L163.2505 136.4296
" />
<path d="M163.2505 136.4296
L163.1552 136.1439
" />
<path d="M163.1552 136.1439
L163.0600 135.6677
" />
<path d="M163.0600 135.6677
L163.0600 135.2868
" />
<path d="M163.0600 135.2868
L163.1552 134.8106
" />
<path d="M163.1552 134.8106
L163.2505 134.5249
" />
<path d="M163.2505 134.5249
L163.3457 134.3344
" />
<path d="M163.3457 134.3344
L163.5362 134.0487
" />
<path d="M163.5362 134.0487
L163.6314 133.9534
" />
<path d="M164.2981 134.4296
L164.3933 134.3344
" />
<path d="M164.3933 134.3344
L164.5838 134.2392
" />
<path d="M164.5838 134.2392
L165.0600 134.2392
" />
<path d="M165.0600 134.2392
L165.2505 134.3344
" />
<path d="M165.2505 134.3344
L165.3457 134.4296
" />
<path d="M165.3457 134.4296
L165.4409 134.6201
" />
<path d="M165.4409 134.6201
L165.4409 134.8106
" />
<path d="M165.4409 134.8106
L165.3457 135.0963
" />
<path d="M165.3457 135.0963
L164.2028 136.2392
" />
<path d="M164.2028 136.2392
L165.4409 136.2392
" />
<path d="M167.8219 136.2392
L167.8219 134.2392
" />
<path d="M168.6790 136.2392
L168.6790 135.1915
" />
<path d="M168.6790 135.1915
L168.5838 135.0011
" />
<path d="M168.5838 135.0011
L168.3933 134.9058
" />
<path d="M168.3933 134.9058
L168.1076 134.9058
" />
<path d="M168.1076 134.9058
L167.9171 135.0011
" />
<path d="M167.9171 135.0011
L167.8219 135.0963
" />
<path d="M169.9171 136.2392
L169.7267 136.1439
" />
<path d="M169.7267 136.1439
L169.6314 136.0487
" />
<path d="M169.6314 136.0487
L169.5362 135.8582
" />
<path d="M169.5362 135.8582
L169.5362 135.2868
" />
<path d="M169.5362 135.2868
L169.6314 135.0963
" />
<path d="M169.6314 135.0963
L169.7267 135.0011
" />
<path d="M169.7267 135.0011
L169.9171 134.9058
" />
<path d="M169.9171 134.9058
L170.2028 134.9058
" />
<path d="M170.2028 134.9058
L170.3933 135.0011
" />
<path d="M170.3933 135.0011
L170.4886 135.0963
" />
<path d="M170.4886 135.0963
L170.5838 135.2868
" />
<path d="M170.5838 135.2868
L170.5838 135.8582
" />
<path d="M170.5838 135.8582
L170.4886 136.0487
" />
<path d="M170.4886 136.0487
L170.3933 136.1439
" />
<path d="M170.3933 136.1439
L170.2028 136.2392
" />
<path d="M170.2028 136.2392
L169.9171 136.2392
" />
<path d="M171.7267 136.2392
L171.5362 136.1439
" />
<path d="M171.5362 136.1439
L171.4409 135.9534
" />
<path d="M171.4409 135.9534
L171.4409 134.2392
" />
<path d="M173.2505 136.1439
L173.0600 136.2392
" />
<path d="M173.0600 136.2392
L172.6790 136.2392
" />
<path d="M172.6790 136.2392
L172.4886 136.1439
" />
<path d="M172.4886 136.1439
L172.3933 135.9534
" />
<path d="M172.3933 135.9534
L172.3933 135.1915
" />
<path d="M172.3933 135.1915
L172.4886 135.0011
" />
<path d="M172.4886 135.0011
L172.6790 134.9058
" />
<path d="M172.6790 134.9058
L173.0600 134.9058
" />
<path d="M173.0600 134.9058
L173.2505 135.0011
" />
<path d="M173.2505 135.0011
L173.3457 135.1915
" />
<path d="M173.3457 135.1915
L173.3457 135.3820
" />
<path d="M173.3457 135.3820
L172.3933 135.5725
" />
<path d="M174.1076 136.1439
L174.2981 136.2392
" />
<path d="M174.2981 136.2392
L174.6790 136.2392
" />
<path d="M174.6790 136.2392
L174.8695 136.1439
" />
<path d="M174.8695 136.1439
L174.9648 135.9534
" />
<path d="M174.9648 135.9534
L174.9648 135.8582
" />
<path d="M174.9648 135.8582
L174.8695 135.6677
" />
<path d="M174.8695 135.6677
L174.6790 135.5725
" />
<path d="M174.6790 135.5725
L174.3933 135.5725
" />
<path d="M174.3933 135.5725
L174.2028 135.4773
" />
<path d="M174.2028 135.4773
L174.1076 135.2868
" />
<path d="M174.1076 135.2868
L174.1076 135.1915
" />
<path d="M174.1076 135.1915
L174.2028 135.0011
" />
<path d="M174.2028 135.0011
L174.3933 134.9058
" />
<path d="M174.3933 134.9058
L174.6790 134.9058
" />
<path d="M174.6790 134.9058
L174.8695 135.0011
" />
<path d="M175.6314 137.0011
L175.7267 136.9058
" />
<path d="M175.7267 136.9058
L175.9171 136.6201
" />
<path d="M175.9171 136.6201
L176.0124 136.4296
" />
<path d="M176.0124 136.4296
L176.1076 136.1439
" />
<path d="M176.1076 136.1439
L176.2028 135.6677
" />
<path d="M176.2028 135.6677
L176.2028 135.2868
" />
<path d="M176.2028 135.2868
L176.1076 134.8106
" />
<path d="M176.1076 134.8106
L176.0124 134.5249
" />
<path d="M176.0124 134.5249
L175.9171 134.3344
" />
<path d="M175.9171 134.3344
L175.7267 134.0487
" />
<path d="M175.7267 134.0487
L175.6314 133.9534
" />
</g><path style="fill:none; 
stroke:#000000; stroke-width:0.1688; stroke-opacity:1; 
stroke-linecap:round; stroke-linejoin:round;fill:none"
d="M 127.0367,138.8084
127.8808,137.9643
127.0367,137.1202
126.1926,137.9643
Z" /> 
</g>
<g style="fill:none; 
stroke:#000000; stroke-width:0.2000; stroke-opacity:1; 
stroke-linecap:round; stroke-linejoin:round;">
<text x="129.8808" y="138.9643"
textLength="48.7714" font-size="2.6667" lengthAdjust="spacingAndGlyphs"
text-anchor="start" opacity="0" stroke-opacity="0">1.400mm / 0.0551" (10 holes)</text>
<g class="stroked-text"><desc>1.400mm / 0.0551" (10 holes)</desc>
<path d="M131.5362 138.8792
L130.3933 138.8792
" />
<path d="M130.9647 138.8792
L130.9647 136.8792
" />
<path d="M130.9647 136.8792
L130.7743 137.1649
" />
<path d="M130.7743 137.1649
L130.5838 137.3553
" />
<path d="M130.5838 137.3553
L130.3933 137.4506
" />
<path d="M132.3933 138.6887
L132.4886 138.7839
" />
<path d="M132.4886 138.7839
L132.3933 138.8792
" />
<path d="M132.3933 138.8792
L132.2981 138.7839
" />
<path d="M132.2981 138.7839
L132.3933 138.6887
" />
<path d="M132.3933 138.6887
L132.3933 138.8792
" />
<path d="M134.2028 137.5458
L134.2028 138.8792
" />
<path d="M133.7267 136.7839
L133.2505 138.2125
" />
<path d="M133.2505 138.2125
L134.4886 138.2125
" />
<path d="M135.6314 136.8792
L135.8219 136.8792
" />
<path d="M135.8219 136.8792
L136.0124 136.9744
" />
<path d="M136.0124 136.9744
L136.1076 137.0696
" />
<path d="M136.1076 137.0696
L136.2028 137.2601
" />
<path d="M136.2028 137.2601
L136.2981 137.6411
" />
<path d="M136.2981 137.6411
L136.2981 138.1173
" />
<path d="M136.2981 138.1173
L136.2028 138.4982
" />
<path d="M136.2028 138.4982
L136.1076 138.6887
" />
<path d="M136.1076 138.6887
L136.0124 138.7839
" />
<path d="M136.0124 138.7839
L135.8219 138.8792
" />
<path d="M135.8219 138.8792
L135.6314 138.8792
" />
<path d="M135.6314 138.8792
L135.4409 138.7839
" />
<path d="M135.4409 138.7839
L135.3457 138.6887
" />
<path d="M135.3457 138.6887
L135.2505 138.4982
" />
<path d="M135.2505 138.4982
L135.1552 138.1173
" />
<path d="M135.1552 138.1173
L135.1552 137.6411
" />
<path d="M135.1552 137.6411
L135.2505 137.2601
" />
<path d="M135.2505 137.2601
L135.3457 137.0696
" />
<path d="M135.3457 137.0696
L135.4409 136.9744
" />
<path d="M135.4409 136.9744
L135.6314 136.8792
" />
<path d="M137.5362 136.8792
L137.7267 136.8792
" />
<path d="M137.7267 136.8792
L137.9171 136.9744
" />
<path d="M137.9171 136.9744
L138.0124 137.0696
" />
<path d="M138.0124 137.0696
L138.1076 137.2601
" />
<path d="M138.1076 137.2601
L138.2028 137.6411
" />
<path d="M138.2028 137.6411
L138.2028 138.1173
" />
<path d="M138.2028 138.1173
L138.1076 138.4982
" />
<path d="M138.1076 138.4982
L138.0124 138.6887
" />
<path d="M138.0124 138.6887
L137.9171 138.7839
" />
<path d="M137.9171 138.7839
L137.7267 138.8792
" />
<path d="M137.7267 138.8792
L137.5362 138.8792
" />
<path d="M137.5362 138.8792
L137.3457 138.7839
" />
<path d="M137.3457 138.7839
L137.2505 138.6887
" />
<path d="M137.2505 138.6887
L137.1552 138.4982
" />
<path d="M137.1552 138.4982
L137.0600 138.1173
" />
<path d="M137.0600 138.1173
L137.0600 137.6411
" />
<path d="M137.0600 137.6411
L137.1552 137.2601
" />
<path d="M137.1552 137.2601
L137.2505 137.0696
" />
<path d="M137.2505 137.0696
L137.3457 136.9744
" />
<path d="M137.3457 136.9744
L137.5362 136.8792
" />
<path d="M139.0600 138.8792
L139.0600 137.5458
" />
<path d="M139.0600 137.7363
L139.1552 137.6411
" />
<path d="M139.1552 137.6411
L139.3457 137.5458
" />
<path d="M139.3457 137.5458
L139.6314 137.5458
" />
<path d="M139.6314 137.5458
L139.8219 137.6411
" />
<path d="M139.8219 137.6411
L139.9171 137.8315
" />
<path d="M139.9171 137.8315
L139.9171 138.8792
" />
<path d="M139.9171 137.8315
L140.0124 137.6411
" />
<path d="M140.0124 137.6411
L140.2028 137.5458
" />
<path d="M140.2028 137.5458
L140.4886 137.5458
" />
<path d="M140.4886 137.5458
L140.6790 137.6411
" />
<path d="M140.6790 137.6411
L140.7743 137.8315
" />
<path d="M140.7743 137.8315
L140.7743 138.8792
" />
<path d="M141.7267 138.8792
L141.7267 137.5458
" />
<path d="M141.7267 137.7363
L141.8219 137.6411
" />
<path d="M141.8219 137.6411
L142.0124 137.5458
" />
<path d="M142.0124 137.5458
L142.2981 137.5458
" />
<path d="M142.2981 137.5458
L142.4886 137.6411
" />
<path d="M142.4886 137.6411
L142.5838 137.8315
" />
<path d="M142.5838 137.8315
L142.5838 138.8792
" />
<path d="M142.5838 137.8315
L142.6790 137.6411
" />
<path d="M142.6790 137.6411
L142.8695 137.5458
" />
<path d="M142.8695 137.5458
L143.1552 137.5458
" />
<path d="M143.1552 137.5458
L143.3457 137.6411
" />
<path d="M143.3457 137.6411
L143.4409 137.8315
" />
<path d="M143.4409 137.8315
L143.4409 138.8792
" />
<path d="M147.3457 136.7839
L145.6314 139.3553
" />
<path d="M149.9171 136.8792
L150.1076 136.8792
" />
<path d="M150.1076 136.8792
L150.2981 136.9744
" />
<path d="M150.2981 136.9744
L150.3933 137.0696
" />
<path d="M150.3933 137.0696
L150.4886 137.2601
" />
<path d="M150.4886 137.2601
L150.5838 137.6411
" />
<path d="M150.5838 137.6411
L150.5838 138.1173
" />
<path d="M150.5838 138.1173
L150.4886 138.4982
" />
<path d="M150.4886 138.4982
L150.3933 138.6887
" />
<path d="M150.3933 138.6887
L150.2981 138.7839
" />
<path d="M150.2981 138.7839
L150.1076 138.8792
" />
<path d="M150.1076 138.8792
L149.9171 138.8792
" />
<path d="M149.9171 138.8792
L149.7267 138.7839
" />
<path d="M149.7267 138.7839
L149.6314 138.6887
" />
<path d="M149.6314 138.6887
L149.5362 138.4982
" />
<path d="M149.5362 138.4982
L149.4409 138.1173
" />
<path d="M149.4409 138.1173
L149.4409 137.6411
" />
<path d="M149.4409 137.6411
L149.5362 137.2601
" />
<path d="M149.5362 137.2601
L149.6314 137.0696
" />
<path d="M149.6314 137.0696
L149.7267 136.9744
" />
<path d="M149.7267 136.9744
L149.9171 136.8792
" />
<path d="M151.4409 138.6887
L151.5362 138.7839
" />
<path d="M151.5362 138.7839
L151.4409 138.8792
" />
<path d="M151.4409 138.8792
L151.3457 138.7839
" />
<path d="M151.3457 138.7839
L151.4409 138.6887
" />
<path d="M151.4409 138.6887
L151.4409 138.8792
" />
<path d="M152.7743 136.8792
L152.9647 136.8792
" />
<path d="M152.9647 136.8792
L153.1552 136.9744
" />
<path d="M153.1552 136.9744
L153.2505 137.0696
" />
<path d="M153.2505 137.0696
L153.3457 137.2601
" />
<path d="M153.3457 137.2601
L153.4409 137.6411
" />
<path d="M153.4409 137.6411
L153.4409 138.1173
" />
<path d="M153.4409 138.1173
L153.3457 138.4982
" />
<path d="M153.3457 138.4982
L153.2505 138.6887
" />
<path d="M153.2505 138.6887
L153.1552 138.7839
" />
<path d="M153.1552 138.7839
L152.9647 138.8792
" />
<path d="M152.9647 138.8792
L152.7743 138.8792
" />
<path d="M152.7743 138.8792
L152.5838 138.7839
" />
<path d="M152.5838 138.7839
L152.4886 138.6887
" />
<path d="M152.4886 138.6887
L152.3933 138.4982
" />
<path d="M152.3933 138.4982
L152.2981 138.1173
" />
<path d="M152.2981 138.1173
L152.2981 137.6411
" />
<path d="M152.2981 137.6411
L152.3933 137.2601
" />
<path d="M152.3933 137.2601
L152.4886 137.0696
" />
<path d="M152.4886 137.0696
L152.5838 136.9744
" />
<path d="M152.5838 136.9744
L152.7743 136.8792
" />
<path d="M155.2505 136.8792
L154.2981 136.8792
" />
<path d="M154.2981 136.8792
L154.2028 137.8315
" />
<path d="M154.2028 137.8315
L154.2981 137.7363
" />
<path d="M154.2981 137.7363
L154.4886 137.6411
" />
<path d="M154.4886 137.6411
L154.9647 137.6411
" />
<path d="M154.9647 137.6411
L155.1552 137.7363
" />
<path d="M155.1552 137.7363
L155.2505 137.8315
" />
<path d="M155.2505 137.8315
L155.3457 138.0220
" />
<path d="M155.3457 138.0220
L155.3457 138.4982
" />
<path d="M155.3457 138.4982
L155.2505 138.6887
" />
<path d="M155.2505 138.6887
L155.1552 138.7839
" />
<path d="M155.1552 138.7839
L154.9647 138.8792
" />
<path d="M154.9647 138.8792
L154.4886 138.8792
" />
<path d="M154.4886 138.8792
L154.2981 138.7839
" />
<path d="M154.2981 138.7839
L154.2028 138.6887
" />
<path d="M157.1552 136.8792
L156.2028 136.8792
" />
<path d="M156.2028 136.8792
L156.1076 137.8315
" />
<path d="M156.1076 137.8315
L156.2028 137.7363
" />
<path d="M156.2028 137.7363
L156.3933 137.6411
" />
<path d="M156.3933 137.6411
L156.8695 137.6411
" />
<path d="M156.8695 137.6411
L157.0600 137.7363
" />
<path d="M157.0600 137.7363
L157.1552 137.8315
" />
<path d="M157.1552 137.8315
L157.2505 138.0220
" />
<path d="M157.2505 138.0220
L157.2505 138.4982
" />
<path d="M157.2505 138.4982
L157.1552 138.6887
" />
<path d="M157.1552 138.6887
L157.0600 138.7839
" />
<path d="M157.0600 138.7839
L156.8695 138.8792
" />
<path d="M156.8695 138.8792
L156.3933 138.8792
" />
<path d="M156.3933 138.8792
L156.2028 138.7839
" />
<path d="M156.2028 138.7839
L156.1076 138.6887
" />
<path d="M159.1552 138.8792
L158.0124 138.8792
" />
<path d="M158.5838 138.8792
L158.5838 136.8792
" />
<path d="M158.5838 136.8792
L158.3933 137.1649
" />
<path d="M158.3933 137.1649
L158.2028 137.3553
" />
<path d="M158.2028 137.3553
L158.0124 137.4506
" />
<path d="M159.9171 136.8792
L159.9171 137.2601
" />
<path d="M160.6790 136.8792
L160.6790 137.2601
" />
<path d="M163.6314 139.6411
L163.5362 139.5458
" />
<path d="M163.5362 139.5458
L163.3457 139.2601
" />
<path d="M163.3457 139.2601
L163.2505 139.0696
" />
<path d="M163.2505 139.0696
L163.1552 138.7839
" />
<path d="M163.1552 138.7839
L163.0600 138.3077
" />
<path d="M163.0600 138.3077
L163.0600 137.9268
" />
<path d="M163.0600 137.9268
L163.1552 137.4506
" />
<path d="M163.1552 137.4506
L163.2505 137.1649
" />
<path d="M163.2505 137.1649
L163.3457 136.9744
" />
<path d="M163.3457 136.9744
L163.5362 136.6887
" />
<path d="M163.5362 136.6887
L163.6314 136.5934
" />
<path d="M165.4409 138.8792
L164.2981 138.8792
" />
<path d="M164.8695 138.8792
L164.8695 136.8792
" />
<path d="M164.8695 136.8792
L164.6790 137.1649
" />
<path d="M164.6790 137.1649
L164.4886 137.3553
" />
<path d="M164.4886 137.3553
L164.2981 137.4506
" />
<path d="M166.6790 136.8792
L166.8695 136.8792
" />
<path d="M166.8695 136.8792
L167.0600 136.9744
" />
<path d="M167.0600 136.9744
L167.1552 137.0696
" />
<path d="M167.1552 137.0696
L167.2505 137.2601
" />
<path d="M167.2505 137.2601
L167.3457 137.6411
" />
<path d="M167.3457 137.6411
L167.3457 138.1173
" />
<path d="M167.3457 138.1173
L167.2505 138.4982
" />
<path d="M167.2505 138.4982
L167.1552 138.6887
" />
<path d="M167.1552 138.6887
L167.0600 138.7839
" />
<path d="M167.0600 138.7839
L166.8695 138.8792
" />
<path d="M166.8695 138.8792
L166.6790 138.8792
" />
<path d="M166.6790 138.8792
L166.4886 138.7839
" />
<path d="M166.4886 138.7839
L166.3933 138.6887
" />
<path d="M166.3933 138.6887
L166.2981 138.4982
" />
<path d="M166.2981 138.4982
L166.2028 138.1173
" />
<path d="M166.2028 138.1173
L166.2028 137.6411
" />
<path d="M166.2028 137.6411
L166.2981 137.2601
" />
<path d="M166.2981 137.2601
L166.3933 137.0696
" />
<path d="M166.3933 137.0696
L166.4886 136.9744
" />
<path d="M166.4886 136.9744
L166.6790 136.8792
" />
<path d="M169.7267 138.8792
L169.7267 136.8792
" />
<path d="M170.5838 138.8792
L170.5838 137.8315
" />
<path d="M170.5838 137.8315
L170.4886 137.6411
" />
<path d="M170.4886 137.6411
L170.2981 137.5458
" />
<path d="M170.2981 137.5458
L170.0124 137.5458
" />
<path d="M170.0124 137.5458
L169.8219 137.6411
" />
<path d="M169.8219 137.6411
L169.7267 137.7363
" />
<path d="M171.8219 138.8792
L171.6314 138.7839
" />
<path d="M171.6314 138.7839
L171.5362 138.6887
" />
<path d="M171.5362 138.6887
L171.4409 138.4982
" />
<path d="M171.4409 138.4982
L171.4409 137.9268
" />
<path d="M171.4409 137.9268
L171.5362 137.7363
" />
<path d="M171.5362 137.7363
L171.6314 137.6411
" />
<path d="M171.6314 137.6411
L171.8219 137.5458
" />
<path d="M171.8219 137.5458
L172.1076 137.5458
" />
<path d="M172.1076 137.5458
L172.2981 137.6411
" />
<path d="M172.2981 137.6411
L172.3933 137.7363
" />
<path d="M172.3933 137.7363
L172.4886 137.9268
" />
<path d="M172.4886 137.9268
L172.4886 138.4982
" />
<path d="M172.4886 138.4982
L172.3933 138.6887
" />
<path d="M172.3933 138.6887
L172.2981 138.7839
" />
<path d="M172.2981 138.7839
L172.1076 138.8792
" />
<path d="M172.1076 138.8792
L171.8219 138.8792
" />
<path d="M173.6314 138.8792
L173.4409 138.7839
" />
<path d="M173.4409 138.7839
L173.3457 138.5934
" />
<path d="M173.3457 138.5934
L173.3457 136.8792
" />
<path d="M175.1552 138.7839
L174.9648 138.8792
" />
<path d="M174.9648 138.8792
L174.5838 138.8792
" />
<path d="M174.5838 138.8792
L174.3933 138.7839
" />
<path d="M174.3933 138.7839
L174.2981 138.5934
" />
<path d="M174.2981 138.5934
L174.2981 137.8315
" />
<path d="M174.2981 137.8315
L174.3933 137.6411
" />
<path d="M174.3933 137.6411
L174.5838 137.5458
" />
<path d="M174.5838 137.5458
L174.9648 137.5458
" />
<path d="M174.9648 137.5458
L175.1552 137.6411
" />
<path d="M175.1552 137.6411
L175.2505 137.8315
" />
<path d="M175.2505 137.8315
L175.2505 138.0220
" />
<path d="M175.2505 138.0220
L174.2981 138.2125
" />
<path d="M176.0124 138.7839
L176.2028 138.8792
" />
<path d="M176.2028 138.8792
L176.5838 138.8792
" />
<path d="M176.5838 138.8792
L176.7743 138.7839
" />
<path d="M176.7743 138.7839
L176.8695 138.5934
" />
<path d="M176.8695 138.5934
L176.8695 138.4982
" />
<path d="M176.8695 138.4982
L176.7743 138.3077
" />
<path d="M176.7743 138.3077
L176.5838 138.2125
" />
<path d="M176.5838 138.2125
L176.2981 138.2125
" />
<path d="M176.2981 138.2125
L176.1076 138.1173
" />
<path d="M176.1076 138.1173
L176.0124 137.9268
" />
<path d="M176.0124 137.9268
L176.0124 137.8315
" />
<path d="M176.0124 137.8315
L176.1076 137.6411
" />
<path d="M176.1076 137.6411
L176.2981 137.5458
" />
<path d="M176.2981 137.5458
L176.5838 137.5458
" />
<path d="M176.5838 137.5458
L176.7743 137.6411
" />
<path d="M177.5362 139.6411
L177.6314 139.5458
" />
<path d="M177.6314 139.5458
L177.8219 139.2601
" />
<path d="M177.8219 139.2601
L177.9171 139.0696
" />
<path d="M177.9171 139.0696
L178.0124 138.7839
" />
<path d="M178.0124 138.7839
L178.1076 138.3077
" />
<path d="M178.1076 138.3077
L178.1076 137.9268
" />
<path d="M178.1076 137.9268
L178.0124 137.4506
" />
<path d="M178.0124 137.4506
L177.9171 137.1649
" />
<path d="M177.9171 137.1649
L177.8219 136.9744
" />
<path d="M177.8219 136.9744
L177.6314 136.6887
" />
<path d="M177.6314 136.6887
L177.5362 136.5934
" />
</g></g> 
</svg>
