%TF.GenerationSoftware,KiCad,Pcbnew,9.0.0*%
%TF.CreationDate,2025-03-02T17:24:29+03:00*%
%TF.ProjectId,PM_HMI-Touch,504d5f48-4d49-42d5-946f-7563682e6b69,rev?*%
%TF.SameCoordinates,Original*%
%TF.FileFunction,Legend,Top*%
%TF.FilePolarity,Positive*%
%FSLAX46Y46*%
G04 Gerber Fmt 4.6, Leading zero omitted, Abs format (unit mm)*
G04 Created by KiCad (PCBNEW 9.0.0) date 2025-03-02 17:24:29*
%MOMM*%
%LPD*%
G01*
G04 APERTURE LIST*
%ADD10C,0.150000*%
%ADD11C,0.200000*%
%ADD12C,0.120000*%
%ADD13C,0.152400*%
G04 APERTURE END LIST*
D10*
X10614819Y2876780D02*
X9614819Y2876780D01*
X10614819Y3352970D02*
X9614819Y3352970D01*
X9614819Y3352970D02*
X10614819Y3924398D01*
X10614819Y3924398D02*
X9614819Y3924398D01*
X9614819Y4257732D02*
X9614819Y4829160D01*
X10614819Y4543446D02*
X9614819Y4543446D01*
X10614819Y-6019635D02*
X9614819Y-6019635D01*
X9614819Y-6019635D02*
X10329104Y-5686302D01*
X10329104Y-5686302D02*
X9614819Y-5352969D01*
X9614819Y-5352969D02*
X10614819Y-5352969D01*
X10614819Y-4876778D02*
X9614819Y-4876778D01*
X10567200Y-4448207D02*
X10614819Y-4305350D01*
X10614819Y-4305350D02*
X10614819Y-4067255D01*
X10614819Y-4067255D02*
X10567200Y-3972017D01*
X10567200Y-3972017D02*
X10519580Y-3924398D01*
X10519580Y-3924398D02*
X10424342Y-3876779D01*
X10424342Y-3876779D02*
X10329104Y-3876779D01*
X10329104Y-3876779D02*
X10233866Y-3924398D01*
X10233866Y-3924398D02*
X10186247Y-3972017D01*
X10186247Y-3972017D02*
X10138628Y-4067255D01*
X10138628Y-4067255D02*
X10091009Y-4257731D01*
X10091009Y-4257731D02*
X10043390Y-4352969D01*
X10043390Y-4352969D02*
X9995771Y-4400588D01*
X9995771Y-4400588D02*
X9900533Y-4448207D01*
X9900533Y-4448207D02*
X9805295Y-4448207D01*
X9805295Y-4448207D02*
X9710057Y-4400588D01*
X9710057Y-4400588D02*
X9662438Y-4352969D01*
X9662438Y-4352969D02*
X9614819Y-4257731D01*
X9614819Y-4257731D02*
X9614819Y-4019636D01*
X9614819Y-4019636D02*
X9662438Y-3876779D01*
X9614819Y-3257731D02*
X9614819Y-3067255D01*
X9614819Y-3067255D02*
X9662438Y-2972017D01*
X9662438Y-2972017D02*
X9757676Y-2876779D01*
X9757676Y-2876779D02*
X9948152Y-2829160D01*
X9948152Y-2829160D02*
X10281485Y-2829160D01*
X10281485Y-2829160D02*
X10471961Y-2876779D01*
X10471961Y-2876779D02*
X10567200Y-2972017D01*
X10567200Y-2972017D02*
X10614819Y-3067255D01*
X10614819Y-3067255D02*
X10614819Y-3257731D01*
X10614819Y-3257731D02*
X10567200Y-3352969D01*
X10567200Y-3352969D02*
X10471961Y-3448207D01*
X10471961Y-3448207D02*
X10281485Y-3495826D01*
X10281485Y-3495826D02*
X9948152Y-3495826D01*
X9948152Y-3495826D02*
X9757676Y-3448207D01*
X9757676Y-3448207D02*
X9662438Y-3352969D01*
X9662438Y-3352969D02*
X9614819Y-3257731D01*
X8074819Y-6019635D02*
X7074819Y-6019635D01*
X7074819Y-6019635D02*
X7789104Y-5686302D01*
X7789104Y-5686302D02*
X7074819Y-5352969D01*
X7074819Y-5352969D02*
X8074819Y-5352969D01*
X7074819Y-4686302D02*
X7074819Y-4495826D01*
X7074819Y-4495826D02*
X7122438Y-4400588D01*
X7122438Y-4400588D02*
X7217676Y-4305350D01*
X7217676Y-4305350D02*
X7408152Y-4257731D01*
X7408152Y-4257731D02*
X7741485Y-4257731D01*
X7741485Y-4257731D02*
X7931961Y-4305350D01*
X7931961Y-4305350D02*
X8027200Y-4400588D01*
X8027200Y-4400588D02*
X8074819Y-4495826D01*
X8074819Y-4495826D02*
X8074819Y-4686302D01*
X8074819Y-4686302D02*
X8027200Y-4781540D01*
X8027200Y-4781540D02*
X7931961Y-4876778D01*
X7931961Y-4876778D02*
X7741485Y-4924397D01*
X7741485Y-4924397D02*
X7408152Y-4924397D01*
X7408152Y-4924397D02*
X7217676Y-4876778D01*
X7217676Y-4876778D02*
X7122438Y-4781540D01*
X7122438Y-4781540D02*
X7074819Y-4686302D01*
X8027200Y-3876778D02*
X8074819Y-3733921D01*
X8074819Y-3733921D02*
X8074819Y-3495826D01*
X8074819Y-3495826D02*
X8027200Y-3400588D01*
X8027200Y-3400588D02*
X7979580Y-3352969D01*
X7979580Y-3352969D02*
X7884342Y-3305350D01*
X7884342Y-3305350D02*
X7789104Y-3305350D01*
X7789104Y-3305350D02*
X7693866Y-3352969D01*
X7693866Y-3352969D02*
X7646247Y-3400588D01*
X7646247Y-3400588D02*
X7598628Y-3495826D01*
X7598628Y-3495826D02*
X7551009Y-3686302D01*
X7551009Y-3686302D02*
X7503390Y-3781540D01*
X7503390Y-3781540D02*
X7455771Y-3829159D01*
X7455771Y-3829159D02*
X7360533Y-3876778D01*
X7360533Y-3876778D02*
X7265295Y-3876778D01*
X7265295Y-3876778D02*
X7170057Y-3829159D01*
X7170057Y-3829159D02*
X7122438Y-3781540D01*
X7122438Y-3781540D02*
X7074819Y-3686302D01*
X7074819Y-3686302D02*
X7074819Y-3448207D01*
X7074819Y-3448207D02*
X7122438Y-3305350D01*
X8074819Y-2876778D02*
X7074819Y-2876778D01*
X13107200Y-5400588D02*
X13154819Y-5257731D01*
X13154819Y-5257731D02*
X13154819Y-5019636D01*
X13154819Y-5019636D02*
X13107200Y-4924398D01*
X13107200Y-4924398D02*
X13059580Y-4876779D01*
X13059580Y-4876779D02*
X12964342Y-4829160D01*
X12964342Y-4829160D02*
X12869104Y-4829160D01*
X12869104Y-4829160D02*
X12773866Y-4876779D01*
X12773866Y-4876779D02*
X12726247Y-4924398D01*
X12726247Y-4924398D02*
X12678628Y-5019636D01*
X12678628Y-5019636D02*
X12631009Y-5210112D01*
X12631009Y-5210112D02*
X12583390Y-5305350D01*
X12583390Y-5305350D02*
X12535771Y-5352969D01*
X12535771Y-5352969D02*
X12440533Y-5400588D01*
X12440533Y-5400588D02*
X12345295Y-5400588D01*
X12345295Y-5400588D02*
X12250057Y-5352969D01*
X12250057Y-5352969D02*
X12202438Y-5305350D01*
X12202438Y-5305350D02*
X12154819Y-5210112D01*
X12154819Y-5210112D02*
X12154819Y-4972017D01*
X12154819Y-4972017D02*
X12202438Y-4829160D01*
X13059580Y-3829160D02*
X13107200Y-3876779D01*
X13107200Y-3876779D02*
X13154819Y-4019636D01*
X13154819Y-4019636D02*
X13154819Y-4114874D01*
X13154819Y-4114874D02*
X13107200Y-4257731D01*
X13107200Y-4257731D02*
X13011961Y-4352969D01*
X13011961Y-4352969D02*
X12916723Y-4400588D01*
X12916723Y-4400588D02*
X12726247Y-4448207D01*
X12726247Y-4448207D02*
X12583390Y-4448207D01*
X12583390Y-4448207D02*
X12392914Y-4400588D01*
X12392914Y-4400588D02*
X12297676Y-4352969D01*
X12297676Y-4352969D02*
X12202438Y-4257731D01*
X12202438Y-4257731D02*
X12154819Y-4114874D01*
X12154819Y-4114874D02*
X12154819Y-4019636D01*
X12154819Y-4019636D02*
X12202438Y-3876779D01*
X12202438Y-3876779D02*
X12250057Y-3829160D01*
X13154819Y-3400588D02*
X12154819Y-3400588D01*
X13154819Y-2829160D02*
X12583390Y-3257731D01*
X12154819Y-2829160D02*
X12726247Y-3400588D01*
X15599580Y3448208D02*
X15647200Y3400589D01*
X15647200Y3400589D02*
X15694819Y3257732D01*
X15694819Y3257732D02*
X15694819Y3162494D01*
X15694819Y3162494D02*
X15647200Y3019637D01*
X15647200Y3019637D02*
X15551961Y2924399D01*
X15551961Y2924399D02*
X15456723Y2876780D01*
X15456723Y2876780D02*
X15266247Y2829161D01*
X15266247Y2829161D02*
X15123390Y2829161D01*
X15123390Y2829161D02*
X14932914Y2876780D01*
X14932914Y2876780D02*
X14837676Y2924399D01*
X14837676Y2924399D02*
X14742438Y3019637D01*
X14742438Y3019637D02*
X14694819Y3162494D01*
X14694819Y3162494D02*
X14694819Y3257732D01*
X14694819Y3257732D02*
X14742438Y3400589D01*
X14742438Y3400589D02*
X14790057Y3448208D01*
X15647200Y3829161D02*
X15694819Y3972018D01*
X15694819Y3972018D02*
X15694819Y4210113D01*
X15694819Y4210113D02*
X15647200Y4305351D01*
X15647200Y4305351D02*
X15599580Y4352970D01*
X15599580Y4352970D02*
X15504342Y4400589D01*
X15504342Y4400589D02*
X15409104Y4400589D01*
X15409104Y4400589D02*
X15313866Y4352970D01*
X15313866Y4352970D02*
X15266247Y4305351D01*
X15266247Y4305351D02*
X15218628Y4210113D01*
X15218628Y4210113D02*
X15171009Y4019637D01*
X15171009Y4019637D02*
X15123390Y3924399D01*
X15123390Y3924399D02*
X15075771Y3876780D01*
X15075771Y3876780D02*
X14980533Y3829161D01*
X14980533Y3829161D02*
X14885295Y3829161D01*
X14885295Y3829161D02*
X14790057Y3876780D01*
X14790057Y3876780D02*
X14742438Y3924399D01*
X14742438Y3924399D02*
X14694819Y4019637D01*
X14694819Y4019637D02*
X14694819Y4257732D01*
X14694819Y4257732D02*
X14742438Y4400589D01*
X14742438Y-4924398D02*
X14694819Y-5019636D01*
X14694819Y-5019636D02*
X14694819Y-5162493D01*
X14694819Y-5162493D02*
X14742438Y-5305350D01*
X14742438Y-5305350D02*
X14837676Y-5400588D01*
X14837676Y-5400588D02*
X14932914Y-5448207D01*
X14932914Y-5448207D02*
X15123390Y-5495826D01*
X15123390Y-5495826D02*
X15266247Y-5495826D01*
X15266247Y-5495826D02*
X15456723Y-5448207D01*
X15456723Y-5448207D02*
X15551961Y-5400588D01*
X15551961Y-5400588D02*
X15647200Y-5305350D01*
X15647200Y-5305350D02*
X15694819Y-5162493D01*
X15694819Y-5162493D02*
X15694819Y-5067255D01*
X15694819Y-5067255D02*
X15647200Y-4924398D01*
X15647200Y-4924398D02*
X15599580Y-4876779D01*
X15599580Y-4876779D02*
X15266247Y-4876779D01*
X15266247Y-4876779D02*
X15266247Y-5067255D01*
X15694819Y-4448207D02*
X14694819Y-4448207D01*
X14694819Y-4448207D02*
X15694819Y-3876779D01*
X15694819Y-3876779D02*
X14694819Y-3876779D01*
X15694819Y-3400588D02*
X14694819Y-3400588D01*
X14694819Y-3400588D02*
X14694819Y-3162493D01*
X14694819Y-3162493D02*
X14742438Y-3019636D01*
X14742438Y-3019636D02*
X14837676Y-2924398D01*
X14837676Y-2924398D02*
X14932914Y-2876779D01*
X14932914Y-2876779D02*
X15123390Y-2829160D01*
X15123390Y-2829160D02*
X15266247Y-2829160D01*
X15266247Y-2829160D02*
X15456723Y-2876779D01*
X15456723Y-2876779D02*
X15551961Y-2924398D01*
X15551961Y-2924398D02*
X15647200Y-3019636D01*
X15647200Y-3019636D02*
X15694819Y-3162493D01*
X15694819Y-3162493D02*
X15694819Y-3400588D01*
X-5577562Y-4924398D02*
X-5625181Y-5019636D01*
X-5625181Y-5019636D02*
X-5625181Y-5162493D01*
X-5625181Y-5162493D02*
X-5577562Y-5305350D01*
X-5577562Y-5305350D02*
X-5482324Y-5400588D01*
X-5482324Y-5400588D02*
X-5387086Y-5448207D01*
X-5387086Y-5448207D02*
X-5196610Y-5495826D01*
X-5196610Y-5495826D02*
X-5053753Y-5495826D01*
X-5053753Y-5495826D02*
X-4863277Y-5448207D01*
X-4863277Y-5448207D02*
X-4768039Y-5400588D01*
X-4768039Y-5400588D02*
X-4672800Y-5305350D01*
X-4672800Y-5305350D02*
X-4625181Y-5162493D01*
X-4625181Y-5162493D02*
X-4625181Y-5067255D01*
X-4625181Y-5067255D02*
X-4672800Y-4924398D01*
X-4672800Y-4924398D02*
X-4720420Y-4876779D01*
X-4720420Y-4876779D02*
X-5053753Y-4876779D01*
X-5053753Y-4876779D02*
X-5053753Y-5067255D01*
X-4625181Y-4448207D02*
X-5625181Y-4448207D01*
X-5625181Y-4448207D02*
X-4625181Y-3876779D01*
X-4625181Y-3876779D02*
X-5625181Y-3876779D01*
X-4625181Y-3400588D02*
X-5625181Y-3400588D01*
X-5625181Y-3400588D02*
X-5625181Y-3162493D01*
X-5625181Y-3162493D02*
X-5577562Y-3019636D01*
X-5577562Y-3019636D02*
X-5482324Y-2924398D01*
X-5482324Y-2924398D02*
X-5387086Y-2876779D01*
X-5387086Y-2876779D02*
X-5196610Y-2829160D01*
X-5196610Y-2829160D02*
X-5053753Y-2829160D01*
X-5053753Y-2829160D02*
X-4863277Y-2876779D01*
X-4863277Y-2876779D02*
X-4768039Y-2924398D01*
X-4768039Y-2924398D02*
X-4672800Y-3019636D01*
X-4672800Y-3019636D02*
X-4625181Y-3162493D01*
X-4625181Y-3162493D02*
X-4625181Y-3400588D01*
X7122438Y3400589D02*
X7074819Y3305351D01*
X7074819Y3305351D02*
X7074819Y3162494D01*
X7074819Y3162494D02*
X7122438Y3019637D01*
X7122438Y3019637D02*
X7217676Y2924399D01*
X7217676Y2924399D02*
X7312914Y2876780D01*
X7312914Y2876780D02*
X7503390Y2829161D01*
X7503390Y2829161D02*
X7646247Y2829161D01*
X7646247Y2829161D02*
X7836723Y2876780D01*
X7836723Y2876780D02*
X7931961Y2924399D01*
X7931961Y2924399D02*
X8027200Y3019637D01*
X8027200Y3019637D02*
X8074819Y3162494D01*
X8074819Y3162494D02*
X8074819Y3257732D01*
X8074819Y3257732D02*
X8027200Y3400589D01*
X8027200Y3400589D02*
X7979580Y3448208D01*
X7979580Y3448208D02*
X7646247Y3448208D01*
X7646247Y3448208D02*
X7646247Y3257732D01*
X8074819Y3876780D02*
X7074819Y3876780D01*
X7074819Y3876780D02*
X8074819Y4448208D01*
X8074819Y4448208D02*
X7074819Y4448208D01*
X8074819Y4924399D02*
X7074819Y4924399D01*
X7074819Y4924399D02*
X7074819Y5162494D01*
X7074819Y5162494D02*
X7122438Y5305351D01*
X7122438Y5305351D02*
X7217676Y5400589D01*
X7217676Y5400589D02*
X7312914Y5448208D01*
X7312914Y5448208D02*
X7503390Y5495827D01*
X7503390Y5495827D02*
X7646247Y5495827D01*
X7646247Y5495827D02*
X7836723Y5448208D01*
X7836723Y5448208D02*
X7931961Y5400589D01*
X7931961Y5400589D02*
X8027200Y5305351D01*
X8027200Y5305351D02*
X8074819Y5162494D01*
X8074819Y5162494D02*
X8074819Y4924399D01*
X-482562Y3455589D02*
X-530181Y3360351D01*
X-530181Y3360351D02*
X-530181Y3217494D01*
X-530181Y3217494D02*
X-482562Y3074637D01*
X-482562Y3074637D02*
X-387324Y2979399D01*
X-387324Y2979399D02*
X-292086Y2931780D01*
X-292086Y2931780D02*
X-101610Y2884161D01*
X-101610Y2884161D02*
X41247Y2884161D01*
X41247Y2884161D02*
X231723Y2931780D01*
X231723Y2931780D02*
X326961Y2979399D01*
X326961Y2979399D02*
X422200Y3074637D01*
X422200Y3074637D02*
X469819Y3217494D01*
X469819Y3217494D02*
X469819Y3312732D01*
X469819Y3312732D02*
X422200Y3455589D01*
X422200Y3455589D02*
X374580Y3503208D01*
X374580Y3503208D02*
X41247Y3503208D01*
X41247Y3503208D02*
X41247Y3312732D01*
X469819Y3931780D02*
X-530181Y3931780D01*
X-530181Y3931780D02*
X469819Y4503208D01*
X469819Y4503208D02*
X-530181Y4503208D01*
X469819Y4979399D02*
X-530181Y4979399D01*
X-530181Y4979399D02*
X-530181Y5217494D01*
X-530181Y5217494D02*
X-482562Y5360351D01*
X-482562Y5360351D02*
X-387324Y5455589D01*
X-387324Y5455589D02*
X-292086Y5503208D01*
X-292086Y5503208D02*
X-101610Y5550827D01*
X-101610Y5550827D02*
X41247Y5550827D01*
X41247Y5550827D02*
X231723Y5503208D01*
X231723Y5503208D02*
X326961Y5455589D01*
X326961Y5455589D02*
X422200Y5360351D01*
X422200Y5360351D02*
X469819Y5217494D01*
X469819Y5217494D02*
X469819Y4979399D01*
X-10657562Y3400589D02*
X-10705181Y3305351D01*
X-10705181Y3305351D02*
X-10705181Y3162494D01*
X-10705181Y3162494D02*
X-10657562Y3019637D01*
X-10657562Y3019637D02*
X-10562324Y2924399D01*
X-10562324Y2924399D02*
X-10467086Y2876780D01*
X-10467086Y2876780D02*
X-10276610Y2829161D01*
X-10276610Y2829161D02*
X-10133753Y2829161D01*
X-10133753Y2829161D02*
X-9943277Y2876780D01*
X-9943277Y2876780D02*
X-9848039Y2924399D01*
X-9848039Y2924399D02*
X-9752800Y3019637D01*
X-9752800Y3019637D02*
X-9705181Y3162494D01*
X-9705181Y3162494D02*
X-9705181Y3257732D01*
X-9705181Y3257732D02*
X-9752800Y3400589D01*
X-9752800Y3400589D02*
X-9800420Y3448208D01*
X-9800420Y3448208D02*
X-10133753Y3448208D01*
X-10133753Y3448208D02*
X-10133753Y3257732D01*
X-9705181Y3876780D02*
X-10705181Y3876780D01*
X-10705181Y3876780D02*
X-9705181Y4448208D01*
X-9705181Y4448208D02*
X-10705181Y4448208D01*
X-9705181Y4924399D02*
X-10705181Y4924399D01*
X-10705181Y4924399D02*
X-10705181Y5162494D01*
X-10705181Y5162494D02*
X-10657562Y5305351D01*
X-10657562Y5305351D02*
X-10562324Y5400589D01*
X-10562324Y5400589D02*
X-10467086Y5448208D01*
X-10467086Y5448208D02*
X-10276610Y5495827D01*
X-10276610Y5495827D02*
X-10133753Y5495827D01*
X-10133753Y5495827D02*
X-9943277Y5448208D01*
X-9943277Y5448208D02*
X-9848039Y5400589D01*
X-9848039Y5400589D02*
X-9752800Y5305351D01*
X-9752800Y5305351D02*
X-9705181Y5162494D01*
X-9705181Y5162494D02*
X-9705181Y4924399D01*
X-12626134Y2876780D02*
X-12626134Y3638684D01*
X-12245181Y3257732D02*
X-13007086Y3257732D01*
X-13245181Y4591065D02*
X-13245181Y4114875D01*
X-13245181Y4114875D02*
X-12768991Y4067256D01*
X-12768991Y4067256D02*
X-12816610Y4114875D01*
X-12816610Y4114875D02*
X-12864229Y4210113D01*
X-12864229Y4210113D02*
X-12864229Y4448208D01*
X-12864229Y4448208D02*
X-12816610Y4543446D01*
X-12816610Y4543446D02*
X-12768991Y4591065D01*
X-12768991Y4591065D02*
X-12673753Y4638684D01*
X-12673753Y4638684D02*
X-12435658Y4638684D01*
X-12435658Y4638684D02*
X-12340420Y4591065D01*
X-12340420Y4591065D02*
X-12292800Y4543446D01*
X-12292800Y4543446D02*
X-12245181Y4448208D01*
X-12245181Y4448208D02*
X-12245181Y4210113D01*
X-12245181Y4210113D02*
X-12292800Y4114875D01*
X-12292800Y4114875D02*
X-12340420Y4067256D01*
X-13245181Y4924399D02*
X-12245181Y5257732D01*
X-12245181Y5257732D02*
X-13245181Y5591065D01*
X-15166134Y2876780D02*
X-15166134Y3638684D01*
X-14785181Y3257732D02*
X-15547086Y3257732D01*
X-15785181Y4591065D02*
X-15785181Y4114875D01*
X-15785181Y4114875D02*
X-15308991Y4067256D01*
X-15308991Y4067256D02*
X-15356610Y4114875D01*
X-15356610Y4114875D02*
X-15404229Y4210113D01*
X-15404229Y4210113D02*
X-15404229Y4448208D01*
X-15404229Y4448208D02*
X-15356610Y4543446D01*
X-15356610Y4543446D02*
X-15308991Y4591065D01*
X-15308991Y4591065D02*
X-15213753Y4638684D01*
X-15213753Y4638684D02*
X-14975658Y4638684D01*
X-14975658Y4638684D02*
X-14880420Y4591065D01*
X-14880420Y4591065D02*
X-14832800Y4543446D01*
X-14832800Y4543446D02*
X-14785181Y4448208D01*
X-14785181Y4448208D02*
X-14785181Y4210113D01*
X-14785181Y4210113D02*
X-14832800Y4114875D01*
X-14832800Y4114875D02*
X-14880420Y4067256D01*
X-15785181Y4924399D02*
X-14785181Y5257732D01*
X-14785181Y5257732D02*
X-15785181Y5591065D01*
D11*
G36*
X21702668Y-40582024D02*
G01*
X21727337Y-40606692D01*
X21757142Y-40666302D01*
X21757142Y-40761945D01*
X21727337Y-40821554D01*
X21702668Y-40846222D01*
X21643059Y-40876028D01*
X21385714Y-40876028D01*
X21385714Y-40552219D01*
X21643059Y-40552219D01*
X21702668Y-40582024D01*
G37*
G36*
X22971094Y-41663330D02*
G01*
X21074603Y-41663330D01*
X21074603Y-40452219D01*
X21185714Y-40452219D01*
X21185714Y-41452219D01*
X21187635Y-41471728D01*
X21202567Y-41507776D01*
X21230157Y-41535366D01*
X21266205Y-41550298D01*
X21305223Y-41550298D01*
X21341271Y-41535366D01*
X21368861Y-41507776D01*
X21383793Y-41471728D01*
X21385714Y-41452219D01*
X21385714Y-41076028D01*
X21666666Y-41076028D01*
X21686175Y-41074107D01*
X21689495Y-41072731D01*
X21693079Y-41072477D01*
X21711387Y-41065471D01*
X21806625Y-41017852D01*
X21815021Y-41012566D01*
X21817461Y-41011556D01*
X21820207Y-41009302D01*
X21823215Y-41007409D01*
X21824944Y-41005414D01*
X21832615Y-40999120D01*
X21880233Y-40951501D01*
X21886525Y-40943834D01*
X21888523Y-40942102D01*
X21890416Y-40939093D01*
X21892670Y-40936348D01*
X21893680Y-40933907D01*
X21898966Y-40925511D01*
X21946585Y-40830274D01*
X21953591Y-40811965D01*
X21953845Y-40808381D01*
X21955221Y-40805061D01*
X21957142Y-40785552D01*
X21957142Y-40642695D01*
X21955221Y-40623186D01*
X21953845Y-40619865D01*
X21953591Y-40616282D01*
X21946585Y-40597973D01*
X21898966Y-40502736D01*
X21893680Y-40494339D01*
X21892670Y-40491899D01*
X21890416Y-40489153D01*
X21888523Y-40486145D01*
X21886525Y-40484412D01*
X21880233Y-40476746D01*
X21855707Y-40452219D01*
X22185714Y-40452219D01*
X22185714Y-41452219D01*
X22187635Y-41471728D01*
X22202567Y-41507776D01*
X22230157Y-41535366D01*
X22266205Y-41550298D01*
X22285714Y-41552219D01*
X22761904Y-41552219D01*
X22781413Y-41550298D01*
X22817461Y-41535366D01*
X22845051Y-41507776D01*
X22859983Y-41471728D01*
X22859983Y-41432710D01*
X22845051Y-41396662D01*
X22817461Y-41369072D01*
X22781413Y-41354140D01*
X22761904Y-41352219D01*
X22385714Y-41352219D01*
X22385714Y-41028409D01*
X22619047Y-41028409D01*
X22638556Y-41026488D01*
X22674604Y-41011556D01*
X22702194Y-40983966D01*
X22717126Y-40947918D01*
X22717126Y-40908900D01*
X22702194Y-40872852D01*
X22674604Y-40845262D01*
X22638556Y-40830330D01*
X22619047Y-40828409D01*
X22385714Y-40828409D01*
X22385714Y-40552219D01*
X22761904Y-40552219D01*
X22781413Y-40550298D01*
X22817461Y-40535366D01*
X22845051Y-40507776D01*
X22859983Y-40471728D01*
X22859983Y-40432710D01*
X22845051Y-40396662D01*
X22817461Y-40369072D01*
X22781413Y-40354140D01*
X22761904Y-40352219D01*
X22285714Y-40352219D01*
X22266205Y-40354140D01*
X22230157Y-40369072D01*
X22202567Y-40396662D01*
X22187635Y-40432710D01*
X22185714Y-40452219D01*
X21855707Y-40452219D01*
X21832615Y-40429127D01*
X21824944Y-40422832D01*
X21823215Y-40420838D01*
X21820207Y-40418944D01*
X21817461Y-40416691D01*
X21815021Y-40415680D01*
X21806625Y-40410395D01*
X21711387Y-40362776D01*
X21693079Y-40355770D01*
X21689495Y-40355515D01*
X21686175Y-40354140D01*
X21666666Y-40352219D01*
X21285714Y-40352219D01*
X21266205Y-40354140D01*
X21230157Y-40369072D01*
X21202567Y-40396662D01*
X21187635Y-40432710D01*
X21185714Y-40452219D01*
X21074603Y-40452219D01*
X21074603Y-40241108D01*
X22971094Y-40241108D01*
X22971094Y-41663330D01*
G37*
D10*
X-15377507Y-3454819D02*
X-15377507Y-4169104D01*
X-15377507Y-4169104D02*
X-15425126Y-4311961D01*
X-15425126Y-4311961D02*
X-15520364Y-4407200D01*
X-15520364Y-4407200D02*
X-15663221Y-4454819D01*
X-15663221Y-4454819D02*
X-15758459Y-4454819D01*
X-14996554Y-3454819D02*
X-14377507Y-3454819D01*
X-14377507Y-3454819D02*
X-14710840Y-3835771D01*
X-14710840Y-3835771D02*
X-14567983Y-3835771D01*
X-14567983Y-3835771D02*
X-14472745Y-3883390D01*
X-14472745Y-3883390D02*
X-14425126Y-3931009D01*
X-14425126Y-3931009D02*
X-14377507Y-4026247D01*
X-14377507Y-4026247D02*
X-14377507Y-4264342D01*
X-14377507Y-4264342D02*
X-14425126Y-4359580D01*
X-14425126Y-4359580D02*
X-14472745Y-4407200D01*
X-14472745Y-4407200D02*
X-14567983Y-4454819D01*
X-14567983Y-4454819D02*
X-14853697Y-4454819D01*
X-14853697Y-4454819D02*
X-14948935Y-4407200D01*
X-14948935Y-4407200D02*
X-14996554Y-4359580D01*
X19622493Y11545181D02*
X19622493Y10830896D01*
X19622493Y10830896D02*
X19574874Y10688039D01*
X19574874Y10688039D02*
X19479636Y10592800D01*
X19479636Y10592800D02*
X19336779Y10545181D01*
X19336779Y10545181D02*
X19241541Y10545181D01*
X20622493Y10545181D02*
X20051065Y10545181D01*
X20336779Y10545181D02*
X20336779Y11545181D01*
X20336779Y11545181D02*
X20241541Y11402324D01*
X20241541Y11402324D02*
X20146303Y11307086D01*
X20146303Y11307086D02*
X20051065Y11259467D01*
D12*
%TO.C,J3*%
X-16555000Y-2605000D02*
X-16555000Y-1275000D01*
X-15225000Y-2605000D02*
X-16555000Y-2605000D01*
X-13955000Y-2605000D02*
X16585000Y-2605000D01*
X-13955000Y-2605000D02*
X-13955000Y-5000D01*
X16585000Y-2605000D02*
X16585000Y2595000D01*
X-16555000Y-5000D02*
X-16555000Y2595000D01*
X-13955000Y-5000D02*
X-16555000Y-5000D01*
X-16555000Y2595000D02*
X16585000Y2595000D01*
D13*
%TO.C,J1*%
X21218700Y-9623301D02*
X26781300Y-9623301D01*
X26781300Y-9623301D02*
X26781300Y9623301D01*
X26781300Y9623301D02*
X21218700Y9623301D01*
%TD*%
M02*
